<svg width="58" height="40" viewBox="0 0 58 40" fill="none" xmlns="http://www.w3.org/2000/svg">
<g clip-path="url(#clip0_210_1481)">
<path d="M54 0.509743H4C2.067 0.509743 0.5 2.07596 0.5 4.00799V35.992C0.5 37.924 2.067 39.4902 4 39.4902H54C55.933 39.4902 57.5 37.924 57.5 35.992V4.00799C57.5 2.07596 55.933 0.509743 54 0.509743Z" fill="#006FCF" stroke="#F3F3F3" stroke-width="2.06897"/>
<path fill-rule="evenodd" clip-rule="evenodd" d="M11.8632 28.8893V20.6589H21.1869L22.1872 21.8778L23.2206 20.6589H57.0632V28.3216C57.0632 28.3216 56.1782 28.8811 55.1546 28.8893H36.4152L35.2874 27.5919V28.8893H31.5916V26.6746C31.5916 26.6746 31.0867 26.9837 29.9953 26.9837H28.7373V28.8893H23.1415L22.1426 27.6443L21.1284 28.8893H11.8632ZM1 14.4557L3.09775 9.87421H6.7256L7.9161 12.4406V9.87421H12.4258L13.1346 11.729L13.8216 9.87421H34.0657V10.8067C34.0657 10.8067 35.1299 9.87421 36.8789 9.87421L43.4474 9.89572L44.6173 12.4285V9.87421H48.3913L49.43 11.329V9.87421H53.2386V18.1047H49.43L48.4346 16.6451V18.1047H42.8898L42.3321 16.8072H40.8415L40.293 18.1047H36.5327C35.0277 18.1047 34.0657 17.1911 34.0657 17.1911V18.1047H28.3961L27.2708 16.8072V18.1047H6.18816L5.63093 16.8072H4.14505L3.59176 18.1047H1V14.4557ZM1.01082 17.0515L3.84023 10.8889H5.98528L8.81199 17.0515H6.92932L6.40997 15.8175H3.37498L2.85291 17.0515H1.01082ZM5.81217 14.4796L4.88706 12.323L3.95925 14.4796H5.81217ZM9.00675 17.0505V10.8878L11.6245 10.897L13.147 14.8702L14.6331 10.8878H17.2299V17.0505H15.5853V12.5095L13.8419 17.0505H12.3996L10.6514 12.5095V17.0505H9.00675ZM18.3552 17.0505V10.8878H23.7219V12.2663H20.0171V13.3204H23.6353V14.6178H20.0171V15.7125H23.7219V17.0505H18.3552ZM24.674 17.0515V10.8889H28.3339C29.5465 10.8889 30.6331 11.5913 30.6331 12.8882C30.6331 13.9968 29.717 14.7108 28.8289 14.781L30.9929 17.0515H28.9831L27.0111 14.8622H26.3186V17.0515H24.674ZM28.1986 12.2674H26.3186V13.5647H28.223C28.5526 13.5647 28.9776 13.3254 28.9776 12.916C28.9776 12.5978 28.6496 12.2674 28.1986 12.2674ZM32.9837 17.0505H31.3045V10.8878H32.9837V17.0505ZM36.9655 17.0505H36.603C34.8492 17.0505 33.7844 15.7561 33.7844 13.9945C33.7844 12.1893 34.8373 10.8878 37.052 10.8878H38.8698V12.3474H36.9856C36.0865 12.3474 35.4507 13.0047 35.4507 14.0097C35.4507 15.2032 36.1777 15.7045 37.2251 15.7045H37.6579L36.9655 17.0505ZM37.7147 17.0515L40.5441 10.8889H42.6892L45.5159 17.0515H43.6332L43.1139 15.8175H40.0789L39.5568 17.0515H37.7147ZM42.5161 14.4796L41.591 12.323L40.6632 14.4796H42.5161ZM45.708 17.0505V10.8878H47.7989L50.4687 14.7597V10.8878H52.1134V17.0505H50.09L47.3526 13.0772V17.0505H45.708ZM12.9885 27.8352V21.6725H18.3552V23.051H14.6504V24.1052H18.2686V25.4025H14.6504V26.4973H18.3552V27.8352H12.9885ZM39.2853 27.8352V21.6725H44.6519V23.051H40.9472V24.1052H44.5481V25.4025H40.9472V26.4973H44.6519V27.8352H39.2853ZM18.5635 27.8352L21.1765 24.7918L18.5012 21.6725H20.5733L22.1665 23.6008L23.7651 21.6725H25.756L23.1159 24.7538L25.7338 27.8352H23.6621L22.1151 25.9372L20.6057 27.8352H18.5635ZM25.9291 27.8362V21.6736H29.5619C31.0525 21.6736 31.9234 22.5735 31.9234 23.7463C31.9234 25.1621 30.8131 25.8901 29.3482 25.8901H27.617V27.8362H25.9291ZM29.4402 23.0672H27.617V24.4863H29.4348C29.9151 24.4863 30.2517 24.188 30.2517 23.7767C30.2517 23.3389 29.9134 23.0672 29.4402 23.0672ZM32.6375 27.8352V21.6725H36.2973C37.51 21.6725 38.5966 22.3749 38.5966 23.6718C38.5966 24.7804 37.6805 25.4945 36.7923 25.5647L38.9563 27.8352H36.9465L34.9746 25.6458H34.2821V27.8352H32.6375ZM36.1621 23.051H34.2821V24.3483H36.1864C36.5161 24.3483 36.9411 24.1091 36.9411 23.6997C36.9411 23.3814 36.6131 23.051 36.1621 23.051ZM45.4137 27.8352V26.4973H48.7051C49.1921 26.4973 49.403 26.2507 49.403 25.9803C49.403 25.7212 49.1928 25.4593 48.7051 25.4593H47.2177C45.9249 25.4593 45.2048 24.7213 45.2048 23.6135C45.2048 22.6254 45.8642 21.6725 47.7854 21.6725H50.9881L50.2956 23.0591H47.5257C46.9962 23.0591 46.8332 23.3193 46.8332 23.5679C46.8332 23.8234 47.0347 24.1052 47.4392 24.1052H48.9972C50.4384 24.1052 51.0638 24.871 51.0638 25.8739C51.0638 26.952 50.367 27.8352 48.9188 27.8352H45.4137ZM51.2088 27.8352V26.4973H54.5002C54.9873 26.4973 55.1981 26.2507 55.1981 25.9803C55.1981 25.7212 54.9879 25.4593 54.5002 25.4593H53.0129C51.72 25.4593 51 24.7213 51 23.6135C51 22.6254 51.6594 21.6725 53.5806 21.6725H56.7833L56.0908 23.0591H53.3209C52.7914 23.0591 52.6284 23.3193 52.6284 23.5679C52.6284 23.8234 52.8298 24.1052 53.2343 24.1052H54.7924C56.2336 24.1052 56.859 24.871 56.859 25.8739C56.859 26.952 56.1621 27.8352 54.7139 27.8352H51.2088Z" fill="white"/>
</g>
<defs>
<clipPath id="clip0_210_1481">
<rect width="58" height="40" fill="white"/>
</clipPath>
</defs>
</svg>
