<svg width="66" height="40" viewBox="0 0 66 40" fill="none" xmlns="http://www.w3.org/2000/svg">
<path d="M41.4043 35.7264H23.7747V4.27872H41.4043V35.7264Z" fill="#FF5F00"/>
<path d="M24.9042 20.0001C24.9042 13.6207 27.9133 7.93813 32.5996 4.27616C29.1726 1.59833 24.8478 0 20.1474 0C9.02012 0 0 8.95424 0 20.0001C0 31.0458 9.02012 40 20.1474 40C24.8478 40 29.1726 38.4018 32.5996 35.7239C27.9133 32.0619 24.9042 26.3793 24.9042 20.0001Z" fill="#EB001B"/>
<path d="M65.1811 20.0001C65.1811 31.0458 56.161 40 45.0337 40C40.3333 40 36.0084 38.4018 32.5803 35.7239C37.2678 32.0619 40.2769 26.3793 40.2769 20.0001C40.2769 13.6207 37.2678 7.93813 32.5803 4.27616C36.0084 1.59833 40.3333 0 45.0337 0C56.161 0 65.1811 8.95424 65.1811 20.0001Z" fill="#F79E1B"/>
</svg>
