<svg width="110" height="40" viewBox="0 0 110 40" fill="none" xmlns="http://www.w3.org/2000/svg">
<path d="M0.000244141 29.2549L5.11903 10.7451H13.3027C15.8603 10.7451 17.5688 11.1515 18.438 11.9889C19.3009 12.8196 19.4672 14.1756 18.947 16.0815C18.6324 17.2042 18.1542 18.1466 17.4972 18.8912C16.8457 19.6371 15.9863 20.2269 14.928 20.6607C15.8258 20.8773 16.397 21.3075 16.6531 21.9525C16.9078 22.5975 16.8783 23.5381 16.569 24.7712L15.9465 27.3566L15.9447 27.4266C15.7651 28.1505 15.8182 28.5381 16.111 28.5695L15.9224 29.2549H10.3862C10.405 28.8193 10.4394 28.43 10.476 28.103C10.5162 27.7684 10.5658 27.5091 10.615 27.3311L11.1312 25.4826C11.3913 24.5213 11.4074 23.8508 11.166 23.4646C10.9225 23.0681 10.3772 22.8729 9.51652 22.8729H7.18996L5.41577 29.2549H0.000244141ZM8.34117 18.7019H10.8331C11.7063 18.7019 12.3508 18.5767 12.748 18.3179C13.1471 18.0569 13.4434 17.616 13.6173 16.9781C13.7974 16.3295 13.7531 15.8774 13.4948 15.6204C13.237 15.3593 12.6198 15.2324 11.6496 15.2324H9.30067L8.34117 18.7019Z" fill="white"/>
<path d="M35.5505 12.9849L31.7768 26.6437H27.1912L27.7547 24.6427C26.9476 25.4384 26.1218 26.0426 25.2892 26.4288C24.4633 26.8217 23.5919 27.0151 22.6744 27.0151C21.916 27.0151 21.2649 26.8769 20.7407 26.6029C20.2102 26.3297 19.8151 25.9143 19.5492 25.3667C19.3133 24.8872 19.2105 24.2951 19.2507 23.5877C19.2932 22.8916 19.5381 21.7173 19.9921 20.0729L21.9477 12.9849H26.9637L25.0121 20.0397C24.727 21.0723 24.6591 21.798 24.7981 22.1932C24.9429 22.5919 25.3294 22.7978 25.9569 22.7978C26.5888 22.7978 27.1201 22.5682 27.559 22.0994C28.0041 21.6347 28.3478 20.9417 28.6061 20.0195L30.5416 12.9849H35.5505Z" fill="white"/>
<path d="M35.5503 29.2549L40.6637 10.7451H47.6979C49.25 10.7451 50.4513 10.837 51.308 11.0389C52.1629 11.2322 52.8332 11.5462 53.3315 11.9889C53.9558 12.568 54.3384 13.2848 54.4957 14.1446C54.6436 15.0045 54.556 16.0061 54.232 17.1822C53.6591 19.2514 52.6549 20.837 51.2239 21.9449C49.7885 23.0384 48.0125 23.5879 45.8929 23.5879H42.601L41.0373 29.2549H35.5503ZM43.8474 19.0675H45.6163C46.7599 19.0675 47.5638 18.9257 48.0349 18.6521C48.4907 18.3749 48.8147 17.8824 49.0122 17.1822C49.2098 16.4726 49.1588 15.9765 48.8603 15.6993C48.5729 15.4234 47.8387 15.284 46.6638 15.284H44.8985L43.8474 19.0675Z" fill="white"/>
<path d="M63.0856 26.8211L63.1366 25.5239C62.3277 26.1316 61.5085 26.591 60.6849 26.878C59.8648 27.1705 58.9916 27.3189 58.0562 27.3189C56.6356 27.3189 55.6448 26.9314 55.0719 26.1814C54.5061 25.4301 54.4131 24.3514 54.7992 22.9752C55.1688 21.617 55.8262 20.6172 56.7745 19.978C57.7175 19.3312 59.2924 18.8683 61.5018 18.5723C61.782 18.5265 62.1574 18.4897 62.6276 18.4328C64.261 18.243 65.178 17.8061 65.3756 17.0934C65.4783 16.7032 65.4158 16.4152 65.1745 16.2385C64.9416 16.055 64.5063 15.9649 63.878 15.9649C63.3565 15.9649 62.9368 16.0734 62.5927 16.299C62.2491 16.5269 61.9925 16.8597 61.8187 17.328H56.9283C57.3698 15.7904 58.2721 14.6286 59.6266 13.8517C60.9763 13.0614 62.7558 12.681 64.9599 12.681C65.9963 12.681 66.9245 12.7784 67.745 12.9896C68.5669 13.1919 69.1675 13.4803 69.5572 13.8293C70.0367 14.2649 70.3205 14.7614 70.4014 15.3104C70.4948 15.8581 70.3925 16.6431 70.1064 17.6702L68.0029 25.2852C67.9354 25.5346 67.9224 25.7571 67.9591 25.9594C68.0029 26.1523 68.0869 26.3173 68.2353 26.4353L68.1222 26.8211H63.0856ZM64.3048 20.7222C63.7721 20.937 63.0798 21.1429 62.2196 21.369C60.8686 21.7327 60.1084 22.2181 59.9439 22.8187C59.83 23.2049 59.876 23.5023 60.0642 23.7283C60.2496 23.9432 60.5718 24.0517 61.0259 24.0517C61.8585 24.0517 62.527 23.8405 63.0253 23.4233C63.525 23.0008 63.8986 22.3374 64.16 21.4223C64.2056 21.2277 64.2458 21.0877 64.2717 20.9832L64.3048 20.7222Z" fill="white"/>
<path d="M70.4351 29.4664L71.5483 25.4236H72.9837C73.4632 25.4236 73.8404 25.3285 74.1077 25.1554C74.3789 24.9755 74.5635 24.6723 74.6699 24.2641C74.7231 24.0842 74.7557 23.895 74.778 23.6801C74.7923 23.4522 74.7923 23.2114 74.778 22.9324L74.012 10.4255H79.0893L79.0106 18.7129L83.443 10.4255H88.1645L80.3285 24.0183C79.4392 25.5375 78.793 26.5813 78.3827 27.151C77.9778 27.7134 77.5935 28.1508 77.2203 28.4468C76.7368 28.8563 76.1969 29.1466 75.6142 29.3157C75.0301 29.4883 74.1407 29.5745 72.9453 29.5745C72.6012 29.5745 72.2052 29.5677 71.7771 29.5453C71.3521 29.5287 70.8985 29.5032 70.4351 29.4664Z" fill="white"/>
<path d="M93.8234 9.7657L98.9498 19.9975L88.1643 30.2343L93.8234 9.7657Z" fill="#F47920"/>
<path d="M104.608 9.76571L109.742 19.9975L98.9497 30.2343L104.608 9.76571Z" fill="#008C44"/>
</svg>
