<svg width="79" height="40" viewBox="0 0 79 40" fill="none" xmlns="http://www.w3.org/2000/svg">
<path d="M27.56 31.7261L31.506 8.47532H37.8175L33.8687 31.7261H27.56ZM56.6703 8.97654C55.4201 8.50549 53.4605 8 51.0139 8C44.7775 8 40.3845 11.1534 40.3472 15.673C40.3119 19.0141 43.4833 20.8778 45.8771 21.99C48.334 23.1296 49.1597 23.8564 49.1481 24.8742C49.1326 26.4326 47.1863 27.1446 45.3723 27.1446C42.8462 27.1446 41.5041 26.7922 39.4314 25.9241L38.6181 25.5547L37.7322 30.7597C39.2064 31.4086 41.9324 31.9709 44.7627 32C51.3971 32 55.7037 28.8827 55.7529 24.0563C55.7765 21.4114 54.0951 19.3985 50.4538 17.7391C48.2478 16.6636 46.8968 15.9457 46.9111 14.8567C46.9111 13.8903 48.0547 12.8567 50.5255 12.8567C52.5894 12.8246 54.0846 13.2766 55.2494 13.7475L55.8149 14.0159L56.6703 8.97654ZM72.9116 8.47497H68.0346C66.5238 8.47497 65.3932 8.88913 64.7297 10.4031L55.3566 31.7108H61.984C61.984 31.7108 63.0675 28.8457 63.3126 28.2168C64.037 28.2168 70.4751 28.2267 71.3957 28.2267C71.5845 29.0407 72.1634 31.7108 72.1634 31.7108H78.02L72.9116 8.47426V8.47497ZM65.1739 23.4889C65.6957 22.1493 67.6885 16.9894 67.6885 16.9894C67.6511 17.0514 68.2065 15.6432 68.5252 14.7702L68.9517 16.775C68.9517 16.775 70.1604 22.3251 70.4129 23.4889H65.1739ZM22.2021 8.47497L16.023 24.331L15.3646 21.1087C14.2143 17.3944 10.6303 13.3702 6.62378 11.3554L12.2736 31.6892L18.9513 31.6816L28.8875 8.47473H22.2021" fill="white"/>
<path d="M10.2576 8.47413H0.0805499L0 8.95789C7.91755 10.8825 13.1565 15.5335 15.3317 21.1213L13.1186 10.4366C12.7366 8.96442 11.6286 8.52508 10.2579 8.47366" fill="#F2AE14"/>
</svg>
