<svg width="120" height="40" viewBox="0 0 120 40" fill="none" xmlns="http://www.w3.org/2000/svg">
<g clip-path="url(#clip0_303_1406)">
<path d="M15.6952 9.8424L0 -0.0200005V22.2564L15.6952 32.5424V9.8424Z" fill="url(#paint0_linear_303_1406)"/>
<path d="M7.40576 27.11L15.695 21.1072V32.5424L7.40576 27.11Z" fill="#E30613"/>
<path d="M7.14502 28.0876V39.118L15.115 33.3112L7.14502 28.0876Z" fill="url(#paint1_linear_303_1406)"/>
<path d="M54.8335 18.6248L58.1083 24.1408H56.9567L54.1183 19.3576L52.4255 21.138V24.1408H51.3963V12.016C51.3963 11.6644 51.9107 11.6628 51.9107 11.6628C51.9107 11.6628 52.4251 11.6644 52.4251 12.016V19.9516L56.5431 15.4492H57.7995L54.8335 18.6248ZM33.6159 20.702C33.6159 23.0576 31.7659 24.1396 29.8639 24.1396H25.6855C25.4067 24.1132 25.1875 23.8812 25.1875 23.5952V12.2144C25.1875 11.9108 25.4335 11.6624 25.7371 11.6624H29.7767C31.8707 11.6624 33.2495 12.7096 33.2495 14.716C33.2495 16.0772 32.3587 17.3368 30.8847 17.6628C32.6459 17.874 33.6159 19.2188 33.6159 20.702ZM26.2867 17.264H29.3583C30.8239 17.264 32.1679 16.5308 32.1679 14.8904C32.1679 13.2852 30.9983 12.6044 29.5159 12.6044H26.5511C26.4103 12.6088 26.2975 12.7188 26.2871 12.858L26.2867 17.264ZM32.4991 20.6672C32.4991 18.9572 31.1899 18.2064 29.5671 18.2064H26.2863V22.9428C26.2967 23.084 26.4123 23.1952 26.5555 23.1972H29.6019C31.2251 23.1972 32.4991 22.4124 32.4991 20.6672ZM47.2643 15.2268C47.0703 15.2268 46.8779 15.2428 46.6887 15.2744C45.6843 15.4028 44.7735 15.8928 44.2591 16.9368L44.2235 17.0132V15.8184C44.2235 15.4524 43.7343 15.4524 43.7343 15.4524C43.7343 15.4524 43.2451 15.4524 43.2451 15.8168V24.14H44.2743V18.932C44.2743 17.2192 45.5695 16.1356 46.9503 16.1356C48.1387 16.1356 48.9427 16.8172 48.9427 18.4424V24.14H49.9739V17.9708C49.9731 16.45 49.0819 15.2268 47.2643 15.2268ZM41.7351 15.7996V24.1404H40.7551V22.9572C40.2479 23.8168 39.2647 24.296 38.1191 24.296C35.6319 24.296 34.5191 22.3124 34.5191 19.9156C34.5191 17.0892 36.0899 15.238 38.2663 15.238C39.3919 15.238 40.1923 15.7144 40.6835 16.438L40.7559 16.5456V15.8004C40.7559 15.4524 41.2415 15.4524 41.2415 15.4524C41.2415 15.4524 41.7351 15.4524 41.7351 15.7996ZM40.7067 17.4888C40.1455 16.616 39.4095 16.086 38.3399 16.086C36.6199 16.086 35.5643 17.548 35.5643 19.8356C35.5643 21.6416 36.1943 23.4648 38.2207 23.4648C39.0379 23.4648 39.6679 23.2412 40.0939 22.7596C40.5707 22.2092 40.7071 21.6184 40.7071 20.0648L40.7067 17.4888ZM104.989 15.7996V24.1404H104.009V22.9572C103.502 23.8168 102.519 24.296 101.373 24.296C98.8859 24.296 97.7731 22.3124 97.7731 19.9156C97.7731 17.0892 99.3439 15.238 101.52 15.238C102.646 15.238 103.446 15.7144 103.938 16.438L104.01 16.5456V15.8004C104.01 15.4524 104.496 15.4524 104.496 15.4524C104.496 15.4524 104.989 15.4524 104.989 15.7996ZM103.961 17.4888C103.4 16.616 102.663 16.086 101.594 16.086C99.8739 16.086 98.8183 17.548 98.8183 19.8356C98.8183 21.6416 99.4483 23.4648 101.475 23.4648C102.292 23.4648 102.922 23.2412 103.348 22.7596C103.825 22.2092 103.961 21.6184 103.961 20.0648L103.961 17.4888ZM120 15.7996V24.1404H119.02V22.9572C118.513 23.8168 117.53 24.296 116.384 24.296C113.897 24.296 112.784 22.3124 112.784 19.9156C112.784 17.0892 114.355 15.238 116.531 15.238C117.657 15.238 118.457 15.7144 118.948 16.438L119.021 16.5456V15.8004C119.021 15.4524 119.506 15.4524 119.506 15.4524C119.506 15.4524 120 15.4524 120 15.7996ZM118.972 17.4888C118.411 16.616 117.675 16.086 116.605 16.086C114.885 16.086 113.83 17.548 113.83 19.8356C113.83 21.6416 114.46 23.4648 116.486 23.4648C117.303 23.4648 117.933 23.2412 118.359 22.7596C118.836 22.2092 118.972 21.6184 118.972 20.0648L118.972 17.4888ZM89.8635 22.1148V16.2868H91.9783V15.4488H89.8635V13.0624H89.8631C89.8631 12.7092 89.3499 12.7092 89.3499 12.7092C89.2887 12.7108 88.8343 12.7112 88.8343 13.0592V15.4484H87.6767V16.2864H88.8343V22.394C88.8343 23.86 89.8463 24.2784 90.9283 24.2784C91.2943 24.2784 91.9923 24.226 92.5511 24.0516V23.1616C92.1319 23.2664 91.6783 23.3536 91.2243 23.3536C90.3347 23.354 89.8635 23.0572 89.8635 22.1148ZM97.8439 15.3296L97.6983 15.3268C96.5287 15.3268 95.2375 15.7456 94.4703 17.2988L94.4355 17.3676V15.802C94.4355 15.4504 93.9379 15.4488 93.9379 15.4488C93.9379 15.4488 93.4403 15.4504 93.4403 15.802V24.1392H94.4703V19.8492C94.4703 18.4244 95.0203 17.5976 95.1963 17.3696C95.7483 16.6792 96.5699 16.2864 97.5059 16.2864C97.6023 16.2864 97.7187 16.2868 97.8435 16.292V15.3296H97.8439ZM67.7007 12.1356L72.0995 24.1408H70.9611L69.6195 20.3688C69.5819 20.2628 69.4371 20.1956 69.3203 20.1956H64.5567C64.4383 20.1956 64.2939 20.266 64.2547 20.3732L62.8807 24.1408H61.8067L66.2835 12.1536H66.2843C66.3903 11.8592 66.6643 11.6496 66.9863 11.6448H67.0103C67.3259 11.6492 67.5903 11.8512 67.7007 12.1356ZM69.2307 19.2704L66.9987 13.0056L66.9707 12.9784L66.9431 13.0056L64.6587 19.2704H69.2307ZM85.0331 19.3756L83.7419 19.0964C82.4679 18.8168 81.7695 18.4684 81.7695 17.5608C81.7695 16.6712 82.5375 16.0256 83.6891 16.0256C84.7183 16.0256 85.4343 16.3044 85.9923 16.7584L86.6727 16.1824C86.0099 15.502 84.9979 15.2224 83.7763 15.2224C81.8567 15.2224 80.7567 16.3216 80.7567 17.7356C80.7567 18.9572 81.6823 19.6548 83.2175 19.952L84.1771 20.1612C85.3815 20.388 86.0451 20.7196 86.0451 21.784C86.0451 22.9008 84.9103 23.5116 83.7935 23.5116C82.6419 23.5116 81.8219 23.1624 81.0887 22.4644L80.3911 23.0576C81.1931 23.9828 82.4327 24.3312 83.8111 24.3312C85.4511 24.3312 87.1087 23.4068 87.1087 21.574C87.1095 20.3 86.2547 19.6544 85.0331 19.3756ZM107.55 22.1324V12.014C107.548 11.6644 107.035 11.6628 107.035 11.6628C107.035 11.6628 106.522 11.6644 106.52 12.014V22.0628C106.52 23.1448 106.956 24.2092 108.474 24.2092C108.722 24.2092 109.012 24.1844 109.3 24.1364V23.3072C109.142 23.324 108.976 23.3368 108.806 23.3368C107.934 23.3368 107.55 22.8132 107.55 22.1324ZM110.839 15.454C110.839 15.454 110.324 15.4456 110.324 15.7996L110.324 24.1444H111.354V15.7996C111.354 15.4572 110.839 15.454 110.839 15.454ZM110.249 13.308V13.126C110.249 12.8256 110.496 12.582 110.802 12.582H110.873C111.179 12.582 111.427 12.8256 111.427 13.126V13.308C111.427 13.6084 111.179 13.852 110.873 13.852H110.802C110.496 13.852 110.249 13.6084 110.249 13.308ZM78.9055 15.4524C78.9055 15.4524 78.3887 15.4524 78.3887 15.7996V20.5908C78.3887 22.3036 77.0935 23.3872 75.7127 23.3872C74.5243 23.3872 73.7203 22.7056 73.7203 21.0804V15.7996C73.7203 15.4524 73.2043 15.4524 73.2043 15.4524C73.2043 15.4524 72.6891 15.4528 72.6891 15.7996V21.552C72.6891 23.0724 73.5803 24.296 75.3979 24.296C75.5919 24.296 75.7843 24.28 75.9735 24.2484C76.9779 24.12 77.8887 23.63 78.4031 22.586L78.4387 22.5096V24.1396H79.4175V15.7996C79.4179 15.4524 78.9055 15.4524 78.9055 15.4524Z" fill="white"/>
<path d="M27.6886 32.5396L26.9642 30.944H25.9046V32.5396H25.4238V28.706H26.9266C27.375 28.706 27.689 28.83 27.9002 29.0468C28.0834 29.2408 28.203 29.49 28.203 29.8252C28.203 30.1604 28.0942 30.388 27.911 30.582C27.797 30.7016 27.635 30.7932 27.4506 30.8524L28.219 32.5396H27.6886ZM26.9266 29.1488H25.9046V30.4952H26.9266C27.3806 30.4952 27.705 30.312 27.705 29.8248C27.705 29.3384 27.3806 29.1488 26.9266 29.1488ZM29.0866 32.5396V28.706H31.6494V29.1492H29.5674V30.3176H31.395V30.7716H29.5674V32.0964H31.6494V32.5396H29.0866ZM34.8206 32.2256C34.5554 32.4852 34.1446 32.6096 33.7338 32.6096C33.269 32.6096 32.8962 32.48 32.6362 32.242C32.3926 32.0144 32.2254 31.6856 32.2254 31.3224H32.7278C32.7278 31.55 32.841 31.7772 32.9982 31.9284C33.1706 32.0964 33.463 32.1668 33.7334 32.1668C34.0254 32.1668 34.2746 32.1076 34.447 31.9448C34.5658 31.8368 34.6422 31.702 34.6422 31.4964C34.6422 31.1988 34.4526 30.95 33.9986 30.8796L33.3926 30.788C32.819 30.7016 32.3706 30.3824 32.3706 29.7712C32.3706 29.4844 32.501 29.2084 32.7058 29.0144C32.971 28.7656 33.3118 28.636 33.7118 28.636C34.085 28.636 34.4526 28.76 34.707 29.0036C34.9398 29.2248 35.0638 29.5008 35.0746 29.8252H34.5714C34.5606 29.6364 34.4906 29.4684 34.3826 29.3444C34.237 29.1764 34.0042 29.0792 33.7066 29.0792C33.4306 29.0792 33.1934 29.1548 33.0254 29.3444C32.9282 29.4576 32.869 29.5872 32.869 29.7604C32.869 30.1064 33.155 30.2628 33.4414 30.3016C33.6582 30.3284 33.8682 30.3664 34.0798 30.3988C34.7182 30.4904 35.145 30.8796 35.145 31.4856C35.145 31.804 35.0102 32.0424 34.8206 32.2256ZM38.4082 30.7336C38.2034 30.9384 37.8894 31.0528 37.4678 31.0528H36.5214V32.5396H36.0402V28.706H37.4622C37.9106 28.706 38.2298 28.83 38.435 29.052C38.6194 29.2524 38.727 29.5276 38.727 29.8628C38.727 30.2356 38.6138 30.5276 38.4082 30.7336ZM37.4518 29.1432H36.5214V30.6136H37.457C37.9702 30.6136 38.2302 30.3764 38.2302 29.862C38.2302 29.376 37.927 29.1432 37.4518 29.1432ZM41.8174 32.204C41.5414 32.4744 41.1682 32.6148 40.7846 32.6148C40.4006 32.6148 40.0278 32.4744 39.7518 32.204C39.3358 31.7984 39.2602 31.236 39.2602 30.6248C39.2602 30.0144 39.3358 29.4516 39.7518 29.0464C40.0278 28.776 40.401 28.6356 40.7846 28.6356C41.1686 28.6356 41.5414 28.776 41.8174 29.0464C42.2334 29.452 42.3098 30.0144 42.3098 30.6248C42.3102 31.236 42.2338 31.7988 41.8174 32.204ZM41.4822 29.3816C41.299 29.192 41.0446 29.0948 40.7846 29.0948C40.5246 29.0948 40.2714 29.192 40.087 29.3816C39.7734 29.706 39.757 30.2248 39.757 30.6248C39.757 31.0256 39.773 31.5444 40.087 31.8688C40.2714 32.0584 40.5246 32.1556 40.7846 32.1556C41.0446 32.1556 41.2986 32.0584 41.4822 31.8688C41.7958 31.5444 41.8122 31.0256 41.8122 30.6248C41.8122 30.2248 41.7962 29.706 41.4822 29.3816ZM45.5678 32.5396L43.6866 29.4572V32.5396H43.2218V28.706H43.7622L45.6446 31.7992V28.706H46.1094V32.5396H45.5678ZM49.5722 32.2256C49.307 32.4852 48.8962 32.6096 48.4854 32.6096C48.0206 32.6096 47.6478 32.48 47.3878 32.242C47.1442 32.0144 46.977 31.6856 46.977 31.3224H47.4794C47.4794 31.55 47.5926 31.7772 47.7498 31.9284C47.9222 32.0964 48.2146 32.1668 48.485 32.1668C48.777 32.1668 49.0262 32.1076 49.1986 31.9448C49.3174 31.8368 49.3938 31.702 49.3938 31.4964C49.3938 31.1988 49.2042 30.95 48.7502 30.8796L48.1442 30.788C47.5706 30.7016 47.1222 30.3824 47.1222 29.7712C47.1222 29.4844 47.2518 29.2084 47.4574 29.0144C47.7226 28.7656 48.0634 28.636 48.4634 28.636C48.8366 28.636 49.2042 28.76 49.4586 29.0036C49.6914 29.2248 49.8154 29.5008 49.8262 29.8252H49.323C49.3122 29.6364 49.2422 29.4684 49.1342 29.3444C48.9886 29.1764 48.7558 29.0792 48.4582 29.0792C48.1822 29.0792 47.9442 29.1548 47.777 29.3444C47.6798 29.4576 47.6206 29.5872 47.6206 29.7604C47.6206 30.1064 47.9066 30.2628 48.193 30.3016C48.4098 30.3284 48.6198 30.3664 48.8314 30.3988C49.4698 30.4904 49.8966 30.8796 49.8966 31.4856C49.897 31.804 49.7622 32.0424 49.5722 32.2256ZM50.7922 32.5396V28.706H51.2838V32.5396H50.7922ZM54.8478 32.188C54.631 32.4208 54.2634 32.5396 53.885 32.5396H52.339V28.706H53.869C54.2258 28.706 54.5934 28.8248 54.8046 29.0576C54.9558 29.2248 55.0526 29.42 55.0526 29.696C55.0526 30.0636 54.8586 30.4152 54.5014 30.5444C54.8962 30.6748 55.1398 31.064 55.1398 31.4692C55.1402 31.7772 55.015 32.0092 54.8478 32.188ZM53.869 29.1324H52.8094V30.3388H53.8854C54.2854 30.3388 54.5614 30.16 54.5614 29.7328C54.5614 29.3332 54.2366 29.1324 53.869 29.1324ZM53.8962 30.7604H52.8094V32.096H53.8854C54.307 32.096 54.6478 31.89 54.6478 31.4364C54.6474 31.0096 54.3014 30.7604 53.8962 30.7604ZM56.0354 32.5396V28.706H56.5162V32.0912H58.3598V32.5396H56.0354ZM59.0602 32.5396V28.706H61.623V29.1492H59.541V30.3176H61.3686V30.7716H59.541V32.0964H61.623V32.5396H59.0602ZM66.6234 32.188C66.4066 32.4208 66.039 32.5396 65.6606 32.5396H64.1146V28.706H65.6446C66.0014 28.706 66.369 28.8248 66.5802 29.0576C66.7314 29.2248 66.8282 29.42 66.8282 29.696C66.8282 30.0636 66.6342 30.4152 66.277 30.5444C66.6718 30.6748 66.9154 31.064 66.9154 31.4692C66.9158 31.7772 66.7906 32.0092 66.6234 32.188ZM65.6446 29.1324H64.585V30.3388H65.661C66.061 30.3388 66.337 30.16 66.337 29.7328C66.3366 29.3332 66.0122 29.1324 65.6446 29.1324ZM65.6714 30.7604H64.5846V32.096H65.6606C66.0822 32.096 66.423 31.89 66.423 31.4364C66.423 31.0096 66.077 30.7604 65.6714 30.7604ZM70.113 32.5396L69.7994 31.6308H68.1338L67.8262 32.5396H67.339L68.691 28.706H69.2538L70.611 32.5396H70.113ZM68.9614 29.1864L68.2854 31.1764H69.6426L68.9614 29.1864ZM73.679 32.5396L71.7978 29.4572V32.5396H71.333V28.706H71.8734L73.7558 31.7992V28.706H74.2206V32.5396H73.679ZM77.7922 32.5396L76.6454 30.5496L75.867 31.4584V32.5396H75.3862V28.706H75.867V30.75L77.6242 28.706H78.2246L76.975 30.166L78.3538 32.54L77.7922 32.5396ZM79.049 32.5396V28.706H79.5406V32.5396H79.049ZM83.051 32.5396L81.1698 29.4572V32.5396H80.705V28.706H81.2454L83.1278 31.7992V28.706H83.5926V32.5396H83.051ZM87.1578 32.5396L87.077 32.0804C86.8882 32.394 86.4658 32.6152 86.0334 32.6152C85.6494 32.6152 85.2766 32.4912 85.0006 32.2204C84.6114 31.842 84.5034 31.3116 84.5034 30.6248C84.5034 30.0144 84.5842 29.4516 85.0006 29.0464C85.2766 28.776 85.6498 28.6356 86.0334 28.6356C86.4658 28.6356 86.8666 28.7868 87.131 29.068C87.3154 29.2632 87.4446 29.5056 87.461 29.814H86.9586C86.9426 29.636 86.883 29.5112 86.785 29.3924C86.6126 29.1864 86.3474 29.0896 86.0334 29.0896C85.7738 29.0896 85.5202 29.192 85.3358 29.3816C85.0222 29.706 85.0006 30.2248 85.0006 30.6248C85.0006 31.0096 85.0274 31.5604 85.3466 31.8852C85.531 32.0748 85.7734 32.1612 86.0334 32.1612C86.3038 32.1612 86.5582 32.0696 86.731 31.896C86.9854 31.6472 87.061 31.274 87.061 30.9224H86.0334V30.474H87.4934V32.5396H87.1578Z" fill="white"/>
</g>
<defs>
<linearGradient id="paint0_linear_303_1406" x1="12.2104" y1="22.6478" x2="-0.47294" y2="0.10799" gradientUnits="userSpaceOnUse">
<stop stop-color="#E9218E"/>
<stop offset="0.45" stop-color="#E6007E"/>
<stop offset="1" stop-color="#C7017F"/>
</linearGradient>
<linearGradient id="paint1_linear_303_1406" x1="11.4802" y1="30.4408" x2="4.31502" y2="35.7272" gradientUnits="userSpaceOnUse">
<stop stop-color="#EF7D00"/>
<stop offset="1" stop-color="#EA5153"/>
</linearGradient>
<clipPath id="clip0_303_1406">
<rect width="120" height="40" fill="white"/>
</clipPath>
</defs>
</svg>
