<svg width="144" height="40" viewBox="0 0 144 40" fill="none" xmlns="http://www.w3.org/2000/svg">
<g clip-path="url(#clip0_303_1413)">
<path d="M115.415 3.2222V28.3399H113.463C111.841 28.3399 110.527 27.0259 110.527 25.403V2.2042C110.527 0.477 111.888 0 112.594 0C113.64 0 115.413 0.8902 115.413 3.2201" fill="#FFC20D"/>
<path d="M48.4677 31.0297C41.8868 31.0297 36.5344 25.6735 36.5344 19.0928C36.5344 12.5121 41.8889 7.1558 48.4677 7.1558C55.0465 7.1558 60.401 12.5099 60.401 19.0928C60.401 25.6757 55.0464 31.0297 48.4677 31.0297ZM48.4677 0.00209999C37.9459 0.00209999 29.3851 8.5656 29.3851 19.0906C29.3851 29.6156 37.9459 38.1791 48.4677 38.1791C58.9895 38.1791 67.5503 29.6156 67.5503 19.0906C67.5503 8.5656 58.9894 0.00209999 48.4677 0.00209999ZM96.9588 27.4092L92.5453 22.9944L88.4043 27.1366L91.8022 30.5356C90.7249 30.8593 89.5838 31.0318 88.4043 31.0318C81.8234 31.0318 76.471 25.6757 76.471 19.0949C76.471 12.5141 81.8255 7.1558 88.4043 7.1558C94.9831 7.1558 100.338 12.512 100.338 19.0949C100.338 22.3278 99.0474 25.2625 96.9566 27.4114M107.489 19.0928C107.489 8.5656 98.9281 0.00209999 88.4043 0.00209999C77.8805 0.00209999 69.3195 8.5656 69.3195 19.0928C69.3195 29.62 77.8825 38.1812 88.4043 38.1812C91.6 38.1812 94.6147 37.3911 97.2632 35.9983L101.266 40L105.407 35.862L102.013 32.4673C105.4 29.0214 107.491 24.2977 107.491 19.097M19.6532 29.9904C18.6525 30.8487 17.1494 31.3023 15.3036 31.3023H7.0557V22.0914H15.3037C18.9145 22.0914 21.0712 23.8036 21.0712 26.6702C21.0712 28.046 20.5816 29.1918 19.6533 29.9883M7.0557 6.7341H14.1156C16.0956 6.7341 17.5965 7.0962 18.5802 7.8096C19.5255 8.4975 19.9875 9.5091 19.9875 10.8998C19.9875 12.2905 19.5255 13.317 18.5759 14.0198C17.588 14.7482 16.0892 15.1187 14.1156 15.1187H7.0557V6.7341ZM21.663 18.243C24.2477 17.208 26.9367 14.8291 26.9367 10.2268C26.9367 3.9165 22.6977 0.4515 14.7351 0.4515H0V37.5849H15.6655C23.3173 37.5849 28.1247 33.7579 28.1247 27.241C28.1247 22.6898 25.54 19.4825 21.663 18.243ZM141.807 25.5543L115.441 1.6782L114.451 0.7859C114.998 1.3013 115.415 2.0914 115.415 3.2201V34.1412C115.415 36.0409 116.955 37.5828 118.854 37.5828H140.562C142.461 37.5828 144 36.043 144 34.1412V31.7879C144 27.8011 144 27.7457 141.805 25.5521" fill="white"/>
</g>
<defs>
<clipPath id="clip0_303_1413">
<rect width="144" height="40" fill="white"/>
</clipPath>
</defs>
</svg>
