<svg width="144" height="40" viewBox="0 0 144 40" fill="none" xmlns="http://www.w3.org/2000/svg">
<g clip-path="url(#clip0_303_1438)">
<path d="M24.7183 0H25.2364C25.2364 13.3333 25.2364 26.6667 25.2364 40H24.7183C24.7183 26.6667 24.7183 13.3333 24.7183 0Z" fill="white"/>
<path d="M32.0156 1.69697C34.1586 1.70909 36.2991 1.66788 38.4397 1.72364C39.5075 1.76728 40.697 1.98303 41.4194 2.84364C42.3972 4.02909 42.5821 5.72606 42.1783 7.17091C41.9132 8.11152 41.0983 8.75394 40.2081 9.07637C41.5556 9.47394 42.5237 10.7224 42.7329 12.0849C42.9445 13.4642 42.5821 14.9818 41.6043 16.0073C40.7018 16.863 39.4005 17.0958 38.1989 17.1127C36.1362 17.1321 34.0759 17.1176 32.0156 17.12C32.0181 11.9782 32.0156 6.83879 32.0156 1.69697ZM35.3164 4.21334C35.314 5.44485 35.314 6.67637 35.3164 7.90788C36.1143 7.89091 36.934 7.98546 37.7172 7.7794C39.0794 7.43758 39.3032 5.33091 38.2305 4.55273C37.35 4.03637 36.2845 4.2594 35.3164 4.21334ZM35.3164 10.4267C35.3164 11.7697 35.314 13.1103 35.3164 14.4533C36.2675 14.4218 37.2502 14.56 38.1745 14.2788C39.5027 13.8667 39.617 11.9418 38.8435 10.9891C37.8972 10.1139 36.4791 10.5164 35.3164 10.4267Z" fill="white"/>
<path d="M70.1612 1.69697C71.2144 1.69697 72.2676 1.69697 73.3233 1.69697C73.3233 6.83879 73.3209 11.9782 73.3233 17.12C72.3285 17.1224 71.336 17.1224 70.3436 17.1224C70.3412 16.5236 70.3387 15.9273 70.3557 15.3285C70.0517 15.9661 69.7209 16.6739 69.0471 16.9964C67.7968 17.5927 66.1209 17.263 65.2768 16.1382C64.4425 15.0667 64.1871 13.6776 64.0874 12.3564C63.9974 10.8073 64.0825 9.2 64.6979 7.75515C65.053 6.89454 65.7049 6.10667 66.6025 5.77454C67.8285 5.32121 69.4557 5.51515 70.1733 6.72485C70.1466 5.0497 70.166 3.37212 70.1612 1.69697ZM68.1787 7.82788C67.7263 8.12121 67.5779 8.67636 67.4903 9.17576C67.3152 10.3103 67.3809 11.4642 67.4052 12.6085C67.4612 13.3212 67.4758 14.1139 67.9282 14.7079C68.4463 15.3455 69.5871 15.1079 69.8766 14.3588C70.2682 13.423 70.1271 12.3806 70.1612 11.3939C70.132 10.4048 70.2463 9.3697 69.8766 8.42909C69.6406 7.76727 68.782 7.46667 68.1787 7.82788Z" fill="white"/>
<path d="M74.9506 1.60485C76.033 1.60485 77.1179 1.60485 78.2027 1.60728C78.2027 2.66182 78.2027 3.71637 78.2027 4.77091C77.1179 4.77576 76.0354 4.77334 74.9506 4.77334C74.9481 3.71879 74.9481 2.66182 74.9506 1.60485Z" fill="white"/>
<path d="M126 1.69697C126.571 1.69697 127.143 1.69697 127.717 1.69697C127.717 6.83879 127.717 11.9806 127.717 17.12C127.199 17.1224 126.681 17.1224 126.165 17.12C126.163 16.6085 126.165 16.0945 126.177 15.583C125.124 17.7479 121.76 17.9539 120.313 16.1067C119.274 14.7806 119.065 13.023 119.067 11.3939C119.094 9.73333 119.398 7.94667 120.527 6.65454C121.534 5.47879 123.366 5.15636 124.74 5.84485C125.319 6.12606 125.686 6.67151 126.007 7.20485C125.99 5.3697 126.002 3.53212 126 1.69697ZM122.444 7.15151C121.765 7.51515 121.4 8.25454 121.223 8.97212C120.906 10.2788 120.918 11.6412 121.067 12.9697C121.198 13.9224 121.471 14.9867 122.305 15.5733C123.302 16.2448 124.776 15.92 125.448 14.9406C126.083 14.0558 125.988 12.9091 126.002 11.8764C125.958 10.6036 126.204 9.19758 125.46 8.0703C124.886 7.0497 123.492 6.59636 122.444 7.15151Z" fill="white"/>
<path d="M87.312 4.12363C87.9639 3.62182 88.8444 3.71151 89.6057 3.8303C89.6033 4.51636 89.6033 5.20485 89.6082 5.89333C89.1533 5.87636 88.6498 5.73091 88.2339 5.9806C87.9201 6.14545 87.8349 6.51636 87.6817 6.80485C88.8784 8.10666 88.8833 10.4024 87.4895 11.5661C86.2393 12.6255 84.4612 12.7248 82.919 12.4C82.4009 12.5188 81.873 13.2485 82.3157 13.7212C82.5639 13.8861 82.8655 13.937 83.1574 13.9758C84.4636 14.1406 85.7917 14.0752 87.0882 14.3248C88.1439 14.5091 89.1022 15.3018 89.3455 16.3636C89.6082 17.503 89.4525 18.8339 88.6182 19.7115C87.8349 20.5333 86.6917 20.8824 85.5947 21.0327C84.269 21.1806 82.9141 21.2048 81.6055 20.9358C80.7468 20.7418 79.8395 20.3515 79.392 19.5491C78.993 18.7758 79.0076 17.7115 79.6474 17.0642C79.9952 16.6909 80.4841 16.5067 80.9439 16.3055C80.1728 15.9297 79.4357 15.2291 79.499 14.303C79.4868 13.1273 80.5133 12.3442 81.4474 11.8327C79.1974 10.8606 79.2436 7.2606 81.316 6.12606C82.8947 5.26545 84.8941 5.26303 86.5287 5.97576C86.6576 5.32363 86.7476 4.56242 87.312 4.12363ZM83.7071 7.30666C83.2863 7.54182 83.1793 8.06303 83.133 8.49939C83.0893 9.1103 83.0552 9.76242 83.3179 10.3321C83.6049 11.0085 84.753 11.0376 85.0376 10.3467C85.2493 9.84 85.2347 9.27273 85.2249 8.73454C85.1884 8.21333 85.1471 7.57576 84.6557 7.26545C84.3322 7.15636 84.016 7.16848 83.7071 7.30666ZM81.9193 17.4206C81.6857 17.8909 81.7757 18.5745 82.306 18.8048C83.1112 19.183 84.0379 19.1491 84.9111 19.12C85.4511 19.0667 86.086 19.0182 86.4752 18.5842C86.9106 18.0194 86.6114 17.0739 85.8914 16.9285C84.8552 16.7345 83.7922 16.7491 82.7439 16.6327C82.4422 16.8606 82.0676 17.0497 81.9193 17.4206Z" fill="white"/>
<path d="M101.617 5.75515C103.03 5.21455 104.75 5.24121 106.037 6.09212C106.837 6.60364 107.165 7.56121 107.236 8.46546C107.423 11.3479 107.073 14.257 107.491 17.1249C106.942 17.1224 106.394 17.1224 105.85 17.1224C105.767 16.4655 105.713 15.8061 105.716 15.1442C105.482 15.5636 105.249 15.9879 104.937 16.3539C103.544 18.0194 100.442 17.7649 99.4352 15.8036C98.5814 14.1115 99.0606 11.7018 100.78 10.7345C102.228 9.91273 103.967 9.96121 105.575 10.0994C105.56 9.22424 105.621 8.24243 105.052 7.50788C104.434 6.73212 103.266 6.67637 102.4 7.01333C101.705 7.27273 101.367 7.97576 101.128 8.62546C100.569 8.52849 100.009 8.43637 99.4498 8.3394C99.6687 7.17091 100.498 6.17212 101.617 5.75515ZM102.055 11.7552C100.844 12.3515 100.566 13.9927 101.063 15.1442C101.423 15.9127 102.383 16.1067 103.152 15.9879C104.186 15.8497 104.971 14.9939 105.317 14.0558C105.655 13.2339 105.609 12.3249 105.575 11.4545C104.407 11.2824 103.14 11.217 102.055 11.7552Z" fill="white"/>
<path d="M112.923 5.62666C114.157 5.16363 115.745 5.37454 116.633 6.40969C117.282 7.18545 117.27 8.25454 117.302 9.21212C117.307 11.8473 117.302 14.4824 117.304 17.12C116.73 17.1224 116.159 17.1224 115.587 17.1224C115.58 14.4873 115.594 11.8545 115.582 9.21939C115.543 8.46303 115.533 7.50545 114.813 7.04727C113.906 6.57939 112.634 6.82909 112.077 7.71394C111.464 8.65697 111.396 9.82303 111.367 10.9139C111.35 12.9842 111.367 15.0521 111.359 17.1224C110.785 17.1224 110.214 17.1224 109.642 17.12C109.642 13.3212 109.642 9.52485 109.642 5.72848C110.18 5.72606 110.715 5.72606 111.255 5.72848C111.255 6.28848 111.255 6.85091 111.24 7.41333C111.61 6.67394 112.109 5.92727 112.923 5.62666Z" fill="white"/>
<path d="M44.735 7.27272C46.2966 4.99878 50.1228 4.82424 51.8206 7.02788C52.8593 8.43636 53.0247 10.2594 53.0004 11.9539C50.9863 11.9564 48.9723 11.9564 46.9582 11.9539C46.9777 12.7927 46.9047 13.6848 47.2744 14.4655C47.6563 15.2436 48.7947 15.3382 49.4417 14.8509C49.9452 14.4509 50.0158 13.7673 50.135 13.1806C51.0958 13.2436 52.0566 13.3018 53.015 13.3721C52.7231 14.8073 52.0055 16.3079 50.585 16.9212C48.8774 17.6339 46.6639 17.5224 45.2628 16.2255C44.0855 15.1176 43.6939 13.4376 43.6477 11.8788C43.6282 10.2958 43.8447 8.62303 44.735 7.27272ZM47.469 8.0509C47.0287 8.63757 47.0433 9.40848 46.9825 10.1042C47.9774 10.1067 48.9723 10.1067 49.9671 10.1042C49.9477 9.42303 49.9598 8.67636 49.5463 8.09697C49.0793 7.43757 47.9604 7.39878 47.469 8.0509Z" fill="white"/>
<path d="M58.7044 5.68484C59.8866 5.30909 61.3752 5.34787 62.2947 6.28363C63.0001 6.98181 63.039 8.03878 63.0584 8.96969C63.0633 11.6873 63.0584 14.4024 63.0609 17.12C61.9906 17.1248 60.9228 17.12 59.8549 17.1224C59.8476 14.5648 59.8549 12.0097 59.8525 9.45212C59.833 8.99878 59.8403 8.46303 59.4682 8.13818C58.8844 7.81091 57.9722 7.89333 57.6147 8.51394C57.3593 9.02787 57.3739 9.62181 57.3593 10.1818C57.3617 12.4945 57.3617 14.8097 57.3593 17.1224C56.289 17.12 55.2211 17.1224 54.1509 17.12C54.1533 13.3236 54.1509 9.52484 54.1533 5.72848C55.1652 5.72606 56.1795 5.72606 57.1939 5.72848C57.1939 6.22787 57.189 6.72727 57.1744 7.22424C57.5344 6.59151 57.9795 5.93212 58.7044 5.68484Z" fill="white"/>
<path d="M91.7904 5.69455C93.4761 5.23879 95.5704 5.39637 96.7964 6.77818C97.9907 8.17455 98.1391 10.1212 98.1026 11.8788C98.0466 13.4303 97.745 15.1297 96.5799 16.2594C95.2591 17.4836 93.2158 17.5806 91.5715 17.0521C90.0902 16.5552 89.212 15.0764 88.9518 13.6097C88.6477 11.8739 88.6477 10.0436 89.1829 8.35152C89.5696 7.12243 90.5207 6.04606 91.7904 5.69455ZM92.941 7.79152C92.4253 8.04849 92.2988 8.67394 92.2088 9.18546C92.0264 10.5552 92.0458 11.9467 92.1675 13.3188C92.2599 13.9273 92.3377 14.6739 92.9191 15.0279C93.4518 15.2339 94.1937 15.1127 94.4077 14.5164C94.7775 13.6073 94.7531 12.6012 94.7848 11.6388C94.7702 10.5576 94.8115 9.44485 94.4564 8.4097C94.2739 7.78182 93.5077 7.53455 92.941 7.79152Z" fill="white"/>
<path d="M74.9796 5.72849C76.0474 5.72606 77.1177 5.72606 78.1855 5.72849C78.188 9.52485 78.1855 13.3236 78.188 17.12C77.1177 17.1224 76.0499 17.12 74.9796 17.1224C74.9772 13.3236 74.9796 9.52485 74.9796 5.72849Z" fill="white"/>
<path d="M0 6.94788C6.15405 11.3309 12.33 15.68 18.4914 20.0485C12.3349 24.4679 6.15162 28.8509 0 33.2776V31.0061C5.11297 27.3406 10.2527 23.7091 15.373 20.0509C10.2527 16.4242 5.11297 12.8242 0 9.18545V6.94788Z" fill="white"/>
<path d="M0.199698 11.1636C4.31537 14.1261 8.43105 17.0885 12.5492 20.0509C8.43591 23.023 4.31781 25.9903 0.199698 28.9576C0.197266 28.2012 0.197266 27.4473 0.197266 26.6909C3.27673 24.4752 6.35862 22.2667 9.43808 20.0509C6.35862 17.8303 3.27429 15.6194 0.197266 13.3964C0.197266 12.6521 0.197266 11.9079 0.199698 11.1636Z" fill="white"/>
<path d="M0.197266 15.5709C2.26483 17.0642 4.32997 18.56 6.3951 20.0509C4.32997 21.5321 2.26727 23.0182 0.199698 24.4945C0.197266 23.7479 0.197266 23.0036 0.197266 22.257C1.22132 21.52 2.25024 20.7903 3.27186 20.0533C2.25024 19.3164 1.22375 18.5818 0.199698 17.8497C0.197266 17.0885 0.197266 16.3297 0.197266 15.5709Z" fill="white"/>
<path d="M34.745 22.863C35.898 22.863 37.051 22.863 38.2015 22.863C39.6828 28.0024 41.1593 33.1467 42.6358 38.2885C41.4731 38.2885 40.3104 38.2885 39.1477 38.2885C38.8801 37.2339 38.6174 36.177 38.3523 35.1224C36.9074 35.12 35.4601 35.12 34.0153 35.1224C33.7574 36.177 33.4996 37.2315 33.2491 38.2861C32.191 38.2909 31.1377 38.2885 30.082 38.2885C31.6339 33.1442 33.1882 28.0048 34.745 22.863ZM36.1704 26.2206C35.6742 28.2982 35.1682 30.3758 34.6696 32.4533C35.6864 32.4558 36.7031 32.4558 37.7199 32.4558C37.2091 30.3758 36.6885 28.2982 36.1704 26.2206Z" fill="white"/>
<path d="M48.5414 22.8655C49.5947 22.8606 50.6503 22.863 51.7036 22.863C51.7036 28.0049 51.7036 33.1467 51.7036 38.2861C50.7112 38.2909 49.7187 38.2885 48.7263 38.2885C48.7214 37.6824 48.719 37.0764 48.7336 36.4703C48.449 37.1006 48.1376 37.7867 47.493 38.1285C46.216 38.7903 44.4549 38.4339 43.6084 37.2461C42.6549 35.9515 42.4701 34.2836 42.4312 32.7224C42.4336 31.0909 42.6282 29.3382 43.6182 27.9806C44.7201 26.4315 47.4833 26.1964 48.556 27.8933C48.5244 26.2158 48.5512 24.5406 48.5414 22.8655ZM46.7317 28.9164C46.1601 29.1345 45.9679 29.7794 45.8706 30.3249C45.6955 31.5224 45.7563 32.7418 45.7928 33.9491C45.856 34.6352 45.8852 35.4158 46.3766 35.9564C46.9433 36.5067 48.0039 36.2279 48.2714 35.4982C48.646 34.5406 48.5098 33.4861 48.5439 32.4824C48.5098 31.4958 48.629 30.4533 48.2203 29.5249C47.9795 28.9721 47.2912 28.6982 46.7317 28.9164Z" fill="white"/>
<path d="M63.3794 22.8655C64.4472 22.8606 65.5175 22.863 66.5878 22.863C66.5902 28.0049 66.5878 33.1467 66.5878 38.2885C65.5175 38.2909 64.4497 38.2885 63.3794 38.2885C63.3794 33.1467 63.3818 28.0049 63.3794 22.8655Z" fill="white"/>
<path d="M78.6431 22.7733C79.7279 22.7709 80.8128 22.7709 81.8977 22.7758C81.8977 23.8279 81.8977 24.8824 81.8977 25.937C80.8128 25.9394 79.7279 25.9394 78.6431 25.937C78.6431 24.8824 78.6431 23.8279 78.6431 22.7733Z" fill="white"/>
<path d="M89.1025 22.863C90.1558 22.863 91.2114 22.8606 92.2671 22.8655C92.2647 28.0073 92.2671 33.1467 92.2647 38.2885C91.2723 38.2885 90.2774 38.2885 89.285 38.2885C89.2825 37.6897 89.2825 37.0885 89.2922 36.4921C88.9955 37.1442 88.6501 37.8594 87.9617 38.1794C86.7601 38.7273 85.1766 38.4533 84.3179 37.4255C83.5955 36.5818 83.2768 35.4788 83.1212 34.4049C82.912 32.7879 82.9314 31.1152 83.4058 29.5467C83.7293 28.4873 84.3714 27.4279 85.4393 26.9891C86.6798 26.4849 88.3655 26.6521 89.1171 27.8836C89.0855 26.2109 89.1074 24.5382 89.1025 22.863ZM87.1712 28.9721C86.6263 29.2776 86.4925 29.9467 86.4074 30.5115C86.2663 31.6485 86.3222 32.8 86.3563 33.9418C86.4195 34.64 86.4463 35.4448 86.9668 35.983C87.5579 36.5115 88.6014 36.2036 88.8495 35.4594C89.2071 34.5115 89.0709 33.4739 89.105 32.4849C89.0733 31.5273 89.1852 30.5188 88.8204 29.6097C88.599 28.9576 87.7744 28.6424 87.1712 28.9721Z" fill="white"/>
<path d="M104.383 22.863C106.161 22.8727 107.939 22.8364 109.717 22.8921C110.639 22.9333 111.636 23.1442 112.3 23.8351C113.373 24.9551 113.611 26.7006 113.13 28.1358C112.809 29.0958 111.96 29.7406 111.05 30.1042C111.746 30.3297 112.451 30.6351 112.947 31.1927C113.811 32.1091 113.993 33.4521 113.869 34.6594C113.777 35.7067 113.281 36.7515 112.398 37.3624C111.34 38.1091 109.999 38.2836 108.732 38.2885C107.282 38.2909 105.833 38.2885 104.38 38.2885C104.383 33.1467 104.38 28.0048 104.383 22.863ZM106.285 24.4412C106.283 26.097 106.283 27.7527 106.285 29.4085C107.569 29.3455 108.922 29.5927 110.155 29.1321C111.378 28.6351 111.576 27.0764 111.279 25.9491C111.082 25.1224 110.298 24.5551 109.469 24.4873C108.411 24.3855 107.346 24.463 106.285 24.4412ZM106.285 30.9721C106.283 32.8897 106.283 34.8073 106.283 36.7273C107.256 36.7151 108.231 36.7564 109.204 36.703C110.043 36.6497 110.941 36.3491 111.447 35.6388C111.982 34.8703 112.018 33.8545 111.814 32.9697C111.558 31.903 110.549 31.1345 109.476 31.0327C108.416 30.9212 107.348 30.9867 106.285 30.9721Z" fill="white"/>
<path d="M135.929 22.863C136.498 22.863 137.07 22.863 137.644 22.863C137.649 26.0824 137.642 29.3018 137.646 32.5212C139.011 30.6473 140.364 28.7661 141.728 26.8921C142.356 26.8945 142.983 26.8945 143.613 26.897C142.614 28.2376 141.614 29.5782 140.609 30.9139C141.733 33.3673 142.876 35.8109 144 38.2667V38.2885C143.38 38.2885 142.762 38.2885 142.146 38.2861C141.251 36.2739 140.349 34.2667 139.451 32.2545C138.848 33.0739 138.245 33.8933 137.646 34.7152C137.644 35.9055 137.644 37.0982 137.646 38.2885C137.072 38.2885 136.498 38.2885 135.927 38.2885C135.927 33.1467 135.927 28.0048 135.929 22.863Z" fill="white"/>
<path d="M54.1192 28.2303C55.7587 26.1673 59.3514 26.0679 61.0151 28.1551C62.0806 29.5661 62.2508 31.4109 62.2289 33.12C60.2149 33.1224 58.2008 33.12 56.1843 33.1224C56.2038 33.9467 56.1357 34.8194 56.4811 35.5927C56.9019 36.5309 58.4076 36.5576 58.9451 35.7164C59.2103 35.3091 59.2614 34.8145 59.3635 34.3515C60.3219 34.4121 61.2803 34.4703 62.2362 34.5382C61.9954 35.6291 61.5916 36.7467 60.7233 37.5006C59.5727 38.5139 57.9041 38.6764 56.4495 38.4C55.3014 38.1697 54.2749 37.4303 53.7106 36.4073C52.9176 35.0085 52.7862 33.343 52.9151 31.7721C53.0392 30.5285 53.3335 29.2364 54.1192 28.2303ZM56.6368 29.3018C56.2573 29.8836 56.2646 30.6036 56.2062 31.2703C57.2011 31.2752 58.1984 31.2727 59.1957 31.2703C59.1714 30.5721 59.186 29.7964 58.7311 29.2145C58.2251 28.5745 57.0746 28.5939 56.6368 29.3018Z" fill="white"/>
<path d="M71.2263 26.8412C72.9509 26.4364 75.0695 26.5455 76.3368 27.9345C77.1614 29.0206 76.9473 30.4824 77.0009 31.7576C77.0641 33.9345 76.8525 36.1285 77.1638 38.2909C76.169 38.2861 75.179 38.2885 74.1865 38.2885C74.0746 37.7261 74.0357 37.1515 74.0552 36.5794C73.7268 37.0885 73.3838 37.6145 72.8706 37.9588C71.9755 38.5721 70.7909 38.657 69.7668 38.3515C68.8571 38.0776 68.1638 37.2776 67.9765 36.3564C67.6968 35.0085 67.9571 33.4036 69.0906 32.5067C70.4138 31.4642 72.1798 31.3333 73.7974 31.2073C73.7584 30.543 73.8703 29.823 73.5565 29.2097C73.2671 28.6788 72.5252 28.6642 72.0314 28.8873C71.4476 29.1976 71.3844 29.937 71.2701 30.5091C70.263 30.4073 69.2584 30.3103 68.2538 30.2036C68.3828 28.5745 69.6476 27.2024 71.2263 26.8412ZM71.776 33.4788C71.2092 33.9273 71.1436 34.7297 71.2287 35.3939C71.2749 35.9127 71.6763 36.4291 72.2406 36.4048C72.9119 36.4194 73.3668 35.8158 73.576 35.2461C73.8338 34.4703 73.7779 33.6388 73.7949 32.8339C73.1041 32.9673 72.35 33.0303 71.776 33.4788Z" fill="white"/>
<path d="M94.5948 28.3442C96.1978 26.1576 99.9413 26.0267 101.612 28.1988C102.646 29.6097 102.812 31.4279 102.792 33.12C100.776 33.1249 98.7616 33.12 96.7451 33.1224C96.7719 33.9612 96.6916 34.8533 97.0638 35.6315C97.4627 36.4461 98.6838 36.5261 99.3138 35.9491C99.7492 35.5345 99.8027 34.9067 99.9219 34.3515C100.883 34.4121 101.841 34.4727 102.802 34.5382C102.515 36.0097 101.751 37.5394 100.282 38.1333C98.5378 38.817 96.2854 38.6642 94.9256 37.2703C93.7654 36.0752 93.4346 34.3321 93.4321 32.7249C93.4589 31.2121 93.6948 29.6073 94.5948 28.3442ZM97.2243 29.2655C96.8181 29.8497 96.8302 30.5915 96.7743 31.2703C97.7667 31.2727 98.7616 31.2727 99.7565 31.2727C99.7346 30.5867 99.7492 29.8327 99.3235 29.2533C98.8443 28.5891 97.6889 28.5745 97.2243 29.2655Z" fill="white"/>
<path d="M115.713 29.5127C115.957 28.0315 117.246 26.9285 118.693 26.6764C119.997 26.4267 121.49 26.5673 122.539 27.4497C123.164 27.9588 123.407 28.7758 123.485 29.5491C123.714 32.4582 123.327 35.3964 123.75 38.2909C123.2 38.2885 122.656 38.2885 122.111 38.2885C122.028 37.6388 121.977 36.9842 121.982 36.3273C121.546 37.12 121.023 37.9418 120.157 38.3127C118.664 38.9648 116.611 38.5745 115.762 37.0933C114.801 35.377 115.297 32.8364 117.1 31.8691C118.54 31.0836 120.255 31.1394 121.843 31.2679C121.826 30.3927 121.882 29.4158 121.318 28.6788C120.673 27.8667 119.43 27.8352 118.547 28.2327C117.92 28.5212 117.613 29.1758 117.397 29.7891C116.835 29.697 116.273 29.6048 115.713 29.5127ZM118.216 32.977C117.088 33.6145 116.852 35.1855 117.321 36.303C117.91 37.4424 119.605 37.3988 120.52 36.6909C121.756 35.7552 121.979 34.0727 121.841 32.6327C120.639 32.4339 119.318 32.383 118.216 32.977Z" fill="white"/>
<path d="M129.242 26.7733C130.461 26.3491 132.011 26.5552 132.884 27.5685C133.524 28.3249 133.533 29.3721 133.56 30.3103C133.584 32.9697 133.565 35.6291 133.57 38.2885C132.996 38.2885 132.424 38.2885 131.852 38.2885C131.848 35.7091 131.86 33.1321 131.848 30.5527C131.804 29.7794 131.843 28.8315 131.181 28.2885C130.308 27.7309 128.982 27.9491 128.384 28.8145C127.739 29.7382 127.659 30.9115 127.63 32.0024C127.622 34.097 127.63 36.1915 127.627 38.2861C127.053 38.2885 126.479 38.2885 125.91 38.2885C125.908 34.4897 125.908 30.6933 125.91 26.8945C126.44 26.8945 126.973 26.8945 127.506 26.8945C127.506 27.4642 127.506 28.0339 127.494 28.6036C127.863 27.8327 128.394 27.0642 129.242 26.7733Z" fill="white"/>
<path d="M78.6577 26.8945C79.728 26.8921 80.7958 26.8945 81.8661 26.8945C81.8685 30.6909 81.8637 34.4897 81.8661 38.2861C80.7983 38.2909 79.728 38.2909 78.6577 38.2861C78.6577 34.4897 78.6577 30.6933 78.6577 26.8945Z" fill="white"/>
</g>
<defs>
<clipPath id="clip0_303_1438">
<rect width="144" height="40" fill="white"/>
</clipPath>
</defs>
</svg>
