<svg width="138" height="40" viewBox="0 0 138 40" fill="none" xmlns="http://www.w3.org/2000/svg">
<path d="M134.936 27.5138V33.0864C131.842 34.6337 128.9 35.4073 125.962 35.4073C117.839 35.4073 112.963 30.6108 112.963 24.574C112.963 18.073 118.533 12.6564 125.661 12.6564C127.19 12.6535 128.709 12.9148 130.149 13.4288C131.155 13.7382 131.771 14.125 132.393 14.125C132.937 14.125 133.089 13.1967 133.166 12.6551H133.94L134.632 20.1683H133.704C133.385 18.8144 132.685 17.5792 131.69 16.6096C130.238 15.1397 128.211 14.3661 125.885 14.3661C121.009 14.3661 118.149 18.2342 118.149 24.0389C118.149 29.7637 121.628 33.7118 126.272 33.7118C127.722 33.6938 129.15 33.3506 130.451 32.7074V26.9697C130.451 25.113 130.141 24.4296 127.511 24.4296V23.5786H137.34V24.4296C134.862 24.4296 134.942 25.2032 134.942 27.5241L134.936 27.5138ZM107.929 18.3825V35.0153H106.614L89.984 17.8448C90.0485 18.2794 90.0768 18.719 90.0639 19.16V29.6039C90.0639 32.8685 90.0639 34.0135 93.0037 34.0135V34.8645H85.1798V34.0135C88.1222 34.0135 88.1222 32.621 88.1222 29.6039V17.6901C88.1222 15.9082 88.1222 13.9767 85.0277 13.9767V13.1283H92.3771L106.073 27.2121C106.004 26.8293 105.978 26.4401 105.997 26.0517V18.3889C105.997 15.2945 106.074 13.9767 103.134 13.9767V13.1283H110.948V13.9767C108.085 13.9767 107.931 15.2145 107.931 18.3889L107.929 18.3825ZM70.0942 34.867V34.0161C71.9509 34.0161 73.2687 33.8613 73.2687 31.1537V16.8366C73.2687 14.0515 72.2604 13.9742 70.0942 13.9742V13.1258H81.0796V13.9742C78.8336 13.9742 77.9052 14.0515 77.9052 16.8366V31.1524C77.9052 33.8601 79.0657 34.0148 81.0796 34.0148V34.8658L70.0942 34.867Z" fill="white"/>
<path d="M56.6371 12.7673C55.1118 11.242 53.3712 10.4813 52.0638 8.9598C51.3997 8.31512 50.8466 7.58921 50.4289 6.77433C49.9995 6.28437 49.4837 5.87951 48.9074 5.57522L49.2349 6.55514H49.1253C48.5619 6.50047 48.0292 6.27305 47.6 5.90401L48.0384 5.46562C47.8733 5.28511 47.6258 5.2013 47.3872 5.24643C45.6389 4.91893 44.0117 5.89756 42.2685 6.22635V6.44554C43.3567 6.77304 43.5797 8.08046 44.2309 8.73159H44.882C45.1012 8.73159 45.4235 8.95078 45.6556 8.95078C45.6169 8.72385 45.5434 8.50337 45.4364 8.29965C45.5138 8.1965 45.6337 8.1359 45.7626 8.1359C45.8916 8.1359 46.0115 8.1965 46.0888 8.29965C46.6304 8.62715 47.4001 8.08046 47.9378 8.95078C47.3034 8.88889 46.6639 9.00235 46.0888 9.27828C46.0888 9.38787 46.4163 9.60062 46.308 9.81981C45.7613 9.60062 45.1089 9.81981 44.8897 9.38143L44.7801 9.49102C45.4893 10.2904 46.3918 10.8964 47.4027 11.2394C48.821 11.4586 50.0253 10.801 51.4294 11.1298C56.427 13.528 59.9083 19.1909 59.9083 24.8383C59.9083 32.8969 55.3349 36.1564 52.3977 36.1564C51.7621 36.1242 51.1509 35.8985 50.6493 35.5053C51.0387 34.0509 51.2218 32.5475 51.1909 31.0415C51.1909 26.3611 49.3419 21.3532 46.8199 18.7409C45.6208 17.5418 44.3108 16.5555 42.8848 16.5555C42.2336 16.5555 41.5735 16.5555 41.1364 17.097C40.5949 17.5547 40.3112 18.2445 40.3718 18.9511C39.3661 19.6009 38.1799 19.9413 36.9962 19.931C35.4891 19.8851 34.0376 19.3512 32.86 18.4096V16.7785C32.5376 16.6689 31.4416 16.0049 31.9858 15.4672C32.2366 15.5578 32.4618 15.7077 32.642 15.9043C32.5325 15.1307 32.5325 14.2733 31.9845 13.6183C31.6772 13.6394 31.3712 13.5627 31.1103 13.3991C30.9202 13.2346 30.7648 13.034 30.653 12.8089C30.5412 12.5837 30.4753 12.3386 30.4592 12.0878C30.7815 12.6293 31.3333 12.4153 31.6583 12.7389C31.1116 11.4276 31.3308 10.89 30.347 8.93144C30.1278 7.95152 29.1479 7.40999 28.4929 6.74596C28.1654 6.52677 28.0545 6.19927 27.6187 6.19927C27.1803 6.08968 27.1803 5.54814 27.1803 5.21935C27.4085 5.30574 27.6264 5.41534 27.8314 5.54685C27.1803 4.02153 26.7432 2.39048 25.3262 1.51629L24.9987 1.73549H23.2516C23.5649 1.52919 23.8924 1.34868 24.2315 1.1888C24.0835 1.02375 23.8972 0.897582 23.689 0.821369C23.4809 0.745156 23.2571 0.721233 23.0376 0.751701C22.7101 0.861297 22.2639 1.19009 21.8384 1.19009H21.8036C21.8036 0.867744 21.694 0.416465 22.3503 0.210167C21.7005 0.10186 21.0378 0.10186 20.3879 0.210167C20.2848 0.751701 19.9495 1.08436 19.9495 1.52145C19.6684 1.78835 19.4119 2.08104 19.1849 2.39564C19.1849 1.74451 19.5073 1.08436 19.6233 0.435806C19.1849 0.545402 18.6395 0.874189 18.4242 0.874189C17.55 0.435805 16.4618 0 16.0286 0C16.6861 0.438384 16.3561 1.19911 16.467 1.74838L16.0286 1.52919C15.919 1.0908 15.3774 0.755568 15.2549 0.217902C14.668 0.236068 14.0999 0.429624 13.6239 0.77362V0.883215C13.8238 0.916894 14.0143 0.992278 14.1832 1.10446C14.352 1.21665 14.4953 1.36312 14.6038 1.53435C13.8302 1.53435 13.2925 1.20685 12.5357 1.20685C12.537 1.17719 12.5254 1.14883 12.5047 1.12949C12.4841 1.11014 12.4557 1.09725 12.4274 1.09854C12.0921 1.25326 11.7827 1.47632 11.5532 1.75612C10.8024 2.30429 10.234 3.06584 9.92213 3.94159C10.1452 3.91576 10.371 3.95377 10.5733 4.05119C10.1349 4.16078 9.92213 4.70232 9.48503 4.82481V6.45972C9.04972 6.80397 8.71192 7.256 8.50512 7.77101C7.96745 9.49876 7.85399 11.4612 7.85399 13.6466C7.82686 13.793 7.76291 13.9301 7.66817 14.0449C7.57342 14.1597 7.45101 14.2485 7.31245 14.3029V16.0513C7.61932 15.738 7.94424 15.4453 8.29237 15.1771V16.5761C8.08451 16.6131 7.89549 16.7199 7.75649 16.8789C7.61749 17.0378 7.53682 17.2393 7.52778 17.4503C7.52778 17.8887 7.64124 18.3245 7.64124 18.7616C7.62448 18.9163 7.66187 19.071 7.74439 19.1999C7.77129 19.065 7.83758 18.941 7.93488 18.8438C8.03218 18.7464 8.15613 18.6802 8.29108 18.6533C8.47412 18.5037 8.70615 18.4275 8.94221 18.4392C8.66104 18.8001 8.44107 19.2048 8.29108 19.637L7.96874 19.9594C7.91459 20.0625 7.87848 20.1734 7.85914 20.2869C8.29608 22.4881 8.95353 24.6397 9.82156 26.7092C8.94737 28.1275 7.96745 30.8455 7.31632 33.459C7.04819 33.2267 6.73681 33.0495 6.40005 32.9378C6.06328 32.826 5.70777 32.7819 5.35391 32.8079C5.00925 32.8363 4.67474 32.9385 4.37307 33.1076C4.0714 33.2767 3.80963 33.5087 3.60553 33.7878C2.96729 33.4655 2.20012 33.5506 1.64569 34.007C0.66577 34.8812 0.665771 35.3183 0.665771 35.9694C0.257042 36.373 0.0210879 36.921 0.00819429 37.4948C-0.0475848 38.3786 0.182517 39.257 0.664481 40H17.2303C17.1197 39.6358 16.9383 39.2971 16.6965 39.0033C16.369 38.3457 16.5869 37.478 16.5869 36.8178C16.8839 36.1635 17.2486 35.5421 17.6751 34.9637C17.7847 34.6362 17.6751 34.6362 17.7847 34.5254L18.5493 34.3062C18.9877 34.3062 19.3229 33.9787 19.8606 33.9787C20.1881 34.5254 20.1881 33.6563 20.7348 33.4371C21.9339 33.2179 23.133 33.4371 23.7944 34.3113C23.8124 34.4239 23.8476 34.5331 23.8989 34.6349H23.3212C22.6701 34.3126 21.9094 33.9774 21.1357 34.3126C21.1357 34.6349 21.0326 34.6349 21.0326 34.9637V35.5053C21.471 35.5053 21.8062 35.9437 22.2265 36.1564C22.5592 35.7735 23.0311 35.5375 23.5378 35.5053C23.7036 35.4935 23.8699 35.5156 24.0268 35.5702C24.1837 35.6248 24.3279 35.7107 24.4506 35.8227C24.5732 35.9348 24.6718 36.0706 24.7403 36.2219C24.8089 36.3733 24.8459 36.537 24.8491 36.7031V37.9022C25.2978 38.2632 25.8161 38.5211 26.3744 38.6758C26.2146 39.002 25.8587 39.1813 25.5002 39.1142H24.6261C24.4365 39.0497 24.3063 38.877 24.2986 38.6758C24.0059 39.0884 23.7506 39.5268 23.5249 39.9871H36.269C36.0498 39.5487 35.8307 39.2135 35.7223 39.0072C35.5418 38.2929 35.4683 37.5567 35.5032 36.8217L36.6971 35.1868C37.3547 35.1868 37.8962 34.9676 39.0927 34.8593C39.3119 34.5318 39.0927 34.3178 40.0727 34.3178C40.5884 34.31 41.1235 34.4209 41.6031 34.6453C41.7127 34.7703 41.7127 34.9573 41.6031 35.0836C41.3839 35.2977 40.952 34.8645 40.6284 34.9741C40.4092 35.1932 40.7315 35.2964 40.7315 35.5156C40.9507 35.7348 39.7516 35.2964 39.7516 35.2964C39.7516 35.2964 39.5324 35.954 39.4241 36.1706L40.0752 36.8282C40.2944 37.1505 39.7529 37.4793 39.7529 37.8081C39.5337 37.6985 39.0953 37.3697 39.0953 37.4857C38.8761 38.3599 39.0953 39.1168 38.9857 39.991H40.1848L40.288 38.1472C40.3976 37.059 41.7063 35.0875 42.4735 35.0875C42.8729 35.1162 43.2534 35.2691 43.5617 35.5246C43.7809 35.963 44.3353 36.1757 44.3353 36.3988C44.3353 36.6219 44.013 36.7263 43.4611 36.7263C43.2419 36.7263 43.2419 36.3988 42.9144 36.1796L42.2633 36.8372C42.2633 36.8372 43.0279 37.4883 43.0279 37.9254C43.0484 38.1286 43.0194 38.3338 42.9432 38.5233C42.8671 38.7128 42.7462 38.8811 42.5908 39.0136L41.9397 37.7024C41.6122 37.7024 41.0655 38.3535 41.0655 38.6823C41.0655 39.1207 40.8463 39.3398 40.8463 39.9936H47.5961C48.3707 39.982 49.127 39.7567 49.7816 39.3424H51.0929C53.816 39.3424 55.9899 38.5688 57.9523 36.6193C60.5749 33.9967 62.0912 29.8695 62.0912 25.8428C62.0532 20.945 60.0921 16.2583 56.6307 12.7931L56.6371 12.7673ZM45.987 7.08378C45.7678 6.75628 45.4455 7.08378 45.2134 7.08378C45.0707 7.08551 44.9293 7.05725 44.7982 7.00083C44.6672 6.94442 44.5494 6.8611 44.4526 6.75628C45.1038 6.75628 45.4326 6.42878 45.9741 6.20959C46.4125 6.53709 46.8483 6.64797 47.1732 7.08378H45.987ZM49.485 8.71483C49.1627 8.27644 48.7204 7.73491 48.2859 7.73491C48.6083 7.73491 49.0595 7.40741 49.5972 7.40741C49.8164 7.94894 50.2483 8.2816 50.3708 8.71869L50.4804 9.36982C50.3854 9.18115 50.2407 9.022 50.0619 8.90953C49.883 8.79706 49.6769 8.73553 49.4657 8.73159L49.485 8.71483ZM31.4906 23.1029L30.9491 23.3221C30.1167 23.379 29.2954 23.1057 28.6631 22.5613C29.037 22.484 29.3812 22.2944 29.6469 22.0198C30.1569 22.5358 30.7929 22.9096 31.4919 23.1041L31.4906 23.1029ZM25.8303 21.9038C25.2888 22.0133 24.8504 21.4654 24.305 21.2462C24.0858 20.595 24.0858 19.9349 23.8666 19.6151C24.305 19.9375 25.2849 19.9375 25.0606 20.9264C25.0644 21.2488 25.5015 21.4679 25.8303 21.9012V21.9038ZM25.8303 25.4972C26.251 25.6723 26.6524 25.8905 27.0281 26.1483H26.7006C25.5015 26.5867 24.5152 25.8208 23.5443 25.1684C24.1735 24.9492 24.8362 24.8383 25.5041 24.8461L25.8303 25.4972ZM26.0495 23.7488C26.4363 23.5425 26.827 23.393 27.2486 23.3104C27.687 23.7488 28.1228 24.5096 28.8835 24.9454C28.4452 24.9454 27.6844 24.9454 27.2486 24.6179C26.7974 24.4116 26.3899 24.115 26.0495 23.754V23.7488ZM24.8504 30.5051C24.8788 30.1119 25.1341 29.7702 25.5015 29.6309C26.1527 29.8501 26.7006 28.4318 27.3556 29.1925C27.6393 29.2763 27.9359 29.3137 28.2298 29.3021C28.9944 29.6296 29.2098 30.2821 29.5411 30.8275C28.9996 30.8275 28.5573 30.8275 28.2298 30.2808C28.1202 30.2808 27.9075 29.9584 27.7915 30.1712C27.2499 30.6096 26.7032 29.8437 26.0431 29.952C25.7259 30.2924 25.3081 30.5219 24.8491 30.6031L24.8504 30.5051ZM30.2915 18.9679C30.1819 19.4062 29.7448 18.9679 29.6404 18.9679H28.6566C28.5391 18.8087 28.4637 18.6224 28.4374 18.4263C28.8758 18.3167 29.211 18.0988 29.5308 18.3167C29.7448 18.6391 29.9692 18.9679 30.3044 18.9679H30.2915ZM28.2234 14.2875C28.324 14.5995 28.4722 14.8935 28.6618 15.1617C29.1002 14.9425 29.1002 15.4892 29.2085 15.6C29.3658 15.9095 29.4754 16.2383 29.536 16.58C28.8784 16.58 28.5522 16.2525 28.2247 15.6C28.1692 15.1642 28.1692 14.7233 28.2247 14.2888L28.2234 14.2875ZM27.3492 19.6216L28.4323 20.6015C27.7811 20.6015 27.0204 20.929 26.6839 20.274C26.9331 20.0856 27.1579 19.8668 27.3531 19.6229L27.3492 19.6216ZM27.2461 11.3503C27.2461 11.4599 27.0269 12.4385 27.0269 12.4385L26.1527 12.6577L26.6942 10.2621C26.9224 10.5999 27.1081 10.9661 27.2461 11.3503ZM11.7866 3.40264C12.0444 3.40908 12.3023 3.2737 12.4377 3.07514C12.9844 2.96554 13.3119 2.42401 13.963 2.74764C14.3756 2.79148 14.7818 2.90236 15.1621 3.07514C15.1488 3.17665 15.162 3.27987 15.2004 3.37476C15.2388 3.46966 15.3011 3.553 15.3813 3.61667C16.0324 3.61667 16.0324 4.27425 16.3612 4.81578C16.6447 4.8998 16.94 4.93682 17.2354 4.92538C17.8865 5.14457 18.4345 5.14457 18.6473 5.47207C19.4596 4.97179 20.424 4.77839 21.3678 4.92538C21.5483 4.49989 21.694 4.0615 21.8062 3.61409C21.9158 3.94159 21.9158 3.61409 22.1337 3.61409C22.5721 3.28659 23.1175 2.7399 23.8821 2.96296C24.3205 3.28531 25.076 3.07256 25.517 3.61409C25.8445 4.05248 26.0585 4.70232 26.3912 5.24901C26.0637 5.90014 26.3912 6.77433 25.7401 7.10312L25.0825 7.75425C24.8685 7.75425 24.8685 7.97344 24.541 7.97344C24.8685 8.74706 24.6506 9.82239 24.3218 10.596C24.541 10.4864 24.8685 10.4864 24.8685 10.1576C24.9228 10.2983 24.9228 10.4541 24.8685 10.5947V10.9222C24.8195 11.5102 24.5461 12.0569 24.1039 12.4475C23.8847 13.0987 23.3302 13.969 22.5824 14.0786V14.2978C24.1464 14.3236 25.6795 14.7336 27.0462 15.4969V16.2705C25.7213 15.4591 24.2229 14.9735 22.674 14.8535C22.7095 15.1123 22.6715 15.3759 22.5644 15.6142C23.8756 16.2718 25.0657 16.8133 26.154 17.7997V18.7796C25.0606 17.6914 23.8679 16.5941 22.4509 16.2744C22.3477 16.4936 21.9094 16.7128 21.7998 17.1486C21.0816 16.5503 20.2319 16.1171 19.3216 15.9237C18.9993 15.9237 18.7801 14.7246 18.7801 14.7246C19.0259 14.6336 19.2488 14.4898 19.4331 14.3034C19.6173 14.1169 19.7584 13.8923 19.8464 13.6454H20.2848C20.6071 13.6454 20.6071 13.4262 20.6071 13.0987C20.6071 12.4475 19.1952 12.4475 18.539 12.4475C17.7744 12.4475 17.2277 12.4475 16.7906 12.7699C16.5714 12.7699 16.6874 13.0974 16.6874 13.3166C16.7661 13.4512 16.8774 13.5638 17.0111 13.6441C17.2303 13.6441 17.4494 13.4249 17.6622 13.4249C17.5526 14.0825 17.7718 14.4048 18.4268 14.7362L18.3236 15.8295C17.0124 15.8295 16.1382 16.3762 15.1673 16.8095C14.8575 16.5722 14.5987 16.2749 14.4065 15.9353C13.0953 16.3737 10.8131 18.1208 10.8131 18.1208V17.3471C11.7969 16.4729 13.0991 16.0358 14.0829 15.4982V14.7246C13.6445 14.5054 13.2087 14.7246 12.7716 14.7246C11.8098 14.8406 10.8995 15.2223 10.1439 15.8308C10.131 15.573 10.0962 15.319 10.0343 15.0572C11.2334 14.3996 12.7574 13.8581 14.1706 14.0773V13.6312C14.0803 13.4042 14.0803 13.0768 13.8611 13.0768C13.21 12.4256 12.5499 11.4457 12.5499 10.7907L12.9882 10.5715C12.769 9.92038 12.5499 8.28547 12.9882 7.74264C12.3685 7.45477 11.8405 7.00091 11.4629 6.43136C11.2167 5.9487 11.0346 5.43591 10.9214 4.90604C11.254 4.26393 11.4591 4.04216 11.7956 3.38845L11.7866 3.40264ZM21.9107 23.7553C21.364 23.4278 20.3853 23.3169 20.5994 22.6671C20.7654 22.3097 21.0291 22.0067 21.3601 21.7929C21.4258 22.4745 21.6123 23.1389 21.9107 23.7553ZM15.1608 20.5989L14.8333 22.0172C14.467 21.3747 14.2099 20.6758 14.0726 19.9491L15.1608 20.5989ZM13.749 22.346C13.0345 22.0644 12.424 21.5697 12.0006 20.929C11.8014 20.5194 11.6899 20.0728 11.6731 19.6177C12.0406 19.6306 12.3732 19.8369 12.5473 20.1592V20.2688C13.094 20.9264 13.6355 21.4705 13.749 22.3408V22.346ZM12.5499 23.6573C12.5058 24.2446 12.2326 24.7911 11.7891 25.1787C11.6508 25.2974 11.5048 25.4068 11.352 25.5062C11.352 24.8551 11.6795 24.3071 11.6795 23.7579C12.0019 23.6483 12.3216 23.4304 12.5434 23.6483L12.5499 23.6573ZM13.6381 24.9686C13.7477 24.859 13.8573 24.9686 14.0765 24.9686L13.6381 26.5996C13.0965 27.038 12.3268 26.8188 11.6782 26.8188C12.5421 26.5867 13.1958 25.6068 13.6329 24.957L13.6381 24.9686ZM9.82929 7.75425C10.0069 7.40307 10.2255 7.07415 10.4804 6.77433V8.08561L9.70681 8.30481L9.82929 7.75425ZM9.82929 9.93972L10.7035 9.61222L10.14 10.2595C10.2496 11.3477 9.81769 12.1136 9.81769 13.0884L9.271 11.34C9.37931 10.8436 9.56755 10.3678 9.83058 9.93198L9.82929 9.93972ZM9.70294 22.5562C9.79835 22.2519 9.9866 21.985 10.2445 21.7825C10.572 21.8921 10.786 21.8921 11.2244 22.0017C10.6777 22.5433 10.131 22.7663 9.9131 23.42C9.90795 23.117 9.83574 22.8179 9.70294 22.5459V22.5562ZM2.75068 37.1453C2.51626 36.9971 2.25935 36.8878 1.98995 36.8217C1.66245 37.4728 1.98995 37.9099 1.98995 38.6707C1.98479 38.8937 1.94869 39.1142 1.88035 39.3282C1.4987 39.1787 1.21504 38.8512 1.10673 38.4541V36.7057L2.08665 35.504C2.37235 35.6564 2.59463 35.9054 2.71388 36.2065C2.83313 36.5075 2.8416 36.8412 2.73778 37.1479L2.75068 37.1453ZM5.25978 37.1453C5.15019 36.707 4.8214 36.1654 4.276 36.1654C3.83761 37.0396 3.73446 37.3645 4.1664 38.6707C3.88274 38.9517 3.55008 39.1864 3.18261 39.3282C3.0036 38.8028 2.92914 38.2474 2.96342 37.6933C2.95568 36.9519 3.06657 36.2144 3.29092 35.5079C3.61326 35.1855 3.83761 34.6337 4.16511 34.3087H5.35906C4.81753 34.3087 4.81753 34.8503 4.81753 35.1829C5.14503 35.2925 5.59115 35.4021 5.59115 35.9566C5.60146 36.3795 5.49058 36.7972 5.27139 37.1582L5.25978 37.1453ZM7.98034 38.6668C7.98034 38.1253 8.30269 37.4677 8.30269 36.8178C8.06673 36.5806 7.76115 36.4272 7.4285 36.3795C7.17062 36.56 7.02492 36.8372 6.99011 37.1531C6.66261 37.8042 6.01019 38.4644 5.90189 39.1129C5.87223 39.1142 5.84386 39.1026 5.82452 39.082C5.80518 39.0613 5.79229 39.033 5.79358 39.0046C5.79358 37.9164 5.90318 36.0649 6.55817 35.3016C7.10873 34.6414 7.53809 34.6414 8.19567 34.5499L8.7372 34.6401L8.29882 35.2912C8.7372 35.5104 9.38704 35.9488 9.38704 36.6025C9.39091 37.4857 7.97519 38.6836 7.97519 38.6836L7.98034 38.6668ZM12.1166 36.5987L11.352 34.6259C10.4778 33.7517 9.50309 33.646 8.95639 33.2141C8.51801 33.1045 8.51801 33.4333 8.30527 33.2141C8.27948 32.8891 8.39552 32.5694 8.62761 32.3399H9.26584L9.92342 32.6674C10.2638 33.0078 11.0168 33.0078 11.0168 33.6602C10.9902 33.7792 10.9966 33.9032 11.0352 34.0188C11.0738 34.1344 11.1432 34.2374 11.236 34.3165L12.3294 34.6259L12.4325 35.5001L12.1166 36.5987ZM13.3157 34.6259C13.0965 34.3036 13.3157 33.7517 12.9934 33.4268C12.9934 33.2076 13.2126 33.0993 13.103 32.9884C12.9934 32.7692 11.6847 32.3309 11.6847 32.3309C11.187 32.0034 10.7138 31.6398 10.2664 31.2426C9.82801 31.133 9.49277 31.3522 8.9551 31.4618V31.2426C9.1743 30.8042 9.1743 30.2627 9.82929 30.2627C10.0062 30.2334 10.1875 30.2479 10.3575 30.305C10.5274 30.3621 10.6808 30.4601 10.8041 30.5902C11.2424 30.5902 11.4616 31.0286 11.7878 31.1317C12.1837 31.5108 12.6234 31.8409 13.0991 32.1117C13.0656 32.376 13.1945 32.6326 13.4266 32.7628C14.0778 32.7628 13.865 33.4139 14.0778 33.851L13.3157 34.6259ZM14.5149 32.1374C14.2957 31.3638 13.7412 30.6121 13.103 30.6121C12.7781 30.3452 12.5138 30.0113 12.3294 29.6322C12.0019 29.3047 11.6782 29.6322 11.2412 29.3047C10.7473 29.2557 10.2509 29.3692 9.82929 29.6322V29.3047L10.6029 28.4305C11.3765 28.5401 12.3513 28.4305 12.5628 28.9772C13.0102 29.1964 13.4163 29.493 13.7619 29.8514V30.1789C13.9759 30.2885 14.413 30.3981 14.6361 30.5012C14.6361 30.8287 14.5329 32.1362 14.5329 32.1362L14.5149 32.1374ZM15.7088 26.8033C15.206 26.9155 14.6902 26.9155 14.1874 26.8033C14.5149 26.5841 14.8385 26.481 15.2807 26.1522L16.1549 25.278H17.0291C16.7016 25.9356 16.3651 26.5854 15.7088 26.8033ZM16.0363 21.9063C16.3779 21.8732 16.7213 21.95 17.0162 22.1255C17.0162 22.6722 17.2354 23.1054 17.2354 23.7566C16.5843 23.099 16.0363 22.5549 16.0363 21.9025V21.9063ZM16.3638 28.4383C16.467 28.1159 16.8022 27.9999 17.0149 27.6646C17.3069 27.2911 17.5617 26.8899 17.7757 26.4668C18.1246 26.2214 18.5482 26.1056 18.9735 26.1393C18.8639 26.7904 18.5351 27.0135 17.9897 27.7704C17.6699 27.9896 17.0149 28.0927 16.3651 28.4215L16.3638 28.4383ZM17.8853 30.5064L17.2341 29.6322H18.8871L19.2146 30.2833C19.0297 30.4294 18.8107 30.5261 18.5782 30.5644C18.3457 30.6027 18.1073 30.5815 17.8853 30.5025V30.5064ZM18.6589 24.0854L18.4616 22.992C18.8794 22.7341 19.2481 22.4014 19.5447 22.0121C19.5318 22.7767 19.4222 23.7527 18.6615 24.0802L18.6589 24.0854ZM19.9702 18.425C19.8606 18.425 19.9702 18.7474 19.8606 18.7474C19.7664 19.1056 19.6932 19.4689 19.6414 19.8356C19.4817 19.9389 19.2997 20.0026 19.1105 20.0217C18.9213 20.0408 18.7302 20.0145 18.5531 19.9452V19.6177C18.4629 19.334 18.4268 19.0375 18.4436 18.7435L18.334 18.6339C18.223 18.6694 18.1295 18.7454 18.0719 18.8466C18.0143 18.9479 17.997 19.0671 18.0232 19.1806C17.8517 19.4024 17.7396 19.6641 17.7009 19.9542C17.3437 19.9671 16.9943 19.8511 16.7132 19.6319V18.652C16.7132 18.4379 16.7132 18.4379 16.6036 18.4379L16.0621 18.9795C15.6237 18.652 15.5206 17.7804 15.5206 17.2311C17.2689 16.2512 19.4557 16.5735 20.7451 17.1215C20.9643 17.2311 21.1835 17.2311 21.3962 17.3407C21.2866 17.9918 21.0739 18.9756 20.4163 19.4088C20.3815 19.0439 20.2229 18.7023 19.9702 18.4379V18.425ZM21.93 30.1802C21.5372 30.0651 21.1685 29.8799 20.8418 29.6335C20.7734 29.4208 20.7386 29.2003 20.7322 28.9759H21.6064L22.1479 30.175H21.9287L21.93 30.1802ZM21.93 27.2379C21.2677 26.6198 20.6808 25.9256 20.1816 25.1697L21.93 25.4972C22.3935 25.9071 22.8314 26.345 23.2413 26.8085C22.8577 27.0808 22.4004 27.2314 21.93 27.2379ZM23.1291 23.1016C22.4715 22.1217 22.8016 21.2475 23.1291 20.479C23.3135 21.085 23.4592 21.7039 23.5675 22.3279C23.6771 22.7663 24.3411 22.9791 24.5474 23.3079C24.109 23.4304 23.3457 23.6483 23.1291 23.1016ZM23.5675 32.7899L24.109 31.4786C24.4407 31.4301 24.7682 31.3568 25.0889 31.2594C25.4468 31.1738 25.8146 31.1369 26.1823 31.1498V31.2594C27.384 31.2594 28.8049 31.1498 29.6804 32.1336L29.7835 33.0078C29.3451 32.6803 28.6953 32.6803 28.4722 32.1336C28.0416 32.0382 27.6006 32.0008 27.161 32.024C26.6961 32.1145 26.2224 32.1513 25.7491 32.1336C25.6395 32.1336 25.7491 32.024 25.5299 31.9144C24.8698 32.1374 24.2186 32.1374 23.5623 32.7886L23.5675 32.7899ZM27.0655 36.8204L26.738 37.1428C26.4157 36.8204 26.6284 35.9437 26.0869 35.8315C25.5454 35.8315 25.1031 35.2848 24.893 35.1804L25.3313 34.9612C25.4706 34.8967 25.6279 34.8967 25.7697 34.9612C25.9889 35.1804 26.2081 35.2835 26.2081 35.5027C26.4273 35.8302 26.7496 35.5027 26.9727 35.8302C27.0995 36.1409 27.127 36.4832 27.0514 36.8101L27.0655 36.8204ZM30.4411 36.6012C30.2219 35.9501 30.0027 34.9702 29.242 34.9702C29.2083 34.7703 29.1329 34.5797 29.0207 34.4109C28.9086 34.2421 28.7621 34.0988 28.5909 33.9903L27.7167 33.8871C27.8263 34.3255 28.4903 34.3255 28.039 34.9753C28.4774 35.2977 28.8126 35.2977 29.0228 35.8495C29.2368 36.1719 29.0228 36.6231 29.1259 36.8294L28.4748 37.1518C28.4748 36.6051 28.5844 35.5169 27.8237 35.2977C27.1726 35.5169 27.0501 34.6466 26.6246 34.3178C26.4054 34.3178 26.4054 33.7711 26.0779 33.9903C25.5364 34.3178 24.8839 33.9903 24.3295 34.3178L24.8762 33.4436C25.3146 33.1161 25.7504 33.2244 26.1875 33.1161L27.0617 33.0065C27.9359 33.0065 28.6927 33.4449 29.5669 33.7801C29.7748 33.8716 29.9492 34.0255 30.0659 34.2205C30.1825 34.4154 30.2357 34.6418 30.218 34.8683C30.4372 34.9779 30.8692 34.9779 30.8692 35.3067C30.6861 35.7283 30.5339 36.1641 30.4179 36.5961L30.4411 36.6012ZM31.9664 34.9702C31.7472 34.6427 31.6441 34.3191 31.4197 34.3191C31.7472 33.1199 31.0974 32.1336 30.8782 31.1627V30.83C31.2057 31.3767 32.0721 31.9183 31.9664 32.4649C32.0476 33.2979 32.0954 34.1334 32.0696 34.9702H31.9664ZM30.8782 21.3609L31.7524 20.9225C32.0425 21.1624 32.3739 21.348 32.7323 21.4641C32.4561 21.6647 32.1191 21.7639 31.7783 21.7448C31.4374 21.7258 31.1136 21.5897 30.8614 21.3596L30.8782 21.3609ZM38.2792 23.1093C38.5225 23.2984 38.7412 23.5171 38.9303 23.7604V24.6346C37.9465 24.0879 37.405 23.1093 36.5346 22.1294C37.3921 22.1204 37.61 22.9907 38.2624 23.1003L38.2792 23.1093ZM33.3796 23.3285C33.7071 23.656 34.1442 24.1021 34.1442 24.4167C34.1268 24.5517 34.0783 24.6809 34.0025 24.7939C33.9266 24.9069 33.8255 25.0007 33.7071 25.0679C33.5146 24.8442 33.3663 24.5861 33.27 24.3071C33.2403 23.9745 33.2713 23.6405 33.3602 23.3195L33.3796 23.3285ZM34.3634 31.4953C34.4175 30.8997 34.2215 30.3091 33.8167 29.8643C33.8167 29.6451 34.1442 29.6451 33.9263 29.3228C33.9263 29.3228 33.2751 28.9953 33.2751 28.5491C33.2751 28.103 33.7135 27.7755 33.9263 27.4609C33.9263 27.3513 34.3646 27.6801 34.3646 28.3351C34.3734 28.5574 34.3361 28.7791 34.255 28.9862C34.1455 29.3137 34.9062 29.3137 34.9062 29.6438C34.8881 30.273 34.451 30.8197 34.3466 31.4708L34.3634 31.4953ZM35.5625 26.8149C35.5109 27.0316 35.3433 27.2018 35.1241 27.2533C34.8209 26.9487 34.5957 26.5754 34.4678 26.1651C34.3646 25.7267 34.7953 24.966 34.7953 24.966C34.9049 24.966 35.0093 25.18 35.1228 25.18C35.2324 25.2896 35.1228 25.6184 35.2324 25.9536C35.5418 26.1638 35.7572 26.6009 35.5418 26.8175L35.5625 26.8149ZM36.5424 32.4985C36.7616 31.9518 36.7616 30.8636 36.5424 30.8636C36.3283 30.754 35.8913 30.8636 35.8913 30.6444C35.8913 30.3169 36.0008 29.8707 36.0008 29.6644C36.0008 29.2261 35.6733 29.0069 35.6733 28.7903C35.6733 28.1327 36.447 28.0166 36.6533 27.5911C36.7449 28.0576 36.7799 28.5333 36.7577 29.0082C36.7577 29.2274 37.0852 29.8823 36.7577 30.4265C36.7577 30.754 37.4153 30.5361 37.4153 30.8648C37.3972 31.3806 36.7422 32.0317 36.523 32.4688L36.5424 32.4985ZM38.2908 29.8759C37.9633 29.8759 37.9633 29.6567 37.9633 29.2248C37.8349 28.5927 37.6538 27.9725 37.4217 27.3707C37.2025 26.4965 36.6481 25.7396 36.2226 24.7481C36.113 24.3097 35.5715 24.097 35.1344 23.7682C35.4051 23.7307 35.6806 23.7502 35.9433 23.8255C36.2059 23.9007 36.45 24.0301 36.6597 24.2053C36.6597 24.4245 36.7629 24.5328 37.0981 24.8628C37.8627 24.8628 37.6448 25.8428 38.2972 26.2747C37.9697 26.6022 37.8588 26.8214 37.6461 27.0393C37.9684 27.2585 38.2972 27.3616 38.4197 27.6904C38.3888 28.3287 38.2779 29.0894 38.2779 29.854L38.2908 29.8759ZM39.8161 28.7877C39.5969 28.1301 39.1585 27.4764 38.9419 26.8253C38.9419 26.7157 38.8323 26.7157 39.0515 26.6061C39.1611 26.6061 39.5982 26.6061 39.5982 26.7157C39.7701 26.9792 39.8807 27.2779 39.9218 27.5899C39.8909 28.005 39.682 28.3287 39.7903 28.7658L39.8161 28.7877ZM45.6956 25.5217C45.4764 25.3025 45.6956 24.8706 45.1489 24.8706C44.9404 24.9261 44.7512 25.0381 44.6022 25.1942C44.383 25.3038 43.728 24.8719 43.728 25.1942C43.728 25.7409 43.2896 25.9678 42.7481 25.9678C42.5237 25.9849 42.2985 25.9473 42.0918 25.8582V24.752C43.5101 24.752 43.4031 24.3136 44.0516 24.3136C44.49 24.3136 44.8162 24.5328 45.1399 24.5328C45.6866 24.5328 45.3629 24.3136 45.9045 24.3136C46.446 24.3136 46.6781 24.752 46.9875 24.8603C46.9875 25.1826 47.315 25.6339 47.315 26.0594C46.5363 26.0594 45.7717 25.8402 45.6621 25.5127L45.6956 25.5217ZM46.3467 28.4615C46.0192 28.3519 45.2585 28.2474 45.2585 27.9199C45.2585 27.4815 45.0393 27.3732 44.4849 27.3732C43.9975 27.399 43.5178 27.5112 43.0666 27.7007C42.8733 27.4356 42.7256 27.1402 42.6295 26.8265C43.1194 26.646 43.6352 26.5352 44.16 26.5042C44.9336 26.5042 45.6814 26.5042 45.6814 26.8265C45.6505 27.2417 46.3068 27.3513 46.3068 28.4383L46.3467 28.4615ZM45.1347 22.3447C45.3936 22.2863 45.6488 22.2131 45.8993 22.1255C46.4408 22.1255 46.8792 22.9997 46.9824 23.6508C46.0876 23.1269 45.0795 22.827 44.0439 22.7766C43.2444 22.9138 42.4926 23.2509 41.8584 23.7566L41.6354 22.7818C42.2865 22.6722 42.2865 22.1242 42.7236 22.1242C43.0511 22.1242 43.4972 22.0146 43.8118 22.0146C44.0407 21.9764 44.2622 21.9024 44.4681 21.7954C45.0096 21.7954 44.7905 22.3421 45.1321 22.3421L45.1347 22.3447ZM41.7592 20.9264C42.0815 20.5989 42.6333 20.1528 43.0704 20.1528C43.8441 20.1528 44.4887 20.6995 44.4887 21.241C43.8312 21.241 43.7242 21.1314 43.2896 21.1314C42.6836 21.1031 42.106 21.3893 41.7643 21.905C41.5967 21.602 41.5877 21.2346 41.7463 20.9251L41.7592 20.9264ZM42.0738 18.0975C42.2043 18.0142 42.356 17.9699 42.5109 17.9699C42.6657 17.9699 42.8174 18.0142 42.948 18.0975C42.948 18.7487 43.7216 18.425 44.1471 18.6391C44.3564 18.9335 44.505 19.2666 44.5842 19.619C43.8105 19.3998 43.3902 19.0723 42.7352 19.0723C42.516 19.0723 41.5361 19.3998 41.4239 19.619C41.0913 19.1806 41.6367 18.3116 42.0738 18.0975ZM44.1419 34.6272C43.6925 34.3196 43.1555 34.1662 42.6114 34.1901C42.6114 33.7517 42.2891 33.2102 42.0699 33.2102C41.4188 33.2102 41.5284 33.6486 40.9817 33.6486L41.9616 32.6687C42.0712 32.4495 42.0712 32.4495 42.2891 32.4495C42.496 32.6469 42.7679 32.762 43.0537 32.7731C43.0627 32.9949 43.0279 33.2179 42.9441 33.4242C43.2716 33.6434 43.4908 33.3146 43.7177 33.6434C44.0452 33.753 44.3688 33.8626 44.3688 34.301C44.3243 34.4255 44.251 34.5378 44.1548 34.6285L44.1419 34.6272ZM45.2301 33.1019C44.4565 32.9923 44.4565 32.122 44.3559 32.0137C43.8144 31.3625 43.0447 31.9041 42.507 31.9041C42.2878 31.2529 42.6101 31.2529 42.6101 30.8158C42.9376 30.8158 43.2677 30.5967 43.5939 30.8158C44.1406 30.5967 44.4681 31.1382 45.0122 31.1382C45.1362 31.4399 45.2823 31.7321 45.4493 32.0124C45.4212 32.3886 45.3476 32.7601 45.2301 33.1187V33.1019ZM45.7717 30.8158C44.998 30.8158 45.4493 29.2905 43.8118 29.2905C43.4843 29.2905 43.2703 29.8321 42.8319 29.9481C42.8319 29.8385 42.9415 29.1745 42.9415 29.1745C42.948 28.8044 43.1581 28.4679 43.4882 28.3003C44.3624 28.3003 44.1458 28.6278 44.7995 28.847C45.1012 29.0198 45.4338 29.1306 45.7794 29.1745V30.8055L45.7717 30.8158ZM47.297 35.8212C47.297 35.2745 46.6459 34.947 46.2088 33.9671L46.6471 33.1934C46.856 33.2957 47.0356 33.4491 47.1692 33.6393C47.3029 33.8296 47.3863 34.0505 47.4117 34.2817C47.3518 34.4572 47.3518 34.6477 47.4117 34.8232C47.4117 34.9328 47.6309 34.9328 47.6309 35.1507C47.476 35.3504 47.3628 35.5793 47.2983 35.8237L47.297 35.8212ZM48.0616 33.6357L47.4104 32.6558C47.6296 32.3283 47.6296 31.8822 47.952 31.3445C48.1621 31.5998 48.313 31.8989 48.3904 32.2187C48.4548 32.7241 48.3388 33.2373 48.0577 33.6628L48.0616 33.6357ZM37.3702 35.9398C37.6667 36.128 37.8343 36.4646 37.8085 36.814C37.778 37.15 37.6219 37.4621 37.3714 37.6882C37.1523 37.469 37.1523 37.1466 36.9331 36.814C36.7139 36.814 36.6056 37.3555 36.6056 37.5876C36.6571 38.436 36.9202 39.2599 37.3792 39.9832H38.3591C38.1892 39.1177 38.0798 38.2414 38.0316 37.3607C38.0961 36.8449 38.2443 36.3163 38.47 35.8354L37.3702 35.9398ZM23.3238 36.5999C23.1098 36.5999 22.5502 36.9274 22.5502 37.1466C22.5502 37.585 22.331 39.9755 22.331 39.9755H23.1046C23.4269 38.9956 24.0794 37.6895 24.0794 37.1466C24.0884 36.7134 23.7661 36.5999 23.3238 36.5999ZM20.7012 36.1616C20.482 36.1616 20.1597 36.8191 20.1597 37.0357C20.1808 38.038 20.3637 39.0303 20.7012 39.9742H21.5754C21.5754 38.9943 21.685 37.9061 21.685 37.0345C21.5844 37.0345 21.8036 37.2485 20.7141 36.1641L20.7012 36.1616ZM19.5021 35.2874L18.303 35.5066C18.0667 35.7431 17.9133 36.0498 17.8659 36.3808L18.4126 36.1616C18.5712 36.2621 18.6885 36.4194 18.7401 36.5999C18.6266 37.1466 17.9755 37.1466 17.7563 37.3645C17.4288 38.4528 18.4139 39.1129 18.5209 39.9871H19.8322C19.4235 39.0988 19.2018 38.1359 19.1811 37.1582C19.13 36.5193 19.2446 35.8781 19.5137 35.2964L19.5021 35.2874ZM24.198 7.08507H24.5255C24.853 6.75757 25.067 7.08507 25.2991 6.75757C25.5518 6.07162 25.4693 5.30574 25.076 4.68942C24.862 4.25104 24.3024 4.03829 23.7648 3.6012L23.0002 4.03958C22.7874 4.15484 22.6126 4.32936 22.497 4.54197C22.3815 4.75458 22.3301 4.99616 22.349 5.23741C23.1459 5.64613 23.797 6.29211 24.2109 7.08636L24.198 7.08507ZM19.827 6.53837C20.3686 6.53837 20.1545 7.312 20.6007 7.41257H21.5806C21.5806 7.08507 21.471 7.08507 21.3614 7.08507C20.8199 7.08507 20.8199 6.21088 20.3815 6.42749C20.1674 6.42749 19.9431 6.2083 19.6078 6.42749C19.6259 6.55385 19.6259 6.55385 19.8438 6.55385L19.827 6.53837ZM20.1545 8.93402H19.9353C20.1197 9.86494 20.1932 10.8139 20.1545 11.7629C20.3968 11.7862 20.6214 11.9001 20.7835 12.0817C20.9455 12.2634 21.0331 12.4994 21.0287 12.7428C21.4865 12.9169 21.9248 13.1348 22.34 13.3939C22.5721 13.2005 22.7268 12.9298 22.7784 12.6203C22.34 12.0788 21.3601 12.4011 21.3601 11.4212L20.709 11.202C20.7346 10.617 20.6978 10.0309 20.5994 9.45363L20.709 9.34404C20.7702 9.5216 20.8868 9.67482 21.0416 9.78113C21.48 9.78113 21.9158 9.89073 22.3529 9.56194C22.5721 9.45234 22.5721 8.91081 22.7913 8.91081C22.8931 8.93331 22.9994 8.92442 23.0961 8.88528C23.1928 8.84615 23.2753 8.77862 23.3328 8.69162C23.3328 8.69162 23.552 8.69162 23.3328 8.58202L20.9372 8.25452C20.7141 8.6091 20.1726 8.6091 20.1726 8.93788L20.1545 8.93402ZM17.8685 6.42878C17.6493 6.20959 16.9943 6.53838 16.6745 6.64797C16.4831 6.67847 16.3063 6.76893 16.1696 6.90634C16.0329 7.04375 15.9433 7.221 15.9138 7.41257H17.1336C17.3231 7.04896 17.5758 6.72147 17.8814 6.44554L17.8685 6.42878ZM13.4099 6.53837C14.0567 6.03754 14.7491 5.59852 15.478 5.22709C15.3684 4.13887 14.1667 4.02798 13.6239 3.59217H13.1984C12.3242 3.91967 12.1102 4.79128 12.0045 5.55201C12.3242 6.55771 12.9844 5.90659 13.4228 6.55772L13.4099 6.53837ZM20.7154 14.8316L21.9145 15.27V14.7233H20.8263L20.7154 14.8316ZM13.856 8.29965C13.8482 8.475 13.9153 8.64778 14.0404 8.77027C14.1654 8.89276 14.3369 8.9598 14.5123 8.95078C14.5303 9.23057 14.6967 9.46653 14.9507 9.60191C15.0486 9.70764 15.1866 9.76695 15.331 9.76695C15.4754 9.76695 15.6147 9.70764 15.7114 9.60191C16.0389 9.8211 16.1498 9.38272 16.2581 9.60191C16.2801 10.1129 16.2433 10.6247 16.1485 11.1272C16.0389 11.8918 15.3749 11.7784 14.8372 12.1071C14.8372 12.4346 14.5149 12.9813 14.8372 13.3063C15.1789 13.0845 15.5463 12.904 15.9306 12.7686C15.9717 12.5685 16.0643 12.3826 16.1993 12.2292C16.3343 12.0759 16.507 11.9605 16.7003 11.8944C16.7003 10.9145 17.0227 9.93456 17.0227 8.95465C16.9492 8.66583 16.748 8.4389 16.476 8.30352H13.8521L13.856 8.29965ZM14.8359 14.5144C14.8024 14.7787 14.9313 15.0353 15.1634 15.1655C15.4342 14.9076 15.7784 14.7684 16.1433 14.7271C15.9293 14.281 15.3865 14.7194 14.8359 14.5144Z" fill="white"/>
</svg>
