<svg width="228" height="40" viewBox="0 0 228 40" fill="none" xmlns="http://www.w3.org/2000/svg">
<g clip-path="url(#clip0_303_1427)">
<path d="M21.2458 0H23.6468C28.1385 0.174884 32.1802 1.53519 35.7717 4.08093C38.5738 6.06698 40.8836 8.86512 42.2665 11.933C45.0229 18.0502 44.473 25.2902 40.7049 30.854C36.9303 36.4288 30.6171 39.6605 23.9297 40H21.0243C9.57034 39.3144 0.260495 30.2512 1.18273 18.4121C2.00632 7.83628 10.9979 0.503256 21.2458 0ZM40.6426 22.0977C40.3299 26.2353 38.6818 30.1312 35.9867 33.2893C35.7931 33.5172 35.6349 33.6623 35.5121 33.9553C35.5071 33.9671 35.5062 33.9803 35.5096 33.9926C35.5131 34.005 35.5206 34.0158 35.5309 34.0233C35.5413 34.0309 35.5539 34.0347 35.5667 34.0342C35.5795 34.0337 35.5917 34.0288 35.6014 34.0205C36.0593 33.6236 36.5147 33.2059 36.9676 32.7674C41.1116 28.7526 43.1794 22.8102 42.206 17.1023C41.4528 12.6837 39.3381 8.99411 35.862 6.03349C35.7615 5.94791 35.6647 5.91938 35.5716 5.94791C35.5635 5.95035 35.556 5.95456 35.5497 5.96024C35.5433 5.96593 35.5383 5.97295 35.5349 5.98083C35.5316 5.9887 35.53 5.99724 35.5302 6.00585C35.5304 6.01446 35.5325 6.02294 35.5363 6.0307C35.594 6.14667 35.652 6.23752 35.7103 6.30326C38.1634 9.06419 39.7287 12.266 40.4062 15.9088C40.5942 16.9203 40.6857 17.8964 40.6807 18.8372C40.6742 19.9795 40.7151 21.1377 40.6426 22.0977ZM9.23346 6.18512C5.00848 9.68465 2.55539 14.8912 2.67636 20.3944C2.79362 25.6874 5.12201 30.387 9.10596 33.8065C9.24183 33.9225 9.38236 34.0099 9.52753 34.0688C9.53519 34.0721 9.54353 34.0734 9.55181 34.0726C9.56008 34.0718 9.56803 34.069 9.57495 34.0644C9.58187 34.0597 9.58753 34.0535 9.59144 34.0462C9.59534 34.0388 9.59737 34.0306 9.59733 34.0223C9.59733 33.9268 9.55576 33.8329 9.47263 33.7405C6.65597 30.6236 4.99855 26.9504 4.50036 22.7209C4.30432 21.0533 4.30183 19.2989 4.49292 17.4577C4.93031 13.2567 6.69196 9.43535 9.53312 6.28093C9.65658 6.14388 9.62587 6.07101 9.44098 6.06233C9.40376 6.06046 9.33459 6.1014 9.23346 6.18512ZM14.068 21.7442C14.7548 25.6177 17.8286 28.8158 21.8488 29.2363C24.1149 29.4744 26.5 28.5702 28.1509 27.0484C33.2153 22.3777 31.7692 13.3609 24.9776 11.1553C23.1657 10.5665 21.1295 10.6716 19.3892 11.4242C15.3634 13.1637 13.3161 17.5014 14.068 21.7442ZM15.852 11.5228C12.7521 13.373 10.514 16.533 10.6471 20.2558C10.7215 22.3457 11.4443 24.2081 12.8154 25.8428C13.7113 26.9113 14.7793 27.8195 16.0195 28.5674C16.0384 28.5791 16.0604 28.5848 16.0826 28.5838C16.1048 28.5829 16.1263 28.5753 16.1441 28.5621C16.162 28.5489 16.1756 28.5307 16.183 28.5098C16.1905 28.4889 16.1916 28.4662 16.1861 28.4447C16.1718 28.3901 16.1277 28.3442 16.0539 28.307C15.9844 28.2716 15.9339 28.2385 15.9022 28.2074C13.1464 25.5389 11.9893 22.2955 12.431 18.4772C12.6463 16.6198 13.3291 14.9085 14.4793 13.3433C14.9483 12.7051 15.5653 12.107 16.1572 11.5302C16.1659 11.5221 16.1718 11.5114 16.1742 11.4997C16.1766 11.4881 16.1753 11.4759 16.1705 11.465C16.1657 11.4541 16.1577 11.445 16.1474 11.4388C16.1372 11.4327 16.1254 11.4298 16.1135 11.4307C16.0334 11.4357 15.9463 11.4664 15.852 11.5228ZM32.7119 21.1395C32.4588 23.9488 31.1261 26.5284 29.0201 28.4037C28.9209 28.4924 28.9348 28.5563 29.062 28.5953C29.0757 28.5997 29.1241 28.5761 29.2072 28.5247C30.4064 27.7836 31.4605 26.8747 32.3694 25.7981C34.7955 22.9228 35.1519 18.8502 33.2963 15.6009C32.4494 14.1172 31.1559 12.8158 29.7414 11.8512C29.5168 11.698 29.2801 11.5674 29.0313 11.4595C28.9538 11.426 28.9237 11.4546 28.941 11.5451C28.944 11.5602 28.9523 11.5737 28.9643 11.5833C29.313 11.866 29.6368 12.178 29.9359 12.5191C32.0837 14.9718 33.0091 17.8453 32.7119 21.1395Z" fill="white"/>
<path d="M99.277 16.3805C100.615 12.653 104.272 10.0279 108.23 9.93582C108.949 9.91907 109.903 9.9321 110.643 10.0763C113.322 10.5991 115.428 12.009 116.96 14.306C116.975 14.3284 116.972 14.3476 116.951 14.3637L114.854 15.9544C114.844 15.9627 114.831 15.9686 114.818 15.972C114.805 15.9754 114.792 15.9761 114.778 15.9741C114.765 15.9721 114.752 15.9675 114.74 15.9604C114.728 15.9534 114.718 15.944 114.71 15.933C114.393 15.4874 114.05 15.0158 113.678 14.6447C112.041 13.014 109.708 12.2949 107.435 12.7247C104.179 13.3395 101.709 16.1535 101.623 19.5116C101.608 20.1262 101.629 20.6837 101.688 21.1842C101.821 22.3011 102.208 23.3203 102.851 24.2419C105.568 28.1451 110.997 28.4595 114.122 24.8651C114.352 24.6009 114.544 24.3169 114.698 24.013C114.703 24.0042 114.709 23.9965 114.717 23.9904C114.725 23.9843 114.734 23.98 114.743 23.9778C114.753 23.9755 114.763 23.9755 114.773 23.9775C114.783 23.9796 114.792 23.9838 114.8 23.9898L116.92 25.6056C116.949 25.6279 116.954 25.6546 116.934 25.6856C116.367 26.6022 115.655 27.3913 114.799 28.053C113.145 29.3287 111.227 29.9978 109.045 30.0605C107.639 30.1008 106.323 29.8964 105.096 29.4474C101.858 28.2623 99.4333 25.3433 98.82 21.9572C98.4745 20.0502 98.6268 18.1913 99.277 16.3805Z" fill="white"/>
<path d="M135.275 27.8661C135.241 27.8359 135.198 27.8186 135.153 27.8174C135.108 27.8163 135.063 27.8312 135.028 27.8595C132.875 29.5898 130.387 30.3045 127.564 30.0037C125.601 29.7954 123.81 29.0233 122.316 27.7516C119.75 25.5693 118.448 22.3591 118.812 18.9563C119.03 16.9228 119.785 15.1405 121.076 13.6093C125.414 8.46512 133.564 9.00838 137.151 14.7498C139.223 18.067 139.11 22.3702 137.007 25.6437C136.961 25.7138 136.97 25.7771 137.032 25.8335L141.072 29.4958C141.195 29.6068 141.173 29.6636 141.007 29.6661C139.865 29.6834 138.672 29.6865 137.428 29.6754C137.284 29.6741 137.131 29.595 136.967 29.4381C136.41 28.9023 135.846 28.3783 135.275 27.8661ZM132.289 21.5777C132.405 21.6533 132.555 21.7749 132.74 21.9423C133.283 22.4385 133.825 22.9358 134.365 23.4344C134.485 23.5448 134.604 23.6372 134.723 23.7116C134.764 23.7377 134.795 23.729 134.818 23.6856C135.24 22.8434 135.504 21.9789 135.612 21.0921C135.766 19.8363 135.746 18.4902 135.304 17.3098C134.029 13.8967 130.514 11.9591 126.941 12.8586C126.356 13.0056 125.785 13.2419 125.23 13.5674C123.09 14.8177 121.904 16.6989 121.671 19.2112C121.363 22.5414 123.046 25.6949 126.226 26.9135C128.456 27.7674 130.61 27.4936 132.688 26.0921C132.779 26.0301 132.868 25.9696 132.954 25.9107C132.988 25.8871 132.989 25.8614 132.958 25.8335L130.406 23.5228C130.395 23.5128 130.386 23.5005 130.379 23.4869C130.373 23.4733 130.37 23.4585 130.369 23.4434C130.369 23.4284 130.372 23.4134 130.377 23.3994C130.383 23.3853 130.391 23.3726 130.402 23.3619L132.194 21.587C132.207 21.5749 132.223 21.5674 132.24 21.5657C132.257 21.564 132.275 21.5682 132.289 21.5777Z" fill="white"/>
<path d="M93.0677 24.7618C93.0533 24.7287 93.0296 24.7005 92.9993 24.6807C92.9691 24.6609 92.9336 24.6503 92.8974 24.6502L83.4786 24.6511C83.4157 24.6512 83.3541 24.6694 83.3013 24.7035C83.2485 24.7377 83.2067 24.7864 83.1808 24.8437L81.0497 29.5395C81.0312 29.5803 81.0011 29.6148 80.9632 29.6391C80.9252 29.6633 80.881 29.6762 80.8357 29.6763C79.9547 29.6769 79.1001 29.6694 78.2719 29.6539C78.2334 29.6533 78.2073 29.6499 78.1937 29.6437C78.1847 29.6396 78.1765 29.6339 78.1696 29.627C78.1627 29.62 78.1573 29.612 78.1535 29.6032C78.1498 29.5945 78.1479 29.5853 78.1479 29.5761C78.148 29.5669 78.1499 29.558 78.1537 29.5498L86.9759 10.4437C86.9928 10.4073 87.0197 10.3764 87.0535 10.3547C87.0872 10.3329 87.1265 10.3212 87.1666 10.3209L89.2326 10.307C89.2649 10.3063 89.2878 10.3209 89.3015 10.3507L98.0892 29.5098C98.0973 29.5271 98.1009 29.5463 98.0996 29.5654C98.0983 29.5845 98.0922 29.603 98.0818 29.6192C98.0714 29.6354 98.0571 29.6488 98.0402 29.6581C98.0233 29.6674 98.0043 29.6724 97.985 29.6725L95.3644 29.6744C95.347 29.6744 95.3299 29.6701 95.3146 29.6618C95.2994 29.6535 95.2864 29.6415 95.2769 29.627C95.2285 29.5525 95.1749 29.4515 95.1159 29.3237C94.4056 27.7938 93.7228 26.2732 93.0677 24.7618ZM91.8402 22.0493C91.8448 22.0492 91.8493 22.048 91.8533 22.0458C91.8573 22.0435 91.8607 22.0403 91.8632 22.0365C91.8657 22.0326 91.8672 22.0282 91.8676 22.0236C91.8679 22.019 91.8672 22.0144 91.8653 22.0102L88.2424 13.9516C88.2401 13.9469 88.2366 13.9429 88.2321 13.9401C88.2277 13.9373 88.2226 13.9359 88.2173 13.9359C88.2121 13.9359 88.2069 13.9373 88.2025 13.9401C88.198 13.9429 88.1945 13.9469 88.1922 13.9516L84.5414 22.0084C84.5395 22.0126 84.5388 22.0173 84.5392 22.022C84.5396 22.0266 84.5412 22.0311 84.5437 22.035C84.5463 22.0389 84.5499 22.0421 84.554 22.0442C84.5582 22.0464 84.5628 22.0475 84.5674 22.0474L91.8402 22.0493Z" fill="white"/>
<path d="M175.431 24.7414L165.761 24.7451C165.744 24.7452 165.727 24.7502 165.713 24.7594C165.699 24.7687 165.687 24.7818 165.681 24.7972L163.466 29.7135C163.459 29.7289 163.447 29.742 163.433 29.7513C163.419 29.7605 163.403 29.7655 163.386 29.7656L160.627 29.7684C160.612 29.7683 160.598 29.7646 160.585 29.7574C160.572 29.7503 160.561 29.74 160.553 29.7275C160.545 29.715 160.54 29.7006 160.539 29.6858C160.538 29.671 160.541 29.6562 160.547 29.6428L169.389 10.3656C169.396 10.35 169.407 10.3368 169.422 10.3275C169.436 10.3183 169.453 10.3134 169.47 10.3135L171.719 10.3256C171.736 10.3256 171.753 10.3304 171.767 10.3395C171.781 10.3486 171.792 10.3615 171.799 10.3767L180.636 29.64C180.642 29.6534 180.645 29.6681 180.644 29.6828C180.643 29.6975 180.638 29.7116 180.63 29.724C180.622 29.7364 180.611 29.7466 180.598 29.7537C180.586 29.7608 180.571 29.7645 180.556 29.7646L177.811 29.7684C177.794 29.7682 177.778 29.7633 177.763 29.754C177.749 29.7448 177.738 29.7317 177.731 29.7163L175.511 24.7935C175.504 24.778 175.492 24.7649 175.478 24.7557C175.464 24.7465 175.447 24.7415 175.431 24.7414ZM166.939 21.9786C166.935 21.9859 166.934 21.9939 166.935 22.0019C166.935 22.0099 166.938 22.0176 166.942 22.0243C166.947 22.031 166.953 22.0366 166.96 22.0405C166.967 22.0443 166.974 22.0464 166.982 22.0465H174.215C174.223 22.0464 174.231 22.0443 174.238 22.0405C174.245 22.0366 174.251 22.031 174.255 22.0243C174.26 22.0176 174.262 22.0099 174.263 22.0019C174.264 21.9939 174.262 21.9859 174.259 21.9786L170.643 13.9944C170.639 13.9861 170.632 13.9791 170.625 13.9742C170.617 13.9693 170.608 13.9667 170.599 13.9667C170.59 13.9667 170.581 13.9693 170.573 13.9742C170.565 13.9791 170.559 13.9861 170.555 13.9944L166.939 21.9786Z" fill="white"/>
<path d="M57.2607 13.6921C57.2672 13.8223 57.2309 13.9516 57.2309 14.0716C57.234 19.235 57.2343 24.413 57.2318 29.6056C57.2318 29.6238 57.2246 29.6413 57.2117 29.6543C57.1987 29.6672 57.1812 29.6744 57.163 29.6744H54.5107C54.4922 29.6744 54.4744 29.6671 54.4614 29.654C54.4483 29.6409 54.4409 29.6231 54.4409 29.6046V10.4186C54.4409 10.3937 54.4507 10.3698 54.4682 10.3522C54.4856 10.3345 54.5093 10.3246 54.534 10.3246L58.7162 10.3237C58.749 10.3237 58.772 10.3389 58.785 10.3693L65.102 25.7637C65.1054 25.7724 65.1114 25.7798 65.1191 25.7851C65.1268 25.7903 65.136 25.7931 65.1453 25.7931C65.1546 25.7931 65.1637 25.7903 65.1714 25.7851C65.1792 25.7798 65.1851 25.7724 65.1886 25.7637L71.5102 10.3739C71.5251 10.3374 71.5521 10.3194 71.5912 10.32L75.7985 10.3265C75.8108 10.3265 75.8226 10.3314 75.8314 10.3401C75.8401 10.3488 75.845 10.3607 75.845 10.373V29.6046C75.845 29.6231 75.8376 29.6409 75.8246 29.654C75.8115 29.6671 75.7937 29.6744 75.7752 29.6744H73.1462C73.0848 29.6744 73.0541 29.6434 73.0541 29.5814L73.0513 13.88C73.0513 13.6784 73.0128 13.6707 72.9359 13.8567L66.403 29.6474C66.3991 29.6571 66.3924 29.6653 66.3838 29.6711C66.3752 29.6769 66.365 29.68 66.3546 29.68L63.9518 29.6735C63.9349 29.6732 63.9185 29.668 63.9046 29.6586C63.8907 29.6491 63.88 29.6359 63.8736 29.6205L57.2867 13.6865C57.2853 13.6839 57.283 13.6819 57.2803 13.6806C57.2776 13.6794 57.2746 13.6791 57.2717 13.6797C57.2687 13.6803 57.2661 13.6819 57.2641 13.6841C57.2622 13.6863 57.2609 13.6891 57.2607 13.6921Z" fill="white"/>
<path d="M159.315 21.534C159.308 24.9721 157.832 28.0912 154.504 29.4242C153.04 30.0112 151.458 30.1219 149.875 30.0549C148.884 30.0127 147.976 29.831 147.153 29.5098C143.645 28.1423 142.144 25.1665 142.127 21.5116C142.11 17.8292 142.102 14.1321 142.103 10.4205C142.103 10.3953 142.113 10.3712 142.13 10.3534C142.148 10.3356 142.172 10.3256 142.197 10.3256H144.941C144.973 10.3256 144.989 10.3417 144.989 10.374C144.991 13.9411 144.989 17.5061 144.986 21.0688C144.985 22.0521 145.098 23.0865 145.425 23.9823C146.192 26.0884 147.913 27.1395 150.109 27.2707C152.287 27.4009 154.469 26.8381 155.587 24.8475C156.25 23.6679 156.427 22.2056 156.429 20.8372C156.438 17.3805 156.44 13.9082 156.434 10.4205C156.434 10.3953 156.444 10.3712 156.462 10.3534C156.48 10.3356 156.504 10.3256 156.529 10.3256L159.272 10.3265C159.303 10.3265 159.318 10.3417 159.318 10.3721C159.325 14.0949 159.324 17.8155 159.315 21.534Z" fill="white"/>
<path d="M185.843 21.6288V29.7209C185.843 29.7519 185.828 29.7675 185.797 29.7675H183.005C182.974 29.7675 182.958 29.7519 182.958 29.7209V10.4205C182.958 10.3953 182.969 10.3712 182.987 10.3534C183.005 10.3356 183.029 10.3256 183.054 10.3256C186.416 10.3256 189.773 10.3256 193.125 10.3256C194.756 10.3256 196.312 10.5349 197.636 11.48C199.176 12.5795 199.742 14.3182 199.726 16.1628C199.707 18.3749 198.425 20.3488 196.358 21.1544C195.998 21.2949 195.541 21.3888 195.136 21.5014C195.076 21.5182 195.064 21.5526 195.098 21.6047L200.413 29.4847C200.498 29.6099 200.465 29.6729 200.313 29.6735L197.38 29.6791C197.322 29.6791 197.266 29.6649 197.215 29.6378C197.164 29.6107 197.121 29.5715 197.089 29.5237L191.912 21.7488C191.877 21.6957 191.829 21.6522 191.773 21.6221C191.717 21.5921 191.654 21.5765 191.591 21.5768L185.889 21.5833C185.859 21.5833 185.843 21.5985 185.843 21.6288ZM185.931 13.1144L185.94 18.8949C185.94 18.9062 185.942 18.9174 185.947 18.9279C185.951 18.9383 185.958 18.9478 185.966 18.9557C185.974 18.9637 185.983 18.97 185.994 18.9742C186.004 18.9785 186.015 18.9806 186.027 18.9805L193.787 18.9675C194.597 18.9659 195.373 18.673 195.944 18.1533C196.516 17.6337 196.836 16.9297 196.835 16.1963V15.7758C196.834 15.4126 196.755 15.0531 196.6 14.7178C196.446 14.3825 196.221 14.078 195.937 13.8217C195.653 13.5654 195.316 13.3624 194.945 13.2241C194.574 13.0858 194.177 13.015 193.776 13.0158L186.016 13.0288C185.993 13.0291 185.971 13.0382 185.956 13.0542C185.94 13.0703 185.931 13.0919 185.931 13.1144Z" fill="white"/>
<path d="M206.816 10.3256H204.05C204.017 10.3256 203.99 10.3522 203.99 10.3851V29.6149C203.99 29.6478 204.017 29.6744 204.05 29.6744H206.816C206.848 29.6744 206.875 29.6478 206.875 29.6149V10.3851C206.875 10.3522 206.848 10.3256 206.816 10.3256Z" fill="white"/>
<path d="M214.32 13.08V18.2688C214.32 18.2839 214.326 18.2983 214.337 18.309C214.347 18.3196 214.362 18.3256 214.377 18.3256H225.337C225.353 18.3256 225.367 18.3316 225.378 18.3422C225.388 18.3528 225.394 18.3673 225.394 18.3823V20.9665C225.394 20.9816 225.388 20.996 225.378 21.0066C225.367 21.0173 225.353 21.0233 225.337 21.0233H214.377C214.369 21.0233 214.362 21.0247 214.355 21.0276C214.348 21.0304 214.342 21.0346 214.337 21.0399C214.331 21.0451 214.327 21.0514 214.324 21.0583C214.321 21.0652 214.32 21.0725 214.32 21.08V26.92C214.32 26.935 214.326 26.9495 214.337 26.9601C214.347 26.9708 214.362 26.9767 214.377 26.9767H226.826C226.842 26.9767 226.856 26.9827 226.867 26.9934C226.877 27.004 226.883 27.0184 226.883 27.0335V29.6177C226.883 29.6327 226.877 29.6472 226.867 29.6578C226.856 29.6684 226.842 29.6744 226.826 29.6744H211.492C211.477 29.6744 211.462 29.6684 211.452 29.6578C211.441 29.6472 211.435 29.6327 211.435 29.6177V10.3814C211.435 10.3663 211.441 10.3519 211.452 10.3413C211.462 10.3306 211.477 10.3246 211.492 10.3246L226.64 10.3265C226.648 10.3265 226.655 10.328 226.662 10.3308C226.669 10.3337 226.675 10.3379 226.68 10.3431C226.686 10.3484 226.69 10.3547 226.693 10.3615C226.696 10.3684 226.697 10.3758 226.697 10.3833V12.9665C226.697 12.974 226.696 12.9813 226.693 12.9882C226.69 12.9951 226.686 13.0014 226.68 13.0066C226.675 13.0119 226.669 13.0161 226.662 13.0189C226.655 13.0218 226.648 13.0233 226.64 13.0233H214.377C214.362 13.0233 214.347 13.0292 214.337 13.0399C214.326 13.0505 214.32 13.0649 214.32 13.08Z" fill="white"/>
</g>
<defs>
<clipPath id="clip0_303_1427">
<rect width="228" height="40" fill="white"/>
</clipPath>
</defs>
</svg>
