<svg width="100" height="40" viewBox="0 0 100 40" fill="none" xmlns="http://www.w3.org/2000/svg">
<path d="M24.7568 1.63297L18.4797 9.19249L9.70531 5.00777C9.50282 5.00777 9.30034 4.80528 9.09786 5.00777C8.89537 5.00777 8.89537 5.21026 9.09786 5.61523L11.1227 15.2672L2.34834 19.452C2.14585 19.452 1.94336 19.6544 1.94336 19.8569C1.94336 20.0594 2.14585 20.2619 2.34834 20.2619L11.1227 24.6491L9.03034 34.3011V34.9086H9.6378L18.4122 30.7239L24.4868 38.4859C24.6892 38.6883 24.8917 38.8908 25.0942 38.6883C25.2967 38.6883 25.2967 38.4859 25.4992 38.2834L27.7941 28.8338H37.7157C37.9182 28.8338 38.1207 28.8338 38.3231 28.6313C38.3231 28.4288 38.3231 28.2263 38.1206 28.0238L32.046 20.2618L38.3906 12.4998C38.5931 12.2973 38.5931 12.0948 38.5931 11.8924C38.5931 11.6899 38.3906 11.6899 37.9856 11.6899H35.4882C35.2857 11.6899 35.0833 11.6899 35.0833 11.8924L25.7689 21.7468H25.5664V21.5443C25.7689 21.3418 30.831 15.0647 33.5308 11.8923V11.6898C33.5308 11.4873 33.5308 11.4873 33.3284 11.4873H30.156C29.9536 11.4873 29.5486 11.6898 29.5486 11.8923C28.0637 13.5796 20.5038 21.5443 20.3014 21.5443H20.1664V21.3418L27.9284 11.8922C28.1309 11.6897 28.1309 11.4872 28.1309 11.2847C28.1309 11.2847 26.0385 1.83513 26.0385 1.63273C26.0385 1.43024 25.836 1.22775 25.6335 1.22775C24.9586 1.43024 24.7568 1.43048 24.7568 1.63297Z" fill="white"/>
<path d="M8.21999 20.8696C5.92511 20.8696 3.83279 20.4646 1.94287 19.5872C1.94287 19.5872 2.14536 19.5872 2.14536 19.3847L10.9198 15.2L8.82736 5.54799V4.94054H9.43482L18.2092 9.12526L24.4863 1.56574C24.6888 1.36325 24.8913 1.36325 24.8913 1.36325C24.8913 2.17317 25.0938 2.84813 25.0938 3.65813C25.3638 13.1749 17.6016 20.8696 8.21999 20.8696ZM32.1136 12.5C32.3161 12.2975 32.5186 11.8925 32.721 11.6901H29.8187C29.6162 11.6901 29.4137 11.8926 29.2113 11.8926C29.2113 12.2975 29.2113 12.9725 29.6162 13.175C30.0212 13.7824 31.2362 13.3774 32.1136 12.5ZM35.0159 11.4876C34.8134 11.4876 34.6109 11.4876 34.6109 11.6901L34.4084 11.8926C34.4084 12.2976 34.6109 12.5 34.8134 12.7025C35.4209 13.31 36.7033 12.905 37.3108 12.095C37.5133 11.8925 37.5133 11.6901 37.7158 11.4876L35.0159 11.4876Z" fill="white"/>
<path d="M36.7032 12.2976H35.0158C34.6108 12.2976 34.4084 12.5001 34.2059 12.7026C31.0336 16.0774 25.8363 21.477 25.6339 21.477C25.0264 22.0844 24.554 21.6795 25.2289 21.072C25.4314 20.8695 29.6161 15.8074 32.1135 12.7024C32.1135 12.4999 32.316 12.2974 32.1135 12.2974H29.6161C29.4136 12.2974 29.2111 12.2974 29.0087 12.4999C25.8363 15.8747 20.4367 21.5447 20.2343 21.5447C19.6268 22.1522 19.1543 21.7472 19.8293 21.1397C20.0318 20.9373 24.6214 15.2677 26.9838 12.0949C27.1863 11.8925 27.1863 11.69 27.1863 11.285L25.1614 2.84822C25.1614 2.64574 24.959 2.44325 24.7565 2.84822L19.0869 9.73278C18.8844 9.93527 18.4794 10.1378 18.277 9.93527L10.3125 5.95303C10.11 5.95303 9.9075 5.95303 9.9075 6.15552L11.7973 14.9299C11.7973 15.1324 11.7973 15.5374 11.3924 15.7398L3.36036 19.6546C3.15787 19.6546 3.15787 20.0595 3.36036 20.0595L11.3248 24.0418C11.5273 24.0418 11.7298 24.4468 11.7298 24.8517L9.63742 33.4909C9.63742 33.6934 9.63742 33.8959 10.0424 33.6934L18.2096 29.9136C18.4121 29.9136 18.8171 29.9136 19.0195 30.1161L24.4866 37.0007C24.6891 37.2032 24.8916 37.2032 24.8916 37.0007L26.984 28.4287C26.984 28.2262 27.389 28.0237 27.5915 28.0237H36.3659C36.5684 28.0237 36.7708 27.8212 36.5684 27.6187L31.1012 20.4642C30.8987 20.2617 30.8987 19.8567 31.1012 19.6542L36.7708 12.7697C37.1083 12.4997 36.9056 12.2976 36.7032 12.2976Z" fill="white"/>
<path d="M48.4478 13.1744C50.1351 11.487 51.8226 10.8795 53.9149 10.8795C57.8971 10.8795 60.192 13.1744 60.192 17.7641V28.4281H55.3999V18.5737C55.3999 16.0763 54.5899 14.7939 52.9025 14.7939C51.4176 14.7939 50.6076 15.4014 49.1227 16.8863V28.4279H44.3306V14.3887C44.1281 14.3887 42.8457 14.1862 42.8457 14.1862V11.4864L48.1103 11.2839C48.2453 11.2839 48.4478 12.4994 48.4478 13.1744ZM90.1598 14.7937C88.8774 14.7937 87.6625 15.4011 86.1776 17.0886V24.4456C86.785 24.6481 87.8649 25.053 88.8774 25.053C92.2522 25.053 92.8597 22.3532 92.8597 19.7884C93.0622 16.4811 92.2522 14.7937 90.1598 14.7937ZM86.3801 4.73697V12.7014C87.8649 11.419 89.2824 10.8116 91.1722 10.8116C95.3569 10.8116 98.0568 13.9839 98.0568 19.1812C98.0568 25.2558 94.682 28.8332 88.8096 28.8332C86.7172 28.8332 84.0174 28.4282 81.655 27.7533V7.84209C81.4525 7.84209 79.9677 7.6396 79.9677 7.6396V4.93976L86.3801 4.73697ZM63.9713 11.8915C65.8611 11.2841 68.156 10.8116 70.2484 10.8116C75.0405 10.8116 77.6054 12.904 77.6054 16.8862V25.4582C78.0104 25.4582 79.2928 25.6607 79.2928 25.6607V28.3605L74.0281 28.563C74.0281 28.563 73.8257 27.7531 73.8257 27.2806C72.3408 28.563 70.6533 29.1704 68.7635 29.1704C64.9837 29.1704 62.6889 27.078 62.6889 23.7033C62.6889 19.9235 65.5913 18.0337 71.2609 18.0337H72.9483V17.4262C72.9483 15.5364 72.5433 14.7264 69.776 14.7264C68.2911 14.7264 66.4012 15.1314 64.9838 15.8063H64.5789L63.7689 12.229L63.9713 11.8915ZM67.2787 23.4332C67.2787 24.7156 68.0886 25.5256 69.5736 25.5256C70.856 25.5256 71.6659 25.1206 72.9484 24.0407V21.3408H71.261C67.7513 21.1384 67.2787 22.3532 67.2787 23.4332Z" fill="white"/>
</svg>
