<svg width="138" height="40" viewBox="0 0 138 40" fill="none" xmlns="http://www.w3.org/2000/svg">
<path d="M0.425634 16.5C0.425634 18.8113 1.7782 19.8302 4.59685 20.4811L6.77231 20.9434C9.32611 21.5094 9.83687 22.0943 9.83687 23.3491C9.83687 24.8396 8.52214 25.7641 6.16696 25.7641C3.80233 25.7641 2.43084 24.7075 2.27951 22.5472H0C0 25.8679 2.38355 27.783 6.11967 27.783C10.2152 27.783 12.2015 25.7264 12.2015 23.0472C12.2015 20.6415 10.7638 19.4906 8.34243 18.9623L6.06292 18.4434C3.44291 17.8774 2.72406 17.5377 2.72406 16.2075C2.72406 14.8868 3.67937 13.8962 5.83592 13.8962C8.45593 13.8962 9.24099 15.0755 9.4207 16.6698H11.7002C11.7002 13.4057 9.1464 11.8302 5.93996 11.8302C2.17546 11.8302 0.3878 13.9717 0.3878 16.5M13.2041 12.2264V21.2641C13.2041 25.8679 15.3985 27.7547 19.2292 27.7547C23.0504 27.7547 25.2354 25.8396 25.2354 21.2641V12.2264H22.7383V21.5566C22.7383 24.5283 21.4709 25.6604 19.0873 25.6604C16.9497 25.6604 15.6633 24.4434 15.6633 21.5566V12.2264H13.2041ZM26.9095 12.2264V27.3396H29.189V15.6038L36.4626 27.3491H39.0543V12.2264H36.7842V23.9057L29.6714 12.2264H26.9095ZM53.6772 16.9245C53.4313 13.8962 50.9531 11.8679 47.3967 11.8679C42.9796 11.8679 40.3217 15.0755 40.3217 19.717C40.3217 25.1321 43.3012 27.7453 47.1981 27.7453C48.0115 27.783 48.8249 27.6698 49.5911 27.3962C50.3572 27.1226 51.0666 26.7075 51.6814 26.1698C52.2868 25.6321 52.7786 24.9811 53.138 24.2547C53.4975 23.5283 53.7056 22.7358 53.7623 21.9245H51.4166C50.9247 24.3302 49.5911 25.6321 47.3778 25.6321C44.8713 25.6321 42.8377 23.9717 42.8377 19.9717C42.8377 15.8113 44.7105 13.9528 47.3778 13.9528C49.6951 13.9528 50.8774 15.066 51.322 16.9151L53.6772 16.9245ZM54.7365 19.8302C54.7365 24.9811 57.716 27.783 62.0385 27.783C66.6448 27.783 69.4351 24.5283 69.4351 19.5943C69.4351 14.1415 66.2192 11.7924 62.0574 11.7924C57.8957 11.7924 54.7365 14.6038 54.7365 19.8302ZM57.2336 19.9151C57.2336 16.0189 59.2672 13.9151 62.1709 13.9151C64.8572 13.9151 67.0137 15.8302 67.0137 19.6226C67.0137 23.6415 65.0558 25.6698 62.2371 25.6698C59.1537 25.6698 57.2336 23.7264 57.2336 19.9151ZM70.7215 12.2358V27.3491H73.1334V21.0472H77.3046C79.3098 21.0472 80.0097 21.6604 80.0759 23.3585L80.18 25.4906C80.18 25.6478 80.1863 25.805 80.1989 25.9623C80.2052 26.1195 80.221 26.2736 80.2462 26.4245C80.2714 26.5818 80.2998 26.7358 80.3313 26.8868C80.3692 27.044 80.4101 27.1981 80.4543 27.3491H83.0554C82.9608 27.1478 82.8788 26.9402 82.8095 26.7264C82.7401 26.5126 82.6865 26.2987 82.6487 26.0849C82.6045 25.8648 82.5761 25.6447 82.5635 25.4245C82.5509 25.2044 82.5509 24.9811 82.5635 24.7547L82.5257 23.0943C82.4879 21.3491 82.0433 20.6038 80.6529 20C80.9934 19.8585 81.315 19.6509 81.5988 19.4057C81.8825 19.1604 82.1284 18.8679 82.3271 18.5472C82.5257 18.2358 82.6676 17.8868 82.7622 17.5189C82.8568 17.1509 82.8946 16.783 82.8662 16.4057C82.8662 13.9057 81.3245 12.2453 77.8626 12.2453L70.7215 12.2358ZM73.1334 14.283H77.6924C79.4895 14.283 80.4259 15 80.4259 16.6604C80.4259 18.3208 79.499 19.0755 77.4843 19.0755H73.1334V14.283ZM84.3039 12.2453V27.3491H86.7347V21.2736H90.9816C94.1124 21.2736 95.7393 19.5283 95.7393 16.7264C95.7393 13.7925 93.9138 12.2453 91.0762 12.2453H84.3039ZM86.7347 14.283H90.4614C92.4382 14.283 93.3084 15.1132 93.3084 16.7736C93.3084 18.434 92.3815 19.2641 90.4614 19.2641H86.7347V14.283Z" fill="white"/>
<path d="M117.957 0C109.861 0 102.559 4.85849 99.4563 12.3208C96.3634 19.7736 98.0754 28.3585 103.798 34.066C109.52 39.7642 118.137 41.4717 125.619 38.3868C133.091 35.3019 137.971 28.0189 137.971 19.9528C137.971 17.3302 137.451 14.7359 136.449 12.3208C135.446 9.89623 133.971 7.69811 132.107 5.83962C130.253 3.99057 128.04 2.51887 125.619 1.51887C123.188 0.518868 120.587 0 117.957 0ZM117.957 29.934C113.909 29.934 110.258 27.5 108.707 23.7736C107.156 20.0472 108.016 15.7547 110.873 12.8962C113.739 10.0472 118.042 9.18868 121.788 10.7358C125.524 12.283 127.964 15.9151 127.964 19.9528C127.964 21.2642 127.7 22.5566 127.198 23.7736C126.697 24.9811 125.959 26.0849 125.032 27.0094C124.105 27.934 122.999 28.6698 121.788 29.1698C120.568 29.6698 119.272 29.934 117.957 29.934Z" fill="url(#paint0_radial_304_4031)"/>
<defs>
<radialGradient id="paint0_radial_304_4031" cx="0" cy="0" r="1" gradientUnits="userSpaceOnUse" gradientTransform="translate(117.954 19.9528) scale(20.0177 19.9657)">
<stop stop-color="#FFCB05"/>
<stop offset="0.5" stop-color="#FFCB05"/>
<stop offset="0.59" stop-color="#FFCB05" stop-opacity="0.78"/>
<stop offset="0.7" stop-color="#FFCB05" stop-opacity="0.5"/>
<stop offset="0.8" stop-color="#FFCB05" stop-opacity="0.29"/>
<stop offset="0.89" stop-color="#FFCB05" stop-opacity="0.13"/>
<stop offset="0.96" stop-color="#FFCB05" stop-opacity="0.04"/>
<stop offset="1" stop-color="#FFCB05" stop-opacity="0"/>
</radialGradient>
</defs>
</svg>
