<svg width="41" height="40" viewBox="0 0 41 40" fill="none" xmlns="http://www.w3.org/2000/svg">
<path d="M40.0866 32.7084C39.0619 30.9968 38.1163 29.404 37.2318 27.8724C39.0044 25.8122 39.8673 23.4032 39.7918 20.6886C39.7631 19.653 39.5617 18.7218 39.1734 17.8373C37.7136 14.533 34.8552 12.6382 31.328 12.6382C30.8318 12.6382 30.3213 12.6778 29.8107 12.7533C29.505 12.8001 29.2031 12.8575 28.9047 12.9295C26.3158 8.33797 22.7276 2.01349 21.7136 0.424267C21.5482 0.165396 21.2713 0.00719511 20.9729 0C20.6781 0 20.3941 0.140223 20.2178 0.391909L11.7145 15.2342C11.7145 15.2342 11.7217 15.2162 11.7253 15.2054C11.9086 14.7272 11.8476 14.1879 11.5527 13.7636C11.2435 13.3105 10.8264 13.0912 10.2763 13.0912H8.42816C7.99676 13.0912 7.8745 13.0912 7.82057 13.0949C7.30641 13.1128 6.89292 13.235 6.52259 13.4832C5.92573 13.8787 5.21023 14.5654 4.37607 15.36C3.30461 16.3848 1.97068 17.6576 0.712245 18.4737C0.277196 18.7506 0.01112 19.2252 0.000337551 19.7429C-0.0104449 20.2643 0.237644 20.7533 0.665508 21.0553C0.913596 21.2279 1.19045 21.3141 1.48888 21.3141C1.63988 21.3141 1.77652 21.2926 1.89517 21.271C1.93832 21.2639 1.97787 21.2566 2.02101 21.2458C2.26551 21.1955 2.6682 21.0985 3.33337 20.9294C3.03135 21.8068 2.76529 22.7236 2.59629 23.7016C2.25832 25.6468 2.66101 27.4768 3.75764 29.0337C3.03495 30.2921 2.32663 31.5505 1.69382 32.7479C1.54281 33.0355 1.54281 33.3807 1.69382 33.6647C1.84483 33.9488 2.12888 34.1321 2.44169 34.1502C7.03674 34.3911 11.3586 34.3443 16.0003 34.3407H16.0147C15.6156 35.4157 15.2309 36.4405 14.972 37.0984C14.7024 37.7888 14.7779 38.5151 15.177 39.0976C15.5725 39.6693 16.2269 40 16.9747 40L19.1572 39.9821C19.8187 39.9821 20.3941 39.5794 20.6206 38.9502C20.9011 38.1699 21.2857 37.0984 21.6993 35.955L22.03 35.0382L22.2889 34.3191C28.0021 34.2832 33.7298 34.2076 39.346 34.0746C39.648 34.0674 39.9141 33.8697 40.0615 33.5965C40.2089 33.3231 40.2449 32.978 40.0831 32.7119L40.0866 32.7084Z" fill="#FFEE52"/>
<path d="M38.8357 20.7142C38.8105 19.8045 38.6343 18.9884 38.2963 18.2225C36.8006 14.8319 33.6796 13.1421 29.9511 13.6993C29.3255 13.7928 28.7035 13.9474 28.103 14.1596C27.8945 13.8899 27.5961 13.7749 27.1467 13.7749H24.9138C24.6621 13.7749 24.4356 13.933 24.3421 14.1848C24.0221 15.062 21.196 22.8284 20.2864 25.241C20.1282 25.6652 19.4882 27.0279 17.9493 26.7618C17.6113 26.7044 17.3094 26.4994 17.1188 26.1938C16.939 25.9062 16.8851 25.5717 16.9713 25.2697L17.0109 25.1367C17.1007 24.8203 17.205 24.4607 17.3273 24.1407L20.8833 14.7564C20.9515 14.5731 20.9264 14.3645 20.815 14.1991C20.7035 14.0373 20.5201 13.9438 20.3223 13.9403C19.1898 13.9223 18.0104 13.933 17.6941 13.9403C17.1188 13.9474 16.7089 14.2315 16.5183 14.7672C15.9825 16.2882 15.4432 17.773 14.9076 19.1861C14.6127 19.9699 14.3323 20.7933 14.0878 21.5196C13.7642 22.4796 13.4261 23.472 13.0451 24.4176C12.7969 25.0288 12.4662 25.7156 11.8837 26.2009C11.1574 26.805 10.0284 27.1249 8.96772 26.9056C7.61942 26.6288 7.43245 25.2985 7.4756 24.5542C7.52234 23.792 7.77403 23.0585 8.04734 22.3106C8.65851 20.6387 9.89534 17.3165 10.8338 14.8679C10.9057 14.681 10.8805 14.476 10.769 14.3106C10.6577 14.1488 10.539 14.0481 10.2729 14.0481C9.98166 14.0481 8.11562 14.0373 7.85313 14.0481C7.53313 14.0589 7.28145 14.1236 7.05134 14.2782C6.52639 14.627 5.83605 15.2886 5.03425 16.0545C3.93403 17.1043 2.56773 18.4131 1.2338 19.276C1.06481 19.3839 0.964133 19.5708 0.960546 19.7686C0.956948 19.9699 1.05402 20.1569 1.21942 20.2755C1.36683 20.3798 1.50346 20.3762 1.74796 20.3294C1.76953 20.3294 1.7875 20.3223 1.80908 20.3187C2.18301 20.2432 3.01717 20.031 4.87605 19.5564C4.34751 20.8939 3.80819 22.3286 3.54212 23.871C3.21493 25.7443 3.67875 27.4953 4.88324 28.9372C6.81763 31.2527 9.9997 31.3425 12.1425 30.4472C12.948 30.1093 13.5664 29.5627 14.0734 29.0163C15.0837 30.3538 16.8814 30.9183 18.3628 30.7708C18.2405 31.0981 18.1075 31.4647 17.9601 31.8567L17.8019 32.281C17.1403 34.0715 16.3169 36.2972 15.8675 37.4513C15.7165 37.8396 15.7524 38.2423 15.9682 38.5587C16.1804 38.868 16.5435 39.0477 16.9785 39.0477L19.1538 39.0297C19.4126 39.0297 19.632 38.8751 19.7219 38.6306C20.0743 37.6455 20.5992 36.1893 21.1313 34.7187L21.6598 33.2517C22.2351 31.6553 22.7457 30.2315 22.9615 29.6311L23.4828 28.1749C23.7165 28.4481 23.9682 28.6963 24.2343 28.9191C26.0464 30.4472 28.1569 31.0225 30.5048 30.6342C32.5111 30.3034 34.2333 29.4728 35.6249 28.1749C37.8361 26.1074 38.9183 23.5978 38.8392 20.7178L38.8357 20.7142ZM34.3664 21.4728C34.1039 23.4395 33.1835 24.9318 31.6303 25.9133C30.8176 26.4275 29.9439 26.6863 29.0379 26.6863H29.0198C27.5889 26.6827 26.3808 25.7911 25.9385 24.4104C25.8666 24.1803 25.8091 23.9322 25.7695 23.6517C25.7551 23.5583 25.7516 23.4684 25.7443 23.339L25.7335 23.2491C25.8091 21.8467 26.298 20.5991 27.1862 19.5385C28.1318 18.4059 29.3687 17.7803 30.8608 17.6796C30.9399 17.676 31.0154 17.6724 31.0909 17.6724C32.3494 17.6724 33.4064 18.3556 33.9889 19.5493C34.3161 20.2216 34.4455 20.8688 34.3628 21.4692L34.3664 21.4728Z" fill="#1E1E1E"/>
</svg>
