<svg width="202" height="40" viewBox="0 0 202 40" fill="none" xmlns="http://www.w3.org/2000/svg">
<path d="M1.13232 1.14728C2.19744 1.59646 2.89662 4.34405 2.89662 4.34405L9.50249 27.2952C10.264 30.1674 12.6733 31.6805 15.3698 31.6805H29.8535C28.8163 31.4953 27.6789 28.4428 27.6789 28.4428L20.3345 5.61456C19.2775 2.12762 17.4952 1.14728 14.7954 1.14728H1.13232ZM62.4315 1.14728C59.7251 1.14728 57.974 2.12762 56.9334 5.61456L49.548 28.4428C49.548 28.4428 48.4221 31.4953 47.3734 31.6805H61.8571C64.5667 31.6805 66.953 30.1674 67.7244 27.2952L74.3302 4.34405C74.3302 4.34405 75.0507 1.59646 76.1356 1.14728H62.4315ZM30.592 1.31121V31.6805H46.7169V1.31121H30.592Z" fill="white"/>
<path d="M125.823 7.99164L119.464 8.6064V11.9671H116.879V15.3278H119.464V25.6968C119.464 27.328 119.772 28.551 120.325 29.3854C120.911 30.2444 121.737 30.9051 122.869 31.3936C124 31.9018 125.607 32.1313 127.67 32.1313C128.544 32.1313 129.726 31.9772 131.239 31.5985V28.3198C130.494 28.4657 129.854 28.5657 129.311 28.5657C128.165 28.5657 127.277 28.328 126.685 27.828C126.096 27.3362 125.823 26.3771 125.823 24.9591V15.3278H130.829V11.9671H125.823V7.99164ZM84.9981 11.5163C82.561 11.5163 80.5012 11.9671 78.8436 12.8688C77.1762 13.7655 75.9419 14.9917 75.0688 16.5573C74.1957 18.1246 73.7559 19.8492 73.7559 21.6804C73.7559 23.6673 74.2564 25.5362 75.274 27.2132C76.2965 28.9051 77.7883 30.1329 79.7052 30.9428C81.6074 31.7477 83.823 32.1313 86.3521 32.1313C89.0388 32.1313 91.8502 31.7772 94.8454 31.0248V27.3362C92.203 28.1214 89.8134 28.5247 87.7061 28.5247C86.0617 28.5247 84.7848 28.2772 83.8083 27.828C82.835 27.3788 82.039 26.787 81.4695 26.0247C80.8984 25.2624 80.5537 24.2033 80.4028 22.8689H94.9275C94.8717 18.5049 93.9723 15.5426 92.1784 13.9343C90.3994 12.3327 87.995 11.5163 84.9981 11.5163ZM107.154 11.5163C103.882 11.5163 101.448 12.0704 99.8511 13.1966C98.2525 14.2983 97.4713 15.7196 97.4713 17.418C97.4713 18.8475 97.9604 19.9771 99.0305 20.8607C100.078 21.7705 101.74 22.6164 103.954 23.3607L106.088 24.0574C107.174 24.4066 107.962 24.8001 108.508 25.164C109.03 25.5558 109.288 26.0296 109.288 26.5985C109.288 27.2395 108.927 27.7313 108.221 28.1559C107.52 28.5755 106.559 28.8116 105.39 28.8116C103.166 28.8116 100.498 28.2526 97.3482 27.1722V31.0657C100.24 31.7805 103.076 32.1313 105.841 32.1313C109.088 32.1313 111.558 31.4985 113.268 30.2461C114.967 28.9985 115.812 27.5641 115.812 25.9017C115.812 24.6378 115.342 23.541 114.417 22.623C113.471 21.7131 111.502 20.7787 108.467 19.7951L106.621 19.1803C105.52 18.8393 104.765 18.5098 104.364 18.1557C103.934 17.7885 103.708 17.3459 103.708 16.8852C103.708 16.2852 104.031 15.8196 104.693 15.4508C105.343 15.0753 106.334 14.877 107.647 14.877C109.334 14.877 111.453 15.218 114.007 15.9016V12.213C111.358 11.7425 109.075 11.5163 107.154 11.5163ZM148.226 11.5163C146.494 11.5163 144.973 11.8802 143.712 12.5819C142.45 13.2999 141.436 14.3229 140.635 15.7377V11.9671H134.275V38.8527H140.635V29.6313C141.49 30.3526 142.25 30.8887 142.892 31.1887C143.547 31.5018 144.187 31.7592 144.902 31.9264C145.603 32.0887 146.409 32.1313 147.241 32.1313C150.377 32.1313 152.795 31.0887 154.544 29.0165C156.289 26.9542 157.17 24.4001 157.17 21.3115C157.17 18.382 156.396 16.0163 154.832 14.2212C153.271 12.4245 151.062 11.5163 148.226 11.5163ZM169.069 11.5163C166.22 11.5163 163.368 11.9868 160.494 12.9097V16.5983C163.015 15.4278 165.503 14.836 167.92 14.836C169.146 14.836 170.162 15.0409 170.956 15.4508C171.766 15.8737 172.146 16.6967 172.146 17.9098V19.6721H170.464C166.223 19.6721 163.171 20.3098 161.273 21.5984C159.394 22.9033 158.442 24.5394 158.442 26.4755C158.442 28.0608 159.076 29.3805 160.33 30.492C161.597 31.5821 163.279 32.1313 165.376 32.1313C166.19 32.1313 166.945 32.0444 167.674 31.8854C168.395 31.7182 169.102 31.5166 169.767 31.1887C170.433 30.8575 171.258 30.3346 172.187 29.5903H172.434C172.88 30.6395 173.561 31.3116 174.403 31.6395C175.248 31.9756 176.258 32.1313 177.439 32.1313C178.475 32.1313 179.663 31.9887 181.009 31.6395L180.927 28.6477C180.574 28.687 180.262 28.6887 180.024 28.6887C179.632 28.6887 179.233 28.5641 178.834 28.3198C178.442 28.0903 178.26 27.4706 178.26 26.3935V17.6639C178.26 16.0131 177.836 14.7999 177.029 13.9753C176.207 13.1475 175.115 12.531 173.747 12.131C172.374 11.7376 170.799 11.5163 169.069 11.5163ZM194.139 11.5163C190.047 11.5163 186.893 12.4819 184.784 14.3852C182.665 16.2885 181.624 18.7738 181.624 21.8033C181.624 24.7066 182.616 27.1772 184.62 29.1805C186.617 31.1559 189.622 32.1313 193.605 32.1313C195.849 32.1313 198.27 31.8641 200.867 31.2707V27.5821C198.893 28.2214 196.988 28.5657 195.123 28.5657C193.837 28.5657 192.666 28.2919 191.636 27.787C190.608 27.2772 189.821 26.4788 189.256 25.3689C188.675 24.2607 188.394 23.0525 188.394 21.7623C188.394 20.1033 188.878 18.5606 189.871 17.1721C190.864 15.7786 192.437 15.1229 194.59 15.1229C196.11 15.1229 198.153 15.4704 200.703 16.1885V12.295C198.227 11.7655 196.042 11.5163 194.139 11.5163ZM84.793 14.877C85.9205 14.877 86.8396 15.2524 87.542 16.0245C88.2526 16.7934 88.6088 18.059 88.6088 19.8361H80.3207C80.5193 18.2082 81.0133 16.995 81.7978 16.1475C82.5872 15.3016 83.5818 14.877 84.793 14.877ZM145.887 15.7377C147.339 15.7377 148.433 16.3049 149.21 17.377C149.998 18.4459 150.4 19.9164 150.4 21.7623C150.4 23.5706 149.99 25.1493 149.169 26.5575C148.349 27.9542 147.124 28.6477 145.436 28.6477C144.645 28.6477 143.857 28.4985 143.097 28.1968C142.331 27.887 141.512 27.3116 140.635 26.4755V18.7295C141.408 17.8033 142.227 17.0836 143.138 16.5573C144.057 16.0213 144.989 15.7377 145.887 15.7377ZM170.669 22.7459H172.146V26.7214C171.373 27.3149 170.612 27.7362 169.849 28.0329C169.087 28.3428 168.329 28.5247 167.592 28.5247C166.771 28.5247 166.076 28.2673 165.458 27.787C164.866 27.305 164.556 26.7017 164.556 25.9427C164.556 25.023 165.073 24.2558 166.074 23.6476C167.082 23.0427 168.608 22.7459 170.669 22.7459Z" fill="white"/>
</svg>
