<svg width="78" height="40" viewBox="0 0 78 40" fill="none" xmlns="http://www.w3.org/2000/svg">
<path d="M77.2582 34.0011H0V40H77.2582V34.0011Z" fill="#F47920"/>
<path d="M77.07 34.1892H0.187988V39.812H77.07V34.1892Z" fill="#F47920"/>
<path d="M77.2582 0H0V34.0011H77.2582V0Z" fill="#671773"/>
<path fill-rule="evenodd" clip-rule="evenodd" d="M16.3535 17.5389H19.2235L17.7872 14.1237L16.3535 17.5389Z" fill="#F47920"/>
<path fill-rule="evenodd" clip-rule="evenodd" d="M32.7669 17.3617C32.7669 20.4961 31.0062 22.0333 28.2289 22.0333C25.4515 22.0333 23.7481 20.4797 23.7481 17.4353V12.5702C23.7481 11.9352 24.2523 11.4309 24.8873 11.4309C25.5224 11.4309 26.0239 11.9352 26.0239 12.5702V17.3753C26.0239 19.0625 26.8661 19.9346 28.2561 19.9346C29.6461 19.9346 30.4883 19.0924 30.4883 17.4489V12.5702C30.4883 11.9352 30.9898 11.4309 31.6276 11.4309C32.2654 11.4309 32.7669 11.9352 32.7669 12.5702V17.3617ZM21.8565 21.9597C21.3251 21.9597 20.968 21.649 20.7609 21.1748L20.0659 19.5476H15.5115L14.7865 21.2483C14.593 21.6926 14.2087 21.957 13.7372 21.957C13.1457 21.957 12.6878 21.4827 12.6878 20.8913C12.6878 20.7305 12.7478 20.567 12.8214 20.4034L16.4273 12.2568C16.678 11.6926 17.1359 11.3546 17.7573 11.3546H17.8909C18.5123 11.3546 18.9566 11.6953 19.2073 12.2568L22.8159 20.4034C22.8895 20.567 22.9359 20.7141 22.9359 20.8613C22.9359 21.4691 22.4616 21.957 21.8565 21.957V21.9597ZM23.2902 3.36334C15.7595 3.36334 9.6543 9.46855 9.6543 16.9992C9.6543 24.5299 15.7595 30.6351 23.2902 30.6351C30.8208 30.6351 36.9261 24.5299 36.9261 16.9992C36.9261 9.46855 30.8181 3.36334 23.2875 3.36334H23.2902Z" fill="#F47920"/>
<path fill-rule="evenodd" clip-rule="evenodd" d="M42.93 8.69988L42.3222 7.24989L41.7144 8.69988H42.9327H42.93ZM40.2126 9.9182L41.7444 6.46221C41.8507 6.22236 42.0442 6.08064 42.3086 6.08064H42.3658C42.6302 6.08064 42.8183 6.22509 42.9245 6.46221L44.4563 9.9182C44.489 9.98633 44.5081 10.049 44.5081 10.1117C44.5081 10.3679 44.3064 10.5751 44.0502 10.5751C43.824 10.5751 43.6741 10.4442 43.5869 10.2425L43.2925 9.55297H41.3601L41.0521 10.2752C40.9703 10.4633 40.8068 10.5778 40.6078 10.5778C40.3571 10.5778 40.1636 10.3761 40.1636 10.1253C40.1636 10.0572 40.1881 9.98633 40.2208 9.9182H40.2126Z" fill="white"/>
<path fill-rule="evenodd" clip-rule="evenodd" d="M44.8489 8.65628V6.59304C44.8489 6.32321 45.0615 6.11062 45.3313 6.11062C45.6012 6.11062 45.8138 6.32321 45.8138 6.59304V8.63175C45.8138 9.34584 46.1708 9.71651 46.7623 9.71651C47.3537 9.71651 47.7107 9.35946 47.7107 8.66173V6.59032C47.7107 6.32049 47.9233 6.10789 48.1932 6.10789C48.463 6.10789 48.6756 6.32049 48.6756 6.59032V8.62357C48.6756 9.95363 47.9288 10.605 46.7486 10.605C45.5685 10.605 44.8462 9.94546 44.8462 8.65355L44.8489 8.65628Z" fill="white"/>
<path fill-rule="evenodd" clip-rule="evenodd" d="M40.3325 15.7591C40.2262 15.6828 40.1499 15.5465 40.1499 15.3939C40.1499 15.1431 40.3516 14.9496 40.6023 14.9496C40.7277 14.9496 40.8149 14.9932 40.8776 15.0368C41.2101 15.2821 41.5726 15.432 42.0005 15.432C42.3958 15.432 42.6356 15.2767 42.6356 15.0177V15.0068C42.6356 14.7615 42.4857 14.6362 41.7498 14.4481C40.8667 14.2219 40.2944 13.9766 40.2944 13.1044V13.0935C40.2944 12.2977 40.9349 11.7689 41.8316 11.7689C42.3658 11.7689 42.8291 11.9079 43.2243 12.1587C43.3306 12.2213 43.4369 12.3522 43.4369 12.5402C43.4369 12.791 43.2352 12.9872 42.9845 12.9872C42.8918 12.9872 42.8155 12.9627 42.7392 12.9191C42.4203 12.731 42.1177 12.6247 41.8179 12.6247C41.4473 12.6247 41.2537 12.7937 41.2537 13.009V13.0227C41.2537 13.3116 41.4418 13.4042 42.2022 13.6005C43.0935 13.8321 43.595 14.1538 43.595 14.9169V14.9305C43.595 15.8027 42.93 16.2906 41.9815 16.2906C41.4037 16.2906 40.8204 16.1161 40.3325 15.7645V15.7591Z" fill="white"/>
<path fill-rule="evenodd" clip-rule="evenodd" d="M44.1839 12.2895C44.1839 12.0196 44.3965 11.807 44.6663 11.807H44.7726C44.9797 11.807 45.1242 11.9133 45.2114 12.0578L46.3779 13.9575L47.5499 12.0496C47.6508 11.8861 47.7898 11.8043 47.9833 11.8043H48.0896C48.3594 11.8043 48.572 12.0196 48.572 12.2867V15.7754C48.572 16.0453 48.3594 16.2578 48.0896 16.2578C47.8197 16.2578 47.6126 16.0371 47.6126 15.7754V13.5868L46.765 14.8924C46.6641 15.0423 46.5387 15.1376 46.3643 15.1376C46.1899 15.1376 46.0645 15.045 45.9637 14.8924L45.1296 13.6059V15.7891C45.1296 16.0534 44.917 16.2606 44.6527 16.2606C44.3883 16.2606 44.1812 16.0534 44.1812 15.7891V12.2895H44.1839Z" fill="white"/>
<path fill-rule="evenodd" clip-rule="evenodd" d="M51.8502 14.3854L51.2424 12.9354L50.6346 14.3854H51.8529H51.8502ZM49.1328 15.6037L50.6646 12.1477C50.7709 11.9106 50.9644 11.7662 51.2288 11.7662H51.286C51.5504 11.7662 51.7385 11.9106 51.8448 12.1477L53.3765 15.6037C53.4092 15.6719 53.4256 15.7345 53.4256 15.7972C53.4256 16.0534 53.2239 16.2633 52.9677 16.2633C52.7415 16.2633 52.5916 16.1325 52.5043 15.9308L52.21 15.2412H50.2776L49.9696 15.9635C49.8878 16.1516 49.7243 16.266 49.5253 16.266C49.2746 16.266 49.0811 16.0643 49.0811 15.8136C49.0811 15.7454 49.1056 15.6746 49.1383 15.6064L49.1328 15.6037Z" fill="white"/>
<path fill-rule="evenodd" clip-rule="evenodd" d="M53.9331 12.2758C53.9331 12.006 54.1457 11.7934 54.4155 11.7934C54.6854 11.7934 54.8979 12.006 54.8979 12.2758V15.3448H56.6859C56.9312 15.3448 57.1247 15.5383 57.1247 15.7836C57.1247 16.0289 56.9285 16.2224 56.6859 16.2224H54.4155C54.1457 16.2224 53.9331 16.0098 53.9331 15.74V12.2758Z" fill="white"/>
<path fill-rule="evenodd" clip-rule="evenodd" d="M57.5659 12.2758C57.5659 12.006 57.7785 11.7934 58.0483 11.7934C58.3182 11.7934 58.5308 12.006 58.5308 12.2758V15.3448H60.3187C60.564 15.3448 60.7575 15.5383 60.7575 15.7836C60.7575 16.0289 60.564 16.2224 60.3187 16.2224H58.0483C57.7785 16.2224 57.5659 16.0098 57.5659 15.74V12.2758Z" fill="white"/>
<path fill-rule="evenodd" clip-rule="evenodd" d="M40.1553 17.9994C40.1553 17.7296 40.3679 17.517 40.6377 17.517H43.0961C43.3414 17.517 43.5349 17.7105 43.5349 17.9558C43.5349 18.2011 43.3414 18.3946 43.0961 18.3946H41.1201V19.3295H42.8127C43.058 19.3295 43.2515 19.523 43.2515 19.7683C43.2515 20.0136 43.058 20.2071 42.8127 20.2071H41.1201V21.4609C41.1201 21.7307 40.9075 21.9433 40.6377 21.9433C40.3679 21.9433 40.1553 21.7307 40.1553 21.4609V17.9967V17.9994Z" fill="white"/>
<path fill-rule="evenodd" clip-rule="evenodd" d="M44.064 17.9613C44.064 17.6914 44.2766 17.4789 44.5464 17.4789C44.8162 17.4789 45.0288 17.6914 45.0288 17.9613V21.4636C45.0288 21.7334 44.8162 21.946 44.5464 21.946C44.2766 21.946 44.064 21.7334 44.064 21.4636V17.9613Z" fill="white"/>
<path fill-rule="evenodd" clip-rule="evenodd" d="M45.8789 17.9749C45.8789 17.7051 46.0915 17.4925 46.3613 17.4925H46.4622C46.6938 17.4925 46.8328 17.6042 46.9637 17.776L48.8279 20.2235V17.9586C48.8279 17.6969 49.0405 17.4816 49.3049 17.4816C49.5693 17.4816 49.7819 17.6942 49.7819 17.9586V21.4527C49.7819 21.7225 49.5693 21.9351 49.2995 21.9351H49.2668C49.0351 21.9351 48.8961 21.8234 48.7653 21.6544L46.8328 19.1196V21.4718C46.8328 21.7362 46.6203 21.9488 46.3559 21.9488C46.0915 21.9488 45.8789 21.7362 45.8789 21.4718V17.9776V17.9749Z" fill="white"/>
<path fill-rule="evenodd" clip-rule="evenodd" d="M53.0558 20.0682L52.448 18.6182L51.8402 20.0682H53.0585H53.0558ZM50.3384 21.2865L51.8702 17.8305C51.9765 17.5934 52.17 17.4489 52.4343 17.4489H52.4916C52.756 17.4489 52.944 17.5934 53.0503 17.8305L54.5821 21.2865C54.6121 21.3546 54.6311 21.4173 54.6311 21.48C54.6311 21.7389 54.4294 21.9434 54.1732 21.9434C53.947 21.9434 53.7971 21.8125 53.7099 21.6108L53.4155 20.9213H51.4831L51.1751 21.6436C51.0934 21.8316 50.9299 21.9434 50.7309 21.9434C50.4801 21.9434 50.2866 21.7417 50.2866 21.4909C50.2866 21.4201 50.3112 21.3519 50.3439 21.2838L50.3384 21.2865Z" fill="white"/>
<path fill-rule="evenodd" clip-rule="evenodd" d="M55.1377 17.9749C55.1377 17.7051 55.3503 17.4925 55.6201 17.4925H55.721C55.9526 17.4925 56.0916 17.6042 56.2225 17.776L58.0867 20.2235V17.9586C58.0867 17.6969 58.2993 17.4816 58.5637 17.4816C58.8281 17.4816 59.0407 17.6942 59.0407 17.9586V21.4527C59.0407 21.7225 58.8281 21.9351 58.5582 21.9351H58.5255C58.2939 21.9351 58.1549 21.8234 58.024 21.6544L56.0916 19.1196V21.4718C56.0916 21.7362 55.879 21.9488 55.6147 21.9488C55.3503 21.9488 55.1377 21.7362 55.1377 21.4718V17.9776V17.9749Z" fill="white"/>
<path fill-rule="evenodd" clip-rule="evenodd" d="M59.6484 19.7247V19.7111C59.6484 18.4628 60.5887 17.4407 61.9379 17.4407C62.5975 17.4407 63.0417 17.6151 63.407 17.885C63.5078 17.9586 63.595 18.0976 63.595 18.2665C63.595 18.5309 63.3824 18.7381 63.118 18.7381C62.9872 18.7381 62.9 18.689 62.8291 18.6454C62.5593 18.4437 62.2786 18.332 61.9324 18.332C61.1938 18.332 60.6596 18.9452 60.6596 19.7002V19.7111C60.6596 20.4633 61.1802 21.0929 61.9324 21.0929C62.3413 21.0929 62.6111 20.9676 62.8864 20.7468C62.9627 20.6841 63.0608 20.6405 63.1753 20.6405C63.4206 20.6405 63.6277 20.8422 63.6277 21.0848C63.6277 21.2347 63.5514 21.3546 63.4642 21.4309C63.069 21.777 62.6056 21.9815 61.9025 21.9815C60.6106 21.9815 59.6512 20.9839 59.6512 19.7247H59.6484Z" fill="white"/>
<path fill-rule="evenodd" clip-rule="evenodd" d="M64.2188 21.4254V17.9994C64.2188 17.7296 64.4313 17.517 64.7012 17.517H67.1732C67.4104 17.517 67.6066 17.7105 67.6066 17.9504C67.6066 18.1902 67.4131 18.3755 67.1732 18.3755H65.1781V19.2668H66.8543C67.0915 19.2668 67.2877 19.4603 67.2877 19.7002C67.2877 19.94 67.0942 20.1281 66.8543 20.1281H65.1781V21.0493H67.1678C67.4049 21.0493 67.6011 21.2428 67.6011 21.4827C67.6011 21.7225 67.4076 21.9078 67.1678 21.9078H64.7012C64.4313 21.9078 64.2188 21.6953 64.2188 21.4254Z" fill="white"/>
<path fill-rule="evenodd" clip-rule="evenodd" d="M42.2455 26.7784C42.6707 26.7784 42.9296 26.6285 42.9296 26.3014V26.2905C42.9296 25.9962 42.7088 25.8135 42.2128 25.8135H41.0953V26.7784H42.2428H42.2455ZM41.9893 25.0095C42.4145 25.0095 42.6843 24.8705 42.6843 24.5462V24.5353C42.6843 24.2464 42.4581 24.0828 42.0492 24.0828H41.0953V25.0122H41.9866L41.9893 25.0095ZM40.1577 23.7176C40.1577 23.4478 40.3703 23.2352 40.6401 23.2352H42.1964C42.6979 23.2352 43.0931 23.3742 43.3439 23.6249C43.5456 23.8266 43.6437 24.0692 43.6437 24.3717V24.3854C43.6437 24.8814 43.3793 25.1567 43.0659 25.3338C43.5728 25.5274 43.889 25.8244 43.889 26.4132V26.4268C43.889 27.2308 43.2376 27.6315 42.2455 27.6315H40.6401C40.3703 27.6315 40.1577 27.4189 40.1577 27.1491V23.7231V23.7176Z" fill="white"/>
<path fill-rule="evenodd" clip-rule="evenodd" d="M46.9064 25.7536L46.2986 24.3036L45.6908 25.7536H46.9091H46.9064ZM44.189 26.9719L45.7207 23.516C45.827 23.2788 46.0233 23.1344 46.2849 23.1344H46.3422C46.6065 23.1344 46.7946 23.2788 46.9009 23.516L48.4327 26.9719C48.4654 27.0401 48.4817 27.1028 48.4817 27.1655C48.4817 27.4217 48.28 27.6315 48.0238 27.6315C47.7976 27.6315 47.6477 27.5007 47.5605 27.299L47.2661 26.6094H45.3337L45.0257 27.3317C44.944 27.5198 44.7804 27.6342 44.5815 27.6342C44.3307 27.6342 44.1372 27.4326 44.1372 27.1818C44.1372 27.1137 44.1617 27.0428 44.1944 26.9747L44.189 26.9719Z" fill="white"/>
<path fill-rule="evenodd" clip-rule="evenodd" d="M48.9893 23.6605C48.9893 23.3906 49.2018 23.178 49.4717 23.178H49.5725C49.8042 23.178 49.9432 23.2925 50.074 23.4615L51.9383 25.909V23.6441C51.9383 23.3797 52.1509 23.1671 52.4153 23.1671C52.6796 23.1671 52.8922 23.3797 52.8922 23.6441V27.1382C52.8922 27.4081 52.6796 27.6207 52.4098 27.6207H52.3771C52.1454 27.6207 52.0064 27.5062 51.8756 27.3372L49.9432 24.8025V27.1546C49.9432 27.419 49.7306 27.6316 49.4662 27.6316C49.2018 27.6316 48.9893 27.419 48.9893 27.1546V23.6605Z" fill="white"/>
<path fill-rule="evenodd" clip-rule="evenodd" d="M53.6932 23.6468C53.6932 23.377 53.9057 23.1644 54.1756 23.1644C54.4454 23.1644 54.658 23.377 54.658 23.6468V25.1213L56.4405 23.3524C56.5604 23.2325 56.6776 23.1644 56.8493 23.1644C57.1192 23.1644 57.2936 23.3715 57.2936 23.6114C57.2936 23.7613 57.2255 23.8757 57.1164 23.9739L55.8818 25.1295L57.2309 26.8248C57.3072 26.9202 57.3617 27.0183 57.3617 27.1628C57.3617 27.4326 57.1546 27.6343 56.8711 27.6343C56.6831 27.6343 56.5713 27.5389 56.4623 27.4026L55.2086 25.7591L54.6553 26.2742V27.1518C54.6553 27.4217 54.4427 27.6343 54.1728 27.6343C53.903 27.6343 53.6904 27.4217 53.6904 27.1518V23.6495L53.6932 23.6468Z" fill="white"/>
<path fill-rule="evenodd" clip-rule="evenodd" d="M34.8407 36.1625H34.4209V38.2284C34.4209 38.2884 34.3991 38.3429 34.3582 38.3865C34.3146 38.4301 34.2656 38.4546 34.2029 38.4546C34.1402 38.4546 34.0911 38.4328 34.0448 38.3865C34.0012 38.3429 33.9794 38.2884 33.9794 38.2284V36.1625H33.7314H33.3116V38.2284C33.3116 38.2911 33.2898 38.3429 33.2462 38.3865C33.2026 38.4301 33.1508 38.4546 33.0881 38.4546C33.0254 38.4546 32.9764 38.4328 32.93 38.3865C32.8837 38.3402 32.8646 38.2884 32.8646 38.2284V37.2772C32.8646 37.1982 32.821 37.1327 32.7338 37.0782C32.6466 37.0237 32.543 36.9992 32.4231 36.9992C32.3277 36.9992 32.2405 37.0292 32.1587 37.0891C32.0797 37.1491 32.0224 37.2254 31.987 37.3235C31.9734 37.359 31.9516 37.3889 31.9216 37.4108C31.8916 37.4353 31.8562 37.4462 31.818 37.4462C31.7799 37.4462 31.7444 37.4353 31.7117 37.4108C31.679 37.3862 31.6572 37.359 31.6436 37.3235C31.6082 37.2254 31.5455 37.1491 31.4583 37.0891C31.3683 37.0292 31.2675 36.9992 31.1557 36.9992C31.0167 36.9992 30.8995 37.0483 30.8014 37.1464C30.7033 37.2445 30.6542 37.3644 30.6542 37.5034C30.6542 37.6588 30.7142 37.7896 30.8314 37.8986C30.9513 38.0076 31.093 38.0622 31.2593 38.0622C31.3193 38.0622 31.371 38.084 31.4174 38.1303C31.461 38.1739 31.4828 38.2284 31.4828 38.2884C31.4828 38.3347 31.4501 38.3756 31.3874 38.4056C31.3247 38.4383 31.2457 38.4546 31.153 38.4546C30.8913 38.4546 30.6678 38.362 30.4825 38.1766C30.2972 37.9913 30.2045 37.7678 30.2045 37.5061C30.2045 37.2581 30.2972 37.0483 30.4825 36.8738C30.6678 36.6994 30.8886 36.6094 31.153 36.6094C31.2865 36.6094 31.4119 36.634 31.5264 36.6858C31.6409 36.7348 31.739 36.8084 31.8153 36.9011C31.878 36.8111 31.9679 36.7403 32.077 36.6885C32.1887 36.6367 32.3113 36.6094 32.4476 36.6094C32.5185 36.6094 32.5894 36.6149 32.6575 36.6285C32.7256 36.6422 32.7938 36.6585 32.8619 36.6858V36.1652H29.7548V38.2311C29.7548 38.2938 29.7357 38.3456 29.7003 38.3892C29.6621 38.4328 29.6185 38.4574 29.564 38.4574C29.4959 38.4574 29.4386 38.4356 29.3896 38.3892C29.3405 38.3456 29.316 38.2911 29.316 38.2311V37.9477C29.256 38.0185 29.1688 38.0758 29.0571 38.1167C28.9453 38.1576 28.8172 38.1794 28.6755 38.1794C28.4247 38.1794 28.2094 38.103 28.0295 37.9477C27.8496 37.7951 27.7624 37.6097 27.7624 37.3944C27.7624 37.3126 27.776 37.2336 27.8033 37.1546C27.8306 37.0782 27.8687 37.0074 27.9232 36.9474H27.3236C27.2636 36.9474 27.2119 36.9283 27.1655 36.8874C27.1219 36.8493 27.1001 36.8002 27.1001 36.7484C27.1001 36.6967 27.1219 36.6503 27.1655 36.6122C27.2091 36.574 27.2609 36.5549 27.3236 36.5549H28.8772C28.9371 36.5549 28.9889 36.574 29.0325 36.6122C29.0761 36.6503 29.0952 36.6967 29.0952 36.7484C29.0952 36.8002 29.0734 36.8493 29.0325 36.8874C28.9889 36.9256 28.9399 36.9474 28.8772 36.9474H28.6537C28.5337 36.9474 28.4302 36.991 28.343 37.0782C28.2557 37.1655 28.2121 37.2718 28.2121 37.3917C28.2121 37.498 28.2612 37.5906 28.3593 37.667C28.4574 37.7433 28.5746 37.7814 28.7136 37.7814C28.8799 37.7814 29.0216 37.7378 29.1415 37.6506C29.2615 37.5634 29.3187 37.4571 29.3187 37.3372V36.1625H26.9911C26.754 36.1352 26.7403 35.8218 26.9911 35.77H33.5624H33.8322L33.8267 35.7645L32.9546 34.9441C32.9328 34.9196 32.8946 34.8787 32.8374 34.8242C32.7801 34.7697 32.7529 34.7288 32.7529 34.7043C32.7529 34.6443 32.7747 34.5925 32.8183 34.5489C32.8619 34.5053 32.9137 34.4835 32.9764 34.4835C33.0309 34.4835 33.1099 34.5353 33.2135 34.6362C33.3171 34.7397 33.3743 34.7942 33.3798 34.7997L34.3855 35.7673L34.3937 35.7727H34.8461C35.0287 35.8299 35.0233 36.1379 34.8461 36.1652L34.8407 36.1625ZM44.1238 35.77C44.3582 35.8054 44.301 36.1543 44.1238 36.1625H43.7041V38.2284C43.7041 38.2911 43.6823 38.3429 43.6387 38.3865C43.5951 38.4301 43.5406 38.4546 43.4833 38.4546C43.4261 38.4546 43.3716 38.4328 43.3253 38.3865C43.2817 38.3429 43.2598 38.2884 43.2598 38.2284V36.1625H42.494C42.573 36.2551 42.6302 36.3614 42.6711 36.4813C42.712 36.6013 42.7311 36.7266 42.7311 36.8602C42.7311 37.13 42.6248 37.359 42.4149 37.5498C42.2051 37.7405 41.9489 37.8359 41.6518 37.8359C41.4392 37.8359 41.2566 37.7705 41.1039 37.6397C40.9513 37.5089 40.875 37.3535 40.875 37.1709C40.875 37.0319 40.9241 36.912 41.0222 36.8139C41.1203 36.7157 41.2375 36.6667 41.3765 36.6667C41.4828 36.6667 41.5727 36.6939 41.649 36.7484C41.7254 36.803 41.7635 36.8684 41.7635 36.9474C41.7635 37.0156 41.7417 37.0728 41.6981 37.1218C41.6545 37.1709 41.6 37.1954 41.54 37.1954C41.4828 37.1954 41.4337 37.19 41.3901 37.1818C41.3465 37.1736 41.3111 37.16 41.2784 37.1409C41.2784 37.22 41.3138 37.2854 41.3874 37.3399C41.4583 37.3944 41.5482 37.4217 41.6518 37.4217C41.8289 37.4217 41.9788 37.3644 42.1042 37.2499C42.2296 37.1355 42.2896 36.9965 42.2896 36.8357C42.2896 36.6503 42.2323 36.4922 42.1206 36.3614C42.0061 36.2306 41.8698 36.1652 41.7117 36.1652H40.6978H40.4498V38.2311C40.4498 38.2911 40.428 38.3456 40.3871 38.3892C40.3435 38.4328 40.2917 38.4574 40.2318 38.4574C40.1718 38.4574 40.12 38.4356 40.0737 38.3892C40.0301 38.3456 40.0083 38.2911 40.0083 38.2311V36.1652H39.7603H39.3405V38.2311C39.3405 38.2938 39.3187 38.3456 39.2778 38.3892C39.2369 38.4328 39.1852 38.4574 39.1252 38.4574C39.0652 38.4574 39.0135 38.4356 38.9671 38.3892C38.9235 38.3456 38.9017 38.2911 38.9017 38.2311V37.269H38.4138C38.3539 37.269 38.3021 37.2499 38.2558 37.2118C38.2121 37.1764 38.1903 37.13 38.1903 37.0755C38.1903 37.021 38.2121 36.9747 38.2558 36.9365C38.2994 36.8984 38.3539 36.8765 38.4138 36.8765H38.9017V36.1625H38.6782C38.6183 36.1625 38.5665 36.1434 38.5229 36.1052C38.482 36.0671 38.4602 36.0235 38.4602 35.9689C38.4602 35.9144 38.482 35.8681 38.5229 35.8299C38.5665 35.7891 38.6183 35.77 38.6782 35.77H39.5913H40.8723H44.1293H44.1238ZM37.8442 35.8517C37.6589 35.7209 37.4381 35.6555 37.1792 35.6555C36.9584 35.6555 36.7703 35.6909 36.615 35.7591C36.4596 35.8299 36.3806 35.9144 36.3806 36.0153C36.3806 36.0916 36.4106 36.1461 36.4705 36.187C36.5305 36.2279 36.5904 36.2279 36.6504 36.1924C36.7322 36.1461 36.8167 36.1107 36.9066 36.0861C36.9966 36.0616 37.0865 36.048 37.1792 36.048C37.3154 36.048 37.4354 36.0807 37.5335 36.1461C37.6316 36.2115 37.6807 36.2933 37.6807 36.386C37.6807 36.4922 37.6371 36.5849 37.5498 36.6585C37.4626 36.7348 37.3563 36.7703 37.2337 36.7703C37.1546 36.7703 37.0892 36.7866 37.0374 36.822C36.9829 36.8575 36.9584 36.8956 36.9584 36.942C36.9584 37.0019 36.9857 37.0537 37.0374 37.0973C37.0892 37.1409 37.1574 37.1627 37.2337 37.1627C37.3863 37.1627 37.5171 37.2009 37.6262 37.2799C37.7352 37.3562 37.7897 37.4489 37.7897 37.5552C37.7897 37.6942 37.7352 37.8141 37.6262 37.9123C37.5171 38.0104 37.3863 38.0594 37.2337 38.0594C37.0674 38.0594 36.9175 38.0213 36.7867 37.9422C36.6559 37.8632 36.5659 37.7596 36.5196 37.6315C36.4951 37.5607 36.4569 37.5007 36.4024 37.4571C36.3506 37.4135 36.2934 37.3889 36.2389 37.3889C36.1843 37.3889 36.1407 37.408 36.0998 37.4462C36.0617 37.4843 36.0426 37.5307 36.0426 37.5825C36.0426 37.8223 36.1598 38.0267 36.3915 38.1984C36.6232 38.3674 36.9039 38.4519 37.2337 38.4519C37.509 38.4519 37.7461 38.3701 37.9396 38.2066C38.1331 38.0431 38.2312 37.8468 38.2312 37.6124C38.2312 37.4871 38.1876 37.3644 38.1031 37.2445C38.0186 37.1246 37.9042 37.021 37.757 36.9365C37.8715 36.8711 37.9587 36.7866 38.0241 36.6776C38.0868 36.5686 38.1195 36.4514 38.1195 36.326C38.1195 36.1407 38.0268 35.9826 37.8415 35.8517H37.8442ZM42.1015 34.5435C42.0579 34.5871 42.0361 34.6389 42.0361 34.6988C42.0361 34.7234 42.0633 34.7643 42.1206 34.8188C42.1778 34.8733 42.216 34.9142 42.2378 34.9387L43.1317 35.7782H43.6905L42.663 34.7942C42.663 34.7942 42.6003 34.7315 42.494 34.6307C42.3904 34.5299 42.3114 34.4781 42.2568 34.4781C42.1969 34.4781 42.1451 34.4999 42.0988 34.5435H42.1015ZM46.0099 37.2363C45.9936 37.2854 45.9854 37.3372 45.9854 37.3889C45.9854 37.4952 46.029 37.5879 46.1162 37.6642C46.2034 37.7405 46.307 37.7787 46.4269 37.7787C46.5087 37.7787 46.5823 37.7733 46.6477 37.7596C46.7131 37.746 46.7676 37.7296 46.8085 37.7024L46.0753 37.1055C46.0453 37.1409 46.0235 37.1845 46.0099 37.2309V37.2363ZM49.9429 34.8215C49.9865 34.8651 50.0083 34.9169 50.0083 34.9768C50.0083 35.0368 49.9865 35.0913 49.9429 35.1349C49.8993 35.1813 49.8475 35.2031 49.7848 35.2031C49.7221 35.2031 49.673 35.1813 49.6294 35.1349C49.5886 35.0913 49.5667 35.0368 49.5667 34.9768C49.5667 34.9169 49.5886 34.8651 49.6294 34.8215C49.673 34.7779 49.7248 34.7561 49.7848 34.7561C49.8448 34.7561 49.8965 34.7779 49.9429 34.8215ZM48.3321 34.5435C48.3757 34.4999 48.4275 34.4781 48.4902 34.4781C48.5447 34.4781 48.6237 34.5299 48.7273 34.6307C48.8309 34.7343 48.8881 34.7888 48.8963 34.7942L49.902 35.7618L49.9102 35.7673H50.2917C50.5234 35.8109 50.5125 36.157 50.2917 36.1597H49.9156V36.8847C49.9156 36.9392 49.8993 36.9828 49.8693 37.0183C49.8393 37.0537 49.8039 37.0673 49.7657 37.0564C49.6976 37.0401 49.6213 37.0237 49.534 37.0128C49.4468 37.0019 49.3514 36.9965 49.2506 36.9965C49.0244 36.9965 48.8309 37.0455 48.67 37.1437C48.512 37.2418 48.4302 37.3617 48.4302 37.5007C48.4302 37.6561 48.4956 37.7869 48.6237 37.8959C48.7545 38.0049 48.9099 38.0594 49.0952 38.0594C49.1743 38.0594 49.2479 38.0485 49.316 38.024C49.3841 37.9995 49.4441 37.9668 49.4932 37.9259C49.4495 37.9014 49.4168 37.8632 49.3923 37.8141C49.3678 37.7651 49.3569 37.7078 49.3569 37.6479C49.3569 37.5307 49.3978 37.4298 49.485 37.3481C49.5695 37.2663 49.673 37.2254 49.793 37.2254C49.9129 37.2254 50.0165 37.2663 50.101 37.3481C50.1854 37.4298 50.2291 37.5307 50.2291 37.6479C50.2291 37.8686 50.1173 38.0594 49.8965 38.2175C49.6758 38.3756 49.4087 38.4546 49.098 38.4546C48.7872 38.4546 48.5283 38.362 48.3103 38.1766C48.095 37.9913 47.9859 37.7678 47.9859 37.5061C47.9859 37.2581 48.1086 37.0483 48.3539 36.8738C48.5992 36.6994 48.899 36.6094 49.2506 36.6094H49.4741V36.1652H48.6373H47.5362V38.2311C47.5362 38.2938 47.5144 38.3456 47.4735 38.3892C47.4299 38.4328 47.3781 38.4574 47.3182 38.4574C47.2582 38.4574 47.2064 38.4356 47.1601 38.3892C47.1165 38.3456 47.0947 38.2911 47.0947 38.2311V37.9531C47.0347 38.024 46.9475 38.0812 46.8303 38.1194C46.7158 38.1603 46.5823 38.1794 46.4297 38.1794C46.1844 38.1794 45.9772 38.103 45.8028 37.9477C45.6283 37.7951 45.5411 37.6097 45.5411 37.3944C45.5411 37.1464 45.6338 36.9365 45.8164 36.7621C46.0017 36.5876 46.2225 36.4977 46.4814 36.4977C46.5877 36.4977 46.6777 36.525 46.754 36.5767C46.8303 36.6312 46.8685 36.6967 46.8685 36.7757C46.8685 36.822 46.8467 36.8629 46.8058 36.8956C46.7622 36.9283 46.7104 36.9474 46.6504 36.9474H46.3097L47.0211 37.5061C47.0429 37.4762 47.0593 37.4489 47.0729 37.4244C47.0865 37.3971 47.092 37.3699 47.092 37.3399V36.1652H45.3258C45.0996 36.1407 45.1023 35.8081 45.3258 35.7727H49.3433L49.3378 35.7673L48.4656 34.9469C48.4438 34.9223 48.4057 34.8815 48.3484 34.8269C48.2912 34.7724 48.2639 34.7315 48.2639 34.707C48.2639 34.6471 48.2857 34.5953 48.3294 34.5517L48.3321 34.5435ZM49.6785 37.7596C49.7112 37.7923 49.7466 37.8087 49.7902 37.8087C49.8338 37.8087 49.8693 37.7923 49.902 37.7596C49.9347 37.7269 49.951 37.6915 49.951 37.6479C49.951 37.6043 49.9347 37.5661 49.902 37.5334C49.8693 37.5007 49.8338 37.4843 49.7902 37.4843C49.7466 37.4843 49.7112 37.5007 49.6785 37.5334C49.6458 37.5661 49.6294 37.6043 49.6294 37.6479C49.6294 37.6915 49.6458 37.7269 49.6785 37.7596ZM49.5286 38.9888C49.5831 39.0488 49.6104 39.1224 49.6104 39.2096C49.6104 39.2968 49.5831 39.3677 49.5286 39.4277C49.4741 39.4876 49.4059 39.5149 49.3296 39.5149C49.2533 39.5149 49.1852 39.4849 49.1334 39.4277C49.0816 39.3677 49.0543 39.2968 49.0543 39.2096C49.0543 39.1224 49.0816 39.0515 49.1334 38.9888C49.1879 38.9289 49.2533 38.8962 49.3296 38.8962C49.4059 38.8962 49.4741 38.9262 49.5286 38.9888Z" fill="white"/>
</svg>
