<svg width="158" height="40" viewBox="0 0 158 40" fill="none" xmlns="http://www.w3.org/2000/svg">
<path d="M46.1495 39.9996H31.7952L23.0796 24.8009H37.4317L46.1495 39.9996ZM23.0282 -8.27267e-07L30.2258 12.3784L14.3267 40H0L23.0282 -8.27267e-07ZM55.0562 19.5685L52.6372 14.934L50.0995 19.5685H55.0562ZM56.0548 21.5048H49.0755L47.2607 24.8008H44.6015L52.6846 10.3144L60.4737 24.8008H57.7791L56.0548 21.5048ZM65.9326 17.6873L61.4331 11.1921H64.238L67.3608 15.7891L70.6264 11.1921H73.4532L68.7572 17.6873L73.6934 24.8008H70.9324L67.3226 19.5855L63.5913 24.8008H60.8049L65.9326 17.6873ZM78.3618 24.8011H75.9032V11.1917H78.3611L78.3618 24.8011ZM90.6564 13.1944L88.6487 14.1902C88.2741 13.6496 87.9236 13.2969 87.5794 13.1308C87.2275 12.9414 86.7767 12.8489 86.217 12.8489C85.5385 12.8489 84.9746 13.0114 84.5138 13.3407C84.0651 13.6545 83.8397 14.0509 83.8404 14.5308C83.8404 15.2043 84.4347 15.7357 85.6134 16.1378L87.2431 16.6996C88.5674 17.1335 89.5349 17.6897 90.1546 18.3278C90.7765 18.9766 91.0719 19.7631 91.0719 20.708C91.0719 21.9553 90.5751 22.9983 89.5681 23.8026C88.5667 24.6343 87.306 25.0449 85.8127 25.0449C84.3958 25.0449 83.2234 24.6972 82.3061 23.9884C81.3889 23.2782 80.8299 22.2973 80.5988 21.0344L83.0927 20.5737C83.2114 21.3786 83.4001 21.9199 83.6905 22.2295C84.193 22.8132 84.9435 23.1121 85.911 23.1121C86.6848 23.1121 87.3166 22.9043 87.8218 22.4648C88.3335 22.0401 88.5829 21.4924 88.5829 20.8366C88.5829 20.5737 88.5448 20.3278 88.4388 20.1158C88.3681 19.8854 88.2282 19.6896 88.0437 19.5031C87.8642 19.3278 87.6105 19.1391 87.3166 18.9815C87.0226 18.8154 86.6706 18.6748 86.2622 18.513L84.6884 17.9681C82.4425 17.1837 81.3373 16.0332 81.3373 14.5138C81.3373 13.4891 81.8079 12.6454 82.7408 11.9592C83.6722 11.2609 84.8396 10.9055 86.2353 10.9069C88.1137 10.9069 89.5978 11.6701 90.6564 13.1944ZM103.189 22.8632H104.713C105.836 22.8632 106.655 22.6844 107.177 22.3261C107.722 21.9268 108.004 21.4286 108.004 20.83C108.004 20.2378 107.722 19.7424 107.2 19.3318C106.684 18.9601 105.769 18.7495 104.436 18.7495H103.189V22.8632ZM103.189 17.033H103.969C104.882 17.033 105.56 16.8669 105.982 16.5277C106.403 16.1878 106.622 15.6917 106.622 15.0415C106.622 14.3914 106.403 13.9023 105.969 13.5843C105.525 13.2416 104.896 13.0748 104.061 13.0748H103.189V17.033ZM100.728 24.8009V11.1915H103.189C104.281 11.1915 105.15 11.2523 105.8 11.3971C106.453 11.5335 107.004 11.783 107.452 12.1031C107.915 12.4642 108.269 12.8918 108.542 13.4204C108.825 13.9285 108.962 14.4642 108.962 14.9977C108.962 15.9722 108.508 16.7962 107.612 17.4739C108.487 17.7192 109.163 18.1517 109.664 18.77C110.177 19.3785 110.428 20.0823 110.428 20.9099C110.428 21.9642 109.98 22.8632 109.073 23.6031C108.534 24.0567 107.925 24.3755 107.248 24.5437C106.505 24.7182 105.581 24.8009 104.462 24.8009H100.728ZM121.021 19.5685L118.593 14.934L116.045 19.5685H121.021ZM122.023 21.5048H115.033L113.216 24.8008H110.556L118.627 10.3144L126.429 24.8008H123.721L122.023 21.5048ZM128.043 24.8011V10.2454L139.941 20.6514V11.1917H142.406V25.6315L130.505 15.2608V24.8011H128.043ZM147.924 16.6251L154.283 11.192H157.563L150.189 17.3579L157.614 24.8007H154.313L148.437 18.7437L147.924 19.1691V24.8007H145.456V11.192H147.924V16.6251Z" fill="white"/>
</svg>
