<svg width="204" height="40" viewBox="0 0 204 40" fill="none" xmlns="http://www.w3.org/2000/svg">
<path d="M51.3805 21.4668V27.2286C51.7618 27.2658 52.1691 27.2881 52.6062 27.3105C53.0432 27.3253 53.4431 27.3365 53.8095 27.3365C54.5181 27.3365 55.1765 27.2881 55.7865 27.1989C56.3984 27.1077 56.9248 26.9496 57.3693 26.7227C57.8156 26.494 58.1727 26.189 58.4331 25.8096C58.7009 25.4246 58.8274 24.9336 58.8274 24.3347C58.8274 23.2616 58.4387 22.5139 57.6557 22.0954C56.8745 21.677 55.7921 21.4668 54.4102 21.4668H51.3805ZM51.3805 18.7663H53.8095C55.1207 18.7663 56.1492 18.5784 56.8913 18.2065C57.6389 17.8289 58.0128 17.1612 58.0128 16.1978C58.0128 15.2921 57.6259 14.643 56.8522 14.258C56.0748 13.8767 55.0742 13.6889 53.8355 13.6889C53.3073 13.6889 52.8368 13.6982 52.4332 13.7168C52.0203 13.7317 51.6688 13.7596 51.3805 13.7949V18.7663ZM53.7016 30.2044C52.701 30.2044 51.6856 30.1709 50.6701 30.1095C49.6509 30.0444 48.7563 29.9124 47.9956 29.7134V11.3418C48.3918 11.2674 48.8214 11.1985 49.2752 11.1335C49.7308 11.0739 50.1958 11.0219 50.6701 10.9847C51.1406 10.9493 51.613 10.9196 52.0743 10.9028C52.5374 10.8879 52.98 10.8768 53.3966 10.8768C54.5441 10.8768 55.6098 10.9623 56.5937 11.1335C57.5757 11.3083 58.4275 11.5966 59.1454 11.9964C59.8652 12.3944 60.4231 12.9226 60.8212 13.5792C61.2266 14.232 61.4219 15.0429 61.4219 16.0063C61.4219 16.8971 61.2117 17.6653 60.7858 18.3032C60.3543 18.9374 59.7555 19.447 58.9948 19.8301C60.1442 20.2114 60.9885 20.7749 61.5316 21.5226C62.0803 22.2684 62.3537 23.2132 62.3537 24.3607C62.3537 26.3099 61.6451 27.7698 60.226 28.7444C58.8051 29.7171 56.629 30.2044 53.7016 30.2044Z" fill="white"/>
<path d="M69.014 27.6637C70.0351 27.6637 70.8106 27.6098 71.3351 27.5019V23.8417C71.1566 23.7878 70.8906 23.7302 70.5428 23.6781C70.1987 23.6223 69.8175 23.5962 69.399 23.5962C69.0345 23.5962 68.6662 23.6223 68.2961 23.6781C67.9186 23.7302 67.5857 23.8343 67.2806 23.9812C66.9831 24.1207 66.7413 24.329 66.559 24.5913C66.3805 24.8554 66.2893 25.1883 66.2893 25.59C66.2893 26.373 66.5293 26.9124 67.024 27.2137C67.5187 27.5094 68.1789 27.6637 69.014 27.6637ZM68.7443 15.3515C69.8342 15.3515 70.753 15.4891 71.5006 15.7625C72.2464 16.0322 72.8397 16.4172 73.288 16.9082C73.7362 17.3992 74.0505 17.9962 74.2421 18.6974C74.4336 19.3967 74.5303 20.1667 74.5303 21.0036V29.6575C74.0189 29.7672 73.2508 29.8974 72.2241 30.0555C71.1919 30.2062 70.0351 30.2843 68.7443 30.2843C67.8869 30.2843 67.1058 30.2043 66.3953 30.0369C65.6867 29.877 65.0823 29.6129 64.582 29.2483C64.078 28.8819 63.6893 28.4133 63.4047 27.8274C63.122 27.2434 62.9844 26.5274 62.9844 25.6681C62.9844 24.8516 63.1406 24.1598 63.4624 23.5962C63.7804 23.0327 64.21 22.5715 64.7605 22.2181C65.3036 21.8629 65.936 21.6099 66.6539 21.4518C67.3755 21.2993 68.125 21.2194 68.9061 21.2194C69.2688 21.2194 69.6519 21.2435 70.0537 21.29C70.4535 21.3347 70.8795 21.4109 71.3351 21.5207V20.9757C71.3351 20.5944 71.2886 20.2299 71.2031 19.8821C71.1082 19.5399 70.9501 19.2349 70.7251 18.9689C70.4945 18.7048 70.195 18.5002 69.8231 18.3533C69.4492 18.212 68.9787 18.1357 68.4114 18.1357C67.6489 18.1357 66.9477 18.1934 66.3154 18.3012C65.6756 18.411 65.1585 18.5356 64.7605 18.6825L64.3476 16.0043C64.7661 15.863 65.3743 15.7161 66.1722 15.5691C66.9775 15.4259 67.8349 15.3515 68.7443 15.3515Z" fill="white"/>
<path d="M76.7979 16.1699C77.4321 15.9877 78.2578 15.8166 79.277 15.651C80.3 15.4892 81.4252 15.4074 82.6638 15.4074C83.8281 15.4074 84.7989 15.5636 85.5838 15.8835C86.3687 16.2016 86.988 16.6498 87.4567 17.2189C87.9235 17.7973 88.2471 18.4873 88.435 19.2982C88.6302 20.1072 88.7269 20.9944 88.7269 21.9597V29.9849H85.422V22.4767C85.422 21.7142 85.3736 21.0595 85.2695 20.5257C85.1691 19.9882 85.0072 19.5511 84.7785 19.2145C84.5516 18.8816 84.2466 18.6324 83.8523 18.478C83.458 18.3236 82.9819 18.2437 82.4165 18.2437C81.998 18.2437 81.5609 18.2716 81.109 18.3274C80.6515 18.3832 80.3148 18.4259 80.0991 18.4631V29.9849H76.7979" fill="white"/>
<path d="M93.5849 22.8059C93.5849 24.2622 93.929 25.4023 94.6209 26.2299C95.3127 27.0594 96.2668 27.4741 97.4869 27.4741C98.0151 27.4741 98.4671 27.4518 98.839 27.4053C99.2147 27.3588 99.5179 27.3105 99.7541 27.2528V19.062C99.4621 18.8649 99.0734 18.6789 98.5917 18.5059C98.1118 18.3348 97.5985 18.2437 97.0498 18.2437C95.8502 18.2437 94.9724 18.6566 94.4144 19.4749C93.8602 20.2951 93.5849 21.4036 93.5849 22.8059ZM103.057 29.546C102.399 29.7506 101.579 29.9291 100.589 30.0928C99.5941 30.2583 98.5526 30.3383 97.4609 30.3383C96.3319 30.3383 95.3239 30.1672 94.4312 29.8213C93.5366 29.4772 92.7796 28.9787 92.151 28.3334C91.5242 27.6899 91.0407 26.9069 90.7059 25.9862C90.3674 25.0675 90.1963 24.0334 90.1963 22.8877C90.1963 21.7588 90.3376 20.734 90.6222 19.8153C90.903 18.8983 91.3178 18.1098 91.8627 17.4551C92.4077 16.8004 93.0735 16.2946 93.8583 15.9375C94.6395 15.5841 95.5415 15.4074 96.5626 15.4074C97.2526 15.4074 97.8589 15.4911 98.3852 15.651C98.919 15.8166 99.3728 15.997 99.7541 16.1978V9.34614L103.057 8.8012" fill="white"/>
<path d="M105.483 29.9849V9.34613L108.788 8.79934V15.8724C109.151 15.7422 109.577 15.6324 110.059 15.5432C110.542 15.4539 111.015 15.4055 111.491 15.4055C112.636 15.4055 113.59 15.5636 114.346 15.8817C115.099 16.2016 115.707 16.6479 116.155 17.2189C116.613 17.7954 116.94 18.4836 117.13 19.2815C117.32 20.0831 117.418 20.9758 117.418 21.9597V29.9849H114.115V22.4767C114.115 21.7142 114.059 21.0595 113.964 20.5257C113.862 19.9882 113.7 19.5511 113.468 19.2145C113.245 18.8816 112.936 18.6324 112.555 18.478C112.173 18.3236 111.699 18.2437 111.137 18.2437C110.698 18.2437 110.252 18.292 109.798 18.3832C109.346 18.4724 109.006 18.5543 108.788 18.6268V29.9849" fill="white"/>
<path d="M124.625 27.6637C125.64 27.6637 126.414 27.6098 126.942 27.5019V23.8417C126.762 23.7878 126.496 23.7302 126.146 23.6781C125.806 23.6223 125.425 23.5962 125.006 23.5962C124.642 23.5962 124.273 23.6223 123.9 23.6781C123.526 23.7302 123.189 23.8343 122.89 23.9812C122.59 24.1207 122.35 24.329 122.164 24.5913C121.982 24.8554 121.895 25.1883 121.895 25.59C121.895 26.373 122.138 26.9124 122.627 27.2137C123.124 27.5094 123.784 27.6637 124.625 27.6637ZM124.348 15.3515C125.443 15.3515 126.356 15.4891 127.102 15.7625C127.854 16.0322 128.447 16.4172 128.895 16.9082C129.342 17.3992 129.656 17.9962 129.853 18.6974C130.045 19.3967 130.136 20.1667 130.136 21.0036V29.6575C129.628 29.7672 128.856 29.8974 127.831 30.0555C126.803 30.2062 125.64 30.2843 124.348 30.2843C123.492 30.2843 122.711 30.2043 122.001 30.0369C121.294 29.877 120.686 29.6129 120.184 29.2483C119.685 28.8819 119.291 28.4133 119.014 27.8274C118.729 27.2434 118.588 26.5274 118.588 25.6681C118.588 24.8516 118.748 24.1598 119.068 23.5962C119.386 23.0327 119.817 22.5715 120.364 22.2181C120.913 21.8629 121.543 21.6099 122.265 21.4518C122.983 21.2993 123.732 21.2194 124.513 21.2194C124.878 21.2194 125.259 21.2435 125.659 21.29C126.059 21.3347 126.485 21.4109 126.942 21.5207V20.9757C126.942 20.5944 126.896 20.2299 126.807 19.8821C126.712 19.5399 126.559 19.2349 126.325 18.9689C126.1 18.7048 125.802 18.5002 125.428 18.3533C125.055 18.212 124.586 18.1357 124.022 18.1357C123.256 18.1357 122.555 18.1934 121.919 18.3012C121.285 18.411 120.766 18.5356 120.364 18.6825L119.955 16.0043C120.371 15.863 120.98 15.7161 121.783 15.5691C122.585 15.4259 123.44 15.3515 124.348 15.3515Z" fill="white"/>
<path d="M132.399 16.1699C133.039 15.9877 133.864 15.8166 134.886 15.651C135.905 15.4892 137.032 15.4074 138.27 15.4074C139.435 15.4074 140.411 15.5636 141.19 15.8835C141.972 16.2016 142.597 16.6498 143.065 17.2189C143.526 17.7973 143.852 18.4873 144.047 19.2982C144.237 20.1072 144.33 20.9944 144.33 21.9597V29.9849H141.027V22.4767C141.027 21.7142 140.978 21.0595 140.878 20.5257C140.776 19.9882 140.614 19.5511 140.387 19.2145C140.16 18.8816 139.851 18.6324 139.457 18.478C139.068 18.3236 138.589 18.2437 138.029 18.2437C137.608 18.2437 137.166 18.2716 136.716 18.3274C136.26 18.3832 135.923 18.4259 135.704 18.4631V29.9849H132.399" fill="white"/>
<path d="M153.396 20.8939V28.3724C153.667 28.4133 154.076 28.4542 154.623 28.497C155.172 28.5416 155.724 28.5676 156.288 28.5676C157.125 28.5676 157.941 28.5081 158.734 28.4021C159.522 28.2905 160.221 28.0897 160.82 27.7977C161.425 27.5057 161.905 27.1039 162.265 26.5906C162.626 26.081 162.812 25.4226 162.812 24.6192C162.812 23.8901 162.686 23.2819 162.433 22.7965C162.178 22.3148 161.812 21.928 161.341 21.6471C160.865 21.3644 160.292 21.1673 159.608 21.0594C158.925 20.9497 158.164 20.8939 157.328 20.8939H153.396ZM153.396 19.3112H157C157.67 19.3112 158.31 19.2628 158.908 19.1624C159.511 19.0619 160.032 18.8815 160.48 18.6174C160.928 18.3552 161.278 18.0018 161.533 17.5573C161.786 17.1128 161.914 16.5455 161.914 15.8574C161.914 15.2418 161.776 14.721 161.501 14.2914C161.231 13.8692 160.843 13.5177 160.342 13.2443C159.844 12.9746 159.247 12.7793 158.553 12.664C157.863 12.5469 157.099 12.4836 156.262 12.4836C155.59 12.4836 155.018 12.5041 154.554 12.5413C154.09 12.5766 153.701 12.6213 153.396 12.6752V19.3112ZM156.07 30.1485C155.763 30.1485 155.406 30.1355 154.992 30.1095C154.581 30.0797 154.164 30.0425 153.74 29.9979C153.307 29.9514 152.901 29.8974 152.522 29.8342C152.144 29.7691 151.811 29.704 151.542 29.6278V11.4198C151.869 11.3305 152.232 11.2524 152.633 11.1892C153.029 11.1241 153.446 11.0739 153.877 11.0236C154.303 10.9809 154.72 10.9493 155.129 10.9288C155.536 10.9102 155.914 10.9028 156.262 10.9028C157.281 10.9028 158.248 10.9846 159.171 11.1464C160.089 11.3101 160.893 11.5835 161.588 11.9629C162.277 12.346 162.827 12.85 163.242 13.4787C163.645 14.1054 163.848 14.8828 163.848 15.809C163.848 16.8264 163.591 17.6949 163.074 18.4128C162.552 19.1252 161.856 19.6255 160.986 19.9007C161.533 20.0253 162.031 20.2076 162.489 20.4457C162.941 20.68 163.34 20.985 163.688 21.3607C164.034 21.7327 164.304 22.1865 164.494 22.7258C164.685 23.2633 164.776 23.905 164.776 24.6545C164.776 26.44 164.068 27.7995 162.652 28.7425C161.231 29.6798 159.037 30.1485 156.07 30.1485Z" fill="white"/>
<path d="M171.302 28.7016C171.998 28.7016 172.604 28.6793 173.119 28.6347C173.638 28.5919 174.079 28.5268 174.443 28.4561V23.4885C174.246 23.3992 173.924 23.3006 173.489 23.202C173.052 23.1016 172.448 23.0533 171.687 23.0533C171.25 23.0533 170.791 23.0812 170.32 23.1481C169.848 23.2095 169.411 23.349 169.011 23.5554C168.613 23.7656 168.283 24.0501 168.031 24.4147C167.772 24.7792 167.644 25.2646 167.644 25.8635C167.644 26.3917 167.731 26.8381 167.906 27.1989C168.079 27.5653 168.326 27.8573 168.642 28.0786C168.96 28.2943 169.342 28.4543 169.79 28.5491C170.233 28.6514 170.74 28.7016 171.302 28.7016ZM171.138 15.545C172.066 15.545 172.855 15.6752 173.502 15.9375C174.148 16.2034 174.67 16.5679 175.072 17.0311C175.472 17.4923 175.764 18.0447 175.942 18.6845C176.128 19.3205 176.214 20.0105 176.214 20.7582V29.6576C176.035 29.7134 175.773 29.7692 175.427 29.8343C175.081 29.8975 174.681 29.9682 174.224 30.037C173.768 30.1133 173.264 30.1709 172.712 30.2174C172.154 30.262 171.588 30.2862 171.003 30.2862C170.257 30.2862 169.569 30.2044 168.94 30.037C168.313 29.8771 167.766 29.6167 167.305 29.2633C166.842 28.9062 166.474 28.4543 166.213 27.8982C165.949 27.3402 165.815 26.6651 165.815 25.8635C165.815 25.0991 165.964 24.4444 166.256 23.8976C166.541 23.349 166.954 22.8989 167.484 22.5455C168.012 22.1903 168.641 21.928 169.366 21.7662C170.091 21.6063 170.884 21.5226 171.739 21.5226C171.998 21.5226 172.262 21.5338 172.546 21.5617C172.827 21.5914 173.1 21.6267 173.363 21.6714C173.631 21.7197 173.854 21.7625 174.049 21.809C174.239 21.8518 174.371 21.8946 174.443 21.928V21.0576C174.443 20.5666 174.408 20.0886 174.334 19.6255C174.265 19.1624 174.103 18.744 173.854 18.3683C173.612 17.9963 173.264 17.695 172.821 17.4663C172.371 17.2412 171.784 17.1296 171.06 17.1296C170.021 17.1296 169.247 17.1984 168.735 17.3435C168.228 17.4923 167.854 17.6095 167.619 17.7025L167.37 16.1439C167.683 15.997 168.161 15.8649 168.804 15.7347C169.451 15.6101 170.231 15.545 171.138 15.545Z" fill="white"/>
<path d="M178.974 16.3634C179.504 16.2183 180.216 16.0528 181.105 15.8724C181.996 15.6901 183.088 15.599 184.382 15.599C185.453 15.599 186.35 15.7533 187.068 16.0639C187.787 16.3727 188.36 16.8116 188.79 17.3863C189.214 17.961 189.523 18.6454 189.699 19.447C189.884 20.2486 189.978 21.132 189.978 22.0954V29.9849H188.202V22.6683C188.202 21.6677 188.133 20.8196 187.998 20.1314C187.86 19.4414 187.631 18.8723 187.313 18.4371C186.997 18.0019 186.577 17.6876 186.058 17.4923C185.539 17.3063 184.888 17.2059 184.107 17.2059C183.27 17.2059 182.546 17.2524 181.938 17.3435C181.33 17.4346 180.932 17.5165 180.748 17.5927V29.9849H178.974" fill="white"/>
<path d="M196.278 22.3C196.922 22.752 197.573 23.2783 198.231 23.8679C198.886 24.4612 199.531 25.1065 200.165 25.7947C200.805 26.4921 201.402 27.197 201.968 27.9261C202.529 28.6588 203.011 29.3433 203.407 29.9849H201.274C200.848 29.267 200.35 28.5659 199.786 27.874C199.224 27.1858 198.629 26.5312 198.01 25.923C197.394 25.3148 196.777 24.7587 196.152 24.2584C195.533 23.7563 194.982 23.3769 194.504 23.1258V29.9849H192.735V9.12667L194.504 8.79934V21.9485C194.887 21.623 195.356 21.1785 195.925 20.6168C196.496 20.057 197.069 19.4898 197.653 18.9244C198.248 18.3571 198.798 17.8047 199.323 17.2728C199.844 16.7409 200.284 16.2759 200.636 15.8724H202.805C202.392 16.3076 201.91 16.793 201.369 17.3268C200.826 17.8587 200.262 18.4148 199.676 18.9932C199.09 19.5697 198.512 20.1389 197.943 20.6968C197.374 21.2604 196.821 21.7941 196.278 22.3Z" fill="white"/>
<path d="M19.4152 0.0130348C8.65128 0.334759 0 9.14039 0 19.9805C0 31.0289 8.9544 39.9815 19.9898 39.9815C23.6478 39.9815 33.5804 38.4492 38.2594 28.1223C36.2528 28.9387 34.0602 29.3905 31.7635 29.3905C22.2326 29.3905 14.5316 23.2146 14.5186 13.6874C14.5093 8.79082 15.9896 4.85202 18.2566 1.94719C18.7159 1.3558 19.4728 0.528248 19.9898 9.53674e-05C19.9619 0.00195312 19.4431 0.0130348 19.4152 0.0130348Z" fill="url(#paint0_linear_300_2943)"/>
<mask id="mask0_300_2943" style="mask-type:luminance" maskUnits="userSpaceOnUse" x="1" y="0" width="39" height="40">
<path d="M1.74072 0H40.0001V40H1.74072V0Z" fill="white"/>
</mask>
<g mask="url(#mask0_300_2943)">
<path d="M21.7844 1.94709C24.7823 5.94914 25.4778 9.77445 25.4778 13.704C25.4778 23.2312 17.7564 29.4091 8.2329 29.4091C5.93618 29.4091 3.74919 28.9553 1.74072 28.1407C6.50896 38.7633 16.343 40 20.001 40C31.0438 40 40.0001 31.0456 40.0001 19.999C40.0001 9.15519 31.347 0.349537 20.5794 0.0278091C20.5515 0.0278091 20.0215 0.00186157 19.9898 0C20.5087 0.528152 21.3363 1.34269 21.7844 1.94709Z" fill="url(#paint1_linear_300_2943)"/>
<path d="M17.9296 2.38986C15.8317 5.28937 14.4982 9.07231 14.5168 13.6159C14.5354 18.6041 16.6649 22.7645 20.0145 25.5134C23.3437 22.7645 25.5476 18.684 25.4825 13.7052C25.4397 9.97806 25.0901 6.4927 21.8762 2.06439C21.3648 1.35764 20.4702 0.442595 20.0034 0.00180817C19.9494 0.00180817 18.748 1.25535 17.9296 2.38986Z" fill="white"/>
</g>
<defs>
<linearGradient id="paint0_linear_300_2943" x1="-0.0743869" y1="1.46181" x2="24.877" y2="31.5404" gradientUnits="userSpaceOnUse">
<stop stop-color="#EF3B23"/>
<stop offset="1" stop-color="#8B131E"/>
</linearGradient>
<linearGradient id="paint1_linear_300_2943" x1="0.225076" y1="19.9991" x2="33.7255" y2="19.9991" gradientUnits="userSpaceOnUse">
<stop stop-color="#B7212F"/>
<stop offset="1" stop-color="#EF3B23"/>
</linearGradient>
</defs>
</svg>
