<svg width="198" height="40" viewBox="0 0 198 40" fill="none" xmlns="http://www.w3.org/2000/svg">
<path d="M53.49 19.6846C54.5176 19.9217 55.2392 20.2136 55.6537 20.5534C56.2504 21.0391 56.547 21.6662 56.547 22.4369C56.547 23.2507 56.22 23.9245 55.5661 24.4558C54.7628 25.1015 53.5939 25.4226 52.062 25.4226H46.561V25.1283C47.0631 25.1283 47.4006 25.0816 47.5804 24.9871C47.7579 24.8936 47.8828 24.7745 47.9529 24.6239C48.0276 24.4745 48.0627 24.109 48.0627 23.524V16.5004C48.0627 15.9142 48.0276 15.5464 47.9529 15.3934C47.8828 15.2416 47.7544 15.1214 47.5746 15.0315C47.3948 14.938 47.0573 14.8948 46.561 14.8948V14.5983H51.749C52.9891 14.5983 53.8683 14.7103 54.3833 14.9299C54.9017 15.1506 55.3069 15.481 55.6047 15.9201C55.9036 16.3579 56.0507 16.8273 56.0507 17.3201C56.0507 17.8432 55.8627 18.3056 55.4844 18.7143C55.1084 19.1207 54.444 19.4453 53.49 19.6846ZM50.586 19.4675C51.3403 19.4675 51.8961 19.3822 52.2558 19.2129C52.6154 19.0424 52.891 18.8019 53.0837 18.4936C53.2752 18.1865 53.3698 17.7918 53.3698 17.3119C53.3698 16.8343 53.2752 16.4432 53.0872 16.1349C52.8992 15.829 52.6294 15.5978 52.278 15.4378C51.9265 15.2767 51.3625 15.1996 50.586 15.2054V19.4675ZM50.586 20.091V23.5625L50.5778 23.963C50.5778 24.2479 50.6479 24.4663 50.795 24.6134C50.9422 24.7582 51.1582 24.8318 51.4466 24.8318C51.8716 24.8318 52.264 24.7383 52.6236 24.548C52.9833 24.36 53.2588 24.0844 53.4492 23.726C53.643 23.3687 53.7376 22.9681 53.7376 22.5268C53.7376 22.02 53.6208 21.5646 53.3861 21.1641C53.1526 20.7636 52.8303 20.4833 52.4193 20.3222C52.0106 20.1622 51.3975 20.0852 50.586 20.091ZM61.7922 24.3215C60.8814 25.126 60.064 25.5265 59.3389 25.5265C58.9139 25.5265 58.5601 25.3876 58.2798 25.1062C57.9961 24.8294 57.8571 24.478 57.8571 24.0576C57.8571 23.4889 58.1 22.9763 58.5904 22.5209C59.0809 22.0667 60.1458 21.4607 61.7922 20.7064V19.9544C61.7922 19.3904 61.7618 19.0366 61.6988 18.8895C61.6392 18.7423 61.5225 18.6139 61.3532 18.5053C61.1815 18.3967 60.9912 18.3418 60.7787 18.3418C60.4319 18.3418 60.1458 18.4201 59.9227 18.573C59.7861 18.6688 59.7149 18.7809 59.7149 18.9081C59.7149 19.0202 59.792 19.1592 59.9391 19.325C60.1411 19.5539 60.2439 19.7746 60.2439 19.9871C60.2439 20.2486 60.1458 20.4693 59.9531 20.655C59.7569 20.8371 59.5024 20.9294 59.1894 20.9294C58.8543 20.9294 58.5741 20.8266 58.3476 20.6246C58.1222 20.4226 58.0066 20.1856 58.0066 19.9158C58.0066 19.5317 58.1596 19.1674 58.462 18.8182C58.7679 18.4691 59.1894 18.2029 59.7324 18.0149C60.2742 17.8292 60.8382 17.737 61.4244 17.737C62.132 17.737 62.6901 17.8864 63.1047 18.1865C63.5157 18.4889 63.7831 18.8124 63.9057 19.1639C63.9828 19.3881 64.0178 19.903 64.0178 20.7064V23.6022C64.0178 23.9432 64.0318 24.1592 64.0587 24.2456C64.0855 24.3332 64.124 24.3986 64.1789 24.4418C64.2303 24.4826 64.2922 24.5048 64.3611 24.5048C64.5 24.5048 64.6413 24.4067 64.7861 24.2106L65.0232 24.4009C64.7593 24.7967 64.4837 25.0816 64.1976 25.2591C63.9139 25.4366 63.5904 25.5265 63.2273 25.5265C62.8022 25.5265 62.4694 25.4249 62.2301 25.2264C61.9907 25.0279 61.8436 24.7255 61.7922 24.3215ZM61.7922 23.7388V21.2412C61.1488 21.6195 60.6689 22.0223 60.356 22.4532C60.1458 22.7416 60.0419 23.0312 60.0419 23.322C60.0419 23.5672 60.1294 23.7832 60.3069 23.9712C60.44 24.1148 60.6257 24.186 60.8651 24.186C61.1325 24.186 61.4407 24.0354 61.7922 23.7388ZM68.8952 17.96V18.9245C69.2793 18.5111 69.6471 18.2087 69.9986 18.0207C70.3501 17.8292 70.7261 17.737 71.1313 17.737C71.6135 17.737 72.0175 17.8701 72.3363 18.1398C72.6551 18.4072 72.8676 18.7423 72.9739 19.1393C73.0603 19.4453 73.1011 20.0279 73.1011 20.8897V23.7937C73.1011 24.3682 73.1537 24.7278 73.2564 24.8668C73.3604 25.0092 73.5787 25.098 73.908 25.1365V25.4226H70.1317V25.1365C70.4155 25.098 70.6163 24.9812 70.7389 24.7851C70.8242 24.6519 70.8674 24.3215 70.8674 23.7937V20.4752C70.8674 19.8621 70.8429 19.4756 70.7961 19.3168C70.7471 19.1569 70.6654 19.0343 70.5509 18.9467C70.4365 18.8568 70.3116 18.8124 70.1726 18.8124C69.7149 18.8124 69.2898 19.1393 68.8952 19.7967V23.7937C68.8952 24.3518 68.9465 24.7057 69.0505 24.8563C69.1567 25.0057 69.3471 25.098 69.6308 25.1365V25.4226H65.8545V25.1365C66.1675 25.1038 66.3905 25.0034 66.5248 24.8318C66.6147 24.715 66.6602 24.3682 66.6602 23.7937V19.5784C66.6602 19.0144 66.6089 18.6664 66.5049 18.5263C66.4022 18.3874 66.1838 18.2986 65.8545 18.2542V17.96H68.8952ZM77.9703 14.5983V21.7199L79.7032 20.0198C80.0605 19.6741 80.2835 19.4231 80.3711 19.2678C80.4587 19.1148 80.5019 18.9654 80.5019 18.8206C80.5019 18.6769 80.4446 18.5567 80.3279 18.4621C80.2099 18.3663 79.9811 18.2986 79.6401 18.2542V17.96H82.9832V18.2542C82.6644 18.2706 82.3877 18.3465 82.1471 18.4831C81.9077 18.6174 81.4383 19.0249 80.7412 19.7068L79.9274 20.5055L81.6847 23.0767C82.3923 24.1183 82.8127 24.7033 82.9458 24.8318C83.1256 25.0139 83.3545 25.1155 83.6324 25.1365V25.4226H79.7767V25.1365C79.946 25.1365 80.0687 25.1038 80.1469 25.0384C80.224 24.9754 80.2613 24.9077 80.2613 24.8318C80.2613 24.7092 80.1504 24.4826 79.9274 24.1533L78.4503 21.9896L77.9703 22.4614V23.8019C77.9703 24.3717 78.0252 24.7278 78.1315 24.8668C78.2377 25.0092 78.4561 25.098 78.7854 25.1365V25.4226H74.9297V25.1365C75.2438 25.1038 75.4668 25.0034 75.6 24.8318C75.6934 24.715 75.7366 24.3717 75.7366 23.8019V16.219C75.7366 15.655 75.684 15.3035 75.5813 15.1646C75.4774 15.0291 75.259 14.9357 74.9297 14.8948V14.5983H77.9703ZM91.6368 17.737C92.286 17.737 92.8909 17.9028 93.449 18.2379C94.0072 18.573 94.4322 19.0506 94.7218 19.6683C95.0126 20.2837 95.1574 20.9597 95.1574 21.6954C95.1574 22.7556 94.89 23.6407 94.3505 24.3518C93.7024 25.2159 92.8057 25.6456 91.6613 25.6456C90.5392 25.6456 89.6728 25.251 89.0679 24.4639C88.4607 23.6769 88.1583 22.7638 88.1583 21.7281C88.1583 20.6573 88.4689 19.7255 89.0866 18.9303C89.7078 18.1351 90.5579 17.737 91.6368 17.737ZM91.6695 18.3033C91.3974 18.3033 91.1662 18.4049 90.9724 18.6116C90.7762 18.8159 90.6478 19.2187 90.5882 19.8236C90.5252 20.4285 90.496 21.268 90.496 22.3411C90.496 22.9109 90.5334 23.4422 90.6069 23.9385C90.6665 24.3168 90.7926 24.6029 90.9829 24.7991C91.1744 24.9976 91.3916 25.0957 91.6368 25.0957C91.8774 25.0957 92.0759 25.0279 92.237 24.8972C92.4437 24.715 92.5826 24.4604 92.6504 24.137C92.7566 23.6326 92.8115 22.6108 92.8115 21.0718C92.8115 20.1669 92.7601 19.5457 92.6585 19.2082C92.5581 18.8696 92.4075 18.6244 92.2125 18.4691C92.0735 18.3582 91.8937 18.3033 91.6695 18.3033ZM99.563 18.7423V23.921C99.563 24.4231 99.6179 24.736 99.7241 24.8645C99.8923 25.0606 100.209 25.1505 100.666 25.1365V25.4226H96.2667V25.1365C96.6018 25.1307 96.8411 25.091 96.9836 25.0198C97.1214 24.9485 97.2206 24.8481 97.2744 24.7197C97.3257 24.5912 97.3538 24.3273 97.3538 23.921V18.7423H96.2667V17.96H97.3538V17.41L97.3456 17.034C97.3456 16.268 97.6258 15.6281 98.1875 15.1179C98.7491 14.6064 99.5081 14.353 100.464 14.353C101.122 14.353 101.606 14.4733 101.923 14.7174C102.238 14.9626 102.397 15.2358 102.397 15.5324C102.397 15.7729 102.299 15.9796 102.103 16.1571C101.907 16.3311 101.645 16.4187 101.32 16.4187C101.042 16.4187 100.824 16.3474 100.661 16.2026C100.501 16.0578 100.419 15.9002 100.419 15.7239C100.419 15.6772 100.435 15.5791 100.464 15.4296C100.487 15.3386 100.497 15.2545 100.497 15.1727C100.497 15.0618 100.464 14.9801 100.403 14.9252C100.317 14.8458 100.215 14.8073 100.092 14.8073C99.9367 14.8073 99.8082 14.8703 99.7043 14.9988C99.6015 15.126 99.5467 15.3316 99.5467 15.6118L99.563 17.0095V17.96H100.666V18.7423H99.563ZM113.061 21.7339L116 14.5983H120.406V14.8948H120.055C119.736 14.8948 119.48 14.9497 119.289 15.0618C119.155 15.1377 119.049 15.2627 118.967 15.4378C118.91 15.5651 118.88 15.8979 118.88 16.4338V23.5707C118.88 24.123 118.91 24.4698 118.967 24.6087C119.028 24.7477 119.147 24.8668 119.327 24.9707C119.51 25.077 119.75 25.1283 120.055 25.1283H120.406V25.4226H114.753V25.1283H115.104C115.426 25.1283 115.679 25.0711 115.873 24.9602C116.004 24.8855 116.112 24.7582 116.192 24.5749C116.249 24.4499 116.278 24.1148 116.278 23.5707V15.5487L112.13 25.4226H111.936L107.72 15.62V23.2437C107.72 23.775 107.734 24.1043 107.761 24.2269C107.829 24.4908 107.982 24.7092 108.213 24.875C108.446 25.0443 108.807 25.1283 109.304 25.1283V25.4226H105.599V25.1283H105.71C105.95 25.1342 106.173 25.0933 106.38 25.0116C106.588 24.9298 106.745 24.8177 106.852 24.6811C106.958 24.5422 107.04 24.3472 107.099 24.0985C107.11 24.0389 107.116 23.7692 107.116 23.2834V16.4338C107.116 15.8874 107.085 15.5464 107.028 15.4098C106.968 15.2743 106.848 15.1541 106.669 15.0501C106.486 14.9474 106.244 14.8948 105.942 14.8948H105.599V14.5983H110.021L113.061 21.7339ZM125.371 24.3215C124.46 25.126 123.643 25.5265 122.918 25.5265C122.493 25.5265 122.139 25.3876 121.859 25.1062C121.575 24.8294 121.436 24.478 121.436 24.0576C121.436 23.4889 121.679 22.9763 122.169 22.5209C122.66 22.0667 123.725 21.4607 125.371 20.7064V19.9544C125.371 19.3904 125.341 19.0366 125.278 18.8895C125.218 18.7423 125.101 18.6139 124.932 18.5053C124.76 18.3967 124.57 18.3418 124.357 18.3418C124.011 18.3418 123.725 18.4201 123.502 18.573C123.365 18.6688 123.294 18.7809 123.294 18.9081C123.294 19.0202 123.371 19.1592 123.518 19.325C123.72 19.5539 123.823 19.7746 123.823 19.9871C123.823 20.2486 123.725 20.4693 123.532 20.655C123.336 20.8371 123.081 20.9294 122.768 20.9294C122.433 20.9294 122.153 20.8266 121.926 20.6246C121.701 20.4226 121.585 20.1856 121.585 19.9158C121.585 19.5317 121.738 19.1674 122.041 18.8182C122.347 18.4691 122.768 18.2029 123.311 18.0149C123.853 17.8292 124.417 17.737 125.003 17.737C125.711 17.737 126.269 17.8864 126.683 18.1865C127.094 18.4889 127.362 18.8124 127.484 19.1639C127.562 19.3881 127.597 19.903 127.597 20.7064V23.6022C127.597 23.9432 127.611 24.1592 127.637 24.2456C127.664 24.3332 127.703 24.3986 127.758 24.4418C127.809 24.4826 127.871 24.5048 127.94 24.5048C128.079 24.5048 128.22 24.4067 128.365 24.2106L128.602 24.4009C128.338 24.7967 128.062 25.0816 127.776 25.2591C127.493 25.4366 127.169 25.5265 126.806 25.5265C126.381 25.5265 126.048 25.4249 125.809 25.2264C125.569 25.0279 125.422 24.7255 125.371 24.3215ZM125.371 23.7388V21.2412C124.728 21.6195 124.248 22.0223 123.935 22.4532C123.725 22.7416 123.621 23.0312 123.621 23.322C123.621 23.5672 123.708 23.7832 123.886 23.9712C124.019 24.1148 124.204 24.186 124.444 24.186C124.711 24.186 125.019 24.0354 125.371 23.7388ZM132.474 14.5983V18.9163C132.885 18.4866 133.259 18.1807 133.598 18.0044C133.939 17.8234 134.293 17.737 134.661 17.737C135.13 17.737 135.531 17.8701 135.863 18.1351C136.195 18.4014 136.416 18.7143 136.525 19.0716C136.634 19.4313 136.688 20.0361 136.688 20.8897V23.8019C136.688 24.3717 136.743 24.7278 136.849 24.8668C136.955 25.0092 137.17 25.098 137.495 25.1365V25.4226H133.71V25.1365C133.978 25.098 134.176 24.9917 134.31 24.8154C134.405 24.6788 134.454 24.3413 134.454 23.8019V20.4752C134.454 19.8563 134.43 19.4698 134.381 19.3122C134.334 19.1569 134.252 19.0343 134.138 18.9467C134.023 18.8568 133.896 18.8124 133.751 18.8124C133.539 18.8124 133.332 18.8871 133.13 19.0343C132.926 19.1779 132.707 19.4371 132.474 19.8014V23.8019C132.474 24.3355 132.515 24.6683 132.593 24.7991C132.695 24.9812 132.904 25.0933 133.218 25.1365V25.4226H129.433V25.1365C129.746 25.1038 129.969 25.0034 130.104 24.8318C130.193 24.715 130.239 24.3717 130.239 23.8019V16.219C130.239 15.655 130.188 15.3035 130.084 15.1646C129.981 15.0291 129.763 14.9357 129.433 14.8948V14.5983H132.474ZM142.636 24.3215C141.727 25.126 140.909 25.5265 140.184 25.5265C139.759 25.5265 139.405 25.3876 139.124 25.1062C138.841 24.8294 138.702 24.478 138.702 24.0576C138.702 23.4889 138.944 22.9763 139.436 22.5209C139.925 22.0667 140.991 21.4607 142.636 20.7064V19.9544C142.636 19.3904 142.606 19.0366 142.544 18.8895C142.484 18.7423 142.366 18.6139 142.198 18.5053C142.027 18.3967 141.835 18.3418 141.623 18.3418C141.277 18.3418 140.991 18.4201 140.768 18.573C140.631 18.6688 140.56 18.7809 140.56 18.9081C140.56 19.0202 140.637 19.1592 140.783 19.325C140.985 19.5539 141.089 19.7746 141.089 19.9871C141.089 20.2486 140.991 20.4693 140.797 20.655C140.601 20.8371 140.348 20.9294 140.035 20.9294C139.7 20.9294 139.418 20.8266 139.193 20.6246C138.966 20.4226 138.852 20.1856 138.852 19.9158C138.852 19.5317 139.005 19.1674 139.307 18.8182C139.612 18.4691 140.035 18.2029 140.576 18.0149C141.119 17.8292 141.683 17.737 142.268 17.737C142.977 17.737 143.535 17.8864 143.95 18.1865C144.361 18.4889 144.628 18.8124 144.751 19.1639C144.827 19.3881 144.863 19.903 144.863 20.7064V23.6022C144.863 23.9432 144.876 24.1592 144.903 24.2456C144.931 24.3332 144.969 24.3986 145.023 24.4418C145.075 24.4826 145.137 24.5048 145.205 24.5048C145.345 24.5048 145.487 24.4067 145.63 24.2106L145.867 24.4009C145.603 24.7967 145.329 25.0816 145.042 25.2591C144.759 25.4366 144.434 25.5265 144.072 25.5265C143.647 25.5265 143.315 25.4249 143.075 25.2264C142.836 25.0279 142.688 24.7255 142.636 24.3215ZM142.636 23.7388V21.2412C141.993 21.6195 141.514 22.0223 141.201 22.4532C140.991 22.7416 140.887 23.0312 140.887 23.322C140.887 23.5672 140.975 23.7832 141.152 23.9712C141.285 24.1148 141.471 24.186 141.71 24.186C141.978 24.186 142.285 24.0354 142.636 23.7388ZM149.788 17.96V19.652C150.284 18.8813 150.718 18.3687 151.088 18.1153C151.462 17.8619 151.821 17.737 152.167 17.737C152.465 17.737 152.704 17.8269 152.881 18.0114C153.061 18.1947 153.148 18.4539 153.148 18.7879C153.148 19.1452 153.064 19.4231 152.89 19.6193C152.718 19.8154 152.508 19.9158 152.263 19.9158C151.982 19.9158 151.737 19.8236 151.529 19.6438C151.32 19.4616 151.198 19.3612 151.161 19.3413C151.108 19.3087 151.047 19.2923 150.977 19.2923C150.824 19.2923 150.677 19.3495 150.538 19.4675C150.32 19.6496 150.156 19.9077 150.045 20.244C149.873 20.7589 149.788 21.3276 149.788 21.9523V23.6653L149.796 24.1148C149.796 24.4172 149.816 24.6111 149.851 24.6951C149.917 24.8399 150.009 24.9462 150.135 25.0116C150.26 25.0793 150.472 25.1202 150.769 25.1365V25.4226H146.739V25.1365C147.064 25.1097 147.282 25.0198 147.397 24.8668C147.511 24.7173 147.568 24.3168 147.568 23.6653V19.5399C147.568 19.1148 147.549 18.8428 147.505 18.726C147.451 18.5754 147.375 18.4668 147.274 18.399C147.173 18.3278 146.993 18.2811 146.739 18.2542V17.96H149.788ZM158.066 24.3215C157.155 25.126 156.339 25.5265 155.614 25.5265C155.189 25.5265 154.834 25.3876 154.554 25.1062C154.27 24.8294 154.132 24.478 154.132 24.0576C154.132 23.4889 154.374 22.9763 154.864 22.5209C155.355 22.0667 156.421 21.4607 158.066 20.7064V19.9544C158.066 19.3904 158.036 19.0366 157.974 18.8895C157.913 18.7423 157.796 18.6139 157.627 18.5053C157.455 18.3967 157.265 18.3418 157.052 18.3418C156.706 18.3418 156.421 18.4201 156.196 18.573C156.06 18.6688 155.99 18.7809 155.99 18.9081C155.99 19.0202 156.066 19.1592 156.213 19.325C156.415 19.5539 156.518 19.7746 156.518 19.9871C156.518 20.2486 156.421 20.4693 156.227 20.655C156.031 20.8371 155.777 20.9294 155.464 20.9294C155.128 20.9294 154.848 20.8266 154.621 20.6246C154.396 20.4226 154.281 20.1856 154.281 19.9158C154.281 19.5317 154.433 19.1674 154.737 18.8182C155.042 18.4691 155.464 18.2029 156.006 18.0149C156.548 17.8292 157.112 17.737 157.698 17.737C158.407 17.737 158.965 17.8864 159.378 18.1865C159.791 18.4889 160.058 18.8124 160.179 19.1639C160.256 19.3881 160.291 19.903 160.291 20.7064V23.6022C160.291 23.9432 160.305 24.1592 160.332 24.2456C160.36 24.3332 160.398 24.3986 160.453 24.4418C160.504 24.4826 160.567 24.5048 160.635 24.5048C160.774 24.5048 160.916 24.4067 161.06 24.2106L161.297 24.4009C161.033 24.7967 160.757 25.0816 160.471 25.2591C160.189 25.4366 159.864 25.5265 159.502 25.5265C159.077 25.5265 158.744 25.4249 158.505 25.2264C158.264 25.0279 158.117 24.7255 158.066 24.3215ZM158.066 23.7388V21.2412C157.422 21.6195 156.943 22.0223 156.63 22.4532C156.421 22.7416 156.317 23.0312 156.317 23.322C156.317 23.5672 156.404 23.7832 156.581 23.9712C156.715 24.1148 156.899 24.186 157.14 24.186C157.406 24.186 157.714 24.0354 158.066 23.7388ZM166.839 17.7533L166.959 20.2977H166.687C166.362 19.5434 166.025 19.0249 165.676 18.7505C165.326 18.4726 164.981 18.3336 164.635 18.3336C164.417 18.3336 164.231 18.4072 164.076 18.5543C163.921 18.7015 163.845 18.8696 163.845 19.0611C163.845 19.2059 163.9 19.3449 164.006 19.4756C164.174 19.6928 164.652 20.0688 165.433 20.5978C166.215 21.1267 166.73 21.5763 166.979 21.9464C167.226 22.3166 167.349 22.7311 167.349 23.1888C167.349 23.6022 167.245 24.0085 167.038 24.4091C166.83 24.8072 166.536 25.1155 166.16 25.328C165.782 25.5405 165.365 25.6456 164.907 25.6456C164.55 25.6456 164.074 25.5347 163.477 25.3117C163.319 25.251 163.209 25.2241 163.15 25.2241C162.976 25.2241 162.829 25.3572 162.711 25.6223H162.447L162.319 22.9413H162.592C162.831 23.6442 163.16 24.1697 163.577 24.5212C163.994 24.8726 164.39 25.0466 164.762 25.0466C165.019 25.0466 165.226 24.9672 165.39 24.8119C165.551 24.6543 165.632 24.4639 165.632 24.2409C165.632 23.9864 165.553 23.7657 165.392 23.5777C165.234 23.3932 164.877 23.1094 164.325 22.7334C163.51 22.1695 162.984 21.7363 162.744 21.4397C162.392 21.0041 162.216 20.5219 162.216 19.9952C162.216 19.4208 162.414 18.9 162.812 18.4341C163.207 17.9682 163.782 17.737 164.531 17.737C164.934 17.737 165.326 17.835 165.706 18.0312C165.847 18.1106 165.964 18.1503 166.054 18.1503C166.152 18.1503 166.229 18.1316 166.286 18.0908C166.346 18.0499 166.438 17.939 166.567 17.7533H166.839ZM171.532 14.5983V18.9163C171.943 18.4866 172.315 18.1807 172.656 18.0044C172.997 17.8234 173.351 17.737 173.719 17.737C174.188 17.737 174.588 17.8701 174.92 18.1351C175.253 18.4014 175.474 18.7143 175.582 19.0716C175.691 19.4313 175.746 20.0361 175.746 20.8897V23.8019C175.746 24.3717 175.801 24.7278 175.907 24.8668C176.013 25.0092 176.228 25.098 176.553 25.1365V25.4226H172.768V25.1365C173.035 25.098 173.234 24.9917 173.367 24.8154C173.463 24.6788 173.512 24.3413 173.512 23.8019V20.4752C173.512 19.8563 173.487 19.4698 173.438 19.3122C173.392 19.1569 173.31 19.0343 173.195 18.9467C173.081 18.8568 172.954 18.8124 172.809 18.8124C172.596 18.8124 172.39 18.8871 172.188 19.0343C171.983 19.1779 171.765 19.4371 171.532 19.8014V23.8019C171.532 24.3355 171.571 24.6683 171.651 24.7991C171.752 24.9812 171.961 25.0933 172.275 25.1365V25.4226H168.49V25.1365C168.804 25.1038 169.027 25.0034 169.16 24.8318C169.25 24.715 169.297 24.3717 169.297 23.8019V16.219C169.297 15.655 169.245 15.3035 169.141 15.1646C169.039 15.0291 168.82 14.9357 168.49 14.8948V14.5983H171.532ZM180.535 15.23V17.96H182.307V18.7505H180.535V23.3547C180.535 23.7855 180.555 24.0634 180.596 24.1884C180.637 24.3145 180.707 24.4149 180.809 24.4943C180.909 24.5702 181.001 24.6087 181.087 24.6087C181.432 24.6087 181.759 24.3437 182.07 23.8182L182.307 23.9957C181.876 25.0174 181.177 25.5265 180.209 25.5265C179.734 25.5265 179.334 25.3957 179.007 25.1307C178.68 24.8668 178.471 24.5725 178.381 24.2479C178.329 24.0693 178.302 23.5777 178.302 22.7802V18.7505H177.327V18.4691C177.997 17.995 178.569 17.4999 179.04 16.9768C179.511 16.456 179.92 15.8734 180.272 15.23H180.535ZM186.116 17.96V19.652C186.612 18.8813 187.045 18.3687 187.415 18.1153C187.789 17.8619 188.149 17.737 188.494 17.737C188.791 17.737 189.031 17.8269 189.209 18.0114C189.388 18.1947 189.475 18.4539 189.475 18.7879C189.475 19.1452 189.391 19.4231 189.216 19.6193C189.045 19.8154 188.835 19.9158 188.59 19.9158C188.309 19.9158 188.065 19.8236 187.857 19.6438C187.647 19.4616 187.525 19.3612 187.489 19.3413C187.434 19.3087 187.375 19.2923 187.304 19.2923C187.152 19.2923 187.004 19.3495 186.865 19.4675C186.647 19.6496 186.484 19.9077 186.373 20.244C186.2 20.7589 186.116 21.3276 186.116 21.9523V23.6653L186.124 24.1148C186.124 24.4172 186.143 24.6111 186.179 24.6951C186.244 24.8399 186.336 24.9462 186.461 25.0116C186.588 25.0793 186.8 25.1202 187.097 25.1365V25.4226H183.067V25.1365C183.392 25.1097 183.609 25.0198 183.724 24.8668C183.838 24.7173 183.895 24.3168 183.895 23.6653V19.5399C183.895 19.1148 183.876 18.8428 183.833 18.726C183.778 18.5754 183.702 18.4668 183.601 18.399C183.5 18.3278 183.32 18.2811 183.067 18.2542V17.96H186.116ZM194.393 24.3215C193.483 25.126 192.665 25.5265 191.941 25.5265C191.516 25.5265 191.161 25.3876 190.881 25.1062C190.597 24.8294 190.458 24.478 190.458 24.0576C190.458 23.4889 190.701 22.9763 191.192 22.5209C191.682 22.0667 192.747 21.4607 194.393 20.7064V19.9544C194.393 19.3904 194.363 19.0366 194.3 18.8895C194.24 18.7423 194.124 18.6139 193.954 18.5053C193.783 18.3967 193.592 18.3418 193.38 18.3418C193.033 18.3418 192.747 18.4201 192.524 18.573C192.387 18.6688 192.317 18.7809 192.317 18.9081C192.317 19.0202 192.393 19.1592 192.54 19.325C192.742 19.5539 192.845 19.7746 192.845 19.9871C192.845 20.2486 192.747 20.4693 192.554 20.655C192.358 20.8371 192.105 20.9294 191.791 20.9294C191.456 20.9294 191.175 20.8266 190.949 20.6246C190.723 20.4226 190.609 20.1856 190.609 19.9158C190.609 19.5317 190.761 19.1674 191.063 18.8182C191.369 18.4691 191.791 18.2029 192.334 18.0149C192.875 17.8292 193.439 17.737 194.026 17.737C194.733 17.737 195.293 17.8864 195.706 18.1865C196.118 18.4889 196.384 18.8124 196.507 19.1639C196.584 19.3881 196.619 19.903 196.619 20.7064V23.6022C196.619 23.9432 196.633 24.1592 196.66 24.2456C196.687 24.3332 196.725 24.3986 196.78 24.4418C196.832 24.4826 196.895 24.5048 196.962 24.5048C197.101 24.5048 197.243 24.4067 197.387 24.2106L197.624 24.4009C197.361 24.7967 197.085 25.0816 196.799 25.2591C196.515 25.4366 196.192 25.5265 195.829 25.5265C195.403 25.5265 195.072 25.4249 194.831 25.2264C194.592 25.0279 194.445 24.7255 194.393 24.3215ZM194.393 23.7388V21.2412C193.75 21.6195 193.27 22.0223 192.957 22.4532C192.747 22.7416 192.644 23.0312 192.644 23.322C192.644 23.5672 192.731 23.7832 192.908 23.9712C193.041 24.1148 193.227 24.186 193.466 24.186C193.734 24.186 194.042 24.0354 194.393 23.7388Z" fill="white"/>
<path fill-rule="evenodd" clip-rule="evenodd" d="M19.9999 0.000102997C31.045 0.000102997 39.9999 8.95384 39.9999 20.0001C39.9999 31.0451 31.045 40 19.9999 40C8.95374 40 0 31.0451 0 20.0001C0 8.95384 8.95374 0.000102997 19.9999 0.000102997Z" fill="white"/>
<path fill-rule="evenodd" clip-rule="evenodd" d="M35.6174 7.5607C38.3731 10.9528 39.9997 15.3339 39.9997 19.9976C39.9997 24.7325 38.3731 29.0448 35.6174 32.4357V31.5179C38.0205 28.2671 39.4334 24.3098 39.4334 19.9976C39.4334 15.6877 38.0205 11.7305 35.6174 8.47966V7.5607ZM35.6174 26.9943L35.8299 27.1356L36.4663 26.7841L35.6174 26.4303V26.9943ZM35.6174 25.2989C36.1826 25.3689 36.9602 24.8038 37.0303 23.956L36.5364 24.0261C36.3239 24.5212 36.0413 24.875 35.6174 24.7325V25.2989ZM35.6174 23.531L35.6886 23.4609L35.8299 23.6723L36.3239 23.2484C35.6174 22.1882 35.6886 21.2704 36.1113 21.2003C36.6076 21.1291 36.9602 21.9068 36.889 22.6833L37.4553 22.3306C37.2428 21.4117 36.7489 20.8465 36.0413 20.8465C35.9 20.8465 35.7587 20.9166 35.6174 20.989V23.531ZM35.6174 19.9976H37.2428L37.5966 19.4336H35.6174V19.9976ZM35.6174 17.6669H36.6777L36.9602 17.0305L35.6174 17.1006V17.6669ZM35.6174 16.3229H36.6777L36.9602 15.7578H35.6174V16.3229ZM32.3666 4.30989C33.5681 5.29891 34.6284 6.35916 35.6174 7.5607V8.47966C34.6985 7.20689 33.5681 6.07658 32.3666 5.0864V4.30989ZM35.6174 32.4357C34.6284 33.6372 33.5681 34.7687 32.3666 35.6877V34.9801C33.5681 33.9198 34.6985 32.7895 35.6174 31.5179V32.4357ZM35.6174 15.7578V16.3229H34.3447L34.6985 15.7578H35.6174ZM35.6174 17.1006V17.6669H34.2746L34.6985 17.1006H35.6174ZM35.6174 19.4336V19.9976H34.911C34.911 20.5639 34.8397 21.1291 34.7697 21.6242H35.2636C35.2636 21.3416 35.4049 21.1291 35.6174 20.989V23.531C35.2636 24.0973 35.1936 24.5212 35.5462 24.7325H35.6174V25.2989C35.3348 25.2276 35.1223 25.0863 34.9822 24.7325C34.6985 24.0973 34.9822 23.3897 35.4761 22.7545L35.3348 22.1882H34.6985C34.5572 23.3897 34.2045 24.5212 33.7807 25.6527L35.6174 26.4303V26.9943L33.5681 26.1478C33.428 26.4303 33.2856 26.7841 33.0731 27.0656C33.992 26.853 35.4049 27.2769 35.0523 28.8322C34.911 29.5387 34.0621 30.105 33.4981 29.8224C32.6492 29.4686 32.7204 28.5497 33.5681 27.9833C33.6382 28.1258 33.7106 28.2671 33.8496 28.4084C33.2856 28.8322 33.2143 29.4686 33.7807 29.3262C34.2045 29.2561 34.911 28.4084 34.0621 27.6307C33.7807 27.3481 33.2143 27.4182 32.7905 27.5606C32.6492 27.8432 32.5079 28.0546 32.3666 28.2671V27.7019C33.7807 25.4401 34.5572 22.8246 34.4871 19.9976C34.4871 19.645 34.4871 19.2923 34.4159 18.8673H34.8397C34.8397 19.0798 34.8397 19.2923 34.8397 19.4336H35.6174ZM32.3666 33.6372H32.7192V33.1421H32.3666V33.6372ZM32.3666 31.1629V30.3164C32.5791 30.3164 32.7905 30.4577 32.7905 30.7391C32.7905 30.9516 32.5791 31.1629 32.3666 31.1629ZM32.3666 24.3098C32.8617 22.967 33.0731 21.4817 33.0731 19.9976C33.0731 18.5147 32.8617 17.0305 32.3666 15.6877V18.0908C32.4367 18.7272 32.5079 19.3624 32.5079 19.9976C32.5079 20.634 32.4367 21.3416 32.3666 21.9068V24.3098ZM32.3666 14.6275V14.0623C32.4367 14.4862 32.8617 14.6275 33.6382 14.6275V14.91C33.0731 14.9813 32.6492 14.84 32.3666 14.6275ZM32.3666 13.8498V12.2956L33.9208 9.60997L32.3666 9.89255V9.53991L35.1936 9.04481L32.6492 13.1434C32.5079 13.4271 32.3666 13.6385 32.3666 13.8498ZM32.3666 6.99437L32.7905 6.14664C32.6492 6.21787 32.5079 6.28793 32.3666 6.28793V6.99437ZM27.9154 1.62424C29.4684 2.33068 31.025 3.24964 32.3666 4.30989V5.0864C31.025 3.95609 29.4684 3.03829 27.9154 2.26062V1.62424ZM32.3666 35.6877C31.025 36.7467 29.4684 37.6657 27.9154 38.3722V37.7369C29.4684 37.0293 31.025 36.0403 32.3666 34.9801V35.6877ZM32.3666 6.28793V6.99437L31.025 9.75126L32.3666 9.53991V9.89255L30.0348 10.2452L31.5889 6.92432C30.5287 7.48947 29.1158 8.05462 27.9154 8.12585V7.77205C29.3283 7.70199 30.9537 6.92432 32.3666 6.28793ZM32.3666 12.2956V13.8498C32.3666 13.921 32.3666 13.9911 32.3666 14.0623V14.6275C31.8026 14.2036 31.6602 13.496 32.014 12.8608L32.3666 12.2956ZM32.3666 15.6877C31.5189 13.2146 29.8935 11.0941 27.9154 9.60997V10.3164C30.2473 12.2244 31.8715 14.9813 32.3666 18.0908V15.6877ZM32.3666 21.9068V24.3098C31.5189 26.7841 29.8935 28.9023 27.9154 30.4576V29.68C30.2473 27.772 31.8715 25.0151 32.3666 21.9068ZM32.3666 27.7019C31.2363 29.4686 29.681 31.0228 27.9154 32.1531V32.577C28.762 32.0831 29.5408 31.4478 30.2473 30.8103L30.5999 31.3054C29.5408 31.7304 28.9745 32.577 29.5408 33.0721C29.8222 33.2846 30.6711 32.9308 31.025 32.577C31.3776 32.1531 31.8026 32.3656 31.5189 32.7895C31.2363 33.2145 30.8124 33.4259 30.2473 33.5672V33.8486L31.025 33.7085L30.8124 34.2036L31.2363 34.2736L31.4476 33.7785L32.3666 33.6372V33.1421H31.8715C32.2966 32.6482 32.4367 32.0831 31.9416 31.7993C31.4476 31.4478 31.025 31.9418 30.5999 32.3656C30.106 32.8596 29.8222 32.2944 30.1761 32.0831C30.5287 31.7993 30.9537 31.5179 31.3075 31.2353L30.6711 30.3864C31.3075 29.7512 31.8715 29.0448 32.3666 28.2671V27.7019ZM32.3666 30.3164C32.084 30.3164 31.9416 30.4577 31.9416 30.7391C31.9416 30.9516 32.084 31.1629 32.3666 31.1629V30.3164ZM27.9154 34.4137L28.3393 35.3339H28.9745L27.9154 33.2145V34.4137ZM27.9154 26.9943V26.5004H29.0457V14.0623H27.9154V13.496H29.5408V26.9943H27.9154ZM27.9154 25.4401C28.1268 25.2276 28.2681 24.9462 28.2681 24.6625C28.2681 24.3787 28.1268 24.0973 27.9154 23.956V25.4401ZM27.9154 23.7435C27.9843 23.6723 28.1268 23.4609 28.1268 23.1784C28.1268 22.967 28.0567 22.7545 27.9154 22.5431V23.7435ZM27.9154 20.634V16.5366H28.1268L28.4794 17.2419H27.9843V20.7052L27.9154 20.634ZM27.9154 16.1116V15.1926C28.1268 15.1926 28.3393 15.4051 28.3393 15.6877C28.3393 15.8991 28.1268 16.1116 27.9154 16.1116ZM26.7139 1.20037C27.0677 1.34166 27.4904 1.48295 27.9154 1.62424V2.26062C27.4904 2.11933 27.0677 1.97688 26.7139 1.76669V1.20037ZM27.9154 38.3722C27.4904 38.5146 27.0677 38.6547 26.7139 38.8673V38.2309C27.0677 38.0907 27.4904 37.8782 27.9154 37.7369V38.3722ZM27.9154 7.77205V8.12585C27.4192 8.12585 27.0677 8.12585 26.7139 7.98457V7.63193C27.0677 7.77205 27.4904 7.77205 27.9154 7.77205ZM27.9154 9.60997V10.3164C27.4904 10.0338 27.1378 9.75126 26.7139 9.46868V8.76224C27.0677 9.04481 27.4904 9.25616 27.9154 9.60997ZM26.7139 13.496H27.9154V14.0623H26.7139V13.496ZM27.9154 15.1926V16.1116C27.6317 16.1116 27.4192 15.8991 27.4192 15.6877C27.4192 15.4051 27.6317 15.1926 27.9154 15.1926ZM27.9154 16.5366H27.7029C27.2779 16.1828 27.0677 15.6877 26.7139 15.2639V15.8278C26.8552 16.0415 27.0677 16.3229 27.2779 16.5366H27.0677C26.9252 16.3942 26.784 16.3229 26.7139 16.1828V17.3131H27.2779V18.1609C27.1378 17.9495 26.9252 17.8082 26.7139 17.737V18.1609C26.9252 18.1609 27.1378 18.2321 27.2078 18.3734C27.2078 18.3734 27.2078 18.3734 27.2779 18.3734V18.7272C27.2078 18.7972 27.0677 18.9385 26.9252 19.0086L26.7139 18.656V19.645C26.9252 19.5737 27.1378 19.4336 27.2779 19.2923V20.2814L27.9154 20.634V16.5366ZM27.9154 22.5431V23.7435C27.8442 23.8147 27.773 23.8147 27.7029 23.8848C27.773 23.8848 27.8442 23.8848 27.9154 23.956V25.4401C27.7029 25.6527 27.4904 25.7227 26.8552 25.7227H26.7139V25.1576H26.9965C27.3503 25.1576 27.4904 24.9462 27.4904 24.5924C27.4904 24.3098 27.2779 24.1674 26.9965 24.1674H26.7139V23.6022H26.9252C27.2078 23.6022 27.4192 23.531 27.4192 23.2484C27.4192 22.967 27.2078 22.8958 26.9252 22.8958H26.7139V22.2594H27.0677C27.4904 22.2594 27.7029 22.4007 27.9154 22.5431ZM26.7139 26.5004H27.9154V26.9943H26.7139V26.5004ZM27.9154 29.68V30.4576C27.4904 30.7391 27.0677 31.0228 26.7139 31.2353V30.5289C27.1378 30.3164 27.4904 30.0338 27.9154 29.68ZM27.9154 32.1531V32.577C27.773 32.6482 27.7029 32.7194 27.6317 32.7194L27.9154 33.2145V34.4137L27.7029 34.1323L26.7139 34.6274V34.0623L27.4904 33.6372L27.1378 33.0721C26.9965 33.1421 26.8552 33.2145 26.7139 33.2846V32.8596C27.0677 32.6482 27.4904 32.4357 27.9154 32.1531ZM26.4313 1.05908C26.5014 1.13031 26.5714 1.13031 26.7139 1.20037V1.76669C26.5714 1.76669 26.5014 1.76669 26.4313 1.69547V1.05908ZM26.7139 38.8673C26.5714 38.8673 26.5014 38.8672 26.4313 38.9373V38.3021C26.5014 38.3021 26.5714 38.2309 26.7139 38.2309V38.8673ZM26.7139 7.63193V7.98457C26.5714 7.98457 26.5014 7.91334 26.4313 7.91334V7.5607C26.5014 7.5607 26.5714 7.63193 26.7139 7.63193ZM26.7139 8.76224V9.46868C26.6427 9.39745 26.5014 9.32739 26.4313 9.32739V8.62095C26.5014 8.69101 26.5714 8.69101 26.7139 8.76224ZM26.4313 13.496H26.7139V14.0623H26.4313V13.496ZM26.7139 15.2639V15.8278C26.6427 15.6877 26.5014 15.6177 26.4313 15.5464V15.0513C26.5014 15.1226 26.6427 15.1926 26.7139 15.2639ZM26.7139 16.1828V17.3131H26.4313V16.5366V15.9703C26.5014 16.0415 26.5714 16.1116 26.7139 16.1828ZM26.7139 17.737V18.1609C26.6427 18.1609 26.5014 18.2321 26.4313 18.2321V17.737C26.5014 17.737 26.6427 17.737 26.7139 17.737ZM26.7139 18.656V19.645C26.6427 19.645 26.5014 19.645 26.4313 19.645V19.151H26.5014L26.4313 19.0798V18.3021L26.7139 18.656ZM26.4313 22.2594H26.7139V22.8958H26.4313V22.2594ZM26.4313 23.6022H26.7139V24.1674H26.4313V23.6022ZM26.4313 25.1576H26.7139V25.7227H26.4313V25.1576ZM26.4313 26.5004H26.7139V26.9943H26.4313V26.5004ZM26.7139 30.5289V31.2353C26.5714 31.3054 26.5014 31.3054 26.4313 31.3766V30.669C26.5014 30.669 26.6427 30.5989 26.7139 30.5289ZM26.7139 32.8596V33.2846C26.6427 33.3547 26.5014 33.3547 26.4313 33.4259V33.002C26.5014 32.9308 26.6427 32.9308 26.7139 32.8596ZM26.7139 34.0623V34.6274L26.5714 34.6975C26.7139 35.2638 26.6427 35.7566 26.4313 36.1115V34.1323L26.7139 34.0623ZM26.0763 0.989021C26.2188 0.989021 26.3613 1.05908 26.4313 1.05908V1.69547C26.3613 1.69547 26.2188 1.62424 26.0763 1.62424V0.989021ZM26.4313 38.9373C26.3613 38.9373 26.2188 39.0085 26.0763 39.0085V38.4434C26.2188 38.3722 26.3613 38.3722 26.4313 38.3021V38.9373ZM26.4313 7.5607V7.91334C26.2889 7.84444 26.2188 7.77205 26.0763 7.70199V7.41941C26.2188 7.48947 26.3613 7.48947 26.4313 7.5607ZM26.4313 8.62095V9.32739C26.3613 9.25616 26.2188 9.1861 26.0763 9.11487V8.40843C26.2188 8.47966 26.3613 8.54972 26.4313 8.62095ZM26.0763 13.496H26.4313V14.0623H26.0763V13.496ZM26.4313 15.0513V15.5464C26.3613 15.4051 26.2889 15.3339 26.2188 15.2639C26.1476 15.2639 26.1476 15.1926 26.0763 15.1926V14.7676C26.1476 14.7676 26.1476 14.84 26.1476 14.84C26.2889 14.91 26.3613 14.9813 26.4313 15.0513ZM26.4313 15.9703V16.5366L26.0763 16.2529V15.7578C26.2188 15.8278 26.3613 15.8991 26.4313 15.9703ZM26.0763 16.5366H26.4313V17.3131L26.0763 17.3143V16.5366ZM26.4313 17.737V19.0798L26.0763 18.5847V17.737C26.1476 17.737 26.2188 17.737 26.2889 17.737C26.3613 17.737 26.3613 17.737 26.4313 17.737ZM26.4313 19.151V19.645C26.2889 19.645 26.2188 19.645 26.0763 19.5737V19.151C26.2188 19.151 26.2889 19.151 26.4313 19.151ZM26.0763 22.2594H26.4313V22.8958H26.0763V22.2594ZM26.0763 23.6022H26.4313V24.1674H26.0763V23.6022ZM26.0763 25.1576H26.4313V25.7227H26.0763V25.1576ZM26.0763 26.5004H26.4313V26.9943H26.0763V26.5004ZM26.4313 30.669V31.3766C26.3613 31.4478 26.2188 31.5179 26.0763 31.588V30.8815C26.2188 30.8103 26.3613 30.7391 26.4313 30.669ZM26.4313 33.002V33.4259C26.3613 33.4259 26.2188 33.4959 26.0763 33.5672V33.1421C26.2188 33.0721 26.3613 33.002 26.4313 33.002ZM26.4313 34.1323V36.1115C26.3613 36.2528 26.2188 36.3941 26.0763 36.4642V33.7085L26.2889 34.2036L26.4313 34.1323ZM25.5824 0.846565C25.7237 0.846565 25.9362 0.917793 26.0763 0.989021V1.62424C25.9362 1.55301 25.7237 1.48295 25.5824 1.41289V0.846565ZM26.0763 39.0085C25.9362 39.0798 25.7237 39.1498 25.5824 39.2211V38.5847C25.7237 38.5146 25.9362 38.5146 26.0763 38.4434V39.0085ZM26.0763 7.41941V7.70199C26.0763 7.70199 26.0763 7.70199 26.0763 7.63193V7.34818C26.0763 7.34818 26.0763 7.34818 26.0763 7.41941ZM26.0763 8.40843V9.11487C25.9362 8.97475 25.7237 8.90353 25.5824 8.8323V8.19708C25.7237 8.26714 25.9362 8.33837 26.0763 8.40843ZM25.5824 13.496H26.0763V14.0623H25.5824V13.496ZM26.0763 14.7676V15.1926C25.9362 15.1226 25.7938 15.0513 25.6536 15.0513H25.5824V14.5574C25.7237 14.6275 25.9362 14.6987 26.0763 14.7676ZM26.0763 15.7578V16.2529L25.6536 15.9703H25.5824V15.4764C25.7237 15.4764 25.865 15.5464 26.0075 15.6877C26.0075 15.6877 26.0763 15.6877 26.0763 15.7578ZM25.5824 16.5366H26.0763V17.3143H25.5824V16.5366ZM26.0763 17.737V18.5847L26.0075 18.3734C25.7237 18.5847 25.6536 18.7972 25.7938 19.0086C25.865 19.0798 25.9362 19.151 26.0763 19.151V19.5737C25.865 19.5737 25.7237 19.4336 25.5824 19.3624V17.9495C25.7237 17.8082 25.865 17.737 26.0763 17.737ZM25.5824 22.2594H26.0763V25.7227H25.5824V22.2594ZM25.5824 26.5004H26.0763V26.9943H25.5824V26.5004ZM26.0763 30.8815V31.588C25.9362 31.6592 25.7237 31.7304 25.5824 31.8705V31.1629C25.7237 31.0929 25.9362 31.0228 26.0763 30.8815ZM26.0763 33.1421V33.5672C26.0763 33.5672 26.0763 33.5672 26.0075 33.5672L26.0763 33.7085V36.4642C25.9362 36.5354 25.7237 36.5354 25.5824 36.5354V36.1816C26.0074 36.2528 26.2188 35.6164 25.9362 34.9801C25.7938 34.9801 25.6536 35.0513 25.5824 35.0513V34.485C25.6536 34.4137 25.6536 34.4137 25.7237 34.3448L25.5824 33.991V33.3547C25.7237 33.2846 25.9362 33.2145 26.0763 33.1421ZM19.9998 0C21.9066 0 23.8157 0.282578 25.5824 0.846565V1.41289C23.8157 0.917793 21.9066 0.634048 19.9998 0.634048V0ZM25.5824 39.2211C23.8157 39.715 21.9066 39.9976 19.9998 39.9976V39.4336C21.9066 39.4336 23.8157 39.1498 25.5824 38.5847V39.2211ZM25.5824 8.19708V8.8323C23.8858 7.98457 21.979 7.48947 19.9998 7.48947V6.92432C21.979 6.92432 23.8858 7.34818 25.5824 8.19708ZM25.5824 13.496H23.8858V26.5004H23.0392V25.7227H22.4017L22.1203 25.2989V23.8147C22.3328 23.531 22.4729 23.6723 22.7555 23.1071L22.8968 22.6833C23.0392 22.6132 23.1093 22.3306 23.1093 22.0469H22.5441C22.5441 22.6132 22.049 22.8246 21.7664 22.8246V21.7655C21.979 21.6954 22.1203 21.6954 22.4017 21.3416L22.6142 20.989C22.7555 20.9166 22.8267 20.8465 22.8968 20.7052V20.4226H22.1903L22.1203 20.9166H21.3426V20.2101C21.6952 19.9976 22.1903 19.7863 22.2615 19.2923C22.3328 19.2923 22.6142 19.0798 22.6854 19.0798V18.656H22.1203L21.9066 19.0086C21.7665 19.2923 21.1301 19.2211 21.2013 19.2211V18.4434C21.5539 18.3021 21.9066 18.0908 22.049 17.8082L22.4017 17.6669V17.1006H21.7664C21.7664 17.3131 21.624 17.5245 21.4126 17.6669C21.2725 17.6669 21.2013 17.6669 21.06 17.6669V16.9593C21.4126 16.748 21.8377 16.6055 21.9066 16.1116L22.2615 15.9703V15.5464H21.624C21.624 15.6877 21.4126 15.8991 21.3426 16.0415H20.9888V15.4764C21.3426 15.2639 21.5539 14.9813 21.624 14.5574L22.049 14.4862V13.9911H21.4126C21.2725 14.6275 20.9888 14.6275 20.8475 14.5574V13.9911C21.2013 13.7797 21.2013 13.7085 21.5539 13.3547C21.8377 13.2146 22.049 12.5782 21.7664 12.6483H21.4839C21.2725 12.6483 21.2725 13.0032 21.1301 13.1434C21.06 13.1434 20.8475 13.2146 20.7062 13.2146V12.5782C21.06 12.5081 21.4839 12.2244 21.5539 11.7994H21.7664C21.7664 11.7305 21.7665 11.5892 21.8377 11.4479C21.624 11.4479 21.4126 11.4479 21.2725 11.4479C21.2013 11.7305 20.9888 11.8718 20.7774 11.943C20.4949 11.7305 20.4236 11.7305 20.3524 11.3767C20.3524 10.8816 20.8475 10.4577 20.4949 9.89255L20.4236 9.53991C20.4236 8.97475 20.2111 8.90353 19.9998 8.69101V26.9943H25.5824V26.5004H24.3108V14.0623H25.5824V13.496ZM25.5824 14.5574V15.0513H25.1586L24.876 14.5574H25.5824ZM25.5824 15.4764V15.9703H25.2286L24.876 15.4051C25.0873 15.4051 25.2286 15.4051 25.4411 15.4051C25.5112 15.4051 25.5112 15.4051 25.5824 15.4764ZM25.5824 16.5366V17.3143L25.2286 17.3131L24.9472 16.5366H25.5824ZM25.5824 17.9495V19.3624C25.3711 19.151 25.2286 18.9385 25.2286 18.656C25.1585 18.3734 25.2998 18.0908 25.5824 17.9495ZM25.4411 22.2594H25.5824V25.7227H25.4411V22.2594ZM25.5824 31.1629V31.8705C23.8858 32.6482 21.979 33.0721 19.9998 33.0721V32.5081C21.979 32.5081 23.8858 32.0118 25.5824 31.1629ZM25.5824 33.3547V33.991L25.5112 33.8486C23.8858 34.485 22.1903 34.8388 20.3524 34.8388V35.7566C20.9176 35.4752 21.4839 35.1926 21.979 35.2638C22.968 35.2638 23.1793 35.899 22.8968 36.6055C22.6142 37.2418 21.6952 37.1718 21.1301 37.1006C21.2013 36.9593 21.2725 36.7467 21.3426 36.5354C21.979 36.6755 22.7555 36.3941 22.6142 35.9691C22.4017 35.4752 21.5539 35.7566 21.06 36.1115C20.8475 36.2528 20.635 36.3229 20.3524 36.4642V37.6657L19.9998 37.3831V34.485C21.979 34.485 23.8157 34.0623 25.5824 33.3547ZM25.5824 34.485C24.3108 35.0513 24.4521 36.1115 25.2286 36.4642C25.2998 36.4642 25.4411 36.5354 25.5824 36.5354V36.1816C25.5112 36.1816 25.3711 36.1115 25.2998 36.1115C24.876 35.8278 24.9472 35.3339 25.5824 35.0513V34.485ZM19.9998 4.6637L21.3426 2.61443L22.4729 6.14664C22.8267 7.20689 24.1695 7.5607 25.0873 6.28793L24.876 6.07658C24.0983 7.06677 23.4631 6.99438 23.1093 5.86523L21.6952 1.2716L19.9998 4.09737V4.6637ZM19.9998 39.9976C17.6667 39.9976 15.3349 39.5737 13.2156 38.796V38.1608C15.3349 38.9373 17.6667 39.4336 19.9998 39.4336V39.9976ZM13.2156 1.20037C15.3349 0.423866 17.6667 0 19.9998 0V0.634048C17.6667 0.634048 15.3349 1.05908 13.2156 1.83675V1.20037ZM19.9998 4.09737L19.5047 4.87505L17.9493 1.20037C17.1728 3.3921 16.6077 6.35916 14.4872 7.13683L14.6997 7.27812C16.2539 7.06677 17.3141 4.52124 17.8092 2.61443L19.2209 5.9353L19.9998 4.6637V4.09737ZM19.9998 6.92432V7.48947C17.5266 7.48947 15.1936 8.26714 13.2156 9.53991V8.8323C15.1936 7.63193 17.5266 6.92432 19.9998 6.92432ZM19.9998 8.69101C19.9285 8.62095 19.8585 8.47966 19.8585 8.26714C19.7884 8.12585 19.5759 8.05462 19.5047 8.19708C19.0808 8.54972 18.5869 8.19708 18.727 9.32739L18.9395 9.89255C18.3744 10.3164 18.6569 10.7403 18.7971 11.3054C18.7971 11.4479 18.7971 11.5892 18.7971 11.7305L18.6569 11.943C18.4444 11.8718 18.2331 11.7305 18.1618 11.4479C17.9493 11.4479 17.8092 11.4479 17.5967 11.4479C17.5967 11.5892 17.5967 11.7305 17.6667 11.7994H17.8793C17.9493 12.2244 18.2331 12.6483 18.5869 12.6483V13.2846C18.5145 13.2846 18.3744 13.2846 18.3043 13.2846C18.1618 13.0733 18.0918 12.7183 17.8793 12.7183H17.5967C17.3141 12.7183 17.5967 13.2146 17.8793 13.3547C17.9493 13.7085 18.2331 13.8498 18.5869 13.9911V14.5574C18.3744 14.6275 18.0205 14.6275 17.8793 13.9911H17.3853V14.4862L17.738 14.5574C17.8092 14.9813 18.0918 15.2639 18.4444 15.4764V15.9703L18.1618 16.0415C18.0205 15.8991 17.9493 15.6877 17.9493 15.5464H17.3141V15.9703H17.5967C17.6667 16.4642 17.9493 16.748 18.3744 16.9593V17.6669C18.2331 17.6669 18.0918 17.6669 18.0205 17.6669C17.8092 17.5245 17.738 17.3832 17.738 17.2419H17.1028V17.6669L17.3853 17.737C17.5967 18.0196 17.8793 18.3734 18.1618 18.4434L18.2331 19.2211C18.2331 19.2211 17.5967 19.2923 17.5967 19.0086V18.656H17.0315C17.0315 18.7972 17.0315 18.9385 17.0315 19.0798C17.1028 19.0798 17.1728 19.151 17.244 19.151C17.4566 19.5737 17.738 19.9276 18.0918 20.2101L18.0205 20.9166H17.6667L17.5967 20.4226H16.8902V20.7052C16.9603 20.8465 17.1028 20.9166 17.244 20.9166L17.3141 21.1291C17.5266 21.553 17.738 21.7655 18.0205 21.7655V22.8246C17.738 22.8246 17.3853 22.6132 17.3141 22.1181H16.819V22.5431L17.1028 22.6833C17.244 23.3196 17.5266 23.6022 17.8793 23.8147V25.2989L17.5266 25.7928H16.9603V26.5004H16.1126V13.496H13.2156V14.0623H15.6186V26.5004H13.2156V26.9943H19.9998V8.69101ZM19.9998 32.5081V33.0721C17.5266 33.0721 15.1936 32.3656 13.2156 31.1629V30.5289C15.1936 31.7304 17.5266 32.5081 19.9998 32.5081ZM19.9998 34.485C18.727 34.485 17.4566 34.2736 16.2539 33.991L16.1826 33.4959H15.6887C15.2648 32.6482 14.6997 32.2243 14.0633 32.0831V32.577C14.6285 32.577 14.9122 33.002 15.1235 33.6372C14.4872 33.4259 13.8508 33.1421 13.2156 32.7895V33.2145C13.4281 33.3547 13.5682 33.4259 13.7095 33.4959L13.5682 33.9198L13.2156 33.8486V34.3448C13.922 34.3448 14.2746 34.6274 14.2058 34.9801C14.1345 35.3339 13.7095 35.4051 13.2156 35.3339V35.899C13.922 35.8278 14.4171 35.5452 14.5584 35.0513C14.6997 34.5562 14.4872 34.2036 14.1345 34.0623L14.2058 33.7085C14.6285 33.8486 15.0535 34.0623 15.4762 34.1323L14.8398 36.2528L15.0535 36.888L15.9713 34.3448C17.244 34.6975 18.5145 34.8388 19.8585 34.8388L19.9285 36.0403C18.5869 36.5354 17.8092 36.5354 17.738 36.1115C17.6667 35.7566 18.2331 35.5452 19.0107 35.8278C19.0808 35.6877 19.2209 35.5452 19.3634 35.4752C18.727 35.1213 18.1618 35.1213 17.6667 35.4051C16.819 35.7566 17.0315 36.3229 17.5967 36.6755C18.3043 37.0293 19.1509 36.888 19.9285 36.6055V37.2418L19.9998 37.3831V34.485ZM13.2156 25.7227V24.5212L13.3569 25.0151L13.9932 22.2594H14.9811V25.7227H14.3459V22.8246L13.7095 25.7227H13.2156ZM13.2156 18.9385V18.2321H13.922V17.3131H13.2156V16.6055H14.8398L15.0535 17.3131H14.5584V20.9166L13.922 20.4226V18.9385H13.2156ZM13.2156 8.33837C13.4981 7.98457 13.5682 7.48947 13.4981 6.92432H13.2156V8.33837ZM13.2156 38.796C12.0841 38.3722 10.9538 37.8782 9.89352 37.2418V36.5354C10.9538 37.1718 12.0841 37.7369 13.2156 38.1608V38.796ZM9.89352 2.75571C10.9538 2.18939 12.0841 1.62424 13.2156 1.20037V1.83675C12.0841 2.26062 10.9538 2.82578 9.89352 3.46099V2.75571ZM13.2156 6.92432V8.33837C12.8618 8.8323 12.2254 9.04481 11.589 8.76224L9.89352 7.98457V7.13683L11.8015 8.05463C12.8618 8.62095 13.3569 8.19708 13.2156 6.92432ZM13.2156 8.8323C11.944 9.60997 10.8125 10.599 9.89352 11.7305V12.6483C10.8125 11.4479 11.944 10.3164 13.2156 9.53991V8.8323ZM13.2156 13.496V14.0623H10.8825V26.5004H13.2156V26.9943H10.3875V13.496H13.2156ZM13.2156 16.6055H11.4477L11.6602 17.3131H12.014V18.2321C11.4477 18.4434 11.3765 18.656 11.7314 19.2211C11.8716 19.5037 12.1553 19.715 12.5091 19.715C12.7216 19.5037 12.6516 19.2923 12.6516 18.9385H13.2156V18.2321H12.6516V17.3131H13.2156V16.6055ZM13.2156 24.5212L12.7216 22.2594H11.6602V25.7227H12.3678V22.8246L13.003 25.7227H13.2156V24.5212ZM13.2156 30.5289V31.1629C11.944 30.3864 10.8125 29.4686 9.89352 28.2671V27.3481C10.8125 28.6197 11.944 29.68 13.2156 30.5289ZM13.2156 32.7895V33.2145C13.1443 33.2145 13.003 33.1421 12.8618 33.0721L13.0743 32.7194C13.1443 32.7194 13.2156 32.7895 13.2156 32.7895ZM13.2156 33.8486H13.003C12.5792 33.1421 12.014 32.7194 11.3765 32.7194C10.7424 32.7194 10.2485 33.2846 10.9538 34.6975L11.4477 34.485C11.025 34.0623 10.8125 33.5672 11.1651 33.2846C11.4477 32.9308 11.8716 33.2145 12.2966 33.8486L12.2254 33.991L12.2966 34.4137C12.6516 34.3448 13.003 34.3448 13.2156 34.3448V33.8486ZM13.2156 35.3339V35.899C13.0743 35.899 12.933 35.899 12.7216 35.8278V35.1926C12.8618 35.2638 13.0743 35.3339 13.2156 35.3339ZM9.89352 29.5387C10.1761 29.5387 10.3875 29.3262 10.3875 29.1148C10.3875 28.8322 10.1761 28.691 9.89352 28.691V29.5387ZM9.89352 37.2418C9.82346 37.1718 9.7534 37.1006 9.68218 37.1006V36.3941C9.7534 36.4642 9.82346 36.5354 9.89352 36.5354V37.2418ZM9.68218 2.89584C9.7534 2.89584 9.82346 2.82578 9.89352 2.75571V3.46099C9.82346 3.53222 9.7534 3.53222 9.68218 3.60345V2.89584ZM9.89352 7.13683V7.98457L9.68218 7.84444V7.06677L9.89352 7.13683ZM9.89352 11.7305V12.6483C9.82346 12.7907 9.7534 12.9308 9.68218 13.0032V12.013C9.7534 11.943 9.82346 11.7994 9.89352 11.7305ZM9.89352 27.3481V28.2671C9.82346 28.1959 9.7534 28.0546 9.68218 27.9833V26.9943C9.7534 27.1356 9.82346 27.2068 9.89352 27.3481ZM9.89352 28.691V29.5387C9.82346 29.5387 9.7534 29.4686 9.68218 29.4686V28.7622C9.7534 28.691 9.82346 28.691 9.89352 28.691ZM9.68218 30.5289V30.105C9.7534 30.1751 9.82346 30.2451 9.89352 30.3164L9.68218 30.5289ZM9.68218 37.1006C9.25831 36.818 8.83444 36.5354 8.41058 36.2528V35.5452C8.83444 35.8278 9.25831 36.1115 9.68218 36.3941V37.1006ZM8.41058 3.74474C8.83444 3.46099 9.25831 3.17958 9.68218 2.89584V3.60345C9.25831 3.88602 8.83444 4.1686 8.41058 4.45001V3.74474ZM9.68218 7.06677V7.84444L8.41058 7.27812V6.42922L9.68218 7.06677ZM9.68218 12.013V13.0032C9.18708 13.7797 8.76205 14.5574 8.41058 15.3339V13.9911C8.76205 13.2846 9.18708 12.6483 9.68218 12.013ZM9.68218 26.9943V27.9833C9.18708 27.3481 8.76205 26.7117 8.41058 26.0053V24.6625C8.76205 25.5114 9.18708 26.2879 9.68218 26.9943ZM9.68218 28.7622V29.4686C9.54089 29.3986 9.47083 29.2561 9.47083 29.1148C9.47083 28.9023 9.54089 28.8322 9.68218 28.7622ZM9.68218 30.105C9.18708 29.68 8.76205 29.1849 8.41058 28.6197V29.1148L8.90334 29.7512L8.41058 30.105V30.8103L9.18708 30.1751C9.32954 30.3164 9.47083 30.4576 9.61095 30.5989L9.68218 30.5289V30.105ZM8.41058 10.7403V9.96378L8.69199 10.1051L8.41058 9.1861V7.98457L9.25831 11.0229L8.41058 10.7403ZM8.41058 36.2528C7.41922 35.5452 6.50143 34.6975 5.58247 33.8486V33.002C6.4302 33.9198 7.41922 34.7687 8.41058 35.5452V36.2528ZM5.58247 6.14664C6.50143 5.29891 7.41922 4.45001 8.41058 3.74474V4.45001C7.41922 5.22885 6.4302 6.07658 5.58247 6.99437V6.14664ZM8.41058 6.42922L7.49162 6.00652L8.41058 9.1861V7.98457L8.19806 7.20689L8.41058 7.27812V6.42922ZM8.41058 9.96378V10.7403L5.79498 9.82249C6.85523 11.518 8.0556 13.9911 7.13781 15.2639L6.85523 15.3339C7.56168 13.7085 6.57149 11.7994 5.58247 10.0338V8.97475L8.41058 9.96378ZM8.41058 13.9911C7.49162 15.7578 6.92646 17.8082 6.92646 19.9976C6.92646 22.1882 7.49162 24.2386 8.41058 26.0053V24.6625C7.84426 23.1784 7.49162 21.6242 7.49162 19.9976C7.49162 18.3734 7.84426 16.8192 8.41058 15.3339V13.9911ZM8.41058 28.6197V29.1148L7.91431 28.5497C7.70297 29.4686 7.20787 29.68 6.36014 29.2561C6.36014 29.9626 7.06658 30.3164 7.91431 30.4576L8.41058 30.105V30.8103L7.13781 31.8705L6.99536 31.3054L7.49162 30.8103C5.72376 30.3164 5.72376 29.3986 6.14879 28.3371C6.71278 29.1148 7.2791 29.0448 7.49162 27.9833C7.13781 27.4894 6.85523 26.9243 6.57149 26.3591L5.58247 26.7117V25.0863C5.79498 25.2989 5.86621 25.6527 6.00633 26.0053L6.36014 25.864C6.07756 25.1576 5.79498 24.45 5.58247 23.7435V21.553C5.72376 22.8246 6.00633 24.0261 6.50143 25.1576C6.85523 24.7325 6.99535 24.2386 6.71278 23.7435L7.13781 23.531C7.35033 24.0973 7.2791 24.8038 6.85523 25.6527L7.06658 26.0754L6.92646 26.2178C7.35033 27.0656 7.84426 27.9133 8.41058 28.6197ZM5.58247 33.8486C5.37112 33.5672 5.1586 33.3547 4.87602 33.0721V32.1531C5.1586 32.4357 5.37112 32.7194 5.58247 33.002V33.8486ZM4.87602 6.92432C5.1586 6.7118 5.37112 6.42922 5.58247 6.14664V6.99437C5.37112 7.27812 5.1586 7.5607 4.87602 7.84444V6.92432ZM5.58247 8.97475V10.0338C5.37112 9.60997 5.08854 9.11488 4.87602 8.69101L5.58247 8.97475ZM5.58247 21.553V23.7435C5.58247 23.6022 5.51241 23.4609 5.51241 23.2484L4.87602 23.3897V22.7545L5.44118 22.6833L5.29989 21.6954L4.87602 21.7655V21.2003L5.1586 21.1291C5.1586 20.7753 5.1586 20.4226 5.1586 19.9976H5.51241C5.51241 20.4927 5.58247 21.0579 5.58247 21.553ZM5.58247 25.0863V26.7117L5.51241 26.7841C5.37112 25.9341 5.1586 25.3689 4.87602 25.1576V24.5212C5.1586 24.5924 5.44118 24.8038 5.58247 25.0863ZM4.87602 27.1356L5.1586 26.7841C5.08854 26.6417 5.01848 26.5705 4.87602 26.5004V27.1356ZM4.87602 17.8082V17.2419H5.58247L5.29989 17.8082H4.87602ZM4.87602 16.5366V15.8991H5.58247L5.37112 16.5366H4.87602ZM4.87602 33.0721C4.31087 32.3656 3.74571 31.588 3.18056 30.8103V29.68C3.67565 30.5289 4.24081 31.3766 4.87602 32.1531V33.0721ZM3.18056 9.1861C3.74571 8.40843 4.31087 7.63193 4.87602 6.92432V7.84444C4.24081 8.62095 3.67565 9.46868 3.18056 10.3164V9.1861ZM4.87602 8.69101V16.5366H3.18056V16.1116L3.32185 15.8991H4.87602V8.69101ZM4.87602 17.2419V17.8082H3.18056V17.3832L3.32185 17.2419H4.87602ZM4.87602 21.2003V21.7655H4.31087L4.45216 22.8246L4.87602 22.7545V23.3897L3.18056 23.6022V23.1071L3.81577 22.967L3.67565 21.9068C3.5332 21.9068 3.32185 21.8355 3.18056 21.8355V21.2003C3.25062 21.2003 3.32185 21.2003 3.32185 21.2003C3.5332 21.1291 3.60326 20.9166 3.5332 20.7052C3.46314 20.4927 3.32185 20.3514 3.18056 20.3514V19.715C3.67565 19.645 4.16958 19.9976 4.31087 21.2003H4.87602ZM4.87602 24.5212V25.1576C4.80596 25.0863 4.73473 25.0863 4.59461 25.0863C3.95823 25.0863 4.02829 25.9341 4.38093 26.2879C4.59461 26.3591 4.73474 26.3591 4.87602 26.5004V27.1356L4.80596 27.2068L4.16958 27.0656L3.5332 27.4182C3.46314 27.4894 3.32185 27.5606 3.18056 27.5606V26.7841L3.25062 26.7117L3.5332 26.9243L3.81577 26.6417L3.18056 26.2879V25.7227L3.67565 26.0754C3.5332 25.1576 3.81577 24.5924 4.52222 24.5212C4.66467 24.5212 4.80596 24.5212 4.87602 24.5212ZM3.18056 30.8103C1.20135 27.7019 0.000976562 23.956 0.000976562 19.9976C0.000976562 16.0415 1.20135 12.2956 3.18056 9.1861V10.3164C1.55515 13.1434 0.635026 16.4642 0.635026 19.9976C0.635026 23.531 1.55515 26.853 3.18056 29.68V30.8103ZM3.18056 16.1116L2.96804 16.5366H3.18056V16.1116ZM3.18056 17.3832L2.89798 17.8082H3.18056V17.3832ZM3.18056 19.715C2.82675 19.7863 2.47295 20.2101 2.47295 20.7753C2.47295 21.2704 2.68546 21.6242 3.18056 21.8355V21.2003C3.0381 21.2003 2.89798 21.0579 2.89798 20.8465C2.82675 20.634 2.89798 20.3514 3.10933 20.3514C3.10933 20.2814 3.18056 20.2814 3.18056 20.3514V19.715ZM3.18056 23.1071H2.96804C2.89798 22.7545 2.75552 22.4007 2.54418 22.0469L2.2616 22.1882C2.68546 23.0371 2.33166 23.6022 1.90896 23.1784C1.41386 22.7545 1.7665 21.9068 1.90896 21.3416L1.69644 21.2704C1.34264 22.0469 1.13012 22.7545 1.69644 23.6022C2.12148 24.2386 2.54417 24.0261 2.96804 23.6723L3.18056 23.6022V23.1071ZM3.18056 25.7227L2.68546 25.4401L2.47295 25.7928L3.18056 26.2879V25.7227ZM3.18056 26.7841L2.75552 27.1356L2.96804 27.4182C3.0381 27.4894 3.10933 27.5606 3.18056 27.5606V26.7841Z" fill="#0E88D3"/>
</svg>
