<svg width="152" height="40" viewBox="0 0 152 40" fill="none" xmlns="http://www.w3.org/2000/svg">
<path d="M21.834 39.4503L27.7152 31.6855L23.2941 31.0782L20.807 34.0758C20.266 34.7285 19.3633 34.3363 18.893 34.0014L6.15031 24.9119C5.66807 24.5681 6.07514 23.9646 6.57523 23.882L19.3432 21.7804L20.8688 19.1817L0.933583 22.4636C0.190888 22.5841 -0.373948 23.4325 0.304002 23.9884L19.0009 39.3387C19.6617 39.8812 21.0779 40.452 21.834 39.4503Z" fill="#FFB600"/>
<path d="M34.2692 0.921564L49.6112 28.8754C51.1763 31.7249 49.6038 34.6927 46.921 34.3236L29.1365 31.8812L30.9003 28.8717L43.7344 30.5297C45.0688 30.7128 44.9288 29.7959 44.3662 28.7682L33.5428 6.20305C33.3144 5.78779 32.5419 5.57123 32.28 6.01998L20.2986 26.43C19.9436 27.035 19.8447 27.4376 20.6156 27.5433L25.6835 28.1982L23.2932 31.0782L16.859 30.1941C15.6594 30.0289 15.1347 28.9491 15.8454 27.7383L31.279 1.44547C31.9734 0.263705 33.2995 -0.843642 34.2692 0.921564Z" fill="white"/>
<path d="M29.9402 28.7481L31.1845 27.1042L36.6728 19.8588C37.894 18.2477 37.638 16.4222 35.9793 16.6938L26.2989 18.2878L25.0651 20.8389L30.2565 19.9838C31.3757 19.8 31.5975 21.0711 30.7246 22.1234L27.2068 26.3623L25.6827 28.1982L21.4736 33.2713L24.9363 35.3528L29.9402 28.7481Z" fill="#FFB500"/>
<path d="M62.3982 20.5287H61.9778C61.6838 19.6357 61.43 18.9257 61.2135 18.3988C60.9969 17.8719 60.7833 17.4686 60.5727 17.1895C60.3636 16.9105 60.1299 16.7274 59.8754 16.6403C59.6194 16.554 59.3076 16.5101 58.9385 16.5101C58.4414 16.5101 57.9926 16.612 57.5908 16.8174C57.1897 17.0221 56.8451 17.3696 56.5586 17.8593C56.2721 18.3497 56.0518 19.0009 55.8985 19.8128C55.746 20.6247 55.6686 21.6331 55.6686 22.8357C55.6686 24.0517 55.7385 25.0623 55.8792 25.8682C56.0191 26.6749 56.2334 27.3224 56.5192 27.812C56.8064 28.3024 57.1621 28.6492 57.5893 28.8539C58.0157 29.0585 58.5225 29.1605 59.1089 29.1605C59.5033 29.1605 59.8412 29.0831 60.1218 28.9276C60.4023 28.7728 60.6538 28.5183 60.8771 28.1655C61.0996 27.8113 61.3035 27.3439 61.4881 26.7605C61.6726 26.1771 61.8736 25.4522 62.0909 24.5838H62.5106V28.7877C61.9755 29.0608 61.4181 29.2595 60.8384 29.3837C60.2587 29.5073 59.6819 29.5698 59.1089 29.5698C58.2926 29.5698 57.532 29.4113 56.825 29.095C56.1173 28.7787 55.5034 28.3292 54.9802 27.7458C54.457 27.1624 54.0462 26.4561 53.7478 25.6241C53.4479 24.7936 53.2983 23.8634 53.2983 22.8334C53.2983 21.8042 53.4479 20.874 53.7478 20.0427C54.0462 19.2115 54.4578 18.5052 54.9802 17.9218C55.5026 17.3391 56.1166 16.8889 56.825 16.5726C57.532 16.2563 58.2933 16.0978 59.1089 16.0978C59.7593 16.0978 60.3517 16.1633 60.8868 16.2935C61.4218 16.4238 61.9257 16.5942 62.3967 16.8055V20.5287H62.3982Z" fill="white"/>
<path d="M65.0534 23.2077V20.1938C65.5141 19.9958 65.9636 19.8343 66.4011 19.7101C66.838 19.5858 67.2927 19.524 67.766 19.524C68.3211 19.524 68.8004 19.5955 69.2023 19.7383C69.6041 19.8812 69.9375 20.0643 70.2039 20.2868C70.4703 20.5093 70.6653 20.7646 70.7889 21.0496C70.9131 21.3354 70.9749 21.6204 70.9749 21.9047V28.8635H71.8262V29.2728H69.4158V27.6356H69.3801C69.1673 28.2191 68.8242 28.6872 68.3516 29.0407C67.8783 29.3941 67.3232 29.5713 66.6854 29.5713C65.8817 29.5713 65.232 29.3443 64.7356 28.8918C64.2393 28.4394 63.9907 27.8038 63.9907 26.9845C63.9907 26.439 64.0823 26.0021 64.2653 25.6725C64.4484 25.3443 64.694 25.0838 65.0013 24.8911C65.3079 24.6991 65.654 24.5562 66.0387 24.4632C66.4227 24.3702 66.8156 24.2868 67.2175 24.2124C67.6194 24.1372 68.0115 24.0539 68.3963 23.9608C68.7803 23.8678 69.1204 23.7279 69.4158 23.5419V21.5891C69.4158 20.9938 69.2759 20.5696 68.9991 20.3151C68.7208 20.0606 68.3457 19.9333 67.8724 19.9333C67.565 19.9333 67.3053 19.9824 67.0925 20.0822C66.8796 20.1819 66.6876 20.3523 66.5165 20.5942C66.3453 20.8353 66.1771 21.1702 66.0112 21.5988C65.8452 22.0275 65.6562 22.5633 65.4434 23.2077H65.0534ZM69.4151 24.0271C68.9187 24.2749 68.4484 24.4431 68.0049 24.5294C67.5621 24.6165 67.1751 24.7311 66.8439 24.874C66.5128 25.0161 66.2493 25.2364 66.0544 25.5341C65.8594 25.8317 65.7619 26.3162 65.7619 26.9852C65.7619 27.6922 65.8824 28.1886 66.125 28.4736C66.3669 28.7594 66.7249 28.9015 67.1974 28.9015C67.8702 28.8769 68.4082 28.551 68.8101 27.9244C69.2119 27.2978 69.4136 26.4702 69.4136 25.4403V24.0271H69.4151Z" fill="white"/>
<path d="M72.9424 19.8217H75.4242V21.0868H75.46C75.6721 20.6902 75.9854 20.33 76.3999 20.0077C76.8136 19.6855 77.3331 19.524 77.9597 19.524C78.3146 19.524 78.6361 19.5709 78.9264 19.6639C79.2159 19.7569 79.4674 19.9117 79.6795 20.129C79.8923 20.3456 80.0583 20.6284 80.1759 20.9752C80.2942 21.3227 80.353 21.7506 80.353 22.2596V28.8643H81.3107V29.2736H77.6583V28.8643H78.6867V22.0364C78.6867 21.3413 78.5833 20.8613 78.3764 20.5942C78.1703 20.3277 77.86 20.1938 77.4462 20.1938C77.1976 20.1938 76.9617 20.2496 76.737 20.362C76.5122 20.4729 76.3143 20.647 76.1431 20.8822C75.972 21.1181 75.8328 21.4128 75.7264 21.7662C75.6192 22.1205 75.5664 22.5387 75.5664 23.0224V28.865H76.5948V29.2743H72.9431V28.865H73.9002V20.231H72.9431V19.8217H72.9424Z" fill="white"/>
<path d="M83.7751 23.2077V20.1938C84.2358 19.9958 84.6853 19.8343 85.1228 19.7101C85.5597 19.5858 86.0144 19.524 86.4877 19.524C87.0428 19.524 87.5221 19.5955 87.9239 19.7383C88.3258 19.8812 88.6592 20.0643 88.9256 20.2868C89.192 20.5093 89.387 20.7646 89.5105 21.0496C89.6348 21.3354 89.6966 21.6204 89.6966 21.9047V28.8635H90.5479V29.2728H88.1375V27.6356H88.1018C87.8889 28.2191 87.5459 28.6872 87.0733 29.0407C86.6 29.3941 86.0449 29.5713 85.4071 29.5713C84.6034 29.5713 83.9537 29.3443 83.4573 28.8918C82.961 28.4394 82.7124 27.8038 82.7124 26.9845C82.7124 26.439 82.8039 26.0021 82.987 25.6725C83.1701 25.3443 83.4157 25.0838 83.723 24.8911C84.0296 24.6991 84.3757 24.5562 84.7604 24.4632C85.1444 24.3702 85.5373 24.2868 85.9392 24.2124C86.341 24.1372 86.7332 24.0539 87.118 23.9608C87.502 23.8678 87.8421 23.7279 88.1375 23.5419V21.5891C88.1375 20.9938 87.9976 20.5696 87.7208 20.3151C87.4424 20.0606 87.0674 19.9333 86.5941 19.9333C86.2867 19.9333 86.027 19.9824 85.8142 20.0822C85.6013 20.1819 85.4093 20.3523 85.2382 20.5942C85.067 20.8353 84.8988 21.1702 84.7329 21.5988C84.5669 22.0275 84.3779 22.5633 84.1651 23.2077H83.7751ZM88.136 24.0271C87.6397 24.2749 87.1693 24.4431 86.7258 24.5294C86.283 24.6165 85.896 24.7311 85.5649 24.874C85.2337 25.0161 84.9703 25.2364 84.7753 25.5341C84.5803 25.8317 84.4828 26.3162 84.4828 26.9852C84.4828 27.6922 84.6034 28.1886 84.846 28.4736C85.0879 28.7594 85.4458 28.9015 85.9184 28.9015C86.5911 28.8769 87.1292 28.551 87.531 27.9244C87.9329 27.2978 88.1345 26.4702 88.1345 25.4403V24.0271H88.136Z" fill="white"/>
<path d="M92.7617 20.231H91.8047V19.8216H94.393V21.1991H94.4287C94.6177 20.6536 94.8804 20.2376 95.2183 19.9526C95.5546 19.6676 96.0071 19.5247 96.5742 19.5247C96.7989 19.5247 97.0259 19.5649 97.2566 19.646C97.4873 19.7271 97.6674 19.7978 97.7976 19.8603V23.5069H97.4077L96.7877 21.5906C96.6218 21.095 96.4797 20.7377 96.3621 20.5204C96.2438 20.3039 96.0785 20.1945 95.8657 20.1945C95.6886 20.1945 95.5107 20.2749 95.3336 20.4363C95.1565 20.5978 95.0032 20.8181 94.873 21.0972C94.7427 21.3763 94.6363 21.6992 94.5537 22.0646C94.4711 22.4308 94.4294 22.8244 94.4294 23.2464V28.865H95.5993V29.2743H91.8054V28.865H92.7625V20.231H92.7617Z" fill="white"/>
<path d="M100.191 23.2077V20.1938C100.652 19.9958 101.101 19.8343 101.539 19.7101C101.976 19.5858 102.43 19.524 102.904 19.524C103.459 19.524 103.938 19.5955 104.34 19.7383C104.742 19.8812 105.075 20.0643 105.342 20.2868C105.608 20.5093 105.803 20.7646 105.927 21.0496C106.051 21.3354 106.113 21.6204 106.113 21.9047V28.8635H106.964V29.2728H104.554V27.6356H104.518C104.305 28.2191 103.962 28.6872 103.489 29.0407C103.016 29.3941 102.461 29.5713 101.823 29.5713C101.019 29.5713 100.37 29.3443 99.8734 28.8918C99.377 28.4394 99.1284 27.8038 99.1284 26.9845C99.1284 26.439 99.22 26.0021 99.403 25.6725C99.5861 25.3443 99.8317 25.0838 100.139 24.8911C100.446 24.6991 100.792 24.5562 101.176 24.4632C101.56 24.3702 101.953 24.2868 102.355 24.2124C102.757 24.1372 103.149 24.0539 103.534 23.9608C103.918 23.8678 104.258 23.7279 104.554 23.5419V21.5891C104.554 20.9938 104.414 20.5696 104.137 20.3151C103.858 20.0606 103.483 19.9333 103.01 19.9333C102.703 19.9333 102.443 19.9824 102.23 20.0822C102.017 20.1819 101.825 20.3523 101.654 20.5942C101.483 20.8353 101.315 21.1702 101.149 21.5988C100.983 22.0275 100.794 22.5633 100.581 23.2077H100.191ZM104.552 24.0271C104.056 24.2749 103.585 24.4431 103.142 24.5294C102.699 24.6165 102.312 24.7311 101.981 24.874C101.65 25.0161 101.386 25.2364 101.191 25.5341C100.996 25.8317 100.899 26.3162 100.899 26.9852C100.899 27.6922 101.019 28.1886 101.262 28.4736C101.504 28.7594 101.862 28.9015 102.334 28.9015C103.007 28.8769 103.545 28.551 103.947 27.9244C104.349 27.2978 104.551 26.4702 104.551 25.4403V24.0271H104.552Z" fill="white"/>
<path d="M114.249 16.8077H113.186V16.3984H118.256C118.823 16.3984 119.337 16.4728 119.798 16.6217C120.259 16.7705 120.65 16.9751 120.968 17.2356C121.287 17.4961 121.535 17.8064 121.712 18.1658C121.89 18.5253 121.978 18.916 121.978 19.3379C121.978 19.8217 121.893 20.2436 121.721 20.6031C121.549 20.9632 121.322 21.2639 121.038 21.5057C120.755 21.7476 120.435 21.9404 120.081 22.0825C119.727 22.2246 119.366 22.3273 119 22.3891V22.4263C120.252 22.5506 121.21 22.8981 121.872 23.4682C122.533 24.039 122.864 24.7519 122.864 25.6077C122.864 26.1286 122.757 26.6123 122.545 27.0589C122.332 27.5054 122.007 27.8931 121.57 28.222C121.132 28.5509 120.58 28.8077 119.912 28.9937C119.243 29.1798 118.449 29.2728 117.527 29.2728H113.184V28.8635H114.248V16.8077H114.249ZM116.164 22.3154H117.174C118.072 22.3154 118.761 22.1011 119.239 21.6732C119.718 21.246 119.957 20.51 119.957 19.4689C119.957 18.526 119.771 17.8473 119.399 17.4313C119.026 17.0161 118.491 16.8085 117.794 16.8085H116.164V22.3154ZM116.164 28.8643H116.997C118.261 28.8643 119.189 28.6254 119.78 28.1476C120.371 27.6698 120.666 26.8356 120.666 25.6456C120.666 24.5785 120.429 23.8261 119.957 23.3856C119.484 22.945 118.745 22.7247 117.741 22.7247H116.163V28.8643H116.164Z" fill="white"/>
<path d="M125.488 23.2077V20.1938C125.949 19.9958 126.398 19.8343 126.836 19.7101C127.273 19.5858 127.727 19.524 128.201 19.524C128.756 19.524 129.235 19.5955 129.637 19.7383C130.039 19.8812 130.372 20.0643 130.638 20.2868C130.905 20.5093 131.1 20.7646 131.223 21.0496C131.348 21.3354 131.409 21.6204 131.409 21.9047V28.8635H132.261V29.2728H129.85V27.6356H129.815C129.602 28.2191 129.259 28.6872 128.786 29.0407C128.313 29.3941 127.758 29.5713 127.12 29.5713C126.316 29.5713 125.667 29.3443 125.17 28.8918C124.674 28.4394 124.425 27.8038 124.425 26.9845C124.425 26.439 124.517 26.0021 124.7 25.6725C124.883 25.3443 125.129 25.0838 125.436 24.8911C125.742 24.6991 126.089 24.5562 126.473 24.4632C126.857 24.3702 127.25 24.2868 127.652 24.2124C128.054 24.1372 128.446 24.0539 128.831 23.9608C129.215 23.8678 129.555 23.7279 129.85 23.5419V21.5891C129.85 20.9938 129.71 20.5696 129.434 20.3151C129.155 20.0606 128.78 19.9333 128.307 19.9333C128 19.9333 127.74 19.9824 127.527 20.0822C127.314 20.1819 127.122 20.3523 126.951 20.5942C126.78 20.8353 126.612 21.1702 126.446 21.5988C126.28 22.0275 126.091 22.5633 125.878 23.2077H125.488ZM129.85 24.0271C129.353 24.2749 128.883 24.4431 128.439 24.5294C127.997 24.6165 127.61 24.7311 127.279 24.874C126.947 25.0161 126.684 25.2364 126.489 25.5341C126.294 25.8317 126.196 26.3162 126.196 26.9852C126.196 27.6922 126.317 28.1886 126.56 28.4736C126.801 28.7594 127.159 28.9015 127.632 28.9015C128.305 28.8769 128.843 28.551 129.245 27.9244C129.646 27.2978 129.848 26.4702 129.848 25.4403V24.0271H129.85Z" fill="white"/>
<path d="M133.378 19.8217H135.86V21.0868H135.896C136.108 20.6902 136.421 20.33 136.835 20.0077C137.249 19.6855 137.769 19.524 138.395 19.524C138.75 19.524 139.072 19.5709 139.362 19.6639C139.651 19.7569 139.903 19.9117 140.115 20.129C140.328 20.3456 140.494 20.6284 140.611 20.9752C140.73 21.3227 140.789 21.7506 140.789 22.2596V28.8643H141.746V29.2736H138.094V28.8643H139.122V22.0364C139.122 21.3413 139.019 20.8613 138.812 20.5942C138.606 20.3277 138.296 20.1938 137.882 20.1938C137.633 20.1938 137.397 20.2496 137.173 20.362C136.948 20.4729 136.75 20.647 136.579 20.8822C136.408 21.1181 136.268 21.4128 136.162 21.7662C136.055 22.1205 136.002 22.5387 136.002 23.0224V28.865H137.03V29.2743H133.379V28.865H134.336V20.231H133.379V19.8217H133.378Z" fill="white"/>
<path d="M143.003 29.2728V28.8635H143.96V16.8077H143.003V16.3984H145.627V24.1751L148.96 20.2302H147.826V19.8209H150.379V20.2302H149.528L146.993 23.3L150.628 28.8635H151.124V29.2728H148.926L145.663 24.324H145.627V28.8643H146.762V29.2736H143.003V29.2728Z" fill="white"/>
</svg>
