<svg width="157" height="40" viewBox="0 0 157 40" fill="none" xmlns="http://www.w3.org/2000/svg">
<path fill-rule="evenodd" clip-rule="evenodd" d="M39.7021 0H156.921V40H39.7021V0Z" fill="white"/>
<path fill-rule="evenodd" clip-rule="evenodd" d="M0 40H39.7024V1.52588e-05H0V40Z" fill="#176FC1"/>
<path fill-rule="evenodd" clip-rule="evenodd" d="M40.7261 40H156.921V0.0800171H40.7261V40Z" fill="#176FC1"/>
<path fill-rule="evenodd" clip-rule="evenodd" d="M147.139 28.7805L147.132 28.9034L147.111 29.0314L147.089 29.1507L147.046 29.2729L147.01 29.3892L146.959 29.5056L146.894 29.6081L146.836 29.7158L146.757 29.8089L146.677 29.9012L146.591 29.9783L146.49 30.051L146.446 30.0889L146.389 30.1194L146.338 30.1383L146.295 30.1645L146.23 30.1754L146.179 30.2038L146.114 30.2103L146.057 30.2249L146.042 30.2292L145.941 30.2445L145.811 30.2481H145.753L145.631 30.2379L145.58 30.2249L145.53 30.2103L145.479 30.2038L145.429 30.1841L145.385 30.1645L145.335 30.1383L145.291 30.1194L145.255 30.0889L145.219 30.051L145.176 30.0169L145.147 29.9783L145.125 29.939L145.089 29.9012L145.039 29.8103L144.995 29.7158L144.959 29.6081L144.945 29.5056L144.938 29.3951V29.2801L144.945 29.1543L144.959 29.0314L144.995 28.9042L145.017 28.7805L145.068 28.6714L145.125 28.5667L145.176 28.4569L145.248 28.3478L145.327 28.2656L145.407 28.1689L145.494 28.0773L145.587 28.0045L145.638 27.9791L145.688 27.942L145.746 27.9158L145.797 27.8874L145.847 27.8707L145.912 27.8489L145.963 27.8271L146.028 27.814H146.042L146.143 27.798L146.273 27.7929H146.331H146.389L146.454 27.8038L146.504 27.8089L146.562 27.822L146.598 27.838L146.656 27.8642L146.699 27.8816L146.75 27.9005L146.793 27.9362L146.836 27.9616L146.865 27.9994L146.908 28.0373L146.937 28.0671L146.966 28.1187L146.995 28.1587L147.046 28.2453L147.089 28.3456L147.111 28.4489L147.132 28.5602L147.139 28.6714V28.7805ZM147.565 26.2977L147.472 26.8351L147.421 26.7602L147.37 26.6809L147.32 26.6206L147.262 26.55L147.19 26.4984L147.132 26.4373L147.06 26.3915L146.973 26.3464L146.894 26.3057L146.822 26.2606L146.742 26.2351L146.656 26.1987L146.576 26.1769L146.49 26.1587L146.403 26.1449L146.309 26.1333L146.273 26.1282H145.999L145.876 26.1369L145.746 26.1587L145.623 26.1769L145.494 26.2075L145.385 26.2467L145.255 26.2926L145.14 26.3464L145.017 26.3944L144.916 26.4569L144.793 26.5391L144.692 26.6096L144.577 26.6933L144.476 26.7849L144.367 26.8867L144.274 26.9893L144.158 27.0947L144.079 27.2075L143.985 27.3275L143.898 27.4424L143.819 27.5624L143.739 27.6838L143.66 27.8038L143.602 27.926L143.537 28.0605L143.487 28.1856L143.429 28.3173L143.371 28.4569L143.342 28.5907L143.299 28.7391L143.256 28.8736L143.234 29.0249L143.212 29.1587L143.191 29.3056L143.176 29.4452L143.169 29.5841V29.7158L143.176 29.851V29.9783L143.205 30.1034L143.22 30.2379L143.256 30.3609L143.277 30.475L143.321 30.6016L143.371 30.723L143.407 30.827L143.465 30.9397L143.53 31.0503L143.588 31.1572L143.66 31.2503L143.739 31.3412L143.819 31.4292L143.898 31.5041L143.985 31.5812L144.079 31.6386L144.172 31.7019L144.274 31.747L144.375 31.7928L144.476 31.827L144.591 31.8634L144.699 31.8815L144.837 31.8961L144.959 31.9055L145.089 31.9186H145.161L145.198 31.9055L145.234 31.9048L145.327 31.8961L145.429 31.8815L145.522 31.8634L145.609 31.8379L145.71 31.8154L145.811 31.7863L145.912 31.7376L145.999 31.6939L146.042 31.6736L146.093 31.6423L146.187 31.5856L146.273 31.5281L146.353 31.4597L146.432 31.3921L146.511 31.3128L146.591 31.2183L146.649 31.1296H146.677L146.562 31.7354H148.237L149.24 26.2977H147.565ZM143.256 24.7224L143.306 24.6264L143.357 24.5326L143.4 24.4322L143.429 24.3224L143.458 24.2162L143.465 24.1093L143.472 24.0061V23.8984L143.465 23.8017L143.443 23.7122L143.407 23.6162L143.371 23.5326L143.321 23.4563L143.256 23.3763L143.205 23.3144L143.133 23.2541L143.061 23.2148L142.981 23.1704L142.902 23.1479L142.815 23.1312L142.721 23.1261H142.628L142.527 23.1443L142.433 23.1675L142.346 23.2017L142.259 23.2526L142.166 23.305L142.079 23.369L141.992 23.4453L141.913 23.5283L141.848 23.6061L141.776 23.7079L141.732 23.8002L141.675 23.8984L141.639 24.0024L141.595 24.1035L141.581 24.2162L141.566 24.3224L141.559 24.4322V24.5326L141.574 24.6264L141.588 24.7224L141.624 24.8097L141.66 24.8962L141.718 24.982L141.776 25.0562L141.826 25.1202L141.906 25.1784L141.971 25.2184L142.057 25.2606L142.137 25.2817L142.216 25.2911L142.324 25.2926L142.418 25.2911L142.505 25.2817L142.599 25.2606L142.685 25.2184L142.779 25.1784L142.873 25.1202L142.952 25.0562L143.032 24.982L143.118 24.8962L143.191 24.8097L143.256 24.7224ZM140.296 31.7354L141.292 26.2977H142.981L141.971 31.7354H140.296ZM138.152 28.7805L138.145 28.9034L138.13 29.0314L138.094 29.1507L138.058 29.2729L138.022 29.3892L137.971 29.5056L137.906 29.6081L137.834 29.7158L137.769 29.8089L137.69 29.9012L137.589 29.9783L137.502 30.051L137.444 30.0889L137.408 30.1194L137.35 30.1383L137.293 30.1645L137.242 30.1754L137.184 30.2038L137.134 30.2103L137.069 30.2249L137.047 30.2292L136.953 30.2445L136.823 30.2481H136.759L136.708 30.2445L136.657 30.2379L136.585 30.2249L136.528 30.2103L136.484 30.2038L136.426 30.1841L136.39 30.1645L136.34 30.1383L136.304 30.1194L136.26 30.0889L136.232 30.051L136.188 30.0169L136.152 29.9783L136.13 29.939L136.102 29.9012L136.051 29.8103L136.001 29.7158L135.972 29.6081L135.95 29.5056L135.936 29.3951V29.2801L135.95 29.1543L135.972 29.0314L136.001 28.9042L136.029 28.7805L136.08 28.6714L136.13 28.5667L136.188 28.4569L136.253 28.3478L136.333 28.2656L136.412 28.1689L136.506 28.0773L136.607 28.0045L136.657 27.9791L136.708 27.942L136.751 27.9158L136.802 27.8874L136.86 27.8707L136.917 27.8489L136.982 27.8271L137.026 27.814H137.047L137.148 27.798L137.278 27.7929H137.336H137.401L137.459 27.8038L137.517 27.8089L137.567 27.822L137.625 27.838L137.675 27.8642L137.719 27.8816L137.762 27.9005L137.805 27.9362L137.834 27.9616L137.877 27.9994L137.906 28.0373L137.95 28.0671L137.979 28.1187L138 28.1587L138.051 28.2453L138.094 28.3456L138.123 28.4489L138.137 28.5602L138.152 28.6714V28.7805ZM139.191 22.9334L138.477 26.8351L138.433 26.7602L138.383 26.6809L138.332 26.6206L138.267 26.55L138.137 26.4373L138.065 26.3915L137.986 26.3464L137.906 26.3057L137.834 26.2606L137.748 26.2351L137.668 26.1987L137.581 26.1769L137.408 26.1449L137.329 26.1333L137.285 26.1282H137.018L136.888 26.1369L136.751 26.1587L136.636 26.1769L136.506 26.2075L136.383 26.2467L136.268 26.2926L136.152 26.3464L136.029 26.3944L135.921 26.4569L135.806 26.5391L135.69 26.6096L135.596 26.6933L135.481 26.7849L135.38 26.8867L135.271 26.9893L135.178 27.0947L135.076 27.2075L134.997 27.3275L134.903 27.4424L134.824 27.5624L134.744 27.6838L134.679 27.8038L134.614 27.926L134.549 28.0605L134.485 28.1856L134.441 28.3173L134.383 28.4569L134.347 28.5907L134.304 28.7391L134.268 28.8736L134.246 29.0249L134.217 29.1587L134.196 29.3056L134.189 29.4452L134.181 29.5841V29.7158L134.189 29.851L134.196 29.9783L134.203 30.1034L134.232 30.2379L134.261 30.3609L134.29 30.475L134.333 30.6016L134.369 30.723L134.42 30.827L134.47 30.9397L134.535 31.0503L134.607 31.1572L134.679 31.2503L134.744 31.3412L134.824 31.4292L134.91 31.5041L134.997 31.5812L135.084 31.6386L135.178 31.7019L135.279 31.747L135.38 31.7928L135.495 31.827L135.603 31.8634L135.719 31.8815L135.842 31.8961L135.972 31.9055L136.087 31.9186H136.174L136.203 31.9055L136.239 31.9048L136.34 31.8961L136.426 31.8815L136.528 31.8634L136.629 31.8379L136.722 31.8154L136.816 31.7863L136.91 31.7376L137.018 31.6939L137.047 31.6736L137.112 31.6423L137.192 31.5856L137.285 31.5281L137.358 31.4597L137.444 31.3921L137.517 31.3128L137.589 31.2183L137.668 31.1296H137.69L137.574 31.7354H139.256L140.873 22.9334H139.191ZM133.589 27.3689L133.597 27.4715L133.604 27.5711V27.7929L133.597 27.9005L133.575 28.142L133.56 28.2656L133.539 28.3871L132.918 31.7354H131.243L131.727 29.0801V29.054L131.741 29.0314V28.998L131.749 28.9681L131.763 28.9202L131.77 28.87L131.777 28.8191L131.792 28.7609L131.799 28.7063V28.6634L131.813 28.5514L131.828 28.47V28.2365L131.813 28.1645L131.799 28.0867L131.785 28.0147L131.763 27.9427L131.749 27.9114L131.741 27.8714L131.72 27.8489L131.698 27.822L131.669 27.7929L131.647 27.766L131.611 27.758L131.575 27.7347L131.51 27.6998L131.431 27.6838L131.337 27.6685H131.171L131.055 27.6773L130.991 27.6896L130.947 27.6998L130.889 27.7194L130.839 27.7347L130.796 27.7616L130.745 27.7784L130.709 27.8089L130.666 27.838L130.615 27.8714L130.586 27.9114L130.543 27.9529L130.507 27.9922L130.478 28.0387L130.42 28.134L130.362 28.2365L130.312 28.3362L130.261 28.4489L130.218 28.5602L130.182 28.6714L130.16 28.8002L130.139 28.9202L129.619 31.7354H127.937L128.933 26.2977H130.615L130.478 26.9893H130.5L130.601 26.8729L130.702 26.774L130.796 26.6686L130.889 26.5835L130.991 26.5035L131.092 26.43L131.185 26.3653L131.286 26.3122L131.388 26.2715L131.489 26.2351L131.597 26.1987L131.705 26.1755L131.821 26.1529L131.929 26.1369L132.052 26.1282H132.29L132.398 26.1333L132.514 26.1449L132.615 26.1587L132.701 26.1842L132.802 26.2147L132.882 26.2467L132.969 26.2751L133.034 26.3267L133.106 26.3653L133.171 26.4227L133.293 26.5391L133.344 26.6082L133.38 26.6773L133.416 26.75L133.459 26.8315L133.488 26.9086L133.517 26.9987L133.546 27.0845L133.56 27.1755L133.582 27.2736L133.589 27.3689ZM126.471 23.7406L124.984 31.7354H126.796L128.262 23.7406H126.471ZM122.681 22.9341L122.602 22.9028L122.523 22.8817L122.429 22.8614L122.349 22.8446L122.256 22.8388H122.039L121.916 22.8563L121.801 22.8694L121.685 22.8868L121.562 22.9334L121.454 22.9632L121.324 23.0039L121.209 23.0584L121.093 23.1203L120.985 23.1835L120.869 23.2541L120.761 23.3268L120.66 23.4155L120.552 23.5021L120.451 23.6046L120.357 23.7079L120.306 23.7493L120.263 23.8002L120.227 23.8512L120.191 23.8904L120.155 23.9399L120.119 23.9864L120.083 24.0366L120.054 24.0752L119.989 24.1704L119.938 24.2533L119.888 24.3421L119.844 24.4373L119.801 24.5319L119.772 24.6191L119.736 24.7057L119.707 24.7973L119.657 24.9864L119.606 25.1842L119.563 25.3908L119.527 25.6038L119.397 26.2977H118.812L118.516 27.8874H119.101L118.386 31.7354H120.068L120.783 27.8874H121.945L122.241 26.2977H121.079L121.23 25.4264L121.259 25.3115L121.274 25.2119L121.303 25.1093L121.339 25.017L121.375 24.942L121.411 24.865L121.454 24.7908L121.483 24.7319L121.534 24.6751L121.577 24.6402L121.635 24.5973L121.692 24.5733L121.765 24.5421L121.822 24.5319L121.902 24.5151L121.981 24.5108H122.032L122.089 24.5151L122.14 24.5326L122.191 24.5421L122.241 24.5508L122.284 24.5733L122.335 24.5937L122.385 24.6191L122.422 24.638L122.465 24.6482L122.501 24.6715L122.537 24.6751L122.84 23.025L122.768 22.9886L122.681 22.9341ZM116.242 28.7805L116.228 28.9034L116.206 29.0314L116.177 29.1507L116.148 29.2729L116.098 29.3892L116.047 29.5056L115.989 29.6081L115.924 29.7158L115.773 29.9012L115.679 29.9783L115.578 30.051L115.535 30.0889L115.484 30.1194L115.434 30.1383L115.376 30.1645L115.325 30.1754L115.268 30.2038L115.217 30.2103L115.152 30.2249L115.13 30.2292L115.029 30.2445L114.907 30.2481H114.849L114.777 30.2445L114.733 30.2379L114.676 30.2249L114.618 30.2103L114.567 30.2038L114.517 30.1841L114.466 30.1645L114.423 30.1383L114.387 30.1194L114.343 30.0889L114.307 30.051L114.271 30.0169L114.242 29.9783L114.177 29.9012L114.12 29.8103L114.084 29.7158L114.055 29.6081L114.04 29.5056L114.026 29.3951V29.2801L114.033 29.1543L114.055 29.0314L114.084 28.9042L114.12 28.7805L114.163 28.6714L114.206 28.5667L114.264 28.4569L114.336 28.3478L114.416 28.2656L114.495 28.1689L114.589 28.0773L114.683 28.0045L114.733 27.9791L114.777 27.942L114.834 27.9158L114.892 27.8874L114.943 27.8707L115 27.8489L115.051 27.8271L115.109 27.814H115.13L115.239 27.798L115.361 27.7929H115.426H115.484L115.542 27.8038L115.6 27.8089L115.65 27.822L115.701 27.838L115.744 27.8642L115.794 27.8816L115.838 27.9005L115.888 27.9362L115.924 27.9616L115.968 27.9994L115.997 28.0373L116.026 28.0671L116.062 28.1187L116.09 28.1587L116.134 28.2453L116.17 28.3456L116.206 28.4489L116.228 28.5602L116.242 28.6714V28.7805ZM118.032 28.0751L118.011 27.9362L117.982 27.798L117.953 27.6685L117.917 27.542L117.866 27.4184L117.809 27.2998L117.758 27.1944L117.679 27.0824L117.599 26.9813L117.513 26.8773L117.426 26.7958L117.332 26.7042L117.238 26.6206L117.137 26.5471L116.928 26.4227L116.812 26.3595L116.697 26.3122L116.581 26.2678L116.459 26.2278L116.336 26.1915L116.206 26.1667L116.083 26.1449L115.946 26.1282L115.809 26.1238L115.665 26.1144V26.1282H115.52L115.376 26.1369L115.239 26.1529L115.13 26.1667L115.109 26.1755L114.964 26.1987L114.834 26.2351L114.697 26.2678L114.56 26.3122L114.293 26.4227L114.17 26.4809L114.04 26.55L113.918 26.6206L113.78 26.7042L113.658 26.7958L113.528 26.8773L113.412 26.9813L113.304 27.0824L113.188 27.1944L113.08 27.2998L112.986 27.4184L112.892 27.542L112.806 27.6685L112.64 27.9362L112.582 28.0751L112.517 28.2322L112.459 28.3689L112.402 28.5296L112.358 28.6947L112.322 28.8518L112.286 29.0314L112.264 29.2031L112.243 29.3732L112.221 29.5281V29.6816V29.835L112.236 29.9783L112.243 30.1245L112.272 30.2634L112.308 30.3929L112.351 30.5208L112.394 30.6336L112.452 30.7514L112.517 30.867L112.582 30.971L112.661 31.0714L112.748 31.1674L112.835 31.2568L112.929 31.3412L113.03 31.4241L113.138 31.4983L113.239 31.5601L113.34 31.6241L113.463 31.6736L113.578 31.7325L113.687 31.7717L113.809 31.8154L113.925 31.8379L114.055 31.8663L114.192 31.8866L114.329 31.9048L114.466 31.9055L114.603 31.9186L114.748 31.9055L114.885 31.9048L115.022 31.8866L115.13 31.875L115.152 31.8663L115.296 31.8379L115.434 31.8103L115.563 31.7717L115.701 31.7252L115.831 31.6736L115.968 31.6241L116.09 31.5601L116.35 31.4241L116.473 31.3383L116.61 31.2503L116.726 31.1623L116.964 30.9681L117.072 30.8576L117.181 30.7514L117.274 30.6278L117.368 30.5056L117.455 30.3892L117.534 30.2481L117.606 30.1194L117.679 29.9747L117.751 29.8278L117.801 29.6816L117.852 29.5209L117.902 29.3732L117.939 29.1929L118.004 28.8518L118.025 28.6947L118.04 28.5296L118.047 28.3689L118.04 28.2322L118.032 28.0751ZM107.457 26.2678L105.362 28.2322L106.338 22.9028H104.658L103.045 31.7034H104.71L105.125 29.4889L106.547 31.7034H108.893L106.922 28.7711L109.752 26.2678H107.457ZM102.603 27.3405L102.594 27.2453L102.584 27.1449L102.561 27.0562L102.536 26.9675L102.508 26.8773L102.48 26.8009L102.443 26.7246L102.406 26.6446L102.36 26.5755L102.31 26.5071L102.254 26.4504L102.195 26.3915L102.135 26.3362L102.06 26.2977L101.985 26.2467L101.901 26.2147L101.811 26.1842L101.722 26.1587L101.632 26.1333L101.526 26.1144L101.424 26.1049L101.309 26.0933H101.072L100.957 26.1057L100.838 26.1238L100.731 26.1449L100.619 26.1667L100.513 26.1987L100.305 26.2846L100.204 26.3362L100.105 26.4009L100.009 26.4715L99.909 26.55L99.8145 26.6395L99.7156 26.742L99.6188 26.8467L99.5286 26.9587H99.499L99.6383 26.2678H97.9578L96.9594 31.7034H98.6342L99.1503 28.8889L99.1742 28.7711L99.2095 28.6467L99.2377 28.5296L99.2875 28.4169L99.3308 28.3093L99.3821 28.2096L99.4312 28.1063L99.499 28.0074L99.5286 27.9616L99.5986 27.8816L99.6383 27.8489L99.6809 27.8089L99.7214 27.7784L99.7611 27.758L99.8145 27.7289L99.865 27.7042L99.909 27.6896L99.9625 27.6685L100.016 27.6584L100.071 27.6445L100.131 27.6424L100.198 27.6394H100.362L100.449 27.6496L100.532 27.6685L100.606 27.7042L100.634 27.7245L100.662 27.7398L100.693 27.766L100.714 27.7929L100.733 27.814L100.755 27.8489L100.772 27.8816L100.789 27.9158L100.803 27.9827L100.82 28.0605L100.838 28.134L100.848 28.2096L100.854 28.2831V28.3631L100.848 28.446L100.838 28.5238L100.832 28.5791L100.82 28.6365L100.819 28.6816L100.803 28.7391L100.8 28.7805L100.789 28.8409L100.782 28.8852L100.772 28.9441L100.765 28.9681L100.759 28.998L100.755 29.0314L100.742 29.054L100.26 31.7034H101.937L102.557 28.3478L102.574 28.2329L102.594 28.1078L102.603 27.9922L102.616 27.8714V27.766L102.628 27.6496V27.5464L102.616 27.4424L102.603 27.3405ZM94.7475 28.7536L94.7431 28.87L94.7272 28.998L94.6962 29.1238L94.6594 29.2452L94.6175 29.3616L94.5655 29.4765L94.5092 29.5841L94.4414 29.6816L94.3648 29.7703L94.2833 29.8692L94.1901 29.9478L94.1014 30.0212L94.0494 30.0561L94.0053 30.0889L93.9461 30.1034L93.8927 30.1281L93.835 30.1507L93.788 30.1732L93.7289 30.1841L93.6682 30.1987H93.6444L93.5484 30.2103L93.4235 30.2249H93.36L93.2416 30.2081L93.1889 30.1987L93.1282 30.1841L93.0864 30.1732L93.0351 30.1536L92.9889 30.1281L92.9384 30.1034L92.8987 30.0889L92.8633 30.0561L92.8243 30.0212L92.7904 29.9892L92.7492 29.9478L92.7153 29.9107L92.6973 29.8692L92.6446 29.7849L92.6041 29.6816L92.5731 29.5841L92.5536 29.4765L92.5377 29.3732V29.2452L92.5536 29.1274L92.5731 28.998L92.5955 28.8736L92.6294 28.758L92.677 28.6467L92.7341 28.5376L92.7904 28.4343L92.8496 28.326L92.9326 28.2329L93.0142 28.142L93.103 28.0518L93.2019 27.9791L93.2481 27.9427L93.2979 27.9114L93.3527 27.8874L93.4047 27.8642L93.461 27.838L93.5173 27.814L93.5744 27.798L93.6336 27.7929L93.6444 27.7893L93.7505 27.766L93.8732 27.7616L93.9375 27.766H93.996L94.058 27.7784H94.11L94.1649 27.7929L94.2154 27.8089L94.2667 27.8271L94.3129 27.854L94.3605 27.8714L94.3959 27.9005L94.4414 27.9362L94.4739 27.9689L94.5128 28.0045L94.5468 28.0387L94.5706 28.0867L94.598 28.1238L94.65 28.2234L94.6904 28.3173L94.72 28.4169L94.7431 28.5296L94.7475 28.6445V28.7536ZM95.0774 26.8009L95.0276 26.7246L94.977 26.6496L94.9279 26.5929L94.8644 26.5282L94.8095 26.4642L94.7345 26.4031L94.6652 26.3595L94.5836 26.3122L94.5092 26.2715L94.4269 26.2351L94.3497 26.1987L94.2609 26.1755L94.1786 26.1529L94.0941 26.1333L94.0053 26.1144L93.9252 26.1049L93.8732 26.0933H93.6133L93.4769 26.1057L93.3527 26.1282L93.2286 26.1529L93.103 26.1769L92.9889 26.2147L92.8647 26.2606L92.7463 26.3122L92.6294 26.3653L92.5168 26.43L92.4027 26.5071L92.2952 26.5835L92.1869 26.6656L92.0808 26.7602L91.9768 26.8606L91.8707 26.9587L91.7718 27.0671L91.6794 27.1755L91.5927 27.2969L91.4989 27.4125L91.4195 27.5304L91.3451 27.6496L91.2758 27.7784L91.208 27.8984L91.143 28.0307L91.091 28.1587L91.0318 28.2925L90.9885 28.4271L90.9387 28.5667L90.9019 28.7056L90.8658 28.8482L90.8441 28.9921L90.8174 29.1311L90.7979 29.2801L90.7835 29.4161L90.777 29.5521V29.6896L90.7835 29.8278L90.7965 29.9478L90.8145 30.0743L90.8275 30.2081L90.8586 30.3318L90.8882 30.4467L90.9293 30.5681L90.9654 30.6925L91.0196 30.7972L91.0773 30.9085L91.1416 31.0168L91.1986 31.1296L91.3451 31.3128L91.4195 31.3972L91.5025 31.4728L91.5927 31.5485L91.683 31.6117L91.7775 31.6736L91.8779 31.715L91.9797 31.763L92.0836 31.7965L92.2006 31.827L92.3175 31.8517L92.4338 31.8663L92.5659 31.8815L92.6973 31.8866H92.7644L92.8084 31.8815L92.8395 31.8779L92.9355 31.8634L93.0351 31.8517L93.1253 31.8365L93.2242 31.8154L93.3174 31.7863L93.4192 31.7543L93.5065 31.7128L93.6011 31.6626L93.6444 31.6423L93.7065 31.6241L93.7967 31.5601L93.8732 31.4983L93.9649 31.4306L94.0436 31.3608L94.1172 31.2787L94.1901 31.1899L94.2609 31.099H94.2833L94.175 31.7034H95.8512L96.8482 26.2678H95.1727L95.0774 26.8009ZM88.5196 25.9697L88.5037 26.0809L88.4727 26.1987L88.4474 26.3086L88.4027 26.4009L88.3601 26.4809L88.3334 26.5282L88.2994 26.558L88.2771 26.5929L88.2402 26.6206L88.2063 26.6446L88.1796 26.6686L88.1356 26.6933L88.1024 26.7071L88.0201 26.742L87.9356 26.774L87.8584 26.7958L87.7746 26.8206L87.6945 26.8351L87.6129 26.8467L87.5299 26.8511H87.5097L87.4418 26.8606H87.4014L87.3942 26.8467H87.1812L87.4729 25.3013H87.7746L87.8497 25.3049L87.9298 25.3115L88.002 25.3311L88.0793 25.3355L88.1442 25.3624L88.215 25.3908L88.2814 25.4213L88.35 25.4482L88.3767 25.4715L88.4027 25.4846L88.4265 25.5195L88.4489 25.5464L88.4684 25.5638L88.4814 25.6038L88.4936 25.6417L88.5066 25.6715L88.5196 25.7668L88.5333 25.8577L88.5196 25.9697ZM88.4294 29.0249L88.4265 29.142L88.4027 29.2729L88.3781 29.3841L88.35 29.4889L88.3124 29.5841L88.2669 29.6649L88.2063 29.7434L88.1442 29.8089L88.0793 29.8663L88.002 29.9107L87.9255 29.9478L87.8381 29.9892L87.7638 30.0212L87.5912 30.067L87.5097 30.0969L87.4238 30.1027L87.3436 30.1194L87.283 30.1245H87.2122L87.1545 30.1281H86.8426L86.8246 30.1245L86.813 30.1194H86.5835L86.9033 28.3958H87.5761L87.662 28.4002L87.745 28.4147L87.8316 28.4271L87.919 28.446L87.9962 28.4692L88.0735 28.4998L88.1529 28.5296L88.2258 28.5667L88.2489 28.5907L88.2864 28.6118L88.3146 28.6445L88.3391 28.6714L88.3601 28.7056L88.3781 28.7449L88.3954 28.7805L88.412 28.8278L88.4164 28.87L88.4265 28.9202L88.4294 28.9681V29.0249ZM90.2551 24.8206L90.237 24.7224L90.206 24.6264L90.1778 24.5421L90.1439 24.4591L90.1013 24.3835L90.0565 24.3115L90.0053 24.2439L89.9461 24.185L89.8797 24.1319L89.8169 24.0752L89.7476 24.025L89.684 23.9806L89.6025 23.9399L89.5216 23.8984L89.4415 23.8606L89.3556 23.8301L89.2639 23.8017L89.1722 23.7799L89.0733 23.7661L88.9708 23.7457L88.8705 23.7297L88.7607 23.7152L88.6517 23.7122H85.9619L84.4856 31.7034H87.2714L87.3884 31.7019L87.5097 31.6939L87.6208 31.6859L87.7421 31.6736L87.8584 31.6612L87.9695 31.635L88.085 31.6117L88.2034 31.5841L88.3146 31.5499L88.4294 31.5194L88.5377 31.4728L88.6517 31.4306L88.7607 31.3877L88.8705 31.3383L88.9888 31.2787L89.0935 31.2183L89.1917 31.1572L89.292 31.0903L89.3895 31.0117L89.4877 30.931L89.5714 30.8459L89.6516 30.7514L89.7237 30.6547L89.7967 30.547L89.8674 30.4423L89.9252 30.3201L89.9829 30.1987L90.0306 30.067L90.0861 29.9289L90.1266 29.787L90.1562 29.6387L90.1858 29.4889L90.2226 29.2838L90.2377 29.086L90.2551 28.9034L90.2493 28.7245L90.2377 28.6365L90.2284 28.5514L90.2226 28.47L90.1944 28.3958L90.1663 28.2445L90.1071 28.1063L90.076 28.0387L90.0421 27.9791L90.0053 27.9158L89.962 27.8642L89.9165 27.8038L89.8602 27.7616L89.8096 27.7129L89.7476 27.6685L89.6855 27.6227L89.6205 27.5907L89.5462 27.5624L89.4754 27.5231L89.4018 27.5005L89.3245 27.4765L89.2372 27.4584L89.1412 27.4424V27.4344L89.2639 27.3689L89.3664 27.2969L89.4725 27.2271L89.5613 27.1442L89.6516 27.0562L89.7237 26.9587L89.8053 26.8707L89.8674 26.7646L89.9252 26.6496L89.9829 26.5427L90.0306 26.43L90.076 26.3086L90.1266 26.1842L90.1562 26.0635L90.1858 25.9333L90.2168 25.7973L90.2377 25.6569L90.2551 25.5209L90.2666 25.3929L90.2774 25.2679V25.0308L90.2666 24.9268L90.2551 24.8206ZM78.5227 31.7034H80.191L81.8038 22.9028H80.1383L78.5227 31.7034ZM76.3094 28.7536L76.3036 28.87L76.2819 28.998L76.2227 29.2452L76.1751 29.3616L76.1202 29.4765L76.0596 29.5841L75.9961 29.6816L75.9253 29.7703L75.8437 29.8692L75.7506 29.9478L75.6604 30.0212L75.6055 30.0561L75.5564 30.0889L75.5023 30.1034L75.4517 30.1281L75.3983 30.1507L75.3435 30.1732L75.2857 30.1841L75.2222 30.1987H75.2092L75.1052 30.2103L74.9825 30.2249H74.9204L74.802 30.2081L74.7457 30.1987L74.6916 30.1841L74.6425 30.1732L74.5905 30.1536L74.5479 30.1281L74.5032 30.1034L74.4591 30.0889L74.4194 30.0561L74.3776 30.0212L74.3508 29.9892L74.3184 29.9478L74.2844 29.9107L74.2606 29.8692L74.2029 29.7849L74.1646 29.6816L74.1307 29.5841L74.1126 29.4765L74.0996 29.3732V29.2452L74.1083 29.1274L74.1235 28.998L74.1531 28.8736L74.1899 28.758L74.2353 28.6467L74.2844 28.5376L74.3508 28.4343L74.4129 28.326L74.4974 28.2329L74.5703 28.142L74.6649 28.0518L74.7537 27.9791L74.8129 27.9427L74.8612 27.9114L74.9103 27.8874L74.9637 27.8642L75.0179 27.838L75.0742 27.814L75.1319 27.798L75.1897 27.7929L75.2092 27.7893L75.3095 27.766L75.4308 27.7616L75.5008 27.766H75.5564L75.6142 27.7784H75.6734L75.721 27.7929L75.7773 27.8089L75.8286 27.8271L75.8733 27.854L75.9188 27.8714L75.9549 27.9005L75.9961 27.9362L76.0372 27.9689L76.1043 28.0387L76.1354 28.0867L76.1635 28.1238L76.2119 28.2234L76.2523 28.3173L76.2769 28.4169L76.2993 28.5296L76.3094 28.6445V28.7536ZM76.6349 26.8009L76.5822 26.7246L76.5389 26.6496L76.4797 26.5929L76.4263 26.5282L76.3599 26.4642L76.2964 26.4031L76.2227 26.3595L76.1426 26.3122L76.0719 26.2715L75.9816 26.2351L75.9058 26.1987L75.8199 26.1755L75.7398 26.1529L75.573 26.1144L75.4785 26.1049L75.4308 26.0933H75.1659L75.0388 26.1057L74.9103 26.1282L74.7919 26.1529L74.6649 26.1769L74.5422 26.2147L74.4238 26.2606L74.3039 26.3122L74.1899 26.3653L74.0772 26.43L73.9654 26.5071L73.8542 26.5835L73.743 26.6656L73.6398 26.7602L73.5329 26.8606L73.434 26.9587L73.3337 27.0671L73.2398 27.1755L73.1438 27.2969L73.0608 27.4125L72.98 27.5304L72.907 27.6496L72.8291 27.7784L72.7699 27.8984L72.7013 28.0307L72.6428 28.1587L72.5865 28.2925L72.5475 28.4271L72.5021 28.5667L72.4638 28.7056L72.4248 28.8482L72.3967 28.9921L72.3779 29.1311L72.357 29.2801L72.344 29.4161L72.3404 29.5521V29.8278L72.3483 29.9478L72.3613 30.0743L72.3822 30.2081L72.4133 30.3318L72.453 30.4467L72.4826 30.5681L72.5273 30.6925L72.6306 30.9085L72.6926 31.0168L72.7619 31.1296L72.8248 31.2183L72.907 31.3128L72.98 31.3972L73.0608 31.4728L73.1525 31.5485L73.2435 31.6117L73.3395 31.6736L73.4398 31.715L73.5402 31.763L73.6484 31.7965L73.7611 31.827L73.878 31.8517L73.9993 31.8663L74.122 31.8815L74.2476 31.8866H74.3306L74.3588 31.8815L74.3999 31.8779L74.4974 31.8634L74.5876 31.8517L74.6837 31.8365L74.7833 31.8154L74.8764 31.7863L74.9724 31.7543L75.0699 31.7128L75.1659 31.6626L75.2092 31.6423L75.2547 31.6241L75.3485 31.5601L75.4416 31.4983L75.5239 31.4306L75.594 31.3608L75.6792 31.2787L75.7506 31.1899L75.8199 31.099H75.8437L75.7369 31.7034H77.4016L78.4029 26.2678H76.7346L76.6349 26.8009ZM72.3064 26.1987L72.6306 26.1915L72.2877 28.0387L72.2537 28.0373L72.2285 28.0147L72.1693 27.9827L72.0978 27.9529L72.0328 27.926L71.9679 27.9114L71.9072 27.8984L71.8321 27.8874L71.7621 27.8816L71.6885 27.8714H71.6098L71.4387 27.8874L71.3615 27.8911L71.2857 27.9005L71.2178 27.9245L71.1413 27.9427L71.0713 27.9689L71.0077 27.9922L70.9485 28.0307L70.8807 28.0642L70.8301 28.0976L70.7803 28.1442L70.7298 28.19L70.6793 28.2365L70.6367 28.2925L70.5984 28.3456L70.5197 28.47L70.4475 28.6002L70.3847 28.7391L70.3241 28.8736L70.2714 29.0314L70.2281 29.1856L70.1797 29.3543L70.1544 29.518L69.7415 31.7034H68.0746L69.0788 26.2678H70.7478L70.5847 27.1536H70.6071L70.6886 27.0416L70.7709 26.9296L70.8641 26.8315L70.9608 26.7246L71.0583 26.6446L71.1673 26.5646L71.2712 26.4984L71.4885 26.3813L71.5982 26.3311L71.7166 26.2926L71.8321 26.2606L71.9505 26.2351L72.061 26.2147L72.1823 26.1987H72.3064ZM68.5345 26.2678H67.5924L67.8942 24.6264H66.215L65.9162 26.2678H65.3733L65.0831 27.8642H65.6231L64.9207 31.7034H66.5969L67.2993 27.8642H68.2414L68.5345 26.2678ZM64.3301 27.3405L64.32 27.2453L64.2962 27.1449L64.2818 27.0562L64.2536 26.9675L64.2283 26.8773L64.1959 26.8009L64.1634 26.7246L64.1201 26.6446L64.0775 26.5755L64.0269 26.5071L63.975 26.4504L63.9114 26.3915L63.8493 26.3362L63.7772 26.2977L63.6999 26.2467L63.6234 26.2147L63.536 26.1842L63.4516 26.1587L63.3462 26.1333L63.2458 26.1144L63.1441 26.1049L63.0329 26.0933H62.7947L62.6763 26.1057L62.5564 26.1238L62.4445 26.1449L62.3406 26.1667L62.2337 26.1987L62.0258 26.2846L61.9248 26.3362L61.8316 26.4009L61.7284 26.4715L61.6288 26.55L61.527 26.6395L61.4368 26.742L61.3422 26.8467L61.2418 26.9587H61.2281L61.3595 26.2678H59.6782L58.6704 31.7034H60.3539L60.8701 28.8889L60.8939 28.7711L60.9264 28.6467L60.9646 28.5296L61.0051 28.4169L61.0505 28.3093L61.0982 28.2096L61.1588 28.1063L61.2195 28.0074L61.2505 27.9616L61.2844 27.9245L61.3241 27.8816L61.3617 27.8489L61.4086 27.8089L61.4396 27.7784L61.4844 27.758L61.527 27.7289L61.5833 27.7042L61.6894 27.6685L61.7371 27.6584L61.7948 27.6445L61.8569 27.6424L61.9147 27.6394H62.0742L62.1781 27.6496L62.2503 27.6685L62.3247 27.7042L62.3572 27.7245L62.3788 27.7398L62.4084 27.766L62.4351 27.7929L62.4561 27.814L62.472 27.8489L62.4987 27.8816L62.503 27.9158L62.5254 27.9827L62.5434 28.0605L62.5564 28.134L62.5658 28.2096L62.5701 28.2831V28.3631L62.5658 28.446L62.5564 28.5238L62.5535 28.5791L62.5434 28.6365L62.5377 28.6816L62.5254 28.7391L62.5196 28.7805L62.503 28.8409L62.5001 28.8852L62.4987 28.9441L62.4857 28.9681L62.4799 28.998L62.472 29.0314L62.4691 29.054L61.9796 31.7034H63.6544L64.2753 28.3478L64.3128 28.1078L64.3258 27.9922L64.3301 27.8714L64.3374 27.766L64.3424 27.6496V27.5464L64.3374 27.4424L64.3301 27.3405ZM55.0638 28.1987H57.005L57.0021 28.1063L56.9942 28.0147L56.974 27.926L56.9487 27.854L56.9205 27.7784L56.8823 27.7042L56.8375 27.6424L56.7812 27.5711L56.7177 27.5231L56.6643 27.4765L56.5964 27.4344L56.5257 27.4053L56.4542 27.3784L56.3762 27.3624L56.2975 27.3493H56.1228L56.0391 27.3624H56.0326L55.938 27.3784L55.8565 27.398L55.7698 27.4344L55.6854 27.4656L55.6139 27.5165L55.5316 27.5624L55.4544 27.6125L55.3807 27.6838L55.3172 27.758L55.2501 27.8271L55.2031 27.9114L55.1497 27.9994L55.1021 28.0903L55.0638 28.1987ZM58.4647 28.0074L58.4676 28.1587L58.4719 28.3093L58.4676 28.4569L58.4575 28.6198L58.4445 28.7805L58.4178 28.9463L58.3925 29.1143V29.1085L58.3542 29.3056H54.8328L54.8126 29.459L54.7989 29.5885L54.7917 29.7158L54.8018 29.835L54.8169 29.939L54.8451 30.0372L54.8877 30.1281L54.9086 30.1732L54.9324 30.2103L54.9591 30.2634L54.9858 30.2896L55.0154 30.3201L55.0566 30.3456L55.0934 30.3761L55.1273 30.4059L55.1721 30.427L55.2147 30.4467L55.2667 30.4678L55.3093 30.4845L55.3598 30.4961L55.4103 30.5056L55.5316 30.5208H55.7164H55.7886H55.855L55.9084 30.5027L55.9662 30.4845L56.0225 30.4634L56.0391 30.4539L56.086 30.4423L56.1394 30.4132L56.1986 30.3761L56.247 30.3427L56.2975 30.3034L56.351 30.2634L56.4 30.2081L56.4542 30.1507L56.5018 30.0969L56.543 30.0285H58.1586L58.1066 30.1507L58.0503 30.2634L58.0005 30.3703L57.9442 30.4845L57.8792 30.5856L57.82 30.6838L57.7486 30.7768L57.6778 30.8678L57.6056 30.9557L57.5284 31.035L57.4497 31.1165L57.3609 31.1885L57.2815 31.2568L57.0981 31.3877L57.0021 31.4408L56.9039 31.4983L56.8007 31.5397L56.7061 31.5856L56.6094 31.635L56.5163 31.6736L56.4145 31.7128L56.3185 31.747L56.2145 31.7725L56.1142 31.7965L56.0391 31.8183L56.0196 31.8241L55.9178 31.8379L55.8168 31.8634L55.7164 31.8663L55.6153 31.8779L55.5222 31.8815L55.4103 31.8866L55.2681 31.8815L55.1273 31.8779L54.996 31.8634L54.8638 31.8379L54.7325 31.8154L54.6126 31.7863L54.4928 31.7376L54.3758 31.7019L54.2683 31.6612L54.0539 31.5397L53.9514 31.4714L53.7723 31.3223L53.6749 31.2379L53.6027 31.155L53.5225 31.0503L53.4468 30.9557L53.3876 30.8459L53.3349 30.7368L53.2829 30.6219L53.2396 30.5027L53.2071 30.3703L53.1811 30.2445L53.163 30.1027L53.1436 29.9652L53.1421 29.8161V29.6649L53.1436 29.5056L53.163 29.3427L53.1854 29.1725L53.2107 28.998L53.2396 28.8329L53.2829 28.6714L53.3305 28.5071L53.3717 28.3631L53.4251 28.2096L53.4843 28.0642L53.5493 27.9245L53.6214 27.7929L53.6958 27.6584L53.7723 27.5304L53.8467 27.4053L53.9369 27.2904L54.0315 27.1755L54.1304 27.0736L54.2293 26.9675L54.3376 26.8707L54.4459 26.774L54.5563 26.6831L54.679 26.6082L54.7917 26.5282L54.9086 26.4569L55.0313 26.3944L55.154 26.3464L55.2797 26.2926L55.4038 26.2467L55.5359 26.1987L55.6673 26.1755L55.8009 26.1449L55.938 26.1238L56.0391 26.1144L56.0745 26.1057L56.2145 26.0933H56.5163L56.6556 26.1057L56.8007 26.1282L56.9335 26.1449L57.0642 26.1755L57.1811 26.2075L57.3068 26.2467L57.4201 26.3057L57.524 26.3493L57.6258 26.4118L57.7226 26.4809L57.8128 26.55L57.8965 26.6366L57.9781 26.7246L58.0503 26.8126L58.1189 26.9086L58.1824 27.0169L58.2387 27.1289L58.2871 27.2358L58.3333 27.3558L58.3716 27.4765L58.4026 27.6016L58.4322 27.7347L58.4502 27.8707L58.4647 28.0074ZM53.4186 23.9064L53.2367 23.8221L53.0519 23.7406L52.8671 23.665L52.6722 23.6061L52.5754 23.5944L52.4722 23.569L52.3718 23.5464L52.1632 23.5283L52.0578 23.5123H51.9604L51.8463 23.5021H51.7662L51.5857 23.5166L51.4052 23.5406L51.2233 23.569L51.0428 23.6061L50.8623 23.6562L50.6746 23.7261L50.4942 23.7952L50.3094 23.8722L50.1246 23.961L49.9484 24.0628L49.7723 24.1704L49.6026 24.2751L49.4424 24.3951L49.2814 24.5319L49.1233 24.6599L48.971 24.7973L48.6851 25.1013L48.5494 25.2679L48.41 25.4279L48.2945 25.6017L48.1747 25.7755L48.065 25.9573L47.9632 26.1529L47.8672 26.3464L47.7813 26.5391L47.6968 26.7246L47.6188 26.9296L47.5582 27.1245L47.4976 27.3275L47.4528 27.5231L47.4073 27.7289L47.3741 27.9529L47.3496 28.1689L47.3315 28.3769L47.3135 28.5907V28.7929L47.3315 28.998L47.3496 29.1914L47.3741 29.3892L47.4131 29.574L47.4586 29.763L47.5192 29.939L47.5892 30.1194L47.6629 30.2779L47.7589 30.4445L47.8571 30.6016L47.969 30.7514L48.0801 30.8888L48.2014 31.0117L48.3212 31.1347L48.4483 31.2503L48.5847 31.3507L48.7219 31.4517L48.867 31.5397L49.0179 31.6117L49.1731 31.6837L49.3362 31.747L49.4958 31.7965L49.6539 31.8379L49.8271 31.8779L50.0004 31.8961L50.1736 31.9055L50.3599 31.9186H50.4501L50.5404 31.9055L50.6234 31.9048L50.7129 31.8961L50.8017 31.8815L50.8891 31.8663L50.9735 31.8517L51.0623 31.8365L51.1749 31.8103L51.2904 31.7725L51.4052 31.7376L51.5193 31.7128L51.642 31.6736L51.7633 31.635L51.8896 31.5856L52.0167 31.5485L52.4722 29.0598L52.3805 29.1587L52.2845 29.2452L52.1899 29.3398L52.0961 29.4147L51.99 29.4889L51.8846 29.5543L51.7784 29.6285L51.6586 29.6816L51.5503 29.7434L51.4305 29.7849L51.3157 29.8278L51.2117 29.851L51.0919 29.8816L50.9858 29.9012L50.8717 29.9107H50.6573L50.5563 29.902L50.4602 29.8969L50.3743 29.8721L50.2812 29.851L50.1953 29.8278L50.1123 29.795L50.0314 29.763L49.9527 29.7158L49.882 29.667L49.8127 29.6285L49.7456 29.5674L49.6864 29.5056L49.6185 29.4438L49.5709 29.3732L49.472 29.222L49.4323 29.142L49.3832 29.054L49.3521 28.9681L49.3225 28.8794L49.2872 28.7805L49.2742 28.6947L49.2489 28.6002L49.2431 28.5005L49.2337 28.4002V28.19L49.2395 28.0773L49.2489 27.9689L49.2677 27.8642L49.2843 27.7398L49.3095 27.6227L49.3391 27.5165L49.3644 27.398L49.394 27.2904L49.4366 27.1842L49.4777 27.0824L49.5182 26.9813L49.6185 26.7827L49.6734 26.6831L49.7412 26.5987L49.7961 26.5035L49.864 26.4118L49.9383 26.3311L50.0119 26.2467L50.0863 26.1587L50.1599 26.0809L50.2444 26.0133L50.3274 25.9406L50.4097 25.8817L50.4942 25.8293L50.5844 25.7755L50.6746 25.7289L50.7649 25.6838L50.8623 25.6446L50.9497 25.6111L51.0479 25.5864L51.1396 25.5638L51.2399 25.5464L51.3359 25.5333L51.4355 25.5209H51.6586L51.7662 25.5333L51.8846 25.5544L51.9799 25.574L52.0874 25.6111L52.1899 25.6446L52.2845 25.6948L52.3819 25.7449L52.4823 25.806L52.5595 25.8708L52.6454 25.9391L52.7234 26.0191L52.792 26.1049L52.857 26.1915L52.9162 26.2926L52.9602 26.3915L53.4251 23.8984L53.4186 23.9064Z" fill="white"/>
<path fill-rule="evenodd" clip-rule="evenodd" d="M144.36 14.6725L144.577 12.3999H143.248L143.306 12.4791L143.371 12.5642L143.414 12.6646L143.451 12.7628L143.472 12.8631L143.494 12.9744V13.1009L143.487 13.2202L143.472 13.3031L143.458 13.3875L143.436 13.474L143.407 13.554L143.371 13.6275L143.342 13.6958L143.292 13.7766L143.191 13.8987L143.133 13.9722L143.061 14.0267L143.032 14.0478L142.989 14.0835L142.909 14.1395L142.83 14.1911L142.743 14.2398L142.649 14.282L142.519 14.3424L142.382 14.3845L142.245 14.4231L142.101 14.466L141.956 14.4871L141.805 14.5147L141.66 14.522L141.501 14.5322V14.6725L141.516 14.8064L141.538 14.9293L141.566 15.0449L141.602 15.1562L141.653 15.2456L141.711 15.3373L141.776 15.4202L141.812 15.4493L141.848 15.4827L141.891 15.514L141.935 15.5409L142.021 15.5911L142.129 15.6303L142.245 15.6645L142.36 15.6813L142.483 15.6922L142.628 15.6994L142.743 15.6922L142.866 15.6813L142.989 15.6645L143.032 15.6478L143.104 15.6303L143.22 15.5911L143.342 15.5489L143.451 15.4951L143.559 15.4325L143.667 15.3663L143.775 15.2907L143.884 15.1976L143.978 15.1169L144.079 15.0187L144.18 14.9082L144.266 14.7984L144.36 14.6725ZM136.34 10.893V10.7839V10.6893L136.333 10.6013L136.311 10.5126L136.282 10.4384L136.253 10.3679L136.21 10.2988L136.159 10.245L136.116 10.1912L136.051 10.1468L135.979 10.0959L135.907 10.0624L135.827 10.029L135.733 9.99772L135.64 9.96572L135.546 9.9439L135.43 9.92281L135.322 9.90536L135.192 9.89227L135.062 9.88281L134.918 9.87918L134.773 9.86682H134.629L134.47 9.87918L134.167 9.89227L133.9 9.92281L133.64 9.9439L133.394 9.97881L133.171 10.029L132.976 10.0763L132.875 10.1112L132.781 10.1417L132.694 10.1679L132.622 10.2108L132.535 10.245L132.463 10.2792L132.398 10.3221L132.333 10.3679L132.276 10.4021L132.225 10.4501L132.174 10.5017L132.124 10.5475L132.088 10.6013L132.052 10.6544L132.03 10.7119L131.994 10.7643L131.972 10.8239L131.958 10.8872L131.943 10.9446L131.929 11.0101V11.1344V11.245V11.341L131.958 11.4137V11.4486L131.98 11.4711L131.994 11.4959L132.008 11.5162L132.03 11.5315L132.052 11.5475H132.073L132.095 11.5511L132.124 11.5475L132.153 11.5366V11.525L132.16 11.5017H135.986L135.936 11.4486L136.022 11.3948L136.094 11.341L136.159 11.269L136.217 11.2042L136.26 11.1344L136.297 11.0653L136.318 10.9795L136.34 10.893ZM137.625 11.5017H150.33L150.236 12.3999H149.377L148.901 17.479H147.262L147.739 12.3999H146.208L145.739 17.479H144.093L144.201 16.3212L144.079 16.4056L143.956 16.4827L143.848 16.5569L143.732 16.618L143.602 16.6834L143.479 16.7394L143.364 16.7823L143.241 16.8361L143.118 16.882L143.032 16.8987L142.996 16.9096L142.873 16.9423L142.628 16.9838L142.505 16.9896L142.382 17.0092H142.259L142.05 17.0012L141.848 16.986L141.66 16.9598L141.48 16.9285L141.4 16.8987L141.307 16.8732L141.234 16.8449L141.148 16.8172L141.068 16.778L140.996 16.7394L140.924 16.6987L140.852 16.6529L140.78 16.618L140.715 16.5656L140.65 16.5183L140.592 16.4609L140.527 16.4143L140.469 16.3511L140.419 16.2892L140.354 16.226L140.325 16.1569L140.26 16.0885L140.216 16.0216L140.173 15.9387L140.094 15.7845L140.014 15.6129L139.964 15.4623L139.913 15.2929L139.87 15.1242L139.848 14.946L139.819 14.7482L139.805 14.5438L139.798 14.3424V14.1206L140.058 13.9918L140.065 14.002L140.072 14.0122H140.094H140.137L140.224 14.0151L140.339 14.0267L140.462 14.0151L140.577 14.0122H140.693L140.801 13.9918L140.917 13.9722L141.011 13.954L141.119 13.9155L141.213 13.8871L141.335 13.8333L141.436 13.7802L141.53 13.7169L141.581 13.6769L141.602 13.6442L141.639 13.6078L141.667 13.5627L141.696 13.5293L141.718 13.4835L141.732 13.4449L141.754 13.3962L141.769 13.3453L141.776 13.2958L141.783 13.2202V13.0784L141.776 13.0173L141.761 12.9424L141.747 12.882L141.732 12.8224L141.711 12.7628L141.675 12.7068L141.653 12.6551L141.61 12.6079L141.581 12.5642L141.53 12.5184L141.48 12.4777L141.429 12.4391L141.379 12.3999H138.448L138.325 13.7802H135.474L135.387 13.7853L135.322 13.7977L135.279 13.8151L135.243 13.8246L135.221 13.8384L135.192 13.858L135.141 13.8987L135.127 13.9315L135.12 13.9656L135.105 13.9984L135.091 14.0267L135.084 14.0573L135.076 14.0973V14.1504V14.1962V14.2435L135.091 14.282L135.105 14.3256L135.12 14.3547L135.141 14.3845L135.178 14.4093L135.206 14.4398L135.243 14.4609L135.286 14.4805L135.387 14.5045L135.445 14.5147L135.502 14.5184H137.221L137.286 14.522L137.444 14.5438L137.517 14.5562L137.589 14.5824L137.661 14.5998L137.733 14.6275L137.805 14.6565L137.863 14.6871L137.993 14.7744L138.058 14.8165L138.123 14.8594L138.181 14.9096L138.246 14.9678L138.296 15.0202L138.347 15.0864L138.404 15.1489L138.448 15.1976L138.484 15.2754L138.513 15.3373L138.542 15.4056L138.57 15.4827L138.592 15.5489L138.614 15.626L138.635 15.6994L138.643 15.7809L138.65 15.8558L138.657 15.9387V16.0216L138.65 16.1125L138.635 16.2165L138.621 16.338L138.592 16.4412L138.57 16.5431L138.542 16.6485L138.513 16.7481L138.469 16.8449L138.419 16.9423L138.376 17.031L138.325 17.1234L138.202 17.287L138.13 17.3765L138.058 17.4579L137.986 17.5299L137.906 17.6085L137.719 17.7525L137.632 17.8107L137.531 17.8667L137.437 17.9227L137.314 17.9765L137.213 18.0107L137.091 18.0616L136.982 18.0936L136.845 18.1263L136.73 18.1539L136.47 18.1918L136.34 18.2121H136.203H136.058H135.834L135.603 18.1874L135.38 18.1598L135.141 18.1219L134.824 18.0587L134.521 17.9816L134.246 17.9125L133.986 17.8332L133.748 17.7525L133.539 17.6659L133.431 17.6172L133.337 17.575L133.236 17.5183L133.163 17.479L133.091 17.4405L133.034 17.3954L132.969 17.3365L132.896 17.2863L132.831 17.2332L132.766 17.167L132.694 17.0885L132.629 17.0216L133.185 15.6645V15.6813L133.192 15.6994L133.2 15.7256L133.228 15.7554L133.286 15.8042L133.358 15.8711L133.459 15.9387L133.582 16.0216L133.734 16.1052L133.907 16.2071L134.102 16.3081L134.311 16.4143L134.506 16.4914L134.701 16.5707L134.903 16.6391L135.098 16.6834L135.293 16.7249L135.474 16.7627L135.603 16.778L135.726 16.7823L135.849 16.7947L135.964 16.7954L136.073 16.7947L136.181 16.7823L136.282 16.778L136.376 16.7627L136.448 16.7394L136.549 16.7198L136.614 16.6834L136.686 16.6529L136.744 16.6267L136.802 16.5831L136.845 16.5431L136.896 16.4892L136.932 16.4383L136.961 16.3794L136.982 16.3081L137.004 16.2456L137.018 16.1947V16.1409L137.004 16.0943L136.982 16.0514L136.961 16.0042L136.932 15.9612L136.896 15.922L136.845 15.8812L136.795 15.8405L136.751 15.8056L136.701 15.7845L136.657 15.7562L136.592 15.7467L136.528 15.7329L136.426 15.7227H134.961L134.889 15.7133L134.802 15.7038L134.651 15.6813L134.571 15.6645L134.506 15.6463L134.434 15.6129L134.362 15.5802L134.217 15.5191L134.145 15.4827L134.08 15.4325L134.015 15.3903L133.943 15.3416L133.878 15.2907L133.82 15.2325L133.748 15.1765L133.69 15.1169L133.64 15.05L133.604 14.9889L133.553 14.9242L133.517 14.8594L133.481 14.7984L133.452 14.7307L133.431 14.6565L133.409 14.5838L133.387 14.522V14.4507L133.38 14.3751V14.2238L133.387 14.1504L133.409 14.0769L133.416 14.002L133.445 13.9315L133.459 13.858L133.496 13.7853L133.524 13.7264L133.575 13.6609L133.611 13.5926L133.662 13.5351L133.712 13.474L133.77 13.4166L133.835 13.3591L133.9 13.2958L133.958 13.2435L134.037 13.1933L134.167 13.1133L134.311 13.0442L134.463 12.9744L134.614 12.9191L134.766 12.882L134.918 12.8566L135.076 12.8377L135.243 12.8282H136.831L136.874 12.3999H132.225L131.741 17.479H130.103L130.579 12.3999H129.72L129.814 11.5017H130.456L130.435 11.4486L130.413 11.3948L130.406 11.341L130.391 11.269L130.384 11.2042L130.377 11.1344L130.384 11.0719V10.9948L130.406 10.8501L130.435 10.7104L130.464 10.5643L130.5 10.4261L130.543 10.293L130.601 10.1679L130.666 10.0472L130.723 9.93445L130.803 9.82827L130.882 9.71627L130.969 9.62027L131.07 9.52064L131.171 9.42755L131.279 9.33955L131.395 9.25883L131.518 9.18319L131.647 9.11047L131.785 9.04647L131.929 8.97883L132.088 8.92283L132.239 8.86974L132.413 8.82247L132.579 8.77884L132.759 8.73665L132.947 8.70611L133.135 8.6792L133.337 8.65811L133.553 8.64357L133.77 8.62538L133.986 8.61448H134.463L134.716 8.62538L134.961 8.63848L135.199 8.65156L135.43 8.66902L135.64 8.69738L135.856 8.73374L136.051 8.76647L136.239 8.80865L136.419 8.85301L136.592 8.90683L136.744 8.96574L136.896 9.02901L137.026 9.09592L137.156 9.16865L137.271 9.24355L137.372 9.32719L137.444 9.39773L137.524 9.46537L137.589 9.54682L137.646 9.63118L137.697 9.71627L137.755 9.797L137.791 9.89736L137.827 9.99627L137.877 10.1912L137.899 10.3075L137.906 10.413L137.921 10.5337V10.6544L137.906 10.781L137.899 10.9053V10.9752L137.885 11.0348L137.877 11.1024L137.856 11.1628L137.834 11.2152L137.812 11.2632L137.791 11.3075L137.762 11.3497L137.675 11.4486L137.625 11.5017ZM129.879 10.8363L129.965 10.7563L130.038 10.6697L130.11 10.5868L130.16 10.493L130.211 10.3919L130.24 10.2886L130.276 10.181L130.29 10.0683L130.298 9.949L130.29 9.84427L130.283 9.73227L130.254 9.63918L130.218 9.54173L130.168 9.45155L130.11 9.3621L130.038 9.28064L129.965 9.2101L129.879 9.14392L129.792 9.08283L129.706 9.04283L129.604 9.0021L129.503 8.97883L129.402 8.96138L129.294 8.95701H129.171L129.056 8.96574L128.948 8.99119L128.839 9.02901L128.731 9.06174L128.63 9.12792L128.536 9.18319L128.428 9.25883L128.334 9.33955L128.262 9.42755L128.19 9.52064L128.125 9.62027L128.074 9.72064L128.038 9.83627L128.009 9.9439L127.995 10.0683L127.987 10.181L127.995 10.293L128.002 10.3454L128.009 10.3999L128.024 10.4501L128.052 10.5017L128.06 10.5475L128.081 10.6013L128.11 10.6421L128.139 10.6857L128.211 10.781L128.283 10.8544L128.37 10.9272L128.464 10.9912L128.543 11.0406L128.652 11.0792L128.753 11.1126L128.861 11.1344L128.969 11.1475L129.077 11.1555L129.186 11.1475L129.301 11.1279L129.402 11.1024L129.503 11.0719L129.604 11.0232L129.698 10.9752L129.792 10.9053L129.879 10.8363ZM122.45 12.3999H126.854L126.804 12.882H124.631L124.465 12.8966L124.313 12.9191L124.161 12.9475L124.017 12.9897L123.873 13.0442L123.743 13.1009L123.605 13.1671L123.533 13.2035L123.468 13.2435L123.403 13.2958L123.338 13.3453L123.281 13.3962L123.23 13.4573L123.18 13.5111L123.136 13.5627L123.1 13.6246L123.071 13.6944L123.035 13.7591L122.999 13.8231L122.977 13.9656L122.956 14.0318L122.949 14.106V14.2544L122.956 14.3256L122.977 14.394L122.985 14.4609L122.999 14.522L123.028 14.5824L123.057 14.6449L123.1 14.7016L123.129 14.7482L123.18 14.8064L123.23 14.8594L123.281 14.9082L123.346 14.9525L123.403 14.9925L123.468 15.0449L123.598 15.1169L123.728 15.1794L123.865 15.2325L124.003 15.2754L124.14 15.2994L124.299 15.33L124.465 15.3416L124.623 15.3474H126.053L126.125 15.3605L126.19 15.3663L126.212 15.3714L126.233 15.3903L126.262 15.4056L126.277 15.4311L126.291 15.4493L126.313 15.4653L126.32 15.4936L126.327 15.5191L126.334 15.5802V15.6551L126.32 15.7256L126.298 15.7932L126.269 15.85L126.233 15.9009L126.19 15.9387L126.139 15.9758L126.074 16.0042L125.995 16.0231L125.901 16.0412L125.757 16.0434H125.547L125.273 16.0514L125.013 16.0434L124.768 16.0332L124.53 16.0129L124.313 15.9874L124.111 15.9496L123.923 15.906L123.743 15.85L123.584 15.7932L123.403 15.7038L123.23 15.626L123.042 15.5409L122.869 15.4573L122.667 16.5052L122.811 16.5932L122.949 16.6718L123.1 16.7343L123.245 16.7823L123.338 17.0485L123.432 17.2863L123.526 17.5045L123.613 17.6921L123.656 17.7772L123.707 17.8558L123.757 17.9227L123.851 18.0587L123.901 18.1088L123.938 18.1598L123.988 18.1918L124.053 18.2499L124.132 18.3059L124.234 18.3459L124.327 18.3961L124.436 18.4354L124.551 18.4717L124.681 18.5023L124.811 18.535L124.963 18.5539L125.114 18.5801L125.28 18.6012L125.461 18.6128L125.641 18.623L125.836 18.6347L126.031 18.6434L126.248 18.647L126.414 18.6434L126.529 18.6347L126.616 18.623L126.652 18.6085L126.782 17.5925L126.392 17.5859L126.053 17.575L125.908 17.5605L125.771 17.5416L125.648 17.5299L125.54 17.5067L125.454 17.4805L125.367 17.4579L125.295 17.4325L125.237 17.3983L125.194 17.367L125.172 17.3285L125.158 17.3132L125.15 17.287V17.226L125.172 17.2078L125.179 17.178L125.194 17.1554H125.324H125.49H125.663L125.836 17.1489L126.009 17.1394H126.175L126.341 17.138L126.508 17.1234L126.688 17.1154L126.854 17.0885L127.013 17.0623L127.157 17.0274L127.294 16.986L127.41 16.9423L127.518 16.8863L127.626 16.8361L127.684 16.7947L127.735 16.7481L127.785 16.6987L127.843 16.6529L127.93 16.5569L127.966 16.4914L128.009 16.4383L128.052 16.3685L128.074 16.3081L128.103 16.2449L128.125 16.1678L128.146 16.0885L128.168 16.0129L128.19 15.9351L128.197 15.85L128.218 15.7562V15.6718V15.5802V15.5096L128.211 15.4231L128.197 15.3416L128.153 15.1976L128.125 15.1242L128.096 15.0638L128.06 14.9925L128.016 14.938L127.973 14.8798L127.922 14.8187L127.872 14.7744L127.814 14.7184L127.764 14.6725L127.699 14.6449L127.641 14.5998L127.59 14.5744L127.46 14.5147L127.33 14.466L127.186 14.4231L127.035 14.3991L126.883 14.3787H125.15L125.013 14.3751H124.919L124.84 14.3707L124.789 14.3547L124.753 14.3424L124.717 14.3256L124.696 14.3067L124.667 14.2755L124.652 14.2515L124.645 14.2107L124.631 14.1722V14.1395L124.645 14.0573L124.674 13.9984L124.717 13.9409L124.761 13.8987L124.811 13.8682L124.869 13.8427L124.934 13.8333L125.02 13.8246H128.298L128.435 12.3999H129.388L129.475 11.5017H122.537L122.45 12.3999ZM113.044 17.0456L113.058 17.1154L113.073 17.1867V17.3598L113.058 17.4463L113.044 17.5183L113.022 17.5925L112.986 17.6659L112.936 17.735L112.892 17.8019L112.842 17.8594L112.777 17.9227L112.712 17.9678L112.64 18.0107L112.568 18.0587L112.495 18.0827L112.423 18.1132L112.337 18.1321L112.264 18.1459L112.178 18.1539H112.098L112.012 18.1387L111.867 18.0979L111.802 18.0674L111.73 18.0252L111.665 17.9816L111.6 17.927L111.55 17.8667L111.499 17.8136L111.463 17.7525L111.434 17.679L111.413 17.6085L111.398 17.5299V17.3598L111.413 17.2725L111.434 17.1867L111.499 17.0274L111.543 16.9598L111.593 16.8863L111.651 16.8303L111.716 16.7692L111.788 16.7169L111.86 16.6718L111.932 16.6318L112.005 16.5932L112.084 16.5707L112.171 16.5569L112.243 16.5431H112.329H112.416L112.488 16.5569L112.568 16.5794L112.64 16.6041L112.705 16.6391L112.763 16.682L112.835 16.7249L112.892 16.778L112.929 16.8427L112.979 16.906L113.022 16.9663L113.044 17.0456ZM112.264 14.3067L112.272 14.2035L112.279 14.0973L112.308 13.7802L112.329 13.5046L112.351 13.2435L112.38 13.0209L112.402 12.8209L112.416 12.6522L112.423 12.5169L112.438 12.3999H114.048L113.845 14.5838L113.788 14.6449L113.73 14.6871L113.672 14.7424L113.614 14.7867L113.549 14.8318L113.484 14.8594L113.427 14.8893L113.362 14.9242L113.29 14.9525L113.225 14.9751L113.152 14.9889L113.087 15.0064L113.022 15.0136L112.95 15.0187L112.878 15.0202L112.799 15.0187H112.719L112.654 14.9925L112.582 14.9751L112.532 14.9525L112.474 14.9191L112.423 14.8798L112.38 14.834L112.344 14.778L112.308 14.7184L112.3 14.6515L112.279 14.578L112.264 14.4871V14.4078V14.3067ZM110.387 12.3999H110.842L110.835 12.4791L110.821 12.6079L110.806 12.7817L110.785 12.9897L110.763 13.2558L110.741 13.5613L110.712 13.914L110.669 14.3067L110.662 14.4093V14.5147L110.669 14.6144V14.7111L110.683 14.8027L110.698 14.8922L110.727 14.9889L110.748 15.0864L110.785 15.1765L110.813 15.2514L110.864 15.3474L110.914 15.4325L110.958 15.514L111.016 15.5976L111.073 15.6718L111.138 15.7554L111.196 15.8245L111.268 15.9009L111.34 15.9612L111.413 16.0216L111.492 16.0747L111.564 16.1271L111.644 16.1729L111.73 16.2165L111.817 16.2558L111.896 16.2892L111.983 16.3212L112.171 16.354L112.264 16.3685L112.358 16.3816L112.459 16.3867H112.64L112.827 16.3816L112.986 16.362L113.145 16.3387L113.152 16.338L113.297 16.3081L113.434 16.2645L113.578 16.2085L113.694 16.1409L113.578 17.479H115.217L115.477 14.7416L115.52 14.6849L115.578 14.6275L115.636 14.5838L115.686 14.5438L115.744 14.498L115.809 14.466L115.867 14.4231L115.924 14.3991L115.989 14.3751L116.047 14.3518L116.112 14.3256L116.184 14.3096L116.249 14.3067L116.314 14.2842H116.386L116.459 14.282L116.574 14.2842L116.682 14.2987L116.784 14.3067L116.87 14.3256L116.95 14.3547L117.022 14.3845L117.087 14.4231L117.152 14.4704L117.195 14.5184L117.238 14.578L117.274 14.6449L117.303 14.7082L117.325 14.7867L117.332 14.8594V15.0449L117.325 15.1205L117.303 15.1976L117.274 15.2616L117.253 15.33L117.217 15.3903L117.166 15.4442L117.116 15.4936L117.058 15.5409L116.993 15.5678L116.928 15.6114L116.848 15.634L116.769 15.6551L116.682 15.6718L116.581 15.682L116.48 15.6922L116.372 15.6994L116.242 15.6922L116.112 15.6813L116.054 15.6718L115.997 15.6551L115.946 15.634L115.903 15.6129L115.78 16.7954L115.816 16.8303L115.845 16.8514L115.888 16.882L115.924 16.906L115.975 16.9285L116.026 16.9423L116.076 16.9598L116.127 16.9743L116.249 16.9896L116.386 17.0092L116.538 17.0107L116.697 17.0092L116.812 17.0012L116.921 16.986L117.029 16.9743L117.13 16.9598L117.238 16.9423L117.332 16.9147L117.426 16.8863L117.527 16.8609L117.614 16.8361L117.708 16.7947L117.787 16.7532L117.881 16.7169L117.953 16.6718L118.04 16.6267L118.119 16.5707L118.191 16.5154L118.271 16.4587L118.343 16.3816L118.422 16.3081L118.487 16.2449L118.552 16.1634L118.617 16.0849L118.668 15.9969L118.718 15.9111L118.769 15.8245L118.805 15.7256L118.848 15.634L118.906 15.4311L118.935 15.3278L118.956 15.21L118.971 15.1016L118.978 14.9802L118.985 14.8624V14.762L118.978 14.6515L118.971 14.5438L118.935 14.3322L118.906 14.2398L118.877 14.1395L118.834 14.0478L118.798 13.9656L118.747 13.8682L118.697 13.7947L118.639 13.7104L118.567 13.6275L118.502 13.5613L118.429 13.4929L118.364 13.4267L118.278 13.3729L118.206 13.3169L118.119 13.2711L118.04 13.2202L117.939 13.1897L117.852 13.1438L117.758 13.1133L117.657 13.0878L117.556 13.0617L117.455 13.0442L117.339 13.0209L117.231 13.0078L117.116 12.994H116.798L116.61 13.0173L116.43 13.0442L116.249 13.0711L116.076 13.122L115.91 13.1737L115.758 13.2435L115.607 13.3257L115.693 12.3999H119.52L119.606 11.5017H110.474L110.387 12.3999ZM110.568 11.1635L110.669 11.1221L110.77 11.0719L110.871 11.0101L110.965 10.9512L111.095 10.8632L111.218 10.7643L111.34 10.6595L111.441 10.541L111.543 10.413L111.636 10.2886L111.716 10.1468L111.802 9.99772L111.882 9.82827L111.947 9.65446L112.012 9.48864L112.091 9.32283H110.322L110.308 9.40064L110.294 9.48137L110.258 9.56137L110.214 9.62391L110.171 9.68645L110.12 9.74609L110.063 9.80645L109.99 9.85154L109.911 9.89736L109.832 9.93445L109.738 9.96572L109.629 10.0028L109.514 10.0188L109.406 10.0355L109.276 10.053L109.146 10.0683H109.001L108.879 10.053L108.756 10.0355L108.648 10.0123L108.597 9.99627L108.554 9.96427L108.496 9.9439L108.453 9.92281L108.409 9.88281L108.373 9.85154L108.337 9.81882L108.294 9.77591L108.236 9.73154L108.207 9.67118L108.157 9.60718L108.128 9.55555L108.113 9.49955L108.099 9.43846L108.092 9.37373L108.099 9.32283H106.352L106.388 9.48864L106.431 9.65446L106.468 9.82827L106.518 9.99772L106.576 10.1417L106.634 10.2763L106.713 10.4021L106.785 10.5264L106.879 10.6421L106.98 10.7497L107.081 10.8501L107.197 10.9439L107.283 10.9948L107.363 11.0522L107.464 11.1024L107.55 11.1555L107.651 11.189L107.753 11.2406L107.868 11.269L107.976 11.2981L108.092 11.341L108.215 11.3504L108.337 11.381L108.467 11.3948L108.604 11.4137L108.742 11.4188L108.879 11.4282L109.016 11.4297H109.167L109.312 11.4282L109.463 11.4188L109.593 11.4086L109.723 11.3912L109.86 11.3664L109.983 11.3497L110.229 11.2842L110.351 11.2493L110.46 11.2152L110.568 11.1635ZM103.409 12.3759L103.493 11.5017H110.135L110.048 12.3999H109.189L108.713 17.479H107.067L107.55 12.3999H106.691V12.3759H106.045L105.564 17.479H103.922L104.163 14.9242H102.901L102.964 14.2544L103.014 13.7802H104.272L104.409 12.3759H103.409ZM102.995 15.4623L102.98 15.3474L102.964 15.3082L102.946 15.2456L102.914 15.1394L102.871 15.0449L102.816 14.946L102.754 14.8536L102.696 14.7649L102.616 14.6725L102.536 14.5838L102.443 14.5147L102.338 14.4282L102.237 14.3547L102.116 14.282L102.217 14.2398L102.31 14.1816L102.471 14.0813L102.548 14.0151L102.616 13.9569L102.685 13.8936L102.746 13.8231L102.801 13.7482L102.839 13.6704L102.887 13.5926L102.952 13.4187L102.964 13.3744L102.98 13.3293L102.995 13.2398L103.023 13.1438V13.0333L103.029 12.9308L103.023 12.8282L103.014 12.7344L102.992 12.634L102.964 12.5453L102.924 12.4573L102.887 12.3759L102.839 12.2966L102.784 12.2151L102.717 12.1417L102.654 12.0711L102.574 12.0013L102.492 11.9402L102.397 11.877L102.296 11.8181L102.214 11.773L102.124 11.7366L102.038 11.7002L101.948 11.661L101.849 11.6377L101.749 11.6093L101.653 11.5788L101.556 11.5621L101.338 11.5315L101.115 11.509L100.892 11.4959L100.653 11.5017L100.507 11.509L100.347 11.525L100.204 11.5511L100.046 11.5781L99.8896 11.6137L99.7358 11.6588L99.5806 11.7068L99.4239 11.7628L99.263 11.8333L99.094 11.9177L98.9294 11.9817L98.7627 12.053L99.2225 13.2093L99.3886 13.122L99.551 13.0486L99.7243 12.9897L99.8896 12.9424L100.06 12.9024L100.233 12.8726L100.583 12.8493H100.675L100.765 12.8515L100.848 12.8566L100.925 12.8726L100.999 12.8893L101.06 12.9133L101.115 12.9366L101.174 12.9628L101.206 12.994L101.25 13.0333L101.278 13.0784L101.309 13.122L101.323 13.1671L101.33 13.2202L101.338 13.282L101.33 13.3453L101.323 13.3962L101.31 13.4573L101.297 13.5046L101.278 13.5453L101.253 13.5897L101.227 13.6246L101.201 13.6609L101.164 13.6944L101.127 13.7169L101.089 13.7373L101.042 13.7591L100.992 13.7686L100.937 13.7766L100.885 13.7802H99.5907L99.4961 14.8064H100.646L100.724 14.8187L100.8 14.834L100.874 14.8536L100.937 14.8776L100.999 14.8922L101.047 14.9242L101.091 14.9576L101.174 15.0354L101.201 15.0864L101.227 15.1242L101.242 15.1794L101.253 15.2325L101.264 15.2907V15.3605V15.4231L101.25 15.5271L101.227 15.634L101.19 15.7256L101.157 15.8238L101.109 15.9009L101.06 15.9612L100.999 16.0216L100.925 16.0652L100.865 16.1052L100.797 16.1271L100.721 16.1569L100.634 16.1729L100.542 16.1947L100.434 16.2085L100.315 16.2165L100.198 16.226H100.122L100.039 16.2165H99.9625L99.8044 16.1882L99.7286 16.1634L99.6549 16.1409L99.5734 16.1125L99.499 16.0747L99.4153 16.0412L99.3424 15.9969L99.263 15.9496L99.1814 15.906L99.1121 15.8405L99.0406 15.7845L98.967 15.7227L98.8688 15.6463L98.7757 15.5649L98.6919 15.4827L98.6147 15.4005L98.5374 15.3096L98.4653 15.2194L98.3931 15.1242L98.3274 15.0274L97.4582 16.1569L97.5138 16.2558L97.5925 16.3511L97.6726 16.4471L97.7549 16.5431L97.8545 16.6485L98.0689 16.8427L98.1917 16.9321L98.3028 17.0216L98.4104 17.0972L98.5302 17.178L98.6414 17.2463L98.7555 17.3132L98.8739 17.367L98.9922 17.4245L99.115 17.4689L99.2377 17.5154L99.3619 17.5561L99.4961 17.5925L99.6189 17.6238L99.7553 17.6543L99.8896 17.6732L100.032 17.679L100.164 17.7001L100.26 17.7038H100.359L100.456 17.7125H100.552L100.693 17.7038H100.832L100.964 17.6921L101.099 17.679L101.227 17.6659L101.349 17.6398L101.464 17.6172L101.572 17.5925L101.678 17.5605L101.786 17.5183L101.886 17.4805L101.985 17.4463L102.079 17.3983L102.158 17.3452L102.244 17.287L102.329 17.2332L102.397 17.167L102.471 17.1067L102.536 17.0456L102.594 16.9663L102.659 16.8863L102.705 16.8172L102.754 16.7249L102.801 16.6391L102.839 16.5431L102.872 16.4587L102.904 16.354L102.942 16.2558L102.961 16.1438L102.964 16.1176L102.98 16.0412L102.995 15.922L103.005 15.8042L103.014 15.682L103.005 15.5678L102.995 15.4623ZM85.897 12.3999H89.6516L89.4018 15.074L89.3455 15.1205L89.2921 15.1794L89.2372 15.226L89.1809 15.2754L89.1202 15.3169L88.9946 15.4005L88.9196 15.4231L88.8539 15.4573L88.7716 15.4827L88.703 15.4951L88.6149 15.5191L88.5333 15.5271L88.4489 15.5474L88.3659 15.5489L88.2771 15.5569H88.1948L88.1291 15.5489L88.067 15.5409L88.0035 15.5191L87.9472 15.4951L87.888 15.4718L87.8316 15.4325L87.7847 15.4005L87.7414 15.3474L87.7089 15.2929L87.6735 15.2413L87.6533 15.1765L87.6353 15.1016V15.0202V14.946V14.8536L87.6519 14.7744L87.6735 14.6871L87.6945 14.6173L87.7198 14.5438L87.7609 14.4871L87.8013 14.4231L87.8483 14.3751L87.8988 14.3256L87.9594 14.2755L88.0201 14.2435L88.0995 14.2107L88.1652 14.1809L88.2489 14.1591L88.3334 14.1395L88.4294 14.1271L88.5247 14.1206H88.6308L88.7225 14.1395L88.8214 14.1591L88.9058 14.1911L88.9946 14.2398L89.0733 14.2987L89.1592 14.3707L89.2372 14.4456L89.3556 13.1897L89.3036 13.1438L89.2552 13.1046L89.1917 13.0682L89.1253 13.0333L89.0611 12.994L88.9975 12.9744L88.9196 12.9475L88.8539 12.9191L88.7716 12.9024L88.6943 12.882L88.6055 12.8726L88.5196 12.8566L88.3334 12.8377L88.1291 12.8282L88.0316 12.8377L87.919 12.8493L87.8259 12.8566L87.7198 12.8726L87.6158 12.8893L87.5256 12.9133L87.4267 12.9475L87.3436 12.9831L87.2476 13.0209L87.1689 13.0682L87.0794 13.1133L86.9964 13.1671L86.9192 13.2202L86.8333 13.2929L86.7668 13.3526L86.6889 13.4187L86.6174 13.5046L86.5539 13.5824L86.4875 13.6609L86.4297 13.7424L86.372 13.8246L86.3214 13.914L86.2731 14.002L86.2312 14.0973L86.1872 14.1962L86.1518 14.2987L86.1193 14.394L86.0911 14.498L86.0673 14.5998L86.0478 14.7111L86.0348 14.8187L86.0211 14.938L86.011 15.05V15.3634L86.0211 15.4623L86.0348 15.5569L86.0565 15.6478L86.0731 15.7467L86.0984 15.8325L86.1648 15.9969L86.2095 16.0747L86.2521 16.1569L86.2983 16.226L86.3453 16.3016L86.4073 16.3685L86.468 16.4383L86.5301 16.5016L86.5986 16.5569L86.6679 16.6041L86.7358 16.6529L86.8102 16.6987L86.8896 16.7394L86.9639 16.778L87.0433 16.8085L87.1292 16.8361L87.2123 16.8609L87.2982 16.8732L87.3884 16.8834L87.4887 16.8987L87.5804 16.906H87.6829L87.8836 16.8863L88.0793 16.8732L88.2771 16.8427L88.4727 16.7947L88.6734 16.7343L88.8705 16.6718L89.0719 16.5831L89.2639 16.4914L89.1722 17.479H90.8145L91.0759 14.7416L91.1322 14.6725L91.1899 14.6093L91.2535 14.5438L91.3098 14.4871L91.3675 14.4398L91.4383 14.394L91.496 14.3518L91.5538 14.3067L91.613 14.2755L91.6815 14.2515L91.7415 14.2238L91.7978 14.2035L91.8678 14.1816L91.9227 14.1809L92.0468 14.162L92.1724 14.1722L92.2728 14.1809L92.3688 14.1911L92.459 14.2035L92.5377 14.2238L92.5998 14.2515L92.6576 14.282L92.7081 14.3256L92.742 14.3584L92.7817 14.4078L92.8084 14.4609L92.82 14.5184L92.8481 14.6565L92.8525 14.7424V14.834L92.8481 14.9293L92.8395 15.0202L92.8265 15.1096L92.8084 15.1867L92.7817 15.2514L92.742 15.3278L92.7016 15.3787L92.6576 15.4442L92.6164 15.4827L92.5558 15.5191L92.493 15.5649L92.4323 15.5911L92.3471 15.6114L92.2728 15.6303L92.1869 15.634L92.0981 15.6463L92.0273 15.634L91.9609 15.6303L91.9032 15.626L91.8288 15.5991L91.7566 15.5802L91.6844 15.5649L91.6159 15.5271L91.5494 15.4951L91.4072 16.9838L91.4578 17.0456L91.5126 17.0885L91.5538 17.1183L91.5928 17.1394L91.6455 17.1554L91.7061 17.167L91.7819 17.1867H91.8635L91.9501 17.194H92.2786L92.3883 17.1867L92.493 17.178L92.5955 17.167L92.7002 17.1489L92.7969 17.1234L92.8929 17.0972L92.9889 17.0623L93.082 17.031L93.1694 16.9896L93.2654 16.9598L93.3528 16.9096L93.4358 16.8609L93.5231 16.8085L93.6076 16.7481L93.6856 16.6834L93.7686 16.6267L93.8501 16.5431L93.9267 16.4769L94.0054 16.3925L94.0747 16.3081L94.1411 16.226L94.2003 16.1409L94.2537 16.0514L94.3071 15.9612L94.3605 15.8711L94.3945 15.77L94.4739 15.5649L94.4948 15.4623L94.5287 15.3474L94.5655 15.1242L94.5706 15.0064L94.5836 14.8856V14.6565L94.5655 14.5438L94.554 14.4456L94.5331 14.3424L94.5092 14.2398L94.4739 14.1395L94.4342 14.0435L94.3497 13.858L94.2905 13.7686L94.2342 13.6857L94.175 13.5962L94.1014 13.5169L94.0241 13.4449L93.9462 13.3729L93.8732 13.2958L93.7881 13.2398L93.7065 13.1897L93.6206 13.1228L93.5289 13.0878L93.4343 13.0442L93.3398 12.994L93.2416 12.9649L93.1369 12.9424L93.0351 12.9191L92.9239 12.9024L92.8128 12.8893L92.7016 12.882H92.5125L92.4323 12.8893L92.3471 12.8966L92.2656 12.9133L92.1024 12.9424L91.9299 12.9897L91.7566 13.0486L91.5733 13.122L91.3928 13.2202L91.208 13.3111L91.2924 12.3999H95.6498L95.7357 11.5017H85.9785L85.897 12.3999ZM86.0868 11.1475L85.9742 11.1344L85.8688 11.1126L85.7685 11.0792L85.6739 11.0406L85.5808 10.9912L85.4905 10.9272L85.4032 10.8544L85.3245 10.781L85.261 10.6857L85.2328 10.6421L85.209 10.6013L85.1808 10.5475L85.1606 10.5017L85.1483 10.4501L85.1339 10.3999L85.1267 10.3454L85.1202 10.293L85.1115 10.181L85.1202 10.0683L85.1325 9.9439L85.1606 9.83627L85.2003 9.72064L85.2465 9.62027L85.3021 9.52064L85.3779 9.42755L85.458 9.33955L85.5512 9.25883L85.6472 9.18319L85.7519 9.12792L85.8515 9.06174L85.959 9.02901L86.0673 8.99119L86.1785 8.96574L86.2947 8.95701H86.4073L86.5185 8.96138L86.6297 8.97883L86.7214 9.0021L86.8203 9.04283L86.9192 9.08283L87.0051 9.14392L87.091 9.2101L87.1689 9.28064L87.2375 9.3621L87.2924 9.45155L87.3436 9.54173L87.3812 9.63918L87.4057 9.73227L87.4194 9.84427V9.949L87.4108 10.0683L87.3884 10.181L87.3617 10.2886L87.3278 10.3919L87.2743 10.493L87.2209 10.5868L87.1545 10.6697L87.091 10.7563L87.0051 10.8363L86.9148 10.9053L86.813 10.9752L86.7214 11.0232L86.6232 11.0719L86.5228 11.1024L86.4239 11.1279L86.3157 11.1475L86.2016 11.1555L86.0868 11.1475ZM81.2876 15.3474L81.123 15.4005L81.0378 15.4202L80.9664 15.4311L80.9 15.4325L80.8379 15.4442L80.718 15.4493H80.6083L80.5137 15.4442L80.4177 15.4325L80.339 15.4231L80.2625 15.4005L80.1975 15.3787L80.1499 15.3634L80.0864 15.3278L80.0402 15.2754L80.0019 15.2194L79.968 15.1562L79.9441 15.074L79.9326 14.9925V14.9082L79.9398 14.8064L79.9535 14.7307L79.968 14.6565L79.981 14.5969L80.0019 14.5365L80.0142 14.4871L80.0358 14.4398L80.064 14.3991L80.0864 14.3707L80.1383 14.3256L80.191 14.282L80.2416 14.2435L80.2921 14.2035L80.705 14.5824L81.4724 15.2907L81.2876 15.3474ZM85.4342 11.5017H85.0213L84.9845 11.4013L84.9101 11.2282L84.8408 11.0719L84.7607 10.9053L84.6827 10.7388L84.5925 10.5788L84.5037 10.4261L84.412 10.2683L84.3095 10.1112L84.212 9.96427L84.1045 9.81445L83.9962 9.66318L83.8865 9.52064L83.7608 9.37373L83.6497 9.23846L83.5421 9.12792L83.4281 9.0021L83.3292 8.89956L83.2194 8.79193L83.1068 8.69447L82.9855 8.59193L82.8707 8.49957L82.7581 8.39993L81.6024 9.35337L81.7583 9.45155L81.9207 9.55555L82.0759 9.67118L82.2181 9.78827L82.3661 9.91336L82.5112 10.0472L82.6455 10.181L82.7791 10.3279L82.9104 10.4835L83.0303 10.6421L83.1458 10.8123L83.2642 10.9832L83.3761 11.1635L83.4757 11.3504L83.558 11.5017H83.0093L82.9812 11.4486L82.8823 11.2952L82.7682 11.1279L82.6498 10.9628L82.5112 10.8035L82.3524 10.6355L82.1763 10.4653L82.0254 10.3148L81.8557 10.1679L81.6868 10.029L81.4962 9.89227L80.7375 10.9512L80.8083 10.9577L80.8805 10.9752L80.9462 10.9912L81.0111 11.0173L81.066 11.0406L81.131 11.0792L81.1887 11.1221L81.2465 11.1635L81.2963 11.2159L81.4002 11.341L81.4861 11.4828L81.5006 11.5017H78.2946L78.2065 12.3999H82.6311L82.3957 14.8536L82.3012 14.9082L82.242 14.938L82.1763 14.9751L82.1192 14.9925L82.0759 15.0202L82.042 15.0449L80.8732 13.9315L80.9873 13.914L81.092 13.8936H81.1887L81.2725 13.8871L81.3793 13.8936L81.4962 13.914L81.6276 13.9366L81.7799 13.9802L81.9121 14.0151L82.0254 14.0478L82.1099 14.0653L82.1691 14.0769L82.2947 13.0617L82.2636 13.0333L82.2181 13.0078L82.1748 12.9897L82.1192 12.9649L81.9871 12.9366L81.8247 12.9133L81.6276 12.882L81.4002 12.8726L81.1396 12.8631L80.848 12.8566H80.7267L80.705 12.8624L80.6083 12.8631L80.4935 12.8726L80.3809 12.882L80.1571 12.9191L80.051 12.9424L79.9398 12.9649L79.8351 12.994L79.742 13.0333L79.6366 13.0682L79.5421 13.1046L79.4475 13.1438L79.3515 13.1933L79.2627 13.2435L79.1753 13.2958L79.0728 13.3729L78.9855 13.4449L78.888 13.5169L78.8158 13.5926L78.7386 13.6769L78.6649 13.7591L78.6014 13.8536L78.5379 13.9409L78.4888 14.0435L78.4469 14.1395L78.3957 14.2515L78.3603 14.3547L78.3307 14.466L78.3026 14.5824L78.2845 14.7016L78.2758 14.8187L78.2672 14.938V15.05L78.2758 15.1576L78.2845 15.2616L78.2968 15.3663L78.3264 15.4653L78.3552 15.5649L78.387 15.6645L78.4238 15.7554L78.4707 15.8369L78.5242 15.9278L78.5877 16.0042L78.6556 16.0849L78.7227 16.1634L78.7963 16.2376L78.8837 16.3081L78.9595 16.362L79.036 16.4151L79.1104 16.4674L79.197 16.5154L79.2742 16.5569L79.3659 16.5932L79.4475 16.6318L79.5305 16.6529L79.6251 16.6834L79.7139 16.7074L79.8128 16.7249L79.9073 16.7394L80.0048 16.7532L80.103 16.7627H80.3022L80.5852 16.7481L80.705 16.7343H80.718L80.8574 16.7198L80.9873 16.6987L81.1158 16.6834L81.2465 16.6529L81.3649 16.6318L81.4861 16.5932L81.6052 16.5656L81.7208 16.5263L81.8377 16.4892L81.9503 16.4412L82.0586 16.3925L82.1618 16.3387L82.2636 16.2943L82.1561 17.479H83.7818L84.2669 12.3999H85.3317L85.4075 11.7424L85.4342 11.5017ZM55.5562 11.5017H76.6111L76.5259 12.3999H74.9869L74.8764 13.4609L74.9609 13.5417L75.023 13.6166L75.1428 13.7853L75.1897 13.8871L75.233 13.9802L75.267 14.0966L75.3038 14.2035L75.3305 14.3256L75.3485 14.4398L75.3659 14.5744L75.376 14.7082L75.3825 14.8464L75.376 14.9802L75.3659 15.1293L75.3514 15.2907L75.3435 15.4231L75.3189 15.5569L75.2857 15.682L75.2641 15.8056L75.2265 15.9351L75.1897 16.0514L75.1428 16.1678L75.0894 16.2892L75.0388 16.3925L74.9724 16.5052L74.9176 16.61L74.8425 16.7169L74.7667 16.8172L74.6916 16.9147L74.6042 17.0092L74.5227 17.0972L74.4339 17.1867L74.3408 17.2725L74.2419 17.3452L74.1451 17.4129L74.0585 17.4805L73.9574 17.5416L73.8556 17.5925L73.7611 17.6398L73.66 17.679L73.5553 17.7205L73.4499 17.7598L73.3467 17.7808L73.2435 17.8019L73.1323 17.8136L72.9164 17.8288H72.6428L72.4017 17.8136L72.196 17.799L72.017 17.7772L71.9325 17.7605L71.8603 17.7481L71.7975 17.7205L71.7383 17.7125L71.6957 17.679L71.6517 17.6659L71.6185 17.6398L71.5889 17.6121L71.7058 16.362L71.7383 16.3925L71.7997 16.4311L71.913 16.4609L72.0581 16.5016L72.2162 16.5358L72.357 16.5569L72.492 16.5656H72.6219L72.7179 16.5569L72.8125 16.5358L72.897 16.5052L72.9727 16.4769L73.1323 16.3685L73.1973 16.3081L73.2608 16.226L73.3171 16.1438L73.3705 16.0514L73.4189 15.9525L73.4622 15.8369L73.499 15.7227L73.5329 15.5911L73.5597 15.4493L73.5806 15.2994L73.5979 15.1656L73.6116 15.0449V14.9242L73.6022 14.8165L73.5936 14.7111L73.5683 14.6173L73.5481 14.5365L73.5214 14.4609L73.4961 14.4187L73.468 14.3787L73.4398 14.3518L73.4189 14.3096L73.3835 14.282L73.351 14.2544L73.3171 14.2304L73.2817 14.2107L73.2435 14.1911L73.1973 14.1722L73.1604 14.1591L73.1114 14.1475L73.011 14.1395H72.9071H72.8125L72.7309 14.1591L72.6472 14.1816L72.5714 14.2238L72.4992 14.2711L72.4248 14.3256L72.357 14.394L72.2906 14.4704L72.2285 14.578L72.1693 14.6725L72.1382 14.7744L72.0978 14.8536L72.0437 15.4005H70.5017L70.5674 14.7482L70.5551 14.6725L70.5356 14.5998L70.5197 14.5365L70.4872 14.4871L70.4367 14.4282L70.3912 14.3845L70.3241 14.3518L70.2606 14.3096L70.1797 14.2842L70.0967 14.2711L70.005 14.2544L69.9061 14.2515H69.7949L69.6881 14.2711L69.6441 14.2755L69.6007 14.2987L69.5553 14.3067L69.5134 14.3256L69.4679 14.3547L69.4253 14.3787L69.3878 14.4093L69.3539 14.4456L69.3214 14.4805L69.286 14.5184L69.2564 14.5562L69.2254 14.5998L69.1857 14.6725L69.1561 14.762L69.1185 14.8536L69.086 14.9576L69.0579 15.074L69.0333 15.1976L69.0066 15.3373L68.9871 15.4827L68.9799 15.6303L68.972 15.7642L68.9799 15.8878L68.9943 16.0129L69.0239 16.1242L69.0629 16.226L69.086 16.2718L69.1099 16.3256L69.1395 16.3685L69.1705 16.4143L69.2326 16.4827L69.299 16.5431L69.3647 16.5932L69.4354 16.6318L69.5134 16.6529L69.582 16.682L69.6664 16.6834H69.7458L69.8245 16.6718L69.9162 16.6485L70.0137 16.618L70.1191 16.5831L70.2281 16.5431L70.3407 16.4892L70.4649 16.4311L70.6071 16.362L70.4706 17.7205L70.4367 17.7525L70.4013 17.7772L70.3551 17.799L70.3082 17.8136L70.1797 17.8558L70.0433 17.8856L69.8614 17.9125L69.678 17.927L69.4564 17.9372L69.2167 17.9423L68.9987 17.927L68.8954 17.9227L68.7937 17.8979L68.6955 17.8667L68.6038 17.8427L68.5049 17.8019L68.3215 17.7125L68.227 17.6543L68.1454 17.5925L68.0609 17.5299L67.9844 17.4579L67.9173 17.3765L67.827 17.287L67.6841 17.1154L67.6184 17.0107L67.5585 16.9096L67.5022 16.8085L67.4473 16.6987L67.4069 16.5932L67.3686 16.4827L67.3333 16.362L67.308 16.2456L67.2842 16.1271L67.2654 16.0042L67.2575 15.8812L67.2531 15.7562L67.2445 15.6303L67.2531 15.4936L67.2654 15.3634L67.2726 15.226L67.2921 15.0885L67.3217 14.9576L67.3542 14.8318L67.3939 14.7082L67.4322 14.5838L67.4841 14.4704L67.5332 14.3584L67.6502 14.1395L67.7209 14.0318L67.7931 13.9366L67.8732 13.8384L67.9534 13.7482L68.0436 13.6609L68.1338 13.57L68.227 13.4929L68.3114 13.4267L68.406 13.3671L68.4948 13.3031L68.5908 13.2435L68.6868 13.1933L68.7857 13.1438L68.8897 13.1133L68.9871 13.0784L69.0889 13.0471L69.1958 13.0209L69.304 12.9897L69.4044 12.9744L69.5156 12.9628L69.6318 12.9584L69.7415 12.9475L69.8852 12.9584L70.0223 12.9628L70.1544 12.9744L70.2714 12.994L70.3927 13.0238L70.5125 13.0682L70.628 13.1046L70.7399 13.1591L70.833 13.2202L70.9355 13.282L71.0272 13.3591L71.1189 13.4449L71.199 13.5169L71.2857 13.6166L71.3557 13.7169L71.4279 13.8246L71.5196 13.7104L71.6351 13.57L71.7773 13.4166L71.952 13.2398L72.0697 13.1671L72.1779 13.1133L72.2906 13.0682L72.3923 13.0209L72.4992 12.9897L72.5981 12.9649L72.6927 12.9584L72.7843 12.9475L72.897 12.9584L73.011 12.9628L73.128 12.9744L73.2593 12.994L73.3171 12.3999H66.1883L66.0259 14.0573H63.9562L63.8154 14.0973L63.6898 14.1395L63.5772 14.1911L63.4617 14.2435L63.3628 14.3067L63.274 14.3707L63.1881 14.4282L63.1101 14.5045L63.0524 14.5838L62.978 14.6638L62.926 14.762L62.8878 14.8536L62.8539 14.9525L62.8243 15.0616L62.8048 15.1576L62.7961 15.2754V15.4442L62.8004 15.4936L62.8156 15.5474L62.8243 15.5911L62.8481 15.634L62.869 15.6813L62.8936 15.7256L62.9159 15.77L62.9513 15.8056L62.978 15.85L63.0213 15.8878L63.061 15.922L63.0979 15.9612L63.1513 15.9969L63.2357 16.0434L63.3318 16.0885L63.435 16.1387L63.5418 16.1678L63.6544 16.1947L63.7728 16.2085L63.897 16.2165L64.0392 16.226L64.1396 16.2165H64.2399L64.3496 16.2085L64.4529 16.1947L64.5597 16.1729L64.6629 16.1569L64.7575 16.1271L64.86 16.1052L64.9633 16.0652L65.0607 16.0412L65.1574 15.9969L65.265 15.9525L65.3567 15.9111L65.4549 15.8558L65.5494 15.8042L65.6454 15.7467L65.7833 15.6645L65.9024 15.5802L66.0021 15.5096L66.0923 15.4442L66.1573 15.3714L66.215 15.3169L66.2374 15.2616L66.2648 15.2194L66.6691 16.7249L66.4735 16.8732L66.2591 17.0012L66.0317 17.138L65.7978 17.2558L65.5624 17.3518L65.335 17.4463L65.1026 17.5183L64.86 17.5925L64.6247 17.6398L64.551 17.6572L66.2713 19.7343L65.0925 20.6906L63.684 18.8201L62.0475 20.3852L61.0238 19.3954L63.0286 17.6972L62.9513 17.679L62.703 17.6121L62.5875 17.575L62.472 17.5299L62.3644 17.479L62.2503 17.4129L62.1435 17.3598L62.0403 17.2863L61.9356 17.2143L61.8302 17.138L61.727 17.031L61.6245 16.9423L61.54 16.8427L61.4606 16.7343L61.3891 16.6267L61.3299 16.5154L61.2707 16.3925L61.2281 16.2718L61.187 16.1409L61.1588 16.0129L61.1365 15.8812L61.1235 15.7467L61.1184 15.5976V15.4573L61.1292 15.2994L61.1437 15.1394L61.1733 14.9889L61.2086 14.8464L61.2505 14.7016L61.3003 14.5562L61.3509 14.4231L61.4144 14.2987L61.4931 14.162L61.5761 14.0478L61.6584 13.9315L61.7515 13.8231L61.8598 13.7169L61.9681 13.6137L62.0908 13.5169L62.2135 13.4187L62.3449 13.3453L62.5283 13.2398L62.7044 13.1438L62.8936 13.0682L63.0639 13.0078L63.2357 12.9584L63.409 12.9191L63.4913 12.9133L63.5772 12.8966H63.6544L63.7389 12.8893H64.5272L64.5727 12.3999H54.9779L54.5015 17.479H52.8642L53.0519 15.4653H51.4796L51.5828 14.282H53.163L53.3406 12.3999H51.4724L51.5193 12.4479L51.5561 12.5169L51.5922 12.5773L51.6218 12.634L51.6586 12.6944L51.6824 12.7628L51.7012 12.8224L51.7207 12.8966L51.7322 12.9649L51.7488 13.0442L51.7633 13.1133V13.1897L51.7662 13.2711V13.3453L51.7633 13.4267L51.7532 13.5169L51.7322 13.6275L51.7135 13.7591L51.6954 13.8682L51.6745 13.9758L51.6348 14.0835L51.6009 14.1911L51.5561 14.2842L51.5092 14.3845L51.4601 14.4805L51.4132 14.5744L51.3525 14.6536L51.2933 14.7307L51.2327 14.8064L51.1583 14.8856L51.0905 14.9525L51.006 15.0187L50.9338 15.074L50.8551 15.1293L50.7721 15.1794L50.6942 15.226L50.6068 15.2616L50.5252 15.2994L50.4234 15.3373L50.3303 15.3634L50.2372 15.3903L50.1347 15.4056L50.0387 15.4311L49.9325 15.4325L49.8199 15.4493H49.6026L49.4857 15.4442L49.4734 15.5474V15.6478L49.4857 15.7467L49.5109 15.85L49.5434 15.9496L49.5831 16.0412L49.6423 16.1271L49.7044 16.226L49.7651 16.2718L49.8358 16.3212L49.9232 16.3511L50.0206 16.3816L50.1188 16.4056L50.2372 16.4231L50.3599 16.4311L50.4942 16.4383L50.6942 16.4311L50.9013 16.4143L51.1287 16.3816L51.3655 16.3387L51.5561 16.3081L51.6954 16.2892L51.7698 16.2652L51.7994 16.2645L51.6759 17.5183L51.6954 17.5299V17.5336L51.6759 17.5416L51.6348 17.5561L51.4955 17.5859L51.2782 17.6238L51.1396 17.6543L51.0002 17.6659L50.8645 17.679L50.7295 17.7001L50.5996 17.7125L50.4603 17.719H50.3195L50.1809 17.7205L49.9679 17.719L49.7521 17.7038L49.5579 17.679L49.3716 17.6543L49.1912 17.6172L49.028 17.575L48.8728 17.5154L48.7385 17.4579L48.6692 17.4129L48.6064 17.3794L48.5443 17.3452L48.4837 17.3132L48.4324 17.2558L48.3848 17.2143L48.3328 17.167L48.2859 17.1234L48.1942 17.0216L48.1632 16.9598L48.1292 16.906L48.0902 16.8449L48.0621 16.7823L48.0339 16.7198L48.0181 16.6529L47.956 16.4674L47.9026 16.2769L47.8672 16.0885L47.8564 15.9009L47.8361 15.6994L47.8462 15.5096L47.8571 15.3096L47.8867 15.1169H47.3229L47.4261 14.0435H48.7299L48.8215 14.0536L48.9024 14.0653L48.9897 14.0769H49.0756L49.2843 14.0573L49.376 14.0435L49.4662 14.0122L49.5434 13.9802L49.6185 13.9409L49.6907 13.8936L49.7521 13.8427L49.8141 13.7853L49.8683 13.7264L49.9131 13.6507L49.9484 13.5627L49.9838 13.4835L50.0119 13.3853L50.0314 13.282L50.0488 13.1737L50.0524 13.0682L50.0488 12.9628L50.0387 12.8726L50.0119 12.7817L49.9917 12.7417L49.9694 12.6995L49.9484 12.6697L49.9275 12.634L49.8625 12.5773L49.8286 12.5453L49.7903 12.5184L49.7044 12.4668L49.6185 12.4239H49.5716L49.5398 12.4129L49.4958 12.3999H47.3135L47.3994 11.5017H53.8611L53.8272 11.4188L53.7536 11.269L53.6749 11.1221L53.5933 10.9832L53.5031 10.8501L53.4085 10.7286L53.3053 10.6013L53.1926 10.4741L53.0786 10.3679L52.836 10.1548L52.7032 10.0624L52.5595 9.96572L52.4115 9.88281L52.2621 9.797L52.1098 9.72064L53.1674 8.76647L53.2692 8.80865L53.3717 8.86611L53.4843 8.92283L53.5861 8.97883L53.6864 9.05519L53.7846 9.12792L53.8922 9.2021L53.9932 9.28064L54.1109 9.38246L54.225 9.49955L54.3376 9.60718L54.4545 9.73227L54.5563 9.861L54.6675 9.99627L54.7635 10.125L54.8718 10.2683L55.0638 10.5643L55.1541 10.7286L55.2501 10.893L55.3389 11.0522L55.4277 11.2282L55.5092 11.4137L55.5562 11.5017ZM60.3272 14.3547L60.3099 14.2755L60.2832 14.1962L60.2608 14.1395L60.2384 14.0769L60.2074 14.0267L60.172 13.9802L60.1409 13.954L60.1085 13.9242H58.7152L58.7607 13.954L58.7903 13.9802L58.8285 14.0151L58.8567 14.0573L58.882 14.106L58.9014 14.1591L58.9267 14.2107L58.9455 14.2587L58.9606 14.3256L58.9679 14.3845L58.9693 14.4507L58.9794 14.522L58.9693 14.682L58.9484 14.8536L58.9455 14.9082L58.9267 14.9576L58.9101 15.0136L58.8892 15.0638L58.8596 15.1096L58.8314 15.1489L58.7975 15.1794L58.7607 15.2194L58.669 15.2754L58.617 15.2907L58.5658 15.3096L58.5095 15.33L58.3788 15.3416L58.308 15.3474L58.259 15.3416L58.2077 15.3373L58.1615 15.3278L58.1247 15.2929L58.0785 15.2754L58.0373 15.2413L57.9947 15.1976L57.9637 15.1562L57.9262 15.1096L57.8966 15.0616L57.8727 15.0136L57.8554 14.9576L57.833 14.9096L57.8273 14.8594L57.8128 14.8165V14.6536L57.8287 14.5562L57.8439 14.4609L57.8684 14.3707L57.8966 14.2842L57.9341 14.2166L57.9781 14.1475L58.0258 14.0835L58.0828 14.0318L58.1442 13.9918L58.2178 13.954L58.2936 13.9155L58.3788 13.8936L58.4661 13.8813L58.5658 13.8682H61.6584L61.7472 12.9424H58.2828L58.1442 12.9475L58.0164 12.9584L57.8893 12.9744L57.7681 12.9897L57.6482 13.0209L57.5356 13.0486L57.4252 13.0908L57.314 13.1358L57.1956 13.1933L57.0844 13.2624L56.9704 13.3257L56.8743 13.4013L56.7798 13.4878L56.6881 13.57L56.6094 13.6704L56.5286 13.7686L56.4593 13.8813L56.4001 13.9918L56.3466 14.106L56.2932 14.2398L56.247 14.3707L56.2145 14.5045L56.1849 14.6515L56.1553 14.7984L56.1524 14.8893L56.1394 14.9889L56.138 15.0864L56.1394 15.1765L56.1524 15.2616L56.1633 15.3605L56.1849 15.4442L56.2073 15.5191L56.234 15.5991L56.2679 15.682L56.3077 15.7642L56.351 15.8405L56.395 15.9154L56.4455 15.9874L56.5047 16.0565L56.574 16.1271L56.6397 16.2071L56.709 16.2652L56.7899 16.338L56.8671 16.3867L56.9501 16.4412L57.0418 16.4892L57.1277 16.5358L57.2295 16.5707L57.3241 16.6041L57.4295 16.6391L57.5356 16.6638L57.6396 16.6834L57.7486 16.6987L57.8684 16.7169L57.9926 16.7198L58.1146 16.7249H58.225L58.3333 16.7198L58.4365 16.7169L58.5362 16.6921L58.6423 16.6834L58.7412 16.6529L58.8423 16.6318L58.9426 16.6041L59.0299 16.5656L59.1274 16.5263L59.222 16.4827L59.3079 16.4383L59.3923 16.3816L59.4768 16.3256L59.5584 16.2652L59.645 16.2071L59.7251 16.1387L59.7973 16.0623L59.8616 15.9969L59.9294 15.922L59.9901 15.8405L60.0406 15.7642L60.0984 15.682L60.1496 15.6114L60.1879 15.5271L60.2283 15.4493L60.255 15.3634L60.2832 15.2754L60.3157 15.1867L60.333 15.1016L60.3438 15.0136L60.3597 14.9096L60.3669 14.778V14.6275L60.3525 14.498L60.3272 14.3547Z" fill="white"/>
<path fill-rule="evenodd" clip-rule="evenodd" d="M3.69629 36.2764H36.0122V3.7243H3.69629V36.2764Z" fill="white"/>
<path fill-rule="evenodd" clip-rule="evenodd" d="M30.5518 19.7866L24.1601 13.5169L22.6261 13.5293H20.0742V12.7816L22.6261 12.7627L24.1926 12.7416L31.0478 19.7182L30.5518 19.7866ZM28.4619 19.8266L24.1601 15.6478H22.6261L20.0799 15.6601L20.0785 14.9081L22.6261 14.8856L24.1941 14.8681L28.9572 19.7539L28.4619 19.8266ZM22.6261 29.0541L20.2676 31.3973L20.1911 30.8998L22.6261 28.3959L26.4291 24.4701V20.3539H27.1647L27.2015 24.5072L22.6261 29.0541ZM22.6261 26.2352L24.3125 24.4701V20.3539H25.0502L25.0878 24.5072L22.6261 26.9341L20.2294 29.2933L20.1615 28.8002L22.6261 26.2352ZM17.3136 21.38L15.9586 19.9495L17.3136 18.6128L20.0965 15.8769L22.6261 18.5524L24.0858 20.0964L22.6261 21.5378L19.9442 24.1705L17.3136 21.38ZM17.3136 27.489L15.7442 27.5006L8.89335 20.5306L9.38497 20.4579L15.7767 26.7246H17.3136L19.8598 26.7196V27.4628L17.3136 27.489ZM11.4662 20.4237L15.7738 24.5938L17.3136 24.5923L19.8598 24.5872V25.3356L17.3136 25.3625L15.7355 25.3814L10.976 20.4928L11.4662 20.4237ZM19.771 11.4486L17.3136 14.0122L15.6244 15.7699V19.8848H14.8844L14.8519 15.7409L17.3136 13.3111L19.7074 10.9475L19.771 11.4486ZM17.3136 11.1889L19.6735 8.85007L19.7414 9.34388L17.3136 11.8507L13.5106 15.7699V19.8848H12.7692L12.7382 15.7409L17.3136 11.1889ZM24.3312 11.4711V6.94465L19.7854 6.9592L17.3136 9.57079L11.5312 15.7023H7.1875V20.1451L15.5832 28.889V33.1871H19.8583L22.6261 30.3995L28.3183 24.66H32.5161V19.7866L24.3312 11.4711Z" fill="#CE0F3E"/>
</svg>
