<svg width="154" height="40" viewBox="0 0 154 40" fill="none" xmlns="http://www.w3.org/2000/svg">
<path d="M18.852 32.2213L18.7412 32.3285C16.9562 34.1471 14.8902 35.111 12.7613 35.111C8.31755 35.111 5.09186 31.7774 5.09186 27.1777C5.09186 22.5863 8.31755 19.2479 12.7613 19.2479C14.8902 19.2479 16.9562 20.2157 18.7412 22.0392L18.852 22.1496L21.7098 18.6939L21.6334 18.6002C19.2567 15.7917 16.405 14.4244 12.8992 14.4244C9.38129 14.4244 6.16544 15.6084 3.84777 17.7435C1.32957 20.0557 0 23.3165 0 27.1777C0 31.0369 1.32957 34.3058 3.84777 36.6186C6.16544 38.7636 9.38129 39.941 12.8992 39.941C16.405 39.941 19.2567 38.5745 21.6334 35.7648L21.7098 35.6776L18.852 32.2213Z" fill="white"/>
<path d="M24.5981 39.4707H29.6468V14.8249H24.5981V39.4707Z" fill="white"/>
<path d="M49.422 34.1117C48.0751 34.9318 46.8216 35.3441 45.6959 35.3441C44.0648 35.3441 43.3276 34.4832 43.3276 32.5656V19.4885H48.4694V14.8474H43.3276V7.17871L38.3792 9.82693V14.8474H34.1104V19.4885H38.3792V33.3998C38.3792 37.1899 40.6243 39.7792 43.9757 39.8465C46.2514 39.8911 47.6232 39.2132 48.4564 38.7176L48.5052 38.6813L49.7207 33.9293L49.422 34.1117Z" fill="white"/>
<path d="M53.6035 39.4707H58.6555V14.8249H53.6035V39.4707Z" fill="white"/>
<path d="M139.177 5.44732V28.9568L140.75 26.5089C140.748 26.5197 147.816 16.2862 148.721 14.9813H151.871C151.2 15.8821 145.644 23.5291 145.644 23.5291C145.644 23.5291 152.882 38.6114 153.3 39.4707H150.207C150.037 39.1188 143.819 25.9557 143.819 25.9557L139.177 32.46V39.4707H136.296V7.09286C136.548 6.94815 138.499 5.82961 139.177 5.44732ZM115.507 17.901C116.993 15.679 119.322 14.4538 122.046 14.4538C127.479 14.4538 130.358 17.9188 130.358 24.4755V39.4707H127.47V25.0964C127.47 19.5181 125.533 16.9286 121.337 16.9286C117.321 16.9286 114.923 19.9833 114.923 25.0964V39.4707H112.042V14.9813H114.923V18.779L115.507 17.901ZM97.7964 14.4538C103.387 14.4538 106.105 17.0103 106.105 22.2709V39.4707H103.223V35.8978L102.662 36.5162C100.542 38.8559 98.1074 40 95.209 40C92.9378 40 87.6533 39.2483 87.6533 32.2767C87.6533 26.5781 92.3574 24.5555 96.7641 24.5555C98.9767 24.5555 101.162 25.065 102.749 25.9539L103.223 26.2168V22.701C103.223 18.803 101.319 16.829 97.5574 16.829C95.2376 16.829 93.1438 17.4145 90.9971 18.6245C90.8076 18.1893 90.1418 16.7171 89.9565 16.2971C92.2002 15.1146 94.9707 14.4538 97.7964 14.4538ZM90.479 32.0367C90.479 35.6975 92.3758 37.715 95.822 37.715C98.7552 37.715 101.36 36.3293 103.169 33.8093L103.223 33.7228V28.3537L103.063 28.261C101.224 27.2124 99.3399 26.7895 96.5711 26.7895C92.7596 26.7895 90.479 28.7505 90.479 32.0367ZM68.2286 5.44732V18.5477L68.7866 17.9369C70.9087 15.5929 73.2578 14.4538 75.9585 14.4538C81.3631 14.4538 84.4653 18.9586 84.4653 26.8152C84.4653 34.8242 80.942 40 75.487 40C72.8291 40 70.7008 38.9688 68.7895 36.7583L68.2286 36.1056V39.4707H65.353V7.09286C65.5979 6.94815 67.5527 5.82961 68.2286 5.44732ZM68.2971 20.6814L68.2286 20.7719V33.5197L68.2801 33.5979C69.8696 36.0577 72.4591 37.5286 75.2151 37.5286C79.4713 37.5286 81.6288 33.9411 81.6288 26.8674C81.6288 20.5482 79.2385 16.9286 75.071 16.9286C72.5449 16.9286 70.2657 18.1907 68.2971 20.6814Z" fill="white"/>
<path fill-rule="evenodd" clip-rule="evenodd" d="M61.6798 10.4518C57.0583 3.90563 49.3832 2.57492e-05 41.5745 2.57492e-05C33.7689 2.57492e-05 26.0923 3.90563 21.4784 10.4518L21.2417 10.7886H27.0609L27.1254 10.7188C31.086 6.63089 36.2563 4.46905 41.5745 4.46905C46.8933 4.46905 52.0625 6.63089 56.0308 10.7188L56.0952 10.7886H61.9126L61.6798 10.4518Z" fill="#D9261C"/>
</svg>
