<svg width="183" height="40" viewBox="0 0 183 40" fill="none" xmlns="http://www.w3.org/2000/svg">
<path fill-rule="evenodd" clip-rule="evenodd" d="M37.687 0H182.326V26.581H37.687V0Z" fill="#2E3192"/>
<path fill-rule="evenodd" clip-rule="evenodd" d="M37.687 39.9714H182.326V28.1227H37.687V39.9714Z" fill="#EC0677"/>
<path fill-rule="evenodd" clip-rule="evenodd" d="M29.9213 29.3789H25.3246V28.0941H30.0926C30.9206 28.0941 30.892 29.3789 29.9213 29.3789ZM29.9213 26.3525H25.3246V25.0677H29.9498C30.7492 25.0677 30.6636 26.3525 29.9213 26.3525ZM22.9548 31.3204H30.2924C32.4623 31.3204 33.3188 30.9492 33.3188 28.8079C33.3188 28.3225 33.1761 27.9514 32.9762 27.6659C32.8049 27.4374 32.5765 27.3232 32.3196 27.209C32.1768 27.1519 32.1197 27.209 32.0341 27.0948C32.2054 27.0948 32.4052 26.9235 32.4909 26.8379C32.9191 26.4096 33.0048 25.6387 33.0048 24.982C33.0048 23.5545 31.8913 23.1548 30.4637 23.1548H22.9263V31.3489L22.9548 31.3204Z" fill="white"/>
<path fill-rule="evenodd" clip-rule="evenodd" d="M0.0285462 25.2391V29.0935C0.0285462 29.6645 0.342607 30.4068 0.742322 30.7494C0.827975 30.8065 0.827979 30.8065 0.913632 30.8922C1.08494 31.0349 1.25624 31.1491 1.4561 31.2348C1.77016 31.349 2.05567 31.4347 2.45539 31.4347H7.99428C8.73661 31.4347 9.30763 31.1206 9.76444 30.6352C10.364 30.0071 10.3926 29.1791 10.3926 28.3226C10.3926 28.2369 10.3926 28.2084 10.2784 28.2084H7.88008C7.88008 28.7794 7.93718 28.8936 7.62312 29.1791C7.48036 29.3219 7.28051 29.379 6.995 29.379H3.39757C2.9122 29.379 2.54104 29.0649 2.54104 28.5796V25.9243C2.54104 25.5531 2.88366 25.182 3.28337 25.182H7.1663C7.50891 25.182 7.85153 25.496 7.85153 25.8672C7.85153 26.0385 7.79443 26.2384 7.96574 26.2384H10.2498C10.3926 26.2384 10.364 26.1242 10.364 25.8387C10.364 25.0963 10.3069 24.4111 9.793 23.8686C9.7359 23.8115 9.70735 23.7544 9.65025 23.6973L9.10777 23.2976C8.85081 23.1549 8.47965 23.0121 8.10849 23.0121H2.19843C1.08494 23.0121 0 24.1256 0 25.2391H0.0285462Z" fill="white"/>
<path fill-rule="evenodd" clip-rule="evenodd" d="M11.2209 29.0363C11.2209 29.4075 11.3351 29.7501 11.4493 30.0071C11.535 30.2069 11.6492 30.4067 11.792 30.5495L11.8776 30.6351H11.9062C12.3059 31.092 12.8769 31.406 13.6763 31.406H19.3009C19.672 31.406 20.0147 31.3489 20.3002 31.2347C21.1281 30.8921 21.8419 30.0927 21.8419 29.1791V23.1548H19.3009V28.5509C19.3009 28.9792 18.9297 29.2933 18.5015 29.2933H14.5614C14.1331 29.2933 13.7905 28.8936 13.7905 28.4367V23.1548H11.1924V29.0363H11.2209Z" fill="white"/>
<path fill-rule="evenodd" clip-rule="evenodd" d="M11.9632 13.8186V11.1349C12.5914 11.1349 13.1624 10.2498 13.1624 9.62164C13.3337 9.8215 13.505 9.99284 13.762 10.107C13.9333 10.1927 14.0189 10.1641 14.2473 10.1927C14.7327 10.2498 15.1895 9.79295 15.2181 9.7644C15.3608 9.7073 15.2181 10.0214 15.5321 10.7066C15.8747 11.506 16.2173 12.0485 16.9882 12.5624C17.1024 12.6481 17.1881 12.7052 17.3023 12.7908C17.3594 12.8194 17.4165 12.8479 17.4736 12.8765L17.6735 12.9621C17.6735 13.3333 17.7591 14.5039 17.445 14.5039H12.2202C12.0489 14.5039 11.9347 14.0185 11.9347 13.8186H11.9632ZM20.6428 12.7052C20.6428 12.1056 20.5285 11.5917 19.9575 11.3062C19.8148 11.2205 19.6149 11.1349 19.4436 11.1349V10.107H19.1581V11.1063C18.7869 11.1063 18.3587 11.2205 18.0732 11.4489C17.7877 11.6774 17.702 12.0199 17.702 12.5339C17.2737 12.4482 16.5885 11.7059 16.3601 11.4204C15.6749 10.4782 15.5607 9.47892 15.7605 8.36543C15.7891 8.19413 15.8747 8.05138 15.9318 7.88007C15.9889 7.68021 16.046 7.62307 16.1317 7.48031C16.2459 7.30901 16.2744 7.22336 16.3886 7.0806C16.4457 6.99495 16.4743 6.99498 16.5314 6.93788L16.7598 6.68089C16.7598 6.68089 16.8169 6.62379 16.8455 6.59524C16.9311 6.50959 16.9311 6.50962 17.0168 6.45252C17.1881 6.30976 17.6163 5.99566 17.8447 5.96711C18.0732 6.36683 18.5871 6.65235 19.0439 6.65235C19.4722 6.65235 19.672 6.65235 20.0432 6.42394C20.1574 6.33829 20.2145 6.28118 20.2716 6.19553C20.3572 6.10987 20.4429 6.02423 20.4429 5.85293C20.9283 5.85293 21.8419 6.59527 22.156 7.02353C22.47 7.4518 22.7841 7.93715 22.8697 8.47962C22.9554 9.02209 22.9554 8.79368 22.9554 9.4218C22.9554 10.3354 22.5271 11.3062 21.899 11.9343C21.8704 11.9629 21.8419 11.9914 21.8133 12.02C21.8133 12.02 21.7848 12.0199 21.7848 12.0485H21.7562C21.1852 12.5624 21.0996 12.5338 20.5856 12.7908L20.6428 12.7052ZM11.8205 10.7637C11.1353 10.7637 10.707 10.1356 10.707 9.5931C10.707 8.99353 10.6213 7.30902 10.7926 6.82365C10.9068 6.45249 11.2495 6.10988 11.7063 6.10988C11.9632 6.10988 12.106 6.10987 12.3059 6.28118C12.4201 6.36683 12.5057 6.48106 12.5914 6.62382C12.934 7.19484 12.8198 8.59383 12.8198 9.4218C12.8198 9.62166 12.7627 9.73586 12.7341 9.90717C12.7056 10.0499 12.7341 10.0214 12.677 10.1356L12.6199 10.2212V10.2783C12.6199 10.2783 12.6199 10.2212 12.5628 10.3069L12.3915 10.5068C12.3915 10.5068 12.363 10.5067 12.363 10.5353C12.3344 10.5638 12.3058 10.5639 12.2773 10.5924C12.1345 10.6781 12.0774 10.7637 11.849 10.7637H11.8205ZM13.2195 8.47962V6.45252C13.2195 6.10991 13.3337 5.79581 13.4764 5.5674L13.7334 5.28192C13.9618 5.11061 14.3901 5.08205 14.6756 5.2248C15.5036 5.62452 15.2752 6.73799 15.2752 7.48031C15.2752 8.22264 15.475 8.96499 14.9325 9.50745C14.8469 9.59311 14.8183 9.62165 14.7041 9.67875C13.7905 10.107 13.248 9.16484 13.248 8.47962H13.2195ZM15.6749 7.36613C15.6749 6.76656 15.6178 6.0528 15.732 5.59598C15.7891 5.33902 15.8747 5.13914 16.046 4.99639C16.3887 4.65378 16.4458 4.65379 16.874 4.65379C17.2166 4.65379 17.5878 5.08206 17.6735 5.51033C16.8455 5.9386 16.3887 6.25262 15.8462 7.0806C15.7605 7.19481 15.732 7.30901 15.6463 7.39466L15.6749 7.36613ZM18.1017 5.33899V3.96855C18.1017 3.45463 18.7013 3.11201 19.0439 3.11201C19.5007 3.11201 19.8148 3.14059 20.0717 3.62595C20.243 3.91146 20.1574 4.8251 20.1574 5.28192C20.1574 5.51032 20.0146 5.79582 19.8433 5.93858C19.3008 6.39539 18.0446 6.13843 18.0446 5.31045L18.1017 5.33899ZM17.702 4.65379C17.702 4.65379 17.6163 4.56813 17.5307 4.51103C16.3601 3.7116 15.4465 4.85362 15.4179 5.33899C15.3608 5.31044 14.7041 4.31118 13.6192 4.8822C13.4193 4.99641 13.4193 5.02493 13.2766 5.16769C13.2766 5.16769 13.248 5.19625 13.2195 5.2248C13.1053 5.33901 13.0196 5.48174 12.9625 5.65305L12.7912 6.22411C12.7912 6.22411 12.0489 5.22482 10.9925 5.91004C10.136 6.48106 10.2502 7.76583 10.2502 8.73656C10.2502 8.96497 10.2787 9.02207 10.2787 9.22193C10.2787 9.70729 10.2787 9.73587 10.3929 10.1356C10.5357 10.5924 11.0496 11.1349 11.4779 11.1349C11.4779 11.506 11.5064 11.7915 11.5064 12.1913C11.5064 12.8194 11.3351 14.9036 12.1916 14.9036H17.4736C17.8162 14.9036 17.959 14.3897 17.9875 14.1613C18.0446 13.4761 17.9304 12.1056 18.1874 11.7915C18.273 11.7059 18.2445 11.7059 18.3587 11.6488L18.4443 11.5917C18.4443 11.5917 18.4729 11.5917 18.5585 11.5346C18.9297 11.3918 19.7006 11.4489 19.9861 11.8772C20.1574 12.1342 20.1003 12.591 20.1003 13.0478C20.1003 13.5046 20.1288 13.8472 20.1288 14.304V17.1306H20.5286V13.0763C21.1567 12.9336 22.0703 12.2769 22.47 11.7059C23.3266 10.5353 23.5835 9.22196 23.0981 7.82296C22.8126 6.99498 21.9561 5.93859 21.0996 5.59598C20.8997 5.51033 20.757 5.39609 20.5 5.33899C20.5 4.53956 20.6713 3.39756 19.929 2.96929C19.4436 2.68378 18.8726 2.62668 18.3587 2.88364C17.5307 3.28336 17.5878 3.91146 17.5878 4.65379H17.702Z" fill="white"/>
<path fill-rule="evenodd" clip-rule="evenodd" d="M16.3312 1.05639C17.616 1.05639 18.0157 1.05639 19.329 1.37045C20.0999 1.57031 20.4425 1.74165 21.0992 2.02716C22.0985 2.45542 23.1549 3.28338 23.9257 4.05425C24.6395 4.76803 25.0107 5.3105 25.4961 6.10993C26.7809 8.27981 27.152 11.0778 26.5239 13.5617C26.4382 13.9044 26.3526 14.1613 26.2384 14.5039C26.1242 14.8465 26.01 15.0749 25.8672 15.389C25.753 15.6745 25.5817 15.9315 25.439 16.1884C25.2677 16.4739 25.1249 16.7024 24.9536 16.9593C24.5539 17.4732 24.3255 17.8159 23.8401 18.3012C23.7259 18.4154 23.6688 18.4725 23.526 18.5868C22.9836 19.015 22.8408 19.2148 22.1556 19.6717C21.6988 19.9572 21.0421 20.3284 20.5282 20.4997C20.3854 20.5568 20.2427 20.6139 20.0714 20.671C17.1877 21.6417 14.3326 21.3562 11.7059 19.9001C10.1642 19.0435 8.87936 17.6731 7.99428 16.1599C7.53746 15.389 7.13775 14.3612 6.9379 13.5046C6.73804 12.6481 6.70949 12.1342 6.65239 11.3062L6.70948 10.1642C6.79514 9.25054 7.08065 7.99431 7.48036 7.19488C7.90863 6.33835 8.36545 5.42473 9.02212 4.71096L9.30763 4.36832C9.45038 4.22556 9.50748 4.11136 9.76444 3.88296C10.1642 3.56889 10.2213 3.45468 10.7923 3.02642C11.2776 2.65525 11.7916 2.36974 12.334 2.08423C13.2477 1.62741 14.9036 1.08497 16.3026 1.08497L16.3312 1.05639ZM6.22412 11.1349C6.22412 14.2755 7.62312 16.8737 9.22198 18.444C9.45038 18.6724 9.62169 18.9008 9.87865 19.0721C10.8208 19.7859 10.9065 19.9572 12.1913 20.6139C13.3333 21.1849 14.9893 21.6417 16.3312 21.6417C17.8158 21.6417 18.9293 21.556 20.2998 21.0421C21.8701 20.4425 23.0121 19.7573 24.1827 18.5868C25.2391 17.5304 26.0956 16.217 26.6381 14.7609C27.5803 12.1342 27.4946 9.10779 26.2669 6.65241C25.7816 5.68167 25.2962 4.93933 24.611 4.1399L24.1256 3.65454C23.4689 2.99787 22.7266 2.45539 21.9272 1.99858C21.7844 1.91293 21.6417 1.85582 21.4989 1.77017C21.3562 1.68451 21.1849 1.62743 21.0421 1.57033C19.4432 0.770902 17.3305 0.542513 15.5889 0.74237C14.7323 0.828024 13.7616 1.08497 12.9336 1.39903C12.7909 1.45613 12.6481 1.54176 12.4768 1.59887C11.7059 1.91293 10.4782 2.71239 9.8501 3.28341L9.33618 3.76877C9.10777 3.99718 8.93647 4.19701 8.73661 4.45397C8.53676 4.71093 8.3369 4.93936 8.16559 5.19632C6.995 6.96648 6.25267 8.79375 6.25267 11.2206L6.22412 11.1349Z" fill="white"/>
<path fill-rule="evenodd" clip-rule="evenodd" d="M19.0431 17.302H18.158V16.7024C18.5006 16.7024 18.8718 16.6738 19.1858 16.7309C19.1858 16.788 19.3286 17.2734 19.0431 17.2734V17.302ZM18.158 15.6746H19.0145C19.0145 15.6746 19.1573 15.8459 19.1573 15.9601V16.1885H18.158V15.6746ZM17.2444 15.3034V17.7302C17.2444 17.7302 17.2444 17.8444 17.3586 17.8444H19.3286C20.1566 17.8444 20.0138 17.4162 20.0138 16.8166C20.0138 16.5596 19.8425 16.5882 19.7854 16.4169C20.1566 16.3312 19.9853 15.4461 19.8996 15.3034C19.8425 15.2177 19.6712 15.1892 19.4999 15.1892H17.33C17.33 15.1892 17.2158 15.1892 17.2158 15.3034H17.2444Z" fill="white"/>
<path fill-rule="evenodd" clip-rule="evenodd" d="M13.6191 17.3876C13.6191 17.7302 13.819 17.873 14.1616 17.873H16.046C16.2744 17.873 16.4457 17.7017 16.4742 17.5018V15.903C16.4742 15.1606 16.8454 15.2462 15.5892 15.2462V17.3305H14.5328C14.5328 16.9593 14.5042 16.7309 14.5042 16.3312V15.2177H13.6191V17.3876Z" fill="white"/>
<path fill-rule="evenodd" clip-rule="evenodd" d="M10.1357 15.9601V17.1592C10.1357 17.5589 10.2499 17.8444 10.6497 17.8444C11.0494 17.8444 12.3627 17.9015 12.6482 17.7873C12.8195 17.7302 12.8481 17.6731 12.8766 17.5875C12.9337 17.4447 12.9623 16.9593 12.9623 16.7595H12.0772V17.302H11.0494V15.7317H12.0772V16.1599H12.9623C12.9623 15.9315 12.8766 15.4176 12.8195 15.2749C12.7053 15.1607 10.9066 15.1892 10.6211 15.1892C10.1928 15.1892 10.1357 15.5033 10.1357 15.9315V15.9601Z" fill="white"/>
<path fill-rule="evenodd" clip-rule="evenodd" d="M18.3872 8.42251L19.3008 9.73588L20.1574 8.42251L20.0431 8.27979C19.8718 8.02283 19.415 7.2234 19.2437 7.10919C19.1866 7.2805 18.9297 7.6231 18.844 7.76585L18.4157 8.42251H18.3872Z" fill="white"/>
<path fill-rule="evenodd" clip-rule="evenodd" d="M19.415 10.0214H20.9282C21.071 9.82152 21.1566 9.59308 21.2994 9.36467C21.385 9.22191 21.642 8.82221 21.6706 8.70801H20.1288C20.0717 8.90786 19.5007 9.76441 19.4436 10.0214H19.415Z" fill="white"/>
<path fill-rule="evenodd" clip-rule="evenodd" d="M17.6166 10.0214H19.1298C19.0727 9.79297 18.5017 8.93642 18.4446 8.70801H16.9028C16.9028 8.70801 17.3597 9.536 17.4453 9.70731C17.5024 9.82151 17.5595 9.93572 17.6452 10.0214H17.6166Z" fill="white"/>
<path d="M3.28363 33.4333H2.56986V35.6317H2.3129V33.4333H1.59912V33.1763H3.28363V33.4333ZM4.22581 34.1471C4.22581 34.1471 4.11161 34.0899 4.02595 34.0899C3.91175 34.0899 3.79754 34.147 3.71189 34.2612C3.62624 34.3754 3.59768 34.5182 3.59768 34.7181V35.6031H3.34072V33.8615H3.59768V34.2327C3.59768 34.2327 3.71189 34.0043 3.76899 33.9472C3.85465 33.8901 3.94029 33.833 4.0545 33.833C4.14015 33.833 4.19726 33.833 4.22581 33.833V34.1185V34.1471ZM5.93888 35.6317H5.68192V35.3462C5.56771 35.546 5.3964 35.6603 5.13944 35.6603C4.71118 35.6603 4.51133 35.4033 4.51133 34.9179V33.8615H4.76827V34.8608C4.76827 35.232 4.91103 35.4318 5.19654 35.4318C5.3393 35.4318 5.4535 35.3747 5.53915 35.2891C5.62481 35.1749 5.68192 35.0607 5.68192 34.8894V33.8901H5.93888V35.6317ZM6.39569 35.2891C6.53845 35.4033 6.70974 35.4604 6.9096 35.4604C7.16656 35.4604 7.28077 35.3747 7.28077 35.2034C7.28077 35.1178 7.28077 35.0607 7.19512 35.0321C7.13802 34.975 7.02381 34.9465 6.88105 34.8608C6.6812 34.7752 6.56699 34.7181 6.50989 34.6324C6.45279 34.5468 6.42424 34.4611 6.42424 34.3469C6.42424 34.2041 6.48134 34.09 6.62409 33.9758C6.7383 33.8901 6.90961 33.833 7.10947 33.833C7.25222 33.833 7.39498 33.833 7.50918 33.9186V34.2041C7.50918 34.2041 7.22367 34.0899 7.05236 34.0899C6.93816 34.0899 6.85251 34.09 6.7954 34.1471C6.7383 34.2042 6.70974 34.2613 6.70974 34.3184C6.70974 34.3755 6.70975 34.4611 6.76685 34.4897C6.82395 34.5182 6.9096 34.5753 7.08091 34.6324C7.28077 34.7181 7.42352 34.7752 7.48062 34.8608C7.53772 34.9465 7.59483 35.0321 7.59483 35.1463C7.59483 35.2891 7.53773 35.4318 7.39497 35.5175C7.28077 35.6031 7.10946 35.6603 6.9096 35.6603C6.73829 35.6603 6.56699 35.6317 6.45278 35.546V35.2605L6.39569 35.2891ZM8.76542 35.6317C8.76542 35.6317 8.62267 35.6888 8.50846 35.6888C8.22295 35.6888 8.05165 35.5175 8.05165 35.1749V34.1185H7.73758V33.8901H8.05165V33.4618L8.3086 33.3762V33.8901H8.73687V34.1185H8.3086V35.1178C8.3086 35.1178 8.30861 35.3176 8.36571 35.3747C8.42281 35.4318 8.47991 35.4604 8.56556 35.4604C8.65122 35.4604 8.70832 35.4604 8.73687 35.4033V35.6317H8.76542ZM9.99312 34.0328C10.1644 33.9186 10.3643 33.8615 10.5927 33.8615C10.9924 33.8615 11.1923 34.0899 11.1923 34.5182V35.6603H10.9353V35.3747C10.8211 35.5746 10.6498 35.6888 10.3928 35.6888C10.2215 35.6888 10.0788 35.6317 9.99312 35.546C9.87891 35.4604 9.85036 35.3462 9.85036 35.1749C9.85036 34.8608 10.0502 34.6609 10.4214 34.6038L10.9353 34.5182C10.9353 34.2041 10.8211 34.0614 10.5641 34.0614C10.3643 34.0614 10.1644 34.1471 9.99312 34.2898V34.0043V34.0328ZM10.507 34.8323C10.3643 34.8323 10.2501 34.8894 10.193 34.9465C10.1359 35.0036 10.1073 35.0892 10.1073 35.1749C10.1073 35.2605 10.1359 35.3176 10.193 35.3747C10.2501 35.4318 10.3357 35.4604 10.4499 35.4604C10.5927 35.4604 10.7069 35.4033 10.7925 35.3176C10.8782 35.2034 10.9353 35.0892 10.9353 34.9465V34.7752L10.507 34.8323ZM13.1623 35.6603H12.9053V34.661C12.9053 34.2898 12.7626 34.0899 12.5056 34.0899C12.3629 34.0899 12.2486 34.147 12.163 34.2612C12.0773 34.3754 12.0202 34.4896 12.0202 34.661V35.6603H11.7633V33.9186H12.0202V34.2041C12.163 33.9757 12.3343 33.8615 12.5913 33.8615C12.7911 33.8615 12.9339 33.9186 13.0195 34.0328C13.1337 34.147 13.1623 34.3469 13.1623 34.5753V35.6317V35.6603ZM15.1608 35.6603H14.9039V35.3462C14.7611 35.5746 14.5613 35.6888 14.3043 35.6888C14.0759 35.6888 13.9046 35.6031 13.7904 35.4604C13.6476 35.2891 13.5905 35.0892 13.5905 34.8323C13.5905 34.5467 13.6762 34.3184 13.819 34.1471C13.9617 33.9757 14.1616 33.8901 14.39 33.8901C14.6184 33.8901 14.8182 33.9757 14.9039 34.1756V33.0906H15.1608V35.6603ZM14.9039 34.6038C14.9039 34.4611 14.8468 34.3469 14.7611 34.2327C14.6755 34.1471 14.5327 34.0899 14.39 34.0899C14.2187 34.0899 14.0759 34.1471 13.9903 34.2898C13.9046 34.4326 13.8475 34.6039 13.8475 34.8037C13.8475 35.0036 13.9046 35.1749 13.9903 35.2891C14.0759 35.4033 14.2187 35.4604 14.3614 35.4604C14.5042 35.4604 14.6469 35.4033 14.7326 35.2891C14.8468 35.1749 14.8753 35.0321 14.8753 34.8608V34.6038H14.9039ZM17.8732 35.6603H16.5884V33.2049H17.8161V33.4618H16.8454V34.2898H17.7304V34.5468H16.8454V35.4318H17.8732V35.6888V35.6603ZM19.5577 33.9186L18.9581 34.8037L19.5291 35.6603H19.2151L18.8725 35.0892C18.8725 35.0892 18.8154 35.0036 18.7868 34.9465C18.7868 34.9465 18.7868 35.0036 18.7012 35.0892L18.3586 35.6603H18.0445L18.6441 34.8037L18.0731 33.9186H18.3871L18.8154 34.661C18.8154 34.661 18.8154 34.6324 18.8439 34.6038L19.2436 33.9186H19.5291H19.5577ZM21.0424 35.5746C21.0424 35.5746 20.7568 35.6888 20.557 35.6888C20.3 35.6888 20.1002 35.6031 19.9574 35.4604C19.8147 35.2891 19.729 35.0892 19.729 34.8323C19.729 34.5467 19.8147 34.3184 19.986 34.1471C20.1573 33.9757 20.3571 33.8901 20.6427 33.8901C20.7854 33.8901 20.9282 33.8901 21.0424 33.9758V34.2612C21.0424 34.2612 20.7854 34.1185 20.6141 34.1185C20.4428 34.1185 20.3 34.1756 20.1573 34.3184C20.0431 34.4611 19.986 34.6324 19.986 34.8323C19.986 35.0321 20.0431 35.2034 20.1573 35.3176C20.2715 35.4318 20.4142 35.489 20.5855 35.489C20.7283 35.489 20.8711 35.4318 21.0138 35.3462V35.6031L21.0424 35.5746ZM22.8696 34.8608H21.6419C21.6419 35.0607 21.699 35.2034 21.8132 35.3176C21.9274 35.4318 22.0416 35.489 22.2415 35.489C22.4414 35.489 22.6127 35.4318 22.784 35.2891V35.546C22.6412 35.6602 22.4413 35.7174 22.1844 35.7174C21.9274 35.7174 21.7561 35.6317 21.6134 35.489C21.4706 35.3176 21.4135 35.1178 21.4135 34.8323C21.4135 34.5753 21.4992 34.3469 21.6419 34.1756C21.7847 34.0043 21.9845 33.9186 22.2129 33.9186C22.4414 33.9186 22.6127 34.0043 22.7269 34.1471C22.8411 34.2898 22.9267 34.4897 22.9267 34.7752V34.9179L22.8696 34.8608ZM22.6127 34.6324C22.6127 34.4611 22.5841 34.3469 22.4985 34.2612C22.4128 34.1756 22.2986 34.1185 22.1844 34.1185C22.0702 34.1185 21.956 34.1756 21.8418 34.2612C21.7561 34.3469 21.6705 34.4897 21.6705 34.6324H22.6412H22.6127ZM23.3264 35.6603V33.0906H23.5834V35.6603H23.3264ZM24.1544 35.6603V33.0906H24.4114V35.6603H24.1544ZM26.3814 34.8608H25.1537C25.1537 35.0607 25.2108 35.2034 25.325 35.3176C25.4392 35.4318 25.5534 35.489 25.7533 35.489C25.9531 35.489 26.1244 35.4318 26.2957 35.2891V35.546C26.153 35.6602 25.9531 35.7174 25.6962 35.7174C25.4392 35.7174 25.2679 35.6317 25.1252 35.489C24.9824 35.3176 24.9253 35.1178 24.9253 34.8323C24.9253 34.5753 25.0109 34.3469 25.1537 34.1756C25.2965 34.0043 25.4963 33.9186 25.7247 33.9186C25.9531 33.9186 26.1244 34.0043 26.2386 34.1471C26.3529 34.2898 26.4385 34.4897 26.4385 34.7752V34.9179L26.3814 34.8608ZM26.1244 34.6324C26.1244 34.4611 26.0959 34.3469 26.0102 34.2612C25.9246 34.1756 25.8104 34.1185 25.6962 34.1185C25.582 34.1185 25.4678 34.1756 25.3536 34.2612C25.2393 34.3469 25.1823 34.4897 25.1823 34.6324H26.153H26.1244ZM28.2658 35.6603H28.0088V34.661C28.0088 34.2898 27.866 34.0899 27.6091 34.0899C27.4663 34.0899 27.3521 34.147 27.2665 34.2612C27.1808 34.3754 27.1237 34.4896 27.1237 34.661V35.6603H26.8668V33.9186H27.1237V34.2041C27.2665 33.9757 27.4378 33.8615 27.6947 33.8615C27.8946 33.8615 28.0374 33.9186 28.123 34.0328C28.2372 34.147 28.2658 34.3469 28.2658 34.5753V35.6317V35.6603ZM29.9788 35.5746C29.9788 35.5746 29.6933 35.6888 29.4935 35.6888C29.2365 35.6888 29.0366 35.6031 28.8939 35.4604C28.7511 35.2891 28.6655 35.0892 28.6655 34.8323C28.6655 34.5467 28.7511 34.3184 28.9224 34.1471C29.0937 33.9757 29.2936 33.8901 29.5791 33.8901C29.7219 33.8901 29.8646 33.8901 29.9788 33.9758V34.2612C29.9788 34.2612 29.7219 34.1185 29.5506 34.1185C29.3792 34.1185 29.2365 34.1756 29.0938 34.3184C28.9795 34.4611 28.9224 34.6324 28.9224 34.8323C28.9224 35.0321 28.9795 35.2034 29.0938 35.3176C29.208 35.4318 29.3507 35.489 29.522 35.489C29.6648 35.489 29.8075 35.4318 29.9503 35.3462V35.6031L29.9788 35.5746ZM31.8061 34.8608H30.5784C30.5784 35.0607 30.6355 35.2034 30.7497 35.3176C30.8639 35.4318 30.9781 35.489 31.178 35.489C31.3778 35.489 31.5491 35.4318 31.7204 35.2891V35.546C31.5777 35.6602 31.3778 35.7174 31.1209 35.7174C30.8639 35.7174 30.6926 35.6317 30.5498 35.489C30.4071 35.3176 30.35 35.1178 30.35 34.8323C30.35 34.5753 30.4356 34.3469 30.5784 34.1756C30.7211 34.0043 30.921 33.9186 31.1494 33.9186C31.3778 33.9186 31.5491 34.0043 31.6633 34.1471C31.7775 34.2898 31.8632 34.4897 31.8632 34.7752V34.9179L31.8061 34.8608ZM31.5491 34.6324C31.5491 34.4611 31.5206 34.3469 31.4349 34.2612C31.3493 34.1756 31.2351 34.1185 31.1209 34.1185C31.0067 34.1185 30.8925 34.1756 30.7782 34.2612C30.6926 34.3469 30.607 34.4897 30.607 34.6324H31.5777H31.5491ZM8.22296 39.5432C8.22296 39.5432 8.39426 39.6574 8.50846 39.686C8.65122 39.7145 8.76542 39.743 8.87963 39.743C9.22224 39.743 9.42209 39.6003 9.42209 39.3433C9.42209 39.2577 9.42209 39.2006 9.36499 39.1435C9.33644 39.0864 9.27934 39.0293 9.22224 39.0007C9.16513 38.9722 9.02238 38.8865 8.85107 38.8008C8.59411 38.6581 8.4228 38.5439 8.33715 38.4582C8.28005 38.344 8.22296 38.2298 8.22296 38.1156C8.22296 37.9158 8.3086 37.773 8.45136 37.6303C8.62266 37.5161 8.82252 37.4589 9.05093 37.4589C9.27933 37.4589 9.47919 37.4875 9.56485 37.5446V37.8587C9.56485 37.8587 9.25079 37.7159 9.02238 37.7159C8.87963 37.7159 8.73687 37.7445 8.65121 37.8016C8.56556 37.8587 8.50846 37.9729 8.50846 38.0871C8.50846 38.1727 8.50846 38.2298 8.56556 38.2869C8.59412 38.344 8.65122 38.4012 8.70832 38.4297C8.76542 38.4583 8.87962 38.5439 9.05093 38.6295C9.27933 38.7437 9.45064 38.858 9.56485 38.9722C9.6505 39.0864 9.70761 39.2006 9.70761 39.3433C9.70761 39.5432 9.62195 39.7145 9.4792 39.8287C9.33644 39.9429 9.10803 40 8.85107 40C8.76542 40 8.65122 40 8.53702 39.9714C8.39426 39.9714 8.3086 39.9143 8.2515 39.8858V39.5717L8.22296 39.5432ZM10.7069 37.7445H10.4785V39.7145H10.7069V39.9429H9.96457V39.7145H10.193V37.7445H9.96457V37.5161H10.7069V37.7445ZM13.0766 39.9429H12.734L11.4492 37.9729C11.4492 37.9729 11.3921 37.8872 11.3636 37.8301C11.3636 37.8301 11.3636 38.0014 11.3636 38.1727V39.9714H11.1066V37.5161H11.4492L12.6769 39.4575C12.6769 39.4575 12.7626 39.6003 12.7626 39.6288C12.7626 39.6288 12.7626 39.429 12.7626 39.2577V37.5161H13.0195V39.9714L13.0766 39.9429ZM15.3893 39.8287C15.2179 39.9143 14.9895 39.9714 14.704 39.9714C14.3614 39.9714 14.0759 39.8573 13.8761 39.6288C13.6762 39.4004 13.562 39.1149 13.562 38.7438C13.562 38.3726 13.6762 38.0585 13.9046 37.8016C14.133 37.5446 14.4471 37.4304 14.7897 37.4304C15.0181 37.4304 15.2179 37.459 15.3607 37.5446V37.8301C15.1894 37.7445 14.9895 37.6874 14.7897 37.6874C14.5042 37.6874 14.2758 37.773 14.1045 37.9729C13.9332 38.1727 13.8475 38.4297 13.8475 38.7152C13.8475 39.0007 13.9332 39.2577 14.0759 39.429C14.2472 39.6003 14.4471 39.7145 14.7326 39.7145C14.9895 39.7145 15.1894 39.6574 15.3607 39.5432V39.8001L15.3893 39.8287ZM17.188 39.9429H15.9032V37.4875H17.1309V37.7445H16.1601V38.5725H17.0452V38.8294H16.1601V39.7145H17.188V39.9714V39.9429ZM19.8147 39.9429H18.4442V39.7145H18.9867V37.8016L18.4157 37.9729V37.7159L19.2436 37.4589V39.7145H19.7861V39.9429H19.8147ZM20.3 39.6574C20.3 39.6574 20.5855 39.7716 20.7283 39.7716C20.9567 39.7716 21.128 39.6859 21.2422 39.4861C21.3564 39.3148 21.4421 39.0578 21.4421 38.7152C21.3279 38.915 21.1566 39.0293 20.8996 39.0293C20.6997 39.0293 20.5284 38.9436 20.3857 38.8008C20.2429 38.6581 20.1858 38.4868 20.1858 38.2584C20.1858 38.03 20.2429 37.8301 20.3857 37.6874C20.5284 37.5446 20.7283 37.4589 20.9567 37.4589C21.2137 37.4589 21.385 37.5446 21.5277 37.7445C21.6705 37.9443 21.7276 38.2013 21.7276 38.5725C21.7276 39.0293 21.6419 39.3719 21.4706 39.6003C21.2993 39.8572 21.0424 39.9714 20.7283 39.9714C20.557 39.9714 20.4142 39.9714 20.3 39.8858V39.6288V39.6574ZM20.4428 38.2298C20.4428 38.4011 20.4999 38.5439 20.5855 38.6295C20.6712 38.7437 20.7854 38.7723 20.9567 38.7723C21.0994 38.7723 21.2137 38.7152 21.2993 38.6295C21.385 38.5439 21.4421 38.4297 21.4421 38.2869C21.4421 38.1156 21.385 37.9443 21.2993 37.8301C21.2137 37.7159 21.0995 37.6588 20.9282 37.6588C20.7854 37.6588 20.6712 37.7159 20.5855 37.8301C20.4999 37.9443 20.4428 38.0585 20.4428 38.2298ZM22.0416 38.7723C22.0416 38.344 22.0987 38.0014 22.2415 37.8016C22.3843 37.5732 22.5841 37.4589 22.8411 37.4589C23.355 37.4589 23.6119 37.8872 23.6119 38.7152C23.6119 39.1149 23.5548 39.429 23.4121 39.6574C23.2693 39.8858 23.0695 40 22.8125 40C22.5556 40 22.3843 39.8858 22.2415 39.686C22.0987 39.4861 22.0416 39.172 22.0416 38.8008V38.7723ZM22.2986 38.7723C22.2986 39.429 22.4699 39.7716 22.8125 39.7716C23.1551 39.7716 23.3264 39.429 23.3264 38.7438C23.3264 38.0585 23.1551 37.6874 22.8125 37.6874C22.4414 37.6874 22.2701 38.0585 22.2701 38.7723H22.2986ZM25.4963 39.3148H25.1823V39.9714H24.9253V39.3148H23.7833V39.1435L24.8682 37.5161H25.1823V39.0864H25.4963V39.3148ZM24.9253 39.0864V38.0014C24.9253 38.0014 24.9253 37.8301 24.9253 37.7445C24.9253 37.7445 24.8967 37.8301 24.8396 37.9443L24.0688 39.0864H24.9253Z" fill="white"/>
<path d="M46.738 16.8165H42.8265V22.127H46.738V20.3283L48.1941 20.7281V21.7273C48.1941 22.4982 48.0799 23.0121 47.88 23.2976C47.6801 23.5831 47.2519 23.7259 46.6523 23.7259H42.9407C42.3411 23.7259 41.9414 23.5831 41.713 23.2976C41.5131 23.0121 41.3989 22.4982 41.3989 21.7273V17.3019C41.3989 16.531 41.5131 16.0171 41.713 15.7316C41.9128 15.4461 42.3411 15.3033 42.9407 15.3033H46.6523C47.2519 15.3033 47.6516 15.4461 47.88 15.7316C48.1084 16.0171 48.1941 16.531 48.1941 17.3019V18.1013L46.738 18.4154V16.8451V16.8165ZM50.4211 23.6974V16.8451H51.6487V23.6974H50.4211ZM56.6737 18.0728V23.6974H55.4175V18.0728H52.9621V16.8451H59.1291V18.0728H56.6737ZM62.3839 23.6974V20.6138L59.5859 16.8451H61.2704L63.0977 19.4147L64.9535 16.8451H66.4096L63.6402 20.5853V23.6974H62.4125H62.3839ZM73.89 15.3319V22.127H78.0299V15.3319H79.486V21.7273C79.486 22.4982 79.3718 23.0121 79.1719 23.2976C78.9721 23.5831 78.5438 23.7259 77.9442 23.7259H74.0042C73.4046 23.7259 73.0049 23.5831 72.7765 23.2976C72.5481 23.0121 72.4624 22.4982 72.4624 21.7273V15.3319H73.9185H73.89ZM81.8843 23.6974V16.8451H82.7408L87.0806 21.3847V16.8451H88.194V23.6974H87.3375L83.0263 19.0721V23.6974H81.8843ZM90.1641 23.6974V16.8451H91.3918V23.6974H90.1641ZM94.5038 22.384H98.6152V18.1013H94.5038V22.384ZM93.2476 18.444C93.2476 17.8159 93.3332 17.3876 93.5331 17.1592C93.7044 16.9308 94.0755 16.8165 94.5895 16.8165H98.5295C99.0434 16.8165 99.4146 16.9308 99.5859 17.1592C99.7572 17.3876 99.8429 17.8159 99.8429 18.444V22.0699C99.8429 22.698 99.7572 23.1263 99.5574 23.3548C99.386 23.5832 99.0149 23.6974 98.501 23.6974H94.5609C94.047 23.6974 93.6758 23.5832 93.5045 23.3548C93.3332 23.1263 93.219 22.698 93.219 22.0699V18.444H93.2476ZM101.699 23.6974V16.8451H102.555L106.895 21.3847V16.8451H108.008V23.6974H107.152L102.841 19.0721V23.6974H101.699ZM119.829 16.6738H116.517V18.6724H119.829C120.086 18.6724 120.257 18.6153 120.342 18.5296C120.428 18.444 120.485 18.2727 120.485 18.0728V17.2734C120.485 17.045 120.428 16.9022 120.342 16.8165C120.257 16.7309 120.086 16.6738 119.829 16.6738ZM119.829 20.0428H116.517V22.1842H119.829C120.114 22.1842 120.285 22.1271 120.371 22.0129C120.457 21.8986 120.514 21.6988 120.514 21.4418V20.8137C120.514 20.5282 120.457 20.3283 120.371 20.2427C120.285 20.1285 120.086 20.0714 119.829 20.0714V20.0428ZM115.089 23.6688V15.3033H120.428C120.914 15.3033 121.285 15.4461 121.485 15.7031C121.713 15.96 121.827 16.3598 121.827 16.9308V17.9586C121.827 18.3583 121.741 18.6724 121.542 18.9293C121.37 19.1577 121.085 19.3291 120.742 19.3862C121.113 19.4433 121.37 19.6145 121.57 19.9001C121.77 20.1856 121.856 20.5567 121.856 20.985V22.0414C121.856 22.5839 121.713 23.0121 121.399 23.2691C121.085 23.5261 120.628 23.6688 120.028 23.6688H115.089ZM123.14 23.6688L126.167 16.8165H127.366L130.45 23.6688H129.051L128.394 22.1556H125.025L124.368 23.6688H123.112H123.14ZM125.567 20.8994H127.909L126.709 18.0443L125.567 20.8994ZM131.42 23.6688V16.8165H132.277L136.617 21.3561V16.8165H137.73V23.6688H136.874L132.562 19.0435V23.6688H131.42ZM139.7 23.6688V16.8165H140.956V19.586L143.926 16.8165H145.724L142.184 19.9857L146.095 23.6688H144.125L140.928 20.5853V23.6688H139.672H139.7ZM152.006 23.6688V15.3033H153.462V22.0985H158.144V23.6688H152.034H152.006ZM162.541 18.0443V23.6688H161.285V18.0443H158.829V16.8165H164.996V18.0443H162.541ZM167.566 22.384H169.165C170.05 22.384 170.649 22.2127 170.992 21.8701C171.335 21.5275 171.506 20.9565 171.506 20.1285C171.506 19.4147 171.363 18.9008 171.078 18.5582C170.792 18.2155 170.335 18.0443 169.736 18.0443H167.537V22.384H167.566ZM166.31 23.6688V16.8165H169.736C170.735 16.8165 171.477 17.102 172.02 17.7016C172.562 18.3012 172.819 19.1292 172.819 20.2141C172.819 21.3562 172.534 22.2413 171.991 22.8123C171.42 23.3833 170.592 23.6688 169.45 23.6688H166.338H166.31Z" fill="white"/>
</svg>
