<svg width="271" height="40" viewBox="0 0 271 40" fill="none" xmlns="http://www.w3.org/2000/svg">
<path d="M20.6865 16.3448C18.8055 16.3446 16.9533 16.8058 15.292 17.6879C13.6307 18.5699 12.2112 19.846 11.1577 21.4043C12.4007 20.3015 13.9358 19.5812 15.5784 19.3303C17.221 19.0793 18.9012 19.3083 20.4167 19.9897C21.9323 20.6711 23.2186 21.7759 24.1211 23.1712C25.0236 24.5664 25.5037 26.1927 25.5037 27.8544C25.5037 29.5161 25.0236 31.1424 24.1211 32.5376C23.2186 33.9329 21.9323 35.0376 20.4167 35.719C18.9012 36.4004 17.221 36.6294 15.5784 36.3785C13.9358 36.1275 12.4007 35.4073 11.1577 34.3045C12.2705 35.9491 13.7899 37.2778 15.5682 38.1615C17.3465 39.0451 19.3231 39.4537 21.306 39.3474C23.2889 39.2412 25.2106 38.6237 26.8842 37.555C28.5578 36.4863 29.9265 35.0028 30.8572 33.2487C31.7879 31.4946 32.2489 29.5295 32.1954 27.5445C32.142 25.5595 31.5758 23.6221 30.5521 21.9206C29.5283 20.2191 28.0818 18.8114 26.3531 17.8344C24.6243 16.8574 22.6722 16.3442 20.6865 16.3448Z" fill="white"/>
<path d="M21.9633 5.07316C20.9108 6.63079 20.2558 8.42252 20.0557 10.2917C19.8555 12.1609 20.1162 14.0507 20.8151 15.7959C20.5932 14.1445 20.8538 12.4642 21.5654 10.9575C22.277 9.45085 23.4092 8.18219 24.8255 7.30449C26.2418 6.42679 27.8818 5.97753 29.5477 6.01087C31.2136 6.0442 32.8343 6.55872 34.2144 7.49237C35.5945 8.42603 36.675 9.73897 37.3258 11.2729C37.9765 12.8068 38.1696 14.4962 37.8819 16.1374C37.5941 17.7786 36.8378 19.3015 35.704 20.5226C34.5702 21.7436 33.1075 22.6106 31.4921 23.0191C33.4778 23.0197 35.4299 22.5066 37.1587 21.5295C38.8874 20.5525 40.3339 19.1448 41.3577 17.4433C42.3814 15.7418 42.9476 13.8044 43.001 11.8194C43.0545 9.83441 42.5935 7.86934 41.6628 6.11521C40.7321 4.36108 39.3634 2.87758 37.6898 1.80892C36.0162 0.740247 34.0945 0.122766 32.1116 0.0164961C30.1287 -0.0897739 28.1521 0.318781 26.3738 1.20245C24.5955 2.08612 23.0761 3.41483 21.9633 5.05944" fill="white"/>
<path d="M14.3093 31.7106C16.1336 31.2536 17.8177 30.3555 19.2135 29.0952C20.6094 27.8349 21.6744 26.2511 22.3148 24.4829C21.3768 25.8559 20.062 26.9287 18.5286 27.572C16.9952 28.2153 15.3086 28.4018 13.6717 28.109C12.0348 27.8162 10.5174 27.0566 9.30213 25.9217C8.08683 24.7867 7.22541 23.3247 6.82155 21.7116C6.41769 20.0985 6.4886 18.4031 7.02573 16.8294C7.56287 15.2556 8.54334 13.8707 9.84916 12.8411C11.155 11.8116 12.7305 11.1814 14.3861 11.0263C16.0417 10.8712 17.7069 11.1978 19.1812 11.9669C17.7013 10.6436 15.9042 9.72566 13.9646 9.30219C12.025 8.87871 10.0089 8.96413 8.11208 9.55016C6.21527 10.1362 4.50229 11.2029 3.13958 12.6466C1.77688 14.0904 0.810783 15.862 0.335169 17.7895C-0.140445 19.717 -0.109404 21.7347 0.425273 23.6466C0.959949 25.5585 1.98008 27.2996 3.38655 28.7008C4.79302 30.1019 6.538 31.1154 8.45194 31.6428C10.3659 32.1702 12.3837 32.1936 14.3093 31.7106Z" fill="white"/>
<path d="M81.1724 3.655C78.281 1.59405 74.8146 0.494619 71.2639 0.512295H70.9391C66.0947 0.590062 61.3326 2.71722 57.4626 6.4592C53.6561 10.1999 51.1377 15.054 50.2714 20.32C49.3565 25.9284 50.5276 31.0016 53.5833 34.5926C54.8759 36.0981 56.4853 37.2991 58.2963 38.1097C60.1073 38.9204 62.0752 39.3205 64.059 39.2815H64.3381C69.736 39.1809 74.4021 36.7655 76.1175 35.8552L76.6527 35.5807L78.3682 25.1462L76.0032 26.8342C74.0178 28.2523 70.3124 30.8918 65.9392 30.9513C63.8532 30.9833 62.2063 30.2971 61.0353 28.9293C59.4433 27.0583 58.8532 23.9751 59.4296 20.4802C60.7288 12.5433 66.1679 8.8471 70.6601 8.76933C74.4158 8.70987 76.607 10.6815 78.5603 12.429L80.1934 13.9065L81.8128 4.03926L81.1724 3.655Z" fill="white"/>
<path d="M133.695 0.375031H116.207L110.018 39.3593L124.995 39.1031C129.075 39.039 132.95 37.8817 135.882 35.8643C137.378 34.8858 138.655 33.6086 139.634 32.1128C140.612 30.6171 141.271 28.9351 141.568 27.1727C142.103 23.8927 141.211 21.0428 139.102 19.3685C138.513 18.8853 137.855 18.4936 137.149 18.2066C137.411 18.0255 137.663 17.83 137.904 17.621C140.128 15.8323 141.619 13.29 142.094 10.4756C142.552 7.67142 141.916 5.0868 140.315 3.19752C138.714 1.30824 136.458 0.384178 133.677 0.384178M128.613 23.2569C130.178 23.2569 131.422 23.6777 132.053 24.4097C132.28 24.7001 132.44 25.038 132.519 25.3983C132.598 25.7586 132.595 26.132 132.511 26.4911C131.916 30.1507 127.63 30.7362 125.132 30.7728L120.31 30.8552L121.532 23.3804L128.476 23.2569H128.613ZM126.998 15.288L122.822 15.3658L123.769 9.49209L130.027 9.38687H130.146C131.275 9.38687 132.204 9.67049 132.607 10.16C132.764 10.3812 132.871 10.6347 132.918 10.9021C132.966 11.1696 132.953 11.4442 132.881 11.7062C132.387 14.7437 128.984 15.2514 127.003 15.288" fill="white"/>
<path d="M181.744 10.4665C182.201 7.66227 181.561 5.07766 179.955 3.18837C178.349 1.29909 176.099 0.375031 173.308 0.375031H155.842L149.658 39.3593L164.63 39.1031C168.72 39.039 172.59 37.8817 175.522 35.8643C177.018 34.8858 178.296 33.6087 179.276 32.113C180.255 30.6173 180.914 28.9353 181.213 27.1727C181.744 23.8927 180.842 21.0428 178.738 19.3685C178.152 18.8864 177.496 18.4948 176.794 18.2066C177.056 18.0255 177.308 17.83 177.549 17.621C179.773 15.8314 181.265 13.2898 181.744 10.4756M168.258 23.2477C169.813 23.2477 171.062 23.6686 171.689 24.4005C171.918 24.69 172.078 25.0279 172.157 25.3885C172.237 25.7491 172.233 26.123 172.146 26.4819C171.565 30.1416 167.283 30.7271 164.781 30.7637L159.955 30.846L161.172 23.3712L168.116 23.2477H168.258ZM166.625 15.288L162.448 15.3658L163.404 9.49209L169.658 9.38687H169.767C170.893 9.38687 171.817 9.67049 172.233 10.16C172.388 10.3824 172.493 10.636 172.539 10.9032C172.586 11.1703 172.574 11.4444 172.503 11.7062C172.004 14.7437 168.61 15.2514 166.625 15.288Z" fill="white"/>
<path d="M208.055 31.7108L209.954 18.838C210.471 15.2927 209.538 12.8408 207.173 11.5187C204.671 10.2134 201.878 9.56487 199.057 9.63403C194.249 9.63403 190.617 10.9241 188.248 13.4583C186.703 15.2247 185.656 17.3704 185.215 19.6751L185.114 20.1646H192.973L193.046 19.9267C193.293 19.0237 193.743 18.1894 194.364 17.4885C195.141 16.7063 196.358 16.3083 197.978 16.3083C199.442 16.3083 200.521 16.505 201.18 16.903C201.39 17.0356 202.035 17.4153 201.825 18.87C201.701 19.6889 201.162 20.2836 200.178 20.6998C199.23 21.0203 198.247 21.2291 197.25 21.322L194.721 21.6285C191.793 21.9899 189.501 22.6074 187.891 23.4583C184.913 25.0502 183.142 27.6623 182.616 31.2076C182.209 33.9843 182.79 36.1755 184.318 37.7126C185.846 39.2496 187.946 39.9998 190.581 39.9998C192.583 40.011 194.557 39.5253 196.326 38.5863C197.49 37.9595 198.586 37.2145 199.597 36.3631L199.066 39.1078H206.999L208.055 31.7108ZM200.791 25.8371L200.517 27.7584C200.137 30.1097 199.222 31.7108 197.85 32.6257C196.55 33.4766 195.034 33.9384 193.481 33.9569C192.702 33.9959 191.938 33.7357 191.345 33.2295C190.855 32.7721 190.686 31.9807 190.855 30.869C190.917 30.2704 191.127 29.6966 191.466 29.1997C191.806 28.7028 192.264 28.2986 192.799 28.0237C193.872 27.5314 195.014 27.2044 196.184 27.0539L197.863 26.7428C198.568 26.6267 199.263 26.4538 199.94 26.2259C200.232 26.129 200.516 26.0112 200.791 25.8736" fill="white"/>
<path d="M237.276 12.0402C235.575 10.4528 233.2 9.64311 230.213 9.64311C228.015 9.59456 225.853 10.2099 224.01 11.4089C223.16 12.0202 222.385 12.7296 221.7 13.5223L222.158 10.3659H214.317L210.113 39.1489H218.219L220.47 23.6549C220.639 22.2041 221.08 20.7982 221.769 19.5104C222.94 17.4976 224.66 16.5278 227.039 16.5278C228.868 16.5278 229.989 17.1362 230.442 18.4034C230.712 19.1307 230.73 20.2057 230.515 21.6055L227.976 39.1352H236.275L239.092 19.9221C239.609 16.2625 239.001 13.6184 237.295 12.0173" fill="white"/>
<path d="M270.204 10.4619H259.943L250.003 20.2789L252.894 0.571777H244.898L239.248 39.1626H247.249L248.539 30.1599L251.563 27.438L256.416 39.1626H264.829L257.542 22.4472L270.204 10.4619Z" fill="white"/>
<path d="M98.7925 8.53617C102.91 8.46755 105.654 10.366 107.74 12.1958L110.028 14.204L111.748 4.19493L110.243 3.20226C107.189 1.13859 103.585 0.0448126 99.8995 0.0641247H99.5564C91.4686 0.196786 85.0688 4.97261 84.003 11.6514C83.5684 14.3596 84.1036 16.7154 85.5949 18.6825L85.6544 18.7557C87.6763 21.043 90.421 22.0311 94.1905 22.9322H94.2179C99.8263 24.1262 100.096 25.4116 99.8903 26.7245C99.4695 29.3 96.1438 31.1527 93.4265 31.1939C88.7605 31.2625 85.0597 28.2067 83.3625 26.5736L81.8941 25.0869L80.1924 35.2881L80.7962 35.7455C84.0165 38.2775 87.9898 39.662 92.0862 39.6796H92.443C108.701 39.5378 109.607 28.4491 109.405 24.4418C109.401 23.2131 109.104 22.0032 108.538 20.9125C107.972 19.8217 107.155 18.8816 106.153 18.1701C103.98 16.537 101.016 15.7319 98.4128 15.1693C92.8227 13.8838 92.9874 12.8362 93.1246 11.9945C93.3854 10.3843 95.6223 8.60021 98.7742 8.54532" fill="white"/>
</svg>
