<svg width="165" height="40" viewBox="0 0 165 40" fill="none" xmlns="http://www.w3.org/2000/svg">
<path d="M0.280762 39.7189H164.269V0.281189H0.280762V39.7189Z" fill="#2C4190"/>
<path d="M0.281133 0.281133H0V40H164.551V0H0V0.281133H0.281133V0.562267H163.989V39.4377H0.562267V0.281133H0.281133Z" fill="white"/>
<path d="M10.168 29.9519H18.8304C24.9626 29.9519 27.9497 25.6295 27.9497 19.7959C27.9497 13.1366 24.0314 9.88599 18.8304 9.88599H10.168V29.9519ZM14.5958 13.5934H17.741C22.1161 13.5934 23.5218 16.1763 23.5218 20.2176C23.5218 24.6631 21.0795 26.2444 18.5317 26.2444H14.5958V13.5934Z" fill="white"/>
<path d="M47.9869 16.6332C47.4598 11.9945 43.7524 9.39404 39.3245 9.39404C33.122 9.39404 29.4673 14.0327 29.4673 20.0068C29.4673 25.7876 33.122 30.4263 39.3245 30.4263C44.2444 30.4263 47.7058 27.2284 48.1627 22.2208H43.8929C43.5415 24.8564 42.0304 26.7189 39.3245 26.7189C35.3711 26.7189 33.8776 23.3453 33.8776 20.0068C33.8776 16.4927 35.3711 13.1191 39.3245 13.1191C41.5209 13.1191 43.4361 14.6302 43.7172 16.6332H47.9869Z" fill="white"/>
<path d="M54.9156 21.0083H59.7125C61.5926 21.0083 62.8928 21.8342 62.8928 23.8724C62.8928 25.9633 61.3817 26.5256 59.6246 26.5256H54.9156V21.0083ZM50.4878 29.9519H60.222C63.8416 29.9519 67.3031 28.2124 67.3031 24.1359C67.3031 21.6233 66.0731 19.7432 63.6308 19.0404C65.3703 18.197 66.3543 16.8265 66.3543 14.8585C66.3543 11.1159 63.7713 9.88599 59.9409 9.88599H50.4878V29.9519ZM54.9156 13.3123H59.0448C60.6086 13.3123 62.0845 13.6989 62.0845 15.6141C62.0845 17.3009 60.9249 18.0037 59.3786 18.0037H54.9156V13.3123Z" fill="white"/>
<path d="M84.6315 21.0083H89.4283C91.3084 21.0083 92.6086 21.8342 92.6086 23.8724C92.6086 25.9633 91.0975 26.5256 89.3404 26.5256H84.6315V21.0083ZM80.2036 29.9519H89.9379C93.5574 29.9519 97.0189 28.2124 97.0189 24.1359C97.0189 21.6233 95.7889 19.7432 93.3466 19.0404C95.0861 18.197 96.0701 16.8265 96.0701 14.8585C96.0701 11.1159 93.4872 9.88599 89.6567 9.88599H80.2036V29.9519ZM84.6315 13.3123H88.7606C90.3244 13.3123 91.8004 13.6989 91.8004 15.6141C91.8004 17.3009 90.6407 18.0037 89.0945 18.0037H84.6315V13.3123Z" fill="white"/>
<path d="M97.1978 29.9519H101.661L103.242 25.4889H110.745L112.256 29.9519H116.842L109.339 9.88599H104.806L97.1978 29.9519ZM107.002 14.8234H107.055L109.585 22.1856H104.384L107.002 14.8234Z" fill="white"/>
<path d="M117.91 29.9519H122.056V16.5102H122.109L130.455 29.9519H134.866V9.88599H130.736V23.3452H130.684L122.302 9.88599H117.91V29.9519Z" fill="white"/>
<path d="M138.07 29.9519H142.498V23.4858L145.028 20.9205L151.072 29.9519H156.607L147.997 17.8104L155.852 9.88599H150.334L142.498 18.197V9.88599H138.07V29.9519Z" fill="white"/>
</svg>
