<svg width="205" height="40" viewBox="0 0 205 40" fill="none" xmlns="http://www.w3.org/2000/svg">
<path d="M0 10.0646H4.09875C6.74402 10.0646 8.70238 10.3903 9.98946 11.0445C11.2709 11.6972 12.329 12.7667 13.1624 14.2387C13.9872 15.7121 14.4068 17.4344 14.4068 19.4027C14.4068 20.8007 14.1707 22.0863 13.7056 23.2639C13.2434 24.4358 12.6006 25.4143 11.7857 26.1837C10.9637 26.9588 10.0748 27.4935 9.12619 27.7879C8.17332 28.0809 6.51932 28.2316 4.16702 28.2316H0V10.0646ZM3.44312 13.3982V24.8596H5.04451C6.62172 24.8596 7.768 24.6804 8.48052 24.3149C9.1973 23.9565 9.77471 23.3436 10.2298 22.486C10.6863 21.6284 10.911 20.5746 10.911 19.3259C10.911 17.3945 10.372 15.8984 9.29117 14.8346C8.32265 13.8789 6.75967 13.3982 4.61074 13.3982H3.44312Z" fill="white"/>
<path d="M41.9726 14.7937H45.3446V28.2319H41.9726V26.8112C41.3127 27.4412 40.6528 27.8863 39.9957 28.1637C39.3301 28.441 38.6148 28.5761 37.8382 28.5761C36.1018 28.5761 34.6056 27.9048 33.337 26.5594C32.0741 25.2126 31.4355 23.5387 31.4355 21.5391C31.4355 19.467 32.0556 17.7646 33.273 16.4391C34.5004 15.1137 35.9851 14.4509 37.7415 14.4509C38.5465 14.4509 39.3045 14.6003 40.0099 14.9089C40.7153 15.2146 41.3681 15.6626 41.9726 16.277V14.7937ZM38.427 17.5613C37.386 17.5613 36.5256 17.931 35.8344 18.6706C35.146 19.403 34.7933 20.3473 34.7933 21.5036C34.7933 22.6655 35.146 23.6141 35.8472 24.3664C36.5469 25.1159 37.4102 25.4942 38.4455 25.4942C39.5036 25.4942 40.3783 25.1259 41.068 24.3906C41.7777 23.6511 42.1261 22.6797 42.1261 21.4865C42.1261 20.3203 41.7777 19.376 41.068 18.6478C40.3783 17.9253 39.5036 17.5613 38.427 17.5613Z" fill="white"/>
<path d="M48.5229 14.7937H51.8992V16.1718C52.6644 15.5261 53.3555 15.0809 53.9742 14.8264C54.5971 14.5761 55.23 14.4509 55.8828 14.4509C57.2111 14.4509 58.3446 14.9145 59.2761 15.8432C60.0555 16.634 60.4466 17.8044 60.4466 19.3504V28.2319H57.113V22.3483C57.113 20.7455 57.0348 19.6817 56.8954 19.1555C56.7503 18.6279 56.4986 18.224 56.143 17.9495C55.7861 17.6779 55.3423 17.5342 54.8204 17.5342C54.1349 17.5342 53.5532 17.766 53.0626 18.2197C52.5776 18.6791 52.2349 19.3077 52.0443 20.1141C51.9447 20.535 51.8992 21.4452 51.8992 22.8418V28.2319H48.5229V14.7937Z" fill="white"/>
<path d="M79.2309 14.7937H82.6029V28.2319H79.2309V26.8112C78.5752 27.4412 77.9111 27.8863 77.2554 28.1637C76.5927 28.441 75.8731 28.5761 75.1008 28.5761C73.3643 28.5761 71.8639 27.9048 70.5953 26.5594C69.3281 25.2126 68.6938 23.5387 68.6938 21.5391C68.6938 19.467 69.3111 17.7646 70.5313 16.4391C71.7629 15.1137 73.2477 14.4509 75.0041 14.4509C75.802 14.4509 76.5642 14.6003 77.2697 14.9089C77.9751 15.2146 78.6236 15.6626 79.2309 16.277V14.7937ZM75.6896 17.5613C74.6443 17.5613 73.781 17.931 73.0856 18.6706C72.4001 19.403 72.0559 20.3473 72.0559 21.5036C72.0559 22.6655 72.4086 23.6141 73.1097 24.3664C73.808 25.1159 74.6727 25.4942 75.6996 25.4942C76.7548 25.4942 77.6366 25.1259 78.3349 24.3906C79.0261 23.6511 79.3788 22.6797 79.3788 21.4865C79.3788 20.3203 79.0261 19.376 78.3349 18.6478C77.6366 17.9253 76.7548 17.5613 75.6896 17.5613Z" fill="white"/>
<path d="M99.6992 14.7937H103.071V16.341C103.65 15.7067 104.286 15.2303 104.991 14.9174C105.704 14.6088 106.462 14.4509 107.298 14.4509C108.137 14.4509 108.899 14.6557 109.569 15.0696C110.25 15.4749 110.798 16.0751 111.206 16.8701C111.735 16.0751 112.395 15.4749 113.176 15.0696C113.951 14.6557 114.804 14.4509 115.726 14.4509C116.68 14.4509 117.528 14.6728 118.252 15.1193C118.971 15.5645 119.489 16.1419 119.81 16.853C120.128 17.5755 120.284 18.7374 120.284 20.3516V28.2319H116.893V21.4168C116.893 19.8922 116.703 18.8583 116.319 18.3221C115.941 17.7845 115.379 17.5143 114.617 17.5143C114.042 17.5143 113.52 17.6807 113.068 18.0064C112.61 18.3363 112.271 18.7943 112.047 19.3703C111.826 19.9534 111.714 20.8835 111.714 22.1691V28.2319H108.318V21.7226C108.318 20.5208 108.237 19.6504 108.056 19.1143C107.873 18.5696 107.609 18.1714 107.255 17.9097C106.9 17.6452 106.476 17.5143 105.967 17.5143C105.411 17.5143 104.894 17.6807 104.444 18.0135C103.979 18.3449 103.637 18.8142 103.41 19.4144C103.184 20.0174 103.071 20.9617 103.071 22.2559V28.2319H99.6992V14.7937Z" fill="white"/>
<path d="M124.59 9.26048C125.172 9.26048 125.684 9.47523 126.106 9.90331C126.53 10.33 126.742 10.8505 126.742 11.462C126.742 12.0594 126.53 12.5756 126.113 13.0008C125.694 13.4204 125.193 13.6394 124.608 13.6394C124.011 13.6394 123.503 13.4175 123.08 12.9866C122.657 12.5529 122.445 12.0252 122.445 11.4123C122.445 10.8178 122.65 10.3143 123.07 9.89193C123.489 9.47381 123.994 9.26048 124.59 9.26048Z" fill="white"/>
<path d="M122.9 14.7928H126.277V28.2311H122.9V14.7928Z" fill="white"/>
<path d="M133.671 36.5861H129.949C129.969 36.8051 130.02 37.0043 130.1 37.1721C130.175 37.3413 130.292 37.4949 130.437 37.6229C130.576 37.7523 130.738 37.8633 130.922 37.9472C131.117 38.0254 131.318 38.0638 131.543 38.0638C131.867 38.0638 132.163 37.9785 132.425 37.8021C132.691 37.63 132.887 37.3968 132.999 37.0995H133.558C133.466 37.3513 133.356 37.5561 133.226 37.7182C133.011 37.9785 132.761 38.1832 132.463 38.3255C132.177 38.4663 131.863 38.5359 131.522 38.5359C130.933 38.5359 130.442 38.3312 130.026 37.9216C129.616 37.5134 129.417 37.0199 129.417 36.4283C129.417 36.0357 129.508 35.6717 129.701 35.3303C129.889 34.9919 130.152 34.7273 130.496 34.5339C130.835 34.3391 131.183 34.2452 131.55 34.2452C131.91 34.2452 132.256 34.3391 132.598 34.5339C132.93 34.7273 133.201 34.9947 133.392 35.336C133.581 35.6788 133.674 36.0357 133.674 36.4098L133.671 36.5861ZM133.142 36.114C133.099 35.9049 133.044 35.7271 132.965 35.5778C132.899 35.4356 132.792 35.3005 132.654 35.1682C132.527 35.0445 132.358 34.935 132.168 34.8425C131.974 34.7615 131.769 34.7174 131.547 34.7174C131.328 34.7174 131.128 34.7558 130.936 34.8368C130.757 34.9165 130.587 35.0217 130.452 35.1426C130.32 35.2692 130.209 35.4114 130.13 35.5693C130.051 35.7271 129.987 35.9077 129.949 36.114H133.142Z" fill="white"/>
<path d="M134.129 37.2278H134.651C134.658 37.4028 134.687 37.545 134.73 37.6417C134.786 37.7825 134.868 37.8877 134.984 37.9589C135.092 38.0285 135.233 38.0641 135.401 38.0641C135.63 38.0641 135.816 38.0029 135.95 37.8693C136.088 37.7384 136.147 37.5635 136.147 37.3502C136.147 37.1638 136.091 37.0088 135.985 36.8823C135.886 36.7557 135.657 36.6319 135.323 36.5153C135.05 36.42 134.86 36.339 134.744 36.2636C134.584 36.1584 134.461 36.0318 134.373 35.8924C134.287 35.7473 134.249 35.5781 134.249 35.3861C134.249 35.059 134.358 34.7859 134.577 34.5698C134.801 34.3536 135.068 34.2441 135.401 34.2441C135.623 34.2441 135.826 34.2967 136.005 34.4062C136.186 34.5115 136.324 34.6594 136.422 34.8485C136.486 34.9694 136.522 35.1472 136.529 35.3591H136.005C135.983 35.1472 135.914 34.9879 135.806 34.8812C135.69 34.7689 135.554 34.7163 135.392 34.7163C135.213 34.7163 135.068 34.776 134.947 34.894C134.835 35.0121 134.775 35.1557 134.775 35.325L134.86 35.6265L135.104 35.8412C135.188 35.8881 135.314 35.9393 135.476 36.0005C135.773 36.1029 135.997 36.1939 136.119 36.2807C136.305 36.3944 136.44 36.5338 136.534 36.6945C136.624 36.8623 136.665 37.0615 136.665 37.3132C136.665 37.5407 136.62 37.7498 136.514 37.9404C136.415 38.1366 136.267 38.2831 136.069 38.3841C135.876 38.4865 135.657 38.5405 135.416 38.5405C135.188 38.5405 134.987 38.4964 134.821 38.4097C134.644 38.3201 134.508 38.2205 134.411 38.0954C134.31 37.9745 134.235 37.8479 134.196 37.7142C134.155 37.5805 134.129 37.4198 134.129 37.2278Z" fill="white"/>
<path d="M137.781 38.439V34.8223H136.92V34.353H137.781V32.9052H138.303V34.353H139.287V34.8223H138.303V38.439H137.781Z" fill="white"/>
<path d="M143.61 34.3528V38.4388H143.083V37.7177H143.071C142.959 37.8784 142.852 37.995 142.76 38.0818C142.602 38.2126 142.419 38.325 142.197 38.4103C141.981 38.4956 141.727 38.5397 141.442 38.5397C141.019 38.5397 140.648 38.4416 140.314 38.2539C139.988 38.0619 139.731 37.7959 139.554 37.4574C139.368 37.1147 139.28 36.7663 139.28 36.3951C139.28 36.0182 139.378 35.6598 139.564 35.3199C139.759 34.98 140.021 34.7169 140.366 34.5277C140.705 34.3386 141.079 34.2447 141.47 34.2447C141.727 34.2447 141.968 34.286 142.185 34.3642C142.4 34.4424 142.588 34.5505 142.744 34.6884C142.852 34.7837 142.962 34.9075 143.071 35.0653H143.083V34.3528H143.61ZM139.807 36.405C139.807 36.698 139.871 36.981 140.016 37.2342C140.15 37.4944 140.348 37.6978 140.614 37.8471C140.874 37.9908 141.151 38.0633 141.456 38.0633C141.747 38.0633 142.035 37.995 142.295 37.8485C142.549 37.7035 142.753 37.503 142.902 37.2413C143.05 36.981 143.117 36.698 143.117 36.4036C143.117 36.1021 143.05 35.8162 142.902 35.5531C142.753 35.2858 142.547 35.081 142.295 34.9387C142.039 34.7894 141.763 34.7169 141.47 34.7169C141.308 34.7169 141.151 34.7382 141.019 34.7766C140.874 34.815 140.729 34.8748 140.602 34.953C140.467 35.0269 140.344 35.1293 140.221 35.2616C140.098 35.3938 139.991 35.5631 139.921 35.7608C139.844 35.9641 139.807 36.1775 139.807 36.405Z" fill="white"/>
<path d="M144.547 38.4391V32.9053H145.069V35.0656H145.083C145.195 34.9163 145.305 34.7997 145.41 34.7087C145.51 34.6162 145.636 34.5337 145.774 34.4626C145.919 34.3915 146.07 34.3389 146.219 34.3019C146.38 34.2607 146.539 34.245 146.706 34.245C147.006 34.245 147.287 34.3019 147.555 34.4128C147.816 34.528 148.045 34.6745 148.226 34.8566C148.41 35.0372 148.553 35.2363 148.66 35.4553C148.808 35.7497 148.875 36.0669 148.875 36.394C148.875 36.7694 148.781 37.1221 148.593 37.4634C148.402 37.8033 148.141 38.0636 147.795 38.2542C147.457 38.4419 147.09 38.54 146.703 38.54C146.448 38.54 146.215 38.5016 146.01 38.4277C145.806 38.3566 145.619 38.2584 145.457 38.1248C145.34 38.0281 145.21 37.8944 145.083 37.718H145.069V38.4391H144.547ZM145.038 36.4025C145.038 36.6912 145.109 36.9671 145.248 37.2302C145.39 37.4919 145.591 37.6981 145.851 37.8474C146.117 37.9911 146.396 38.0636 146.692 38.0636C146.992 38.0636 147.266 37.9939 147.535 37.856C147.799 37.7137 148 37.5118 148.144 37.2473C148.283 36.9856 148.35 36.6983 148.35 36.3925C148.35 36.0811 148.274 35.8009 148.134 35.535C147.99 35.279 147.784 35.0756 147.524 34.9348C147.259 34.7897 146.985 34.7172 146.692 34.7172C146.391 34.7172 146.11 34.7897 145.851 34.9391C145.594 35.0912 145.39 35.2989 145.252 35.5634C145.109 35.8293 145.038 36.1081 145.038 36.4025Z" fill="white"/>
<path d="M149.586 32.906H150.108V38.4426H149.586V32.906Z" fill="white"/>
<path d="M151.048 32.906H151.563V33.8475H151.048V32.906ZM151.048 34.3523H151.563V38.4384H151.048V34.3523Z" fill="white"/>
<path d="M152.198 37.2278H152.715C152.73 37.4028 152.752 37.545 152.794 37.6417C152.851 37.7825 152.939 37.8877 153.052 37.9589C153.158 38.0285 153.297 38.0641 153.461 38.0641C153.701 38.0641 153.88 38.0029 154.01 37.8693C154.152 37.7384 154.212 37.5635 154.212 37.3502C154.212 37.1638 154.163 37.0088 154.049 36.8823C153.95 36.7557 153.728 36.6319 153.382 36.5153C153.115 36.42 152.929 36.339 152.815 36.2636C152.649 36.1584 152.529 36.0318 152.445 35.8924C152.353 35.7473 152.321 35.5781 152.321 35.3861C152.321 35.059 152.422 34.7859 152.643 34.5698C152.865 34.3536 153.132 34.2441 153.461 34.2441C153.683 34.2441 153.89 34.2967 154.064 34.4062C154.25 34.5115 154.392 34.6594 154.483 34.8485C154.546 34.9694 154.583 35.1472 154.6 35.3591H154.074C154.049 35.1472 153.987 34.9879 153.873 34.8812C153.761 34.7689 153.623 34.7163 153.454 34.7163C153.281 34.7163 153.132 34.776 153.016 34.894C152.896 35.0121 152.836 35.1557 152.836 35.325L152.929 35.6265L153.175 35.8412C153.252 35.8881 153.38 35.9393 153.549 36.0005C153.849 36.1029 154.061 36.1939 154.186 36.2807C154.371 36.3944 154.505 36.5338 154.6 36.6945C154.688 36.8623 154.741 37.0615 154.741 37.3132C154.741 37.5407 154.685 37.7498 154.583 37.9404C154.483 38.1366 154.335 38.2831 154.138 38.3841C153.947 38.4865 153.728 38.5405 153.488 38.5405C153.252 38.5405 153.052 38.4964 152.882 38.4097C152.713 38.3201 152.576 38.2205 152.477 38.0954C152.374 37.9745 152.303 37.8479 152.262 37.7142C152.216 37.5805 152.198 37.4198 152.198 37.2278Z" fill="white"/>
<path d="M155.343 38.439V32.9052H155.858V34.8693H155.884C156.022 34.6773 156.195 34.5223 156.401 34.4127C156.608 34.3018 156.864 34.2449 157.178 34.2449C157.45 34.2449 157.7 34.2975 157.92 34.3943C158.145 34.491 158.343 34.6389 158.515 34.8294C158.626 34.9546 158.705 35.1082 158.784 35.286C158.889 35.569 158.941 35.8634 158.941 36.1919V38.439H158.417V36.1919C158.417 35.7254 158.296 35.3613 158.057 35.0997C157.816 34.8437 157.504 34.7171 157.13 34.7171C156.908 34.7171 156.713 34.7654 156.541 34.8607C156.367 34.956 156.226 35.0726 156.12 35.2134C156.049 35.313 155.986 35.4467 155.941 35.6131C155.891 35.7866 155.858 35.9757 155.858 36.1919V38.439H155.343Z" fill="white"/>
<path d="M163.79 36.5861H160.065C160.089 36.8051 160.132 37.0043 160.213 37.1721C160.294 37.3413 160.411 37.4949 160.549 37.6229C160.692 37.7523 160.856 37.8633 161.049 37.9472C161.233 38.0254 161.433 38.0638 161.652 38.0638C161.984 38.0638 162.279 37.9785 162.545 37.8021C162.807 37.63 162.999 37.3968 163.116 37.0995H163.67C163.579 37.3513 163.465 37.5561 163.343 37.7182C163.127 37.9785 162.875 38.1832 162.582 38.3255C162.291 38.4663 161.978 38.5359 161.634 38.5359C161.052 38.5359 160.556 38.3312 160.143 37.9216C159.736 37.5134 159.529 37.0199 159.529 36.4283C159.529 36.0357 159.624 35.6717 159.81 35.3303C160.005 34.9919 160.268 34.7273 160.615 34.5339C160.95 34.3391 161.299 34.2452 161.666 34.2452C162.023 34.2452 162.372 34.3391 162.713 34.5339C163.049 34.7273 163.313 34.9947 163.508 35.336C163.699 35.6788 163.79 36.0357 163.79 36.4098V36.5861ZM163.261 36.114C163.219 35.9049 163.163 35.7271 163.084 35.5778C163.013 35.4356 162.905 35.3005 162.77 35.1682C162.636 35.0445 162.477 34.935 162.284 34.8425C162.086 34.7615 161.877 34.7174 161.664 34.7174C161.444 34.7174 161.24 34.7558 161.059 34.8368C160.866 34.9165 160.706 35.0217 160.573 35.1426C160.429 35.2692 160.325 35.4114 160.248 35.5693C160.163 35.7271 160.103 35.9077 160.065 36.114H163.261Z" fill="white"/>
<path d="M168.679 32.9057V38.4423H168.165V37.7227H168.15C168.034 37.8806 167.924 38.0029 167.825 38.0896C167.655 38.2262 167.462 38.3357 167.246 38.4196C167.024 38.4964 166.795 38.5362 166.533 38.5362C165.923 38.5362 165.408 38.33 164.992 37.9161C164.565 37.5023 164.357 37.0059 164.357 36.4242C164.357 36.0275 164.446 35.6605 164.643 35.3249C164.834 34.9836 165.094 34.7176 165.441 34.5285C165.782 34.3393 166.142 34.244 166.533 34.244C166.902 34.244 167.236 34.3279 167.536 34.4958C167.759 34.6209 167.96 34.8044 168.15 35.0518H168.165V32.9057H168.679ZM168.199 36.3944C168.199 36.1242 168.125 35.8525 167.991 35.5837C167.857 35.3164 167.655 35.1087 167.399 34.9523C167.134 34.7916 166.848 34.7162 166.533 34.7162C166.233 34.7162 165.956 34.7887 165.697 34.9352C165.441 35.0803 165.246 35.2794 165.094 35.5425C164.95 35.8084 164.879 36.0957 164.879 36.4029C164.879 36.7058 164.95 36.9917 165.094 37.2477C165.239 37.5065 165.441 37.7085 165.697 37.8493C165.959 37.9901 166.233 38.0669 166.538 38.0669C166.838 38.0669 167.119 37.9901 167.374 37.845C167.638 37.6971 167.836 37.4952 167.981 37.2306C168.125 36.9661 168.199 36.6945 168.199 36.3944Z" fill="white"/>
<path d="M171.946 38.439V33.4087H170.993V32.9052H172.503V38.439H171.946Z" fill="white"/>
<path d="M175.16 38.439H174.524L175.808 36.5617L175.79 36.5546C175.628 36.6314 175.456 36.6754 175.268 36.6754C175.012 36.6754 174.775 36.6285 174.548 36.5332C174.327 36.4337 174.125 36.3071 173.978 36.1492C173.823 35.9885 173.697 35.8093 173.604 35.6202C173.476 35.3471 173.412 35.0584 173.412 34.7583C173.412 34.4127 173.497 34.0856 173.66 33.7784C173.826 33.4713 174.052 33.2352 174.345 33.0674C174.638 32.8995 174.958 32.8185 175.308 32.8185C175.671 32.8185 175.992 32.9052 176.285 33.0759C176.581 33.2423 176.803 33.4855 176.966 33.7941C177.117 34.1056 177.199 34.4255 177.199 34.7555C177.199 34.9987 177.152 35.2305 177.076 35.4552C176.99 35.6756 176.81 35.9885 176.528 36.4052L175.16 38.439ZM176.638 34.7285C176.638 34.5052 176.588 34.2776 176.483 34.0529C176.373 33.824 176.218 33.6462 176.006 33.5139C175.797 33.3831 175.565 33.3162 175.308 33.3162C175.065 33.3162 174.841 33.3774 174.638 33.4997C174.425 33.6192 174.263 33.7898 174.143 34.0174C174.026 34.2407 173.971 34.481 173.971 34.7413C173.971 35.0058 174.031 35.2447 174.143 35.4765C174.267 35.6998 174.429 35.8691 174.638 35.9928C174.846 36.1165 175.069 36.1763 175.305 36.1763C175.504 36.1763 175.685 36.1336 175.847 36.0554C176.01 35.9757 176.15 35.8691 176.271 35.7468C176.379 35.6245 176.476 35.4694 176.54 35.2945C176.611 35.1139 176.638 34.9347 176.638 34.7285Z" fill="white"/>
<path d="M177.685 38.439V37.9355L179.622 36.071C179.925 35.778 180.144 35.5533 180.281 35.3983C180.412 35.2362 180.51 35.0911 180.573 34.939C180.637 34.7896 180.67 34.6346 180.67 34.4839C180.67 34.2919 180.617 34.1027 180.518 33.915C180.412 33.723 180.27 33.5722 180.087 33.4713C179.9 33.3617 179.703 33.3091 179.485 33.3091C179.317 33.3091 179.174 33.3333 179.043 33.3859C178.909 33.4357 178.8 33.5025 178.709 33.5822L178.472 33.8581C178.408 33.9747 178.366 34.0913 178.33 34.2207C178.299 34.3502 178.285 34.5052 178.273 34.6943H177.723C177.73 34.4199 177.756 34.2051 177.805 34.0501C177.865 33.8097 177.978 33.5978 178.13 33.4172C178.288 33.2309 178.48 33.083 178.719 32.9735C178.962 32.864 179.219 32.8114 179.501 32.8114C180.048 32.8114 180.498 33.0133 180.835 33.4314C181.095 33.7528 181.23 34.1141 181.23 34.5109C181.23 34.6744 181.206 34.8223 181.163 34.956C181.125 35.0911 181.072 35.2134 181.011 35.3173L180.799 35.6031C180.603 35.8392 180.408 36.0511 180.206 36.2445L178.433 37.9355H181.192V38.439H177.685Z" fill="white"/>
<path d="M182.154 38.4391L184.436 33.4089H181.81V32.9054H185.008V33.4089L182.74 38.4391H182.154Z" fill="white"/>
<path d="M133.925 17.7477C134.968 17.7477 135.773 17.6254 136.31 17.3267C137.688 16.5331 137.942 15.4949 137.956 14.2718C137.961 12.7757 137.12 11.7019 136.31 11.345C135.857 11.0861 135.283 10.8813 133.755 10.8543H131.018V17.7477H133.925ZM134.472 26.8639C135.381 26.8639 136.25 26.7445 136.91 26.5055C138.161 25.948 139.043 24.9482 139.079 23.078C139.074 21.4027 138.218 20.1398 136.859 19.5297C135.938 19.1414 135.402 19.1229 133.925 19.1229H131.018V26.8639H134.472ZM133.755 9.47906C135.324 9.47622 136.329 9.73364 137.095 10.1802C138.909 11.1402 139.413 12.962 139.403 14.3742C139.416 14.8222 139.393 16.9754 137.392 18.2582C140.263 19.4714 140.538 22.2446 140.532 23.0823C140.514 25.4218 139.318 27.0104 137.43 27.8082C136.603 28.0913 135.614 28.2363 134.439 28.2363H129.57V9.47906H133.755Z" fill="white"/>
<path d="M143.255 21.417C143.301 24.1974 145.136 27.2025 149.091 27.2082C152.453 27.2025 154.769 24.5857 154.781 21.4242C154.769 18.0692 152.296 15.6387 149.017 15.6316C145.834 15.6387 143.263 17.9782 143.255 21.417ZM149.017 28.5579C146.801 28.5579 144.995 27.6917 143.766 26.3634C142.529 25.0294 141.856 23.2502 141.856 21.4242C141.856 19.5497 142.547 17.7663 143.792 16.4508C145.037 15.131 146.841 14.2819 149.017 14.2819C151.612 14.2862 153.635 15.5391 154.71 16.9755V14.6005H156.106V27.8837V28.2364H154.71V25.8401C153.435 27.5453 151.436 28.5579 149.037 28.5579H149.017Z" fill="white"/>
<path d="M170.358 28.2363V21.0528C170.358 18.8698 169.773 17.5557 168.895 16.7607C167.988 15.9415 166.739 15.6315 165.479 15.6315C162.371 15.7125 160.621 17.3637 160.594 20.4441V28.2363H159.193V14.6004H160.594V16.2771C161.709 14.9431 163.606 14.2861 165.324 14.2804L165.475 14.2818C167.19 14.2818 168.648 14.7397 169.758 15.6556C171.126 16.8261 171.762 18.6835 171.758 21.0528V28.2363H170.358Z" fill="white"/>
<path d="M17.1167 9.60625C20.2341 9.39576 20.4076 11.4921 20.4076 11.7338V16.154C21.0633 15.5823 21.7829 15.1585 22.4499 14.8769C23.1212 14.591 23.7981 14.446 24.4794 14.446C25.8077 14.446 26.9369 14.911 27.8514 15.8326C28.6307 16.6333 29.019 17.8052 29.019 19.3511V28.2327H25.6996V22.342C25.6996 20.7861 25.6242 19.728 25.4806 19.1804C25.3327 18.6258 25.0795 18.2204 24.7155 17.9445C24.3585 17.6743 23.9219 17.5335 23.3886 17.5335C22.7087 17.5335 22.12 17.7639 21.6322 18.2204C21.1387 18.6699 20.8002 19.2871 20.6124 20.0665C20.5143 20.476 20.4617 21.3948 20.4617 22.8397V28.2327H17.1167V9.60625Z" fill="white"/>
<path d="M98.2307 28.2322L93.0738 21.117L97.6348 14.794C97.6348 14.794 94.3083 14.2336 93.0212 15.936C91.9972 17.2259 91.1439 18.4575 91.1439 18.4575L88.4873 14.794H84.5748L89.1941 21.1639L83.9932 28.2322C83.9932 28.2322 87.3453 28.7997 88.6437 27.0874C89.433 26.0876 89.2254 26.3777 91.1297 23.8362L94.3183 28.2322H98.2307Z" fill="white"/>
<path d="M66.4467 11.7672C66.4467 11.5226 66.2774 9.3865 63.106 9.60409V28.2319H66.4581L66.4467 11.7672Z" fill="white"/>
<path d="M179.531 21.2685L184.578 14.6013H182.775L176.219 23.3321V17.2622V14.3154V11.7683V11.7541V10.3845C176.219 10.2793 176.141 9.38898 174.818 9.47858V28.2358H176.219V25.6375L178.645 22.4006L183.192 28.2358H185.009L179.531 21.2685Z" fill="white"/>
<path d="M199.822 13.0812L199.896 13.2263L199.934 13.3173C201.221 15.9668 200.358 18.0973 199.913 19.4711L199.896 19.6119C199.62 20.67 199.486 21.7139 199.453 22.7109C199.469 24.8669 199.941 26.8537 200.459 28.384L200.413 28.4551L200.449 28.5461L200.459 28.576C200.207 28.9969 199.998 29.5203 199.884 30.1759L199.843 30.567L197.814 26.1014L197.772 26.1355L197.775 26.1014L195.761 30.6979L195.712 30.1759C195.602 29.5203 195.394 28.9969 195.133 28.576L195.147 28.5461C196.003 26.3872 196.491 23.5172 195.884 20.4098C196.693 19.4512 198.385 16.0991 199.822 13.0812Z" fill="white"/>
<path d="M203.641 4.19661C203.641 4.19661 203.613 4.19661 203.462 4.43127C203.307 4.66735 203.031 4.55073 203.031 4.55073C203.176 4.50096 203.165 4.44549 203.295 4.29758C203.426 4.14541 203.641 4.19661 203.641 4.19661ZM203.913 3.12001L204.153 3.61209C204.153 3.61209 204.369 4.10985 203.913 4.10985C203.465 4.10985 203.66 3.62631 203.66 3.62631L203.913 3.12001ZM203.913 4.78113L203.687 4.51233C203.687 4.51233 203.496 4.22932 203.913 4.22932C204.309 4.22932 204.132 4.50096 204.132 4.50096L203.913 4.78113ZM204.777 3.1001C204.637 3.1897 204.736 3.67466 204.575 3.88373C204.463 4.0231 204.234 4.04301 204.234 4.04301C204.372 3.81119 204.26 3.74293 204.294 3.46134C204.372 3.07592 204.777 3.1001 204.777 3.1001ZM203.02 3.1001C203.02 3.1001 203.44 3.07592 203.51 3.46134C203.547 3.74293 203.44 3.81119 203.578 4.04301C203.578 4.04301 203.338 4.0231 203.229 3.88373C203.066 3.67466 203.173 3.1897 203.02 3.1001ZM204.179 4.19661C204.179 4.19661 204.403 4.14541 204.531 4.29758C204.658 4.44549 204.647 4.50096 204.796 4.55073C204.796 4.55073 204.506 4.66735 204.369 4.43127C204.206 4.19661 204.179 4.19661 204.179 4.19661Z" fill="white"/>
<path d="M197.786 27.6572L196.103 31.4914C196.103 31.4914 194.833 35.182 197.786 35.182C200.805 35.182 199.405 31.4189 199.405 31.4189L197.786 27.6572Z" fill="white"/>
<path d="M197.772 39.9999L199.295 37.8354C199.295 37.8354 200.453 35.7476 197.772 35.7476C195.02 35.7476 196.304 37.878 196.304 37.878L197.772 39.9999Z" fill="white"/>
<path d="M203.579 27.4879C203.579 27.4879 200.834 27.3428 200.343 30.2569C200.104 32.3944 200.834 32.9277 199.921 34.7552C199.921 34.7552 201.487 34.5647 202.213 33.5165C203.331 31.9151 202.644 28.2004 203.579 27.4879Z" fill="white"/>
<path d="M191.931 27.4879C191.931 27.4879 194.664 27.3428 195.155 30.2569C195.398 32.3944 194.664 32.9277 195.574 34.7552C195.574 34.7552 194.018 34.5647 193.299 33.5165C192.17 31.9151 192.858 28.2004 191.931 27.4879Z" fill="white"/>
<path d="M199.578 35.5028C199.578 35.5028 201.021 35.1472 201.896 36.2807C202.768 37.4028 202.692 37.8209 203.641 38.2405C203.641 38.2405 201.825 39.0867 200.805 37.299C199.784 35.5028 199.578 35.5028 199.578 35.5028Z" fill="white"/>
<path d="M196.029 35.5028C196.029 35.5028 194.597 35.1472 193.715 36.2807C192.836 37.4028 192.908 37.8209 191.959 38.2405C191.959 38.2405 193.789 39.0867 194.806 37.299C195.827 35.5028 196.029 35.5028 196.029 35.5028Z" fill="white"/>
<path d="M198.396 1.10385C199.387 1.35984 199.48 2.30844 199.491 2.48195C199.173 2.30133 198.715 2.18756 198.21 2.18756C197.674 2.18756 197.204 2.26009 196.886 2.45208L196.788 2.50897C196.93 1.38686 197.903 1.07541 197.903 1.07541V0.12396C198.188 -0.154789 198.396 0.12396 198.396 0.12396V1.10385Z" fill="white"/>
<path d="M198.042 2.67591C198.042 2.67591 199.045 2.52374 199.27 3.33438C199.514 4.15357 199.319 4.18912 200.015 5.00404C200.717 5.82037 200.368 6.36792 200.17 6.32525C199.975 6.2897 199.433 5.62838 199.169 5.78766C198.903 5.93699 198.617 6.52293 198.042 6.48169C197.461 6.44329 197.062 5.66251 196.798 5.73646C196.523 5.82037 196.033 6.25698 195.943 6.2897C195.795 6.34658 195.168 6.08917 195.669 5.27852C196.176 4.45791 196.283 5.08083 196.748 3.95873C197.224 2.82951 197.345 2.71289 198.042 2.67591Z" fill="white"/>
<path d="M191.44 4.19661C191.44 4.19661 191.414 4.19661 191.263 4.43127C191.108 4.66735 190.828 4.55073 190.828 4.55073C190.973 4.50096 190.956 4.44549 191.097 4.29758C191.225 4.14541 191.44 4.19661 191.44 4.19661ZM191.704 3.12001L191.946 3.61209C191.946 3.61209 192.159 4.10985 191.704 4.10985C191.263 4.10985 191.454 3.62631 191.454 3.62631L191.704 3.12001ZM191.704 4.78113L191.485 4.51233C191.485 4.51233 191.292 4.22932 191.704 4.22932C192.103 4.22932 191.93 4.50096 191.93 4.50096L191.704 4.78113ZM192.576 3.1001C192.434 3.1897 192.536 3.67466 192.37 3.88373C192.26 4.0231 192.024 4.04301 192.024 4.04301C192.169 3.81119 192.057 3.74293 192.088 3.46134C192.169 3.07592 192.576 3.1001 192.576 3.1001ZM190.815 3.1001C190.815 3.1001 191.234 3.07592 191.309 3.46134C191.349 3.74293 191.234 3.81119 191.376 4.04301C191.376 4.04301 191.14 4.0231 191.026 3.88373C190.865 3.67466 190.959 3.1897 190.815 3.1001ZM191.976 4.19661C191.976 4.19661 192.194 4.14541 192.329 4.29758C192.459 4.44549 192.441 4.50096 192.59 4.55073C192.59 4.55073 192.31 4.66735 192.159 4.43127C192.003 4.19661 191.976 4.19661 191.976 4.19661Z" fill="white"/>
<path d="M195.697 19.5198L195.694 19.4715C195.243 18.0976 194.375 15.9672 195.666 13.3177L195.697 13.2252C195.828 12.9721 195.956 12.7061 196.083 12.3861C196.259 11.9381 195.945 11.3622 195.723 11.0009L199.652 7.1923L201.497 7.84508L201.413 8.08685C200.26 10.6767 197.017 17.8004 195.697 19.5198Z" fill="white"/>
<path d="M204.774 5.9091C204.632 5.31747 203.962 4.91783 203.829 5.13401C203.829 5.13401 203.51 5.44831 203.61 5.9091C203.723 6.36136 203.86 7.03405 203.648 7.38107C203.462 7.70959 202.456 8.58566 201.906 8.94263L201.72 9.04503C201.472 9.59257 201.148 10.2838 200.787 11.056L200.915 11.4485L200.972 11.6178L200.986 11.6675C201.095 11.6334 201.57 11.4869 202.17 11.1982L202.132 11.0105C202.068 10.7886 202.065 10.6862 202.013 10.4146L202.089 10.3719C202.294 10.298 202.506 10.1842 202.692 10.0235C203.371 9.44893 204.147 8.29553 204.527 7.03405C204.732 6.34287 204.732 6.42393 204.732 6.42393C204.732 6.39975 204.823 6.14376 204.774 5.9091ZM202.276 11.6761C201.87 11.8851 201.236 12.1013 201.112 12.1426L201.274 12.7313C201.274 12.9617 201.3 13.2092 201.36 13.4623C201.641 14.5816 202.731 15.8815 202.823 16.6196C202.914 17.3606 203.071 18.3092 203.321 18.5197C203.571 18.733 203.854 17.5398 203.878 17.1472C203.914 16.7604 204.193 17.2866 204.287 16.9752L204.294 16.9225C204.358 16.6097 203.321 16.21 203.007 14.7466C202.778 13.596 202.399 12.1639 202.276 11.6761Z" fill="white"/>
<path d="M194.248 11.6535L194.202 11.8782V11.8853L194.132 12.248C194.071 12.4286 194.026 12.568 194.026 12.568C193.637 13.1952 192.382 15.1265 191.979 15.1791C191.487 15.2502 190.992 14.623 190.992 14.623C190.015 14.0897 189.098 14.8733 188.926 15.1478C188.749 15.4365 189.305 15.4365 189.934 15.5645C190.573 15.7124 191.136 16.2002 192.262 15.7451C193.187 15.364 194.286 14.2632 194.822 13.5919C194.9 13.5393 194.971 13.4227 195.028 13.2833C195.062 13.1895 195.172 12.6917 195.253 12.3475L195.296 12.1257C194.774 11.918 194.248 11.6535 194.248 11.6535ZM198.982 6.96739C197.373 6.81237 195.684 7.23902 195.081 8.06532C194.95 8.23171 194.788 8.82619 194.646 9.44911C194.135 9.20307 193.718 8.91152 193.718 8.91152C193.172 8.55455 192.17 7.6799 191.976 7.3528C191.762 7.00578 191.907 6.33309 192.012 5.88368C192.11 5.42004 191.8 5.11143 191.8 5.11143C191.672 4.88957 190.999 5.2892 190.854 5.88368C190.797 6.11407 190.897 6.36722 190.897 6.39567C190.897 6.39567 190.89 6.3146 191.102 7.00578C191.487 8.27011 192.252 9.42351 192.929 9.99096C193.077 10.1175 193.542 10.4105 194.39 10.7149C194.35 10.9367 194.323 11.106 194.304 11.1984C194.54 11.3492 195.384 11.6635 195.384 11.6635C195.462 11.2183 195.591 10.493 195.613 10.338L195.617 10.3067L199.046 6.97023L198.982 6.96739Z" fill="white"/>
</svg>
