<svg width="130" height="40" viewBox="0 0 130 40" fill="none" xmlns="http://www.w3.org/2000/svg">
<path d="M129.476 0H0.0698242V32.3519H129.476V0Z" fill="#004E96"/>
<path d="M129.476 29.1156H0.0698242V32.35H129.476V29.1156Z" fill="#FAA61A"/>
<path d="M15.6306 7.35783L15.407 9.72211H11.2291L10.8382 13.0054H15.033L14.753 15.3922H10.5563L9.75565 21.8367H7.34814L9.04712 7.33716L15.6306 7.35783Z" fill="white"/>
<path d="M16.8544 7.36351L15.21 21.7804C15.21 21.7804 22.3103 21.9232 22.3103 21.7597C22.3103 21.5962 22.5528 19.4762 22.5528 19.4762H17.7998L18.2809 15.3509H23.0508L23.3477 12.9434H18.606L18.9932 9.68832H23.7481L24.0243 7.34283L16.8544 7.36351Z" fill="white"/>
<path d="M36.3041 7.36351L34.6577 21.7804C34.6577 21.7804 41.7581 21.9232 41.7581 21.7597C41.7581 21.5962 42.0005 19.4762 42.0005 19.4762H37.2456L37.7268 15.3509H42.4986L42.7936 12.9434H38.0594L38.4466 9.68832H43.1996L43.4796 7.34283L36.3041 7.36351Z" fill="white"/>
<path d="M28.6855 7.39924L25.4585 7.38232L23.8291 21.801H26.184V21.7898C26.6858 21.8386 29.5199 22.0566 31.2865 21.0267C31.2865 21.0267 34.9232 19.5345 34.8893 13.558C34.8912 13.5524 34.6789 8.06642 28.6855 7.39924ZM29.2643 19.4744C29.2643 19.4744 27.0372 19.6191 26.4452 19.542L27.5559 9.73721L29.3169 9.70338C29.3169 9.70338 31.8391 9.70338 32.5627 12.9359C32.5682 12.9556 32.572 12.9757 32.5739 12.9961C33.2768 16.2907 31.1982 19.2037 29.2643 19.4744Z" fill="white"/>
<path d="M52.2472 21.8368L49.2007 15.6347C49.2007 15.6347 51.8563 15.1461 52.1081 11.3892C52.1081 11.3892 52.1626 7.6304 48.447 7.41803H44.9739L43.3257 21.8349H45.7557L46.421 15.8903L46.7405 15.911L49.7476 21.8386L52.2472 21.8368ZM47.1277 9.71277C47.1277 9.71277 49.4713 9.28427 49.7795 10.7126C49.7795 10.7126 50.317 13.3776 47.8738 13.7309L46.6729 13.7196L47.1277 9.71277Z" fill="white"/>
<path d="M62.3044 21.8367H64.8002L60.6073 7.32965L52.5259 21.8179H55.2698L56.8729 18.7526H61.5244L62.3044 21.8367ZM58.0889 16.4278L60.0134 12.7479L60.9531 16.4466L58.0889 16.4278Z" fill="white"/>
<path d="M94.6598 21.8367H97.1651L92.9627 7.32965L84.8813 21.8179H87.6234L89.2265 18.7526H93.878L94.6598 21.8367ZM90.4444 16.4278L92.3707 12.7479L93.301 16.4466L90.4444 16.4278Z" fill="white"/>
<path d="M66.9855 7.47629L65.2959 21.8368H71.7911L72.0373 19.5589H68.0135L69.2934 7.45374L66.9855 7.47629Z" fill="white"/>
<path d="M83.6012 14.2834C83.6012 14.2834 85.5389 12.6352 85.0371 10.4607C85.0371 10.4607 84.7984 7.68299 81.5132 7.39545H78.3521L76.7227 21.8048H79.1903C79.1903 21.8048 79.585 21.8048 80.3894 21.8048C80.3894 21.8048 83.5749 21.8311 84.6556 20.0231C84.6556 20.0287 86.7624 16.8601 83.6012 14.2834ZM80.675 9.47218C80.675 9.47218 82.1372 9.36693 82.6653 10.2239C82.6653 10.2239 83.6952 12.2424 81.4907 13.184L80.2071 13.2592L80.6262 9.7071L80.675 9.47218ZM82.545 18.9556C82.545 18.9556 81.9229 19.8728 79.5267 19.5589H79.4572L79.9515 15.4111C80.3518 15.3791 81.2915 15.3284 81.611 15.5314C81.611 15.522 83.9583 16.1008 82.545 18.9556Z" fill="white"/>
<path d="M100.136 7.27887L98.0498 21.816H100.36L101.607 12.4359L109.448 21.7577L111.431 7.34465H108.95L107.935 16.0087L100.136 7.27887Z" fill="white"/>
<path d="M122.196 7.34284H119.448L114.82 12.4041L115.4 7.34284L112.916 7.31653L111.252 21.8367H113.737L114.399 16.0745L114.789 15.6366L119.088 21.7822H121.909L116.579 13.6332L122.196 7.34284Z" fill="white"/>
<path d="M1.93578 37.8473C1.70649 37.4714 1.43022 37.0185 1.10133 36.5035L0.62208 35.7725L0.163507 35.0884C0.0770552 34.97 0.0225527 34.9004 0 34.8685C0.157349 34.8845 0.315448 34.892 0.473608 34.891C0.629261 34.8918 0.784843 34.8842 0.939698 34.8685C0.988518 34.9967 1.04436 35.1222 1.10696 35.2443C1.16523 35.3646 1.26671 35.5375 1.40203 35.7649L1.69146 36.2724C1.94705 36.6952 2.1707 37.0636 2.3718 37.3699C2.55974 37.0805 2.77211 36.7366 2.99952 36.34L3.32277 35.7762C3.44117 35.577 3.53326 35.4135 3.59153 35.2932C3.65789 35.1564 3.71625 35.0158 3.76631 34.8722C3.87837 34.888 3.99144 34.8955 4.1046 34.8948C4.21777 34.8957 4.33085 34.8882 4.44289 34.8722C4.41658 34.8985 4.36396 34.9737 4.27938 35.0921C4.19481 35.2105 4.04258 35.4417 3.82081 35.7762L3.38291 36.449C3.07845 36.9208 2.81909 37.3361 2.60296 37.697V38.1142C2.60296 38.678 2.60296 39.0802 2.60296 39.3208C2.60617 39.522 2.62186 39.7229 2.64995 39.9222C2.52526 39.9067 2.39971 39.8992 2.27407 39.8996C2.14466 39.8987 2.01534 39.9063 1.88691 39.9222C1.91312 39.7227 1.9288 39.5219 1.9339 39.3208C1.9339 39.0802 1.94517 38.6761 1.94517 38.1142L1.93578 37.8473Z" fill="white"/>
<path d="M7.90444 39.9974C8.76897 39.9974 9.46873 39.7468 10.0037 39.2456C10.2707 38.9989 10.4811 38.6973 10.6203 38.3615C10.7595 38.0257 10.8242 37.6637 10.81 37.3004C10.8216 36.9585 10.7577 36.6182 10.6229 36.3038C10.4881 35.9894 10.2857 35.7085 10.03 35.4812C9.51007 35.0188 8.82911 34.7871 7.98714 34.7858C7.21644 34.7552 6.4639 35.0246 5.88785 35.5376C5.62078 35.7846 5.4099 36.0861 5.2695 36.4217C5.1291 36.7573 5.06245 37.1191 5.07407 37.4827C5.06253 37.825 5.1268 38.1656 5.26229 38.4801C5.39778 38.7946 5.60113 39.0753 5.85778 39.302C6.38025 39.7656 7.05997 39.9974 7.89693 39.9974M7.93827 39.6798C7.65876 39.6925 7.37978 39.6449 7.12032 39.5402C6.86086 39.4354 6.62703 39.276 6.43476 39.0727C6.04441 38.6267 5.84229 38.0466 5.87094 37.4545C5.84074 36.836 6.04171 36.2284 6.43476 35.7499C6.62172 35.5378 6.85378 35.3701 7.11393 35.2592C7.37408 35.1483 7.65573 35.097 7.93827 35.1091C8.21767 35.0973 8.49636 35.1453 8.75567 35.25C9.01498 35.3547 9.24891 35.5136 9.44179 35.7161C9.83145 36.1626 10.0335 36.7423 10.0056 37.3343C10.0354 37.9533 9.83448 38.5613 9.44179 39.0408C9.25405 39.2519 9.02182 39.4187 8.76182 39.5292C8.50182 39.6397 8.22055 39.6911 7.93827 39.6798Z" fill="white"/>
<path d="M16.5216 37.7139C16.5216 38.4656 16.3337 39.0295 15.9578 39.4147C15.5819 39.8 15.035 39.9973 14.3133 39.9973C13.5916 39.9973 13.0353 39.832 12.6839 39.5012C12.3324 39.1704 12.1558 38.6555 12.152 37.9638V37.4451L12.1407 35.7706C12.1407 35.4755 12.1295 35.2669 12.1219 35.1466C12.1201 35.0533 12.1107 34.9603 12.0938 34.8685C12.2259 34.885 12.359 34.8932 12.4922 34.8929C12.6248 34.8933 12.7572 34.8851 12.8887 34.8685C12.8712 34.9622 12.8605 35.057 12.8568 35.1523C12.8568 35.2707 12.8417 35.4774 12.8324 35.7706C12.8148 36.2642 12.8067 36.8205 12.8079 37.4395V37.7383C12.8079 38.3735 12.9451 38.8472 13.212 39.1535C13.4789 39.4598 13.8867 39.6139 14.4336 39.6139C15.0125 39.6139 15.4316 39.4523 15.6984 39.1272C15.9653 38.802 16.095 38.289 16.0931 37.5861V37.4432L16.0818 35.7706C16.0818 35.4661 16.0818 35.2519 16.0818 35.1316C16.0818 35.0113 16.0818 34.923 16.0687 34.8685C16.1592 34.8849 16.251 34.8931 16.3431 34.8929C16.4357 34.8933 16.5282 34.8851 16.6193 34.8685C16.5999 34.9696 16.5873 35.072 16.5817 35.1748C16.5705 35.297 16.5611 35.4962 16.5498 35.7706C16.5373 36.2642 16.5304 36.8212 16.5291 37.4414L16.5216 37.7139Z" fill="white"/>
<path d="M18.1422 39.6684C18.1379 39.7528 18.1291 39.8369 18.1159 39.9203C18.2464 39.906 18.3775 39.8991 18.5087 39.8996C18.6393 39.8991 18.7698 39.906 18.8996 39.9203C18.8877 39.8368 18.8802 39.7527 18.8771 39.6684C18.8771 39.55 18.8639 39.332 18.8545 39.0182C18.8545 38.5521 18.8414 38.0259 18.8414 37.4432H19.0913C19.3557 37.7402 19.6539 38.0904 19.9859 38.4938L20.4163 39.0182C20.6212 39.2606 20.7677 39.441 20.858 39.5613C20.9449 39.6751 21.0235 39.795 21.0929 39.9203C21.232 39.9071 21.3955 39.8996 21.574 39.8996C21.7525 39.8996 21.9161 39.8996 22.0551 39.9203C22.0251 39.8959 21.9574 39.8226 21.8484 39.7023C21.7394 39.582 21.5421 39.3546 21.2507 39.0182L20.8335 38.5295C20.4708 38.101 20.1588 37.727 19.8938 37.4019C20.2333 37.3552 20.5602 37.2422 20.8561 37.0692C21.0419 36.9748 21.1984 36.8314 21.3087 36.6545C21.419 36.4777 21.4789 36.2741 21.4819 36.0656C21.4929 35.893 21.4597 35.7204 21.3853 35.5642C21.311 35.408 21.1981 35.2733 21.0572 35.1729C20.7753 34.9718 20.3505 34.8741 19.7829 34.8741H19.4728C19.3582 34.8741 19.2285 34.8741 19.0857 34.8929H18.7098C18.5463 34.8929 18.3471 34.8797 18.1084 34.8685C18.1213 34.9506 18.1289 35.0335 18.131 35.1166C18.131 35.2387 18.1441 35.4567 18.1554 35.7706C18.1629 36.2492 18.1667 36.7911 18.1667 37.3963C18.1667 37.9939 18.1667 38.5239 18.1554 39.0182C18.1441 39.332 18.1385 39.55 18.1347 39.6684M18.8263 35.235C19.0143 35.2218 19.2342 35.2105 19.4672 35.2086C19.7928 35.1885 20.1168 35.2685 20.3956 35.4379C20.5008 35.5111 20.5855 35.6099 20.6418 35.7251C20.698 35.8402 20.7239 35.9678 20.717 36.0957C20.718 36.245 20.6799 36.392 20.6063 36.5219C20.5328 36.6519 20.4264 36.7602 20.2979 36.8362C19.9579 37.0385 19.5653 37.1347 19.1703 37.1125C19.0481 37.1125 18.9297 37.1125 18.8188 37.1237L18.8263 35.235Z" fill="white"/>
<path d="M25.2706 39.6666C25.2706 39.7887 25.2556 39.8733 25.248 39.9222C25.3777 39.9062 25.5083 39.8986 25.639 39.8996C25.7702 39.8987 25.9014 39.9063 26.0318 39.9222C26.0178 39.8395 26.0102 39.756 26.0092 39.6722C26.0092 39.5519 25.9923 39.3339 25.9848 39.0182C25.9716 38.5878 25.9679 38.1067 25.9697 37.5767C26.1929 37.6043 26.4178 37.6156 26.6426 37.6105C27.2891 37.6105 27.7902 37.4852 28.1461 37.2346C28.3187 37.1126 28.4578 36.9492 28.5507 36.7594C28.6437 36.5696 28.6874 36.3595 28.6779 36.1483C28.6908 35.9633 28.6563 35.778 28.5777 35.61C28.4991 35.4419 28.379 35.2967 28.2288 35.188C27.9281 34.9793 27.477 34.876 26.8474 34.876H26.5354C26.4208 34.876 26.2968 34.876 26.1596 34.8929C26.0562 34.8929 25.9284 34.8929 25.7837 34.8929C25.639 34.8929 25.4604 34.8929 25.265 34.8929C25.265 34.9399 25.28 35.0244 25.2875 35.1447C25.295 35.265 25.3007 35.483 25.3101 35.7931C25.3101 36.2742 25.3232 36.8118 25.3213 37.4019C25.3195 37.992 25.3213 38.5295 25.3101 39.02C25.3007 39.332 25.2932 39.55 25.2875 39.6684M25.9791 35.2613C26.1765 35.2425 26.3964 35.2312 26.6426 35.2312C26.9776 35.2094 27.3109 35.2935 27.5954 35.4717C27.7034 35.5546 27.7893 35.6627 27.8457 35.7866C27.902 35.9105 27.9271 36.0463 27.9187 36.1822C27.9237 36.3356 27.891 36.488 27.8235 36.6259C27.7561 36.7639 27.6558 36.8832 27.5315 36.9734C27.2263 37.1852 26.8594 37.2896 26.4884 37.2703C26.3005 37.2703 26.137 37.2703 25.9791 37.2497V35.2613Z" fill="white"/>
<path d="M29.5571 39.9541C29.5719 39.871 29.58 39.7867 29.5816 39.7023C29.5816 39.5801 29.5928 39.3659 29.6041 39.052C29.6041 38.5615 29.6041 38.009 29.6041 37.3925C29.6041 36.7761 29.6041 36.2235 29.6041 35.7368C29.5928 35.4248 29.5853 35.2087 29.5816 35.0884C29.5799 35.0033 29.5717 34.9185 29.5571 34.8347C29.7066 34.857 29.8572 34.8708 30.0082 34.876C30.2206 34.8873 30.4329 34.8929 30.6472 34.8929H31.2317C31.4647 34.8929 31.6733 34.8873 31.8575 34.876C32.0187 34.8675 32.1793 34.8505 32.3386 34.8253C32.3086 34.9924 32.3086 35.1636 32.3386 35.3308C32.1859 35.3033 32.0314 35.2864 31.8763 35.2801C31.6564 35.2707 31.4403 35.2632 31.2317 35.2632H30.9592C30.7224 35.2632 30.5025 35.2632 30.2957 35.2726L30.2751 37.1068H30.9554C31.1809 37.1068 31.414 37.1068 31.6527 37.088C31.817 37.0828 31.9808 37.0671 32.1432 37.0411C32.128 37.1248 32.121 37.2097 32.1225 37.2948C32.1211 37.3786 32.128 37.4623 32.1432 37.5447C31.9808 37.5187 31.817 37.503 31.6527 37.4978C31.414 37.4865 31.1809 37.479 30.9554 37.479H30.2769C30.2769 38.2627 30.2769 38.9449 30.2957 39.5219H30.8144H31.0719C31.3068 39.5219 31.5512 39.5219 31.803 39.4993C31.9824 39.4916 32.1612 39.474 32.3386 39.4467C32.3227 39.5322 32.3151 39.6191 32.3161 39.706C32.3152 39.7912 32.3227 39.8761 32.3386 39.9598C32.2315 39.9428 32.068 39.9278 31.8444 39.9147C31.6207 39.9015 31.4177 39.8959 31.2317 39.8959H30.6472C30.4592 39.8959 30.2469 39.8959 30.0345 39.9109C29.8221 39.9259 29.6586 39.9353 29.5571 39.9504" fill="white"/>
<path d="M33.7107 39.6684C33.7107 39.7925 33.6937 39.8771 33.6862 39.9203C33.816 39.906 33.9466 39.8991 34.0771 39.8996C34.209 39.8991 34.3407 39.906 34.4718 39.9203C34.4571 39.8371 34.4489 39.7529 34.4474 39.6684C34.4474 39.55 34.4323 39.332 34.4248 39.0182C34.4248 38.5521 34.4098 38.0259 34.4098 37.4432H34.6616C34.9266 37.7402 35.2255 38.0898 35.5562 38.4938L35.9866 39.0182C36.1915 39.2606 36.3399 39.441 36.4283 39.5613C36.514 39.6755 36.5919 39.7955 36.6613 39.9203C36.8023 39.9071 36.9639 39.8996 37.1443 39.8996C37.3247 39.8996 37.4845 39.8996 37.6273 39.9203C37.5531 39.8522 37.4834 39.7794 37.4187 39.7023C37.3116 39.5801 37.1105 39.3546 36.8192 39.0182L36.402 38.5295C36.0392 38.101 35.7273 37.727 35.4623 37.4019C35.8011 37.3552 36.1275 37.2422 36.4226 37.0692C36.8411 36.8187 37.0503 36.4841 37.0503 36.0656C37.061 35.8929 37.0273 35.7202 36.9527 35.564C36.8781 35.4078 36.7648 35.2732 36.6237 35.1729C36.3418 34.9718 35.9171 34.8741 35.3495 34.8741H35.0413C34.9248 34.8741 34.7988 34.8741 34.6541 34.8929H34.2782C34.1166 34.8929 33.9174 34.8797 33.6787 34.8685C33.6907 34.9507 33.6976 35.0335 33.6994 35.1166C33.6994 35.2387 33.7163 35.4567 33.7238 35.7706C33.7338 36.2492 33.7382 36.7911 33.737 37.3963C33.737 37.9939 33.737 38.5239 33.7238 39.0182C33.7238 39.332 33.7069 39.55 33.7031 39.6684M34.3948 35.235C34.5827 35.2218 34.8026 35.2105 35.0394 35.2086C35.3639 35.1882 35.6868 35.2682 35.9641 35.4379C36.0696 35.5109 36.1547 35.6096 36.2113 35.7248C36.2679 35.8399 36.294 35.9676 36.2873 36.0957C36.2889 36.2454 36.2509 36.3928 36.1774 36.5231C36.1038 36.6535 35.9972 36.7621 35.8682 36.8381C35.5278 37.0394 35.1355 37.1356 34.7406 37.1143C34.6184 37.1143 34.5019 37.1143 34.3891 37.1256L34.3948 35.235Z" fill="white"/>
<path d="M38.4825 39.0182C38.4825 38.5352 38.4919 37.9883 38.4919 37.3794C38.4919 36.7704 38.4919 36.2235 38.4825 35.7386C38.4713 35.4248 38.4637 35.2087 38.4581 35.0884C38.4525 34.9681 38.4431 34.8835 38.4355 34.8347C38.6038 34.858 38.7732 34.8718 38.943 34.876C39.1936 34.8873 39.4529 34.8929 39.7211 34.8929H40.189C40.4239 34.8929 40.6326 34.8929 40.8167 34.876C41.0009 34.8591 41.1607 34.8478 41.2979 34.8253C41.2828 34.909 41.2759 34.9939 41.2772 35.079C41.2758 35.1634 41.2827 35.2477 41.2979 35.3308C41.1464 35.3034 40.9931 35.2864 40.8393 35.2801C40.6156 35.2707 40.4014 35.2632 40.189 35.2632H39.8808C39.629 35.2632 39.3997 35.2632 39.1817 35.2726C39.1691 35.7837 39.161 36.382 39.1572 37.0674H39.9372C40.1702 37.0674 40.407 37.0674 40.6457 37.0505C40.8063 37.0446 40.9663 37.0289 41.125 37.0035C41.0925 37.1698 41.0925 37.3408 41.125 37.5072C40.9761 37.4857 40.8261 37.4725 40.6758 37.4677C40.4371 37.4545 40.1909 37.447 39.9372 37.4414L39.1572 37.4301C39.1572 38.0227 39.1629 38.5546 39.1742 39.0257C39.1842 39.3414 39.1917 39.5595 39.1967 39.6797C39.1986 39.7628 39.2061 39.8457 39.2193 39.9278C38.9587 39.9003 38.6961 39.9003 38.4355 39.9278C38.4355 39.8808 38.4543 39.7963 38.4619 39.6741C38.4694 39.5519 38.4619 39.3396 38.4825 39.0257" fill="white"/>
<path d="M42.4141 39.9541C42.4141 39.9071 42.4291 39.8226 42.4347 39.7023C42.4404 39.582 42.4498 39.3659 42.4573 39.052C42.4673 38.5621 42.4717 38.009 42.4704 37.3925C42.4692 36.7761 42.4648 36.2242 42.4573 35.7368C42.4498 35.4248 42.4423 35.2087 42.4347 35.0884C42.4347 34.9681 42.4216 34.8835 42.4141 34.8347C42.5635 34.8572 42.7141 34.871 42.8651 34.876C43.0756 34.8873 43.288 34.8929 43.5041 34.8929H44.0886C44.3216 34.8929 44.5303 34.8873 44.7144 34.876C44.8756 34.8673 45.0362 34.8503 45.1956 34.8253C45.1655 34.9924 45.1655 35.1636 45.1956 35.3308C45.0415 35.3035 44.8858 35.2865 44.7295 35.2801C44.5096 35.2707 44.2953 35.2632 44.0886 35.2632H43.8161C43.5793 35.2632 43.3575 35.2632 43.1527 35.2726L43.1301 37.1068H43.8105C44.0379 37.1068 44.269 37.1068 44.5077 37.088C44.6727 37.0826 44.8371 37.0669 45.0001 37.0411C44.9826 37.1245 44.9744 37.2096 44.9757 37.2948C44.9745 37.3788 44.9827 37.4626 45.0001 37.5447C44.8371 37.5189 44.6727 37.5032 44.5077 37.4978C44.269 37.4865 44.0379 37.479 43.8105 37.479H43.132C43.132 38.2627 43.132 38.9449 43.1527 39.5219H43.6714H43.9289C44.1619 39.5219 44.4062 39.5219 44.6599 39.4993C44.8393 39.4914 45.0181 39.4738 45.1956 39.4467C45.1796 39.5322 45.1721 39.6191 45.173 39.706C45.1721 39.7912 45.1797 39.8761 45.1956 39.9598C45.0866 39.9435 44.9212 39.9284 44.6994 39.9147C44.4758 39.9015 44.2709 39.8959 44.0886 39.8959H43.5041C43.3049 39.8959 43.1 39.8959 42.8914 39.9109C42.6828 39.9259 42.5155 39.9353 42.4141 39.9504" fill="white"/>
<path d="M50.6924 39.1648C50.6755 39.2475 50.6586 39.3189 50.6511 39.379C50.6436 39.4392 50.6342 39.5144 50.6285 39.597C50.3696 39.7333 50.0942 39.8356 49.8091 39.9015C49.5004 39.9679 49.1852 40.0001 48.8694 39.9974C48.1569 40.0275 47.4609 39.778 46.9299 39.302C46.6822 39.0694 46.487 38.7867 46.3573 38.4726C46.2277 38.1585 46.1666 37.8204 46.1781 37.4808C46.1662 37.1182 46.232 36.7571 46.371 36.422C46.5101 36.0868 46.7192 35.7853 46.9844 35.5375C47.544 35.0247 48.2839 34.7544 49.0423 34.7858C49.3456 34.7833 49.6483 34.8104 49.9463 34.8666C50.2302 34.9197 50.5079 35.0015 50.7751 35.1109L50.6774 35.4116C50.6549 35.4981 50.6285 35.5996 50.6004 35.718H50.4763C50.2985 35.5218 50.0797 35.3672 49.8354 35.265C49.4513 35.0962 49.0238 35.0523 48.6133 35.1397C48.2029 35.227 47.8303 35.4411 47.5482 35.7518C47.1544 36.2299 46.9533 36.8378 46.9844 37.4564C46.9614 38.0408 47.1632 38.6118 47.5482 39.052C47.7299 39.2557 47.9539 39.4174 48.2044 39.5258C48.455 39.6343 48.7262 39.6868 48.9991 39.6797C49.3043 39.68 49.6071 39.6266 49.8937 39.5219C50.1597 39.4248 50.4043 39.2767 50.6135 39.0858L50.6924 39.1648Z" fill="white"/>
<path d="M52.9991 39.0219C52.9991 38.537 53.0103 37.9976 53.0103 37.4056C53.0103 36.573 53.0103 35.8589 52.9859 35.2593H52.58C52.3281 35.2593 52.0763 35.2593 51.8282 35.28C51.6537 35.2862 51.4798 35.3037 51.3076 35.3326C51.3377 35.1655 51.3377 34.9943 51.3076 34.8271C51.5876 34.844 51.9053 34.8609 52.2605 34.8741C52.6157 34.8872 52.8863 34.8947 53.0799 34.8947H53.484C53.6869 34.8947 53.9707 34.8947 54.3259 34.8741C54.6811 34.8534 54.9875 34.844 55.2543 34.8271C55.2243 34.9943 55.2243 35.1655 55.2543 35.3326C55.0832 35.3063 54.9106 35.2907 54.7375 35.2857C54.4857 35.2725 54.2338 35.265 53.9858 35.265H53.6963C53.6775 35.8608 53.67 36.5806 53.67 37.4037C53.67 38.0033 53.67 38.5445 53.6832 39.0238C53.6945 39.3339 53.702 39.55 53.7057 39.6703C53.7071 39.7548 53.7153 39.839 53.7302 39.9221C53.5991 39.9078 53.4673 39.9009 53.3355 39.9015C53.2049 39.901 53.0744 39.9079 52.9446 39.9221C52.9574 39.8387 52.9655 39.7546 52.969 39.6703C52.969 39.55 52.9822 39.3339 52.9916 39.0238" fill="white"/>
<path d="M59.2687 37.4225H59.7818C60.1699 37.3975 60.5572 37.4835 60.8981 37.6706C61.0205 37.7495 61.1198 37.8594 61.1858 37.9891C61.2518 38.1189 61.2823 38.2638 61.274 38.4092C61.2845 38.5709 61.2544 38.7326 61.1865 38.8796C61.1185 39.0267 61.0149 39.1544 60.885 39.2512C60.6294 39.4391 60.246 39.5387 59.7423 39.5387C59.5832 39.5385 59.4243 39.5272 59.2668 39.5049L59.2687 37.4225ZM58.5771 39.6778C58.5743 39.7616 58.5655 39.8452 58.5508 39.9278L58.9267 39.9052L59.9039 39.9278C60.4441 39.9518 60.9791 39.813 61.4394 39.5293C61.6187 39.4223 61.7671 39.2707 61.8702 39.0892C61.9733 38.9077 62.0276 38.7025 62.0277 38.4938C62.0386 38.2964 61.9975 38.0996 61.9085 37.9232C61.8194 37.7467 61.6855 37.5967 61.5202 37.4883C61.2427 37.3226 60.9322 37.2199 60.6106 37.1876C60.8584 37.1365 61.0948 37.0403 61.3079 36.9038C61.4741 36.8098 61.6122 36.6732 61.7081 36.508C61.8039 36.3428 61.8539 36.1551 61.8529 35.9641C61.8602 35.7991 61.8218 35.6352 61.7419 35.4906C61.662 35.346 61.5436 35.2263 61.3999 35.1447C61.0967 34.963 60.6407 34.8716 60.0317 34.8703L58.9267 34.8929L58.5508 34.8703C58.5658 34.9528 58.5734 35.0364 58.5733 35.1203C58.5733 35.2405 58.5902 35.4586 58.5978 35.7743C58.5978 36.2517 58.6128 36.7948 58.6109 37.3981C58.609 38.0014 58.6109 38.5257 58.5978 39.02C58.5978 39.3339 58.5827 39.5538 58.5771 39.674M59.2687 35.2969C59.4612 35.2645 59.6562 35.25 59.8513 35.2537C60.1713 35.237 60.4889 35.3169 60.7628 35.483C60.8678 35.5449 60.9546 35.6335 61.0143 35.7398C61.0741 35.8461 61.1047 35.9662 61.103 36.0882C61.1049 36.2273 61.0713 36.3646 61.0056 36.4872C60.9398 36.6098 60.844 36.7137 60.7271 36.7892C60.4321 36.9772 60.0861 37.0691 59.7367 37.0523H59.2631L59.2687 35.2969Z" fill="white"/>
<path d="M62.9298 39.6891C62.8885 39.7683 62.8434 39.8455 62.7944 39.9202C62.8953 39.906 62.997 39.899 63.0989 39.8996C63.2026 39.8991 63.3062 39.906 63.409 39.9202C63.4447 39.7755 63.4823 39.6421 63.5236 39.5218C63.565 39.4015 63.6364 39.2343 63.7285 39.0181C63.8544 38.7118 63.9991 38.3848 64.157 38.0371C64.478 37.979 64.8047 37.9581 65.1305 37.9751C65.4503 37.9783 65.7696 37.999 66.0871 38.0371L66.5194 39.0181C66.6228 39.2512 66.6961 39.4297 66.7393 39.55C66.7825 39.6703 66.8239 39.7962 66.8577 39.9259C66.9975 39.9114 67.1381 39.9045 67.2787 39.9052C67.4199 39.9047 67.561 39.9116 67.7015 39.9259L67.2561 39.0238C67.025 38.5483 66.7769 38.0145 66.5044 37.4188C66.0439 36.4152 65.6718 35.5769 65.388 34.8966H65.2001C64.9169 35.5807 64.5366 36.4239 64.0593 37.4263C63.7792 38.0202 63.518 38.5539 63.2774 39.0238C63.1083 39.3508 62.9899 39.5744 62.926 39.6947M65.1305 35.9359L65.7958 37.3962L65.871 37.5691C65.638 37.5973 65.3861 37.6142 65.1192 37.6199C64.8679 37.6246 64.6166 37.6102 64.3675 37.5766L64.4502 37.3887C64.6907 36.8531 64.8129 36.5881 64.8129 36.5881C64.8129 36.5881 64.9182 36.3701 65.1324 35.9359" fill="white"/>
<path d="M69.254 39.0182C69.2652 39.3245 69.2765 39.5369 69.284 39.6591C69.2888 39.7466 69.2982 39.8338 69.3122 39.9203C69.2209 39.9059 69.1285 39.899 69.036 39.8996C68.9428 39.8991 68.8498 39.906 68.7578 39.9203C68.7727 39.8371 68.7808 39.7529 68.7822 39.6684C68.7822 39.5482 68.7954 39.332 68.8048 39.0182C68.8048 38.5352 68.8161 37.9939 68.8161 37.3981C68.8161 36.8024 68.8161 36.2705 68.8048 35.7931C68.7954 35.4812 68.786 35.265 68.7822 35.1429C68.7809 35.059 68.7727 34.9754 68.7578 34.8929H68.9984C69.6486 35.5958 70.4812 36.4584 71.4961 37.4808L72.7553 38.7306V37.4432C72.7553 36.8249 72.7553 36.2686 72.7403 35.7706C72.7315 35.4561 72.724 35.2381 72.7177 35.1166C72.7163 35.0333 72.7081 34.9504 72.6933 34.8685C72.7831 34.8851 72.8744 34.8933 72.9658 34.8929C73.0572 34.8932 73.1484 34.885 73.2383 34.8685C73.2235 34.9504 73.2153 35.0333 73.2139 35.1166C73.2139 35.2387 73.2026 35.4567 73.1913 35.7706C73.1913 36.2649 73.1781 36.8212 73.1781 37.4414C73.1781 38.4619 73.1913 39.3208 73.212 39.9973H72.9902C72.3399 39.2932 71.5074 38.4306 70.4925 37.4094L69.2277 36.1483V37.4C69.2277 38.0033 69.2389 38.5427 69.2521 39.0219" fill="white"/>
<path d="M75.5741 39.0163C75.5834 39.3302 75.5928 39.5482 75.6004 39.6684C75.5993 39.7535 75.6063 39.8384 75.621 39.9222C75.36 39.8921 75.0964 39.8921 74.8354 39.9222C74.8494 39.8396 74.857 39.756 74.858 39.6722C74.858 39.5519 74.8712 39.332 74.8824 39.0182C74.8824 38.5333 74.8918 37.992 74.8918 37.3963C74.8918 36.8005 74.8918 36.2498 74.8824 35.7725C74.8712 35.4567 74.8636 35.2387 74.858 35.1184C74.857 35.0347 74.8494 34.9511 74.8354 34.8685C75.0964 34.8985 75.36 34.8985 75.621 34.8685C75.6063 34.9522 75.5993 35.0372 75.6004 35.1222C75.6004 35.2425 75.5834 35.4586 75.5741 35.7706C75.5628 36.2085 75.5609 36.684 75.5628 37.2008H75.5741C75.9123 36.9226 76.3089 36.5637 76.7581 36.1258C77.2505 35.6484 77.6414 35.2368 77.9383 34.891H78.3405C78.4749 34.892 78.6093 34.8844 78.7427 34.8685C78.6425 34.9371 78.5471 35.0125 78.457 35.094C78.3142 35.2143 78.0586 35.4398 77.6846 35.7706L77.0588 36.3344L76.2525 37.0974L77.0888 38.0559L77.9458 39.0088L78.5717 39.7004C78.6826 39.8226 78.7596 39.8883 78.7784 39.9146C78.4546 39.8846 78.1287 39.8846 77.8049 39.9146C77.7292 39.7861 77.6437 39.6636 77.5493 39.5482C77.4516 39.4279 77.2993 39.2493 77.0832 39.0088L76.6791 38.5652C76.2412 38.0785 75.8691 37.6763 75.5515 37.353V37.3906C75.5515 37.9933 75.5571 38.5352 75.5684 39.0163" fill="white"/>
<path d="M79.711 39.0182C79.711 38.5314 79.7242 37.9939 79.7242 37.3963C79.7242 36.7986 79.7242 36.2498 79.711 35.7725C79.711 35.4586 79.696 35.2425 79.6904 35.1222C79.6874 35.0371 79.6786 34.9523 79.6641 34.8685C79.795 34.885 79.9268 34.8931 80.0587 34.8929C80.1901 34.8931 80.3213 34.885 80.4515 34.8685C80.4388 34.9525 80.4312 35.0372 80.429 35.1222C80.429 35.2425 80.4158 35.4586 80.4045 35.7725C80.4045 36.2555 80.3951 36.7967 80.3951 37.3925C80.3951 37.9883 80.3951 38.5371 80.4045 39.0182C80.4158 39.3302 80.4233 39.5482 80.429 39.6684C80.4311 39.7528 80.4387 39.8369 80.4515 39.9203C80.3211 39.9061 80.19 39.8992 80.0587 39.8996C79.9269 39.8992 79.7951 39.9061 79.6641 39.9203C79.6797 39.8372 79.6885 39.753 79.6904 39.6684C79.6904 39.5482 79.7035 39.3302 79.711 39.0182Z" fill="white"/>
<path d="M82.5318 39.0182C82.5431 39.3245 82.5525 39.5369 82.56 39.6591C82.5648 39.7466 82.5742 39.8338 82.5882 39.9203C82.4968 39.9059 82.4044 39.899 82.3119 39.8996C82.2194 39.8992 82.127 39.9061 82.0356 39.9203C82.0486 39.8369 82.0562 39.7528 82.0582 39.6684C82.0582 39.5482 82.0732 39.332 82.0807 39.0182C82.0807 38.5352 82.092 37.9939 82.092 37.3981C82.092 36.8024 82.092 36.2705 82.0807 35.7931C82.0807 35.4812 82.0657 35.265 82.0582 35.1429C82.0562 35.0591 82.0487 34.9756 82.0356 34.8929H82.2762C82.9265 35.5958 83.7584 36.4584 84.772 37.4808L86.0312 38.7306V37.4432C86.0312 36.8249 86.0312 36.2686 86.0124 35.7706C86.0049 35.4561 85.9974 35.2381 85.9899 35.1166C85.9891 35.0335 85.9822 34.9505 85.9692 34.8685C86.0578 34.8851 86.1478 34.8933 86.238 34.8929C86.3294 34.8933 86.4206 34.8852 86.5105 34.8685C86.4966 34.9505 86.489 35.0334 86.4879 35.1166C86.4879 35.2387 86.4748 35.4567 86.4635 35.7706C86.4635 36.2649 86.4503 36.8212 86.4503 37.4414C86.4503 38.4625 86.4629 39.3145 86.4879 39.9973H86.2643C85.614 39.2932 84.7814 38.4306 83.7666 37.4094L82.5055 36.1483V37.4C82.5055 38.0033 82.5168 38.5427 82.5318 39.0219" fill="white"/>
<path d="M90.5493 39.9973C89.8099 40.0291 89.0858 39.7807 88.5215 39.3019C88.2657 39.0747 88.0634 38.7939 87.9289 38.4794C87.7944 38.1648 87.731 37.8245 87.7434 37.4827C87.7301 37.1201 87.7947 36.7588 87.9328 36.4233C88.0709 36.0877 88.2793 35.7857 88.544 35.5375C89.1148 35.0245 89.8634 34.7548 90.6302 34.7857C91.002 34.7834 91.3731 34.8205 91.7371 34.8966C92.0699 34.9713 92.3924 35.0861 92.6975 35.2387C92.658 35.3533 92.6242 35.4529 92.5979 35.5394C92.5716 35.6258 92.5471 35.7273 92.5189 35.8495H92.3949C92.177 35.6174 91.9142 35.432 91.6225 35.3044C91.3391 35.1731 91.0308 35.1039 90.7185 35.1015C90.4243 35.0894 90.1309 35.1404 89.858 35.2509C89.5851 35.3614 89.339 35.529 89.136 35.7423C88.7228 36.2141 88.5092 36.8281 88.5403 37.4545C88.5262 37.7499 88.5718 38.0452 88.6745 38.3226C88.7772 38.6 88.9348 38.8538 89.1379 39.0689C89.3466 39.2732 89.5951 39.4322 89.8681 39.536C90.141 39.6398 90.4325 39.6862 90.7241 39.6722C91.1621 39.6702 91.596 39.5873 92.004 39.4278V38.9204C92.004 38.5953 92.004 38.3397 91.9871 38.1686C91.9702 37.9976 91.9532 37.7928 91.9232 37.5766C92.0573 37.592 92.1923 37.5989 92.3273 37.5973C92.461 37.5989 92.5947 37.592 92.7276 37.5766C92.7086 37.6773 92.6948 37.779 92.6862 37.8811C92.6862 38.0033 92.6749 38.2006 92.6693 38.4769V38.6103C92.6693 38.9467 92.6693 39.1854 92.6693 39.3301C92.6735 39.4488 92.6874 39.567 92.7106 39.6834C92.0094 39.9044 91.277 40.0104 90.5418 39.9973" fill="white"/>
<path d="M96.5292 39.6666C96.5254 39.7522 96.5166 39.8375 96.5029 39.9222C96.6332 39.9063 96.7645 39.8987 96.8957 39.8996C97.0264 39.8987 97.157 39.9063 97.2866 39.9222C97.2866 39.877 97.2716 39.7925 97.2641 39.6722C97.2566 39.5519 97.2509 39.3339 97.2415 39.0182C97.229 38.5872 97.2246 38.1067 97.2284 37.5767H97.2171C97.4409 37.6043 97.6664 37.6156 97.8918 37.6105C98.5364 37.6105 99.0364 37.4827 99.3953 37.2346C99.5679 37.1126 99.7071 36.9492 99.8 36.7594C99.8929 36.5696 99.9367 36.3595 99.9272 36.1483C99.9403 35.9636 99.9063 35.7786 99.8284 35.6107C99.7505 35.4427 99.6312 35.2972 99.4818 35.188C99.1811 34.98 98.72 34.876 98.0985 34.876H97.7847C97.6738 34.876 97.5498 34.876 97.4088 34.8929C97.3054 34.8929 97.1814 34.8929 97.0329 34.8929C96.8844 34.8929 96.7097 34.8929 96.5105 34.8929C96.5243 34.9761 96.5318 35.0603 96.533 35.1447C96.533 35.265 96.5462 35.483 96.5574 35.7931C96.5574 36.2742 96.5706 36.8118 96.5706 37.4019C96.5706 37.992 96.5706 38.5295 96.5574 39.02C96.5462 39.332 96.5386 39.55 96.5368 39.6684M97.2284 35.2613C97.4163 35.2425 97.6456 35.2312 97.888 35.2312C98.2242 35.21 98.5585 35.2941 98.8447 35.4717C98.9526 35.5546 99.0386 35.6627 99.0949 35.7866C99.1513 35.9105 99.1763 36.0463 99.1679 36.1822C99.1725 36.336 99.1393 36.4886 99.0711 36.6265C99.003 36.7645 98.902 36.8836 98.777 36.9734C98.4704 37.1865 98.1011 37.2905 97.7283 37.2684C97.5404 37.2684 97.3768 37.2684 97.219 37.2478L97.2284 35.2613Z" fill="white"/>
<path d="M100.477 39.6891C100.437 39.769 100.393 39.8462 100.343 39.9202C100.547 39.8927 100.753 39.8927 100.956 39.9202C100.989 39.7854 101.029 39.6525 101.076 39.5218C101.118 39.3996 101.183 39.2343 101.277 39.0181C101.401 38.7118 101.548 38.3848 101.708 38.0371C102.028 37.9791 102.354 37.9583 102.679 37.9751C103 37.9783 103.32 37.999 103.638 38.0371L104.07 39.0181C104.172 39.2512 104.247 39.4297 104.29 39.55C104.333 39.6703 104.371 39.7962 104.405 39.9259C104.545 39.9115 104.686 39.9046 104.828 39.9052C104.969 39.9047 105.111 39.9116 105.252 39.9259L104.803 39.0238C104.575 38.5476 104.324 38.0126 104.051 37.4188C103.593 36.4152 103.221 35.5769 102.935 34.8966H102.747C102.465 35.5807 102.085 36.4239 101.608 37.4263C101.328 38.0202 101.067 38.5539 100.826 39.0238C100.657 39.3508 100.539 39.5744 100.473 39.6947M102.677 35.9359L103.347 37.3962L103.422 37.5691C103.189 37.5973 102.935 37.6142 102.67 37.6199C102.419 37.6247 102.167 37.6103 101.918 37.5766L102.001 37.3887L102.364 36.5881C102.364 36.5881 102.469 36.3701 102.681 35.9359" fill="white"/>
<path d="M106.251 39.6684C106.248 39.7529 106.239 39.837 106.225 39.9203C106.486 39.8927 106.75 39.8927 107.011 39.9203C106.998 39.8369 106.99 39.7528 106.986 39.6684C106.986 39.55 106.973 39.332 106.964 39.0182C106.964 38.5521 106.947 38.0259 106.947 37.4432H107.202C107.465 37.7402 107.766 38.0898 108.099 38.4938L108.527 39.0182C108.73 39.2606 108.877 39.441 108.969 39.5613C109.055 39.6755 109.133 39.7955 109.202 39.9203C109.341 39.9071 109.503 39.8996 109.683 39.8996C109.864 39.8996 110.025 39.8996 110.164 39.9203C110.134 39.8959 110.067 39.8226 109.958 39.7023C109.849 39.582 109.653 39.3546 109.36 39.0182L108.939 38.5295C108.578 38.101 108.268 37.727 108.011 37.4019C108.349 37.3549 108.676 37.2419 108.971 37.0692C109.156 36.9747 109.313 36.8313 109.423 36.6544C109.533 36.4775 109.592 36.2739 109.595 36.0656C109.606 35.8932 109.573 35.7207 109.499 35.5645C109.425 35.4083 109.313 35.2735 109.172 35.1729C108.89 34.9718 108.465 34.8741 107.896 34.8741H107.588C107.473 34.8741 107.343 34.8741 107.202 34.8929H106.826C106.665 34.8929 106.464 34.8797 106.225 34.8685C106.239 34.9505 106.247 35.0334 106.248 35.1166C106.248 35.2387 106.261 35.4567 106.272 35.7706C106.272 36.2498 106.285 36.7911 106.285 37.3963C106.285 38.0014 106.285 38.5239 106.272 39.0182C106.261 39.332 106.253 39.55 106.251 39.6684ZM106.937 35.235C107.125 35.2218 107.347 35.2105 107.578 35.2086C107.904 35.188 108.228 35.268 108.507 35.4379C108.612 35.5111 108.697 35.6099 108.753 35.7251C108.809 35.8402 108.835 35.9678 108.828 36.0957C108.829 36.2453 108.791 36.3926 108.718 36.5228C108.644 36.6531 108.538 36.7618 108.409 36.8381C108.069 37.0398 107.676 37.1359 107.281 37.1143C107.157 37.1143 107.041 37.1143 106.93 37.1256L106.937 35.235Z" fill="white"/>
<path d="M112.245 39.0219C112.253 38.537 112.256 37.9983 112.256 37.4056C112.256 36.5731 112.256 35.8589 112.232 35.2594H111.826C111.574 35.2594 111.324 35.2594 111.074 35.28C110.903 35.2848 110.732 35.3005 110.563 35.327C110.593 35.1599 110.593 34.9887 110.563 34.8215C110.845 34.8384 111.161 34.8553 111.516 34.8685C111.871 34.8816 112.144 34.8891 112.335 34.8891H112.739C112.944 34.8891 113.226 34.8891 113.581 34.8685C113.937 34.8478 114.247 34.8384 114.521 34.8215C114.486 34.9882 114.486 35.1603 114.521 35.327C114.349 35.301 114.175 35.2853 114 35.28C113.749 35.2669 113.497 35.2594 113.249 35.2594H112.952C112.937 35.8551 112.929 36.5749 112.929 37.3981C112.929 37.9977 112.929 38.5389 112.929 39.0182C112.94 39.3283 112.946 39.5444 112.954 39.6647C112.955 39.7491 112.962 39.8333 112.976 39.9165C112.846 39.9023 112.716 39.8954 112.585 39.8958C112.453 39.8954 112.322 39.9023 112.191 39.9165C112.205 39.8333 112.213 39.7491 112.215 39.6647C112.215 39.5444 112.228 39.3283 112.238 39.0182" fill="white"/>
<path d="M116.083 39.0182C116.096 39.3245 116.103 39.5369 116.113 39.6591C116.116 39.7467 116.125 39.834 116.141 39.9203C115.954 39.8918 115.764 39.8918 115.577 39.9203C115.592 39.8371 115.6 39.7529 115.602 39.6684C115.602 39.5482 115.615 39.332 115.622 39.0182C115.622 38.5352 115.635 37.9939 115.635 37.3981C115.635 36.8024 115.635 36.2705 115.622 35.7931C115.622 35.4812 115.607 35.265 115.602 35.1429C115.6 35.059 115.592 34.9754 115.577 34.8929H115.816C116.47 35.5958 117.302 36.4584 118.314 37.4808L119.573 38.7306V37.4432C119.573 36.8249 119.573 36.2686 119.556 35.7706C119.546 35.4561 119.538 35.2381 119.533 35.1166C119.533 34.9981 119.518 34.9136 119.511 34.8685C119.6 34.8853 119.691 34.8935 119.781 34.8929C119.872 34.8932 119.963 34.885 120.052 34.8685C120.037 34.9504 120.029 35.0333 120.028 35.1166C120.028 35.2387 120.014 35.4567 120.007 35.7706C120.007 36.2649 119.994 36.8212 119.994 37.4414C119.994 38.4619 120.007 39.3208 120.028 39.9973H119.806C119.156 39.2932 118.323 38.4306 117.308 37.4094L116.041 36.1483V37.4C116.041 38.0033 116.051 38.5427 116.068 39.0219" fill="white"/>
<path d="M121.514 39.9541C121.514 39.9071 121.529 39.8226 121.539 39.7023C121.548 39.582 121.55 39.3659 121.561 39.052C121.561 38.5615 121.57 38.009 121.57 37.3925C121.57 36.7761 121.57 36.2235 121.561 35.7368C121.55 35.4248 121.542 35.2087 121.539 35.0884C121.529 34.9681 121.522 34.8835 121.514 34.8347C121.664 34.857 121.814 34.8708 121.965 34.876C122.176 34.8873 122.39 34.8929 122.606 34.8929H123.189C123.422 34.8929 123.63 34.8929 123.816 34.876C123.977 34.8674 124.137 34.8504 124.296 34.8253C124.266 34.9924 124.266 35.1636 124.296 35.3308C124.143 35.3034 123.988 35.2865 123.833 35.2801C123.613 35.2707 123.397 35.2632 123.189 35.2632H122.912C122.676 35.2632 122.456 35.2632 122.249 35.2726L122.226 37.1068H122.912C123.136 37.1068 123.367 37.1068 123.606 37.088C123.771 37.0826 123.935 37.0669 124.098 37.0411C124.082 37.1246 124.073 37.2096 124.074 37.2948C124.074 37.3787 124.082 37.4625 124.098 37.5447C123.935 37.5189 123.771 37.5032 123.606 37.4978C123.367 37.4865 123.136 37.479 122.912 37.479H122.23C122.23 38.2627 122.23 38.9449 122.251 39.5219H122.771H123.027C123.262 39.5219 123.504 39.5219 123.758 39.4993C123.937 39.4914 124.116 39.4738 124.294 39.4467C124.278 39.5322 124.27 39.6191 124.271 39.706C124.27 39.7912 124.278 39.8761 124.294 39.9598C124.187 39.9428 124.019 39.9278 123.799 39.9147C123.58 39.9015 123.373 39.8959 123.187 39.8959H122.604C122.403 39.8959 122.198 39.8959 121.991 39.9109C121.785 39.9259 121.616 39.9353 121.512 39.9504" fill="white"/>
<path d="M125.667 39.6684C125.667 39.7924 125.65 39.877 125.643 39.9202C125.773 39.9059 125.903 39.899 126.034 39.8995C126.166 39.8991 126.297 39.906 126.429 39.9202C126.414 39.837 126.405 39.7528 126.402 39.6684C126.402 39.55 126.389 39.332 126.382 39.0181C126.372 38.552 126.366 38.0258 126.366 37.4432H126.618C126.881 37.7401 127.182 38.0897 127.515 38.4938L127.943 39.0181C128.148 39.2605 128.297 39.441 128.385 39.5612C128.471 39.6755 128.549 39.7954 128.618 39.9202C128.761 39.9071 128.921 39.8995 129.101 39.8995C129.281 39.8995 129.441 39.8995 129.584 39.9202C129.51 39.8525 129.441 39.7796 129.377 39.7022C129.268 39.58 129.069 39.3545 128.776 39.0181L128.362 38.5276C128 38.0991 127.688 37.7251 127.423 37.3999C127.762 37.3532 128.088 37.2402 128.383 37.0673C128.569 36.9732 128.726 36.8299 128.836 36.6529C128.947 36.476 129.006 36.2722 129.009 36.0637C129.02 35.8913 128.987 35.7189 128.913 35.5628C128.839 35.4066 128.726 35.2718 128.586 35.171C128.302 34.9699 127.878 34.8722 127.31 34.8722H127.002C126.885 34.8722 126.756 34.8722 126.615 34.8909H126.239C126.077 34.8909 125.878 34.8778 125.639 34.8665C125.639 34.9135 125.656 34.9943 125.664 35.1146C125.671 35.2349 125.677 35.4548 125.684 35.7686C125.684 36.2479 125.697 36.7891 125.697 37.3943C125.697 37.9995 125.697 38.5219 125.684 39.0162C125.684 39.3301 125.667 39.5481 125.664 39.6665M126.355 35.233C126.543 35.2198 126.763 35.2086 127 35.2067C127.324 35.1864 127.647 35.2665 127.925 35.436C128.03 35.5089 128.115 35.6077 128.172 35.7228C128.228 35.8379 128.254 35.9656 128.248 36.0938C128.249 36.2434 128.211 36.3908 128.138 36.5212C128.064 36.6515 127.958 36.7601 127.829 36.8361C127.488 37.0375 127.096 37.1336 126.701 37.1124C126.579 37.1124 126.462 37.1124 126.35 37.1237L126.355 35.233Z" fill="white"/>
</svg>
