<svg width="241" height="40" viewBox="0 0 241 40" fill="none" xmlns="http://www.w3.org/2000/svg">
<path d="M0 0H240.02V40H0V0Z" fill="#004C8F"/>
<path d="M40.0049 0H240.02V40H40.0049V0Z" fill="#004C8F"/>
<path d="M52.7246 29.4629V10.5367H58.9512V16.9242H64.7855V10.5367H71.0221V29.4629H64.7855V22.1198H58.9512V29.4629H52.7246Z" fill="white"/>
<path d="M80.875 15.2393H82.4895C83.6513 15.2393 84.5013 15.36 85.0445 15.6014C85.4469 15.7774 85.7738 16.039 86.0604 16.4313C86.322 16.8186 86.5332 17.3066 86.6891 17.9202C86.83 18.5287 86.9054 19.1724 86.9054 19.8514C86.9054 20.9579 86.7545 21.8834 86.4276 22.6328C86.1107 23.3822 85.6531 23.9203 85.0646 24.2522C84.4761 24.5892 83.601 24.7501 82.4442 24.7501L80.875 24.7603V15.2393ZM83.2791 29.4629C84.7477 29.4629 85.965 29.3422 86.9608 29.0756C87.9617 28.8191 88.7764 28.4771 89.4001 28.0697C90.0338 27.6522 90.6072 27.089 91.1353 26.3899C91.6583 25.6656 92.116 24.7553 92.4731 23.6387C92.8402 22.5272 93.0163 21.2748 93.0163 19.8564C93.0163 17.7742 92.619 16.0139 91.8143 14.5452C90.9995 13.1068 89.893 12.0657 88.4797 11.4521C87.0715 10.8385 85.3915 10.5367 83.4401 10.5367H74.7842V29.4629H83.2791Z" fill="white"/>
<path d="M95.8677 29.4629V10.5367H110.634V15.2042H102.014V18.237H108.909V22.7786H102.014V29.4629H95.8677Z" fill="white"/>
<path d="M131.488 17.7743H125.608C125.497 16.8338 125.155 16.0895 124.587 15.5564C124.014 15.0333 123.294 14.7768 122.409 14.7768C121.308 14.7768 120.412 15.2043 119.723 16.0493C119.029 16.9043 118.682 18.2874 118.682 20.1886C118.682 21.5164 118.838 22.5121 119.125 23.1911C119.422 23.8902 119.839 24.3932 120.357 24.7302C120.89 25.0671 121.539 25.2232 122.339 25.2232C123.294 25.2232 124.059 24.9817 124.617 24.4284C125.191 23.9104 125.522 23.1359 125.633 22.0998H131.618C131.488 23.2767 131.251 24.2625 130.909 25.0672C130.582 25.8669 129.999 26.6615 129.209 27.4612C128.409 28.271 127.454 28.8946 126.352 29.3272C125.251 29.7648 123.978 29.9711 122.52 29.9711C121.081 29.9711 119.739 29.7649 118.526 29.3424C117.299 28.9098 116.263 28.2961 115.438 27.5266C114.598 26.7269 113.945 25.8317 113.477 24.8207C112.803 23.3974 112.486 21.8333 112.486 20.088C112.486 18.6295 112.722 17.2463 113.2 15.9788C113.678 14.7214 114.337 13.6501 115.177 12.785C116.022 11.9249 116.942 11.2813 117.968 10.8487C119.266 10.2955 120.694 10.0289 122.278 10.0289C123.657 10.0289 124.934 10.23 126.141 10.6374C127.343 11.0448 128.329 11.6383 129.098 12.428C129.878 13.2176 130.477 14.1229 130.894 15.154C131.196 15.8732 131.387 16.7433 131.488 17.7743Z" fill="white"/>
<path d="M151.43 14.7968C152.31 14.7968 152.878 14.837 153.16 14.9174C153.522 15.0231 153.824 15.2293 154.04 15.5009C154.261 15.7825 154.377 16.1095 154.377 16.4867C154.377 16.9696 154.186 17.3668 153.819 17.6686C153.427 17.9855 152.758 18.1314 151.797 18.1314H149.453V14.7968H151.43ZM152.994 29.4629C154.468 29.4629 155.504 29.3924 156.112 29.2617C156.711 29.1208 157.329 28.8997 157.958 28.608C158.572 28.2861 159.044 27.9843 159.356 27.6523C159.839 27.2047 160.196 26.6614 160.458 26.0075C160.719 25.3487 160.85 24.6043 160.85 23.8047C160.85 22.6629 160.568 21.7224 159.995 20.9579C159.422 20.1884 158.652 19.6804 157.681 19.4038C159.326 18.3677 160.146 17.0299 160.146 15.4003C160.146 13.7154 159.422 12.4278 157.988 11.5527C156.882 10.8787 155.157 10.5367 152.818 10.5367H143.428V29.4629H152.994ZM151.993 21.5364C153.225 21.5364 154.025 21.6872 154.427 22.0041C154.8 22.3109 155.001 22.7333 155.001 23.3017C155.001 23.875 154.8 24.3277 154.392 24.6445C154.005 24.9815 153.195 25.1224 151.993 25.1224H149.453V21.5364H151.993Z" fill="white"/>
<path d="M174.525 23.1006H170.567L172.518 16.2151L174.525 23.1006ZM168.706 29.4629L169.425 26.9784H175.622L176.346 29.4629H182.537L175.747 10.5367H169.425L162.63 29.4629H168.706Z" fill="white"/>
<path d="M185.153 29.4629V10.5367H190.952L197.495 20.6713V10.5367H203.46V29.4629H197.536L191.133 19.5798V29.4629H185.153Z" fill="white"/>
<path d="M207.609 29.4629V10.5367H213.64V16.7784L219.268 10.5367H226.581L219.645 17.6635L227.3 29.4629H219.846L215.295 21.9236L213.64 23.5581V29.4629H207.609Z" fill="white"/>
<path d="M0 0H40V40H0V0Z" fill="#ED232A"/>
<path d="M7.00049 7.00096H33.0033V33.0038H7.00049V7.00096Z" fill="white"/>
<path d="M18.0005 0H21.9989V40H18.0005V0Z" fill="white"/>
<path d="M0 18.0057H40V22.0042H0V18.0057Z" fill="white"/>
<path d="M14.002 14.0022H26.0024V26.0028H14.002V14.0022Z" fill="#004C8F"/>
</svg>
