<svg width="202" height="40" viewBox="0 0 202 40" fill="none" xmlns="http://www.w3.org/2000/svg">
<path d="M36.6777 39.5991H43.4973L48.8435 19.6748H42.094L36.6777 39.5991Z" fill="white"/>
<path d="M71.6406 39.5991H78.4603L83.8064 19.6748H76.9867L71.6406 39.5991Z" fill="white"/>
<path d="M106.668 39.5991H113.421L118.703 19.6748H111.884L106.668 39.5991Z" fill="white"/>
<path d="M65.2892 26.4945H72.1088C73.0444 22.0171 70.1709 19.745 63.4849 19.745C55.7297 19.745 50.5172 23.5541 48.7129 30.0396C47.1726 36.054 50.3167 39.6659 57.6008 39.6659C64.955 39.6659 69.2988 37.3938 71.1064 32.2449H64.2868C63.2844 34.517 61.5469 35.653 59.1411 35.653C55.8633 35.653 54.5268 33.6482 55.5292 29.8391C56.5984 25.893 59.1411 23.6877 62.4156 23.6877C64.5541 23.6877 65.4897 24.6233 65.2892 26.4945Z" fill="white"/>
<path d="M100.32 26.4945H107.139C108.075 22.0171 105.131 19.745 98.4452 19.745C90.7569 19.745 85.4776 23.5541 83.7401 30.0396C82.1363 36.054 85.2771 39.6659 92.5645 39.6659C99.8519 39.6659 104.196 37.3938 106.067 32.2449H99.2505C98.3116 34.517 96.5073 35.653 94.1015 35.653C90.827 35.653 89.4905 33.6482 90.5564 29.8391C91.5621 25.893 94.1015 23.6877 97.376 23.6877C99.5178 23.6877 100.52 24.6233 100.32 26.4945Z" fill="white"/>
<path d="M10.4048 8.64846C19.4966 -0.376443 30.5263 -2.7187 34.9401 3.43266C39.354 9.58403 35.4748 22.0171 26.383 31.042C17.2913 40.1337 6.26161 42.4726 1.7809 36.2544C-2.56282 30.0396 1.31645 17.67 10.4048 8.64846Z" fill="#F06321"/>
<path d="M16.4222 3.83365C15.4198 4.56874 14.4174 5.43748 13.415 6.37639C5.45932 14.2619 2.11464 25.0911 6.06075 30.5074C10.1371 35.9203 19.8971 33.9155 28.0533 25.9599C32.4672 21.683 35.4075 16.7345 36.6104 12.1235C36.9445 8.71532 36.4768 5.70479 34.9398 3.43269C31.4648 -1.37881 23.9769 -0.981192 16.4222 3.83365Z" fill="#AE282E"/>
<path d="M27.9199 4.83601V5.03649C27.8533 6.17254 27.1849 7.57589 25.982 8.77876C24.1777 10.5162 21.7719 11.1845 20.7662 10.1855C19.6301 9.11624 20.3018 6.77397 22.1061 4.90284C23.9772 3.09853 26.383 2.49709 27.3854 3.56631C27.7195 3.90044 27.9199 4.3014 27.9199 4.83601ZM20.97 35.5193C16.6898 38.727 12.2792 40.3342 7.99902 39.6659C9.80333 39.7327 11.2768 37.7246 12.4797 35.0515C13.6826 32.3117 14.3509 29.7723 14.9523 27.3632C15.821 23.5541 15.8879 20.881 15.4201 20.2796C14.685 19.3407 13.0811 19.5445 11.2067 20.6137C10.2711 21.1483 9.06824 20.8142 10.4749 19.0767C11.9451 17.3392 17.6253 13.1926 19.6301 12.5244C21.9056 11.9229 24.445 12.7917 23.5763 15.2643C22.9715 17.0686 15.086 37.6578 20.97 35.5193Z" fill="white"/>
<path d="M128.931 36.455L130.468 30.7079H134.211V27.6339H131.337L132.674 22.7522H134.211V19.7417H129.128L123.849 39.666H134.211V36.455H128.931ZM134.211 30.7079H134.946C138.357 30.7079 139.961 31.3093 139.293 33.6483C138.758 35.7199 137.087 36.455 134.211 36.455V39.666C137.021 39.666 139.092 39.3987 141.164 37.992C142.567 37.0564 143.573 35.6531 143.974 34.0492C144.706 31.3093 143.503 29.4349 140.362 29.0372C143.302 28.5026 145.177 26.9623 145.775 24.5565C146.309 22.7522 145.842 21.4157 144.572 20.547C143.503 19.8119 141.698 19.7417 139.293 19.7417H134.211V22.7522H136.82C140.028 22.7522 141.498 23.1532 141.03 25.158C140.429 27.0959 138.691 27.6339 135.417 27.6339H134.211V30.7079Z" fill="white"/>
<path d="M152.929 25.6958V28.1651C152.394 28.4357 151.926 28.9035 151.726 29.5718H147.716C148.381 27.6338 150.189 26.2939 152.929 25.6958ZM152.929 37.3938C152.461 37.5274 151.926 37.5942 151.392 37.5942C149.587 37.5942 148.785 36.8558 149.186 35.5193C149.587 33.9823 150.79 33.4477 152.929 33.2472V30.9083C148.314 31.2424 145.775 32.4453 144.973 35.4525C144.238 38.1923 145.979 40 149.587 40C150.79 40 151.926 39.7995 152.929 39.3986V37.3938ZM156.808 33.2472L156.741 33.4477C156.206 35.5193 154.8 36.926 152.929 37.3938V39.3986C153.931 38.9943 154.8 38.463 155.601 37.7279L155.267 39.6659H159.28C159.481 38.727 159.681 37.6577 159.949 36.5885L161.486 30.9751C161.619 30.5073 161.686 30.0395 161.686 29.5717V28.9035C161.552 26.628 159.614 25.4252 156.006 25.4252C154.866 25.4252 153.864 25.5588 152.929 25.6958V28.1651C153.53 27.8343 154.265 27.7006 155.204 27.7006C157.272 27.7006 158.077 28.6328 157.473 30.641L157.409 30.8414H155.267C154.469 30.8414 153.664 30.9083 152.929 30.9083V33.2472L156.808 33.2472Z" fill="white"/>
<path d="M162.889 39.666H166.969L168.907 32.5122C169.575 29.9728 171.914 28.1652 174.387 28.1652C176.792 28.1652 177.664 29.5719 176.863 32.3786L174.921 39.666H179.001L181.273 31.1757C182.209 27.5671 180.404 25.4253 176.395 25.4253C173.785 25.4253 171.714 26.3609 169.909 28.232L170.377 25.7594H166.301C165.9 27.9647 165.632 29.3046 165.495 29.8392L162.889 39.666Z" fill="white"/>
<path d="M182.61 39.6659H186.623L188.628 32.178L194.044 39.6659H199.59L193.439 31.7102L201.729 25.7594H196.583L188.895 31.3093L191.969 19.745H187.959L182.61 39.6659Z" fill="white"/>
</svg>
