<svg width="192" height="40" viewBox="0 0 192 40" fill="none" xmlns="http://www.w3.org/2000/svg">
<path d="M0 39.8492H191.012V0.150703H0V39.8492Z" fill="#00836C"/>
<path d="M48.0717 19.9979C48.0717 31.0456 39.1205 40 28.0706 40C17.0272 40 8.07275 31.0456 8.07275 19.9979C8.07275 8.95878 17.0272 0 28.0706 0C39.1205 0 48.0717 8.95878 48.0717 19.9979Z" fill="white"/>
<path d="M54.9945 26.9043C54.9772 26.0296 55.0134 25.1584 55.0526 24.2899C55.0462 20.9838 55.0657 17.6749 55.043 14.3706C54.9425 13.512 55.0343 12.6313 54.9568 11.7745C54.923 11.1445 54.9312 10.5015 54.904 9.86753C54.8372 9.64423 54.8658 9.39825 54.819 9.15899C54.7067 8.82328 54.9208 8.791 55.2045 8.86831C56.1618 8.864 57.1036 8.91827 58.0633 8.90169C58.6915 8.84591 59.3437 8.89414 59.9725 8.84353C59.9922 9.29364 59.9081 9.71391 59.9046 10.1572C59.8468 10.8338 59.8118 11.5479 59.8196 12.2504C59.7856 12.8149 59.7875 13.3929 59.7808 13.9636C59.7685 15.6161 59.731 17.2658 59.7369 18.9198C59.718 20.5872 59.7508 22.2552 59.7517 23.9226C59.7964 24.9317 59.7649 25.9477 59.7991 26.957C59.8131 27.7793 59.836 28.6015 59.8842 29.4196C59.9183 29.8973 59.9806 30.3649 59.9725 30.8538C59.6039 30.8267 59.2159 30.8331 58.8644 30.7914C57.9943 30.7806 57.1173 30.746 56.2468 30.7914C55.8375 30.7728 55.4641 30.8479 55.0526 30.8312C54.7188 30.9773 54.8191 30.6767 54.819 30.45C54.8715 30.2 54.8633 29.9281 54.904 29.6748C54.945 28.9572 54.9161 28.2263 54.9838 27.5126C54.9831 27.3095 54.9805 27.1066 54.9945 26.9043Z" fill="white"/>
<path d="M68.6285 28.6755C69.6581 28.7841 70.6908 28.8442 71.7486 28.8188C73.0073 28.8307 74.2646 28.5647 75.3572 27.9476C76.1817 27.4833 76.9058 26.791 77.4128 25.9793C77.732 25.5427 77.9572 25.0559 78.1666 24.5558C78.5482 23.5372 78.8059 22.4344 78.8891 21.3308C79.0073 20.2536 79.0089 19.1438 78.945 18.0564C78.8818 17.0394 78.674 16.0324 78.3055 15.0834C78.0013 14.383 77.6274 13.7108 77.0898 13.1549C76.6362 12.6304 76.0634 12.2046 75.4412 11.88C75.032 11.706 74.6045 11.4858 74.1523 11.3944C72.6988 10.9807 71.1634 11.0399 69.6674 11.1187C69.3192 11.1311 68.9741 11.1652 68.6285 11.1801C68.5595 15.6655 68.5859 20.1572 68.5811 24.6463C68.628 25.988 68.5843 27.3343 68.6285 28.6755ZM63.8347 27.1249C63.8827 25.0231 63.8914 22.9147 63.8842 20.8076C63.9528 19.5353 63.8487 18.2595 63.8842 16.982C63.9007 15.0212 63.8192 13.0697 63.8045 11.1187C63.7253 10.5828 63.7861 10.0169 63.7205 9.48206C63.7328 9.3094 63.4692 8.72156 63.8347 8.87473C64.4789 8.97455 65.1533 9.06203 65.8289 9.06637C66.581 9.12883 67.3364 9.14642 68.1095 9.13748C68.7413 9.05027 69.4251 9.07092 70.0692 9.00933C71.0455 8.97293 71.9928 8.87571 72.9668 8.86829C74.032 8.79992 75.1315 8.8586 76.1874 9.04488C76.9499 9.15578 77.7052 9.39149 78.4292 9.64097C79.1837 9.93696 79.8954 10.33 80.5494 10.8247C81.3975 11.4752 82.1458 12.2779 82.6875 13.185C83.2352 14.0972 83.6142 15.1103 83.8298 16.156C84.0168 16.8387 84.0868 17.5423 84.1372 18.2481C84.2113 19.0609 84.2002 19.8934 84.1459 20.7058C84.0731 21.3393 84.0491 21.9907 83.897 22.6154C83.7886 23.17 83.6516 23.7243 83.4557 24.25C83.115 25.3398 82.5457 26.3465 81.8373 27.2413C81.3869 27.7415 80.9384 28.2541 80.3826 28.6475C79.4921 29.3985 78.4292 29.9073 77.3375 30.3004C76.6436 30.5005 75.9518 30.7199 75.2294 30.8088C73.6353 31.1044 71.9955 31.0693 70.3932 30.9734C69.6688 30.9615 68.9647 30.8727 68.2323 30.8732C67.2377 30.7762 66.1935 30.6993 65.2074 30.8312C64.6772 30.8799 64.1555 30.9385 63.6377 31.0455C63.665 30.6216 63.7582 30.2112 63.7551 29.778C63.7857 28.8926 63.812 28.018 63.8347 27.1249Z" fill="white"/>
<path d="M91.7317 28.64C92.4252 28.687 93.1089 28.8027 93.8282 28.7175C94.3024 28.6214 94.7926 28.5245 95.2151 28.2836C95.4188 28.1777 95.601 28.0418 95.7675 27.8992C95.9724 27.7559 96.1795 27.5149 96.3424 27.2833C96.5209 27.0907 96.6188 26.7977 96.7678 26.564C96.9194 26.1843 97.0311 25.7608 97.1037 25.3483C97.108 24.9229 97.1803 24.5237 97.1694 24.0992C97.0631 23.8208 97.1705 23.4415 97.0327 23.1614C96.9353 22.7418 96.8021 22.3222 96.532 21.9726C96.4078 21.7665 96.2767 21.577 96.084 21.4386C95.9386 21.2221 95.655 21.0982 95.4584 20.9271C95.2155 20.8582 95.0249 20.672 94.7639 20.6482C94.4364 20.5413 94.0934 20.4146 93.7356 20.4415C93.2529 20.2923 92.6934 20.3882 92.1791 20.3597C91.7258 20.2334 91.6703 20.505 91.7317 20.8935C91.7317 23.4757 91.7317 26.0579 91.7317 28.64ZM91.7317 18.3278C92.4702 18.3299 93.2294 18.3638 93.9208 18.1533C94.2693 18.0399 94.6673 17.9244 94.9879 17.6849C95.3362 17.4834 95.6013 17.2164 95.8557 16.915C96.1031 16.5816 96.3117 16.1822 96.4297 15.764C96.5275 15.5137 96.5679 15.2316 96.5955 14.9594C96.6458 14.5028 96.6995 14.0365 96.5955 13.5958C96.5744 13.2729 96.5039 12.9707 96.3435 12.6984C96.1768 12.2897 95.8958 11.9919 95.5639 11.7099C95.2831 11.4611 94.9435 11.3484 94.5981 11.1801C93.7411 10.9375 92.795 10.8606 91.9083 11.0057C91.5633 10.992 91.8019 11.4999 91.7317 11.731C91.7317 13.9299 91.7317 16.1288 91.7317 18.3278ZM87.0553 26.9043C87.0706 25.5162 87.0766 24.1259 87.0953 22.739C87.1301 20.8334 87.1007 18.9204 87.1102 17.012C87.0527 16.1073 87.0974 15.1878 87.0693 14.278C87.0607 13.158 87.0466 12.0456 86.9971 10.9335C86.9589 10.441 86.965 9.96616 86.9002 9.50175C86.9339 9.29502 86.7848 8.94762 86.9271 8.84355C87.8771 8.86681 88.8306 8.87824 89.7795 8.90172C90.8726 8.8356 91.988 8.90217 93.087 8.85821C94.1864 8.86036 95.3081 8.77777 96.3904 8.95587C96.8139 9.03092 97.2522 9.07175 97.6497 9.23446C98.1482 9.34085 98.5949 9.56357 99.0516 9.78146C99.3033 9.96595 99.6263 10.1036 99.871 10.3285C100.258 10.6177 100.627 10.9996 100.903 11.4386C101.158 11.8307 101.346 12.2658 101.439 12.7297C101.533 13.2574 101.583 13.8166 101.474 14.352C101.427 14.8621 101.291 15.3749 101.04 15.8168C100.827 16.3522 100.445 16.8116 100.04 17.2392C99.6717 17.6005 99.2347 17.886 98.8233 18.1534C98.4202 18.3887 97.9601 18.5684 97.5065 18.7294C97.2685 18.7875 97.017 18.8484 96.7861 18.9212C97.061 18.9584 97.3238 19.0543 97.5937 19.1257C97.9435 19.2053 98.2464 19.3997 98.594 19.5015C99.0989 19.7799 99.5944 20.0372 100.017 20.4096C100.528 20.8075 100.946 21.3176 101.287 21.8737C101.609 22.5014 101.863 23.1991 101.922 23.9227C102.043 24.8997 101.931 25.9319 101.592 26.8401C101.404 27.3874 101.118 27.8877 100.757 28.3408C100.484 28.6688 100.196 29.0048 99.8463 29.2438C99.4258 29.626 98.9199 29.8941 98.4163 30.1541C97.7983 30.4111 97.1724 30.5985 96.5152 30.7193C95.7017 30.8193 94.8947 30.8847 94.0685 30.8539C92.9562 30.8159 91.8324 30.8419 90.7236 30.7915C89.9733 30.7908 89.245 30.7655 88.5025 30.7915C88.0159 30.8569 87.4879 30.8201 86.9906 30.8539C86.7306 30.8572 86.9434 30.4137 86.9003 30.2158C86.943 29.7567 86.977 29.3022 86.9843 28.8188C87.042 28.1825 87.0244 27.5409 87.0553 26.9043Z" fill="white"/>
<path d="M106.735 26.9043C106.807 24.0224 106.78 21.137 106.785 18.2519C106.791 16.0914 106.782 13.9284 106.714 11.7745C106.661 11.3731 106.706 10.9263 106.659 10.5191C106.672 10.1428 106.599 9.80222 106.599 9.43794C106.56 9.25274 106.551 9.01352 106.561 8.84356C107.138 8.87371 107.721 8.8807 108.307 8.87478C108.815 8.93756 109.38 8.88342 109.91 8.90173C110.446 8.83744 111.008 8.90383 111.545 8.84784C111.87 8.77311 111.625 9.17467 111.697 9.36361C111.623 9.81586 111.636 10.2795 111.616 10.7591C111.554 11.2801 111.613 11.8302 111.564 12.3571C111.49 12.8456 111.567 13.378 111.523 13.8817C111.509 15.0495 111.483 16.2166 111.472 17.3845C111.476 20.0728 111.45 22.7623 111.523 25.4452C111.542 26.069 111.517 26.7016 111.552 27.3208C111.624 27.9263 111.551 28.5705 111.628 29.1773C111.601 29.7119 111.706 30.1968 111.704 30.7193C111.771 30.9945 111.312 30.7673 111.139 30.8248C110.756 30.802 110.375 30.7787 109.98 30.7914C109.44 30.7405 108.879 30.785 108.332 30.7699C108.019 30.8273 107.633 30.755 107.329 30.8227C107.065 30.8042 106.763 30.8748 106.546 30.8313C106.573 30.4484 106.592 30.0796 106.638 29.719C106.661 29.126 106.702 28.5477 106.69 27.9477C106.74 27.6203 106.733 27.2487 106.735 26.9043Z" fill="white"/>
<path d="M125.667 29.3044C126.176 29.3131 126.681 29.2612 127.175 29.1989C127.401 29.0944 127.689 29.1377 127.916 29.0029C128.141 28.9348 128.338 28.8099 128.531 28.6648C128.847 28.4895 129.05 28.1813 129.23 27.8985C129.322 27.7022 129.4 27.5109 129.459 27.3092C129.641 26.7632 129.6 26.1545 129.601 25.5712C129.574 25.3375 129.542 25.093 129.462 24.8862C129.432 24.6333 129.278 24.4341 129.196 24.1994C129.026 23.9761 128.876 23.6985 128.623 23.5458C128.479 23.3818 128.21 23.2738 128.011 23.1528C127.664 23.0005 127.312 22.92 126.944 22.8416C126.648 22.766 126.313 22.7797 125.994 22.7382C125.778 22.7266 125.442 22.6273 125.553 22.9677C125.555 24.7123 125.541 26.4621 125.596 28.1981C125.612 28.4786 125.594 28.7888 125.637 29.0304C125.644 29.122 125.613 29.2446 125.667 29.3044ZM129.462 18.1534C129.487 17.7527 129.441 17.3336 129.308 16.984C129.23 16.7459 129.095 16.5191 128.943 16.326C128.8 16.1696 128.631 16.0272 128.465 15.9266C128.272 15.8244 128.118 15.7158 127.9 15.6682C127.669 15.5825 127.409 15.5384 127.159 15.483C126.695 15.3918 126.207 15.3969 125.725 15.4033C125.647 15.6802 125.675 16.0077 125.667 16.3196C125.595 16.5344 125.622 16.8062 125.596 17.053C125.548 18.4644 125.551 19.8872 125.553 21.3061C126.01 21.3181 126.459 21.2762 126.906 21.2491C127.186 21.1725 127.496 21.1933 127.761 21.0789C128.023 21.0152 128.218 20.881 128.421 20.6902C128.543 20.5739 128.656 20.4456 128.773 20.2821C129.033 19.9409 129.129 19.5322 129.277 19.1418C129.326 18.811 129.463 18.491 129.462 18.1534ZM128.069 21.893C128.701 21.937 129.344 21.9437 129.967 22.0502C130.278 22.0718 130.543 22.1864 130.844 22.2419C131.041 22.3073 131.241 22.3677 131.428 22.456C131.661 22.5441 131.873 22.6788 132.104 22.791C132.261 22.9626 132.475 23.0852 132.623 23.2528C132.793 23.4274 132.914 23.6256 133.049 23.8322C133.116 23.9894 133.205 24.1688 133.26 24.3361C133.337 24.5934 133.409 24.8632 133.451 25.134C133.535 25.7156 133.523 26.3318 133.468 26.9215C133.392 27.265 133.336 27.6195 133.197 27.9395C133.08 28.1828 133.009 28.4643 132.807 28.6476C132.613 29.0291 132.262 29.3016 131.958 29.5897C131.654 29.8013 131.33 29.9921 131.002 30.1411C130.772 30.2146 130.57 30.3638 130.326 30.3812C130.121 30.4912 129.877 30.5019 129.655 30.5767C129.308 30.6116 128.966 30.7331 128.606 30.7271C127.256 30.7848 125.898 30.7368 124.545 30.7527C123.61 30.7474 122.655 30.7624 121.732 30.7452C121.763 30.4322 121.798 30.1353 121.805 29.8106C121.871 29.3681 121.819 28.8865 121.889 28.448C121.928 26.9627 121.908 25.4681 121.91 23.9766C121.863 23.4041 121.913 22.8146 121.845 22.2419C121.854 21.1991 121.815 20.1642 121.791 19.1251C121.802 18.3991 121.762 17.6824 121.748 16.9627C121.752 15.9442 121.729 14.9281 121.732 13.9098C122.574 13.921 123.415 13.9738 124.257 13.9732C124.878 13.9775 125.496 14.0108 126.117 14.0207C127.182 14.0492 128.261 13.9801 129.308 14.1596C129.614 14.2403 129.956 14.2551 130.245 14.3934C130.632 14.4859 131.016 14.6598 131.352 14.8628C131.538 14.9232 131.706 15.0903 131.876 15.1926C132.135 15.3735 132.297 15.624 132.53 15.8362C132.602 16.0352 132.757 16.1927 132.821 16.3993C132.93 16.576 132.974 16.7847 133.031 16.9675C133.118 17.3329 133.135 17.7482 133.123 18.1469C133.068 18.3642 133.093 18.586 133.001 18.7878C132.96 19.0253 132.841 19.259 132.718 19.4797C132.605 19.7448 132.423 19.9491 132.243 20.1659C132.149 20.3124 131.982 20.4089 131.871 20.5428C131.661 20.654 131.463 20.8501 131.242 20.9372C131.07 21.0526 130.865 21.1762 130.646 21.2244C130.475 21.3374 130.272 21.3929 130.067 21.445C129.794 21.5203 129.509 21.6293 129.216 21.6529C128.844 21.7522 128.455 21.782 128.069 21.8155V21.8566V21.893Z" fill="white"/>
<path d="M143.574 24.2424C143.492 23.9371 143.414 23.603 143.235 23.3271C143.209 23.116 143.074 22.9686 143.042 22.7619C142.975 22.5685 142.921 22.3878 142.84 22.2041C142.73 21.8553 142.603 21.5409 142.507 21.2048C142.383 20.9206 142.305 20.6204 142.142 20.366C142.124 20.1445 141.935 20.0144 141.939 19.7814C141.793 19.5085 141.69 19.2095 141.584 18.9296C141.479 18.8207 141.465 18.4123 141.355 18.7265C141.296 18.9006 141.202 19.0182 141.122 19.1816C140.966 19.5381 140.81 19.8949 140.668 20.2712C140.553 20.4381 140.552 20.6686 140.44 20.8204C140.4 21.0545 140.272 21.2327 140.23 21.4762C140.089 21.7234 140 22.0164 139.903 22.2653C139.778 22.5851 139.643 22.9128 139.558 23.2496C139.463 23.421 139.418 23.6292 139.354 23.8171C139.346 23.9447 139.113 24.2755 139.432 24.1993C139.866 24.2233 140.314 24.2605 140.779 24.2424H143.574ZM150.082 30.6707C149.348 30.6543 148.637 30.711 147.907 30.7031C147.232 30.7283 146.545 30.7486 145.86 30.7526C145.778 30.4962 145.717 30.2516 145.641 30.0107C145.579 29.7921 145.527 29.6328 145.47 29.4282C145.263 28.9575 145.109 28.4435 144.976 27.9456C144.885 27.5824 144.742 27.2385 144.649 26.8751C144.578 26.645 144.5 26.4333 144.424 26.2086C144.363 26.0787 144.313 25.8856 144.209 25.8317C142.308 25.8317 140.406 25.8317 138.505 25.8317C138.394 26.076 138.301 26.364 138.236 26.6243C138.006 27.1894 137.787 27.7772 137.609 28.3643C137.395 28.9057 137.263 29.4931 137.03 30.0231C136.96 30.2678 136.873 30.5104 136.778 30.7526C136.26 30.7333 135.752 30.6958 135.227 30.7031C135.092 30.6061 134.64 30.7574 134.648 30.6201C134.685 30.4847 134.774 30.308 134.836 30.1539C135.024 29.7241 135.206 29.2427 135.39 28.8083C135.561 28.3298 135.788 27.8501 135.966 27.35C136.206 26.8963 136.338 26.4004 136.555 25.9329C136.765 25.3918 137.004 24.8702 137.225 24.3411C137.338 23.9235 137.549 23.5243 137.69 23.1223C137.862 22.7976 137.921 22.4353 138.119 22.1244C138.307 21.652 138.462 21.1265 138.686 20.6474C138.879 20.1745 139.049 19.693 139.278 19.244C139.411 18.8393 139.555 18.4479 139.715 18.0542C139.98 17.3466 140.314 16.6666 140.551 15.948C140.663 15.5698 140.853 15.2103 140.951 14.8142C141.131 14.4535 141.274 14.0687 141.434 13.7013C141.52 13.5914 141.71 13.752 141.864 13.7309C142.297 13.7706 142.759 13.7331 143.185 13.6738C143.692 13.9175 143.7 15.0111 144.035 15.5522C144.333 16.2651 144.657 16.9701 144.891 17.7109C145.09 18.1805 145.224 18.6758 145.482 19.1123C145.737 19.8373 146.019 20.5457 146.296 21.2607C146.379 21.5242 146.577 21.7336 146.616 22.0122C146.767 22.3933 146.895 22.7843 147.047 23.1684C147.216 23.6065 147.358 24.0458 147.571 24.421C147.764 24.8997 147.951 25.4047 148.138 25.9027C148.259 26.2152 148.368 26.559 148.534 26.8582C148.818 27.3084 148.886 27.842 149.133 28.3158C149.236 28.6621 149.37 28.9896 149.496 29.2828C149.571 29.4617 149.622 29.6262 149.734 29.748C149.838 30.0002 149.93 30.2869 150.028 30.5318C150.026 30.578 150.113 30.6089 150.082 30.6707Z" fill="white"/>
<path d="M166.485 13.9099C166.442 14.3297 166.402 14.7432 166.375 15.1625C166.348 15.7131 166.298 16.2579 166.275 16.808C166.218 17.8526 166.196 18.8956 166.203 19.9473C166.123 20.8019 166.184 21.6875 166.165 22.5553C166.252 23.5722 166.165 24.6085 166.239 25.6264C166.246 26.5508 166.324 27.4663 166.35 28.3848C166.352 28.9762 166.383 29.5659 166.42 30.1487C166.399 30.337 166.459 30.6334 166.42 30.7527C166.004 30.7321 165.661 30.646 165.224 30.6709C164.87 30.6368 164.603 30.7292 164.285 30.7527C164.116 30.6451 164.038 30.421 163.862 30.3005C163.705 30.1343 163.594 29.9474 163.426 29.8106C163.33 29.6181 163.132 29.5256 163.035 29.3422C162.631 28.8977 162.215 28.4392 161.822 27.9696C161.595 27.7205 161.367 27.4928 161.164 27.2345C160.921 27.0299 160.786 26.7399 160.537 26.5325C160.16 26.1426 159.812 25.74 159.457 25.3325C159.271 25.2006 159.171 24.9816 158.994 24.8499C158.827 24.6381 158.607 24.4609 158.463 24.2189C158.026 23.8544 157.698 23.411 157.303 22.9844C156.979 22.7049 156.709 22.3711 156.447 22.0503C156.264 21.8256 156.002 21.6721 155.849 21.4232C155.588 21.2154 155.419 20.9133 155.171 20.6858C154.758 20.3446 154.43 19.9051 154.078 19.5067C153.866 19.3847 153.738 19.1707 153.566 19.0073C153.569 21.6443 153.553 24.2851 153.59 26.9186C153.616 28.044 153.666 29.1698 153.655 30.3005C153.692 30.4708 153.785 30.8772 153.502 30.7452C153.141 30.6715 152.779 30.6613 152.365 30.6753C152.09 30.7128 151.832 30.7344 151.539 30.7527V13.9099C151.984 13.8823 152.32 13.9663 152.72 13.9831C152.995 14.0549 153.363 14.054 153.655 14.0046C153.879 13.9791 154.074 13.9616 154.297 13.9099C154.585 14.2985 154.933 14.634 155.264 14.9823C155.848 15.7024 156.5 16.3631 157.101 17.0669C157.608 17.5375 157.99 18.1207 158.494 18.5957C158.921 19.1031 159.405 19.5607 159.829 20.0675C160.28 20.6188 160.808 21.1028 161.251 21.6592C161.782 22.1609 162.204 22.7634 162.731 23.2723C163.252 23.8836 163.8 24.4654 164.331 25.0685C164.577 25.4978 164.461 24.8734 164.482 24.6768C164.458 23.3013 164.478 21.924 164.428 20.5503C164.382 18.856 164.439 17.1559 164.368 15.4627C164.337 14.9653 164.364 14.4637 164.355 13.9648C164.701 14.0397 165.085 14.081 165.522 14.0649C165.879 14.0475 166.169 14.0244 166.485 13.9099Z" fill="white"/>
<path d="M183.863 30.7526C182.299 30.7526 180.735 30.7526 179.171 30.7526C178.865 30.3097 178.585 29.8642 178.298 29.4109C177.995 28.9567 177.701 28.4938 177.4 28.0411C177.203 27.7477 177.025 27.4223 176.799 27.1443C176.635 26.8155 176.367 26.54 176.218 26.2085C175.975 25.8981 175.769 25.5611 175.535 25.2298C175.39 25.0342 175.24 24.807 175.099 24.5905C174.922 24.3588 174.782 24.0879 174.579 23.859C174.465 23.648 174.278 23.4568 174.155 23.2496C174.157 25.1507 174.143 27.0549 174.168 28.9533C174.272 29.2666 174.146 29.6548 174.245 29.9751C174.265 30.2302 174.285 30.5003 174.332 30.7526C173.939 30.7493 173.579 30.6947 173.186 30.703C172.811 30.6394 172.404 30.6876 172.011 30.6707C171.682 30.6728 171.351 30.6653 171.021 30.675C170.796 30.7355 170.515 30.7375 170.246 30.7526C170.247 29.3442 170.237 27.9343 170.268 26.5308C170.289 25.3152 170.29 24.0976 170.309 22.8831C170.387 22.1297 170.321 21.3604 170.372 20.6038C170.383 18.7772 170.407 16.9451 170.342 15.1232C170.25 14.8449 170.316 14.5074 170.268 14.2117C170.195 13.9536 170.281 13.8574 170.527 13.9473C171.025 14.0259 171.55 14.0648 172.066 14.0948C172.546 14.1586 173.045 14.0656 173.537 14.0647C173.811 14.024 174.102 14.0221 174.372 13.9646C174.324 14.3794 174.271 14.7949 174.281 15.2384C174.212 15.4504 174.258 15.6995 174.212 15.9218C174.194 16.4888 174.234 17.0754 174.181 17.6303C174.139 18.9561 174.158 20.3003 174.154 21.6344C174.314 21.3994 174.513 21.2338 174.704 21.0149C174.961 20.7044 175.21 20.3878 175.484 20.0952C175.801 19.6997 176.177 19.319 176.469 18.8897C176.746 18.6481 176.919 18.3408 177.173 18.08C177.373 17.8109 177.611 17.5491 177.823 17.2871C178.043 16.9841 178.307 16.7112 178.512 16.3992C178.722 16.1728 178.888 15.9292 179.076 15.6867C179.227 15.4743 179.423 15.2824 179.556 15.0488C179.701 14.9138 179.825 14.7177 179.937 14.5523C180.13 14.3848 180.222 14.0821 180.437 13.9646C180.815 14.0466 181.286 14.0297 181.69 14.0647C182.19 14.0532 182.771 14.1059 183.195 13.9829C183.573 13.8779 183.253 14.1526 183.11 14.2876C182.784 14.6821 182.438 15.0534 182.091 15.4309C181.793 15.7144 181.539 16.0376 181.248 16.3306C180.894 16.7518 180.494 17.149 180.142 17.5556C179.741 17.9505 179.392 18.4076 178.986 18.8036C178.503 19.3131 178.043 19.8399 177.555 20.3473C177.377 20.5684 177.149 20.7445 176.983 20.9776C177.304 21.5076 177.705 21.9869 178.043 22.5109C178.707 23.4111 179.307 24.3557 179.973 25.2526C180.161 25.5197 180.356 25.7814 180.543 26.0486C180.748 26.3437 180.96 26.6369 181.187 26.9214C181.515 27.4513 181.903 27.9389 182.233 28.4709C182.546 28.8368 182.783 29.26 183.076 29.6484C183.346 30.0117 183.587 30.3916 183.863 30.7526Z" fill="white"/>
<path d="M27.9252 34.9672C29.8066 34.9704 31.6975 34.4602 33.2862 33.4429C34.2479 32.8853 35.1056 32.1383 35.8087 31.2779C36.2759 30.7765 36.6123 30.1838 36.9723 29.6049C37.5694 28.4459 38.0116 27.1949 38.1327 25.8895C38.3066 24.4333 38.167 22.9413 37.7459 21.539C37.4374 20.4733 36.9484 19.464 36.3317 18.5425C35.4829 17.2899 34.3874 16.1827 33.0776 15.4216C32.7826 15.2374 32.5294 15.0518 32.2312 14.8701C31.7924 14.5665 31.0829 14.1858 30.5622 14.5914C30.0331 15.1123 30.0578 15.9327 30.0119 16.6323C30.0087 21.584 29.9856 26.5351 29.9958 31.4871C29.965 31.9028 30.0938 32.4067 29.6674 32.65C29.2264 32.9177 28.7314 33.0922 28.2159 33.1733C27.7932 33.2944 27.3941 33.111 26.9819 33.0333C26.6299 32.9112 26.2461 32.7586 25.9892 32.5133C25.6162 32.1845 25.8402 31.6043 25.7792 31.1435C25.7727 26.0786 25.7922 21.0126 25.7695 15.9484C25.6956 15.4047 25.6359 14.7396 25.128 14.4149C24.893 14.2952 24.6313 14.3115 24.3904 14.4127C23.8143 14.5812 23.3248 15.0686 22.8366 15.358C21.9872 15.8578 21.204 16.4768 20.5438 17.216C19.9605 17.805 19.498 18.4967 19.0712 19.2076C18.4617 20.3168 17.9973 21.5101 17.7868 22.7614C17.5736 23.9173 17.552 25.1052 17.7337 26.2689C18.0078 28.0406 18.7739 29.7304 19.8872 31.1309C20.9888 32.5339 22.5031 33.5634 24.1352 34.2608C25.3448 34.7078 26.6297 34.9835 27.9252 34.9672Z" fill="#F58220"/>
<path d="M27.964 11.7692C28.1029 11.7638 28.2464 11.7844 28.3801 11.7498C28.4649 11.7444 28.5407 11.6812 28.6305 11.697C28.688 11.6507 28.7525 11.6028 28.8262 11.6001C28.8938 11.5584 28.999 11.5735 29.0332 11.4827C29.1074 11.4568 29.168 11.4143 29.2352 11.3767C29.2996 11.3454 29.3471 11.2778 29.4081 11.2359C29.5025 11.1957 29.533 11.0882 29.6238 11.0423C29.6701 10.9847 29.7109 10.9232 29.7697 10.8743C29.8278 10.7888 29.8871 10.7064 29.9216 10.6073C29.9808 10.5615 29.991 10.4803 30.0313 10.4184C30.0625 10.3495 30.1036 10.2888 30.1189 10.2153C30.1495 10.1514 30.1781 10.0861 30.1692 10.0129C30.2028 9.9243 30.1789 9.82162 30.2414 9.74156C30.237 9.53698 30.25 9.32775 30.2349 9.12608C30.1684 9.04155 30.2013 8.9308 30.1693 8.83467C30.1596 8.76468 30.1455 8.68975 30.1027 8.63265C30.0515 8.43437 29.9213 8.27109 29.8297 8.09229C29.7846 8.03231 29.761 7.96987 29.6953 7.9293C29.6326 7.84143 29.5385 7.78237 29.4888 7.68488C29.3984 7.6795 29.3531 7.58657 29.2834 7.54207C29.2348 7.49092 29.1585 7.46908 29.1049 7.42719C29.0402 7.40081 29.0081 7.33275 28.9271 7.33544C28.8127 7.2871 28.7021 7.21552 28.5757 7.19276C28.5064 7.1596 28.4487 7.11309 28.3661 7.13355C28.2757 7.1314 28.1875 7.1118 28.0965 7.1118C27.9406 7.09317 27.7824 7.11394 27.6276 7.1204C27.5331 7.15551 27.4195 7.1002 27.3372 7.176C27.2377 7.22446 27.1257 7.2296 27.0305 7.28596C26.9688 7.33355 26.8825 7.32971 26.8346 7.39367C26.7511 7.40907 26.6935 7.47873 26.6141 7.50665C26.5477 7.56135 26.4766 7.6245 26.4166 7.6791C26.3314 7.66833 26.3172 7.77708 26.2574 7.82112C26.194 7.86624 26.1792 7.94194 26.1196 7.98694C26.0069 8.11353 25.9096 8.25892 25.8442 8.41642C25.8334 8.49169 25.766 8.53474 25.763 8.613C25.7283 8.68622 25.6962 8.74844 25.6806 8.82534C25.6621 8.90416 25.6849 8.9954 25.6274 9.06588C25.636 9.25224 25.5906 9.43902 25.6274 9.62385C25.6242 9.7227 25.6198 9.822 25.6705 9.91112C25.6591 10.0336 25.7119 10.1437 25.7631 10.2502C25.7555 10.3361 25.8307 10.3668 25.8422 10.4419C25.8697 10.5061 25.8872 10.575 25.932 10.6312C25.9708 10.7603 26.0818 10.8398 26.1613 10.9409C26.2132 10.9872 26.2277 11.0686 26.2983 11.101C26.348 11.1554 26.3857 11.2199 26.4609 11.2464C26.5042 11.316 26.5963 11.332 26.6462 11.3994C26.7255 11.4715 26.8486 11.4594 26.9116 11.5534C26.9673 11.5926 27.0534 11.5847 27.1048 11.6193C27.1611 11.6496 27.2349 11.6681 27.2947 11.6964C27.381 11.7029 27.4502 11.7638 27.5377 11.7492C27.6723 11.791 27.8236 11.7584 27.964 11.7692Z" fill="#F58220"/>
<path d="M32.9901 7.61711C33.2478 7.05004 33.9298 6.61674 34.5093 7.04961C35.6567 7.78105 36.5265 8.89015 37.5203 9.81837C38.8162 11.0766 39.996 12.4837 40.8056 14.1096C41.6478 15.7743 42.1439 17.6067 42.2051 19.4745C42.4016 21.3606 42.0846 23.2948 41.5224 25.0974C40.3662 28.4879 37.9782 31.4922 34.8119 33.2077C30.432 35.6818 24.7583 35.517 20.4848 32.8946C16.417 30.4668 13.778 25.8889 13.5704 21.1715C13.4613 19.0039 13.8041 16.8113 14.6752 14.8142C15.5163 12.8177 16.9182 11.1063 18.4826 9.62252C19.3691 8.731 20.1885 7.74757 21.2403 7.05822C21.6868 6.71525 22.4047 6.77951 22.6433 7.32097C23.1714 8.15738 23.5358 9.19504 23.5058 10.2121C23.3751 11.8872 21.9082 12.9142 20.7374 13.9098C19.3498 15.0527 18.3816 16.6091 17.5793 18.2039C16.8542 19.759 16.473 21.4623 16.5283 23.2059C16.538 26.9413 18.3801 30.6447 21.4029 32.8567C23.3851 34.2446 25.7857 35.0467 28.2199 34.9671C31.5478 34.9248 34.735 33.1985 36.7394 30.5739C38.532 28.2612 39.4451 25.2831 39.2547 22.3588C39.1752 20.5753 38.6187 18.8451 37.7903 17.2973C37.0193 15.9053 35.9726 14.6508 34.7399 13.6507C33.82 12.7947 32.6952 11.9879 32.3989 10.7042C32.1765 9.64734 32.5388 8.56679 32.9901 7.61711Z" fill="#F58220"/>
</svg>
