<svg width="147" height="40" viewBox="0 0 147 40" fill="none" xmlns="http://www.w3.org/2000/svg">
<path d="M2.87631 2.88086H37.0214V37.1191H2.87403V2.88086H2.87631ZM39.8977 0H0V40H39.8977V0Z" fill="white"/>
<path d="M6.64893 13.331H33.2474V6.66431H6.64893V13.331ZM6.64893 33.331H13.2974V26.6643H6.64893V33.331ZM6.64893 23.331H23.2474V16.6438H6.64893V23.331Z" fill="white"/>
<path d="M56.7857 8.9313V17.5443H59.1777C61.8039 17.5443 62.4064 16.5393 62.4064 13.1923C62.4064 9.6248 62.0244 8.92903 58.8843 8.92903H56.7857V8.9313ZM59.5415 6.68256C63.6638 6.68256 65.1417 8.47428 65.1417 13.1719C65.1417 17.8695 63.5728 19.7931 59.5233 19.7931H54.0867V6.678H59.5392L59.5415 6.68256ZM48.8502 19.7931H51.5515V6.68256H48.8502V19.7931ZM67.2404 6.68256H76.4332V8.9313H69.9394V12.0032H75.6124V14.2542H69.9394V19.7931H67.2404V6.68256ZM89.0208 15.4775C88.8389 18.0377 87.4178 20.0864 83.3841 20.0864C79.3505 20.0864 77.4564 18.1287 77.4564 13.3015C77.4564 8.47428 79.3346 6.38696 83.4023 6.38696C86.6129 6.38696 88.5819 7.76032 89.0208 10.7594H86.3218C86.0126 9.58842 85.6306 8.69256 83.4046 8.69256C81.1786 8.69256 80.194 10.0295 80.194 13.5379C80.194 16.2642 80.9239 17.7808 83.4432 17.7808C85.2486 17.7808 86.1058 17.2146 86.3241 15.4752H89.0231L89.0208 15.4775ZM96.2081 6.68256H105.403V8.9313H98.9094V12.0032H104.582V14.2542H98.9094V19.7931H96.2081V6.68256ZM107.154 19.7931H109.855V6.68256H107.154V19.7931ZM115.092 8.9313V12.3897H117.518C119.689 12.3897 120.419 12.1691 120.419 10.5252C120.419 9.2087 119.964 8.93358 117.682 8.93358H115.092V8.9313ZM112.39 6.68256H118.064C120.781 6.68256 123.152 6.75759 123.152 10.6139C123.152 13.1741 122.095 14.1246 120.599 14.4747L124.009 19.7953H120.728L117.516 14.6384H115.089V19.7953H112.388V6.68028L112.39 6.68256ZM127.422 15.6798C127.531 17.0509 127.734 17.7831 130.324 17.7831C131.69 17.7831 132.695 17.583 132.695 16.2483C132.695 15.4434 132.331 15.0045 131.181 14.693L128.007 13.8335C126.422 13.4129 125.017 12.6444 125.017 10.2501C125.017 8.36741 125.874 6.38924 129.923 6.38924C133.973 6.38924 134.978 8.18096 135.033 10.5229H132.331C132.204 9.42471 132.149 8.69256 129.812 8.69256C128.446 8.69256 127.75 8.94949 127.75 9.99088C127.75 10.9413 128.316 11.2164 129.082 11.4165L132.002 12.2032C133.862 12.6989 135.431 13.4288 135.431 16.0459C135.431 19.7385 132.275 20.0864 130.321 20.0864C126.054 20.0864 124.885 18.4061 124.723 15.6798H127.422ZM140.01 8.98815H136.069V6.68256H146.631V8.98588H142.709V19.7931H140.008V8.98588L140.01 8.98815ZM51.5469 33.6903V37.1487H53.973C56.4378 37.1487 56.9835 36.9668 56.9835 35.4661C56.9835 33.9654 56.4719 33.6903 54.5028 33.6903H51.5469ZM51.5469 28.5334V31.4415H54.5756C56.199 31.4415 56.5992 31.2414 56.5992 29.8863C56.5992 28.7881 56.3446 28.5334 54.064 28.5334H51.5447H51.5469ZM55.2327 26.2824C57.8043 26.2824 59.2095 27.1964 59.2095 29.6839C59.2095 31.7167 58.2773 32.135 57.7134 32.3715C59.3164 32.9945 59.7188 34.2383 59.7188 35.6093C59.7188 37.7671 58.7343 39.3952 55.1213 39.3952H48.8457V26.2824H55.2304H55.2327ZM67.1813 34.9522L65.4123 35.2455C64.446 35.3933 63.7525 35.5934 63.7525 36.6189C63.7525 37.3488 64.1186 37.7512 65.2486 37.7512C66.7993 37.7512 67.1813 36.9099 67.1813 35.723V34.9545V34.9522ZM61.5083 32.6853C61.6356 30.2001 63.059 29.5225 65.6488 29.5225C68.2386 29.5225 69.7188 30.2364 69.7188 32.3397V39.3974H67.2927V38.6675C66.7993 39.1791 65.8694 39.6362 64.3368 39.6362C62.0403 39.6362 61.2172 38.6107 61.2172 36.9668C61.2172 34.8272 62.602 34.0223 64.0071 33.804L67.1813 33.3083V32.7239C67.1813 31.8281 66.7266 31.5711 65.5397 31.5711C64.28 31.5711 64.0253 31.8645 63.898 32.6853H61.5083ZM78.1477 33.8563C78.1477 32.3761 78.1295 31.6075 76.5037 31.6075C74.6984 31.6075 74.4983 32.558 74.4983 34.8249V39.3952H71.9607V29.7567H74.3687V31.0004C75.0622 30.0682 75.8102 29.5202 77.5792 29.5202C80.044 29.5202 80.6829 30.5798 80.6829 33.5061V39.3952H78.1454V33.8563H78.1477ZM83.1295 26.2846H85.6647V33.3265L88.7843 29.7612H91.9039L88.5478 33.4174L92.0312 39.3974H89.0935L86.7584 35.2092L85.6624 36.3438V39.3974H83.1272V26.2846H83.1295Z" fill="white"/>
</svg>
