<svg width="226" height="40" viewBox="0 0 226 40" fill="none" xmlns="http://www.w3.org/2000/svg">
<path d="M22.2213 0C25.6814 3.2709 29.1424 6.53996 32.6033 9.80902C32.2887 10.1329 31.9676 10.4503 31.6493 10.7695C28.5131 7.80772 25.376 4.84592 22.2426 1.88042C19.1829 4.9511 16.0892 7.98672 13.0277 11.0556C12.7011 10.7409 12.3662 10.4337 12.0396 10.1172C14.6756 7.48755 17.3274 4.87452 19.9598 2.24027C20.734 1.51504 21.473 0.751985 22.2213 0Z" fill="white"/>
<path d="M13.7588 11.6313C16.6025 8.8024 19.4748 6.00298 22.3213 3.17773C25.224 5.9061 28.1166 8.64554 31.0185 11.3739C30.6992 11.6932 30.379 12.0124 30.0607 12.3335C27.4929 9.905 24.9251 7.4765 22.3434 5.06369C19.8162 7.56231 17.2779 10.048 14.7562 12.5522C14.4176 12.2514 14.09 11.9386 13.7588 11.6313Z" fill="white"/>
<path d="M15.3994 13.1962C17.6904 10.9283 20.0082 8.68707 22.2928 6.41174C24.6345 8.58004 26.9551 10.7696 29.2913 12.9425C28.9711 13.2617 28.651 13.581 28.3317 13.9021C26.3332 12.0318 24.3254 10.1726 22.3287 8.30047C20.3413 10.2344 18.3677 12.184 16.3885 14.1272C16.0564 13.8199 15.7325 13.5025 15.3994 13.1962Z" fill="white"/>
<path d="M85.1207 10.0304C85.8782 9.73881 86.728 10.3302 86.8719 11.0924C87.0897 11.8702 86.6403 12.8233 85.821 13.0069C85.1281 13.185 84.4204 12.672 84.234 12.0114C83.9655 11.2603 84.3521 10.3035 85.1207 10.0304Z" fill="white"/>
<path d="M117.11 10.0896C118.213 10.0536 119.354 10.1182 120.369 10.5878C121.832 11.2309 122.931 12.5328 123.527 13.9943C124.085 15.407 124.179 16.9783 123.934 18.4675C123.661 20.1043 122.826 21.6637 121.556 22.7395C120.008 24.0359 117.811 24.2878 115.896 23.8255C114.463 23.4869 113.224 22.5291 112.444 21.2927C111.34 19.6485 111.059 17.5716 111.327 15.6395C111.542 14.166 112.23 12.7552 113.312 11.7236C114.299 10.7059 115.693 10.1117 117.11 10.0896ZM117.148 10.7742C116.429 10.9154 115.836 11.4228 115.469 12.042C114.904 12.9434 114.691 14.0091 114.568 15.0517C114.473 16.0888 114.412 17.1333 114.506 18.1722C114.567 19.2527 114.721 20.3452 115.139 21.3509C115.417 22.0004 115.814 22.65 116.454 22.9979C116.988 23.3023 117.629 23.3051 118.223 23.2313C118.982 23.0947 119.574 22.507 119.932 21.851C120.492 20.8166 120.69 19.6328 120.775 18.4721C120.782 17.7921 120.873 17.113 120.799 16.4339C120.79 15.4024 120.717 14.3616 120.453 13.3614C120.222 12.6029 119.895 11.8279 119.28 11.3001C118.705 10.7954 117.889 10.6238 117.148 10.7742Z" fill="white"/>
<path d="M29.5553 13.6806C30.7465 12.5466 31.8897 11.3628 33.0578 10.2048C36.5114 13.4831 39.9751 16.7494 43.437 20.0185C43.1196 20.3349 42.8013 20.6505 42.4885 20.9716C39.3477 18.0255 36.2208 15.0637 33.0966 12.1C29.9964 15.1338 26.9404 18.2128 23.855 21.2622C23.533 20.943 23.1999 20.6367 22.8687 20.3276C25.1006 18.115 27.3335 15.9033 29.5553 13.6806Z" fill="white"/>
<path d="M56.1924 10.2545C58.3201 10.2545 60.4469 10.2545 62.5736 10.2545C62.5727 10.3818 62.5727 10.5092 62.5736 10.6365C62.0938 10.6365 61.5236 10.5848 61.1592 10.9631C60.8132 11.3101 60.851 11.8369 60.8353 12.2881C60.8362 15.488 60.8316 18.6878 60.8381 21.8877C60.8602 22.2955 60.8307 22.7993 61.1952 23.0752C61.5716 23.4138 62.1049 23.3566 62.5736 23.3575C62.5727 23.4802 62.5727 23.6029 62.5736 23.7257C60.4469 23.7257 58.3201 23.7257 56.1924 23.7257C56.1924 23.6029 56.1924 23.4811 56.1924 23.3584C56.6611 23.3557 57.1999 23.4092 57.5755 23.0669C57.9446 22.7061 57.8846 22.1442 57.9224 21.6727C57.939 19.437 57.9242 17.2005 57.9289 14.9648C57.9187 13.9499 57.9538 12.9331 57.904 11.919C57.8744 11.5915 57.88 11.2086 57.6013 10.9797C57.2369 10.5987 56.6759 10.6291 56.1924 10.6356C56.1924 10.5083 56.1924 10.3818 56.1924 10.2545Z" fill="white"/>
<path d="M77.8897 10.2545C79.1298 10.2545 80.3708 10.2545 81.6109 10.2545C81.6109 13.9139 81.6127 17.5732 81.6099 21.2326C81.6155 21.6395 81.5915 22.0648 81.7502 22.4487C81.8932 22.7864 82.2909 22.8408 82.6083 22.9026C82.6083 23.018 82.6092 23.1333 82.611 23.2486C81.454 23.4848 80.3025 23.7469 79.1482 23.9932C79.151 23.5079 79.1528 23.0235 79.1464 22.5391C78.7422 23.0346 78.3418 23.5863 77.7291 23.8336C76.7336 24.2331 75.5267 23.889 74.8292 23.0908C73.9286 22.0907 73.5928 20.7039 73.5928 19.3863C73.5586 18.0945 73.8207 16.764 74.5164 15.6605C75.142 14.6705 76.3414 14.008 77.5252 14.2193C78.2062 14.3208 78.7109 14.8319 79.151 15.32C79.1455 14.2257 79.1584 13.1314 79.1455 12.0381C79.1187 11.6653 79.1464 11.2307 78.865 10.9428C78.6223 10.666 78.2219 10.6956 77.8897 10.6623C77.8888 10.5267 77.8878 10.3902 77.8897 10.2545ZM77.2697 15.1862C76.6985 15.3726 76.5167 16.024 76.37 16.5407C76.1126 17.8436 76.1431 19.1879 76.2602 20.5055C76.3258 21.1099 76.4651 21.7225 76.776 22.2521C76.932 22.5206 77.1857 22.7725 77.5132 22.7882C78.0309 22.8482 78.4636 22.469 78.7413 22.0741C78.9305 21.7936 79.1842 21.5048 79.1528 21.1431C79.1492 19.819 79.1482 18.4959 79.1528 17.1728C79.1501 16.8628 79.1971 16.5241 78.9997 16.2584C78.6592 15.6485 78.0299 15.022 77.2697 15.1862Z" fill="white"/>
<path d="M184.706 10.2548C185.825 10.2548 186.944 10.2548 188.064 10.2548C189.469 10.2594 190.881 10.2169 192.281 10.3775C193.032 10.4605 193.773 10.7493 194.319 11.2845C194.96 11.9331 195.353 12.8447 195.308 13.7637C195.306 14.584 194.876 15.383 194.203 15.8481C193.685 16.2254 193.069 16.4257 192.464 16.6148C193.169 16.8344 193.897 17.03 194.524 17.436C195.278 17.9222 195.8 18.7693 195.854 19.6707C195.879 20.1856 195.873 20.7189 195.685 21.2061C195.396 22.0365 194.733 22.6916 193.963 23.0883C193.112 23.5312 192.145 23.6853 191.197 23.7259C189.033 23.7259 186.869 23.7259 184.706 23.7259C184.704 23.6041 184.704 23.4832 184.705 23.3624C185.17 23.3411 185.719 23.3993 186.08 23.0394C186.411 22.7525 186.386 22.2773 186.399 21.8796C186.396 18.5884 186.4 15.2972 186.396 12.006C186.383 11.6591 186.384 11.2596 186.118 10.9975C185.752 10.6248 185.187 10.6487 184.705 10.6312C184.704 10.5057 184.704 10.3802 184.706 10.2548ZM189.26 11.0169C189.256 12.1472 189.257 13.2765 189.259 14.4068C189.271 15.0545 189.19 15.7004 189.217 16.3481C189.95 16.3435 190.752 16.3242 191.364 15.8647C192.038 15.4015 192.328 14.5526 192.306 13.7619C192.344 12.9767 192.146 12.113 191.515 11.5936C190.896 11.0593 190.033 11.0455 189.26 11.0169ZM189.217 17.1121C189.21 18.6715 189.235 20.2326 189.199 21.792C189.205 22.0651 189.228 22.3529 189.37 22.5947C189.511 22.841 189.801 22.9647 190.078 22.9711C190.864 23.0016 191.677 22.6371 192.115 21.971C192.637 21.1913 192.742 20.193 192.56 19.2869C192.436 18.5534 192.067 17.8004 191.375 17.4544C190.705 17.1407 189.943 17.113 189.217 17.1121Z" fill="white"/>
<path d="M216.26 10.2545C217.388 10.2545 218.515 10.2545 219.644 10.2545C219.648 13.1979 219.637 16.1403 219.649 19.0836C220.35 18.3289 221.007 17.5354 221.712 16.7843C221.997 16.4623 222.333 16.1366 222.406 15.6928C222.464 15.4621 222.399 15.1955 222.207 15.0469C221.988 14.8864 221.711 14.8559 221.459 14.7886C221.456 14.6742 221.456 14.5607 221.46 14.4463C222.72 14.4481 223.98 14.4481 225.241 14.4463C225.238 14.5597 225.238 14.6732 225.242 14.7867C224.84 14.8458 224.426 14.9408 224.113 15.2148C223.276 15.9198 222.57 16.7594 221.84 17.5695C222.783 19.1325 223.69 20.7177 224.677 22.254C224.981 22.7384 225.309 23.316 225.942 23.387C225.938 23.4987 225.937 23.6122 225.938 23.7247C224.506 23.7266 223.074 23.7257 221.643 23.7257C221.641 23.6112 221.641 23.4977 221.643 23.3843C221.845 23.3483 222.111 23.3095 222.181 23.0752C222.208 22.7578 221.999 22.4883 221.863 22.2198C221.303 21.2907 220.741 20.3634 220.181 19.4352C220 19.6299 219.822 19.8264 219.644 20.0229C219.68 20.9761 219.551 21.9467 219.761 22.8869C219.856 23.2394 220.258 23.3187 220.567 23.3815C220.565 23.4959 220.565 23.6103 220.567 23.7257C219.131 23.7257 217.696 23.7257 216.26 23.7257C216.258 23.6112 216.258 23.4968 216.26 23.3833C216.578 23.3123 216.985 23.2126 217.078 22.8482C217.214 22.1958 217.177 21.5251 217.184 20.8635C217.183 18.0346 217.183 15.2056 217.184 12.3767C217.172 11.9403 217.178 11.49 217.041 11.0711C216.918 10.7537 216.546 10.7002 216.262 10.6153C216.259 10.4944 216.258 10.3745 216.26 10.2545Z" fill="white"/>
<path d="M6.4554 15.2195C8.00089 13.6528 9.58052 12.123 11.1343 10.5646C14.5898 13.8392 18.059 17.1018 21.5135 20.3782C21.1961 20.6965 20.8787 21.0139 20.5604 21.3313C17.4261 18.3723 14.289 15.4142 11.162 12.4468C9.32217 14.2682 7.47681 16.0831 5.65174 17.9193C4.3886 19.1289 3.18819 20.4022 1.9195 21.6063C1.59749 21.2935 1.26624 20.9927 0.942383 20.6827C2.01085 19.5985 3.10976 18.5448 4.18191 17.4644C4.93667 16.7133 5.67943 15.9484 6.4554 15.2195Z" fill="white"/>
<path d="M24.5913 21.8289C27.4433 19.0203 30.2926 16.208 33.1492 13.4039C33.4334 13.5958 33.6566 13.8653 33.9122 14.0922C36.5603 16.5853 39.1983 19.0895 41.8565 21.5715C41.5363 21.8944 41.2143 22.2155 40.8923 22.5375C38.3319 20.1063 35.7511 17.6962 33.1907 15.265C30.6552 17.7618 28.115 20.2548 25.5878 22.7618C25.2483 22.4591 24.9226 22.1408 24.5913 21.8289Z" fill="white"/>
<path d="M11.2337 13.7332C14.1263 16.4744 17.0337 19.2 19.93 21.9367C19.608 22.2532 19.2952 22.5789 18.9649 22.8852C16.3952 20.4623 13.8237 18.0421 11.254 15.62C8.7259 18.1223 6.18207 20.608 3.653 23.1104C3.33837 22.793 2.97852 22.5198 2.69434 22.1738C4.75191 20.0775 6.88146 18.0531 8.95565 15.9734C9.72701 15.238 10.4624 14.4676 11.2337 13.7332Z" fill="white"/>
<path d="M66.8511 15.667C67.4776 14.9316 68.2767 14.1704 69.3119 14.1861C70.1783 14.1141 70.97 14.7222 71.2782 15.5055C71.5577 16.2104 71.5402 16.9855 71.555 17.731C71.555 19.1464 71.5531 20.5618 71.555 21.9781C71.566 22.3121 71.5808 22.6563 71.698 22.9728C71.8438 23.2625 72.1935 23.3151 72.4777 23.3824C72.4767 23.4959 72.4767 23.6103 72.4777 23.7257C71.066 23.7257 69.6542 23.7266 68.2425 23.7248C68.2407 23.6122 68.2398 23.4996 68.2407 23.3871C68.4963 23.3105 68.7869 23.221 68.9179 22.9635C69.0794 22.6314 69.0711 22.2457 69.0923 21.884C69.0923 20.2859 69.0988 18.6869 69.0886 17.0879C69.0545 16.6349 69.1071 16.1145 68.7915 15.7445C68.5775 15.4871 68.1936 15.4622 67.9048 15.5941C67.4518 15.7943 67.1584 16.2206 66.9167 16.634C66.8308 16.7668 66.8511 16.9301 66.8456 17.0805C66.8539 18.7441 66.8456 20.4086 66.8493 22.0722C66.8631 22.3786 66.8807 22.6978 67.0043 22.9829C67.1298 23.2404 67.4223 23.3215 67.6788 23.3824C67.6779 23.4959 67.6788 23.6103 67.6797 23.7257C66.268 23.7257 64.8563 23.7266 63.4446 23.7248C63.4428 23.6103 63.4418 23.4959 63.4418 23.3815C63.75 23.3169 64.1265 23.2348 64.2612 22.911C64.3488 22.6083 64.3599 22.2891 64.3682 21.9763C64.3664 20.285 64.3673 18.5928 64.3673 16.9015C64.3664 16.3719 64.395 15.8331 64.2667 15.3145C64.1726 14.9482 63.7565 14.8744 63.4465 14.7868C63.4437 14.6723 63.4418 14.5589 63.4409 14.4454C64.5777 14.45 65.7144 14.4463 66.8511 14.4463C66.8475 14.8532 66.8475 15.2601 66.8511 15.667Z" fill="white"/>
<path d="M90.1562 14.9475C91.018 14.3718 92.0828 14.1402 93.1106 14.1918C93.7953 14.2084 94.491 14.4539 94.9717 14.9549C95.4183 15.3544 95.7172 15.9237 95.7181 16.5308C95.7818 18.0357 95.7348 19.5434 95.7495 21.0501C95.7569 21.4755 95.7089 21.9101 95.8224 22.3271C95.8556 22.5006 96.0669 22.5236 96.1896 22.6159C96.3262 22.4849 96.4591 22.3493 96.5892 22.2109C96.6713 22.2893 96.7525 22.3686 96.8374 22.448C96.4932 22.9988 96.0752 23.5884 95.4183 23.7776C94.8407 23.9261 94.1265 23.8957 93.6975 23.4279C93.4188 23.1465 93.345 22.7423 93.2592 22.3723C92.6945 22.9158 92.0763 23.4417 91.329 23.7121C90.7864 23.9021 90.1359 23.9381 89.6441 23.5976C88.9936 23.1658 88.7556 22.2957 88.9198 21.5576C89.0509 20.7881 89.5694 20.1487 90.1802 19.691C91.1426 18.9612 92.2147 18.3946 93.286 17.8429C93.2546 17.1057 93.3459 16.3491 93.166 15.6266C92.8588 14.8211 91.7082 14.7381 91.1241 15.2778C90.9949 15.4033 90.887 15.6026 90.9765 15.7816C91.1324 16.135 91.4535 16.4053 91.5264 16.7984C91.6685 17.483 91.0457 18.1834 90.35 18.1335C89.6727 18.1677 89.0398 17.5753 89.0352 16.899C89.0306 16.1082 89.5177 15.3812 90.1562 14.9475ZM91.3262 20.8748C91.2311 21.4137 91.5559 22.1832 92.1907 22.1601C92.6244 22.1896 92.9806 21.9018 93.2878 21.6333C93.2777 20.5989 93.2906 19.5646 93.2813 18.5294C92.426 19.0848 91.5338 19.8248 91.3262 20.8748Z" fill="white"/>
<path d="M102.8 14.3124C103.526 14.067 104.424 14.1482 104.978 14.723C105.602 15.2978 105.747 16.1855 105.77 16.9947C105.803 18.3455 105.777 19.6972 105.786 21.0489C105.795 21.6699 105.735 22.3047 105.904 22.91C106.017 23.2467 106.406 23.3141 106.709 23.3824C106.707 23.4959 106.707 23.6103 106.709 23.7256C105.297 23.7256 103.885 23.7265 102.473 23.7247C102.472 23.6121 102.471 23.4995 102.472 23.387C102.728 23.3095 103.021 23.22 103.151 22.9607C103.301 22.6544 103.297 22.2991 103.321 21.9661C103.33 20.5544 103.321 19.1427 103.325 17.731C103.319 17.1866 103.34 16.633 103.219 16.0997C103.121 15.7241 102.739 15.427 102.343 15.5313C101.744 15.6706 101.358 16.2288 101.098 16.7474C101.054 18.1794 101.092 19.6151 101.08 21.0489C101.095 21.6736 101.016 22.3185 101.209 22.9247C101.315 23.2181 101.632 23.3215 101.91 23.3814C101.909 23.4959 101.909 23.6103 101.911 23.7256C100.499 23.7256 99.0873 23.7265 97.6765 23.7247C97.6737 23.6103 97.6728 23.4959 97.6728 23.3824C97.981 23.3169 98.362 23.2338 98.494 22.9053C98.5798 22.6036 98.5909 22.2853 98.5992 21.9734C98.5973 20.2831 98.5982 18.5927 98.5982 16.9024C98.5964 16.3737 98.625 15.8358 98.4986 15.3181C98.4063 14.9481 97.9883 14.8753 97.6774 14.7867C97.6737 14.6723 97.6719 14.5588 97.6719 14.4453C98.8086 14.4499 99.9454 14.4462 101.082 14.4462C101.078 14.8531 101.078 15.26 101.082 15.6669C101.567 15.1207 102.09 14.5532 102.8 14.3124Z" fill="white"/>
<path d="M136.314 14.7934C137.039 14.249 138.011 14.0441 138.889 14.2776C139.616 14.4815 140.189 15.0305 140.599 15.6441C141.185 16.5686 141.341 17.685 141.394 18.7572C139.846 18.7581 138.298 18.7572 136.751 18.7581C136.804 19.8718 137.063 21.0584 137.85 21.8952C138.294 22.3962 139.043 22.6435 139.683 22.3962C140.348 22.1702 140.73 21.5317 141.083 20.967C141.183 21.0565 141.287 21.1469 141.393 21.2374C141.06 21.9469 140.674 22.6537 140.094 23.1934C138.863 24.3496 136.681 24.2564 135.569 22.9785C134.511 21.7513 134.3 20.0351 134.424 18.4749C134.515 17.0595 135.151 15.6441 136.314 14.7934ZM137.244 15.3534C136.754 16.1709 136.706 17.1536 136.692 18.0827C137.528 18.0836 138.363 18.0827 139.2 18.0827C139.151 17.268 139.222 16.4164 138.931 15.6385C138.777 15.2722 138.502 14.8229 138.044 14.8635C137.696 14.822 137.406 15.0702 137.244 15.3534Z" fill="white"/>
<path d="M147.238 14.7333C147.631 14.4048 148.127 14.1427 148.656 14.1889C149.162 14.1944 149.546 14.6705 149.599 15.1475C149.644 15.6227 149.636 16.1551 149.323 16.5463C149.094 16.8453 148.677 16.9708 148.319 16.8582C147.94 16.7659 147.726 16.407 147.416 16.2022C147.146 16.0379 146.827 16.2391 146.645 16.4448C146.119 17.0464 146.026 17.8805 145.925 18.6417C145.871 19.7517 145.925 20.8636 145.904 21.9754C145.914 22.3555 145.858 22.8012 146.147 23.102C146.361 23.34 146.705 23.3345 146.999 23.3714C146.997 23.4895 146.997 23.6076 146.999 23.7257C145.505 23.7257 144.012 23.7266 142.519 23.7248C142.515 23.6104 142.514 23.495 142.515 23.3815C142.847 23.3225 143.275 23.2155 143.327 22.815C143.454 22.1415 143.442 21.4495 143.441 20.7667C143.438 19.2618 143.446 17.756 143.437 16.2511C143.396 15.8765 143.444 15.4622 143.234 15.1319C143.083 14.8846 142.767 14.868 142.519 14.7886C142.515 14.6742 142.513 14.5589 142.514 14.4454C143.624 14.4482 144.735 14.4491 145.846 14.4445C145.886 15.1411 145.902 15.8377 145.891 16.5353C146.277 15.8931 146.67 15.2352 147.238 14.7333Z" fill="white"/>
<path d="M151.217 15.0295C151.689 14.402 152.504 14.1289 153.269 14.1898C153.851 14.1898 154.35 14.5146 154.856 14.7591C155.116 14.6576 155.292 14.4417 155.433 14.2111C155.504 14.2092 155.645 14.2055 155.715 14.2037C155.809 15.2564 155.777 16.3157 155.865 17.3694C155.784 17.3722 155.622 17.3795 155.542 17.3832C155.224 16.6506 154.917 15.8608 154.276 15.3459C153.91 15.0498 153.399 14.8228 152.932 15.0009C152.601 15.1559 152.342 15.5111 152.379 15.8866C152.382 16.1431 152.545 16.3581 152.717 16.5344C153.458 17.3094 154.404 17.8436 155.173 18.5892C155.681 19.0422 156.109 19.6235 156.229 20.3072C156.431 21.467 156.083 22.8086 155.093 23.52C154.445 23.9887 153.578 24.1225 152.819 23.8715C152.426 23.7746 152.068 23.5735 151.679 23.4702C151.384 23.4093 151.252 23.7442 151.117 23.937C151.046 23.9398 150.903 23.9453 150.831 23.9472C150.753 22.8418 150.721 21.7327 150.662 20.6265C150.763 20.6274 150.869 20.6292 150.975 20.632C151.224 21.3932 151.575 22.1572 152.196 22.6886C152.57 23.007 153.042 23.2893 153.553 23.2312C153.914 23.1933 154.221 22.9092 154.325 22.565C154.447 22.135 154.331 21.6451 154.016 21.324C153.522 20.7962 152.905 20.4105 152.354 19.9483C151.82 19.5008 151.249 19.0588 150.908 18.4369C150.315 17.3777 150.447 15.9678 151.217 15.0295Z" fill="white"/>
<path d="M159.473 14.7933C160.199 14.248 161.173 14.0441 162.052 14.2784C162.755 14.4759 163.313 15.0009 163.72 15.5877C164.338 16.5205 164.5 17.6628 164.553 18.7571C163.005 18.758 161.457 18.7571 159.91 18.758C159.951 19.6429 160.121 20.549 160.576 21.3212C160.869 21.8075 161.285 22.2716 161.852 22.4257C162.408 22.6028 163.041 22.4183 163.458 22.0197C163.776 21.7152 164.012 21.3397 164.242 20.9669C164.341 21.0564 164.447 21.1469 164.552 21.2373C164.219 21.9468 163.832 22.6545 163.252 23.1943C161.988 24.3818 159.726 24.2452 158.643 22.8787C157.62 21.5999 157.447 19.8671 157.599 18.2893C157.727 16.9367 158.362 15.6071 159.473 14.7933ZM160.403 15.3552C159.914 16.1727 159.866 17.1544 159.851 18.0817C160.687 18.0845 161.523 18.0826 162.36 18.0826C162.312 17.2661 162.381 16.4126 162.088 15.6338C161.935 15.2722 161.664 14.8265 161.211 14.8634C160.859 14.8191 160.565 15.0682 160.403 15.3552Z" fill="white"/>
<path d="M166.747 15.1541C167.388 14.6051 168.223 14.3375 169.047 14.2185C169.848 14.1446 170.724 14.1566 171.421 14.6171C171.814 14.8976 172.174 15.2509 172.388 15.6901C172.625 16.1828 172.576 16.742 172.606 17.2716C172.613 18.5606 172.607 19.8505 172.608 21.1395C172.613 21.5325 172.575 21.9348 172.68 22.3205C172.71 22.4986 172.922 22.5226 173.048 22.6158C173.185 22.4838 173.319 22.3482 173.45 22.2098C173.53 22.2901 173.611 22.3694 173.697 22.4497C173.343 23.0144 172.911 23.6187 172.229 23.7922C171.679 23.9149 171.018 23.8891 170.597 23.4674C170.29 23.1851 170.204 22.7606 170.119 22.3722C169.554 22.9147 168.937 23.4407 168.19 23.711C167.668 23.8928 167.047 23.938 166.561 23.6344C166.023 23.3142 165.741 22.6804 165.729 22.0705C165.729 21.4993 165.911 20.9263 166.256 20.4687C166.62 19.9714 167.127 19.6078 167.633 19.2664C168.439 18.7377 169.289 18.2801 170.146 17.8391C170.145 17.3076 170.136 16.7752 170.122 16.2437C170.104 15.8931 170.061 15.4955 169.773 15.2546C169.341 14.8219 168.629 14.8662 168.132 15.1568C167.936 15.2842 167.73 15.5241 167.832 15.7723C167.986 16.133 168.317 16.4061 168.388 16.8066C168.522 17.4875 167.904 18.1805 167.212 18.1334C166.534 18.1703 165.897 17.5752 165.895 16.8961C165.887 16.2225 166.252 15.5914 166.747 15.1541ZM168.443 20.1605C168.221 20.5619 168.068 21.0574 168.247 21.5049C168.355 21.8112 168.588 22.1424 168.946 22.1544C169.416 22.2273 169.819 21.9284 170.148 21.6322C170.136 20.5979 170.15 19.5635 170.141 18.5292C169.472 18.9481 168.853 19.4787 168.443 20.1605Z" fill="white"/>
<path d="M175.387 14.9253C175.866 14.3625 176.635 14.1373 177.355 14.1899C177.936 14.1918 178.432 14.5156 178.937 14.7592C179.196 14.6586 179.373 14.4437 179.514 14.2111C179.585 14.2093 179.726 14.2056 179.797 14.2038C179.891 15.2565 179.858 16.3158 179.946 17.3704C179.865 17.3732 179.702 17.3787 179.621 17.3815C179.306 16.6489 178.998 15.8618 178.359 15.347C177.992 15.0489 177.476 14.821 177.009 15.0028C176.488 15.2205 176.261 15.9559 176.666 16.385C177.635 17.4848 179.049 18.1159 179.909 19.3246C180.362 19.9871 180.438 20.8332 180.31 21.6083C180.191 22.22 179.931 22.8253 179.477 23.2645C178.861 23.8771 177.913 24.1475 177.072 23.915C176.621 23.8236 176.214 23.6013 175.776 23.4739C175.473 23.3955 175.334 23.7406 175.197 23.938C175.126 23.9399 174.984 23.9445 174.913 23.9463C174.834 22.841 174.803 21.7328 174.743 20.6265C174.845 20.6275 174.949 20.6293 175.056 20.6311C175.305 21.3905 175.653 22.1536 176.272 22.6841C176.648 23.0052 177.123 23.2912 177.638 23.2313C178.113 23.1796 178.469 22.7136 178.451 22.2458C178.47 21.8823 178.309 21.5271 178.053 21.2761C177.548 20.7585 176.932 20.371 176.384 19.9059C175.831 19.4437 175.242 18.9759 174.924 18.3115C174.384 17.2255 174.574 15.8258 175.387 14.9253Z" fill="white"/>
<path d="M198.347 15.1975C198.993 14.618 199.851 14.3403 200.697 14.2176C201.497 14.1447 202.37 14.1567 203.064 14.6152C203.459 14.8948 203.82 15.2491 204.035 15.6892C204.271 16.1801 204.223 16.7393 204.254 17.2679C204.259 18.7461 204.255 20.2242 204.255 21.7024C204.254 21.9127 204.271 22.1259 204.329 22.3298C204.365 22.5014 204.572 22.5235 204.697 22.6149C204.833 22.4839 204.965 22.3491 205.097 22.2098C205.177 22.2901 205.258 22.3694 205.344 22.4497C204.992 23.0135 204.559 23.6169 203.878 23.7913C203.329 23.914 202.67 23.89 202.248 23.4711C201.939 23.1888 201.852 22.7625 201.766 22.3722C201.2 22.9157 200.581 23.4425 199.833 23.7129C199.331 23.8854 198.742 23.9352 198.265 23.6667C197.863 23.4508 197.581 23.0513 197.46 22.6186C197.279 21.993 197.411 21.3084 197.722 20.7474C198.094 20.0895 198.722 19.6383 199.339 19.2277C200.127 18.7193 200.951 18.2672 201.79 17.8455C201.796 17.3122 201.783 16.7789 201.77 16.2456C201.752 15.8913 201.707 15.4909 201.415 15.25C200.998 14.8348 200.324 14.869 199.835 15.1236C199.615 15.2473 199.376 15.4964 199.477 15.7677C199.632 16.1312 199.965 16.4062 200.036 16.8094C200.168 17.494 199.545 18.1851 198.851 18.1334C198.209 18.1629 197.608 17.6306 197.548 16.9939C197.498 16.3093 197.855 15.6533 198.347 15.1975ZM199.918 20.5398C199.7 21.0648 199.837 21.7577 200.326 22.0797C200.834 22.3141 201.41 22.0271 201.764 21.6498C201.827 20.6136 201.776 19.5691 201.788 18.5293C201.015 19.0247 200.257 19.6614 199.918 20.5398Z" fill="white"/>
<path d="M211.304 14.3135C212.03 14.0672 212.93 14.1475 213.484 14.7232C214.107 15.2962 214.254 16.181 214.278 16.9875C214.314 18.6806 214.28 20.3737 214.295 22.0668C214.31 22.3732 214.327 22.6887 214.439 22.9775C214.586 23.2635 214.933 23.3152 215.216 23.3826C215.213 23.4961 215.213 23.6105 215.216 23.7258C213.803 23.7258 212.392 23.7267 210.981 23.7249C210.977 23.6123 210.976 23.4997 210.978 23.3872C211.301 23.3097 211.653 23.139 211.732 22.7828C211.914 21.8795 211.8 20.9513 211.832 20.0379C211.815 18.8707 211.869 17.7025 211.798 16.5372C211.783 16.1432 211.634 15.6727 211.219 15.5426C210.725 15.4189 210.27 15.764 209.988 16.1349C209.81 16.3923 209.556 16.6498 209.586 16.9865C209.588 18.4638 209.587 19.9419 209.587 21.4191C209.588 21.9229 209.556 22.4405 209.716 22.9258C209.824 23.2165 210.139 23.3263 210.417 23.3826C210.414 23.4961 210.415 23.6105 210.418 23.7258C209.006 23.7258 207.595 23.7267 206.183 23.7249C206.179 23.6105 206.178 23.4961 206.18 23.3816C206.504 23.3171 206.919 23.2165 207.02 22.8502C207.147 22.2578 207.096 21.6479 207.106 21.0473C207.106 19.6642 207.105 18.282 207.106 16.8998C207.104 16.3702 207.132 15.8314 207.005 15.3137C206.91 14.9483 206.494 14.8745 206.185 14.786C206.18 14.6725 206.177 14.559 206.179 14.4455C207.315 14.4501 208.452 14.4473 209.59 14.4464C209.585 14.8533 209.585 15.2602 209.59 15.6671C210.073 15.1218 210.595 14.5562 211.304 14.3135Z" fill="white"/>
<path d="M83.3164 14.4483C84.4781 14.4455 85.6397 14.451 86.8014 14.4446C86.7958 16.9543 86.8014 19.464 86.7995 21.9737C86.8198 22.3298 86.818 22.71 86.9896 23.0329C87.1566 23.306 87.5109 23.3272 87.7951 23.378C87.7933 23.4933 87.7923 23.6096 87.7933 23.7258C86.3022 23.7258 84.8111 23.7258 83.3201 23.7258C83.3182 23.6096 83.3183 23.4942 83.3192 23.3798C83.6467 23.3401 84.0259 23.2525 84.193 22.9332C84.2954 22.6583 84.3166 22.3593 84.3194 22.0678C84.3157 20.0683 84.3194 18.0679 84.3175 16.0685C84.2991 15.7428 84.2834 15.3903 84.1044 15.108C83.9115 14.8801 83.5904 14.8561 83.3219 14.7823C83.3201 14.6992 83.3183 14.5313 83.3164 14.4483Z" fill="white"/>
<path d="M124.819 14.4465C126.295 14.4465 127.771 14.4502 129.246 14.4456C129.243 14.5572 129.241 14.6688 129.241 14.7814C128.9 14.7989 128.549 14.9724 128.483 15.3369C128.434 15.8001 128.638 16.2411 128.783 16.6711C129.256 17.8502 129.698 19.0424 130.186 20.216C130.204 20.216 130.241 20.2178 130.26 20.2188C130.547 19.5535 130.76 18.8587 131.025 18.1843C131.32 17.3649 131.667 16.553 131.797 15.6866C131.85 15.4005 131.727 15.0693 131.464 14.9281C131.282 14.8488 131.085 14.8202 130.894 14.7833C130.89 14.6707 130.889 14.5581 130.889 14.4456C131.786 14.4492 132.685 14.4492 133.583 14.4456C133.578 14.5581 133.577 14.6716 133.577 14.7851C133.291 14.8838 132.992 15.0121 132.84 15.2917C132.499 15.8803 132.272 16.5253 132.025 17.1573C131.169 19.44 130.29 21.7135 129.44 23.9981C129.304 23.999 129.17 23.999 129.037 23.9999C128.263 22.0014 127.473 20.0093 126.692 18.0136C126.339 17.1453 126.044 16.2503 125.601 15.4227C125.453 15.0979 125.152 14.8977 124.826 14.7851C124.824 14.7002 124.821 14.5314 124.819 14.4465Z" fill="white"/>
<path d="M29.0398 20.6476C30.4044 19.3061 31.7727 17.9663 33.1392 16.6266C35.4782 18.7995 37.8034 20.9872 40.1387 23.1638C39.8111 23.4775 39.478 23.7857 39.1579 24.1068C37.1667 22.2337 35.1562 20.381 33.1651 18.5079C31.1795 20.4428 29.2077 22.3915 27.2248 24.3291C26.8881 24.0219 26.5596 23.7063 26.2339 23.388C27.1907 22.4967 28.0977 21.5537 29.0398 20.6476Z" fill="white"/>
<path d="M4.30762 23.7553C6.59679 21.4855 8.91825 19.2498 11.201 16.9727C13.5455 19.1363 15.8596 21.3332 18.2023 23.4997C17.8858 23.8263 17.5619 24.1456 17.2408 24.4676C15.2368 22.5955 13.2336 20.7215 11.2222 18.8577C9.26702 20.8165 7.26296 22.7265 5.30873 24.6863C4.97195 24.379 4.63517 24.0727 4.30762 23.7553Z" fill="white"/>
<path d="M0 21.6112C3.76361 24.9255 7.53553 28.2305 11.2936 31.5512C14.7537 28.3606 18.2119 25.1681 21.6636 21.9683C21.6276 22.5846 21.7171 23.1991 21.6996 23.8155C18.2359 26.995 14.7804 30.1829 11.3241 33.3708C7.63149 30.1119 3.95645 26.8327 0.265732 23.571C0.175309 23.4815 0.0461339 23.3966 0.0636648 23.2508C0.0489019 22.7046 0.0110722 22.1584 0 21.6112Z" fill="white"/>
<path d="M22.7334 21.7725C26.4758 25.0517 30.2579 28.2866 34.0178 31.5455C37.3662 28.3023 40.7183 25.0618 44.0565 21.8094C44.0492 22.4211 44.1101 23.031 44.1248 23.6418C40.7875 26.9026 37.4123 30.1246 34.0676 33.377C30.3197 30.0941 26.557 26.8278 22.8054 23.5486C22.7832 22.9563 22.7731 22.3639 22.7334 21.7725Z" fill="white"/>
<path d="M34.1775 35.0757C37.548 31.7144 40.8697 28.306 44.2079 24.9124C44.2338 25.4973 44.2328 26.0842 44.2587 26.6701C40.9213 30.0812 37.5748 33.4831 34.243 36.8989C30.4812 33.6132 26.7305 30.3146 22.966 27.0318C22.9577 26.3896 22.9032 25.7501 22.8848 25.108C26.6456 28.4352 30.4157 31.7503 34.1775 35.0757Z" fill="white"/>
<path d="M0.10498 24.9401C3.87136 28.3198 7.63221 31.707 11.4069 35.0766C14.8789 31.7697 18.3058 28.4149 21.7511 25.0803C21.7262 25.6478 21.836 26.2152 21.7787 26.7827C21.5416 27.1167 21.2085 27.3722 20.9207 27.662C17.7679 30.7539 14.5855 33.8144 11.4383 36.9118C7.95792 33.8163 4.4831 30.7151 1.00552 27.6158C0.725022 27.3538 0.41131 27.124 0.160341 26.8325C0.152037 26.2023 0.114207 25.5712 0.10498 24.9401Z" fill="white"/>
<path d="M34.3411 38.1731C37.6812 34.774 41.0102 31.3647 44.3365 27.9517C44.3872 28.5662 44.4168 29.1816 44.4306 29.7979C41.085 33.1962 37.7338 36.5898 34.3854 39.9862C30.6393 36.7467 26.8747 33.5283 23.1259 30.2916C23.0632 29.6752 23.0798 29.0561 23.0493 28.4388C26.8046 31.6931 30.5867 34.917 34.3411 38.1731Z" fill="white"/>
<path d="M11.5028 38.1666C14.973 34.8366 18.4026 31.4661 21.8387 28.1029C21.8802 28.7229 21.9023 29.3439 21.8977 29.9658C18.4386 33.3077 14.9767 36.6479 11.5277 39.9999C7.77886 36.7051 4.01986 33.4203 0.264554 30.1337C0.236874 29.5118 0.247023 28.89 0.229492 28.269C1.72054 29.6244 3.25773 30.9282 4.76724 32.2633C7.01396 34.2295 9.25792 36.1985 11.5028 38.1666Z" fill="white"/>
</svg>
