<svg width="170" height="40" viewBox="0 0 170 40" fill="none" xmlns="http://www.w3.org/2000/svg">
<path fill-rule="evenodd" clip-rule="evenodd" d="M156.764 21.3035L157.308 22.2363L157.075 38.7562C156.647 39.1449 156.53 39.4559 156.764 39.689L161.739 39.5726C161.817 39.378 161.622 39.1448 161.389 38.9507L161.506 35.6856L161.739 35.6078L163.76 38.8728L163.527 39.689H169.746C169.746 39.689 169.28 38.9507 168.619 38.7562C167.958 37.7455 163.877 30.9044 163.877 30.9044C163.877 30.4769 165.548 27.4449 166.481 26.7064C167.259 26.3955 167.492 26.3955 167.609 26.1234H164.227L163.994 26.2012C163.994 26.2012 165.121 26.9009 164.654 27.5229C164.11 28.0281 161.933 32.0317 161.933 32.0317C161.933 32.0317 161.389 32.2259 161.506 31.4099C161.506 30.7101 161.273 21.7312 161.273 21.7312C161.273 21.7312 160.923 20.0986 159.446 20.6038C158.007 21.2257 156.764 21.3035 156.764 21.3035Z" fill="white"/>
<path fill-rule="evenodd" clip-rule="evenodd" d="M121.586 30.3992V38.4453C122.402 38.5621 125.667 38.3285 126.095 35.6857C127.028 30.477 122.286 30.3992 121.586 30.3992ZM121.469 21.6146L121.702 29.4664C121.702 29.4664 125.084 29.7773 125.201 25.8903C125.434 21.9255 122.946 21.9255 121.819 21.7312C120.808 21.4977 121.469 21.6146 121.469 21.6146ZM116.61 20.6816V20.9925C116.61 20.9925 117.31 21.6145 117.427 21.9254C117.66 22.2363 117.543 38.5619 117.543 38.5619C117.543 38.5619 116.299 39.689 116.727 39.689H125.9C126.095 39.689 128.155 39.0671 129.165 37.4345C130.409 35.491 130.876 32.4204 127.144 29.8939C128.738 28.4556 132.236 22.7418 123.957 20.6815L116.61 20.6816Z" fill="white"/>
<path fill-rule="evenodd" clip-rule="evenodd" d="M148.057 26.7066L148.368 27.5231C148.951 27.1343 149.184 27.1343 149.728 26.7066C150.311 26.3957 150.972 26.2014 151.555 26.2014C152.333 26.2014 153.032 26.5123 153.576 27.0175C154.043 27.4452 154.043 27.834 154.276 28.5726C154.392 29.0778 154.392 30.0884 154.392 31.6043V36.7352C154.392 37.2406 154.159 39.2621 154.937 39.3784V39.573L149.845 39.6894V39.3784C150.661 38.5623 150.428 37.9404 150.428 36.7353V30.9047C150.428 29.7777 150.544 28.6503 150.428 28.3394C150.194 28.0284 150.078 28.0285 149.301 28.0285C148.484 28.0285 148.368 28.6503 148.29 29.1557L148.173 36.7353C148.057 37.7459 148.29 38.4456 148.29 38.7566C148.29 39.0675 148.368 39.3784 148.834 39.4562V39.6894H143.431L143.509 39.3784C144.442 39.2621 144.209 37.9404 144.209 36.7353V29.2721C144.209 28.2617 144.092 27.6395 143.975 27.4453C143.742 27.2123 143.742 27.1344 144.209 27.0177L147.124 26.3958C147.59 26.2014 148.057 26.3181 148.057 26.7066Z" fill="white"/>
<path fill-rule="evenodd" clip-rule="evenodd" d="M137.095 32.9258V37.6293C137.095 37.6293 135.967 38.7564 135.384 37.9402C134.374 36.6185 134.607 31.0211 137.095 32.9258ZM132.003 28.65C133.247 28.4557 134.84 27.9506 135.967 28.7667C137.095 29.6607 136.978 29.6607 136.978 30.3993C136.978 31.099 135.617 31.721 134.257 32.1097C133.013 32.5371 130.409 33.5477 130.759 36.191C131.07 38.8731 133.13 40.5057 136.745 38.7564C136.978 38.5621 137.406 38.2512 137.755 38.7564C138.222 39.262 140.826 40.5834 142.497 38.4455C141.837 38.4455 141.37 38.5622 141.37 37.2405C141.487 35.9967 141.254 29.5829 141.254 29.5829C141.254 29.5829 141.37 26.7066 137.755 26.1237C133.907 26.3955 132.43 28.339 132.003 28.65Z" fill="white"/>
<path fill-rule="evenodd" clip-rule="evenodd" d="M92.9002 32.8481L92.978 37.4347C92.978 37.4347 92.2005 38.5621 91.5397 37.7456C90.4126 36.191 90.4127 33.7422 91.9674 32.537C92.3173 32.226 92.9002 32.8481 92.9002 32.8481ZM88.0414 28.6501C89.1688 28.4558 90.7236 27.9506 91.851 28.7668C92.978 29.6607 92.9002 29.6607 92.9002 30.3994C92.9002 31.099 91.5397 31.721 90.2958 32.1098C88.9356 32.5371 86.3313 33.5478 86.6809 36.1911C87.1086 38.8731 89.0521 40.5058 92.5503 38.7565C92.9002 38.5622 93.3278 38.2513 93.6777 38.7565C94.144 39.262 96.7097 40.5835 98.4197 38.4455C97.7589 38.4455 97.2926 38.5622 97.2926 37.2405C97.4091 35.9968 97.1759 29.3887 97.1759 29.3887C97.1759 29.3887 97.2926 26.5124 93.6776 25.8905C89.8297 26.2013 88.3524 28.3391 88.0414 28.6501Z" fill="white"/>
<path fill-rule="evenodd" clip-rule="evenodd" d="M54.4574 39.2617V39.689H48.899V39.2617C49.5987 39.0671 49.5987 38.251 49.5987 36.4238V23.8689C49.5987 22.7418 49.4821 20.9924 48.7046 20.9924V20.6815H54.6906V20.9147C53.7577 21.4202 53.7577 22.4309 53.7577 23.8689V36.4238C53.7577 37.4345 53.6411 38.8728 54.4574 39.2617Z" fill="white"/>
<path fill-rule="evenodd" clip-rule="evenodd" d="M59.4319 26.3955C59.6652 26.3179 60.0927 26.3179 60.326 26.3955C60.5591 26.6289 60.2092 27.2119 60.7924 27.4449C61.1034 27.6392 61.5697 27.0173 62.0362 26.7064C62.5805 26.3955 63.5911 26.2012 64.174 26.2012C64.8349 26.2012 65.4179 26.3955 65.8455 26.9009C66.3119 27.3283 66.6619 27.5228 66.7784 28.2614V38.1342C66.895 38.8728 66.895 38.9507 67.3225 39.3781V39.689H62.2694V39.3781C62.9302 39.2617 62.8135 37.5513 62.8135 37.0071V31.2931C62.9302 30.2824 62.8135 29.0775 62.8135 28.8443C62.6969 28.5723 62.5803 28.3389 62.4635 28.2614C62.3469 28.028 62.1139 28.028 62.036 28.028C61.3364 28.028 61.1032 27.7559 60.6757 28.8443L60.5589 38.6397C60.5589 38.9507 60.7922 39.2617 61.0254 39.3781V39.689H55.8169V39.2617C56.2444 39.0671 56.4775 38.8729 56.3609 38.0564L56.4775 28.4556C56.4775 27.9504 56.4775 27.6392 56.3609 27.5228C56.011 27.3282 56.011 27.0172 56.2443 27.0172L59.4319 26.3955Z" fill="white"/>
<path fill-rule="evenodd" clip-rule="evenodd" d="M79.6451 21.4204V35.608C79.6451 36.5019 79.5285 37.0073 79.5285 37.2405C79.7619 37.8235 79.451 37.9402 79.995 38.4454L80.1118 38.8731C79.1011 39.0674 78.6346 39.2619 77.6241 39.4561C77.1576 39.4561 77.0408 39.5729 76.6133 39.4561C75.7195 38.7565 74.9032 38.8731 74.2423 39.2619C73.776 39.4561 73.2317 39.6892 72.6486 39.6892C71.1717 39.6892 70.0443 38.9509 69.1503 37.6293C68.4508 36.424 68.1396 35.1025 68.1396 33.3534C68.1396 32.0319 68.4508 30.788 68.8004 29.7774C69.2669 28.7668 69.9277 27.9506 70.6273 27.4451C71.4048 26.8233 72.6486 25.8904 75.3696 26.3956V24.4521C75.3696 23.8691 75.3696 23.3639 75.253 22.4311L74.5922 21.4204L78.4014 20.604C79.1012 20.6039 79.3342 21.1095 79.6451 21.4204ZM75.4861 27.9505C74.3588 27.0174 73.2317 27.756 72.8818 29.2719C72.2988 31.41 72.0655 33.8586 72.5319 36.1131C72.9984 37.9402 74.4754 38.7563 75.4861 37.9402V27.9505Z" fill="white"/>
<path fill-rule="evenodd" clip-rule="evenodd" d="M83.7263 21.2258C84.3871 21.2258 84.9702 21.4204 85.4365 21.8089C85.7474 22.2366 85.9809 22.742 85.9809 23.364C85.9809 23.947 85.7474 24.4522 85.4365 24.8798C84.9702 25.3075 84.3871 25.5016 83.7263 25.5016C83.1433 25.5016 82.5991 25.3074 82.1327 24.8798C81.7052 24.4521 81.5884 23.947 81.5884 23.364C81.5884 22.7421 81.7052 22.2366 82.1327 21.8089C82.5991 21.4204 83.1432 21.2258 83.7263 21.2258ZM86.0973 27.1342V38.0567C86.0973 38.6399 86.0973 39.0673 86.6803 39.3783V39.6893H81.2388V39.3783C81.8217 39.1451 81.8217 38.3287 81.8217 37.0073V27.7561C81.5883 27.523 81.4719 27.3284 81.4719 27.1342L84.1928 26.3956C85.3202 26.1236 85.8643 26.5123 86.0973 27.1342Z" fill="white"/>
<path fill-rule="evenodd" clip-rule="evenodd" d="M103.978 26.7066L104.288 27.5231C104.988 27.1343 105.105 27.1343 105.649 26.7066C106.232 26.3957 106.893 26.2014 107.592 26.2014C108.253 26.2014 108.953 26.5123 109.497 27.0175C109.964 27.4452 110.08 27.834 110.158 28.5726C110.275 29.0778 110.275 30.0884 110.275 31.6043V36.7352C110.275 37.2406 110.08 39.2621 110.858 39.3784V39.573L105.766 39.6894V39.3784C106.582 38.5623 106.349 37.9404 106.349 36.7353V30.9047C106.349 29.7777 106.427 28.6503 106.349 28.3394C106.115 28.0284 105.999 28.0285 105.221 28.0285C104.522 28.0285 104.289 28.6503 104.172 29.1557L104.094 36.7353C103.978 37.7459 104.172 38.4456 104.172 38.7566C104.172 39.0675 104.289 39.3784 104.755 39.4562V39.6894H99.313L99.4298 39.3784C100.363 39.2621 100.129 37.9404 100.129 36.7353V29.2721C100.129 28.2617 100.129 27.6395 99.8964 27.4453C99.7796 27.2123 99.6629 27.1344 100.246 27.0177L103.045 26.3958C103.511 26.2014 103.978 26.3181 103.978 26.7066Z" fill="white"/>
<path fill-rule="evenodd" clip-rule="evenodd" d="M116.61 11.1973C115.716 10.07 115.055 8.74857 114.356 7.54354C114.472 7.42693 114.472 7.31026 114.472 7.23257C117.077 7.23257 116.843 9.25378 116.727 11.1196C116.727 11.1196 116.61 11.1196 116.61 11.1973ZM128.621 8.55427L128.504 11.9358C126.444 13.5684 125.667 11.1973 126.095 9.25377C126.328 8.1265 127.377 6.49415 128.621 8.55427ZM113.578 8.74863L115.599 12.6357C112.879 13.4518 113.112 9.7591 113.578 8.74863ZM72.2982 4.16184C71.2876 4.16184 69.2662 4.16184 68.2557 4.16184C67.1285 4.16184 65.9623 4.16184 64.9517 4.16184C64.8351 4.16184 64.8351 4.16184 64.8351 4.16184C64.7185 4.08402 64.7185 3.96742 64.6407 3.96742C64.5241 3.15118 64.5241 2.52931 64.9517 2.02391C66.5453 0.274825 70.9377 0.274821 72.5313 2.14051C72.9977 2.95681 72.7647 3.53997 72.2982 4.16184ZM86.097 5.28906C86.097 5.98875 85.9806 6.80506 85.9806 7.54354C85.9806 9.05947 85.9806 10.8087 85.9806 12.3247C84.9699 13.2575 83.4929 13.3352 82.832 12.8298C82.5988 12.6356 82.3656 12.4413 82.2489 12.3247C82.0158 11.5083 81.8214 10.6921 82.1324 9.75911C83.4929 9.48705 84.1925 9.17608 84.9699 8.1265C85.3199 7.31026 85.4362 6.61076 84.8532 5.28906H86.097ZM94.9207 13.4518C92.9772 13.2575 92.7829 10.8864 94.6875 10.4978C95.0374 10.4978 95.3873 10.4978 95.6982 10.4978C95.8146 10.6921 95.9313 10.6921 96.1644 10.8087C97.0584 11.8194 96.9419 12.7522 95.6982 13.4518C95.4647 13.4518 95.1537 13.4518 94.9207 13.4518ZM124.423 0.780156C125.201 0.780156 125.9 1.40203 125.9 2.14051C125.9 2.84021 125.201 3.46215 124.423 3.46215C123.607 3.46215 122.946 2.84027 122.946 2.14051C122.946 1.40203 123.607 0.780156 124.423 0.780156ZM56.9445 0.0804611C58.0718 0.0804611 58.9657 0.896758 58.9657 1.82954C58.9657 2.84021 58.0718 3.65645 56.9445 3.65645C55.9339 3.65645 55.001 2.84021 55.001 1.82954C55.001 0.896758 55.934 0.0804611 56.9445 0.0804611ZM48.8983 7.11603C50.2589 5.71657 52.6299 5.40566 54.5734 6.10536L54.4568 5.28906H48.0044V4.27839H60.5593C61.3368 2.52931 61.2202 1.82948 63.1637 0.896695C64.0578 0.58579 65.0683 0.391364 65.9624 0.197C69.1497 -0.230511 75.0191 -0.230511 76.4962 3.03464C76.6128 3.34554 76.7294 3.85088 76.6128 4.27845H105.532V5.28912H103.861V14.7733L104.638 15.5897H99.1186C98.8855 15.5897 99.7794 15.3954 99.7794 15.0844V9.48711C99.1964 9.25384 99.0019 9.37051 98.5356 9.37051C98.4188 9.75911 98.7687 9.75911 98.8855 9.87578C99.8962 12.5189 98.7687 14.9677 95.5815 15.3954C92.8993 15.7841 91.0726 14.0738 91.1893 11.5084C91.3057 9.48711 92.5494 8.43773 94.8038 8.04887C95.8145 7.85451 97.7581 8.04887 99.0018 8.04887C99.1964 7.93239 99.5462 8.04887 99.7793 7.9324V5.40566C99.0018 5.40566 90.1786 5.17251 90.1786 5.40566L90.0618 14.6567C90.0618 15.0844 90.6058 15.2787 90.9558 15.5119V15.5896L85.3199 15.7064C85.2031 15.7064 85.3199 15.5119 85.3199 15.5119C85.8639 15.0843 86.2137 14.7733 85.8639 13.7629C84.9698 13.9571 84.3091 14.1515 83.6094 14.1515C79.1005 14.3847 77.5068 12.1303 77.9733 8.2433C78.9837 7.93239 79.7612 8.2433 80.4609 7.427C81.3549 6.41633 80.8885 5.60003 80.1111 5.28906H76.7292C76.6126 5.28906 76.4961 5.28906 76.4961 5.28906V7.11597C76.4961 7.23257 76.6126 7.42693 76.4961 7.54354C75.602 7.85444 73.8918 7.54354 72.8811 7.6213C72.6479 7.6213 72.5312 7.6213 72.4146 7.54354C72.298 7.23257 72.298 7.11596 72.0648 7.0382C70.8209 6.72724 69.4994 7.85444 70.51 8.74857C71.6373 9.75911 74.1249 9.37044 75.7964 10.1867C77.0401 10.8086 77.7399 11.9358 77.0401 13.1407C76.0296 15.5119 72.2981 16.2893 69.8103 15.7063C68.5666 15.3953 66.8951 14.3846 66.1954 13.957C66.5452 13.0243 67.1284 12.4413 67.4393 11.7026C68.1389 12.9466 70.1602 16.095 72.8811 14.1515C74.0083 13.3352 74.0083 11.9358 72.8811 11.003C71.0542 9.25384 67.4393 11.314 66.4286 8.67088C65.418 5.98882 70.1602 5.17251 72.2981 6.22196C72.6479 6.22196 72.1814 5.60002 72.2981 5.40566V5.28906H64.9516L64.835 14.7733C64.835 15.0843 65.5347 15.3953 65.7678 15.5119C65.7678 15.5896 65.7678 15.7064 65.7678 15.7064H62.9304C61.5699 15.7064 60.2093 15.7841 60.0928 15.5896C60.4427 15.3953 60.6759 15.201 60.7925 14.7733V5.28906H58.5381L58.4213 7.6213L54.4567 7.54354C54.5733 6.61076 53.5625 6.61076 52.9796 7.11597C52.6298 7.54354 52.3966 8.24323 52.7463 8.67081C54.4567 10.8864 59.3154 7.54354 59.8597 11.9358C60.3261 14.7733 56.5946 15.5119 56.5946 15.5119C56.7112 17.1056 58.1882 18.1552 59.432 17.9219C59.6653 18.1552 58.9656 18.4662 58.849 18.5438C56.8278 19.4766 55.2341 19.1656 54.1069 18.3493C52.3966 17.3389 51.3859 15.3953 49.598 14.2681C49.248 14.0736 48.8982 13.957 48.4707 13.8793C48.4707 13.7627 48.2374 13.7627 48.3541 13.6461L49.3646 12.6355C49.7144 13.4518 49.831 13.4518 50.3753 13.8793C51.969 15.0842 53.7569 15.5896 55.3506 14.0737C56.3613 13.0242 56.1668 11.1196 54.4567 10.8086C52.5132 10.3811 50.4919 11.6249 49.1314 10.0699C48.3542 9.25377 48.1209 8.04881 48.8983 7.11603ZM128.271 6.80512C128.388 6.80512 128.504 7.03827 128.621 6.80512L128.699 5.40566H121.041C120.925 5.91099 121.041 5.91099 120.925 6.49415C120.925 6.49415 120.808 6.49415 120.925 9.68141C120.925 11.1196 120.808 14.3847 121.041 14.8901C121.158 15.201 122.169 15.7064 121.819 15.7064H115.949C115.833 15.7064 115.949 15.5119 115.949 15.5119C116.493 14.8901 116.727 14.3847 116.493 13.2575C115.483 13.957 113.812 14.4624 112.451 13.957C108.136 12.4413 108.836 6.72723 113.462 5.98875C114.939 5.79439 116.727 7.03821 116.843 6.61069C116.96 6.4162 116.727 5.79439 116.843 5.28899L109.38 5.4056V4.27839H109.73C110.507 4.27839 114.705 4.27839 114.822 4.16178C114.472 3.34548 112.762 1.71293 111.868 1.32414C111.635 1.20754 111.324 1.091 111.518 1.01324C117.31 0.391367 116.843 3.53991 118.321 3.96736L119.214 4.27833C119.214 4.16172 119.331 4.16172 119.331 4.08389C118.981 3.03451 117.854 1.90724 116.727 1.32408C116.377 1.20747 116.182 1.32408 116.299 1.09093C117.543 0.702268 120.691 1.09093 121.275 1.82941C121.702 2.64578 122.402 4.08389 123.529 4.08389C128.699 4.16172 134.374 4.16172 139.582 4.16172V5.40553H133.013L132.897 6.92153C134.374 5.79432 138.999 5.09462 139.699 9.37038C140.01 11.1972 139.116 13.646 136.512 13.9569C135.268 14.0736 134.84 13.7627 133.791 13.2574C133.674 13.1406 133.674 13.0241 133.674 13.0241C135.618 12.3246 135.618 9.68128 134.607 8.12644C134.49 7.93226 134.374 7.85438 134.14 7.85438C133.441 7.73777 132.897 7.85437 132.897 8.4376L132.78 14.2681C132.78 15.3953 133.247 15.2009 133.596 15.5119C133.596 15.5896 133.674 15.784 133.674 15.784C133.363 15.9005 132.897 15.784 132.547 15.784C132.003 15.784 127.921 15.9005 127.805 15.784C127.688 15.7063 127.571 15.784 127.688 15.7063C128.815 15.201 128.388 15.0843 128.504 13.3352C127.455 13.957 127.144 14.0737 126.561 14.1514C124.19 14.6567 121.819 12.8297 121.586 10.6921C121.469 9.17608 121.702 8.24323 122.946 7.23257C124.773 5.91099 126.095 5.71656 128.271 6.80512Z" fill="white"/>
<path fill-rule="evenodd" clip-rule="evenodd" d="M24.0609 22.5086C24.0996 22.5475 24.0996 22.5864 24.1386 22.5864C34.9833 6.84397 54.1854 21.6536 38.5205 36.152L41.4747 38.9119L40.464 39.9223L26.8984 38.8342L26.5874 31.5263C23.9831 39.5728 8.62937 42.9543 4.85895 26.8232L0.816406 27.6393L7.07445 17.0278L7.96858 16.0173L14.8485 20.0987C6.49143 13.685 12.7884 -2.13504 30.5522 4.23961L31.0573 2.06295L31.9515 1.16882L38.9482 12.9854L37.9375 14.0738L24.8772 18.9713L26.393 14.8513C20.8347 12.7911 18.3858 19.0881 24.0609 22.7031C24.0609 22.6252 24.0609 22.5864 24.0609 22.5086ZM17.0642 21.4204L20.8346 23.6749L19.7072 24.6855L16.3645 24.5687C16.6754 29.5442 24.3329 29.6996 24.0609 22.7031C21.2622 22.7806 18.93 22.2754 17.0642 21.4204ZM24.1775 22.6252C25.3047 23.9469 26.0821 25.2295 26.5096 26.5122L27.4036 25.5405L30.4354 28.4947C34.5559 24.6855 29.8914 18.8548 24.1775 22.6252Z" fill="white"/>
<path fill-rule="evenodd" clip-rule="evenodd" d="M23.3611 23.7137C34.7501 38.0566 9.17351 49.5234 4.1203 28.0282L0 28.6889L7.07429 17.0278L19.7071 24.763L15.3537 25.6572C16.481 31.0601 23.1277 30.2824 23.3611 23.7137C23.3221 23.7523 23.2832 23.7523 23.2445 23.7912C3.22624 24.18 7.46308 -2.64036 29.8135 5.32798L30.9407 2.25732L37.8208 14.0738L24.0608 20.0598L25.6933 15.9395C20.0183 13.8794 17.5694 20.1376 23.2445 23.7912C33.3507 7.2715 53.602 22.8195 37.8208 37.3569L40.2696 39.9226L26.1985 40L26.5095 26.629L29.6191 29.6994C33.8559 25.7735 29.075 19.9431 23.3611 23.7137Z" fill="#F4B035"/>
</svg>
