<svg width="365" height="40" viewBox="0 0 365 40" fill="none" xmlns="http://www.w3.org/2000/svg">
<path fill-rule="evenodd" clip-rule="evenodd" d="M46.2635 28.136L44.1028 39.0518H34.6368C35.3571 35.4413 36.0773 31.5689 36.8911 27.8648C37.0688 27.051 37.2559 26.2373 37.4336 25.3393C37.4336 24.7032 37.5271 24.0765 37.6113 23.4499C37.9761 19.0349 34.8146 18.2211 31.7465 19.5681C29.9413 20.2883 29.1275 21.5511 28.2296 23.1786C27.4158 24.6191 27.1445 25.9753 26.7891 27.7806L24.4413 39.0518H15.0596L20.5595 12.1787C23.4498 12.0851 26.3308 12.0009 29.2211 11.9074C28.8563 13.6191 28.4073 15.2467 28.136 16.9584C31.653 12.7212 36.1615 10.5511 41.3902 12.0851C46.6189 13.5256 47.7039 18.7543 46.8902 23.8053C46.7966 25.3393 46.6189 26.6862 46.2635 28.136Z" fill="white"/>
<path fill-rule="evenodd" clip-rule="evenodd" d="M217.333 0H226.527L218.324 39.1358H209.85C210.205 37.6954 210.57 36.2455 211.019 34.8051C209.307 36.4326 207.867 37.7795 205.968 38.6868V32.8221C206.688 32.6444 207.408 32.3731 208.044 32.0083C210.748 30.2966 211.833 27.2286 211.833 24.1606L211.655 22.6266C211.477 21.1861 210.841 19.9234 209.223 19.2031C208.325 18.6606 207.062 18.6606 205.977 18.8477V11.9072C206.52 11.9072 206.969 12.085 207.418 12.085C210.037 12.7117 212.291 14.4327 213.554 17.0424L217.342 0L217.333 0ZM205.968 38.6868V32.8221C204.434 33.0933 202.722 32.8221 201.459 31.7371C200.917 31.1945 200.561 30.5678 200.374 29.6605C199.832 27.8553 200.197 25.4233 200.823 23.7116C201.366 21.9999 202.357 20.5594 203.891 19.5679C204.434 19.2031 205.248 18.9319 205.968 18.8477V11.9072C203.349 11.636 200.561 12.272 198.391 13.3477C191.722 16.687 188.738 26.4242 191.451 33.2804C192.62 36.0772 194.154 38.1537 197.222 39.2294C199.841 40.2208 201.282 40.0431 203.807 39.4071C204.621 39.2294 205.341 39.0423 205.968 38.6868Z" fill="white"/>
<path fill-rule="evenodd" clip-rule="evenodd" d="M140.858 12.5339L138.968 18.3052C136.349 17.5849 134.46 17.2201 131.756 17.0424C130.943 17.0424 130.316 16.9489 129.68 17.136C127.791 17.5849 126.977 19.2967 128.417 20.5594C130.222 22.3647 133.375 22.8136 135.629 24.2541C136.171 24.6189 136.798 25.1521 137.434 25.6946C139.239 28.4913 138.968 31.4658 137.079 34.3561C134.104 38.771 128.417 39.2294 123.282 38.8646C120.485 38.6868 118.137 38.1443 115.35 37.6018L117.062 31.1104C120.485 32.0083 122.655 32.8221 125.901 32.4666C127.342 32.3731 129.418 32.4666 129.418 30.4837C129.053 29.0432 127.706 28.1359 126.266 27.5092C124.105 26.5177 121.757 25.8817 120.046 24.1699C119.054 22.7295 118.783 21.6444 118.783 19.8392C118.783 18.0339 119.325 16.7712 120.139 15.602C124.741 9.01696 134.207 10.9158 140.876 12.5339H140.858Z" fill="white"/>
<path fill-rule="evenodd" clip-rule="evenodd" d="M87.3822 11.9072L96.9417 11.7295C96.2214 15.0688 95.5012 18.3987 94.781 21.925C94.332 24.1792 93.4247 27.0602 94.0607 29.3238C94.4255 30.5865 94.8745 31.0355 96.0437 31.4003C97.4 31.8493 99.1117 31.578 100.187 30.7736C103.433 28.4258 104.331 24.5534 105.145 20.7652L107.128 11.7482H116.416L110.645 39.0703C107.942 39.1639 105.238 38.9768 102.442 39.0703C102.713 37.5363 103.068 35.2821 103.433 33.7481C102.442 34.646 101.628 35.6469 100.552 36.4513C99.1959 37.5363 97.5777 38.2565 95.866 38.7055C93.883 39.1545 91.1798 39.1545 89.281 38.3407C87.2045 37.527 85.6705 35.6375 84.8661 33.561C83.781 30.7642 84.2394 28.8748 84.6883 25.9845C85.4086 21.2983 86.4001 16.5186 87.3915 11.9166L87.3822 11.9072Z" fill="white"/>
<path fill-rule="evenodd" clip-rule="evenodd" d="M76.7468 0H85.9415L77.6448 39.1358H69.1703C69.5351 37.6954 69.9841 36.2455 70.3395 34.8051C68.712 36.4326 67.1873 37.7795 65.3821 38.6868V32.8221C66.1023 32.6444 66.8225 32.3731 67.4586 32.0083C70.0776 30.2966 71.1533 27.2286 71.1533 24.1606L71.0598 22.6266C70.882 21.1861 70.1618 19.9234 68.5343 19.2031C67.6363 18.6606 66.3736 18.6606 65.3821 18.8477V11.9072C65.831 11.9072 66.28 12.085 66.8225 12.085C69.348 12.7117 71.6023 14.4327 72.9586 17.0424L76.7468 0ZM65.3821 38.6868V32.8221C63.7639 33.0933 62.1363 32.8221 60.8736 31.7371C60.2375 31.1945 59.8821 30.5678 59.7044 29.6605C59.1619 27.8553 59.5267 25.4233 60.1534 23.7116C60.6959 21.9999 61.7809 20.5594 63.2214 19.5679C63.8574 19.2031 64.5777 18.9319 65.3821 18.8477V11.9072C62.763 11.636 59.8821 12.272 57.712 13.3477C51.127 16.687 48.1526 26.4242 50.7716 33.2804C51.9408 36.0772 53.5684 38.1537 56.5428 39.2294C59.1619 40.2208 60.6865 40.0431 63.212 39.4071C63.9322 39.2294 64.6525 39.0423 65.3727 38.6868H65.3821Z" fill="white"/>
<path fill-rule="evenodd" clip-rule="evenodd" d="M8.119 0H17.7626L9.73719 39.0516H0L8.119 0Z" fill="white"/>
<path fill-rule="evenodd" clip-rule="evenodd" d="M187.036 28.136L184.782 39.0518H175.222C176.036 35.4413 176.85 31.5689 177.57 27.8648C177.748 27.051 177.935 26.2373 178.206 25.4328C178.206 24.7126 178.206 24.0765 178.3 23.4499C178.749 19.0349 175.409 18.2211 172.435 19.5681C170.723 20.3818 169.909 21.5511 169.011 23.1786C168.113 24.6191 167.842 26.0689 167.571 27.7806L165.139 39.0518H155.944L161.267 12.1787C164.157 12.0851 167.038 12.0851 169.928 11.9074C169.563 13.6191 169.208 15.2467 168.843 16.9584C172.36 12.7212 176.869 10.5511 182.097 12.0851C187.326 13.5256 188.411 18.7543 187.691 23.8988C187.513 25.3393 187.326 26.6956 187.064 28.136H187.036Z" fill="white"/>
<path fill-rule="evenodd" clip-rule="evenodd" d="M148.256 0H157.993L149.968 39.0516H140.23L148.256 0Z" fill="white"/>
<path fill-rule="evenodd" clip-rule="evenodd" d="M328.801 28.4072L326.547 39.4071H316.987C317.708 35.7124 318.606 31.7371 319.335 28.1359C319.513 27.238 319.691 26.4242 319.878 25.5169C319.878 24.8902 319.971 24.2542 320.055 23.6275C320.411 19.2125 317.165 18.3988 314.106 19.7457C312.395 20.4659 311.581 21.7287 310.589 23.3562C309.776 24.7967 309.504 26.153 309.149 27.9582L306.801 39.3229H297.419L302.826 12.2721C305.716 12.1785 308.691 12.0944 311.572 12.0008C311.207 13.7126 310.851 15.4243 310.487 17.0518C313.91 12.8146 318.606 10.6445 323.741 12.0944C329.147 13.6284 330.148 18.9506 329.418 24.0016C329.325 25.5356 329.054 26.8825 328.792 28.4165L328.801 28.4072Z" fill="white"/>
<path fill-rule="evenodd" clip-rule="evenodd" d="M339.623 0H349.089L344.216 23.2626L353.776 12.085H364.42L353.233 24.4412L360.267 39.2294H350.174L343.945 24.8902L340.97 39.2294H331.682L339.623 0Z" fill="white"/>
<path fill-rule="evenodd" clip-rule="evenodd" d="M295.698 24.8902C294.884 28.772 294.07 32.5602 293.35 36.3391L292.985 39.4071H285.138L285.68 35.2634C284.324 36.6197 282.883 37.7889 281.349 38.6027V33.9165C281.443 33.823 281.621 33.823 281.798 33.7388C282.79 33.1963 283.51 32.8408 284.053 32.2983C285.315 30.942 285.951 28.8749 286.484 27.1538H285.128C283.959 27.1538 282.603 27.0603 281.34 27.1538V22.6453C283.239 22.4676 285.399 22.5518 287.56 22.5518C287.56 20.204 286.662 18.4081 284.221 17.8656C283.136 17.6879 282.144 17.6879 281.331 17.6879V12.0944C287.195 11.3741 293.416 12.3656 295.576 17.6879C296.661 20.3911 296.025 22.1028 295.67 24.8996L295.698 24.8902ZM281.359 38.5934V33.9072C280.002 34.3561 278.384 34.4497 277.215 33.6359C275.232 32.1019 275.952 29.5764 277.758 28.2295C278.655 27.6028 280.012 27.238 281.368 27.1444V22.636C277.945 22.7295 274.699 23.2627 271.36 24.8902C269.012 26.5177 268.114 27.5934 267.665 29.5764C267.216 31.6529 266.945 33.6359 268.03 35.4412C269.564 38.6869 273.258 40.3144 276.775 39.9496C278.309 39.7719 279.928 39.3136 281.377 38.5934H281.359ZM281.359 17.6692V12.0757C278.833 12.3469 276.485 12.8894 274.325 13.4319L273.24 19.7457C274.774 19.0254 275.943 18.4829 277.57 18.1275C279.011 17.7627 280.096 17.6785 281.359 17.6785V17.6692Z" fill="white"/>
<path fill-rule="evenodd" clip-rule="evenodd" d="M249.435 3.15222H254.392C258.723 3.15222 265.392 3.77892 266.655 8.82991C266.926 9.64368 267.011 10.4575 267.011 11.2619V11.3554C267.011 14.3299 265.57 16.9489 262.867 18.7542C260.968 19.6521 259.35 20.1105 257.46 20.6436C262.334 21.4574 265.486 24.7873 264.494 30.1095C263.054 37.5083 256.104 38.6775 249.435 39.1265V32.635C249.8 32.635 250.155 32.5415 250.426 32.4573C256.02 31.5594 257.283 25.0586 251.96 23.8893C251.147 23.7116 250.333 23.6181 249.435 23.7116V17.9404C250.52 17.9404 251.689 17.8469 252.681 17.6691C255.655 16.9489 259.621 13.8809 256.375 10.4575C255.019 9.01698 251.773 9.1947 249.435 9.37242V3.15222ZM240.418 3.15222L233.113 39.3136H247.723C248.266 39.22 248.892 39.22 249.435 39.1359V32.6444C247.452 32.9157 245.282 32.9157 243.664 33.0092L245.563 23.9922C246.825 23.8987 248.182 23.721 249.444 23.721V17.9498C248.546 17.9498 247.555 17.8562 246.741 17.8562L248.631 9.38178H249.444V3.15222H240.427H240.418Z" fill="white"/>
</svg>
