<svg width="111" height="40" viewBox="0 0 111 40" fill="none" xmlns="http://www.w3.org/2000/svg">
<path d="M11.5733 0H11.7472C12.4745 1.83841 13.4923 3.54112 14.2408 5.36893C11.7705 4.93636 9.26416 5.28411 6.77689 5.16537C5.55128 5.11023 4.3384 4.80489 3.25062 4.22814C4.35112 3.43722 5.67003 3.05766 6.84475 2.40245C8.40962 1.57972 10.1038 0.992361 11.5733 0ZM0 8.55805C2.5742 9.10724 5.23958 9.09452 7.79046 9.76882C9.44227 10.1144 11.1195 10.829 12.1925 12.1819C12.8222 13.0767 13.0661 14.1942 13.0237 15.2777C11.1047 16.234 9.14117 17.1013 7.19674 18.0088C6.48639 18.3332 5.8121 18.84 4.99785 18.8209C3.40541 15.3646 1.58608 12.0144 0 8.55805Z" fill="#DE4019"/>
<path d="M21.4988 1.72804C21.6027 1.35273 22.048 1.57537 22.2876 1.65595C26.6132 3.35865 30.8986 5.16526 35.2328 6.84464C35.4639 7.11605 35.184 7.47228 35.1225 7.76066C33.405 11.8743 31.7108 15.9985 30.0801 20.1482C29.9974 20.2988 29.8999 20.443 29.7918 20.5765C29.6115 19.9065 29.6094 19.2004 29.4016 18.5388C28.8821 17.0842 27.9025 15.7377 26.486 15.0507C25.271 14.3085 23.8185 14.2619 22.4678 13.9502C22.9216 13.1741 23.5704 12.5359 24.2002 11.904C24.5119 11.5477 25.0166 11.6029 25.4406 11.5393C25.4173 11.4311 25.3707 11.2148 25.3495 11.1046C24.6943 10.831 24.0772 10.3539 23.3563 10.3073C21.9016 10.7017 20.4852 11.253 19.0179 11.6114C18.8037 10.9201 18.5196 10.25 18.3521 9.54394C19.3338 6.91673 20.447 4.33193 21.4988 1.72804Z" fill="#0084C4"/>
<path d="M103.537 16.1683C103.823 15.7336 104.389 15.5852 104.813 15.3116C105.006 18.2336 104.813 21.1789 104.909 24.1072C106.272 22.6102 107.237 20.8014 108.513 19.2344C108.993 19.0224 109.574 19.1878 110.093 19.1475C109.292 20.3667 108.371 21.4969 107.515 22.6759C108.628 24.7497 109.576 26.9062 110.668 28.9905C110.153 28.9778 109.618 29.0732 109.118 28.9269C108.384 27.572 107.765 26.1492 107.086 24.7603C106.908 24.5037 106.898 24.0012 106.499 24.0139C105.984 24.7179 105.432 25.3985 104.934 26.1131C104.822 27.0673 104.926 28.0363 104.89 28.9969H103.528C103.526 24.7221 103.507 20.4431 103.537 16.1683ZM48.7046 15.793C50.5579 15.2311 52.5235 15.8948 54.0587 16.9656C53.6898 17.6038 53.2954 18.2251 52.8967 18.8464C51.9595 18.5114 51.0944 17.8498 50.0448 17.9367C49.4892 17.8752 48.8064 18.2463 48.8403 18.8718C48.8276 19.7539 49.6037 20.3116 50.0893 20.9477C51.1453 22.0822 52.0952 23.3141 53.2042 24.3977C53.5541 23.7149 53.6495 22.8434 54.1393 22.273C54.8475 22.3769 55.507 22.678 56.1664 22.9452C55.8781 24.1284 55.2907 25.1928 54.7033 26.2467C55.5557 27.114 56.3848 28.0088 57.1227 28.9778C56.1304 29.0096 55.138 29.0054 54.1478 28.9778C53.829 28.6523 53.5172 28.3201 53.2127 27.9812C51.6648 29.1793 49.5825 29.4528 47.7017 29.0626C46.9913 28.8697 46.2428 28.6195 45.7594 28.0321C44.7076 26.7556 44.7394 24.756 45.6936 23.435C46.2449 22.8074 46.932 22.3154 47.655 21.9041C46.527 20.8566 45.7276 19.1475 46.4294 17.6462C46.7411 16.6327 47.7568 16.0877 48.7046 15.793ZM47.7504 24.8748C47.5087 25.4982 47.6741 26.4206 48.3908 26.639C49.4298 27.0376 50.6745 26.9316 51.6266 26.3421C50.8505 25.3158 49.9218 24.4062 49.0015 23.505C48.5223 23.8888 47.884 24.2196 47.7504 24.8748ZM41.6182 15.8799C42.5278 15.7591 43.446 15.8396 44.3599 15.8396C44.3768 18.2633 44.3599 20.6891 44.3705 23.1127C44.3578 24.7391 44.0757 26.4545 43.0261 27.7543C41.7178 29.2556 39.4426 29.4867 37.619 28.9884C35.8909 28.5622 34.7522 27.0016 34.1733 25.407C35.03 25.1229 35.8888 24.8281 36.7772 24.6543C37.2162 25.4091 37.6424 26.4057 38.6178 26.5457C39.3472 26.6559 40.1784 26.6453 40.787 26.1704C41.4443 25.4664 41.6775 24.4804 41.6479 23.5368C41.633 20.9859 41.6797 18.4308 41.6182 15.8799ZM57.6147 15.8375C58.5137 15.8163 59.4128 15.8184 60.3119 15.8269C60.3246 17.7544 60.3458 19.6819 60.2801 21.6072C61.8683 19.667 63.4013 17.678 65.0786 15.8142C66.1091 15.8375 67.1396 15.7972 68.1702 15.8418C66.9318 17.3875 65.6129 18.8655 64.328 20.3731C65.8865 23.2739 67.5977 26.0877 69.1392 28.9969C68.0981 28.9948 67.0591 29.0011 66.0179 28.9863C64.7499 26.9252 63.6494 24.7645 62.3899 22.6992C61.7326 23.5262 60.948 24.2514 60.35 25.1208C60.2483 26.4121 60.3924 27.714 60.2843 29.0075C59.4022 28.9863 58.5222 28.999 57.6422 28.9927C57.5744 24.6097 57.6295 20.2226 57.6147 15.8375ZM74.7414 15.9584L74.8729 15.8375C76.3487 15.793 77.8266 15.8418 79.3024 15.8205C80.2587 15.7909 81.2596 15.9817 82.0463 16.5542C83.1383 17.4003 83.4818 18.9927 82.992 20.2565C82.7206 20.9965 82.0166 21.4376 81.3826 21.8404C82.0972 22.1394 82.8944 22.466 83.2719 23.1975C84.3003 24.9363 83.8211 27.5953 81.953 28.5643C81.126 28.9248 80.2057 28.999 79.3152 28.9969C77.7863 28.9905 76.2575 29.0011 74.7287 28.9905C74.7478 24.6458 74.7223 20.301 74.7414 15.9584ZM76.249 17.2115C76.2066 18.5601 76.2321 19.9109 76.2363 21.2595C77.6421 21.1937 79.0904 21.4418 80.4665 21.0877C81.6434 20.7399 81.9721 19.1793 81.4738 18.17C81.1557 17.5466 80.4263 17.2243 79.7477 17.2285C78.5815 17.1967 77.4152 17.2391 76.249 17.2115ZM76.2427 22.6017C76.2193 24.2853 76.2214 25.971 76.2405 27.6547C77.5488 27.6653 78.8571 27.6759 80.1633 27.6504C81.1514 27.6695 82.1459 26.8743 82.2159 25.8608C82.3007 25.0402 82.3007 24.0987 81.7409 23.4329C81.1345 22.9007 80.3308 22.5847 79.5208 22.5953C78.4288 22.5826 77.3347 22.5932 76.2427 22.6017ZM85.528 19.72C86.9021 18.9906 88.4987 18.7701 90.0318 19.0012C91.3443 19.2429 92.4533 20.4643 92.3664 21.8362C92.3367 24.2302 92.43 26.6284 92.3219 29.0202C91.8914 29.0011 91.461 28.9948 91.0326 28.9948C90.9754 28.6449 90.9203 28.295 90.8673 27.9473C89.9491 28.8569 88.6535 29.3595 87.3579 29.1962C86.1154 29.1644 85.0297 28.2463 84.7413 27.0482C84.5569 26.0347 84.6035 24.8663 85.3626 24.086C86.0772 23.1636 87.3219 22.9579 88.4182 22.9473C89.2769 22.907 90.1039 23.153 90.933 23.3375C90.8991 22.3642 91.1175 21.1513 90.2057 20.4919C88.9292 19.6543 87.288 20.2183 86.0666 20.8926C85.8821 20.5025 85.7019 20.1123 85.528 19.72ZM86.8914 24.3616C85.598 25.2077 85.8376 27.572 87.377 27.9897C88.6535 28.3247 90.1527 27.7352 90.8779 26.6326C90.986 25.9223 90.9139 25.1992 90.8969 24.4867C89.6141 24.0775 88.1764 23.8337 86.8914 24.3616ZM95.5195 20.2947C96.1874 19.5334 97.1119 18.8782 98.1721 18.9249C99.3723 18.804 100.602 19.4126 101.226 20.4473C101.667 21.2552 101.72 22.2009 101.72 23.1021C101.717 25.0677 101.717 27.0313 101.72 28.9969C101.272 28.9969 100.825 28.9969 100.377 28.999C100.356 26.8934 100.407 24.7878 100.354 22.6823C100.322 21.7026 99.8727 20.6785 98.9228 20.2777C98.3651 20.1356 97.765 20.1356 97.2031 20.2522C96.2807 20.6148 95.6615 21.5012 95.6234 22.4893C95.4749 24.6521 95.6043 26.8277 95.5598 28.9948H94.137C94.0733 25.7166 94.1285 22.4363 94.1073 19.156C94.595 19.1475 95.0848 19.1433 95.5746 19.1496C95.5598 19.5313 95.5428 19.913 95.5195 20.2947Z" fill="white"/>
<path d="M17.0335 19.1199C17.1904 18.7319 17.6739 18.7828 18.0152 18.7467C19.0797 18.7383 20.212 18.6047 21.198 19.0924C23.3481 19.9936 24.8536 21.9889 25.6233 24.1348C22.6675 27.2582 19.8812 30.5363 16.9359 33.6703C16.0729 33.172 15.4283 32.3981 14.6607 31.7768C11.8533 29.2111 8.98857 26.709 6.19385 24.1284C6.94872 23.1339 7.84778 22.2582 8.68959 21.3379C9.62046 22.1797 10.6807 22.994 11.9593 23.1827C13.151 23.3226 14.3596 23.2908 15.5534 23.1806C16.0369 21.8235 16.4779 20.4473 17.0335 19.1199Z" fill="#68B92E"/>
<path d="M50.6031 37.3729C50.6031 37.5634 50.5659 37.7422 50.4915 37.9093C50.4218 38.0767 50.3173 38.2207 50.1779 38.3415C50.0385 38.4623 49.869 38.5576 49.6692 38.6273C49.4695 38.697 49.2419 38.7318 48.9865 38.7318C48.6518 38.7318 48.3428 38.6691 48.0594 38.5435C47.7808 38.4135 47.5439 38.2509 47.3486 38.0558L47.7112 37.6517C47.897 37.8283 48.0967 37.9699 48.3105 38.0766C48.5241 38.1835 48.7563 38.2369 49.0072 38.2369C49.3324 38.2369 49.5879 38.1626 49.7738 38.0141C49.9643 37.8654 50.0596 37.661 50.0596 37.4008C50.0596 37.2892 50.041 37.187 50.0038 37.0942C49.9667 37.0012 49.9016 36.9153 49.8088 36.8364C49.7204 36.7572 49.6019 36.6805 49.4532 36.6063C49.3046 36.5273 49.1188 36.4483 48.8957 36.3695C48.6309 36.2765 48.4079 36.1835 48.2267 36.0906C48.0501 35.9931 47.9062 35.8909 47.7948 35.784C47.6879 35.6725 47.6089 35.5494 47.5577 35.4146C47.5112 35.2799 47.4879 35.1243 47.4879 34.9477C47.4879 34.7526 47.5251 34.5784 47.5995 34.425C47.6738 34.2718 47.776 34.1417 47.9061 34.0349C48.0408 33.9233 48.2011 33.8397 48.387 33.784C48.5774 33.7282 48.7865 33.7003 49.0142 33.7003C49.3394 33.7003 49.6157 33.7468 49.8433 33.8398C50.0757 33.9327 50.2941 34.0604 50.4985 34.223L50.1501 34.6481C49.9734 34.4994 49.7946 34.3879 49.6137 34.3137C49.437 34.2346 49.2256 34.195 48.9795 34.195C48.8121 34.195 48.668 34.216 48.5473 34.2579C48.4264 34.2951 48.3266 34.3462 48.2477 34.4113C48.1733 34.4763 48.1176 34.5529 48.0804 34.6411C48.0479 34.7248 48.0316 34.8154 48.0316 34.9129C48.0316 35.0152 48.0455 35.1081 48.0734 35.1918C48.1012 35.2707 48.157 35.3496 48.2407 35.4286C48.3242 35.503 48.4404 35.5773 48.5891 35.6517C48.7425 35.7259 48.9422 35.8072 49.1883 35.8956C49.4579 35.9931 49.6832 36.0906 49.8643 36.1882C50.0455 36.2857 50.1896 36.3926 50.2965 36.5088C50.408 36.625 50.4869 36.7528 50.5333 36.8922C50.5798 37.0314 50.6031 37.1916 50.6031 37.3729ZM54.401 36.7179C54.401 36.7829 54.3986 36.8363 54.394 36.8782C54.394 36.92 54.3893 36.9618 54.38 37.0035H51.9411C51.9642 37.3984 52.0641 37.7097 52.2407 37.9373C52.4172 38.1649 52.6565 38.2787 52.9584 38.2787C53.1722 38.2787 53.351 38.2485 53.4949 38.1882C53.6436 38.1278 53.8016 38.0419 53.9688 37.9303L54.2127 38.3067C54.1013 38.3764 53.9967 38.4391 53.8991 38.4948C53.8015 38.546 53.7017 38.5901 53.5994 38.6273C53.4972 38.6598 53.3904 38.6853 53.279 38.7038C53.1674 38.7225 53.0419 38.7318 52.9027 38.7318C52.7354 38.7318 52.5635 38.6993 52.387 38.6343C52.2104 38.5693 52.0501 38.4624 51.9061 38.3137C51.7667 38.1603 51.6506 37.9606 51.5577 37.7145C51.4648 37.4682 51.4184 37.1662 51.4184 36.8084C51.4184 36.5158 51.4556 36.2533 51.5299 36.0209C51.6088 35.7886 51.7156 35.5912 51.8503 35.4286C51.985 35.2661 52.143 35.1406 52.3242 35.0523C52.5101 34.9641 52.7123 34.9199 52.9307 34.9199C53.1674 34.9199 53.3764 34.9641 53.5577 35.0523C53.7436 35.1406 53.8992 35.2661 54.0246 35.4286C54.15 35.5865 54.2429 35.777 54.3034 36.0001C54.3685 36.2184 54.401 36.4576 54.401 36.7179ZM53.9133 36.5785C53.8899 36.2208 53.7993 35.9304 53.6412 35.7075C53.4833 35.4844 53.2441 35.3729 52.9235 35.3729C52.6494 35.3729 52.4241 35.4727 52.2477 35.6725C52.0758 35.8676 51.9735 36.1696 51.9408 36.5785H53.9133ZM57.2377 35.5402C57.1633 35.4983 57.082 35.4658 56.9938 35.4426C56.9101 35.4146 56.8079 35.4006 56.687 35.4006C56.4316 35.4006 56.2342 35.4982 56.0948 35.6933C55.9601 35.8885 55.8927 36.1603 55.8927 36.5088V38.6551H55.37V34.9965H55.8927V35.4496C55.9762 35.3009 56.0994 35.1755 56.2621 35.0733C56.4246 34.971 56.6035 34.9199 56.7985 34.9199C56.9333 34.9199 57.0448 34.9292 57.1331 34.9477C57.226 34.9617 57.305 34.9826 57.37 35.0105L57.2377 35.5402ZM59.6715 38.6551H59.2114L57.9014 34.9965H58.459L59.3927 37.8746L59.4484 38.0488L59.5042 37.8746L60.438 34.9965H60.9815L59.6715 38.6551ZM62.504 33.9721C62.504 34.0743 62.4669 34.1627 62.3927 34.2372C62.323 34.3067 62.2394 34.3415 62.1418 34.3415C62.0349 34.3415 61.9443 34.3066 61.87 34.237C61.7956 34.1626 61.7584 34.0743 61.7584 33.9721C61.7584 33.8652 61.7956 33.777 61.87 33.7073C61.9443 33.6331 62.0349 33.5959 62.1418 33.5959C62.2394 33.5959 62.323 33.6331 62.3927 33.7073C62.467 33.777 62.5042 33.8653 62.5042 33.9723L62.504 33.9721ZM61.87 38.6551V34.9965H62.3927V38.6551H61.87ZM65.8835 38.6551V36.5156C65.8835 36.1207 65.8116 35.8328 65.6677 35.6517C65.5283 35.4658 65.3122 35.3729 65.0194 35.3729C64.764 35.3729 64.548 35.4635 64.3714 35.6447C64.1995 35.8258 64.1136 36.1161 64.1136 36.5158V38.6553H63.5909V34.9965H64.1136V35.4426C64.2205 35.2893 64.3575 35.1638 64.5247 35.0663C64.692 34.9687 64.8917 34.9199 65.124 34.9199C65.3191 34.9199 65.4956 34.9501 65.6537 35.0105C65.8116 35.0662 65.9463 35.1568 66.0578 35.2823C66.1694 35.403 66.2553 35.5587 66.3157 35.7492C66.376 35.935 66.4062 36.1603 66.4062 36.4252V38.6551H65.8835ZM70.2768 38.3277C70.2768 38.6018 70.2443 38.841 70.1793 39.0455C70.1143 39.2499 70.0074 39.4218 69.8587 39.5611C69.7145 39.7005 69.524 39.8051 69.2872 39.8748C69.0503 39.949 68.7623 39.9907 68.4232 40.0001L68.2556 39.6029C68.5624 39.5936 68.811 39.5657 69.0014 39.5192C69.1965 39.4728 69.3499 39.4008 69.4615 39.3033C69.5729 39.2103 69.6495 39.0894 69.6914 38.9407C69.7332 38.7921 69.7542 38.611 69.7542 38.3972V38.2092C69.6241 38.3485 69.4707 38.4717 69.294 38.5785C69.1176 38.6807 68.9039 38.7318 68.653 38.7318C68.4718 38.7318 68.2999 38.697 68.1373 38.6273C67.9794 38.5529 67.84 38.4414 67.7192 38.2927C67.6031 38.1441 67.5102 37.9536 67.4405 37.7212C67.3755 37.4843 67.343 37.2056 67.343 36.8852C67.343 36.56 67.3779 36.2766 67.4475 36.0349C67.5218 35.7886 67.6216 35.5842 67.7472 35.4216C67.8726 35.2544 68.0189 35.1289 68.1861 35.0453C68.3533 34.9617 68.5321 34.9199 68.7226 34.9199C68.955 34.9199 69.1524 34.9641 69.315 35.0523C69.4776 35.1406 69.6239 35.2591 69.7539 35.4076V34.9965H70.2768V38.3277ZM69.7542 35.9233C69.6519 35.7701 69.5148 35.64 69.3428 35.5332C69.1757 35.4263 68.983 35.3729 68.7645 35.3729C68.4578 35.3729 68.2302 35.5007 68.0818 35.7562C67.9331 36.0117 67.8587 36.3856 67.8587 36.8779C67.8587 37.3426 67.94 37.6934 68.1025 37.9303C68.2651 38.1627 68.4927 38.2789 68.7853 38.2789C68.9804 38.2789 69.157 38.2324 69.315 38.1394C69.4776 38.0419 69.6239 37.9118 69.7539 37.7492L69.7542 35.9233ZM74.9831 34.2717V38.6551H74.4397V34.2717H73.0041V33.777H76.4187V34.2717H74.9831ZM79.6127 36.8014C79.6127 37.1127 79.5708 37.3891 79.4871 37.6307C79.4036 37.8676 79.2898 38.0698 79.1457 38.2371C79.0017 38.3997 78.8321 38.5228 78.6368 38.6063C78.4418 38.69 78.2328 38.7318 78.0098 38.7318C77.7869 38.7318 77.5778 38.6923 77.3826 38.6133C77.1922 38.5298 77.0273 38.409 76.8879 38.2509C76.7485 38.0884 76.637 37.8886 76.5533 37.6517C76.4744 37.4148 76.435 37.1407 76.435 36.8294C76.435 36.5181 76.4768 36.244 76.5603 36.0071C76.644 35.7702 76.7578 35.5727 76.9017 35.4146C77.0459 35.2521 77.2155 35.1289 77.4106 35.0453C77.6057 34.9617 77.8148 34.9199 78.0378 34.9199C78.2607 34.9199 78.4674 34.9595 78.6578 35.0385C78.8529 35.1174 79.0202 35.2358 79.1597 35.3939C79.2991 35.5518 79.4083 35.7492 79.4871 35.9861C79.5708 36.2184 79.6127 36.4901 79.6127 36.8014ZM79.09 36.8154C79.09 36.3322 78.9924 35.9722 78.7974 35.7352C78.6023 35.4937 78.3444 35.3729 78.0238 35.3729C77.7032 35.3729 77.4454 35.4937 77.2503 35.7352C77.0597 35.9722 76.9645 36.3322 76.9645 36.8154C76.9645 37.2986 77.0597 37.6633 77.2503 37.9095C77.4454 38.1558 77.7032 38.2789 78.0238 38.2789C78.3443 38.2789 78.6021 38.1558 78.7974 37.9095C78.9924 37.6633 79.09 37.2986 79.09 36.8154ZM82.45 38.6551V33.777H85.3978V34.2717H82.9937V35.8048H84.3874V36.2997H82.9937V38.1604H85.5024V38.6551H82.45ZM90.7352 38.6551V36.5156C90.7352 36.0976 90.6701 35.8026 90.5401 35.6307C90.41 35.4588 90.2125 35.3729 89.9476 35.3729C89.7014 35.3729 89.504 35.4635 89.3554 35.6447C89.2067 35.8213 89.1323 36.1116 89.1323 36.5158V38.6553H88.6096V36.5158C88.6096 36.0976 88.5423 35.8026 88.4076 35.6307C88.2729 35.4588 88.0778 35.3729 87.8223 35.3729C87.5714 35.3729 87.3716 35.4635 87.2229 35.6447C87.0788 35.8213 87.0068 36.1116 87.0068 36.5158V38.6553H86.4843V34.9965H87.0068V35.4426C87.0998 35.2846 87.2229 35.1591 87.3762 35.0663C87.5296 34.9687 87.7155 34.9199 87.9339 34.9199C88.194 34.9199 88.403 34.9803 88.5609 35.101C88.7234 35.2219 88.8489 35.3706 88.9372 35.5472C88.9929 35.4588 89.0533 35.3775 89.1183 35.3033C89.1834 35.2242 89.26 35.1567 89.3484 35.101C89.4366 35.0453 89.5365 35.0012 89.648 34.9687C89.7642 34.9362 89.8966 34.9199 90.0452 34.9199C90.417 34.9199 90.712 35.0384 90.9302 35.2753C91.1486 35.5076 91.2578 35.8909 91.2578 36.4252V38.6551H90.7352ZM95.325 36.7666C95.325 37.0918 95.2879 37.3775 95.2137 37.6237C95.144 37.8654 95.0465 38.0698 94.9211 38.2369C94.7956 38.3995 94.6492 38.5226 94.482 38.6063C94.3147 38.69 94.1359 38.7318 93.9455 38.7318C93.7131 38.7318 93.5156 38.6877 93.353 38.5993C93.1905 38.5111 93.0442 38.3926 92.9141 38.2439V39.7074L92.3912 40.0001V34.9965H92.9139V35.4426C93.044 35.3032 93.1973 35.1824 93.374 35.08C93.5505 34.9733 93.7641 34.9199 94.015 34.9199C94.1963 34.9199 94.3659 34.9571 94.5239 35.0315C94.6865 35.1012 94.8258 35.2103 94.9417 35.3589C95.0625 35.5076 95.1555 35.7004 95.2207 35.9373C95.2903 36.1696 95.325 36.4462 95.325 36.7666ZM94.8096 36.7736C94.8096 36.309 94.7283 35.9605 94.5657 35.7283C94.403 35.4913 94.1753 35.3729 93.8827 35.3729C93.6876 35.3729 93.5088 35.4216 93.346 35.5192C93.1881 35.6121 93.0441 35.7398 92.9139 35.9026V37.7282C93.0161 37.8816 93.1508 38.0117 93.3181 38.1184C93.49 38.2254 93.6851 38.2789 93.9035 38.2789C94.2103 38.2789 94.4379 38.1511 94.5863 37.8955C94.7351 37.64 94.8096 37.266 94.8096 36.7736ZM99.2667 36.8014C99.2667 37.1127 99.2249 37.3891 99.1412 37.6307C99.0575 37.8676 98.9437 38.0698 98.7998 38.2371C98.6556 38.3997 98.486 38.5228 98.2909 38.6063C98.0958 38.69 97.8868 38.7318 97.6639 38.7318C97.4408 38.7318 97.2317 38.6923 97.0367 38.6133C96.8461 38.5298 96.6811 38.409 96.5417 38.2509C96.4025 38.0884 96.291 37.8886 96.2074 37.6517C96.1283 37.4148 96.0888 37.1407 96.0888 36.8294C96.0888 36.5181 96.1307 36.244 96.2143 36.0071C96.2979 35.7702 96.4117 35.5727 96.5557 35.4146C96.6998 35.2521 96.8694 35.1289 97.0646 35.0453C97.2597 34.9617 97.4687 34.9199 97.6917 34.9199C97.9147 34.9199 98.1215 34.9595 98.3119 35.0385C98.507 35.1174 98.6742 35.2358 98.8136 35.3939C98.953 35.5518 99.0622 35.7492 99.1412 35.9861C99.2249 36.2184 99.2667 36.4901 99.2667 36.8014ZM98.744 36.8154C98.744 36.3322 98.6465 35.9722 98.4514 35.7352C98.2563 35.4937 97.9984 35.3729 97.6777 35.3729C97.3572 35.3729 97.0993 35.4937 96.9041 35.7352C96.7137 35.9722 96.6185 36.3322 96.6185 36.8154C96.6185 37.2986 96.7137 37.6633 96.9041 37.9095C97.0992 38.1558 97.357 38.2789 97.6777 38.2789C97.9983 38.2789 98.2561 38.1558 98.4512 37.9095C98.6463 37.6633 98.744 37.2986 98.744 36.8154ZM103.321 38.6551H102.84L102.178 36.2022C102.169 36.1697 102.157 36.1325 102.143 36.0906L102.116 35.9513C102.106 35.9001 102.097 35.8514 102.088 35.805C102.078 35.7585 102.071 35.7189 102.067 35.6863C102.062 35.7189 102.055 35.7585 102.046 35.805C102.037 35.8514 102.025 35.9001 102.011 35.9513L101.983 36.0906C101.974 36.1325 101.965 36.1697 101.955 36.2022L101.293 38.6551H100.826L99.8577 34.9965H100.394L100.966 37.4146C100.97 37.4471 100.977 37.4867 100.987 37.5332C100.996 37.575 101.005 37.6214 101.015 37.6725C101.029 37.719 101.038 37.7655 101.042 37.812C101.052 37.8584 101.061 37.8978 101.07 37.9303C101.075 37.8978 101.082 37.8584 101.091 37.812C101.105 37.7655 101.117 37.719 101.126 37.6725C101.135 37.6214 101.145 37.575 101.154 37.5332C101.168 37.4867 101.18 37.4471 101.189 37.4146L101.844 34.9965H102.318L102.973 37.4146C102.982 37.4471 102.991 37.4867 103.001 37.5332C103.015 37.575 103.026 37.6214 103.036 37.6725L103.063 37.812C103.073 37.8584 103.082 37.8978 103.091 37.9303C103.096 37.8978 103.103 37.8584 103.112 37.812L103.14 37.6725C103.154 37.6214 103.163 37.575 103.168 37.5332C103.177 37.4867 103.187 37.4471 103.196 37.4146L103.767 34.9965H104.29L103.321 38.6551ZM107.864 36.7179C107.864 36.7829 107.862 36.8363 107.857 36.8782C107.857 36.92 107.852 36.9618 107.843 37.0035H105.404C105.427 37.3984 105.527 37.7097 105.704 37.9373C105.88 38.1649 106.12 38.2787 106.421 38.2787C106.635 38.2787 106.814 38.2485 106.958 38.1882C107.107 38.1278 107.265 38.0419 107.432 37.9303L107.676 38.3067C107.564 38.3764 107.46 38.4391 107.362 38.4948C107.265 38.546 107.165 38.5901 107.063 38.6273C106.96 38.6598 106.854 38.6853 106.742 38.7038C106.631 38.7225 106.505 38.7318 106.366 38.7318C106.198 38.7318 106.027 38.6993 105.85 38.6343C105.674 38.5693 105.513 38.4624 105.369 38.3137C105.23 38.1603 105.114 37.9606 105.021 37.7145C104.928 37.4682 104.881 37.1662 104.881 36.8084C104.881 36.5158 104.919 36.2533 104.993 36.0209C105.072 35.7886 105.179 35.5912 105.314 35.4286C105.448 35.2661 105.606 35.1406 105.787 35.0523C105.973 34.9641 106.175 34.9199 106.394 34.9199C106.631 34.9199 106.84 34.9641 107.021 35.0523C107.207 35.1406 107.362 35.2661 107.488 35.4286C107.613 35.5865 107.706 35.777 107.766 36.0001C107.831 36.2184 107.864 36.4576 107.864 36.7179H107.864ZM107.376 36.5785C107.353 36.2208 107.262 35.9304 107.104 35.7075C106.947 35.4844 106.707 35.3729 106.387 35.3729C106.113 35.3729 105.887 35.4727 105.711 35.6725C105.539 35.8676 105.437 36.1696 105.404 36.5785H107.376ZM110.701 35.5402C110.626 35.4983 110.545 35.4658 110.457 35.4426C110.373 35.4146 110.271 35.4006 110.15 35.4006C109.895 35.4006 109.697 35.4982 109.558 35.6933C109.423 35.8885 109.356 36.1603 109.356 36.5088V38.6551H108.833V34.9965H109.356V35.4496C109.439 35.3009 109.563 35.1755 109.725 35.0733C109.888 34.971 110.066 34.9199 110.262 34.9199C110.396 34.9199 110.508 34.9292 110.596 34.9477C110.689 34.9617 110.768 34.9826 110.833 35.0105L110.701 35.5402Z" fill="white"/>
</svg>
