<svg width="308" height="40" viewBox="0 0 308 40" fill="none" xmlns="http://www.w3.org/2000/svg">
<path d="M53.3164 30.5546V10.1218H56.0229V20.2552L66.1703 10.1218H69.8335L61.2605 18.4L70.2091 30.5546H66.6416L59.3671 20.2123L56.0229 23.4756V30.5546H53.3164ZM81.8075 28.728C80.8751 29.5176 79.9804 30.0744 79.1245 30.4022C78.2636 30.7259 77.3403 30.8875 76.3559 30.8875C74.7285 30.8875 73.482 30.4929 72.6067 29.6982C71.736 28.9038 71.2985 27.8858 71.2985 26.6536C71.2985 25.9256 71.4601 25.2644 71.793 24.6649C72.1214 24.0659 72.5547 23.5851 73.0874 23.2235C73.6248 22.8623 74.2242 22.5858 74.8952 22.4008C75.3852 22.2724 76.1275 22.1439 77.1215 22.0245C79.148 21.7819 80.6416 21.497 81.5981 21.159C81.6078 20.8165 81.6125 20.5977 81.6125 20.5074C81.6125 19.4843 81.3743 18.7615 80.8986 18.3475C80.2614 17.7763 79.305 17.4962 78.0443 17.4962C76.8646 17.4962 75.9939 17.7004 75.4279 18.1144C74.8666 18.5284 74.4528 19.2609 74.1816 20.3122L71.7313 19.9741C71.9552 18.9275 72.3212 18.0762 72.8304 17.4338C73.3394 16.787 74.0817 16.2873 75.0471 15.9401C76.0133 15.5929 77.1312 15.417 78.4057 15.417C79.6714 15.417 80.6941 15.569 81.484 15.8641C82.2736 16.164 82.8544 16.5351 83.23 16.9867C83.6011 17.4389 83.858 18.0049 84.0099 18.6947C84.091 19.1228 84.1338 19.8936 84.1338 21.0066V24.3513C84.1338 26.6866 84.1858 28.1616 84.2955 28.7754C84.3999 29.3938 84.6141 29.9886 84.9281 30.5546H82.3067C82.0502 30.0361 81.879 29.4268 81.8075 28.728ZM81.5981 23.1237C80.6845 23.4995 79.3193 23.8135 77.5019 24.0751C76.4696 24.2228 75.7369 24.389 75.3137 24.5747C74.8856 24.7601 74.5527 25.0314 74.3243 25.3929C74.0913 25.7498 73.972 26.1448 73.972 26.5823C73.972 27.253 74.2289 27.8098 74.733 28.2569C75.2377 28.6994 75.9796 28.9228 76.9548 28.9228C77.9208 28.9228 78.7819 28.7136 79.5333 28.29C80.2848 27.8668 80.8416 27.2864 81.1938 26.5537C81.465 25.9877 81.5981 25.1502 81.5981 24.0465V23.1237ZM87.9965 30.5546V15.7546H90.2519V17.995C90.8275 16.9485 91.3602 16.2543 91.8502 15.9213C92.3355 15.5884 92.8728 15.417 93.458 15.417C94.3049 15.417 95.1613 15.6883 96.0365 16.2257L95.171 18.5571C94.5619 18.1904 93.9481 18.0094 93.3343 18.0094C92.7826 18.0094 92.2926 18.1761 91.8547 18.5045C91.4174 18.8372 91.108 19.2941 90.9223 19.8793C90.6419 20.7691 90.5038 21.7442 90.5038 22.8051V30.5546H87.9965ZM97.5305 30.5546V15.7546H99.7856V17.8574C100.875 16.2302 102.445 15.417 104.495 15.417C105.389 15.417 106.208 15.5786 106.955 15.8972C107.707 16.2209 108.263 16.6395 108.634 17.1626C109.01 17.6816 109.267 18.3001 109.419 19.0133C109.509 19.4796 109.557 20.2934 109.557 21.4542V30.5546H107.045V21.5488C107.045 20.5309 106.95 19.7652 106.755 19.2559C106.56 18.7517 106.213 18.3475 105.718 18.0476C105.218 17.7433 104.638 17.5909 103.967 17.5909C102.897 17.5909 101.978 17.9334 101.198 18.6088C100.423 19.2895 100.038 20.5738 100.038 22.4717V30.5546H97.5305ZM123.063 28.728C122.131 29.5176 121.236 30.0744 120.38 30.4022C119.519 30.7259 118.596 30.8875 117.611 30.8875C115.984 30.8875 114.738 30.4929 113.862 29.6982C112.992 28.9038 112.554 27.8858 112.554 26.6536C112.554 25.9256 112.716 25.2644 113.049 24.6649C113.377 24.0659 113.81 23.5851 114.343 23.2235C114.88 22.8623 115.48 22.5858 116.151 22.4008C116.641 22.2724 117.383 22.1439 118.377 22.0245C120.404 21.7819 121.897 21.497 122.854 21.159C122.863 20.8165 122.868 20.5977 122.868 20.5074C122.868 19.4843 122.63 18.7615 122.154 18.3475C121.517 17.7763 120.56 17.4962 119.3 17.4962C118.12 17.4962 117.249 17.7004 116.684 18.1144C116.122 18.5284 115.708 19.2609 115.437 20.3122L112.987 19.9741C113.211 18.9275 113.577 18.0762 114.086 17.4338C114.595 16.787 115.337 16.2873 116.303 15.9401C117.269 15.5929 118.387 15.417 119.661 15.417C120.927 15.417 121.95 15.569 122.739 15.8641C123.529 16.164 124.11 16.5351 124.486 16.9867C124.857 17.4389 125.114 18.0049 125.266 18.6947C125.347 19.1228 125.389 19.8936 125.389 21.0066V24.3513C125.389 26.6866 125.441 28.1616 125.551 28.7754C125.656 29.3938 125.87 29.9886 126.184 30.5546H123.562C123.306 30.0361 123.135 29.4268 123.063 28.728ZM122.854 23.1237C121.94 23.4995 120.575 23.8135 118.757 24.0751C117.725 24.2228 116.992 24.389 116.569 24.5747C116.141 24.7601 115.808 25.0314 115.58 25.3929C115.347 25.7498 115.228 26.1448 115.228 26.5823C115.228 27.253 115.484 27.8098 115.989 28.2569C116.493 28.6994 117.235 28.9228 118.21 28.9228C119.177 28.9228 120.038 28.7136 120.789 28.29C121.54 27.8668 122.097 27.2864 122.449 26.5537C122.721 25.9877 122.854 25.1502 122.854 24.0465V23.1237ZM134.756 28.309L135.118 30.526C134.414 30.6734 133.781 30.7498 133.225 30.7498C132.312 30.7498 131.608 30.6071 131.103 30.3166C130.604 30.0315 130.252 29.6508 130.047 29.1797C129.842 28.7136 129.738 27.7242 129.738 26.2207V17.705H127.897V15.7546H129.738V12.0865L132.235 10.5836V15.7546H134.756V17.705H132.235V26.3584C132.235 27.0772 132.278 27.5335 132.363 27.7383C132.454 27.9428 132.597 28.1046 132.796 28.2283C132.996 28.3472 133.282 28.4089 133.653 28.4089C133.934 28.4089 134.3 28.3756 134.756 28.309ZM146.869 28.728C145.936 29.5176 145.042 30.0744 144.186 30.4022C143.325 30.7259 142.401 30.8875 141.417 30.8875C139.79 30.8875 138.543 30.4929 137.668 29.6982C136.797 28.9038 136.36 27.8858 136.36 26.6536C136.36 25.9256 136.521 25.2644 136.854 24.6649C137.183 24.0659 137.616 23.5851 138.149 23.2235C138.686 22.8623 139.286 22.5858 139.957 22.4008C140.446 22.2724 141.189 22.1439 142.183 22.0245C144.209 21.7819 145.703 21.497 146.659 21.159C146.669 20.8165 146.674 20.5977 146.674 20.5074C146.674 19.4843 146.436 18.7615 145.96 18.3475C145.323 17.7763 144.366 17.4962 143.105 17.4962C141.926 17.4962 141.055 17.7004 140.489 18.1144C139.928 18.5284 139.514 19.2609 139.243 20.3122L136.793 19.9741C137.017 18.9275 137.383 18.0762 137.892 17.4338C138.401 16.787 139.143 16.2873 140.108 15.9401C141.074 15.5929 142.193 15.417 143.467 15.417C144.733 15.417 145.755 15.569 146.545 15.8641C147.335 16.164 147.915 16.5351 148.291 16.9867C148.662 17.4389 148.919 18.0049 149.071 18.6947C149.152 19.1228 149.195 19.8936 149.195 21.0066V24.3513C149.195 26.6866 149.247 28.1616 149.357 28.7754C149.461 29.3938 149.675 29.9886 149.989 30.5546H147.368C147.112 30.0361 146.94 29.4268 146.869 28.728ZM146.659 23.1237C145.746 23.4995 144.381 23.8135 142.563 24.0751C141.531 24.2228 140.798 24.389 140.375 24.5747C139.947 24.7601 139.614 25.0314 139.385 25.3929C139.153 25.7498 139.033 26.1448 139.033 26.5823C139.033 27.253 139.29 27.8098 139.794 28.2569C140.299 28.6994 141.041 28.9228 142.016 28.9228C142.982 28.9228 143.843 28.7136 144.595 28.29C145.346 27.8668 145.903 27.2864 146.255 26.5537C146.526 25.9877 146.659 25.1502 146.659 24.0465V23.1237ZM153.096 30.5546V10.1218H155.608V21.7728L161.545 15.7546H164.789L159.133 21.2446L165.365 30.5546H162.268L157.378 22.9856L155.608 24.6889V30.5546H153.096ZM177.016 28.728C176.083 29.5176 175.189 30.0744 174.333 30.4022C173.472 30.7259 172.549 30.8875 171.564 30.8875C169.937 30.8875 168.69 30.4929 167.815 29.6982C166.944 28.9038 166.507 27.8858 166.507 26.6536C166.507 25.9256 166.668 25.2644 167.001 24.6649C167.33 24.0659 167.763 23.5851 168.296 23.2235C168.833 22.8623 169.433 22.5858 170.104 22.4008C170.594 22.2724 171.336 22.1439 172.33 22.0245C174.356 21.7819 175.85 21.497 176.807 21.159C176.816 20.8165 176.821 20.5977 176.821 20.5074C176.821 19.4843 176.583 18.7615 176.107 18.3475C175.47 17.7763 174.513 17.4962 173.252 17.4962C172.073 17.4962 171.202 17.7004 170.636 18.1144C170.075 18.5284 169.661 19.2609 169.39 20.3122L166.94 19.9741C167.164 18.9275 167.53 18.0762 168.039 17.4338C168.548 16.787 169.29 16.2873 170.256 15.9401C171.222 15.5929 172.34 15.417 173.614 15.417C174.88 15.417 175.902 15.569 176.692 15.8641C177.482 16.164 178.062 16.5351 178.438 16.9867C178.809 17.4389 179.066 18.0049 179.218 18.6947C179.299 19.1228 179.342 19.8936 179.342 21.0066V24.3513C179.342 26.6866 179.394 28.1616 179.504 28.7754C179.608 29.3938 179.822 29.9886 180.136 30.5546H177.515C177.258 30.0361 177.087 29.4268 177.016 28.728ZM176.807 23.1237C175.893 23.4995 174.528 23.8135 172.71 24.0751C171.678 24.2228 170.945 24.389 170.522 24.5747C170.094 24.7601 169.761 25.0314 169.533 25.3929C169.3 25.7498 169.18 26.1448 169.18 26.5823C169.18 27.253 169.437 27.8098 169.941 28.2569C170.446 28.6994 171.188 28.9228 172.163 28.9228C173.129 28.9228 173.99 28.7136 174.742 28.29C175.493 27.8668 176.05 27.2864 176.402 26.5537C176.673 25.9877 176.807 25.1502 176.807 24.0465V23.1237ZM191.369 30.5546V10.1218H199.037C200.598 10.1218 201.849 10.3314 202.791 10.7407C203.738 11.154 204.475 11.792 205.008 12.6529C205.541 13.5093 205.812 14.4082 205.812 15.3503C205.812 16.2209 205.574 17.0439 205.098 17.8148C204.627 18.5854 203.909 19.2084 202.953 19.6841C204.189 20.0456 205.136 20.6638 205.802 21.5346C206.468 22.41 206.802 23.4423 206.802 24.6316C206.802 25.5882 206.597 26.4777 206.192 27.3006C205.788 28.1238 205.288 28.7565 204.694 29.2037C204.099 29.6508 203.352 29.9837 202.458 30.212C201.563 30.4404 200.465 30.5546 199.161 30.5546H191.369ZM194.075 18.709H198.495C199.689 18.709 200.55 18.6283 201.073 18.4712C201.759 18.2664 202.277 17.9289 202.624 17.4532C202.972 16.9771 203.148 16.3828 203.148 15.6689C203.148 14.9934 202.986 14.3939 202.662 13.8804C202.334 13.3616 201.868 13.0097 201.269 12.8196C200.665 12.629 199.627 12.5343 198.157 12.5343H194.075V18.709ZM194.075 28.1428H199.161C200.037 28.1428 200.65 28.1094 201.002 28.0473C201.626 27.9332 202.144 27.7477 202.562 27.4861C202.981 27.2291 203.324 26.8488 203.595 26.354C203.862 25.8543 203.999 25.2837 203.999 24.6316C203.999 23.8706 203.804 23.2095 203.414 22.6431C203.024 22.0818 202.481 21.6872 201.787 21.4588C201.097 21.235 200.098 21.1207 198.8 21.1207H194.075V28.1428ZM219.86 28.728C218.928 29.5176 218.033 30.0744 217.177 30.4022C216.316 30.7259 215.393 30.8875 214.408 30.8875C212.781 30.8875 211.534 30.4929 210.659 29.6982C209.789 28.9038 209.351 27.8858 209.351 26.6536C209.351 25.9256 209.513 25.2644 209.846 24.6649C210.174 24.0659 210.607 23.5851 211.14 23.2235C211.677 22.8623 212.277 22.5858 212.948 22.4008C213.438 22.2724 214.18 22.1439 215.174 22.0245C217.2 21.7819 218.694 21.497 219.651 21.159C219.66 20.8165 219.665 20.5977 219.665 20.5074C219.665 19.4843 219.427 18.7615 218.951 18.3475C218.314 17.7763 217.357 17.4962 216.097 17.4962C214.917 17.4962 214.046 17.7004 213.48 18.1144C212.919 18.5284 212.505 19.2609 212.234 20.3122L209.784 19.9741C210.008 18.9275 210.374 18.0762 210.883 17.4338C211.392 16.787 212.134 16.2873 213.1 15.9401C214.066 15.5929 215.184 15.417 216.458 15.417C217.724 15.417 218.747 15.569 219.536 15.8641C220.326 16.164 220.907 16.5351 221.282 16.9867C221.654 17.4389 221.911 18.0049 222.062 18.6947C222.144 19.1228 222.186 19.8936 222.186 21.0066V24.3513C222.186 26.6866 222.238 28.1616 222.348 28.7754C222.452 29.3938 222.667 29.9886 222.981 30.5546H220.359C220.103 30.0361 219.932 29.4268 219.86 28.728ZM219.651 23.1237C218.737 23.4995 217.372 23.8135 215.554 24.0751C214.522 24.2228 213.789 24.389 213.366 24.5747C212.938 24.7601 212.605 25.0314 212.377 25.3929C212.144 25.7498 212.024 26.1448 212.024 26.5823C212.024 27.253 212.281 27.8098 212.786 28.2569C213.29 28.6994 214.032 28.9228 215.007 28.9228C215.973 28.9228 216.834 28.7136 217.586 28.29C218.337 27.8668 218.894 27.2864 219.246 26.5537C219.517 25.9877 219.651 25.1502 219.651 24.0465V23.1237ZM226.078 30.5546V15.7546H228.333V17.8574C229.423 16.2302 230.992 15.417 233.042 15.417C233.937 15.417 234.755 15.5786 235.502 15.8972C236.254 16.2209 236.81 16.6395 237.181 17.1626C237.557 17.6816 237.814 18.3001 237.966 19.0133C238.056 19.4796 238.104 20.2934 238.104 21.4542V30.5546H235.593V21.5488C235.593 20.5309 235.497 19.7652 235.302 19.2559C235.107 18.7517 234.76 18.3475 234.265 18.0476C233.766 17.7433 233.185 17.5909 232.515 17.5909C231.444 17.5909 230.526 17.9334 229.746 18.6088C228.97 19.2895 228.585 20.5738 228.585 22.4717V30.5546H226.078ZM241.963 30.5546V10.1218H244.474V21.7728L250.411 15.7546H253.656L248 21.2446L254.231 30.5546H251.134L246.244 22.9856L244.474 24.6889V30.5546H241.963ZM264.36 30.5546V10.1218H267.067V28.1428H277.128V30.5546H264.36ZM285.506 28.309L285.868 30.526C285.164 30.6734 284.531 30.7498 283.974 30.7498C283.061 30.7498 282.357 30.6071 281.852 30.3166C281.353 30.0315 281.001 29.6508 280.797 29.1797C280.592 28.7136 280.487 27.7242 280.487 26.2207V17.705H278.646V15.7546H280.487V12.0865L282.985 10.5836V15.7546H285.506V17.705H282.985V26.3584C282.985 27.0772 283.028 27.5335 283.113 27.7383C283.204 27.9428 283.347 28.1046 283.546 28.2283C283.746 28.3472 284.031 28.4089 284.402 28.4089C284.683 28.4089 285.049 28.3756 285.506 28.309ZM297.561 30.5546V28.685C296.624 30.1549 295.244 30.8875 293.422 30.8875C292.243 30.8875 291.158 30.5642 290.168 29.9122C289.179 29.2653 288.413 28.3568 287.866 27.1863C287.324 26.021 287.052 24.6841 287.052 23.1665C287.052 21.6917 287.3 20.3503 287.79 19.1467C288.285 17.9433 289.022 17.02 290.007 16.3828C290.992 15.7404 292.095 15.417 293.313 15.417C294.202 15.417 294.997 15.6072 295.692 15.983C296.391 16.3586 296.957 16.8486 297.395 17.4532V10.1218H299.888V30.5546H297.561ZM289.631 23.1665C289.631 25.0645 290.031 26.4824 290.83 27.4193C291.629 28.3568 292.571 28.8279 293.66 28.8279C294.754 28.8279 295.687 28.3756 296.453 27.4816C297.219 26.5867 297.604 25.2171 297.604 23.3761C297.604 21.3491 297.214 19.8651 296.434 18.9183C295.654 17.9665 294.693 17.4962 293.546 17.4962C292.433 17.4962 291.5 17.9524 290.754 18.8613C290.007 19.7698 289.631 21.2063 289.631 23.1665ZM304.545 30.5546V27.6957H307.404V30.5546H304.545Z" fill="white"/>
<path d="M191.002 34.1863H192.485L193.357 35.7034L194.228 34.1863H195.702L194.022 36.7977V38.6792H192.685V36.7977L191.002 34.1863ZM195.694 37.0611C195.694 36.5651 195.855 36.1553 196.177 35.834C196.499 35.5117 196.934 35.3509 197.482 35.3509C198.109 35.3509 198.582 35.5399 198.902 35.9178C199.16 36.2221 199.288 36.5977 199.288 37.0432C199.288 37.5435 199.128 37.9533 198.809 38.2735C198.49 38.5925 198.049 38.7528 197.485 38.7528C196.982 38.7528 196.576 38.6196 196.266 38.3539C195.884 38.0257 195.694 37.5944 195.694 37.0611ZM196.896 37.058C196.896 37.3484 196.952 37.5631 197.066 37.7012C197.178 37.84 197.32 37.9101 197.491 37.9101C197.664 37.9101 197.806 37.8409 197.917 37.7044C198.028 37.5672 198.083 37.3484 198.083 37.0452C198.083 36.7637 198.027 36.5536 197.916 36.4155C197.804 36.2784 197.665 36.2096 197.5 36.2096C197.325 36.2096 197.181 36.2795 197.067 36.4185C196.953 36.5588 196.896 36.7724 196.896 37.058ZM203.464 38.679H202.344V38.1519C202.177 38.3686 202.009 38.5231 201.84 38.6142C201.669 38.706 201.46 38.7525 201.213 38.7525C200.883 38.7525 200.624 38.65 200.437 38.4446C200.25 38.2395 200.156 37.9231 200.156 37.4959V35.425H201.361V37.2144C201.361 37.4188 201.397 37.564 201.47 37.6499C201.543 37.7355 201.644 37.7783 201.776 37.7783C201.92 37.7783 202.036 37.7211 202.128 37.607C202.22 37.4917 202.265 37.2868 202.265 36.9905V35.425H203.464V38.679ZM204.505 35.425H205.628V35.9573C205.736 35.7274 205.848 35.5683 205.963 35.4816C206.077 35.3945 206.219 35.3506 206.387 35.3506C206.564 35.3506 206.758 35.4081 206.968 35.5222L206.597 36.4115C206.457 36.3497 206.344 36.3193 206.261 36.3193C206.104 36.3193 205.982 36.3869 205.896 36.521C205.773 36.7116 205.71 37.0671 205.71 37.5882V38.679H204.505V35.425ZM210.275 34.1861H213.576V35.1518H211.616V35.9363H213.289V36.8432H211.616V38.679H210.275V34.1861ZM215.453 36.4781L214.308 36.3528C214.351 36.1443 214.413 35.9801 214.495 35.8608C214.577 35.7417 214.693 35.638 214.847 35.5505C214.956 35.4868 215.108 35.4371 215.3 35.4032C215.493 35.3683 215.701 35.3506 215.925 35.3506C216.284 35.3506 216.573 35.3714 216.791 35.4132C217.009 35.455 217.191 35.5433 217.336 35.6758C217.438 35.768 217.519 35.8977 217.578 36.0664C217.637 36.2355 217.665 36.3957 217.665 36.5492V37.9868C217.665 38.1392 217.676 38.2594 217.693 38.3467C217.713 38.4332 217.753 38.544 217.816 38.679H216.691C216.646 38.5954 216.617 38.5317 216.602 38.488C216.589 38.4435 216.575 38.3746 216.561 38.2804C216.405 38.4383 216.248 38.5505 216.093 38.6173C215.881 38.7071 215.634 38.7525 215.354 38.7525C214.981 38.7525 214.697 38.6623 214.503 38.4822C214.31 38.3034 214.213 38.0815 214.213 37.8181C214.213 37.5703 214.283 37.3674 214.423 37.2084C214.562 37.0481 214.819 36.93 215.194 36.8524C215.645 36.7585 215.936 36.6929 216.07 36.6551C216.203 36.6173 216.344 36.5668 216.493 36.5063C216.493 36.3528 216.463 36.2458 216.403 36.1841C216.342 36.1233 216.234 36.0923 216.081 36.0923C215.885 36.0923 215.738 36.1256 215.639 36.1908C215.563 36.2417 215.5 36.3381 215.453 36.4781ZM216.493 37.134C216.328 37.1961 216.156 37.2501 215.978 37.2975C215.735 37.3643 215.58 37.4311 215.516 37.4959C215.448 37.564 215.415 37.6407 215.415 37.7262C215.415 37.8246 215.448 37.9041 215.514 37.9669C215.58 38.0286 215.677 38.0597 215.804 38.0597C215.938 38.0597 216.062 38.0266 216.177 37.9593C216.292 37.8914 216.373 37.8087 216.422 37.7124C216.47 37.615 216.493 37.4887 216.493 37.3337L216.493 37.134ZM218.695 35.425H219.815V35.8996C219.976 35.7008 220.138 35.5607 220.303 35.476C220.466 35.3924 220.665 35.3506 220.897 35.3506C221.146 35.3506 221.344 35.3964 221.488 35.4887C221.634 35.5806 221.753 35.7176 221.845 35.8996C222.033 35.6876 222.205 35.5422 222.361 35.4657C222.516 35.3893 222.707 35.3506 222.935 35.3506C223.271 35.3506 223.533 35.4541 223.721 35.6626C223.911 35.8695 224.004 36.1937 224.004 36.6352V38.679H222.803V36.8254C222.803 36.6781 222.775 36.568 222.72 36.4971C222.639 36.385 222.539 36.3288 222.419 36.3288C222.279 36.3288 222.164 36.3818 222.077 36.4875C221.991 36.5946 221.949 36.7648 221.949 37.0003V38.679H220.746V36.8861C220.746 36.7429 220.737 36.6463 220.723 36.5954C220.697 36.5139 220.652 36.4477 220.59 36.3977C220.527 36.3472 220.453 36.3221 220.368 36.3221C220.231 36.3221 220.118 36.3767 220.03 36.4844C219.941 36.5934 219.897 36.7708 219.897 37.0182V38.679H218.695V35.425ZM225.066 34.1861H226.266V35.0354H225.066V34.1861ZM225.066 35.425H226.266V38.679H225.066V35.425ZM227.375 34.1861H228.577V38.679H227.375V34.1861ZM229.401 35.425H230.667L231.313 37.5911L231.911 35.425H233.093L231.852 38.9029C231.711 39.2995 231.566 39.5672 231.419 39.7053C231.21 39.9021 230.894 40 230.468 40C230.294 40 230.028 39.9749 229.666 39.926L229.572 39.0557C229.744 39.1134 229.937 39.1415 230.149 39.1415C230.29 39.1415 230.405 39.1078 230.493 39.0409C230.58 38.9732 230.654 38.8529 230.714 38.679L229.401 35.425ZM236.535 34.1861H239.034C239.45 34.1861 239.77 34.2942 239.992 34.5083C240.215 34.723 240.327 34.9887 240.327 35.3046C240.327 35.5703 240.248 35.7982 240.089 35.9888C239.982 36.1153 239.828 36.2156 239.623 36.2891C239.933 36.366 240.161 36.5003 240.308 36.6882C240.454 36.8779 240.527 37.1153 240.527 37.4009C240.527 37.634 240.475 37.8436 240.371 38.0295C240.266 38.2156 240.125 38.362 239.944 38.471C239.833 38.5378 239.663 38.5868 239.437 38.6173C239.136 38.6583 238.937 38.679 238.839 38.679H236.535V34.1861ZM237.881 35.9491H238.462C238.67 35.9491 238.815 35.9113 238.897 35.8369C238.979 35.7613 239.019 35.6539 239.019 35.5138C239.019 35.3833 238.979 35.2807 238.897 35.2073C238.815 35.1328 238.673 35.0962 238.471 35.0962H237.881V35.9491ZM237.881 37.7135H238.562C238.792 37.7135 238.955 37.6718 239.048 37.587C239.142 37.5024 239.19 37.3882 239.19 37.245C239.19 37.1118 239.143 37.0055 239.05 36.9247C238.957 36.8443 238.793 36.8034 238.559 36.8034H237.881V37.7135ZM242.541 36.4781L241.395 36.3528C241.439 36.1443 241.501 35.9801 241.583 35.8608C241.664 35.7417 241.78 35.638 241.935 35.5505C242.044 35.4868 242.196 35.4371 242.388 35.4032C242.58 35.3683 242.788 35.3506 243.012 35.3506C243.372 35.3506 243.661 35.3714 243.878 35.4132C244.097 35.455 244.278 35.5433 244.423 35.6758C244.526 35.768 244.606 35.8977 244.666 36.0664C244.724 36.2355 244.753 36.3957 244.753 36.5492V37.9868C244.753 38.1392 244.763 38.2594 244.781 38.3467C244.8 38.4332 244.841 38.544 244.904 38.679H243.779C243.733 38.5954 243.704 38.5317 243.69 38.488C243.677 38.4435 243.663 38.3746 243.649 38.2804C243.492 38.4383 243.335 38.5505 243.181 38.6173C242.968 38.7071 242.722 38.7525 242.441 38.7525C242.068 38.7525 241.785 38.6623 241.59 38.4822C241.397 38.3034 241.301 38.0815 241.301 37.8181C241.301 37.5703 241.37 37.3674 241.51 37.2084C241.65 37.0481 241.906 36.93 242.282 36.8524C242.732 36.7585 243.023 36.6929 243.157 36.6551C243.29 36.6173 243.432 36.5668 243.581 36.5063C243.581 36.3528 243.551 36.2458 243.49 36.1841C243.429 36.1233 243.322 36.0923 243.168 36.0923C242.972 36.0923 242.826 36.1256 242.727 36.1908C242.65 36.2417 242.588 36.3381 242.541 36.4781ZM243.581 37.134C243.416 37.1961 243.244 37.2501 243.066 37.2975C242.823 37.3643 242.668 37.4311 242.603 37.4959C242.536 37.564 242.502 37.6407 242.502 37.7262C242.502 37.8246 242.536 37.9041 242.601 37.9669C242.668 38.0286 242.764 38.0597 242.891 38.0597C243.025 38.0597 243.149 38.0266 243.265 37.9593C243.379 37.8914 243.461 37.8087 243.509 37.7124C243.557 37.615 243.581 37.4887 243.581 37.3337V37.134ZM245.774 35.425H246.891V35.9542C247.058 35.7374 247.227 35.5839 247.397 35.4908C247.569 35.3974 247.777 35.3506 248.023 35.3506C248.354 35.3506 248.614 35.4541 248.802 35.659C248.989 35.8643 249.082 36.181 249.082 36.6098V38.679H247.878V36.889C247.878 36.6853 247.841 36.5409 247.769 36.4562C247.696 36.3707 247.594 36.3288 247.462 36.3288C247.317 36.3288 247.199 36.3858 247.109 36.5003C247.019 36.6144 246.973 36.8202 246.973 37.1165V38.679H245.774V35.425ZM250.1 34.1861H251.326V36.5031L252.222 35.425H253.698L252.575 36.5648L253.762 38.679H252.41L251.776 37.3734L251.326 37.8328V38.679H250.1V34.1861ZM254.429 37.4291H255.711V38.679H254.429V37.4291ZM262.192 37.9372H260.671L260.462 38.679H259.098L260.721 34.1861H262.177L263.801 38.679H262.404L262.192 37.9372ZM261.912 36.9657L261.434 35.3506L260.96 36.9657H261.912ZM266.784 37.4071L267.923 37.5422C267.86 37.7888 267.757 38.0035 267.614 38.1841C267.471 38.3651 267.287 38.5052 267.064 38.6057C266.842 38.7051 266.558 38.7554 266.215 38.7554C265.883 38.7554 265.605 38.7228 265.386 38.6591C265.165 38.5943 264.974 38.4908 264.816 38.3467C264.655 38.2019 264.531 38.0337 264.441 37.8389C264.351 37.6456 264.306 37.3882 264.306 37.0671C264.306 36.7327 264.36 36.4533 264.471 36.2305C264.551 36.0672 264.661 35.9204 264.801 35.791C264.94 35.661 265.083 35.5642 265.231 35.5015C265.464 35.4009 265.764 35.3506 266.129 35.3506C266.64 35.3506 267.029 35.4459 267.297 35.636C267.565 35.8257 267.754 36.1034 267.862 36.4701L266.733 36.6256C266.698 36.4864 266.633 36.3818 266.54 36.3121C266.447 36.2406 266.322 36.206 266.164 36.206C265.966 36.206 265.805 36.2804 265.682 36.4278C265.56 36.5767 265.498 36.8004 265.498 37.1006C265.498 37.3683 265.56 37.5712 265.681 37.7104C265.803 37.8496 265.958 37.9184 266.147 37.9184C266.304 37.9184 266.436 37.8766 266.544 37.7931C266.65 37.7095 266.73 37.581 266.784 37.4071ZM268.788 35.425H269.91V35.9573C270.019 35.7274 270.13 35.5683 270.245 35.4816C270.359 35.3945 270.502 35.3506 270.67 35.3506C270.847 35.3506 271.04 35.4081 271.251 35.5222L270.88 36.4115C270.739 36.3497 270.626 36.3193 270.543 36.3193C270.387 36.3193 270.265 36.3869 270.178 36.521C270.055 36.7116 269.992 37.0671 269.992 37.5882V38.679H268.788V35.425ZM271.706 37.0609C271.706 36.5648 271.867 36.155 272.189 35.8337C272.512 35.5115 272.946 35.3506 273.494 35.3506C274.121 35.3506 274.594 35.5397 274.914 35.9175C275.172 36.2219 275.301 36.5975 275.301 37.043C275.301 37.5433 275.14 37.953 274.822 38.2733C274.503 38.5923 274.061 38.7525 273.497 38.7525C272.994 38.7525 272.588 38.6193 272.278 38.3537C271.897 38.0255 271.706 37.5942 271.706 37.0609ZM272.908 37.0577C272.908 37.3482 272.964 37.5629 273.078 37.701C273.191 37.8397 273.333 37.9099 273.503 37.9099C273.676 37.9099 273.818 37.8407 273.929 37.7042C274.04 37.5669 274.095 37.3482 274.095 37.045C274.095 36.7635 274.039 36.5534 273.928 36.4153C273.816 36.2782 273.677 36.2093 273.512 36.2093C273.337 36.2093 273.193 36.2793 273.079 36.4182C272.966 36.5585 272.908 36.7721 272.908 37.0577ZM275.967 37.7781L277.158 37.6612C277.207 37.8085 277.275 37.9142 277.364 37.9767C277.452 38.0407 277.57 38.0721 277.718 38.0721C277.879 38.0721 278.003 38.0364 278.092 37.9647C278.16 37.9122 278.195 37.8453 278.195 37.7658C278.195 37.6756 278.149 37.6067 278.06 37.5573C277.994 37.5231 277.822 37.4802 277.544 37.4288C277.128 37.3522 276.838 37.2834 276.676 37.2188C276.514 37.1536 276.378 37.045 276.267 36.892C276.155 36.7395 276.1 36.5646 276.1 36.3684C276.1 36.1537 276.16 35.9687 276.28 35.8136C276.4 35.6577 276.565 35.5419 276.774 35.4655C276.985 35.3891 277.267 35.3504 277.62 35.3504C277.993 35.3504 278.269 35.3808 278.447 35.4392C278.625 35.4986 278.773 35.5908 278.892 35.7153C279.01 35.8397 279.109 36.0084 279.188 36.2205L278.051 36.3378C278.021 36.2332 277.972 36.1568 277.903 36.1079C277.809 36.0415 277.695 36.0096 277.561 36.0096C277.426 36.0096 277.327 36.0344 277.266 36.0844C277.203 36.1349 277.173 36.1955 277.173 36.2665C277.173 36.347 277.212 36.4066 277.291 36.4475C277.369 36.4881 277.54 36.5248 277.803 36.5585C278.202 36.6055 278.498 36.6703 278.692 36.7543C278.887 36.8379 279.036 36.9571 279.139 37.1127C279.243 37.2677 279.294 37.4384 279.294 37.6246C279.294 37.8127 279.239 37.9957 279.13 38.1736C279.021 38.3515 278.849 38.4926 278.615 38.5972C278.38 38.7027 278.06 38.7552 277.656 38.7552C277.084 38.7552 276.677 38.6707 276.435 38.5009C276.192 38.3315 276.036 38.09 275.967 37.7781ZM279.955 37.7781L281.145 37.6612C281.195 37.8085 281.263 37.9142 281.352 37.9767C281.44 38.0407 281.557 38.0721 281.706 38.0721C281.866 38.0721 281.991 38.0364 282.079 37.9647C282.148 37.9122 282.182 37.8453 282.182 37.7658C282.182 37.6756 282.137 37.6067 282.048 37.5573C281.982 37.5231 281.81 37.4802 281.531 37.4288C281.115 37.3522 280.826 37.2834 280.663 37.2188C280.502 37.1536 280.365 37.045 280.254 36.892C280.143 36.7395 280.087 36.5646 280.087 36.3684C280.087 36.1537 280.148 35.9687 280.268 35.8136C280.387 35.6577 280.552 35.5419 280.762 35.4655C280.972 35.3891 281.254 35.3504 281.608 35.3504C281.981 35.3504 282.256 35.3808 282.435 35.4392C282.613 35.4986 282.76 35.5908 282.879 35.7153C282.998 35.8397 283.096 36.0084 283.176 36.2205L282.038 36.3378C282.008 36.2332 281.96 36.1568 281.891 36.1079C281.796 36.0415 281.683 36.0096 281.549 36.0096C281.414 36.0096 281.315 36.0344 281.253 36.0844C281.19 36.1349 281.161 36.1955 281.161 36.2665C281.161 36.347 281.2 36.4066 281.278 36.4475C281.356 36.4881 281.528 36.5248 281.791 36.5585C282.189 36.6055 282.486 36.6703 282.68 36.7543C282.875 36.8379 283.024 36.9571 283.126 37.1127C283.23 37.2677 283.281 37.4384 283.281 37.6246C283.281 37.8127 283.227 37.9957 283.118 38.1736C283.009 38.3515 282.837 38.4926 282.602 38.5972C282.367 38.7027 282.048 38.7552 281.643 38.7552C281.072 38.7552 280.665 38.6707 280.422 38.5009C280.18 38.3315 280.024 38.09 279.955 37.7781ZM287.004 34.1858H288.341V38.6787H287.004V34.1858ZM289.521 35.4248H290.638V35.954C290.806 35.7372 290.974 35.5837 291.145 35.4905C291.316 35.3971 291.524 35.3504 291.77 35.3504C292.102 35.3504 292.361 35.4539 292.549 35.6588C292.736 35.8641 292.83 36.1807 292.83 36.6095V38.6787H291.625V36.8888C291.625 36.685 291.589 36.5407 291.516 36.456C291.443 36.3705 291.341 36.3286 291.21 36.3286C291.065 36.3286 290.946 36.3856 290.857 36.5C290.766 36.6142 290.72 36.82 290.72 37.1163V38.6787H289.521V35.4248ZM297.141 34.1858V38.6787H296.02V38.1974C295.861 38.4014 295.719 38.5395 295.589 38.612C295.416 38.7049 295.224 38.7523 295.012 38.7523C294.586 38.7523 294.259 38.5836 294.034 38.2471C293.81 37.9099 293.698 37.5002 293.698 37.0179C293.698 36.4779 293.821 36.0661 294.07 35.7801C294.319 35.4936 294.635 35.3504 295.017 35.3504C295.204 35.3504 295.373 35.384 295.526 35.4488C295.678 35.5144 295.812 35.6119 295.931 35.7428V34.1858H297.141ZM295.939 37.0428C295.939 36.7865 295.888 36.5963 295.783 36.4707C295.68 36.3449 295.548 36.2822 295.389 36.2822C295.249 36.2822 295.133 36.343 295.038 36.4632C294.944 36.5836 294.896 36.7853 294.896 37.0698C294.896 37.3354 294.945 37.5303 295.042 37.6536C295.139 37.777 295.26 37.8386 295.403 37.8386C295.557 37.8386 295.684 37.777 295.786 37.6525C295.889 37.5271 295.939 37.3243 295.939 37.0428ZM298.218 34.1858H299.418V35.0352H298.218V34.1858ZM298.218 35.4248H299.418V38.6787H298.218V35.4248ZM301.578 36.4779L300.433 36.3526C300.476 36.1441 300.538 35.9799 300.62 35.8605C300.701 35.7414 300.818 35.6378 300.972 35.5502C301.081 35.4865 301.233 35.4369 301.425 35.403C301.617 35.3681 301.825 35.3504 302.05 35.3504C302.409 35.3504 302.698 35.3712 302.915 35.413C303.134 35.4548 303.316 35.543 303.46 35.6755C303.563 35.7678 303.643 35.8974 303.703 36.0661C303.762 36.2353 303.79 36.3954 303.79 36.5489V37.9866C303.79 38.139 303.801 38.2592 303.818 38.3465C303.838 38.433 303.878 38.5438 303.942 38.6787H302.816C302.771 38.5952 302.741 38.5315 302.727 38.4878C302.714 38.4433 302.7 38.3744 302.686 38.2801C302.529 38.4381 302.372 38.5503 302.217 38.6171C302.005 38.7069 301.759 38.7523 301.479 38.7523C301.106 38.7523 300.822 38.662 300.628 38.4819C300.435 38.3032 300.338 38.0813 300.338 37.8178C300.338 37.5701 300.408 37.3672 300.547 37.2081C300.687 37.0479 300.943 36.9297 301.319 36.8522C301.769 36.7583 302.061 36.6926 302.194 36.6549C302.328 36.6171 302.469 36.5666 302.618 36.506C302.618 36.3526 302.587 36.2455 302.527 36.1839C302.466 36.1231 302.359 36.0921 302.205 36.0921C302.009 36.0921 301.863 36.1253 301.764 36.1906C301.688 36.2415 301.625 36.3378 301.578 36.4779ZM302.618 37.1337C302.453 37.1958 302.281 37.2499 302.103 37.2973C301.86 37.364 301.705 37.4309 301.64 37.4957C301.573 37.5638 301.54 37.6405 301.54 37.726C301.54 37.8244 301.573 37.9039 301.638 37.9667C301.705 38.0284 301.801 38.0594 301.929 38.0594C302.063 38.0594 302.186 38.0263 302.302 37.9591C302.417 37.8911 302.498 37.8085 302.546 37.7122C302.595 37.6148 302.618 37.4885 302.618 37.3335V37.1337ZM304.814 37.4288H306.097V38.6787H304.814V37.4288Z" fill="white"/>
<path fill-rule="evenodd" clip-rule="evenodd" d="M31.8739 27.2972L28.9728 22.5802L26.1275 27.2972H31.8739ZM31.8684 12.6678H26.0921L28.9707 17.2903L31.8684 12.6678ZM18.3448 5.32557L15.4829 10.0173H21.2302L18.3448 5.32557ZM4.88304 12.6678L7.73924 17.3189L10.5809 12.6678H4.88304ZM4.87989 27.3368L10.5858 27.3017L7.7401 22.6262L4.87989 27.3368ZM0 10.0173H12.2592L18.0258 0.595642L18.3902 -3.13869e-05L18.7548 0.595642L24.5211 10.0173H36.7801L36.415 10.6102L30.6498 19.9709L36.4165 29.3986L36.7791 29.9915H24.5209L18.7548 39.3913L18.3902 39.9856L18.0258 39.3913L12.2595 29.9915H0.00118237L0.363537 29.3986L6.13008 19.9709L0.365114 10.6102L0 10.0173ZM13.8635 12.7562L9.21841 19.9732L13.8635 27.253H22.9163L27.5617 19.9732L22.9163 12.7562H13.8635ZM18.3857 34.6439L21.2307 29.9915H15.4888L18.3857 34.6439ZM18.0572 16.9006C18.9622 16.9006 19.7854 17.2485 20.3819 17.8098V17.8082C20.9773 18.3679 21.3472 19.1415 21.3472 19.9935C21.3472 20.8441 20.9773 21.617 20.3819 22.1772V22.1787C19.7867 22.7385 18.9633 23.0862 18.0572 23.0862C17.1512 23.0862 16.3283 22.7385 15.733 22.1787H15.7346C15.1376 21.6177 14.7673 20.8439 14.7673 19.9933C14.7673 19.1435 15.1367 18.3704 15.7328 17.8097C15.7332 17.8092 15.7343 17.8081 15.7343 17.8081C16.3307 17.2477 17.1534 16.9006 18.0572 16.9006Z" fill="white"/>
</svg>
