<svg width="136" height="40" viewBox="0 0 136 40" fill="none" xmlns="http://www.w3.org/2000/svg">
<path fill-rule="evenodd" clip-rule="evenodd" d="M0.0947266 0H135.993V39.9998H0.0947266V0Z" fill="#E7E514"/>
<path fill-rule="evenodd" clip-rule="evenodd" d="M24.6441 22.8811L22.386 17.3767C22.386 17.3734 22.3782 17.3685 22.3782 17.3652V17.3513L22.3626 17.3145C22.2302 17.0027 22.0745 16.7883 21.8954 16.6721C21.8798 16.6607 21.8487 16.6402 21.802 16.619C21.7553 16.5936 21.7241 16.5756 21.7085 16.5633C21.6151 16.5363 21.5528 16.5085 21.5217 16.4766C21.4905 16.4463 21.4749 16.4021 21.4749 16.3473C21.4749 16.2867 21.5061 16.2385 21.5528 16.2C21.6073 16.1624 21.6774 16.1411 21.7631 16.1411C21.7942 16.1411 21.8409 16.146 21.911 16.1575C21.9344 16.1591 21.9577 16.1624 21.9655 16.1624L21.9811 16.1665C22.2458 16.1975 22.4794 16.2131 22.6819 16.2131C22.822 16.2131 22.9622 16.2098 23.1101 16.2033C23.2581 16.1975 23.4294 16.1877 23.6163 16.1763C23.6708 16.173 23.7486 16.1665 23.8732 16.1575C23.99 16.146 24.0757 16.1411 24.1302 16.1411C24.2158 16.1411 24.2781 16.1575 24.3093 16.1845C24.3404 16.2131 24.356 16.2614 24.356 16.3285C24.356 16.3857 24.3482 16.4324 24.317 16.4627C24.3015 16.4929 24.247 16.5265 24.1613 16.5633C24.1457 16.5731 24.138 16.5772 24.1302 16.5805C24.1302 16.5805 24.1224 16.5838 24.1146 16.587C23.9121 16.6844 23.8031 16.8202 23.8031 16.988C23.8031 17.0428 23.8187 17.1181 23.8421 17.2138C23.8732 17.3079 23.9121 17.4184 23.9589 17.5444L25.3293 20.968C25.3371 21.0032 25.3604 21.0351 25.376 21.0588C25.3994 21.0793 25.4305 21.0907 25.4539 21.0907C25.4772 21.0907 25.5084 21.0809 25.5317 21.0588C25.5551 21.04 25.5785 21.0089 25.594 20.9729L26.8399 17.8578C26.8866 17.7408 26.9178 17.6246 26.9489 17.5092C26.9723 17.3955 26.9878 17.2965 26.9878 17.2138C26.9878 17.0526 26.9489 16.9209 26.871 16.8235C26.7854 16.7261 26.6608 16.6541 26.4895 16.605C26.4661 16.5936 26.4272 16.5838 26.3883 16.5731C26.3727 16.5682 26.3649 16.5666 26.3649 16.5633H26.3571C26.1547 16.5118 26.0534 16.4275 26.0534 16.3105C26.0534 16.2499 26.0768 16.2098 26.1157 16.1763C26.1547 16.146 26.2092 16.1321 26.287 16.1321C26.3026 16.1321 26.3182 16.1329 26.3493 16.1378C26.3805 16.1395 26.4116 16.1411 26.435 16.1411C26.4506 16.1444 26.4661 16.1476 26.4895 16.1525C26.7932 16.1845 27.0735 16.2033 27.3304 16.2033C27.4395 16.2033 27.5562 16.2016 27.6653 16.1943C27.7743 16.1845 27.8911 16.1714 28.0234 16.1525C28.039 16.1525 28.0624 16.1493 28.0857 16.146C28.1091 16.1427 28.1325 16.1411 28.1325 16.1411C28.2103 16.1444 28.257 16.1591 28.2804 16.1828C28.3038 16.2065 28.3193 16.2483 28.3193 16.3105C28.3193 16.4078 28.2493 16.5044 28.1091 16.5903L28.1013 16.5952C28.1013 16.5985 28.0935 16.605 28.0779 16.6157C28.0234 16.6476 27.9845 16.677 27.9534 16.7008C27.8366 16.8096 27.6886 17.0649 27.5173 17.4659C27.5017 17.5092 27.4862 17.5395 27.4784 17.5624C27.4706 17.5747 27.4706 17.5878 27.4628 17.6066C27.455 17.6197 27.4472 17.6434 27.4317 17.6786L25.4695 22.305C25.4617 22.3214 25.4539 22.3419 25.4461 22.3664C25.4305 22.3885 25.4149 22.4237 25.3994 22.4687C25.267 22.7862 25.1658 22.9875 25.1035 23.0709C25.0412 23.1544 24.9711 23.1953 24.901 23.1953C24.8465 23.1953 24.8076 23.1749 24.7687 23.1331C24.7297 23.0914 24.6908 23.0071 24.6441 22.8811ZM32.127 16.1043V16.6443C31.9868 16.5838 31.8311 16.5519 31.652 16.5519C31.3872 16.5519 31.2081 16.6091 31.1069 16.7278C31.0135 16.8464 30.9668 17.105 30.9668 17.5043V18.4731C30.9668 18.7162 31.0213 18.8806 31.1381 18.9764C31.2471 19.0737 31.4495 19.1204 31.7221 19.1204C31.87 19.1204 32.0024 19.1073 32.127 19.0836V19.6105C31.9557 19.5786 31.7766 19.5614 31.5741 19.5614C31.286 19.5614 31.1147 19.5884 31.0524 19.6416C30.9979 19.694 30.9668 19.8413 30.9668 20.0826V21.7462C30.9668 22.0931 31.0213 22.3181 31.1459 22.4171C31.2626 22.5178 31.4962 22.5693 31.8311 22.5693C31.9323 22.5693 32.0335 22.5628 32.127 22.5497V23.0276C31.9946 23.0325 31.8622 23.0374 31.7298 23.0374C31.504 23.0374 31.2159 23.0292 30.8655 23.0186C30.7799 23.0137 30.7176 23.0071 30.6864 23.0071C30.6631 23.0071 30.6319 23.0071 30.6008 23.0038C30.4373 22.9924 30.3361 22.9875 30.2815 22.9875C30.1102 22.9875 29.9389 22.9924 29.7832 23.0071C29.6197 23.0186 29.4562 23.0325 29.2849 23.0562C29.2615 23.0595 29.2381 23.0644 29.1992 23.066C29.1213 23.0742 29.0668 23.0775 29.0357 23.0775C28.9812 23.0775 28.9345 23.0546 28.8955 23.0137C28.8566 22.9736 28.841 22.9236 28.841 22.8713C28.841 22.8165 28.8566 22.769 28.8877 22.7322C28.9189 22.6937 28.989 22.6471 29.0902 22.5963L29.1058 22.5865C29.2537 22.5096 29.3472 22.4368 29.4017 22.3615C29.464 22.278 29.5029 22.1676 29.5262 22.0383C29.5574 21.9074 29.573 21.6709 29.573 21.3272V17.7203C29.573 17.4233 29.5496 17.2024 29.5107 17.0584C29.4717 16.9152 29.4017 16.8031 29.316 16.7196C29.2226 16.6443 29.0902 16.5887 28.9111 16.5486C28.9111 16.5486 28.9033 16.5469 28.8955 16.5437L28.7554 16.5134C28.7242 16.5068 28.7009 16.4815 28.6697 16.4463C28.6542 16.4078 28.6386 16.371 28.6386 16.3285C28.6386 16.2769 28.6619 16.2311 28.6931 16.1943C28.732 16.1525 28.7787 16.1321 28.8255 16.1321C28.8488 16.1321 28.8722 16.1321 28.8877 16.1329C28.9033 16.1345 28.9267 16.1378 28.9423 16.1411C29.1447 16.164 29.3472 16.1795 29.5496 16.1877C29.7443 16.2 29.9545 16.2033 30.1647 16.2033C30.2893 16.2033 30.4139 16.2016 30.5541 16.1943C30.6864 16.1845 30.8422 16.1697 31.0135 16.1525C31.0602 16.1525 31.1381 16.146 31.2315 16.1378C31.5663 16.1141 31.8155 16.1026 31.9868 16.1026C32.0335 16.1026 32.0802 16.1026 32.127 16.1043ZM15.1834 21.3272V17.7203C15.1834 17.4233 15.1601 17.2024 15.1211 17.0584C15.0822 16.9176 15.0199 16.8031 14.9265 16.7196C14.8797 16.6795 14.8252 16.6443 14.7707 16.6206C14.7084 16.5936 14.6228 16.5682 14.506 16.5437C14.4982 16.5396 14.4826 16.5363 14.4593 16.5347C14.4515 16.5298 14.4203 16.5232 14.3736 16.5134C14.3425 16.5068 14.3191 16.4815 14.288 16.4463C14.2646 16.4078 14.249 16.3702 14.249 16.3285C14.249 16.2646 14.2724 16.2131 14.3191 16.1763C14.3658 16.1395 14.4281 16.1223 14.506 16.1223H14.5761C14.5916 16.1255 14.615 16.1272 14.6384 16.1321C14.6461 16.1345 14.6539 16.1378 14.6617 16.1378C15.0277 16.1746 15.3781 16.1943 15.7207 16.1943C16.0789 16.1943 16.4448 16.173 16.8264 16.1321C16.8653 16.1272 16.8887 16.1255 16.9042 16.1223C16.9276 16.119 16.9432 16.1174 16.9665 16.1174C16.9821 16.1141 16.9977 16.1124 17.021 16.1124C17.0911 16.1124 17.1534 16.1305 17.1923 16.1681C17.2391 16.2033 17.2546 16.2499 17.2546 16.3088C17.2546 16.3956 17.1846 16.4692 17.0444 16.5347C17.0288 16.5396 17.021 16.5437 17.021 16.5437C16.9587 16.5584 16.912 16.5772 16.8731 16.5952C16.8342 16.6157 16.803 16.6386 16.7797 16.6623C16.7096 16.7327 16.6551 16.817 16.6317 16.9152C16.6006 17.0125 16.585 17.1991 16.585 17.4855V19.1621C16.585 19.2112 16.5928 19.2529 16.6084 19.2865C16.6317 19.32 16.6473 19.3364 16.6706 19.3364C16.6784 19.3364 16.7018 19.3266 16.7329 19.3053C16.7641 19.2898 16.7952 19.2628 16.8264 19.2292L18.5005 17.6131C18.6874 17.4339 18.8275 17.2826 18.9054 17.1623C18.9833 17.0428 19.0222 16.9307 19.0222 16.8301C19.0222 16.6828 18.9287 16.5887 18.7341 16.5486L18.7263 16.5437H18.7029H18.6796C18.6796 16.5437 18.6718 16.5412 18.664 16.5396C18.5161 16.4995 18.446 16.4275 18.446 16.3285C18.446 16.2614 18.4616 16.2131 18.4927 16.1877C18.5238 16.1591 18.5783 16.1444 18.664 16.1411C18.7029 16.1411 18.7341 16.1411 18.7652 16.1427C18.7964 16.1444 18.8275 16.1476 18.8587 16.1525C18.8742 16.1542 18.9054 16.1575 18.9365 16.1575C19.2402 16.1746 19.4972 16.1845 19.723 16.1845C19.9799 16.1845 20.2525 16.1746 20.5328 16.1575L20.5561 16.1525C20.5717 16.1476 20.5951 16.1444 20.6106 16.1427C20.6262 16.1411 20.6418 16.1411 20.6651 16.1411C20.7586 16.1411 20.8365 16.1542 20.8676 16.1795C20.8987 16.2049 20.9221 16.2499 20.9221 16.3187C20.9221 16.3857 20.9065 16.434 20.8832 16.4627C20.8676 16.4913 20.8053 16.5183 20.7041 16.5486C20.6963 16.5519 20.6807 16.5584 20.6574 16.5682C20.5795 16.6018 20.5172 16.6304 20.4783 16.6525C20.1668 16.7998 19.7697 17.0985 19.2947 17.546L19.2636 17.5714L19.2402 17.6033L18.3603 18.4265C18.298 18.478 18.2591 18.519 18.2357 18.55C18.2202 18.5852 18.2046 18.6139 18.2046 18.6425C18.2046 18.6613 18.2124 18.6875 18.228 18.7194C18.2435 18.753 18.2669 18.8004 18.3058 18.8675L20.3693 22.0293C20.4627 22.1651 20.5483 22.2764 20.6262 22.355C20.7119 22.4335 20.7975 22.4941 20.891 22.5407C20.9221 22.5563 20.9532 22.571 21.0078 22.5816L21.0155 22.5865C21.0856 22.6013 21.1246 22.6233 21.1401 22.6487C21.1557 22.6782 21.1635 22.7289 21.1635 22.8042C21.1635 22.8917 21.1479 22.9523 21.109 22.9834C21.07 23.0137 20.9922 23.0276 20.8832 23.0276C20.8287 23.0276 20.7897 23.0259 20.7586 23.0259C20.7274 23.0227 20.7041 23.021 20.6807 23.0194C20.5951 23.0137 20.5172 23.0071 20.4471 23.0038C20.377 23.0006 20.307 22.9989 20.2369 22.9989C20.05 22.9989 19.8476 23.0071 19.6295 23.0276H19.614C19.5906 23.0308 19.575 23.0325 19.5595 23.0358C19.5439 23.0374 19.5283 23.0374 19.5127 23.0374C19.4193 23.0374 19.3259 22.9875 19.2246 22.8901C19.1234 22.7895 18.9988 22.6152 18.8431 22.3615L17.2702 19.8478C17.2391 19.7963 17.2079 19.7611 17.1846 19.7406C17.1612 19.721 17.13 19.7103 17.1145 19.7103C17.0911 19.7103 17.0678 19.7144 17.0522 19.721C17.0366 19.7292 17.021 19.7406 17.0055 19.7578L16.7174 20.0393C16.6629 20.0966 16.6239 20.1448 16.6084 20.1817C16.5928 20.2218 16.585 20.2807 16.585 20.3649V21.5989C16.585 21.8599 16.6084 22.0465 16.6551 22.1602C16.7096 22.2715 16.7952 22.3754 16.912 22.4638C16.9821 22.5096 17.0911 22.5563 17.2313 22.5914L17.2546 22.5963C17.3792 22.6315 17.4649 22.6651 17.5038 22.7003C17.5427 22.7371 17.5661 22.7862 17.5661 22.85C17.5661 22.9146 17.5427 22.967 17.5038 23.012C17.4649 23.0546 17.4259 23.0775 17.3714 23.0775C17.3091 23.0775 17.2546 23.0758 17.2079 23.0709C17.169 23.0693 17.1223 23.0644 17.0755 23.0562C16.8809 23.0276 16.694 23.0071 16.5227 22.9924C16.3436 22.9768 16.1645 22.9719 15.9854 22.9719C15.8219 22.9719 15.6506 22.9768 15.4793 22.9907C15.3158 23.0022 15.1445 23.021 14.981 23.0488C14.9109 23.0562 14.8486 23.0644 14.7941 23.0693C14.7396 23.0758 14.6929 23.0775 14.6461 23.0775C14.5916 23.0775 14.5527 23.0546 14.5138 23.0137C14.4748 22.9736 14.4515 22.9236 14.4515 22.8713C14.4515 22.7805 14.5371 22.6921 14.6929 22.6029L14.7006 22.5963C14.7785 22.5661 14.8408 22.5309 14.8875 22.4941C14.9342 22.454 14.981 22.4122 15.0121 22.3615C15.0744 22.2813 15.1133 22.1741 15.1445 22.0465C15.1678 21.9205 15.1834 21.6791 15.1834 21.3272ZM32.127 23.0276V22.5497C32.454 22.5072 32.7109 22.3885 32.9056 22.1921C33.1548 21.9393 33.2794 21.5752 33.2794 21.1006C33.2794 20.5957 33.1392 20.2103 32.8511 19.9509C32.6642 19.7864 32.4228 19.6719 32.127 19.6105V19.0836C32.3138 19.0418 32.4618 18.9698 32.5708 18.8643C32.7499 18.6949 32.8433 18.4265 32.8433 18.064C32.8433 17.6017 32.7343 17.2343 32.5163 16.961C32.4073 16.817 32.2749 16.7131 32.127 16.6443V16.1043C32.781 16.1223 33.3027 16.2646 33.6687 16.5363C34.0736 16.8235 34.2683 17.2294 34.2683 17.749C34.2683 18.1393 34.1592 18.4584 33.9412 18.7031C33.7154 18.9477 33.3806 19.122 32.929 19.2292C33.5597 19.2628 34.0191 19.4109 34.315 19.6768C34.6187 19.9452 34.7666 20.3412 34.7666 20.8657C34.7666 21.6038 34.5174 22.152 34.0191 22.5072C33.5908 22.8148 32.9601 22.9875 32.127 23.0276Z" fill="black"/>
<path fill-rule="evenodd" clip-rule="evenodd" d="M18.5239 8.68624C23.9355 4.26273 31.7844 5.29128 35.9969 10.9782C40.2016 16.6659 39.2283 24.9124 33.8089 29.3359C33.6531 29.4652 33.4896 29.5887 33.3339 29.7065C38.3329 25.2028 39.1349 17.2714 35.0469 11.7531C30.959 6.2331 23.445 5.10145 18.0645 9.08719C18.2124 8.95136 18.3681 8.81717 18.5239 8.68624Z" fill="#00854A"/>
<path fill-rule="evenodd" clip-rule="evenodd" d="M14.9658 7.10979C20.8135 2.32951 28.9427 2.70182 34.2921 7.58438C29.3943 3.60518 22.3164 3.45789 17.1772 7.6662C11.0881 12.6396 9.9513 21.8581 14.6388 28.1898C19.3263 34.5215 28.1095 35.6294 34.1908 30.6569C36.5658 28.7168 38.1854 26.1278 39.0029 23.3203C38.2087 26.7178 36.3633 29.8754 33.5368 32.1911C26.8948 37.6154 17.3174 36.406 12.2016 29.4982C7.08585 22.5913 8.3317 12.534 14.9658 7.10979Z" fill="#00854A"/>
<path fill-rule="evenodd" clip-rule="evenodd" d="M0 23.044H7.65418C9.11806 31.1366 15.9079 37.2916 24.0293 37.2916C30.3286 37.2916 35.8337 33.5807 38.6603 28.1328H136V40H0V23.044Z" fill="#00854A"/>
<path fill-rule="evenodd" clip-rule="evenodd" d="M78.8464 25.2991V23.7215H79.4226C79.6173 23.7215 79.7574 23.6863 79.8431 23.616C79.9365 23.5456 79.9755 23.4302 79.9755 23.2723C79.9755 23.2036 79.9677 23.1266 79.9521 23.0424C79.9365 22.9573 79.9054 22.8615 79.8664 22.7543L78.1768 17.8865H80.2168L81.0967 21.1096L81.961 17.8865H83.8532L82.2102 23.1749C82.0311 23.7682 81.8832 24.174 81.7819 24.3941C81.6807 24.6151 81.5717 24.7828 81.4627 24.8957C81.307 25.0545 81.1201 25.169 80.9098 25.2361C80.6996 25.3024 80.3492 25.3359 79.8664 25.3359C79.7341 25.3359 79.5706 25.3327 79.3992 25.3261C79.2202 25.3179 79.0411 25.3098 78.8464 25.2991Z" fill="black"/>
<path fill-rule="evenodd" clip-rule="evenodd" d="M89.8259 25.2991V23.7215H90.4021C90.5968 23.7215 90.7369 23.6863 90.8226 23.616C90.9082 23.5456 90.9549 23.4302 90.9549 23.2723C90.9549 23.2036 90.9472 23.1266 90.9316 23.0424C90.9082 22.9573 90.8849 22.8615 90.8459 22.7543L89.1562 17.8865H91.1885L92.0762 21.1096L92.9405 17.8865H94.8327L93.1897 23.1749C93.0106 23.7682 92.8627 24.174 92.7614 24.3941C92.6602 24.6151 92.5512 24.7828 92.4344 24.8957C92.2864 25.0545 92.0996 25.169 91.8893 25.2361C91.6791 25.3024 91.3287 25.3359 90.8459 25.3359C90.7058 25.3359 90.55 25.3327 90.3787 25.3261C90.1996 25.3179 90.0206 25.3098 89.8259 25.2991Z" fill="black"/>
<path fill-rule="evenodd" clip-rule="evenodd" d="M42.834 23.2056V16.0008H45.022V18.3885L46.992 16.0008H49.546L47.101 18.6552L49.8652 23.2056H47.2412L45.5671 20.3196L45.022 20.9103V23.2056H42.834Z" fill="black"/>
<path fill-rule="evenodd" clip-rule="evenodd" d="M52.5355 17.6981V18.9795C52.3487 18.9861 52.2085 19.0294 52.1073 19.1072C51.9905 19.1939 51.9282 19.3281 51.9126 19.5073H49.9504C49.9582 18.9075 50.184 18.4583 50.6434 18.1514C51.0794 17.8626 51.7102 17.7104 52.5355 17.6981ZM52.5355 21.0759L52.52 21.0792C52.0138 21.2199 51.7647 21.4089 51.7647 21.6454C51.7647 21.7919 51.8114 21.9089 51.9126 21.9956C52.0138 22.0799 52.154 22.1216 52.3331 22.1216C52.4032 22.1216 52.4732 22.1184 52.5355 22.1118V23.2148L52.5122 23.2214C52.2163 23.3376 51.8815 23.394 51.5077 23.394C50.9393 23.394 50.4955 23.2468 50.184 22.9522C49.8725 22.6568 49.7168 22.2411 49.7168 21.7011C49.7168 21.1774 49.8725 20.7887 50.1762 20.5375C50.4877 20.2871 51.0639 20.1046 51.9204 19.9893C52.0294 19.9737 52.1773 19.9557 52.3564 19.9353C52.4187 19.9287 52.481 19.9205 52.5355 19.9132V21.0759ZM53.2908 20.8304C53.0962 20.9098 52.847 20.99 52.5355 21.0759V19.9132C53.0494 19.8297 53.3142 19.6652 53.3142 19.4157C53.3142 19.2659 53.2519 19.1538 53.1351 19.0834C53.0183 19.0131 52.8392 18.9779 52.5822 18.9779C52.5667 18.9779 52.5511 18.9779 52.5355 18.9795V17.6981C52.5745 17.6965 52.6134 17.6965 52.6523 17.6965C53.0728 17.6965 53.4543 17.7358 53.8047 17.8176C54.1551 17.8978 54.4355 18.0074 54.6301 18.1465C54.8637 18.3159 55.035 18.5066 55.1285 18.7226C55.2297 18.9345 55.2764 19.2381 55.2764 19.6382V22.6011C55.2764 22.7002 55.292 22.7861 55.3309 22.863C55.3698 22.9415 55.4243 23.0037 55.4944 23.052V23.205H53.4699L53.3531 22.6952C53.0962 22.9285 52.8236 23.1011 52.5355 23.2148V22.1118C52.7691 22.0832 52.9482 22.0079 53.0728 21.8786C53.2207 21.7158 53.2986 21.4548 53.2986 21.0988V20.9327C53.2986 20.8959 53.2908 20.8607 53.2908 20.8304Z" fill="black"/>
<path fill-rule="evenodd" clip-rule="evenodd" d="M56.0088 23.2056V17.8869H57.862V18.8557C57.9944 18.4703 58.189 18.1888 58.4382 18.0112C58.6874 17.8312 59.0222 17.7445 59.4349 17.7445H59.6218V19.854C59.5439 19.8466 59.4738 19.8401 59.4037 19.8352C59.3336 19.8302 59.2714 19.8286 59.2091 19.8286C58.8042 19.8286 58.5005 19.9227 58.3136 20.1183C58.1189 20.3081 58.0255 20.6117 58.0255 21.0224V23.2056H56.0088Z" fill="black"/>
<path fill-rule="evenodd" clip-rule="evenodd" d="M65.43 17.8868V23.2055H63.5846V22.4207C63.351 22.7341 63.0863 22.9673 62.7982 23.1195C62.5101 23.2725 62.183 23.3462 61.8171 23.3462C61.5056 23.3462 61.2331 23.293 60.9917 23.185C60.7503 23.0778 60.5401 22.9166 60.3766 22.7039C60.2286 22.5165 60.1196 22.2865 60.0573 22.0149C59.995 21.7416 59.9639 21.2842 59.9639 20.6418V17.8868H61.9806V20.6328C61.9806 21.0354 62.0273 21.3145 62.1285 21.4716C62.2298 21.6262 62.4088 21.7031 62.6658 21.7031C62.915 21.7031 63.1018 21.6139 63.2264 21.4347C63.351 21.2523 63.4133 20.9839 63.4133 20.6214V17.8868H65.43Z" fill="black"/>
<path fill-rule="evenodd" clip-rule="evenodd" d="M66.1699 23.2056V17.8869H68.0309V18.8557C68.1633 18.4703 68.3502 18.1888 68.5993 18.0112C68.8563 17.8312 69.1833 17.7445 69.6038 17.7445H69.7829V19.854C69.705 19.8466 69.6349 19.8401 69.5649 19.8352C69.5026 19.8302 69.4325 19.8286 69.3702 19.8286C68.9653 19.8286 68.6694 19.9227 68.4747 20.1183C68.2879 20.3081 68.1944 20.6117 68.1944 21.0224V23.2056H66.1699Z" fill="black"/>
<path fill-rule="evenodd" clip-rule="evenodd" d="M71.7764 16.0008H74.0267L75.1791 20.6518L76.4249 16.0008H78.5896L76.277 23.2056H74.089L71.7764 16.0008Z" fill="black"/>
<path fill-rule="evenodd" clip-rule="evenodd" d="M83.9473 21.5317H85.8939C85.8939 21.7559 85.9484 21.9236 86.0574 22.0333C86.1742 22.1437 86.3377 22.2002 86.5558 22.2002C86.766 22.2002 86.9295 22.1634 87.0463 22.0881C87.1553 22.0145 87.2098 21.904 87.2098 21.7583C87.2098 21.5219 86.9607 21.3451 86.4623 21.233C86.4234 21.2216 86.3845 21.2134 86.3611 21.206C85.4189 20.9982 84.796 20.7682 84.5079 20.5236C84.2198 20.2789 84.0796 19.9189 84.0796 19.4476C84.0796 18.8756 84.2821 18.4427 84.7103 18.1433C85.1308 17.843 85.7537 17.6965 86.5635 17.6965C87.3188 17.6965 87.9028 17.8356 88.3155 18.1163C88.736 18.3977 88.9696 18.8134 89.0319 19.3666H87.2254C87.2098 19.2062 87.1398 19.0802 87.023 18.9861C86.9062 18.892 86.7582 18.8453 86.5869 18.8453C86.4078 18.8453 86.2754 18.8756 86.182 18.9394C86.0886 19.0016 86.0341 19.0949 86.0341 19.2176C86.0341 19.4255 86.2677 19.5834 86.7271 19.684C86.8439 19.7102 86.9373 19.7291 86.9996 19.7454C87.9184 19.9672 88.518 20.202 88.7905 20.4499C89.063 20.702 89.211 21.0669 89.211 21.5497C89.211 22.1601 88.9774 22.62 88.5258 22.9301C88.0819 23.2386 87.4123 23.394 86.5246 23.394C85.707 23.394 85.0841 23.2386 84.6558 22.9301C84.2198 22.62 83.9862 22.1536 83.9473 21.5317Z" fill="black"/>
<path fill-rule="evenodd" clip-rule="evenodd" d="M97.7445 17.6981V18.9795C97.5576 18.9861 97.4175 19.0294 97.3163 19.1072C97.1995 19.1939 97.1372 19.3281 97.1216 19.5073H95.1594C95.1672 18.9075 95.4008 18.4583 95.8524 18.1514C96.2884 17.8626 96.9191 17.7104 97.7445 17.6981ZM97.7445 21.0759L97.7289 21.0792C97.2228 21.2199 96.9736 21.4089 96.9736 21.6454C96.9736 21.7919 97.0204 21.9089 97.1216 21.9956C97.2228 22.0799 97.363 22.1216 97.5421 22.1216C97.6199 22.1216 97.6822 22.1184 97.7445 22.1118V23.2148L97.7212 23.2214C97.4253 23.3376 97.0904 23.394 96.7167 23.394C96.1483 23.394 95.7044 23.2468 95.393 22.9522C95.0815 22.6568 94.9258 22.2411 94.9258 21.7011C94.9258 21.1774 95.0815 20.7887 95.3852 20.5375C95.6967 20.2871 96.2729 20.1046 97.1294 19.9893C97.2384 19.9737 97.3863 19.9557 97.5654 19.9353C97.6277 19.9287 97.69 19.9205 97.7445 19.9132V21.0759ZM98.4998 20.8304C98.3051 20.9098 98.056 20.99 97.7445 21.0759V19.9132C98.2584 19.8297 98.5232 19.6652 98.5232 19.4157C98.5232 19.2659 98.4609 19.1538 98.3441 19.0834C98.2273 19.0131 98.0482 18.9779 97.7912 18.9779C97.7757 18.9779 97.7601 18.9779 97.7445 18.9795V17.6981C97.7834 17.6965 97.8224 17.6965 97.8613 17.6965C98.2818 17.6965 98.6633 17.7358 99.0137 17.8176C99.3719 17.8978 99.6444 18.0074 99.8391 18.1465C100.073 18.3159 100.244 18.5066 100.337 18.7226C100.439 18.9345 100.485 19.2381 100.485 19.6382V22.6011C100.485 22.7002 100.501 22.7861 100.54 22.863C100.579 22.9415 100.633 23.0037 100.703 23.052V23.205H98.6867L98.5543 22.6952C98.3051 22.9285 98.0326 23.1011 97.7445 23.2148V22.1118C97.9781 22.0832 98.1572 22.0079 98.2818 21.8786C98.4297 21.7158 98.5154 21.4548 98.5154 21.0988C98.5154 21.0235 98.5154 20.9679 98.5076 20.9327C98.5076 20.8959 98.4998 20.8607 98.4998 20.8304Z" fill="black"/>
<path fill-rule="evenodd" clip-rule="evenodd" d="M105.625 21.5208H106.598V23.2039L106.52 23.2056H103.491V16.0008H106.302C106.403 16.0008 106.505 16.0008 106.598 16.0024V17.6438C106.489 17.6389 106.372 17.634 106.232 17.634H105.625V18.8761H106.536H106.598V20.1911H105.625V21.5208ZM106.598 21.5208H106.645C106.98 21.5208 107.221 21.47 107.361 21.3661C107.509 21.2606 107.579 21.0895 107.579 20.8531C107.579 20.615 107.501 20.4439 107.361 20.3433C107.213 20.241 106.972 20.1911 106.621 20.1911H106.598V18.8761C106.871 18.8696 107.057 18.8221 107.174 18.7338C107.299 18.6397 107.361 18.4817 107.361 18.2543C107.361 18.0162 107.291 17.855 107.159 17.7674C107.065 17.7028 106.878 17.6618 106.598 17.6438V16.0024C107.05 16.0057 107.392 16.0221 107.618 16.0491C107.898 16.081 108.132 16.1333 108.334 16.2103C108.677 16.3461 108.95 16.5588 109.129 16.851C109.316 17.1406 109.409 17.4941 109.409 17.909C109.409 18.2338 109.339 18.5194 109.199 18.7608C109.066 19.0054 108.856 19.2035 108.576 19.3589C108.942 19.498 109.214 19.7026 109.386 19.9775C109.557 20.2492 109.643 20.6068 109.643 21.0421C109.643 21.47 109.565 21.8391 109.393 22.1557C109.222 22.4691 108.973 22.7122 108.654 22.8832C108.436 22.9994 108.187 23.0828 107.906 23.1319C107.641 23.1769 107.205 23.2023 106.598 23.2039V21.5208Z" fill="black"/>
<path fill-rule="evenodd" clip-rule="evenodd" d="M112.936 17.6981V18.9795C112.749 18.9861 112.609 19.0294 112.508 19.1072C112.399 19.1939 112.329 19.3281 112.313 19.5073H110.351C110.359 18.9075 110.584 18.4583 111.044 18.1514C111.48 17.8626 112.111 17.7104 112.936 17.6981ZM112.936 21.0759L112.92 21.0792C112.414 21.2199 112.165 21.4089 112.165 21.6454C112.165 21.7919 112.212 21.9089 112.313 21.9956C112.414 22.0799 112.554 22.1216 112.741 22.1216C112.804 22.1216 112.874 22.1184 112.936 22.1118V23.2148L112.913 23.2214C112.617 23.3376 112.282 23.394 111.908 23.394C111.34 23.394 110.896 23.2468 110.584 22.9522C110.273 22.6568 110.117 22.2411 110.117 21.7011C110.117 21.1774 110.273 20.7887 110.577 20.5375C110.888 20.2871 111.472 20.1046 112.321 19.9893C112.43 19.9737 112.57 19.9557 112.757 19.9353C112.819 19.9287 112.874 19.9205 112.936 19.9132V21.0759ZM113.691 20.8304C113.497 20.9098 113.247 20.99 112.936 21.0759V19.9132C113.458 19.8297 113.715 19.6652 113.715 19.4157C113.715 19.2659 113.652 19.1538 113.535 19.0834C113.419 19.0131 113.232 18.9779 112.983 18.9779C112.967 18.9779 112.951 18.9779 112.936 18.9795V17.6981C112.975 17.6965 113.014 17.6965 113.053 17.6965C113.473 17.6965 113.855 17.7358 114.205 17.8176C114.556 17.8978 114.836 18.0074 115.031 18.1465C115.264 18.3159 115.435 18.5066 115.529 18.7226C115.63 18.9345 115.677 19.2381 115.677 19.6382V22.6011C115.677 22.7002 115.692 22.7861 115.731 22.863C115.77 22.9415 115.825 23.0037 115.895 23.052V23.205H113.87L113.746 22.6952C113.497 22.9285 113.224 23.1011 112.936 23.2148V22.1118C113.17 22.0832 113.349 22.0079 113.473 21.8786C113.629 21.7158 113.699 21.4548 113.699 21.0988V20.9327C113.699 20.8959 113.691 20.8607 113.691 20.8304Z" fill="black"/>
<path fill-rule="evenodd" clip-rule="evenodd" d="M116.401 23.2056V17.8869H118.223V18.6634C118.465 18.3533 118.73 18.1233 119.018 17.9703C119.306 17.8198 119.633 17.7445 119.999 17.7445C120.302 17.7445 120.583 17.7977 120.824 17.9057C121.066 18.0129 121.268 18.1733 121.439 18.3852C121.595 18.5775 121.704 18.8107 121.766 19.0873C121.829 19.3622 121.86 19.8131 121.86 20.4407V23.2056H119.851V20.4488C119.851 20.0463 119.796 19.7664 119.695 19.6126C119.586 19.4628 119.415 19.3876 119.158 19.3876C118.909 19.3876 118.722 19.4751 118.597 19.651C118.473 19.8286 118.41 20.097 118.41 20.4603V23.2056H116.401Z" fill="black"/>
<path fill-rule="evenodd" clip-rule="evenodd" d="M122.646 23.2056V16.0008H124.655V19.5168L125.987 17.8869H128.237L126.361 19.8482L128.494 23.2056H126.104L124.998 21.3007L124.655 21.6746V23.2056H122.646Z" fill="black"/>
<path fill-rule="evenodd" clip-rule="evenodd" d="M125.044 36.3074C125.029 36.3663 124.997 36.408 124.966 36.4318C124.927 36.4538 124.865 36.4653 124.787 36.4653H124.678H124.639C124.561 36.462 124.499 36.4514 124.452 36.4268C124.413 36.4031 124.39 36.3696 124.39 36.3229C124.39 36.3123 124.398 36.291 124.421 36.2509V36.237L124.445 36.1486C124.818 34.9982 125.13 33.9516 125.379 33.0114C125.628 32.0721 125.753 31.5173 125.753 31.3446C125.753 31.1998 125.62 31.1131 125.348 31.0811C125.293 31.0746 125.254 31.0697 125.223 31.0664L125.27 30.8545C125.504 30.8381 125.729 30.8095 125.947 30.7645C126.173 30.7219 126.383 30.6638 126.594 30.5935L126.679 30.6352C126.446 31.5206 126.259 32.2079 126.119 32.7046C125.986 33.1972 125.862 33.6178 125.745 33.9655C126.041 33.6317 126.306 33.387 126.555 33.234C126.804 33.0802 127.053 33.0057 127.302 33.0057C127.505 33.0057 127.668 33.0662 127.785 33.1857C127.91 33.306 127.972 33.4639 127.972 33.657C127.972 33.9279 127.808 34.1644 127.474 34.3689C127.147 34.5735 126.742 34.6799 126.259 34.6913C126.337 34.7429 126.407 34.8149 126.477 34.9057C126.539 34.9998 126.617 35.161 126.718 35.3934C126.726 35.4155 126.742 35.4474 126.757 35.4875C126.905 35.8385 127.053 36.0144 127.209 36.0144C127.287 36.0144 127.372 35.9809 127.466 35.9105C127.559 35.8418 127.653 35.7395 127.762 35.602L127.902 35.7125C127.738 35.9809 127.567 36.1805 127.388 36.3196C127.209 36.4588 127.038 36.5275 126.858 36.5275C126.695 36.5275 126.563 36.4669 126.454 36.3458C126.345 36.2255 126.22 35.9719 126.088 35.5914C126.08 35.5578 126.064 35.5112 126.041 35.4474C125.885 34.9932 125.714 34.7535 125.535 34.7281L125.044 36.3074ZM125.558 34.5268C125.581 34.5268 125.62 34.5268 125.667 34.5301C125.714 34.5334 125.753 34.5334 125.776 34.5334C126.274 34.5334 126.656 34.4663 126.936 34.3321C127.209 34.1963 127.349 34.0105 127.349 33.774C127.349 33.6685 127.318 33.5875 127.256 33.5261C127.193 33.4656 127.1 33.4353 126.991 33.4353C126.773 33.4353 126.531 33.5294 126.282 33.7217C126.025 33.9115 125.784 34.1799 125.558 34.5268ZM119.352 34.0956L119.189 34.0007C119.337 33.6849 119.492 33.4418 119.664 33.2708C119.843 33.0982 120.006 33.0131 120.178 33.0131C120.279 33.0131 120.357 33.0499 120.427 33.1203C120.489 33.1939 120.52 33.288 120.52 33.405C120.52 33.4909 120.505 33.6014 120.481 33.7356C120.458 33.8714 120.427 34.0187 120.388 34.1734C120.668 33.7806 120.933 33.4852 121.182 33.2896C121.431 33.0982 121.673 32.9991 121.906 32.9991C122.077 32.9991 122.21 33.045 122.311 33.1366C122.412 33.2291 122.459 33.3551 122.459 33.5171C122.459 33.5965 122.443 33.6922 122.42 33.7961C122.389 33.9033 122.334 34.0711 122.249 34.2985L122.202 34.4196C121.93 35.1577 121.797 35.575 121.797 35.674C121.797 35.724 121.805 35.7657 121.836 35.7976C121.859 35.8328 121.898 35.8483 121.937 35.8483C121.992 35.8483 122.062 35.8148 122.14 35.7493C122.218 35.6822 122.342 35.5497 122.514 35.35L122.669 35.503C122.405 35.8483 122.163 36.1044 121.953 36.2722C121.743 36.4367 121.548 36.5201 121.377 36.5201C121.26 36.5201 121.159 36.4849 121.096 36.4129C121.026 36.3393 120.995 36.2419 120.995 36.1134C120.995 36.0447 121.003 35.9621 121.026 35.868C121.05 35.7706 121.081 35.6519 121.128 35.5096L121.587 34.1995C121.595 34.1783 121.603 34.1447 121.618 34.1013C121.68 33.9181 121.712 33.7822 121.712 33.7004C121.712 33.621 121.688 33.5597 121.649 33.5171C121.61 33.4721 121.548 33.45 121.478 33.45C121.299 33.45 121.096 33.6014 120.871 33.9033C120.645 34.2053 120.442 34.6103 120.263 35.1135L119.866 36.1887C119.819 36.309 119.78 36.3843 119.742 36.4146C119.703 36.4432 119.64 36.4571 119.547 36.4571H119.485L119.446 36.4514C119.344 36.4481 119.267 36.4334 119.212 36.4064C119.165 36.3761 119.134 36.3377 119.134 36.2861C119.134 36.2771 119.142 36.2624 119.142 36.2476C119.142 36.2354 119.15 36.219 119.158 36.2051L119.189 36.1282C119.43 35.5128 119.609 35.0366 119.718 34.6995C119.835 34.3607 119.889 34.1324 119.889 34.0072C119.889 33.9213 119.874 33.8542 119.835 33.8092C119.804 33.7659 119.749 33.7438 119.679 33.7438C119.64 33.7438 119.586 33.7724 119.539 33.8272C119.492 33.8812 119.422 33.9704 119.352 34.0956ZM117.226 35.4441C117.001 35.7878 116.79 36.0447 116.596 36.219C116.409 36.3949 116.245 36.4817 116.105 36.4817C116.004 36.4817 115.918 36.4448 115.856 36.3745C115.802 36.3074 115.77 36.2084 115.77 36.0832C115.77 35.994 115.802 35.8377 115.864 35.6168C115.926 35.3934 116.012 35.1258 116.129 34.8132H116.105C115.809 35.3533 115.513 35.769 115.233 36.0562C114.945 36.3442 114.68 36.489 114.447 36.489C114.291 36.489 114.174 36.4367 114.088 36.3278C114.011 36.2223 113.964 36.0693 113.964 35.8712C113.964 35.5529 114.057 35.2175 114.244 34.8558C114.439 34.4966 114.696 34.1644 115.023 33.8649C115.272 33.6398 115.513 33.4705 115.763 33.36C116.012 33.2479 116.253 33.1939 116.51 33.1939C116.549 33.1939 116.611 33.1988 116.697 33.207C116.705 33.207 116.713 33.2103 116.713 33.2119L116.907 32.9337H117.359C117.071 33.6562 116.845 34.2535 116.681 34.7216C116.518 35.1888 116.44 35.4842 116.44 35.602C116.44 35.6618 116.448 35.7076 116.471 35.7395C116.495 35.7731 116.518 35.7911 116.557 35.7911C116.619 35.7911 116.689 35.7608 116.751 35.706C116.822 35.6487 116.931 35.521 117.086 35.323L117.226 35.4441ZM114.657 35.4826C114.657 35.6102 114.68 35.706 114.719 35.7657C114.758 35.8262 114.828 35.8565 114.914 35.8565C115.023 35.8565 115.155 35.7763 115.303 35.62C115.451 35.4637 115.63 35.2265 115.833 34.9155C115.988 34.6758 116.113 34.4467 116.206 34.2298C116.308 34.0154 116.354 33.8665 116.354 33.7871C116.354 33.7274 116.331 33.6799 116.292 33.648C116.245 33.6161 116.183 33.5998 116.097 33.5998C115.965 33.5998 115.833 33.6415 115.693 33.7184C115.545 33.7994 115.42 33.9099 115.288 34.0522C115.109 34.2601 114.953 34.5015 114.836 34.7764C114.719 35.0497 114.657 35.2878 114.657 35.4826ZM108.973 34.9491L109.868 31.685C109.884 31.6089 109.907 31.5402 109.915 31.4788C109.923 31.4215 109.93 31.3708 109.93 31.3307C109.93 31.1867 109.767 31.1 109.448 31.0746L109.479 30.8782C109.712 30.8463 109.938 30.8046 110.156 30.7587C110.374 30.7121 110.577 30.6565 110.779 30.5935L110.857 30.6434L109.681 34.5702C110.047 34.0457 110.39 33.6546 110.709 33.3935C111.028 33.1366 111.332 33.0057 111.612 33.0057C111.799 33.0057 111.947 33.0769 112.064 33.2225C112.181 33.3698 112.235 33.5597 112.235 33.7929C112.235 34.049 112.165 34.3206 112.025 34.6087C111.893 34.8975 111.698 35.1774 111.441 35.4507C111.122 35.7943 110.787 36.0611 110.437 36.2468C110.094 36.435 109.759 36.5275 109.448 36.5275C109.237 36.5275 109.066 36.4702 108.949 36.3597C108.833 36.2452 108.77 36.0914 108.77 35.895C108.77 35.8197 108.786 35.7109 108.809 35.5718C108.84 35.4359 108.895 35.2265 108.973 34.9491ZM111.145 33.5261C111.028 33.5261 110.904 33.5727 110.771 33.6636C110.639 33.7569 110.476 33.9099 110.281 34.1275C110.032 34.4025 109.837 34.6799 109.689 34.9613C109.541 35.2412 109.471 35.4727 109.471 35.6552C109.471 35.8041 109.51 35.9187 109.58 35.9956C109.65 36.0742 109.751 36.1134 109.884 36.1134C110.016 36.1134 110.148 36.0709 110.281 35.9891C110.421 35.9048 110.546 35.7861 110.67 35.6315C110.904 35.3402 111.098 35.0333 111.246 34.7126C111.394 34.3894 111.472 34.1292 111.472 33.9303C111.472 33.7961 111.441 33.6955 111.387 33.6284C111.332 33.5597 111.254 33.5261 111.145 33.5261ZM100.89 33.0057C101.233 33.0057 101.505 33.1252 101.723 33.3665C101.934 33.6079 102.035 33.9262 102.035 34.3239C102.035 34.5604 101.996 34.8018 101.91 35.0497C101.832 35.2936 101.708 35.5276 101.56 35.7444C101.381 35.9956 101.178 36.1871 100.945 36.3229C100.703 36.4604 100.462 36.5275 100.213 36.5275C99.8547 36.5275 99.5744 36.4064 99.3563 36.1617C99.1383 35.9154 99.0371 35.5914 99.0371 35.1855C99.0371 34.9458 99.076 34.7028 99.1617 34.4614C99.2473 34.2216 99.3719 33.9901 99.5276 33.7724C99.7145 33.5187 99.9247 33.3314 100.158 33.1988C100.384 33.0712 100.633 33.0057 100.89 33.0057ZM100.844 33.2708C100.719 33.2708 100.61 33.3158 100.509 33.4116C100.408 33.5089 100.306 33.6603 100.205 33.8731C100.065 34.1644 99.9481 34.4696 99.8702 34.7797C99.7924 35.0939 99.7534 35.3786 99.7534 35.6389C99.7534 35.8377 99.7924 35.9907 99.8702 36.1012C99.9481 36.21 100.057 36.2624 100.205 36.2624C100.345 36.2624 100.47 36.2084 100.587 36.0979C100.696 35.9858 100.812 35.8082 100.914 35.566C101.038 35.2936 101.139 35.0129 101.202 34.7232C101.272 34.4327 101.303 34.1644 101.303 33.9181C101.303 33.7119 101.264 33.5523 101.178 33.4386C101.101 33.3248 100.984 33.2708 100.844 33.2708ZM96.9892 35.5963C96.7634 35.9269 96.5532 36.165 96.3585 36.309C96.156 36.4538 95.9458 36.5275 95.7122 36.5275C95.5487 36.5275 95.4241 36.4833 95.3307 36.3917C95.2372 36.3008 95.1905 36.1765 95.1905 36.0144C95.1905 35.9621 95.1983 35.9072 95.2061 35.8467C95.2217 35.7878 95.2372 35.7223 95.2528 35.6519L95.8446 33.5343H95.3073V33.2561H95.9147L96.1249 32.4877C96.1561 32.3904 96.1872 32.3265 96.2339 32.2971C96.2806 32.2668 96.3663 32.2545 96.4909 32.2545H96.5532C96.6544 32.2545 96.7245 32.2652 96.7712 32.2914C96.8179 32.3184 96.8413 32.3568 96.8413 32.4108C96.8413 32.4239 96.8335 32.4427 96.8335 32.4697C96.8257 32.4796 96.8257 32.4861 96.8257 32.4877L96.6077 33.2561H97.3162V33.5343H96.5376L96.0315 35.4171C96.0237 35.4809 96.0081 35.5349 96.0003 35.5816C95.9925 35.6282 95.9847 35.665 95.9847 35.692C95.9847 35.7829 96.0081 35.8516 96.047 35.9032C96.0938 35.9523 96.1483 35.9776 96.2261 35.9776C96.2884 35.9776 96.3663 35.9408 96.4597 35.8712C96.5454 35.8009 96.6777 35.665 96.8568 35.4678L96.9892 35.5963ZM85.4028 34.2699L85.2082 34.202C85.325 33.8092 85.4651 33.5138 85.6364 33.3109C85.8077 33.1063 86.0024 33.0057 86.2126 33.0057C86.5085 33.0057 86.7343 33.234 86.8745 33.6922C87.0224 34.1496 87.0925 34.8607 87.0925 35.8262V36.1265C87.3728 35.7354 87.5908 35.3656 87.7466 35.0235C87.8945 34.679 87.9724 34.3796 87.9724 34.1275C87.9724 34.0187 87.949 33.8796 87.8945 33.7151C87.8478 33.549 87.8244 33.4353 87.8244 33.3764C87.8244 33.2643 87.8478 33.1767 87.9179 33.108C87.9802 33.0392 88.0658 33.0057 88.167 33.0057C88.2838 33.0057 88.3773 33.0466 88.4474 33.1333C88.5252 33.2144 88.5564 33.333 88.5564 33.4786C88.5564 33.824 88.4162 34.2822 88.1437 34.8591C87.8634 35.431 87.4818 36.0562 86.9913 36.7304C86.5552 37.3106 86.2126 37.7279 85.9401 37.9791C85.6676 38.2278 85.4418 38.353 85.2471 38.353C85.1459 38.353 85.0602 38.3211 84.9901 38.254C84.9201 38.1869 84.8811 38.1002 84.8811 38.0012C84.8811 37.9005 84.9123 37.8203 84.9746 37.7614C85.0291 37.7009 85.1069 37.6706 85.2082 37.6706C85.2704 37.6706 85.3561 37.6894 85.4573 37.7279C85.5586 37.7647 85.6286 37.7835 85.6598 37.7835C85.7299 37.7835 85.8155 37.7377 85.9167 37.6452C86.018 37.5503 86.1192 37.4292 86.2204 37.277C86.3138 37.1477 86.3761 37.0037 86.4151 36.8491C86.454 36.692 86.4774 36.4768 86.4774 36.1969C86.4774 35.3287 86.4229 34.679 86.3294 34.2535C86.236 33.828 86.0958 33.6145 85.9012 33.6145C85.7999 33.6145 85.7143 33.6619 85.6364 33.7609C85.5663 33.8591 85.4807 34.0285 85.4028 34.2699ZM83.464 35.4441C83.2382 35.7878 83.0279 36.0447 82.8333 36.219C82.6464 36.3949 82.4751 36.4817 82.3349 36.4817C82.2337 36.4817 82.1558 36.4448 82.0935 36.3745C82.0312 36.3074 82.0001 36.2084 82.0001 36.0832C82.0001 35.994 82.039 35.8377 82.0935 35.6168C82.1636 35.3934 82.2493 35.1258 82.3661 34.8132H82.3349C82.0468 35.3533 81.7509 35.769 81.4628 36.0562C81.1825 36.3442 80.9178 36.489 80.6764 36.489C80.5284 36.489 80.4039 36.4367 80.326 36.3278C80.2403 36.2223 80.2014 36.0693 80.2014 35.8712C80.2014 35.5529 80.2948 35.2175 80.4817 34.8558C80.6686 34.4966 80.9333 34.1644 81.2604 33.8649C81.5018 33.6398 81.7509 33.4705 82.0001 33.36C82.2415 33.2479 82.4906 33.1939 82.7398 33.1939C82.7865 33.1939 82.8488 33.1988 82.9267 33.207C82.9345 33.207 82.9423 33.2103 82.9501 33.2119L83.1369 32.9337H83.5886C83.3004 33.6562 83.0746 34.2535 82.9189 34.7216C82.7554 35.1888 82.6775 35.4842 82.6775 35.602C82.6775 35.6618 82.6853 35.7076 82.7087 35.7395C82.7242 35.7731 82.7554 35.7911 82.7865 35.7911C82.8566 35.7911 82.9267 35.7608 82.989 35.706C83.0591 35.6487 83.1681 35.521 83.316 35.323L83.464 35.4441ZM80.8944 35.4826C80.8944 35.6102 80.91 35.706 80.9567 35.7657C80.9956 35.8262 81.0579 35.8565 81.1514 35.8565C81.2526 35.8565 81.385 35.7763 81.5407 35.62C81.6886 35.4637 81.8677 35.2265 82.0702 34.9155C82.2181 34.6758 82.3427 34.4467 82.4439 34.2298C82.5452 34.0154 82.5919 33.8665 82.5919 33.7871C82.5919 33.7274 82.5685 33.6799 82.5296 33.648C82.4751 33.6161 82.4128 33.5998 82.3349 33.5998C82.2025 33.5998 82.0702 33.6415 81.93 33.7184C81.7821 33.7994 81.6497 33.9099 81.5251 34.0522C81.3382 34.2601 81.1903 34.5015 81.0735 34.7764C80.9567 35.0497 80.8944 35.2878 80.8944 35.4826ZM74.782 33.5998H74.0422C73.8709 33.5998 73.7386 33.6268 73.6451 33.6799C73.5595 33.7339 73.5128 33.8174 73.5128 33.9246C73.5128 33.9704 73.5595 34.0375 73.6451 34.1324C73.723 34.2249 73.7697 34.3002 73.7697 34.3673C73.7697 34.463 73.7386 34.544 73.6763 34.6128C73.614 34.679 73.5439 34.7134 73.4582 34.7134C73.3648 34.7134 73.2947 34.6758 73.2324 34.5988C73.1779 34.5236 73.1468 34.4229 73.1468 34.2969C73.1468 34.1914 73.1935 34.0302 73.2947 33.8092C73.396 33.5883 73.5205 33.3903 73.6607 33.2103C73.7152 33.1399 73.7775 33.0867 73.8398 33.0548C73.9099 33.0196 73.9877 33.0057 74.0734 33.0057C74.1123 33.0057 74.198 33.0098 74.3381 33.0147C74.4861 33.0229 74.6107 33.0262 74.7197 33.0262C74.8053 33.0262 74.891 33.0245 74.9922 33.0196C75.0856 33.0163 75.1869 33.0131 75.2959 33.0057L75.366 33.0818C75.0467 33.549 74.8053 33.9483 74.6418 34.2887C74.4861 34.6258 74.4082 34.9073 74.4082 35.134C74.4082 35.3484 74.4627 35.5194 74.5639 35.6438C74.6729 35.7706 74.8131 35.8328 74.9922 35.8328C75.0701 35.8328 75.1635 35.8099 75.2647 35.769C75.366 35.724 75.475 35.6569 75.5918 35.5718C75.584 35.5145 75.5762 35.4539 75.5762 35.3917V35.2093C75.5762 34.9695 75.5918 34.7298 75.6463 34.4949C75.7008 34.2585 75.7786 34.0269 75.8799 33.7929C75.9889 33.5425 76.1057 33.3461 76.238 33.207C76.3704 33.0679 76.495 32.9975 76.6196 32.9975C76.7286 32.9975 76.822 33.0409 76.8843 33.1268C76.9544 33.2119 76.9856 33.3314 76.9856 33.4786C76.9856 33.7519 76.9077 34.0522 76.752 34.3894C76.5962 34.7249 76.3704 35.0603 76.0823 35.3958C76.1135 35.5448 76.1758 35.6569 76.2614 35.7321C76.3548 35.8082 76.4561 35.8483 76.5884 35.8483C76.7597 35.8483 76.931 35.7829 77.1179 35.6519C77.297 35.5178 77.4605 35.3336 77.6085 35.0988C77.7175 34.936 77.7954 34.7715 77.8499 34.6087C77.9044 34.445 77.9277 34.2953 77.9277 34.1578C77.9277 34.0793 77.9199 34.0072 77.9122 33.9516C77.8888 33.8951 77.8654 33.846 77.8421 33.8141C77.8187 33.7904 77.7954 33.7609 77.7564 33.72C77.6396 33.6014 77.5851 33.4909 77.5851 33.3919C77.5851 33.279 77.6163 33.1873 77.6863 33.1121C77.7564 33.0376 77.8421 32.9975 77.9511 32.9975C78.0835 32.9975 78.1847 33.0499 78.2548 33.1587C78.3326 33.2675 78.3716 33.4181 78.3716 33.6145C78.3716 33.8575 78.3171 34.1324 78.2158 34.4344C78.1224 34.7363 77.9822 35.0399 77.8031 35.3386C77.5773 35.7125 77.3359 36.0038 77.0868 36.2141C76.8376 36.4219 76.5962 36.5275 76.3626 36.5275C76.1835 36.5275 76.0278 36.4751 75.911 36.3663C75.7864 36.2558 75.7008 36.0979 75.6463 35.8884C75.475 36.0979 75.3037 36.2558 75.1401 36.3597C74.9766 36.462 74.8053 36.5136 74.634 36.5136C74.4004 36.5136 74.2058 36.4334 74.0578 36.2722C73.9099 36.111 73.8398 35.8999 73.8398 35.6389C73.8398 35.3975 73.9177 35.107 74.0734 34.7699C74.2291 34.4295 74.4627 34.0408 74.782 33.5998ZM75.9967 35.1536C76.1991 34.9139 76.3548 34.6758 76.4639 34.4393C76.5729 34.2036 76.6274 33.9974 76.6274 33.824C76.6274 33.7487 76.6118 33.6922 76.5807 33.6513C76.5495 33.6128 76.5028 33.5932 76.4405 33.5932C76.3159 33.5932 76.1991 33.7053 76.1057 33.9279C76.0122 34.1496 75.9655 34.4246 75.9655 34.7502C75.9655 34.8034 75.9655 34.8623 75.9733 34.9245C75.9733 34.9883 75.9889 35.0653 75.9967 35.1536ZM66.5983 35.5963C66.3725 35.9269 66.1622 36.165 65.9676 36.309C65.7651 36.4538 65.5549 36.5275 65.3291 36.5275C65.1578 36.5275 65.0332 36.4833 64.9398 36.3917C64.8541 36.3008 64.8074 36.1765 64.8074 36.0144C64.8074 35.9621 64.8074 35.9072 64.8152 35.8467C64.8307 35.7878 64.8463 35.7223 64.8697 35.6519L65.4537 33.5343H64.9164V33.2561H65.5315L65.734 32.4877C65.7651 32.3904 65.7963 32.3265 65.843 32.2971C65.8897 32.2668 65.9754 32.2545 66.1 32.2545H66.1622C66.2635 32.2545 66.3335 32.2652 66.3803 32.2914C66.427 32.3184 66.4503 32.3568 66.4503 32.4108C66.4503 32.4239 66.4426 32.4427 66.4426 32.4697C66.4348 32.4796 66.4348 32.4861 66.4348 32.4877L66.2167 33.2561H66.9253V33.5343H66.1467L65.6483 35.4171C65.6328 35.4809 65.6172 35.5349 65.6094 35.5816C65.6016 35.6282 65.5938 35.665 65.5938 35.692C65.5938 35.7829 65.6172 35.8516 65.6561 35.9032C65.7028 35.9523 65.7651 35.9776 65.8352 35.9776C65.8975 35.9776 65.9754 35.9408 66.0688 35.8712C66.1545 35.8009 66.2868 35.665 66.4659 35.4678L66.5983 35.5963ZM61.6616 34.3607C61.8874 33.8861 62.0899 33.5425 62.2768 33.3314C62.4558 33.117 62.6427 33.0131 62.8296 33.0131C62.9464 33.0131 63.032 33.0425 63.1021 33.1031C63.1644 33.1653 63.1956 33.2495 63.1956 33.3567C63.1956 33.4819 63.1644 33.5932 63.0943 33.6881C63.032 33.7822 62.9542 33.8313 62.8685 33.8313C62.814 33.8313 62.7439 33.8092 62.6583 33.7642C62.5726 33.72 62.5026 33.7004 62.4636 33.7004C62.339 33.7004 62.2067 33.7929 62.0821 33.9819C61.9575 34.1701 61.794 34.5432 61.5837 35.0988L61.1711 36.1838C61.1711 36.192 61.1633 36.2035 61.1555 36.2157C61.0932 36.3761 60.9764 36.4571 60.8129 36.4571H60.7739L60.7272 36.4514C60.626 36.4481 60.5481 36.4334 60.5014 36.4064C60.4469 36.3794 60.4236 36.3409 60.4236 36.2926C60.4236 36.2804 60.4235 36.2673 60.4313 36.2493C60.4313 36.2354 60.4391 36.219 60.4469 36.2051L60.4703 36.1265C60.7117 35.5431 60.883 35.0718 60.9998 34.715C61.1166 34.3575 61.1711 34.1112 61.1711 33.9753C61.1711 33.9017 61.1555 33.8444 61.1166 33.8027C61.0854 33.7626 61.0309 33.7438 60.9686 33.7438C60.9219 33.7438 60.8752 33.774 60.8207 33.8346C60.7584 33.8951 60.7039 33.9802 60.6416 34.0956L60.4858 34.0007C60.6338 33.6816 60.7895 33.4386 60.9686 33.2692C61.1321 33.0982 61.3112 33.0131 61.4825 33.0131C61.5915 33.0131 61.6772 33.0466 61.7395 33.1186C61.794 33.1906 61.8251 33.288 61.8251 33.4116C61.8251 33.5425 61.8096 33.6881 61.7784 33.8428C61.7473 34.0023 61.6928 34.1717 61.6305 34.3526L61.6616 34.3607ZM58.5236 35.4441C58.2978 35.7878 58.0876 36.0447 57.8929 36.219C57.706 36.3949 57.5425 36.4817 57.4024 36.4817C57.2934 36.4817 57.2155 36.4448 57.1532 36.3745C57.0909 36.3074 57.0598 36.2084 57.0598 36.0832C57.0598 35.994 57.0909 35.8377 57.161 35.6168C57.2233 35.3934 57.3089 35.1258 57.4257 34.8132H57.4024C57.1065 35.3533 56.8106 35.769 56.5225 36.0562C56.2422 36.3442 55.9774 36.489 55.736 36.489C55.5881 36.489 55.4713 36.4367 55.3857 36.3278C55.3 36.2223 55.2611 36.0693 55.2611 35.8712C55.2611 35.5529 55.3545 35.2175 55.5414 34.8558C55.7283 34.4966 55.993 34.1644 56.32 33.8649C56.5692 33.6398 56.8106 33.4705 57.0598 33.36C57.3011 33.2479 57.5503 33.1939 57.7995 33.1939C57.8462 33.1939 57.9085 33.1988 57.9941 33.207C58.0019 33.207 58.0019 33.2103 58.0097 33.2119L58.1966 32.9337H58.6482C58.3601 33.6562 58.1343 34.2535 57.9786 34.7216C57.8151 35.1888 57.7372 35.4842 57.7372 35.602C57.7372 35.6618 57.745 35.7076 57.7683 35.7395C57.7839 35.7731 57.8151 35.7911 57.854 35.7911C57.9163 35.7911 57.9864 35.7608 58.0487 35.706C58.1187 35.6487 58.2355 35.521 58.3835 35.323L58.5236 35.4441ZM55.9541 35.4826C55.9541 35.6102 55.9774 35.706 56.0164 35.7657C56.0553 35.8262 56.1254 35.8565 56.211 35.8565C56.32 35.8565 56.4446 35.7763 56.5926 35.62C56.7483 35.4637 56.9274 35.2265 57.1298 34.9155C57.2856 34.6758 57.4102 34.4467 57.5036 34.2298C57.6048 34.0154 57.6515 33.8665 57.6515 33.7871C57.6515 33.7274 57.6282 33.6799 57.5815 33.648C57.5425 33.6161 57.4802 33.5998 57.3946 33.5998C57.2622 33.5998 57.1298 33.6415 56.9819 33.7184C56.8417 33.7994 56.7094 33.9099 56.5848 34.0522C56.3979 34.2601 56.25 34.5015 56.1332 34.7764C56.0086 35.0497 55.9541 35.2878 55.9541 35.4826ZM48.4245 36.4571L48.37 36.4514C48.2843 36.4481 48.2142 36.4318 48.1675 36.4031C48.113 36.3728 48.0896 36.3344 48.0896 36.2845C48.0896 36.2738 48.0896 36.2624 48.0974 36.2476C48.0974 36.2337 48.1052 36.219 48.113 36.2051L48.1364 36.1265C48.3778 35.5259 48.5568 35.0481 48.6659 34.6995C48.7904 34.3526 48.8449 34.1079 48.8449 33.9753C48.8449 33.9017 48.8216 33.8444 48.7904 33.8027C48.7515 33.7626 48.7048 33.7438 48.6347 33.7438C48.588 33.7438 48.5335 33.774 48.479 33.8346C48.4245 33.8951 48.3622 33.9802 48.2999 34.0956L48.1519 34.0007C48.2999 33.6816 48.4556 33.4386 48.6269 33.2692C48.7982 33.0982 48.9773 33.0131 49.1486 33.0131C49.2576 33.0131 49.3433 33.0499 49.4056 33.1203C49.4679 33.1939 49.499 33.2896 49.499 33.4116C49.499 33.504 49.4912 33.6096 49.4679 33.7339C49.4445 33.8575 49.4134 33.9933 49.3744 34.1398C49.608 33.7626 49.8494 33.4786 50.083 33.2896C50.3166 33.0998 50.5424 33.0057 50.7682 33.0057C50.9317 33.0057 51.0563 33.0564 51.1576 33.1587C51.2588 33.261 51.3133 33.3935 51.3133 33.5547C51.3133 33.6079 51.3055 33.6734 51.2899 33.7552C51.2743 33.8346 51.2432 33.9385 51.2121 34.0662C51.4846 33.7086 51.7571 33.4386 52.0063 33.2594C52.2632 33.0802 52.5046 32.991 52.7382 32.991C52.9017 32.991 53.0263 33.0392 53.1276 33.1333C53.221 33.2258 53.2677 33.3551 53.2677 33.5171C53.2677 33.5858 53.2599 33.6603 53.2366 33.747C53.2132 33.833 53.1898 33.9336 53.1431 34.0522L52.746 35.1659V35.1757C52.6448 35.4605 52.5981 35.6299 52.5981 35.6822C52.5981 35.7362 52.6136 35.7812 52.6448 35.8164C52.6759 35.8516 52.7149 35.8696 52.7538 35.8696C52.8239 35.8696 52.9017 35.8328 52.9874 35.7575C53.073 35.6822 53.1821 35.5644 53.3066 35.3958L53.4546 35.5096C53.221 35.8328 52.9952 36.0799 52.7849 36.2493C52.5669 36.4203 52.3723 36.5054 52.2009 36.5054C52.0841 36.5054 51.9829 36.4653 51.9128 36.3843C51.8428 36.3041 51.8038 36.1969 51.8038 36.0611C51.8038 35.9621 51.8661 35.7411 51.9985 35.3917C52.0608 35.2175 52.1153 35.0751 52.1464 34.9695C52.2866 34.5776 52.38 34.2887 52.4345 34.1013C52.4968 33.9131 52.5202 33.7904 52.5202 33.7274C52.5202 33.6382 52.4968 33.5678 52.4501 33.5171C52.4034 33.4672 52.3411 33.4435 52.2555 33.4435C52.0296 33.4435 51.7727 33.6431 51.5079 34.0424C51.2432 34.4434 50.994 34.9998 50.7526 35.7125L50.5969 36.1969C50.558 36.3057 50.5191 36.3745 50.4879 36.408C50.4568 36.4399 50.3945 36.4571 50.301 36.4571H50.192H50.1453C50.0519 36.4538 49.9818 36.4432 49.9351 36.4219C49.8961 36.4015 49.8728 36.3712 49.8728 36.3278C49.8728 36.2992 49.8806 36.2624 49.8883 36.219C49.8961 36.1748 49.9117 36.1265 49.9273 36.0758L50.5424 34.2699C50.5736 34.1848 50.5969 34.1013 50.6125 34.022C50.6281 33.9385 50.6359 33.8616 50.6359 33.7929C50.6359 33.6971 50.6125 33.6161 50.558 33.5547C50.5113 33.4926 50.4334 33.4639 50.3478 33.4639C50.1687 33.4639 49.974 33.6178 49.7638 33.9262C49.5613 34.2314 49.3511 34.6725 49.1486 35.2494L48.8138 36.1887C48.7671 36.309 48.7281 36.3843 48.6892 36.4146C48.6581 36.4432 48.588 36.4571 48.4946 36.4571H48.4245ZM42.7559 36.1503C42.7948 36.0341 42.8337 35.9032 42.8727 35.7591C42.9116 35.6168 42.9739 35.3991 43.0517 35.107L43.2931 35.1504C43.2776 35.233 43.2698 35.3066 43.262 35.3705C43.2542 35.4343 43.2542 35.4875 43.2542 35.5308C43.2542 35.7608 43.3243 35.9367 43.4722 36.0611C43.6202 36.1855 43.8304 36.2493 44.0951 36.2493C44.3677 36.2493 44.5935 36.165 44.7648 35.9973C44.9361 35.8279 45.0217 35.6119 45.0217 35.3533C45.0217 35.0603 44.8037 34.6479 44.3677 34.1144C44.3054 34.0424 44.2665 33.9884 44.2353 33.9532C43.955 33.6128 43.7759 33.3461 43.6902 33.1554C43.6124 32.9656 43.5734 32.7659 43.5734 32.5548C43.5734 32.1203 43.7214 31.7587 44.0173 31.4747C44.3132 31.1867 44.6869 31.0443 45.1463 31.0443C45.3644 31.0443 45.5668 31.0779 45.7693 31.1466C45.9639 31.2121 46.1664 31.3143 46.361 31.4567C46.3143 31.5958 46.2676 31.7415 46.2287 31.8896C46.1897 32.0369 46.1664 32.1915 46.1352 32.3519L45.8938 32.293C45.9016 32.2333 45.9016 32.1915 45.9094 32.1662V32.0884C45.9094 31.8528 45.8471 31.6678 45.7148 31.5336C45.5824 31.3994 45.4033 31.3307 45.1775 31.3307C44.9205 31.3307 44.7103 31.4166 44.539 31.5827C44.3755 31.7488 44.2898 31.96 44.2898 32.2161C44.2898 32.3838 44.3287 32.5483 44.4144 32.7144C44.4923 32.8772 44.6636 33.1121 44.9205 33.4132C44.9439 33.4402 44.9828 33.4819 45.0217 33.5376C45.5434 34.1414 45.8004 34.6496 45.8004 35.0653C45.8004 35.5047 45.6525 35.8582 45.341 36.1331C45.0295 36.4064 44.6246 36.5422 44.1185 36.5422C43.8849 36.5422 43.6591 36.5103 43.4333 36.4448C43.2075 36.381 42.9817 36.2828 42.7559 36.1503Z" fill="white"/>
</svg>
