<svg width="134" height="40" viewBox="0 0 134 40" fill="none" xmlns="http://www.w3.org/2000/svg">
<path fill-rule="evenodd" clip-rule="evenodd" d="M0 20C0 8.95512 10.4107 0 23.2544 0C36.0981 0 46.5079 8.95512 46.5079 20C46.5079 31.0449 36.0972 40 23.2544 40C10.4116 40 0 31.0462 0 20Z" fill="#003874"/>
<path fill-rule="evenodd" clip-rule="evenodd" d="M20.4307 6.42314L25.8334 4.63806L25.86 33.8438L20.4116 35.6692L20.4307 6.42314ZM76.6295 31.5615C81.8215 31.5615 85.7757 28.5422 85.7757 23.3462C85.7757 18.1217 81.8215 15.0971 76.6295 15.0971C71.4405 15.0971 67.4859 18.1129 67.4859 23.3462C67.4859 28.5426 71.4401 31.5615 76.6295 31.5615ZM76.6295 27.7572C74.1255 27.7572 73.1005 25.6727 73.1005 23.3462C73.1005 20.989 74.1206 18.9112 76.6295 18.9112C79.1383 18.9112 80.161 20.9929 80.161 23.3462C80.161 25.6727 79.141 27.7572 76.6295 27.7572ZM85.2768 19.2686H88.3813V25.6727C88.3813 29.4159 89.5583 31.5615 94.4155 31.5615C95.774 31.5615 96.8015 31.3841 97.8305 31.2599L97.6531 27.727C97.1102 27.8171 96.5368 27.9377 95.9944 27.9377C94.2736 27.9377 93.8199 26.9709 93.8199 25.0683V19.2686H97.6229V15.4634H93.8199L93.8186 10.0217L88.4797 11.9287V15.4634H85.2803V19.2686M116.636 31.2001H122.069V23.4078H122.128L126.475 31.2001H133.05L127.133 22.6827L132.595 15.4643H126.651L122.124 22.0786H122.065V10.0421L116.631 11.9301V31.2045" fill="#ED1C24"/>
<path fill-rule="evenodd" clip-rule="evenodd" d="M76.6294 31.5616C81.8215 31.5616 85.7757 28.5422 85.7757 23.3462C85.7757 18.1218 81.8215 15.0971 76.6294 15.0971C71.4405 15.0971 67.4858 18.1129 67.4858 23.3462C67.4858 28.5427 71.4401 31.5616 76.6294 31.5616ZM76.6294 27.7572C74.1254 27.7572 73.1005 25.6728 73.1005 23.3462C73.1005 20.989 74.1206 18.9112 76.6294 18.9112C79.1383 18.9112 80.161 20.993 80.161 23.3462C80.161 25.6728 79.141 27.7572 76.6294 27.7572ZM85.2768 19.2687H88.3813V25.6728C88.3813 29.4159 89.5583 31.5616 94.4155 31.5616C95.7739 31.5616 96.8015 31.3842 97.8304 31.26L97.653 27.7271C97.1102 27.8171 96.5367 27.9377 95.9944 27.9377C94.2736 27.9377 93.8199 26.9709 93.8199 25.0683V19.2687H97.6229V15.4635H93.8199L93.8186 10.0217L88.4797 11.9288V15.4635H85.2803V19.2687M116.636 31.2001H122.069V23.4078H122.128L126.475 31.2001H133.05L127.133 22.6827L132.595 15.4643H126.651L122.124 22.0787H122.065V10.0421L116.631 11.9301V31.2045" fill="white"/>
<path fill-rule="evenodd" clip-rule="evenodd" d="M53.02 31.2H58.4546V23.4077H58.5141L62.8612 31.2H69.4397L63.5234 22.6826L68.986 15.4647H63.0418L58.515 22.079H58.4555V10.0425L53.0209 11.8342V31.2M114.703 31.2732C114.457 30.0212 114.392 28.7674 114.392 27.5132V21.5836C114.392 16.7229 110.878 14.9755 106.816 14.9755C104.465 14.9755 102.418 15.3108 100.464 16.1064L100.552 19.8349C102.077 18.9803 103.85 18.6375 105.622 18.6375C107.608 18.6375 109.225 19.2193 109.256 21.3894C108.408 21.25 107.55 21.1787 106.691 21.1761C103.764 21.1761 98.4755 21.7579 98.4755 26.6178C98.4755 30.0718 101.285 31.6293 104.431 31.6293C106.691 31.6293 108.217 30.7423 109.471 28.7568H109.544C109.544 29.5817 109.635 30.4075 109.666 31.2625H114.707L114.703 31.2732ZM103.613 26.2306C103.613 24.7014 105.08 24.1213 106.943 24.1213C107.768 24.1213 108.563 24.1821 109.264 24.2127C109.264 26.078 107.951 27.9713 105.876 27.9713C104.592 27.9713 103.613 27.33 103.613 26.2306Z" fill="white"/>
<path fill-rule="evenodd" clip-rule="evenodd" d="M40.7424 22.0135C40.2355 26.1913 37.8921 30.412 32.775 30.42C29.7876 30.4253 27.4539 28.3799 25.8378 25.8773V22.9785C27.8601 23.9826 29.7503 25.0603 32.0437 25.0932C34.8687 25.1348 37.4233 24.0487 38.4797 22.0131H40.7429L40.7424 22.0135ZM23.6367 24.6368C21.2893 27.4663 19.0208 30.3566 14.7703 30.3566C8.76665 30.3566 5.91895 24.5521 5.91895 19.6993C5.91895 15.0364 8.14442 9.5166 13.9933 9.5166C16.5301 9.5166 18.972 11.068 20.4275 12.7089L20.4231 16.6671C19.207 15.8484 16.4831 15.0453 14.7046 15.0164C10.9957 14.9543 7.72576 16.562 7.78253 20.2231C7.82111 22.7435 10.3184 24.4567 12.8029 24.4567C16.6081 24.4567 18.9134 20.9806 20.84 18.3422C21.6124 17.3351 22.376 16.3212 23.1307 15.3007C25.2705 12.3106 27.7466 9.58091 31.9971 9.58091C37.0042 9.58091 39.8151 13.6167 40.6098 17.7714H38.348C37.4388 16.4241 35.6901 15.5996 33.9676 15.5996C30.0337 15.5996 27.6832 19.2186 25.7158 21.8831L23.6314 24.6363" fill="white"/>
</svg>
