<svg width="99" height="40" viewBox="0 0 99 40" fill="none" xmlns="http://www.w3.org/2000/svg">
<path fill-rule="evenodd" clip-rule="evenodd" d="M44.2104 0.563965H93.0953C95.7058 0.563965 97.8616 2.82239 97.8616 5.5785V34.4715C97.8616 37.227 95.7058 39.4861 93.0959 39.4861H44.211C41.5946 39.4861 39.457 37.227 39.457 34.4722V5.5785C39.457 2.82239 41.5946 0.563965 44.2104 0.563965Z" fill="#FAB90C"/>
<path d="M44.2103 1.0805C41.8733 1.0805 39.9728 3.09788 39.9728 5.57851V34.4722C39.9728 36.9515 41.8733 38.9702 44.2103 38.9702H93.0952C95.44 38.9702 97.347 36.9515 97.347 34.4722V5.57916C97.347 3.09723 95.44 1.0805 93.0959 1.0805H44.2103ZM93.0952 40H44.2103C41.308 40 38.9443 37.5207 38.9443 34.4722V5.57916C38.9443 2.53198 41.308 0.0500488 44.2103 0.0500488H93.0952C96.0085 0.0500488 98.3768 2.53198 98.3768 5.57916V34.4722C98.3768 37.5207 96.0085 40 93.0959 40" fill="white"/>
<path fill-rule="evenodd" clip-rule="evenodd" d="M34.5094 0.516602H5.46243C2.7479 0.516602 0.516113 2.77113 0.516113 5.52594V34.4456C0.516113 37.1991 2.7479 39.4543 5.46243 39.4543H34.5094C37.2402 39.4543 39.4571 37.1991 39.4571 34.4456V5.52659C39.4571 2.77178 37.2402 0.516602 34.5094 0.516602Z" fill="#9E173B"/>
<path d="M5.46219 1.0324C3.01795 1.0324 1.0324 3.04783 1.0324 5.52651V34.4455C1.0324 36.9236 3.01795 38.9383 5.46219 38.9383H34.5092C36.9521 38.9383 38.9448 36.9236 38.9448 34.4449V5.52651C38.9448 3.04783 36.9515 1.0324 34.5092 1.0324H5.46219ZM34.5092 39.9688H5.46219C2.44944 39.9688 0 37.4901 0 34.4449V5.52651C0 2.47998 2.44944 0 5.46219 0H34.5092C37.52 0 39.9733 2.47998 39.9733 5.52651V34.4455C39.9733 37.4901 37.52 39.9688 34.5092 39.9688Z" fill="white"/>
<path fill-rule="evenodd" clip-rule="evenodd" d="M84.9312 27.8827C89.3006 27.8827 92.8721 24.3684 92.8721 20.0737C92.8721 14.8214 87.5262 11.4097 82.4721 13.0282V16.5412C85.2288 14.9234 88.9205 16.5412 88.9205 19.795C88.9205 22.0736 86.9259 23.989 84.6467 23.989C82.2726 23.989 80.3761 22.0736 80.3761 19.795C80.3761 15.0215 80.2734 10.2571 80.2734 5.4856H76.9209L76.9248 20.0737L77.0047 20.832C77.1281 24.6478 80.6749 27.7827 84.9312 27.8827ZM61.6518 27.3233H65.0862V19.6742C64.8055 15.2028 72.1357 14.8214 71.9356 19.6742V27.3233H75.4077V19.4974C75.7046 9.68993 61.0567 10.3319 61.6518 19.4974V27.3233ZM52.353 12.1673C56.7243 12.1673 60.2757 15.6816 60.2757 19.975C60.2757 25.2273 55.0286 28.663 49.9783 27.0238V23.5069C52.6538 25.126 56.3059 23.5069 56.3059 20.2732C56.3059 17.9784 54.4269 16.0611 52.0554 16.0611C49.6762 16.0611 47.8037 17.9784 47.8037 20.2732C47.8037 25.0253 47.7049 29.6954 47.7049 34.465H44.4277V19.2168C44.5265 15.4029 48.1019 12.2479 52.353 12.1673Z" fill="#9E173B"/>
<path fill-rule="evenodd" clip-rule="evenodd" d="M27.2882 5.60179H34.3786V34.3753H27.2882V26.2278C21.0425 28.5115 15.2021 28.713 9.83675 23.4561C7.61406 21.1431 6.36075 17.9919 6.88507 12.5018C6.97473 11.6611 6.58165 7.76146 5.59473 5.59399H11.8925C14.8428 10.2785 10.9764 16.2572 15.4965 20.0736C21.6571 24.0616 27.0283 19.2927 27.2882 14.987V5.60179ZM20.2238 8.57101C23.5816 8.57101 26.2941 11.2875 26.2941 14.5803C26.2941 17.9036 23.5816 20.5934 20.2238 20.5934C16.8667 20.5934 14.1249 17.9036 14.1249 14.5803C14.1249 11.2875 16.8667 8.57101 20.2238 8.57101Z" fill="#FAB90C"/>
</svg>
