<svg width="138" height="40" viewBox="0 0 138 40" fill="none" xmlns="http://www.w3.org/2000/svg">
<path d="M51.1515 38.0167C51.1515 38.0167 50.5786 38.2272 49.2216 38.2272C44.1314 38.2272 45.8438 32.8625 42.7631 32.8625H42.0487V38.1033H38.1016V22.8778H43.7858C47.8772 22.8778 49.931 24.2784 49.931 27.8575C49.931 30.1238 48.4093 31.2366 47.5689 31.7026C48.7788 33.1595 48.6895 34.9592 50.4779 34.9592H51.1515V38.0167ZM43.3684 29.9042C44.9563 29.9042 46.0916 29.2504 46.0916 27.9954C46.0916 26.7229 45.147 26.0296 43.6253 26.0296H42.0487V29.9042H43.3684Z" fill="white"/>
<path d="M63.8045 30.8629C64.5442 31.4597 65.1488 32.3909 65.1488 33.7437C65.1488 36.9623 62.7761 38.1033 59.9692 38.1033H52.7598V22.8778H59.195C62.306 22.8778 64.1261 24.0271 64.1261 26.9988C64.1261 29.5917 62.4995 29.9788 61.6711 29.9788V30.0394C62.192 30.0394 63.0591 30.2744 63.8045 30.8629ZM58.2589 28.921C59.5659 28.921 60.0706 28.4149 60.0706 27.4464C60.0706 26.5075 59.3857 26.0296 57.9731 26.0296H56.7287V28.921H58.2589ZM58.7262 34.9585C60.0199 34.9585 60.6027 34.5137 60.6027 33.315C60.6027 32.1115 59.7806 31.6322 58.6411 31.6322H56.7287V34.9585H58.7262Z" fill="white"/>
<path d="M67.0278 38.1033V22.8778H70.9912V34.9592H77.1068V38.1033H67.0278Z" fill="white"/>
<path d="M80.9009 38.1033V22.8778H86.4598C89.5807 22.8778 91.3923 24.0792 91.3923 26.8742C91.3923 29.6213 89.7651 30.0865 89.031 30.0865V30.1238C90.0234 30.1238 92.4045 30.9656 92.4045 33.8732C92.4045 37.0433 89.8833 38.1033 87.0665 38.1033H80.9009ZM86.3022 29.2877C88.0174 29.2877 88.584 28.4466 88.584 27.1832C88.584 25.8839 87.7303 25.0991 85.858 25.0991H83.6445V29.2877H86.3022ZM86.5534 35.8855C88.1251 35.8855 89.4434 35.385 89.4434 33.5663C89.4434 31.8764 88.1906 31.2366 86.5358 31.2366H83.6445V35.8855H86.5534Z" fill="#ED1C24"/>
<path d="M102.992 34.185H97.4326L96.0812 38.1033H93.23L98.8347 22.8778H101.605L107.2 38.1033H104.357L102.992 34.185ZM98.1611 32.0685H102.283L100.206 26.2435L98.1611 32.0685Z" fill="#ED1C24"/>
<path d="M117.856 38.1033L111.891 27.8574V38.1033H109.142V22.8778H112.014L118.02 33.4354V22.8778H120.732V38.1033H117.856Z" fill="#ED1C24"/>
<path d="M136.582 36.0374C134.624 36.0374 134.574 32.7484 132.946 31.1127C132.798 30.9656 132.046 30.0653 130.788 29.7212L136.606 22.8777H133.108L127.28 29.6571V29.6212V22.8777H124.538V30.5447V34.5129V38.1032H127.28V34.5129V33.8386L128.989 31.8411H129.15C132.365 31.8411 131.33 38.2102 135.755 38.2102C136.65 38.2102 137.218 38.0723 137.218 38.0723V36.0374H136.582Z" fill="#ED1C24"/>
<path d="M7.61064 9.66656V0H0V22.8622C0 17.2343 3.06453 12.2954 7.61064 9.66656Z" fill="white"/>
<path d="M16.1864 7.65424V15.3001C19.9457 15.7681 22.8617 18.9713 22.8617 22.853C22.8617 27.0739 19.4537 30.484 15.2377 30.484C11.035 30.484 7.61929 27.0739 7.61929 22.853H7.61084V36.0571C9.8568 37.3514 12.4624 38.1088 15.2377 38.1088C23.6549 38.1088 30.4758 31.2864 30.4758 22.8621C30.4758 14.7694 24.161 8.14059 16.1864 7.65424Z" fill="white"/>
<path d="M7.61064 9.66654C3.06453 12.2954 0 17.2342 0 22.8622V36.9467V40H7.61064V38.0039V36.0564V22.853H7.61909C7.61909 18.9713 10.5267 15.7688 14.2873 15.3001V7.65425C11.8654 7.79854 9.58984 8.51576 7.61064 9.66654Z" fill="#ED1C24"/>
</svg>
