<svg width="113" height="40" viewBox="0 0 113 40" fill="none" xmlns="http://www.w3.org/2000/svg">
<path d="M8.50554 0.751117C9.08318 0.0965856 10.0247 0.0243808 10.8414 0C11.4734 0.0450108 12.113 0.0768934 12.7281 0.237244C12.9269 0.323515 13.2214 0.400408 13.2307 0.663909C13.0282 1.08213 12.5331 1.18903 12.1674 1.41596C10.818 2.2149 9.43576 2.9904 8.24485 4.02002C8.26267 3.55397 8.19328 3.09074 8.21766 2.62469C8.23079 1.99923 8.04793 1.26687 8.50554 0.751117Z" fill="white"/>
<path d="M14.4025 1.41767C15.5465 0.778137 16.9484 1.18323 17.9734 1.8659C18.2462 2.03656 18.4854 2.42103 18.2416 2.71454C17.904 3.10744 17.4032 3.325 16.9128 3.45815C13.7827 4.3518 10.8335 5.85873 8.25948 7.84858C8.25479 7.3469 8.25292 6.84521 8.26042 6.34353C10.0299 4.38556 12.1989 2.84676 14.4025 1.41767Z" fill="white"/>
<path d="M19.5455 3.14902C20.1869 2.91459 20.9033 3.18465 21.4125 3.59256C21.7811 3.88232 22.1927 4.11581 22.5397 4.4337C22.7872 4.66438 22.9832 5.05729 22.7666 5.3733C22.4196 5.87311 21.7848 6.01283 21.2381 6.18631C16.6583 7.69323 12.1309 9.57806 8.22813 12.455C8.19531 11.9608 8.19437 11.4648 8.13623 10.9725C10.2527 8.555 12.9421 6.72644 15.7177 5.14918C16.9696 4.43745 18.2608 3.79792 19.5455 3.14902Z" fill="white"/>
<path d="M23.4243 6.29781C23.986 6.06901 24.7127 6.04932 25.1863 6.47598C25.5754 6.86983 25.988 7.24116 26.3819 7.62938C26.6322 7.9182 26.9107 8.31861 26.7429 8.71433C26.5403 9.19445 26.0124 9.412 25.5614 9.59392C21.7083 10.7736 17.8636 12.0414 14.2346 13.8099C12.1163 14.8395 10.0777 16.0464 8.22003 17.4961C8.22284 17.0479 8.1994 16.6006 8.19189 16.1524C10.1405 13.7358 12.6995 11.8979 15.3449 10.3141C17.9339 8.77716 20.6618 7.48872 23.4243 6.29781Z" fill="white"/>
<path d="M26.3749 10.2848C26.8091 10.0879 27.2761 9.8478 27.7675 9.96408C28.3695 10.101 28.7821 10.6186 29.0512 11.1428C29.3813 11.7795 29.9214 12.3731 29.897 13.1336C29.897 13.7 29.4563 14.1473 28.9902 14.408C28.0216 14.9425 26.9076 15.0953 25.8301 15.2603C19.5333 16.3425 13.4484 18.8068 8.27873 22.5774C8.28341 22.0626 8.21965 21.5497 8.21777 21.0358C10.2705 18.8425 12.7179 17.0552 15.276 15.4985C18.7831 13.3821 22.5378 11.7045 26.3749 10.2848Z" fill="white"/>
<path d="M21.6074 17.4424C21.6683 17.9488 21.6355 18.4608 21.6805 18.969C19.4778 21.333 16.8156 23.2216 14.0428 24.8588C10.726 26.7952 7.20581 28.3659 3.60495 29.6947C3.21486 29.8522 2.8332 30.0913 2.39529 30.0651C1.69574 30.0829 1.16499 29.495 0.874298 28.9164C0.52359 28.2497 -0.0474845 27.6186 0.00315258 26.8177C0.032222 26.2476 0.497333 25.8266 0.967133 25.5725C1.90204 25.0801 2.96261 24.9217 3.99411 24.7623C10.3125 23.6923 16.4218 21.2252 21.6074 17.4424Z" fill="white"/>
<path d="M26.6838 18.6521C27.5343 18.0229 28.6464 17.8635 29.6779 17.961C30.144 17.9779 30.6044 18.0764 31.0489 18.217C31.6537 18.4027 32.2858 18.5518 32.8193 18.9081C32.8137 19.799 32.8137 20.6898 32.8193 21.5806C32.3083 21.1709 31.7194 20.8661 31.1127 20.6242C30.5369 20.4104 29.8917 20.2322 29.2869 20.4272C28.9718 20.5229 28.6924 20.837 28.7955 21.183C28.9353 21.5394 29.2897 21.741 29.6095 21.9154C30.5031 22.3336 31.4024 22.7753 32.1732 23.4008C32.7434 23.8556 33.0097 24.602 32.99 25.3175C33.0191 26.108 32.6918 26.9182 32.072 27.4217C31.303 28.0547 30.2912 28.336 29.3085 28.3538C27.9807 28.4026 26.6482 28.0913 25.4507 27.5239C25.4582 26.6218 25.4554 25.7198 25.4526 24.8177C26.1493 25.2734 26.9117 25.6344 27.7134 25.8623C28.2639 26.0283 28.8846 25.9692 29.3779 25.6672C29.5514 25.5669 29.5936 25.3597 29.6479 25.1843C29.4942 24.753 29.0337 24.571 28.6539 24.3863C27.8306 24.0497 27.0204 23.6333 26.3734 23.0125C25.1628 21.8601 25.326 19.6236 26.6838 18.6521Z" fill="white"/>
<path d="M38.1458 18.4872C39.3667 18.3437 40.6514 18.4862 41.7438 19.0789C42.9976 19.7606 43.9906 20.9843 44.2204 22.4134C44.3545 23.4459 44.3123 24.5458 43.8246 25.4873C43.1129 26.9211 41.6585 27.9216 40.0906 28.1814C38.7891 28.3896 37.3937 28.2442 36.2347 27.584C35.1488 26.9651 34.2477 25.959 33.9016 24.7437C33.5481 23.4477 33.6803 21.9896 34.4015 20.839C35.2051 19.5346 36.6342 18.6757 38.1458 18.4872ZM38.3483 21.3369C36.9174 21.8245 36.6201 23.9279 37.6779 24.9247C38.3755 25.6373 39.6555 25.6345 40.3466 24.9153C40.7911 24.4905 40.9908 23.8603 40.9477 23.2546C40.9777 22.5053 40.5435 21.7673 39.8787 21.4232C39.4051 21.1963 38.8444 21.1625 38.3483 21.3369Z" fill="white"/>
<path d="M56.6629 18.5715C60.0059 18.5725 63.348 18.5706 66.691 18.5725C66.6891 19.4033 66.6872 20.2332 66.6928 21.064C65.5779 21.0574 64.4639 21.0621 63.3498 21.0612C63.3508 23.4233 63.3508 25.7864 63.3498 28.1485C62.2274 28.1485 61.104 28.1485 59.9815 28.1485C59.9806 25.7864 59.9806 23.4233 59.9815 21.0612C58.8741 21.0603 57.7666 21.0621 56.6592 21.0603C56.6676 20.2304 56.6611 19.4014 56.6629 18.5715Z" fill="white"/>
<path d="M67.916 18.5715C69 18.5715 70.085 18.5715 71.1699 18.5725C71.169 19.7474 71.169 20.9233 71.1699 22.0993C72.4668 22.1002 73.7627 22.0993 75.0596 22.0993C75.0605 20.9233 75.0605 19.7484 75.0605 18.5725C76.1464 18.5715 77.2332 18.5715 78.3191 18.5725C78.3173 21.7898 78.3163 25.0062 78.3191 28.2235C77.2332 28.2245 76.1464 28.2245 75.0605 28.2235C75.0605 27.0364 75.0605 25.8492 75.0605 24.6621C73.7637 24.6592 72.4668 24.6621 71.1699 24.6602C71.1699 25.8483 71.169 27.0364 71.1699 28.2245C70.085 28.2245 69 28.2245 67.916 28.2235C67.917 25.0062 67.917 21.7889 67.916 18.5715Z" fill="white"/>
<path d="M45.3169 18.6652C46.4206 18.6643 47.5252 18.6671 48.6298 18.6643C48.627 20.2584 48.6289 21.8526 48.6289 23.4458C48.6251 23.9231 48.6008 24.4219 48.8033 24.8674C48.9815 25.2931 49.3828 25.611 49.8386 25.6851C50.3768 25.7891 50.992 25.7591 51.4477 25.4244C51.9091 25.0737 52.0544 24.4623 52.0694 23.9109C52.0675 22.162 52.0694 20.4141 52.0685 18.6652C53.1722 18.6643 54.2768 18.6671 55.3814 18.6643C55.3786 20.0718 55.3805 21.4784 55.3805 22.885C55.3908 23.8968 55.4199 24.9471 55.0167 25.8989C54.6406 26.8666 53.7995 27.6036 52.8261 27.9375C51.5565 28.3716 50.1761 28.3988 48.8596 28.1982C47.8403 28.0275 46.8088 27.5877 46.1646 26.7494C45.4988 25.8998 45.2878 24.783 45.3159 23.7261C45.3178 22.0392 45.3169 20.3522 45.3169 18.6652Z" fill="white"/>
<path d="M15.6824 26.1962C17.7839 25.1685 19.8159 23.9776 21.6567 22.5278C21.6501 22.977 21.7176 23.4337 21.6961 23.8763C20.1732 25.7733 18.2471 27.3018 16.2338 28.6474C13.2537 30.612 10.0289 32.1695 6.76375 33.5949C6.18517 33.8902 5.44718 34.0112 4.86392 33.6614C4.52446 33.3726 4.2197 33.0444 3.88962 32.7443C3.62425 32.5043 3.35887 32.2483 3.19477 31.9257C3.04098 31.6134 3.11037 31.2158 3.36731 30.9795C3.80898 30.5613 4.40912 30.3841 4.9802 30.2209C8.62325 29.0985 12.2485 27.8663 15.6824 26.1962Z" fill="white"/>
<path d="M8.9523 33.7346C13.4234 32.2352 17.8475 30.3841 21.6594 27.5625C21.6697 28.0586 21.771 28.5546 21.7391 29.0497C20.4319 30.5782 18.8537 31.8554 17.2015 32.9919C15.1703 34.3798 13.0033 35.5538 10.7968 36.6331C10.4995 36.815 10.1704 36.9819 9.81125 36.9641C9.3452 36.9182 8.88572 36.7503 8.52188 36.4512C8.10178 36.1117 7.6076 35.8576 7.24658 35.4497C6.99245 35.1918 6.97839 34.7314 7.25501 34.4848C7.70981 34.0328 8.37278 33.9437 8.9523 33.7346Z" fill="white"/>
<path d="M25.437 29.3555C26.4844 29.3555 27.5319 29.3555 28.5793 29.3564C28.5793 32.4481 28.5793 35.5407 28.5793 38.6324C27.5319 38.6333 26.4844 38.6324 25.437 38.6333C25.4379 35.5407 25.4379 32.4481 25.437 29.3555Z" fill="white"/>
<path d="M30.2539 29.3545C31.2291 29.3573 32.2044 29.3554 33.1796 29.3554C34.5637 30.8999 35.9421 32.449 37.3394 33.9803C37.3553 32.4387 37.3422 30.897 37.3459 29.3554C38.4065 29.3564 39.468 29.3545 40.5286 29.3564C40.5267 32.448 40.5267 35.5407 40.5286 38.6323C39.5514 38.6201 38.5696 38.6595 37.5954 38.6136C36.2113 37.0917 34.8609 35.5369 33.4544 34.0356C33.4572 35.5679 33.4544 37.1001 33.4553 38.6323C32.3882 38.6342 31.321 38.6314 30.2539 38.6342C30.2558 35.5407 30.2558 32.448 30.2539 29.3545Z" fill="white"/>
<path d="M42.0127 29.3564C43.7775 29.3808 45.546 29.2982 47.3071 29.4098C48.5683 29.4952 49.7874 30.0644 50.6454 30.9955C51.4284 31.7954 51.8072 32.9319 51.7603 34.0403C51.7922 35.1421 51.3824 36.2552 50.6004 37.0391C49.7536 37.9525 48.5439 38.4898 47.309 38.578C45.546 38.6905 43.7775 38.608 42.0127 38.6323C42.0146 35.5407 42.0146 32.448 42.0127 29.3564ZM45.1785 31.7298C45.1775 33.2395 45.1775 34.7492 45.1785 36.259C45.6126 36.2571 46.0477 36.2618 46.4828 36.2599C47.1467 36.2477 47.7938 35.9026 48.1604 35.3466C48.5355 34.8102 48.5786 34.1228 48.4961 33.4927C48.3723 32.7659 47.8557 32.1086 47.1552 31.8601C46.5185 31.6397 45.8367 31.7598 45.1785 31.7298Z" fill="white"/>
<path d="M52.7246 29.3554C53.7664 29.3554 54.8082 29.3573 55.85 29.3545C55.8482 32.448 55.8482 35.5407 55.85 38.6342C54.8082 38.6314 53.7664 38.6333 52.7246 38.6333C52.7255 35.5407 52.7255 32.448 52.7246 29.3554Z" fill="white"/>
<path d="M60.1661 29.3564C61.4057 29.3583 62.6445 29.3489 63.8842 29.3611C65.0376 32.4556 66.2135 35.5407 67.3706 38.6333C66.4085 38.6268 65.4445 38.6437 64.4824 38.6258L64.428 38.5939C64.2349 38.0791 64.0567 37.5596 63.8738 37.042C62.5985 37.0345 61.3232 37.042 60.0479 37.0373C59.8594 37.5606 59.6625 38.0801 59.4637 38.5986C59.3334 38.6662 59.1749 38.6211 59.0352 38.6352C58.1865 38.6324 57.3379 38.6296 56.4893 38.6371C57.7186 35.5454 58.9461 32.4519 60.1661 29.3564ZM61.99 31.8611C61.5867 32.8513 61.236 33.8631 60.8244 34.8487C61.5839 34.8965 62.3463 34.8581 63.1077 34.8693C62.7401 33.865 62.3679 32.8616 61.99 31.8611Z" fill="white"/>
<path d="M67.9868 29.3573C68.9649 29.3582 69.9438 29.3479 70.9219 29.3629C72.2994 30.9214 73.7079 32.4537 75.0835 34.014C75.0723 32.4612 75.0835 30.9083 75.0779 29.3545C76.145 29.3573 77.2121 29.3545 78.2793 29.3564C78.2793 32.448 78.2793 35.5407 78.2793 38.6323C77.3059 38.6342 76.3326 38.6295 75.3592 38.6351C73.9536 37.1048 72.5826 35.5435 71.1826 34.0084C71.1535 35.5491 71.1779 37.0917 71.1704 38.6333C70.1098 38.6323 69.0483 38.6342 67.9877 38.6323C67.9896 35.5407 67.9906 32.449 67.9868 29.3573Z" fill="white"/>
<path d="M82.938 29.3564C83.9732 29.3545 85.0085 29.3564 86.0447 29.3545C86.9571 29.3995 87.9361 29.4295 88.7237 29.9546C89.7299 30.5867 89.9268 32.1405 89.172 33.0379C88.9854 33.2582 88.7397 33.4177 88.4846 33.5471C89.1457 33.7899 89.804 34.2053 90.0778 34.8861C90.3966 35.6982 90.3544 36.6734 89.9034 37.4292C89.443 38.1663 88.5512 38.4664 87.7307 38.5667C86.1366 38.697 84.5349 38.6061 82.938 38.6323C82.938 35.5407 82.938 32.448 82.938 29.3564ZM85.0122 31.0011C85.0132 31.6716 85.0122 32.3421 85.0132 33.0126C85.5777 33.0097 86.1422 33.0172 86.7076 33.0107C87.0649 33.0144 87.4709 32.8691 87.6266 32.5221C87.8507 32.0064 87.6726 31.2374 87.0696 31.0846C86.3954 30.9289 85.6968 31.0283 85.0122 31.0011ZM85.0132 34.6948C85.0132 35.4347 85.0113 36.1755 85.0141 36.9154C85.6986 36.9116 86.3851 36.9229 87.0705 36.9116C87.4391 36.8732 87.8676 36.7944 88.0917 36.4653C88.3008 36.1005 88.299 35.6269 88.117 35.2518C87.892 34.8561 87.4109 34.7126 86.9824 34.6995C86.326 34.6864 85.6696 34.6986 85.0132 34.6948Z" fill="white"/>
<path d="M106.269 29.3564C106.916 29.3555 107.563 29.3555 108.21 29.3555C108.209 32.3918 108.21 35.4282 108.21 38.4645C107.563 38.4626 106.916 38.4626 106.269 38.4645C106.269 35.4282 106.269 32.3918 106.269 29.3564Z" fill="white"/>
<path d="M91.6408 32.8447C92.6995 32.2896 93.9316 32.0355 95.1225 32.1883C95.6777 32.268 96.2844 32.4828 96.5666 33.0069C96.9755 33.6868 96.8395 34.5073 96.8639 35.2612C96.8808 35.8651 96.8282 36.4728 96.8892 37.0739C97.0777 37.3467 97.4556 37.1442 97.7041 37.0701C97.7032 37.3974 97.7285 37.7228 97.7303 38.05C97.1264 38.337 96.4757 38.6661 95.7864 38.5573C95.4226 38.4954 95.176 38.1794 95.0653 37.8475C94.5027 38.2948 93.79 38.5198 93.0764 38.5433C92.585 38.5283 92.059 38.4129 91.7045 38.0472C91.2103 37.5193 91.1419 36.6116 91.6108 36.0452C91.9905 35.5735 92.5588 35.31 93.1102 35.0915C93.7206 34.8533 94.3583 34.6949 94.9894 34.5204C95.0109 34.2138 94.9331 33.8715 94.6809 33.6737C94.318 33.3858 93.8191 33.3548 93.3793 33.4346C92.7341 33.563 92.1368 33.8818 91.6351 34.3019C91.6464 33.8162 91.6389 33.3305 91.6408 32.8447ZM93.4684 36.213C93.1899 36.5506 93.2021 37.2155 93.6728 37.3702C94.1248 37.4827 94.5777 37.2773 94.9603 37.0523C94.9519 36.5187 94.9697 35.9842 94.9481 35.4507C94.4314 35.6448 93.835 35.7667 93.4684 36.213Z" fill="white"/>
<path d="M12.9079 36.5759C16.0764 35.6869 19.0546 34.1584 21.6606 32.1536C21.6521 32.6524 21.6634 33.1522 21.6521 33.6511C20.1471 35.3446 18.312 36.7034 16.4459 37.9703C15.9386 38.2835 15.4753 38.7083 14.8761 38.8339C14.1503 39.0261 13.3777 38.8742 12.7062 38.5676C12.3152 38.3922 11.8857 38.2103 11.6326 37.8474C11.4647 37.6177 11.5894 37.312 11.791 37.1516C12.1127 36.8778 12.5037 36.6893 12.9079 36.5759Z" fill="white"/>
<path d="M100.543 33.1136C101.081 32.5979 101.793 32.2331 102.551 32.2275C103.157 32.1947 103.821 32.355 104.227 32.837C104.691 33.3696 104.788 34.1123 104.763 34.794C104.761 36.0103 104.76 37.2274 104.763 38.4446C104.12 38.4465 103.476 38.4437 102.834 38.4465C102.83 37.1637 102.846 35.8809 102.827 34.599C102.823 34.1836 102.684 33.6491 102.226 33.5309C101.521 33.3593 100.858 33.9182 100.549 34.5034C100.533 35.8162 100.545 37.1309 100.543 38.4446C99.9196 38.4455 99.296 38.4446 98.6733 38.4446C98.6743 36.4154 98.6743 34.3861 98.6733 32.356C99.296 32.3569 99.9196 32.355 100.543 32.3569C100.54 32.6091 100.541 32.8614 100.543 33.1136Z" fill="white"/>
<path d="M110.529 32.356C111.31 32.3579 112.091 32.3532 112.872 32.3588C112.096 33.3275 111.297 34.2793 110.536 35.2592C110.688 35.5771 110.957 35.835 111.153 36.1313C111.736 36.9162 112.317 37.7011 112.901 38.4841C112.152 38.4766 111.404 38.4841 110.656 38.4803C109.865 37.416 109.061 36.361 108.257 35.308C109.024 34.3318 109.771 33.3397 110.529 32.356Z" fill="white"/>
<path d="M19.5014 37.5369C20.2468 37.0586 20.9998 36.5795 21.6609 35.9868C21.6469 36.8298 21.6816 37.6728 21.6956 38.5149C21.6628 39.1226 21.1639 39.5914 20.6172 39.7827C19.8286 40.0594 18.9744 40.02 18.1548 39.9449C17.7 39.8727 17.2058 39.8709 16.811 39.6046C16.6741 39.5361 16.6976 39.3758 16.6929 39.2501C16.8251 39.1244 16.9564 38.9932 17.1223 38.9125C17.9429 38.5027 18.7202 38.0151 19.5014 37.5369Z" fill="white"/>
</svg>
