<svg width="103" height="40" viewBox="0 0 103 40" fill="none" xmlns="http://www.w3.org/2000/svg">
<path d="M19.5649 39.4115L2.79095 28.4917C2.79095 28.4917 0.687441 27.2822 0.205897 25.0291C-0.470532 21.8656 1.75912 19.1533 1.75912 19.1533L23.5288 33.3309C25.2082 34.4253 25.6663 36.6644 24.587 38.3533C23.478 40.0883 21.1993 40.4711 19.5642 39.4115H19.5649Z" fill="white"/>
<path d="M3.67644 16.8134C3.67644 16.8134 1.1071 15.262 1.1071 11.6737C1.1071 8.09772 3.67534 6.56533 3.67534 6.56533L12.8455 0.563763C13.6525 0.0523862 14.6286 -0.12021 15.562 0.0834134C16.4954 0.287037 17.3109 0.850458 17.8316 1.65146C18.3523 2.45247 18.5362 3.42647 18.3434 4.36218C18.1506 5.29789 17.5966 6.11986 16.8017 6.6498L9.07288 11.6824L22.2413 20.2588C22.2413 20.2588 24.6117 21.6168 25.0787 23.9093C25.7306 27.1076 23.5291 29.7427 23.5291 29.7427L3.67644 16.8134ZM3.62781 39.9904C4.48852 39.9904 5.10132 39.7173 5.69914 39.3297L10.1756 36.4138L5.69914 33.4985C5.09584 33.1099 4.46256 32.8378 3.62781 32.8378C3.15386 32.8311 2.68329 32.9186 2.24345 33.0952C1.80361 33.2719 1.40328 33.5343 1.06573 33.867C0.728172 34.1998 0.460127 34.5963 0.277171 35.0336C0.0942159 35.4709 0 35.9401 0 36.4141C0 36.8881 0.0942159 37.3574 0.277171 37.7947C0.460127 38.2319 0.728172 38.6285 1.06573 38.9612C1.40328 39.294 1.80361 39.5564 2.24345 39.733C2.68329 39.9097 3.15386 39.9972 3.62781 39.9904Z" fill="white"/>
<path d="M20.9367 8.10645C20.0757 8.10645 19.4629 8.37958 18.865 8.76679L14.3882 11.6824L18.865 14.598C19.4683 14.987 20.102 15.259 20.9367 15.259C21.4064 15.259 21.8714 15.1665 22.3053 14.9868C22.7392 14.8071 23.1335 14.5437 23.4656 14.2116C23.7977 13.8795 24.0611 13.4852 24.2408 13.0513C24.4205 12.6174 24.513 12.1524 24.513 11.6827C24.513 11.2131 24.4205 10.7481 24.2408 10.3142C24.0611 9.88026 23.7977 9.48601 23.4656 9.15392C23.1335 8.82183 22.7392 8.5584 22.3053 8.37867C21.8714 8.19895 21.4064 8.10645 20.9367 8.10645Z" fill="white"/>
<path d="M39.56 28.6386C40.5066 28.6386 41.3893 28.3819 42.0789 27.7881V29.1197C41.3085 29.6492 40.394 29.8737 39.4313 29.8737C37.0071 29.8737 35.3237 28.1888 35.3237 25.7661C35.3237 23.3591 37.0565 21.6746 39.4635 21.6746C40.4101 21.6746 41.2924 21.9478 41.9984 22.4768V23.9368C41.3728 23.2633 40.5066 22.9101 39.5436 22.9101C37.8587 22.9101 36.6715 24.0816 36.6715 25.7658C36.6715 27.4506 37.8751 28.6386 39.56 28.6386ZM44.8226 29.7296H43.5228V19.3119L44.8226 20.1152V23.1672C45.4164 22.2527 46.3631 21.6754 47.5664 21.6754C49.5562 21.6754 50.6151 23.135 50.6151 25.0765V29.7296H49.2995V25.301C49.2995 23.7606 48.6256 22.9427 47.2453 22.9427C45.7853 22.9427 44.8215 24.1939 44.8215 25.7665L44.8226 29.7296ZM58.6858 28.3808C58.0283 29.3113 57.0174 29.873 55.7819 29.873C53.4714 29.873 51.8187 28.1563 51.8187 25.8137C51.8187 23.4238 53.4714 21.6739 55.7819 21.6739C57.0174 21.6739 58.0283 22.2516 58.6858 23.1986V21.8183H60.0017V29.7285H58.6858V28.3808ZM53.1665 25.7976C53.1665 27.4342 54.3058 28.6375 55.9102 28.6375C57.5307 28.6375 58.6858 27.4342 58.6858 25.7976C58.6858 24.1288 57.5307 22.9094 55.9102 22.9094C54.3058 22.9105 53.1665 24.1295 53.1665 25.7987V25.7976ZM63.3231 29.7296H62.0233V21.8194H63.3231V23.5039C63.9487 22.3324 64.9597 21.675 66.2113 21.675V23.1672C64.6387 22.9427 63.3231 24.0016 63.3231 25.9588V29.7296ZM79.5289 26.2798H73.2871C73.4798 27.708 74.6031 28.6547 76.1753 28.6547C77.1863 28.6547 78.1651 28.3658 78.9995 27.772V29.0236C78.149 29.6013 77.1863 29.8741 76.1753 29.8741C73.6882 29.8741 71.9079 28.2696 71.9079 25.8455C71.9079 23.4706 73.4162 21.6739 75.8071 21.6739C78.0854 21.6739 79.5779 23.3584 79.5779 25.621C79.5783 25.8414 79.5618 26.0619 79.5289 26.2798ZM73.3032 25.2217H78.1973C78.0689 23.8736 77.2185 22.879 75.8225 22.879C74.3782 22.8783 73.5116 23.8893 73.3032 25.221V25.2217ZM82.3048 29.7296H81.005V21.8194H82.3048V23.5039C82.9304 22.3324 83.9411 21.675 85.1926 21.675V23.1672C83.6208 22.9427 82.3048 24.0016 82.3048 25.9588V29.7296ZM92.9109 26.2798H86.6695C86.8614 27.708 87.985 28.6547 89.5573 28.6547C90.5682 28.6547 91.5471 28.3658 92.3814 27.772V29.0236C91.531 29.6013 90.5682 29.8741 89.5573 29.8741C87.0702 29.8741 85.2899 28.2696 85.2899 25.8455C85.2899 23.4706 86.7978 21.6739 89.1887 21.6739C91.467 21.6739 92.9591 23.3584 92.9591 25.621C92.9597 25.8415 92.9436 26.0618 92.9109 26.2798ZM86.6855 25.2217H91.5789C91.4505 23.8736 90.6001 22.879 89.2044 22.879C87.7605 22.8783 86.8947 23.8893 86.6855 25.221V25.2217ZM100.713 28.3713C100.072 29.3183 99.0444 29.8956 97.809 29.8956C95.4981 29.8956 93.8455 28.1786 93.8455 25.836C93.8455 23.4462 95.4981 21.6962 97.809 21.6962C99.0444 21.6962 100.072 22.2904 100.713 23.2527V19.3137L102.029 20.1174V29.7293H100.713V28.3713ZM95.1936 25.8202C95.1936 27.4568 96.3325 28.6605 97.9373 28.6605C99.5578 28.6605 100.713 27.4568 100.713 25.8202C100.713 24.1515 99.5578 22.9321 97.9373 22.9321C96.3325 22.9321 95.1936 24.1507 95.1936 25.8202ZM68.4823 27.1003C68.4823 28.2075 69.1562 28.6408 70.0066 28.6408C70.6672 28.6472 71.313 28.445 71.852 28.0631V29.3307C71.3057 29.7318 70.5522 29.8923 69.8944 29.8923C68.2095 29.8923 67.1824 29.138 67.1824 27.0038V19.3101L68.4823 20.1134V27.1003ZM70.5832 21.716C70.4727 21.6442 70.349 21.595 70.2194 21.571C70.0898 21.5471 69.9567 21.5489 69.8278 21.5763C69.6989 21.6038 69.5767 21.6564 69.4681 21.7311C69.3595 21.8058 69.2667 21.9012 69.1949 22.0118C69.1232 22.1223 69.0739 22.246 69.05 22.3756C69.026 22.5052 69.0278 22.6383 69.0553 22.7672C69.0828 22.8961 69.1353 23.0183 69.2101 23.1269C69.2848 23.2355 69.3801 23.3283 69.4907 23.4001L69.5185 23.4176C69.6799 23.521 69.8676 23.576 70.0593 23.576C70.251 23.576 70.4386 23.521 70.6001 23.4176L71.8926 22.5887L70.5832 21.716ZM38.0357 17.2314C38.9658 17.2314 39.6401 16.8303 39.6401 16.1082C39.6401 15.6749 39.4156 15.3381 38.8207 15.0972L36.9431 14.3432C35.9804 13.9261 35.451 13.3805 35.451 12.3534C35.451 10.9735 36.5581 10.107 38.1625 10.107C39.0927 10.107 39.9593 10.3636 40.5692 10.8291V12.1948C39.8474 11.5527 38.9644 11.1838 38.1794 11.1838C37.3446 11.1838 36.7508 11.5688 36.7508 12.2108C36.7508 12.692 36.9757 12.9809 37.6017 13.2215L39.4792 13.9758C40.4898 14.4091 40.9556 15.0186 40.9556 15.869C40.9556 17.3773 39.7359 18.3078 38.0196 18.3078C36.976 18.3078 36.0294 18.019 35.3398 17.506V16.0921C36.1738 16.8782 37.1048 17.2314 38.0357 17.2314ZM43.427 15.5144C43.427 16.6215 44.1005 17.0548 44.9513 17.0548C45.6113 17.0607 46.2563 16.8586 46.7949 16.4771V17.7448C46.2486 18.1459 45.4947 18.3064 44.8369 18.3064C43.152 18.3064 42.1257 17.5524 42.1257 15.4182V8.52193L43.4252 7.71753L43.427 15.5144ZM54.0648 16.8139C53.4071 17.7448 52.3961 18.3064 51.1606 18.3064C48.8501 18.3064 47.1974 16.5897 47.1974 14.2467C47.1974 11.8569 48.8501 10.107 51.1606 10.107C52.3961 10.107 53.4071 10.6847 54.0648 11.6317V10.2525H55.3808V18.162H54.0648V16.8139ZM48.5452 14.231C48.5452 15.8676 49.6845 17.0709 51.2889 17.0709C52.9098 17.0709 54.0648 15.8676 54.0648 14.231C54.0648 12.5622 52.9098 11.3425 51.2889 11.3425C49.6845 11.3425 48.5452 12.5622 48.5452 14.231ZM58.7019 18.162H57.402V10.2525H58.7019V11.6002C59.2956 10.6858 60.2423 10.1081 61.4456 10.1081C63.4354 10.1081 64.4943 11.5684 64.4943 13.51V18.1631H63.1787V13.7348C63.1787 12.1944 62.5048 11.3761 61.1249 11.3761C59.6646 11.3761 58.7008 12.6277 58.7008 14.2003L58.7019 18.162ZM72.5654 16.782C71.9237 17.729 70.8966 18.3068 69.6611 18.3068C67.3506 18.3068 65.698 16.5897 65.698 14.2467C65.698 11.8569 67.3506 10.107 69.6611 10.107C70.8966 10.107 71.9237 10.7008 72.5654 11.6635V8.52083L73.8813 7.71753V18.162H72.5654V16.782ZM67.0457 14.231C67.0457 15.8676 68.185 17.0709 69.7894 17.0709C71.4103 17.0709 72.5654 15.8676 72.5654 14.231C72.5654 12.5622 71.4103 11.3425 69.7894 11.3425C68.1861 11.3425 67.0457 12.5622 67.0457 14.231ZM96.6342 16.782C95.9925 17.729 94.9654 18.3068 93.7299 18.3068C91.4191 18.3068 89.7664 16.5897 89.7664 14.2467C89.7664 11.8569 91.4191 10.107 93.7299 10.107C94.9654 10.107 95.9925 10.7008 96.6342 11.6635V8.52083L97.9497 7.71753V18.162H96.6342V16.782ZM91.1145 14.231C91.1145 15.8676 92.2535 17.0709 93.8583 17.0709C95.4788 17.0709 96.6342 15.8676 96.6342 14.231C96.6342 12.5622 95.4788 11.3425 93.8583 11.3425C92.2546 11.3425 91.1145 12.5622 91.1145 14.231ZM82.1608 16.8139C81.503 17.7448 80.492 18.3064 79.2565 18.3064C76.9461 18.3064 75.2934 16.5897 75.2934 14.2467C75.2934 11.8569 76.9461 10.107 79.2565 10.107C80.492 10.107 81.503 10.6847 82.1608 11.6317V10.2525H83.4767V18.162H82.1608V16.8139ZM76.6411 14.231C76.6411 15.8676 77.7804 17.0709 79.3849 17.0709C81.0054 17.0709 82.1608 15.8676 82.1608 14.231C82.1608 12.5622 81.0054 11.3425 79.3849 11.3425C77.7794 11.3425 76.6411 12.5622 76.6411 14.231ZM86.7978 18.162H85.498V10.2525H86.7978V11.9374C87.4234 10.7658 88.4344 10.1081 89.686 10.1081V11.6002C88.1134 11.3757 86.7978 12.4346 86.7978 14.3922V18.162ZM45.2588 11.9374C45.3975 12.0278 45.5565 12.0826 45.7215 12.0967C45.8865 12.1109 46.0524 12.0841 46.2045 12.0186C46.3566 11.9531 46.4902 11.8511 46.5933 11.7215C46.6965 11.5919 46.7659 11.4388 46.7956 11.2759C46.8193 11.1457 46.817 11.0121 46.7888 10.8828C46.7605 10.7535 46.7069 10.6311 46.6311 10.5227C46.5555 10.4142 46.4592 10.3218 46.3477 10.2507L46.3199 10.2335C46.1581 10.1307 45.9703 10.0764 45.7786 10.077C45.5869 10.0777 45.3994 10.1332 45.2384 10.2371L43.9466 11.069L45.2588 11.9374Z" fill="white"/>
</svg>
