<svg width="117" height="40" viewBox="0 0 117 40" fill="none" xmlns="http://www.w3.org/2000/svg">
<path d="M68.9984 20.2992C66.8662 18.5316 64.1062 17.3904 61.6721 16.3831C58.3154 14.9949 55.4155 13.7972 55.4155 11.5758C55.4155 10.6057 55.8693 9.71449 56.6951 9.07163C57.5655 8.39282 58.7811 8.0198 60.1157 8.0198C64.313 8.0198 67.6608 10.988 67.6905 11.0148L68.5088 11.7615L72.2285 4.78482L71.803 4.33523C71.6408 4.16313 67.7232 0.118652 60.1663 0.118652C56.5404 0.118652 53.206 1.27763 50.7733 3.38155C48.305 5.51662 46.9421 8.46418 46.9421 11.6794C46.9421 14.8143 48.1592 17.3496 50.6573 19.4283C52.7582 21.1735 55.3753 22.3014 57.9077 23.3934C61.3611 24.8813 64.3472 26.1684 64.3472 28.4581C64.3472 30.2019 63.1659 32.0662 59.8553 32.0662C55.1075 32.0662 51.2971 28.4507 51.2599 28.4135L50.5457 27.7204L45.9214 34.1286L46.3827 34.6451C46.4344 34.6986 47.6295 36.0184 49.8747 37.3321C51.9339 38.5344 55.3203 39.9687 59.7497 39.9687C63.6257 39.9687 66.9287 38.7799 69.3034 36.5332C71.5367 34.4174 72.7657 31.4952 72.7657 28.3038C72.7657 25.02 71.5337 22.4016 68.9984 20.2992Z" fill="white"/>
<path d="M108.091 39.393H116.756V0.694824H108.091V39.393Z" fill="white"/>
<path d="M91.1521 32.1455H84.5563V7.93932H90.3724C92.9792 7.93932 94.4745 9.39741 94.4745 11.9387C94.4745 14.5068 93.1294 15.8072 90.4751 15.8072H88.4724V22.9296H91.1521C92.6176 22.9296 93.8392 23.3863 94.6828 24.2552C95.5696 25.1659 95.9296 26.0675 95.9296 27.3664C95.9296 30.3154 94.0995 32.1455 91.1521 32.1455ZM102.658 22.0013C101.801 20.6532 100.625 19.5819 99.2267 18.8648C101.484 17.0555 102.76 14.2776 102.76 11.1055C102.76 7.89763 101.539 5.22245 99.2267 3.3641C97.0485 1.61584 94.0237 0.69043 90.4751 0.69043H76.376V39.3885H90.6328C94.415 39.3885 97.6868 38.4333 100.093 36.6225C102.824 34.5692 104.266 31.5132 104.266 27.7816C104.266 25.6554 103.711 23.6557 102.658 22.0013Z" fill="white"/>
<path d="M20.006 0C8.957 0 0 8.97778 0 20.0521C0 30.4344 7.87234 38.9734 17.9586 40V25.4337C15.7908 24.6068 14.2464 22.507 14.2464 20.0521C14.2464 16.8754 16.8293 14.291 20.006 14.291C23.1811 14.291 25.767 16.8754 25.767 20.0521C25.767 22.507 24.2196 24.6064 22.0518 25.4337V40C32.1396 38.9734 40.0119 30.4344 40.0119 20.0521C40.0119 8.97778 31.0549 0 20.006 0Z" fill="white"/>
</svg>
