<svg width="129" height="40" viewBox="0 0 129 40" fill="none" xmlns="http://www.w3.org/2000/svg">
<path fill-rule="evenodd" clip-rule="evenodd" d="M66.2342 31.3742C66.0584 31.3742 65.9668 31.3013 65.9668 31.153V0.288987C65.9668 0.111926 66.0583 0.0239258 66.2342 0.0239258H81.2415C92.9109 0.0239258 93.2585 12.6919 87.0366 15.1915C89.5318 16.2603 91.6846 18.4845 91.7359 22.3787C91.7359 25.1418 90.8504 27.3315 89.0766 28.949C87.3321 30.5656 85.2653 31.3742 82.8719 31.3742H66.2342ZM71.5391 5.36176V12.6919H81.2741C87.0965 12.2893 87.0202 5.24089 80.7104 5.36176H71.5391ZM71.5391 18.0419V26.0015H81.718C87.7453 25.8007 87.0844 17.9079 81.718 18.0419H71.5391Z" fill="white"/>
<path fill-rule="evenodd" clip-rule="evenodd" d="M69.2445 34.7776C69.3811 34.965 69.4503 35.1897 69.4503 35.4526C69.4504 35.7223 69.3811 35.9411 69.2435 36.1017C69.1659 36.195 69.0542 36.2792 68.9038 36.3551C69.131 36.4382 69.3018 36.5689 69.4181 36.7448C69.5332 36.9236 69.5912 37.1388 69.5912 37.3928C69.5913 37.6544 69.5237 37.8898 69.3931 38.1C69.3095 38.2365 69.2035 38.352 69.0781 38.4458C68.937 38.5533 68.7698 38.6282 68.575 38.6679C68.3829 38.7084 68.1745 38.7276 67.9491 38.7276H65.9448V34.3066H68.0924C68.6348 34.3149 69.0182 34.4705 69.2445 34.7776ZM66.8304 35.0746V36.048H67.9114C68.1046 36.048 68.2617 36.0128 68.3821 35.941C68.5016 35.8655 68.5614 35.7376 68.5614 35.5516C68.5614 35.3459 68.4819 35.2094 68.3231 35.1441C68.1864 35.0978 68.0106 35.0745 67.7987 35.0745L66.8304 35.0746ZM66.8304 36.7813V37.9603H67.9106C68.1027 37.9603 68.254 37.9339 68.3607 37.8831C68.5554 37.7863 68.6527 37.6019 68.6527 37.3309C68.6527 37.1002 68.5587 36.9419 68.3692 36.8569C68.2634 36.8072 68.1165 36.7826 67.9253 36.7813H66.8304Z" fill="white"/>
<path fill-rule="evenodd" clip-rule="evenodd" d="M72.3695 35.5243C72.6 35.6276 72.7887 35.7882 72.9381 36.0089C73.0724 36.2031 73.161 36.426 73.2013 36.6836C73.2233 36.8337 73.2319 37.0505 73.2294 37.333H70.8331C70.8486 37.6604 70.963 37.8898 71.1791 38.0245C71.3089 38.1065 71.4667 38.1463 71.6522 38.1463C71.8477 38.1463 72.0073 38.0954 72.1294 37.996C72.1961 37.9415 72.2543 37.8673 72.3061 37.7717H73.185C73.161 37.9646 73.0543 38.1633 72.8648 38.3623C72.5718 38.6798 72.1567 38.8404 71.6283 38.8404C71.1919 38.8404 70.8041 38.7062 70.4703 38.4378C70.1354 38.1693 69.9673 37.7318 69.9673 37.1279C69.9673 36.5604 70.1184 36.1275 70.4224 35.8238C70.724 35.5235 71.1157 35.3718 71.5976 35.3718C71.8828 35.3718 72.1416 35.422 72.3695 35.5243ZM71.0851 36.2629C70.9631 36.3878 70.8869 36.5552 70.8553 36.7701H72.3361C72.3211 36.5421 72.2439 36.3701 72.1082 36.2536C71.9715 36.1355 71.7992 36.076 71.5976 36.076C71.3771 36.076 71.2046 36.1394 71.0851 36.2629Z" fill="white"/>
<path fill-rule="evenodd" clip-rule="evenodd" d="M76.4961 36.7379C76.6557 36.7176 76.7701 36.6947 76.8383 36.6645C76.9614 36.6123 77.0237 36.53 77.0237 36.4204C77.0238 36.2875 76.9768 36.194 76.882 36.1433C76.7863 36.0932 76.6479 36.0679 76.4644 36.0679C76.2577 36.0679 76.1125 36.1171 76.0272 36.2177C75.9658 36.2911 75.9257 36.3923 75.9058 36.5181H75.075C75.094 36.2317 75.174 35.9965 75.3166 35.813C75.5472 35.5237 75.9375 35.3813 76.4925 35.3813C76.8554 35.3813 77.1748 35.4509 77.4567 35.5938C77.7368 35.7361 77.8759 36.0033 77.8759 36.3966V37.8977C77.8759 38.0006 77.8778 38.1278 77.8843 38.2748C77.8876 38.3874 77.9055 38.4651 77.9338 38.5035C77.9619 38.5434 78.0046 38.5764 78.0619 38.602V38.7277H77.1259C77.1002 38.6622 77.0815 38.6001 77.0713 38.5433C77.0613 38.4847 77.0541 38.4176 77.0473 38.3445C76.9269 38.4715 76.791 38.581 76.6349 38.6724C76.4486 38.7765 76.2388 38.8305 76.0047 38.8305C75.705 38.8305 75.4581 38.7448 75.2626 38.5764C75.0679 38.4075 74.9697 38.1684 74.9697 37.8577C74.9697 37.4568 75.126 37.1637 75.4393 36.9861C75.6118 36.8876 75.8654 36.818 76.2004 36.7768L76.4961 36.7379ZM77.0212 37.138C76.9656 37.1718 76.9093 37.1997 76.8554 37.2207C76.7992 37.241 76.7222 37.2618 76.6232 37.2791L76.4277 37.3153C76.2432 37.3478 76.1124 37.3862 76.0323 37.4321C75.8972 37.5093 75.8298 37.633 75.8298 37.7965C75.8298 37.9408 75.8709 38.0471 75.9528 38.1109C76.0365 38.1761 76.1382 38.2094 76.2559 38.2094C76.4439 38.2094 76.6163 38.1549 76.7753 38.0471C76.9324 37.9393 77.016 37.7417 77.0212 37.4567L77.0212 37.138Z" fill="white"/>
<path fill-rule="evenodd" clip-rule="evenodd" d="M80.8266 37.6835C80.8443 37.8363 80.8853 37.9452 80.9436 38.0073C81.052 38.121 81.25 38.1805 81.5386 38.1805C81.7086 38.1805 81.8435 38.1544 81.9435 38.1047C82.0419 38.0529 82.0938 37.9784 82.0938 37.8802C82.0938 37.7837 82.0536 37.7098 81.9716 37.6604C81.8906 37.6112 81.5915 37.5246 81.0742 37.4027C80.6994 37.3105 80.4363 37.1959 80.2835 37.0569C80.1304 36.921 80.0546 36.7247 80.0546 36.4686C80.0546 36.168 80.1741 35.9084 80.4132 35.6892C80.6513 35.4729 80.9878 35.3643 81.4208 35.3643C81.8325 35.3643 82.1672 35.4462 82.4258 35.6084C82.6838 35.773 82.8324 36.0537 82.8726 36.4535H82.0126C81.9992 36.3437 81.9682 36.2575 81.9178 36.1925C81.8238 36.0769 81.6625 36.0193 81.4354 36.0193C81.2483 36.0193 81.1126 36.0481 81.0331 36.1059C80.953 36.1637 80.9136 36.2316 80.9136 36.3098C80.9138 36.4085 80.9564 36.4787 81.04 36.523C81.1245 36.5689 81.4251 36.6479 81.9383 36.7609C82.2808 36.8391 82.537 36.9605 82.7087 37.1236C82.8785 37.287 82.9613 37.4919 82.9613 37.7378C82.9613 38.0624 82.8402 38.3269 82.5977 38.5304C82.3542 38.736 81.9794 38.8405 81.4712 38.8405C80.953 38.8405 80.5728 38.7317 80.3243 38.5139C80.0785 38.2976 79.9546 38.0207 79.9546 37.6835L80.8266 37.6835Z" fill="white"/>
<path fill-rule="evenodd" clip-rule="evenodd" d="M83.1641 36.0969V35.4895H83.6225V34.5764H84.4742V35.4895H85.0061V36.0969H84.4742V37.8241C84.4742 37.9588 84.4892 38.0437 84.5228 38.0757C84.5568 38.1096 84.6612 38.1265 84.837 38.1265C84.8641 38.1265 84.8918 38.126 84.9198 38.1213C84.9498 38.1213 84.9779 38.1207 85.006 38.12L85.0061 38.7588L84.5998 38.7738C84.1932 38.7871 83.9156 38.7174 83.7662 38.5641C83.6713 38.4664 83.6226 38.3156 83.6226 38.11V36.0974L83.1641 36.0969Z" fill="white"/>
<path fill-rule="evenodd" clip-rule="evenodd" d="M87.607 35.5243C87.8367 35.6276 88.0264 35.7882 88.1758 36.0089C88.3107 36.2031 88.397 36.426 88.4379 36.6836C88.4611 36.8337 88.4696 37.0505 88.4662 37.333H86.0725C86.0842 37.6604 86.2006 37.8898 86.4149 38.0245C86.5473 38.1065 86.7053 38.1463 86.8881 38.1463C87.0846 38.1463 87.2442 38.0954 87.3673 37.996C87.4329 37.9415 87.4927 37.8673 87.5447 37.7717H88.4217C88.3988 37.9646 88.2929 38.1633 88.1023 38.3623C87.8087 38.6798 87.3961 38.8404 86.8667 38.8404C86.4294 38.8404 86.0426 38.7062 85.7087 38.4378C85.375 38.1693 85.2065 37.7318 85.2065 37.1279C85.2065 36.5604 85.356 36.1275 85.6591 35.8238C85.9607 35.5235 86.3526 35.3718 86.8351 35.3718C87.1212 35.3718 87.3791 35.422 87.607 35.5243ZM86.3227 36.2629C86.2007 36.3878 86.1237 36.5552 86.0939 36.7701H87.5737C87.557 36.5421 87.4824 36.3701 87.345 36.2536C87.2082 36.1355 87.0391 36.076 86.8351 36.076C86.6148 36.076 86.4431 36.1394 86.3227 36.2629Z" fill="white"/>
<path fill-rule="evenodd" clip-rule="evenodd" d="M91.7871 35.8477C92.0522 36.1265 92.1878 36.5353 92.1878 37.0729C92.1878 37.6418 92.0554 38.0759 91.7956 38.3746C91.534 38.6728 91.1987 38.8215 90.7887 38.8215C90.5273 38.8215 90.3107 38.7577 90.1374 38.6284C90.0424 38.557 89.9491 38.4538 89.859 38.3172V40.0001H89.0151V35.4998H89.8328V35.9781C89.9261 35.8367 90.0245 35.7256 90.1291 35.6466C90.3201 35.5016 90.5475 35.429 90.809 35.429C91.1954 35.429 91.5206 35.5679 91.7871 35.8477ZM91.13 36.4546C91.0138 36.2635 90.8269 36.1669 90.5654 36.1669C90.252 36.1669 90.0372 36.3112 89.9209 36.6025C89.859 36.7578 89.8301 36.9529 89.8301 37.1908C89.8303 37.5632 89.9312 37.8289 90.1373 37.9812C90.2555 38.0679 90.3989 38.114 90.5654 38.114C90.8066 38.114 90.989 38.0227 91.1165 37.8422C91.2411 37.6587 91.3039 37.4169 91.3039 37.1158C91.304 36.8661 91.2456 36.6442 91.13 36.4546Z" fill="white"/>
<path fill-rule="evenodd" clip-rule="evenodd" d="M95.4129 36.7379C95.5734 36.7176 95.6894 36.6947 95.757 36.6645C95.8809 36.6123 95.9413 36.53 95.9413 36.4204C95.9413 36.2875 95.8943 36.194 95.8004 36.1433C95.7057 36.0932 95.5664 36.0679 95.3838 36.0679C95.1787 36.0679 95.03 36.1171 94.9455 36.2177C94.8852 36.2911 94.8432 36.3923 94.8235 36.5181H93.9953C94.0118 36.2317 94.0934 35.9965 94.2368 35.813C94.4649 35.5237 94.8569 35.3813 95.4127 35.3813C95.7732 35.3813 96.0952 35.4509 96.375 35.5938C96.6562 35.7361 96.7952 36.0033 96.7952 36.3966V37.8977C96.7952 38.0006 96.7985 38.1278 96.8019 38.2748C96.8087 38.3874 96.8266 38.4651 96.8541 38.5035C96.8832 38.5434 96.9233 38.5764 96.9807 38.602V38.7277H96.0447C96.0207 38.6622 96.0026 38.6001 95.9916 38.5433C95.9799 38.4847 95.9736 38.4176 95.9678 38.3445C95.8474 38.4715 95.7098 38.581 95.5544 38.6724C95.3692 38.7765 95.1582 38.8305 94.9241 38.8305C94.6236 38.8305 94.3767 38.7448 94.1829 38.5764C93.9867 38.4075 93.8901 38.1684 93.8901 37.8577C93.8901 37.4568 94.0464 37.1637 94.3598 36.9861C94.5333 36.8876 94.7867 36.818 95.1198 36.7768L95.4129 36.7379ZM95.939 37.138C95.8842 37.1718 95.8286 37.1997 95.7732 37.2207C95.716 37.241 95.64 37.2618 95.5426 37.2791L95.3463 37.3153C95.1635 37.3478 95.0301 37.3862 94.9509 37.4321C94.8159 37.5093 94.7493 37.633 94.7493 37.7965C94.7493 37.9408 94.7885 38.0471 94.8715 38.1109C94.9543 38.1761 95.0566 38.2094 95.1745 38.2094C95.3608 38.2094 95.5349 38.1549 95.6929 38.0471C95.8501 37.9393 95.9328 37.7417 95.9388 37.4567L95.939 37.138Z" fill="white"/>
<path fill-rule="evenodd" clip-rule="evenodd" d="M99.8159 35.4772C99.9817 35.5461 100.117 35.6539 100.223 35.7982C100.314 35.9191 100.368 36.0448 100.39 36.1734C100.408 36.3038 100.419 36.5154 100.419 36.8051V38.7275H99.5402V36.7368C99.5402 36.5604 99.5102 36.4181 99.4505 36.3098C99.3736 36.159 99.226 36.0829 99.0073 36.0829C98.7827 36.0829 98.6111 36.159 98.494 36.309C98.3788 36.4598 98.3191 36.675 98.3191 36.9558V38.7275H97.46V34.321H98.3191V35.8791C98.4437 35.6926 98.5872 35.56 98.7502 35.484C98.9143 35.4094 99.0851 35.3719 99.2661 35.3719C99.4676 35.3719 99.652 35.4076 99.8159 35.4772Z" fill="white"/>
<path fill-rule="evenodd" clip-rule="evenodd" d="M103.277 35.5243C103.505 35.6276 103.695 35.7882 103.845 36.0089C103.979 36.2031 104.066 36.426 104.106 36.6836C104.131 36.8337 104.139 37.0505 104.135 37.333H101.741C101.756 37.6604 101.869 37.8898 102.083 38.0245C102.216 38.1065 102.374 38.1463 102.56 38.1463C102.754 38.1463 102.914 38.0954 103.036 37.996C103.103 37.9415 103.163 37.8673 103.213 37.7717H104.091C104.068 37.9646 103.961 38.1633 103.771 38.3623C103.478 38.6798 103.064 38.8404 102.534 38.8404C102.099 38.8404 101.711 38.7062 101.378 38.4378C101.042 38.1693 100.874 37.7318 100.874 37.1279C100.874 36.5604 101.025 36.1275 101.329 35.8238C101.631 35.5235 102.022 35.3718 102.504 35.3718C102.79 35.3718 103.048 35.422 103.277 35.5243ZM101.992 36.2629C101.871 36.3878 101.794 36.5552 101.763 36.7701H103.243C103.226 36.5421 103.151 36.3701 103.012 36.2536C102.877 36.1355 102.707 36.076 102.504 36.076C102.284 36.076 102.112 36.1394 101.992 36.2629Z" fill="white"/>
<path fill-rule="evenodd" clip-rule="evenodd" d="M105.779 36.7379C105.939 36.7176 106.054 36.6947 106.123 36.6645C106.246 36.6123 106.308 36.53 106.308 36.4204C106.308 36.2875 106.26 36.194 106.165 36.1433C106.071 36.0932 105.931 36.0679 105.748 36.0679C105.542 36.0679 105.397 36.1171 105.312 36.2177C105.25 36.2911 105.208 36.3923 105.188 36.5181H104.359C104.378 36.2317 104.458 35.9965 104.601 35.813C104.829 35.5237 105.222 35.3813 105.776 35.3813C106.138 35.3813 106.459 35.4509 106.741 35.5938C107.02 35.7361 107.161 36.0033 107.161 36.3966V37.8977C107.161 38.0006 107.163 38.1278 107.168 38.2748C107.171 38.3874 107.191 38.4651 107.217 38.5035C107.247 38.5434 107.29 38.5764 107.345 38.602V38.7277H106.411C106.385 38.6622 106.365 38.6001 106.356 38.5433C106.345 38.4847 106.337 38.4176 106.332 38.3445C106.212 38.4715 106.075 38.581 105.92 38.6724C105.734 38.7765 105.526 38.8305 105.288 38.8305C104.988 38.8305 104.741 38.7448 104.547 38.5764C104.352 38.4075 104.254 38.1684 104.254 37.8577C104.254 37.4568 104.411 37.1637 104.726 36.9861C104.897 36.8876 105.15 36.818 105.486 36.7768L105.779 36.7379ZM106.304 37.138C106.25 37.1718 106.193 37.1997 106.138 37.2207C106.082 37.241 106.006 37.2618 105.907 37.2791L105.711 37.3153C105.528 37.3478 105.397 37.3862 105.316 37.4321C105.181 37.5093 105.112 37.633 105.112 37.7965C105.112 37.9408 105.154 38.0471 105.238 38.1109C105.32 38.1761 105.421 38.2094 105.539 38.2094C105.727 38.2094 105.899 38.1549 106.058 38.0471C106.216 37.9393 106.299 37.7417 106.304 37.4567L106.304 37.138Z" fill="white"/>
<path fill-rule="evenodd" clip-rule="evenodd" d="M109.561 35.5104C109.716 35.598 109.842 35.7187 109.939 35.8725V34.3127H110.809V38.7277H109.975V38.2748C109.851 38.4697 109.712 38.6104 109.555 38.6988C109.399 38.7871 109.204 38.8305 108.97 38.8305C108.585 38.8305 108.264 38.6767 108.002 38.3658C107.738 38.057 107.607 37.6606 107.607 37.1781C107.607 36.6187 107.737 36.1799 107.995 35.8597C108.252 35.5411 108.599 35.3813 109.032 35.3813C109.23 35.3813 109.407 35.4247 109.561 35.5104ZM109.772 37.8409C109.899 37.6606 109.963 37.4271 109.963 37.1421C109.964 36.7423 109.862 36.4551 109.656 36.284C109.534 36.1791 109.39 36.1277 109.225 36.1277C108.973 36.1277 108.788 36.2224 108.669 36.4111C108.553 36.6004 108.494 36.8339 108.494 37.1158C108.494 37.4159 108.553 37.6578 108.673 37.8386C108.792 38.0208 108.974 38.1097 109.217 38.1097C109.461 38.1097 109.647 38.0208 109.772 37.8409Z" fill="white"/>
<path fill-rule="evenodd" clip-rule="evenodd" d="M115.863 38.3273C115.585 38.6698 115.164 38.8405 114.599 38.8405C114.034 38.8405 113.613 38.6698 113.336 38.3273C113.057 37.9876 112.919 37.5786 112.919 37.0989C112.919 36.6265 113.057 36.2176 113.336 35.8707C113.613 35.5266 114.033 35.3545 114.599 35.3545C115.164 35.3545 115.585 35.5266 115.863 35.8707C116.142 36.2176 116.279 36.6265 116.279 37.0989C116.279 37.5786 116.142 37.9876 115.863 38.3273ZM115.176 37.8551C115.31 37.6777 115.377 37.4256 115.377 37.0989C115.377 36.7711 115.31 36.5188 115.176 36.3412C115.042 36.1654 114.847 36.0761 114.597 36.0761C114.346 36.0761 114.152 36.1653 114.017 36.3412C113.88 36.5188 113.813 36.7711 113.813 37.0989C113.813 37.4256 113.88 37.6777 114.017 37.8551C114.152 38.0326 114.346 38.121 114.597 38.121C114.847 38.121 115.042 38.0327 115.176 37.8551Z" fill="white"/>
<path fill-rule="evenodd" clip-rule="evenodd" d="M118.162 34.2651C118.206 34.2684 118.266 34.2717 118.343 34.2801V34.9758C118.295 34.9706 118.214 34.9659 118.1 34.9625C117.987 34.9611 117.908 34.9847 117.864 35.0377C117.822 35.09 117.8 35.1481 117.8 35.2141C117.8 35.2765 117.8 35.3696 117.8 35.4904H118.363V36.0932H117.8V38.7285H116.947V36.0932H116.465V35.4904H116.934V35.2794C116.934 34.9294 116.995 34.6891 117.111 34.5565C117.238 34.3603 117.539 34.2634 118.015 34.2634C118.069 34.2634 118.119 34.2634 118.162 34.2667" fill="white"/>
<path fill-rule="evenodd" clip-rule="evenodd" d="M121.268 38.7276H120.408V34.3066H121.268V38.7276Z" fill="white"/>
<path fill-rule="evenodd" clip-rule="evenodd" d="M122.897 35.0691H122.026V34.2795H122.897V35.0691ZM122.026 35.4576H122.897V38.7276H122.026V35.4576Z" fill="white"/>
<path fill-rule="evenodd" clip-rule="evenodd" d="M124.997 34.2651C125.04 34.2684 125.101 34.2717 125.176 34.2801V34.9758C125.128 34.9706 125.048 34.9659 124.934 34.9625C124.821 34.9611 124.743 34.9847 124.7 35.0377C124.656 35.09 124.635 35.1481 124.635 35.2141C124.635 35.2765 124.635 35.3696 124.635 35.4904H125.199V36.0932H124.635V38.7285H123.78V36.0932H123.3V35.4904H123.769V35.2794C123.769 34.9294 123.828 34.6891 123.946 34.5565C124.072 34.3603 124.372 34.2634 124.849 34.2634C124.903 34.2634 124.951 34.2634 124.997 34.2667" fill="white"/>
<path fill-rule="evenodd" clip-rule="evenodd" d="M127.741 35.5243C127.973 35.6276 128.161 35.7882 128.309 36.0089C128.445 36.2031 128.532 36.426 128.573 36.6836C128.595 36.8337 128.605 37.0505 128.601 37.333H126.207C126.22 37.6604 126.335 37.8898 126.551 38.0245C126.681 38.1065 126.84 38.1463 127.024 38.1463C127.22 38.1463 127.379 38.0954 127.501 37.996C127.567 37.9415 127.627 37.8673 127.677 37.7717H128.557C128.533 37.9646 128.428 38.1633 128.238 38.3623C127.942 38.6798 127.531 38.8404 127 38.8404C126.563 38.8404 126.178 38.7062 125.842 38.4378C125.507 38.1693 125.341 37.7318 125.341 37.1279C125.341 36.5604 125.492 36.1275 125.795 35.8238C126.096 35.5235 126.488 35.3718 126.97 35.3718C127.255 35.3718 127.512 35.422 127.741 35.5243ZM126.457 36.2629C126.336 36.3878 126.26 36.5552 126.227 36.7701H127.708C127.693 36.5421 127.617 36.3701 127.48 36.2536C127.342 36.1355 127.173 36.076 126.97 36.076C126.748 36.076 126.578 36.1394 126.457 36.2629Z" fill="white"/>
<path fill-rule="evenodd" clip-rule="evenodd" d="M10.2701 31.3737C10.093 31.3737 10.0042 31.3008 10.0042 31.1525V5.3741H0.266102C0.0888188 5.3741 0 5.28592 0 5.10951V0.288499C0 0.111437 0.0888205 0.0234375 0.266102 0.0234375H25.6057C25.7835 0.0234375 25.8723 0.11145 25.8723 0.288499V5.10951C25.8723 5.28586 25.7835 5.3741 25.6057 5.3741H15.9144V31.1525C15.9144 31.3008 15.8255 31.3737 15.6487 31.3737H10.2701Z" fill="white"/>
<path fill-rule="evenodd" clip-rule="evenodd" d="M25.2849 31.1542C25.2029 31.3232 25.0988 31.3793 24.9732 31.3793H19.109C18.9845 31.3793 18.8828 31.2783 18.8828 31.1542L31.2165 0.225039C31.2335 0.161638 31.324 0.0302181 31.4461 0.0302181L37.3931 0C37.5187 0 37.6201 0.101809 37.6201 0.225049L25.2849 31.1542Z" fill="white"/>
<path fill-rule="evenodd" clip-rule="evenodd" d="M43.6778 31.1736C43.7307 31.2952 43.8442 31.3983 43.9681 31.3983H49.8553C49.9792 31.3983 50.1226 31.2952 50.0815 31.1736L37.6804 0.225049C37.6196 0.0480263 37.4994 0 37.3756 0H31.5055C31.38 0 31.2569 0.0689197 31.2271 0.192831L43.6778 31.1736Z" fill="white"/>
<path fill-rule="evenodd" clip-rule="evenodd" d="M56.6707 31.1201C56.7158 31.2407 56.8133 31.3457 56.9395 31.3457H62.8464C62.9711 31.3457 63.1019 31.2452 63.0736 31.1201L50.7049 0.225019C50.6331 0.0926402 50.5913 0.0220608 50.4675 0.0220608L44.529 0C44.4035 0 44.3003 0.101815 44.3003 0.225049L56.6707 31.1201Z" fill="white"/>
<path fill-rule="evenodd" clip-rule="evenodd" d="M41.5513 7.46958C41.6624 7.72732 43.9159 13.4582 44.4615 14.8524C44.5231 14.995 44.6775 15.0395 44.7707 14.8424C44.8595 14.6482 50.669 0.173389 50.669 0.173389C50.6392 0.0714072 50.528 0.000488281 50.412 0.000488281H44.4615C44.377 0.00378013 44.2756 0.111106 44.2344 0.225537L41.5273 6.98266C41.5273 6.98266 41.4274 7.17593 41.5513 7.46958Z" fill="white"/>
<path fill-rule="evenodd" clip-rule="evenodd" d="M103.814 6.7321V11.0876H103.046V6.7321H101.649V6.04517H105.208V6.7321H103.814Z" fill="white"/>
<path fill-rule="evenodd" clip-rule="evenodd" d="M107.223 11.0876V10.7617C106.959 11.0226 106.709 11.1296 106.262 11.1296C105.813 11.1296 105.512 11.0226 105.292 10.8029C105.108 10.613 105.008 10.337 105.008 10.0337C105.008 9.42918 105.429 8.99854 106.254 8.99854H107.208V8.74254C107.208 8.28964 106.98 8.07044 106.417 8.07044C106.018 8.07044 105.827 8.16295 105.628 8.41801L105.152 7.97277C105.493 7.57528 105.848 7.45459 106.447 7.45459C107.436 7.45459 107.933 7.87293 107.933 8.68759V11.0876H107.223ZM107.208 9.50144H106.361C105.934 9.50144 105.714 9.69262 105.714 10.018C105.714 10.3438 105.92 10.5273 106.375 10.5273C106.654 10.5273 106.86 10.5069 107.051 10.3225C107.159 10.2159 107.208 10.0465 107.208 9.79124L107.208 9.50144Z" fill="white"/>
<path fill-rule="evenodd" clip-rule="evenodd" d="M113.201 11.0876V8.89916C113.201 8.3405 112.881 8.0988 112.474 8.0988C112.085 8.0988 111.728 8.34695 111.728 8.86431V11.0876H111.001V8.89916C111.001 8.3405 110.682 8.0988 110.276 8.0988C109.87 8.0988 109.53 8.34694 109.53 8.89916V11.0876H108.802V7.49706H109.514V7.85898C109.757 7.59573 110.112 7.45459 110.474 7.45459C110.924 7.45459 111.274 7.63212 111.501 7.97875C111.791 7.62361 112.155 7.45459 112.632 7.45459C113.002 7.45459 113.329 7.57532 113.543 7.78093C113.822 8.04881 113.928 8.38994 113.928 8.7926V11.0876H113.201Z" fill="white"/>
<path fill-rule="evenodd" clip-rule="evenodd" d="M114.774 6.78925V6.02393H115.543V6.78925H114.774ZM114.797 11.0875V7.49693H115.522V11.0875H114.797Z" fill="white"/>
<path fill-rule="evenodd" clip-rule="evenodd" d="M117.396 11.0876C116.705 11.0876 116.406 10.6275 116.406 10.0962V6.04517H117.131V10.0532C117.131 10.3294 117.232 10.4704 117.523 10.4704L117.844 10.4702V11.0876H117.396Z" fill="white"/>
<path fill-rule="evenodd" clip-rule="evenodd" d="M120.589 11.0876V8.89916C120.589 8.3405 120.272 8.0988 119.865 8.0988C119.459 8.0988 119.118 8.34694 119.118 8.89916V11.0876H118.391V7.49706H119.103V7.85898C119.353 7.58976 119.701 7.45459 120.065 7.45459C120.434 7.45459 120.739 7.57532 120.954 7.78093C121.231 8.04881 121.316 8.38994 121.316 8.7926L121.316 11.0876H120.589Z" fill="white"/>
<path fill-rule="evenodd" clip-rule="evenodd" d="M124.13 11.0876V10.7617C123.866 11.0226 123.616 11.1296 123.17 11.1296C122.718 11.1296 122.42 11.0226 122.199 10.8029C122.015 10.613 121.916 10.337 121.916 10.0337C121.916 9.42918 122.334 8.99854 123.161 8.99854H124.114V8.74254C124.114 8.28964 123.886 8.07044 123.325 8.07044C122.927 8.07044 122.733 8.16295 122.535 8.41801L122.058 7.97277C122.399 7.57528 122.755 7.45459 123.353 7.45459C124.343 7.45459 124.84 7.87293 124.84 8.68759V11.0876H124.13ZM124.115 9.50144H123.269C122.841 9.50144 122.62 9.69262 122.62 10.018C122.62 10.3438 122.827 10.5273 123.281 10.5273C123.56 10.5273 123.766 10.5069 123.958 10.3225C124.065 10.2159 124.115 10.0465 124.115 9.79124L124.115 9.50144Z" fill="white"/>
<path fill-rule="evenodd" clip-rule="evenodd" d="M127.781 11.0876V10.7049C127.51 11.0298 127.218 11.1296 126.826 11.1296C126.464 11.1296 126.143 11.0105 125.944 10.8107C125.582 10.451 125.54 9.83394 125.54 9.28787C125.54 8.74254 125.582 8.13473 125.944 7.77346C126.143 7.57529 126.457 7.4546 126.818 7.4546C127.203 7.4546 127.503 7.54761 127.767 7.85899V6.04517H128.491V11.0876H127.781ZM127.02 8.09881C126.364 8.09881 126.264 8.65074 126.264 9.28787C126.264 9.92594 126.364 10.4855 127.02 10.4855C127.673 10.4855 127.767 9.92594 127.767 9.28787C127.767 8.65057 127.673 8.09881 127.02 8.09881Z" fill="white"/>
<path fill-rule="evenodd" clip-rule="evenodd" d="M101.437 18.1683V14.7976L100.271 17.2558H99.7009L98.5036 14.7976V18.1683H97.7368V13.1257H98.5036L99.9844 16.2633L101.437 13.1257H102.207V18.1683H101.437Z" fill="white"/>
<path fill-rule="evenodd" clip-rule="evenodd" d="M103.724 16.5836C103.724 17.1981 104.049 17.5894 104.641 17.5894C105.046 17.5892 105.26 17.4751 105.515 17.221L105.979 17.6522C105.608 18.0212 105.26 18.2121 104.625 18.2121C103.724 18.2121 103.003 17.7372 103.003 16.3705C103.003 15.2092 103.607 14.5364 104.535 14.5364C105.502 14.5362 106.064 15.2447 106.064 16.2638V16.5836H103.724ZM105.245 15.5904C105.131 15.323 104.875 15.1389 104.535 15.1389C104.191 15.1389 103.929 15.323 103.815 15.5905C103.744 15.7545 103.73 15.8608 103.724 16.0807H105.346C105.338 15.8608 105.316 15.7545 105.245 15.5904Z" fill="white"/>
<path fill-rule="evenodd" clip-rule="evenodd" d="M108.762 15.421C108.598 15.2576 108.471 15.1811 108.221 15.1811C107.83 15.1811 107.502 15.4919 107.502 15.989V18.1687H106.776V14.5779H107.488V14.9682C107.672 14.7131 108.043 14.5364 108.449 14.5364C108.798 14.5362 109.062 14.6281 109.309 14.8762L108.762 15.421Z" fill="white"/>
<path fill-rule="evenodd" clip-rule="evenodd" d="M110.855 18.2121C110.043 18.2121 109.247 17.716 109.247 16.3705C109.247 15.0249 110.043 14.5364 110.855 14.5364C111.353 14.5362 111.703 14.6774 112.045 15.0396L111.546 15.5205C111.317 15.272 111.138 15.1811 110.855 15.1811C110.577 15.1811 110.342 15.2932 110.187 15.4997C110.029 15.6985 109.972 15.9528 109.972 16.3705C109.972 16.7892 110.029 17.0508 110.187 17.2482C110.342 17.4544 110.577 17.5673 110.855 17.5673C111.138 17.5673 111.318 17.4751 111.545 17.2275L112.045 17.701C111.703 18.0629 111.353 18.2121 110.855 18.2121Z" fill="white"/>
<path fill-rule="evenodd" clip-rule="evenodd" d="M114.548 18.1687V17.8434C114.284 18.1058 114.035 18.2121 113.588 18.2121C113.141 18.2121 112.84 18.1058 112.619 17.8854C112.434 17.6947 112.335 17.4185 112.335 17.1137C112.335 16.5127 112.754 16.0807 113.58 16.0807H114.532V15.8246C114.532 15.3731 114.307 15.1531 113.744 15.1531C113.344 15.1531 113.153 15.2447 112.953 15.4997L112.476 15.0541C112.818 14.6557 113.174 14.5364 113.774 14.5364C114.762 14.5362 115.261 14.9548 115.261 15.7667V18.1687H114.548ZM114.533 16.5836H113.688C113.261 16.5836 113.039 16.7738 113.039 17.0996C113.039 17.4261 113.246 17.6088 113.701 17.6088C113.979 17.6088 114.186 17.5894 114.377 17.4037C114.485 17.2981 114.533 17.1282 114.533 16.8749V16.5836Z" fill="white"/>
<path fill-rule="evenodd" clip-rule="evenodd" d="M118.328 18.1687V15.9805C118.328 15.421 118.009 15.1811 117.602 15.1811C117.195 15.1811 116.854 15.4282 116.854 15.9805L116.855 18.1687H116.129V14.5779H116.841V14.9406C117.09 14.6712 117.438 14.5364 117.801 14.5364C118.172 14.5362 118.478 14.6556 118.69 14.8634C118.97 15.131 119.055 15.4712 119.055 15.8752L119.055 18.1687H118.328Z" fill="white"/>
<path fill-rule="evenodd" clip-rule="evenodd" d="M120.999 18.1685C120.322 18.1685 120.008 17.6882 120.008 17.17V15.1944H119.596V14.6432H120.008V13.5525H120.736V14.6432H121.433V15.1944H120.736V17.1351C120.736 17.3972 120.863 17.5535 121.135 17.5535H121.433V18.1685H120.999Z" fill="white"/>
<path fill-rule="evenodd" clip-rule="evenodd" d="M122.088 13.8718V13.105H122.856V13.8718H122.088ZM122.109 18.1685V14.5777H122.835V18.1685H122.109Z" fill="white"/>
<path fill-rule="evenodd" clip-rule="evenodd" d="M124.706 18.1683C124.016 18.1683 123.718 17.7088 123.718 17.1778L123.718 13.1257H124.443V17.135C124.443 17.4105 124.542 17.5533 124.835 17.5533H125.155V18.1683H124.706Z" fill="white"/>
<path fill-rule="evenodd" clip-rule="evenodd" d="M126.058 16.5836C126.058 17.1981 126.385 17.5894 126.976 17.5894C127.381 17.5892 127.596 17.4751 127.853 17.221L128.314 17.6522C127.945 18.0212 127.596 18.2121 126.962 18.2121C126.058 18.2121 125.339 17.7372 125.339 16.3705C125.339 15.2092 125.944 14.5364 126.869 14.5364C127.838 14.5362 128.401 15.2447 128.401 16.2638L128.401 16.5836H126.058ZM127.581 15.5904C127.468 15.323 127.212 15.1389 126.869 15.1389C126.528 15.1389 126.264 15.323 126.151 15.5905C126.08 15.7545 126.064 15.8608 126.058 16.0807H127.682C127.673 15.8608 127.653 15.7545 127.581 15.5904Z" fill="white"/>
<path fill-rule="evenodd" clip-rule="evenodd" d="M104.923 25.2499H102.874V20.209H104.844C105.785 20.209 106.375 20.74 106.375 21.5885C106.375 22.1348 106.033 22.5234 105.692 22.6598C106.084 22.8141 106.453 23.1891 106.453 23.8272C106.453 24.7551 105.82 25.2499 104.923 25.2499ZM104.781 20.8954H103.642V22.3396H104.781C105.273 22.3396 105.606 22.0855 105.606 21.6182C105.606 21.1512 105.273 20.8954 104.781 20.8954ZM104.852 23.0265H103.642V24.5643H104.852C105.387 24.5643 105.684 24.2375 105.684 23.7922C105.684 23.3454 105.387 23.0265 104.852 23.0265Z" fill="white"/>
<path fill-rule="evenodd" clip-rule="evenodd" d="M109.201 25.2499V24.925C108.94 25.1854 108.689 25.2925 108.241 25.2925C107.792 25.2925 107.494 25.1854 107.272 24.9675C107.088 24.7764 106.988 24.5003 106.988 24.1941C106.988 23.5938 107.408 23.161 108.233 23.161H109.188V22.907C109.188 22.4525 108.96 22.2337 108.397 22.2337C107.999 22.2337 107.806 22.3264 107.607 22.5798L107.131 22.1347C107.472 21.7389 107.829 21.6182 108.426 21.6182C109.415 21.6182 109.913 22.0359 109.913 22.8501V25.2499H109.201ZM109.187 23.6644H108.34C107.913 23.6644 107.693 23.8549 107.693 24.1813C107.693 24.5056 107.899 24.6905 108.353 24.6905C108.632 24.6905 108.837 24.6702 109.029 24.4854C109.136 24.3784 109.187 24.2085 109.187 23.9544L109.187 23.6644Z" fill="white"/>
<path fill-rule="evenodd" clip-rule="evenodd" d="M112.982 25.2499V23.062C112.982 22.5023 112.662 22.2613 112.257 22.2613C111.85 22.2613 111.507 22.5094 111.507 23.062V25.2499H110.782V21.6599H111.493V22.0199C111.743 21.7526 112.091 21.6182 112.455 21.6182C112.825 21.6182 113.131 21.7389 113.345 21.9432C113.621 22.2121 113.707 22.5528 113.707 22.9559L113.707 25.2499H112.982Z" fill="white"/>
<path fill-rule="evenodd" clip-rule="evenodd" d="M116.848 25.2499L115.836 23.5939L115.302 24.1941V25.2499H114.575V20.209H115.302V23.3173L116.705 21.66H117.588L116.334 23.0702L117.744 25.2499H116.848Z" fill="white"/>
<path fill-rule="evenodd" clip-rule="evenodd" d="M119.772 25.2499V20.209H120.54V24.5643H122.983V25.2499H119.772Z" fill="white"/>
<path fill-rule="evenodd" clip-rule="evenodd" d="M124.6 25.25C123.922 25.25 123.609 24.7687 123.609 24.2519V22.2763H123.198V21.7233H123.609V20.6348H124.336V21.7233H125.033V22.2763H124.336V24.2169C124.336 24.4803 124.464 24.6343 124.734 24.6343H125.033V25.25H124.6Z" fill="white"/>
<path fill-rule="evenodd" clip-rule="evenodd" d="M127.781 25.2499V24.8677C127.51 25.1945 127.218 25.2926 126.827 25.2926C126.464 25.2926 126.143 25.1735 125.944 24.9739C125.582 24.6136 125.54 23.9969 125.54 23.4515C125.54 22.9071 125.582 22.2971 125.944 21.936C126.143 21.739 126.457 21.6182 126.818 21.6182C127.203 21.6182 127.504 21.7096 127.767 22.02V20.209H128.491V25.2499H127.781ZM127.02 22.2613C126.363 22.2613 126.264 22.8141 126.264 23.4515C126.264 24.0886 126.363 24.6487 127.02 24.6487C127.673 24.6487 127.767 24.0886 127.767 23.4515C127.767 22.8141 127.673 22.2613 127.02 22.2613Z" fill="white"/>
</svg>
