<svg width="148" height="40" viewBox="0 0 148 40" fill="none" xmlns="http://www.w3.org/2000/svg">
<path fill-rule="evenodd" clip-rule="evenodd" d="M114.336 24.3302V21.4899H115.639L114.336 16.9935V13.5613H116.349L120.732 26.3415H116.941L116.349 24.3302H114.336ZM121.916 13.5613H125.35L129.733 20.661V13.5613H133.167V26.3415H129.733L125.35 19.3601V26.3415H121.916V13.5613ZM135.535 13.5613H139.206V18.4129L142.996 13.5613H147.851L143.589 18.4129L147.97 26.3415H143.589L141.1 21.1347L139.206 23.2645V26.3415H135.535V13.5613ZM114.336 13.5613V16.9935V16.8751L113.033 21.4899H114.336V24.3302H112.205L111.613 26.3415H107.942L112.323 13.5613H114.336ZM101.901 26.3415V23.6197H102.138C102.848 23.6197 103.204 23.5013 103.441 23.2645C103.796 23.0276 103.914 22.674 103.914 22.3188C103.914 21.9636 103.796 21.6082 103.441 21.3714C103.204 21.1346 102.848 21.0163 102.138 21.0163H101.901V18.6498C102.493 18.6498 102.848 18.5313 103.085 18.2945C103.322 18.0577 103.441 17.8208 103.441 17.3487C103.441 16.9935 103.322 16.7567 103.085 16.5198C102.848 16.283 102.493 16.1647 101.901 16.1647V13.5613H103.441C104.626 13.5613 105.455 13.9166 106.047 14.5086C106.639 15.099 106.995 15.9278 106.995 16.7567C106.995 17.5856 106.758 18.1761 106.284 18.7681C106.047 19.1234 105.574 19.3602 105.1 19.597C105.929 19.8339 106.521 20.1874 106.876 20.7794C107.35 21.2531 107.468 21.9636 107.468 22.7924C107.468 23.3829 107.35 23.9749 107.113 24.567C106.758 25.0406 106.402 25.5125 105.929 25.7493C105.574 25.9862 105.218 26.1046 104.508 26.223C103.677 26.3414 103.204 26.3415 102.967 26.3415H101.901ZM101.901 13.5613V16.1647H100.362V18.6498H101.901V21.0163H100.362V23.6197H101.901V26.3415H96.6911V13.5613H101.901ZM83.1906 26.5782V23.6197C83.901 23.6197 84.4931 23.3829 84.9668 22.7924C85.4404 22.3188 85.6772 21.253 85.6772 19.8338C85.6772 18.6497 85.4404 17.8208 84.9668 17.2304C84.4931 16.6383 83.901 16.4015 83.1906 16.4015V13.4429C85.0852 13.4429 86.6245 13.9166 87.6902 15.099C88.7559 16.2831 89.2295 17.8209 89.2295 19.9523C89.2295 21.3715 88.9927 22.674 88.5191 23.6197C88.0454 24.567 87.4534 25.2775 86.5061 25.8679C85.6772 26.3415 84.6115 26.5782 83.309 26.5782C83.1906 26.5782 83.1906 26.5782 83.1906 26.5782ZM58.7946 13.5613H62.3469V21.253C62.3469 21.9635 62.2285 22.6739 62.1101 23.3828C61.8733 24.0933 61.518 24.6855 61.0444 25.1591C60.5707 25.6311 60.0971 25.9861 59.6234 26.223C58.913 26.4598 58.0841 26.5782 57.0184 26.5782C56.4263 26.5782 55.8343 26.5783 55.1238 26.4599C54.5318 26.4599 53.9397 26.2231 53.4644 25.9862C52.9908 25.7494 52.6355 25.3959 52.2803 24.9222C51.8067 24.4486 51.5698 23.8565 51.4514 23.3828C51.2146 22.5555 51.0962 21.8451 51.0962 21.253V13.5613H54.7686V21.3714C54.7686 22.0819 54.887 22.6739 55.2422 23.0276C55.5975 23.5012 56.1895 23.6197 56.7816 23.6197C57.3736 23.6197 57.8473 23.5012 58.2025 23.0276C58.5577 22.6739 58.7946 22.0819 58.7946 21.3714V13.5613ZM83.1906 13.4429V16.4015C82.3617 16.4015 81.7696 16.6383 81.4144 17.2304C80.9408 17.8208 80.7039 18.7681 80.7039 20.0707C80.7039 21.3715 80.9408 22.2004 81.4144 22.7924C81.7696 23.3829 82.3617 23.6197 83.1906 23.6197V26.5782C81.8881 26.5782 80.8224 26.3415 79.9935 25.9862C79.1646 25.5126 78.4525 24.6854 77.8604 23.7381C77.3868 22.7924 77.0316 21.4899 77.0316 20.0707C77.0316 17.9393 77.6236 16.2831 78.6909 15.099C79.7567 13.9166 81.296 13.4429 83.1906 13.4429ZM72.6503 21.1347L75.729 22.2003C75.6106 23.146 75.2554 23.9749 74.7817 24.6853C74.3081 25.2774 73.716 25.7494 73.0056 26.1046C72.4135 26.4598 71.4662 26.5782 70.5189 26.5782C69.2164 26.5782 68.1507 26.4599 67.3218 25.9862C66.4929 25.631 65.7808 24.9222 65.1888 23.8565C64.5967 22.9107 64.3599 21.6083 64.3599 19.9523C64.3599 17.8209 64.8335 16.2831 65.8992 15.099C66.9666 13.9166 68.3875 13.4429 70.2821 13.4429C71.8215 13.4429 72.8871 13.6797 73.8344 14.3902C74.6633 14.9805 75.2554 16.0462 75.6106 17.3487L72.4135 18.176C72.2951 17.7024 72.1767 17.4671 72.0583 17.3487C71.9399 16.9935 71.703 16.7568 71.3478 16.6384C71.111 16.4015 70.7557 16.4015 70.4005 16.4015C69.5716 16.4015 68.9796 16.7568 68.5059 17.4672C68.1507 17.9393 68.0323 18.7682 68.0323 19.9523C68.0323 21.3715 68.1507 22.3187 68.6244 22.9108C68.9796 23.3829 69.5716 23.6197 70.2821 23.6197C70.9926 23.6197 71.4662 23.5012 71.8214 23.0276C72.1767 22.5555 72.4135 21.9635 72.6503 21.1347Z" fill="white"/>
<path fill-rule="evenodd" clip-rule="evenodd" d="M32.9068 33.2736H26.4024V25.9518L31.9496 20.1611L20.6134 7.84807V10.9531L27.825 19.4013L20.6644 26.7577V39.9999H32.9446L39.5806 33.3573V6.82011L32.9068 0H6.68365L0 6.86613V33.4034L6.58827 39.9999H18.9672L18.9645 26.7577L11.804 19.4013L19.0155 10.9531V7.84807L7.67929 20.1611L13.2249 25.9518V33.2736H6.71885V6.7264H32.8614L32.9068 33.2736ZM14.7175 18.9556C14.7175 16.1499 16.9887 13.8771 19.7895 13.8771C22.5919 13.8771 24.8614 16.1499 24.8614 18.9556C24.8614 21.7596 22.5919 24.0341 19.7895 24.0341C16.9887 24.0341 14.7175 21.7596 14.7175 18.9556Z" fill="white"/>
</svg>
