<svg width="184" height="40" viewBox="0 0 184 40" fill="none" xmlns="http://www.w3.org/2000/svg">
<path d="M28.1842 15.0795C27.5942 17.1026 27.7622 16.3436 26.8891 19.6619C26.1 22.8132 25.2809 25.9335 24.6629 28.0137C24.4649 28.4077 24.2378 28.8048 23.9308 29.1968C23.5638 29.6749 23.1397 30.1529 22.6627 30.575C19.9834 32.9092 15.984 34.2893 12.5217 33.7543C12.2377 33.7223 11.8986 33.6673 11.5076 33.5562C9.3344 33.0492 7.89926 31.9781 7.08218 30.633C6.2091 29.1968 5.98307 27.3126 6.2921 25.2864C6.32211 25.0064 6.40611 24.6404 6.51613 24.2183C7.84125 18.8718 9.19439 13.5593 10.5205 8.24379C11.0546 5.54553 5.36101 4.83946 4.1509 8.3548L0.487541 22.7572C0.406534 23.2052 0.292523 23.7673 0.205515 24.3564C-0.329537 27.7877 0.177512 31.055 1.75767 33.7543C3.41883 36.5355 6.15309 38.6207 10.0675 39.5438C10.4905 39.6578 10.9986 39.7428 11.5886 39.8279C16.7981 40.6149 22.8017 38.6447 26.7211 35.1864C27.5062 34.4823 28.2412 33.7223 28.8613 32.9092C29.4804 32.0641 30.0154 31.164 30.4404 30.2069V30.1799L30.5515 29.8719C31.1715 27.8437 32.0176 24.5274 32.8897 21.18C33.7058 18.0027 34.0158 16.9056 34.6348 14.8234C35.2289 11.9842 29.7054 10.774 28.1842 15.0795Z" fill="white"/>
<path d="M18.5231 24.8937C19.1381 22.8995 18.9721 23.6536 19.8172 20.3092C20.6363 17.1879 21.4523 14.0346 22.0394 11.9824C22.2404 11.5904 22.4944 11.1684 22.8015 10.8033C23.1695 10.2953 23.5915 9.84723 24.0686 9.42619C26.7479 7.06296 30.7772 5.71083 34.2136 6.21888C34.4956 6.27389 34.8336 6.32989 35.2267 6.4149C37.3979 6.95095 38.862 7.99205 39.6811 9.36918C40.5232 10.8033 40.7822 12.6615 40.4682 14.7097C40.4112 14.9937 40.3572 15.3298 40.2432 15.7808C38.832 21.4054 37.4259 26.9999 36.0468 32.6274C35.6767 35.9748 41.5953 36.3108 42.4404 32.5424L46.2447 17.2429C46.3558 16.7649 46.4698 16.2318 46.5538 15.6138C47.0598 12.2085 46.5828 8.94814 44.9746 6.24788C43.3445 3.46261 40.6102 1.38041 36.6928 0.45332C36.2708 0.369312 35.7597 0.255299 35.1437 0.170292C29.9322 -0.614784 23.9316 1.38041 20.0142 4.81374C19.1971 5.51581 18.4921 6.27389 17.87 7.08996C17.2519 7.90504 16.7149 8.83213 16.3238 9.79123L16.1808 10.1273C15.5908 12.1245 14.7157 15.4718 13.8706 18.7911C13.0255 21.9974 12.7455 23.0945 12.1234 25.1457C12.0684 28.9991 17.842 28.6621 18.5231 24.8937Z" fill="white"/>
<path d="M28.1842 15.0795C27.5942 17.1026 27.7622 16.3436 26.8891 19.6619C26.1 22.8132 25.2809 25.9335 24.6629 28.0137C24.4649 28.4077 24.2378 28.8048 23.9308 29.1968C23.5638 29.6749 23.1397 30.1529 22.6627 30.575C19.9834 32.9092 15.984 34.2893 12.5217 33.7543C12.2377 33.7223 11.8986 33.6673 11.5076 33.5562C9.3344 33.0492 7.89926 31.9781 7.08218 30.633C6.2091 29.1968 5.98307 27.3126 6.2921 25.2864C6.32211 25.0064 6.40611 24.6404 6.51613 24.2183C7.84125 18.8718 9.19439 13.5593 10.5205 8.24379C11.0546 5.54553 5.36101 4.83946 4.1509 8.3548L0.487541 22.7572C0.406534 23.2052 0.292523 23.7673 0.205515 24.3564C-0.329537 27.7877 0.177512 31.055 1.75767 33.7543C3.41883 36.5355 6.15309 38.6207 10.0675 39.5438C10.4905 39.6578 10.9986 39.7428 11.5886 39.8279C16.7981 40.6149 22.8017 38.6447 26.7211 35.1864C27.5062 34.4823 28.2412 33.7223 28.8613 32.9092C29.4804 32.0641 30.0154 31.164 30.4404 30.2069V30.1799L30.5515 29.8719C31.1715 27.8437 32.0176 24.5274 32.8897 21.18C33.7058 18.0027 34.0158 16.9056 34.6348 14.8234C35.2289 11.9842 29.7054 10.774 28.1842 15.0795Z" fill="white"/>
<path d="M18.5231 24.8937C19.1381 22.8995 18.9721 23.6536 19.8172 20.3092C20.6363 17.1879 21.4523 14.0346 22.0394 11.9824C22.2404 11.5904 22.4944 11.1684 22.8015 10.8033C23.1695 10.2953 23.5915 9.84723 24.0686 9.42619C26.7479 7.06296 30.7772 5.71083 34.2136 6.21888C34.4956 6.27389 34.8336 6.32989 35.2267 6.4149C37.3979 6.95095 38.862 7.99205 39.6811 9.36918C40.5232 10.8033 40.7822 12.6615 40.4682 14.7097C40.4112 14.9937 40.3572 15.3298 40.2432 15.7808C38.832 21.4054 37.4259 26.9999 36.0468 32.6274C35.6767 35.9748 41.5953 36.3108 42.4404 32.5424L46.2447 17.2429C46.3558 16.7649 46.4698 16.2318 46.5538 15.6138C47.0598 12.2085 46.5828 8.94814 44.9746 6.24788C43.3445 3.46261 40.6102 1.38041 36.6928 0.45332C36.2708 0.369312 35.7597 0.255299 35.1437 0.170292C29.9322 -0.614784 23.9316 1.38041 20.0142 4.81374C19.1971 5.51581 18.4921 6.27389 17.87 7.08996C17.2519 7.90504 16.7149 8.83213 16.3238 9.79123L16.1808 10.1273C15.5908 12.1245 14.7157 15.4718 13.8706 18.7911C13.0255 21.9974 12.7455 23.0945 12.1234 25.1457C12.0684 28.9991 17.842 28.6621 18.5231 24.8937Z" fill="white"/>
<path d="M162.848 30.9657C162.452 30.9657 162.088 31.0547 161.724 31.2208C161.357 31.3888 161.016 31.6148 160.737 31.9528L160.908 31.1107H159.636L158.369 37.1273L158.34 37.2943H159.664L160.423 33.696C160.512 33.1899 160.737 32.7939 161.074 32.5129C161.413 32.2058 161.836 32.0678 162.34 32.0678C162.708 32.0678 162.963 32.1798 163.13 32.3759C163.27 32.5719 163.299 32.8519 163.215 33.2459L162.368 37.2943H163.695L164.509 33.358C164.709 32.4859 164.681 31.8408 164.4 31.4998C164.146 31.1367 163.64 30.9657 162.848 30.9657ZM170.148 34.174C169.979 34.8761 169.72 35.4102 169.383 35.8052C169.131 36.0562 168.821 36.2292 168.484 36.3112C168.344 36.3412 168.202 36.3653 168.034 36.3653C167.528 36.3653 167.158 36.1682 166.935 35.8052C166.738 35.4392 166.707 34.9041 166.85 34.258C166.993 33.556 167.244 33.0209 167.609 32.6279C167.863 32.3759 168.174 32.2058 168.484 32.1218C168.623 32.0938 168.766 32.0678 168.933 32.0678C169.468 32.0678 169.835 32.2349 170.064 32.5979C170.261 32.9639 170.288 33.47 170.148 34.174ZM172.512 28.8565H171.245L170.596 31.8658C170.428 31.5558 170.204 31.3038 169.924 31.1367C169.638 30.9967 169.276 30.9077 168.881 30.9077C168.736 30.9077 168.623 30.9077 168.484 30.9407C167.863 31.0237 167.273 31.3038 166.765 31.8118C166.146 32.4309 165.722 33.2459 165.526 34.233C165.301 35.2131 165.383 36.0002 165.747 36.6213C166.118 37.2113 166.707 37.5214 167.494 37.5214C167.835 37.5214 168.174 37.4354 168.484 37.3223C168.538 37.2943 168.566 37.2943 168.596 37.2643C168.962 37.0963 169.303 36.8443 169.638 36.5073L169.468 37.2943H170.738L172.399 29.3356L172.512 28.8565ZM152.001 28.7435C151.464 28.7435 151.045 28.8875 150.704 29.1385C150.396 29.3936 150.173 29.8176 150.059 30.3497L149.915 31.1107H148.957L148.76 32.0938H149.692L148.589 37.2943H149.915L151.018 32.0938H152.087L152.311 31.1107H151.214L151.325 30.6327C151.385 30.3497 151.464 30.1226 151.576 30.0416C151.692 29.9276 151.86 29.8986 152.115 29.8986H152.284L152.565 29.9276L152.787 28.8005H152.734C152.397 28.7755 152.145 28.7435 152.001 28.7435ZM158.425 28.8565H156.988L155.212 37.2943H156.623L158.369 29.0265L158.425 28.8565ZM175.415 28.8565H174.09L173.809 30.1797H175.132L175.415 28.8565ZM179.302 34.9871C179.221 35.4102 178.993 35.7492 178.601 36.0312C178.403 36.1682 178.203 36.2832 177.978 36.3653C177.75 36.4233 177.53 36.4523 177.304 36.4523C176.995 36.4523 176.767 36.3653 176.599 36.2292C176.46 36.0562 176.432 35.8352 176.488 35.5502C176.541 35.2991 176.654 35.1011 176.825 34.9321C177.02 34.7931 177.276 34.6801 177.585 34.6221C177.665 34.6221 177.808 34.5961 177.978 34.5671L178.09 34.5371C178.712 34.4551 179.162 34.3411 179.472 34.203L179.302 34.9871ZM178.964 30.9077C178.601 30.9077 178.26 30.9407 177.978 31.0237C177.611 31.1107 177.276 31.2498 176.995 31.4428C176.46 31.8118 176.12 32.2879 176.007 32.9059L175.977 33.0209H177.218V32.9639C177.304 32.6579 177.444 32.4019 177.696 32.2349C177.781 32.1798 177.866 32.1488 177.978 32.0938C178.175 32.0358 178.403 31.9818 178.683 31.9818C179.108 31.9818 179.417 32.0678 179.616 32.2058C179.782 32.3449 179.836 32.5719 179.782 32.8519C179.695 33.2179 179.221 33.47 178.372 33.584H178.233C178.148 33.61 178.064 33.61 177.978 33.64C177.078 33.754 176.432 33.977 176.035 34.258C175.582 34.5671 175.299 35.0441 175.16 35.6652C175.05 36.2532 175.132 36.7043 175.415 37.0143C175.695 37.3523 176.146 37.5214 176.767 37.5214C177.189 37.5214 177.585 37.4354 177.978 37.2383C178.372 37.0703 178.738 36.8173 179.051 36.4783C178.993 36.8173 179.051 37.0443 179.221 37.1813C179.36 37.3523 179.641 37.4354 180.034 37.4354C180.149 37.4354 180.262 37.4084 180.375 37.4084C180.488 37.3773 180.627 37.3523 180.741 37.3223L180.939 36.3653C180.852 36.3963 180.795 36.3963 180.767 36.3963H180.685C180.545 36.3963 180.459 36.3653 180.405 36.2832C180.375 36.1982 180.375 36.0562 180.433 35.8052L181.077 32.7399C181.193 32.1488 181.077 31.6698 180.741 31.3608C180.375 31.0547 179.782 30.9077 178.964 30.9077ZM146.116 35.7212C145.745 36.2292 145.267 36.5073 144.703 36.6213C144.564 36.6213 144.421 36.6493 144.278 36.6493C143.746 36.6493 143.324 36.5073 143.039 36.1982C142.732 35.9202 142.59 35.4952 142.59 34.9321C142.59 34.5371 142.646 34.117 142.786 33.696C142.93 33.274 143.097 32.9059 143.324 32.5979C143.522 32.3189 143.804 32.0678 144.083 31.9238C144.278 31.8408 144.482 31.7558 144.703 31.7268C144.816 31.6988 144.958 31.6988 145.071 31.6988C145.663 31.6988 146.085 31.8408 146.394 32.1218C146.678 32.4019 146.818 32.8229 146.818 33.358C146.818 34.3161 146.592 35.1011 146.116 35.7212ZM145.21 30.7407C145.04 30.7407 144.872 30.7407 144.703 30.7707C143.804 30.8837 143.039 31.2498 142.45 31.8958C141.718 32.6829 141.378 33.667 141.378 34.8501C141.378 35.7212 141.632 36.3963 142.113 36.8733C142.619 37.3523 143.324 37.5784 144.253 37.5784H144.703C145.632 37.4644 146.394 37.0963 146.987 36.4233C147.719 35.6652 148.085 34.6801 148.085 33.5C148.085 32.6579 147.804 31.9818 147.3 31.4728C146.786 30.9967 146.085 30.7407 145.21 30.7407ZM172.399 36.8173L172.318 37.2943H173.639L174.935 31.1107H173.611L172.399 36.8173ZM183.333 12.941H178.712L174.258 17.0454L176.007 8.69557H172.147L168.736 24.8941H172.596L173.271 21.6558L175.05 20.1687L176.796 24.9471H181.133L178.203 17.4974L183.333 12.941ZM149.212 20.6477C149.1 21.2648 148.76 21.7728 148.281 22.1349C147.998 22.3329 147.719 22.5019 147.409 22.5829C147.127 22.6709 146.847 22.7269 146.505 22.7269C146.085 22.7269 145.776 22.5829 145.548 22.3329C145.349 22.0809 145.294 21.7168 145.379 21.2938C145.435 20.9558 145.606 20.6747 145.828 20.4767C146.085 20.2797 146.45 20.1127 146.932 19.9737C147.072 19.9427 147.24 19.9167 147.409 19.8587C147.548 19.8326 147.661 19.8036 147.831 19.7766C148.589 19.6326 149.183 19.4366 149.524 19.2696L149.212 20.6477ZM153.524 14.2071C153.213 13.674 152.734 13.279 152.057 13.024C151.385 12.773 150.507 12.66 149.437 12.66C148.705 12.66 148.028 12.716 147.409 12.828C146.592 12.997 145.886 13.25 145.267 13.643C144.224 14.2921 143.438 15.3022 142.957 16.6513H146.563C146.733 16.2013 147.013 15.8633 147.409 15.6382C147.804 15.4162 148.251 15.3022 148.788 15.3022C149.295 15.3022 149.662 15.3862 149.891 15.5842C150.113 15.7502 150.197 16.0073 150.113 16.3703L150.059 16.6513C149.974 17.0724 149.241 17.3844 147.831 17.6094C147.689 17.6354 147.548 17.6664 147.409 17.6664C146.678 17.8045 146.028 17.9185 145.52 18.0335C144.392 18.2845 143.522 18.7315 142.845 19.3526C142.195 19.9737 141.776 20.7577 141.55 21.7428C141.324 22.8399 141.492 23.683 142.025 24.3341C142.563 24.9471 143.409 25.2572 144.564 25.2572C145.294 25.2572 145.999 25.1442 146.678 24.8651C146.932 24.7781 147.182 24.6661 147.409 24.5281C147.859 24.3021 148.281 23.9931 148.705 23.653C148.675 23.88 148.675 24.0781 148.648 24.3021V24.8941H152.649L152.734 24.4431C152.565 24.3341 152.454 24.1331 152.426 23.823C152.397 23.515 152.426 23.093 152.539 22.5599L153.495 18.0025C153.721 16.8764 153.86 16.0353 153.833 15.5282C153.833 15.0222 153.721 14.5711 153.524 14.2071ZM159.917 18.4795C160.114 17.4974 160.423 16.7653 160.847 16.2863C161.246 15.8383 161.805 15.6112 162.482 15.6112C163.13 15.6112 163.525 15.8083 163.666 16.2013C163.834 16.5673 163.749 17.4664 163.469 18.8756L162.201 24.8941H166.118L167.748 17.1034C168.089 15.5282 168.004 14.4031 167.528 13.6981C167.045 12.997 166.088 12.66 164.709 12.66C163.892 12.66 163.13 12.801 162.482 13.136C161.805 13.446 161.217 13.9241 160.652 14.5711L161.016 12.941H157.186L154.678 24.8941H158.568L159.917 18.4795ZM115.797 12.66C114.979 12.66 114.246 12.801 113.572 13.136C112.923 13.446 112.303 13.9241 111.768 14.5711L112.106 12.941H108.276L105.764 24.8941H109.655L111.006 18.4795C111.203 17.4974 111.513 16.7653 111.936 16.2863C112.362 15.8383 112.895 15.6112 113.596 15.6112C114.219 15.6112 114.614 15.8083 114.756 16.2013C114.921 16.5673 114.835 17.4664 114.558 18.8756L113.286 24.8941H117.205L118.843 17.1034C119.177 15.5282 119.091 14.4031 118.614 13.6981C118.133 12.997 117.205 12.66 115.797 12.66ZM88.8866 8.69557L88.2116 11.8449H92.1299L92.779 8.69557H88.8866ZM81.4219 12.66C80.6048 12.66 79.8748 12.801 79.1967 13.136C78.5476 13.446 77.9316 13.9241 77.3935 14.5711L77.7345 12.941H73.9012L71.9 22.5019L71.3929 24.8941H75.2783L76.6314 18.4795C76.8605 17.4974 77.1695 16.7653 77.5605 16.2863C77.9856 15.8383 78.5196 15.6112 79.2257 15.6112C79.8448 15.6112 80.2358 15.8083 80.4068 16.2013C80.5468 16.5673 80.4918 17.4664 80.1838 18.8756L78.9157 24.8941H82.83L84.4632 17.1034C84.8022 15.5282 84.7202 14.4031 84.2422 13.6981C83.7631 12.997 82.83 12.66 81.4219 12.66ZM85.4813 24.8941H89.3687L91.8749 12.941H87.9865L85.4813 24.8941ZM101.399 18.9026C101.172 19.9737 100.779 20.8167 100.242 21.4048C99.9067 21.7978 99.5127 22.0529 99.0576 22.1939C98.8366 22.2499 98.5806 22.2759 98.3285 22.2759C97.5935 22.2759 97.0864 21.9979 96.8074 21.4048C96.5254 20.8167 96.4974 20.0017 96.7214 18.9026C96.9494 17.8045 97.3145 16.9904 97.8515 16.3993C98.1835 16.0073 98.6086 15.7503 99.0576 15.6112C99.2846 15.5572 99.5127 15.5282 99.7657 15.5282C100.497 15.5282 101.031 15.8083 101.315 16.3993C101.595 16.9904 101.624 17.8325 101.399 18.9026ZM100.382 12.5179C99.9357 12.5179 99.4827 12.5459 99.0576 12.6039C97.6515 12.801 96.4114 13.334 95.3703 14.2071C94.0161 15.3302 93.113 16.9054 92.689 18.9026C92.27 20.8988 92.497 22.4739 93.3971 23.597C94.2722 24.7241 95.7103 25.2862 97.7085 25.2862C98.1575 25.2862 98.6086 25.2572 99.0576 25.2012C100.467 24.9761 101.679 24.4431 102.724 23.597C104.102 22.4739 104.977 20.8988 105.4 18.9026C105.823 16.9054 105.596 15.3302 104.695 14.2071C103.822 13.08 102.384 12.5179 100.382 12.5179ZM72.38 8.69557H68.2666L66.1264 18.8195C65.8964 19.9167 65.5314 20.7007 64.9963 21.1798C64.4893 21.6558 63.7572 21.8838 62.7971 21.8838C61.813 21.8838 61.1659 21.6558 60.8559 21.1798C60.5159 20.7007 60.4879 19.9167 60.7149 18.8195L62.8261 8.69557H58.7697L56.7395 18.3095C56.4595 19.6616 56.3485 20.7327 56.4595 21.5458C56.5735 22.3619 56.8565 23.037 57.3596 23.597C57.8676 24.1611 58.5167 24.6111 59.3038 24.8941C60.0948 25.1752 61.0239 25.3432 62.095 25.3432C63.1651 25.3432 64.1522 25.1752 65.0543 24.8941C65.9544 24.6111 66.7995 24.1611 67.5606 23.597C68.2666 23.037 68.8557 22.3619 69.2777 21.5458C69.7288 20.7577 70.0948 19.6616 70.3808 18.3095L71.9 11.0838L72.38 8.69557ZM137.126 13.473C137.014 13.9811 136.757 14.3781 136.364 14.6551C135.971 14.9092 135.405 15.0222 134.701 15.0222H131.379L132.024 11.9569H135.52C136.138 11.9569 136.616 12.0969 136.869 12.3499C137.153 12.6039 137.237 12.97 137.126 13.473ZM136.164 19.8587C136.026 20.5067 135.718 20.9838 135.266 21.2648C135.012 21.4048 134.674 21.5188 134.28 21.5708C133.939 21.6318 133.55 21.6558 133.094 21.6558H129.969L130.73 18.0885H134.28C135.012 18.0885 135.546 18.2565 135.856 18.5365C136.193 18.8456 136.28 19.2696 136.164 19.8587ZM136.591 8.69557H128.729L125.321 24.8941H131.659C132.728 24.8941 133.574 24.8651 134.28 24.8091C134.562 24.7781 134.785 24.7531 135.012 24.6961C135.773 24.5851 136.421 24.3891 136.983 24.1081C137.799 23.711 138.504 23.148 139.097 22.4179C139.662 21.6858 140.026 20.8707 140.224 19.9427C140.42 19.0146 140.337 18.2565 139.968 17.6094C139.608 16.9904 138.98 16.5673 138.079 16.3163C138.955 16.0073 139.662 15.5842 140.198 14.9962C140.704 14.4321 141.068 13.7291 141.239 12.858C141.55 11.4488 141.324 10.4077 140.564 9.73167C139.802 9.0316 138.477 8.69557 136.591 8.69557Z" fill="white"/>
</svg>
