<svg width="234" height="40" viewBox="0 0 234 40" fill="none" xmlns="http://www.w3.org/2000/svg">
<g clip-path="url(#clip0_414_1159)">
<mask id="mask0_414_1159" style="mask-type:luminance" maskUnits="userSpaceOnUse" x="-731" y="-95" width="1010" height="1438">
<path d="M-730.581 -94.6221H278.371V1342.64H-730.581V-94.6221Z" fill="white"/>
</mask>
<g mask="url(#mask0_414_1159)">
<path d="M16.6856 30.0988C18.5582 30.0988 19.3803 27.635 17.8578 26.4639C17.6954 26.3016 17.4975 26.1039 17.2641 25.8707C9.865 19.8935 7.627 21.2927 0.227916 23.8783C-0.00045111 24 -0.00045111 24.3498 0.227916 24.4715C2.46591 24.9277 4.58211 26.3422 7.39864 29.2775L15.8634 30.0988C16.0969 30.0988 16.3709 30.0988 16.6856 30.0988ZM51.443 0.182483L23.0189 28.5779C21.0245 30.6768 18.0862 31.7414 15.1479 31.4981L8.34255 30.9201L15.3915 37.7186C19.1519 41.2471 25.1351 40.5323 27.9517 36.3194L51.915 0.532293C52.0368 0.288947 51.6866 -0.060863 51.443 0.182483Z" fill="white"/>
<path fill-rule="evenodd" clip-rule="evenodd" d="M61.7806 10.3879L67.3071 21.2928C67.4136 21.4145 67.6572 21.4145 67.779 21.2928L73.1685 10.3879C73.1685 10.1446 73.2903 10.0381 73.6405 10.0381H79.5171C79.6389 10.0381 79.7455 10.2662 79.6389 10.3879L70.5956 27.635V36.3195C70.5956 36.5527 70.4788 36.6693 70.2454 36.6693H64.7189C64.4855 36.6693 64.3688 36.5527 64.3688 36.3195V27.5134L55.3254 10.3879C55.2036 10.1446 55.3254 10.0381 55.5538 10.0381H61.3086C61.5522 10.0381 61.6588 10.1446 61.7806 10.3879ZM100.314 31.4982V36.3195C100.314 36.5527 100.192 36.6693 99.9483 36.6693H81.8617C81.6282 36.6693 81.5115 36.5527 81.5115 36.3195V10.3879C81.5115 10.1547 81.6282 10.0381 81.8617 10.0381H100.892C101.136 10.0381 101.242 10.2662 101.136 10.5096C100.892 11.0875 99.5982 14.616 99.4916 14.9658C99.3698 15.194 99.248 15.3157 99.0196 15.3157H87.8601C87.6977 15.3157 87.6165 15.4323 87.6165 15.6655V20.3651C87.6165 20.5983 87.6977 20.7149 87.8601 20.7149H97.7256C97.959 20.7149 98.0757 20.8315 98.0757 21.0647V25.3993C98.0757 25.5615 97.959 25.6426 97.7256 25.6426H87.8601C87.6977 25.6426 87.6165 25.7593 87.6165 25.9925V30.7985C87.6165 31.0317 87.6977 31.1484 87.8601 31.1484H99.9483C100.192 31.1484 100.314 31.265 100.314 31.4982ZM120.273 15.5438H111.108C109.585 15.5438 108.885 16.2586 108.885 17.4297C108.885 18.6008 109.829 19.1788 111.93 20.0001L115.584 21.2928C120.045 22.829 122.161 24.578 122.161 28.9278C122.161 33.5058 119.101 36.6693 112.402 36.6693H103.359C103.206 36.6693 103.13 36.5527 103.13 36.3195V31.4982C103.13 31.265 103.206 31.1484 103.359 31.1484H113.117C114.99 31.1484 115.812 30.3271 115.812 29.0343C115.812 27.635 114.868 26.9354 112.295 25.9925L108.885 24.8214C105.475 23.6503 102.536 21.7643 102.536 17.6579C102.536 12.6084 106.297 10.0381 111.823 10.0381H120.273C120.506 10.0381 120.623 10.1547 120.623 10.3879V15.194C120.623 15.4272 120.506 15.5438 120.273 15.5438ZM134.249 36.3195V10.3879C134.249 10.1547 134.366 10.0381 134.599 10.0381H147.875C152.929 10.0381 155.046 13.6731 155.046 16.9582C155.046 19.5438 153.752 21.886 151.407 22.9354C154.695 24.0001 156.218 26.2206 156.218 29.3993C156.218 33.962 152.929 36.6693 147.525 36.6693H134.599C134.366 36.6693 134.249 36.5527 134.249 36.3195ZM140.354 15.5438V20.4715C140.354 20.7048 140.476 20.8214 140.719 20.8214H146.002C147.875 20.8214 149.047 19.8936 149.047 18.0077C149.047 16.2586 147.997 15.194 146.002 15.194H140.719C140.476 15.194 140.354 15.3106 140.354 15.5438ZM140.354 25.9925V31.1484C140.354 31.3816 140.476 31.4982 140.719 31.4982H146.824C148.941 31.4982 149.991 30.3271 149.991 28.6845C149.991 26.9354 149.047 25.6426 146.824 25.6426H140.719C140.476 25.6426 140.354 25.7593 140.354 25.9925ZM166.083 10.0381H172.31C172.66 10.0381 172.66 10.1446 172.782 10.3879L181.704 36.3195C181.704 36.5476 181.704 36.6693 181.475 36.6693H175.827C175.599 36.6693 175.599 36.5476 175.477 36.3195L173.711 31.0419C173.711 30.7985 173.594 30.6769 173.361 30.6769H165.261C165.033 30.6769 164.911 30.7985 164.789 31.0419L163.145 36.3195C163.023 36.5476 163.023 36.6693 162.673 36.6693H157.162C156.918 36.6693 156.812 36.5476 156.918 36.1978L165.733 10.3879C165.733 10.1547 165.85 10.0381 166.083 10.0381ZM172.31 26.2206L169.372 16.6084C169.372 16.3651 169.144 16.3651 169.144 16.6084L166.205 26.2206C166.124 26.4538 166.2 26.5704 166.434 26.5704H172.067C172.229 26.5704 172.31 26.4538 172.31 26.2206ZM189.346 36.6693H183.942C183.779 36.6693 183.698 36.5527 183.698 36.3195V10.3879C183.698 10.1547 183.779 10.0381 183.942 10.0381H188.281L188.524 10.1445L200.506 25.7491V10.3879C200.506 10.1547 200.582 10.0381 200.734 10.0381H206.139C206.372 10.0381 206.489 10.1547 206.489 10.3879V36.4259C206.489 36.5476 206.367 36.6693 206.261 36.6693H202.028L201.785 36.5476L189.697 21.0647V36.3195C189.697 36.5527 189.58 36.6693 189.346 36.6693ZM210.828 36.3195V10.3879C210.828 10.1547 210.95 10.0381 211.193 10.0381H216.476C216.71 10.0381 216.827 10.1547 216.827 10.3879V21.0647C216.827 21.1864 217.055 21.2928 217.177 21.0647L226.464 10.3879C226.692 10.1446 226.814 10.0381 227.164 10.0381H232.919C233.147 10.0381 233.269 10.3879 233.041 10.5096L223.754 21.7643C223.672 21.8454 223.672 21.962 223.754 22.1141L233.863 36.1978C233.969 36.4259 233.863 36.6693 233.619 36.6693H227.514C227.286 36.6693 227.164 36.5476 227.164 36.4259L219.871 26.2206C219.719 26.0685 219.602 26.0685 219.521 26.2206L216.948 28.9278C216.867 28.9988 216.827 29.0748 216.827 29.156V36.3195C216.827 36.5527 216.71 36.6693 216.476 36.6693H211.193C210.95 36.6693 210.828 36.5527 210.828 36.3195Z" fill="white"/>
</g>
</g>
<defs>
<clipPath id="clip0_414_1159">
<rect width="234" height="40" fill="white"/>
</clipPath>
</defs>
</svg>
