<svg width="112" height="40" viewBox="0 0 112 40" fill="none" xmlns="http://www.w3.org/2000/svg">
<path d="M81.4633 14.3115C81.7042 14.3918 81.8745 14.5846 82.0431 14.7645C84.4236 17.2702 86.8201 19.7583 89.1957 22.2672C89.2005 19.7567 89.1893 17.2461 89.2005 14.7356C89.8446 14.734 90.4871 14.7452 91.1312 14.7243C91.1922 14.9508 91.2179 15.1821 91.2115 15.4166C91.1987 19.2346 91.2163 23.0526 91.2035 26.8707C91.1553 26.8931 91.0605 26.9365 91.014 26.959C88.4552 24.3569 85.9784 21.6729 83.4245 19.0676C83.4004 21.5701 83.4534 24.0758 83.3988 26.5799C82.7499 26.551 82.101 26.5655 81.4537 26.5687C81.4553 22.4824 81.4376 18.3962 81.4633 14.3115Z" fill="white"/>
<path d="M30.4507 14.6184C31.9493 14.0722 33.5619 14.4642 35.022 14.9348C35.0397 15.8648 35.03 16.7932 35.03 17.7232C34.1337 17.1771 33.1636 16.631 32.089 16.6004C31.5461 16.5651 30.8795 16.8976 30.8699 17.5064C30.8329 17.9513 31.1879 18.2918 31.5252 18.5199C32.8263 19.3343 34.3393 19.9077 35.34 21.122C36.5576 22.7893 35.9118 25.454 34.0711 26.392C32.3733 27.2931 30.3511 26.9253 28.6003 26.3808C28.4991 25.3335 28.4332 24.2847 28.3915 23.2342C29.405 23.867 30.5278 24.4581 31.7549 24.4373C32.2769 24.4019 32.8921 24.2429 33.1491 23.7369C33.4174 23.2824 33.2134 22.6816 32.8134 22.3765C31.6666 21.4593 30.1824 21.0128 29.1737 19.9173C28.52 19.2347 28.1891 18.2661 28.2806 17.3265C28.3481 16.0816 29.2861 15.0006 30.4507 14.6184Z" fill="white"/>
<path d="M73.1142 15.6752C73.3503 15.2078 73.5174 14.7034 73.8338 14.281C75.7372 18.3576 77.5715 22.4664 79.4363 26.5623C78.7248 26.5671 78.0116 26.5558 77.3 26.5735C76.966 25.878 76.6576 25.1713 76.3508 24.4645C74.5711 24.4549 72.7914 24.4613 71.0116 24.4613C70.6968 25.1664 70.3884 25.8748 70.0463 26.5687C69.354 26.559 68.6633 26.5655 67.9727 26.5623C69.7042 22.9434 71.3939 19.3021 73.1142 15.6752ZM73.5913 18.6387C72.9841 20.0056 72.4075 21.387 71.7778 22.7426C73.0516 22.8005 74.3301 22.7555 75.6055 22.7635C74.9935 21.3179 74.3574 19.8819 73.7471 18.4347C73.7085 18.4861 73.6298 18.5873 73.5913 18.6387Z" fill="white"/>
<path d="M5.85059 14.7372C6.95728 14.7308 8.06237 14.7484 9.16746 14.7275C10.03 15.9611 10.809 17.2493 11.6603 18.4909C12.5502 17.23 13.4481 15.9724 14.3684 14.734C15.3418 14.7436 16.3152 14.7291 17.2886 14.742C15.814 16.8108 14.2255 18.8042 12.7879 20.8939C12.7622 22.7812 12.7815 24.6717 12.7799 26.5607C11.8563 26.5671 10.9327 26.5639 10.0091 26.5623C9.99466 24.6878 10.0396 22.8085 9.98824 20.9356C8.63579 18.854 7.19821 16.8253 5.85059 14.7372Z" fill="white"/>
<path d="M18.4995 26.5654C18.5059 22.6221 18.4915 18.6772 18.5075 14.7339C20.9056 14.7403 23.3038 14.7355 25.7019 14.7371C25.7083 15.5418 25.6938 16.3482 25.7131 17.1529C24.2145 17.2123 22.7062 17.0999 21.2044 17.2043C21.2076 17.9142 21.2028 18.6242 21.2108 19.3325C22.4958 19.3277 23.7824 19.3165 25.0674 19.3406C25.0513 20.1389 25.0626 20.9388 25.061 21.7403C23.7744 21.7387 22.4894 21.7403 21.2044 21.7371C21.2092 22.5145 21.206 23.2935 21.206 24.0709C22.7223 24.0725 24.2386 24.0581 25.7549 24.0757C25.7581 24.9062 25.7645 25.7366 25.7517 26.5686C23.3343 26.5606 20.9169 26.5638 18.4995 26.5654Z" fill="white"/>
<path d="M58.9828 14.7354C60.4782 14.7691 61.9785 14.6599 63.4674 14.8189C64.4312 14.9314 65.4801 15.3153 65.9844 16.2035C66.5225 17.1849 66.5305 18.5325 65.7901 19.416C65.4672 19.8159 64.9885 20.0295 64.5404 20.256C65.4014 20.4921 66.1675 21.117 66.4438 21.9827C66.7699 23.0477 66.6799 24.3102 65.9924 25.2177C65.2279 26.1943 63.9252 26.4705 62.7527 26.546C61.4934 26.5814 60.2357 26.5557 58.978 26.5653C58.9877 22.622 58.9748 18.6787 58.9828 14.7354ZM60.9489 16.3175C60.9553 17.4291 60.9521 18.5422 60.9521 19.6553C61.8323 19.6312 62.8057 19.7902 63.5959 19.3035C64.5356 18.7767 64.6464 17.1351 63.6522 16.6099C62.8185 16.1907 61.8484 16.3432 60.9489 16.3175ZM60.9505 21.2342C60.9553 22.4614 60.9521 23.6901 60.9537 24.9173C61.8516 24.8852 62.8121 25.049 63.657 24.6619C64.7846 24.1463 64.9355 22.3473 63.9413 21.6326C63.0659 21.027 61.9447 21.2888 60.9505 21.2342Z" fill="white"/>
<path d="M94.9334 26.567C94.9382 22.6221 94.9045 18.6756 94.9495 14.7307C95.6113 14.7404 96.273 14.7371 96.9348 14.7339C96.9621 16.5008 96.9348 18.2676 96.9444 20.0345C98.6101 18.2676 100.271 16.4976 101.945 14.7387C102.73 14.7339 103.517 14.7371 104.304 14.7355C102.537 16.6405 100.746 18.5246 98.9651 20.4184C100.938 22.4583 102.887 24.5207 104.863 26.5558C103.985 26.5735 103.108 26.5574 102.229 26.5686C100.473 24.7199 98.7113 22.8775 96.9476 21.0384C96.938 22.8791 96.9509 24.7199 96.9428 26.5622C96.273 26.567 95.6032 26.5606 94.9334 26.567Z" fill="white"/>
<path d="M59.4135 2.27282C59.9886 1.51789 60.517 0.724411 61.1338 0C55.1136 10.6397 49.1369 21.3067 43.1295 31.9544C41.6325 34.64 40.0986 37.3063 38.6176 40C38.4875 39.9309 38.3703 39.8442 38.2675 39.7398C36.1537 37.5858 34.0286 35.4447 31.9116 33.294C33.4151 33.2779 34.9169 33.2924 36.4203 33.2859C44.0853 22.9498 51.7502 12.6121 59.4135 2.27282Z" fill="#C4261B"/>
<path d="M0.000252538 8.80704C17.966 8.78134 35.9301 8.80865 53.8958 8.79419C47.9206 16.6856 41.9872 24.6091 35.9847 32.4797C23.9942 32.47 12.0036 32.4733 0.0131024 32.4845C-0.0142035 24.5915 0.0114962 16.7001 0.000252538 8.80704ZM30.4512 14.6184C29.2867 15.0007 28.3486 16.0817 28.2812 17.3265C28.1896 18.2661 28.5205 19.2347 29.1742 19.9173C30.183 21.0128 31.6671 21.4593 32.814 22.3765C33.2139 22.6817 33.4179 23.2824 33.1497 23.737C32.8927 24.2429 32.2775 24.4019 31.7555 24.4373C30.5283 24.4582 29.4055 23.8671 28.392 23.2342C28.4338 24.2847 28.4996 25.3336 28.6008 26.3808C30.3516 26.9253 32.3739 27.2932 34.0717 26.3921C35.9124 25.454 36.5581 22.7893 35.3406 21.122C34.3399 19.9077 32.8268 19.3343 31.5258 18.5199C31.1885 18.2918 30.8335 17.9513 30.8704 17.5064C30.8801 16.8976 31.5467 16.5651 32.0896 16.6005C33.1641 16.631 34.1343 17.1771 35.0306 17.7232C35.0306 16.7932 35.0402 15.8648 35.0225 14.9348C33.5625 14.4642 31.9498 14.0723 30.4512 14.6184ZM5.85015 14.7372C7.19778 16.8253 8.63536 18.854 9.9878 20.9357C10.0392 22.8086 9.99423 24.6879 10.0087 26.5623C10.9323 26.5639 11.8559 26.5671 12.7794 26.5607C12.781 24.6718 12.7618 22.7813 12.7875 20.8939C14.225 18.8042 15.8136 16.8109 17.2881 14.7421C16.3148 14.7292 15.3414 14.7437 14.368 14.734C13.4476 15.9724 12.5497 17.2301 11.6599 18.491C10.8086 17.2494 10.0296 15.9612 9.16702 14.7276C8.06193 14.7485 6.95684 14.7308 5.85015 14.7372ZM18.4992 26.5655C20.9166 26.5639 23.334 26.5607 25.7514 26.5688C25.7642 25.7367 25.7578 24.9063 25.7546 24.0759C24.2383 24.0582 22.722 24.0727 21.2057 24.0711C21.2057 23.2936 21.2089 22.5146 21.2041 21.7372C22.4891 21.7404 23.7741 21.7388 25.0607 21.7404C25.0623 20.9389 25.0511 20.139 25.0671 19.3407C23.7821 19.3166 22.4955 19.3279 21.2106 19.3327C21.2025 18.6243 21.2073 17.9144 21.2041 17.2044C22.706 17.1 24.2142 17.2125 25.7128 17.153C25.6935 16.3483 25.708 15.542 25.7016 14.7372C23.3035 14.7356 20.9054 14.7405 18.5073 14.734C18.4912 18.6773 18.5057 22.6222 18.4992 26.5655Z" fill="#005192"/>
<path d="M52.9155 15.6818C54.2117 13.3929 55.4212 11.0527 56.756 8.78949C74.8968 8.80073 93.0391 8.80876 111.18 8.78467C111.238 16.6825 111.196 24.5836 111.201 32.483C88.6879 32.4686 66.1765 32.4798 43.6636 32.4782C46.7267 26.8676 49.8379 21.2844 52.9155 15.6818ZM81.463 14.3117C81.4373 18.3964 81.455 22.4826 81.4534 26.5689C82.1007 26.5657 82.7496 26.5512 83.3985 26.5801C83.4532 24.076 83.4002 21.5703 83.4242 19.0678C85.9782 21.6731 88.455 24.3571 91.0137 26.9592C91.0603 26.9367 91.155 26.8933 91.2032 26.8708C91.2161 23.0528 91.1984 19.2348 91.2113 15.4168C91.2177 15.1823 91.192 14.951 91.1309 14.7245C90.4868 14.7454 89.8443 14.7342 89.2002 14.7358C89.189 17.2463 89.2003 19.7568 89.1954 22.2674C86.8198 19.7584 84.4233 17.2704 82.0429 14.7647C81.8742 14.5848 81.704 14.392 81.463 14.3117ZM73.1138 15.6754C71.3936 19.3023 69.7038 22.9436 67.9723 26.5624C68.663 26.5657 69.3536 26.5592 70.0459 26.5689C70.3881 25.875 70.6965 25.1666 71.0113 24.4615C72.791 24.4615 74.5707 24.4551 76.3504 24.4647C76.6572 25.1715 76.9656 25.8782 77.2997 26.5737C78.0112 26.556 78.7244 26.5673 79.436 26.5624C77.5711 22.4666 75.7368 18.3578 73.8334 14.2812C73.517 14.7036 73.35 15.208 73.1138 15.6754ZM58.9822 14.7358C58.9742 18.6791 58.987 22.6224 58.9774 26.5657C60.2351 26.556 61.4928 26.5817 62.752 26.5464C63.9246 26.4709 65.2272 26.1946 65.9918 25.218C66.6793 24.3105 66.7692 23.048 66.4432 21.9831C66.1669 21.1173 65.4007 20.4925 64.5398 20.2564C64.9879 20.0299 65.4666 19.8163 65.7894 19.4163C66.5299 18.5329 66.5219 17.1853 65.9838 16.2039C65.4794 15.3156 64.4305 14.9317 63.4668 14.8193C61.9778 14.6603 60.4776 14.7695 58.9822 14.7358ZM94.9329 26.5673C95.6027 26.5608 96.2725 26.5673 96.9423 26.5624C96.9503 24.7201 96.9375 22.8794 96.9471 21.0386C98.7108 22.8778 100.473 24.7201 102.228 26.5689C103.107 26.5576 103.984 26.5737 104.863 26.556C102.887 24.5209 100.937 22.4585 98.9645 20.4186C100.746 18.5249 102.537 16.6407 104.304 14.7358C103.517 14.7374 102.73 14.7342 101.944 14.739C100.27 16.4978 98.6096 18.2679 96.9439 20.0347C96.9343 18.2679 96.9616 16.501 96.9343 14.7342C96.2725 14.7374 95.6107 14.7406 94.949 14.7309C94.904 18.6758 94.9377 22.6224 94.9329 26.5673Z" fill="#005192"/>
<path d="M60.9487 16.3176C61.8482 16.3433 62.8184 16.1907 63.652 16.6099C64.6463 17.1352 64.5354 18.7767 63.5958 19.3036C62.8055 19.7903 61.8322 19.6312 60.9519 19.6553C60.9519 18.5422 60.9552 17.4291 60.9487 16.3176Z" fill="#005192"/>
<path d="M73.5918 18.6386C73.6303 18.5872 73.709 18.486 73.7476 18.4346C74.3579 19.8818 74.994 21.3178 75.606 22.7634C74.3306 22.7553 73.0521 22.8003 71.7783 22.7425C72.408 21.3868 72.9846 20.0055 73.5918 18.6386Z" fill="#005192"/>
<path d="M60.9507 21.2343C61.9449 21.289 63.0661 21.0271 63.9415 21.6327C64.9357 22.3475 64.7848 24.1464 63.6572 24.662C62.8123 25.0491 61.8518 24.8853 60.9539 24.9174C60.9523 23.6903 60.9555 22.4615 60.9507 21.2343Z" fill="#005192"/>
</svg>
