<svg width="48" height="40" viewBox="0 0 48 40" fill="none" xmlns="http://www.w3.org/2000/svg">
<path d="M24.1861 0H23.2559V40H24.1861V0Z" fill="white"/>
<path d="M45.9804 13.51V5.58142H44.7503C44.3798 6.45579 43.876 6.81146 43.2239 6.81146C41.4752 6.81146 40.6749 5.58142 37.9925 5.58142C33.7096 5.58142 30.1381 9.0048 30.1381 12.9913C30.1381 21.7054 43.8019 19.7492 43.8019 26.9516C43.8019 29.5006 41.8457 31.3827 39.2967 31.3827C36.0956 31.3827 32.0943 29.2783 31.0124 23.8987H29.7676V32.6869H31.0124C31.0865 31.7384 31.7386 30.9381 32.6871 30.9381C33.9171 30.9381 36.392 32.835 39.2226 32.835C43.6537 32.835 47.3586 29.2042 47.3586 24.9065C47.3586 15.318 33.843 17.052 33.843 10.5164C33.843 8.412 35.5917 7.03376 38.1259 7.03376C41.1788 7.03376 44.0093 9.21227 44.5132 13.4952H45.9655L45.9804 13.51Z" fill="white"/>
<path d="M12.908 25.1698C12.908 27.6002 11.2778 29.0526 8.00265 29.0526H4.87569V21.6871H8.21013C11.2185 21.6871 12.9228 23.1098 12.9228 25.1698M11.2926 14.0846C11.2926 16.189 9.54389 17.6117 7.80999 17.6117H4.8905V10.6464H7.2913C10.0033 10.6464 11.3074 12.0691 11.3074 14.0846M17.9615 25.1698C17.9615 22.0132 15.8571 19.4197 12.8932 18.738V18.6935C15.0865 17.5969 16.2276 15.4628 16.2276 13.1509C16.2276 9.9054 13.7527 6.51166 8.52134 6.51166H0V33.1873H8.47688C15.2199 33.1873 17.9763 28.9785 17.9763 25.1698" fill="white"/>
</svg>
