<svg width="249" height="40" viewBox="0 0 249 40" fill="none" xmlns="http://www.w3.org/2000/svg">
<path d="M10.342 2.98296e-05H12.1786C13.4992 2.98296e-05 17.9771 1.25589 17.9771 1.25589H18.7502C19.0502 1.25589 19.533 1.02417 19.7164 0.870399C19.8516 0.908325 19.9488 0.937235 20.1033 1.06274L12.4675 6.47581C12.4579 6.47581 10.1489 7.62133 10.1489 8.69925V22.3254L2.60895 27.5454C2.71585 26.8212 3.67308 26.1681 3.67308 25.1302V11.6944C3.67308 10.6455 10.9213 6.87168 10.9213 5.79927C10.9213 4.73582 6.66892 3.8655 6.66892 3.8655C5.31583 3.81722 4.75515 3.81722 3.38274 3.8655C2.03861 3.91438 0.522064 4.7641 0 4.73581C1.64275 3.64341 5.9841 2.98296e-05 10.342 2.98296e-05Z" fill="white"/>
<path d="M23.5828 6.9587V15.658C25.4869 14.5166 26.6758 13.9173 26.6758 12.3718C26.6758 10.3318 23.5828 6.9587 23.5828 6.9587ZM23.5828 18.3635V30.2523C23.5828 30.8386 24.6172 31.3158 25.2255 31.3158C25.5158 31.3158 25.1296 31.5372 25.6124 31.3158V20.1993C25.6124 19.4752 23.8821 18.4407 23.5828 18.3635ZM25.8048 0.28978C26.9662 0.28978 27.6703 1.53665 29.671 4.15594C30.1648 4.80353 32.4737 7.6263 32.4737 8.98834V10.0518C32.4737 12.8035 25.2255 15.5711 25.2255 16.7214C25.2255 17.5034 29.0338 17.1366 30.7344 18.2669C32.3586 19.3497 33.0544 21.6379 33.0544 22.9062V26.1924C33.0544 28.1731 30.3572 28.8986 27.062 31.4116C25.6124 32.5137 20.6635 35.8578 20.2973 35.8578C20.2973 35.8578 14.6194 32.7648 11.8883 32.7648H8.21526C6.67182 32.7648 2.89943 34.1185 2.6084 34.1185C2.6084 34.1185 8.30561 28.5117 14.1104 28.5117H17.9766C18.7738 28.5117 21.5145 29.6337 22.2297 29.8648V5.31596C22.2297 5.07321 21.9193 4.63939 21.4566 4.63939C20.3842 4.63939 19.62 6.5918 19.62 6.66975V21.2635C19.62 21.9227 17.1069 23.8634 15.7538 24.6462C13.7338 25.8151 12.4297 26.9372 11.2118 27.5455V27.2558C11.2118 27.2558 12.2739 26.0972 12.2739 25.4193V9.56832C12.2739 9.37459 13.9759 7.24837 18.6538 4.54286C21.369 2.97735 24.1331 0.28978 25.8048 0.28978Z" fill="white"/>
<path d="M95.3386 17.1061L95.2883 30.4447L99.8317 32.4743V19.2323L95.3386 17.1061ZM97.4152 14.2068L104.278 17.5903V32.4743L97.8014 35.664L90.8428 32.6674V17.1061L97.4152 14.2068Z" fill="white"/>
<path d="M65.7127 13.7641L69.8685 17.92V30.6778L71.8023 32.6116L68.6127 35.704L65.2306 32.5144V20.6269C65.1713 20.5876 63.1134 18.5386 62.7175 18.4034L60.3969 20.5296V30.7751L62.1369 32.5144L58.8514 35.704L55.8548 32.8041V19.9503C55.8548 19.9503 54.4335 18.7614 53.8252 18.0165L57.8852 13.8614L61.8472 17.6303L65.7127 13.7641Z" fill="white"/>
<path d="M81.6623 14.3035L89.2001 17.4931C88.8526 17.9276 86.5526 19.6089 85.7209 19.8131C85.7209 19.8131 79.5643 17.4062 79.4388 17.3959V29.9613L84.6188 32.5372C84.6188 32.5372 87.605 31.5082 88.3305 31.5082C88.4084 31.5082 88.5429 31.5371 88.7174 31.5082V31.7978L82.8216 35.664H82.0478L74.6064 32.2813V17.6869L81.6623 14.3035Z" fill="white"/>
<path d="M39.8114 23.9126V30.1305L46.19 33.0946V27.1105L39.8114 23.9126ZM43.5803 13.9574C48.2775 16.3064 50.3458 16.5885 50.3458 17.6305V30.0022L53.3416 32.9987L50.5396 35.7042C48.4906 34.0332 47.7368 33.2884 47.7368 33.2884L42.5852 35.8697L35.5576 32.6484V24.4919L42.421 21.1098L46.19 22.6554V19.2733L40.17 17.1816L37.1486 17.5464L37.0079 17.0505L43.5803 13.9574Z" fill="white"/>
<path d="M125.739 17.1156V30.4534L130.38 32.4837V19.2417L125.739 17.1156ZM127.866 5.22665C128.157 5.22665 129.431 5.71974 131.539 6.77352C132.679 7.34387 134.73 7.76941 134.73 8.80319V32.7734L128.35 35.7685L121.294 32.3865V17.2114L128.06 14.2156C128.301 14.2445 130.477 15.0852 130.477 15.0852V10.2528L124.833 7.84318C123.915 7.90105 122.831 8.77836 121.73 8.97283L121.97 8.0301C121.97 8.0301 127.055 5.22665 127.866 5.22665Z" fill="white"/>
<path d="M142.768 17.9981L142.795 25.3491L147.168 22.5257L142.768 17.9981ZM145.747 14.1188L152.03 21.0781L142.848 27.8435V29.6794C142.848 30.0683 148.258 32.5373 148.258 32.5373C148.258 32.5373 150.939 30.7028 152.126 31.4194C152.059 31.5069 145.651 35.6718 145.651 35.6718L138.789 32.6766V17.405L145.747 14.1188Z" fill="white"/>
<path d="M230.122 30.8605L231.861 32.5033L228.383 35.7895L225.097 32.5033V10.2738L230.122 5.34485V30.8605Z" fill="white"/>
<path d="M203.351 4.72229V18.736L208.377 13.8071L212.146 17.5767V35.36L207.409 40H207.313V19.9933L205.477 18.2533L203.351 20.0898V30.6249L205.186 32.3642V32.4608L201.804 35.8442L198.518 32.5573V9.55404L203.351 4.81888L203.351 4.72229Z" fill="white"/>
<path d="M217.752 4.72229H217.849L221.134 8.0085V8.10429L217.752 11.4877L214.368 8.10429L217.752 4.72229Z" fill="white"/>
<path d="M238.75 17.9981L238.776 25.3491L243.15 22.5257L238.75 17.9981ZM241.529 14.3333C241.711 14.3333 247.81 21.0119 247.906 21.2925L238.725 27.7684V30.3787L243.928 32.7297C243.928 32.7297 246.659 32.3683 247.616 31.5373L249.009 31.8842C248.892 32.0572 242.619 35.8862 241.529 35.8862C241.286 35.8862 236.608 34.089 234.664 32.7938V18.005C234.664 17.3471 241.508 14.3333 241.529 14.3333Z" fill="white"/>
<path d="M217.849 13.8072H217.945L220.941 16.8037V30.5278L222.778 32.2678L219.298 35.6512L216.012 32.3643V18.6403L214.467 17.1893L217.849 13.8072Z" fill="white"/>
<path d="M184.651 2.24363H185.036C184.729 3.02501 179.514 5.536 177.498 7.8491C174.403 11.4015 172.321 13.3849 172.668 18.9277C172.87 22.1497 175.411 26.9179 178.369 28.629C179.276 29.151 182.156 30.7365 184.844 30.8524C188.758 31.0254 187.198 30.2428 187.769 30.5524V7.16221C187.769 6.87118 187.057 5.33604 186.39 5.33604C186.198 5.33604 185.907 5.69396 185.907 5.91533V22.0559C185.907 22.6614 185.347 23.5256 182.621 25.3435C179.827 27.1986 178.968 27.8269 178.658 27.7586C178.725 27.5848 179.151 26.9469 179.334 26.7924V9.9753C179.334 8.30635 181.763 7.33668 183.878 5.72153C187.366 3.05395 189.251 2.43603 189.29 2.43603H190.159C192.476 2.43603 193.93 5.23878 194.22 5.52844C194.239 5.54838 194.885 5.77052 195.089 6.01258H196.442C196.834 6.01258 197.795 5.43189 198.376 5.52844C196.81 6.89188 191.821 10.0719 191.706 10.0719H190.934C190.576 10.0719 190.024 9.52081 189.387 9.2022V30.2724C189.658 30.3103 189.618 30.2724 189.774 30.2724C190.721 30.2724 194.239 27.7297 194.411 27.4697H194.701V28.1462C194.684 28.1746 193.263 30.8331 193.253 30.8524C190.238 34.3027 186.852 36.0069 182.03 36.042C173.592 36.1048 167.605 29.991 166.963 20.5104C166.325 11.0746 172.97 3.32154 180.785 2.82292C181.925 2.74981 183.316 2.8327 183.491 2.82292C183.491 2.82292 184.564 2.31053 184.651 2.24363Z" fill="white"/>
</svg>
