<svg width="206" height="40" viewBox="0 0 206 40" fill="none" xmlns="http://www.w3.org/2000/svg">
<path d="M177.846 37.504H175.556C175.531 37.6134 175.532 37.7271 175.559 37.8359C175.587 37.9446 175.64 38.0453 175.714 38.1295C175.788 38.2137 175.882 38.279 175.986 38.3202C176.09 38.3613 176.203 38.377 176.315 38.366C176.682 38.3543 177.039 38.2383 177.344 38.0315C177.423 38.1012 177.483 38.1895 177.519 38.2884C177.555 38.3873 177.565 38.4936 177.55 38.5976C177.125 38.8884 176.623 39.0453 176.109 39.0479C175.899 39.0591 175.689 39.0186 175.499 38.9301C175.308 38.8416 175.142 38.7076 175.015 38.5401C174.888 38.3725 174.804 38.1764 174.77 37.9688C174.737 37.7613 174.755 37.5487 174.822 37.3496C174.904 36.8773 175.145 36.4472 175.506 36.1312C175.867 35.8151 176.324 35.6322 176.804 35.6127C176.99 35.5923 177.179 35.6191 177.352 35.6907C177.526 35.7623 177.679 35.8764 177.796 36.0225C177.914 36.1685 177.993 36.3419 178.027 36.5266C178.06 36.7113 178.047 36.9014 177.987 37.0794C177.955 37.2365 177.912 37.3913 177.859 37.5426M177.241 37.028C177.318 36.642 177.241 36.256 176.675 36.2432C176.448 36.2515 176.229 36.3321 176.051 36.4733C175.873 36.6144 175.744 36.8088 175.684 37.028H177.241Z" fill="white"/>
<path d="M178.115 38.5976C178.213 38.372 178.379 38.1829 178.591 38.0573C178.845 38.2825 179.178 38.3982 179.517 38.3789C179.98 38.3789 180.173 38.2116 180.225 37.9929C180.276 37.7742 180.109 37.6455 179.543 37.5555C178.977 37.4654 178.488 37.2596 178.629 36.5777C178.732 36.2521 178.945 35.9724 179.231 35.7869C179.518 35.6014 179.86 35.5216 180.199 35.5613C180.608 35.5378 181.014 35.646 181.357 35.8701C181.28 36.0959 181.136 36.2933 180.945 36.4362C180.675 36.2677 180.363 36.1785 180.044 36.1788C179.633 36.1788 179.427 36.3204 179.388 36.5262C179.35 36.7321 179.466 36.835 180.006 36.9251C180.546 37.0151 181.151 37.2724 181.009 37.9157C180.916 38.265 180.699 38.5685 180.398 38.7696C180.097 38.9708 179.734 39.056 179.375 39.0093C179.144 39.0294 178.912 39.0033 178.691 38.9326C178.47 38.862 178.265 38.7481 178.089 38.5976" fill="white"/>
<path d="M188.562 37.504H186.272C186.245 37.6125 186.244 37.7261 186.269 37.8351C186.295 37.9441 186.347 38.0452 186.42 38.1298C186.494 38.2145 186.586 38.2802 186.69 38.3213C186.794 38.3624 186.907 38.3778 187.018 38.366C187.387 38.3564 187.744 38.2402 188.048 38.0315C188.127 38.0932 188.19 38.1738 188.23 38.2659C188.271 38.358 188.288 38.4588 188.279 38.559C187.855 38.8498 187.353 39.0067 186.838 39.0093C186.628 39.0205 186.419 38.98 186.228 38.8915C186.037 38.803 185.871 38.669 185.744 38.5015C185.617 38.3339 185.534 38.1378 185.5 37.9302C185.466 37.7227 185.484 37.5101 185.552 37.311C185.636 36.8376 185.88 36.4073 186.243 36.0914C186.606 35.7755 187.065 35.593 187.546 35.5741C187.732 35.5537 187.921 35.5805 188.095 35.6521C188.268 35.7237 188.421 35.8378 188.539 35.9839C188.657 36.1299 188.736 36.3033 188.769 36.488C188.803 36.6727 188.789 36.8628 188.73 37.0409C188.73 37.2081 188.652 37.3239 188.601 37.504M187.97 36.9894C188.061 36.6034 187.97 36.2174 187.417 36.2046C187.189 36.2088 186.968 36.2879 186.789 36.4297C186.61 36.5715 186.483 36.7681 186.427 36.9894H187.97Z" fill="white"/>
<path d="M76.4228 23.8019L74.9818 31.6629C72.7903 32.5875 70.4385 33.0727 68.06 33.091C63.8142 33.091 62.0516 31.3027 62.5791 28.4207C63.1066 25.5388 66.0014 23.8276 69.4752 23.8662C70.6587 23.8462 71.836 24.0424 72.949 24.4452L73.0905 23.6217C73.4122 21.8977 72.4472 20.8684 70.1443 20.8684C68.6378 20.9001 67.1691 21.3452 65.8985 22.155C65.5129 21.936 65.1978 21.6113 64.9904 21.2193C64.783 20.8273 64.6919 20.3842 64.7277 19.9421C66.5269 18.6223 68.6978 17.9062 70.9291 17.8964C74.7245 17.8964 77.2076 19.6076 76.4228 23.8533M69.1407 30.4664C70.1732 30.4605 71.1998 30.3089 72.1899 30.0161L72.756 26.9283C71.7513 26.5235 70.6738 26.3308 69.591 26.3622C67.9056 26.3622 66.6447 26.9283 66.4003 28.2921C66.1558 29.6558 67.0307 30.4664 69.1407 30.4664Z" fill="white"/>
<path d="M173.882 23.8019L172.403 31.6629C170.215 32.5862 167.868 33.0714 165.494 33.091C161.235 33.091 159.472 31.3027 160 28.4207C160.527 25.5388 163.435 23.8276 166.909 23.8662C168.086 23.8342 169.259 24.0174 170.37 24.4066L170.511 23.5831C170.833 21.8591 169.868 20.8298 167.565 20.8298C166.059 20.8615 164.59 21.3066 163.319 22.1164C162.934 21.8974 162.619 21.5727 162.411 21.1807C162.204 20.7887 162.113 20.3456 162.149 19.9035C163.948 18.5837 166.119 17.8676 168.35 17.8578C172.21 17.8578 174.628 19.569 173.844 23.8147M166.562 30.4278C167.594 30.4229 168.621 30.2713 169.611 29.9775L170.177 26.8897C169.172 26.4849 168.095 26.2922 167.012 26.3236C165.326 26.3236 164.078 26.8897 163.821 28.2534C163.564 29.6172 164.452 30.4278 166.562 30.4278Z" fill="white"/>
<path d="M93.0591 25.5002C93.4058 23.3566 94.5005 21.4051 96.1492 19.9919C97.7979 18.5788 99.8938 17.7954 102.065 17.7806C103.738 17.7118 105.372 18.298 106.62 19.4146C106.141 20.4548 105.343 21.3155 104.342 21.872C103.988 21.5188 103.566 21.241 103.102 21.0553C102.638 20.8696 102.141 20.7797 101.641 20.7912C100.375 20.8178 99.1628 21.3102 98.2371 22.1742C97.3113 23.0382 96.7366 24.2132 96.6229 25.4744C96.1598 27.9318 97.0733 30.119 99.9552 30.119C101.199 30.1191 102.404 29.6871 103.365 28.8967C103.771 29.1432 104.11 29.4856 104.352 29.894C104.594 30.3023 104.732 30.764 104.754 31.2383C103.216 32.4342 101.325 33.0858 99.3762 33.091C94.7831 33.091 92.2357 30.2991 93.1234 25.5002" fill="white"/>
<path d="M105.667 25.4744C106.033 23.3256 107.143 21.3741 108.804 19.9625C110.465 18.5509 112.57 17.7693 114.75 17.7549C119.189 17.7549 121.736 20.907 120.9 25.4744C120.515 27.6055 119.396 29.5344 117.736 30.9259C116.077 32.3173 113.982 33.0834 111.817 33.091C107.378 33.091 104.83 29.9646 105.667 25.4744ZM117.439 25.4744C117.954 22.7083 116.719 20.7913 114.145 20.7913C112.879 20.8178 111.668 21.3102 110.742 22.1742C109.816 23.0382 109.241 24.2132 109.128 25.4744C108.613 28.202 109.848 30.0804 112.434 30.0804C113.686 30.0529 114.885 29.5699 115.806 28.7221C116.727 27.8742 117.308 26.7196 117.439 25.4744Z" fill="white"/>
<path d="M135.4 31.3027C135.8 30.3156 136.508 29.4848 137.42 28.9354C138.574 29.9314 140.067 30.4431 141.589 30.3635C143.622 30.3635 144.497 29.6044 144.677 28.6266C144.857 27.6488 144.136 27.1084 141.627 26.7096C139.119 26.3107 136.893 25.423 137.446 22.348C137.948 19.6719 140.675 17.845 144.316 17.845C146.139 17.7334 147.948 18.2263 149.463 19.2473C149.167 20.237 148.551 21.101 147.713 21.7047C146.501 20.9673 145.105 20.5881 143.686 20.6111C141.872 20.6111 140.971 21.1901 140.804 22.1036C140.637 23.0171 141.177 23.4931 143.57 23.8919C146.607 24.3808 148.717 25.4358 148.163 28.2921C147.61 31.1483 144.973 33.1168 141.023 33.1168C138.982 33.2815 136.96 32.629 135.4 31.3027Z" fill="white"/>
<path d="M190.415 25.4744C190.782 23.3234 191.894 21.3703 193.558 19.9584C195.222 18.5466 197.33 17.7663 199.512 17.7549C203.95 17.7549 206.485 20.907 205.661 25.4744C205.274 27.6044 204.154 29.5319 202.495 30.9229C200.836 32.3139 198.743 33.0809 196.578 33.091C192.139 33.091 189.592 29.9646 190.415 25.4744ZM202.201 25.4744C202.702 22.7083 201.48 20.7913 198.907 20.7913C197.644 20.8312 196.438 21.3278 195.513 22.1889C194.588 23.0501 194.006 24.2173 193.876 25.4744C193.375 28.202 194.61 30.0804 197.196 30.0804C198.447 30.0529 199.646 29.5699 200.567 28.7221C201.489 27.8742 202.069 26.7196 202.201 25.4744Z" fill="white"/>
<path d="M187.611 14.0624L186.826 18.3339C185.921 18.0017 184.959 17.8487 183.996 17.8836C181.791 17.8714 179.652 18.6397 177.959 20.0525C176.266 21.4653 175.128 23.4315 174.745 25.6031C173.845 30.4535 176.572 33.1296 181.307 33.1296C183.564 33.1018 185.79 32.6022 187.843 31.6629L191.265 13.0589L187.611 14.0624ZM184.742 29.5915C183.801 29.9235 182.806 30.0762 181.808 30.0418C179.235 30.0418 177.73 28.2921 178.245 25.4616C178.441 24.1908 179.083 23.0315 180.057 22.192C181.031 21.3524 182.272 20.8877 183.558 20.8813C184.494 20.8091 185.429 21.0294 186.234 21.5117L184.742 29.5915Z" fill="white"/>
<path d="M160.824 18.4625H155.446L156.141 14.7186L152.564 15.7092L150.261 28.202C149.618 31.6629 151.638 33.0653 154.738 33.0653C156.397 33.0533 158.007 32.5074 159.332 31.5085C159.359 31.0581 159.282 30.6074 159.106 30.1921C158.929 29.7767 158.659 29.4081 158.315 29.1155C157.58 29.6997 156.68 30.0373 155.742 30.0804C154.314 30.0804 153.413 29.54 153.799 27.4172L154.931 21.2544H160.309C160.504 20.7968 160.642 20.3172 160.721 19.8263C160.819 19.3787 160.853 18.9197 160.824 18.4625Z" fill="white"/>
<path d="M174.719 34.4033L173.831 38.6877C173.37 38.896 172.87 39.0056 172.364 39.0093C171.296 39.0093 170.692 38.4046 170.923 37.311C171.022 36.8219 171.288 36.3823 171.675 36.0677C172.062 35.7531 172.547 35.5831 173.046 35.587C173.261 35.5733 173.477 35.6085 173.676 35.6899L173.947 34.4033C174.203 34.369 174.462 34.369 174.719 34.4033ZM173.149 38.2631L173.535 36.4362C173.353 36.3278 173.142 36.2784 172.93 36.2946C172.64 36.3033 172.362 36.4097 172.14 36.5965C171.918 36.7834 171.766 37.0397 171.708 37.3239C171.579 37.9672 171.901 38.366 172.493 38.366C172.715 38.3633 172.936 38.3286 173.149 38.2631Z" fill="white"/>
<path d="M185.435 34.4033L184.548 38.6877C184.082 38.8959 183.578 39.0055 183.068 39.0093C182.013 39.0093 181.408 38.4046 181.64 37.311C181.739 36.8219 182.004 36.3823 182.392 36.0677C182.779 35.7531 183.264 35.5831 183.763 35.587C183.978 35.5746 184.193 35.6097 184.393 35.6899L184.663 34.4033C184.792 34.3905 184.921 34.3905 185.049 34.4033C185.178 34.3909 185.307 34.3909 185.435 34.4033ZM183.866 38.2631L184.239 36.4361C184.062 36.3264 183.854 36.2767 183.647 36.2946C183.346 36.2886 183.052 36.3882 182.817 36.5763C182.582 36.7644 182.421 37.0289 182.361 37.3239C182.232 37.9672 182.553 38.366 183.132 38.366C183.359 38.3643 183.585 38.3296 183.801 38.2631" fill="white"/>
<path d="M192.988 34.4548L192.061 38.9064C191.933 38.919 191.804 38.919 191.675 38.9064C191.551 38.919 191.426 38.919 191.302 38.9064L192.035 35.4069L191.173 35.7671C191.103 35.6725 191.052 35.5641 191.026 35.4489C190.999 35.3337 190.997 35.2142 191.019 35.0981L192.434 34.4548H192.717H192.988Z" fill="white"/>
<path d="M196.295 37.6713C196.187 38.0722 195.941 38.4217 195.599 38.6574C195.257 38.8931 194.843 38.9996 194.43 38.9579C193.632 38.9579 192.937 38.6619 193.143 37.7742C193.213 37.5057 193.335 37.2538 193.503 37.0329C193.671 36.8121 193.881 36.6267 194.121 36.4876C193.961 36.3844 193.838 36.2324 193.77 36.054C193.703 35.8756 193.695 35.6802 193.748 35.4969C193.827 35.1158 194.041 34.7761 194.351 34.5399C194.66 34.3036 195.045 34.1867 195.433 34.2104C196.308 34.2104 196.72 34.6735 196.63 35.3811C196.502 35.8261 196.207 36.2043 195.806 36.4361C196 36.5323 196.156 36.6918 196.247 36.8883C196.338 37.0848 196.36 37.3065 196.308 37.5169M195.549 37.6069C195.639 37.2081 195.266 37.028 194.816 36.8221L194.61 36.7192C194.274 36.916 194.025 37.2334 193.915 37.6069C193.825 38.083 194.159 38.2374 194.597 38.2374C195.034 38.2374 195.459 38.083 195.549 37.6069ZM194.494 35.3683C194.417 35.7414 194.726 35.9086 195.112 36.0888L195.279 36.166C195.427 36.0929 195.558 35.9901 195.664 35.8638C195.77 35.7376 195.85 35.5908 195.896 35.4326C195.974 35.0338 195.703 34.8408 195.305 34.8408C195.129 34.8208 194.952 34.8625 194.804 34.9587C194.656 35.055 194.547 35.1998 194.494 35.3683Z" fill="white"/>
<path d="M196.758 38.5976C196.861 38.3468 197.041 38.1352 197.272 37.9929C197.497 38.2205 197.802 38.35 198.122 38.3532C198.373 38.3757 198.623 38.3018 198.821 38.1464C199.019 37.9911 199.151 37.766 199.189 37.5169C199.292 37.028 199.061 36.7321 198.456 36.7321C198.057 36.7321 197.736 36.8993 197.44 36.8993C197.377 36.9183 197.31 36.9183 197.247 36.8993L197.736 34.5449H200.309C200.321 34.6689 200.321 34.7939 200.309 34.918C200.28 35.0355 200.246 35.1514 200.206 35.2654H198.302L198.122 36.1788C198.307 36.1092 198.503 36.0744 198.701 36.0759C199.768 36.0759 200.18 36.6163 199.987 37.5169C199.903 37.9803 199.649 38.3959 199.276 38.6834C198.903 38.9709 198.437 39.11 197.967 39.0737C197.748 39.0861 197.53 39.0537 197.324 38.9785C197.118 38.9033 196.93 38.7868 196.771 38.6362" fill="white"/>
<path d="M200.361 38.5976C200.464 38.3468 200.644 38.1352 200.876 37.9929C200.986 38.1068 201.118 38.1973 201.264 38.2592C201.409 38.3211 201.566 38.353 201.725 38.3532C201.976 38.3757 202.226 38.3018 202.424 38.1464C202.623 37.9911 202.754 37.766 202.793 37.5169C202.895 37.028 202.664 36.7321 202.059 36.7321C201.66 36.7321 201.339 36.8993 201.043 36.8993C200.98 36.9199 200.912 36.9199 200.85 36.8993L201.326 34.5449H203.899C203.901 34.7934 203.848 35.0394 203.745 35.2654H201.853L201.66 36.1788C201.85 36.1107 202.05 36.0759 202.252 36.0759C203.32 36.0759 203.732 36.6163 203.539 37.5169C203.454 37.9803 203.201 38.3959 202.828 38.6834C202.455 38.9709 201.988 39.11 201.519 39.0737C201.3 39.0861 201.081 39.0537 200.875 38.9785C200.67 38.9033 200.481 38.7868 200.322 38.6362" fill="white"/>
<path d="M137.665 13.1489H123.885L124.58 15.349C124.592 15.4644 124.592 15.5809 124.58 15.6964C124.58 15.7607 124.58 15.8122 124.58 15.8765L121.492 32.6021H134.242C134.475 32.0888 134.644 31.5486 134.744 30.9939C134.821 30.4994 134.821 29.996 134.744 29.5014H125.532L126.51 24.1621H134.564C134.786 23.6732 134.962 23.165 135.091 22.6439C135.183 22.1348 135.218 21.6169 135.194 21.1H127.089L127.977 16.2753H136.983C137.195 15.7755 137.35 15.2532 137.446 14.7186C137.547 14.2018 137.586 13.6749 137.562 13.1489" fill="white"/>
<path d="M86.3942 17.8192C85.0845 17.8259 83.7834 18.0298 82.5344 18.4239C82.4411 18.4434 82.3447 18.4434 82.2514 18.4239C82.1495 18.4444 82.0445 18.4444 81.9426 18.4239L79.5238 17.7034L79.0864 20.0965L76.7705 32.6407C77.3218 32.7448 77.8822 32.7922 78.4431 32.7822C79.0338 32.793 79.6242 32.7456 80.2057 32.6407L82.1999 21.7691C83.2385 21.2486 84.3834 20.9756 85.545 20.9714C87.758 20.9714 88.8516 21.9749 88.3627 24.6253L86.8831 32.6407C87.4429 32.7453 88.012 32.7927 88.5814 32.7822C89.1721 32.7907 89.7622 32.7433 90.344 32.6407L91.978 23.8019C92.5827 20.4953 91.0388 17.8192 86.3942 17.8192Z" fill="white"/>
<path d="M62.4002 18.3081C63.0306 14.873 61.1136 12.9302 55.9673 12.9302H55.8515H48.6466L49.4443 15.2718C49.464 15.3954 49.464 15.5213 49.4443 15.6449C49.4577 15.7258 49.4577 15.8084 49.4443 15.8894L46.3564 32.615C48.3292 32.9782 50.3335 33.142 52.3391 33.1039C57.8457 33.1039 60.9077 30.8266 61.5896 27.1213C61.7391 26.6593 61.7953 26.1722 61.755 25.6883C61.7146 25.2045 61.5786 24.7334 61.3548 24.3025C61.131 23.8716 60.8238 23.4895 60.4511 23.1783C60.0784 22.867 59.6476 22.6329 59.1837 22.4895C60.0392 22.1336 60.787 21.5608 61.3534 20.8274C61.9197 20.0941 62.285 19.2258 62.4131 18.3081M58.2059 27.0183C57.8071 29.2055 56.2889 30.1833 53.0596 30.1833C52.1481 30.1851 51.2374 30.1335 50.332 30.029L51.4256 24.1106H54.6935C57.2667 24.1106 58.5533 25.0756 58.193 27.0183M59.0293 18.3725C58.6948 20.1866 57.5112 21.2287 54.9508 21.2287H51.966L52.9566 15.8508C53.9087 15.7607 54.8222 15.7221 55.7099 15.7221C58.2831 15.7221 59.351 16.6999 59.0422 18.3725" fill="white"/>
<path d="M40 0H0V40H40V0Z" fill="white"/>
<path d="M0.952148 20.1094L14.5256 14.1525V9.84239C18.7848 9.17944 22.665 7.0111 25.4616 3.7311L39.048 14.8215V0.952072H0.952148V20.1094Z" fill="#D70032"/>
<path d="M14.5514 32.6922H25.4616V3.74397C22.6661 7.01653 18.7912 9.17991 14.5385 9.8424V14.1525L0.952148 20.1094V24.368L14.5385 18.4111V14.1525L18.9 12.2483V16.4683L14.5514 18.3982V22.5667L18.9129 20.6626V24.8183L14.5514 26.7353V22.5667L0.952148 28.5236V32.6922L14.5514 26.7353V32.6922Z" fill="white"/>
<path d="M14.5514 22.5667V18.3982L14.5385 18.4111L0.952148 24.368V28.5365L14.5514 22.5667Z" fill="#EE801D"/>
<path d="M14.5514 26.7353L0.952148 32.6922H14.5514V26.7353Z" fill="#EE801D"/>
<path d="M14.551 18.3982L18.8996 16.5069V12.2998L14.5381 14.2168V18.4111L14.551 18.3982Z" fill="#EE801D"/>
<path d="M14.551 18.3982L14.5381 18.4111L14.551 18.3982Z" fill="#FF6B00"/>
<path d="M14.5508 22.5667V26.7353L18.9123 24.8183V20.6626L14.5508 22.5667Z" fill="#EE801D"/>
<path d="M25.4748 32.6922H39.0483V14.8344L25.4619 3.74397L25.4748 32.6922Z" fill="#EE801D"/>
<path d="M25.4619 32.6922H25.4748L25.4619 3.74397V32.6922Z" fill="#FF6B00"/>
<path d="M25.4745 32.6922H25.4616H14.5514H0.952148V39.0351H39.048V32.6922H25.4745Z" fill="#0257A0"/>
</svg>
