<svg width="386" height="40" viewBox="0 0 386 40" fill="none" xmlns="http://www.w3.org/2000/svg">
<path d="M242.914 0.866811H206.136V6.33411H242.914V0.866811ZM242.914 11.8002H206.136V17.2675H242.914V11.8002ZM242.914 22.7123H206.136V28.1796H242.914V22.7123ZM242.914 33.6469H206.136V39.1131H242.914V33.6469ZM276.282 31.8103C279.022 31.8103 281.031 29.7842 281.031 27.1447C281.031 24.5703 279.083 22.6496 276.241 22.6496H269.28V31.8103H276.282ZM274.577 16.1272C276.89 16.1272 278.535 14.4172 278.535 12.075C278.535 9.81675 276.89 8.12813 274.638 8.12813H269.26V16.1272H274.577ZM261.303 0.866811H275.917C281.782 0.866811 286.41 4.98298 286.41 10.6397C286.41 14.3119 284.664 17.2249 281.722 18.3226C286.572 19.2096 289.11 23.0297 289.11 27.8208C289.11 34.3006 284.36 39.1131 277.927 39.1131H261.303V0.866811ZM306.707 0.866811H298.588V39.0917H306.707V0.866811ZM336.158 0.275911C342.125 0.275911 347.403 3.01963 351.036 7.41052L345.494 12.2857C343.181 9.60478 339.851 7.95879 336.158 7.95879C329.623 7.95879 324.507 13.1099 324.507 20.0326C324.507 26.9339 329.623 32.0424 336.158 32.0424C339.851 32.0424 343.222 30.3964 345.556 27.6515L351.096 32.5279C347.463 36.9602 342.125 39.704 336.158 39.704C325.239 39.704 316.368 31.4302 316.368 20.0113C316.368 8.61364 325.239 0.275911 336.158 0.275911ZM359.621 0.866811H384.729V8.54969H367.76V15.7471H383.632V23.2618H367.76V31.4302H385.114V39.1131H359.621V0.866811ZM12.2798 36.6441C16.9075 36.6441 20.4186 33.0347 20.4186 28.2637C20.4186 23.4939 16.9679 19.9473 12.0773 19.9473H2.7603V36.6441H12.281H12.2798ZM10.8399 17.309C14.8187 17.309 17.7412 14.3758 17.7412 10.3863C17.7412 6.33411 14.8791 3.3358 10.8801 3.3358H2.7603V17.309H10.8399ZM0 0.677344H11.0424C16.4007 0.677344 20.5003 4.66562 20.5003 10.2809C20.5003 14.0584 18.6933 17.2036 15.4463 18.3214C20.1758 18.9976 23.1588 23.1978 23.1588 28.3063C23.1588 34.5753 18.531 39.3452 12.4219 39.3452H0V0.677344ZM54.2538 26.1109L46.0748 5.10968L37.8946 26.1322H54.2538V26.1109ZM44.9984 0.677344H47.1701L62.4127 39.3238H59.4286L55.2888 28.7919H36.7992L32.7186 39.325H29.7345L44.9996 0.677344H44.9984ZM72.0542 0.677344H74.4498L98.0349 34.1111V0.677344H100.794V39.3238H98.5216L74.8145 5.65795V39.3238H72.0554L72.0542 0.677344ZM130.449 0.00118419C136.132 0.00118419 141.124 2.45004 144.575 6.48095L142.708 8.31759C139.785 4.77101 135.482 2.66083 130.428 2.66083C121.031 2.66083 114.008 10.0903 114.008 20.0113C114.008 29.8896 121.031 37.319 130.428 37.319C135.482 37.319 139.887 35.1449 142.749 31.5569L144.657 33.3923C141.206 37.5511 136.112 40 130.408 40C119.732 40 111.228 31.4503 111.228 20.0326C111.268 8.54969 119.711 0 130.449 0V0.00118419ZM171.266 37.2563C180.622 37.2563 187.584 29.8256 187.584 20.0113C187.584 10.1957 180.522 2.70345 171.266 2.70345C161.969 2.70345 154.845 10.1957 154.845 20.0113C154.845 29.8256 161.848 37.2563 171.266 37.2563ZM171.266 0.00236834C181.901 0.00236834 190.386 8.54969 190.386 20.0113C190.386 31.4929 181.881 39.9787 171.266 39.9787C160.59 39.9787 152.147 31.4929 152.147 20.0113C152.125 8.54969 160.57 0 171.266 0V0.00236834Z" fill="white"/>
</svg>
