<svg width="87" height="40" viewBox="0 0 87 40" fill="none" xmlns="http://www.w3.org/2000/svg">
<path d="M81.0996 8.56038C81.0996 6.96175 82.3651 5.62956 83.8836 5.62956C85.4201 5.62956 86.6856 6.94273 86.6675 8.56038C86.6675 10.159 85.4021 11.4912 83.8836 11.4912C82.3651 11.4912 81.0996 10.159 81.0996 8.56038Z" fill="white"/>
<path d="M75.4407 21.4066C73.9764 19.865 72.5844 19.1799 70.8851 19.1799C67.6312 19.1799 65.0643 22.0155 65.0823 25.6315V25.6886C65.0823 29.2855 67.7216 32.2163 70.9575 32.2163C72.494 32.2163 73.8137 31.6263 75.1333 30.3322L78.7488 34.0053C76.5072 36.327 73.9583 37.469 70.9032 37.469C64.8835 37.469 59.9844 32.1973 59.9844 25.7457V25.6886C59.9844 19.2179 64.8834 13.9652 70.9393 13.9652C74.7899 13.9652 77.2303 15.7732 78.9296 17.5432L75.4407 21.4066Z" fill="white"/>
<path fill-rule="evenodd" clip-rule="evenodd" d="M57.2905 15.6782C57.2905 17.6764 56.6217 19.6936 55.1755 21.2352C57.2544 22.7578 58.1763 25.3461 58.1583 27.9914C58.1583 33.0157 55.5913 36.9932 48.1433 36.9932H38.0742V7.17111H47.9626C54.9404 7.17111 57.2905 11.0154 57.2905 15.6782ZM48.071 12.4618H43.154V18.9515H48.3784C51.1261 18.9515 51.7769 17.2576 51.7769 15.6782C51.7769 14.0414 51.2346 12.4618 48.071 12.4618ZM43.1721 31.7215H48.3061C51.9396 31.7215 52.6808 29.8755 52.7169 28.0105C52.7169 25.4411 51.5418 24.2422 48.3964 24.2422H43.1721V31.7215Z" fill="white"/>
<path d="M81.3701 13.9272H86.4499V37.0122H81.3701V13.9272Z" fill="white"/>
<path d="M0.00543025 35.9627C0.0693573 37.9431 1.47575 39.6312 3.35094 39.9462C3.60666 39.9912 3.86237 40.0137 4.11808 39.9912C5.18352 39.9462 6.16373 39.4736 6.86693 38.6634C7.59144 37.8531 7.9537 36.7729 7.91107 35.6701C7.91107 32.6543 9.55187 30.6063 11.7893 28.2883C14.1334 26.4653 17.4788 24.2373 22.1882 21.4691C28.0481 18.1832 31.8625 14.2898 32.6934 11.1165L32.7147 11.0264C32.8213 10.6213 32.8639 10.2162 32.8426 9.81112C32.7787 7.83062 31.3723 6.1427 29.4971 5.82762C29.2414 5.7826 28.9857 5.7601 28.7299 5.7826C27.6646 5.82762 26.6843 6.30024 25.9811 7.11045C25.2566 7.92065 24.8943 9.00092 24.937 10.1037C24.937 13.277 23.1257 15.3926 20.6752 17.8456C15.4544 22.1442 10.6386 24.3047 10.6386 24.3047C4.77865 27.5906 0.964337 31.4841 0.133284 34.6574L0.111975 34.7474C0.0267392 35.175 -0.0158787 35.5801 0.00543025 35.9627Z" fill="white"/>
<path d="M23.6154 23.2695C23.6154 23.2695 27.8771 24.4623 26.5347 30.7865C26.4707 31.1239 26.4282 31.4615 26.4707 31.8217C26.6199 33.6897 28.1755 35.0625 29.9442 34.905C31.7127 34.7474 33.0126 33.1045 32.8635 31.2365C32.5651 26.8479 24.7234 21.4691 23.6579 21.604C23.6579 21.604 23.04 21.6266 23.04 22.4594C23.04 23.1344 23.6154 23.2695 23.6154 23.2695Z" fill="white"/>
<path d="M22.905 25.0641C22.905 25.0641 25.6965 25.8518 24.8228 29.9703C24.8228 29.9703 23.9065 33.8638 18.004 34.8765C11.3342 36.0467 11.4407 33.4586 11.4407 33.4586C11.3768 32.1758 10.9293 30.623 17.5565 26.3919C17.5565 26.3919 20.902 24.2314 22.905 25.0641Z" fill="white"/>
<path d="M6.2066 6.21027C6.59016 11.8367 14.2187 18.5659 18.7789 21.1766C20.0149 21.8967 21.5492 21.7391 21.9966 21.5591C24.0849 20.5463 21.8474 19.6911 21.8474 19.6911C21.8474 19.6911 14.6663 17.6656 16.9037 6.99796C17.0315 6.43532 17.0742 5.85017 17.0315 5.24252C16.7758 2.09172 14.1549 -0.248858 11.1716 0.0212096C8.16703 0.291278 5.95089 3.05947 6.2066 6.21027Z" fill="white"/>
</svg>
