<svg width="208" height="40" viewBox="0 0 208 40" fill="none" xmlns="http://www.w3.org/2000/svg">
<path d="M77.4171 9.86916C71.5348 9.86916 66.7475 14.531 66.7475 20.2616C66.7475 25.9922 71.5348 30.7525 77.4171 30.7525C83.2993 30.7525 88.0547 26.0472 88.0547 20.2616C88.0547 14.476 83.2811 9.86916 77.4171 9.86916ZM83.1574 20.2616C83.1574 23.6853 80.6353 26.3676 77.4171 26.3676C74.1988 26.3676 71.6424 23.6853 71.6424 20.2616C71.6424 16.8379 74.1781 14.2541 77.4171 14.2541C80.656 14.2541 83.1574 16.8929 83.1574 20.2616ZM136.462 9.86916C130.58 9.86916 125.792 14.531 125.792 20.2616C125.792 25.9922 130.58 30.7525 136.462 30.7525C142.344 30.7525 147.099 26.0472 147.099 20.2616C147.099 14.476 142.326 9.86916 136.462 9.86916ZM142.204 20.2616C142.204 23.6853 139.682 26.3676 136.464 26.3676C133.246 26.3676 130.69 23.6853 130.69 20.2616C130.69 16.8379 133.225 14.2541 136.464 14.2541C139.703 14.2541 142.204 16.8929 142.204 20.2616ZM197.362 9.86916C191.479 9.86916 186.692 14.531 186.692 20.2616C186.692 25.9922 191.479 30.7525 197.362 30.7525C203.244 30.7525 208 26.0472 208 20.2616C208 14.476 203.225 9.86916 197.362 9.86916ZM203.105 20.2616C203.105 23.6853 200.583 26.3676 197.364 26.3676C194.146 26.3676 191.589 23.6853 191.589 20.2616C191.589 16.8379 194.125 14.2541 197.364 14.2541C200.603 14.2541 203.105 16.8929 203.105 20.2616ZM65.2104 25.0699C65.325 25.1408 65.3938 25.2644 65.3938 25.3994V29.1894C65.3938 29.3679 65.2907 29.5304 65.1257 29.6036C64.8325 29.7363 64.2645 29.979 63.7835 30.1277C62.4411 30.5442 60.9362 30.7548 59.3168 30.7548C53.3681 30.7548 48.883 26.1433 48.883 20.2959C48.883 14.4485 53.5697 9.87148 59.5527 9.87148C61.7838 9.87148 63.5039 10.2467 65.1303 11.0912C65.293 11.1759 65.3868 11.3475 65.3731 11.5307L65.0799 15.2427C65.0708 15.3777 64.9906 15.4945 64.8715 15.5563C64.7525 15.6181 64.6127 15.6135 64.4981 15.5472C63.0596 14.6936 61.5089 14.2587 59.8895 14.2587C56.3482 14.2587 53.7782 16.7212 53.7782 20.2982C53.7782 23.8753 56.3046 26.3722 59.9238 26.3722C61.3554 26.3722 62.5762 26.0998 63.9987 25.4612C64.1774 25.3812 64.5532 25.1982 64.8349 25.0562C64.9562 24.9967 65.096 25.0035 65.2104 25.0746V25.0699ZM176.955 25.0699C177.069 25.1408 177.139 25.2644 177.139 25.3994V29.1894C177.139 29.3679 177.035 29.5304 176.87 29.6036C176.578 29.7363 176.009 29.979 175.528 30.1277C174.186 30.5442 172.681 30.7548 171.061 30.7548C165.113 30.7548 160.627 26.1433 160.627 20.2959C160.627 14.4485 165.314 9.87148 171.297 9.87148C173.529 9.87148 175.248 10.2467 176.874 11.0912C177.037 11.1759 177.131 11.3475 177.117 11.5307L176.825 15.2427C176.816 15.3777 176.735 15.4945 176.616 15.5563C176.497 15.6181 176.356 15.6135 176.242 15.5472C174.804 14.6936 173.253 14.2587 171.634 14.2587C168.092 14.2587 165.523 16.7212 165.523 20.2982C165.523 23.8753 168.049 26.3722 171.668 26.3722C173.1 26.3722 174.32 26.0998 175.743 25.4612C175.922 25.3812 176.298 25.1982 176.579 25.0562C176.701 24.9967 176.84 25.0035 176.955 25.0746V25.0699ZM100.82 9.87148C105.598 9.87148 108.45 13.2265 108.45 18.845V29.9309C108.45 30.107 108.308 30.249 108.132 30.249H103.977C103.8 30.249 103.658 30.107 103.658 29.9309V19.3165C103.658 16.1467 102.13 14.2541 99.5695 14.2541C96.7772 14.2541 95.1119 16.1834 95.1119 19.4171V29.9286C95.1119 30.1049 94.97 30.2467 94.7936 30.2467H90.6361C90.4597 30.2467 90.3178 30.1049 90.3178 29.9286V10.693C90.3178 10.5169 90.4597 10.3749 90.6361 10.3749H94.624C94.8004 10.3749 94.9425 10.5169 94.9425 10.693V12.3065C96.3694 10.7319 98.4493 9.86684 100.82 9.86684V9.87148ZM122.86 20.8131C123.937 21.9323 124.459 23.1864 124.459 24.6442C124.459 26.4911 123.678 28.0474 122.198 29.1391C120.771 30.194 118.774 30.7501 116.424 30.7501C114.701 30.7501 111.76 29.9675 111.187 29.8118C111.05 29.7752 110.954 29.6472 110.954 29.5052V25.9418C110.954 25.8412 111 25.7473 111.08 25.6855C111.16 25.6237 111.263 25.6077 111.359 25.6352C112.136 25.8618 114.768 26.6033 116.117 26.6033C119.2 26.6033 119.596 25.6123 119.596 24.7472C119.596 23.5984 118.139 22.8454 116.451 21.9757C114.06 20.7422 111.084 19.1951 111.084 15.7394C111.084 12.2837 114.14 9.86916 118.513 9.86916C120.572 9.86916 122.157 10.1621 123.502 10.7937C123.621 10.8487 123.694 10.9746 123.685 11.1073L123.417 14.483C123.408 14.5837 123.355 14.6728 123.268 14.7278C123.181 14.7827 123.076 14.792 122.982 14.753C121.791 14.2792 120.322 14.0183 118.849 14.0183C116.955 14.0183 115.911 14.6157 115.911 15.5701C115.911 16.5243 117.294 17.2704 118.897 18.1309C120.228 18.8473 121.738 19.6574 122.853 20.8154H122.856L122.86 20.8131ZM180.265 10.3749H184.42C184.596 10.3749 184.738 10.5169 184.738 10.693V29.9286C184.738 30.1049 184.596 30.2467 184.42 30.2467H180.265C180.089 30.2467 179.947 30.1049 179.947 29.9286V10.693C179.947 10.5169 180.089 10.3749 180.265 10.3749ZM160.105 10.0042C160.198 10.0042 160.281 10.0408 160.341 10.1049C160.403 10.1713 160.433 10.2583 160.428 10.3474L160.117 14.4005C160.109 14.4875 160.069 14.5676 160.003 14.6225C159.933 14.6775 159.848 14.7027 159.765 14.6912C159.395 14.6477 159.049 14.6248 158.74 14.6248C156.601 14.6248 154.314 15.8583 154.314 19.3142V29.9286C154.314 30.1049 154.172 30.2467 153.996 30.2467H149.841C149.665 30.2467 149.523 30.1049 149.523 29.9286V10.693C149.523 10.5169 149.665 10.3749 149.841 10.3749H153.829C154.005 10.3749 154.147 10.5169 154.147 10.693V12.3912C155.565 10.8601 157.622 10.0362 160.109 10.0042H160.105ZM35.7443 0.000859288C36.0741 -0.0175238 36.342 0.261621 36.3168 0.59128L33.236 39.1447C33.2063 39.5201 32.8168 39.7535 32.4709 39.6047C30.714 38.8357 28.9343 38.1446 27.2278 37.6594C26.9759 37.5885 26.8086 37.3504 26.8292 37.0895L29.1657 8.0772C29.1931 7.74306 28.9183 7.4616 28.5839 7.48678C22.4222 7.9238 16.9316 9.77755 12.3595 12.5719C12.1877 12.6773 11.9656 12.5719 11.9427 12.3728L11.7892 11.0616C11.7571 10.7869 11.8487 10.5123 12.0457 10.3155C17.3049 5.03797 25.9703 0.552351 35.742 0.00302199L35.7443 0.000859288ZM7.04536 20.1403C7.01099 19.8451 7.12095 19.5499 7.34314 19.3531C11.7159 15.4945 17.8524 12.3156 24.3417 11.1004C24.699 11.0341 25.0242 11.3202 24.9945 11.6817L24.6624 15.7897C24.6486 15.966 24.5089 16.1055 24.3325 16.1239C17.6692 16.767 12.0526 18.9617 7.64779 21.8614C7.476 21.9735 7.24693 21.8682 7.22402 21.6646L7.04765 20.138L7.04536 20.1403ZM24.3028 20.2525L23.8881 25.3789C23.8722 25.5711 23.7095 25.7177 23.5147 25.713C16.7758 25.5596 9.56731 27.4959 4.08819 30.7114C3.9164 30.8119 3.70108 30.7044 3.67818 30.5076L3.46973 28.7088C3.43308 28.4044 3.5522 28.0977 3.79042 27.9032C9.01527 23.6053 16.856 20.1128 23.7163 19.6598C24.0507 19.6369 24.3301 19.916 24.3028 20.2502V20.2525ZM23.4964 30.2054L23.004 36.3114C22.9879 36.5196 22.8001 36.6684 22.594 36.6434C15.287 35.737 7.27671 36.8584 0.636265 39.9732C0.466762 40.0534 0.269771 39.9457 0.246865 39.758L0.00635177 37.696C-0.0325881 37.3665 0.109429 37.0415 0.37972 36.847C6.43148 32.5421 13.7431 29.5464 22.9536 29.615C23.2696 29.6173 23.517 29.892 23.4918 30.2054H23.4964Z" fill="white"/>
</svg>
