<svg width="40" height="40" viewBox="0 0 40 40" fill="none" xmlns="http://www.w3.org/2000/svg">
<path d="M17.3929 0.0252897C16.2412 0.0526682 15.3964 0.0931515 13.8476 0.188642C13.1313 0.231379 12.3493 0.294316 11.7987 0.349407C11.6604 0.364432 11.3713 0.392144 11.1576 0.412344C10.26 0.500406 8.92743 0.668599 8.36693 0.764173C8.24857 0.784373 8.07511 0.812086 7.97729 0.82711C7.88171 0.839798 7.7106 0.869764 7.6 0.890047C7.48948 0.910247 7.30334 0.945472 7.18531 0.965338C6.77021 1.03579 6.06397 1.17919 5.66423 1.27476C5.55338 1.30248 5.3548 1.35005 5.22408 1.38044C5.09329 1.4104 4.97534 1.43812 4.96032 1.4407C4.22335 1.61649 3.49173 1.97124 2.92864 2.43125C2.38048 2.87632 1.89043 3.59534 1.64394 4.30935C1.60387 4.41994 1.56339 4.53305 1.55104 4.56076C1.5083 4.65633 1.32216 5.46066 1.18877 6.11966C1.16891 6.23018 1.13368 6.39353 1.11348 6.48418C1.0932 6.57449 1.0659 6.73292 1.04821 6.83601C1.03293 6.93901 1.01298 7.06488 1.0003 7.11246C0.962483 7.25603 0.809231 8.2364 0.711069 8.9479C0.615578 9.63687 0.552641 10.1374 0.497551 10.645C0.469838 10.8938 0.442126 11.1377 0.437201 11.1856C0.429689 11.2332 0.406901 11.4772 0.384364 11.7262C0.364164 11.975 0.334198 12.2792 0.31884 12.4051C0.266003 12.8674 0.135204 14.8815 0.0700967 16.3021C0.0198472 17.3552 -0.0127899 19.6106 0.00482245 20.8402C0.0224348 22.3737 0.0599132 23.7441 0.0951378 24.2217C0.107909 24.4151 0.13295 24.8227 0.147975 25.1269C0.163 25.431 0.1832 25.8207 0.195887 25.9941C0.253649 26.8641 0.298974 27.4347 0.321427 27.6156C0.334198 27.7265 0.364164 28.0206 0.384364 28.2668C0.404564 28.5133 0.434614 28.8074 0.447301 28.9205C0.462326 29.0337 0.490038 29.2775 0.509904 29.4638C0.572841 30.0595 0.620753 30.4491 0.660903 30.7083C0.681103 30.8466 0.716328 31.0829 0.736194 31.2362C0.809231 31.7892 0.894621 32.3272 0.987608 32.8202C1.00781 32.9307 1.04044 33.117 1.06323 33.235C1.10597 33.4863 1.20405 33.9868 1.2745 34.3034C1.51573 35.4124 1.6214 35.744 1.90545 36.2898C1.98333 36.4404 2.08383 36.6165 2.12915 36.6794C2.17181 36.7423 2.23475 36.8327 2.26738 36.8806C2.41078 37.0942 2.82071 37.5115 3.047 37.6726C3.08448 37.7 3.15751 37.7528 3.20509 37.7907C3.25568 37.8307 3.30325 37.861 3.31594 37.861C3.32604 37.861 3.35117 37.8786 3.37103 37.8989C3.46919 37.9944 4.16075 38.3238 4.45715 38.4118C4.51258 38.4294 4.58044 38.4518 4.60815 38.4646C4.67368 38.4946 5.04304 38.5875 5.48819 38.6883C5.68184 38.7336 5.88041 38.7812 5.92808 38.7939C6.04377 38.8239 6.7728 38.9697 7.32354 39.0704C7.64015 39.1281 8.25641 39.2263 8.64338 39.2817C8.78921 39.3016 8.97535 39.3293 9.05823 39.3443C9.3624 39.3971 10.6196 39.5432 11.409 39.6185C11.6931 39.6462 12.0426 39.6788 12.1883 39.6938C12.4247 39.7189 12.666 39.7391 13.8225 39.822C13.9959 39.8347 14.3908 39.8572 14.7025 39.8725C15.0143 39.8875 15.4493 39.9101 15.6706 39.9227C17.4607 40.0258 22.5795 40.0258 24.3444 39.9227C24.5658 39.9077 25.0007 39.8875 25.3125 39.8725C25.8479 39.8475 26.0441 39.8347 26.8838 39.7718C27.9597 39.6889 29.5415 39.5354 30.0768 39.4601C30.2301 39.4375 30.4942 39.4023 30.6677 39.3795C31.3087 39.2967 32.1887 39.1633 32.6915 39.0704C33.2422 38.9697 33.9713 38.8239 34.087 38.7939C34.1346 38.7812 34.3332 38.7336 34.5269 38.6883C34.9618 38.5901 35.3391 38.4946 35.4069 38.4646C35.4904 38.4345 35.5742 38.4051 35.6583 38.3765C35.8644 38.3088 36.5484 37.9843 36.6061 37.9289C36.6237 37.9113 36.674 37.8738 36.7167 37.8483C36.9129 37.7254 37.0033 37.655 37.182 37.4939C37.3831 37.3103 37.6623 37.0088 37.73 36.9057C37.7526 36.8705 37.8129 36.7851 37.8631 36.7172C37.9159 36.6469 37.9587 36.5839 37.9587 36.5738C37.9587 36.5636 37.9991 36.4933 38.0466 36.4179C38.0946 36.3426 38.1523 36.2318 38.1752 36.1714C38.2002 36.1137 38.2253 36.0508 38.2354 36.0384C38.283 35.9755 38.4592 35.475 38.5344 35.191C38.6528 34.7511 38.8738 33.7127 38.9544 33.2222C38.9746 33.0967 38.9971 32.9786 39.0046 32.9584C39.0274 32.903 39.1657 32.0406 39.2912 31.1609C39.3189 30.9672 39.3466 30.7736 39.3541 30.7334C39.3744 30.6177 39.4647 29.8459 39.5051 29.4386C39.525 29.2375 39.5527 29.006 39.5677 28.9231C39.5831 28.84 39.6105 28.5687 39.6307 28.3196C39.6509 28.0709 39.6786 27.7641 39.691 27.6408C39.706 27.5152 39.7288 27.2287 39.7438 26.9997C39.7588 26.7708 39.7816 26.4895 39.794 26.3712C39.8093 26.2531 39.8368 25.8181 39.857 25.4033C39.8797 24.9883 39.9049 24.478 39.9199 24.272C40.033 22.444 40.033 17.6471 39.9199 15.7615C39.9071 15.5476 39.8847 15.128 39.8696 14.8313C39.8544 14.5345 39.8318 14.1423 39.8191 13.9637C39.8041 13.7827 39.7716 13.3376 39.7438 12.9708C39.7161 12.6037 39.6883 12.259 39.6808 12.2039C39.6733 12.1484 39.6509 11.9046 39.6307 11.6633C39.6105 11.4221 39.5879 11.1957 39.5804 11.1605C39.5729 11.1253 39.5452 10.8938 39.5175 10.645C39.4524 10.044 39.3717 9.38053 39.3541 9.30265C39.3466 9.26743 39.3189 9.06626 39.2912 8.85984C39.168 7.91979 38.9394 6.60972 38.7431 5.71733C38.7154 5.59146 38.6704 5.38796 38.6427 5.26475C38.5723 4.94289 38.4891 4.61852 38.4617 4.56076C38.4491 4.53305 38.4265 4.46527 38.4089 4.40984C38.3535 4.22395 38.0743 3.60285 38.004 3.50469C37.9938 3.48966 37.9137 3.37163 37.8279 3.24092C37.6495 2.97189 37.1921 2.49419 36.9179 2.29302C36.375 1.89328 35.7714 1.62167 34.9922 1.4306C34.8579 1.39778 34.7238 1.36419 34.5899 1.32985C34.4969 1.30248 34.3107 1.26208 33.9109 1.17919C33.7977 1.15544 33.6845 1.13109 33.5715 1.10615C33.0863 0.988125 31.5073 0.731536 30.4792 0.600821C30.2728 0.575696 30.0693 0.547984 30.0266 0.538218C29.951 0.522859 29.5865 0.485381 28.845 0.412344C28.6386 0.392144 28.3546 0.362094 28.2164 0.349407C28.0781 0.334382 27.8291 0.311845 27.6634 0.29657C27.4973 0.284216 27.2258 0.261345 27.0599 0.248991C26.4967 0.201079 24.933 0.110764 24.0679 0.0728681C22.3959 -8.5425e-05 19.3085 -0.0226225 17.3929 0.0252897ZM6.31538 17.0136C6.33041 17.026 6.40344 17.0488 6.47615 17.0664C6.61212 17.099 6.80319 17.1871 6.94625 17.2825C7.05944 17.3579 7.32613 17.6445 7.37863 17.7452C7.40409 17.7955 7.43147 17.8408 7.43898 17.8483C7.44683 17.8558 7.46928 17.906 7.48948 17.9614C7.50709 18.0165 7.52955 18.0746 7.54232 18.087C7.57487 18.1349 7.61277 18.4339 7.61277 18.6553C7.61277 18.8715 7.5798 19.1254 7.53714 19.2184C7.4015 19.5301 7.33598 19.6331 7.16511 19.8144C7.0066 19.9777 6.94141 20.028 6.72522 20.1337C6.5491 20.2216 6.42331 20.267 6.32289 20.2767C6.24234 20.2868 6.1719 20.3044 6.16438 20.3146C6.14685 20.3449 5.60129 20.3449 5.60129 20.3146C5.60129 20.3044 5.53835 20.2868 5.4578 20.2767C5.37992 20.267 5.2821 20.2442 5.23936 20.2266C5.18485 20.202 5.1295 20.1794 5.07342 20.1587C5.02551 20.1412 4.98018 20.1209 4.97267 20.1134C4.96516 20.1034 4.92735 20.0808 4.88461 20.0606C4.73887 19.9878 4.43721 19.6533 4.34923 19.4697C4.30131 19.3717 4.25632 19.2761 4.24364 19.2562C4.15816 19.0851 4.14314 18.3057 4.22335 18.1248C4.24622 18.0769 4.27878 17.9966 4.29639 17.9486C4.314 17.9011 4.3342 17.8557 4.34171 17.8483C4.34923 17.8408 4.37928 17.7902 4.40699 17.7351C4.4549 17.6419 4.75389 17.3201 4.79663 17.3201C4.80665 17.3201 4.82952 17.3025 4.84713 17.28C4.89471 17.2271 5.13861 17.1091 5.28702 17.0714C5.35739 17.0537 5.43535 17.0285 5.46306 17.0159C5.49077 17.0035 5.55855 16.9908 5.61373 16.9833C5.76205 16.9683 6.28274 16.9908 6.31538 17.0136ZM33.7097 18.7658V20.0354H28.8323V18.336L29.1039 18.293C29.7048 18.2001 30.0794 18.1372 30.102 18.1222C30.117 18.1121 30.2402 18.0921 30.3784 18.0746C30.5167 18.057 30.6425 18.0341 30.655 18.024C30.6702 18.0143 30.7883 17.9915 30.9191 17.9739C31.0498 17.9588 31.2206 17.9285 31.2964 17.9086C31.3716 17.891 31.5301 17.8633 31.6481 17.8483C31.7665 17.833 31.8845 17.8105 31.9122 17.8003C31.9399 17.788 32.0655 17.7652 32.1887 17.7476C32.3145 17.7325 32.4551 17.71 32.503 17.6947C32.5506 17.6823 32.7319 17.6471 32.9053 17.6193C33.0789 17.5916 33.3052 17.5542 33.4082 17.5365C33.5112 17.5163 33.6218 17.5013 33.6544 17.4987L33.7097 17.4961V18.7658ZM12.8923 19.8871V21.3931H15.4064V23.6309H12.89L12.8998 25.9616C12.9076 28.4732 12.9023 28.3499 13.0384 28.659C13.1414 28.8981 13.4329 29.1419 13.6843 29.2023C13.727 29.2124 13.7749 29.2323 13.7951 29.2476C13.8427 29.2851 14.861 29.2851 14.9064 29.245C14.9262 29.23 15.0169 29.2098 15.1124 29.1997L15.281 29.1821V31.3872L15.2129 31.4172C15.1503 31.4449 14.861 31.4902 14.4639 31.5379C13.8982 31.6034 12.8672 31.6109 12.8068 31.5479C12.7918 31.5355 12.7517 31.5254 12.7139 31.5254C12.6158 31.5254 12.2085 31.4498 12.1782 31.4273C12.1632 31.4172 12.0954 31.392 12.025 31.3771C11.9572 31.3595 11.8893 31.3366 11.874 31.3268C11.8616 31.3142 11.8039 31.2916 11.7485 31.274C11.6931 31.2565 11.6428 31.2336 11.6353 31.2261C11.6278 31.2186 11.5825 31.1909 11.5346 31.1632C11.3259 31.0526 11.2633 31.0126 11.1524 30.9193C11.0872 30.8665 11.0269 30.8215 11.0142 30.8215C10.9891 30.8188 10.798 30.6102 10.6473 30.4192C10.5317 30.2708 10.3605 29.9868 10.3027 29.8407C10.2825 29.7931 10.26 29.7477 10.2525 29.7402C10.2424 29.7327 10.2173 29.6548 10.1922 29.5642C10.1694 29.4739 10.1393 29.3783 10.1267 29.3506C10.1143 29.3229 10.0839 29.2098 10.0641 29.0993C10.0428 28.9942 10.02 28.8894 9.99594 28.7849C9.97833 28.7096 9.96589 27.8243 9.95838 26.1501L9.94836 23.6309H8.49247V21.3931H9.95095V18.8587L10.1217 18.8412C10.2147 18.8313 10.3027 18.8137 10.3154 18.8036C10.3304 18.7935 10.4537 18.7711 10.5919 18.7534C10.7302 18.7359 10.856 18.7104 10.8685 18.7006C10.8835 18.6905 11.0419 18.6627 11.2205 18.6403C11.4015 18.6148 11.56 18.5874 11.5724 18.5773C11.5874 18.5672 11.6705 18.5496 11.7609 18.5421C11.879 18.528 11.9965 18.5087 12.113 18.4844C12.382 18.429 12.8521 18.3559 12.8747 18.3687C12.8848 18.3736 12.8923 19.0576 12.8923 19.8871ZM21.2269 21.1542C21.5788 21.1744 21.9763 21.2197 22.0062 21.2422C22.0212 21.2522 22.0816 21.2699 22.1445 21.2775C22.2879 21.3002 22.6375 21.4032 22.8484 21.4886C23.0246 21.5592 23.4168 21.7551 23.4771 21.8057C23.4973 21.8207 23.5423 21.8507 23.5776 21.8659C23.6127 21.8835 23.7236 21.9713 23.8214 22.0571C23.9195 22.1451 24.0102 22.2204 24.0225 22.2253C24.0604 22.2429 24.5078 22.7861 24.5078 22.8161C24.5078 22.8236 24.5306 22.8641 24.5583 22.9015C24.6111 22.9772 24.8348 23.4121 24.8348 23.4399C24.8348 23.4496 24.855 23.505 24.8824 23.5628C24.9075 23.6208 24.9378 23.7089 24.948 23.7565C24.958 23.8044 24.9757 23.8546 24.9855 23.8696C24.9955 23.8823 25.0183 23.9625 25.036 24.0457C25.051 24.1285 25.0712 24.2143 25.0787 24.2342C25.0888 24.2544 25.1113 24.3623 25.1315 24.4731C25.1616 24.6391 25.169 25.2651 25.1791 28.0357L25.1892 31.3995H22.4464L22.4439 31.1029C22.4412 30.9421 22.4337 30.7083 22.4236 30.585L22.4086 30.3588L22.3356 30.4592C22.2202 30.6128 21.8403 30.9747 21.6896 31.0752C21.36 31.2916 21.2723 31.3441 21.1816 31.3745C21.1262 31.3895 21.0535 31.4198 21.0183 31.4396C20.9805 31.4573 20.8875 31.4876 20.8119 31.5026C20.7365 31.5202 20.6613 31.543 20.6486 31.5528C20.5204 31.6484 18.9364 31.646 18.8131 31.5505C18.8008 31.5404 18.7101 31.518 18.612 31.5003C18.5165 31.4828 18.4033 31.455 18.3606 31.4348C18.3206 31.4172 18.2122 31.3718 18.1245 31.3366C18.0234 31.2927 17.9244 31.244 17.8278 31.1909C17.761 31.1496 17.6931 31.1103 17.624 31.0728C17.5184 31.0148 17.4832 30.9822 17.1966 30.6956C16.9025 30.4015 16.8647 30.3614 16.8647 30.3337C16.8647 30.3236 16.832 30.2682 16.7946 30.2104C16.7541 30.1527 16.6964 30.0471 16.666 29.979C16.636 29.9088 16.5956 29.8257 16.578 29.7905C16.5582 29.7553 16.5305 29.6649 16.5128 29.5893C16.4952 29.5139 16.4728 29.4386 16.4626 29.426C16.4349 29.3907 16.387 29.0336 16.387 28.8778C16.387 28.8052 16.3746 28.7321 16.3596 28.7171C16.3293 28.6867 16.3367 28.5863 16.4147 27.9802C16.4297 27.8621 16.4525 27.754 16.4626 27.7415C16.4727 27.7265 16.4951 27.661 16.5102 27.5932C16.5428 27.4624 16.611 27.2915 16.6814 27.1631C16.7039 27.1204 16.734 27.0627 16.7492 27.0324C16.7643 26.9998 16.7845 26.9747 16.7968 26.9747C16.8069 26.9747 16.8144 26.9596 16.8144 26.942C16.8144 26.9143 17.091 26.5547 17.1389 26.5221C17.1489 26.5146 17.1666 26.4895 17.1741 26.4643C17.1841 26.4366 17.2142 26.4116 17.2419 26.4041C17.2696 26.3966 17.2921 26.3812 17.2921 26.3711C17.2921 26.3461 17.7147 26.0141 17.8578 25.9312C17.9608 25.8684 18.1924 25.7503 18.5292 25.5892C18.5771 25.5642 19.0469 25.4134 19.2534 25.3555C19.3286 25.333 19.4771 25.3026 19.5801 25.2876C19.6831 25.27 19.7812 25.2498 19.7939 25.2401C19.8089 25.2299 19.9596 25.2071 20.1334 25.1921C20.3068 25.177 20.5204 25.152 20.611 25.1392C20.9681 25.0865 22.2224 25.0966 22.3558 25.152C22.4011 25.1719 22.4034 25.162 22.3858 24.9482C22.376 24.825 22.3584 24.7193 22.3483 24.7118C22.3356 24.7043 22.3206 24.6567 22.3105 24.6062C22.2929 24.5132 22.1973 24.3098 22.107 24.1712C22.049 24.0835 21.8051 23.8317 21.7773 23.8317C21.7676 23.8317 21.7248 23.8067 21.6819 23.7741C21.5713 23.6935 21.393 23.6133 21.2847 23.5931C21.2319 23.583 21.1891 23.5654 21.1891 23.5553C21.1891 23.4448 19.565 23.4272 19.0773 23.5353C19.0144 23.5478 18.8686 23.5754 18.7505 23.5957C18.6322 23.6156 18.5141 23.6433 18.4864 23.656C18.4587 23.6684 18.3684 23.6913 18.2853 23.7062C18.2025 23.7212 18.1118 23.744 18.0841 23.7565C18.0564 23.7691 17.956 23.7969 17.8604 23.8194C17.7649 23.8419 17.6743 23.867 17.6592 23.8797C17.6442 23.8898 17.5764 23.9149 17.506 23.9325C17.4382 23.9501 17.3678 23.9752 17.3551 23.9853C17.34 23.9954 17.2722 24.0179 17.2041 24.0356C17.1339 24.0506 17.0358 24.0857 16.9856 24.1109C16.9328 24.1386 16.8849 24.1588 16.8774 24.1588C16.8698 24.1588 16.8647 23.6332 16.8647 22.9922C16.8647 22.0845 16.8724 21.8206 16.8976 21.8004C16.9152 21.7854 16.9856 21.7603 17.0534 21.7427C17.1238 21.7277 17.1917 21.7049 17.2041 21.6948C17.2194 21.6847 17.3022 21.6547 17.3929 21.6319C17.4832 21.6067 17.5686 21.5793 17.5814 21.5693C17.5964 21.5565 17.6743 21.5363 17.7548 21.519C17.8379 21.5015 17.9234 21.4786 17.9433 21.4662C17.9661 21.4562 18.0691 21.4284 18.1722 21.4059C18.2522 21.3903 18.3319 21.3727 18.4111 21.3531C18.4385 21.3452 18.5794 21.3228 18.7252 21.3025C18.8712 21.2826 19.0245 21.2549 19.0645 21.2422C19.2106 21.1972 20.5279 21.1141 20.8246 21.1317C20.9074 21.1366 21.0887 21.1467 21.2269 21.1543V21.1542ZM7.36102 26.3966V31.3995H4.41968V21.3931H7.36102V26.3966ZM29.5865 24.5106C29.5865 27.4875 29.5991 28.0634 29.6595 28.1439C29.6718 28.1563 29.6872 28.2065 29.6973 28.2544C29.7325 28.4428 29.8959 28.7171 30.0817 28.903C30.1799 29.0037 30.2904 29.0917 30.3256 29.1015C30.3634 29.1094 30.3911 29.1244 30.3911 29.1345C30.3911 29.1442 30.4792 29.1795 30.5871 29.2146C30.7482 29.2652 30.8336 29.275 31.085 29.275C31.2611 29.275 31.4143 29.2626 31.4495 29.2476C31.4821 29.2301 31.56 29.2048 31.623 29.1872C31.6859 29.1697 31.7991 29.1169 31.8744 29.0663C32.0152 28.976 32.2767 28.7347 32.2767 28.6943C32.2767 28.6819 32.3119 28.6265 32.3521 28.5736C32.3947 28.5182 32.4277 28.4631 32.4277 28.4481C32.4277 28.4327 32.4503 28.38 32.4753 28.3297C32.503 28.2795 32.5331 28.1941 32.5432 28.1413C32.5507 28.0858 32.5682 28.0307 32.581 28.0181C32.6439 27.9375 32.654 27.4298 32.654 24.4806V21.3931H35.5954V31.3996H34.2026C33.1141 31.3996 32.8021 31.3921 32.7871 31.367C32.777 31.352 32.7646 31.113 32.7594 30.839C32.7544 30.5675 32.7418 30.3438 32.732 30.3438C32.722 30.3438 32.6916 30.3739 32.6616 30.4116C32.5207 30.6027 32.2993 30.8189 31.9524 31.1055C31.9022 31.1455 31.7992 31.201 31.5729 31.3116C31.4698 31.3617 31.3567 31.4197 31.3215 31.4374C31.2863 31.455 31.1908 31.4827 31.1075 31.5003C31.0247 31.5179 30.9517 31.5404 30.9442 31.5505C30.9191 31.5881 30.4741 31.6258 30.0342 31.6258C29.6018 31.6258 29.2497 31.5958 29.1466 31.5528C29.1189 31.5404 29.0234 31.5101 28.9328 31.4876C28.8425 31.4651 28.7593 31.4348 28.7443 31.4247C28.732 31.4146 28.6716 31.3894 28.6136 31.3718C28.5533 31.3568 28.5057 31.3344 28.5057 31.3243C28.5057 31.3142 28.4604 31.2917 28.4049 31.274C28.3498 31.2565 28.3044 31.2336 28.3044 31.2235C28.3044 31.2137 28.2767 31.1935 28.2442 31.1784C28.028 31.0804 27.5376 30.6203 27.3315 30.3236C27.2056 30.1426 27.012 29.7804 26.9719 29.6473C26.9569 29.5945 26.9266 29.5166 26.909 29.4762C26.8914 29.4335 26.8614 29.3432 26.846 29.275C26.831 29.2049 26.8085 29.1318 26.7958 29.1068C26.7834 29.0839 26.7606 28.9659 26.7456 28.8427C26.7306 28.722 26.7029 28.5988 26.6878 28.5711C26.6651 28.5335 26.655 27.6358 26.65 24.9557L26.6425 21.3931H29.5865L29.5865 24.5106Z" fill="white"/>
<path d="M20.9 26.9521C20.7771 26.9646 20.6512 26.9847 20.6235 26.9972C20.5958 27.0125 20.5055 27.0349 20.4223 27.0525C20.3421 27.0676 20.2339 27.0979 20.1836 27.1204C19.8063 27.2838 19.6228 27.392 19.4973 27.5227C19.3766 27.6486 19.2557 27.8824 19.2358 28.0281C19.2305 28.0783 19.2129 28.1438 19.198 28.1713C19.1703 28.2293 19.1804 28.4077 19.2257 28.6414C19.2759 28.8954 19.4771 29.2048 19.6554 29.2978C19.9723 29.4612 20.0327 29.4862 20.2088 29.514C20.5253 29.5616 21.1289 29.5342 21.2596 29.4638C21.2822 29.4511 21.3754 29.4083 21.4657 29.3682C21.5564 29.3255 21.6744 29.2573 21.7298 29.2146C21.7852 29.172 21.8478 29.1217 21.8706 29.1041C22.0138 28.9962 22.278 28.5586 22.3131 28.3776C22.3206 28.3323 22.3408 28.2795 22.3558 28.2593C22.3734 28.2367 22.3859 28.0053 22.3911 27.5905L22.4011 26.957L22.2652 26.942C22.0816 26.9192 21.1767 26.927 20.9 26.9521Z" fill="white"/>
</svg>
