<svg width="230" height="40" viewBox="0 0 230 40" fill="none" xmlns="http://www.w3.org/2000/svg">
<path d="M30.4156 18.4096C30.3191 16.9639 29.9328 15.5181 29.1604 14.2651L22.5945 2.79518C22.1117 1.92771 21.7254 0.963855 21.5323 0L21.2427 0.481928C19.6012 3.27711 19.6012 6.84337 21.2427 9.63855L26.5533 18.7952C28.1948 21.5904 28.1948 25.1566 26.5533 27.9518L26.2636 28.4337C26.0705 27.4699 25.6843 26.506 25.2015 25.6386L20.3736 17.253L17.2838 11.8554C16.801 10.988 16.4148 10.0241 16.2217 9.06024L15.932 9.54217C14.2905 12.3374 14.2905 15.8072 15.932 18.6988L21.2427 27.8554C22.8841 30.6506 22.8841 34.2169 21.2427 37.012L20.953 37.494C20.7599 36.5301 20.3736 35.5663 19.8908 34.6988L13.2284 23.2289C12.3594 21.6867 11.9731 19.9518 11.9731 18.2169C4.92443 20.0482 0 24 0 28.5301C0 34.8916 9.46264 40 21.1461 40C32.8296 40 42.2922 34.8916 42.2922 28.5301C42.3887 24.1928 37.5609 20.241 30.4156 18.4096ZM50.403 37.9759C50.4996 36.3373 50.6927 35.2771 51.1755 33.9277C53.3963 34.9879 56.293 35.4699 58.4173 35.4699C62.0865 35.4699 64.2107 34.3133 64.2107 31.9036C64.2107 29.5904 62.6658 28.5301 58.9966 26.8916L56.9689 26.1205C53.2032 24.4819 50.6927 22.3614 50.6927 18.2169C50.6927 13.6867 53.8791 10.7952 60.2519 10.7952C62.8589 10.7952 65.2729 11.1807 67.4937 11.9518C67.3971 13.494 67.1075 14.747 66.7212 15.9036C64.597 15.1325 61.9899 14.747 60.1553 14.747C56.6793 14.747 55.1343 16.0964 55.1343 18.2169C55.1343 20.241 56.6793 21.494 59.4794 22.6506L61.6037 23.5181C66.6247 25.6386 68.7489 27.9518 68.7489 31.8072C68.7489 36.3374 65.2729 39.5181 58.5139 39.5181C55.3275 39.5181 52.6238 39.0361 50.403 37.9759ZM90.0882 18.988V38.8434H86.0327L85.8396 36.4337C84.6809 38.1687 83.0395 39.3253 80.2393 39.3253C75.0252 39.3253 71.4526 35.4699 71.4526 28.8193C71.4526 21.8795 75.2183 17.8313 82.5567 17.8313C85.4534 17.9277 87.8673 18.2169 90.0882 18.988ZM85.7431 34.3133V21.8795C84.8741 21.6867 83.8119 21.6867 82.5567 21.6867C78.0185 21.6867 75.8942 24.4819 75.8942 28.9157C75.8942 32.9639 77.5357 35.8554 81.398 35.8554C83.2326 35.759 84.5844 35.1807 85.7431 34.3133ZM112.49 25.5422V38.8434H108.144V26.3133C108.144 23.1325 107.082 21.6867 102.737 21.6867C101.675 21.6867 100.516 21.7831 99.2611 21.9759V38.8434H94.916V18.988C97.7162 18.3133 100.806 17.8313 102.834 17.8313C110.172 17.9277 112.49 20.7229 112.49 25.5422ZM124.656 35.6627C125.911 35.6627 127.166 35.4699 128.035 35.0843C127.939 36.241 127.746 37.5904 127.552 38.747C126.394 39.2289 125.042 39.4217 123.883 39.4217C119.635 39.4217 116.931 37.494 116.931 32.6747V11.759C118.283 11.2771 119.924 11.0843 121.276 11.0843V18.6024H128.228C128.132 19.9518 128.035 21.2048 127.842 22.3614H121.276V32.0964C121.276 34.6024 122.531 35.6627 124.656 35.6627ZM148.119 18.988V38.8434H144.064L143.871 36.4337C142.712 38.1687 141.071 39.3253 138.27 39.3253C133.056 39.3253 129.484 35.4699 129.484 28.8193C129.484 21.8795 133.249 17.8313 140.588 17.8313C143.484 17.9277 145.802 18.2169 148.119 18.988ZM143.678 34.3133V21.8795C142.809 21.6867 141.746 21.6867 140.491 21.6867C135.953 21.6867 133.829 24.4819 133.829 28.9157C133.829 32.9639 135.47 35.8554 139.332 35.8554C141.167 35.759 142.615 35.1807 143.678 34.3133ZM170.521 25.5422V38.8434H166.079V26.3133C166.079 23.1325 165.017 21.6867 160.672 21.6867C159.61 21.6867 158.451 21.7831 157.196 21.9759V38.8434H152.851V18.988C155.651 18.3133 158.741 17.8313 160.768 17.8313C168.107 17.9277 170.521 20.7229 170.521 25.5422ZM192.632 11.0843V38.8434H188.577L188.384 36.3373C187.225 38.1687 185.584 39.3253 182.687 39.3253C177.473 39.3253 173.9 35.4699 173.9 28.8193C173.9 21.8795 177.666 17.8313 185.004 17.8313C186.163 17.8313 187.225 17.9277 188.287 18.1205V11.5663C189.639 11.1807 191.184 11.0843 192.632 11.0843ZM188.287 34.3133V22.0723C187.128 21.8795 185.97 21.6867 184.811 21.6867C180.466 21.6867 178.438 24.3855 178.438 28.9157C178.438 32.9639 180.08 35.8554 183.942 35.8554C185.68 35.759 187.128 35.1807 188.287 34.3133ZM214.647 30.3614H200.647C201.226 33.9277 203.254 35.5663 207.212 35.5663C209.626 35.5663 212.04 35.0843 214.165 34.0241C213.971 35.1807 213.778 36.7229 213.489 37.9759C211.461 38.8434 209.433 39.2289 207.019 39.2289C199.681 39.2289 196.205 35.1807 196.205 28.4337C196.205 22.5542 198.908 17.8313 205.861 17.8313C212.137 17.8313 214.84 21.8795 214.84 26.8916C214.84 28.241 214.84 29.2048 214.647 30.3614ZM200.647 26.6988H210.495C210.495 23.4217 208.757 21.494 205.764 21.494C202.578 21.5904 200.936 23.3253 200.647 26.6988ZM230 18.1205C230 19.4699 229.807 21.012 229.614 21.8795C228.552 21.7831 227.586 21.6867 226.331 21.6867C225.269 21.6867 224.207 21.7831 223.144 21.8795V38.8434H218.799V18.988C220.634 18.3133 223.82 17.8313 226.234 17.8313C227.49 17.9277 229.034 17.9277 230 18.1205Z" fill="white"/>
</svg>
