<svg width="274" height="40" viewBox="0 0 274 40" fill="none" xmlns="http://www.w3.org/2000/svg">
<g clip-path="url(#clip0_355_1742)">
<path d="M25.5652 31.8703C26.1829 30.364 26.4813 28.7423 26.4394 27.1153C26.497 24.722 25.6752 22.3865 24.131 20.5549C22.4089 18.655 19.4619 17.0752 15.3791 15.8733C14.5887 15.6686 13.8192 15.3905 13.076 15.0493C12.4321 14.7344 11.8563 14.3041 11.3695 13.7792C10.8618 13.2019 10.5949 12.4514 10.6315 11.6799C10.6472 10.5568 11.2753 9.52808 12.2699 9.00849C14.306 8.11102 16.6249 8.11102 18.6558 9.00849C19.5614 9.33914 20.4303 9.74851 21.2626 10.2314L24.6911 3.38226C23.1574 2.43231 21.5086 1.70279 19.776 1.2042C17.9911 0.742345 16.159 0.50617 14.3165 0.50617C12.563 0.47468 10.8199 0.763339 9.1711 1.3564C7.70547 1.92847 6.37069 2.80495 5.25577 3.91759C4.1356 5.04074 3.24576 6.37907 2.64903 7.84861C2.05755 9.36013 1.76442 10.9766 1.77489 12.5984C1.86911 15.191 2.9631 17.642 4.81608 19.4475C6.5853 21.001 8.65813 22.1661 10.9037 22.8589C11.9715 23.2683 13.1545 23.6356 13.9082 23.9243C14.6829 24.2182 15.4262 24.5908 16.1171 25.0474C16.6144 25.4043 17.0175 25.8714 17.2949 26.4173C17.5357 26.9368 17.6247 27.5089 17.5514 28.0757C17.4729 28.9365 17.0593 29.7342 16.405 30.2958C15.332 31.0778 14.0129 31.4399 12.6938 31.3192C11.134 31.2772 9.60032 30.9098 8.18703 30.2381C6.95171 29.645 5.75303 28.9785 4.59623 28.2384L0.50293 35.2922C3.73255 37.9531 7.76828 39.4279 11.9401 39.4699C14.0077 39.4699 16.0648 39.1445 18.0277 38.499C19.7184 37.9321 21.2835 37.0557 22.6444 35.9115C23.8902 34.7831 24.8848 33.4081 25.5652 31.8703Z" fill="white"/>
<path d="M47.6654 29.666C45.6082 32.2377 41.8656 32.6523 39.3008 30.5949C36.7359 28.5323 36.3172 24.7745 38.3691 22.2028C40.4262 19.6259 44.1688 19.2113 46.7336 21.2686C47.0739 21.5416 47.3879 21.8512 47.6654 22.1871L52.9992 16.818C50.4501 13.9944 46.8226 12.3884 43.0225 12.3937C35.5844 12.3674 29.167 17.6945 29.167 25.9134C29.167 34.1271 35.6524 39.4699 43.0905 39.4699C46.8959 39.4699 50.5233 37.8587 53.083 35.035L47.6654 29.666Z" fill="white"/>
<path d="M66.8382 12.3674C59.3739 12.3569 53.3177 18.424 53.3125 25.9134C53.3072 33.4081 59.3582 39.4804 66.8225 39.4856C74.2868 39.4856 80.3377 33.4133 80.3377 25.9239C80.3377 18.4398 74.2972 12.3727 66.8382 12.3674ZM66.8382 31.8965C63.551 31.8755 60.9024 29.1831 60.9181 25.8819C60.9337 22.586 63.6086 19.9198 66.8958 19.925C70.183 19.9355 72.8473 22.6122 72.8473 25.9134C72.8473 27.5037 72.2139 29.0362 71.0833 30.1593C69.9579 31.2825 68.4295 31.907 66.8382 31.8965Z" fill="white"/>
<path d="M97.5535 13.0077H93.8685V5.0145H85.7866V13.0077H82.1016V20.3502H85.7866V38.8243H93.8685V20.3502H97.5535V13.0077Z" fill="white"/>
<path d="M105.29 0.506168C103.469 0.50092 101.82 1.59782 101.118 3.28779C100.417 4.97251 100.799 6.91965 102.087 8.21599C103.374 9.51233 105.316 9.90071 106.997 9.20268C108.682 8.50465 109.781 6.85667 109.781 5.025C109.781 2.53728 107.776 0.511416 105.29 0.506168Z" fill="white"/>
<path d="M101.249 13.0077H109.32V38.8139H101.249V13.0077Z" fill="white"/>
<path d="M140.89 38.8558V13.0077H133.028V15.7474L132.29 15.1071C130.458 13.3436 128.008 12.3569 125.469 12.3674C118.518 12.3674 112.65 18.571 112.65 25.9134C112.65 33.2506 118.534 39.4699 125.469 39.4699C128.008 39.4752 130.458 38.4937 132.29 36.7303L133.028 36.0847V38.8244L140.89 38.8558ZM126.778 32.0068C123.418 31.9858 120.711 29.2356 120.732 25.8662C120.748 22.4967 123.48 19.7781 126.841 19.7886C130.201 19.8043 132.913 22.544 132.908 25.9134C132.902 27.5352 132.253 29.0939 131.102 30.2381C129.955 31.3822 128.395 32.0172 126.778 32.0068Z" fill="white"/>
<path d="M152.944 38.8558V36.1162L153.667 36.7565C155.504 38.5199 157.948 39.5014 160.492 39.4961C167.438 39.4961 173.306 33.2926 173.306 25.9397C173.306 18.5867 167.438 12.3937 160.492 12.3937C157.948 12.3884 155.504 13.3699 153.667 15.1333L152.944 15.7789V1.15172H145.066V38.8558H152.944ZM153.106 25.9397C153.091 23.4624 154.562 21.2266 156.839 20.2662C159.11 19.3058 161.733 19.8201 163.486 21.5625C165.235 23.305 165.763 25.9397 164.821 28.2279C163.884 30.511 161.659 32.0067 159.194 32.0067C155.839 32.0067 153.117 29.2776 153.106 25.9134V25.9397Z" fill="white"/>
<path d="M204.294 38.8558V13.0077H196.432V15.7474L195.694 15.1071C193.857 13.3436 191.412 12.3622 188.869 12.3674C181.922 12.3674 176.055 18.571 176.055 25.9134C176.055 33.2506 181.938 39.4699 188.869 39.4699C191.412 39.4752 193.857 38.4937 195.694 36.7303L196.432 36.0847V38.8244L204.294 38.8558ZM190.235 32.0068C186.869 32.012 184.137 29.2829 184.131 25.9082C184.126 22.5335 186.853 19.7938 190.219 19.7886C193.579 19.7886 196.307 22.523 196.307 25.8977C196.307 29.2671 193.59 31.9963 190.235 32.0068Z" fill="white"/>
<path d="M221.044 19.967C223.693 19.9775 225.839 22.1294 225.844 24.7903V38.8558H233.916V23.7878C233.916 16.9387 229.969 12.4776 223.73 12.4776C221.165 12.4776 218.464 13.6008 216.239 17.2169V13.1074H208.157V38.8558H216.171V24.7903C216.171 23.4992 216.689 22.2658 217.605 21.3578C218.521 20.4551 219.757 19.9513 221.044 19.967Z" fill="white"/>
<path d="M263.327 38.8244L253.419 25.9239L262.631 13.0077H253.199L245.787 23.4624V1.15172H237.721V38.8244H245.787V28.186L253.921 38.8244H263.327Z" fill="white"/>
<path d="M269.023 29.8024C267.196 29.792 265.547 30.8836 264.84 32.5683C264.134 34.253 264.511 36.2002 265.793 37.5018C267.075 38.8034 269.012 39.197 270.703 38.5042C272.388 37.8062 273.493 36.1634 273.498 34.3318C273.503 31.844 271.504 29.8182 269.023 29.8024ZM269.023 37.9216C267.562 37.9269 266.243 37.0504 265.683 35.7016C265.118 34.3475 265.427 32.794 266.453 31.7548C267.484 30.7157 269.033 30.406 270.384 30.9676C271.729 31.5239 272.608 32.8412 272.608 34.3055C272.614 35.266 272.237 36.1844 271.561 36.8615C270.891 37.5385 269.975 37.9216 269.023 37.9216Z" fill="white"/>
<path d="M269.007 35.0613H268.284V36.7723H267.41V31.8441H269.279C270.184 31.8441 270.917 32.5788 270.917 33.4868C270.902 34.1061 270.535 34.6624 269.975 34.9248L271.011 36.7723H269.949L269.007 35.0613ZM268.284 34.2373H269.321C269.734 34.2373 270.069 33.9014 270.069 33.4868C270.069 33.0669 269.734 32.731 269.321 32.731H268.284V34.2373Z" fill="white"/>
</g>
<defs>
<clipPath id="clip0_355_1742">
<rect width="274" height="40" fill="white"/>
</clipPath>
</defs>
</svg>
