<svg width="117" height="40" viewBox="0 0 117 40" fill="none" xmlns="http://www.w3.org/2000/svg">
<g clip-path="url(#clip0_464_1977)">
<mask id="mask0_464_1977" style="mask-type:luminance" maskUnits="userSpaceOnUse" x="-292" y="-42" width="469" height="661">
<path d="M-291.697 -41.2227H176.79V618.736H-291.697V-41.2227Z" fill="white"/>
</mask>
<g mask="url(#mask0_464_1977)">
<path fill-rule="evenodd" clip-rule="evenodd" d="M74.6728 9.44793L76.0078 8.74592V15.7587C76.0078 16.6752 75.7462 17.4065 75.2229 17.9525C74.6997 18.4498 74.0175 18.6984 73.1763 18.6984H71.6432C70.7239 18.6984 70.0172 18.3839 69.5233 17.7551C69.1027 18.3596 68.4328 18.674 67.5134 18.6984H66.4131C65.5231 18.6984 64.8531 18.3986 64.4032 17.7989C63.9582 18.3742 63.2906 18.674 62.4006 18.6984H61.337C60.4469 18.6984 59.7794 18.3986 59.3344 17.7989C58.8894 18.3986 58.2072 18.6984 57.2878 18.6984H37.2254C36.3061 18.6984 35.6116 18.4108 35.1422 17.8355C34.7216 17.3382 34.5113 16.7118 34.5113 15.9562V9.44793L35.8464 8.74592V15.9196C35.8464 16.9385 36.3574 17.4479 37.3795 17.4479H57.1705C58.1681 17.4479 58.6669 16.9385 58.6669 15.9196V13.7185L60.0019 13.0165V15.9196C60.0019 16.9385 60.5007 17.4479 61.4984 17.4479H62.2026C63.2246 17.4479 63.7357 16.9385 63.7357 15.9196V13.2139L65.078 12.5046V15.9196C65.078 16.9385 65.5744 17.4479 66.5671 17.4479H67.2787C68.3007 17.4479 68.8118 16.9385 68.8118 15.9196V12.702L70.1468 12V15.7587C70.1468 16.8849 70.6847 17.4479 71.7606 17.4479H73.059C74.1348 17.4479 74.6728 16.8849 74.6728 15.7587V9.44793ZM116.998 11.9927V15.9562C116.998 16.819 116.737 17.4967 116.213 17.9891C115.714 18.4619 115.071 18.6984 114.284 18.6984H112.751C111.91 18.6984 111.24 18.4229 110.741 17.8721C110.242 18.4229 109.562 18.6984 108.702 18.6984H95.2486C94.3831 18.6984 93.7131 18.4229 93.2387 17.8721C92.7399 18.4229 92.0577 18.6984 91.1921 18.6984H83.8347C82.9985 18.6984 82.3432 18.4229 81.8688 17.8721C81.4532 17.3797 81.2453 16.741 81.2453 15.9562V14.0768L82.5804 13.3675V15.8392C82.5804 16.9068 83.0792 17.4406 84.0768 17.4406H91.0748C92.0724 17.4406 92.5712 16.9068 92.5712 15.8392V9.44793L93.9063 8.74592V15.9123C93.9063 16.9312 94.4051 17.4406 95.4027 17.4406H108.54C109.562 17.4406 110.074 16.9312 110.074 15.9123V12.702L111.416 11.9927V15.9123C111.416 16.9312 111.912 17.4406 112.905 17.4406H114.13C115.152 17.4406 115.663 16.9312 115.663 15.9123V12.702L116.998 11.9927ZM64.5205 24.4973L65.9363 23.8245V33.5869H64.5205V29.1189H59.8039V33.5869H58.3441V24.4973L59.8039 23.8245V27.905H64.5205V24.4973ZM72.4648 23.8318L76.0445 33.6234H74.5554L73.8072 31.3931H69.7947L69.0465 33.6234H67.5868L71.1298 23.8318H72.4648ZM73.3671 30.2158L71.7606 25.5942L70.1835 30.2158H73.3671ZM93.8989 23.8318L97.4419 33.6234H95.9822L95.2413 31.3931H91.2288L90.4806 33.6234H88.9842L92.5272 23.8318H93.8989ZM94.8379 30.2158L93.2241 25.5942L91.6543 30.2158H94.8379ZM87.011 29.2359C87.3777 29.7087 87.5611 30.2962 87.5611 30.9982C87.5611 31.9147 87.1797 32.6216 86.4168 33.1189C85.7908 33.5625 84.9399 33.7843 83.8641 33.7843C82.9202 33.7843 82.0424 33.7185 81.2306 33.5869V23.8684C82.1207 23.7368 82.9985 23.671 83.8641 23.671C85.0964 23.671 86.0011 23.9586 86.5782 24.5339C87.0476 24.9775 87.2824 25.5917 87.2824 26.3766C87.2824 26.8739 87.099 27.3175 86.7322 27.7075C86.3948 28.1024 85.9767 28.3388 85.4779 28.4168C86.1038 28.4949 86.6148 28.7679 87.011 29.2359ZM82.6831 27.8684H84.1355C84.6343 27.8684 85.0426 27.749 85.3605 27.5101C85.6735 27.2517 85.83 26.9251 85.83 26.5302C85.83 25.3846 85.1747 24.8117 83.8641 24.8117C83.3897 24.8117 82.996 24.8507 82.6831 24.9287V27.8684ZM86.0647 30.9616C86.0647 30.362 85.8935 29.8916 85.5512 29.5503C85.2138 29.2139 84.7296 29.0457 84.0988 29.0457H82.6831V32.5265C83.0498 32.6094 83.5095 32.6509 84.0621 32.6509C85.3972 32.6509 86.0647 32.0878 86.0647 30.9616ZM112.854 28.4534L116.984 33.5869H115.098L111.475 28.8483V33.5869H110.103V24.4973L111.475 23.8318V28.0658L114.9 23.8318H116.631L112.854 28.4534ZM115.289 21.1627L114.189 22.2596L113.088 21.1627L114.189 20.0658L115.289 21.1627ZM110.609 10.8154L109.509 9.7185L110.609 8.6216L111.709 9.7185L110.609 10.8154ZM64.8213 9.9525L65.9656 8.85561L67.0659 9.9525L65.9656 11.0494L64.8213 9.9525ZM105.614 24.5339L107.066 23.8684V33.6234H105.768C104.716 32.1853 103.063 29.7307 100.809 26.2596V33.6234H99.3932V23.8684H100.655C102.723 26.8471 104.376 29.3675 105.614 31.4296V24.5339ZM88.1039 13.7185H85.9033L86.2994 13.0092H88.0306C88.4218 13.0092 88.6174 12.8142 88.6174 12.4242C88.6174 11.9269 88.3167 11.6783 87.7152 11.6783C87.3728 11.6783 87.0696 11.7563 86.8056 11.9123V11.2468L88.2213 9.7185H89.0869L87.9059 11.0494C88.8791 11.0786 89.3656 11.5491 89.3656 12.4607C89.3656 12.8264 89.2483 13.1286 89.0135 13.3675C88.7739 13.6015 88.4707 13.7185 88.1039 13.7185ZM64.1905 9.36749L63.0901 8.2706L64.1905 7.17371L65.2908 8.2706L64.1905 9.36749ZM62.496 11.0494L61.3957 9.9525L62.496 8.85561L63.6036 9.9525L62.496 11.0494ZM43.2552 32.4461H48.0158V33.6234H41.8394V23.8684H47.8178V25.0457H43.2552V27.9415H47.0769V29.1554H43.2552V32.4461ZM55.2926 29.075C55.8207 29.6015 56.0848 30.2426 56.0848 30.9982C56.0848 31.9147 55.7303 32.6338 55.0212 33.1554C54.4441 33.5991 53.7228 33.8209 52.8572 33.8209C51.8352 33.8209 50.7715 33.4674 49.6663 32.7605L50.2972 31.8977C50.9818 32.3169 51.796 32.5265 52.7399 32.5265C53.9967 32.5265 54.6251 31.9903 54.6251 30.9178C54.6251 30.1085 54.0871 29.5211 53.0113 29.1554C51.8865 28.7654 51.0747 28.3486 50.5759 27.905C50.0771 27.4321 49.8277 26.869 49.8277 26.2158C49.8277 25.4309 50.1431 24.8044 50.774 24.3364C51.3217 23.8928 52.043 23.671 52.9379 23.671C53.96 23.671 54.8891 23.9586 55.7254 24.5339L55.1385 25.4333C54.4295 25.0677 53.7204 24.8849 53.0113 24.8849C52.488 24.8849 52.0699 25.0019 51.7569 25.2359C51.439 25.4699 51.2801 25.7697 51.2801 26.1353C51.2801 26.7886 51.7129 27.2736 52.5785 27.5905C53.8402 28.0585 54.7449 28.5534 55.2926 29.075ZM35.9051 32.4461H39.6755V33.6234H34.4453V24.5339L35.9051 23.8684V32.4461Z" fill="white"/>
<path d="M28.5334 0.0804556C27.9392 0.592339 27.2717 1.02378 26.6848 1.57223C25.9733 2.20111 25.4232 2.98356 25.2691 3.96345C25.1517 4.54846 25.1884 5.14079 25.1517 5.68923V26.1865C25.1517 34.4132 18.4618 37.6307 13.7011 37.6307C4.57588 37.6307 0.644092 31.4735 0.724781 26.3766C0.724781 21.053 3.27751 18.0329 6.42441 15.8757C6.65914 15.6783 7.01858 15.5247 7.40735 15.3273V27.0859C7.40735 27.905 7.45137 28.6947 7.334 29.5137C7.17262 30.9251 6.58578 32.1024 5.40478 32.9653C5.2972 33.0433 5.19205 33.1213 5.08936 33.1993C4.87908 33.3553 4.65657 33.4869 4.42183 33.5942C4.65657 33.5942 4.90597 33.5795 5.17005 33.5503C6.42685 33.4187 7.67143 33.014 8.90378 32.3364C9.50528 31.9951 10.0701 31.6173 10.5983 31.2029C11.5421 30.9933 12.4859 30.6399 13.4297 30.1426C14.0312 29.8014 14.5936 29.4089 15.1169 28.9653C16.0607 28.7849 16.9923 28.4315 17.9117 27.905C19.4081 27.0859 20.6625 25.9525 21.7701 24.6143C22.7139 23.493 23.2103 22.2011 23.2592 20.7386L23.3399 16.468C23.3399 15.6783 23.4573 14.9397 23.8534 14.2669C23.9707 14.0719 24.0881 13.8769 24.2055 13.6819C24.1248 13.6454 24.0881 13.7185 24.0514 13.7624C23.4206 14.2304 22.7897 14.6984 22.2029 15.2103C21.4914 15.8757 20.9412 16.6216 20.7432 17.6015C20.6258 18.1865 20.6625 18.7788 20.6625 19.3638C20.6625 19.3638 20.6625 22.7715 20.5891 23.5613C20.3911 25.0092 19.7969 26.1865 18.6232 27.0494C17.7038 27.727 16.7185 28.2096 15.667 28.4973C16.2196 27.9756 16.7453 27.4272 17.2442 26.8519C18.188 25.7258 18.699 24.4193 18.7773 22.9324L18.8139 18.6618C18.8579 17.9159 18.9753 17.17 19.3274 16.5046C19.4448 16.3071 19.6062 16.1097 19.7235 15.9196C19.6062 15.8757 19.5621 15.9196 19.5255 15.9561C18.8946 16.4241 18.2638 16.8995 17.6769 17.4479C16.9654 18.0695 16.4153 18.8593 16.2612 19.8318C16.1438 20.3876 16.1438 20.9726 16.1438 21.5576C16.1438 23.3638 16.1805 24.9726 16.0632 25.7916C15.9458 26.9324 15.513 27.8684 14.8015 28.6947C14.645 28.8215 14.4885 28.9653 14.332 29.1262L14.1339 29.2797C13.2195 29.933 12.2365 30.4034 11.1851 30.6911C11.7377 30.1938 12.2487 29.6575 12.7182 29.0823C13.6914 27.9318 14.2024 26.6252 14.2513 25.1627L14.332 20.8922C14.332 20.1097 14.4494 19.4077 14.8455 18.6984C14.9628 18.5009 15.0802 18.3474 15.1976 18.1499C15.1169 18.0695 15.0802 18.1499 15.0435 18.1865C14.4127 18.6618 13.7818 19.1298 13.195 19.6417C12.4468 20.3071 11.8966 21.053 11.7353 22.0329C11.6179 22.6179 11.6546 23.2029 11.6546 23.7953C11.6179 25.5942 11.6546 27.2029 11.5812 28.0293C11.4198 29.1262 11.0311 30.1061 10.2828 30.8885C10.1263 31.0445 9.96741 31.1883 9.80604 31.3199L9.61531 31.4735C8.46121 32.312 7.20196 32.8483 5.83757 33.0823C6.8572 32.373 7.72278 31.5174 8.50767 30.5741C9.45638 29.4479 9.96986 28.1414 10.0481 26.6545L10.0848 14.3912C11.5812 13.9964 13.4664 13.6819 15.359 13.6819L15.1976 13.5284C14.4934 13.4114 12.6815 13.4479 10.0848 14.0329L10.1215 10.5448C10.1215 9.80623 10.2388 9.06035 10.5983 8.3949C10.7156 8.19746 10.8697 8.00002 10.987 7.80258C10.9137 7.76601 10.8697 7.80258 10.789 7.84645C10.2021 8.31446 9.53463 8.78247 8.98447 9.29435C8.23626 9.9598 7.6861 10.7422 7.52472 11.7221C7.40735 12.2706 7.45137 12.5485 7.40735 13.1335C7.40735 13.1335 7.40735 13.17 7.40735 14.9397C5.20673 16.0366 3.07945 17.9159 1.70773 20.3071C-0.104122 23.4443 -0.500234 28.0293 0.644092 31.4735C1.66372 34.4936 3.67362 36.7678 6.46842 38.2962C11.2658 40.841 17.0461 40.4095 21.7701 37.8209C24.1688 36.5338 27.7485 32.8848 27.7485 26.6911L27.8218 2.78612C27.8658 2.04024 27.9832 1.30166 28.3353 0.628902C28.4527 0.438774 28.6141 0.241333 28.7314 0.0438925C28.6507 0.00732941 28.57 0.0438925 28.5334 0.0804556Z" fill="white"/>
<path d="M17.6403 11.4077L15.359 9.17736L13.0703 11.4077L15.359 13.6819L17.6403 11.4077ZM19.9216 7.10057L17.6403 4.86292L15.3516 7.10057L17.6403 9.36749L19.9216 7.10057ZM22.1589 11.4077L19.8776 9.17736L17.6403 11.4077L19.8776 13.6819L22.1589 11.4077Z" fill="white"/>
</g>
</g>
<defs>
<clipPath id="clip0_464_1977">
<rect width="117" height="40" fill="white"/>
</clipPath>
</defs>
</svg>
