<svg width="160" height="44" viewBox="0 0 160 44" fill="none" xmlns="http://www.w3.org/2000/svg">
<path d="M160 44H0V0H160V44ZM22.6465 2C15.7595 2 8.87218 2.01444 2 2.0293V41.9844C8.87218 41.9844 15.7595 41.9848 22.6465 42C24.5563 41.9247 26.4363 41.5639 28.2559 41.0225C28.9475 40.7519 29.6388 40.4813 30.3457 40.2256C33.1878 38.767 35.3234 37.0819 37.5342 34.7363C37.5941 34.6013 37.5942 34.5997 38.4355 33.5029C40.1045 30.9466 41.1879 28.3754 41.8047 25.3682C41.8797 24.6011 41.969 23.8344 42.0596 23.0674C42.0292 22.0601 41.9992 21.052 41.9844 20.0596C41.6986 18.18 41.2783 16.5258 40.7217 14.6914C40.3157 13.8642 39.9094 13.0372 39.5186 12.21C38.4059 10.4509 37.2483 8.9469 35.8047 7.45801C32.8272 4.90174 29.6542 3.08224 25.7598 2.36035C25.6997 2.30028 24.8584 2.21087 24.7969 2.15039C24.0751 2.09027 23.3534 2.04526 22.6465 2ZM158.33 2C117.368 2 76.4051 2.01542 35.458 2.03027C36.0596 2.52643 36.6611 3.02317 37.2627 3.53418C39.5936 5.78981 41.3534 8.19613 42.8271 11.083C43.0828 11.7296 43.3385 12.3913 43.5938 13.0527C45.1576 18 45.2326 22.8121 43.7441 27.7891C43.4733 28.4807 43.2029 29.1877 42.9473 29.8945C42.0603 31.7137 41.0227 33.3383 39.8496 34.9775C38.572 36.4806 37.8193 37.1871 37.7285 37.3379C35.5634 39.2476 33.2923 40.7521 30.6611 41.9248C73.2324 41.9248 115.804 41.9392 158.391 41.9541V2.04492C158.361 2.02975 158.345 2.01517 158.33 2ZM20.9023 6.8418C22.1054 6.06006 23.2478 6.57182 23.4434 7.98535C22.7064 9.78967 22.6015 11.4286 22.4512 13.3535C22.4812 13.3684 22.5117 13.384 22.5566 13.4141C24.3912 13.3239 26.2403 13.1579 27.9395 12.4062C29.9996 12.6018 29.8947 15.414 27.8799 15.4141C26.2558 14.602 24.2554 14.4814 22.4658 14.4365C22.586 15.5496 22.7068 19.6237 24.4209 20.0449C24.3304 20.9471 24.2707 21.0077 22.5264 34.0303C22.4657 34.0956 21.9995 37.6695 21.9395 37.7744C21.0974 31.8798 20.1356 25.9397 19.5039 20.0303C20.436 19.5642 20.7068 18.5567 20.9922 17.6094C21.1729 16.587 21.4435 15.4587 21.3682 14.4062C19.579 14.4512 17.624 14.6321 16 15.4141C14 15.4141 13.8649 12.5866 15.9551 12.4062C17.7442 13.098 19.5337 13.3539 21.4434 13.4141C21.3532 11.5344 21.1577 9.75983 20.4512 8.01562C20.4512 7.50421 20.5717 7.21775 20.9023 6.8418ZM117.954 17.835C119.593 17.835 121.127 18.2253 122.676 18.7363C122.646 18.962 122.645 18.9627 121.743 21.3232C121.292 21.2783 121.292 21.2781 120.285 21.0674H118.525C117.308 21.3683 116.48 21.7291 115.623 22.6611C113.939 25.1272 113.653 28.466 116.225 30.4512C116.54 30.6015 116.872 30.7521 117.202 30.9023C118.736 31.1131 120.21 31.0071 121.698 30.541C122.014 30.3909 122.014 30.3906 122.119 30.3906C122.435 30.992 123.006 31.7743 123.127 32.4355C121.307 33.5184 119.428 34.1204 117.308 34.3613C114.676 34.1205 112.946 33.218 111.457 30.9775C111.232 30.5115 111.021 30.0452 110.811 29.5791C109.397 24.1206 112.075 18.5115 117.954 17.835ZM141.342 17.9385C141.403 17.9985 141.846 18.0564 142.867 18.4619C144.717 19.6947 145.273 20.9789 145.469 23.1592C145.454 26.7378 145.459 30.3173 145.459 33.9111C144.346 33.9111 143.244 33.9246 142.146 33.9395C142.042 33.6392 142.045 33.6372 141.819 32.0586C141.774 32.0586 141.724 32.062 141.679 32.0771C140.34 33.4154 138.824 34.3046 136.869 34.3047C133.681 33.8385 132.139 31.1117 132.771 28.0439C134.124 24.3604 138.525 24.3901 141.772 24.1797C141.652 22.7815 141.664 21.6713 140.341 20.9795C139.739 20.8593 139.746 20.8521 139.686 20.792C137.881 20.792 136.453 21.1994 134.754 21.8311C134.453 21.3495 133.754 19.8523 133.874 19.4912C135.558 18.6944 137.353 18.0639 139.218 17.8535C139.925 17.8836 140.635 17.9084 141.342 17.9385ZM65.9844 11.7891C69.1121 11.1122 72.1048 11.489 75.1572 12.3311C74.7966 13.3385 74.4503 14.3612 74.1045 15.3838C72.0595 15.0528 72.0591 15.0528 70.7666 14.9326H69.5625C66.8715 14.9328 64.676 16.4809 63.1875 18.5859C62.7368 19.5471 62.5262 20.194 62.4658 20.2559C61.9244 22.436 62.0743 24.4208 62.7959 26.5107C63.8636 28.556 65.022 29.6392 67.127 30.4512C67.5781 30.5265 68.0292 30.6169 68.4951 30.707C69.4423 30.707 70.977 30.8269 71.7891 30.4209C71.7891 28.7368 71.8035 27.0523 71.8184 25.3682C71.8183 25.3234 71.8056 25.3226 67.9541 25.2627C67.9389 24.1953 67.9385 23.128 67.9385 22.0605V22.0303H75.7285C75.7285 25.5939 75.7436 29.1575 75.7588 32.7363C75.007 32.9916 74.2551 33.2482 73.5186 33.5039C72.2252 33.8045 71.0219 34.1055 69.6836 34.2559C67.8487 34.3312 66.3152 34.1647 64.5557 33.6533C61.1875 32.2549 59.1872 29.8792 58.1797 26.3906C57.6684 23.6389 57.6685 21.293 58.4805 18.5713C59.0219 17.2332 59.7588 16.135 60.6309 14.9775C62.2397 13.3684 63.8341 12.5558 65.9844 11.7891ZM85.5801 17.8818C86.7384 17.8394 87.922 18.0316 89.1455 18.6123C90.574 19.6198 91.1129 20.7812 91.4287 22.4951C91.4439 26.2994 91.4604 30.1069 91.4756 33.9111C90.3477 33.8963 89.2157 33.8838 88.0879 33.8838C88.0878 33.7938 88.0283 33.7315 87.7881 32.124C87.7431 32.1092 87.7155 32.0869 87.6855 32.0869C85.9713 33.6508 84.3319 34.5816 81.9863 34.1455C80.3626 33.5291 79.5608 32.7053 78.8242 31.1416C78.5385 29.8183 78.4775 28.7251 78.9736 27.417C79.3043 26.8308 79.8364 26.3725 80.3027 25.8916C82.573 24.3734 85.0799 24.3266 87.7412 24.1611C87.6811 22.7179 87.624 21.5457 86.1504 20.9141C85.2183 20.7338 84.1483 20.7974 83.2314 21.0078C82.3742 21.2635 81.5374 21.5322 80.6953 21.8027C80.3947 21.0209 80.1012 20.2393 79.8154 19.4727C81.7703 18.6926 83.6495 17.9527 85.5801 17.8818ZM107.307 18.2402C107.322 23.4581 107.337 28.6765 107.353 33.9092C106.074 33.9092 104.811 33.9246 103.548 33.9395H103.442V18.2402H107.307ZM99.292 10.0303V33.9092H95.3828C95.368 25.9695 95.3525 18.0446 95.3525 10.1201V10.0303H99.292ZM130.014 33.9092H126.104V18.2705C127.383 18.2557 128.676 18.2402 129.969 18.2402C129.984 23.4581 129.998 28.6764 130.014 33.9092ZM87.7324 26.6309C85.5217 26.691 81.7752 26.8447 82.2861 29.9717C82.6769 30.8438 83.2633 31.0789 84.1201 31.3193C85.3682 31.1839 87.093 30.647 87.7695 29.5039C87.7547 28.5417 87.7473 27.5782 87.7324 26.6309ZM141.744 26.6123C139.609 26.6724 135.022 27.1116 136.494 30.374C137.893 32.344 140.434 30.739 141.772 29.626C141.758 28.6188 141.744 27.6046 141.744 26.6123ZM104.015 11.0078C105.969 9.7749 107.879 11.2785 107.308 13.5039C106.797 14.3459 106.24 14.6764 105.277 14.7666C103.293 14.5261 102.781 12.391 104.015 11.0078ZM126.314 11.4131C127.277 10.3306 128.751 10.2107 129.743 11.3682C130.465 12.8571 130.014 14.1349 128.51 14.7061C128.314 14.7213 128.119 14.7366 127.938 14.7666C126.27 14.4359 125.518 13.007 126.314 11.4131Z" fill="white"/>
</svg>
