<svg width="80" height="40" viewBox="0 0 80 40" fill="none" xmlns="http://www.w3.org/2000/svg">
<path fill-rule="evenodd" clip-rule="evenodd" d="M1.28418 30.7371V1.11919H78.5151V30.7371H1.28418Z" fill="#6A6E66"/>
<path fill-rule="evenodd" clip-rule="evenodd" d="M12.2981 13.1353V15.2393H11.2808V15.1246C11.2808 14.6171 11.1546 14.244 10.9033 14.0093C10.6515 13.7729 10.2525 13.6556 9.70579 13.6556C8.90952 13.6556 8.29343 13.9289 7.8597 14.4778C7.42597 15.0266 7.20889 15.8053 7.20889 16.8143C7.20889 17.8144 7.43212 18.5997 7.87903 19.1662C8.32595 19.7344 8.93985 20.0182 9.71897 20.0182C10.2784 20.0182 10.68 19.8882 10.9252 19.628C11.1726 19.3679 11.2939 18.9381 11.2939 18.3413H12.2985V20.5781C11.8279 20.7209 11.3568 20.8295 10.8883 20.9011C10.4177 20.9727 9.94485 21.0096 9.46937 21.0096C8.13962 21.0096 7.12232 20.6475 6.41701 19.9251C5.71171 19.2026 5.3584 18.1612 5.3584 16.8011C5.3584 15.4973 5.72929 14.48 6.4715 13.7531C7.21108 13.0263 8.25256 12.6642 9.5911 12.6642C9.98176 12.6642 10.4005 12.7033 10.8492 12.7815C11.2983 12.8597 11.7822 12.9793 12.2981 13.1353ZM16.112 13.8081V16.4526H16.7083C17.2963 16.4526 17.719 16.3529 17.9752 16.1512C18.2314 15.9495 18.3593 15.6199 18.3593 15.162C18.3593 14.6825 18.2358 14.338 17.9906 14.1275C17.7454 13.9148 17.3398 13.8085 16.7733 13.8085H16.112V13.8081ZM13.3786 12.8488H16.6846C17.8689 12.8488 18.724 13.0179 19.2443 13.3541C19.765 13.6903 20.0252 14.2374 20.0252 14.9902C20.0252 15.4779 19.9061 15.8774 19.6649 16.192C19.4262 16.5067 19.0773 16.7167 18.6194 16.8275C18.9341 16.8732 19.1705 16.9791 19.3291 17.1465C19.4873 17.3113 19.6328 17.6391 19.765 18.1313C19.7976 18.253 19.8411 18.4266 19.8907 18.6454C20.045 19.2725 20.179 19.6566 20.2985 19.7976C20.3961 19.9106 20.5108 19.995 20.6479 20.0512C20.7845 20.1057 20.9449 20.1338 21.1317 20.1338H21.1945V20.8255H18.804C18.6128 20.3979 18.4524 19.8644 18.318 19.2246C18.1857 18.5843 18.0899 18.1853 18.0358 18.0293C17.9466 17.7753 17.7994 17.589 17.5911 17.4739C17.385 17.3565 17.0985 17.2981 16.7342 17.2981H16.1115V19.1095C16.1115 19.5001 16.1722 19.7669 16.2957 19.9145C16.4196 20.06 16.6345 20.1338 16.9447 20.1338H17.1095V20.8255C16.8924 20.8167 16.6564 20.8106 16.398 20.8062C16.1401 20.8018 15.7582 20.7991 15.2529 20.7991C14.7365 20.7991 14.3502 20.8018 14.0945 20.8062C13.8365 20.8105 13.6001 20.8167 13.3786 20.8255V20.1338H13.5303C13.8409 20.1338 14.0554 20.06 14.1789 19.9145C14.3028 19.7669 14.3634 19.5001 14.3634 19.1095V14.5516C14.3634 14.1653 14.3028 13.9008 14.1789 13.7536C14.0554 13.6081 13.8405 13.5343 13.5303 13.5343H13.3786V12.8488ZM21.5896 12.8751H28.0542V15.075H27.3168V14.719C27.3168 14.3807 27.2193 14.1442 27.0237 14.0098C26.8286 13.8775 26.4617 13.8098 25.9238 13.8098H24.3225V16.294H24.7738C25.2273 16.294 25.5222 16.2267 25.6566 16.0901C25.7933 15.9556 25.8627 15.6779 25.8671 15.2569L26.572 15.2503V18.144H25.8737C25.8517 17.7274 25.7762 17.4541 25.6478 17.324C25.5178 17.1918 25.2466 17.1267 24.83 17.1267H24.3221V19.8908H25.7779C26.4722 19.8908 26.9126 19.7932 27.0971 19.5977C27.2812 19.4048 27.3792 18.9794 27.392 18.3286H28.1232V20.8255H21.5892V20.1338H21.7412C22.0515 20.1338 22.2663 20.0622 22.3903 19.9211C22.5137 19.7779 22.5744 19.5089 22.5744 19.1099V14.5542C22.5744 14.1684 22.5137 13.9012 22.3903 13.7562C22.2663 13.6107 22.0515 13.5369 21.7412 13.5369H21.5892V12.8751H21.5896ZM31.8097 13.7839V19.8908H32.6429C33.6624 19.8908 34.4107 19.6329 34.8858 19.1165C35.3608 18.598 35.5972 17.7841 35.5972 16.6759C35.5972 15.6801 35.3454 14.9488 34.8401 14.4826C34.3365 14.0159 33.5429 13.7839 32.4583 13.7839H31.8097ZM29.0764 12.8488H32.6429C34.2851 12.8488 35.4997 13.1656 36.2832 13.801C37.0663 14.4369 37.4587 15.4217 37.4587 16.7514C37.4587 18.1159 37.09 19.1354 36.3522 19.8126C35.617 20.4871 34.5083 20.8255 33.0287 20.8255H29.0759V20.1338H29.228C29.5382 20.1338 29.7527 20.06 29.8766 19.9145C30.0001 19.7669 30.0607 19.5001 30.0607 19.1095V14.5516C30.0607 14.1653 30.0001 13.9008 29.8766 13.7536C29.7527 13.6081 29.5382 13.5343 29.228 13.5343H29.0759V12.8488H29.0764ZM38.5674 12.8488C39.0794 12.858 39.4652 12.8641 39.7236 12.8685C39.9815 12.8729 40.2224 12.8751 40.4412 12.8751C40.6539 12.8751 40.8903 12.8734 41.1487 12.8685C41.4067 12.8641 41.7929 12.858 42.3049 12.8488V13.5347H42.133C41.8232 13.5347 41.6084 13.6086 41.4844 13.754C41.361 13.9012 41.2999 14.1662 41.2999 14.552V19.1099C41.2999 19.5006 41.3631 19.7673 41.4866 19.915C41.6123 20.0604 41.8272 20.1343 42.133 20.1343H42.3049V20.8259C42.0838 20.8171 41.847 20.811 41.589 20.8066C41.3328 20.8022 40.951 20.7996 40.4412 20.7996C39.9253 20.7996 39.539 20.8022 39.2828 20.8066C39.0249 20.811 38.7885 20.8171 38.567 20.8259V20.1343H38.719C39.0293 20.1343 39.2437 20.0604 39.3676 19.915C39.4911 19.7673 39.5518 19.5006 39.5518 19.1099V14.5516C39.5518 14.1653 39.4907 13.9008 39.3676 13.7536C39.2437 13.6081 39.0288 13.5343 38.719 13.5343H38.567V12.8488H38.5674ZM50.2535 13.1353V15.2393H49.2362V15.1246C49.2362 14.6171 49.1105 14.244 48.8591 14.0093C48.6073 13.7729 48.2083 13.6556 47.6612 13.6556C46.865 13.6556 46.2489 13.9289 45.8151 14.4778C45.3814 15.0266 45.1648 15.8053 45.1648 16.8143C45.1648 17.8144 45.388 18.5997 45.8349 19.1662C46.2818 19.7344 46.8957 20.0182 47.6748 20.0182C48.2343 20.0182 48.6359 19.8882 48.8807 19.628C49.1281 19.3679 49.2498 18.9381 49.2498 18.3413H50.2539V20.5781C49.7833 20.7209 49.3122 20.8295 48.8438 20.9011C48.3731 20.9727 47.9003 21.0096 47.4248 21.0096C46.0951 21.0096 45.0777 20.6475 44.3724 19.9251C43.6676 19.2026 43.3143 18.1612 43.3143 16.8011C43.3143 15.4973 43.6852 14.48 44.4269 13.7531C45.167 13.0263 46.208 12.6642 47.5465 12.6642C47.9372 12.6642 48.356 12.7033 48.8046 12.7815C49.2538 12.8597 49.7376 12.9793 50.2535 13.1353ZM55.4864 13.6428C54.7947 13.6428 54.2651 13.914 53.8987 14.4567C53.5317 14.9989 53.3498 15.7842 53.3498 16.8147C53.3498 17.8369 53.5339 18.6195 53.903 19.1644C54.2717 19.7089 54.7986 19.98 55.4868 19.98C56.1767 19.98 56.7058 19.7089 57.0723 19.1684C57.4392 18.6283 57.6212 17.8452 57.6212 16.8147C57.6212 15.7798 57.4392 14.9946 57.0749 14.4545C56.7098 13.914 56.1807 13.6428 55.4864 13.6428ZM55.4864 12.6646C56.7511 12.6646 57.738 13.0267 58.4412 13.7536C59.1443 14.4804 59.4954 15.5065 59.4954 16.8275C59.4954 18.1506 59.1438 19.1767 58.4412 19.9101C57.7385 20.6436 56.7511 21.0101 55.4864 21.0101C54.2194 21.0101 53.2325 20.6436 52.5294 19.9101C51.8262 19.1767 51.4751 18.1506 51.4751 16.8275C51.4751 15.5065 51.8267 14.4804 52.5276 13.7536C53.2276 13.0267 54.215 12.6646 55.4864 12.6646ZM64.6759 13.6428C63.9838 13.6428 63.4547 13.914 63.0878 14.4567C62.7213 14.9989 62.5389 15.7842 62.5389 16.8147C62.5389 17.8369 62.7235 18.6195 63.0922 19.1644C63.4613 19.7089 63.9882 19.98 64.6759 19.98C65.3654 19.98 65.895 19.7089 66.2615 19.1684C66.6284 18.6283 66.8103 17.8452 66.8103 16.8147C66.8103 15.7798 66.6284 14.9946 66.2637 14.4545C65.8994 13.914 65.3698 13.6428 64.6759 13.6428ZM64.6759 12.6646C65.9407 12.6646 66.9276 13.0267 67.6308 13.7536C68.3339 14.4804 68.685 15.5065 68.685 16.8275C68.685 18.1506 68.3334 19.1767 67.6308 19.9101C66.9281 20.6436 65.9407 21.0101 64.6759 21.0101C63.409 21.0101 62.4216 20.6436 61.719 19.9101C61.0158 19.1767 60.6647 18.1506 60.6647 16.8275C60.6647 15.5065 61.0163 14.4804 61.7172 13.7536C62.4172 13.0267 63.4042 12.6646 64.6759 12.6646ZM72.3965 13.7711V16.6196H73.082C73.5834 16.6196 73.9561 16.4957 74.2061 16.2487C74.4557 15.9991 74.5814 15.626 74.5814 15.1251C74.5814 14.6887 74.4491 14.3547 74.1846 14.1205C73.92 13.8885 73.5448 13.7716 73.0587 13.7716H72.3965V13.7711ZM69.6434 12.8488H72.9691C74.1534 12.8488 75.0059 13.0311 75.5227 13.3954C76.039 13.7602 76.2974 14.3525 76.2974 15.1743C76.2974 15.9723 76.0672 16.5581 75.6075 16.9338C75.1474 17.3091 74.4316 17.4954 73.4573 17.4954H72.3965V19.1095C72.3965 19.5001 72.4571 19.7686 72.5811 19.9145C72.7045 20.06 72.9194 20.1338 73.2297 20.1338H73.3817V20.8255C73.1602 20.8167 72.9238 20.8106 72.6659 20.8062C72.4097 20.8018 72.0282 20.7991 71.5185 20.7991C71.0065 20.7991 70.6203 20.8018 70.3623 20.8062C70.1039 20.8105 69.8653 20.8167 69.6438 20.8255V20.1338H69.8157C70.1211 20.1338 70.3364 20.06 70.4621 19.9145C70.5856 19.7691 70.6488 19.5001 70.6488 19.1095V14.5516C70.6488 14.1653 70.5878 13.9008 70.4643 13.7536C70.3408 13.6081 70.1255 13.5343 69.8157 13.5343H69.6438V12.8488H69.6434Z" fill="white"/>
<path fill-rule="evenodd" clip-rule="evenodd" d="M29.6218 7.20853V8.83973H30.172C30.48 8.83973 30.7195 8.77118 30.8891 8.63539C31.0587 8.49785 31.1427 8.30669 31.1427 8.05797C31.1427 7.77936 31.0587 7.56843 30.8891 7.42473C30.7195 7.28104 30.4695 7.20853 30.1408 7.20853H29.6218ZM29.6218 5.22752V6.71108H30.1192C30.4027 6.71108 30.6162 6.64648 30.7626 6.51816C30.9076 6.38853 30.9801 6.19737 30.9801 5.94469C30.9801 5.70388 30.9089 5.52547 30.7652 5.40594C30.6228 5.28685 30.4079 5.22752 30.1192 5.22752H29.6218ZM28.0059 4.65537H30.2897C30.8606 4.65537 31.2868 4.75513 31.5676 4.95419C31.8484 5.15502 31.9886 5.45779 31.9886 5.86559C31.9886 6.13893 31.9174 6.3626 31.7764 6.53618C31.6353 6.71064 31.4213 6.84027 31.1357 6.92333C31.4802 6.98133 31.7377 7.10702 31.9099 7.29861C32.0822 7.49153 32.1675 7.75167 32.1675 8.08082C32.1675 8.52993 32.0211 8.86522 31.7276 9.08538C31.4349 9.30554 30.988 9.4154 30.389 9.4154H28.0068V9.00233H28.0978C28.2828 9.00233 28.4111 8.9597 28.4849 8.87533C28.5583 8.79007 28.5948 8.62924 28.5948 8.39106V5.67092C28.5948 5.44065 28.5583 5.28246 28.4849 5.19457C28.4111 5.108 28.2828 5.06361 28.0978 5.06361H28.0068V4.65537H28.0059ZM35.1359 5.23544L34.4275 7.216H35.77L35.1359 5.23544ZM34.5514 4.65537H35.8267L37.1991 8.25176C37.3208 8.56245 37.4245 8.76195 37.5124 8.85116C37.599 8.93949 37.7132 8.98958 37.8516 9.00277V9.41584C37.7246 9.41058 37.5849 9.4066 37.432 9.40442C37.279 9.40224 37.0514 9.40047 36.7469 9.40047C36.4441 9.40047 36.216 9.40168 36.0649 9.40442C35.9133 9.40707 35.7722 9.41102 35.6404 9.41584V9.00672C35.8632 8.99661 36.017 8.96541 36.1009 8.91356C36.1848 8.86171 36.2279 8.77514 36.2279 8.65341C36.2279 8.6187 36.2217 8.5708 36.2086 8.50971C36.1971 8.44863 36.1774 8.37744 36.1532 8.29746L35.9822 7.79254H34.2333L34.0324 8.39985C34.0118 8.45786 33.9973 8.50751 33.9881 8.54706C33.9793 8.58837 33.9753 8.62616 33.9753 8.66088C33.9753 8.78261 34.01 8.86698 34.0786 8.91356C34.1484 8.96014 34.304 8.99134 34.5435 9.00672V9.41584C34.4152 9.41058 34.2768 9.4066 34.1296 9.40442C33.9806 9.40178 33.7617 9.40047 33.4704 9.40047C33.1883 9.40047 32.9769 9.40168 32.8411 9.40442C32.704 9.40707 32.5783 9.41102 32.4619 9.41584V9.00672C32.5977 8.99882 32.7141 8.94344 32.809 8.83973C32.904 8.73602 33.0059 8.54706 33.1144 8.27417L34.5514 4.65537ZM38.0006 4.65537H39.9205L41.7446 8.55498L41.7209 5.6718C41.7209 5.43626 41.6849 5.27718 41.6111 5.19149C41.5372 5.10756 41.4089 5.06449 41.2239 5.06449H41.1294V4.65537H41.1527C41.5829 4.66548 41.9077 4.6712 42.1278 4.6712C42.3506 4.6712 42.682 4.66592 43.1205 4.65537H43.1443V5.06449H43.0498C42.8643 5.06449 42.7365 5.10887 42.6626 5.19544C42.5888 5.28333 42.5523 5.44153 42.5523 5.6718V9.41584H41.2318L39.4077 5.53074L39.4235 8.39194C39.4235 8.62748 39.4596 8.78788 39.5334 8.87357C39.6072 8.96014 39.7351 9.00277 39.9205 9.00277H40.015V9.41584C39.8959 9.41058 39.7676 9.4066 39.6305 9.40442C39.4921 9.40178 39.2847 9.40047 39.0087 9.40047C38.734 9.40047 38.5275 9.40168 38.3886 9.40442C38.2515 9.40707 38.1223 9.41102 38.0002 9.41584V9.00277H38.0947C38.2797 9.00277 38.4093 8.95882 38.4858 8.86961C38.5622 8.78173 38.5996 8.62221 38.5996 8.39194V5.6718C38.5996 5.44373 38.5622 5.28597 38.4858 5.19808C38.4093 5.10887 38.2801 5.06449 38.0947 5.06449H38.0002V4.65537H38.0006ZM47.8124 4.82631V6.0818H47.2056V6.01325C47.2056 5.71047 47.13 5.48767 46.9801 5.34793C46.8299 5.20687 46.5912 5.137 46.2652 5.137C45.7901 5.137 45.4223 5.30003 45.1635 5.62742C44.9047 5.9548 44.775 6.41973 44.775 7.02176C44.775 7.61852 44.9086 8.08741 45.1749 8.42534C45.4412 8.76415 45.8077 8.93421 46.2726 8.93421C46.6071 8.93421 46.8466 8.85643 46.9929 8.70087C47.1405 8.54531 47.213 8.28911 47.213 7.93316H47.812V9.26819C47.5308 9.35344 47.2504 9.41848 46.9705 9.4611C46.6897 9.50373 46.4076 9.5257 46.1237 9.5257C45.33 9.5257 44.7227 9.30949 44.3022 8.8784C43.8812 8.44731 43.6703 7.82594 43.6703 7.01429C43.6703 6.23604 43.8918 5.62917 44.3343 5.19544C44.7759 4.76172 45.3973 4.54551 46.1962 4.54551C46.4287 4.54551 46.6791 4.5688 46.9468 4.61538C47.2157 4.66196 47.5044 4.73315 47.8124 4.82631ZM50.9351 5.12909C50.522 5.12909 50.2061 5.29081 49.9872 5.61467C49.7688 5.9381 49.6599 6.40698 49.6599 7.02176C49.6599 7.63127 49.7702 8.09883 49.9899 8.42358C50.21 8.74877 50.5251 8.91048 50.9351 8.91048C51.3469 8.91048 51.6624 8.74877 51.8812 8.42622C52.1001 8.10411 52.2086 7.63654 52.2086 7.02176C52.2086 6.40435 52.1001 5.93546 51.8826 5.61335C51.665 5.29081 51.3495 5.12909 50.9351 5.12909ZM50.9351 4.54507C51.6896 4.54507 52.2789 4.76128 52.6982 5.19501C53.1178 5.62874 53.3279 6.24088 53.3279 7.02923C53.3279 7.81891 53.1178 8.43105 52.6982 8.86917C52.2789 9.30686 51.6896 9.5257 50.9351 9.5257C50.1788 9.5257 49.5896 9.30686 49.1703 8.86917C48.7507 8.43149 48.541 7.81935 48.541 7.02923C48.541 6.24088 48.7507 5.6283 49.169 5.19501C49.5874 4.76172 50.1766 4.54507 50.9351 4.54507Z" fill="white"/>
<path fill-rule="evenodd" clip-rule="evenodd" d="M22.6411 25.219V25.7648H22.377V25.7349C22.377 25.6031 22.3445 25.5064 22.279 25.4458C22.2135 25.3843 22.1103 25.3544 21.9683 25.3544C21.7618 25.3544 21.6018 25.4251 21.4893 25.5671C21.3768 25.7099 21.3206 25.9116 21.3206 26.1739C21.3206 26.4332 21.3786 26.6371 21.4946 26.7843C21.6106 26.9315 21.7697 27.0054 21.9718 27.0054C22.1173 27.0054 22.2214 26.9715 22.2847 26.9043C22.3489 26.8371 22.3805 26.7254 22.3805 26.5703H22.6411V27.1504C22.5189 27.1877 22.3968 27.2159 22.2751 27.2343C22.1529 27.2528 22.0298 27.2624 21.9068 27.2624C21.5614 27.2624 21.2977 27.1684 21.1149 26.9808C20.9317 26.7931 20.8398 26.5229 20.8398 26.17C20.8398 25.8312 20.9361 25.5675 21.129 25.3785C21.321 25.19 21.5913 25.096 21.9384 25.096C22.0395 25.096 22.1485 25.1061 22.2649 25.1263C22.3818 25.1474 22.5075 25.1786 22.6411 25.219ZM23.999 25.3504C23.8197 25.3504 23.6821 25.4207 23.5868 25.5618C23.4919 25.702 23.4444 25.9059 23.4444 26.1739C23.4444 26.4389 23.4923 26.6419 23.5881 26.7834C23.6839 26.9249 23.8206 26.9953 23.999 26.9953C24.1783 26.9953 24.3154 26.9245 24.4107 26.7848C24.5061 26.6446 24.5531 26.4411 24.5531 26.1739C24.5531 25.905 24.5061 25.7015 24.4112 25.5609C24.3163 25.4203 24.1792 25.3504 23.999 25.3504ZM23.999 25.0969C24.3272 25.0969 24.5834 25.1909 24.7658 25.3794C24.9482 25.5684 25.0396 25.8342 25.0396 26.177C25.0396 26.5207 24.9482 26.787 24.7658 26.9768C24.5834 27.1675 24.3272 27.2624 23.999 27.2624C23.6703 27.2624 23.4141 27.1671 23.2317 26.9768C23.0494 26.7865 22.958 26.5207 22.958 26.177C22.958 25.8342 23.0494 25.5679 23.2313 25.3794C23.4132 25.1909 23.6694 25.0969 23.999 25.0969ZM26.3838 25.3504C26.2045 25.3504 26.067 25.4207 25.9716 25.5618C25.8767 25.702 25.8293 25.9059 25.8293 26.1739C25.8293 26.4389 25.8772 26.6419 25.973 26.7834C26.0688 26.9245 26.2054 26.9953 26.3838 26.9953C26.5631 26.9953 26.7002 26.9245 26.7956 26.7848C26.8905 26.6446 26.938 26.4411 26.938 26.1739C26.938 25.905 26.8909 25.7015 26.7965 25.5609C26.7016 25.4207 26.564 25.3504 26.3838 25.3504ZM26.3838 25.0969C26.7121 25.0969 26.9683 25.1909 27.1507 25.3794C27.3335 25.5684 27.4244 25.8342 27.4244 26.177C27.4244 26.5207 27.3335 26.787 27.1507 26.9768C26.9683 27.1675 26.7121 27.2624 26.3838 27.2624C26.0551 27.2624 25.7989 27.1671 25.6166 26.9768C25.4342 26.7865 25.3428 26.5207 25.3428 26.177C25.3428 25.8342 25.4342 25.5679 25.6161 25.3794C25.7981 25.1909 26.0543 25.0969 26.3838 25.0969ZM28.3877 25.3838V26.123H28.5657C28.6957 26.123 28.7924 26.0913 28.857 26.0267C28.9216 25.9621 28.9546 25.865 28.9546 25.7349C28.9546 25.622 28.9203 25.5354 28.8513 25.4743C28.7827 25.4141 28.6852 25.3838 28.5591 25.3838H28.3877ZM27.6732 25.1448H28.5362C28.8438 25.1448 29.0649 25.1918 29.1989 25.2863C29.3329 25.3807 29.3997 25.5345 29.3997 25.7481C29.3997 25.9551 29.34 26.1071 29.2209 26.2043C29.1013 26.3018 28.9159 26.3502 28.6628 26.3502H28.3877V26.7689C28.3877 26.87 28.4035 26.9403 28.4356 26.9781C28.4677 27.0159 28.5235 27.0352 28.6039 27.0352H28.6434V27.2145C28.5859 27.2124 28.5244 27.2106 28.4576 27.2093C28.3912 27.2083 28.2923 27.2076 28.1596 27.2076C28.0269 27.2076 27.9263 27.2085 27.8595 27.2093C27.7922 27.2105 27.7307 27.2123 27.6732 27.2145V27.0352H27.7175C27.7971 27.0352 27.8529 27.0159 27.8854 26.9781C27.9175 26.9403 27.9337 26.8705 27.9337 26.7689V25.5864C27.9337 25.4862 27.9179 25.4177 27.8858 25.379C27.8538 25.3412 27.798 25.3223 27.7175 25.3223H27.6732V25.1448ZM29.6344 25.1514H31.3117V25.7222H31.1201V25.6299C31.1201 25.542 31.0946 25.4809 31.0441 25.4458C30.9936 25.4115 30.8982 25.3939 30.7589 25.3939H30.3432V26.039H30.4605C30.5783 26.039 30.6548 26.0215 30.6895 25.9859C30.7251 25.9511 30.7431 25.8791 30.7444 25.7701L30.9272 25.7684V26.5194H30.7462C30.7405 26.4113 30.7207 26.3401 30.6873 26.3067C30.6539 26.2724 30.5831 26.2553 30.475 26.2553H30.3432V26.9729H30.7211C30.9013 26.9729 31.0155 26.9474 31.0634 26.8964C31.1109 26.8468 31.1364 26.7365 31.1399 26.5673H31.3297V27.2155H29.6339V27.0362H29.6731C29.7539 27.0362 29.8093 27.0173 29.8414 26.9808C29.8734 26.9435 29.8893 26.874 29.8893 26.7703V25.5882C29.8893 25.488 29.8734 25.419 29.8414 25.3812C29.8093 25.3435 29.7535 25.3241 29.6731 25.3241H29.6339V25.1514L29.6344 25.1514ZM32.2864 25.3935V26.0799H32.4411C32.5936 26.0799 32.7034 26.054 32.7698 26.0017C32.8362 25.9494 32.8695 25.8641 32.8695 25.745C32.8695 25.6207 32.837 25.531 32.7738 25.4765C32.71 25.4212 32.605 25.3939 32.4578 25.3939H32.2864V25.3935ZM31.5767 25.1448H32.4349C32.7421 25.1448 32.964 25.1887 33.0994 25.2757C33.2343 25.3627 33.302 25.5047 33.302 25.7002C33.302 25.8268 33.2708 25.9305 33.2084 26.0122C33.1464 26.094 33.0559 26.1485 32.9372 26.177C33.019 26.1889 33.08 26.2166 33.1213 26.2596C33.1622 26.3027 33.2 26.3875 33.2343 26.5154C33.2426 26.5466 33.2541 26.5918 33.2668 26.649C33.3068 26.8116 33.3419 26.9113 33.3727 26.9478C33.3978 26.9768 33.4276 26.9992 33.4632 27.0137C33.4988 27.0278 33.5401 27.0352 33.5889 27.0352H33.6052V27.2145H32.9847C32.935 27.1038 32.8933 26.9654 32.8586 26.7992C32.8239 26.6331 32.7992 26.5294 32.7852 26.489C32.7623 26.4235 32.7237 26.3747 32.6696 26.3449C32.616 26.3145 32.5417 26.2992 32.4472 26.2992H32.286V26.7689C32.286 26.87 32.3018 26.9399 32.3334 26.9781C32.3655 27.0159 32.4213 27.0352 32.5017 27.0352H32.5448V27.2145C32.4886 27.2123 32.427 27.2106 32.3602 27.2092C32.293 27.2083 32.1941 27.2075 32.0627 27.2075C31.9287 27.2075 31.8285 27.2085 31.7622 27.2092C31.6954 27.2104 31.6338 27.2123 31.5763 27.2145V27.0352H31.6158C31.6962 27.0352 31.7521 27.0159 31.7841 26.9781C31.8162 26.9399 31.8316 26.8704 31.8316 26.7689V25.5864C31.8316 25.4862 31.8158 25.4176 31.7841 25.379C31.7516 25.3412 31.6962 25.3223 31.6158 25.3223H31.5763V25.1448L31.5767 25.1448ZM34.6343 25.397L34.3263 26.2583H34.9099L34.6343 25.397ZM34.3808 25.1448H34.9349L35.5317 26.7087C35.5849 26.8436 35.6297 26.9307 35.6679 26.9693C35.7057 27.0076 35.7554 27.03 35.8156 27.0352V27.2145C35.7606 27.2124 35.6995 27.2106 35.6332 27.2093C35.5668 27.2083 35.4675 27.2076 35.3353 27.2076C35.2034 27.2076 35.1045 27.2085 35.0386 27.2093C34.9727 27.2105 34.9112 27.2123 34.8541 27.2145V27.037C34.9507 27.0322 35.018 27.019 35.0545 26.9961C35.0909 26.9737 35.1094 26.9359 35.1094 26.8832C35.1094 26.8678 35.1067 26.8467 35.1006 26.8204C35.0958 26.7935 35.0874 26.7628 35.0764 26.7281L35.0022 26.5084H34.2419L34.1545 26.7725C34.1452 26.7979 34.1391 26.819 34.1356 26.8366C34.1316 26.8546 34.1298 26.8709 34.1298 26.8858C34.1298 26.9386 34.1452 26.9755 34.1751 26.9957C34.2054 27.0159 34.2731 27.0295 34.3772 27.0366V27.2141C34.3214 27.2119 34.2612 27.2101 34.1971 27.2088C34.1325 27.2078 34.0371 27.2071 33.9106 27.2071C33.7875 27.2071 33.6961 27.2081 33.6368 27.2088C33.577 27.21 33.5225 27.2119 33.472 27.2141V27.0366C33.5309 27.033 33.5819 27.0089 33.6227 26.9636C33.6636 26.9183 33.708 26.8366 33.7554 26.7175L34.3808 25.1448ZM35.6956 25.1448C35.8595 25.1448 36.0348 25.146 36.2234 25.1496C36.2774 25.1508 36.3108 25.1513 36.324 25.1513H36.8948C36.9089 25.1513 36.9445 25.1508 37.0003 25.1496C37.195 25.1461 37.3756 25.1448 37.543 25.1448V25.7679H37.3202V25.7147C37.3202 25.5877 37.2987 25.502 37.2565 25.4585C37.2139 25.4155 37.1282 25.3935 36.9972 25.3935H36.8469V26.7694C36.8469 26.8705 36.8632 26.9403 36.8953 26.9786C36.9282 27.0163 36.9845 27.0357 37.0649 27.0357H37.1356V27.215C37.0746 27.2128 37.0078 27.211 36.9375 27.2097C36.8671 27.2087 36.7621 27.208 36.6206 27.208C36.4787 27.208 36.3723 27.209 36.3011 27.2097C36.2304 27.2109 36.1645 27.2128 36.1043 27.215V27.0357H36.1755C36.255 27.0357 36.3108 27.0163 36.3429 26.9786C36.375 26.9403 36.3917 26.8709 36.3917 26.7694V25.3935H36.2084C36.092 25.3935 36.012 25.4146 35.9694 25.4559C35.9267 25.4968 35.9052 25.5719 35.9052 25.6809C35.9052 25.7028 35.9057 25.72 35.9062 25.7323C35.9067 25.7437 35.9071 25.7565 35.9084 25.7683H35.6957L35.6956 25.1448ZM37.7495 25.1448C37.8823 25.1469 37.9825 25.1487 38.0497 25.1496C38.1165 25.1508 38.1789 25.1513 38.236 25.1513C38.2909 25.1513 38.3525 25.1508 38.4193 25.1496C38.486 25.1486 38.5862 25.1469 38.7194 25.1448V25.3223H38.675C38.5946 25.3223 38.5388 25.3412 38.5067 25.379C38.4746 25.4177 38.4592 25.4862 38.4592 25.5864V26.7689C38.4592 26.87 38.4755 26.9399 38.5076 26.9781C38.5405 27.0159 38.5959 27.0352 38.6754 27.0352H38.7198V27.2145C38.6627 27.2124 38.6012 27.2106 38.5344 27.2093C38.468 27.2083 38.3687 27.2076 38.2364 27.2076C38.1024 27.2076 38.0022 27.2085 37.9354 27.2093C37.8686 27.2105 37.8071 27.2123 37.75 27.2145V27.0352H37.7891C37.8699 27.0352 37.9253 27.0159 37.9574 26.9781C37.9895 26.9399 38.0053 26.8705 38.0053 26.7689V25.5864C38.0053 25.4862 37.9895 25.4177 37.9574 25.379C37.9253 25.3412 37.8695 25.3223 37.7891 25.3223H37.75V25.1448H37.7495ZM38.8455 25.1448C38.9207 25.1469 38.9874 25.1487 39.0468 25.1496C39.1065 25.1508 39.1645 25.1513 39.2217 25.1513C39.3087 25.1513 39.4577 25.1491 39.669 25.1447C39.6919 25.1447 39.7095 25.1447 39.7222 25.1447V25.3222C39.6163 25.3271 39.5491 25.3363 39.5209 25.3517C39.4919 25.3671 39.4779 25.3947 39.4779 25.4343C39.4779 25.4453 39.4796 25.4584 39.4827 25.4743C39.4862 25.4897 39.4915 25.5064 39.499 25.5248L39.9547 26.8466L40.3901 25.5318C40.3945 25.5178 40.398 25.5033 40.3998 25.4879C40.4025 25.4734 40.4033 25.4585 40.4033 25.4444C40.4033 25.4013 40.3844 25.3701 40.3466 25.3508C40.308 25.3314 40.246 25.3222 40.1608 25.3222V25.1447C40.17 25.1447 40.1818 25.1447 40.1981 25.1447C40.3888 25.1491 40.5264 25.1513 40.6125 25.1513C40.6644 25.1513 40.7188 25.1508 40.7777 25.1496C40.8357 25.1486 40.9118 25.1469 41.0054 25.1448V25.3223C40.9487 25.3333 40.9047 25.3544 40.8735 25.386C40.8414 25.4168 40.8129 25.4686 40.7892 25.5389L40.1805 27.2479H39.6906L39.0622 25.5521C39.0314 25.4678 39.0002 25.4093 38.9699 25.3777C38.9391 25.3456 38.8978 25.328 38.8459 25.3232V25.1448H38.8455ZM42.1519 25.3504C41.9726 25.3504 41.835 25.4207 41.7397 25.5618C41.6443 25.702 41.5973 25.9059 41.5973 26.1739C41.5973 26.4389 41.6448 26.6419 41.7406 26.7834C41.8368 26.9245 41.973 26.9953 42.1519 26.9953C42.3307 26.9953 42.4683 26.9245 42.5636 26.7848C42.659 26.6446 42.706 26.4411 42.706 26.1739C42.706 25.905 42.659 25.7015 42.5641 25.5609C42.4696 25.4207 42.332 25.3504 42.1519 25.3504ZM42.1519 25.0969C42.4801 25.0969 42.7363 25.1909 42.9187 25.3794C43.1011 25.5684 43.1925 25.8342 43.1925 26.177C43.1925 26.5207 43.1011 26.787 42.9187 26.9768C42.7363 27.1675 42.4801 27.2624 42.1519 27.2624C41.8232 27.2624 41.567 27.1671 41.3846 26.9768C41.2022 26.7865 41.1108 26.5207 41.1108 26.177C41.1108 25.8342 41.2022 25.5679 41.3837 25.3794C41.5657 25.1909 41.8223 25.0969 42.1519 25.0969ZM44.4225 25.1448C44.5631 25.1469 44.669 25.1487 44.7402 25.1496C44.8109 25.1508 44.8764 25.1513 44.9353 25.1513C44.9951 25.1513 45.0601 25.1508 45.1317 25.1496C45.2034 25.1486 45.3057 25.1469 45.4385 25.1448V25.3223H45.3479C45.2671 25.3223 45.2113 25.3412 45.1792 25.379C45.1475 25.4177 45.1317 25.4862 45.1317 25.5864V26.9641H45.4222C45.5988 26.9641 45.7118 26.9386 45.761 26.888C45.8102 26.8375 45.8357 26.7307 45.8379 26.5668H46.0295V27.215H44.4229V27.0357H44.4624C44.5429 27.0357 44.5987 27.0163 44.6308 26.9786C44.6628 26.9408 44.6782 26.8709 44.6782 26.7694V25.5868C44.6782 25.4867 44.6628 25.4181 44.6308 25.3794C44.5987 25.3416 44.5429 25.3227 44.4624 25.3227H44.4229V25.1448H44.4225ZM46.2026 25.1448C46.3358 25.1469 46.4355 25.1487 46.5028 25.1496C46.5696 25.1508 46.6324 25.1513 46.6891 25.1513C46.7445 25.1513 46.806 25.1508 46.8728 25.1496C46.9396 25.1486 47.0402 25.1469 47.1729 25.1448V25.3223H47.1285C47.0477 25.3223 46.9919 25.3412 46.9598 25.379C46.9282 25.4177 46.9123 25.4862 46.9123 25.5864V26.7689C46.9123 26.87 46.9286 26.9399 46.9607 26.9781C46.9932 27.0159 47.049 27.0352 47.1285 27.0352H47.1729V27.2145C47.1158 27.2124 47.0543 27.2106 46.987 27.2093C46.9211 27.2083 46.8218 27.2076 46.6891 27.2076C46.5551 27.2076 46.4553 27.2085 46.3885 27.2093C46.3217 27.2105 46.2602 27.2123 46.2026 27.2145V27.0352H46.2422C46.3226 27.0352 46.3784 27.0159 46.4105 26.9781C46.4426 26.9399 46.458 26.8705 46.458 26.7689V25.5864C46.458 25.4862 46.4426 25.4177 46.4105 25.379C46.3784 25.3412 46.3226 25.3223 46.2422 25.3223H46.2026V25.1448ZM47.4142 25.1448C47.5385 25.1469 47.6326 25.1487 47.6963 25.1496C47.7605 25.1508 47.8189 25.1513 47.8725 25.1513C47.9266 25.1513 47.985 25.1508 48.0474 25.1496C48.1098 25.1486 48.2039 25.1469 48.3295 25.1448L48.7483 26.525C48.7615 26.5694 48.7738 26.6165 48.7857 26.6666C48.7967 26.7162 48.8072 26.7689 48.816 26.8256C48.8217 26.7795 48.8292 26.7311 48.8406 26.6828C48.852 26.6336 48.8661 26.5813 48.8837 26.525L49.3161 25.1448C49.4167 25.1469 49.4989 25.1487 49.5617 25.1496C49.6241 25.1508 49.683 25.1513 49.7384 25.1513C49.8307 25.1513 49.977 25.1491 50.1765 25.1447H50.2081V25.3222H50.1633C50.0829 25.3222 50.0267 25.3394 49.995 25.375C49.9629 25.4097 49.9471 25.4743 49.9471 25.5666V25.5863L49.9669 26.7676C49.9695 26.8748 49.9862 26.9455 50.017 26.9816C50.0482 27.0172 50.1036 27.0352 50.1831 27.0352H50.2244V27.2145C50.169 27.2123 50.1106 27.2105 50.0478 27.2092C49.9849 27.2082 49.8922 27.2075 49.7669 27.2075C49.647 27.2075 49.5565 27.2085 49.4958 27.2092C49.4361 27.2104 49.3802 27.2123 49.3288 27.2145V27.0352H49.3732C49.4527 27.0352 49.5086 27.0158 49.5411 26.978C49.5732 26.9398 49.5894 26.8704 49.5894 26.7689V25.3455L49.0041 27.2145H48.5906L48.0263 25.3569V26.7689C48.0263 26.8699 48.0422 26.9398 48.0742 26.978C48.1059 27.0158 48.1617 27.0352 48.2425 27.0352H48.2821V27.2145C48.2337 27.2123 48.1801 27.2105 48.1208 27.2092C48.0624 27.2082 47.9718 27.2075 47.8505 27.2075C47.7284 27.2075 47.6361 27.2085 47.5728 27.2092C47.51 27.2104 47.4524 27.2123 47.3984 27.2145V27.0352H47.4379C47.5174 27.0352 47.5724 27.0172 47.604 26.9802C47.6348 26.9442 47.6515 26.8739 47.6541 26.7693L47.6756 25.5868V25.5705C47.6756 25.4787 47.6585 25.415 47.6255 25.378C47.5917 25.3416 47.535 25.3231 47.4542 25.3231H47.4146V25.1447L47.4142 25.1448ZM50.4679 25.1448C50.6006 25.1469 50.7008 25.1487 50.768 25.1496C50.8348 25.1508 50.8976 25.1513 50.9543 25.1513C51.0097 25.1513 51.0712 25.1508 51.138 25.1496C51.2048 25.1486 51.305 25.1469 51.4381 25.1448V25.3223H51.3933C51.3129 25.3223 51.2571 25.3412 51.225 25.379C51.1934 25.4177 51.1771 25.4862 51.1771 25.5864V26.7689C51.1771 26.87 51.1938 26.9399 51.2255 26.9781C51.258 27.0159 51.3138 27.0352 51.3933 27.0352H51.4381V27.2145C51.3806 27.2124 51.3191 27.2106 51.2523 27.2093C51.1859 27.2083 51.0866 27.2076 50.9543 27.2076C50.8203 27.2076 50.7201 27.2085 50.6537 27.2093C50.5869 27.2105 50.5254 27.2123 50.4679 27.2145V27.0352H50.5074C50.5878 27.0352 50.6436 27.0159 50.6757 26.9781C50.7078 26.9399 50.7232 26.8705 50.7232 26.7689V25.5864C50.7232 25.4862 50.7078 25.4177 50.6757 25.379C50.6436 25.3412 50.5878 25.3223 50.5074 25.3223H50.4679V25.1448ZM51.6253 25.1448C51.7893 25.1448 51.9646 25.146 52.1527 25.1496C52.2067 25.1508 52.2401 25.1513 52.2533 25.1513H52.8241C52.8382 25.1513 52.8738 25.1508 52.9292 25.1496C53.1238 25.1461 53.3049 25.1448 53.4719 25.1448V25.7679H53.2491V25.7147C53.2491 25.5877 53.2276 25.502 53.1854 25.4585C53.1427 25.4155 53.0566 25.3935 52.9261 25.3935H52.7758V26.7694C52.7758 26.8705 52.7921 26.9403 52.8237 26.9786C52.8567 27.0163 52.9129 27.0357 52.9933 27.0357H53.0645V27.215C53.003 27.2128 52.9366 27.211 52.8663 27.2097C52.796 27.2087 52.691 27.208 52.549 27.208C52.4071 27.208 52.3012 27.209 52.2296 27.2097C52.1588 27.2109 52.0929 27.2128 52.0327 27.215V27.0357H52.1039C52.1834 27.0357 52.2392 27.0163 52.2713 26.9786C52.3034 26.9403 52.3197 26.8709 52.3197 26.7694V25.3935H52.1369C52.02 25.3935 51.9404 25.4146 51.8974 25.4559C51.8547 25.4968 51.8332 25.5719 51.8332 25.6809C51.8332 25.7028 51.8337 25.72 51.8344 25.7323C51.8349 25.7437 51.8354 25.7565 51.8366 25.7683H51.6239V25.1448H51.6253ZM54.5279 25.397L54.2198 26.2583H54.8038L54.5279 25.397ZM54.2739 25.1448H54.8284L55.4252 26.7087C55.4779 26.8436 55.5232 26.9307 55.5619 26.9693C55.5997 27.0076 55.6489 27.03 55.7091 27.0352V27.2145C55.6541 27.2124 55.5931 27.2106 55.5267 27.2093C55.4608 27.2083 55.361 27.2076 55.2288 27.2076C55.0969 27.2076 54.9981 27.2085 54.9321 27.2093C54.8662 27.2105 54.8047 27.2123 54.7471 27.2145V27.037C54.8443 27.0322 54.911 27.019 54.948 26.9961C54.9844 26.9737 55.0029 26.9359 55.0029 26.8832C55.0029 26.8678 55.0002 26.8467 54.9941 26.8204C54.9893 26.7935 54.9809 26.7628 54.9699 26.7281L54.8957 26.5084H54.1354L54.048 26.7725C54.0387 26.7979 54.033 26.819 54.0291 26.8366C54.0247 26.8546 54.0234 26.8709 54.0234 26.8858C54.0234 26.9386 54.0383 26.9755 54.0682 26.9957C54.0985 27.0159 54.1666 27.0295 54.2708 27.0366V27.2141C54.2145 27.2119 54.1543 27.2101 54.0902 27.2088C54.026 27.2078 53.9306 27.2071 53.8041 27.2071C53.6815 27.2071 53.5896 27.2081 53.5303 27.2088C53.4705 27.21 53.416 27.2119 53.3655 27.2141V27.0366C53.4244 27.033 53.4754 27.0089 53.5162 26.9636C53.5575 26.9183 53.6019 26.8366 53.6494 26.7175L54.2739 25.1448ZM56.5207 25.3873V26.972H56.7365C57.0015 26.972 57.1957 26.9047 57.3187 26.7707C57.4418 26.6362 57.5033 26.4253 57.5033 26.1379C57.5033 25.8791 57.4383 25.6892 57.3073 25.5684C57.1764 25.4475 56.9703 25.3873 56.689 25.3873H56.5207ZM55.8115 25.1448H56.7365C57.1632 25.1448 57.4783 25.2269 57.6813 25.3917C57.8847 25.557 57.9863 25.8123 57.9863 26.1572C57.9863 26.5114 57.8905 26.776 57.6993 26.9517C57.5081 27.1266 57.2208 27.215 56.8367 27.215H55.811V27.0357H55.8506C55.931 27.0357 55.9868 27.0163 56.0189 26.9786C56.051 26.9403 56.0668 26.8709 56.0668 26.7694V25.5868C56.0668 25.4867 56.051 25.4181 56.0189 25.3794C55.9868 25.3416 55.931 25.3227 55.8506 25.3227H55.811V25.1448H55.8115ZM59.3384 25.3504C59.1587 25.3504 59.0211 25.4207 58.9262 25.5618C58.8309 25.702 58.7834 25.9059 58.7834 26.1739C58.7834 26.4389 58.8313 26.6419 58.9271 26.7834C59.0229 26.9249 59.1596 26.9953 59.3384 26.9953C59.5173 26.9953 59.6548 26.9245 59.7502 26.7848C59.8451 26.6446 59.8926 26.4411 59.8926 26.1739C59.8926 25.905 59.8451 25.7015 59.7506 25.5609C59.6561 25.4203 59.5186 25.3504 59.3384 25.3504ZM59.3384 25.0969C59.6667 25.0969 59.9224 25.1909 60.1052 25.3794C60.2876 25.5684 60.3786 25.8342 60.3786 26.177C60.3786 26.5207 60.2876 26.787 60.1052 26.9768C59.9224 27.1675 59.6667 27.2624 59.3384 27.2624C59.0097 27.2624 58.7535 27.1671 58.5712 26.9768C58.3888 26.7865 58.2974 26.5207 58.2974 26.177C58.2974 25.8342 58.3888 25.5679 58.5703 25.3794C58.7522 25.1909 59.0084 25.0969 59.3384 25.0969Z" fill="white"/>
<path fill-rule="evenodd" clip-rule="evenodd" d="M1.28418 30.7331V38.6778H12.3172V30.7331H1.28418Z" fill="#ED1C24"/>
<path fill-rule="evenodd" clip-rule="evenodd" d="M23.35 30.7331V38.6778H12.3174V30.7331H23.35Z" fill="#F58220"/>
<path fill-rule="evenodd" clip-rule="evenodd" d="M23.3496 30.7331V38.6778H34.3827V30.7331H23.3496Z" fill="#FFCB05"/>
<path fill-rule="evenodd" clip-rule="evenodd" d="M45.4163 30.7331V38.6778H34.3828V30.7331H45.4163Z" fill="#00A651"/>
<path fill-rule="evenodd" clip-rule="evenodd" d="M45.416 30.7331V38.6778H56.4486V30.7331H45.416Z" fill="#00AEEF"/>
<path fill-rule="evenodd" clip-rule="evenodd" d="M67.4827 30.7331V38.6778H56.4492V30.7331H67.4827Z" fill="#9E76B4"/>
<path fill-rule="evenodd" clip-rule="evenodd" d="M67.4824 30.7331V38.6778H78.515V30.7331H67.4824Z" fill="#A54686"/>
</svg>
