<svg width="180" height="40" viewBox="0 0 180 40" fill="none" xmlns="http://www.w3.org/2000/svg">
<g clip-path="url(#clip0_350_124)">
<path d="M31.2762 10.9274C20.5899 10.9274 11.7226 19.2177 11.1162 29.7666C11.1162 30.0315 11.192 30.2713 11.3941 30.4732C11.5583 30.6751 11.8362 30.776 12.1015 30.776H19.2383C19.7436 30.776 20.1478 30.4101 20.2236 29.8675C20.7541 24.1893 25.5289 19.8864 31.3141 19.8864C37.0994 19.8864 41.8615 24.1893 42.4047 29.8675C42.4426 30.3722 42.8847 30.776 43.3899 30.776H50.4889C50.7668 30.776 51.032 30.6751 51.2089 30.4732C51.3731 30.2713 51.4741 30.0315 51.4741 29.7666C50.8299 19.1798 41.9626 10.9274 31.2762 10.9274ZM31.2762 39.9748C26.211 39.9748 22.1183 35.9243 22.1183 30.9148C22.1183 25.9054 26.211 21.8549 31.2762 21.8549C36.3541 21.8549 40.4468 25.9054 40.4468 30.9148C40.4468 35.9243 36.3541 39.9748 31.2762 39.9748ZM31.2762 0.012619C23.1668 0.012619 15.4489 3.09148 9.60045 8.66877C3.77729 14.2461 0.392025 21.7161 0.0888672 29.7287C0.0888672 29.9937 0.18992 30.2334 0.366762 30.4353C0.568867 30.6372 0.804657 30.7382 1.07413 30.7382H8.14781C8.65308 30.7382 9.09518 30.3344 9.12045 29.8297C9.7015 18.0946 19.4026 8.93375 31.2762 8.93375C43.1247 8.93375 52.8636 18.0946 53.432 29.8297C53.4699 30.3344 53.8741 30.7382 54.4173 30.7382H61.491C61.7604 30.7382 61.9962 30.6372 62.1983 30.4353C62.4004 30.2334 62.4636 29.9937 62.4636 29.7287C62.1604 21.7161 58.7752 14.2461 52.9647 8.66877C47.1162 3.11672 39.3983 0.012619 31.2762 0.012619Z" fill="white"/>
<path fill-rule="evenodd" clip-rule="evenodd" d="M99.499 4.16403L101.267 30.2334C101.267 30.3091 101.23 30.3722 101.192 30.4353C101.128 30.4732 101.065 30.511 100.99 30.511H95.8864C95.7474 30.511 95.6211 30.4101 95.6211 30.2713L94.6738 8.56782H94.6359L88.6485 30.3344C88.6106 30.4732 88.5096 30.5363 88.4085 30.5363H82.358C82.2569 30.5363 82.1559 30.4353 82.118 30.3344L76.3327 8.56782H76.2948L75.019 30.2713C74.9811 30.4101 74.8801 30.511 74.7411 30.511H70.3453C70.2822 30.511 70.1811 30.511 70.1432 30.4353C70.1053 30.3722 70.0801 30.3091 70.0801 30.2334L71.8359 4.16403C71.8738 4.03785 71.9748 3.9369 72.1011 3.9369H80.5643C80.6653 3.9369 80.7664 4.03785 80.8043 4.1388L85.7053 23.8738H85.7685L90.8464 4.1388C90.8464 4 90.9474 3.9369 91.0864 3.9369H99.1959C99.3348 3.9369 99.4738 4.03785 99.499 4.16403ZM120.821 12.1767C121.933 13.2618 122.501 14.8139 122.501 16.8202V30.1703C122.501 30.3091 122.4 30.4353 122.274 30.4353C119.091 30.776 116.728 30.9401 114.455 30.9401C114.013 30.9401 113.571 30.9148 113.141 30.9148C108.265 30.8391 103.769 29.9937 103.769 24.3155C103.769 22.7003 104.236 21.3754 105.221 20.429C107.558 18.1325 112.156 18.1325 116.211 18.1325H116.615C116.615 15.2934 116.488 14.2082 111.992 14.2082C109.276 14.2082 106.573 14.6498 105.385 14.9148C105.322 14.9527 105.259 14.9148 105.183 14.8896C105.116 14.8223 105.082 14.755 105.082 14.6877V11.0032C105.082 10.9022 105.183 10.8013 105.284 10.7634C106.977 10.3849 110.198 10.0568 112.295 10.0568C115.566 10.0189 118.851 10.2587 120.821 12.1767ZM113.785 22.0189C111.474 22.0189 109.857 22.1956 109.857 24.5173C109.857 26.8517 111.474 27.0284 113.785 27.0284C114.758 27.0284 115.604 26.9527 116.615 26.8265V22.0568C116.11 22.0189 115.162 22.0189 113.785 22.0189ZM142.434 26.2461C142.501 26.3134 142.535 26.3807 142.535 26.4479V29.9937C142.535 30.0946 142.434 30.2082 142.333 30.2334C140.564 30.6751 138.771 30.877 136.611 30.877C129.411 30.877 125.116 26.8517 125.116 20.0883C125.116 15.0915 128.59 10.0189 136.371 10.0189C138.543 10.0189 140.463 10.2208 142.156 10.5994C142.295 10.5994 142.358 10.7003 142.358 10.8265V14.3091C142.358 14.4101 142.324 14.4774 142.257 14.511C142.194 14.5867 142.131 14.5867 142.055 14.5867C140.64 14.4101 139.617 14.3091 138.442 14.3091C133.225 14.3091 131.204 16.0379 131.204 20.3659C131.204 24.7192 133.301 26.511 138.442 26.511C139.996 26.511 140.905 26.4101 141.853 26.2839L142.194 26.2461C142.257 26.2461 142.333 26.2461 142.434 26.2461ZM158.425 14.8896C158.425 15.0536 158.299 15.1546 158.16 15.1546H157.857C155.924 15.1546 153.057 15.1546 151.288 16.3028V30.2713C151.288 30.4353 151.162 30.5363 151.023 30.5363H145.68C145.503 30.5363 145.402 30.4101 145.402 30.2713V10.7003C145.402 10.5237 145.541 10.4227 145.68 10.4227H150.417C150.581 10.4227 150.682 10.5615 150.682 10.7003V12.0505C153.865 10.2587 156.025 10.2839 157.781 10.2839H158.122C158.299 10.2839 158.4 10.4227 158.4 10.5615L158.425 14.8896ZM179.861 20.4669C179.861 26.6246 175.44 30.9148 169.15 30.9148C162.48 30.9148 158.35 26.9274 158.35 20.4669C158.35 14.0442 162.48 10.0189 169.15 10.0189C175.743 10.0189 179.861 14.0063 179.861 20.4669ZM169.112 14.2082C165.764 14.2082 164.413 16.0379 164.413 20.53C164.413 24.9968 165.764 26.8265 169.112 26.8265C172.421 26.8265 173.773 24.9968 173.773 20.53C173.773 16.0379 172.421 14.2082 169.112 14.2082Z" fill="white"/>
</g>
<defs>
<clipPath id="clip0_350_124">
<rect width="180" height="40" fill="white"/>
</clipPath>
</defs>
</svg>
