<svg width="122" height="40" viewBox="0 0 122 40" fill="none" xmlns="http://www.w3.org/2000/svg">
<path d="M0.0232412 29.7098V31.4009C0.0519443 33.6207 0.946572 35.7412 2.51582 37.3089C4.08508 38.8766 6.2044 39.7671 8.42062 39.79H12.7793C13.1168 39.8054 13.4538 39.7508 13.7691 39.6295C14.0845 39.5081 14.3714 39.3228 14.6118 39.0851C14.8523 38.8474 15.041 38.5625 15.1662 38.2482C15.2914 37.9339 15.3504 37.5971 15.3394 37.2589V20.8013C15.3314 20.559 15.2562 20.3236 15.1222 20.1217C14.9881 19.9199 14.8005 19.7594 14.5805 19.6584C14.3604 19.5573 14.1166 19.5198 13.8764 19.5498C13.6362 19.5799 13.4091 19.6765 13.2207 19.8287L0.917046 27.7646C0.593366 27.9646 0.335877 28.2559 0.176867 28.602C0.0178575 28.9481 -0.0355887 29.3335 0.0232412 29.7098Z" fill="white"/>
<path d="M1.75528 23.4761L13.5403 15.8607C15.979 14.3023 18.4728 15.7944 18.4728 18.2703V27.433C18.4624 27.6504 18.496 27.8677 18.5716 28.0718C18.6472 28.2758 18.7632 28.4625 18.9127 28.6204C19.0621 28.7784 19.242 28.9045 19.4414 28.991C19.6407 29.0776 19.8555 29.1228 20.0728 29.1241H22.1805C29.364 29.1241 35.5103 23.9293 35.5103 15.0871C35.5214 5.72534 28.3488 0 19.9515 0H2.41737C1.78693 0.0143307 1.1868 0.273815 0.744001 0.723531C0.301201 1.17325 0.0504923 1.7779 0.0449219 2.40951V22.625C0.054912 22.822 0.117299 23.0126 0.225639 23.1773C0.333979 23.3419 0.484318 23.4745 0.661059 23.5613C0.8378 23.6481 1.03451 23.686 1.23079 23.671C1.42708 23.6561 1.61579 23.5888 1.77736 23.4761" fill="white"/>
<path d="M52.226 20.3841C52.226 22.8077 50.8839 23.868 47.8027 23.868H42.7744V11.7027H47.5002C50.572 11.7027 51.9141 12.782 51.9141 14.9594C51.9446 15.5801 51.7439 16.19 51.351 16.671C50.9581 17.152 50.401 17.4698 49.7875 17.5629C50.137 17.5845 50.4788 17.6753 50.7929 17.8302C51.1071 17.985 51.3875 18.2008 51.6178 18.465C51.8482 18.7291 52.0239 19.0365 52.1348 19.3691C52.2456 19.7018 52.2895 20.0532 52.2639 20.403M44.7025 13.5867V16.7392H47.5002C48.9558 16.7392 49.9009 16.4079 49.9009 15.1393C49.9009 13.8707 48.9558 13.5867 47.5002 13.5867H44.7025ZM50.2507 20.2137C50.2507 18.8125 49.3055 18.4812 47.8405 18.4812H44.6647V22.0408H47.8405C49.2677 22.0408 50.2507 21.6905 50.2507 20.2137Z" fill="white"/>
<path d="M61.5634 17.4682V23.868H60.2213L59.8621 22.1071C59.5682 22.7056 59.1051 23.2042 58.5303 23.5409C57.9555 23.8776 57.2945 24.0374 56.6297 24.0005C54.5503 24.0005 53.5957 22.7982 53.5957 21.2077C53.5957 18.3676 56.6486 18.093 59.7393 17.7806V17.4777C59.7393 16.0008 58.8981 15.3381 57.3385 15.3381C56.2854 15.3642 55.2844 15.8026 54.5503 16.5594L53.6052 15.092C54.6831 14.194 56.0405 13.7018 57.4425 13.7003C60.278 13.7003 61.5256 15.0446 61.5634 17.4871M59.7865 20.1569V19.1628C57.537 19.39 55.5333 19.6173 55.5333 21.132C55.5333 21.9178 55.9586 22.4385 57.1117 22.4385C57.765 22.476 58.4076 22.2598 58.9058 21.8349C59.404 21.4099 59.7195 20.8089 59.7865 20.1569Z" fill="white"/>
<path d="M72.159 17.2504V23.8774H70.2687V17.6954C70.2687 16.1522 69.6165 15.4327 68.246 15.4327C66.6487 15.4327 65.7413 16.3795 65.5996 18.2729V23.849H63.7754V13.8328H65.1081L65.4767 15.5369C65.7864 14.938 66.2652 14.4436 66.8534 14.1153C67.4417 13.787 68.1133 13.6394 68.7848 13.6908C70.8452 13.6908 72.159 14.8552 72.159 17.2504Z" fill="white"/>
<path d="M73.9648 18.8315C73.9648 15.7641 75.5527 13.6908 78.6339 13.6908C79.28 13.6765 79.9224 13.7905 80.5242 14.0261C81.1261 14.2617 81.6754 14.6143 82.1405 15.0635L81.1953 16.5972C80.9007 16.1961 80.5144 15.8715 80.0687 15.6508C79.6231 15.43 79.131 15.3196 78.6339 15.3286C77.0083 15.3286 75.7985 16.5499 75.7985 18.8125C75.7985 21.0752 77.1406 22.3722 78.6339 22.3722C79.1313 22.377 79.6228 22.2637 80.068 22.0416C80.5133 21.8194 80.8996 21.4947 81.1953 21.0941L82.1405 22.6278C81.1997 23.5342 79.9392 24.0311 78.6339 24.01C75.6945 24.01 73.9648 21.9367 73.9648 18.8315Z" fill="white"/>
<path d="M82.9053 18.8126C82.9053 15.6789 84.2852 13.6908 87.4799 13.6908C90.6745 13.6908 92.0261 15.6979 92.0261 18.8126C92.0261 21.9272 90.6745 23.9911 87.4799 23.9911C84.2852 23.9911 82.9053 21.9841 82.9053 18.8126ZM90.1452 18.8126C90.1452 16.4931 89.3324 15.3476 87.4799 15.3476C85.6273 15.3476 84.7956 16.4931 84.7956 18.8126C84.7956 21.132 85.6273 22.3722 87.4799 22.3722C89.3324 22.3722 90.1452 21.1888 90.1452 18.8126Z" fill="white"/>
<path d="M52.8071 31.8678C52.8071 34.3577 51.4271 35.9955 48.223 35.9955H46.087V39.8676H43.1191V27.6549H48.223C51.3988 27.6549 52.8071 29.2738 52.8071 31.8394M49.8014 31.8394C49.8014 30.675 49.2816 30.1353 48.034 30.1353H46.087V33.5435H48.034C48.2664 33.5812 48.5044 33.5647 48.7294 33.4953C48.9544 33.4259 49.1604 33.3055 49.3314 33.1434C49.5024 32.9813 49.6337 32.7819 49.7152 32.5606C49.7968 32.3394 49.8263 32.1023 49.8014 31.8678" fill="white"/>
<path d="M60.3221 29.6998V32.6725C59.9706 32.6029 59.6122 32.5743 59.2541 32.5872C57.8269 32.5872 57.2125 33.4393 57.1275 35.0676V39.877H54.292V29.766H56.4186L57.0046 31.7731C57.1729 31.1707 57.5284 30.6376 58.0196 30.2512C58.5107 29.8648 59.112 29.6451 59.7361 29.624C59.9469 29.6109 60.1584 29.6366 60.3599 29.6998" fill="white"/>
<path d="M61.0205 34.7647C61.0205 31.5459 62.6178 29.6051 65.9354 29.6051C69.2529 29.6051 70.8313 31.5459 70.8313 34.7647C70.8313 37.9835 69.2151 40 65.9354 40C62.6556 40 61.0205 38.0403 61.0205 34.7647ZM67.854 34.7647C67.854 32.8713 67.2775 31.9246 65.9637 31.9246C64.6499 31.9246 64.0072 32.8713 64.0072 34.7647C64.0072 36.6581 64.6027 37.6901 65.9637 37.6901C67.3247 37.6901 67.854 36.7433 67.854 34.7647Z" fill="white"/>
<path d="M80.9924 29.7661L77.7316 39.8392H74.4991L71.2383 29.7661H74.0738L75.8129 35.8535C75.9074 36.2984 76.0019 36.8002 76.0681 37.2073C76.1342 36.7718 76.2004 36.2606 76.3044 35.8535L78.0624 29.7661H80.9924Z" fill="white"/>
<path d="M82.1738 27.049H85.0093V28.9424H82.1738V27.049ZM82.1738 29.7661H85.0093V39.8391H82.1738V29.7661Z" fill="white"/>
<path d="M96.3327 33.1648V39.8392H93.4972V33.9127C93.4972 32.6441 93.0341 32.0666 91.9944 32.0666C90.9547 32.0666 90.1891 32.7483 90.104 34.263V39.8392H87.2686V29.7661H89.3763L89.8961 31.5459C90.1488 30.9381 90.5884 30.4268 91.151 30.0863C91.7136 29.7458 92.3699 29.5939 93.0246 29.6525C95.189 29.6525 96.3894 30.8264 96.3894 33.1932" fill="white"/>
<path d="M97.9678 34.8026C97.9678 31.5932 99.7069 29.6051 103.024 29.6051C104.282 29.5789 105.512 29.9718 106.522 30.7222L105.576 33.108C105.279 32.7718 104.914 32.5032 104.505 32.3204C104.096 32.1375 103.652 32.0445 103.204 32.0476C101.919 32.0476 100.888 32.8997 100.888 34.7836C100.888 36.6676 102.041 37.5481 103.242 37.5481C103.689 37.5464 104.131 37.4513 104.54 37.2687C104.948 37.0861 105.314 36.8201 105.614 36.4877L106.559 38.8735C105.545 39.6144 104.318 40.0063 103.062 39.9906C99.8298 39.9906 98.0056 38.0025 98.0056 34.7931" fill="white"/>
<path d="M107.995 27.049H110.831V28.9424H107.995V27.049ZM107.995 29.7661H110.831V39.8391H107.995V29.7661Z" fill="white"/>
<path d="M121.359 33.5624V39.8391H119.251L118.732 37.9457C118.492 38.5803 118.052 39.1194 117.479 39.4815C116.906 39.8436 116.231 40.009 115.556 39.9527C113.41 39.9527 112.569 38.7125 112.569 37.1125C112.569 34.2724 115.348 33.9884 118.543 33.676C118.543 32.4263 117.701 31.934 116.397 31.934C115.355 31.9554 114.363 32.3874 113.637 33.1363L112.503 30.9968C113.719 30.0957 115.196 29.6171 116.709 29.6335C119.941 29.6335 121.35 31.0252 121.359 33.5529M118.524 36.0144V35.2949C116.69 35.5126 115.414 35.7019 115.414 36.8285C115.414 37.4628 115.726 37.8605 116.548 37.8605C116.8 37.8719 117.051 37.8329 117.287 37.7458C117.523 37.6588 117.739 37.5253 117.923 37.3534C118.107 37.1814 118.255 36.9744 118.358 36.7445C118.461 36.5146 118.518 36.2663 118.524 36.0144Z" fill="white"/>
</svg>
