<svg width="111" height="40" viewBox="0 0 111 40" fill="none" xmlns="http://www.w3.org/2000/svg">
<path d="M20.152 8.37563C20.152 8.37563 20.0505 8.37563 20.0505 8.32487C20.0505 8.27411 19.9997 8.32487 19.949 8.32487L14.2637 11.1167H25.7358L20.152 8.37563Z" fill="white"/>
<path d="M20 0C8.98477 0 0 8.98477 0 20C0 31.0152 8.98477 40 20 40C31.0152 40 40 31.0152 40 20C40 8.98477 31.0152 0 20 0ZM31.269 31.6244C31.269 31.6244 31.269 31.6751 31.2183 31.6751H8.78173C8.78173 31.6751 8.73096 31.6751 8.73096 31.6244V29.3909C8.73096 29.3909 8.73096 29.3401 8.78173 29.3401H31.2183C31.2183 29.3401 31.269 29.3401 31.269 29.3909V31.6244ZM16.1421 25.6853V14.3147H18.731V25.6853H21.269V14.3147H23.8579V25.6853H26.4467V14.3147H28.9848V25.6853H30.1015V28.0203C30.1015 28.0203 30.1015 28.0711 30.0508 28.0711H9.94924C9.94924 28.0711 9.89848 28.0711 9.89848 28.0203V25.6853H11.0152V14.3147H13.5533V25.6853H16.1421ZM32.0305 11.9289L31.3198 13.198L31.2183 13.2487H8.88325C8.88325 13.2487 8.78173 13.2487 8.78173 13.198L8.07107 11.9289V11.8274L20 5.48223C20 5.48223 20.1015 5.48223 20.1523 5.48223L32.0812 11.8274C32.0812 11.8274 32.132 11.8782 32.0812 11.9289H32.0305Z" fill="white"/>
<path d="M50.3047 29.5431C50.5077 29.4924 50.8631 29.4416 51.3707 29.3401C51.8783 29.2893 52.2844 29.2386 52.7412 29.2386V13.5025C52.3351 13.5025 51.8275 13.5025 51.3707 13.401C50.8631 13.3502 50.5077 13.2995 50.3047 13.198V11.066H59.0864C60.0509 11.066 60.9138 11.1675 61.7768 11.3198C62.6397 11.4721 63.3504 11.7766 64.0103 12.1827C64.6702 12.5888 65.127 13.0964 65.4824 13.7563C65.8377 14.4162 66.0407 15.1777 66.0407 16.1421C66.0407 17.1066 65.6854 18.4772 65.0255 19.2386C64.3656 20 63.4519 20.5076 62.3351 20.8122C62.9443 20.9645 63.5534 21.1675 64.1118 21.4213C64.6702 21.6751 65.1778 22.0305 65.5839 22.4365C65.99 22.8426 66.3453 23.3503 66.5991 23.9086C66.8529 24.467 66.9544 25.1269 66.9544 25.8883C66.9544 26.6497 66.7514 27.8173 66.3453 28.5279C65.9392 29.2386 65.4316 29.8477 64.7209 30.3046C64.0103 30.7614 63.1981 31.1167 62.2336 31.3198C61.2692 31.5228 60.2032 31.6244 59.0357 31.6244H50.3047V29.4924V29.5431ZM56.193 19.797H58.6803C60.0509 19.797 61.0153 19.5431 61.6245 18.9848C62.2336 18.4264 62.5382 17.665 62.5382 16.599C62.5382 14.5685 61.2692 13.6041 58.7311 13.6041H56.1423V19.797H56.193ZM56.193 29.0863H58.9341C60.457 29.0863 61.5737 28.8325 62.3351 28.2741C63.0458 27.7157 63.4011 26.9036 63.4011 25.6853C63.4011 24.467 63.0458 23.7056 62.3859 23.0964C61.726 22.4873 60.6093 22.1827 59.0864 22.1827H56.193V29.0863Z" fill="white"/>
<path d="M68.3252 29.5431C68.579 29.4924 68.8835 29.4416 69.3912 29.3401C69.8988 29.2386 70.3049 29.2386 70.7617 29.2386V13.5025C70.3556 13.5025 69.848 13.5025 69.3912 13.401C68.8835 13.3502 68.5282 13.2995 68.3252 13.198V11.066H74.0104L82.7414 23.2995C83.249 23.9594 83.7059 24.6193 84.112 25.2284C84.5181 25.8376 84.7719 26.2944 84.8734 26.4975H84.9242C84.9242 26.2944 84.9242 25.9391 84.8734 25.3807C84.8226 24.8223 84.8734 24.2132 84.8734 23.401V13.401C84.4673 13.401 84.0105 13.401 83.5028 13.2995C83.046 13.2487 82.6907 13.198 82.4368 13.0964V10.9645H90.2033V13.0964C89.9495 13.1472 89.645 13.198 89.1374 13.2995C88.6805 13.3503 88.2237 13.401 87.8176 13.401V31.5228H84.7719L75.5333 18.5787C75.3302 18.2741 75.0764 17.9695 74.8734 17.665C74.6704 17.3604 74.4673 17.0558 74.315 16.7513C74.1627 16.4467 74.0104 16.2436 73.9089 16.0406C73.8074 15.8376 73.7059 15.6853 73.6551 15.5838H73.6044C73.6044 15.7868 73.6551 16.1421 73.7059 16.6497C73.7566 17.1574 73.7059 17.665 73.7059 18.1726V29.0863C74.112 29.0863 74.5688 29.137 75.0257 29.1878C75.5333 29.1878 75.8886 29.2893 76.0917 29.3401V31.4721H68.2744V29.3401L68.3252 29.5431Z" fill="white"/>
<path d="M89.6953 29.4924C89.8476 29.4924 90.1014 29.3909 90.4567 29.3401C90.8121 29.3401 91.1674 29.2386 91.5227 29.2386L98.6801 11.1168H101.878L108.832 29.2386C109.188 29.2386 109.594 29.2893 109.949 29.3401C110.304 29.3401 110.609 29.4416 110.761 29.4924V31.6244H103.249V29.4924C103.452 29.4924 103.705 29.3909 104.061 29.3401C104.416 29.3401 104.771 29.2386 105.127 29.2386L103.959 25.8883H95.9897L94.7715 29.2386C95.1268 29.2386 95.4821 29.2893 95.8374 29.3401C96.1928 29.3909 96.4466 29.4416 96.6496 29.4924V31.6244H89.6953V29.4924ZM103.046 23.5025L101.269 18.4264C100.964 17.5635 100.711 16.8528 100.507 16.2437C100.304 15.6345 100.152 15.1777 100.051 14.7208H99.9999C99.8476 15.1777 99.6953 15.6853 99.4923 16.2944C99.2892 16.9036 99.0354 17.6142 98.7308 18.4264L96.8527 23.5025H103.096H103.046Z" fill="white"/>
</svg>
