<svg width="206" height="40" viewBox="0 0 206 40" fill="none" xmlns="http://www.w3.org/2000/svg">
<path d="M202.216 27.9293V18.0761C201.593 17.7344 200.563 17.5161 199.784 17.5161C196.948 17.5161 196.075 20.2523 196.075 23.0807V23.3912C196.075 26.2196 196.699 28.9232 199.535 28.9232C200.409 28.9232 201.655 28.4581 202.216 27.9293ZM192.427 23.6407V22.8014C192.427 18.2009 194.204 14.5644 198.819 14.5644C200.065 14.5644 201.468 15.0294 202.216 15.5894V7.94359H205.77V31.6296H202.778L202.434 30.1666H202.278C201.188 31.193 199.816 31.9089 198.132 31.9089C193.675 31.9089 192.427 27.2148 192.427 23.6407ZM185.351 28.2398V23.9498L182.578 24.1993C180.987 24.3864 180.209 25.2881 180.209 26.8731C180.209 28.3958 180.925 29.1727 182.453 29.1727C183.294 29.1727 184.76 28.7388 185.351 28.2398ZM176.592 27.0901C176.592 23.7329 178.556 22.2414 181.517 21.8997L185.351 21.5255V20.2198C185.351 18.0761 183.606 17.5161 181.735 17.5161C180.458 17.5161 179.148 17.7955 177.933 18.1073V15.4037C179.461 14.9061 181.268 14.5644 183.076 14.5644C186.505 14.5644 188.937 16.1182 188.937 19.569V31.6296H185.976L185.663 30.2615H185.509C184.573 31.193 182.764 31.9089 181.237 31.9089C178.245 31.9089 176.592 30.0744 176.592 27.0901ZM153.462 31.6296V30.1367H153.339C151.998 31.2255 150.72 31.8777 149.067 31.8777C146.2 31.8777 144.765 30.1991 144.765 27.4955V14.8125H148.319V26.4691C148.319 28.0853 148.882 28.8622 150.439 28.8622C151 28.8622 152.247 28.5205 153.308 27.8046V14.8125H156.861V31.6296H153.462ZM120.663 20.9357V19.8171C120.663 13.4756 123.186 8.90762 129.234 8.90762C130.762 8.90762 132.383 9.06219 133.755 9.62217V12.7299C132.508 12.2323 131.104 12.0465 129.64 12.0465C125.712 12.0465 124.714 16.2728 124.714 20.19V20.5628C124.714 24.48 125.588 28.6141 129.514 28.6141C131.354 28.6141 132.57 28.1476 133.909 27.4955V30.416C132.508 31.4424 130.886 31.9089 129.047 31.9089C122.937 31.9089 120.663 27.029 120.663 20.9357ZM170.14 27.9293V18.0761C169.517 17.7344 168.489 17.5161 167.708 17.5161C164.872 17.5161 163.999 20.2523 163.999 23.0807V23.3912C163.999 26.2196 164.623 28.9232 167.459 28.9232C168.331 28.9232 169.579 28.4581 170.14 27.9293ZM160.352 23.6407V22.8014C160.352 18.2009 162.128 14.5644 166.743 14.5644C167.989 14.5644 169.392 15.0294 170.14 15.5894V7.94359H173.694V31.6296H170.7L170.358 30.1666H170.202C169.112 31.193 167.74 31.9089 166.056 31.9089C161.598 31.9089 160.352 27.2148 160.352 23.6407ZM140.432 31.6296H136.878V14.8139H140.432V31.6296ZM140.464 12.0465H136.88V8.72051H140.464V12.0465ZM113.679 23.4224V23.0495C113.679 20.2523 113.119 17.5161 110.407 17.5161C107.694 17.5161 107.102 20.2523 107.102 23.0495V23.3912C107.102 26.1897 107.725 28.9232 110.438 28.9232C113.15 28.9232 113.679 26.2196 113.679 23.4224ZM103.517 23.6407V22.8014C103.517 18.0151 105.637 14.5644 110.438 14.5644C115.238 14.5644 117.358 18.0151 117.358 22.8014V23.6081C117.358 28.3958 115.238 31.9089 110.438 31.9089C105.637 31.9089 103.517 28.427 103.517 23.6407ZM90.7364 23.6407V22.8014C90.7364 18.0151 92.7626 14.5644 97.6264 14.5644C98.8414 14.5644 100.4 14.8437 101.46 15.2789V18.2009C100.494 17.7656 99.0906 17.5161 97.938 17.5161C94.9446 17.5161 94.3839 20.1276 94.3839 23.0807V23.36C94.3839 26.2819 94.9135 28.9232 97.8445 28.9232C99.3087 28.9232 100.525 28.4581 101.617 27.9605V30.6655C100.494 31.4424 98.9348 31.9089 97.4707 31.9089C92.5757 31.9089 90.7364 28.2398 90.7364 23.6407ZM78.3933 14.8125V16.3053H78.5179C79.8588 15.2166 81.2918 14.5644 82.9442 14.5644C85.8116 14.5644 87.2459 16.243 87.2459 18.9466V31.6296H83.6919V19.973C83.6919 18.3554 83.1311 17.5785 81.5722 17.5785C81.0114 17.5785 79.6082 17.9202 78.549 18.6361V31.6296H74.9949V14.8125H78.3933ZM67.047 28.2398V23.9498L64.2718 24.1993C62.6816 24.3864 61.9028 25.2881 61.9028 26.8731C61.9028 28.3958 62.6207 29.1727 64.1472 29.1727C64.9896 29.1727 66.4538 28.7388 67.047 28.2398ZM58.2865 27.0901C58.2865 23.7329 60.2504 22.2414 63.2126 21.8997L67.047 21.5255V20.2198C67.047 18.0761 65.3011 17.5161 63.4306 17.5161C62.152 17.5161 60.8437 17.7955 59.6274 18.1073V15.4037C61.1552 14.9061 62.962 14.5644 64.7702 14.5644C68.1997 14.5644 70.6309 16.1182 70.6309 19.569V31.6296H67.6701L67.3586 30.2615H67.2014C66.2669 31.193 64.4587 31.9089 62.9322 31.9089C59.9389 31.9089 58.2865 30.0744 58.2865 27.0901ZM51.4207 24.9464C51.4207 22.7688 50.1747 21.4957 47.9615 21.4957H44.6878V28.6764H47.9615C50.455 28.6764 51.4207 27.2148 51.4207 24.9464ZM50.7354 15.5284C50.7354 13.3522 49.6437 12.2634 47.6811 12.2634H44.6878V18.8842H47.6811C49.8943 18.8842 50.7354 17.5161 50.7354 15.5284ZM48.0238 9.31168C52.4813 9.31168 54.6945 11.237 54.6945 14.8749C54.6945 17.1745 53.9454 19.1337 51.8569 19.8483V20.0028C54.2272 20.8421 55.3798 22.4597 55.3798 25.3803C55.3798 30.012 52.1075 31.6296 48.0861 31.6296H40.917V9.31168H48.0238Z" fill="white"/>
<path d="M28.2368 5.77809C30.901 9.33322 31.9656 14.3107 31.9656 20.0434C31.9656 31.4654 27.393 39.9993 15.9831 39.9993C10.8782 39.9993 7.10335 38.3099 4.57324 35.3337C8.56887 30.8891 14.2968 24.4446 17.1818 20.7552C19.9788 17.2001 24.8629 10.6661 28.2368 5.77809Z" fill="white"/>
<path d="M3.68546 34.2212C1.15399 30.6227 0 25.732 0 20.044C0 8.57732 4.52928 -1.83496e-05 15.9839 -1.83496e-05C21.0007 -1.83496e-05 24.7742 1.68806 27.3044 4.57745C23.176 9.15628 17.4033 15.7323 14.8732 18.977C11.9869 22.5335 7.05939 29.3332 3.68546 34.2212Z" fill="white"/>
</svg>
