<svg width="194" height="40" viewBox="0 0 194 40" fill="none" xmlns="http://www.w3.org/2000/svg">
<mask id="mask0_350_37" style="mask-type:luminance" maskUnits="userSpaceOnUse" x="0" y="0" width="28" height="40">
<path d="M0 0H27.4958V39.9461H0V0Z" fill="white"/>
</mask>
<g mask="url(#mask0_350_37)">
<path fill-rule="evenodd" clip-rule="evenodd" d="M13.7355 32.1077C10.2946 32.1077 7.49583 29.185 7.49583 25.5922C7.49583 21.9995 10.2946 19.0768 13.7366 19.0768C17.1775 19.0768 19.9763 21.9995 19.9763 25.5922C19.9763 29.185 17.1775 32.1077 13.7366 32.1077M13.7485 11.2394C11.6876 11.2394 9.70428 11.7048 7.85564 12.6216L7.50767 12.794V3.91813C7.50767 1.75707 5.82386 0 3.75438 0C1.68381 0 0 1.75707 0 3.91813V25.6063C0.00646378 33.5136 6.17506 39.9451 13.7485 39.9451C21.3294 39.9451 27.4958 33.5071 27.4958 25.5922C27.4958 17.6784 21.3283 11.2394 13.7485 11.2394Z" fill="white"/>
</g>
<mask id="mask1_350_37" style="mask-type:luminance" maskUnits="userSpaceOnUse" x="79" y="0" width="29" height="40">
<path d="M79.7354 0H107.231V39.9461H79.7354V0Z" fill="white"/>
</mask>
<g mask="url(#mask1_350_37)">
<path fill-rule="evenodd" clip-rule="evenodd" d="M93.4709 32.1077C90.03 32.1077 87.2312 29.185 87.2312 25.5922C87.2312 21.9995 90.03 19.0768 93.4709 19.0768C96.9128 19.0768 99.7106 21.9995 99.7106 25.5922C99.7106 29.185 96.9128 32.1077 93.4709 32.1077ZM93.4838 11.2394C91.4219 11.2394 89.4396 11.7048 87.591 12.6216L87.2419 12.794V3.91813C87.2419 1.75707 85.5581 0 83.4897 0C81.4192 0 79.7354 1.75707 79.7354 3.91813V25.6063C79.7418 33.5136 85.9093 39.9451 93.4838 39.9451C101.064 39.9451 107.231 33.5071 107.231 25.5922C107.231 17.6784 101.064 11.2394 93.4849 11.2394" fill="white"/>
</g>
<path fill-rule="evenodd" clip-rule="evenodd" d="M72.2895 11.2394C70.2211 11.2394 68.5362 12.9976 68.5362 15.1586V26.2268H68.547C68.547 29.6569 66.0282 32.4471 62.9321 32.4471C59.8359 32.4471 57.3172 29.6569 57.3172 26.2268H57.328V15.1586C57.328 12.9976 55.6431 11.2394 53.5747 11.2394C51.5041 11.2394 49.8203 12.9976 49.8203 15.1586V26.2397C49.8268 33.7829 55.7077 39.9214 62.931 39.9278C70.1564 39.9203 76.0374 33.7829 76.0439 26.2397V15.1586C76.0439 12.9976 74.36 11.2394 72.2895 11.2394ZM152.989 11.2405C145.764 11.247 139.882 17.3843 139.877 24.9286V36.0086C139.877 38.1697 141.561 39.9278 143.631 39.9278C145.7 39.9278 147.383 38.1697 147.383 36.0086V24.9416H147.374C147.374 21.5115 149.892 18.7213 152.989 18.7213C156.085 18.7213 158.604 21.5115 158.604 24.9416H158.593V36.0086C158.593 38.1697 160.277 39.9278 162.346 39.9278C164.417 39.9278 166.1 38.1697 166.1 36.0086V24.9297C166.094 17.3854 160.213 11.2481 152.989 11.2416" fill="white"/>
<mask id="mask2_350_37" style="mask-type:luminance" maskUnits="userSpaceOnUse" x="109" y="11" width="28" height="29">
<path d="M109.218 11.2405H136.715V40H109.218V11.2405Z" fill="white"/>
</mask>
<g mask="url(#mask2_350_37)">
<path fill-rule="evenodd" clip-rule="evenodd" d="M122.877 32.1099C119.436 32.1099 116.637 29.1861 116.637 25.5933C116.637 22.0005 119.436 19.0778 122.877 19.0778C126.317 19.0778 129.116 22.0005 129.116 25.5933C129.116 29.1861 126.317 32.1099 122.877 32.1099ZM122.966 11.2405C115.386 11.2405 109.22 17.6784 109.22 25.5922C109.22 33.1742 114.879 39.401 122.018 39.9116C125.053 40.14 128.11 38.6437 129.819 35.7608L129.824 36.4395C129.832 37.4565 130.152 38.3108 130.775 38.9787C131.407 39.6563 132.246 39.9989 133.27 39.9989C134.259 39.9989 135.091 39.6563 135.738 38.9787C136.387 38.3022 136.716 37.4349 136.716 36.4018V25.5814C136.709 17.673 130.542 11.2405 122.966 11.2405Z" fill="white"/>
</g>
<mask id="mask3_350_37" style="mask-type:luminance" maskUnits="userSpaceOnUse" x="169" y="0" width="25" height="40">
<path d="M169.522 0.0107422H193.875V39.9386H169.522V0.0107422Z" fill="white"/>
</mask>
<g mask="url(#mask3_350_37)">
<path fill-rule="evenodd" clip-rule="evenodd" d="M192.936 33.9111L184.68 24.9243L192.35 17.2389C193.696 15.8922 193.74 13.6547 192.449 12.251C192.15 11.9188 191.785 11.6515 191.378 11.4654C190.971 11.2793 190.531 11.1783 190.083 11.1688C189.636 11.1592 189.191 11.2411 188.777 11.4097C188.362 11.5782 187.987 11.8296 187.673 12.1486L177.031 22.8096V3.92994C177.031 1.76889 175.347 0.0107422 173.277 0.0107422C171.207 0.0107422 169.522 1.76889 169.522 3.92994V36.0204C169.522 38.1804 171.206 39.9386 173.277 39.9386C175.345 39.9386 177.03 38.1804 177.03 36.0204V26.788L188.061 38.7945C188.36 39.1266 188.725 39.394 189.131 39.5801C189.538 39.7663 189.979 39.8674 190.426 39.8772C190.873 39.887 191.318 39.8053 191.732 39.6371C192.147 39.4688 192.522 39.2177 192.836 38.899C194.182 37.5523 194.226 35.3148 192.936 33.9111Z" fill="white"/>
</g>
<path fill-rule="evenodd" clip-rule="evenodd" d="M45.8261 11.3741C42.424 10.8764 39.1716 12.5764 37.4393 15.4646V15.1586C37.4393 12.9976 35.7555 11.2394 33.686 11.2394C31.6155 11.2394 29.9316 12.9976 29.9316 15.1586V35.8104C29.9316 37.9715 31.6155 39.7285 33.686 39.7285C35.7544 39.7285 37.4393 37.9715 37.4393 35.8104V24.3738C37.6117 21.115 40.0593 18.522 43.0434 18.522C43.4679 18.522 43.8815 18.5747 44.2791 18.6728C46.1967 19.1974 48.1563 17.9995 48.6572 15.9979C48.7434 15.6531 48.7822 15.3052 48.7757 14.9637C48.7757 13.1463 47.4948 11.6413 45.8261 11.3741Z" fill="white"/>
</svg>
