<svg width="121" height="40" viewBox="0 0 121 40" fill="none" xmlns="http://www.w3.org/2000/svg">
<path fill-rule="evenodd" clip-rule="evenodd" d="M80.9297 19.9615C80.9297 8.93283 89.8807 0 100.936 0C111.989 0 120.947 8.93283 120.947 19.9615C120.947 30.9902 111.989 39.926 100.936 39.926C89.8807 39.926 80.9297 30.9902 80.9297 19.9615ZM84.0273 19.9615C84.0273 29.2785 91.5981 36.8355 100.936 36.8355C110.272 36.8355 117.845 29.2785 117.845 19.9615C117.845 10.6475 110.272 3.08528 100.936 3.08528C91.5981 3.08528 84.0273 10.6475 84.0273 19.9615ZM108.65 27.6264V24.5592H102.504V15.3555H108.65V12.2815H101.755V9.21208H111.728V18.4242H105.595V21.4913H111.728V30.6928H101.755V27.6264H108.65ZM93.2921 12.2732V15.3404H99.4381V24.5525H93.2921V27.6189H100.204V30.6875H90.2195V21.4823H96.3375V18.4113H90.2195V9.20528H100.204V12.2732H93.2921Z" fill="white"/>
<path fill-rule="evenodd" clip-rule="evenodd" d="M29.5342 30.7525V9.18567L40.7501 9.19322C42.9145 9.19322 44.7129 9.79624 45.9456 10.9411C47.0701 11.9834 47.688 13.4581 47.688 15.0951C47.688 18.074 46.4515 19.0732 45.5175 19.5653L45.4313 19.6113L45.5221 19.6491C47.5934 20.5796 48.6423 22.3276 48.6423 24.8415C48.6423 25.9917 48.3709 27.6249 47.0814 28.8959C45.8268 30.1321 43.8833 30.7585 41.3082 30.7585M33.6104 17.7072H40.4212C40.9883 17.7072 41.821 17.6747 42.488 17.3615C43.2276 17.0143 43.6027 16.3993 43.6027 15.5298C43.6027 13.157 41.6001 13.157 40.4045 13.157H33.6104V17.7072ZM33.6104 21.6672L33.5839 26.7359V26.7811H41.0746C41.9942 26.7811 43.2503 26.7819 43.9786 26.0521C44.3695 25.6566 44.5692 25.083 44.5692 24.3502C44.5692 23.4302 44.1964 22.7193 43.4681 22.2385C42.6861 21.726 41.7106 21.6174 41.0322 21.6174H33.6104V21.6672Z" fill="white"/>
<path fill-rule="evenodd" clip-rule="evenodd" d="M0 30.7585H4.27281V9.19247H0V30.7585Z" fill="white"/>
<path fill-rule="evenodd" clip-rule="evenodd" d="M7.74219 19.7917C7.74219 21.877 8.09309 23.5985 8.81531 25.0536C9.41879 26.2657 10.2688 27.2876 11.4962 28.271C13.4065 29.7985 16.0957 30.5743 19.4905 30.5743H25.3386V26.5042H19.815C16.7416 26.5042 14.5136 25.7381 13.1932 24.2272C12.2547 23.1555 11.773 21.7079 11.7601 19.9276C11.7435 18.0181 12.2782 16.4996 13.3452 15.4181C14.6808 14.0649 16.8573 13.3796 19.815 13.3796H25.3386V9.34265H19.6947C17.7935 9.34265 16.2008 9.53435 14.8199 9.92303C13.4413 10.3132 12.3084 10.8951 11.3593 11.6996C10.0094 12.8453 7.74219 15.4181 7.74219 19.7917Z" fill="white"/>
<path fill-rule="evenodd" clip-rule="evenodd" d="M51.2207 19.7917C51.2207 21.8725 51.5799 23.7102 52.2938 25.2453C52.9124 26.5758 53.8124 27.7223 54.974 28.6506C56.7686 30.0906 59.3096 30.7592 62.9683 30.7592H69.1332V26.6898H63.2935C60.2261 26.6898 57.9975 25.8906 56.6695 24.3162C55.7317 23.2075 55.25 21.7313 55.2387 19.9275C55.2205 17.9653 55.7741 16.4 56.879 15.2815C58.2221 13.9177 60.3789 13.2272 63.2935 13.2272H69.1332V9.19321H63.1702C61.2713 9.19321 59.6794 9.3834 58.2969 9.77283C56.919 10.1623 55.7862 10.7411 54.8401 11.5464C53.7488 12.4694 51.2207 15.1208 51.2207 19.7917Z" fill="white"/>
</svg>
