<?xml version="1.0" encoding="utf-8"?>
<!-- Generator: Adobe Illustrator 22.0.1, SVG Export Plug-In . SVG Version: 6.00 Build 0)  -->
<svg version="1.1" id="Layer_1" xmlns="http://www.w3.org/2000/svg" xmlns:xlink="http://www.w3.org/1999/xlink" x="0px" y="0px"
	 viewBox="0 0 689.4 132" style="enable-background:new 0 0 689.4 132;" xml:space="preserve">

<g>
	<path d="M160.2,52.2h3.2c4.4,0,6,2,6,4.5c0,4.5-4.9,4.5-6.7,4.5h-2.6V52.2z M160.2,68.6h4.1c6.8,0,7.7,3.9,7.7,5.6
		c0,5.5-6.3,5.5-7.8,5.5h-3.9V68.6z M152.4,87h11.2c2.7,0,7.7-0.3,10.8-2.5c2.6-1.8,5.2-4.9,5.2-10c0-7.1-4.4-9.4-7.2-10.4
		c1.3-0.7,4.7-2.7,4.7-8c0-2.9-1.5-6-3.6-7.8C170,45,165.3,45,160.7,45h-8.3V87z" fill="#5B6670"/>
	<path d="M200.4,55.9h0.1l4.8,12.9h-9.6L200.4,55.9z M180,87h8.6l4.5-10.8h15l4.5,10.8h8.6l-17.6-42h-6.1L180,87z" fill="#5B6670"/>
	<polygon points="225,87 232.8,87 232.8,56.5 232.9,56.5 250.5,87 259.1,87 259.1,45 251.4,45 251.4,75.5 251.2,75.5 
		233.9,45 225,45 	" fill="#5B6670"/>
	<polygon points="267,87 274.7,87 274.7,68.5 274.9,68.5 288,87 297.1,87 281.3,65.6 297.1,45 288,45 274.9,63.1 
		274.7,63.1 274.7,45 267,45 	" fill="#5B6670"/>
	<path d="M303.2,66.2c0-10.4,8.5-18.2,18-18.2c9.9,0,18,8.2,18,18c0,10-8.3,17.9-18,17.9
		C311.4,83.9,303.2,75.8,303.2,66.2 M299,66.2c0,11.8,10.3,21.5,22.2,21.5c11.7,0,22.2-9.4,22.2-21.7c0-12.4-10.4-21.7-22.2-21.7
		C310,44.2,299,53,299,66.2" fill="#5B6670"/>
	<polygon points="350.4,87 354.6,87 354.6,67.8 371,67.8 371,64 354.6,64 354.6,48.8 371.6,48.8 371.6,45 350.4,45 	" fill="#5B6670"/>
	<path d="M376.9,75c0.5,9.3,8.3,12.9,13.7,12.9c6.6,0,13.6-4.3,13.6-13.4c0-9.1-7.5-11.8-11-12.9c-4.3-1.4-7-2.2-7-5.8
		c0-2.5,1.9-4.3,4.3-4.3c2.1,0,4.4,1,4.7,4.7h7.9c-0.4-8.6-7.5-12-12.4-12c-7.1,0-12.3,5.3-12.3,12c0,8.9,6.8,10.8,10,12.1
		c5.2,2,8,2.8,8,7.1c0,3.2-2.7,5.3-5.8,5.3c-2.4,0-5.2-1.4-5.6-5.6H376.9z" fill="#5B6670"/>
	<rect x="410.9" y="45" width="7.8" height="42" fill="#5B6670"/>
	<polygon points="426.7,87 434.5,87 434.5,56.5 434.6,56.5 452.1,87 460.8,87 460.8,45 453,45 453,75.5 452.9,75.5 
		435.5,45 426.7,45 	" fill="#5B6670"/>
	<path d="M483.1,72.9h17.6c-2.4,4.9-7.3,7.7-12.4,7.7c-10,0-14.8-8.1-14.8-14.5c0-6.6,4.9-14.6,14.4-14.6
		c5.6,0,9.4,3.1,11.2,5.9h9.3c-2.2-6-9.8-13.2-20.4-13.2c-11.9,0-22.4,9.5-22.4,21.9c0,12.6,10.6,21.8,22.6,21.8
		c11.8,0,22.2-9.4,22.2-21.3v-0.9h-27.4V72.9z" fill="#5B6670"/>
	<path d="M529.8,55.9h0.1l4.8,12.9H525L529.8,55.9z M509.4,87h8.6l4.5-10.8h15l4.5,10.8h8.6l-17.6-42h-6.1L509.4,87z" fill="#5B6670"/>
	<path d="M562.8,52.2h2.8c3.2,0,8.5,0.2,8.5,5.7c0,5.5-5.4,5.7-8.8,5.7h-2.5V52.2z M555.1,87h7.8V71h2.8
		c4.5,0,8.3,0,12.3-3.4c2.7-2.5,4-5.7,4-9.6c0-3.9-1.2-7.2-4-9.6c-4-3.4-7.8-3.4-12.3-3.4h-10.6V87z" fill="#5B6670"/>
	<path d="M593,66c0-8.1,6.3-14.6,14.2-14.6c7.9,0,14.2,6.6,14.2,14.6c0,7.8-6.2,14.5-14.2,14.5
		C599.1,80.6,593,73.8,593,66 M585.2,66.1c0,12,9.9,21.7,22,21.7c12.1,0,22-9.7,22-21.7c0-12.4-10.1-22-22-22
		C595.2,44.1,585.2,53.7,585.2,66.1" fill="#5B6670"/>
	<path d="M641.2,52.2h5c6.1,0,7.5,4,7.5,6.4c0,2.2-1.1,6.5-7.5,6.5h-5V52.2z M633.5,87h7.8V70.9h0.1L652.5,87h9.4
		l-11.4-15.5c2.1-0.5,4.5-1.1,7-3.5c3-2.9,4-7.3,4-10c0-4.8-2.5-8.2-4.9-10.2c-2.4-1.9-5.4-2.8-10.2-2.8h-12.9V87z" fill="#5B6670"/>
	<polygon points="666.8,87 689.4,87 689.4,79.7 674.5,79.7 674.5,69.8 688.7,69.8 688.7,62.5 674.5,62.5 674.5,52.2 
		689.4,52.2 689.4,45 666.8,45 	" fill="#5B6670"/>
	<path d="M66,0c18.7,0,35.5,7.8,47.5,20.2h-10.8H31.6l85.5,4.2L26.8,25l92.4,4.8L21.8,31l44.4,2.1H66
		c-18.2,0-32.9,14.7-32.9,32.9c0,17.1,13.1,31.2,29.8,32.7L7.3,96.1C2.6,87.1,0,76.8,0,66C0,29.5,29.5,0,66,0" fill="#E1251B"/>
	<path d="M124.7,35.8c4.6,9,7.3,19.3,7.3,30.1c0,36.4-29.5,66-66,66c-18.7,0-35.6-7.8-47.6-20.3l10.9,0.1h71.1
		l-85.5-4.2l90.4-0.6l-92.4-4.8l97.4-1.2L66,98.9c18.2,0,32.9-14.7,32.9-32.9c0-17.2-13.1-31.2-29.9-32.8L124.7,35.8z" fill="#E1251B"/>
</g>
</svg>
