<?xml version="1.0" encoding="UTF-8"?><svg id="uuid-edb2e503-3e36-436a-88d8-98bb4f6dea91" xmlns="http://www.w3.org/2000/svg" viewBox="0 0 60 26">
<title>GXS Bank logo - Brandlogos.net</title><path d="M31.62,21.01c-.84-1.32-1.74-2.98-2.47-4.47-1.54,2.35-3.34,3.36-5.82,3.36h-.7v5.02h1.2c3.28,0,5.85-1.21,7.79-3.91ZM33.36,9.52c.84,1.21,1.74,2.87,2.44,4.26,1.47-2.11,3.08-3.05,5.55-3.05h.77v-5.02h-1.27c-3.01,0-5.58,1.32-7.49,3.81ZM50.84,26c5.58,0,9.16-3.08,9.16-7.82,0-5.09-3.24-6.47-6.55-7.55l-1.91-.62c-2.31-.76-3.41-1.25-3.41-2.87,0-1.52,1.37-2.39,3.74-2.39,2.07,0,4.71.55,6.38,1.35l.17-.1V1.25c-1.87-.76-4.35-1.25-6.58-1.25-5.28,0-8.82,2.91-8.82,7.27,0,4.78,2.77,6.37,6.38,7.55l1.91.62c1.77.59,3.68,1.25,3.68,2.98s-1.67,2.8-4.31,2.8c-1.97,0-4.58-.69-7.25-1.87l-.13.1v4.88c2.47,1.14,4.81,1.66,7.55,1.66ZM40.51,24.75h1.77v-4.85h-.94c-3.31,0-4.58-1.83-7.19-6.65-2.51-4.64-5.38-7.51-10.63-7.51h-.97v4.67h.33c3.84,0,5.42,1.8,8.06,7.03,2.47,4.92,5.08,7.31,9.56,7.31ZM12.37,26c6.42,0,10.4-4.43,10.4-11.08v-3.25h-10.36v4.4h5.98c0,3.05-2.34,5.12-5.92,5.12-3.98,0-7.32-2.91-7.32-8.2,0-4.67,3.24-8.14,8.16-8.14,2.91,0,5.42.87,7.96,2.6l.23-.03V2.25c-2.14-1.32-5.28-2.25-8.39-2.25C5.05,0,0,5.54,0,13.09s5.35,12.91,12.37,12.91Z" style="fill:#0c0120;"/></svg>