<svg width="150" height="40" viewBox="0 0 150 40" fill="none" xmlns="http://www.w3.org/2000/svg">
<path d="M80.2567 20L60.1572 0V40L80.2567 20Z" fill="white"/>
<path d="M40.105 20L60.1573 0H20.0527L40.105 20Z" fill="white"/>
<path d="M0 20L20.0523 40V0L0 20Z" fill="white"/>
<path d="M40.105 20L20.0527 40H60.1573L40.105 20Z" fill="white"/>
<path d="M97.8551 21.2235H90.5891V28.3765H86.9561V11.6235H90.5891V18.4941H97.8551V11.6235H101.488V28.3765H97.8551V21.2235Z" fill="white"/>
<path d="M110.217 28.7059C106.584 28.7059 103.612 27.2471 103.564 23.2471H107.197C107.245 25.0353 108.283 26.1177 110.264 26.1177C111.727 26.1177 113.425 25.3647 113.425 23.7177C113.425 22.4 112.293 22.0235 110.406 21.4588L109.179 21.1294C106.537 20.3765 103.895 19.3412 103.895 16.3294C103.895 12.6118 107.386 11.3412 110.547 11.3412C113.803 11.3412 116.634 12.4706 116.681 16.1882H113.048C112.906 14.6824 112.01 13.7882 110.311 13.7882C108.943 13.7882 107.622 14.4941 107.622 16C107.622 17.2235 108.754 17.6 111.114 18.353L112.529 18.7765C115.407 19.6706 117.247 20.6588 117.247 23.4824C117.247 27.2471 113.52 28.7059 110.217 28.7059Z" fill="white"/>
<path d="M119.276 11.6235H125.127C126.212 11.5765 127.344 11.6235 128.43 11.8118C130.458 12.2824 132.015 13.6 132.015 15.8588C132.015 18.0235 130.647 19.1059 128.666 19.6235C130.93 20.0471 132.629 21.1765 132.629 23.6706C132.629 27.4824 128.854 28.3294 125.929 28.3294H119.324L119.276 11.6235ZM125.127 18.5882C126.731 18.5882 128.382 18.2588 128.382 16.3294C128.382 14.5882 126.873 14.1177 125.363 14.1177H122.815V18.5882H125.127ZM125.457 25.8824C127.156 25.8824 128.807 25.5059 128.807 23.4353C128.807 21.3647 127.392 20.9882 125.646 20.9882H122.768V25.8824H125.457Z" fill="white"/>
<path d="M142.112 28.7059C136.687 28.7059 134.28 25.2706 134.28 20.1412C134.28 15.0118 136.97 11.2941 142.301 11.2941C145.651 11.2941 148.907 12.8 149.001 16.5647H145.226C145.038 14.8706 143.905 14.0235 142.301 14.0235C138.998 14.0235 138.008 17.553 138.008 20.2353C138.008 22.9177 138.998 26.0235 142.16 26.0235C143.811 26.0235 145.038 25.1294 145.274 23.4353H149.048C148.671 27.2941 145.604 28.7059 142.112 28.7059Z" fill="white"/>
</svg>
