<svg width="205" height="40" viewBox="0 0 205 40" fill="none" xmlns="http://www.w3.org/2000/svg">
<path d="M20.0029 0.494141C30.7787 0.49419 39.5096 9.22154 39.5098 19.9971C39.5098 30.7743 30.7787 39.5058 20.0029 39.5059C9.22819 39.5059 0.494141 30.7742 0.494141 19.9971C0.494312 9.22136 9.22836 0.494141 20.0029 0.494141Z" fill="white" stroke="black" stroke-width="0.98777"/>
<path d="M130.072 18.0178C129.318 18.0178 128.518 18.1886 128.002 18.3865V27.9412C128.401 28.0684 129.157 28.1649 129.915 28.1649C132.621 28.1649 134.214 26.2816 134.214 22.9632C134.214 19.8127 132.698 18.0178 130.072 18.0178ZM129.478 32.4161C126.293 32.4161 123.228 31.8209 121.433 31.1337V5.98503H128.002V14.4388C128.84 14.1378 130.274 13.9088 131.387 13.9088C136.963 13.9088 140.785 17.0186 140.785 22.4927C140.785 29.2086 136.765 32.4161 129.478 32.4161ZM153.921 23.7913C150.384 23.9362 147.713 24.2615 147.713 26.3886C147.713 27.8419 149.187 28.6404 151.532 28.6404C152.451 28.6404 153.487 28.5089 153.921 28.3664V23.7913ZM151.73 32.4159C144.967 32.4159 141.619 30.3377 141.619 26.5147C141.619 21.7712 147.437 20.6705 153.921 20.3831V19.6848C153.921 18.2602 152.732 17.5891 150.498 17.5891C148.426 17.5891 145.959 18.1625 144.412 18.6859L142.814 15.0363C144.724 14.4099 147.381 13.6182 151.304 13.6182C157.154 13.6182 160.101 15.5935 160.101 20.3398V31.1348C158.468 31.8209 155.16 32.4159 151.73 32.4159ZM174.668 32.0172V20.41C174.668 18.9133 173.827 17.9305 171.48 17.9305C170.255 17.9305 169.171 18.3874 169.171 18.3874V32.0172H162.603V15.0363C164.999 14.2675 167.824 13.6182 171.561 13.6182C178.292 13.6182 181.238 15.8902 181.238 19.7863V32.0172H174.668ZM196.928 32.0172L190.357 23.0929H190.276V32.0172H183.789V5.98457H190.276V21.8091H190.358L196.29 14.1387H203.696L197.008 22.4652L204.256 32.0172H196.928ZM109.073 39.1642H102.185L105.407 32.0172L97.3244 14.1387H104.471L108.833 26.8387L113.149 14.1387H120.301L109.073 39.1642ZM74.8937 8.00737H67.2453L62.1953 22.8408L57.1388 8.00737H49.4901L46.0293 32.0174H52.279L54.2691 15.5163L60.1253 32.0174H64.2629L70.1193 15.5163L72.1121 32.0174H78.3618L74.8937 8.00737ZM91.4954 23.7913C87.9503 23.9362 85.2823 24.2615 85.2823 26.3886C85.2823 27.8419 86.7574 28.6404 89.1067 28.6404C90.019 28.6404 91.052 28.5089 91.4954 28.3664V23.7913ZM89.3059 32.4159C82.533 32.4159 79.1928 30.3377 79.1928 26.5147C79.1928 21.7712 85.0059 20.6705 91.4954 20.3831V19.6848C91.4954 18.2602 90.3009 17.5891 88.071 17.5891C85.9982 17.5891 83.5296 18.1625 81.9787 18.6859L80.383 15.0363C82.2958 14.4099 85.5211 13.6182 88.8681 13.6182C94.7232 13.6182 97.6663 15.5935 97.6663 20.3398V31.1348C96.0381 31.8209 92.7274 32.4159 89.3059 32.4159Z" fill="white"/>
<path d="M12.0235 19.0821C10.5918 18.7147 9.3323 20.3904 8.63281 21.6551C8.8768 19.924 11.0039 17.0893 12.0235 19.0821ZM8.87635 19.1019C9.35638 17.4589 10.4939 16.8557 11.1025 17.341C10.2755 17.5972 9.67602 18.0866 8.87635 19.1019ZM12.5303 21.7412C13.2679 21.1203 13.1918 20.2009 12.0491 19.8988C11.2045 19.6846 9.38114 21.2123 9.18327 22.8948C9.91523 21.9595 12.0235 20.2364 12.5303 21.7412ZM24.0123 26.1219C24.1441 23.9569 22.04 22.9457 21.6361 20.7278C21.2414 18.5073 24.9192 14.9595 22.597 11.3262C26.9838 14.8645 23.5473 16.9632 25.7625 19.9036C24.9031 19.6432 24.0544 18.8829 23.7967 18.4828C22.5645 20.1055 26.8198 22.3369 24.0123 26.1219ZM16.9507 8.66391C17.4687 8.66777 18.3633 9.03398 17.9987 9.44995C16.7826 10.582 15.1383 10.1156 13.8341 11.2667C14.3695 9.84183 16.7513 9.63851 16.9507 8.66391Z" fill="black"/>
<path d="M15.4515 13.4449C15.293 13.4449 15.1478 13.2241 15.1058 12.934C15.3148 13.4626 15.8393 13.2104 15.541 12.446C15.728 12.4501 16.0249 12.4757 16.5767 12.443C15.9992 12.7429 15.7444 13.4503 15.4515 13.4449ZM20.8959 10.2673C21.4043 9.69258 20.9379 8.90881 18.8474 8.65278C21.026 9.70871 17.5229 9.94316 17.4023 11.7747C16.2596 12.2208 15.3443 11.478 14.775 11.9905C14.2275 12.4864 13.5943 12.1436 13.7786 11.5727C13.1184 11.9103 13.2513 12.8092 13.8938 13.0884C14.0198 13.1441 14.1323 13.262 14.0362 13.3542C13.3326 14.0199 13.0019 14.6026 13.7379 15.2562C14.1418 14.5172 14.3454 14.2502 14.7941 13.8897C15.213 14.1662 15.9531 13.9697 16.9495 12.8892C16.997 12.8267 17.0647 12.8499 17.039 12.9176C16.2485 15.641 14.2273 16.0804 13.5807 15.9516C13.9669 16.5413 16.5402 16.8991 16.8655 15.7523C17.5961 13.1602 20.0891 12.0323 17.9337 12.0825C18.518 11.398 20.4756 10.7594 20.8959 10.2673ZM21.9834 8.87292C23.0261 9.54946 23.5182 9.99291 24.1986 10.8035C24.3274 9.69712 23.7011 7.50939 22.7696 7.00619C22.3698 6.78924 21.7923 8.31997 21.9836 8.87292" fill="black"/>
<path d="M5.33203 17.7556C6.00448 15.9797 7.64198 13.8663 10.2991 12.2965C10.9118 10.7103 10.7098 9.63942 17.1451 7.14091C17.3077 6.19471 17.2793 5.04905 17.5479 5.04905C17.8244 5.04905 18.7733 5.48024 19.4525 6.45074C19.7345 6.42916 19.9825 6.40076 20.1545 6.36532C20.2713 5.81373 20.6564 4.29391 21.1607 3.50764C21.6216 2.78522 22.5163 2.70798 23.6726 3.66349C24.8698 4.63831 25.7143 5.04246 27.3561 7.14091C28.7441 7.76315 30.9146 8.56169 32.7936 10.8689C31.976 10.3225 31.053 10.1219 30.2924 10.0406C31.8256 11.3814 32.8356 13.6005 32.0696 16.8419C31.7658 13.812 29.5388 12.5391 28.1776 11.582C28.915 14.1346 25.7143 13.2481 24.7369 11.3271C25.0595 11.4303 25.3944 11.4166 25.5964 11.2906C25.485 7.38217 23.6524 5.13583 22.8348 4.46611C21.7816 3.5917 21.2218 5.68901 20.8651 7.25609C20.7538 7.78087 20.304 8.15617 19.7345 8.13981C19.8619 7.95012 20.003 7.44328 20.0246 7.27767C18.4087 7.41466 16.584 8.36767 15.4642 8.87201C12.6186 10.1585 11.9054 10.8012 11.2766 12.958C9.02209 13.9165 6.42044 16.5125 5.33203 17.7556Z" fill="black"/>
<path d="M19.527 17.2076C19.8441 17.5709 21.719 20.404 19.5458 24.0076C20.1397 21.3573 18.4872 16.2789 16.6638 18.879C17.9015 19.412 18.3054 20.4218 17.9733 21.4061C17.4676 20.4556 16.1811 19.4322 14.9055 19.8538C14.2696 20.0815 13.4252 20.0869 12.7948 19.1421C11.9731 17.9505 13.3518 16.4566 11.0039 16.5759C13.8439 15.1376 13.0213 17.9314 14.3902 18.2745C15.9832 18.6459 16.1702 17.6713 16.7193 17.0395C17.16 16.5011 17.9733 16.0986 18.8286 16.6708C19.2369 15.4304 18.6416 13.4592 19.8048 12.4221C20.2346 12.0371 21.6011 12.0914 22.3088 12.6457C21.3028 12.6336 20.1192 13.835 19.527 17.2076Z" fill="black"/>
<path d="M13.0431 28.6538C12.9061 28.5425 12.5306 28.0531 12.5658 27.5286C13.0429 27.8364 13.691 27.9909 13.691 27.9909C13.691 27.9909 13.3848 28.5114 13.0431 28.6538ZM15.8981 25.5317C16.1814 25.5737 16.424 25.8016 16.6803 25.613C16.9311 25.426 16.6693 24.6709 16.4713 24.4174C16.7196 24.3753 17.7078 24.4742 17.6576 24.8267C17.541 25.7689 16.9556 26.0644 15.5428 26.7423C15.7843 26.5199 15.745 26.0237 15.8981 25.5317ZM10.2436 24.7711C10.364 24.4796 10.9065 24.1055 11.1478 24.0811C11.0515 24.8958 11.35 26.0076 11.35 26.0076C11.35 26.0076 10.2531 25.3134 10.2436 24.7711ZM6.6376 21.1583C6.121 20.7977 5.31042 19.9531 5.22501 19.6468C5.32655 19.5317 5.75888 19.068 6.31092 18.9094C6.70939 18.8049 6.9711 19.026 6.91271 19.1466C6.85592 19.2915 6.50061 19.2915 6.39611 19.5953C6.23482 20.0576 6.74869 20.2041 6.85569 20.4127C6.9168 20.5469 7.05788 20.8913 6.6376 21.1583ZM34.0544 12.2529C35.5022 17.2987 35.0969 22.1574 33.6044 25.0653C33.7913 23.246 32.1931 20.5849 32.8356 17.4764C29.8096 20.4127 34.5383 27.6194 27.6773 32.352C28.7009 30.6982 29.1671 26.5985 28.8011 25.1032C29.1671 25.2538 29.5386 25.6998 29.7732 26.0876C30.3398 24.1991 30.413 21.5338 29.3325 18.8279C29.7096 18.8824 30.4782 19.2198 30.8319 19.548C31.0027 15.3804 27.9513 15.0687 27.3776 13.9367C27.3776 15.1555 28.8011 16.179 29.0628 17.7733C28.0623 17.2987 27.3356 17.2513 26.8206 17.2987C27.5932 17.8655 29.3082 21.1923 28.8011 23.8521C28.0624 23.2313 27.3776 22.945 26.6375 22.8787C27.5457 24.2642 27.9158 27.8675 26.7827 29.5268C26.7515 29.15 26.6159 28.0684 26.1888 27.6194C25.652 29.642 24.0754 30.4894 22.9908 30.7484C24.3371 29.3424 24.0754 26.8455 22.1055 26.1823C20.3365 25.5778 18.0822 26.7803 17.1669 30.9951C15.8899 31.3733 12.0492 30.5544 14.3458 28.0709C15.7447 28.5454 19.3035 26.1689 19.0649 24.4946C18.7192 22.1697 16.6044 21.3536 14.9219 21.367C12.845 21.405 11.442 23.3424 9.7445 24.1788C8.32804 23.966 7.84415 23.7654 7.12422 21.87C7.03062 20.7205 8.26011 19.9083 8.24125 18.7141C7.23258 18.9231 6.98314 17.4073 5.01896 18.9839C4.86561 18.6966 5.12459 18.0173 5.12459 18.0173C4.39808 18.6775 4.26109 19.4531 4.24609 19.6157C4.60276 20.3193 5.09892 20.9509 6.06534 21.5785C7.22463 24.6791 8.41346 25.0233 9.64158 25.1384C9.85059 25.4329 10.7586 26.5213 11.9152 26.6962C11.7171 26.1119 11.6887 24.4744 11.8052 24.0648C14.3187 21.5447 16.1868 23.0766 16.4294 23.749C14.1954 24.199 15.7747 28.975 12.071 26.8507C11.9218 27.3402 12.1267 28.5591 12.5969 29.2719C12.9752 32.5338 17.0883 31.7448 18.3639 32.31C18.2217 29.1363 19.9814 26.8182 21.4928 27.0095C23.0099 27.1992 23.4002 29.6693 20.8176 32.0063C21.4508 32.352 24.2217 31.8815 25.6343 30.8581C25.7631 31.67 24.7206 34.0438 23.4234 35.7356C34.2902 33.2373 39.1434 21.4577 34.0544 12.2529Z" fill="black"/>
</svg>
