<svg xmlns="http://www.w3.org/2000/svg" width="690.0655593423543" height="144.9137674618944" xml:space="preserve" viewBox="0 0 1000.0 210.028"><path d="M0 0v-35.188l167.578-.008V0z" style="fill:#ffcf01;fill-opacity:1;fill-rule:nonzero;stroke:none" transform="matrix(5.96737 0 0 -5.96737 0 0)"/><path style="fill:#000;fill-opacity:1;fill-rule:nonzero;stroke:none;stroke-width:5.96737099" d="M622.996 94.479c-3.318 0-6.839.752-9.112 1.623v42.058c1.754.56 5.084.985 8.42.985 11.91 0 18.922-8.29 18.922-22.897 0-13.868-6.671-21.77-18.23-21.77m-2.614 63.38c-14.023 0-27.515-2.62-35.416-5.645v-110.7h28.918v37.212c3.688-1.325 10.001-2.333 14.9-2.333 24.544 0 41.366 13.689 41.366 37.785 0 29.562-17.693 43.681-49.768 43.681M727.973 119.893c-15.57.638-27.325 2.07-27.325 11.433 0 6.397 6.487 9.912 16.81 9.912 4.046 0 8.605-.579 10.515-1.206zm-9.644 37.964c-29.77 0-44.504-9.148-44.504-25.976 0-20.88 25.606-25.725 54.148-26.99v-3.074c0-6.271-5.234-9.225-15.068-9.225-9.118 0-19.979 2.524-26.788 4.828l-7.035-16.065c8.408-2.757 20.104-6.242 37.374-6.242 25.749 0 38.722 8.695 38.722 29.587v47.518c-7.19 3.02-21.751 5.639-36.849 5.639M819.301 156.102v-51.093c0-6.588-3.705-10.914-14.035-10.914-5.394 0-10.162 2.011-10.162 2.011v59.996h-28.912V81.355c10.544-3.384 22.98-6.242 39.432-6.242 29.628 0 42.595 10.001 42.595 27.151v53.838zM917.285 156.102l-28.924-39.283h-.358v39.283H859.45V41.511h28.554v69.657h.358l26.113-33.764h32.6l-29.437 36.652 31.902 42.046zM530.56 187.562h-30.32l14.184-31.46-35.578-78.698h31.46l19.197 55.903 19-55.903h31.484zM380.11 50.415h-33.667l-22.229 65.294-22.258-65.294h-33.668l-15.234 105.688h27.51l8.76-72.635 25.778 72.635h18.213l25.779-72.635 8.772 72.635h27.51zM453.188 119.893c-15.605.638-27.349 2.07-27.349 11.433 0 6.397 6.493 9.912 16.834 9.912 4.016 0 8.563-.579 10.515-1.206zm-9.638 37.964c-29.813 0-44.516-9.148-44.516-25.976 0-20.88 25.588-25.725 54.154-26.99v-3.074c0-6.271-5.258-9.225-15.074-9.225-9.124 0-19.99 2.524-26.817 4.828l-7.024-16.065c8.42-2.757 22.617-6.242 37.35-6.242 25.773 0 38.728 8.695 38.728 29.587v47.518c-7.167 3.02-21.739 5.639-36.8 5.639M138.485 184.17c-44.714 0-80.966-36.258-80.966-80.977 0-44.708 36.252-81.043 80.966-81.043 44.743 0 80.977 36.335 80.977 81.043 0 44.72-36.234 80.977-80.977 80.977m0-169.002c-48.628 0-88.049 39.39-88.049 88.025 0 48.64 39.42 88.048 88.049 88.048 48.634 0 88.042-39.408 88.042-88.048 0-48.634-39.408-88.025-88.042-88.025"/><path style="fill:#000;fill-opacity:1;fill-rule:nonzero;stroke:none;stroke-width:5.96737099" d="M103.363 99.164c-6.302-1.617-11.846 5.759-14.925 11.326 1.074-7.62 10.437-20.098 14.925-11.326M89.51 99.251c2.113-7.232 7.12-9.887 9.799-7.751-3.64 1.128-6.278 3.282-9.798 7.751M105.594 110.869c3.247-2.733 2.912-6.78-2.118-8.11-3.718-.943-11.744 5.782-12.615 13.188 3.222-4.117 12.502-11.702 14.733-5.078M156.136 130.152c.58-9.53-8.682-13.981-10.46-23.744-1.737-9.774 14.452-25.391 4.23-41.384 19.31 15.575 4.183 24.813 13.934 37.756-3.783-1.146-7.519-4.493-8.653-6.254-5.424 7.143 13.308 16.965.95 33.626M125.052 53.305c2.28.017 6.218 1.629 4.613 3.46-5.353 4.983-12.591 2.93-18.332 7.997 2.357-6.272 12.842-7.167 13.72-11.457"/><path style="fill:#000;fill-opacity:1;fill-rule:nonzero;stroke:none;stroke-width:5.96737099" d="M118.456 74.35c-.698 0-1.337-.972-1.522-2.249.92 2.327 3.229 1.217 1.916-2.148.823.018 2.13.131 4.559-.013-2.542 1.32-3.664 4.434-4.953 4.41m23.965-13.987c2.238-2.53.185-5.98-9.017-7.107 9.59 4.648-5.83 5.68-6.361 13.742-5.03 1.964-9.059-1.306-11.565.95-2.41 2.183-5.197.674-4.386-1.839-2.906 1.486-2.321 5.443.507 6.672.555.245 1.05.764.627 1.17-3.097 2.93-4.553 5.495-1.313 8.372 1.778-3.253 2.674-4.428 4.649-6.015 1.844 1.217 5.102.352 9.488-4.404.209-.275.507-.173.394.125-3.48 11.988-12.377 13.922-15.223 13.355 1.7 2.596 13.027 4.171 14.459-.877 3.216-11.41 14.19-16.375 4.702-16.154 2.572-3.013 11.189-5.824 13.039-7.99M147.208 54.225c4.59 2.978 6.756 4.93 9.751 8.498.567-4.87-2.19-14.5-6.29-16.715-1.76-.955-4.302 5.783-3.46 8.217"/><path style="fill:#000;fill-opacity:1;fill-rule:nonzero;stroke:none;stroke-width:5.96737099" d="M73.905 93.325c2.96-7.817 10.168-17.12 21.864-24.03 2.697-6.982 1.808-11.696 30.135-22.694.716-4.165.591-9.208 1.773-9.208 1.217 0 5.394 1.898 8.384 6.17 1.241-.095 2.333-.22 3.09-.376.514-2.428 2.209-9.118 4.429-12.579 2.029-3.18 5.967-3.52 11.057.686 5.27 4.291 8.987 6.07 16.214 15.307 6.11 2.739 15.664 6.254 23.935 16.41-3.599-2.405-7.662-3.288-11.01-3.646 6.749 5.902 11.195 15.67 7.823 29.938-1.337-13.337-11.14-18.94-17.132-23.153 3.246 11.236-10.843 7.334-15.145-1.122 1.42.454 2.894.394 3.783-.161-.49-17.204-8.557-27.092-12.156-30.04-4.636-3.849-7.1 5.383-8.67 12.281-.49 2.31-2.47 3.962-4.977 3.89.561-.835 1.182-3.066 1.277-3.795-7.113.603-15.145 4.798-20.074 7.018-12.526 5.663-15.665 8.492-18.433 17.986-9.924 4.219-21.376 15.646-26.167 21.118"/><path style="fill:#000;fill-opacity:1;fill-rule:nonzero;stroke:none;stroke-width:5.96737099" d="M136.393 90.913c1.396 1.599 9.649 14.07.083 29.932 2.614-11.666-4.66-34.02-12.686-22.575 5.448 2.346 7.226 6.791 5.764 11.124-2.226-4.184-7.889-8.689-13.504-6.833-2.799 1.002-6.516 1.026-9.291-3.133-3.617-5.245 2.452-11.821-7.883-11.296 12.501-6.331 8.88 5.967 14.906 7.477 7.012 1.635 7.835-2.655 10.252-5.436 1.94-2.37 5.52-4.142 9.285-1.623 1.797-5.46-.823-14.137 4.297-18.702 1.892-1.695 7.907-1.456 11.022.984-4.428-.053-9.638 5.234-12.245 20.08"/><path style="fill:#000;fill-opacity:1;fill-rule:nonzero;stroke:none;stroke-width:5.96737099" d="M107.85 141.297c-.603-.49-2.256-2.644-2.101-4.953 2.1 1.355 4.953 2.035 4.953 2.035s-1.349 2.291-2.853 2.918m12.568-13.743c1.247.185 2.315 1.188 3.443.358 1.104-.823-.048-4.147-.92-5.263 1.093-.185 5.443.25 5.222 1.802-.513 4.147-3.09 5.448-9.309 8.432 1.063-.979.89-3.163 1.564-5.329m-24.89-3.348c.53-1.283 2.918-2.93 3.98-3.037-.424 3.586.89 8.48.89 8.48s-4.828-3.056-4.87-5.443m-15.873-15.903c-2.274-1.587-5.842-5.305-6.218-6.653.447-.507 2.35-2.548 4.78-3.246 1.754-.46 2.906.513 2.649 1.044-.25.638-1.814.638-2.274 1.975-.71 2.035 1.552 2.68 2.023 3.598.269.591.89 2.107-.96 3.282m120.684-39.2c6.373 22.211 4.589 43.598-1.981 56.398.823-8.008-6.212-19.722-3.384-33.405-13.32 12.925 7.495 44.648-22.706 65.48 4.506-7.28 6.558-25.326 4.947-31.908 1.611.663 3.246 2.626 4.279 4.333 2.494-8.313 2.816-20.045-1.94-31.956 1.66.24 5.043 1.725 6.6 3.17.752-18.345-12.68-19.717-15.205-24.7 0 5.365 6.266 9.87 7.418 16.888-4.404-2.089-7.603-2.298-9.87-2.089 3.401 2.495 10.95 17.139 8.718 28.847-3.252-2.733-6.266-3.993-9.524-4.285 3.998 6.099 5.627 21.96.639 29.264-.137-1.659-.734-6.42-2.614-8.396-2.363 8.903-9.303 12.633-14.077 13.773 5.926-6.189 4.774-17.18-3.897-20.099-7.787-2.661-17.71 2.632-21.739 21.185-5.621 1.665-22.527-1.94-12.418-12.872 6.158 2.089 21.823-8.372 20.773-15.742-1.522-10.234-10.831-13.826-18.237-13.767-9.142.167-15.318 8.695-22.79 12.377-6.235-.937-8.365-1.82-11.534-10.163-.412-5.06 5-8.635 4.917-13.892-4.44.92-5.538-5.752-14.184 1.188-.675-1.265.465-4.255.465-4.255-3.198 2.906-3.801 6.32-3.867 7.036 1.57 3.097 3.754 5.877 8.008 8.64 5.103 13.648 10.336 15.163 15.742 15.67.92 1.296 4.917 6.087 10.008 6.857-.872-2.572-.997-9.78-.484-11.583 11.064-11.093 19.287-4.35 20.355-1.39-9.834 1.981-2.882 23.004-19.185 13.653-.657 2.155.245 7.52 2.315 10.658 1.665 14.358 19.77 10.885 25.385 13.373-.626-13.97 7.12-24.174 13.773-23.332 6.678.835 8.396 11.708-2.972 21.995 2.787 1.522 14.984-.549 21.202-5.054.567 3.574-4.022 14.023-9.732 21.47 47.834-10.997 69.197-62.848 46.796-103.366"/></svg>