<svg width="102" height="40" viewBox="0 0 102 40" fill="none" xmlns="http://www.w3.org/2000/svg">
<g clip-path="url(#clip0_358_3069)">
<path d="M19.5544 39.2306L2.84245 28.3706C2.84245 28.3706 0.746712 27.1676 0.266948 24.9269C-0.406981 21.7807 1.81443 19.0833 1.81443 19.0833L23.5036 33.1833C25.1768 34.2716 25.6333 36.4986 24.5579 38.1782C23.453 39.9036 21.1828 40.2844 19.5537 39.2306H19.5544Z" fill="white"/>
<path d="M3.72534 16.756C3.72534 16.756 1.16551 15.2131 1.16551 11.6444C1.16551 8.088 3.72425 6.564 3.72425 6.564L12.8605 0.595269C13.6645 0.0866912 14.637 -0.0849602 15.567 0.117549C16.4969 0.320057 17.3094 0.880395 17.8282 1.67702C18.3469 2.47364 18.5302 3.44231 18.3381 4.3729C18.146 5.30349 17.5941 6.12096 16.8021 6.648L9.10184 11.6531L22.2216 20.1825C22.2216 20.1825 24.5833 21.5331 25.0484 23.8131C25.698 26.9938 23.5046 29.6145 23.5046 29.6145L3.72534 16.756ZM3.67689 39.8062C4.53442 39.8062 5.14497 39.5345 5.74057 39.1491L10.2005 36.2491L5.74057 33.3498C5.1395 32.9633 4.50856 32.6927 3.67689 32.6927C3.2047 32.686 2.73587 32.773 2.29766 32.9487C1.85945 33.1244 1.46059 33.3853 1.12429 33.7163C0.78798 34.0472 0.520926 34.4416 0.338647 34.8765C0.156368 35.3113 0.0625 35.778 0.0625 36.2494C0.0625 36.7209 0.156368 37.1876 0.338647 37.6224C0.520926 38.0573 0.78798 38.4517 1.12429 38.7826C1.46059 39.1135 1.85945 39.3745 2.29766 39.5502C2.73587 39.7259 3.2047 39.8129 3.67689 39.8062Z" fill="white"/>
<path d="M20.9218 8.09673C20.0639 8.09673 19.4534 8.36836 18.8578 8.75345L14.3975 11.6531L18.8578 14.5527C19.4588 14.9396 20.0902 15.2102 20.9218 15.2102C21.3897 15.2102 21.8531 15.1182 22.2853 14.9394C22.7176 14.7607 23.1104 14.4987 23.4413 14.1684C23.7722 13.8382 24.0346 13.4461 24.2137 13.0146C24.3927 12.583 24.4849 12.1205 24.4849 11.6535C24.4849 11.1864 24.3927 10.7239 24.2137 10.2924C24.0346 9.86083 23.7722 9.46874 23.4413 9.13847C23.1104 8.80819 22.7176 8.54621 22.2853 8.36746C21.8531 8.18872 21.3897 8.09673 20.9218 8.09673Z" fill="white"/>
<path d="M39.4765 28.5164C40.4196 28.5164 41.299 28.2611 41.986 27.6706V28.9949C41.2185 29.5215 40.3074 29.7447 39.3482 29.7447C36.933 29.7447 35.2559 28.0691 35.2559 25.6596C35.2559 23.2658 36.9822 21.5906 39.3803 21.5906C40.3234 21.5906 41.2025 21.8622 41.9059 22.3884V23.8404C41.2826 23.1706 40.4196 22.8193 39.4601 22.8193C37.7815 22.8193 36.5986 23.9844 36.5986 25.6593C36.5986 27.3349 37.7978 28.5164 39.4765 28.5164ZM44.7196 29.6015H43.4246V19.2407L44.7196 20.0396V23.0749C45.3112 22.1655 46.2544 21.5913 47.4532 21.5913C49.4357 21.5913 50.4907 23.0429 50.4907 24.9738V29.6015H49.18V25.1971C49.18 23.6651 48.5086 22.8516 47.1334 22.8516C45.6788 22.8516 44.7185 24.096 44.7185 25.66L44.7196 29.6015ZM58.5315 28.26C57.8765 29.1855 56.8693 29.744 55.6384 29.744C53.3365 29.744 51.6899 28.0367 51.6899 25.7069C51.6899 23.3302 53.3365 21.5898 55.6384 21.5898C56.8693 21.5898 57.8765 22.1644 58.5315 23.1062V21.7335H59.8426V29.6004H58.5315V28.26ZM53.0326 25.6909C53.0326 27.3186 54.1678 28.5153 55.7662 28.5153C57.3808 28.5153 58.5315 27.3186 58.5315 25.6909C58.5315 24.0313 57.3808 22.8186 55.7662 22.8186C54.1678 22.8196 53.0326 24.032 53.0326 25.692V25.6909ZM63.1518 29.6015H61.8567V21.7346H63.1518V23.4098C63.7751 22.2447 64.7823 21.5909 66.0293 21.5909V23.0749C64.4625 22.8516 63.1518 23.9047 63.1518 25.8513V29.6015ZM79.2976 26.1706H73.0789C73.2709 27.5909 74.39 28.5324 75.9564 28.5324C76.9637 28.5324 77.9389 28.2451 78.7702 27.6546V28.8993C77.9228 29.4738 76.9637 29.7451 75.9564 29.7451C73.4785 29.7451 71.7048 28.1495 71.7048 25.7386C71.7048 23.3767 73.2075 21.5898 75.5896 21.5898C77.8594 21.5898 79.3465 23.2651 79.3465 25.5153C79.3468 25.7346 79.3304 25.9538 79.2976 26.1706ZM73.0949 25.1182H77.9709C77.843 23.7775 76.9957 22.7884 75.6049 22.7884C74.1659 22.7876 73.3026 23.7931 73.0949 25.1175V25.1182ZM82.0633 29.6015H80.7683V21.7346H82.0633V23.4098C82.6866 22.2447 83.6935 21.5909 84.9404 21.5909V23.0749C83.3744 22.8516 82.0633 23.9047 82.0633 25.8513V29.6015ZM92.6301 26.1706H86.4118C86.603 27.5909 87.7225 28.5324 89.2889 28.5324C90.2962 28.5324 91.2713 28.2451 92.1026 27.6546V28.8993C91.2553 29.4738 90.2962 29.7451 89.2889 29.7451C86.811 29.7451 85.0373 28.1495 85.0373 25.7386C85.0373 23.3767 86.5396 21.5898 88.9217 21.5898C91.1916 21.5898 92.6782 23.2651 92.6782 25.5153C92.6788 25.7346 92.6627 25.9537 92.6301 26.1706ZM86.4278 25.1182H91.303C91.1752 23.7775 90.3278 22.7884 88.9374 22.7884C87.4988 22.7876 86.6362 23.7931 86.4278 25.1175V25.1182ZM100.403 28.2506C99.7643 29.1924 98.741 29.7666 97.5101 29.7666C95.2078 29.7666 93.5612 28.0589 93.5612 25.7291C93.5612 23.3524 95.2078 21.612 97.5101 21.612C98.741 21.612 99.7643 22.2029 100.403 23.16V19.2426L101.714 20.0418V29.6011H100.403V28.2506ZM94.9044 25.7135C94.9044 27.3411 96.0391 28.5382 97.638 28.5382C99.2525 28.5382 100.403 27.3411 100.403 25.7135C100.403 24.0538 99.2525 22.8411 97.638 22.8411C96.0391 22.8411 94.9044 24.0531 94.9044 25.7135ZM68.2918 26.9866C68.2918 28.0876 68.9632 28.5186 69.8105 28.5186C70.4687 28.525 71.1121 28.3239 71.6491 27.944V29.2047C71.1049 29.6036 70.3541 29.7633 69.6987 29.7633C68.0201 29.7633 66.9968 29.0131 66.9968 26.8906V19.2389L68.2918 20.0378V26.9866ZM70.385 21.6316C70.2749 21.5603 70.1517 21.5113 70.0225 21.4875C69.8934 21.4637 69.7608 21.4655 69.6324 21.4928C69.504 21.5201 69.3822 21.5724 69.274 21.6467C69.1658 21.721 69.0733 21.8158 69.0018 21.9258C68.9304 22.0358 68.8813 22.1588 68.8574 22.2877C68.8335 22.4166 68.8354 22.5489 68.8627 22.6771C68.8901 22.8053 68.9425 22.9269 69.0169 23.0349C69.0914 23.1429 69.1864 23.2352 69.2965 23.3066L69.3242 23.324C69.485 23.4268 69.672 23.4815 69.863 23.4815C70.054 23.4815 70.241 23.4268 70.4018 23.324L71.6895 22.4996L70.385 21.6316ZM37.9578 17.1716C38.8845 17.1716 39.5563 16.7727 39.5563 16.0546C39.5563 15.6236 39.3326 15.2887 38.7399 15.0491L36.8693 14.2993C35.9101 13.8844 35.3826 13.3418 35.3826 12.3204C35.3826 10.948 36.4857 10.0862 38.0842 10.0862C39.0109 10.0862 39.8743 10.3415 40.4819 10.8044V12.1626C39.7628 11.524 38.8831 11.1571 38.1009 11.1571C37.2693 11.1571 36.6777 11.54 36.6777 12.1786C36.6777 12.6571 36.9017 12.9444 37.5254 13.1836L39.396 13.9338C40.4029 14.3647 40.867 14.9709 40.867 15.8167C40.867 17.3167 39.6517 18.2422 37.9417 18.2422C36.9021 18.2422 35.9589 17.9549 35.2719 17.4447V16.0386C36.1028 16.8204 37.0303 17.1716 37.9578 17.1716ZM43.3292 15.464C43.3292 16.5651 44.0002 16.996 44.8479 16.996C45.5054 17.0019 46.148 16.8008 46.6846 16.4215V17.6822C46.1404 18.0811 45.3892 18.2407 44.7338 18.2407C43.0552 18.2407 42.0327 17.4909 42.0327 15.3684V8.50982L43.3273 7.70982L43.3292 15.464ZM53.9277 16.7564C53.2723 17.6822 52.2651 18.2407 51.0342 18.2407C48.7322 18.2407 47.0857 16.5335 47.0857 14.2033C47.0857 11.8266 48.7322 10.0862 51.0342 10.0862C52.2651 10.0862 53.2723 10.6607 53.9277 11.6026V10.2309H55.2388V18.0971H53.9277V16.7564ZM48.4284 14.1876C48.4284 15.8153 49.5635 17.012 51.162 17.012C52.7769 17.012 53.9277 15.8153 53.9277 14.1876C53.9277 12.528 52.7769 11.3149 51.162 11.3149C49.5635 11.3149 48.4284 12.528 48.4284 14.1876ZM58.5476 18.0971H57.2525V10.2309H58.5476V11.5713C59.1392 10.6618 60.0823 10.0873 61.2812 10.0873C63.2636 10.0873 64.3186 11.5396 64.3186 13.4706V18.0982H63.0079V13.6942C63.0079 12.1622 62.3365 11.3484 60.9617 11.3484C59.5067 11.3484 58.5465 12.5931 58.5465 14.1571L58.5476 18.0971ZM72.3598 16.7247C71.7205 17.6666 70.6972 18.2411 69.4663 18.2411C67.1644 18.2411 65.5178 16.5335 65.5178 14.2033C65.5178 11.8266 67.1644 10.0862 69.4663 10.0862C70.6972 10.0862 71.7205 10.6767 72.3598 11.6342V8.50873L73.6709 7.70982V18.0971H72.3598V16.7247ZM66.8606 14.1876C66.8606 15.8153 67.9957 17.012 69.5942 17.012C71.209 17.012 72.3598 15.8153 72.3598 14.1876C72.3598 12.528 71.209 11.3149 69.5942 11.3149C67.9968 11.3149 66.8606 12.528 66.8606 14.1876ZM96.3397 16.7247C95.7003 17.6666 94.677 18.2411 93.4461 18.2411C91.1438 18.2411 89.4973 16.5335 89.4973 14.2033C89.4973 11.8266 91.1438 10.0862 93.4461 10.0862C94.677 10.0862 95.7003 10.6767 96.3397 11.6342V8.50873L97.6504 7.70982V18.0971H96.3397V16.7247ZM90.8404 14.1876C90.8404 15.8153 91.9751 17.012 93.574 17.012C95.1885 17.012 96.3397 15.8153 96.3397 14.1876C96.3397 12.528 95.1885 11.3149 93.574 11.3149C91.9762 11.3149 90.8404 12.528 90.8404 14.1876ZM81.9198 16.7564C81.2644 17.6822 80.2572 18.2407 79.0262 18.2407C76.7243 18.2407 75.0778 16.5335 75.0778 14.2033C75.0778 11.8266 76.7243 10.0862 79.0262 10.0862C80.2572 10.0862 81.2644 10.6607 81.9198 11.6026V10.2309H83.2308V18.0971H81.9198V16.7564ZM76.4205 14.1876C76.4205 15.8153 77.5556 17.012 79.1541 17.012C80.7686 17.012 81.9198 15.8153 81.9198 14.1876C81.9198 12.528 80.7686 11.3149 79.1541 11.3149C77.5545 11.3149 76.4205 12.528 76.4205 14.1876ZM86.5396 18.0971H85.2446V10.2309H86.5396V11.9066C87.1629 10.7415 88.1702 10.0873 89.4171 10.0873V11.5713C87.8503 11.348 86.5396 12.4011 86.5396 14.348V18.0971ZM45.1542 11.9066C45.2924 11.9965 45.4508 12.051 45.6152 12.0651C45.7796 12.0792 45.9449 12.0525 46.0964 11.9873C46.248 11.9222 46.3811 11.8207 46.4838 11.6919C46.5865 11.563 46.6558 11.4108 46.6853 11.2487C46.709 11.1193 46.7066 10.9864 46.6785 10.8578C46.6504 10.7292 46.597 10.6075 46.5214 10.4996C46.4461 10.3918 46.3501 10.2998 46.2391 10.2291L46.2114 10.212C46.0502 10.1098 45.863 10.0558 45.6721 10.0564C45.4811 10.0571 45.2943 10.1123 45.1338 10.2156L43.8468 11.0429L45.1542 11.9066Z" fill="white"/>
</g>
<defs>
<clipPath id="clip0_358_3069">
<rect width="102" height="40" fill="white"/>
</clipPath>
</defs>
</svg>
