<svg width="134" height="29" viewBox="0 0 134 29" fill="none" xmlns="http://www.w3.org/2000/svg">
<path d="M27.7146 0.00683594H0V16.9838H27.7146V0.00683594Z" fill="white"/>
<path d="M22.4186 16.9839H5.29297V27.4746H22.4186V16.9839Z" fill="#D4B0F8"/>
<path d="M95.8536 23.6808V6.58252H86.6931V7.57679C87.7358 7.57679 88.4691 8.05044 88.4691 10.3717V22.3082C88.1914 23.2829 87.0986 24.3841 85.7926 24.3841C84.0047 24.3841 82.8343 23.3703 82.8343 20.9094V6.58252H73.6738V7.57679C74.7165 7.57679 75.4512 8.05044 75.4512 10.3704V21.0738C75.4512 24.863 77.6972 27.941 82.0931 27.941C85.191 27.941 87.5357 25.9825 88.4691 24.0618V27.4674H97.6257V26.4731C96.2921 26.4757 95.8536 25.9408 95.8536 23.6808Z" fill="white"/>
<path d="M111.127 14.1206C108.146 12.5157 106.842 11.7015 106.842 10.1318C106.842 8.92223 108.003 7.85489 109.946 7.85489C112.495 7.85489 114.092 9.5642 114.61 12.1738L115.49 12.0955L115.098 6.26562H114.168C114.06 6.79146 113.803 7.01589 113.327 7.01589C112.274 7.01589 110.844 5.95508 107.679 5.95508C103.742 5.95508 100.169 8.71607 100.169 12.8367C100.169 15.5363 101.556 17.4309 103.896 18.6144L107.125 20.3746C108.949 21.348 109.906 22.1922 109.906 23.6027C109.906 25.1437 108.616 26.134 106.432 26.134C103.516 26.134 101.427 23.7254 101.041 20.7021L100.047 20.8717L100.525 27.7625H101.462C101.585 27.067 101.952 26.7251 102.571 26.7251C103.832 26.7251 105.012 28.1069 108.599 28.1069C112.565 28.1069 116.447 25.1515 116.447 20.6995C116.448 17.4557 114.123 15.7334 111.127 14.1206Z" fill="white"/>
<path d="M49.6767 24.5279C47.8638 24.5279 47.0212 23.1161 47.0212 21.0167V8.38996C49.8755 8.38996 52.2769 8.64179 52.2769 8.64179L52.8377 6.10653C50.8642 6.35445 48.5497 6.58279 47.0212 6.58279V0H46.0141C44.2328 3.0885 41.3101 6.03216 37.5605 7.19736V8.38213H39.567L39.4235 21.0871C39.4235 25.1947 42.1263 27.9426 46.1602 27.9426C49.2594 27.9426 51.6265 26.2751 53.2524 23.7568L52.6152 23.0796C51.874 23.9342 50.959 24.5279 49.6767 24.5279Z" fill="white"/>
<path d="M133.234 23.0809C132.491 23.9342 131.576 24.5279 130.294 24.5279C128.481 24.5279 127.638 23.1161 127.638 21.0167V8.38996C130.493 8.38996 132.894 8.64179 132.894 8.64179L133.455 6.10653C131.481 6.35445 129.167 6.58279 127.638 6.58279V0H126.631C124.85 3.0885 121.927 6.03216 118.178 7.19736V8.38213H120.184L120.041 21.0871C120.041 25.1947 122.744 27.9426 126.777 27.9426C129.877 27.9426 132.244 26.2751 133.87 23.7568L133.234 23.0809Z" fill="white"/>
<path d="M68.7768 6.2124C66.3096 6.2124 64.315 8.98905 63.3289 11.7409L63.4211 6.58297H54.1895V7.57854C55.2322 7.57854 55.9655 8.05219 55.9655 10.3722V23.6813C55.9655 26.0025 55.2308 26.4762 54.1895 26.4762V27.4705H65.9475V26.4762C64.4032 26.4762 63.5159 25.6842 63.5159 23.7948V13.2375C65.0746 11.463 68.782 11.891 69.5101 15.9672H70.4422L73.0239 9.71192C72.3696 8.06915 71.0847 6.2124 68.7768 6.2124Z" fill="white"/>
</svg>
