<svg width="193" height="40" viewBox="0 0 193 40" fill="none" xmlns="http://www.w3.org/2000/svg">
<g clip-path="url(#clip0_303_3999)">
<path d="M0 0H39.9752V39.9522H0V0Z" fill="url(#paint0_linear_303_3999)"/>
<path d="M38.7431 20.1552C38.7431 28.5134 39.0898 37.0507 39.0898 37.0507C39.0898 38.0179 38.48 38.6269 37.6908 38.6269H3.08469C2.28352 38.6269 1.75737 37.9224 1.67367 37.0507C1.67367 37.0507 0.705078 29.7433 0.705078 18.6507C0.705078 7.47462 1.75737 2.29253 1.75737 2.29253C1.85303 1.40895 2.37918 0.704468 3.1684 0.704468H37.7745C38.5637 0.704468 39.1855 1.40895 39.1855 2.29253C39.0898 2.29253 38.7431 11.8806 38.7431 20.1552Z" fill="url(#paint1_linear_303_3999)"/>
<path d="M30.9944 10.7343C28.5311 12.1433 27.7419 12.3224 25.0992 13.8985L25.1829 13.6358C26.5939 12.1433 27.2038 11.4388 28.0887 10.1134C25.6253 10.2926 22.0141 10.5552 19.4551 11.0926L19.6344 10.8179C22.0141 9.6836 26.3309 8.53733 28.5311 8.27464C28.005 7.47464 23.5925 5.09852 22.5402 4.66867L22.6239 4.39404C25.9721 4.75225 30.3726 6.34031 32.2261 7.47464C33.0153 7.21195 33.9002 7.21195 35.3949 7.04479C35.3949 7.04479 35.1318 7.91643 33.5534 9.0627C33.9839 10.1134 33.0153 16.1911 32.1424 17.7791C32.1424 15.3075 31.963 12.1433 30.9944 10.7343Z" fill="url(#paint2_linear_303_3999)"/>
<path d="M9.06374 31.6776C8.98003 32.5612 9.24311 33.1701 9.42247 33.9701L9.33877 34.2328C8.27452 33.1701 7.569 32.203 6.95915 30.8895C5.72749 30.3522 4.92632 29.8269 3.87402 29.2179L3.95773 28.9552C4.66324 28.6806 5.36876 28.6806 6.15798 28.4179C5.8949 26.8418 5.99057 25.4328 6.15798 23.403V23.2358C6.60042 24.991 6.86349 26.8418 7.66467 28.1552C8.63325 27.988 9.60184 27.5463 10.7378 27.3672L10.6541 27.6298C10.0323 28.5134 9.68555 29.2179 9.33877 30.1851C10.3911 31.2358 11.7064 31.594 13.0338 32.1194L12.9381 32.3821C11.4434 32.2985 10.3911 32.1194 9.06374 31.6776Z" fill="url(#paint3_linear_303_3999)"/>
<path d="M16.6452 12.3224C16.6452 12.3224 16.1191 13.2896 15.6766 14.5194H15.581C18.6661 14.9612 21.5719 16.191 22.2774 16.6328L22.1937 16.8955C19.0249 16.3701 17.3508 16.3701 16.1191 16.5373C14.9711 16.6328 14.7081 16.8119 14.7081 16.8119C14.0025 18.3045 13.6438 20.7642 13.4764 21.6478L13.3807 21.9104C12.7709 20.5015 11.9697 17.6836 11.9697 17.6836C10.3913 18.5672 6.69629 21.994 6.69629 21.994C8.71717 17.9463 10.8337 16.1075 10.8337 16.1075C10.1282 15.403 8.27473 15.0448 6.8637 14.9612L6.95936 14.6985C7.83229 14.4358 9.60205 14.3403 10.738 14.2567C12.1491 14.2567 12.9383 14.2567 12.9383 14.2567C14.0863 13.2896 15.9397 12.406 16.6452 12.3224Z" fill="url(#paint4_linear_303_3999)"/>
<path d="M20.6872 31.4985C21.7514 30.9731 22.8994 30.006 23.868 29.3851L23.6886 29.6597C22.72 30.6269 21.9308 31.4149 20.7828 32.2985C20.8665 32.7284 21.1296 32.9075 21.2253 33.1701L21.1296 33.4328C20.6872 33.5284 20.0773 33.5284 19.4555 33.5284C18.2238 34.3164 16.5497 34.8418 15.3181 35.1045L15.4137 34.8418C16.0236 34.4119 16.8128 33.9701 17.4346 33.4328C16.6454 33.2657 15.9399 33.003 15.2344 32.6448L15.3181 32.3821C16.2867 32.3821 17.5183 32.4657 18.5826 32.203C19.2881 31.4149 19.8979 30.7104 20.5198 29.8269C20.5198 30.4478 20.6035 30.8895 20.6872 31.4985Z" fill="url(#paint5_linear_303_3999)"/>
<path d="M31.1744 10.4717C28.7111 11.8806 27.9099 12.0597 25.2672 13.6358C26.8576 11.9642 27.3837 11.2597 28.3523 9.76718C25.889 9.85076 22.2777 10.209 19.7188 10.7343C21.931 9.50449 26.4152 8.17912 28.7111 7.91643C28.173 7.21195 23.7725 4.93136 22.6245 4.39404C26.0684 4.66867 30.3732 5.9821 32.406 7.21195C33.1953 6.94927 34.0802 6.94927 35.5749 6.77016C35.2161 7.47464 35.2161 7.91643 33.7214 8.8836C34.1639 9.94628 33.1953 16.012 32.3104 17.6C32.3104 15.0448 32.0473 11.8806 31.1744 10.4717Z" fill="white"/>
<path d="M9.33909 31.4149C9.15972 32.3821 9.24343 33.0866 9.5065 33.9701C8.45421 32.9075 7.74869 31.9403 7.12688 30.6269C5.99089 30.0895 5.106 29.5642 4.05371 28.9552C4.75923 28.597 5.46474 28.4179 6.33766 28.1552C6.07459 26.5791 6.07459 25.1701 6.33766 23.1403C6.6964 24.991 7.04318 26.4 7.92806 27.8925C8.89665 27.6298 9.76957 27.5463 10.9175 27.3672C10.3077 28.2507 9.94894 28.9552 9.60216 29.9224C10.6545 30.9731 11.7067 31.594 13.1178 32.1194C11.623 32.0358 10.4751 31.8567 9.33909 31.4149Z" fill="white"/>
<path d="M16.8129 12.0597C16.3824 12.6686 15.8443 13.7313 15.7606 14.1612C19.3719 14.6985 22.3614 16.5373 22.3614 16.5373C19.1925 16.0119 17.5184 16.0119 16.2868 16.191C15.1508 16.2746 14.8758 16.4537 14.8758 16.4537C14.0028 18.3045 13.4767 21.5642 13.4767 21.5642C12.8549 20.1552 12.0657 17.3373 12.0657 17.3373C10.4753 18.2209 6.78027 21.6478 6.78027 21.6478C8.80115 17.6 10.9177 15.7492 10.9177 15.7492C10.2122 15.0448 8.37067 14.6985 6.95964 14.603C7.66516 14.3403 9.50667 13.994 10.9177 13.8985C12.3287 13.8985 13.1179 13.8985 13.1179 13.8985C14.2659 13.0269 16.1194 12.1433 16.8129 12.0597Z" fill="white"/>
<path d="M20.6874 31.1522C21.8354 30.6269 22.7203 30.0895 23.7726 29.3851C22.8996 30.3642 22.0148 31.1522 20.8668 32.0358C20.9625 32.5612 21.0462 32.8239 21.1299 33.1701C20.6874 33.2657 20.0776 33.2657 19.4558 33.2657C18.2241 34.0537 16.55 34.5791 15.3184 34.8418C16.1195 34.3164 16.7294 33.8746 17.5186 33.1701C16.7294 33.003 16.0239 32.7284 15.3184 32.3821C16.55 32.3821 17.5186 32.2985 18.7503 31.9403C19.4558 31.1522 20.0776 30.4478 20.6874 29.5642C20.6874 30.1851 20.6874 30.6269 20.6874 31.1522Z" fill="white"/>
<path fill-rule="evenodd" clip-rule="evenodd" d="M49.9238 13.0269H57.0627C59.526 13.1105 62.1687 13.994 62.1687 16.2746C62.1687 17.6836 60.937 18.9134 59.1673 19.3552C61.5469 20.0597 62.8742 21.3851 62.8742 23.1403C62.8742 25.9582 59.526 26.9254 56.3572 26.9254H50.0195V26.7463C50.1869 24.9911 50.1869 20.8597 50.1869 19.6179C50.1869 18.3045 50.1032 14.603 50.0195 13.194L49.9238 13.0269ZM53.7025 14.6985C53.7025 16.5493 53.6188 18.6627 53.6188 19.6299C53.6188 20.4179 53.6188 23.2358 53.7025 25.2657C54.145 25.2657 54.8505 25.2657 55.2929 25.2657C57.9356 25.2657 59.251 24.4657 59.251 22.9731C59.251 22.5314 59.0716 22.1015 58.8085 21.7433C58.1987 20.9552 56.8714 20.5134 55.3766 20.5134H54.5874L55.3766 18.5791H55.4603C56.7876 18.6627 57.7562 18.3164 58.2824 17.6955C58.5455 17.4328 58.6411 17.0746 58.6411 16.6448C58.6411 15.1403 57.6725 14.6149 54.9342 14.6149C54.4917 14.6149 53.9656 14.6149 53.7025 14.6985ZM77.7378 13.1224H78.0129V13.206C77.9172 14.6149 77.8335 18.3164 77.8335 19.6299C77.8335 20.8597 77.8335 25.003 78.0129 26.7582V26.9373H75.3702V26.8418C75.1071 26.3164 69.463 18.2209 69.463 18.1373C68.9368 17.3493 68.7575 17.0746 68.6738 16.6448C68.6738 19.9881 68.6738 23.4149 68.8531 26.7582V26.9373H65.5886V26.7582C65.768 25.003 65.768 20.8597 65.768 19.6299C65.768 18.3164 65.6843 14.6149 65.5886 13.206V13.0269H69.1999C70.3479 14.4358 73.6004 19.4508 73.6004 19.5463C74.569 20.9552 74.7484 21.2179 74.9277 21.7433C74.7484 20.0717 74.7484 18.3164 74.6647 16.5493L74.569 13.0269H77.7378V13.1224ZM81.6122 13.2179V13.0388H87.6987C90.6045 13.1224 94.0364 13.8269 94.0364 17.0866C94.0364 19.9045 91.5731 21.2179 86.4551 21.2179C86.4551 21.2179 85.4028 21.2179 85.2235 21.2179C85.2235 23.0687 85.3191 25.4448 85.4028 26.7702V26.9373H81.5285V26.7702C81.7078 25.003 81.7078 20.8717 81.7078 19.6418C81.7078 18.3164 81.6122 14.6269 81.5285 13.2179H81.6122ZM85.1398 14.794C85.1398 15.7731 85.1398 16.8239 85.1398 17.7075C85.1398 18.412 85.1398 19.0209 85.1398 19.4627C85.3072 19.4627 86.2757 19.4627 86.2757 19.4627C88.1292 19.4627 90.4132 19.0209 90.4132 17.003C90.4132 16.5612 90.2458 16.1194 89.9827 15.7731C89.3609 15.0647 88.1252 14.7105 86.2757 14.7105C85.8453 14.7105 85.4028 14.794 85.1398 14.794ZM101.343 13.0388H107.417C110.323 13.1224 113.839 13.8269 113.839 17.0866C113.839 19.9045 111.375 21.2179 106.269 21.2179C106.269 21.2179 105.217 21.2179 105.038 21.2179C105.038 23.0687 105.121 25.4448 105.217 26.7702V26.9373H101.343V26.7702C101.51 25.003 101.51 20.8717 101.51 19.6418C101.51 18.3164 101.426 14.6269 101.343 13.2179V13.0388ZM104.942 14.794C104.942 15.7612 104.942 16.8239 104.942 17.6955C104.942 18.4 104.942 19.0209 104.942 19.4627C105.121 19.4627 106.09 19.4627 106.09 19.4627C107.943 19.4627 110.227 19.0209 110.227 16.9911C110.227 16.5612 110.06 16.1194 109.785 15.7612C109.171 15.0607 107.939 14.7105 106.09 14.7105C105.647 14.7105 105.217 14.794 104.942 14.794ZM121.408 13.0388L127.578 26.9373H123.788V26.8537C123.62 26.3284 123.178 25.1821 122.556 23.6896C122.472 23.6896 119.83 23.6896 119.83 23.6896C119.83 23.6896 117.271 23.6896 117.103 23.6896C116.661 24.8239 116.218 25.8866 115.955 26.8537V26.9373H112.691L112.786 26.7582C113.492 25.1821 118.155 15.0567 118.945 13.0388H121.408ZM117.892 21.8388C118.155 21.8388 121.587 21.8388 121.587 21.8388C121.587 21.8388 121.767 21.8388 121.934 21.8388C121.061 19.6418 120.176 17.8746 119.913 17.1702C119.303 18.4955 118.598 20.0717 117.892 21.8388ZM129.252 13.0388H135.327C138.316 13.1224 141.748 13.9105 141.748 17.0866C141.748 18.8418 140.696 20.0717 138.579 20.6926L138.675 20.7761C139.811 22.4478 142.549 26.412 142.717 26.6746L142.813 26.8537H138.675V26.7582C137.79 25.0866 135.769 21.6597 134.358 19.6418L134.179 19.3672L134.442 19.4627C134.442 19.4627 134.801 19.4627 135.231 19.4627C136.642 19.3672 138.137 18.5791 138.137 16.9911C138.137 16.5612 137.97 16.1194 137.707 15.7612C137.085 15.0567 135.769 14.7105 134 14.7105C133.653 14.7105 133.21 14.794 132.947 14.794C132.864 16.5612 132.864 18.6627 132.864 19.6418C132.864 20.8717 132.947 25.003 133.127 26.7582V26.9373H129.252V26.7582C129.42 25.003 129.42 20.8717 129.42 19.6418C129.42 18.3164 129.336 14.6149 129.252 13.2179V13.0388ZM148.445 13.0388V13.1224C148.361 14.5314 148.265 18.2209 148.265 19.5463C148.265 20.7761 148.265 24.9075 148.445 26.6746V26.8537H144.57V26.6746C144.75 24.9075 144.75 20.7761 144.75 19.5463C144.75 18.2209 144.654 14.5314 144.57 13.1224V13.0388H148.445ZM151.877 13.0388H159.015C161.479 13.1224 164.121 14.006 164.121 16.2866C164.121 17.6955 162.89 18.9254 161.12 19.3672C163.5 20.0717 164.827 21.397 164.827 23.1523C164.827 25.9702 161.479 26.9373 158.31 26.9373H151.877V26.7582C152.056 25.003 152.056 20.8597 152.056 19.6299C152.056 18.3164 151.96 14.6149 151.877 13.206V13.0388ZM155.488 14.7105C155.404 16.5612 155.404 18.6746 155.404 19.6418C155.404 20.4299 155.404 23.2478 155.488 25.2776C155.93 25.2776 156.636 25.2776 157.078 25.2776C159.805 25.2776 161.12 24.4776 161.12 22.9851C161.12 22.5433 161.036 22.1015 160.678 21.7552C159.984 20.9672 158.74 20.5254 157.246 20.5254H156.54L157.246 18.5911H157.341C158.657 18.6746 159.625 18.3164 160.151 17.7075C160.415 17.4448 160.51 17.0866 160.51 16.6448C160.51 15.1523 159.542 14.6269 156.803 14.6269C156.373 14.6269 155.835 14.6269 155.488 14.7105ZM180.408 26.9493H176.617V26.8537C176.45 26.3284 176.008 25.1821 175.386 23.6896C175.386 23.6896 170.017 23.6896 169.933 23.6896C169.487 24.8358 169.132 25.8906 168.869 26.8537V26.9493H165.521L165.616 26.7702C166.059 25.8866 170.902 15.2478 171.691 13.1343V13.0388H174.238L180.408 26.9493ZM170.722 21.7552C170.997 21.7552 174.429 21.7552 174.429 21.7552C174.429 21.7552 174.517 21.7552 174.692 21.7552C173.807 19.5582 173.018 17.7075 172.659 17.0985C172.05 18.5075 171.344 20.0836 170.722 21.7552ZM187.463 12.3463C188.779 12.3463 190.094 12.609 190.895 12.7881L191.684 12.9672V16.0358L190.895 15.6896C190.01 15.3433 188.516 14.7224 186.925 14.7224C184.821 14.7224 184.821 15.606 184.821 15.9523C184.821 17.0149 186.495 17.6239 188.157 18.3284C190.453 19.212 192.916 20.1791 192.916 22.7343C192.916 25.4567 190.453 27.0448 186.399 27.0448C184.904 27.0448 183.314 26.6866 182.525 26.5075H182.262L181.819 26.4239V23.4388L182.441 23.7851C184.115 24.5731 185.526 24.9314 186.841 25.0149C188.157 25.1105 188.958 24.8358 189.4 24.406C189.568 24.1314 189.663 23.8687 189.663 23.5224C189.663 22.3761 187.894 21.6717 186.22 20.9672C184.115 20.0836 181.652 19.1164 181.652 16.6567C181.652 14.197 183.936 12.5254 187.463 12.3463Z" fill="white"/>
</g>
<defs>
<linearGradient id="paint0_linear_303_3999" x1="19.9696" y1="-0.979104" x2="19.9696" y2="41.1463" gradientUnits="userSpaceOnUse">
<stop stop-color="#008053"/>
<stop offset="0.6" stop-color="#7FCBAE"/>
<stop offset="1" stop-color="#00A76D"/>
</linearGradient>
<linearGradient id="paint1_linear_303_3999" x1="19.9094" y1="-9.91046" x2="19.9094" y2="37.4328" gradientUnits="userSpaceOnUse">
<stop stop-color="#00A76D"/>
<stop offset="0.3" stop-color="#7FCBAE"/>
<stop offset="0.6" stop-color="#00A76D"/>
<stop offset="0.8" stop-color="#008053"/>
<stop offset="0.9" stop-color="#009264"/>
<stop offset="1" stop-color="#00AD7D"/>
</linearGradient>
<linearGradient id="paint2_linear_303_3999" x1="27.4908" y1="34.8179" x2="27.4908" y2="4.17912" gradientUnits="userSpaceOnUse">
<stop stop-color="#00B387"/>
<stop offset="1" stop-color="#00A76D"/>
</linearGradient>
<linearGradient id="paint3_linear_303_3999" x1="8.4778" y1="34.8179" x2="8.4778" y2="4.16715" gradientUnits="userSpaceOnUse">
<stop stop-color="#00B387"/>
<stop offset="1" stop-color="#00A76D"/>
</linearGradient>
<linearGradient id="paint4_linear_303_3999" x1="14.3972" y1="34.806" x2="14.3972" y2="4.1791" gradientUnits="userSpaceOnUse">
<stop stop-color="#00B387"/>
<stop offset="1" stop-color="#00A76D"/>
</linearGradient>
<linearGradient id="paint5_linear_303_3999" x1="19.5153" y1="34.8179" x2="19.5153" y2="4.1791" gradientUnits="userSpaceOnUse">
<stop stop-color="#00B387"/>
<stop offset="1" stop-color="#00A76D"/>
</linearGradient>
<clipPath id="clip0_303_3999">
<rect width="193" height="40" fill="white"/>
</clipPath>
</defs>
</svg>
