<?xml version="1.0" encoding="UTF-8" standalone="no"?>
<!-- Created with Inkscape (http://www.inkscape.org/) -->

<svg
   xmlns:dc="http://purl.org/dc/elements/1.1/"
   xmlns:cc="http://creativecommons.org/ns#"
   xmlns:rdf="http://www.w3.org/1999/02/22-rdf-syntax-ns#"
   xmlns:svg="http://www.w3.org/2000/svg"
   xmlns="http://www.w3.org/2000/svg"
   xmlns:sodipodi="http://sodipodi.sourceforge.net/DTD/sodipodi-0.dtd"
   xmlns:inkscape="http://www.inkscape.org/namespaces/inkscape"
   width="92.131416mm"
   height="13.49832mm"
   viewBox="0 0 92.131416 13.49832"
   version="1.1"
   id="svg4502"
   inkscape:version="0.92.0 r15299"
   sodipodi:docname="aozora bank.svg">
  <defs
     id="defs4496">
    <clipPath
       id="clipPath3179"
       clipPathUnits="userSpaceOnUse">
      <path
         inkscape:connector-curvature="0"
         id="path3177"
         d="m 74.457,682.42 h 258.325 v 60.257 H 74.457 Z" />
    </clipPath>
  </defs>
  <sodipodi:namedview
     id="base"
     pagecolor="#ffffff"
     bordercolor="#666666"
     borderopacity="1.0"
     inkscape:pageopacity="0.0"
     inkscape:pageshadow="2"
     inkscape:zoom="2.6042806"
     inkscape:cx="172.21727"
     inkscape:cy="40.170823"
     inkscape:document-units="mm"
     inkscape:current-layer="layer1"
     showgrid="false"
     fit-margin-top="0"
     fit-margin-left="0"
     fit-margin-right="0"
     fit-margin-bottom="0"
     inkscape:window-width="1280"
     inkscape:window-height="744"
     inkscape:window-x="-4"
     inkscape:window-y="-4"
     inkscape:window-maximized="1" />
  <metadata
     id="metadata4499">
    <rdf:RDF>
      <cc:Work
         rdf:about="">
        <dc:format>image/svg+xml</dc:format>
        <dc:type
           rdf:resource="http://purl.org/dc/dcmitype/StillImage" />
        <dc:title></dc:title>
      </cc:Work>
    </rdf:RDF>
  </metadata>
  <g
     inkscape:label="Layer 1"
     inkscape:groupmode="layer"
     id="layer1"
     transform="translate(33.092605,-145.96354)">
    <g
       id="g4745"
       transform="translate(0.49999566,-0.50000094)">
      <path
         d="m -13.228322,149.45852 h -0.357717 l -3.348919,7.50323 0.151694,-0.0138 c 0.03704,-0.004 0.07408,-0.007 0.110067,-0.0123 0.07832,-0.009 0.159456,-0.018 0.247297,-0.018 0.07338,0 0.144639,0.007 0.220486,0.0148 0.05045,0.006 0.103012,0.0109 0.160867,0.0155 l 0.07161,0.005 0.02046,-0.0691 c 0.266347,-0.89288 0.607131,-1.74731 0.936272,-2.57387 l 0.07444,-0.18626 h 2.537178 c 0.352072,0.80645 0.713317,1.73637 1.07315,2.76436 l 0.02152,0.0635 0.06738,-0.004 c 0.0575,-0.004 0.115711,-0.007 0.171803,-0.0123 0.12065,-0.009 0.24518,-0.018 0.377472,-0.018 0.108656,0 0.214136,0.008 0.326672,0.0159 0.06738,0.006 0.137584,0.0109 0.212725,0.0145 l 0.143228,0.008 -0.05715,-0.13194 z m -0.434622,1.68592 1.023408,2.36185 h -2.029178 l 1.00577,-2.36185"
         style="fill:#231f20;fill-opacity:1;fill-rule:nonzero;stroke:none;stroke-width:0.35277778"
         id="path3183"
         inkscape:connector-curvature="0" />
      <path
         d="m -5.5671177,149.45852 c -2.3318611,0 -3.9599305,1.57198 -3.9599305,3.82305 0,1.09361 0.3573639,2.02953 1.0361083,2.70651 0.7097889,0.7105 1.7137944,1.0855 2.9026555,1.0855 1.1938,0 2.2531917,-0.40358 2.9862639,-1.13594 0.7119055,-0.71191 1.0883194,-1.68346 1.0883194,-2.81235 0,-1.03434 -0.327025,-1.88418 -0.9697861,-2.528 -0.7239,-0.72355 -1.8474972,-1.13877 -3.0836305,-1.13877 m 0.010231,7.09189 c -0.7454195,0 -1.4238111,-0.2674 -1.9088806,-0.75353 -0.5602111,-0.56021 -0.8576027,-1.38677 -0.8576027,-2.39042 0,-1.14371 0.3213805,-2.06905 0.9278055,-2.67618 0.4896556,-0.4893 1.1574639,-0.74859 1.9325166,-0.74859 0.8307917,0 1.6188972,0.36724 2.1053778,0.98107 0.5316361,0.68404 0.6395861,1.39207 0.6406444,2.25108 0.043039,0.69003 -0.2293055,1.77341 -0.930275,2.5206 -0.5072944,0.54045 -1.1497027,0.81597 -1.909586,0.81597"
         style="fill:#231f20;fill-opacity:1;fill-rule:nonzero;stroke:none;stroke-width:0.35277778"
         id="path3187"
         inkscape:connector-curvature="0" />
      <path
         d="m -0.76853221,149.61452 h -0.0980722 l 0.009172,0.0977 c 0.004233,0.0451 0.009172,0.0861 0.0151695,0.12594 0.008114,0.0617 0.015875,0.11959 0.015875,0.17992 0,0.0646 -0.008819,0.12841 -0.0179917,0.1972 -0.004939,0.0356 -0.008819,0.0716 -0.0130528,0.10724 l -0.0109361,0.1069 0.10653889,-0.008 0.55527221,-0.042 c 0.69885276,-0.0564 1.56950831,-0.12488 2.34597211,-0.12488 3.528e-4,0 0.7179028,-0.006 1.0392834,-0.009 -0.3661834,0.56303 -0.758825,1.12747 -1.1412361,1.67428 l -0.2642306,0.38029 c 7.056e-4,-10e-4 -3.043061,4.24533 -3.043061,4.24533 l -0.016581,0.0233 v 0.34889 h 6.0773027 l -0.010583,-0.0988 c -0.00317,-0.0367 -0.00811,-0.0727 -0.012347,-0.10759 -0.00988,-0.0681 -0.017992,-0.13371 -0.017992,-0.19721 0,-0.0593 0.00776,-0.11853 0.015875,-0.18026 0.00529,-0.0395 0.010936,-0.0811 0.014464,-0.12524 l 0.010583,-0.10583 -0.1061861,0.008 c -0.8741834,0.067 -1.9953111,0.14711 -2.9238222,0.16687 H 0.32507888 c 1.34725832,-2.07694 2.93334712,-4.31531 4.47886652,-6.3198 l 0.01905,-0.0236 v -0.31962 h -5.59152761"
         style="fill:#231f20;fill-opacity:1;fill-rule:nonzero;stroke:none;stroke-width:0.35277778"
         id="path3191"
         inkscape:connector-curvature="0" />
      <path
         d="m 9.3236672,149.45852 c -2.3311555,0 -3.9592249,1.57198 -3.9592249,3.82305 0,1.09361 0.3584222,2.02953 1.0357555,2.70651 0.7108472,0.7105 1.7134416,1.0855 2.9026555,1.0855 1.1934477,0 2.2542497,-0.40358 2.9869697,-1.13594 0.711552,-0.71191 1.088319,-1.68346 1.088319,-2.81235 0,-1.03434 -0.326672,-1.88418 -0.970492,-2.528 -0.723194,-0.72355 -1.848202,-1.13877 -3.0839828,-1.13877 m 0.010231,7.09189 c -0.7450667,0 -1.4231056,-0.2674 -1.908175,-0.75353 -0.5616222,-0.56021 -0.85725,-1.38677 -0.85725,-2.39042 0,-1.14371 0.3210278,-2.06905 0.9278056,-2.67618 0.4900083,-0.4893 1.1574638,-0.74859 1.9325166,-0.74859 0.8314966,0 1.6178386,0.36724 2.1053776,0.98107 0.530577,0.68404 0.639586,1.39207 0.639586,2.25108 0.0441,0.69003 -0.228247,1.77341 -0.92957,2.5206 -0.506941,0.54045 -1.149702,0.81597 -1.9102908,0.81597"
         style="fill:#231f20;fill-opacity:1;fill-rule:nonzero;stroke:none;stroke-width:0.35277778"
         id="path3195"
         inkscape:connector-curvature="0" />
      <path
         d="m 19.999601,156.54357 c -0.0039,-0.005 -0.505883,-0.5909 -0.505883,-0.5909 0.0018,0.003 -1.655234,-2.09691 -2.062692,-2.61232 1.301397,-0.27482 2.074333,-1.03117 2.074333,-2.04611 0,-0.46391 -0.136877,-0.83679 -0.406047,-1.10596 -0.385586,-0.38559 -1.042105,-0.57362 -2.005894,-0.57362 h -2.30752 v 7.34025 l 0.09666,-0.007 c 0.04692,-0.004 0.0949,-0.008 0.141817,-0.0123 0.102306,-0.009 0.207786,-0.0183 0.311856,-0.0183 0.08819,0 0.178858,0.008 0.273755,0.0162 0.05786,0.005 0.117122,0.0109 0.180622,0.0145 l 0.09596,0.006 v -3.49991 h 0.265994 l 0.810684,0.95215 c -0.0032,-0.004 1.230841,1.59667 1.230841,1.59667 0.22472,0.29986 0.438856,0.60042 0.65652,0.90734 l 0.02928,0.0402 c -0.0011,0 0.04904,-0.003 0.04904,-0.003 l 0.18027,-0.0113 c 0.135467,-0.0102 0.276225,-0.0194 0.410986,-0.0194 0.122061,0 0.241653,0.008 0.3683,0.0162 0.07479,0.005 0.151694,0.0109 0.234244,0.0145 l 0.191206,0.01 z m -4.113036,-6.36623 c 0.388761,-0.0183 1.069975,-0.0459 1.432983,0.0134 0.714022,0.11359 1.075972,0.52705 1.075972,1.22943 0,0.7179 -0.47378,1.2446 -1.267177,1.40793 -0.445911,0.0868 -0.99307,0.0702 -1.241778,0.0557 v -2.70651"
         style="fill:#231f20;fill-opacity:1;fill-rule:nonzero;stroke:none;stroke-width:0.35277778"
         id="path3199"
         inkscape:connector-curvature="0" />
      <path
         d="m 24.077998,149.51208 -0.02328,-0.0536 h -0.357364 l -0.02364,0.0526 -3.262842,7.31167 -0.06385,0.139 0.153106,-0.0134 c 0.03669,-0.004 0.07302,-0.008 0.109714,-0.0127 0.07902,-0.009 0.159455,-0.0183 0.248355,-0.0183 0.07161,0 0.142875,0.007 0.219075,0.0152 0.0508,0.006 0.103364,0.0109 0.161573,0.0159 l 0.07091,0.005 0.02046,-0.0691 c 0.265994,-0.89288 0.607483,-1.74696 0.936625,-2.57387 l 0.07444,-0.18627 h 2.537178 c 0.351719,0.80681 0.713316,1.73638 1.072091,2.76437 l 0.02293,0.0635 0.06703,-0.004 c 0.05715,-0.004 0.115358,-0.008 0.171803,-0.0127 0.12065,-0.009 0.24518,-0.0183 0.376766,-0.0183 0.108656,0 0.214136,0.008 0.326672,0.0162 0.06809,0.006 0.138289,0.0109 0.213078,0.0148 l 0.143581,0.008 -0.0568,-0.13229 z m -0.458258,1.6323 1.024114,2.36185 h -2.029178 l 1.005064,-2.36185"
         style="fill:#231f20;fill-opacity:1;fill-rule:nonzero;stroke:none;stroke-width:0.35277778"
         id="path3203"
         inkscape:connector-curvature="0" />
      <path
         d="m 34.338148,152.96175 c 0.832908,-0.33337 1.334911,-1.00259 1.334911,-1.81398 0,-0.42757 -0.117475,-0.75283 -0.360539,-0.99554 -0.366536,-0.36689 -1.021644,-0.53764 -2.060222,-0.53764 h -2.140655 v 7.30286 h 1.585383 c 0.674511,0.01 1.599494,0.0229 2.257778,-0.43463 0.640644,-0.44167 0.979663,-1.07914 0.979663,-1.8415 0,-1.18251 -0.9652,-1.55892 -1.596319,-1.67957 m -2.12725,-0.19791 v -2.58304 h 0.684742 c 0.705555,0 1.153936,0.12065 1.411464,0.37712 0.186619,0.18697 0.277636,0.45191 0.277636,0.80998 0,0.5274 -0.274461,0.95885 -0.753886,1.18463 -0.478014,0.22084 -0.969434,0.2166 -1.491192,0.21237 z m 2.572456,2.05564 c 0,0.90205 -0.6858,1.53141 -1.667934,1.53141 h -0.904522 v -3.0219 h 0.496358 c 0.835378,0 1.398411,0.15699 1.721556,0.48119 0.237772,0.23777 0.354542,0.56868 0.354542,1.0093"
         style="fill:#231f20;fill-opacity:1;fill-rule:nonzero;stroke:none;stroke-width:0.35277778"
         id="path3207"
         inkscape:connector-curvature="0" />
      <path
         d="m 40.350966,149.51208 -0.02328,-0.0536 h -0.357364 l -0.02399,0.0526 -3.263194,7.31167 -0.06279,0.139 0.152047,-0.0134 c 0.0374,-0.004 0.07444,-0.008 0.109714,-0.0127 0.07902,-0.009 0.160161,-0.0183 0.249061,-0.0183 0.07161,0 0.143228,0.007 0.219428,0.0152 0.05045,0.006 0.103011,0.0109 0.160514,0.0159 l 0.07197,0.005 0.02081,-0.0691 c 0.265641,-0.89288 0.606072,-1.74696 0.935919,-2.57387 l 0.07408,-0.18627 h 2.537531 c 0.351719,0.80681 0.712964,1.73638 1.072091,2.76437 l 0.02293,0.0635 0.06703,-0.004 c 0.05786,-0.004 0.115358,-0.008 0.172155,-0.0127 0.120298,-0.009 0.244475,-0.0183 0.37712,-0.0183 0.10795,0 0.21343,0.008 0.325966,0.0162 0.06809,0.006 0.138289,0.0109 0.213078,0.0148 l 0.143581,0.008 -0.0568,-0.13229 z m -0.458258,1.6323 1.024466,2.36185 h -2.029883 l 1.005417,-2.36185"
         style="fill:#231f20;fill-opacity:1;fill-rule:nonzero;stroke:none;stroke-width:0.35277778"
         id="path3211"
         inkscape:connector-curvature="0" />
      <path
         d="m 50.564306,149.63011 c -0.05997,0.008 -0.116769,0.0166 -0.170744,0.0166 -0.06421,0 -0.125237,-0.01 -0.189795,-0.0187 -0.02999,-0.005 -0.06103,-0.009 -0.09172,-0.0127 l -0.100542,-0.0106 v 5.37104 l -4.917722,-5.33153 -0.02611,-0.03 h -0.536928 v 7.34412 l 0.09913,-0.0109 c 0.03175,-0.003 0.06315,-0.007 0.09384,-0.0123 0.06385,-0.009 0.124531,-0.0176 0.189089,-0.0176 0.05362,0 0.110772,0.008 0.170745,0.0155 0.03634,0.006 0.07303,0.0106 0.113947,0.0152 l 0.09772,0.009 v -5.6201 l 4.467225,4.94418 c 0.22472,0.24554 0.431095,0.49354 0.540456,0.63289 l 0.02646,0.0339 h 0.447322 v -7.34307 l -0.09878,0.0102 c -0.04022,0.005 -0.07726,0.01 -0.113594,0.0148"
         style="fill:#231f20;fill-opacity:1;fill-rule:nonzero;stroke:none;stroke-width:0.35277778"
         id="path3215"
         inkscape:connector-curvature="0" />
      <path
         d="m 57.859962,149.76897 0.178858,-0.1711 -0.246944,0.0176 c -0.05468,0.004 -0.108303,0.01 -0.159456,0.0141 -0.08608,0.008 -0.166864,0.0173 -0.242005,0.0173 -0.09454,0 -0.187678,-0.01 -0.277636,-0.0187 -0.04375,-0.005 -0.08925,-0.01 -0.13335,-0.0127 l -0.04269,-0.003 -0.02893,0.0303 -2.573514,2.65712 c -0.142875,0.14181 -0.360892,0.35983 -0.544336,0.50376 -0.04198,0.0332 -0.08537,0.054 -0.117828,0.0642 v -3.25861 l -0.09454,0.006 c -0.06315,0.004 -0.12312,0.01 -0.181328,0.0141 -0.09525,0.008 -0.185208,0.0173 -0.273403,0.0173 -0.103717,0 -0.209197,-0.01 -0.312208,-0.0194 -0.04621,-0.005 -0.0949,-0.009 -0.141817,-0.012 l -0.0956,-0.007 v 7.3466 l 0.0956,-0.006 c 0.04692,-0.004 0.0956,-0.008 0.141817,-0.0127 0.103011,-0.009 0.208491,-0.018 0.312208,-0.018 0.08819,0 0.178153,0.008 0.273403,0.0159 0.05821,0.006 0.11818,0.0109 0.181328,0.0148 l 0.09454,0.006 V 153.293 c 0.01094,0.005 0.02117,0.009 0.02893,0.0152 l 2.272241,2.65748 c 0.227895,0.26458 0.448381,0.55527 0.715787,0.94438 l 0.02893,0.042 c -3.52e-4,0 0.04974,-0.003 0.04974,-0.003 l 0.183797,-0.0127 c 0.12947,-0.009 0.264231,-0.018 0.397228,-0.018 0.10795,0 0.222603,0.008 0.343253,0.0159 0.07338,0.006 0.148166,0.0109 0.227189,0.0148 l 0.09349,0.004 v -0.17745 l -0.01905,-0.0247 -0.847372,-1.04563 c -0.456495,-0.53093 -0.927453,-1.05798 -1.382889,-1.5681 l -1.105959,-1.24883 0.830439,-0.83997 c -0.0011,0.001 2.372078,-2.27859 2.372078,-2.27859"
         style="fill:#231f20;fill-opacity:1;fill-rule:nonzero;stroke:none;stroke-width:0.35277778"
         id="path3219"
         inkscape:connector-curvature="0" />
      <path
         d="m -23.776025,150.03105 c -1.636183,0.96449 -4.234744,3.82517 -4.273903,6.29426 -0.0254,1.59244 0.667809,2.47756 1.205442,3.13655 l 6.248047,-6.24911 -3.179586,-3.1817"
         style="fill:#0e88d3;fill-opacity:1;fill-rule:nonzero;stroke:none;stroke-width:0.35277778"
         id="path3223"
         inkscape:connector-curvature="0" />
      <path
         d="m -28.30788,157.83368 c -2.596444,-4.57412 0.07796,-8.79969 1.684161,-10.65036 l -0.21978,-0.21978 -6.249106,6.2491 4.701822,4.70394 0.0829,-0.0829"
         style="fill:#0e88d3;fill-opacity:1;fill-rule:nonzero;stroke:none;stroke-width:0.35277778"
         id="path3227"
         inkscape:connector-curvature="0" />
    </g>
  </g>
</svg>
