<svg width="273" height="40" viewBox="0 0 273 40" fill="none" xmlns="http://www.w3.org/2000/svg">
<path d="M60.3427 8.8751H59.2828L49.3594 31.1096L49.8089 31.0688C49.9186 31.0569 50.0284 31.048 50.135 31.0323C50.3671 31.0056 50.6075 30.979 50.8678 30.979C51.0852 30.979 51.2964 30.9997 51.5211 31.0228C51.6706 31.0406 51.8264 31.0551 51.9978 31.0688L52.21 31.0836L52.2706 30.8788C53.0598 28.2329 54.0696 25.7009 55.0449 23.2516L55.2655 22.6996H62.7836C63.8268 25.0894 64.8973 27.845 65.9635 30.8913L66.0273 31.0795L66.2269 31.0677C66.3973 31.0558 66.5698 31.0469 66.736 31.0312C67.0935 31.0046 67.4625 30.9779 67.8545 30.9779C68.1765 30.9779 68.489 31.0016 68.8225 31.025C69.0222 31.0428 69.2302 31.0573 69.4528 31.0679L69.8772 31.0916L69.7079 30.7007L60.3427 8.8751ZM59.0549 13.871L62.0874 20.87H56.0746L59.0549 13.871Z" fill="white"/>
<path d="M83.0444 8.8751C76.1348 8.8751 71.3105 13.5334 71.3105 20.204C71.3105 23.4448 72.3695 26.2182 74.3807 28.2243C76.4839 30.3298 79.4589 31.441 82.9817 31.441C86.5191 31.441 89.6583 30.2451 91.8305 28.0749C93.94 25.9652 95.0554 23.0862 95.0554 19.7409C95.0554 16.6758 94.0863 14.1575 92.1817 12.2496C90.0367 10.1055 86.7073 8.8751 83.0444 8.8751ZM83.0748 29.8907C80.866 29.8907 78.8558 29.0983 77.4184 27.6577C75.7585 25.9976 74.8772 23.5483 74.8772 20.5741C74.8772 17.185 75.8295 14.4429 77.6265 12.6437C79.0774 11.1938 81.0562 10.4254 83.3528 10.4254C85.8146 10.4254 88.1499 11.5136 89.5914 13.3326C91.1667 15.3597 91.4866 17.4578 91.4897 20.0033C91.6173 22.0481 90.8103 25.2585 88.7332 27.4727C87.23 29.0742 85.3264 29.8907 83.0748 29.8907Z" fill="white"/>
<path d="M97.2631 9.33737H96.9725L96.9996 9.6269C97.0122 9.76054 97.0268 9.88206 97.0446 10.0001C97.0686 10.183 97.0916 10.3545 97.0916 10.5333C97.0916 10.7247 97.0655 10.9138 97.0383 11.1176C97.0237 11.2231 97.0122 11.3298 96.9996 11.4354L96.9672 11.7522L97.2829 11.7285L98.9283 11.604C100.999 11.4369 103.579 11.234 105.88 11.234C105.881 11.234 108.007 11.2162 108.959 11.2073C107.874 12.8758 106.711 14.5484 105.578 16.1687L104.795 17.2957C104.797 17.2927 95.7776 29.876 95.7776 29.876L95.7285 29.945V30.9789H113.737L113.705 30.6861C113.696 30.5774 113.681 30.4707 113.669 30.3673C113.639 30.1655 113.615 29.9711 113.615 29.7829C113.615 29.6072 113.638 29.4317 113.662 29.2488C113.678 29.1317 113.695 29.0084 113.705 28.8776L113.737 28.564L113.422 28.5877C110.832 28.7863 107.509 29.0237 104.758 29.0822H100.504C104.496 22.9276 109.196 16.2945 113.775 10.3545L113.832 10.2846V9.33746L97.2631 9.33737Z" fill="white"/>
<path d="M127.169 8.8751C120.262 8.8751 115.438 13.5334 115.438 20.204C115.438 23.4448 116.5 26.2182 118.507 28.2243C120.613 30.3298 123.584 31.441 127.108 31.441C130.644 31.441 133.787 30.2451 135.959 28.0749C138.067 25.9652 139.183 23.0862 139.183 19.7409C139.183 16.6758 138.215 14.1575 136.308 12.2496C134.165 10.1055 130.831 8.8751 127.169 8.8751ZM127.2 29.8907C124.992 29.8907 122.983 29.0983 121.545 27.6577C119.881 25.9976 119.005 23.5483 119.005 20.5741C119.005 17.185 119.956 14.4429 121.754 12.6437C123.206 11.1938 125.184 10.4254 127.481 10.4254C129.945 10.4254 132.275 11.5136 133.719 13.3326C135.292 15.3597 135.615 17.4578 135.615 20.0033C135.745 22.0481 134.938 25.2585 132.86 27.4727C131.358 29.0742 129.453 29.8907 127.2 29.8907Z" fill="white"/>
<path d="M158.803 29.8704C158.791 29.8556 157.304 28.1194 157.304 28.1194C157.309 28.1283 152.399 21.9055 151.191 20.3782C155.048 19.5638 157.338 17.3225 157.338 14.3149C157.338 12.9402 156.932 11.8352 156.135 11.0376C154.992 9.89496 153.047 9.33775 150.191 9.33775H143.354V31.0894L143.64 31.0686C143.779 31.0568 143.921 31.0449 144.06 31.0322C144.363 31.0055 144.676 30.978 144.984 30.978C145.246 30.978 145.514 31.0017 145.795 31.026C145.967 31.0408 146.142 31.0583 146.331 31.0689L146.615 31.0867V20.7153H147.403L149.805 23.5368C149.796 23.525 153.453 28.2683 153.453 28.2683C154.118 29.1569 154.753 30.0476 155.398 30.9571L155.485 31.0762C155.481 31.0762 155.63 31.0673 155.63 31.0673L156.164 31.0338C156.566 31.0036 156.983 30.9763 157.382 30.9763C157.744 30.9763 158.098 31 158.473 31.0243C158.695 31.0391 158.923 31.0566 159.167 31.0673L159.734 31.0969L158.803 29.8704ZM146.615 11.0052C147.767 10.9509 149.785 10.8691 150.861 11.0449C152.977 11.3815 154.049 12.6067 154.049 14.6881C154.049 16.8155 152.646 18.3762 150.295 18.8602C148.973 19.1175 147.352 19.0683 146.615 19.0253V11.0052Z" fill="white"/>
<path d="M170.888 9.03385L170.819 8.875H169.76L169.69 9.03086L160.021 30.6978L159.832 31.1097L160.286 31.07C160.394 31.0581 160.502 31.0463 160.611 31.0323C160.845 31.0057 161.083 30.9781 161.347 30.9781C161.559 30.9781 161.77 30.9989 161.996 31.0232C162.146 31.0409 162.302 31.0555 162.475 31.0703L162.685 31.0851L162.745 30.8803C163.534 28.2344 164.545 25.7035 165.521 23.2531L165.741 22.7011H173.259C174.302 25.0919 175.373 27.8466 176.436 30.8928L176.504 31.081L176.703 31.0691C176.872 31.0573 177.045 31.0455 177.212 31.0315C177.569 31.0049 177.938 30.9773 178.328 30.9773C178.65 30.9773 178.963 31.001 179.296 31.0253C179.498 31.0431 179.706 31.0576 179.928 31.0691L180.353 31.0929L180.185 30.7009L170.888 9.03385ZM169.53 13.8709L172.564 20.8698H166.551L169.53 13.8709Z" fill="white"/>
<path d="M201.291 19.2563C203.759 18.2685 205.247 16.2853 205.247 13.8809C205.247 12.6139 204.899 11.6501 204.178 10.9308C203.092 9.84361 201.151 9.33762 198.074 9.33762H191.73V30.9784H196.428C198.427 31.008 201.168 31.0463 203.118 29.6904C205.017 28.3816 206.021 26.4926 206.021 24.2335C206.021 20.7293 203.161 19.6139 201.291 19.2563ZM194.988 18.6699V11.0155H197.017C199.107 11.0155 200.436 11.373 201.199 12.133C201.752 12.6871 202.022 13.4722 202.022 14.5333C202.022 16.0961 201.209 17.3747 199.788 18.0437C198.371 18.6981 196.915 18.6855 195.369 18.673L194.988 18.6699ZM202.61 24.7614C202.61 27.4345 200.578 29.2995 197.668 29.2995H194.988V20.3446H196.459C198.934 20.3446 200.602 20.8098 201.56 21.7705C202.264 22.4751 202.61 23.4557 202.61 24.7614Z" fill="white"/>
<path d="M219.107 9.03385L219.038 8.875H217.979L217.908 9.03086L208.239 30.6978L208.053 31.1097L208.503 31.07C208.614 31.0581 208.724 31.0463 208.828 31.0323C209.063 31.0057 209.303 30.9781 209.566 30.9781C209.779 30.9781 209.991 30.9989 210.217 31.0232C210.366 31.0409 210.522 31.0555 210.692 31.0703L210.905 31.0851L210.967 30.8803C211.754 28.2344 212.763 25.7035 213.74 23.2531L213.96 22.7011H221.479C222.521 25.0919 223.592 27.8466 224.656 30.8928L224.724 31.081L224.922 31.0691C225.094 31.0573 225.264 31.0455 225.432 31.0315C225.789 31.0049 226.157 30.9773 226.55 30.9773C226.87 30.9773 227.182 31.001 227.516 31.0253C227.718 31.0431 227.926 31.0576 228.147 31.0691L228.573 31.0929L228.404 30.7009L219.107 9.03385ZM217.749 13.8709L220.785 20.8698H214.77L217.749 13.8709Z" fill="white"/>
<path d="M249.371 9.38357C249.193 9.40727 249.025 9.43276 248.865 9.43276C248.674 9.43276 248.494 9.40311 248.302 9.37733C248.213 9.36251 248.121 9.35067 248.03 9.33971L247.733 9.30828V25.2245L233.161 9.42539L233.083 9.3365H231.492V31.0996L231.786 31.0672C231.88 31.0583 231.973 31.0465 232.064 31.0308C232.253 31.0041 232.433 30.9786 232.624 30.9786C232.783 30.9786 232.953 31.0024 233.13 31.0246C233.238 31.0424 233.347 31.056 233.468 31.0696L233.757 31.0963V14.4421L246.995 29.0933C247.66 29.8209 248.272 30.5558 248.596 30.9688L248.674 31.0692H250V9.30928L249.707 9.33948C249.588 9.3543 249.478 9.36934 249.371 9.38357Z" fill="white"/>
<path d="M270.99 9.79505L271.52 9.28803L270.788 9.34017C270.626 9.35202 270.467 9.3698 270.315 9.38195C270.06 9.40565 269.821 9.43322 269.598 9.43322C269.318 9.43322 269.042 9.40361 268.776 9.37783C268.646 9.36302 268.511 9.34817 268.38 9.34017L268.254 9.33131L268.168 9.42111L260.543 17.295C260.119 17.7153 259.473 18.3613 258.93 18.7878C258.805 18.8862 258.677 18.9478 258.58 18.978V9.32172L258.3 9.33949C258.113 9.35134 257.935 9.36912 257.763 9.38127C257.481 9.40498 257.214 9.43255 256.953 9.43255C256.646 9.43255 256.333 9.40293 256.028 9.37507C255.891 9.36026 255.747 9.34838 255.607 9.33949L255.324 9.31878V31.0892L255.607 31.0714C255.747 31.0595 255.891 31.0477 256.028 31.0338C256.333 31.0071 256.646 30.9804 256.953 30.9804C257.214 30.9804 257.481 31.0041 257.763 31.0275C257.935 31.0453 258.113 31.0598 258.3 31.0714L258.58 31.0892V20.2379C258.613 20.2527 258.643 20.2646 258.666 20.283L265.399 28.158C266.074 28.942 266.728 29.8034 267.52 30.9565L267.606 31.0809C267.605 31.0809 267.753 31.0721 267.753 31.0721L268.298 31.0344C268.682 31.0077 269.081 30.9811 269.475 30.9811C269.795 30.9811 270.135 31.0048 270.492 31.0282C270.709 31.046 270.931 31.0605 271.165 31.0721L271.442 31.0839V30.558L271.386 30.4849L268.875 27.3863C267.522 25.813 266.127 24.2512 264.777 22.7395L261.5 19.0388L263.961 16.5497C263.958 16.5527 270.99 9.79505 270.99 9.79505Z" fill="white"/>
<path d="M29.0881 10.5717C24.2399 13.4298 16.5399 21.907 16.4239 29.2237C16.3486 33.9426 18.4027 36.5655 19.9958 38.5183L38.5098 20.0001L29.0881 10.5717Z" fill="white"/>
<path d="M15.6603 33.6935C7.96665 20.1388 15.8913 7.61708 20.6508 2.13293L19.9995 1.48167L1.48242 19.9998L15.4147 33.9391L15.6603 33.6935Z" fill="white"/>
</svg>
