<svg width="247" height="40" viewBox="0 0 247 40" fill="none" xmlns="http://www.w3.org/2000/svg">
<g clip-path="url(#clip0_385_886)">
<path fill-rule="evenodd" clip-rule="evenodd" d="M50.5284 8.42061C50.1731 10.8801 48.2185 11.9958 44.7917 11.9958H40.1972L41.7202 4.64256H46.4162C49.8938 4.64256 50.8077 6.39213 50.5284 8.42061ZM48.3708 0.382751H35.9581L32.252 18.208C30.9828 24.3695 27.0483 25.9923 22.3015 25.9923C17.9862 25.9923 13.8994 23.7356 14.9655 18.208C15.194 17.0163 15.2701 16.5599 15.4732 15.5456H21.0577C20.9561 16.0781 20.7531 16.9656 20.4738 18.208C20.0677 20.1097 20.9054 21.3015 23.0122 21.3015C25.1445 21.3015 26.2106 20.1604 26.5914 18.208L30.3228 0.382751H17.2755C10.2949 0.382751 8.18802 2.13232 6.91882 8.24311L2.73047 28.3251H27.9621C34.1558 28.3251 37.5319 24.7499 38.4457 20.4647C39.2834 16.3317 39.2834 16.3317 39.2834 16.3317H45.4517C51.6707 16.3317 55.4275 13.72 56.2906 8.42061C57.1283 3.47619 53.5491 0.382751 48.3708 0.382751Z" fill="white"/>
<path fill-rule="evenodd" clip-rule="evenodd" d="M3.12233 35.3869H3.83308C4.59459 35.3869 5.07689 35.0826 5.07689 34.6009C5.05151 34.0177 4.59459 33.9416 3.90923 33.9416H3.42693L3.12233 35.3869ZM2.51311 38.3029H3.02079C3.96 38.3029 4.59459 38.0239 4.59459 37.3393C4.59459 36.7308 4.13768 36.6294 3.30001 36.6294H2.8431L2.51311 38.3029ZM1.85313 32.6231H4.94997C5.6861 32.6231 6.92992 32.902 6.92992 34.2205C6.92992 35.1587 6.19378 35.8687 5.10227 35.9955V36.0208C5.91456 36.1222 6.44762 36.604 6.44762 37.3647C6.44762 38.8607 5.17843 39.5453 3.57924 39.5707L0.380859 39.6214L1.85313 32.6231Z" fill="white"/>
<path fill-rule="evenodd" clip-rule="evenodd" d="M18.694 34.0684H18.6686L17.1963 36.8068H18.9986L18.694 34.0684ZM17.7548 32.6231H20.1155L21.2577 39.6214H19.3793L19.1763 38.1254H16.4602L15.6225 39.6214H13.5918L17.7548 32.6231Z" fill="white"/>
<path fill-rule="evenodd" clip-rule="evenodd" d="M30.6422 32.6231H32.9775L34.4244 37.4661L35.4144 32.6231H37.1912L35.6936 39.6214H33.3837L31.9114 34.753H31.886L30.9214 39.6214H29.1445L30.6422 32.6231Z" fill="white"/>
<path fill-rule="evenodd" clip-rule="evenodd" d="M45.5895 32.6231H47.4679L46.8587 35.463H46.884L49.4224 32.6231H51.8339L48.5086 36.0208L50.5901 39.6214H48.4325L46.681 36.4265L45.9956 39.6214H44.1172L45.5895 32.6231Z" fill="white"/>
<path fill-rule="evenodd" clip-rule="evenodd" d="M90.1844 26.6303C90.6921 23.5622 90.6413 19.3024 90.3875 13.3944C93.8143 13.5466 95.7181 15.6004 95.7181 19.7588C95.7181 23.9172 94.0428 26.3513 90.1844 26.6303ZM99.5257 19.7588C99.5257 13.5466 95.972 10.5799 90.2606 10.4531C90.2098 9.03318 90.1336 7.51182 90.0575 5.88904H86.123C86.1991 7.68931 86.2753 9.33746 86.3261 10.8842C82.29 11.8984 79.0916 14.5861 77.3148 17.7557C77.1371 18.1106 76.9594 18.4403 76.8071 18.8206L76.7055 18.7699C76.7817 18.2374 76.8071 17.6035 76.8325 16.9189C76.8578 15.3215 77.0101 11.7463 77.2132 9.05854H73.4564C73.1518 14.6115 73.101 23.0551 73.3295 27.7966H77.0609C77.0609 21.6351 80.7416 15.6765 86.453 13.9015C86.656 19.987 86.7068 23.8918 86.2499 26.4528C83.813 26.0978 82.0869 25.2357 80.2847 23.8157V26.6049C81.6046 27.6952 83.3561 28.5066 85.4376 28.963C84.3207 30.9661 82.2139 31.4479 78.5332 31.9297V34.4653C84.803 34.0849 87.976 33.02 89.4483 29.3687C96.2766 29.3433 99.5257 26.2499 99.5257 19.7588Z" fill="white"/>
<path fill-rule="evenodd" clip-rule="evenodd" d="M103.43 17.1757C108.202 15.8571 112.771 14.7161 118.127 14.7161C123.711 14.7161 127.748 16.8714 127.748 22.7033C127.748 30.1833 122.417 34.1135 107.694 34.1135V31.1468C119.244 31.0961 123.61 28.0534 123.61 22.7033C123.61 19.0774 121.528 17.7335 118.051 17.7335C113.38 17.7335 110.816 18.4688 103.43 20.6748V17.1757Z" fill="white"/>
<path fill-rule="evenodd" clip-rule="evenodd" d="M105.943 7.51151V10.4274C111.731 10.25 118.229 10.4021 124.321 11.2642V7.58757C118.381 7.08045 111.731 7.13117 105.943 7.51151Z" fill="white"/>
<path fill-rule="evenodd" clip-rule="evenodd" d="M147.64 18.1923C143.782 18.1923 141.04 19.4347 138.781 21.3111L141.04 13.8057C146.168 13.8057 151.498 13.7043 155.864 13.4507V10.6362C151.676 10.839 146.701 10.9912 141.878 11.0165L143.553 5.46356H139.492L137.816 11.0165C135.049 10.9912 132.384 10.9151 130.049 10.8137V13.5521C132.156 13.6536 134.516 13.7296 137.004 13.7803L133.4 25.7484H137.436C140.126 23.086 143.096 21.1082 147.386 21.1082C150.102 21.1082 152.031 22.8831 152.031 25.3934C152.031 30.3378 148.173 31.6563 134.897 30.6167V33.5327C148.579 34.8005 155.94 33.6594 155.94 25.3934C155.94 21.4886 152.971 18.1923 147.64 18.1923Z" fill="white"/>
<path fill-rule="evenodd" clip-rule="evenodd" d="M169.093 28.2506C169.093 30.2284 168.179 31.1666 166.225 31.1666C164.169 31.1666 162.925 30.2791 162.925 28.4789C162.925 26.6786 164.397 25.639 165.996 25.639C167.012 25.639 168.027 25.7658 169.093 26.0193V28.2506ZM180.922 28.0732C177.927 26.5518 175.211 25.284 172.672 24.3965V18.6154H180.694V15.9023H172.672V10.755H169.093V23.3823C168.027 23.1794 166.961 23.078 165.92 23.078C161.427 23.078 159.422 25.6897 159.422 28.4281C159.422 32.0541 162.392 33.7022 166.199 33.7022C170.768 33.7022 172.672 32.2823 172.672 29.0113V27.2618C175.033 28.2253 177.698 29.6452 180.922 31.4202V28.0732Z" fill="white"/>
<path fill-rule="evenodd" clip-rule="evenodd" d="M229.35 9.27189H245.443V6.48273H229.35V9.27189Z" fill="white"/>
<path fill-rule="evenodd" clip-rule="evenodd" d="M246.618 15.5013H228.012V18.2905H238.14V30.0303C238.14 31.0699 237.581 31.7038 236.465 31.7038H233.139V34.4676H238.876C240.958 34.4676 242.151 33.3266 242.151 31.146V18.2905H246.618V15.5013Z" fill="white"/>
<path fill-rule="evenodd" clip-rule="evenodd" d="M223.717 13.6092C222.981 17.3365 220.316 20.6328 217.498 21.9006V24.7405C218.945 24.3601 220.29 23.7516 221.534 22.9656V34.5533H225.266V19.4157C226.509 17.7169 227.372 15.7391 227.728 13.6092H223.717Z" fill="white"/>
<path fill-rule="evenodd" clip-rule="evenodd" d="M227.292 5.75793H223.053C222.266 8.67388 220.058 10.9306 217.799 11.8941V14.6325C222.52 13.7704 226.099 10.4234 227.292 5.75793Z" fill="white"/>
<path fill-rule="evenodd" clip-rule="evenodd" d="M202.743 14.9023H209.851V18.579H202.743V14.9023ZM202.743 8.91832H209.851V12.5442H202.743V8.91832ZM192.742 8.66476C193.631 10.5157 194.951 12.1639 196.55 13.2795H188.376C190.102 12.0878 191.651 10.5411 192.742 8.66476ZM209.521 27.7578C211.552 26.6675 213.049 24.9433 213.76 22.2302H210.46C209.978 23.9544 209.216 25.0447 208.226 25.8815C207.465 24.4869 206.881 22.8388 206.551 20.9624H213.176V6.53485H199.418V31.0541C198.91 31.0795 198.403 31.1302 197.895 31.1809V29.3806C196.727 29.6088 195.306 29.837 193.758 30.0399V20.6835H198.504V18.3H193.758V15.663H196.854V13.4824C197.387 13.812 197.92 14.1163 198.504 14.3191V10.7947C196.524 9.65364 194.773 7.72658 194.037 5.77417H190.407C189.62 8.2337 187.158 11.3018 185.203 12.3667V14.9277C186.015 14.6234 186.828 14.2431 187.589 13.7613V15.663H190.407V18.3H185.508V20.6835H190.407V30.4202C188.655 30.6231 186.878 30.7752 185.203 30.902V34.1222C190.001 33.5644 194.697 32.6262 197.895 31.7387V34.4011C201.703 33.7926 204.571 33.184 207.008 32.3473V30.0145C205.764 30.2427 204.317 30.4709 202.743 30.6738V20.9624H204.038C204.876 28.265 208.455 32.9558 214.014 34.5532V31.2316C212.288 30.4202 210.765 29.2792 209.521 27.7578Z" fill="white"/>
<path fill-rule="evenodd" clip-rule="evenodd" d="M196.943 27.8235C197.425 26.2767 197.755 24.6286 198.009 22.5748H195.217C195.191 24.4258 195.141 26.0232 195.039 27.8235H196.943Z" fill="white"/>
<path fill-rule="evenodd" clip-rule="evenodd" d="M188.214 22.5613H186.057C186.234 24.5645 186.31 26.4155 186.336 28.52H189.306C189.027 26.3901 188.62 24.2602 188.214 22.5613Z" fill="white"/>
</g>
<defs>
<clipPath id="clip0_385_886">
<rect width="247" height="40" fill="white"/>
</clipPath>
</defs>
</svg>
