<svg width="135" height="40" viewBox="0 0 135 40" fill="none" xmlns="http://www.w3.org/2000/svg">
<g clip-path="url(#clip0_385_923)">
<path d="M20.1251 7.96571e-06C19.0046 2.84158 17.8112 5.69123 16.58 8.56241L14.9141 12.3781L13.2293 8.56241C11.9576 5.69123 10.7399 2.84158 9.59776 7.96571e-06H0.269255V0.74538C0.775062 0.750353 1.25821 0.955209 1.61258 1.31494C1.96695 1.67468 2.16357 2.15988 2.15925 2.66398C2.00805 4.62564 1.84335 6.58999 1.64355 8.56241L1.02526 14.5523C0.728255 17.4208 0.393453 20.2785 0.00195312 23.1147H2.97195C3.15195 20.2767 3.38685 17.4226 3.67665 14.5523L4.59466 5.51902C5.91766 8.26551 7.19026 11.0246 8.41246 13.7962L8.75265 14.5496C10.0271 17.4199 11.2385 20.274 12.3869 23.112H13.2887C14.4146 20.2731 15.6053 17.4154 16.8446 14.5496L17.3846 13.3199C18.587 10.5501 19.8344 7.79191 21.1268 5.04542L22.0988 14.5496C22.3877 17.4181 22.6388 20.2758 22.8035 23.112H29.6561C29.2619 20.274 28.9208 17.4199 28.6328 14.5496L28.0199 8.55971C27.7337 5.68854 27.4799 2.83889 27.3179 -0.00268555L20.1251 7.96571e-06Z" fill="white"/>
<path d="M50.8691 20.8194C51.617 19.4013 52.4243 17.9697 53.2775 16.5355L61.6016 2.72587V2.15271H43.2848V6.40162H44.0084C44.005 5.91658 44.1865 5.44835 44.5164 5.09167C44.8462 4.73498 45.2996 4.51647 45.785 4.48032C46.3574 4.46149 46.9271 4.45073 47.4914 4.45073H53.4044C52.67 5.83922 51.887 7.23848 51.0419 8.64043L42.6719 22.5469V23.1282H62.4305V20.6606C61.0427 20.7709 59.6333 20.8301 58.2293 20.8301L50.8691 20.8194Z" fill="white"/>
<path d="M84.7365 23.1174H84.912C84.804 21.6993 84.7365 20.2785 84.7365 18.8496V13.6374H92.9175V18.8362C92.9175 20.2677 92.8689 21.6993 92.7609 23.1174H99.0627C98.9466 21.6993 98.8953 20.2677 98.8953 18.8362V6.42584C98.8953 4.98621 98.9466 3.56274 99.0627 2.13657H91.0275V2.79852H91.2084C91.6396 2.80264 92.0532 2.97011 92.3651 3.26695C92.6769 3.5638 92.8638 3.96777 92.8878 4.39691C92.9076 5.06963 92.9175 5.74504 92.9175 6.42314V11.334H84.7365V6.42584C84.7365 4.98621 84.7878 3.56274 84.9039 2.13657H76.8768V2.79852H77.0523C77.482 2.80183 77.8944 2.9676 78.2061 3.26231C78.5179 3.55702 78.7057 3.95869 78.7317 4.38614C78.756 5.06424 78.7668 5.73159 78.7668 6.42314V20.9539C77.9258 21.0583 77.079 21.1095 76.2315 21.1073C75.319 21.1079 74.4079 21.035 73.5072 20.8893C70.9854 20.4104 70.5831 18.0505 70.5831 16.5839V6.30474C70.5831 4.91087 70.6452 3.52237 70.7505 2.13926H62.7207V2.80122H62.8908C63.3201 2.80324 63.7326 2.96829 64.0441 3.26276C64.3556 3.55722 64.5428 3.95895 64.5675 4.38614C64.5918 5.06963 64.6026 5.73159 64.6026 6.42584V15.5748C64.6026 17.6361 65.2587 22.189 70.8666 23.0151C72.6433 23.2623 74.4349 23.3881 76.2288 23.3919C79.0854 23.3919 81.9231 23.2896 84.7365 23.1039" fill="white"/>
<path d="M126.029 12.631C126.029 19.778 119.819 23.3946 113.723 23.3946C107.626 23.3946 101.43 19.7673 101.43 12.631C101.43 5.4948 107.615 1.85403 113.723 1.85403C119.83 1.85403 126.029 5.48134 126.029 12.631ZM120.033 12.631C120.033 8.73731 118.394 4.15204 113.725 4.15204C109.057 4.15204 107.424 8.72655 107.424 12.631C107.424 16.5355 109.063 21.1046 113.725 21.1046C118.388 21.1046 120.027 16.5301 120.033 12.631Z" fill="white"/>
<path d="M39.8242 6.42584C39.8242 4.98621 39.8755 3.56274 39.9997 2.13657H31.7539V2.88194H31.924C32.1756 2.88368 32.4243 2.93512 32.6558 3.03326C32.8874 3.1314 33.0971 3.27431 33.2728 3.45373C33.4486 3.63314 33.5869 3.84549 33.6798 4.07851C33.7727 4.31154 33.8183 4.5606 33.814 4.81131C33.8302 5.34948 33.8356 5.88766 33.8356 6.42584V18.8362C33.8356 20.2677 33.7789 21.6993 33.6844 23.1174H39.9862C39.8647 21.6993 39.8107 20.2677 39.8107 18.8362L39.8242 6.42584Z" fill="white"/>
<path d="M11.4626 34.6371C28.3907 30.861 45.6856 28.9605 63.0326 28.9701C87.3853 28.9473 111.605 32.5488 134.89 39.6556C134.932 39.6676 134.967 39.6948 134.989 39.7318C135.011 39.7687 135.018 39.8127 135.009 39.8547C134.999 39.8992 134.972 39.9382 134.934 39.9637C134.896 39.9892 134.849 39.9993 134.804 39.9919C94.087 33.3281 52.6948 31.7544 11.5868 35.3071C11.5004 35.3149 11.4144 35.2899 11.3459 35.237C11.2773 35.1841 11.2314 35.1073 11.2174 35.0221C11.2034 34.9368 11.2223 34.8495 11.2702 34.7775C11.3182 34.7056 11.3918 34.6545 11.4761 34.6344" fill="white"/>
</g>
<defs>
<clipPath id="clip0_385_923">
<rect width="135" height="40" fill="white"/>
</clipPath>
</defs>
</svg>
