<svg id="Layer_1" data-name="Layer 1" xmlns="http://www.w3.org/2000/svg" viewBox="0 0 500 148.65"><title>Mizuho Financial Group logo - Brandlogos.net</title><g id="g10"><g id="g12"><g id="g14"><g id="g20"><path id="path22" d="M217.54,316c-4.15,10.56-8.57,21.15-13.13,31.82L198.24,362,192,347.82c-4.71-10.67-9.22-21.26-13.45-31.82H144v2.77a7.07,7.07,0,0,1,7,7.13c-.56,7.29-1.17,14.59-1.91,21.92l-2.29,22.26c-1.1,10.66-2.34,21.28-3.79,31.82h11q1-15.82,2.61-31.82l3.4-33.57q7.35,15.31,14.14,30.76l1.26,2.8q7.08,16,13.46,31.82h3.34c4.17-10.55,8.58-21.17,13.17-31.82l2-4.57q6.68-15.44,13.86-30.75l3.6,35.32c1.07,10.66,2,21.28,2.61,31.82h25.38q-2.19-15.82-3.79-31.82l-2.27-22.26c-1.06-10.67-2-21.26-2.6-31.82Z" transform="translate(-143 -316)" style="fill:#183181"/></g><g id="g24"><path id="path26" d="M331.41,393.37c2.77-5.27,5.76-10.59,8.92-15.92l30.83-51.32V324H303.32v15.79H306a7.11,7.11,0,0,1,6.58-7.14c2.12-.07,4.23-.11,6.32-.11h21.9c-2.72,5.16-5.62,10.36-8.75,15.57l-31,51.68v2.16h73.18v-9.17c-5.14.41-10.36.63-15.56.63Z" transform="translate(-143 -316)" style="fill:#183181"/></g><g id="g28"><path id="path30" d="M456.84,401.91l.65,0c-.4-5.27-.65-10.55-.65-15.86V366.68h30.3V386c0,5.32-.18,10.64-.58,15.91h23.34c-.43-5.27-.62-10.59-.62-15.91V339.88c0-5.35.19-10.64.62-15.94H480.14v2.46h.67a6.29,6.29,0,0,1,6.22,5.94q.11,3.75.11,7.53v18.25h-30.3V339.88c0-5.35.19-10.64.62-15.94H427.73v2.46h.65a6.28,6.28,0,0,1,6.22,5.9c.09,2.52.13,5,.13,7.57v54a74.44,74.44,0,0,1-9.39.57,62.74,62.74,0,0,1-10.09-.81c-9.34-1.78-10.83-10.55-10.83-16V339.43c0-5.18.23-10.34.62-15.48H375.3v2.46h.63a6.25,6.25,0,0,1,6.21,5.89c.09,2.54.13,5,.13,7.58v34c0,7.66,2.43,24.58,23.2,27.65a145.9,145.9,0,0,0,19.86,1.4c10.58,0,21.09-.38,31.51-1.07" transform="translate(-143 -316)" style="fill:#183181"/></g><g id="g32"><path id="path34" d="M609.78,362.94h0c0,26.56-23,40-45.58,40s-45.53-13.48-45.53-40,22.91-40.05,45.53-40.05,45.58,13.48,45.58,40.05m-22.21,0c0-14.47-6.07-31.51-23.36-31.51s-23.34,17-23.34,31.51,6.07,31.49,23.34,31.49,23.34-17,23.36-31.49" transform="translate(-143 -316)" style="fill:#183181"/></g><g id="g36"><path id="path38" d="M290.5,339.88c0-5.35.19-10.64.65-15.94H260.61v2.77h.63a7.05,7.05,0,0,1,7,7.17c.06,2,.08,4,.08,6V386c0,5.32-.21,10.64-.56,15.91h23.34c-.45-5.27-.65-10.59-.65-15.91Z" transform="translate(-143 -316)" style="fill:#183181"/></g><g id="g40"><path id="path42" d="M185.46,444.72a872.25,872.25,0,0,1,191-21.06,906,906,0,0,1,266.14,39.71.63.63,0,0,1,.44.74.67.67,0,0,1-.76.51,1836.91,1836.91,0,0,0-456.36-17.41,1.27,1.27,0,0,1-.41-2.5" transform="translate(-143 -316)" style="fill:#ed1a3a"/></g></g></g></g></svg>