<svg width="167" height="40" viewBox="0 0 167 40" fill="none" xmlns="http://www.w3.org/2000/svg">
<path d="M15.2714 38.9401C6.66781 36.9157 0.746017 29.7913 0.0609514 21.0986C-1.08001 6.60348 14.0109 -4.39652 27.4148 1.73275C27.4896 1.7669 27.5643 1.7669 27.6391 1.73275C34.4288 -1.35749 42.1084 -0.159932 47.8473 4.49861C52.3722 8.17015 54.7606 13.0132 55.0125 19.0279C55.4464 29.384 47.9229 37.9181 37.7249 39.2815C34.1265 39.7645 31.3326 39.201 27.9414 37.9401C27.7293 37.8596 27.3368 37.8206 27.1296 37.9084C23.3182 39.5604 19.3655 39.9043 15.2714 38.9401ZM27.721 37.6143C32.4071 37.5571 36.8782 35.6182 40.1509 32.2242C43.4235 28.8303 45.2295 24.2593 45.1716 19.5168C45.1429 17.1685 44.6575 14.8489 43.743 12.6902C42.8286 10.5316 41.503 8.57624 39.842 6.93584C38.181 5.29543 36.2171 4.0021 34.0624 3.12967C31.9078 2.25724 29.6045 1.8228 27.2842 1.85117C22.5981 1.90845 18.1269 3.84733 14.8543 7.24128C11.5817 10.6352 9.77568 15.2062 9.8336 19.9487C9.86228 22.297 10.3477 24.6166 11.2621 26.7753C12.1766 28.9339 13.5022 30.8893 15.1631 32.5297C16.8241 34.1701 18.788 35.4634 20.9427 36.3358C23.0974 37.2083 25.4007 37.6427 27.721 37.6143Z" fill="white"/>
<path d="M146.135 10.4132C151.14 5.10104 160.339 4.9669 165.729 9.79373C165.784 9.84414 165.788 9.89861 165.741 9.95714L162.428 14.0498C162.416 14.0646 162.401 14.0768 162.385 14.0859C162.368 14.095 162.35 14.1007 162.331 14.1028C162.312 14.1048 162.293 14.1031 162.275 14.0978C162.257 14.0925 162.24 14.0836 162.225 14.0718C160.295 12.5254 158.588 11.5596 156.053 11.5303C150.913 11.4718 147.827 15.9864 148.346 20.8645C149.061 27.5815 156.06 29.9157 161.348 26.4767C161.414 26.4328 161.448 26.371 161.448 26.2913V23.1718C161.448 23.0498 161.387 22.9889 161.265 22.9889H155.597C155.475 22.9889 155.414 22.9279 155.414 22.8059V17.8059C155.414 17.684 155.475 17.623 155.597 17.623H166.685C166.737 17.623 166.763 17.649 166.763 17.701C166.748 21.2279 166.744 24.7588 166.75 28.2937C166.752 28.7279 166.674 29.0132 166.516 29.1498C161.401 33.562 153.827 34.7254 147.998 30.8913C141.179 26.4035 140.75 16.1254 146.135 10.4132Z" fill="white"/>
<path d="M69.989 32.8669H64.7572C64.732 32.8669 64.7078 32.8569 64.69 32.839C64.6721 32.8212 64.6621 32.797 64.6621 32.7718V6.68153C64.6621 6.6563 64.6721 6.63211 64.69 6.61427C64.7078 6.59643 64.732 6.58641 64.7572 6.58641H70.6302C70.6465 6.58661 70.6624 6.59098 70.6765 6.59909C70.6906 6.6072 70.7023 6.61879 70.7107 6.63275L77.4053 17.6157C77.4139 17.6293 77.4257 17.6405 77.4398 17.6483C77.4539 17.656 77.4697 17.6601 77.4858 17.6601C77.5018 17.6601 77.5176 17.656 77.5317 17.6483C77.5458 17.6405 77.5576 17.6293 77.5662 17.6157L84.3852 6.63031C84.3938 6.61681 84.4057 6.6057 84.4198 6.59803C84.4338 6.59035 84.4496 6.58636 84.4656 6.58641H90.0437C90.0689 6.58641 90.0931 6.59643 90.1109 6.61427C90.1287 6.63211 90.1388 6.6563 90.1388 6.68153V32.7718C90.1388 32.797 90.1287 32.8212 90.1109 32.839C90.0931 32.8569 90.0689 32.8669 90.0437 32.8669H84.8703C84.8451 32.8669 84.8209 32.8569 84.8031 32.839C84.7853 32.8212 84.7752 32.797 84.7752 32.7718V15.9815C84.7754 15.9609 84.7687 15.9407 84.7564 15.9241C84.744 15.9076 84.7266 15.8955 84.7068 15.8897C84.687 15.8839 84.6658 15.8847 84.6465 15.8921C84.6271 15.8994 84.6107 15.9128 84.5997 15.9303L77.4955 26.7376C77.4869 26.7512 77.4751 26.7624 77.461 26.7702C77.4469 26.778 77.4311 26.7821 77.4151 26.7821C77.399 26.7821 77.3832 26.778 77.3691 26.7702C77.355 26.7624 77.3432 26.7512 77.3346 26.7376L70.2621 15.9864C70.2511 15.9689 70.2347 15.9555 70.2154 15.9482C70.196 15.9408 70.1749 15.94 70.155 15.9458C70.1352 15.9516 70.1178 15.9637 70.1054 15.9802C70.0931 15.9968 70.0864 16.017 70.0866 16.0376L70.0841 32.7718C70.0841 32.797 70.0741 32.8212 70.0563 32.839C70.0384 32.8569 70.0143 32.8669 69.989 32.8669Z" fill="white"/>
<path d="M94.5605 6.62787C94.5605 6.61688 94.5649 6.60633 94.5727 6.59855C94.5805 6.59078 94.591 6.58641 94.602 6.58641H99.7558C99.842 6.58641 99.885 6.6295 99.885 6.71568C99.8932 11.6539 99.8964 16.5848 99.8948 21.5084C99.8924 25.3328 102.021 28.1108 106.092 27.9059C109.895 27.7132 111.46 24.9547 111.465 21.3791C111.472 16.488 111.473 11.5994 111.468 6.71324C111.468 6.6796 111.481 6.64734 111.505 6.62356C111.529 6.59977 111.561 6.58641 111.595 6.58641H116.531C116.591 6.58641 116.648 6.60997 116.691 6.65198C116.733 6.694 116.757 6.75107 116.758 6.8108C116.802 11.9116 116.785 17.0189 116.707 22.1328C116.58 30.4986 110.244 34.5376 102.372 32.823C96.6718 31.584 94.5947 26.962 94.5947 21.5815C94.5914 16.8693 94.5801 11.8848 94.5605 6.62787Z" fill="white"/>
<path d="M126.654 17.623H137.91C137.93 17.623 137.948 17.6307 137.962 17.6444C137.976 17.6581 137.984 17.6768 137.984 17.6962V22.9157C137.984 22.9351 137.976 22.9537 137.962 22.9674C137.948 22.9811 137.93 22.9888 137.91 22.9888H126.632C126.613 22.9888 126.594 22.9966 126.581 23.0103C126.567 23.024 126.559 23.0426 126.559 23.062L126.586 32.7937C126.586 32.8131 126.578 32.8317 126.565 32.8455C126.551 32.8592 126.532 32.8669 126.513 32.8669H121.296C121.276 32.8669 121.258 32.8592 121.244 32.8455C121.23 32.8317 121.223 32.8131 121.223 32.7937V6.65958C121.223 6.64017 121.23 6.62156 121.244 6.60784C121.258 6.59412 121.276 6.58641 121.296 6.58641H141.202C141.221 6.58641 141.24 6.59412 141.253 6.60784C141.267 6.62156 141.275 6.64017 141.275 6.65958V12.0157C141.275 12.0351 141.267 12.0537 141.253 12.0674C141.24 12.0811 141.221 12.0888 141.202 12.0888L126.654 12.0254C126.635 12.0254 126.616 12.0331 126.603 12.0469C126.589 12.0606 126.581 12.0792 126.581 12.0986V17.5498C126.581 17.5692 126.589 17.5878 126.603 17.6016C126.616 17.6153 126.635 17.623 126.654 17.623Z" fill="white"/>
<path d="M27.5237 27.8254C31.9832 27.8254 35.5982 24.2088 35.5982 19.7474C35.5982 15.286 31.9832 11.6693 27.5237 11.6693C23.0643 11.6693 19.4492 15.286 19.4492 19.7474C19.4492 24.2088 23.0643 27.8254 27.5237 27.8254Z" fill="white"/>
</svg>
