<svg xmlns="http://www.w3.org/2000/svg" viewBox="0 0 250.47 74.91"><title>Rakuten logo</title><path d="M588.2,537.32H436.86l12.07,12.13Z" transform="translate(-386.77 -474.55)" style="fill:#bf0000"/><path d="M450.89,488.19V490c-2.87-1.82-5.28-2.88-8.75-2.88-10.56,0-18.71,9.7-18.71,21.68s8,21.68,18.71,21.68a14.77,14.77,0,0,0,8.75-2.88v1.82h9.35V488.19ZM442,520.64c-5.28,0-9.05-5.16-9.05-11.68s3.77-11.68,9.05-11.68,8.9,5.16,8.9,11.68C451,515.49,447.27,520.64,442,520.64Z" transform="translate(-386.77 -474.55)" style="fill:#bf0000"/><path d="M525.58,488.19v24.26c0,4.55-3.17,8.34-7.7,8.34s-7.7-3.79-7.7-8.34V488.19h-9.35v24.26c0,10,6.79,18,16.75,18a14.79,14.79,0,0,0,8-2.58v1.52h9.35V488.19Z" transform="translate(-386.77 -474.55)" style="fill:#bf0000"/><path d="M612.49,529.59V505.33c0-4.55,3.17-8.34,7.7-8.34s7.7,3.79,7.7,8.34v24.26h9.35V505.33c0-10-6.79-18-16.75-18a14.79,14.79,0,0,0-8,2.58v-1.67h-9.35v41.24h9.35Z" transform="translate(-386.77 -474.55)" style="fill:#bf0000"/><path d="M396.57,529.59V513.52h6.79l11.92,15.92H427.5L413,510.18a17.84,17.84,0,0,0-10.26-32.3h-16v51.56h9.81Zm0-41.85h6.34a8,8,0,0,1,0,16.07h-6.34Z" transform="translate(-386.77 -474.55)" style="fill:#bf0000"/><path d="M560,519.73a5.67,5.67,0,0,1-3.17,1.06c-1.51,0-4.38-1.21-4.38-5V498h8v-9.86h-8V477.88h-9.35v10.31h-5V498h5v17.74c0,9.25,6.94,14.71,13.88,14.71a19.63,19.63,0,0,0,9.05-2.58Z" transform="translate(-386.77 -474.55)" style="fill:#bf0000"/><path d="M483.33,507.6l16-19.41h-13L475,502.6V474.55h-9.51v55H475v-17l13.88,17h13Z" transform="translate(-386.77 -474.55)" style="fill:#bf0000"/><path d="M581.56,487.13c-10.86,0-18.56,9.55-18.56,21.68,0,12.74,9.66,21.68,19.46,21.68,5,0,11.17-1.67,16.45-9.25l-8.3-4.85c-6.34,9.4-17,4.7-18.26-4.85h26.86C601.63,497,592.12,487.13,581.56,487.13Zm8.15,16.38H573C574.92,494,587.9,493.35,589.71,503.51Z" transform="translate(-386.77 -474.55)" style="fill:#bf0000"/></svg>