<svg width="133" height="40" viewBox="0 0 133 40" fill="none" xmlns="http://www.w3.org/2000/svg">
<g clip-path="url(#clip0_385_846)">
<path d="M106.959 33.5175H26.5977L33.0069 39.9947L106.959 33.5175Z" fill="white"/>
<path d="M34.0481 7.28341V8.2499C32.5241 7.27807 31.2444 6.71205 29.4019 6.71205C23.7945 6.71205 19.4668 11.8916 19.4668 18.2886C19.4668 24.6856 23.7148 29.8652 29.4019 29.8652C31.074 29.8637 32.702 29.3249 34.0481 28.3273V29.2991H39.013V7.28341H34.0481ZM29.3275 24.6109C26.5238 24.6109 24.5219 21.8556 24.5219 18.374C24.5219 14.8925 26.5238 12.1372 29.3275 12.1372C32.1312 12.1372 34.0534 14.8925 34.0534 18.374C34.1065 21.8609 32.1259 24.6109 29.3275 24.6109Z" fill="white"/>
<path d="M73.7087 7.2834V20.2376C73.7087 22.6672 72.0254 24.6909 69.62 24.6909C67.2146 24.6909 65.5313 22.6672 65.5313 20.2376V7.2834H60.5664V20.2376C60.5664 25.5774 64.1719 29.8492 69.4607 29.8492C70.9794 29.8128 72.455 29.3342 73.7087 28.4715V29.2831H78.6736V7.2834H73.7087Z" fill="white"/>
<path d="M119.857 29.39V16.4357C119.857 14.0061 121.541 11.9824 123.946 11.9824C126.352 11.9824 128.035 14.0061 128.035 16.4357V29.39H133V16.4357C133 11.096 129.394 6.82419 124.105 6.82419C122.587 6.86059 121.111 7.33914 119.857 8.20185V7.31011H114.893V29.3312H119.857V29.39Z" fill="white"/>
<path d="M5.20413 29.3899V20.809H8.80962L15.1392 29.3098H21.628L13.9285 19.0255C15.545 17.8511 16.7517 16.1938 17.3767 14.2894C18.0017 12.3851 18.0132 10.331 17.4095 8.41977C16.8058 6.50851 15.6176 4.8376 14.0144 3.64506C12.4111 2.45252 10.4745 1.79919 8.4804 1.77814H-0.015625V29.3098H5.1935L5.20413 29.3899ZM5.20413 7.04311H8.57068C9.70225 7.04311 10.7875 7.49514 11.5876 8.29976C12.3878 9.10439 12.8373 10.1957 12.8373 11.3336C12.8373 12.4715 12.3878 13.5628 11.5876 14.3674C10.7875 15.1721 9.70225 15.6241 8.57068 15.6241H5.20413V7.04311Z" fill="white"/>
<path d="M91.9864 24.1249C91.4946 24.4794 90.908 24.6767 90.3031 24.691C89.5013 24.691 87.9773 24.0448 87.9773 22.0211V12.5217H92.2253V7.25672H87.9773V1.77814H83.0124V7.28341H80.3574V12.5217H83.0124V21.9944C83.0124 26.9336 86.6976 29.8492 90.3827 29.8492C92.072 29.7886 93.7212 29.3157 95.1883 28.4715L91.9864 24.1249Z" fill="white"/>
<path d="M51.2738 17.6479L59.7699 7.28341H52.8669L46.8506 14.978V0H41.8008V29.3686H46.8506V20.291L54.2209 29.3686H61.1239L51.2738 17.6479Z" fill="white"/>
<path d="M103.434 6.71739C97.6668 6.71739 93.5781 11.8168 93.5781 18.2939C93.5781 25.0968 98.7076 29.8705 103.911 29.8705C106.566 29.8705 109.843 28.9788 112.646 24.9312L108.239 22.3415C104.873 27.3608 99.212 24.8512 98.543 19.7517H112.806C114.091 11.9877 109.041 6.71739 103.434 6.71739ZM107.761 15.4639H98.8881C99.9077 10.3858 106.8 10.0387 107.761 15.4639Z" fill="white"/>
</g>
<defs>
<clipPath id="clip0_385_846">
<rect width="133" height="40" fill="white"/>
</clipPath>
</defs>
</svg>
