<?xml version="1.0" encoding="utf-8"?>
<!-- Generator: Adobe Illustrator 15.1.0, SVG Export Plug-In . SVG Version: 6.00 Build 0)  -->
<!DOCTYPE svg PUBLIC "-//W3C//DTD SVG 1.1//EN" "http://www.w3.org/Graphics/SVG/1.1/DTD/svg11.dtd">
<svg version="1.1" id="レイヤー_1" xmlns="http://www.w3.org/2000/svg" xmlns:xlink="http://www.w3.org/1999/xlink" x="0px"
	 y="0px" width="511.457px" height="649.508px" viewBox="0 0 511.457 649.508" enable-background="new 0 0 511.457 649.508"
	 xml:space="preserve">
<path fill="#169F69" d="M37.932,217.129c0-16.864,1.842-33.351,5.575-49.082L43.46,168C54.229,120.099,92.87,55.665,161.65,55.665
	c96.842,0,81.157,156.08-59.142,124.381c14.645,27.257,59.52,109.973,78.416,141.293c50.737,84.605,146.82,106.337,203.367,71.851
	c-35.999,26.501-80.402,41.901-128.443,41.901C135.48,435.091,37.932,337.542,37.932,217.129 M350.656,15.984l-0.803-0.142
	l-2.268,2.268l1.321,1.938c73.74,34.91,124.805,109.925,124.805,197.082c0,25.462-4.392,49.979-12.375,72.559
	c-15.213,45.16-67.459,55.741-101.755-1.322c-6.234-10.251-41.948-77.094-52.624-97.218
	c167.038-31.84,71.379-246.447-139.875-177.62l0.425,3.119c195.05-41.901,225.614,172.045,67.269,178.799
	c17.668,31.131,47.333,82.952,59.145,103.927c31.932,57.019,85.596,69.678,135.434,42.705c4.11-2.268,7.699-4.772,9.685-7.087h0.094
	c-3.686,5.81-7.749,11.432-11.906,16.629c-21.444,25.13-110.963,55.269-173.696-46.483c-14.408-23.242-49.46-86.4-63.539-113.705
	c125.092,1.275,145.828-153.764,13.464-164.439C145.4,22.314,52.339,63.176,15.445,165.826C5.479,193.178,0,222.798,0,253.598
	C0,394.889,114.411,509.35,255.8,509.35c141.196,0,255.657-114.461,255.657-255.752C511.457,145.846,444.991,53.634,350.656,15.984"
	/>
<path fill="#EB9B15" d="M79.74,592.065c0,7.086-5.953,11.196-15.826,11.196h-8.598v-21.635h9.732
	C74.449,581.627,79.74,585.453,79.74,592.065 M77.991,609.543c8.833-2.218,14.692-9.114,14.692-17.665
	c0-18.849-15.354-21.351-30.233-21.351H43.032v77.659h12.284v-33.777h5.906c5.763,0,8.88,0,12.14,6.898l11.856,26.879h13.983
	L84.368,616.82C82.195,612.71,80.589,610.917,77.991,609.543"/>
<polygon fill="#EB9B15" points="113.184,570.571 113.184,648.14 157.212,648.14 157.212,637.274 125.467,637.274 125.467,613.419 
	154.423,613.419 154.423,602.506 125.467,602.506 125.467,581.627 157.212,581.627 157.212,570.571 "/>
<path fill="#EB9B15" d="M196.09,601.797c-6.755-3.211-12.708-6.141-12.708-12.14c0-8.599,8.88-9.354,12.565-9.354
	c5.669,0,8.692,0.756,14.173,3.117l0.756,0.237l1.89-11.384l-0.615-0.094c-4.96-1.843-11.006-2.977-16.488-2.977
	c-15.304,0-25.129,8.595-25.129,21.494c0,13.32,9.919,17.902,18.802,22.156c7.368,3.588,13.886,6.564,13.886,13.979
	c0,8.552-8.502,11.858-14.264,11.858c-6.237,0-13.464-3.069-15.591-3.778l-0.85-0.284l-1.228,11.621l0.566,0.094
	c4.913,1.608,10.204,3.164,15.731,3.164c18.187,0,28.581-8.549,28.581-23.337C216.166,611.436,205.016,606.238,196.09,601.797"/>
<path fill="#EB9B15" d="M265.342,638.691c-18.046,0-24.471-15.872-24.471-29.286c0-9.401,2.977-17.621,8.314-23.006
	c4.204-4.066,9.685-6.19,16.157-6.097c6.471-0.094,11.856,2.03,16.156,6.097c5.338,5.385,8.361,13.604,8.361,23.006
	C289.859,622.819,283.388,638.691,265.342,638.691 M265.342,569.25c-22.344,0-37.367,16.203-37.367,40.155
	c0,24.324,14.692,40.103,37.367,40.103c22.722,0,37.366-15.778,37.366-40.103C302.708,585.453,287.639,569.25,265.342,569.25"/>
<path fill="#EB9B15" d="M367.237,570.571v59.807c-1.986-3.451-32.784-59.807-32.784-59.807h-15.966v77.568h12.281v-61.128
	c1.796,3.448,33.634,61.128,33.634,61.128h15.022v-77.568H367.237"/>
<path fill="#EB9B15" d="M443.008,618.756H414.57c0.565-1.748,13.086-32.644,14.267-35.336
	C429.781,586.112,442.346,617.008,443.008,618.756 M435.262,570.571h-12.283l-33.163,77.568h12.945l7.652-19.133h36.563
	l7.652,19.133h13.511L435.262,570.571"/>
</svg>
