<svg width="31" height="40" viewBox="0 0 31 40" fill="none" xmlns="http://www.w3.org/2000/svg">
<g clip-path="url(#clip0_385_878)">
<path d="M2.2991 13.3719C2.2991 12.3333 2.41075 11.318 2.63701 10.3492L2.63416 10.3463C3.28688 7.3963 5.62896 3.42813 9.79779 3.42813C15.6675 3.42813 14.7168 13.0403 6.21313 11.0881C7.10078 12.7668 9.8207 17.8608 10.966 19.7897C14.0412 25.0001 19.8649 26.3385 23.2923 24.2146C21.1104 25.8467 18.4191 26.7951 15.5072 26.7951C8.2116 26.7951 2.2991 20.7875 2.2991 13.3719ZM21.2537 0.984375L21.205 0.97563L21.0675 1.1153L21.1476 1.23466C25.6171 3.38459 28.7122 8.0044 28.7122 13.372C28.7122 14.94 28.446 16.4499 27.9621 17.8405C27.04 20.6217 23.8733 21.2733 21.7946 17.7591C21.4168 17.1278 19.2521 13.0113 18.605 11.7719C28.7294 9.81106 22.9314 -3.40553 10.127 0.833183L10.1528 1.02527C21.975 -1.55521 23.8275 11.6207 14.23 12.0366C15.3009 13.9538 17.099 17.1452 17.8149 18.437C19.7503 21.9485 23.003 22.7281 26.0237 21.067C26.2728 20.9273 26.4903 20.7731 26.6107 20.6305H26.6164C26.393 20.9883 26.1467 21.3345 25.8948 21.6546C24.595 23.2022 19.1692 25.0584 15.3669 18.7919C14.4936 17.3606 12.369 13.471 11.5157 11.7894C19.0977 11.8679 20.3545 2.31985 12.3318 1.66243C8.81286 1.37421 3.17233 3.8907 0.936139 10.2124C0.332089 11.8969 0 13.721 0 15.6179C0 24.3193 6.93458 31.3684 15.5043 31.3684C24.0624 31.3684 31 24.3193 31 15.6179C31 8.98194 26.9714 3.30305 21.2537 0.984375Z" fill="white"/>
<path d="M4.83234 36.4624C4.83234 36.8988 4.47152 37.1519 3.8731 37.1519H3.35197V35.8195H3.94184C4.51164 35.8196 4.83234 36.0552 4.83234 36.4624ZM4.72633 37.5388C5.26171 37.4022 5.61683 36.9775 5.61683 36.4509C5.61683 35.29 4.6862 35.136 3.78437 35.136H2.60742V39.9186H3.35197V37.8384H3.70994C4.05924 37.8384 4.24817 37.8384 4.44576 38.2632L5.16436 39.9186H6.01189L5.11284 37.9869C4.98114 37.7338 4.88379 37.6234 4.72633 37.5388Z" fill="white"/>
<path d="M6.85938 35.1387V39.9158H9.52796V39.2466H7.60386V37.7775H9.35892V37.1054H7.60386V35.8195H9.52796V35.1387H6.85938Z" fill="white"/>
<path d="M11.8849 37.0617C11.4755 36.864 11.1147 36.6835 11.1147 36.3141C11.1147 35.7845 11.6529 35.738 11.8762 35.738C12.2199 35.738 12.4031 35.7846 12.7353 35.93L12.7811 35.9446L12.8957 35.2435L12.8584 35.2377C12.5578 35.1242 12.1913 35.0544 11.859 35.0544C10.9314 35.0544 10.3359 35.5837 10.3359 36.3781C10.3359 37.1984 10.9371 37.4806 11.4755 37.7425C11.9221 37.9635 12.3172 38.1468 12.3172 38.6034C12.3172 39.1301 11.8019 39.3337 11.4526 39.3337C11.0746 39.3337 10.6366 39.1447 10.5076 39.101L10.4561 39.0836L10.3817 39.7992L10.416 39.805C10.7138 39.9041 11.0345 39.9999 11.3695 39.9999C12.4718 39.9999 13.1018 39.4734 13.1018 38.5627C13.1017 37.6553 12.4259 37.3352 11.8849 37.0617Z" fill="white"/>
<path d="M16.0832 39.3338C14.9894 39.3338 14.6 38.3564 14.6 37.5303C14.6 36.9513 14.7804 36.4451 15.1039 36.1134C15.3587 35.863 15.6909 35.7322 16.0832 35.738C16.4754 35.7322 16.8018 35.863 17.0624 36.1134C17.386 36.4451 17.5692 36.9512 17.5692 37.5303C17.5692 38.3564 17.177 39.3338 16.0832 39.3338ZM16.0832 35.0573C14.7289 35.0573 13.8184 36.0552 13.8184 37.5303C13.8184 39.0283 14.7089 40 16.0832 40C17.4604 40 18.348 39.0283 18.348 37.5303C18.348 36.0552 17.4347 35.0573 16.0832 35.0573Z" fill="white"/>
<path d="M22.2595 35.1387V38.8219C22.1391 38.6093 20.2724 35.1387 20.2724 35.1387H19.3047V39.9157H20.0491V36.1511C20.1579 36.3635 22.0876 39.9157 22.0876 39.9157H22.9982V35.1387H22.2595Z" fill="white"/>
<path d="M26.851 38.1061H25.1273C25.1616 37.9985 25.9205 36.0958 25.9921 35.93C26.0493 36.0958 26.8109 37.9985 26.851 38.1061ZM26.3815 35.1387H25.637L23.627 39.9157H24.4116L24.8754 38.7374H27.0915L27.5553 39.9157H28.3742L26.3815 35.1387Z" fill="white"/>
</g>
<defs>
<clipPath id="clip0_385_878">
<rect width="31" height="40" fill="white"/>
</clipPath>
</defs>
</svg>
