<svg width="69" height="40" viewBox="0 0 69 40" fill="none" xmlns="http://www.w3.org/2000/svg">
<path d="M14.9821 31.7134C14.4828 34.4483 15.8808 35.322 18.3 35.322C20.0158 35.322 21.9403 34.6713 22.3261 32.9466C22.7891 30.8988 19.7525 30.5075 16.8113 29.5609C13.9018 28.6235 10.9606 27.1218 11.9228 22.8625C13.0757 17.7931 18.3318 15.8045 22.435 15.8045C26.7833 15.8045 30.6596 18.0479 29.5067 23.2902H23.8103C24.3777 21.1742 22.6665 20.4916 20.919 20.4916C19.689 20.4916 18.0595 20.9421 17.7145 22.4757C17.3105 24.264 20.388 24.5917 23.361 25.5337C26.3022 26.4756 29.1345 28.0365 28.1859 32.2276C26.856 38.1115 21.7133 40 16.902 40C12.0908 40 7.96485 37.6565 9.28114 31.7088H14.9821V31.7134Z" fill="white"/>
<path d="M54.3994 16.3005H60.0958L54.8487 39.5176H49.1523L54.4039 16.3005H54.3994Z" fill="white"/>
<path d="M33.6383 16.3004H43.8645C47.65 16.2367 51.549 17.2743 50.4551 22.1206C49.983 24.2003 48.4353 25.8931 46.5153 26.8032C48.6804 27.5177 49.6335 29.6655 49.0389 32.3003C47.7862 37.8293 43.5786 39.5176 38.8899 39.5176H28.3867L33.6383 16.3004ZM37.2694 25.438H41.6768C42.6572 25.438 44.1323 24.8874 44.5045 23.2264C44.8949 21.5336 43.8827 20.9784 42.689 20.9784H38.2771L37.274 25.4335L37.2694 25.438ZM35.177 34.6712H39.7432C41.5497 34.6712 42.9613 33.9886 43.3925 32.0728C43.86 30.0205 42.6617 29.3425 40.946 29.3425H36.3798L35.1724 34.6712H35.177Z" fill="white"/>
<path d="M68.0525 6.97174C64.9025 -1.41046 46.8783 -2.37064 27.8102 4.83296C14.2069 9.97059 3.74463 17.8704 0 25.0285C5.1744 19.6042 13.5352 14.2846 23.6207 10.4712C42.6979 3.26755 60.7176 4.22318 63.8676 12.6145C64.7708 15.0218 64.3533 17.7749 62.8463 20.6508C67.4579 15.8272 69.5367 10.9262 68.0525 6.97629V6.97174Z" fill="white"/>
</svg>
