<?xml version="1.0" encoding="UTF-8" standalone="no"?>
<!DOCTYPE svg PUBLIC "-//W3C//DTD SVG 1.1//EN" "http://www.w3.org/Graphics/SVG/1.1/DTD/svg11.dtd">
<svg xmlns="http://www.w3.org/2000/svg" version="1.1" viewBox="0.00 0.00 908.00 387.00">
<g stroke-width="2.00" fill="none" stroke-linecap="butt">
<path stroke="#629019" vector-effect="non-scaling-stroke" d="
  M 268.58 108.30
  Q 268.39 108.71 268.56 109.19
  A 0.52 0.52 0.0 0 0 269.25 109.48
  L 296.66 97.92
  Q 297.25 97.67 297.25 97.02
  L 297.25 28.22
  Q 297.25 27.71 296.78 27.91
  L 269.66 39.38
  Q 268.75 39.76 268.75 40.75
  L 268.75 107.52
  Q 268.75 107.93 268.58 108.30"
/>
<path stroke="#629019" vector-effect="non-scaling-stroke" d="
  M 265.45 41.73
  A 0.33 0.33 0.0 0 0 264.85 41.55
  L 236.82 83.25
  A 0.33 0.33 0.0 0 0 236.76 83.43
  L 236.73 152.53
  A 0.33 0.33 0.0 0 0 237.33 152.71
  L 265.45 110.96
  A 0.33 0.33 0.0 0 0 265.51 110.78
  L 265.45 41.73"
/>
<path stroke="#80a498" vector-effect="non-scaling-stroke" d="
  M 355.19 63.94
  C 345.19 76.21 350.85 92.19 361.89 101.62
  Q 372.11 110.35 377.70 115.44
  C 390.96 127.52 385.75 147.91 365.89 145.89
  C 356.31 144.92 351.81 137.91 351.66 128.63
  Q 351.64 127.93 350.94 127.94
  L 348.74 127.97
  Q 347.99 127.97 347.93 128.72
  C 347.58 132.56 345.37 147.37 349.31 149.17
  C 362.80 155.35 383.16 153.90 391.79 140.21
  C 398.48 129.60 396.95 116.51 388.75 107.00
  C 382.59 99.88 373.15 93.33 367.57 88.19
  C 354.81 76.44 358.81 60.06 377.55 61.96
  Q 388.37 63.05 389.62 73.02
  Q 389.79 74.34 390.06 74.88
  Q 390.90 76.52 392.62 75.25
  A 2.34 2.32 72.6 0 0 393.57 73.41
  L 393.94 58.25
  Q 393.95 57.70 393.41 57.58
  C 380.03 54.48 364.83 52.10 355.19 63.94"
/>
<path stroke="#80a498" vector-effect="non-scaling-stroke" d="
  M 628.44 69.69
  C 617.04 82.13 613.89 103.43 618.94 119.51
  C 628.75 150.76 661.38 157.31 689.49 148.99
  C 691.86 148.29 693.12 147.32 693.63 144.74
  Q 695.25 136.45 695.64 127.99
  Q 695.72 126.17 694.00 125.79
  A 1.44 1.43 13.3 0 0 692.30 126.83
  C 691.03 131.84 690.04 137.30 685.42 140.42
  Q 679.15 144.67 671.48 144.66
  C 649.99 144.62 635.59 132.24 630.29 112.38
  Q 627.69 102.62 628.90 92.91
  Q 633.07 59.54 667.66 61.83
  C 678.59 62.55 689.12 67.74 689.46 80.22
  Q 689.50 81.71 689.97 82.17
  Q 690.76 82.94 692.51 82.26
  A 1.05 1.05 0.0 0 0 693.17 81.30
  L 693.52 58.71
  Q 693.52 58.10 692.92 58.01
  C 670.02 54.66 646.30 50.18 628.44 69.69"
/>
<path stroke="#80a498" vector-effect="non-scaling-stroke" d="
  M 495.18 85.42
  Q 497.31 113.05 500.07 141.74
  Q 500.42 145.44 499.07 148.16
  A 1.44 1.44 0.0 0 0 500.24 150.24
  Q 512.22 151.30 524.25 150.39
  A 0.74 0.74 0.0 0 0 524.93 149.70
  L 525.03 148.07
  Q 525.07 147.34 524.34 147.28
  Q 521.03 146.98 517.77 146.40
  C 511.46 145.27 511.14 136.79 510.64 131.78
  Q 506.96 94.50 503.06 57.25
  Q 502.88 55.61 500.55 55.29
  A 0.87 0.86 24.0 0 0 499.76 55.59
  Q 498.64 56.91 497.81 58.81
  Q 482.46 93.98 466.65 130.52
  Q 466.11 131.75 465.56 130.53
  Q 449.16 94.07 432.36 56.89
  C 431.02 53.91 428.04 55.59 427.77 58.25
  Q 423.41 100.38 419.09 142.51
  C 418.46 148.64 412.92 145.26 410.93 148.58
  A 1.35 1.35 0.0 0 0 412.11 150.62
  Q 423.29 150.45 434.79 150.55
  Q 435.72 150.56 436.12 150.23
  Q 436.88 149.63 436.35 148.40
  A 1.77 1.77 0.0 0 0 435.16 147.37
  L 429.39 145.87
  A 0.72 0.72 0.0 0 1 428.85 145.21
  Q 428.53 139.39 428.83 135.81
  Q 430.89 110.89 432.71 85.70
  A 0.26 0.26 0.0 0 1 433.21 85.61
  L 461.63 148.65
  Q 462.81 151.25 465.43 150.14
  Q 465.89 149.95 466.66 148.17
  Q 480.55 116.48 494.25 85.27
  Q 495.03 83.50 495.18 85.42"
/>
<path stroke="#80a498" vector-effect="non-scaling-stroke" d="
  M 579.88 97.17
  C 588.68 89.52 593.07 75.97 585.99 65.94
  C 578.05 54.69 562.94 57.43 551.15 57.22
  Q 543.42 57.08 535.84 57.17
  A 1.50 1.50 0.0 0 0 534.37 58.89
  C 534.89 62.49 542.80 59.20 544.15 64.56
  Q 544.74 66.92 544.70 71.75
  Q 544.47 101.45 544.76 131.15
  C 544.80 135.24 544.42 140.08 543.73 143.49
  C 542.98 147.19 540.16 146.20 537.70 147.21
  Q 535.79 147.99 536.32 149.82
  A 0.90 0.89 -3.6 0 0 537.04 150.45
  Q 539.80 150.93 544.00 150.52
  C 553.72 149.58 568.15 152.96 579.49 149.27
  C 605.86 140.68 604.76 107.65 579.99 97.83
  Q 579.39 97.59 579.88 97.17"
/>
<path stroke="#629019" vector-effect="non-scaling-stroke" d="
  M 204.67 97.20
  A 0.70 0.70 0.0 0 0 204.25 97.84
  L 204.25 166.12
  A 0.70 0.70 0.0 0 0 205.22 166.77
  L 233.08 154.98
  A 0.70 0.70 0.0 0 0 233.51 154.34
  L 233.49 85.94
  A 0.70 0.70 0.0 0 0 232.52 85.30
  L 204.67 97.20"
/>
<path stroke="#80a498" vector-effect="non-scaling-stroke" d="
  M 570.16 96.17
  C 578.52 93.77 579.06 80.00 576.90 73.64
  Q 572.50 60.67 557.96 62.84
  A 1.42 1.41 -4.2 0 0 556.75 64.24
  L 556.75 95.48
  Q 556.75 95.95 557.21 96.04
  Q 565.39 97.54 570.16 96.17"
/>
<path stroke="#80a498" vector-effect="non-scaling-stroke" d="
  M 583.59 138.58
  C 591.48 127.78 582.97 109.48 572.41 104.09
  C 567.50 101.58 562.25 102.48 557.22 102.07
  A 0.41 0.41 0.0 0 0 556.77 102.48
  Q 556.71 120.00 556.75 137.25
  Q 556.76 142.18 561.05 143.66
  C 568.84 146.33 578.25 145.88 583.59 138.58"
/>
</g>
<path fill="#004831" d="
  M 906.67 203.20
  A 0.80 0.80 0.0 0 1 905.87 204.00
  L 1.55 204.00
  A 0.80 0.80 0.0 0 1 0.75 203.20
  L 0.75 1.80
  A 0.80 0.80 0.0 0 1 1.55 1.00
  L 905.87 1.00
  A 0.80 0.80 0.0 0 1 906.67 1.80
  L 906.67 203.20
  Z
  M 268.58 108.30
  Q 268.39 108.71 268.56 109.19
  A 0.52 0.52 0.0 0 0 269.25 109.48
  L 296.66 97.92
  Q 297.25 97.67 297.25 97.02
  L 297.25 28.22
  Q 297.25 27.71 296.78 27.91
  L 269.66 39.38
  Q 268.75 39.76 268.75 40.75
  L 268.75 107.52
  Q 268.75 107.93 268.58 108.30
  Z
  M 265.45 41.73
  A 0.33 0.33 0.0 0 0 264.85 41.55
  L 236.82 83.25
  A 0.33 0.33 0.0 0 0 236.76 83.43
  L 236.73 152.53
  A 0.33 0.33 0.0 0 0 237.33 152.71
  L 265.45 110.96
  A 0.33 0.33 0.0 0 0 265.51 110.78
  L 265.45 41.73
  Z
  M 355.19 63.94
  C 345.19 76.21 350.85 92.19 361.89 101.62
  Q 372.11 110.35 377.70 115.44
  C 390.96 127.52 385.75 147.91 365.89 145.89
  C 356.31 144.92 351.81 137.91 351.66 128.63
  Q 351.64 127.93 350.94 127.94
  L 348.74 127.97
  Q 347.99 127.97 347.93 128.72
  C 347.58 132.56 345.37 147.37 349.31 149.17
  C 362.80 155.35 383.16 153.90 391.79 140.21
  C 398.48 129.60 396.95 116.51 388.75 107.00
  C 382.59 99.88 373.15 93.33 367.57 88.19
  C 354.81 76.44 358.81 60.06 377.55 61.96
  Q 388.37 63.05 389.62 73.02
  Q 389.79 74.34 390.06 74.88
  Q 390.90 76.52 392.62 75.25
  A 2.34 2.32 72.6 0 0 393.57 73.41
  L 393.94 58.25
  Q 393.95 57.70 393.41 57.58
  C 380.03 54.48 364.83 52.10 355.19 63.94
  Z
  M 628.44 69.69
  C 617.04 82.13 613.89 103.43 618.94 119.51
  C 628.75 150.76 661.38 157.31 689.49 148.99
  C 691.86 148.29 693.12 147.32 693.63 144.74
  Q 695.25 136.45 695.64 127.99
  Q 695.72 126.17 694.00 125.79
  A 1.44 1.43 13.3 0 0 692.30 126.83
  C 691.03 131.84 690.04 137.30 685.42 140.42
  Q 679.15 144.67 671.48 144.66
  C 649.99 144.62 635.59 132.24 630.29 112.38
  Q 627.69 102.62 628.90 92.91
  Q 633.07 59.54 667.66 61.83
  C 678.59 62.55 689.12 67.74 689.46 80.22
  Q 689.50 81.71 689.97 82.17
  Q 690.76 82.94 692.51 82.26
  A 1.05 1.05 0.0 0 0 693.17 81.30
  L 693.52 58.71
  Q 693.52 58.10 692.92 58.01
  C 670.02 54.66 646.30 50.18 628.44 69.69
  Z
  M 495.18 85.42
  Q 497.31 113.05 500.07 141.74
  Q 500.42 145.44 499.07 148.16
  A 1.44 1.44 0.0 0 0 500.24 150.24
  Q 512.22 151.30 524.25 150.39
  A 0.74 0.74 0.0 0 0 524.93 149.70
  L 525.03 148.07
  Q 525.07 147.34 524.34 147.28
  Q 521.03 146.98 517.77 146.40
  C 511.46 145.27 511.14 136.79 510.64 131.78
  Q 506.96 94.50 503.06 57.25
  Q 502.88 55.61 500.55 55.29
  A 0.87 0.86 24.0 0 0 499.76 55.59
  Q 498.64 56.91 497.81 58.81
  Q 482.46 93.98 466.65 130.52
  Q 466.11 131.75 465.56 130.53
  Q 449.16 94.07 432.36 56.89
  C 431.02 53.91 428.04 55.59 427.77 58.25
  Q 423.41 100.38 419.09 142.51
  C 418.46 148.64 412.92 145.26 410.93 148.58
  A 1.35 1.35 0.0 0 0 412.11 150.62
  Q 423.29 150.45 434.79 150.55
  Q 435.72 150.56 436.12 150.23
  Q 436.88 149.63 436.35 148.40
  A 1.77 1.77 0.0 0 0 435.16 147.37
  L 429.39 145.87
  A 0.72 0.72 0.0 0 1 428.85 145.21
  Q 428.53 139.39 428.83 135.81
  Q 430.89 110.89 432.71 85.70
  A 0.26 0.26 0.0 0 1 433.21 85.61
  L 461.63 148.65
  Q 462.81 151.25 465.43 150.14
  Q 465.89 149.95 466.66 148.17
  Q 480.55 116.48 494.25 85.27
  Q 495.03 83.50 495.18 85.42
  Z
  M 579.88 97.17
  C 588.68 89.52 593.07 75.97 585.99 65.94
  C 578.05 54.69 562.94 57.43 551.15 57.22
  Q 543.42 57.08 535.84 57.17
  A 1.50 1.50 0.0 0 0 534.37 58.89
  C 534.89 62.49 542.80 59.20 544.15 64.56
  Q 544.74 66.92 544.70 71.75
  Q 544.47 101.45 544.76 131.15
  C 544.80 135.24 544.42 140.08 543.73 143.49
  C 542.98 147.19 540.16 146.20 537.70 147.21
  Q 535.79 147.99 536.32 149.82
  A 0.90 0.89 -3.6 0 0 537.04 150.45
  Q 539.80 150.93 544.00 150.52
  C 553.72 149.58 568.15 152.96 579.49 149.27
  C 605.86 140.68 604.76 107.65 579.99 97.83
  Q 579.39 97.59 579.88 97.17
  Z
  M 204.67 97.20
  A 0.70 0.70 0.0 0 0 204.25 97.84
  L 204.25 166.12
  A 0.70 0.70 0.0 0 0 205.22 166.77
  L 233.08 154.98
  A 0.70 0.70 0.0 0 0 233.51 154.34
  L 233.49 85.94
  A 0.70 0.70 0.0 0 0 232.52 85.30
  L 204.67 97.20
  Z"
/>
<path fill="#c4d700" d="
  M 268.75 107.52
  L 268.75 40.75
  Q 268.75 39.76 269.66 39.38
  L 296.78 27.91
  Q 297.25 27.71 297.25 28.22
  L 297.25 97.02
  Q 297.25 97.67 296.66 97.92
  L 269.25 109.48
  A 0.52 0.52 0.0 0 1 268.56 109.19
  Q 268.39 108.71 268.58 108.30
  Q 268.75 107.93 268.75 107.52
  Z"
/>
<path fill="#c4d700" d="
  M 265.45 41.73
  L 265.51 110.78
  A 0.33 0.33 0.0 0 1 265.45 110.96
  L 237.33 152.71
  A 0.33 0.33 0.0 0 1 236.73 152.53
  L 236.76 83.43
  A 0.33 0.33 0.0 0 1 236.82 83.25
  L 264.85 41.55
  A 0.33 0.33 0.0 0 1 265.45 41.73
  Z"
/>
<path fill="#ffffff" d="
  M 355.19 63.94
  C 364.83 52.10 380.03 54.48 393.41 57.58
  Q 393.95 57.70 393.94 58.25
  L 393.57 73.41
  A 2.34 2.32 72.6 0 1 392.62 75.25
  Q 390.90 76.52 390.06 74.88
  Q 389.79 74.34 389.62 73.02
  Q 388.37 63.05 377.55 61.96
  C 358.81 60.06 354.81 76.44 367.57 88.19
  C 373.15 93.33 382.59 99.88 388.75 107.00
  C 396.95 116.51 398.48 129.60 391.79 140.21
  C 383.16 153.90 362.80 155.35 349.31 149.17
  C 345.37 147.37 347.58 132.56 347.93 128.72
  Q 347.99 127.97 348.74 127.97
  L 350.94 127.94
  Q 351.64 127.93 351.66 128.63
  C 351.81 137.91 356.31 144.92 365.89 145.89
  C 385.75 147.91 390.96 127.52 377.70 115.44
  Q 372.11 110.35 361.89 101.62
  C 350.85 92.19 345.19 76.21 355.19 63.94
  Z"
/>
<path fill="#ffffff" d="
  M 628.44 69.69
  C 646.30 50.18 670.02 54.66 692.92 58.01
  Q 693.52 58.10 693.52 58.71
  L 693.17 81.30
  A 1.05 1.05 0.0 0 1 692.51 82.26
  Q 690.76 82.94 689.97 82.17
  Q 689.50 81.71 689.46 80.22
  C 689.12 67.74 678.59 62.55 667.66 61.83
  Q 633.07 59.54 628.90 92.91
  Q 627.69 102.62 630.29 112.38
  C 635.59 132.24 649.99 144.62 671.48 144.66
  Q 679.15 144.67 685.42 140.42
  C 690.04 137.30 691.03 131.84 692.30 126.83
  A 1.44 1.43 13.3 0 1 694.00 125.79
  Q 695.72 126.17 695.64 127.99
  Q 695.25 136.45 693.63 144.74
  C 693.12 147.32 691.86 148.29 689.49 148.99
  C 661.38 157.31 628.75 150.76 618.94 119.51
  C 613.89 103.43 617.04 82.13 628.44 69.69
  Z"
/>
<path fill="#ffffff" d="
  M 495.18 85.42
  Q 495.03 83.50 494.25 85.27
  Q 480.55 116.48 466.66 148.17
  Q 465.89 149.95 465.43 150.14
  Q 462.81 151.25 461.63 148.65
  L 433.21 85.61
  A 0.26 0.26 0.0 0 0 432.71 85.70
  Q 430.89 110.89 428.83 135.81
  Q 428.53 139.39 428.85 145.21
  A 0.72 0.72 0.0 0 0 429.39 145.87
  L 435.16 147.37
  A 1.77 1.77 0.0 0 1 436.35 148.40
  Q 436.88 149.63 436.12 150.23
  Q 435.72 150.56 434.79 150.55
  Q 423.29 150.45 412.11 150.62
  A 1.35 1.35 0.0 0 1 410.93 148.58
  C 412.92 145.26 418.46 148.64 419.09 142.51
  Q 423.41 100.38 427.77 58.25
  C 428.04 55.59 431.02 53.91 432.36 56.89
  Q 449.16 94.07 465.56 130.53
  Q 466.11 131.75 466.65 130.52
  Q 482.46 93.98 497.81 58.81
  Q 498.64 56.91 499.76 55.59
  A 0.87 0.86 24.0 0 1 500.55 55.29
  Q 502.88 55.61 503.06 57.25
  Q 506.96 94.50 510.64 131.78
  C 511.14 136.79 511.46 145.27 517.77 146.40
  Q 521.03 146.98 524.34 147.28
  Q 525.07 147.34 525.03 148.07
  L 524.93 149.70
  A 0.74 0.74 0.0 0 1 524.25 150.39
  Q 512.22 151.30 500.24 150.24
  A 1.44 1.44 0.0 0 1 499.07 148.16
  Q 500.42 145.44 500.07 141.74
  Q 497.31 113.05 495.18 85.42
  Z"
/>
<path fill="#ffffff" d="
  M 579.99 97.83
  C 604.76 107.65 605.86 140.68 579.49 149.27
  C 568.15 152.96 553.72 149.58 544.00 150.52
  Q 539.80 150.93 537.04 150.45
  A 0.90 0.89 -3.6 0 1 536.32 149.82
  Q 535.79 147.99 537.70 147.21
  C 540.16 146.20 542.98 147.19 543.73 143.49
  C 544.42 140.08 544.80 135.24 544.76 131.15
  Q 544.47 101.45 544.70 71.75
  Q 544.74 66.92 544.15 64.56
  C 542.80 59.20 534.89 62.49 534.37 58.89
  A 1.50 1.50 0.0 0 1 535.84 57.17
  Q 543.42 57.08 551.15 57.22
  C 562.94 57.43 578.05 54.69 585.99 65.94
  C 593.07 75.97 588.68 89.52 579.88 97.17
  Q 579.39 97.59 579.99 97.83
  Z
  M 570.16 96.17
  C 578.52 93.77 579.06 80.00 576.90 73.64
  Q 572.50 60.67 557.96 62.84
  A 1.42 1.41 -4.2 0 0 556.75 64.24
  L 556.75 95.48
  Q 556.75 95.95 557.21 96.04
  Q 565.39 97.54 570.16 96.17
  Z
  M 583.59 138.58
  C 591.48 127.78 582.97 109.48 572.41 104.09
  C 567.50 101.58 562.25 102.48 557.22 102.07
  A 0.41 0.41 0.0 0 0 556.77 102.48
  Q 556.71 120.00 556.75 137.25
  Q 556.76 142.18 561.05 143.66
  C 568.84 146.33 578.25 145.88 583.59 138.58
  Z"
/>
<path fill="#004831" d="
  M 576.90 73.64
  C 579.06 80.00 578.52 93.77 570.16 96.17
  Q 565.39 97.54 557.21 96.04
  Q 556.75 95.95 556.75 95.48
  L 556.75 64.24
  A 1.42 1.41 -4.2 0 1 557.96 62.84
  Q 572.50 60.67 576.90 73.64
  Z"
/>
<path fill="#c4d700" d="
  M 204.67 97.20
  L 232.52 85.30
  A 0.70 0.70 0.0 0 1 233.49 85.94
  L 233.51 154.34
  A 0.70 0.70 0.0 0 1 233.08 154.98
  L 205.22 166.77
  A 0.70 0.70 0.0 0 1 204.25 166.12
  L 204.25 97.84
  A 0.70 0.70 0.0 0 1 204.67 97.20
  Z"
/>
<path fill="#004831" d="
  M 583.59 138.58
  C 578.25 145.88 568.84 146.33 561.05 143.66
  Q 556.76 142.18 556.75 137.25
  Q 556.71 120.00 556.77 102.48
  A 0.41 0.41 0.0 0 1 557.22 102.07
  C 562.25 102.48 567.50 101.58 572.41 104.09
  C 582.97 109.48 591.48 127.78 583.59 138.58
  Z"
/>
<path fill="#004831" d="
  M 406.76 319.52
  L 437.62 319.49
  Q 438.50 319.49 438.50 320.37
  L 438.50 332.04
  Q 438.50 332.58 437.96 332.58
  L 407.27 332.46
  A 1.02 1.02 0.0 0 0 406.25 333.48
  L 406.25 368.25
  A 0.50 0.50 0.0 0 0 406.75 368.75
  L 444.62 368.75
  Q 445.25 368.75 445.26 369.37
  L 445.49 380.12
  Q 445.52 381.52 444.13 381.52
  L 348.49 381.49
  Q 348.00 381.49 348.00 380.99
  L 348.00 369.40
  A 0.66 0.66 0.0 0 1 348.66 368.75
  L 386.50 368.75
  A 0.50 0.50 0.0 0 0 387.00 368.25
  L 387.00 333.00
  A 0.50 0.50 0.0 0 0 386.50 332.50
  L 355.00 332.50
  A 0.75 0.75 0.0 0 1 354.25 331.75
  L 354.25 320.49
  A 1.00 1.00 0.0 0 1 355.26 319.49
  L 385.74 319.53
  Q 387.00 319.53 387.00 318.27
  L 387.00 289.00
  A 0.50 0.50 0.0 0 0 386.50 288.50
  L 352.25 288.50
  A 1.00 1.00 0.0 0 1 351.25 287.50
  L 351.25 276.36
  A 0.89 0.89 0.0 0 1 352.14 275.47
  L 392.53 275.56
  A 0.39 0.39 0.0 0 0 392.80 274.88
  L 374.73 258.41
  A 0.47 0.47 0.0 0 1 374.78 257.67
  Q 379.74 254.41 384.87 251.17
  C 387.91 249.25 388.30 248.10 391.29 250.45
  Q 405.12 261.31 412.22 268.21
  A 0.65 0.64 -39.0 0 1 412.11 269.22
  L 402.93 275.02
  A 0.31 0.31 0.0 0 0 403.10 275.59
  L 441.23 275.46
  A 0.77 0.77 0.0 0 1 442.00 276.23
  L 442.00 288.14
  A 0.40 0.40 0.0 0 1 441.60 288.53
  L 407.01 288.48
  A 0.76 0.76 0.0 0 0 406.25 289.24
  L 406.25 319.01
  Q 406.25 319.52 406.76 319.52
  Z"
/>
<path fill="#004831" d="
  M 507.70 326.54
  A 0.46 0.45 -44.0 0 0 506.85 326.53
  Q 494.04 359.05 469.53 383.93
  A 0.80 0.79 51.7 0 1 468.29 383.78
  L 462.36 373.87
  A 1.49 1.49 0.0 0 1 462.44 372.22
  Q 491.31 333.19 497.27 284.87
  Q 497.35 284.25 496.72 284.25
  L 465.00 284.25
  A 1.00 1.00 0.0 0 1 464.00 283.25
  L 464.00 271.25
  Q 464.00 270.50 464.75 270.50
  L 498.35 270.50
  Q 498.95 270.50 498.99 269.90
  L 500.14 251.04
  Q 500.17 250.50 500.72 250.50
  L 519.37 250.50
  Q 521.25 250.50 521.12 252.38
  L 519.95 269.96
  Q 519.92 270.50 520.46 270.50
  L 593.00 270.50
  A 1.00 1.00 0.0 0 1 594.00 271.50
  L 594.00 283.50
  A 0.75 0.75 0.0 0 1 593.25 284.25
  L 518.85 284.25
  A 0.59 0.59 0.0 0 0 518.27 284.73
  L 515.08 302.01
  Q 514.99 302.50 515.49 302.50
  L 579.22 302.50
  Q 580.14 302.50 580.00 303.41
  Q 575.37 333.20 555.08 355.36
  Q 554.67 355.82 555.23 356.08
  Q 574.00 364.74 594.11 369.61
  A 0.55 0.55 0.0 0 1 594.45 370.43
  L 585.41 385.43
  A 0.82 0.82 0.0 0 1 584.50 385.79
  Q 566.49 380.94 550.14 372.05
  Q 545.63 369.60 541.09 367.22
  Q 540.60 366.96 540.13 367.25
  Q 519.89 379.78 496.77 385.54
  A 1.59 1.59 0.0 0 1 495.00 384.77
  L 489.69 375.27
  A 0.70 0.69 -22.1 0 1 490.12 374.26
  Q 510.07 368.93 527.40 357.71
  A 0.74 0.73 -40.3 0 0 527.50 356.55
  Q 513.84 344.05 507.70 326.54
  Z
  M 517.24 315.83
  C 519.46 327.43 530.02 339.99 539.30 346.56
  A 1.04 1.02 -51.0 0 0 540.66 346.41
  Q 552.56 333.17 556.42 315.76
  A 0.42 0.42 0.0 0 0 556.01 315.25
  L 517.73 315.25
  Q 517.13 315.25 517.24 315.83
  Z"
/>
<path fill="#004831" d="
  M 320.52 312.69
  L 310.18 323.15
  Q 309.52 323.82 309.04 323.00
  L 303.33 313.18
  A 0.93 0.92 -42.0 0 1 303.39 312.17
  Q 323.47 284.57 333.21 251.83
  A 0.99 0.99 0.0 0 1 334.54 251.19
  L 351.01 258.02
  A 0.93 0.93 0.0 0 1 351.53 259.19
  Q 346.93 272.36 340.75 284.81
  Q 339.75 286.83 339.75 289.04
  Q 339.75 337.20 339.75 385.22
  A 0.78 0.78 0.0 0 1 338.97 386.00
  L 322.27 386.00
  Q 321.53 386.00 321.53 385.27
  L 321.43 313.06
  A 0.53 0.53 0.0 0 0 320.52 312.69
  Z"
/>
<path fill="#004831" d="
  M 817.94 262.45
  Q 818.93 263.24 818.14 264.23
  Q 802.00 284.35 779.48 296.97
  Q 779.00 297.24 778.68 296.79
  L 772.18 287.86
  Q 771.91 287.48 772.25 287.16
  C 784.13 276.02 794.64 265.97 804.28 252.56
  A 0.76 0.76 0.0 0 1 805.37 252.41
  L 817.94 262.45
  Z"
/>
<path fill="#004831" d="
  M 166.24 387.00
  L 163.32 387.00
  Q 159.50 382.20 157.53 376.05
  Q 157.36 375.52 157.76 375.14
  Q 171.15 362.16 176.79 344.34
  Q 177.01 343.66 176.30 343.67
  L 155.05 343.79
  A 1.05 1.05 0.0 0 1 154.00 342.74
  L 154.00 330.90
  A 0.66 0.66 0.0 0 1 154.66 330.25
  L 178.63 330.25
  A 1.15 1.14 0.3 0 0 179.78 329.12
  L 180.09 289.44
  A 0.52 0.52 0.0 0 0 179.57 288.91
  L 154.77 289.04
  A 0.77 0.77 0.0 0 1 154.00 288.27
  L 154.00 276.25
  A 0.76 0.75 -90.0 0 1 154.75 275.49
  L 179.49 275.52
  A 0.51 0.51 0.0 0 0 180.00 275.01
  L 180.00 255.50
  A 0.75 0.75 0.0 0 1 180.75 254.75
  L 199.29 254.75
  A 1.04 1.03 90.0 0 1 200.32 255.79
  L 200.27 274.88
  Q 200.26 275.49 200.88 275.49
  L 240.67 275.51
  A 0.36 0.36 0.0 0 0 241.03 275.14
  L 240.98 255.76
  A 1.01 1.01 0.0 0 1 241.99 254.75
  L 259.75 254.75
  A 1.00 1.00 0.0 0 1 260.75 255.75
  L 260.75 275.00
  Q 260.75 275.50 261.25 275.50
  L 284.00 275.50
  A 1.00 1.00 0.0 0 1 285.00 276.50
  L 285.00 288.01
  A 1.01 1.00 -89.7 0 1 283.99 289.02
  L 261.28 288.95
  Q 260.75 288.95 260.75 289.47
  L 260.75 329.75
  Q 260.75 330.25 261.25 330.25
  L 284.25 330.25
  A 0.75 0.75 0.0 0 1 285.00 331.00
  L 285.00 343.01
  A 0.76 0.75 -89.6 0 1 284.24 343.77
  L 261.40 343.70
  A 0.40 0.40 0.0 0 0 261.00 344.10
  L 261.00 385.25
  A 0.75 0.75 0.0 0 1 260.25 386.00
  L 242.00 386.00
  A 1.00 1.00 0.0 0 1 241.00 385.00
  L 241.00 344.23
  Q 241.00 343.78 240.55 343.78
  L 198.43 343.61
  Q 197.90 343.61 197.74 344.11
  C 192.10 361.80 181.49 376.79 166.24 387.00
  Z
  M 241.00 289.25
  A 0.26 0.26 0.0 0 0 240.74 288.99
  L 200.52 288.99
  A 0.26 0.26 0.0 0 0 200.26 289.25
  L 200.26 330.01
  A 0.26 0.26 0.0 0 0 200.52 330.27
  L 240.74 330.27
  A 0.26 0.26 0.0 0 0 241.00 330.01
  L 241.00 289.25
  Z"
/>
<path fill="#004831" d="
  M 624.96 296.02
  A 0.56 0.55 -16.0 0 0 624.07 295.53
  L 617.70 300.39
  A 0.79 0.78 -29.9 0 1 616.50 300.07
  L 612.07 289.48
  A 1.55 1.54 -32.6 0 1 612.46 287.73
  Q 627.40 274.23 636.00 255.78
  Q 636.50 254.71 637.73 254.95
  C 642.36 255.82 651.43 255.73 656.12 255.06
  Q 657.34 254.89 657.95 256.06
  Q 665.37 270.21 676.81 282.20
  A 1.34 1.33 -54.3 0 1 677.05 283.69
  L 671.56 295.40
  A 0.65 0.65 0.0 0 1 670.52 295.59
  L 667.60 292.76
  A 0.57 0.56 -67.0 0 0 666.64 293.15
  L 666.44 300.83
  A 0.76 0.76 0.0 0 1 665.67 301.57
  L 654.24 301.47
  A 0.60 0.60 0.0 0 0 653.64 302.08
  L 653.80 313.46
  Q 653.80 313.87 654.21 313.87
  L 672.22 313.70
  Q 673.75 313.68 673.75 315.22
  L 673.74 324.85
  A 0.65 0.65 0.0 0 1 673.09 325.50
  L 654.11 325.50
  A 0.39 0.38 90.0 0 0 653.73 325.89
  L 653.73 363.76
  A 0.66 0.66 0.0 0 0 654.55 364.40
  L 672.58 360.01
  Q 673.74 359.73 673.74 360.93
  L 673.75 370.23
  A 1.68 1.67 81.9 0 1 672.55 371.84
  Q 646.39 379.54 619.79 385.55
  A 1.21 1.21 0.0 0 1 618.36 384.71
  L 614.79 372.31
  A 1.12 1.11 78.0 0 1 615.70 370.90
  L 637.12 367.83
  A 0.74 0.73 86.0 0 0 637.75 367.10
  L 637.75 326.00
  A 0.50 0.50 0.0 0 0 637.25 325.50
  L 617.16 325.50
  A 0.85 0.84 89.7 0 1 616.32 324.66
  L 616.29 315.11
  A 1.33 1.32 0.4 0 1 617.64 313.79
  L 636.70 314.08
  A 1.04 1.03 0.3 0 0 637.75 313.05
  L 637.75 302.00
  A 0.50 0.50 0.0 0 0 637.25 301.50
  L 625.47 301.50
  A 0.93 0.93 0.0 0 1 624.54 300.48
  L 624.96 296.02
  Z
  M 658.95 284.73
  Q 652.73 277.87 647.50 270.09
  Q 647.21 269.65 646.92 270.09
  Q 640.06 280.62 631.02 289.36
  Q 630.57 289.80 631.20 289.80
  L 663.29 289.78
  A 0.29 0.29 0.0 0 0 663.52 289.32
  C 662.21 287.55 660.09 285.99 658.95 284.73
  Z"
/>
<path fill="#004831" d="
  M 698.37 366.77
  Q 707.87 364.34 716.77 360.26
  A 0.63 0.63 0.0 0 1 717.67 360.82
  L 717.76 371.31
  A 1.96 1.96 0.0 0 1 716.72 373.06
  Q 700.34 381.93 682.15 385.99
  A 0.54 0.53 -6.1 0 1 681.50 385.47
  L 681.50 258.00
  A 0.50 0.50 0.0 0 1 682.00 257.50
  L 742.02 257.50
  A 0.58 0.58 0.0 0 1 742.60 258.08
  L 742.46 321.52
  A 0.73 0.73 0.0 0 1 741.73 322.25
  L 716.23 322.25
  Q 715.33 322.25 715.61 323.10
  Q 718.61 332.19 723.29 340.54
  A 0.61 0.60 53.2 0 0 724.25 340.68
  L 738.04 327.15
  A 0.89 0.89 0.0 0 1 739.26 327.12
  L 748.32 335.38
  Q 749.49 336.44 748.33 337.51
  Q 740.31 344.96 731.10 350.86
  Q 730.69 351.12 730.99 351.51
  Q 740.14 362.97 751.56 372.18
  A 1.25 1.24 -50.4 0 1 751.72 373.96
  L 740.97 386.46
  A 0.66 0.66 0.0 0 1 740.02 386.51
  Q 712.46 359.98 702.95 322.81
  Q 702.80 322.25 702.22 322.25
  L 698.49 322.25
  Q 697.73 322.25 697.73 323.01
  L 697.76 366.29
  A 0.49 0.49 0.0 0 0 698.37 366.77
  Z
  M 726.2676 269.6551
  A 0.42 0.42 0.0 0 0 725.8469 269.2358
  L 698.1269 269.2842
  A 0.42 0.42 0.0 0 0 697.7077 269.7049
  L 697.7324 283.8649
  A 0.42 0.42 0.0 0 0 698.1531 284.2842
  L 725.8731 284.2358
  A 0.42 0.42 0.0 0 0 726.2923 283.8151
  L 726.2676 269.6551
  Z
  M 726.2776 296.1351
  A 0.66 0.66 0.0 0 0 725.6165 295.4763
  L 698.3965 295.5238
  A 0.66 0.66 0.0 0 0 697.7376 296.1849
  L 697.7624 310.3649
  A 0.66 0.66 0.0 0 0 698.4235 311.0237
  L 725.6435 310.9762
  A 0.66 0.66 0.0 0 0 726.3024 310.3151
  L 726.2776 296.1351
  Z"
/>
<rect fill="#004831" x="-37.37" y="-7.06" transform="translate(865.13,266.88) rotate(0.1)" width="74.74" height="14.12" rx="0.70"/>
<rect fill="#004831" x="5.00" y="265.75" width="119.76" height="16.50" rx="1.08"/>
<path fill="#004831" d="
  M 769.76 325.49
  C 784.50 313.26 797.07 300.21 807.36 284.62
  A 0.85 0.85 0.0 0 1 808.58 284.41
  L 820.62 293.33
  Q 822.10 294.43 820.89 295.82
  L 806.73 312.03
  A 1.95 1.95 0.0 0 0 806.25 313.31
  L 806.25 385.34
  A 0.66 0.65 90.0 0 1 805.60 386.00
  L 788.63 386.00
  Q 788.00 386.00 788.00 385.37
  L 788.00 328.53
  A 0.63 0.63 0.0 0 0 787.02 328.00
  L 776.34 335.05
  A 0.66 0.65 -33.6 0 1 775.44 334.87
  L 769.64 326.36
  Q 769.31 325.87 769.76 325.49
  Z"
/>
<path fill="#004831" d="
  M 887.54 313.95
  Q 887.45 342.23 887.42 370.50
  C 887.41 380.68 881.33 384.12 872.04 384.51
  Q 859.05 385.06 846.19 384.64
  Q 845.35 384.61 845.20 383.78
  L 842.99 371.73
  A 0.62 0.62 0.0 0 1 843.60 371.00
  Q 852.88 371.00 862.34 370.99
  C 866.58 370.99 868.65 368.81 868.67 364.69
  Q 868.79 339.20 868.74 313.75
  A 0.50 0.50 0.0 0 0 868.24 313.25
  L 824.75 313.25
  A 1.00 1.00 0.0 0 1 823.75 312.25
  L 823.75 300.50
  A 1.00 1.00 0.0 0 1 824.75 299.50
  L 906.00 299.50
  A 0.50 0.50 0.0 0 1 906.50 300.00
  L 906.50 312.50
  Q 906.50 313.25 905.75 313.25
  L 888.24 313.25
  A 0.70 0.70 0.0 0 0 887.54 313.95
  Z"
/>
<rect fill="#004831" x="11.00" y="313.50" width="107.58" height="16.50" rx="0.77"/>
<path fill="#004831" d="
  M 629.87 334.17
  L 632.40 358.30
  A 0.63 0.63 0.0 0 1 631.77 359.00
  L 620.63 359.00
  A 0.63 0.63 0.0 0 1 620.01 358.46
  L 616.48 334.18
  A 0.63 0.63 0.0 0 1 617.11 333.46
  L 629.25 333.60
  A 0.63 0.63 0.0 0 1 629.87 334.17
  Z"
/>
<path fill="#004831" d="
  M 673.45 334.41
  L 670.41 352.84
  A 0.79 0.79 0.0 0 1 669.63 353.50
  L 659.09 353.50
  A 0.79 0.79 0.0 0 1 658.31 352.61
  L 660.55 334.27
  A 0.79 0.79 0.0 0 1 661.32 333.57
  L 672.66 333.49
  A 0.79 0.79 0.0 0 1 673.45 334.41
  Z"
/>
<path fill="#004831" d="
  M 0.00 381.50
  L 0.00 365.59
  L 129.34 365.31
  Q 130.00 365.31 130.00 365.97
  L 130.00 380.78
  A 0.72 0.72 0.0 0 1 129.28 381.50
  L 0.00 381.50
  Z"
/>
</svg>
