<svg width="141" height="40" viewBox="0 0 141 40" fill="none" xmlns="http://www.w3.org/2000/svg">
<path d="M18.3955 22.9304V3.71196C18.3955 3.522 18.482 3.39055 18.655 3.31764L26.3903 0.0162159C26.4796 -0.0221616 26.5243 0.00758077 26.5243 0.105443V19.9082C26.5243 20.0329 26.4682 20.1193 26.356 20.1673L18.5381 23.4946C18.5198 23.5025 18.5001 23.5066 18.4801 23.5067C18.4602 23.5068 18.4405 23.5028 18.4221 23.495C18.4037 23.4872 18.3871 23.4758 18.3732 23.4614C18.3593 23.447 18.3485 23.4299 18.3413 23.4111C18.3089 23.319 18.3108 23.2336 18.347 23.1549C18.3793 23.0839 18.3955 23.0091 18.3955 22.9304Z" fill="white"/>
<path d="M120.988 12.0418C126.082 6.42617 132.847 7.71565 139.379 8.67989C139.493 8.69716 139.55 8.76432 139.55 8.88137L139.45 15.3835C139.449 15.4431 139.431 15.5012 139.398 15.5504C139.364 15.5996 139.317 15.6376 139.262 15.6598C138.929 15.7903 138.688 15.7816 138.538 15.6339C138.448 15.5456 138.4 15.3585 138.392 15.0726C138.295 11.4805 135.292 9.98664 132.174 9.7794C125.597 9.33998 121.912 12.3219 121.119 18.7252C120.889 20.5884 121.021 22.4564 121.515 24.3292C123.027 30.0456 127.134 33.6089 133.264 33.6204C134.722 33.6223 136.048 33.2155 137.24 32.4C138.558 31.502 138.84 29.9304 139.202 28.4884C139.228 28.3851 139.294 28.2962 139.384 28.2404C139.474 28.1845 139.583 28.1661 139.687 28.1891C140.014 28.262 140.17 28.4731 140.155 28.8223C140.081 30.4457 139.89 32.0527 139.582 33.6435C139.436 34.3861 139.077 34.6653 138.401 34.8667C130.383 37.2615 121.076 35.3762 118.278 26.3815C116.838 21.7532 117.736 15.6224 120.988 12.0418Z" fill="white"/>
<path d="M107.171 20.1413C114.236 22.9678 114.55 32.4749 107.028 34.9474C103.794 36.0095 99.678 35.0366 96.9056 35.3071C96.107 35.3858 95.4453 35.3791 94.9205 35.287C94.8725 35.2793 94.8278 35.2581 94.7914 35.2261C94.7551 35.194 94.7286 35.1522 94.7151 35.1057C94.6143 34.7545 94.7455 34.5041 95.1087 34.3544C95.8104 34.0637 96.6147 34.3487 96.8286 33.2837C97.0254 32.3022 97.1338 30.9091 97.1224 29.7319C97.0673 24.0328 97.0616 18.3338 97.1053 12.6347C97.1129 11.7079 97.0606 11.0181 96.9484 10.5652C96.5634 9.02243 94.3072 9.9694 94.1589 8.93321C94.15 8.87216 94.1541 8.80987 94.171 8.75056C94.1879 8.69124 94.2172 8.63628 94.2569 8.58936C94.2966 8.54244 94.3459 8.50467 94.4013 8.47858C94.4567 8.45249 94.5171 8.4387 94.5782 8.43814C96.0195 8.42087 97.4751 8.42566 98.945 8.45253C102.308 8.51297 106.617 7.72432 108.882 10.9624C110.902 13.8494 109.649 17.7495 107.139 19.9514C107.046 20.032 107.057 20.0953 107.171 20.1413ZM104.367 19.6635C106.752 18.9727 106.906 15.0093 106.289 13.1787C105.453 10.6899 103.652 9.65374 100.887 10.0701C100.791 10.0846 100.703 10.1333 100.64 10.2073C100.577 10.2813 100.542 10.3757 100.542 10.4731V19.4649C100.542 19.5551 100.586 19.6089 100.673 19.6261C102.229 19.914 103.46 19.9264 104.367 19.6635ZM108.198 31.8704C110.448 28.7619 108.021 23.4946 105.009 21.9432C103.608 21.2207 102.111 21.4798 100.676 21.3617C100.66 21.3601 100.644 21.362 100.628 21.3672C100.612 21.3724 100.598 21.3808 100.586 21.392C100.574 21.4031 100.564 21.4166 100.558 21.4318C100.551 21.4469 100.548 21.4632 100.548 21.4798C100.537 24.8416 100.535 28.1776 100.542 31.4876C100.544 32.4336 100.953 33.0486 101.769 33.3326C103.991 34.1011 106.675 33.9716 108.198 31.8704Z" fill="white"/>
<path d="M0.119797 19.96L8.06328 16.5348C8.09349 16.5221 8.12635 16.517 8.15895 16.5201C8.19156 16.5232 8.22291 16.5343 8.25025 16.5525C8.27758 16.5707 8.30006 16.5955 8.3157 16.6245C8.33134 16.6535 8.33967 16.686 8.33994 16.719L8.34564 36.4067C8.34532 36.4461 8.33352 36.4846 8.31172 36.5174C8.28992 36.5501 8.25907 36.5757 8.223 36.5909L0.276671 39.9844C0.246234 39.9973 0.213118 40.0023 0.180283 39.9991C0.147449 39.9958 0.115919 39.9844 0.0885136 39.9659C0.0611076 39.9474 0.0386807 39.9223 0.0232354 39.8929C0.0077901 39.8634 -0.000193094 39.8306 3.54662e-06 39.7973V20.1442C9.00299e-05 20.1051 0.0114632 20.0669 0.0327362 20.0341C0.0540092 20.0014 0.0842609 19.9757 0.119797 19.96Z" fill="white"/>
<path d="M17.4533 3.99403L17.4705 23.8688C17.4699 23.8873 17.464 23.9054 17.4533 23.9206L9.43285 35.9375C9.4215 35.9538 9.40532 35.9661 9.38664 35.9727C9.36795 35.9792 9.3477 35.9797 9.32876 35.9739C9.30982 35.9682 9.29314 35.9566 9.28111 35.9407C9.26907 35.9249 9.26229 35.9056 9.26172 35.8857L9.27028 15.9966C9.27083 15.978 9.27678 15.96 9.28739 15.9448L17.2822 3.94222C17.2936 3.92589 17.3097 3.91357 17.3284 3.90704C17.3471 3.9005 17.3674 3.90007 17.3863 3.9058C17.4052 3.91154 17.4219 3.92315 17.434 3.93898C17.446 3.95482 17.4528 3.97408 17.4533 3.99403Z" fill="white"/>
<path d="M82.9768 16.5693C82.9483 16.2009 82.8598 16.1865 82.7115 16.5262C80.1065 22.515 77.4834 28.5498 74.8422 34.6307C74.6958 34.9723 74.5788 35.1613 74.4914 35.1977C73.9932 35.4107 73.6319 35.2678 73.4075 34.7689L65.3015 16.624C65.295 16.6082 65.2834 16.5952 65.2685 16.587C65.2537 16.5788 65.2365 16.576 65.2198 16.579C65.2032 16.582 65.1881 16.5907 65.177 16.6036C65.1659 16.6165 65.1595 16.6329 65.1589 16.6499C64.8128 21.4836 64.4439 26.2913 64.0522 31.0731C63.9951 31.7601 63.9971 32.662 64.0579 33.7787C64.0602 33.8228 64.0763 33.865 64.104 33.8992C64.1317 33.9334 64.1695 33.9577 64.2119 33.9687L65.8577 34.4004C65.9331 34.4201 66.0029 34.4571 66.0618 34.5085C66.1207 34.5599 66.167 34.6244 66.1971 34.6969C66.2979 34.9329 66.276 35.1085 66.1315 35.2236C66.0554 35.287 65.929 35.3177 65.7521 35.3158C63.5654 35.2966 61.4091 35.3033 59.2833 35.3359C59.2148 35.3369 59.1473 35.3195 59.0877 35.2854C59.0281 35.2513 58.9786 35.2018 58.9443 35.1419C58.91 35.0821 58.8922 35.0141 58.8926 34.945C58.893 34.8759 58.9117 34.8081 58.9467 34.7487C59.5143 33.7931 61.0944 34.766 61.2741 33.0016C62.0956 24.9174 62.9208 16.8332 63.7499 8.74896C63.8269 7.98333 64.6768 7.49978 65.059 8.35751C68.2535 15.4919 71.41 22.5572 74.5285 29.5534C74.633 29.7875 74.7367 29.7865 74.8393 29.5505C77.8456 22.5389 80.8081 15.6588 83.7269 8.91015C83.8847 8.54556 84.0701 8.23662 84.2831 7.98333C84.31 7.95078 84.3448 7.92575 84.3843 7.91063C84.4237 7.89551 84.4665 7.89082 84.5084 7.89698C84.9515 7.95839 85.1901 8.14644 85.2243 8.46113C85.9659 15.6089 86.6866 22.7596 87.3863 29.9132C87.5289 31.3552 87.6202 33.796 89.42 34.1213C90.0399 34.2325 90.6645 34.317 91.2939 34.3745C91.4327 34.3861 91.4983 34.4619 91.4907 34.6019L91.4622 35.0711C91.4589 35.1222 91.4375 35.1704 91.4019 35.2069C91.3663 35.2433 91.3188 35.2657 91.2682 35.2697C88.9807 35.4443 86.698 35.4299 84.42 35.2265C84.353 35.221 84.2884 35.199 84.2319 35.1624C84.1753 35.1258 84.1285 35.0757 84.0956 35.0166C84.0626 34.9575 84.0445 34.8912 84.0429 34.8234C84.0413 34.7556 84.0562 34.6885 84.0863 34.6278C84.343 34.1059 84.4381 33.4899 84.3715 32.78C83.8467 27.2747 83.3818 21.8712 82.9768 16.5693Z" fill="white"/>
<path d="M43.0536 10.3868C45.8032 6.97884 50.1386 7.66388 53.9549 8.55616C54.0576 8.57918 54.108 8.64347 54.106 8.749L54.0005 13.1125C53.9987 13.2163 53.9733 13.318 53.9263 13.4099C53.8793 13.5018 53.8119 13.5813 53.7296 13.6421C53.4025 13.8858 53.1591 13.8503 52.9994 13.5356C52.948 13.432 52.9062 13.2536 52.8739 13.0003C52.6362 11.0871 51.4886 10.026 49.4312 9.81686C44.0861 9.26998 42.9453 13.9846 46.5847 17.3667C48.1763 18.8461 50.8688 20.7314 52.6257 22.7808C54.9646 25.518 55.401 29.2857 53.4928 32.3396C51.0313 36.28 45.2242 36.6974 41.3765 34.9186C40.2527 34.4005 40.8831 30.1377 40.9829 29.0324C40.9943 28.8885 41.0713 28.8166 41.2139 28.8166L41.8414 28.8079C41.9745 28.806 42.043 28.8722 42.0468 29.0065C42.0896 31.6776 43.3731 33.6953 46.1055 33.9745C51.7701 34.5559 53.2561 28.687 49.474 25.21C48.4111 24.2333 46.908 22.9074 44.9646 21.2322C41.8158 18.518 40.2014 13.9184 43.0536 10.3868Z" fill="white"/>
</svg>
