<svg width="157" height="40" viewBox="0 0 157 40" fill="none" xmlns="http://www.w3.org/2000/svg">
<g clip-path="url(#clip0_385_831)">
<path d="M153.487 10.2507H153.362H141.715V12.7577H153.487V10.2507Z" fill="white"/>
<path d="M140.825 15.8357L138.668 14.2758V14.4011C137.38 16.8089 135.608 18.9238 133.464 20.6128H133.395L134.563 23.3148L134.689 23.2173C135.375 22.6601 136.017 22.0501 136.609 21.3928V30.1253H139.03V18.3565C139.726 17.4513 140.282 16.6435 140.589 16.1421L140.825 15.8357Z" fill="white"/>
<path d="M140.811 18.6212H148.422V26.6574C148.422 27.1727 148.158 27.4095 147.601 27.4095L143.761 27.2841L144.707 30.0696H144.79C144.915 30.0696 147.768 30.0696 148.533 29.9443C150.245 29.7493 151.01 29.3593 151.01 27.5905V18.6212H154.336V16.1142H140.811V18.6212Z" fill="white"/>
<path d="M134.994 15.9471C137.125 14.4923 139.005 12.7 140.56 10.6407V10.5432L138.431 9.06685V9.16435C137.127 10.8739 135.541 12.3482 133.742 13.5237H133.645L134.855 16.0028L134.994 15.9471Z" fill="white"/>
<path d="M129.289 24.8747C130.327 24.2139 131.309 23.4686 132.225 22.6462L132.294 22.5766L130.903 20.6407L130.805 20.7382C130.078 21.5143 129.239 22.1764 128.315 22.702C128.059 21.9328 127.859 21.1462 127.716 20.3482H131.612V10.2507H121.552V13.454C120.044 12.3964 118.774 11.0349 117.823 9.45683H115.457C114.455 11.4256 113.029 13.1476 111.283 14.4986H111.199L112.201 16.9638L113.398 15.961V17.0334H115.374V18.5237H111.603V20.8914H115.374V27.117C113.787 27.4095 112.465 27.6045 111.714 27.6741H111.603L111.756 30.2507H111.881C112.493 30.1671 118.185 29.0529 120.063 28.5655L120.258 30.3621H120.383C121.107 30.2646 126.353 28.9694 127.146 28.7187H127.215V26.1699L124.015 27.0334V20.3482H125.406C125.545 22.5905 127.076 27.7855 131.111 30.2786H131.209L132.712 28.0084H132.6C131.239 27.2748 130.097 26.1936 129.289 24.8747ZM114.441 14.8468C115.249 13.969 115.997 13.0385 116.682 12.0613L119.312 14.8468H114.441ZM129.289 16.3928V18.1059H123.917V16.3928H129.289ZM123.973 14.1226V12.5348H129.289V14.1226H123.917M121.552 27.5348L120.647 27.6741C120.647 27.4373 120.647 25.8774 120.647 25.8774L117.628 26.6156V20.8914H121.037V18.5933H117.628V17.0891H120.133V15.5989L120.689 16.0724V15.9192L121.51 14.039L121.552 27.5348Z" fill="white"/>
<path d="M111.742 22.2841C112.085 23.7356 112.313 25.2118 112.424 26.6992L114.678 26.1838C114.613 24.6907 114.379 23.2096 113.982 21.7688L111.742 22.2841Z" fill="white"/>
<path d="M120.022 25.7799C120.402 24.562 120.645 23.3054 120.746 22.0334L118.742 21.6295C118.603 22.8582 118.346 24.0708 117.977 25.2507L120.022 25.7799Z" fill="white"/>
<path d="M88.8535 12.7577H72.8652V15.4178H88.8535V12.7577Z" fill="white"/>
<path d="M108.862 18.5933H91.9277V21.2535H108.862V18.5933Z" fill="white"/>
<path d="M90.9545 24.5682H70.75V27.2284H90.9545V24.5682Z" fill="white"/>
<path d="M57.3487 18.5655C56.4911 16.0256 55.367 13.584 53.9952 11.2813C53.4942 11.4903 51.8801 12.2284 51.4766 12.4095C52.7351 14.7341 53.8278 17.145 54.7466 19.624C54.997 19.4986 57.0147 18.649 57.3487 18.5655Z" fill="white"/>
<path d="M53.9258 27.3259C62.8592 25.9331 66.7414 20.5153 67.2284 11.0167L69.8584 11.4763C69.7315 15.5129 68.5617 19.4476 66.4631 22.8969C63.8193 26.8802 59.2134 28.8858 55.7069 29.8607L53.9258 27.3259Z" fill="white"/>
<path d="M40.9445 20.195V12.5348C40.9576 10.4601 40.4558 8.41454 39.4844 6.58171C38.513 4.74887 37.1022 3.18604 35.3786 2.03343C31.8859 -0.139274 26.1112 -0.752088 19.8217 1.07242C11.1666 3.62117 2.02451 10.7382 2.66459 16.8384C3.87519 27.2981 39.6644 8.91365 40.9445 20.195Z" fill="url(#paint0_linear_385_831)"/>
<path d="M41.0822 21.4763C39.8994 10.1811 4.0546 28.7604 2.94141 18.3008V30.3203C2.94141 37.7994 13.2524 42.1588 24.1617 38.8997C34.7787 35.7103 41.6249 27.2563 41.0822 21.4763Z" fill="url(#paint1_linear_385_831)"/>
</g>
<defs>
<linearGradient id="paint0_linear_385_831" x1="41.5568" y1="18.5237" x2="6.08012" y2="5.61963" gradientUnits="userSpaceOnUse">
<stop offset="0.12" stop-color="white"/>
<stop offset="0.23" stop-color="#E0EDE9"/>
<stop offset="0.48" stop-color="#90BFB2"/>
<stop offset="0.85" stop-color="#12755A"/>
<stop offset="0.9" stop-color="#006B4E"/>
</linearGradient>
<linearGradient id="paint1_linear_385_831" x1="2.14826" y1="20.4875" x2="37.611" y2="33.3776" gradientUnits="userSpaceOnUse">
<stop offset="0.1" stop-color="white"/>
<stop offset="0.23" stop-color="#DCE2EA"/>
<stop offset="0.51" stop-color="#8398B6"/>
<stop offset="0.9" stop-color="#002B69"/>
</linearGradient>
<clipPath id="clip0_385_831">
<rect width="157" height="40" fill="white"/>
</clipPath>
</defs>
</svg>
