<svg width="40" height="40" viewBox="0 0 40 40" fill="none" xmlns="http://www.w3.org/2000/svg">
<path d="M7.84809 16.0861C6.67243 14.4926 5.97527 12.5236 5.97527 10.3898V5.97448H10.3929C12.5244 5.97448 14.4957 6.66821 16.0892 7.84502C17.092 6.09469 18.4245 4.56072 20.0031 3.32095C17.3553 1.24322 14.0195 0.00115967 10.3929 0.00115967H0.00195312V10.3898C0.00195312 14.0187 1.24401 17.3533 3.32403 20.0023C4.56037 18.4225 6.09776 17.0901 7.84809 16.0861Z" fill="white"/>
<path d="M40.0031 0H29.6145C25.9856 0 22.6509 1.24206 20.002 3.31979C21.5829 4.55956 22.9153 6.09353 23.9159 7.84386C25.5105 6.6682 27.4806 5.97447 29.6145 5.97447H34.0286V10.3886C34.0286 12.5225 33.3326 14.4914 32.157 16.0849C33.9073 17.0889 35.4447 18.4214 36.6822 20.0011C38.761 17.3533 40.0031 14.0175 40.0031 10.3886V0Z" fill="white"/>
<path d="M16.0884 32.1562C14.4949 33.3295 12.5236 34.029 10.3921 34.029H5.97447V29.6114C5.97447 27.4787 6.67047 25.5097 7.84728 23.9151C6.09695 22.9123 4.5607 21.5798 3.32322 20.0012C1.24321 22.6501 0 25.9848 0 29.6114V40H10.3921C14.0187 40 17.3533 38.758 20.0023 36.6814C18.4237 35.4405 17.0912 33.9065 16.0884 32.1562Z" fill="white"/>
<path d="M32.157 23.9151C33.3326 25.5097 34.0286 27.4775 34.0286 29.6114V34.0278H29.6145C27.4806 34.0278 25.5094 33.3295 23.9159 32.1562C22.9153 33.9065 21.5829 35.4405 20.002 36.6814C22.6509 38.7568 25.9856 40 29.6145 40H40.0031V29.6114C40.0031 25.9848 38.7599 22.6501 36.6822 20.0012C35.4447 21.5786 33.9073 22.9123 32.157 23.9151Z" fill="white"/>
<path d="M20.0038 3.31979C18.4251 4.55956 17.0926 6.09354 16.0898 7.84386C18.2763 9.44538 19.3856 11.7624 19.9305 14.7685L20.0038 14.8384L20.077 14.7685C20.6208 11.7624 21.7312 9.44538 23.9165 7.84386C22.916 6.09354 21.5812 4.55956 20.0038 3.31979Z" fill="#CCCCCC"/>
<path d="M3.32422 20.0012C4.5617 21.5786 6.09795 22.9111 7.84828 23.9151C9.4475 21.7263 11.7668 20.6193 14.7718 20.0733L14.8393 20.0012L14.7718 19.9279C11.7668 19.3807 9.4475 18.2738 7.84828 16.085C6.09795 17.089 4.5617 18.4214 3.32422 20.0012Z" fill="#CCCCCC"/>
<path d="M20.0038 36.6813C21.5812 35.4404 22.916 33.9065 23.9165 32.1561C21.7312 30.558 20.6208 28.2376 20.077 25.2304L20.0038 25.1628L19.9305 25.2304C19.3856 28.2376 18.2763 30.558 16.0898 32.1561C17.0926 33.9065 18.4251 35.4404 20.0038 36.6813Z" fill="#CCCCCC"/>
<path d="M36.6814 20.0012C35.4428 18.4214 33.9066 17.0889 32.1562 16.085C30.5582 18.2737 28.2377 19.3807 25.2327 19.9279L25.1641 20.0012L25.2327 20.0732C28.2377 20.6193 30.5582 21.7263 32.1562 23.915C33.9066 22.9111 35.4428 21.5786 36.6814 20.0012Z" fill="#CCCCCC"/>
</svg>
