<svg width="305" height="40" viewBox="0 0 305 40" fill="none" xmlns="http://www.w3.org/2000/svg">
<path d="M287.361 1.48524e-07C286.524 1.48524e-07 284.035 5.81598e-05 281.143 3.51241C281.18 3.55678 281.217 3.60114 281.256 3.64694C281.998 2.77816 282.93 1.88935 283.931 1.24241C284.855 0.646997 285.927 0.249068 286.815 0.151741C287.462 0.0801775 289.601 0.107363 292.037 0.107363C292.05 0.107363 292.057 0.113049 292.063 0.120205L292 0.0143269C291.996 0.00430795 291.987 1.48524e-07 291.977 1.48524e-07H287.361Z" fill="url(#paint0_radial_358_3618)"/>
<path d="M270.397 8.53454e-05C270.388 8.53454e-05 270.378 0.00299542 270.373 0.0130144L261.313 15.7055L258.472 20.6262L258.143 21.1973L258.1 21.2703C258.097 21.276 258.097 21.286 258.102 21.2975L266.733 36.2458V36.1842C266.545 35.8407 266.411 35.5759 266.339 35.4099C265.979 34.5926 265.774 33.4619 265.827 32.3627C265.973 29.4687 267.512 26.6133 268.286 25.2736C270.101 22.1305 273.609 16.0519 273.609 16.0519C273.609 16.0519 277.118 9.97321 278.933 6.8287C279.706 5.49046 281.411 2.72951 283.845 1.15653C284.769 0.559691 285.853 0.173326 286.738 0.0759996C287.386 0.00300451 289.539 8.53454e-05 291.978 8.53454e-05H270.397Z" fill="url(#paint1_radial_358_3618)"/>
<path d="M258.174 21.4163C258.31 21.6539 258.444 21.8886 258.577 22.1176L258.174 21.4163ZM301.587 25.796C301.059 26.5145 300.183 27.2602 299.204 27.7611C296.624 29.0822 293.383 29.1781 291.837 29.1781H281.187H270.539C268.993 29.1781 265.748 29.0822 263.172 27.7611C262.191 27.2602 261.315 26.5145 260.787 25.796C260.452 25.3394 259.594 23.8766 258.577 22.1176L260.743 25.8704L268.893 39.9871C268.897 39.9942 268.907 40 268.916 40H293.461C293.468 40 293.478 39.9928 293.482 39.9857L304.176 21.4636C302.997 23.506 301.964 25.285 301.587 25.796Z" fill="url(#paint2_radial_358_3618)"/>
<path d="M286.738 0.0760106C285.854 0.173337 284.769 0.559702 283.845 1.15654C282.826 1.81493 281.936 2.68086 281.188 3.56396C282.228 4.79056 282.992 6.04866 283.442 6.82871C285.257 9.97323 288.768 16.0519 288.768 16.0519C288.768 16.0519 292.276 22.1305 294.092 25.2736C294.863 26.6133 296.403 29.4687 296.547 32.3627C296.601 33.4619 296.393 34.5926 296.037 35.4099C295.787 35.9809 294.792 37.7171 293.637 39.718L304.275 21.2932C304.275 21.2932 304.277 21.2903 304.277 21.2875V21.276C304.277 21.2731 304.274 21.2688 304.274 21.2688L292.001 0.0144231C291.997 0.00440416 291.988 9.63509e-05 291.978 9.63509e-05C289.539 9.63509e-05 287.386 0.00301551 286.738 0.0760106Z" fill="url(#paint3_radial_358_3618)"/>
<path d="M10.9135 10.8936C4.84201 10.8936 0 15.8916 0 22.1649C1.14502e-05 28.7216 4.75899 33.2573 10.6272 33.2573C13.9864 33.2573 16.5885 32.0536 18.5708 29.7864L15.6367 26.7807C14.423 28.076 12.8958 28.7845 10.9135 28.7845C7.47413 28.7845 5.1526 25.9034 5.1526 22.0575C5.15258 18.3348 7.52422 15.3663 10.8419 15.3663C12.5838 15.3663 14.0637 16.0175 15.2789 17.1912L18.3203 14.0424C16.5384 12.1001 13.9091 10.8936 10.9135 10.8936ZM31.4881 10.8936C25.0531 10.8936 20.2168 15.9317 20.2168 22.1649C20.2168 28.4797 24.7883 33.2573 31.345 33.2573C37.78 33.2573 42.6163 28.2206 42.6163 21.986C42.6163 15.6726 38.0433 10.8936 31.4881 10.8936ZM47.8404 11.2514L45.7293 32.8637H50.202L51.2039 21.1988C51.4057 18.9316 51.4186 16.5829 51.4186 16.5829H51.526C51.526 16.5829 52.024 18.9459 52.671 21.0914L56.3207 32.8637H60.5788L64.2285 20.9841C64.8755 18.9202 65.3736 16.5829 65.3736 16.5829H65.4451C65.4451 16.5829 65.4938 18.9216 65.6956 21.2703L66.6617 32.8637H71.4207L69.3096 11.2514H63.0477L59.7558 21.9502C59.2305 23.6935 58.6823 25.922 58.6823 25.922C58.6823 25.922 58.1055 23.6963 57.5373 21.9144L54.2096 11.2514H47.8404ZM77.9688 11.2514L75.8934 32.8637H80.3662L81.3323 21.1988C81.5341 18.9316 81.5828 16.5829 81.5828 16.5829H81.6543C81.6543 16.5829 82.1882 18.9459 82.8351 21.0914L86.4849 32.8637H90.7429L94.3569 20.9841C95.0052 18.9202 95.5019 16.5829 95.5019 16.5829H95.5735C95.5735 16.5829 95.6222 18.9216 95.824 21.2703L96.7901 32.8637H101.585L99.4737 11.2514H93.2119L89.9199 21.9502C89.3932 23.6935 88.8465 25.922 88.8465 25.922C88.8465 25.922 88.2683 23.6963 87.7015 21.9144L84.3737 11.2514H77.9688ZM106.737 11.2514V32.8637H120.8V28.713H111.461V23.9897H119.368V19.9464H111.461V15.3663H120.657V11.2514H106.737ZM126.346 11.2514V32.8637H131.069V24.9916H132.536L137.152 32.8637H142.77L137.438 24.1687C140.231 23.1167 141.804 20.9497 141.804 18.1573C141.804 13.7862 139.339 11.2514 132.822 11.2514H126.346ZM145.74 11.2514V15.3663H154.471L145.525 29.2855V32.8637H160.589V28.713H151.429L160.375 14.7938V11.2514H145.74ZM165.456 11.2514V32.8637H173.721C177.567 32.8637 181.844 31.129 181.844 26.6376C181.844 23.8452 180.06 21.9545 177.228 21.5924V21.5566C179.453 20.8667 180.842 19.185 180.842 16.7976C180.842 12.1016 176.701 11.2514 172.934 11.2514H165.456ZM191.111 11.2514L183.418 32.8637H188.141L189.644 28.4625H198.053L199.556 32.8637H204.637L196.944 11.2514H191.111ZM207.571 11.2514V32.8637H211.936V22.5943C211.936 20.6506 211.793 18.6582 211.793 18.6582C211.793 18.6582 212.808 20.3944 213.94 22.0933L221.275 32.8637H225.462V11.2514H221.061V21.0556C221.061 22.9993 221.204 24.9559 221.204 24.9559C221.204 24.9559 220.192 23.2212 219.057 21.5208L212.044 11.2514H207.571ZM230.65 11.2514V32.8637H235.338V22.7374L242.244 32.8637H248.04L240.097 21.2703L247.289 11.2514H241.85L235.338 20.9483V11.2514H230.65ZM31.4165 15.2947C35.1393 15.2947 37.5352 18.2489 37.5352 22.0933C37.5352 25.7359 35.2194 28.8561 31.4165 28.8561C27.6923 28.8561 25.2978 25.9034 25.2978 22.0575C25.2978 18.4149 27.6122 15.2947 31.4165 15.2947ZM131.069 15.2947H133.001C135.51 15.2947 136.973 16.0533 136.973 18.1573C136.973 20.1811 135.632 21.0556 133.001 21.0556H131.069V15.2947ZM170.143 15.2947H172.862C174.36 15.2947 175.868 15.7671 175.868 17.549C175.868 19.288 174.577 19.9822 173.077 19.9822H170.143V15.2947ZM193.866 15.6168C193.866 15.6168 194.269 17.0795 194.797 18.6582L196.693 24.3834H191.04L192.936 18.694C193.463 17.0753 193.866 15.6168 193.866 15.6168ZM170.143 23.954H173.614C175.716 23.954 177.085 24.6152 177.085 26.3156C177.085 27.9759 176.001 28.8203 173.614 28.8203H170.143V23.954Z" fill="white"/>
<defs>
<radialGradient id="paint0_radial_358_3618" cx="0" cy="0" r="1" gradientUnits="userSpaceOnUse" gradientTransform="translate(296.036 35.409) scale(35.641 35.6417)">
<stop stop-color="#FEDF33"/>
<stop offset="0.440002" stop-color="#FBB809"/>
<stop offset="0.899994" stop-color="#EE960D"/>
<stop offset="1" stop-color="#E17A10"/>
</radialGradient>
<radialGradient id="paint1_radial_358_3618" cx="0" cy="0" r="1" gradientUnits="userSpaceOnUse" gradientTransform="translate(286.73 -0.000762204) scale(35.6674 35.6675)">
<stop stop-color="#FEDF33"/>
<stop offset="0.440002" stop-color="#FBB809"/>
<stop offset="0.899994" stop-color="#EE960D"/>
<stop offset="1" stop-color="#E17A10"/>
</radialGradient>
<radialGradient id="paint2_radial_358_3618" cx="0" cy="0" r="1" gradientUnits="userSpaceOnUse" gradientTransform="translate(260.742 25.8702) scale(35.6533 35.6533)">
<stop stop-color="#FEDF33"/>
<stop offset="0.440002" stop-color="#FBB809"/>
<stop offset="0.899994" stop-color="#EE960D"/>
<stop offset="1" stop-color="#E17A10"/>
</radialGradient>
<radialGradient id="paint3_radial_358_3618" cx="0" cy="0" r="1" gradientUnits="userSpaceOnUse" gradientTransform="translate(296.013 35.524) scale(35.7532 35.7531)">
<stop stop-color="#FEDF33"/>
<stop offset="0.440002" stop-color="#FBB809"/>
<stop offset="0.899994" stop-color="#EE960D"/>
<stop offset="1" stop-color="#D87301"/>
</radialGradient>
</defs>
</svg>
