<svg width="250" height="52" viewBox="0 0 250 52" fill="none" xmlns="http://www.w3.org/2000/svg">
<path fill-rule="evenodd" clip-rule="evenodd" d="M211.413 38.8316L229.936 13.4257H238.69L220.167 38.8316H211.413ZM200.683 1.72241H249.419V50.5133H200.683V1.72241ZM207.501 8.55206V43.6729H242.557V8.55206H207.501Z" fill="white"/>
<path fill-rule="evenodd" clip-rule="evenodd" d="M12.0789 32.8902L11.1496 32.3434L10.1403 31.9868L9.05315 31.748L8.00708 31.6529H3.85202V48.07H7.38464L8.93753 47.9522L10.2181 47.7134L11.3819 47.2854L12.3534 46.7148L13.1661 45.9768L13.7885 45.001L14.2543 43.9538L14.6022 42.7413L14.7978 41.3614L14.8746 39.7901L14.7978 38.5063L14.6022 37.1977L14.2543 35.9603L13.7885 34.8181L13.0104 33.772L12.0789 32.8902ZM9.3622 50.0454L7.65698 50.1643H1.29199V29.5835H7.07342L8.43286 29.6548L9.90792 29.7726L11.2652 30.0589L12.5857 30.4404L13.9052 31.1309L14.9145 32.0344L15.8061 33.0091L16.5042 34.1989L17.011 35.4373L17.3222 36.8162L17.5546 38.2913L17.5913 39.7901L17.5546 41.4316L17.2833 42.9791L16.8932 44.3828L16.3518 45.6904L15.5748 46.8337L14.72 47.7847L13.6329 48.6405L12.4312 49.3062L10.9561 49.7828L9.3622 50.0454Z" fill="white"/>
<path fill-rule="evenodd" clip-rule="evenodd" d="M25.9358 37.3165L24.9189 37.4354L24.0587 37.8633L23.3174 38.3626L22.7706 39.0769L22.3416 39.9328L22.0692 40.8362L21.9136 41.8368H29.6024L29.5235 40.861L29.3279 39.9328L28.9799 39.0769L28.431 38.3864L27.7696 37.8623L26.9483 37.4343L25.9358 37.3165ZM21.8758 43.5259V43.8112L21.9147 44.7632L22.1471 45.6439L22.4604 46.4998L22.8884 47.3081L23.513 47.9273L24.2165 48.4266L25.0345 48.7108L26.0103 48.8307L26.9483 48.7108L27.7696 48.4266L28.431 47.9738L28.9799 47.3081L29.3701 46.4998L29.6024 45.5715H31.9074L31.5562 46.9277L31.0105 48.0462L30.2291 48.9269L29.3701 49.6401L28.3143 50.1394L27.1039 50.402L25.8147 50.5198L24.4477 50.402L23.2763 50.0681L22.2238 49.544L21.3668 48.901L20.6601 48.0451L20.1165 47.0466L19.7264 45.8795L19.4519 44.6184L19.373 43.2633L19.4519 41.906L19.7264 40.5984L20.1165 39.3838L20.6601 38.3604L21.4036 37.4332L22.3005 36.6476L23.3952 36.076L24.6055 35.7669L26.0092 35.648L27.3374 35.7669L28.4299 36.0295L29.369 36.5287L30.1492 37.242L30.7349 38.0027L31.2417 38.9786L31.6318 39.9771L31.8274 41.0966L31.9452 42.2864L31.9852 43.5237H21.8758V43.5259Z" fill="white"/>
<path fill-rule="evenodd" clip-rule="evenodd" d="M44.019 50.2118L43.9401 47.9749L43.2009 48.8556L42.4661 49.5461L41.5735 49.9741L40.6074 50.2831L39.4457 50.4031L38.2051 50.2831L37.1591 49.9741L36.3043 49.5461L35.6494 48.9269L35.1058 48.1175L34.7946 47.1428L34.5612 46.0243L34.4834 44.787V35.8879H36.9635V44.6433L37.0035 45.4062L37.1169 46.1443L37.3504 46.7613L37.6237 47.333L37.9728 47.856L38.5163 48.1899L39.2512 48.4277L40.106 48.4741L41.1488 48.3563L41.9614 48.07L42.6195 47.5707L43.0885 46.9526L43.4754 46.2145L43.7466 45.3824L43.8601 44.4055L43.9401 43.4308V35.8879H46.3024V46.5236L46.3791 50.2118H44.019Z" fill="white"/>
<path fill-rule="evenodd" clip-rule="evenodd" d="M54.248 50.4031L53.2419 50.3307L52.426 50.0454L51.769 49.5937L51.2643 48.9756L50.992 48.1175L50.8775 47.0715V37.6256H48.165V35.8879H50.8775V33.0804L53.2786 32.0808V35.8879H56.3757V37.6256H53.2786V46.7613L53.3964 47.3794L53.5499 47.856L53.9378 48.1899L54.4403 48.3563L55.1773 48.4277L56.4924 48.3088V50.2118L55.3729 50.3307L54.248 50.4031Z" fill="white"/>
<path fill-rule="evenodd" clip-rule="evenodd" d="M63.2157 50.5209L62.1242 50.4733L61.1527 50.2831L60.2158 49.9503L59.3977 49.4499L58.7364 48.8318L58.2296 48.0462L57.9184 47.0477L57.8027 45.8579H60.2158L60.2947 46.7386L60.6459 47.4756L61.0738 48.0462L61.6963 48.4277L62.4354 48.713L63.3324 48.7843L64.0726 48.713L64.815 48.5465L65.4763 48.2126L65.9443 47.6896L66.3344 47.1179L66.4511 46.3572L66.3344 45.738L66.102 45.1436L65.6698 44.7632L65.1651 44.4055L64.2682 44.0965L63.2556 43.7874L62.3187 43.5734L61.5807 43.3832L60.8015 43.0742L60.1002 42.764L59.4745 42.3361L58.932 41.8368L58.5408 41.29L58.2663 40.552L58.1928 39.6237L58.2663 38.6252L58.6575 37.7445L59.2043 37.0312L59.8657 36.5071L60.6859 36.0316L61.5807 35.7691L62.5143 35.5789L63.4501 35.5313L64.4638 35.5789L65.4007 35.7691L66.2188 36.0781L66.9946 36.5071L67.5793 37.1253L68.0861 37.8396L68.3973 38.7678L68.5162 39.8625H66.102L65.9443 38.9818L65.6331 38.2437L65.0106 37.7445L64.3082 37.3878L63.3723 37.2679L62.7099 37.3165L62.0496 37.5056L61.4639 37.7445L60.9582 38.1248L60.6459 38.6954L60.5303 39.3622L60.6459 39.9803L60.8415 40.432L61.2316 40.8135L61.7752 41.1701L62.7888 41.5516L63.7225 41.7893L64.6983 42.0508L65.4763 42.2886L66.2188 42.5749L66.9147 42.884L67.5404 43.2881L68.0861 43.7874L68.4773 44.3828L68.7485 45.1436L68.8674 46.0719L68.7485 47.0715L68.4773 47.9284L67.9705 48.6654L67.4237 49.2133L66.7234 49.759L65.9075 50.0692L65.0106 50.3782L64.1526 50.4733L63.2157 50.5209Z" fill="white"/>
<path fill-rule="evenodd" clip-rule="evenodd" d="M77.2411 50.5209L75.8795 50.4031L74.6291 50.0454L73.5766 49.5461L72.6397 48.9031L71.8973 48.0462L71.2738 47.0239L70.8415 45.8341L70.6092 44.5968L70.5303 43.1693L70.6092 41.7644L70.8415 40.4093L71.2738 39.2195L71.8973 38.1248L72.6397 37.1966L73.5766 36.4596L74.6691 35.8879L75.9583 35.5313L77.3588 35.4124L78.5259 35.4827L79.5482 35.7215L80.4754 36.103L81.2611 36.6498L81.9764 37.3403L82.5232 38.2437L82.8809 39.2898L83.0689 40.4569H80.6429L80.4754 39.481L80.215 38.6954L79.7384 38.0773L79.0717 37.6256L78.3098 37.3403L77.3588 37.2441L76.3495 37.3403L75.4894 37.6256L74.7869 38.0773L74.1991 38.6954L73.7322 39.4335L73.421 40.2904L73.1865 41.1474L73.1076 42.121L73.0298 43.0493L73.1076 43.9787L73.1865 44.8594L73.4588 45.7628L73.8111 46.5711L74.239 47.3092L74.7869 47.856L75.4894 48.3801L76.3495 48.6654L77.2411 48.7843L78.1942 48.6654L79.0025 48.3088L79.7384 47.856L80.215 47.1903L80.5727 46.3334L80.7153 45.3586H83.1435L82.9036 46.5711L82.5232 47.6658L81.9764 48.5465L81.2611 49.2133L80.4527 49.7839L79.4758 50.1643L78.4071 50.4733L77.2411 50.5209Z" fill="white"/>
<path fill-rule="evenodd" clip-rule="evenodd" d="M94.9424 50.1643V41.3851L94.8494 40.6233L94.7522 39.8852L94.5382 39.2422L94.2789 38.6727L93.851 38.1724L93.2793 37.8158L92.5639 37.578L91.7318 37.5532L90.7095 37.6483L89.9704 37.9347L89.2345 38.4339L88.7806 39.052L88.3764 39.8852L88.116 40.7184L87.9723 41.6218L87.8772 42.5976V50.1643H85.5225V29.5835H87.8772V38.0524L88.6131 37.149L89.3523 36.4596L90.2557 35.983L91.2552 35.7215L92.3726 35.6026L93.611 35.7215L94.6593 35.983L95.5141 36.4596L96.2046 37.0777L96.7265 37.8871L97.0378 38.8154L97.2528 39.9803L97.2982 41.2425V50.1643H94.9424Z" fill="white"/>
<path fill-rule="evenodd" clip-rule="evenodd" d="M106.39 37.3165L105.391 37.4354L104.533 37.8633L103.842 38.3626L103.32 39.0769L102.845 39.9328L102.584 40.8362L102.417 41.8368H110.03L109.936 40.861L109.745 39.9328L109.41 39.0769L108.864 38.3864L108.197 37.8623L107.389 37.4343L106.39 37.3165ZM102.392 43.5259V43.8112L102.414 44.7632L102.652 45.6439L102.963 46.4998L103.391 47.3081L104.009 47.9273L104.7 48.4266L105.508 48.7108L106.459 48.8307L107.388 48.7108L108.196 48.4266L108.863 47.9738L109.409 47.3081L109.791 46.4998L110.029 45.5715H112.291L111.957 46.9277L111.408 48.0462L110.671 48.9269L109.791 49.6401L108.745 50.1394L107.579 50.402L106.268 50.5198L104.937 50.402L103.773 50.0681L102.774 49.544L101.891 48.901L101.18 48.0451L100.655 47.0466L100.274 45.8795L99.9906 44.6184L99.916 43.2633L99.9906 41.906L100.274 40.5984L100.655 39.3838L101.18 38.3604L101.917 37.4332L102.822 36.6476L103.89 36.076L105.08 35.7669L106.46 35.648L107.793 35.7669L108.864 36.0295L109.791 36.5287L110.553 37.242L111.148 38.0027L111.647 38.9786L112.029 39.9771L112.218 41.0966L112.338 42.2864L112.407 43.5237H102.392V43.5259Z" fill="white"/>
<path fill-rule="evenodd" clip-rule="evenodd" d="M128.326 40.5271H124.113V48.0689H128.277L129.089 48.0224L129.874 47.9036L130.587 47.7123L131.278 47.5221L131.824 47.1655L132.326 46.6662L132.73 46.0481L132.922 45.31L133.037 44.3342L132.922 43.3346L132.659 42.4787L132.206 41.7644L131.683 41.2652L130.97 40.9313L130.162 40.7173L129.255 40.6222L128.326 40.5271ZM128.326 31.6767H124.113V38.5517H127.921L128.755 38.5052L129.609 38.3853L130.3 38.1713L130.967 37.7661L131.44 37.3154L131.894 36.6962L132.109 35.8631L132.203 34.9823L132.109 34.0789L131.82 33.2706L131.347 32.7238L130.73 32.2721L130.036 31.9144L129.204 31.748L128.326 31.6767ZM128.276 50.1643H121.568V29.5835H128.588L129.633 29.6548L130.609 29.8201L131.631 30.1292L132.488 30.5107L133.275 31.0575L133.964 31.748L134.49 32.6039L134.796 33.5797L134.916 34.7457L134.796 35.9592L134.49 36.9578L133.941 37.8147L133.155 38.5052L132.252 39.0283L131.157 39.4097L132.252 39.6712L133.274 40.0754L134.131 40.6471L134.795 41.3603L135.297 42.1697L135.604 43.2406L135.724 44.4542L135.604 45.738L135.297 46.8337L134.795 47.7123L134.131 48.4504L133.392 49.0447L132.441 49.4975L131.441 49.8076L130.42 49.9968L129.374 50.1167L128.276 50.1643Z" fill="white"/>
<path fill-rule="evenodd" clip-rule="evenodd" d="M145.601 42.9315H144.886L144.195 43.0018L143.412 43.0493L142.65 43.2406L141.935 43.4783L141.27 43.7398L140.745 44.1213L140.317 44.6443L140.031 45.3349L139.913 46.0956L140.031 46.9288L140.34 47.5718L140.865 48.1662L141.507 48.4752L142.222 48.7854L142.982 48.8081L143.957 48.7854L144.743 48.4752L145.312 48.1662L145.837 47.6669L146.17 47.025L146.478 46.3345L146.645 45.5726L146.763 44.7394L146.812 43.9063V43.0029H146.384L145.977 42.9326L145.601 42.9315ZM147.312 50.1643L147.074 48.1651L146.289 49.0458L145.48 49.7363L144.553 50.1643L143.529 50.4733L142.365 50.5209L141.438 50.4733L140.509 50.2583L139.701 49.9492L138.985 49.5213L138.416 48.9021L137.894 48.164L137.632 47.2368L137.513 46.2134L137.632 45.1425L137.941 44.2391L138.416 43.501L139.034 42.8829L139.796 42.3836L140.628 42.026L141.555 41.7644L142.53 41.5742L143.53 41.4565L144.506 41.4089H145.435L146.148 41.4565H146.814V40.6471L146.765 39.7188L146.575 38.9807L146.289 38.3615L145.907 37.8622L145.312 37.4581L144.623 37.2441L143.718 37.1966L142.981 37.2441L142.244 37.3868L141.79 37.7434L141.314 38.2426L141.054 38.8618L140.888 39.7177H138.484L138.675 38.6706L139.031 37.7423L139.53 37.0042L140.197 36.4574L140.957 36.0295L141.814 35.7669L142.767 35.6005L143.694 35.5291L144.93 35.6005L146.027 35.8382L146.906 36.1473L147.645 36.7189L148.193 37.3846L148.666 38.3129L148.857 39.36L148.978 40.6924V45.9984L149.047 47.3535L149.143 48.5433L149.238 49.5191L149.405 50.161H147.312V50.1643Z" fill="white"/>
<path fill-rule="evenodd" clip-rule="evenodd" d="M161.778 50.1643V41.4078L161.731 40.6471L161.637 39.9101L161.4 39.2898L161.113 38.7203L160.756 38.1962L160.21 37.8623L159.474 37.6256L158.614 37.578L157.689 37.6958L156.904 37.9822L156.235 38.4339L155.784 38.9818L155.379 39.6712L155.119 40.4569L154.88 41.2652L154.832 42.1459L154.761 43.0018V50.1643H152.382V38.6003L152.31 37.5056V36.6271L152.261 35.8404H154.689L154.715 38.1248L155.426 37.2441L156.235 36.5774L157.14 36.0316L158.117 35.7691L159.283 35.6502L160.543 35.7691L161.589 36.0316L162.448 36.5071L163.113 37.1253L163.661 37.9347L164.016 38.8629L164.207 40.0279L164.279 41.2652V50.1643H161.778Z" fill="white"/>
<path fill-rule="evenodd" clip-rule="evenodd" d="M176.865 50.1643L170.105 42.0984L176.342 35.7939H179.431L172.965 41.9806L179.981 50.1653L176.865 50.1643ZM167.611 50.1643V29.5835H169.99V50.1643H167.611Z" fill="white"/>
</svg>
