<svg width="107" height="40" viewBox="0 0 107 40" fill="none" xmlns="http://www.w3.org/2000/svg">
<path d="M0 0V39.8984H15.4873C24.2937 39.8984 34.8208 32.1628 34.8208 19.949C34.8208 6.61566 24.2937 0 15.4873 0H0ZM39.1736 0V40H50.2067V22.7991H50.3081L60.1265 40H72.8808L60.1265 18.3207L71.7675 0H59.0132L50.3081 14.9618H50.2067V0H39.1736ZM75.9174 0V39.8984H93.429C100.11 39.8984 106.183 35.725 106.183 27.6843C106.183 22.3917 102.236 18.9315 99.7051 18.0154V17.9135C102.742 16.9974 104.057 13.7404 104.057 9.9745C104.057 4.37653 99.0976 0 91.9107 0H75.9174ZM86.9508 9.05836H90.2914C92.1134 9.05836 93.733 10.3815 93.733 12.5189C93.733 14.7581 92.2146 15.9795 90.2914 15.9795H86.9508V9.05836ZM11.0335 9.9745C17.2081 9.9745 23.7874 11.6029 23.7874 19.949C23.7874 28.2951 17.1069 29.9239 11.0335 29.9239V9.9745ZM86.9508 22.4938H90.7975C93.0244 22.4938 94.7452 24.2241 94.7452 26.4633C94.7452 28.7025 93.5305 30.4327 91.3036 30.4327V30.5344H86.9508V22.4938Z" fill="white"/>
</svg>
