<svg width="300" height="75" viewBox="0 0 300 75" fill="none" xmlns="http://www.w3.org/2000/svg">
<path d="M131.3 54.58H134.13V74.28H131.3V54.58ZM79.0498 74.28H84.8698C91.3698 74.28 95.3698 70.87 95.3698 64.26C95.3698 58.19 90.7098 54.58 84.8698 54.58H79.0498V74.28ZM81.8698 57.06H85.1698C89.2298 57.06 92.3598 59.78 92.3598 64.38C92.3598 69.46 89.6798 71.8 84.8298 71.8H81.8598V57.06H81.8698ZM101.95 53.68H98.9598V56.67H101.95V53.68ZM99.1198 74.28H101.77V59.89H99.1198V74.28ZM117.76 71.04C117.11 71.58 115.08 72.48 113.32 72.48C110.82 72.48 108.58 70.54 108.58 67.68H118.86C118.86 63.05 117.3 59.55 112.5 59.55C108.43 59.55 105.75 62.57 105.75 66.83C105.75 71.52 108.1 74.62 113.21 74.62C115.58 74.62 116.74 74.05 117.76 73.68V71.04ZM108.58 65.71C108.78 63.85 109.85 61.7 112.44 61.7C114.73 61.7 116.03 63.51 116.03 65.71H108.58ZM139.35 59.89H141.92V62.18H141.98C142.77 60.54 144.69 59.55 146.69 59.55C150.42 59.55 152.09 61.87 152.09 65.73V74.28H149.44V66.83C149.44 63.47 148.71 61.83 146.39 61.69C143.37 61.69 142.01 64.12 142.01 67.62V74.28H139.36V59.89H139.35ZM159.52 53.68H156.53V56.67H159.52V53.68ZM156.69 74.28H159.34V59.89H156.69V74.28ZM172.74 62.03H168.93V69.91C168.93 71.58 169.94 72.48 171.16 72.48C171.98 72.48 172.57 72.22 172.96 71.97V74.24C172.37 74.41 171.55 74.64 170.7 74.64C167.96 74.64 166.27 73.34 166.27 70.46V62.04H163.02V59.9H166.27V56.56L168.92 55.72V59.9H172.73V62.03H172.74ZM179.48 53.68H176.49V56.67H179.48V53.68ZM176.66 74.28H179.31V59.89H176.66V74.28ZM185.11 63.17C186.18 62.26 187.8 61.7 189.3 61.7C191.94 61.7 192.85 62.98 192.85 65.46C191.8 65.4 191.07 65.4 190.02 65.4C187.28 65.4 183.33 66.53 183.33 70.15C183.33 73.29 185.5 74.64 188.61 74.64C191.04 74.64 192.45 73.31 193.08 72.44H193.13V74.29H195.62C195.56 73.88 195.51 73.11 195.51 71.47V65.51C195.51 61.59 193.84 59.55 189.72 59.55C187.88 59.55 186.3 60.11 184.97 60.9L185.11 63.17ZM192.84 68.7C192.84 70.85 191.46 72.48 188.83 72.48C187.62 72.48 186.15 71.66 186.15 70.14C186.15 67.59 189.71 67.37 191.14 67.37C191.71 67.37 192.27 67.43 192.84 67.43V68.7ZM208.1 62.03H204.29V69.91C204.29 71.58 205.31 72.48 206.52 72.48C207.34 72.48 207.93 72.22 208.32 71.97V74.24C207.73 74.41 206.91 74.64 206.06 74.64C203.32 74.64 201.63 73.34 201.63 70.46V62.04H198.39V59.9H201.63V56.56L204.28 55.72V59.9H208.09V62.03H208.1ZM214.73 53.68H211.74V56.67H214.73V53.68ZM211.9 74.28H214.56V59.89H211.9V74.28ZM226.31 74.29H223.15L217.98 59.9H220.89L224.79 71.64H224.84L228.83 59.9H231.48L226.31 74.29ZM234.67 74.29H237.22V72.26H237.28C237.99 73.33 239.62 74.63 242.2 74.63C246.54 74.63 248.38 70.78 248.38 66.84C248.38 62.97 246.34 59.56 242.17 59.56C239.66 59.56 238.22 60.54 237.4 61.88H237.34V53.12H234.68V74.29H234.67ZM241.59 61.7C244.47 61.7 245.6 64.44 245.54 67.04C245.6 69.3 244.41 72.49 241.56 72.49C238.57 72.49 237.33 69.52 237.33 67.13C237.33 64.43 238.71 61.7 241.59 61.7ZM253.2 63.17C254.27 62.26 255.89 61.7 257.38 61.7C260.04 61.7 260.94 62.98 260.94 65.46C259.89 65.4 259.16 65.4 258.11 65.4C255.37 65.4 251.42 66.53 251.42 70.15C251.42 73.29 253.59 74.64 256.7 74.64C259.13 74.64 260.54 73.31 261.16 72.44H261.22V74.29H263.71C263.65 73.88 263.59 73.11 263.59 71.47V65.51C263.59 61.59 261.93 59.55 257.81 59.55C255.97 59.55 254.39 60.11 253.06 60.9L253.2 63.17ZM260.93 68.7C260.93 70.85 259.55 72.48 256.92 72.48C255.71 72.48 254.24 71.66 254.24 70.14C254.24 67.59 257.8 67.37 259.23 67.37C259.8 67.37 260.37 67.43 260.93 67.43V68.7ZM268.28 59.89H270.85V62.18H270.9C271.7 60.54 273.61 59.55 275.62 59.55C279.34 59.55 281.02 61.87 281.02 65.73V74.28H278.36V66.83C278.36 63.47 277.63 61.83 275.31 61.69C272.29 61.69 270.93 64.12 270.93 67.62V74.28H268.28V59.89ZM285.85 53.11H288.5V65.73L294.28 59.89H297.91L291.21 66.28L298.75 74.29H294.94L288.51 66.9V74.29H285.86V53.11H285.85Z" fill="white"/>
<path d="M86.3904 6.81V33.1H90.7004C97.1704 33.1 103.4 28.32 103.4 19.96C103.4 11.6 97.1704 6.81 90.7004 6.81H86.3904ZM78.6504 39.15V0.760002H89.2004C101.04 0.760002 111.48 4.72 111.48 19.96C111.48 35.2 101.04 39.16 89.2004 39.16H78.6504V39.15ZM113.58 39.15V32.88L131.71 6.8H114.3V0.760002H139.95V7.03L121.65 33.1H140.33V39.16H113.58V39.15ZM155.52 39.15V0.760002H169.01C173.99 0.760002 181.44 2.19 181.44 10.61C181.44 15.18 178.34 18.36 173.76 19.19C179.01 19.8 182.6 23.32 182.6 28.05C182.6 37.73 173.87 39.16 169.01 39.16H155.52V39.15ZM163.26 6.81V16.27H166.41C169.68 16.27 173.71 15.56 173.71 11.6C173.71 7.15 169.79 6.81 166.25 6.81H163.26ZM163.26 21.99V33.1H166.91C170.5 33.1 174.87 32.22 174.87 27.76C174.87 22.76 170.78 21.99 166.91 21.99H163.26ZM184.21 39.16L199.24 0.760002H207.97L223.12 39.16H214.54L211.23 30.35H195.58L192.21 39.16H184.21ZM209.08 24.3L203.49 8.46L197.8 24.3H209.08ZM267.16 39.15V0.760002H275V17.26L288.83 0.760002H298.33L282.47 18.86L299 39.15H288.88L275 21.32V39.15H267.16ZM226.87 39.16V0.760002H236.38L251.19 29.47V0.760002H258.61V39.16H249.16L234.29 10.44V39.16H226.87Z" fill="white"/>
<path d="M59.4 0.370003H1V31.24H59.4V0.370003Z" fill="#0066B3"/>
<path d="M59.4 31.24H1V39.61H59.4V31.24Z" fill="#F37021"/>
<path d="M59.4 29.78H37.7C38.74 24.38 39.84 18.62 40.1 17.45C40.44 15.84 42.36 16.03 42.09 17.67C41.9 18.81 41.66 20.4 41.64 20.63C41.38 22.75 46.44 23.02 47.03 20.75C48.53 14.8 49.76 9.3 49.76 9.3H43.7C35.28 9.3 34.72 10.71 33.22 16.67L30.25 29.8H30.05L25.34 9.3H10.8L12.51 16.44L19.18 16.46L22.2 29.79H1V32.7H22.85L24.41 39.61H35.83L37.14 32.7H59.4V29.78Z" fill="white"/>
</svg>
