<svg width="161" height="40" viewBox="0 0 161 40" fill="none" xmlns="http://www.w3.org/2000/svg">
<path d="M89.6406 29.0673V36.715C85.33 38.8912 81.2687 39.9585 77.2488 39.9585C65.9996 39.9585 59.248 33.3679 59.248 25.057C59.248 16.0414 66.9552 8.61139 76.8022 8.61139C79.2432 8.61139 81.0817 9.04662 83.0033 9.67875C84.364 10.114 85.2157 10.601 86.0987 10.601C86.8777 10.601 87.0647 9.34714 87.1685 8.61139H88.2384L89.194 18.943H87.906C87.3866 16.8912 86.3999 15.2332 85.1015 14.0518C83.076 11.9896 80.313 10.9223 77.1034 10.9223C70.3518 10.9223 66.4047 16.2591 66.4047 24.2798C66.4047 32.1969 71.1932 37.5648 77.6124 37.5648C79.4925 37.5648 81.2271 37.1192 83.3668 36.1658V28.2901C83.3668 25.7513 82.9617 24.7979 79.3159 24.7979V23.6166H92.8918V24.7979C89.5264 24.7979 89.6406 25.9067 89.6406 29.0673ZM52.2679 16.4456V39.4093H50.5021L27.4843 15.7098C27.5985 16.373 27.5985 16.8912 27.5985 17.5544V31.9689C27.5985 36.3834 27.5985 38.0104 31.6495 38.0104V39.1813H20.8469V38.0104C24.9394 38.0104 24.9394 36.0518 24.9394 31.9689V15.5233C24.9394 13.0984 24.9394 10.4145 20.6184 10.4145V9.2746H30.7977L49.723 28.6632C49.6192 28.114 49.6192 27.8135 49.6192 27.0466V16.4456C49.6192 12.1762 49.723 10.373 45.6721 10.373V9.23315H56.4746V10.373C52.4964 10.373 52.2679 12.1036 52.2679 16.4456ZM0 39.1813V38.0104C2.58639 38.0104 4.4249 37.7824 4.4249 34.0311V14.3523C4.4249 10.487 3.02265 10.373 0 10.373V9.23315H15.1963V10.373C12.101 10.373 10.7714 10.487 10.7714 14.3523V34.0311C10.7714 37.7824 12.3918 38.0104 15.1963 38.0104V39.1813H0Z" fill="white"/>
<path d="M136.196 36.0518C135.978 36.0518 135.863 36.6114 135.863 36.829C135.863 37.7824 136.31 38.5596 136.601 39.1814H137.556C137.453 38.342 137.234 37.5648 137.234 36.6114C137.234 36.0518 137.556 35.4301 137.671 35.0984L136.601 35.2124C137.047 35.4301 137.047 35.9793 137.047 36.0518C137.047 36.3834 136.819 36.715 136.601 36.9016C136.414 36.715 136.414 36.3834 136.196 36.0518Z" fill="white"/>
<path d="M117.416 36.6114C117.084 37.6788 118.081 38.342 118.195 39.1813H119.483C118.933 38.228 118.818 36.715 118.818 36.3834C118.818 35.8342 118.818 35.0984 119.151 34.5803L117.977 34.8083C117.645 35.2124 117.53 35.43 117.53 35.6477L118.081 35.43C118.195 35.43 118.309 35.6477 118.413 35.8756C118.268 36.3834 117.645 36.3834 117.416 36.6114Z" fill="white"/>
<path fill-rule="evenodd" clip-rule="evenodd" d="M149.959 38.4456H148.66C147.923 38.8912 147.269 39.1088 146.531 39.1088H139.925C139.925 38.487 140.143 38.2591 140.143 37.8238C140.143 37.5233 140.662 36.8705 140.995 36.8705L141.66 38.1554C141.992 37.8238 142.096 37.6373 142.096 37.0881C142.096 36.6839 141.358 36.0207 141.358 36.0207L142.023 35.399C142.324 35.6166 142.324 35.9482 142.542 35.9482C143.062 35.9482 143.353 35.8342 143.353 35.6166C143.353 35.399 142.833 35.171 142.657 34.7668C142.324 34.5492 142.023 34.3316 141.587 34.3316C140.808 34.3316 139.52 36.2383 139.406 37.3057L139.291 39.1503H138.118C138.221 38.3005 138.003 37.5648 138.221 36.6839C138.221 36.5699 138.668 36.9016 138.886 37.0155C138.886 36.715 139.447 36.3834 139.219 36.0518C139 35.8756 138.554 35.4301 138.554 35.4301C138.668 35.2124 138.886 34.5803 138.886 34.5803C138.886 34.5803 140.07 34.9845 139.852 34.8083C139.852 34.5803 139.52 34.4767 139.738 34.2487C140.07 34.1451 140.475 34.5803 140.694 34.3627C140.808 34.1451 140.808 34.1451 140.694 33.9275C140.475 33.8135 139.925 33.6995 139.187 33.6995C138.221 33.6995 138.45 33.8135 138.221 34.1451C137.048 34.2487 136.497 34.4767 135.864 34.4767L134.679 36.0518C134.679 36.715 134.679 37.5648 134.908 38.228C135.012 38.4456 135.24 38.7461 135.458 39.1813H122.952C123.171 38.7772 123.399 38.342 123.731 37.8964C123.731 38.228 123.95 38.228 124.064 38.342H124.905C125.206 38.342 125.539 38.342 125.757 37.8964C125.206 37.7098 124.687 37.6062 124.24 37.1606V35.9793C124.24 35.0984 123.503 34.8083 122.952 34.8083C122.506 34.8083 121.924 35.0984 121.737 35.4301C121.332 35.2124 121 34.8083 120.553 34.8083V34.2487C120.553 33.9275 120.667 33.9275 120.667 33.6995C121.405 33.3679 122.142 33.6995 122.734 33.9275H123.285C123.285 33.8135 123.171 33.8135 123.171 33.6995C122.547 32.8601 121.436 32.6321 120.262 32.8601C119.712 33.0777 119.712 33.8446 119.379 33.4093C118.818 33.4093 118.527 33.7409 118.081 33.7409L117.312 33.8446C117.198 33.9586 117.312 33.9585 117.198 34.2902C116.793 34.8394 116.46 35.4715 116.128 36.0933C116.128 36.7565 115.91 37.6062 116.242 38.2591C116.46 38.487 116.679 38.8912 116.793 39.2228H100.599C100.049 38.3731 99.9346 37.7098 99.9346 36.7565C99.9346 36.0207 100.381 35.4715 100.599 35.2435C100.599 34.5803 100.599 34.1762 101.482 33.4093C101.887 32.9637 102.739 32.8601 103.404 33.1917C103.84 32.5596 104.505 32.342 105.097 32.228C105.762 32.228 106.499 32.3005 107.05 32.8601C107.683 30.2798 108.681 27.5959 109.522 26.1969C108.639 24.1036 108.016 22.1451 107.569 19.9378C107.569 19.8342 107.683 19.6062 107.683 19.6062L108.016 19.2746C108.234 18.8705 108.348 18.4352 108.681 18.1036C108.234 18.1036 108.016 18.3212 108.016 18.3212C107.683 18.4352 107.455 18.6529 107.455 18.8705C107.351 18.6529 107.351 18.6528 107.351 18.4352C107.351 17.9896 107.237 17.5855 107.237 17.1503C107.237 16.8497 107.538 16.3005 107.974 16.3005V14.9326C107.683 15.1606 107.019 15.7513 107.019 15.7513V14.0933C107.237 13.9793 107.455 13.8756 107.569 13.4301C107.569 11.2539 107.683 9.34715 108.234 7.64767C108.452 7.02591 108.857 6.6943 109.189 6.36269V4.78756C109.595 4.67358 109.823 4.12435 110.259 4.01036C110.155 3.89637 109.823 3.89637 109.595 3.89637C109.927 2.94301 110.446 2.42487 111.225 1.76166C111.402 1.54404 111.703 1.21244 111.994 1.10881C112.108 1.10881 112.108 1.21244 112.108 1.21244C112.887 1.21244 113.438 1.54404 114.175 1.54404C113.988 1.21244 113.542 0.880829 113.22 0.880829V0.777202C113.77 0.445596 114.175 0.217617 114.84 0.217617C114.913 0.735751 115.463 1.06736 115.578 1.51295L116.014 1.73057C115.91 1.18135 116.242 0.445596 115.578 0C115.983 0 117.084 0.404145 117.935 0.849741C118.154 0.849741 118.673 0.518135 119.12 0.404145C119.005 1.06736 118.673 1.68912 118.673 2.35233C119.005 2.06218 119.12 1.73057 119.452 1.51295C119.452 1.06736 119.784 0.777202 119.888 0.217617C120.626 0.11399 121.187 0.11399 121.81 0.217617C121.187 0.404145 121.29 0.849741 121.29 1.18135H121.405C121.81 1.18135 122.215 0.849741 122.506 0.735751C123.139 0.735751 123.357 0.849741 123.69 1.18135C123.399 1.39896 122.952 1.51295 122.734 1.73057H124.469L124.801 1.51295C126.204 2.39378 126.64 3.96891 127.273 5.44041C127.086 5.33679 126.754 5.15026 126.64 5.15026C126.64 5.44041 126.64 6 127.086 6.10363C127.45 6.10363 127.564 6.43523 127.897 6.66321C128.561 7.28497 129.517 7.8342 129.746 8.79793C130.701 10.6736 130.483 11.2228 131.034 12.5078C130.701 12.1762 130.182 12.4041 129.849 11.8446C129.849 12.4041 130.182 12.8083 130.514 13.1399C130.815 13.3575 131.148 13.3575 131.366 13.3575C131.916 13.9793 131.916 14.8601 132.031 15.5648C131.916 15.4508 131.698 15.2642 131.366 15.1606C130.815 15.6373 131.916 16.3005 132.218 16.4145V18.0311C133.537 19.0984 135.053 19.5337 136.237 19.5337C137.339 19.5337 138.741 19.2435 139.593 18.5803C139.478 18.0311 139.811 17.1813 140.361 16.7358C140.808 16.1865 141.431 16.1865 142.096 16.1865C143.425 16.1865 144.713 17.1813 145.897 18.3627C148.411 20.9016 150.219 25.8653 150.219 30.4249C150.219 32.3731 150.032 33.6684 149.699 34.7668C150.032 35.0674 150.842 35.399 151.392 35.399C154.238 35.399 158.777 32.2694 158.777 24.3523C158.777 18.7979 155.308 13.285 150.437 10.8912C149.076 10.5596 147.892 11.2228 146.49 11.0052C145.534 10.6736 144.568 10.0829 143.903 9.3057L144.017 9.23316C144.236 9.63731 144.869 9.41969 145.42 9.63731C145.534 9.41969 145.202 9.23316 145.202 9.12953C145.752 8.79793 146.375 8.79793 147.04 8.79793C146.49 7.94819 145.752 8.49741 145.202 8.1658C144.98 7.94473 144.758 7.94473 144.537 8.1658C144.537 8.1658 144.755 8.56995 144.755 8.79793C144.537 8.79793 144.204 8.56995 143.976 8.56995H143.353C142.761 7.94819 142.542 6.66321 141.473 6.33161V6.10363C143.135 5.77202 144.713 4.8601 146.448 5.15026C146.677 5.15026 147.009 5.15026 147.113 5.33679L146.677 5.77202C147.113 6.10363 147.632 6.43523 148.183 6.43523H148.297C148.183 6.14508 148.079 5.81347 147.965 5.48187C148.588 5.81347 148.92 6.10363 149.481 6.66321C149.917 7.50259 150.395 8.1658 151.06 8.79793C152.358 10.2694 153.979 11.0052 155.495 12.5078C158.954 15.9275 160.917 20.6736 160.917 25.3472C160.917 29.285 159.401 33.3679 156.814 35.8342C154.903 37.7824 152.836 38.5181 149.959 38.4456ZM145.087 6.95337H146.271C145.939 6.54922 145.534 6.43523 145.087 6.10363C144.537 6.33161 144.204 6.66321 143.571 6.66321C143.976 6.99482 144.09 6.99482 144.308 6.99482C144.537 6.99482 144.869 6.66321 145.087 6.99482V6.95337ZM149.554 9.26425L149.439 8.60104C149.325 8.1658 148.889 7.86528 148.66 7.31606C148.151 7.31606 147.705 7.64767 147.372 7.64767C147.819 7.64767 148.224 8.1658 148.557 8.60104C148.847 8.60104 149.294 8.78757 149.554 9.26425ZM129.039 21.5544C129.039 21.5544 128.52 22.1036 128.084 22.1036C128.593 22.5492 129.153 22.8808 130.327 22.8808L130.888 22.6632C130.369 22.5492 129.59 22.1036 129.039 21.5544ZM124.542 20.5285C124.76 19.5648 123.804 19.5648 123.357 19.2332C123.576 19.5337 123.576 20.1969 123.804 20.7876C124.355 21.0052 124.76 21.5544 125.31 21.4404C124.978 21.0363 124.542 20.8187 124.542 20.5285ZM124.978 24.3938C124.323 24.3938 123.576 24.4974 123.025 24.715C123.991 25.3472 124.978 26.0829 126.162 25.6788H126.494C126.162 25.4508 125.643 25.1295 125.31 25.0155L124.978 24.3938ZM126.713 24.1347C127.159 24.4663 127.855 24.4663 128.302 24.4663C127.523 24.0207 127.159 23.285 126.713 22.8497C126.494 22.9534 125.975 22.9534 125.539 23.285C125.871 23.6166 126.048 23.8446 126.713 24.1347ZM124.355 30.0207C124.905 29.9067 125.206 29.6891 125.539 29.3575C126.204 29.2539 126.713 30.0207 127.273 29.5751C127.377 29.3575 127.564 29.6891 127.679 29.6891C128.011 30.2383 128.416 30.2383 128.967 30.2383C128.634 29.6891 128.416 29.0674 127.679 28.7358C127.492 28.7358 127.19 28.7358 126.868 28.6218C126.204 27.886 125.684 29.285 125.019 29.0674C124.573 29.285 124.355 29.5751 124.355 29.9067V30.0207ZM128.967 17.9585C128.634 17.7409 128.343 17.9585 127.897 18.0725C127.897 18.2902 128.011 18.3938 128.115 18.6218H129.081C129.153 18.6218 129.59 19.057 129.704 18.6218C129.372 18.6218 129.153 18.2902 128.967 17.9585ZM127.679 15.3057C128.011 15.8964 128.302 16.228 128.967 16.228C128.967 15.8964 128.748 15.6062 128.634 15.3057C128.52 15.2021 128.52 14.6425 128.084 14.8705C127.855 14.6839 127.855 14.4663 127.637 14.0207C127.564 14.5699 127.637 15.0155 127.679 15.3057ZM126.162 19.8756C126.494 20.5285 127.232 20.1969 127.855 20.1969L126.827 19.2435C126.609 19.4611 126.38 19.7927 126.162 19.8756ZM126.204 10.0829L125.643 12.4041L126.494 12.1762C126.494 12.1762 126.713 11.2228 126.713 11.1088C126.713 10.8912 126.38 10.487 126.204 10.0829ZM110.519 4.78756C110.633 5.40933 110.851 5.70984 111.07 6.25907C111.298 6.6943 111.89 7.21244 112.513 7.54404C112.067 8.09326 112.295 9.67876 112.513 10.3005L112.067 10.5285C112.067 11.1917 112.7 12.1451 113.365 12.8083C113.583 12.8083 113.583 13.1399 113.697 13.3575V13.8031C112.295 13.5751 110.851 14.0933 109.678 14.7565C109.678 14.7565 109.782 15.2021 109.782 15.4922C110.446 14.9741 111.371 14.5699 112.295 14.4663C112.731 14.4663 113.137 14.2383 113.583 14.4663V15.2021C112.628 15.7098 111.402 16.1554 110.446 17.0052V17.7409C110.446 17.7409 112.628 16.0415 113.916 15.6062C114.134 15.8964 114.362 16.228 114.695 16.4456C115.65 16.0104 116.533 15.4922 117.821 15.4922L117.935 14.4663C117.312 14.1347 117.084 13.8342 117.198 13.171C116.98 13.171 116.751 13.399 116.533 13.399C116.533 13.399 116.201 13.171 116.201 13.0674C116.201 12.8394 116.087 12.5078 116.315 12.5078C116.751 12.1762 117.271 12.1762 118.05 12.1762C118.714 12.1762 120.117 12.1762 120.117 12.8394C120.117 13.171 120.117 13.399 119.784 13.399H119.338C119.151 13.9067 118.818 14.2383 118.268 14.4663C118.268 14.4663 118.486 15.6062 118.818 15.6062C119.712 15.7098 120.553 16.228 121.332 16.7772C121.436 16.3731 121.851 16.1554 121.955 15.9378C123.285 16.228 124.5 17.3368 125.57 18.3938V17.4093C124.5 16.4456 123.326 15.8964 122.069 15.3057C122.173 15.2021 122.173 14.9016 122.173 14.5699C123.763 14.6839 125.165 15.2332 126.453 15.9378V15.2332C124.947 14.4974 123.617 14.0622 122.069 14.0622V13.8342C122.765 13.7306 123.285 12.8808 123.503 12.2176C123.95 11.772 124.282 11.2642 124.282 10.7047V10.4145C124.282 10.3005 124.396 10.1244 124.282 10.0104C124.282 10.342 123.95 10.342 123.731 10.4145C124.064 9.67876 124.282 8.6114 123.95 7.87565C124.282 7.87565 124.282 7.65803 124.5 7.65803L125.165 6.99482C125.83 6.6943 125.497 5.81347 125.83 5.19171C125.539 4.67358 125.31 4.01036 124.978 3.60622C124.542 3.05699 123.804 3.27461 123.357 2.94301C122.62 2.76684 122.142 3.27461 121.737 3.60622C121.519 3.60622 121.519 3.93782 121.405 3.60622C121.29 4.12435 121.072 4.56995 120.958 4.89119C120.002 4.78756 119.12 4.89119 118.268 5.37824C118.05 5.07772 117.53 5.07772 116.866 4.89119C116.647 4.89119 116.346 4.89119 116.014 4.78756C115.723 4.23834 115.723 3.60622 115.058 3.60622C114.84 3.3886 114.84 3.27461 114.84 3.05699C114.508 2.94301 114.103 2.72539 113.656 2.72539C112.991 2.39378 112.659 2.94301 112.139 3.05699C112.036 3.27461 111.734 3.3886 111.558 3.3886C111.225 4.01036 111.038 4.23834 110.519 4.78756ZM120.958 21.3782C120.781 21.5648 120.449 21.6684 120.221 22.228C120.002 22.8497 120.958 22.9637 121.519 23.2953C121.187 22.6632 121.072 22.114 120.958 21.3782ZM113.77 19.5751C113.843 20.3109 114.175 20.9326 114.508 21.5648L114.84 20.2383L113.77 19.5751ZM112.181 19.9067V19.7927C112.108 19.5751 111.817 19.2435 111.402 19.2435C111.402 19.5751 111.516 20.0933 111.703 20.5285C111.994 21.0466 112.731 21.6684 113.396 21.8964C113.292 21.0466 112.773 20.5699 112.181 19.9067ZM111.402 23.2953C111.402 23.8446 111.111 24.3627 111.111 25.0155C111.111 25.0155 111.402 24.7979 111.516 24.6943C112.036 24.1347 112.223 23.6269 112.223 23.1813C112.036 22.9637 111.734 23.1813 111.402 23.2953ZM111.402 26.2694C111.994 26.2694 112.731 26.456 113.292 26.0518L113.729 24.4663C113.511 24.4663 113.396 24.3627 113.292 24.4663C112.887 25.1295 112.223 26.0518 111.402 26.2694ZM109.522 8.1658L110.259 7.94819V6.66321C109.927 6.95337 109.823 7.28497 109.595 7.61658L109.522 8.1658ZM109.013 11.1503L109.563 12.8808C109.563 11.9171 110.01 11.1503 109.896 10.114L110.446 9.45078L109.605 9.78238C109.304 10.3005 109.189 10.7047 109.013 11.1503ZM109.709 22.9948C109.927 22.3731 110.446 22.1451 110.997 21.5959C110.592 21.4819 110.374 21.4819 110.041 21.3782C109.969 21.4508 109.636 21.6684 109.522 22.114C109.605 22.3316 109.709 22.6632 109.709 22.9948ZM101.929 34.8083L101.046 35.9793V37.7098C101.15 38.114 101.555 38.5596 101.742 38.5596C101.742 38.5596 101.856 38.228 101.856 37.8964C101.856 37.1192 101.555 36.715 101.856 36.0518C102.189 36.0518 102.521 36.3834 102.625 36.3834C102.853 35.8342 102.625 35.2124 101.929 34.8083ZM105.429 35.2124C105.429 34.6943 104.993 34.5803 104.692 34.4767C104.692 34.1451 104.692 33.6995 105.211 33.6995H104.069C103.767 33.9171 103.549 34.4767 103.217 34.8083C102.999 35.4301 102.885 36.1658 102.885 36.943C102.885 37.3782 102.885 38.114 103.103 38.5596C103.518 38.3316 103.736 38.228 104.069 37.8964C103.622 36.6114 103.736 36.2798 104.173 35.4301C104.692 35.4301 104.993 35.9482 105.097 36.3834C105.284 36.0518 105.398 35.6166 105.429 35.2124ZM109.158 35.9067C109.158 35.2435 108.535 34.8394 108.088 34.6218L108.535 33.9586L107.974 33.8446C107.309 33.9171 106.904 33.9171 106.354 34.5803C105.731 35.3161 105.616 37.1606 105.616 38.228C105.616 38.228 105.616 38.3316 105.731 38.3316C105.834 37.6788 106.468 37.0466 106.8 36.3834C106.904 36.0518 106.904 35.8342 107.237 35.6166C107.683 35.6166 108.12 36.0518 108.12 36.0518C108.12 36.715 107.798 37.3472 107.798 37.8964C107.798 37.8964 109.189 36.715 109.158 35.9067ZM112.108 34.8083L111.994 33.9171L110.997 33.6995C110.675 33.2643 110.779 33.1503 110.779 33.0363C110.779 32.4145 110.041 32.4145 109.709 32.0829L109.044 31.7513H108.421C108.088 32.0415 108.088 32.3731 108.088 32.601C108.307 32.8187 108.307 32.487 108.753 32.601C109.304 33.0363 110.259 33.1503 111.153 33.9171L111.849 35.8342L112.108 34.8083ZM113.729 33.2642C113.511 32.8187 113.729 32.1969 113.074 32.1969C112.853 32.0864 112.742 31.8653 112.742 31.5337C112.441 31.3471 112.004 31.0881 111.516 30.5803C111.225 30.4663 111.007 30.0207 110.561 30.0207C110.342 29.6995 109.937 29.6995 109.605 29.6995C108.971 29.6995 108.971 30.2073 108.753 30.6528V30.8705C109.304 30.7668 109.605 30.5389 110.041 30.6528C110.488 31.057 111.038 31.3886 111.443 31.7202C111.443 31.7202 112.659 32.1554 112.773 32.3834C112.887 32.487 112.659 32.601 112.659 32.8187C112.991 33.1503 112.773 33.7098 112.991 33.9275L113.729 33.2642ZM114.248 29.9896C114.061 29.8756 113.625 29.772 113.396 29.658V29.3264C113.292 29.1088 112.773 28.7772 112.223 28.4456C112.036 27.886 111.153 28 110.374 27.886L109.636 28.7358V29.0674C110.083 28.7358 110.602 28.7358 111.038 28.7358C111.443 29.0674 111.745 28.7358 112.036 29.0674C112.15 29.3575 112.441 29.6891 112.773 30.0207C113.438 30.0207 113.957 30.7979 114.175 31.5337C114.175 31.5337 114.29 30.2487 114.248 29.9896ZM116.606 24.8394H115.765L114.913 25.6788C114.508 25.9793 114.175 26.0518 113.843 26.2694C114.466 26.4974 115.027 26.2694 115.359 26.2694C116.024 26.0518 116.315 25.4611 116.606 24.8394ZM116.866 23.2953C116.866 22.6632 116.647 22.228 116.647 21.6684C116.357 21.4508 116.024 21.4508 115.692 21.4508C115.692 22.114 116.242 22.6632 116.866 23.2953ZM117.645 27.2332C118.164 26.4974 118.496 26.2694 118.6 25.6788C118.195 25.6788 117.977 25.6788 117.426 25.9793C117.312 26.3109 116.866 26.829 116.647 27.1503C116.429 27.4508 116.128 27.5648 116.024 27.886C116.647 27.5648 117.312 27.4508 117.645 27.2332ZM118.829 29.6891L118.496 29.0674H116.866L117.53 29.9171C118.05 30.0207 118.382 30.0207 118.829 29.6891ZM119.12 21.5648C118.714 22.114 118.382 22.3316 118.05 22.5596L118.268 23.6269C119.047 23.2953 119.151 22.3316 119.12 21.5648ZM119.971 19.057C120.595 18.6218 120.813 17.658 120.927 17.0052C120.74 16.8912 120.522 16.8912 120.304 16.7772C118.974 16.228 116.834 15.9378 115.1 16.8912C115.1 17.4404 115.204 18.2902 115.65 18.6218L116.201 18.0725C116.315 18.0725 116.315 18.0725 116.315 18.2902V19.2435C116.606 19.4611 116.834 19.5751 117.271 19.5751C117.271 19.285 117.499 19.057 117.603 18.8394C117.603 18.6218 117.603 18.3938 117.935 18.2902L118.05 18.3938C118.05 18.5803 118.05 19.0259 118.164 19.2435V19.5751C118.569 19.7927 119.005 19.5751 119.234 19.4611C119.234 19.057 119.452 18.6218 119.452 18.3938C119.566 18.3938 119.452 18.0725 119.566 18.0725C119.784 18.3938 120.002 18.6218 119.971 19.057ZM121.519 29.5855H121.737L121.187 28.4041H120.335C120.335 28.4041 120.335 28.7358 120.449 29.0674C120.667 29.285 121.405 29.6166 121.519 29.6166V29.5855ZM122.734 26.2798C122.443 25.9482 121.851 25.2435 121.519 25.0259L119.784 24.6943C120.449 25.544 120.854 26.1658 121.519 26.6839C121.924 26.6839 122.516 26.4974 122.734 26.2798ZM123.991 22.8601C123.804 22.5596 123.139 22.342 123.025 21.8964C122.952 21.3886 122.849 20.7565 122.62 20.1347C122.329 20.829 122.028 21.6788 122.62 22.6736C122.849 23.1917 123.586 22.9637 123.991 22.8601ZM124.988 31.3161C125.206 31.4301 125.092 31.544 125.206 31.544C125.653 31.544 126.162 31.544 126.609 31.4301C127.159 31.4301 127.46 31.4301 127.865 31.544C128.084 32.0933 128.707 32.0933 129.153 32.4249L129.039 31.544C128.156 30.5803 126.796 30.6943 125.611 30.6943V30.5803C125.321 30.5803 124.988 30.5803 124.542 30.6943C124.355 30.6943 124.022 30.9119 123.586 30.9119L123.025 32.1969C123.69 31.544 124.355 31.544 124.988 31.3161ZM130.182 34.5907C130.182 34.2591 129.746 34.2591 129.517 34.1554C129.517 33.7098 129.34 33.3782 128.894 33.1606C128.042 32.8601 127.305 32.4249 126.463 32.4249L125.611 32.5285C125.165 32.6425 124.76 32.5285 124.323 32.8601L123.763 33.7098C124.323 33.3782 124.947 33.7098 125.497 33.3782C125.83 33.1606 125.83 33.7098 126.058 33.7098C126.494 33.9275 126.609 34.8187 127.232 34.5907C127.969 34.8187 127.865 35.8446 127.865 36.3938L128.53 36.0622C128.416 35.8756 128.634 35.4404 128.416 35.1088C128.198 34.5907 127.865 34.5907 127.46 34.2591C127.865 33.7098 127.273 33.7098 127.159 33.2642L127.969 33.3782C128.416 33.7098 128.53 33.8238 128.634 34.2591C129.372 34.2591 129.6 35.1813 129.818 35.8446C129.933 35.4404 130.151 34.8187 130.182 34.5907ZM126.422 35.1088C126.204 34.8187 125.871 35.1088 125.653 34.8187C125.653 34.5907 125.425 34.487 125.206 34.2591C124.988 34.1554 124.76 34.2591 124.76 34.2591L124.323 34.487C124.542 34.5907 124.947 35.1088 125.497 35.1088C126.058 35.2228 125.83 36.0622 126.162 36.3938L126.494 36.0622C126.609 35.8446 126.494 35.4404 126.422 35.1088ZM131.407 34.2591C131.407 33.7098 131.407 32.829 131.293 31.8653C131.407 31.3161 130.556 30.8083 130.223 30.2487V30.5803C130.441 31.544 131.106 32.5285 130.774 33.7098C131.002 33.7098 131.106 33.9275 131.324 34.2591H131.407ZM132.072 21.057C131.896 20.943 131.449 20.829 131.117 20.5699L130.265 20.943C130.899 21.4611 131.781 21.3886 132.072 21.057ZM135.77 21.6788C136.611 22.6321 137.162 23.5959 138.128 24.1451V23.2953C137.941 23.0052 137.723 22.8912 137.494 22.6736C136.871 22.5596 136.653 21.6788 135.77 21.6788ZM132.592 23.8446C132.592 24.0725 132.997 24.6218 132.997 24.6218C133.184 24.4041 133.402 24.2902 133.402 23.9585C133.402 23.6684 132.997 23.2228 132.706 22.8912C132.592 23.1917 132.592 23.4093 132.592 23.8446ZM134.181 29.0777C134.181 28.7461 133.402 28.7461 133.516 28.4145C133.63 28.1865 133.63 27.8549 133.63 27.7513C133.63 27.1192 133.184 26.7979 133.184 26.9016C132.997 27.2021 132.592 27.5337 132.592 27.9689C132.592 28.4145 133.184 28.7461 133.184 28.7461C133.371 29.0777 133.069 29.0777 133.069 29.2953C133.516 29.7409 133.63 30.2487 133.63 30.9119C133.734 30.2487 134.181 29.6995 134.181 29.0777ZM134.513 25.4301C134.399 25.1399 134.513 24.8083 134.399 24.6943C134.285 24.6943 134.181 24.4767 134.067 24.4767C134.067 24.4767 133.63 25.2124 133.734 25.6477C133.807 26.1658 134.368 26.6839 134.368 26.6839C134.472 26.6839 134.804 26.4974 134.804 26.2798C135.033 26.0622 134.804 25.6891 134.513 25.4301ZM136.58 30.2902C136.58 29.9585 135.947 30.1762 135.947 29.8446C136.279 29.3264 135.947 28.6736 135.947 28.4456C135.947 27.8964 135.947 27.4922 135.843 27.0466C135.656 27.4922 134.877 27.5648 134.877 28.228C134.877 28.4145 135.209 28.6321 135.209 29.0777C135.209 29.2953 135.105 29.6995 135.105 30.0311C135.105 30.2487 135.542 30.1451 135.77 30.2487C135.988 30.2487 135.988 31.3161 135.77 31.8653C135.988 31.4301 136.653 30.8083 136.58 30.2902ZM137.609 27.1606C137.494 26.829 137.162 26.715 136.84 26.4974C137.058 26.2798 137.162 26.0933 137.494 25.8031C136.871 25.3575 137.058 24.4041 136.321 24.4041C135.988 24.0725 135.874 23.9586 135.874 23.7409C135.438 23.2953 134.918 23.2953 134.368 23.2953C134.773 23.5959 135.323 23.8135 135.438 24.2591C135.874 25.2435 136.393 25.9482 136.611 26.7979C136.84 27.4508 137.058 27.9689 137.162 28.6321C137.162 29.0777 137.162 29.2953 137.494 29.2953C137.494 28.5181 137.609 27.7824 137.609 27.1606ZM139.125 27.0466C139.125 26.715 138.897 26.4249 138.793 26.2073C138.793 26.0933 138.346 26.0933 138.232 26.0933C138.014 26.2073 138.128 26.2073 138.128 26.3109C138.346 26.943 138.793 27.5648 139.011 28.228C138.897 27.7824 139.125 27.4508 139.125 27.0466ZM146.313 25.5751C146.313 25.171 145.981 24.7358 145.981 24.4041C145.648 24.2902 145.472 23.8446 144.911 23.8446C144.36 23.8446 144.693 24.0725 144.142 24.0725C143.81 24.0725 143.508 23.8446 143.103 23.8446C142.511 23.8446 142.626 24.2902 141.223 24.2902V25.3161C141.441 25.4301 141.67 25.4301 141.888 25.4301C142.439 25.4301 142.844 25.2435 142.844 24.6943C142.844 24.3627 143.477 24.8083 143.664 24.6943C143.664 24.6943 143.997 24.3627 144.215 24.3627C144.765 24.3627 144.547 24.8083 144.765 25.0259C144.88 25.3575 145.617 25.5751 146.313 25.5751ZM144.765 26.2798C144.765 25.9793 144.028 25.9793 143.29 25.9793C142.927 25.9793 142.075 26.1658 141.857 26.2798C141.961 26.6839 142.293 27.1192 142.293 27.1192C142.927 26.9016 143.218 26.7979 143.623 26.7979C144.142 26.7979 144.36 26.9016 144.36 27.3471C144.36 27.6788 145.098 27.7824 145.43 27.8964C145.43 26.7979 144.765 26.6839 144.765 26.2798ZM143.55 21.3057C143.477 21.3057 143.249 21.5337 142.958 21.5337C142.667 21.5337 142.262 21.6373 141.93 21.6373C141.525 21.6373 141.525 22.1969 140.86 22.3005L141.078 23.2642C141.525 22.8601 142.771 22.3005 143.176 22.3005C143.882 22.3005 145.212 22.6321 146.053 23.1917C145.949 22.5596 145.544 21.6788 144.983 21.6788C144.765 21.6788 144.547 21.8964 144.215 21.8964C143.914 21.8964 144.101 21.3886 143.55 21.3057ZM140.964 21.4922C141.296 20.943 141.93 20.7565 142.48 20.7565C142.885 20.7565 142.999 20.829 143.581 20.829C143.581 20.3523 142.999 19.8031 142.262 19.8031C141.815 19.8031 141.296 20.2487 140.964 20.5699C140.86 20.829 140.745 21.057 140.964 21.4922ZM140.673 19.2539C140.787 19.0259 141.743 18.6943 141.961 18.6943C142.594 18.6943 142.999 19.0259 143.695 19.2539C143.581 18.8497 143.477 18.6218 143.29 18.2902C142.885 18.0725 142.148 18.4041 142.148 17.7409C141.961 17.6269 141.743 17.5233 141.296 17.7409C140.86 17.9585 140.34 18.8497 140.673 19.2539ZM143.477 33.7513C143.477 33.3057 143.176 33.1917 142.885 33.0881C142.667 32.7565 142.48 33.0881 142.148 32.8601C142.262 32.5699 142.262 32.456 142.262 32.2383C141.961 32.2383 141.857 32.1244 141.525 31.9067C141.296 31.9067 141.296 31.9067 141.192 32.1244L140.226 33.0881C140.745 33.0881 140.631 32.6425 141.296 32.6425C141.525 32.6425 141.857 33.1606 141.857 33.5959C142.48 33.5959 142.771 33.7098 143.29 33.9275L143.477 33.7513ZM144.547 31.4715C144.433 31.399 144.215 30.8497 144.101 30.6321C143.592 30.6321 143.29 30.0725 142.781 30.3005C142.48 30.0725 142.148 30.3005 141.815 30.3005C141.815 30.7047 141.483 30.7047 141.711 31.3679C142.262 31.3679 142.958 30.8083 143.477 31.4715C143.592 31.5855 143.592 32.4249 144.329 32.5389C144.433 31.9896 144.547 31.8756 144.547 31.4715ZM144.88 28.6736C144.474 28.6736 144.256 28.456 143.924 28.342C143.29 28.1244 143.519 27.7927 142.698 27.7927C142.293 27.9793 142.189 28.4145 142.189 28.6425C142.189 28.6425 142.075 29.3057 142.075 29.4093C142.48 29.3057 142.698 28.7461 142.999 28.7461C144.547 28.7461 144.101 30.2591 144.88 30.2591V28.6736ZM146.76 34.4456C146.76 34.228 146.541 34.228 146.541 34.114C146.427 33.8964 146.541 33.6788 146.541 33.6788C146.541 33.1606 146.095 32.829 145.762 32.6114L145.326 33.3782C145.731 34.2694 146.396 34.601 146.396 35.1088C146.5 34.8187 146.5 34.8187 146.76 34.4456ZM147.466 31.658C147.466 31.544 147.134 30.8083 147.019 30.8083C146.687 31.3575 146.687 31.7617 146.469 32.0933L147.134 33.057C147.466 32.5389 147.466 32.3212 147.466 31.658Z" fill="white"/>
<path d="M120.335 35.4301C120.117 35.4301 119.784 36.0518 119.784 36.2798C119.784 37.1192 120.002 38.342 120.335 39.1814H121.186C121.186 38.228 121.29 37.1192 121.29 36.2798C121.186 36.2798 121.405 36.4974 120.335 35.4301Z" fill="white"/>
<path d="M122.838 35.8342C122.62 35.8342 122.142 36.1658 122.142 36.3834C122.142 36.829 121.955 39.1814 121.955 39.1814H122.661C122.994 38.228 123.617 36.943 123.617 36.3834C123.575 35.9482 123.253 35.8342 122.838 35.8342Z" fill="white"/>
<path d="M114.508 14.2383C114.508 14.456 114.508 14.6839 114.84 14.9016C115.173 14.5699 115.682 14.456 115.796 14.456C115.578 14.0207 115.027 14.456 114.508 14.2383Z" fill="white"/>
<path d="M120.449 14.456L120.335 14.57L121.519 15.0155V14.456H120.449Z" fill="white"/>
<path d="M113.51 8.16579C113.51 8.61139 113.842 8.79792 114.175 8.79792C114.175 9.23315 114.507 9.30569 114.611 9.41968C114.943 9.6373 115.057 9.6373 115.359 9.41968C115.681 9.6373 115.795 9.23315 115.909 9.41968C115.909 10.0829 115.909 10.373 115.795 10.8912C115.681 11.658 115.057 11.5544 114.507 11.8445C114.507 12.1762 114.175 12.6943 114.507 13.0259C114.839 12.8083 115.057 12.6943 115.577 12.4767C115.577 12.1451 115.909 11.8135 116.314 11.6269C116.314 10.6736 116.647 9.75128 116.647 8.75647C116.647 8.53885 116.418 8.31087 116.096 8.1347H113.728C113.728 8.16579 113.51 8.16579 113.51 8.16579Z" fill="white"/>
<path d="M119.784 8.79793H119.556C119.784 9.6373 119.784 10.5596 119.784 11.5544C120.22 11.658 120.626 11.886 120.626 12.5078C121.072 12.7254 121.477 12.8394 121.924 13.171C122.101 13.057 122.215 12.7254 122.329 12.4352C121.924 11.886 120.958 12.2176 120.958 11.2539L120.335 11.0363C120.335 10.4145 120.335 9.78238 120.22 9.34715L120.335 9.27461C120.335 9.34715 120.449 9.45078 120.667 9.67876C121.114 9.67876 121.519 9.78238 121.955 9.45078C122.142 9.34715 122.142 8.82901 122.36 8.82901C122.547 8.82901 122.765 8.82901 122.88 8.6114C122.88 8.6114 123.098 8.6114 122.88 8.49741L120.594 8.1658C120.335 8.49741 119.784 8.49741 119.784 8.79793Z" fill="white"/>
</svg>
