<svg width="113" height="40" viewBox="0 0 113 40" fill="none" xmlns="http://www.w3.org/2000/svg">
<g clip-path="url(#clip0_358_3684)">
<path d="M78.9071 27.2289V27.3253H78.8588C78.8105 27.2771 78.8105 27.2289 78.8105 27.1807L78.9071 27.2289Z" fill="white"/>
<path d="M78.8584 27.3253H78.9067C78.9067 27.3253 78.9067 27.3735 78.8584 27.3735C78.8101 27.3735 78.8584 27.3253 78.8584 27.3253Z" fill="white"/>
<path d="M97.4986 27.3735C97.5469 27.3735 97.5469 27.3253 97.5469 27.2771C98.0781 25.1566 102.666 9.25302 104.404 3.37351C104.549 2.93977 104.839 1.68676 104.935 1.54218C105.129 0.963867 105.66 0.530132 106.288 0.481939C106.577 0.433747 106.867 0.433746 107.157 0.433746H110.489C110.827 0.433746 111.165 0.481939 111.455 0.578325C112.324 0.819289 112.807 1.73495 112.517 2.60242C111.841 5.15664 101.41 37.8313 101.217 38.2169C100.831 38.9398 100.106 39.4217 99.2854 39.4699H95.6153C95.4221 39.4699 95.229 39.4217 95.0841 39.4217C94.5529 39.3253 94.0217 38.988 93.732 38.506C93.4422 38.0241 93.2491 37.5422 93.0559 37.0121C93.0559 37.0121 82.2388 2.93977 82.1422 2.65061C81.8525 1.83134 82.3354 0.915674 83.1563 0.626518C83.3978 0.530132 83.6875 0.481939 83.9773 0.481939H87.9371C88.1786 0.481939 88.42 0.530132 88.6615 0.578325C89.0961 0.67471 89.4824 0.963867 89.6273 1.34941C89.7239 1.54218 97.4503 27.2289 97.4986 27.3735Z" fill="white"/>
<path d="M37.1357 10.6506C37.1357 9.49398 37.2323 8.38555 37.5221 7.27711C37.8601 5.78314 38.5362 4.43374 39.502 3.27711C40.5644 2.07229 41.9648 1.20483 43.5101 0.819283C44.2827 0.626512 45.1037 0.481934 45.9246 0.481934H57.949C58.287 0.481934 58.5768 0.530126 58.9148 0.578319C59.5909 0.722897 60.1704 1.25302 60.3152 1.92772C60.4118 2.36145 60.5084 2.79519 60.5084 3.22892V5.68675C60.5084 6.16868 60.4601 6.65061 60.2669 7.13254C60.0738 7.71085 59.5909 8.14458 58.9631 8.28916C58.6251 8.38555 58.287 8.43374 57.949 8.43374H48.6289C47.4699 8.38555 46.4075 9.01205 45.828 10.0241C45.5866 10.4578 45.4417 10.9398 45.3934 11.4699V36.6265C45.3934 37.0121 45.3934 37.3976 45.2969 37.7831C45.2003 38.6024 44.5725 39.2771 43.7516 39.3735C43.3652 39.4699 42.9306 39.4699 42.5443 39.4699H39.5503C39.1639 39.4699 38.7776 39.3735 38.3913 39.2289C37.8601 39.0362 37.4738 38.5542 37.3289 38.0241C37.2323 37.6868 37.184 37.3494 37.184 36.9639V35.759C37.1357 31.6145 37.1357 14.8434 37.1357 10.6506Z" fill="white"/>
<path d="M78.9553 27.2289C79.1968 25.8313 79.6314 24.4819 79.9694 23.0843C80.4041 21.494 80.887 19.8554 81.3216 18.2651C81.4182 17.9759 81.563 17.6868 81.8045 17.4458C82.0459 17.2048 82.384 17.0602 82.722 17.0602C82.8669 17.0602 82.9635 17.1084 83.1083 17.2048C83.4464 17.3494 83.6878 17.6386 83.7844 17.9277C84.4122 20.0482 86.2472 25.3976 86.2472 25.3976C86.4887 25.8795 86.537 26.4578 86.4404 26.9398C86.3438 27.2771 82.8186 38.2169 82.722 38.4096C82.4806 38.8916 82.0459 39.2289 81.5147 39.3253C81.0801 39.4217 80.6455 39.4699 80.2592 39.4217H77.1203C76.8788 39.4217 76.6857 39.3735 76.4442 39.3253C75.913 39.2289 75.4301 38.8916 75.1404 38.4578C74.8506 38.0241 74.6575 37.5422 74.4643 37.0121L72.4361 30.747L64.5647 5.68675C64.3716 5.01205 64.1301 4.43374 63.9853 3.80723C63.8887 3.32531 63.6955 2.89157 63.6472 2.40964C63.5024 1.83133 63.7438 1.25302 64.2267 0.915668C64.5165 0.674704 64.9028 0.530127 65.2891 0.530127C65.5306 0.481934 65.772 0.481934 66.0135 0.481934H69.2972C69.587 0.481934 69.8767 0.530126 70.1665 0.578319C70.6011 0.626512 70.9874 0.867476 71.2288 1.25302C71.5669 1.73495 71.8083 2.21687 71.9532 2.74699C73.6434 8.48193 75.3335 14.2169 76.9754 19.9518C77.6515 22.2651 78.2793 24.5783 78.907 26.8916L79.0036 27.1807C79.0036 27.2289 79.0519 27.2771 79.0519 27.3253L78.9553 27.2289Z" fill="white"/>
<path d="M25.5942 39.5181C25.2561 39.5181 24.9664 39.4699 24.6284 39.3735C23.9523 39.2289 23.3245 38.7952 22.9865 38.1687C22.745 37.7831 22.4553 37.3976 22.2138 37.0121L13.0386 24.1446C12.7489 23.7108 12.4108 23.3253 12.0728 22.9398C11.5899 22.2651 11.3001 21.5422 11.2036 20.7229C11.1553 20.1446 11.1553 19.6145 11.1553 19.0361C11.2036 18.0241 11.6382 17.1084 12.3142 16.3855C12.942 15.6627 13.5698 14.8916 14.101 14.0723L21.8275 3.22892C22.0689 2.84337 22.3587 2.50602 22.6484 2.12048C23.0348 1.54217 23.566 1.10843 24.1937 0.819277C24.6283 0.626506 25.1113 0.530121 25.5942 0.530121H29.8437C30.1818 0.530121 30.5198 0.578313 30.8578 0.674699C31.389 0.771084 31.8237 1.25301 31.7754 1.83133C31.7271 2.60241 31.5339 3.3253 31.1476 3.95181C31.0993 4 31.051 4.09639 31.0027 4.14458L19.8476 19.2771C19.751 19.3735 19.7027 19.5181 19.5578 19.5663C19.5095 19.5663 19.5095 19.6145 19.5578 19.6626C19.5578 19.7108 19.6061 19.759 19.6544 19.759L31.5339 36.1446C31.6305 36.2892 31.7271 36.3855 31.8236 36.5301C32.2583 37.0602 32.4514 37.7831 32.3066 38.4578C32.2583 38.7952 32.0168 39.0843 31.6788 39.2289C31.4373 39.3253 31.1476 39.4217 30.8578 39.4217C30.6164 39.4699 26.4151 39.5181 25.5942 39.5181Z" fill="white"/>
<path d="M0.53125 3.42169C0.53125 2.98796 0.57954 2.50603 0.676121 2.07229C0.820993 1.3976 1.3039 0.867476 1.97997 0.674704C2.36629 0.530126 2.75262 0.481934 3.18723 0.481934H6.08467C6.51928 0.481934 6.9539 0.578319 7.38851 0.674704C8.01629 0.867476 8.4992 1.3494 8.64407 1.97591C8.74065 2.31326 8.78894 2.60242 8.78894 2.93977V3.3735C8.78894 14.4578 8.78894 25.494 8.78894 36.5783C8.78894 37.0121 8.74065 37.494 8.64407 37.9277C8.4992 38.5542 8.01629 39.0843 7.38851 39.2771C7.09877 39.4217 6.76074 39.4699 6.47099 39.5181C5.26373 39.5663 4.05646 39.5663 2.8492 39.5181C2.55945 39.5181 2.26971 39.4699 1.97997 39.3735C1.35219 39.2289 0.869284 38.6988 0.772703 38.0723C0.676122 37.5904 0.627831 37.1084 0.676121 36.6265L0.53125 3.42169Z" fill="white"/>
<path d="M53.1678 17.1085H55.6789C56.017 17.1085 56.3067 17.1567 56.6447 17.253C57.1759 17.3976 57.6588 17.7832 57.852 18.3133C57.9969 18.6506 58.0452 18.988 58.0935 19.3735C58.0935 19.8073 58.0935 20.1928 58.0935 20.6265C58.0935 21.2048 58.0935 21.8314 58.0452 22.4097C57.9969 22.747 57.9486 23.0362 57.852 23.3253C57.6588 24.0482 57.0794 24.5783 56.355 24.6747C56.0653 24.7229 55.7755 24.7711 55.4858 24.7711H50.705C50.367 24.7711 50.0289 24.7229 49.6909 24.6265C49.0148 24.482 48.5319 24 48.3388 23.3735C48.2422 23.0844 48.1939 22.747 48.1456 22.4097C48.0973 21.3976 48.0973 20.3856 48.1456 19.3735C48.1456 19.1326 48.1939 18.8916 48.2905 18.6024C48.4353 17.8795 49.0631 17.3012 49.7875 17.2048C50.0772 17.1567 50.367 17.1085 50.6567 17.1085H53.1678Z" fill="white"/>
<path d="M78.955 27.2289V27.3253H78.9067C78.8584 27.2771 78.8584 27.2289 78.8584 27.1807L78.955 27.2289Z" fill="white"/>
</g>
<defs>
<clipPath id="clip0_358_3684">
<rect width="113" height="40" fill="white"/>
</clipPath>
</defs>
</svg>
