<svg width="184" height="40" viewBox="0 0 184 40" fill="none" xmlns="http://www.w3.org/2000/svg">
<path d="M7.76943 32.6959V1.13284H1.27539V38.8294H23.7136V32.6959H7.76943ZM136.292 27.9706C136.292 22.8947 134.076 20.0313 130.2 18.8744V18.7732C133.07 17.5687 135.033 15.0049 135.033 10.6313C135.033 4.44945 131.357 1.13284 124.007 1.13284H110.864V38.8294H124.258C132.818 38.8294 136.292 34.7559 136.292 27.9706ZM129.795 27.52C129.795 31.8415 127.934 33.1487 124.409 33.1487H117.108V22.0419H124.157C128.135 22.0419 129.795 23.5996 129.795 27.52ZM128.789 11.8385C128.789 15.3072 127.328 16.8649 123.955 16.8649H117.158V6.9136H123.804C127.279 6.9136 128.789 8.11813 128.789 11.8385ZM157.262 1.13284L152.254 26.2091L151.55 30.4306H151.399L150.744 26.157L145.759 1.13284H138.937L146.993 38.8294H155.15L159.984 14.1094L160.689 9.53209H160.84L161.494 14.1094L166.377 38.8294H174.332L182.389 1.13284H175.819L170.781 26.0049L170.077 30.28H169.926L169.271 26.0585L164.263 1.13284H157.262ZM54.0892 27.9706C54.0892 22.8947 51.8732 20.0313 47.9966 18.8744V18.7732C50.8666 17.5687 52.8304 15.0049 52.8304 10.6313C52.8304 4.44945 49.1541 1.13284 41.8042 1.13284H28.6619V38.8294H42.0552C50.6159 38.8294 54.0892 34.7559 54.0892 27.9706ZM47.5936 27.52C47.5936 31.8415 45.73 33.1487 42.2061 33.1487H34.9053V22.0419H41.9536C45.9315 22.0419 47.5936 23.5996 47.5936 27.52ZM46.587 11.8385C46.587 15.3072 45.1267 16.8649 41.7532 16.8649H34.9549V6.9136H41.6024C45.076 6.9136 46.587 8.11813 46.587 11.8385ZM100.37 1.13284H62.6193V8.64982H100.37V1.13284ZM100.37 16.2094H62.6193V23.7249H100.37V16.2094ZM100.37 38.8294H62.6193V31.3113H100.37V38.8294Z" fill="white"/>
</svg>
