<svg version="1.1" id="Logo" xmlns="http://www.w3.org/2000/svg" x="0" y="0" viewBox="0 0 160 65" xml:space="preserve"><path transform="rotate(-3 80 50)" d="M.5 38.7h159.1v21.4H.5z" fill="#0a3478"></path><path d="M95.8 44.5l2-.1-.1-2.2 3.2-1.2.2 3.2 2.3-.1.1 2.3-2.3.1.2 3.6c.1 1.2.4 1.7 1.4 1.7.3 0 .7-.1 1-.2l.2 2.2-2.1.3c-3 .2-3.8-1.1-3.9-3.4l-.2-3.9-1.9.1-.1-2.4zm-50.2 6.7c-.1-1.4-1-2.6-2.5-2.5-1.7.1-2.3 1.5-2.4 2.8l4.9-.3zm-4.8 1.5c.1 1.7 1.5 3 3.2 3h.1c1-.1 2-.5 2.9-1.1l.1 1.7c-.9.5-1.9.7-2.9.8-3.3.2-5-1.8-5.2-4.9-.1-2.8 1.5-4.9 4.2-5 3.1-.2 4.3 2.1 4.4 5.1l-6.8.4zm-5.1-6.9l-2 .1-.1-2 2-.1.1 2zM33.8 48l1.8-.1.5 9.4-1.8.1-.5-9.4zm-10.4 5.2c0 1.5.9 3.5 2.8 3.4 2-.1 2.7-2.1 2.6-3.7-.1-1.8-1.1-3.5-3-3.4-1.9.2-2.6 2-2.4 3.7m5.6 3.2c-.7 1.1-1.9 1.7-3.2 1.7-2.8.1-4.2-2.3-4.3-4.9-.1-2.5 1.1-4.8 3.8-5 1.6-.1 2.6.5 3.2 1.4l-.3-5.7 1.7-.1.7 13.9-1.7.1.1-1.4zm-15.8-3.1l2.2-.1.2-2.4-2.2.1-.2 2.4zm4.2-7.9l-.3 3.9 1.8-.1.1 1.4-2 .1-.2 2.4 1.8-.1.1 1.4-2 .1-.3 3.9-1.4.1.3-3.9-2.2.1-.3 3.9-1.4.1.3-3.9-1.8.1-.1-1.4 2-.1.2-2.4h-1.8l-.1-1.4 2-.1.3-3.9 1.4-.1-.3 3.9 2.2-.1.3-3.9h1.4zm40.8 5.8c-.1-1.2-.9-2.3-2.2-2.2-1.2.1-2 1.2-1.9 2.6.1 1.4 1.1 2.4 2.2 2.4 1.3-.1 2-1.2 1.9-2.8m3.4-.2c.1 2.8-1.3 5.3-4.1 5.4-1.2.1-2.4-.4-3.1-1.4l.3 5-3.3.2-.7-13.3 3.1-.2.1 1.7c.6-1.4 2-2.1 3.5-2.1 2.5-.1 4.1 2.3 4.2 4.7m8.6.3h-1.4c-1.1.1-2 .5-2 1.4 0 .7.6 1 1.4 1 1.3-.2 2.2-1.3 2-2.4m.5 4.2c0-.5-.1-1-.2-1.5-.5 1.1-1.7 1.9-3 1.9-1.9.1-3.7-.8-3.8-2.8-.2-2.9 3-3.5 4.8-3.6h1.6c-.1-1.3-1.1-1.6-2.3-1.6-1.1 0-2.1.3-3 .9l-.2-2.3c1.2-.5 2.5-.8 3.8-.9 2.5-.1 4.6.8 4.8 3.8l.2 3.6c0 .8.1 1.5.3 2.3l-3 .2zm5.6-.5c1.2.3 2.3.4 3.5.3 2.2-.1 4.5-.9 4.3-3.5-.2-3.7-5.1-2.2-5.2-3.7 0-.5.8-.7 1.5-.7.9-.1 1.8.1 2.6.5l.1-2.3c-1.1-.3-2.3-.5-3.4-.4-1.9.1-4.1 1.1-3.9 3.3.2 3.5 4.9 2.1 4.9 3.7 0 .7-.6.8-1.3.8-1.1 0-2.2-.1-3.2-.5l.1 2.5zm10.4-.6c1.2.3 2.3.4 3.5.3 2.2-.1 4.5-.9 4.3-3.5-.2-3.7-5.1-2.2-5.2-3.7 0-.5.8-.7 1.5-.7.9 0 1.8.1 2.6.5l.1-2.3c-1.1-.3-2.3-.5-3.4-.4-1.9.1-4.1 1.1-3.9 3.3.2 3.5 4.9 2.1 4.9 3.7 0 .7-.6.8-1.3.8-1.1 0-2.2-.1-3.2-.5l.1 2.5zm27.7-5.9c-.1-1.7-.9-3.5-2.8-3.4-1.9.1-2.7 1.9-2.6 3.7.1 1.6 1 3.5 3 3.4 1.9-.1 2.5-2.3 2.4-3.7m-7.6-8.8l1.7-.1.3 5.7c.5-.9 1.4-1.6 3-1.7 2.7-.1 4.2 2 4.3 4.6.1 2.6-.9 5.2-3.8 5.3-1.3.1-2.5-.4-3.3-1.4l.1 1.3-1.7.1-.6-13.8zm17.9 8.5h-1.1c-.9 0-3.3.3-3.2 2 .1.9.9 1.5 1.8 1.4 1.7-.1 2.6-1.2 2.5-2.6v-.8zm-5.3-4c.9-.6 2-1 3.1-1.1 2.7-.1 3.9 1.1 4 3.7l.2 3.9c0 .6.1 1.2.2 1.8l-1.6.1-.1-1.2c-.6 1-1.7 1.6-2.8 1.6-2 .1-3.5-.7-3.6-2.8-.1-2.4 2.4-3.2 4.2-3.3.7 0 1.2-.1 1.9-.1-.1-1.6-.7-2.4-2.5-2.3-1 .1-1.9.4-2.7 1.1l-.3-1.4zm10.8 8.2l1.7-.1-.2-4.4c-.1-2.3.7-3.9 2.7-4 1.5 0 2.1 1.1 2.2 3.3l.3 4.9 1.7-.1-.3-5.6c-.1-2.5-1.3-4-3.7-3.9-1.3 0-2.4.7-3 1.9l-.1-1.5-1.7.1.4 9.4zm11.3-14.5l.7 13.9 1.7-.1-.3-4.8 4.5 4.6 2.5-.1-5.2-5 4.2-4.4-2.4.1-3.6 4-.4-8.3-1.7.1z" fill="#fc0"></path><path d="M50.4 25.5h3.7v-7.1h1.6c4 0 7.2-1.6 7.2-5.9 0-4.5-3.7-5.6-7.8-5.6h-4.7v18.6zm3.8-15.7h1.3c1.9 0 3.6.7 3.6 2.9s-1.7 2.8-3.6 2.8h-1.3V9.8zm47.1 15.7h3.4v-1.7c1 1.3 2.5 2.1 4.1 2.1 4.1 0 5.8-3.5 5.8-7.2 0-3.8-1.6-7.2-5.7-7.2-1.7 0-3.2.8-4.2 2.2V5.4h-3.5l.1 20.1zm3.5-6.9c0-1.9.9-4.4 3.2-4.4 2.3 0 3 2.5 3 4.4 0 1.9-.7 4.5-3.1 4.5-2.3-.1-3.1-2.6-3.1-4.5m42.4 6.9V5.4h3.6v11.8h.1l4.3-5.5h4.2l-5.1 6.2 5.8 7.6h-4.5l-4.6-6.7h-.1v6.7h-3.7zm-15.7 0V11.7h3.4v1.9h.1c1-1.5 2.7-2.3 4.5-2.2 3.3 0 4.7 2.3 4.7 5.4v8.7h-3.6v-7.4c0-1.7 0-4-2.3-4-2.6 0-3.2 2.8-3.2 4.6v6.7l-3.6.1zM88.7 11.9l-.2 2.7c-1-.4-2.1-.6-3.2-.6-1 0-2.1.3-2.1 1.5 0 2.2 6.2.8 6.2 5.8 0 3.2-2.9 4.5-5.8 4.5-1.4 0-2.7-.2-4.1-.6l.2-2.9c1.1.6 2.3.9 3.5.9.9 0 2.4-.3 2.4-1.7 0-2.7-6.2-.9-6.2-5.8 0-3 2.6-4.3 5.4-4.3 1.3 0 2.6.2 3.9.5m3.9 9.5v-7H90v-2.6h2.6V9l3.6-1.1v3.9h3.2v2.6h-3.2v6.4c0 1.2.3 2.3 1.7 2.3.6 0 1.1-.1 1.6-.4l.1 2.8c-.9.2-1.8.3-2.6.3-2.9 0-4.4-1.7-4.4-4.4m-25.7-3.1c0-2.1 1.1-4.2 3.5-4.2s3.5 2 3.5 4.2c0 2.4-.7 4.9-3.5 4.9s-3.5-2.6-3.5-4.9m-3.8.4c0 4 2.6 7.3 7.2 7.3s7.2-3.2 7.2-7.3c0-4.6-3.1-7.4-7.2-7.4-4 0-7.2 2.8-7.2 7.4m56.5 2.8c0-2.1 2.4-2.4 4-2.4h1.6c.1 1-.2 2-.7 2.8-.6.8-1.5 1.3-2.5 1.2-1.4.1-2.4-.4-2.4-1.6m-1.8-6c1.2-.9 2.7-1.5 4.3-1.5 2.1 0 3.1.7 3.1 3h-2c-1.6-.1-3.2.2-4.6.8-1.5.7-2.5 2.3-2.4 3.9 0 2.6 2.4 4.1 4.8 4.1 1.7 0 3.4-.9 4.3-2.4h.1c0 .7.1 1.4.2 2.1h3.2c-.1-1.1-.1-2-.2-3.1 0-1-.1-2.1-.1-3.4v-1.8c0-4.1-1.7-5.8-5.9-5.8-1.6 0-3.3.4-4.8 1v3.1zM16.2.4L33.1 0c-10 5.8-16.8 15.8-18.6 27.2H0C1.1 19.1 7.6 5.7 16.2.4m24.6 10.7c-4.7 3-8 7.8-9 13.3h-4.3c.8-4.4 3.5-10.2 7.7-13.2-.1 0 5.6-.1 5.6-.1" fill="#0a3478"></path><path d="M27.8 6.9l9.9-.3C29.6 11 25.6 19.9 24.9 25.5h-7.5C18 20.9 21.1 12 27.8 6.9" fill="#e10014"></path></svg>