<svg width="161" height="28" viewBox="0 0 161 28" fill="none" xmlns="http://www.w3.org/2000/svg">
<path d="M50.4 25.5H54.1V18.4H55.7C59.7 18.4 62.9 16.8 62.9 12.5C62.9 8 59.2 6.9 55.1 6.9H50.4V25.5ZM54.2 9.8H55.5C57.4 9.8 59.1 10.5 59.1 12.7C59.1 14.9 57.4 15.5 55.5 15.5H54.2V9.8ZM101.3 25.5H104.7V23.8C105.7 25.1 107.2 25.9 108.8 25.9C112.9 25.9 114.6 22.4 114.6 18.7C114.6 14.9 113 11.5 108.9 11.5C107.2 11.5 105.7 12.3 104.7 13.7V5.4H101.2L101.3 25.5ZM104.8 18.6C104.8 16.7 105.7 14.2 108 14.2C110.3 14.2 111 16.7 111 18.6C111 20.5 110.3 23.1 107.9 23.1C105.6 23 104.8 20.5 104.8 18.6ZM147.2 25.5V5.4H150.8V17.2H150.9L155.2 11.7H159.4L154.3 17.9L160.1 25.5H155.6L151 18.8H150.9V25.5H147.2ZM131.5 25.5V11.7H134.9V13.6H135C136 12.1 137.7 11.3 139.5 11.4C142.8 11.4 144.2 13.7 144.2 16.8V25.5H140.6V18.1C140.6 16.4 140.6 14.1 138.3 14.1C135.7 14.1 135.1 16.9 135.1 18.7V25.4L131.5 25.5ZM88.7 11.9L88.5 14.6C87.5 14.2 86.4 14 85.3 14C84.3 14 83.2 14.3 83.2 15.5C83.2 17.7 89.4 16.3 89.4 21.3C89.4 24.5 86.5 25.8 83.6 25.8C82.2 25.8 80.9 25.6 79.5 25.2L79.7 22.3C80.8 22.9 82 23.2 83.2 23.2C84.1 23.2 85.6 22.9 85.6 21.5C85.6 18.8 79.4 20.6 79.4 15.7C79.4 12.7 82 11.4 84.8 11.4C86.1 11.4 87.4 11.6 88.7 11.9ZM92.6 21.4V14.4H90V11.8H92.6V9L96.2 7.9V11.8H99.4V14.4H96.2V20.8C96.2 22 96.5 23.1 97.9 23.1C98.5 23.1 99 23 99.5 22.7L99.6 25.5C98.7 25.7 97.8 25.8 97 25.8C94.1 25.8 92.6 24.1 92.6 21.4ZM66.9 18.3C66.9 16.2 68 14.1 70.4 14.1C72.8 14.1 73.9 16.1 73.9 18.3C73.9 20.7 73.2 23.2 70.4 23.2C67.6 23.2 66.9 20.6 66.9 18.3ZM63.1 18.7C63.1 22.7 65.7 26 70.3 26C74.9 26 77.5 22.8 77.5 18.7C77.5 14.1 74.4 11.3 70.3 11.3C66.3 11.3 63.1 14.1 63.1 18.7ZM119.6 21.5C119.6 19.4 122 19.1 123.6 19.1H125.2C125.3 20.1 125 21.1 124.5 21.9C123.9 22.7 123 23.2 122 23.1C120.6 23.2 119.6 22.7 119.6 21.5ZM117.8 15.5C119 14.6 120.5 14 122.1 14C124.2 14 125.2 14.7 125.2 17H123.2C121.6 16.9 120 17.2 118.6 17.8C117.1 18.5 116.1 20.1 116.2 21.7C116.2 24.3 118.6 25.8 121 25.8C122.7 25.8 124.4 24.9 125.3 23.4H125.4C125.4 24.1 125.5 24.8 125.6 25.5H128.8C128.7 24.4 128.7 23.5 128.6 22.4C128.6 21.4 128.5 20.3 128.5 19V17.2C128.5 13.1 126.8 11.4 122.6 11.4C121 11.4 119.3 11.8 117.8 12.4V15.5ZM16.2 0.4L33.1 0C23.1 5.8 16.3 15.8 14.5 27.2H0C1.1 19.1 7.6 5.7 16.2 0.4ZM40.8 11.1C36.1 14.1 32.8 18.9 31.8 24.4H27.5C28.3 20 31 14.2 35.2 11.2C35.1 11.2 40.8 11.1 40.8 11.1Z" fill="white"/>
<path d="M27.8004 6.89998L37.7004 6.59998C29.6004 11 25.6004 19.9 24.9004 25.5H17.4004C18.0004 20.9 21.1004 12 27.8004 6.89998Z" fill="white"/>
</svg>
