<svg width="266" height="40" viewBox="0 0 266 40" fill="none" xmlns="http://www.w3.org/2000/svg">
<path d="M9.07873 16.1378H1.12891V11.855H22.4093V16.1378H14.4263V36.4229H9.07873" fill="white"/>
<path d="M31.0789 16.721L27.4787 26.1785H34.8129L31.0789 16.721ZM28.5423 11.8208H34.0254L44.5121 36.4229H38.7536L36.4921 30.5645H25.8015L23.6062 36.4229H18.124" fill="white"/>
<path d="M57.7365 16.207H51.3965V22.4097H57.7365C59.4499 22.4097 60.649 22.1679 61.3358 21.6886C61.9865 21.2438 62.3281 20.4214 62.3281 19.2898C62.3281 18.1619 62.0197 17.3738 61.3358 16.9279C60.7192 16.4479 59.5181 16.207 57.7365 16.207ZM46.2227 11.8208H58.9708C61.9183 11.8208 64.1106 12.4052 65.4823 13.6032C66.8513 14.8022 67.539 16.6528 67.5722 19.2224C67.5722 21.1064 67.1625 22.6487 66.2688 23.8479C65.4473 25.0137 64.214 25.8028 62.6032 26.1442L68.7372 36.4229H62.9105L57.4985 26.7608H51.3965V36.4229H46.2227" fill="white"/>
<path d="M80.8673 26.1785V21.8262H93.1013V36.4229H81.9621C79.9423 36.4229 78.3647 36.2502 77.2349 35.9106C76.1382 35.6017 75.1088 35.021 74.1479 34.264C72.9155 33.2717 71.9575 31.9683 71.3047 30.3576C70.688 28.7491 70.3789 26.829 70.3789 24.5679C70.3789 20.2167 71.3047 17.0303 73.1906 14.9398C75.1088 12.8491 77.9872 11.8208 81.9621 11.8208H93.1013V16.0694H81.9621C79.9423 16.0694 78.469 16.721 77.509 18.0243C76.5821 19.325 76.1382 21.4174 76.1382 24.3266C76.1382 27.0017 76.5821 28.9539 77.509 30.1546C78.4331 31.3859 79.9083 31.9683 81.9621 31.9683H87.7888V26.1785" fill="white"/>
<path d="M108.041 15.5544C105.847 15.5544 104.167 16.2421 103.069 17.6449C101.975 19.0167 101.426 21.1064 101.426 23.9161C101.426 26.9296 101.939 29.1608 103.004 30.6005C104.099 32.0045 105.744 32.6892 108.041 32.6892C110.302 32.6892 111.945 32.0045 113.043 30.6005C114.14 29.1947 114.685 27.0359 114.685 24.1199C114.685 21.209 114.14 19.0499 113.043 17.6449C111.981 16.2771 110.335 15.5904 108.041 15.5544ZM95.7695 23.8829C95.7695 19.6665 96.7637 16.5153 98.7872 14.4246C100.808 12.368 103.893 11.3769 108.041 11.3417C112.221 11.3417 115.304 12.368 117.292 14.4597C119.315 16.5485 120.307 19.7689 120.307 24.1199C120.307 28.474 119.315 31.6954 117.292 33.7859C115.304 35.8768 112.221 36.9389 108.041 36.9389C103.824 36.9389 100.739 35.8768 98.7522 33.7859C96.7637 31.6594 95.7695 28.3695 95.7695 23.8829Z" fill="white"/>
<path d="M179.243 32.0709C180.408 32.0709 181.264 31.8659 181.813 31.3859C182.362 30.9041 182.635 30.1869 182.635 29.1947C182.635 28.2028 182.362 27.4475 181.813 27.0017C181.264 26.5218 180.408 26.2807 179.243 26.2807H171.6V32.0709H179.243ZM171.6 16.2421V21.9299H179.172C180.337 21.9299 181.195 21.7257 181.743 21.2438C182.293 20.7647 182.53 20.0459 182.565 19.0849C182.565 18.124 182.293 17.407 181.743 16.9279C181.195 16.4821 180.337 16.2771 179.172 16.2421H171.6ZM179.962 36.4229H166.424V11.8208H179.072C180.646 11.8208 181.951 11.9251 182.945 12.0959C183.939 12.2676 184.761 12.5427 185.374 12.9514C186.268 13.5348 186.951 14.2521 187.431 15.1436C187.911 16.0694 188.151 17.0987 188.151 18.2283C188.151 19.6001 187.879 20.7647 187.259 21.7257C186.68 22.6848 185.755 23.4703 184.487 24.1199C185.755 24.6683 186.712 25.391 187.294 26.3149C187.911 27.2068 188.187 28.3372 188.222 29.707C188.222 32.0045 187.534 33.6837 186.199 34.8122C184.862 35.8768 182.805 36.4229 179.962 36.4229Z" fill="white"/>
<path d="M201.893 16.721L198.293 26.1785H205.626L201.893 16.721ZM199.356 11.8208H204.841L215.324 36.4229H209.566L207.304 30.5645H196.613L194.42 36.4229H188.936" fill="white"/>
<path d="M217.036 11.8208H223.582L233.655 29.5021L233.416 11.8208H238.691V36.4229H232.698L222.107 17.8157L222.348 36.4229H217.036" fill="white"/>
<path d="M243.694 11.8208H248.87V23.6428L258.565 11.8208H264.771L254.901 23.8479L264.872 36.4229H258.26L248.87 24.19V36.4229H243.694" fill="white"/>
<path d="M136.904 6.07533C136.817 3.46204 138.863 1.27828 141.473 1.19105C144.086 1.10577 146.272 3.15374 146.359 5.76217C146.447 8.37546 144.397 10.561 141.79 10.6455C139.176 10.7317 136.991 8.68377 136.904 6.07533Z" fill="white"/>
<path d="M139.402 21.3152C138.235 22.4855 136.523 22.5397 135.45 21.4658L127.392 13.4087C126.339 12.3348 126.386 10.6056 127.539 9.45204C128.692 8.29965 130.443 8.23613 131.495 9.30518L139.553 17.3622C140.624 18.4332 140.557 20.1568 139.402 21.3152Z" fill="white"/>
<path d="M143.864 21.3094C145.031 22.4801 146.743 22.5321 147.818 21.4582L155.874 13.4012C156.927 12.3311 156.88 10.6 155.728 9.44646C154.573 8.29406 152.822 8.22956 151.771 9.30037L143.713 17.3567C142.641 18.4294 142.709 20.1502 143.864 21.3094Z" fill="white"/>
<path d="M127.272 37.9065C128.439 39.0771 130.169 39.1111 131.266 38.0145L139.499 29.7828C140.575 28.6863 140.548 26.9372 139.394 25.7836C138.243 24.6322 136.472 24.5865 135.398 25.6793L127.164 33.911C126.068 35.0076 126.117 36.7473 127.272 37.9065Z" fill="white"/>
<path d="M155.999 37.9065C154.832 39.0771 153.1 39.1111 152.004 38.0145L143.77 29.7828C142.695 28.6863 142.722 26.9372 143.875 25.7836C145.029 24.6322 146.8 24.5865 147.874 25.6793L156.106 33.911C157.201 35.0076 157.154 36.7473 155.999 37.9065Z" fill="white"/>
</svg>
