<svg width="267" height="40" viewBox="0 0 267 40" fill="none" xmlns="http://www.w3.org/2000/svg">
<path fill-rule="evenodd" clip-rule="evenodd" d="M171.357 40H266.909V0H171.357V40ZM265.889 1.02164V38.9784H172.395V1.02164H265.889Z" fill="white"/>
<path d="M167.242 40H0V0H167.242V40Z" fill="white"/>
<path fill-rule="evenodd" clip-rule="evenodd" d="M51.0273 30.7532H40.3066V11.6883H50.1627C54.4683 11.6883 60.8315 12.0173 60.8315 20.0519V22.5801C60.8315 26.2164 59.4482 30.7532 51.0273 30.7532ZM57.7536 19.6537C57.7536 16.6234 56.3876 13.8355 50.6296 13.8355H43.3845V28.5714H50.889C55.6441 28.5714 57.7536 26.6147 57.7536 22.7013V19.6537ZM78.0018 30.7532L77.7424 29.6623C76.7049 30.5455 74.9931 30.9437 72.3648 30.9437C67.3503 30.9437 65.3964 29.8874 65.3964 26.7359C65.3964 25.645 65.6212 24.8138 66.1053 24.1558C67.2466 22.632 69.2524 22.6147 71.0161 22.6147H77.5349V21.2987C77.5349 20.7446 77.5695 20.0346 76.9643 19.6883C76.3245 19.342 74.7683 19.2554 72.5377 19.2554C70.6184 19.2554 69.944 19.3939 69.5809 19.7749C69.2524 20.0866 69.2005 20.9177 69.1486 21.2641H66.3128C66.2956 20.658 66.2264 20.2078 66.2264 19.8615C66.2264 19.342 66.3474 18.9091 66.7797 18.5455C68.042 17.4545 71.5348 17.316 72.8144 17.316C74.5089 17.316 77.9326 17.3333 79.3159 18.4242C79.9384 18.8918 80.1978 19.3939 80.3361 20.1385C80.4572 20.8658 80.4572 21.8701 80.4572 23.2727V30.7532H78.0018ZM77.5349 24.4502H72.7798C70.5838 24.4502 69.8922 24.5022 69.3388 24.7619C68.7682 25.0216 68.4743 25.6797 68.4743 26.8225C68.4743 27.7403 68.6472 28.1732 69.0795 28.4156C69.7192 28.8312 70.774 29.0043 72.5723 29.0043C74.3533 29.0043 75.4254 28.9177 76.1689 28.6234C77.4485 28.1732 77.5349 27.1688 77.5349 26.0433V24.4502ZM97.9215 30.7532V23.4805C97.9215 20.9524 97.8177 20.4156 97.1952 19.9654C96.6246 19.5325 95.4661 19.2727 93.7197 19.2727C92.1634 19.2727 90.5726 19.4632 89.0683 19.8788V30.7532H86.1806V17.4372H88.7743L88.9818 18.3896C89.5524 18.0606 89.9847 17.8355 90.6072 17.6623C91.5409 17.3853 92.7686 17.2294 94.3767 17.2294C96.2269 17.2294 97.6275 17.5238 98.7341 18.0087C99.8062 18.4762 100.377 19.3247 100.602 20.329C100.757 21.0216 100.809 21.6104 100.809 23.1342V30.7532H97.9215ZM119.259 29.9567C117.945 30.6147 115.783 30.8918 112.948 30.8918C110.994 30.8918 109.368 30.7532 108.106 30.4416C106.757 30.1299 106.083 29.4892 105.997 28.3463C105.979 27.7403 105.997 27.2035 106.083 26.4935H108.85C108.936 27.1688 108.936 27.3766 108.971 27.5151C109.092 28.1558 109.023 28.5022 109.783 28.7273C110.492 28.9524 111.651 29.039 113.121 29.039C114.971 29.039 116.233 28.8312 117.098 28.4675C117.703 28.2078 117.997 27.7229 117.997 26.8052C117.997 25.7489 117.772 25.316 116.665 25.1429C116.319 25.0909 115.974 25.0909 115.628 25.0563C115.438 25.0216 114.798 25.0216 113.795 25.0043C113.293 25.0043 112.757 24.9697 112.083 24.9351C109.23 24.7965 106.169 24.6926 106.169 21.3333C106.169 18.3203 108.054 17.2641 113.155 17.2641C114.452 17.2641 116.06 17.3506 117.011 17.4719C118.135 17.6104 118.982 17.8009 119.588 18.1472C120.245 18.5281 120.487 19.1342 120.487 20.1905C120.487 20.4675 120.487 20.7619 120.418 21.2121H117.616L117.513 20.6234C117.357 19.8961 117.305 19.7576 117.08 19.5844C116.665 19.2727 115.438 19.1342 113.708 19.1342C111.945 19.1342 110.959 19.2208 110.146 19.4978C109.403 19.7576 109.092 20.2424 109.092 21.1948C109.092 21.8528 109.316 22.3377 109.628 22.5281C110.389 22.9957 114.331 22.9437 115.697 22.961C117.132 22.9957 118.083 23.0996 118.93 23.3939C120.4 23.9134 120.971 24.8485 120.971 26.8052C120.971 28.3809 120.452 29.3506 119.259 29.9567ZM137 30.7532L130.083 24.4502H129.046V30.7532H126.158V11.7056H129.046V22.5628H130.083L135.824 17.4372H139.196L132.504 23.3074L140.839 30.7532H137ZM157.853 28.0866C157.853 28.8658 157.456 29.8182 155.778 30.3203C154.049 30.8398 152.493 30.9264 150.539 30.9264C148.205 30.8918 146.355 30.5801 145.282 30.0087C143.588 29.0909 142.81 27.2554 142.81 24.3636C142.81 22.5108 143.121 21.0216 143.674 19.948C144.625 18.1299 146.891 17.2987 150.591 17.2987C153.479 17.2987 155.588 17.8355 156.677 18.961C157.629 19.8961 157.94 21.1255 157.94 23.342C157.94 23.8615 157.922 24.0173 157.888 24.6926H145.836V25.0216C145.836 26.5974 146.112 27.6017 146.614 28.0866C147.236 28.7273 148.516 29.039 150.798 29.039C153.133 29.039 153.997 28.8312 154.43 28.4156C154.793 28.0346 154.862 27.013 154.948 26.5974H157.801C157.853 27.2381 157.853 27.8961 157.853 28.0866ZM154.862 20.8831C154.43 19.7229 153.237 19.1861 150.729 19.1861C148.914 19.1861 147.669 19.4113 147.012 19.8961C146.355 20.381 146.009 21.1255 145.888 22.7879H155.156C155.139 21.8182 155.035 21.368 154.862 20.8831Z" fill="#003F63"/>
<path fill-rule="evenodd" clip-rule="evenodd" d="M193.144 30.7532H180.643V11.7056H192.643C197.329 11.7056 198.971 13.4199 198.971 16.7792C198.971 18.8052 197.605 20.1039 195.098 20.7619V20.8139C198.332 21.2987 199.68 23.0476 199.68 25.4026C199.68 28.8658 197.346 30.7532 193.144 30.7532ZM191.381 13.8528H183.738V19.8961H191C194.303 19.8961 195.876 19.3247 195.876 16.5195C195.876 14.1126 194.303 13.8528 191.381 13.8528ZM192.038 22.0433H183.738V28.5714H191.674C194.666 28.5714 196.602 28.329 196.602 25.5931C196.602 23.1861 195.6 22.0433 192.038 22.0433ZM215.848 30.7532L215.588 29.6623C214.551 30.5628 212.839 30.961 210.211 30.961C205.196 30.961 203.242 29.9048 203.242 26.7532C203.242 25.6623 203.467 24.8312 203.951 24.1732C205.075 22.6493 207.098 22.6147 208.862 22.6147H215.381V21.2987C215.381 20.7619 215.398 20.0519 214.81 19.7056C214.171 19.3593 212.614 19.2727 210.384 19.2727C208.464 19.2727 207.79 19.4113 207.41 19.7922C207.098 20.1039 207.046 20.9351 206.977 21.2814H204.159C204.124 20.6753 204.072 20.2078 204.072 19.8788C204.072 19.3593 204.193 18.9264 204.626 18.5628C205.888 17.4719 209.381 17.316 210.643 17.316C212.355 17.316 215.779 17.3506 217.162 18.4416C217.767 18.8918 218.026 19.4113 218.182 20.1558C218.286 20.8831 218.286 21.8701 218.286 23.2727V30.7532H215.848ZM215.398 24.4502H210.626C208.447 24.4502 207.755 24.5195 207.202 24.7619C206.631 25.0216 206.338 25.6797 206.338 26.8398C206.338 27.7403 206.51 28.1732 206.943 28.4329C207.583 28.8312 208.637 29.0043 210.436 29.0043C212.217 29.0043 213.289 28.9177 214.032 28.6407C215.312 28.1732 215.398 27.1688 215.398 26.0606V24.4502ZM235.058 30.7532V23.4805C235.058 20.9524 234.955 20.4156 234.35 19.9481C233.762 19.5152 232.62 19.2727 230.857 19.2727C229.3 19.2727 227.71 19.4632 226.205 19.8615V30.7532H223.318V17.4372H225.911L226.119 18.3723C226.707 18.0606 227.139 17.8355 227.744 17.6623C228.695 17.368 229.906 17.2294 231.514 17.2294C233.364 17.2294 234.782 17.5238 235.871 18.0087C236.943 18.4589 237.514 19.3247 237.739 20.329C237.894 21.0216 237.946 21.6104 237.946 23.1342V30.7532H235.058ZM253.82 30.7532L246.886 24.4502H245.848V30.7532H242.961V11.7056H245.848V22.5628H246.886L252.626 17.4372H255.998L249.307 23.3074L257.641 30.7532H253.82Z" fill="white"/>
</svg>
