<svg width="274" height="40" viewBox="0 0 274 40" fill="none" xmlns="http://www.w3.org/2000/svg">
<path fill-rule="evenodd" clip-rule="evenodd" d="M59.0432 26.1478C59.3401 25.8854 59.7768 25.8854 60.0213 26.1478C60.5337 26.6025 60.9995 26.9407 61.4187 27.1622C62.0126 27.4246 62.6589 27.5295 63.4274 27.5295C63.8117 27.5295 64.1785 27.4596 64.5628 27.3371C64.9587 27.2089 65.3022 26.9932 65.5933 26.69C65.8903 26.3752 66.1348 26.0603 66.3095 25.6406C66.4841 25.2092 66.5715 24.7253 66.5715 24.1889V10.0568C66.5715 9.68955 66.9033 9.35724 67.3051 9.35724H69.8727C70.2745 9.35724 70.6063 9.68955 70.6063 10.0568V24.4512C70.6063 25.728 70.3793 26.7949 69.9601 27.6519C69.5408 28.5614 68.9994 29.2436 68.3531 29.7683C67.6719 30.3454 66.9383 30.7302 66.0824 30.9401C65.2265 31.185 64.4405 31.2724 63.5846 31.2724C61.9427 31.2724 60.5279 31.0275 59.4624 30.5028C58.6065 30.0831 57.8729 29.5409 57.1742 28.8063C56.9122 28.4915 56.9122 28.0542 57.2266 27.7919L59.0432 26.1478ZM84.0908 21.338L77.1215 10.0918C76.9294 9.79449 77.1914 9.37473 77.5582 9.37473H80.6848C80.9468 9.37473 81.2088 9.49716 81.3485 9.72453L86.2043 17.8749L91.13 9.72453C91.2872 9.49716 91.5318 9.37473 91.7938 9.37473H94.7632C95.13 9.37473 95.357 9.79449 95.1824 10.0918L88.2305 21.338V30.0306C88.2305 30.3979 87.8812 30.7302 87.4794 30.7302H84.8244C84.4227 30.7302 84.0908 30.3979 84.0908 30.0306V21.338ZM102.239 25.1683C102.518 24.906 102.938 24.906 103.252 25.1858L103.671 25.6056C104.021 25.9554 104.44 26.2702 104.859 26.5501C105.296 26.8649 105.802 27.0573 106.344 27.2847C106.903 27.477 107.497 27.5645 108.178 27.5645C109.447 27.5645 110.379 27.2847 110.973 26.725C111.566 26.1303 111.916 25.4482 111.916 24.6436C111.916 24.1714 111.828 23.8041 111.654 23.4543C111.497 23.122 111.182 22.7722 110.815 22.5273C110.379 22.265 109.872 22.0201 109.226 21.7927C108.597 21.5829 107.776 21.3555 106.815 21.1981C105.837 20.9882 104.987 20.6967 104.265 20.3236C103.532 19.8805 102.938 19.3966 102.484 18.8719C102.012 18.3122 101.663 17.6826 101.418 17.0354C100.929 15.5837 100.964 14.0271 101.558 12.6104C101.837 11.8933 102.326 11.2287 102.92 10.6515C103.532 10.1093 104.3 9.63708 105.226 9.28728C106.169 8.95496 107.27 8.78006 108.51 8.78006C109.651 8.78006 110.623 8.91415 111.427 9.18234C112.242 9.4272 112.923 9.7187 113.47 10.0568C114.018 10.395 114.443 10.739 114.745 11.0888C114.798 11.1587 114.885 11.2287 114.92 11.2986C115.165 11.596 115.165 12.0157 114.885 12.3306L113.208 13.8872C112.929 14.1321 112.51 14.1321 112.248 13.8872C112.003 13.6948 111.741 13.4674 111.339 13.2575C111.002 13.036 110.582 12.8378 110.082 12.6629C109.086 12.3306 107.986 12.2956 106.99 12.6104C106.594 12.762 106.256 12.9602 105.977 13.2051C105.715 13.4674 105.488 13.7123 105.383 13.9746C105.226 14.2895 105.156 14.5343 105.156 14.7967C105.156 15.164 105.226 15.4963 105.383 15.8111C105.488 16.0909 105.75 16.4058 106.082 16.6681C106.414 16.913 106.85 17.1229 107.444 17.3328C108.038 17.5426 108.772 17.7175 109.628 17.8749C110.466 18.0498 111.235 18.3122 112.021 18.6445C112.789 18.9768 113.47 19.4141 114.064 19.9738C114.658 20.516 115.147 21.1631 115.479 21.9502C115.817 22.7314 115.986 23.67 115.986 24.7661C115.986 25.693 115.758 26.6025 115.392 27.3721C114.99 28.1592 114.466 28.8413 113.785 29.4359C113.098 30.0423 112.283 30.5145 111.339 30.8526C110.419 31.1908 109.4 31.3599 108.283 31.3599C107.235 31.3599 106.256 31.2199 105.401 30.9751C104.562 30.7127 103.759 30.3804 103.077 29.9956C102.396 29.6108 101.802 29.1911 101.296 28.6664C100.981 28.4215 100.737 28.1417 100.475 27.8793C100.23 27.5645 100.23 27.1098 100.527 26.8649L102.239 25.1683ZM124.754 9.30477H127.322C127.723 9.30477 128.055 9.63708 128.055 10.0394V18.1023L135.723 9.54963C135.88 9.39222 136.073 9.30477 136.3 9.30477H139.461C139.898 9.30477 140.125 9.81198 139.81 10.1268L132.649 18.0498L140.876 29.9432C141.086 30.258 140.876 30.7127 140.492 30.7127H136.928C136.672 30.7127 136.468 30.602 136.317 30.3804L130.046 21.0057L128.055 23.2094V30.2055C128.055 30.4679 127.828 30.6952 127.584 30.6952H124.492C124.247 30.6952 124.02 30.4679 124.02 30.2055V10.0394C124.02 9.63708 124.352 9.30477 124.754 9.30477ZM148.526 9.30477H160.928C161.295 9.30477 161.627 9.63708 161.627 10.0394V12.1557C161.627 12.523 161.295 12.8728 160.928 12.8728H151.828V17.8749H158.325C158.71 17.8749 159.059 18.2247 159.059 18.627V20.7433C159.059 21.1106 158.71 21.4604 158.325 21.4604H151.828V27.0398H161.627C162.028 27.0398 162.36 27.3721 162.36 27.7394V29.9257C162.36 30.293 162.028 30.6253 161.627 30.6253H148.526C148.125 30.6253 147.793 30.293 147.793 29.9257V10.0568C147.793 9.63708 148.107 9.30477 148.526 9.30477ZM179.461 10.0568C179.461 9.68955 179.81 9.35724 180.194 9.35724H186.814C187.949 9.35724 188.945 9.46218 189.818 9.777C190.674 10.0568 191.408 10.4591 192.002 10.9663C193.137 11.9283 193.783 13.415 193.783 14.9016C193.783 15.6828 193.644 16.3358 193.364 16.8605C193.05 17.4377 192.77 17.8749 192.369 18.2772C192.002 18.6445 191.6 18.9069 191.268 19.1342C190.884 19.2975 190.593 19.3791 190.395 19.3791C190.762 19.4141 191.233 19.554 191.74 19.7289C192.264 19.9213 192.77 20.2361 193.19 20.6034C193.644 21.0232 194.045 21.5304 194.377 22.195C194.727 22.8072 194.831 23.6292 194.831 24.5737C194.831 25.693 194.639 26.69 194.238 27.4596C193.818 28.2291 193.277 28.8413 192.543 29.3485C191.821 29.8266 190.971 30.1705 189.993 30.3804C189.032 30.6078 187.949 30.6952 186.849 30.6952H180.229C179.862 30.6952 179.513 30.3454 179.513 29.9432V10.0568H179.461ZM186.605 17.8575C187.024 17.8575 187.391 17.805 187.792 17.7175C188.159 17.6301 188.491 17.4552 188.84 17.2628C189.155 17.0354 189.399 16.7731 189.574 16.4408C189.749 16.0909 189.818 15.7237 189.818 15.2164C189.818 14.7092 189.749 14.307 189.521 13.9746C189.312 13.6248 189.085 13.38 188.753 13.2051C188.439 12.9777 188.072 12.8728 187.705 12.8378C187.309 12.7445 186.919 12.6979 186.535 12.6979H183.286V17.805H186.605V17.8575ZM186.762 27.2847C187.123 27.2847 187.548 27.2555 188.037 27.1972C188.491 27.1622 188.928 27.0223 189.347 26.8299C189.778 26.6084 190.115 26.3052 190.36 25.9204C190.674 25.5531 190.797 24.9934 190.797 24.3113C190.814 23.7691 190.674 23.2094 190.412 22.7547C190.168 22.3524 189.818 22.0376 189.434 21.8102C189.067 21.5829 188.631 21.4254 188.124 21.338C187.653 21.2505 187.216 21.2156 186.797 21.2156H183.373V27.2847H186.762ZM209.434 9.32226H212.595C212.91 9.32226 213.172 9.49716 213.277 9.777L220.927 29.9781C221.067 30.3104 220.805 30.6777 220.421 30.6777H217.242C216.927 30.6777 216.648 30.4854 216.56 30.223L214.866 25.3083H206.919L205.207 30.223C205.137 30.5203 204.84 30.6777 204.543 30.6777H201.626C201.224 30.6777 200.543 30.3104 200.683 29.9781L208.753 9.777C208.875 9.51465 209.119 9.32226 209.434 9.32226ZM213.713 21.9851L210.901 13.6773L208.019 21.9851H213.713ZM228.997 9.32226H231.966C232.228 9.32226 232.455 9.44469 232.56 9.6021L242.726 24.4862V10.0918C242.726 9.68955 243.058 9.35724 243.425 9.35724H245.957C246.324 9.35724 246.656 9.68955 246.656 10.0918V29.9956C246.656 30.3979 246.324 30.7477 245.957 30.7477H243.058C242.813 30.7477 242.586 30.5903 242.464 30.4329L232.228 15.3564V29.9956C232.228 30.3979 231.879 30.7477 231.512 30.7477H228.997C228.63 30.7477 228.281 30.3979 228.281 29.9956V10.0918C228.281 9.65457 228.63 9.32226 228.997 9.32226ZM256.996 9.32226H259.564C259.966 9.32226 260.298 9.65457 260.298 10.0394V18.1023L267.966 9.58461C268.105 9.40971 268.315 9.32226 268.542 9.32226H271.599C272.053 9.32226 272.297 9.86445 271.966 10.1968L264.909 18.0848L273.066 29.8907C273.328 30.223 273.066 30.7477 272.647 30.7477H269.153C268.909 30.7477 268.717 30.5903 268.56 30.3979L262.289 20.9882L260.298 23.2094V29.9956C260.298 30.3979 259.966 30.7477 259.564 30.7477H256.996C256.595 30.7477 256.263 30.3979 256.263 29.9956V10.0918C256.263 9.65457 256.56 9.32226 256.996 9.32226ZM39.0435 14.1146C39.6374 15.986 39.9518 17.9974 39.9518 20.0262C39.9518 21.9327 39.6898 23.8041 39.1832 25.5531C39.0435 25.9729 38.502 26.1478 38.1702 25.8155L27.0786 14.7617C26.642 14.3594 26.9564 13.6773 27.4978 13.6773H38.502C38.7815 13.6773 39.0086 13.8522 39.0435 14.1146ZM37.6811 29.3835C35.8645 32.8115 33.0698 35.6624 29.6812 37.5339C29.2445 37.7438 28.738 37.4464 28.738 36.9742V21.338C28.738 20.7958 29.4192 20.5335 29.786 20.9007L37.5763 28.6489C37.7335 28.8763 37.7684 29.1561 37.6811 29.3835ZM26.3101 27.512V38.4958C26.3101 38.7582 26.1354 39.0031 25.8734 39.0905C24.0044 39.6852 22.0307 40 19.987 40C18.0657 40 16.1967 39.7551 14.4675 39.2304C14.0483 39.0905 13.8736 38.5658 14.2229 38.216L25.2621 27.1098C25.6289 26.7425 26.3101 27.0223 26.3101 27.512ZM19.0962 29.8382L11.3584 37.6213C11.1837 37.8137 10.9042 37.8837 10.6597 37.7438C7.20121 35.9248 4.37156 33.1264 2.5026 29.7158C2.27553 29.296 2.58993 28.7888 3.04407 28.7888H18.6595C19.236 28.7888 19.5154 29.401 19.0962 29.8382ZM12.4413 26.3402H1.48951C1.22751 26.3402 0.965504 26.1828 0.895636 25.9204C-0.274651 22.2125 -0.292118 18.2247 0.808301 14.4993C0.913103 14.0796 1.48951 13.9047 1.82139 14.2545L12.8954 25.3083C13.2797 25.6756 12.9828 26.3402 12.4413 26.3402ZM10.223 19.1167L2.4502 11.3861C2.24059 11.2287 2.18819 10.9314 2.32793 10.6865C4.14449 7.22344 6.92174 4.39003 10.3103 2.51858C10.7295 2.29121 11.2536 2.60603 11.2536 3.06078L11.271 18.697C11.271 19.2742 10.5898 19.554 10.223 19.1167ZM13.6465 12.488V1.50415C13.6465 1.2418 13.8212 0.996939 14.0832 0.909488C15.9522 0.314823 17.9609 0 19.987 0C21.8909 0 23.7599 0.314823 25.5415 0.822038C25.9607 0.944469 26.1354 1.50415 25.8035 1.83647L14.7644 12.9252C14.3976 13.31 13.7164 13.0127 13.6465 12.488ZM20.8779 10.2492L28.5983 2.46611C28.7729 2.27372 29.0873 2.20376 29.3319 2.36117C32.7554 4.14517 35.62 6.94359 37.4889 10.3367C37.6811 10.7739 37.4016 11.2812 36.9125 11.2812L21.2971 11.2986C20.7556 11.2986 20.511 10.634 20.8779 10.2492Z" fill="white"/>
</svg>
