<svg width="114" height="40" viewBox="0 0 114 40" fill="none" xmlns="http://www.w3.org/2000/svg">
<path d="M0 40.0089L2.89275 9.39457L8.45025 8.89457L6.08475 33.966L15.9743 33.066L15.447 38.6089L0 40.0089ZM28.6995 37.7231C21.2753 38.3803 19.9643 32.7231 20.2635 29.6374L22.3583 7.53743L27.9728 7.03743L25.878 29.1374C25.593 32.0231 28.0155 32.2374 29.2268 32.1374C30.3953 32.0231 32.9033 31.3803 33.174 28.4946L35.2688 6.39457L40.869 5.89457L38.7743 28.0374C38.5319 30.5945 37.3813 32.9791 35.532 34.7569C33.6828 36.5347 31.258 37.5874 28.6995 37.7231ZM57.1995 34.8374L51.0863 17.9803L49.5188 35.5231L43.9043 36.0231L46.797 5.40886L52.2548 4.90886L58.2968 22.2946L59.9213 4.23743L65.436 3.73743L62.5433 34.366L57.1995 34.8374ZM83.79 32.4374L82.65 25.5803L74.613 26.2946L72.1478 33.466L66.3623 33.9803L77.3348 2.65171L84.246 2.03743L89.547 31.9374L83.79 32.4374ZM80.1135 9.72314L76.494 20.6803L81.795 20.2089L80.1135 9.72314ZM107.018 30.2946L102.557 18.966L100.064 19.1803L98.952 31.0089L93.3375 31.5089L96.2303 0.908857L105.849 0.0517143C113.316 -0.605429 114.228 5.166 113.972 7.95171L113.829 9.29457C113.675 11.0177 113.108 12.678 112.175 14.1333C111.242 15.5887 109.971 16.7959 108.471 17.6517L113.316 29.766L107.018 30.2946ZM108.3 8.58029C108.571 5.73743 106.448 5.50886 105.236 5.60886L101.318 5.966L100.591 13.6517L104.595 13.2946C105.806 13.1946 107.915 12.6231 108.186 9.73743L108.3 8.58029Z" fill="white"/>
</svg>
