<svg width="257" height="40" viewBox="0 0 257 40" fill="none" xmlns="http://www.w3.org/2000/svg">
<path fill-rule="evenodd" clip-rule="evenodd" d="M0 30.793L0.061868 0.373248C0.061868 0.0622083 0.371208 0 0.371208 0H15.3433C15.6526 0 15.7145 0.311041 15.7145 0.311041L25.8608 19.3467C25.9846 19.5333 26.2321 19.5956 26.4177 19.5333C26.6033 19.4712 26.6651 19.1601 26.6651 19.1601L26.1702 0.435457C26.1702 0.186625 26.2321 0.0622083 26.4177 0.0622083H36.6259C37.059 0 37.1208 0.311041 37.1208 0.311041V30.6686C37.1208 30.6686 37.059 31.1041 36.6877 31.1041H22.2725C21.9631 31.1041 21.6538 31.1041 21.3444 30.6064L11.3219 11.5085C10.9506 11.0108 10.4557 11.3841 10.4557 11.944L11.0125 30.6686C11.0744 30.9175 10.8269 31.1041 10.5794 31.1041H0.371208C0.185604 31.1041 0 30.9175 0 30.793ZM58.5253 20.3422L52.2766 8.14946C52.2148 8.02506 52.0911 7.83843 51.9055 7.77622H41.5117C41.4469 7.77622 41.3779 7.77408 41.3076 7.77193C40.8405 7.7575 40.3148 7.74128 40.5837 8.33608L52.586 29.9224C53.3284 31.2909 52.8953 32.5351 51.0393 32.5351H44.605C44.3576 32.5351 44.2339 32.6594 44.1721 32.9083V39.6268C44.1721 40 44.5432 40 44.5432 40H54.0709C56.3599 39.9379 59.5771 38.9424 61.1857 36.0188L76.1578 8.08727C76.2816 7.71401 75.9102 7.71401 75.9102 7.71401H64.8978C64.7122 7.71401 64.4029 7.83843 64.2791 8.02506L59.0822 20.2801C59.144 20.3422 58.8347 20.9643 58.5253 20.3422ZM91.9353 16.2986L98.3696 8.08708C98.6789 7.77603 99.2356 7.71382 99.2356 7.71382H111.114C111.919 7.71382 111.3 8.33589 111.3 8.33589L103.443 16.734C103.319 16.9206 103.319 17.045 103.443 17.1695L114.332 30.6064C114.703 30.9175 114.393 31.1041 114.27 31.1041H100.535C100.16 31.1041 100.033 30.8897 99.9403 30.7317C99.9106 30.6811 99.8844 30.6365 99.8543 30.6064L93.2965 20.9641C92.9871 20.5288 92.6158 20.2799 91.6878 20.3422C91.3166 20.3422 91.3166 20.8397 91.3166 20.8397V30.6686C91.3166 30.6686 91.3166 31.1041 90.8835 31.1041H79.5617C79.3142 31.1041 79.1904 30.8553 79.1904 30.6686V0.311041C79.1904 0.124416 79.1904 0 79.5617 0H91.0073C91.0073 0 91.3166 0 91.3166 0.311041V15.9875C91.3166 16.3608 91.5022 16.6718 91.9353 16.2986ZM129.922 30.7311V16.1121L129.932 16.101L129.941 16.0913L129.949 16.0811L129.965 16.0622C130.018 15.9971 130.087 15.9115 130.231 15.8633L136.913 12.5662C137.16 12.4418 137.16 12.1308 137.16 12.1308V8.02506C137.16 7.83843 136.913 7.71401 136.913 7.71401H118.29C118.043 7.71401 117.981 8.08727 117.981 8.08727V30.7311C117.981 30.7311 118.105 31.0421 118.352 31.0421H129.612C129.922 31.1043 129.984 30.7311 129.922 30.7311ZM152.688 21.089C152.379 21.089 152.255 21.2135 152.255 21.4622H152.193V22.9553C152.193 24.1994 152.502 25.0081 153.121 25.3814C154.668 26.3146 158.442 26.1901 159.989 25.6925C160.978 25.3191 161.226 24.697 161.226 23.764C161.226 23.6396 161.412 23.453 161.659 23.453H172.919C173.228 23.453 173.29 23.764 173.29 24.0128C173.278 24.1046 173.267 24.2004 173.256 24.2997C172.961 26.8267 172.397 31.6643 155.967 31.6643C142.356 31.6643 140.067 27.061 140.067 23.5773V14.9926C140.067 11.5712 142.232 6.78112 155.967 6.78112C166.113 6.78112 170.382 8.46075 172.3 11.0113C173.352 12.4421 173.476 13.9351 173.476 13.9351V20.6535C173.476 20.8401 173.352 21.089 173.105 21.089H152.688ZM152.257 14.3702C152.319 13.8103 152.443 13.1883 152.814 12.8772C154.051 11.8197 159.805 11.8197 161.104 12.6906C161.723 13.1883 161.785 13.7481 161.847 14.3702V16.0499C161.847 16.2365 161.785 16.4853 161.476 16.4853H152.505C152.381 16.4853 152.195 16.3609 152.195 16.1121V14.3702H152.257ZM245.246 31.0424C240.915 31.0424 238.069 28.8029 238.069 24.386H238.007V2.36442C238.069 2.11558 238.379 2.05337 238.379 2.05337H249.515C249.823 2.05337 249.885 2.36442 249.885 2.36442V7.27885C249.885 7.46548 249.948 7.65211 250.195 7.71432H256.567C256.82 7.71432 256.866 7.83879 256.909 7.95219C256.919 7.97723 256.928 8.0029 256.94 8.02536V11.7578C256.926 11.7703 256.917 11.7852 256.904 11.8032C256.856 11.8748 256.777 11.9942 256.382 12.1933L250.133 15.3037C250.133 15.3037 249.885 15.5526 249.885 15.8636V22.8309C249.885 24.0751 250.813 24.6972 251.866 24.6972H256.692C256.94 24.6972 257 24.8215 257 25.0704V30.6069C257 30.8558 256.877 31.0424 256.63 31.0424H245.246ZM210.477 0H199.466C199.466 0 199.033 0.0622081 199.033 0.435457V7.15394C193.835 6.53185 185.978 6.0342 181.029 9.95331C178.987 11.5707 178.74 14.6811 178.74 16.4852V22.2705C178.74 24.4477 179.235 26.0031 179.668 26.8118C181.462 29.5488 183.875 30.2332 186.783 30.9175C190.949 31.8695 195.26 31.5103 197.915 31.289C198.727 31.2211 199.387 31.1662 199.836 31.1662H210.417C210.417 31.1662 210.725 31.0419 210.725 30.793V0.311041C210.725 0.311041 210.725 0 210.477 0ZM195.749 25.6302C197.419 25.6302 199.152 24.8836 199.152 23.0796V15.5524C199.152 13.7484 197.419 12.8775 195.749 12.8775H194.513C192.843 12.8775 191.11 13.7484 191.11 15.5524C191.11 15.5524 190.985 18.8495 190.985 19.2227C190.985 19.5959 191.11 23.0796 191.11 23.0796C191.11 24.8215 192.843 25.6302 194.513 25.6302H195.749ZM231.015 9.39369C231.015 9.20707 230.892 9.08265 230.707 9.08265H219.013C218.828 9.08265 218.703 9.20707 218.703 9.39369V30.6688C218.703 30.9177 218.888 31.0422 219.075 31.0422H230.644C230.829 31.0422 230.954 30.8554 230.954 30.6688V9.39369H231.015ZM230.707 0.0623809C230.892 0.0623809 231.015 0.186797 231.015 0.373423H230.954V6.221C230.954 6.40762 230.829 6.53204 230.644 6.53204H219.013C218.828 6.53204 218.703 6.40762 218.703 6.221V0.373423C218.703 0.186797 218.828 0.0623809 219.013 0.0623809H230.707Z" fill="white"/>
</svg>
