<svg width="96" height="40" viewBox="0 0 96 40" fill="none" xmlns="http://www.w3.org/2000/svg">
<path d="M5.20452 22.7809C2.89211 22.8464 0.896382 21.3683 0.257034 19.3179C0.14948 19.7232 0.0957031 20.1504 0.0957031 20.5994C0.161431 23.2934 2.47384 25.4093 5.27024 25.3795C8.06664 25.314 10.2835 23.0669 10.2177 20.3729C10.2177 19.9239 10.154 19.4968 10.0265 19.0915C9.4768 21.1775 7.55278 22.7153 5.20452 22.7809ZM8.77172 25.0875C8.47894 26.9828 5.68851 27.5252 5.68851 27.5252L5.32999 40C6.07092 39.3265 6.36371 38.7841 7.39145 33.0086C8.222 28.3954 8.93305 25.2484 8.77172 25.0875ZM3.17892 27.2034C3.17892 27.2034 1.47598 26.1484 1.2549 24.4795C1.05771 24.8312 2.44396 33.0086 2.44396 33.0086C2.44396 33.0086 3.14904 37.9497 3.98557 38.9748L3.17892 27.2034Z" fill="white"/>
<path d="M10.4088 10.6279C10.4088 6.93853 7.39135 1.83656 6.7759 0.972326C5.01321 -1.49521 5.36575 1.45511 5.36575 1.93193C5.36575 9.75772 0 8.38091 0 13.4173C0 15.9504 1.76866 17.2617 2.85615 18.4478C2.0256 16.5584 0.896283 14.508 3.59708 12.0345C5.27014 10.467 7.23001 9.14978 7.4511 6.74184C7.4511 6.74184 7.4511 6.52131 7.48695 6.52131C7.55268 6.52131 7.61243 6.7776 7.61243 6.7776C9.28549 12.0345 6.16643 12.261 4.46349 14.6332C2.89201 16.7849 4.08107 19.0259 5.23429 20.9213C5.52708 21.2074 5.46135 20.4087 5.46135 20.057C5.46135 15.563 10.4088 16.3021 10.4088 10.6279Z" fill="#EF7D1B"/>
<path fill-rule="evenodd" clip-rule="evenodd" d="M22.0068 33.3007H17.4775V20.8557H19.2761V31.7272H22.0068V33.3007ZM27.6294 33.3007L27.3426 32.502C27.3426 32.502 26.6674 33.4914 25.6038 33.4914C24.5163 33.4914 23.1659 33.0802 23.1659 30.5411C23.1659 28.008 25.09 27.5908 26.1536 27.5908H27.3068V26.4702C27.3068 25.6358 26.9542 25.4093 26.1177 25.4093C25.1915 25.4093 23.8411 25.8921 23.8411 25.8921V24.4497C23.8411 24.4497 25.09 23.9669 26.5061 23.9669C27.7609 23.9669 29.1113 24.3246 29.1113 26.5358V33.3007H27.6294ZM27.3068 28.7173H26.5001C25.5082 28.7471 24.9585 29.0391 24.9585 30.4815C24.9585 31.8881 25.3768 32.1146 25.9863 32.1146C26.6973 32.1146 27.3068 31.4113 27.3068 31.4113V28.7173ZM35.7856 33.3007V26.6312C35.7856 25.8921 35.6243 25.5404 34.9551 25.5404C34.0528 25.5404 32.9295 26.214 32.9295 26.214V33.3007H31.1309V24.1636H32.4753L32.8637 25.0279C32.8637 25.0279 34.0528 23.9669 35.4331 23.9669C36.8133 23.9669 37.5842 24.706 37.5842 26.3749V33.3007H35.7856ZM44.623 33.3007L44.4019 32.5616C44.4019 32.5616 43.6251 33.4914 42.3105 33.4914C41.2171 33.4914 39.3528 33.0802 39.3528 28.7471C39.3528 24.3842 41.6652 23.9669 42.6631 23.9669C43.4996 23.9669 44.0434 24.4199 44.2047 24.5808V20.8557H46.0032V33.3007H44.623ZM44.2047 25.8921C44.2047 25.8921 43.6609 25.4451 42.92 25.4451C42.0536 25.4451 41.1573 25.8265 41.1573 28.7471C41.1573 31.7629 41.9879 32.049 42.7288 32.049C43.4996 32.049 44.2047 31.4411 44.2047 31.4411V25.8921ZM50.7595 33.4914C49.6063 33.4914 47.999 33.11 47.999 33.11V20.8915H49.7975V24.7358C49.7975 24.7358 50.5026 24.0027 51.6618 24.0027C52.7851 24.0027 54.488 24.3842 54.488 28.6517C54.488 33.1398 52.3011 33.4914 50.7595 33.4914ZM51.2435 25.4451C50.4428 25.4451 49.7975 25.9577 49.7975 25.9577V32.0192C49.7975 32.0192 50.4727 32.1444 50.9208 32.1444C51.6618 32.1444 52.6895 31.7927 52.6895 28.6517C52.6895 25.5404 52.0143 25.4451 51.2435 25.4451ZM59.2742 33.4914C57.5115 33.4914 55.8086 32.657 55.8086 28.7471C55.8086 24.9921 57.4458 24.0027 59.2742 24.0027C60.9771 24.0027 62.7159 24.8371 62.7159 28.7471C62.7159 32.6927 61.013 33.4914 59.2742 33.4914ZM59.2742 25.2842C58.2465 25.2842 57.6071 25.9875 57.6071 28.7471C57.6071 31.5722 58.4735 32.1802 59.2742 32.1802C60.045 32.1802 60.9174 31.602 60.9174 28.7471C60.9174 25.8265 60.2063 25.2842 59.2742 25.2842ZM66.9225 33.4914C65.7633 33.4914 64.1619 33.11 64.1619 33.11V20.8915H65.9605V24.7358C65.9605 24.7358 66.6655 24.0027 67.8247 24.0027C68.9481 24.0027 70.6152 24.3842 70.6152 28.6517C70.6152 33.1398 68.4641 33.4914 66.9225 33.4914ZM67.4065 25.4451C66.5699 25.4451 65.9605 25.9577 65.9605 25.9577V32.0192C65.9605 32.0192 66.6357 32.1444 67.0539 32.1444C67.8247 32.1444 68.8166 31.7927 68.8166 28.6517C68.8166 25.5404 68.1414 25.4451 67.4065 25.4451ZM76.3992 33.3305L76.1422 32.5318C76.1422 32.5318 75.467 33.4914 74.4094 33.4914C73.2861 33.4914 71.9357 33.0742 71.9357 30.5411C71.9357 28.0437 73.8956 27.6265 74.9532 27.6265H76.1124V26.5C76.1124 25.6656 75.7598 25.4451 74.9233 25.4451C73.9613 25.4451 72.6408 25.9219 72.6408 25.9219V24.4795C72.6408 24.4795 73.8956 24.0027 75.3057 24.0027C76.5605 24.0027 77.9109 24.3544 77.9109 26.5358V33.3305H76.3992ZM76.0765 28.7173L75.2758 28.7471C74.278 28.7471 73.7342 29.0331 73.7342 30.5113C73.7342 31.9239 74.1525 32.1444 74.762 32.1444C75.467 32.1444 76.0765 31.4113 76.0765 31.4113V28.7173ZM84.5613 33.3305V26.661C84.5613 25.8921 84.4 25.5702 83.7248 25.5702C82.8225 25.5702 81.6992 26.2438 81.6992 26.2438V33.3305H79.9006V24.1636H81.2511L81.6394 25.0279C81.6394 25.0279 82.8225 24.0027 84.2088 24.0027C85.5891 24.0027 86.3599 24.706 86.3599 26.3749V33.3305H84.5613ZM93.0103 33.3305L90.4409 27.9126L92.6279 23.9014H94.5519L92.2096 27.7875L95.0658 33.3305H93.0103ZM88.3855 20.8915H90.2497V33.3305H88.3855V20.8915ZM51.5303 10.8246H52.5939V16.2127H51.5303V10.8246ZM51.5303 9.09017H52.5939V9.99017H51.5303V9.09017ZM37.3332 16.2127L35.8872 13.1312L37.1061 10.8246H38.1996L36.8791 13.0359L38.5223 16.2127H37.3332ZM34.6623 9.11997H35.7259V16.2127H34.6623V9.11997ZM20.1126 16.2067L19.7541 14.3769C19.5987 13.6378 19.3418 13.2862 19.1446 13.161L18.5352 13.2206V16.2067H17.4775V9.11997H19.0191C20.3695 9.11997 21.1702 9.53123 21.1702 11.1047C21.1702 12.1001 20.7221 12.6425 20.0469 12.9345C20.4651 13.161 20.6564 13.7034 20.8177 14.2458L21.2658 16.2067H20.1126ZM18.9594 9.94845H18.5411V12.4518C19.5987 12.3862 20.1126 12.261 20.1126 11.1047C20.1126 10.1094 19.7899 9.94845 18.9594 9.94845ZM27.6294 16.2067V12.2908C27.6294 11.8438 27.5338 11.6531 27.1514 11.6531C26.6017 11.6531 25.9623 12.0345 25.9623 12.0345V16.2067H24.8988V10.8186H25.7054L25.9265 11.3312C25.9265 11.3312 26.6017 10.7233 27.4382 10.7233C28.2449 10.7233 28.693 11.1405 28.693 12.1299V16.2067H27.6294ZM43.4996 16.3021C43.2427 16.3021 42.9857 16.2663 42.7587 16.1709L42.3105 17.2974H41.6353L42.2149 15.8551C41.7668 15.4974 41.474 14.7643 41.474 13.5127C41.474 11.2955 42.4719 10.7233 43.4996 10.7233C43.7267 10.7233 43.9836 10.7531 44.2047 10.8484L44.6588 9.72792H45.334L44.7544 11.1405C45.2026 11.522 45.4894 12.261 45.4894 13.5127C45.4894 15.8193 44.4975 16.3021 43.4996 16.3021ZM43.4996 11.4922C42.92 11.4922 42.5376 11.8736 42.5376 13.5127C42.5376 14.0253 42.5675 14.4067 42.6631 14.7286L43.9179 11.5875C43.7924 11.522 43.6311 11.4922 43.4996 11.4922ZM44.3361 12.261L43.0814 15.4021C43.2128 15.4974 43.3383 15.5332 43.4996 15.5332C43.9478 15.5332 44.4616 15.1815 44.4616 13.5127C44.4616 12.9643 44.4019 12.5471 44.3361 12.261ZM48.226 16.3021C47.515 16.3021 46.5828 16.0458 46.5828 16.0458V9.11997H47.6464V11.1405C47.6464 11.1405 48.0647 10.7233 48.7399 10.7233C49.4151 10.7233 50.3771 10.9438 50.3771 13.4471C50.3771 16.0756 49.1223 16.3021 48.226 16.3021ZM48.4829 11.5875C48.0288 11.5875 47.6464 11.8736 47.6464 11.8736V15.4378C47.6464 15.4378 48.0647 15.4974 48.2858 15.4974C48.7399 15.4974 49.3494 15.3067 49.3494 13.4471C49.3494 11.6531 48.9311 11.5875 48.4829 11.5875ZM56.675 16.2067V12.2908C56.675 11.8438 56.5794 11.6531 56.191 11.6531C55.6472 11.6531 55.0019 12.0345 55.0019 12.0345V16.2067H53.9443V10.8186H54.745L54.972 11.3312C54.972 11.3312 55.6472 10.7233 56.4778 10.7233C57.2844 10.7233 57.7326 11.1405 57.7326 12.1299V16.2067H56.675ZM22.4609 10.8186H23.5185V16.2067H22.4609V10.8186ZM22.4609 9.08421H23.5185V9.94845H22.4609V9.08421ZM39.3887 9.05441H40.4164V9.95441H39.3887V9.05441ZM40.4164 16.1411C40.4164 17.1961 39.8727 18.1915 38.7493 18.1915H38.4565V17.518H38.5521C39.1019 17.518 39.3887 16.8802 39.3887 16.1113V10.7829H40.4164V16.1411ZM32.9295 11.5577C33.1565 11.8438 33.2521 12.1955 33.2521 12.5531C33.2521 13.9001 32.5769 14.3769 31.5492 14.3769C31.1668 14.3769 30.9696 14.3173 30.9696 14.3173C30.9696 14.3173 30.7126 14.4723 30.7126 14.6988C30.7126 14.9551 30.874 15.0504 31.2325 15.0862L32.1288 15.1815C33.0609 15.2769 33.7062 15.5332 33.7062 16.5941C33.7062 17.7802 32.9295 18.2272 31.4237 18.2272C30.3601 18.2272 29.655 17.8756 29.655 16.9458C29.655 16.3676 30.0434 15.9802 30.3004 15.7597C30.0434 15.6286 29.8462 15.3723 29.8462 14.9551C29.8462 14.4723 30.2346 14.1564 30.4557 14.0253C30.1032 13.7392 29.8164 13.2564 29.8164 12.5173C29.8164 11.2061 30.617 10.7233 31.5492 10.7233C31.8718 10.7233 32.0332 10.8186 32.32 10.8186H33.8018V11.5577H32.9295ZM31.9316 16.0458L31.1608 15.9504C31.0652 15.9504 30.9337 15.9206 30.9337 15.9206C30.8083 16.1113 30.617 16.3974 30.617 16.7848C30.617 17.2676 30.9039 17.5239 31.4177 17.5239C32.32 17.5239 32.6725 17.2676 32.6725 16.6895C32.6725 16.1769 32.3797 16.0815 31.9316 16.0458ZM31.5432 11.4266C31.0951 11.4266 30.8381 11.7186 30.8381 12.5173C30.8381 13.3875 31.0652 13.7034 31.5432 13.7034C32.0571 13.7034 32.2184 13.3875 32.2184 12.5173C32.2184 11.7186 32.0272 11.4266 31.5432 11.4266ZM61.975 11.5577C62.1961 11.8438 62.2917 12.1955 62.2917 12.5531C62.2917 13.9001 61.6165 14.3769 60.5887 14.3769C60.2063 14.3769 60.0151 14.3173 60.0151 14.3173C60.0151 14.3173 59.7582 14.4723 59.7582 14.6988C59.7582 14.9551 59.9135 15.0504 60.2721 15.0862L61.1683 15.1815C62.1005 15.2769 62.7458 15.5332 62.7458 16.5941C62.7458 17.7802 61.975 18.2272 60.4633 18.2272C59.3997 18.2272 58.6946 17.8756 58.6946 16.9458C58.6946 16.3676 59.083 15.9802 59.3399 15.7597C59.083 15.6286 58.8858 15.3723 58.8858 14.9551C58.8858 14.4723 59.2742 14.1564 59.5013 14.0253C59.1427 13.7392 58.8559 13.2564 58.8559 12.5173C58.8559 11.2061 59.6566 10.7233 60.5887 10.7233C60.9114 10.7233 61.0727 10.8186 61.3595 10.8186H62.8414V11.5577H61.975ZM60.9473 16.0458L60.1765 15.9504C60.1107 15.9504 59.9793 15.9206 59.9793 15.9206C59.8179 16.1113 59.6626 16.3974 59.6626 16.7848C59.6626 17.2676 59.9494 17.5239 60.4633 17.5239C61.3297 17.5239 61.7181 17.2676 61.7181 16.6895C61.7181 16.1769 61.4253 16.0815 60.9473 16.0458ZM60.5589 11.4266C60.1406 11.4266 59.8837 11.7186 59.8837 12.5173C59.8837 13.3875 60.1107 13.7034 60.5589 13.7034C61.1086 13.7034 61.2639 13.3875 61.2639 12.5173C61.2639 11.7186 61.0727 11.4266 60.5589 11.4266Z" fill="white"/>
</svg>
