<svg width="212" height="40" viewBox="0 0 212 40" fill="none" xmlns="http://www.w3.org/2000/svg">
<path d="M206.327 7.97435C205.789 7.61935 204.895 6.93049 202.569 6.93049C200.014 6.93049 197.833 7.89089 196.192 9.53995C194.095 11.6484 192.869 14.8841 192.869 18.6624C192.869 22.9211 194.032 25.9271 195.839 27.8268C197.501 29.5803 199.702 30.3945 202.008 30.3945C204.314 30.3945 205.789 29.4341 206.805 28.6201L207.117 30.1022H211.167V0L206.307 1.35675V7.99512L206.327 7.97435ZM206.327 24.5285C206.079 24.946 205.351 25.9479 203.483 25.9479C202.091 25.9479 200.845 25.5514 199.869 24.6746C198.623 23.5265 197.833 21.5849 197.833 18.6416C197.833 15.6981 198.664 13.715 199.869 12.5669C200.845 11.6484 202.091 11.2309 203.336 11.2309C205.02 11.2309 205.87 11.8571 206.327 12.2329V24.5075V24.5285ZM145.786 30.0812L134.425 15.0093L134.591 30.0812H129.731L129.814 7.20184H134.176L145.537 22.1278L145.37 7.20184H150.147L150.064 30.0812H145.807H145.786ZM67.5489 24.6746C68.1304 25.2173 69.1274 25.8854 70.6434 25.8854C71.9935 25.8854 73.2811 25.4262 74.2572 24.424C75.3788 23.2759 76.1057 21.3971 76.1057 18.6416C76.1057 15.886 75.4825 13.9864 74.5896 12.88C73.6549 11.7319 72.4088 11.3352 71.225 11.3352C69.5219 11.3352 68.2342 12.066 67.528 12.6087V24.6746H67.5489ZM62.7096 7.20184H66.822L67.1958 8.80937C68.3796 7.84896 69.9372 6.93049 72.658 6.93049C75.1919 6.93049 77.2688 8.01608 78.8264 10.1036C80.3841 12.1911 81.0488 14.8841 81.0488 18.412C81.0488 21.6269 80.4881 23.9021 78.8264 26.3654C77.1857 28.8287 74.5896 30.2901 71.7857 30.2901C69.7088 30.2901 68.5042 29.956 67.5489 29.3506V37.325L62.6889 38.4941V7.18107L62.7096 7.20184ZM118.994 12.1077C118.35 11.6692 117.582 11.3769 116.564 11.3769C114.923 11.3769 113.324 12.3163 112.597 14.216V30.0605H107.737V7.18107H111.87L112.265 9.12245C113.511 7.57761 115.38 6.90972 117.623 6.90972C119.659 6.90972 121.05 7.45242 121.943 7.97435L118.994 12.1077ZM190.316 12.1077C189.672 11.6692 188.903 11.3769 187.885 11.3769C186.244 11.3769 184.644 12.3163 183.919 14.216V30.0605H179.078V7.18107H183.212L183.606 9.12245C184.853 7.57761 186.722 6.90972 188.966 6.90972C190.979 6.90972 192.391 7.45242 193.285 7.97435L190.335 12.1077H190.316ZM171.54 9.58168C173.553 11.6484 174.675 14.55 174.675 18.6624C174.675 22.775 173.512 25.6765 171.456 27.7433C169.566 29.622 167.302 30.478 164.52 30.478C161.736 30.478 159.514 29.643 157.665 27.785C155.61 25.6975 154.447 22.775 154.447 18.6624C154.447 14.55 155.61 11.6902 157.665 9.60265C159.536 7.703 161.82 6.84703 164.583 6.84703C167.343 6.84703 169.649 7.703 171.518 9.58168H171.54ZM167.739 12.546C166.867 11.6692 165.828 11.2517 164.54 11.2517C163.252 11.2517 162.236 11.6692 161.362 12.546C160.055 13.8819 159.389 15.886 159.389 18.6207C159.389 21.3553 160.033 23.3386 161.342 24.6536C162.214 25.5514 163.252 25.9689 164.54 25.9689C165.828 25.9689 166.887 25.5514 167.759 24.6536C169.047 23.3177 169.69 21.3346 169.69 18.6207C169.69 15.907 169.047 13.8819 167.739 12.5669V12.546ZM97.207 19.1636C94.7771 19.1636 92.4094 19.3095 90.914 20.2282C89.9587 20.8336 89.3564 21.7311 89.3564 23.109C89.3564 24.0692 89.7095 24.779 90.2494 25.3008C90.914 25.9271 91.8901 26.2402 92.9079 26.2402C94.1333 26.2402 95.1302 25.8644 95.8362 25.1756C96.7501 24.2988 97.207 23.088 97.207 21.3553V19.1426V19.1636ZM95.8987 12.024C95.0886 11.2309 93.8839 10.8342 92.3263 10.8342C90.4987 10.8342 89.0864 11.21 87.6741 11.6902L85.7634 7.74473C87.7986 7.13934 90.2702 6.6801 92.8457 6.6801C95.9609 6.6801 98.2039 7.51512 99.6786 9.08072C101.652 11.1682 101.984 13.736 101.984 17.577V30.0605H98.0379C98.0379 30.0605 97.5185 27.8475 97.5394 27.8268C96.6047 29.142 94.5693 30.2901 91.7032 30.2901C89.5224 30.2901 87.7157 29.622 86.3863 28.307C85.1402 27.0752 84.4549 25.3635 84.4549 23.1298C84.4549 21.1257 85.1402 19.6018 86.3447 18.3493C88.4217 16.1783 92.2432 15.3433 97.124 15.5312C97.124 13.9656 96.7087 12.7756 95.8987 11.9823V12.024ZM51.2244 16.3662C53.7581 16.8881 55.6066 17.556 56.9982 18.6624C58.3274 19.727 58.9505 21.2301 58.9505 23.2969C58.9505 25.5721 57.9536 27.5554 55.9804 28.8287C54.2775 29.9351 51.9514 30.5824 48.9606 30.5824C45.7829 30.5824 42.3352 29.8099 39.5938 28.5783L41.9821 24.3406C44.3497 25.4679 47.0705 26.0733 49.2513 26.0733C50.5182 26.0733 51.7229 25.9062 52.5536 25.3635C53.239 24.925 53.6543 24.3406 53.6543 23.4638C53.6543 22.6915 53.3843 22.1903 52.699 21.7521C52.0136 21.3136 50.9751 21.0005 49.6666 20.7499L48.2337 20.4786C45.762 20.0193 43.8928 19.2888 42.6259 18.2241C41.3798 17.1385 40.736 15.6981 40.736 13.7985C40.736 12.0033 41.4421 10.5211 42.6052 9.28937C44.1628 7.61935 46.8836 6.76357 49.9991 6.76357C52.4289 6.76357 55.3366 7.26453 58.2858 8.37089L55.8351 12.3373C53.6128 11.4813 51.5567 11.0848 49.8744 11.0848C48.4206 11.0848 47.2159 11.3561 46.5514 11.9198C46.0529 12.3373 45.762 12.8383 45.762 13.5064C45.762 14.1743 46.032 14.6545 46.6552 15.051C47.2783 15.4477 48.4621 15.7816 49.9366 16.0949L51.2036 16.3452L51.2244 16.3662Z" fill="white"/>
<path fill-rule="evenodd" clip-rule="evenodd" d="M24.419 15.9855C26.5049 15.9855 28.5079 16.349 30.3655 17.0034V0H0V40H7.83526C7.09843 38.0472 6.6937 35.9283 6.6937 33.7159C6.6937 23.921 14.6224 15.9855 24.4087 15.9855H24.419Z" fill="white"/>
<path fill-rule="evenodd" clip-rule="evenodd" d="M28.9037 34.4117C27.3678 34.8376 27.5961 36.2399 28.1253 36.915C28.7376 37.7044 29.8688 38.7327 29.6717 38.9197C29.4848 39.1067 28.4679 38.0992 27.6273 37.5278C25.7177 36.3438 25.1884 37.5278 25.1158 38.5457C25.0327 39.2209 25.0432 39.3456 24.9912 39.9896H30.3566V34.2352C29.8273 34.256 29.2565 34.3183 28.9037 34.4117Z" fill="white"/>
<path fill-rule="evenodd" clip-rule="evenodd" d="M25.7366 30.1531C26.2451 30.4855 26.9093 30.2258 27.4178 29.9558C28.3207 29.3844 28.6216 29.1456 28.7254 29.2391C28.8602 29.3844 28.4141 29.7896 28.0404 30.4958C27.3452 31.8462 27.8641 32.6252 28.8707 32.9472C29.2962 33.0822 29.8462 33.1029 30.3651 33.1341V19.8597C28.5386 19.0703 26.5253 18.634 24.4186 18.634C16.0955 18.634 9.36035 25.3854 9.36035 33.7054C9.36035 35.949 9.8481 38.0783 10.7302 39.9895H23.7648C23.7232 39.5325 23.744 39.1793 23.6714 38.4938C23.6195 37.3719 22.8619 36.5099 21.3053 37.4239C20.2778 38.0471 19.3646 39.117 19.1363 38.8988C18.9598 38.7223 19.8108 37.9121 20.7033 36.8422C21.6996 35.4088 20.6514 34.3494 19.2608 34.2663C16.2409 33.9547 14.6738 33.9339 14.6738 33.6534C14.6738 33.3731 16.6975 33.3314 19.3438 33.0718C20.9005 32.9264 21.6062 31.7112 20.6099 30.392C19.9458 29.5714 18.9495 28.647 19.1363 28.4497C19.3127 28.273 20.0287 29.0313 21.1496 29.8311C21.9798 30.3296 22.5402 30.3816 22.9242 30.2154C23.4638 29.9869 23.6299 29.3117 23.6714 28.9794C24.0035 26.445 23.962 21.5216 24.3771 21.5216C24.7506 21.5216 24.8441 26.0087 25.1658 28.9794C25.228 29.6026 25.4667 29.9558 25.7677 30.1531H25.7366Z" fill="white"/>
</svg>
