<svg width="196" height="40" viewBox="0 0 196 40" fill="none" xmlns="http://www.w3.org/2000/svg">
<path d="M40 0V40H0V0H40ZM7.62207 31.8896H32.3125V27.8828H7.62207V31.8896ZM16.9707 7.71973V14.6904C16.9707 15.9932 15.9287 17.0359 14.626 17.0361C13.323 17.0361 12.2803 15.9934 12.2803 14.6904V11.9873L7.62207 7.3291V24.6582H32.3125V7.29688L27.6553 11.9541V14.6904C27.6553 15.9934 26.6125 17.0361 25.3096 17.0361C24.0067 17.0361 22.9639 15.9933 22.9639 14.6904V7.71973L19.9678 4.72266L16.9707 7.71973Z" fill="white"/>
<path d="M186.938 24.9186H189.023C191.173 24.9186 192.508 25.6678 192.508 29.772C192.508 34.0391 191.433 35.0815 188.958 35.0815H186.905V24.9186H186.938ZM188.958 22.671H184.202V37.329H189.023C193.094 37.329 195.407 34.8861 195.407 29.7395C195.44 24.3974 192.703 22.671 188.958 22.671ZM158.469 31.3356L159.837 26.5147C159.967 26.0261 160.13 25.2118 160.13 24.7883H160.326C160.326 25.2118 160.488 25.9935 160.619 26.5147L161.954 31.3356H158.469ZM158.404 22.671L154.071 37.329H156.84L157.915 33.4854H162.41L163.485 37.329H166.319L162.117 22.671H158.404ZM134.755 22.671H131.987V37.329H140.456L140.228 34.9838H134.755V22.671ZM55.244 6.57982C55.244 5.27689 56.0583 4.75571 57.2961 4.75571C58.1104 4.75571 58.8922 4.85343 60.9443 5.34203L61.4981 2.99675C59.5762 2.54073 58.5665 2.41043 57.5567 2.41043C54.5925 2.41043 52.5078 4.0391 52.5078 6.74269C52.5078 8.72966 53.6479 9.9023 55.5371 10.5863L57.8824 11.4332C58.8922 11.8241 59.3482 12.2802 59.3482 13.2248C59.3482 14.43 58.6642 15.114 57.3612 15.114C56.4166 15.114 55.8954 15.0489 53.1593 14.2346L52.5078 16.5798C54.8205 17.3616 55.8303 17.4593 57.1007 17.4593C59.9345 17.4593 62.1169 15.9935 62.1169 13.0619C62.1169 10.9121 60.9443 9.77201 59.0876 9.08797L56.7749 8.24106C55.7 7.85018 55.244 7.42673 55.244 6.57982ZM59.6414 28.5994L64.1039 22.8339V22.671H61.2375L57.1658 28.1759C56.6772 28.86 56.3189 29.4789 56.1886 29.8698H56.0257V22.671H53.2896V37.329H56.0257V33.4528L57.915 31.0098L60.2603 35.4398C61.1072 37.0033 61.5958 37.3942 62.8661 37.3942C63.1919 37.3942 63.5827 37.3616 63.9411 37.329V34.9186C63.8108 34.9512 63.6805 34.9512 63.5176 34.9512C63.0941 34.9512 62.9313 34.886 62.6707 34.3649L59.6414 28.5994ZM72.4101 7.26386C72.4101 9.38113 71.3352 9.86973 70.0323 9.86973H68.2082V4.82086H70.1626C71.4003 4.82086 72.4101 5.27689 72.4101 7.26386ZM75.244 7.23129C75.244 3.87623 73.3222 2.60587 70.1951 2.60587H65.5046V17.2639H68.2082V12.1173H69.9997C72.8661 12.0847 75.244 10.7818 75.244 7.23129ZM74.2994 27.0684C74.2994 28.7297 73.485 29.544 72.0192 29.544H69.9671V24.8209H72.1495C73.6805 24.8209 74.2994 25.6352 74.2994 27.0684ZM77.0355 26.9707C77.0355 23.9088 75.1463 22.7036 72.3124 22.7036H67.2635V37.3616H69.9671V31.6613H71.9541L73.9411 35.6678C74.5925 37.0033 75.1789 37.4593 76.4492 37.4593C76.7424 37.4593 77.231 37.4268 77.5241 37.3616V34.9512C77.4264 34.9838 77.231 34.9838 77.0681 34.9838C76.6121 34.9838 76.5144 34.8535 76.2538 34.3974L74.4622 31.0098C76.1235 30.3258 77.0355 28.9903 77.0355 26.9707ZM84.2668 11.2704H80.7815L82.1496 6.44953C82.2798 5.96093 82.4427 5.14659 82.4427 4.72314H82.6382C82.6382 5.14659 82.801 5.92835 82.9313 6.44953L84.2668 11.2704ZM85.8303 17.2639H88.6642L84.4623 2.60587H80.7489L76.4166 17.2639H79.1854L80.2603 13.4202H84.7554L85.8303 17.2639ZM89.1528 30.0326C89.1528 34.3975 88.0779 35.2769 86.0584 35.2769C84.0062 35.2769 82.9639 34.3649 82.9639 30.0326C82.9639 25.6678 83.9737 24.7557 86.0258 24.7557C88.0779 24.7557 89.1528 25.6678 89.1528 30.0326ZM92.0518 30.0326C92.0518 24.5929 89.8043 22.5082 86.0584 22.5082C82.345 22.5082 80.0649 24.8209 80.0649 30.0978C80.0649 35.5049 82.2798 37.5571 86.0584 37.5571C89.7717 37.5245 92.0518 35.3747 92.0518 30.0326ZM98.6968 7.00327C98.6968 8.66451 97.8825 9.47884 96.4167 9.47884H94.3646V4.75571H96.547C98.0779 4.72314 98.6968 5.57005 98.6968 7.00327ZM100.912 17.3616C101.205 17.3616 101.694 17.329 101.987 17.2639V14.8534C101.889 14.886 101.694 14.886 101.531 14.886C101.075 14.886 100.977 14.7557 100.716 14.2997L98.9248 10.9121C100.553 10.2606 101.466 8.9251 101.466 6.90555C101.466 3.84366 99.5763 2.63844 96.7424 2.63844H91.6935V17.2964H94.3971V11.5961H96.3841L98.3711 15.6026C99.0551 16.9056 99.6414 17.3616 100.912 17.3616ZM104.071 31.2378C104.071 31.7264 104.104 32.3453 104.169 32.8665H103.974C103.811 32.3128 103.583 31.7264 103.322 31.2378L98.6968 22.671H95.7652V37.329H98.2734V28.3062C98.2734 27.7525 98.2408 27.1662 98.2082 26.6124H98.4036C98.5339 27.1662 98.762 27.7851 99.0551 28.3062L103.941 37.329H106.645V22.671H104.137V31.2378H104.071ZM105.472 17.2639H114.397L114.202 14.9512H108.208V10.9772H113.811V8.69709H108.208V4.88601H114.137V2.5733H105.472V17.2639ZM115.765 33.0945V22.7036H113.029V33.518C113.029 34.5929 112.606 35.0163 111.368 35.0163C111.042 35.0163 110.554 34.9838 110.032 34.886L109.902 37.2965C110.228 37.3942 111.107 37.4593 111.596 37.4593C114.137 37.4593 115.765 35.9935 115.765 33.0945ZM124.299 8.50164L128.762 2.73616V2.5733H125.896L121.824 8.07819C121.335 8.76224 120.977 9.4137 120.847 9.77201H120.684V2.5733H117.948V17.2313H120.684V13.3551L122.573 10.9121L124.918 15.342C125.765 16.9056 126.221 17.2964 127.524 17.2964C127.85 17.2964 128.241 17.2639 128.599 17.2313V14.8209C128.469 14.8534 128.339 14.8534 128.176 14.8534C127.72 14.8534 127.589 14.7883 127.329 14.2671L124.299 8.50164ZM125.081 31.7264L129.12 22.671H126.352L124.299 27.557C124.104 28.0131 123.843 28.8274 123.843 29.1857H123.713C123.681 28.8274 123.485 28.0131 123.257 27.557L121.107 22.671H118.273L122.345 31.6939V37.2965H125.114V31.7264H125.081ZM138.957 11.2704H135.472L136.84 6.44953C136.97 5.96093 137.133 5.14659 137.133 4.72314H137.296C137.296 5.14659 137.459 5.92835 137.589 6.44953L138.957 11.2704ZM140.521 17.2639H143.355L139.153 2.60587H135.44L131.107 17.2639H133.876L134.951 13.4202H139.446L140.521 17.2639ZM146.156 22.671H143.387V37.329H151.856L151.628 34.9838H146.156V22.671ZM148.697 6.57982C148.697 5.27689 149.511 4.75571 150.749 4.75571C151.563 4.75571 152.345 4.85343 154.397 5.34203L154.951 2.99675C153.029 2.54073 152.019 2.41043 150.977 2.41043C148.013 2.41043 145.928 4.0391 145.928 6.74269C145.928 8.72966 147.068 9.9023 148.957 10.5863L151.303 11.4332C152.313 11.8241 152.769 12.2802 152.769 13.2248C152.769 14.43 152.085 15.114 150.782 15.114C149.837 15.114 149.316 15.0489 146.58 14.2346L145.928 16.5798C148.241 17.3616 149.251 17.4593 150.521 17.4593C153.355 17.4593 155.537 15.9935 155.537 13.0619C155.537 10.9121 154.365 9.77201 152.508 9.08797L150.195 8.24106C149.153 7.85018 148.697 7.42673 148.697 6.57982ZM160.912 6.57982C160.912 5.27689 161.726 4.75571 162.964 4.75571C163.778 4.75571 164.56 4.85343 166.612 5.34203L167.166 2.99675C165.244 2.54073 164.234 2.41043 163.192 2.41043C160.228 2.41043 158.143 4.0391 158.143 6.74269C158.143 8.72966 159.283 9.9023 161.172 10.5863L163.518 11.4332C164.528 11.8241 164.984 12.2802 164.984 13.2248C164.984 14.43 164.3 15.114 162.997 15.114C162.052 15.114 161.531 15.0489 158.795 14.2346L158.143 16.5798C160.456 17.3616 161.466 17.4593 162.736 17.4593C165.57 17.4593 167.752 15.9935 167.752 13.0619C167.752 10.9121 166.58 9.77201 164.723 9.08797L162.41 8.24106C161.368 7.85018 160.912 7.42673 160.912 6.57982ZM171.107 17.2639H180.032L179.837 14.9512H173.876V10.9772H179.479V8.69709H173.876V4.88601H179.804V2.5733H171.14V17.2639H171.107ZM177.361 37.329H180.065V22.671H177.557V31.2378C177.557 31.7264 177.589 32.3453 177.655 32.8665H177.459C177.296 32.3128 177.068 31.7264 176.808 31.2378L172.182 22.671H169.251V37.329H171.759V28.3062C171.759 27.7525 171.726 27.1662 171.694 26.6124H171.889C172.019 27.1662 172.247 27.7851 172.541 28.3062L177.361 37.329ZM191.759 17.2639H194.462V2.60587H191.954V11.1727C191.954 11.6613 191.987 12.2802 192.052 12.8013H191.857C191.694 12.2476 191.466 11.6613 191.205 11.1727L186.58 2.60587H183.648V17.2639H186.156V8.24106C186.156 7.68731 186.124 7.10099 186.091 6.54724H186.287C186.417 7.10099 186.645 7.71989 186.938 8.24106L191.759 17.2639Z" fill="white"/>
</svg>
