<svg width="205" height="40" viewBox="0 0 205 40" fill="none" xmlns="http://www.w3.org/2000/svg">
<path d="M65.8593 18.0759C61.5558 15.3519 54.018 16.1056 54.018 11.5172C54.018 8.25104 56.0773 7.6031 59.3248 7.6031C62.0046 7.6031 64.0508 8.26426 64.0508 8.26426L64.7769 10.9882H66.9286V6.70392C66.9286 6.70392 63.7208 5.13036 58.5327 5.13036C53.3447 5.13036 49.6748 7.32541 49.6748 11.9271C49.6748 16.5156 51.9058 18.1817 58.1631 19.8478C63.0079 21.1437 64.3808 22.1222 64.5524 24.6346C64.8693 29.1437 62.097 29.8049 58.4535 29.8049C55.4305 29.8049 52.7375 28.5619 52.7375 28.5619L52.0642 25.4148H49.9124V30.3074C49.9124 30.3074 54.4404 32.238 58.6779 32.238C64.6448 32.238 69.186 31.114 69.186 24.714C69.186 21.3685 68.3015 19.6098 65.8593 18.0759ZM83.3904 15.418L86.0438 15.8808L81.0274 28.3768L75.7998 15.8808L77.8195 15.418V13.9238H68.6976V15.418L71.3642 15.8808L78.176 31.7619H79.4829L78.4928 34.1289C77.0143 37.7917 75.2849 37.9901 73.978 37.9901C73.384 37.9901 72.9483 37.9107 72.9483 37.9107L72.5787 35.3983H70.5589V39.4975C70.5589 39.4975 72.0771 40 73.978 40C77.6875 40 79.3376 38.9157 81.0274 34.8694L88.8688 15.8941L91.5355 15.4312V13.937H83.3904V15.4312V15.418ZM109.727 5.52705L102.704 5.54028V7.08739L105.383 7.58988V14.5321C104.71 14.1883 102.492 13.3155 99.2581 13.3155C94.7961 13.3155 91.9183 16.9651 91.9183 22.9156C91.9183 28.8528 94.5321 32.2776 98.7961 32.2776C101.793 32.2776 105.463 30.3603 105.463 30.3603L105.581 31.7487L112.393 31.8016V30.4132L109.713 29.9636V5.52705H109.727ZM105.383 28.2974C105.383 28.2974 102.73 29.5404 100.578 29.5404C98.004 29.5404 96.5255 27.385 96.5255 22.6776C96.5255 18.4329 98.0436 15.9998 100.869 15.9998C103.271 15.9998 105.383 16.4627 105.383 16.4627V28.3107V28.2974ZM128.155 13.3023C124.406 13.3023 121.449 14.5982 121.449 14.5982V5.51383L114.413 5.54028V7.07417L117.093 7.57665V31.6958H121.106L121.423 30.2545C121.423 30.2545 123.891 32.238 127.561 32.238C132.023 32.238 134.888 28.6016 134.888 22.6644C134.888 16.7271 132.406 13.3023 128.142 13.3023H128.155ZM125.964 29.5669C123.561 29.5669 121.449 28.4165 121.449 28.4165V16.7271C121.449 16.7271 124.235 16.0263 126.386 16.0263C128.961 16.0263 130.307 18.1949 130.307 22.9024C130.307 27.147 128.802 29.5669 125.964 29.5669ZM177.29 19.7023C177.29 16.8461 177.158 15.9998 176.313 14.9552C175.389 13.8048 173.923 13.1833 171.89 13.1833C170.122 13.1921 167.807 13.8136 164.947 15.0478L164.815 13.9106H158.003V15.3784L160.683 15.8676V29.8578L158.122 30.3206V31.6826H167.402V30.3206L165.026 29.8578V17.1767C165.026 17.1767 167.508 16.1585 169.963 16.1585C173.237 16.1585 172.947 18.2346 172.947 20.509V29.8578L170.57 30.3206V31.6826H179.97V30.3206L177.303 29.8578V19.7023H177.29ZM153.277 20.1916C153.277 17.8379 153.277 15.8808 151.944 14.6379C151.046 13.8312 149.62 13.3023 147.138 13.3023C142.914 13.3023 139.205 14.6775 139.205 14.6775V18.1817H140.934L141.317 16.2908C141.317 16.2908 143.746 15.7222 145.528 15.7222C148.591 15.7222 149.026 16.6478 149.026 19.8875V20.6941C144.841 20.7338 137.766 20.5222 137.766 26.4065C137.766 30.2677 140.168 32.3041 143.165 32.3041C144.973 32.3041 146.584 31.7752 149.105 30.4661L149.237 31.7487H155.825V30.347L153.277 29.99V20.2048V20.1916ZM149.026 28.509C149.026 28.509 146.954 29.7123 145.145 29.7123C143.917 29.7123 142.148 29.0247 142.148 26.4726C142.148 23.9206 144.353 22.7305 149.026 22.7305V28.509ZM202.293 29.752L193.778 21.2759L200.009 15.8544L202.649 15.3784V13.8841H193.831V15.3784L196.26 15.8544L190.491 20.9718H189.039V5.42127L182.029 5.44771V6.92871L184.709 7.41797V29.752L182.148 30.2148V31.709H191.428V30.2148L189.039 29.752V23.1404H190.636L197.355 29.8313L195.138 30.2148V31.7355H204.88V30.2148L202.293 29.752Z" fill="white"/>
<path d="M19.4717 33.415H39.9863V35.9541C39.9863 36.083 39.9786 36.2102 39.9668 36.3359C39.7721 38.3792 38.0354 39.9863 35.9463 39.9863H4.03906C3.96963 39.9863 3.90061 39.9849 3.83203 39.9814C1.70937 39.8727 0.000218071 38.1057 0 35.9541V32.3438L19.4717 12.9316V33.415ZM35.9463 0C37.9561 0 39.6411 1.48754 39.9395 3.42969C39.9701 3.63061 39.9863 3.83639 39.9863 4.0459V25.9697H26.9043V5.50098H16.3691L0 21.8711V4.0459C1.03403e-05 3.76651 0.0291696 3.49392 0.0830078 3.23047C0.462067 1.38692 2.09878 0.000223905 4.03906 0H35.9463Z" fill="white"/>
</svg>
