<svg width="189" height="40" viewBox="0 0 189 40" fill="none" xmlns="http://www.w3.org/2000/svg">
<g clip-path="url(#clip0_361_6278)">
<path d="M39.4316 0.5V39.5H0.5V0.5H39.4316Z" fill="#11366B" stroke="white"/>
<path d="M34.519 20.0909C34.519 30.4884 28.5768 34.7596 19.8753 34.7596C11.272 34.7596 5.32227 30.496 5.32227 20.0909C5.32227 9.68572 11.2644 5.42219 19.966 5.42219C28.5693 5.42219 34.519 9.68572 34.519 20.0909Z" fill="white"/>
<path d="M7.54492 20.0909C7.54492 28.8906 12.0734 32.5331 19.966 32.5331C27.8586 32.5331 32.3871 28.8906 32.3871 20.0909C32.3871 11.2912 27.8586 7.64862 19.966 7.64862C11.9826 7.64862 7.54492 11.2912 7.54492 20.0909Z" fill="#11366B"/>
<path d="M14.0158 10.3143V14.4945H10.0241C9.6688 15.6532 9.4042 18.0462 9.31348 19.2957H13.9251V29.9583C14.9003 30.3143 17.3876 30.7611 18.5367 30.7611V22.5824L25.5448 29.7842C26.3462 29.5191 28.8258 27.3836 29.0904 26.6717L22.173 19.2957H30.4286C30.3378 17.7811 30.0732 15.744 29.6272 14.4945H18.635V9.51912C17.6597 9.60242 14.3711 10.1325 14.0158 10.3143Z" fill="white"/>
<path d="M56.3451 13.245L49.4277 26.5808H51.8243L53.684 23.0292H60.6921L62.5519 26.5808H65.0391L58.2956 13.245H56.3451ZM57.1465 15.8198L59.8983 21.1511H54.4854L57.1465 15.8198Z" fill="white"/>
<path d="M66.6416 13.245V26.5808H75.6909V24.7103H68.9474V13.245H66.6416Z" fill="white"/>
<path d="M77.2861 13.245V26.5808H79.5919V21.6054H83.319C85.8063 21.6054 89.0873 21.1586 89.0873 17.251C89.0873 14.3203 86.6908 13.2526 84.7403 13.2526H77.2861M84.2035 15.1079C85.3602 15.1079 86.6908 15.9106 86.6908 17.2435C86.6908 19.1064 85.8894 19.7349 83.6743 19.7349H79.5012V15.1155H84.2035V15.1079Z" fill="white"/>
<path d="M101.417 13.245V18.6672H93.2599V13.245H90.9541V26.5808H93.2599V20.5301H101.417V26.5808H103.731V13.245H101.417Z" fill="white"/>
<path d="M112.334 13.245L105.417 26.5808H107.814L109.673 23.0292H116.681L118.541 26.5808H121.028L114.285 13.245H112.334ZM113.136 15.8198L115.888 21.1511H110.475L113.136 15.8198Z" fill="white"/>
<path d="M126.713 13.245V26.5808H134.968C137.274 26.5808 139.58 25.4222 139.58 22.7565C139.58 22.6657 139.489 20 137.183 19.4699C138.159 19.114 138.779 18.1371 138.779 16.6225C138.779 15.0246 137.622 13.245 134.432 13.245H126.713ZM134.341 20.5301C136.382 20.5301 137.357 21.242 137.357 22.749C137.357 23.9909 136.382 24.7028 134.606 24.7028H129.019V20.5301H134.341ZM134.25 15.1079C135.762 15.1079 136.556 15.638 136.556 16.6225C136.556 17.5994 136.291 18.6672 133.63 18.6672H129.019V15.1155H134.25V15.1079Z" fill="white"/>
<path d="M157.588 26.5808H159.538V15.4638L168.943 26.5808H171.256V13.245H169.298V23.6426L160.34 13.245H157.588V26.5808Z" fill="white"/>
<path d="M185.455 13.245L177.373 19.7349V13.245H175.067V26.5808H177.373V21.8629L179.331 20.265L185.893 26.5808H189L180.926 19.0231L188.116 13.245H185.455Z" fill="white"/>
<path d="M147.118 13.245L140.2 26.5808H142.597L144.456 23.0292H151.465L153.324 26.5808H155.812L149.068 13.245H147.118ZM148.002 15.9106L150.754 21.242H145.341L148.002 15.9106Z" fill="white"/>
</g>
<defs>
<clipPath id="clip0_361_6278">
<rect width="189" height="40" fill="white"/>
</clipPath>
</defs>
</svg>
