<svg width="310" height="40" viewBox="0 0 310 40" fill="none" xmlns="http://www.w3.org/2000/svg">
<g clip-path="url(#clip0_361_6323)">
<path d="M115.861 12.4956C115.967 12.4956 116.074 12.4956 116.109 12.531V20.2832C115.684 20.2832 115.118 20.2478 114.446 20.2478C112.782 20.2478 111.508 20.708 110.624 21.6637C109.739 22.6195 109.279 23.8584 109.279 25.3805V35.5398H102.024V12.9204H109.279V15.9646H109.314C111.048 13.6283 113.242 12.4602 115.861 12.4602V12.4956Z" fill="white"/>
<path d="M158.539 2.54868H165.758V35.5398H158.928V33.0973H158.822C157.265 35.0089 155.142 35.9646 152.346 35.9646C149.55 35.9646 146.684 34.9027 144.702 32.7434C142.72 30.5841 141.729 27.7522 141.729 24.2832C141.729 20.8142 142.72 18.0531 144.702 15.823C146.684 13.5929 149.126 12.4956 152.063 12.4956C155 12.4956 156.84 13.4513 158.468 15.3628H158.574V2.54868H158.539ZM150.364 28.1416C151.284 29.1327 152.452 29.6283 153.868 29.6283C155.283 29.6283 156.451 29.1327 157.406 28.1416C158.362 27.1504 158.822 25.8761 158.822 24.2478C158.822 22.6195 158.362 21.4159 157.442 20.4248C156.522 19.3982 155.319 18.9027 153.868 18.9027C152.417 18.9027 151.32 19.3982 150.4 20.3894C149.479 21.3805 149.019 22.6903 149.019 24.2478C149.019 25.8053 149.479 27.115 150.4 28.1062L150.364 28.1416Z" fill="white"/>
<path d="M169.615 35.5752V12.9557H176.764V35.5752H169.615Z" fill="white"/>
<path d="M196.369 12.9558H203.623V35.5752H196.793V33.1327H196.687C195.201 35.0442 193.113 36 190.388 36C187.663 36 184.691 34.9381 182.709 32.7788C180.727 30.6195 179.736 27.7876 179.736 24.3186C179.736 20.8496 180.727 18.0531 182.709 15.823C184.691 13.6283 187.132 12.531 190.105 12.531C193.078 12.531 194.706 13.4867 196.333 15.3982H196.369V12.9912V12.9558ZM191.91 29.6637C193.255 29.6637 194.422 29.1681 195.342 28.177C196.263 27.1858 196.723 25.8761 196.723 24.3186C196.723 22.7611 196.263 21.4867 195.342 20.4956C194.422 19.469 193.29 18.9735 191.945 18.9735C190.6 18.9735 189.397 19.469 188.477 20.4602C187.557 21.4513 187.097 22.7611 187.097 24.3186C187.097 25.8761 187.557 27.2212 188.442 28.2124C189.327 29.2035 190.494 29.6991 191.91 29.6991V29.6637Z" fill="white"/>
<path d="M225.776 18.0885C230.093 19.2566 232.252 22.0177 232.252 26.4071C232.252 30.7965 231.367 31.3628 229.562 33.0265C227.758 34.6903 225.174 35.5398 221.777 35.5398H207.374V2.76106H219.76C223.369 2.76106 226.059 3.46903 227.864 4.84956C229.669 6.23009 230.553 8.21239 230.553 10.7611C230.553 13.3097 228.961 16.708 225.811 18.0177V18.1239L225.776 18.0885ZM214.912 9.55752V15.8584H218.557C219.76 15.8584 220.751 15.5752 221.529 15.0088C222.308 14.4425 222.697 13.6991 222.697 12.708C222.697 10.6195 221.211 9.55752 218.274 9.55752H214.912ZM219.335 28.8142C220.822 28.8142 221.989 28.531 222.874 27.9292C223.759 27.3274 224.183 26.4779 224.183 25.3805C224.183 24.2832 223.759 23.5044 222.945 22.8673C222.131 22.2301 220.928 21.9115 219.3 21.9115H214.876V28.8496H219.3L219.335 28.8142Z" fill="white"/>
<path d="M250.902 12.9558H258.157V35.5752H251.327V33.1327H251.22C249.734 35.0442 247.646 36 244.921 36C242.196 36 239.224 34.9381 237.242 32.7788C235.26 30.6195 234.27 27.7876 234.27 24.3186C234.27 20.8496 235.26 18.0531 237.242 15.823C239.224 13.6283 241.666 12.531 244.638 12.531C247.611 12.531 249.239 13.4867 250.867 15.3982H250.902V12.9912V12.9558ZM246.408 29.6637C247.752 29.6637 248.92 29.1681 249.84 28.177C250.76 27.1858 251.22 25.8761 251.22 24.3186C251.22 22.7611 250.76 21.4867 249.84 20.4956C248.92 19.469 247.788 18.9735 246.443 18.9735C245.098 18.9735 243.895 19.469 242.975 20.4602C242.055 21.4513 241.595 22.7611 241.595 24.3186C241.595 25.8761 242.055 27.2212 242.94 28.2124C243.824 29.2035 244.992 29.6991 246.408 29.6991V29.6637Z" fill="white"/>
<path d="M275.886 12.4956C281.301 12.4956 284.025 15.6814 284.025 22.0177V35.5752H276.771V23.7876C276.771 22.0177 276.488 20.7434 275.922 20.0354C275.355 19.3274 274.435 18.9735 273.161 18.9735C271.887 18.9735 270.897 19.4336 270.153 20.3186C269.41 21.2035 269.056 22.5133 269.056 24.2124V35.5752H261.802V12.9558H269.056V15.6814C270.897 13.5575 273.197 12.4956 275.886 12.4956Z" fill="white"/>
<path d="M297.296 27.292H297.19L294.854 29.9823V35.5752H287.6V2.54868H294.854V20.4248H294.89L301.436 12.9204H309.788L302.038 21.7345L310 35.5044H302.003L297.296 27.2212V27.292Z" fill="white"/>
<path d="M139.96 24.0708C139.96 24.885 139.89 25.5929 139.783 26.1947H124.425C124.673 27.4336 125.274 28.3894 126.265 29.0973C127.221 29.8053 128.388 30.1239 129.769 30.1239C131.857 30.1239 133.697 29.2035 135.218 27.3982L139.04 31.6814C138.014 32.9912 136.669 34.0177 134.935 34.7965C133.201 35.5752 131.22 35.9646 128.99 35.9646C125.593 35.9646 122.797 34.8673 120.568 32.708C118.338 30.5487 117.241 27.7168 117.241 24.2124C117.241 20.708 118.303 17.9823 120.462 15.7876C122.62 13.5929 125.345 12.4956 128.672 12.4956C131.998 12.4956 134.688 13.5575 136.775 15.7168C138.899 17.8761 139.925 20.6372 139.925 24.0354L139.96 24.0708ZM129.096 18.0177C127.893 18.0177 126.867 18.3363 126.017 19.0088C125.168 19.6814 124.602 20.6726 124.39 21.9115H133.52C133.272 20.708 132.741 19.7522 131.998 19.0442C131.22 18.3363 130.264 17.9823 129.096 17.9823V18.0177Z" fill="white"/>
<path d="M176.445 9.06195C175.561 9.84071 174.499 10.2301 173.225 10.2301C171.951 10.2301 170.889 9.84071 170.005 9.06195C169.12 8.28319 168.695 7.25664 168.695 6.0177C168.695 4.77876 169.12 3.78761 170.005 2.97345C170.889 2.19469 171.951 1.80531 173.225 1.80531C174.499 1.80531 175.561 2.19469 176.445 2.97345C177.33 3.75222 177.755 4.77876 177.755 6.0177C177.755 7.25664 177.33 8.24779 176.445 9.06195Z" fill="white"/>
<path d="M14.1553 20.0354C14.1553 8.17698 20.3482 2.90265 20.3482 2.90265C18.331 0.778754 15.3231 0.141586 12.7043 0.141586C5.69749 0.141586 0 9.02654 0 20.0354C0 31.0442 5.69749 39.9292 12.7043 39.9292H25.0194C24.347 39.6106 14.1906 35.7522 14.1906 20.0354H14.1553Z" fill="white"/>
<path d="M30.2923 40C43.1382 40 49.6142 23.3982 40.1656 13.8053C41.1211 8.63717 37.7946 0 27.709 0H17.8711C19.8882 0.460177 27.7798 3.18584 27.0366 13.5575C30.8231 18.1593 32.3095 23.1504 31.2832 27.9646C30.2216 32.9912 26.7535 36.7788 24.4533 38.0531C26.7535 39.7168 28.2044 39.9646 30.3277 39.9646L30.2923 40Z" fill="white"/>
<path d="M91.3372 27.5398C89.9924 28.2478 88.6123 28.5664 87.1614 28.5664C84.5427 28.5664 82.4194 27.6814 80.7915 25.8761C79.1637 24.1062 78.3497 21.8761 78.3497 19.2212C78.3497 16.5664 79.1991 13.9469 80.8977 12.2124C82.5963 10.4779 84.6842 9.59292 87.1968 9.59292C89.7093 9.59292 90.0986 9.9469 91.408 10.6903C92.7173 11.3982 93.8144 12.3186 94.6991 13.3805L100.22 8.38938C98.521 6.37168 96.5392 4.84956 94.2744 3.82301C91.9034 2.76106 89.5678 2.26549 87.1968 2.26549C81.9593 2.26549 77.8189 3.89381 74.8109 7.07965C71.8029 10.3009 70.2812 14.3363 70.2812 19.2212C70.2812 24.1062 71.9091 28.531 75.1648 31.5044C78.4205 34.4779 82.4194 35.9646 87.1968 35.9646C91.9742 35.9646 92.505 35.3982 94.7344 34.2301C96.9285 33.0973 98.7687 31.646 100.255 29.8407L94.6991 24.8142C93.8144 25.9115 92.6819 26.8319 91.3372 27.5044V27.5398Z" fill="white"/>
</g>
<defs>
<clipPath id="clip0_361_6323">
<rect width="310" height="40" fill="white"/>
</clipPath>
</defs>
</svg>
