<svg width="310" height="41" viewBox="0 0 310 41" fill="none" xmlns="http://www.w3.org/2000/svg">
<g clip-path="url(#clip0_361_6293)">
<path d="M45.2176 22.336V22.3307L31.6203 2.00787L14.663 27.2764L14.6416 27.3085H23.22L31.6061 14.8301L43.3219 32.322L43.3433 32.354L43.3594 32.3184C44.7042 29.1677 45.3392 25.7596 45.2194 22.336" fill="white"/>
<mask id="mask0_361_6293" style="mask-type:luminance" maskUnits="userSpaceOnUse" x="0" y="0" width="37" height="41">
<path d="M0 0H36.4606V40.977H0V0Z" fill="white"/>
</mask>
<g mask="url(#mask0_361_6293)">
<path d="M31.6877 33.847H2.55839L25.1011 0.172834L25.1189 0.144328L25.0868 0.140765C22.023 -0.206242 18.9204 0.0867836 15.9757 1.00128L15.9632 1.00306L0.00356322 24.8463L0 24.8535V24.8606C0.225913 27.9949 1.08535 31.0509 2.52632 33.8435L2.54414 33.8791C3.94696 36.599 5.87855 39.0115 8.22569 40.9753L8.23103 40.977H36.4606L31.693 33.8559L31.6877 33.847Z" fill="white"/>
</g>
<path d="M73.6442 17.5168H87.9577V22.4625H73.6442V31.0802H89.1193V36.0241H67.8486V4.95287H89.121V9.89862H73.6442V17.5168Z" fill="white"/>
<path d="M119.403 23.8914C119.404 25.5647 119.075 27.2217 118.435 28.7678C117.795 30.314 116.857 31.7189 115.674 32.9023C114.491 34.0858 113.087 35.0246 111.541 35.6651C109.995 36.3056 108.338 36.6352 106.665 36.6352C104.992 36.6345 103.335 36.3043 101.79 35.6633C100.245 35.0224 98.8407 34.0834 97.6583 32.8998C96.4759 31.7162 95.5382 30.3113 94.8987 28.7654C94.2593 27.2194 93.9307 25.5626 93.9316 23.8896V4.95287H99.7272V24.7466C99.7267 26.5876 100.458 28.3535 101.759 29.6558C103.06 30.9582 104.826 31.6903 106.667 31.6913C108.508 31.6903 110.273 30.9582 111.574 29.6558C112.876 28.3535 113.606 26.5876 113.606 24.7466V4.95287H119.402L119.403 23.8914Z" fill="white"/>
<path d="M139.372 9.89506C140.508 9.89694 141.597 10.3493 142.4 11.1529C143.202 11.9564 143.654 13.0457 143.655 14.1816C143.653 15.3173 143.202 16.406 142.399 17.2092C141.596 18.0124 140.507 18.4645 139.372 18.4664H130.784V9.89506H139.372ZM130.784 23.4121H136.885L144.143 36.0259L150.776 36.0241L143.12 22.7155C147.234 21.1726 149.409 18.2223 149.409 14.1816C149.409 11.9813 148.323 9.68839 146.429 7.88897C144.433 5.99333 141.877 4.94931 139.231 4.94931H124.985V36.0259L130.781 36.0277L130.784 23.4121Z" fill="white"/>
<path d="M176.057 12.4944C178.017 14.5076 179.053 17.2709 179.053 20.4885C179.053 23.7061 178.017 26.4712 176.057 28.4826C174.195 30.3925 171.626 31.4454 168.823 31.4454C166.017 31.4454 163.448 30.3943 161.588 28.4826C159.629 26.4694 158.592 23.7079 158.592 20.4885C158.592 17.4865 159.573 14.7357 161.357 12.7421C163.236 10.6416 165.818 9.53161 168.822 9.53161C171.626 9.53161 174.197 10.5845 176.057 12.4944ZM184.666 20.4885C184.666 11.5858 177.557 4.34178 168.823 4.34178C160.086 4.34178 152.98 11.5858 152.98 20.4885C152.965 24.7336 154.615 28.8154 157.574 31.8587C159.03 33.3724 160.777 34.5757 162.711 35.3963C164.644 36.2169 166.723 36.6377 168.823 36.6335C177.559 36.6335 184.666 29.3912 184.666 20.4885Z" fill="white"/>
<path d="M202.586 9.89684C203.65 9.89684 204.653 10.2621 205.414 10.923C206.192 11.6001 206.62 12.5194 206.62 13.5082C206.62 15.5339 204.901 17.1213 202.706 17.1213H195.189V9.89684H202.586ZM202.825 22.0652C205.579 22.0652 207.823 24.0856 207.823 26.5727C207.823 29.3556 205.228 31.0802 202.825 31.0802H195.189V22.0652H202.825ZM210.319 33.1041C212.068 31.3456 213.073 29.0295 213.073 26.7473C213.073 22.6175 211.231 20.223 207.101 18.9884C210.005 17.8393 211.812 15.2648 211.812 12.2717C211.812 7.69121 207.628 4.95287 203.586 4.95287H189.394V36.0241H203.634C206.155 35.9499 208.551 34.9036 210.319 33.1041Z" fill="white"/>
<path d="M283.426 4.95287H289.225V18.1403L301.75 4.95287H308.709L297.071 17.2068L310 36.0241H303.373L293.226 21.2546L289.225 25.4628V36.0241H283.426V4.95287Z" fill="white"/>
<path d="M234.727 22.8064H226.28L230.503 11.8281L234.727 22.8064ZM221.196 36.0259L224.378 27.7486H236.632L239.817 36.0241L245.62 36.0224L233.149 4.9511H227.857L215.388 36.0241H221.194L221.196 36.0259Z" fill="white"/>
<path d="M255.928 4.95287L270.19 27.1767V4.95287H275.987V36.0241H270.072L255.928 13.9892V36.0241H250.131V4.95287H255.928Z" fill="white"/>
</g>
<defs>
<clipPath id="clip0_361_6293">
<rect width="310" height="40.977" fill="white"/>
</clipPath>
</defs>
</svg>
