<svg width="113" height="40" viewBox="0 0 113 40" fill="none" xmlns="http://www.w3.org/2000/svg">
<path d="M11.1699 0.142685V3.21772H3.56431V6.95763H9.74318V9.89088H3.56431V13.7514H11.4307V16.8256H0V0.142685H11.1699Z" fill="white"/>
<path d="M13.1363 8.48527C13.1363 3.62258 16.4877 0 21.3804 0C26.2731 0 29.627 3.62258 29.627 8.48527C29.627 13.348 26.2788 16.9697 21.3804 16.9697C16.482 16.9697 13.1338 13.3471 13.1338 8.48445M26.1334 8.48445C26.1334 5.17232 24.2558 3.02533 21.3796 3.02533C18.4799 3.02533 16.6023 5.17068 16.6023 8.48445C16.6023 11.7982 18.4799 13.9435 21.3796 13.9435C24.2558 13.9435 26.1334 11.799 26.1334 8.48445ZM18.0769 7.19708H24.6579V9.72292H18.0769V7.19708Z" fill="white"/>
<path d="M32.2656 0.142685H35.4968L42.5555 10.6535V0.142685H46.0727V16.8264H42.8172L35.7592 6.31557V16.8264H32.2656V0.142685Z" fill="white"/>
<path d="M52.8875 0.142685H49.3232V16.8264H52.8875V0.142685Z" fill="white"/>
<path d="M59.7021 0.142685V7.69828L66.3561 0.1435H70.6818L64.5264 7.10348L71.0856 16.8272H66.8063L62.007 9.72792L59.7021 12.3499V16.8313H56.1377V0.142685H59.7021Z" fill="white"/>
<path d="M76.6435 0.142456V6.84007H83.2505V0.142456H86.8148V16.8262H83.2505V9.93871H76.6435V16.827H73.0791V0.142456H76.6435Z" fill="white"/>
<path d="M13.4164 23.0295V26.1574H8.5091V39.9992H4.88299V26.1574H0V23.0295H13.4164Z" fill="white"/>
<path d="M29.8712 28.993C29.8712 31.9988 27.1641 34.3022 21.5312 34.3022H19.9599V39.9992H16.3135L16.337 23.0295H20.761C26.7318 23.0295 29.8745 25.381 29.8745 28.993M19.9623 26.0597V31.2743C23.9752 31.2743 25.9331 30.4507 25.9331 28.6809C25.9331 26.7417 24.0718 26.0621 19.9623 26.0621" fill="white"/>
<path d="M35.548 23.0295H39.8987L46.0395 39.9992H42.1477L40.842 36.2902H34.4122L33.1065 39.9992H29.3594L35.548 23.0295ZM39.8541 33.357L37.606 26.9087L35.3822 33.357H39.8541Z" fill="white"/>
<path d="M48.0674 23.0295H62.0154V39.9992H58.389V26.1574H51.6934V39.9992H48.0674V23.0295Z" fill="white"/>
<path d="M76.7046 23.0295V26.1574H68.9689V29.9634H75.2534V32.9456H68.9689V36.8728H76.9708V40H65.3438V23.0295H76.7046Z" fill="white"/>
<path d="M93.1827 23.0295V25.4299L84.5052 36.8964H93.4009V39.9992H79.501V37.5996L88.1785 26.1331H79.7182V23.0295H93.1827Z" fill="white"/>
<path d="M101.669 23.0295H106.02L112.161 39.9992H108.268L106.963 36.2902H100.533L99.2277 39.9992H95.4805L101.669 23.0295ZM105.975 33.357L103.727 26.9087L101.503 33.357H105.975Z" fill="white"/>
</svg>
