<svg width="214" height="40" viewBox="0 0 214 40" fill="none" xmlns="http://www.w3.org/2000/svg">
<mask id="mask0_361_6260" style="mask-type:luminance" maskUnits="userSpaceOnUse" x="0" y="0" width="214" height="40">
<path d="M213.337 0.769234H0.664062V39.2308H213.337V0.769234Z" fill="white"/>
</mask>
<g mask="url(#mask0_361_6260)">
<path fill-rule="evenodd" clip-rule="evenodd" d="M68.8753 38.572H55.1104V38.2994L58.974 36.1666V4.3258L55.1104 2.19306V1.92056H68.5041C78.5076 1.92056 83.6439 6.07759 83.6439 12.8067C83.6439 20.028 78.5102 24.0209 68.5041 24.0209H64.4817V36.1666L68.8753 38.2994V38.572ZM77.7166 12.9708C77.7166 7.00631 74.5928 4.87359 68.3991 4.87359H64.4817V21.0678H68.3991C74.5928 21.0678 77.7166 18.9352 77.7166 12.9708Z" fill="white"/>
<path d="M94.0185 4.21457C94.0185 6.13042 92.5388 7.66254 90.685 7.66254C88.8311 7.66254 87.3486 6.13042 87.3486 4.21457C87.3486 2.29872 88.8339 0.766602 90.685 0.766602C92.5361 0.766602 94.0185 2.29872 94.0185 4.21457Z" fill="white"/>
<path d="M97.5158 38.572H84.916V38.3022L88.5671 36.3335V15.2147L85.2335 13.1348V12.8595L93.5984 10.8908H93.8621V36.3308L97.5158 38.2994V38.572Z" fill="white"/>
<path d="M97.7274 38.572H97.7256L97.7274 38.5738V38.572Z" fill="white"/>
<path d="M97.7285 38.572H111.383V38.2994L106.672 36.3308V24.6243C106.672 18.1149 108.577 14.8866 112.443 14.8866C114.297 14.8866 115.249 15.4872 116.148 16.3631H116.361V11.0021C115.567 10.7296 114.561 10.6183 113.662 10.6183C110.433 10.6183 107.786 13.1904 106.675 17.1834V10.8908H106.411L98.046 12.8595V13.1348L101.382 15.2147V36.3335L97.7285 38.3022V38.572Z" fill="white"/>
<path fill-rule="evenodd" clip-rule="evenodd" d="M137.003 21.0651V35.3992H137L140.337 37.3151V37.5875L132.343 39.0085H132.079V33.9755C130.965 37.0398 127.842 39.2282 124.349 39.2282C118.949 39.2282 115.984 36.0555 115.984 31.7343C115.984 26.8655 119.321 24.1849 125.937 22.6529L131.708 21.3405V19.5886C131.708 16.2518 129.962 14.172 125.568 14.172C122.076 14.172 119.533 15.3732 117.787 17.9452L117.523 17.8368C118.317 13.2961 121.758 10.56 126.733 10.56C133.244 10.56 137.003 13.7882 137.003 21.0651ZM121.546 30.75C121.546 33.6498 123.345 35.5098 126.151 35.5105C129.645 35.5098 131.708 32.9934 131.708 28.7257V23.9125L126.203 25.2249C123.082 25.9895 121.546 27.5217 121.546 30.75Z" fill="white"/>
<path fill-rule="evenodd" clip-rule="evenodd" d="M163.632 32.5574C161.409 37.3151 158.336 39.2309 153.362 39.2309H153.359C145.632 39.2309 141.025 33.158 141.025 25.1722C141.025 16.7468 145.632 10.5655 153.149 10.5655C159.977 10.5655 163.683 15.3788 163.683 23.6955H146.267C146.267 31.4091 149.232 35.3492 155.848 35.3492C158.867 35.3492 161.301 34.7458 163.42 32.3934L163.632 32.5574ZM152.409 13.4073C148.704 13.4073 146.746 15.8154 146.374 21.1763H158.285C158.285 16.1434 156.327 13.4073 152.409 13.4073Z" fill="white"/>
<path d="M184.063 33.5418C182.635 37.3698 179.83 39.23 176.285 39.2309C170.515 39.2297 167.764 35.5651 167.764 29.4932V15.2147L164.428 13.1348V12.8595L172.792 10.8908H173.057V29.7685C173.057 33.1052 174.378 35.4577 177.873 35.4577C182.107 35.4577 184.066 31.4091 184.066 25.5558V14.3944L180.997 12.4786V12.2061L189.095 10.7824H189.358V35.402L192.693 37.3178V37.5903L184.327 39.0112H184.063V33.5418Z" fill="white"/>
<path d="M213.337 30.4775C213.337 36.1666 209.633 39.2309 203.439 39.2309L203.436 39.2254C199.625 39.2254 196.343 38.4608 194.014 37.2566V30.5832H194.277C196.131 34.1952 199.254 36.3835 203.594 36.3835C207.617 36.3835 209.576 35.2325 209.576 32.4434C209.576 29.9798 207.617 28.6674 203.277 27.3549L202.534 27.1352C196.66 25.3862 194.118 23.0866 194.118 18.4374C194.118 13.7882 197.61 10.56 203.382 10.56C206.452 10.56 209.468 11.3274 212.116 12.5842V18.7128H211.851C209.997 15.2119 206.981 13.4073 203.223 13.4073C199.676 13.4073 197.876 14.3916 197.876 16.9637C197.876 19.5358 199.625 20.7954 204.441 22.2163L205.185 22.436C210.689 24.0766 213.337 26.7014 213.337 30.4775Z" fill="white"/>
<path d="M12.914 2.22088V1.92612H23.5175L9.30864 36.5615L12.4324 38.2828V38.5748H1.82617L16.0378 3.94208L12.914 2.22088Z" fill="white"/>
<path d="M35.7919 1.92614H25.1884V2.22088L28.3122 3.94208L14.1006 38.5748H24.7069V38.2828L21.5803 36.5615L35.7919 1.92614Z" fill="white"/>
<path d="M37.4628 1.92614H48.0663L33.8547 36.5615L36.9812 38.2828V38.5748H26.375L40.5866 3.94208L37.4628 2.22088V1.92614Z" fill="white"/>
</g>
</svg>
