<svg width="213" height="40" viewBox="0 0 213 40" fill="none" xmlns="http://www.w3.org/2000/svg">
<path d="M32.5626 38.6166C29.833 38.6166 27.3373 37.0492 25.7568 34.3779C24.1763 37.0441 21.6807 38.6166 18.9511 38.6166H18.9043C15.9252 38.5958 13.2476 36.7107 11.7294 33.5707V33.5499L0 8.55467L14.9581 1.56642L25.7413 24.4632L36.41 1.56642L51.363 8.54946L39.7895 33.576C38.2713 36.716 35.5937 38.6011 32.6146 38.6219H32.5679M29.1988 31.8002C30.0151 33.4302 31.2473 34.3623 32.5679 34.3623H32.5834C33.9197 34.3519 35.1519 33.3989 35.9525 31.7325L45.7269 10.6168L38.474 7.22681L28.1069 29.4778L29.2039 31.8002H29.1988ZM15.5716 31.7325C16.3775 33.3989 17.6045 34.357 18.9355 34.3623H18.9564C20.2821 34.3623 21.5092 33.4302 22.3306 31.8055L23.4068 29.4933L12.9148 7.2216L5.66713 10.6064L15.5664 31.7221L15.5716 31.7325Z" fill="white"/>
<path d="M139.134 28.695C138.536 28.095 137.803 27.7949 136.937 27.7949C136.061 27.7949 135.314 28.095 134.696 28.695C134.087 29.2887 133.783 30.0037 133.783 30.8401C133.783 31.6891 134.101 32.4184 134.738 33.0281C135.356 33.6282 136.089 33.9283 136.937 33.9283C137.774 33.9283 138.497 33.6235 139.106 33.0138C139.714 32.4041 140.018 31.6794 140.018 30.8401C140.018 30.0037 139.724 29.2887 139.134 28.695ZM86.4792 15.2888H82.0546V33.4447H86.4792V15.2888ZM124.026 15.2744V17.2758C122.675 15.6159 120.869 14.786 118.607 14.786C116.107 14.786 114.024 15.6973 112.358 17.5199C110.685 19.3393 109.849 21.612 109.849 24.3381C109.849 27.0639 110.685 29.3366 112.358 31.1561C114.024 32.9755 116.107 33.8851 118.607 33.8851C120.879 33.8851 122.685 33.0616 124.026 31.4146V33.4159H128.494V15.2744H124.026ZM114.312 24.3381C114.312 22.8505 114.769 21.6056 115.683 20.6034C116.613 19.5756 117.802 19.0617 119.248 19.0617C120.704 19.0617 121.893 19.5628 122.817 20.5651C123.719 21.5546 124.169 22.8123 124.169 24.3381C124.169 25.8734 123.728 27.131 122.846 28.1108C121.932 29.1132 120.732 29.6143 119.248 29.6143C117.773 29.6143 116.575 29.0988 115.655 28.0679C114.76 27.0783 114.312 25.8351 114.312 24.3381ZM104.383 15.4037L99.3898 29.2551L94.411 15.4037L90.0724 16.9742L95.5242 30.8256C96.4257 32.8653 97.7143 33.8851 99.3898 33.8851C101.053 33.8851 102.346 32.8653 103.27 30.8256L108.722 16.9742L104.383 15.4037ZM74.209 15.4037L69.2158 29.2551L64.2227 15.4037L59.8984 16.9742L65.3503 30.8256C66.2518 32.8653 67.5402 33.8851 69.2158 33.8851C70.8881 33.8851 72.1767 32.8653 73.0814 30.8256L78.5475 16.9742L74.209 15.4037ZM84.2669 6.297C83.4674 6.297 82.7969 6.57311 82.2553 7.12531C81.7138 7.67752 81.443 8.35422 81.443 9.15541C81.443 9.95659 81.7138 10.6285 82.2553 11.1711C82.8065 11.7138 83.4769 11.9851 84.2669 11.9851C85.0569 11.9851 85.7275 11.7138 86.2786 11.1711C86.8296 10.6285 87.1051 9.95659 87.1051 9.15541C87.1051 8.35422 86.8344 7.67752 86.2928 7.12531C85.7417 6.57311 85.0665 6.297 84.2669 6.297ZM156.02 19.5595C156.024 19.5628 156.027 19.566 156.03 19.5692C156.728 19.898 157.323 20.3497 157.817 20.9242L160.876 18.0322C159.97 17.0076 158.825 16.216 157.439 15.6574V15.6527H157.435C156.1 15.1132 154.689 14.8435 153.201 14.8435C150.369 14.8435 148.068 15.7165 146.297 17.4625C144.516 19.2181 143.626 21.5099 143.626 24.3381C143.626 27.1374 144.516 29.4147 146.297 31.1703C148.049 32.9132 150.303 33.7845 153.058 33.7845C156.517 33.7845 159.15 32.7073 160.956 30.5528L157.936 27.6226C156.818 28.9313 155.353 29.5856 153.541 29.5856C152.024 29.5856 150.788 29.0941 149.833 28.1108C148.871 27.1342 148.39 25.8622 148.39 24.2949C148.39 22.7276 148.866 21.4605 149.818 20.4932C150.764 19.5101 152.005 19.0185 153.541 19.0185C154.429 19.0185 155.256 19.199 156.02 19.5595ZM179.09 17.4673C177.306 15.7181 174.961 14.8435 172.056 14.8435C169.16 14.8435 166.809 15.734 165.003 17.5152C165 17.5152 164.996 17.5183 164.993 17.5247C163.212 19.2771 162.324 21.5339 162.324 24.2949C162.324 27.0464 163.232 29.3143 165.051 31.0986C166.88 32.8893 169.215 33.7845 172.056 33.7845C174.903 33.7845 177.229 32.9084 179.032 31.1561C180.839 29.3908 181.742 27.1038 181.742 24.2949C181.742 21.4763 180.858 19.2006 179.09 17.4673ZM175.582 20.4981C176.513 21.4811 176.977 22.7469 176.977 24.2949C176.977 25.8335 176.498 27.1055 175.539 28.1108C174.609 29.0941 173.448 29.5856 172.056 29.5856C170.597 29.5856 169.401 29.0797 168.467 28.0679C167.548 27.0687 167.086 25.811 167.086 24.2949C167.086 22.766 167.543 21.5131 168.453 20.5364C169.386 19.5246 170.587 19.0185 172.056 19.0185C173.476 19.0185 174.652 19.5117 175.582 20.4981ZM199.951 17.7114C199.935 17.7019 199.924 17.6907 199.917 17.6779C198.854 15.7564 197.054 14.7956 194.519 14.7956C193.489 14.7956 192.51 15.0222 191.58 15.4755C190.611 15.9351 189.767 16.5991 189.046 17.4673C189.037 17.4769 189.027 17.4849 189.014 17.4912C188.998 17.4976 188.984 17.5008 188.971 17.5008H188.942C188.917 17.5008 188.894 17.4912 188.875 17.4721C188.856 17.453 188.846 17.4305 188.846 17.405V15.0685H184.059V33.4926H188.846V24.2949C188.846 22.6383 189.221 21.3471 189.969 20.4214C190.689 19.5182 191.649 19.0665 192.85 19.0665C193.997 19.0665 194.855 19.5166 195.425 20.4167C195.952 21.2434 196.215 22.4355 196.215 23.9932V33.4926H201.001V24.2949C201.001 22.6574 201.381 21.3663 202.139 20.4214C202.85 19.5182 203.767 19.0665 204.892 19.0665C207.105 19.0568 208.211 20.6992 208.211 23.9932V33.4926H213V22.8059C213 20.0703 212.419 18.0276 211.256 16.6773C210.167 15.4228 208.601 14.7956 206.559 14.7956C205.231 14.7956 204.022 15.0414 202.933 15.5329V15.5377C201.817 16.0229 200.889 16.7411 200.146 17.6923C200.137 17.7019 200.125 17.7098 200.113 17.7162C200.097 17.7226 200.082 17.7258 200.069 17.7258H199.999C199.983 17.7258 199.967 17.721 199.951 17.7114Z" fill="white"/>
</svg>
