<svg width="168" height="32" viewBox="0 0 168 32" fill="none" xmlns="http://www.w3.org/2000/svg">
<g filter="url(#filter0_f_489_3452)">
<circle cx="68" cy="16" r="15" fill="#C0C0C0"/>
</g>
<path d="M7.04922 14.1218C6.80403 13.3794 6.59971 12.78 6.51116 12.3101H6.49073C6.35451 12.8277 6.17743 13.4066 5.905 14.0945L4.45429 18.0584H8.41139L7.04922 14.1218ZM10.6453 23.7863L9.16739 20.0268H3.71191L2.32931 23.7863H0L5.70748 9H7.34209L13.179 23.7863H10.6522H10.6453Z" fill="white"/>
<path d="M19.1061 11.0773H17.3829V21.7703H19.1061C23.1994 21.7703 24.7182 19.1958 24.7182 16.3149C24.7182 13.4339 22.9065 11.0841 19.1061 11.0841M18.9971 23.7863H15.0332V9.04768H19.0857C24.5207 9.04768 27.2042 12.0445 27.2042 16.2672C27.2042 20.4899 24.3164 23.7863 18.9971 23.7863Z" fill="white"/>
<path d="M32.4142 9.04088H30.0645V23.7795H32.4142V9.04088Z" fill="white"/>
<path d="M39.6588 17.2752H37.6701V21.7703H39.5498C41.4501 21.7703 42.4104 20.8304 42.4104 19.4206C42.4104 18.1674 41.382 17.2752 39.6588 17.2752ZM37.6701 11.0773V15.2592H39.3455C40.4421 15.2592 41.5182 14.4555 41.5182 13.1138C41.5182 11.881 40.7758 11.0773 39.1684 11.0773H37.6701ZM39.6588 23.7863H35.3203V9.04768H39.795C42.6147 9.04768 43.9088 10.9275 43.9088 12.6711C43.9088 14.04 43.2618 15.2455 42.029 15.804V15.8245C43.5751 16.1582 44.8487 17.568 44.8487 19.407C44.8487 21.4638 43.4388 23.7932 39.6588 23.7932" fill="white"/>
<path d="M123.647 23.4304C122.918 23.4304 122.546 22.8057 122.546 21.57C122.546 20.3343 122.924 19.6546 123.647 19.6546C124.37 19.6546 124.762 20.2931 124.762 21.5906C124.762 22.8057 124.383 23.4304 123.647 23.4304ZM123.647 18.8652C122.431 18.8652 121.675 19.8263 121.627 21.4121C121.627 21.4121 121.648 22.1878 121.479 22.6409C121.303 23.0734 120.952 23.348 120.54 23.348H97.694V19.2359C96.1134 19.2153 94.8434 19.3183 94.8434 21.5356V23.3549H91.0268C91.0268 23.3549 91.1754 22.2427 91.4591 21.6249C91.986 20.4784 92.7493 20.3892 93.5059 20.3892V19.5723C91.932 19.5585 91.0943 20.1901 90.5269 21.6249C90.1621 22.586 90.0676 23.6295 90 24.2404H95.7418V21.7416C95.7418 20.2862 96.2957 20.2244 96.7956 20.2244V24.2404H120.634C121.35 24.2404 121.796 23.8491 122.066 23.4304C122.424 23.9658 122.958 24.2404 123.64 24.2404C124.931 24.2404 125.687 23.2656 125.687 21.57C125.687 19.8743 124.91 18.8789 123.64 18.8789" fill="white"/>
<path d="M119.175 13.5449H116.879C117.128 12.7966 117.79 10.49 119.412 10.49C120.141 10.49 120.452 11.2314 120.452 11.8355C120.452 12.7005 120.135 13.5449 119.175 13.5449ZM119.439 9.66616C118.081 9.66616 117.257 10.8881 116.791 11.9522V11.9247L116.919 8.16273H116.021V13.538H111.792C111.042 13.538 110.583 13.1742 110.583 12.522V10.0437H109.678V12.4945C109.678 13.1467 109.279 13.5449 108.604 13.5449H97.7684V9.43275C96.1945 9.41216 94.9245 9.51513 94.9245 11.7325V13.5449H91.1079C91.1079 13.5449 91.2498 12.4396 91.5402 11.8149C92.0671 10.6753 92.8372 10.5792 93.5938 10.5792V9.76914C92.0198 9.75541 91.189 10.3938 90.6215 11.8218C90.25 12.7829 90.1554 13.8332 90.0879 14.4442H95.823V11.9453C95.823 10.4968 96.3836 10.4282 96.8768 10.4282V14.4442H108.827V14.4305C109.421 14.3893 109.88 14.1559 110.178 13.7577C110.515 14.1902 111.056 14.4236 111.751 14.4373H119.162C120.925 14.4373 121.357 12.7417 121.357 11.8698C121.357 10.895 120.79 9.67303 119.445 9.67303" fill="white"/>
<path d="M164.184 24.2267H161.955V23.3411H162.847V17.2793H163.772V23.3411H164.15C164.515 23.3411 164.88 23.039 165.029 22.6683C165.184 22.2633 165.177 21.8651 165.177 21.4258V17.2725H166.082V22.0574C166.082 23.4098 165.245 24.2267 164.177 24.2267" fill="white"/>
<path d="M167.999 17.2725H167.094V24.2267H167.999V17.2725Z" fill="white"/>
<path d="M160.045 19.8194V22.0711C160.045 23.1146 159.856 23.3411 159.288 23.3411H158.336V19.8194H157.43V23.3411H155.715V19.8194H154.843V23.3411H132.376C131.748 23.3411 131.268 23.0391 131.268 22.6615C131.268 22.3938 131.268 17.2862 131.268 17.2862H130.363V21.4258C130.363 22.7027 130.018 23.348 129.336 23.348H128.958V17.2794H128.032V23.348H127.141V24.2336H129.363C129.951 24.2336 130.43 24.0139 130.788 23.5471C131.16 24.0139 131.694 24.2336 132.383 24.2336H159.322C160.335 24.2336 160.957 23.6432 160.957 22.5242V19.8263H160.051L160.045 19.8194Z" fill="white"/>
<path d="M125.395 13.5449H124.335C123.578 13.5449 123.294 12.6455 123.294 12.0071C123.294 11.3687 123.497 10.2565 124.335 10.2565H125.395V13.5449ZM131.833 10.0437V12.268C131.833 13.0712 131.455 13.538 130.61 13.538H126.3V9.42587H124.308C123.119 9.42587 122.355 10.2565 122.355 11.9934C122.355 13.7302 123.49 14.4236 124.308 14.4236H125.355C125.355 14.9178 124.943 15.5151 124.368 15.5357V16.3458H124.402C125.389 16.3458 126.192 15.6318 126.287 14.4373V14.4236H130.961C131.043 14.4236 132.738 14.2725 132.738 12.3092V10.0369H131.833V10.0437Z" fill="white"/>
<path d="M133.759 7.47617H134.664V14.4304H133.759V7.47617ZM133.002 6.89951V6.39837H133.455V6.30226C133.455 6.04826 133.515 5.24506 134.285 5.24506C134.738 5.24506 134.927 5.48533 135.083 5.8835H134.542C134.475 5.77366 134.427 5.7256 134.292 5.7256C134.015 5.7256 133.968 6.03453 133.968 6.2748V6.39151H135.157V6.89265H133.002V6.89951Z" fill="white"/>
<path d="M142.304 10.2222C141.574 10.2222 141.203 10.7234 141.203 11.9659C141.203 13.2085 141.574 13.5449 142.304 13.5449C143.033 13.5449 143.405 13.1467 143.405 11.9865C143.405 10.7302 143.033 10.2222 142.304 10.2222ZM142.304 14.4304H139.581C138.264 14.4304 137.494 13.6341 137.494 12.316V10.0437H138.393V12.268C138.386 13.0712 138.757 13.538 139.581 13.538H140.689C140.426 13.0986 140.284 12.7142 140.284 11.959C140.284 10.3252 141.054 9.42587 142.304 9.42587C143.553 9.42587 144.317 10.3252 144.317 11.9865C144.317 13.6478 143.574 14.4236 142.304 14.4236" fill="white"/>
<path d="M165.947 13.6341C165.217 13.6341 164.839 13.0094 164.839 11.7737C164.839 10.538 165.217 9.85836 165.947 9.85836C166.676 9.85836 167.061 10.4968 167.061 11.7943C167.061 13.0094 166.683 13.6341 165.947 13.6341ZM159.577 13.5449H157.158C157.415 12.776 158.07 10.4899 159.691 10.4899C160.434 10.4899 160.732 11.2314 160.732 11.8355C160.732 12.6867 160.448 13.5517 159.577 13.5517M165.947 9.06889C164.724 9.06889 163.967 10.03 163.927 11.6089C163.927 11.6089 163.947 12.3847 163.785 12.8378C163.603 13.2703 163.258 13.5449 162.846 13.5449H161.157C161.522 13.0025 161.637 12.316 161.637 11.8629C161.637 10.8881 161.069 9.66615 159.725 9.66615C158.381 9.66615 157.536 10.8881 157.077 11.9316V10.5037H156.206V13.5517H147.877C147.167 13.5517 146.688 13.2085 146.688 12.5906V10.0506H145.783V13.6066C145.783 13.895 145.816 14.4304 145.641 14.8492C145.479 15.2542 145.1 15.522 144.756 15.5426V16.3526C145.985 16.3938 146.688 15.3297 146.688 14.1833V14.1078C147.005 14.3069 147.404 14.4304 147.877 14.4304H163.028C163.515 14.4304 164.096 14.0597 164.379 13.6204C164.731 14.1558 165.271 14.4304 165.953 14.4304C167.244 14.4304 168 13.4556 168 11.76C168 10.0643 167.223 9.06889 165.953 9.06889" fill="white"/>
<path d="M93.0588 15.8446C93.0588 16.1123 92.8427 16.332 92.5792 16.332C92.3158 16.332 92.0996 16.1192 92.0996 15.8446C92.0996 15.57 92.3158 15.3572 92.5792 15.3572C92.8427 15.3572 93.0588 15.5769 93.0588 15.8446Z" fill="white"/>
<path d="M94.4123 15.8446C94.4123 16.1123 94.1962 16.332 93.9327 16.332C93.6693 16.332 93.4531 16.1192 93.4531 15.8446C93.4531 15.57 93.6693 15.3572 93.9327 15.3572C94.1962 15.3572 94.4123 15.5769 94.4123 15.8446Z" fill="white"/>
<path d="M110.576 15.8446C110.576 16.1123 110.36 16.332 110.097 16.332C109.833 16.332 109.617 16.1192 109.617 15.8446C109.617 15.57 109.833 15.3572 110.097 15.3572C110.36 15.3572 110.576 15.5769 110.576 15.8446Z" fill="white"/>
<path d="M132.719 15.8446C132.719 16.1123 132.503 16.332 132.239 16.332C131.976 16.332 131.76 16.1192 131.76 15.8446C131.76 15.57 131.976 15.3572 132.239 15.3572C132.503 15.3572 132.719 15.5769 132.719 15.8446Z" fill="white"/>
<path d="M119.717 7.94303C119.717 8.21076 119.501 8.43044 119.237 8.43044C118.974 8.43044 118.758 8.21076 118.758 7.94303C118.758 7.67529 118.974 7.45561 119.237 7.45561C119.501 7.45561 119.717 7.67529 119.717 7.94303Z" fill="white"/>
<path d="M142.764 7.94303C142.764 8.21076 142.548 8.43044 142.284 8.43044C142.021 8.43044 141.805 8.21076 141.805 7.94303C141.805 7.67529 142.021 7.45561 142.284 7.45561C142.548 7.45561 142.764 7.67529 142.764 7.94303Z" fill="white"/>
<path d="M93.0588 25.6683C93.0588 25.9361 92.8427 26.1558 92.5792 26.1558C92.3158 26.1558 92.0996 25.9361 92.0996 25.6683C92.0996 25.4006 92.3158 25.1809 92.5792 25.1809C92.8427 25.1809 93.0588 25.4006 93.0588 25.6683Z" fill="white"/>
<path d="M94.4123 25.6683C94.4123 25.9361 94.1962 26.1558 93.9327 26.1558C93.6693 26.1558 93.4531 25.9361 93.4531 25.6683C93.4531 25.4006 93.6693 25.1809 93.9327 25.1809C94.1962 25.1809 94.4123 25.4006 94.4123 25.6683Z" fill="white"/>
<path d="M161.95 26.2451V25.7439H162.396V25.6478C162.396 25.3938 162.457 24.5906 163.227 24.5906C163.679 24.5906 163.869 24.8309 164.031 25.229H163.49C163.423 25.1192 163.375 25.0712 163.234 25.0712C162.963 25.0712 162.909 25.3801 162.909 25.6204V25.7371H164.098V26.2382H161.943L161.95 26.2451Z" fill="white"/>
<mask id="mask0_489_3452" style="mask-type:alpha" maskUnits="userSpaceOnUse" x="54" y="2" width="28" height="28">
<circle cx="68" cy="16" r="14" fill="#D9D9D9"/>
</mask>
<g mask="url(#mask0_489_3452)">
<circle cx="68" cy="16" r="14" fill="url(#paint0_linear_489_3452)"/>
<circle opacity="0.5" cx="78.7988" cy="13.799" r="14" transform="rotate(-135 78.7988 13.799)" fill="url(#paint1_linear_489_3452)"/>
<g opacity="0.75">
<circle cx="67.7988" cy="3.79899" r="14" transform="rotate(-135 67.7988 3.79899)" fill="url(#paint2_linear_489_3452)"/>
<circle cx="67.7988" cy="3.79899" r="14" transform="rotate(-135 67.7988 3.79899)" fill="url(#paint3_radial_489_3452)" fill-opacity="0.2"/>
</g>
</g>
<path d="M80.9878 19.7152C80.7162 21.0776 80.2571 22.3743 79.6428 23.5722C79.5588 23.717 79.4682 23.8552 79.3712 24C83.1864 18.7148 82.8696 11.2509 78.2849 6.32107C73.7001 1.39124 66.3995 0.654074 61 4.2412C61.2134 4.10956 61.4332 3.99109 61.6531 3.87919C62.6813 3.42505 63.7547 3.08279 64.8799 2.88533C68.236 2.43118 71.9865 3.53036 75.1228 6.05121L67.7639 5.17583L75.8987 8.08502L64.5372 11.3101L75.7953 10.0333L67.4341 17.8591L76.526 11.705L72.5426 23.5459L78.6728 12.9359L78.3819 19.9521L80.3929 13.5677C81.0719 15.6344 81.2788 17.7472 80.9878 19.7086" fill="white"/>
<defs>
<filter id="filter0_f_489_3452" x="52" y="0" width="32" height="32" filterUnits="userSpaceOnUse" color-interpolation-filters="sRGB">
<feFlood flood-opacity="0" result="BackgroundImageFix"/>
<feBlend mode="normal" in="SourceGraphic" in2="BackgroundImageFix" result="shape"/>
<feGaussianBlur stdDeviation="0.5" result="effect1_foregroundBlur_489_3452"/>
</filter>
<linearGradient id="paint0_linear_489_3452" x1="76.5" y1="3.50002" x2="60" y2="31.5" gradientUnits="userSpaceOnUse">
<stop stop-color="#20C1F1"/>
<stop offset="0.855554" stop-color="#014787"/>
</linearGradient>
<linearGradient id="paint1_linear_489_3452" x1="78.7988" y1="-0.201013" x2="78.7988" y2="27.799" gradientUnits="userSpaceOnUse">
<stop stop-color="#00AFEF"/>
<stop offset="1" stop-color="white" stop-opacity="0.5"/>
</linearGradient>
<linearGradient id="paint2_linear_489_3452" x1="69.2822" y1="-9.28239" x2="61.1505" y2="1.67777" gradientUnits="userSpaceOnUse">
<stop stop-color="#00AFEF"/>
<stop offset="1" stop-color="white" stop-opacity="0.63"/>
</linearGradient>
<radialGradient id="paint3_radial_489_3452" cx="0" cy="0" r="1" gradientUnits="userSpaceOnUse" gradientTransform="translate(64.686 -3.27198) rotate(128.66) scale(9.05539)">
<stop stop-color="white"/>
<stop offset="1" stop-color="white" stop-opacity="0.1"/>
</radialGradient>
</defs>
</svg>
