<svg width="160" height="40" viewBox="0 0 160 40" fill="none" xmlns="http://www.w3.org/2000/svg">
<path d="M156.796 34.3356H156.582C155.771 34.3356 155.194 34.485 154.81 34.784C154.447 35.0829 154.254 35.5313 154.254 36.1719C154.254 36.4922 154.319 36.7485 154.468 36.9193C154.596 37.1115 154.788 37.1969 155.045 37.1969C155.493 37.1969 155.856 36.962 156.155 36.4922C156.433 35.9798 156.646 35.2751 156.796 34.3356ZM156.198 37.7307C155.899 38.0723 155.578 38.3072 155.237 38.478C154.895 38.6489 154.511 38.7129 154.084 38.7129C153.422 38.7129 152.867 38.4994 152.439 38.0937C152.012 37.688 151.82 37.1542 151.82 36.5136C151.82 35.2538 152.162 34.3356 152.845 33.7804C153.528 33.2252 154.66 32.9476 156.219 32.9476C156.454 32.9476 156.625 32.9476 156.753 32.9476C156.881 32.9476 156.988 32.9476 157.094 32.969C157.137 32.6914 157.18 32.4779 157.201 32.307C157.223 32.1362 157.223 32.0081 157.223 31.9227C157.223 31.6238 157.159 31.3889 157.009 31.2394C156.86 31.0899 156.646 31.0259 156.368 31.0259C156.069 31.0259 155.835 31.1113 155.642 31.3035C155.472 31.4956 155.343 31.7732 155.279 32.1362H152.867C152.973 31.2608 153.294 30.6202 153.849 30.2145C154.404 29.8088 155.215 29.6166 156.304 29.6166C157.436 29.6166 158.269 29.8088 158.803 30.1718C159.336 30.5561 159.593 31.154 159.593 31.9654C159.593 32.1789 159.571 32.3925 159.55 32.6487C159.507 32.9049 159.465 33.1612 159.401 33.4388L158.675 36.8125C158.61 37.1115 158.568 37.4104 158.525 37.7093C158.482 38.0083 158.461 38.2859 158.418 38.6062H156.069L156.198 37.7307ZM148.019 37.7948C147.785 38.1364 147.507 38.414 147.187 38.5635C146.866 38.7343 146.482 38.7983 146.012 38.7983C145.265 38.7983 144.71 38.6062 144.347 38.2432C143.984 37.8802 143.792 37.3036 143.792 36.5349C143.792 36.236 143.834 35.8516 143.898 35.3819C143.962 34.9121 144.048 34.3996 144.176 33.8445C144.304 33.2466 144.453 32.7341 144.603 32.2857C144.752 31.8373 144.902 31.4743 145.073 31.1967C145.372 30.6842 145.713 30.2999 146.098 30.065C146.482 29.8301 146.952 29.702 147.486 29.702C147.934 29.702 148.318 29.7874 148.639 29.9582C148.959 30.129 149.258 30.428 149.514 30.8337L150.56 26.0079H153.037L150.646 37.1969C150.603 37.3677 150.582 37.5812 150.539 37.8161C150.496 38.051 150.475 38.3072 150.432 38.5848H147.891L148.019 37.7948ZM148.212 31.3462C147.934 31.3462 147.72 31.4316 147.55 31.581C147.379 31.7305 147.229 32.0295 147.101 32.4352C146.888 33.1398 146.696 33.8231 146.567 34.5278C146.439 35.211 146.375 35.7662 146.375 36.1933C146.375 36.5136 146.439 36.7485 146.589 36.9193C146.717 37.0901 146.93 37.1542 147.208 37.1542C147.443 37.1542 147.635 37.0688 147.806 36.9193C147.977 36.7698 148.148 36.5136 148.297 36.1933C148.382 36.0011 148.446 35.7449 148.532 35.4246C148.617 35.1043 148.703 34.7199 148.788 34.2715C148.874 33.8231 148.938 33.4388 148.98 33.1185C149.023 32.7982 149.044 32.5419 149.044 32.3498C149.044 32.0081 148.959 31.7732 148.831 31.6024C148.681 31.4316 148.468 31.3462 148.212 31.3462ZM140.076 31.154C139.799 31.154 139.585 31.2394 139.414 31.3889C139.243 31.5383 139.094 31.7946 138.966 32.1362C138.923 32.243 138.88 32.3925 138.816 32.6273C138.752 32.8622 138.71 33.0971 138.645 33.396C138.603 33.5669 138.56 33.8018 138.496 34.122C138.24 35.2965 138.112 36.0225 138.112 36.2787C138.112 36.6203 138.176 36.8979 138.325 37.0688C138.475 37.2396 138.688 37.3463 138.987 37.3463C139.265 37.3463 139.478 37.2609 139.67 37.1115C139.863 36.962 140.012 36.7058 140.14 36.3641C140.204 36.1719 140.29 35.8943 140.375 35.51C140.46 35.1256 140.567 34.6986 140.674 34.2288C140.759 33.7804 140.845 33.396 140.888 33.0544C140.93 32.7128 140.952 32.4352 140.952 32.2216C140.952 31.88 140.888 31.6238 140.738 31.4529C140.589 31.2394 140.375 31.154 140.076 31.154ZM135.699 35.9157C135.699 35.6381 135.72 35.3178 135.784 34.9548C135.827 34.5918 135.912 34.1648 136.019 33.7163C136.147 33.1612 136.275 32.67 136.425 32.243C136.574 31.8159 136.745 31.4743 136.895 31.2394C137.258 30.6842 137.685 30.2785 138.197 30.0223C138.71 29.766 139.35 29.6379 140.14 29.6379C141.208 29.6379 142.019 29.8942 142.574 30.3853C143.13 30.8764 143.407 31.6238 143.407 32.5633C143.407 32.8622 143.386 33.1825 143.343 33.5242C143.3 33.8872 143.236 34.2715 143.13 34.6986C143.001 35.2538 142.873 35.7235 142.724 36.1506C142.574 36.5776 142.404 36.9406 142.233 37.1969C141.891 37.752 141.443 38.1578 140.952 38.414C140.439 38.6702 139.799 38.7983 139.008 38.7983C137.941 38.7983 137.129 38.5421 136.574 38.051C135.976 37.5812 135.699 36.8552 135.699 35.9157ZM129.869 38.6275L131.321 31.7732C131.385 31.4529 131.45 31.1113 131.514 30.791C131.578 30.4707 131.62 30.1504 131.642 29.8301H134.055L133.841 31.1113C134.14 30.6629 134.46 30.3212 134.845 30.1077C135.229 29.8942 135.656 29.7874 136.169 29.7874C136.275 29.7874 136.339 29.7874 136.403 29.7874C136.446 29.7874 136.51 29.7874 136.532 29.8088L136.083 31.9868C136.062 31.9868 136.062 31.9868 136.04 31.9868C135.741 31.944 135.549 31.9227 135.421 31.9227C134.845 31.9227 134.375 32.0935 134.076 32.4352C133.756 32.7768 133.499 33.3533 133.329 34.1648L132.389 38.6275H129.869ZM127.2 34.3356H126.987C126.175 34.3356 125.599 34.485 125.214 34.784C124.851 35.0829 124.659 35.5313 124.659 36.1719C124.659 36.4922 124.723 36.7485 124.873 36.9193C125.001 37.1115 125.193 37.1969 125.449 37.1969C125.898 37.1969 126.261 36.962 126.56 36.4922C126.816 35.9798 127.051 35.2751 127.2 34.3356ZM126.581 37.7307C126.282 38.0723 125.962 38.3072 125.62 38.478C125.279 38.6489 124.894 38.7129 124.467 38.7129C123.805 38.7129 123.25 38.4994 122.823 38.0937C122.396 37.688 122.204 37.1542 122.204 36.5136C122.204 35.2538 122.545 34.3356 123.229 33.7804C123.912 33.2252 125.044 32.9476 126.602 32.9476C126.837 32.9476 127.008 32.9476 127.136 32.9476C127.264 32.9476 127.371 32.9476 127.478 32.969C127.521 32.6914 127.563 32.4779 127.585 32.307C127.606 32.1362 127.606 32.0081 127.606 31.9227C127.606 31.6238 127.542 31.3889 127.392 31.2394C127.243 31.0899 127.029 31.0259 126.752 31.0259C126.453 31.0259 126.218 31.1113 126.026 31.3035C125.855 31.4956 125.727 31.7732 125.663 32.1362H123.25C123.357 31.2608 123.677 30.6202 124.232 30.2145C124.787 29.8088 125.599 29.6166 126.688 29.6166C127.82 29.6166 128.652 29.8088 129.186 30.1718C129.72 30.5561 129.976 31.154 129.976 31.9654C129.976 32.1789 129.955 32.3925 129.933 32.6487C129.891 32.9049 129.848 33.1612 129.784 33.4388L129.058 36.8125C128.994 37.1115 128.951 37.4104 128.909 37.7093C128.866 38.0083 128.844 38.2859 128.802 38.6062H126.474L126.581 37.7307ZM112.552 38.6275L115.243 26.0293H118.787C120.197 26.0293 121.2 26.2428 121.819 26.6699C122.439 27.0969 122.738 27.7802 122.738 28.7411C122.738 29.7233 122.481 30.5134 121.99 31.1113C121.499 31.7092 120.794 32.0722 119.855 32.1789C120.495 32.307 120.965 32.5846 121.264 32.9903C121.563 33.396 121.734 33.9512 121.734 34.6345C121.734 35.3178 121.606 35.9584 121.35 36.5349C121.093 37.1115 120.752 37.5385 120.303 37.8588C119.898 38.1364 119.406 38.3286 118.809 38.4567C118.232 38.5635 117.271 38.6275 115.947 38.6275H112.552ZM115.606 36.663H116.759C117.591 36.663 118.189 36.4922 118.574 36.1292C118.958 35.7876 119.15 35.2324 119.15 34.4637C119.15 33.9512 119.001 33.5882 118.723 33.3747C118.446 33.1612 117.954 33.0544 117.271 33.0544H116.417L115.606 36.663ZM116.78 31.1326H117.698C118.574 31.1326 119.214 30.9832 119.599 30.6629C119.983 30.3426 120.175 29.8515 120.175 29.1468C120.175 28.6984 120.026 28.3995 119.748 28.2073C119.471 28.0151 118.979 27.9083 118.317 27.9083H117.506L116.78 31.1326ZM105.314 38.6275L106.83 31.3889H105.463L105.805 29.8515H107.193L107.449 28.5489C107.641 27.6094 107.961 26.9261 108.431 26.499C108.901 26.072 109.541 25.8585 110.353 25.8585C110.609 25.8585 110.865 25.8585 111.122 25.8798C111.378 25.9012 111.634 25.9225 111.89 25.9652L111.549 27.6521C111.42 27.6308 111.292 27.6094 111.207 27.588C111.122 27.5667 111.036 27.5667 110.972 27.5667C110.673 27.5667 110.438 27.6521 110.289 27.8016C110.118 27.951 110.011 28.2073 109.926 28.5489L109.67 29.8515H111.1L110.78 31.3889H109.307L107.769 38.6275H105.314ZM101.961 31.154C101.705 31.154 101.47 31.2394 101.299 31.3889C101.128 31.5383 100.979 31.7946 100.872 32.1362C100.829 32.243 100.787 32.3925 100.723 32.6273C100.659 32.8622 100.616 33.0971 100.552 33.396C100.509 33.5669 100.466 33.8018 100.402 34.122C100.146 35.2965 100.018 36.0225 100.018 36.2787C100.018 36.6203 100.082 36.8979 100.232 37.0688C100.381 37.2396 100.595 37.3463 100.872 37.3463C101.128 37.3463 101.363 37.2609 101.534 37.1115C101.705 36.962 101.876 36.7058 101.982 36.3641C102.047 36.1719 102.132 35.8943 102.217 35.51C102.303 35.1256 102.41 34.6986 102.495 34.2288C102.58 33.7804 102.644 33.396 102.708 33.0544C102.773 32.7128 102.773 32.4352 102.773 32.2216C102.773 31.88 102.708 31.6238 102.559 31.4529C102.474 31.2394 102.26 31.154 101.961 31.154ZM97.6692 35.9157C97.6692 35.6381 97.6905 35.3178 97.7546 34.9548C97.7973 34.5918 97.8827 34.1648 97.9681 33.7163C98.0962 33.1612 98.2244 32.67 98.3738 32.243C98.5233 31.8159 98.6728 31.4743 98.8436 31.2394C99.1852 30.6842 99.6123 30.2785 100.125 30.0223C100.616 29.766 101.256 29.6379 102.025 29.6379C103.071 29.6379 103.862 29.8942 104.417 30.3853C104.972 30.8764 105.228 31.6238 105.228 32.5633C105.228 32.8622 105.207 33.1825 105.164 33.5242C105.121 33.8872 105.057 34.2715 104.951 34.6986C104.822 35.2538 104.694 35.7235 104.545 36.1506C104.395 36.5776 104.246 36.9406 104.075 37.1969C103.733 37.752 103.306 38.1578 102.794 38.414C102.303 38.6702 101.662 38.7983 100.893 38.7983C99.8472 38.7983 99.0358 38.5421 98.5019 38.051C97.9468 37.5812 97.6692 36.8552 97.6692 35.9157ZM86.6084 38.6275L89.3415 26.0293H91.8825L90.3451 33.0758L93.1424 29.8301H95.8542L92.5658 33.7163L94.3381 38.6062H91.7331L90.1957 33.6309L89.128 38.6062H86.6084V38.6275ZM78.4302 38.6275L79.9889 31.4529C80.0744 31.0899 80.1384 30.7696 80.1811 30.5348C80.2238 30.2785 80.2665 30.065 80.2879 29.8515H82.7008L82.5513 30.855C82.8289 30.428 83.1492 30.129 83.5122 29.9369C83.8752 29.7447 84.3236 29.6593 84.8361 29.6593C85.498 29.6593 85.9891 29.8088 86.3308 30.129C86.6724 30.428 86.8432 30.8978 86.8432 31.4956C86.8432 31.7092 86.8219 31.9227 86.8005 32.1149C86.7792 32.307 86.7578 32.4992 86.7151 32.67L85.4339 38.6489H82.8929L84.1955 32.6487C84.2382 32.4779 84.2595 32.3284 84.2809 32.243C84.3022 32.1576 84.3022 32.0722 84.3022 32.0295C84.3022 31.7946 84.2382 31.6238 84.1314 31.517C84.0247 31.4102 83.8538 31.3462 83.6403 31.3462C83.32 31.3462 83.0211 31.517 82.7648 31.8373C82.5086 32.1576 82.3164 32.606 82.2097 33.1825L81.0139 38.6489H78.4302V38.6275ZM75.7184 34.3356H75.4835C74.6721 34.3356 74.0742 34.485 73.6898 34.784C73.3055 35.0829 73.1347 35.5313 73.1347 36.1719C73.1347 36.4922 73.1987 36.7485 73.3482 36.9193C73.4763 37.1115 73.6898 37.1969 73.9247 37.1969C74.3731 37.1969 74.7575 36.962 75.0564 36.4922C75.3554 35.9798 75.5689 35.2751 75.7184 34.3356ZM75.1205 37.7307C74.8215 38.0723 74.5012 38.3072 74.1382 38.478C73.7966 38.6489 73.3909 38.7129 72.9852 38.7129C72.3019 38.7129 71.7467 38.4994 71.3197 38.0937C70.8926 37.688 70.6791 37.1542 70.6791 36.5136C70.6791 35.2538 71.0207 34.3356 71.704 33.7804C72.3873 33.2252 73.5404 32.9476 75.1205 32.9476C75.3554 32.9476 75.5262 32.9476 75.6543 32.9476C75.7824 32.9476 75.8892 32.9476 76.0173 32.969C76.0814 32.6914 76.1027 32.4779 76.1241 32.307C76.1454 32.1362 76.1454 32.0081 76.1454 31.9227C76.1454 31.6238 76.0814 31.3889 75.9319 31.2394C75.7824 31.0899 75.5689 31.0259 75.2699 31.0259C74.971 31.0259 74.7361 31.1113 74.5439 31.3035C74.3518 31.4956 74.245 31.7732 74.1809 32.1362H71.7254C71.8321 31.2608 72.1738 30.6202 72.7289 30.2145C73.2841 29.8088 74.1169 29.6166 75.2272 29.6166C76.3803 29.6166 77.2131 29.8088 77.7469 30.1718C78.2807 30.5561 78.5369 31.154 78.5369 31.9654C78.5369 32.1789 78.5156 32.3925 78.4942 32.6487C78.4515 32.9049 78.4088 33.1612 78.3448 33.4388L77.6188 36.8125C77.5547 37.1115 77.512 37.4104 77.4693 37.7093C77.4266 38.0083 77.3839 38.2859 77.3625 38.6062H74.9924L75.1205 37.7307ZM60.8994 38.6275L63.6326 26.0293H67.2199C68.6505 26.0293 69.6755 26.2428 70.2947 26.6699C70.9139 27.0969 71.2342 27.7802 71.2342 28.7411C71.2342 29.7233 70.978 30.5134 70.4869 31.1113C69.9958 31.7092 69.2698 32.0722 68.3302 32.1789C68.9708 32.307 69.4619 32.5846 69.7609 32.9903C70.0812 33.396 70.2307 33.9512 70.2307 34.6345C70.2307 35.3178 70.1025 35.9584 69.8463 36.5349C69.5901 37.1115 69.2271 37.5385 68.7786 37.8588C68.3729 38.1364 67.8818 38.3286 67.2839 38.4567C66.6861 38.5635 65.7252 38.6275 64.3799 38.6275H60.8994ZM63.9956 36.663H65.1486C65.9814 36.663 66.6007 36.4922 66.985 36.1292C67.3694 35.7876 67.5615 35.2324 67.5615 34.4637C67.5615 33.9512 67.4121 33.5882 67.1345 33.3747C66.8355 33.1612 66.3658 33.0544 65.6611 33.0544H64.7856L63.9956 36.663ZM65.1914 31.1326H66.1095C66.985 31.1326 67.6256 30.9832 68.0313 30.6629C68.4156 30.3426 68.6078 29.8515 68.6078 29.1468C68.6078 28.6984 68.4584 28.3995 68.1808 28.2073C67.8818 28.0151 67.4121 27.9083 66.7288 27.9083H65.9174L65.1914 31.1326Z" fill="white"/>
<path fill-rule="evenodd" clip-rule="evenodd" d="M129.42 19.3885H131.449L131.086 21.2035H129.057L129.42 19.3885ZM123.741 15.1606C123.399 15.6517 122.908 15.9934 122.459 15.9934H122.331C121.669 15.9934 121.328 15.2887 121.563 14.4346L121.968 12.9826L123.719 15.2033L123.741 15.1606ZM123.591 11.3384H123.698C124.36 11.3384 124.701 12.0431 124.488 12.8972L124.168 14.0716L122.395 12.0431C122.737 11.616 123.164 11.3384 123.591 11.3384ZM120.367 7.83656H136.317L134.524 5.46638L136.04 4.22791L138.154 7.83656H138.709L137.107 3.52326L139.115 2.60509L140.268 7.85791H155.151L154.916 8.88285H153.592L151.03 18.5344H148.873L151.435 8.88285H149.556L148.702 11.3384C147.784 11.3384 146.481 11.1249 145.606 11.2957C144.859 11.4452 144.709 11.8082 144.474 12.4274C143.983 13.7513 143.727 15.0752 143.385 16.4631C143.471 17.36 143.962 17.5308 144.88 17.5094C144.795 16.6126 145.008 15.3741 146.076 14.8617C146.78 14.52 148.019 14.4987 148.275 15.3314C148.638 16.5272 147.4 17.7016 146.524 17.787C146.759 18.513 147.293 18.5771 148.083 18.8974L145.819 20.1359C145.307 19.5166 144.923 18.876 144.901 18.2141C144.09 18.5984 142.702 18.6411 141.848 18.2141C141.656 18.1287 141.463 17.9792 141.293 17.723C140.93 17.2105 140.802 16.5486 140.866 15.7585C140.951 14.9684 141.058 14.1784 141.314 13.4097C141.592 12.4915 141.912 11.8082 142.638 11.1676C143.77 10.1427 144.965 10.2281 146.759 10.3135L147.186 8.88285H140.844L138.282 18.5344H136.125L138.688 8.88285H136.937L135.954 12.1926L133.84 12.2566L133.691 11.4666C133.285 11.2957 132.602 11.2103 132.154 11.2957C131.556 11.4025 131.428 11.7655 131.257 12.2993C131.086 12.8331 131.043 13.4097 131.449 13.5591C132.111 13.8154 133.264 13.6873 133.947 13.6446C134.844 13.6232 135.378 13.9649 135.335 14.819C135.25 15.6944 134.972 16.4845 134.588 17.2105C134.353 17.7016 134.075 18.0646 133.691 18.2141C132.773 18.5984 131.107 18.4703 130.125 18.4703C129.591 18.4703 129.079 18.449 128.588 18.4063C128.374 18.3849 128.182 18.3209 127.99 18.1927C127.819 18.086 127.669 17.9151 127.541 17.7016C127.285 17.2319 127.328 16.9543 127.435 16.4631L127.627 15.609L130.21 15.6517C129.933 16.2923 129.847 16.7621 130.018 17.0183C130.381 17.5521 131.684 17.2959 132.111 17.0183L132.623 15.3528C132.73 14.9684 132.495 14.7976 132.154 14.7122C131.684 14.6054 131.15 14.6481 130.68 14.6481C130.168 14.6481 129.463 14.7336 129.015 14.4346C128.267 13.9435 128.46 12.6623 128.737 11.8296C128.972 11.1249 129.271 10.7192 129.954 10.4203C131.406 9.75832 133.691 9.92914 134.161 10.7833L134.609 8.79744H127.819L125.342 18.513H123.185L123.762 16.2496C123.164 16.8689 122.31 17.2532 121.456 17.2532H121.221C119.833 17.2532 118.936 16.1642 119.256 14.8403L119.812 12.4915C120.132 11.1676 121.52 10.0786 122.908 10.0786H123.143C124.039 10.0786 124.744 10.527 125.022 11.2103L125.641 8.79744H120.153L120.367 7.83656ZM96.7291 4.35603L98.8857 4.33468C98.779 4.59091 98.6722 5.18879 98.843 5.42367C99.1633 5.85073 100.295 5.82938 100.701 5.35962C100.872 5.16744 101.042 4.63362 101.106 4.37738L103.477 4.35603C103.263 5.40232 102.879 6.27779 101.896 6.51268C100.743 6.79026 98.5227 6.6835 97.3483 6.46997C96.1952 6.25644 96.5369 5.31691 96.7291 4.35603ZM102.388 17.6803H104.416L104.053 19.5166H102.025L102.388 17.6803ZM108.324 8.8615H106.466L105.27 13.6019C104.779 15.3528 105.804 15.4169 106.829 14.4773L108.324 8.8615ZM94.9141 7.83656H115.114L114.879 8.8615H110.651L110.053 11.1676C111.975 10.0359 113.342 10.3349 113.79 11.2103C114.11 11.8082 113.875 12.3634 113.726 12.9613L112.509 17.4881H110.203L111.313 13.1321C111.804 11.4025 110.801 11.3171 109.776 12.2353L108.196 18.4703L105.74 18.5557L106.53 15.5663C104.608 16.7194 103.242 16.3991 102.772 15.545C102.452 14.9471 102.687 14.3919 102.836 13.794L104.139 8.88285H102.302L99.7398 18.5344H97.5832L100.146 8.88285H98.2451L95.6828 18.5344H93.5261L94.85 13.5378H92.9282L93.2699 12.1926H95.1917L96.0671 8.8615H94.6151L94.9141 7.83656ZM91.22 12.8759C92.4798 12.9826 93.1631 14.1143 92.7147 15.4809L92.5866 15.8439C92.1382 17.2746 90.6221 18.4703 89.2128 18.4703H84.7501L85.0917 17.1678H88.2092C89.0634 17.1678 89.9388 16.4204 90.1524 15.4809L90.1951 15.246C90.4086 14.3279 89.8748 13.5591 89.0207 13.5591H86.501L86.6718 12.8545L91.22 12.8759ZM91.1987 12.8759C91.156 12.8759 91.1132 12.8759 91.0919 12.8759C91.1346 12.8759 91.1773 12.8759 91.1987 12.8759ZM91.2627 12.8759C92.5225 12.7264 93.6329 11.6801 93.761 10.4203L93.8037 10.0786C93.9532 8.71203 92.9282 7.60168 91.5403 7.60168H87.5687L87.2484 8.88285H89.9815C90.8357 8.88285 91.3908 9.5875 91.22 10.4416L91.1773 10.6551C91.0065 11.5093 90.1737 12.2139 89.3196 12.2139H86.864L86.7145 12.8545L91.2627 12.8759ZM73.5184 11.4879C73.9668 11.5947 74.2444 11.979 74.1377 12.342L73.2195 15.5023C73.1127 15.8653 72.6643 16.0574 72.2159 15.9507C71.7675 15.8439 71.4899 15.4596 71.5967 15.0966L72.5148 11.9363C72.6216 11.5733 73.07 11.3811 73.5184 11.4879ZM70.0379 5.12473H72.0664L71.7034 6.96109H69.6749L70.0379 5.12473ZM64.8705 15.1606C64.5288 15.6517 64.0377 15.9934 63.5893 15.9934H63.4825C62.8206 15.9934 62.4789 15.2887 62.7138 14.4346L63.1195 12.9826L64.8705 15.2033V15.1606ZM64.721 11.3384H64.8278C65.4897 11.3384 65.8314 12.0431 65.6178 12.8972L65.2975 14.0716L63.5252 12.0431C63.8669 11.616 64.2939 11.3384 64.721 11.3384ZM61.4967 7.83656H65.1694L63.3758 5.46638L64.8918 4.22791L67.0058 7.83656H67.5609L65.9595 3.52326L67.9667 2.60509L69.1197 7.85791H82.0596L81.8247 8.88285H77.2979L76.7854 10.9754C78.8139 9.65156 81.056 9.99321 80.8425 12.4274C80.7571 13.3456 80.4368 14.4987 80.0524 15.3314C79.7321 16.0361 79.3051 16.5486 78.7712 16.8902C77.9171 17.424 77.2338 17.2746 76.3797 17.1037C76.1021 17.061 76.0808 17.1037 76.1875 16.8261L76.3157 16.4631C76.3584 16.3137 76.3584 16.335 76.5078 16.335C76.7214 16.335 76.9349 16.3137 77.1271 16.2283C77.4474 16.0788 77.6822 15.5023 77.8531 14.8617C78.0239 14.2424 78.6004 12.2353 78.2588 11.6374C78.1093 11.3811 77.6609 11.3384 77.2765 11.5733C76.9349 11.7869 76.6787 12.0644 76.4865 12.342L74.9704 18.5771H72.7924L73.3476 16.3137C72.7711 16.9329 72.0664 17.3173 71.2764 17.3173H71.0415C69.7176 17.3173 68.8635 16.2283 69.1624 14.9044L69.6962 12.5556C69.9952 11.2317 71.3404 10.1427 72.6643 10.1427H72.8992C73.7747 10.1427 74.2871 10.5697 74.5647 11.253L75.2053 8.8615H68.9702L66.4933 18.5771H64.2512L64.8278 16.3137C64.2299 16.9329 63.3758 17.3173 62.5217 17.3173H62.2868C60.8988 17.3173 60.002 16.2283 60.3223 14.9044L60.8775 12.5556C61.1978 11.2317 62.5857 10.1427 63.9737 10.1427H64.2085C65.1054 10.1427 65.81 10.5911 66.0876 11.2744L66.7068 8.8615H61.2405L61.4967 7.83656Z" fill="white"/>
<path fill-rule="evenodd" clip-rule="evenodd" d="M37.2609 7.00377C37.026 8.3063 37.026 8.3063 36.8552 9.13906C36.4281 10.3135 35.8729 11.253 35.1683 12.2779C35.1256 12.2993 35.1042 12.3206 35.0615 12.342C33.0971 14.5841 30.7482 15.972 27.9296 16.9542C27.3745 17.0824 27.3745 17.0824 27.3104 17.1251V17.2532C27.5026 17.4454 27.8656 17.4026 28.1005 17.4026C28.314 17.4667 28.314 17.4667 28.6556 17.4881C29.6806 17.8084 30.6628 18.1927 31.6024 18.7479C31.6664 18.8333 32.1148 19.1536 32.8408 19.7942C33.0544 20.0504 33.2679 20.3067 33.4814 20.5629C33.9298 21.2035 34.2501 21.9508 34.5277 22.6982C34.6131 23.0825 34.6985 23.4669 34.7839 23.8512C34.8266 24.2783 34.8266 24.2783 34.8266 25.3887C34.7412 25.9225 34.6345 26.4563 34.5491 26.9901C34.3996 27.3104 34.3569 27.5453 34.1007 28.1859C33.5455 29.2962 32.9262 30.3212 32.1148 31.2607C31.1326 32.2857 30.0649 33.1825 28.9332 34.0366C28.7411 34.122 28.4421 34.2288 28.314 34.3996C26.5631 35.3818 24.8335 36.0438 22.9331 36.7057C21.7586 36.9406 20.6056 37.1755 19.4098 37.3249C17.2318 37.4531 17.2318 37.4531 16.6126 37.5171C14.6908 37.5812 7.28135 37.9442 7.15324 37.9228C7.04647 37.8161 7.06782 37.5385 7.15324 37.4317C9.13906 36.8552 11.1676 36.1932 13.1748 35.7021C13.3456 35.6381 16.7194 34.6558 17.061 34.5277C18.5771 34.2074 20.0718 33.6309 21.5665 33.2252C21.9081 33.0971 23.7018 32.6059 25.3673 32.1148C26.8406 31.7732 28.3994 31.3034 29.8301 30.8123C29.8941 30.7269 29.8941 30.6415 29.8941 30.5347C29.8514 30.5134 29.8087 30.4707 29.7874 30.4493C29.6592 30.4493 27.7375 30.9404 18.7692 33.1184C18.7265 33.1398 18.6838 33.1611 18.6625 33.1825C17.0183 33.5028 15.3741 33.9725 13.7299 34.3569C13.6018 34.3996 13.4737 34.4423 13.3669 34.485C7.15323 35.9584 7.15323 35.9584 7.00376 36.0224H6.83294C6.70482 35.8516 6.61941 35.8302 6.66212 35.5954C7.13188 35.2964 7.13188 35.2964 8.28494 34.6345C8.58388 34.5064 11.4238 32.8835 11.7014 32.7554C13.9648 31.4102 16.3136 30.1504 18.5771 28.8265C20.4775 27.7802 22.3992 26.6912 24.2996 25.6449C24.3637 25.6022 24.4278 25.5595 24.4918 25.4954C25.9438 24.7481 27.3531 23.9153 28.7838 23.1252C29.4457 22.8477 30.1504 22.4206 30.7482 22.0149C30.855 21.8654 30.7696 21.6732 30.5988 21.6519C29.2108 22.3565 27.8442 23.0825 26.4776 23.7872C26.2641 23.8512 26.2641 23.8512 26.0506 24.0007C22.1216 26.0079 22.1216 26.0079 21.8014 26.136C21.3529 26.4136 20.1785 26.9901 20.0718 27.0755C18.3635 27.9297 16.6553 28.8265 14.9684 29.7447C14.9044 29.766 14.8616 29.766 14.8189 29.7874C13.9008 30.4066 12.7904 30.8123 11.8509 31.3888C10.2067 32.2002 8.54118 33.0544 6.91835 33.9085C6.72618 33.9512 5.4877 34.8267 5.61582 33.9725C6.19235 33.4387 6.76888 32.8835 7.34541 32.3497C7.51623 32.1575 7.96465 31.7518 8.0287 31.7305C8.64794 31.0472 9.35259 30.2571 10.1213 29.7447C10.164 29.6806 10.2281 29.6165 10.2708 29.5311C11.7655 28.1432 13.2815 26.7339 14.7122 25.2605C19.0041 21.1608 23.3174 17.061 27.6307 13.0253C27.7588 12.8545 27.8869 12.6836 28.0791 12.5769C30.7055 10.0572 30.8764 9.86506 33.9939 6.897C34.2074 6.74753 34.2074 6.74753 34.2715 6.61941C34.2715 6.10694 33.9725 6.34182 33.6949 6.55535C32.9262 7.32406 32.0935 8.00735 31.3034 8.75471C31.0045 9.18176 30.4706 9.48071 30.129 9.88641C29.3816 10.5697 28.5062 11.4879 27.6521 12.0858C27.0328 12.705 26.3282 13.3456 25.6449 13.8794C23.1893 16.2496 20.4775 18.3849 18.0432 20.7764C16.8475 21.7159 15.8012 22.9331 14.5841 23.8512C14.2638 24.2142 14.2638 24.2142 12.0858 26.2214C12.0004 26.2855 11.9363 26.3282 11.8509 26.3709C9.41665 28.6129 6.93971 30.8123 4.46276 33.0117C4.18518 33.0117 4.12112 32.9476 4.14247 32.67C7.11053 28.3567 10.0786 24.0221 13.0039 19.6874C14.1997 17.8938 15.3741 16.0574 16.6339 14.3065C17.5308 12.9826 17.5948 12.8545 17.9151 12.4274C20.1999 9.0323 22.5914 5.61582 24.8335 2.178C25.1111 1.90041 25.0256 1.72959 24.6626 1.77229C22.7622 4.44141 20.7978 7.06782 18.9187 9.77965C18.5984 10.1854 18.0005 11.0822 11.6374 19.9864C11.4879 20.2212 9.20312 23.3388 9.05365 23.5309C7.00376 26.3922 4.95388 29.2962 2.86129 32.1148C2.75453 32.2002 2.64776 32.2857 2.49829 32.2002V31.944C3.993 28.0578 5.57312 24.1502 7.19594 20.328C9.56612 14.3705 11.9363 8.37035 14.3492 2.41288C14.3492 2.28476 14.3492 2.28477 14.2638 2.178C14.1784 2.178 14.0929 2.19935 14.0289 2.26341C12.1925 6.38453 10.2921 10.5056 8.43441 14.6268C8.349 14.7335 6.40588 19.0682 5.85071 20.1785C5.61582 20.7551 5.42365 21.1181 5.16741 21.7159C3.58729 25.047 2.07123 28.4421 0.555175 31.8159C0.362998 31.9013 0.192176 31.9227 0 31.8372C0.0213529 31.6024 0.021351 31.6024 0.768704 28.8478C0.832763 28.6984 1.04629 27.8656 1.11035 27.6948C1.17441 27.3958 1.23847 27.2464 1.96447 24.3851C2.34882 22.9544 2.73318 21.5238 3.13888 20.1145C3.20294 19.8155 6.83294 6.68347 6.87565 6.49129C7.00377 6.06424 7.11053 5.65853 7.23865 5.23147C7.70841 3.39512 8.19953 1.68688 8.56253 0.213529C8.60523 0.106765 8.64794 0.0854115 8.73335 0.0213526C15.2246 0.0213526 21.7373 0.0427059 28.2499 0C30.2358 0.106765 32.2643 0.448411 34.1007 1.30253C34.2928 1.452 34.2928 1.452 34.7626 1.70824C35.1683 2.00718 35.5954 2.34882 35.9797 2.73318C36.1932 3.03212 36.3854 3.33106 36.5989 3.63C36.7271 3.92894 36.8338 4.24924 36.9619 4.54818C37.0474 4.99659 37.1541 5.445 37.2395 5.87206C37.2395 6.21371 37.2395 6.59806 37.2609 7.00377ZM47.6598 8.69065C47.5317 9.60882 47.3822 10.4629 47.1259 11.3384C46.5921 12.4488 46.5921 12.4488 46.2505 13.068C45.6312 14.0075 44.8412 14.7976 44.0084 15.5449C43.197 16.1642 43.197 16.1642 42.3215 16.7834C41.2752 17.4027 40.1222 17.8938 39.0118 18.4062C38.5848 18.5344 38.0723 18.6411 37.6879 18.876C37.6879 18.9828 37.6879 18.9828 37.7093 19.0255C39.1399 19.1749 40.3998 19.6661 41.5955 20.4561C42.1721 20.9472 42.7272 21.4384 43.2184 22.0362C43.7949 22.869 44.2433 23.6804 44.5849 24.6199C44.6704 25.0043 44.7558 25.3673 44.8412 25.7517C44.9052 26.3495 44.9052 26.9474 44.9052 27.5667C44.7131 29.3176 44.0725 30.8764 43.1329 32.3711C42.5351 33.2038 42.5351 33.2038 41.9372 33.9725C40.9122 35.0402 39.6524 36.2573 38.2858 36.8765C37.2822 37.6239 35.937 38.0937 34.7839 38.5634C34.0579 38.7769 33.3106 39.0118 32.5846 39.2467C30.9404 39.5457 30.9404 39.5457 30.7696 39.6097C29.5098 39.7378 29.5098 39.7378 29.1681 39.8019C21.8654 40.1008 14.4773 39.9727 7.17459 39.9727C7.08918 39.8232 7.04647 39.6097 7.23865 39.5243C10.7405 39.3748 14.2638 39.204 17.7656 39.0972C18.4489 39.0972 19.1963 39.1186 19.8582 39.0118C22.2071 38.9264 24.4918 38.8197 26.8193 38.4567C26.9688 38.3926 27.588 38.2645 28.5062 38.0296C33.0544 36.5562 37.1968 33.6736 39.1186 29.1468C39.2467 28.7411 39.2467 28.7411 39.3748 28.5062C39.4816 27.9937 39.5884 27.4812 39.6951 26.9688C39.7165 25.7089 39.7165 25.7089 39.6951 25.2178C39.5243 24.0007 39.0759 22.7836 38.3712 21.78C38.0509 21.4384 37.752 21.0754 37.4317 20.7337C35.937 19.5593 34.4636 18.7692 32.5419 18.6198C32.5419 18.4703 32.5846 18.4489 32.7127 18.3849C33.1825 18.2568 33.1825 18.2568 33.8444 18.0219C36.8765 16.698 39.5884 14.9257 41.2966 12.0217C41.4674 11.6374 41.6382 11.2316 41.8091 10.8259C42.108 9.84371 42.2788 8.86147 42.3642 7.83653C42.3215 7.38812 42.3002 6.93971 42.2788 6.49129C42.1934 6.21371 42.108 5.91477 42.0226 5.61582C41.6596 4.74035 41.2752 4.20653 40.6133 3.54459C39.567 2.71182 38.3926 2.09259 37.0687 1.79365C37.0687 1.77229 37.0687 1.72959 37.0901 1.70824C37.7734 1.58012 38.6061 1.70824 39.2894 1.75094C39.6097 1.815 39.6097 1.815 40.7628 1.94312C41.1471 2.02853 41.5315 2.11394 41.9372 2.19935C43.1757 2.541 44.4141 2.96806 45.4604 3.71541C45.7594 3.993 46.0797 4.27059 46.3786 4.54818C46.6348 4.95388 46.8911 5.33824 47.1473 5.72259C47.2754 6.10694 47.4035 6.46994 47.5317 6.85429C47.553 7.40947 47.6384 8.05006 47.6598 8.69065Z" fill="white"/>
</svg>
