<svg width="148" height="40" viewBox="0 0 148 40" fill="none" xmlns="http://www.w3.org/2000/svg">
<path d="M18.9439 31.6196L18.8384 31.7214C17.1381 33.4505 15.1701 34.3669 13.1422 34.3669C8.90927 34.3669 5.83661 31.1974 5.83661 26.8242C5.83661 22.4589 8.90927 19.2849 13.1422 19.2849C15.1701 19.2849 17.1381 20.2051 18.8384 21.9388L18.9439 22.0437L21.6661 18.7583L21.5934 18.6691C19.3295 15.9989 16.6131 14.699 13.2736 14.699C9.92254 14.699 6.85925 15.8246 4.65155 17.8546C2.25282 20.0529 0.986328 23.1532 0.986328 26.8242C0.986328 30.4934 2.25282 33.6014 4.65155 35.8003C6.85925 37.8396 9.92254 38.9591 13.2736 38.9591C16.6131 38.9591 19.3295 37.6599 21.5934 34.9886L21.6661 34.9056L18.9439 31.6196Z" fill="white"/>
<path d="M24.417 38.5119H29.2261V15.0797H24.417V38.5119Z" fill="white"/>
<path d="M48.0638 33.4168C46.7807 34.1966 45.5867 34.5886 44.5144 34.5886C42.9607 34.5886 42.2585 33.77 42.2585 31.9469V19.5136H47.1563V15.1011H42.2585V7.81003L37.5449 10.3279V15.1011H33.4785V19.5136H37.5449V32.74C37.5449 36.3435 39.6835 38.8052 42.8758 38.8692C45.0435 38.9116 46.3503 38.2671 47.1439 37.7959L47.1904 37.7614L48.3482 33.2434L48.0638 33.4168Z" fill="white"/>
<path d="M52.0469 38.5119H56.8592V15.0797H52.0469V38.5119Z" fill="white"/>
<path d="M133.56 6.16389V28.5158L135.058 26.1884C135.057 26.1987 141.788 16.4691 142.651 15.2285H145.651C145.013 16.0849 139.72 23.3553 139.72 23.3553C139.72 23.3553 146.614 37.695 147.013 38.5119H144.067C143.904 38.1774 137.982 25.6624 137.982 25.6624L133.56 31.8464V38.5119H130.815V7.72842C131.055 7.59082 132.914 6.52737 133.56 6.16389ZM111.012 18.0044C112.428 15.8918 114.647 14.7269 117.242 14.7269C122.417 14.7269 125.16 18.0213 125.16 24.2552V38.5119H122.408V24.8455C122.408 19.5418 120.563 17.0798 116.566 17.0798C112.74 17.0798 110.456 19.9841 110.456 24.8455V38.5119H107.712V15.2285H110.456V18.8392L111.012 18.0044ZM94.1424 14.7269C99.4678 14.7269 102.057 17.1576 102.057 22.1591V38.5119H99.3116V35.115L98.7775 35.7029C96.7574 37.9275 94.4387 39.0152 91.6777 39.0152C89.5143 39.0152 84.4806 38.3005 84.4806 31.6722C84.4806 26.2542 88.9614 24.3312 93.1591 24.3312C95.2668 24.3312 97.3488 24.8156 98.8598 25.6607L99.3116 25.9106V22.568C99.3116 18.862 97.4982 16.9851 93.9148 16.9851C91.705 16.9851 89.7106 17.5418 87.6657 18.6922C87.4852 18.2785 86.851 16.8787 86.6744 16.4794C88.8117 15.3551 91.4508 14.7269 94.1424 14.7269ZM87.1722 31.444C87.1722 34.9246 88.979 36.8427 92.2617 36.8427C95.0557 36.8427 97.5372 35.5252 99.2599 33.1293L99.3116 33.0471V27.9423L99.1591 27.8542C97.4071 26.8573 95.6127 26.4552 92.9752 26.4552C89.3446 26.4552 87.1722 28.3197 87.1722 31.444ZM65.9775 6.16389V18.6192L66.5089 18.0385C68.5303 15.8099 70.768 14.7269 73.3406 14.7269C78.4888 14.7269 81.4438 19.0099 81.4438 26.4796C81.4438 34.0943 78.0876 39.0152 72.8915 39.0152C70.3596 39.0152 68.3324 38.0348 66.5117 35.9331L65.9775 35.3126V38.5119H63.2383V7.72842C63.4715 7.59082 65.3336 6.52737 65.9775 6.16389ZM66.0427 20.6479L65.9775 20.7339V32.854L66.0265 32.9283C67.5406 35.2671 70.0072 36.6654 72.6325 36.6654C76.6867 36.6654 78.7419 33.2547 78.7419 26.5293C78.7419 20.5212 76.4649 17.0798 72.4952 17.0798C70.0889 17.0798 67.9178 18.2798 66.0427 20.6479Z" fill="white"/>
<path fill-rule="evenodd" clip-rule="evenodd" d="M59.7403 10.9219C55.338 4.69811 48.0271 0.984811 40.5888 0.984811C33.1535 0.984811 25.8411 4.69811 21.4462 10.9219L21.2207 11.2422H26.7638L26.8252 11.1758C30.598 7.28917 35.5229 5.23378 40.5888 5.23378C45.6553 5.23378 50.5793 7.28917 54.3593 11.1758L54.4206 11.2422H59.962L59.7403 10.9219Z" fill="white"/>
</svg>
