<svg height="146.385011" viewBox="0 0 70.264784 15.123971" width="683.130051" xmlns="http://www.w3.org/2000/svg" xmlns:xlink="http://www.w3.org/1999/xlink"><clipPath id="a"><path d="m512 15.03125h36v23.96875h-36zm0 0"/></clipPath><clipPath id="b"><path d="m541 39h9.79297v18h-9.79297zm0 0"/></clipPath><clipPath id="c"><path d="m547 38h3.79297v19h-3.79297zm0 0"/></clipPath><clipPath id="d"><path d="m540 34h10.79297v23h-10.79297zm0 0"/></clipPath><clipPath id="e"><path d="m352.36719 45h7.63281v12.15625h-7.63281zm0 0"/></clipPath><clipPath id="f"><path d="m360 48h7v9.15625h-7zm0 0"/></clipPath><clipPath id="g"><path d="m388 48h7v9.15625h-7zm0 0"/></clipPath><clipPath id="h"><path d="m399 48h7v9.15625h-7zm0 0"/></clipPath><clipPath id="i"><path d="m409 48h7v9.15625h-7zm0 0"/></clipPath><clipPath id="j"><path d="m430 48h7v9.15625h-7zm0 0"/></clipPath><clipPath id="k"><path d="m454 48h7v9.15625h-7zm0 0"/></clipPath><clipPath id="l"><path d="m478 48h6v9.15625h-6zm0 0"/></clipPath><clipPath id="m"><path d="m485 45h7v12.15625h-7zm0 0"/></clipPath><clipPath id="n"><path d="m492 48h7v9.15625h-7zm0 0"/></clipPath><clipPath id="o"><path d="m352.36719 28h9.63281v11h-9.63281zm0 0"/></clipPath><clipPath id="p"><path d="m102.20703 82h.79297v1h-.79297zm0 0"/></clipPath><clipPath id="q"><path d="m112.53906 129h.46094v1h-.46094zm0 0"/></clipPath><clipPath id="r"><path d="m275.27344 129h.72656v1h-.72656zm0 0"/></clipPath><clipPath id="s"><path d="m295.51172 193h.48828v1h-.48828zm0 0"/></clipPath><clipPath id="t"><path d="m112.88281 267h.11719v1h-.11719zm0 0"/></clipPath><clipPath id="u"><path d="m317.56641 287h.43359v1h-.43359zm0 0"/></clipPath><clipPath id="v"><path d="m115.38672 379h.61328v1h-.61328zm0 0"/></clipPath><clipPath id="w"><path d="m108.30469 398h.69531v1h-.69531zm0 0"/></clipPath><clipPath id="x"><path d="m121.83984 416h.16016v1h-.16016zm0 0"/></clipPath><symbol id="y" overflow="visible"/><symbol id="z" overflow="visible"/><symbol id="A" overflow="visible"/><symbol id="B" overflow="visible"/><symbol id="C" overflow="visible"/><symbol id="D" overflow="visible"/><symbol id="E" overflow="visible"/><symbol id="F" overflow="visible"/><symbol id="G" overflow="visible"/><symbol id="H" overflow="visible"/><symbol id="I" overflow="visible"/><symbol id="J" overflow="visible"/><symbol id="K" overflow="visible"/><symbol id="L" overflow="visible"/><symbol id="M" overflow="visible"/><symbol id="N" overflow="visible"/><symbol id="O" overflow="visible"/><symbol id="P" overflow="visible"/><symbol id="Q" overflow="visible"/><symbol id="R" overflow="visible"/><symbol id="S" overflow="visible"/><symbol id="T" overflow="visible"/><symbol id="U" overflow="visible"/><symbol id="V" overflow="visible"/><symbol id="W" overflow="visible"/><symbol id="X" overflow="visible"/><symbol id="Y" overflow="visible"/><symbol id="Z" overflow="visible"/><symbol id="aa" overflow="visible"/><symbol id="ab" overflow="visible"/><symbol id="ac" overflow="visible"/><symbol id="ad" overflow="visible"/><symbol id="ae" overflow="visible"/><symbol id="af" overflow="visible"/><symbol id="ag" overflow="visible"/><symbol id="ah" overflow="visible"/><symbol id="ai" overflow="visible"/><symbol id="aj" overflow="visible"/><symbol id="ak" overflow="visible"/><symbol id="al" overflow="visible"/><symbol id="am" overflow="visible"/><symbol id="an" overflow="visible"/><symbol id="ao" overflow="visible"/><symbol id="ap" overflow="visible"/><g transform="translate(-43.414702 -160.14959)"><path d="m113.5472 175.0765h-14.795998v-14.79462h14.795998zm0 0" fill="#b5d430"/><path d="m102.06676 169.03518c-2.215883 2.88837-3.281106 5.95312-3.312803 6.04132h3.027553c0-1.45934-.022-3.69314.28525-6.04132" fill="#00b8f0"/><g clip-path="url(#a)" transform="matrix(.3527778 0 0 .3527778 -80.760332 154.97781)"><path d="m512.42578 38.957031c2.07031-1.59375 4.38281-3.253906 6.80859-4.789062 1.6211-7.359375 4.71094-14.480469 10.58985-18.867188 5.88281 4.386719 8.96484 11.507813 10.58203 18.867188 2.43359 1.535156 4.74609 3.195312 6.81641 4.789062-3.01172-9.152343-8.33594-19.199218-17.39454-23.921875h-.0117c-9.0586 4.722657-14.375 14.769532-17.39063 23.921875" fill="#00b8f0"/></g><g clip-path="url(#b)" transform="matrix(.3527778 0 0 .3527778 -80.760332 154.97781)"><path d="m542.20703 56.972656h8.57813c-.0859-.25-3.10547-8.9375-9.39063-17.125.87109 6.65625.8125 12.988282.8125 17.125" fill="#00b8f0"/></g><g clip-path="url(#c)" transform="matrix(.3527778 0 0 .3527778 -80.760332 154.97781)"><path d="m550.79297 56.972656v-15.167968c-1.07422-.894532-2.27344-1.863282-3.57031-2.847657 2.71875 8.253907 3.5625 15.792969 3.57031 18.015625" fill="#00b8f0"/></g><path d="m106.14989 165.30069c1.64538.95499 2.99861 2.32476 4.08175 3.73449-.0841-.66422-.19844-1.3367-.34726-2.00367-1.2113-.76894-2.50115-1.44832-3.73449-1.83968-1.23197.39136-2.52319 1.07074-3.73586 1.83968-.14883.66697-.26183 1.33945-.34727 2.00367 1.08176-1.40973 2.43637-2.7795 4.08313-3.73449" fill="#00b8f0"/><path d="m98.751202 169.72558v5.35092h.0028c0-.78411.296281-3.44234 1.256768-6.35551-.456125.34726-.880562.68901-1.259523 1.00459" fill="#00b8f0"/><g clip-path="url(#d)" transform="matrix(.3527778 0 0 .3527778 -80.760332 154.97781)"><path d="m540.40625 34.167969c.42578 1.890625.74609 3.796875.98828 5.679687 6.28516 8.1875 9.30469 16.875 9.39063 17.125h.008c-.008-2.222656-.85156-9.761718-3.57031-18.015625-2.07032-1.59375-4.38282-3.253906-6.81641-4.789062" fill="#008fbf"/></g><path d="m102.41403 167.03151c-.85576.54157-1.67156 1.12724-2.40192 1.68948-.961873 2.91179-1.258153 5.5714-1.258153 6.35551.03172-.0882 1.09692-3.15295 3.312803-6.04132.0854-.66422.19844-1.3367.34727-2.00367" fill="#008fbf"/><g clip-path="url(#e)" transform="matrix(.3527778 0 0 .3527778 -80.760332 154.97781)"><path d="m359.32422 53.121094c-.14844 2.578125-1.32813 4.011719-3.35156 4.011719-2.30469 0-3.59766-1.78125-3.59766-5.828125 0-4.035157 1.29297-5.824219 3.59766-5.824219 2.29687 0 3.23828 1.625 3.23828 3.46875h-1.01172c0-1.53125-.76953-2.617188-2.22656-2.617188-1.60938 0-2.58985 1.332032-2.58985 4.972657 0 3.644531.98047 4.976562 2.58985 4.976562 1.42578 0 2.22656-1.210937 2.33984-3.160156zm0 0" fill="#006b7a"/></g><g clip-path="url(#f)" transform="matrix(.3527778 0 0 .3527778 -80.760332 154.97781)"><path d="m360.25391 52.746094c0 2.914062 1.03515 4.386719 2.89062 4.386719 1.84375 0 2.89453-1.472657 2.89453-4.386719 0-2.910156-1.05078-4.375-2.89453-4.375-1.85547 0-2.89062 1.464844-2.89062 4.375m1.00781 0c0-2.667969.82422-3.589844 1.88281-3.589844s1.875.921875 1.875 3.589844c0 2.679687-.81641 3.597656-1.875 3.597656s-1.88281-.917969-1.88281-3.597656" fill="#006b7a"/></g><path d="m48.87862 172.1082h.303166v.41342h.01101c.158475-.3266.423058-.47956.751032-.47956.358288 0 .576019.21635.618741.51676h.01379c.132292-.32797.372072-.51676.751029-.51676.412034 0 .684886.23289.684886.76205v2.26136h-.334863v-2.21037c0-.35002-.159851-.53606-.464397-.53606-.332109 0-.598071.30179-.598071.75792v1.98851h-.33624v-2.21037c0-.35002-.159854-.53606-.461645-.53606-.336239 0-.600823.30179-.600823.75792v1.98851h-.337619zm0 0" fill="#006b7a"/><path d="m52.704054 172.1082h.301791v.41342h.0069c.157095-.3266.425813-.47956.752408-.47956.358292 0 .577399.21635.618741.51676h.01238c.133671-.32797.373451-.51676.752412-.51676.413409 0 .687638.23289.687638.76205v2.26136h-.336212v-2.21037c0-.35002-.162609-.53606-.461641-.53606-.336243 0-.603582.30179-.603582.75792v1.98851h-.333484v-2.21037c0-.35002-.161234-.53606-.461645-.53606-.334864 0-.600823.30179-.600823.75792v1.98851h-.334864zm0 0" fill="#006b7a"/><g clip-path="url(#g)" transform="matrix(.3527778 0 0 .3527778 -80.760332 154.97781)"><path d="m393.3125 54.167969c-.16016 1.46875-.78516 2.175781-1.77344 2.175781-.92969 0-1.78125-.738281-1.78125-3.15625v-.394531h4.57813v-.347656c0-2.804688-.84375-4.074219-2.69922-4.074219-1.84766 0-2.89063 1.464844-2.89063 4.375 0 3.15625 1.04297 4.386719 2.8086 4.386719 1.57812 0 2.5625-1.183594 2.69922-2.964844zm-3.55469-2.167969c.0312-2.078125.61328-2.84375 1.78125-2.84375 1.17188 0 1.75391.765625 1.78125 2.84375zm0 0" fill="#006b7a"/></g><path d="m58.87491 172.1082h.334861v.46302h.0097c.129536-.32935.402385-.52916.746897-.52916.04134 0 .07579.004.118509.0165v.33624c-.0565-.0124-.114378-.0207-.162606-.0207-.367937 0-.712449.2701-.712449.84474v1.84657h-.33486zm0 0" fill="#006b7a"/><g clip-path="url(#h)" transform="matrix(.3527778 0 0 .3527778 -80.760332 154.97781)"><path d="m405.24219 54.167969c-.13672 1.78125-1.11719 2.964844-2.66407 2.964844-1.77343 0-2.80859-1.230469-2.80859-4.386719 0-2.910156 1.03516-4.375 2.88672-4.375 1.57422 0 2.49219.964844 2.58594 2.683594h-.94922c-.10547-1.308594-.6211-1.898438-1.63672-1.898438-1.02734 0-1.88281.632813-1.88281 3.601563 0 3.15625.90234 3.585937 1.78906 3.585937.96484 0 1.57422-.707031 1.73047-2.175781zm0 0" fill="#006b7a"/></g><path d="m62.714124 171.09121h.333484v.565h-.333484zm0 1.01699h.333484v2.95727h-.333484zm0 0" fill="#006b7a"/><g clip-path="url(#i)" transform="matrix(.3527778 0 0 .3527778 -80.760332 154.97781)"><path d="m410.32031 51.054688c0-1.21875.48828-1.898438 1.60938-1.898438.84765 0 1.44922.386719 1.44922 1.453125 0 .984375-.13672 1.140625-.80469 1.324219l-1.78125.511719c-1.19141.328125-1.69922 1.210937-1.69922 2.320312 0 1.457031.66797 2.367188 2.13672 2.367188.93359 0 1.78515-.316407 2.16797-1.414063h.0273v.273438c0 .875.47656 1.050781 1.21875 1.050781.12891 0 .26953-.03906.4375-.101563v-.695312h-.26562c-.33594 0-.49219-.21875-.49219-.6875v-4.960938c0-1.324218-.62891-2.226562-2.36719-2.226562-1.76953 0-2.58984.964844-2.58984 2.683594zm3.0586 2.917968c0 1.503907-.79297 2.371094-1.94141 2.371094-.82422 0-1.33203-.671875-1.33203-1.640625 0-.992187.48828-1.484375 1.44531-1.734375l.78516-.210937c.38281-.09375.91797-.269532 1.00781-.550782h.0352zm0 0" fill="#006b7a"/></g><path d="m66.112366 171.09121h.332108v3.97426h-.332108zm0 0" fill="#006b7a"/><path d="m68.423335 175.0765h1.090031c.752408 0 1.20578-.41893 1.20578-1.11759 0-.51814-.2508-.8971-.740004-.99081v-.008c.39963-.1006.609092-.4768.609092-.86403 0-.59256-.297656-.99908-1.069358-.99908h-1.095541zm.355533-1.92926h.664217c.618737 0 .917773.27837.917773.81167 0 .53468-.299036.8158-.917773.8158h-.664217zm0-1.7501h.62701c.55535 0 .829578.1943.829578.72484 0 .46165-.279742.7221-.892969.7221h-.563619zm0 0" fill="#006b7a"/><g clip-path="url(#j)" transform="matrix(.3527778 0 0 .3527778 -80.760332 154.97781)"><path d="m431.58594 51.078125c0-1.214844.48437-1.894531 1.60937-1.894531.85156 0 1.45313.375 1.45313 1.453125 0 .976562-.14063 1.132812-.80469 1.324219l-1.78516.511718c-1.1875.324219-1.6875 1.207032-1.6875 2.3125 0 1.460938.66016 2.375 2.12891 2.375.92969 0 1.78125-.316406 2.16016-1.425781h.043v.289063c0 .859375.46485 1.042968 1.20313 1.042968.12891 0 .26953-.03125.44531-.09375v-.703125h-.26562c-.33203 0-.48828-.21875-.48828-.691406v-4.960937c0-1.324219-.63672-2.226563-2.3711-2.226563-1.76562 0-2.58984.964844-2.58984 2.6875zm3.0625 2.921875c0 1.5-.78907 2.363281-1.94141 2.363281-.82031 0-1.32422-.660156-1.32422-1.636718 0-.996094.48828-1.488282 1.42969-1.738282l.79297-.207031c.3789-.101562.91406-.273437 1.00781-.554687h.0352zm0 0" fill="#006b7a"/></g><path d="m73.59649 172.11647h.297656v.41066h.01101c.166744-.3266.45889-.47818.757922-.47818.450621 0 .757922.23426.757922.79237v2.23518h-.333484v-2.14147c0-.4079-.1695-.60634-.511253-.60634-.38723 0-.650434.30041-.650434.75654v1.99127h-.329353zm0 0" fill="#006b7a"/><path d="m76.032862 171.09672h.333488v2.48874h.01238l1.147907-1.46899h.412034l-.888834 1.09692 1.050064 1.86311h-.412031l-.880566-1.5627-.440972.52504v1.03766h-.333488zm0 0" fill="#006b7a"/><g clip-path="url(#k)" transform="matrix(.3527778 0 0 .3527778 -80.760332 154.97781)"><path d="m454.88672 52.757813c0 2.929687 1.04687 4.402343 2.89844 4.402343 1.84375 0 2.88671-1.472656 2.88671-4.402343 0-2.894532-1.04296-4.367188-2.88671-4.367188-1.85157 0-2.89844 1.472656-2.89844 4.367188m1.01953 0c0-2.660157.8125-3.574219 1.87891-3.574219 1.05078 0 1.875.914062 1.875 3.574219 0 2.691406-.82422 3.605468-1.875 3.605468-1.06641 0-1.87891-.914062-1.87891-3.605468" fill="#006b7a"/></g><path d="m82.369083 172.39759h-.410655v-.28112h.410655v-.3514c0-.4079.08544-.71244.644923-.71244.09922 0 .148827.004.209462.0165v.27699c-.04686-.01-.09784-.0138-.158475-.0138-.246669 0-.361046.0923-.361046.4327v.3514h.519521v.28112h-.519521v2.67891h-.334864zm0 0" fill="#006b7a"/><path d="m85.115514 175.0765h.95636c1.160307 0 1.44556-.69315 1.44556-1.99127 0-1.29673-.285253-1.98851-1.44556-1.98851h-.95636zm.354154-3.67936h.580157c.779967 0 1.107941.39136 1.107941 1.69361 0 1.2926-.327974 1.68396-1.107941 1.68396h-.580157zm0 0" fill="#006b7a"/><g clip-path="url(#l)" transform="matrix(.3527778 0 0 .3527778 -80.760332 154.97781)"><path d="m478.70312 48.582031h.95313v5.902344c0 1.363281.45312 1.878906 1.44531 1.878906 1.07813 0 1.83594-.847656 1.83594-2.148437v-5.632813h.94531v8.390625h-.85156v-1.175781h-.03125c-.47266.933594-1.29297 1.359375-2.14453 1.359375-1.27735 0-2.15235-.652344-2.15235-2.242187zm0 0" fill="#006b7a"/></g><g clip-path="url(#m)" transform="matrix(.3527778 0 0 .3527778 -80.760332 154.97781)"><path d="m485.62109 56.972656h.85547v-1.394531h.0312c.25.960938 1.0586 1.582031 2.04688 1.582031 1.85156 0 2.6914-1.488281 2.6914-4.402343 0-2.882813-.83984-4.367188-2.6914-4.367188-1.03516 0-1.75.570313-1.94922 1.449219h-.0352v-4.148438h-.94922zm.94922-4.214843c0-3.089844.875-3.574219 1.83203-3.574219.94922 0 1.83203.484375 1.83203 3.574219 0 3.117187-.88281 3.605468-1.83203 3.605468-.95703 0-1.83203-.488281-1.83203-3.605468" fill="#006b7a"/></g><g clip-path="url(#n)" transform="matrix(.3527778 0 0 .3527778 -80.760332 154.97781)"><path d="m493.50391 51.078125c0-1.214844.48828-1.894531 1.60937-1.894531.85547 0 1.45703.375 1.45703 1.453125 0 .976562-.14453 1.132812-.8125 1.324219l-1.78906.511718c-1.17188.324219-1.68359 1.207032-1.68359 2.3125 0 1.460938.66406 2.375 2.14062 2.375.92188 0 1.78125-.316406 2.15625-1.425781h.0312v.289063c0 .859375.48047 1.042968 1.21484 1.042968.125 0 .26954-.03125.44141-.09375v-.703125h-.26562c-.33204 0-.49219-.21875-.49219-.691406v-4.960937c0-1.324219-.62891-2.226563-2.36719-2.226563-1.76562 0-2.58984.964844-2.58984 2.6875zm3.0664 2.921875c0 1.5-.79297 2.363281-1.9414 2.363281-.82813 0-1.33204-.660156-1.33204-1.636718 0-.996094.48829-1.488282 1.44141-1.738282l.78906-.207031c.375-.101562.91016-.273437 1.01172-.554687h.0312zm0 0" fill="#006b7a"/></g><path d="m95.459069 171.09672h.333484v.56776h-.333484zm0 1.01975h.333484v2.96003h-.333484zm0 0" fill="#006b7a"/><path d="m66.21434 164.36225s.07441 3.11023.07441 3.29765c0 .18741.03306.58704-.187414.82544.190169-.0978.445107-.53606.445107-1.10794 0-.28663-.07717-3.33348-.07717-3.33348zm0 0" fill="#006b7a"/><path d="m47.630118 165.52118s.190168 2.51354.09922 2.84289c-.163989.59256-.469914.8351-1.211298.9977.110243.0744.504363.19293.825447-.0358.389982-.27698.660079-.97013.660079-1.63159 0-.29215-.107488-2.54248-.107488-2.54248zm0 0" fill="#006b7a"/><path d="m65.105019 164.36225s.07304 2.96278.09922 3.28662c.01517.23151-.07993.29766-.377582.29766h-.906748c-.111622 0-.526411.003-.658703-.15985-.132292-.16123-.159854-.23978-.159854-1.06661 0-1.03904.03721-1.33669-.08268-1.56545l-.243914.36656c.07028.13367.130916.20808.107488 1.04318-.02343.83371.107488.96187-.02343 1.2168-.09508.18604-.602202.16537-.719335.16537h-1.094161c-.111623-.32246-.427193-.62701-1.076248-1.05144-.841981-.55535-1.384928-.86541-1.384928-1.32843 0-.28801.04685-.41479.04685-.41479s-.254939.33073-.254939.71106c0 .42444.372072.78549 1.014237 1.17409.454755.27837 1.008725.57327 1.305002.90951h-10.661874c-.111622 0-.638034.008-.735873-.19982-.16123-.33762-.04685-1.54202-.03996-2.38676.0083-.85025.02893-1.08589-.08957-1.31603l-.232889.39826c.07304.13642.111622.14745.08819.98943-.02618.83096-.06201 2.07532-.0372 2.36196.0372.4079.137802.60633 1.063844.60633h10.856186c.02067.31695-.0303.69453-.352777 1.32016.341753-.41341.502983-.85576.533301-1.32016h1.051444c.201192 0 .737249.0221.908124-.45337.14745.41203.36656.45337.853006.45337l.939825-.001c.206703 0 .343129-.0813.442348-.27561.100598-.19706.159854-.45062.159854-.74552 0-.28663-.07993-3.33347-.07993-3.33347zm0 0" fill="#006b7a"/><g clip-path="url(#o)" transform="matrix(.3527778 0 0 .3527778 -80.760332 154.97781)"><path d="m361.41797 36.992188c0-1.128907-.44531-1.410157-1.19531-2.289063-.6211-.726562-1.10938-1.203125-1.10938-1.472656 0-.234375.66797-2.652344 2.10938-3.085938l.23046-1.285156c-1.0664.02734-2.74218 2.789063-2.9414 5.046875-.0312.445313.51172.871094.90625 1.3125.6875.75 1.48828 1.179688 1.48828 1.425781 0 .164063-.35547.109375-.58203.109375h-4.91406c-1.63282 0-2.48829-.644531-2.48829-3.347656 0-2.941406.67188-3.996094.67188-3.996094l-.0664-.5625s-1.16015 1.617188-1.16015 4.949219c0 3.328125.36718 4.25 2.96875 4.25h5.32031s.76172.08203.76172-1.054687" fill="#006b7a"/></g><path d="m90.160512 164.77566c.130912-.0923.234266-.36656.234266-.36656s-.114378-.25769-.267339-.36518l-.191548.37621s.203952.14194.224621.35553" fill="#006b7a"/><path d="m62.690696 164.77566c.129537-.0923.230135-.36656.230135-.36656s-.111623-.25769-.261828-.36518l-.195683.37621s.205328.14194.227376.35553" fill="#006b7a"/><path d="m63.142693 164.77566c.129536-.0923.232889-.36656.232889-.36656s-.114377-.25769-.267338-.36518l-.192927.37621s.205327.14194.227376.35553" fill="#006b7a"/><path d="m93.007538 169.63876c.129537-.0965.23289-.36931.23289-.36931s-.114378-.25908-.265963-.36518l-.192923.37758s.205327.14056.225996.35691" fill="#006b7a"/><path d="m74.769201 169.63876c.129537-.0965.231511-.36931.231511-.36931s-.114378-.25908-.26596-.36518l-.194302.37758s.206703.14056.228751.35691" fill="#006b7a"/><path d="m69.892323 169.63876c.130916-.0965.234269-.36931.234269-.36931s-.115757-.25908-.267342-.36518l-.192923.37758s.202572.14056.225996.35691" fill="#006b7a"/><path d="m59.472978 169.63876c.126778-.0965.232886-.36931.232886-.36931s-.114374-.25908-.267338-.36518l-.194303.37758s.206706.14056.228755.35691" fill="#006b7a"/><path d="m70.34432 169.63876c.130916-.0965.23289-.36931.23289-.36931s-.111623-.25908-.264584-.36518l-.194303.37758s.203948.14056.225997.35691" fill="#006b7a"/><path d="m44.836834 169.63876c.129533-.0965.234266-.36931.234266-.36931s-.115757-.25908-.267339-.36518l-.192927.37758s.202572.14056.226.35691" fill="#006b7a"/><path d="m45.28883 169.63876c.129533-.0965.231511-.36931.231511-.36931s-.113002-.25908-.264583-.36518l-.192928.37758s.202572.14056.226.35691" fill="#006b7a"/><path d="m85.446244 166.6429c.840602-.10197.826823-.86954.826823-.86954s-.533302.1006-.695911.011c-.03858-.0303.323839-.31695.547081-.3266.03721-.1571.0248-.2825.0248-.2825s-.283877.0896-.502987.2825c-.220486.19155-.348643.38585-.311436.50161.135047.17776.742763.0965.742763.0965s-.01792.22738-.733114.36518c-.719339.13918-.982543 0-.982543 0s.2384.32246 1.084517.22186" fill="#006b7a"/><path d="m79.389765 165.17392c-.507118 0-.635275.6463-.635275.6463s.16123-.2949.534677-.2949c.706935 0 1.33532 2.43774.869544 2.43774h-1.234722c-.56913 0-.679373-.0785-.577399-.76343-.359667.79651-.121267 1.21957.436838 1.21957h1.442805c.69729 0 .101977-3.24528-.836468-3.24528" fill="#006b7a"/><path d="m95.347446 165.17392c.0028 0-.223241.37344-.220486.37896.525036 1.15893.559485 2.41018.283877 2.41018h-4.236089c-.114377 0-.527787.006-.661458-.15709-.129537-.16123-.159854-.24116-.159854-1.06798 0-1.03629.03859-1.33394-.08406-1.5627l-.24529.36381c.07166.1378.135047.20532.108864 1.04455-.02342.83233.104732.96049-.02342 1.21681-.09508.18741-.598068.1626-.717959.1626h-.460271c-.10335.003-.285252 0-.40652-.0827-.187413-.12126-.108863-.27423-.108863-.72622 0-.59807-.07441-1.75011-.03859-3.10886l-.296277.28526s.05099 1.52686.05099 1.86448c0 .34451.144695 1.25539-.07304 1.51171-.223241.25631-.54846.25631-.978408.25631h-3.416155c-.574644 0-.876435-.22875-.876435-1.18235 0-1.03766.231511-1.40974.231511-1.40974l-.0193-.19568s-.410655.56776-.410655 1.74322c0 1.17271.130916 1.50069 1.045934 1.50069l3.478166-.004c.344509 0 .912263-.051 1.128614-.452.112999.2825.305926.452.689018.452l.460265.004c.199817 0 .735874.0207.908128-.45614.147451.41479.366557.45614.854385.45614l3.752396-.004c.274231 0 .62012.0138.711069-.12678.114378-.17639.440972-1.48828-.270097-3.11437" fill="#006b7a"/><path d="m76.785273 165.55425c.525033 1.15756.560861 2.40881.285253 2.40881h-4.081748c-.332109 0-.682132.0606-.660083-.86678.02755-1.13275-.09233-1.83555-.147447-1.92099-.271477-.0317-1.48415.84474-1.507575 1.7887-.0041.15572.190169.32659.338999.48507.15985.16812.409275.33348.409275.46302 0 .051-.08682.0482-.133668.0482-.292146 0-.569133.003-.569133.003h-1.095537c-.577399 0-.881945-.226-.881945-1.18236 0-1.03766.238401-1.40973.238401-1.40973l-.02067-.19568s-.409275.56775-.409275 1.7446c0 1.17408.129533 1.49517 1.045929 1.49517h1.740461s.23289.0317.23289-.3707c0-.401-.107488-.52916-.326594-.79237-.214976-.25769-.370692-.42995-.370692-.52227 0-.13505.599447-.93018 1.169952-1.1107.08957.37345.07579.80891.09371 1.22783.04134.92328-.209461 1.56821.894349 1.56821l3.542933.004c.278366 0 .617361.01.712449-.13091.114374-.17501.443727-1.48828-.267342-3.11299.0028-.001-.232887.37207-.232887.37896" fill="#006b7a"/><g transform="matrix(.3527778 0 0 .3527778 -80.760332 154.97781)"><use height="100%" width="100%" x="486.021" xlink:href="#y" y="457.12399"/><g><use height="100%" width="100%" x="321.83099" xlink:href="#z" y="81.025002"/><use height="100%" width="100%" x="324.05499" xlink:href="#z" y="81.025002"/><use height="100%" width="100%" x="326.27899" xlink:href="#z" y="81.025002"/><use height="100%" width="100%" x="328.50299" xlink:href="#z" y="81.025002"/><use height="100%" width="100%" x="330.72699" xlink:href="#z" y="81.025002"/></g><g><use height="100%" width="100%" x="101.527" xlink:href="#A" y="403.12"/><use height="100%" width="100%" x="104.029" xlink:href="#A" y="403.12"/></g><use height="100%" width="100%" x="130.537" xlink:href="#B" y="248.93201"/><g><use height="100%" width="100%" x="133.985" xlink:href="#C" y="250.172"/><use height="100%" width="100%" x="136.209" xlink:href="#C" y="250.172"/></g><use height="100%" width="100%" x="242.437" xlink:href="#D" y="304.54999"/><use height="100%" width="100%" x="280.63699" xlink:href="#E" y="304.54999"/><use height="100%" width="100%" x="85.335999" xlink:href="#F" y="518.18298"/><use height="100%" width="100%" x="100.304" xlink:href="#G" y="532.36902"/><use height="100%" width="100%" x="77.947998" xlink:href="#H" y="543.56897"/><use height="100%" width="100%" x="91.193001" xlink:href="#I" y="557.00299"/><use height="100%" width="100%" x="357.30399" xlink:href="#C" y="267.79001"/><use height="100%" width="100%" x="359.52802" xlink:href="#C" y="267.79001"/><use height="100%" width="100%" x="165.461" xlink:href="#K" y="456.371"/><use height="100%" width="100%" x="390.93201" xlink:href="#L" y="324.108"/><use height="100%" width="100%" x="120.176" xlink:href="#M" y="419.617"/><use height="100%" width="100%" x="347.67899" xlink:href="#N" y="420.63599"/><use height="100%" width="100%" x="349.90302" xlink:href="#O" y="420.63599"/><g><use height="100%" width="100%" x="112.32" xlink:href="#P" y="382.13699"/><use height="100%" width="100%" x="114.544" xlink:href="#P" y="382.13699"/></g><use height="100%" width="100%" x="113.71" xlink:href="#Q" y="155.314"/><use height="100%" width="100%" x="119.926" xlink:href="#R" y="173.66701"/><use height="100%" width="100%" x="271.20499" xlink:href="#T" y="130.28799"/><use fill="#fff" height="100%" width="100%" x="46.195" xlink:href="#U" y="739.33099"/><use height="100%" width="100%" x="132.129" xlink:href="#V" y="761.966"/><use height="100%" width="100%" x="169.26199" xlink:href="#W" y="762.922"/><use height="100%" width="100%" x="200.825" xlink:href="#W" y="762.24701"/><use height="100%" width="100%" x="533.12201" xlink:href="#S" y="761.72101"/><g><use height="100%" width="100%" x="62.817001" xlink:href="#X" y="290.41901"/><use height="100%" width="100%" x="65.041" xlink:href="#X" y="290.41901"/><use height="100%" width="100%" x="67.264999" xlink:href="#X" y="290.41901"/></g><use height="100%" width="100%" x="245.185" xlink:href="#J" y="290.41901"/><use height="100%" width="100%" x="267.496" xlink:href="#Y" y="290.41901"/><g><use height="100%" width="100%" x="269.72" xlink:href="#X" y="290.41901"/><use height="100%" width="100%" x="271.944" xlink:href="#X" y="290.41901"/><use height="100%" width="100%" x="274.168" xlink:href="#X" y="290.41901"/><use height="100%" width="100%" x="276.392" xlink:href="#X" y="290.41901"/><use height="100%" width="100%" x="278.616" xlink:href="#X" y="290.41901"/><use height="100%" width="100%" x="280.84" xlink:href="#X" y="290.41901"/></g><use height="100%" width="100%" x="484.30399" xlink:href="#Z" y="175.713"/><use height="100%" width="100%" x="471.10599" xlink:href="#aa" y="213.81799"/><g><use height="100%" width="100%" x="312.08701" xlink:href="#ab" y="83.114998"/><use height="100%" width="100%" x="314.311" xlink:href="#ab" y="83.114998"/></g><use fill="#fff" height="100%" width="100%" x="497.112" xlink:href="#ac" y="344.366"/><use height="100%" width="100%" x="328.52301" xlink:href="#ad" y="588.02502"/><use fill="#fff" height="100%" width="100%" x="139.026" xlink:href="#ae" y="110.784"/><use height="100%" width="100%" x="110.819" xlink:href="#Q" y="127.783"/><use height="100%" width="100%" x="113.043" xlink:href="#af" y="128.29601"/><use height="100%" width="100%" x="105.2195" xlink:href="#ag" y="142.29601"/><use fill="#fff" height="100%" width="100%" x="518.32898" xlink:href="#ah" y="112.773"/><g clip-path="url(#p)"><use height="100%" width="100%" x="102.208" xlink:href="#ai" y="82.849998"/></g><g clip-path="url(#q)"><use height="100%" width="100%" x="112.538" xlink:href="#aj" y="129.338"/></g><g clip-path="url(#r)"><use height="100%" width="100%" x="275.27399" xlink:href="#ak" y="129.66499"/></g><g clip-path="url(#s)"><use height="100%" width="100%" x="295.51001" xlink:href="#al" y="193.075"/></g><g clip-path="url(#t)"><use height="100%" width="100%" x="112.881" xlink:href="#am" y="267.02499"/></g><g clip-path="url(#u)"><use height="100%" width="100%" x="317.56601" xlink:href="#al" y="287.26901"/></g><g clip-path="url(#v)"><use height="100%" width="100%" x="115.386" xlink:href="#an" y="379.76901"/></g><g clip-path="url(#w)"><use height="100%" width="100%" x="108.303" xlink:href="#ao" y="398.29901"/></g><g clip-path="url(#x)"><use height="100%" width="100%" x="121.838" xlink:href="#ap" y="416.88699"/></g></g></g></svg>