<svg height="163.299316" viewBox="0 0 35.718741 9.483663" width="612.372436" xmlns="http://www.w3.org/2000/svg" xmlns:xlink="http://www.w3.org/1999/xlink"><symbol id="a" overflow="visible"/><symbol id="b" overflow="visible"/><symbol id="c" overflow="visible"/><g transform="translate(-113.86739 -179.74884)"><use fill="#4c4c4c" height="100%" transform="matrix(.35277778 0 0 .35277778 -103.42256 51.094781)" width="100%" x="267.59781" xlink:href="#a" y="292.31271"/><use fill="#4c4c4c" height="100%" transform="matrix(.35277778 0 0 .35277778 -103.42256 51.094781)" width="100%" x="510.99591" xlink:href="#a" y="640.62769"/><use fill="#549cb3" height="100%" transform="matrix(.35277778 0 0 .35277778 -103.42256 51.094781)" width="100%" x="990.97369" xlink:href="#b" y="134.5538"/><use fill="#549cb3" height="100%" transform="matrix(.35277778 0 0 .35277778 -103.42256 51.094781)" width="100%" x="907.13049" xlink:href="#b" y="152.5538"/><use fill="#549cb3" height="100%" transform="matrix(.35277778 0 0 .35277778 -103.42256 51.094781)" width="100%" x="781.62811" xlink:href="#b" y="170.5538"/><use height="100%" transform="matrix(.35277778 0 0 .35277778 -103.42256 51.094781)" width="100%" x="818.94586" xlink:href="#c" y="697.32379"/><use height="100%" transform="matrix(.35277778 0 0 .35277778 -103.42256 51.094781)" width="100%" x="788.20892" xlink:href="#c" y="540.21741"/><path d="m149.45384 189.10021h-35.45416v-9.21908h35.45416zm0 0" fill="#fff"/><path d="m148.90538 188.56415h-28.29388v-8.12353h28.29388zm0 0" fill="#001e5e"/><g fill="#fff"><path d="m128.18658 183.75618h.59118v2.271h-.59118zm0-.97841h.59118v.56362h-.59118zm0 0"/><path d="m122.37953 182.93762h1.81625v.48507h-1.19889v.75792h1.09692v.48507h-1.09692v.86403h1.20716v.48507h-1.82452zm0 0"/><path d="m124.50859 183.74377h.55122v.31833h.01c.18466-.27836.45338-.37069.67387-.37069.31832 0 .54294.11851.6711.40101.13643-.27285.43133-.40101.70969-.40101.55948 0 .71796.38447.71796.89021v1.43316h-.59118v-1.35323c0-.21222 0-.51125-.339-.51125-.39274 0-.44097.46715-.44097.76205v1.10243h-.59118v-1.35323c0-.21222 0-.51125-.339-.51125-.39274 0-.44097.46715-.44097.76205v1.10243h-.59118zm0 0"/><path d="m129.10297 183.74377h.52504v.51677h.008c.0276-.21222.27009-.56913.62287-.56913.0565 0 .11851 0 .18052.0179v.59532c-.0537-.0317-.15847-.0482-.26458-.0482-.48094 0-.48094.59945-.48094.92467v.83371h-.59118zm0 0"/><path d="m131.35469 185.63582c.18052 0 .32246-.0786.41479-.20257.0965-.12816.12264-.29077.12264-.46853h-.25493c-.26459 0-.65733.0441-.65733.39411 0 .19293.16399.27699.37483.27699m-.69178-1.77216c.22876-.10611.53744-.17225.78824-.17225.69315 0 .97979.28663.97979.95636v.29076c0 .23014.004.40239.008.56913.004.17226.0138.33073.0262.50712h-.51952c-.0221-.11851-.0221-.26872-.0262-.339h-.01c-.13643.25081-.43271.39274-.70142.39274-.40101 0-.79375-.24253-.79375-.67523 0-.339.16398-.53744.3886-.64768.22462-.11025.51539-.13229.76344-.13229h.32521c0-.36656-.1626-.49059-.51125-.49059-.2508 0-.50298.0979-.70142.24805zm0 0"/><path d="m132.89809 184.17648h-.43684v-.43271h.43684v-.45337l.59118-.19017v.64354h.52503v.43271h-.52503v1.05833c0 .19293.0524.37483.27699.37483.10611 0 .20808-.0221.26871-.062l.0179.46715c-.12403.0358-.25908.0537-.43547.0537-.46302 0-.71933-.28801-.71933-.73725zm0 0"/><path d="m135.62247 184.65741c-.0165-.28663-.14883-.5333-.47955-.5333-.33073 0-.49885.22876-.52504.5333zm.39688 1.22921c-.21636.11989-.46165.1819-.77997.1819-.74965 0-1.18649-.4327-1.18649-1.17822 0-.65594.34864-1.19889 1.0542-1.19889.84198 0 1.08038.5774 1.08038 1.37115h-1.56959c.0262.36518.2825.57326.64768.57326.28663 0 .5333-.10611.75379-.22875zm0 0"/><path d="m137.7791 184.22058c-.18052-.062-.31281-.0965-.52916-.0965-.15848 0-.34727.0565-.34727.25081 0 .36104 1.02664.13229 1.02664.95222 0 .52917-.47267.74138-.95223.74138-.226 0-.45475-.04-.6711-.0978l.0358-.48507c.18603.0923.37896.15021.58153.15021.15021 0 .38861-.0579.38861-.27699 0-.44648-1.02802-.14193-1.02802-.96187 0-.4892.42857-.70555.89159-.70555.27699 0 .45889.0441.64355.0841zm0 0"/><path d="m139.13096 182.93762h.75792l1.17271 2.30133h.01v-2.30133h.5898v3.07716h-.75379l-1.17684-2.30132h-.01v2.30132h-.5898zm0 0"/><path d="m142.76209 185.52971h.29077c.28663 0 .63527-.0703.63527-.42719 0-.40101-.32659-.46302-.63527-.46302h-.29077zm0-1.3491h.2508c.26045 0 .58153-.0565.58153-.37482 0-.35692-.31281-.3831-.59393-.3831h-.2384zm-.61736-1.24299h1.07487c.39687 0 .99218.11438.99218.78962 0 .36518-.24529.62149-.61184.68764v.008c.41892.04.70555.32246.70555.70142 0 .77583-.69729.89021-1.08589.89021h-1.07487zm0 0"/><path d="m145.25909 185.52971h.34451c.51539 0 1.01424-.38309 1.01424-1.05282 0-.6711-.49885-1.0542-1.01424-1.0542h-.34451zm-.61736-2.59209h.84336c.94258 0 1.77629.31833 1.77629 1.53927s-.83371 1.53789-1.77629 1.53789h-.84336zm0 0"/></g><path d="m120.06304 188.55175h-5.51628v-8.12354h5.51628zm0 0" fill="#001e5e"/><path d="m116.81914 185.37262c.073-2.01056 1.15755-3.78961 2.78639-4.94578h-1.08176c-1.32016 1.14652-2.20623 2.75607-2.24344 4.54477-.0289 1.418.24391 2.49562.99632 3.5829h.27561c-.58842-1.00046-.77446-2.05053-.73312-3.18189" fill="#fff"/><path d="m116.99829 188.55313c-.65182-.69178-1.43868-1.99402-1.531-3.401-.113-1.72117.45613-3.39687 1.60403-4.72392h.88884c-1.40422 1.3932-2.11667 3.23839-1.95406 5.07256.10473 1.17134.56499 2.03812 1.27193 3.05236zm0 0" fill="#fdb811"/><path d="m117.2987 186.85814c.59256-.61323 1.14515-1.49931 1.31878-2.38401.24391-1.23885-.0772-2.26273-.0978-2.33301-.0152-.051-.0234-.0841-.0152-.0882.0165-.01.14194.2136.22738.38999.16398.34175.34037.89434.33211 1.52962-.0124.78824-.29353 1.57234-.8034 2.1773-.17639.20946-.37896.3955-.60772.55121-.14882.1006-.40514.23978-.41341.226-.006-.008.0234-.0317.0593-.0689" fill="#fff"/><path d="m117.27803 186.87606c.39825-.45889.75654-1.10795.84336-1.73909.12264-.88608-.14883-1.59577-.16674-1.64538-.0138-.0344-.0207-.0579-.0152-.0606.0124-.008.11162.14469.17914.26596.13091.23427.28112.61736.30041 1.0666.0234.55673-.14331 1.1231-.48231 1.57097-.11851.15571-.25494.29627-.41203.41616-.10198.0772-.27837.18604-.28526.17639-.006-.007.0152-.0234.0386-.051" fill="#fdb811"/></g></svg>