<?xml version="1.0" encoding="UTF-8"?><svg id="Layer_1" xmlns="http://www.w3.org/2000/svg" xmlns:xlink="http://www.w3.org/1999/xlink" viewBox="0 0 78 83"><defs><radialGradient id="radial-gradient" cx="-687.48" cy="567.17" fx="-687.48" fy="567.17" r="1" gradientTransform="translate(16032.41 -51441.55) rotate(-120.02) scale(53.2 -69.8)" gradientUnits="userSpaceOnUse"><stop offset="0" stop-color="#ffdc00"/><stop offset=".18" stop-color="#f8b00b"/><stop offset=".4" stop-color="#f18117"/><stop offset=".6" stop-color="#eb5f20"/><stop offset=".76" stop-color="#e84b25"/><stop offset=".87" stop-color="#e74327"/></radialGradient><radialGradient id="radial-gradient-2" cx="-628.94" cy="550.51" fx="-628.94" fy="550.51" r="1" gradientTransform="translate(8944.28 7756.13) scale(14.12 -14.04)" gradientUnits="userSpaceOnUse"><stop offset="0" stop-color="#ffdc00"/><stop offset=".21" stop-color="#f8b00b"/><stop offset=".46" stop-color="#f18117"/><stop offset=".69" stop-color="#eb5f20"/><stop offset=".88" stop-color="#e84b25"/><stop offset="1" stop-color="#e74327"/></radialGradient><radialGradient id="radial-gradient-3" cx="-635.94" cy="553.88" fx="-635.94" fy="553.88" r="1" gradientTransform="translate(10608.45 9159.16) scale(16.58 -16.49)" xlink:href="#radial-gradient-2"/><radialGradient id="radial-gradient-4" cx="-643.99" cy="557.74" fx="-643.99" fy="557.74" r="1" gradientTransform="translate(13419.67 11533.04) scale(20.75 -20.64)" xlink:href="#radial-gradient-2"/><radialGradient id="radial-gradient-5" cx="-651.27" cy="561.24" fx="-651.27" fy="561.24" r="1" gradientTransform="translate(17534.87 15008.87) scale(26.84 -26.7)" xlink:href="#radial-gradient-2"/><radialGradient id="radial-gradient-6" cx="-658.88" cy="564.9" fx="-658.88" fy="564.9" r="1" gradientTransform="translate(25579.41 21798.65) scale(38.75 -38.54)" gradientUnits="userSpaceOnUse"><stop offset="0" stop-color="#ffdc00"/><stop offset=".2" stop-color="#f8b00b"/><stop offset=".44" stop-color="#f18117"/><stop offset=".65" stop-color="#eb5f20"/><stop offset=".83" stop-color="#e84b25"/><stop offset=".94" stop-color="#e74327"/></radialGradient><radialGradient id="radial-gradient-7" cx="-662.73" cy="566.75" fx="-662.73" fy="566.75" r="1" gradientTransform="translate(33144.39 28183.36) scale(49.94 -49.67)" xlink:href="#radial-gradient"/></defs><path d="M61.76,67.5c-3.34,0-4.92,2.48-4.92,5.52,0,3.28,2.04,5.48,5.31,5.48,2.21,0,3.56-.86,3.75-.95l-.87-1.96c-.15.09-1.08.73-2.56.73-1.69,0-2.8-.99-2.9-2.39h6.85c.04-.19.15-.82.15-1.4,0-2.91-1.76-5.02-4.81-5.02ZM59.57,71.96c.02-1.19.67-2.35,2.19-2.35,1.41,0,2.17,1.04,2.19,2.35h-4.38ZM15.41,52.77c-.63-.67-1.95-1.7-3.6-1.29-3.38.88-5.42,8.5.43,8.5.33,0,2.49-.02,2.86-.02-.35,1.4-2.91,2.46-7.02,2.46-5.05,0-7.48-3.54-4.4-8.63l-2.02-1.01c-2.56,4.31-3.12,12.18,6.42,12.18,6.76,0,9.58-2.59,9.58-6.49,0-3.02-1.06-4.42-2.25-5.69ZM12.88,57.49c-2.91,0-2.86-3.02-.82-3.41.8-.15,2.34.69,3.08,3.41h-2.25ZM15.67,71.14v7.12h-2.54v-6.62c0-1.19-.61-1.94-1.86-1.94-.93,0-1.82.47-1.95.54.02.11.15.67.15,1.62v6.4h-2.56v-6.64c0-1.19-.65-1.92-1.86-1.92-.93,0-1.78.41-1.89.45.02.06.09.41.09,1.01v7.07H.72v-8.35c0-.6-.15-1.25-.2-1.36.26-.11,2.73-1.08,4.79-1.08,2.19,0,2.97.93,3.1,1.03.17-.11,1.63-1.03,3.3-1.03,2.38.04,3.97,1.4,3.97,3.69ZM36.25,48.48l-1.71-1.73,1.69-1.77,1.65,1.64,1.67-1.66,1.78,1.7-1.73,1.81-1.71-1.68-1.63,1.68ZM77.81,59.99h-2.56v-15.35l2.56-.58v15.94ZM37.87,45.65l-1.71-1.7,1.69-1.79,1.73,1.73-1.71,1.77ZM10.67,48.48l-1.71-1.7,1.69-1.79,1.67,1.66,1.67-1.66,1.78,1.7-1.71,1.79-1.71-1.68-1.67,1.68ZM36.38,75.22c0,2.31-2.02,3.3-4.23,3.3-1.8,0-3.32-.63-3.49-.69l.74-1.98s1.17.63,2.32.63c1.24,0,1.84-.52,1.84-1.21,0-.5-.33-.93-1.19-1.27-.28-.11-.74-.3-1.06-.41-1.11-.41-2.36-1.16-2.36-2.93,0-2.09,1.93-3.15,3.86-3.15,1.73,0,2.84.52,3.1.63l-.72,1.96c-.09-.04-1.15-.47-2.32-.47-.72,0-1.32.28-1.32.91,0,.58.43.88,1.19,1.19.3.13.74.28,1.08.41,1.37.56,2.56,1.4,2.56,3.11ZM72.52,57.36v-13.33l-2.56.58v10.18c0,1.53.22,2.13.24,2.29-.09.04-.82.39-2.21.39h-5.07c.09-.13.28-1.27-.56-2.76-1.37-2.39-2.15-4.36-4.08-4.36-2.41,0-3.38,2.33-5.07,5.09-.46.75-.93,2.01-2.86,2.01h-4.14c-.06-.11-.26-.39-.26-.88,0-3.23-1.28-5.13-2.62-6.15l-1.73,1.73c1.32.95,1.91,2.05,1.91,4.08,0,.88.17,1.1.26,1.25h-2.97c-.09-.19-.22-.5-.22-1.14,0-2.57-1.43-3.73-2.32-4.46l-1.69,1.7c.3.22,1.63.95,1.63,2.65,0,.82.15,1.1.2,1.23h-2.77c-.06-.15-.22-.52-.22-1.14,0-2.57-1.43-3.73-2.32-4.46l-1.69,1.7c.33.26,1.65,1.06,1.65,2.76,0,.56.13,1.01.2,1.12h-6.57c-.17-2.18-1.26-3.9-2.51-4.79l-1.78,1.79c1.13,1.19,1.73,2.54,1.73,4.42,0,2.89-1.82,4.68-5.01,5.2l.22,1.66c5.03-.3,7.18-3.11,7.33-5.8h24.35c1.84,0,2.67-.97,2.88-1.36.24.26,1.19,1.36,3.77,1.36h10.19c2.84,0,4.77-.8,4.92-.86.02-.02-.22-.69-.22-1.68ZM59.57,57.49h-1.04c-2.06,0-2.82-.84-3.25-1.27,1.19-2.09,1.6-3.08,2.64-3.08.89,0,1.21.93,2.28,2.82.5.88.02,1.53-.63,1.53ZM73.79,67.5c-3.47,0-5.7,2.26-5.7,5.48s2.36,5.52,5.22,5.52c.63,0,1.3-.13,1.95-.37v4.87l2.56-.32v-12.57c0-.71.07-1.66.13-1.88-.26-.06-2.25-.73-4.16-.73ZM75.27,71.29v4.74c-.43.19-.93.3-1.39.3-1.89,0-2.95-1.55-2.95-3.32s.8-3.3,2.8-3.3c.95,0,1.54.24,1.65.28-.02.06-.11.63-.11,1.29ZM47.63,71.23v7.03h-2.56v-6.56c0-1.25-.72-2.01-1.95-2.01-.93,0-1.89.54-2.25.78v7.81h-2.54v-15.35l2.54-.6v5.99c.13-.06,1.34-.82,2.97-.82,2.47,0,3.79,1.44,3.79,3.73ZM26.64,71.36c0-2.5-1.56-3.86-4.16-3.86-1.95,0-3.77.82-3.97.91l.87,1.92c.13-.06,1.5-.67,2.95-.67,1.08,0,1.78.41,1.78.97,0,.6-.61.86-1.52,1.08-1.95.45-5.05.67-5.05,3.54,0,2.46,2.45,3.28,4.75,3.28s4.4-.78,4.55-.82c-.04-.19-.2-.63-.2-1.7v-4.64ZM22.24,76.44c-.98,0-1.91-.35-1.91-1.32,0-.8.85-1.1,1.78-1.32.78-.17,1.65-.41,1.99-.69v1.79c0,.71.07,1.1.09,1.21-.09.02-.91.32-1.95.32ZM54.7,67.5c.65,0,1.39.09,1.95.24l-.76,2.18c-.35-.11-.93-.22-1.41-.22-1.02,0-1.91.26-1.99.28.02.06.11.54.11,1.44v6.86h-2.54v-7.55c0-1.21-.17-2.01-.2-2.07.28-.11,2.56-1.16,4.83-1.16Z" fill="url(#radial-gradient)"/><path d="M73.4,25.6c2.34-1.23,3.66-3.34,4.6-5.71-2.49-.56-4.99-.67-7.33.56-2.34,1.23-3.66,3.34-4.57,5.71,2.49.58,4.96.69,7.31-.56Z" fill="url(#radial-gradient-2)"/><path d="M70.11,17.85c-2.06,3.26-4.79,4.53-7.2,5.24-.39-2.48-.43-5.48,1.63-8.71,2.06-3.26,4.77-4.53,7.2-5.24.41,2.46.43,5.48-1.63,8.71Z" fill="url(#radial-gradient-3)"/><path d="M62.13,12.31c.07-4.64-2.17-8.13-3.62-10.09-1.6,2.03-3.86,5.35-3.95,9.96-.07,4.27,1.8,7.68,3.62,10.09,1.91-2.39,3.88-5.67,3.95-9.96Z" fill="url(#radial-gradient-4)"/><path d="M50.75,9.68c-2.82-5.2-7.37-8-10.34-9.68-.15,3.47-.41,8.6,2.45,13.91,2.62,4.83,6.59,7.5,10.34,9.68.3-4.31.11-9.19-2.45-13.91Z" fill="url(#radial-gradient-5)"/><path d="M36.66,13.37c-6.5-3.67-13.92-4.49-18.8-4.44,2.34,4.01,6.85,10.01,13.51,13.74,6.4,3.6,13.64,4.49,18.8,4.44-2.71-4.53-7.09-10.11-13.51-13.74Z" fill="url(#radial-gradient-6)"/><path d="M24.35,25.83c-8.09,0-17.13,2.39-24.35,5.71,7.33,3.3,16.04,5.71,24.35,5.71,6.63,0,14.55-1.27,24.35-5.71-10.73-4.79-18.17-5.71-24.35-5.71Z" fill="url(#radial-gradient-7)"/></svg>