<svg version="1.2" xmlns="http://www.w3.org/2000/svg" viewBox="0 0 1548 351" width="1548" height="351">
	<title>03-16-140920+Digital+Banking+FAQ's-pdf-svg</title>
	<defs>
		<clipPath clipPathUnits="userSpaceOnUse" id="cp1">
			<path d="m-5261.58-9575.6h7239.05v10249.17h-7239.05z"/>
		</clipPath>
	</defs>
	
	<g id="Clip-Path: Page 3" clip-path="url(#cp1)">
		<g id="Page 3">
			<path id="Path 136" d="m0.3 190.9q0.6-1.2 1.8-1.8c3.6-2.4 8.5-2.4 11.5 1.2 44.4 46.9 99.7 74.9 159.9 74.9 48 0 93.6-17.7 132.5-49.3-13.4 34.7-31.6 63.9-52.9 87-17.6 4.9-36.5 7.3-55.9 7.3-82.1 0-154.4-47.5-196.9-119.3z" fill="#ffd249"/>
			<path id="Path 137" d="m58 12.6c0 0 199.4 12.2 114.9 222.2 0 0 311.2-295.8-114.9-222.2z" fill="#ff2e17"/>
			<path id="Path 138" fill-rule="evenodd" d="m385.6 125.2h103.9c39.6 0 46.2 24.3 46.2 39 0 17.6-7.3 28.6-23.1 34.6 17.1 3.1 19.5 24.4 19.5 38.4 0 7.3 0.6 23.7 7.3 31h-42.6c-3.6-6.7-3.6-12.1-3.6-27.4 0-20-8.5-24.9-20.7-24.9h-48v52.3h-38.9zm38.9 63.3h51.1c8.5 0 18.8-4.8 18.8-18.2 0-14.6-10.9-17.7-20.7-17.7h-49.2z" fill="#ff2e17"/>
			<path id="Path 139" fill-rule="evenodd" d="m653 239h-65.6l-11.5 29.2h-42l63.2-143h46.8l62.6 143h-41.9zm-32.8-82.7l-21.9 56.6h44.4zm196.9-30.5h52.9l-66.3 57.2 71.1 85.2h-52.8l-48.7-61.4-22.5 19.4v42h-38.9v-142.4h38.9v61.5zm76 0h107.6c20.7 0 40.1 9.1 40.1 35.9 0 11-5.5 24.3-18.8 28.6 16.4 3.1 25.5 19.5 25.5 34.7 0 19.5-9.1 43.2-52.3 43.2h-102.1zm38.9 115.7h57.8c11.5 0 16.4-8 16.4-16.5 0-11.5-7.3-17.6-20.7-17.6h-53.5zm0-58.5h54.1c9.1 0 14.6-4.8 14.6-15.8 0-8.5-3.6-15.2-20.1-15.2h-48.6z" fill="#ff2e17"/>
			<path id="Path 140" fill-rule="evenodd" d="m1156.3 239h-65.6l-12.2 29.2h-41.3l62.6-143h46.8l63.2 143h-41.9zm-32.9-82.7l-22.4 56.6h44.9zm212.2-30.5h37.6v142.4h-42.5l-77.8-99.2h-0.6v99.2h-37.7v-142.4h45.6l74.7 99.2h0.7zm154.9 0h52.3l-65.6 57.8 70.5 85.3h-52.3l-48.6-62.1-22.5 19.5v42.6h-38.9v-143.1h38.9v61.5z" fill="#ff2e17"/>
			<path id="Path 146" d="m333.3 61.9v-3q0-6.4-3.6-11-1.2-1.2-1.8-1.8-0.6 0-0.6-0.6-1.3-0.6-1.9-1.2-0.6 0-1.2-0.7-0.6 0-1.2-0.6-1.2 0-3-0.6-1.3 0-2.5 0 0 0-0.6 0-0.6 0-1.2 0c-5.5 1.2-10.3 5.5-12.1 12.2-23.8 90.7-77.8 156.4-127.7 183.8 52.3-7.3 97.9-41.4 128.9-91.9-14 51.7-40.8 96.2-74.8 126.6-18.8 6.7-38.3 10.3-59 10.3-65.6 0-123.9-37.1-162.8-96.1q-3.1 0-6.1 1.8-1.2 0.6-1.8 1.8c37.6 63.9 99 108.4 170.1 117.5q-24.6 9.1-51 9.1c-21.3 0-42-4.8-61.4-12.8q3.6 3.1 6.7 6.7 0.6 0.6 1.8 1.3 1.2 1.2 3 3 0.7 0.6 1.9 1.2 1.8 1.8 3.6 3.1 0 0 0 0.6 7.3 5.4 14.6 10.3 0.6 0 1.2 0.6 1.8 1.2 3.7 1.9 1.2 0.6 2.4 1.2 1.2 1.2 3 1.8 1.3 0.6 2.5 1.2 1.8 1.2 3 1.8 1.8 0.6 3 1.3 1.3 0.6 3.1 1.2 1.2 0.6 3 1.2 1.2 0.6 3.1 1.2 1.2 0.6 3 0.6 1.2 0.6 3 1.2 1.3 0.6 3.1 0.6 1.2 0.6 3 0.6 1.2 0.7 3.1 1.3 1.8 0 3 0 1.8 0.6 3.6 0.6 1.3 0.6 2.5 0.6 2.4 0 4.2 0.6 1.2 0 2.5 0 3 0 6 0c36.5 0 70.5-17.7 98.5-47.5q0-0.6 0-0.6 3-3 6.1-6.7 0.6-0.6 1.2-1.2 2.4-3 5.5-6.7 0.6-0.6 1.2-1.2 2.4-3.7 4.8-7.3 0.7-0.6 1.3-1.8 3-3.7 5.4-7.3 0.6-1.3 1.2-1.9 2.5-3.6 4.3-7.9 0.6-1.2 1.2-1.8 2.5-4.3 4.9-7.9 0.6-1.2 1.2-2.5 1.8-4.2 3.6-7.9 0.7-1.8 1.3-3 2.4-4.3 4.2-8.5 0-0.6 0.6-1.2c17.6-41.4 29.2-90.1 31.6-143.1q0-0.6 0-0.6 0-2.4 0.6-4.9 0-1.8 0-3.6 0-6.7 0-13.4z" fill="#ff2e17"/>
		</g>
	</g>
</svg>