<?xml version="1.0" encoding="UTF-8"?>
<svg id="Layer_1" xmlns="http://www.w3.org/2000/svg" version="1.1" viewBox="0 0 430 230">
  <defs>
    
  </defs>
  <rect x="265.7" y="51.7" width="28" height="139.7" fill="#fff"/>
  <path d="M420,131.6c5.1,6.4,7.6,13.7,7.6,22s-1.8,14-5.5,19.7c-3.7,5.7-9,10.1-15.9,13.3-6.9,3.2-15.1,4.8-24.6,4.8h-60.2V51.7h57.6c9.5,0,17.6,1.5,24.5,4.6,6.9,3.1,12.1,7.3,15.6,12.8,3.5,5.5,5.3,11.7,5.3,18.6s-2.2,14.9-6.5,20.4c-4.3,5.5-10.1,9.3-17.3,11.6,7.9,1.5,14.3,5.4,19.4,11.8M349.4,109.4h25.6c6.7,0,11.8-1.5,15.4-4.5,3.6-3,5.4-7.3,5.4-12.9s-1.8-9.9-5.4-13c-3.6-3.1-8.7-4.6-15.4-4.6h-25.6v35ZM393.5,163.8c3.8-3.2,5.7-7.7,5.7-13.6s-2-10.7-6-14.1c-4-3.4-9.4-5.1-16.2-5.1h-27.6v37.6h28.2c6.8,0,12.1-1.6,15.9-4.8" fill="#fff"/>
  <path d="M235.3,130c-4.1-5.3-9.1-9.3-14.8-12-5.7-2.7-13.1-5.3-22.2-8-6.7-2-11.8-3.8-15.5-5.3-3.7-1.5-6.7-3.5-9.2-6-2.5-2.5-3.7-5.6-3.7-9.3,0-5.3,1.6-9.4,4.9-12.2,3.3-2.8,7.6-4.2,13.1-4.2s11.3,1.6,15.1,4.7c3.8,3.1,5.8,7.1,6.1,11.9h30.8c-.9-12.5-5.9-22.3-14.9-29.3-9-7-20.7-10.5-35.1-10.5s-18.1,1.6-25.6,4.9c-7.5,3.3-13.3,8-17.4,14.1-4.1,6.1-6.2,13.3-6.2,21.6s2,15.8,6.1,21.1c4.1,5.3,8.9,9.2,14.6,11.8,5.7,2.6,13,5.2,22.1,7.9,6.7,1.9,11.9,3.6,15.7,5.1,3.8,1.5,7,3.6,9.5,6.3,2.5,2.7,3.8,6.1,3.8,10.2s-1.9,9.2-5.6,12.3c-3.7,3.1-8.9,4.7-15.4,4.7s-11.4-1.7-15.1-5c-3.7-3.3-5.7-7.9-6.1-13.6h-8.5c7.3,9.5,8.9,26.1.6,35,1.1.6,2.3,1.1,3.5,1.6,7.8,3.3,16.6,5,26.3,5s19.1-1.9,26.6-5.7c7.5-3.8,13.1-8.9,17-15.3,3.9-6.4,5.8-13.3,5.8-20.8s-2.1-15.7-6.2-21Z" fill="#fff"/>
  <g>
    <path d="M265.1,208.1h-1.5v14.3c0,.9.6,1.5,1.5,1.5s1.5-.6,1.5-1.5v-12.8c0-.9-.6-1.5-1.5-1.5" fill="#fff"/>
    <path d="M255.1,224c3,0,4.5-1.7,4.5-4.6v-9.8c0-.9-.4-1.3-1.3-1.3h-1.5v11.1c0,.9-.6,1.5-1.7,1.5h-3.5s0-11.3,0-11.3c0-.9-.4-1.3-1.3-1.3h-1.7v12.8s-2.8,0-2.8,0c-.6,0-.7.6-.7,1.5,0,.9.2,1.5.7,1.5h9.3Z" fill="#fff"/>
    <path d="M302.9,226.4h0c0,.9.6,1.5,1.5,1.5h1.1c2.8,0,4.3-1.3,4.4-4.1v-9.4c0-.9-.4-1.3-1.3-1.3h-1.7v10.4c0,.9-.6,1.5-1.5,1.5h-1.1c-1.1,0-1.5.4-1.5,1.5" fill="#fff"/>
    <path d="M345.6,224.4c1.5,0,1.2-1.1,1.2-2v-13c0-.9-.4-1.3-1.3-1.3h-1.5v12.8h-5.7v-8c0-.9-.4-1.3-1.3-1.3h-1.7v9.4h-3.9v-8c0-.9-.4-1.3-1.3-1.3h-1.7v9.4h-3.5v-8c0-.9-.4-1.3-1.3-1.3h-1.7v9.4h-4c-1.1,0-1.7-.6-1.7-1.5v-10c0-.7-.4-1.3-1.1-1.3h-1.8v11.3c0,3,1.5,4.4,4.4,4.4h-.2,28Z" fill="#fff"/>
    <path d="M301.3,223.6c.9,0,1.5-.4,1.5-1.3v-6.5c0-3-1.5-4.4-4.5-4.4h-2c-3,0-4.4,1.5-4.4,4.4v3.3c0,.6,0,1.1.2,1.5h-5v-7.8c0-.9-.6-1.5-1.5-1.5h-5c-3,0-4.4,1.5-4.4,4.4v3.3c0,3,1.5,4.4,4.4,4.4h20.7ZM283.9,220.8h-3.5c-.9,0-1.5-.6-1.5-1.5v-3.3c0-.9.6-1.5,1.5-1.5h3.5v6.3ZM294.8,216c0-.9.5-1.5,1.5-1.5h2c.9,0,1.5.6,1.5,1.5v4.8h-3.5c-.9,0-1.5-.6-1.5-1.5v-3.3Z" fill="#fff"/>
    <path d="M351.8,223.8c.9,0,1.5-.6,1.5-1.5v-12.8c0-.9-.5-1.5-1.5-1.5h-1.5v14.3c0,.9.4,1.5,1.5,1.5" fill="#fff"/>
    <path d="M382.7,223.8h0v-8c0-3-1.5-4.4-4.5-4.4h-2c-3,0-4.4,1.5-4.4,4.4v3.3c0,.6,0,1.1.2,1.5h-4.8c-.9,0-1.5-.6-1.5-1.5v-5.9c0-.9-.6-1.3-1.3-1.3h-1.7v7.2c0,3,1.5,4.6,4.4,4.6h15.6ZM379.8,220.8h-3.7c-.9,0-1.3-.6-1.3-1.5v-3.3c0-.9.6-1.5,1.5-1.5h2c.9,0,1.5.6,1.5,1.5v4.8Z" fill="#fff"/>
    <path d="M167.5,228.1c.2.2.6.2.7.2.4,0,.6,0,.7-.2.2-.2.6-.4.6-.6.2-.2.2-.6.2-.7s0-.6-.2-.7c-.2-.2-.4-.6-.6-.6-.2-.2-.6-.2-.7-.2-.4,0-.6,0-.7.2-.2.2-.6.4-.6.6-.2.2-.2.6-.2.7s0,.6.2.7c.2.2.4.6.6.6" fill="#fff"/>
    <path d="M173.3,225.3c-.2-.2-.6-.2-.7-.2-.4,0-.6,0-.7.2-.2.2-.6.4-.6.6-.2.2-.2.6-.2.7s0,.6.2.7c.2.2.4.4.6.6.2.2.6.2.7.2s.6,0,.7-.2c.2-.2.6-.4.6-.6.2-.2.2-.6.2-.7s0-.6-.2-.7c0-.2-.2-.4-.6-.6" fill="#fff"/>
    <path d="M420.3,223.8h-.6,1.3c3,0,4.5-1.3,4.5-4.3v-3.5c0-3-1.5-4.4-4.5-4.4h-2c-3,0-4.4,1.5-4.4,4.4v4.8h-4.8v-5c0-3-1.5-4.3-4.5-4.3h-7.8c-.6,0-.9.2-1.1.4v-.2c0-.6-.2-.9-.4-1.1h-.2c-.2-.2-.6-.2-.7-.2h-1.5v10.6s-3.7,0-3.7,0v-7.8c0-.9-.6-1.5-1.5-1.5h-1.5v11.9c0,1.1-.6,1.5-1.5,1.5h-1.1c-.9,0-1.5.6-1.5,1.5s.6,1.5,1.5,1.5h1.1c2.8,0,4.3-1.3,5-4.1l29.8-.2ZM417.5,216c0-.9.5-1.5,1.5-1.5h2c.9,0,1.5.6,1.5,1.5v3.3c0,1.1-.6,1.5-1.5,1.5h-3.5v-4.8ZM396.2,220.8v-6.5h9.1c.9,0,1.5.6,1.5,1.5v4.8h-10.6v.2Z" fill="#fff"/>
    <path d="M194.9,211.4h-2c-3,0-4.4,1.5-4.4,4.4v4.8h-5.2v-4.8c0-3-1.5-4.6-4.4-4.6h-3.5c-.9,0-1.5.6-1.5,1.5v8h-6.7c-1.1,0-1.5-.6-1.5-1.5v-4.3c0-.9-.4-1.3-1.3-1.3h-1.5v5.6s0,.2,0,.2c0,2.8,1.7,4.3,4.4,4.3h8.2c.9,0,1.5-.6,1.5-1.7v-7.8h2c.9,0,1.5.6,1.5,1.5v6.3c0,.9.6,1.5,1.5,1.5h13.9c2.4-.2,3.7-1.9,3.7-4.6v-3.3c0-2.6-1.5-4.1-4.6-4.1M196.4,219.4c0,1.1-.6,1.5-1.5,1.5h-3.5v-5c0-.9.6-1.5,1.5-1.5h2c.9,0,1.5.6,1.5,1.5v3.5" fill="#fff"/>
    <path d="M241.2,211.4h-1.7v7.8c0,1.1-.6,1.5-1.5,1.5h-2.4v-8c0-.9-.4-1.3-1.3-1.3h-1.7v9.4h-3.5v-8c0-.9-.4-1.3-1.3-1.3h-1.7v9.4h-10.6c0-.4.2-.6.2-.9v-10.6c0-.9-.4-1.3-1.3-1.3h-1.5v11.5c0,.9-.6,1.3-1.5,1.3h.2-2.6v-11.5c0-.9-.4-1.3-1.3-1.3h-1.7v12.8s-3.7,0-3.7,0c-.6,0-.7.6-.7,1.5s.2,1.5.7,1.5h33.5s2.4,0,2.4,0c3,0,4.4-1.5,4.4-4.6v-6.3c-.4-1.1-.7-1.7-1.7-1.7" fill="#fff"/>
    <path d="M278.5,209.9c.2.2.6.2.7.2.4,0,.6,0,.7-.2.2-.2.6-.4.6-.6.4-.4.4-.6.4-.9s0-.6-.2-.7c-.2-.2-.4-.6-.6-.6-.2-.2-.6-.2-.7-.2-.4,0-.6,0-.7.2-.2.2-.4.4-.6.6-.2.2-.2.6-.2.7,0,.4,0,.6.2.7,0,.4.2.6.4.7" fill="#fff"/>
    <path d="M284.2,207.1c-.2-.2-.6-.2-.7-.2s-.6,0-.7.2c-.2.2-.6.4-.6.6-.2.2-.2.6-.2.7s0,.6.2.7c.2.2.4.4.6.6.2.2.6.2.7.2s.6,0,.7-.2c.2-.2.6-.4.6-.6.2-.2.2-.6.2-.7,0-.4,0-.6-.2-.7,0-.2-.2-.6-.6-.6" fill="#fff"/>
    <path d="M294.4,209.9c.2.2.6.2.7.2s.6,0,.7-.2c.2-.2.6-.4.6-.6.2-.2.2-.6.2-.7s0-.6-.2-.7c-.2-.2-.4-.6-.6-.6-.2-.2-.6-.2-.7-.2-.4,0-.5,0-.7.2-.2-.2-.6.2-.6.4-.2.2-.2.6-.2.7,0,.4,0,.6.2.7,0,.4.4.6.6.7" fill="#fff"/>
    <path d="M300.2,207.1c-.2-.2-.6-.2-.7-.2s-.6,0-.7.2-.6.4-.6.6c-.2.2-.2.6-.2.7s0,.6.2.7c.2.2.4.4.6.6.2.2.6.2.7.2s.6,0,.7-.2c.2-.2.6-.4.6-.6.2-.2.2-.6.2-.7,0-.4,0-.6-.2-.7-.2-.2-.4-.6-.6-.6" fill="#fff"/>
    <path d="M326.4,209.9c.2.2.6.2.7.2s.6,0,.7-.2.6-.4.6-.6c.2-.2.2-.6.2-.7s0-.6-.2-.7c0-.4-.2-.7-.6-.7-.2-.2-.6-.2-.7-.2-.4,0-.6,0-.7.2-.2.2-.4.4-.6.6-.2.2-.2.6-.2.7,0,.4,0,.6.2.7,0,.4.2.6.6.7" fill="#fff"/>
    <path d="M332.2,207.1c-.2-.2-.6-.2-.7-.2s-.6,0-.7.2c-.2.2-.6.4-.6.6-.2.2-.2.6-.2.7s0,.6.2.7.4.4.6.6c.2.2.5.2.7.2s.6,0,.7-.2.6-.4.6-.6c.2-.2.2-.6.2-.7,0-.4,0-.6-.2-.7-.2-.2-.4-.6-.6-.6" fill="#fff"/>
    <path d="M329.9,203.4c-.2-.2-.6-.2-.7-.2s-.6,0-.7.2c-.2.2-.6.4-.6.6-.2.2-.2.6-.2.7,0,.4,0,.6.2.7.2.2.4.4.6.6.2.2.6.2.7.2s.6,0,.7-.2c.2-.2.6-.4.6-.6.2-.2.2-.6.2-.7s0-.6-.2-.7c0-.2-.2-.4-.6-.6" fill="#fff"/>
    <path d="M378.1,207.1c-.2-.2-.6-.2-.7-.2s-.6,0-.7.2c-.2.2-.6.4-.6.6-.2.2-.2.6-.2.7s0,.6.2.7c.2.2.4.4.6.6.2.2.6.2.7.2s.6,0,.7-.2c.2-.2.6-.4.6-.6.2-.2.2-.6.2-.7,0-.4,0-.6-.2-.7,0-.2-.4-.6-.6-.6" fill="#fff"/>
    <path d="M251.3,226.8h-1.9v-1.1h1.1c.4,0,.6-.2.6-.6s-.2-.6-.6-.6h-1.1c-.7,0-1.1.4-1.1,1.3v.9c-.4,0-.6.2-.6.6s.2.6.6.6h3c.4,0,.6-.2.6-.6s-.2-.6-.6-.6" fill="#fff"/>
  </g>
  <path d="M63.6,146.8c-1.7,1.5-.6,1.2-.6,1.2,6-1.9,8.3-5,8.3-5,2.9,2.3,7.4,2.8,10.4-1.7,3-4.5,1.8-12.9,1.8-12.9,0,0,3.6,8,9.7,8.1,2.1,5.2,4.8,10.8,10.1,10,5.4-.9,5.5-5.4,5.5-5.4,4.1.5,4.8-4,4.8-4,5.3-.5,4.4-5.4,4.4-5.4,0,0,4.3-.5,4.9-5.1,1.4-7-2.2-15.5-2.2-15.5l-26.6-75.7s-1.8-3.9-2.9-11c-.8-5,1.4-9.5,4-12.9-2.4,6.9,0,13.2,0,13.2,0,0,32.4,91.9,32.7,93.2.4,1.2,1.1,4.5,1,5.6-3,18.2-28.8,28.5-31.6,29.6-2.9,1.1,2.3.2,2.3.2,0,0,13.7-1.7,21-8.9,7.2-7.2,8-10.8,9.7-16.3,2.6-8.6-1.9-20.9-1.9-20.9,0,0-26.3-75.5-28.1-81-1.8-5.4-1.9-8.8-1.9-8.8-.9-8.7,4.8-12.9,4.8-12.9l-.4-2.5c0,0-.2.1-.2.2-2.5,1.3-8,7-9.4,8.7-8.5,10.2-5.1,18.1-5.1,18.1,0,0,0,0,0,.2-1.9,1.7-6.9,6.4-8.4,11.1-1.4,4.5-2.1,6.8-.7,11.7-14.3,11.2-7.1,26.6-7.1,26.6,0,0,14.2,38.3,19.6,52.8-2-.5-4.1-1.9-5.9-4.9-4.3-7.1-8.5-19.8-8.8-20.7-.3-.9-.4-.8-.7-.6-.4.2-.2,2.4-.2,3.6,0,1.2,0,2.9,0,2.9,0,0,6.1,14.9,6.8,17.4.7,2.6,0,4.9,0,4.9-2.4,7-8.3,5.5-8.3,5.5,1.2-2.3,2.3-7.2,2-11.7-.3-4.5-4.4-11.8-4.7-12.7-.4-.9-.5-2-1-2.2-.5-.2-.6.6-.8,2.1-.2,1.6-1.6,5-2.4,13.4-.8,8.4,2.3,12.1,2.3,12.1-1.5,2.5-4.2,4.8-5.8,6.3ZM79.5,54.2c.3.8.6,1.7.9,2.6,3.4,9,16,44.9,16,44.9,0,0,3.9,8.4-3.2,13.9,0,0-.3.2-.8.6,3.7-5.7-.1-14.2-.1-14.2,0,0-8.7-24.9-12.2-34.6-2.5-6.9-1.4-11.3-.6-13.3ZM90.2,118c-6.1-16.3-14.1-38.1-15-40.5-1.4-3.9-2.3-7.3-2.2-12.1,0-2.2,1.4-4.8,3-6.9-1.3,6.2,1.7,13.9,1.7,13.9,0,0,11.3,29.8,13.3,35.8,1.7,5.1,0,8.8-.7,9.8,0,0,0,0,0,0ZM90.5,118.6c3.1-.8,14.4-4.6,10.2-16.4-2.1-6-17.9-49.9-17.9-49.9,0,0-3.4-8.2,2.8-17.5-.7,1.7-1.1,3.7-.9,6,.7,7.2,4.9,16.3,7,22.3,2.1,5.9,12.3,35.7,12.3,35.7,0,0,1.6,5.8.7,8.3-1,2.5-1.9,4-1.1,3.1,0,0,6-5.2,4-12.1-2-6.9-17.5-50.9-17.5-50.9,0,0-4.1-8.6-1.3-16.2,4.4,12.5,25,71.2,26.3,74.5,6.4,16.7,6.3,18.2,6.3,18.2-1,2.8-3.4,2.4-3.4,2.4,0,0-.4-1.5-.6-1.6-.1,0-.7-.4-.4,3.2.4,4.3-3.2,3.9-3.2,3.9,0,0-.2-2.4-.6-3-.3-.6-.6-.9-.6,3.1,0,4-3.6,3.9-3.6,3.9,0,0-.1-2.1-.3-2.8-.2-.7-.8-1.1-.9-.5-.1.6,1.2,6.7-3.7,8.4-4.9,1.6-7-4.8-7-4.8,0,0,0-.1-.1-.3,8.2-3,7-15.1,7-16.4,0-1.3.4-1.4.4-1.4.4,1.3,1.6,3.7,4.1,3.1,2.5-.6,2.5-5.2,2.5-5.2,1.8-.9,2.9-2,3.1-5.2.2-3.2-1.3-7.5-1.9-7.6-.6,0-.1,1.8-.1,1.8.4,2.2-.2,3.4-.9,4.8-.8,1.4-1.1.4-1.1.4,0,0-.2-3.6-1-2.6-.8.9.2,4,.2,4.7s0,2.8-1.9,3.8c-1.9,1-2.7-2-2.8-2.5-.1-.6-.1-1.3-.9-1.4-.7,0-1.7,3.6-1.7,6.1,0,2.5-.4,7.1-3.2,10.5-.9,1.1-2.2,2-3.6,2.5-1.2-3.1-2.8-7.5-4.6-12.4ZM69.2,132c0-8.6,1.3-11.8,1.3-11.8,0,0,4.3,5.8,4.3,8.3.2,3.5-3.4,9.1-3.4,9.1-2.1-2.8-2.1-5.6-2.1-5.6ZM93.3,156.7l-5.1-2.6,2.1-4.2,4.9,2.8-2,4.1ZM122,173.5c-2.5,2.4-5,5.6-7,11.6-.3.8-.5,1.7-.5,2.4-1.6-5.7-1.7-12.2-1.5-16.5.2,0,.4,0,.5,0,5.9-1.3,9.8-4.9,12.9-9.8,3.1-5.1,4.3-5.5,6.3-6,1.9-.5,3.1.8,3.7.6.6-.2,1.1-4.4,1.1-5.3,0-.9-3.2-2.1-4.5-2.6-.7-.3-1-.9-1-1.5,0-.6-.3-.3-.3-.3-1,.8-1.2,2.3-1.2,2.6,0,1.3.3,1.9.3,1.9,0,0-1.2,1.3-2.2,2.5-.9,1.1-4.2,6.5-5.7,8.4.7-2.1,1.1-4.6,1.2-7.2,0-1.1,0-2.3-.1-3.4v-.3c0-.5-.2-.9-.5-1.1-.4-.4-1-.3-1-.3-6,.7-9.8,5.7-10.7,14.3v.3c0,.4-.2,1-.2,1.8v.5c-.2,0-.4,0-.6,0-1.3-.4-1.7-1.3-1.9-1.8h0c-.3-.7-.8-3.6-.8-4.8,0-.1,0-.2,0-.3,0,0,0-.1,0-.1,0,0-.2,0-.3.1h0s0,0,0,0c-5,2.4-6.2,5.9-6.5,6.9-.3,1.1-.4,2.9-.4,4.5v1.9c-.5,5-2.1,9-4.8,12-4.8,5.3-15.1,8.4-18.6,9.4,1.6,0,13.4.1,19.4-4.2,5.2-3.8,5.1-12,5.1-16.4v-2.1c.1-3.7,4.5-5.9,4.6-6l.4-.2v.4s.3,4.1,2.9,5.4c.2.1.4.2.7.3.1,0,.6,0,.6,0,0,0,0,0,.1,0,.1,13.1,2.7,19.4,4.4,22.2,0,0,0,0,0,0,.2.3.4.6.6.9,1,1.3,1.9,2,2,1.8.8-19.1,18.8-27.7,27.5-24.3,2.2.9,6.8,2.5,3.2,7.4,0,0,6.1,3.4,9-3.7,1.1-1.6-17-17.1-36.1-1.9ZM113.6,165c.6-3.1,1.5-5.6,2.9-7.1,3.5-3.9,5.7-3.6,5.8-3.6h.2c0,0,0,.2,0,.2v.3c0,2.2-2.7,6.9-7.1,9.8-.5.3-.9.5-1.3.7,0,0-.2.1-.6.3v-.6ZM95.5,122.5c-.4-1.3.6-2.6,1.1-3,.5-.4,1,.4,1,.4v1.3c0,0-.4-.2-.7-.2-.4,0-1,.7-.8,1.1.2.3,1.3.3,1.8,0,.5-.3,1.9-1.6,1.9-1.6l-.2,1.3s-1.2.9-2.1,1.9c-.8,1-1.2,1.2-1.2,1.2v-1s.4-.6.4-.6c0,0-.9.1-1.2-.8ZM113.6,122.7l.6-4.1,4,.5-.6,4.1-4-.5-.6,4.1-4-.5-.5,3.9-4-.5.7-4.2,3.9.5.6-3.9,3.9.5ZM88.1,145.6c-.6-.6-2.4,2.6-2.7,4.4-.3,2.1-.2,15.2-3.5,21.6-3.3,6.4-10.9,9.9-20.7,10.4,0,0,0-.3.5-.5.6-.2,11.5-2.6,17.3-14.2,2.2-4.4,3.5-12.2,3.9-17.2.4-5.1,1.3-9,4.1-9.8,0,0,.7-.2,1.2,1.9.5,2.1,1.4,4.3,1.1,4.5-.3.2-.8-.6-1.4-1.1ZM66.4,190.9c-4.6.5-16.3-2.5-14.6-13.8,0-.6.3-1.2.4-1.9-1.1-.7-2-1.5-2.7-2.5,0,0-1-2.1-1.2-2.7,0,0-.1-.6-1.2.3-1,.9-3.5,2.4-4.2,7.3-.7,4.9-.6,11.2-6.1,10.8-5.5-.5-10.2-8.6-11.7-14.3,0,0-1-3-.9-5,0,0,0-.5.5-.5.4,0,.5.6.5,1.3,0,.7,1.3,10.5,9,14.4,0,0,3.3,1.6,4.9-.5,1.6-2.2,1.7-5.2,1.8-6.4.1-1.2.3-6.4,3.2-10,2.9-3.6,5-2.4,5-2.1,0,.3,1.1,3.9,4.3,5.7.7-1.8,1.6-3.5,2.5-4.9,0,0,0,0,.2,0l-4.9-2.5,2.1-4.2,4.9,2.8-1.9,4c.1,0,.2.1.1.4-.1.3-1.2,2.4-1.9,5,0,0,.1,0,.2,0,4.3,1.3,14.1,1.3,19.8-10.7.3-.7.9-1.7,0-2.2-.9-.5-1.6-.5-1.6-.5,0,0,.4,1.4-.5,2.3-.9.9-4,2.6-5.8-.3,0,0-.7-1.6-.7-4.4.1-2.7,2-5.1,3.8-4.9,1.8.2,6.1,1.5,6.5,7.8.4,6.3-4.6,14-10.7,17-4,2-8.4,2.1-11.9.7,0,1.5.4,3,1.2,4.3,3.4,4.9,10.5,7.9,23.9,2.1,13.5-6,16.5-14.9,16.3-15.5-.2-.6-1.7-1.1-1.7-1.1,0,0,.2,2.3-1.8,3.2-2,1-4.1-.1-4.4-1.7-.2-1.7-1.3-6,.6-7.6,1.9-1.6,5.5-2,7.7,1.7,2,3.4.3,10.9-1.3,13.5-1.6,2.6-8.8,13.9-28.2,15.9ZM2.4,153c16.4,9.5,31,6.5,38.7,4.9,11.8-2.3,16.8-9.4,16.8-9.4,0,0-.5-.8-2-.4-1.4.3-4.7,1.7-5.9.6-1.2-1.1-2.2-3.6-1-6.8,1.1-3.2,4.4-5.7,5.4-6.5.9-.8,2.5-2,2.5-2,0,0-1-5.1,0-6.1.9-1,4.2-3.9,5.6-3.4,1.4.4,1.7,3.2.8,6.6-.9,3.4-4.4,6.5-6.6,8.5-2.3,2-5.5,3.8-5.3,4.8,0,0,.4.5,2.4-.1,2-.7,4.5-1,5.8.9,1.2,1.9.2,5.6-.7,7.5-.7,1.7-6.4,9-19.3,11.2-28.6,4.9-37.1-10.1-37.1-10.1ZM159.4,159.5c.6,3,.4,10.1-.9,13.7-1.2-3.7-4.5-9.7-10.2-11.2,9-2.2,9.1,4.4,9.4,4.8.4-.9,0-3.8-.3-4.9-2.9-6.5-12.9-18-17.8-22.1-4.8-4.4-5.8-6.9-5.7-10,8,6.8,19.6,16.7,25.5,29.7ZM146.8,218.8c-.7.5-14.1,1-23.7-2.3-9.5-3.3-17.4-13-17.9-25.5,0-1.5-.5-5.5.8-14.6,0,0,.1-1.9.9-1.7.8.2-.5,3.5.1,8.8.6,5.3.7,19.6,19.6,28.3,0,0,4.8,2.9,19.9,6.4,0,0,1.1,0,.3.6ZM60.5,157.5l4.9,2.8-1.9,4-5.1-2.6,2.1-4.2Z" fill="#fff"/>
</svg>