<svg xmlns="http://www.w3.org/2000/svg" viewBox="0 0 64 26"><path fill-rule="evenodd" d="M36.74 25.134V4.344h4.155v20.79z" clip-rule="evenodd"></path><path fill-rule="evenodd" d="m0 .465 3.1 20.468C3.507 23.62 5.725 25.6 8.328 25.6s4.82-1.977 5.226-4.665L15.66 7.056c.087-.578.563-1.003 1.124-1.003.559 0 1.037.425 1.125 1.003l2.107 13.877c.409 2.69 2.627 4.67 5.23 4.67 2.602 0 4.817-1.975 5.228-4.66l2.329-15.16c.126-.828.81-1.436 1.61-1.436h2.329V0h-2.329C31.571 0 29.15 2.158 28.7 5.093l-2.328 15.159c-.09.578-.566 1.003-1.127 1.003s-1.04-.427-1.127-1.006L22.01 6.373c-.41-2.687-2.625-4.667-5.228-4.667-2.604 0-4.82 1.98-5.228 4.667L9.447 20.252c-.087.578-.563 1.003-1.124 1.003-.558 0-1.037-.425-1.124-1.003L4.207.465z" clip-rule="evenodd"></path><path d="M53.592 25.579c-3.028 0-5.5-1.176-7.145-3.398-1.394-1.883-2.133-4.447-2.133-7.412s.736-5.525 2.133-7.411c1.644-2.222 4.117-3.398 7.145-3.398s5.5 1.176 7.145 3.398c1.394 1.883 2.133 4.447 2.133 7.411 0 2.965-.736 5.526-2.133 7.412-1.644 2.222-4.117 3.397-7.145 3.397m0-17.866c-1.863 0-3.278.77-4.206 2.023-.886 1.197-1.354 2.938-1.354 5.033s.469 3.836 1.354 5.034c.928 1.253 2.343 2.023 4.206 2.023s3.278-.77 4.207-2.023c.885-1.198 1.353-2.938 1.353-5.034s-.468-3.836-1.353-5.033c-.929-1.254-2.344-2.023-4.207-2.023"></path></svg>