<?xml version="1.0" encoding="UTF-8" standalone="no"?>
<!-- Created with Inkscape (http://www.inkscape.org/) -->

<svg
   version="1.1"
   id="svg9"
   xml:space="preserve"
   width="138.08556"
   height="30.235956"
   viewBox="0 0 138.08555 30.235956"
   xmlns="http://www.w3.org/2000/svg"
   xmlns:svg="http://www.w3.org/2000/svg"><defs
     id="defs13"><clipPath
       clipPathUnits="userSpaceOnUse"
       id="clipPath27"><path
         d="M 0,595.275 H 841.89 V 0 H 0 Z"
         id="path25" /></clipPath></defs><g
     id="g15"
     transform="matrix(1.3333333,0,0,-1.3333333,-66.666576,405.18906)"><g
       id="g21"><g
         id="g23"
         clip-path="url(#clipPath27)"><g
           id="g607"
           transform="translate(85.6094,297.7842)"><path
             d="m 0,0 v -12.08 h -2.363 v 5.814 H -7.268 V -12.08 H -9.631 V 0 h 2.363 v -4.695 h 4.905 V 0 Z"
             style="fill:#231f20;fill-opacity:1;fill-rule:nonzero;stroke:none"
             id="path609" /></g><g
           id="g611"
           transform="translate(92.6885,285.7041)"><path
             d="M 0,0 C -0.069,0.045 -0.146,0.146 -0.232,0.309 -0.321,0.471 -0.364,0.629 -0.364,0.793 -0.72,0.413 -1.128,0.154 -1.589,0.016 -2.05,-0.124 -2.503,-0.191 -2.95,-0.191 c -0.819,0 -1.499,0.25 -2.039,0.752 -0.543,0.499 -0.813,1.18 -0.813,2.043 0,0.793 0.285,1.488 0.856,2.082 0.57,0.59 1.394,0.946 2.476,1.06 l 1.934,0.224 c 0,0.738 -0.165,1.241 -0.493,1.51 -0.327,0.272 -0.699,0.406 -1.113,0.406 -0.505,0 -0.987,-0.113 -1.439,-0.335 -0.455,-0.226 -0.873,-0.51 -1.252,-0.856 l -0.398,1.744 c 0.46,0.323 0.947,0.565 1.46,0.724 0.51,0.161 1.099,0.242 1.768,0.242 0.414,0 0.842,-0.057 1.286,-0.172 C -0.274,9.117 0.126,8.927 0.481,8.664 0.85,8.397 1.149,8.049 1.38,7.618 1.609,7.187 1.726,6.656 1.726,6.021 V 2.259 C 1.726,1.902 1.753,1.521 1.812,1.121 1.87,0.716 1.983,0.343 2.158,0 Z M -0.517,4.519 -1.676,4.367 c -0.54,-0.07 -0.977,-0.256 -1.311,-0.554 -0.334,-0.299 -0.5,-0.672 -0.5,-1.124 0,-0.401 0.113,-0.722 0.338,-0.965 0.222,-0.242 0.489,-0.362 0.801,-0.362 0.241,0 0.476,0.035 0.701,0.104 0.224,0.069 0.416,0.194 0.575,0.378 0.175,0.186 0.31,0.429 0.408,0.735 0.097,0.304 0.147,0.698 0.147,1.183 z"
             style="fill:#231f20;fill-opacity:1;fill-rule:nonzero;stroke:none"
             id="path613" /></g><g
           id="g615"
           transform="translate(98.3497,294.9375)"><path
             d="m 0,0 v -0.794 c 0.309,0.31 0.674,0.548 1.094,0.716 0.42,0.168 0.855,0.251 1.305,0.251 1.105,0 1.973,-0.322 2.616,-0.967 C 5.65,-1.438 5.97,-2.32 5.97,-3.436 V -9.235 H 3.711 v 5.471 c 0,0.702 -0.158,1.272 -0.477,1.709 -0.316,0.437 -0.761,0.657 -1.337,0.657 -0.53,0 -0.975,-0.217 -1.336,-0.648 C 0.196,-2.476 0.017,-3.074 0.017,-3.832 V -9.235 H -2.229 V 0 Z"
             style="fill:#231f20;fill-opacity:1;fill-rule:nonzero;stroke:none"
             id="path617" /></g><g
           id="g619"
           transform="translate(111.3301,285.7041)"><path
             d="m 0,0 c -0.07,0.045 -0.148,0.146 -0.234,0.309 -0.085,0.162 -0.13,0.32 -0.13,0.484 -0.357,-0.38 -0.765,-0.639 -1.225,-0.777 -0.46,-0.14 -0.917,-0.207 -1.364,-0.207 -0.818,0 -1.495,0.25 -2.039,0.752 C -5.53,1.06 -5.8,1.741 -5.8,2.604 c 0,0.793 0.284,1.488 0.856,2.082 0.566,0.59 1.393,0.946 2.475,1.06 l 1.931,0.224 c 0,0.738 -0.162,1.241 -0.49,1.51 -0.328,0.272 -0.699,0.406 -1.113,0.406 -0.508,0 -0.986,-0.113 -1.444,-0.335 -0.454,-0.226 -0.87,-0.51 -1.249,-0.856 L -5.23,8.439 c 0.459,0.323 0.944,0.565 1.455,0.724 0.515,0.161 1.104,0.242 1.773,0.242 0.413,0 0.842,-0.057 1.284,-0.172 C -0.273,9.117 0.125,8.927 0.482,8.664 0.85,8.397 1.146,8.049 1.381,7.618 1.611,7.187 1.724,6.656 1.724,6.021 V 2.259 C 1.724,1.902 1.755,1.521 1.811,1.121 1.867,0.716 1.984,0.343 2.156,0 Z M -0.52,4.519 -1.674,4.367 C -2.217,4.297 -2.652,4.111 -2.986,3.813 -3.32,3.514 -3.488,3.141 -3.488,2.689 c 0,-0.401 0.113,-0.722 0.336,-0.965 0.223,-0.242 0.494,-0.362 0.803,-0.362 0.242,0 0.474,0.035 0.699,0.104 0.222,0.069 0.417,0.194 0.579,0.378 0.172,0.186 0.305,0.429 0.405,0.735 0.097,0.304 0.146,0.698 0.146,1.183 z"
             style="fill:#231f20;fill-opacity:1;fill-rule:nonzero;stroke:none"
             id="path621" /></g><g
           id="g623"
           transform="translate(121.0997,285.7041)"><path
             d="m 0,0 h -3.85 v 12.08 h 4.107 c 1.012,0 1.852,-0.257 2.514,-0.774 C 3.43,10.786 3.761,10.12 3.761,9.302 3.761,8.486 3.563,7.841 3.157,7.369 2.756,6.896 2.312,6.574 1.829,6.401 2.531,6.23 3.123,5.911 3.606,5.453 4.089,4.992 4.33,4.353 4.33,3.534 4.33,2.465 3.959,1.607 3.217,0.964 2.477,0.32 1.404,0 0,0 M -1.468,10.579 V 7.041 h 0.88 c 0.654,0 1.15,0.176 1.483,0.526 0.334,0.352 0.503,0.82 0.503,1.408 0,0.482 -0.141,0.871 -0.424,1.165 -0.281,0.292 -0.683,0.439 -1.201,0.439 z m 0,-5.042 V 1.501 h 1.241 c 0.601,0 1.097,0.175 1.496,0.525 0.395,0.351 0.596,0.854 0.596,1.508 0,0.728 -0.238,1.242 -0.709,1.545 -0.472,0.308 -1.003,0.458 -1.588,0.458 z"
             style="fill:#231f20;fill-opacity:1;fill-rule:nonzero;stroke:none"
             id="path625" /></g><g
           id="g627"
           transform="translate(132.3165,285.7041)"><path
             d="m 0,0 c -0.067,0.045 -0.146,0.146 -0.232,0.309 -0.088,0.162 -0.13,0.32 -0.13,0.484 -0.359,-0.38 -0.766,-0.639 -1.225,-0.777 -0.462,-0.14 -0.917,-0.207 -1.364,-0.207 -0.82,0 -1.495,0.25 -2.038,0.752 -0.54,0.499 -0.81,1.18 -0.81,2.043 0,0.793 0.287,1.488 0.857,2.082 0.566,0.59 1.393,0.946 2.475,1.06 l 1.93,0.224 c 0,0.738 -0.162,1.241 -0.489,1.51 -0.328,0.272 -0.699,0.406 -1.114,0.406 -0.508,0 -0.986,-0.113 -1.443,-0.335 -0.454,-0.226 -0.87,-0.51 -1.251,-0.856 l -0.395,1.744 c 0.46,0.323 0.946,0.565 1.456,0.724 0.515,0.161 1.104,0.242 1.773,0.242 0.413,0 0.842,-0.057 1.283,-0.172 C -0.272,9.117 0.126,8.927 0.484,8.664 0.852,8.397 1.148,8.049 1.383,7.618 1.611,7.187 1.726,6.656 1.726,6.021 V 2.259 C 1.726,1.902 1.756,1.521 1.812,1.121 1.869,0.716 1.984,0.343 2.157,0 Z M -0.518,4.519 -1.674,4.367 C -2.215,4.297 -2.652,4.111 -2.985,3.813 -3.318,3.514 -3.487,3.141 -3.487,2.689 c 0,-0.401 0.112,-0.722 0.337,-0.965 0.223,-0.242 0.493,-0.362 0.802,-0.362 0.243,0 0.475,0.035 0.7,0.104 0.222,0.069 0.416,0.194 0.578,0.378 0.172,0.186 0.306,0.429 0.405,0.735 0.099,0.304 0.147,0.698 0.147,1.183 z"
             style="fill:#231f20;fill-opacity:1;fill-rule:nonzero;stroke:none"
             id="path629" /></g><g
           id="g631"
           transform="translate(137.9805,294.9375)"><path
             d="m 0,0 v -0.794 c 0.309,0.31 0.674,0.548 1.093,0.716 0.421,0.168 0.855,0.251 1.306,0.251 1.103,0 1.974,-0.322 2.615,-0.967 0.638,-0.644 0.955,-1.526 0.955,-2.642 V -9.235 H 3.711 v 5.471 c 0,0.702 -0.158,1.272 -0.475,1.709 -0.32,0.437 -0.763,0.657 -1.34,0.657 -0.531,0 -0.973,-0.217 -1.335,-0.648 C 0.196,-2.476 0.015,-3.074 0.015,-3.832 V -9.235 H -2.229 V 0 Z"
             style="fill:#231f20;fill-opacity:1;fill-rule:nonzero;stroke:none"
             id="path633" /></g><g
           id="g635"
           transform="translate(145.5391,285.7041)"><path
             d="M 0,0 V 12.598 H 2.242 V 5.987 L 5.179,9.233 H 7.578 L 4.004,5.278 8.025,0 H 5.455 L 2.242,4.191 V 0 Z"
             style="fill:#231f20;fill-opacity:1;fill-rule:nonzero;stroke:none"
             id="path637" /></g><g
           id="g639"
           transform="translate(66.3243,290.4541)"><path
             d="M 0,0 C -0.058,0.346 -0.151,0.681 -0.291,0.991 -0.729,1.937 -1.34,2.73 -2.252,3.265 -3.675,4.093 -5.393,4.089 -6.8,3.234 -7.437,2.85 -7.961,2.297 -8.298,1.631 -8.412,1.406 -8.506,1.17 -8.581,0.928 c -0.371,-1.178 -0.358,-2.762 0.31,-3.838 0.218,-0.35 0.534,-0.652 0.917,-0.799 0.387,-0.149 0.844,-0.132 1.192,0.091 0.447,0.289 0.527,0.841 0.443,1.331 -0.105,0.626 -0.186,1.243 0.045,1.856 0.073,0.195 0.178,0.384 0.328,0.528 0.092,0.088 0.201,0.159 0.315,0.215 0.243,0.119 0.519,0.171 0.786,0.128 0.466,-0.074 0.847,-0.436 1.054,-0.86 0.205,-0.424 0.262,-0.903 0.285,-1.376 0.097,-2.052 -0.393,-4.178 -0.916,-6.149 -0.054,-0.204 -0.11,-0.406 -0.167,-0.609 -0.044,-0.156 -0.124,-0.355 -0.025,-0.506 0.043,-0.064 0.11,-0.111 0.182,-0.14 0.305,-0.123 0.554,0.064 0.758,0.27 1.204,1.211 1.974,2.773 2.502,4.379 0.197,0.601 0.366,1.209 0.48,1.832 C 0.064,-1.869 0.152,-0.896 0,0"
             style="fill:#009591;fill-opacity:1;fill-rule:nonzero;stroke:none"
             id="path641" /></g><g
           id="g643"
           transform="translate(74.9415,299.9424)"><path
             d="M 0,0 C 0,0.308 -0.273,0.511 -0.565,0.501 -0.863,0.491 -1.139,0.338 -1.412,0.234 -6.707,-1.778 -12.678,-2.16 -18.258,-1.357 c -0.954,0.138 -1.922,0.331 -2.882,0.48 -0.599,0.093 -1.192,0.231 -1.798,0.274 -0.517,0.041 -1.16,0.06 -1.578,-0.3 -0.55,-0.475 -0.511,-1.375 -0.199,-1.971 0.375,-0.715 1.031,-1.25 1.715,-1.658 0.664,-0.395 1.455,-0.817 2.245,-0.767 2.133,0.137 4.26,0.344 6.379,0.618 3.614,0.469 7.404,0.912 10.798,2.315 1.11,0.458 2.207,1.029 3.157,1.768 C -0.248,-0.466 0,-0.251 0,0"
             style="fill:#009591;fill-opacity:1;fill-rule:nonzero;stroke:none"
             id="path645" /></g><g
           id="g647"
           transform="translate(59.7569,301.7578)"><path
             d="m 0,0 c 0,-1.151 0.933,-2.084 2.083,-2.084 1.15,0 2.083,0.933 2.083,2.084 0,0.17 -0.04,0.343 -0.112,0.498 C 3.874,0.877 3.673,1.06 3.694,1.515 3.72,2.125 2.937,2.134 2.514,2.134 2.054,2.134 1.564,2.069 1.148,1.861 0.817,1.694 0.532,1.437 0.331,1.127 0.124,0.806 0.009,0.429 0,0.047 V 0"
             style="fill:#ed1651;fill-opacity:1;fill-rule:nonzero;stroke:none"
             id="path649" /></g></g></g></g></svg>
