<svg width="162" height="40" viewBox="0 0 162 40" fill="none" xmlns="http://www.w3.org/2000/svg">
<g clip-path="url(#clip0_472_4521)">
<mask id="mask0_472_4521" style="mask-type:luminance" maskUnits="userSpaceOnUse" x="35" y="0" width="31" height="40">
<path d="M65.4667 0V40H35.5078V0H65.4667Z" fill="white"/>
</mask>
<g mask="url(#mask0_472_4521)">
<path fill-rule="evenodd" clip-rule="evenodd" d="M50.4599 32.9082C46.3414 32.9082 42.9914 29.5972 42.9914 25.5274C42.9914 21.4568 46.3414 18.1458 50.4599 18.1458C54.5785 18.1458 57.9284 21.4568 57.9284 25.5274C57.9284 29.5972 54.5785 32.9082 50.4599 32.9082ZM51.7121 11.036C48.768 11.036 46.0434 12.0673 44.0407 13.9401L43.3512 14.5838V0H35.5078V24.9235C35.5078 34.2226 41.1326 40.0002 50.1872 40.0002C59.041 40.0002 65.4667 33.921 65.4667 25.5451C65.4667 17.138 59.6815 11.036 51.7121 11.036Z" fill="white"/>
</g>
<path fill-rule="evenodd" clip-rule="evenodd" d="M7.77556 0H0V38.8889H7.77556V21.3408L23.2921 38.8889H33.2877L16.1202 19.4444L32.8229 0H22.9833L7.77556 17.7038V0Z" fill="white"/>
<mask id="mask1_472_4521" style="mask-type:luminance" maskUnits="userSpaceOnUse" x="135" y="0" width="27" height="39">
<path d="M161.999 0V38.8889H135.369V0H161.999Z" fill="white"/>
</mask>
<g mask="url(#mask1_472_4521)">
<path fill-rule="evenodd" clip-rule="evenodd" d="M143.216 23.5506V0H135.369V38.889H143.216V27.2308L153.258 38.889H161.999L150.372 25.3907L161.999 11.8924H153.258L143.216 23.5506Z" fill="white"/>
</g>
<path fill-rule="evenodd" clip-rule="evenodd" d="M120.655 11.1111C115.949 11.1111 113.046 13.3279 111.659 14.8813V12.0301H104.301V38.8889H111.924L111.923 24.2617C111.923 20.6056 114.453 18.0515 117.616 18.0515C120.78 18.0515 123.309 20.6056 123.309 24.2617V38.8889H130.931V21.9583C130.931 15.6735 126.405 11.1111 120.655 11.1111Z" fill="white"/>
<mask id="mask2_472_4521" style="mask-type:luminance" maskUnits="userSpaceOnUse" x="68" y="11" width="31" height="29">
<path d="M98.7538 11.1111V40H68.7949V11.1111H98.7538Z" fill="white"/>
</mask>
<g mask="url(#mask2_472_4521)">
<path fill-rule="evenodd" clip-rule="evenodd" d="M83.9549 32.9267C79.8881 32.9267 76.5803 29.6245 76.5803 25.5652C76.5803 21.5053 79.8881 18.203 83.9549 18.203C88.0216 18.203 91.3295 21.5053 91.3295 25.5652C91.3295 29.6245 88.0216 32.9267 83.9549 32.9267ZM83.7204 11.1111C75.0724 11.1111 68.7949 17.1971 68.7949 25.5823C68.7949 33.9362 74.5792 40.0002 82.5486 40.0002C88.2128 40.0002 91.2392 35.9055 91.2691 35.8644L91.7082 35.2586V39.095H98.7538V25.5823C98.7538 17.1971 92.4316 11.1111 83.7204 11.1111Z" fill="white"/>
</g>
</g>
<defs>
<clipPath id="clip0_472_4521">
<rect width="162" height="40" fill="white"/>
</clipPath>
</defs>
</svg>
