<?xml version="1.0" encoding="UTF-8"?>
<svg xmlns="http://www.w3.org/2000/svg" xmlns:xlink="http://www.w3.org/1999/xlink" width="150px" height="24px" viewBox="0 0 149 24" version="1.1">
<defs>
<clipPath id="clip1">
  <path d="M 0 4 L 24 4 L 24 21 L 0 21 Z M 0 4 "/>
</clipPath>
<clipPath id="clip2">
  <path d="M 0.800781 12.011719 C 0.800781 18.328125 5.894531 23.4375 12.191406 23.4375 C 18.46875 23.4375 23.585938 18.328125 23.585938 12.011719 C 23.585938 5.691406 18.46875 0.582031 12.191406 0.582031 C 5.914062 0.582031 0.800781 5.691406 0.800781 12.011719 "/>
</clipPath>
<clipPath id="clip3">
  <path d="M 0 5 L 24 5 L 24 21 L 0 21 Z M 0 5 "/>
</clipPath>
<clipPath id="clip4">
  <path d="M 0.800781 12.011719 C 0.800781 18.328125 5.894531 23.4375 12.191406 23.4375 C 18.46875 23.4375 23.585938 18.328125 23.585938 12.011719 C 23.585938 5.691406 18.46875 0.582031 12.191406 0.582031 C 5.914062 0.582031 0.800781 5.691406 0.800781 12.011719 "/>
</clipPath>
<clipPath id="clip5">
  <path d="M 0 6 L 24 6 L 24 21 L 0 21 Z M 0 6 "/>
</clipPath>
<clipPath id="clip6">
  <path d="M 0.800781 12.011719 C 0.800781 18.328125 5.894531 23.4375 12.191406 23.4375 C 18.46875 23.4375 23.585938 18.328125 23.585938 12.011719 C 23.585938 5.691406 18.46875 0.582031 12.191406 0.582031 C 5.914062 0.582031 0.800781 5.691406 0.800781 12.011719 "/>
</clipPath>
<clipPath id="clip7">
  <path d="M 1 7 L 24 7 L 24 21 L 1 21 Z M 1 7 "/>
</clipPath>
<clipPath id="clip8">
  <path d="M 0.800781 12.011719 C 0.800781 18.328125 5.894531 23.4375 12.191406 23.4375 C 18.46875 23.4375 23.585938 18.328125 23.585938 12.011719 C 23.585938 5.691406 18.46875 0.582031 12.191406 0.582031 C 5.914062 0.582031 0.800781 5.691406 0.800781 12.011719 "/>
</clipPath>
<clipPath id="clip9">
  <path d="M 1 8 L 24 8 L 24 21 L 1 21 Z M 1 8 "/>
</clipPath>
<clipPath id="clip10">
  <path d="M 0.800781 12.011719 C 0.800781 18.328125 5.894531 23.4375 12.191406 23.4375 C 18.46875 23.4375 23.585938 18.328125 23.585938 12.011719 C 23.585938 5.691406 18.46875 0.582031 12.191406 0.582031 C 5.914062 0.582031 0.800781 5.691406 0.800781 12.011719 "/>
</clipPath>
<clipPath id="clip11">
  <path d="M 1 9 L 24 9 L 24 21 L 1 21 Z M 1 9 "/>
</clipPath>
<clipPath id="clip12">
  <path d="M 0.800781 12.011719 C 0.800781 18.328125 5.894531 23.4375 12.191406 23.4375 C 18.46875 23.4375 23.585938 18.328125 23.585938 12.011719 C 23.585938 5.691406 18.46875 0.582031 12.191406 0.582031 C 5.914062 0.582031 0.800781 5.691406 0.800781 12.011719 "/>
</clipPath>
<clipPath id="clip13">
  <path d="M 1 9 L 23 9 L 23 21 L 1 21 Z M 1 9 "/>
</clipPath>
<clipPath id="clip14">
  <path d="M 0.800781 12.011719 C 0.800781 18.328125 5.894531 23.4375 12.191406 23.4375 C 18.46875 23.4375 23.585938 18.328125 23.585938 12.011719 C 23.585938 5.691406 18.46875 0.582031 12.191406 0.582031 C 5.914062 0.582031 0.800781 5.691406 0.800781 12.011719 "/>
</clipPath>
<clipPath id="clip15">
  <path d="M 1 10 L 23 10 L 23 21 L 1 21 Z M 1 10 "/>
</clipPath>
<clipPath id="clip16">
  <path d="M 0.800781 12.011719 C 0.800781 18.328125 5.894531 23.4375 12.191406 23.4375 C 18.46875 23.4375 23.585938 18.328125 23.585938 12.011719 C 23.585938 5.691406 18.46875 0.582031 12.191406 0.582031 C 5.914062 0.582031 0.800781 5.691406 0.800781 12.011719 "/>
</clipPath>
</defs>
<g id="surface1">
<path style=" stroke:none;fill-rule:nonzero;fill:rgb(100%,100%,100%);fill-opacity:1;" d="M 24.164062 11.988281 C 24.164062 18.628906 18.8125 24 12.210938 24 C 5.59375 24 0.238281 18.628906 0.238281 11.988281 C 0.238281 5.371094 5.59375 0 12.210938 0 C 18.8125 0 24.164062 5.371094 24.164062 11.988281 "/>
<path style=" stroke:none;fill-rule:nonzero;fill:rgb(3.137255%,41.176471%,67.058825%);fill-opacity:1;" d="M 12.210938 23.4375 C 18.488281 23.4375 23.605469 18.328125 23.605469 12.011719 C 23.605469 5.691406 18.511719 0.582031 12.210938 0.582031 C 5.914062 0.582031 0.820312 5.691406 0.820312 12.011719 C 0.800781 18.328125 5.914062 23.4375 12.210938 23.4375 "/>
<g clip-path="url(#clip1)" clip-rule="nonzero">
<g clip-path="url(#clip2)" clip-rule="nonzero">
<path style=" stroke:none;fill-rule:nonzero;fill:rgb(3.137255%,41.176471%,67.058825%);fill-opacity:1;" d="M 12.3125 17.523438 C 17.328125 17.523438 21.617188 18.929688 23.464844 20.921875 C 24.066406 19.515625 24.40625 17.945312 24.40625 16.296875 C 24.40625 9.738281 18.992188 4.425781 12.3125 4.425781 C 5.632812 4.425781 0.21875 9.738281 0.21875 16.296875 C 0.21875 17.925781 0.558594 19.492188 1.160156 20.921875 C 3.003906 18.929688 7.296875 17.523438 12.3125 17.523438 "/>
<path style=" stroke:none;fill-rule:nonzero;fill:rgb(5.098039%,41.960785%,67.843139%);fill-opacity:1;" d="M 12.3125 17.523438 C 17.304688 17.523438 21.597656 18.910156 23.425781 20.882812 C 24.027344 19.472656 24.367188 17.925781 24.367188 16.296875 C 24.367188 9.777344 18.972656 4.507812 12.292969 4.507812 C 5.632812 4.507812 0.238281 9.796875 0.238281 16.296875 C 0.238281 17.925781 0.578125 19.472656 1.179688 20.882812 C 3.027344 18.929688 7.316406 17.523438 12.3125 17.523438 "/>
<path style=" stroke:none;fill-rule:nonzero;fill:rgb(5.882353%,43.137255%,67.843139%);fill-opacity:1;" d="M 12.3125 17.542969 C 17.304688 17.542969 21.558594 18.929688 23.402344 20.882812 C 24.003906 19.492188 24.347656 17.945312 24.347656 16.335938 C 24.347656 9.878906 18.949219 4.628906 12.3125 4.628906 C 5.671875 4.628906 0.277344 9.878906 0.277344 16.335938 C 0.277344 17.945312 0.617188 19.492188 1.21875 20.882812 C 3.046875 18.929688 7.316406 17.542969 12.3125 17.542969 "/>
<path style=" stroke:none;fill-rule:nonzero;fill:rgb(7.058824%,43.921569%,69.01961%);fill-opacity:1;" d="M 12.3125 17.5625 C 17.285156 17.5625 21.539062 18.929688 23.363281 20.863281 C 23.964844 19.472656 24.304688 17.945312 24.304688 16.355469 C 24.304688 9.957031 18.929688 4.726562 12.3125 4.726562 C 5.691406 4.726562 0.316406 9.957031 0.316406 16.355469 C 0.316406 17.945312 0.660156 19.472656 1.261719 20.863281 C 3.085938 18.929688 7.335938 17.5625 12.3125 17.5625 "/>
<path style=" stroke:none;fill-rule:nonzero;fill:rgb(7.843138%,45.09804%,69.803923%);fill-opacity:1;" d="M 12.3125 17.5625 C 17.265625 17.5625 21.519531 18.929688 23.34375 20.839844 C 23.945312 19.472656 24.285156 17.945312 24.285156 16.375 C 24.285156 10.019531 18.929688 4.828125 12.3125 4.828125 C 5.714844 4.828125 0.335938 10.039062 0.335938 16.394531 C 0.335938 17.984375 0.679688 19.492188 1.28125 20.863281 C 3.105469 18.929688 7.335938 17.5625 12.3125 17.5625 "/>
<path style=" stroke:none;fill-rule:nonzero;fill:rgb(9.019608%,45.882353%,69.803923%);fill-opacity:1;" d="M 12.292969 17.582031 C 17.246094 17.582031 21.476562 18.929688 23.304688 20.839844 C 23.90625 19.492188 24.246094 17.964844 24.246094 16.394531 C 24.246094 10.097656 18.890625 4.929688 12.3125 4.929688 C 5.734375 4.929688 0.378906 10.117188 0.378906 16.414062 C 0.378906 17.984375 0.71875 19.492188 1.320312 20.839844 C 3.125 18.929688 7.359375 17.582031 12.292969 17.582031 "/>
</g>
</g>
<g clip-path="url(#clip3)" clip-rule="nonzero">
<g clip-path="url(#clip4)" clip-rule="nonzero">
<path style=" stroke:none;fill-rule:nonzero;fill:rgb(10.196079%,47.058824%,70.980394%);fill-opacity:1;" d="M 12.292969 17.601562 C 17.226562 17.601562 21.457031 18.929688 23.261719 20.820312 C 23.863281 19.472656 24.207031 17.984375 24.207031 16.414062 C 24.207031 10.179688 18.871094 5.007812 12.292969 5.007812 C 5.734375 5.007812 0.378906 10.160156 0.378906 16.414062 C 0.378906 17.964844 0.71875 19.472656 1.320312 20.820312 C 3.144531 18.929688 7.378906 17.601562 12.292969 17.601562 "/>
<path style=" stroke:none;fill-rule:nonzero;fill:rgb(10.980392%,47.843137%,70.980394%);fill-opacity:1;" d="M 12.292969 17.601562 C 17.226562 17.601562 21.4375 18.929688 23.242188 20.800781 C 23.84375 19.472656 24.1875 17.984375 24.1875 16.4375 C 24.1875 10.238281 18.871094 5.109375 12.3125 5.109375 C 5.773438 5.109375 0.4375 10.238281 0.4375 16.4375 C 0.4375 17.984375 0.777344 19.453125 1.378906 20.800781 C 3.164062 18.929688 7.378906 17.601562 12.292969 17.601562 "/>
<path style=" stroke:none;fill-rule:nonzero;fill:rgb(10.980392%,49.019608%,72.156864%);fill-opacity:1;" d="M 12.292969 17.621094 C 17.207031 17.621094 21.398438 18.929688 23.203125 20.800781 C 23.804688 19.472656 24.144531 18.003906 24.144531 16.476562 C 24.144531 10.339844 18.832031 5.230469 12.292969 5.230469 C 5.753906 5.230469 0.457031 10.339844 0.457031 16.476562 C 0.457031 18.003906 0.800781 19.472656 1.402344 20.800781 C 3.1875 18.929688 7.398438 17.621094 12.292969 17.621094 "/>
<path style=" stroke:none;fill-rule:nonzero;fill:rgb(12.156863%,50.196081%,72.156864%);fill-opacity:1;" d="M 12.292969 17.621094 C 17.1875 17.621094 21.378906 18.929688 23.183594 20.761719 C 23.785156 19.453125 24.105469 17.984375 24.105469 16.476562 C 24.105469 10.378906 18.8125 5.3125 12.292969 5.3125 C 5.773438 5.3125 0.476562 10.378906 0.476562 16.476562 C 0.476562 18.003906 0.820312 19.453125 1.402344 20.761719 C 3.207031 18.929688 7.398438 17.621094 12.292969 17.621094 "/>
<path style=" stroke:none;fill-rule:nonzero;fill:rgb(12.941177%,50.980395%,72.941178%);fill-opacity:1;" d="M 12.292969 17.644531 C 17.1875 17.644531 21.359375 18.929688 23.164062 20.761719 C 23.765625 19.453125 24.085938 18.023438 24.085938 16.515625 C 24.085938 10.480469 18.8125 5.433594 12.292969 5.433594 C 5.792969 5.433594 0.519531 10.480469 0.519531 16.515625 C 0.519531 18.023438 0.859375 19.472656 1.441406 20.761719 C 3.226562 18.929688 7.417969 17.644531 12.292969 17.644531 "/>
<path style=" stroke:none;fill-rule:nonzero;fill:rgb(14.117648%,52.156866%,72.941178%);fill-opacity:1;" d="M 12.292969 17.664062 C 17.164062 17.664062 21.335938 18.949219 23.121094 20.761719 C 23.726562 19.472656 24.046875 18.046875 24.046875 16.535156 C 24.046875 10.5625 18.769531 5.53125 12.292969 5.53125 C 5.8125 5.53125 0.539062 10.5625 0.539062 16.535156 C 0.539062 18.023438 0.878906 19.453125 1.460938 20.742188 C 3.265625 18.929688 7.4375 17.664062 12.292969 17.664062 "/>
<path style=" stroke:none;fill-rule:nonzero;fill:rgb(16.078432%,54.11765%,74.117649%);fill-opacity:1;" d="M 12.292969 17.664062 C 17.144531 17.664062 21.316406 18.929688 23.101562 20.722656 C 23.703125 19.453125 24.027344 18.023438 24.027344 16.535156 C 24.027344 10.601562 18.769531 5.613281 12.292969 5.613281 C 5.832031 5.613281 0.578125 10.601562 0.578125 16.535156 C 0.578125 18.023438 0.917969 19.433594 1.5 20.722656 C 3.285156 18.929688 7.4375 17.664062 12.292969 17.664062 "/>
<path style=" stroke:none;fill-rule:nonzero;fill:rgb(16.862746%,54.901963%,74.901962%);fill-opacity:1;" d="M 12.292969 17.683594 C 17.144531 17.683594 21.277344 18.929688 23.0625 20.722656 C 23.664062 19.453125 23.984375 18.046875 23.984375 16.578125 C 23.984375 10.703125 18.75 5.734375 12.292969 5.734375 C 5.855469 5.734375 0.597656 10.703125 0.597656 16.578125 C 0.597656 18.046875 0.917969 19.453125 1.519531 20.722656 C 3.304688 18.929688 7.457031 17.683594 12.292969 17.683594 "/>
<path style=" stroke:none;fill-rule:nonzero;fill:rgb(18.039216%,56.078434%,74.901962%);fill-opacity:1;" d="M 12.292969 17.703125 C 17.125 17.703125 21.257812 18.949219 23.042969 20.699219 C 23.644531 19.453125 23.964844 18.046875 23.964844 16.597656 C 23.964844 10.78125 18.75 5.835938 12.292969 5.835938 C 5.875 5.835938 0.636719 10.78125 0.636719 16.597656 C 0.636719 18.046875 0.980469 19.453125 1.5625 20.699219 C 3.328125 18.929688 7.457031 17.703125 12.292969 17.703125 "/>
<path style=" stroke:none;fill-rule:nonzero;fill:rgb(18.039216%,56.862748%,76.078433%);fill-opacity:1;" d="M 12.292969 17.703125 C 17.105469 17.703125 21.238281 18.929688 23.003906 20.679688 C 23.585938 19.433594 23.925781 18.066406 23.925781 16.617188 C 23.925781 10.84375 18.710938 5.933594 12.292969 5.933594 C 5.875 5.933594 0.660156 10.863281 0.660156 16.617188 C 0.660156 18.066406 0.980469 19.433594 1.582031 20.679688 C 3.347656 18.949219 7.476562 17.703125 12.292969 17.703125 "/>
</g>
</g>
<g clip-path="url(#clip5)" clip-rule="nonzero">
<g clip-path="url(#clip6)" clip-rule="nonzero">
<path style=" stroke:none;fill-rule:nonzero;fill:rgb(20%,58.039218%,76.078433%);fill-opacity:1;" d="M 12.292969 17.722656 C 17.105469 17.722656 21.21875 18.949219 22.984375 20.679688 C 23.5625 19.453125 23.90625 18.085938 23.90625 16.65625 C 23.90625 10.945312 18.710938 6.054688 12.3125 6.054688 C 5.914062 6.054688 0.71875 10.945312 0.71875 16.65625 C 0.71875 18.085938 1.039062 19.453125 1.640625 20.679688 C 3.367188 18.949219 7.476562 17.722656 12.292969 17.722656 "/>
<path style=" stroke:none;fill-rule:nonzero;fill:rgb(20%,58.823532%,76.078433%);fill-opacity:1;" d="M 12.292969 17.742188 C 17.085938 17.742188 21.199219 18.949219 22.941406 20.660156 C 23.523438 19.433594 23.863281 18.085938 23.863281 16.65625 C 23.863281 10.984375 18.691406 6.136719 12.292969 6.136719 C 5.914062 6.136719 0.71875 11.003906 0.71875 16.65625 C 0.71875 18.066406 1.039062 19.433594 1.640625 20.640625 C 3.386719 18.949219 7.5 17.742188 12.292969 17.742188 "/>
<path style=" stroke:none;fill-rule:nonzero;fill:rgb(21.176471%,60.000002%,76.862746%);fill-opacity:1;" d="M 12.273438 17.742188 C 17.046875 17.742188 21.136719 18.949219 22.902344 20.640625 C 23.484375 19.433594 23.804688 18.085938 23.804688 16.675781 C 23.804688 11.066406 18.628906 6.238281 12.273438 6.238281 C 5.914062 6.238281 0.738281 11.085938 0.738281 16.675781 C 0.738281 18.085938 1.058594 19.433594 1.660156 20.640625 C 3.40625 18.949219 7.519531 17.742188 12.273438 17.742188 "/>
<path style=" stroke:none;fill-rule:nonzero;fill:rgb(21.960784%,61.176473%,78.039217%);fill-opacity:1;" d="M 12.273438 17.761719 C 17.046875 17.761719 21.117188 18.949219 22.882812 20.640625 C 23.464844 19.453125 23.785156 18.105469 23.785156 16.71875 C 23.785156 11.164062 18.628906 6.355469 12.273438 6.355469 C 5.933594 6.355469 0.777344 11.164062 0.777344 16.71875 C 0.777344 18.105469 1.101562 19.433594 1.679688 20.640625 C 3.425781 18.949219 7.519531 17.761719 12.273438 17.761719 "/>
<path style=" stroke:none;fill-rule:nonzero;fill:rgb(23.921569%,63.137257%,78.823531%);fill-opacity:1;" d="M 12.273438 17.761719 C 17.027344 17.761719 21.097656 18.929688 22.84375 20.601562 C 23.425781 19.414062 23.746094 18.085938 23.746094 16.71875 C 23.746094 11.207031 18.609375 6.417969 12.273438 6.417969 C 5.953125 6.417969 0.800781 11.207031 0.800781 16.71875 C 0.800781 18.105469 1.121094 19.414062 1.703125 20.601562 C 3.464844 18.949219 7.539062 17.761719 12.273438 17.761719 "/>
<path style=" stroke:none;fill-rule:nonzero;fill:rgb(25.098041%,63.921571%,78.823531%);fill-opacity:1;" d="M 12.273438 17.785156 C 17.027344 17.785156 21.078125 18.949219 22.820312 20.601562 C 23.402344 19.433594 23.726562 18.125 23.726562 16.757812 C 23.726562 11.304688 18.589844 6.539062 12.273438 6.539062 C 5.972656 6.539062 0.839844 11.304688 0.839844 16.757812 C 0.839844 18.125 1.160156 19.433594 1.742188 20.601562 C 3.488281 18.949219 7.539062 17.785156 12.273438 17.785156 "/>
<path style=" stroke:none;fill-rule:nonzero;fill:rgb(25.882354%,65.098041%,80.000001%);fill-opacity:1;" d="M 12.273438 17.804688 C 17.003906 17.804688 21.058594 18.949219 22.78125 20.601562 C 23.363281 19.433594 23.683594 18.144531 23.683594 16.796875 C 23.683594 11.40625 18.570312 6.660156 12.273438 6.660156 C 5.972656 6.660156 0.859375 11.386719 0.859375 16.796875 C 0.859375 18.144531 1.179688 19.453125 1.761719 20.601562 C 3.507812 18.949219 7.558594 17.804688 12.273438 17.804688 "/>
<path style=" stroke:none;fill-rule:nonzero;fill:rgb(27.058825%,65.882355%,80.000001%);fill-opacity:1;" d="M 12.273438 17.804688 C 16.984375 17.804688 21.035156 18.949219 22.761719 20.558594 C 23.34375 19.414062 23.664062 18.125 23.664062 16.796875 C 23.664062 11.445312 18.570312 6.738281 12.273438 6.738281 C 5.992188 6.738281 0.898438 11.445312 0.898438 16.796875 C 0.898438 18.144531 1.21875 19.414062 1.800781 20.558594 C 3.527344 18.949219 7.558594 17.804688 12.273438 17.804688 "/>
<path style=" stroke:none;fill-rule:nonzero;fill:rgb(27.843139%,67.058825%,81.176472%);fill-opacity:1;" d="M 12.273438 17.824219 C 16.984375 17.824219 20.996094 18.949219 22.722656 20.558594 C 23.304688 19.414062 23.625 18.144531 23.625 16.816406 C 23.625 11.527344 18.53125 6.839844 12.273438 6.839844 C 6.015625 6.839844 0.917969 11.527344 0.917969 16.816406 C 0.917969 18.144531 1.242188 19.414062 1.820312 20.558594 C 3.546875 18.949219 7.578125 17.824219 12.273438 17.824219 "/>
<path style=" stroke:none;fill-rule:nonzero;fill:rgb(29.019609%,67.843139%,81.960785%);fill-opacity:1;" d="M 12.273438 17.84375 C 16.964844 17.84375 20.976562 18.96875 22.703125 20.539062 C 23.285156 19.414062 23.605469 18.164062 23.605469 16.839844 C 23.605469 11.585938 18.53125 6.941406 12.273438 6.941406 C 6.035156 6.941406 0.960938 11.609375 0.960938 16.839844 C 0.960938 18.144531 1.28125 19.414062 1.863281 20.539062 C 3.566406 18.949219 7.597656 17.84375 12.273438 17.84375 "/>
</g>
</g>
<g clip-path="url(#clip7)" clip-rule="nonzero">
<g clip-path="url(#clip8)" clip-rule="nonzero">
<path style=" stroke:none;fill-rule:nonzero;fill:rgb(29.019609%,69.01961%,81.960785%);fill-opacity:1;" d="M 12.273438 17.84375 C 16.945312 17.84375 20.957031 18.949219 22.683594 20.519531 C 23.261719 19.414062 23.585938 18.164062 23.585938 16.859375 C 23.585938 11.667969 18.53125 7.042969 12.292969 7.042969 C 6.074219 7.042969 1 11.667969 1 16.859375 C 1 18.164062 1.320312 19.414062 1.902344 20.519531 C 3.585938 18.949219 7.597656 17.84375 12.273438 17.84375 "/>
<path style=" stroke:none;fill-rule:nonzero;fill:rgb(30.980393%,69.803923%,83.137256%);fill-opacity:1;" d="M 12.273438 17.863281 C 16.945312 17.863281 20.9375 18.949219 22.640625 20.519531 C 23.222656 19.414062 23.523438 18.1875 23.523438 16.898438 C 23.523438 11.769531 18.488281 7.160156 12.25 7.160156 C 6.054688 7.160156 1 11.769531 1 16.898438 C 1 18.1875 1.320312 19.414062 1.882812 20.519531 C 3.605469 18.949219 7.617188 17.863281 12.273438 17.863281 "/>
<path style=" stroke:none;fill-rule:nonzero;fill:rgb(32.941177%,72.941178%,83.92157%);fill-opacity:1;" d="M 12.273438 17.882812 C 16.925781 17.882812 20.917969 18.96875 22.621094 20.5 C 23.203125 19.414062 23.503906 18.1875 23.503906 16.917969 C 23.503906 11.828125 18.46875 7.261719 12.273438 7.261719 C 6.074219 7.261719 1.039062 11.847656 1.039062 16.917969 C 1.039062 18.1875 1.359375 19.414062 1.921875 20.5 C 3.628906 18.949219 7.617188 17.882812 12.273438 17.882812 "/>
<path style=" stroke:none;fill-rule:nonzero;fill:rgb(32.941177%,74.117649%,83.92157%);fill-opacity:1;" d="M 12.273438 17.882812 C 16.90625 17.882812 20.898438 18.949219 22.582031 20.480469 C 23.164062 19.394531 23.464844 18.1875 23.464844 16.9375 C 23.464844 11.910156 18.449219 7.363281 12.273438 7.363281 C 6.09375 7.363281 1.078125 11.910156 1.078125 16.9375 C 1.078125 18.207031 1.402344 19.414062 1.960938 20.480469 C 3.667969 18.949219 7.636719 17.882812 12.273438 17.882812 "/>
<path style=" stroke:none;fill-rule:nonzero;fill:rgb(34.901962%,74.901962%,85.09804%);fill-opacity:1;" d="M 12.25 17.90625 C 16.886719 17.90625 20.835938 18.96875 22.542969 20.480469 C 23.121094 19.414062 23.425781 18.207031 23.425781 16.957031 C 23.425781 11.988281 18.429688 7.464844 12.25 7.464844 C 6.09375 7.464844 1.078125 11.988281 1.078125 16.957031 C 1.078125 18.207031 1.402344 19.394531 1.960938 20.480469 C 3.6875 18.949219 7.636719 17.90625 12.25 17.90625 "/>
<path style=" stroke:none;fill-rule:nonzero;fill:rgb(34.901962%,76.078433%,85.09804%);fill-opacity:1;" d="M 12.25 17.90625 C 16.863281 17.90625 20.816406 18.949219 22.5 20.4375 C 23.082031 19.371094 23.382812 18.207031 23.382812 16.957031 C 23.382812 12.03125 18.390625 7.542969 12.25 7.542969 C 6.113281 7.542969 1.121094 12.050781 1.121094 16.957031 C 1.121094 18.207031 1.441406 19.371094 2.003906 20.4375 C 3.707031 18.96875 7.660156 17.90625 12.25 17.90625 "/>
<path style=" stroke:none;fill-rule:nonzero;fill:rgb(36.862746%,76.078433%,85.882354%);fill-opacity:1;" d="M 12.25 17.945312 C 16.863281 17.945312 20.816406 18.992188 22.5 20.460938 C 23.082031 19.414062 23.382812 18.226562 23.382812 17 C 23.382812 12.109375 18.410156 7.644531 12.25 7.644531 C 6.132812 7.644531 1.140625 12.109375 1.140625 17 C 1.140625 18.226562 1.460938 19.414062 2.023438 20.460938 C 3.707031 18.992188 7.660156 17.945312 12.25 17.945312 "/>
<path style=" stroke:none;fill-rule:nonzero;fill:rgb(38.82353%,76.862746%,85.882354%);fill-opacity:1;" d="M 12.25 17.964844 C 16.84375 17.964844 20.796875 18.992188 22.480469 20.480469 C 23.0625 19.433594 23.363281 18.265625 23.363281 17.058594 C 23.363281 12.191406 18.390625 7.746094 12.25 7.746094 C 6.132812 7.746094 1.140625 12.191406 1.140625 17.058594 C 1.140625 18.285156 1.460938 19.453125 2.023438 20.5 C 3.726562 19.011719 7.679688 17.964844 12.25 17.964844 "/>
<path style=" stroke:none;fill-rule:nonzero;fill:rgb(41.176471%,78.039217%,87.058824%);fill-opacity:1;" d="M 12.25 18.003906 C 16.84375 18.003906 20.777344 19.03125 22.460938 20.5 C 23.023438 19.453125 23.34375 18.308594 23.34375 17.101562 C 23.34375 12.273438 18.371094 7.847656 12.25 7.847656 C 6.132812 7.847656 1.160156 12.273438 1.160156 17.101562 C 1.160156 18.308594 1.480469 19.472656 2.042969 20.5 C 3.726562 19.03125 7.679688 18.003906 12.25 18.003906 "/>
<path style=" stroke:none;fill-rule:nonzero;fill:rgb(43.137255%,78.823531%,87.058824%);fill-opacity:1;" d="M 12.25 18.023438 C 16.84375 18.023438 20.777344 19.050781 22.460938 20.5 C 23.023438 19.472656 23.34375 18.328125 23.34375 17.121094 C 23.34375 12.332031 18.390625 7.925781 12.273438 7.925781 C 6.175781 7.925781 1.199219 12.3125 1.199219 17.121094 C 1.199219 18.328125 1.519531 19.472656 2.082031 20.5 C 3.746094 19.050781 7.679688 18.023438 12.25 18.023438 "/>
</g>
</g>
<g clip-path="url(#clip9)" clip-rule="nonzero">
<g clip-path="url(#clip10)" clip-rule="nonzero">
<path style=" stroke:none;fill-rule:nonzero;fill:rgb(45.09804%,80.000001%,87.843138%);fill-opacity:1;" d="M 12.25 18.066406 C 16.84375 18.066406 20.757812 19.070312 22.441406 20.519531 C 23.003906 19.492188 23.324219 18.347656 23.324219 17.160156 C 23.324219 12.390625 18.371094 8.027344 12.25 8.027344 C 6.15625 8.027344 1.199219 12.390625 1.199219 17.160156 C 1.199219 18.347656 1.519531 19.492188 2.082031 20.519531 C 3.769531 19.070312 7.699219 18.066406 12.25 18.066406 "/>
<path style=" stroke:none;fill-rule:nonzero;fill:rgb(47.843137%,81.176472%,87.843138%);fill-opacity:1;" d="M 12.25 18.085938 C 16.824219 18.085938 20.757812 19.089844 22.421875 20.519531 C 22.984375 19.492188 23.304688 18.367188 23.304688 17.179688 C 23.304688 12.453125 18.347656 8.105469 12.25 8.105469 C 6.175781 8.105469 1.199219 12.453125 1.199219 17.179688 C 1.199219 18.367188 1.519531 19.492188 2.082031 20.519531 C 3.769531 19.089844 7.699219 18.085938 12.25 18.085938 "/>
<path style=" stroke:none;fill-rule:nonzero;fill:rgb(50.196081%,81.176472%,89.019608%);fill-opacity:1;" d="M 12.25 18.125 C 16.824219 18.125 20.734375 19.132812 22.421875 20.558594 C 22.984375 19.554688 23.304688 18.425781 23.304688 17.242188 C 23.304688 12.53125 18.371094 8.226562 12.273438 8.226562 C 6.195312 8.226562 1.242188 12.554688 1.242188 17.242188 C 1.242188 18.425781 1.5625 19.554688 2.101562 20.558594 C 3.789062 19.113281 7.699219 18.125 12.25 18.125 "/>
<path style=" stroke:none;fill-rule:nonzero;fill:rgb(52.156866%,81.960785%,89.019608%);fill-opacity:1;" d="M 12.25 18.144531 C 16.824219 18.144531 20.734375 19.132812 22.402344 20.558594 C 22.960938 19.554688 23.285156 18.425781 23.285156 17.261719 C 23.285156 12.59375 18.347656 8.308594 12.273438 8.308594 C 6.195312 8.308594 1.261719 12.59375 1.261719 17.261719 C 1.261719 18.425781 1.582031 19.554688 2.121094 20.558594 C 3.789062 19.132812 7.71875 18.144531 12.25 18.144531 "/>
<path style=" stroke:none;fill-rule:nonzero;fill:rgb(54.11765%,83.137256%,89.803922%);fill-opacity:1;" d="M 12.25 18.164062 C 16.804688 18.164062 20.714844 19.152344 22.378906 20.558594 C 22.941406 19.554688 23.242188 18.449219 23.242188 17.28125 C 23.242188 12.632812 18.308594 8.390625 12.230469 8.390625 C 6.175781 8.390625 1.242188 12.652344 1.242188 17.28125 C 1.242188 18.449219 1.542969 19.554688 2.101562 20.558594 C 3.808594 19.171875 7.71875 18.164062 12.25 18.164062 "/>
<path style=" stroke:none;fill-rule:nonzero;fill:rgb(56.078434%,83.92157%,89.803922%);fill-opacity:1;" d="M 12.25 18.207031 C 16.804688 18.207031 20.695312 19.191406 22.359375 20.578125 C 22.921875 19.59375 23.222656 18.488281 23.222656 17.339844 C 23.222656 12.734375 18.308594 8.488281 12.230469 8.488281 C 6.175781 8.488281 1.242188 12.734375 1.242188 17.339844 C 1.242188 18.488281 1.542969 19.59375 2.101562 20.601562 C 3.808594 19.191406 7.71875 18.207031 12.25 18.207031 "/>
<path style=" stroke:none;fill-rule:nonzero;fill:rgb(58.039218%,83.92157%,90.980393%);fill-opacity:1;" d="M 12.25 18.226562 C 16.804688 18.226562 20.695312 19.191406 22.359375 20.578125 C 22.921875 19.59375 23.222656 18.507812 23.222656 17.359375 C 23.222656 12.792969 18.308594 8.570312 12.25 8.570312 C 6.214844 8.570312 1.28125 12.773438 1.28125 17.359375 C 1.28125 18.507812 1.582031 19.59375 2.144531 20.578125 C 3.828125 19.210938 7.71875 18.226562 12.25 18.226562 "/>
<path style=" stroke:none;fill-rule:nonzero;fill:rgb(60.000002%,85.09804%,90.980393%);fill-opacity:1;" d="M 12.25 18.265625 C 16.785156 18.265625 20.675781 19.230469 22.339844 20.601562 C 22.902344 19.613281 23.203125 18.527344 23.203125 17.402344 C 23.203125 12.855469 18.289062 8.671875 12.25 8.671875 C 6.214844 8.671875 1.300781 12.855469 1.300781 17.402344 C 1.300781 18.546875 1.601562 19.632812 2.164062 20.601562 C 3.847656 19.230469 7.738281 18.265625 12.25 18.265625 "/>
<path style=" stroke:none;fill-rule:nonzero;fill:rgb(61.960787%,85.882354%,90.980393%);fill-opacity:1;" d="M 12.25 18.285156 C 16.785156 18.285156 20.675781 19.253906 22.320312 20.621094 C 22.882812 19.65625 23.183594 18.566406 23.183594 17.441406 C 23.183594 12.933594 18.289062 8.769531 12.230469 8.769531 C 6.195312 8.769531 1.300781 12.933594 1.300781 17.441406 C 1.300781 18.566406 1.601562 19.65625 2.164062 20.621094 C 3.847656 19.253906 7.738281 18.285156 12.25 18.285156 "/>
<path style=" stroke:none;fill-rule:nonzero;fill:rgb(63.921571%,87.058824%,92.156863%);fill-opacity:1;" d="M 12.25 18.328125 C 16.785156 18.328125 20.65625 19.273438 22.320312 20.640625 C 22.882812 19.675781 23.183594 18.609375 23.183594 17.480469 C 23.183594 12.996094 18.289062 8.871094 12.25 8.871094 C 6.234375 8.871094 1.339844 13.015625 1.339844 17.480469 C 1.339844 18.609375 1.640625 19.675781 2.203125 20.640625 C 3.867188 19.273438 7.738281 18.328125 12.25 18.328125 "/>
<path style=" stroke:none;fill-rule:nonzero;fill:rgb(65.882355%,87.058824%,92.941177%);fill-opacity:1;" d="M 12.25 18.347656 C 16.765625 18.347656 20.65625 19.292969 22.300781 20.640625 C 22.863281 19.675781 23.164062 18.628906 23.164062 17.503906 C 23.164062 13.054688 18.269531 8.953125 12.25 8.953125 C 6.234375 8.953125 1.339844 13.054688 1.339844 17.503906 C 1.339844 18.609375 1.640625 19.675781 2.203125 20.640625 C 3.867188 19.292969 7.757812 18.347656 12.25 18.347656 "/>
</g>
</g>
<g clip-path="url(#clip11)" clip-rule="nonzero">
<g clip-path="url(#clip12)" clip-rule="nonzero">
<path style=" stroke:none;fill-rule:nonzero;fill:rgb(69.01961%,89.019608%,92.941177%);fill-opacity:1;" d="M 12.25 18.386719 C 16.765625 18.386719 20.636719 19.332031 22.28125 20.660156 C 22.84375 19.714844 23.144531 18.648438 23.144531 17.542969 C 23.144531 13.136719 18.269531 9.054688 12.25 9.054688 C 6.253906 9.054688 1.359375 13.136719 1.359375 17.542969 C 1.359375 18.648438 1.660156 19.695312 2.222656 20.660156 C 3.886719 19.3125 7.757812 18.386719 12.25 18.386719 "/>
<path style=" stroke:none;fill-rule:nonzero;fill:rgb(70.980394%,89.019608%,92.941177%);fill-opacity:1;" d="M 12.25 18.40625 C 16.765625 18.40625 20.617188 19.332031 22.28125 20.660156 C 22.84375 19.714844 23.144531 18.667969 23.144531 17.582031 C 23.144531 13.195312 18.269531 9.152344 12.25 9.152344 C 6.253906 9.152344 1.378906 13.21875 1.378906 17.582031 C 1.378906 18.6875 1.679688 19.734375 2.242188 20.679688 C 3.886719 19.351562 7.757812 18.40625 12.25 18.40625 "/>
<path style=" stroke:none;fill-rule:nonzero;fill:rgb(72.941178%,89.803922%,94.117647%);fill-opacity:1;" d="M 12.25 18.449219 C 16.746094 18.449219 20.617188 19.371094 22.261719 20.699219 C 22.820312 19.753906 23.121094 18.730469 23.121094 17.644531 C 23.121094 13.296875 18.25 9.253906 12.25 9.253906 C 6.253906 9.253906 1.378906 13.277344 1.378906 17.644531 C 1.378906 18.730469 1.679688 19.773438 2.242188 20.722656 C 3.90625 19.371094 7.777344 18.449219 12.25 18.449219 "/>
<path style=" stroke:none;fill-rule:nonzero;fill:rgb(74.901962%,90.980393%,94.901961%);fill-opacity:1;" d="M 12.25 18.46875 C 16.746094 18.46875 20.597656 19.394531 22.242188 20.699219 C 22.800781 19.773438 23.101562 18.75 23.101562 17.664062 C 23.101562 13.335938 18.25 9.335938 12.25 9.335938 C 6.273438 9.335938 1.402344 13.335938 1.402344 17.664062 C 1.402344 18.75 1.703125 19.773438 2.261719 20.699219 C 3.929688 19.394531 7.777344 18.46875 12.25 18.46875 "/>
<path style=" stroke:none;fill-rule:nonzero;fill:rgb(76.862746%,90.980393%,94.901961%);fill-opacity:1;" d="M 12.25 18.488281 C 16.746094 18.488281 20.597656 19.414062 22.21875 20.699219 C 22.78125 19.773438 23.082031 18.75 23.082031 17.683594 C 23.082031 13.398438 18.230469 9.414062 12.25 9.414062 C 6.273438 9.414062 1.421875 13.398438 1.421875 17.683594 C 1.421875 18.769531 1.722656 19.773438 2.285156 20.699219 C 3.929688 19.414062 7.777344 18.488281 12.25 18.488281 "/>
<path style=" stroke:none;fill-rule:nonzero;fill:rgb(78.823531%,92.156863%,94.901961%);fill-opacity:1;" d="M 12.25 18.527344 C 16.746094 18.527344 20.574219 19.433594 22.21875 20.722656 C 22.78125 19.796875 23.082031 18.789062 23.082031 17.722656 C 23.082031 13.457031 18.230469 9.515625 12.25 9.515625 C 6.292969 9.515625 1.441406 13.457031 1.441406 17.722656 C 1.441406 18.789062 1.742188 19.796875 2.304688 20.722656 C 3.949219 19.433594 7.800781 18.527344 12.25 18.527344 "/>
<path style=" stroke:none;fill-rule:nonzero;fill:rgb(81.176472%,92.941177%,96.078432%);fill-opacity:1;" d="M 12.25 18.546875 C 16.726562 18.546875 20.574219 19.453125 22.199219 20.722656 C 22.742188 19.816406 23.0625 18.808594 23.0625 17.742188 C 23.0625 13.519531 18.230469 9.597656 12.25 9.597656 C 6.292969 9.597656 1.460938 13.519531 1.460938 17.742188 C 1.460938 18.808594 1.761719 19.816406 2.324219 20.722656 C 3.949219 19.453125 7.800781 18.546875 12.25 18.546875 "/>
<path style=" stroke:none;fill-rule:nonzero;fill:rgb(83.137256%,94.117647%,96.078432%);fill-opacity:1;" d="M 12.25 18.589844 C 16.726562 18.589844 20.554688 19.472656 22.179688 20.742188 C 22.722656 19.835938 23.042969 18.851562 23.042969 17.785156 C 23.042969 13.578125 18.207031 9.695312 12.25 9.695312 C 6.292969 9.695312 1.460938 13.597656 1.460938 17.785156 C 1.460938 18.828125 1.761719 19.835938 2.304688 20.742188 C 3.96875 19.472656 7.800781 18.589844 12.25 18.589844 "/>
<path style=" stroke:none;fill-rule:nonzero;fill:rgb(85.09804%,94.901961%,96.078432%);fill-opacity:1;" d="M 12.25 18.609375 C 16.726562 18.609375 20.535156 19.492188 22.179688 20.761719 C 22.722656 19.855469 23.042969 18.871094 23.042969 17.824219 C 23.042969 13.660156 18.207031 9.796875 12.273438 9.796875 C 6.335938 9.796875 1.5 13.679688 1.5 17.824219 C 1.5 18.871094 1.800781 19.855469 2.363281 20.761719 C 3.96875 19.492188 7.800781 18.609375 12.25 18.609375 "/>
<path style=" stroke:none;fill-rule:nonzero;fill:rgb(87.058824%,94.901961%,96.862745%);fill-opacity:1;" d="M 12.25 18.648438 C 16.703125 18.648438 20.535156 19.535156 22.160156 20.78125 C 22.703125 19.894531 23.023438 18.910156 23.023438 17.882812 C 23.023438 13.761719 18.207031 9.917969 12.25 9.917969 C 6.316406 9.917969 1.5 13.761719 1.5 17.882812 C 1.5 18.929688 1.800781 19.894531 2.34375 20.800781 C 3.988281 19.515625 7.820312 18.648438 12.25 18.648438 "/>
</g>
</g>
<g clip-path="url(#clip13)" clip-rule="nonzero">
<g clip-path="url(#clip14)" clip-rule="nonzero">
<path style=" stroke:none;fill-rule:nonzero;fill:rgb(89.803922%,96.078432%,98.039216%);fill-opacity:1;" d="M 12.25 18.667969 C 16.703125 18.667969 20.515625 19.535156 22.140625 20.78125 C 22.683594 19.894531 22.984375 18.929688 22.984375 17.90625 C 22.984375 13.800781 18.167969 9.976562 12.230469 9.976562 C 6.316406 9.976562 1.5 13.800781 1.5 17.882812 C 1.5 18.910156 1.800781 19.894531 2.34375 20.78125 C 3.988281 19.554688 7.820312 18.667969 12.25 18.667969 "/>
</g>
</g>
<g clip-path="url(#clip15)" clip-rule="nonzero">
<g clip-path="url(#clip16)" clip-rule="nonzero">
<path style=" stroke:none;fill-rule:nonzero;fill:rgb(92.156863%,96.862745%,98.039216%);fill-opacity:1;" d="M 12.25 18.710938 C 16.703125 18.710938 20.515625 19.574219 22.140625 20.800781 C 22.683594 19.917969 22.984375 18.949219 22.984375 17.945312 C 22.984375 13.882812 18.167969 10.078125 12.25 10.078125 C 6.335938 10.078125 1.519531 13.882812 1.519531 17.945312 C 1.519531 18.96875 1.820312 19.9375 2.363281 20.800781 C 4.007812 19.574219 7.820312 18.710938 12.25 18.710938 "/>
<path style=" stroke:none;fill-rule:nonzero;fill:rgb(94.117647%,98.039216%,98.823529%);fill-opacity:1;" d="M 12.25 18.730469 C 16.683594 18.730469 20.496094 19.59375 22.121094 20.800781 C 22.660156 19.9375 22.960938 18.96875 22.960938 17.964844 C 22.960938 13.921875 18.167969 10.160156 12.25 10.160156 C 6.335938 10.160156 1.542969 13.921875 1.542969 17.964844 C 1.542969 18.96875 1.84375 19.9375 2.382812 20.800781 C 4.027344 19.59375 7.839844 18.730469 12.25 18.730469 "/>
<path style=" stroke:none;fill-rule:nonzero;fill:rgb(96.078432%,98.039216%,98.823529%);fill-opacity:1;" d="M 12.25 18.75 C 16.683594 18.75 20.496094 19.59375 22.101562 20.800781 C 22.640625 19.9375 22.941406 18.992188 22.941406 17.984375 C 22.941406 13.980469 18.148438 10.238281 12.230469 10.238281 C 6.335938 10.238281 1.542969 13.980469 1.542969 17.984375 C 1.542969 18.992188 1.84375 19.9375 2.382812 20.800781 C 4.027344 19.613281 7.839844 18.75 12.25 18.75 "/>
<path style=" stroke:none;fill-rule:nonzero;fill:rgb(98.039216%,98.823529%,100%);fill-opacity:1;" d="M 12.25 18.789062 C 16.683594 18.789062 20.476562 19.632812 22.101562 20.839844 C 22.640625 19.976562 22.941406 19.050781 22.941406 18.046875 C 22.941406 14.082031 18.148438 10.359375 12.25 10.359375 C 6.355469 10.359375 1.582031 14.082031 1.582031 18.046875 C 1.582031 19.050781 1.882812 19.976562 2.421875 20.839844 C 4.046875 19.632812 7.839844 18.789062 12.25 18.789062 "/>
<path style=" stroke:none;fill-rule:nonzero;fill:rgb(100%,100%,100%);fill-opacity:1;" d="M 12.25 18.808594 C 16.664062 18.808594 20.457031 19.65625 22.078125 20.839844 C 22.621094 19.996094 22.921875 19.050781 22.921875 18.066406 C 22.921875 14.121094 18.148438 10.441406 12.25 10.441406 C 6.375 10.441406 1.582031 14.140625 1.582031 18.066406 C 1.582031 19.050781 1.882812 19.996094 2.421875 20.839844 C 4.046875 19.65625 7.859375 18.808594 12.25 18.808594 "/>
</g>
</g>
<path style=" stroke:none;fill-rule:nonzero;fill:rgb(3.137255%,41.176471%,67.058825%);fill-opacity:1;" d="M 12.210938 14.886719 C 8.339844 14.886719 4.75 15.550781 1.800781 16.65625 C 3.585938 20.640625 7.578125 23.4375 12.210938 23.4375 C 16.84375 23.4375 20.835938 20.660156 22.621094 16.65625 C 19.652344 15.550781 16.0625 14.886719 12.210938 14.886719 "/>
<path style=" stroke:none;fill-rule:nonzero;fill:rgb(0%,38.431373%,67.450982%);fill-opacity:1;" d="M 146.617188 18.507812 C 145.371094 18.507812 144.167969 18.507812 142.964844 18.507812 C 142.867188 18.507812 142.746094 18.367188 142.707031 18.265625 C 142.023438 16.617188 141.339844 14.945312 140.679688 13.296875 C 140.640625 13.195312 140.597656 13.117188 140.519531 12.957031 C 139.996094 13.480469 139.476562 13.960938 139.015625 14.484375 C 138.855469 14.664062 138.875 14.988281 138.8125 15.230469 C 138.613281 16.234375 138.433594 17.261719 138.210938 18.265625 C 138.191406 18.367188 138.070312 18.488281 137.992188 18.488281 C 136.910156 18.507812 135.824219 18.488281 134.683594 18.488281 C 134.800781 17.863281 134.902344 17.28125 135.023438 16.675781 C 135.785156 12.792969 136.546875 8.910156 137.289062 5.03125 C 137.328125 4.789062 137.410156 4.726562 137.652344 4.726562 C 138.59375 4.746094 139.554688 4.726562 140.5 4.726562 C 140.597656 4.726562 140.679688 4.726562 140.820312 4.746094 C 140.5 6.378906 140.179688 7.988281 139.835938 9.675781 C 139.976562 9.535156 140.078125 9.457031 140.15625 9.375 C 141.621094 7.90625 143.085938 6.4375 144.550781 4.949219 C 144.710938 4.789062 144.871094 4.726562 145.113281 4.726562 C 146.214844 4.746094 147.296875 4.726562 148.402344 4.726562 C 148.5 4.726562 148.601562 4.726562 148.703125 4.746094 C 148.722656 4.789062 148.761719 4.828125 148.78125 4.867188 C 148.683594 4.929688 148.5625 4.96875 148.480469 5.050781 C 146.777344 6.71875 145.070312 8.410156 143.347656 10.078125 C 143.144531 10.261719 143.125 10.421875 143.246094 10.640625 C 144.308594 13.136719 145.371094 15.632812 146.414062 18.125 C 146.515625 18.246094 146.554688 18.367188 146.617188 18.507812 "/>
<path style=" stroke:none;fill-rule:nonzero;fill:rgb(0%,38.431373%,67.450982%);fill-opacity:1;" d="M 132.496094 18.507812 C 131.351562 18.507812 130.25 18.507812 129.125 18.507812 C 128.90625 18.507812 128.90625 18.367188 128.84375 18.226562 C 128.003906 15.851562 127.160156 13.480469 126.316406 11.105469 C 126.238281 10.882812 126.15625 10.683594 126.015625 10.480469 C 125.496094 13.15625 124.972656 15.8125 124.453125 18.488281 L 120.984375 18.488281 C 121.203125 17.421875 121.402344 16.375 121.605469 15.308594 C 122.265625 11.890625 122.949219 8.46875 123.609375 5.050781 C 123.652344 4.789062 123.769531 4.726562 124.011719 4.726562 C 124.972656 4.746094 125.9375 4.746094 126.878906 4.726562 C 127.121094 4.726562 127.222656 4.808594 127.300781 5.03125 C 128.164062 7.503906 129.027344 9.976562 129.910156 12.453125 C 129.949219 12.554688 129.988281 12.675781 130.070312 12.855469 C 130.210938 12.171875 130.328125 11.566406 130.449219 10.964844 C 130.832031 8.972656 131.230469 7 131.613281 5.007812 C 131.632812 4.847656 131.671875 4.726562 131.875 4.746094 C 132.917969 4.746094 133.941406 4.746094 134.984375 4.746094 C 135.023438 4.746094 135.0625 4.769531 135.144531 4.769531 C 134.28125 9.355469 133.398438 13.921875 132.496094 18.507812 "/>
<path style=" stroke:none;fill-rule:nonzero;fill:rgb(0%,38.431373%,67.450982%);fill-opacity:1;" d="M 115.726562 12.894531 C 115.628906 11.40625 115.527344 9.917969 115.425781 8.429688 C 115.40625 8.429688 115.367188 8.429688 115.347656 8.429688 C 114.664062 9.898438 113.984375 11.386719 113.28125 12.894531 Z M 118.214844 4.769531 C 118.757812 9.355469 119.296875 13.902344 119.839844 18.488281 L 116.109375 18.488281 C 116.027344 17.582031 115.96875 16.675781 115.886719 15.730469 L 115.527344 15.730469 C 114.464844 15.730469 113.421875 15.75 112.359375 15.730469 C 112.058594 15.730469 111.9375 15.832031 111.816406 16.09375 C 111.496094 16.839844 111.15625 17.582031 110.8125 18.308594 C 110.773438 18.386719 110.671875 18.527344 110.59375 18.527344 C 109.410156 18.546875 108.226562 18.527344 107.023438 18.527344 C 107.082031 18.40625 107.125 18.308594 107.164062 18.207031 C 109.390625 13.820312 111.636719 9.457031 113.863281 5.070312 C 113.984375 4.847656 114.082031 4.769531 114.34375 4.769531 C 115.527344 4.789062 116.710938 4.769531 117.894531 4.769531 Z M 118.214844 4.769531 "/>
<path style=" stroke:none;fill-rule:nonzero;fill:rgb(0%,38.431373%,67.450982%);fill-opacity:1;" d="M 100.824219 10.078125 C 101.507812 10.078125 102.167969 10.117188 102.832031 10.058594 C 103.171875 10.019531 103.554688 9.835938 103.8125 9.617188 C 104.253906 9.253906 104.414062 8.730469 104.234375 8.1875 C 104.054688 7.664062 103.554688 7.605469 103.070312 7.585938 C 102.570312 7.5625 102.050781 7.585938 101.546875 7.5625 C 101.386719 7.5625 101.285156 7.605469 101.265625 7.765625 C 101.125 8.550781 100.964844 9.3125 100.824219 10.078125 M 99.722656 15.691406 C 99.800781 15.710938 99.863281 15.710938 99.921875 15.710938 C 100.542969 15.710938 101.1875 15.710938 101.808594 15.691406 C 101.988281 15.691406 102.1875 15.652344 102.371094 15.609375 C 103.230469 15.390625 103.734375 14.6875 103.695312 13.800781 C 103.671875 13.378906 103.492188 13.078125 103.09375 12.914062 C 102.871094 12.835938 102.628906 12.753906 102.390625 12.753906 C 101.769531 12.734375 101.144531 12.734375 100.542969 12.734375 C 100.34375 12.734375 100.285156 12.816406 100.265625 12.976562 C 100.144531 13.640625 100.003906 14.324219 99.882812 14.988281 C 99.800781 15.207031 99.761719 15.429688 99.722656 15.691406 M 105.417969 11.003906 C 105.457031 11.042969 105.480469 11.066406 105.519531 11.066406 C 106.722656 11.507812 107.425781 12.835938 107.125 14.324219 C 106.800781 15.871094 106.039062 17.101562 104.574219 17.824219 C 103.695312 18.265625 102.730469 18.46875 101.746094 18.488281 C 99.78125 18.527344 97.816406 18.507812 95.871094 18.507812 C 95.832031 18.507812 95.789062 18.488281 95.730469 18.488281 C 95.910156 17.5625 96.089844 16.636719 96.273438 15.730469 C 96.972656 12.171875 97.65625 8.628906 98.359375 5.070312 C 98.398438 4.867188 98.417969 4.746094 98.679688 4.746094 C 100.484375 4.769531 102.308594 4.769531 104.113281 4.769531 C 104.898438 4.769531 105.640625 4.886719 106.359375 5.191406 C 107.464844 5.671875 107.964844 6.617188 107.804688 7.867188 C 107.625 9.273438 106.921875 10.300781 105.597656 10.902344 C 105.519531 10.921875 105.480469 10.964844 105.417969 11.003906 "/>
<path style=" stroke:none;fill-rule:nonzero;fill:rgb(0%,38.431373%,67.450982%);fill-opacity:1;" d="M 86.566406 3.964844 L 83.777344 18.347656 L 87.609375 18.347656 L 90.394531 3.964844 Z M 86.566406 3.964844 "/>
<path style=" stroke:none;fill-rule:nonzero;fill:rgb(0%,38.431373%,67.450982%);fill-opacity:1;" d="M 77.757812 6.617188 C 78.703125 6.617188 80.929688 5.875 80.527344 8.488281 C 80.144531 11.105469 76.957031 10.761719 76.957031 10.761719 Z M 80.96875 12.652344 C 82.734375 11.667969 83.898438 9.757812 83.898438 7.28125 C 83.898438 3.621094 79.484375 3.964844 79.484375 3.964844 L 74.910156 3.964844 L 71.863281 18.285156 L 75.273438 18.285156 L 76.273438 13.398438 L 77.597656 13.398438 C 78.019531 13.480469 78.5625 13.71875 78.640625 14.523438 C 78.78125 15.8125 78.984375 18.367188 78.984375 18.367188 L 82.414062 18.367188 C 82.414062 18.367188 82.113281 14.867188 82.03125 14.34375 C 81.953125 13.800781 81.769531 13.054688 80.96875 12.652344 "/>
<path style=" stroke:none;fill-rule:nonzero;fill:rgb(0%,38.431373%,67.450982%);fill-opacity:1;" d="M 51.503906 15.730469 C 51.003906 15.730469 50.640625 15.589844 50.402344 15.308594 C 50.039062 14.867188 49.71875 13.820312 50.199219 11.285156 C 50.820312 8.128906 51.90625 6.597656 53.53125 6.597656 C 54.03125 6.597656 54.390625 6.738281 54.632812 7.019531 C 54.996094 7.464844 55.335938 8.507812 54.832031 11.042969 C 54.210938 14.203125 53.128906 15.730469 51.503906 15.730469 M 53.832031 3.761719 C 49.859375 3.761719 47.371094 6.214844 46.429688 11.042969 C 45.886719 13.820312 46.148438 15.773438 47.191406 17.039062 C 48.035156 18.046875 49.378906 18.566406 51.183594 18.566406 C 55.15625 18.566406 57.640625 16.113281 58.585938 11.285156 C 59.125 8.53125 58.867188 6.558594 57.824219 5.289062 C 56.980469 4.285156 55.636719 3.761719 53.832031 3.761719 "/>
<path style=" stroke:none;fill-rule:nonzero;fill:rgb(0%,38.431373%,67.450982%);fill-opacity:1;" d="M 64.660156 15.730469 C 64.160156 15.730469 63.800781 15.589844 63.558594 15.308594 C 63.199219 14.867188 62.875 13.820312 63.359375 11.285156 C 63.960938 8.128906 65.0625 6.597656 66.667969 6.597656 C 67.167969 6.597656 67.53125 6.738281 67.769531 7.019531 C 68.132812 7.464844 68.472656 8.507812 67.972656 11.042969 C 67.371094 14.203125 66.285156 15.730469 64.660156 15.730469 M 66.988281 3.761719 C 63.015625 3.761719 60.53125 6.214844 59.585938 11.042969 C 59.046875 13.820312 59.304688 15.773438 60.347656 17.039062 C 61.191406 18.046875 62.535156 18.566406 64.339844 18.566406 C 68.3125 18.566406 70.800781 16.113281 71.742188 11.285156 C 72.285156 8.53125 72.023438 6.558594 70.980469 5.289062 C 70.136719 4.285156 68.792969 3.761719 66.988281 3.761719 "/>
<path style=" stroke:none;fill-rule:nonzero;fill:rgb(0%,38.431373%,67.450982%);fill-opacity:1;" d="M 43.863281 3.964844 L 40.714844 12.109375 L 39.429688 3.964844 L 36.660156 3.964844 L 32.269531 12.050781 L 32.269531 3.964844 L 28.960938 3.964844 L 28.960938 18.347656 L 32.347656 18.347656 L 36.984375 9.898438 L 38.367188 18.347656 L 41.714844 18.347656 L 47.3125 3.964844 Z M 43.863281 3.964844 "/>
</g>
</svg>
