<?xml version="1.0" encoding="UTF-8"?>
<svg id="Layer_2" data-name="Layer 2" xmlns="http://www.w3.org/2000/svg" viewBox="0 0 531.86 59.9">
  <defs>
    
  </defs>
  <g id="Capa_1" data-name="Capa 1">
    <g>
      <path d="M148.39,35.77v-.13c6.99-.83,11.62-5.28,11.62-11.24,0-8.38-7.94-10.16-12.51-10.16h-19.69l-9.27,44.32,20.2-.25c10.16-.12,18.23-4.58,18.23-13.97,0-4.89-3.49-7.81-8.57-8.57h0ZM517.5,24.71c-5.15,0-8.76.76-12.13,1.91l-1.14,8.33c3.81-1.98,6.61-2.61,10.74-2.61,3.75,0,6.09,1.92,6.09,4.26,0,.45,0,.88-.12,1.33-1.59-.13-3.88-.31-6.16-.31-10.1,0-18.24,4-18.24,12.13,0,6.41,3.95,9.59,11.06,9.59,4.45,0,8.7-1.59,11.12-5.4v-.12l.12.12-.51,4.64h9.34c1.27-9.98,4.2-17.41,4.2-22.61,0-8.13-6.48-11.25-14.36-11.25h0ZM511.22,51.71c-2.42,0-3.88-1.79-3.88-3.3,0-2.91,4.01-4.88,9.47-4.7.7,0,2.09,0,3.05.19-.82,4.45-3.74,7.81-8.63,7.81h0ZM488.68,33.1c-5.91,0-10.11,3.82-10.11,10.68,0,3.94,3.05,7.18,7.88,7.18,2.85,0,4.89-.45,7.37-1.46l-1.66,8.57c-2.28.76-5.33,1.27-9.78,1.27-9.66,0-15.63-6.8-15.63-15.11,0-10.87,8.64-19.5,21.35-19.5,2.79,0,7.05.82,10.41,2.22l-2.47,7.94c-2.35-1.08-4.83-1.78-7.37-1.78h0ZM448.73,24.72c-14.74,0-19.82,11.81-19.82,19.5,0,8.32,5.97,15.11,17.02,15.11,3.3,0,7.56-.64,11.57-1.84l1.46-8.07c-3.18,1.53-7.31,2.29-10.35,2.29-6.99,0-8.76-2.79-8.9-6.35h23.44c.45-1.96.83-4.89.83-6.23,0-10.03-6.54-14.41-15.24-14.41h0ZM440.4,38.89c.83-3.18,3.49-6.55,8.45-6.55,4.19,0,5.59,2.99,5.59,6.55h-14.04ZM420.34,33.49l-1.98,9.2c-.51,2.48-.94,4.13-.94,5.72,0,2.22,1.46,3.68,3.74,3.68,1.21,0,2.48-.5,3.69-.95l-1.28,7.56c-2.42.38-4.83.64-7.11.64-5.84,0-10.48-2.86-10.48-9.78,0-1.65.26-3.3,1.02-6.8l1.97-9.27h-6.1l1.4-8h6.54l1.59-7.11,12.07-3.25-2.29,10.36h7.88l-1.39,8h-8.32ZM372.83,33.86h14.16l-18.04,16.06-1.65,8.65h28.77l1.72-8.39h-15.12l18.17-16.06,1.77-8.64h-28.07l-1.72,8.38h0ZM344.12,14.23l-26.36,44.34h12.84l5.26-9.47h17.22l1.2,9.47h11.94l-7.24-44.34h-14.87ZM340.51,40.72l9.4-17.33h.13l1.91,17.33h-11.43ZM289.89,24.71c-12.96,0-21.35,7.88-21.35,19.51,0,8.32,4.96,15.11,17.22,15.11s21.34-6.04,21.34-19.82c0-8.32-5.97-14.8-17.21-14.8h0ZM286.59,51.33c-3.88.07-6.23-2.92-6.23-7.37,0-5.28,3.43-11.24,8.96-11.24,4.44,0,5.97,3.24,5.97,6.65,0,7.5-3.36,11.95-8.69,11.95h0ZM260.29,33.1c-5.91,0-10.1,3.82-10.1,10.68,0,3.94,3.05,7.18,7.88,7.18,2.85,0,4.89-.45,7.37-1.46l-1.65,8.57c-2.29.76-5.34,1.27-9.78,1.27-9.66,0-15.63-6.8-15.63-15.11,0-10.87,8.65-19.5,21.35-19.5,2.79,0,7.05.82,10.41,2.22l-2.48,7.94c-2.36-1.08-4.83-1.78-7.37-1.78h0ZM225.18,24.71c-6.04,0-9.47,2.48-12.77,6.16h-.13l.89-5.39h-10.61c-.32,2.98-.83,5.78-1.4,8.64l-5.14,24.45h11.43l3.24-15.24c.82-4.89,3.68-9.09,8.51-9.09,3.18-.12,4.44,1.84,4.44,3.81,0,1.72-.44,3.37-.76,5.02l-3.17,15.5h11.81l3.05-15.44c.7-3.49.89-4.77.89-6.99,0-6.48-3.62-11.44-10.28-11.44h0ZM180.33,24.71c7.88,0,14.36,3.12,14.36,11.25,0,5.2-2.93,12.64-4.2,22.61h-9.33l.51-4.64-.13-.12v.12c-2.42,3.82-6.67,5.4-11.12,5.4-7.11,0-11.06-3.18-11.06-9.59,0-8.14,8.14-12.13,18.24-12.13,2.28,0,4.57.18,6.16.31.12-.45.12-.88.12-1.33,0-2.35-2.35-4.26-6.1-4.26-4.12,0-6.92.63-10.73,2.61l1.14-8.33c3.37-1.15,6.99-1.91,12.13-1.91h0ZM174.05,51.71c4.89,0,7.81-3.36,8.63-7.81-.95-.19-2.35-.19-3.05-.19-5.46-.18-9.46,1.79-9.46,4.7,0,1.52,1.46,3.3,3.88,3.3h0ZM135.18,50.18h-3.17l2.16-10.41h2.86c5.33,0,8.13.58,8.13,4.45,0,4.31-4.01,5.96-9.97,5.96h0ZM140.32,31.77h-4.44l1.91-9.14h3.05c4.44,0,7.36.57,7.36,4.13,0,3.05-2.92,5.01-7.88,5.01Z" fill="#6e6f77"/>
      <path d="M52.41,21.2c-9.44,0-17.11,7.66-17.11,17.12s7.67,17.12,17.11,17.12,17.12-7.66,17.12-17.12-7.66-17.12-17.12-17.12Z" fill="#b62c25"/>
      <path d="M61.31,3.75s-.42-.13-1.15-.33c3.95-1.18,8.92-2.46,14.43-3.42-7.72,0-14.29.39-19.86,1.25-.8.13-1.58.26-2.33.4-.75-.14-1.53-.27-2.33-.4-5.57-.86-12.13-1.25-19.86-1.25,5.51.96,10.48,2.24,14.43,3.41-.73.2-1.15.33-1.15.33C17.94,11.75-1.31,29.26.07,43.61c1.15,11.91,13.29,17.95,33.09,15.89-11.01-1.99-15.52-7.56-16.34-16-1.25-12.92,13.39-28.19,34.18-36.97,0,0,.51-.21,1.41-.54.9.34,1.41.54,1.41.54,20.79,8.78,35.42,24.05,34.18,36.97-.81,8.43-5.33,14-16.34,16,19.79,2.06,31.95-3.98,33.09-15.89,1.39-14.35-17.88-31.86-43.44-39.87Z" fill-rule="evenodd"/>
    </g>
  </g>
</svg>