<svg width="101" height="40" viewBox="0 0 101 40" fill="none" xmlns="http://www.w3.org/2000/svg">
<g clip-path="url(#clip0_397_2344)">
<path d="M50.5002 8.90344C46.5215 8.90344 43.291 12.1454 43.291 16.1382C43.291 20.1311 46.5215 23.373 50.5002 23.373C54.4789 23.373 57.7094 20.1311 57.7094 16.1382C57.7094 12.1454 54.4789 8.90344 50.5002 8.90344Z" fill="white"/>
<path d="M54.2538 1.58522C54.2538 1.58522 54.0757 1.52563 53.7669 1.44219C55.4296 0.941597 57.5318 0.405244 59.8478 0C56.5935 0 53.8263 0.166865 51.4747 0.524434C51.1421 0.57211 50.8096 0.631704 50.4889 0.691299C50.1801 0.631704 49.8475 0.57211 49.5031 0.524434C47.1515 0.154946 44.3961 0 41.1419 0C43.4578 0.405244 45.56 0.941597 47.2228 1.44219C46.914 1.52563 46.7358 1.58522 46.7358 1.58522C35.9636 4.9702 27.8518 12.3719 28.4337 18.4386C28.9207 23.4803 34.0396 26.031 42.3771 25.1609C37.7332 24.3147 35.833 21.9666 35.4885 18.4029C34.966 12.944 41.13 6.48391 49.8951 2.7652C49.8951 2.7652 50.1088 2.68176 50.4889 2.53874C50.8689 2.68176 51.0827 2.7652 51.0827 2.7652C59.8359 6.48391 66.0118 12.9321 65.4892 18.4029C65.1448 21.9666 63.2445 24.3266 58.6007 25.1609C66.9382 26.031 72.0571 23.4803 72.544 18.4386C73.126 12.3719 65.0142 4.9702 54.2419 1.58522" fill="white"/>
<path d="M7.29233 34.2193V34.1835C9.00259 33.9809 10.1309 32.8844 10.1309 31.4303C10.1309 29.3802 8.19497 28.9392 7.07855 28.9392H2.26846L0 39.8093L4.94073 39.7497C7.42298 39.7139 9.39452 38.6293 9.39452 36.317C9.39452 35.1132 8.53939 34.3981 7.30421 34.2193M4.06185 37.7473H3.28986L3.81244 35.1967H4.51317C5.81961 35.1967 6.49659 35.3397 6.49659 36.2932C6.49659 37.354 5.5227 37.7592 4.06185 37.7592M5.32079 33.23H4.24L4.7032 30.9893H5.45143C6.53222 30.9893 7.2567 31.1323 7.2567 32.0024C7.2567 32.7533 6.5441 33.23 5.33267 33.23" fill="white"/>
<path d="M15.0956 31.5018C13.8367 31.5018 12.9578 31.6925 12.1264 31.9666L11.8532 34.0048C12.7796 33.5161 13.4685 33.3612 14.478 33.3612C15.3925 33.3612 15.9626 33.826 15.9626 34.41C15.9626 34.5173 15.9626 34.6246 15.927 34.7318C15.535 34.6961 14.9768 34.6603 14.4186 34.6603C11.9483 34.6603 9.96484 35.6377 9.96484 37.6401C9.96484 39.2134 10.9269 39.9881 12.6609 39.9881C13.7417 39.9881 14.7868 39.5948 15.3806 38.6651V38.6293L15.4163 38.6651L15.2975 39.8093H17.5778C17.8866 37.3659 18.5993 35.5423 18.5993 34.267C18.5993 32.2765 17.0196 31.5137 15.0956 31.5137M13.5635 38.1287C12.9697 38.1287 12.6134 37.6877 12.6134 37.3182C12.6134 36.6031 13.5873 36.1264 14.9293 36.1621C15.0956 36.1621 15.44 36.1621 15.6776 36.2098C15.4757 37.3063 14.7631 38.1287 13.5635 38.1287Z" fill="white"/>
<path d="M26.0579 31.5018C24.5851 31.5018 23.7419 32.1097 22.9343 33.0155H22.8986L23.1124 31.6925H20.5233C20.4401 32.4195 20.3214 33.1108 20.1789 33.8141L18.9199 39.8093H21.711L22.5067 36.0667C22.7086 34.8629 23.4093 33.8379 24.5851 33.8379C25.3571 33.8021 25.6659 34.2908 25.6659 34.7676C25.6659 35.1847 25.559 35.59 25.4759 35.9952L24.7039 39.7974H27.59L28.3382 36.0071C28.5045 35.149 28.552 34.8391 28.552 34.2908C28.552 32.7056 27.6731 31.4899 26.0341 31.4899" fill="white"/>
<path d="M34.6453 33.5638C35.2629 33.5638 35.8686 33.7306 36.4506 34.0048L37.0563 32.062C36.2368 31.7163 35.1917 31.5137 34.5147 31.5137C31.4148 31.5137 29.3008 33.6353 29.3008 36.2932C29.3008 38.3313 30.7616 40 33.1251 40C34.2059 40 34.9541 39.8689 35.5123 39.6901L35.9161 37.5924C35.3104 37.8427 34.8116 37.9499 34.1109 37.9499C32.9351 37.9499 32.1868 37.1514 32.1868 36.1859C32.1868 34.5054 33.2082 33.5638 34.6572 33.5638" fill="white"/>
<path d="M41.8662 31.5018C38.6951 31.5018 36.6523 33.4327 36.6523 36.2813C36.6523 38.3194 37.8638 39.9881 40.8567 39.9881C43.8497 39.9881 46.0706 38.5101 46.0706 35.1252C46.0706 33.087 44.6098 31.5018 41.8662 31.5018ZM41.0705 38.0334C40.1204 38.0453 39.5503 37.3182 39.5503 36.2217C39.5503 34.9225 40.3935 33.4684 41.7356 33.4684C42.8164 33.4684 43.1964 34.267 43.1964 35.1013C43.1964 36.9368 42.3769 38.0334 41.0705 38.0334Z" fill="white"/>
<path d="M55.1208 28.9392L48.6836 39.8093H51.8191L53.1017 37.4851H57.3061L57.603 39.8093H60.5247L58.7551 28.9392H55.1208ZM54.2419 35.435L56.5341 31.18H56.5698L57.033 35.435H54.2419Z" fill="white"/>
<path d="M62.1391 33.7545H65.5952L61.189 37.6877L60.7852 39.8093H67.8162L68.2438 37.7473H64.5501L68.9801 33.8141L69.4196 31.6925H62.5548L62.1391 33.7545Z" fill="white"/>
<path d="M73.7424 33.6591H75.7734L76.1178 31.6925H74.1937L74.752 29.1537L71.8065 29.9523L71.4146 31.6925H69.8112L69.4668 33.6591H70.9633L70.4763 35.9356C70.2863 36.7938 70.2269 37.199 70.2269 37.6043C70.2269 39.2968 71.3671 40 72.7923 40C73.3505 40 73.9443 39.9404 74.5263 39.845L74.8351 37.9976C74.5382 38.1049 74.2294 38.236 73.9325 38.236C73.3743 38.236 73.0179 37.8784 73.0179 37.3301C73.0179 36.9368 73.1248 36.5316 73.2436 35.9237L73.7306 33.671L73.7424 33.6591Z" fill="white"/>
<path d="M80.6914 31.5137C77.0928 31.5137 75.8457 34.41 75.8457 36.2932C75.8457 38.3313 77.3065 40 80.0026 40C80.8102 40 81.8435 39.845 82.8292 39.5471L83.1855 37.5685C82.4136 37.938 81.404 38.1287 80.6558 38.1287C78.9455 38.1287 78.518 37.4493 78.4823 36.5673H84.2069C84.3138 36.0906 84.4088 35.3635 84.4088 35.0417C84.4088 32.5864 82.8055 31.5137 80.6914 31.5137ZM78.6486 34.9821C78.8505 34.2074 79.5037 33.3731 80.7152 33.3731C81.7366 33.3731 82.081 34.112 82.081 34.9821H78.6486Z" fill="white"/>
<path d="M90.4422 33.5638C91.0598 33.5638 91.6655 33.7306 92.2475 34.0048L92.8532 32.062C92.0337 31.7163 90.9885 31.5137 90.3116 31.5137C87.2117 31.5137 85.0977 33.6353 85.0977 36.2932C85.0977 38.3313 86.5585 40 88.9101 40C89.9909 40 90.7391 39.8689 91.2973 39.6901L91.7011 37.5924C91.0954 37.8427 90.5966 37.9499 89.8959 37.9499C88.7201 37.9499 87.9718 37.1514 87.9718 36.1859C87.9718 34.5054 88.9932 33.5638 90.4422 33.5638Z" fill="white"/>
<path d="M97.496 31.5018C96.2371 31.5018 95.3582 31.6925 94.5268 31.9666L94.2418 34.0048C95.1682 33.5161 95.857 33.3612 96.8665 33.3612C97.781 33.3612 98.3511 33.826 98.3511 34.41C98.3511 34.5173 98.3511 34.6246 98.3274 34.7318C97.9354 34.6961 97.3772 34.6603 96.819 34.6603C94.3487 34.6603 92.3652 35.6377 92.3652 37.6401C92.3652 39.2134 93.3273 39.9881 95.0731 39.9881C96.1539 39.9881 97.1991 39.5948 97.7929 38.6651V38.6293L97.8286 38.6651L97.7098 39.8093H99.9901C100.299 37.3659 101.012 35.5423 101.012 34.267C101.012 32.2765 99.4319 31.5137 97.5079 31.5137M95.952 38.1287C95.3582 38.1287 95.0019 37.6877 95.0019 37.3182C95.0019 36.6031 95.9758 36.1264 97.3179 36.1621C97.4841 36.1621 97.8285 36.1621 98.0661 36.2098C97.8642 37.3063 97.1516 38.1287 95.952 38.1287Z" fill="white"/>
</g>
<defs>
<clipPath id="clip0_397_2344">
<rect width="101" height="40" fill="white"/>
</clipPath>
</defs>
</svg>
