<?xml version="1.0" encoding="UTF-8" standalone="no"?>
<svg
   version="1.1"
   width="4192.1992"
   height="720"
   id="svg26"
   viewBox="0 0 4192.1992 720.00001"
   sodipodi:docname="logo_bancoppel.svg"
   inkscape:version="1.1 (c68e22c387, 2021-05-23)"
   xmlns:inkscape="http://www.inkscape.org/namespaces/inkscape"
   xmlns:sodipodi="http://sodipodi.sourceforge.net/DTD/sodipodi-0.dtd"
   xmlns="http://www.w3.org/2000/svg"
   xmlns:svg="http://www.w3.org/2000/svg">
  <defs
     id="defs30" />
  <sodipodi:namedview
     id="namedview28"
     pagecolor="#ffffff"
     bordercolor="#666666"
     borderopacity="1.0"
     inkscape:pageshadow="2"
     inkscape:pageopacity="0.0"
     inkscape:pagecheckerboard="0"
     showgrid="false"
     fit-margin-top="0"
     fit-margin-left="0"
     fit-margin-right="0"
     fit-margin-bottom="0"
     inkscape:zoom="0.18854094"
     inkscape:cx="2118.9032"
     inkscape:cy="-2007.5216"
     inkscape:window-width="1920"
     inkscape:window-height="1017"
     inkscape:window-x="-8"
     inkscape:window-y="-8"
     inkscape:window-maximized="1"
     inkscape:current-layer="svg26" />
  <path
     d="M 4252.4706,850.8942 H 0.49990001 V 0.49990001 H 4252.4706 Z"
     style="fill:none;stroke:#1b1918;stroke-width:0.9998;stroke-linecap:butt;stroke-linejoin:miter;stroke-dasharray:none"
     id="path2" />
  <path
     d="m 1170.1735,585.10116 v -0.71427 h 70.3066 v -71.00682 h -70.3066 V 394.79643 h 8.5225 61.7841 v -67.46608 h -70.3066 l 0.7046,-110.05024 h 69.602 V 150.5387 c -2.1319,0 -3.5735,9.6e-4 -4.9675,9.6e-4 l -65.3391,-0.72243 h -68.8628 v 435.28393 z m 70.3066,-0.71427 h 26.974 c 24.1405,0 46.8704,-4.96879 66.7491,-14.90797 19.8804,-9.94768 35.4967,-24.85613 46.8543,-44.04137 12.0793,-19.15545 17.7487,-42.58721 17.7487,-69.57204 -1.4094,-45.4478 -13.4876,-80.25448 -54.6554,-100.8351 14.9139,-11.3557 17.0276,-21.29489 24.1238,-33.37126 6.4088,-12.07654 10.652,-30.5299 10.652,-55.38554 -0.7037,-24.13562 -7.8009,-44.72713 -20.5833,-62.47583 -19.1736,-42.60755 -68.8801,-55.3873 -117.8645,-53.25812 v 66.74045 h 17.0281 c 73.1396,2.13911 74.5645,115.74435 -16.3247,110.0512 l -0.7034,-9.6e-4 v 67.46608 h 16.3215 c 92.3155,-4.26734 100.1158,124.96879 6.3915,118.58364 h -22.713 z"
     style="fill:#3b6cb1;fill-opacity:1;fill-rule:evenodd;stroke-width:1.60185"
     id="path4" />
  <path
     d="m 2681.893,311.72093 h 0.7061 v -69.58294 h -0.7061 c -93.7412,0 -170.407,77.38284 -170.407,171.11997 0,95.1514 76.6646,172.53568 170.4047,172.53568 0.7084,-4.8e-4 0.7052,-0.692 0.7052,-0.692 v -68.88132 c 0,0 0,0 -0.7084,0 -56.0934,0 -100.1158,-46.14925 -100.1158,-102.96236 0,-55.3873 44.0192,-101.53655 100.1181,-101.53703 z m 0.7061,0 c 56.0956,0 100.8336,46.14973 101.5384,101.53703 0,56.81263 -45.4446,102.24168 -101.5416,102.96236 v 68.88084 c 93.723,0 169.6973,-77.41231 169.6973,-171.8432 0,-93.73745 -75.9762,-170.40698 -169.7005,-171.11949 z"
     style="fill:#3b6cb1;fill-opacity:1;fill-rule:evenodd;stroke-width:1.60185"
     id="path6" />
  <path
     d="m 2483.7896,510.53037 h -129.9414 c -76.6803,-4.96062 -129.9594,-73.12783 -125.698,-151.2339 6.4074,-80.24359 58.9476,-132.06645 140.6101,-136.33379 40.4808,-9.6e-4 73.141,-1.4162 115.0293,-1.4162 V 190.2956 149.81723 c -61.0619,1.4335 -128.5327,-2.83208 -170.4211,2.83977 -90.8887,12.07781 -161.1945,121.42709 -161.1945,213.73696 0,120.70289 95.1661,217.27242 210.1789,217.27242 39.0545,-4.8e-4 81.6625,0 121.4367,0 0,-74.54227 0,-48.28933 0,-73.13601 z"
     style="fill:#3b6cb1;fill-opacity:1;fill-rule:evenodd;stroke-width:1.60185"
     id="path8" />
  <path
     d="m 2943.8907,546.04668 0.7393,168.98261 h -64.6377 V 412.55458 c -0.7024,-93.72607 76.6963,-171.13854 171.1259,-171.13854 l 0.7069,-9.6e-4 v 68.16753 c -1.4276,0 -2.821,0 -3.558,0 -58.9132,0 -99.3952,49.71386 -99.3952,107.22986 0,58.93028 41.1998,100.11122 99.3952,100.11122 1.4421,0 2.1299,0 3.5562,0 v 67.4632 c -41.1666,0 -78.7972,-14.90797 -107.9343,-38.34021 z m 107.9344,-304.6316 c 94.4291,0 171.14,77.41343 171.14,171.1395 5e-4,94.43089 -76.7128,171.83279 -171.1418,171.83279 v -67.46368 c 56.8018,-1.42437 101.5395,-50.41659 102.9815,-104.36911 1.3953,-53.9711 -46.1815,-100.83317 -102.9832,-102.97197 z"
     style="fill:#3b6cb1;fill-opacity:1;fill-rule:evenodd;stroke-width:1.60185"
     id="path10" />
  <path
     d="m 3314.5439,546.04668 0.7206,168.98261 h -64.6189 V 412.55458 c 0,-93.72607 76.6968,-171.13854 171.1252,-171.13854 l 0.7071,-9.6e-4 v 68.16753 c -1.3949,0 -2.1324,0 -3.5417,0 -58.9473,0 -99.3953,49.71386 -99.3953,107.22986 0,58.93028 41.1836,100.11122 99.3953,100.11122 1.4116,0 2.1463,0 3.5398,0 v 67.4632 c -41.1669,0 -78.108,-14.90797 -107.9341,-38.34021 z m 107.934,-304.6316 c 94.4295,0 171.1403,77.41343 171.1403,171.1395 0,94.43089 -76.7126,171.83279 -171.1422,171.83279 v -67.46368 c 56.8017,-1.42437 102.9814,-46.85262 102.9814,-104.36911 5e-4,-56.8208 -46.1816,-100.83317 -102.9833,-102.97197 z"
     style="fill:#3b6cb1;fill-opacity:1;fill-rule:evenodd;stroke-width:1.60185"
     id="path12" />
  <path
     d="m 3694.4234,459.39904 63.2245,-63.89972 v 98.70688 l -11.3712,11.36355 c -1.4271,0.71235 2.8492,4.24636 11.3712,7.81032 v 66.7414 c -79.5298,-18.45335 -139.1848,-83.7784 -139.1848,-166.86351 -2.1274,-81.65018 58.9322,-151.24208 139.1848,-168.27972 V 315.274 c -42.6231,13.49225 -73.8612,51.11996 -73.8612,97.98396 0,18.45159 2.1302,30.52973 10.6367,46.14108 z m 63.2245,120.72243 v -66.7414 c 7.8031,3.54362 20.568,6.38515 36.9067,5.68178 h 121.4207 v 65.32504 h -105.8004 c -17.7503,1.40627 -35.499,-0.72051 -52.527,-4.26542 z m 0,-184.62215 73.1105,-74.54355 c -10.6356,-4.96943 -16.3088,-9.93774 -36.9086,-12.07637 -12.782,-4.8e-4 -24.8606,2.13863 -36.2019,6.3946 v -70.29576 c 12.0487,-2.12774 24.1242,-3.5622 36.9067,-3.5622 56.0988,-9.6e-4 102.9515,39.06089 110.0477,48.28933 14.2278,12.06644 14.9129,44.03015 -0.7048,54.68264 L 3757.6479,494.2062 Z"
     style="fill:#3b6cb1;fill-opacity:1;fill-rule:evenodd;stroke-width:1.60185"
     id="path14" />
  <path
     d="m 3945.0829,152.657 h 63.1918 v 257.05734 c 3.5573,41.87422 19.1895,68.16721 37.6428,84.49186 12.0806,9.93726 31.2358,14.91791 53.2455,17.04533 l 93.036,-4.8e-4 v 72.41485 l -79.5292,1.43526 c -42.6122,0 -87.3361,-7.81176 -112.9015,-31.97589 -34.8048,-34.06342 -56.8023,-73.13552 -56.8023,-154.78522 z"
     style="fill:#3b6cb1;fill-opacity:1;fill-rule:evenodd;stroke-width:1.60185"
     id="path16" />
  <path
     d="m 2108.172,374.91726 v 213.01453 h -1.4258 -64.6026 V 374.20492 c 0,-40.46988 -44.0361,-63.18689 -80.9587,-64.62231 -36.2006,2.13832 -72.4356,24.85629 -72.4356,64.62231 l 8e-4,213.72687 h -65.3078 -0.7206 V 374.91726 l 0.7206,-2.13863 v -7.0975 c 0,-36.21166 14.8962,-66.03802 38.3316,-86.62825 l 5e-4,-0.7037 c 24.8615,-21.30449 55.3913,-32.66756 85.9229,-36.21071 42.6108,-4.26781 87.3329,6.38467 121.4207,36.21151 l 0.7056,0.7029 c 23.434,21.31218 37.6423,51.11996 36.9218,86.62825 l 8e-4,7.0975 z"
     style="fill:#3b6cb1;fill-opacity:1;fill-rule:evenodd;stroke-width:1.60185"
     id="path18" />
  <path
     d="m 1609.7076,315.274 h 0.7047 v -69.59335 h -0.7047 c -95.1516,0 -172.5535,77.40431 -172.5535,171.84465 5e-4,95.13234 77.4019,172.54529 172.5521,172.54529 0.7061,-4.8e-4 0.7048,0 0.7048,0 v -69.60247 h -0.7047 c -56.8032,0 -101.5588,-46.1507 -101.5588,-102.94282 8e-4,-56.8035 44.7556,-102.2513 101.5588,-102.2513 z m 0.7047,0 c 56.8017,0 102.2609,45.44812 102.2609,102.2513 5e-4,56.79212 -45.4605,102.9433 -102.2622,102.9433 v 69.60151 c 39.0532,0 75.2538,-13.49354 103.6865,-35.50958 v 32.66837 h 68.1445 V 428.16641 c 0,-3.54362 0,-7.10758 0,-10.64111 0,-3.56445 0,-6.40598 0,-9.93951 v -2.84201 h -0.7047 c -6.392,-88.05358 -80.9432,-158.35879 -171.1276,-159.06216 z"
     style="fill:#3b6cb1;fill-opacity:1;fill-rule:evenodd;stroke-width:1.60185"
     id="path20" />
  <path
     d="M 34.07335,0 H 911.7148 c 19.1744,0 34.087,17.7495 34.087,39.06249 v 641.8936 C 945.8018,702.24954 930.8871,720 911.7131,720 H 34.07335 C 15.62176,720 0,702.25002 0,680.95641 V 39.06169 C 0,17.74854 15.62128,0 34.07335,0 Z"
     style="fill:#3b6cb1;fill-opacity:1;fill-rule:evenodd;stroke-width:1.60185"
     id="path22" />
  <path
     d="m 171.82286,300.36506 v 45.43867 c -20.58975,0 -36.91489,16.33426 -36.91489,36.91488 0,19.8883 16.32466,36.93395 36.91489,36.93395 v 46.15069 c -1.40579,0 -2.84153,4.8e-4 -4.24652,4.8e-4 -45.44764,-4.8e-4 -83.0755,-36.93394 -83.0755,-83.08512 0,-45.43866 37.62786,-82.35307 83.0755,-82.35307 1.40531,-4.8e-4 2.83977,0 4.24652,-4.8e-4 z m 108.64594,-73.136 v 43.30964 c -20.5898,0 -36.9154,17.04757 -36.9154,37.6378 5e-4,20.58975 16.3248,36.91441 36.9149,36.91441 l 5e-4,74.56165 c -20.5898,0 -36.9154,17.02754 -36.9154,37.63684 5e-4,19.85962 16.3248,36.9168 36.9149,36.9168 l 5e-4,44.02968 c -44.0124,0 -79.523,-34.79531 -82.363,-78.11393 -7.8096,3.55404 -17.04681,5.68178 -26.28294,5.68178 v -46.15117 c 19.88864,0 36.93394,-17.04517 36.93394,-36.93395 5e-4,-20.58062 -17.0458,-36.91488 -36.93394,-36.91488 v -45.43867 c 9.23661,0.70386 18.47244,2.12006 26.28294,5.67265 2.8405,-43.30901 38.3501,-78.1048 82.363,-78.80865 z M 760.4676,346.51672 H 355.7429 c 4.9662,-10.65249 7.8169,-22.71894 7.8169,-35.49869 5e-4,-46.16286 -36.9386,-83.78801 -82.3882,-83.78801 l -0.7028,-9.6e-4 v 43.30964 c 20.5907,0 36.9416,17.04757 36.9416,37.6378 0,20.58975 -16.3519,36.91441 -36.9421,36.91441 h 5e-4 v 74.56165 c 20.5907,0 36.9416,17.02754 36.9416,37.63684 0,19.85962 -16.3519,36.9168 -36.9421,36.9168 h 5e-4 v 44.02968 h 0.7038 c 45.4486,0 82.3872,-36.92257 82.3872,-83.08464 5e-4,-12.06692 -2.1465,-24.1433 -7.1121,-34.7857 l 320.2265,-4.8e-4 h 83.7934 z m -62.4726,79.51106 h 62.4726 v 69.60231 h -20.5833 v 41.18174 H 697.995 Z m 62.4726,-5.66272 v -73.84834 h 100.8215 v 73.84834 z m 0,5.66272 h 62.4895 v 110.06161 h -42.6108 v -40.4593 h -19.8787 z"
     style="fill:#f9db44;fill-opacity:1;fill-rule:evenodd;stroke-width:1.60185"
     id="path24" />
</svg>
