<svg width="262" height="40" viewBox="0 0 262 40" fill="none" xmlns="http://www.w3.org/2000/svg">
<g clip-path="url(#clip0_399_2378)">
<path d="M160.771 11.413H154.275C153.562 9.05797 151.232 6.82367 148.853 6.18358C138.42 3.36957 131.815 16.4734 140.171 23.1643C143.685 25.9783 149.638 25.6643 152.645 22.2464C153.345 21.4493 153.659 20.4589 154.371 19.7101H160.457C160.518 19.7101 160.735 19.9034 160.675 20.1208C160.554 20.5072 160.409 20.9541 160.264 21.3285C156.835 29.6377 147.585 33.1159 139.326 29.4807C128.434 24.6739 127.371 8.87681 137.369 2.51208C146.293 -3.16425 158.163 1.12319 160.759 11.401L160.771 11.413Z" fill="#FBFBFD"/>
<path d="M191.408 28.6474V40H185.732V9.78262H191.408V12.0169C194.463 8.74397 199.366 8.68358 203.049 11.0387C208.627 14.6135 208.99 24.1667 204.099 28.442C200.585 31.5097 194.91 31.9324 191.42 28.6474H191.408ZM201.889 20.157C201.889 17.1981 199.486 14.8068 196.528 14.8068C193.569 14.8068 191.166 17.1981 191.166 20.157C191.166 23.116 193.569 25.5073 196.528 25.5073C199.486 25.5073 201.889 23.116 201.889 20.157Z" fill="#FBFBFD"/>
<path d="M215.134 28.6474V40H209.459V9.78262H215.134V12.0169C218.189 8.74397 223.092 8.68358 226.775 11.0387C232.354 14.6135 232.716 24.1667 227.826 28.442C224.312 31.5097 218.636 31.9324 215.146 28.6474H215.134ZM225.628 20.157C225.628 17.1981 223.225 14.8068 220.266 14.8068C217.308 14.8068 214.905 17.1981 214.905 20.157C214.905 23.116 217.308 25.5073 220.266 25.5073C223.225 25.5073 225.628 23.116 225.628 20.157Z" fill="#FBFBFD"/>
<path d="M183.559 20.1691C183.559 26.099 178.753 30.9058 172.812 30.9058C166.87 30.9058 162.064 26.099 162.064 20.1691C162.064 14.2391 166.87 9.43237 172.812 9.43237C178.753 9.43237 183.559 14.2391 183.559 20.1691ZM177.956 20.1812C177.956 17.3551 175.661 15.0483 172.824 15.0483C169.986 15.0483 167.692 17.343 167.692 20.1812C167.692 23.0193 169.986 25.314 172.824 25.314C175.661 25.314 177.956 23.0193 177.956 20.1812Z" fill="#FBFBFD"/>
<path d="M262 0.458954H256.324V30.459H262V0.458954Z" fill="#FBFBFD"/>
<path d="M73.4308 0.458954C75.1335 0.640113 77.7538 1.59422 79.1063 2.69325C82.0647 5.08456 82.6444 10.5797 80.1206 13.442C79.7583 13.8527 79.3478 14.0459 79.0097 14.3599C78.8285 14.529 78.7319 14.5652 78.7923 14.8551C80.4587 15.4952 81.8474 17.1619 82.3908 18.8648C82.5719 19.4203 82.8617 21.0991 82.8617 21.6546C82.8617 21.9565 82.6927 23.116 82.6323 23.4662C82.0285 26.9082 79.6376 29.058 76.3651 29.9759C76.0633 30.0604 74.3727 30.471 74.2278 30.471H61.7539V0.458954H73.4187H73.4308ZM67.7554 5.73673C67.6829 5.84543 67.4535 5.99036 67.4535 6.03866V12.1256C67.4535 12.1256 67.7312 12.4276 67.7554 12.4276H71.0037C71.2452 12.4276 72.6097 12.2464 72.984 12.186C76.5221 11.5942 76.9206 6.6063 73.1893 5.99036C72.815 5.92997 71.4505 5.74881 71.2089 5.74881H67.7554V5.73673ZM67.6467 24.9879H73.6361C73.8655 24.9879 75.0852 24.4565 75.3508 24.2754C75.9908 23.8285 76.667 23.0314 76.7636 22.2464C77.0897 19.7343 76.1719 18.2488 73.612 17.9106C73.2376 17.8623 72.018 17.6933 71.8006 17.6933H67.6467V24.9879Z" fill="#FBFBFD"/>
<path d="M100.516 30.471V28.442C97.69 31.1474 93.524 31.6304 90.0221 29.9034C82.2697 26.0628 82.5233 13.2488 90.7708 10.0966C92.9806 9.25122 95.8666 9.19083 98.0764 10.0966C98.97 10.4589 99.6945 11.1353 100.516 11.6184V9.79469H106.191V30.471H100.516ZM100.745 20.1449C100.745 17.186 98.3421 14.7947 95.3836 14.7947C92.4251 14.7947 90.0221 17.186 90.0221 20.1449C90.0221 23.1039 92.4251 25.4952 95.3836 25.4952C98.3421 25.4952 100.745 23.1039 100.745 20.1449Z" fill="#FBFBFD"/>
<path d="M128.313 30.471H122.432V17.5966C122.432 17.5966 122.142 16.715 122.07 16.5459C121.756 15.7367 121.345 15.2053 120.548 14.8189C118.218 13.7319 115.887 14.843 115.223 17.2826C115.163 17.488 114.933 18.5387 114.933 18.6111V30.471H109.258V9.78264H114.933V11.8116C117.046 9.75848 119.582 8.99761 122.492 9.63771C124.98 10.1812 126.779 11.5822 127.673 13.9855C127.781 14.2754 128.325 16.0387 128.325 16.1715V30.459L128.313 30.471Z" fill="#FBFBFD"/>
<path d="M254.09 22.1498H238.271C238.609 23.2005 239.213 24.2029 240.107 24.8672C241.725 26.087 244.526 26.2681 246.253 25.157C246.978 24.686 247.267 23.901 247.907 23.3575H253.692C253.619 24.4807 252.822 25.8575 252.158 26.7874C249.574 30.3865 244.876 31.4855 240.662 30.5918C234.673 29.3358 231.557 23.0193 233.091 17.2585C235.518 8.16425 248.028 6.52174 252.713 14.686C253.124 15.4106 254.09 17.8382 254.09 18.5749V22.1256V22.1498ZM248.004 17.4879C247.376 15.0725 244.285 14.1546 242.063 14.6981C240.529 15.0725 239.382 16.1353 238.67 17.4879H248.004Z" fill="#FBFBFD"/>
<path d="M10.6505 30.8816C16.5326 30.8816 21.301 26.1179 21.301 20.2415C21.301 14.3652 16.5326 9.60144 10.6505 9.60144C4.76839 9.60144 0 14.3652 0 20.2415C0 26.1179 4.76839 30.8816 10.6505 30.8816Z" fill="#EED124"/>
<path d="M28.9439 25.9903C32.1317 25.9903 34.716 23.4057 34.716 20.2174C34.716 17.0291 32.1317 14.4444 28.9439 14.4444C25.7561 14.4444 23.1719 17.0291 23.1719 20.2174C23.1719 23.4057 25.7561 25.9903 28.9439 25.9903Z" fill="#EED124"/>
<path d="M42.3479 25.9783C45.529 25.9783 48.1078 23.399 48.1078 20.2174C48.1078 17.0357 45.529 14.4565 42.3479 14.4565C39.1667 14.4565 36.5879 17.0357 36.5879 20.2174C36.5879 23.399 39.1667 25.9783 42.3479 25.9783Z" fill="#EED124"/>
</g>
<defs>
<clipPath id="clip0_399_2378">
<rect width="262" height="40" fill="white"/>
</clipPath>
</defs>
</svg>
