<svg width="324" height="40" viewBox="0 0 324 40" fill="none" xmlns="http://www.w3.org/2000/svg">
<path fill-rule="evenodd" clip-rule="evenodd" d="M62.0425 7.92671C61.6779 7.09715 61.1115 6.37464 60.3963 5.82617C59.2303 4.89187 57.9345 4.13684 56.5505 3.58509C52.905 2.11162 49.0782 1.1477 45.1753 0.719651C42.814 0.424414 40.4248 0.24282 38.04 0.101106C34.7322 -0.0721637 31.4169 -0.0226034 28.1154 0.248821C25.4783 0.443773 22.8548 0.797284 20.2591 1.30722C17.2995 1.83923 14.4155 2.73616 11.6716 3.9779C10.3057 4.5796 9.06096 5.43007 7.99949 6.4875C7.62348 6.81546 7.32166 7.22163 7.11449 7.67813C6.90733 8.13463 6.79967 8.63083 6.79883 9.13302C6.798 9.6354 6.90401 10.132 7.10967 10.5893C7.31533 11.0463 7.61582 11.4535 7.99074 11.7828C8.6364 12.4344 9.35606 13.0061 10.1347 13.4864C12.2122 14.7098 14.4553 15.6195 16.7929 16.1864C19.2414 16.8533 21.7329 17.3466 24.2493 17.6627C25.2111 17.7911 26.1831 17.8842 27.18 17.992L31.9613 2.94893C31.9808 2.95783 32.0013 2.96422 32.0224 2.9679C32.2838 8.06107 32.5407 13.1542 32.8048 18.2681C33.1521 18.2873 33.4556 18.3183 33.7549 18.3124C35.7149 18.2652 37.6677 18.2342 39.6161 18.1427C42.612 17.9986 45.594 17.6391 48.5394 17.0665C51.4312 16.5579 54.2556 15.7157 56.9576 14.5567C58.5447 13.9236 59.9824 12.9601 61.1771 11.7282C61.6839 11.2568 62.0374 10.641 62.1915 9.962C62.3455 9.28325 62.2926 8.57313 62.0396 7.92536" fill="white"/>
<path fill-rule="evenodd" clip-rule="evenodd" d="M26.1334 18.6716C22.6825 18.7382 19.2421 19.0791 15.844 19.6917C12.5811 20.2459 9.39955 21.2112 6.37349 22.5644C4.47646 23.3667 2.77108 24.5703 1.37185 26.0941C0.761348 26.7086 0.331296 27.482 0.129544 28.3288C-0.0722079 29.1756 -0.037757 30.0625 0.229069 30.8907C0.79115 32.3504 1.79031 33.5958 3.08674 34.4529C5.31215 36.0117 7.77819 37.1855 10.3841 37.9266C13.1101 38.7593 15.9001 39.3602 18.7251 39.7232C19.1629 39.7822 19.6095 39.8295 20.0561 39.8707C22.3052 32.7847 24.5426 25.7458 26.7931 18.6716C26.5376 18.6716 26.3363 18.6716 26.1289 18.6716" fill="white"/>
<path fill-rule="evenodd" clip-rule="evenodd" d="M51.1747 23.6892C48.6754 22.2365 45.9809 21.1577 43.1755 20.4871C40.4663 19.7954 37.7108 19.3054 34.9307 19.0212C34.258 18.9459 33.5837 18.9046 32.8672 18.8454C33.2277 25.9198 33.5837 32.9438 33.9384 39.993C34.1213 40.0047 34.3046 40.0018 34.4872 39.9841C36.2006 39.7495 37.9183 39.5516 39.6158 39.2593C42.6807 38.7486 45.6746 37.871 48.5347 36.645C50.5734 35.8365 52.4213 34.6031 53.9581 33.0251C54.8146 32.2211 55.3458 31.1245 55.449 29.9473C55.5524 28.77 55.2202 27.5958 54.517 26.652C53.6243 25.4347 52.4848 24.4247 51.1747 23.6892Z" fill="white"/>
<path d="M100.88 22.2475C101.877 22.0491 102.769 21.4901 103.388 20.6751C104.008 19.8601 104.313 18.8446 104.247 17.8186V14.6167C104.247 11.0589 102.195 9.25633 98.146 9.25633H75.6699V36.0357H96.5492C101.803 36.0357 104.458 34.2155 104.458 30.6282V27.2696C104.559 26.1386 104.253 25.0086 103.597 24.0869C102.941 23.165 101.979 22.5131 100.887 22.2504M82.1458 24.6566H95.6401C96.3113 24.5978 96.9868 24.7058 97.6074 24.971C97.8585 25.1795 98.0525 25.4498 98.171 25.7559C98.2893 26.062 98.3278 26.3936 98.2831 26.7192V28.7032C98.328 29.0277 98.2901 29.3585 98.1727 29.6638C98.0556 29.9693 97.863 30.2394 97.6132 30.4481C96.9891 30.7083 96.3132 30.8171 95.6401 30.7656H82.1458V24.6566ZM98.1344 18.1789C98.1344 18.5775 98.1342 19.7836 95.6401 19.7836H82.1458V14.0808H95.6401C98.1342 14.0808 98.1344 15.2912 98.1344 15.6898V18.1789Z" fill="white"/>
<path d="M129.007 9.26389H122.86L107.877 36.0464H114.538L117.552 30.3021H133.664L136.777 36.0464H144.193L129.085 9.4056L129.007 9.26389ZM130.859 25.0231H120.412L125.728 15.2L130.859 25.0231Z" fill="white"/>
<path d="M173.368 23.3135C173.368 23.8362 173.438 25.1042 173.569 27.0735C172.93 26.4077 172.11 25.6388 171.1 24.7825L152.856 9.32739L152.783 9.26389H148.291V36.0464H154.259V21.5922C154.259 20.6829 154.202 19.5552 154.084 18.2191C154.601 18.7678 155.149 19.2853 155.726 19.7691L174.772 35.9858L174.846 36.0464H179.338V9.26989H173.368V23.3135Z" fill="white"/>
<path d="M212.729 9.25633H193.627C191.054 9.25633 189.334 9.69928 188.373 10.6028C187.411 11.5061 186.928 13.192 186.928 15.7341V29.5608C186.928 32.1059 187.402 33.7846 188.373 34.6925C189.343 35.6003 191.059 36.0357 193.627 36.0357H212.723C215.3 36.0357 217.019 35.593 217.978 34.6925C218.934 33.7919 219.42 32.1059 219.42 29.5608V15.7341C219.42 13.192 218.949 11.5135 217.978 10.6028C217.004 9.69192 215.29 9.25633 212.723 9.25633M212.855 30.5559H193.504V14.4881H212.863L212.855 30.5559Z" fill="white"/>
<path d="M249.695 26.1319C253.747 26.1319 255.801 24.3264 255.801 20.7729V14.6229C255.801 11.0665 253.747 9.26389 249.695 9.26389H227.205V36.0464H233.679V26.1377H239.028L249.407 35.9742L249.484 36.0464H259.009L247.041 26.1377L249.695 26.1319ZM233.679 14.2862H246.977C247.595 14.2364 248.216 14.3276 248.795 14.5534C249.027 14.7328 249.209 14.9713 249.32 15.2449C249.43 15.5184 249.467 15.8168 249.424 16.1093V19.2833C249.467 19.5741 249.432 19.8709 249.322 20.1433C249.213 20.4157 249.035 20.654 248.805 20.8335C248.224 21.0662 247.599 21.1595 246.977 21.1065H233.679V14.2862Z" fill="white"/>
<path d="M260.805 14.4901H272.717V36.0435H279.284V14.4901H291.244V9.26389H260.805V14.4901Z" fill="white"/>
<path d="M303.026 30.5624V24.6056H315.323V19.5861H303.026V14.2909H323.061V9.27145H296.453V36.0479H323.307V30.568L303.026 30.5624Z" fill="white"/>
</svg>
