<svg width="133" height="40" viewBox="0 0 133 40" fill="none" xmlns="http://www.w3.org/2000/svg">
<g clip-path="url(#clip0_397_2154)">
<path d="M95.8047 5.42825L84.3667 27.2747C84.1229 27.7419 83.4135 27.7419 83.1697 27.2747L71.7317 5.42825C71.6209 5.20578 71.3992 5.0723 71.1554 5.0723H65.6137C65.2369 5.0723 64.993 5.47274 65.1704 5.80645L83.1919 39.6663C83.4357 40.1335 84.1007 40.1335 84.3667 39.6663L102.388 5.80645C102.566 5.47274 102.322 5.0723 101.945 5.0723H96.4032C96.1372 5.0723 95.9155 5.20578 95.8047 5.42825Z" fill="white"/>
<path d="M102.299 34.594L113.737 12.7475C113.981 12.2803 114.69 12.2803 114.934 12.7475L126.372 34.594C126.483 34.8165 126.704 34.9499 126.948 34.9499H132.49C132.867 34.9499 133.11 34.5495 132.933 34.2158L114.912 0.355943C114.668 -0.111242 114.003 -0.111242 113.737 0.355943L95.7153 34.2158C95.5379 34.5495 95.7818 34.9499 96.1586 34.9499H101.7C101.944 34.9277 102.188 34.7942 102.299 34.594Z" fill="white"/>
<path d="M24.1173 21.1791C26.5113 19.9777 27.9965 17.3749 27.9965 14.1935C27.9965 8.74304 23.7627 5.05005 17.7998 5.05005H0.665C0.288167 5.05005 0 5.33926 0 5.71746V39.3326C0 39.7108 0.288167 40 0.665 40H17.0683C25.27 40 29.5925 36.4627 29.5925 29.5217C29.5925 22.7586 24.1173 21.1791 24.1173 21.1791ZM6.42833 10.1224H16.6028C20.349 10.1224 22.2553 11.7241 22.2553 14.7052C22.2553 17.6863 20.349 19.2881 16.6028 19.2881H6.42833C6.07367 19.2881 5.76333 18.9989 5.76333 18.6207V10.7898C5.76333 10.4116 6.0515 10.1224 6.42833 10.1224ZM16.7358 34.9277H6.42833C6.0515 34.9277 5.76333 34.6385 5.76333 34.2603V24.9833C5.76333 24.6274 6.0515 24.3159 6.42833 24.3159H16.7358C21.6568 24.3159 23.8513 25.7175 23.8513 29.6107C23.8292 33.5484 21.7012 34.9277 16.7358 34.9277Z" fill="white"/>
<path d="M59.2957 21.1791C61.6897 19.9777 63.1749 17.3749 63.1749 14.1935C63.1749 8.74304 58.9411 5.05005 52.9782 5.05005H35.8212C35.4444 5.05005 35.1562 5.33926 35.1562 5.71746V39.3326C35.1562 39.7108 35.4444 40 35.8212 40H52.2246C60.4262 40 64.7487 36.4627 64.7487 29.5217C64.7709 22.7586 59.2957 21.1791 59.2957 21.1791ZM41.6067 10.1224H51.7812C55.5274 10.1224 57.4337 11.7241 57.4337 14.7052C57.4337 17.6863 55.5274 19.2881 51.7812 19.2881H41.6067C41.2299 19.2881 40.9417 18.9989 40.9417 18.6207V10.7898C40.9417 10.4116 41.2299 10.1224 41.6067 10.1224ZM51.8921 34.9277H41.5846C41.2299 34.9277 40.9196 34.6385 40.9196 34.2603V24.9833C40.9196 24.6274 41.2077 24.3159 41.5846 24.3159H51.8921C56.8131 24.3159 59.0076 25.7175 59.0076 29.6107C59.0076 33.5484 56.8574 34.9277 51.8921 34.9277Z" fill="white"/>
</g>
<defs>
<clipPath id="clip0_397_2154">
<rect width="133" height="40" fill="white"/>
</clipPath>
</defs>
</svg>
