<svg width="207" height="40" viewBox="0 0 207 40" fill="none" xmlns="http://www.w3.org/2000/svg">
<path d="M35.5088 16.3073C34.9133 16.1137 34.3657 15.9534 33.8556 15.8201C34.3532 15.2558 34.8759 14.5854 35.386 13.8837C36.7685 11.9806 37.466 10.5106 37.466 9.20098C37.466 6.98975 35.9482 5.48852 33.0498 3.18984C30.8511 1.44501 29.125 0.485139 27.5009 0.485139C25.6811 0.485139 24.0487 1.66571 22.1561 4.27047C21.7875 4.77643 21.4648 5.247 21.1816 5.69257C20.7985 5.04503 20.3238 4.33918 19.8137 3.6375C17.9543 1.07647 16.4385 0 14.6957 0C13.105 0 11.3268 0.957786 8.91989 2.55479C5.87996 4.57238 4.43079 6.15064 4.43079 8.41185C4.43079 9.78814 5.18869 11.331 6.58165 13.2487C6.95019 13.7546 7.2979 14.2085 7.63313 14.6145C6.89813 14.779 6.08193 15.0122 5.25741 15.2808C1.33257 16.5551 0 18.1167 0 20.7069C0 21.9374 0.343553 23.4511 0.862006 25.3063C2.05924 29.6018 3.51674 31.5736 6.55041 31.5736C7.57275 31.5736 8.83452 31.3154 10.3128 30.8344C10.9083 30.6408 11.4455 30.4492 11.9369 30.2556C11.8661 31.0052 11.837 31.8547 11.837 32.7208C11.837 38.8881 14.1856 40 21.1004 40C25.8768 40 28.1922 38.7736 28.1922 32.7208C28.1922 32.0962 28.1755 31.5236 28.1443 30.9968C28.8356 31.2967 29.633 31.5861 30.4576 31.8547C32.0837 32.3835 33.3746 32.5709 34.4407 32.5709C36.9039 32.5709 38.3905 30.3993 39.9063 26.3287C40.6122 24.4318 40.9765 22.8786 40.9765 21.6001C40.9724 19.0099 39.3233 17.5483 35.5088 16.3073ZM26.3432 7.67477L27.0199 6.74405C27.4051 6.21311 28.0881 6.10067 28.594 6.54417C31.2508 8.86575 32.8937 12.3159 32.8666 15.5973C31.2946 15.2996 30.1452 15.3953 29.2249 15.9783C29.252 15.8118 29.2707 15.6327 29.2832 15.4432C29.379 13.5048 28.4046 11.433 26.4911 9.22805C26.0726 8.74915 25.958 8.20572 26.3432 7.67477ZM23.8759 14.5208C26.1538 16.1761 27.4551 16.8487 28.2088 16.9299C27.4967 17.8502 26.9096 19.2161 26.2954 21.1108C25.425 23.7885 25.1877 25.2335 25.3417 25.9768C24.2465 25.5833 22.7661 25.4479 20.7735 25.4479C17.9605 25.4479 16.5093 25.6665 15.8513 26.0434C15.8867 24.8816 15.5578 23.4303 14.9414 21.5356C14.0711 18.86 13.4152 17.5483 12.8531 17.0402C13.9712 16.7154 15.2475 15.9534 16.8591 14.7832C19.137 13.13 20.1801 12.0993 20.4903 11.408C21.1462 12.37 22.2643 13.3507 23.8759 14.5208ZM10.7334 7.83301C13.763 6.02363 17.5524 5.526 20.6632 6.56915C19.8949 7.97252 19.6304 9.09479 19.899 10.1504C19.7491 10.0734 19.5846 10.0005 19.4076 9.92973C17.592 9.23846 15.3225 9.52579 12.6344 10.6668C12.0493 10.9146 11.4976 10.8563 11.1124 10.3253L10.4357 9.39462C10.0505 8.85951 10.1567 8.17865 10.7334 7.83301ZM11.1103 17.6128C9.89225 19.1245 9.46333 21.3732 9.71735 24.2819C9.77357 24.9149 9.54661 25.4209 8.92405 25.6249L7.83093 25.981C7.20629 26.1829 6.58998 25.8727 6.44006 25.2168C5.65509 21.7771 6.35261 18.0188 8.30566 15.3829C9.40295 16.5468 10.3878 17.1464 11.4747 17.2151C11.3539 17.3317 11.2331 17.4671 11.1103 17.6128ZM22.8015 33.587C22.8015 34.2429 22.3164 34.7343 21.6459 34.6739C18.1313 34.3574 14.7749 32.5314 12.8697 29.86C14.3168 29.177 15.1892 28.4233 15.5911 27.4135C15.666 27.5634 15.7597 27.7195 15.8597 27.8819C16.9216 29.5081 18.9267 30.6096 21.7729 31.2675C22.3913 31.4112 22.8036 31.7818 22.8036 32.4377V33.587H22.8015ZM35.336 23.1347C33.9493 26.3786 31.1759 29.0084 28.0464 29.9953C27.8424 28.4066 27.3968 27.3448 26.5598 26.6493C26.7264 26.6243 26.9033 26.5848 27.0887 26.539C28.9626 26.0309 30.6304 24.4652 32.1358 21.9624C32.4627 21.4169 32.9436 21.14 33.5662 21.344L34.6593 21.7001C35.286 21.902 35.6025 22.5142 35.336 23.1347Z" fill="white"/>
<path d="M82.6154 10.8979C78.5365 10.8979 75.2425 13.3299 74.3014 16.7404C74.1453 17.2901 74.4576 17.6024 75.0073 17.6024H77.714C78.1846 17.6024 78.4595 17.3671 78.5761 16.857C78.9675 14.8186 79.9877 14.1898 82.6154 14.1898C85.5179 14.1898 86.3404 14.6999 86.3404 17.9939V18.1917C86.3404 19.0537 86.026 19.3681 85.1639 19.3681H81.6347C76.7334 19.3681 73.479 21.5252 73.479 25.3688C73.479 29.0167 76.4585 31.3695 80.1064 31.3695C82.8111 31.3695 85.0078 30.1931 86.3799 28.036H86.5361L87.321 30.468C87.4397 30.899 87.752 31.1342 88.183 31.1342H90.0653C90.5754 31.1342 90.8503 30.8594 90.8503 30.3493V18.9371C90.8503 14.1127 87.5959 10.8979 82.6154 10.8979ZM86.3404 23.1326C86.3404 26.6222 84.7725 28.1922 81.2433 28.1922C78.5365 28.1922 77.9098 27.4863 77.9098 25.2126C77.9098 22.8203 78.4199 22.2331 81.4786 22.2331H86.3404V23.1326ZM66.0457 17.0944V16.9382C68.7504 15.4474 70.0455 13.4485 70.0455 10.7813C70.0455 6.42965 66.8307 3.6833 61.3026 3.6833H51.6561C51.1459 3.6833 50.8711 3.95815 50.8711 4.46827V30.3472C50.8711 30.8573 51.1459 31.1322 51.6561 31.1322H61.7336C67.7718 31.1322 70.9096 28.4649 70.9096 23.7614C70.9075 20.7027 69.144 18.3499 66.0457 17.0944ZM55.4997 7.25418H60.9507C64.4404 7.25418 65.2628 8.07662 65.2628 11.3706C65.2628 14.7041 64.4404 15.487 60.9507 15.487H55.4997V7.25418ZM61.6149 27.5634H55.4976V19.0557H61.6149C65.2608 19.0557 66.1249 19.8782 66.1249 23.2908C66.1249 26.7014 65.2629 27.5634 61.6149 27.5634ZM206.413 30.191L200.021 20.7006V20.5445L205.864 12.0743C206.215 11.5246 205.98 11.1332 205.353 11.1332H202.411C201.98 11.1332 201.666 11.2894 201.47 11.6433L197.587 18.0355H197.431L193.587 11.6829C193.392 11.331 193.077 11.1332 192.646 11.1332H189.352C188.725 11.1332 188.49 11.5642 188.842 12.0743L194.685 20.8193V20.9755L188.371 30.191C188.02 30.7407 188.215 31.1322 188.842 31.1322H191.822C192.253 31.1322 192.527 31.0135 192.763 30.622L197.154 23.524H197.273L201.703 30.622C201.939 31.0135 202.214 31.1322 202.645 31.1322H205.899C206.53 31.1322 206.765 30.7012 206.413 30.191ZM105.202 10.8979C102.693 10.8979 100.693 11.839 99.2413 13.7213H99.0851L98.3397 11.7599C98.1836 11.3685 97.8692 11.1332 97.4382 11.1332H95.5559C95.0458 11.1332 94.7709 11.408 94.7709 11.9182V30.3493C94.7709 30.8594 95.0458 31.1342 95.5559 31.1342H98.5355C99.0456 31.1342 99.3204 30.8594 99.3204 30.3493V17.9189C99.3204 14.8207 100.026 14.194 103.516 14.194C106.654 14.194 107.437 14.8998 107.437 17.9189V30.3493C107.437 30.8594 107.711 31.1342 108.222 31.1342H111.164C111.674 31.1342 111.949 30.8594 111.949 30.3493V19.9573C111.947 14.1523 109.517 10.8979 105.202 10.8979ZM177.982 10.8979C172.139 10.8979 168.335 14.9768 168.335 21.1337C168.335 27.3302 172.139 31.3695 177.982 31.3695C182.335 31.3695 185.667 29.1354 186.962 25.7228C187.158 25.2522 186.845 24.9378 186.296 24.9378H183.512C183.041 24.9378 182.766 25.1731 182.61 25.6041C181.983 27.5259 180.845 28.0756 177.905 28.0756C174.257 28.0756 173.159 26.9387 173.003 22.3497H186.61C187.12 22.3497 187.395 22.0749 187.395 21.5647V21.1337C187.393 14.779 183.787 10.8979 177.982 10.8979ZM173.041 19.7199C173.197 15.2892 174.257 14.1898 177.902 14.1898C181.55 14.1898 182.648 15.3662 182.804 19.7199H173.041ZM158.532 10.8979C155.984 10.8979 153.983 11.7204 152.219 13.7213H152.101C150.689 11.7599 149.002 10.8979 146.689 10.8979C144.218 10.8979 142.298 11.839 140.886 13.7213H140.73L139.985 11.7599C139.828 11.3685 139.514 11.1332 139.083 11.1332H137.201C136.691 11.1332 136.416 11.408 136.416 11.9182V30.3493C136.416 30.8594 136.691 31.1342 137.201 31.1342H140.18C140.69 31.1342 140.965 30.8594 140.965 30.3493V17.9189C140.965 14.8207 141.671 14.194 145.005 14.194C148.024 14.194 148.769 14.8998 148.769 17.9189V30.3493C148.769 30.8594 149.044 31.1342 149.554 31.1342H152.496C153.006 31.1342 153.281 30.8594 153.281 30.3493V17.9189C153.281 14.8207 153.987 14.194 157.321 14.194C160.34 14.194 161.085 14.8998 161.085 17.9189V30.3493C161.085 30.8594 161.36 31.1342 161.87 31.1342H164.812C165.322 31.1342 165.597 30.8594 165.597 30.3493V19.9573C165.591 14.0732 163.317 10.8979 158.532 10.8979ZM124.26 10.8979C120.181 10.8979 116.887 13.3299 115.946 16.7404C115.79 17.2901 116.102 17.6024 116.652 17.6024H119.359C119.83 17.6024 120.104 17.3671 120.221 16.857C120.612 14.8186 121.633 14.1898 124.26 14.1898C127.163 14.1898 127.985 14.6999 127.985 17.9939V18.1917C127.985 19.0537 127.671 19.3681 126.809 19.3681H123.28C118.378 19.3681 115.124 21.5252 115.124 25.3688C115.124 29.0167 118.103 31.3695 121.751 31.3695C124.456 31.3695 126.653 30.1931 128.025 28.036H128.181L128.966 30.468C129.085 30.899 129.397 31.1342 129.828 31.1342H131.71C132.22 31.1342 132.495 30.8594 132.495 30.3493V18.9371C132.495 14.1127 129.241 10.8979 124.26 10.8979ZM127.985 23.1326C127.985 26.6222 126.417 28.1922 122.888 28.1922C120.181 28.1922 119.555 27.4863 119.555 25.2126C119.555 22.8203 120.065 22.2331 123.123 22.2331H127.985V23.1326Z" fill="white"/>
</svg>
