<svg width="152" height="40" viewBox="0 0 152 40" fill="none" xmlns="http://www.w3.org/2000/svg">
<path fill-rule="evenodd" clip-rule="evenodd" d="M10.9738 20C10.9738 15.2174 14.7724 11.3043 19.4152 11.3043C24.0579 11.3043 27.8565 15.2174 27.8565 20C27.8565 24.7826 24.0579 28.6957 19.4152 28.6957C14.8779 28.6957 10.9738 24.7826 10.9738 20ZM9.70759 20C9.70759 25.6522 13.5062 29.4565 18.36 30H2.53241C0.949655 27.0652 0 23.587 0 20H9.70759ZM9.8131 18.8043V2.6087C12.6621 0.869565 16.0386 0 19.5207 0V10C14.4559 10 10.3407 13.8043 9.8131 18.8043ZM20.6814 10H36.4034C38.0917 12.9348 39.0414 16.413 39.0414 20H29.3338C29.2283 14.7826 25.5352 10.5435 20.6814 10ZM29.2283 20.9783V37.2826C26.3793 39.0217 23.0028 40 19.5207 40V30C24.5855 30 28.7007 26.087 29.2283 20.9783Z" fill="white"/>
<path d="M47.5876 10H43.8945V22.2826H47.5876V10Z" fill="white"/>
<path fill-rule="evenodd" clip-rule="evenodd" d="M62.254 10V19.2391L55.0788 10H49.3809V22.2826H52.7574V13.0435L59.9326 22.2826H65.6305V10H62.254Z" fill="white"/>
<path fill-rule="evenodd" clip-rule="evenodd" d="M79.0326 22.2826C81.8816 22.2826 83.0422 21.413 83.0422 18.8043C83.0422 16.6304 82.0926 16.3043 80.5098 16.0869C81.9871 15.6522 82.6202 15.2174 82.6202 13.2608C82.6202 10.9782 81.4595 10.1087 78.9271 10.1087H67.6367V22.2826H79.0326ZM71.2243 12.7174H77.8719C78.505 12.7174 78.9271 13.0435 78.9271 13.6956C78.9271 14.6739 78.3995 14.7826 77.4498 14.7826H71.2243V12.7174ZM71.2243 17.2826H77.7664C78.8215 17.2826 79.3491 17.5 79.3491 18.3695C79.3491 19.4565 78.716 19.5652 77.7664 19.5652H71.2243V17.2826Z" fill="white"/>
<path fill-rule="evenodd" clip-rule="evenodd" d="M96.2319 16.413C96.2319 17.5 96.232 18.2609 95.8099 18.6957C95.2823 19.3478 94.2271 19.2391 92.3278 19.2391C88.5292 19.2391 88.2126 19.3478 88.2126 16.3043V10H84.5195V17.5C84.5195 22.5 87.0519 22.3913 92.9609 22.3913C94.8602 22.3913 96.3375 22.3913 97.2871 22.0652C99.0809 21.413 99.8195 20.1087 99.8195 17.8261V10H96.1264V16.413H96.2319Z" fill="white"/>
<path fill-rule="evenodd" clip-rule="evenodd" d="M111.321 19.1304C112.587 19.1304 112.904 19.5652 112.904 20.6522V22.2826H116.597V20.1087C116.597 17.8261 115.542 17.9348 114.17 17.6087C115.753 17.0652 116.702 16.8478 116.702 13.913C116.702 11.087 115.647 10 112.693 10H101.613V22.2826H105.306V19.1304H111.321ZM105.306 13.0435H111.004C112.587 13.0435 113.009 13.1522 113.009 14.4565C113.009 15.8696 112.904 16.1957 111.215 16.1957C111.004 16.1957 110.899 16.1957 110.793 16.1957H105.412V13.0435H105.306Z" fill="white"/>
<path fill-rule="evenodd" clip-rule="evenodd" d="M132.212 13.8043C132.212 12.3913 132.106 11.413 131.051 10.6522C130.101 9.8913 128.519 9.8913 125.881 9.8913C123.348 9.8913 121.554 9.99999 120.816 10.1087C118.494 10.3261 117.756 11.413 117.756 13.8043C117.756 17.8261 119.761 17.3913 126.83 17.5C128.202 17.5 129.046 17.5 129.046 18.5869C129.046 19.6739 128.308 19.6739 125.037 19.6739C123.77 19.6739 122.926 19.6739 122.61 19.5652C121.343 19.4565 121.554 18.8043 121.449 18.2609H117.861C117.861 19.7826 117.756 20.7609 118.811 21.6304C119.655 22.1739 121.343 22.2826 124.192 22.2826C127.041 22.2826 128.941 22.1739 129.574 22.0652C131.79 21.8478 132.739 20.8696 132.739 18.3696C132.739 14.7826 130.946 14.5652 127.041 14.5652C126.514 14.5652 125.986 14.5652 125.459 14.5652C124.614 14.5652 123.665 14.5652 122.61 14.4565C121.871 14.4565 121.449 14.1304 121.449 13.4783C121.449 12.0652 122.504 12.5 125.564 12.2826C125.775 12.2826 125.881 12.2826 125.986 12.2826C128.097 12.2826 128.624 12.3913 128.73 13.4783H132.212V13.8043Z" fill="white"/>
<path fill-rule="evenodd" clip-rule="evenodd" d="M147.196 22.2826H151.206L144.663 10H139.81L133.162 22.2826H137.172L138.332 20.1087H146.035L147.196 22.2826ZM139.704 17.5L142.237 12.6087L144.769 17.5H139.704Z" fill="white"/>
</svg>
