<?xml version="1.0" encoding="UTF-8" standalone="no"?>
<!-- Created with Inkscape (http://www.inkscape.org/) -->

<svg
   xmlns:dc="http://purl.org/dc/elements/1.1/"
   xmlns:cc="http://creativecommons.org/ns#"
   xmlns:rdf="http://www.w3.org/1999/02/22-rdf-syntax-ns#"
   xmlns:svg="http://www.w3.org/2000/svg"
   xmlns="http://www.w3.org/2000/svg"
   xmlns:sodipodi="http://sodipodi.sourceforge.net/DTD/sodipodi-0.dtd"
   xmlns:inkscape="http://www.inkscape.org/namespaces/inkscape"
   width="178.81453"
   height="46.68935"
   viewBox="0 0 47.311344 12.353223"
   version="1.1"
   id="svg72"
   inkscape:version="0.92.0 r15299"
   sodipodi:docname="inbursa.svg">
  <defs
     id="defs66">
    <clipPath
       id="clipPath90"
       clipPathUnits="userSpaceOnUse">
      <path
         inkscape:connector-curvature="0"
         id="path88"
         d="M 0,0 H 269.291 V 609.449 H 0 Z" />
    </clipPath>
    <clipPath
       id="clipPath108"
       clipPathUnits="userSpaceOnUse">
      <path
         inkscape:connector-curvature="0"
         id="path106"
         d="M 0,0 H 269.291 V 609.449 H 0 Z" />
    </clipPath>
  </defs>
  <sodipodi:namedview
     id="base"
     pagecolor="#ffffff"
     bordercolor="#666666"
     borderopacity="1.0"
     inkscape:pageopacity="0.0"
     inkscape:pageshadow="2"
     inkscape:zoom="5.0445821"
     inkscape:cx="88.907287"
     inkscape:cy="22.844674"
     inkscape:document-units="mm"
     inkscape:current-layer="layer1"
     showgrid="false"
     fit-margin-top="0"
     fit-margin-left="0"
     fit-margin-right="0"
     fit-margin-bottom="0"
     units="px"
     inkscape:window-width="1280"
     inkscape:window-height="744"
     inkscape:window-x="-4"
     inkscape:window-y="-4"
     inkscape:window-maximized="1" />
  <metadata
     id="metadata69">
    <rdf:RDF>
      <cc:Work
         rdf:about="">
        <dc:format>image/svg+xml</dc:format>
        <dc:type
           rdf:resource="http://purl.org/dc/dcmitype/StillImage" />
        <dc:title></dc:title>
      </cc:Work>
    </rdf:RDF>
  </metadata>
  <g
     inkscape:label="Layer 1"
     inkscape:groupmode="layer"
     id="layer1"
     transform="translate(-305.31591,-286.15536)">
    <g
       id="g210"
       transform="translate(0.13229212,-0.13228799)">
      <path
         d="m 308.74773,292.44964 c 0,-1.45168 1.18216,-2.62855 2.64019,-2.62855 1.45803,0 2.63983,1.17687 2.63983,2.62855 0,1.45168 -1.1818,2.6289 -2.63983,2.6289 -1.45803,0 -2.64019,-1.17722 -2.64019,-2.6289 m -0.39511,0.0148 c 0,1.71309 1.17581,2.8575 2.70298,3.02189 h -4.93994 c -0.50906,-0.88371 -0.79975,-1.93005 -0.79975,-3.02189 z m 0.009,-0.37007 v -4.87186 c 0.89041,-0.51047 1.92299,-0.80257 3.02436,-0.80257 l 0.003,3.02154 c -1.56316,0 -2.85045,1.14477 -3.02719,2.65289 m 3.37573,-2.65853 h 4.90361 c 0.51682,0.88653 0.81386,1.92793 0.81598,3.02683 h -3.03495 c 0,-1.55927 -1.16664,-2.85432 -2.68464,-3.02683 m 2.68076,3.33128 v 4.93466 c -0.89218,0.51329 -1.92758,0.8068 -3.03213,0.8068 l -0.002,-3.02507 c 1.57903,0 2.87513,-1.18992 3.03459,-2.71639"
         style="fill:#041e41;fill-opacity:1;fill-rule:nonzero;stroke:none;stroke-width:0.35277778"
         id="path94"
         inkscape:connector-curvature="0" />
      <path
         inkscape:connector-curvature="0"
         id="path96"
         style="fill:#041e41;fill-opacity:1;fill-rule:nonzero;stroke:none;stroke-width:0.35277778"
         d="m 318.97567,293.15089 h 1.1363 v -3.69817 h -1.1363 z" />
      <path
         d="m 324.68443,289.45279 v 2.77248 l -2.22356,-2.77248 h -1.79105 v 3.69817 h 1.06504 v -2.77742 l 2.22285,2.77742 h 1.79034 v -3.69817 z"
         style="fill:#041e41;fill-opacity:1;fill-rule:nonzero;stroke:none;stroke-width:0.35277778"
         id="path100"
         inkscape:connector-curvature="0" />
      <path
         d="m 329.8964,293.14814 c 0.87559,0 1.23578,-0.26599 1.23578,-1.05869 0,-0.6544 -0.3048,-0.74859 -0.79798,-0.82056 0.45402,-0.11606 0.65405,-0.26035 0.65405,-0.85936 0,-0.68228 -0.36583,-0.95427 -1.14794,-0.95427 h -3.48721 v 3.69288 z m -2.42852,-2.8829 h 2.06234 c 0.21061,0 0.32702,0.10513 0.32702,0.31044 0,0.28293 -0.16616,0.33267 -0.46002,0.33267 h -1.92934 z m 0,1.37478 h 2.0514 c 0.33267,0 0.48225,0.061 0.48225,0.31608 0,0.32703 -0.19967,0.36054 -0.49918,0.36054 h -2.03447 z"
         style="fill:#041e41;fill-opacity:1;fill-rule:nonzero;stroke:none;stroke-width:0.35277778"
         id="path112"
         inkscape:connector-curvature="0" />
      <path
         d="m 335.25841,291.3906 c 0,0.32702 0,0.54292 -0.12241,0.69321 -0.16651,0.19932 -0.47625,0.17709 -1.06998,0.17709 -1.18639,0 -1.29681,0.0335 -1.29681,-0.88688 v -1.94063 h -1.137 v 2.2733 c 0,1.51306 0.78704,1.46332 2.62784,1.46332 0.58279,0 1.03681,-0.005 1.35325,-0.11112 0.55387,-0.18274 0.78105,-0.58173 0.78105,-1.29717 v -2.32833 h -1.13594 z"
         style="fill:#041e41;fill-opacity:1;fill-rule:nonzero;stroke:none;stroke-width:0.35277778"
         id="path116"
         inkscape:connector-curvature="0" />
      <path
         d="m 339.9523,292.19705 c 0.39299,0 0.48719,0.14429 0.48719,0.46637 v 0.48754 h 1.137 v -0.66499 c 0,-0.67662 -0.33302,-0.67133 -0.75424,-0.75459 0.50447,-0.14922 0.79869,-0.2159 0.79869,-1.10807 0,-0.85372 -0.32244,-1.17052 -1.23578,-1.17052 h -3.43782 v 3.69817 h 1.13665 v -0.95391 z m -1.86831,-1.84573 h 1.77412 c 0.48718,0 0.63147,0.0388 0.63147,0.43815 0,0.41557 -0.0441,0.51541 -0.5715,0.51541 -0.0547,0 -0.0878,-0.006 -0.14393,-0.006 h -1.69016 z"
         style="fill:#041e41;fill-opacity:1;fill-rule:nonzero;stroke:none;stroke-width:0.35277778"
         id="path120"
         inkscape:connector-curvature="0" />
      <path
         d="m 346.45399,290.58662 c -0.005,-0.43215 -0.0222,-0.71473 -0.34925,-0.95356 -0.29916,-0.21625 -0.77611,-0.21625 -1.62419,-0.21625 -0.79304,0 -1.33703,0.0385 -1.5688,0.067 -0.7105,0.0826 -0.94262,0.39334 -0.94262,1.125 0,1.21991 0.63182,1.08656 2.81058,1.10314 0.42157,0.006 0.70414,0 0.70414,0.33232 0,0.33337 -0.21625,0.33902 -1.25836,0.33902 -0.39405,0 -0.67098,-0.0116 -0.76482,-0.0173 -0.3937,-0.0328 -0.34396,-0.22648 -0.34925,-0.39299 H 341.997 c 0.005,0.44344 -0.0448,0.74824 0.30938,1.0033 0.24977,0.17709 0.80504,0.21025 1.66899,0.21025 0.8823,0 1.46968,-0.0385 1.669,-0.0607 0.67627,-0.0776 0.97049,-0.34889 0.97049,-1.11936 0,-1.09255 -0.55492,-1.137 -1.78506,-1.137 -0.14993,0 -0.32138,0.006 -0.4766,0.006 -0.2607,0 -0.56586,-0.0113 -0.89253,-0.0169 -0.23319,-0.005 -0.37712,-0.0995 -0.37712,-0.28258 0,-0.41028 0.32703,-0.3048 1.28058,-0.35454 0.0557,-0.006 0.0882,-0.006 0.14429,-0.006 0.65899,0 0.82585,0.0282 0.84243,0.37183 z"
         style="fill:#041e41;fill-opacity:1;fill-rule:nonzero;stroke:none;stroke-width:0.35277778"
         id="path124"
         inkscape:connector-curvature="0" />
      <path
         d="m 351.12089,293.15096 h 1.24178 l -2.01789,-3.69817 h -1.51941 l -2.06234,3.69817 h 1.25306 l 0.36583,-0.67134 h 2.38972 z m -2.34491,-1.43581 0.79833,-1.46367 0.7874,1.46367 z"
         style="fill:#041e41;fill-opacity:1;fill-rule:nonzero;stroke:none;stroke-width:0.35277778"
         id="path128"
         inkscape:connector-curvature="0" />
    </g>
  </g>
</svg>
