<svg width="72" height="29" viewBox="0 0 72 29" fill="none" xmlns="http://www.w3.org/2000/svg">
<path d="M9.3257 13.4491L4.11092 19.6211V27.8125H0V0H4.11092V14.4015L16.1011 0H21.2017L12.3708 10.4773L21.6965 27.8125H16.9385L9.3257 13.4491Z" fill="white"></path>
<path d="M24.7458 0L28.8948 7.9284e-07V27.8125H24.7458V0Z" fill="white"></path>
<path d="M43.184 28.2316C41.8391 28.2316 40.5449 27.9776 39.3015 27.4696C38.058 26.9616 36.9542 26.2377 35.9899 25.2979C35.051 24.3582 34.2897 23.2279 33.706 21.9071C33.1478 20.5863 32.8686 19.1258 32.8686 17.5257C32.8686 15.9001 33.1478 14.4396 33.706 13.1443C34.2643 11.8235 35.0129 10.6932 35.9518 9.75342C36.9161 8.81364 38.02 8.08975 39.2634 7.58176C40.5322 7.07377 41.8517 6.81978 43.2221 6.81978C44.5924 6.81978 45.8992 7.11187 47.1427 7.69606C48.4115 8.28025 49.4392 9.08033 50.2258 10.0963V7.23887H54.2606V27.8125H50.2258V24.8026C49.4138 25.8694 48.3734 26.7076 47.1046 27.3172C45.8612 27.9268 44.5543 28.2316 43.184 28.2316ZM43.7169 24.4597C44.6812 24.4597 45.5693 24.282 46.3814 23.9264C47.2188 23.5454 47.9293 23.0501 48.513 22.4405C49.122 21.8055 49.5914 21.0689 49.9213 20.2307C50.2766 19.3671 50.4542 18.4528 50.4542 17.4876C50.4542 16.5478 50.2766 15.6588 49.9213 14.8206C49.5914 13.957 49.122 13.2205 48.513 12.6109C47.9293 11.9759 47.2188 11.4806 46.3814 11.125C45.5693 10.744 44.6812 10.5535 43.7169 10.5535C42.7526 10.5535 41.8517 10.7313 41.0143 11.0869C40.2023 11.4425 39.4918 11.9378 38.8827 12.5728C38.2737 13.1824 37.7916 13.9189 37.4363 14.7825C37.1064 15.6207 36.9415 16.5224 36.9415 17.4876C36.9415 18.4528 37.1064 19.3671 37.4363 20.2307C37.7916 21.0689 38.2737 21.8055 38.8827 22.4405C39.4918 23.0755 40.2023 23.5708 41.0143 23.9264C41.8517 24.282 42.7526 24.4597 43.7169 24.4597Z" fill="white"></path>
<path d="M58.9059 7.23887H62.9407V10.8202C63.3721 9.52482 64.0827 8.55964 65.0723 7.92465C66.062 7.26426 67.2166 6.93407 68.5362 6.93407C69.2467 6.93407 69.8938 7.01027 70.4774 7.16267C71.0865 7.28967 71.594 7.48016 72 7.73416L70.4013 11.6965C69.7923 11.2901 68.9295 11.0869 67.8129 11.0869C66.3411 11.0869 65.1738 11.4806 64.3111 12.268C63.4483 13.0554 63.0169 14.3761 63.0169 16.2303V27.8125H58.9059V7.23887Z" fill="white"></path>
</svg>