<svg width="99" height="40" viewBox="0 0 99 40" fill="none" xmlns="http://www.w3.org/2000/svg">
<g clip-path="url(#clip0_400_2401)">
<path d="M12.8228 18.5505L5.65251 27.0636V38.3621H0V0H5.65251V19.8641L22.139 0H29.1523L17.0099 14.4514L29.8327 38.3621H23.2904L12.8228 18.5505Z" fill="white"/>
<path d="M34.0254 0L39.7303 1.09357e-06V38.3621H34.0254V0Z" fill="white"/>
<path d="M59.377 38.9402C57.5278 38.9402 55.7483 38.5898 54.0386 37.8891C52.3288 37.1884 50.8111 36.19 49.4851 34.8937C48.1942 33.5975 47.1474 32.0385 46.3448 30.2167C45.5773 28.3949 45.1934 26.3804 45.1934 24.1734C45.1934 21.9312 45.5773 19.9167 46.3448 18.1301C47.1125 16.3083 48.1418 14.7493 49.4328 13.453C50.7587 12.1568 52.2765 11.1583 53.9862 10.4576C55.7308 9.75695 57.5451 9.40662 59.4294 9.40662C61.3136 9.40662 63.1104 9.8095 64.8202 10.6153C66.5648 11.4211 67.9779 12.5246 69.0595 13.926V9.98467H74.6074V38.3621H69.0595V34.2105C67.943 35.682 66.5125 36.8381 64.7679 37.6789C63.0582 38.5197 61.2612 38.9402 59.377 38.9402ZM60.1098 33.7375C61.4357 33.7375 62.6568 33.4924 63.7735 33.002C64.9249 32.4764 65.9018 31.7933 66.7044 30.9524C67.5418 30.0766 68.1872 29.0606 68.6408 27.9044C69.1294 26.7133 69.3736 25.4522 69.3736 24.1209C69.3736 22.8246 69.1294 21.5984 68.6408 20.4422C68.1872 19.2511 67.5418 18.2352 66.7044 17.3944C65.9018 16.5185 64.9249 15.8353 63.7735 15.3449C62.6568 14.8193 61.4357 14.5566 60.1098 14.5566C58.7839 14.5566 57.5451 14.8018 56.3937 15.2923C55.2772 15.7828 54.3003 16.466 53.4628 17.3418C52.6254 18.1826 51.9625 19.1985 51.4739 20.3897C51.0203 21.5458 50.7936 22.7895 50.7936 24.1209C50.7936 25.4522 51.0203 26.7133 51.4739 27.9044C51.9625 29.0606 52.6254 30.0766 53.4628 30.9524C54.3003 31.8283 55.2772 32.5115 56.3937 33.002C57.5451 33.4924 58.7839 33.7375 60.1098 33.7375Z" fill="white"/>
<path d="M80.9961 9.98462H86.5439V14.9244C87.1371 13.1377 88.1142 11.8064 89.4749 10.9305C90.8357 10.0196 92.4233 9.56421 94.2378 9.56421C95.2147 9.56421 96.1045 9.66931 96.9069 9.87952C97.7444 10.0547 98.4422 10.3174 99.0005 10.6678L96.8023 16.1331C95.9649 15.5725 94.7785 15.2922 93.2432 15.2922C91.2195 15.2922 89.6145 15.8353 88.4282 16.9214C87.2419 18.0074 86.6487 19.8291 86.6487 22.3866V38.362H80.9961V9.98462Z" fill="white"/>
</g>
<defs>
<clipPath id="clip0_400_2401">
<rect width="99" height="40" fill="white"/>
</clipPath>
</defs>
</svg>
