<svg width="271" height="40" viewBox="0 0 271 40" fill="none" xmlns="http://www.w3.org/2000/svg">
<path d="M25.7785 32.1771C26.4138 30.6319 26.7207 28.9682 26.6776 27.2992C26.7369 24.8441 25.8916 22.4482 24.3033 20.5692C22.532 18.6202 19.5008 16.9996 15.3013 15.7667C14.4883 15.5567 13.6968 15.2714 12.9323 14.9214C12.2701 14.5984 11.6779 14.1569 11.1771 13.6185C10.6549 13.0262 10.3803 12.2563 10.418 11.4649C10.4341 10.3127 11.0802 9.25745 12.1032 8.72444C14.1976 7.80377 16.5827 7.80377 18.6716 8.72444C19.6031 9.06362 20.4968 9.48358 21.3529 9.9789L24.8794 2.95281C23.3019 1.97831 21.6059 1.22993 19.8238 0.718454C17.9879 0.244664 16.1035 0.002385 14.2083 0.002385C12.4047 -0.0299189 10.6118 0.2662 8.91587 0.874589C7.40836 1.46144 6.03544 2.36057 4.88866 3.50197C3.73648 4.65415 2.82121 6.02706 2.20743 7.53458C1.59904 9.08516 1.29754 10.7434 1.30831 12.4071C1.40522 15.0668 2.53047 17.5811 4.4364 19.4332C6.25619 21.0268 8.38824 22.2221 10.698 22.9328C11.7963 23.3527 13.0131 23.7296 13.7884 24.0257C14.5852 24.3272 15.3497 24.7095 16.0604 25.1779C16.5719 25.544 16.9865 26.0232 17.2718 26.5831C17.5195 27.1161 17.611 27.703 17.5356 28.2844C17.4549 29.1674 17.0295 29.9858 16.3565 30.5619C15.2528 31.3641 13.8961 31.7356 12.5393 31.6117C10.9349 31.5687 9.35736 31.1918 7.90368 30.5026C6.63307 29.8943 5.40013 29.2105 4.21027 28.4513L0 35.6874C3.32192 38.4171 7.47297 39.93 11.764 39.9731C13.8907 39.9731 16.0066 39.6393 18.0256 38.977C19.7646 38.3956 21.3744 37.4964 22.7742 36.3227C24.0556 35.1652 25.0786 33.7546 25.7785 32.1771Z" fill="white"/>
<path d="M48.5094 29.9158C46.3935 32.5539 42.544 32.9793 39.9058 30.8688C37.2677 28.7528 36.8369 24.8979 38.9475 22.2598C41.0634 19.6162 44.9129 19.1909 47.5511 21.3014C47.901 21.5814 48.2241 21.899 48.5094 22.2436L53.9957 16.7358C51.3737 13.8392 47.6426 12.1917 43.7338 12.1971C36.0832 12.1702 29.4824 17.6349 29.4824 26.0662C29.4824 34.4922 36.1532 39.9731 43.8038 39.9731C47.718 39.9731 51.4491 38.3202 54.0818 35.4236L48.5094 29.9158Z" fill="white"/>
<path d="M68.2306 12.1702C60.553 12.1594 54.3237 18.3833 54.3184 26.0663C54.3129 33.7546 60.5369 39.9838 68.2144 39.9892C75.892 39.9892 82.1159 33.76 82.1159 26.077C82.1159 18.3995 75.9027 12.1756 68.2306 12.1702ZM68.2306 32.204C64.8494 32.1825 62.1251 29.4205 62.1413 26.0339C62.1573 22.6528 64.9087 19.9177 68.2898 19.9231C71.6709 19.9339 74.4114 22.6797 74.4114 26.0663C74.4114 27.6976 73.7599 29.2697 72.597 30.4219C71.4394 31.5741 69.8673 32.2148 68.2306 32.204Z" fill="white"/>
<path d="M99.8252 12.827H96.0348V4.62723H87.722V12.827H83.9316V20.3592H87.722V39.3108H96.0348V20.3592H99.8252V12.827Z" fill="white"/>
<path d="M107.783 0.00238435C105.909 -0.00299949 104.213 1.12225 103.492 2.85589C102.77 4.58415 103.163 6.58161 104.488 7.91145C105.812 9.2413 107.809 9.63971 109.538 8.92364C111.271 8.20757 112.402 6.517 112.402 4.63799C112.402 2.08599 110.34 0.00776834 107.783 0.00238435Z" fill="white"/>
<path d="M103.625 12.827H111.927V39.3001H103.625V12.827Z" fill="white"/>
<path d="M144.398 39.3431V12.827H136.311V15.6375L135.552 14.9806C133.668 13.1716 131.148 12.1594 128.537 12.1702C121.387 12.1702 115.352 18.534 115.352 26.0662C115.352 33.593 121.403 39.9731 128.537 39.9731C131.148 39.9785 133.668 38.9716 135.552 37.1626L136.311 36.5004V39.3108L144.398 39.3431ZM129.883 32.317C126.426 32.2955 123.643 29.4743 123.664 26.0178C123.68 22.5613 126.491 19.7724 129.948 19.7831C133.404 19.7993 136.193 22.6097 136.188 26.0662C136.182 27.7299 135.515 29.3289 134.33 30.5026C133.151 31.6763 131.547 32.3278 129.883 32.317Z" fill="white"/>
<path d="M156.798 39.3431V36.5327L157.541 37.1895C159.431 38.9986 161.945 40.0054 164.562 40C171.706 40 177.742 33.6361 177.742 26.0932C177.742 18.5502 171.706 12.1971 164.562 12.1971C161.945 12.1917 159.431 13.1985 157.541 15.0075L156.798 15.6698V0.664612H148.695V39.3431H156.798ZM156.965 26.0932C156.949 23.5519 158.462 21.2583 160.804 20.2731C163.141 19.2878 165.838 19.8154 167.642 21.6029C169.44 23.3904 169.984 26.0932 169.014 28.4406C168.051 30.7826 165.763 32.317 163.227 32.317C159.776 32.317 156.976 29.5174 156.965 26.0662V26.0932Z" fill="white"/>
<path d="M209.615 39.3431V12.827H201.528V15.6375L200.769 14.9806C198.879 13.1716 196.365 12.1648 193.748 12.1702C186.604 12.1702 180.568 18.5341 180.568 26.0662C180.568 33.593 186.62 39.9731 193.748 39.9731C196.365 39.9785 198.879 38.9716 200.769 37.1626L201.528 36.5004V39.3108L209.615 39.3431ZM195.154 32.317C191.692 32.3224 188.881 29.5228 188.876 26.0609C188.87 22.599 191.676 19.7885 195.137 19.7831C198.594 19.7831 201.399 22.5882 201.399 26.0501C201.399 29.5066 198.605 32.3063 195.154 32.317Z" fill="white"/>
<path d="M226.843 19.9662C229.568 19.9769 231.775 22.1844 231.78 24.9141V39.3431H240.082V23.8857C240.082 16.8596 236.023 12.2832 229.605 12.2832C226.967 12.2832 224.189 13.4354 221.901 17.145V12.9293H213.588V39.3431H221.831V24.9141C221.831 23.5896 222.364 22.3244 223.306 21.3929C224.248 20.4669 225.519 19.95 226.843 19.9662Z" fill="white"/>
<path d="M270.336 39.3108L260.145 26.077L269.62 12.827H259.918L252.295 23.5519V0.664612H243.998V39.3108H252.295V28.3975L260.661 39.3108H270.336Z" fill="white"/>
</svg>
