<svg xmlns="http://www.w3.org/2000/svg" viewBox="0 0 416.56 61.64"><title>Scotiabank logo</title><path d="M408.86,499.93a21.43,21.43,0,1,0,21.4,21.43A21.42,21.42,0,0,0,408.86,499.93Zm0,30.87a9.46,9.46,0,1,1,6.73-2.75A9.45,9.45,0,0,1,408.86,530.81Z" transform="translate(-303.72 -481.18)" style="fill:#ec111a"/><path d="M457.54,500.95H451.7V488.31H438.89v12.64H433v11.61h5.84v29.2H451.7v-29.2h5.84Z" transform="translate(-303.72 -481.18)" style="fill:#ec111a"/><path d="M463.4,500.95h12.79v40.79H463.4Z" transform="translate(-303.72 -481.18)" style="fill:#ec111a"/><path d="M469.8,481.19a7.14,7.14,0,1,0,7.12,7.14A7.14,7.14,0,0,0,469.8,481.19Z" transform="translate(-303.72 -481.18)" style="fill:#ec111a"/><path d="M653.26,511.95a7.64,7.64,0,0,1,7.61,7.62v22.23h12.79V518c0-10.83-6.26-17.88-16.14-17.88-4.07,0-8.35,1.78-11.87,7.49v-6.5H632.84v40.7h12.7V519.57a7.63,7.63,0,0,1,7.72-7.62Z" transform="translate(-303.72 -481.18)" style="fill:#ec111a"/><path d="M720.28,541.76l-15.7-20.39,14.6-20.42H704.23l-11.75,16.53V482.21H679.7v59.55h12.78V524.94l12.89,16.82Z" transform="translate(-303.72 -481.18)" style="fill:#ec111a"/><path d="M343.44,530.76a18.52,18.52,0,0,0,1.39-7.52,15.49,15.49,0,0,0-3.66-10.37c-2.73-3-7.4-5.5-13.87-7.4a22,22,0,0,1-3.65-1.3,9.19,9.19,0,0,1-2.7-2,4.68,4.68,0,0,1-1.17-3.32,4.84,4.84,0,0,1,2.6-4.22,12.57,12.57,0,0,1,10.12,0,26,26,0,0,1,4.13,1.93l5.43-10.83a31.15,31.15,0,0,0-7.79-3.44,34.61,34.61,0,0,0-8.65-1.1,22.93,22.93,0,0,0-8.16,1.34,18.14,18.14,0,0,0-6.21,4,18.86,18.86,0,0,0-4.13,6.21,20.22,20.22,0,0,0-1.39,7.51,15.91,15.91,0,0,0,4.82,10.83,26.46,26.46,0,0,0,9.65,5.39c1.69.65,3.57,1.23,4.76,1.68a17.8,17.8,0,0,1,3.5,1.78,6,6,0,0,1,1.87,2.17,4.76,4.76,0,0,1,.41,2.62,5.26,5.26,0,0,1-1.82,3.51,8.66,8.66,0,0,1-5.88,1.62,17.78,17.78,0,0,1-7.14-1.71,53.66,53.66,0,0,1-5.69-3.16l-6.49,11.15a29,29,0,0,0,18.13,6.6,31,31,0,0,0,9.65-1.53,22.47,22.47,0,0,0,7.32-4.09A19,19,0,0,0,343.44,530.76Z" transform="translate(-303.72 -481.18)" style="fill:#ec111a"/><path d="M378.47,527.28A9.44,9.44,0,1,1,377,514a10.18,10.18,0,0,1,1.48,1.45l8.45-8.49a21.29,21.29,0,0,0-15.81-7c-11.79,0-22,8.38-22,21.37s10.28,21.43,22.07,21.43a21.4,21.4,0,0,0,15.84-7Z" transform="translate(-303.72 -481.18)" style="fill:#ec111a"/><path d="M526.22,541.81V500.95H513.76v4.33l-1.17-1a15.54,15.54,0,0,0-10.81-4.33c-11,0-20.32,9.81-20.32,21.41s9.32,21.43,20.32,21.43a15.57,15.57,0,0,0,10.81-4.33l1.17-1v4.33ZM503.86,531a9.66,9.66,0,1,1,6.85-2.8A9.64,9.64,0,0,1,503.86,531Z" transform="translate(-303.72 -481.18)" style="fill:#ec111a"/><path d="M626.72,541.81V500.95H614.26v4.33l-1.17-1a15.59,15.59,0,0,0-10.82-4.33c-11,0-20.31,9.81-20.31,21.41s9.32,21.43,20.31,21.43a15.59,15.59,0,0,0,10.82-4.33l1.17-1v4.33ZM604.43,531a9.66,9.66,0,1,1,9.62-9.66A9.66,9.66,0,0,1,604.43,531Z" transform="translate(-303.72 -481.18)" style="fill:#ec111a"/><path d="M545.33,541.81v-4.33l1.14,1a15.59,15.59,0,0,0,10.82,4.33c11,0,20.31-9.81,20.31-21.43S568.3,500,557.29,500a15.59,15.59,0,0,0-10.82,4.33l-1.14,1V482.21H532.84v59.6Zm.26-20.42a9.65,9.65,0,1,1,9.65,9.59,9.65,9.65,0,0,1-9.65-9.59Z" transform="translate(-303.72 -481.18)" style="fill:#ec111a"/></svg>