<svg width="199" height="40" viewBox="0 0 199 40" fill="none" xmlns="http://www.w3.org/2000/svg">
<g clip-path="url(#clip0_303_3596)">
<mask id="mask0_303_3596" style="mask-type:luminance" maskUnits="userSpaceOnUse" x="-206" y="-306" width="611" height="831">
<path d="M-205.985 524.763H404.985V-305.583H-205.985V524.763Z" fill="white"/>
</mask>
<g mask="url(#mask0_303_3596)">
<path d="M126.085 21.1401L126.137 21.1453L132.714 21.208V5.86064L132.536 2.81317C132.568 2.75253 132.607 2.70628 132.657 2.66413C132.708 2.62816 132.869 2.64255 133.132 2.71758L134.132 2.90773L135.162 3.17085C135.962 3.36099 136.392 3.59636 136.442 3.86462C136.481 4.10719 136.238 4.41759 135.713 4.80404L135.726 21.2378L137.043 21.2501V5.79589L136.879 2.79158C136.955 2.64872 137.144 2.58808 137.441 2.61788C138.045 2.69086 138.762 2.84195 139.592 3.07629C140.423 3.30857 140.861 3.55217 140.914 3.80501C140.958 4.08355 140.671 4.39703 140.048 4.73827L140.061 16.9734C140.343 16.2539 140.63 15.444 140.927 14.5385C141.219 13.633 141.449 12.8816 141.616 12.2742C141.783 11.6668 141.951 10.9905 142.121 10.2463C142.289 9.49602 142.413 8.92558 142.499 8.53193L142.652 7.72304L142.751 7.10944C142.879 6.94396 143.158 6.98199 143.592 7.2153L144.7 7.73435L145.95 8.44354C146.678 8.86186 146.984 9.22674 146.867 9.54125C146.811 9.70056 146.533 9.88454 146.035 10.0911C145.692 10.7222 145.33 11.3625 144.959 12.0049C144.587 12.6452 144.086 13.4141 143.459 14.3134C142.834 15.2107 141.703 16.774 140.074 18.9971V21.2717H142.034C142.6 20.579 143.043 20.0085 143.365 19.5635C143.685 19.1143 143.946 18.88 144.154 18.8533C144.358 18.8265 144.643 18.9406 145.021 19.1914C145.292 19.3949 145.587 19.6354 145.906 19.9232L146.667 20.6478C146.922 20.8863 147.068 21.1268 147.104 21.3704C147.188 21.7096 147.078 22.0693 146.795 22.1474L128.285 22.0641L126.891 22.1083L126.344 21.4351L126.085 21.1401Z" fill="white"/>
<path d="M127.813 8.63866L127.546 8.11961C127.48 8.00655 127.446 7.87396 127.438 7.72698C127.431 7.57898 127.487 7.48442 127.615 7.43508C127.742 7.38164 127.853 7.38986 127.952 7.44639C128.05 7.51011 128.182 7.62934 128.343 7.79893L128.778 8.28303C129.425 9.02203 129.948 9.6603 130.335 10.2009C130.727 10.7364 131.2 11.5237 131.752 12.5557C132.305 13.5927 132.545 14.6462 132.474 15.7152C132.421 16.3709 132.208 16.9413 131.837 17.4213C131.464 17.8993 131.016 18.1614 130.496 18.2025C129.976 18.2426 129.544 18.1059 129.206 17.7903C128.87 17.4758 128.67 17.1181 128.616 16.7121C128.559 16.3144 128.586 15.7676 128.691 15.0717C128.798 14.3811 128.854 13.7962 128.859 13.3214C128.861 12.8476 128.809 12.2627 128.697 11.5679C128.616 11.0941 128.546 10.7477 128.483 10.535C128.42 10.3202 128.306 9.97687 128.14 9.5123C127.974 9.04464 127.865 8.75069 127.813 8.63866Z" fill="white"/>
<path d="M112.175 7.06387C112.226 7.34961 112.312 7.72887 112.426 8.2068C112.57 8.79574 112.755 9.44018 112.979 10.1494C113.206 10.8514 113.641 11.8083 114.298 13.0118C115.265 11.8442 115.901 10.985 116.203 10.4289L116.457 9.96128C116.683 9.55119 116.858 9.33123 116.979 9.30554C117.098 9.27779 117.248 9.30759 117.426 9.38776C117.549 9.4556 117.747 9.60874 118.012 9.84103C118.28 10.0805 118.62 10.3313 119.022 10.5924C119.434 10.8514 119.744 11.1104 119.948 11.3632C120.16 11.612 120.231 11.8021 120.16 11.9265C120.06 12.0889 119.636 12.1567 118.894 12.1382C117.293 12.7734 115.936 13.2842 114.817 13.6799C115.069 14.0684 115.39 14.5227 115.787 15.0397C116.179 15.5588 116.84 16.158 117.764 16.8374C118.685 17.5157 119.558 18.007 120.382 18.3092L121.006 18.5435L121.721 18.6772C121.836 18.7542 121.898 18.8509 121.913 18.9732C121.922 19.0934 121.882 19.1798 121.795 19.2373C121.705 19.2938 121.51 19.3709 121.206 19.4645L120.719 19.6299C120.467 19.7194 120.284 19.8006 120.156 19.8684C120.023 19.9393 119.85 20.0688 119.633 20.262C119.41 20.4563 119.245 20.6269 119.13 20.7739C119.019 20.9198 118.903 21.147 118.791 21.4543C118.683 21.7616 118.578 21.9281 118.492 21.9477C118.4 21.9703 118.231 21.8942 117.982 21.7144L117.392 21.3156C117.126 21.1398 116.786 20.8633 116.366 20.4902C115.951 20.1171 115.574 19.7481 115.249 19.3802C114.924 19.0133 114.508 18.4212 114.003 17.5918C113.499 16.7623 113.055 15.7839 112.665 14.6471C112.279 13.5124 112.011 12.4445 111.859 11.4454C111.706 10.4444 111.61 9.65088 111.562 9.06709C111.512 8.48431 111.477 7.97246 111.446 7.53872C111.343 7.82343 111.22 8.1585 111.068 8.53262C110.914 8.91086 110.414 9.81636 109.56 11.2481C110.023 11.4814 110.262 11.688 110.273 11.8792C110.286 12.0662 110.022 12.3016 109.48 12.5812V18.5775C110.022 18.3092 111.01 17.8261 112.448 17.1139L112.827 16.9268C113.109 16.7849 113.312 16.7623 113.447 16.861C113.579 16.9556 113.624 17.0717 113.579 17.2125C113.54 17.3585 113.476 17.4674 113.39 17.5445L113.177 17.747L109.002 21.814L107.896 22.9118C107.656 23.0813 107.479 23.1482 107.361 23.1101C107.26 23.0896 107.136 22.9477 106.991 22.6805L106.393 21.6815C106.241 21.4081 106.092 21.1059 105.954 20.7739C105.814 20.4409 105.748 20.2261 105.767 20.1305C105.782 19.9825 105.878 19.8478 106.056 19.7296C106.235 19.6114 106.326 19.5241 106.326 19.4645V15.0962C105.139 16.0367 104.062 16.8035 103.098 17.4037C102.133 17.9978 101.514 18.3709 101.242 18.5096L100.797 18.744C100.667 18.8169 100.524 18.855 100.37 18.8509C100.214 18.8488 100.065 18.7861 99.933 18.673C99.7975 18.5579 99.9659 18.3143 100.438 17.9474L100.785 17.6781C101.104 17.4356 101.399 17.2002 101.666 16.9813C101.933 16.7593 102.52 16.1302 103.434 15.0962C104.345 14.0612 105.02 13.241 105.454 12.6295C105.885 12.021 106.362 11.2286 106.88 10.247C107.396 9.26751 107.724 8.56448 107.873 8.13486L108.262 7.06387H105.065C105.112 7.37325 105.146 7.68673 105.165 8.00638C105.195 8.39798 105.082 8.83172 104.84 9.31273C104.588 9.79272 104.123 10.1257 103.438 10.3149C102.756 10.506 102.225 10.395 101.847 9.98595C101.465 9.57996 101.285 9.17089 101.297 8.76593C101.306 8.33939 101.493 7.93957 101.857 7.57161L102.801 6.74936C102.978 6.54277 103.133 6.25498 103.265 5.88497L103.37 5.58588L103.403 4.91882C103.434 4.80885 103.507 4.72662 103.624 4.66804C103.734 4.61562 103.874 4.65365 104.043 4.78829C104.09 4.83249 104.164 4.93013 104.265 5.08533L104.567 5.55298L104.79 6.03195H108.634C108.689 5.83975 108.745 5.63521 108.805 5.41937C108.888 5.09972 108.994 4.47275 109.118 3.53333L109.223 2.73677C109.27 2.33181 109.321 2.10467 109.381 2.0543C109.439 2.00497 109.673 2.0358 110.082 2.13858C110.168 2.16942 110.609 2.25472 111.396 2.4017C112.188 2.55074 112.78 2.72033 113.166 2.90944C113.556 3.09651 113.742 3.28562 113.726 3.46857C113.709 3.61658 113.451 3.87148 112.948 4.2343C112.644 4.93732 112.38 5.53654 112.152 6.03195H116.109C116.475 5.58588 116.729 5.30323 116.871 5.17578C117.038 5.0288 117.197 4.94143 117.343 4.91882C117.49 4.90032 117.728 4.99796 118.055 5.21792C119.17 6.00831 119.856 6.53866 120.112 6.80075C120.369 7.06079 120.493 7.30746 120.486 7.53872C120.46 7.98274 120.163 8.22119 119.592 8.26847L118.578 8.23558C117.75 8.2253 116.983 8.5172 116.288 9.09997L115.691 9.59949C115.374 9.87084 115.154 9.95615 115.039 9.85336C114.924 9.75058 114.922 9.57585 115.027 9.33123L115.306 8.66726C115.418 8.39798 115.624 7.86454 115.934 7.06387H112.175Z" fill="white"/>
<path d="M80.2701 17.0917L78.9019 16.9694L79.1452 17.2756L79.7138 18.065L81.0511 18.0198L90.6682 18.1041C90.9689 18.0239 91.1516 17.6302 90.9555 17.2849C90.9114 17.1657 90.7482 16.9622 90.4701 16.6754C90.1386 16.3352 89.7855 16.0197 89.4109 15.7288C89.2087 15.5828 89.0629 15.5129 88.9623 15.5284C88.8659 15.5458 88.7694 15.6054 88.6739 15.7113C88.5857 15.8192 88.4235 16.0197 88.1864 16.3249C87.9565 16.622 87.742 16.8871 87.5501 17.1266H85.7693V12.228H85.8802C85.8689 12.2435 85.8648 12.263 85.8607 12.2835C85.8473 12.4089 85.8915 12.5189 86.0044 12.6155L86.4098 12.9444C86.653 13.1829 86.807 13.5128 86.8798 13.9404C86.9537 14.3638 87.0122 14.6516 87.0554 14.7996C87.0964 14.9476 87.2175 15.0905 87.4197 15.2313C87.624 15.3855 87.9565 15.4564 88.4235 15.4461C88.8854 15.4348 89.2487 15.2087 89.5032 14.7657C89.6315 14.5427 89.6746 14.2693 89.6459 13.9404C89.6141 13.6105 89.4037 13.2548 89.0137 12.8684C88.7191 12.5754 88.2069 12.3689 87.4772 12.2435L90.0318 12.2702C90.2658 12.2024 90.4413 11.9053 90.3695 11.6216C90.3561 11.562 90.3223 11.4911 90.2638 11.4161C90.1704 11.2845 89.7136 10.8991 88.8977 10.2659C88.6041 10.0419 88.3619 9.94732 88.1761 9.98124C87.9935 10.0152 87.5737 10.4396 86.923 11.2629H85.7591L85.7693 7.98111C85.794 7.96056 85.8176 7.93795 85.8381 7.91431L90.4003 7.96056C90.701 7.88039 90.8837 7.4929 90.6948 7.14961C90.6487 7.03655 90.5409 6.89266 90.3726 6.71279C90.0934 6.41883 89.6028 6.00873 88.8854 5.4866C88.6483 5.31701 88.4707 5.24199 88.3588 5.26049C88.247 5.28001 88.0951 5.4013 87.9113 5.62947C87.7215 5.85867 87.431 6.27597 87.0246 6.88341H80.8838L79.1349 6.76212L79.6696 7.45076L80.0094 7.9215L81.3457 7.87422L82.9417 7.88758V11.2629L80.9741 11.2485L79.3463 11.1057L79.9745 11.9053H80.0032L80.2259 12.2301L81.4894 12.1828L82.9417 12.1972L82.955 17.1266L81.9287 17.1215L80.2701 17.0917ZM95.1226 4.39095C95.1226 4.25734 94.8875 3.99524 94.4195 3.61393C93.9494 3.22849 93.3521 2.86773 92.6244 2.5378C92.3565 2.42577 92.1595 2.38363 92.025 2.41344C91.8885 2.44633 91.7222 2.57994 91.5272 2.82765C91.3312 3.06816 91.0879 3.39295 90.7872 3.79996H79.1L76.4838 2.50594C76.103 2.31888 75.8762 2.24899 75.7992 2.28907C75.7212 2.32607 75.6535 2.38877 75.6001 2.46997L75.7304 5.69731L75.7428 18.7218L75.6093 22.091C75.6668 22.2534 75.7376 22.3736 75.83 22.4466C75.9152 22.5226 76.103 22.5679 76.3945 22.5905C77.4455 22.6809 78.1167 22.6018 78.4082 22.3531C78.6905 22.1043 78.8342 21.8813 78.8342 21.6809V20.5893H91.0736L91.0643 21.648C91.0571 22.0108 91.1228 22.2647 91.2624 22.4127C91.4 22.5648 91.6997 22.6593 92.1502 22.7035C92.6059 22.7457 93.0514 22.6953 93.4896 22.5514C93.9269 22.4075 94.2091 22.2647 94.3261 22.1197C94.4472 21.9758 94.5324 21.7538 94.5776 21.4506L94.4493 18.6211L94.4708 5.21835C94.9009 4.8288 95.1205 4.55335 95.1226 4.39095ZM91.0879 19.5553H78.8239L78.8455 4.83702H91.0879V19.5553Z" fill="white"/>
<path d="M69.4012 8.87662C69.664 8.62686 69.8036 8.4213 69.8097 8.26815C69.8159 7.98859 69.3355 7.54766 68.3769 6.95152L67.4008 6.35025C66.9985 6.0933 66.7101 5.9751 66.5377 5.99771C66.3693 6.01518 66.162 6.193 65.9106 6.52292C65.6724 6.8436 65.3892 7.21259 65.0669 7.63296H60.9789L60.9666 4.28742L61.491 3.92255C61.6799 3.79202 61.7876 3.65121 61.8318 3.50731C61.8759 3.36342 61.8492 3.20514 61.7456 3.03452C61.646 2.86493 61.0312 2.65628 59.893 2.40344C58.764 2.15471 58.1215 2.02007 57.9634 2.00465C57.6617 1.98306 57.4697 2.01184 57.3763 2.10023C57.2891 2.18246 57.2491 2.37774 57.2655 2.6717L57.4513 5.3101V7.63296H53.7348L50.7522 6.08507C50.3632 5.88362 50.1179 5.80448 50.0152 5.84251C49.9054 5.87745 49.8233 5.93604 49.7628 6.01518L49.89 7.89197V13.8101L49.7515 16.2399C49.7515 16.4598 49.7894 16.6377 49.8787 16.7702C49.9608 16.9028 50.4032 16.9563 51.1986 16.9213C51.9951 16.8874 52.5442 16.7281 52.849 16.4444C53.159 16.1618 53.3109 15.8956 53.3109 15.6509V14.7105H57.4666L57.4759 18.7005L57.2655 22.4212C57.2973 22.6308 57.3681 22.8056 57.4851 22.9536C57.5939 23.0954 57.8977 23.1869 58.3852 23.2208C58.9179 23.2671 59.4116 23.2188 59.8529 23.0728C60.3004 22.9299 60.6063 22.7706 60.7654 22.601C60.9224 22.4304 61.0405 22.2423 61.1297 22.0255L60.9789 18.8444V14.7105H65.3861V15.5646C65.3861 16.0374 65.4343 16.3447 65.5339 16.4968C65.6283 16.649 65.8705 16.7466 66.2585 16.7929C66.5223 16.8299 66.9349 16.7887 67.4994 16.6726C68.0628 16.5544 68.4241 16.4218 68.5914 16.2831C68.7587 16.1422 68.886 15.9675 68.9753 15.763L68.8295 13.5131V9.43472L69.4012 8.87662ZM57.4513 13.6775H53.3109V8.66283H57.4513V13.6775ZM65.3861 13.6775H60.9789V8.66283H65.3861V13.6775Z" fill="white"/>
<path d="M173.204 19.8303L172.579 19.5671C171.346 19.0553 170.474 18.5301 169.961 17.9935C169.448 17.4519 169.02 16.9616 168.669 16.5279C169.731 16.0859 170.433 15.7385 170.775 15.4908C171.117 15.2411 171.417 15.0108 171.683 14.7991C172.444 14.6758 172.841 14.5144 172.867 14.2996C172.884 14.1886 172.8 14.0447 172.614 13.872C172.425 13.6973 172.133 13.5226 171.726 13.3499C171.327 13.1782 170.963 13.021 170.634 12.873C170.309 12.7301 170.064 12.6633 169.9 12.6787C169.776 12.6962 169.697 12.7301 169.659 12.7825L169.565 13.0816L169.424 13.4773C169.373 13.6192 169.236 13.872 169.032 14.2317C168.819 14.5946 168.646 14.8536 168.508 15.0201C168.368 15.1825 168.216 15.3397 168.062 15.4939L167.47 14.2759C167.373 14.1115 167.172 13.3499 166.869 11.9993H168.238V12.0939C168.238 12.3817 168.479 12.5533 168.959 12.615C169.186 12.6499 169.493 12.654 169.885 12.6191C170.278 12.5872 170.572 12.5132 170.77 12.3961C170.963 12.283 171.126 12.098 171.238 11.84L171.134 9.47399V5.15408C171.594 4.7409 171.815 4.449 171.801 4.28763C171.783 4.19205 171.665 4.05637 171.44 3.87856C171.221 3.70075 170.702 3.36363 169.887 2.86719C169.528 2.65649 169.258 2.55885 169.088 2.57529C168.916 2.5979 168.724 2.75208 168.511 3.04603C168.336 3.28551 168.17 3.51369 168.008 3.72542H163.944L162.234 2.86719C161.661 2.58865 161.33 2.46943 161.248 2.51773C161.159 2.55885 161.094 2.61229 161.047 2.67191L161.152 5.07391V13.0446C160.956 12.7671 160.65 12.4341 160.236 12.0476C159.812 11.6663 159.531 11.4813 159.386 11.5008C159.239 11.5193 159.108 11.5913 158.995 11.7157C158.879 11.8441 158.745 11.9993 158.585 12.1915C158.429 12.3848 158.205 12.6355 157.92 12.9449H157.568V10.5964C157.74 10.4699 157.887 10.3209 158.009 10.1534H160.185C160.422 10.1534 160.559 10.0948 160.604 9.9807C160.65 9.86867 160.615 9.71655 160.497 9.53154C160.373 9.34654 160.123 9.07417 159.736 8.71032C159.357 8.35161 159.098 8.16249 158.962 8.14811C158.8 8.13885 158.645 8.20361 158.494 8.33517C158.343 8.46776 158.185 8.63837 158.022 8.85113C157.859 9.06183 157.668 9.28898 157.455 9.53154H154.616L153.602 9.49763C154.21 8.76068 154.824 7.94974 155.439 7.06684H155.472L159.149 7.13468L160.509 7.22718C160.786 7.14907 160.982 6.74103 160.777 6.4296L160.763 6.39568C160.674 6.20245 160.317 5.81188 159.698 5.21781C159.418 4.96907 159.214 4.85088 159.08 4.86835C158.947 4.88788 158.777 5.01327 158.562 5.24247C158.355 5.46859 158.046 5.83244 157.641 6.32785L155.981 6.28776C156.258 5.86739 156.666 5.15614 157.206 4.15299C157.77 3.9577 158.05 3.76859 158.057 3.5918C158.057 3.30504 157.411 2.95558 156.115 2.54651L155.18 2.25872C154.703 2.08811 154.417 2.10455 154.319 2.30292L154.25 2.76852L154.126 3.40166C154.054 3.73569 153.897 4.32874 153.655 5.18903C153.419 6.04211 153.149 6.91164 152.852 7.78529C152.554 8.66099 152.211 9.46782 151.837 10.1976L151.517 10.7947C151.48 10.879 151.483 10.9808 151.527 11.1041C151.577 11.2305 151.658 11.2809 151.778 11.2459C151.901 11.21 151.996 11.1617 152.063 11.0938L152.461 10.6848L153.229 9.88717C153.258 9.85633 153.31 9.80289 153.379 9.733L153.775 10.2448L154.777 10.1534V12.9449H153.065L151.725 12.8627L151.651 12.8565V12.8596H151.648L152.063 13.5996H152.07L152.142 13.724L153.527 13.6521L154.777 13.6695L154.765 18.5434C154.756 18.8703 154.674 19.118 154.517 19.2835C154.355 19.4479 154.276 19.5322 154.276 19.5322C154.212 19.6432 154.212 19.7984 154.27 19.9978C154.328 20.1982 154.502 20.559 154.793 21.0832C155.085 21.6084 155.318 21.9959 155.491 22.2425C155.666 22.4882 155.818 22.6228 155.953 22.6465C156.052 22.6773 156.131 22.6732 156.192 22.6413C156.245 22.6084 156.341 22.4995 156.471 22.3124L156.858 21.779C157.387 21.042 157.817 20.4562 158.147 20.0255C158.482 19.5928 159.254 18.7387 160.452 17.457L160.941 16.938C161.035 16.8352 161.078 16.7232 161.072 16.5937C161.063 16.4672 160.997 16.3984 160.872 16.383C160.748 16.3696 160.655 16.3768 160.594 16.4076L159.825 16.8033L158.545 17.4488C158.32 17.5639 157.995 17.7345 157.568 17.9576V13.7034L159.499 13.7261L160.866 13.8401C160.984 13.8073 161.086 13.7148 161.152 13.5935L161.139 18.6442C161.133 18.9453 161.099 19.1498 161.047 19.2485C160.992 19.3472 160.914 19.4613 160.802 19.5815C160.695 19.7028 160.634 19.7984 160.615 19.8662C160.556 20.0636 160.74 20.523 161.163 21.2497L162.001 22.5786C162.156 22.8335 162.296 22.9651 162.421 22.9795C162.514 22.9959 162.584 22.9836 162.629 22.9538C162.676 22.9178 162.764 22.8274 162.899 22.6804L163.327 22.1819L164.13 21.3154L165.13 20.1982L166.07 19.2115L166.091 19.191C166.249 19.0203 166.472 18.7654 166.77 18.4232C166.802 18.4951 166.866 18.6442 166.958 18.8672C167.054 19.0892 167.344 19.5712 167.836 20.3215C168.33 21.0647 168.882 21.6742 169.507 22.1469L169.9 22.4358C170.036 22.5427 170.14 22.6043 170.217 22.6362C170.385 22.7194 170.511 22.7369 170.595 22.6948C170.675 22.6547 170.818 22.4214 171.026 22.0041C171.23 21.5837 171.494 21.261 171.815 21.0451C172.139 20.8262 172.378 20.6957 172.541 20.6525L173.172 20.485C173.411 20.4264 173.528 20.3226 173.516 20.1797C173.501 20.0348 173.401 19.9176 173.204 19.8303ZM163.944 4.75837H168.239V7.18402H163.944V4.75837ZM163.956 18.6442L163.944 11.9993H165.561L165.618 12.7137C165.696 13.7055 165.762 14.39 165.819 14.7765C165.873 15.1455 165.963 15.5957 166.091 16.126L166.103 16.1825C166.237 16.7345 166.382 17.2926 166.529 17.8445C165.923 18.0377 164.775 18.3965 163.956 18.6442ZM163.944 8.22005H168.239V10.9653H163.944V8.22005Z" fill="white"/>
<path d="M186.153 4.55558L186.488 4.97493L186.775 5.37167L188.163 5.29869L195.524 5.35317L196.889 5.4652C197.178 5.38297 197.391 4.98418 197.084 4.64192C196.929 4.4456 196.672 4.18557 196.312 3.86592L195.391 3.0118C195.114 2.77746 194.886 2.66029 194.718 2.6644C194.546 2.66748 194.321 2.82371 194.049 3.12794C193.778 3.42704 193.393 3.92861 192.891 4.63575L188.058 4.62753L186.147 4.50419L186.185 4.55969L186.153 4.55558ZM198.906 9.97833C198.796 9.7368 198.491 9.36576 197.995 8.86521C197.293 8.1591 196.822 7.79217 196.581 7.7675C196.331 7.75209 195.997 8.01521 195.576 8.54248C195.161 9.07694 194.821 9.52712 194.564 9.89919H186.629L185.326 9.78922L185.338 9.76558C185.763 9.7368 186.008 9.62682 186.073 9.43359C186.157 9.16328 185.765 8.76243 184.903 8.2218C184.036 7.68631 183.541 7.37899 183.408 7.30293C183.117 7.17034 182.93 7.13026 182.843 7.18165C182.751 7.23612 182.682 7.31835 182.625 7.43655L182.451 7.81376L182.033 8.63498L182.014 8.67301C181.795 9.0903 181.569 9.51068 181.336 9.93619C181.097 10.3761 180.638 11.0935 179.969 12.0854C179.298 13.0793 178.65 13.9066 178.03 14.5655L177.59 15.029C177.469 15.1513 177.416 15.2572 177.416 15.36C177.416 15.4566 177.459 15.5563 177.551 15.656C177.638 15.7577 177.857 15.694 178.207 15.4648L178.867 15.029C179.869 14.3805 180.592 13.8861 181.033 13.5469V20.0735L180.917 22.6122C180.985 22.7448 181.088 22.8579 181.221 22.9483C181.323 23.0162 181.586 23.0449 182.014 23.0357C182.131 23.0347 182.264 23.0275 182.407 23.0182C183.067 22.9761 183.499 22.8579 183.709 22.6585C183.92 22.4581 184.056 22.2453 184.116 22.0141L183.988 19.8968V12.6157C184.346 12.2745 184.516 12.037 184.504 11.9055C184.497 11.775 184.385 11.6444 184.174 11.5211C183.964 11.4008 183.771 11.2867 183.594 11.186L183.697 11.0935L184.776 10.0194C184.826 9.97422 184.909 9.90947 185.024 9.81902L185.214 10.0482L185.688 10.7019L187.075 10.63L191.899 10.6546L191.874 18.8669C191.867 19.1464 191.816 19.3911 191.721 19.6059C191.622 19.8125 191.265 19.8885 190.635 19.8299C190.012 19.7724 189.652 19.7344 189.553 19.72L189.131 19.686C188.805 19.6634 188.567 19.6799 188.415 19.7302C188.264 19.7827 188.187 19.8844 188.182 20.0427C188.179 20.1989 188.229 20.3038 188.341 20.3613C188.448 20.424 188.679 20.4857 189.029 20.5515L189.656 20.682C189.852 20.7283 190.02 20.8382 190.165 21.016C190.314 21.1939 190.411 21.4066 190.455 21.6471L190.493 22.3131C190.5 22.53 190.54 22.6698 190.608 22.7325C190.68 22.8014 190.802 22.8476 190.981 22.8692C191.324 22.9185 191.979 22.8476 192.95 22.6513C193.931 22.4581 194.506 22.197 194.687 21.8702C194.873 21.5454 194.96 21.1538 194.96 20.7046V11.0072C195.019 10.9517 195.117 10.8376 195.263 10.6742L197.274 10.6855L198.636 10.7965C198.921 10.7163 199.129 10.2959 198.906 9.97833ZM178.408 9.27223C178.552 9.2455 178.789 9.14478 179.115 8.96799L179.603 8.6987C179.64 8.68123 179.94 8.49211 180.496 8.13546L181.986 7.26182L182.014 7.24126L183.896 5.96369C184.128 5.80849 184.492 5.56901 184.989 5.25244C185.548 5.28225 185.875 5.21852 185.965 5.05613C186.023 4.95746 185.993 4.79815 185.889 4.56997C185.789 4.34899 185.41 3.94095 184.755 3.35509L183.908 2.62637C183.558 2.30775 183.319 2.17002 183.188 2.20702C183.064 2.23991 182.946 2.35708 182.836 2.5462L182.661 2.86791L182.245 3.52365L182.014 3.89367L181.582 4.59053C181.284 5.0479 180.894 5.60703 180.409 6.26587C179.927 6.93086 179.456 7.48074 179.006 7.92373L178.52 8.39858C178.248 8.66684 178.094 8.84774 178.052 8.93818C178.014 9.03377 178.03 9.11497 178.094 9.19514C178.163 9.27222 178.265 9.29689 178.408 9.27223Z" fill="white"/>
<path d="M194.994 36.2894V35.9204H195.841L194.994 33.9264V32.431L194.999 32.4145C195.043 32.3004 195.087 32.212 195.127 32.1452C195.167 32.0764 195.229 32.0414 195.308 32.0373C195.388 32.0322 195.446 32.0568 195.486 32.1082C195.527 32.1576 195.577 32.246 195.638 32.3734L197.789 37.089C197.81 37.1312 197.854 37.2103 197.934 37.3275C198.009 37.4446 198.069 37.532 198.115 37.5865C198.157 37.6399 198.214 37.6913 198.283 37.7335C198.352 37.7766 198.413 37.8044 198.469 37.8105L198.545 37.8249C198.584 37.8342 198.618 37.8455 198.647 37.8589C198.677 37.8784 198.696 37.9031 198.702 37.9349C198.706 37.9719 198.69 38.0058 198.662 38.0377C198.629 38.0696 198.591 38.086 198.545 38.086H195.899C195.811 38.086 195.749 38.0778 195.713 38.0634C195.677 38.049 195.659 38.011 195.665 37.9483C195.671 37.9113 195.684 37.8835 195.717 37.8589C195.751 37.8414 195.791 37.829 195.841 37.8249L195.991 37.8105C196.046 37.8075 196.104 37.7951 196.171 37.7705C196.238 37.7489 196.29 37.7037 196.328 37.6358C196.37 37.568 196.388 37.494 196.383 37.4107C196.376 37.3234 196.364 37.2596 196.35 37.2185L195.943 36.2894H194.994ZM194.994 32.431V33.9264L194.969 33.8668L194.147 35.9204H194.994V36.2894H194.01L193.702 37.2319C193.658 37.3614 193.648 37.4652 193.67 37.5464C193.689 37.6286 193.728 37.6882 193.787 37.7304C193.846 37.7705 193.907 37.7972 193.968 37.8054C194.029 37.8177 194.085 37.8249 194.133 37.8249H194.224C194.26 37.8249 194.292 37.8393 194.323 37.8691C194.355 37.9 194.373 37.9318 194.368 37.9668C194.361 38.0182 194.336 38.0511 194.288 38.0634C194.244 38.0798 194.176 38.086 194.089 38.086H192.386C192.272 38.086 192.192 38.0778 192.153 38.0634C192.112 38.049 192.091 38.0141 192.091 37.9575C192.091 37.9031 192.108 37.8691 192.144 37.8527C192.18 37.8414 192.228 37.8342 192.288 37.8249L192.386 37.8105C192.426 37.8075 192.488 37.791 192.571 37.753C192.657 37.717 192.724 37.6769 192.783 37.6307C192.837 37.5844 192.895 37.5258 192.946 37.4611C193 37.3933 193.048 37.3295 193.087 37.2648C193.125 37.2031 193.155 37.1425 193.176 37.089L194.994 32.431ZM157.775 38.1425V37.7705C157.799 37.7735 157.824 37.7735 157.846 37.7735C157.933 37.7766 158.023 37.7694 158.112 37.755C158.208 37.7365 158.317 37.7006 158.442 37.642C158.568 37.5865 158.681 37.494 158.783 37.3696C158.885 37.2422 158.965 37.0767 159.027 36.8804C159.087 36.681 159.128 36.5165 159.152 36.3819C159.173 36.2493 159.191 36.0293 159.205 35.722C159.223 35.4157 159.229 35.2133 159.232 35.1125C159.232 35.0087 159.229 34.8566 159.222 34.6521C159.202 34.3776 159.189 34.1495 159.173 33.9686C159.155 33.7918 159.128 33.6212 159.095 33.4588C159.062 33.2933 159.012 33.1463 158.948 33.0148C158.885 32.8863 158.794 32.7743 158.678 32.6818C158.563 32.5851 158.423 32.5194 158.264 32.4752C158.103 32.431 157.953 32.4084 157.817 32.4084H157.775V32.0455H157.805C158.031 32.0476 158.252 32.0692 158.468 32.1113C158.684 32.1535 158.885 32.212 159.068 32.2891C159.251 32.3652 159.422 32.4587 159.579 32.5697C159.737 32.6818 159.878 32.8082 160.002 32.951C160.123 33.0949 160.237 33.2645 160.335 33.4567C160.437 33.6489 160.511 33.8586 160.566 34.0816C160.619 34.3057 160.652 34.5092 160.668 34.6952C160.68 34.8802 160.686 35.0468 160.686 35.1968C160.683 35.4065 160.669 35.5987 160.644 35.7775C160.619 35.9584 160.576 36.1311 160.52 36.3017C160.467 36.4713 160.387 36.6481 160.281 36.831C160.175 37.015 160.044 37.1846 159.89 37.3398C159.735 37.494 159.585 37.6122 159.449 37.6913C159.309 37.7705 159.143 37.8506 158.94 37.9318C158.742 38.0141 158.602 38.0624 158.523 38.0778C158.448 38.0911 158.317 38.1076 158.135 38.1199C157.953 38.1333 157.84 38.1425 157.796 38.1425H157.775ZM175.25 32.3333L175.328 33.8422C175.334 33.9028 175.327 33.9604 175.315 34.0087C175.306 34.059 175.29 34.095 175.271 34.1166C175.25 34.1351 175.216 34.1495 175.172 34.1536C175.121 34.1597 175.086 34.1464 175.062 34.1166C175.039 34.0827 175.017 34.0364 175.002 33.9789L174.97 33.8668C174.94 33.7692 174.885 33.6489 174.812 33.503C174.733 33.355 174.65 33.2337 174.557 33.1299C174.466 33.025 174.361 32.9346 174.236 32.8524C174.117 32.7743 173.976 32.7023 173.807 32.6417C173.641 32.58 173.449 32.5471 173.237 32.5451C173.002 32.5409 172.804 32.58 172.63 32.6581C172.462 32.7362 172.326 32.838 172.222 32.9685C172.118 33.098 172.035 33.2399 171.972 33.3909C171.911 33.5451 171.854 33.7137 171.81 33.9028C171.763 34.0909 171.733 34.2677 171.715 34.4362C171.699 34.6068 171.69 34.8042 171.693 35.0303C171.693 35.1865 171.696 35.3613 171.703 35.5565C171.708 35.7488 171.724 35.9358 171.752 36.1136C171.779 36.2914 171.822 36.4662 171.885 36.6368C171.948 36.8074 172.032 36.9595 172.142 37.0962C172.25 37.2267 172.385 37.3408 172.542 37.4333C172.701 37.5258 172.853 37.5906 172.991 37.6214C173.134 37.6543 173.291 37.6625 173.471 37.6451C173.652 37.6286 173.814 37.5906 173.954 37.532C174.091 37.4714 174.225 37.3912 174.345 37.2966C174.468 37.2 174.584 37.088 174.699 36.9575C174.812 36.8249 174.909 36.7005 174.988 36.5803C175.062 36.4579 175.135 36.3819 175.195 36.3511C175.259 36.3182 175.306 36.313 175.346 36.3418C175.39 36.3675 175.413 36.4117 175.418 36.4723C175.424 36.534 175.401 36.6142 175.346 36.7128C175.25 36.8855 175.16 37.0356 175.075 37.162C174.991 37.2874 174.87 37.4251 174.712 37.5803C174.556 37.7314 174.389 37.8455 174.221 37.9246C174.051 38.0017 173.86 38.0603 173.647 38.0932C173.439 38.1292 173.235 38.1446 173.033 38.1425C172.796 38.1425 172.553 38.1158 172.308 38.0696C172.062 38.0213 171.832 37.9431 171.619 37.8414C171.408 37.7386 171.199 37.5844 171.003 37.383C170.806 37.1774 170.656 36.9821 170.554 36.7889C170.452 36.5967 170.377 36.4096 170.326 36.2205C170.278 36.0335 170.247 35.8526 170.225 35.6747C170.208 35.4959 170.199 35.3273 170.199 35.1629C170.199 35.0005 170.213 34.796 170.247 34.5544C170.275 34.3149 170.321 34.1042 170.381 33.9305C170.439 33.7538 170.518 33.5831 170.62 33.4146C170.721 33.245 170.824 33.1021 170.927 32.9829C171.028 32.8657 171.153 32.7568 171.295 32.655C171.436 32.5512 171.587 32.4618 171.748 32.3827C171.904 32.3025 172.075 32.2429 172.264 32.1976C172.449 32.1514 172.664 32.1206 172.9 32.1113C173.104 32.1082 173.288 32.1144 173.451 32.1391C173.613 32.1606 173.773 32.2028 173.928 32.2562C174.087 32.3097 174.224 32.3683 174.342 32.434C174.46 32.4988 174.556 32.5389 174.623 32.5533C174.689 32.5656 174.748 32.5533 174.801 32.5173C174.83 32.4957 174.854 32.4669 174.87 32.4227C174.884 32.3827 174.899 32.3343 174.91 32.2819C174.924 32.2295 174.94 32.1843 174.964 32.1514C174.991 32.1144 175.027 32.098 175.073 32.0969C175.12 32.0959 175.16 32.1093 175.191 32.136C175.21 32.1596 175.222 32.1925 175.231 32.2295C175.242 32.2696 175.247 32.3025 175.25 32.3333ZM179.901 34.6243V33.1792C179.901 33.1093 179.892 33.025 179.873 32.9264C179.857 32.8277 179.821 32.7393 179.767 32.6622C179.711 32.5851 179.643 32.5214 179.56 32.471C179.475 32.4197 179.395 32.3868 179.32 32.3734L179.24 32.36C179.214 32.359 179.184 32.3457 179.153 32.323C179.122 32.2984 179.113 32.2624 179.122 32.2213C179.13 32.1761 179.149 32.1421 179.18 32.1236C179.208 32.1051 179.246 32.0959 179.296 32.0959H181.93C181.979 32.098 182.014 32.1082 182.039 32.1236C182.062 32.1411 182.077 32.172 182.078 32.2162C182.081 32.2583 182.069 32.2922 182.051 32.3189C182.032 32.3426 182.003 32.3539 181.963 32.359L181.869 32.3703C181.787 32.3816 181.709 32.4073 181.64 32.4454C181.566 32.4844 181.501 32.5409 181.441 32.6221C181.382 32.7023 181.34 32.7958 181.314 32.9079C181.29 33.0158 181.278 33.1155 181.278 33.2049V37.0644C181.278 37.1486 181.284 37.2381 181.302 37.3347C181.321 37.4303 181.358 37.5115 181.415 37.5803C181.47 37.6482 181.543 37.7037 181.633 37.7407C181.719 37.7797 181.794 37.8044 181.852 37.8105L181.93 37.8249C181.957 37.829 181.989 37.8434 182.021 37.8691C182.054 37.8907 182.072 37.9246 182.072 37.9668C182.069 38.0099 182.048 38.0377 182.014 38.0583C181.974 38.0778 181.924 38.086 181.86 38.086H179.26C179.211 38.086 179.169 38.0737 179.135 38.0511C179.101 38.0274 179.09 37.9884 179.105 37.9349C179.11 37.9031 179.128 37.8784 179.153 37.8578C179.18 37.8414 179.211 37.829 179.243 37.8249L179.326 37.8105C179.373 37.8054 179.436 37.789 179.51 37.7571C179.584 37.7273 179.654 37.68 179.717 37.6173C179.784 37.5598 179.827 37.4775 179.857 37.383C179.883 37.2894 179.898 37.1867 179.901 37.0767V34.9758H177.795V37.0767C177.795 37.1702 177.807 37.2627 177.831 37.348C177.855 37.4375 177.894 37.5186 177.956 37.5937C178.018 37.6708 178.088 37.7222 178.161 37.755C178.24 37.7869 178.306 37.8054 178.368 37.8105L178.462 37.8249C178.487 37.829 178.511 37.8455 178.542 37.8712C178.569 37.8989 178.58 37.9308 178.58 37.9719C178.583 38.0099 178.571 38.0377 178.542 38.0583C178.511 38.0778 178.473 38.086 178.426 38.086H175.787C175.743 38.086 175.701 38.0737 175.669 38.0511C175.636 38.0274 175.624 37.9884 175.635 37.9349C175.641 37.9072 175.657 37.8835 175.686 37.8589C175.713 37.8414 175.743 37.829 175.77 37.8249L175.861 37.8105C175.898 37.8075 175.947 37.791 176.013 37.7602C176.079 37.7273 176.147 37.6821 176.215 37.6286C176.287 37.5711 176.341 37.494 176.375 37.3891C176.411 37.2894 176.43 37.1826 176.432 37.0767V33.1792C176.432 33.1114 176.424 33.0292 176.405 32.9223C176.387 32.8195 176.348 32.7188 176.286 32.6262C176.224 32.5337 176.157 32.471 176.083 32.4351C176.01 32.4053 175.944 32.3827 175.881 32.3734L175.781 32.36C175.746 32.359 175.71 32.3457 175.682 32.323C175.651 32.2984 175.638 32.2624 175.648 32.2213C175.657 32.1761 175.678 32.1421 175.71 32.1236C175.743 32.1051 175.778 32.0959 175.822 32.0959H178.447C178.482 32.098 178.517 32.1051 178.551 32.1144C178.58 32.1257 178.597 32.1596 178.6 32.2141C178.604 32.2696 178.586 32.3056 178.553 32.3241C178.52 32.3426 178.492 32.3539 178.462 32.359L178.368 32.3703C178.303 32.3816 178.231 32.4084 178.157 32.4484C178.085 32.4885 178.014 32.5533 177.944 32.6365C177.874 32.7239 177.834 32.8102 177.819 32.8966C177.803 32.9829 177.795 33.0692 177.795 33.1597V34.6243H179.901ZM184.512 37.0644C184.516 37.1774 184.531 37.2802 184.544 37.3696C184.566 37.4549 184.603 37.5341 184.665 37.6029C184.725 37.6687 184.801 37.7191 184.894 37.755C184.99 37.7869 185.069 37.8054 185.137 37.8105L185.264 37.8249C185.304 37.829 185.335 37.8383 185.354 37.8455C185.374 37.8568 185.386 37.8907 185.392 37.9452C185.394 37.9997 185.385 38.0398 185.354 38.0583C185.325 38.0778 185.282 38.086 185.229 38.086H182.415C182.367 38.086 182.326 38.0778 182.291 38.0562C182.262 38.0356 182.251 37.9935 182.265 37.9349C182.271 37.9031 182.286 37.8784 182.315 37.8578C182.342 37.8414 182.371 37.829 182.4 37.8249L182.502 37.8105C182.552 37.8054 182.613 37.7869 182.698 37.755C182.779 37.7222 182.853 37.6769 182.915 37.6173C182.978 37.5598 183.028 37.4652 183.064 37.3449C183.099 37.2226 183.118 37.1137 183.124 37.0202V33.1833C183.124 33.1093 183.113 33.0189 183.099 32.9079C183.085 32.7958 183.043 32.7023 182.978 32.6262C182.915 32.5512 182.834 32.4916 182.741 32.4515C182.646 32.4104 182.569 32.3857 182.507 32.3734L182.415 32.36C182.385 32.359 182.354 32.3467 182.326 32.3241C182.297 32.3004 182.286 32.2696 182.297 32.2244C182.306 32.1812 182.326 32.1483 182.356 32.1257C182.386 32.1051 182.425 32.0959 182.469 32.0959L185.199 32.098C185.246 32.1021 185.285 32.1144 185.312 32.136C185.345 32.1596 185.354 32.1925 185.353 32.2377C185.345 32.2696 185.331 32.2984 185.304 32.323C185.278 32.3457 185.248 32.359 185.214 32.36L185.105 32.3734C185.028 32.3857 184.951 32.4145 184.874 32.4628C184.794 32.5122 184.729 32.5738 184.67 32.6489C184.613 32.7218 184.575 32.7979 184.547 32.8801C184.526 32.9634 184.512 33.0569 184.512 33.1535V37.0644ZM191.004 37.6399C191.007 37.7941 190.988 37.9133 190.944 38.0017C190.9 38.0891 190.849 38.1374 190.782 38.1466C190.714 38.1528 190.649 38.1333 190.58 38.086C190.543 38.0675 190.494 38.0223 190.432 37.9514C190.367 37.8835 190.32 37.8249 190.29 37.7828L186.944 33.3827V37.2052C186.941 37.309 186.955 37.3974 186.991 37.4714C187.026 37.5464 187.089 37.6091 187.175 37.6646C187.264 37.7191 187.352 37.755 187.442 37.7735C187.531 37.7941 187.604 37.8054 187.671 37.8105L187.801 37.8249C187.832 37.829 187.875 37.8393 187.916 37.8527C187.96 37.8691 187.981 37.9031 187.981 37.9596C187.985 38.0182 187.965 38.0521 187.93 38.0696C187.891 38.086 187.844 38.0953 187.788 38.0911L185.741 38.086C185.694 38.086 185.651 38.0737 185.614 38.0459C185.577 38.0213 185.566 37.9812 185.584 37.9246C185.595 37.8969 185.614 37.8753 185.643 37.8578C185.67 37.8414 185.705 37.829 185.747 37.8249L185.86 37.8105C185.903 37.8105 185.966 37.7972 186.043 37.7787C186.123 37.7602 186.202 37.7273 186.281 37.6821C186.355 37.6358 186.414 37.5711 186.452 37.4775C186.493 37.3891 186.511 37.2997 186.511 37.2206V33.3046C186.511 33.21 186.506 33.1062 186.488 32.9983C186.476 32.8863 186.443 32.7907 186.395 32.7013C186.343 32.6139 186.287 32.5471 186.209 32.505C186.136 32.4618 186.062 32.431 185.992 32.4135C185.921 32.3919 185.86 32.3806 185.816 32.3734L185.692 32.36C185.667 32.36 185.639 32.3528 185.609 32.3333C185.577 32.3169 185.566 32.2788 185.571 32.2213C185.577 32.1658 185.601 32.135 185.636 32.1195C185.673 32.1082 185.733 32.098 185.82 32.0959L187.613 32.0856L190.556 35.8947V32.9891C190.556 32.9181 190.536 32.838 190.503 32.7506C190.471 32.6643 190.42 32.5913 190.355 32.5368C190.29 32.4762 190.215 32.4392 190.132 32.4145C190.044 32.394 189.973 32.3806 189.908 32.3734L189.677 32.36C189.637 32.36 189.603 32.3487 189.57 32.3261C189.542 32.3025 189.532 32.2686 189.542 32.2213C189.545 32.1812 189.569 32.1514 189.606 32.1308C189.644 32.1093 189.69 32.098 189.741 32.098H191.765C191.811 32.098 191.849 32.1113 191.881 32.135C191.91 32.1576 191.927 32.1946 191.927 32.2398C191.922 32.2747 191.91 32.3004 191.893 32.3241C191.871 32.3467 191.843 32.359 191.807 32.36L191.636 32.3734C191.576 32.3806 191.499 32.3991 191.4 32.431C191.304 32.4669 191.231 32.5111 191.182 32.5656C191.131 32.6201 191.086 32.6961 191.054 32.7907C191.022 32.8811 191.004 32.9552 191.004 33.0086V37.6399ZM163.121 37.0356C163.123 37.1692 163.138 37.2823 163.159 37.3706C163.181 37.4601 163.228 37.5382 163.292 37.6029C163.358 37.6708 163.432 37.7191 163.51 37.755C163.591 37.7869 163.656 37.8054 163.702 37.8105L163.798 37.8249C163.823 37.829 163.849 37.8434 163.882 37.863C163.906 37.8846 163.924 37.9133 163.931 37.9514C163.932 37.9884 163.924 38.0213 163.9 38.0511C163.872 38.0778 163.842 38.0911 163.807 38.086L161.026 38.0829C160.979 38.0829 160.936 38.0696 160.904 38.0459C160.87 38.0223 160.861 37.9853 160.876 37.9318C160.879 37.9205 160.894 37.8989 160.922 37.8712C160.95 37.8414 160.974 37.827 160.991 37.8249L161.131 37.8105C161.172 37.8105 161.23 37.7972 161.299 37.7735C161.37 37.753 161.447 37.7109 161.525 37.6492C161.605 37.5885 161.659 37.5022 161.695 37.3912C161.726 37.2833 161.745 37.1682 161.746 37.0479V33.1463C161.746 33.0888 161.739 33.0035 161.72 32.8832C161.7 32.765 161.663 32.6735 161.599 32.6098C161.536 32.5451 161.462 32.4916 161.379 32.4515C161.293 32.4104 161.221 32.3857 161.155 32.3734L161.051 32.357C161.016 32.3539 160.985 32.3426 160.953 32.323C160.925 32.3004 160.914 32.2696 160.925 32.2213C160.935 32.1761 160.956 32.1421 160.991 32.1206C161.024 32.101 161.062 32.0908 161.103 32.0908H166.263L166.257 33.7126C166.254 33.7651 166.245 33.8093 166.228 33.8422C166.215 33.8781 166.188 33.9007 166.15 33.912C166.107 33.9234 166.069 33.9203 166.038 33.9028C166 33.8833 165.974 33.8504 165.958 33.8041L165.898 33.6335C165.866 33.5451 165.818 33.4444 165.763 33.3334C165.709 33.2224 165.636 33.1093 165.543 32.9963C165.455 32.8811 165.339 32.7804 165.2 32.692C165.064 32.6057 164.915 32.5409 164.773 32.505C164.627 32.469 164.506 32.4495 164.418 32.4495H163.413C163.364 32.4515 163.32 32.4587 163.281 32.471C163.241 32.4793 163.205 32.5019 163.175 32.5337C163.144 32.5636 163.129 32.5913 163.123 32.6191C163.121 32.6427 163.121 32.6961 163.121 32.7701V34.8083H163.743C163.809 34.8083 163.882 34.796 163.95 34.7734C164.021 34.7477 164.09 34.7137 164.149 34.6737C164.214 34.6336 164.279 34.5698 164.347 34.4763C164.416 34.3879 164.468 34.3119 164.5 34.2512C164.539 34.1896 164.568 34.1227 164.596 34.0498C164.619 33.9789 164.643 33.9203 164.66 33.8781C164.679 33.836 164.713 33.8103 164.761 33.8021C164.812 33.7867 164.85 33.8021 164.881 33.8298C164.912 33.8627 164.927 33.9162 164.927 33.9819V36.052C164.927 36.0941 164.915 36.129 164.89 36.1588C164.868 36.1866 164.829 36.203 164.776 36.2041C164.723 36.2041 164.682 36.1835 164.646 36.1393C164.63 36.1229 164.605 36.0725 164.579 35.9851C164.555 35.8988 164.506 35.7981 164.441 35.6871C164.373 35.5771 164.3 35.4805 164.223 35.4055C164.146 35.3273 164.058 35.2708 163.964 35.2318C163.867 35.1948 163.796 35.1752 163.739 35.1752H163.121V37.0356ZM157.775 32.0455V32.4084C157.64 32.4145 157.511 32.4402 157.383 32.4844C157.247 32.5337 157.125 32.6006 157.014 32.692C156.902 32.7784 156.799 32.914 156.7 33.0918C156.602 33.2676 156.531 33.4629 156.486 33.6654C156.438 33.872 156.403 34.0971 156.38 34.3376C156.356 34.5812 156.339 34.8165 156.329 35.0468C156.321 35.277 156.317 35.4476 156.321 35.5514C156.321 35.6953 156.326 35.8556 156.345 36.0335C156.362 36.2092 156.389 36.3901 156.428 36.572C156.466 36.755 156.51 36.8937 156.561 36.9883C156.616 37.0829 156.67 37.1702 156.726 37.2524C156.784 37.3306 156.865 37.4107 156.965 37.495C157.07 37.5772 157.208 37.6451 157.381 37.6985C157.52 37.7407 157.653 37.7653 157.775 37.7705V38.1425C157.682 38.1446 157.552 38.1333 157.392 38.1127C157.218 38.0932 157.058 38.0634 156.912 38.0223C156.769 37.9812 156.595 37.9113 156.395 37.8075C156.192 37.7047 156.015 37.5916 155.864 37.4703C155.715 37.347 155.575 37.1949 155.448 37.0181C155.314 36.8393 155.215 36.6666 155.145 36.498C155.072 36.3315 155.018 36.1691 154.983 36.0098C154.949 35.8526 154.923 35.7159 154.911 35.6038C154.899 35.4897 154.89 35.3643 154.889 35.2307C154.889 35.1403 154.889 35.0272 154.89 34.8998C154.894 34.7703 154.905 34.6212 154.939 34.4506C154.963 34.28 155.013 34.1094 155.067 33.9388C155.124 33.7651 155.205 33.5975 155.299 33.4249C155.397 33.2563 155.501 33.1093 155.619 32.9911C155.734 32.8729 155.858 32.7619 155.989 32.6643C156.118 32.5656 156.249 32.4782 156.388 32.4053C156.522 32.3313 156.68 32.2655 156.865 32.2059C157.046 32.1483 157.206 32.1021 157.338 32.0815C157.47 32.0589 157.612 32.0455 157.775 32.0455ZM133.952 36.2894V35.9204H134.798L133.952 33.9264V32.431L133.958 32.4145C134 32.3004 134.044 32.212 134.082 32.1452C134.124 32.0764 134.187 32.0414 134.266 32.0373C134.345 32.0322 134.405 32.0568 134.442 32.1082C134.485 32.1576 134.532 32.246 134.594 32.3734L136.746 37.089C136.766 37.1312 136.811 37.2103 136.89 37.3275C136.967 37.4446 137.027 37.532 137.071 37.5865C137.115 37.6399 137.171 37.6913 137.24 37.7335C137.309 37.7766 137.372 37.8044 137.426 37.8105L137.503 37.8249C137.541 37.8342 137.575 37.8455 137.603 37.8589C137.633 37.8784 137.653 37.9031 137.659 37.9349C137.663 37.9719 137.649 38.0058 137.619 38.0377C137.587 38.0696 137.55 38.086 137.503 38.086H134.855C134.768 38.086 134.705 38.0778 134.669 38.0634C134.633 38.049 134.616 38.011 134.622 37.9483C134.628 37.9113 134.643 37.8835 134.674 37.8589C134.708 37.8414 134.749 37.829 134.798 37.8249L134.95 37.8105C135.001 37.8075 135.059 37.7951 135.128 37.7705C135.196 37.7489 135.249 37.7037 135.286 37.6358C135.329 37.568 135.345 37.494 135.339 37.4107C135.332 37.3234 135.322 37.2596 135.305 37.2185L134.903 36.2894H133.952ZM143.264 37.6399C143.264 37.7941 143.245 37.9133 143.201 38.0017C143.158 38.0891 143.106 38.1374 143.038 38.1466C142.971 38.1528 142.908 38.1333 142.84 38.086C142.801 38.0675 142.756 38.0223 142.689 37.9514C142.625 37.8835 142.579 37.8249 142.549 37.7828L139.203 33.3827V37.2052C139.2 37.309 139.215 37.3974 139.249 37.4714C139.284 37.5464 139.348 37.6091 139.434 37.6646C139.523 37.7191 139.61 37.755 139.699 37.7735C139.79 37.7941 139.863 37.8054 139.93 37.8105L140.062 37.8249C140.091 37.829 140.131 37.8393 140.173 37.8527C140.216 37.8691 140.239 37.9031 140.241 37.9596C140.242 38.0182 140.225 38.0521 140.19 38.0696C140.149 38.086 140.106 38.0953 140.046 38.0911L138 38.086C137.953 38.086 137.909 38.0737 137.873 38.0459C137.835 38.0213 137.826 37.9812 137.844 37.9246C137.853 37.8969 137.873 37.8753 137.9 37.8578C137.929 37.8414 137.964 37.829 138.006 37.8249L138.12 37.8105C138.161 37.8105 138.222 37.7972 138.303 37.7787C138.382 37.7602 138.461 37.7273 138.536 37.6821C138.612 37.6358 138.672 37.5711 138.711 37.4775C138.75 37.3891 138.771 37.2997 138.771 37.2206V33.3046C138.771 33.21 138.762 33.1062 138.747 32.9983C138.735 32.8863 138.7 32.7907 138.651 32.7013C138.602 32.6139 138.543 32.5471 138.471 32.505C138.395 32.4618 138.323 32.431 138.25 32.4135C138.179 32.3919 138.12 32.3806 138.073 32.3734L137.95 32.36C137.925 32.36 137.897 32.3528 137.867 32.3333C137.836 32.3169 137.826 32.2788 137.829 32.2213C137.836 32.1658 137.859 32.135 137.894 32.1195C137.932 32.1082 137.993 32.098 138.078 32.0959L139.871 32.0856L142.813 35.8947V32.9891C142.813 32.9181 142.795 32.838 142.76 32.7506C142.727 32.6643 142.68 32.5913 142.615 32.5368C142.547 32.4762 142.472 32.4392 142.388 32.4145C142.304 32.394 142.23 32.3806 142.165 32.3734L141.937 32.36C141.896 32.36 141.862 32.3487 141.83 32.3261C141.8 32.3025 141.788 32.2686 141.797 32.2213C141.805 32.1812 141.827 32.1514 141.864 32.1308C141.904 32.1093 141.948 32.098 141.998 32.098H144.024C144.069 32.098 144.107 32.1113 144.139 32.135C144.167 32.1576 144.184 32.1946 144.184 32.2398C144.181 32.2747 144.169 32.3004 144.149 32.3241C144.131 32.3467 144.101 32.359 144.066 32.36L143.894 32.3734C143.833 32.3806 143.754 32.3991 143.657 32.431C143.564 32.4669 143.49 32.5111 143.441 32.5656C143.388 32.6201 143.347 32.6961 143.313 32.7907C143.281 32.8811 143.264 32.9552 143.264 33.0086V37.6399ZM146.52 34.8597L148.173 33.1484C148.212 33.1062 148.252 33.0487 148.297 32.9757C148.344 32.9007 148.378 32.8277 148.409 32.7516C148.445 32.6797 148.449 32.6139 148.434 32.5574C148.409 32.5029 148.372 32.4618 148.317 32.431C148.26 32.3991 148.203 32.3806 148.152 32.3734L148.011 32.36C147.948 32.359 147.904 32.3528 147.874 32.3374C147.844 32.3261 147.83 32.2922 147.829 32.2377C147.826 32.1812 147.851 32.1452 147.889 32.1257C147.934 32.1082 147.984 32.098 148.037 32.098H150.386C150.428 32.101 150.467 32.1093 150.503 32.1206C150.543 32.136 150.562 32.1658 150.563 32.2162C150.563 32.2686 150.547 32.3025 150.51 32.3241C150.472 32.3487 150.433 32.36 150.396 32.36H150.325C150.262 32.36 150.162 32.3806 150.029 32.4145C149.895 32.4515 149.78 32.4895 149.69 32.5266C149.601 32.5666 149.486 32.6314 149.345 32.7188C149.204 32.8082 149.11 32.8801 149.057 32.9366L148.044 34.0148L149.613 36.7262C149.631 36.7694 149.699 36.865 149.813 37.0181L149.964 37.2319C150.029 37.3213 150.085 37.3912 150.138 37.4446C150.187 37.4981 150.246 37.5495 150.312 37.6081C150.38 37.6646 150.448 37.7088 150.51 37.7468C150.575 37.7849 150.634 37.8054 150.688 37.8105L150.804 37.8249C150.829 37.829 150.86 37.8383 150.897 37.8506C150.937 37.863 150.963 37.8969 150.969 37.9514C150.979 38.0058 150.957 38.0428 150.91 38.0603C150.86 38.0778 150.792 38.086 150.7 38.086H148.056C148.011 38.086 147.973 38.0768 147.94 38.0562C147.91 38.0356 147.9 37.9966 147.906 37.9483C147.91 37.8928 147.938 37.8527 147.988 37.8383L148.078 37.8249L148.152 37.8105C148.191 37.8054 148.239 37.791 148.295 37.7674C148.35 37.7458 148.384 37.7037 148.407 37.6451C148.424 37.5885 148.424 37.5228 148.402 37.4467C148.378 37.3706 148.36 37.3131 148.341 37.273L147.019 34.9964L146.52 35.4846V37.0479C146.52 37.1312 146.53 37.2226 146.554 37.3172C146.577 37.4138 146.616 37.495 146.666 37.5659C146.72 37.6338 146.786 37.6913 146.874 37.7365C146.96 37.7797 147.028 37.8054 147.078 37.8105L147.169 37.8249C147.205 37.829 147.238 37.8455 147.265 37.8712C147.293 37.8989 147.309 37.9308 147.309 37.9647C147.306 38.0213 147.285 38.0562 147.249 38.0675C147.215 38.0798 147.166 38.086 147.101 38.086H144.502C144.448 38.086 144.406 38.0768 144.374 38.0521C144.339 38.0284 144.33 37.9914 144.346 37.9349C144.35 37.9072 144.37 37.8835 144.398 37.8589C144.43 37.8414 144.461 37.829 144.486 37.8249L144.6 37.8105C144.649 37.8075 144.703 37.7941 144.759 37.7653C144.818 37.7365 144.882 37.6872 144.951 37.6122C145.022 37.5402 145.072 37.4611 145.103 37.3768C145.131 37.2946 145.144 37.1928 145.147 37.0767V33.1813C145.147 33.1062 145.138 33.0189 145.126 32.9181C145.109 32.8174 145.072 32.7249 145.02 32.6489C144.959 32.5666 144.89 32.5029 144.809 32.4556C144.726 32.4073 144.656 32.3806 144.596 32.3734L144.439 32.3652C144.401 32.3652 144.371 32.3528 144.339 32.3272C144.309 32.3025 144.299 32.2696 144.309 32.2285C144.318 32.1843 144.339 32.1514 144.367 32.1319C144.398 32.1113 144.439 32.1021 144.483 32.1021L147.181 32.1082C147.229 32.1093 147.268 32.1195 147.29 32.136C147.315 32.1576 147.328 32.1884 147.328 32.2285C147.324 32.284 147.309 32.32 147.283 32.3333C147.255 32.3487 147.226 32.359 147.189 32.36L147.051 32.3734C146.974 32.3827 146.903 32.4073 146.829 32.4495C146.756 32.4916 146.693 32.5533 146.643 32.6314C146.592 32.7136 146.557 32.7958 146.542 32.8832C146.527 32.9706 146.52 33.061 146.52 33.1535V34.8597ZM133.952 32.431V33.9264L133.926 33.8668L133.105 35.9204H133.952V36.2894H132.965L132.659 37.2319C132.617 37.3614 132.605 37.4652 132.624 37.5464C132.643 37.6286 132.685 37.6882 132.745 37.7304C132.804 37.7705 132.866 37.7972 132.925 37.8054C132.987 37.8177 133.042 37.8249 133.09 37.8249H133.182C133.215 37.8249 133.247 37.8393 133.281 37.8691C133.312 37.9 133.328 37.9318 133.324 37.9668C133.318 38.0182 133.292 38.0511 133.247 38.0634C133.2 38.0798 133.134 38.086 133.045 38.086H131.343C131.226 38.086 131.148 38.0778 131.113 38.0634C131.067 38.049 131.048 38.0141 131.048 37.9575C131.048 37.9031 131.066 37.8691 131.1 37.8527C131.135 37.8414 131.184 37.8342 131.246 37.8249L131.343 37.8105C131.382 37.8075 131.444 37.791 131.528 37.753C131.612 37.717 131.681 37.6769 131.74 37.6307C131.795 37.5844 131.851 37.5258 131.905 37.4611C131.959 37.3933 132.004 37.3295 132.044 37.2648C132.081 37.2031 132.109 37.1425 132.131 37.089L133.952 32.431ZM128.352 38.086V37.7109C128.486 37.7057 128.609 37.6882 128.725 37.6584C128.861 37.6245 128.985 37.5536 129.093 37.4508C129.202 37.347 129.273 37.2329 129.307 37.1106C129.341 36.9862 129.365 36.8475 129.372 36.6923C129.382 36.5381 129.387 36.4179 129.387 36.3315C129.381 36.165 129.349 36.0078 129.293 35.8598C129.237 35.7128 129.147 35.5894 129.021 35.4918C128.9 35.3993 128.752 35.3232 128.582 35.2718C128.512 35.2544 128.435 35.2369 128.352 35.2235V34.7703C128.511 34.7292 128.657 34.6644 128.793 34.576C128.934 34.4866 129.045 34.3705 129.125 34.2276C129.206 34.0827 129.246 33.9007 129.249 33.6767C129.252 33.4506 129.233 33.2666 129.184 33.1175C129.121 32.9295 129.035 32.7958 128.923 32.7085C128.812 32.6221 128.689 32.5605 128.561 32.5266C128.491 32.508 128.42 32.4937 128.352 32.4844V32.0959H128.607C128.831 32.098 129.041 32.1093 129.24 32.1278C129.436 32.1483 129.614 32.1812 129.764 32.2295C129.916 32.2799 130.058 32.3528 130.188 32.4454C130.318 32.5389 130.422 32.6499 130.503 32.7701C130.583 32.8925 130.642 33.0435 130.683 33.2203C130.715 33.3971 130.715 33.5831 130.67 33.7784C130.632 33.9398 130.573 34.0734 130.493 34.1834C130.413 34.2913 130.313 34.39 130.197 34.4743C130.081 34.5606 129.919 34.6428 129.717 34.725C129.513 34.8042 129.356 34.8494 129.241 34.8638L128.666 34.9604C128.945 34.9902 129.178 35.0211 129.365 35.0529C129.552 35.0858 129.74 35.1382 129.93 35.2122C130.121 35.2852 130.279 35.3736 130.403 35.4774C130.528 35.5822 130.635 35.72 130.723 35.9019C130.812 36.0807 130.859 36.2842 130.863 36.5124C130.868 36.7406 130.813 36.9657 130.706 37.1846C130.635 37.3223 130.54 37.4467 130.422 37.5598C130.307 37.6708 130.146 37.7735 129.945 37.863C129.74 37.9514 129.542 38.011 129.341 38.0428C129.143 38.0696 128.942 38.086 128.738 38.086H128.352ZM128.352 32.0959V32.4844C128.296 32.4782 128.243 32.4752 128.185 32.4752H127.753C127.695 32.4752 127.632 32.4834 127.561 32.4988C127.49 32.5173 127.443 32.5389 127.413 32.5656C127.385 32.5934 127.36 32.6396 127.344 32.7003C127.324 32.7568 127.314 32.8339 127.314 32.9243V34.8299H127.925C128.039 34.8299 128.176 34.8104 128.34 34.7734L128.352 34.7703V35.2235C128.231 35.2071 128.097 35.1968 127.952 35.1968H127.314V37.348C127.314 37.4508 127.324 37.5258 127.344 37.5711C127.36 37.6173 127.398 37.6543 127.451 37.6769C127.506 37.7006 127.599 37.7109 127.724 37.7109H128.278H128.352V38.086H125.269C125.219 38.0911 125.179 38.0798 125.138 38.0562C125.102 38.0305 125.093 37.9935 125.102 37.939C125.108 37.9031 125.127 37.8804 125.158 37.863C125.187 37.8506 125.236 37.8352 125.301 37.8249C125.365 37.8136 125.432 37.7972 125.503 37.7766C125.573 37.755 125.645 37.717 125.719 37.6595C125.796 37.6029 125.849 37.532 125.887 37.4446C125.921 37.3573 125.936 37.2391 125.936 37.0921V33.0672C125.936 32.9757 125.926 32.8894 125.903 32.8051C125.876 32.7218 125.842 32.6499 125.793 32.5913C125.747 32.5337 125.683 32.4844 125.608 32.4484C125.529 32.4084 125.452 32.3857 125.378 32.3775C125.304 32.3683 125.247 32.3539 125.213 32.3333C125.174 32.3138 125.162 32.2788 125.174 32.2295C125.181 32.1812 125.201 32.1483 125.232 32.1257C125.262 32.1051 125.301 32.0959 125.347 32.0959H128.352ZM62.0034 35.6686L61.9151 35.684C61.8648 35.6953 61.8135 35.722 61.7622 35.7642C61.7109 35.8053 61.6698 35.8505 61.6349 35.8957C61.6042 35.943 61.5754 36.0119 61.5518 36.1085C61.5241 36.2041 61.5118 36.2688 61.5087 36.3017L61.3404 37.8784C61.3301 37.9555 61.3075 38.0161 61.2767 38.0511C61.2429 38.0891 61.1926 38.1107 61.1238 38.1179C61.0571 38.1251 60.9935 38.1004 60.935 38.0428C60.9196 38.0233 60.8929 37.9873 60.8631 37.9308C60.8334 37.8732 60.7954 37.8136 60.7512 37.7499C60.7081 37.6852 60.6589 37.6286 60.6086 37.5803C60.5624 37.532 60.5111 37.5053 60.4608 37.5022C60.4105 37.4981 60.3479 37.5186 60.2709 37.5711L60.0379 37.7427C59.923 37.8188 59.7444 37.9072 59.4981 37.9966C59.2466 38.0911 58.9366 38.1333 58.5528 38.1292C58.2017 38.1251 57.8579 38.0603 57.5233 37.9308C57.1877 37.8013 56.9065 37.606 56.6704 37.3408C56.4385 37.0767 56.2763 36.8156 56.187 36.5566C56.0957 36.2986 56.0423 36.0499 56.0248 35.8114C56.0033 35.5771 55.9961 35.3592 55.9961 35.1629C55.9961 34.9553 56.0094 34.7477 56.033 34.5359C56.0618 34.3273 56.1069 34.1227 56.1747 33.9326C56.2455 33.7394 56.3266 33.5636 56.4241 33.4074C56.5154 33.2512 56.6273 33.1073 56.7443 32.9757C56.8623 32.8441 56.9855 32.7311 57.1077 32.6417C57.2318 32.5471 57.3766 32.4628 57.5377 32.3857C57.6988 32.3056 57.8805 32.2398 58.0817 32.1925C58.2859 32.1411 58.5251 32.1134 58.8042 32.1082C58.9787 32.1082 59.1327 32.1154 59.2671 32.1391C59.3975 32.1596 59.534 32.1956 59.6725 32.246C59.8162 32.2984 59.9527 32.3621 60.0862 32.4392C60.2196 32.5152 60.3243 32.5636 60.4043 32.58C60.4823 32.5995 60.547 32.5913 60.5973 32.5574C60.6229 32.5368 60.6476 32.5029 60.665 32.4536C60.6835 32.4053 60.6989 32.3487 60.7092 32.2922C60.7184 32.2367 60.7369 32.1925 60.7625 32.1535C60.7872 32.1195 60.821 32.1021 60.8693 32.098C60.9165 32.0969 60.9545 32.1093 60.9894 32.136C61.0027 32.1596 61.0202 32.1925 61.0314 32.2326C61.0407 32.2747 61.0468 32.3087 61.0468 32.3333V33.8422C61.0468 33.9264 61.0407 33.9891 61.0325 34.0189C61.0232 34.0498 61.0099 34.0796 60.9894 34.1073C60.9668 34.132 60.935 34.1495 60.896 34.1536C60.8518 34.1597 60.8169 34.1443 60.7831 34.1094C60.7512 34.0734 60.7307 34.0292 60.7215 33.9789L60.6927 33.8545C60.6722 33.7651 60.6312 33.6674 60.5727 33.5595C60.5183 33.4547 60.4392 33.3488 60.3427 33.247C60.2473 33.1463 60.1282 33.0487 59.9928 32.9582C59.8583 32.8657 59.6951 32.7856 59.5073 32.7157C59.3215 32.6489 59.1388 32.6139 58.9592 32.616C58.7488 32.6201 58.5497 32.6797 58.3516 32.7907C58.1566 32.8996 57.9996 33.0579 57.8836 33.2676C57.7707 33.4783 57.6824 33.688 57.626 33.8925C57.5695 34.0971 57.5315 34.2841 57.5141 34.4506C57.4946 34.6161 57.4854 34.8104 57.4895 35.0303C57.4895 35.1608 57.4925 35.3366 57.5007 35.5576C57.5069 35.7775 57.5172 35.9697 57.5377 36.1311C57.5603 36.2914 57.5941 36.4723 57.6485 36.6707C57.705 36.8691 57.7789 37.0304 57.8723 37.1527C57.9657 37.2751 58.1186 37.3758 58.3229 37.4549C58.5251 37.5351 58.7447 37.5721 58.9726 37.5711C59.2497 37.5711 59.4765 37.5186 59.6479 37.419C59.8183 37.3213 59.9425 37.1949 60.0205 37.052C60.0944 36.904 60.1334 36.7468 60.1334 36.5803V36.3737C60.1334 36.311 60.1159 36.2277 60.0759 36.1229C60.0379 36.016 59.9928 35.9399 59.9425 35.8855C59.8922 35.833 59.8306 35.7899 59.7618 35.759C59.692 35.7251 59.6387 35.7066 59.6048 35.6974L59.4498 35.6686C59.4077 35.6634 59.3718 35.6521 59.3533 35.6306C59.3318 35.6069 59.3215 35.5781 59.3256 35.5432C59.3256 35.4959 59.3441 35.461 59.38 35.4384C59.4139 35.4137 59.4529 35.4013 59.5011 35.4013H61.8997C61.9531 35.4013 61.9983 35.4085 62.0373 35.4281M62.0373 35.4281C62.0773 35.4425 62.1019 35.4764 62.1143 35.5247C62.1286 35.573 62.1173 35.609 62.0886 35.6306C62.0578 35.6532 62.0301 35.6665 62.0034 35.6686" fill="white"/>
<path d="M55.7665 37.8597C55.7347 37.8453 55.7019 37.834 55.6618 37.8258L55.5869 37.8114C55.5315 37.8042 55.4699 37.7775 55.4022 37.7343C55.3303 37.6932 55.2749 37.6408 55.2308 37.5863C55.1866 37.5318 55.1261 37.4444 55.0501 37.3273C54.9731 37.2111 54.9249 37.132 54.9075 37.0898L52.7552 32.3742C52.6956 32.2468 52.6443 32.1584 52.6033 32.108C52.5653 32.0566 52.5058 32.033 52.4257 32.0381C52.3457 32.0422 52.2861 32.0762 52.243 32.145C52.202 32.2129 52.1619 32.3013 52.1168 32.4153L52.1096 32.4308L50.2898 37.0898C50.2724 37.1423 50.2396 37.2029 50.2047 37.2656C50.1657 37.3293 50.1205 37.3941 50.0651 37.4609C50.0117 37.5267 49.9563 37.5842 49.8988 37.6305C49.8434 37.6767 49.7715 37.7168 49.6894 37.7528C49.6042 37.7908 49.5416 37.8083 49.5037 37.8114L49.4072 37.8258C49.3456 37.834 49.2963 37.8412 49.2625 37.8535C49.2276 37.87 49.207 37.9039 49.207 37.9573C49.207 38.0139 49.2306 38.0488 49.2686 38.0642C49.3097 38.0786 49.3866 38.0858 49.5037 38.0858H51.2043C51.2947 38.0858 51.3593 38.0807 51.4065 38.0642C51.4527 38.0509 51.4773 38.018 51.4866 37.9666C51.4866 37.9316 51.4732 37.9008 51.4425 37.87C51.4096 37.8391 51.3747 37.8258 51.3429 37.8258H51.2536C51.2013 37.8258 51.1458 37.8186 51.0863 37.8052C51.0247 37.797 50.9652 37.7713 50.9026 37.7312C50.8451 37.6891 50.803 37.6284 50.7846 37.5462C50.764 37.466 50.7753 37.3612 50.8194 37.2317L51.1284 36.2892H53.0621L53.4664 37.2194C53.4829 37.2605 53.4942 37.3232 53.4993 37.4105C53.5054 37.4938 53.488 37.5688 53.4469 37.6366C53.409 37.7014 53.3556 37.7487 53.2879 37.7713C53.2222 37.7949 53.1616 37.8083 53.1082 37.8114L52.9584 37.8258C52.9102 37.8288 52.8691 37.8412 52.8363 37.8597C52.8044 37.8833 52.786 37.9121 52.7829 37.9491C52.7778 38.0108 52.7931 38.0488 52.828 38.0642C52.866 38.0786 52.9276 38.0858 53.0179 38.0858H55.6618C55.7111 38.0858 55.7481 38.0704 55.7809 38.0385C55.8107 38.0056 55.822 37.9717 55.8189 37.9357C55.8158 37.9039 55.7942 37.8782 55.7665 37.8597ZM51.2649 35.9212L52.085 33.8676L52.1096 33.9293L52.9584 35.9212H51.2649Z" fill="white"/>
<path d="M68.4538 36.4224C68.4271 36.3525 68.3922 36.3134 68.345 36.3052C68.2988 36.297 68.2496 36.3104 68.2085 36.3391C68.1664 36.3731 68.1377 36.4018 68.1264 36.4316C68.1131 36.4635 68.0843 36.5303 68.0453 36.6352C68.0012 36.7379 67.954 36.8376 67.8996 36.9281C67.8493 37.0216 67.7867 37.0884 67.7189 37.1182C67.6512 37.1521 67.5948 37.1696 67.5475 37.1696C67.4521 37.1717 67.3772 37.146 67.3187 37.0884C67.2591 37.0319 67.2283 36.9281 67.2283 36.7811C67.2263 36.6352 67.2191 36.4501 67.2099 36.2302C67.2006 36.0082 67.177 35.8355 67.1421 35.7091C67.1052 35.5858 67.0436 35.4748 66.9553 35.3761C66.8691 35.2784 66.7634 35.2075 66.6423 35.153C66.5181 35.1006 66.4124 35.0667 66.3128 35.0451C66.2174 35.0246 66.1004 35.003 65.9659 34.9804L66.4093 34.8766C66.5314 34.8519 66.6823 34.8046 66.863 34.7399C67.0467 34.6731 67.2037 34.5908 67.3433 34.4963C67.4808 34.4069 67.5978 34.2835 67.6871 34.1335C67.8093 33.9248 67.8626 33.7079 67.8493 33.4787C67.8308 33.2526 67.7846 33.0542 67.7035 32.8888C67.6245 32.7243 67.5301 32.5938 67.4213 32.4972C67.3176 32.3995 67.1822 32.3173 67.02 32.2443C66.8599 32.1724 66.7039 32.1313 66.5581 32.1148C66.4093 32.1015 66.2615 32.0953 66.1147 32.0912H62.4537C62.4085 32.0912 62.3706 32.0994 62.3377 32.122C62.309 32.1436 62.2895 32.1703 62.2833 32.2042C62.272 32.2505 62.2813 32.2885 62.3141 32.3183C62.3459 32.3481 62.3736 32.3594 62.4003 32.3594L62.5379 32.3728C62.6046 32.3831 62.6723 32.4088 62.74 32.4489C62.8047 32.491 62.8673 32.5527 62.9207 32.638C62.9751 32.7192 63.0131 32.8148 63.0285 32.9165C63.0469 33.0244 63.0572 33.1087 63.0603 33.1766V37.072C63.0603 37.1563 63.0428 37.2632 63.0069 37.3916C62.972 37.5222 62.9289 37.6064 62.8714 37.6465C62.8211 37.6887 62.7493 37.7226 62.6631 37.7596C62.5748 37.7914 62.5163 37.811 62.4865 37.811L62.4003 37.8213C62.3675 37.8233 62.3377 37.8346 62.31 37.8531C62.2833 37.8778 62.2669 37.9035 62.2607 37.9312C62.2505 37.9857 62.2638 38.0258 62.2946 38.0474C62.3285 38.072 62.3675 38.0833 62.4116 38.0833L65.073 38.0864C65.1161 38.0916 65.1571 38.0833 65.1848 38.0597C65.2136 38.0412 65.228 38.0073 65.2249 37.9641C65.2249 37.9199 65.2074 37.887 65.1725 37.8634C65.1397 37.8418 65.1027 37.8243 65.0637 37.8213L64.9621 37.811C64.9159 37.811 64.8503 37.7894 64.7681 37.7503C64.684 37.7103 64.6162 37.6589 64.5618 37.5951C64.5105 37.5324 64.4736 37.4451 64.4469 37.3361C64.4243 37.2272 64.411 37.1367 64.411 37.0607V35.1232H64.8482C65.0596 35.1232 65.2197 35.1335 65.3326 35.1633L65.3583 35.1695C65.4568 35.1952 65.5379 35.2373 65.6016 35.2928C65.6755 35.3504 65.7288 35.4336 65.7647 35.5303C65.8027 35.6289 65.8263 35.7615 65.8325 35.9219C65.8448 36.0842 65.851 36.2281 65.8592 36.3566L65.8705 36.7811C65.8766 36.9898 65.8951 37.1604 65.9187 37.2899C65.9454 37.4204 65.9998 37.5561 66.0798 37.6979C66.164 37.8367 66.2831 37.9436 66.437 38.0093C66.592 38.0833 66.7747 38.1173 66.9871 38.1203C67.1473 38.1255 67.2971 38.1121 67.4326 38.0782C67.5701 38.0443 67.6953 37.9857 67.8123 37.9035C67.9263 37.8233 68.0269 37.7195 68.1131 37.59C68.1993 37.4636 68.2619 37.3269 68.305 37.183C68.3481 37.0391 68.3974 36.8777 68.4446 36.6979C68.4764 36.5807 68.4805 36.4902 68.4538 36.4224ZM65.7555 34.6011C65.6221 34.671 65.4907 34.7173 65.3583 34.7429L65.3142 34.7512C65.1633 34.7697 65.0176 34.782 64.8708 34.782H64.411V32.9453C64.411 32.8045 64.4233 32.7048 64.4407 32.6503C64.4582 32.5948 64.4992 32.5496 64.5649 32.5075C64.6296 32.4694 64.7435 32.4478 64.8995 32.4448L65.2074 32.4396C65.2557 32.4396 65.306 32.4427 65.3583 32.4489C65.4271 32.4561 65.4938 32.4674 65.5697 32.4828C65.6991 32.5105 65.8171 32.5568 65.9187 32.6256C66.0213 32.6914 66.1055 32.7747 66.1681 32.8723C66.2338 32.9751 66.2769 33.1252 66.2974 33.3256C66.3128 33.5055 66.3067 33.6781 66.279 33.8426C66.2543 34.005 66.1938 34.153 66.1055 34.2866C66.0162 34.4192 65.8992 34.524 65.7555 34.6011Z" fill="white"/>
<path d="M70.8855 37.0632C70.8916 37.1773 70.9029 37.2801 70.9204 37.3695C70.9388 37.4548 70.9768 37.534 71.0384 37.6018C71.101 37.6696 71.1749 37.719 71.2673 37.7549C71.3617 37.7868 71.4418 37.8074 71.5116 37.8115L71.6357 37.8248C71.6789 37.8289 71.7086 37.8372 71.7291 37.8474C71.7476 37.8557 71.761 37.8916 71.7661 37.9441C71.7692 37.9996 71.7579 38.0396 71.7291 38.0571C71.6994 38.0777 71.6583 38.0859 71.6019 38.0859H68.7896C68.7393 38.0859 68.6993 38.0777 68.6675 38.0551C68.6377 38.0355 68.6254 37.9934 68.6398 37.9379C68.6429 37.9029 68.6613 37.8772 68.687 37.8577C68.7178 37.8433 68.7465 37.8289 68.7732 37.8248L68.8769 37.8115C68.9251 37.8074 68.9877 37.7868 69.0698 37.7549C69.154 37.7231 69.2258 37.6768 69.2884 37.6182C69.3541 37.5576 69.4044 37.4661 69.4373 37.3448C69.4742 37.2225 69.4917 37.1136 69.4958 37.02V33.1842C69.4958 33.1113 69.4876 33.0188 69.4722 32.9078C69.4578 32.7968 69.4188 32.7022 69.3541 32.6272C69.2884 32.5511 69.2084 32.4915 69.115 32.4514C69.0195 32.4113 68.9415 32.3856 68.882 32.3743L68.7896 32.3599C68.7588 32.3589 68.7291 32.3486 68.6993 32.325C68.6706 32.3003 68.6613 32.2685 68.6706 32.2243C68.6788 32.1801 68.6993 32.1482 68.7291 32.1256C68.7619 32.105 68.7978 32.0958 68.8451 32.0958L71.5721 32.0978C71.6214 32.102 71.6583 32.1153 71.686 32.1359C71.7168 32.1595 71.7291 32.1924 71.7261 32.2387C71.7189 32.2685 71.7025 32.3003 71.6789 32.3229C71.6522 32.3466 71.6224 32.3589 71.5875 32.3599L71.4808 32.3743C71.4017 32.3856 71.3237 32.4154 71.2468 32.4627C71.1677 32.5121 71.101 32.5747 71.0435 32.6477C70.9881 32.7217 70.9491 32.8009 70.9204 32.88C70.8988 32.9633 70.8855 33.0558 70.8855 33.1544V37.0632Z" fill="white"/>
<path d="M76.9965 32.3336L77.0745 33.8425C77.0776 33.9021 77.0745 33.9586 77.0642 34.011C77.055 34.0593 77.0365 34.0953 77.018 34.1148C76.9965 34.1354 76.9657 34.1508 76.9164 34.1549C76.8692 34.159 76.8333 34.1477 76.8097 34.1148C76.7851 34.083 76.7635 34.0367 76.7491 33.9792L76.7163 33.8661C76.6865 33.7685 76.6301 33.6482 76.5562 33.5033C76.4792 33.3553 76.3971 33.233 76.3047 33.1292C76.2123 33.0264 76.1046 32.9349 75.9855 32.8527C75.8644 32.7746 75.7217 32.7016 75.5524 32.642C75.3872 32.5803 75.1952 32.5474 74.9838 32.5454C74.7498 32.5413 74.5517 32.5803 74.3793 32.6595C74.2079 32.7365 74.0744 32.8404 73.9687 32.9688C73.8661 33.0973 73.7829 33.2391 73.7193 33.3902C73.6567 33.5454 73.6003 33.714 73.5571 33.9021C73.5089 34.0912 73.4761 34.268 73.4637 34.4366C73.4453 34.6092 73.436 34.8035 73.4412 35.0306C73.4412 35.1869 73.4442 35.3616 73.4504 35.5558C73.4555 35.7491 73.473 35.9361 73.5007 36.1139C73.5253 36.2918 73.5715 36.4665 73.6341 36.6371C73.6957 36.8088 73.7809 36.9598 73.8887 37.0965C73.9975 37.226 74.134 37.3412 74.2879 37.4337C74.4521 37.5282 74.601 37.5899 74.7385 37.6228C74.8801 37.6536 75.0402 37.6639 75.2178 37.6454C75.3995 37.6279 75.5616 37.5899 75.7002 37.5323C75.8398 37.4717 75.9732 37.3915 76.0943 37.2959C76.2154 37.1983 76.3335 37.0883 76.4453 36.9557C76.5593 36.8252 76.6578 36.7008 76.7307 36.5806C76.8107 36.4583 76.8826 36.3812 76.9431 36.3493C77.0037 36.3195 77.055 36.3154 77.096 36.3411C77.1371 36.3668 77.1607 36.412 77.1648 36.4716C77.171 36.5343 77.1463 36.6145 77.093 36.7111C77.0006 36.8858 76.9092 37.038 76.823 37.1603C76.7389 37.2867 76.6147 37.4254 76.4576 37.5796C76.3016 37.7317 76.1364 37.8468 75.967 37.9239C75.7987 38.002 75.6068 38.0596 75.3954 38.0935C75.186 38.1274 74.9807 38.1429 74.7816 38.1418C74.5425 38.1418 74.3013 38.1172 74.0539 38.0699C73.8076 38.0216 73.5777 37.9435 73.3652 37.8427C73.1538 37.7389 72.9485 37.5837 72.7504 37.3833C72.5544 37.1777 72.4035 36.9814 72.3009 36.7892C72.1982 36.596 72.1243 36.41 72.0761 36.2219C72.0248 36.0338 71.993 35.8519 71.9735 35.6751C71.954 35.4983 71.9468 35.3277 71.9468 35.1632C71.9468 35.0019 71.9622 34.7953 71.993 34.5558C72.0217 34.3142 72.0699 34.1056 72.1274 33.9309C72.1859 33.7541 72.267 33.5835 72.3676 33.4149C72.4702 33.2463 72.5708 33.1014 72.6734 32.9843C72.7751 32.8661 72.8992 32.7581 73.0409 32.6543C73.1866 32.5515 73.3375 32.4621 73.4945 32.383C73.6505 32.3038 73.824 32.2422 74.0128 32.198C74.1976 32.1497 74.4121 32.1219 74.6492 32.1106C74.8534 32.1065 75.0402 32.1147 75.1973 32.1394C75.3594 32.162 75.5196 32.2021 75.6756 32.2576C75.8336 32.31 75.9701 32.3686 76.0882 32.4354C76.2093 32.4991 76.3016 32.5392 76.3704 32.5536C76.4361 32.5659 76.4956 32.5536 76.548 32.5176C76.5788 32.495 76.5993 32.4652 76.6188 32.4231C76.6301 32.383 76.6455 32.3347 76.6598 32.2823C76.6711 32.2288 76.6896 32.1836 76.7142 32.1497C76.7389 32.1147 76.7738 32.0983 76.82 32.0972C76.8672 32.0962 76.9072 32.1096 76.938 32.1363C76.9565 32.1599 76.9688 32.1918 76.978 32.2288C76.9873 32.2689 76.9934 32.3038 76.9965 32.3336Z" fill="white"/>
<path d="M79.6728 36.3105C79.6677 36.5386 79.6779 36.7195 79.7046 36.8573C79.7272 36.9919 79.7847 37.1235 79.8791 37.2489C79.9746 37.3701 80.1203 37.4698 80.3163 37.5438C80.5134 37.6189 80.7217 37.659 80.9475 37.6662C81.1231 37.6744 81.3047 37.659 81.4771 37.622C81.6568 37.5839 81.8323 37.514 82.0119 37.4113C82.1894 37.3095 82.3198 37.1923 82.404 37.068C82.4881 36.9415 82.5435 36.7976 82.5743 36.6363C82.6072 36.4801 82.6205 36.3177 82.6205 36.1532V33.0554C82.6205 32.9711 82.6072 32.8827 82.5866 32.7881C82.5641 32.6956 82.5271 32.6196 82.4737 32.5651C82.4235 32.5106 82.3526 32.4654 82.2664 32.4335C82.1771 32.3986 82.1125 32.3801 82.0653 32.3729L81.8959 32.3606C81.8723 32.3606 81.8425 32.3482 81.8107 32.3205C81.7748 32.2958 81.7635 32.2568 81.7717 32.2085C81.781 32.1643 81.7994 32.1355 81.8323 32.118C81.8682 32.1016 81.9195 32.0954 81.9903 32.0954H83.7095C83.7505 32.0954 83.7906 32.1067 83.8214 32.1283C83.8542 32.1499 83.8717 32.1828 83.8768 32.2259C83.8809 32.2691 83.8717 32.301 83.8419 32.3246C83.8142 32.3482 83.7865 32.3585 83.7567 32.3606L83.6202 32.3729C83.5473 32.3832 83.4703 32.4089 83.3934 32.451C83.3123 32.4952 83.2497 32.5476 83.2025 32.6093C83.1553 32.6741 83.1152 32.7532 83.0855 32.857C83.0547 32.9577 83.0403 33.0441 83.0444 33.1212V36.1532C83.0444 36.2776 83.0403 36.4122 83.0311 36.5499C83.0249 36.6908 82.989 36.8377 82.9274 36.9919C82.8586 37.145 82.7704 37.2879 82.6493 37.4133C82.5302 37.5438 82.3886 37.6538 82.2243 37.7463C82.0591 37.8419 81.8939 37.9097 81.7173 37.956C81.5449 38.0022 81.3632 38.0362 81.1795 38.0516C80.9948 38.0721 80.8244 38.0845 80.6673 38.0845C80.5226 38.0845 80.3502 38.0742 80.1521 38.0567C79.9509 38.0444 79.72 37.9981 79.4593 37.9313C79.1955 37.8584 78.981 37.7432 78.8117 37.5798C78.6434 37.4164 78.5325 37.2879 78.4802 37.1903C78.4309 37.0906 78.396 37.0063 78.3806 36.9302C78.3642 36.8552 78.3488 36.7709 78.3344 36.6712C78.319 36.5726 78.3129 36.4801 78.319 36.3896V33.1767C78.319 33.0698 78.3098 32.969 78.2903 32.8642C78.2749 32.7645 78.2215 32.6761 78.1353 32.5959C78.0553 32.5209 77.9639 32.4654 77.8685 32.4346C77.774 32.4027 77.697 32.3832 77.6324 32.3729L77.4969 32.3606C77.4661 32.3606 77.4374 32.3503 77.4056 32.3267C77.3748 32.304 77.3594 32.2691 77.3594 32.2208C77.3594 32.1766 77.3748 32.1416 77.4066 32.1221C77.4394 32.0995 77.4805 32.0923 77.5277 32.0923L80.421 32.0954C80.4744 32.0974 80.5103 32.1067 80.5401 32.1262C80.5647 32.1437 80.5822 32.1756 80.5832 32.2167C80.5832 32.2619 80.5729 32.2958 80.5493 32.3205C80.5267 32.3482 80.5021 32.3606 80.4744 32.3606L80.3369 32.3729C80.2671 32.3832 80.188 32.4058 80.0957 32.4366C80.0033 32.4716 79.9253 32.525 79.8534 32.6042C79.7847 32.6823 79.7364 32.7707 79.7108 32.8642C79.6841 32.9618 79.6728 33.0574 79.6728 33.1458V36.3105Z" fill="white"/>
<path d="M89.5999 38.086H84.2032C84.153 38.0912 84.1098 38.0799 84.076 38.0583C84.0472 38.0357 84.0349 37.9956 84.0472 37.936C84.0534 37.9031 84.0698 37.8784 84.0975 37.8578C84.1252 37.8414 84.155 37.8291 84.1858 37.825L84.2741 37.8106C84.3079 37.8106 84.3572 37.791 84.4301 37.7571C84.506 37.7222 84.5799 37.68 84.6487 37.6245C84.7185 37.568 84.7698 37.494 84.7975 37.4015C84.8262 37.309 84.8427 37.2 84.8468 37.0767V33.1833C84.8468 33.134 84.8375 33.0436 84.817 32.9141C84.8006 32.7856 84.7698 32.692 84.7246 32.6335C84.6805 32.578 84.6128 32.5214 84.5204 32.4628C84.429 32.4073 84.3613 32.3775 84.3213 32.3734L84.194 32.3652C84.1622 32.3652 84.1314 32.3529 84.1006 32.3261C84.0667 32.2984 84.0575 32.2655 84.0657 32.2213C84.076 32.1792 84.0975 32.1483 84.1252 32.1257C84.156 32.1052 84.194 32.0959 84.2422 32.0959L86.8841 32.098C86.9282 32.1021 86.9642 32.1134 86.9908 32.1319C87.0104 32.1524 87.0247 32.1812 87.0257 32.2162C87.0288 32.2563 87.0186 32.2891 86.995 32.3169C86.9724 32.3426 86.9447 32.359 86.9108 32.3601L86.7866 32.3734C86.7117 32.3827 86.6347 32.4094 86.5639 32.4495C86.492 32.4916 86.4274 32.5512 86.3689 32.6273C86.3124 32.7064 86.2724 32.7928 86.2519 32.8873C86.2324 32.9829 86.2201 33.0713 86.2201 33.1535V37.2052V37.4169C86.2262 37.458 86.2437 37.5043 86.2806 37.5536C86.3155 37.6019 86.3596 37.6451 86.4202 37.677C86.4787 37.7088 86.5464 37.7222 86.6255 37.7222H87.5502C87.6139 37.7222 87.7083 37.7201 87.8325 37.7057C87.9556 37.6944 88.086 37.6646 88.2133 37.6194C88.3446 37.5752 88.4832 37.4981 88.6289 37.383C88.7736 37.272 88.8927 37.1651 88.9799 37.0644C89.0662 36.9595 89.1524 36.8475 89.2335 36.719C89.3156 36.5905 89.3741 36.4806 89.4141 36.386L89.4798 36.2277C89.5065 36.1537 89.5301 36.1023 89.5496 36.0684C89.5722 36.0396 89.6091 36.0253 89.6625 36.0294C89.7138 36.0335 89.7497 36.052 89.7651 36.0828C89.7774 36.1157 89.7805 36.1866 89.7744 36.2987L89.5999 38.086Z" fill="white"/>
<path d="M89.9482 32.0958H95.4188V33.9243C95.4188 34.0013 95.4095 34.0589 95.3921 34.101C95.3746 34.1411 95.3387 34.1678 95.2853 34.1812C95.232 34.1915 95.1899 34.1792 95.1611 34.1442C95.1304 34.1093 95.1078 34.0692 95.0965 34.0209L95.0503 33.8544C95.0246 33.7783 94.9836 33.6673 94.922 33.5275C94.8594 33.3877 94.7876 33.2469 94.7024 33.1092C94.6182 32.9735 94.5032 32.8512 94.3626 32.7402C94.2241 32.6333 94.0855 32.5542 93.947 32.5048C93.8115 32.4565 93.7037 32.4329 93.6267 32.4329L93.4081 32.435V37.0077C93.4081 37.1105 93.4204 37.2112 93.4481 37.3089C93.4738 37.4096 93.5241 37.4939 93.6042 37.5679C93.6811 37.6408 93.7848 37.7005 93.9141 37.7457C94.0445 37.7909 94.1481 37.8115 94.2282 37.8115L94.3483 37.8166C94.377 37.8176 94.414 37.8289 94.4509 37.8515C94.4827 37.869 94.5032 37.9029 94.5063 37.9471C94.5074 37.9934 94.4889 38.0283 94.454 38.054C94.417 38.0777 94.3801 38.091 94.3524 38.0859L91.0947 38.0828C91.0475 38.0828 91.0054 38.0694 90.9715 38.0509C90.9377 38.0283 90.9233 37.9954 90.9284 37.9482C90.9284 37.9132 90.9438 37.8844 90.9767 37.8628C91.0054 37.8433 91.0362 37.8289 91.068 37.8248L91.1891 37.8115C91.2404 37.8115 91.2989 37.7991 91.3677 37.7827C91.4354 37.7662 91.5176 37.7426 91.6068 37.7056C91.6961 37.6748 91.7762 37.6244 91.8398 37.5596C91.9076 37.4918 91.9568 37.4014 91.9887 37.2832C92.0225 37.1701 92.0431 37.0673 92.0451 36.9779V32.435L91.8368 32.4329C91.768 32.4329 91.6807 32.4483 91.5781 32.4771C91.4765 32.5079 91.3585 32.5603 91.225 32.6313C91.0885 32.7012 90.9808 32.7762 90.8997 32.8564C90.8196 32.9345 90.7365 33.0455 90.6492 33.1842C90.5651 33.3261 90.5025 33.4381 90.4614 33.5255L90.3054 33.9088L90.2603 34.0209C90.2356 34.0825 90.2151 34.1237 90.1915 34.1442C90.174 34.1678 90.1402 34.1792 90.1053 34.1771C90.0529 34.1771 90.0129 34.1493 89.9872 34.099C89.9606 34.0486 89.9482 33.989 89.9482 33.9243V32.0958Z" fill="white"/>
<path d="M97.9129 36.3105C97.9098 36.5386 97.919 36.7195 97.9437 36.8573C97.9693 36.9919 98.0248 37.1235 98.1202 37.2489C98.2136 37.3701 98.3604 37.4698 98.5554 37.5438C98.7535 37.6189 98.9639 37.659 99.1856 37.6662C99.3642 37.6744 99.5417 37.659 99.7193 37.622C99.8979 37.5839 100.074 37.514 100.252 37.4113C100.43 37.3095 100.56 37.1923 100.643 37.068C100.729 36.9415 100.784 36.7976 100.815 36.6363C100.844 36.4801 100.86 36.3177 100.86 36.1532V33.0554C100.86 32.9711 100.844 32.8827 100.827 32.7881C100.804 32.6956 100.766 32.6196 100.714 32.5651C100.665 32.5106 100.593 32.4654 100.503 32.4335C100.418 32.3986 100.353 32.3801 100.308 32.3729L100.137 32.3606C100.11 32.3606 100.084 32.3482 100.048 32.3205C100.016 32.2958 100.004 32.2568 100.013 32.2085C100.02 32.1643 100.038 32.1355 100.072 32.118C100.107 32.1016 100.16 32.0954 100.228 32.0954H101.95C101.993 32.0954 102.03 32.1067 102.065 32.1283C102.095 32.1499 102.113 32.1828 102.119 32.2259C102.121 32.2691 102.11 32.301 102.081 32.3246C102.056 32.3482 102.027 32.3585 101.997 32.3606L101.858 32.3729C101.786 32.3832 101.712 32.4089 101.632 32.451C101.555 32.4952 101.49 32.5476 101.442 32.6093C101.395 32.6741 101.353 32.7532 101.326 32.857C101.295 32.9577 101.281 33.0441 101.284 33.1212V36.1532C101.284 36.2776 101.281 36.4122 101.274 36.5499C101.266 36.6908 101.229 36.8377 101.164 36.9919C101.099 37.145 101.009 37.2879 100.888 37.4133C100.77 37.5438 100.629 37.6538 100.465 37.7463C100.299 37.8419 100.134 37.9097 99.9574 37.956C99.7829 38.0022 99.6033 38.0362 99.4186 38.0516C99.2338 38.0721 99.0645 38.0845 98.9085 38.0845C98.7627 38.0845 98.5923 38.0742 98.3922 38.0567C98.191 38.0444 97.9601 37.9981 97.6984 37.9313C97.4356 37.8584 97.2211 37.7432 97.0528 37.5798C96.8834 37.4164 96.7726 37.2879 96.7203 37.1903C96.672 37.0906 96.6361 37.0063 96.6227 36.9302C96.6053 36.8552 96.5889 36.7709 96.5735 36.6712C96.5612 36.5726 96.555 36.4801 96.5601 36.3896V33.1767C96.5601 33.0698 96.5488 32.969 96.5293 32.8642C96.5119 32.7645 96.4616 32.6761 96.3785 32.5959C96.2933 32.5209 96.203 32.4654 96.1085 32.4346C96.0121 32.4027 95.9371 32.3832 95.8756 32.3729L95.738 32.3606C95.7062 32.3606 95.6764 32.3503 95.6456 32.3267C95.6149 32.304 95.6025 32.2691 95.6025 32.2208C95.6025 32.1766 95.6159 32.1416 95.6467 32.1221C95.6795 32.0995 95.7206 32.0923 95.7688 32.0923L98.6611 32.0954C98.7145 32.0974 98.7504 32.1067 98.7812 32.1262C98.8038 32.1437 98.8222 32.1756 98.8222 32.2167C98.8253 32.2619 98.813 32.2958 98.7894 32.3205C98.7658 32.3482 98.7422 32.3606 98.7145 32.3606L98.5769 32.3729C98.5051 32.3832 98.4281 32.4058 98.3378 32.4366C98.2454 32.4716 98.1633 32.525 98.0956 32.6042C98.0248 32.6823 97.9755 32.7707 97.9509 32.8642C97.9252 32.9618 97.9129 33.0574 97.9129 33.1458V36.3105Z" fill="white"/>
<path d="M108.472 36.4224C108.446 36.3525 108.409 36.3134 108.362 36.3052C108.314 36.297 108.27 36.3104 108.225 36.3391C108.184 36.3731 108.155 36.4018 108.144 36.4316C108.131 36.4635 108.105 36.5303 108.061 36.6352C108.018 36.7379 107.972 36.8376 107.918 36.9281C107.866 37.0216 107.805 37.0884 107.737 37.1182C107.671 37.1521 107.612 37.1696 107.561 37.1696C107.469 37.1717 107.395 37.146 107.336 37.0884C107.277 37.0319 107.244 36.9281 107.244 36.7811C107.241 36.6352 107.238 36.4501 107.226 36.2302C107.219 36.0082 107.197 35.8355 107.158 35.7091C107.122 35.5858 107.06 35.4748 106.975 35.3761C106.886 35.2784 106.783 35.2075 106.657 35.153C106.536 35.1006 106.427 35.0667 106.329 35.0451C106.235 35.0246 106.119 35.003 105.983 34.9804L106.424 34.8766C106.549 34.8519 106.699 34.8046 106.88 34.7399C107.062 34.6731 107.224 34.5908 107.36 34.4963C107.499 34.4069 107.613 34.2835 107.706 34.1335C107.827 33.9248 107.882 33.7079 107.866 33.4787C107.852 33.2526 107.803 33.0542 107.721 32.8888C107.64 32.7243 107.548 32.5938 107.439 32.4972C107.335 32.3995 107.197 32.3173 107.037 32.2443C106.877 32.1724 106.72 32.1313 106.574 32.1148C106.427 32.1015 106.279 32.0953 106.131 32.0912H102.47C102.423 32.0912 102.387 32.0994 102.355 32.122C102.325 32.1436 102.308 32.1703 102.302 32.2042C102.288 32.2505 102.298 32.2885 102.331 32.3183C102.364 32.3481 102.393 32.3594 102.416 32.3594L102.553 32.3728C102.622 32.3831 102.689 32.4088 102.757 32.4489C102.824 32.491 102.883 32.5527 102.938 32.638C102.994 32.7192 103.03 32.8148 103.048 32.9165C103.062 33.0244 103.072 33.1087 103.075 33.1766V37.072C103.075 37.1563 103.06 37.2632 103.022 37.3916C102.99 37.5222 102.944 37.6064 102.892 37.6465C102.838 37.6887 102.766 37.7226 102.68 37.7596C102.593 37.7914 102.532 37.811 102.504 37.811L102.416 37.8213C102.387 37.8233 102.355 37.8346 102.328 37.8531C102.302 37.8778 102.284 37.9035 102.278 37.9312C102.269 37.9857 102.281 38.0258 102.312 38.0474C102.343 38.072 102.383 38.0833 102.43 38.0833L105.091 38.0864C105.135 38.0916 105.171 38.0833 105.202 38.0597C105.232 38.0412 105.245 38.0073 105.243 37.9641C105.243 37.9199 105.227 37.887 105.19 37.8634C105.158 37.8418 105.121 37.8243 105.082 37.8213L104.98 37.811C104.935 37.811 104.868 37.7894 104.784 37.7503C104.7 37.7103 104.634 37.6589 104.582 37.5951C104.529 37.5324 104.49 37.4451 104.467 37.3361C104.443 37.2272 104.43 37.1367 104.43 37.0607V35.1232H104.864C105.076 35.1232 105.237 35.1335 105.346 35.1633L105.375 35.1695C105.472 35.1952 105.554 35.2373 105.622 35.2928C105.693 35.3504 105.748 35.4336 105.783 35.5303C105.82 35.6289 105.84 35.7615 105.849 35.9219C105.861 36.0842 105.869 36.2281 105.875 36.3566L105.889 36.7811C105.897 36.9898 105.912 37.1604 105.935 37.2899C105.965 37.4204 106.018 37.5561 106.098 37.6979C106.181 37.8367 106.301 37.9436 106.455 38.0093C106.61 38.0833 106.793 38.1173 107.004 38.1203C107.163 38.1255 107.314 38.1121 107.451 38.0782C107.588 38.0443 107.713 37.9857 107.83 37.9035C107.945 37.8233 108.044 37.7195 108.131 37.59C108.214 37.4636 108.278 37.3269 108.322 37.183C108.366 37.0391 108.41 36.8777 108.462 36.6979C108.494 36.5807 108.494 36.4902 108.472 36.4224ZM105.773 34.6011C105.64 34.671 105.509 34.7173 105.375 34.7429L105.331 34.7512C105.184 34.7697 105.035 34.782 104.887 34.782H104.43V32.9453C104.43 32.8045 104.439 32.7048 104.458 32.6503C104.475 32.5948 104.516 32.5496 104.582 32.5075C104.65 32.4694 104.76 32.4478 104.915 32.4448L105.222 32.4396C105.272 32.4396 105.323 32.4427 105.375 32.4489C105.444 32.4561 105.512 32.4674 105.586 32.4828C105.716 32.5105 105.836 32.5568 105.935 32.6256C106.04 32.6914 106.122 32.7747 106.185 32.8723C106.25 32.9751 106.294 33.1252 106.313 33.3256C106.329 33.5055 106.323 33.6781 106.297 33.8426C106.269 34.005 106.214 34.153 106.122 34.2866C106.033 34.4192 105.917 34.524 105.773 34.6011Z" fill="white"/>
<path d="M115.2 37.8597C115.166 37.8453 115.135 37.834 115.095 37.8258L115.018 37.8114C114.966 37.8042 114.9 37.7775 114.834 37.7343C114.763 37.6932 114.708 37.6408 114.664 37.5863C114.62 37.5318 114.559 37.4444 114.482 37.3273C114.406 37.2111 114.359 37.132 114.341 37.0898L112.188 32.3742C112.129 32.2468 112.076 32.1584 112.036 32.108C111.996 32.0566 111.936 32.033 111.859 32.0381C111.777 32.0422 111.717 32.0762 111.676 32.145C111.635 32.2129 111.593 32.3013 111.55 32.4153L111.545 32.4338L109.723 37.0898C109.705 37.1423 109.673 37.2029 109.636 37.2656C109.595 37.3293 109.552 37.3941 109.496 37.4609C109.446 37.5267 109.387 37.5842 109.332 37.6305C109.277 37.6767 109.205 37.7168 109.121 37.7528C109.036 37.7908 108.975 37.8083 108.936 37.8114L108.838 37.8258C108.777 37.834 108.732 37.8412 108.696 37.8535C108.661 37.87 108.639 37.9039 108.639 37.9573C108.639 38.0139 108.664 38.0488 108.702 38.0642C108.743 38.0786 108.82 38.0858 108.936 38.0858H110.637C110.725 38.0858 110.792 38.0807 110.839 38.0642C110.885 38.0509 110.913 38.018 110.919 37.9666C110.919 37.9316 110.905 37.9008 110.876 37.87C110.842 37.8391 110.808 37.8258 110.775 37.8258H110.684C110.632 37.8258 110.582 37.8186 110.519 37.8052C110.46 37.797 110.395 37.7713 110.337 37.7312C110.275 37.6891 110.239 37.6284 110.219 37.5462C110.197 37.466 110.206 37.3612 110.253 37.2317L110.561 36.2892H112.494L112.899 37.2194C112.914 37.2605 112.925 37.3232 112.93 37.4105C112.939 37.4938 112.92 37.5688 112.88 37.6366C112.84 37.7014 112.786 37.7487 112.721 37.7713C112.653 37.7949 112.593 37.8083 112.542 37.8114L112.393 37.8258C112.34 37.8288 112.299 37.8412 112.268 37.8597C112.238 37.8833 112.219 37.9121 112.216 37.9491C112.21 38.0108 112.226 38.0488 112.261 38.0642C112.297 38.0786 112.36 38.0858 112.449 38.0858H115.095C115.143 38.0858 115.179 38.0704 115.21 38.0385C115.241 38.0056 115.256 37.9717 115.25 37.9357C115.247 37.9039 115.227 37.8782 115.2 37.8597ZM110.696 35.9212L111.518 33.8676L111.545 33.9293L112.393 35.9212H110.696Z" fill="white"/>
<path d="M120.973 38.086H115.578C115.528 38.0912 115.485 38.0799 115.451 38.0583C115.418 38.0357 115.409 37.9956 115.421 37.936C115.427 37.9031 115.445 37.8784 115.474 37.8578C115.498 37.8414 115.531 37.8291 115.561 37.825L115.647 37.8106C115.682 37.8106 115.735 37.791 115.806 37.7571C115.882 37.7222 115.954 37.68 116.023 37.6245C116.094 37.568 116.144 37.494 116.172 37.4015C116.203 37.309 116.218 37.2 116.221 37.0767V33.1833C116.221 33.134 116.212 33.0436 116.195 32.9141C116.174 32.7856 116.144 32.692 116.1 32.6335C116.053 32.578 115.988 32.5214 115.895 32.4628C115.8 32.4073 115.735 32.3775 115.696 32.3734L115.569 32.3652C115.537 32.3652 115.504 32.3529 115.476 32.3261C115.442 32.2984 115.434 32.2655 115.441 32.2213C115.451 32.1792 115.471 32.1483 115.498 32.1257C115.531 32.1052 115.569 32.0959 115.613 32.0959L118.258 32.098C118.302 32.1021 118.339 32.1134 118.362 32.1319C118.385 32.1524 118.401 32.1812 118.401 32.2162C118.404 32.2563 118.392 32.2891 118.371 32.3169C118.346 32.3426 118.32 32.359 118.286 32.3601L118.162 32.3734C118.086 32.3827 118.01 32.4094 117.939 32.4495C117.867 32.4916 117.802 32.5512 117.744 32.6273C117.687 32.7064 117.645 32.7928 117.628 32.8873C117.606 32.9829 117.598 33.0713 117.598 33.1535V37.2052C117.595 37.3049 117.595 37.3768 117.598 37.4169C117.601 37.458 117.622 37.5043 117.655 37.5536C117.691 37.6019 117.737 37.6451 117.793 37.677C117.852 37.7088 117.919 37.7222 118.001 37.7222H118.928C118.988 37.7222 119.081 37.7201 119.205 37.7057C119.331 37.6944 119.461 37.6646 119.591 37.6194C119.722 37.5752 119.857 37.4981 120.005 37.383C120.148 37.272 120.264 37.1651 120.355 37.0644C120.444 36.9595 120.527 36.8475 120.607 36.719C120.691 36.5905 120.752 36.4806 120.789 36.386L120.853 36.2277C120.883 36.1537 120.904 36.1023 120.924 36.0684C120.945 36.0396 120.982 36.0253 121.036 36.0294C121.09 36.0335 121.123 36.052 121.138 36.0828C121.156 36.1157 121.159 36.1866 121.149 36.2987L120.973 38.086Z" fill="white"/>
<path d="M21.6489 0.0688601C21.0947 0.0215807 20.5384 -3.8147e-06 19.9729 -3.8147e-06H19.9021C19.3622 0.00102329 18.8264 0.0246639 18.2958 0.0688601C18.0905 0.0853052 17.8873 0.106889 17.6841 0.131557V11.491C17.6841 12.0532 18.1429 12.5126 18.7022 12.5126H21.1009C21.6623 12.5126 22.1231 12.0532 22.1231 11.491V0.113056C21.965 0.096611 21.806 0.0842772 21.6489 0.0688601Z" fill="white"/>
<path d="M24.3413 0.478443V5.17145V12.6026C24.3012 13.025 23.9687 13.3611 23.5458 13.4032V13.4063H21.2345C20.7428 13.4063 20.3456 13.8041 20.3456 14.2933V20.5126C20.3456 20.0429 20.709 19.6616 21.1688 19.6297H25.5914C25.6201 19.6318 25.6447 19.6318 25.6725 19.6318C25.7002 19.6318 25.7279 19.6318 25.7566 19.6297C26.0573 19.603 26.3139 19.419 26.4535 19.1631C26.4545 19.158 26.4566 19.1559 26.4587 19.1497C26.4792 19.1117 26.4956 19.0696 26.512 19.0274C26.5182 19.0028 26.5284 18.9771 26.5326 18.9503C26.5387 18.9329 26.5428 18.9133 26.5428 18.8918C26.5531 18.8455 26.5562 18.8023 26.5592 18.754V18.7479V18.7448V18.7417V18.7366V6.02659C31.8019 8.52315 35.425 13.8719 35.425 20.0696C35.425 27.8995 29.6435 34.3778 22.1212 35.454V26.734H25.5914C25.6201 26.736 25.6447 26.7381 25.6725 26.7381C25.7002 26.7381 25.7279 26.736 25.7566 26.734C26.2051 26.6908 26.5592 26.3146 26.5592 25.8511V25.849V25.847V20.5095V19.6215C26.5592 20.1138 26.1631 20.5095 25.6725 20.5095H21.2345C20.7428 20.5095 20.3456 20.9083 20.3456 21.3986V26.7258H19.4588V21.3986C19.4588 20.9083 19.0627 20.5095 18.5721 20.5095H14.133C13.6424 20.5095 13.2422 20.1138 13.2422 19.6215V25.8511C13.2493 26.3146 13.5993 26.6908 14.052 26.734C14.0766 26.736 14.1043 26.7381 14.133 26.7381C14.1587 26.7381 14.1874 26.736 14.2162 26.734H17.6843V35.454C10.1631 34.3778 4.3836 27.8995 4.3836 20.0696C4.3836 13.8719 8.00462 8.52315 13.2422 6.02659V18.7448V18.7479C13.2422 18.7509 13.2463 18.7509 13.2463 18.754C13.2493 18.8023 13.2524 18.8455 13.2586 18.8918C13.2637 18.9133 13.2668 18.9329 13.274 18.9503C13.2771 18.9771 13.2853 19.0028 13.2945 19.0274C13.3089 19.0696 13.3273 19.1117 13.3479 19.1497C13.3489 19.1559 13.351 19.158 13.354 19.1631C13.4936 19.419 13.7482 19.603 14.052 19.6297C14.0766 19.6318 14.1043 19.6318 14.133 19.6318C14.1587 19.6318 14.1874 19.6318 14.2162 19.6297H18.6326C19.0965 19.6616 19.4588 20.0429 19.4588 20.5126V14.2933C19.4588 13.8041 19.0627 13.4063 18.5721 13.4063H16.2638L16.2586 13.4032C15.8389 13.3611 15.5043 13.025 15.4653 12.6026V0.509277C6.60466 2.55771 0 10.5038 0 20.0008C0 31.022 8.90679 39.9609 19.9022 40H19.9731C31.0034 40 39.9451 31.0457 39.9451 20.0008C39.9451 10.4575 33.2727 2.47549 24.3413 0.478443Z" fill="white"/>
</g>
</g>
<defs>
<clipPath id="clip0_303_3596">
<rect width="199" height="40" fill="white"/>
</clipPath>
</defs>
</svg>
