<svg width="151" height="28" viewBox="0 0 151 28" fill="none" xmlns="http://www.w3.org/2000/svg">
<path d="M58.1208 18.3147C53.161 17.349 49.4856 14.7245 49.4521 14.6824C49.4286 14.6395 49.0154 14.4511 49.0756 14.1718C49.2681 13.3668 50.4302 11.7214 50.5381 11.4934C50.6695 11.2604 50.5877 10.8574 50.3106 10.7994C48.5184 10.4394 48.4607 10.3746 48.4607 10.3746C47.9503 10.3468 47.9152 10.5883 47.9152 10.5883L47.9506 11.8728C47.6226 13.0008 47.4202 12.9175 47.4202 12.9175C47.4202 12.9175 45.9577 11.8257 45.859 11.7415C45.7619 11.6524 44.6374 11.554 44.6374 11.554C44.6374 11.554 44.7429 11.3613 44.8533 11.2671C46.5132 9.84042 46.9542 8.54496 46.9701 8.50627C46.9701 8.46337 46.9433 7.73488 46.9433 7.73488L46.3794 6.9921L47.8511 6.58243C47.8511 6.58243 48.7112 6.32502 48.8793 6.51093C49.1747 6.84236 49.2684 8.32457 49.2684 8.32457C49.7729 9.41477 51.3943 9.84462 51.5014 9.86313C51.6044 9.91024 54.362 10.7069 54.362 10.7069C55.0489 10.1643 54.9418 9.43496 54.9418 9.43496C55.1016 9.01688 53.6031 8.38934 53.0258 8.264C50.9526 7.77189 50.597 7.41606 50.0365 6.9921C49.465 6.56897 49.9059 6.15173 49.9059 6.15173C49.9059 6.15173 50.986 5.83207 51.3023 5.76394C51.7483 5.67056 54.26 5.55111 54.26 5.55111C54.9544 5.60915 54.9544 5.3467 54.9544 5.3467L54.7553 3.66513C54.8289 3.44642 54.6423 3.02918 54.4699 3.06619C51.3943 3.97469 49.4524 4.13284 49.4524 4.13284C49.1989 4.17574 49.1747 2.81803 49.26 2.20059C49.3629 1.48977 48.6994 1.03973 48.2577 1.01617C47.8235 1.00271 47.1182 0.548462 47.1182 0.548462C45.3896 2.92066 47.6788 3.45987 47.8377 3.52801C48.4526 3.76439 48.3397 3.84431 48.5279 4.08237C48.7672 4.37679 48.0653 4.60644 47.6285 4.72841C43.5573 5.83796 42.0982 5.87498 41.6606 5.85142C40.7411 5.80852 41.0457 6.68674 41.0457 6.68674C41.0457 6.68674 41.3536 7.07958 41.5418 7.49009C41.8539 8.21184 43.3933 7.67684 43.6928 7.59692C45.3946 7.12417 45.3896 7.27895 45.3896 7.27895C45.6523 7.59692 45.1621 8.48692 45.1621 8.48692C44.0443 9.94725 42.4939 10.8145 42.1919 10.923C41.8706 11.0551 41.7518 10.9559 41.7518 10.9559C41.5895 11.3613 42.0572 12.004 42.2412 12.0284C42.3768 12.0419 43.7983 11.9939 43.7983 11.9939L43.9958 11.9291C44.1631 11.9291 44.1053 12.1579 44.1053 12.1579C44.2049 13.2179 44.8416 13.4778 45.2089 13.5737C46.4003 13.8715 46.7274 14.4746 46.7274 14.4746C44.0443 18.1255 39.1489 17.7663 39.1489 17.7663C39.292 17.9151 39.7137 18.1541 40.5378 18.3147C43.2502 18.8632 45.7418 17.4096 45.9469 17.2422C46.1301 17.0681 47.6109 15.945 47.8184 15.723C48.1732 15.3318 48.3765 15.543 48.3765 15.543C48.3765 15.543 50.7652 17.566 51.5014 18.1843C55.689 21.7309 58.245 18.5334 58.245 18.5334" fill="white"/>
<path d="M72.4837 6.19297C72.9489 5.40392 72.2494 4.47438 71.832 4.21277C70.3318 3.28576 70.1469 2.78693 70.1469 2.78693C69.2969 3.20248 69.2843 4.17576 69.5211 4.74357C70.3025 6.63039 72.3314 6.46888 72.4837 6.19297Z" fill="white"/>
<path d="M80.5819 8.95042C80.5698 9.0867 80.5357 15.1509 80.5357 15.1509C80.4747 15.3234 79.274 15.373 79.274 15.373C79.1543 15.8904 80.5055 17.4668 80.5055 17.4668C80.5055 17.4668 80.4888 17.5795 80.0495 17.5854C78.014 17.6308 77.5881 17.3314 77.5881 17.3314C77.7219 17.312 78.3804 16.5457 78.3804 16.5457V14.6487C79.4722 14.2635 79.8295 13.71 79.8295 13.71C80.0228 12.677 79.6505 12.6071 79.6505 12.6071L78.7519 12.7754C78.336 12.8057 78.4005 12.5642 78.4005 12.5642L78.3804 11.7962C78.3804 11.7096 79.9098 11.0341 79.9098 11.0341C79.9098 11.0341 80.0621 10.6261 79.9701 10.0288C79.8789 9.43495 78.4038 9.94725 78.4038 9.94725L78.3176 8.93107C78.3176 8.93107 79.0489 8.80657 79.274 8.69469C79.4898 8.57608 80.3867 8.4314 80.3867 8.4314C80.6017 8.46336 80.6017 8.80657 80.5816 8.95042M76.8844 17.2127C75.5115 17.1202 75.1576 16.8569 75.1576 16.8569C75.175 16.7635 75.2789 14.7202 75.2789 14.7202C76.9313 14.6395 76.9313 14.7926 76.9313 14.7926C77.0719 16.0342 76.8844 17.2127 76.8844 17.2127ZM74.9919 10.9062C74.9919 10.9062 74.5911 9.85976 74.8906 9.69573C74.8906 9.69573 75.3609 9.82107 76.6376 9.35336C76.6376 9.35336 76.8376 9.76555 76.7841 10.2518C76.7546 10.4621 76.5866 10.4309 76.5866 10.4309C76.5866 10.4309 75.6596 10.7624 75.3793 10.9971C75.2362 11.1418 75.0764 11.3521 74.9919 10.9062ZM76.5481 13.175C76.5481 13.175 75.3157 13.3625 75.2362 13.3011C75.2362 13.3011 75.2101 12.089 75.2101 11.9703C75.2101 11.9703 75.595 12.1579 75.851 12.1781C76.097 12.1899 76.3229 12.2505 76.6885 12.1579C76.6885 12.1579 76.855 12.1529 76.855 12.5508C76.855 13.0934 76.914 13.1228 76.5481 13.175ZM81.747 17.312C81.747 17.312 81.5604 17.1942 81.6759 16.9242C81.7939 16.6584 81.9302 15.9913 81.8826 15.871C81.8826 15.871 81.5286 11.6852 81.8317 9.69573C81.9572 8.87639 82.0936 7.50355 82.2141 7.41606C82.2141 7.41606 81.9806 6.67412 80.1751 6.77002C79.5626 6.80535 78.8189 7.32185 78.3805 7.00471C78.086 6.79778 78.1437 6.60598 78.367 6.36203C78.5896 6.11892 81.0903 3.44641 81.6224 3.34631C81.6224 3.34631 82.214 2.56146 80.923 1.82541C80.1599 1.38967 79.9792 1.123 79.0154 1.74718C78.449 2.11983 76.8376 3.5524 75.7985 3.74083C75.2655 3.83253 75.1751 3.36482 75.1182 3.31014L74.9141 3.15956C74.9141 3.15956 73.9929 4.00666 74.095 5.20537C74.1318 5.81441 75.7265 5.2794 76.1875 4.91095C76.5213 4.62999 78.5896 3.3707 78.1695 4.4996L76.8844 5.94059L75.8637 6.22744C75.8637 6.22744 75.3157 6.43269 75.7792 6.92984C75.7792 6.92984 76.5757 7.44803 76.492 7.67095C76.492 7.67095 76.3765 7.98892 75.3115 8.49953C75.0697 8.60553 74.7986 8.84191 74.7417 8.9235C74.7277 8.94285 74.7277 8.95042 74.7223 8.95463L73.9225 8.48692L73.3251 8.46336C73.3251 8.46336 73.5426 9.92033 73.5192 10.1079C73.5038 10.277 73.4506 15.871 73.8806 16.719L71.8316 16.5457C71.8316 16.5457 68.7911 13.3558 71.0652 8.95042C71.3513 8.39438 71.7396 7.70964 70.6904 7.25539C70.2285 7.04173 69.2003 6.92984 69.0187 6.72207C69.0187 6.72207 68.3176 6.46886 68.4013 7.38325L68.8874 8.46336C68.8874 8.46336 68.8096 9.09258 68.5159 10.5815C68.4543 10.913 68.1268 12.8275 69.7868 15.5C69.7868 15.5 70.0822 16.0107 69.9775 16.1848C69.8998 16.3715 69.8102 16.263 69.8102 16.263L67.6918 16.0477C67.6918 16.0477 67.2132 15.9156 67.1161 16.4136C67.0434 16.7635 66.6686 17.9867 67.3253 18.1254C67.3253 18.1254 71.3179 17.2556 77.3134 18.8632C78.3886 19.1509 79.9548 19.4285 83.0036 19.3444C83.0036 19.3444 86.8974 18.7959 86.8974 16.4851C86.8974 16.4851 86.0726 15.8298 81.747 17.312Z" fill="white"/>
<path d="M126.655 6.33764C128.251 6.28801 129.045 5.48298 129.045 5.48298C129.045 5.48298 129.511 5.07499 130.007 4.55429C130.609 3.94525 131.254 3.22939 131.254 3.22939L131.705 2.95516V2.74401C130.966 1.96253 129.695 1.63446 129.695 1.63446C129.658 1.57642 129.474 1.68325 129.474 1.68325C129.064 2.4866 127.868 3.65167 127.551 3.93432C126.341 5.00938 125.978 6.00789 125.978 6.00789C125.978 6.00789 126.225 6.34353 126.655 6.33764Z" fill="white"/>
<path d="M131.846 6.79358C131.994 6.48738 131.871 6.28801 131.871 6.28801C130.506 5.73366 129.448 5.75385 129.448 5.75385L128.977 5.90358C125.567 10.987 121.766 12.6585 121.766 12.6585C121.631 12.8275 122.03 13.7958 122.03 13.7958C122.03 13.7958 122.253 13.9043 122.585 13.9144C123.84 13.98 126.564 11.7962 126.564 11.7962C126.96 11.7727 127.127 12.3893 127.127 12.3893C127.049 12.5878 126.969 17.0622 126.96 17.3743C126.929 18.4081 127.358 19.0987 127.748 19.0987C128.133 19.0987 128.851 18.4409 128.851 18.4409L128.79 14.8178C128.737 14.6067 128.319 10.6261 128.319 10.6261C130.98 8.34224 131.704 7.08716 131.846 6.79358Z" fill="white"/>
<path d="M132.659 4.51137C133.024 5.62765 133.568 6.19294 133.568 6.19294C135.895 7.23351 138.885 5.11704 139.035 4.99086C139.181 4.87225 139.278 4.18751 139.278 4.18751C139.181 4.04114 138.49 3.49688 138.49 3.49688L138.131 3.38416C135.58 3.7955 132.628 3.74083 132.628 3.74083L132.516 4.20012C132.516 4.20012 132.54 4.18751 132.659 4.51137Z" fill="white"/>
<path d="M141.151 6.58832C141.151 6.58832 137.191 7.49009 136.129 7.54813C135.531 7.58515 132.157 7.96369 132.157 7.96369C132.157 7.96369 130.718 8.12184 130.622 9.48459C130.592 9.84462 130.588 10.6884 130.701 10.8322C130.701 10.8322 131.994 10.4511 133.638 10.0953C134.204 9.96492 135.019 9.92033 135.148 9.93295C135.148 9.93295 135.4 16.263 135.289 16.5087C135.289 16.5087 135.366 17.4424 134.3 17.0739C134.3 17.0739 133.197 16.4027 132.157 16.4271C132.157 16.4271 132.12 16.5869 132.361 16.8115C132.597 17.0369 134.141 18.3004 134.85 19.1997C135.088 19.5185 137.642 20.5086 137.773 17.6922C137.8 17.201 137.254 12.3312 137.217 12.0284C137.176 11.7281 137.073 9.82107 137.224 9.73443C137.224 9.73443 141.375 9.17166 142.178 8.24465C142.452 7.93425 142.153 7.07453 141.154 6.58832" fill="white"/>
<path d="M104.007 15.151C104.007 15.151 102.048 15.4689 102.048 15.4109C102.03 15.3495 102.272 15.0618 102.57 14.833C103.411 14.1718 103.791 13.6797 103.791 13.6797C104.334 12.5096 103.678 12.5508 103.678 12.5508C103.119 12.3598 102.751 12.8688 102.643 13.0311C101.707 14.3771 101.654 14.2517 101.654 14.2517C101.502 13.4778 101.617 11.8484 101.617 11.8484L103.027 11.0686C103.456 10.9231 103.547 10.0583 103.259 9.87829C103.027 9.73444 101.67 9.91026 101.67 9.91026C101.67 9.91026 101.497 10.0036 101.422 9.92035C101.342 9.84464 101.447 9.27431 101.447 9.27431L102.643 8.71659C102.961 8.46338 102.841 7.74668 102.841 7.74668C102.616 7.4287 101.956 7.3286 101.956 7.3286L100.237 7.35972C100.237 7.35972 99.7818 7.47833 99.8353 7.22429C99.9323 6.6489 101.162 5.53851 101.162 5.53851C101.806 5.55113 102.667 6.20306 102.83 6.35196C103.505 6.94753 104.183 7.4287 104.183 7.4287C104.311 4.41382 102.913 3.86956 102.667 3.74086C102.405 3.60374 102.417 3.34633 102.417 3.34633C103.171 2.82815 103.109 2.67421 103.109 2.67421C102.333 0.637648 100.936 1.12302 100.936 1.12302C100.924 1.19705 100.1 2.82226 99.8169 3.34633C97.6516 7.27897 94.0464 10.1206 93.9209 10.2518C93.7954 10.3897 92.5254 10.9971 92.5254 10.9971C93.1738 12.5643 94.6756 12.322 94.9726 12.2505C95.9222 12.0419 98.2891 8.98745 98.2891 8.98745C98.3653 9.16074 98.7543 9.16074 98.9418 9.19944C99.6094 9.33908 100.142 9.39123 100.142 9.39123L100.208 10.2518L98.8057 10.6556C98.8057 10.6556 98.1689 10.8322 98.1304 11.5414C98.0742 13.0067 99.1604 12.5878 99.1604 12.5878L100.338 12.2269C100.417 12.2833 100.524 14.102 100.524 14.102L99.2156 13.3188C98.4852 13.7176 98.4509 14.4334 98.4509 14.4334C98.7789 15.4109 99.4089 15.4361 99.6942 15.5741C99.9251 15.6734 99.8975 15.935 99.7243 16.0216C96.6588 17.6409 96.4555 17.5484 96.4555 17.5484L96.2388 18.0784C96.2288 19.4807 98.1171 19.0129 98.2334 18.9465C101.312 17.2986 103.468 16.7451 103.468 16.7451C103.859 16.7568 104.174 15.9913 104.174 15.9913L104.46 15.5371C104.687 15.0862 104.007 15.151 104.007 15.151Z" fill="white"/>
<path d="M107.854 15.5665C107.25 15.8534 106.882 15.6363 106.882 15.6363C106.882 15.6363 106.312 14.5503 106.517 12.7678C106.517 12.7678 106.643 12.7073 106.761 12.7249C106.761 12.7249 107.955 12.9251 109.486 13.8109C109.486 13.8109 109.63 14.7749 107.854 15.5665ZM106.643 7.56581L106.8 7.33953L109.059 7.2554C109.059 7.2554 109.218 7.35971 109.109 7.63984C109.002 7.92669 108.698 9.04381 107.789 9.011C107.789 9.011 106.58 9.23729 106.55 8.84192L106.643 7.56581H106.643ZM107.053 4.55177C107.093 4.23716 109.02 4.21276 109.24 4.27501C109.466 4.33053 109.508 4.97994 109.508 4.97994C109.312 5.9406 109.151 5.83797 109.151 5.83797C108.005 6.10884 106.976 5.89013 106.976 5.89013C106.864 5.60917 107.053 4.55177 107.053 4.55177ZM112.867 13.646C111.844 13.3011 110.679 12.5373 110.679 12.5373C110.727 12.4944 114.391 10.3081 114.391 10.3081C113.492 9.2171 112.359 8.60554 112.359 8.60554C110.367 11.8257 107.533 12.052 107.074 12.0696C106.612 12.089 106.529 12.0655 106.523 11.6658C106.464 10.277 106.715 10.2518 106.715 10.2518C106.715 10.2518 107.036 10.2333 107.292 10.4823C107.775 10.9231 108.858 10.5815 108.858 10.5815L109.58 9.94726C110.338 9.0926 110.424 8.79313 110.478 8.04698C110.614 6.25858 110.949 5.57468 111.147 5.02873C111.67 3.60373 111.613 3.26725 111.613 3.26725C111.512 1.7085 109.983 2.2006 109.806 2.27547C108.619 2.72888 107.131 2.91142 106.658 3.04096C105.445 3.42287 105.604 3.66514 105.604 3.66514L105.524 4.87227C105.524 4.87227 105.322 11.2915 105.314 11.7533C105.124 16.719 105.5 19.1568 105.5 19.1568C105.478 19.5791 106.043 19.8045 106.043 19.8045C107.826 19.7052 109.277 16.4136 109.393 16.0342C109.982 14.065 110.103 14.2828 110.103 14.2828C111.503 14.8507 113.183 16.8569 113.281 16.9377C113.393 17.026 113.553 16.9764 113.693 16.719C113.822 16.4414 114.738 15.2948 114.738 15.2948C114.705 14.9112 113.469 13.8538 112.867 13.646Z" fill="white"/>
<path d="M32.0901 23.1559H33.5133C34.078 23.1559 34.4336 23.2829 34.4336 23.6917C34.4336 24.0921 34.0429 24.2545 33.5526 24.2545H32.0901V23.1559ZM30.8945 27.2753H33.4162C34.6285 27.2753 34.9574 27.1079 35.2987 26.8269C35.6049 26.572 35.8108 26.1926 35.8108 25.7998C35.8108 25.3068 35.6133 24.8215 34.8871 24.6027C35.1414 24.49 35.6217 24.2982 35.6217 23.5765C35.6217 23.0566 35.2577 22.3029 33.7919 22.3029H30.8945V27.2753ZM32.0901 25.0839H33.6789C34.1207 25.0839 34.5641 25.258 34.5641 25.6913C34.5641 26.1926 34.2202 26.4231 33.6137 26.4231H32.0901" fill="white"/>
<path d="M37.8909 26.2599H40.0788L40.4654 27.2753H41.8107L39.7132 22.3029H38.2908L36.1699 27.2753H37.4793L37.8909 26.2599ZM38.9853 23.4267H39.002L39.7274 25.3926H38.2264" fill="white"/>
<path d="M46.2314 22.3029H47.3894V27.2753H46.1469L43.7348 23.7296H43.7154V27.2753H42.5508V22.3029H43.8643L46.2112 25.7628H46.2313" fill="white"/>
<path d="M49.9186 27.2753H48.6787V22.3029H49.9186V24.3294L52.1902 22.3029H53.7949L51.3653 24.3336L53.9305 27.2753H52.3299L50.501 25.094L49.9186 25.5937" fill="white"/>
<path d="M58.9038 24.7903C58.9038 27.1205 60.9704 27.3955 61.7652 27.3955C62.5475 27.3955 64.6132 27.1205 64.6132 24.7903C64.6132 22.4593 62.5475 22.1725 61.7652 22.1725C60.9704 22.1725 58.9038 22.4593 58.9038 24.7903ZM60.1547 24.7903C60.1547 23.3931 61.0875 23.0566 61.7652 23.0566C62.4278 23.0566 63.3674 23.3931 63.3674 24.7903C63.3674 26.1791 62.4278 26.5207 61.7652 26.5207C61.0875 26.5207 60.1547 26.1791 60.1547 24.7903Z" fill="white"/>
<path d="M66.8486 27.2753H65.6045V22.3029H69.8238V23.1819H66.8486V24.3033H69.4633V25.1815H66.8486" fill="white"/>
<path d="M78.6993 23.9365C78.5989 23.637 78.404 23.0709 77.3866 23.0709C76.7842 23.0709 75.9007 23.3981 75.9007 24.808C75.9007 25.7022 76.3215 26.5022 77.3866 26.5022C78.0684 26.5022 78.5453 26.1791 78.6993 25.5693H79.9375C79.6815 26.6469 78.8457 27.3955 77.3632 27.3955C75.7793 27.3955 74.6348 26.5106 74.6348 24.797C74.6348 23.0566 75.8446 22.1725 77.3673 22.1725C79.1544 22.1725 79.8673 23.2004 79.9375 23.9365" fill="white"/>
<path d="M80.6167 24.7903C80.6167 27.1205 82.6933 27.3955 83.4739 27.3955C84.2621 27.3955 86.3303 27.1205 86.3303 24.7903C86.3303 22.4593 84.2621 22.1725 83.4739 22.1725C82.6933 22.1725 80.6167 22.4593 80.6167 24.7903ZM81.8633 24.7903C81.8633 23.3931 82.8054 23.0566 83.4739 23.0566C84.1449 23.0566 85.0753 23.3931 85.0753 24.7903C85.0753 26.1791 84.1449 26.5207 83.4739 26.5207C82.8054 26.5207 81.8633 26.1791 81.8633 24.7903Z" fill="white"/>
<path d="M93.0277 27.2753H91.8748V23.1138H91.8494L90.74 27.2753H89.5318L88.44 23.1138H88.4334V27.2753H87.2695V22.3029H89.0851L90.1527 26.2221H90.1708L91.2292 22.3029H93.0271" fill="white"/>
<path d="M99.9273 27.2753H98.7693V23.1138H98.7554L97.6334 27.2753H96.4278L95.3409 23.1138H95.3315V27.2753H94.1636V22.3029H95.9741L97.0568 26.2221H97.0762L98.1178 22.3029H99.9275" fill="white"/>
<path d="M105.883 25.5373C105.883 26.8395 104.945 27.3955 103.428 27.3955C102.878 27.3955 102.067 27.2887 101.544 26.7966C101.223 26.5022 101.103 26.0984 101.078 25.6071V22.3029H102.338V25.5306C102.338 26.2221 102.83 26.5207 103.404 26.5207C104.265 26.5207 104.621 26.1792 104.621 25.5819V22.3029H105.883" fill="white"/>
<path d="M110.708 22.3029H111.868V27.2753H110.626L108.22 23.7296H108.187V27.2753H107.034V22.3029H108.356L110.697 25.7628H110.709" fill="white"/>
<path d="M112.969 27.2753H114.217V22.3029H112.969V27.2753Z" fill="white"/>
<path d="M119.165 23.9365C119.067 23.637 118.872 23.0709 117.848 23.0709C117.254 23.0709 116.372 23.3981 116.372 24.808C116.372 25.7022 116.792 26.5022 117.848 26.5022C118.543 26.5022 119.009 26.1791 119.165 25.5693H120.404C120.155 26.6469 119.311 27.3955 117.824 27.3955C116.247 27.3955 115.108 26.5106 115.108 24.797C115.108 23.0566 116.301 22.1725 117.833 22.1725C119.616 22.1725 120.335 23.2004 120.404 23.9365" fill="white"/>
<path d="M122.605 26.2599H124.793L125.178 27.2753H126.528L124.438 22.3029H123.005L120.884 27.2753H122.196L122.605 26.2599ZM123.708 23.4267H123.716L124.456 25.3926H122.934" fill="white"/>
<path d="M129.112 27.2753H127.868V23.1819H126.062V22.3029H130.907V23.1819H129.112" fill="white"/>
<path d="M131.536 27.2753H132.784V22.3029H131.536V27.2753Z" fill="white"/>
<path d="M133.672 24.7903C133.672 27.1205 135.748 27.3955 136.529 27.3955C137.313 27.3955 139.398 27.1205 139.398 24.7903C139.398 22.4593 137.313 22.1725 136.529 22.1725C135.748 22.1725 133.672 22.4593 133.672 24.7903ZM134.927 24.7903C134.927 23.3931 135.859 23.0566 136.529 23.0566C137.216 23.0566 138.155 23.3931 138.155 24.7903C138.155 26.1791 137.216 26.5207 136.529 26.5207C135.859 26.5207 134.927 26.1791 134.927 24.7903Z" fill="white"/>
<path d="M144.004 22.3029H145.167V27.2753H143.93L141.504 23.7296H141.492V27.2753H140.328V22.3029H141.637L143.991 25.7628H144.004" fill="white"/>
<path d="M147.246 25.7434C147.266 26.0227 147.416 26.5484 148.502 26.5484C149.099 26.5484 149.749 26.4281 149.749 25.9024C149.749 25.5129 149.304 25.4103 148.674 25.2892L148.044 25.163C147.085 24.9813 146.148 24.797 146.148 23.6984C146.148 23.1458 146.501 22.1725 148.423 22.1725C150.252 22.1725 150.741 23.1693 150.748 23.7809H149.563C149.533 23.5571 149.421 23.0322 148.333 23.0322C147.872 23.0322 147.321 23.1819 147.321 23.6236C147.321 24.0164 147.689 24.0921 147.94 24.1417L149.386 24.4429C150.188 24.6027 150.926 24.8879 150.926 25.7728C150.926 27.2702 149.124 27.3955 148.588 27.3955C146.427 27.3955 146.058 26.36 146.058 25.7434" fill="white"/>
<path d="M16.9282 5.83797C15.2608 5.83797 13.6929 6.32503 12.3717 7.18137L7.90059 10.0835V0L0 6.68674V19.3368C0 23.0894 2.44219 26.2852 5.81816 27.4014L7.32664 27.8742C4.23601 26.3348 2.12178 23.2122 2.12178 19.5866C2.12178 14.457 6.41213 10.2888 11.6857 10.2888C16.6203 10.2888 20.6756 13.9144 21.1843 18.5898L15.751 18.5822C15.2724 16.7509 13.6117 15.4058 11.6472 15.4058C9.29782 15.4058 7.41198 17.3078 7.41198 19.6623C7.41198 21.9984 9.29782 23.9087 11.6472 23.9087C13.8058 23.9087 15.5904 22.2852 15.8405 20.1839L21.2278 20.178C21.104 22.0648 20.4129 23.7876 19.3244 25.1941C19.3244 25.1941 22.6586 21.2732 23.7989 19.5042C24.8313 17.8907 25.4019 16.2277 25.4019 14.3392C25.4019 9.63934 21.611 5.83797 16.9282 5.83797Z" fill="white"/>
</svg>
