<svg width="163" height="40" viewBox="0 0 163 40" fill="none" xmlns="http://www.w3.org/2000/svg">
<g clip-path="url(#clip0_303_3878)">
<path fill-rule="evenodd" clip-rule="evenodd" d="M39.2485 25.8705L39.4784 24.8701H34.9813L35.3784 25.8705H39.2485ZM39.6665 24.0781L39.8755 23.0777H34.2532L34.6504 24.0781H39.6665ZM19.5602 0.00657851C13.4531 0.161839 7.50133 3.07432 3.69673 8.42641C-2.71101 17.4405 -0.577664 29.9432 8.46204 36.3327H8.48294C17.5227 42.7012 30.0262 40.5642 36.4269 31.5601C37.4822 30.0756 38.2939 28.501 38.8932 26.8708H35.761L36.2599 28.0795L32.2468 34.2694H8.37844L4.15654 28.2672L14.5859 2.25742L20.4171 16.0751L25.8303 2.06985L30.8029 14.4703H39.3321C38.1199 10.2569 35.5268 6.40669 31.6616 3.67462C27.9892 1.07887 23.7387 -0.0996523 19.5602 0.00657851ZM31.2146 15.4707L31.6117 16.4711H39.7919C39.7315 16.1352 39.6603 15.8033 39.5829 15.4707H31.2146ZM31.9281 17.2631L32.3252 18.2634H40.0427C40.0133 17.9309 39.9841 17.5935 39.9382 17.2631H31.9281ZM32.7165 19.2638L33.1345 20.2642H40.0845V19.2638H32.7165ZM33.459 21.077L33.8561 22.0774H40.0009C40.0357 21.7426 40.0667 21.4123 40.0845 21.077H33.459Z" fill="white"/>
<path fill-rule="evenodd" clip-rule="evenodd" d="M12.7882 14.2619L18.4105 28.0796L24.0327 14.2619L29.843 28.2672H7.16602L12.7882 14.2619Z" fill="white"/>
<path fill-rule="evenodd" clip-rule="evenodd" d="M148.825 5.26688H149.026V5.46695L149.427 5.66702H149.628L149.829 5.8671V6.06717L150.029 6.46733V6.6674L150.23 6.86747V7.06755L150.029 7.4677L149.829 7.86785V8.66815L150.029 8.86822L149.829 9.66852L150.029 10.2688V11.2691L149.829 11.6693V12.2695L149.427 12.4696H149.026L148.625 12.6696L148.424 12.8697V13.67L148.625 13.8701H148.825L149.227 14.0702L149.427 14.2703L149.829 14.6704V14.8705H150.029L150.23 15.0706V15.2706L150.431 15.4707L150.631 15.2706H150.832V15.0706V14.0702H151.233H156.851L158.657 13.8701L160.663 13.67H160.864L161.265 13.47H161.667L161.867 13.2699L162.068 13.0698H162.269V12.8697H162.469V13.47V16.0709L162.269 17.0713L162.469 17.4715V17.6715H162.269L162.068 17.4715L161.867 17.6715H160.062L159.46 17.4715L158.657 17.6715H157.854V17.8716V19.8724L157.654 20.6727L157.854 21.0728V22.8735L158.055 25.4745V28.6757L157.854 28.8757H157.453V29.0758L156.249 28.8757H153.842L152.838 28.6757L152.437 28.4756H152.236L152.036 28.0754H151.835L151.634 27.8754L151.434 27.4752V26.875L151.634 26.6749V26.2748H151.835H152.036L152.437 26.4748H153.039L153.641 26.0747L154.042 25.4745L154.243 25.2744L154.042 24.6742L154.243 23.8739V23.2736L154.443 22.6734L154.243 22.0732V20.6727L154.443 19.8724V18.4718L154.243 17.8716H152.236L151.634 18.0717L150.832 17.8716H150.23V17.4715V17.2714L150.431 17.0713V16.8712L150.23 16.6712H149.829L149.628 16.8712L149.427 17.0713H149.026V17.2714V17.4715H148.825L148.625 17.8716V19.0721L148.825 19.2721L149.026 19.6723L148.825 20.0724V23.2736L148.625 23.6738V26.6749L148.424 27.6753L148.223 27.8754L148.023 28.0754L147.622 28.2755L147.421 28.4756V28.6757H147.22L146.618 28.8757L146.217 28.6757L145.615 28.4756L145.013 28.2755L144.813 28.0754H144.612L144.411 27.8754H144.01L143.809 27.6753H143.408V27.4752V27.2751L143.809 27.0751L144.211 26.875L144.411 26.4748H144.612V26.2748H144.813V26.0747V25.0743L145.013 24.8742V21.2729L145.214 20.6727L145.013 20.4726L144.813 20.2725L144.612 20.0724L144.211 20.4726L143.809 20.6727L143.207 21.473L142.806 21.8731L142.204 21.673H141.602L141.201 21.2729H140.8L140.599 20.8727L140.398 20.6727V20.4726H140.198V20.2725H139.997L140.198 20.0724L139.997 19.8724V19.6723H140.198L140.398 19.4722L140.599 19.2721H141L141.201 19.0721L141.602 18.872L142.004 18.6719H142.405L142.605 18.2718L142.806 18.0717L143.207 17.8716L143.609 17.6715L144.01 17.2714L144.211 17.0713L144.411 16.6712L145.013 16.0709L145.214 15.6708V15.4707L145.414 15.2706V14.8705L145.214 14.6704L145.013 14.4703L144.813 14.2703H144.612L144.411 14.4703L144.211 14.6704L143.809 15.0706V15.2706H143.408H143.207V15.4707H142.405L142.204 15.2706H142.004L141.803 15.0706L141.602 14.8705L141.402 14.6704V14.4703L141.201 14.2703V12.4696L142.004 12.0694L142.605 11.8694L142.806 11.6693L143.007 11.4692H143.609L144.01 11.0691L144.411 10.869L144.813 10.4688L145.214 10.0687L145.414 9.8686L145.615 9.46846L146.016 9.26838L146.217 8.86822V8.66815L146.418 8.268L146.618 8.06793V7.4677L146.819 7.26763L147.22 6.86747L147.421 6.46733L147.622 6.06717L148.023 5.66702L148.424 5.46695L148.825 5.26688Z" fill="white" stroke="white" stroke-width="0.3" stroke-miterlimit="10"/>
<path fill-rule="evenodd" clip-rule="evenodd" d="M160.463 7.06757H161.065V7.26764L161.265 7.46772V7.86786L161.065 8.86824V11.2691L160.864 11.4692V11.6693L160.664 12.0694V12.2695H160.463L160.062 12.4696L159.861 12.2695H155.647L154.243 12.4696H151.434L151.233 12.6697L151.033 12.2695V10.869L150.832 9.06832V8.66816L150.631 8.4681V8.06794H150.832H152.036L152.638 8.26802H153.24L154.042 8.06794H154.845L155.848 8.26802H157.654L158.456 7.86786L159.259 7.66779L160.062 7.26764L160.262 7.06757H160.463Z" fill="white" stroke="white" stroke-width="0.3" stroke-miterlimit="10"/>
<path fill-rule="evenodd" clip-rule="evenodd" d="M91.6419 21.8731V22.0732H91.4412H90.438V23.0736V23.8739L90.6387 24.074H90.8393L91.2406 24.274L91.4412 24.4741H91.6419L91.8425 24.274L92.0432 24.074L92.2438 23.8739L92.4445 23.6738L92.6451 23.4737V23.0736L92.4445 22.6734V22.0732H92.2438L92.0432 21.8731H91.6419ZM95.0529 19.8724L94.6516 20.0725V23.0736L94.4509 23.4737V25.6746L94.6516 25.8746H95.0529L95.2535 25.6746H95.4541V25.4745V23.6738L95.6548 23.4737V21.0728L95.4541 20.0725L95.0529 19.8724ZM91.4412 16.8712H90.8393V17.0713V17.8716L91.04 18.2718L91.2406 18.872L91.04 19.2722L90.8393 19.6723V19.8724H92.6451V19.4722L92.4445 19.2722V19.0721L92.2438 17.8716V17.0713L92.0432 16.8712H91.4412ZM87.8296 16.8712H87.629L87.2277 17.0713H86.8264V17.2714V17.8716L86.6258 18.0717L86.4251 18.4719V18.6719L86.6258 18.872V19.0721H86.8264L87.4284 18.872L88.0303 18.6719L88.2309 18.4719L88.4316 18.0717V17.0713L88.2309 16.8712H87.8296ZM94.4509 16.6712H93.849V16.8712L93.6484 17.0713V17.6715L93.849 17.8716V18.0717H94.2503L94.4509 18.2718L94.6516 18.4719H95.0529V18.2718H95.2535L95.4541 18.0717V17.8716L95.6548 17.4715L95.8554 17.2714V16.8712H95.4541L95.2535 16.6712H94.4509ZM91.4412 11.4692H91.2406L90.8393 11.6693L90.2374 12.2695V12.8697L90.438 13.0698L90.6387 13.2699L90.8393 13.47L91.04 13.67H92.0432L92.2438 13.47V12.4696L92.4445 12.2695V11.6693H92.2438H92.0432L91.8425 11.4692H91.4412ZM91.2406 3.86636H92.8458L93.4477 4.26652L93.6484 4.46659H94.0496L94.2503 4.66666L94.0496 4.86674V5.06682L93.849 5.26689V5.46697L93.4477 5.86711L93.0464 6.46735L92.8458 6.86749L92.6451 7.26764V7.86787H93.6484H96.8587L98.2632 7.66779H98.8651L99.467 7.26764H100.872L101.473 7.46772L101.674 7.86787L101.875 8.26802V9.66854L101.674 10.2688L101.473 10.869L101.273 11.0691V11.6693L101.072 11.8694H100.069L99.8683 11.6693H99.467L98.8651 11.8694H98.2632L97.0593 11.6693H95.8554L95.6548 12.0694L95.4541 12.4696V13.2699L95.6548 13.47L95.8554 13.67L96.0561 13.47H96.4574L96.658 13.2699H97.26L97.8619 13.47H98.4638L99.0658 13.8701V15.0706L99.2664 16.0709V17.2714H99.0658V19.8724L99.2664 22.0732V24.274L99.467 25.4745V26.2748L99.2664 27.0751L99.0658 27.8754V28.2755L98.8651 28.6757V28.8758H97.8619H96.8587L96.0561 28.6757H94.2503L93.4477 28.4756L92.8458 28.0755H92.4445L92.2438 27.8754H92.0432L92.4445 27.4752L92.6451 27.2752L92.8458 26.875V26.6749L92.6451 26.4749L92.4445 26.2748H88.8329L88.6322 26.0747H88.4316V25.8746H88.2309V25.6746V24.274L88.0303 23.8739V23.4737L88.2309 23.0736V22.6734L88.0303 22.4734V20.8727L87.629 20.4726H87.0271V20.8727V22.0732L87.2277 23.6738V26.6749L87.0271 27.0751L86.8264 27.4752L86.6258 27.8754H86.2245L85.8232 28.0755H85.6226L84.6193 27.8754L83.8168 27.6753V26.4749L83.6161 26.0747V16.271L83.4155 14.8705L83.6161 14.2703V13.67L83.8168 13.47H85.8232L86.8264 13.67H87.2277L87.4284 13.47H87.629V13.0698L87.4284 12.6697L87.2277 12.4696L87.0271 12.0694H86.8264V11.8694L86.4251 12.0694L86.2245 12.2695H84.82L83.0142 12.4696L82.2116 12.6697H82.011L81.8103 12.4696L81.6097 12.2695L81.409 11.8694L81.2084 11.4692V10.869L80.8071 10.2688L80.6064 9.66854V8.26802L80.8071 7.46772V7.26764L81.2084 7.46772L81.8103 7.86787H82.4122L84.0174 8.06794H85.4219L86.8264 8.26802H88.2309L89.6355 8.06794H90.0368V7.86787L89.8361 7.46772L89.2342 6.86749L89.0335 6.66741L88.6322 6.26727V5.66704L88.4316 5.06682L88.2309 4.66666L88.4316 4.26652L88.6322 4.06644L89.2342 3.86636H89.6355L90.0368 4.06644H90.6387L90.8393 3.86636H91.2406Z" fill="white" stroke="white" stroke-width="0.3" stroke-miterlimit="10"/>
<path fill-rule="evenodd" clip-rule="evenodd" d="M63.5515 21.673L63.1502 22.0732V23.8738L63.3508 24.6741L64.956 24.4741L65.5579 24.6741H66.7618L67.1631 24.4741L67.3637 22.0732V21.8731H67.1631L66.9624 21.673H63.5515ZM63.7521 15.4707L63.5515 15.6708L63.1502 16.0709L62.7489 16.6711L62.5483 17.2714L62.3476 17.8716L62.5483 18.0717H63.3508H64.7553L65.5579 17.8716H65.7586V17.6715L65.5579 17.4715L65.3573 17.0713H64.956L64.7553 16.8712L64.354 16.6711L64.1534 16.271L63.9528 15.8708V15.6708H63.7521V15.4707ZM67.3637 10.4688H65.9592L65.5579 10.6689V10.869L65.3573 11.069V12.4696L65.1566 12.8697L64.5547 13.8701L64.354 14.2702V14.6704L64.5547 14.8705L64.7553 15.0705H65.3573L65.5579 14.8705L65.9592 14.6704L66.1599 14.2702L66.3605 14.0702V13.8701H66.5611L66.7618 13.0698L67.1631 12.4696L67.3637 12.0694L67.765 11.4692V10.6689L67.5644 10.4688H67.3637ZM60.5418 10.2687V10.6689L60.3411 10.869L59.9399 12.2695L59.7392 12.8697L59.3379 13.2699L58.9367 13.4699H58.3347L58.1341 13.67V14.2702H58.3347L58.736 14.6704L59.1373 15.0705L59.3379 15.4707H60.1405L60.3411 15.0705L60.5418 14.6704V14.2702L61.3444 13.0698L61.9463 11.6693L62.147 11.2691L61.9463 10.869V10.6689H61.7457V10.4688H61.1437L60.5418 10.2687ZM55.1244 3.66626H55.5257L56.1276 4.06641L56.9302 4.26649H58.1341L58.3347 4.46657V9.26837L58.5354 9.66851H59.7392L59.9399 9.46845H60.1405L60.3411 9.06829L60.1405 8.66814V8.06792L59.9399 7.66776L59.7392 7.26762V5.66701L61.1437 6.06717H62.5483L63.7521 6.26724L65.1566 6.46732H65.5579L65.7586 6.66739H66.9624L67.765 6.46732L68.7682 6.06717L69.5708 5.86709H70.3734L70.7747 6.06717H72.3798L72.5805 6.46732L72.7811 6.66739L72.5805 7.06754V7.4677L72.3798 7.66776V8.26799L71.9786 9.46845L71.5773 10.869L71.176 12.0694L70.7747 13.4699L70.574 13.8701L70.3734 14.2702V14.6704L70.1727 15.2706L69.3702 16.0709L68.7682 16.8712H68.3669L68.1663 17.0713H67.9657V17.2714V17.8716H68.1663L68.7682 18.0717H69.3702L69.9721 17.8716H70.3734V17.6715H70.9753V17.8716L71.176 18.0717V18.4718L70.9753 19.6723L70.7747 20.2725V23.8738L70.9753 25.4745L71.176 26.875V27.4752L70.9753 27.6753V28.6756H70.7747H70.3734V28.8757H70.1727L69.9721 28.6756L69.3702 28.4756H67.765L66.3605 28.6756L65.7586 28.4756H60.7424L60.5418 28.6756H60.3411L60.1405 28.4756V28.2755L59.9399 28.0754L59.7392 27.8754V20.2725L59.5386 19.6723L59.3379 19.2721L58.9367 18.872L58.5354 18.6719H58.1341V18.872H57.9334V19.072V19.2721L57.7328 19.4722V22.8735L57.9334 23.0736V23.8738L58.1341 24.6741L57.9334 25.4745V27.6753L57.7328 28.0754L57.5321 28.2755H55.5257L55.1244 28.4756H54.1212L53.5192 28.2755L53.1179 28.0754L52.7167 27.4752L52.516 27.0751L52.7167 26.4748L53.3186 25.8746L53.9205 25.4745H54.5225V25.2744H54.7231V24.0739V22.0732L54.5225 21.473L54.3218 21.0728L54.1212 20.8727L53.7199 21.2729L53.3186 21.473L52.9173 21.8731H52.516V22.0732L51.7134 22.4733L51.5128 22.6734L51.3121 22.8735L51.1115 23.0736L50.9109 22.6734L50.7102 22.0732L50.3089 21.2729L49.9076 20.4726L49.707 19.6723L49.5063 18.872V17.8716H49.707H50.5096L50.9109 17.6715L51.3121 17.4715H52.9173L53.5192 17.2714L53.9205 17.0713L54.3218 16.6711L54.7231 16.4711L54.9238 16.0709L55.1244 15.4707V15.0705L54.9238 14.4703V14.2702L54.7231 14.0702L54.5225 13.8701H53.9205L53.7199 14.0702H52.3154L52.1147 13.8701H51.9141L51.7134 13.67V12.4696L51.3121 11.6693L50.9109 10.869V9.66851H51.1115L51.5128 9.86859H51.9141L53.7199 9.66851L54.7231 9.46845L55.1244 9.26837L55.325 9.06829V7.86784L55.1244 7.06754L54.9238 6.26724L54.7231 5.46694V4.46657L54.9238 3.66626H55.1244Z" fill="white" stroke="white" stroke-width="0.3" stroke-miterlimit="10"/>
<path fill-rule="evenodd" clip-rule="evenodd" d="M118.929 21.473L118.528 21.673L118.327 21.8731L118.127 22.0732V22.2733L118.327 22.4734H118.528L118.729 22.6734H118.929V22.8735H119.13V22.6734H119.531V22.8735H120.133L120.334 22.6734V22.4734L120.133 22.2733V22.0732H119.933V21.8731H119.732V21.673L119.331 21.473H118.929ZM124.347 20.4726H124.146V20.6727V21.473L123.945 21.673V22.6734L124.146 23.4737H124.748L124.949 23.2737L125.35 22.8735V22.6734L125.551 22.4734V22.0732L125.35 21.673L125.149 21.473L124.949 21.0728L124.748 20.6727L124.547 20.4726H124.347ZM127.758 18.6719H126.754L126.353 18.872H125.35V19.0721V19.4722L125.751 20.0725L126.153 20.6727H126.353L126.754 20.4726L127.156 20.0725L127.557 19.8724L127.958 19.6723L128.56 19.2722H128.761V19.0721V18.872H128.36L128.159 18.6719H127.758ZM119.331 18.2718H118.929L118.729 18.4719L118.528 18.872V19.2722L118.729 19.4722H119.531V19.2722V19.0721H119.732V18.872H119.933V18.4719L119.732 18.2718H119.331ZM126.554 14.8705H126.153L125.751 15.0706L124.949 15.2707L124.547 15.0706L124.347 15.2707V16.0709L124.547 16.271V16.4711H125.751L126.754 16.271L126.955 15.8709L127.156 15.6708V15.2707L126.754 14.8705H126.554ZM115.92 14.0702V14.4704H115.719V14.8705H115.92L116.12 14.6704H116.321L116.522 14.4704V14.2703L116.321 14.0702H115.92ZM121.136 12.2695L120.936 12.6697L120.735 13.0698L120.534 13.2699L120.334 13.67V14.2703H119.933L119.732 14.0702H119.13L118.929 14.2703H118.729L118.528 14.4704V14.6704L118.729 14.8705L118.929 15.0706L120.534 15.2707L120.735 15.4707V15.6708L120.936 15.8709V17.8716H120.735V18.0717L120.534 18.4719V19.8724L120.735 20.2725H120.936V20.4726H120.735V21.2729V23.0736L120.534 23.4737L120.334 23.8739L119.933 24.074V24.4741L120.133 24.8743L120.334 25.2744H120.735L120.936 25.0743L121.136 24.8743V24.6742L121.337 24.274V23.8739L121.538 23.6738V23.4737H121.738V23.0736L121.939 22.2733L121.738 22.0732V20.8728L121.939 19.4722L121.738 18.6719V15.8709L121.538 15.0706V12.2695H121.337H121.136ZM126.554 11.0691H125.751L125.551 11.2691H124.547L124.347 11.4692V12.2695H125.35H125.751L125.952 12.4696H126.153L126.554 12.2695L126.754 12.0694L126.955 11.8694L127.356 11.4692V11.0691H126.955H126.554ZM118.528 9.86862L118.327 10.0687L118.127 10.2688V10.4688L117.926 10.6689V10.869H117.725V11.2691H117.926V11.4692L118.929 11.8694L119.13 11.6693L119.331 11.2691L119.531 11.0691V10.4688H119.331V10.2688H119.13L118.929 10.0687H118.729L118.528 9.86862ZM116.722 3.86636H117.123L117.525 4.26652L117.725 4.66666L118.127 5.06682L118.327 5.46697L118.729 5.86712L118.929 6.26727L119.13 6.46735L119.331 6.66741L119.531 6.86749L119.732 7.26765L119.933 7.46772V8.06794L119.732 8.26802V8.66816L119.933 8.86824V9.06832H120.133H120.936L121.337 8.86824V6.46735L121.538 6.06719L122.34 6.46735L122.942 7.06757L123.544 7.46772H125.35L125.751 7.66779L126.353 7.46772L126.955 7.66779H127.758L128.159 7.46772H128.36L128.761 7.26765L129.162 7.06757L129.563 6.86749H130.366L130.567 7.06757V10.4688L130.366 10.6689V10.869L130.165 11.2691V12.0694L129.965 13.0698L129.764 14.0702V15.8709L129.965 16.4711L129.764 16.8712L129.363 17.8716V18.0717L129.563 18.2718L129.363 18.4719L129.563 18.6719H129.965L130.165 18.4719L130.567 18.2718V18.0717L130.767 17.8716L130.968 17.4715H131.169L131.369 17.6715L131.57 17.8716H131.771V18.0717L131.971 18.2718L131.771 18.4719V20.2725L131.971 20.4726L132.172 20.6727L131.971 20.8728H131.57L131.169 21.2729L130.567 21.473L128.36 21.2729V21.473L128.159 21.673V22.0732L128.761 22.4734L129.363 22.6734L129.965 22.8735L130.567 23.0736L131.169 23.2737H131.57L131.971 23.4737H132.372L132.974 23.2737V23.8739L132.774 24.274L132.573 24.6742V25.2744L132.372 25.4745L132.172 26.0747L131.369 27.0751L130.968 27.2752L130.767 27.4752L130.366 27.8754L130.165 28.0755H129.965L129.764 27.8754H129.363V27.6753L128.962 27.4752L128.761 27.2752L128.56 27.0751H128.36L128.159 26.875L127.958 26.6749L127.557 26.0747L127.156 25.4745L126.955 25.0743L126.554 24.6742H126.353L126.153 25.0743L125.952 25.2744L125.751 25.4745H125.551L125.149 25.8746L124.949 26.2748L124.547 26.6749L124.146 27.0751L123.745 27.4752H123.343L122.942 27.6753H122.742L122.541 27.8754L121.939 28.0755H121.538L120.936 28.2755L120.334 28.4756H119.933L119.732 28.0755L119.531 27.2752V26.6749L119.331 26.2748L118.929 26.0747L118.528 25.8746L118.327 26.0747L118.127 26.2748L117.926 26.4749L117.525 26.6749L117.324 26.875L116.923 27.0751L116.321 27.2752L115.92 27.4752L115.518 27.8754L115.117 28.0755L114.716 27.6753L114.515 27.4752L114.314 27.0751L113.913 26.6749L113.713 26.4749L113.512 26.2748L113.311 26.0747L113.111 25.8746V25.4745H112.91V24.8743L112.709 24.6742L112.509 24.074V23.6738H113.111L113.713 23.8739L114.114 23.6738L114.716 23.4737L115.318 23.2737L115.719 23.0736L115.92 22.8735L116.12 22.6734V21.8731L115.92 21.673H115.318V21.8731V22.0732L114.916 22.4734L114.314 22.6734L113.913 22.8735L113.713 22.0732L113.512 21.2729V20.2725L113.311 19.8724V19.6723H115.117H115.92L116.12 19.4722V18.6719L115.92 18.4719H115.719L115.518 18.6719H114.314L114.114 18.4719L113.913 18.0717L113.713 17.8716V17.6715H113.512L113.311 18.0717V18.2718L113.111 18.4719V18.872H112.91V19.0721H112.709V19.4722L112.509 19.6723L112.308 20.0725L112.107 20.2725V20.6727L111.907 20.8728H111.505L111.305 20.6727L111.104 20.4726L110.903 20.2725V20.0725L110.703 19.8724H110.101L109.7 19.6723L109.298 19.2722V18.0717L109.499 17.8716H109.9V17.6715L111.305 17.4715L111.907 17.0713L112.308 16.4711L113.512 14.2703L114.314 12.6697L115.117 10.869L115.318 9.86862L115.518 8.86824L115.92 7.86787L116.12 7.06757L116.321 6.06719L116.522 5.06682L116.722 3.86636Z" fill="white" stroke="white" stroke-width="0.3" stroke-miterlimit="10"/>
<path d="M54.9257 33.598V35.4282H54.7734C54.6588 34.9505 54.4454 34.5845 54.133 34.3301C53.8206 34.0757 53.4665 33.9485 53.0708 33.9485C52.7402 33.9485 52.4369 34.0432 52.1609 34.2327C51.885 34.4222 51.6832 34.6702 51.5556 34.9765C51.3916 35.3685 51.3096 35.8046 51.3096 36.2848C51.3096 36.7573 51.3695 37.1882 51.4893 37.5776C51.609 37.9644 51.7964 38.2578 52.0516 38.4577C52.3067 38.655 52.6373 38.7536 53.0435 38.7536C53.3767 38.7536 53.6813 38.6809 53.9572 38.5355C54.2358 38.3902 54.5287 38.1397 54.8359 37.784V38.2396C54.5391 38.5485 54.2293 38.7731 53.9065 38.9133C53.5863 39.0508 53.2114 39.1196 52.7818 39.1196C52.2169 39.1196 51.7144 39.0067 51.2745 38.7809C50.8371 38.555 50.4987 38.2305 50.2592 37.8074C50.0223 37.3842 49.9038 36.9338 49.9038 36.4562C49.9038 35.9526 50.0353 35.4749 50.2982 35.0232C50.5638 34.5715 50.9204 34.2211 51.3682 33.9718C51.8186 33.7226 52.2963 33.598 52.8013 33.598C53.1736 33.598 53.5667 33.6785 53.9807 33.8394C54.2202 33.9329 54.3725 33.9796 54.4375 33.9796C54.5209 33.9796 54.5924 33.9498 54.6523 33.8901C54.7148 33.8278 54.7552 33.7304 54.7734 33.598H54.9257Z" fill="white"/>
<path d="M57.5538 36.4601V38.0955C57.5538 38.3655 57.5681 38.5342 57.5967 38.6017C57.628 38.6692 57.6865 38.7289 57.7724 38.7809C57.861 38.8302 57.9794 38.8548 58.1278 38.8548H58.3035V38.9989H55.5349V38.8548H55.7106C55.8642 38.8548 55.9878 38.8276 56.0816 38.7731C56.1493 38.7367 56.2013 38.6744 56.2378 38.5862C56.2664 38.5239 56.2807 38.3603 56.2807 38.0955V34.6221C56.2807 34.3521 56.2664 34.1834 56.2378 34.1159C56.2091 34.0484 56.1506 33.99 56.062 33.9407C55.9761 33.8888 55.859 33.8628 55.7106 33.8628H55.5349V33.7187H58.3035V33.8628H58.1278C57.9742 33.8628 57.8505 33.8901 57.7568 33.9446C57.6891 33.9809 57.6358 34.0432 57.5967 34.1315C57.5681 34.1938 57.5538 34.3573 57.5538 34.6221V36.1174H59.4243V34.6221C59.4243 34.3521 59.41 34.1834 59.3813 34.1159C59.3527 34.0484 59.2941 33.99 59.2056 33.9407C59.1171 33.8888 58.9986 33.8628 58.8502 33.8628H58.6784V33.7187H61.4432V33.8628H61.2714C61.1152 33.8628 60.9915 33.8901 60.9004 33.9446C60.8327 33.9809 60.7793 34.0432 60.7403 34.1315C60.7116 34.1938 60.6973 34.3573 60.6973 34.6221V38.0955C60.6973 38.3655 60.7116 38.5342 60.7403 38.6017C60.7689 38.6692 60.8275 38.7289 60.916 38.7809C61.0045 38.8302 61.123 38.8548 61.2714 38.8548H61.4432V38.9989H58.6784V38.8548H58.8502C59.0064 38.8548 59.1301 38.8276 59.2212 38.7731C59.2889 38.7367 59.3423 38.6744 59.3813 38.5862C59.41 38.5239 59.4243 38.3603 59.4243 38.0955V36.4601H57.5538Z" fill="white"/>
<path d="M64.5203 38.8548V38.9989H61.7517V38.8548H61.9274C62.081 38.8548 62.2047 38.8276 62.2984 38.7731C62.3661 38.7367 62.4181 38.6744 62.4546 38.5862C62.4832 38.5239 62.4975 38.3603 62.4975 38.0955V34.6221C62.4975 34.3521 62.4832 34.1834 62.4546 34.1159C62.4259 34.0484 62.3674 33.99 62.2788 33.9407C62.1929 33.8888 62.0758 33.8628 61.9274 33.8628H61.7517V33.7187H64.5203V33.8628H64.3446C64.191 33.8628 64.0674 33.8901 63.9736 33.9446C63.9059 33.9809 63.8526 34.0432 63.8135 34.1315C63.7849 34.1938 63.7706 34.3573 63.7706 34.6221V38.0955C63.7706 38.3655 63.7849 38.5342 63.8135 38.6017C63.8448 38.6692 63.9033 38.7289 63.9893 38.7809C64.0778 38.8302 64.1962 38.8548 64.3446 38.8548H64.5203Z" fill="white"/>
<path d="M66.6993 33.7187L69.3118 36.9935V34.7234C69.3118 34.4067 69.2663 34.1925 69.1751 34.0809C69.0502 33.9303 68.8406 33.8576 68.5464 33.8628V33.7187H70.2959V33.8628C70.072 33.8914 69.921 33.929 69.8429 33.9757C69.7674 34.0199 69.7075 34.0939 69.6633 34.1977C69.6216 34.2989 69.6008 34.4742 69.6008 34.7234V39.1196H69.468L65.8871 34.7234V38.08C65.8871 38.3837 65.9561 38.5888 66.0941 38.6952C66.2346 38.8016 66.3948 38.8548 66.5744 38.8548H66.6993V38.9989H64.821V38.8548C65.1126 38.8523 65.3157 38.7925 65.4302 38.6757C65.5448 38.5589 65.602 38.3603 65.602 38.08V34.3534L65.4888 34.2133C65.3768 34.0731 65.2779 33.9809 65.192 33.9368C65.1061 33.8927 64.9824 33.868 64.821 33.8628V33.7187H66.6993Z" fill="white"/>
<path d="M73.8143 37.4959H71.9438L71.7212 38.0099C71.6483 38.1812 71.6119 38.3227 71.6119 38.4343C71.6119 38.5823 71.6717 38.6913 71.7915 38.7614C71.8618 38.8029 72.0349 38.8341 72.3109 38.8548V38.9989H70.5497V38.8548C70.7397 38.8263 70.896 38.7484 71.0183 38.6212C71.1407 38.4914 71.2917 38.2253 71.4713 37.823L73.3652 33.6097H73.4394L75.349 37.9398C75.5312 38.3499 75.6809 38.6082 75.7981 38.7147C75.8866 38.7951 76.0115 38.8419 76.1729 38.8548V38.9989H73.6112V38.8548H73.7167C73.9223 38.8548 74.0668 38.8263 74.1501 38.7692C74.2074 38.7276 74.2361 38.6679 74.2361 38.5901C74.2361 38.5433 74.2282 38.4953 74.2126 38.446C74.2074 38.4226 74.1684 38.3253 74.0955 38.1539L73.8143 37.4959ZM73.6815 37.2077L72.8927 35.3892L72.0805 37.2077H73.6815Z" fill="white"/>
<path d="M81.64 37.1999L83.077 33.7187H85.2326V33.8628H85.0608C84.9046 33.8628 84.7796 33.8901 84.6859 33.9446C84.6208 33.9809 84.5688 34.0419 84.5297 34.1276C84.5011 34.1899 84.4868 34.3521 84.4868 34.6143V38.0955C84.4868 38.3655 84.5011 38.5342 84.5297 38.6017C84.5583 38.6692 84.6169 38.7289 84.7054 38.7809C84.794 38.8302 84.9124 38.8548 85.0608 38.8548H85.2326V38.9989H82.4679V38.8548H82.6397C82.7959 38.8548 82.9208 38.8276 83.0146 38.7731C83.0796 38.7367 83.1317 38.6744 83.1708 38.5862C83.1994 38.5239 83.2137 38.3603 83.2137 38.0955V34.1821L81.1831 38.9989H81.0894L79.0275 34.2172V37.9359C79.0275 38.1955 79.034 38.3551 79.047 38.4148C79.0809 38.5446 79.1538 38.6511 79.2657 38.7341C79.3803 38.8146 79.5586 38.8548 79.8007 38.8548V38.9989H77.9888V38.8548H78.0435C78.1606 38.8574 78.2699 38.8393 78.3715 38.8003C78.473 38.7588 78.5498 38.7043 78.6019 38.6368C78.6539 38.5693 78.6943 38.4745 78.7229 38.3525C78.7281 38.324 78.7307 38.1916 78.7307 37.9553V34.6143C78.7307 34.347 78.7164 34.1808 78.6878 34.1159C78.6592 34.0484 78.6006 33.99 78.5121 33.9407C78.4235 33.8888 78.3051 33.8628 78.1567 33.8628H77.9888V33.7187H80.1522L81.64 37.1999Z" fill="white"/>
<path d="M87.56 34.0225V36.1719H87.6655C88.0013 36.1719 88.2447 36.0668 88.3957 35.8565C88.5467 35.6462 88.643 35.336 88.6847 34.9259H88.8331V37.6906H88.6847C88.6534 37.3894 88.587 37.1428 88.4855 36.9507C88.3866 36.7586 88.2707 36.6301 88.138 36.5652C88.0052 36.4977 87.8125 36.464 87.56 36.464V37.9515C87.56 38.2422 87.5717 38.42 87.5952 38.4849C87.6212 38.5498 87.6681 38.603 87.7357 38.6446C87.8034 38.6861 87.9128 38.7069 88.0638 38.7069H88.3801C88.8747 38.7069 89.2704 38.5927 89.5672 38.3642C89.8666 38.1358 90.0814 37.7879 90.2115 37.3206H90.356L90.1178 38.9989H85.5411V38.8548H85.7168C85.8704 38.8548 85.9941 38.8276 86.0878 38.7731C86.1555 38.7367 86.2076 38.6744 86.244 38.5862C86.2727 38.5239 86.287 38.3603 86.287 38.0955V34.6221C86.287 34.3833 86.2805 34.2366 86.2675 34.1821C86.2414 34.0913 86.1933 34.0212 86.123 33.9718C86.024 33.8992 85.8887 33.8628 85.7168 33.8628H85.5411V33.7187H89.9733V35.2802H89.8249C89.7494 34.8986 89.6427 34.6247 89.5047 34.4586C89.3693 34.2924 89.1767 34.1704 88.9268 34.0926C88.781 34.0458 88.5076 34.0225 88.1067 34.0225H87.56Z" fill="white"/>
<path d="M92.8396 36.5925V38.0722C92.8396 38.3577 92.8565 38.5381 92.8904 38.6134C92.9268 38.6861 92.9893 38.7445 93.0778 38.7887C93.1663 38.8328 93.3317 38.8548 93.5738 38.8548V38.9989H90.8637V38.8548C91.1084 38.8548 91.2737 38.8328 91.3596 38.7887C91.4481 38.7419 91.5093 38.6822 91.5431 38.6095C91.5796 38.5368 91.5978 38.3577 91.5978 38.0722V34.6455C91.5978 34.3599 91.5796 34.1808 91.5431 34.1081C91.5093 34.0328 91.4481 33.9731 91.3596 33.929C91.2711 33.8849 91.1058 33.8628 90.8637 33.8628V33.7187H93.3238C93.9643 33.7187 94.4329 33.7629 94.7297 33.8511C95.0264 33.9394 95.2685 34.1029 95.456 34.3418C95.6434 34.578 95.7371 34.8558 95.7371 35.1751C95.7371 35.5645 95.5966 35.8864 95.3154 36.1408C95.1358 36.3017 94.8846 36.4224 94.5617 36.5029L95.8348 38.2902C96.0014 38.5213 96.1198 38.6653 96.1901 38.7225C96.2969 38.8029 96.4205 38.8471 96.5611 38.8548V38.9989H94.8937L93.1872 36.5925H92.8396ZM92.8396 34.003V36.316H93.0622C93.4241 36.316 93.6948 36.2835 93.8745 36.2186C94.0541 36.1512 94.1947 36.0317 94.2962 35.8604C94.4003 35.6865 94.4524 35.4606 94.4524 35.1829C94.4524 34.7805 94.3574 34.4832 94.1673 34.2911C93.9799 34.099 93.6766 34.003 93.2575 34.003H92.8396Z" fill="white"/>
<path d="M101.833 33.598V35.4282H101.681C101.566 34.9505 101.353 34.5845 101.04 34.3301C100.728 34.0757 100.374 33.9485 99.978 33.9485C99.6474 33.9485 99.3441 34.0432 99.0681 34.2327C98.7922 34.4222 98.5904 34.6702 98.4629 34.9765C98.2989 35.3685 98.2168 35.8046 98.2168 36.2848C98.2168 36.7573 98.2767 37.1882 98.3965 37.5776C98.5162 37.9644 98.7037 38.2578 98.9588 38.4577C99.2139 38.655 99.5446 38.7536 99.9507 38.7536C100.284 38.7536 100.588 38.6809 100.864 38.5355C101.143 38.3902 101.436 38.1397 101.743 37.784V38.2396C101.446 38.5485 101.137 38.7731 100.814 38.9133C100.493 39.0508 100.119 39.1196 99.689 39.1196C99.1241 39.1196 98.6217 39.0067 98.1817 38.7809C97.7443 38.555 97.4059 38.2305 97.1664 37.8074C96.9295 37.3842 96.811 36.9338 96.811 36.4562C96.811 35.9526 96.9425 35.4749 97.2054 35.0232C97.471 34.5715 97.8276 34.2211 98.2754 33.9718C98.7258 33.7226 99.2035 33.598 99.7086 33.598C100.081 33.598 100.474 33.6785 100.888 33.8394C101.127 33.9329 101.28 33.9796 101.345 33.9796C101.428 33.9796 101.5 33.9498 101.56 33.8901C101.622 33.8278 101.662 33.7304 101.681 33.598H101.833Z" fill="white"/>
<path d="M104.461 36.4601V38.0955C104.461 38.3655 104.475 38.5342 104.504 38.6017C104.535 38.6692 104.594 38.7289 104.68 38.7809C104.768 38.8302 104.887 38.8548 105.035 38.8548H105.211V38.9989H102.442V38.8548H102.618C102.771 38.8548 102.895 38.8276 102.989 38.7731C103.056 38.7367 103.109 38.6744 103.145 38.5862C103.174 38.5239 103.188 38.3603 103.188 38.0955V34.6221C103.188 34.3521 103.174 34.1834 103.145 34.1159C103.116 34.0484 103.058 33.99 102.969 33.9407C102.883 33.8888 102.766 33.8628 102.618 33.8628H102.442V33.7187H105.211V33.8628H105.035C104.881 33.8628 104.758 33.8901 104.664 33.9446C104.596 33.9809 104.543 34.0432 104.504 34.1315C104.475 34.1938 104.461 34.3573 104.461 34.6221V36.1174H106.331V34.6221C106.331 34.3521 106.317 34.1834 106.289 34.1159C106.26 34.0484 106.201 33.99 106.113 33.9407C106.024 33.8888 105.906 33.8628 105.757 33.8628H105.586V33.7187H108.35V33.8628H108.179C108.022 33.8628 107.899 33.8901 107.808 33.9446C107.74 33.9809 107.687 34.0432 107.647 34.1315C107.619 34.1938 107.605 34.3573 107.605 34.6221V38.0955C107.605 38.3655 107.619 38.5342 107.647 38.6017C107.676 38.6692 107.735 38.7289 107.823 38.7809C107.912 38.8302 108.03 38.8548 108.179 38.8548H108.35V38.9989H105.586V38.8548H105.757C105.914 38.8548 106.037 38.8276 106.128 38.7731C106.196 38.7367 106.249 38.6744 106.289 38.5862C106.317 38.5239 106.331 38.3603 106.331 38.0955V36.4601H104.461Z" fill="white"/>
<path d="M111.826 37.4959H109.955L109.733 38.0099C109.66 38.1812 109.623 38.3227 109.623 38.4343C109.623 38.5823 109.683 38.6913 109.803 38.7614C109.873 38.8029 110.046 38.8341 110.322 38.8548V38.9989H108.561V38.8548C108.751 38.8263 108.908 38.7484 109.03 38.6212C109.152 38.4914 109.303 38.2253 109.483 37.823L111.377 33.6097H111.451L113.361 37.9398C113.543 38.3499 113.692 38.6082 113.81 38.7147C113.898 38.7951 114.023 38.8419 114.185 38.8548V38.9989H111.623V38.8548H111.728C111.934 38.8548 112.078 38.8263 112.162 38.7692C112.219 38.7276 112.248 38.6679 112.248 38.5901C112.248 38.5433 112.24 38.4953 112.224 38.446C112.219 38.4226 112.18 38.3253 112.107 38.1539L111.826 37.4959ZM111.693 37.2077L110.904 35.3892L110.092 37.2077H111.693Z" fill="white"/>
<path d="M116.27 33.7187L118.882 36.9935V34.7234C118.882 34.4067 118.837 34.1925 118.746 34.0809C118.621 33.9303 118.411 33.8576 118.117 33.8628V33.7187H119.866V33.8628C119.642 33.8914 119.491 33.929 119.413 33.9757C119.338 34.0199 119.278 34.0939 119.234 34.1977C119.192 34.2989 119.171 34.4742 119.171 34.7234V39.1196H119.038L115.458 34.7234V38.08C115.458 38.3837 115.527 38.5888 115.665 38.6952C115.805 38.8016 115.965 38.8548 116.145 38.8548H116.27V38.9989H114.391V38.8548C114.683 38.8523 114.886 38.7925 115.001 38.6757C115.115 38.5589 115.172 38.3603 115.172 38.08V34.3534L115.059 34.2133C114.947 34.0731 114.848 33.9809 114.762 33.9368C114.677 33.8927 114.553 33.868 114.391 33.8628V33.7187H116.27Z" fill="white"/>
<path d="M125.103 33.7187V35.1478H124.962C124.879 34.8181 124.787 34.5819 124.685 34.4391C124.584 34.2937 124.444 34.1782 124.267 34.0926C124.168 34.0458 123.995 34.0225 123.748 34.0225H123.354V38.0955C123.354 38.3655 123.368 38.5342 123.396 38.6017C123.428 38.6692 123.486 38.7289 123.572 38.7809C123.661 38.8302 123.78 38.8548 123.931 38.8548H124.107V38.9989H121.335V38.8548H121.51C121.664 38.8548 121.788 38.8276 121.881 38.7731C121.949 38.7367 122.002 38.6744 122.041 38.5862C122.07 38.5239 122.084 38.3603 122.084 38.0955V34.0225H121.702C121.345 34.0225 121.086 34.0977 120.925 34.2483C120.698 34.4586 120.555 34.7584 120.495 35.1478H120.347V33.7187H125.103Z" fill="white"/>
<path d="M129.149 33.598L129.192 35.3581H129.031C128.956 34.9168 128.77 34.5624 128.473 34.295C128.179 34.0251 127.86 33.8901 127.516 33.8901C127.251 33.8901 127.04 33.9615 126.884 34.1042C126.73 34.2444 126.653 34.4067 126.653 34.591C126.653 34.7078 126.681 34.8116 126.735 34.9025C126.811 35.0245 126.932 35.1452 127.098 35.2646C127.221 35.3503 127.503 35.5022 127.946 35.7202C128.565 36.024 128.983 36.3108 129.199 36.5808C129.413 36.8508 129.52 37.1597 129.52 37.5075C129.52 37.9489 129.346 38.3292 129 38.6485C128.657 38.9652 128.219 39.1235 127.688 39.1235C127.521 39.1235 127.364 39.1067 127.216 39.0729C127.067 39.0392 126.881 38.9756 126.657 38.8821C126.532 38.8302 126.429 38.8042 126.349 38.8042C126.281 38.8042 126.209 38.8302 126.134 38.8821C126.058 38.934 125.997 39.0132 125.95 39.1196H125.806V37.1259H125.95C126.065 37.6867 126.285 38.115 126.61 38.4109C126.938 38.7043 127.291 38.851 127.669 38.851C127.96 38.851 128.192 38.7718 128.364 38.6134C128.538 38.4551 128.625 38.2708 128.625 38.0605C128.625 37.9359 128.591 37.8152 128.524 37.6983C128.459 37.5815 128.358 37.4712 128.223 37.3674C128.088 37.2609 127.848 37.1233 127.505 36.9546C127.023 36.7184 126.677 36.5172 126.466 36.351C126.255 36.1849 126.092 35.9993 125.978 35.7942C125.866 35.5891 125.81 35.3633 125.81 35.1167C125.81 34.6961 125.965 34.3379 126.274 34.0419C126.584 33.746 126.975 33.598 127.446 33.598C127.618 33.598 127.784 33.6188 127.946 33.6603C128.068 33.6915 128.217 33.7499 128.391 33.8356C128.568 33.9186 128.692 33.9602 128.762 33.9602C128.83 33.9602 128.883 33.9394 128.922 33.8979C128.961 33.8563 128.998 33.7564 129.031 33.598H129.149Z" fill="white"/>
<path d="M135.401 36.1992C135.903 36.316 136.256 36.4575 136.459 36.6236C136.75 36.8599 136.896 37.1662 136.896 37.5426C136.896 37.9398 136.736 38.2682 136.416 38.5278C136.023 38.8419 135.451 38.9989 134.702 38.9989H132.011V38.8548C132.256 38.8548 132.421 38.8328 132.507 38.7887C132.595 38.7419 132.657 38.6822 132.69 38.6095C132.727 38.5368 132.745 38.3577 132.745 38.0722V34.6455C132.745 34.3599 132.727 34.1808 132.69 34.1081C132.657 34.0328 132.595 33.9731 132.507 33.929C132.418 33.8849 132.253 33.8628 132.011 33.8628V33.7187H134.549C135.156 33.7187 135.585 33.7733 135.838 33.8823C136.09 33.9887 136.29 34.1497 136.435 34.3651C136.581 34.578 136.654 34.8051 136.654 35.0466C136.654 35.301 136.562 35.5281 136.377 35.728C136.192 35.9253 135.867 36.0824 135.401 36.1992ZM133.979 36.094C134.349 36.094 134.621 36.0525 134.795 35.9694C134.972 35.8864 135.108 35.7695 135.201 35.619C135.295 35.4684 135.342 35.2763 135.342 35.0427C135.342 34.809 135.295 34.6182 135.201 34.4703C135.11 34.3197 134.979 34.2055 134.807 34.1276C134.635 34.0497 134.359 34.0121 133.979 34.0147V36.094ZM133.979 36.3978V38.0916L133.975 38.2863C133.975 38.4265 134.01 38.5329 134.081 38.6056C134.154 38.6757 134.26 38.7108 134.401 38.7108C134.609 38.7108 134.8 38.6653 134.975 38.5745C135.152 38.481 135.287 38.3473 135.381 38.1734C135.475 37.9969 135.522 37.8009 135.522 37.5854C135.522 37.3388 135.464 37.1181 135.35 36.9235C135.235 36.7262 135.078 36.5886 134.877 36.5107C134.677 36.4328 134.377 36.3952 133.979 36.3978Z" fill="white"/>
<path d="M140.504 37.4959H138.634L138.411 38.0099C138.338 38.1812 138.302 38.3227 138.302 38.4343C138.302 38.5823 138.362 38.6913 138.482 38.7614C138.552 38.8029 138.725 38.8341 139.001 38.8548V38.9989H137.24V38.8548C137.43 38.8263 137.586 38.7484 137.708 38.6212C137.831 38.4914 137.982 38.2253 138.161 37.823L140.055 33.6097H140.13L142.039 37.9398C142.221 38.3499 142.371 38.6082 142.488 38.7147C142.577 38.7951 142.702 38.8419 142.863 38.8548V38.9989H140.301V38.8548H140.407C140.612 38.8548 140.757 38.8263 140.84 38.7692C140.898 38.7276 140.926 38.6679 140.926 38.5901C140.926 38.5433 140.918 38.4953 140.903 38.446C140.898 38.4226 140.858 38.3253 140.786 38.1539L140.504 37.4959ZM140.372 37.2077L139.583 35.3892L138.771 37.2077H140.372Z" fill="white"/>
<path d="M144.948 33.7187L147.561 36.9935V34.7234C147.561 34.4067 147.515 34.1925 147.424 34.0809C147.299 33.9303 147.09 33.8576 146.795 33.8628V33.7187H148.545V33.8628C148.321 33.8914 148.17 33.929 148.092 33.9757C148.016 34.0199 147.957 34.0939 147.912 34.1977C147.871 34.2989 147.85 34.4742 147.85 34.7234V39.1196H147.717L144.136 34.7234V38.08C144.136 38.3837 144.205 38.5888 144.343 38.6952C144.484 38.8016 144.644 38.8548 144.823 38.8548H144.948V38.9989H143.07V38.8548C143.362 38.8523 143.565 38.7925 143.679 38.6757C143.794 38.5589 143.851 38.3603 143.851 38.08V34.3534L143.738 34.2133C143.626 34.0731 143.527 33.9809 143.441 33.9368C143.355 33.8927 143.231 33.868 143.07 33.8628V33.7187H144.948Z" fill="white"/>
<path d="M152.067 35.7397L153.93 38.0644C154.193 38.3915 154.419 38.6134 154.609 38.7302C154.747 38.8133 154.893 38.8548 155.047 38.8548V38.9989H152.29V38.8548C152.464 38.8393 152.576 38.812 152.626 38.7731C152.678 38.7341 152.704 38.6861 152.704 38.629C152.704 38.52 152.584 38.3149 152.344 38.0138L151.13 36.4912L150.935 36.6548V38.0955C150.935 38.3707 150.95 38.542 150.982 38.6095C151.013 38.677 151.073 38.7354 151.161 38.7848C151.25 38.8315 151.392 38.8548 151.587 38.8548V38.9989H148.916V38.8548H149.092C149.245 38.8548 149.369 38.8276 149.463 38.7731C149.53 38.7367 149.582 38.6744 149.619 38.5862C149.647 38.5239 149.662 38.3603 149.662 38.0955V34.6221C149.662 34.3521 149.647 34.1834 149.619 34.1159C149.59 34.0484 149.532 33.99 149.443 33.9407C149.357 33.8888 149.24 33.8628 149.092 33.8628H148.916V33.7187H151.552V33.8628C151.372 33.8628 151.235 33.8888 151.142 33.9407C151.074 33.977 151.021 34.038 150.982 34.1237C150.95 34.1886 150.935 34.3547 150.935 34.6221V36.2654L152.899 34.6805C153.172 34.4599 153.309 34.2834 153.309 34.151C153.309 34.0523 153.253 33.9744 153.141 33.9173C153.084 33.8888 152.942 33.8706 152.715 33.8628V33.7187H154.781V33.8628C154.596 33.8758 154.451 33.9095 154.344 33.9641C154.24 34.016 153.998 34.1951 153.618 34.5014L152.067 35.7397Z" fill="white"/>
</g>
<defs>
<clipPath id="clip0_303_3878">
<rect width="163" height="40" fill="white"/>
</clipPath>
</defs>
</svg>
