<svg width="218" height="40" viewBox="0 0 218 40" fill="none" xmlns="http://www.w3.org/2000/svg">
<g clip-path="url(#clip0_303_3722)">
<path fill-rule="evenodd" clip-rule="evenodd" d="M167.664 31.2868H170.41C171.728 31.2868 173.009 31.4338 173.009 32.7941C173.009 33.4926 172.57 34.4485 171.178 34.4485H167.664V31.2868ZM167.664 27.3897H170.044C172.203 27.3897 172.496 28.3823 172.496 28.9338C172.496 29.5221 172.13 30.2941 170.556 30.2941H167.664V27.3897ZM166.273 35.4779H171.654C172.423 35.4779 174.437 34.7794 174.437 32.8676C174.437 31.1765 172.862 30.7721 172.569 30.6618C173.485 30.3309 173.961 29.5588 173.961 28.7132C173.961 26.9118 171.984 26.3603 171.069 26.3603H166.31L166.273 35.4779Z" fill="white"/>
<path fill-rule="evenodd" clip-rule="evenodd" d="M179.964 33.3456C179.964 33.5662 179.159 34.6691 177.438 34.6323C176.743 34.6323 176.047 34.3015 176.047 33.4926C176.047 33.0147 176.56 32.6838 176.779 32.6103C177.511 32.3162 178.903 32.3529 179.928 32.022V33.3456H179.964ZM181.245 29.8529C181.209 29.1912 180.403 28.7868 179.415 28.5662C178.939 28.4559 178.5 28.4559 178.061 28.4559C177.328 28.4559 176.852 28.5662 176.45 28.75C175.644 29.0809 175.242 29.6691 175.132 30.0368L175.095 30.625H176.267C176.303 30.3309 176.377 29.4118 177.878 29.4118C178.719 29.4118 179.818 29.6323 179.928 30.0735V30.8823C179.928 31.25 179.452 31.3603 179.305 31.397C178.573 31.5441 177.841 31.4338 176.413 31.8015C175.608 32.022 174.839 32.4265 174.766 33.5294C174.656 34.8162 175.754 35.5882 177.511 35.5882C178.536 35.5882 179.378 35.0368 180.001 34.6323C180.037 35.0735 180.586 35.5882 181.172 35.5882C181.575 35.5882 181.831 35.5515 182.124 35.4779V34.6323C182.051 34.6691 181.941 34.6691 181.831 34.6691C181.502 34.6691 181.245 34.4853 181.245 34.2647V29.8529Z" fill="white"/>
<path d="M182.563 28.8235V35.4044H183.808V31.9118C183.772 30.1471 184.906 29.5956 185.968 29.5956C186.847 29.5956 187.542 30.0368 187.542 30.8456V35.4412H188.787V30.2941C188.604 29.3015 187.945 29.0074 187.542 28.8235C187.359 28.75 186.81 28.6765 186.261 28.6397C185.712 28.6397 185.089 28.7132 184.723 28.9338C184.43 29.0441 184.101 29.3382 183.845 29.6324H183.808V28.7868L182.563 28.8235Z" fill="white"/>
<path d="M189.775 26.25V35.4044H191.02V32.9412L192.265 31.9118L194.864 35.4412H196.401L193.217 31.1397L195.962 28.8603H194.351L191.02 31.6176V26.25H189.775Z" fill="white"/>
<path d="M58.17 29.0809C57.5111 27.2059 56.0468 26.0662 53.7405 26.1029C52.386 26.1029 51.1779 26.6544 50.702 27.0588C49.4207 28.0882 48.9814 29.6324 48.9814 30.9191C48.9814 32.2059 49.4573 33.75 50.702 34.7794C51.1779 35.1471 52.3494 35.6985 53.7405 35.7353C56.2298 35.7721 57.9138 34.1912 58.3897 32.0956H56.962C56.4128 33.8235 55.4244 34.6691 53.8137 34.6691C52.9351 34.6691 52.0565 34.375 51.4708 33.7868C50.8118 33.1618 50.4092 32.0588 50.4092 30.9191C50.3725 29.8162 50.8118 28.7132 51.4708 28.0515C52.0565 27.4632 52.9351 27.1691 53.8137 27.1691C55.3146 27.1691 56.2664 27.9412 56.7423 29.0809H58.17Z" fill="white"/>
<path d="M59.1582 35.4044H60.4029V31.1397C60.4029 30.5515 60.6225 30.4044 60.8788 30.1471C61.3547 29.853 61.7207 29.6324 62.1234 29.5956C62.5261 29.5221 62.9288 29.5956 63.4413 29.7794C63.661 29.853 64.1735 30.1103 64.1003 30.9191V35.4044H65.3449V30.4044C65.3815 30.2206 65.1985 29.1912 64.0636 28.8603C63.6244 28.7132 63.1851 28.6397 62.7824 28.6397C62.3797 28.6397 62.0502 28.7132 61.7207 28.8235C61.0984 29.0441 60.6225 29.375 60.3662 29.6324V26.2868H59.1216L59.1582 35.4044Z" fill="white"/>
<path fill-rule="evenodd" clip-rule="evenodd" d="M66.48 27.5735H67.7246V26.25H66.48V27.5735ZM66.48 35.4044H67.7246V28.8235H66.48V35.4044Z" fill="white"/>
<path d="M68.9326 28.8235V35.4044H70.1773V31.9118C70.1407 30.1471 71.2755 29.5956 72.3372 29.5956C73.2157 29.5956 73.9113 30.0368 73.9113 30.8456V35.4412H75.156V30.2941C74.9729 29.3015 74.314 29.0074 73.9113 28.8235C73.7282 28.75 73.1791 28.6765 72.63 28.6397C72.0443 28.6397 71.4586 28.7132 71.0925 28.9338C70.7996 29.0441 70.4701 29.3382 70.2139 29.6324H70.1773V28.7868L68.9326 28.8235Z" fill="white"/>
<path fill-rule="evenodd" clip-rule="evenodd" d="M81.0862 33.3824C81.0862 33.603 80.2809 34.7059 78.5603 34.6691C77.8648 34.6691 77.1692 34.3382 77.1692 33.5294C77.1692 33.0515 77.6817 32.7206 77.9014 32.6471C78.6335 32.3897 80.0246 32.3897 81.0496 32.0588V33.3824H81.0862ZM82.4041 29.8897C82.3675 29.228 81.5622 28.8235 80.5737 28.6397C80.0978 28.5294 79.6585 28.5294 79.2192 28.5294C78.4871 28.5294 78.0112 28.6397 77.6085 28.8235C76.8031 29.1544 76.4004 29.7427 76.2906 30.1103L76.254 30.6985H77.4255C77.4621 30.4044 77.5353 29.4853 79.0362 29.4853C79.8782 29.4853 80.9764 29.7059 81.0862 30.1471V30.9191C81.0862 31.2868 80.6103 31.3971 80.4639 31.4338C79.7318 31.5809 78.9996 31.4706 77.5719 31.8382C76.7665 32.0221 75.9977 32.4632 75.9245 33.5662C75.8147 34.853 76.9129 35.625 78.6701 35.625C79.6951 35.625 80.5371 35.0735 81.1595 34.6691C81.1961 35.1103 81.7452 35.625 82.3309 35.625C82.7336 35.625 82.9899 35.5882 83.3193 35.5147V34.6691C83.2461 34.7059 83.1363 34.7059 83.0265 34.7059C82.697 34.7059 82.4407 34.5221 82.4407 34.3015L82.4041 29.8897Z" fill="white"/>
<path d="M97.4137 29.0809C96.7547 27.2059 95.2904 26.0662 92.9841 26.1029C91.6296 26.1029 90.4216 26.6544 89.9457 27.0588C88.6644 28.0882 88.2251 29.6324 88.2251 30.9191C88.2251 32.2059 88.701 33.75 89.9457 34.7794C90.4216 35.1471 91.593 35.6985 92.9841 35.7353C95.4735 35.7721 97.1574 34.1912 97.6333 32.0956H96.2056C95.6565 33.8235 94.6681 34.6691 93.0573 34.6691C92.1787 34.6691 91.3002 34.375 90.7144 33.7868C90.0555 33.1618 89.6528 32.0588 89.6528 30.9191C89.6162 29.8162 90.0555 28.7132 90.7144 28.0515C91.3002 27.4632 92.1787 27.1691 93.0573 27.1691C94.5583 27.1691 95.5101 27.9412 95.986 29.0809H97.4137Z" fill="white"/>
<path fill-rule="evenodd" clip-rule="evenodd" d="M103.71 32.1691C103.71 33.2353 103.125 34.6691 101.441 34.6691C99.7933 34.6691 99.1709 33.2721 99.1709 32.1691C99.1709 31.1029 99.7933 29.7059 101.441 29.7059C103.088 29.6691 103.71 31.0662 103.71 32.1691ZM104.992 32.1691C104.992 29.2279 102.868 28.6397 101.441 28.6397C100.013 28.6397 97.8896 29.2279 97.8896 32.1691C97.8896 35.1103 100.013 35.6985 101.441 35.6985C102.868 35.6985 104.992 35.0735 104.992 32.1691Z" fill="white"/>
<path d="M105.797 28.8235V35.4044H107.042V31.9118C107.005 30.1471 108.14 29.5956 109.201 29.5956C110.08 29.5956 110.776 30.0368 110.776 30.8456V35.4412H112.02V30.2941C111.874 29.3015 111.178 29.0074 110.776 28.8235C110.593 28.75 110.043 28.6765 109.494 28.6397C108.909 28.6397 108.323 28.7132 107.92 28.9338C107.627 29.0441 107.298 29.3382 107.042 29.6324H107.005V28.7868L105.797 28.8235Z" fill="white"/>
<path d="M112.643 33.4559C112.643 34.0809 112.789 35.2573 114.619 35.5882C115.059 35.6618 115.608 35.6618 116.12 35.6618C116.633 35.625 117.145 35.5515 117.548 35.3676C118.39 35.0735 118.866 34.4118 118.939 33.7868C119.049 33.1618 118.793 32.5 118.097 32.1691C117.548 31.875 116.926 31.7647 116.303 31.6544C115.535 31.5073 114.912 31.3603 114.473 31.1765C114.034 30.9926 113.924 30.625 114.107 30.2573C114.29 29.8897 114.876 29.5588 115.644 29.5588C117.402 29.5588 117.438 30.2573 117.438 30.625H118.683C118.683 29.8897 118.353 28.6029 115.754 28.6029C114.217 28.6029 112.862 29.3015 112.862 30.5882C112.862 31.5441 113.411 32.0221 113.997 32.2059C114.656 32.4632 115.937 32.6838 116.926 32.8676C117.548 33.0515 117.768 33.3823 117.768 33.7132C117.768 34.0441 117.548 34.3382 117.292 34.5221C117.072 34.6323 116.706 34.7426 116.303 34.8162C115.901 34.8162 115.498 34.8162 115.205 34.7426C114.327 34.5221 113.887 34.1176 113.851 33.4559H112.643Z" fill="white"/>
<path d="M121.245 27.0221H120.001V28.7868H118.902V29.7794H120.001V34.7427C120.001 35 120.257 35.5882 121.135 35.6618C121.611 35.6985 121.977 35.6618 122.49 35.5882V34.6691C121.794 34.7794 121.245 34.7427 121.245 34.3382V29.7794H122.49V28.8235H121.245V27.0221Z" fill="white"/>
<path d="M122.929 35.4044H124.174V31.9853C124.174 30.8456 124.613 30.2206 125.492 29.8897C125.821 29.7794 126.224 29.7427 126.7 29.7427V28.6397H126.004C125.455 28.6765 124.686 29.1176 124.21 29.8529H124.174V28.8235H122.929V35.4044Z" fill="white"/>
<path d="M133.363 35.4044V28.8235H132.118V32.3897C132.118 33.2353 131.935 34.2279 130.58 34.6323C130.251 34.7059 129.958 34.7426 129.702 34.7059C129.445 34.7059 129.189 34.6323 129.006 34.522C128.603 34.3015 128.384 33.9706 128.42 33.4559V28.8235H127.176V34.0809C127.322 34.7794 127.835 35.2941 128.42 35.5515C128.603 35.625 129.116 35.6985 129.665 35.6985C130.251 35.6985 130.837 35.625 131.239 35.4044C131.532 35.2941 131.862 35 132.118 34.7059H132.154V35.4044H133.363Z" fill="white"/>
<path d="M139.439 33.125C139.403 33.3823 139.256 33.7132 139.073 33.9706C138.89 34.3382 138.268 34.6323 137.572 34.6691C136.877 34.7059 136.108 34.4485 135.632 33.6397C135.376 33.1985 135.303 32.5368 135.339 31.875C135.413 31.2132 135.596 30.5515 135.962 30.2573C136.474 29.7426 137.023 29.5956 137.499 29.5588C137.975 29.5588 138.341 29.6691 138.561 29.7794C139.073 30 139.256 30.3309 139.403 30.9926H140.648C140.574 30.2206 140.281 29.4853 139.659 29.1912C139.11 28.7868 138.305 28.6029 137.463 28.6029C136.621 28.6397 135.742 28.8971 135.083 29.4853C134.278 30.2206 133.985 31.1765 133.948 32.0221C133.912 32.9044 134.168 33.7132 134.497 34.2647C134.973 35.1471 136.108 35.5882 137.243 35.6618C138.378 35.6985 139.586 35.2941 140.208 34.4485C140.428 34.1544 140.611 33.6765 140.648 33.125H139.439Z" fill="white"/>
<path d="M143.173 27.0221H141.929V28.7868H140.831V29.7794H141.929V34.7427C141.929 35 142.185 35.5882 143.064 35.6618C143.576 35.6985 143.906 35.6618 144.418 35.5882V34.6691C143.723 34.7794 143.173 34.7427 143.173 34.3382V29.7794H144.418V28.8235H143.173V27.0221Z" fill="white"/>
<path fill-rule="evenodd" clip-rule="evenodd" d="M145.114 27.5735H146.358V26.25H145.114V27.5735ZM145.114 35.4044H146.358V28.8235H145.114V35.4044Z" fill="white"/>
<path fill-rule="evenodd" clip-rule="evenodd" d="M152.838 32.1691C152.838 33.2353 152.252 34.6691 150.568 34.6691C148.921 34.6691 148.298 33.2721 148.298 32.1691C148.298 31.1029 148.921 29.7059 150.568 29.7059C152.252 29.6691 152.838 31.0662 152.838 32.1691ZM154.119 32.1691C154.119 29.2279 151.996 28.6397 150.568 28.6397C149.14 28.6397 147.017 29.2279 147.017 32.1691C147.017 35.1103 149.14 35.6985 150.568 35.6985C152.032 35.6985 154.119 35.0735 154.119 32.1691Z" fill="white"/>
<path d="M154.925 28.8235V35.4044H156.169V31.9118C156.133 30.1471 157.268 29.5956 158.329 29.5956C159.208 29.5956 159.903 30.0368 159.903 30.8456V35.4412H161.148V30.2941C161.002 29.3015 160.306 29.0074 159.903 28.8235C159.72 28.75 159.171 28.6765 158.622 28.6397C158.036 28.6397 157.451 28.7132 157.085 28.9338C156.792 29.0441 156.462 29.3382 156.206 29.6324H156.169V28.7868L154.925 28.8235Z" fill="white"/>
<path d="M33.5328 15.6618L22.0746 4.1544C19.695 1.76469 16.8396 1.91175 15.8512 2.09558C6.84568 3.60293 0 11.4338 0 20.9191C0 31.4706 8.49303 40 18.9629 40C29.1765 40 37.5231 31.8015 37.8892 21.6176C37.8892 21.5073 37.8526 21.1397 37.5963 20.9926C37.3034 20.8088 36.6811 20.8823 36.6811 20.8823H29.3595C29.3595 20.8823 28.664 20.8823 28.4443 20.9926C28.2979 21.0662 28.1149 21.2132 28.1149 21.2132L19.1825 30.147C19.0361 30.2941 18.8165 30.2941 18.67 30.147L9.66448 21.1029C9.51805 20.9559 9.51805 20.7353 9.66448 20.5882L18.67 11.5441C18.8165 11.397 19.0361 11.397 19.1825 11.5441L27.4193 19.8529C27.4193 19.8529 27.8586 20.2573 28.2613 20.3309C28.6274 20.4412 29.1765 20.0368 29.1765 20.0368L33.5328 15.6618Z" fill="white"/>
<path fill-rule="evenodd" clip-rule="evenodd" d="M37.7063 9.74266L31.5562 3.60295C24.7105 -3.05146 16.8032 1.54413 16.8032 1.54413C16.8032 1.54413 20.1711 -0.257342 24.4543 4.30148L34.5947 14.5588L37.5965 11.5809C37.5965 11.5809 37.9626 11.1397 38.0358 10.6985C38.109 10.2941 37.7063 9.74266 37.7063 9.74266Z" fill="white"/>
<path fill-rule="evenodd" clip-rule="evenodd" d="M62.3068 18.9338H68.0908V9.00734H62.3068V18.9338ZM71.8248 8.97057V20.6618H62.3434V22.8309H58.5728V20.6618H49.0913V8.97057C49.0913 8.05146 49.8235 7.2794 50.7753 7.2794H58.5728V5.44116H62.2701V7.2794H70.1408C71.0927 7.2794 71.8248 8.05146 71.8248 8.97057ZM52.8253 18.9338H58.5728V9.00734H52.8253V18.9338Z" fill="white"/>
<path d="M62.3068 18.9338H68.0908V9.00734H62.3068V18.9338ZM71.8248 8.97057V20.6618H62.3434V22.8309H58.5728V20.6618H49.0913V8.97057C49.0913 8.05146 49.8235 7.2794 50.7753 7.2794H58.5728V5.44116H62.2701V7.2794H70.1408C71.0927 7.2794 71.8248 8.05146 71.8248 8.97057ZM52.8253 18.9338H58.5728V9.00734H52.8253V18.9338Z" stroke="white" stroke-width="0.3" stroke-miterlimit="3.864"/>
<path d="M96.1322 18.1618H91.2267V14.0809H95.8393V12.353H91.2267V10.1471H96.1322V8.45589H82.6238V10.1471H87.4195V12.353H82.9167V14.0809H87.4195V18.1618H82.6238V19.853H96.1322V18.1618ZM99.0242 5.29413H79.7318C78.8166 5.29413 78.0845 6.02942 78.0845 6.9853V22.7941H100.672V6.94854C100.672 6.02942 99.9394 5.29413 99.0242 5.29413ZM81.8185 6.94854H96.9375V21.1765H81.8185V6.94854ZM94.4848 14.7059H91.8856L92.8375 16.4338C92.8375 16.4338 93.1303 17.0956 93.6794 17.3897C94.1553 17.6471 94.8875 17.5735 94.8875 17.5735H96.0589V15.9927H95.217L94.4848 14.7059Z" fill="white"/>
<path d="M96.1322 18.1618H91.2267V14.0809H95.8393V12.353H91.2267V10.1471H96.1322V8.45589H82.6238V10.1471H87.4195V12.353H82.9167V14.0809H87.4195V18.1618H82.6238V19.8529H96.1322V18.1618ZM99.0242 5.29413H79.7318C78.8166 5.29413 78.0845 6.02942 78.0845 6.9853V22.7941H100.672V6.94854C100.672 6.02942 99.9394 5.29413 99.0242 5.29413ZM81.8185 6.94854H96.9375V21.1765H81.8185V6.94854ZM94.4848 14.7059H91.8856L92.8375 16.4338C92.8375 16.4338 93.1303 17.0956 93.6794 17.3897C94.1553 17.6471 94.8875 17.5735 94.8875 17.5735H96.0589V15.9927H95.217L94.4848 14.7059Z" stroke="white" stroke-width="0.3" stroke-miterlimit="3.864"/>
<path d="M130.214 9.11764H128.86V7.83088C128.86 6.875 128.091 6.10294 127.139 6.10294H122.49V5.11029H118.976V6.10294H114.327V7.86764H118.976V9.15441H113.741V10.9191H118.976V12.1323H114.327V13.8971H118.976V15.1838H113.924V16.9485H118.976V18.1618H113.485V19.9632H118.976V21.2132H115.352C113.924 21.2132 112.643 20.8088 111.508 20.0735C112.203 19.0441 112.643 17.7941 112.643 16.4338L112.679 11.6912H110.519C112.386 10.4779 113.338 8.30882 113.338 5.91911C113.338 5.88235 106.2 5.91911 106.2 5.91911L106.163 7.72058H110.3C109.97 9.74264 108.433 11.3235 106.456 11.7279V13.4926H110.08V16.0662C110.08 16.8382 109.86 17.5368 109.531 18.1985C108.982 17.3897 108.543 16.4706 108.36 15.4412L106.419 15.4779C106.566 17.0956 107.188 18.5662 108.14 19.7794C107.554 20.1838 106.895 20.4412 106.163 20.5147V22.9044C107.627 22.9044 108.982 22.3897 110.08 21.5809C111.435 22.5 113.045 23.0147 114.803 23.0147H129.958V21.2132H122.454V19.9632H128.86V18.1618H122.454V16.9485H128.86V15.1838H122.454V13.8971H128.897V10.9191H130.214V9.11764ZM122.49 10.9191H125.199V12.1323H122.49V10.9191ZM122.49 7.86764H125.199V9.15441H122.49V7.86764Z" fill="white"/>
<path d="M130.214 9.11764H128.86V7.83088C128.86 6.875 128.091 6.10294 127.139 6.10294H122.49V5.11029H118.976V6.10294H114.327V7.86764H118.976V9.15441H113.741V10.9191H118.976V12.1323H114.327V13.8971H118.976V15.1838H113.924V16.9485H118.976V18.1618H113.485V19.9632H118.976V21.2132H115.352C113.924 21.2132 112.643 20.8088 111.508 20.0735C112.203 19.0441 112.643 17.7941 112.643 16.4338L112.679 11.6912H110.519C112.386 10.4779 113.338 8.30882 113.338 5.91911C113.338 5.88235 106.2 5.91911 106.2 5.91911L106.163 7.72058H110.3C109.97 9.74264 108.433 11.3235 106.456 11.7279V13.4926H110.08V16.0662C110.08 16.8382 109.86 17.5368 109.531 18.1985C108.982 17.3897 108.543 16.4706 108.36 15.4412L106.419 15.4779C106.566 17.0956 107.188 18.5662 108.14 19.7794C107.554 20.1838 106.895 20.4412 106.163 20.5147V22.9044C107.627 22.9044 108.982 22.3897 110.08 21.5809C111.435 22.5 113.045 23.0147 114.803 23.0147H129.958V21.2132H122.454V19.9632H128.86V18.1618H122.454V16.9485H128.86V15.1838H122.454V13.8971H128.897V10.9191H130.214V9.11764ZM122.49 10.9191H125.199V12.1323H122.49V10.9191ZM122.49 7.86764H125.199V9.15441H122.49V7.86764Z" stroke="white" stroke-width="0.305" stroke-miterlimit="3.864"/>
<path d="M202.991 5.625H217.414V7.42647H202.991V5.625Z" fill="white" stroke="white" stroke-width="0.3" stroke-miterlimit="3.864"/>
<path d="M199.989 13.0515V23.0147H196.474V15.7721C195.815 16.1765 195.12 16.5074 194.424 16.8382L192.96 14.5221C196.145 12.978 199.183 10.3677 200.611 7.53677L202.771 9.41177C201.966 10.6985 201.014 11.9853 199.989 13.0515Z" fill="white" stroke="white" stroke-width="0.3" stroke-miterlimit="3.864"/>
<path d="M212.179 23.0147C213.9 23.0147 215.255 21.6177 215.255 19.8897V12.9412H217.964V11.1397H202.112V12.9412H211.447V20.2206C211.447 20.7721 210.971 21.25 210.422 21.25H206.286V23.0515L212.179 23.0147Z" fill="white" stroke="white" stroke-width="0.3" stroke-miterlimit="3.864"/>
<path d="M199.769 6.13972C198.378 8.89707 196.182 11.1765 193.546 12.6838L192.191 10.2941C194.461 8.75001 196.291 7.02207 197.756 4.30148L199.769 6.13972Z" fill="white" stroke="white" stroke-width="0.3" stroke-miterlimit="3.864"/>
<path fill-rule="evenodd" clip-rule="evenodd" d="M143.283 16.3235C143.283 16.3235 141.819 17.7574 140.245 18.8603V9.66912L133.838 9.70588V11.4706H136.657V20.5147C135.669 20.8456 134.863 21.0294 134.863 21.0294L136.657 23.2721C136.657 23.2721 138.414 22.8309 140.318 21.875C142.112 20.9559 143.32 19.7426 143.32 19.7426L143.283 16.3235ZM148.591 9.19118V7.02206H153.607V9.22794C153.643 10.0368 153.387 12.0956 156.865 12.0956H159.061V10.4412H158.475C157.084 10.5147 157.194 9.92647 157.194 9.52206V6.91177C157.194 5.99265 156.462 5.25735 155.51 5.25735H153.936H145.004V9.52206C145.004 9.85294 145.114 10.5147 143.723 10.4412L143.1 10.4044V12.0956H145.223C148.957 12.2794 148.555 10 148.591 9.19118ZM154.668 19.1912C156.316 18.0515 157.78 16.6912 159.025 15.1103V12.8676H142.99V14.8897H154.998C153.899 15.9926 152.655 16.9853 151.3 17.7941C150.019 17.1324 148.811 16.3971 147.676 15.4779H143.356C144.711 16.9485 146.285 18.2353 148.006 19.3382C146.395 19.8897 144.638 20.2206 142.844 20.2941V22.9044C145.882 22.9044 148.774 22.2426 151.374 21.0662C154.046 22.2059 156.938 22.8309 160.013 22.8676V20.2206C158.109 20.0735 156.352 19.7426 154.668 19.1912ZM135.046 7.57353H142.148V5.66177H135.046V7.57353Z" fill="white"/>
<path d="M143.283 16.3235C143.283 16.3235 141.819 17.7574 140.245 18.8603V9.66912L133.838 9.70588V11.4706H136.657V20.5147C135.669 20.8456 134.863 21.0294 134.863 21.0294L136.657 23.2721C136.657 23.2721 138.414 22.8309 140.318 21.875C142.112 20.9559 143.32 19.7426 143.32 19.7426L143.283 16.3235ZM148.591 9.19118V7.02206H153.607V9.22794C153.643 10.0368 153.387 12.0956 156.865 12.0956H159.061V10.4412H158.475C157.084 10.5147 157.194 9.92647 157.194 9.52206V6.91177C157.194 5.99265 156.462 5.25735 155.51 5.25735H153.936H145.004V9.52206C145.004 9.85294 145.114 10.5147 143.723 10.4412L143.1 10.4044V12.0956H145.223C148.957 12.2794 148.555 10 148.591 9.19118ZM154.668 19.1912C156.316 18.0515 157.78 16.6912 159.025 15.1103V12.8676H142.99V14.8897H154.998C153.899 15.9926 152.655 16.9853 151.3 17.7941C150.019 17.1324 148.811 16.3971 147.676 15.4779H143.356C144.711 16.9485 146.285 18.2353 148.006 19.3382C146.395 19.8897 144.638 20.2206 142.844 20.2941V22.9044C145.882 22.9044 148.774 22.2426 151.374 21.0662C154.046 22.2059 156.938 22.8309 160.013 22.8676V20.2206C158.109 20.0735 156.352 19.7426 154.668 19.1912ZM135.046 7.57353H142.148V5.66177H135.046V7.57353Z" stroke="white" stroke-width="0.3" stroke-miterlimit="3.864"/>
<path fill-rule="evenodd" clip-rule="evenodd" d="M181.612 19.4485C180.953 19.9632 179.415 20.3677 178.793 20.4044V14.0074H187.982V6.87501C187.982 5.91912 187.213 5.14706 186.298 5.14706H175.462V20.5515H174.766V22.9779H176.487C178.207 22.9779 180.038 22.6471 181.612 22.0221V19.4485ZM185.785 19.4118C187.03 18.1985 188.055 16.7279 188.75 15.1103H186.151C185.602 16.1397 184.907 17.0588 184.028 17.8677C183.955 17.7941 183.662 17.3897 183.589 17.3162C183.113 16.6912 182.783 16.0294 182.527 15.1471H179.855C180.147 16.0662 180.697 17.3897 181.099 18.0882C183.003 21.1765 185.895 22.9779 188.86 23.0147V20.5147C187.835 20.5147 186.737 20.0735 185.785 19.4118ZM178.756 12.2794H184.614V10.5147H178.756V12.2794ZM178.756 8.75H184.614V6.94853H178.756V8.75Z" fill="white"/>
<path d="M181.612 19.4485C180.953 19.9632 179.415 20.3677 178.793 20.4044V14.0074H187.982V6.87501C187.982 5.91912 187.213 5.14706 186.298 5.14706H175.462V20.5515H174.766V22.9779H176.487C178.207 22.9779 180.038 22.6471 181.612 22.0221V19.4485ZM185.785 19.4118C187.03 18.1985 188.055 16.7279 188.75 15.1103H186.151C185.602 16.1397 184.907 17.0588 184.028 17.8677C183.955 17.7941 183.662 17.3897 183.589 17.3162C183.113 16.6912 182.783 16.0294 182.527 15.1471H179.855C180.147 16.0662 180.697 17.3897 181.099 18.0882C183.003 21.1765 185.895 22.9779 188.86 23.0147V20.5147C187.835 20.5147 186.737 20.0735 185.785 19.4118ZM178.756 12.2794H184.614V10.5147H178.756V12.2794ZM178.756 8.75H184.614V6.94853H178.756V8.75Z" stroke="white" stroke-width="0.3" stroke-miterlimit="3.864"/>
<path d="M170.263 20.0368V15.8824H174.327V14.1177H170.263V12.1324H173.997V10.3677H167.188C167.664 9.85295 168.14 9.22795 168.543 8.63972L174.29 8.60295V6.91178H169.641C169.934 6.36031 170.227 5.80884 170.446 5.2206L167.847 4.30148C166.896 6.94854 164.955 9.26472 162.869 10.5515L164.589 12.6103C164.845 12.4265 165.102 12.2794 165.358 12.0956H167.298V14.1177H164.736V15.8824H167.335V20.8456C166.749 20.9559 166.163 20.9927 165.578 21.0294L167.298 23.1985C169.897 22.9412 172.313 21.9853 174.29 20.478V17.5735C173.082 18.603 171.728 19.4485 170.263 20.0368Z" fill="white" stroke="white" stroke-width="0.3" stroke-miterlimit="3.864"/>
</g>
<defs>
<clipPath id="clip0_303_3722">
<rect width="218" height="40" fill="white"/>
</clipPath>
</defs>
</svg>
