<svg width="145" height="40" viewBox="0 0 145 40" fill="none" xmlns="http://www.w3.org/2000/svg">
<g clip-path="url(#clip0_303_3807)">
<path d="M59.4159 10.3534C59.4284 10.4004 59.4455 10.4864 59.4455 10.6525C59.4455 10.8881 59.412 11.2752 59.2909 11.9032C59.0172 13.1433 58.6916 14.7825 58.5014 14.9929V14.9936C58.3757 15.0677 57.4882 15.2967 54.5835 15.6507C54.5999 14.9109 54.6947 11.1078 54.7072 10.5215C58.0047 10.1913 59.1778 10.2866 59.4159 10.3534ZM52.4261 10.8246C52.4182 11.5664 52.3498 15.3132 52.3432 15.9002C51.7715 15.9591 48.9483 16.2046 48.3029 16.2727C48.247 15.6156 48.0766 11.9773 48.0233 11.3599C48.6339 11.2752 51.6985 10.9252 52.4261 10.8246ZM52.4978 2.80948C51.5294 2.7711 51.5392 3.00205 51.5452 3.18602C51.5504 3.36998 51.7379 3.61748 51.8873 4.15482C51.9741 4.46451 52.1978 4.80862 52.3827 6.94607C52.4084 7.77855 52.4235 8.64808 52.4288 9.21586C51.7754 9.2827 47.6746 9.65725 47.5062 9.67445C45.7567 9.02991 44.608 9.13711 44.485 9.60232C44.4205 9.84452 44.5646 10.0708 44.7264 10.4752C44.7264 10.4752 45.6515 13.4438 46.0745 16.6016L46.0726 16.5864C46.3594 18.3116 46.8094 18.9144 46.9371 19.023C47.1562 19.2063 47.3233 19.3783 47.6871 19.1957C47.9009 19.0872 48.2009 18.7755 48.4227 17.9675C48.9536 17.9152 51.58 17.7074 52.2742 17.6392C52.1656 24.8172 52.684 26.0593 52.7998 26.5292C52.8617 26.7793 52.9676 26.9189 53.086 26.9117C53.238 26.9031 53.4176 26.7045 53.5466 26.4815C53.7604 26.1103 54.0117 25.7907 54.2394 23.9675C54.3394 22.9339 54.421 22.8029 54.5078 21.122L54.5486 19.4425C54.5486 18.7205 54.5414 18.0515 54.5308 17.4195C56.7737 17.2885 58.5843 17.221 59.3561 17.221C60.3719 17.221 61.2877 17.4295 61.5173 17.2396C61.7904 17.0298 61.6476 16.6082 61.4687 16.2337C61.3627 16.0061 61.2127 15.7367 60.9331 15.2715C62.1917 13.1731 62.851 11.5412 63.1069 11.2183L63.3858 10.9589C63.7872 10.5784 63.8569 10.4639 63.899 10.3144C63.9431 10.1628 63.7253 9.8882 63.7253 9.8882C63.0964 9.13844 62.0555 8.46809 60.5429 7.83943L60.3745 7.80568C60.2219 7.80568 59.7541 8.03927 59.7541 8.03927L59.7613 8.03464C59.6238 8.12133 58.4731 8.34897 54.7907 8.85521C54.944 6.01565 55.1486 5.40221 55.2249 5.21692C55.2513 5.15869 55.2934 5.07266 55.3743 4.9423C55.4585 4.80201 55.5105 4.66304 55.5177 4.56444C55.5263 4.45724 55.4473 4.30172 55.3894 4.23158C54.4571 3.09999 53.3334 2.84257 52.4978 2.80948Z" fill="white"/>
<path d="M79.4002 4.55265C78.9245 4.68897 79.1646 4.97286 79.1646 4.97286C80.2884 6.36187 81.1884 7.18045 82.701 7.94543L82.953 7.95337C83.2832 7.86602 83.8359 7.55764 83.8221 6.479L83.8214 6.4565C83.7793 5.83578 83.4944 5.30042 82.9694 4.86499C82.6273 4.58243 82.074 4.40442 81.2805 4.31905L81.2641 4.31839C80.4292 4.30515 79.9258 4.40243 79.4002 4.55265Z" fill="white"/>
<path d="M72.4378 4.62718C72.4378 4.72842 72.4858 4.91835 72.5174 5.35444C72.5174 5.35444 72.5339 5.62973 72.4858 5.93744C72.4319 6.28022 71.7095 8.52024 70.7562 10.1826C69.8995 11.6721 68.5021 13.8056 67.1363 15.374C66.4191 16.1952 66.2685 16.3256 66.0119 16.5836C65.802 16.7954 65.4822 17.0197 65.6257 17.166C65.7059 17.3122 66.6869 17.1508 68.0041 16.2772C69.0166 15.599 70.1206 14.5938 71.543 12.813C71.6174 13.4827 71.6746 14.247 71.7115 15.1205C71.7299 15.5784 71.7391 16.0245 71.7391 16.4566C71.7391 16.5969 71.7371 16.7358 71.7358 16.8735C71.72 17.4135 71.6911 17.9104 71.6509 18.3439C71.57 19.7322 71.3378 21.294 70.9601 22.7088C70.9581 22.7161 70.8956 23.0344 70.8956 23.0344V23.0615C70.9897 24.6047 71.9411 25.7786 72.2773 25.8587C72.547 25.9235 72.9089 25.3306 72.9089 25.3306C73.1175 24.9753 73.4023 24.4697 73.4865 23.1184L73.4879 23.0906C73.5813 15.1337 73.6596 13.4562 73.6977 13.2537L73.6951 13.2689L73.7096 13.1856L73.7359 12.7766C73.7372 12.7601 73.7372 12.7429 73.7372 12.7263C73.7372 12.1843 73.4339 11.5894 72.8174 10.9204C72.8306 10.9005 72.8642 10.8536 72.8642 10.8536C73.4168 10.1144 73.7714 9.52345 74.0254 9.15089C74.4136 8.58641 74.7827 8.04908 75.1768 7.51505C75.5537 7.00219 75.5853 6.96249 75.6294 6.76462C75.6294 6.76462 75.6301 6.6647 75.6031 6.55022C75.3136 5.38753 74.3011 4.68144 72.8865 4.33601C72.8865 4.33601 72.4378 4.20697 72.4378 4.62718Z" fill="white"/>
<path d="M85.2454 8.42084C84.4638 8.61672 79.8985 9.42868 75.3331 9.86411C74.8233 9.90249 74.4278 9.94484 74.3193 10.0428C74.1601 10.1857 73.9087 10.3796 74.289 10.7422C74.289 10.7422 75.3364 11.6919 76.1648 11.8924L76.3253 11.903C76.9312 11.8269 77.2707 11.6938 77.7214 11.5648C78.1714 11.4358 79.1195 11.3067 79.1195 11.3067C82.0117 10.692 83.2927 10.4028 87.6002 10.51C87.6002 10.51 88.5331 10.6059 88.8857 10.6059C89.2384 10.6059 89.8016 10.6622 90.0424 10.2181C90.2358 9.86279 89.9134 9.37839 89.6252 9.08656C89.2226 8.68355 87.9864 7.90203 86.808 8.09129C86.0185 8.21768 86.1014 8.20378 85.2454 8.42084Z" fill="white"/>
<path d="M84.8161 12.057L84.8029 12.0584C84.3023 12.0769 82.4028 12.3495 81.2021 12.642C79.9804 12.9517 78.4882 13.1397 77.8454 13.2025C77.5763 13.2316 77.0454 13.3018 76.8907 13.5182C76.8065 13.6327 76.9289 13.9867 77.2296 14.2772C77.2296 14.2772 77.8033 14.8754 78.9527 14.8251C78.9527 14.8251 82.3949 14.5545 84.7562 14.1932C84.7523 14.1932 85.5977 14.0681 85.5977 14.0681C86.1102 13.9682 86.6122 14.0118 86.8208 13.7855C86.9971 13.5923 86.753 13.1185 86.4418 12.7942C86.0852 12.4269 85.5773 12.0464 84.8161 12.057Z" fill="white"/>
<path d="M84.726 15.3308C84.6201 15.3308 82.3009 15.5042 79.9356 16.0978C78.5579 16.4512 78.275 16.5041 78.2158 16.5114C77.5237 16.6139 77.0474 16.5504 77.0026 16.9223C76.9993 16.9561 77.0434 17.103 77.075 17.1797C77.1566 17.3624 77.3197 17.4921 77.4796 17.6483L77.5474 17.7025C78.0198 18.0023 78.3237 18.0771 79.0086 18.0473L79.031 18.046C81.0646 17.8382 84.7589 17.5404 85.8432 17.2737L86.18 17.2056C86.5662 17.1248 86.8794 17.14 86.8794 16.7853C86.8794 16.4392 86.5833 16.1163 86.3583 15.8688L86.3241 15.8337C86.0063 15.5512 85.6076 15.1978 84.726 15.3308Z" fill="white"/>
<path d="M79.8125 21.2539C82.337 20.7788 84.541 20.7801 84.8469 20.8225C84.6548 21.7873 84.6292 22.641 84.3338 23.2723C83.5896 23.3921 81.0606 23.5648 79.4039 23.7845C79.3256 23.2544 79.1572 21.9031 79.0789 21.3803C79.4217 21.3208 79.8125 21.2539 79.8125 21.2539ZM84.3653 18.8465C84.3653 18.8465 80.6375 19.6492 78.3782 19.771C78.3006 19.7637 78.1447 19.7405 77.815 19.6909C76.8492 19.5407 76.4169 19.5883 76.2755 19.7332L76.2571 19.7505C75.9544 20.0575 76.1669 20.2951 76.2551 20.4625L76.4334 20.8662C76.5097 21.0945 76.69 21.5286 77.4604 24.6964C77.6321 25.5487 77.894 26.0046 78.2308 26.3123L78.4565 26.4248C78.6473 26.4626 78.8032 26.352 78.9375 26.2144C79.0664 26.0854 79.1322 25.8266 79.3566 25.3667C81.2922 25.188 84.0311 25.0656 84.8917 25.0008C86.7154 24.885 86.9556 24.7903 87.0484 24.4482C87.1069 24.2325 86.849 23.7375 86.5733 23.2723C87.3069 22.2075 87.2727 22.1877 87.5786 21.8204C87.8997 21.4313 88.3912 21.1176 88.451 20.7245C88.5103 20.3341 87.4563 19.2886 85.4785 18.5434L85.3634 18.517C85.2081 18.5044 84.9765 18.597 84.3653 18.8465Z" fill="white"/>
<path d="M128.095 3.02367C127.821 2.95882 127.628 3.02367 127.5 3.13815C127.371 3.2533 127.259 3.7602 127.307 4.18372C127.342 4.47687 127.244 4.70716 126.654 5.64552C125.528 7.25224 123.915 8.90859 123.355 9.42608C122.825 9.91511 121.596 10.8641 121.728 11.0778C121.859 11.2935 123.398 10.8945 124.381 10.4266C125.076 10.0944 126.135 9.27388 128.02 7.48518C128.506 7.04114 128.998 6.52299 129.611 6.08161C130.262 5.61309 130.214 5.15847 130.247 5.03141C130.278 4.90436 130.195 4.6754 130.195 4.6754C129.451 3.47697 128.612 3.14874 128.095 3.02367Z" fill="white"/>
<path d="M138.246 5.37288C137.978 5.43508 137.639 5.57273 136.978 5.83478L136.954 5.84603C136.38 6.11734 134.059 6.84063 132.471 7.24959C131.769 7.40841 131.143 7.46929 131.124 7.75451C131.103 8.08009 131.361 8.32096 131.682 8.55985C131.99 8.79014 132.773 9.27785 134.311 8.94102C135.373 8.70676 140.619 7.41702 141.001 7.06894C141.001 7.06894 141.208 6.96769 141.243 6.78769C141.308 6.46145 140.619 5.90029 140.408 5.74279C139.594 5.13266 138.512 5.30935 138.246 5.37288Z" fill="white"/>
<path d="M127.528 8.95059C127.26 9.11536 127.089 9.51638 127.035 9.80292C127.035 9.80292 126.901 10.8465 125.418 12.8489C123.946 14.5986 123.546 15.2663 121.746 16.6229C120.751 17.3733 119.928 17.8518 120.236 18.047C120.466 18.1959 122.015 17.8696 123.138 17.3462C124.04 16.9273 124.273 16.9703 125.729 15.4668C125.772 15.9631 125.8 16.4548 125.8 16.9379C125.8 18.5294 125.941 20.4167 125.487 21.8249C125.378 22.1551 125.291 22.3933 125.283 22.4595C125.258 22.5978 125.181 22.7368 125.179 22.8943C125.177 23.1947 125.307 23.6394 125.468 23.9551C125.683 24.3733 126.048 24.9252 126.283 25.1846C126.519 25.4473 126.798 25.708 127.097 25.622C127.372 25.5413 127.739 24.227 127.762 22.9214C127.781 21.6145 127.766 20.6774 127.777 18.0145C127.777 17.773 127.777 17.2416 127.823 16.871C127.854 16.5124 127.919 16.1497 127.919 15.9247C127.919 15.216 127.628 14.7806 127.072 14.0805C127.361 13.7946 127.748 13.377 128.246 12.8099C128.655 12.348 129.032 11.9827 129.371 11.7253C129.598 11.5446 129.741 11.2885 129.782 11.2058C129.876 11.0093 129.786 10.8637 129.786 10.8637C129.362 9.80027 128.433 9.08228 128.191 8.96912C128.029 8.89037 127.797 8.78383 127.528 8.95059Z" fill="white"/>
<path d="M139.318 10.8956C138.643 11.1246 135.458 11.9253 130.778 12.7234C130.229 12.814 129.722 12.8299 129.604 13.0959C129.476 13.3911 129.745 13.7001 129.968 13.8689C130.226 14.0647 130.842 14.4055 131.644 14.5194L131.728 14.522C132.053 14.5041 132.438 14.4287 132.911 14.2917L132.972 14.2699C133.221 14.1554 133.511 14.0647 135.829 13.6842C136.101 14.6775 136.272 16.3643 136.338 18.7148C136.342 18.9517 136.342 19.1728 136.342 19.3819C136.342 21.606 136.19 22.3492 136.104 22.5927C135.963 22.5761 135.698 22.5351 135.197 22.4266C133.997 22.1308 132.742 21.43 132.868 21.9839C132.93 22.2459 133.672 22.9388 134.282 23.7262C134.754 24.3364 135.052 24.6845 135.396 25.3376C135.743 25.9994 135.915 26.5996 136.475 26.3977C137.035 26.1966 137.737 25.6751 138.233 24.9842C138.55 24.5376 138.783 24.0227 138.833 23.4761C138.91 22.6516 138.55 21.3718 138.481 20.3288C138.395 19.0669 138.395 18.0663 138.395 17.5866V16.3233C138.395 15.8912 138.462 15.5907 138.569 15.1129C138.665 14.9184 138.724 14.7179 138.724 14.5194C138.724 14.3916 138.706 14.2659 138.665 14.1415C138.568 13.8444 138.358 13.5671 138.033 13.3057C139.231 13.1681 140.252 13.0893 141.391 13.0827C142.201 13.0675 142.964 13.0258 143.314 13.0304C143.661 13.0331 144.643 13.0258 144.877 12.6598C145.229 12.104 144.792 11.3966 143.978 10.8301C143.389 10.4212 142.403 10.1439 141.247 10.4066C141.061 10.4476 139.845 10.7176 139.318 10.8956Z" fill="white"/>
<path d="M107.19 11.429C108.038 11.1332 110.968 10.8096 111.13 10.717C111.29 10.6263 111.29 10.6263 111.396 10.5377C111.296 11.1796 111.171 11.887 111.029 12.6493C110.706 12.6261 110.425 12.5375 109.911 12.5858C109.588 12.6155 107.812 12.9094 107.19 13.1231V11.429ZM107.18 9.68996L107.197 9.68202C107.197 9.68202 107.148 9.7065 107.14 9.70981V8.18647C109.174 7.43604 111.415 7.30303 111.7 7.29509C111.704 7.35465 111.708 7.43075 111.708 7.54259C111.708 7.78876 111.69 8.17853 111.625 8.79527C111.6 9.03814 111.567 9.29953 111.532 9.5715C111.531 9.56886 111.531 9.56687 111.529 9.56555L111.496 9.52717C111.213 9.25387 110.86 8.83763 110.344 8.80586C110.344 8.80586 108.054 9.63503 107.18 9.68996ZM119.041 21.4115C118.94 21.205 118.423 21.1408 117.644 20.9873C115.191 20.4606 114.308 19.7333 112.371 18.335C113.138 17.75 113.683 17.4119 114.127 17.0089C114.408 16.7554 114.779 16.4649 115.098 16.1711C115.387 15.876 115.71 15.9421 115.725 15.6106C115.747 15.2235 115.228 14.6524 114.844 14.3811L114.827 14.3705C114.135 13.9212 113.459 13.8285 113.19 14.0112C112.921 14.1931 113.01 14.1965 113.01 14.3076L112.966 14.9184C112.966 15.019 112.626 15.8852 111.327 17.6256C110.926 17.3153 109.053 15.696 108.511 15.2136C108.27 14.9992 108.049 14.8059 107.845 14.6273C108.145 14.5525 108.458 14.4698 108.458 14.4698C109.067 14.3056 110.873 14.2223 111.069 14.1786C111.182 14.2706 111.431 14.4016 111.513 14.444C111.77 14.5737 112.113 14.2699 112.284 14.0515C112.455 13.8338 112.814 13.2899 112.995 12.7115L113.001 12.6956C113.216 11.8969 113.448 10.8388 113.688 9.55562C113.8 9.00505 113.873 8.66756 113.903 8.55638C114.002 8.16595 114.29 7.84368 114.507 7.41884C114.725 6.99069 114.962 6.70481 114.962 6.42423L114.839 6.21909C114.146 5.53153 113.331 5.02861 111.963 4.83405L111.75 4.85523C111.566 4.90155 111.492 5.09081 111.226 5.27147L111.122 5.36875L111.127 5.36213C111.056 5.44088 109.092 5.72873 106.509 6.73195C105.602 6.35541 104.826 6.38254 104.525 6.55724C104.162 6.79746 104.593 7.54457 104.718 7.86486C104.889 8.30029 105.126 8.89983 105.253 10.5026C105.253 10.5396 105.364 20.9225 105.365 20.9675C105.251 22.4623 105.245 22.6801 104.714 23.3001C104.184 23.9215 104.172 23.4735 104.273 24.0909C104.376 24.709 104.84 26.2879 105.317 26.4249C105.749 26.5473 106.228 26.0239 106.666 25.5434C106.97 25.1424 107.796 24.3649 108.671 23.3762C110.085 21.7768 110.689 21.1547 110.615 20.9086C110.546 20.675 109.968 20.7398 107.159 21.9369C107.159 21.9369 107.151 21.9409 107.145 21.9435C107.153 20.9555 107.172 17.4298 107.182 16.0315C107.912 16.8097 108.563 17.5158 109.126 18.1378C110.111 19.2251 111.527 20.89 112.713 22.1116C113.927 23.4232 114.725 23.7117 117.822 22.377C118.494 22.0832 119.17 21.6742 119.041 21.4115Z" fill="white"/>
<path d="M104.364 19.8468C104.31 19.6178 103.733 19.7707 100.776 21.1366C100.799 20.2743 100.836 18.5061 100.845 18.074C101.025 18.0164 101.211 17.9575 101.211 17.9575C102.352 17.579 103.457 17.2336 103.662 17.1641C103.887 17.088 104.263 17.1092 104.305 16.7823C104.327 16.6175 104.069 16.1615 103.648 15.7777C103.231 15.3932 102.693 15.3608 102.394 15.4905C102.394 15.4905 102.138 15.5818 102.009 15.6388C101.881 15.6957 101.938 15.6778 101.398 15.9001C101.398 15.9001 101.078 16.008 100.852 16.0967C100.862 16.0358 100.836 15.9657 100.916 15.7685C100.986 15.5454 101.046 14.9691 101.092 14.8063C101.237 14.3192 100.822 14.132 100.776 14.0737C101.544 13.8931 102.89 13.3498 102.89 13.3498C103.134 13.2161 103.635 13.0937 103.728 12.8111C103.807 12.5656 103.612 12.3214 103.293 12.0104C102.996 11.7205 102.554 11.3725 101.753 11.6385C101.227 11.8105 100.483 12.0296 100.483 12.0296C99.3436 12.4028 98.7166 12.6397 98.1448 12.8171C98.5488 12.2281 99.0159 11.479 99.412 10.6591C100.001 10.8179 100.723 10.7359 103.374 9.93449C103.721 9.82993 104.225 9.73861 104.354 9.46002C104.415 9.32899 104.305 8.92201 103.952 8.57658C103.631 8.26556 103.212 7.98961 102.795 8.03858C102.067 8.12395 101.478 8.31585 100.499 8.68974C100.444 8.71025 100.4 8.73275 100.35 8.75525C100.432 8.57658 100.522 8.38666 100.615 8.1749C101.307 6.64031 101.557 6.25914 101.691 6.1215C101.919 5.8204 102.1 5.70658 102.1 5.46769C102.1 5.22814 101.788 4.77087 101.267 4.40492C100.589 3.93111 99.7653 3.69156 99.4324 3.64855C99.2501 3.62406 99.058 3.64855 98.9718 3.70149C98.7488 3.84509 98.837 4.58029 98.7948 5.16262C98.731 6.04473 98.6356 6.41465 98.4389 7.07971C97.4257 10.5142 95.7644 13.0811 93.6538 15.6156C93.24 16.1132 92.4176 16.73 92.9722 16.7075C93.2255 16.6982 94.0433 16.4421 94.4808 16.2006C95.1874 15.8082 96.0329 15.3198 97.1724 14.1055C97.2836 14.2392 97.4487 14.3748 97.7935 14.445C97.9797 14.4827 98.329 14.4231 98.6087 14.3794C98.6909 14.5853 98.7172 14.934 98.7619 15.2027C98.806 15.4773 98.8284 16.2012 98.8297 16.7386C97.9218 16.992 96.8592 17.2521 95.6519 17.5108C95.2368 17.6114 94.7104 17.6253 94.6512 17.9271C94.6183 18.0905 94.7749 18.4207 95.1973 18.8244C95.4855 19.1023 95.9526 19.4306 96.3691 19.3816C96.6744 19.3492 97.4935 19.1149 97.7507 19.0216C98.0099 18.9276 98.5415 18.7887 98.8185 18.7013C98.8093 19.2168 98.7962 19.8667 98.7619 20.3054C98.7619 20.3054 98.7343 20.6555 98.7264 20.7574C98.5606 21.6904 98.3027 22.1841 97.9369 22.4349C97.5948 22.6692 97.4066 22.7823 97.3283 22.9418C97.3283 22.9418 97.2573 23.0027 97.275 23.2661C97.2954 23.5301 97.5323 24.6405 97.8534 25.1752C98.0027 25.426 98.1422 25.5233 98.1422 25.5233C98.5488 25.696 98.9567 25.3433 99.4436 24.8053C99.7811 24.4552 100.094 24.1488 100.363 23.9073C100.819 23.4838 101.649 22.7208 102.446 21.9558C103.267 21.171 103.684 20.7461 103.877 20.5337C104.213 20.1625 104.409 20.0321 104.364 19.8468Z" fill="white"/>
<path d="M51.3434 35.2554L51.2914 35.2196L51.2559 35.2712C50.9598 35.6921 50.6407 36.0064 50.3071 36.205C49.9749 36.4035 49.6038 36.5041 49.2058 36.5041C48.5235 36.5041 47.9669 36.2513 47.5498 35.753C47.1294 35.2521 46.9168 34.5777 46.9168 33.7492C46.9168 32.8797 47.1228 32.1763 47.5294 31.6588C47.932 31.1439 48.4689 30.8832 49.1242 30.8832C49.5854 30.8832 49.9808 31.0175 50.2986 31.2836C50.6203 31.5496 50.8611 31.9433 51.0157 32.4535L51.0295 32.4985H51.0769H51.4164H51.4822L51.4796 32.433L51.4052 30.4306L51.4026 30.3697H51.3414H51.0407H51.0026L50.9841 30.4034C50.9361 30.4981 50.8795 30.5689 50.8177 30.6145C50.7572 30.6628 50.6973 30.6853 50.6321 30.6853C50.5953 30.6794 50.2209 30.5543 50.0604 30.5007C49.6841 30.373 49.3097 30.3081 48.9479 30.3081C48.463 30.3081 47.9998 30.4187 47.5702 30.6364C47.1412 30.8541 46.7635 31.1711 46.4497 31.5774C46.1984 31.903 46.0076 32.2623 45.8793 32.6461C45.7517 33.0299 45.6865 33.4389 45.6865 33.8617C45.6865 34.3799 45.7819 34.8563 45.9694 35.2752C46.1583 35.6941 46.4458 36.0753 46.8234 36.4075C47.1228 36.6689 47.4577 36.868 47.8195 36.9971C48.186 37.1288 48.5873 37.1949 49.009 37.1949C49.6163 37.1949 50.1525 37.0606 50.6025 36.7953C51.0532 36.5259 51.4302 36.1209 51.7236 35.5889L51.7519 35.5386L51.7039 35.5048L51.3434 35.2554Z" fill="white"/>
<path d="M56.8597 30.4731H56.7959V30.5373V30.8569V30.9191L56.8584 30.9211C57.1498 30.9284 57.3558 30.9807 57.4703 31.0773C57.5814 31.1693 57.638 31.3341 57.638 31.5663V33.2736H54.5353V31.5663C54.5353 31.3341 54.5918 31.1693 54.7037 31.0773C54.8188 30.9814 55.0274 30.9291 55.3221 30.9211L55.3846 30.9191V30.8569V30.5373V30.4731H55.3208H52.6917H52.6279V30.5373V30.8569V30.9191L52.6891 30.9211C52.9595 30.9304 53.1523 30.9833 53.2622 31.0793C53.3681 31.1726 53.4214 31.3361 53.4214 31.5663V35.9359C53.4214 36.1668 53.3688 36.3303 53.2635 36.4236C53.1582 36.5189 52.9648 36.5718 52.6891 36.5811L52.6279 36.583V36.6453V36.9748V37.0383H52.6917H55.3208H55.3846V36.9748V36.6492V36.5857H55.3221C55.0287 36.5791 54.8215 36.5268 54.7057 36.4302C54.5925 36.3349 54.5353 36.1695 54.5353 35.9359V33.9275H57.638V35.9359C57.638 36.1714 57.5828 36.3375 57.4729 36.4308C57.3578 36.5261 57.1505 36.5778 56.8584 36.5857L56.7959 36.5864V36.6492V36.9748V37.0383H56.8597H59.4789H59.5434V36.9748V36.6453V36.583L59.4815 36.5811C59.2065 36.5718 59.0131 36.5189 58.9072 36.4242C58.8032 36.3303 58.7512 36.1661 58.7512 35.9359V31.5663C58.7512 31.3361 58.8032 31.1726 58.9098 31.0793C59.0184 30.9833 59.2111 30.9304 59.4815 30.9211L59.5434 30.9191V30.8569V30.5373V30.4731H59.4789H56.8597Z" fill="white"/>
<path d="M60.5207 30.4731H60.4556L60.4569 30.5386L60.4615 30.8583L60.4628 30.9191L60.524 30.9211C60.8141 30.9284 61.0214 30.9814 61.1398 31.078C61.2503 31.17 61.3076 31.3347 61.3076 31.5663V35.9312C61.3076 36.1681 61.253 36.3289 61.1405 36.4222C61.0266 36.5195 60.8187 36.5711 60.5246 36.5778L60.4621 36.5784L60.4615 36.6406L60.4569 36.9741L60.4556 37.0383H60.5207H63.2077H63.2721V36.9748V36.6453V36.583L63.2103 36.5811C62.9149 36.5718 62.7076 36.5202 62.5951 36.4256C62.4853 36.3336 62.4313 36.1675 62.4313 35.9312V31.5663C62.4313 31.3347 62.4866 31.17 62.5978 31.0773C62.7129 30.9807 62.9188 30.9291 63.2096 30.9211L63.2721 30.9191V30.8569V30.5373V30.4731H63.2077H60.5207Z" fill="white"/>
<path d="M68.9229 30.4732H68.8584V30.5374V30.857V30.9212H68.9229C69.1966 30.9212 69.3966 30.9781 69.5177 31.0906C69.6381 31.1984 69.6986 31.3798 69.6986 31.6292V35.0856L66.005 30.497L65.9853 30.4732H65.955H64.2503H64.1865V30.5374V30.857V30.9159L64.2451 30.9212C64.426 30.9371 64.5708 30.9728 64.6898 31.0297C64.8063 31.0826 64.903 31.1554 64.9806 31.2481V35.8922C64.9806 36.1344 64.9247 36.3118 64.8129 36.419C64.7037 36.5268 64.5234 36.5811 64.278 36.5811H64.2503H64.1865V36.6453V36.9748V37.0384H64.2503H66.4564H66.5195V36.9748V36.6453V36.5811H66.4564H66.3912C66.1373 36.5811 65.9544 36.5268 65.8458 36.419C65.7353 36.3131 65.6794 36.1357 65.6794 35.8922V31.8397L69.9315 37.1138L69.9506 37.1376H69.9809H70.3329H70.3967V37.0728V31.6292C70.3967 31.3904 70.4546 31.2117 70.5691 31.0998C70.6842 30.9867 70.8671 30.9291 71.127 30.9212L71.1895 30.9192V30.857V30.5374V30.4732H71.1263H68.9229Z" fill="white"/>
<path d="M75.8876 34.2661H73.8882L74.9277 31.9904L75.8876 34.2661ZM78.2134 36.3923C78.0653 36.2805 77.9291 36.0833 77.8074 35.8054L75.4349 30.5107L75.4185 30.473H75.377H74.9836H74.9428L74.9264 30.5101L72.4532 35.8398C72.3361 36.0912 72.2144 36.2739 72.0901 36.3851C71.969 36.4916 71.8131 36.5578 71.6282 36.5816L71.5723 36.5882V36.6451V36.9747V37.0382H71.6361H73.8395H73.904V36.9747V36.6451V36.5909L73.8507 36.5816C73.5678 36.534 73.3783 36.4764 73.2868 36.4109C73.2039 36.3507 73.1631 36.2653 73.1631 36.1475C73.1631 36.0853 73.1717 36.0198 73.1888 35.9543C73.2046 35.8861 73.2302 35.8107 73.2677 35.722L73.6033 34.9299H76.185L76.5422 35.7306C76.5771 35.808 76.6047 35.8861 76.6258 35.9708C76.6409 36.0476 76.6495 36.1217 76.6495 36.1898C76.6495 36.3136 76.6028 36.4023 76.5047 36.4598C76.3968 36.5273 76.21 36.5677 75.9488 36.5809L75.8889 36.5842L75.8883 36.6445L75.885 36.974L75.8843 37.0382H75.9488H78.7719H78.8351V36.9747V36.6451V36.5849L78.7752 36.5809C78.545 36.5677 78.3561 36.5048 78.2134 36.3923Z" fill="white"/>
<path d="M89.2431 35.2554L89.1924 35.2196L89.1556 35.2712C88.8595 35.6921 88.5404 36.0064 88.2062 36.205C87.8746 36.4035 87.5029 36.5041 87.1035 36.5041C86.4239 36.5041 85.8666 36.2513 85.4495 35.753C85.0284 35.2514 84.8146 34.5777 84.8146 33.7492C84.8146 32.8837 85.0212 32.1796 85.4291 31.6588C85.8304 31.1439 86.368 30.8832 87.0233 30.8832C87.4838 30.8832 87.8792 31.0175 88.199 31.2836C88.5207 31.5516 88.7622 31.9446 88.9154 32.4535L88.9286 32.4985H88.976H89.3168H89.3832L89.3806 32.433L89.3063 30.4306L89.3036 30.3697H89.2418H88.9404H88.9023L88.8839 30.4034C88.8358 30.4967 88.7799 30.5675 88.7174 30.6152C88.6569 30.6628 88.5964 30.6853 88.5319 30.6853C88.4963 30.6794 88.1338 30.5596 87.9588 30.5007C87.5825 30.373 87.2088 30.3081 86.8469 30.3081C86.3634 30.3081 85.8989 30.4187 85.4699 30.6364C85.0409 30.8554 84.6626 31.1724 84.3488 31.5774C84.0981 31.9036 83.9073 32.2629 83.779 32.6461C83.6514 33.0312 83.5869 33.4402 83.5869 33.8617C83.5869 34.3752 83.6823 34.851 83.8705 35.2746C84.06 35.6954 84.3475 36.0766 84.7232 36.4075C85.0212 36.6682 85.3561 36.8674 85.7192 36.9971C86.0857 37.1288 86.4864 37.1949 86.9088 37.1949C87.516 37.1949 88.0536 37.0606 88.5016 36.7953C88.9516 36.5286 89.3286 36.1223 89.6234 35.5889L89.6503 35.5386L89.6036 35.5048L89.2431 35.2554Z" fill="white"/>
<path d="M90.5448 30.4731H90.479L90.4803 30.5373L90.4843 30.8583V30.9191L90.5461 30.9211C90.8376 30.9291 91.0448 30.9814 91.1619 31.0773C91.2738 31.1693 91.331 31.3341 91.331 31.5663V35.9312C91.331 36.1642 91.2738 36.3289 91.1632 36.4222C91.0488 36.5195 90.8409 36.5711 90.5461 36.5778L90.4843 36.5784V36.6406L90.4803 36.9741L90.479 37.0383H90.5448H93.2324H93.2956V36.9748V36.6453V36.583L93.2337 36.5811C92.939 36.5718 92.7311 36.5202 92.6179 36.4256C92.5087 36.3336 92.4541 36.1668 92.4541 35.9312V31.5663C92.4541 31.3341 92.51 31.1693 92.6212 31.0773C92.735 30.9807 92.941 30.9291 93.2337 30.9211L93.2956 30.9191V30.8569V30.5373V30.4731H93.2324H90.5448Z" fill="white"/>
<path d="M99.8346 30.5338L99.8307 30.4729H99.7701H94.1574H94.0975L94.0942 30.5338L94.008 32.1193L94.0034 32.1868H94.0712H94.3969H94.4482L94.458 32.1352C94.5409 31.7315 94.6778 31.451 94.8646 31.3001C95.0548 31.1459 95.3719 31.0678 95.8048 31.0678H96.4048V35.9356C96.4048 36.1699 96.3463 36.336 96.2338 36.4299C96.1147 36.5272 95.9088 36.5795 95.6173 36.5855L95.5555 36.5861V36.649V36.9746V37.0388H95.6199H98.3049H98.3694V36.9746V36.6457V36.5815L98.3062 36.5808C98.0128 36.5755 97.8069 36.5239 97.6937 36.4286C97.5852 36.334 97.5299 36.1686 97.5299 35.9356V31.0678H98.1181C98.5556 31.0678 98.8747 31.1459 99.0655 31.3001C99.2556 31.4503 99.3905 31.7309 99.4681 32.1352L99.4787 32.1868H99.53H99.8636H99.9307L99.9261 32.1187L99.8346 30.5338Z" fill="white"/>
<path d="M100.701 30.4731H100.636L100.637 30.538L100.641 30.8583L100.642 30.9191L100.704 30.9211C100.995 30.9291 101.202 30.9814 101.319 31.0773C101.431 31.1713 101.488 31.3354 101.488 31.5663V35.9312C101.488 36.1642 101.431 36.3289 101.32 36.4229C101.207 36.5195 100.999 36.5711 100.704 36.5778L100.642 36.5784L100.641 36.6406L100.637 36.9741L100.636 37.0383H100.701H103.388H103.452V36.9748V36.6453V36.583L103.39 36.5811C103.096 36.5718 102.888 36.5202 102.774 36.4256C102.665 36.3329 102.612 36.1714 102.612 35.9312V31.5663C102.612 31.3334 102.667 31.1686 102.776 31.0773C102.893 30.9807 103.099 30.9284 103.389 30.9211L103.452 30.9191V30.8569V30.5373V30.4731H103.388H100.701Z" fill="white"/>
<path d="M110.14 35.2554L110.088 35.2196L110.053 35.2712C109.754 35.6948 109.435 36.0084 109.103 36.205C108.771 36.4035 108.4 36.5041 108.001 36.5041C107.323 36.5041 106.765 36.2513 106.347 35.753C105.926 35.2494 105.712 34.5757 105.712 33.7492C105.712 32.881 105.919 32.1776 106.324 31.6588C106.73 31.1439 107.267 30.8832 107.92 30.8832C108.382 30.8832 108.777 31.0175 109.095 31.2836C109.417 31.5489 109.657 31.9433 109.813 32.4535L109.825 32.4985H109.873H110.213H110.279L110.277 32.433L110.204 30.4306L110.201 30.3697H110.139H109.839H109.802L109.784 30.4028C109.732 30.4967 109.675 30.5689 109.615 30.6159C109.553 30.6635 109.495 30.6853 109.429 30.6853C109.39 30.6787 108.99 30.545 108.857 30.5007C108.481 30.373 108.106 30.3081 107.743 30.3081C107.259 30.3081 106.796 30.4187 106.367 30.6364C105.938 30.8554 105.56 31.1724 105.245 31.5774C104.992 31.9076 104.801 32.2669 104.676 32.6461C104.547 33.0306 104.483 33.4402 104.483 33.8617C104.483 34.3766 104.577 34.8517 104.766 35.2746C104.957 35.6954 105.243 36.0766 105.619 36.4075C105.917 36.6682 106.252 36.8667 106.618 36.9971C106.983 37.1288 107.382 37.1949 107.806 37.1949C108.413 37.1949 108.95 37.0606 109.399 36.7953C109.848 36.5272 110.226 36.1216 110.519 35.5889L110.548 35.5386L110.5 35.5048L110.14 35.2554Z" fill="white"/>
<path d="M117.212 33.9278H118.317C118.793 33.9278 119.17 34.0429 119.435 34.2705C119.701 34.4975 119.83 34.8013 119.83 35.199C119.83 35.6046 119.685 35.9018 119.385 36.1089C119.083 36.3187 118.628 36.4245 118.033 36.4245C117.67 36.4245 117.439 36.3881 117.348 36.316C117.286 36.269 117.212 36.1393 117.212 35.7945V33.9278ZM118.131 31.0677C118.608 31.0677 118.972 31.1603 119.21 31.343C119.446 31.523 119.56 31.785 119.56 32.1443C119.56 32.5209 119.432 32.8094 119.176 33.0026C118.916 33.2025 118.529 33.3031 118.022 33.3031H117.212V31.0677H118.131ZM119.451 33.5572C119.832 33.4314 120.122 33.264 120.336 33.049C120.599 32.7882 120.732 32.456 120.732 32.0649C120.732 31.5521 120.529 31.1537 120.128 30.8804C119.728 30.6064 119.172 30.4734 118.429 30.4734H115.37H115.306V30.5376V30.8573V30.9195L115.368 30.9214C115.637 30.9307 115.831 30.9836 115.942 31.0796C116.045 31.1742 116.099 31.339 116.099 31.5693V35.9348C116.099 36.1651 116.045 36.3299 115.942 36.4232C115.837 36.5185 115.643 36.5721 115.368 36.5814L115.306 36.5827V36.6456V36.9744V37.0386H115.37H118.626C119.319 37.0386 119.898 36.8659 120.344 36.5264C120.801 36.1823 121.033 35.7403 121.033 35.2129C121.033 34.7477 120.872 34.3639 120.551 34.0714C120.283 33.8285 119.914 33.6558 119.451 33.5572Z" fill="white"/>
<path d="M125.784 34.2661H123.785L124.826 31.9904L125.784 34.2661ZM128.109 36.3923C127.962 36.2779 127.825 36.08 127.705 35.8054L125.332 30.5107L125.315 30.473H125.274H124.88H124.839L124.822 30.5101L122.35 35.8398C122.23 36.0965 122.111 36.2746 121.987 36.3844C121.866 36.4916 121.709 36.5578 121.524 36.5816L121.468 36.5882V36.6451V36.9747V37.0382H121.532H123.738H123.802V36.9747V36.6451V36.5909L123.749 36.5816C123.464 36.534 123.276 36.4764 123.185 36.4109C123.102 36.352 123.062 36.2659 123.062 36.1475C123.062 36.0807 123.07 36.0158 123.085 35.9543C123.102 35.8808 123.13 35.8027 123.165 35.7233L123.501 34.9299H126.082L126.441 35.7306C126.475 35.8113 126.503 35.8921 126.521 35.9695C126.538 36.0496 126.547 36.1237 126.547 36.1898C126.547 36.3136 126.499 36.4023 126.402 36.4598C126.293 36.5273 126.107 36.5677 125.846 36.5809L125.787 36.5842L125.786 36.6445L125.78 36.974L125.779 37.0382H125.845H128.671H128.732V36.9747V36.6451V36.5849L128.673 36.5809C128.444 36.5677 128.254 36.5048 128.109 36.3923Z" fill="white"/>
<path d="M133.938 30.4732H133.876V30.5374V30.857V30.9212H133.938C134.212 30.9212 134.414 30.9781 134.536 31.0906C134.655 31.1984 134.716 31.3798 134.716 31.6292V35.0856L131.021 30.497L131.001 30.4732H130.971H129.267H129.204V30.5374V30.857V30.9159L129.262 30.9212C129.442 30.9371 129.588 30.9728 129.706 31.0297C129.823 31.0826 129.921 31.1554 129.997 31.2481V35.8922C129.997 36.1351 129.941 36.3124 129.831 36.419C129.721 36.5268 129.54 36.5811 129.293 36.5811H129.267H129.204V36.6453V36.9748V37.0384H129.267H131.472H131.535V36.9748V36.6453V36.5811H131.472H131.408C131.154 36.5811 130.971 36.5268 130.861 36.419C130.75 36.3124 130.695 36.1351 130.695 35.8922V31.8397L134.947 37.1138L134.966 37.1376H134.997H135.35H135.414V37.0728V31.6292C135.414 31.3877 135.471 31.2104 135.585 31.0998C135.698 30.988 135.887 30.9285 136.145 30.9212L136.207 30.9192V30.857V30.5374V30.4732H136.143H133.938Z" fill="white"/>
<path d="M143.722 36.5811C143.485 36.5705 143.283 36.5057 143.123 36.3905C142.954 36.2741 142.749 36.0312 142.512 35.6679L140.798 33.0408L142.5 31.5068C142.683 31.3421 142.874 31.2097 143.064 31.1131C143.253 31.0171 143.446 30.9549 143.659 30.9205L143.714 30.9119V30.857V30.5374V30.4732H143.65H140.938H140.875V30.5374V30.857V30.9159L140.934 30.9212C141.292 30.9523 141.446 31.0026 141.514 31.0396C141.597 31.0866 141.636 31.1541 141.636 31.2534C141.636 31.3083 141.609 31.3718 141.555 31.4479C141.499 31.5247 141.4 31.6279 141.255 31.7616L138.988 33.8197V31.5664C138.988 31.3368 139.04 31.1733 139.144 31.0813C139.25 30.9894 139.443 30.9358 139.719 30.9212L139.779 30.9185L139.78 30.8583L139.783 30.538L139.784 30.4732H139.721H137.144H137.081V30.5374V30.857V30.9192L137.142 30.9212C137.412 30.9305 137.605 30.9834 137.713 31.0794C137.82 31.1727 137.875 31.3361 137.875 31.5664V35.9359C137.875 36.1655 137.82 36.3297 137.716 36.4243C137.611 36.5189 137.42 36.5719 137.142 36.5811L137.081 36.5831V36.6453V36.9749V37.0384H137.144H139.721H139.784L139.783 36.9742L139.78 36.644L139.779 36.5831L139.718 36.5811C139.446 36.5719 139.254 36.5189 139.147 36.4236C139.04 36.3303 138.988 36.1708 138.988 35.9359V34.6932L139.939 33.8309L141.244 35.8307C141.374 36.0292 141.432 36.1384 141.458 36.1953C141.488 36.2661 141.504 36.3316 141.504 36.3859C141.504 36.4216 141.49 36.4746 141.373 36.5189C141.263 36.5599 141.1 36.5811 140.886 36.5811H140.823V36.6453V36.9749V37.0384H140.886H143.72H143.782V36.9749V36.6453V36.5844L143.722 36.5811Z" fill="white"/>
<path d="M23.9512 12.3661V36.6066C25.1315 36.3134 26.2638 35.8992 27.3329 35.3751V7.63261C26.9783 7.79738 26.2677 8.1309 25.7072 8.58023C24.5505 9.50668 23.9512 10.6853 23.9512 12.3661Z" fill="white"/>
<path d="M14.0663 8.57941C13.5064 8.13074 12.7965 7.79722 12.4419 7.63245V35.3769C13.511 35.901 14.6433 36.3166 15.823 36.6077V12.3659C15.823 10.6857 15.2236 9.50652 14.0663 8.57941Z" fill="white"/>
<path d="M26.621 4.29634C24.5558 3.39835 22.2781 2.89939 19.8845 2.89939C17.5029 2.89939 15.235 3.39305 13.1783 4.28244C12.8573 4.44986 12.4224 4.76949 12.4224 5.27705C12.4224 6.18364 13.6724 5.9924 15.235 7.24443C16.6818 8.40381 17.4305 10.0344 17.4305 11.8621V36.9205C18.2325 37.0363 19.0516 37.0985 19.8845 37.0985C20.7201 37.0985 21.5419 37.0363 22.3439 36.9205V11.8621C22.3439 10.0344 23.0932 8.40381 24.538 7.24443C26.1033 5.9924 27.3513 6.18364 27.3513 5.27705C27.3513 4.78272 26.9368 4.46575 26.621 4.29634Z" fill="white"/>
<path d="M19.8845 3.8147e-06C8.90304 3.8147e-06 0 8.95477 0 20C0 31.0459 8.90304 40 19.8845 40C30.8665 40 39.7683 31.0459 39.7683 20C39.7683 8.95477 30.8665 3.8147e-06 19.8845 3.8147e-06ZM19.8845 38.3423C9.81229 38.3423 1.64744 30.13 1.64744 20C1.64744 9.86997 9.81229 1.65702 19.8845 1.65702C29.956 1.65702 38.1202 9.86997 38.1202 20C38.1202 30.13 29.956 38.3423 19.8845 38.3423Z" fill="white"/>
<path d="M2.88281 19.9997C2.88281 26.0759 6.03427 31.4102 10.7805 34.443V21.3457C8.84493 21.396 8.13437 22.5745 7.91791 23.0331C7.74159 23.4097 7.62645 23.8054 7.29091 23.8054C6.7297 23.8054 6.27376 22.1729 6.27376 20.1578C6.27376 18.1435 6.7297 16.5103 7.29091 16.5103C7.62645 16.5103 7.74159 16.9067 7.91791 17.2826C8.13437 17.7405 8.84493 18.9197 10.7805 18.9693V5.55638C6.03427 8.58851 2.88281 13.9235 2.88281 19.9997Z" fill="white"/>
<path d="M34.1064 23.0333C33.9307 23.4085 33.8163 23.8056 33.4807 23.8056C32.9189 23.8056 32.4642 22.1724 32.4642 20.158C32.4642 18.1437 32.9189 16.5105 33.4807 16.5105C33.8163 16.5105 33.9307 16.9069 34.1064 17.2828C34.3189 17.7321 35.0051 18.8723 36.8532 18.9649C36.519 13.3248 33.4649 8.4193 28.9917 5.55923V34.4399C33.3814 31.6341 36.4039 26.8589 36.8322 21.3512C34.9999 21.4524 34.3176 22.586 34.1064 23.0333Z" fill="white"/>
</g>
<defs>
<clipPath id="clip0_303_3807">
<rect width="145" height="40" fill="white"/>
</clipPath>
</defs>
</svg>
