<svg width="301" height="40" viewBox="0 0 301 40" fill="none" xmlns="http://www.w3.org/2000/svg">
<g clip-path="url(#clip0_303_3761)">
<path fill-rule="evenodd" clip-rule="evenodd" d="M141.985 17.0095H146.568V23.8456H150.324V17.0095H154.757V18.1507H158.513V5.39034V5.2087V5.02852V4.84687V4.67001H158.348H158.165H157.957H157.76H150.324V1.46716L150.399 1.39235L150.473 1.31908L150.49 1.28416L150.534 1.23779L150.549 1.18008L150.579 1.10527L150.549 1.05933L150.518 0.984155L150.49 0.942986L150.458 0.924117L150.414 0.895691L150.338 0.864507L146.568 0.743451V4.66995H139.115H138.905H138.709H138.53H138.365V4.87849V5.06056V5.24031V5.39022V18.1507H141.985L141.985 17.0095ZM150.324 13.5232V8.3803H154.425H154.59H154.756V8.54725V8.66359V13.5232H150.324ZM141.985 13.5232V8.66359V8.5614V8.3803H142.12H142.285H146.568V13.5232H141.985ZM180.657 15.2599L181.574 14.7061L181.23 14.2558L180.883 13.8065L180.657 13.5644L180.463 13.3255L180.251 13.1027L180.013 12.8743H178.088L177.066 13.4915L177.443 13.8207L177.878 14.2284L178.104 14.4507L178.345 14.6923L178.585 14.9785L178.811 15.2599H176.84V12.8743H180.704V10.274H176.84V8.59307H181.197V5.9729H169.704V8.59307H173.987V10.274H170.32V12.8743H173.987V15.2599H169.404V18.4207H181.62V15.2599H180.657ZM168.608 22.4645H182.176V23.399H185.481V2.66694V2.48676V2.29286V2.14289V1.97595H185.314H185.134H184.968H184.759H166.234H165.995H165.799H165.631H165.513V2.15802V2.32405V2.50661V2.66694V23.399H168.608V22.4645ZM168.608 19.1145V5.01376V5.0605H168.698H168.833H181.859H181.994H182.176V5.20857V5.31689V19.1145L168.608 19.1145ZM200.819 18.868H192.511V22.5666H213.064V18.868H204.862V6.2609H212.027V2.57939H193.083V6.2609H200.819V18.868ZM232.685 20.3569H230.898L230.944 21.3672L231.019 21.4712L231.093 21.5904L231.138 21.6992L231.184 21.8013L231.257 22.0293L231.32 22.2355L231.378 22.6895L231.41 23.1417H234.46L234.713 23.1237L234.939 23.0953L235.151 23.0471L235.344 22.977L235.526 22.9165L235.705 22.8068L235.841 22.7066L235.961 22.5665L236.081 22.4303L236.185 22.2705L236.261 22.0879L236.321 21.895L236.396 21.683L236.426 21.4712V21.2309L236.443 20.9736V7.8992L235.495 7.97204H234.383H231.995L232.101 7.64288L232.222 7.34348L232.339 7.04035L232.462 6.74426L232.551 6.46993L232.656 6.20227L232.715 5.91898L232.806 5.63092H237.598V2.84754H228.824L228.795 1.51286L228.854 1.34592L228.884 1.17989V1.12408L228.869 1.09051L228.854 1.05926L228.81 1.01583L228.749 0.969942L228.675 0.942925L228.584 0.91119L228.479 0.880497L225.055 0.83455L225.008 2.84742H216.458V5.6308H220.877L221.102 6.05407L221.282 6.41026L221.433 6.711L221.568 6.96598L221.689 7.20809L221.794 7.44787L221.914 7.70328L222.035 7.97192H217.272L217.301 8.72816V9.74881V23.1832H220.321V10.6663H233.529L233.558 19.5022L233.543 19.6085V19.7131L233.529 19.8015L233.497 19.8829L233.467 19.9506L233.423 20.031L233.391 20.0896L233.332 20.1534L233.274 20.179L233.197 20.225L233.137 20.2718L233.062 20.2974L232.956 20.3144L232.88 20.3476L232.774 20.3576L232.685 20.3569ZM225.607 7.9726L225.548 7.80945L225.49 7.64343L225.384 7.49541L225.308 7.34403L225.129 7.0409L224.949 6.74482L224.769 6.47048L224.603 6.20282L224.527 6.05474L224.468 5.91947L224.406 5.76485L224.363 5.63148L229.186 5.58547L229.095 5.85417L228.975 6.12844L228.854 6.41081L228.735 6.69887L228.585 6.98638L228.449 7.31702L228.299 7.63056L228.179 7.97253L225.607 7.9726ZM228.224 21.2446L230.913 21.2617L230.898 14.9203L228.917 13.5071H228.376H225.414H221.944L221.959 15.8516L221.944 21.2447H224.423L224.454 20.7963H228.208L228.224 21.2446ZM228.208 18.274H224.454V15.9107H228.208V18.274ZM227.309 12.486L227.532 12.6056L227.773 12.7395L228.026 12.9017L228.299 13.0696L228.869 13.4451L229.457 13.9143L230.102 14.3646L230.735 14.8427L231.379 15.31L231.995 15.7593L233.558 14.4842V13.5974L233.047 13.1429L232.536 12.723L232.04 12.3191L231.558 11.9553L231.305 11.7614L231.048 11.6006L230.794 11.4185L230.538 11.2795L230.282 11.1163L229.997 10.9503L229.711 10.8169L229.442 10.667H228.57L227.309 12.486ZM224.062 10.667L223.688 10.9233L223.325 11.2066L222.92 11.4781L222.485 11.7614L222.005 12.032L221.494 12.3318L220.922 12.6331L220.306 12.968L220.337 14.5315L221.118 15.8516L221.342 15.7466L221.629 15.6113L221.763 15.5474L221.853 15.5058L221.914 15.4632L221.959 15.4291V13.507H224.949L225.038 13.4919L225.128 13.4602L225.234 13.4452L225.323 13.3836L225.52 13.2356L225.728 13.0696L226.119 12.7078L226.45 12.4245L225.114 10.667H224.062ZM248.614 6.22971L253.014 6.26139V3.61854H248.912L249.062 3.27087L249.213 2.98428L249.347 2.74683L249.453 2.56665L249.559 2.42666L249.648 2.32454L249.739 2.26401L249.812 2.20495L249.933 2.1307L250.07 2.03795L250.129 2.01056L250.189 1.91689L250.264 1.81329L250.355 1.69224L247.394 0.5354L247.05 1.23821L246.762 1.81329L246.524 2.26407L246.327 2.66749L246.133 3.01602L245.922 3.37784L245.696 3.7657L245.411 4.215L245.111 4.6534L244.811 5.08905L244.464 5.53878L244.088 5.9933L243.683 6.47054L243.264 6.9865L242.797 7.51012L242.316 8.05114L244.359 10.004L244.601 9.68803L244.841 9.32811L245.111 8.97909L245.336 8.63528L245.321 10.3204H246.911V12.1252H244.241V15.3706H246.911V19.7304L244.932 20.602L245.561 23.3826L252.862 20.4918L251.558 18.0585L250.206 18.7045L250.249 15.3706H252.608V12.1252H250.249V10.3204H252.292V7.87188L246.147 7.91354L246.359 7.67614L246.524 7.44867L246.658 7.26892L246.779 7.07264L246.898 6.89197L247.065 6.71179L247.244 6.4706L247.47 6.22984H247.634L248.04 6.24968H248.251H248.431H248.566L248.614 6.22971ZM262.584 17.3566L263.095 16.9939L263.486 16.6898L263.831 16.4523L264.1 16.2277L264.373 16.0002L264.629 15.7765L264.914 15.506L265.259 15.1758L263.712 13.205L263.439 13.4921L263.229 13.7177L263.035 13.9267L262.855 14.1514L262.628 14.3647L262.343 14.6055L261.982 14.874L261.488 15.2354L261.306 14.8878L261.185 14.6792L261.081 14.5127L261.006 14.3647L260.915 14.1679L260.827 13.9267L260.75 13.5649L260.645 13.029H263.95V12.0486V9.80915V1.87529H262.522H261.518H253.584V2.83443V3.82721V14.9204V16.6898V20.5557L252.051 21.3375L253.269 23.9236L260.105 21.1597L259.264 18.1512L256.634 19.9839L256.605 13.029L257.581 12.968L257.701 13.5649L257.822 14.1083L257.957 14.6054L258.074 15.0405L258.227 15.4633L258.347 15.8181L258.482 16.1642L258.603 16.4684L258.753 16.7517L258.888 17.026L259.024 17.297L259.158 17.533L259.459 18.0159L259.79 18.5395L259.984 18.827L260.21 19.1269L260.436 19.4442L260.661 19.7304L261.156 20.3277L261.668 20.9307L262.239 21.5607L262.81 22.1954L263.395 22.8244L264.011 23.5169L266.475 20.7699L265.83 20.315L265.259 19.9092L264.973 19.7015L264.703 19.4868L264.462 19.2919L264.22 19.0975L263.997 18.8866L263.771 18.6918L263.56 18.4969L263.351 18.2741L263.154 18.0585L262.96 17.8301L262.764 17.5926L262.584 17.3566ZM261.518 8.7436V10.3204H256.605V8.7436H261.518ZM256.605 6.09457V4.42501H261.518V6.09457H256.605ZM278.254 1.61468L277.968 2.03801L277.637 2.50716L277.278 2.95457L276.887 3.39205L276.496 3.81158L276.091 4.20318L275.714 4.565L275.339 4.89417L275.039 5.13536L274.769 5.36333L274.468 5.55771L274.169 5.76491L273.852 5.97345L273.506 6.1565L273.131 6.36884L272.725 6.59068L273.67 9.64221L274.048 9.46344L274.423 9.23879L274.827 8.9971L275.249 8.7436L275.671 8.44181L276.091 8.1396L276.317 7.97266L276.526 7.7934L276.722 7.63068L276.931 7.43587L277.292 7.10241L277.715 6.75762L278.165 6.38207L278.629 5.9933L279.111 5.55771L279.576 5.10369L279.816 4.87904L280.043 4.62553L280.269 4.38385L280.463 4.13034L280.492 4.09493L280.537 4.08316L280.583 4.06803H280.627H280.748H280.837H280.883L280.915 4.04916L280.945 4.02215L280.973 3.97577V3.9346L280.945 3.856L280.915 3.7657L280.852 3.67533L278.254 1.61468ZM275.73 14.7255V23.5424H279.02V11.5208L279.364 11.1164L279.756 10.6671L280.192 10.1724L280.657 9.6294L281.11 9.10536L281.545 8.56195L281.741 8.27536L281.964 8.01995L282.146 7.76363L282.31 7.51006L280.237 5.53878L280.057 5.79468L279.893 6.08176L279.696 6.34942L279.487 6.62235L279.097 7.1464L278.674 7.64349L278.254 8.1396L277.804 8.60826L277.397 9.05904L276.993 9.49413L276.617 9.91269L276.166 10.3668L275.656 10.8761L275.115 11.385L274.543 11.8825L273.987 12.365L273.702 12.6057L273.446 12.8015L273.177 12.996L272.921 13.1889L273.687 16.3341L273.987 16.1562L274.242 15.9694L274.468 15.8053L274.663 15.6403L274.889 15.4633L275.13 15.2524L275.401 15.0088L275.73 14.7255ZM282.026 2.19025V5.40309H293.263V2.19025H282.026ZM284.79 20.2383L285.105 20.9014L285.346 21.4718L285.436 21.7139L285.499 21.9211L285.572 22.1141L285.618 22.3089L285.645 22.4953L285.675 22.6731L285.692 22.8415V23.0023L285.675 23.1839L285.663 23.3826L285.631 23.5764L285.585 23.7893H287.793H288.067L288.336 23.7713L288.605 23.7288L288.877 23.6786L289.148 23.636L289.404 23.5424L289.657 23.4583L289.886 23.3655L290.109 23.2312L290.306 23.0959L290.393 23.0354L290.484 22.9475L290.559 22.866L290.636 22.7828L290.693 22.6902L290.756 22.588L290.814 22.4783L290.844 22.3762L290.875 22.2712L290.905 22.1491L290.921 22.03L290.933 21.8956L290.996 12.0486H294.122V9.01224H281.2V12.0486H287.823V19.4017V19.5625L287.811 19.7139L287.793 19.816V19.9385L287.764 20.0189L287.749 20.0786L287.702 20.132L287.658 20.1798L287.598 20.1922L287.555 20.213L287.479 20.2258L287.388 20.2386H287.21H286.983L284.79 20.2383Z" fill="white"/>
<path fill-rule="evenodd" clip-rule="evenodd" d="M301 29.5873H136.148V28.6631H301V29.5873Z" fill="white"/>
<path d="M139.043 39.6082V34.9166H139.988V39.6082H139.043Z" fill="white"/>
<path d="M140.899 39.6082V34.9166H141.815L143.75 38.0721V34.9166H144.622V39.6082H143.679L141.773 36.5132V39.6082H140.899Z" fill="white"/>
<path d="M145.626 34.9166H147.356C147.747 34.9166 148.045 34.9467 148.249 35.0055C148.524 35.0869 148.76 35.2316 148.956 35.4387C149.153 35.6459 149.302 35.8984 149.404 36.1992C149.506 36.4982 149.558 36.8689 149.558 37.3078C149.558 37.6937 149.51 38.0267 149.414 38.3058C149.296 38.6473 149.129 38.9235 148.911 39.1353C148.747 39.2952 148.525 39.42 148.246 39.5089C148.037 39.5752 147.757 39.6082 147.408 39.6082H145.626V34.9166ZM146.571 35.7111V38.8146H147.28C147.546 38.8146 147.737 38.7985 147.855 38.7692C148.009 38.7313 148.137 38.6661 148.238 38.5744C148.341 38.4826 148.423 38.3332 148.488 38.1222C148.552 37.9122 148.584 37.6256 148.584 37.2643C148.584 36.9011 148.551 36.6239 148.488 36.43C148.423 36.2352 148.333 36.0857 148.218 35.976C148.102 35.8682 147.956 35.7934 147.778 35.7556C147.645 35.7262 147.386 35.7111 146.998 35.7111H146.571Z" fill="white"/>
<path d="M150.352 34.9166H151.297V37.4629C151.297 37.8668 151.309 38.1289 151.333 38.2481C151.374 38.441 151.47 38.5952 151.623 38.7115C151.776 38.8279 151.986 38.8866 152.252 38.8866C152.521 38.8866 152.725 38.8318 152.862 38.721C152.999 38.6113 153.082 38.476 153.11 38.3152C153.137 38.1554 153.152 37.8895 153.152 37.5168V34.9166H154.097V37.3844C154.097 37.9482 154.071 38.3465 154.021 38.5791C153.97 38.8128 153.875 39.0095 153.737 39.1693C153.6 39.3301 153.415 39.4579 153.184 39.5525C152.954 39.647 152.653 39.6953 152.281 39.6953C151.833 39.6953 151.492 39.6442 151.261 39.5402C151.029 39.4361 150.846 39.3018 150.711 39.1353C150.577 38.9707 150.488 38.7967 150.446 38.615C150.383 38.3464 150.352 37.9482 150.352 37.4232L150.352 34.9166Z" fill="white"/>
<path d="M154.846 38.0712L155.769 37.984C155.826 38.2952 155.938 38.5223 156.108 38.668C156.278 38.8137 156.506 38.8865 156.795 38.8865C157.1 38.8865 157.33 38.8212 157.486 38.6926C157.64 38.5639 157.718 38.4126 157.718 38.2385C157.718 38.1279 157.685 38.0323 157.62 37.9548C157.555 37.8772 157.441 37.8091 157.279 37.7514C157.168 37.7126 156.915 37.6445 156.521 37.5461C156.013 37.4213 155.656 37.2671 155.451 37.0826C155.163 36.8253 155.019 36.5094 155.019 36.1386C155.019 35.9002 155.086 35.676 155.222 35.4689C155.358 35.2608 155.553 35.1019 155.807 34.9931C156.062 34.8843 156.369 34.8295 156.729 34.8295C157.318 34.8295 157.76 34.96 158.058 35.2192C158.355 35.4783 158.511 35.8264 158.526 36.2597L157.581 36.2956C157.539 36.0544 157.453 35.8813 157.32 35.7754C157.186 35.6694 156.986 35.6165 156.719 35.6165C156.444 35.6165 156.228 35.6733 156.072 35.7867C155.971 35.8586 155.921 35.956 155.921 36.078C155.921 36.1877 155.968 36.2833 156.063 36.3618C156.182 36.4621 156.472 36.5661 156.933 36.6749C157.394 36.7837 157.736 36.8962 157.957 37.0126C158.178 37.1299 158.351 37.2888 158.476 37.4912C158.601 37.6937 158.663 37.9434 158.663 38.2404C158.663 38.5109 158.589 38.7626 158.439 38.9991C158.29 39.2336 158.078 39.4095 157.805 39.523C157.531 39.6385 157.191 39.6952 156.784 39.6952C156.19 39.6952 155.734 39.5571 155.416 39.2799C155.098 39.0037 154.908 38.6 154.846 38.0712Z" fill="white"/>
<path d="M160.524 39.6082V35.7111H159.139V34.9166H162.855V35.7111H161.469V39.6082H160.524Z" fill="white"/>
<path d="M163.474 39.6082V34.9166H165.461C165.96 34.9166 166.323 34.9591 166.549 35.0433C166.776 35.1284 166.957 35.2779 167.094 35.4935C167.23 35.7092 167.298 35.9551 167.298 36.2332C167.298 36.5851 167.194 36.8764 166.989 37.1063C166.783 37.3362 166.476 37.48 166.066 37.5396C166.27 37.6597 166.439 37.7902 166.571 37.9331C166.705 38.0759 166.883 38.3294 167.109 38.6945L167.68 39.6082H166.548L165.868 38.5867C165.626 38.2234 165.46 37.9946 165.37 37.9C165.281 37.8053 165.186 37.7391 165.086 37.7051C164.985 37.6692 164.828 37.6521 164.61 37.6521H164.419V39.6082H163.474ZM164.419 36.901H165.116C165.569 36.901 165.851 36.8822 165.963 36.8442C166.076 36.8064 166.164 36.7393 166.228 36.6456C166.292 36.5509 166.323 36.4337 166.323 36.2937C166.323 36.1357 166.281 36.0081 166.197 35.9106C166.114 35.8132 165.995 35.7526 165.843 35.7262C165.766 35.7157 165.537 35.711 165.154 35.711H164.418L164.419 36.901Z" fill="white"/>
<path d="M168.17 39.6082V34.9166H169.116V39.6082H168.17Z" fill="white"/>
<path d="M174.248 39.6082H173.218L172.814 38.5404H170.944L170.558 39.6082H169.544L171.354 34.9166H172.371L174.248 39.6082ZM172.505 37.7468L171.856 36.0138L171.23 37.7468H172.505Z" fill="white"/>
<path d="M174.782 39.6083V34.9525H175.727V38.8147H178.087V39.6083H174.782Z" fill="white"/>
<path d="M184.444 39.6082H183.414L183.009 38.5404H181.139L180.754 39.6082H179.74L181.55 34.9166H182.566L184.444 39.6082ZM182.701 37.7468L182.053 36.0138L181.427 37.7468H182.701Z" fill="white"/>
<path d="M184.957 39.6082V34.9166H185.871L187.806 38.0721V34.9166H188.68V39.6082H187.735L185.829 36.5132V39.6082H184.957Z" fill="white"/>
<path d="M189.682 34.9166H191.413C191.803 34.9166 192.101 34.9467 192.305 35.0055C192.581 35.0869 192.816 35.2316 193.013 35.4387C193.209 35.6459 193.359 35.8984 193.461 36.1992C193.563 36.4982 193.614 36.8689 193.614 37.3078C193.614 37.6937 193.567 38.0267 193.47 38.3058C193.353 38.6473 193.185 38.9235 192.968 39.1353C192.805 39.2952 192.582 39.42 192.303 39.5089C192.094 39.5752 191.814 39.6082 191.464 39.6082H189.682V34.9166ZM190.627 35.7111V38.8146H191.337C191.603 38.8146 191.794 38.7985 191.912 38.7692C192.065 38.7313 192.194 38.6661 192.296 38.5744C192.396 38.4826 192.479 38.3332 192.544 38.1222C192.608 37.9122 192.64 37.6256 192.64 37.2643C192.64 36.9011 192.608 36.6239 192.544 36.43C192.479 36.2352 192.391 36.0857 192.274 35.976C192.159 35.8682 192.012 35.7934 191.835 35.7556C191.702 35.7262 191.442 35.7111 191.055 35.7111H190.627Z" fill="white"/>
<path d="M199.238 37.883L200.154 38.1648C200.014 38.6794 199.779 39.0625 199.452 39.3122C199.125 39.5629 198.709 39.6877 198.207 39.6877C197.584 39.6877 197.073 39.4749 196.672 39.0483C196.271 38.6226 196.071 38.04 196.071 37.3003C196.071 36.519 196.271 35.9117 196.674 35.4784C197.077 35.0471 197.606 34.8295 198.264 34.8295C198.837 34.8295 199.303 34.9998 199.66 35.3384C199.874 35.539 200.033 35.8265 200.14 36.2011L199.202 36.4253C199.146 36.1822 199.03 35.9901 198.854 35.8492C198.679 35.7092 198.465 35.6383 198.214 35.6383C197.866 35.6383 197.585 35.7641 197.368 36.0138C197.153 36.2645 197.045 36.6703 197.045 37.2303C197.045 37.8243 197.151 38.2481 197.364 38.5006C197.578 38.7532 197.856 38.88 198.197 38.88C198.449 38.88 198.665 38.7986 198.847 38.6397C199.028 38.4789 199.159 38.2273 199.238 37.883Z" fill="white"/>
<path d="M200.773 37.2908C200.773 36.8121 200.845 36.4092 200.989 36.0857C201.095 35.8454 201.241 35.6298 201.426 35.4406C201.61 35.2495 201.813 35.1076 202.033 35.0159C202.324 34.892 202.663 34.8295 203.045 34.8295C203.736 34.8295 204.289 35.0452 204.704 35.4746C205.119 35.9041 205.327 36.5029 205.327 37.269C205.327 38.0286 205.121 38.6227 204.709 39.0521C204.297 39.4797 203.746 39.6953 203.057 39.6953C202.359 39.6953 201.804 39.4815 201.392 39.0558C200.98 38.6283 200.773 38.0399 200.773 37.2908ZM201.747 37.2587C201.747 37.7931 201.871 38.198 202.117 38.4732C202.364 38.7485 202.676 38.8866 203.055 38.8866C203.434 38.8866 203.745 38.7504 203.988 38.477C204.231 38.2037 204.353 37.7931 204.353 37.2464C204.353 36.7062 204.234 36.3033 203.998 36.0375C203.761 35.7717 203.447 35.6383 203.055 35.6383C202.664 35.6383 202.348 35.7736 202.108 36.0422C201.868 36.3118 201.747 36.7167 201.747 37.2587Z" fill="white"/>
<path d="M206.059 39.6082V34.9166H207.474L208.321 38.1175L209.158 34.9166H210.577V39.6082H209.703L209.699 35.9154L208.773 39.6082H207.859L206.936 35.9154L206.932 39.6082H206.059Z" fill="white"/>
<path d="M211.519 39.6082V34.9166H212.933L213.781 38.1175L214.617 34.9166H216.036V39.6082H215.163L215.159 35.9154L214.232 39.6082H213.319L212.396 35.9154L212.392 39.6082H211.519Z" fill="white"/>
<path d="M216.993 39.6082V34.9166H220.471V35.7111H217.938V36.7497H220.297V37.5443H217.938V38.8146H220.557V39.6082H216.993Z" fill="white"/>
<path d="M221.364 39.6082V34.9166H223.351C223.85 34.9166 224.213 34.9591 224.44 35.0433C224.667 35.1284 224.849 35.2779 224.984 35.4935C225.12 35.7092 225.188 35.9551 225.188 36.2332C225.188 36.5851 225.085 36.8764 224.88 37.1063C224.674 37.3362 224.366 37.48 223.956 37.5396C224.161 37.6597 224.328 37.7902 224.463 37.9331C224.595 38.0759 224.775 38.3294 225 38.6945L225.571 39.6082H224.439L223.759 38.5867C223.516 38.2234 223.351 37.9946 223.261 37.9C223.171 37.8053 223.077 37.7391 222.976 37.7051C222.876 37.6692 222.717 37.6521 222.501 37.6521H222.309V39.6082H221.364ZM222.309 36.901H223.007C223.459 36.901 223.741 36.8822 223.854 36.8442C223.966 36.8064 224.054 36.7393 224.119 36.6456C224.182 36.5509 224.214 36.4337 224.214 36.2937C224.214 36.1357 224.172 36.0081 224.088 35.9106C224.005 35.8132 223.886 35.7526 223.733 35.7262C223.657 35.7157 223.427 35.711 223.045 35.711H222.309V36.901Z" fill="white"/>
<path d="M229.092 37.883L230.008 38.1648C229.868 38.6794 229.633 39.0625 229.306 39.3122C228.979 39.5629 228.564 39.6877 228.06 39.6877C227.438 39.6877 226.927 39.4749 226.526 39.0483C226.125 38.6226 225.925 38.04 225.925 37.3003C225.925 36.519 226.125 35.9117 226.528 35.4784C226.931 35.0471 227.46 34.8295 228.117 34.8295C228.69 34.8295 229.157 34.9998 229.514 35.3384C229.728 35.539 229.887 35.8265 229.994 36.2011L229.056 36.4253C229 36.1822 228.884 35.9901 228.708 35.8492C228.533 35.7092 228.319 35.6383 228.068 35.6383C227.721 35.6383 227.439 35.7641 227.222 36.0138C227.006 36.2645 226.899 36.6703 226.899 37.2303C226.899 37.8243 227.005 38.2481 227.218 38.5006C227.432 38.7532 227.71 38.88 228.05 38.88C228.304 38.88 228.519 38.7986 228.701 38.6397C228.882 38.4789 229.013 38.2273 229.092 37.883Z" fill="white"/>
<path d="M230.794 39.6082V34.9166H231.74V39.6082H230.794Z" fill="white"/>
<path d="M236.872 39.6082H235.842L235.438 38.5404H233.567L233.182 39.6082H232.168L233.979 34.9166H234.994L236.872 39.6082ZM235.128 37.7468L234.48 36.0138L233.855 37.7468H235.128Z" fill="white"/>
<path d="M237.405 39.6083V34.9525H238.351V38.8147H240.711V39.6083H237.405Z" fill="white"/>
<path d="M243.09 34.9166H244.963C245.334 34.9166 245.611 34.9316 245.792 34.9628C245.974 34.994 246.137 35.0583 246.281 35.1558C246.425 35.2542 246.545 35.3847 246.64 35.5474C246.736 35.711 246.784 35.8927 246.784 36.0951C246.784 36.3145 246.725 36.517 246.607 36.6995C246.49 36.8821 246.331 37.0202 246.131 37.111C246.414 37.1942 246.634 37.3361 246.786 37.5376C246.938 37.7381 247.016 37.9737 247.016 38.2461C247.016 38.4599 246.966 38.667 246.866 38.8695C246.768 39.0709 246.632 39.2336 246.461 39.3528C246.29 39.4739 246.078 39.5486 245.826 39.577C245.669 39.5932 245.287 39.6044 244.685 39.6082H243.09V34.9166ZM244.035 35.6959V36.779H244.654C245.023 36.779 245.251 36.7729 245.34 36.7628C245.503 36.7439 245.63 36.6872 245.722 36.5954C245.815 36.5026 245.86 36.3807 245.86 36.2293C245.86 36.0855 245.821 35.9664 245.741 35.8765C245.662 35.7866 245.543 35.7318 245.386 35.7129C245.291 35.7015 245.023 35.6958 244.578 35.6958L244.035 35.6959ZM244.035 37.5583V38.8145H244.913C245.255 38.8145 245.473 38.8041 245.563 38.785C245.705 38.7605 245.82 38.6961 245.907 38.5978C245.996 38.4985 246.041 38.3651 246.041 38.1986C246.041 38.0586 246.007 37.9375 245.939 37.841C245.87 37.7427 245.771 37.6698 245.643 37.6254C245.512 37.5809 245.232 37.5582 244.801 37.5582L244.035 37.5583Z" fill="white"/>
<path d="M252.044 39.6082H251.014L250.61 38.5404H248.74L248.354 39.6082H247.339L249.15 34.9166H250.166L252.044 39.6082ZM250.301 37.7468L249.652 36.0138L249.026 37.7468H250.301Z" fill="white"/>
<path d="M252.557 39.6082V34.9166H253.472L255.407 38.0721V34.9166H256.28V39.6082H255.335L253.429 36.5132V39.6082H252.557Z" fill="white"/>
<path d="M257.289 39.6082V34.9166H258.235V37.0014L260.164 34.9166H261.441L259.661 36.7441L261.528 39.6082H260.302L259.005 37.4062L258.235 38.1913V39.6082H257.289Z" fill="white"/>
<path d="M263.641 37.2908C263.641 36.8121 263.713 36.4092 263.856 36.0857C263.962 35.8454 264.107 35.6298 264.293 35.4406C264.478 35.2495 264.68 35.1076 264.9 35.0159C265.193 34.892 265.529 34.8295 265.911 34.8295C266.603 34.8295 267.157 35.0452 267.572 35.4746C267.987 35.9041 268.194 36.5029 268.194 37.269C268.194 38.0286 267.988 38.6227 267.576 39.0521C267.164 39.4797 266.613 39.6953 265.925 39.6953C265.226 39.6953 264.671 39.4815 264.259 39.0558C263.847 38.6283 263.641 38.0399 263.641 37.2908ZM264.616 37.2587C264.616 37.7931 264.739 38.198 264.985 38.4732C265.231 38.7485 265.544 38.8866 265.923 38.8866C266.301 38.8866 266.613 38.7504 266.855 38.477C267.099 38.2037 267.22 37.7931 267.22 37.2464C267.22 36.7062 267.102 36.3033 266.864 36.0375C266.628 35.7717 266.314 35.6383 265.923 35.6383C265.531 35.6383 265.214 35.7736 264.975 36.0422C264.735 36.3118 264.616 36.7167 264.616 37.2587Z" fill="white"/>
<path d="M268.941 39.6082V34.9166H272.159V35.7111H269.886V36.8216H271.849V37.6162H269.886V39.6082H268.941Z" fill="white"/>
<path d="M277.759 37.883L278.676 38.1648C278.535 38.6794 278.302 39.0625 277.974 39.3122C277.647 39.5629 277.231 39.6877 276.728 39.6877C276.106 39.6877 275.594 39.4749 275.194 39.0483C274.793 38.6226 274.592 38.04 274.592 37.3003C274.592 36.519 274.794 35.9117 275.197 35.4784C275.599 35.0471 276.129 34.8295 276.785 34.8295C277.358 34.8295 277.824 34.9998 278.183 35.3384C278.395 35.539 278.555 35.8265 278.661 36.2011L277.723 36.4253C277.668 36.1822 277.553 35.9901 277.377 35.8492C277.201 35.7092 276.987 35.6383 276.736 35.6383C276.389 35.6383 276.107 35.7641 275.891 36.0138C275.675 36.2645 275.566 36.6703 275.566 37.2303C275.566 37.8243 275.673 38.2481 275.887 38.5006C276.1 38.7532 276.377 38.88 276.719 38.88C276.97 38.88 277.188 38.7986 277.369 38.6397C277.551 38.4789 277.681 38.2273 277.759 37.883Z" fill="white"/>
<path d="M279.499 39.6082V34.9166H280.444V36.7649H282.297V34.9166H283.243V39.6082H282.297V37.5585H280.444V39.6082H279.499Z" fill="white"/>
<path d="M284.196 39.6082V34.9166H285.141V39.6082H284.196Z" fill="white"/>
<path d="M286.053 39.6082V34.9166H286.968L288.903 38.0721V34.9166H289.776V39.6082H288.831L286.925 36.5132V39.6082H286.053Z" fill="white"/>
<path d="M295.005 39.6082H293.977L293.572 38.5404H291.702L291.316 39.6082H290.302L292.112 34.9166H293.128L295.005 39.6082ZM293.264 37.7468L292.614 36.0138L291.988 37.7468H293.264Z" fill="white"/>
<path fill-rule="evenodd" clip-rule="evenodd" d="M101.672 27.6771V30.7495H111.636V21.531H105.507V18.4579H111.636V9.22895H101.672V12.3041H108.561V15.3841H102.419V24.6048H108.561V27.6771H101.672ZM83.9577 19.9983C83.9577 10.6673 91.5225 3.09113 100.853 3.09113C110.181 3.09113 117.748 10.6673 117.748 19.9983C117.748 29.3327 110.181 36.9033 100.853 36.9033C91.5225 36.9033 83.9577 29.3327 83.9577 19.9983ZM80.8628 19.9983C80.8628 8.9492 89.8068 0 100.853 0C111.896 0 120.847 8.9492 120.847 19.9983C120.847 31.0473 111.896 40 100.853 40C89.8068 40 80.8628 31.0473 80.8628 19.9983ZM100.122 12.2958V9.22201H90.1447V18.4454H96.2582V21.522H90.1447V30.744H100.122V27.6702H93.2153V24.5978H99.3558V15.3689H93.2153V12.2958" fill="white"/>
<path fill-rule="evenodd" clip-rule="evenodd" d="M33.5835 21.7075V21.6573H40.9993C41.6767 21.6573 42.6519 21.766 43.433 22.2799C44.1609 22.7616 44.5331 23.4734 44.5331 24.3951C44.5331 25.1292 44.3335 25.7037 43.9426 26.1004C43.2154 26.8318 41.9599 26.8304 41.0414 26.8304H33.5565V26.7851L33.5835 21.7075ZM33.5835 17.691V13.181H40.3722C41.5662 13.181 43.5676 13.181 43.5676 15.5584C43.5676 16.4298 43.1926 17.0461 42.4537 17.3933C41.7872 17.7071 40.9551 17.7398 40.3888 17.7398H33.5835V17.691ZM41.2748 30.8154C43.848 30.8154 45.7893 30.188 47.0435 28.9491C48.3315 27.676 48.6029 26.0398 48.6029 24.8873C48.6029 22.3691 47.5545 20.6178 45.4855 19.6857L45.3943 19.6474L45.4806 19.6014C46.4136 19.1085 47.6491 18.1073 47.6491 15.1227C47.6491 13.4829 47.0317 12.0056 45.9081 10.9612C44.6768 9.81437 42.8798 9.20991 40.7175 9.20991L29.5103 9.20294V30.8092" fill="white"/>
<path fill-rule="evenodd" clip-rule="evenodd" d="M0 30.8154H4.26935V9.20984H0V30.8154Z" fill="white"/>
<path fill-rule="evenodd" clip-rule="evenodd" d="M7.73535 19.8286C7.73535 21.9173 8.08618 23.6422 8.80787 25.1C9.41077 26.3144 10.2602 27.3379 11.4868 28.323C13.3949 29.8533 16.0821 30.6307 19.4744 30.6307H25.3176V26.5529H19.7983C16.7278 26.5529 14.5013 25.786 13.1822 24.2717C12.2443 23.1981 11.763 21.7479 11.7506 19.9645C11.7333 18.0515 12.2678 16.5302 13.3341 15.4468C14.6684 14.0908 16.8431 13.4041 19.7983 13.4041H25.3176V9.35974H19.6781C17.7789 9.35974 16.1871 9.55217 14.8072 9.9412C13.4301 10.3323 12.2982 10.9151 11.35 11.7211C10.0013 12.8693 7.73535 15.4468 7.73535 19.8286Z" fill="white"/>
<path fill-rule="evenodd" clip-rule="evenodd" d="M51.1792 19.8286C51.1792 21.9131 51.5383 23.7537 52.2517 25.2917C52.8691 26.6247 53.769 27.7736 54.9292 28.7037C56.7227 30.1461 59.2614 30.8161 62.9168 30.8161H69.0771V26.739H63.2421C60.1772 26.739 57.9506 25.9386 56.6233 24.3609C55.6868 23.2503 55.2055 21.7716 55.1937 19.9645C55.1758 17.9985 55.7289 16.4305 56.8325 15.3094C58.1744 13.9437 60.3298 13.2514 63.2421 13.2514H69.0771V9.21051H63.1192C61.2214 9.21051 59.6309 9.40086 58.2497 9.79058C56.8726 10.181 55.7407 10.761 54.7952 11.5677C53.7055 12.4921 51.1792 15.1484 51.1792 19.8286Z" fill="white"/>
</g>
<defs>
<clipPath id="clip0_303_3761">
<rect width="301" height="40" fill="white"/>
</clipPath>
</defs>
</svg>
