<svg width="101" height="40" viewBox="0 0 101 40" fill="none" xmlns="http://www.w3.org/2000/svg">
<path d="M84.4892 7.26809C84.2461 7.26809 84.0519 7.07236 84.0519 6.82736V5.05109C84.0519 4.80609 84.2461 4.61043 84.4892 4.61043H96.1474C96.3876 4.61043 96.6085 4.82849 96.6085 5.05109V6.82736C96.6085 7.07236 96.3876 7.26809 96.1474 7.26809H84.4892ZM83.7628 12.8971C83.5197 12.8971 83.3285 12.6984 83.3285 12.4564V10.6786C83.3285 10.4575 83.5197 10.241 83.7628 10.241H96.8249C97.068 10.241 97.2592 10.4575 97.2592 10.6786V12.4564C97.2592 12.6984 97.068 12.8971 96.8249 12.8971H94.5036V20.4473C94.5036 21.378 93.7506 22.1055 92.833 22.1055H86.4962C86.2516 22.1055 86.0619 21.9128 86.0619 21.6708V20.1097C86.0619 19.8647 86.2516 19.672 86.4962 19.672H91.284V12.8971H83.7628ZM75.4412 15.2126C75.2514 15.2126 75.1299 15.138 75.1299 15.0185C75.1299 14.9796 75.1433 14.9422 75.204 14.8691L78.7334 10.4575C79.0002 10.1423 79.0728 10.0692 79.3159 10.0692H82.0715C82.2168 10.0692 82.3117 10.1423 82.3117 10.2903C82.3117 10.3605 82.2895 10.4112 82.242 10.4859L79.3618 14.1161H80.6677V21.6708C80.6677 21.8889 80.4498 22.1055 80.2304 22.1055H77.961C77.7179 22.1055 77.5 21.9128 77.5 21.6708V15.2126H75.4412ZM75.4411 9.58212C75.2277 9.58212 75.1299 9.50896 75.1299 9.38341L75.1758 9.26393L78.7333 4.82853C79.0001 4.49091 79.0727 4.4401 79.3158 4.4401H82.0714C82.2167 4.4401 82.3115 4.51636 82.3115 4.63282C82.3115 4.73297 82.2803 4.80613 82.2315 4.87186L78.6354 9.38341C78.5169 9.53281 78.4176 9.58212 78.1522 9.58212H75.4411Z" fill="white"/>
<path d="M69.9095 15.4292C70.1763 15.1379 70.2712 15.0647 70.4891 15.0647H72.5672C72.834 15.0647 72.9556 15.108 72.9556 15.2603C72.9556 15.3335 72.8829 15.4292 72.7377 15.601L70.0044 18.7665L70.1985 19.0817C70.5113 19.6195 70.5602 19.6943 70.6802 19.8183C70.8507 19.9901 70.9456 20.0124 71.5074 20.0124H72.6428C72.8593 20.0124 73.0742 20.2291 73.0742 20.4472V21.6707C73.0742 21.8858 72.8593 22.1054 72.6428 22.1054H70.9456C69.4722 22.1054 68.7 21.7409 68.1174 20.7923L65.0712 15.5277C65.0076 15.4202 64.9734 15.3335 64.9734 15.2603C64.9734 15.1378 65.0491 15.0647 65.2135 15.0647H67.4667C67.7839 15.0647 67.8506 15.1379 68.0937 15.5277L68.8215 16.7453L69.9095 15.4292ZM63.6186 10.4798V12.041H70.0044V10.4798H63.6186ZM70.0044 6.80486H63.6186V8.36449H70.0044V6.80486ZM63.6186 20.0124H65.7694C66.0125 20.0124 66.2333 20.2082 66.2333 20.4472V21.6707C66.2333 21.8858 66.0125 22.1054 65.7694 22.1054H62.5765C61.6619 22.1054 60.9089 21.3525 60.9089 20.4472V6.26704C60.9089 5.36621 61.6619 4.61025 62.5765 4.61025H71.0938C72.0114 4.61025 72.7377 5.36621 72.7377 6.26704V12.5325C72.7377 13.4572 72.0114 14.2131 71.0938 14.2131H63.6186V20.0124ZM56.7051 14.3326H59.2903C59.5304 14.3326 59.7498 14.5268 59.7498 14.7733V16.2343C59.7498 16.4764 59.5363 16.6751 59.2903 16.6751H56.7051V20.0124H58.7581C58.9746 20.0124 59.1939 20.2082 59.1939 20.4472V21.6707C59.1939 21.8858 58.9746 22.1054 58.7581 22.1054H55.5415C54.6462 22.1054 53.8962 21.3525 53.8962 20.4472V16.6751H51.7913C51.5512 16.6751 51.357 16.4764 51.357 16.2343V14.7733C51.357 14.5268 51.5512 14.3326 51.7913 14.3326H53.8962V12.407H51.7913C51.5512 12.407 51.357 12.2143 51.357 11.9723V10.4798C51.357 10.2408 51.5512 10.0451 51.7913 10.0451H59.2903C59.5304 10.0451 59.7498 10.2408 59.7498 10.4798V11.9723C59.7498 12.2143 59.5304 12.407 59.2903 12.407H56.7051V14.3326ZM59.2903 5.90253C59.5304 5.90253 59.7498 6.09819 59.7498 6.34319V7.82813C59.7498 8.04773 59.5304 8.26288 59.2903 8.26288H54.452L54.1141 8.85001C53.9199 9.21751 53.8472 9.26382 53.4856 9.26382H51.2621C50.9701 9.26382 50.8975 9.21751 50.8975 9.09197C50.8975 9.04559 50.9197 8.97251 50.9953 8.85001L53.1965 4.82842C53.364 4.51321 53.4396 4.44145 53.7049 4.44145H56.1196C56.3627 4.44145 56.462 4.49072 56.462 4.58639C56.462 4.65667 56.4383 4.73281 56.3864 4.82842L55.7816 5.90253H59.2903Z" fill="white"/>
<path d="M33.946 13.9002C33.946 15.0969 34.0185 15.1925 35.3705 15.8498L37.9378 17.0226L40.4978 15.8498C41.8763 15.1701 41.9282 15.0969 41.9282 13.9002V13.0488H33.946V13.9002ZM36.245 4.23019C36.245 3.96278 36.4363 3.76414 36.6794 3.76414H39.1681C39.4127 3.76414 39.6054 3.96278 39.6054 4.23019V5.10567H46.5722C47.684 5.10567 48.6015 6.03034 48.6015 7.17467V8.42064C48.6015 8.66564 48.4103 8.85532 48.1672 8.85532H46.5248C46.2817 8.85532 46.0875 8.66564 46.0875 8.42064V7.32406H29.7629V8.42064C29.7629 8.66564 29.5687 8.85532 29.3256 8.85532H27.707C27.4639 8.85532 27.2445 8.66564 27.2445 8.42064V7.17467C27.2445 6.03034 28.1902 5.10567 29.3256 5.10567H36.245V4.23019ZM27.5098 13.0488C27.2445 13.0488 27.0503 12.856 27.0503 12.611V11.0499C27.0503 10.8079 27.2445 10.6152 27.5098 10.6152H30.8746V9.14965C30.8746 8.90465 31.0659 8.71191 31.309 8.71191H33.485C33.7518 8.71191 33.946 8.90465 33.946 9.14965V10.6152H41.9282V9.17357C41.9282 8.90467 42.1194 8.71191 42.3847 8.71191H44.5622C44.8024 8.71191 44.9995 8.90467 44.9995 9.17357V10.6152H48.2398C48.4829 10.6152 48.6771 10.8079 48.6771 11.0499V12.611C48.6771 12.856 48.4829 13.0488 48.2398 13.0488H44.9995V13.9525C44.9995 15.9753 44.4169 16.6774 41.8526 17.8517L40.7898 18.3386L40.9839 18.4119C42.2898 18.9946 43.3052 19.2396 44.417 19.2172H47.8248C48.0679 19.2172 48.262 19.4322 48.262 19.6772V21.213C48.262 21.458 48.0679 21.6507 47.8248 21.6507H44.417C42.6515 21.6268 41.7577 21.4102 39.724 20.4795L37.9378 19.6772L36.1457 20.4795C34.0186 21.4341 33.3412 21.5999 31.4557 21.6507H28.0435C27.8018 21.6507 27.6121 21.458 27.6121 21.213V19.6772C27.6121 19.4322 27.8018 19.2172 28.0435 19.2172H31.4557C32.5452 19.2172 33.7755 18.9244 34.8902 18.4119L35.0814 18.3386L34.0186 17.8517C31.4068 16.6311 30.9236 16.0216 30.8746 13.9525V13.0488H27.5098Z" fill="white"/>
<path d="M20.6953 8.60454H23.1381C23.3442 8.60454 23.4257 8.68967 23.4287 8.82119C23.4287 8.87354 23.3871 8.978 23.3071 9.14083L20.8169 14.0603C20.6464 14.4054 20.5219 14.4786 20.0179 14.4786H17.5513C17.3572 14.4786 17.2623 14.4055 17.2623 14.256C17.2623 14.2098 17.2623 14.1603 17.3809 13.9407L19.8993 9.01537C20.0416 8.70015 20.2121 8.60454 20.6953 8.60454ZM11.5036 13.9407C11.6014 14.1081 11.6251 14.2097 11.6251 14.256C11.6251 14.4054 11.5287 14.4786 11.336 14.4786H8.86801C8.35959 14.4786 8.23805 14.4054 8.06907 14.0603L5.55064 9.14083C5.50475 9.01534 5.45872 8.89588 5.45872 8.82119C5.45872 8.67777 5.55062 8.60454 5.74776 8.60454H8.18763C8.6753 8.60454 8.81614 8.67769 8.98809 9.01537L11.5036 13.9407ZM4.19877 18.4225C3.93195 18.4225 3.74072 18.2268 3.74072 17.9594V16.3773C3.74072 16.1323 3.93195 15.9143 4.19877 15.9143H12.7368V7.16294H4.85245C4.60935 7.16294 4.41666 6.9478 4.41666 6.7028V5.19095C4.41666 4.94595 4.60935 4.75321 4.85245 4.75321H23.9845C24.2276 4.75321 24.4188 4.94595 24.4188 5.19095V6.7028C24.4188 6.9478 24.2276 7.16294 23.9845 7.16294H16.1239V15.9143H24.7316C24.9999 15.9143 25.1911 16.1323 25.1911 16.3773V17.9594C25.1911 18.2268 24.9999 18.4225 24.7316 18.4225H16.1239V21.7375C16.1239 21.9825 15.9075 22.1752 15.6629 22.1752H13.1741C12.931 22.1752 12.7368 21.9825 12.7368 21.7375V18.4225H4.19877Z" fill="white"/>
<path d="M60.9487 28.641C60.9487 28.2272 61.2616 27.9059 61.6751 27.9059H64.6308C65.5691 27.9059 66.3073 28.1659 66.7772 28.641C67.1359 29.0055 67.3241 29.4551 67.3241 30.0123V30.0363C67.3241 31.0282 66.7623 31.5555 66.1516 31.8767C67.1122 32.2099 67.7837 32.7641 67.7837 33.8875V33.9099C67.7837 35.3874 66.5771 36.1806 64.745 36.1806H61.6751C61.2616 36.1806 60.9487 35.8594 60.9487 35.4486V28.641ZM64.3358 31.3927C65.2622 31.3927 65.8819 31.0281 65.8819 30.2722V30.2483C65.8819 29.5985 65.366 29.1951 64.4396 29.1951H62.3673V31.3927H64.3358ZM64.7583 34.8914C65.7425 34.8914 66.3399 34.497 66.3399 33.759V33.7321C66.3399 33.0315 65.7899 32.6207 64.6515 32.6207H62.3673V34.8914H64.7583ZM68.9472 35.235L71.9934 28.3809C72.1609 28.0134 72.4514 27.7893 72.865 27.7893H72.9316C73.3452 27.7893 73.6268 28.0134 73.7884 28.3809L76.8375 35.235C76.8954 35.3396 76.9176 35.4486 76.9176 35.5382C76.9176 35.9326 76.6255 36.2359 76.2401 36.2359C75.8992 36.2359 75.665 36.0342 75.5375 35.728L74.866 34.1818H70.8816L70.1894 35.7743C70.0708 36.0731 69.8247 36.2359 69.5208 36.2359C69.1473 36.2359 68.8523 35.9446 68.8523 35.5622C68.8523 35.459 68.8865 35.3515 68.9472 35.235ZM74.319 32.8925L72.8768 29.5507L71.4286 32.8925H74.319ZM78.4843 28.5946C78.4843 28.1882 78.7971 27.8626 79.2106 27.8626H79.3618C79.7146 27.8626 79.9147 28.0374 80.1119 28.2854L84.2134 33.6395V28.5587C84.2134 28.1658 84.5321 27.8506 84.9175 27.8506C85.3192 27.8506 85.632 28.1658 85.632 28.5587V35.5039C85.632 35.9058 85.3311 36.2239 84.9294 36.2239H84.8716C84.5322 36.2239 84.3217 36.0462 84.1245 35.7863L79.9029 30.2842V35.5263C79.9029 35.9177 79.5843 36.2359 79.2004 36.2359C78.7972 36.2359 78.4844 35.9177 78.4844 35.5263L78.4843 28.5946ZM87.7488 28.5706C87.7488 28.1658 88.0645 27.8506 88.4751 27.8506C88.8753 27.8506 89.1911 28.1658 89.1911 28.5706V32.0694L93.0851 28.121C93.2466 27.9403 93.4201 27.8506 93.681 27.8506C94.0812 27.8506 94.3494 28.1658 94.3494 28.5213C94.3494 28.7454 94.2546 28.9098 94.0916 29.0667L91.536 31.5465L94.3035 35.0079C94.4191 35.1618 94.5036 35.3022 94.5036 35.5263C94.5036 35.9326 94.1849 36.2359 93.7743 36.2359C93.4927 36.2359 93.3193 36.0955 93.1681 35.8938L90.5251 32.5041L89.1911 33.8023V35.5159C89.1911 35.9177 88.8753 36.2359 88.4751 36.2359C88.0645 36.2359 87.7488 35.9177 87.7488 35.5159V28.5706Z" fill="white"/>
<path d="M26.312 27.8152H25.0698C24.9631 27.8152 24.8727 27.9035 24.8727 28.011V33.7147C24.2279 32.9737 19.9366 28.0752 19.8299 27.9616C19.7172 27.8391 19.5601 27.8152 19.4623 27.8152H18.229C18.1223 27.8152 18.0348 27.9035 18.0348 28.011V35.8883C18.0348 35.9973 18.1223 36.087 18.229 36.087H19.4741C19.5809 36.087 19.6683 35.9974 19.6683 35.8883V30.1413C20.1367 30.6716 24.6444 35.8182 24.7541 35.9392C24.8697 36.0632 25.0268 36.087 25.1247 36.087H26.312C26.4187 36.087 26.5062 35.9974 26.5062 35.8883V28.011C26.5062 27.9034 26.4188 27.8152 26.312 27.8152ZM33.4893 27.7017H30.6285C29.0765 27.7017 27.821 28.8282 27.821 30.216V33.6834C27.821 35.0712 29.0765 36.1946 30.6285 36.1946H33.4893C35.0383 36.1946 36.2968 35.0712 36.2968 33.6834V31.4574H31.9551V32.6242C31.9551 32.7347 32.0441 32.8258 32.1508 32.8258H34.5313V34.4303C34.5313 34.5379 34.4379 34.626 34.3312 34.626H29.7836C29.6768 34.626 29.5894 34.5378 29.5894 34.4303V29.4661C29.5894 29.3585 29.6769 29.2718 29.7836 29.2718H34.3312C34.438 29.2718 34.5254 29.3585 34.5254 29.4661V30.4147C34.5254 30.5282 34.6129 30.6163 34.7255 30.6163H36.0981C36.2108 30.6163 36.2968 30.5282 36.2968 30.4147V30.216C36.2968 28.8282 35.0383 27.7017 33.4893 27.7017ZM57.1795 27.8152H55.9402C55.8305 27.8152 55.7431 27.9035 55.7431 28.011V33.7147C55.0954 32.9737 50.81 28.0752 50.7033 27.9616C50.5817 27.8391 50.4291 27.8152 50.3298 27.8152H49.1024C48.9956 27.8152 48.9022 27.9035 48.9022 28.011V35.8883C48.9022 35.9973 48.9957 36.087 49.1024 36.087H50.3415C50.4512 36.087 50.5387 35.9974 50.5387 35.8883V30.1413C51.0071 30.6716 55.5118 35.8182 55.6215 35.9392C55.7386 36.0632 55.8943 36.087 55.9951 36.087H57.1795C57.2921 36.087 57.3795 35.9974 57.3795 35.8883V28.011C57.3795 27.9034 57.2921 27.8152 57.1795 27.8152ZM44.2034 28.0319C44.1292 27.8945 44.0018 27.8004 43.8506 27.8004H42.6232C42.4691 27.8004 42.3446 27.8945 42.2675 28.0319L38.4105 35.6897C38.2831 35.9362 38.3898 36.084 38.6195 36.084H39.8439C40.0173 36.084 40.087 36.0408 40.1774 35.8689L43.2369 29.7066L46.2964 35.8689C46.3898 36.0407 46.4535 36.084 46.6299 36.084H47.8543C48.0811 36.084 48.1937 35.9362 48.0662 35.6897L44.2034 28.0319ZM11.6402 31.9086C11.6402 32.0192 11.5526 32.1072 11.443 32.1072H7.24813V29.2718H11.443C11.5527 29.2718 11.6402 29.3585 11.6402 29.4661V31.9086ZM10.7048 27.8152H5.65169C5.54497 27.8152 5.45898 27.9035 5.45898 28.011V35.8883C5.45898 35.9973 5.54497 36.087 5.65169 36.087H7.05394C7.16067 36.087 7.24813 35.9974 7.24813 35.8883V33.5668H10.7048C12.2568 33.5668 13.5123 32.6406 13.5123 31.2528V30.331C13.5123 28.9387 12.2568 27.8152 10.7048 27.8152ZM16.2946 27.8152H14.9087C14.8034 27.8152 14.7145 27.9035 14.7145 28.011V35.8883C14.7145 35.9973 14.8034 36.087 14.9087 36.087H16.2946C16.4013 36.087 16.4917 35.9974 16.4917 35.8883V28.011C16.4917 27.9034 16.4013 27.8152 16.2946 27.8152Z" fill="white"/>
<path d="M44.2933 33.6128H42.1825C42.0757 33.6128 41.9883 33.7039 41.9883 33.8115V35.888C41.9883 35.9971 42.0757 36.0837 42.1825 36.0837H44.2933C44.4 36.0837 44.4875 35.9971 44.4875 35.888V33.8115C44.4875 33.7039 44.4001 33.6128 44.2933 33.6128Z" fill="white"/>
</svg>
