<svg width="251" height="40" viewBox="0 0 251 40" fill="none" xmlns="http://www.w3.org/2000/svg">
<g clip-path="url(#clip0_303_3436)">
<mask id="mask0_303_3436" style="mask-type:luminance" maskUnits="userSpaceOnUse" x="-175" y="-1" width="601" height="164">
<path d="M425.314 -0.00118256H-174.315V162.413H425.314V-0.00118256Z" fill="white"/>
</mask>
<g mask="url(#mask0_303_3436)">
<path d="M56.3521 29.8727C56.0945 29.6895 55.7661 29.5618 55.381 29.4968C55.1141 29.4448 54.7159 29.4176 54.195 29.4176L51.2807 29.4105H51.2382L51.2275 37.3763V37.4141L52.3309 37.4176L52.338 34.1947L54.2966 34.1971C55.3905 34.1971 56.1571 33.9572 56.5836 33.488C57.0053 33.0176 57.2168 32.4326 57.2168 31.753C57.2203 31.3547 57.1424 30.9871 56.9853 30.655C56.8258 30.3241 56.6143 30.0582 56.3521 29.8727ZM56.0839 31.7837C56.0839 32.2269 55.9469 32.5756 55.6752 32.8214C55.4082 33.0637 54.9475 33.1878 54.2966 33.1878L52.3415 33.183L52.3462 30.4269L54.2789 30.4281C54.736 30.4281 55.055 30.4518 55.2215 30.4955C55.4814 30.5723 55.6929 30.7236 55.8453 30.9505C56.0012 31.1798 56.0839 31.4587 56.0839 31.7837Z" fill="white"/>
</g>
<mask id="mask1_303_3436" style="mask-type:luminance" maskUnits="userSpaceOnUse" x="-175" y="-1" width="601" height="164">
<path d="M425.314 -0.00118256H-174.315V162.413H425.314V-0.00118256Z" fill="white"/>
</mask>
<g mask="url(#mask1_303_3436)">
<path d="M64.5891 29.8218C64.0126 29.4673 63.3546 29.29 62.6364 29.2865H62.6246C61.5354 29.2865 60.6294 29.6658 59.9383 30.4175C59.2401 31.1609 58.8881 32.2092 58.8857 33.5293C58.8857 34.2243 59.0369 34.8956 59.3311 35.5219C59.6276 36.1495 60.0671 36.6553 60.6483 37.017C61.2224 37.381 61.8874 37.5654 62.6222 37.5689H62.6246C63.2991 37.5689 63.937 37.3999 64.5194 37.0737C65.1018 36.7475 65.5625 36.2571 65.8838 35.6189C66.2016 34.9842 66.3646 34.2562 66.3646 33.4454C66.3646 32.65 66.2134 31.9315 65.9157 31.3027C65.6121 30.6751 65.1632 30.1752 64.5891 29.8218ZM60.7617 35.7808C60.2738 35.2371 60.0245 34.4843 60.0245 33.5459C60.0269 32.3664 60.288 31.519 60.7971 31.0191C61.3098 30.5191 61.9276 30.2674 62.634 30.2674V30.2296L62.6423 30.2674C63.1361 30.2674 63.5933 30.4021 63.9973 30.6586C64.3977 30.9221 64.7049 31.2909 64.9163 31.766C65.1219 32.2376 65.2282 32.8013 65.2282 33.4395C65.2258 34.4476 64.9754 35.2312 64.484 35.7796C63.9984 36.3209 63.3712 36.5939 62.614 36.5939C61.878 36.5927 61.2543 36.3209 60.7617 35.7808Z" fill="white"/>
</g>
<mask id="mask2_303_3436" style="mask-type:luminance" maskUnits="userSpaceOnUse" x="-175" y="-1" width="601" height="164">
<path d="M425.314 -0.00118256H-174.315V162.413H425.314V-0.00118256Z" fill="white"/>
</mask>
<g mask="url(#mask2_303_3436)">
<path d="M72.91 33.2055C72.5982 33.0578 72.0217 32.8876 71.1901 32.6914C70.3726 32.5011 69.8587 32.312 69.6685 32.1371C69.4736 31.9586 69.3803 31.7305 69.3803 31.4575C69.3803 31.1432 69.5173 30.8713 69.7949 30.648C70.0643 30.4258 70.5073 30.3099 71.1038 30.3099H71.1168C71.6957 30.3099 72.1446 30.4352 72.4375 30.6858C72.7317 30.9316 72.9089 31.3098 72.9585 31.7967L72.9608 31.8345L74.024 31.7542L74.0217 31.7187C74.0051 31.246 73.8752 30.8193 73.6366 30.4506C73.4015 30.0771 73.0542 29.7887 72.6147 29.5996C72.1694 29.407 71.6555 29.3089 71.0696 29.3077C70.5486 29.3077 70.0678 29.3999 69.6402 29.5807C69.2102 29.7616 68.8759 30.0334 68.6503 30.3868C68.4234 30.7354 68.3112 31.1207 68.3112 31.5273C68.3112 31.8948 68.4034 32.2328 68.5829 32.5307C68.7672 32.832 69.0519 33.0838 69.4252 33.2859C69.717 33.4419 70.219 33.6132 70.9266 33.7881C71.6319 33.9607 72.0914 34.0919 72.2993 34.1758C72.6147 34.2975 72.8451 34.45 72.9738 34.6285C73.1109 34.8081 73.1794 35.0185 73.1794 35.2607C73.1794 35.4948 73.1085 35.7169 72.9644 35.9167C72.8238 36.1152 72.6065 36.2771 72.3123 36.3918C72.0241 36.5052 71.6827 36.5632 71.2976 36.5632C70.8676 36.562 70.4718 36.4852 70.1293 36.3315C69.789 36.1779 69.5339 35.977 69.3744 35.7288C69.2078 35.4782 69.1027 35.1591 69.059 34.7656L69.0531 34.7313L68.0088 34.8199V34.8577C68.0253 35.3896 68.1683 35.8789 68.4376 36.2996C68.7081 36.7262 69.0885 37.0489 69.5681 37.2628C70.0442 37.4732 70.6431 37.5807 71.3472 37.5843H71.3566C71.9047 37.5843 72.408 37.4779 72.8534 37.2687C73.2999 37.0607 73.6507 36.7629 73.8858 36.3859C74.1256 36.0077 74.2461 35.5999 74.2461 35.1733C74.2508 34.7431 74.1398 34.3554 73.9201 34.0281C73.7063 33.6972 73.3637 33.4206 72.91 33.2055Z" fill="white"/>
</g>
<mask id="mask3_303_3436" style="mask-type:luminance" maskUnits="userSpaceOnUse" x="-175" y="-1" width="601" height="164">
<path d="M425.314 -0.00118256H-174.315V162.413H425.314V-0.00118256Z" fill="white"/>
</mask>
<g mask="url(#mask3_303_3436)">
<path d="M78.2996 30.4671L78.2878 37.4578L79.3935 37.4602L79.403 30.4671L81.9641 30.473V29.459L75.7929 29.4495H75.7539V30.4612L78.2996 30.4671Z" fill="white"/>
</g>
<mask id="mask4_303_3436" style="mask-type:luminance" maskUnits="userSpaceOnUse" x="-175" y="-1" width="601" height="164">
<path d="M425.314 -0.00118256H-174.315V162.413H425.314V-0.00118256Z" fill="white"/>
</mask>
<g mask="url(#mask4_303_3436)">
<path d="M86.1856 29.4685L85.0209 29.4649L82.0156 37.4625L83.1839 37.4649L84.0392 35.0669L87.211 35.0705L88.1124 37.4732L89.3657 37.4744L86.1927 29.4921L86.1856 29.4685ZM86.8708 34.1392L84.3617 34.1368L85.1981 31.8653C85.3564 31.4126 85.4875 30.9623 85.5832 30.5097C85.7001 30.908 85.8643 31.3961 86.0841 31.9941L86.8708 34.1392Z" fill="white"/>
</g>
<mask id="mask5_303_3436" style="mask-type:luminance" maskUnits="userSpaceOnUse" x="-175" y="-1" width="601" height="164">
<path d="M425.314 -0.00118256H-174.315V162.413H425.314V-0.00118256Z" fill="white"/>
</mask>
<g mask="url(#mask5_303_3436)">
<path d="M90.7988 37.4413V37.4779L95.6741 37.4838H95.7154V36.4721L91.9081 36.4674L91.9175 29.4767L90.8118 29.4744L90.7988 37.4413Z" fill="white"/>
</g>
<mask id="mask6_303_3436" style="mask-type:luminance" maskUnits="userSpaceOnUse" x="-175" y="-1" width="601" height="164">
<path d="M425.314 -0.00118256H-174.315V162.413H425.314V-0.00118256Z" fill="white"/>
</mask>
<g mask="url(#mask6_303_3436)">
<path d="M105.848 33.254C105.536 33.1086 104.957 32.9372 104.126 32.7434C103.308 32.5519 102.795 32.3652 102.607 32.1879C102.415 32.0106 102.318 31.7825 102.318 31.5131C102.318 31.1904 102.451 30.9245 102.731 30.6988C103.002 30.473 103.451 30.3619 104.054 30.3619C104.634 30.3619 105.075 30.4884 105.376 30.7342C105.668 30.986 105.845 31.3594 105.893 31.8499L105.898 31.8877L106.959 31.805V31.7707C106.943 31.3015 106.812 30.8725 106.573 30.5026C106.337 30.1315 105.991 29.8431 105.548 29.6481C105.11 29.459 104.59 29.3633 104.011 29.3633C103.484 29.3633 103.007 29.4495 102.577 29.6327C102.145 29.8136 101.816 30.0866 101.587 30.4388C101.366 30.7886 101.245 31.1727 101.245 31.5793C101.245 31.9492 101.344 32.286 101.522 32.5862C101.705 32.8805 101.988 33.1334 102.363 33.3355C102.651 33.4927 103.141 33.6581 103.864 33.8378C104.573 34.0127 105.034 34.1427 105.237 34.2266C105.553 34.3495 105.784 34.5032 105.914 34.684C106.047 34.8601 106.116 35.0728 106.116 35.3127C106.116 35.5515 106.044 35.7678 105.904 35.9699C105.761 36.1684 105.548 36.3291 105.253 36.4438C104.963 36.5584 104.625 36.6175 104.236 36.6175C103.803 36.6175 103.412 36.5407 103.069 36.3847C102.722 36.2311 102.469 36.0301 102.306 35.7808C102.143 35.5338 102.039 35.2099 101.994 34.8187L101.991 34.7833L100.949 34.8755V34.9097C100.962 35.4428 101.106 35.9332 101.378 36.354C101.648 36.7794 102.03 37.1021 102.504 37.3113C102.983 37.5264 103.577 37.6327 104.282 37.6327H104.289C104.844 37.6327 105.348 37.5276 105.791 37.3219C106.236 37.1127 106.586 36.8161 106.822 36.4379C107.064 36.0597 107.185 35.6531 107.187 35.2265C107.187 34.7986 107.075 34.411 106.859 34.0812C106.645 33.7503 106.302 33.4726 105.848 33.254Z" fill="white"/>
</g>
<mask id="mask7_303_3436" style="mask-type:luminance" maskUnits="userSpaceOnUse" x="-175" y="-1" width="601" height="164">
<path d="M425.314 -0.00118256H-174.315V162.413H425.314V-0.00118256Z" fill="white"/>
</mask>
<g mask="url(#mask7_303_3436)">
<path d="M112.559 29.5098L111.404 29.5051L108.392 37.5039L109.567 37.5086L110.419 35.1059L113.593 35.113L114.482 37.4885L114.49 37.5157L115.747 37.5169L112.575 29.5346L112.559 29.5098ZM113.25 34.1817L110.743 34.1793L111.576 31.9054C111.736 31.4634 111.865 31.012 111.966 30.5534C112.086 30.9647 112.253 31.4611 112.463 32.0355L113.25 34.1817Z" fill="white"/>
</g>
<mask id="mask8_303_3436" style="mask-type:luminance" maskUnits="userSpaceOnUse" x="-175" y="-1" width="601" height="164">
<path d="M425.314 -0.00118256H-174.315V162.413H425.314V-0.00118256Z" fill="white"/>
</mask>
<g mask="url(#mask8_303_3436)">
<path d="M119.58 35.3057C119.438 35.6992 119.313 36.088 119.201 36.4603C119.103 36.1058 118.978 35.7169 118.837 35.3057L116.834 29.5453L116.827 29.5169H115.631L118.632 37.4968L118.643 37.524L119.752 37.5264L122.802 29.5784L122.821 29.5264H121.689L119.58 35.3057Z" fill="white"/>
</g>
<mask id="mask9_303_3436" style="mask-type:luminance" maskUnits="userSpaceOnUse" x="-175" y="-1" width="601" height="164">
<path d="M425.314 -0.00118256H-174.315V162.413H425.314V-0.00118256Z" fill="white"/>
</mask>
<g mask="url(#mask9_303_3436)">
<path d="M125.672 29.5299H124.568V37.5323H125.672V29.5299Z" fill="white"/>
</g>
<mask id="mask10_303_3436" style="mask-type:luminance" maskUnits="userSpaceOnUse" x="-175" y="-1" width="601" height="164">
<path d="M425.314 -0.00118256H-174.315V162.413H425.314V-0.00118256Z" fill="white"/>
</mask>
<g mask="url(#mask10_303_3436)">
<path d="M128.149 29.5346L128.137 37.537L129.199 37.5382L129.212 31.4079L133.2 37.5465H134.311L134.323 29.5453H133.259L133.253 35.6673L129.261 29.5358L128.149 29.5346Z" fill="white"/>
</g>
<mask id="mask11_303_3436" style="mask-type:luminance" maskUnits="userSpaceOnUse" x="-175" y="-1" width="601" height="164">
<path d="M425.314 -0.00118256H-174.315V162.413H425.314V-0.00118256Z" fill="white"/>
</mask>
<g mask="url(#mask11_303_3436)">
<path d="M140.332 34.4476L142.605 34.4524V35.8765C142.39 36.0668 142.077 36.2464 141.666 36.4131C141.254 36.5832 140.823 36.6707 140.388 36.6707C139.886 36.6707 139.407 36.5537 138.963 36.3268C138.518 36.101 138.178 35.7488 137.944 35.2808C137.711 34.814 137.594 34.2231 137.595 33.5246C137.595 32.9597 137.697 32.4243 137.889 31.9421C138.004 31.6632 138.166 31.4032 138.371 31.1715C138.577 30.9375 138.846 30.7496 139.182 30.6078C139.518 30.4671 139.916 30.395 140.382 30.395C140.762 30.395 141.116 30.4612 141.43 30.5995C141.74 30.7342 141.983 30.9162 142.15 31.1431C142.317 31.3653 142.461 31.6821 142.576 32.0827L142.586 32.1205L143.587 31.8393L143.577 31.8062C143.446 31.2696 143.245 30.8288 142.99 30.4943C142.732 30.1587 142.368 29.8904 141.909 29.7048C141.455 29.5169 140.943 29.4224 140.372 29.42C139.602 29.42 138.909 29.5819 138.312 29.9093C137.722 30.2343 137.256 30.7401 136.935 31.4126C136.618 32.0863 136.46 32.8178 136.46 33.5861C136.46 34.3696 136.619 35.087 136.935 35.7169C137.25 36.354 137.726 36.8503 138.354 37.186C138.975 37.5216 139.675 37.693 140.442 37.693H140.447C141.013 37.693 141.569 37.5878 142.108 37.381C142.644 37.173 143.169 36.8598 143.675 36.4485L143.692 36.4391L143.693 33.4407H140.334V34.4476H140.332Z" fill="white"/>
</g>
<mask id="mask12_303_3436" style="mask-type:luminance" maskUnits="userSpaceOnUse" x="-175" y="-1" width="601" height="164">
<path d="M425.314 -0.00118256H-174.315V162.413H425.314V-0.00118256Z" fill="white"/>
</mask>
<g mask="url(#mask12_303_3436)">
<path d="M150.428 33.3296C150.118 33.1819 149.539 33.0105 148.708 32.8178C147.888 32.6264 147.375 32.4385 147.186 32.2565C146.995 32.0839 146.897 31.857 146.897 31.584C146.899 31.2637 147.033 30.9954 147.309 30.7697C147.582 30.5487 148.03 30.4329 148.638 30.4329C149.22 30.4352 149.662 30.5629 149.952 30.811C150.248 31.0592 150.423 31.4339 150.474 31.922L150.48 31.9598L151.539 31.8783V31.844C151.522 31.3748 151.394 30.9505 151.154 30.5747C150.916 30.2 150.569 29.9164 150.13 29.7214C149.683 29.5287 149.171 29.4342 148.586 29.4342C148.063 29.4342 147.581 29.5228 147.157 29.7048C146.727 29.8857 146.392 30.1587 146.168 30.5061C145.945 30.863 145.826 31.2472 145.826 31.6513C145.826 32.0213 145.921 32.3569 146.102 32.6583C146.286 32.9573 146.572 33.2114 146.94 33.4111C147.227 33.5683 147.721 33.7338 148.444 33.9111C149.149 34.086 149.608 34.2148 149.816 34.2987C150.129 34.4216 150.358 34.5753 150.491 34.7514C150.626 34.931 150.693 35.1449 150.693 35.3848C150.693 35.6212 150.623 35.841 150.482 36.0408C150.337 36.2417 150.118 36.4012 149.833 36.5159C149.537 36.6305 149.201 36.6872 148.812 36.6872C148.383 36.6872 147.993 36.6092 147.642 36.4556C147.303 36.3055 147.047 36.0999 146.886 35.8517C146.724 35.6047 146.619 35.2832 146.575 34.8944L146.571 34.8542L145.521 34.9452V34.983C145.538 35.5172 145.685 36.0018 145.952 36.4249C146.223 36.8503 146.606 37.1754 147.082 37.3857C147.557 37.5973 148.154 37.7048 148.861 37.7048H148.872C149.421 37.7048 149.928 37.6008 150.37 37.3928C150.816 37.186 151.162 36.8834 151.405 36.5111C151.643 36.1318 151.763 35.7252 151.763 35.2998C151.763 34.8672 151.654 34.4807 151.437 34.1533C151.225 33.8189 150.881 33.5447 150.428 33.3296Z" fill="white"/>
</g>
<mask id="mask13_303_3436" style="mask-type:luminance" maskUnits="userSpaceOnUse" x="-175" y="-1" width="601" height="164">
<path d="M425.314 -0.00118256H-174.315V162.413H425.314V-0.00118256Z" fill="white"/>
</mask>
<g mask="url(#mask13_303_3436)">
<path d="M162.407 33.3308C162.738 33.1476 162.99 32.9148 163.16 32.6323C163.339 32.3297 163.432 32 163.433 31.6584C163.433 31.2873 163.329 30.9281 163.124 30.5912C162.921 30.2556 162.635 30.0003 162.271 29.836C161.908 29.6717 161.422 29.5914 160.83 29.5866L157.888 29.5831L157.879 37.5476V37.5855L160.868 37.5914H160.878C161.367 37.5914 161.786 37.5476 162.124 37.4578C162.465 37.3704 162.761 37.2356 162.986 37.0607C163.214 36.8834 163.41 36.6317 163.567 36.3102C163.72 35.9888 163.8 35.6342 163.8 35.2584C163.8 34.7916 163.671 34.3814 163.419 34.0387C163.18 33.7113 162.844 33.4773 162.407 33.3308ZM158.986 33.9276H160.733C161.221 33.9323 161.595 33.9749 161.851 34.0612C162.103 34.1474 162.302 34.2975 162.444 34.5067C162.587 34.7195 162.658 34.97 162.658 35.256C162.658 35.503 162.608 35.724 162.504 35.9084C162.411 36.0963 162.286 36.2393 162.13 36.3315C161.976 36.4308 161.788 36.5017 161.557 36.5466C161.43 36.5679 161.21 36.5797 160.899 36.5797L158.986 36.5773V33.9276ZM162.151 32.4515C162.027 32.6264 161.834 32.754 161.584 32.832C161.39 32.8899 161.07 32.9195 160.621 32.9195L158.996 32.9171L158.997 30.5983L160.498 30.5995C161.049 30.5995 161.441 30.6361 161.662 30.7094C161.878 30.7791 162.047 30.9115 162.165 31.103C162.288 31.2992 162.341 31.5273 162.341 31.7814C162.341 32.0496 162.277 32.2742 162.151 32.4515Z" fill="white"/>
</g>
<mask id="mask14_303_3436" style="mask-type:luminance" maskUnits="userSpaceOnUse" x="-175" y="-1" width="601" height="164">
<path d="M425.314 -0.00118256H-174.315V162.413H425.314V-0.00118256Z" fill="white"/>
</mask>
<g mask="url(#mask14_303_3436)">
<path d="M169.189 29.6008L168.028 29.5985L165.017 37.5973H166.191L167.049 35.1981L170.224 35.2052L171.12 37.6067H172.375L169.2 29.6245L169.189 29.6008ZM169.879 34.2727L167.371 34.2715L168.205 31.9964C168.363 31.5544 168.494 31.0994 168.591 30.6444C168.715 31.051 168.88 31.5521 169.093 32.1265L169.879 34.2727Z" fill="white"/>
</g>
<mask id="mask15_303_3436" style="mask-type:luminance" maskUnits="userSpaceOnUse" x="-175" y="-1" width="601" height="164">
<path d="M425.314 -0.00118256H-174.315V162.413H425.314V-0.00118256Z" fill="white"/>
</mask>
<g mask="url(#mask15_303_3436)">
<path d="M173.853 29.6091L173.838 37.6115H174.905L174.915 31.4835L178.901 37.6197L180.016 37.6221L180.028 29.6186L178.964 29.615L178.954 35.7394L174.968 29.6091H173.853Z" fill="white"/>
</g>
<mask id="mask16_303_3436" style="mask-type:luminance" maskUnits="userSpaceOnUse" x="-175" y="-1" width="601" height="164">
<path d="M425.314 -0.00118256H-174.315V162.413H425.314V-0.00118256Z" fill="white"/>
</mask>
<g mask="url(#mask16_303_3436)">
<path d="M183.484 33.4927V29.6256L182.382 29.6221L182.372 37.6256H183.478L183.481 34.8542L184.7 33.6404L187.42 37.6174L187.431 37.6327L188.881 37.6351L185.48 32.8805L188.765 29.6327L187.268 29.6292L183.484 33.4927Z" fill="white"/>
</g>
<mask id="mask17_303_3436" style="mask-type:luminance" maskUnits="userSpaceOnUse" x="-175" y="-1" width="601" height="164">
<path d="M425.314 -0.00118256H-174.315V162.413H425.314V-0.00118256Z" fill="white"/>
</mask>
<g mask="url(#mask17_303_3436)">
<path d="M199.859 30.0393C199.281 29.6847 198.623 29.5075 197.898 29.5051C196.805 29.5051 195.898 29.8856 195.202 30.6326C194.511 31.3795 194.157 32.4266 194.155 33.7444C194.152 34.4405 194.301 35.113 194.598 35.7394C194.892 36.367 195.337 36.8728 195.912 37.2344C196.492 37.5973 197.152 37.7864 197.888 37.7864H197.898C198.566 37.7864 199.204 37.6186 199.787 37.2888C200.374 36.9662 200.83 36.4745 201.15 35.8363C201.465 35.2005 201.633 34.4724 201.633 33.6629C201.633 32.8687 201.483 32.1465 201.181 31.5213C200.877 30.8914 200.434 30.3938 199.859 30.0393ZM196.03 35.9959C195.541 35.4593 195.294 34.7076 195.294 33.7633C195.295 32.5862 195.556 31.7341 196.067 31.2365C196.577 30.739 197.197 30.4872 197.906 30.4872V30.4482L197.907 30.4872C198.41 30.4872 198.865 30.6219 199.262 30.8796C199.663 31.142 199.972 31.5072 200.181 31.9823C200.388 32.4574 200.497 33.0223 200.492 33.6593C200.492 34.6663 200.244 35.4522 199.755 35.9959C199.262 36.5372 198.64 36.8125 197.887 36.8125C197.145 36.8113 196.519 36.5372 196.03 35.9959Z" fill="white"/>
</g>
<mask id="mask18_303_3436" style="mask-type:luminance" maskUnits="userSpaceOnUse" x="-175" y="-1" width="601" height="164">
<path d="M425.314 -0.00118256H-174.315V162.413H425.314V-0.00118256Z" fill="white"/>
</mask>
<g mask="url(#mask18_303_3436)">
<path d="M204.784 37.6599L204.787 34.06L208.374 34.0647H208.415L208.418 33.0554L204.787 33.0483L204.791 30.6704L208.941 30.6763H208.983L208.987 29.6646L203.727 29.6564H203.687L203.674 37.6599H204.784Z" fill="white"/>
</g>
<mask id="mask19_303_3436" style="mask-type:luminance" maskUnits="userSpaceOnUse" x="-175" y="-1" width="601" height="164">
<path d="M425.314 -0.00118256H-174.315V162.413H425.314V-0.00118256Z" fill="white"/>
</mask>
<g mask="url(#mask19_303_3436)">
<path d="M220.582 34.8601C220.445 35.5172 220.178 36.0183 219.79 36.3481C219.405 36.6766 218.923 36.8456 218.357 36.8456C217.899 36.8421 217.466 36.7203 217.067 36.4745C216.672 36.2287 216.378 35.8588 216.195 35.3647C216.005 34.8672 215.907 34.2763 215.912 33.6109C215.912 33.0932 215.994 32.5862 216.154 32.0981C216.313 31.6194 216.594 31.2282 216.985 30.947C217.369 30.6609 217.862 30.5179 218.447 30.5179C218.953 30.5203 219.373 30.6503 219.708 30.9056C220.039 31.1621 220.297 31.5828 220.471 32.1477L220.486 32.182L221.574 31.9244L221.561 31.8854C221.353 31.1467 220.979 30.5688 220.449 30.1622C219.917 29.7557 219.252 29.5465 218.47 29.5441C217.784 29.5441 217.148 29.7048 216.574 30.0263C216 30.3442 215.556 30.8217 215.242 31.4398C214.935 32.0579 214.774 32.7918 214.774 33.6156C214.774 34.3755 214.909 35.0965 215.185 35.7559C215.454 36.4201 215.862 36.9366 216.39 37.2865C216.917 37.6375 217.606 37.8171 218.447 37.8171H218.448C219.258 37.8171 219.955 37.5878 220.516 37.1328C221.08 36.6766 221.474 36.0077 221.689 35.1449L221.694 35.1059L220.593 34.8187L220.582 34.8601Z" fill="white"/>
</g>
<mask id="mask20_303_3436" style="mask-type:luminance" maskUnits="userSpaceOnUse" x="-175" y="-1" width="601" height="164">
<path d="M425.314 -0.00118256H-174.315V162.413H425.314V-0.00118256Z" fill="white"/>
</mask>
<g mask="url(#mask20_303_3436)">
<path d="M224.773 29.6906L223.666 29.6883L223.656 37.654V37.6906L224.762 37.6942L224.767 33.9572L228.703 33.9631L228.698 37.7001H229.806L229.818 29.6966L228.713 29.6954L228.705 32.9514L224.767 32.9443L224.773 29.6906Z" fill="white"/>
</g>
<mask id="mask21_303_3436" style="mask-type:luminance" maskUnits="userSpaceOnUse" x="-175" y="-1" width="601" height="164">
<path d="M425.314 -0.00118256H-174.315V162.413H425.314V-0.00118256Z" fill="white"/>
</mask>
<g mask="url(#mask21_303_3436)">
<path d="M233.475 29.7438V29.7025H232.372L232.359 37.7048H233.463L233.475 29.7438Z" fill="white"/>
</g>
<mask id="mask22_303_3436" style="mask-type:luminance" maskUnits="userSpaceOnUse" x="-175" y="-1" width="601" height="164">
<path d="M425.314 -0.00118256H-174.315V162.413H425.314V-0.00118256Z" fill="white"/>
</mask>
<g mask="url(#mask22_303_3436)">
<path d="M235.949 29.7084L235.934 37.7131H237.001L237.009 31.5828L240.997 37.7202L242.109 37.7226L242.122 29.7166H241.059L241.052 35.841L237.064 29.7107L235.949 29.7084Z" fill="white"/>
</g>
<mask id="mask23_303_3436" style="mask-type:luminance" maskUnits="userSpaceOnUse" x="-175" y="-1" width="601" height="164">
<path d="M425.314 -0.00118256H-174.315V162.413H425.314V-0.00118256Z" fill="white"/>
</mask>
<g mask="url(#mask23_303_3436)">
<path d="M247.823 29.7521L247.819 29.7285H246.656L243.643 37.7214L244.819 37.7226L245.67 35.3246L248.847 35.3293L249.733 37.706L249.743 37.732L251 37.7332L247.823 29.7521ZM248.5 34.4004L245.995 34.3956L246.826 32.1229C246.986 31.6892 247.114 31.2353 247.218 30.7697C247.333 31.1668 247.496 31.6525 247.713 32.2517L248.5 34.4004Z" fill="white"/>
</g>
<path d="M88.0026 13.3444H92.3758V11.3246H88.0026V9.15586H92.3758V7.13725H81.0601V9.15586H85.0765V11.3246H81.0601V13.3444H85.0765V17.1795H81.0601V19.0078H92.3758V17.1795H88.0026V13.3444Z" fill="white"/>
<path d="M96.5887 3.11656H76.8667V22.8441H96.5887V3.11656ZM93.6507 20.8232H79.9735V5.31127H93.6507V20.8232Z" fill="white"/>
<path d="M92.0166 14.434H89.2725V16.0863H92.0166V14.434Z" fill="white"/>
<path d="M113.673 5.67174H109.47V2.20416H106.729V5.67174H102.171V22.2981H113.673V5.67174ZM106.729 20.4686H105.096V14.8134H106.729V20.4686ZM106.729 12.7972H105.096V7.6868H106.729V12.7972ZM111.113 20.4686H109.47V14.8134H111.113V20.4686ZM111.113 12.7972H109.47V7.6868H111.113V12.7972Z" fill="white"/>
<mask id="mask24_303_3436" style="mask-type:luminance" maskUnits="userSpaceOnUse" x="-175" y="-1" width="601" height="164">
<path d="M425.314 -0.00118256H-174.315V162.413H425.314V-0.00118256Z" fill="white"/>
</mask>
<g mask="url(#mask24_303_3436)">
<path d="M122.797 19.2631V14.9009C122.797 14.0369 122.229 13.0761 121.502 12.7298L121.423 12.6908L121.462 12.6128C123.134 9.21613 122.854 4.74989 122.807 4.10932H115.13V24.1182H117.869V6.04876H120.297C120.297 6.04876 120.242 10.1285 118.776 12.016V13.8963C119.7 13.9329 120.249 14.538 120.249 15.1148V19.0752C120.249 19.6886 119.676 20.094 118.776 20.12V22.2958C118.802 22.2969 118.833 22.2969 118.867 22.2969C119.377 22.2969 120.672 22.2225 121.63 21.5276C122.326 21.0335 122.797 20.12 122.797 19.2631Z" fill="white"/>
</g>
<mask id="mask25_303_3436" style="mask-type:luminance" maskUnits="userSpaceOnUse" x="-175" y="-1" width="601" height="164">
<path d="M425.314 -0.00118256H-174.315V162.413H425.314V-0.00118256Z" fill="white"/>
</mask>
<g mask="url(#mask25_303_3436)">
<path d="M63.0938 2.18171H59.8109V6.95524H51.2441L51.2275 18.4772H59.8109V24.1182H63.0938V18.4772H71.3157V6.95642H63.0938V2.18171ZM59.8109 16.6465H54.3379V8.77884H59.8109V16.6465ZM68.3825 16.6465H63.0938V8.77884H68.3825V16.6465Z" fill="white"/>
</g>
<mask id="mask26_303_3436" style="mask-type:luminance" maskUnits="userSpaceOnUse" x="-175" y="-1" width="601" height="164">
<path d="M425.314 -0.00118256H-174.315V162.413H425.314V-0.00118256Z" fill="white"/>
</mask>
<g mask="url(#mask26_303_3436)">
<path d="M132.692 20.4674H131.462V9.44304H128.465V20.4674V22.6326H131.462H138.147V20.4674H135.683V13.7781H138.147V11.6058H135.683V6.19057H138.147V4.01477H128.465V6.19057H132.692V20.4674Z" fill="white"/>
</g>
<mask id="mask27_303_3436" style="mask-type:luminance" maskUnits="userSpaceOnUse" x="-175" y="-1" width="601" height="164">
<path d="M425.314 -0.00118256H-174.315V162.413H425.314V-0.00118256Z" fill="white"/>
</mask>
<g mask="url(#mask27_303_3436)">
<path d="M147.291 7.44807H148.176V5.28409H142.018L142.722 2.20416H139.728L138.674 7.44807H144.299V13.7793C144.299 15.2282 143.953 16.3085 143.419 17.3911C142.722 16.3085 142.371 15.0498 142.371 13.7793C142.193 10.5256 142.371 10.1604 142.371 8.54129H139.199V13.7793C139.199 15.9421 140.085 17.9453 141.487 19.5645C140.397 20.5702 139.132 21.1671 138.747 21.3798V24.078C139.465 23.87 141.423 22.9411 143.249 21.3715C144.833 22.6326 146.59 23.5379 148.177 24.078V21.3715C147.119 20.8267 146.064 20.289 145.188 19.5645C146.415 17.9453 147.293 15.9421 147.293 13.7793V7.44807H147.291Z" fill="white"/>
</g>
<mask id="mask28_303_3436" style="mask-type:luminance" maskUnits="userSpaceOnUse" x="-175" y="-1" width="601" height="164">
<path d="M425.314 -0.00118256H-174.315V162.413H425.314V-0.00118256Z" fill="white"/>
</mask>
<g mask="url(#mask28_303_3436)">
<path d="M232.968 23.766V15.0061L232.486 15.2531C232.473 15.2554 231.133 15.9385 229.948 16.1217V14.2308C232.414 13.2924 233.933 11.7855 234.723 9.50332H237.324C236.841 10.7821 236.365 11.9829 235.625 12.9484L235.545 13.0572V23.766H232.968ZM241.486 23.7636V21.6646H243.501C243.938 21.6646 245.06 21.5004 245.06 20.0148V11.3636H238.661V9.47141H250.999V11.3636H247.962V20.6613C247.962 22.7803 247.031 23.766 245.044 23.766L241.486 23.7636ZM229.948 7.71163C232.219 6.93751 233.883 5.27463 234.539 3.12011H237.355C236.05 6.97178 233.496 9.29886 229.948 9.87206V7.71163ZM239.441 4.10932H250.671V5.9802H239.441V4.10932Z" fill="white"/>
</g>
<mask id="mask29_303_3436" style="mask-type:luminance" maskUnits="userSpaceOnUse" x="-175" y="-1" width="601" height="164">
<path d="M425.314 -0.00118256H-174.315V162.413H425.314V-0.00118256Z" fill="white"/>
</mask>
<g mask="url(#mask29_303_3436)">
<path d="M204.639 7.10061H211.944V5.07254H207.765L208.295 3.12011H205.678L204.639 7.10061Z" fill="white"/>
</g>
<mask id="mask30_303_3436" style="mask-type:luminance" maskUnits="userSpaceOnUse" x="-175" y="-1" width="601" height="164">
<path d="M425.314 -0.00118256H-174.315V162.413H425.314V-0.00118256Z" fill="white"/>
</mask>
<g mask="url(#mask30_303_3436)">
<path d="M211.366 8.7753H205.1V10.606H207.027V13.8348H204.616V15.6608H207.027V23.779H211.549V21.9057H209.521V15.6608H211.65V13.8348H209.521V10.606H211.366V8.7753Z" fill="white"/>
</g>
<mask id="mask31_303_3436" style="mask-type:luminance" maskUnits="userSpaceOnUse" x="-175" y="-1" width="601" height="164">
<path d="M425.314 -0.00118256H-174.315V162.413H425.314V-0.00118256Z" fill="white"/>
</mask>
<g mask="url(#mask31_303_3436)">
<path d="M216.008 13.8372H222.111C222.179 13.8372 222.239 13.836 222.304 13.8325V13.836H225.007V10.7502V8.26474V4.11169H213.408V23.7719H218.623V21.9388H216.008V13.8372ZM216.008 5.9542H222.318V8.10991H216.008V5.9542ZM216.008 9.93588H222.304V11.1166V12.0916L216.008 12.094V9.93588Z" fill="white"/>
</g>
<mask id="mask32_303_3436" style="mask-type:luminance" maskUnits="userSpaceOnUse" x="-175" y="-1" width="601" height="164">
<path d="M425.314 -0.00118256H-174.315V162.413H425.314V-0.00118256Z" fill="white"/>
</mask>
<g mask="url(#mask32_303_3436)">
<path d="M222.727 19.8824L222.61 19.7642C222.61 19.7642 224.909 17.228 225.674 15.2921H223.107C222.687 16.1584 221.431 17.7101 221.375 17.7728L221.224 17.9489L220.967 17.5222C220.597 16.9124 220.287 16.1631 220.036 15.2921H217.122C217.567 16.793 218.704 18.775 218.707 18.7785C219.989 20.796 221.836 23.1526 225.672 23.7423V21.576C225.538 21.511 225.326 21.4484 225.196 21.3881C224.176 20.9307 223.441 20.5962 222.727 19.8824Z" fill="white"/>
</g>
<mask id="mask33_303_3436" style="mask-type:luminance" maskUnits="userSpaceOnUse" x="-175" y="-1" width="601" height="164">
<path d="M425.314 -0.00118256H-174.315V162.413H425.314V-0.00118256Z" fill="white"/>
</mask>
<g mask="url(#mask33_303_3436)">
<path d="M163.845 23.4079V15.1597L163.496 15.3393C163.228 15.4741 162.946 15.61 162.664 15.7388V13.6871C164.015 13.0714 165.184 12.3008 166.142 11.3931L166.595 10.9606H162.664V8.89349H165.459V6.32648H163.606V4.34924H165.459V3.0681H168.105V4.34924H170.048V6.32648H168.105V8.89349H168.671L168.718 8.83439C169.161 8.33092 169.574 7.65962 170.048 6.7035V6.79805L170.51 5.95539C170.794 5.43064 171.057 4.85153 171.285 4.22987H173.818C173.051 6.08185 172.359 7.48234 171.7 8.50583L171.454 8.89349H173.396V10.9606H169.796L169.748 11.0114C169.236 11.529 168.719 12.023 168.185 12.5041L167.704 12.9378H172.665V23.4079H163.845ZM166.429 21.7852L170.082 21.797V19.1697H166.429V21.7852ZM166.429 17.5411H170.082V14.7921H166.429V17.5411ZM154.357 23.7423V9.96897L153.999 10.1498C153.625 10.3424 153.223 10.5174 152.81 10.6722V8.25882C154.535 6.9446 155.833 4.79716 156.251 2.54808H158.682C158.565 3.36711 157.721 6.11258 157.097 7.10061L157.068 7.14197L157.061 23.7423H154.357ZM158.859 11.0835H158.007V9.08022H161.422V20.6128L162.721 20.627V23.0533L158.859 23.0569V11.0835ZM159.921 7.87118L158.675 4.10696H160.965L162.259 7.87118H159.921Z" fill="white"/>
</g>
<mask id="mask34_303_3436" style="mask-type:luminance" maskUnits="userSpaceOnUse" x="-175" y="-1" width="601" height="164">
<path d="M425.314 -0.00118256H-174.315V162.413H425.314V-0.00118256Z" fill="white"/>
</mask>
<g mask="url(#mask34_303_3436)">
<path d="M192.193 3.02437V3.93795H186.694V3.02437H184.335V3.93795H179.363V5.84429H184.335V6.85005H186.694V5.84429H192.193V6.85005H194.635V5.84429H199.614V3.93795H194.635V3.02437H192.193Z" fill="white"/>
</g>
<mask id="mask35_303_3436" style="mask-type:luminance" maskUnits="userSpaceOnUse" x="-175" y="-1" width="601" height="164">
<path d="M425.314 -0.00118256H-174.315V162.413H425.314V-0.00118256Z" fill="white"/>
</mask>
<g mask="url(#mask35_303_3436)">
<path d="M190.751 6.59241H188.218V7.4788H179.362V7.84754V9.10622V9.29059H185.489C184.206 9.91579 182.832 10.4299 181.346 10.8069V12.0644V12.1554H187.398C185.167 13.0513 182.464 13.4507 180.123 13.9483V15.3807H199.045L197.947 12.1554H195.659L196.155 13.5429H189.162C191.982 12.6447 193.654 11.5799 196.829 9.92407H193.022C192.301 10.281 192.294 10.3909 191.566 10.6899H186.609C187.36 10.2869 187.725 10.0115 188.951 9.29059H199.613V7.4788H190.75V6.59241H190.751Z" fill="white"/>
</g>
<mask id="mask36_303_3436" style="mask-type:luminance" maskUnits="userSpaceOnUse" x="-175" y="-1" width="601" height="164">
<path d="M425.314 -0.00118256H-174.315V162.413H425.314V-0.00118256Z" fill="white"/>
</mask>
<g mask="url(#mask36_303_3436)">
<path d="M180.484 23.6525H198.492V16.2529H180.484V23.6525ZM190.987 17.7503H195.752V19.2856H190.987V17.7503ZM190.987 20.822H195.752V22.2071H190.987V20.822ZM183.121 17.7503H187.888V19.2856H183.121V17.7503ZM183.121 20.822H187.888V22.2071H183.121V20.822Z" fill="white"/>
</g>
<path d="M3.25097 21.9979H10.8054L10.4345 24.0047H2.87885L3.25097 21.9979ZM12.9389 21.9979H20.5158L20.1437 23.9728H12.568L12.9389 21.9979ZM24.6504 0L23.5411 5.98375H13.8107L11.5721 17.982H1.88183L0 28.0089H9.66548L7.43162 40H27.7773L30.0407 28.0207H37.3105L38.0559 24.0177L28.6314 24.0047L26.3775 36.0112H10.3022L10.6649 34.0328H24.6173L26.8772 21.9979L38.428 22.0074L39.2065 18.0198L25.5387 18.008L23.2742 30.0097H11.4185L11.7883 28.0006L21.5199 28.0313L23.4017 18.008L13.6902 17.982L14.0635 15.9728H28.0159L29.1654 9.98316L40.6914 9.97252L41.4474 5.95893L27.7998 5.98375L26.6539 11.9829H14.8184L15.1905 9.99498H24.9115L26.0195 3.98168H41.8278L42.5957 0H24.6504Z" fill="white"/>
</g>
<defs>
<clipPath id="clip0_303_3436">
<rect width="251" height="40" fill="white"/>
</clipPath>
</defs>
</svg>
