<svg width="142" height="40" viewBox="0 0 142 40" fill="none" xmlns="http://www.w3.org/2000/svg">
<g clip-path="url(#clip0_303_3592)">
<path d="M30.7939 15.2344L30.9474 15.106C33.991 12.614 37.6484 12.8452 38.8505 12.9994C38.3646 11.5607 36.165 6.78227 29.643 6.78227C25.96 6.78227 23.5303 8.76044 22.1747 10.4046C20.5634 12.3571 20.1542 14.6692 20.0774 15.8767C19.5403 21.5543 16.5223 24.2775 16.1898 24.5857C12.8138 27.386 9.36095 27.0263 8.13328 26.7694C8.72154 28.2852 11.1001 33.1663 17.571 32.9865C20.1286 32.9094 22.4049 31.9075 24.2976 29.9807C26.4204 27.8484 26.8808 24.5087 26.9831 23.5324C27.469 18.6769 29.7965 16.1079 30.7939 15.2344ZM47.0094 5.98587C47.0094 4.88118 46.1653 4.21323 46.1653 4.21323L41.1268 0.282596C41.1268 0.282596 40.1037 -0.565188 40.1037 0.745024V16.4162C40.1037 16.4419 40.1037 16.596 40.1037 16.8272C40.1037 18.009 39.8224 21.5543 36.7788 24.1747C33.0958 27.3346 29.1826 27.0263 27.8015 26.8208C28.5432 28.3109 31.2799 33.0636 37.495 33.0636C43.2241 33.0636 47.0605 28.0026 47.0605 23.2755C47.0349 23.2241 47.0349 14.1554 47.0094 5.98587ZM10.2561 15.5684C13.9135 12.4085 17.8523 12.7168 19.2334 12.948C18.5173 11.4579 15.7806 6.73089 9.56556 6.73089C3.83646 6.7052 0 11.7662 0 16.4933C0 16.4933 0 25.8446 0 34.0141C0 35.1188 0.84402 35.7868 0.84402 35.7868L5.90814 39.7174C5.90814 39.7174 6.9312 40.5652 6.9312 39.255V23.3269C6.9312 23.3012 6.9312 23.1471 6.9312 22.9159C6.9312 21.7341 7.18696 18.2145 10.2561 15.5684Z" fill="white"/>
<path d="M61.4089 12.0488C61.3833 12.0745 60.2835 16.4419 58.2886 19.5504L58.1863 19.7046L59.9766 20.9891L60.1045 20.8092C62.3041 17.4695 63.3016 13.0764 63.3271 13.0507L63.3527 12.8966L61.4601 11.7662M61.3578 11.201L61.4856 11.3809L63.0458 10.0193L62.9179 9.86513C61.1787 7.68144 59.2093 6.65382 59.1326 6.60244L59.0303 6.55106L57.5469 7.80989L57.7515 7.96403C57.7515 7.98972 60.3347 9.81374 61.3578 11.201ZM75.5526 4.41875L75.4503 4.2903C74.5552 3.03147 73.1485 2.00385 73.0973 1.95247L72.9694 1.8754L71.3837 3.08285L71.5883 3.23699C71.6139 3.23699 72.4579 4.00771 72.995 4.54721H70.821V1.72126H68.7493V4.54721H63.0969L63.0714 4.8298C61.7414 3.51959 60.4626 2.74888 60.4114 2.72319L60.2835 2.64611L58.6978 3.90495L58.928 4.05909C58.9536 4.08478 61.1531 5.65189 62.4575 7.19332L62.5854 7.34746C62.5854 7.34746 63.634 6.57675 63.7364 6.49968H68.8005V7.63006H64.0177V21.2717H66.0382V16.262H68.8261V20.7322H70.8977V16.262H73.7111V19.0623C73.6344 19.1137 73.3531 19.2421 71.8952 19.2421H71.6139L72.3044 21.246H73.6856C74.1459 21.246 74.6063 21.0662 74.99 20.7065C75.3992 20.3468 75.6549 19.9101 75.7061 19.422V7.60437H70.8977V6.4483H77.2407V4.52152H75.4503L75.5526 4.41875ZM68.7238 14.3353H65.9359V12.8452H68.7238V14.3353ZM68.7238 10.8927H65.9359V9.55684H68.7238V10.8927ZM73.6088 14.3353H70.7954V12.8452H73.6088V14.3353ZM73.6088 10.8927H70.7699V9.58253H73.6088V10.8927ZM92.2029 16.596C93.2771 15.3629 94.2234 13.7958 95.0163 11.9717V11.9461V10.4046H87.9572C88.0851 10.0706 88.3152 9.35132 88.392 9.17148H97.8041V7.2447H88.8523C89.0314 6.34554 89.2616 4.85549 89.5429 2.77457L89.5685 2.59473L87.6503 2.08092L87.6247 2.31214C87.3945 4.44444 87.1387 6.11432 86.8574 7.2447H83.8905C84.0951 6.75658 85.4251 3.41683 85.4251 3.41683L83.6348 2.46628L81.6142 7.50161V9.14579H86.3203C85.2461 13.3847 82.9442 16.6731 79.4402 18.9338L79.2612 19.0623L80.6679 20.7322L80.8214 20.6294C83.9161 18.3687 85.9878 15.8253 87.0364 13.0507C87.7526 14.438 88.5966 15.6455 89.5429 16.6731C88.0339 18.009 85.9111 19.0109 83.379 19.5504L83.0977 19.6275L84.2742 21.2974L84.3765 21.2717C86.9853 20.7579 89.1848 19.6532 90.9496 17.9833C92.433 19.0623 93.5072 19.7559 94.2234 20.1413C95.2464 20.6551 96.2439 21.0405 97.2925 21.2717L97.4204 21.2974L98.776 19.6789L98.4435 19.6018C96.0137 18.9852 93.9165 17.9833 92.2029 16.596ZM90.8473 15.2344C90.1823 14.5922 89.5173 13.6159 88.8268 12.3314H92.74C92.254 13.3847 91.6146 14.361 90.8473 15.2344ZM106.423 9.81374H108.674V7.88696H104.607C104.812 7.39884 104.965 7.01349 105.093 6.67951H108.879V4.75273H105.656C105.912 3.57097 105.912 2.62042 105.912 2.56904V2.4149L104.019 1.92678L103.994 2.18369C103.738 5.67759 102.587 8.29801 100.617 9.99358L100.464 10.122L101.692 11.6378H101.564V13.5645H104.377V18.5742C104.377 19.0109 104.3 19.3192 104.147 19.4733L104.045 19.5761L105.144 21.3487L108.955 19.3192V17.264C108.955 17.264 106.858 18.2916 106.398 18.5228V13.5389H109.007V11.6121H106.398V9.81374H106.423ZM104.403 11.6121H101.845L101.922 11.535C102.638 10.9184 103.175 10.3532 103.559 9.81374H104.403V11.6121ZM116.117 16.4933C117.242 15.7996 118.24 14.9004 119.032 13.7444L119.135 13.5902L117.728 12.4599H118.112V2.82595H109.339V18.7026C109.339 19.2164 109.211 19.3963 109.16 19.4477L109.032 19.5504L109.978 21.3231L114.505 19.6789V17.675C114.505 17.675 111.794 18.5999 111.36 18.7283V12.4599H112.715C112.894 14.361 113.508 16.0822 114.505 17.5979C115.554 19.1651 117.012 20.2184 118.879 20.7322L119.007 20.7836L120.388 19.0366L120.081 18.9595C118.188 18.4457 116.858 17.6236 116.117 16.4933ZM111.36 4.75273H116.142V6.62813H111.36V4.75273ZM111.36 8.50353H116.142V10.5331H111.36V8.50353ZM115.273 14.8748C114.94 14.1811 114.736 13.359 114.633 12.4599H117.523L117.472 12.5369C116.756 13.693 116.014 14.4637 115.273 14.8748ZM124.992 8.8632C126.654 7.68144 128.419 5.72897 130.158 3.05716L130.286 2.90302L128.726 1.66988L128.598 1.84971C127.166 4.13616 125.401 6.01156 123.38 7.42453L123.15 7.57868L124.864 8.94027L124.992 8.8632ZM130.823 8.50353V10.4303H136.169V19.0109C136.169 19.1908 136.092 19.2164 136.041 19.2421C135.99 19.2678 135.785 19.3192 134.992 19.3192C134.302 19.3192 133.662 19.2935 133.048 19.2421L132.767 19.2164L133.406 21.246L134.711 21.2717C135.657 21.2717 136.348 21.2203 136.782 21.1432C137.243 21.0405 137.601 20.8092 137.882 20.4496C138.138 20.0899 138.266 19.6789 138.266 19.2164V10.4817H142V8.52922H130.823V8.50353ZM131.181 7.83558L129.57 6.75658L129.468 6.91073C127.473 9.78805 125.324 11.8947 123.099 13.1792L122.894 13.3076L124.429 14.9004C124.429 14.9004 126.117 13.693 126.577 13.359V21.1946H128.572V11.4066C129.902 9.81374 130.772 8.68337 131.104 8.01541L131.181 7.83558ZM140.721 5.3693V3.41683H131.335L131.36 5.3693H140.721ZM95.1697 6.96211L95.272 7.14194L96.9345 5.9088L96.8322 5.75466C95.2464 3.51959 93.3794 2.20938 93.3282 2.158L93.2259 2.05523L91.6146 3.2113L91.8192 3.39114C91.8192 3.39114 94.0955 5.3693 95.1697 6.96211Z" fill="white"/>
<path d="M126.117 35.6326L125.938 35.35C125.657 34.9647 119.518 25.9473 119.032 25.2537H117.114V37.2511H118.444V26.8722L118.649 27.1548C118.905 27.5401 125.12 36.5575 125.606 37.2511H127.473V25.2537H126.143M132.486 30.8542L132.409 30.7771L132.486 30.7001C132.537 30.6487 137.345 26.2042 138.394 25.2537H136.578C136.143 25.6647 131.181 30.3661 130.951 30.5716L130.772 30.7258V25.2537H129.442V37.2511H130.772V30.9313L130.951 31.1111C131.181 31.3423 136.45 36.7887 136.885 37.2511H138.854C137.806 36.2235 132.537 30.9056 132.486 30.8542ZM66.1661 30.623C64.7594 30.1863 63.4294 29.7752 63.4294 28.2338C63.4294 27.4631 63.9665 26.1785 66.0127 26.1785C66.8822 26.1785 67.7263 26.5639 68.2122 27.1805C68.2889 27.1291 69.1585 26.307 69.312 26.1785C68.5703 25.3308 67.5217 24.9454 66.0127 24.9454C63.0969 24.9454 62.0227 26.9493 62.0227 28.2338C62.0227 30.8285 63.8898 31.4194 65.5267 31.9589C66.8311 32.3699 68.0843 32.781 68.0843 34.1426C68.0843 35.684 66.5498 36.3777 65.45 36.3777C64.3758 36.3777 63.4039 35.9152 62.8156 35.1188C62.6877 35.2216 61.8437 35.9666 61.7158 36.0694C62.4831 37.0199 63.8131 37.5851 65.3988 37.5851C67.803 37.5851 69.5166 36.0694 69.5166 33.9371C69.491 31.6249 67.803 31.1111 66.1661 30.623ZM75.5015 25.2537H71.3325V37.2511H72.6625V31.8048H75.5015C78.9031 31.8048 79.2612 29.5183 79.2612 28.5164C79.2612 27.5401 78.8776 25.2537 75.5015 25.2537ZM75.0155 30.7001H72.6625V26.3841H75.0155C75.7061 26.3841 77.8289 26.3841 77.8289 28.5421C77.8289 30.7001 75.7061 30.7001 75.0155 30.7001ZM84.6322 25.2537H80.5144V37.2511H84.3509C86.3459 37.2511 88.0339 36.6089 89.236 35.4014C90.3102 34.3224 90.8985 32.8324 90.8985 31.2396C90.924 30.6487 90.745 25.2537 84.6322 25.2537ZM84.1207 36.018H81.8444V26.4611H84.5299C89.3639 26.4611 89.5173 30.7514 89.5173 31.2396C89.4918 34.5536 86.8062 36.018 84.1207 36.018ZM101.155 30.8285C102.433 30.3918 103.15 29.3899 103.15 28.1824C103.15 26.3584 101.82 25.2794 99.5944 25.2794H95.5022V37.2511H99.5433C102.024 37.2511 103.687 35.9409 103.687 33.9884C103.687 32.4727 102.536 30.9056 101.155 30.8285ZM96.8066 26.3584H99.62C101.18 26.3584 101.743 27.386 101.743 28.3365C101.743 29.6211 100.848 30.3661 99.2619 30.3661H96.8066V26.3584ZM99.441 36.1207H96.8066V31.4965H99.441C101.231 31.4965 102.254 32.3699 102.254 33.86C102.28 35.9666 100.106 36.1207 99.441 36.1207ZM109.39 25.2537C109.339 25.3821 104.249 36.9942 104.121 37.2511H105.682C105.733 37.1227 106.909 34.194 106.909 34.194H112.996C112.996 34.194 114.199 37.1227 114.224 37.2511H115.784C115.656 36.9685 110.72 25.3565 110.669 25.2537H109.39ZM107.37 33.0893L109.978 26.718L112.536 33.0893H107.37Z" fill="white"/>
</g>
<defs>
<clipPath id="clip0_303_3592">
<rect width="142" height="40" fill="white"/>
</clipPath>
</defs>
</svg>
