<svg width="171" height="40" viewBox="0 0 171 40" fill="none" xmlns="http://www.w3.org/2000/svg">
<g clip-path="url(#clip0_385_652)">
<path d="M34.7101 27.5223C31.9679 32.8446 26.4164 36.4931 20.0241 36.4931C10.9185 36.4931 3.51226 29.0943 3.51226 20.0005C3.51226 10.9067 10.9185 3.50862 20.0241 3.50862C26.52 3.50862 32.1505 7.27505 34.8435 12.739C35.5865 12.1358 36.4247 11.6438 37.3275 11.2875C34.1292 4.97532 27.5765 0.63623 20.0241 0.63623C9.33299 0.63623 0.636719 9.32289 0.636719 20.0005C0.636719 30.6772 9.33299 39.3638 20.0241 39.3638C27.4533 39.3638 33.9169 35.1622 37.1721 29.0213C36.2727 28.6438 35.4447 28.1373 34.7101 27.5223Z" fill="white"/>
<path d="M43.9797 18.7135C43.6918 17.2832 42.6702 16.261 40.9114 16.261C39.235 16.261 38.0477 17.1204 37.6401 18.7135H43.9797ZM41.24 24.107C43.0379 24.107 44.1011 23.4097 44.879 22.7573L47.3333 25.2098C46.0654 26.5594 44.2234 27.5392 41.319 27.5392C36.452 27.5392 33.3438 24.4335 33.3438 20.1844C33.3438 15.9352 36.6566 12.8288 40.9114 12.8288C45.8192 12.8288 48.6021 16.7114 48.2743 21.5739H37.5976C38.0061 23.1255 39.1934 24.107 41.24 24.107Z" fill="white"/>
<path d="M85.2219 20.1842C85.2219 17.9362 83.9124 16.3024 81.7859 16.3024C79.6585 16.3024 78.349 17.9362 78.349 20.1842C78.349 22.4305 79.6585 24.066 81.7859 24.066C83.9124 24.066 85.2219 22.4305 85.2219 20.1842ZM74.1367 20.1842C74.1367 15.935 77.4904 12.8286 81.7859 12.8286C86.0788 12.8286 89.435 15.935 89.435 20.1842C89.435 24.4333 86.0788 27.5389 81.7859 27.5389C77.4904 27.5389 74.1367 24.4333 74.1367 20.1842Z" fill="white"/>
<path d="M108.18 20.1842C108.18 17.8955 106.993 16.4237 104.908 16.4237C102.821 16.4237 101.553 17.8955 101.553 20.1842C101.553 22.4729 102.821 23.943 104.908 23.943C106.993 23.943 108.18 22.4729 108.18 20.1842ZM97.3398 20.1842C97.3398 15.935 100.203 12.8286 103.843 12.8286C105.972 12.8286 107.319 13.5632 108.098 14.7907V13.1967H112.189V27.1717H108.098V25.5785C107.319 26.8035 105.972 27.5389 103.843 27.5389C100.203 27.5389 97.3398 24.4333 97.3398 20.1842Z" fill="white"/>
<path d="M8.52344 13.1962C9.07799 14.1523 9.40156 15.2627 9.40326 16.4452L9.40759 16.45V27.17H13.4975V19.6515C13.4975 17.5673 14.3986 16.506 16.2389 16.506C17.9561 16.506 18.4894 17.4451 18.4894 19.0391V27.17H22.5785V19.6515C22.5785 17.5673 23.4804 16.506 25.319 16.506C27.0379 16.506 27.5704 17.4451 27.5704 19.0391V27.17H31.6612V18.631C31.6612 15.1157 29.6961 12.8278 26.4647 12.8278C24.2167 12.8278 22.5785 13.5624 21.393 15.1971C20.6168 13.6456 19.3072 12.8278 17.4262 12.8278C15.7081 12.8278 14.3561 13.4411 13.4975 14.7899V13.1951H9.40759L8.52344 13.1962Z" fill="white"/>
<path d="M57.2362 23.9435C55.1504 23.9435 53.801 22.4717 53.801 20.1847C53.801 17.8951 55.1504 16.4233 57.2362 16.4233C59.3245 16.4233 60.5915 17.8951 60.5915 20.1847C60.5915 22.4717 59.3245 23.9435 57.2362 23.9435ZM60.5117 5.42761H60.5083H59.6285C60.1831 6.38281 60.5058 7.4907 60.5083 8.67491V14.7912C59.7313 13.5628 58.2994 12.8282 56.1721 12.8282C52.5322 12.8282 49.5879 15.9355 49.5879 20.1847C49.5879 24.433 52.5322 27.5394 56.1721 27.5394C58.2994 27.5394 59.7313 26.804 60.5083 25.579V27.1713H64.5992V5.42761H60.5117Z" fill="white"/>
<path d="M69.9594 10.5756C71.3513 10.5756 72.5369 9.47281 72.5369 8.00185C72.5369 6.53175 71.3513 5.4281 69.9594 5.4281C68.6091 5.4281 67.3828 6.53175 67.3828 8.00185C67.3828 9.47281 68.6091 10.5756 69.9594 10.5756Z" fill="white"/>
<path d="M67.9229 13.1963H67.0371C67.5781 14.1286 67.8948 15.2025 67.9144 16.3511V27.1712H72.0044V13.1963H67.9229Z" fill="white"/>
<path d="M91.4126 5.42792H91.4029H90.5273C91.0624 6.34832 91.3783 7.41039 91.4029 8.54372V27.1725H95.4937V5.42792H91.4126Z" fill="white"/>
<path d="M123.727 12.8289C121.763 12.8289 120.251 13.4829 119.349 14.9938V13.1962H115.259H114.373C114.928 14.1522 115.251 15.261 115.255 16.4444L115.258 16.4516V27.1716H119.348V19.6531C119.348 17.5688 120.452 16.5076 122.417 16.5076C124.093 16.5076 124.911 17.4466 124.911 18.9999V27.1716H129.003V18.714C129.003 14.9942 126.836 12.8289 123.727 12.8289Z" fill="white"/>
<path d="M139.863 13.1963C140.417 14.1523 140.742 15.2602 140.743 16.4453L140.746 16.4469V20.7971C140.746 22.9212 139.969 23.9841 138.087 23.9841C136.204 23.9841 135.428 22.9212 135.428 20.7971V13.1963H131.338H130.451C131.007 14.1523 131.33 15.2602 131.333 16.4453L131.337 16.4501V20.9173C131.337 25.0858 133.586 27.5382 137.923 27.5382C142.258 27.5382 144.834 25.0858 144.834 20.9173V13.1951H140.748H140.746L139.863 13.1963Z" fill="white"/>
<path d="M147.225 13.1962C147.779 14.1523 148.101 15.2627 148.104 16.4452L148.109 16.45V27.17H152.199V19.6515C152.199 17.5673 153.1 16.506 154.941 16.506C156.658 16.506 157.19 17.4451 157.19 19.0391V27.17H161.282V19.6515C161.282 17.5673 162.181 16.506 164.021 16.506C165.74 16.506 166.271 17.4451 166.271 19.0391V27.17H170.363V18.631C170.363 15.1157 168.398 12.8278 165.168 12.8278C162.917 12.8278 161.282 13.5624 160.095 15.1971C159.318 13.6456 158.009 12.8278 156.127 12.8278C154.41 12.8278 153.058 13.4411 152.199 14.7899V13.1951H148.109L147.225 13.1962Z" fill="white"/>
<path d="M139.382 9.08766C139.94 9.08766 140.271 8.87121 140.271 8.39627C140.271 7.91188 139.899 7.68541 139.28 7.68541H137.71V9.08766H139.382ZM139.144 6.43755C139.569 6.43755 139.919 6.14829 139.919 5.7869C139.919 5.44674 139.662 5.17866 139.268 5.17866H137.71V6.43755H139.144ZM141.633 8.52011C141.633 9.65515 140.684 10.4076 139.28 10.4076H136.316V5.34406C136.316 4.60096 136.027 4.11658 135.697 3.8587H139.268C140.487 3.8587 141.282 4.6629 141.282 5.66391C141.282 6.15847 141.014 6.6844 140.559 6.90156C141.2 7.21034 141.633 7.86013 141.633 8.52011Z" fill="white"/>
<path d="M145.453 5.7151L144.72 7.48974H146.166L145.453 5.7151ZM144.204 8.75796L143.523 10.4079H142.025L144.307 5.09582C144.462 4.59108 144.307 4.07533 144.008 3.85901H146.062L148.851 10.4079H147.353L146.682 8.75796H144.204Z" fill="white"/>
<path d="M155.698 10.4077H154.707L151.042 6.2926V10.4077H149.647V5.34334C149.647 4.60108 149.358 4.09549 149.049 3.85883H150.638L154.305 7.99429V5.34334C154.305 4.60108 154.004 4.1167 153.684 3.85883H155.698V10.4077Z" fill="white"/>
<path d="M163.101 9.2114C162.472 10.0165 161.481 10.5314 160.21 10.5314C158.238 10.5314 156.689 9.03581 156.689 7.12797C156.689 5.2303 158.238 3.73474 160.21 3.73474C161.491 3.73474 162.565 4.40489 163.049 5.03433L161.966 5.92169L161.563 6.24149C161.625 5.82835 161.408 5.43644 161.027 5.26083L161.078 5.28248C160.809 5.16874 160.52 5.09685 160.21 5.09685C159.044 5.09685 158.135 5.99432 158.135 7.12852C158.135 8.27288 159.044 9.17038 160.21 9.17038C161.016 9.17038 161.563 8.77846 161.966 8.31443L163.101 9.2114Z" fill="white"/>
<path d="M166.933 5.7151L166.201 7.48974H167.647L166.933 5.7151ZM165.684 8.75796L165.003 10.4079H163.506L165.788 5.09582C165.942 4.59108 165.788 4.07533 165.488 3.85901H167.542L170.33 10.4079H168.833L168.162 8.75796H165.684Z" fill="white"/>
</g>
<defs>
<clipPath id="clip0_385_652">
<rect width="171" height="40" fill="white"/>
</clipPath>
</defs>
</svg>
