<svg width="138" height="40" viewBox="0 0 138 40" fill="none" xmlns="http://www.w3.org/2000/svg">
<path d="M7.88081 32.2116H9.43645C10.0404 32.2116 12.566 32.2116 12.566 30.0228C12.566 29.3479 12.2183 27.7793 9.50965 27.7793H7.88081V32.2116ZM7.88081 24.8974H8.8874C9.61946 24.8974 11.5594 24.8974 11.5594 23.0917C11.5594 22.0885 10.9372 21.2859 9.16192 21.2859H7.88081V24.8974ZM4.76953 18.3858H8.08212C9.94889 18.3858 11.7974 18.3858 13.2432 19.6626C14.0851 20.4104 14.6707 21.6325 14.6707 22.7816C14.6707 24.8792 13.3164 25.6817 12.7856 25.9736C13.902 26.3748 15.659 27.3051 15.659 30.1322C15.659 32.1386 14.5975 33.3972 13.5726 34.1085C12.2915 34.984 10.3332 35.0935 9.23513 35.0935H4.76953V18.3858Z" fill="white"/>
<path d="M22.2845 27.8887H26.1462L24.2428 22.7633H24.2062L22.2845 27.8887ZM23.0166 18.3858H25.4324L32.4602 35.1117H29.0378L27.2443 30.8071H21.2414L19.4478 35.1117H16.0254L23.0166 18.3858Z" fill="white"/>
<path d="M33.7793 18.3858H37.3115L44.2478 30.5518H44.3027V18.3858H47.3957V35.1117H43.9367L36.9272 22.964H36.8906V35.1117H33.7793V18.3858Z" fill="white"/>
<path d="M65.7874 30.4606C64.4696 33.5249 61.2486 35.4583 58.0275 35.4583C53.1775 35.4583 49.2793 31.409 49.2793 26.6849C49.2793 22.0702 53.1043 18.0575 57.9543 18.0575C60.7544 18.0575 64.25 19.4984 65.8606 23.1646H62.3284C61.1204 21.7784 59.6929 20.9576 57.8445 20.9576C55.1358 20.9576 52.3723 23.4017 52.3723 26.7396C52.3723 29.8769 54.9894 32.5764 57.9543 32.5764C60.2054 32.5764 61.4316 31.2631 62.1636 30.4788H65.7874V30.4606Z" fill="white"/>
<path d="M75.2685 32.5581C78.4713 32.5581 80.942 29.8769 80.942 26.7761C80.942 23.5659 78.4347 20.9394 75.2685 20.9394C72.1206 20.9394 69.595 23.5659 69.595 26.7761C69.595 29.8769 72.0657 32.5581 75.2685 32.5581ZM75.2685 18.0575C80.0269 18.0575 84.035 21.8513 84.035 26.7943C84.035 31.5914 80.0818 35.44 75.2685 35.44C70.4369 35.44 66.502 31.5732 66.502 26.7943C66.4837 21.8513 70.5101 18.0575 75.2685 18.0575Z" fill="white"/>
<path d="M94.009 32.2116H95.5646C96.1869 32.2116 98.6942 32.2116 98.6942 30.0228C98.6942 29.3479 98.3465 27.7793 95.6378 27.7793H94.009V32.2116ZM94.009 24.8974H95.0156C95.7476 24.8974 97.6876 24.8974 97.6876 23.0917C97.6876 22.0885 97.0654 21.2859 95.2901 21.2859H93.9907V24.8974H94.009ZM90.916 18.3858H94.2286C96.0954 18.3858 97.9438 18.3858 99.3897 19.6626C100.232 20.4104 100.817 21.6325 100.817 22.7816C100.817 24.8792 99.4629 25.6817 98.9504 25.9736C100.049 26.3748 101.824 27.3051 101.824 30.1322C101.824 32.1386 100.744 33.3972 99.7374 34.1085C98.4746 34.984 96.498 35.0935 95.3999 35.0935H90.916V18.3858Z" fill="white"/>
<path d="M106.748 25.8459H107.755C109.091 25.8459 111.268 25.7547 111.268 23.5659C111.268 21.3771 109.146 21.2859 107.864 21.2859H106.748V25.8459ZM103.637 18.3858H107.864C109.64 18.3858 111.195 18.3858 112.788 19.7173C113.867 20.7022 114.38 21.9973 114.38 23.5477C114.38 25.1163 113.886 26.3931 112.788 27.3963C111.195 28.7278 109.658 28.7278 107.864 28.7278H106.748V35.0935H103.637V18.3858Z" fill="white"/>
<path d="M115.678 18.3858H119.997L124.463 31.0442H124.499L128.91 18.3858H133.229V35.1117H130.118V22.5627H130.099H130.063L125.78 35.1117H123.145L118.844 22.5627H118.789V35.1117H115.678V18.3858Z" fill="white"/>
<mask id="mask0_383_504" style="mask-type:luminance" maskUnits="userSpaceOnUse" x="34" y="2" width="73" height="13">
<path d="M34.8574 14.3365L53.6715 14.3C60.0039 9.13817 68.7886 5.94619 78.4885 5.94619C88.1334 5.94619 96.8633 9.10169 103.196 14.2088H106.856C99.0229 7.1865 85.8457 2.57182 70.9299 2.57182C55.9043 2.57182 42.6722 7.24122 34.8574 14.3365Z" fill="white"/>
</mask>
<g mask="url(#mask0_383_504)">
<path d="M106.856 2.57182H34.8574V14.3548H106.856V2.57182Z" fill="white"/>
</g>
</svg>
