<?xml version="1.0" encoding="UTF-8" standalone="no"?>
<!-- Created with Inkscape (http://www.inkscape.org/) -->

<svg
   xmlns:dc="http://purl.org/dc/elements/1.1/"
   xmlns:cc="http://creativecommons.org/ns#"
   xmlns:rdf="http://www.w3.org/1999/02/22-rdf-syntax-ns#"
   xmlns:svg="http://www.w3.org/2000/svg"
   xmlns="http://www.w3.org/2000/svg"
   xmlns:sodipodi="http://sodipodi.sourceforge.net/DTD/sodipodi-0.dtd"
   xmlns:inkscape="http://www.inkscape.org/namespaces/inkscape"
   width="268.47372"
   height="62.870651"
   viewBox="0 0 71.033675 16.634526"
   version="1.1"
   id="svg6806"
   inkscape:version="0.92.0 r15299"
   sodipodi:docname="banca mediolanum.svg">
  <defs
     id="defs6800">
    <clipPath
       id="clipPath6473"
       clipPathUnits="userSpaceOnUse">
      <path
         inkscape:connector-curvature="0"
         id="path6471"
         d="m 359.918,192.472 h 199.853 v 45.653 H 359.918 Z" />
    </clipPath>
  </defs>
  <sodipodi:namedview
     id="base"
     pagecolor="#ffffff"
     bordercolor="#666666"
     borderopacity="1.0"
     inkscape:pageopacity="0.0"
     inkscape:pageshadow="2"
     inkscape:zoom="1.575527"
     inkscape:cx="192.391"
     inkscape:cy="-9.9382107"
     inkscape:document-units="mm"
     inkscape:current-layer="layer1"
     showgrid="false"
     fit-margin-top="0"
     fit-margin-left="0"
     fit-margin-right="0"
     fit-margin-bottom="0"
     units="px"
     inkscape:window-width="1280"
     inkscape:window-height="744"
     inkscape:window-x="-4"
     inkscape:window-y="-4"
     inkscape:window-maximized="1" />
  <metadata
     id="metadata6803">
    <rdf:RDF>
      <cc:Work
         rdf:about="">
        <dc:format>image/svg+xml</dc:format>
        <dc:type
           rdf:resource="http://purl.org/dc/dcmitype/StillImage" />
        <dc:title></dc:title>
      </cc:Work>
    </rdf:RDF>
  </metadata>
  <g
     inkscape:label="Layer 1"
     inkscape:groupmode="layer"
     id="layer1"
     transform="translate(-69.825286,-165.7591)">
    <g
       id="g7025"
       transform="translate(0.26458445,-0.26457577)">
      <path
         d="m 83.979436,177.4692 c -1.139119,2.21333 -3.445228,3.73062 -6.100586,3.73062 -3.782483,0 -6.859058,-3.07692 -6.859058,-6.8587 0,-3.78178 3.076575,-6.85835 6.859058,-6.85835 2.698397,0 5.037314,1.56633 6.155972,3.83857 0.308681,-0.25082 0.656872,-0.45543 1.031875,-0.6036 -1.328561,-2.62502 -4.050594,-4.42948 -7.187847,-4.42948 -4.441119,0 -8.053564,3.61245 -8.053564,8.05286 0,4.44006 3.612445,8.0525 8.053564,8.0525 3.0861,0 5.771092,-1.7473 7.123289,-4.30106 -0.373592,-0.15699 -0.71755,-0.3676 -1.022703,-0.62336"
         style="fill:#1e96d7;fill-opacity:1;fill-rule:nonzero;stroke:none;stroke-width:0.35277778"
         id="path6477"
         inkscape:connector-curvature="0" />
      <g
         style="fill:#192d6e;fill-opacity:1"
         id="g7005">
        <path
           inkscape:connector-curvature="0"
           id="path6481"
           style="fill:#192d6e;fill-opacity:1;fill-rule:nonzero;stroke:none;stroke-width:0.35277778"
           d="m 87.830006,173.80592 c -0.119592,-0.59478 -0.543983,-1.01988 -1.274586,-1.01988 -0.696383,0 -1.189567,0.35736 -1.3589,1.01988 z m -1.138061,2.24296 c 0.74683,0 1.188508,-0.28998 1.511653,-0.56127 l 1.019527,1.01988 c -0.526697,0.56127 -1.291872,0.96873 -2.498372,0.96873 -2.021769,0 -3.312936,-1.29152 -3.312936,-3.05858 0,-1.76707 1.376186,-3.05894 3.143603,-3.05894 2.038703,0 3.194755,1.61466 3.058583,3.63679 h -4.435122 c 0.169686,0.64523 0.662869,1.05339 1.513064,1.05339" />
        <path
           inkscape:connector-curvature="0"
           id="path6485"
           style="fill:#192d6e;fill-opacity:1;fill-rule:nonzero;stroke:none;stroke-width:0.35277778"
           d="m 104.9622,174.41753 c 0,-0.93486 -0.54398,-1.61431 -1.42734,-1.61431 -0.88371,0 -1.42769,0.67945 -1.42769,1.61431 0,0.93416 0.54398,1.61431 1.42769,1.61431 0.88336,0 1.42734,-0.68015 1.42734,-1.61431 m -4.60481,0 c 0,-1.76706 1.39312,-3.05894 3.17747,-3.05894 1.78329,0 3.17747,1.29188 3.17747,3.05894 0,1.76706 -1.39418,3.05858 -3.17747,3.05858 -1.78435,0 -3.17747,-1.29152 -3.17747,-3.05858" />
        <path
           inkscape:connector-curvature="0"
           id="path6489"
           style="fill:#192d6e;fill-opacity:1;fill-rule:nonzero;stroke:none;stroke-width:0.35277778"
           d="m 114.49912,174.41753 c 0,-0.95179 -0.49318,-1.56386 -1.35925,-1.56386 -0.86713,0 -1.39383,0.61207 -1.39383,1.56386 0,0.95179 0.5267,1.56316 1.39383,1.56316 0.86607,0 1.35925,-0.61137 1.35925,-1.56316 m -4.50321,0 c 0,-1.76706 1.18922,-3.05894 2.70157,-3.05894 0.88407,0 1.44392,0.30551 1.76742,0.81598 v -0.66287 h 1.69933 v 5.81166 h -1.69933 v -0.66252 c -0.3235,0.50941 -0.88335,0.81527 -1.76742,0.81527 -1.51235,0 -2.70157,-1.29152 -2.70157,-3.05858" />
        <path
           inkscape:connector-curvature="0"
           id="path6493"
           style="fill:#192d6e;fill-opacity:1;fill-rule:nonzero;stroke:none;stroke-width:0.35277778"
           d="m 73.101534,171.51152 c 0.230364,0.39758 0.364772,0.85937 0.365478,1.35114 l 0.0018,0.002 v 4.45805 h 1.698977 v -3.12667 c 0,-0.86677 0.374298,-1.3081 1.138767,-1.3081 0.713317,0 0.934861,0.39053 0.934861,1.0534 v 3.38137 h 1.698625 v -3.12667 c 0,-0.86677 0.37465,-1.3081 1.138414,-1.3081 0.714022,0 0.935214,0.39053 0.935214,1.0534 v 3.38137 H 82.713 v -3.55106 c 0,-1.46191 -0.816327,-2.41335 -2.158647,-2.41335 -0.933803,0 -1.614311,0.3055 -2.106789,0.98531 -0.322439,-0.64524 -0.866422,-0.98531 -1.647825,-0.98531 -0.713669,0 -1.275291,0.25506 -1.63195,0.81597 v -0.66322 h -1.698977 z" />
        <path
           inkscape:connector-curvature="0"
           id="path6497"
           style="fill:#192d6e;fill-opacity:1;fill-rule:nonzero;stroke:none;stroke-width:0.35277778"
           d="m 93.336867,175.9809 c -0.866422,0 -1.426986,-0.61207 -1.426986,-1.56316 0,-0.95215 0.560564,-1.56421 1.426986,-1.56421 0.867481,0 1.393825,0.61206 1.393825,1.56421 0,0.95109 -0.526344,1.56316 -1.393825,1.56316 m 1.360664,-7.70008 h -0.0014 -0.365478 c 0.230364,0.39723 0.364419,0.85796 0.365478,1.35043 v 2.54353 c -0.322792,-0.51082 -0.917575,-0.81633 -1.801284,-0.81633 -1.512005,0 -2.735086,1.29223 -2.735086,3.05929 0,1.76671 1.223081,3.05858 2.735086,3.05858 0.883709,0 1.478492,-0.30585 1.801284,-0.81526 v 0.66216 h 1.69933 v -9.0424 z" />
        <path
           inkscape:connector-curvature="0"
           id="path6501"
           style="fill:#192d6e;fill-opacity:1;fill-rule:nonzero;stroke:none;stroke-width:0.35277778"
           d="m 98.622395,170.42168 c 0.578203,0 1.070681,-0.45861 1.070681,-1.07033 0,-0.61136 -0.492478,-1.07033 -1.070681,-1.07033 -0.560917,0 -1.070328,0.45897 -1.070328,1.07033 0,0.61172 0.509411,1.07033 1.070328,1.07033" />
        <path
           inkscape:connector-curvature="0"
           id="path6505"
           style="fill:#192d6e;fill-opacity:1;fill-rule:nonzero;stroke:none;stroke-width:0.35277778"
           d="m 97.776151,171.51152 h -0.367947 c 0.224719,0.3877 0.356305,0.83432 0.364419,1.31198 v 4.49968 h 1.698978 v -5.81166 z" />
        <path
           inkscape:connector-curvature="0"
           id="path6509"
           style="fill:#192d6e;fill-opacity:1;fill-rule:nonzero;stroke:none;stroke-width:0.35277778"
           d="m 107.53398,168.28096 h -0.004 -0.36372 c 0.22225,0.38276 0.35349,0.82444 0.36372,1.29575 v 7.747 h 1.69933 v -9.04275 z" />
        <path
           inkscape:connector-curvature="0"
           id="path6513"
           style="fill:#192d6e;fill-opacity:1;fill-rule:nonzero;stroke:none;stroke-width:0.35277778"
           d="m 120.95718,171.35873 c -0.81562,0 -1.44392,0.27199 -1.81857,0.90029 v -0.74754 h -1.69898 -0.36794 c 0.23071,0.39758 0.36477,0.85866 0.36653,1.35079 l 0.001,0.003 v 4.45805 h 1.69898 v -3.12667 c 0,-0.86677 0.45861,-1.3081 1.27494,-1.3081 0.69638,0 1.03611,0.39053 1.03611,1.03647 v 3.3983 h 1.69968 v -3.51719 c 0,-1.54693 -0.90064,-2.44722 -2.19216,-2.44722" />
        <path
           inkscape:connector-curvature="0"
           id="path6517"
           style="fill:#192d6e;fill-opacity:1;fill-rule:nonzero;stroke:none;stroke-width:0.35277778"
           d="m 127.66038,171.51152 c 0.23001,0.39758 0.36477,0.85831 0.36548,1.35114 l 0.001,7e-4 v 1.80905 c 0,0.88335 -0.32279,1.32538 -1.10455,1.32538 -0.78211,0 -1.10455,-0.44203 -1.10455,-1.32538 v -3.16089 h -1.69897 -0.3683 c 0.23107,0.39758 0.36512,0.85831 0.36618,1.35114 l 0.002,0.002 v 1.85773 c 0,1.73355 0.93415,2.75343 2.73544,2.75343 1.80093,0 2.8709,-1.01988 2.8709,-2.75343 v -3.21134 h -1.69721 -0.001 z" />
        <path
           inkscape:connector-curvature="0"
           id="path6521"
           style="fill:#192d6e;fill-opacity:1;fill-rule:nonzero;stroke:none;stroke-width:0.35277778"
           d="m 130.71812,171.51152 c 0.23036,0.39758 0.36407,0.85937 0.36548,1.35114 l 0.002,0.002 v 4.45805 h 1.69898 v -3.12667 c 0,-0.86677 0.3743,-1.3081 1.13877,-1.3081 0.71331,0 0.9345,0.39053 0.9345,1.0534 v 3.38137 h 1.69969 v -3.12667 c 0,-0.86677 0.37359,-1.3081 1.13771,-1.3081 0.71437,0 0.93486,0.39053 0.93486,1.0534 v 3.38137 h 1.69968 v -3.55106 c 0,-1.46191 -0.81633,-2.41335 -2.15794,-2.41335 -0.93522,0 -1.61431,0.3055 -2.1075,0.98531 -0.32279,-0.64524 -0.86642,-0.98531 -1.64817,-0.98531 -0.71332,0 -1.27494,0.25506 -1.6316,0.81597 v -0.66322 h -1.69898 z" />
        <path
           inkscape:connector-curvature="0"
           id="path6525"
           style="fill:#192d6e;fill-opacity:1;fill-rule:nonzero;stroke:none;stroke-width:0.35277778"
           d="m 127.46018,169.80288 c 0.23177,0 0.36901,-0.09 0.36901,-0.28751 0,-0.20144 -0.15452,-0.29563 -0.41134,-0.29563 h -0.65229 v 0.58314 z m -0.0988,-1.10208 c 0.17639,0 0.32174,-0.12029 0.32174,-0.27058 0,-0.14146 -0.10654,-0.25294 -0.27023,-0.25294 h -0.64735 v 0.52352 z m 1.03399,0.86607 c 0,0.47202 -0.3944,0.78493 -0.97754,0.78493 h -1.23155 v -2.10573 c 0,-0.30903 -0.11994,-0.51047 -0.25682,-0.61771 h 1.48343 c 0.50623,0 0.83643,0.33443 0.83643,0.75071 0,0.20567 -0.11147,0.42439 -0.30021,0.5147 0.26635,0.12841 0.44626,0.39864 0.44626,0.6731" />
        <path
           inkscape:connector-curvature="0"
           id="path6529"
           style="fill:#192d6e;fill-opacity:1;fill-rule:nonzero;stroke:none;stroke-width:0.35277778"
           d="m 129.98254,168.40037 -0.30445,0.73801 h 0.60078 z m -0.51894,1.26541 -0.28292,0.68616 h -0.62195 l 0.94791,-2.2091 c 0.0642,-0.2099 0,-0.42439 -0.12453,-0.51435 h 0.85337 l 1.15852,2.72345 h -0.6223 l -0.27869,-0.68616 z" />
        <path
           inkscape:connector-curvature="0"
           id="path6533"
           style="fill:#192d6e;fill-opacity:1;fill-rule:nonzero;stroke:none;stroke-width:0.35277778"
           d="m 134.23792,170.35187 h -0.41169 l -1.52224,-1.71132 v 1.71132 h -0.57961 v -2.10608 c 0,-0.30868 -0.11995,-0.51894 -0.24836,-0.61736 h 0.66005 l 1.52329,1.71979 v -1.10243 c 0,-0.30868 -0.12488,-0.51012 -0.25788,-0.61736 h 0.83644 z" />
        <path
           inkscape:connector-curvature="0"
           id="path6537"
           style="fill:#192d6e;fill-opacity:1;fill-rule:nonzero;stroke:none;stroke-width:0.35277778"
           d="m 137.31368,169.85435 c -0.26141,0.33479 -0.6731,0.54892 -1.20086,0.54892 -0.81915,0 -1.46261,-0.62194 -1.46261,-1.41534 0,-0.78917 0.64346,-1.41111 1.46261,-1.41111 0.53199,0 0.9779,0.27869 1.17934,0.54045 l -0.45014,0.36901 -0.16722,0.133 c 0.0257,-0.17181 -0.0646,-0.33479 -0.22296,-0.40782 l 0.0212,0.009 c -0.11148,-0.0473 -0.23142,-0.0772 -0.36019,-0.0772 -0.48471,0 -0.86218,0.37323 -0.86218,0.8449 0,0.4759 0.37747,0.84913 0.86218,0.84913 0.33444,0 0.56198,-0.16298 0.7292,-0.35595 z" />
        <path
           inkscape:connector-curvature="0"
           id="path6541"
           style="fill:#192d6e;fill-opacity:1;fill-rule:nonzero;stroke:none;stroke-width:0.35277778"
           d="m 138.90538,168.40037 -0.30445,0.73801 h 0.60078 z m -0.51894,1.26541 -0.28292,0.68616 h -0.62195 l 0.94791,-2.2091 c 0.0642,-0.2099 0,-0.42439 -0.12453,-0.51435 h 0.85337 l 1.15817,2.72345 h -0.62195 l -0.27869,-0.68616 z" />
      </g>
    </g>
  </g>
</svg>
