<svg width="169" height="40" viewBox="0 0 169 40" fill="none" xmlns="http://www.w3.org/2000/svg">
<g opacity="0.25">
<path d="M40.0244 9H0V31.6839H40.0244V9Z" fill="white"/>
</g>
<path d="M40.0244 40H0V0H40.0244V40Z" fill="url(#paint0_linear_385_632)"/>
<path d="M15.7253 35.2631C15.7438 35.2483 15.9546 35.0967 16.1914 34.9267C16.9275 34.4054 17.7783 33.6919 17.7117 33.655C17.6969 33.6476 17.6081 33.6254 17.5193 33.6143C17.253 33.5736 16.6057 33.3814 16.2062 33.2224C15.7771 33.0524 15.618 32.971 15.7142 32.9673C16.1211 32.96 17.6932 32.7529 18.4367 32.6087L18.9287 32.5126L19.1285 32.2871C19.4207 31.9544 19.9534 31.2853 20.3972 30.6864C20.6118 30.398 20.8004 30.1688 20.8115 30.1762C20.8263 30.1836 20.8485 30.3278 20.8596 30.4978C20.904 31.045 21.0039 31.7104 21.0409 31.7104C21.1593 31.7104 22.7018 30.8195 23.4009 30.35C23.6155 30.2058 23.793 30.106 23.8004 30.1245C23.8152 30.1688 23.2567 30.7788 22.7795 31.2335C22.3763 31.618 21.7659 32.1503 21.4034 32.4239L21.1704 32.6014L21.1926 32.8343C21.2111 33.0265 21.2813 33.3296 21.3886 33.7067C21.4108 33.788 21.2665 33.8102 20.4046 33.8398L19.687 33.8657L19.3874 34.0246C18.5588 34.4646 17.3159 34.923 16.2431 35.1855C15.7845 35.2964 15.6661 35.3148 15.7253 35.2631ZM9.29991 34.2575C8.70435 33.7104 8.0792 32.8269 7.58722 31.8435L7.2728 31.215L7.00646 31.1004C6.39981 30.838 5.35296 30.2539 4.53915 29.7289L4.26172 29.5514L4.55765 29.411C5.00154 29.2002 5.586 28.9747 6.0003 28.8564C6.20375 28.7973 6.38871 28.7455 6.4109 28.7344C6.4368 28.7234 6.4368 28.6272 6.4035 28.4128C6.27404 27.5921 6.30363 25.8213 6.46639 24.4978C6.50708 24.1836 6.53667 23.91 6.53667 23.8953C6.53667 23.8805 6.55147 23.8731 6.56996 23.8842C6.58846 23.8953 6.61435 23.984 6.62915 24.0801C6.68094 24.4239 6.98427 25.5662 7.16922 26.1097C7.38377 26.7381 7.6871 27.4405 7.94603 27.899C8.21977 28.3832 8.14579 28.35 8.68216 28.2465C9.11865 28.1651 10.4096 27.9692 10.8794 27.9137L11.0977 27.8879L10.9497 28.106C10.5835 28.6457 10.1433 29.4849 9.90286 30.106L9.79929 30.3758L10.0656 30.6161C10.6501 31.1448 11.708 31.8435 12.692 32.3574L13.1433 32.5903H12.9768C12.47 32.594 10.5243 32.3056 9.88807 32.1319C9.70311 32.0838 9.52925 32.0357 9.49966 32.0283C9.45897 32.0173 9.44048 32.0579 9.43308 32.1836C9.41458 32.4572 9.49596 33.7659 9.55885 34.1392C9.58844 34.3315 9.61063 34.4904 9.60324 34.4978C9.58474 34.5089 9.45157 34.4017 9.29991 34.2575ZM7.03975 22.1097C7.01386 22.0838 7.15812 21.7954 7.50584 21.1744C8.40102 19.5736 9.61433 17.8287 10.6501 16.6531C10.8091 16.4757 10.9386 16.313 10.9386 16.2982C10.9386 16.191 10.369 15.8916 9.81039 15.7067C9.22223 15.5108 8.68216 15.3888 7.96083 15.2927C7.18402 15.1892 7.16182 15.1781 7.46145 15.0819C7.86835 14.9489 8.71545 14.7492 9.20003 14.6679C10.258 14.4978 10.6205 14.472 11.9781 14.4646L13.295 14.4572L13.4762 14.3241C14.0718 13.8879 15.0002 13.3777 15.7882 13.0524C16.2764 12.8527 16.9349 12.6309 16.9756 12.6531C16.9904 12.6605 16.9201 12.801 16.8239 12.9599C16.4355 13.5847 15.9361 14.6975 16.0212 14.7455C16.0471 14.7603 16.1729 14.7825 16.306 14.7973C17.2641 14.9008 18.7585 15.3333 20.0939 15.8916C20.904 16.2317 22.3652 16.9858 22.306 17.0339C22.2912 17.0487 22.0544 17.0302 21.777 16.9932C21.1556 16.9082 19.946 16.7899 19.1876 16.7344C18.4441 16.6827 16.8461 16.6827 16.3023 16.7381C15.7216 16.7936 15.1519 16.9119 15.0779 16.9895C14.8449 17.2335 14.0903 19.7215 13.8054 21.1744C13.7536 21.4479 13.6908 21.7622 13.6686 21.8731L13.6316 22.0727L13.4873 21.7437C13.1211 20.923 12.581 19.337 12.3221 18.3389C12.2629 18.1097 12.2 17.9248 12.1815 17.9248C12.1334 17.9248 11.5046 18.3648 10.9756 18.7677C10.0138 19.4997 8.9115 20.4313 7.94603 21.3296C7.19881 22.0173 7.06195 22.1319 7.03975 22.1097ZM32.6006 17.9174C32.5895 17.8879 32.571 17.5293 32.5599 17.1226C32.5044 15.1855 32.2085 13.3444 31.7424 12.0062C31.576 11.5293 31.391 11.1152 31.3466 11.1152C31.3281 11.1152 31.243 11.1633 31.158 11.2187C30.5439 11.6365 25.761 14.1134 25.7166 14.0394C25.7055 14.0209 25.7832 13.9063 25.8904 13.788C26.6709 12.9378 28.1839 10.9932 28.4317 10.5274L28.4798 10.4387L27.7067 10.4646C25.3467 10.5422 22.5908 10.8453 20.6562 11.2409C20.412 11.289 20.2123 11.3148 20.2012 11.2964C20.1753 11.2557 20.8855 10.9119 21.6845 10.5829C23.5933 9.78805 26.2566 8.98952 28.317 8.59026C28.5871 8.53851 28.8164 8.49414 28.8312 8.49414C28.8682 8.49414 28.3392 8.0801 27.9915 7.8398C26.9299 7.10043 25.0655 6.01725 23.486 5.22612C23.0199 4.99322 23.0643 4.95995 23.7264 5.03758C24.6919 5.15219 25.8941 5.374 27.1592 5.66975C29.5193 6.22058 31.3762 6.88971 32.3824 7.55514L32.6857 7.75477L33.0482 7.68084C33.7917 7.52557 35.6931 7.34073 35.7671 7.41466C35.804 7.45163 35.5229 7.93592 35.2751 8.25755C35.0235 8.58287 34.5796 9.01171 34.2837 9.21873L34.0211 9.39988L34.0433 9.86198C34.0988 11.0302 33.9175 12.9082 33.5957 14.52C33.3219 15.8546 32.6672 18.1097 32.6006 17.9174Z" fill="white"/>
<path d="M49.9707 19.6459V18.7027H108.229H166.487V19.6459V20.5891H108.229H49.9707V19.6459Z" fill="#E20613"/>
<path d="M53.924 16.086C53.7513 16.0832 52.7945 16.0639 51.7993 16.0473C50.8041 16.0307 49.9871 16.0114 49.9817 16.0086C49.9762 16.0059 49.9872 15.6163 50.0009 15.1493C50.0173 14.6796 50.0365 13.9971 50.0447 13.6323C50.0529 13.2676 50.0667 12.7592 50.0749 12.4994C50.0968 11.8584 50.0941 8.11709 50.0749 7.33235C50.02 5.2821 50.0036 4.75158 49.9872 4.39513L49.9707 4L53.4772 4.00829L56.9809 4.01658L57.3236 4.08013C58.2996 4.2625 59.0453 4.62447 59.5854 5.17434C59.8705 5.46447 60.0569 5.75736 60.1831 6.11933C60.2626 6.34591 60.268 6.39012 60.268 6.7217C60.268 6.97591 60.2543 7.13065 60.2187 7.25775C60.0871 7.74406 59.8733 8.1088 59.5004 8.49011C59.0809 8.9184 58.6478 9.1809 58.0528 9.37432L57.7842 9.45998L58.1351 9.59261C58.8918 9.87998 59.5004 10.2392 59.9418 10.6647C60.597 11.2947 60.8876 11.9993 60.8493 12.8531C60.8136 13.5964 60.5532 14.1794 60.0103 14.7182C59.3962 15.3289 58.5655 15.7351 57.4716 15.9589C56.8274 16.0943 55.9418 16.1247 53.924 16.086ZM55.6183 14.5829C55.9802 14.5442 56.2599 14.4806 56.534 14.3784C56.8685 14.2513 57.0577 14.1325 57.2962 13.8921C57.6389 13.5494 57.7869 13.1902 57.8088 12.6486C57.8253 12.2646 57.7814 12.0408 57.6334 11.7562C57.3455 11.2063 56.7424 10.8139 55.8486 10.5984C55.643 10.5487 55.5004 10.5404 54.7547 10.5293C54.1297 10.521 53.8966 10.5072 53.8966 10.4851C53.8966 10.4685 54.0337 10.0734 54.2037 9.60642L54.5107 8.7609L55.0316 8.74432C55.8102 8.72222 56.2242 8.6034 56.6355 8.29393C57.0357 7.98998 57.2139 7.59209 57.2139 7.01736C57.2112 6.56144 57.1097 6.30446 56.8164 6.00328C56.534 5.71591 56.1255 5.53355 55.5416 5.42578C55.1194 5.34842 54.4258 5.31802 53.7596 5.34289L53.1427 5.36776L53.1262 5.65789C53.0577 6.77696 53.0358 8.05906 53.0358 10.5763C53.0358 12.0739 53.0467 13.5936 53.0605 13.9529L53.0824 14.6105H54.2229C54.8507 14.6105 55.4785 14.5994 55.6183 14.5829ZM62.9986 15.9036C62.9986 15.7931 63.0096 15.3372 63.0261 14.8868C63.0644 13.7208 63.1302 11.1372 63.1522 10.0375C63.1741 8.94603 63.1302 7.23288 63.0096 4.42L62.9904 4L64.5339 4.00829L66.0774 4.01658L68.4242 7.69709C69.7155 9.71971 70.7765 11.3721 70.782 11.3665C70.7874 11.361 70.7792 11.0046 70.76 10.5735C70.6887 8.78577 70.6723 8.34367 70.5928 6.35144C70.5489 5.20473 70.5105 4.20724 70.5105 4.13539V4.00276H71.8841H73.2576L73.2411 4.16303C73.2137 4.41171 73.1479 5.60815 73.115 6.37907C73.0986 6.76591 73.0794 7.19696 73.0739 7.33235C73.0383 8.01485 73.0273 10.8554 73.0575 11.9192C73.1013 13.4721 73.1808 15.246 73.2411 15.9202L73.2576 16.1081H72.1473H71.0369L70.4283 15.1603C68.7888 12.61 67.4372 10.5155 66.9054 9.70313C66.3488 8.84656 65.9349 8.12814 65.6497 7.52854L65.5456 7.30749L65.5593 10.0568C65.5702 12.5575 65.5867 13.3146 65.6744 15.6163L65.6936 16.1081H64.3475H63.0014L62.9986 15.9036ZM76.1719 15.7378C76.1883 15.3786 76.2432 13.4997 76.298 11.4052C76.3336 10.0568 76.3336 8.5288 76.298 7.48156C76.2514 6.10828 76.1911 4.49737 76.1719 4.24316L76.1554 4H77.7401H79.3247L79.3055 4.44763C79.2562 5.69657 79.2287 8.98748 79.2424 11.5683C79.2534 13.1101 79.2671 14.3784 79.2753 14.3867C79.3 14.4115 82.1869 14.3922 83.0011 14.359C84.1005 14.3148 85.1396 14.2236 85.3808 14.149C85.4247 14.1352 85.4302 14.1932 85.4302 15.1161V16.0998H80.7942H76.1582L76.1719 15.7378Z" fill="white"/>
<path d="M50.0088 24.4055C50.0944 25.6144 50.1611 28.6509 50.1611 29.7646C50.1611 30.7832 50.1516 34.2005 49.9897 35.6759L49.9707 35.7997H55.3204C57.9285 35.7997 60.7272 34.9716 60.7272 32.649C60.7272 31.183 59.6705 30.1073 57.6905 29.5171C59.1374 29.1364 60.1274 28.1179 60.1274 26.9661C60.1274 25.0718 57.938 24.3484 55.8915 24.3008H49.9897V24.415L50.0088 24.4055ZM54.14 25.5763C56.377 25.5763 57.2051 26.0428 57.2051 27.2612C57.2051 27.5848 57.11 27.8704 56.91 28.1084C56.4816 28.6224 55.6345 28.8794 54.5779 28.8318H54.5303L53.9115 30.45H54.5303C55.7582 30.4119 56.8339 30.8023 57.3764 31.4685C57.6335 31.7827 57.7573 32.1349 57.7573 32.5061C57.7573 33.7911 56.6435 34.4384 54.4351 34.4384C54.0638 34.4384 53.4642 34.4384 53.0833 34.4099C53.0072 32.7251 52.9978 30.431 52.9978 29.7551C52.9978 28.9555 53.0358 27.1565 53.0833 25.6334C53.3308 25.5858 53.7497 25.5573 54.14 25.5573" fill="white"/>
<path d="M73.062 24.2907H70.4633L70.5681 27.1845C70.6156 28.6314 70.6633 30.1068 70.7585 31.5251C70.5776 31.0873 70.4348 30.8493 69.6637 29.707C69.6352 29.6689 66.9413 25.4996 65.999 24.3193L65.9704 24.2907H62.9434V24.4049C63.0385 25.6139 63.1052 28.6504 63.1052 29.7641C63.1052 30.7827 63.1052 34.1999 62.9434 35.6849V35.8086H65.6182V35.6945C65.4563 32.8769 65.4563 30.0402 65.4563 27.2987C65.5515 27.6224 65.6753 27.9174 66.1036 28.5457C66.1513 28.6123 70.768 35.3518 70.9964 35.7611L71.0249 35.8086H73.1858L73.1668 35.6849C73.0145 34.2095 72.9954 30.7827 72.9954 29.7641C72.9954 28.6409 73.062 25.6043 73.1477 24.4049V24.2907H73.062Z" fill="white"/>
<path d="M76.1948 24.3959C76.2805 25.6143 76.3471 28.6413 76.3471 29.7645C76.3471 30.7831 76.3376 34.2004 76.1758 35.6758V35.7901H79.3741V35.6758C79.2504 34.6192 79.2123 32.6012 79.1932 31.0402C79.3266 31.0402 79.7834 31.0687 79.7834 31.0687L80.2309 31.0877C84.4477 31.0877 86.5039 29.955 86.5039 27.6228C86.5039 24.9575 83.6291 24.3388 81.2208 24.2816H76.1948V24.3959ZM80.1166 25.6714C81.6111 25.6429 82.6677 25.957 83.1722 26.5757C83.4006 26.8613 83.5149 27.2135 83.5149 27.6228C83.5149 29.2886 81.6492 29.6408 80.088 29.6408L79.4503 29.6218C79.4503 29.6218 79.298 29.6027 79.1932 29.5838C79.1932 29.2029 79.1838 28.7079 79.1838 28.1273C79.1838 27.3943 79.1932 26.5472 79.2218 25.7476C79.4218 25.7095 79.7739 25.6809 80.1166 25.6714Z" fill="white"/>
<path d="M92.6147 24.3959C92.7004 25.6143 92.767 28.6413 92.767 29.7645C92.767 30.7831 92.7575 34.2004 92.5957 35.6758V35.7901H95.794L95.775 35.6758C95.6703 34.6192 95.6226 32.6012 95.6132 31.0402C95.7464 31.0402 96.1938 31.0687 96.1938 31.0687L96.6508 31.0877C100.868 31.0877 102.924 29.955 102.924 27.6228C102.924 24.9575 100.049 24.3388 97.6312 24.2816H92.6052V24.3959H92.6147ZM96.546 25.6714C98.05 25.6429 99.0971 25.957 99.6111 26.5757C99.8396 26.8613 99.9538 27.2135 99.9538 27.6228C99.9538 29.2886 98.0881 29.6408 96.5174 29.6408L95.8797 29.6218C95.8797 29.6218 95.7274 29.6027 95.6322 29.5838C95.6226 29.2029 95.6132 28.6985 95.6132 28.1178C95.6132 27.3848 95.6322 26.5472 95.6608 25.7476C95.8607 25.7095 96.2033 25.6809 96.546 25.6714Z" fill="white"/>
<path d="M107.227 24.2912H107.17L107.151 24.3483C106.551 25.9855 102.725 34.3528 102.125 35.6378L102.049 35.7901H104.8L104.819 35.7235C105.057 34.9333 105.361 34.0481 105.733 33.0867C105.828 33.0867 107.998 33.0487 107.998 33.0487L109.873 33.0676C109.873 33.0676 110.207 33.0771 110.283 33.0771C110.778 34.3146 111.149 35.257 111.311 35.7235L111.33 35.7901H114.509L109.388 24.2816H107.237L107.227 24.2912ZM107.998 27.6799C108.255 28.2225 108.912 29.7645 109.654 31.5827C109.54 31.5827 109.407 31.5827 109.407 31.5827L107.998 31.6018C107.998 31.6018 106.542 31.5732 106.313 31.5732C106.913 30.1168 107.494 28.7936 107.998 27.6799Z" fill="white"/>
<path d="M115.766 24.3959C115.851 25.6048 115.918 28.6413 115.918 29.7551C115.918 30.7736 115.908 34.1908 115.746 35.6663V35.7901H118.936V35.6663C118.764 34.1814 118.754 30.7641 118.754 29.7456C118.754 28.946 118.792 27.1469 118.85 25.7285C119.116 25.7 119.469 25.6619 119.716 25.6619C121.211 25.6333 122.277 25.9475 122.772 26.5662C123 26.8518 123.123 27.1945 123.123 27.6133C123.123 28.9365 121.867 29.6122 120.716 29.6789C120.335 29.6979 120.039 29.6408 120.039 29.6408L119.82 29.6027L119.964 29.8122C121.087 31.478 122.79 34.3717 123.514 35.7425L123.542 35.7901H126.979L126.874 35.6188C126.76 35.4283 124.504 32.1348 123.552 30.7259C123.552 30.7259 123.514 30.6784 123.495 30.6404C125.236 30.1168 126.103 29.1268 126.103 27.6133C126.103 24.948 123.219 24.3292 120.81 24.2816H115.784L115.795 24.3864L115.766 24.3959Z" fill="white"/>
<path d="M131.512 24.2816H128.437V24.3959C128.542 25.6143 128.599 28.6508 128.599 29.7645C128.599 30.7831 128.59 34.2004 128.428 35.6758V35.7901H131.616V35.6758C131.445 34.1909 131.436 30.7736 131.436 29.7645C131.436 28.6508 131.502 25.6143 131.587 24.3959V24.2816H131.512Z" fill="white"/>
<path d="M134.509 24.4049C134.594 25.6139 134.661 28.6504 134.661 29.7641C134.661 30.7827 134.652 34.1999 134.49 35.6754V35.7991H139.83C142.448 35.7991 145.237 34.971 145.237 32.6389C145.237 31.1729 144.181 30.0973 142.201 29.5071C143.657 29.1263 144.647 28.1078 144.647 26.956C144.647 25.0617 142.467 24.3383 140.41 24.2907H134.509L134.518 24.4049H134.509ZM138.64 25.5758C140.867 25.5758 141.706 26.0422 141.706 27.2606C141.706 27.5843 141.601 27.8698 141.4 28.1078C140.982 28.6218 140.125 28.8788 139.069 28.8313H139.011L138.403 30.4495H139.031C140.268 30.4114 141.324 30.8017 141.877 31.468C142.134 31.7821 142.257 32.1344 142.257 32.5056C142.257 33.7906 141.144 34.4379 138.945 34.4379C138.574 34.4379 137.964 34.4379 137.584 34.4094C137.508 32.7246 137.508 30.4305 137.508 29.7546C137.508 28.9455 137.546 27.1559 137.602 25.6329C137.841 25.5853 138.269 25.5567 138.65 25.5567" fill="white"/>
<path d="M153.11 24.2821H150.959L150.94 24.3487C150.311 26.0907 146.247 34.9147 145.914 35.6382L145.838 35.7906H148.589L148.608 35.7238C148.846 34.9338 149.15 34.0485 149.512 33.0871C149.607 33.0871 151.778 33.0491 151.778 33.0491L153.652 33.0776C153.652 33.0776 153.976 33.0776 154.062 33.0776C154.557 34.3151 154.919 35.2479 155.081 35.7238L155.099 35.781H158.279L153.158 24.2726H153.11V24.2821ZM151.787 27.6708C152.044 28.2134 152.701 29.7554 153.443 31.5641C153.329 31.5641 153.205 31.5736 153.205 31.5736L151.787 31.5927C151.787 31.5927 150.331 31.5641 150.102 31.5641C150.693 30.0982 151.283 28.7845 151.787 27.6708Z" fill="white"/>
<path d="M159.171 27.2711C159.171 29.2987 161.209 30.1173 163.008 30.8407C164.407 31.4024 165.844 31.9926 165.844 32.954C165.844 33.249 165.777 33.4775 165.626 33.6584C165.293 34.0581 164.607 34.22 163.522 34.1724C162.465 34.1248 161.257 33.7822 159.914 33.1538L159.353 32.8969V33.3442V35.4098L159.714 35.4861L159.933 35.5336C160.609 35.6954 161.885 36 163.179 36C166.558 36 168.576 34.6579 168.576 32.4304C168.576 30.3553 166.492 29.5271 164.654 28.7941C163.293 28.2516 161.894 27.69 161.894 26.8142C161.894 26.5572 161.894 25.7862 163.636 25.7862C164.931 25.7862 166.206 26.3192 166.891 26.5953L167.548 26.8713V26.4335V24.3393L166.891 24.2251C166.245 24.1013 165.149 23.8919 164.017 23.8919C161.113 23.8919 159.162 25.2531 159.162 27.2711" fill="white"/>
<defs>
<linearGradient id="paint0_linear_385_632" x1="20.0109" y1="0" x2="20.0109" y2="40" gradientUnits="userSpaceOnUse">
<stop stop-color="#057B5B"/>
<stop offset="1" stop-color="#04A47B"/>
</linearGradient>
</defs>
</svg>
