<svg width="168" height="40" viewBox="0 0 168 40" fill="none" xmlns="http://www.w3.org/2000/svg">
<g clip-path="url(#clip0_383_519)">
<path d="M83.7275 23.3333H99.2421V15.641H83.7275V8.20513H102.063V0H74.6239V40H102.961V31.7949H83.7275V23.3333ZM25.1311 18.8462C27.9519 17.6923 30.2599 14.1026 30.2599 10.1282C30.2599 4.10256 26.7979 0 18.4637 0H0V40H18.7201C26.9262 40 31.7985 35.7692 31.7985 28.3333C31.9267 23.3333 29.6188 20 25.1311 18.8462ZM9.10361 7.82051H17.1815C20.2587 7.82051 21.1563 8.71795 21.1563 11.7949C21.1563 14.6154 19.7458 16.0256 17.1815 16.0256H9.10361V7.82051ZM17.0532 32.0513H9.10361V23.0769H17.5661C20.7716 23.0769 22.182 24.2308 22.182 27.3077C22.3102 30.641 20.2587 32.0513 17.0532 32.0513ZM54.6216 0H38.3377V40H47.4413V7.94872H54.7499C58.2118 7.94872 59.494 9.23077 59.494 13.0769C59.494 17.3077 56.6732 19.8718 51.4161 19.8718H49.6211L51.1597 26.9231H52.8266C62.9559 26.9231 68.854 21.1538 68.854 13.4615C68.9823 4.61538 65.5203 0 54.6216 0ZM141.17 12.3077C141.042 4.10256 136.682 0 127.579 0H110.525V40H119.629V25.3846H126.297L133.605 39.8718H144.119L134.503 23.5897C138.862 21.4103 141.17 16.6667 141.17 12.3077ZM127.066 18.0769H119.757V7.82051H127.322C130.656 7.82051 131.682 9.10256 131.682 12.1795C131.682 15.641 130.528 18.0769 127.066 18.0769Z" fill="white"/>
<path d="M166.173 14.359C168.61 11.9231 168.61 4.35897 166.173 1.92308C163.737 -0.512821 156.172 -0.512821 153.864 1.92308C151.428 4.35897 151.428 11.9231 153.864 14.359C156.3 16.7949 163.737 16.7949 166.173 14.359Z" fill="white"/>
<path d="M153.864 25.641C151.428 28.0769 151.428 35.641 153.864 38.0769C156.3 40.5128 163.865 40.5128 166.173 38.0769C168.481 35.641 168.61 28.0769 166.173 25.641C163.737 23.0769 156.3 23.0769 153.864 25.641Z" fill="white"/>
</g>
<defs>
<clipPath id="clip0_383_519">
<rect width="168" height="40" fill="white"/>
</clipPath>
</defs>
</svg>
