<svg width="80" height="40" viewBox="0 0 80 40" fill="none" xmlns="http://www.w3.org/2000/svg">
<g clip-path="url(#clip0_385_633)">
<path d="M0 5.51743C0 2.48261 2.48261 0 5.51763 0H34.4836C37.5182 0 40.0005 2.48261 40.0005 5.51743V34.4831C40.0005 37.5176 37.5182 40 34.4836 40H5.51763C2.48261 40 0 37.5176 0 34.4831V5.51743Z" fill="#00421E"/>
<path d="M40 5.51724C40 2.48242 42.4822 0 45.5176 0H74.4836C77.518 0 80.0005 2.48242 80.0005 5.51724V34.4831C80.0005 37.5176 77.518 40 74.4836 40H45.5176C42.4822 40 40 37.5176 40 34.4831V5.51724Z" fill="#00421E"/>
<path d="M24.0389 19.0341C24.0357 17.4819 22.9213 16.8394 21.3414 16.8368H19.4327L17.582 23.2449H17.5941H20.2187C21.8925 23.2449 23.3977 22.0383 23.8842 20.1365C23.9887 19.7275 24.0389 19.3606 24.0389 19.0341ZM20.9313 18.8424C21.5328 18.8435 21.878 19.0812 21.8795 19.6328C21.8795 19.7711 21.8568 19.9297 21.8112 20.1096C21.5967 20.9448 20.9824 21.2976 20.2979 21.2985H20.0974L20.8105 18.8424H20.9313Z" fill="#FFF047"/>
<path d="M11.4031 20.7551C12.0895 20.6407 13.078 20.7015 13.5685 19.0648C13.6353 18.8409 13.6673 18.6356 13.6673 18.4475C13.6673 17.302 12.519 16.8123 11.4206 16.8108H9.11017L7.23828 23.2537H7.25032H9.1525L9.77452 21.1555L10.1941 23.2469L12.3452 23.2537L11.6312 21.2048C11.5704 21.0274 11.4821 20.8513 11.4031 20.7551ZM10.687 18.3179H10.8376C11.1493 18.3182 11.5811 18.331 11.5819 18.7372C11.5819 18.7946 11.5726 18.8592 11.5544 18.935C11.4182 19.4744 10.8481 19.4949 10.5089 19.4949H10.3235L10.687 18.3179Z" fill="#FFF047"/>
<path d="M34.6546 16.7957L32.6627 19.6898L32.7112 16.8208L30.2881 16.8117L28.3691 23.2532L28.3812 23.2539L30.2166 23.2724L31.3344 19.7295C31.3381 19.7593 31.3387 19.7991 31.3387 19.8466C31.3387 20.5768 30.9539 23.2389 30.9539 23.2434H30.9631V23.2451H31.1349L32.2472 23.2541L34.2226 19.7346L33.2038 23.2541H35.1767L37.0966 16.7959L34.6546 16.7957ZM30.9631 23.2349C30.9631 23.2349 30.9646 23.2281 30.9661 23.2174C30.9661 23.2234 30.9646 23.231 30.9639 23.2349H30.9631Z" fill="#FFF047"/>
<path d="M7.20401 21.0005C7.20401 21.0005 7.20326 21.0023 7.20231 21.0055L7.1993 21.0016C7.10805 21.055 7.00006 21.1049 6.89676 21.145C6.66101 21.2351 6.42225 21.2787 6.19723 21.2787C5.66646 21.2787 5.2119 21.0394 5.05366 20.6251C5.01415 20.5229 4.99515 20.4166 4.99515 20.3092C4.99515 19.7965 5.42018 19.2563 6.0755 19.0052C6.30203 18.9177 6.5278 18.8774 6.74154 18.8774C7.12781 18.8774 7.47137 19.0112 7.69884 19.2392L7.71031 19.2513L8.38539 17.0031C7.92687 16.8046 7.40928 16.7002 6.8755 16.7002C5.96016 16.7002 4.9944 17.007 4.21904 17.7305C3.35525 18.5355 2.90821 19.624 2.90821 20.6262C2.90671 21.3352 3.13173 22.0022 3.59251 22.4959C4.09505 23.0349 4.79985 23.2994 5.55696 23.2994C5.89469 23.2994 6.24219 23.247 6.58801 23.1435L6.58481 23.1344L6.59403 23.1374C6.59403 23.1359 6.74756 22.6061 6.90203 22.0746C6.97879 21.8089 7.05706 21.5436 7.11501 21.344C7.14455 21.2449 7.16882 21.1615 7.18557 21.1038C7.19479 21.075 7.20081 21.0522 7.20533 21.0366C7.20852 21.0294 7.20984 21.0234 7.21135 21.0187C7.21135 21.0187 7.21135 21.0172 7.2121 21.0155L7.23882 21.0005H7.20401Z" fill="#FFF047"/>
<path d="M26.5853 20.7946L28.1766 20.802L28.7019 19.2477H27.0445L27.2103 18.5783L29.0099 18.5856L29.5369 16.7988H25.5162L23.6543 23.2342H23.6663H27.7023L28.2109 21.5113H26.3672L26.5853 20.7946Z" fill="#FFF047"/>
<path d="M15.9095 20.8089L17.5008 20.8149L18.0263 19.2614H16.3688L16.5345 18.5924L18.334 18.5991L18.8612 16.8123H14.8404L12.9785 23.2479H12.9906H17.0271L17.5351 21.5258H15.6905L15.9095 20.8089Z" fill="#FFF047"/>
<path fill-rule="evenodd" clip-rule="evenodd" d="M40.0009 34.4826C39.9347 33.9923 39.1426 27.9014 39.1426 20.0189C39.1426 12.1239 39.9371 5.99515 40.0009 5.51688C40.0649 5.99515 40.8592 12.1239 40.8592 20.0189C40.8592 27.9016 40.0669 33.9923 40.0009 34.4826Z" fill="#FFF047"/>
<path d="M51.399 19.7365C51.2931 19.763 51.2863 19.7698 51.2863 19.7896C51.2863 19.8093 51.2993 19.8093 51.4186 19.8227C52.279 19.9087 52.583 20.4643 52.583 20.9408C52.583 21.3245 52.3909 21.7811 51.9145 22.0392C51.65 22.1847 51.2462 22.2509 50.8628 22.2509C50.7433 22.2509 50.2075 22.2377 50.1015 22.2377C49.9362 22.2377 49.8039 22.2443 49.5059 22.2645C49.5523 21.5828 49.5655 21.3115 49.5655 20.2927C49.5655 19.4191 49.5523 18.5457 49.5059 17.6723C49.7444 17.6989 49.9759 17.6921 50.2142 17.6921C51.1802 17.6921 51.65 17.6987 51.9546 17.9105C52.2191 18.0959 52.3845 18.3871 52.3845 18.7045C52.3847 19.4787 51.6171 19.6836 51.399 19.7365ZM50.6711 17.9634C50.5388 17.9634 50.36 17.9766 50.2076 17.9965C50.1947 18.2676 50.1879 18.5587 50.1879 18.8366C50.1879 19.1147 50.1947 19.4055 50.2011 19.6904C50.6182 19.7102 50.7768 19.7034 50.9885 19.6573C51.4387 19.5581 51.6968 19.227 51.6968 18.7971C51.6967 18.2014 51.1937 17.9634 50.6711 17.9634ZM50.5915 19.9683C50.4656 19.9683 50.3798 19.9747 50.2011 19.9881C50.1947 20.3124 50.1879 20.6629 50.1879 20.9939C50.1879 21.3115 50.1947 21.6357 50.2076 21.9465C50.3269 21.9533 50.4065 21.9598 50.552 21.9598C50.7834 21.9598 51.174 21.9598 51.3856 21.8407C51.7761 21.6221 51.862 21.2718 51.862 20.9606C51.862 19.9881 50.9292 19.9683 50.5915 19.9683Z" fill="#FFF047"/>
<path d="M53.9276 20.5305C53.7954 20.8351 53.5308 21.4238 53.3122 22.2645C53.2328 22.2511 53.1667 22.2246 53.0413 22.2246C52.9154 22.2246 52.836 22.2511 52.75 22.2645C53.3389 20.9807 54.3182 18.8234 54.788 17.6324C54.8407 17.639 54.8808 17.6524 54.9534 17.6524C55.013 17.6524 55.0462 17.6456 55.0988 17.6324C55.6083 19.0221 57.0706 22.2377 57.084 22.2645C56.9715 22.2445 56.859 22.2246 56.6936 22.2246C56.5214 22.2246 56.3959 22.2443 56.2702 22.2645C56.0388 21.4703 55.7671 20.8947 55.6018 20.5305H53.9276ZM54.7549 18.5587L54.0601 20.1997H55.4695L54.7549 18.5587Z" fill="#FFF047"/>
<path d="M58.0317 19.2601C58.0518 20.8616 58.0783 21.2389 58.1378 22.2644C58.0584 22.2445 57.9788 22.2246 57.8597 22.2246C57.7402 22.2246 57.6811 22.2443 57.6016 22.2644C57.6347 21.9335 57.6875 20.7952 57.6875 20.1071C57.6875 19.8426 57.6678 18.6913 57.6678 18.4531V17.659C57.7073 17.6656 57.7404 17.6721 57.7735 17.6721C57.8136 17.6721 57.8531 17.6656 57.9128 17.659L58.1308 17.9171C58.3098 18.1222 58.4686 18.3009 58.8723 18.7244C60.1956 20.1205 60.3412 20.2795 61.1816 21.1329V20.888C61.1816 19.2008 61.1816 18.6185 61.0953 17.659C61.1683 17.6787 61.2479 17.6987 61.3534 17.6987C61.4594 17.6987 61.5519 17.6787 61.6383 17.659C61.5256 18.6117 61.5256 19.5713 61.5256 20.5241C61.5256 21.0404 61.5256 21.8341 61.5519 22.304C61.4991 22.2976 61.4659 22.291 61.4264 22.291C61.3933 22.291 61.3668 22.2976 61.3205 22.304C61.1156 22.0526 60.1231 20.9476 59.6597 20.5175C59.547 20.4118 59.4347 20.2991 59.3224 20.1865L58.0317 18.8434V19.2601Z" fill="#FFF047"/>
<path d="M66.5075 21.3775C66.4744 21.5301 66.4479 21.6688 66.4345 21.9136C65.9448 22.2048 65.3756 22.3439 64.7937 22.3439C63.2582 22.3439 62.3652 21.338 62.3652 19.9749C62.3652 18.6979 63.159 17.6392 64.8994 17.6392C65.7 17.6392 66.236 17.8575 66.534 17.9897C66.4345 18.261 66.4082 18.347 66.375 18.6516H66.3088C66.1301 18.2746 65.5478 17.9237 64.8729 17.9237C63.8271 17.9237 63.1327 18.6913 63.1327 19.9685C63.1327 21.3446 63.9859 22.0263 64.9257 22.0263C65.2234 22.0263 65.9115 21.96 66.4275 21.3446L66.5075 21.3775Z" fill="#FFF047"/>
<path d="M67.9358 20.5305C67.8032 20.8351 67.5386 21.4238 67.3204 22.2645C67.241 22.2511 67.1749 22.2246 67.0491 22.2246C66.9232 22.2246 66.8442 22.2511 66.7578 22.2645C67.3467 20.9807 68.3264 18.8234 68.7958 17.6324C68.8489 17.639 68.8886 17.6524 68.9616 17.6524C69.0209 17.6524 69.054 17.6456 69.1066 17.6324C69.6165 19.0221 71.079 22.2377 71.092 22.2645C70.9795 22.2445 70.8675 22.2246 70.7018 22.2246C70.5296 22.2246 70.4039 22.2443 70.2783 22.2645C70.0466 21.4703 69.7755 20.8947 69.6096 20.5305H67.9358ZM68.7627 18.5587L68.0683 20.1997H69.4773L68.7627 18.5587Z" fill="#FFF047"/>
</g>
<defs>
<clipPath id="clip0_385_633">
<rect width="80" height="40" fill="white"/>
</clipPath>
</defs>
</svg>
