<svg width="146" height="40" viewBox="0 0 146 40" fill="none" xmlns="http://www.w3.org/2000/svg">
<g clip-path="url(#clip0_385_583)">
<mask id="path-1-inside-1_385_583" fill="white">
<path d="M135.586 40H10.4151C9.04496 40.0142 7.6856 39.7558 6.41581 39.2396C5.14602 38.7235 3.99104 37.9599 3.01778 36.9931C2.05009 36.031 1.28453 34.8843 0.76629 33.6207C0.248053 32.3571 -0.0123516 31.0022 0.000450088 29.6361V10.2663C0.00114729 8.90792 0.271761 7.56327 0.7965 6.31084C1.32124 5.0584 2.08959 3.92327 3.05672 2.97168C4.02821 2.01592 5.17815 1.2615 6.44077 0.75159C7.7034 0.241676 9.05393 -0.0137321 10.4151 -2.54912e-05H135.586C136.947 -0.0135502 138.298 0.242036 139.56 0.752116C140.823 1.2622 141.973 2.01676 142.944 2.97266C143.911 3.9241 144.68 5.05907 145.204 6.31133C145.729 7.5636 146 8.90808 146 10.2663V29.6361C146 30.9943 145.729 32.3388 145.204 33.591C144.679 34.8433 143.911 35.9783 142.944 36.9297C141.973 37.8857 140.823 38.6403 139.56 39.1503C138.298 39.6604 136.947 39.916 135.586 39.9024"/>
</mask>
<path d="M10.4151 40V38.5H10.4073L10.3995 38.5001L10.4151 40ZM3.01778 36.9931L1.96018 38.0569L1.96067 38.0573L3.01778 36.9931ZM0.000450088 29.6361L1.50045 29.6501V29.6361H0.000450088ZM0.000450088 10.2663L-1.49955 10.2655V10.2663H0.000450088ZM3.05672 2.97168L2.00475 1.9024L2.00468 1.90247L3.05672 2.97168ZM10.4151 -2.54912e-05L10.4 1.4999L10.4076 1.49997H10.4151V-2.54912e-05ZM135.586 -2.54912e-05V1.49997H135.593L135.601 1.4999L135.586 -2.54912e-05ZM142.944 2.97266L141.892 4.04184L141.892 4.04191L142.944 2.97266ZM146 10.2663H147.5V10.2655L146 10.2663ZM146 29.6361L147.5 29.637V29.6361H146ZM142.944 36.9297L141.892 35.8605L141.892 35.8606L142.944 36.9297ZM135.586 40V38.5H10.4151V40V41.5H135.586V40ZM10.4151 40L10.3995 38.5001C9.22831 38.5122 8.06625 38.2913 6.98065 37.8501L6.41581 39.2396L5.85098 40.6292C7.30496 41.2202 8.86161 41.5162 10.4307 41.4999L10.4151 40ZM6.41581 39.2396L6.98065 37.8501C5.89503 37.4088 4.90734 36.7559 4.0749 35.929L3.01778 36.9931L1.96067 38.0573C3.07473 39.164 4.39701 40.0382 5.85098 40.6292L6.41581 39.2396ZM3.01778 36.9931L4.07539 35.9294C3.24979 35.1086 2.59644 34.13 2.15411 33.0515L0.76629 33.6207L-0.621526 34.1899C-0.0273876 35.6385 0.850397 36.9534 1.96018 38.0569L3.01778 36.9931ZM0.76629 33.6207L2.15411 33.0515C1.71177 31.973 1.48946 30.8164 1.50038 29.6501L0.000450088 29.6361L-1.49948 29.622C-1.51416 31.188 -1.21566 32.7412 -0.621526 34.1899L0.76629 33.6207ZM0.000450088 29.6361H1.50045V10.2663H0.000450088H-1.49955V29.6361H0.000450088ZM0.000450088 10.2663L1.50045 10.2671C1.50105 9.10739 1.73208 7.95952 2.17998 6.89048L0.7965 6.31084L-0.586979 5.7312C-1.18856 7.16703 -1.49875 8.70845 -1.49955 10.2655L0.000450088 10.2663ZM0.7965 6.31084L2.17998 6.89048C2.62788 5.82145 3.28361 4.85278 4.10875 4.0409L3.05672 2.97168L2.00468 1.90247C0.895566 2.99376 0.0146008 4.29536 -0.586979 5.7312L0.7965 6.31084ZM3.05672 2.97168L4.10869 4.04096C4.93962 3.22348 5.92299 2.5784 7.00248 2.14245L6.44077 0.75159L5.87907 -0.63927C4.43331 -0.0553948 3.11679 0.808355 2.00475 1.9024L3.05672 2.97168ZM6.44077 0.75159L7.00248 2.14245C8.08195 1.7065 9.23647 1.48818 10.4 1.4999L10.4151 -2.54912e-05L10.4302 -1.49995C8.87139 -1.51565 7.32484 -1.22315 5.87907 -0.63927L6.44077 0.75159ZM10.4151 -2.54912e-05V1.49997H135.586V-2.54912e-05V-1.50003H10.4151V-2.54912e-05ZM135.586 -2.54912e-05L135.601 1.4999C136.764 1.48834 137.919 1.70681 138.998 2.14291L139.56 0.752116L140.122 -0.63868C138.676 -1.22274 137.13 -1.51544 135.571 -1.49995L135.586 -2.54912e-05ZM139.56 0.752116L138.998 2.14291C140.078 2.57901 141.061 3.22423 141.892 4.04184L142.944 2.97266L143.996 1.90348C142.884 0.809292 141.568 -0.0546212 140.122 -0.63868L139.56 0.752116ZM142.944 2.97266L141.892 4.04191C142.717 4.85365 143.373 5.82217 143.821 6.89104L145.204 6.31133L146.588 5.73162C145.986 4.29596 145.105 2.99454 143.996 1.9034L142.944 2.97266ZM145.204 6.31133L143.821 6.89104C144.269 7.95992 144.5 9.10763 144.5 10.2672L146 10.2663L147.5 10.2655C147.5 8.70853 147.189 7.16728 146.588 5.73162L145.204 6.31133ZM146 10.2663H144.5V29.6361H146H147.5V10.2663H146ZM146 29.6361L144.5 29.6352C144.5 30.7947 144.269 31.9424 143.821 33.0113L145.204 33.591L146.588 34.1707C147.189 32.7351 147.499 31.1939 147.5 29.637L146 29.6361ZM145.204 33.591L143.821 33.0113C143.373 34.0802 142.717 35.0487 141.892 35.8605L142.944 36.9297L143.996 37.9989C145.105 36.9078 145.986 35.6064 146.588 34.1707L145.204 33.591ZM142.944 36.9297L141.892 35.8606C141.061 36.6782 140.078 37.3235 138.998 37.7596L139.56 39.1503L140.122 40.5411C141.568 39.9571 142.884 39.0931 143.996 37.9989L142.944 36.9297ZM139.56 39.1503L138.998 37.7596C137.919 38.1956 136.764 38.4141 135.601 38.4025L135.586 39.9024L135.571 41.4023C137.13 41.4179 138.676 41.1252 140.122 40.5411L139.56 39.1503Z" fill="white" mask="url(#path-1-inside-1_385_583)"/>
<path d="M13.918 9.39609H29.5886V12.4956H17.9086V18.4039H29.0046V21.5034H17.9086V30.5102H13.918V9.39609Z" fill="white"/>
<path d="M38.0571 9.39511H34.0664V30.5473H38.0571V9.39511Z" fill="white"/>
<path d="M43.2168 30.5093V9.39609H48.1808L54.7995 18.4029C56.4354 20.6455 57.8996 23.009 59.1795 25.4732H59.2768C58.9836 22.5448 58.8536 19.6024 58.8875 16.6595V9.39609H62.8781V30.5093H58.4008L51.6848 21.2117C50.0109 18.8543 48.4831 16.396 47.1101 13.8507H47.0128C47.2075 16.5629 47.2075 19.3707 47.2075 22.8575V30.4117L43.2168 30.5093Z" fill="white"/>
<path d="M82.6355 21.599H71.5395V27.4097L83.2195 27.3122V30.5083H67.5488V9.39609H83.2195V12.5922H71.5395V18.4029H82.6355V21.599Z" fill="white"/>
<path d="M121.472 8.9122C114.562 8.9122 109.014 13.0771 109.014 19.8566C109.014 26.6361 114.562 30.801 121.472 30.801C128.383 30.801 133.931 25.8615 133.931 19.8566C133.931 13.8517 128.383 8.9122 121.472 8.9122ZM121.472 27.6039C116.8 27.6039 113.004 25.1824 113.004 19.8556C113.004 14.5288 116.8 12.1073 121.472 12.1073C126.144 12.1073 129.94 15.5942 129.94 19.8556C129.94 24.1171 126.144 27.6039 121.472 27.6039Z" fill="white"/>
<path d="M105.899 26.8293C104.363 27.3477 102.751 27.6094 101.13 27.6039C95.0953 27.6039 90.2286 25.1824 90.2286 19.9532C90.2286 14.7239 95.0953 12.3024 101.13 12.3024C102.784 12.2843 104.429 12.5462 105.997 13.0771L106.97 9.88097C105.078 9.29809 103.109 9.00439 101.13 9.00975C92.8566 9.00975 86.1406 13.1746 86.1406 19.9541C86.1406 26.7336 91.8833 30.8985 101.13 30.8985C103.077 30.8942 105.012 30.6006 106.873 30.0273L105.899 26.8293Z" fill="white"/>
</g>
<defs>
<clipPath id="clip0_385_583">
<rect width="146" height="40" fill="white"/>
</clipPath>
</defs>
</svg>
