<svg xmlns="http://www.w3.org/2000/svg" width="150" height="41"><path fill="#00549f" d="M139.3 41H10.7a10.64 10.64 0 0 1-7.6-3.082A10.48 10.48 0 0 1 0 30.377V10.523a10.49 10.49 0 0 1 3.14-7.477A10.64 10.64 0 0 1 10.7 0h128.6a10.64 10.64 0 0 1 7.56 3.047 10.48 10.48 0 0 1 3.14 7.476v19.854a10.49 10.49 0 0 1-3.14 7.476 10.64 10.64 0 0 1-7.56 3.047" data-name="Tracciato 33009"/><path fill="#fdc82f" d="M14.3 9.631h16.1v3.177h-12v6.056h11.4v3.177H18.4v9.232h-4.1Z" data-name="Tracciato 33014"/><path fill="#fdc82f" d="M35 9.63h4.1v21.681H35z" data-name="Rettangolo 2810"/><path fill="#fdc82f" d="M44.4 31.272V9.631h5.1l6.8 9.232a56.4 56.4 0 0 1 4.5 7.247h.1a81 81 0 0 1-.4-9.034V9.631h4.1v21.641H60l-6.9-9.53a72 72 0 0 1-4.7-7.545h-.1c.2 2.78.2 5.658.2 9.232v7.743Z" data-name="Tracciato 33015"/><path fill="#fdc82f" d="M84.9 22.139H73.5v5.956l12-.1v3.276H69.4V9.631h16.1v3.276h-12v5.956h11.4Z" data-name="Tracciato 33016"/><path fill="#fdc82f" d="M124.8 9.135c-7.1 0-12.8 4.269-12.8 11.218s5.7 11.218 12.8 11.218 12.8-5.063 12.8-11.218-5.7-11.218-12.8-11.218m0 19.159c-4.8 0-8.7-2.482-8.7-7.942s3.9-7.942 8.7-7.942 8.7 3.574 8.7 7.942-3.9 7.942-8.7 7.942" data-name="Tracciato 33017"/><path fill="#fdc82f" d="M108.8 27.5a15.2 15.2 0 0 1-4.9.794c-6.2 0-11.2-2.482-11.2-7.842s5-7.842 11.2-7.842a15.1 15.1 0 0 1 5 .794l1-3.276a20.2 20.2 0 0 0-6-.893c-8.5 0-15.4 4.269-15.4 11.218s5.9 11.218 15.4 11.218a20.2 20.2 0 0 0 5.9-.893Z" data-name="Tracciato 33018"/></svg>