<svg width="348" height="40" viewBox="0 0 348 40" fill="none" xmlns="http://www.w3.org/2000/svg">
<g clip-path="url(#clip0_383_477)">
<path d="M291.213 5.83981C281.17 5.83981 277.389 13.8993 277.389 20.1342C277.389 26.5905 281.273 34.4309 290.877 34.4309C299.379 34.4309 304.735 27.8291 304.735 19.4785C304.734 11.1272 299.546 5.83981 291.213 5.83981ZM292.192 32.482C286.089 32.482 282.431 26.524 282.431 19.0115C282.431 10.0202 286.596 7.7113 290.253 7.7113C295.47 7.7113 299.569 12.7288 299.569 20.8172C299.569 31.2528 294.418 32.482 292.192 32.482Z" fill="white"/>
<path d="M186.594 34.499C188.829 34.499 191.178 34.1704 193.25 33.0015C196.232 31.2841 197.081 28.764 197.017 26.6461C196.913 23.1738 194.985 20.7288 189.825 17.334L188.624 16.5672C185.056 14.2646 184.048 12.9854 183.999 11.3041C183.933 9.11413 185.782 7.54386 188.9 7.54386C191.638 7.54386 192.891 8.63844 193.545 9.33399C194.457 10.2823 194.704 11.4144 194.714 11.7414C194.728 12.1811 194.86 12.401 195.156 12.401C195.491 12.401 195.609 12.1099 195.585 11.3041C195.499 8.45692 195.635 7.39756 195.622 6.91951C195.612 6.6668 195.399 6.5557 195.019 6.48215C193.916 6.22866 192.136 5.86406 189.395 5.86406C183.54 5.86406 179.752 8.74719 179.872 12.7664C179.961 15.7246 181.639 18.2807 186.369 21.4228L188.347 22.7388C191.914 25.0734 192.598 26.7932 192.651 28.5825C192.709 30.5189 190.924 32.7448 187.132 32.7448C184.521 32.7448 182.005 31.759 180.998 29.0558C180.765 28.4354 180.576 27.6702 180.559 27.193C180.551 26.9011 180.501 26.5725 180.12 26.5725C179.783 26.5725 179.67 26.9747 179.644 27.5216C179.62 28.1068 179.516 30.2999 179.578 32.3075C179.601 33.1079 179.733 33.2949 180.415 33.5484C182.248 34.2423 184.151 34.499 186.594 34.499Z" fill="white"/>
<path d="M278.442 33.0117C278.005 33.0117 277.474 32.978 276.972 32.8661C276.266 32.6885 275.597 31.8928 275.291 28.6545C274.779 23.1855 273.812 8.49918 273.622 6.51502C273.556 5.85312 272.885 5.71072 272.471 6.01351C272.162 6.23727 271.737 6.87727 271.309 7.45938C264.8 16.2785 261.211 21.0449 254.594 29.9337C253.44 31.4844 252.503 33.1775 250.301 33.0727C249.361 33.0265 249 32.1346 248.892 31.1292C248.711 29.5801 248.711 26.7392 248.711 23.4289V9.03982C248.711 8.64549 248.821 8.42798 248.999 8.35444C249.326 8.24568 249.868 8.21361 250.414 8.21361C251.245 8.21361 253.366 8.32079 254.667 9.50221C256.694 11.3049 256.673 13.7483 256.673 14.9336C256.673 18.607 253.739 20.9487 251.712 20.9487C250.949 20.9487 250.301 21.0559 250.301 21.3446C250.301 21.5934 250.557 21.6333 250.737 21.6685C250.92 21.7005 252.463 21.7584 252.644 21.7584C257.786 21.7584 261.464 18.6883 261.554 13.0535C261.58 11.1484 260.529 9.53742 259.742 8.77224C258.705 7.77077 256.387 6.66603 251.858 6.66603C250.193 6.66603 248.096 6.77713 246.61 6.77713C245.727 6.77713 240.7 6.56353 240.47 6.56353C239.24 6.56353 238.013 6.67228 237.297 6.67228C236.615 6.67228 235.057 6.56353 233.375 6.56353C232.888 6.56353 232.531 6.60109 232.531 6.89057C232.531 7.10339 232.66 7.21057 233.051 7.21057C233.503 7.21057 234.282 7.21057 234.768 7.42417C235.544 7.7872 235.836 8.46554 235.869 10.6602L235.963 24.64C235.412 24.0642 219.385 6.43287 218.912 6.07453C218.302 5.61918 217.674 6.04089 217.674 6.60969L217.074 24.6924C211.39 17.6783 202.383 6.50798 202.139 6.1559C201.769 5.61918 200.863 5.78348 200.801 6.55414C200.723 7.57986 199.168 29.9016 199.168 29.9016C199.111 31.68 198.87 32.8919 197.262 33.1016C196.983 33.1415 196.482 33.1736 196.15 33.1736C195.856 33.1736 195.737 33.2472 195.818 33.4576C195.927 33.7448 196.173 33.8167 196.653 33.8167C198.562 33.8167 200.539 33.708 200.945 33.708C202.084 33.708 203.703 33.8167 204.878 33.8167C205.279 33.8167 205.475 33.7448 205.367 33.4576C205.287 33.2464 205.15 33.1736 204.708 33.1736H204.158C203.02 33.1736 202.515 32.712 202.271 32.072C202.106 31.6456 201.966 30.7912 201.997 29.9024L202.047 24.82C202.036 24.6017 202.084 24.5328 202.27 24.5328H210.075C210.256 24.5328 210.395 24.6017 210.535 24.7848L216.326 31.849C216.478 32.0352 216.551 32.367 216.265 32.6471C216.21 32.6987 216.022 32.8247 215.884 32.8685C215.43 33.014 214.727 32.9757 214.304 32.9757C213.978 32.9757 213.967 33.1822 213.967 33.3974C213.967 33.7228 214.265 33.7917 214.687 33.7917C216.374 33.7917 217.898 33.7549 218.186 33.7549L221.665 33.7487C222.777 33.7698 223.839 33.816 224.488 33.8175C225.916 33.8175 226.147 33.7455 226.043 33.4584C225.948 33.208 226.057 33.0828 225.762 33.0828C225.322 33.0828 225.278 33.1055 224.686 32.996C223.846 32.82 222.849 31.795 220.237 28.5919L219.69 27.9151L219.474 14.8655C220.06 15.5501 234.539 31.2027 236.582 33.3559C236.937 33.7534 237.327 34.1493 237.681 34.1493C237.976 34.1493 238.104 33.8253 238.104 33.032L238.461 10.3715C238.493 8.36148 238.732 7.54153 239.658 7.32011C240.005 7.23717 240.953 7.21918 241.657 7.36783C242.85 7.61742 243.143 8.19405 243.216 9.41693C243.288 10.5702 243.288 11.5756 243.288 17.0429L243.29 23.3757C243.29 26.6828 243.29 29.5261 243.106 31.0377C242.962 32.0782 242.781 32.8732 242.057 33.0148C241.732 33.0868 241.295 33.1619 240.752 33.1619C240.32 33.1619 240.174 33.2675 240.174 33.4474C240.174 33.6978 240.43 33.805 240.897 33.805C242.346 33.805 245.671 33.643 245.841 33.6524C249.16 33.8269 252.073 33.7776 253.678 33.7244C255.002 33.6783 256.96 33.8958 257.452 33.8958C257.854 33.8958 258.185 33.8363 258.19 33.5319C258.19 33.3622 258.082 33.2432 257.741 33.2432H257.196C256.075 33.2432 256.209 32.7464 256.603 32.1784L261.754 24.7934C261.896 24.5766 261.993 24.5031 262.174 24.5031L269.454 24.4694C269.634 24.4694 269.719 24.5414 269.733 24.7214L270.023 32.2339C270.062 32.6666 269.704 32.9937 269.425 33.0625C269.049 33.1008 268.808 33.1345 268.818 33.4521C268.831 33.7565 269.138 33.8034 269.803 33.787C271.117 33.7581 272.127 33.726 273.611 33.7471C274.927 33.7651 276.274 33.8723 276.981 33.8723C278.319 33.8723 278.787 33.6931 278.884 33.406C278.964 33.1525 278.731 33.0117 278.442 33.0117ZM208.61 22.7505H202.329C202.18 22.7505 202.103 22.648 202.086 22.5033L202.349 15.2826C202.355 15.1542 202.338 14.9798 202.449 14.9665C202.56 14.9532 202.58 15.0705 202.691 15.202C202.972 15.5548 208.712 22.5385 208.712 22.5385C208.79 22.648 208.793 22.7505 208.61 22.7505ZM269.356 22.7357L263.456 22.7036C263.391 22.7036 263.259 22.6253 263.382 22.4516C263.947 21.6387 267.454 16.622 268.964 14.4736C269.064 14.3312 269.203 14.3789 269.207 14.5197C269.254 15.5955 269.612 22.5182 269.612 22.5182C269.611 22.6238 269.539 22.7357 269.356 22.7357Z" fill="white"/>
<path d="M333.988 5.83981C323.949 5.83981 320.166 13.8993 320.166 20.1342C320.166 23.1566 321.018 26.4786 322.904 29.1623C322.749 29.7937 322.392 30.544 322.032 30.9289C321.128 31.9022 318.855 31.9343 316.936 31.9343C314.11 31.9343 313.917 31.6824 313.305 31.1456C312.543 30.5009 312.543 28.0176 312.543 23.4101V17.0805C312.543 11.6131 312.543 10.6054 312.616 9.45292C312.69 8.19561 312.977 7.58299 313.954 7.40148C314.389 7.33184 314.97 7.29429 315.369 7.29429C315.801 7.29429 316.021 7.227 316.021 6.97116C316.021 6.72001 315.766 6.64881 315.258 6.64881C313.847 6.64881 310.396 6.756 309.527 6.756C308.549 6.756 306.178 6.64881 304.477 6.64881C303.933 6.64881 303.682 6.72001 303.682 6.97116C303.682 7.227 303.897 7.29429 304.294 7.29429C304.766 7.29429 305.201 7.33184 305.491 7.40148C306.686 7.65262 306.977 8.2316 307.049 9.45292C307.122 10.6054 307.122 11.6131 307.122 17.0805V23.4101C307.122 26.7243 307.122 29.5621 306.941 31.0768C306.796 32.1158 306.616 32.9092 305.892 33.0539C305.564 33.1259 305.13 33.1947 304.586 33.1947C304.153 33.1947 304.008 33.3066 304.008 33.485C304.008 33.7338 304.263 33.8441 304.734 33.8441C306.18 33.8441 308.55 33.7338 309.384 33.7338C312.317 33.7338 315.627 33.9505 320.837 33.9505C322.722 33.9505 322.906 33.7729 323.121 32.9788C323.302 32.32 323.47 31.0032 323.57 30.0252C325.747 32.6228 329.039 34.4309 333.657 34.4309C342.159 34.4309 347.512 27.8291 347.512 19.4785C347.511 11.1272 342.324 5.83981 333.988 5.83981ZM334.973 32.482C328.864 32.482 325.21 26.524 325.21 19.0115C325.21 10.0202 329.374 7.7113 333.032 7.7113C338.247 7.7113 342.349 12.7288 342.349 20.8172C342.348 31.2528 337.197 32.482 334.973 32.482Z" fill="white"/>
<path d="M116.195 33.4991C115.756 33.4991 115.227 33.467 114.721 33.3535C114.019 33.1775 113.348 32.3802 113.041 29.1403C112.529 23.673 111.566 8.98582 111.371 7.00166C111.309 6.33819 110.635 6.20049 110.22 6.49858C109.914 6.72391 109.488 7.36391 109.058 7.94602C104.046 14.7427 100.758 19.1358 96.4915 24.8591C95.841 22.2459 93.7871 20.088 89.5358 17.2886L88.3332 16.5226C84.7664 14.2216 83.7599 12.9416 83.7095 11.2626C83.6418 9.0711 85.491 7.49848 88.6105 7.49848C91.3472 7.49848 92.6018 8.5954 93.2555 9.28861C94.1674 10.2392 94.4124 11.3713 94.4226 11.7C94.4368 12.1381 94.5691 12.3579 94.8644 12.3579C95.1999 12.3579 95.3196 12.0645 95.2936 11.2626C95.2094 8.41076 95.344 7.35218 95.3307 6.87883C95.3228 6.62298 95.1109 6.51423 94.7274 6.44069C93.6248 6.18484 91.8449 5.81868 89.1066 5.81868C83.2488 5.81868 79.4607 8.70572 79.582 12.721C79.671 15.68 81.3492 18.2361 86.0777 21.3813L88.056 22.6942C91.6244 25.032 92.3072 26.747 92.3632 28.5379C92.4214 30.4743 90.6345 32.7034 86.8424 32.7034C84.2293 32.7034 81.7139 31.7144 80.7066 29.0128C80.4758 28.3924 80.2852 27.6241 80.2711 27.1484C80.2616 26.8581 80.2096 26.5295 79.8308 26.5295C79.4937 26.5295 79.4189 26.9332 79.3528 27.477C79.311 27.8283 79.1835 28.6811 79.1401 28.9213C78.8834 30.4078 78.4447 31.1707 77.4957 31.608C76.5436 32.0469 75.0071 32.0469 74.0581 32.0469C70.3282 32.0469 67.6206 31.5 67.5481 28.9956C67.5111 27.9394 67.5481 24.5993 67.5481 23.3616V20.4933C67.5481 20.2734 67.5852 20.1311 67.7663 20.1311C68.6428 20.1311 73.8501 20.1663 74.5432 20.2382C75.897 20.3838 76.4089 20.9291 76.5924 21.6552C76.7003 22.1277 76.7003 22.6011 76.7373 22.9633C76.7373 23.1448 76.8113 23.2919 77.0697 23.2919C77.3941 23.2919 77.3941 22.8898 77.3941 22.6011C77.3941 22.3476 77.4682 20.8939 77.5422 20.167C77.6532 18.3135 77.836 17.733 77.836 17.5155C77.836 17.2956 77.7249 17.2237 77.5792 17.2237C77.3949 17.2237 77.25 17.4036 76.9964 17.6962C76.6672 18.06 76.1151 18.1672 75.241 18.24C74.3967 18.3135 68.6066 18.3135 67.8041 18.3135C67.5859 18.3135 67.5489 18.1665 67.5489 17.913V8.72293C67.5489 8.46787 67.6214 8.35912 67.8025 8.35912C68.5334 8.35912 73.9596 8.43188 74.581 8.50543C76.4097 8.72293 76.7743 9.15951 77.0326 9.81281C77.213 10.2486 77.2492 10.8667 77.2492 11.1218C77.2492 11.448 77.3233 11.628 77.5784 11.628C77.8352 11.628 77.9092 11.4128 77.9462 11.2282C78.0171 10.7924 78.0911 9.19394 78.1273 8.83012C78.2368 7.15892 78.418 6.72391 78.418 6.46963C78.418 6.28812 78.3841 6.14103 78.2014 6.14103C78.0171 6.14103 77.7981 6.25213 77.6154 6.28812C77.3233 6.36166 76.7373 6.43443 76.0435 6.50328C75.3481 6.54318 66.4865 6.54318 65.3162 6.54318C64.8043 6.54318 63.964 6.50328 63.0118 6.46963C62.2597 6.46963 61.4092 6.44616 60.5815 6.43834C60.546 6.25447 60.472 6.17467 60.3184 6.17467C60.0341 6.17467 59.1599 6.53301 56.8374 6.53301H44.5288C43.3309 6.53301 41.955 6.46181 40.906 6.35306C40.0003 6.28342 39.6522 6.05575 39.3585 6.05575C39.1584 6.05575 39.0356 6.12929 38.934 6.52362H38.5772C38.0929 6.52362 37.6093 6.54005 37.1541 6.56117C36.3666 6.58934 35.7003 6.62455 35.2758 6.63081C34.5402 6.61829 33.084 6.52362 31.5152 6.52362C31.0293 6.52362 30.6773 6.55961 30.6773 6.84675C30.6773 7.05956 30.8049 7.1691 31.1908 7.1691C31.6428 7.1691 32.4186 7.1691 32.9013 7.38425C33.592 7.70738 33.8984 8.28088 33.9763 9.97633L34.0905 24.5977C33.5447 24.0219 17.5921 6.38826 17.1227 6.03149C16.5139 5.57457 15.8878 5.99628 15.8878 6.56665L15.5767 16.0282L15.1333 28.5269C15.0995 31.6487 14.4812 32.2645 13.6409 32.766C13.2597 32.9983 12.5793 33.1071 12.1123 33.1282C11.9705 33.1345 10.471 33.2002 9.83153 33.05C8.86284 32.8176 8.28241 32.1667 8.17215 31.1965C8.02567 29.6458 8.02567 26.8049 8.02567 23.3068V16.971C8.02567 11.4965 8.02567 10.4888 8.10127 9.33477C8.17215 8.07589 8.46434 7.46171 9.43933 7.28333C9.87012 7.20978 10.156 7.17223 10.5159 7.17223C10.8805 7.17223 11.0924 7.10494 11.0924 6.81154C11.0924 6.59951 10.8065 6.52518 10.3371 6.52518C8.96522 6.52518 6.83489 6.63237 5.93629 6.63237C4.88884 6.63237 2.61833 6.52518 1.24641 6.52518C0.669135 6.52518 0.376953 6.60029 0.376953 6.81154C0.376953 7.10494 0.594318 7.17223 0.958167 7.17223C1.38502 7.17223 1.85834 7.20978 2.25763 7.31697C3.04833 7.49692 3.41297 8.10954 3.4807 9.33477C3.55473 10.4896 3.55473 11.4973 3.55473 16.971V23.3068C3.55473 26.8049 3.55473 29.6458 3.37674 31.1581C3.26649 32.2034 3.04833 32.8129 2.32536 32.9631C2.00483 33.032 1.56852 33.104 1.02905 33.104C0.595105 33.104 0.450983 33.2127 0.450983 33.3942C0.450983 33.6462 0.703 33.7549 1.17317 33.7549C2.61833 33.7549 4.88884 33.6462 5.72208 33.6462C6.69077 33.6462 12.1257 33.7502 12.2981 33.7502C14.167 33.7502 16.0603 33.6939 16.3824 33.6939C17.0668 33.6939 18.5033 33.8026 20.8399 33.8026C21.3416 33.8026 21.6677 33.7291 21.6677 33.442C21.6677 33.2284 21.4511 33.1579 21.0542 33.1579C20.4816 33.1579 19.7972 33.1196 19.1869 32.906C18.4686 32.6541 17.9992 31.7215 17.9299 28.9236L17.7961 21.8562L17.6811 14.8256C18.2623 15.5071 32.6753 31.1597 34.7072 33.3144C35.0624 33.7088 35.4483 34.1046 35.8011 34.1046C36.0917 34.1046 36.2224 33.7823 36.2224 32.9905L36.576 10.3292C36.5808 10.0467 36.5902 9.78699 36.6036 9.54914C36.7147 8.18308 37.0218 7.67765 37.6526 7.38425C37.9913 7.23403 38.4662 7.19257 38.8788 7.17614C38.8544 8.21594 38.8788 10.3175 38.8788 10.7689C38.8788 11.1687 38.9529 11.3447 39.2065 11.3447C39.4199 11.3447 39.5309 11.2 39.6034 10.9129C39.6759 10.6218 39.857 10.1876 40.2185 9.64538C40.7603 8.85125 41.6337 8.66895 43.738 8.59384L47.3639 8.4491V23.2841C47.3639 26.614 47.3639 29.4713 47.1852 30.9907C47.0757 32.0422 46.6449 32.8348 45.9211 32.985C45.5919 33.0539 44.4287 33.1274 43.8861 33.1274C43.4522 33.1274 43.308 33.2346 43.308 33.4177C43.308 33.6696 43.5601 33.78 44.0342 33.78C45.4785 33.78 48.7059 33.6696 49.536 33.6696C50.5527 33.6696 52.8382 33.78 55.2292 33.78C55.6293 33.78 55.9231 33.6696 55.9231 33.4177C55.9231 33.2346 55.7356 33.1274 55.3403 33.1274C54.7977 33.1274 53.9959 33.0539 53.4895 32.985C52.4066 32.8356 52.1885 32.0422 52.0775 31.029C51.8947 29.4721 51.8947 26.614 51.8947 23.2849V8.44988L55.4616 8.56098C58.689 8.63452 59.7884 9.64616 59.8608 10.5866L59.8963 10.9848C59.9364 11.5294 60.0073 11.7078 60.2979 11.7078C60.5161 11.7078 60.5854 11.4918 60.6224 11.1296C60.6224 10.2549 60.613 8.0266 60.613 7.11198C60.887 7.12919 61.1406 7.15736 61.2958 7.19648C62.5015 7.45232 62.7953 8.03208 62.8693 9.26592C62.9402 10.4301 62.9402 11.448 62.9402 16.9686V23.3623C62.9402 26.7071 62.9402 29.5769 62.759 31.1042C62.6126 32.1557 62.4298 32.9577 61.6974 33.1C61.3682 33.1736 60.9295 33.2471 60.3806 33.2471C59.942 33.2471 59.7947 33.3543 59.7947 33.5374C59.7947 33.7893 60.0514 33.8997 60.5287 33.8997C61.2595 33.8997 62.2101 33.8629 63.0512 33.8277C63.9293 33.8277 64.7326 33.7893 65.1351 33.7893C66.2337 33.7893 67.367 33.8277 68.939 33.8997C70.5109 33.938 74.644 34.01 77.387 34.01C78.7779 34.01 79.1055 34.01 79.3607 33.0656C79.3701 33.032 79.3788 32.9889 79.3866 32.9483C79.4914 33.2205 79.7032 33.3504 80.1254 33.5092C81.9604 34.2017 83.8631 34.4599 86.3077 34.4599C87.1133 34.4599 87.9363 34.4137 88.7546 34.3026C89.8359 34.3135 90.7526 34.3026 91.4291 34.2799C92.7538 34.2353 94.7085 34.2799 95.2039 34.2799C95.6039 34.2799 95.9347 34.3261 95.9379 34.0201C95.941 33.8504 95.8347 33.733 95.4905 33.733H94.9479C93.8249 33.733 93.9603 33.2346 94.3509 32.6682L99.5023 25.28C99.6457 25.068 99.7425 24.9944 99.9237 24.9944L107.205 24.9577C107.386 24.9577 107.468 25.0312 107.485 25.2111L107.772 32.7237C107.813 33.1564 107.453 33.4803 107.177 33.5507C106.801 33.5875 106.556 33.6211 106.568 33.9403C106.581 34.2431 106.891 34.2885 107.554 34.2752C108.866 34.2463 109.877 34.2126 111.361 34.2353C112.675 34.2533 114.026 34.3621 114.733 34.3621C116.071 34.3621 116.537 34.1829 116.632 33.8942C116.713 33.6399 116.485 33.4991 116.195 33.4991ZM107.105 23.22L101.205 23.191C101.145 23.191 101.01 23.1143 101.131 22.9406C101.697 22.123 105.201 17.1126 106.716 14.961C106.816 14.8186 106.953 14.8647 106.96 15.0071C107.005 16.0829 107.361 23.0056 107.361 23.0056C107.361 23.1112 107.287 23.22 107.105 23.22Z" fill="white"/>
<path d="M163.741 11.6851L163.728 11.6749C163.491 11.5341 163.131 11.4535 162.891 11.5591C161.35 11.4136 159.879 11.43 158.322 11.4457H158.276L158.214 11.4472C157.435 11.4574 156.628 11.4652 155.823 11.4535C149.296 11.3189 149.296 11.3189 149.296 11.3189C147.768 11.279 146.091 11.2915 144.446 11.3526C143.228 11.3627 142.047 11.394 140.843 11.43C139.587 11.4621 136.593 11.4723 134.804 11.4762C133.85 11.4801 133.35 11.4801 133.287 11.484C133.074 11.4981 132.819 11.7891 132.813 12.0262C132.808 12.1569 132.888 12.3071 133.116 12.3298C133.285 12.3493 134.367 12.3533 136.332 12.347L138.34 12.3368C138.875 12.3329 139.124 12.3447 139.241 12.3306H139.254C140.729 12.1843 142.214 12.1921 143.647 12.2023H143.758C144.687 12.2062 145.647 12.2124 146.613 12.1749C146.813 12.2202 147.025 12.1788 147.228 12.1365L147.26 12.1311C147.349 12.1131 147.445 12.0951 147.536 12.0888C147.756 12.1483 148.009 12.1459 148.273 12.1404C148.528 12.1358 148.79 12.1303 149.027 12.1882L149.028 12.1944L149.07 12.1921V12.1858C149.278 12.1146 149.47 12.1522 149.67 12.1921C149.677 12.1944 149.707 12.1983 149.707 12.1983C149.803 12.2179 149.892 12.2336 149.98 12.2359C151.845 12.1866 153.91 12.2523 156.482 12.4495C156.479 12.4495 157.7 12.5778 157.7 12.5778H157.714C158.797 12.473 159.916 12.5543 160.997 12.631C161 12.6334 161.023 12.6334 161.023 12.6334C161.836 12.6944 162.604 12.7499 163.369 12.7319L163.371 12.7421L163.417 12.7265L163.415 12.7163L163.82 12.3955L163.822 12.3971L163.84 12.3783L163.838 12.3736C163.97 12.16 163.927 11.8603 163.741 11.6851Z" fill="white"/>
<path d="M152.941 25.46L152.975 25.4404V25.3606L152.946 22.8358V22.828L152.943 22.8217C152.898 22.4415 152.891 22.0213 152.88 21.5761C152.869 21.0762 152.858 20.5598 152.791 20.1013C152.778 19.4488 152.647 18.7462 152.521 18.0655L152.435 17.6071L152.428 17.5625L152.397 17.5319C152.295 17.4279 152.26 17.3011 152.221 17.1548C152.187 17.0312 152.153 16.9045 152.073 16.7832C151.904 16.4718 151.634 16.1753 151.397 15.9093L151.382 15.8952C151.324 15.8154 151.255 15.7731 151.193 15.7348C151.156 15.7121 151.124 15.6886 151.087 15.6581L151.032 15.6104L151 15.6182L150.956 15.5846C150.741 15.4132 150.54 15.3459 150.307 15.2716L150.304 15.27C150.237 15.1754 150.107 15.1597 150.022 15.1582V15.0956L149.9 15.0791L149.337 14.9954L149.253 14.9829L149.201 15.0502C149.18 15.076 149.177 15.0838 149.058 15.0377C149.002 15.0197 148.943 14.9978 148.877 14.9915L148.811 14.9852L148.777 15.0173C148.761 15.0048 148.739 14.9915 148.714 14.9774L148.477 14.9086L148.461 15.0173C148.354 15.0158 148.265 15.0353 148.191 15.0752H147.816L147.471 15.0783L147.51 15.2114L147.504 15.2176C147.352 15.1761 147.238 15.2693 147.171 15.3232C147.159 15.3326 147.147 15.3428 147.139 15.3491C147.018 15.3671 146.947 15.4195 146.899 15.4578C146.862 15.4852 146.849 15.4946 146.816 15.4977L146.758 15.5008L146.719 15.5486C146.667 15.608 146.506 15.6816 146.416 15.7215L146.227 15.8052L146.267 15.8467C146.237 15.8592 146.207 15.8787 146.178 15.903H145.996V16.0485C145.986 16.047 145.98 16.047 145.974 16.0438L145.871 16.0008C145.862 15.9992 145.797 16.0892 145.797 16.0892C145.685 16.2433 145.537 16.3983 145.385 16.5586C145.205 16.7511 145.017 16.9467 144.876 17.1611L144.832 17.2221L144.861 17.2878C144.825 17.3074 144.741 17.3629 144.724 17.467C144.654 17.5421 144.638 17.643 144.625 17.7103C144.624 17.7299 144.619 17.7604 144.613 17.7745C144.537 17.8629 144.522 17.9544 144.509 18.0233C144.498 18.0765 144.494 18.1054 144.472 18.1336L144.38 18.2471L144.422 18.2791C144.394 18.348 144.394 18.4184 144.394 18.4606C144.394 18.4802 144.393 18.5021 144.391 18.5201L144.331 18.5553L144.347 18.6453C144.37 18.8229 144.349 18.9888 144.324 19.1617C144.302 19.3299 144.28 19.5012 144.298 19.6921C144.228 19.7978 144.245 19.9198 144.257 19.9996C144.261 20.0254 144.268 20.0638 144.265 20.0794L144.174 20.1514L144.239 20.2586C144.288 20.34 144.248 20.4698 144.213 20.595C144.176 20.7139 144.135 20.8579 144.177 20.9862C144.168 20.9956 144.156 21.0058 144.146 21.0199C144.131 21.0394 144.116 21.0793 144.12 21.1239C144.12 21.2233 144.109 21.2522 144.106 21.2601L144.04 21.3978L144.031 21.451L144.15 21.5347C144.136 21.6161 144.146 21.6919 144.157 21.7592C144.172 21.8492 144.173 21.8891 144.146 21.9259L144.07 22.062L144.146 22.1504C144.146 22.1598 144.146 22.1669 144.146 22.1747C144.142 22.2357 144.136 22.3476 144.213 22.4282C144.217 22.4438 144.218 22.4571 144.223 22.4712L144.086 22.508L144.173 22.6989C144.173 22.7114 144.168 22.7294 144.165 22.745C144.15 22.7998 144.125 22.9133 144.182 23.0111C144.139 23.1214 144.166 23.2278 144.185 23.3013C144.188 23.3209 144.196 23.3514 144.199 23.3686C144.068 23.5063 144.131 23.6863 144.168 23.7825C144.107 23.874 144.12 23.9828 144.135 24.0501L143.959 24.1111L144.138 24.2926C144.13 24.331 144.13 24.3795 144.157 24.4319C144.179 24.4624 144.205 24.482 144.233 24.4929L144.179 24.5125C144.181 24.5187 144.183 24.525 144.186 24.5305L144.247 24.6924L144.246 24.7104C144.231 24.8051 144.254 24.8982 144.299 24.9717C144.283 24.9913 144.275 25.0195 144.27 25.0516L144.201 25.1204L144.27 25.2182C144.324 25.2933 144.304 25.3942 144.264 25.5499C144.23 25.6845 144.185 25.8613 144.267 26.01L144.167 26.1047L144.29 26.1978C144.288 26.204 144.283 26.2103 144.282 26.2158C144.25 26.2721 144.193 26.384 144.264 26.4998L144.259 26.4857C144.283 26.5436 144.273 26.6367 144.261 26.7329C144.244 26.8753 144.222 27.0474 144.299 27.2188L144.275 27.3901L144.281 27.3674C144.261 27.4347 144.275 27.4911 144.298 27.531L144.243 27.5568L144.281 27.6773C144.32 27.8009 144.321 27.9511 144.321 28.1131C144.324 28.419 144.324 28.7625 144.6 29.0269L144.661 29.0817L144.739 29.0574C144.948 28.9995 144.955 28.793 144.962 28.6858C144.963 28.66 144.963 28.6381 144.968 28.6201L144.969 28.5911L144.962 28.5637C144.877 28.2844 144.913 27.9175 144.945 27.5951C144.954 27.5083 144.962 27.4285 144.968 27.3495L144.969 27.3127L144.954 27.2743C144.897 27.1625 144.91 27.0529 144.926 26.9246C144.942 26.8088 144.954 26.6774 144.912 26.5444C144.958 25.9513 144.933 25.2534 144.906 24.6361C144.898 24.3763 144.884 24.1291 144.881 23.8999V23.8936V23.8858C144.846 23.5955 144.855 23.2833 144.865 22.9782C144.871 22.7059 144.88 22.4282 144.855 22.17C144.92 21.875 144.917 21.6059 144.91 21.3203C144.907 21.1904 144.906 21.059 144.91 20.9182L144.912 20.8829L144.901 20.8634C144.967 20.7898 144.981 20.7108 144.949 20.6341C144.978 20.5223 144.984 20.4205 144.986 20.3282C144.988 20.2531 144.992 20.1811 145.006 20.1185L145.014 20.0849L145.004 20.0513C144.988 19.9871 145.004 19.9167 145.021 19.8392C145.042 19.7461 145.067 19.6389 145.028 19.5302C145.136 19.3088 145.162 19.0365 145.182 18.7736L145.191 18.6821C145.201 18.6257 145.18 18.5702 145.133 18.5248C145.133 18.5185 145.133 18.5139 145.133 18.5139C145.133 18.3981 145.196 18.3042 145.273 18.1852C145.355 18.0554 145.449 17.9059 145.475 17.7072L145.477 17.6736L145.475 17.6673C145.486 17.6548 145.498 17.6446 145.507 17.6352C145.558 17.5953 145.636 17.528 145.636 17.4232C145.635 17.4036 145.632 17.3864 145.625 17.3684C145.724 17.28 145.785 17.1806 145.84 17.0915C145.921 16.9538 145.977 16.8591 146.136 16.8137L146.211 16.7926L146.231 16.7143C146.254 16.6275 146.331 16.5798 146.452 16.5031C146.543 16.4468 146.645 16.3826 146.72 16.2864C146.822 16.2958 146.883 16.2699 146.919 16.23C147.041 16.1995 147.137 16.126 147.216 16.065C147.343 15.9609 147.39 15.9382 147.477 15.9812L147.564 16.018L147.621 15.9632C147.626 15.9632 147.629 15.9617 147.634 15.9617C147.675 15.9492 147.746 15.9312 147.787 15.8639C147.826 15.8561 147.86 15.8459 147.89 15.8365C147.963 15.8107 147.979 15.8091 148.005 15.8208C148.028 15.8365 148.079 15.8545 148.136 15.8404L148.141 15.8498L148.246 15.8357L148.383 15.8201C148.791 15.7669 149.143 15.7223 149.461 15.8905L149.573 15.9499L149.643 15.849C149.655 15.8647 149.67 15.8811 149.683 15.8983C149.765 15.9883 149.909 16.144 150.115 16.1095C150.162 16.151 150.212 16.18 150.257 16.2058C150.275 16.2167 150.3 16.2316 150.317 16.2426V16.2504L150.344 16.2856C150.409 16.3709 150.546 16.4123 150.656 16.417C150.894 16.6658 151.137 17.0085 151.137 17.1564V17.2957H151.243C151.243 17.3004 151.243 17.3019 151.243 17.3035C151.285 17.4881 151.337 17.7174 151.483 17.8707C151.442 17.9638 151.475 18.0773 151.493 18.1242C151.497 18.1399 151.504 18.1594 151.507 18.1774L151.47 18.2815L151.565 18.3746L151.585 18.3871C151.579 18.4818 151.623 18.5717 151.654 18.6343C151.662 18.6523 151.672 18.6695 151.679 18.6891L151.656 18.7392C151.53 18.9809 151.701 19.1147 151.78 19.1781C151.794 19.1906 151.803 19.1961 151.811 19.2024C151.748 19.2501 151.753 19.3017 151.737 19.3854L151.748 19.4926L151.793 19.563C151.793 19.563 151.794 19.5646 151.797 19.5646C151.797 19.5693 151.799 19.5756 151.801 19.5787C151.807 19.5983 151.817 19.628 151.836 19.6601L151.786 19.7078L151.753 19.833L151.823 19.9323L151.879 19.9613C151.877 20.0161 151.898 20.0685 151.916 20.1021C151.917 20.1084 151.922 20.1185 151.924 20.1232L151.911 20.1858C151.864 20.4151 151.805 20.7147 151.949 20.9526C151.945 20.9588 151.938 20.9635 151.937 20.9667C151.871 21.0566 151.886 21.1576 151.898 21.2311C151.901 21.2538 151.909 21.2937 151.908 21.3062L151.871 21.4517C151.868 21.458 151.917 21.4713 151.958 21.4791C151.953 21.4932 151.947 21.5065 151.942 21.5222L151.913 21.6888H151.968C151.959 21.7467 151.957 21.8007 151.954 21.8476C151.954 21.9329 151.951 21.9885 151.922 22.0292L151.908 22.0487L151.903 22.073C151.86 22.2224 151.917 22.3648 151.963 22.4822C151.971 22.5033 151.979 22.5236 151.987 22.5432C151.963 22.5721 151.937 22.6089 151.941 22.6652C151.941 22.6778 151.947 22.6879 151.95 22.6973L151.92 22.7294L151.947 22.8092C151.963 22.8585 151.99 22.8859 152.024 22.9054L152.003 22.9117C151.997 22.9117 151.997 23.0205 151.997 23.0205V23.0588L151.908 23.0862L151.953 23.1777C151.93 23.2192 151.908 23.2802 151.93 23.3491L151.87 23.4562C151.873 23.4547 151.881 23.5204 151.935 23.5462C151.879 23.7371 152.017 23.878 152.102 23.9617C152.139 23.9953 152.159 24.0227 152.176 24.043H152.105L152.159 24.2246V24.2293C152.148 24.2386 152.135 24.2551 152.125 24.2692L152.005 24.3239L152.046 24.4796L152.033 24.5195C152.005 24.6009 152.028 24.6541 152.051 24.6909C152.056 24.6956 152.061 24.7003 152.068 24.7065C152.023 24.7464 151.979 24.8074 151.968 24.9005L151.953 25.0336L152.064 25.05C152.053 25.0789 152.046 25.1063 152.04 25.1321C152.024 25.1799 152.014 25.2221 151.99 25.2558V25.2589C151.989 25.262 151.984 25.2698 151.983 25.2753L152.172 25.3809C152.142 25.4287 152.128 25.4803 152.118 25.5155C152.11 25.5366 152.104 25.5617 152.097 25.5734C152.092 25.5734 152.089 25.5734 152.083 25.5734L151.926 25.575L151.934 25.7565C151.942 25.7839 151.946 25.816 151.95 25.8543C151.953 25.8879 151.958 25.9247 151.967 25.9662V26.1493C151.967 26.1719 151.967 26.2103 151.976 26.2502L151.953 26.2611L151.968 26.3636C151.977 26.4137 151.972 26.4661 151.968 26.5131C151.966 26.542 151.964 26.5772 151.964 26.6077L151.835 26.6735L151.994 26.8464L151.99 26.8542C151.972 26.8957 151.95 26.9504 151.95 27.0161H151.838L152.028 27.2485C152.045 27.265 152.059 27.3189 152.07 27.3557C152.072 27.3588 152.072 27.3651 152.075 27.3698C151.994 27.4449 151.983 27.5591 151.978 27.617C151.973 27.6444 151.97 27.6827 151.964 27.6937C151.964 27.6937 151.965 27.6921 151.965 27.6906L152.015 27.7563C151.978 27.7837 151.953 27.8142 151.941 27.84C151.921 27.8846 151.921 27.9316 151.925 27.973H151.741L151.891 28.124L151.751 28.1717L151.869 28.268V28.6428C151.869 28.7116 151.901 28.7695 151.957 28.7969C151.961 28.7984 151.964 28.7984 151.964 28.7984C152.043 28.8501 152.124 28.8485 152.19 28.8321V28.9893L152.375 28.9346C152.507 28.8947 152.609 28.8884 152.713 28.9103L152.864 28.9393L152.884 28.7898C152.956 28.2289 152.942 27.6851 152.928 27.1593C152.913 26.6461 152.901 26.1602 152.967 25.6845C153.012 25.5898 152.969 25.503 152.941 25.46Z" fill="white"/>
<path d="M142.112 25.46L142.146 25.4404V25.3606L142.117 22.8358V22.828V22.8225C142.07 22.4422 142.062 22.0221 142.052 21.5769C142.041 21.077 142.029 20.5606 141.96 20.1021C141.949 19.4496 141.818 18.747 141.692 18.0663L141.606 17.6078L141.6 17.5632L141.568 17.5327C141.466 17.4287 141.431 17.3019 141.392 17.1556C141.36 17.032 141.326 16.9052 141.247 16.784C141.078 16.4726 140.809 16.176 140.569 15.91L140.558 15.8959C140.497 15.8161 140.428 15.7739 140.366 15.7355C140.329 15.7129 140.295 15.6894 140.26 15.6589L140.206 15.6111L140.174 15.619L140.129 15.5853C139.916 15.414 139.712 15.3467 139.482 15.2724H139.476C139.41 15.1777 139.282 15.1621 139.195 15.1605V15.0979L139.075 15.0815L138.509 14.9977L138.426 14.9852L138.373 15.0525C138.356 15.0783 138.35 15.0862 138.231 15.04C138.176 15.022 138.116 15.0001 138.051 14.9938L137.983 14.9876L137.952 15.0197C137.934 15.0071 137.914 14.9938 137.888 14.9798L137.652 14.9109L137.634 15.0197C137.529 15.0181 137.44 15.0377 137.365 15.0776H136.991L136.646 15.0807L136.684 15.2137L136.678 15.2199C136.528 15.1785 136.41 15.2716 136.347 15.3256C136.335 15.335 136.323 15.3451 136.315 15.3514C136.192 15.3694 136.121 15.4218 136.072 15.4601C136.035 15.4875 136.022 15.4969 135.99 15.5L135.93 15.5032L135.893 15.5509C135.841 15.6104 135.678 15.6839 135.591 15.7238L135.399 15.8075L135.442 15.849C135.413 15.8615 135.379 15.8811 135.35 15.9053H135.167V16.0509C135.16 16.0493 135.152 16.0493 135.148 16.0462L135.045 16.0031C135.035 16.0016 134.969 16.0915 134.969 16.0915C134.858 16.2457 134.712 16.4006 134.559 16.561C134.378 16.7534 134.192 16.949 134.05 17.1634L134.003 17.2244L134.033 17.2902C133.999 17.3097 133.913 17.3653 133.899 17.4693C133.826 17.5444 133.811 17.6454 133.8 17.7127C133.799 17.7322 133.792 17.7627 133.788 17.7768C133.712 17.8652 133.694 17.9568 133.681 18.0256C133.673 18.0788 133.667 18.1078 133.644 18.1359L133.555 18.2494L133.596 18.2815C133.57 18.3503 133.568 18.4207 133.568 18.463C133.568 18.4825 133.568 18.5044 133.565 18.5224L133.505 18.5577L133.519 18.6476C133.544 18.8252 133.521 18.9911 133.498 19.164C133.475 19.3322 133.451 19.5036 133.472 19.6945C133.401 19.8001 133.418 19.9222 133.43 20.002C133.433 20.0278 133.44 20.0661 133.438 20.0818L133.346 20.1537L133.412 20.2609C133.462 20.3423 133.421 20.4722 133.383 20.5974C133.351 20.7163 133.307 20.8602 133.352 20.9886C133.34 20.9979 133.331 21.0081 133.32 21.0222C133.303 21.0418 133.292 21.0817 133.294 21.1263C133.294 21.2256 133.283 21.2546 133.28 21.2624L133.214 21.4001L133.201 21.4533L133.322 21.537C133.31 21.6184 133.319 21.6943 133.33 21.7616C133.346 21.8515 133.347 21.8914 133.321 21.9282L133.243 22.0644L133.319 22.1528C133.319 22.1621 133.319 22.1692 133.319 22.177C133.314 22.238 133.31 22.3499 133.387 22.4305C133.388 22.4462 133.39 22.4595 133.396 22.4735L133.258 22.5103L133.347 22.7012C133.345 22.7137 133.342 22.7317 133.339 22.7474C133.325 22.8021 133.299 22.9156 133.355 23.0134C133.312 23.1237 133.339 23.2301 133.357 23.3037C133.362 23.3232 133.369 23.3537 133.373 23.371C133.242 23.5087 133.306 23.6886 133.342 23.7848C133.279 23.8764 133.294 23.9851 133.306 24.0524L133.131 24.1134L133.31 24.295C133.302 24.3333 133.302 24.3818 133.331 24.4342C133.351 24.4647 133.379 24.4843 133.407 24.4953L133.351 24.5148C133.353 24.5211 133.358 24.5273 133.359 24.5328H133.358L133.424 24.6948L133.419 24.7128C133.403 24.8074 133.427 24.9005 133.474 24.9741C133.458 24.9936 133.447 25.0218 133.444 25.0539L133.374 25.1227L133.444 25.2205C133.497 25.2956 133.476 25.3966 133.437 25.5523C133.402 25.6868 133.358 25.8637 133.439 26.0123L133.342 26.107L133.463 26.2001C133.462 26.2064 133.457 26.2126 133.455 26.2181C133.423 26.2744 133.366 26.3863 133.439 26.5021L133.431 26.488C133.457 26.5459 133.445 26.639 133.432 26.7353C133.417 26.8777 133.395 27.0498 133.471 27.2211L133.447 27.3925L133.455 27.3698C133.433 27.4371 133.45 27.4934 133.471 27.5333L133.416 27.5591L133.455 27.6796C133.492 27.8032 133.495 27.9534 133.498 28.1154C133.498 28.4213 133.498 28.7648 133.775 29.0292L133.833 29.084L133.914 29.0598C134.12 29.0019 134.129 28.7953 134.137 28.6881C134.137 28.6623 134.138 28.6404 134.141 28.6224L134.144 28.5934L134.137 28.5661C134.054 28.2867 134.087 27.9198 134.12 27.5975C134.126 27.5106 134.136 27.4308 134.141 27.3518L134.143 27.315L134.126 27.2767C134.07 27.1648 134.083 27.0553 134.1 26.9269C134.115 26.8111 134.128 26.6797 134.085 26.5467C134.135 25.9536 134.106 25.2557 134.081 24.6384C134.07 24.3787 134.062 24.1314 134.057 23.9022V23.8959L134.055 23.8881C134.02 23.5978 134.028 23.2857 134.039 22.9805C134.047 22.7083 134.055 22.4305 134.028 22.1723C134.094 21.8774 134.089 21.6082 134.085 21.3226C134.083 21.1928 134.081 21.0613 134.085 20.9205V20.8853L134.077 20.8657C134.141 20.7922 134.155 20.7132 134.122 20.6365C134.152 20.5246 134.157 20.4229 134.159 20.3306C134.163 20.2555 134.165 20.1835 134.181 20.1209L134.188 20.0872L134.18 20.0536C134.16 19.9894 134.178 19.919 134.196 19.8416C134.215 19.7485 134.241 19.6413 134.202 19.5325C134.313 19.3111 134.337 19.0388 134.359 18.7759L134.368 18.6844C134.376 18.6281 134.357 18.5725 134.311 18.5271C134.311 18.5209 134.311 18.5162 134.311 18.5162C134.311 18.4004 134.371 18.3065 134.447 18.1876C134.531 18.0577 134.626 17.9083 134.65 17.7095L134.655 17.6759L134.652 17.6696C134.663 17.6571 134.671 17.6469 134.684 17.6376C134.736 17.5977 134.813 17.5304 134.81 17.4255C134.81 17.406 134.807 17.3888 134.802 17.3708C134.9 17.2823 134.959 17.183 135.015 17.0938C135.095 16.9561 135.152 16.8614 135.312 16.816L135.387 16.7949L135.407 16.7167C135.431 16.6298 135.507 16.5821 135.628 16.5054C135.719 16.4491 135.819 16.3849 135.894 16.2887C135.996 16.2981 136.057 16.2723 136.094 16.2324C136.219 16.2019 136.313 16.1283 136.391 16.0673C136.522 15.9632 136.565 15.9405 136.653 15.9836L136.74 16.0203L136.797 15.9656C136.8 15.9656 136.806 15.964 136.806 15.964C136.85 15.9515 136.919 15.9335 136.962 15.8662C137 15.8584 137.037 15.8482 137.065 15.8388C137.137 15.813 137.155 15.8114 137.18 15.8232C137.206 15.8388 137.254 15.8568 137.312 15.8427L137.317 15.8521L137.421 15.838L137.558 15.8224C137.966 15.7692 138.317 15.7246 138.635 15.8928L138.749 15.9523L138.819 15.8513C138.833 15.867 138.848 15.8834 138.86 15.9006C138.943 15.9906 139.085 16.1463 139.291 16.1119C139.336 16.1533 139.386 16.1823 139.433 16.2081C139.451 16.2191 139.475 16.2339 139.494 16.2449V16.2527L139.52 16.2879C139.585 16.3732 139.722 16.4147 139.83 16.4194C140.072 16.6682 140.313 17.0109 140.313 17.1587V17.298H140.417C140.417 17.3027 140.417 17.3043 140.417 17.3058C140.459 17.4905 140.513 17.7197 140.658 17.8731C140.616 17.9662 140.651 18.0796 140.667 18.1266C140.672 18.1422 140.678 18.1618 140.681 18.1798L140.647 18.2838L140.739 18.3769L140.761 18.3894C140.754 18.4841 140.798 18.5741 140.832 18.6367C140.839 18.6547 140.847 18.6719 140.856 18.6914L140.833 18.7415C140.704 18.9833 140.876 19.1171 140.958 19.1804C140.97 19.193 140.977 19.1984 140.988 19.2047C140.925 19.2524 140.927 19.3041 140.913 19.3878L140.925 19.495L140.967 19.5654C140.972 19.5669 140.97 19.5669 140.972 19.5669C140.973 19.5716 140.973 19.5779 140.976 19.581C140.984 19.6006 140.993 19.6303 141.01 19.6624L140.962 19.7101L140.928 19.8353L140.998 19.9347L141.054 19.9636C141.051 20.0184 141.076 20.0708 141.091 20.1044C141.095 20.1107 141.096 20.1209 141.101 20.1256L141.087 20.1882C141.039 20.4174 140.982 20.7171 141.125 20.9549C141.121 20.9612 141.117 20.9659 141.113 20.969C141.047 21.059 141.063 21.1599 141.076 21.2334C141.077 21.2561 141.087 21.296 141.082 21.3086L141.045 21.4541C141.043 21.4603 141.095 21.4736 141.132 21.4815C141.128 21.4955 141.121 21.5088 141.12 21.5245L141.088 21.6911H141.144C141.136 21.749 141.133 21.803 141.132 21.85C141.13 21.9353 141.127 21.9908 141.096 22.0315L141.085 22.0511L141.079 22.0753C141.037 22.2247 141.093 22.3671 141.139 22.4845C141.147 22.5056 141.155 22.526 141.162 22.5455C141.139 22.5745 141.115 22.6112 141.118 22.6676C141.118 22.6801 141.123 22.6903 141.126 22.6997L141.094 22.7317L141.123 22.8115C141.139 22.8608 141.166 22.8882 141.2 22.9078L141.177 22.914C141.173 22.914 141.173 23.0228 141.173 23.0228V23.0611L141.085 23.0885L141.127 23.18C141.107 23.2215 141.082 23.2825 141.107 23.3514L141.046 23.4586C141.049 23.457 141.058 23.5227 141.112 23.5486C141.054 23.7395 141.194 23.8803 141.28 23.964C141.314 23.9977 141.336 24.025 141.352 24.0454H141.281L141.333 24.2269L141.336 24.2316C141.324 24.241 141.312 24.2574 141.299 24.2715L141.183 24.3263L141.221 24.482L141.21 24.5219C141.181 24.6032 141.204 24.6564 141.227 24.6932C141.232 24.6979 141.238 24.7026 141.243 24.7088C141.2 24.7488 141.154 24.8098 141.143 24.9029L141.131 25.0359L141.24 25.0523C141.228 25.0813 141.221 25.1087 141.214 25.1345C141.2 25.1822 141.19 25.2244 141.166 25.2581L141.168 25.2612C141.163 25.2643 141.16 25.2722 141.157 25.2777L141.347 25.3833C141.321 25.431 141.304 25.4826 141.294 25.5178C141.288 25.539 141.28 25.564 141.274 25.5757C141.269 25.5757 141.265 25.5757 141.26 25.5757L141.1 25.5773L141.11 25.7588C141.119 25.7862 141.124 25.8183 141.126 25.8566C141.129 25.8903 141.132 25.927 141.143 25.9685V26.1516C141.143 26.1743 141.143 26.2126 141.152 26.2525L141.129 26.2635L141.145 26.366C141.153 26.416 141.15 26.4685 141.145 26.5154C141.143 26.5444 141.139 26.5796 141.14 26.6101L141.013 26.6758L141.169 26.8487C141.168 26.8503 141.166 26.855 141.166 26.855C141.147 26.898 141.126 26.9528 141.126 27.0185H141.012L141.204 27.2509C141.22 27.2673 141.235 27.3213 141.244 27.358C141.247 27.3612 141.249 27.3674 141.249 27.3721C141.172 27.4472 141.16 27.5615 141.154 27.6194C141.149 27.6467 141.146 27.6851 141.138 27.696C141.138 27.696 141.139 27.6945 141.143 27.6929L141.192 27.7586C141.154 27.786 141.131 27.8165 141.118 27.8423C141.099 27.8869 141.095 27.9339 141.102 27.9754H140.917L141.069 28.1264L140.926 28.1741L141.044 28.2703V28.6451C141.044 28.7139 141.078 28.7718 141.135 28.7992C141.138 28.8008 141.139 28.8008 141.139 28.8008C141.218 28.8524 141.301 28.8509 141.369 28.8344V28.9917L141.55 28.9369C141.684 28.897 141.785 28.8908 141.892 28.9127L142.04 28.9416L142.06 28.7922C142.133 28.2312 142.117 27.6874 142.103 27.1617C142.089 26.6484 142.076 26.1625 142.145 25.6868C142.183 25.5898 142.141 25.503 142.112 25.46Z" fill="white"/>
<path d="M163.584 25.6493L163.618 25.6297L163.616 25.5499L163.587 23.0251V23.0189V23.0111C163.541 22.6308 163.532 22.2122 163.523 21.767C163.51 21.2655 163.5 20.7491 163.434 20.2938C163.419 19.6381 163.289 18.9387 163.163 18.2596L163.077 17.7964L163.069 17.7549L163.038 17.7213C162.937 17.6203 162.901 17.4936 162.863 17.3457C162.83 17.2205 162.796 17.0938 162.718 16.9725C162.548 16.6635 162.276 16.3646 162.038 16.1001L162.025 16.0861C161.967 16.0063 161.898 15.9624 161.836 15.9257C161.801 15.9014 161.766 15.8795 161.732 15.8474L161.677 15.8013L161.643 15.8091L161.599 15.7739C161.384 15.6041 161.186 15.5384 160.952 15.4609L160.946 15.4594C160.88 15.3647 160.752 15.3506 160.665 15.3459V15.2849L160.543 15.2669L159.979 15.1847L159.896 15.1707L159.846 15.2395C159.826 15.2653 159.82 15.2716 159.697 15.2301C159.645 15.2121 159.585 15.1887 159.52 15.1824L159.454 15.1761L159.422 15.2082C159.404 15.1926 159.383 15.1824 159.357 15.1699L159.122 15.0979L159.104 15.2051C158.999 15.2051 158.91 15.2262 158.834 15.2646H158.46L158.115 15.2661L158.157 15.3991C158.151 15.4023 158.151 15.4038 158.148 15.4069C157.997 15.3655 157.878 15.4586 157.815 15.5126C157.804 15.5235 157.791 15.5321 157.784 15.5384C157.66 15.5595 157.592 15.6104 157.541 15.6487C157.504 15.6745 157.493 15.6855 157.459 15.687L157.401 15.6917L157.361 15.7395C157.313 15.8021 157.148 15.8693 157.059 15.9124L156.869 15.9945L156.912 16.0344C156.883 16.0485 156.849 16.0681 156.82 16.0939H156.637V16.241C156.631 16.241 156.62 16.2379 156.617 16.2363L156.513 16.1933C156.505 16.1886 156.439 16.2801 156.439 16.2801C156.328 16.4342 156.182 16.5891 156.027 16.7511C155.846 16.9404 155.662 17.1376 155.519 17.352L155.472 17.4161L155.501 17.4787C155.469 17.4999 155.382 17.5538 155.364 17.6563C155.295 17.7314 155.28 17.8355 155.269 17.9012C155.266 17.9223 155.26 17.9513 155.256 17.9623C155.181 18.0554 155.163 18.1453 155.15 18.2126C155.142 18.2658 155.136 18.2963 155.113 18.3245L155.024 18.4387L155.064 18.4677C155.037 18.5365 155.037 18.6085 155.037 18.6508C155.037 18.6672 155.034 18.6954 155.032 18.7102L154.974 18.7454L154.988 18.8354C155.012 19.0146 154.989 19.1765 154.967 19.3534C154.944 19.5216 154.922 19.6913 154.939 19.8823C154.87 19.9863 154.889 20.1115 154.899 20.1897C154.902 20.2171 154.908 20.2523 154.907 20.268L154.815 20.34L154.881 20.4471C154.93 20.5285 154.89 20.6592 154.853 20.7836C154.819 20.9025 154.776 21.0512 154.819 21.1763C154.808 21.1857 154.798 21.1959 154.789 21.2115C154.772 21.2327 154.761 21.2694 154.763 21.3172C154.763 21.4118 154.752 21.4408 154.747 21.4502L154.682 21.5863L154.67 21.6411L154.791 21.7248C154.777 21.8069 154.788 21.8821 154.799 21.9478C154.813 22.0393 154.817 22.0792 154.789 22.1144L154.712 22.2537L154.788 22.3405C154.788 22.3484 154.788 22.3562 154.788 22.3632C154.783 22.4243 154.777 22.5361 154.856 22.6167C154.857 22.6332 154.862 22.6472 154.863 22.6613L154.726 22.6981L154.817 22.889C154.814 22.9031 154.811 22.9195 154.806 22.9367C154.79 22.9915 154.767 23.1034 154.824 23.2012C154.781 23.3115 154.808 23.421 154.827 23.493C154.832 23.5126 154.838 23.5407 154.841 23.5587C154.711 23.6949 154.774 23.8748 154.811 23.9695C154.748 24.0626 154.763 24.1745 154.775 24.2386L154.6 24.2981L154.78 24.4827C154.771 24.5242 154.771 24.5696 154.8 24.622C154.821 24.6525 154.849 24.6713 154.875 24.6846L154.82 24.7002C154.822 24.7096 154.825 24.7128 154.828 24.7182H154.826L154.889 24.8833L154.888 24.899C154.872 24.9952 154.896 25.0914 154.943 25.1619C154.926 25.1845 154.915 25.2096 154.914 25.2417L154.843 25.3105L154.912 25.4083C154.966 25.4866 154.945 25.5844 154.904 25.7416C154.871 25.8778 154.827 26.0514 154.908 26.2032L154.811 26.2995L154.935 26.3879C154.93 26.3941 154.926 26.4004 154.924 26.4059C154.892 26.4653 154.834 26.5741 154.906 26.6914L154.9 26.6774C154.926 26.7337 154.914 26.8252 154.901 26.9246C154.885 27.067 154.864 27.2391 154.941 27.4089L154.919 27.5787L154.922 27.5607C154.902 27.6248 154.919 27.6812 154.938 27.7242L154.885 27.75L154.922 27.8658C154.963 27.991 154.963 28.1451 154.963 28.3047C154.967 28.6091 154.967 28.9541 155.242 29.2155L155.302 29.2749L155.382 29.2507C155.589 29.1896 155.597 28.9862 155.605 28.8751C155.605 28.854 155.607 28.8305 155.61 28.811L155.612 28.782L155.605 28.7531C155.523 28.4737 155.556 28.1084 155.587 27.786C155.595 27.6992 155.603 27.6194 155.61 27.5411L155.612 27.5012L155.595 27.4676C155.538 27.3541 155.552 27.243 155.569 27.1147C155.583 27.0005 155.597 26.8675 155.553 26.7345C155.603 26.1445 155.575 25.4467 155.55 24.8262C155.539 24.5649 155.531 24.3177 155.526 24.0939L155.524 24.0845V24.0751C155.489 23.7864 155.5 23.4719 155.508 23.1707C155.516 22.8968 155.524 22.6175 155.5 22.3609C155.563 22.0675 155.561 21.7952 155.553 21.5112C155.552 21.3829 155.547 21.2468 155.553 21.109V21.0723L155.545 21.0558C155.61 20.9807 155.626 20.9017 155.59 20.8219C155.621 20.7132 155.626 20.6099 155.631 20.516C155.632 20.4424 155.634 20.3752 155.649 20.311L155.657 20.2742L155.647 20.2406C155.631 20.178 155.647 20.106 155.664 20.0325C155.683 19.9378 155.708 19.829 155.67 19.7195C155.781 19.4981 155.805 19.2274 155.827 18.9629L155.836 18.8745C155.844 18.8151 155.825 18.7611 155.779 18.7141V18.7047C155.779 18.5874 155.838 18.4935 155.915 18.3761C155.999 18.2447 156.094 18.0992 156.118 17.895L156.123 17.8629L156.12 17.8566C156.129 17.8472 156.139 17.8371 156.152 17.8277C156.201 17.7831 156.281 17.7174 156.278 17.6141C156.278 17.5961 156.275 17.5742 156.268 17.5578C156.365 17.4693 156.428 17.37 156.482 17.28C156.562 17.147 156.619 17.0492 156.779 17.0062L156.856 16.9819L156.876 16.9068C156.898 16.82 156.974 16.7707 157.097 16.6948C157.186 16.6384 157.286 16.5743 157.362 16.478C157.463 16.4874 157.528 16.4585 157.562 16.4201C157.684 16.3912 157.78 16.3192 157.859 16.2566C157.989 16.1526 158.033 16.1299 158.12 16.1713L158.209 16.2112L158.264 16.1565C158.27 16.1534 158.274 16.1534 158.278 16.1534C158.317 16.144 158.389 16.1197 158.429 16.0556C158.467 16.0462 158.503 16.0376 158.533 16.0266C158.604 16.0023 158.621 15.9992 158.648 16.0125C158.675 16.0266 158.722 16.0446 158.78 16.0305L158.785 16.0399L158.889 16.0258L159.026 16.0102C159.434 15.957 159.785 15.9139 160.103 16.0822L160.216 16.1447L160.287 16.0423C160.301 16.0579 160.314 16.0759 160.328 16.0884C160.409 16.1784 160.553 16.3357 160.759 16.2997C160.804 16.3396 160.856 16.3716 160.901 16.399C160.919 16.4084 160.944 16.4233 160.959 16.4327V16.4389L160.988 16.4773C161.053 16.561 161.19 16.6024 161.298 16.6071C161.538 16.8559 161.781 17.1971 161.781 17.3481V17.4858H161.885L161.888 17.4967C161.927 17.6829 161.979 17.9106 162.125 18.0593C162.084 18.1539 162.119 18.269 162.135 18.3159C162.141 18.33 162.146 18.3527 162.151 18.3675L162.115 18.4732L162.209 18.5663L162.227 18.5772C162.222 18.6734 162.269 18.7666 162.3 18.8276C162.306 18.8432 162.315 18.8628 162.321 18.8808L162.301 18.9309C162.175 19.1711 162.344 19.3056 162.426 19.3698C162.438 19.3792 162.447 19.3862 162.456 19.3956C162.393 19.4449 162.395 19.4918 162.382 19.5787L162.393 19.6843L162.435 19.7532L162.44 19.7547C162.441 19.7594 162.444 19.7641 162.444 19.7688C162.452 19.7915 162.461 19.8189 162.478 19.851L162.43 19.8987L162.396 20.0223L162.469 20.1264L162.521 20.1522C162.519 20.2085 162.544 20.2594 162.558 20.2946C162.563 20.3008 162.564 20.3087 162.566 20.3141L162.555 20.3767C162.507 20.6075 162.447 20.9056 162.593 21.1466C162.589 21.1497 162.585 21.1529 162.585 21.1529C162.515 21.246 162.532 21.3469 162.544 21.4204C162.545 21.4447 162.555 21.4862 162.55 21.4987L162.515 21.6411C162.513 21.6489 162.559 21.6606 162.602 21.6685C162.596 21.6825 162.591 21.6958 162.586 21.7131L162.555 21.8797H162.614C162.601 21.936 162.601 21.99 162.6 22.037C162.598 22.1223 162.595 22.1778 162.564 22.2216L162.553 22.2412L162.547 22.2623C162.505 22.4149 162.561 22.5557 162.605 22.6715C162.615 22.6926 162.623 22.7161 162.63 22.7357C162.605 22.763 162.583 22.7982 162.585 22.853C162.585 22.8671 162.591 22.8773 162.594 22.8898L162.563 22.9187L162.591 23.0024C162.605 23.047 162.634 23.0776 162.671 23.094L162.645 23.0987C162.641 23.1002 162.641 23.2106 162.641 23.2106V23.2505L162.553 23.2732L162.598 23.3663C162.575 23.4109 162.55 23.4688 162.575 23.5392L162.514 23.6464C162.514 23.6464 162.525 23.7105 162.58 23.7363C162.522 23.9288 162.663 24.0681 162.744 24.1502C162.78 24.1886 162.804 24.2112 162.82 24.2339H162.749L162.803 24.4131L162.804 24.4178C162.792 24.4319 162.78 24.4436 162.767 24.4593L162.651 24.5156L162.688 24.6697L162.675 24.7096C162.651 24.791 162.672 24.8473 162.693 24.8794C162.7 24.8872 162.706 24.8888 162.71 24.8951C162.668 24.9381 162.622 24.996 162.613 25.0891L162.599 25.2221L162.708 25.2401C162.699 25.2675 162.689 25.2949 162.682 25.3199C162.668 25.3731 162.658 25.4146 162.634 25.4482H162.636C162.634 25.4545 162.628 25.4607 162.626 25.4662L162.815 25.5703C162.789 25.6203 162.772 25.6681 162.762 25.708C162.754 25.7244 162.745 25.751 162.739 25.7627C162.739 25.7627 162.733 25.7627 162.728 25.7627L162.568 25.7643L162.576 25.949C162.585 25.9763 162.59 26.0053 162.592 26.0452C162.597 26.0788 162.6 26.1172 162.611 26.1571V26.3386C162.611 26.3628 162.612 26.3996 162.62 26.4395L162.599 26.452L162.613 26.5545C162.622 26.6046 162.618 26.6555 162.613 26.7055C162.61 26.7329 162.61 26.765 162.61 26.8002L162.479 26.8628L162.637 27.0357C162.636 27.0373 162.634 27.0435 162.634 27.0467C162.618 27.0881 162.594 27.1445 162.594 27.207H162.48L162.672 27.4379C162.688 27.4558 162.703 27.5098 162.714 27.545C162.715 27.5529 162.717 27.5576 162.717 27.5615C162.64 27.6366 162.628 27.7461 162.622 27.8087C162.617 27.833 162.614 27.8713 162.609 27.8838V27.8807L162.657 27.9448C162.622 27.9722 162.599 28.0043 162.585 28.0301C162.563 28.0747 162.563 28.1185 162.569 28.1616H162.385L162.538 28.3141L162.393 28.3603L162.511 28.4581V28.8352C162.511 28.9025 162.547 28.9573 162.599 28.9878C162.599 28.9878 162.608 28.9909 162.611 28.9909C162.685 29.041 162.768 29.0371 162.837 29.023V29.1771L163.018 29.1239C163.152 29.084 163.253 29.0762 163.358 29.0981L163.508 29.1286L163.528 28.9776C163.601 28.4198 163.585 27.8729 163.571 27.3487C163.557 26.8354 163.545 26.3511 163.61 25.8754C163.655 25.7823 163.612 25.697 163.584 25.6493Z" fill="white"/>
<path d="M167.862 0.747192H128.867V39.4868H167.862V0.747192ZM165.797 37.4431H130.922V2.79472H165.797V37.4431Z" fill="white"/>
</g>
<defs>
<clipPath id="clip0_383_477">
<rect width="348" height="40" fill="white"/>
</clipPath>
</defs>
</svg>
