<?xml version="1.0" encoding="UTF-8" standalone="no"?>
<!-- Created with Inkscape (http://www.inkscape.org/) -->

<svg
   xmlns:dc="http://purl.org/dc/elements/1.1/"
   xmlns:cc="http://creativecommons.org/ns#"
   xmlns:rdf="http://www.w3.org/1999/02/22-rdf-syntax-ns#"
   xmlns:svg="http://www.w3.org/2000/svg"
   xmlns="http://www.w3.org/2000/svg"
   xmlns:sodipodi="http://sodipodi.sourceforge.net/DTD/sodipodi-0.dtd"
   xmlns:inkscape="http://www.inkscape.org/namespaces/inkscape"
   width="174.99733"
   height="34.610359"
   viewBox="0 0 46.301376 9.1573245"
   version="1.1"
   id="svg24293"
   inkscape:version="0.92.0 r15299"
   sodipodi:docname="unicredit.svg">
  <defs
     id="defs24287" />
  <sodipodi:namedview
     id="base"
     pagecolor="#ffffff"
     bordercolor="#666666"
     borderopacity="1.0"
     inkscape:pageopacity="0.0"
     inkscape:pageshadow="2"
     inkscape:zoom="5.1552522"
     inkscape:cx="86.998667"
     inkscape:cy="16.804388"
     inkscape:document-units="mm"
     inkscape:current-layer="layer1"
     showgrid="false"
     fit-margin-top="0"
     fit-margin-left="0"
     fit-margin-right="0"
     fit-margin-bottom="0"
     units="px"
     inkscape:window-width="1280"
     inkscape:window-height="744"
     inkscape:window-x="-4"
     inkscape:window-y="-4"
     inkscape:window-maximized="1" />
  <metadata
     id="metadata24290">
    <rdf:RDF>
      <cc:Work
         rdf:about="">
        <dc:format>image/svg+xml</dc:format>
        <dc:type
           rdf:resource="http://purl.org/dc/dcmitype/StillImage" />
        <dc:title></dc:title>
      </cc:Work>
    </rdf:RDF>
  </metadata>
  <g
     inkscape:label="Layer 1"
     inkscape:groupmode="layer"
     id="layer1"
     transform="translate(-69.963747,-181.16384)">
    <g
       id="g24371"
       transform="translate(0.13229191,-0.13228833)">
      <path
         d="m 85.396023,182.164 v 5.59999 c 0,1.23402 -1.081264,2.17241 -2.509308,2.17241 -1.428045,0 -2.509309,-0.93839 -2.509309,-2.17241 v -4.28413 c 0,-0.72425 0.581731,-1.31586 1.305631,-1.31586 h 0.09207 v 5.58976 c 0,0.66287 0.591256,1.07104 1.162755,1.07104 0.550687,0 1.142295,-0.37748 1.142295,-1.07104 v -4.34516 c 0,-0.68368 0.561269,-1.2446 1.2446,-1.2446 z"
         style="fill:#000000;fill-opacity:1;fill-rule:nonzero;stroke:none;stroke-width:0.35277778"
         id="path23713"
         inkscape:connector-curvature="0" />
      <path
         d="m 88.149568,184.14285 c 1.907117,0 2.213328,1.07103 2.213328,1.71379 v 3.99839 h -0.06103 c -0.703791,0 -1.30563,-0.59161 -1.30563,-1.29576 v -2.68216 c 0,-0.37748 -0.153106,-0.82656 -0.89782,-0.82656 -0.34678,0 -0.550686,0.0409 -0.775053,0.12241 v 4.68207 H 85.95635 v -5.29379 c 0.581377,-0.25505 1.520119,-0.41839 2.193219,-0.41839"
         style="fill:#000000;fill-opacity:1;fill-rule:nonzero;stroke:none;stroke-width:0.35277778"
         id="path23717"
         inkscape:connector-curvature="0" />
      <path
         d="m 92.315988,184.14285 v 4.42701 c 0,0.70344 -0.5715,1.28517 -1.285169,1.28517 h -0.06138 v -5.71218 z m -0.6731,-1.97873 c 0.407811,0 0.734131,0.30586 0.734131,0.68333 0,0.36724 -0.32632,0.66287 -0.734131,0.66287 -0.408164,0 -0.744714,-0.29563 -0.744714,-0.66287 0,-0.37747 0.33655,-0.68333 0.744714,-0.68333"
         style="fill:#000000;fill-opacity:1;fill-rule:nonzero;stroke:none;stroke-width:0.35277778"
         id="path23721"
         inkscape:connector-curvature="0" />
      <path
         d="m 96.199754,182.05185 c 0.642408,0 1.244247,0.14287 1.744133,0.44873 v 1.34656 c -0.305858,-0.39794 -0.744714,-0.67346 -1.448505,-0.67346 -1.387122,0 -2.24402,1.36702 -2.24402,2.78483 0,1.33632 0.89782,2.79471 2.24402,2.79471 0.591608,0 1.132416,-0.17322 1.448505,-0.60184 v 1.32609 c -0.397933,0.29598 -1.01988,0.45896 -1.754716,0.45896 -2.202745,0 -3.365853,-2.0193 -3.365853,-3.96769 0,-1.9177 1.163108,-3.91689 3.376436,-3.91689"
         style="fill:#000000;fill-opacity:1;fill-rule:nonzero;stroke:none;stroke-width:0.35277778"
         id="path23725"
         inkscape:connector-curvature="0" />
      <path
         d="m 100.35932,184.14285 c 0.22437,0 0.51012,0.0205 0.76517,0.061 v 1.09149 c -0.46954,-0.33655 -1.09184,-0.22436 -1.367009,-0.0815 v 3.35598 c 0,0.70344 -0.581378,1.28517 -1.285169,1.28517 h -0.07161 v -5.27368 c 0.530578,-0.25506 1.071033,-0.4385 1.958618,-0.4385"
         style="fill:#000000;fill-opacity:1;fill-rule:nonzero;stroke:none;stroke-width:0.35277778"
         id="path23729"
         inkscape:connector-curvature="0" />
      <path
         d="m 104.67391,186.28491 c -0.0409,-1.13242 -0.74471,-1.25448 -1.12219,-1.25448 h -0.0508 c -0.76517,0.0201 -1.12218,0.56092 -1.12218,1.57057 z m 1.18322,0.77505 -3.3969,0.4692 c 0.11218,0.92816 0.58138,1.41781 1.43827,1.41781 0.94862,0 1.42805,-0.30586 1.77483,-0.55069 v 1.13207 c -0.34678,0.1838 -0.98954,0.40816 -1.90747,0.40816 -1.66264,0 -2.65183,-1.12218 -2.65183,-2.91747 0,-1.74413 0.91793,-2.8762 2.42746,-2.8762 1.48943,0 2.31564,0.98955 2.31564,2.70299 z"
         style="fill:#000000;fill-opacity:1;fill-rule:nonzero;stroke:none;stroke-width:0.35277778"
         id="path23733"
         inkscape:connector-curvature="0" />
      <path
         d="m 109.41858,185.24455 c -0.14287,-0.0409 -0.29563,-0.061 -0.46919,-0.061 -1.12219,0 -1.35679,1.08091 -1.35679,1.97873 0,1.25448 0.4184,1.87678 1.26506,1.87678 0.14253,0 0.45897,-0.0307 0.56092,-0.0512 z m 1.33632,-3.08046 v 7.6193 c -0.32667,0.0716 -1.3977,0.1531 -1.84644,0.1531 h -0.0917 c -1.66264,-0.0205 -2.57034,-0.97931 -2.57034,-2.70298 0,-1.74413 0.94862,-2.86632 2.41724,-2.86632 0.28575,0 0.53057,0.0307 0.74471,0.0819 v -0.98955 c 0,-0.71402 0.57115,-1.2954 1.28517,-1.2954 z"
         style="fill:#000000;fill-opacity:1;fill-rule:nonzero;stroke:none;stroke-width:0.35277778"
         id="path23737"
         inkscape:connector-curvature="0" />
      <path
         d="m 112.73814,184.14285 v 4.42701 c 0,0.70344 -0.57115,1.28517 -1.28517,1.28517 h -0.0614 v -5.71218 z m -0.67345,-1.97873 c 0.40816,0 0.73483,0.30586 0.73483,0.68333 0,0.36724 -0.32667,0.66287 -0.73483,0.66287 -0.40781,0 -0.74436,-0.29563 -0.74436,-0.66287 0,-0.37747 0.33655,-0.68333 0.74436,-0.68333"
         style="fill:#000000;fill-opacity:1;fill-rule:nonzero;stroke:none;stroke-width:0.35277778"
         id="path23741"
         inkscape:connector-curvature="0" />
      <path
         d="m 115.12318,182.164 v 1.97873 h 0.87736 v 1.09149 h -0.87736 v 3.02966 c 0,0.36689 0.12241,0.47907 0.51999,0.47907 0.10196,0 0.25506,-0.0307 0.35737,-0.0713 v 1.13207 c -0.0614,0.0205 -0.32667,0.13264 -0.68369,0.13264 -0.99941,0 -1.55045,-0.4893 -1.55045,-1.37689 v -3.32529 h -0.59161 v -1.09149 h 0.59161 v -0.69356 c 0,-0.70379 0.57114,-1.28517 1.27529,-1.28517 z"
         style="fill:#000000;fill-opacity:1;fill-rule:nonzero;stroke:none;stroke-width:0.35277778"
         id="path23745"
         inkscape:connector-curvature="0" />
      <path
         d="m 74.591842,183.72507 0.0081,-0.0116 c 0.06844,-0.10019 0.03986,-0.17427 -0.006,-0.21414 L 73.87535,183.0562 c -0.04974,-0.0335 -0.08255,-0.0903 -0.08255,-0.15522 0,-0.1023 0.06103,-0.17956 0.200025,-0.21802 0.443089,-0.1217 2.001661,-0.18556 2.531181,-0.18556 0.183797,0 0.500239,-7e-4 0.784225,0.007 l -0.01235,-0.012 c -0.776464,-0.66358 -1.78435,-1.06398 -2.886075,-1.06398 -2.455686,0 -4.446059,1.99037 -4.446059,4.44606 0,1.0795 0.384528,2.06904 1.024467,2.83915 0.558447,-0.80292 1.937103,-2.78306 2.239433,-3.18734 0.348192,-0.46602 1.141942,-1.50284 1.27635,-1.67852 l 0.0067,-0.008 z"
         style="fill:#e2001a;fill-opacity:1;fill-rule:evenodd;stroke:none;stroke-width:0.35277778"
         id="path23749"
         inkscape:connector-curvature="0" />
      <path
         d="m 71.698782,189.39935 c 0.750358,0.57785 1.690511,0.92181 2.711097,0.92181 2.455686,0 4.446058,-1.99037 4.446058,-4.44606 0,-0.7433 -0.182033,-1.44357 -0.504472,-2.05916 l 3.53e-4,3.5e-4 c 0.153105,-0.14746 0.329494,-0.381 0.213431,-0.67345 -0.03598,-0.0871 -0.208845,-0.2847 -0.253295,-0.33267 l 0.006,0.0169 c 0.108303,0.32667 -0.105833,0.53128 -0.259644,0.67063 -0.08431,0.0765 -1.213203,1.14088 -2.537178,2.2987 -1.166989,1.02023 -2.472266,2.05846 -3.228269,2.62467 -1.063625,0.79622 -1.270706,0.91193 -1.270706,0.91193 -0.02787,0.0152 -0.07479,0.0282 -0.109361,0.0282 -0.06491,0 -0.121355,-0.0293 -0.156986,-0.0755 l -0.0011,-0.002 -0.0025,0.0342 c 0.113947,0.1845 0.303036,0.39864 0.413103,0.39864 0.03457,0 0.08149,-0.013 0.109714,-0.0279 0,0 0.08325,-0.0466 0.423686,-0.28963"
         style="fill:#e2001a;fill-opacity:1;fill-rule:evenodd;stroke:none;stroke-width:0.35277778"
         id="path23753"
         inkscape:connector-curvature="0" />
      <path
         d="m 74.597927,183.71343 c 0.06844,-0.0998 0.03986,-0.17427 -0.006,-0.21414 l -0.718609,-0.44273 c -0.04974,-0.0335 -0.08255,-0.0903 -0.08255,-0.15558 0,-0.10195 0.06103,-0.17921 0.200025,-0.21801 0.443442,-0.12171 2.001662,-0.18521 2.531181,-0.18521 0.250119,0 0.745067,-0.002 1.071033,0.0197 0.365478,0.024 0.643114,0.0995 0.711906,0.27658 0.135114,0.34643 -0.08855,0.56021 -0.24765,0.70415 -0.08431,0.0769 -1.213203,1.14123 -2.536825,2.2987 -1.167342,1.02023 -2.47262,2.05881 -3.228622,2.62501 -1.063625,0.79587 -1.270353,0.91158 -1.270353,0.91158 -0.02822,0.0152 -0.07514,0.0282 -0.109361,0.0282 -0.11042,0 -0.19685,-0.0843 -0.19685,-0.19473 0,-0.042 0.0127,-0.0811 0.03457,-0.11289 0,0 2.094795,-3.01731 2.475794,-3.52742 0.381,-0.51012 1.296106,-1.70357 1.296106,-1.70357 0,0 0.01058,-0.0137 0.0762,-0.10971"
         style="fill:#ffffff;fill-opacity:1;fill-rule:evenodd;stroke:none;stroke-width:0.35277778"
         id="path23757"
         inkscape:connector-curvature="0" />
    </g>
  </g>
</svg>
