<svg width="190" height="40" viewBox="0 0 190 40" fill="none" xmlns="http://www.w3.org/2000/svg">
<g clip-path="url(#clip0_361_6048)">
<path d="M173.248 8.67133C165.57 9.23077 159.427 15.5245 158.869 23.2168C158.31 32.3077 165.43 39.8601 174.365 39.8601C177.575 39.8601 181.903 38.1818 183.858 34.8252V39.4406H189.861V24.6154C190.14 14.8252 182.322 7.97203 173.248 8.67133ZM183.439 24.6154C183.16 29.7902 178.692 33.7063 173.387 33.007C169.339 32.4476 166.128 29.2308 165.57 25.1748C165.011 19.7203 169.199 15.1049 174.504 15.1049C179.251 15.1049 183.16 18.8811 183.439 23.6364V24.6154Z" fill="white"/>
<path d="M140.302 8.67133C132.065 8.95105 125.085 15.2448 125.085 24.4755C125.085 32.8671 131.926 40 140.721 40C146.863 40 152.866 36.3636 155.239 30.3497L149.236 28.5315C148.119 31.049 145.467 33.1469 142.535 33.7063C138.347 34.5455 134.438 31.8881 132.903 29.0909L156.216 22.6573C155.518 16.5035 150.214 8.39161 140.302 8.67133ZM131.646 23.4965C131.646 20.2797 133.601 16.5035 137.789 14.965C142.535 13.1469 146.723 15.5245 148.538 18.8811L131.646 23.4965Z" fill="white"/>
<path d="M89.0672 14.965V8.53146C83.2039 8.53146 81.2495 11.4685 80.2722 13.007V9.51049H73.5713V23.7762V39.3007H80.4118C80.4118 30.0699 80.4118 30.2098 80.4118 24.6154C80.4118 17.9021 84.3207 15.2448 89.0672 14.965Z" fill="white"/>
<path d="M27.5019 27.4126L7.11981 3.35664H0.139648V39.3007H7.39902V15.2448L28.0603 39.4406H34.3424V3.35664H27.5019V27.4126Z" fill="white"/>
<path d="M121.036 0.139862H114.615V11.8881C113.079 9.93007 108.332 8.25175 104.284 8.67133C96.6057 9.23077 90.4632 15.5245 89.9048 23.2168C89.3464 32.3077 96.4661 39.8601 105.401 39.8601C108.751 39.8601 113.358 38.3217 114.894 35.3846V39.3007H120.897V24.4755C120.897 24.3357 120.897 24.3357 120.897 24.1958C120.897 24.0559 120.897 24.0559 120.897 23.9161L121.036 0.139862ZM114.335 24.6154C114.056 29.7902 109.589 33.7063 104.284 33.007C100.235 32.4476 97.0245 29.2308 96.4661 25.1748C95.9077 19.7203 100.096 15.1049 105.401 15.1049C110.147 15.1049 114.056 18.8811 114.335 23.6364V24.6154Z" fill="white"/>
<path d="M54.0262 8.53146C45.3708 8.53146 38.3906 15.5245 38.3906 24.1958C38.3906 32.8671 45.3708 39.8601 54.0262 39.8601C62.6816 39.8601 69.6618 32.8671 69.6618 24.1958C69.5221 15.5245 62.542 8.53146 54.0262 8.53146ZM54.0262 33.1468C49.1401 33.1468 45.0916 29.0909 45.0916 24.1958C45.0916 19.3007 49.1401 15.2448 54.0262 15.2448C58.9123 15.2448 62.9608 19.3007 62.9608 24.1958C62.9608 29.2308 58.9123 33.1468 54.0262 33.1468Z" fill="white"/>
</g>
<defs>
<clipPath id="clip0_361_6048">
<rect width="190" height="40" fill="white"/>
</clipPath>
</defs>
</svg>
