<svg width="71" height="40" viewBox="0 0 71 40" fill="none" xmlns="http://www.w3.org/2000/svg">
<g clip-path="url(#clip0_366_11)">
<path d="M14.0149 13.2608C11.2342 13.2608 8.66385 14.2044 6.57373 15.8067V4.35184H0V39.4868H6.57373V37.4557C8.66233 39.0579 11.2342 40.0015 14.0149 40.0015C21.0155 40.0015 26.6928 34.0168 26.6928 26.6304C26.6928 19.244 21.0155 13.2608 14.0149 13.2608ZM13.3853 33.4745C9.6243 33.4745 6.57373 30.4094 6.57373 26.6304C6.57373 22.8514 9.6243 19.7878 13.3853 19.7878C17.1463 19.7878 20.1953 22.8514 20.1953 26.6304C20.1953 30.4094 17.1463 33.4745 13.3853 33.4745Z" fill="white"/>
<path d="M70.9999 22.9296V39.4853H64.4246V23.6434C64.4246 22.8898 64.199 22.1438 63.7782 21.5188C63.0388 20.4205 61.7567 19.8644 60.473 19.7587C59.3419 19.6653 58.0658 19.8752 57.0718 20.4481C56.7395 20.6395 56.4315 20.8708 56.1556 21.1374C55.2683 21.9952 54.7393 23.1961 54.7393 24.4369V39.4868H48.1641V13.918H54.7393V15.2951C54.7393 14.8983 56.5352 14.1355 56.8584 13.9976C57.6954 13.6422 58.5857 13.4232 59.4882 13.3236C65.3851 12.6711 70.9968 16.6737 70.9968 22.9311L70.9999 22.9296Z" fill="white"/>
<path d="M45.1427 20.3393V13.9164H37.7152V6.9697H35.5428L31.14 10.0547V14.572L26.6914 18.0569V20.3393H31.14V30.296C31.14 31.2258 31.2406 32.1556 31.4708 33.0548C32.8977 38.6428 37.8875 39.9985 40.685 39.9985C43.7828 39.9985 45.1442 38.9951 45.1442 38.9951V32.7163C45.1442 32.7163 43.9962 33.6292 41.0585 33.6292C39.8831 33.6292 39.1132 33.2248 38.6132 32.7377C38.0262 32.1679 37.7152 31.3683 37.7152 30.5488V20.3378H45.1427V20.3393Z" fill="white"/>
<path d="M69.6119 0.0689234L49.0735 7.93321C48.5278 8.14153 48.168 8.66847 48.168 9.25515V10.6338C48.168 10.8743 48.3844 11.0566 48.6192 11.0137L67.8419 7.54413C69.6713 7.21326 71.0007 5.61559 71.0007 3.74832V1.02936C71.0007 0.309417 70.2827 -0.18842 69.6134 0.0689234H69.6119Z" fill="white"/>
</g>
<defs>
<clipPath id="clip0_366_11">
<rect width="71" height="40" fill="white"/>
</clipPath>
</defs>
</svg>
