<svg width="105" height="40" viewBox="0 0 105 40" fill="none" xmlns="http://www.w3.org/2000/svg">
<path d="M58.3302 26.6301H61.9828V28.1408C62.6843 27.5146 63.9179 26.3719 66.1168 26.3719C68.618 26.3719 69.3219 27.885 69.4912 28.3722C70.9812 26.9249 71.9705 26.3719 73.4026 26.3719C74.0968 26.3719 74.5806 26.4814 75.0474 26.6593C77.0092 27.4195 77.0576 29.1788 77.0866 30.3143V39.593H73.3785V31.1452C73.3518 30.2339 73.33 29.7149 73.0905 29.303C73.0422 29.1983 72.6817 28.5525 71.7601 28.5525C71.4481 28.5525 70.8507 28.6281 70.5676 28.7865C69.5541 29.2836 69.5153 30.1194 69.4912 30.826V39.593H65.8725V31.1988C65.8725 30.2071 65.8893 28.5551 64.2299 28.5551C63.8623 28.5551 63.2164 28.6647 62.8923 28.8425C61.9828 29.4128 61.961 30.2363 61.9828 31.384V39.5954H58.3302V26.6326V26.6301ZM41.8815 30.5116C41.8548 29.5711 41.8548 28.382 41.0373 27.4659C40.6768 27.0589 39.8375 26.3888 38.1055 26.3888C36.0567 26.3888 35.2318 27.288 34.3029 28.1213V26.6422H30.6551V39.6028H34.3029V30.8455C34.332 30.1438 34.3609 29.2641 35.4399 28.7646C35.6624 28.672 36.0228 28.5648 36.4316 28.5648C38.033 28.5648 38.1611 29.9122 38.1878 30.3289C38.2434 30.7554 38.2434 31.1745 38.2434 31.6886V39.6028H41.8815V30.5116ZM104.972 30.5116C104.936 29.5711 104.936 28.382 104.128 27.4659C103.775 27.0589 102.914 26.3888 101.199 26.3888C99.1546 26.3888 98.3249 27.288 97.3984 28.1213V26.6422H93.7434V39.6028H97.3984V30.8455C97.4322 30.1438 97.4565 29.2641 98.5257 28.7646C98.7579 28.672 99.1086 28.5648 99.5295 28.5648C101.119 28.5648 101.247 29.9122 101.278 30.3289C101.322 30.7554 101.322 31.1745 101.322 31.6886V39.6028H104.97V30.5116H104.972ZM90.3304 28.1408C91.5978 29.6125 91.5978 31.764 91.5978 32.9045C91.5978 34.1032 91.5978 36.5107 90.1586 38.114C88.5403 39.9293 86.3633 39.9293 85.4876 39.9293C84.5587 39.9293 84.058 39.8782 83.1364 39.593C79.9555 38.6622 79.3822 35.9771 79.3822 33.4429C79.3822 32.1125 79.3821 29.4809 81.2303 27.8216C82.8533 26.3426 84.924 26.3036 85.8239 26.3036C86.5955 26.3036 88.7894 26.3036 90.3304 28.1408ZM87.7711 34.9976C87.846 34.2787 87.8775 33.5818 87.8775 32.8363C87.8775 32.2807 87.8436 31.7129 87.8001 31.1427C87.7468 30.3436 87.5679 28.2675 85.5989 28.2675C85.1974 28.2675 84.8538 28.3479 84.4886 28.5282C83.4388 29.152 83.2864 30.4654 83.2211 31.1427C83.1388 31.9956 83.1025 32.7144 83.1025 33.2335C83.1025 33.8109 83.1388 34.403 83.1872 34.9951C83.2259 35.7894 83.417 37.9824 85.49 37.9824C85.8263 37.9824 86.1624 37.8972 86.4769 37.7509C87.5679 37.1418 87.6888 35.709 87.7711 34.9951M54.5518 27.366C55.6742 28.3553 55.6548 29.7466 55.6548 30.7554V39.598H52.1715L52.1474 38.7573C52.1474 38.7573 50.9137 39.9367 48.3182 39.9367C47.266 39.9367 46.163 39.6394 45.4614 38.8304C44.9438 38.2749 44.5616 37.3147 44.5616 36.0404C44.5616 35.5263 44.5955 33.9693 46.1315 32.8996C47.1112 32.2563 47.953 32.0516 50.2171 31.7835L52.3022 31.5813V30.5506C52.3022 29.9317 52.2853 29.386 52.0507 28.9668C51.6128 28.2553 50.7662 28.2553 50.4711 28.2553C49.5663 28.2553 49.0802 28.6671 48.8842 28.9473C48.4657 29.4614 48.4392 30.1803 48.4174 30.709H45.2196C45.2196 30.1072 45.1881 29.3153 45.6283 28.5356C46.642 26.708 48.4174 26.2987 50.7783 26.2987C51.5596 26.2987 51.833 26.3548 52.6288 26.4985C53.4271 26.6179 53.952 26.8445 54.547 27.366M52.2998 33.2651C51.042 33.3748 50.6985 33.3967 50.1663 33.5258C49.1601 33.7646 48.2699 34.342 48.2699 35.709C48.2699 35.9819 48.2917 36.2695 48.3642 36.5668C48.6375 37.4659 49.2882 37.7314 50.0091 37.7314C50.3235 37.7314 51.0927 37.6924 51.6249 37.2052C52.2853 36.6155 52.3022 35.7749 52.3022 35.1657V33.2651H52.2998ZM27.0631 27.366C28.1975 28.3553 28.1709 29.7466 28.1709 30.7554V39.598H24.6828L24.6562 38.7573C24.6562 38.7573 23.4298 39.9367 20.8319 39.9367C19.7748 39.9367 18.679 39.6394 17.9872 38.8304C17.4648 38.2749 17.0825 37.3147 17.0825 36.0404C17.0825 35.5263 17.0946 33.9693 18.6548 32.8996C19.6224 32.2563 20.4787 32.0516 22.7356 31.7835L24.8207 31.5813V30.5506C24.8207 29.9317 24.7941 29.386 24.5595 28.9668C24.1337 28.2553 23.2774 28.2553 22.9824 28.2553C22.0849 28.2553 21.6059 28.6671 21.4004 28.9473C20.9891 29.4614 20.9673 30.1803 20.9335 30.709H17.7356C17.7356 30.1072 17.709 29.3153 18.1444 28.5356C19.158 26.708 20.9335 26.2987 23.2944 26.2987C24.0709 26.2987 24.3538 26.3548 25.1545 26.4985C25.9479 26.6179 26.4752 26.8445 27.0631 27.366ZM24.8207 33.2651C23.558 33.3748 23.2121 33.3967 22.6847 33.5258C21.6882 33.7646 20.781 34.342 20.781 35.709C20.781 35.9819 20.8077 36.2695 20.8826 36.5668C21.1633 37.4659 21.8115 37.7314 22.5372 37.7314C22.8323 37.7314 23.604 37.6924 24.1483 37.2052C24.7917 36.6155 24.8182 35.7749 24.8182 35.1657V33.2651H24.8207ZM12.4019 23.4965C14.1314 25.4045 14.6708 28.5258 14.6708 30.3874C14.6708 37.4293 12.1044 40 6.37631 40H0V21.3012H6.37873C8.33082 21.3012 10.6288 21.5546 12.4043 23.4941M10.3676 33.3625C10.5514 32.327 10.5441 31.3279 10.5441 30.3094C10.5441 27.4951 9.77976 25.748 9.09278 24.9585C8.11068 23.8158 7.21811 23.7304 6.10781 23.7304H4.17992V37.5658C4.17992 37.5658 3.91625 37.5925 5.058 37.5925C9.31773 37.5925 10.0603 34.9951 10.37 33.365" fill="white"/>
<path d="M0 0V7.58285H17.1091V3.52096L0 0Z" fill="white"/>
<path d="M36.5726 7.58285L17.1074 0L17.1098 3.53558L36.5726 7.58285Z" fill="white"/>
<path d="M17.1094 7.58284H36.5674L17.1094 3.52095V7.58284Z" fill="white"/>
<path d="M81.2741 17.1174L36.6133 7.58769L81.2741 22.5634V17.1174Z" fill="white"/>
<path d="M36.5801 7.58769L81.2506 7.61206V17.1174L36.5801 7.58769Z" fill="white"/>
<path d="M81.2539 7.61219V17.1175L104.974 22.5659L104.964 7.61219H81.2539Z" fill="white"/>
</svg>
