<svg width="137" height="40" viewBox="0 0 137 40" fill="none" xmlns="http://www.w3.org/2000/svg">
<g clip-path="url(#clip0_365_7318)">
<mask id="mask0_365_7318" style="mask-type:luminance" maskUnits="userSpaceOnUse" x="0" y="-2" width="137" height="42">
<path d="M0 40H137V-1.33242H0V40Z" fill="white"/>
</mask>
<g mask="url(#mask0_365_7318)">
<path d="M0.144993 27.492C0.144993 25.5055 0.107134 23.839 0 22.3521H3.75692L3.93333 24.9043H4.03805C4.88787 23.5553 6.44815 21.9596 9.35284 21.9596C11.6204 21.9596 13.3909 23.241 14.1344 25.1526H14.2069C14.8118 24.1944 15.5191 23.4884 16.3318 22.9904C17.288 22.3174 18.3875 21.9596 19.8068 21.9596C22.6728 21.9596 25.5751 23.9099 25.5751 29.4423V39.6118H21.3252V30.0773C21.3252 27.2076 20.3344 25.5055 18.2473 25.5055C16.7563 25.5055 15.656 26.5701 15.1985 27.8112C15.0921 28.2359 14.985 28.767 14.985 29.261V39.6118H10.7327V29.6172C10.7327 27.2076 9.77734 25.5055 7.75872 25.5055C6.12836 25.5055 5.03205 26.7813 4.64218 27.9844C4.46578 28.4132 4.39086 28.908 4.39086 29.4044V39.6118H0.144993V27.492Z" fill="white"/>
<path d="M37.8858 31.1787C34.8031 31.1062 31.8646 31.7775 31.8646 34.4023C31.8646 36.1011 32.9633 36.8836 34.3447 36.8836C36.0774 36.8836 37.3558 35.7497 37.7416 34.5095C37.8487 34.1911 37.8858 33.8349 37.8858 33.5529V31.1787ZM42.1357 35.466C42.1357 37.0246 42.2074 38.5429 42.3862 39.6115H38.4529L38.1701 37.6967H38.0598C36.9989 39.0442 35.1929 40 32.9633 40C29.4899 40 27.543 37.4888 27.543 34.8608C27.543 30.5018 31.4014 28.3065 37.7787 28.3412V28.0575C37.7787 26.9228 37.3171 25.0443 34.2739 25.0443C32.5718 25.0443 30.7981 25.5786 29.6317 26.3224L28.7802 23.4881C30.0554 22.7056 32.2891 21.9594 35.0165 21.9594C40.5432 21.9594 42.1357 25.4714 42.1357 29.2269V35.466Z" fill="white"/>
<path d="M45.1504 27.492C45.1504 25.5055 45.1109 23.839 45.0078 22.3521H48.83L49.0434 24.939H49.1482C49.8917 23.5948 51.7717 21.9596 54.6386 21.9596C57.6528 21.9596 60.7693 23.9099 60.7693 29.3682V39.6118H56.4107V29.8662C56.4107 27.3849 55.4892 25.5055 53.1169 25.5055C51.381 25.5055 50.1792 26.7442 49.716 28.057C49.5775 28.4486 49.5396 28.9813 49.5396 29.4721V39.6118H45.1504V27.492Z" fill="white"/>
<path d="M75.3011 29.5446C75.3011 29.1925 75.2649 28.767 75.1956 28.4124C74.8049 26.7111 73.4251 25.3298 71.4403 25.3298C68.6419 25.3298 67.0841 27.812 67.0841 31.0363C67.0841 34.1906 68.6419 36.497 71.4065 36.497C73.1754 36.497 74.7357 35.2906 75.1594 33.4121C75.2649 33.0212 75.3011 32.5925 75.3011 32.1323V29.5446ZM79.6574 15.4174V34.7555C79.6574 36.5268 79.7299 38.4424 79.7991 39.6102H75.9029L75.7289 36.8839H75.6564C74.6293 38.7946 72.5342 40.0002 70.0226 40.0002C65.9145 40.0002 62.6545 36.497 62.6545 31.179C62.6199 25.3999 66.2343 21.9596 70.3786 21.9596C72.7501 21.9596 74.4521 22.9533 75.2302 24.2338H75.3011V15.4174H79.6574Z" fill="white"/>
<path d="M82.7363 22.3518H87.1352V39.61H82.7363V22.3518Z" fill="white"/>
<path d="M90.2129 27.9171C90.2129 25.5784 90.1774 23.9102 90.0703 22.3532H93.8619L94.002 25.6461H94.1462C94.9952 23.201 97.0155 22.3532 98.8577 22.3532C99.2822 22.3532 99.5303 22.2799 99.8847 22.3532V26.182C99.5303 26.1095 99.1412 26.0386 98.6072 26.0386C96.5193 26.0386 95.1024 27.3844 94.7141 29.333C94.6432 29.7223 94.5731 30.1865 94.5731 30.6845V39.6105H90.2129V27.9171Z" fill="white"/>
<path d="M101.904 22.3518H106.294V39.61H101.904V22.3518Z" fill="white"/>
<path fill-rule="evenodd" clip-rule="evenodd" d="M133.4 4.12003C131.232 1.64998 128.932 2.76533 127.095 3.67599C126.326 4.05636 123.533 5.91636 120.765 7.21303C118.793 8.13738 115.963 7.85774 114.411 5.93972C114.316 5.82368 111.807 2.78225 111.541 2.40752C109.912 0.362976 105.79 -1.33261 100.865 1.48719C98.2262 3.01516 92.0076 6.58524 89.6829 7.91335C88.27 8.63462 84.9899 8.94972 83.1373 6.44582C83.1066 6.40472 80.6724 3.36572 80.5749 3.24886C80.5032 3.16666 78.9309 0.833616 75.4261 0.76189C74.9105 0.748997 72.3361 0.733686 69.8205 2.16253C66.4848 4.07168 58.7213 8.51212 58.7213 8.51212C58.7156 8.51212 58.7156 8.51615 58.7156 8.51615C55.5242 10.3439 53.0352 11.7631 53.0352 11.7631L55.9737 15.3767C57.3495 17.0827 60.4475 18.4052 63.1363 16.8611C63.1363 16.8611 73.0683 11.1071 73.103 11.091C77.3996 8.73213 80.7151 8.73213 82.9117 9.61055C84.8876 10.443 86.605 12.5222 86.605 12.5222C86.605 12.5222 88.8516 15.3074 89.2463 15.7941C90.5238 17.3672 92.6367 16.7499 92.6367 16.7499C92.6367 16.7499 93.4172 16.6597 94.603 15.9585C94.603 15.9585 104.221 10.3794 104.226 10.3778C107.283 8.58465 110.086 8.25021 111.516 8.38076C116 8.78935 117.394 11.9234 119.34 14.109C120.485 15.3976 121.517 16.1262 123.096 16.0891C124.136 16.0657 125.308 15.4379 125.482 15.3251L137 8.67249C137 8.67249 135.82 6.89309 133.4 4.12003Z" fill="#FFB700"/>
</g>
</g>
<defs>
<clipPath id="clip0_365_7318">
<rect width="137" height="40" fill="white"/>
</clipPath>
</defs>
</svg>
