<svg width="144" height="40" viewBox="0 0 144 40" fill="none" xmlns="http://www.w3.org/2000/svg">
<g clip-path="url(#clip0_365_7393)">
<path d="M68.1973 27.8465C68.5048 27.8465 68.7697 27.8117 68.9919 27.7422C69.2142 27.6726 69.3957 27.5756 69.5365 27.4511C69.6809 27.3229 69.7865 27.1728 69.8532 27.0007C69.9199 26.825 69.9532 26.6328 69.9532 26.4241C69.9532 26.0176 69.8069 25.6973 69.5142 25.4629C69.2216 25.2249 68.7826 25.1059 68.1973 25.1059H66.4748V27.8465L68.1973 27.8465ZM66.4748 21.6623V24.348H67.8973C68.201 24.348 68.464 24.3151 68.6863 24.2492C68.9123 24.1833 69.0975 24.0918 69.242 23.9746C69.3901 23.8574 69.4994 23.7164 69.5698 23.5517C69.6402 23.3832 69.6754 23.2002 69.6754 23.0025C69.6754 22.5375 69.5346 22.1988 69.2531 21.9864C68.9715 21.7704 68.5344 21.6624 67.9417 21.6624L66.4748 21.6623ZM67.9417 20.8221C68.4307 20.8221 68.8512 20.8696 69.2031 20.9648C69.5587 21.06 69.8495 21.1955 70.0755 21.3713C70.3051 21.547 70.4737 21.763 70.5811 22.0193C70.6885 22.272 70.7423 22.5576 70.7423 22.8761C70.7423 23.0702 70.7108 23.2569 70.6478 23.4363C70.5885 23.6121 70.4978 23.7768 70.3755 23.9306C70.2533 24.0844 70.0977 24.2235 69.9088 24.348C69.7235 24.4688 69.505 24.5677 69.2531 24.6446C69.8384 24.7544 70.2773 24.9613 70.57 25.2652C70.8664 25.5654 71.0145 25.9609 71.0145 26.4515C71.0145 26.7847 70.9516 27.0886 70.8256 27.3632C70.7034 27.6378 70.5218 27.874 70.2811 28.0717C70.044 28.2694 69.7513 28.4232 69.4031 28.533C69.0549 28.6392 68.6585 28.6923 68.214 28.6923H65.4023V20.8221H67.9417Z" fill="white"/>
<path d="M76.8605 25.7705L75.6103 22.5685C75.5733 22.4733 75.5344 22.3635 75.4936 22.239C75.4529 22.1109 75.414 21.9754 75.3769 21.8326C75.2991 22.1292 75.2195 22.3763 75.138 22.574L73.8878 25.7705H76.8605ZM79.1054 28.6923H78.2719C78.1756 28.6923 78.0978 28.6685 78.0385 28.6209C77.9793 28.5733 77.9348 28.5129 77.9052 28.4397L77.1606 26.5394H73.5877L72.8431 28.4397C72.8209 28.5056 72.7783 28.5641 72.7153 28.6154C72.6523 28.6667 72.5745 28.6923 72.4819 28.6923H71.6484L74.8324 20.8221H75.9215L79.1054 28.6923Z" fill="white"/>
<path d="M86.7618 20.822V28.6923H86.2228C86.1376 28.6923 86.0654 28.6776 86.0061 28.6484C85.9505 28.6191 85.895 28.5696 85.8394 28.5001L81.233 22.5685C81.2404 22.6601 81.2459 22.7498 81.2496 22.8377C81.2533 22.9255 81.2552 23.0079 81.2552 23.0848V28.6923H80.3105V20.8221H80.8662C80.9144 20.8221 80.9551 20.8257 80.9885 20.833C81.0218 20.8365 81.0514 20.8457 81.0774 20.8605C81.1033 20.8715 81.1292 20.8898 81.1552 20.9154C81.1811 20.9373 81.2089 20.9666 81.2385 21.0032L85.8449 26.9293C85.8375 26.8341 85.8301 26.7425 85.8227 26.6547C85.819 26.5631 85.8172 26.4771 85.8172 26.3965V20.822L86.7618 20.822Z" fill="white"/>
<path d="M90.0236 24.2711H90.4292C90.57 24.2711 90.683 24.2546 90.7682 24.2217C90.8534 24.1851 90.9312 24.1247 91.0016 24.0405L93.6521 21.0747C93.7262 20.9795 93.804 20.9136 93.8854 20.877C93.9669 20.8404 94.067 20.8221 94.1855 20.8221H95.0968L92.0629 24.2107C91.9888 24.2986 91.9166 24.3718 91.8462 24.4304C91.7795 24.4853 91.7073 24.5311 91.6295 24.5677C91.7295 24.6006 91.8202 24.6501 91.9017 24.716C91.9832 24.7782 92.0629 24.8606 92.1407 24.9631L95.3079 28.6923H94.3744C94.3041 28.6923 94.2429 28.6887 94.1911 28.6813C94.1429 28.6704 94.1003 28.6557 94.0633 28.6374C94.0262 28.6154 93.9929 28.5916 93.9632 28.566C93.9373 28.5367 93.9114 28.5038 93.8855 28.4672L91.1405 25.3422C91.0664 25.2506 90.9868 25.1866 90.9016 25.1499C90.8163 25.1097 90.6867 25.0895 90.5126 25.0895H90.0236V28.6924H88.9512V20.8222H90.0236V24.2711Z" fill="white"/>
<path d="M103.543 22.0523C103.51 22.1072 103.473 22.1493 103.432 22.1786C103.395 22.2042 103.349 22.217 103.293 22.217C103.23 22.217 103.156 22.1859 103.071 22.1237C102.986 22.0615 102.878 21.9937 102.749 21.9205C102.623 21.8436 102.469 21.774 102.288 21.7118C102.11 21.6496 101.893 21.6185 101.638 21.6185C101.397 21.6185 101.184 21.6514 100.999 21.7173C100.817 21.7795 100.663 21.8655 100.537 21.9754C100.415 22.0852 100.322 22.2152 100.259 22.3654C100.196 22.5118 100.165 22.6711 100.165 22.8432C100.165 23.0629 100.219 23.2459 100.326 23.3924C100.437 23.5352 100.582 23.6578 100.76 23.7603C100.941 23.8629 101.145 23.9526 101.371 24.0295C101.6 24.1027 101.834 24.1796 102.071 24.2601C102.312 24.3407 102.545 24.4322 102.771 24.5348C103.001 24.6336 103.204 24.7599 103.382 24.9137C103.564 25.0675 103.708 25.256 103.816 25.4794C103.927 25.7027 103.982 25.9774 103.982 26.3032C103.982 26.6474 103.923 26.9714 103.805 27.2753C103.686 27.5756 103.512 27.8374 103.282 28.0607C103.056 28.2841 102.777 28.4598 102.443 28.5879C102.114 28.7161 101.738 28.7802 101.315 28.7802C100.797 28.7802 100.326 28.6886 99.9039 28.5056C99.4816 28.3188 99.1204 28.068 98.8203 27.7531L99.1315 27.2479C99.1611 27.2076 99.1963 27.1747 99.2371 27.149C99.2815 27.1198 99.3297 27.1051 99.3815 27.1051C99.4297 27.1051 99.4834 27.1252 99.5427 27.1655C99.6056 27.2021 99.676 27.2497 99.7538 27.3083C99.8316 27.3669 99.9205 27.4309 100.021 27.5005C100.121 27.5701 100.234 27.6341 100.359 27.6927C100.489 27.7513 100.635 27.8007 100.798 27.841C100.961 27.8776 101.145 27.8959 101.349 27.8959C101.604 27.8959 101.832 27.8612 102.032 27.7916C102.232 27.7221 102.401 27.625 102.538 27.5005C102.678 27.3724 102.786 27.2204 102.86 27.0447C102.934 26.8689 102.971 26.673 102.971 26.457C102.971 26.219 102.916 26.025 102.804 25.8749C102.697 25.7211 102.554 25.5929 102.377 25.4904C102.199 25.3879 101.995 25.3018 101.765 25.2323C101.536 25.1591 101.302 25.0858 101.065 25.0126C100.828 24.9357 100.595 24.8478 100.365 24.749C100.135 24.6501 99.9316 24.522 99.7538 24.3645C99.576 24.2071 99.4315 24.0112 99.3204 23.7769C99.213 23.5389 99.1593 23.246 99.1593 22.8981C99.1593 22.6198 99.213 22.3507 99.3204 22.0908C99.4315 21.8308 99.5908 21.6002 99.7983 21.3988C100.009 21.1974 100.267 21.0363 100.571 20.9155C100.878 20.7946 101.23 20.7342 101.626 20.7342C102.071 20.7342 102.475 20.8038 102.838 20.9429C103.204 21.082 103.527 21.2834 103.805 21.5471L103.543 22.0523Z" fill="white"/>
<path d="M108.483 25.5563V28.6923H107.406V25.5563L104.488 20.8221H105.433C105.529 20.8221 105.605 20.8458 105.661 20.8934C105.716 20.9373 105.764 20.9959 105.805 21.0692L107.628 24.1283C107.694 24.2564 107.756 24.3773 107.811 24.4908C107.867 24.6006 107.915 24.7123 107.956 24.8258C107.996 24.7123 108.043 24.6006 108.095 24.4908C108.146 24.3773 108.204 24.2564 108.267 24.1283L110.084 21.0692C110.117 21.0069 110.163 20.9502 110.223 20.8989C110.282 20.8477 110.358 20.8221 110.451 20.8221H111.401L108.483 25.5563Z" fill="white"/>
<path d="M116.034 25.7705L114.784 22.5685C114.747 22.4733 114.708 22.3635 114.667 22.239C114.627 22.1109 114.588 21.9754 114.551 21.8326C114.473 22.1292 114.393 22.3763 114.312 22.574L113.062 25.7705H116.034ZM118.279 28.6923H117.446C117.349 28.6923 117.272 28.6685 117.212 28.6209C117.153 28.5733 117.109 28.5129 117.079 28.4397L116.334 26.5394H112.762L112.017 28.4397C111.995 28.5056 111.952 28.5641 111.889 28.6154C111.826 28.6667 111.748 28.6923 111.656 28.6923H110.822L114.006 20.8221H115.095L118.279 28.6923Z" fill="white"/>
<path d="M121.69 24.6336C122.002 24.6336 122.276 24.597 122.513 24.5237C122.754 24.4469 122.954 24.3407 123.113 24.2052C123.276 24.0661 123.398 23.9013 123.48 23.7109C123.561 23.5205 123.602 23.31 123.602 23.0793C123.602 22.6107 123.446 22.2573 123.135 22.0193C122.824 21.7813 122.357 21.6623 121.735 21.6623H120.557V24.6336H121.69ZM125.369 28.6923H124.413C124.217 28.6923 124.072 28.6172 123.98 28.4671L121.913 25.6551C121.85 25.5673 121.781 25.505 121.707 25.4684C121.637 25.4281 121.526 25.408 121.374 25.408H120.557V28.6923H119.484V20.8221H121.735C122.239 20.8221 122.674 20.8733 123.041 20.9758C123.407 21.0747 123.709 21.2193 123.946 21.4097C124.187 21.6001 124.365 21.8308 124.48 22.1017C124.595 22.369 124.652 22.6693 124.652 23.0024C124.652 23.2807 124.608 23.5407 124.519 23.7823C124.43 24.024 124.3 24.2418 124.13 24.4359C123.963 24.6263 123.757 24.7892 123.513 24.9247C123.272 25.0602 122.998 25.1627 122.691 25.2323C122.828 25.3091 122.946 25.4208 123.046 25.5673L125.369 28.6923Z" fill="white"/>
<path d="M127.681 28.6923H126.604V20.8221H127.681V28.6923Z" fill="white"/>
<path d="M134.099 25.7705L132.849 22.5685C132.812 22.4733 132.773 22.3635 132.732 22.239C132.691 22.1109 132.652 21.9754 132.615 21.8326C132.537 22.1292 132.458 22.3763 132.376 22.574L131.126 25.7705H134.099ZM136.344 28.6923H135.51C135.414 28.6923 135.336 28.6685 135.277 28.6209C135.218 28.5733 135.173 28.5129 135.143 28.4397L134.399 26.5394H130.826L130.081 28.4397C130.059 28.5056 130.017 28.5641 129.954 28.6154C129.891 28.6667 129.813 28.6923 129.72 28.6923H128.887L132.071 20.8221H133.16L136.344 28.6923Z" fill="white"/>
<path d="M144 20.8221V28.6923H142.922V25.1114H138.627V28.6923H137.549V20.8221H138.627V24.3315H142.922V20.8221H144Z" fill="white"/>
<path d="M66.4803 39.6766H65.4023V31.8063H66.4803V39.6766Z" fill="white"/>
<path d="M75.1211 31.8063V39.6766H74.5822C74.497 39.6766 74.4247 39.6619 74.3655 39.6326C74.3099 39.6034 74.2543 39.5539 74.1988 39.4844L69.5923 33.5528C69.5997 33.6444 69.6053 33.7341 69.609 33.822C69.6127 33.9098 69.6145 33.9922 69.6145 34.0691V39.6766H68.6699V31.8063H69.2256C69.2737 31.8063 69.3145 31.81 69.3478 31.8173C69.3812 31.8208 69.4108 31.83 69.4367 31.8448C69.4627 31.8557 69.4886 31.874 69.5145 31.8997C69.5405 31.9216 69.5682 31.9509 69.5979 31.9875L74.2043 37.9135C74.1969 37.8183 74.1895 37.7268 74.1821 37.6389C74.1784 37.5474 74.1765 37.4613 74.1765 37.3808V31.8063L75.1211 31.8063Z" fill="white"/>
<path d="M84.2119 35.7442C84.2119 36.3337 84.1174 36.8701 83.9285 37.3534C83.7396 37.8367 83.4728 38.2505 83.1283 38.5946C82.7838 38.9388 82.3689 39.2061 81.8836 39.3965C81.4021 39.5832 80.8686 39.6766 80.2833 39.6766H77.3105V31.8063H80.2833C80.8686 31.8063 81.4021 31.9015 81.8836 32.0919C82.3689 32.2787 82.7838 32.546 83.1283 32.8938C83.4728 33.238 83.7396 33.6517 83.9285 34.135C84.1174 34.6183 84.2119 35.1547 84.2119 35.7442ZM83.1061 35.7442C83.1061 35.2609 83.0394 34.8288 82.9061 34.4481C82.7727 34.0673 82.5838 33.7451 82.3393 33.4815C82.0948 33.2178 81.7984 33.0164 81.4502 32.8773C81.102 32.7382 80.713 32.6686 80.2833 32.6686H78.3885V38.8143H80.2833C80.713 38.8143 81.102 38.7448 81.4502 38.6056C81.7984 38.4665 82.0948 38.2669 82.3393 38.007C82.5838 37.7434 82.7727 37.4211 82.9061 37.0404C83.0394 36.6596 83.1061 36.2275 83.1061 35.7442Z" fill="white"/>
<path d="M93.2734 35.7442C93.2734 36.3337 93.1789 36.8756 92.99 37.3699C92.8011 37.8605 92.5343 38.2834 92.1898 38.6385C91.8453 38.9937 91.4304 39.2701 90.9452 39.4679C90.4636 39.6619 89.9301 39.7589 89.3449 39.7589C88.7596 39.7589 88.2261 39.6619 87.7445 39.4679C87.263 39.2701 86.8499 38.9937 86.5054 38.6385C86.1609 38.2834 85.8942 37.8605 85.7053 37.3699C85.5163 36.8756 85.4219 36.3337 85.4219 35.7442C85.4219 35.1547 85.5163 34.6146 85.7053 34.124C85.8942 33.6297 86.1609 33.205 86.5054 32.8498C86.8499 32.491 87.263 32.2127 87.7445 32.015C88.2261 31.8173 88.7596 31.7184 89.3449 31.7184C89.9301 31.7184 90.4636 31.8173 90.9452 32.015C91.4304 32.2127 91.8453 32.491 92.1898 32.8498C92.5343 33.205 92.8011 33.6297 92.99 34.124C93.1789 34.6146 93.2734 35.1547 93.2734 35.7442ZM92.1676 35.7442C92.1676 35.2609 92.1009 34.827 91.9676 34.4425C91.8342 34.0581 91.6453 33.7341 91.4008 33.4704C91.1563 33.2031 90.86 32.9981 90.5117 32.8553C90.1635 32.7125 89.7746 32.6411 89.3449 32.6411C88.9188 32.6411 88.5317 32.7125 88.1835 32.8553C87.8353 32.9981 87.5371 33.2031 87.2889 33.4704C87.0444 33.7341 86.8555 34.0581 86.7221 34.4425C86.5888 34.827 86.5221 35.2609 86.5221 35.7442C86.5221 36.2275 86.5888 36.6614 86.7221 37.0458C86.8555 37.4266 87.0444 37.7506 87.2889 38.0179C87.5371 38.2816 87.8353 38.4848 88.1835 38.6276C88.5317 38.7667 88.9188 38.8362 89.3449 38.8362C89.7746 38.8362 90.1635 38.7667 90.5117 38.6276C90.86 38.4848 91.1563 38.2816 91.4008 38.0179C91.6453 37.7506 91.8342 37.4266 91.9676 37.0458C92.1009 36.6614 92.1676 36.2275 92.1676 35.7442Z" fill="white"/>
<path d="M101.42 31.8063V39.6766H100.881C100.796 39.6766 100.724 39.6619 100.664 39.6326C100.609 39.6034 100.553 39.5539 100.498 39.4844L95.8912 33.5528C95.8986 33.6444 95.9041 33.7341 95.9078 33.822C95.9115 33.9098 95.9134 33.9922 95.9134 34.0691V39.6766H94.9688V31.8063H95.5244C95.5726 31.8063 95.6133 31.81 95.6467 31.8173C95.68 31.8208 95.7096 31.83 95.7356 31.8448C95.7615 31.8557 95.7874 31.874 95.8134 31.8997C95.8393 31.9216 95.8671 31.9509 95.8967 31.9875L100.503 37.9135C100.496 37.8183 100.488 37.7268 100.481 37.6389C100.477 37.5474 100.475 37.4613 100.475 37.3808V31.8063L101.42 31.8063Z" fill="white"/>
<path d="M108.521 38.8088L108.516 39.6766H103.609V31.8063H108.516V32.6741H104.687V35.2884H107.788V36.1232H104.687V38.8088H108.521Z" fill="white"/>
<path d="M114.256 33.0366C114.223 33.0915 114.186 33.1336 114.145 33.1629C114.108 33.1885 114.062 33.2013 114.006 33.2013C113.943 33.2013 113.869 33.1702 113.784 33.108C113.699 33.0458 113.591 32.978 113.462 32.9048C113.336 32.8279 113.182 32.7583 113.001 32.6961C112.823 32.6339 112.606 32.6028 112.35 32.6028C112.11 32.6028 111.897 32.6357 111.711 32.7016C111.53 32.7638 111.376 32.8498 111.25 32.9597C111.128 33.0695 111.035 33.1995 110.972 33.3496C110.909 33.4961 110.878 33.6554 110.878 33.8275C110.878 34.0471 110.932 34.2302 111.039 34.3767C111.15 34.5195 111.295 34.6421 111.472 34.7446C111.654 34.8472 111.858 34.9369 112.084 35.0138C112.313 35.087 112.547 35.1639 112.784 35.2444C113.025 35.325 113.258 35.4165 113.484 35.519C113.714 35.6179 113.917 35.7442 114.095 35.898C114.277 36.0518 114.421 36.2403 114.529 36.4637C114.64 36.687 114.695 36.9617 114.695 37.2875C114.695 37.6317 114.636 37.9557 114.517 38.2596C114.399 38.5598 114.225 38.8216 113.995 39.045C113.769 39.2683 113.49 39.4441 113.156 39.5722C112.826 39.7004 112.45 39.7645 112.028 39.7645C111.51 39.7645 111.039 39.6729 110.617 39.4899C110.194 39.3031 109.833 39.0523 109.533 38.7374L109.844 38.2322C109.874 38.1919 109.909 38.159 109.95 38.1333C109.994 38.1041 110.043 38.0894 110.094 38.0894C110.143 38.0894 110.196 38.1095 110.256 38.1498C110.319 38.1864 110.389 38.234 110.467 38.2926C110.545 38.3512 110.633 38.4152 110.733 38.4848C110.833 38.5544 110.946 38.6184 111.072 38.677C111.202 38.7356 111.348 38.785 111.511 38.8253C111.674 38.8619 111.858 38.8802 112.061 38.8802C112.317 38.8802 112.545 38.8455 112.745 38.7759C112.945 38.7064 113.114 38.6093 113.251 38.4848C113.391 38.3567 113.499 38.2047 113.573 38.029C113.647 37.8532 113.684 37.6573 113.684 37.4413C113.684 37.2033 113.628 37.0093 113.517 36.8591C113.41 36.7054 113.267 36.5772 113.089 36.4747C112.912 36.3722 112.708 36.2861 112.478 36.2166C112.249 36.1433 112.015 36.0701 111.778 35.9969C111.541 35.92 111.308 35.8321 111.078 35.7333C110.848 35.6344 110.645 35.5063 110.467 35.3488C110.289 35.1914 110.144 34.9955 110.033 34.7612C109.926 34.5232 109.872 34.2303 109.872 33.8824C109.872 33.6041 109.926 33.335 110.033 33.0751C110.144 32.8151 110.304 32.5844 110.511 32.3831C110.722 32.1817 110.98 32.0206 111.284 31.8998C111.591 31.7789 111.943 31.7185 112.339 31.7185C112.784 31.7185 113.188 31.7881 113.551 31.9272C113.917 32.0663 114.24 32.2677 114.517 32.5314L114.256 33.0366Z" fill="white"/>
<path d="M117.445 39.6766H116.367V31.8063H117.445V39.6766Z" fill="white"/>
<path d="M123.862 36.7548L122.612 33.5528C122.575 33.4576 122.536 33.3478 122.496 33.2233C122.455 33.0952 122.416 32.9597 122.379 32.8169C122.301 33.1135 122.221 33.3606 122.14 33.5583L120.89 36.7548H123.862ZM126.107 39.6766H125.274C125.178 39.6766 125.1 39.6528 125.04 39.6052C124.981 39.5576 124.937 39.4972 124.907 39.424L124.163 37.5237H120.59L119.845 39.424C119.823 39.4898 119.78 39.5484 119.717 39.5997C119.654 39.651 119.577 39.6766 119.484 39.6766H118.65L121.834 31.8063H122.923L126.107 39.6766Z" fill="white"/>
<path d="M11.2108 34.6792C12.0801 34.6792 12.7873 34.5678 13.3323 34.3452C13.8902 34.1225 14.3249 33.8344 14.6363 33.4807C14.9477 33.1271 15.1618 32.7276 15.2786 32.2823C15.3954 31.8369 15.4538 31.3851 15.4538 30.9267C15.4538 30.4027 15.3824 29.9312 15.2397 29.5121C15.1099 29.093 14.8764 28.7393 14.539 28.4511C14.2146 28.163 13.7799 27.9404 13.235 27.7832C12.69 27.626 12.0023 27.5474 11.1719 27.5474H6.57855V34.6792H11.2108ZM6.57855 16.0345V23.1073H10.0041C10.7307 23.1073 11.386 23.0549 11.9699 22.9501C12.5538 22.8453 13.0468 22.662 13.4491 22.4C13.8643 22.1381 14.1757 21.7779 14.3833 21.3194C14.6039 20.861 14.7142 20.2847 14.7142 19.5905C14.7142 18.9095 14.6298 18.3462 14.4611 17.9009C14.2925 17.4425 14.033 17.0758 13.6826 16.8007C13.3323 16.5256 12.8846 16.3292 12.3397 16.2113C11.8077 16.0934 11.1719 16.0345 10.4323 16.0345H6.57855ZM10.4323 11.0639C12.3916 11.0639 14.0589 11.2473 15.4343 11.614C16.8097 11.9807 17.9321 12.4981 18.8014 13.1661C19.6708 13.8341 20.3001 14.6461 20.6894 15.6023C21.0916 16.5584 21.2927 17.6259 21.2927 18.8047C21.2927 19.4465 21.2019 20.0686 21.0202 20.6711C20.8386 21.2605 20.5531 21.8171 20.1639 22.3411C19.7746 22.8519 19.275 23.3234 18.6652 23.7556C18.0553 24.1878 17.3222 24.5611 16.4659 24.8755C18.3343 25.3339 19.7162 26.0739 20.6115 27.0956C21.5068 28.1172 21.9545 29.4401 21.9545 31.0642C21.9545 32.2823 21.7209 33.4152 21.2538 34.4631C20.7867 35.5109 20.099 36.4277 19.1907 37.2136C18.2954 37.9864 17.186 38.5954 15.8625 39.0407C14.539 39.4729 13.0274 39.6891 11.3276 39.6891H0V11.0639H10.4323Z" fill="white"/>
<path d="M42.1621 16.9023C41.9675 17.2163 41.7599 17.4518 41.5393 17.6088C41.3317 17.7658 41.0592 17.8443 40.7218 17.8443C40.4234 17.8443 40.099 17.7527 39.7487 17.5695C39.4113 17.3733 39.0221 17.1574 38.5809 16.9219C38.1527 16.6864 37.6596 16.4771 37.1017 16.294C36.5438 16.0977 35.908 15.9996 35.1943 15.9996C33.9616 15.9996 33.0404 16.2678 32.4305 16.8042C31.8337 17.3275 31.5352 18.0405 31.5352 18.9432C31.5352 19.5189 31.7169 19.9964 32.0802 20.3758C32.4435 20.7552 32.9171 21.0823 33.501 21.357C34.0979 21.6318 34.7726 21.8869 35.5252 22.1224C36.2907 22.3448 37.0693 22.5999 37.8608 22.8877C38.6523 23.1624 39.4243 23.4895 40.1769 23.8689C40.9424 24.2483 41.6172 24.7324 42.201 25.3211C42.7979 25.9098 43.278 26.6294 43.6413 27.4798C44.0046 28.3171 44.1863 29.331 44.1863 30.5215C44.1863 31.8429 43.9592 33.0792 43.5051 34.2305C43.0509 35.3818 42.3892 36.3892 41.5198 37.2526C40.6635 38.103 39.5995 38.7768 38.3279 39.2739C37.0693 39.758 35.6355 40 34.0265 40C33.1442 40 32.2424 39.9084 31.3211 39.7253C30.4128 39.5421 29.5305 39.287 28.6741 38.9599C27.8178 38.6198 27.0133 38.2207 26.2607 37.7628C25.5081 37.3049 24.8529 36.7947 24.2949 36.2322L26.2412 33.1315C26.3969 32.9091 26.5981 32.726 26.8446 32.582C27.1041 32.4251 27.3831 32.3466 27.6815 32.3466C28.0708 32.3466 28.46 32.4709 28.8493 32.7194C29.2515 32.968 29.6992 33.2427 30.1923 33.5436C30.6983 33.8445 31.2757 34.1193 31.9245 34.3678C32.5733 34.6164 33.3388 34.7407 34.2211 34.7407C35.4149 34.7407 36.3426 34.4791 37.0044 33.9558C37.6661 33.4194 37.997 32.5755 37.997 31.4242C37.997 30.757 37.8153 30.2141 37.452 29.7954C37.0887 29.3768 36.6086 29.0301 36.0118 28.7553C35.4279 28.4806 34.7596 28.2386 34.0071 28.0292C33.2545 27.8199 32.4824 27.5909 31.6909 27.3424C30.8994 27.0807 30.1274 26.7667 29.3748 26.4004C28.6222 26.021 27.9475 25.5304 27.3506 24.9286C26.7667 24.3137 26.2931 23.5549 25.9298 22.6522C25.5665 21.7364 25.3849 20.6113 25.3849 19.2768C25.3849 18.2041 25.599 17.1574 26.0271 16.137C26.4553 15.1165 27.0846 14.2073 27.9151 13.4092C28.7455 12.6112 29.7641 11.9766 30.9708 11.5056C32.1775 11.0216 33.5594 10.7796 35.1165 10.7796C35.9858 10.7796 36.8292 10.8515 37.6467 10.9954C38.4771 11.1262 39.2621 11.329 40.0017 11.6038C40.7413 11.8654 41.429 12.186 42.0648 12.5654C42.7136 12.9317 43.291 13.3503 43.797 13.8213L42.1621 16.9023Z" fill="white"/>
<path fill-rule="evenodd" clip-rule="evenodd" d="M65.6751 9.87992C60.6239 9.38865 58.8479 12.1657 57.857 13.5393C56.5933 8.04791 54.4563 8.4809 52.1699 7.09757C55.4744 5.18249 56.3986 2.20513 56.3077 0C59.5444 2.36949 61.8013 2.11524 64.5963 1.3469C63.2055 5.49076 64.0836 6.66038 65.6751 9.87992Z" fill="white"/>
<path d="M55.1106 39.701H48.2695V10.4279C52.5504 11.007 55.1173 14.5423 55.1106 18.2841V39.701Z" fill="white"/>
</g>
<defs>
<clipPath id="clip0_365_7393">
<rect width="144" height="40" fill="white"/>
</clipPath>
</defs>
</svg>
