<svg width="127" height="40" viewBox="0 0 127 40" fill="none" xmlns="http://www.w3.org/2000/svg">
<path fill-rule="evenodd" clip-rule="evenodd" d="M19.7639 0C24.9694 0 30.5293 1.33631 35.8391 3.87128L35.9754 3.93221L36.0384 4.07082C38.4993 9.28814 39.7972 14.8898 39.7972 20.2812C39.7972 25.5343 38.6046 30.7859 36.2459 35.8931L36.022 36.3705L35.885 36.434C30.983 38.7656 25.4551 40 19.9002 40C14.6568 40 9.26849 38.7025 3.88731 36.1357L3.75518 36.0705L3.69213 35.9352C1.27724 30.8123 0 25.2092 0 19.7273C0 14.2535 1.22474 8.8901 3.64136 3.77397L3.70778 3.63802L3.84224 3.57035C8.82043 1.20036 14.1754 0 19.7639 0ZM19.7639 0.845867C14.3534 0.845867 9.16747 1.99902 4.34003 4.27433C2.0228 9.23293 0.84332 14.429 0.84332 19.7273C0.84332 25.0353 2.06887 30.4654 4.38531 35.433C9.61289 37.9045 14.8267 39.1526 19.9002 39.1526C25.2796 39.1526 30.6295 37.9705 35.3919 35.7306C37.758 30.6781 38.9568 25.478 38.9568 20.2812C38.9568 15.0629 37.7052 9.63528 35.3378 4.57117C30.1849 2.1367 24.803 0.845867 19.7639 0.845867ZM18.4088 33.7891L19.6442 33.843C20.2282 33.8719 20.3808 34.3508 20.3627 34.8082C20.3455 35.0861 20.2594 35.3967 20.0183 35.5651C19.8205 35.7084 19.5662 35.7421 19.3308 35.7306L18.9281 35.7084L18.8478 37.0628L18.2152 37.021L18.4088 33.7891ZM98.5807 3.16646L105.349 6.75654L100.439 15.7133C98.5858 14.2006 96.3227 13.0877 93.4355 13.0877C86.6025 13.0877 83.8267 18.2062 83.8267 21.8121C83.8267 24.4888 85.5705 28.4376 91.6505 28.4376C94.2024 28.4376 97.8304 26.6535 98.8746 25.8416L94.0187 36.2327L93.368 36.3666L91.9299 36.6767C90.9673 36.8803 90.2105 37.0074 88.9837 37.0455C78.1016 37.3719 73.7042 30.6535 73.7074 23.7889C73.715 14.7134 81.7434 3.67675 95.0528 3.67675C95.8684 3.67675 96.866 3.96022 97.7188 4.27433L98.5807 3.16646ZM24.2706 33.7356C24.3945 33.8874 24.4421 34.0155 24.4701 34.1992L24.4798 34.2709C24.5201 34.5477 24.4403 34.8674 24.1304 35.0266V35.0365C24.4764 35.0365 24.6857 35.2865 24.7464 35.7084L24.7601 35.8532C24.7677 35.9538 24.7718 36.08 24.7553 36.1923C24.6849 36.6193 24.4314 36.7571 24.0032 36.8173L22.9449 36.9615L22.5038 33.725L23.5692 33.5627C23.8285 33.5271 24.1442 33.5725 24.2706 33.7356ZM15.3746 33.4503L16.0227 33.5246L15.7355 35.8073L15.7278 35.8866C15.7122 36.1018 15.7448 36.3361 16.0842 36.3705C16.4607 36.3993 16.546 36.1487 16.5886 35.8369L16.8636 33.6302L17.5065 33.7053L17.2293 35.9655C17.0947 36.682 16.8192 36.995 16.035 36.8973C15.2368 36.796 15.0474 36.4307 15.0957 35.7084L15.3746 33.4503ZM11.754 36.1271L12.447 32.9123L13.5553 33.1636C14.204 33.3046 14.4001 33.5947 14.3083 34.1924C14.2585 34.5173 14.105 34.8659 13.7395 34.8763L13.6871 34.8749L13.7305 34.8913C14.0032 35.0045 14.0411 35.1625 13.9987 35.416L13.9884 35.4718C13.9621 35.6014 13.7816 36.387 13.9063 36.5136L13.9104 36.6103L13.2377 36.434C13.2223 36.3129 13.2448 36.1383 13.2743 35.9698L13.3675 35.4759C13.3949 35.3076 13.3997 35.1235 13.2475 35.0439C13.0959 34.9625 13.0393 34.9664 12.8679 34.9269L12.6931 34.8913L12.4043 36.2685L11.754 36.1271ZM27.2486 33.634L27.2711 33.7085C27.2941 33.7884 27.3228 33.8676 27.3336 33.9483L26.7495 34.0695L26.7084 33.9428L26.6779 33.8572C26.612 33.6849 26.513 33.5166 26.3303 33.5376C25.8586 33.5947 26.0145 34.1842 26.063 34.4307L26.2552 35.3971C26.3137 35.6617 26.4348 36.0048 26.8036 35.9302C27.135 35.8633 26.9906 35.345 26.9612 35.1323L27.5599 35.0149C27.5681 35.0751 27.5779 35.1421 27.5813 35.2023C27.6675 35.7925 27.5599 36.2814 26.8996 36.4159C25.953 36.5987 25.7485 36.0316 25.5806 35.219L25.4732 34.6805L25.4391 34.4629L25.4206 34.3239C25.3444 33.6867 25.4254 33.2172 26.2327 33.0556C26.7436 32.962 27.0895 33.1521 27.2486 33.634ZM23.5882 35.3875L23.3551 35.4238L23.5028 36.4L23.7565 36.365C23.8393 36.3529 23.9184 36.3357 23.9851 36.2929C24.1386 36.1923 24.1246 35.9771 24.1032 35.8171C24.0499 35.4661 23.9589 35.3326 23.5882 35.3875ZM53.5505 3.44747L62.6459 3.43486L66.1501 3.4419C66.5174 3.44345 66.861 3.4453 67.1747 3.44747C72.2991 3.47629 75.1948 6.27182 75.1948 10.3096C75.1948 14.0325 72.1408 17.3275 68.7884 19.0314C72.2399 20.3067 72.5384 23.4368 72.5384 25.651C72.5384 31.0014 67.197 36.0003 60.253 36.0003H45.1099L51.0169 13.0787L48.5905 13.0646L53.5505 3.44747ZM125.61 3.44747L127 36.0003H116.652L116.646 30.4176H109.59L107.268 36.0003H96.0456L107.778 12.7546L105.133 12.7375L110.159 3.44747H125.61ZM29.0791 32.4044L30.7238 35.3175L30.1062 35.503L29.7165 34.7629L29.0308 34.9699L29.1193 35.8115L28.4968 35.9943L28.2949 32.645L29.0791 32.4044ZM10.5251 32.3491C11.0263 32.49 11.3371 32.7119 11.3224 33.2971C11.3199 33.4275 11.2772 33.5602 11.2493 33.6887L10.6662 33.5271L10.6889 33.4273C10.7478 33.1514 10.7491 32.9345 10.3947 32.8249C9.93683 32.6985 9.82546 33.2566 9.7622 33.4976L9.50358 34.4541L9.4829 34.5444C9.4332 34.7925 9.43827 35.0888 9.7622 35.1784C10.0953 35.2681 10.2971 34.94 10.4176 34.4603L10.01 34.3515L10.151 33.8437L11.1099 34.1536L10.6547 35.8461L10.2134 35.7257L10.3127 35.3678H10.3003C10.0968 35.6604 9.84905 35.6911 9.6318 35.6492C8.73106 35.4044 8.7647 34.8336 8.96181 34.0676L9.12323 33.462L9.19004 33.2523L9.23554 33.1196C9.45156 32.5155 9.7303 32.1301 10.5251 32.3491ZM19.0059 34.2808L18.9462 35.2154L19.2735 35.2337C19.5392 35.2435 19.7155 35.1379 19.7385 34.7456C19.7516 34.3688 19.6097 34.3047 19.2652 34.2896L19.0059 34.2808ZM23.5121 34.0161L23.1796 34.0695L23.2896 34.8988L23.4077 34.8864L23.5074 34.8707C23.6281 34.8501 23.7575 34.8164 23.8194 34.7118L23.8479 34.6531C23.8806 34.584 23.9067 34.5064 23.8793 34.3508C23.8386 34.1289 23.7675 33.986 23.5121 34.0161ZM12.986 33.5246L12.8037 34.3934L13.2418 34.5121C13.5076 34.5509 13.6553 34.4124 13.7079 34.0895C13.7554 33.7933 13.6938 33.6778 13.4552 33.6204L12.986 33.5246ZM28.8108 32.9295L28.9733 34.429L29.4688 34.2846L28.8108 32.9295ZM19.5077 3.63734L19.6784 3.63362L19.7209 3.63416C23.1125 3.68981 26.0168 5.96778 26.004 9.87436C25.9981 13.2007 23.3389 14.9814 22.3806 16.2534C20.9444 18.17 20.1398 20.3522 20.088 23.8243L20.0756 24.9375L20.0704 25.95C20.0672 27.2022 20.0751 28.3831 20.0836 29.2591L20.0962 30.3672H19.335L19.3071 26.7659L19.2978 25.9798C19.289 25.311 19.2773 24.6116 19.2612 23.91C19.1808 20.4386 18.4039 18.17 16.9684 16.2534C16.0185 14.9814 13.3568 13.2006 13.3459 9.87436C13.3357 6.01723 16.1684 3.74774 19.5077 3.63734ZM28.0238 13.5065L28.1113 13.5156C30.1169 13.6903 31.7959 14.5123 32.7006 16.8766C33.5366 19.08 32.7844 22.0107 30.0068 22.6982L29.5588 22.8109L29.1058 22.9283C26.6711 23.5693 25.1647 24.1426 24.0377 24.9182C22.4995 25.9793 21.3307 28.0072 21.2946 30.364L20.6392 30.3616L20.6378 25.3879L20.648 24.3301C20.6511 24.1655 20.655 24.0452 20.6597 23.981C20.6264 17.7033 25.1195 13.2565 28.0238 13.5065ZM32.5046 22.0231C33.2626 22.7873 33.3996 24.5052 33.2667 25.5094C33.1092 26.6709 31.7615 28.5858 29.7313 28.6608C28.6959 28.7028 27.4262 28.488 26.598 28.3223L26.1605 28.2314C24.8661 27.9495 22.8048 28.7671 22.4759 30.3616L21.8809 30.364C21.8704 28.3204 23.0048 26.5134 24.4839 25.5423C25.8053 24.684 27.5739 24.1202 30.421 23.3939C31.3037 23.1673 32.2241 22.6644 32.5046 22.0231ZM18.6911 23.981L18.695 24.0511L18.7033 24.3394C18.7159 24.9926 18.7177 26.3257 18.7167 27.6256L18.7132 30.3616L18.1397 30.364C18.1063 28.0072 16.8495 25.9793 15.3098 24.9182C14.0532 24.0511 12.3165 23.4368 9.34314 22.6982C6.56218 22.0107 5.81428 19.08 6.65087 16.8766C7.53475 14.5605 9.16563 13.7245 11.1171 13.5271L11.2395 13.5156C14.1376 13.1669 18.7254 17.6398 18.6911 23.981ZM6.842 22.0231C7.1274 22.6644 8.04873 23.1673 8.92957 23.3939L9.63889 23.5774L10.1005 23.7004C12.2812 24.2895 13.7365 24.8082 14.8619 25.5423C16.3098 26.4903 17.426 28.2348 17.4693 30.2184L17.4705 30.364L16.8709 30.3616C16.5504 28.8003 14.5728 27.9839 13.2707 28.2152L12.8841 28.2952L12.5921 28.3535C11.767 28.5136 10.5943 28.7002 9.62275 28.6608C7.58838 28.5858 6.23741 26.6709 6.0832 25.5094C5.95037 24.5052 6.08739 22.7873 6.842 22.0231ZM61.5526 22.3982H57.8908L56.5047 27.7483H60.0499C61.4443 27.7483 63.3449 27.0525 63.8107 25.3114C64.2707 23.5654 62.9421 22.3982 61.5526 22.3982ZM116.579 13.406L112.59 22.8746H116.7L116.579 13.406ZM60.45 12.0028L59.4001 16.6456H62.1473C63.2072 16.6456 65.0789 16.3761 65.5467 14.3144C66.0595 12.0762 64.303 12.016 63.4605 12.016L60.45 12.0028Z" fill="white"/>
</svg>
