<svg width="138" height="40" viewBox="0 0 138 40" fill="none" xmlns="http://www.w3.org/2000/svg">
<path d="M15.2139 25.5546L19.2467 22.297C18.5704 21.4475 17.9284 20.5906 17.3235 19.7059C12.6589 12.952 9.89517 6.08107 11.8907 0.000216484H0V6.5629L15.2139 25.5546Z" fill="white"/>
<path d="M21.5727 15.7407C21.8251 13.597 22.4745 9.55401 26.4034 6.5507C29.8054 3.95868 34.0628 3.46015 37.8331 5.06252V8.44002e-05H16.8422C15.4571 6.15983 19.0957 12.9286 21.5727 15.7407Z" fill="white"/>
<path d="M26.6654 9.56317L26.6505 9.57361C22.7002 12.7858 23.6716 17.8269 27.3491 22.3472C30.1815 25.836 33.9712 28.285 37.8334 26.4283V11.5446C34.3637 7.98796 30.1991 6.68615 26.6654 9.56317Z" fill="white"/>
<path d="M0 14.326V37.8566H0.00556638L11.4519 28.5914L0 14.326Z" fill="white"/>
<path d="M20.8179 24.1632C19.6934 25.0878 18.3046 26.2195 16.7637 27.4793L18.2508 29.3324C20.4004 32.0228 23.5463 36.6842 27.4418 35.4225L27.5866 35.5997L24.8182 37.8566H37.8334V28.9052C31.137 32.5462 25.3795 29.2321 20.8179 24.1632Z" fill="white"/>
<path d="M14.537 32.438L12.9961 30.52C9.83713 33.0573 6.52142 35.7171 3.83008 37.857H18.3927C17.4473 35.8489 15.7291 33.9253 14.537 32.438Z" fill="white"/>
<path d="M69.3445 15.8144C72.8309 15.2045 75.1001 12.192 75.1001 8.34755C75.1001 3.22479 70.6693 0.000505447 63.086 0.000505447H48.0781V0.175119C51.1443 1.85735 51.0738 4.57281 51.0738 7.16671V30.6361C51.0738 33.2745 51.1443 36.0178 48.0781 37.6731V37.8441H55.3051C62.3652 37.8441 67.7803 37.9646 71.8215 36.0634C76.1151 34.0442 78.7164 30.4208 78.7164 26.0026C78.7164 20.3637 74.524 16.9044 69.3445 15.8144ZM56.9593 3.49138L61.7093 3.56939C65.2319 3.56939 68.8333 5.29522 68.8333 9.26494C68.8333 13.982 65.6456 15.2428 61.1044 15.2428L56.9593 15.248V15.2428V3.49138ZM61.5376 33.9551L56.9593 33.9603V19.0395V18.8278L61.8818 18.8043C67.6106 18.8043 72.3392 20.9331 72.3392 26.5145C72.3392 31.9798 67.3749 33.9551 61.5376 33.9551Z" fill="white"/>
<path d="M90.2215 30.6379C90.2215 33.8668 90.163 36.159 93.2106 37.9517V38.1143H83.0371V37.9517C86.081 36.159 86.0281 33.8668 86.0281 30.6379V7.64119C86.0281 4.43641 86.081 1.89545 83.0408 0.177961V0.000758648H91.4859V0.0573836C91.7105 0.743444 92.0843 1.12873 92.345 1.50009C92.6159 1.85845 93.1484 2.64477 93.1484 2.64477L112.521 28.773V7.41756C112.521 4.19796 112.571 1.89557 109.534 0.17808V0.00087811H119.646V0.17808C116.66 1.89557 116.66 4.19796 116.66 7.41756V39.9998C114.813 39.2664 109.663 34.9755 105.996 30.0384C99.4125 21.1909 90.2215 8.88626 90.2215 8.88626V30.6379Z" fill="white"/>
<path d="M129.08 6.86066C129.08 4.21572 129.035 1.85768 126.098 0.178237V0H138V0.178237C135.051 1.8066 135.025 4.26773 135.025 6.86066V31.0495C135.025 33.6341 134.957 36.254 138 37.939V38.1096H126.098V37.939C129.159 36.2298 129.08 33.6564 129.08 31.0653V6.86066Z" fill="white"/>
</svg>
