<svg width="107" height="40" viewBox="0 0 107 40" fill="none" xmlns="http://www.w3.org/2000/svg">
<path d="M101.953 3.52492C101.888 3.52494 101.823 3.5378 101.763 3.56275C101.703 3.5877 101.648 3.62426 101.602 3.67033C101.556 3.7164 101.519 3.77108 101.494 3.83125C101.469 3.89142 101.457 3.9559 101.457 4.021V35.8349C101.457 36.1102 101.677 36.3333 101.953 36.3333H106.506C106.567 36.3333 106.628 36.3191 106.666 36.2974C106.764 36.2658 106.849 36.2039 106.909 36.1207C106.969 36.0375 107.001 35.9374 107 35.8349V4.021C107 3.95608 106.988 3.89175 106.963 3.83168C106.938 3.77161 106.902 3.71699 106.856 3.67092C106.81 3.62485 106.756 3.58824 106.696 3.56319C106.636 3.53814 106.571 3.52513 106.506 3.52492H101.953ZM74.6467 3.52492C74.515 3.52536 74.3888 3.57777 74.2957 3.67071C74.2026 3.76366 74.1501 3.88958 74.1497 4.021V35.8349C74.1497 36.1102 74.3733 36.3333 74.6467 36.3333H79.0724C79.138 36.3333 79.2029 36.3204 79.2636 36.2954C79.3242 36.2704 79.3793 36.2337 79.4257 36.1874C79.4721 36.1411 79.5089 36.0862 79.534 36.0257C79.5591 35.9652 79.572 35.9004 79.572 35.8349V24.274C79.5715 24.2092 79.5839 24.1448 79.6086 24.0848C79.6332 24.0247 79.6696 23.9702 79.7156 23.9243C79.7615 23.8784 79.8162 23.8421 79.8764 23.8175C79.9366 23.793 80.0011 23.7806 80.0661 23.7811H83.6449C83.8025 23.7811 83.954 23.8582 84.0449 23.9875L92.5936 36.121C92.6902 36.2505 92.8361 36.3333 92.9991 36.3333H98.0931C98.4933 36.3333 98.7273 35.8818 98.4956 35.5513L90.4497 24.1249C90.2511 23.8441 90.3972 23.4477 90.7337 23.3597C92.0252 23.021 93.1704 22.5172 94.1332 21.862C95.0992 21.2039 95.9129 20.4274 96.5533 19.5601C97.1934 18.6985 97.6736 17.7238 97.9771 16.6777C98.2846 15.6162 98.4414 14.517 98.4431 13.4122C98.4431 11.9694 98.1978 10.6285 97.7259 9.4143C97.2513 8.21945 96.5395 7.17599 95.6041 6.31686C94.6576 5.44961 93.4517 4.75855 92.0252 4.26852C90.5792 3.77556 88.885 3.52492 86.9837 3.52492H74.6467ZM80.0661 8.32935H87.033C87.4413 8.32935 87.8361 8.35437 88.2418 8.404C89.4917 8.59396 90.5211 9.04542 91.3076 9.75316C92.392 10.7305 92.9439 11.9452 92.9439 13.3659C92.9439 14.0569 92.8279 14.7451 92.6016 15.4032C92.374 16.0748 91.9988 16.6872 91.5034 17.1954C91.0068 17.7076 90.3638 18.1259 89.5995 18.4397C88.8353 18.7535 87.9134 18.9133 86.8566 18.9133H80.0661C79.7902 18.9133 79.572 18.6901 79.572 18.4149V8.82272C79.5715 8.75782 79.5839 8.69345 79.6085 8.63338C79.6331 8.57331 79.6695 8.51874 79.7155 8.47283C79.7615 8.42693 79.8162 8.39062 79.8763 8.36602C79.9365 8.34142 80.001 8.32882 80.0661 8.32935ZM48.7744 3.52492C48.6428 3.52541 48.5167 3.57786 48.4237 3.67081C48.3307 3.76376 48.2784 3.88966 48.2781 4.021V35.8349C48.2781 36.1102 48.5013 36.3333 48.7744 36.3333H61.3323C63.2307 36.3333 64.9057 36.0718 66.3157 35.5651C67.7093 35.0584 68.8794 34.3565 69.7899 33.4782C70.7032 32.5998 71.3876 31.5647 71.8264 30.3972C72.2705 29.2244 72.4967 27.9412 72.4967 26.592C72.4967 24.7914 72.0802 23.1697 71.2578 21.7709C70.4273 20.3613 69.4532 19.2632 68.3523 18.5006C68.0984 18.3244 68.0681 17.9605 68.286 17.743C68.5013 17.5282 68.7634 17.2446 69.0587 16.9006C69.3456 16.5732 69.6189 16.1791 69.8758 15.7224C70.1349 15.2735 70.3531 14.7584 70.5353 14.1993C70.7119 13.6572 70.7995 13.0656 70.7995 12.4461C70.7995 11.1959 70.5847 10.0146 70.1596 8.9324C69.7374 7.86684 69.0808 6.91971 68.206 6.12398C67.323 5.32011 66.2029 4.6789 64.8702 4.2216C63.5264 3.7618 61.9285 3.52512 60.121 3.52512L48.7744 3.52492ZM54.0726 8.32935H59.9306C61.0702 8.32935 62.0414 8.47281 62.8196 8.75912H62.8217C63.3434 8.96014 63.7852 9.22455 64.1216 9.54943C64.991 10.3808 65.4322 11.3888 65.4322 12.5507C65.4322 13.5558 65.2529 14.4089 64.8942 15.0889C64.5521 15.7387 64.1962 16.2479 63.843 16.6032L63.6968 16.7492H54.072C53.9399 16.7486 53.8135 16.6959 53.7204 16.6024C53.6274 16.509 53.5752 16.3826 53.5754 16.2508L53.5763 8.82251C53.5771 8.69161 53.6298 8.56635 53.7228 8.47403C53.8158 8.3817 53.9416 8.32977 54.0728 8.32955L54.0726 8.32935ZM54.0726 21.6062H61.6665C63.5124 21.6062 64.9057 22.1018 65.8246 23.0848C66.6856 24.0511 67.1216 25.1964 67.1216 26.4932C67.1216 27.8423 66.6219 29.0128 65.6478 29.971C64.6683 30.9262 63.0848 31.4135 60.9352 31.4135H54.0726C53.941 31.413 53.8149 31.3606 53.7218 31.2677C53.6288 31.1749 53.5763 31.049 53.5759 30.9177V22.1016C53.5759 21.8264 53.7995 21.6062 54.0726 21.6062ZM5.89691 0C2.63801 0 0 2.63201 0 5.88647V34.1104C0 37.3651 2.63801 40 5.89691 40H34.1857C37.4444 40 40.088 37.3651 40.088 34.1106V5.88647C40.088 2.63201 37.4444 0 34.1857 0H5.89691ZM5.89691 4.58798H9.73219V4.60779C10.9131 4.57325 12.0631 4.98751 12.9495 5.76677C13.0212 5.83017 13.0933 5.9019 13.1595 5.968C14.9641 7.76591 14.9392 10.483 13.1098 12.592L7.06952 19.2142C6.66409 19.6575 6.66409 20.3375 7.06952 20.7781L13.0684 27.3529L13.1263 27.4215C14.9723 29.4286 14.989 32.2036 13.1595 34.0237C13.0933 34.0952 13.0212 34.1592 12.9495 34.2224C12.0638 35.0098 10.9242 35.4197 9.73219 35.3868V35.4066H5.89691C5.72613 35.4068 5.557 35.3734 5.39918 35.3083C5.24136 35.2432 5.09796 35.1476 4.97718 35.0272C4.8564 34.9067 4.76062 34.7636 4.69532 34.6062C4.63002 34.4487 4.59647 34.28 4.59661 34.1096V5.88459C4.5965 5.71423 4.63007 5.54551 4.69539 5.38811C4.76071 5.2307 4.8565 5.0877 4.97728 4.96728C5.09806 4.84686 5.24145 4.7514 5.39926 4.68635C5.55706 4.6213 5.72617 4.58773 5.89691 4.58798ZM17.8667 4.58923H22.1053V4.60904C23.2872 4.57429 24.4382 4.9887 25.3256 5.76844C25.3972 5.83183 25.4689 5.90315 25.5352 5.96925C27.3397 7.76716 27.3149 10.4849 25.4854 12.5937L19.5143 19.2815C19.3214 19.4985 19.2161 19.7793 19.2191 20.0693C19.2221 20.3593 19.3331 20.6379 19.5304 20.8509L33.1708 35.4074H17.8669C19.9225 31.9411 19.4589 27.4835 16.4734 24.2703V24.2695L12.5767 19.9993L16.4293 15.7704L16.5116 15.6847C19.4504 12.3695 19.8949 8.00613 17.8667 4.58923ZM30.2398 4.59006H34.1854C34.5302 4.58995 34.8608 4.72647 35.1047 4.96959C35.3485 5.2127 35.4856 5.54251 35.4857 5.88647V31.0847L25.0192 19.9232L28.8022 15.7712L28.8821 15.6857C31.8208 12.371 32.2707 8.00696 30.2398 4.59006Z" fill="white"/>
</svg>
