<svg width="145" height="40" viewBox="0 0 145 40" fill="none" xmlns="http://www.w3.org/2000/svg">
<path d="M39.4961 0.5V39.5H0.5V0.5H39.4961Z" stroke="white"/>
<path d="M26.6587 7.55615H5.39062L14.7906 20.0022H36.0707L26.6587 7.55615Z" fill="white"/>
<mask id="path-3-inside-1_365_7392" fill="white">
<path d="M36.0742 20.0025H14.8102L5.41016 32.4463H26.6702L36.0822 20.0025"/>
</mask>
<path d="M14.8102 20.0025V19.0025H14.3123L14.0122 19.3997L14.8102 20.0025ZM5.41016 32.4463L4.61223 31.8436L3.40152 33.4463H5.41016V32.4463ZM26.6702 32.4463V33.4463H27.1677L27.4677 33.0496L26.6702 32.4463ZM36.0742 20.0025V19.0025H14.8102V20.0025V21.0025H36.0742V20.0025ZM14.8102 20.0025L14.0122 19.3997L4.61223 31.8436L5.41016 32.4463L6.20809 33.0491L15.6081 20.6052L14.8102 20.0025ZM5.41016 32.4463V33.4463H26.6702V32.4463V31.4463H5.41016V32.4463ZM26.6702 32.4463L27.4677 33.0496L36.8797 20.6057L36.0822 20.0025L35.2846 19.3992L25.8726 31.8431L26.6702 32.4463Z" fill="white" mask="url(#path-3-inside-1_365_7392)"/>
<path d="M140.872 19.7317C141.805 19.1893 142.578 18.4112 143.116 17.4753C143.653 16.5394 143.934 15.4787 143.932 14.3996C143.932 9.85564 140.828 7.03368 135.838 7.03368H125.358V33.0857H136.278C141.22 33.0857 144.292 30.1957 144.292 25.5397C144.35 24.3448 144.058 23.159 143.451 22.1283C142.843 21.0977 141.947 20.2672 140.874 19.7397M130.618 11.7596H135.44C137.464 11.7596 138.668 12.8297 138.668 14.6277C138.668 16.4257 137.468 17.4897 135.44 17.4897H130.618V11.7596ZM135.766 28.3737H130.618V22.2457H135.768C136.186 22.2195 136.606 22.2792 137 22.4213C137.395 22.5635 137.756 22.7848 138.061 23.072C138.367 23.3592 138.611 23.7058 138.777 24.0907C138.944 24.4755 139.03 24.8903 139.03 25.3097C139.03 25.729 138.944 26.1438 138.777 26.5287C138.611 26.9135 138.367 27.2602 138.061 27.5472C137.756 27.8343 137.395 28.0558 137 28.198C136.606 28.3402 136.184 28.3998 135.766 28.3737ZM104.888 23.6837C104.688 23.3457 95.6878 6.98569 95.6878 6.98569H90.5418V33.0397H95.8038V17.4757C96.1918 18.1577 104.88 33.2497 104.88 33.2497L113.922 17.4797V33.0397H119.182V6.97764H114.048C114.048 6.97764 105.074 23.3377 104.888 23.6757V23.6837ZM84.1078 7.03966H78.8458V33.0917H84.1078V7.03966ZM70.1318 26.8177C68.8622 27.8263 67.3337 28.4565 65.722 28.6358C64.1103 28.8152 62.4808 28.5362 61.0205 27.8313C59.5602 27.1263 58.3282 26.0238 57.4662 24.6503C56.604 23.277 56.1467 21.6882 56.1467 20.0667C56.1467 18.445 56.604 16.8563 57.4662 15.4829C58.3282 14.1094 59.5602 13.0069 61.0205 12.302C62.4808 11.597 64.1103 11.3182 65.722 11.4975C67.3337 11.6768 68.8622 12.307 70.1318 13.3157L70.2118 13.3757L73.8778 9.71361L73.7858 9.63768C71.2887 7.46946 68.093 6.27499 64.7858 6.27366C62.5563 6.26743 60.3587 6.80148 58.3805 7.83006C56.4025 8.85864 54.7032 10.3511 53.4278 12.1798C52.1527 14.0085 51.3393 16.1189 51.0578 18.3305C50.7762 20.5422 51.0347 22.789 51.811 24.879C52.5873 26.969 53.8585 28.8397 55.5156 30.3312C57.1728 31.8225 59.1667 32.8903 61.3265 33.443C63.4863 33.9957 65.748 34.0167 67.9178 33.5045C70.0877 32.9923 72.1012 31.9618 73.7858 30.5017L73.8738 30.4217L70.2078 26.7577L70.1318 26.8177Z" fill="white"/>
</svg>
