<svg width="149" height="40" viewBox="0 0 149 40" fill="none" xmlns="http://www.w3.org/2000/svg">
<path d="M19.9998 0C16.5298 0 13.2798 0.89 10.4298 2.44L14.2098 6.87L16.8898 9.93C17.9698 9.56 19.1298 9.36 20.3298 9.36C26.2098 9.36 30.9798 14.13 30.9798 20.01C30.9798 24.16 28.6098 27.75 25.1498 29.5C24.9398 29.62 21.0398 31.82 14.3598 31.82L3.83984 31.79C7.47984 36.77 13.3598 40 19.9898 40C31.0398 40 39.9898 31.05 39.9898 20C39.9898 8.95 31.0498 0 19.9998 0Z" fill="white"/>
<path d="M4.21094 7.73999L12.2509 13.09C13.0809 12.11 14.0909 11.29 15.2209 10.67L8.25094 3.82999C6.72094 4.93999 5.36094 6.25999 4.21094 7.74999V7.73999Z" fill="white"/>
<path d="M11.5898 18.76L21.4398 22.56V20.23L13.0498 15.46C12.3898 16.33 11.8698 17.41 11.5898 18.76Z" fill="white"/>
<path d="M14.1094 14.33L21.4394 19.21V16.78L17.1994 12.62C16.1294 12.98 15.0494 13.52 14.1094 14.33Z" fill="white"/>
<path d="M21.44 26.23V23.55L11.37 20.38C11.27 21.93 11.44 23.75 11.96 25.91C11.96 25.91 9.66 23.52 9.65 19.84L0.25 16.87C0.09 17.89 0 18.93 0 20C0 22.17 0.35 24.27 0.99 26.23H21.44Z" fill="white"/>
<path d="M0.779297 14.48L9.7193 18.08C9.9393 16.76 10.4193 15.53 11.0993 14.44L2.9193 9.59C1.9993 11.1 1.2693 12.74 0.779297 14.48Z" fill="white"/>
<path d="M9.52945 27.45H1.43945C1.86945 28.51 2.37945 29.53 2.97945 30.5H17.4195L19.2695 28.55H10.5795L9.53945 27.45H9.52945Z" fill="white"/>
<path d="M144.271 24.11C142.941 26.16 140.641 27.51 138.011 27.51C133.891 27.51 130.551 24.17 130.551 20.05C130.551 15.93 133.891 12.59 138.011 12.59C140.651 12.59 142.961 13.96 144.281 16.02L148.261 10.44C145.711 7.71 142.071 6 138.041 6C130.311 6 124.051 12.27 124.051 19.99C124.051 27.71 130.321 33.98 138.041 33.98C142.041 33.98 145.641 32.3 148.191 29.61L144.261 24.09L144.271 24.11Z" fill="white"/>
<path d="M95.0305 24.11C93.7005 26.16 91.4005 27.51 88.7705 27.51C84.6505 27.51 81.3105 24.17 81.3105 20.05C81.3105 15.93 84.6505 12.59 88.7705 12.59C91.4105 12.59 93.7206 13.96 95.0406 16.02L99.0205 10.44C96.4705 7.71 92.8306 6 88.8006 6C81.0706 6 74.8105 12.27 74.8105 19.99C74.8105 27.71 81.0806 33.98 88.8006 33.98C92.8006 33.98 96.4005 32.3 98.9505 29.61L95.0205 24.09L95.0305 24.11Z" fill="white"/>
<path d="M101.69 6.42001H112.2C117.9 6.42001 121.39 9.06001 121.39 13.79C121.39 16.27 120.38 18.06 118.48 19.34C121.08 20.5 122.24 22.71 122.24 25.35C122.24 31.05 117.82 33.57 112.39 33.57H101.68V6.42001H101.69ZM111.99 17.43C113.82 17.43 114.8 16.17 114.8 14.51C114.8 12.85 113.83 11.76 111.88 11.76H108.19V17.43H111.99ZM112.43 28.27C114.49 28.27 115.69 26.55 115.69 25.01C115.69 23.47 114.6 21.8 112.6 21.8H108.18V28.27H112.43Z" fill="white"/>
<path d="M58.6209 6.01001C50.8909 6.01001 44.6309 12.28 44.6309 20C44.6309 27.72 50.9009 33.99 58.6209 33.99C66.3409 33.99 72.6109 27.72 72.6109 20C72.6109 12.28 66.3409 6.01001 58.6209 6.01001ZM58.5809 27.52C54.4609 27.52 51.1209 24.18 51.1209 20.06C51.1209 15.94 54.4609 12.6 58.5809 12.6C62.7009 12.6 66.0409 15.94 66.0409 20.06C66.0409 24.18 62.7009 27.52 58.5809 27.52Z" fill="white"/>
</svg>
