<svg width="162" height="40" viewBox="0 0 162 40" fill="none" xmlns="http://www.w3.org/2000/svg">
<path d="M38.4824 13.8654H43.9618C46.9813 13.8654 48.9181 15.7176 48.9181 18.2218C48.9181 20.7261 47.0058 22.6183 43.9618 22.6183H41.1832V27.6668H38.4824V13.8654ZM43.639 20.5501C45.0895 20.5501 46.2172 19.822 46.2172 18.2418C46.2172 16.6457 45.0895 15.9336 43.639 15.9336H41.1832V20.5461H43.639V20.5501Z" fill="white"/>
<path d="M49.2559 22.678C49.2559 19.7577 51.1681 17.3935 54.2694 17.3935C57.8733 17.3935 59.6058 20.2737 59.2053 23.3701H51.732C51.9118 25.0263 52.778 26.0504 54.4124 26.0504C55.5606 26.0504 56.2839 25.5183 56.6679 24.6902H59.1031C58.5189 26.8184 56.8069 27.9626 54.3511 27.9626C50.9883 27.9626 49.2559 25.6383 49.2559 22.678ZM56.8069 21.5339C56.5862 20.1737 55.7608 19.3056 54.2489 19.3056C52.8393 19.3056 52.0548 20.1937 51.7933 21.5339H56.8069Z" fill="white"/>
<path d="M60.5625 17.6896H63.0387V19.5058C63.5004 18.4817 64.6118 17.6136 66.2421 17.6136H66.3851V19.8818H66.2421C63.7251 19.8818 63.1 21.598 63.1 23.4902V27.6706H60.5625V17.6896Z" fill="white"/>
<path d="M67.3906 17.6904H69.8667V19.2504C70.4306 18.0864 71.5992 17.4343 72.8863 17.4343C74.4554 17.4343 75.5463 18.1064 76.0897 19.2864C76.7762 18.1424 78.0224 17.4343 79.3749 17.4343C81.7325 17.4343 82.9584 18.8544 82.9584 21.2787V27.6674H80.4209V21.7147C80.4209 20.2945 79.8366 19.4665 78.5863 19.4665C77.2379 19.4665 76.4534 20.5306 76.4534 22.3468V27.6714H73.8955V21.7147C73.8955 20.2945 73.3317 19.4665 72.0814 19.4665C70.7125 19.4665 69.9281 20.5306 69.9281 22.3468V27.6714H67.3906V17.6904Z" fill="white"/>
<path d="M84.2656 22.6775C84.2656 19.6212 85.9368 17.413 88.7765 17.413C90.2271 17.413 91.3143 18.0651 92.0007 19.1892V17.689H94.4762V27.666H92.0007V26.1699C91.3143 27.274 90.2271 27.9461 88.7765 27.9461C85.9368 27.9461 84.2656 25.7338 84.2656 22.6775ZM89.3813 25.9138C91.0525 25.9138 91.9598 24.5937 91.9598 22.6815C91.9598 20.7694 91.0525 19.4492 89.3813 19.4492C87.7101 19.4492 86.803 20.7694 86.803 22.6815C86.803 24.5937 87.7305 25.9138 89.3813 25.9138Z" fill="white"/>
<path d="M97.0918 19.6614H95.5391V17.6892H97.0918V15.0089H99.6491V17.6892H101.685V19.6614H99.6491V27.6662H97.0918V19.6614Z" fill="white"/>
<path d="M102.125 22.6775C102.125 19.6212 103.796 17.413 106.636 17.413C108.087 17.413 109.173 18.0651 109.86 19.1892V17.689H112.336V27.666H109.86V26.1699C109.173 27.274 108.087 27.9461 106.636 27.9461C103.796 27.9461 102.125 25.7338 102.125 22.6775ZM107.24 25.9138C108.911 25.9138 109.819 24.5937 109.819 22.6815C109.819 20.7694 108.911 19.4492 107.24 19.4492C105.57 19.4492 104.662 20.7694 104.662 22.6815C104.662 24.5937 105.59 25.9138 107.24 25.9138Z" fill="white"/>
<path d="M117.367 13.8654H123.047C125.625 13.8654 127.296 15.3455 127.296 17.3577C127.296 18.7779 126.511 19.802 125.281 20.3141C126.891 20.7661 128.04 22.0503 128.04 23.7264C128.04 26.0346 126.369 27.6708 123.468 27.6708H117.363V13.8654H117.367ZM122.605 19.582C123.815 19.582 124.701 18.9499 124.701 17.6898C124.701 16.4296 123.753 15.8576 122.585 15.8576H120.007V19.586H122.605V19.582ZM123.047 25.6786C124.317 25.6786 125.384 25.0465 125.384 23.5864C125.384 22.1463 124.317 21.4782 122.949 21.4782H120.007V25.6786H123.047Z" fill="white"/>
<path d="M128.889 22.6775C128.889 19.6212 130.56 17.413 133.4 17.413C134.85 17.413 135.937 18.0651 136.623 19.1892V17.689H139.1V27.666H136.623V26.1699C135.937 27.274 134.85 27.9461 133.4 27.9461C130.56 27.9461 128.889 25.7338 128.889 22.6775ZM134.004 25.9138C135.675 25.9138 136.582 24.5937 136.582 22.6815C136.582 20.7694 135.675 19.4492 134.004 19.4492C132.333 19.4492 131.426 20.7694 131.426 22.6815C131.426 24.5937 132.353 25.9138 134.004 25.9138Z" fill="white"/>
<path d="M140.959 17.6904H143.434V19.2664C144.019 18.0824 145.269 17.4343 146.577 17.4343C148.975 17.4343 150.222 18.8544 150.222 21.2787V27.6674H147.684V21.7147C147.684 20.2945 147.08 19.4665 145.752 19.4665C144.322 19.4665 143.496 20.5306 143.496 22.3468V27.6714H140.959V17.6904Z" fill="white"/>
<path d="M154.587 22.8183V27.6708H152.049V13.8654H154.587V21.7942L158.232 17.6938H161.272L157.124 22.2103L161.819 27.6708H158.697L154.587 22.8183Z" fill="white"/>
<path d="M27.7358 15.9496L15.3225 0L2.91333 15.9496C0.817202 18.6499 0 20.9981 0 23.5504C0 27.4507 1.99397 30.9511 5.56515 33.3994L15.3185 40L25.0758 33.3994C28.6511 30.9511 30.641 27.4467 30.641 23.5504C30.6451 21.0021 29.8278 18.6499 27.7358 15.9496ZM13.3326 32.7513V35.1035L7.3589 31.1031C4.55182 29.2549 2.96645 26.5026 2.96645 23.7024C2.96645 22.2542 3.37505 20.8541 4.09009 19.55C4.39654 20.398 4.9073 21.2501 6.03095 22.5023L12.3643 29.4029C13.3816 30.5511 13.3326 31.2511 13.3326 32.7513ZM8.63374 21.0021C7.04836 19.3019 6.746 18.3538 6.746 17.3537C6.746 16.4016 6.9503 15.5535 8.1761 14.0014L15.3266 4.90049L22.4771 14.0014C23.6539 15.5535 23.9073 16.4016 23.9073 17.3537C23.9073 18.3538 23.6008 19.3059 22.0195 21.0021L15.3225 28.3028L8.63374 21.0021ZM23.2903 31.1031L17.3165 35.1035V32.7513C17.3165 31.2511 17.2675 30.5511 18.289 29.3989L24.6223 22.4983C25.7459 21.2501 26.2567 20.398 26.5632 19.546C27.2782 20.8461 27.6868 22.2462 27.6868 23.6984C27.6827 26.5026 26.1015 29.2509 23.2903 31.1031Z" fill="white"/>
</svg>
