<svg width="200" height="40" viewBox="0 0 200 40" fill="none" xmlns="http://www.w3.org/2000/svg">
<g clip-path="url(#clip0_361_5939)">
<path fill-rule="evenodd" clip-rule="evenodd" d="M62.1585 18.9867C62.7435 17.3508 63.6652 17.0308 64.0268 17.0308C64.3935 17.0308 65.6685 18.3033 65.8993 19.6867C66.1302 21.07 64.7027 23.41 62.9493 23.8225C61.516 24.1592 60.8643 23.6558 60.3827 23.2842C60.2771 23.1997 60.1763 23.127 60.0802 23.0658C59.5468 22.7425 59.1502 22.5267 59.1502 22.5267C57.2184 23.5007 55.0204 23.8139 52.8935 23.4183C52.2511 23.2862 51.6665 22.9553 51.2227 22.4725C50.7779 21.9873 50.4954 21.3757 50.4143 20.7225C50.4018 20.255 50.8468 18.9425 51.3993 18.475C51.8219 18.1558 52.3004 17.9184 52.8102 17.775C52.3398 18.3694 51.9472 19.0213 51.6418 19.715C51.431 20.4425 51.956 21.7383 53.6293 22.115C55.3027 22.49 57.6518 21.8983 58.3985 21.6467L58.571 21.5883C59.1677 21.39 59.2627 21.3583 58.7485 21.1783C58.5335 21.1033 58.0035 20.9933 57.4293 20.8733C56.511 20.6817 55.4785 20.4675 55.4418 20.335C55.3818 20.1183 55.4693 19.2392 56.5752 19.0225L56.736 18.9917C57.8335 18.7775 59.3377 18.4842 59.511 18.195C59.6943 17.8908 59.826 16.7517 59.7227 15.7275C59.6793 15.3025 59.6118 15.0033 59.5643 14.7975C59.4993 14.5075 59.4752 14.4008 59.6193 14.38C59.6471 14.3756 59.6738 14.372 59.6993 14.3692C59.8927 14.3467 59.961 14.3383 59.4685 14.0192C59.2298 13.8667 59.0025 13.6971 58.7885 13.5117C59.1374 13.1239 59.5177 12.7706 59.9293 12.4517C60.0227 12.4 60.0885 12.3417 60.1393 12.2967C60.266 12.185 60.2977 12.1558 60.426 12.5242C60.6052 13.04 60.6485 13.1517 61.3518 13.44C61.6343 13.535 61.9018 13.67 62.1468 13.84L61.5785 15.1517C61.5785 15.1517 60.8393 14.6833 60.736 14.9717C60.6918 15.095 60.6626 15.585 60.6276 16.17C60.5818 16.9517 60.526 17.9017 60.4101 18.375C60.2076 19.2025 59.8418 19.5067 59.3685 19.65C58.896 19.795 59.1302 19.8667 59.7227 20.0108C60.3143 20.155 60.8477 20.8192 60.6602 21.2858C60.4602 21.6475 60.1785 21.9558 59.8377 22.1858C60.3399 22.516 60.9258 22.6963 61.5268 22.7058C62.5768 22.7433 63.6101 22.4475 64.4843 21.8625C65.0885 21.3625 65.1443 21.0267 65.1118 20.6625C65.1035 20.5567 65.1102 20.4633 65.116 20.3892C65.1302 20.2083 65.136 20.1383 64.8743 20.2625C64.8018 20.2967 64.716 20.3458 64.6193 20.4033C64.2185 20.6358 63.6193 20.9833 62.9535 20.8383C62.1268 20.6583 61.8568 19.83 62.1593 18.9867M63.0935 19.1308C63.1101 19.4192 63.4235 19.5783 63.8685 19.5783C64.3102 19.5783 64.4768 19.5067 64.2935 19.2033C64.1374 18.8771 63.8656 18.6205 63.531 18.4833C63.1418 18.3308 63.0776 18.8425 63.0935 19.1308Z" fill="white"/>
<path d="M165.9 14.5875C165.992 13.42 166.122 12.2517 166.122 12.2517C165.66 12.438 165.266 12.7613 164.992 13.1783C164.718 13.5963 164.577 14.0877 164.588 14.5875C164.612 15.2625 164.69 16.0142 164.762 16.7267C164.878 17.8533 164.983 18.8808 164.855 19.3467C164.73 19.8077 164.569 20.2582 164.373 20.6942C165.192 20.2304 165.794 19.4613 166.047 18.555C166.282 17.6633 166.149 16.8358 166.024 16.0633C165.941 15.5467 165.862 15.0558 165.9 14.5883M95.3283 13.7717L94.4458 14.7075C94.1834 14.633 93.9321 14.524 93.6983 14.3833C93.2108 14.0982 92.7398 13.7858 92.2875 13.4475L93.2058 12.28C93.3767 12.4767 93.5867 12.6358 93.8217 12.7475C94.3183 13.0358 94.8833 13.3392 94.8833 13.3392C94.9878 13.2786 95.0792 13.2014 95.1575 13.1075C95.3242 12.9283 95.9042 12.3883 95.9042 12.3883L97.9117 13.4842L96.8183 14.4917L95.3283 13.7717ZM76.1617 14.3158C76.2155 14.3256 76.2709 14.3242 76.3242 14.3118C76.3775 14.2993 76.4277 14.276 76.4717 14.2433C76.6408 14.5625 76.7667 14.9033 76.8458 15.2558C76.9683 15.6558 77.1075 15.8675 77.2433 15.8875C77.3792 15.9075 77.5933 15.5633 77.7558 14.8433C77.9183 14.1233 78.0417 13.7317 78.2208 13.7558C78.2585 13.766 78.2938 13.7836 78.3246 13.8077C78.3554 13.8317 78.381 13.8617 78.4 13.8958C78.4189 13.9299 78.4444 13.9598 78.475 13.9839C78.5056 14.0079 78.5408 14.0256 78.5783 14.0358C78.6711 14.0358 78.715 14.0158 78.71 13.9758V13.9358H78.6658C78.7258 13.8646 78.7557 13.7729 78.7492 13.68C78.7492 13.3442 78.535 13.1475 78.1175 13.0917C77.7008 13.0358 77.4892 13.2475 77.3783 13.72C77.3783 13.7475 77.3425 14.12 77.2667 14.82C77.1494 14.4975 77.0102 14.1834 76.85 13.88C76.7739 13.7233 76.6623 13.5863 76.5242 13.48C76.3861 13.3737 76.2252 13.301 76.0542 13.2675C75.6967 13.22 75.5217 13.3475 75.5292 13.6675C75.5274 13.7945 75.5634 13.9191 75.6325 14.0256C75.7017 14.1321 75.8008 14.2157 75.9175 14.2658C75.9953 14.2992 76.0767 14.3158 76.1617 14.3158ZM181.342 14.7433L179.315 13.9517L178.579 15.2275L180.614 16.055L181.342 14.7433ZM52.7542 14.2633C52.4958 14.3717 50 15.1075 50 15.1075C50.7175 15.22 51.4467 15.2442 52.17 15.1792C52.7608 15.0575 52.9783 14.7425 53.2258 14.3858C53.2692 14.3214 53.3147 14.2567 53.3625 14.1917C53.5958 13.8633 53.7025 13.4617 53.665 13.06C53.665 12.8075 52.4167 12.7358 51.8167 12.7717C51.2167 12.8075 50.5525 14.0117 50.5525 14.0117C51.1986 13.8838 51.858 13.8354 52.5158 13.8675C53.1075 13.9758 53.0167 14.1558 52.7542 14.2633ZM170.221 14.7433C170.65 14.66 170.475 15.3075 169.68 15.3275C169.072 15.3275 169.222 14.5958 169.222 14.5958C169.273 14.2842 169.385 13.9858 169.552 13.72C170.363 12.6717 170.304 13.1517 170.304 13.1517C170.304 13.1517 169.568 13.8683 169.509 14.2833C169.449 14.7 169.791 14.8275 170.221 14.7433ZM188.946 14.4083C190.647 13.94 190.965 13.0958 190.965 13.0958L190.992 12.6275C190.992 12.6275 189.184 13.9758 187.534 14.0833C185.885 14.1917 185.488 14.2275 185.488 14.2275C186.602 14.605 187.798 14.6673 188.946 14.4075M148.9 13.7275L142.31 15.2833C141.793 15.4358 141.618 15.0117 142.178 14.9233C142.178 14.9233 145.176 14.0233 146.054 13.9033C146.382 13.8592 146.761 13.7383 147.17 13.6083C147.858 13.39 148.633 13.1433 149.412 13.1758C150.657 13.2275 148.9 13.7275 148.9 13.7275ZM103.874 13.9442C103.928 13.954 103.983 13.9526 104.037 13.9401C104.09 13.9276 104.14 13.9043 104.184 13.8717C104.355 14.1892 104.481 14.53 104.558 14.8833C104.681 15.2833 104.82 15.4958 104.955 15.5158C105.09 15.535 105.305 15.1908 105.467 14.4717C105.631 13.7517 105.754 13.3558 105.933 13.3842C105.97 13.3937 106.006 13.4111 106.037 13.4352C106.068 13.4593 106.093 13.4896 106.112 13.5242C106.131 13.5583 106.156 13.5883 106.187 13.6124C106.218 13.6364 106.253 13.654 106.291 13.6642C106.382 13.6642 106.426 13.6642 106.426 13.6042V13.5633H106.382C106.442 13.4913 106.472 13.3982 106.465 13.3042C106.465 12.9717 106.251 12.7758 105.833 12.72C105.416 12.6642 105.205 12.8758 105.094 13.3475C105.094 13.3725 105.058 13.7475 104.982 14.4475C104.871 14.1245 104.738 13.8092 104.585 13.5033C104.509 13.3468 104.398 13.2103 104.26 13.1048C104.122 12.9993 103.961 12.9277 103.79 12.8958C103.432 12.8442 103.262 12.9758 103.266 13.2958C103.262 13.462 103.324 13.6228 103.438 13.744C103.552 13.8652 103.708 13.937 103.874 13.9442ZM154.625 14.625C154.452 14.5975 154.26 14.5667 153.916 14.6958C153.24 14.9475 152.223 14.7317 152.123 14.2275C152.024 13.7233 153.073 12.8083 153.073 12.8083C153.054 13.0468 152.947 13.27 152.775 13.4358C152.485 13.6675 152.628 13.9758 153.57 13.9758C153.818 13.995 154.067 13.9468 154.291 13.8362C154.514 13.7256 154.703 13.5568 154.838 13.3475C154.838 13.3475 154.627 14.0117 155.117 13.9392C155.264 13.9094 155.401 13.8429 155.516 13.7459C155.63 13.6489 155.719 13.5244 155.772 13.3842L156.118 13.0958C156.148 13.2436 156.164 13.3931 156.166 13.5442C155.965 13.98 155.623 14.3358 155.196 14.5517C154.942 14.675 154.792 14.6517 154.625 14.625ZM130.795 15.2875C131.047 15.2575 131.284 15.1583 131.483 14.9992C131.483 14.9992 131.554 15.2517 132.127 14.9992C132.699 14.7475 132.997 14.4075 133.052 14.0833C133.097 13.9186 133.097 13.7448 133.052 13.58C133.052 13.58 132.802 14.2633 132.408 14.3C132.015 14.3358 131.864 14.1917 131.876 14.0475C131.883 13.9604 131.865 13.8732 131.824 13.7958C131.824 13.7958 131.462 14.5158 131.029 14.5158C130.596 14.5158 130.699 14.2633 130.822 13.9758C130.895 13.7923 130.905 13.5898 130.851 13.4C130.548 13.7332 130.302 14.1141 130.123 14.5275C130.04 14.9275 130.274 15.3958 130.795 15.2875ZM110.623 13.2833L112.65 14.075L111.923 15.3833L109.888 14.5592L110.623 13.2833ZM174.04 17.1392C174.119 17.0604 174.175 16.9624 174.204 16.8548C174.233 16.7472 174.233 16.634 174.204 16.5265C174.175 16.419 174.118 16.3211 174.039 16.2426C173.96 16.164 173.862 16.1077 173.754 16.0792C173.558 16.0192 173.328 15.9908 173.142 15.9667C172.879 15.9342 172.698 15.9117 172.8 15.8275C173.027 15.6519 173.309 15.5627 173.595 15.5758C173.957 15.5758 174.156 15.2508 174.211 14.9275C174.267 14.6033 173.242 14.9992 172.733 15.2875C172.224 15.5758 171.715 16.1517 172.26 16.5625C172.604 16.8242 172.924 16.7975 173.14 16.78C173.265 16.77 173.356 16.7625 173.397 16.815C173.508 16.9592 173.46 17.1392 172.641 17.2792C171.952 17.3667 171.256 17.3908 170.562 17.3508C171.037 17.6333 171.573 17.7942 172.124 17.8192C172.475 17.8874 172.838 17.8603 173.175 17.7408C173.512 17.6212 173.811 17.4134 174.04 17.1392ZM69.8142 13.8675C69.6158 14.0258 69.3783 14.1258 69.1267 14.1558C68.61 14.2642 68.3717 13.7958 68.4508 13.4117C68.6278 12.9971 68.8722 12.6147 69.1742 12.28C69.2292 12.47 69.2192 12.6717 69.1467 12.8558C69.0233 13.1442 68.92 13.3958 69.3533 13.3958C69.7867 13.3958 70.1483 12.6758 70.1483 12.6758C70.1883 12.7533 70.2067 12.8408 70.2 12.9283C70.2 13.06 70.3425 13.2033 70.74 13.1675C71.1375 13.1317 71.3842 12.4483 71.3842 12.4483C71.4292 12.6125 71.4292 12.7867 71.3842 12.9517C71.3283 13.2758 71.0308 13.6158 70.4583 13.8683C69.8858 14.12 69.8142 13.8675 69.8142 13.8675Z" fill="white"/>
<path d="M163.392 13.78C162.922 13.5251 162.47 13.2403 162.037 12.9275C161.799 12.7317 161.87 12.2842 161.87 12.2842C161.87 12.2842 161.385 12.5717 160.964 12.8925C160.891 12.9322 160.828 12.9867 160.778 13.0524C160.728 13.1182 160.692 13.1937 160.673 13.274C160.654 13.3544 160.653 13.4379 160.668 13.519C160.683 13.6002 160.716 13.6772 160.763 13.745C160.825 13.8358 160.911 13.9075 161.011 13.9517C161.284 14.1225 161.277 14.1667 161.254 14.3125C161.237 14.4125 161.212 14.5608 161.266 14.8317C161.397 15.4958 161.345 19.715 161.345 19.715C161.345 19.715 161.246 19.8233 160.55 19.8233C159.854 19.8233 158.884 19.6425 158.762 19.4233C158.656 19.235 158.673 19.225 159.049 19.0017L159.274 18.8667C159.528 18.7426 159.723 18.5262 159.822 18.262C159.92 17.9978 159.913 17.706 159.803 17.4467C159.564 17.0467 158.253 17.0467 157.136 17.195C156.019 17.3433 155.661 18.395 155.944 18.5067C156.036 18.5442 156.168 18.5758 156.308 18.61C156.594 18.68 156.919 18.7592 157.029 18.9067L157.035 18.915L157.04 18.9233L157.052 18.9383C157.198 19.1267 157.203 19.1333 155.121 19.3383C152.93 19.555 147.652 19.3383 146.304 19.0508C145.547 18.9147 144.868 18.4978 144.404 17.8833C144.404 17.8833 144.282 17.6667 144.007 17.9392C143.733 18.2108 143.344 18.8708 143.609 19.1392C143.694 19.2233 143.807 19.3142 143.924 19.4067C144.176 19.6083 144.444 19.8217 144.469 20.0192C144.504 20.3067 143.2 21.1508 141.642 21.7267C140.756 22.074 139.784 22.1369 138.86 21.9067C139.23 21.6306 139.58 21.3306 139.909 21.0067C140.307 20.575 140.573 19.6592 140.064 19.3192C139.556 18.9792 138.077 18.815 138.077 18.815C138.077 18.815 138.101 18.7425 138.423 18.5267C138.744 18.3108 139.492 17.7267 138.677 16.0517C137.862 14.3767 135.919 13.8758 135.919 13.8758C135.919 13.8758 134.789 14.38 135.179 15.0433C135.42 15.4533 135.801 15.6317 136.183 15.81C136.419 15.92 136.654 16.03 136.857 16.195C137.385 16.6275 138.025 17.5392 137.707 17.755C137.528 17.8767 136.965 17.9808 136.391 18.0875C135.947 18.1692 135.495 18.2525 135.207 18.3467C134.548 18.5633 134.11 19.7267 134.11 19.7267L134.699 19.7625C135.251 19.7992 137.823 20.0867 138.24 20.1625C138.294 20.172 138.348 20.1803 138.403 20.1875C138.772 20.24 139.07 20.2817 138.093 20.8458C136.972 21.4942 135.263 22.23 133.585 21.9792C131.908 21.7267 130.771 20.5583 130.704 20.0192C130.668 19.7317 130.838 19.2967 131.002 18.8775C131.146 18.5092 131.285 18.1525 131.276 17.9192C131.256 17.4192 130.779 17.6475 130.629 17.9867C130.599 18.0517 130.548 18.1492 130.484 18.27C130.214 18.7842 129.726 19.71 129.861 20.235L129.866 20.2533L129.879 20.305C130.069 21.0575 130.711 23.6092 133.875 23.47C137.147 23.3258 138.069 22.27 138.069 22.27C138.069 22.27 139.838 23.5825 141.726 23.2583C143.939 22.8783 145.303 20.2383 145.303 20.2383C145.303 20.2383 146.825 20.9025 151.337 20.8142C155.848 20.7267 157.394 19.9867 157.394 19.9867C157.596 20.2139 157.812 20.4258 158.042 20.6225C158.706 21.2342 160.797 20.9983 160.797 20.9983C161.655 20.3991 162.261 19.5031 162.498 18.4833C162.744 17.3233 162.414 14.7317 162.414 14.7317C162.515 14.8006 162.621 14.8606 162.733 14.9117L162.749 14.92C162.955 15.02 162.967 15.0258 163.249 14.66C163.539 14.2833 163.607 13.8875 163.392 13.78Z" fill="white"/>
<path d="M139.706 25.45L137.671 24.6217L138.406 23.35L140.433 24.1383L139.706 25.45ZM199.677 14.1033C199.708 13.48 199.796 12.86 199.94 12.2517C199.94 12.2517 198.545 12.3242 198.35 13.635C198.255 14.2725 198.351 15.4083 198.444 16.52C198.543 17.6992 198.64 18.8508 198.505 19.3467C198.352 19.9762 198.111 20.5809 197.789 21.1425C197.789 21.1425 199.594 20.2983 199.904 18.5908C200.116 17.4217 199.93 16.1208 199.792 15.1625C199.729 14.7217 199.676 14.3525 199.677 14.1033ZM126.502 14.34C126.601 12.7758 128.191 12.2717 128.191 12.2717C128.191 12.2717 128.048 12.9917 127.869 14.0158C127.766 14.61 127.807 15.2242 127.861 15.9917C127.899 16.5458 127.942 17.1808 127.941 17.9467C127.936 19.775 125.986 20.6942 125.986 20.6942C126.294 20.0549 126.492 19.3684 126.573 18.6633C126.61 18.1908 126.576 17.5675 126.54 16.8792C126.496 16.075 126.448 15.1817 126.502 14.34ZM196.056 12.8483C196.113 12.6617 196.129 12.465 196.104 12.2717C196.104 12.2717 195.015 12.6717 194.736 12.9917C194.458 13.3117 194.816 13.7917 195.257 14.1233L195.353 14.195C195.728 14.4758 195.895 14.6 195.623 14.7517C195.329 14.9158 195.181 15.2517 195.385 16.4908C195.587 17.7308 195.666 19.3992 195.476 19.4708C194.896 19.4333 194.346 19.199 193.918 18.8067C193.796 18.6542 193.749 18.4925 193.708 18.3533C193.642 18.1275 193.593 17.9592 193.274 17.9783C193.068 17.9917 192.885 18.0742 192.574 18.2142C192.104 18.4258 191.342 18.7692 189.768 19.2025C187.529 19.7692 185.202 19.8967 182.916 19.5783C182.499 19.5339 182.096 19.4 181.736 19.1858C181.375 18.9708 181.063 18.6824 180.821 18.3392C180.758 18.235 180.589 18.4508 180.425 18.66C180.361 18.74 180.3 18.8183 180.245 18.8792L180.186 18.9433C179.956 19.2033 179.465 19.7558 178.778 19.7225C177.661 19.6708 177.379 19.0592 177.343 17.1392C177.35 15.597 177.438 14.06 177.606 12.5283C177.606 12.5283 176.811 13.1758 176.671 13.7283C176.532 14.2808 176.556 15.2917 176.596 16.9275C176.634 18.4958 176.383 18.59 175.517 18.9125L175.441 18.9408L175.403 18.955C174.446 19.315 171.313 19.8708 170.01 19.2792C168.871 18.7625 168.969 17.8183 169.018 17.3508C169.025 17.282 169.03 17.2247 169.031 17.1792C169.035 17.0792 169.04 16.9895 169.048 16.91C169.065 16.7067 169.074 16.5875 168.968 16.6392C168.821 16.7117 168.256 17.2108 168.308 18.7033C168.36 20.1958 169.386 21.1025 172.303 21.0025C175.221 20.9025 176.449 19.475 176.449 19.475C176.449 19.475 176.357 19.2067 176.934 20.3025C177.51 21.3983 179.275 21.2542 179.648 20.5908C179.796 20.2492 180.053 19.9667 180.38 19.7908C180.38 19.7908 181.536 21.2825 185.411 20.9225C189.532 20.5475 191.145 19.6933 191.86 19.3142C192.051 19.2142 192.178 19.1458 192.272 19.1308C192.519 19.0908 192.55 19.1992 192.6 19.3775C192.641 19.5208 192.695 19.71 192.884 19.9025C193.31 20.335 194.386 20.5858 194.931 20.5858C195.476 20.5858 196.497 19.6508 196.688 18.7708C196.879 17.8908 196.589 15.1475 196.589 15.1475C196.781 15.1153 196.964 15.0553 197.137 14.9675C197.562 14.7875 197.662 14.1675 197.662 14.1675C197.662 14.1675 197.265 13.8433 196.811 13.52C196.706 13.4456 196.607 13.3772 196.514 13.315C196.203 13.105 195.986 12.9583 196.056 12.8483ZM188.23 23.4625L186.195 22.6342L186.93 21.3592L188.957 22.1508L188.23 23.4625ZM85.2481 14.5517C85.2323 15.0783 85.2598 15.7158 85.2881 16.3725C85.3456 17.7075 85.4056 19.12 85.1131 19.8308C84.6756 20.8908 84.5523 21.2867 84.5523 21.2867C85.0477 20.9228 85.4624 20.4602 85.7702 19.9281C86.078 19.396 86.2722 18.8059 86.3406 18.195C86.4806 16.9575 86.4539 15.8975 86.4339 15.0942C86.4206 14.5467 86.4098 14.1192 86.4564 13.8358C86.522 13.3164 86.5537 12.795 86.5514 12.2717C86.1623 12.514 85.8395 12.8492 85.612 13.2472C85.3845 13.6452 85.2594 14.0934 85.2481 14.5517ZM82.3306 12.2717C82.3306 12.2717 81.9848 12.7758 83.2006 13.5317C83.6767 13.8256 84.1339 14.147 84.5723 14.4958C84.4989 14.8625 84.3289 15.2025 84.0789 15.4792C83.9869 15.559 83.8675 15.5998 83.7458 15.5931C83.6242 15.5865 83.51 15.5327 83.4273 15.4433C83.4789 16.2633 83.4564 17.0867 83.3598 17.9033C83.1973 19.3425 82.9706 20.2383 80.0648 20.8142C77.6064 21.2592 75.0864 21.2475 72.6314 20.7783C71.3839 20.475 71.2806 19.035 71.2806 19.035C71.161 19.4142 70.943 19.7549 70.6489 20.0225C70.1839 20.4183 68.4781 20.4908 67.6123 20.3467C66.7464 20.2025 66.7173 19.575 66.8173 19.2508C66.9164 18.9267 67.4256 18.135 67.4531 18.2792C67.4573 18.3101 67.4598 18.3413 67.4606 18.3725C67.4639 18.4975 67.4673 18.64 67.7514 18.7825C68.6437 19.0395 69.583 19.0888 70.4973 18.9267C70.7623 18.8917 71.0039 18.7583 71.1764 18.5542C71.3489 18.3492 71.4398 18.0875 71.4314 17.8192C71.4314 17.6492 71.3881 17.3883 71.3439 17.1183C71.2798 16.7342 71.2131 16.3325 71.2648 16.1517C71.3523 15.8433 72.0598 15.2517 72.0598 15.2517C72.1487 15.5945 72.2042 15.9422 72.2264 16.295C72.2481 16.6117 72.2239 16.945 72.1998 17.2733C72.1664 17.7258 72.1339 18.1642 72.2264 18.5192C72.3856 19.1308 73.2439 19.5067 75.1914 19.6867C77.2817 19.7824 79.3763 19.6685 81.4439 19.3467C82.1039 19.1867 82.3781 19.0225 82.2389 18.015C82.1676 17.0703 82.2012 16.1206 82.3389 15.1833C82.3756 14.7417 82.3073 14.7225 82.1531 14.6775C82.0631 14.6508 81.9431 14.6167 81.7981 14.4833C81.7148 14.4075 81.6348 14.3442 81.5623 14.2867C81.2914 14.0717 81.1181 13.9342 81.2214 13.495C81.3531 12.94 82.3306 12.2717 82.3306 12.2717Z" fill="white"/>
<path fill-rule="evenodd" clip-rule="evenodd" d="M125.723 14.3358C125.628 14.1761 125.491 14.0459 125.326 13.96C125.114 13.8192 124.626 13.6033 124.224 13.4258C124.007 13.3292 123.814 13.2442 123.704 13.1875C123.39 13.0275 123.64 12.2517 123.64 12.2517C123.25 12.4717 122.89 12.7408 122.567 13.0517C122.309 13.3758 122.249 13.68 122.694 14.1117C122.882 14.295 123.048 14.4133 123.173 14.5025C123.344 14.6242 123.439 14.6917 123.414 14.7958C123.37 14.9758 123.112 15.8708 123.112 15.8708C122.843 15.7024 122.599 15.4965 122.388 15.2592C121.475 14.4747 120.44 13.8442 119.324 13.3925C117.892 12.7642 117.133 12.5925 116.645 13.3925C116.156 14.1917 116.987 14.5233 118.004 14.7758C118.311 14.8508 118.49 14.865 118.636 14.8758C118.975 14.9025 119.138 14.915 120.309 15.6558C121.349 16.3271 122.251 17.1919 122.965 18.2033C122.965 18.2033 122.432 18.5625 121.808 18.9592C121.591 19.0967 121.41 19.2575 121.254 19.3958C120.962 19.6558 120.762 19.8342 120.587 19.6225C120.41 19.3348 120.305 19.0082 120.282 18.6708C120.155 18.8531 120.045 19.045 119.952 19.2467C119.914 19.3258 119.87 19.4025 119.826 19.48C119.669 19.7517 119.51 20.0292 119.622 20.4467C119.765 20.9825 120.508 21.2467 121.447 21.2183C122.385 21.19 123.831 21.0383 124.05 20.8433C124.479 20.2208 124.733 19.4942 124.785 18.7392C124.785 18.3 124.555 18.1017 124.367 17.9392C124.212 17.8058 124.085 17.6975 124.137 17.4992C124.215 16.6636 124.242 15.8264 124.217 14.9875L124.757 15.2758L125.723 14.3358ZM123.172 19.7942C122.817 19.8308 121.872 19.8308 121.872 19.8308C121.872 19.8308 121.872 19.795 122.269 19.5783C122.626 19.3483 122.956 19.0801 123.255 18.7783C123.43 18.9675 123.557 19.195 123.628 19.4425C123.687 19.7467 123.555 19.7592 123.257 19.7867L123.172 19.7942ZM95.8965 20.4067C96.4607 20.6233 96.5323 20.89 96.1548 21.9342C95.7773 22.9783 93.1932 23.7583 90.8407 23.7942C88.4882 23.83 87.1198 22.0858 87.2632 20.5583C87.4065 19.0308 88.7298 17.6833 88.7298 17.6833C88.7907 17.89 88.7773 18.1125 88.694 18.3108C88.3804 18.8703 88.1855 19.4885 88.1215 20.1267C88.0307 21.0783 88.7023 21.6542 90.6023 22.1942C92.5023 22.7342 95.2407 21.7267 95.2407 21.7267C95.2407 21.7267 95.2723 21.5383 94.084 21.2542C93.1036 21.0759 92.1054 21.0155 91.1107 21.0742L91.2898 19.835C91.2898 19.835 91.1823 19.7625 91.8298 19.5108C92.4782 19.2592 94.4657 18.5942 94.4657 18.5942C94.454 18.0221 94.6267 17.4614 94.9582 16.995C95.5348 16.0433 96.894 14.9633 97.1248 15.1075C97.6705 15.6007 98.0286 16.2677 98.1382 16.995C98.1582 17.8033 98.1582 18.1233 98.1582 18.1233C98.5915 18.2178 99.0287 18.2897 99.4698 18.3392C99.604 18.3492 99.7273 18.3667 99.8357 18.3825C100.125 18.4242 100.307 18.45 100.301 18.2667C100.294 18.0667 100.007 17.7375 99.7557 17.45C99.6923 17.3775 99.6307 17.3083 99.5773 17.2433C99.4802 17.1365 99.3689 17.0434 99.2465 16.9667C99.0507 16.8333 98.8865 16.7208 98.9448 16.4917C99.1607 16.0833 99.4415 15.7125 99.7757 15.3958C99.7757 15.3958 100.078 15.6833 100.4 16.0075C100.722 16.3317 101.505 17.435 101.592 18.0867C101.68 18.7392 101.282 19.8308 100.527 19.9392C99.9907 20.015 99.104 19.8383 98.429 19.7033C98.1523 19.6475 97.9115 19.6 97.7448 19.5783C97.0953 19.4429 96.4226 19.4678 95.7848 19.6508C95.2879 19.8064 94.7744 19.9032 94.2548 19.9392C94.2548 19.9392 95.3323 20.1908 95.8965 20.4067ZM96.2823 16.8008C96.2398 16.8792 96.1882 16.9758 96.1032 17.0675C95.9515 17.2467 95.8323 17.4508 95.749 17.6708C96.0365 17.835 96.3573 17.9283 96.6873 17.9433C96.7696 17.9433 96.8448 17.9445 96.9132 17.9467C97.254 17.955 97.429 17.96 97.3432 17.7067C97.1629 17.303 96.8906 16.9471 96.5482 16.6675C96.4015 16.5783 96.3565 16.6625 96.2823 16.8008Z" fill="white"/>
<path d="M98.6153 23.8142C98.5355 23.9042 98.4432 23.9822 98.3411 24.0458C98.3411 24.0458 97.7769 23.7425 97.2761 23.4542C97.0423 23.3396 96.8331 23.1805 96.6603 22.9858L95.7461 24.1542C96.1989 24.4908 96.6691 24.8014 97.1569 25.0858C97.3903 25.2267 97.6419 25.3358 97.9044 25.41L98.7861 24.4783L100.277 25.1942L101.37 24.19L99.3828 23.0942C99.3828 23.0942 98.7828 23.6342 98.6153 23.8142Z" fill="white"/>
<path fill-rule="evenodd" clip-rule="evenodd" d="M114.705 14.9275C115.198 14.5517 116.18 15.1392 116.616 15.5392C116.669 15.5853 116.728 15.6361 116.794 15.6917C117.296 16.115 118.14 16.8275 118.083 17.9867C118.02 19.2992 117.786 20.235 116.196 20.5583C113.741 20.9175 111.262 21.08 108.782 21.0425C107.621 20.9599 106.472 20.7495 105.356 20.415C105.353 20.597 105.305 20.7755 105.217 20.935C104.897 21.6317 104.347 22.1967 103.659 22.535C102.626 23.0183 100.769 23.0017 99.3423 22.39C97.9157 21.7783 97.8682 21.0425 97.8682 21.0425C97.8682 21.0425 98.4482 21.5467 100.038 21.7258C101.206 21.8233 102.378 21.5966 103.425 21.0708C103.507 21.0369 103.587 21.005 103.666 20.975C104.168 20.7792 104.546 20.6317 104.346 20.2267C104.033 19.6816 103.65 19.18 103.206 18.735C103.183 18.4752 103.263 18.2168 103.428 18.015L103.433 18.0083C103.716 17.6208 103.886 17.3883 104.036 17.5308C104.092 17.5842 104.209 17.7308 104.351 17.91C104.597 18.2192 104.92 18.6242 105.134 18.8067L105.137 18.81C105.473 19.0967 105.684 19.2767 109.152 19.5783C111.641 19.7367 114.139 19.5408 116.573 18.995L116.604 18.9867C116.963 18.885 117.107 18.8442 117.034 18.455C116.954 18.1652 116.819 17.8936 116.636 17.655C116.58 17.7503 116.516 17.8411 116.446 17.9267C116.175 18.2794 115.823 18.5623 115.421 18.7517C114.987 18.895 113.691 18.6233 113.631 17.7267C113.572 16.8317 114.212 15.3033 114.705 14.9275ZM114.92 16.2233C114.478 16.115 114.406 17.1033 114.983 17.3508C115.277 17.4833 116.021 17.2075 115.937 16.995C115.703 16.6231 115.341 16.3489 114.92 16.2233Z" fill="white"/>
<path d="M195.122 34.2775C195.158 33.7519 195.185 33.1386 195.201 32.4375C195.217 31.7367 195.23 30.9308 195.23 30.0208C195.23 29.2575 195.23 28.5942 195.201 28.0392C195.174 27.4842 195.162 26.9792 195.122 26.525L195.521 26.5583H196.396L196.795 26.525C196.763 26.8172 196.738 27.1383 196.719 27.4883C196.699 27.8383 196.719 28.29 196.719 28.845V31.6575C197.144 31.251 197.558 30.8334 197.961 30.405C198.267 30.0656 198.552 29.7083 198.817 29.3333C198.896 29.3472 198.976 29.3567 199.056 29.3617H199.319C199.402 29.3667 199.486 29.3667 199.57 29.3617C199.643 29.3572 199.716 29.3475 199.789 29.3325L197.981 31.2275L200 34.2858C199.841 34.2858 199.689 34.2567 199.542 34.2525C199.396 34.2483 199.259 34.2525 199.12 34.2525H198.701C198.555 34.2525 198.399 34.2525 198.231 34.2817C198.026 33.8978 197.794 33.5069 197.535 33.1092C197.276 32.7125 197.001 32.275 196.691 31.8575V33.5558C196.691 33.8517 196.715 34.0942 196.731 34.2817C196.587 34.2817 196.444 34.2525 196.309 34.2483C196.174 34.2442 196.046 34.2483 195.911 34.2483H195.532L195.122 34.2775ZM52.9715 33.6308C52.819 33.874 52.6047 34.0724 52.3506 34.2058C52.0834 34.3425 51.7866 34.4115 51.4865 34.4067C51.2889 34.4177 51.0911 34.3895 50.9044 34.3237C50.7178 34.2579 50.546 34.1558 50.399 34.0233C50.2654 33.8852 50.1614 33.7213 50.0931 33.5417C50.0238 33.36 49.9926 33.1659 50.0015 32.9717C49.9907 32.6765 50.0899 32.3878 50.2798 32.1617C50.5202 31.9189 50.8212 31.7449 51.1515 31.6575L51.7098 31.4908C52.1156 31.3942 52.5098 31.2442 52.8798 31.0433V30.8683C52.8864 30.7303 52.8642 30.5924 52.8148 30.4633C52.7664 30.3358 52.6924 30.2195 52.5973 30.1217C52.389 29.93 52.1181 29.83 51.8406 29.8417C51.6014 29.8402 51.367 29.9098 51.1673 30.0417C50.9423 30.1983 50.7523 30.4033 50.6098 30.6433L50.479 30.2508L50.3706 29.98C50.6623 29.7325 50.9873 29.5333 51.3348 29.3875C51.6498 29.2575 51.9848 29.1908 52.3223 29.1908C52.8583 29.1518 53.3914 29.2989 53.8315 29.6075C54.0065 29.7533 54.1473 29.9408 54.2398 30.1542C54.3323 30.3675 54.3732 30.6008 54.3615 30.835L54.329 32.6875V32.8875C54.2969 33.1661 54.3482 33.4481 54.4765 33.6975C54.5537 33.7679 54.6455 33.8204 54.7453 33.8514C54.8451 33.8823 54.9505 33.891 55.054 33.8767L55.0856 34.135C54.8989 34.2081 54.7055 34.2628 54.5082 34.2983C54.3197 34.3386 54.1276 34.3596 53.9348 34.3608C53.7038 34.3709 53.4757 34.3051 53.2857 34.1733C53.122 34.0344 53.0123 33.8424 52.9756 33.6308H52.9715ZM52.9198 31.5442C52.5257 31.5942 52.149 31.7458 51.8248 31.9867C51.7094 32.0899 51.6195 32.2186 51.5623 32.3625C51.5042 32.508 51.4783 32.6644 51.4865 32.8208C51.4715 33.0575 51.5315 33.2925 51.6573 33.4892C51.7212 33.5653 51.7979 33.6228 51.8873 33.6617C51.9756 33.7 52.0715 33.7167 52.1673 33.71C52.2722 33.7157 52.377 33.6966 52.4731 33.6542C52.571 33.6119 52.6573 33.5467 52.7248 33.4642C52.8665 33.2575 52.9357 33.005 52.9198 32.75V31.5442ZM55.8948 34.2775C55.9176 33.9386 55.9345 33.5644 55.9457 33.155C55.9582 32.7467 55.9457 32.2917 55.9698 31.7992C55.9698 31.1817 55.9698 30.685 55.9457 30.3133C55.9223 29.9425 55.894 29.6125 55.894 29.3333C56.0056 29.3333 56.1248 29.3583 56.2523 29.3617C56.3798 29.365 56.5107 29.3617 56.6507 29.3617H57.049C57.1723 29.3617 57.2915 29.3617 57.399 29.3325L57.3598 30.1258V30.6558C57.4973 30.2417 57.7315 29.87 58.0407 29.575C58.3381 29.327 58.7161 29.1965 59.1032 29.2083C59.1257 29.3308 59.1257 29.4567 59.1032 29.5792V30.3425C59.1032 30.4758 59.1315 30.5975 59.1556 30.7258C59.0248 30.682 58.8919 30.6448 58.7573 30.6142C58.6553 30.5909 58.5511 30.5783 58.4465 30.5767C58.2965 30.56 58.1457 30.5833 58.0065 30.6433C57.8661 30.7051 57.7435 30.8011 57.6498 30.9225C57.4642 31.266 57.3815 31.6557 57.4115 32.045C57.4044 32.7931 57.4362 33.541 57.5065 34.2858C57.3598 34.2858 57.2198 34.2567 57.0848 34.2525C56.9498 34.2483 56.8215 34.2525 56.6865 34.2525H56.2881L55.8948 34.2775ZM62.7748 33.6308C62.6236 33.8754 62.4087 34.0742 62.1531 34.2058C61.8871 34.3419 61.5919 34.4108 61.2932 34.4067C61.0956 34.419 60.8975 34.3914 60.7108 34.3255C60.5241 34.2596 60.3526 34.1569 60.2065 34.0233C60.0726 33.8853 59.9683 33.7214 59.8998 33.5417C59.8305 33.36 59.7993 33.1659 59.8081 32.9717C59.7951 32.676 59.8949 32.3865 60.0873 32.1617C60.329 31.9142 60.6298 31.74 60.959 31.6575L61.5165 31.4908C61.9231 31.3933 62.3165 31.2433 62.6873 31.0433V30.8683C62.6938 30.7297 62.6714 30.5912 62.6215 30.4617C62.5719 30.3344 62.4967 30.2187 62.4006 30.1217C62.3002 30.0271 62.1819 29.9537 62.0527 29.9056C61.9235 29.8575 61.7859 29.8358 61.6481 29.8417C61.4088 29.8397 61.1743 29.9093 60.9748 30.0417C60.7498 30.1975 60.5581 30.4025 60.4173 30.6433L60.2823 30.2508L60.174 29.98C60.4656 29.7333 60.7906 29.5342 61.1381 29.3875C61.4548 29.2575 61.7906 29.1908 62.1298 29.1908C62.6656 29.152 63.1983 29.2991 63.6381 29.6075C63.8148 29.7533 63.9548 29.9408 64.0465 30.1542C64.1382 30.3675 64.1798 30.6008 64.1681 30.835L64.1365 32.6875V32.8875C64.1073 33.1667 64.1573 33.4483 64.2798 33.6975C64.3573 33.7675 64.4491 33.8198 64.5488 33.8507C64.6486 33.8817 64.7538 33.8905 64.8573 33.8767L64.889 34.135C64.7024 34.2086 64.509 34.2633 64.3115 34.2983C64.123 34.3386 63.9309 34.3596 63.7381 34.3608C63.5083 34.3713 63.2815 34.3053 63.0931 34.1733C62.9244 34.0361 62.8088 33.8442 62.7665 33.6308H62.7748ZM62.7265 31.5442C62.3315 31.595 61.954 31.7467 61.6282 31.9867C61.5147 32.0913 61.4262 32.22 61.369 32.3633C61.3106 32.5083 61.2857 32.665 61.294 32.8217C61.274 33.0633 61.3356 33.3058 61.469 33.505C61.5294 33.5808 61.6075 33.6405 61.6964 33.679C61.7854 33.7175 61.8824 33.7336 61.979 33.7258C62.083 33.7314 62.1869 33.7126 62.2823 33.6708C62.3796 33.6283 62.4653 33.5632 62.5323 33.4808C62.6757 33.2742 62.7465 33.0225 62.7306 32.7667L62.7265 31.5442ZM68.3256 29.8083C68.1573 29.7965 67.9894 29.836 67.844 29.9217C67.6959 30.0092 67.5765 30.1381 67.5006 30.2925C67.3019 30.8137 67.2178 31.3717 67.254 31.9283C67.2198 32.445 67.2982 32.9633 67.4848 33.4433C67.5602 33.5802 67.6725 33.6931 67.809 33.7692C67.9431 33.8441 68.097 33.8761 68.2498 33.8608C68.4198 33.8725 68.5898 33.8325 68.7381 33.745C68.8865 33.6575 69.0073 33.5267 69.0856 33.3675C69.2874 32.8284 69.3729 32.2528 69.3365 31.6783C69.3692 31.1785 69.2889 30.6778 69.1015 30.2133C69.0181 30.0783 68.9015 29.9717 68.7623 29.9025C68.6247 29.834 68.47 29.8071 68.3173 29.825L68.3256 29.8083ZM65.7415 34.265C65.7806 33.815 65.8081 33.2842 65.8248 32.6792C65.8406 32.0742 65.8523 31.3067 65.8523 30.3883C65.8523 29.4708 65.8523 28.7192 65.8248 28.0975C65.7973 27.4758 65.7806 26.9583 65.7415 26.5083C65.9206 26.5375 66.0748 26.5542 66.1998 26.5667H66.9282L67.374 26.5083L67.3298 27.3842V29.8125C67.5131 29.6033 67.7365 29.4375 67.9865 29.3292C68.2615 29.2192 68.5531 29.1667 68.8473 29.1742C69.1315 29.1617 69.4156 29.2133 69.679 29.3275C69.9423 29.4417 70.179 29.6142 70.3723 29.8333C70.7681 30.3317 70.9706 30.9675 70.9373 31.615C70.954 31.99 70.9006 32.3633 70.779 32.7158C70.6573 33.0683 70.4706 33.3917 70.229 33.6683C70.0007 33.9187 69.7206 34.1163 69.4081 34.2475C69.0999 34.3764 68.7669 34.435 68.4332 34.4192C68.1387 34.4234 67.8468 34.3652 67.5765 34.2483C67.3062 34.1154 67.0653 33.9295 66.8681 33.7017C66.6907 33.7799 66.5189 33.8704 66.354 33.9725C66.2002 34.0659 66.0527 34.1692 65.9123 34.2817L65.7415 34.265ZM77.794 33.6308C77.643 33.8753 77.4284 34.074 77.1731 34.2058C76.9071 34.3419 76.6119 34.4108 76.3131 34.4067C76.1154 34.4191 75.9172 34.3915 75.7304 34.3257C75.5435 34.2598 75.3719 34.157 75.2257 34.0233C75.0906 33.8863 74.9859 33.7225 74.9181 33.5425C74.849 33.3605 74.818 33.1662 74.8273 32.9717C74.8143 32.676 74.9141 32.3865 75.1065 32.1617C75.3481 31.9142 75.6498 31.74 75.9782 31.6575L76.5365 31.4908C76.9423 31.3933 77.3356 31.2433 77.7065 31.0433V30.8683C77.713 30.7297 77.6906 30.5912 77.6406 30.4617C77.591 30.3344 77.5159 30.2187 77.4198 30.1217C77.3194 30.0271 77.2011 29.9537 77.0719 29.9056C76.9426 29.8575 76.8051 29.8358 76.6673 29.8417C76.4279 29.8397 76.1935 29.9093 75.994 30.0417C75.769 30.1975 75.5782 30.4025 75.4365 30.6433L75.3015 30.2508L75.194 29.98C75.4856 29.7333 75.8106 29.5342 76.1573 29.3875C76.474 29.2575 76.8098 29.1908 77.149 29.1908C77.685 29.1518 78.2181 29.2989 78.6581 29.6075C78.8331 29.7533 78.974 29.9408 79.0665 30.1542C79.159 30.3675 79.1998 30.6008 79.1873 30.835L79.1556 32.6875V32.8875C79.1265 33.1667 79.1765 33.4483 79.299 33.6975C79.3765 33.7675 79.4683 33.8198 79.568 33.8507C79.6677 33.8817 79.773 33.8905 79.8765 33.8767L79.9081 34.135C79.7219 34.2086 79.5287 34.2633 79.3315 34.2983C79.1427 34.3387 78.9503 34.3596 78.7573 34.3608C78.5275 34.3713 78.3007 34.3053 78.1123 34.1733C77.9466 34.0348 77.8341 33.843 77.794 33.6308ZM77.7465 31.5442C77.3506 31.595 76.9731 31.7467 76.6473 31.9867C76.5342 32.0914 76.4459 32.2201 76.389 32.3633C76.3306 32.5083 76.3048 32.665 76.3131 32.8217C76.2965 33.0575 76.3565 33.2933 76.484 33.4883C76.5454 33.5632 76.6236 33.6226 76.7123 33.6617C76.7998 33.7 76.8956 33.7167 76.9898 33.71C77.0947 33.716 77.1995 33.6972 77.2956 33.655C77.3937 33.6122 77.48 33.5465 77.5473 33.4633C77.6906 33.2575 77.7615 33.005 77.7465 32.75V31.5442ZM82.3048 29.4125H82.9631L83.3606 29.3875V29.9175H82.3215C82.3215 30.6475 82.3015 31.1442 82.3015 31.465C82.3015 31.9825 82.3015 32.4792 82.3215 32.9467C82.3409 33.4128 82.3659 33.8564 82.3965 34.2775C82.254 34.2775 82.114 34.2483 81.999 34.2442C81.8831 34.24 81.744 34.2442 81.624 34.2442H81.2265C81.0831 34.2442 80.9598 34.2442 80.8282 34.2775C80.861 33.8316 80.8849 33.3852 80.8998 32.9383C80.8998 32.4708 80.9281 31.9825 80.9281 31.4733C80.9281 31.1567 80.9198 30.6603 80.9031 29.9842L80.7448 29.9217H80.1515L80.1715 29.7967C80.1751 29.752 80.1751 29.7071 80.1715 29.6625C80.1748 29.6195 80.1748 29.5763 80.1715 29.5333L80.1515 29.3917L80.4381 29.4167H80.8965C80.8965 29.0833 80.9481 28.7517 81.0515 28.4358C81.1581 28.1 81.314 27.7833 81.5131 27.4967C81.7048 27.1983 81.9506 26.9425 82.2381 26.7458C82.4918 26.5904 82.784 26.5095 83.0815 26.5125C83.1998 26.5136 83.3168 26.5247 83.4323 26.5458C83.559 26.5625 83.6837 26.5903 83.8065 26.6292C83.7631 26.8292 83.7231 27.0458 83.6831 27.2542L83.5756 27.9392C83.4224 27.8219 83.2535 27.7266 83.074 27.6558C82.9237 27.593 82.7627 27.5602 82.5998 27.5592C82.4302 27.5512 82.2634 27.6045 82.1298 27.7092C82.0724 27.7522 82.027 27.8093 81.9982 27.875C81.9676 27.9407 81.9528 28.0126 81.9548 28.085C81.977 28.2961 82.0262 28.5006 82.1023 28.6983C82.174 29.0067 82.2456 29.2492 82.2898 29.4292L82.3048 29.4125ZM84.1648 34.2775C84.1881 33.9386 84.2054 33.5644 84.2165 33.155C84.229 32.7467 84.2406 32.2917 84.2406 31.7992C84.2406 31.1817 84.2406 30.685 84.2165 30.3133C84.1931 29.9425 84.1648 29.6125 84.1648 29.3333C84.2765 29.3333 84.3956 29.3583 84.5231 29.3617C84.6506 29.365 84.7823 29.3617 84.9215 29.3617H85.3198C85.4432 29.3617 85.5623 29.3617 85.6698 29.3325L85.6307 30.1258V30.6558C85.7682 30.2417 86.0023 29.87 86.3115 29.575C86.6085 29.3263 86.9868 29.1957 87.374 29.2083C87.394 29.3317 87.394 29.4553 87.374 29.5792V30.3425C87.3823 30.4719 87.3984 30.5997 87.4223 30.7258C87.2915 30.682 87.1585 30.6448 87.024 30.6142C86.922 30.5909 86.8178 30.5783 86.7131 30.5767C86.5632 30.5606 86.4116 30.5836 86.2731 30.6433C86.1331 30.7052 86.0107 30.8012 85.9173 30.9225C85.7315 31.2659 85.6484 31.6556 85.6782 32.045V33.205C85.6782 33.58 85.7573 33.9225 85.7573 34.2817C85.6106 34.2817 85.4706 34.2525 85.3356 34.2483C85.2006 34.2442 85.0732 34.2483 84.9373 34.2483H84.539L84.1648 34.2775ZM88.4298 34.2775C88.4531 33.7525 88.4731 33.2925 88.4815 32.905C88.489 32.5167 88.4815 32.1492 88.4815 31.8075V30.6183C88.4815 30.2133 88.4532 29.7833 88.4332 29.3333L88.8315 29.3583H89.6482L90.0465 29.3333C90.0223 29.7833 90.0023 30.2092 89.9865 30.6183C89.9706 31.0267 89.9865 31.4192 89.9865 31.8075V32.905C89.9865 33.2967 90.0223 33.7392 90.0465 34.2775C89.9065 34.2775 89.7673 34.2483 89.6482 34.2442C89.5282 34.24 89.3848 34.2442 89.2498 34.2442H88.8515C88.7165 34.2442 88.5448 34.265 88.4173 34.2817L88.4298 34.2775ZM88.4298 27.4717C88.4284 27.3676 88.4489 27.2644 88.4899 27.1688C88.531 27.0732 88.5917 26.9873 88.6681 26.9167C88.7477 26.841 88.8415 26.7818 88.944 26.7424C89.0466 26.7031 89.1559 26.6844 89.2657 26.6875C89.3726 26.6858 89.4788 26.7056 89.578 26.7457C89.6772 26.7857 89.7674 26.8453 89.8431 26.9208C89.9192 26.9909 89.9798 27.0761 90.021 27.171C90.0622 27.2658 90.0831 27.3682 90.0823 27.4717C90.0831 27.5757 90.0623 27.6788 90.0211 27.7743C89.9799 27.8699 89.9193 27.9558 89.8431 28.0267C89.6783 28.1727 89.4659 28.2538 89.2456 28.255C89.0273 28.255 88.8156 28.1742 88.6481 28.0267C88.5712 27.957 88.5096 27.8722 88.4671 27.7775C88.4247 27.6829 88.4023 27.5804 88.4015 27.4767L88.4298 27.4717ZM95.5965 33.3133V33.7308L95.569 33.9433C95.319 34.0972 95.0534 34.2114 94.7723 34.2858C94.4835 34.3665 94.1847 34.4058 93.8848 34.4025C93.1377 34.4433 92.4035 34.1953 91.834 33.71C91.5771 33.4757 91.3758 33.187 91.2448 32.865C91.1095 32.5397 91.0469 32.1887 91.0615 31.8367C91.0506 31.4775 91.1165 31.12 91.2548 30.7908C91.3923 30.4617 91.5982 30.1692 91.8582 29.9333C92.4179 29.4337 93.1512 29.1734 93.9006 29.2083C94.2423 29.2108 94.5831 29.2525 94.9156 29.3333C95.209 29.4 95.4907 29.5175 95.7482 29.6792C95.6323 29.9208 95.5448 30.1208 95.4773 30.28C95.4098 30.4392 95.3615 30.5767 95.3182 30.6967L95.1748 30.635C95.1068 30.3557 94.9553 30.1037 94.7407 29.9125C94.5261 29.7493 94.2617 29.6653 93.9923 29.675C93.7928 29.6682 93.595 29.7142 93.419 29.8083C93.2404 29.9051 93.0895 30.046 92.9807 30.2175C92.7102 30.6638 92.5812 31.1815 92.6107 31.7025C92.5713 32.2495 92.7111 32.7945 93.009 33.255C93.1531 33.4367 93.3373 33.58 93.5448 33.6733C93.7523 33.7667 93.9773 33.8083 94.2031 33.7933C94.4373 33.7933 94.6698 33.7517 94.8923 33.6725C95.1306 33.5892 95.3548 33.4667 95.5573 33.3092L95.5965 33.3133ZM99.3315 33.635C99.1805 33.8794 98.9659 34.0782 98.7107 34.21C98.4446 34.346 98.1494 34.415 97.8506 34.4108C97.6529 34.4232 97.4547 34.3957 97.2679 34.3298C97.081 34.264 96.9094 34.1612 96.7631 34.0275C96.6291 33.8897 96.5245 33.7261 96.4556 33.5467C96.3867 33.3646 96.3561 33.1703 96.3656 32.9758C96.3524 32.6803 96.4519 32.3908 96.644 32.1658C96.8856 31.9183 97.1873 31.7442 97.5156 31.6617L98.0698 31.495C98.479 31.3976 98.8737 31.2471 99.244 31.0475V30.8725C99.2506 30.7342 99.2285 30.596 99.179 30.4667C99.1293 30.3388 99.0539 30.2225 98.9573 30.125C98.8568 30.0306 98.7385 29.9573 98.6093 29.9094C98.48 29.8614 98.3425 29.8398 98.2048 29.8458C97.9644 29.8437 97.7288 29.9133 97.5281 30.0458C97.3026 30.2043 97.1139 30.4095 96.9748 30.6475L96.839 30.2558L96.7315 29.9842C97.0232 29.7375 97.3481 29.5383 97.6948 29.3917C98.0115 29.2617 98.3473 29.195 98.6865 29.195C99.2225 29.1559 99.7556 29.3031 100.196 29.6117C100.371 29.7583 100.51 29.945 100.602 30.1592C100.694 30.3717 100.736 30.605 100.726 30.8392L100.693 32.6917V32.8917C100.664 33.1708 100.714 33.4525 100.836 33.7017C100.914 33.7716 101.006 33.8238 101.106 33.8547C101.205 33.8857 101.31 33.8946 101.414 33.8808L101.446 34.1392C101.259 34.2127 101.066 34.2674 100.869 34.3025C100.68 34.3428 100.488 34.3637 100.296 34.365C100.066 34.375 99.8387 34.3091 99.6498 34.1775C99.4699 34.0437 99.3442 33.8497 99.2956 33.6308L99.3315 33.635ZM99.284 31.5483C98.8881 31.5992 98.5115 31.7517 98.1848 31.9908C98.0716 32.0956 97.9831 32.2243 97.9256 32.3675C97.8678 32.5131 97.8422 32.6694 97.8506 32.8258C97.8331 33.0617 97.894 33.2975 98.0215 33.4925C98.0848 33.5692 98.1609 33.6269 98.2498 33.6658C98.337 33.7044 98.4323 33.721 98.5273 33.7142C98.6324 33.7203 98.7375 33.7015 98.834 33.6592C98.9317 33.6163 99.0178 33.5505 99.0848 33.4675C99.229 33.2617 99.299 33.0092 99.284 32.7542V31.5483ZM102.242 34.2692C102.272 33.8119 102.293 33.3794 102.306 32.9717C102.318 32.5625 102.33 32.1742 102.33 31.7992C102.33 31.4242 102.33 30.9642 102.306 30.5475C102.282 30.13 102.271 29.7125 102.242 29.295C102.358 29.295 102.473 29.32 102.596 29.3242C102.72 29.3283 102.856 29.3242 102.995 29.3242H103.393C103.521 29.3242 103.628 29.3242 103.736 29.295V30.0175C103.939 29.7533 104.196 29.5408 104.488 29.3958C104.781 29.2602 105.101 29.1919 105.424 29.1958C105.675 29.1908 105.925 29.235 106.161 29.325C106.372 29.4033 106.565 29.5317 106.722 29.7C106.846 29.8417 106.935 30.0133 106.976 30.2008C107.044 30.5325 107.071 30.8717 107.056 31.2108V33.4133C107.056 33.6975 107.088 33.9817 107.116 34.2483C106.961 34.2483 106.817 34.2192 106.682 34.215C106.547 34.2108 106.419 34.215 106.284 34.215H105.886C105.742 34.215 105.615 34.215 105.464 34.2483C105.487 33.97 105.507 33.6194 105.523 33.1967C105.523 32.78 105.547 32.3375 105.547 31.8408C105.589 31.3499 105.524 30.8559 105.356 30.3925C105.282 30.279 105.179 30.1878 105.057 30.1283C104.937 30.0704 104.804 30.0479 104.671 30.0633C104.529 30.053 104.386 30.0837 104.261 30.1517C104.133 30.2213 104.027 30.3252 103.955 30.4517C103.783 30.8673 103.709 31.3171 103.74 31.7658V32.8217L103.783 34.2483C103.648 34.2483 103.512 34.2192 103.385 34.215C103.257 34.2108 103.126 34.215 102.987 34.215H102.589C102.437 34.215 102.35 34.265 102.202 34.2817L102.242 34.2692ZM111.611 34.2692C111.64 33.7442 111.656 33.2842 111.667 32.8967C111.679 32.5092 111.667 32.1408 111.667 31.7992C111.667 31.4575 111.667 31.0142 111.647 30.61C111.627 30.2058 111.62 29.775 111.596 29.325L111.994 29.35H112.81L113.208 29.325C113.185 29.775 113.165 30.2008 113.152 30.61C113.141 31.0183 113.152 31.4108 113.152 31.7992V32.8967C113.152 33.2883 113.185 33.7308 113.208 34.2692C113.069 34.2692 112.933 34.24 112.81 34.2358C112.686 34.2317 112.547 34.2358 112.412 34.2358H112.014C111.874 34.2358 111.715 34.265 111.571 34.2817L111.611 34.2692ZM111.611 27.4633C111.611 27.3581 111.632 27.2539 111.674 27.1575C111.715 27.0622 111.777 26.9771 111.855 26.9083C111.933 26.8324 112.026 26.773 112.128 26.7336C112.23 26.6942 112.339 26.6757 112.448 26.6792C112.555 26.6767 112.661 26.6961 112.761 26.7363C112.86 26.7764 112.95 26.8364 113.025 26.9125C113.102 26.9818 113.164 27.0666 113.205 27.1614C113.247 27.2562 113.269 27.3588 113.268 27.4625C113.271 27.5672 113.25 27.6712 113.208 27.7671C113.166 27.863 113.104 27.9485 113.025 28.0175C112.862 28.1593 112.654 28.238 112.438 28.2392C112.223 28.2392 112.016 28.1617 111.851 28.0183C111.764 27.9557 111.693 27.8746 111.642 27.7809C111.591 27.6871 111.561 27.5832 111.556 27.4767L111.611 27.4633ZM114.67 34.2692C114.696 33.8119 114.718 33.3794 114.733 32.9717C114.749 32.5625 114.753 32.1742 114.753 31.7992C114.753 31.4242 114.753 30.9642 114.733 30.5475C114.713 30.13 114.697 29.7125 114.67 29.295C114.785 29.295 114.901 29.32 115.024 29.3242C115.147 29.3283 115.279 29.3242 115.422 29.3242H115.821C115.944 29.3242 116.059 29.3242 116.166 29.295V30.0175C116.37 29.7533 116.627 29.5408 116.919 29.3958C117.212 29.2602 117.532 29.1919 117.855 29.1958C118.105 29.1908 118.353 29.235 118.587 29.325C118.801 29.4017 118.993 29.53 119.149 29.7C119.275 29.8417 119.364 30.0133 119.408 30.2008C119.473 30.5325 119.5 30.8717 119.487 31.2108V32.5C119.487 32.825 119.487 33.13 119.507 33.4133C119.527 33.6967 119.539 33.9817 119.563 34.2483C119.412 34.2483 119.265 34.2192 119.129 34.215C118.994 34.2108 118.871 34.215 118.731 34.215H118.333C118.19 34.215 118.062 34.215 117.911 34.2483C117.936 33.9567 117.954 33.6061 117.966 33.1967C117.978 32.7883 117.995 32.3375 117.995 31.8408C118.036 31.3499 117.971 30.8558 117.803 30.3925C117.729 30.2792 117.626 30.1879 117.505 30.1283C117.385 30.0707 117.251 30.0482 117.118 30.0633C116.976 30.0513 116.833 30.0811 116.707 30.1492C116.579 30.2189 116.473 30.3235 116.401 30.4508C116.229 30.8667 116.156 31.3168 116.186 31.7658V32.8217L116.231 34.2483C116.095 34.2483 115.96 34.2192 115.832 34.215C115.705 34.2108 115.57 34.215 115.434 34.215H115.036C114.885 34.215 114.761 34.265 114.614 34.2817L114.67 34.2692ZM121.101 29.9175H120.36C120.362 29.8825 120.362 29.8475 120.36 29.8125V29.3792C120.682 29.4125 120.869 29.425 120.976 29.425H121.101V28.6242L121.068 28.06C121.324 27.9683 121.573 27.8725 121.817 27.7725C122.06 27.6725 122.303 27.5642 122.537 27.4558L122.653 27.5425L122.606 28.5317V29.4575H123.163C123.322 29.4575 123.506 29.4575 123.668 29.4292V29.6958C123.664 29.7753 123.664 29.8544 123.668 29.9333L123.33 29.9583H122.59V30.1967C122.57 30.7028 122.558 31.2093 122.554 31.7158V32.1325C122.521 32.6243 122.563 33.1181 122.677 33.5975C122.716 33.6902 122.784 33.7681 122.87 33.82C122.955 33.8717 123.053 33.8925 123.151 33.8808C123.365 33.8649 123.577 33.8272 123.784 33.7683V34.1483C123.567 34.2417 123.344 34.3153 123.115 34.3692C122.923 34.4158 122.727 34.4395 122.53 34.44C122.142 34.468 121.758 34.344 121.459 34.0942C121.33 33.9599 121.231 33.8 121.167 33.625C121.103 33.4479 121.076 33.2596 121.088 33.0717V32.195C121.088 31.6233 121.108 31.06 121.108 30.5267L121.101 29.9175ZM125.707 31.8367C125.681 32.3483 125.841 32.8523 126.157 33.255C126.311 33.43 126.501 33.5683 126.711 33.6592C126.92 33.7498 127.148 33.7914 127.376 33.7808C127.623 33.7808 127.869 33.7408 128.104 33.66C128.346 33.5733 128.572 33.4475 128.777 33.2883L128.885 33.3633L128.646 33.9517C128.401 34.1099 128.132 34.227 127.85 34.2983C127.522 34.3825 127.186 34.4233 126.85 34.4192C126.487 34.4395 126.125 34.3872 125.783 34.2654C125.441 34.1437 125.127 33.9548 124.859 33.71C124.611 33.4513 124.419 33.1436 124.296 32.8067C124.17 32.4658 124.115 32.1029 124.134 31.74C124.122 31.3983 124.181 31.0592 124.306 30.7433C124.431 30.4283 124.62 30.1442 124.859 29.9125C125.115 29.6755 125.415 29.4919 125.743 29.3722C126.07 29.2526 126.418 29.1995 126.766 29.2158C127.395 29.1717 128.015 29.3825 128.498 29.8042C128.707 30.0267 128.869 30.2933 128.972 30.5858C129.076 30.8783 129.12 31.1908 129.1 31.5025V31.8358L125.707 31.8367ZM125.707 31.3275H127.566V31.0775C127.59 30.7109 127.514 30.3447 127.347 30.0175C127.283 29.904 127.19 29.8101 127.076 29.7458C126.965 29.6822 126.838 29.6518 126.711 29.6583C126.562 29.6545 126.414 29.6908 126.284 29.7633C126.151 29.8375 126.04 29.9452 125.962 30.0758C125.767 30.4328 125.675 30.8377 125.699 31.2442L125.707 31.3275ZM130.087 34.29C130.112 33.9511 130.13 33.5769 130.143 33.1675C130.155 32.7592 130.163 32.3042 130.163 31.8117C130.163 31.1942 130.163 30.6975 130.143 30.3258C130.123 29.9542 130.111 29.625 130.087 29.3417C130.202 29.3417 130.322 29.3667 130.446 29.3708C130.569 29.375 130.708 29.3708 130.844 29.3708H131.242C131.361 29.3708 131.485 29.3708 131.596 29.3417L131.552 30.1333V30.6642C131.691 30.25 131.924 29.8783 132.233 29.5833C132.536 29.3333 132.915 29.2033 133.301 29.2167C133.322 29.3383 133.322 29.465 133.301 29.5875V30.3508C133.301 30.4842 133.328 30.6058 133.348 30.7342C133.217 30.6904 133.084 30.6531 132.95 30.6225C132.848 30.5992 132.744 30.5867 132.64 30.585C132.49 30.5683 132.339 30.5917 132.2 30.6517C132.059 30.7134 131.937 30.8094 131.843 30.9308C131.654 31.2732 131.57 31.6635 131.601 32.0533C131.601 32.47 131.601 32.8383 131.62 33.2133C131.64 33.5883 131.664 33.9517 131.696 34.2942C131.552 34.2942 131.409 34.265 131.274 34.2608C131.139 34.2567 131.011 34.2608 130.876 34.2608H130.497L130.087 34.29ZM134.304 34.29C134.357 33.4677 134.386 32.644 134.391 31.82C134.391 31.445 134.391 30.985 134.367 30.5683C134.344 30.1508 134.331 29.7333 134.304 29.3158C134.42 29.3158 134.535 29.3408 134.658 29.345C134.781 29.3492 134.917 29.345 135.056 29.345H135.455C135.582 29.345 135.69 29.345 135.797 29.3158V30.0383C136 29.7742 136.257 29.5617 136.55 29.4167C136.844 29.2806 137.165 29.2123 137.489 29.2167C137.739 29.2125 137.987 29.2558 138.222 29.345C138.434 29.4242 138.626 29.5533 138.783 29.7208C138.908 29.8625 138.996 30.0342 139.038 30.2217C139.106 30.5533 139.132 30.8925 139.118 31.2317V33.4342C139.118 33.7183 139.15 34.0017 139.177 34.2692C139.022 34.2692 138.879 34.24 138.744 34.2358C138.609 34.2317 138.481 34.2358 138.346 34.2358H137.947C137.804 34.2358 137.681 34.2358 137.525 34.2692C137.549 33.9908 137.569 33.6403 137.585 33.2175C137.585 32.8008 137.609 32.3583 137.609 31.8617C137.65 31.3707 137.585 30.8766 137.417 30.4133C137.344 30.3 137.24 30.2087 137.119 30.1492C136.999 30.0913 136.865 30.0687 136.733 30.0842C136.591 30.0739 136.448 30.1045 136.322 30.1725C136.194 30.2421 136.089 30.346 136.016 30.4725C135.844 30.8881 135.771 31.3379 135.801 31.7867V32.8425L135.845 34.2692C135.71 34.2692 135.574 34.24 135.446 34.2358C135.319 34.2317 135.188 34.2358 135.048 34.2358H134.671C134.539 34.2358 134.443 34.265 134.296 34.2817L134.304 34.29ZM143.247 33.6392C143.096 33.8837 142.881 34.0825 142.626 34.2142C142.36 34.3502 142.064 34.4191 141.766 34.415C141.568 34.4273 141.37 34.3997 141.183 34.3338C140.997 34.268 140.825 34.1652 140.679 34.0317C140.544 33.8928 140.44 33.7279 140.371 33.547C140.302 33.3662 140.272 33.1732 140.281 32.98C140.267 32.6845 140.367 32.3949 140.559 32.17C140.798 31.9248 141.1 31.7503 141.431 31.6658L141.989 31.4992C142.396 31.4017 142.789 31.2517 143.16 31.0517V30.8767C143.166 30.7383 143.144 30.6001 143.094 30.4708C143.045 30.343 142.969 30.2267 142.873 30.1292C142.773 30.0347 142.654 29.9613 142.525 29.9134C142.395 29.8654 142.258 29.8439 142.12 29.85C141.879 29.8484 141.644 29.918 141.443 30.05C141.218 30.2084 141.029 30.4137 140.89 30.6517L140.755 30.26L140.647 29.9883C140.937 29.7433 141.261 29.5435 141.611 29.3958C141.925 29.2656 142.262 29.1988 142.602 29.1992C143.138 29.1603 143.672 29.3078 144.111 29.6167C144.286 29.7617 144.426 29.9483 144.519 30.1625C144.611 30.3758 144.653 30.6092 144.641 30.8433L144.609 32.6958V32.8958C144.58 33.175 144.629 33.4567 144.752 33.7058C144.83 33.7758 144.922 33.8281 145.021 33.8591C145.121 33.89 145.226 33.8988 145.33 33.885L145.361 34.1433C145.175 34.2169 144.981 34.2717 144.784 34.3067C144.595 34.3469 144.403 34.3679 144.211 34.3692C143.981 34.379 143.754 34.3131 143.566 34.1817C143.396 34.0419 143.28 33.847 143.239 33.6308L143.247 33.6392ZM143.199 31.5525C142.804 31.6033 142.426 31.755 142.101 31.995C141.986 32.0989 141.898 32.2278 141.841 32.3717C141.783 32.5167 141.757 32.6733 141.766 32.83C141.749 33.0658 141.809 33.3017 141.937 33.4967C141.997 33.5718 142.075 33.6312 142.163 33.6697C142.251 33.7082 142.347 33.7246 142.443 33.7175C142.548 33.7238 142.653 33.7052 142.749 33.6633C142.847 33.6204 142.933 33.5547 143 33.4717C143.145 33.2632 143.215 33.0118 143.199 32.7583V31.5525ZM146.313 29.9217H145.568C145.573 29.8868 145.573 29.8515 145.568 29.8167V29.3833C145.895 29.4167 146.078 29.4292 146.19 29.4292H146.313V28.6117L146.281 28.0475C146.535 27.9558 146.784 27.86 147.03 27.76C147.276 27.66 147.516 27.5517 147.746 27.4433L147.866 27.53L147.818 28.5192V29.445H148.376C148.535 29.445 148.718 29.445 148.881 29.4167L148.861 29.5833V29.6833C148.856 29.7622 148.856 29.8417 148.861 29.9217L148.523 29.9467H147.778V30.1675C147.759 30.6734 147.747 31.1796 147.742 31.6858V32.1033C147.71 32.5951 147.751 33.0889 147.866 33.5683C147.905 33.6611 147.973 33.739 148.059 33.7908C148.144 33.8425 148.242 33.8633 148.34 33.8517C148.554 33.8356 148.765 33.7981 148.973 33.7392V34.1192C148.756 34.2125 148.533 34.2861 148.304 34.34C148.111 34.3869 147.913 34.4107 147.715 34.4108C147.326 34.4391 146.942 34.3151 146.643 34.065C146.516 33.9301 146.418 33.77 146.356 33.595C146.293 33.4178 146.267 33.23 146.277 33.0425V32.1658C146.277 31.5942 146.297 31.0308 146.297 30.4975L146.313 29.9217ZM149.777 34.2733C149.801 33.7483 149.817 33.2883 149.829 32.9008C149.841 32.5133 149.829 32.145 149.829 31.8033C149.829 31.4617 149.829 31.0183 149.809 30.6142C149.789 30.21 149.781 29.7792 149.761 29.3283L150.16 29.3533H150.976L151.374 29.3283C151.346 29.7792 151.326 30.205 151.314 30.6142C151.301 31.0233 151.314 31.415 151.314 31.8033V32.9008C151.314 33.2925 151.346 33.735 151.374 34.2733C151.235 34.2733 151.095 34.2442 150.976 34.24C150.856 34.2358 150.713 34.24 150.577 34.24H150.18C150.044 34.24 149.912 34.265 149.769 34.2817L149.777 34.2733ZM149.777 27.4675C149.776 27.3628 149.796 27.2589 149.837 27.1625C149.879 27.0677 149.94 26.9826 150.016 26.9125C150.095 26.8366 150.188 26.7771 150.29 26.7378C150.392 26.6984 150.501 26.6799 150.61 26.6833C150.717 26.6809 150.823 26.7003 150.922 26.7404C151.021 26.7806 151.111 26.8405 151.186 26.9167C151.264 26.986 151.325 27.0709 151.367 27.1659C151.409 27.2609 151.431 27.3637 151.43 27.4675C151.432 27.5722 151.412 27.6762 151.37 27.7721C151.328 27.868 151.265 27.9535 151.186 28.0225C151.024 28.164 150.816 28.2424 150.6 28.2433C150.385 28.2433 150.177 28.165 150.012 28.0225C149.933 27.9565 149.869 27.8737 149.825 27.78C149.78 27.6848 149.755 27.5811 149.753 27.4758L149.777 27.4675ZM152.469 31.8033C152.45 31.4476 152.505 31.0919 152.63 30.7583C152.754 30.4288 152.946 30.1292 153.194 29.8792C153.755 29.3969 154.482 29.1519 155.221 29.1958C155.959 29.1462 156.688 29.3903 157.247 29.875C157.711 30.3975 157.968 31.0833 157.968 31.7967C157.968 32.51 157.711 33.1967 157.247 33.7183C156.664 34.1585 155.954 34.3971 155.224 34.3983C154.499 34.3983 153.791 34.1608 153.201 33.7183C152.948 33.4749 152.751 33.1792 152.623 32.8517C152.493 32.521 152.432 32.1669 152.445 31.8117L152.469 31.8033ZM154.061 31.8033C154.021 32.3733 154.11 32.945 154.321 33.4725C154.418 33.62 154.549 33.7408 154.701 33.825C154.853 33.908 155.022 33.9515 155.195 33.9515C155.367 33.9515 155.537 33.908 155.688 33.825C155.84 33.7417 155.971 33.62 156.068 33.4725C156.282 32.9434 156.372 32.3725 156.331 31.8033C156.372 31.2342 156.282 30.6633 156.068 30.1342C155.973 29.9859 155.843 29.8632 155.689 29.7767C155.538 29.6925 155.368 29.6483 155.194 29.6483C155.021 29.6483 154.851 29.6925 154.7 29.7767C154.546 29.8632 154.416 29.9859 154.321 30.1342C154.107 30.6664 154.016 31.2396 154.054 31.8117L154.061 31.8033ZM158.956 34.2733C158.982 33.8161 159.003 33.3836 159.019 32.9758C159.035 32.5667 159.019 32.1783 159.019 31.8033V30.5517C159.019 30.1342 158.983 29.7167 158.956 29.2992C159.066 29.2992 159.186 29.3242 159.306 29.3283C159.425 29.3325 159.565 29.3283 159.704 29.3283H160.102C160.226 29.3283 160.337 29.3283 160.445 29.2992V30.0217C160.645 29.7542 160.902 29.5392 161.196 29.3942C161.49 29.2492 161.812 29.1783 162.136 29.1867C162.386 29.1825 162.635 29.2267 162.87 29.3158C163.078 29.4133 163.261 29.5625 163.403 29.75C163.529 29.8917 163.618 30.0633 163.661 30.2508C163.727 30.5825 163.754 30.9217 163.741 31.2608V33.4642C163.741 33.7475 163.777 34.0308 163.801 34.2983C163.65 34.2983 163.502 34.2692 163.367 34.265C163.232 34.2608 163.108 34.265 162.969 34.265H162.571C162.423 34.265 162.3 34.265 162.149 34.2983C162.173 34.0067 162.191 33.6561 162.205 33.2467C162.216 32.8383 162.232 32.3875 162.232 31.8908C162.274 31.3999 162.209 30.9059 162.041 30.4425C161.967 30.329 161.864 30.2378 161.742 30.1783C161.623 30.1204 161.489 30.0979 161.356 30.1133C161.213 30.102 161.07 30.1321 160.943 30.2C160.815 30.27 160.708 30.3741 160.636 30.5008C160.468 30.9178 160.396 31.3672 160.425 31.8158V32.8717L160.468 34.2983C160.329 34.2983 160.197 34.2692 160.07 34.265C159.942 34.2608 159.807 34.265 159.672 34.265H159.294C159.162 34.265 159.091 34.265 158.947 34.2817L158.956 34.2733ZM167.898 33.6225C167.746 33.8656 167.531 34.064 167.277 34.1975C167.01 34.3342 166.713 34.4031 166.413 34.3983C166.216 34.4092 166.018 34.381 165.832 34.3152C165.645 34.2494 165.473 34.1474 165.326 34.015C165.193 33.8769 165.088 33.713 165.02 33.5333C164.95 33.3516 164.919 33.1576 164.928 32.9633C164.917 32.6682 165.017 32.3795 165.206 32.1533C165.447 31.9102 165.748 31.7358 166.079 31.6483L166.636 31.4817C167.043 31.3858 167.436 31.2358 167.806 31.035V30.86C167.814 30.7227 167.793 30.5854 167.744 30.4568C167.695 30.3283 167.62 30.2113 167.524 30.1133C167.316 29.9217 167.045 29.8217 166.767 29.8333C166.528 29.832 166.294 29.9016 166.095 30.0333C165.87 30.19 165.68 30.395 165.537 30.635L165.406 30.2425L165.298 29.9717C165.59 29.7242 165.914 29.525 166.262 29.3783C166.575 29.2489 166.911 29.1824 167.25 29.1825C167.786 29.1436 168.318 29.2908 168.758 29.5992C168.934 29.745 169.074 29.9325 169.166 30.1458C169.259 30.3592 169.301 30.5925 169.288 30.8267L169.256 32.6792V32.8792C169.226 33.1592 169.276 33.4417 169.404 33.6892C169.482 33.7583 169.574 33.81 169.673 33.8409C169.772 33.8718 169.877 33.8811 169.981 33.8683L170.013 34.1267C169.826 34.1998 169.633 34.2545 169.436 34.29C169.247 34.3303 169.055 34.3512 168.862 34.3525C168.631 34.3626 168.403 34.2968 168.213 34.165C168.046 34.0301 167.932 33.8411 167.891 33.6308L167.898 33.6225ZM167.846 31.5358C167.452 31.5858 167.076 31.7375 166.751 31.9783C166.636 32.0829 166.545 32.2124 166.487 32.357C166.428 32.5016 166.403 32.6576 166.413 32.8133C166.394 33.0583 166.456 33.3025 166.588 33.505C166.652 33.5817 166.729 33.6394 166.819 33.6783C166.908 33.7172 167.001 33.7333 167.098 33.7267C167.203 33.7324 167.308 33.7133 167.404 33.6708C167.502 33.6285 167.588 33.5634 167.656 33.4808C167.798 33.2742 167.867 33.0217 167.851 32.7667L167.846 31.5358ZM170.817 34.2567C170.847 33.6492 170.869 33.0413 170.885 32.4333C170.9 31.7559 170.906 31.0784 170.905 30.4008C170.905 29.6792 170.905 28.9325 170.885 28.315C170.865 27.6975 170.845 27.0633 170.817 26.5167C170.992 26.5458 171.144 26.5625 171.267 26.575H172.007L172.45 26.5167C172.39 27.8022 172.362 29.0889 172.366 30.3758C172.366 31.1017 172.366 31.845 172.386 32.4625C172.406 33.0792 172.421 33.6892 172.45 34.2525C172.318 34.2294 172.185 34.2128 172.051 34.2025H171.203C171.068 34.2025 170.945 34.2608 170.809 34.2817L170.817 34.2567ZM179.526 29.8C179.357 29.7881 179.189 29.8277 179.044 29.9133C178.896 30.0006 178.777 30.1296 178.701 30.2842C178.502 30.8053 178.418 31.3633 178.454 31.92C178.421 32.4355 178.5 32.952 178.685 33.4342C178.76 33.5713 178.872 33.6845 179.009 33.7608C179.143 33.8358 179.297 33.8678 179.45 33.8525C179.62 33.8642 179.79 33.8242 179.938 33.7367C180.086 33.6492 180.207 33.5183 180.286 33.3592C180.487 32.8201 180.573 32.2444 180.536 31.67C180.57 31.1702 180.49 30.6692 180.301 30.205C180.219 30.0732 180.101 29.9673 179.961 29.8992C179.823 29.8321 179.669 29.8064 179.517 29.825L179.526 29.8ZM176.941 34.2817C176.981 33.8317 177.009 33.3008 177.025 32.6958C177.041 32.0908 177.052 31.3233 177.052 30.405C177.052 29.4875 177.052 28.7358 177.025 28.1142C176.996 27.4925 176.981 26.975 176.941 26.525C177.124 26.5542 177.276 26.5708 177.399 26.5833H178.128L178.574 26.525L178.53 27.4008V29.8292C178.715 29.6208 178.94 29.455 179.191 29.3458C179.462 29.2356 179.754 29.1828 180.047 29.1908C180.331 29.1783 180.616 29.23 180.879 29.3442C181.142 29.4583 181.379 29.6308 181.572 29.85C181.964 30.3542 182.159 30.9958 182.117 31.6442C182.157 32.3796 181.917 33.1027 181.445 33.6683C181.217 33.9181 180.938 34.1154 180.626 34.2467C180.319 34.3756 179.986 34.4345 179.653 34.4192C179.359 34.4234 179.067 34.3652 178.796 34.2483C178.525 34.1158 178.282 33.9299 178.084 33.7017C177.743 33.8532 177.423 34.0482 177.132 34.2817H176.941ZM185.944 33.6308C185.786 33.8769 185.565 34.0756 185.303 34.2058C185.036 34.3425 184.739 34.4115 184.439 34.4067C184.241 34.4177 184.044 34.3895 183.857 34.3237C183.67 34.2579 183.499 34.1558 183.351 34.0233C183.218 33.8852 183.114 33.7213 183.046 33.5417C182.976 33.36 182.945 33.1659 182.954 32.9717C182.943 32.6765 183.042 32.3878 183.232 32.1617C183.474 31.9183 183.776 31.7442 184.108 31.6575L184.666 31.4908C185.072 31.3942 185.466 31.2442 185.836 31.0433V30.8683C185.842 30.7313 185.82 30.5944 185.772 30.4661C185.723 30.3378 185.649 30.2206 185.554 30.1217C185.346 29.93 185.075 29.83 184.797 29.8417C184.558 29.8402 184.324 29.9098 184.124 30.0417C183.897 30.1997 183.707 30.405 183.567 30.6433L183.436 30.2508L183.328 29.98C183.617 29.7349 183.942 29.5352 184.291 29.3875C184.605 29.2578 184.94 29.191 185.279 29.1908C185.815 29.1518 186.348 29.2989 186.788 29.6075C186.964 29.7533 187.104 29.9408 187.196 30.1542C187.288 30.3675 187.33 30.6008 187.318 30.835L187.286 32.6875V32.8875C187.255 33.1675 187.306 33.45 187.433 33.6975C187.512 33.767 187.604 33.8192 187.704 33.8508C187.803 33.8818 187.908 33.8906 188.011 33.8767L188.042 34.135C187.856 34.2081 187.662 34.2628 187.465 34.2983C187.276 34.3386 187.084 34.3596 186.891 34.3608C186.66 34.3709 186.432 34.3051 186.242 34.1733C186.08 34.0337 185.972 33.8418 185.936 33.6308H185.944ZM185.892 31.5442C185.498 31.5942 185.121 31.7458 184.797 31.9867C184.682 32.0899 184.592 32.2186 184.535 32.3625C184.476 32.5075 184.45 32.6642 184.459 32.8208C184.444 33.0575 184.504 33.2925 184.63 33.4892C184.694 33.5653 184.77 33.6228 184.86 33.6617C184.948 33.7006 185.044 33.7172 185.14 33.71C185.245 33.7157 185.35 33.6966 185.446 33.6542C185.544 33.6119 185.63 33.5467 185.697 33.4642C185.84 33.2575 185.909 33.005 185.892 32.75V31.5442ZM188.855 34.265C188.881 33.8078 188.903 33.3753 188.918 32.9675C188.934 32.5583 188.938 32.17 188.938 31.795C188.938 31.42 188.938 30.96 188.918 30.5425C188.898 30.125 188.882 29.7092 188.855 29.2908C188.966 29.2908 189.086 29.3158 189.205 29.32C189.325 29.325 189.464 29.32 189.603 29.32H190.001C190.125 29.32 190.236 29.32 190.344 29.2908V30.0133C190.545 29.7458 190.802 29.5308 191.096 29.3858C191.388 29.241 191.711 29.1698 192.036 29.1783C192.286 29.1742 192.534 29.2183 192.769 29.3075C192.981 29.3842 193.174 29.5133 193.331 29.6833C193.456 29.8242 193.546 29.9967 193.589 30.1833C193.654 30.5172 193.681 30.8542 193.669 31.1942V33.3975C193.669 33.6808 193.705 33.9642 193.728 34.2308C193.577 34.2308 193.43 34.2025 193.295 34.1975C193.159 34.1942 193.036 34.1975 192.896 34.1975H192.498C192.351 34.1975 192.227 34.1975 192.076 34.2308C192.101 33.9392 192.119 33.5892 192.131 33.1808C192.144 32.7708 192.16 32.3208 192.16 31.8242C192.201 31.3332 192.136 30.8391 191.968 30.3758C191.894 30.2625 191.791 30.1712 191.67 30.1117C191.55 30.0538 191.416 30.0312 191.284 30.0467C191.141 30.0354 190.999 30.0652 190.872 30.1325C190.744 30.2024 190.639 30.3069 190.567 30.4342C190.395 30.85 190.322 31.3001 190.352 31.7492V32.8042L190.396 34.2317C190.256 34.2317 190.125 34.2025 189.997 34.1983C189.87 34.1942 189.735 34.1983 189.599 34.1983H189.221C189.09 34.1983 188.99 34.265 188.846 34.2817L188.855 34.265Z" fill="white"/>
<path fill-rule="evenodd" clip-rule="evenodd" d="M23.5492 33.38C25.6325 33.3858 27.69 32.9242 29.5725 32.0292C29.9208 31.86 30.2758 31.675 30.61 31.4842L30.8333 31.3533L30.2983 34.4725H29.0967L29.2883 33.3583C26.0768 34.659 22.5185 34.8291 19.1975 33.8408C17.7861 34.2614 16.321 34.4742 14.8483 34.4725C6.66 34.4725 0 27.9867 0 20.0167C0 12.0467 6.66 5.56334 14.8483 5.56334C16.321 5.56162 17.7861 5.77441 19.1975 6.19501C20.6089 5.77441 22.074 5.56162 23.5467 5.56334C27.1817 5.55236 30.6975 6.85883 33.4433 9.24084L34.0825 5.52667H35.2833L34.2333 11.6192L34.0675 11.4292C33.8134 11.1337 33.5465 10.8496 33.2675 10.5775C30.6679 8.04653 27.1781 6.63815 23.55 6.65584C15.9792 6.65584 9.81833 12.6492 9.81833 20.0175C9.81833 27.3858 15.9783 33.38 23.5492 33.38ZM7.64667 16.1458C6.97993 17.328 6.6249 18.6603 6.615 20.0175C6.62233 21.3775 6.97625 22.7132 7.64333 23.8983C8.30883 25.0817 9.26543 26.0756 10.4225 26.7858C9.2933 24.7113 8.7017 22.387 8.7017 20.025C8.7017 17.6631 9.2933 15.3387 10.4225 13.2642C9.26738 13.9732 8.31203 14.965 7.64667 16.1458ZM5.5475 20.0167C5.5475 16.2925 7.94333 12.9 11.5092 11.5608H11.5067C12.0728 10.798 12.7126 10.0927 13.4167 9.45501C7.96667 10.145 3.90167 14.6217 3.90167 20.0167C3.90167 25.4125 7.9675 29.8892 13.4167 30.5792C12.7131 29.9414 12.074 29.2361 11.5083 28.4733C7.95 27.135 5.5475 23.7417 5.5475 20.0167ZM14.8517 31.7533C8.20333 31.7533 2.795 26.4883 2.795 20.0167C2.795 13.5458 8.20333 8.28084 14.8517 8.28084H14.8833C15.6612 7.73555 16.4891 7.26538 17.3558 6.87667C16.5293 6.72872 15.6913 6.65454 14.8517 6.65501C7.27833 6.65501 1.11833 12.6483 1.11833 20.0167C1.11833 27.385 7.27833 33.3792 14.8517 33.3792C15.6908 33.3792 16.5292 33.3042 17.3558 33.1567C16.4891 32.7682 15.6612 32.2983 14.8833 31.7533H14.8517Z" fill="white"/>
<path d="M35.0838 23.4475H33.9213L33.893 23.5275C33.8346 23.6842 33.7746 23.8408 33.708 24.0092C32.0263 28.0617 28.0396 30.6783 23.5496 30.6783C17.5113 30.6783 12.5996 25.9008 12.5996 20.025C12.5996 14.15 17.5113 9.37166 23.5496 9.37166C29.3855 9.37166 34.1863 13.8117 34.4863 19.4825L34.373 20.1192L34.6138 20.15L35.5963 20.1333V19.9383L38.0546 5.66666L38.078 5.52499H36.8771L35.0055 16.3783C33.4055 11.5833 28.758 8.27416 23.5371 8.27416C16.8888 8.27416 11.4805 13.5392 11.4805 20.0108C11.4805 26.4817 16.8888 31.7467 23.5371 31.7467C25.3898 31.7528 27.2193 31.3358 28.8863 30.5275C30.5549 29.718 32.0172 28.539 33.1621 27.08L31.8913 34.4575H33.093L34.9888 23.7008L35.0838 23.4475ZM42.903 34.3225L42.8788 34.465H44.078L49.0363 5.66916L49.0613 5.52749H47.8613L42.903 34.3225Z" fill="white"/>
<path fill-rule="evenodd" clip-rule="evenodd" d="M23.5494 10.9542C18.4194 10.9542 14.2461 15.0175 14.2461 20.0125C14.2461 25.0083 18.4194 29.0717 23.5494 29.0717C28.6794 29.0717 32.8544 25.0083 32.8544 20.0133C32.8544 15.0175 28.6811 10.9542 23.5494 10.9542ZM31.7878 20.0125C31.7805 21.2553 31.4838 22.4793 30.9211 23.5875C30.3591 24.6943 29.5457 25.6541 28.5461 26.39L30.4011 15.5775C31.3046 16.8818 31.7884 18.4308 31.7878 20.0175V20.0125ZM24.1544 20.0125C24.1485 18.5637 23.7928 17.1377 23.1178 15.8558C22.4436 14.5751 21.4695 13.4766 20.2786 12.6542C20.8951 12.3952 21.5406 12.2114 22.2011 12.1067C23.3073 13.0737 24.1992 14.2613 24.8194 15.5933C25.4401 16.9272 25.7758 18.3758 25.8053 19.8467L25.7519 20.1483H26.9536L28.1261 13.3442C28.5917 13.6469 29.0225 13.9933 29.4186 14.3833L27.2128 27.1958C26.7096 27.4386 26.1834 27.6301 25.6419 27.7675L26.3869 23.4425H25.1853L25.1536 23.6383C24.534 25.287 23.5173 26.7574 22.1936 27.9192C21.5334 27.8144 20.8882 27.6306 20.2719 27.3717C21.4633 26.5505 22.4383 25.4531 23.1136 24.1733C23.7903 22.8921 24.1476 21.4664 24.1553 20.0175L24.1544 20.0125ZM23.6594 11.9983C24.8203 12.01 25.9653 12.2633 27.0236 12.7433L26.3694 16.5425C25.824 14.8426 24.897 13.29 23.6594 12.0033V11.9983ZM19.2003 13.2042C20.3848 13.9007 21.3665 14.895 22.0478 16.0883C22.7301 17.2838 23.089 18.6364 23.089 20.0129C23.089 21.3894 22.7301 22.7421 22.0478 23.9375C21.3665 25.1309 20.3848 26.1252 19.2003 26.8217C18.0154 26.1253 17.0334 25.131 16.3519 23.9375C15.6696 22.7421 15.3107 21.3894 15.3107 20.0129C15.3107 18.6364 15.6696 17.2838 16.3519 16.0883C17.0334 14.8949 18.0154 13.9005 19.2003 13.2042ZM24.5794 26.9517L24.3994 27.9892C24.1535 28.0146 23.9066 28.029 23.6594 28.0325C23.9872 27.6908 24.2939 27.3305 24.5794 26.9517Z" fill="white"/>
<path d="M45.1173 5.52667H46.3165L46.2923 5.66917L41.334 34.465H40.134L40.159 34.3233L45.1173 5.52667ZM40.829 5.52667H39.6323L34.6707 34.3225L34.6465 34.465H35.8457L40.804 5.66917L40.829 5.52667ZM42.374 5.52667H43.5723L43.5482 5.66917L38.5898 34.465H37.3898L37.4148 34.3233L42.374 5.52667ZM46.0573 0.100006H47.2557L46.5515 4.18334H45.3532L46.0573 0.100006ZM43.3132 0.100006H44.5123L43.8082 4.18334H42.6082L43.3132 0.100006ZM48.0965 4.18334L48.8007 0.100006H49.9998L49.2957 4.18334H48.0965Z" fill="white"/>
</g>
<defs>
<clipPath id="clip0_361_5939">
<rect width="200" height="40" fill="white"/>
</clipPath>
</defs>
</svg>
