<svg width="253" height="40" viewBox="0 0 253 40" fill="none" xmlns="http://www.w3.org/2000/svg">
<path d="M35.2458 11.125L35.2327 11.115C34.9933 10.9712 34.6312 10.8887 34.3877 10.9963C32.8295 10.8495 31.3437 10.8656 29.7704 10.8817H29.7241L29.6607 10.8827C28.873 10.8937 28.0582 10.9018 27.2434 10.8887L20.6473 10.7529C19.1021 10.7117 17.4071 10.7248 15.7462 10.7871C14.5139 10.7972 13.3208 10.8284 12.1026 10.8656C10.8351 10.8978 7.80717 10.9078 5.99844 10.9118C5.03574 10.9159 4.52974 10.9159 4.46636 10.9199C4.25109 10.934 3.99356 11.2296 3.98752 11.471C3.9825 11.6037 4.06297 11.7575 4.29334 11.7797C4.46435 11.7998 5.55683 11.8038 7.5436 11.7978L9.57364 11.7877C10.1138 11.7837 10.3663 11.7958 10.484 11.7817H10.4961C11.9879 11.6329 13.4878 11.6409 14.9374 11.651H15.0491C15.9877 11.655 16.9584 11.661 17.9352 11.6228C18.1374 11.6691 18.3517 11.6268 18.5569 11.5836L18.5881 11.5786C18.6796 11.5594 18.7752 11.5423 18.8677 11.5363C19.09 11.5967 19.3446 11.5936 19.6121 11.5886C19.8697 11.5836 20.1342 11.5786 20.3737 11.6369L20.3757 11.6429L20.4169 11.6409V11.6349C20.6272 11.5625 20.8213 11.6007 21.0235 11.6409C21.0295 11.6429 21.0607 11.6469 21.0607 11.6469C21.1573 11.667 21.2478 11.6821 21.3364 11.6851C23.2225 11.6349 25.3079 11.7012 27.9073 11.9024C27.9053 11.9024 29.1386 12.0331 29.1386 12.0331H29.1537C30.2472 11.9265 31.3779 12.009 32.4704 12.0874C32.4744 12.0894 32.4975 12.0894 32.4975 12.0894C33.3204 12.1517 34.096 12.2091 34.8676 12.19L34.8696 12.2L34.9169 12.1849L34.9148 12.1749L35.3243 11.8481L35.3253 11.8501L35.3444 11.83L35.3424 11.8259C35.4782 11.6077 35.4349 11.303 35.2458 11.125Z" fill="white"/>
<path d="M24.3327 25.5173L24.3659 25.4962V25.4147L24.3367 22.8082V22.8001L24.3347 22.7941C24.2895 22.4009 24.2814 21.9665 24.2704 21.5079C24.2603 20.9921 24.2482 20.4581 24.1798 19.9854C24.1677 19.3117 24.036 18.5856 23.9082 17.8837L23.8217 17.4101L23.8126 17.3648L23.7815 17.3327C23.6788 17.2261 23.6436 17.0953 23.6044 16.9435C23.5712 16.8148 23.536 16.684 23.4565 16.5593C23.2855 16.2386 23.0129 15.9318 22.7715 15.6573L22.7584 15.6432C22.699 15.5618 22.6286 15.5165 22.5673 15.4773C22.53 15.4532 22.4968 15.43 22.4596 15.3979L22.4033 15.3486L22.3711 15.3566L22.3278 15.3224C22.1085 15.1465 21.9063 15.0771 21.6719 14.9996L21.6679 14.9976C21.5995 14.9001 21.4687 14.885 21.3822 14.883V14.8176L21.2585 14.8005L20.6901 14.7131L20.6046 14.701L20.5513 14.7704C20.5302 14.7965 20.5262 14.8046 20.4075 14.7583C20.3511 14.7392 20.2918 14.7171 20.2244 14.711L20.158 14.705L20.1248 14.7372C20.1077 14.7251 20.0845 14.711 20.0604 14.697L19.821 14.6246L19.8049 14.7372C19.6972 14.7352 19.6067 14.7563 19.5323 14.7965H19.154L18.806 14.8005L18.8452 14.9383L18.8392 14.9443C18.6842 14.9011 18.5686 14.9976 18.5032 15.0529C18.4901 15.063 18.478 15.0731 18.47 15.0791C18.3462 15.0992 18.2758 15.1525 18.2275 15.1917C18.1903 15.2199 18.1772 15.2299 18.144 15.2329L18.0837 15.236L18.0455 15.2852C17.9931 15.3466 17.8292 15.423 17.7386 15.4632L17.5475 15.5497L17.5887 15.592C17.5576 15.605 17.5274 15.6251 17.4982 15.6513H17.3131V15.8001C17.3041 15.7991 17.298 15.7991 17.292 15.7961L17.1864 15.7518C17.1783 15.7498 17.1119 15.8444 17.1119 15.8444C16.9993 16.0032 16.8504 16.1621 16.6955 16.3281C16.5144 16.5262 16.3253 16.7293 16.1814 16.9495L16.1371 17.0129L16.1653 17.0813C16.1301 17.1014 16.0436 17.1577 16.0275 17.2643C15.9571 17.3427 15.941 17.4473 15.9279 17.5167C15.9259 17.5368 15.9219 17.568 15.9158 17.582C15.8394 17.6736 15.8233 17.7681 15.8112 17.8395C15.8001 17.8948 15.7961 17.925 15.774 17.9531L15.6814 18.0698L15.7227 18.1029C15.6955 18.1743 15.6955 18.2457 15.6955 18.291C15.6955 18.3121 15.6935 18.3342 15.6915 18.3523L15.6311 18.3885L15.6462 18.4811C15.6704 18.6651 15.6482 18.837 15.6231 19.014C15.6 19.189 15.5778 19.365 15.5959 19.5631C15.5255 19.6707 15.5416 19.7974 15.5557 19.8799C15.5587 19.906 15.5658 19.9452 15.5627 19.9613L15.4702 20.0357L15.5356 20.1463C15.5859 20.2288 15.5456 20.3646 15.5104 20.4933C15.4732 20.616 15.432 20.7648 15.4742 20.8975C15.4642 20.9066 15.4521 20.9186 15.443 20.9327C15.4269 20.9528 15.4118 20.9941 15.4159 21.0383C15.4159 21.1419 15.4058 21.1721 15.4018 21.1801L15.3344 21.3219L15.3253 21.3772L15.4471 21.4637C15.433 21.5472 15.443 21.6266 15.4541 21.696C15.4692 21.7885 15.4702 21.8297 15.443 21.8679L15.3676 22.0077L15.443 22.0992V22.1244C15.439 22.1877 15.433 22.3034 15.5114 22.3868C15.5145 22.4019 15.5165 22.417 15.5205 22.4311L15.3817 22.4683L15.4702 22.6664C15.4702 22.6785 15.4662 22.6976 15.4631 22.7137C15.4471 22.77 15.4229 22.8866 15.4802 22.9882C15.437 23.1018 15.4642 23.2114 15.4833 23.2879C15.4873 23.308 15.4943 23.3391 15.4963 23.3572C15.3646 23.499 15.4289 23.6851 15.4662 23.7846C15.4048 23.8792 15.4179 23.9908 15.432 24.0612L15.2539 24.1245L15.435 24.3116C15.4279 24.3508 15.4279 24.4011 15.4561 24.4554C15.4762 24.4865 15.5034 24.5077 15.5316 24.5187L15.4762 24.5388C15.4792 24.5449 15.4802 24.5509 15.4833 24.5579L15.5456 24.7249L15.5446 24.744C15.5305 24.8415 15.5517 24.9381 15.599 25.0135C15.5829 25.0346 15.5728 25.0628 15.5688 25.0959L15.4994 25.1673L15.5688 25.2679C15.6231 25.3453 15.603 25.4489 15.5627 25.6098C15.5275 25.7486 15.4833 25.9316 15.5658 26.0855L15.4642 26.183L15.5899 26.2795C15.5879 26.2856 15.5829 26.2916 15.5819 26.2976C15.5487 26.357 15.4913 26.4716 15.5627 26.5913L15.5577 26.5772C15.5829 26.6375 15.5718 26.7341 15.5587 26.8326C15.5416 26.9794 15.5205 27.1584 15.599 27.3344L15.5728 27.5114L15.5788 27.4873C15.5587 27.5577 15.5728 27.616 15.5959 27.6572L15.5406 27.6834L15.5788 27.8081C15.6191 27.9358 15.6201 28.0906 15.6201 28.2576C15.6231 28.5733 15.6231 28.9283 15.9017 29.2018L15.9631 29.2581L16.0416 29.233C16.2528 29.1727 16.2609 28.9595 16.2669 28.8489C16.2689 28.8227 16.2689 28.8006 16.2729 28.7815L16.274 28.7513L16.2669 28.7232C16.1814 28.4345 16.2186 28.0554 16.2498 27.7226C16.2589 27.6331 16.2669 27.5506 16.2729 27.4692L16.274 27.431L16.2589 27.3917C16.2015 27.2761 16.2156 27.1625 16.2317 27.0297C16.2458 26.91 16.2589 26.7743 16.2166 26.6375C16.2639 26.0251 16.2387 25.3041 16.2116 24.6665C16.2025 24.398 16.1895 24.1426 16.1854 23.9063V23.8922C16.1502 23.5926 16.1603 23.2698 16.1693 22.955C16.1754 22.6734 16.1844 22.3868 16.1603 22.1203C16.2257 21.8156 16.2216 21.5381 16.2156 21.2425C16.2126 21.1087 16.2116 20.974 16.2156 20.8281L16.2166 20.7919L16.2066 20.7708C16.2729 20.6954 16.287 20.6139 16.2538 20.5345C16.283 20.4199 16.29 20.3133 16.2911 20.2187C16.2941 20.1413 16.2971 20.0679 16.3122 20.0025L16.3202 19.9673L16.3102 19.9332C16.2941 19.8678 16.3102 19.7944 16.3273 19.7139C16.3494 19.6184 16.3745 19.5078 16.3343 19.3962C16.444 19.1659 16.4711 18.8863 16.4912 18.6148L16.5003 18.5203C16.5104 18.4609 16.4892 18.4036 16.4419 18.3564V18.3463C16.4419 18.2256 16.5043 18.1291 16.5828 18.0074C16.6653 17.8727 16.7598 17.7178 16.786 17.5127L16.788 17.4775L16.786 17.4714C16.7971 17.4584 16.8091 17.4483 16.8192 17.4382C16.8705 17.397 16.949 17.3276 16.949 17.22C16.9469 17.1989 16.9449 17.1808 16.9389 17.1617C17.0375 17.0702 17.1009 16.9676 17.1562 16.8771C17.2367 16.7353 17.294 16.6368 17.455 16.5905L17.5314 16.5674L17.5515 16.4879C17.5747 16.3974 17.6521 16.3492 17.7748 16.2687C17.8674 16.2114 17.969 16.145 18.0455 16.0455C18.1481 16.0545 18.2094 16.0274 18.2466 15.9861C18.3704 15.956 18.467 15.8806 18.5454 15.8172C18.6752 15.7086 18.7215 15.6865 18.81 15.7297L18.8985 15.7679L18.9569 15.7106C18.9609 15.7106 18.9649 15.7086 18.9689 15.7086C19.0102 15.6965 19.0826 15.6784 19.1238 15.609C19.1641 15.6 19.1983 15.5899 19.2285 15.5799C19.3009 15.5537 19.319 15.5507 19.3452 15.5638C19.3693 15.5799 19.4196 15.599 19.4769 15.5839L19.482 15.595L19.5876 15.5799L19.7264 15.5638C20.1389 15.5085 20.494 15.4632 20.8159 15.6372L20.9295 15.6985L20.999 15.595C21.012 15.6101 21.0281 15.6271 21.0402 15.6452C21.1227 15.7378 21.2676 15.8987 21.4768 15.8625C21.5241 15.9057 21.5754 15.9359 21.6196 15.962C21.6377 15.9731 21.6639 15.9892 21.68 15.9992V16.0073L21.7092 16.0445C21.7736 16.132 21.9114 16.1752 22.022 16.1792C22.2635 16.4367 22.5089 16.7906 22.5089 16.9435V17.0873H22.6165V17.0953C22.6578 17.2854 22.7111 17.5227 22.858 17.6796C22.8167 17.7761 22.8519 17.8928 22.868 17.9421C22.8721 17.9581 22.8791 17.9793 22.8821 17.9964L22.8449 18.105L22.9405 18.2015L22.9606 18.2136C22.9546 18.3121 22.9998 18.4036 23.032 18.469C23.0401 18.4871 23.0501 18.5062 23.0562 18.5263L23.033 18.5776C22.9063 18.827 23.0783 18.9658 23.1588 19.0311C23.1728 19.0432 23.1819 19.0502 23.1899 19.0553C23.1256 19.1045 23.1306 19.1578 23.1155 19.2453L23.1256 19.3559L23.1718 19.4283C23.1718 19.4283 23.1728 19.4303 23.1759 19.4303C23.1759 19.4344 23.1779 19.4404 23.1799 19.4444C23.1859 19.4645 23.196 19.4947 23.2141 19.5279L23.1658 19.5772L23.1306 19.7059L23.203 19.8085L23.2573 19.8386C23.2563 19.8959 23.2785 19.9492 23.2956 19.9844C23.2976 19.9905 23.3016 20.0005 23.3026 20.0066L23.2916 20.0699C23.2443 20.3072 23.1829 20.616 23.3308 20.8633C23.3258 20.8694 23.3187 20.8734 23.3177 20.8774C23.2503 20.9689 23.2664 21.0735 23.2785 21.1499C23.2815 21.1731 23.2885 21.2143 23.2875 21.2274L23.2503 21.3772C23.2483 21.3832 23.2976 21.3973 23.3388 21.4054C23.3348 21.4194 23.3288 21.4335 23.3237 21.4496L23.2936 21.6216H23.3509C23.3408 21.6819 23.3388 21.7362 23.3368 21.7855C23.3368 21.874 23.3328 21.9303 23.3026 21.9735L23.2885 21.9936L23.2855 22.0188C23.2413 22.1736 23.2986 22.3205 23.3449 22.4421C23.3529 22.4643 23.361 22.4844 23.37 22.5055C23.3449 22.5347 23.3187 22.5729 23.3237 22.6312C23.3237 22.6443 23.3308 22.6553 23.3328 22.6644L23.3016 22.6976L23.3308 22.779C23.3449 22.8303 23.374 22.8585 23.4082 22.8786L23.3861 22.8856C23.3801 22.8856 23.3801 22.9972 23.3801 22.9972V23.0365L23.2885 23.0656L23.3348 23.1601C23.3117 23.2024 23.2885 23.2657 23.3117 23.3361L23.2503 23.4467C23.2543 23.4457 23.2614 23.5131 23.3157 23.5403C23.2604 23.7374 23.4002 23.8822 23.4847 23.9697C23.5229 24.0038 23.543 24.032 23.5601 24.0531H23.4887L23.543 24.2402V24.2452C23.532 24.2552 23.5179 24.2723 23.5078 24.2864L23.3881 24.3427L23.4274 24.5036L23.4153 24.5449C23.3881 24.6293 23.4103 24.6846 23.4334 24.7218C23.4394 24.7269 23.4435 24.7309 23.4515 24.7379C23.4062 24.7792 23.361 24.8415 23.3509 24.9381L23.3368 25.0748L23.4475 25.0929C23.4374 25.1231 23.4284 25.1512 23.4233 25.1784C23.4082 25.2267 23.3962 25.2709 23.374 25.3061V25.3091C23.372 25.3121 23.367 25.3202 23.365 25.3262L23.5571 25.4348C23.528 25.4841 23.5139 25.5374 23.5018 25.5736C23.4948 25.5957 23.4887 25.6209 23.4807 25.6339H23.4666L23.3076 25.6349L23.3157 25.823C23.3237 25.8522 23.3288 25.8853 23.3328 25.9246C23.3368 25.9587 23.3408 25.997 23.3509 26.0392V26.2293C23.3509 26.2524 23.3509 26.2916 23.3589 26.3328L23.3368 26.3439L23.3509 26.4495C23.3589 26.5018 23.3549 26.5551 23.3509 26.6043C23.3489 26.6345 23.3469 26.6707 23.3469 26.7019L23.2171 26.7703L23.3761 26.9483L23.374 26.9563C23.3549 26.9985 23.3328 27.0559 23.3328 27.1232H23.2191L23.4123 27.3636C23.4284 27.3807 23.4435 27.436 23.4535 27.4742C23.4565 27.4762 23.4565 27.4832 23.4585 27.4873C23.3781 27.5647 23.365 27.6834 23.361 27.7437C23.3569 27.7719 23.3529 27.8111 23.3469 27.8221C23.3469 27.8221 23.3489 27.8211 23.3489 27.8191L23.3982 27.8865C23.361 27.9157 23.3368 27.9468 23.3237 27.974C23.3036 28.0192 23.3036 28.0685 23.3076 28.1107H23.1215L23.2744 28.2676L23.1316 28.3159L23.2513 28.4154V28.8026C23.2513 28.873 23.2855 28.9333 23.3408 28.9615C23.3449 28.9635 23.3489 28.9635 23.3489 28.9635C23.4274 29.0168 23.5098 29.0158 23.5772 28.9977V29.1606L23.7644 29.1033C23.8981 29.062 24.0008 29.056 24.1064 29.0781L24.2583 29.1083L24.2784 28.9534C24.3508 28.3742 24.3367 27.8131 24.3227 27.2701C24.3076 26.7401 24.2955 26.2383 24.3619 25.7476C24.4041 25.651 24.3599 25.5615 24.3327 25.5173Z" fill="white"/>
<path d="M13.3864 25.5173L13.4196 25.4962V25.4147L13.3905 22.8082V22.7941C13.3432 22.4009 13.3351 21.9665 13.3251 21.5079C13.314 20.9921 13.3019 20.4581 13.2325 19.9854C13.2204 19.3117 13.0887 18.5856 12.9609 17.8837L12.8744 17.4101L12.8684 17.3648L12.8352 17.3327C12.7326 17.2261 12.6973 17.0953 12.6581 16.9435C12.6259 16.8148 12.5907 16.684 12.5123 16.5593C12.3402 16.2386 12.0686 15.9318 11.8262 15.6573L11.8151 15.6432C11.7527 15.5618 11.6833 15.5165 11.62 15.4773C11.5827 15.4532 11.5495 15.43 11.5133 15.3979L11.459 15.3486L11.4268 15.3566L11.3815 15.3224C11.1653 15.1465 10.9611 15.0771 10.7267 14.9996L10.7206 14.9976C10.6532 14.9001 10.5255 14.885 10.4369 14.883V14.8176L10.3142 14.8005L9.74284 14.7131L9.65833 14.701L9.60401 14.7704C9.58691 14.7965 9.58088 14.8046 9.46117 14.7583C9.40483 14.7392 9.34447 14.7171 9.27909 14.711L9.21068 14.705L9.1795 14.7372C9.16139 14.7251 9.14026 14.711 9.11411 14.697L8.8767 14.6246L8.85859 14.7372C8.75297 14.7352 8.66243 14.7563 8.58598 14.7965H8.20874L7.86068 14.8005L7.8989 14.9383L7.89287 14.9443C7.73996 14.9011 7.62226 14.9976 7.55889 15.0529C7.54581 15.063 7.53374 15.0731 7.52569 15.0791C7.40196 15.0992 7.32953 15.1525 7.28024 15.1917C7.24302 15.2199 7.23095 15.2299 7.19674 15.2329L7.13739 15.236L7.10017 15.2852C7.04685 15.3466 6.88188 15.423 6.79536 15.4632L6.60121 15.5497L6.64346 15.592C6.61429 15.605 6.58009 15.6251 6.55192 15.6513H6.36582V15.8001C6.35777 15.7991 6.34972 15.7991 6.3457 15.7961L6.24208 15.7518C6.23202 15.7498 6.16563 15.8444 6.16563 15.8444C6.05296 16.0032 5.90609 16.1621 5.75017 16.3281C5.56708 16.5262 5.37997 16.7293 5.23612 16.9495L5.18985 17.0129L5.21902 17.0813C5.18381 17.1014 5.0973 17.1577 5.08321 17.2643C5.01079 17.3427 4.99469 17.4473 4.98463 17.5167C4.98161 17.5368 4.97658 17.568 4.97155 17.582C4.8951 17.6736 4.87699 17.7681 4.86391 17.8395C4.85587 17.8948 4.85084 17.925 4.82669 17.9531L4.73616 18.0698L4.7774 18.1029C4.75024 18.1743 4.74823 18.2457 4.74823 18.291C4.74823 18.3121 4.74823 18.3342 4.74622 18.3523L4.68485 18.3885L4.69894 18.4811C4.72409 18.6651 4.70095 18.837 4.67681 19.014C4.65367 19.189 4.63154 19.365 4.65166 19.5631C4.57923 19.6707 4.59633 19.7974 4.6084 19.8799C4.61242 19.906 4.61846 19.9452 4.61645 19.9613L4.5239 20.0357L4.59029 20.1463C4.63958 20.2288 4.60035 20.3646 4.56112 20.4933C4.52792 20.616 4.48467 20.7648 4.52994 20.8975C4.51786 20.9066 4.5078 20.9186 4.49674 20.9327C4.48064 20.9528 4.46857 20.9941 4.47058 21.0383C4.47058 21.1419 4.46052 21.1721 4.45751 21.1801L4.3891 21.3219L4.37803 21.3772L4.50076 21.4637C4.48869 21.5472 4.49674 21.6266 4.5078 21.696C4.5239 21.7885 4.52591 21.8297 4.49875 21.8679L4.42129 22.0077L4.49674 22.0992V22.1244C4.49271 22.1877 4.48869 22.3034 4.56514 22.3868C4.56716 22.4019 4.56917 22.417 4.5752 22.4311L4.43537 22.4683L4.52591 22.6664C4.5239 22.6785 4.51988 22.6976 4.51786 22.7137C4.50378 22.77 4.47662 22.8866 4.53396 22.9882C4.4907 23.1018 4.51786 23.2114 4.53597 23.2879C4.53999 23.308 4.54905 23.3391 4.55106 23.3572C4.41928 23.499 4.48467 23.6851 4.51988 23.7846C4.45751 23.8792 4.4726 23.9908 4.48467 24.0612L4.30762 24.1245L4.48869 24.3116C4.48064 24.3508 4.48064 24.4011 4.50982 24.4554C4.52994 24.4865 4.5571 24.5077 4.58526 24.5187L4.52994 24.5388C4.53195 24.5449 4.53597 24.5509 4.53798 24.5579H4.53597L4.60236 24.7249L4.59834 24.744C4.58325 24.8415 4.60639 24.9381 4.65367 25.0135C4.63757 25.0346 4.62651 25.0628 4.62248 25.0959L4.55307 25.1673L4.62248 25.2679C4.67681 25.3453 4.65568 25.4489 4.61645 25.6098C4.58124 25.7486 4.53798 25.9316 4.61846 26.0855L4.51988 26.183L4.64361 26.2795C4.6416 26.2856 4.63757 26.2916 4.63556 26.2976C4.60236 26.357 4.54502 26.4716 4.61846 26.5913L4.61041 26.5772C4.63757 26.6375 4.6245 26.7341 4.61242 26.8326C4.59633 26.9794 4.5752 27.1584 4.65166 27.3344L4.62651 27.5114L4.63355 27.4873C4.61242 27.5577 4.62852 27.616 4.65166 27.6572L4.59432 27.6834L4.63355 27.8081C4.67178 27.9358 4.67379 28.0906 4.67681 28.2576C4.67681 28.5733 4.67681 28.9283 4.95747 29.2018L5.01682 29.2581L5.0973 29.233C5.30553 29.1727 5.31559 28.9595 5.32263 28.8489C5.32263 28.8227 5.32465 28.8006 5.32666 28.7815L5.33068 28.7513L5.32263 28.7232C5.23813 28.4345 5.27234 28.0554 5.30553 27.7226C5.31157 27.6331 5.32062 27.5506 5.32666 27.4692L5.32867 27.431L5.31157 27.3917C5.25423 27.2761 5.26831 27.1625 5.28541 27.0297C5.2995 26.91 5.31358 26.7743 5.27032 26.6375C5.32062 26.0251 5.29145 25.3041 5.2663 24.6665C5.25624 24.398 5.24618 24.1426 5.24216 23.9063V23.9003L5.24014 23.8922C5.20494 23.5926 5.21298 23.2698 5.22304 22.955C5.23109 22.6734 5.24014 22.3868 5.21298 22.1203C5.27938 21.8156 5.27435 21.5381 5.27032 21.2425C5.26831 21.1087 5.2663 20.974 5.27032 20.8281V20.7919L5.26228 20.7708C5.32666 20.6954 5.34074 20.6139 5.30754 20.5345C5.33873 20.4199 5.34275 20.3133 5.34476 20.2187C5.34879 20.1413 5.3508 20.0679 5.3679 20.0025L5.37394 19.9673L5.36589 19.9332C5.34678 19.8678 5.36388 19.7944 5.38199 19.7139C5.4021 19.6184 5.42725 19.5078 5.38802 19.3962C5.49968 19.1659 5.52383 18.8863 5.54696 18.6148L5.55501 18.5203C5.56406 18.4609 5.54495 18.4036 5.49767 18.3564V18.3463C5.49767 18.2256 5.55904 18.1291 5.63549 18.0074C5.721 17.8727 5.81556 17.7178 5.8397 17.5127L5.84473 17.4775L5.84272 17.4714C5.85177 17.4584 5.86284 17.4483 5.87491 17.4382C5.92722 17.397 6.00468 17.3276 6.00266 17.22C6.00266 17.1989 5.99864 17.1808 5.99462 17.1617C6.09421 17.0702 6.15356 16.9676 6.20889 16.8771C6.28936 16.7353 6.3467 16.6368 6.50866 16.5905L6.58512 16.5674L6.60524 16.4879C6.63039 16.3974 6.70684 16.3492 6.82856 16.2687C6.92111 16.2114 7.02171 16.145 7.09816 16.0455C7.20177 16.0545 7.26314 16.0274 7.30036 15.9861C7.42711 15.956 7.52167 15.8806 7.60013 15.8172C7.73192 15.7086 7.77517 15.6865 7.8637 15.7297L7.95323 15.7679L8.01057 15.7106C8.01459 15.7106 8.02063 15.7086 8.02063 15.7086C8.06388 15.6965 8.1343 15.6784 8.17756 15.609C8.21679 15.6 8.25401 15.5899 8.28218 15.5799C8.35461 15.5537 8.37372 15.5507 8.39786 15.5638C8.42502 15.5799 8.4723 15.599 8.53166 15.5839L8.53568 15.595L8.64131 15.5799L8.78013 15.5638C9.19257 15.5085 9.54768 15.4632 9.86858 15.6372L9.98427 15.6985L10.0527 15.595C10.0668 15.6101 10.0829 15.6271 10.0959 15.6452C10.1794 15.7378 10.3233 15.8987 10.5315 15.8625C10.5768 15.9057 10.6281 15.9359 10.6734 15.962C10.6925 15.9731 10.7166 15.9892 10.7357 15.9992V16.0073L10.7619 16.0445C10.8283 16.132 10.9671 16.1752 11.0757 16.1792C11.3192 16.4367 11.5626 16.7906 11.5626 16.9435V17.0873H11.6693V17.0953C11.7105 17.2854 11.7658 17.5227 11.9117 17.6796C11.8704 17.7761 11.9057 17.8928 11.9218 17.9421C11.9248 17.9581 11.9318 17.9793 11.9348 17.9964L11.9016 18.105L11.9942 18.2015L12.0163 18.2136C12.0103 18.3121 12.0535 18.4036 12.0867 18.469C12.0948 18.4871 12.1028 18.5062 12.1119 18.5263L12.0887 18.5776C11.959 18.827 12.132 18.9658 12.2145 19.0311C12.2266 19.0432 12.2346 19.0502 12.2457 19.0553C12.1813 19.1045 12.1833 19.1578 12.1692 19.2453L12.1813 19.3559L12.2245 19.4283C12.2286 19.4303 12.2266 19.4303 12.2286 19.4303C12.2306 19.4344 12.2306 19.4404 12.2326 19.4444C12.2416 19.4645 12.2497 19.4947 12.2678 19.5279L12.2185 19.5772L12.1853 19.7059L12.2557 19.8085L12.3131 19.8386C12.309 19.8959 12.3342 19.9492 12.3503 19.9844C12.3523 19.9905 12.3543 20.0005 12.3583 20.0066L12.3453 20.0699C12.297 20.3072 12.2396 20.616 12.3845 20.8633C12.3795 20.8694 12.3754 20.8734 12.3714 20.8774C12.305 20.9689 12.3211 21.0735 12.3342 21.1499C12.3362 21.1731 12.3453 21.2143 12.3402 21.2274L12.303 21.3772C12.301 21.3832 12.3523 21.3973 12.3915 21.4054C12.3875 21.4194 12.3815 21.4335 12.3795 21.4496L12.3463 21.6216H12.4036C12.3966 21.6819 12.3946 21.7362 12.3915 21.7855C12.3895 21.874 12.3875 21.9303 12.3563 21.9735L12.3453 21.9936L12.3382 22.0188C12.297 22.1736 12.3523 22.3205 12.3996 22.4421C12.4076 22.4643 12.4167 22.4844 12.4227 22.5055C12.3996 22.5347 12.3754 22.5729 12.3795 22.6312C12.3795 22.6443 12.3845 22.6553 12.3875 22.6644L12.3543 22.6976L12.3845 22.779C12.3996 22.8303 12.4267 22.8585 12.463 22.8786L12.4388 22.8856C12.4338 22.8856 12.4338 22.9972 12.4338 22.9972V23.0365L12.3453 23.0656L12.3875 23.1601C12.3674 23.2024 12.3422 23.2657 12.3674 23.3361L12.305 23.4467C12.307 23.4457 12.3171 23.5131 12.3714 23.5403C12.3131 23.7374 12.4539 23.8822 12.5414 23.9697C12.5756 24.0038 12.5988 24.032 12.6149 24.0531H12.5434L12.5957 24.2402L12.5988 24.2452C12.5867 24.2552 12.5736 24.2723 12.5615 24.2864L12.4438 24.3427L12.4821 24.5036L12.471 24.5449C12.4408 24.6293 12.464 24.6846 12.4881 24.7218C12.4931 24.7269 12.5002 24.7309 12.5062 24.7379C12.463 24.7792 12.4157 24.8415 12.4036 24.9381L12.3915 25.0748L12.5012 25.0929C12.4901 25.1231 12.4821 25.1512 12.476 25.1784C12.463 25.2267 12.4509 25.2709 12.4267 25.3061L12.4288 25.3091C12.4247 25.3121 12.4217 25.3202 12.4187 25.3262L12.6108 25.4348C12.5837 25.4841 12.5666 25.5374 12.5575 25.5736C12.5515 25.5957 12.5434 25.6209 12.5354 25.6339H12.5223L12.3604 25.6349L12.3694 25.823C12.3795 25.8522 12.3845 25.8853 12.3875 25.9246C12.3895 25.9587 12.3946 25.997 12.4036 26.0392V26.2293C12.4036 26.2524 12.4036 26.2916 12.4127 26.3328L12.3895 26.3439L12.4056 26.4495C12.4127 26.5018 12.4096 26.5551 12.4056 26.6043C12.4036 26.6345 12.3996 26.6707 12.4016 26.7019L12.2718 26.7703L12.4318 26.9483C12.4288 26.9493 12.4267 26.9543 12.4267 26.9543C12.4076 26.9985 12.3875 27.0559 12.3875 27.1232H12.2718L12.466 27.3636C12.4821 27.3807 12.4982 27.436 12.5072 27.4742C12.5102 27.4762 12.5123 27.4832 12.5123 27.4873C12.4338 27.5647 12.4217 27.6834 12.4157 27.7437C12.4096 27.7719 12.4076 27.8111 12.3996 27.8221C12.3996 27.8221 12.4016 27.8211 12.4036 27.8191L12.4539 27.8865C12.4157 27.9157 12.3915 27.9468 12.3795 27.974C12.3583 28.0192 12.3563 28.0685 12.3624 28.1107H12.1753L12.3302 28.2676L12.1853 28.3159L12.305 28.4154V28.8026C12.305 28.873 12.3382 28.9333 12.3966 28.9615C12.3996 28.9635 12.4016 28.9635 12.4016 28.9635C12.4801 29.0168 12.5646 29.0158 12.633 28.9977V29.1606L12.8171 29.1033C12.9509 29.062 13.0545 29.056 13.1611 29.0781L13.313 29.1083L13.3331 28.9534C13.4055 28.3742 13.3905 27.8131 13.3764 27.2701C13.3623 26.7401 13.3492 26.2383 13.4176 25.7476C13.4569 25.651 13.4156 25.5615 13.3864 25.5173Z" fill="white"/>
<path d="M35.0886 25.7124L35.1238 25.6922L35.1208 25.6108L35.0926 23.0043V22.9892C35.0454 22.597 35.0363 22.1646 35.0272 21.705C35.0142 21.1881 35.0041 20.6552 34.9357 20.1845C34.9226 19.5078 34.7908 18.7837 34.6631 18.0838L34.5766 17.6062L34.5685 17.5629L34.5373 17.5277C34.4347 17.4241 34.3985 17.2924 34.3603 17.1396C34.3271 17.0119 34.2919 16.8801 34.2134 16.7554C34.0424 16.4366 33.7678 16.1279 33.5264 15.8544L33.5143 15.8403C33.4539 15.7579 33.3845 15.7126 33.3221 15.6744C33.2869 15.6503 33.2517 15.6271 33.2175 15.595L33.1612 15.5477L33.127 15.5547L33.0837 15.5185C32.8654 15.3425 32.6642 15.2752 32.4288 15.1957L32.4228 15.1937C32.3554 15.0952 32.2266 15.0811 32.1381 15.0771V15.0137L32.0144 14.9946L31.445 14.9091L31.3605 14.895L31.3092 14.9664C31.2881 14.9936 31.282 14.9996 31.1603 14.9564C31.107 14.9383 31.0467 14.9142 30.9813 14.9071L30.9149 14.9011L30.8817 14.9343C30.8636 14.9192 30.8424 14.9071 30.8163 14.895L30.5779 14.8216L30.5608 14.9323C30.4551 14.9323 30.3636 14.9544 30.2871 14.9936H29.9109L29.5629 14.9946L29.6031 15.1324C29.5981 15.1344 29.5981 15.1364 29.594 15.1404C29.4411 15.0982 29.3214 15.1937 29.2591 15.249C29.247 15.2591 29.2339 15.2691 29.2269 15.2752C29.1011 15.2973 29.0327 15.3496 28.9814 15.3898C28.9442 15.416 28.9341 15.426 28.8989 15.429L28.8396 15.433L28.8003 15.4813C28.751 15.5477 28.5861 15.6171 28.4945 15.6603L28.3024 15.7448L28.3466 15.786C28.3165 15.8001 28.2823 15.8212 28.2531 15.8484H28.068V15.9992C28.062 15.9992 28.0509 15.9972 28.0469 15.9952L27.9422 15.9499C27.9342 15.9459 27.8678 16.0404 27.8678 16.0404C27.7551 16.1993 27.6083 16.3592 27.4513 16.5261C27.2693 16.7222 27.0811 16.9254 26.9383 17.1466L26.891 17.213L26.9202 17.2773C26.887 17.2995 26.7985 17.3548 26.7824 17.4614C26.713 17.5388 26.6959 17.6454 26.6858 17.7128C26.6818 17.7349 26.6767 17.7661 26.6727 17.7761C26.5973 17.8716 26.5782 17.9662 26.5661 18.0356C26.558 18.0909 26.552 18.121 26.5289 18.1502L26.4383 18.2689L26.4796 18.299C26.4504 18.3694 26.4504 18.4438 26.4504 18.4871C26.4504 18.5062 26.4484 18.5343 26.4464 18.5494L26.387 18.5856L26.4011 18.6791C26.4263 18.8642 26.4031 19.0311 26.379 19.2131C26.3558 19.3871 26.3347 19.5631 26.3518 19.7592C26.2814 19.8668 26.3005 19.9955 26.3106 20.0759C26.3146 20.1051 26.3206 20.1413 26.3186 20.1574L26.2261 20.2308L26.2915 20.3414C26.3418 20.4259 26.3025 20.5606 26.2643 20.6894C26.2301 20.813 26.1858 20.9659 26.2301 21.0946C26.22 21.1037 26.208 21.1147 26.1989 21.1308C26.1828 21.1529 26.1707 21.1912 26.1718 21.2394C26.1718 21.338 26.1617 21.3671 26.1577 21.3772L26.0923 21.517L26.0802 21.5743L26.2029 21.6608C26.1889 21.7462 26.1989 21.8237 26.209 21.8911C26.2231 21.9856 26.2281 22.0268 26.2009 22.063L26.1235 22.2068L26.1989 22.2963V22.3204C26.1949 22.3838 26.1889 22.4984 26.2673 22.5829C26.2693 22.6 26.2734 22.6141 26.2744 22.6282L26.1376 22.6654L26.2281 22.8635C26.2261 22.8776 26.2221 22.8946 26.218 22.9117C26.2029 22.9691 26.1788 23.0837 26.2361 23.1853C26.1929 23.2989 26.22 23.4125 26.2402 23.487C26.2432 23.5071 26.2512 23.5352 26.2532 23.5543C26.1205 23.6941 26.1848 23.8811 26.2221 23.9787C26.1587 24.0752 26.1748 24.1899 26.1858 24.2562L26.0088 24.3176L26.1909 24.5086C26.1828 24.5509 26.1828 24.5992 26.212 24.6524C26.2331 24.6846 26.2613 24.7027 26.2874 24.7168L26.2321 24.7329C26.2331 24.7419 26.2361 24.745 26.2402 24.752H26.2381L26.3025 24.922L26.3005 24.938C26.2844 25.0376 26.3086 25.1372 26.3558 25.2096C26.3387 25.2337 26.3287 25.2578 26.3267 25.291L26.2552 25.3624L26.3247 25.463C26.379 25.5444 26.3579 25.645 26.3166 25.8069C26.2834 25.9477 26.2402 26.1277 26.3206 26.2835L26.2221 26.3831L26.3478 26.4746C26.3438 26.4806 26.3387 26.4877 26.3377 26.4937C26.3045 26.5551 26.2462 26.6677 26.3186 26.7894L26.3126 26.7743C26.3387 26.8336 26.3267 26.9281 26.3146 27.0297C26.2985 27.1765 26.2774 27.3555 26.3538 27.5305L26.3307 27.7055L26.3347 27.6864C26.3146 27.7527 26.3307 27.8111 26.3518 27.8553L26.2965 27.8825L26.3347 28.0021C26.376 28.1318 26.376 28.2907 26.376 28.4546C26.379 28.7684 26.379 29.1254 26.6576 29.3959L26.719 29.4572L26.7985 29.4311C27.0077 29.3687 27.0168 29.1586 27.0248 29.0439C27.0248 29.0218 27.0268 28.9977 27.0288 28.9776L27.0308 28.9474L27.0248 28.9172C26.9403 28.6286 26.9745 28.2515 27.0057 27.9187C27.0137 27.8292 27.0218 27.7467 27.0288 27.6663L27.0308 27.625L27.0137 27.5898C26.9554 27.4742 26.9705 27.3585 26.9876 27.2258C27.0017 27.1071 27.0158 26.9704 26.9725 26.8336C27.0218 26.2242 26.9926 25.5032 26.9685 24.8626C26.9584 24.5921 26.9484 24.3367 26.9443 24.1064L26.9413 24.0974V24.0873C26.9071 23.7896 26.9172 23.4648 26.9242 23.1541C26.9333 22.8715 26.9413 22.5829 26.9172 22.3174C26.9816 22.0147 26.9795 21.7332 26.9725 21.4395C26.9705 21.3078 26.9655 21.167 26.9725 21.0242V20.988L26.9645 20.9689C27.0288 20.8925 27.0439 20.81 27.0097 20.7286C27.0409 20.6159 27.0439 20.5093 27.049 20.4128C27.051 20.3374 27.053 20.268 27.0681 20.2006L27.0761 20.1634L27.0661 20.1292C27.049 20.0639 27.0661 19.9905 27.0842 19.915C27.1043 19.8165 27.1294 19.7039 27.0902 19.5912C27.2019 19.362 27.226 19.0824 27.2491 18.8099L27.2572 18.7184C27.2652 18.657 27.2471 18.6017 27.1998 18.5534V18.5424C27.1998 18.4217 27.2592 18.3262 27.3377 18.2035C27.4222 18.0687 27.5167 17.9189 27.5429 17.7067L27.5469 17.6735L27.5439 17.6675C27.5529 17.6574 27.564 17.6474 27.5771 17.6373C27.6264 17.5921 27.7069 17.5247 27.7038 17.4161C27.7038 17.397 27.7008 17.3749 27.6938 17.3588C27.7934 17.2673 27.8557 17.1647 27.9111 17.0712C27.9915 16.9334 28.0489 16.8329 28.2108 16.7886L28.2893 16.7635L28.3094 16.686C28.3316 16.5965 28.409 16.5452 28.5328 16.4668C28.6233 16.4075 28.7239 16.3421 28.8003 16.2426C28.9029 16.2526 28.9673 16.2214 29.0025 16.1832C29.1263 16.1521 29.2228 16.0786 29.3013 16.0133C29.4341 15.9067 29.4773 15.8826 29.5659 15.9258L29.6564 15.966L29.7127 15.9087C29.7188 15.9067 29.7218 15.9067 29.7258 15.9067C29.7651 15.8966 29.8385 15.8725 29.8797 15.8051C29.918 15.7961 29.9542 15.786 29.9844 15.776C30.0568 15.7498 30.0739 15.7478 30.1 15.7619C30.1272 15.776 30.1745 15.7951 30.2338 15.781L30.2379 15.79L30.3435 15.776L30.4813 15.7599C30.8948 15.7046 31.2489 15.6603 31.5708 15.8333L31.6844 15.8986L31.7548 15.7931C31.7689 15.8091 31.783 15.8272 31.7981 15.8403C31.8786 15.9338 32.0244 16.0957 32.2327 16.0585C32.278 16.0998 32.3303 16.1319 32.3755 16.1611C32.3946 16.1702 32.4188 16.1852 32.4349 16.1953V16.2013L32.4641 16.2406C32.5304 16.328 32.6683 16.3713 32.7769 16.3753C33.0193 16.6327 33.2648 16.9847 33.2648 17.1396V17.2834H33.3714L33.3734 17.2924C33.4127 17.4855 33.466 17.7208 33.6129 17.8737C33.5716 17.9722 33.6078 18.0909 33.6229 18.1391C33.629 18.1542 33.633 18.1763 33.638 18.1934L33.6028 18.301L33.6974 18.3976L33.7165 18.4096C33.7114 18.5082 33.7577 18.6047 33.7889 18.6671C33.7949 18.6842 33.805 18.7043 33.81 18.7224L33.7909 18.7757C33.6632 19.0231 33.8342 19.1618 33.9167 19.2272C33.9287 19.2383 33.9388 19.2453 33.9478 19.2544C33.8835 19.3046 33.8845 19.3549 33.8734 19.4444L33.8835 19.552L33.9257 19.6244L33.9307 19.6254C33.9328 19.6304 33.9348 19.6345 33.9348 19.6405C33.9438 19.6626 33.9519 19.6918 33.97 19.725L33.9207 19.7732L33.8875 19.902L33.9599 20.0086L34.0132 20.0357C34.0112 20.095 34.0364 20.1453 34.0505 20.1825C34.0545 20.1886 34.0565 20.1966 34.0585 20.2026L34.0464 20.268C33.9992 20.5053 33.9388 20.814 34.0857 21.0634C34.0816 21.0654 34.0776 21.0695 34.0776 21.0695C34.0072 21.166 34.0233 21.2696 34.0364 21.345C34.0384 21.3712 34.0464 21.4134 34.0424 21.4265L34.0072 21.5723C34.0052 21.5803 34.0525 21.5934 34.0957 21.6004C34.0897 21.6155 34.0837 21.6296 34.0796 21.6467L34.0484 21.8186H34.1078C34.0957 21.877 34.0957 21.9323 34.0937 21.9816C34.0917 22.0701 34.0897 22.1264 34.0585 22.1716L34.0464 22.1927L34.0404 22.2149C33.9992 22.3727 34.0545 22.5175 34.0997 22.6382C34.1098 22.6593 34.1189 22.6835 34.1249 22.7036C34.0997 22.7327 34.0776 22.7689 34.0796 22.8253C34.0796 22.8393 34.0857 22.8504 34.0897 22.8635L34.0585 22.8936L34.0857 22.9801C34.0997 23.0254 34.1289 23.0576 34.1661 23.0747L34.141 23.0797C34.135 23.0807 34.135 23.1943 34.135 23.1943V23.2355L34.0464 23.2597L34.0917 23.3552C34.0686 23.4015 34.0444 23.4618 34.0686 23.5332L34.0072 23.6438C34.0072 23.6438 34.0173 23.7102 34.0736 23.7373C34.0152 23.9365 34.1581 24.0793 34.2396 24.1647C34.2758 24.205 34.2999 24.2281 34.316 24.2512H34.2446L34.2989 24.4362L34.2999 24.4413C34.2889 24.4553 34.2758 24.4674 34.2627 24.4835L34.145 24.5418L34.1822 24.7007L34.1702 24.7419C34.145 24.8264 34.1661 24.8847 34.1883 24.9169C34.1943 24.925 34.2014 24.927 34.2054 24.933C34.1641 24.9773 34.1169 25.0376 34.1078 25.1331L34.0937 25.2709L34.2034 25.29C34.1943 25.3182 34.1843 25.3463 34.1782 25.3725C34.1641 25.4278 34.1531 25.47 34.1289 25.5042H34.1309C34.1289 25.5112 34.1229 25.5173 34.1209 25.5233L34.312 25.6309C34.2859 25.6832 34.2688 25.7315 34.2587 25.7727C34.2516 25.7898 34.2416 25.8169 34.2356 25.829H34.2235L34.0625 25.831L34.0706 26.0221C34.0796 26.0502 34.0837 26.0804 34.0877 26.1216C34.0917 26.1558 34.0957 26.195 34.1058 26.2363V26.4243C34.1058 26.4495 34.1078 26.4877 34.1148 26.5279L34.0937 26.541L34.1078 26.6466C34.1169 26.6989 34.1118 26.7511 34.1078 26.8024C34.1038 26.8316 34.1038 26.8648 34.1038 26.901L33.972 26.9653L34.1329 27.1443C34.1309 27.1453 34.1289 27.1514 34.1289 27.1554C34.1118 27.1976 34.0897 27.256 34.0897 27.3203H33.974L34.1682 27.5587C34.1843 27.5778 34.2003 27.6331 34.2104 27.6693C34.2114 27.6773 34.2134 27.6813 34.2134 27.6864C34.135 27.7638 34.1229 27.8774 34.1169 27.9418C34.1118 27.9679 34.1098 28.0072 34.1038 28.0192V28.0162L34.1531 28.0826C34.1169 28.1107 34.0937 28.1439 34.0796 28.1711C34.0585 28.2173 34.0585 28.2626 34.0645 28.3068H33.8774L34.0323 28.4647L33.8875 28.512L34.0072 28.6125V29.0027C34.0072 29.0721 34.0424 29.1284 34.0957 29.1606C34.0957 29.1606 34.1038 29.1636 34.1078 29.1636C34.1822 29.2149 34.2667 29.2109 34.3362 29.1968V29.3557L34.5182 29.3004C34.653 29.2591 34.7556 29.2521 34.8613 29.2742L35.0142 29.3054L35.0353 29.1495C35.1067 28.5733 35.0926 28.0082 35.0786 27.4671C35.0635 26.9372 35.0514 26.4374 35.1168 25.9467C35.161 25.8501 35.1168 25.7616 35.0886 25.7124Z" fill="white"/>
<path d="M37.3263 37.8902H2.07731V2.11479H37.3263V37.8902ZM39.4126 0H0V40H39.4136L39.4126 0Z" fill="white"/>
<path d="M69.0286 21.8347C69.2097 21.8347 69.2097 21.699 69.1645 21.5622L65.5742 11.5202C65.3468 10.8837 65.3016 10.8837 65.0742 11.5202L61.665 21.5622C61.5735 21.7442 61.665 21.8347 61.7555 21.8347H69.0286ZM61.3008 23.4256C61.0735 23.4256 60.9377 23.5614 60.8461 23.7886L58.8463 29.4683C58.3926 30.7414 58.0737 31.9672 58.0737 32.6953C58.0737 33.5129 58.5737 33.8759 59.5736 33.8759H59.8925C60.3009 33.8759 60.4377 34.0126 60.4377 34.1947C60.4377 34.4219 60.0736 34.5124 59.7557 34.5124C58.7558 34.5124 56.6644 34.3767 56.1654 34.3767C55.7097 34.3767 53.7098 34.5124 51.8015 34.5124C51.3006 34.5124 51.0742 34.4219 51.0742 34.1947C51.0742 34.0126 51.2553 33.8759 51.6195 33.8759C51.8468 33.8759 52.2552 33.8759 52.5288 33.8306C54.4834 33.6496 55.256 32.1493 56.0286 30.2406L65.1195 6.29511C65.6194 4.97676 65.7562 4.7495 66.0741 4.7495C66.3015 4.7495 66.4836 4.93151 66.9835 6.2036C67.6193 7.70296 73.8009 23.5614 76.2102 29.241C77.7111 32.8311 79.0289 33.4223 79.6647 33.6496C80.2562 33.8759 80.893 33.8759 81.2109 33.8759C81.5287 33.8759 81.7561 33.9674 81.7561 34.1947C81.7561 34.4219 81.574 34.5124 81.074 34.5124C80.6194 34.5124 77.2101 34.5124 74.1651 34.4219C73.302 34.3767 73.0284 34.3304 73.0284 34.1031C73.0284 33.9674 73.1652 33.8306 73.3472 33.7854C73.5283 33.6949 73.8009 33.4676 73.5283 32.7858L69.937 23.6529C69.8465 23.5161 69.756 23.4256 69.5739 23.4256" fill="white"/>
<path d="M85.9137 23.3804C85.9137 28.6055 86.0948 31.2402 86.8684 31.9672C87.5957 32.6038 88.5041 32.8773 91.6407 32.8773C93.6405 32.8773 95.4593 32.8773 96.4592 31.6042C96.9129 30.9224 97.2318 30.0143 97.3224 29.3325C97.3676 28.9685 97.4592 28.7875 97.6865 28.7875C97.8676 28.7875 97.9591 28.9233 97.9591 29.3778C97.9591 29.8323 97.6865 32.4218 97.4139 33.4676C97.1403 34.3767 97.1866 34.6029 95.0046 34.6029C91.9133 34.6029 88.5041 34.3767 83.9592 34.3767C82.4583 34.3767 81.5499 34.5124 79.9584 34.5124C79.5037 34.5124 79.2311 34.4219 79.2311 34.1484C79.2311 34.0126 79.3679 33.8759 79.7311 33.8759C80.0952 33.8759 80.4584 33.8759 80.8226 33.7854C81.5951 33.6496 81.8678 32.7405 82.0046 31.6495C82.2772 29.9238 82.1866 26.7873 82.1866 23.2888V16.4728C82.1866 10.4754 82.1866 9.47584 82.0951 8.24799C82.0046 6.9759 81.8225 6.15834 80.2763 5.97633C80.0047 5.93108 79.5037 5.93108 79.1406 5.93108C78.8217 5.93108 78.6406 5.79431 78.6406 5.6133C78.6406 5.38604 78.868 5.29553 79.3227 5.29553C81.232 5.29553 83.9581 5.43129 84.0497 5.43129C84.6855 5.43129 87.4589 5.29553 88.7314 5.29553C89.1861 5.29553 89.3219 5.43129 89.3219 5.6133C89.3219 5.79431 89.0956 5.93108 88.822 5.93108C88.5041 5.93108 88.0494 5.97633 87.5957 6.02259C86.3222 6.20359 86.0495 6.93065 85.959 8.24799C85.8685 9.47584 85.9137 10.4754 85.9137 16.4728" fill="white"/>
<path d="M102.207 16.4728C102.207 10.5207 102.207 9.42958 102.115 8.20274C102.025 6.93064 101.707 6.2951 100.388 6.02258C100.115 5.97632 99.6607 5.93107 99.2975 5.93107C98.9796 5.93107 98.707 5.79431 98.707 5.65855C98.707 5.38603 98.9344 5.29553 99.3881 5.29553C100.297 5.29553 101.525 5.38603 104.07 5.43128C104.297 5.43128 112.388 5.43129 113.298 5.38603C114.207 5.34078 114.707 5.29553 115.07 5.15877C115.343 5.06826 115.389 5.022 115.571 5.022C115.662 5.022 115.752 5.11351 115.752 5.34078C115.752 5.6133 115.479 6.24884 115.389 7.38518C115.343 8.15748 115.297 8.88454 115.252 9.74835C115.252 10.1566 115.162 10.4302 114.934 10.4302C114.707 10.4302 114.615 10.2481 114.615 9.93037C114.57 9.24857 114.434 8.79403 114.297 8.47626C114.025 7.56719 113.616 7.24842 111.343 7.11266C110.752 7.06741 106.252 7.02215 106.161 7.02215C106.024 7.02215 105.934 7.11266 105.934 7.38518V17.6997C105.934 17.9732 105.979 18.1542 106.206 18.1542C106.752 18.1542 111.388 18.109 112.343 18.0185C113.389 17.9732 114.07 17.8364 114.434 17.3367C114.615 17.0641 114.752 16.9726 114.934 16.9726C115.025 16.9726 115.116 17.0189 115.116 17.2451C115.116 17.4724 114.934 18.3362 114.797 19.6536C114.661 20.9257 114.661 21.8347 114.615 22.426C114.57 22.7891 114.48 22.9248 114.297 22.9248C114.07 22.9248 114.025 22.6533 114.025 22.3345C114.025 22.062 113.98 21.6075 113.888 21.2444C113.707 20.6531 113.434 20.0176 111.707 19.8808C110.661 19.7903 106.979 19.6988 106.252 19.6988C105.979 19.6988 105.934 19.8356 105.934 20.0176V23.3341C105.934 24.7429 105.889 28.7412 105.934 29.5145C106.024 31.1949 106.252 32.0587 107.206 32.468C107.888 32.7858 108.98 32.8763 110.525 32.8763C111.388 32.8763 112.843 32.9215 113.98 32.6038C115.343 32.1955 115.662 31.2864 116.025 29.6051C116.116 29.1505 116.252 28.9685 116.434 28.9685C116.707 28.9685 116.707 29.3778 116.707 29.6503C116.707 29.9681 116.344 32.831 116.207 33.6033C116.025 34.5124 115.707 34.6029 114.207 34.6029C111.207 34.6029 109.934 34.5124 108.343 34.5124C106.752 34.4672 104.661 34.3756 102.979 34.3756C101.933 34.3756 101.07 34.5124 99.9796 34.5124C99.5701 34.5124 99.3428 34.4219 99.3428 34.1936C99.3428 34.0126 99.5249 33.8759 99.7522 33.8759C100.025 33.8759 100.343 33.8306 100.662 33.7401C101.479 33.5581 102.025 32.9678 102.115 30.1501C102.162 28.6055 102.207 26.7421 102.207 23.2888" fill="white"/>
<path d="M131.896 19.6536L125.442 9.20332C124.351 7.47569 123.805 6.61288 122.487 6.20359C121.805 5.97733 121.123 5.93108 120.897 5.93108C120.442 5.93108 120.305 5.74906 120.305 5.6133C120.305 5.43129 120.442 5.29553 120.987 5.29553C122.032 5.29553 125.624 5.43129 125.896 5.43129C126.259 5.43129 128.396 5.29553 129.805 5.29553C130.396 5.29553 130.533 5.38604 130.533 5.56805C130.533 5.79532 130.351 5.93108 129.988 5.93108C129.76 5.93108 129.169 5.97733 128.896 6.06784C128.578 6.15834 128.442 6.38561 128.442 6.61288C128.442 7.02216 128.623 7.38518 128.988 8.02173C130.851 11.4297 132.169 13.6561 134.26 16.9726C135.442 15.2913 139.624 8.97605 139.988 8.11224C140.306 7.52194 140.488 7.24943 140.488 6.74964C140.488 6.47611 140.351 6.11309 139.669 6.02259C139.351 5.97733 138.896 5.93108 138.669 5.93108C138.351 5.93108 138.124 5.79532 138.124 5.56805C138.124 5.43129 138.261 5.29553 138.761 5.29553C140.396 5.29553 142.214 5.43129 142.533 5.43129C142.896 5.43129 144.67 5.29553 146.124 5.29553C146.533 5.29553 146.669 5.43129 146.669 5.56805C146.669 5.79532 146.442 5.93108 146.169 5.93108C145.76 5.93108 145.215 6.02259 144.715 6.15834C143.623 6.47611 142.806 7.79446 141.76 9.24857L135.351 18.472C136.169 19.7451 142.942 30.8771 143.805 31.923C144.351 32.6038 144.942 33.4223 146.078 33.6949C146.669 33.8306 147.124 33.8759 147.305 33.8759C147.761 33.8759 147.851 34.0579 147.851 34.1946C147.851 34.4219 147.669 34.5124 147.26 34.5124C144.715 34.5124 142.169 34.5577 139.942 34.4219C139.214 34.3767 139.261 34.2399 139.261 34.0126C139.261 33.8759 139.443 33.8306 139.715 33.7401C140.169 33.6044 140.033 33.2403 139.669 32.649C137.579 28.878 135.305 25.1522 132.987 21.3802L126.851 31.3769C126.533 31.923 126.169 32.649 126.169 33.0583C126.169 33.4223 126.442 33.7401 126.988 33.8306C127.259 33.8759 127.306 33.8759 127.533 33.8759C127.941 33.8759 128.078 34.0126 128.078 34.1946C128.078 34.3767 127.941 34.5124 127.578 34.5124C126.624 34.5124 123.942 34.3767 123.578 34.3767C123.305 34.3767 121.487 34.5124 120.078 34.5124C119.623 34.5124 119.487 34.3304 119.487 34.1946C119.487 34.0126 119.668 33.8759 119.987 33.8759C120.26 33.8759 120.669 33.8306 121.305 33.6949C122.487 33.3761 123.351 32.5133 124.624 30.6046" fill="white"/>
<path d="M155.952 21.1992C155.952 24.0612 155.952 29.06 155.999 29.423C156.134 31.4232 156.089 32.0135 157.453 32.6038C158.544 33.1488 160.362 33.1951 160.816 33.1951C162.772 33.1951 166.181 32.2408 166.181 28.0594C166.181 25.7425 165.362 22.244 162.271 20.1534C160.908 19.3358 160.089 19.2443 159.18 19.1538C158.408 19.0633 156.816 19.0633 156.181 19.1538C156.044 19.1538 155.952 19.199 155.952 19.4263V21.1992ZM155.952 17.2914C155.952 17.6092 156.044 17.6544 156.181 17.7449C156.452 17.7912 156.953 17.8817 158.453 17.8817C160.771 17.8817 161.453 17.7449 162.316 16.7906C163.043 15.9278 163.499 14.6557 163.499 13.1564C163.499 10.0209 162.09 6.52137 158.226 6.52137C157.862 6.52137 156.908 6.61288 156.499 6.74964C156.089 6.84014 155.952 6.93065 155.952 7.15792V17.2914ZM152.407 16.4728C152.407 10.5207 152.407 9.38433 152.317 8.15749C152.225 6.93065 151.907 6.2951 150.544 6.02259C150.18 5.97633 149.543 5.93108 149.453 5.93108C149.044 5.93108 148.862 5.79431 148.862 5.6133C148.862 5.38604 149.135 5.29553 149.543 5.29553C151.453 5.29553 154.18 5.43129 154.271 5.43129C155.362 5.43129 156.862 5.29553 158.635 5.29553C165.453 5.29553 166.817 9.06656 166.817 11.0204C166.817 14.3832 164.907 16.5181 162.998 18.0185C166.044 18.9265 169.953 21.699 169.953 26.1518C169.953 30.3774 166.544 34.6029 159.635 34.6029C158.908 34.6029 157.998 34.5124 156.816 34.5124C155.544 34.4219 154.453 34.3767 154.271 34.3767C152.862 34.3767 151.68 34.5124 150.18 34.5124C149.771 34.5124 149.543 34.4219 149.543 34.2399C149.543 34.1031 149.59 33.8759 150.18 33.8759C150.498 33.8759 150.635 33.8759 150.998 33.7854C151.771 33.6486 152.043 32.6943 152.18 31.6042C152.407 29.9238 152.407 26.8336 152.407 23.2888" fill="white"/>
<path d="M184.136 21.8347C184.318 21.8347 184.318 21.699 184.273 21.5622L180.682 11.5202C180.454 10.8837 180.408 10.8837 180.181 11.5202L176.772 21.5622C176.681 21.7442 176.772 21.8347 176.863 21.8347H184.136ZM176.408 23.4256C176.181 23.4256 176.045 23.5614 175.954 23.7886L173.954 29.4683C173.499 30.7414 173.181 31.9672 173.181 32.6953C173.181 33.5129 173.681 33.8759 174.681 33.8759H174.999C175.408 33.8759 175.544 34.0126 175.544 34.1947C175.544 34.4219 175.181 34.5124 174.863 34.5124C173.863 34.5124 171.772 34.3767 171.272 34.3767C170.817 34.3767 168.817 34.5124 166.908 34.5124C166.408 34.5124 166.181 34.4219 166.181 34.1947C166.181 34.0126 166.363 33.8759 166.726 33.8759C166.954 33.8759 167.363 33.8759 167.635 33.8306C169.59 33.6496 170.362 32.1493 171.135 30.2406L180.227 6.29511C180.727 4.97676 180.863 4.7495 181.181 4.7495C181.409 4.7495 181.59 4.93151 182.09 6.2036C182.727 7.70296 188.908 23.5614 191.318 29.241C192.818 32.8311 194.136 33.4223 194.772 33.6496C195.364 33.8759 195.999 33.8759 196.318 33.8759C196.636 33.8759 196.864 33.9674 196.864 34.1947C196.864 34.4219 196.681 34.5124 196.181 34.5124C195.727 34.5124 192.318 34.5124 189.273 34.4219C188.408 34.3767 188.136 34.3304 188.136 34.1031C188.136 33.9674 188.272 33.8306 188.454 33.7854C188.636 33.6949 188.908 33.4676 188.636 32.7858L185.045 23.6529C184.954 23.5161 184.863 23.4256 184.681 23.4256" fill="white"/>
<path d="M195.223 6.61288C195.223 5.20403 195.359 4.7495 195.723 4.7495C196.041 4.7495 196.814 5.65856 197.132 5.97634C197.541 6.43087 202.707 12.8838 209.071 19.3811C212.616 22.8343 217.162 27.5144 218.344 28.6055L217.843 9.70211C217.797 7.24943 217.526 6.43087 216.298 6.1131C215.525 5.97634 214.843 5.93108 214.525 5.93108C214.07 5.93108 213.98 5.74907 213.98 5.56806C213.98 5.34079 214.343 5.29554 214.798 5.29554C216.752 5.29554 218.662 5.4313 219.071 5.4313C219.525 5.4313 220.934 5.29554 222.708 5.29554C223.206 5.29554 223.343 5.34079 223.343 5.56806C223.343 5.74907 223.206 5.88583 222.934 5.93108C222.661 5.97634 222.298 5.97634 221.798 6.06785C220.752 6.29511 220.434 6.74965 220.434 9.47585L220.343 32.286C220.343 34.5577 220.252 34.7849 219.934 34.7849C219.616 34.7849 219.161 34.4672 216.934 32.3765C216.752 32.286 210.434 26.0151 206.479 22.1525C201.752 17.2462 198.36 12.5198 197.223 11.3382L197.814 29.1053C197.904 32.2408 198.178 33.4223 199.314 33.6949C200.041 33.8759 200.814 33.8759 201.178 33.8759C201.541 33.8759 201.723 34.0126 201.723 34.1947C201.723 34.4219 201.496 34.5124 200.996 34.5124C198.541 34.5124 196.905 34.3767 196.587 34.3767C196.269 34.3767 194.587 34.5124 192.632 34.5124C192.223 34.5124 191.95 34.4672 191.95 34.1947C191.95 34.0126 192.132 33.8759 192.587 33.8759C192.905 33.8759 193.405 33.8759 193.996 33.6949C194.995 33.3761 195.223 32.1493 195.223 28.8328C195.223 7.15792 195.268 14.1559 195.223 6.61288Z" fill="white"/>
<path d="M230.026 18.6088C232.117 16.7454 237.071 12.02 239.117 9.79361C241.299 7.38518 241.48 7.15791 241.48 6.65813C241.48 6.34036 241.299 6.11309 240.753 5.93108C240.435 5.84057 240.254 5.74906 240.254 5.56805C240.254 5.43129 240.345 5.29553 240.708 5.29553C240.981 5.29553 242.344 5.43129 243.799 5.43129C245.162 5.43129 247.662 5.29553 248.253 5.29553C248.89 5.29553 248.981 5.38604 248.981 5.56805C248.981 5.74906 248.844 5.88582 248.481 5.93108C247.753 5.97633 246.799 6.15834 246.254 6.38561C245.162 6.74964 244.572 7.24943 242.208 9.38433C238.89 12.383 234.935 16.2456 232.936 18.0637C235.389 20.6079 242.754 27.8784 244.663 29.6051C247.844 32.5133 249.39 33.3308 251.208 33.7401C251.708 33.8306 251.482 33.7854 252.254 33.8759C252.663 33.9221 252.89 34.0126 252.89 34.2399C252.89 34.4219 252.663 34.5124 252.163 34.5124H249.208C245.663 34.5124 244.754 34.1031 242.935 32.831C240.89 31.3769 233.617 23.9254 230.026 19.6988V23.2888C230.026 26.7873 229.981 29.9681 230.207 31.6042C230.39 32.9215 230.572 33.4223 231.754 33.6949C232.344 33.8306 233.299 33.8759 233.481 33.8759C233.889 33.9221 233.98 34.0126 233.98 34.1946C233.98 34.3767 233.799 34.5124 233.344 34.5124C231.026 34.5124 228.39 34.3767 228.162 34.3767C228.026 34.3767 225.344 34.5124 224.071 34.5124C223.663 34.5124 223.344 34.4219 223.344 34.1946C223.344 34.0126 223.526 33.8759 223.935 33.8759C224.163 33.8759 224.663 33.8306 225.026 33.7401C225.798 33.5581 225.935 32.649 226.072 31.559C226.298 29.9238 226.298 26.6968 226.298 23.2888V16.4728C226.298 10.4754 226.298 9.38433 226.208 8.15749C226.117 6.93065 225.845 6.24885 224.89 6.06784C224.435 5.97633 224.116 5.97633 223.845 5.93108C223.526 5.88582 223.344 5.79431 223.344 5.6133C223.344 5.38604 223.526 5.29553 224.026 5.29553C225.435 5.29553 228.026 5.43129 228.162 5.43129C228.344 5.43129 230.981 5.29553 232.254 5.29553C232.708 5.29553 232.936 5.38604 232.936 5.6133C232.936 5.79431 232.799 5.88582 232.435 5.93108C232.163 5.97633 231.936 5.97633 231.617 6.02259C230.299 6.20359 230.162 6.8854 230.072 8.20375C229.981 9.42958 230.026 10.4754 230.026 16.4728" fill="white"/>
</svg>
