<svg width="168" height="40" viewBox="0 0 168 40" fill="none" xmlns="http://www.w3.org/2000/svg">
<g clip-path="url(#clip0_361_5903)">
<mask id="mask0_361_5903" style="mask-type:luminance" maskUnits="userSpaceOnUse" x="128" y="0" width="40" height="41">
<path d="M128.049 0H167.991V40.0002H128.049V0Z" fill="white"/>
</mask>
<g mask="url(#mask0_361_5903)">
<path d="M108.079 20.0001L148.019 60.0018L187.96 20.0001L148.019 -20.0016L108.079 20.0001Z" fill="url(#paint0_linear_361_5903)"/>
</g>
<path d="M158.422 13.4397V31.6602L160.869 33.549V15.3284L158.422 13.4397Z" fill="white"/>
<path d="M135.191 33.549L137.639 31.6602V13.4389L135.191 15.3277V33.549Z" fill="white"/>
<path d="M154.877 10.7474C152.563 6.2041 147.903 6.09048 147.903 6.09048C147.903 6.09048 143.169 6.20632 140.853 10.8109C140.288 11.936 139.866 13.3268 139.693 15.051C139.691 15.0975 139.689 15.1454 139.687 15.1919V29.9633L142.094 28.0421V16.0109C142.094 14.0675 142.792 12.1714 144.12 10.7541C144.898 9.92332 145.958 9.15233 147.396 8.63145C147.722 8.5134 148.081 8.51266 148.406 8.63071C152.013 9.93513 153.207 12.817 153.578 14.2616C153.628 14.6681 153.679 15.0687 153.729 15.4752V28.0421L156.071 29.9308V15.1919C156.068 15.1454 156.066 15.0975 156.064 15.051C155.888 13.2943 155.455 11.8829 154.877 10.7474Z" fill="white"/>
<path d="M149.056 11.7501C148.711 11.5996 148.321 11.4956 147.879 11.4609C147.434 11.4956 147.045 11.6003 146.699 11.7516C145.023 12.4842 144.438 14.3346 144.292 14.9189C144.264 15.0281 144.252 15.1381 144.252 15.2502V26.8018L146.699 25.4797V15.4988C146.699 14.7979 147.152 14.1708 147.823 13.9723C147.858 13.962 147.879 13.9576 147.879 13.9576C147.879 13.9576 147.898 13.962 147.933 13.9723C148.603 14.1701 149.056 14.7965 149.056 15.4959V25.5018L151.503 26.824V15.1683C151.501 15.1071 151.495 15.0458 151.48 14.9853C151.365 14.4895 150.802 12.513 149.056 11.7501Z" fill="white"/>
<path d="M1.25747 32.3751C1.50351 32.4187 1.86448 32.4334 2.3131 32.4334C3.61403 32.4334 4.81331 31.9553 4.81331 30.5365C4.81331 29.2048 3.67149 28.6552 2.29837 28.6552H1.25747V32.3751ZM1.25747 27.6997H2.39929C3.72895 27.6997 4.50981 27.004 4.50981 26.0633C4.50981 24.9197 3.64276 24.4711 2.37056 24.4711C1.79228 24.4711 1.46005 24.5147 1.25747 24.5582V27.6997ZM0 23.7038C0.549545 23.588 1.41659 23.5009 2.29837 23.5009C3.55584 23.5009 4.36542 23.7186 4.97243 24.2107C5.47851 24.587 5.78201 25.1661 5.78201 25.9335C5.78201 26.8741 5.16028 27.6997 4.13411 28.0753V28.1048C5.05935 28.3364 6.14297 29.1038 6.14297 30.5513C6.14297 31.3909 5.81074 32.0276 5.31939 32.5057C4.6402 33.1277 3.54111 33.4176 1.9514 33.4176C1.08436 33.4176 0.419157 33.3601 0 33.3018" fill="white"/>
<path d="M13.0348 29.7552C11.647 29.7265 10.072 29.9722 10.072 31.3326C10.072 32.1582 10.6208 32.5493 11.2713 32.5493C12.1818 32.5493 12.7601 31.9701 12.9626 31.3762C13.0061 31.2463 13.0348 31.1017 13.0348 30.9711V29.7552ZM13.2227 33.3306L13.1218 32.4475H13.0783C12.6879 32.9978 11.9365 33.49 10.9391 33.49C9.52246 33.49 8.7998 32.491 8.7998 31.478C8.7998 29.784 10.3026 28.8573 13.0061 28.8721V28.7275C13.0061 28.1483 12.847 27.1058 11.4157 27.1058C10.7652 27.1058 10.086 27.3087 9.59466 27.6267L9.30589 26.7871C9.88343 26.4108 10.7217 26.1644 11.6035 26.1644C13.7428 26.1644 14.2636 27.6267 14.2636 29.0315V31.6514C14.2636 32.2593 14.2923 32.8532 14.3785 33.3306" fill="white"/>
<path d="M17.8905 28.2206C17.8905 27.4969 17.8765 26.9029 17.833 26.3245H18.9601L19.0323 27.4821H19.061C19.408 26.8159 20.2176 26.1644 21.3741 26.1644C22.3428 26.1644 23.8456 26.7443 23.8456 29.1473V33.3306H22.5734V29.2919C22.5734 28.1623 22.155 27.2217 20.955 27.2217C20.1166 27.2217 19.4662 27.8156 19.2496 28.5246C19.1914 28.684 19.1627 28.9009 19.1627 29.1178V33.3306H17.8905" fill="white"/>
<path d="M32.3631 29.1613C32.3631 28.9879 32.3491 28.785 32.3056 28.6257C32.1178 27.8436 31.4386 27.1781 30.4846 27.1781C29.1689 27.1781 28.3741 28.2929 28.3741 29.8711C28.3741 31.2603 29.0393 32.477 30.4411 32.477C31.2647 32.477 31.9734 31.9701 32.2622 31.087C32.3204 30.9128 32.3631 30.6671 32.3631 30.479V29.1613ZM32.3631 32.2446H32.3351C31.9587 32.9396 31.1778 33.4899 30.0507 33.4899C28.4176 33.4899 27.0879 32.0712 27.0879 29.9434C27.0879 27.3227 28.7793 26.1651 30.2533 26.1651C31.3369 26.1651 32.0603 26.7008 32.4065 27.381H32.436L32.4795 26.3245H33.6788C33.65 26.9177 33.6353 27.5256 33.6353 28.2494V36.1969H32.3631" fill="white"/>
<path d="M43.1789 31.4197C43.1789 32.1435 43.1929 32.7809 43.2364 33.3306H42.1086L42.0364 32.187H42.0076C41.6754 32.7522 40.938 33.4899 39.6953 33.4899C38.5962 33.4899 37.2812 32.882 37.2812 30.4207V26.3245H38.5535V30.2038C38.5535 31.5355 38.9579 32.4334 40.1144 32.4334C40.9667 32.4334 41.5597 31.8395 41.7911 31.2751C41.8633 31.087 41.9067 30.8553 41.9067 30.6236V26.3245H43.1789" fill="white"/>
<path d="M51.275 29.1473C51.2897 28.3365 50.9428 27.077 49.5122 27.077C48.2252 27.077 47.6617 28.2642 47.5608 29.1473H51.275ZM47.546 30.0592C47.5748 31.782 48.6739 32.491 49.9453 32.491C50.8566 32.491 51.4054 32.3316 51.8827 32.1295L52.0993 33.0414C51.6514 33.2435 50.8846 33.4759 49.7722 33.4759C47.6182 33.4759 46.332 32.0564 46.332 29.9434C46.332 27.8296 47.5748 26.1651 49.6131 26.1651C51.8967 26.1651 52.5037 28.1771 52.5037 29.4653C52.5037 29.7257 52.475 29.9286 52.4603 30.0592" fill="white"/>
<path d="M64.9843 29.1761C64.9843 29.0167 64.9703 28.7998 64.9268 28.6404C64.739 27.8296 64.0451 27.1641 63.0911 27.1641C61.7754 27.1641 60.9953 28.3217 60.9953 29.8711C60.9953 31.2891 61.6892 32.4622 63.0624 32.4622C63.9154 32.4622 64.6955 31.8978 64.9268 30.9423C64.9703 30.7682 64.9843 30.5948 64.9843 30.3919V29.1761ZM66.2565 23.0524V31.5215C66.2565 32.1435 66.2712 32.8532 66.3147 33.3306H65.1729L65.1147 32.1147H65.0859C64.6955 32.8968 63.8425 33.4899 62.7007 33.4899C61.01 33.4899 59.7091 32.0571 59.7091 29.9286C59.6944 27.5979 61.1397 26.1651 62.845 26.1651C63.9154 26.1651 64.6381 26.6712 64.9556 27.2364H64.9843V23.0524" fill="white"/>
<path d="M75.8225 31.4197C75.8225 32.1435 75.8372 32.7809 75.8807 33.3306H74.7528L74.6807 32.187H74.6519C74.319 32.7522 73.5823 33.4899 72.3388 33.4899C71.2405 33.4899 69.9248 32.882 69.9248 30.4207V26.3245H71.197V30.2038C71.197 31.5355 71.6022 32.4334 72.758 32.4334C73.611 32.4334 74.2033 31.8395 74.4346 31.2751C74.5075 31.087 74.5503 30.8553 74.5503 30.6236V26.3245H75.8225" fill="white"/>
<path d="M90.946 33.0126C90.4834 33.2443 89.5582 33.4759 88.3729 33.4759C85.6266 33.4759 83.5596 31.7384 83.5596 28.5386C83.5596 25.4849 85.6266 23.4146 88.6477 23.4146C89.8617 23.4146 90.6278 23.6743 90.96 23.8485L90.6565 24.8762C90.1799 24.6445 89.5007 24.4712 88.6911 24.4712C86.4075 24.4712 84.8892 25.9335 84.8892 28.4958C84.8892 30.8841 86.2624 32.4187 88.6329 32.4187C89.399 32.4187 90.1799 32.2593 90.686 32.0136" fill="white"/>
<path d="M97.6911 29.7552C96.3032 29.7265 94.7283 29.9722 94.7283 31.3326C94.7283 32.1582 95.2771 32.5493 95.9275 32.5493C96.8388 32.5493 97.4163 31.9701 97.6189 31.3762C97.6624 31.2463 97.6911 31.1017 97.6911 30.9711V29.7552ZM97.8789 33.3306L97.778 32.4475H97.7346C97.3441 32.9978 96.5927 33.49 95.5953 33.49C94.1787 33.49 93.4561 32.491 93.4561 31.478C93.4561 29.784 94.9596 28.8573 97.6624 28.8721V28.7275C97.6624 28.1483 97.5032 27.1058 96.0719 27.1058C95.4215 27.1058 94.7423 27.3087 94.2509 27.6267L93.9621 26.7871C94.5404 26.4108 95.378 26.1644 96.2598 26.1644C98.399 26.1644 98.9198 27.6267 98.9198 29.0315V31.6514C98.9198 32.2593 98.9486 32.8532 99.0355 33.3306" fill="white"/>
<path d="M102.574 26.3237H103.846V33.3306H102.574V26.3237ZM103.99 24.3553C104.005 24.7891 103.687 25.1366 103.181 25.1366C102.733 25.1366 102.415 24.7891 102.415 24.3553C102.415 23.9067 102.747 23.5592 103.21 23.5592C103.687 23.5592 103.99 23.9067 103.99 24.3553Z" fill="white"/>
<path d="M107.399 28.5098C107.399 27.685 107.384 26.976 107.341 26.3245H108.454L108.497 27.6997H108.555C108.873 26.7583 109.639 26.1651 110.492 26.1651C110.637 26.1651 110.738 26.1791 110.853 26.2079V27.4098C110.723 27.381 110.593 27.3663 110.419 27.3663C109.524 27.3663 108.887 28.0465 108.714 29.0019C108.685 29.1761 108.656 29.379 108.656 29.5959V33.3306H107.399" fill="white"/>
<path d="M117.941 29.1473C117.955 28.3365 117.608 27.077 116.177 27.077C114.891 27.077 114.327 28.2642 114.226 29.1473H117.941ZM114.211 30.0592C114.241 31.782 115.339 32.491 116.61 32.491C117.522 32.491 118.07 32.3316 118.548 32.1295L118.764 33.0414C118.316 33.2435 117.55 33.4759 116.437 33.4759C114.283 33.4759 112.997 32.0564 112.997 29.9434C112.997 27.8296 114.241 26.1651 116.279 26.1651C118.562 26.1651 119.17 28.1771 119.17 29.4653C119.17 29.7257 119.14 29.9286 119.126 30.0592" fill="white"/>
<path d="M118.998 12.5469C118.844 12.1338 118.665 11.7265 118.484 11.3141L118.187 10.6014L117.286 11.0263L118.008 13.4906C118.031 13.6182 118.052 13.7458 118.072 13.8742L118.107 15.9172C116.587 15.8176 115.084 16.1518 113.636 15.5372C113.848 14.3988 114.048 13.3223 114.257 12.1987C113.864 12.1079 113.555 12.0364 113.177 11.9493C113.048 12.9202 112.921 13.8218 112.808 14.7256C112.683 15.7253 112.615 15.8338 111.585 15.8729C110.315 15.9216 109.042 15.8744 107.772 15.9201C107.194 15.9408 106.998 15.7548 106.976 15.1735C106.896 13.0575 106.766 10.9437 106.652 8.82917C106.645 8.69785 106.611 8.568 106.59 8.4315C105.456 8.75244 105.437 8.75466 105.552 9.84143C105.726 11.4779 105.912 13.1128 106.129 14.7433C106.2 15.2782 106.126 15.5866 105.511 15.6486C104.18 15.7829 102.854 16.0928 101.525 16.0994C93.3767 16.1429 85.2293 16.1068 77.0811 16.1304C74.8653 16.137 73.3102 15.2642 74.203 12.454C74.2509 12.3034 74.2096 12.1249 74.2096 11.9596C74.1242 11.953 74.0387 11.9464 73.9533 11.9397C73.7448 12.5587 73.5223 13.174 73.3293 13.7982C72.9271 15.1012 73.5312 16.4506 74.8196 16.891C75.4936 17.122 76.2465 17.2098 76.964 17.2127C84.5464 17.2341 92.1288 17.2127 99.7112 17.2341C101.815 17.2408 103.898 17.181 105.931 16.5635C106.093 16.514 106.402 16.5015 106.444 16.5797C106.776 17.1832 107.333 17.0047 107.825 17.0113C108.884 17.0261 109.943 17.0084 111.003 17.0165C111.957 17.0231 112.824 16.832 113.49 15.9149C113.94 17.0821 114.908 16.9936 115.821 17.0113C116.645 17.0283 117.47 17.0032 118.294 17.0194C118.679 17.0268 118.843 16.8874 118.854 16.4912C118.878 15.7157 118.924 14.9396 118.991 14.1671C119.013 13.9148 119.127 13.6462 119.171 13.3991L119.301 13.2773" fill="white"/>
<path d="M116.701 19.8385L117.58 20.7195L118.451 19.8385L117.58 18.9584L116.701 19.8385Z" fill="white"/>
<path d="M114.493 8.77164L113.623 7.89145L112.743 8.77164L113.623 9.65256L114.493 8.77164Z" fill="white"/>
<path d="M88.1465 13.7038C89.0939 13.3548 90.0692 13.1091 91.0482 12.8671C91.4453 12.769 91.309 12.3367 91.2943 12.0851C91.2722 11.7051 90.9701 11.9921 90.8103 12.0083C90.5333 12.0356 90.2652 12.1411 89.9904 12.1994C89.5204 12.299 89.1609 12.1094 88.9171 11.7206C88.8036 11.5398 88.5834 11.3406 88.7926 11.0942C89.102 10.7312 89.4909 10.5446 89.9786 10.6478C90.1613 10.687 90.3484 10.7312 90.5156 10.8116C90.7388 10.9201 90.8051 10.7821 90.8825 10.6301C90.9525 10.4936 90.9532 10.3948 90.828 10.2649C90.0081 9.41352 88.8029 9.57878 88.274 10.6464C87.902 11.3967 87.9948 12.091 88.688 12.696C88.4257 12.8428 88.2099 12.9748 87.9845 13.0885C87.7834 13.1881 87.8239 13.3489 87.8504 13.5105C87.8769 13.6824 87.983 13.7636 88.1465 13.7038Z" fill="white"/>
<path d="M68.8534 9.72413C68.8851 10.2863 68.9448 10.8463 68.9912 11.4078C69.1459 13.2965 69.2998 15.186 69.456 17.091H70.3149C70.1949 14.1479 70.0785 11.2949 69.9613 8.43225C68.8004 8.6772 68.7937 8.6772 68.8534 9.72413Z" fill="white"/>
<path d="M62.6419 8.56799L61.7704 7.68781L60.8916 8.56799L61.7704 9.44892L62.6419 8.56799Z" fill="white"/>
<path d="M60.3353 8.56799L59.4638 7.68781L58.585 8.56799L59.4638 9.44892L60.3353 8.56799Z" fill="white"/>
<path d="M61.0311 15.3336C60.911 15.4206 60.7533 15.4332 60.6207 15.3668C59.7684 14.9352 59.0973 13.8927 58.8469 13.4603C58.771 13.3312 58.7445 13.1814 58.7717 13.0346C58.8719 12.4923 59.2631 11.196 60.7195 11.2661C62.0668 11.331 62.5412 12.4901 62.6981 13.1047C62.757 13.3356 62.7187 13.5813 62.5847 13.7783C62.0712 14.5331 61.364 15.0938 61.0311 15.3336ZM66.6024 8.35404L66.5935 8.33412L65.6919 8.75909L65.9954 9.79569C66.4042 11.8077 66.5545 13.8086 66.4794 15.8176H62.1802C62.6053 14.9809 63.1637 14.2247 63.3714 13.3821C63.6071 12.4252 63.1401 11.5384 62.4027 10.8633C61.4782 10.0156 60.2016 9.93809 59.2734 10.8242C58.7408 11.334 58.3032 12.0437 58.0726 12.7447C57.6579 14.0092 58.6045 14.8511 59.4686 15.8264H54.7282C54.6096 13.3659 54.4918 10.9105 54.3739 8.447C53.2218 8.67203 53.2107 8.67351 53.294 9.7197C53.3956 11.0094 53.5231 12.2961 53.6291 13.585C53.7205 14.7028 53.7964 15.822 53.884 17.0157C54.5713 17.0157 55.2012 17.0165 55.831 17.0157C57.3809 17.0157 58.9412 17.1102 60.4211 16.4823C60.5522 16.427 60.7504 16.4388 60.8852 16.4949C62.8815 17.3241 64.97 16.9095 67.1077 17.0305C67.1696 16.635 67.2514 16.337 67.2565 16.0382C67.2713 15.2303 67.2669 14.4217 67.2735 13.613L67.3442 12.0349C67.3965 11.7604 67.4694 11.4852 67.482 11.2218L67.7074 11.0101L66.6068 8.36585C66.6053 8.36216 66.6039 8.35773 66.6024 8.35404Z" fill="white"/>
<path d="M46.6037 15.411C46.4439 15.5158 46.2428 15.5409 46.0652 15.4686C45.4118 15.2015 44.8173 14.3294 44.5264 13.8432C44.379 13.5975 44.3444 13.3017 44.4328 13.0287C44.5927 12.5366 45.0214 11.8453 46.1684 11.8622C47.9452 11.8888 47.733 13.7392 47.733 13.7392C47.6122 14.6378 46.9603 15.1786 46.6037 15.411ZM50.8675 12.1677C50.8218 12.0349 50.7533 11.9006 50.6723 11.7671C50.2922 11.047 49.7868 10.4302 49.1945 9.95726L49.1437 9.61788L46.7569 8.79376L46.2398 9.83036C46.3061 9.84143 46.3673 9.85692 46.4321 9.8702C47.5179 10.2753 48.5816 10.6523 49.3691 11.4314H49.3699C49.5548 11.6143 49.7249 11.8202 49.8767 12.0533C50.6936 13.312 50.7091 14.6909 50.466 16.2152C49.4303 16.1201 48.4638 16.0315 47.4325 15.9363C48.768 13.72 48.8041 12.4886 47.6365 11.5406C46.7459 10.8175 45.5157 10.8426 44.6619 11.6018C43.4641 12.6664 43.4877 13.7576 44.8284 15.8552H8.86999C8.68067 15.0289 8.53776 14.2675 8.3256 13.526C8.11566 12.7926 7.83499 12.0792 7.56759 11.306C7.16243 11.5347 6.84198 11.7162 6.56279 11.8733C7.06224 13.2087 7.55359 14.4733 7.99853 15.7534C8.09945 16.0433 8.13997 16.4292 8.03389 16.7044C7.39668 18.3644 6.30496 19.5442 4.4589 19.8437C4.07215 19.9072 3.6832 19.9617 3.29498 20.02C3.24931 20.0968 3.2029 20.1735 3.15723 20.2502C3.2611 20.2893 3.36496 20.3306 3.47104 20.3675C5.48211 21.0707 6.5591 20.7187 7.75912 18.9392C8.00737 18.571 8.26888 18.1815 8.38675 17.7631C8.55839 17.153 8.87662 17.0002 9.49247 17.001C20.6992 17.0209 31.9052 17.0261 43.1112 16.998C44.0821 16.9958 45.0516 16.7346 46.024 16.6159C46.2671 16.5863 46.5234 16.6225 46.768 16.6616C48.1942 16.8903 49.6196 17.1294 51.006 17.3581C51.6616 15.4826 51.5157 13.644 50.8638 12.1655" fill="white"/>
<path d="M4.75908 8.56799L3.88836 7.68781L3.00879 8.56799L3.88836 9.44892L4.75908 8.56799Z" fill="white"/>
<path d="M2.45147 8.56799L1.58074 7.68781L0.701172 8.56799L1.58074 9.44892L2.45147 8.56799Z" fill="white"/>
<path d="M0.971187 15.1661C0.971187 15.1661 1.76015 12.7889 3.3248 12.0452L4.90935 15.4841C4.90935 15.4841 2.90712 17.091 0.971187 15.1661ZM5.72777 15.5328C5.3867 14.3198 4.97344 13.1047 4.404 11.984V11.9825L4.40179 11.9803L2.98078 10.1875L2.66181 9.78462L1.93252 10.369L2.60067 11.2218C1.85517 12.2481 1.07727 13.1298 0.526983 14.1361C-0.0932812 15.2701 0.352396 16.3281 1.51705 16.8815C2.75979 17.4717 4.01579 17.3175 5.1716 16.6867C5.4891 16.5133 5.81765 15.8537 5.72777 15.5328Z" fill="white"/>
</g>
<defs>
<linearGradient id="paint0_linear_361_5903" x1="128.055" y1="40.0062" x2="168.056" y2="0.0660804" gradientUnits="userSpaceOnUse">
<stop stop-color="#EE2F2C"/>
<stop offset="0.25" stop-color="#EE2F2C"/>
<stop offset="0.28125" stop-color="#EE302C"/>
<stop offset="0.296875" stop-color="#EE312C"/>
<stop offset="0.3125" stop-color="#EE312C"/>
<stop offset="0.328125" stop-color="#EE322C"/>
<stop offset="0.34375" stop-color="#EE332C"/>
<stop offset="0.359375" stop-color="#EE332C"/>
<stop offset="0.375" stop-color="#EE342B"/>
<stop offset="0.390625" stop-color="#EF352B"/>
<stop offset="0.40625" stop-color="#EF362B"/>
<stop offset="0.414063" stop-color="#EF372B"/>
<stop offset="0.421875" stop-color="#EF372B"/>
<stop offset="0.429687" stop-color="#EF382B"/>
<stop offset="0.4375" stop-color="#EF382B"/>
<stop offset="0.445313" stop-color="#EF392B"/>
<stop offset="0.453125" stop-color="#EF3A2B"/>
<stop offset="0.460937" stop-color="#EF3A2B"/>
<stop offset="0.46875" stop-color="#EF3B2B"/>
<stop offset="0.476563" stop-color="#EF3B2B"/>
<stop offset="0.484375" stop-color="#EF3C2B"/>
<stop offset="0.492188" stop-color="#EF3D2B"/>
<stop offset="0.5" stop-color="#EF3D2A"/>
<stop offset="0.507813" stop-color="#EF3E2A"/>
<stop offset="0.515625" stop-color="#EF3F2A"/>
<stop offset="0.523438" stop-color="#F0402A"/>
<stop offset="0.53125" stop-color="#F0402A"/>
<stop offset="0.539063" stop-color="#F0412A"/>
<stop offset="0.546875" stop-color="#F0422A"/>
<stop offset="0.554687" stop-color="#F0432A"/>
<stop offset="0.5625" stop-color="#F0432A"/>
<stop offset="0.570313" stop-color="#F0442A"/>
<stop offset="0.578125" stop-color="#F0452A"/>
<stop offset="0.585938" stop-color="#F0462A"/>
<stop offset="0.59375" stop-color="#F04729"/>
<stop offset="0.601562" stop-color="#F04829"/>
<stop offset="0.609375" stop-color="#F04929"/>
<stop offset="0.617188" stop-color="#F04929"/>
<stop offset="0.625" stop-color="#F14A29"/>
<stop offset="0.632813" stop-color="#F14B29"/>
<stop offset="0.640625" stop-color="#F14C29"/>
<stop offset="0.648437" stop-color="#F14D29"/>
<stop offset="0.65625" stop-color="#F14E29"/>
<stop offset="0.664062" stop-color="#F14F29"/>
<stop offset="0.667969" stop-color="#F15029"/>
<stop offset="0.671875" stop-color="#F15128"/>
<stop offset="0.675781" stop-color="#F15128"/>
<stop offset="0.679688" stop-color="#F15228"/>
<stop offset="0.683594" stop-color="#F15228"/>
<stop offset="0.6875" stop-color="#F15328"/>
<stop offset="0.691406" stop-color="#F15328"/>
<stop offset="0.695312" stop-color="#F15428"/>
<stop offset="0.699219" stop-color="#F15428"/>
<stop offset="0.703125" stop-color="#F15528"/>
<stop offset="0.707031" stop-color="#F25528"/>
<stop offset="0.710937" stop-color="#F25628"/>
<stop offset="0.714844" stop-color="#F25628"/>
<stop offset="0.71875" stop-color="#F25728"/>
<stop offset="0.722656" stop-color="#F25828"/>
<stop offset="0.726563" stop-color="#F25828"/>
<stop offset="0.730469" stop-color="#F25928"/>
<stop offset="0.734375" stop-color="#F25928"/>
<stop offset="0.738281" stop-color="#F25A27"/>
<stop offset="0.742187" stop-color="#F25A27"/>
<stop offset="0.746094" stop-color="#F25B27"/>
<stop offset="0.75" stop-color="#F25C27"/>
<stop offset="0.753906" stop-color="#F25C27"/>
<stop offset="0.757813" stop-color="#F25D27"/>
<stop offset="0.761719" stop-color="#F25D27"/>
<stop offset="0.765625" stop-color="#F25E27"/>
<stop offset="0.769531" stop-color="#F25E27"/>
<stop offset="0.773437" stop-color="#F25F27"/>
<stop offset="0.777344" stop-color="#F26027"/>
<stop offset="0.78125" stop-color="#F36027"/>
<stop offset="0.785156" stop-color="#F36127"/>
<stop offset="0.789063" stop-color="#F36227"/>
<stop offset="0.792969" stop-color="#F36227"/>
<stop offset="0.796875" stop-color="#F36327"/>
<stop offset="0.800781" stop-color="#F36326"/>
<stop offset="0.804688" stop-color="#F36426"/>
<stop offset="0.808594" stop-color="#F36526"/>
<stop offset="0.8125" stop-color="#F36526"/>
<stop offset="0.816406" stop-color="#F36626"/>
<stop offset="0.820312" stop-color="#F36726"/>
<stop offset="0.824219" stop-color="#F36726"/>
<stop offset="0.828125" stop-color="#F36826"/>
<stop offset="0.832031" stop-color="#F36826"/>
<stop offset="0.835938" stop-color="#F36926"/>
<stop offset="0.839844" stop-color="#F36A26"/>
<stop offset="0.84375" stop-color="#F36A26"/>
<stop offset="0.847656" stop-color="#F46B26"/>
<stop offset="0.851563" stop-color="#F46C26"/>
<stop offset="0.855469" stop-color="#F46C26"/>
<stop offset="0.859375" stop-color="#F46D25"/>
<stop offset="0.863281" stop-color="#F46E25"/>
<stop offset="0.867187" stop-color="#F46F25"/>
<stop offset="0.871094" stop-color="#F46F25"/>
<stop offset="0.875" stop-color="#F47025"/>
<stop offset="0.878906" stop-color="#F47125"/>
<stop offset="0.882813" stop-color="#F47125"/>
<stop offset="0.886719" stop-color="#F47225"/>
<stop offset="0.890625" stop-color="#F47325"/>
<stop offset="0.894531" stop-color="#F47325"/>
<stop offset="0.898438" stop-color="#F47425"/>
<stop offset="0.902344" stop-color="#F47525"/>
<stop offset="0.90625" stop-color="#F47625"/>
<stop offset="0.910156" stop-color="#F57624"/>
<stop offset="0.914063" stop-color="#F57724"/>
<stop offset="0.917969" stop-color="#F57824"/>
<stop offset="0.921875" stop-color="#F57824"/>
<stop offset="0.925781" stop-color="#F57924"/>
<stop offset="0.929688" stop-color="#F57A24"/>
<stop offset="0.933594" stop-color="#F57A24"/>
<stop offset="0.9375" stop-color="#F57B24"/>
<stop offset="1" stop-color="#F57B24"/>
</linearGradient>
<clipPath id="clip0_361_5903">
<rect width="168" height="40" fill="white"/>
</clipPath>
</defs>
</svg>
