<svg width="96" height="40" viewBox="0 0 96 40" fill="none" xmlns="http://www.w3.org/2000/svg">
<g clip-path="url(#clip0_361_5822)">
<path fill-rule="evenodd" clip-rule="evenodd" d="M27.5417 31.1616V26.4949C25.4716 26.6616 23.4016 27.4949 21.8091 28.6616C23.2422 29.9949 25.3124 30.8282 27.5417 31.1616ZM27.5417 23.8282V21.4949H17.9873C18.1465 23.4949 18.9428 25.1616 20.0574 26.6616C22.1276 25.1616 24.6755 23.9949 27.5417 23.8282ZM27.5417 18.9949V16.6616C24.6755 16.4949 22.1276 15.3282 20.0574 13.8282C18.9428 15.3282 18.3059 17.1616 17.9873 18.9949H27.5417ZM27.5417 13.9949V9.32821C25.3124 9.66154 23.4016 10.4949 21.8091 11.8282C23.4016 12.9949 25.3124 13.8282 27.5417 13.9949ZM30.0896 9.32821V13.9949C32.1596 13.8282 34.2299 12.9949 35.8222 11.8282C34.2299 10.4949 32.1596 9.66154 30.0896 9.32821ZM30.0896 16.6616V18.9949H39.644C39.4848 16.9949 38.6886 15.3282 37.5739 13.8282C35.5038 15.3282 32.7966 16.3282 30.0896 16.6616ZM30.0896 21.4949V23.8282C32.956 23.9949 35.5038 25.1616 37.5739 26.6616C38.6886 25.1616 39.3256 23.3282 39.644 21.4949H30.0896ZM30.0896 26.3282V30.9949C32.319 30.6616 34.2299 29.8282 35.8222 28.4949C34.2299 27.3282 32.1596 26.6616 30.0896 26.3282ZM15.2803 20.1616C15.2803 12.6615 21.3313 6.66154 28.8156 6.66154C36.3 6.66154 42.351 12.6615 42.351 20.1616C42.351 27.6616 36.3 33.6616 28.8156 33.6616C21.3313 33.6616 15.2803 27.6616 15.2803 20.1616Z" fill="#F58423"/>
<mask id="mask0_361_5822" style="mask-type:alpha" maskUnits="userSpaceOnUse" x="0" y="0" width="96" height="40">
<path fill-rule="evenodd" clip-rule="evenodd" d="M0 0H95.3846V40H0V0Z" fill="white"/>
</mask>
<g mask="url(#mask0_361_5822)">
<path fill-rule="evenodd" clip-rule="evenodd" d="M5.25491 0H41.0838V3.5H13.6946C11.7837 3.5 10.3506 5 10.3506 6.83333V33.1667C10.3506 35 11.7837 36.5 13.6946 36.5H40.9246V40H5.25491C2.38859 40 0 37.6667 0 34.8333V5.16667C0 2.33333 2.38859 0 5.25491 0ZM61.6258 36.3333C59.7149 36.3333 58.1226 34.8333 58.1226 33V6.83333C58.1226 5 59.5557 3.5 61.4666 3.5H61.6258C63.5366 3.5 64.9698 5 64.9698 6.83333V33.1667C64.9698 34.8333 63.5366 36.3333 61.6258 36.3333ZM78.3459 3.5C76.435 3.5 75.0019 5 75.0019 6.83333V33.1667C75.0019 35 76.435 36.5 78.3459 36.5H79.1421C82.6454 36.5 85.5117 33.1667 85.5117 29.1667C85.5117 25.1667 82.6454 21.8333 79.1421 21.8333H78.3459V18.1667H79.1421C82.6454 18.1667 85.5117 14.8333 85.5117 10.8333C85.5117 6.83333 82.6454 3.5 79.1421 3.5H78.3459ZM44.5872 40V36.5C46.4981 36.5 48.0904 35 48.0904 33.1667V6.83333C48.0904 5 46.6573 3.5 44.7464 3.5V0H84.0786C89.4928 0 93.9515 4.5 93.9515 10C93.9515 13.8333 91.7221 17.3333 88.5373 19C92.5182 20.5 95.3846 24.5 95.3846 29.1667C95.3846 35.1667 90.6074 40 84.8747 40H44.5872Z" fill="white"/>
</g>
</g>
<defs>
<clipPath id="clip0_361_5822">
<rect width="96" height="40" fill="white"/>
</clipPath>
</defs>
</svg>
