<svg width="52" height="40" viewBox="0 0 52 40" fill="none" xmlns="http://www.w3.org/2000/svg">
<mask id="mask0_361_5952" style="mask-type:luminance" maskUnits="userSpaceOnUse" x="1" y="2" width="51" height="36">
<path d="M1.7959 2.32309H51.7954V37.6615H1.7959V2.32309Z" fill="white"/>
</mask>
<g mask="url(#mask0_361_5952)">
<path d="M34.6878 18.7877L31.5923 10.7723L27.5546 19.6216C26.1904 22.4062 21.7276 23.2154 18.6045 23.6616L19.1704 22.4769L28.2061 5.04309H35.2506L40.2977 15.6154L42.5092 20.6308L47.0668 30.6923L43.9254 30.6862L41.4753 30.6708C40.4445 30.6862 39.4381 30.6092 39.0099 29.4985L38.1412 27.3508L36.6852 23.7139L34.6878 18.7877Z" fill="white"/>
</g>
<mask id="mask1_361_5952" style="mask-type:luminance" maskUnits="userSpaceOnUse" x="1" y="2" width="51" height="36">
<path d="M1.7959 2.32309H51.7954V37.6615H1.7959V2.32309Z" fill="white"/>
</mask>
<g mask="url(#mask1_361_5952)">
<path d="M36.7219 23.7508C31.9226 26.24 27.0437 28.7016 21.4583 29.9939C16.2553 31.1969 10.5292 31.3539 6.53433 29.0216C2.93715 26.9293 1.76257 22.8277 1.82986 19.8154C1.87574 17.8431 2.8301 15.0831 4.70515 12.7846C8.19527 8.50156 14.7779 4.79387 20.0207 4.62464C21.8896 4.5631 23.0765 5.18771 23.7861 9.83079C21.8346 9.82464 20.143 10.0769 18.0936 10.8154C16.7936 11.2893 14.319 12.3754 11.4927 14.3785C7.79763 16.9969 5.6901 19.6154 5.46986 22.0985C5.27715 24.28 7.29292 25.5723 10.6362 25.8523C18.5525 26.5323 27.7014 22.7323 34.7245 18.8216L40.3313 15.6493L51.7958 9.38464L51.759 15.2585L42.5459 20.6646L36.7219 23.7508Z" fill="white"/>
</g>
<path d="M1.7959 33.5754H48.3114V37.6615H1.7959V33.5754Z" fill="white"/>
<path d="M49.8714 3.33847L43.2552 6.89232C43.2552 6.89232 40.9794 8.14771 39.5234 8.46155L40.5512 10.8585C40.8571 11.8616 41.9797 12.1969 42.8545 11.7477L51.7404 6.86771V2.32309L49.8714 3.33847Z" fill="white"/>
<path d="M18.3838 6.60614C20.1426 6.69845 23.1066 5.4523 23.7857 9.9723C22.9628 9.71691 21.36 9.93537 20.4454 10.1261" fill="white"/>
</svg>
