<svg width="56" height="40" viewBox="0 0 56 40" fill="none" xmlns="http://www.w3.org/2000/svg">
<g clip-path="url(#clip0_361_5964)">
<path fill-rule="evenodd" clip-rule="evenodd" d="M54.9158 36.377C54.8258 35.833 55.293 35.7037 55.4602 36.2139C55.6938 37.8449 54.1415 38.1276 53.7011 37.3162C53.6106 37.1081 53.4788 37.2488 53.2427 37.439C52.3917 37.9937 51.4085 37.7969 51.0304 36.8254C50.9058 36.3453 50.717 36.4445 50.625 36.649C49.8393 38.0264 46.8655 38.3143 45.9801 37.5412C45.2927 36.8714 45.623 35.7267 46.3551 35.0185C45.9857 36.4092 46.2136 37.1445 47.3764 37.1363C48.1084 37.0596 48.8355 36.9422 49.5543 36.7845C50.3631 36.5275 50.7121 35.8877 50.6013 34.8651C50.4895 33.681 50.3778 32.4967 50.2663 31.3122C50.448 31.0944 50.6836 30.9405 50.8652 30.7227C51.0777 32.3179 51.214 34.2506 51.5027 36.0493C52.047 37.4839 52.9803 37.3275 53.9116 35.9603C54.1621 36.1582 53.8889 36.9701 54.5073 37.0627C54.6504 37.1179 55.045 36.8356 54.9153 36.376L54.9158 36.377Z" fill="white"/>
<path fill-rule="evenodd" clip-rule="evenodd" d="M29.1146 35.947C29.1732 37.1961 28.4972 37.8071 27.4903 37.1087C26.9352 37.4747 26.6723 37.7345 26.1012 37.0064C25.3654 37.6711 24.6734 37.7963 24.0771 36.6173C23.3856 38.0561 22.1647 38.369 21.2896 38.032C21.8841 37.7423 22.4556 37.4081 22.9993 37.0325C23.1435 36.8713 23.2237 36.6633 23.2247 36.4476C23.2257 36.2319 23.1476 36.0232 23.0049 35.8606C22.3474 34.2363 20.9191 32.5858 20.0723 31.255C20.1285 30.9591 20.1848 30.6631 20.241 30.3669C20.8914 30.8166 21.4908 31.335 22.0289 31.913C21.5103 31.913 21.428 32.0352 21.6765 32.275C22.5223 33.4509 23.3743 34.5972 23.683 36.0912C24.0781 35.1535 24.0905 33.4673 23.683 30.9589L24.3241 30.4655C24.498 32.1707 24.5324 33.8871 24.427 35.5978C24.819 36.7907 25.4786 37.0805 26.4978 35.9854C26.6311 37.1317 27.498 36.8469 27.8679 36.0585C28.0789 36.9941 28.4251 36.9921 28.9402 35.8703C29.0029 35.5068 29.1079 35.6213 29.1208 35.9496L29.1146 35.947Z" fill="white"/>
<path fill-rule="evenodd" clip-rule="evenodd" d="M17.9635 32.9928C17.7896 33.0496 17.6548 33.0291 17.4804 33.0859C17.4708 34.1896 17.4612 35.2934 17.4516 36.3975C17.3744 37.284 17.0915 37.4972 16.7828 37.6143C16.8131 35.6152 16.8563 33.501 16.754 31.5009C16.7084 31.4235 16.6922 31.3326 16.7081 31.2444C16.7241 31.1562 16.7711 31.0765 16.8409 31.0198C17.201 30.8055 17.4881 30.5831 17.4506 30.8781C17.549 31.5986 17.7214 32.3072 17.9651 32.9928H17.9635Z" fill="white"/>
<path fill-rule="evenodd" clip-rule="evenodd" d="M15.1018 34.0696C14.5101 34.6616 15.6518 34.9649 15.5355 34.1898C15.3961 34.5211 15.0257 34.4899 15.1018 34.0696Z" fill="white"/>
<path fill-rule="evenodd" clip-rule="evenodd" d="M2.76352 34.6708C2.90553 34.5998 2.7486 33.774 2.76352 33.2556C2.75872 33.0405 2.80709 32.9367 2.90862 32.9442C3.44781 33.091 3.54299 32.6952 3.40201 32.4912C3.2873 32.4465 3.19376 32.3605 3.13999 32.2503C3.08622 32.1401 3.07617 32.0138 3.11184 31.8966C3.08474 31.7565 3.23909 31.6906 3.57489 31.6987C3.58449 31.4912 3.59409 31.2836 3.6037 31.076C3.21062 31.0126 3.05113 31.1271 3.05216 31.3592C3.05216 31.666 2.98732 31.7887 2.8978 31.7836C2.86982 31.7803 2.844 31.767 2.82509 31.7463C2.80618 31.7255 2.79546 31.6986 2.79491 31.6706C2.79491 31.4911 2.78924 31.3127 2.78924 31.1327L2.23771 31.1609C2.12452 31.2192 2.08335 31.6865 2.41212 31.8685C3.07788 32.4115 2.58396 32.5608 2.63181 32.9217C2.47746 33.5051 2.57212 34.5067 2.76043 34.6703L2.76352 34.6708Z" fill="white"/>
<path fill-rule="evenodd" clip-rule="evenodd" d="M9.73061 33.1708V32.9442C9.49101 32.8428 9.22208 32.8333 8.97585 32.9176C8.96608 33.0122 8.98048 33.0828 8.9707 33.1774C9.22247 33.1401 9.47823 33.1379 9.73061 33.1708Z" fill="white"/>
<path fill-rule="evenodd" clip-rule="evenodd" d="M10.3103 31.4983V31.0826C9.53857 31.0438 9.81434 31.5402 9.52673 31.5009C9.27309 31.2964 9.42693 31.032 8.74316 31.1108C8.74316 31.3183 8.77865 31.5259 8.77865 31.7335C9.11564 31.7335 9.32197 31.7887 9.35284 32.0669C9.42693 32.4943 9.7243 32.4248 9.75928 32.0669C9.79015 31.7248 9.90336 31.5351 10.3108 31.4983H10.3103Z" fill="white"/>
<path fill-rule="evenodd" clip-rule="evenodd" d="M15.3318 32.8026C15.4559 32.3136 15.383 31.7957 15.1286 31.3593C14.9151 31.1547 14.7448 31.2785 14.8672 31.5858C14.9897 31.893 15.0756 32.1942 15.1919 32.4984C15.215 32.8011 15.2773 32.9023 15.3318 32.8026Z" fill="white"/>
<path fill-rule="evenodd" clip-rule="evenodd" d="M26.6366 38.0208C26.9087 38.1936 26.6016 38.7162 26.1591 38.5485C26.0662 38.6151 25.9545 38.6509 25.8399 38.6509C25.7253 38.6509 25.6136 38.6151 25.5206 38.5485C25.4017 38.7607 25.2119 38.925 24.9839 39.0129C24.756 39.1008 24.5043 39.1066 24.2725 39.0296C25.3442 38.8102 25.1636 38.3854 25.5494 38.2938C25.8304 38.482 25.9893 38.3409 26.1298 38.1522C26.3119 38.3854 26.4899 38.3675 26.6366 38.0208Z" fill="white"/>
<path fill-rule="evenodd" clip-rule="evenodd" d="M42.0651 37.8976L41.602 38.4089L41.0217 37.871L40.5586 38.4089L41.1683 38.9468L41.6617 38.5505L42.2132 38.9749L42.7066 38.4089L42.0681 37.8976H42.0651Z" fill="white"/>
<path fill-rule="evenodd" clip-rule="evenodd" d="M30.5976 32.5015C30.8667 32.4059 30.6835 32.1502 30.3974 32.2653C30.2138 32.3599 30.0399 32.4642 29.8562 32.5582C29.6442 32.7178 29.7235 32.8139 30.0322 32.7566C30.1939 32.6219 30.3896 32.5335 30.5981 32.501L30.5976 32.5015Z" fill="white"/>
<path fill-rule="evenodd" clip-rule="evenodd" d="M49.1182 33.4821C49.7243 33.2843 49.1902 32.8808 48.8568 33.0859C48.4601 33.4162 48.0635 33.7582 47.6668 34.0885C47.3622 34.4413 47.3231 34.7358 47.87 34.8406C48.296 34.7895 48.632 34.7869 48.3331 35.152C48.0519 35.2926 47.7467 35.3793 47.4332 35.4076C47.0731 35.4981 47.0839 35.8371 47.5783 35.7757C47.8591 35.7855 48.1376 35.7229 48.3868 35.5939C48.636 35.465 48.8474 35.2742 49.0004 35.04C49.2396 34.678 49.111 34.1667 48.7483 34.2148C48.2338 34.2291 48.2209 34.1095 48.3619 33.9643L49.1166 33.4832L49.1182 33.4821Z" fill="white"/>
<path fill-rule="evenodd" clip-rule="evenodd" d="M51.9344 32.2647C52.2868 32.1374 52.8759 32.3322 52.8343 31.8404C52.5343 31.7673 52.2343 31.8854 51.9344 31.8123C51.9971 31.6742 52.0994 31.5575 52.2286 31.4769C52.3577 31.3963 52.5079 31.3554 52.6603 31.3593H53.357C53.2808 31.9329 53.0961 32.2714 52.827 32.3997C52.5899 32.5127 51.9071 32.6324 51.9344 32.2653V32.2647Z" fill="white"/>
<path fill-rule="evenodd" clip-rule="evenodd" d="M54.8794 31.6139L54.9242 32.1517L52.3229 33.7935L52.2539 33.3405L54.8779 31.6139H54.8794Z" fill="white"/>
<path fill-rule="evenodd" clip-rule="evenodd" d="M54.6633 38.0673L55.3321 38.6052L54.8099 39.1165L54.2002 38.5505L54.6633 38.0694V38.0673Z" fill="white"/>
<path fill-rule="evenodd" clip-rule="evenodd" d="M13.91 32.8594L13.4469 30.7631C13.4006 30.3377 13.2699 30.4563 13.1274 30.6501C13.0083 30.7751 12.9103 30.9184 12.8373 31.0745C12.7899 32.6656 12.972 33.408 12.9535 36.2727C12.9839 36.3479 12.5419 36.3417 12.2569 36.4522C12.9113 35.1039 12.1473 33.8446 10.3702 34.6407C9.71302 35.1865 9.12694 35.8117 8.62558 36.5018C7.75093 35.831 7.02086 35.8371 6.16834 36.7303C5.55608 37.3362 4.83578 37.8955 4.18752 38.4902C3.26502 39.1579 2.8277 38.5617 3.20071 37.0182C4.32057 36.7668 5.39278 36.3391 6.37671 35.7512C7.15566 35.3473 7.27501 33.9417 6.39368 34.0179L5.20365 33.9331C4.85688 33.9167 4.5631 33.7797 4.93714 33.3338C5.59055 32.5705 6.33451 32.0178 6.742 32.9141C6.78367 33.0434 6.83667 33.1452 6.97404 33.0557C7.37535 31.8981 7.01313 31.4896 6.10299 31.7263C5.65544 31.9367 5.26167 32.2451 4.95122 32.6284C4.64076 33.0116 4.4217 33.4598 4.31048 33.9392C4.26726 34.4628 4.35731 34.7782 4.9711 34.6985C5.9116 34.6284 6.48835 34.5364 6.2522 35.1893C5.05599 35.6346 2.8205 36.6015 1.74931 36.0002C0.852027 35.4603 0.827845 34.427 1.401 33.0567C-0.341094 35.2409 0.70437 36.7789 2.79426 37.1041C2.34407 38.9375 3.09472 39.9274 4.18752 39.2269C4.93876 38.732 5.60512 38.1204 6.16113 37.4154C7.07333 36.4951 7.99583 36.874 8.08896 37.5003C8.02935 37.5811 7.98937 37.6745 7.97214 37.7733C7.95491 37.872 7.96091 37.9733 7.98966 38.0694C8.21141 38.2667 8.16922 37.7739 8.36679 37.5852C9.80625 37.8273 11.2852 37.6605 12.6335 37.1041C12.8054 37.0601 13.0184 36.9236 13.1218 37.2457C13.4356 38.0413 14.1508 38.1118 14.638 37.3285C15.0882 36.6638 14.8741 35.8095 14.1647 35.9337C13.6826 35.9659 13.5524 36.0181 13.5622 35.5472C13.543 34.5928 13.5236 33.6399 13.504 32.6886C13.7983 32.8999 13.9338 32.9565 13.9105 32.8583L13.91 32.8594ZM13.8308 36.6025C13.9135 36.6023 13.9948 36.6239 14.0665 36.665C14.1381 36.7061 14.1976 36.7653 14.2388 36.8367C14.3025 37.0197 14.1667 37.1751 13.9028 37.0355C13.7098 36.8361 13.7381 36.7078 13.8308 36.6025ZM9.0629 36.5105C8.8571 36.7361 8.9257 36.8682 9.2687 36.9067C10.0701 36.9552 10.8724 36.8296 11.62 36.5386C12.1422 36.2957 12.1221 35.8836 11.6714 35.3948C11.1533 34.9347 10.7057 35.0512 10.1958 35.4066C9.77291 35.7253 9.39255 36.0962 9.06392 36.5105H9.0629Z" fill="white"/>
<path fill-rule="evenodd" clip-rule="evenodd" d="M8.42417 34.5011C9.039 33.6871 8.17207 33.75 7.96113 34.02C7.47647 34.5548 7.75121 35.1596 8.42417 34.5011ZM8.05167 34.4116C8.18647 34.4761 8.34442 34.2971 8.25747 34.1831C8.12113 34.1089 7.94878 34.3089 8.05167 34.4116Z" fill="white"/>
<path fill-rule="evenodd" clip-rule="evenodd" d="M18.7123 34.7302C18.8543 34.6591 18.7122 33.8334 18.7256 33.3149C18.721 33.1002 18.756 32.9959 18.8574 33.0035C19.4161 33.1503 19.5072 32.7546 19.3508 32.5506C19.2362 32.5058 19.1427 32.4199 19.0889 32.3098C19.0352 32.1997 19.025 32.0736 19.0606 31.9564C19.0335 31.816 19.1878 31.7499 19.5236 31.7581C19.5851 31.5561 19.5951 31.3421 19.5525 31.1353C19.1594 31.0719 18.9999 31.1864 19.0009 31.4186C19.0009 31.7253 18.9361 31.848 18.8466 31.8429C18.8186 31.8396 18.7927 31.8263 18.7738 31.8056C18.7549 31.7848 18.7442 31.7579 18.7436 31.7299C18.7436 31.5505 18.738 31.372 18.738 31.1921C18.5543 31.2018 18.331 31.211 18.1473 31.2202C18.0342 31.2785 17.9822 31.8337 18.3609 31.9278C19.0266 32.4708 18.4931 32.6201 18.5414 32.981C18.3871 33.5644 18.5209 34.566 18.7097 34.7297L18.7123 34.7302Z" fill="white"/>
<path fill-rule="evenodd" clip-rule="evenodd" d="M11.9741 31.961C12.0556 31.6396 12.0076 31.2993 11.8403 31.0126C11.6999 30.8797 11.5883 30.9615 11.6685 31.1614C11.7488 31.3613 11.8054 31.5612 11.882 31.7611C11.8969 31.96 11.9381 32.0265 11.9741 31.961Z" fill="white"/>
<path fill-rule="evenodd" clip-rule="evenodd" d="M20.4701 36.4537C20.6138 36.2768 20.6952 36.0581 20.7022 35.8309C20.9927 35.818 21.2837 35.8274 21.5727 35.8591C21.5892 35.3776 21.7378 34.9098 22.0023 34.5062C20.4861 33.5051 19.4298 33.5598 19.541 35.4347C18.955 35.8535 18.3926 36.2865 18.5542 37.1613C18.9941 37.2477 19.6768 37.1485 20.2376 37.2181C20.3482 37.305 20.3832 37.4257 19.8893 37.7841C18.2758 38.5909 16.9772 38.846 16.0578 38.4349C15.2933 37.9497 15.4512 37.1235 16.029 36.1423C14.8575 36.7436 14.2684 38.7744 16.1159 39.3123C17.8863 39.7321 20.0714 38.7499 20.8493 37.5576C21.1858 37.0545 20.979 36.7768 20.3863 36.6234C19.595 36.5324 18.9827 36.7129 19.4864 36.1991C20.0323 35.8412 20.3904 35.8657 20.4732 36.4547L20.4701 36.4537ZM20.8776 35.2726C21.2584 35.2116 21.2927 35.0654 20.9805 34.8339C20.5082 34.6039 20.1851 34.6044 20.0405 34.8851C19.9994 35.2731 20.3806 35.3212 20.8792 35.2742L20.8776 35.2726Z" fill="white"/>
<path fill-rule="evenodd" clip-rule="evenodd" d="M44.6968 36.1321H43.9008C43.2099 36.128 43.0915 35.6142 43.197 34.7844C43.5262 33.9249 44.0901 33.8988 44.6545 34.4577C44.8614 34.6487 45.0217 34.884 45.1233 35.1458C45.2249 35.4076 45.2652 35.6889 45.2411 35.9685C45.3148 36.3205 45.3005 36.6852 45.1994 37.0304C44.9669 37.894 43.1414 37.9456 42.8121 37.1531C42.7833 36.9827 42.6437 36.9418 42.3933 37.0304C41.0224 37.5495 39.5468 37.737 38.0885 37.5775C37.9558 37.8681 37.7935 38.1444 37.6044 38.4022C37.5478 38.1619 37.8364 37.7258 37.8616 37.4466C37.6713 37.2574 37.6172 36.9952 37.3765 37.0545C37.2443 37.2534 37.0634 37.4156 36.8506 37.5257C36.6378 37.6358 36.4003 37.6902 36.1606 37.6837C35.9208 37.6772 35.6866 37.61 35.4802 37.4886C35.2738 37.3671 35.102 37.1954 34.981 36.9895C34.8853 36.8305 34.7752 36.8602 34.7124 37.0468C33.3315 39.252 30.6103 39.8026 29.4949 38.5009C29.5916 38.6154 28.6331 38.6374 27.7358 38.664C28.4829 38.3572 29.4336 38.0249 29.4275 37.9042C29.4055 37.4627 29.4787 37.0216 29.6419 36.6104C29.8052 36.1992 30.0548 35.8273 30.3742 35.5196C30.4549 35.7665 29.9775 36.4644 29.9548 37.3858C29.9137 37.621 30.067 37.5903 30.2476 37.5223C30.8722 37.0744 31.1737 36.6439 31.0003 36.2395C30.7019 35.2706 29.8807 34.3339 29.021 33.3328C28.2258 32.8006 27.5475 32.1136 27.0273 31.3132L27.4214 30.4287C27.9047 30.8723 28.3542 31.3508 28.7663 31.8603C28.8706 31.9856 28.9981 32.0897 29.1419 32.1671H28.7977C28.7797 32.2376 28.8456 32.3972 29.18 32.594C29.9399 33.2382 30.5861 34.0041 31.0919 34.86C31.2884 35.1489 31.3255 35.0211 31.3455 34.8334C31.483 33.6623 31.3822 32.4756 31.0492 31.3439C31.2063 31.0163 31.4178 30.7173 31.6748 30.4594L32.269 32.8686C32 32.8425 31.7762 32.8757 31.8626 33.3262C32.177 36.3939 31.4829 37.5837 30.422 38.2304C30.7878 38.8317 33.6145 38.1594 34.644 36.3755C34.5816 34.6269 34.519 32.8784 34.4562 31.1302L35.0818 30.5202C35.1758 32.2283 35.2696 33.9361 35.3633 35.6438C35.7748 37.7534 37.2443 36.6623 37.803 35.8269C37.9443 36.112 38.1209 36.3784 38.3288 36.6199C39.2132 35.2 39.8996 34.3764 41.21 34.4566C41.9169 34.5302 42.2611 34.9919 41.9936 36.1014C41.7831 36.7615 42.4196 36.4082 42.7735 36.1137C42.9793 36.737 43.3446 37.2779 44.7965 36.8612C45.1788 36.3959 44.9566 36.2129 44.6937 36.1326L44.6968 36.1321ZM38.902 36.5217C38.5933 36.7944 38.6523 36.9137 39.0789 36.8796C39.7521 36.8266 40.4203 36.7232 41.0778 36.5703C41.2043 36.5313 41.3156 36.4543 41.3964 36.35C41.4773 36.2457 41.5237 36.1191 41.5293 35.9875C41.535 35.856 41.4995 35.7259 41.4279 35.6151C41.3563 35.5044 41.252 35.4183 41.1292 35.3688C40.2489 35.0109 39.5775 35.7742 38.903 36.5207L38.902 36.5217ZM43.9224 35.4158C44.0768 35.4158 44.1797 35.4158 44.2131 35.175C44.2131 35.0589 44.1128 34.9459 43.8931 34.9541C43.831 34.9612 43.7739 34.9916 43.7337 35.0391C43.6934 35.0867 43.6729 35.1477 43.6765 35.2097C43.6811 35.2818 43.6672 35.4199 43.9224 35.4143V35.4158Z" fill="white"/>
<path fill-rule="evenodd" clip-rule="evenodd" d="M52.8893 33.8364L53.5196 34.3835L53.0252 34.9204L52.3877 34.3728L52.8893 33.8364Z" fill="white"/>
<path fill-rule="evenodd" clip-rule="evenodd" d="M43.7643 32.0658L44.3946 32.6129L43.9002 33.1498L43.2627 32.6022L43.7643 32.0664V32.0658Z" fill="white"/>
<path fill-rule="evenodd" clip-rule="evenodd" d="M37.7416 31.5403V31.1138C36.9488 31.074 37.2328 31.5832 36.9379 31.5428C36.6781 31.3311 36.835 31.0617 36.1338 31.143C36.1338 31.3562 36.1703 31.5689 36.1698 31.7816C36.5156 31.7816 36.727 31.8378 36.7589 32.1236C36.8345 32.5623 37.1396 32.4912 37.1756 32.1236C37.207 31.7724 37.3233 31.5781 37.7416 31.5403Z" fill="white"/>
<path fill-rule="evenodd" clip-rule="evenodd" d="M25.7767 33.7147C25.8899 33.6605 25.7767 33.0322 25.787 32.6375C25.7834 32.4738 25.8111 32.3946 25.8898 32.4002C26.3339 32.5122 26.4043 32.2105 26.2824 32.0556C26.1193 31.96 25.9845 31.8465 26.0514 31.6031C26.0298 31.4964 26.1529 31.4462 26.4208 31.4523C26.4698 31.299 26.4778 31.1356 26.444 30.9783C26.1312 30.9303 26.0046 31.0162 26.0051 31.1936C26.0051 31.4288 25.9536 31.5203 25.8832 31.5167C25.8615 31.5145 25.8413 31.5046 25.8264 31.4888C25.8114 31.4731 25.8028 31.4525 25.8019 31.4308C25.8019 31.2943 25.7972 31.1578 25.7972 31.0218C25.6511 31.029 25.4736 31.0361 25.3275 31.0433C25.2957 31.0878 25.2747 31.1391 25.2661 31.193C25.2575 31.247 25.2616 31.3022 25.278 31.3543C25.2945 31.4064 25.3228 31.4541 25.3609 31.4935C25.3989 31.533 25.4456 31.5631 25.4973 31.5817C26.0267 31.9948 25.6002 32.1088 25.6409 32.3834C25.5306 32.8286 25.5778 33.298 25.7746 33.7127L25.7767 33.7147Z" fill="white"/>
<path fill-rule="evenodd" clip-rule="evenodd" d="M25.9267 34.1667C25.3119 34.9807 26.1788 34.9178 26.3898 34.6479C26.8749 34.1131 26.5997 33.5082 25.9267 34.1667ZM26.2992 34.2562C26.1644 34.1918 26.0065 34.3702 26.0934 34.4847C26.2298 34.5589 26.4021 34.3585 26.2992 34.2562Z" fill="white"/>
<path fill-rule="evenodd" clip-rule="evenodd" d="M42.1927 33.7342C42.8076 32.9202 41.9406 32.9831 41.7297 33.2531C41.245 33.7879 41.5198 34.3927 42.1927 33.7342ZM41.8202 33.6447C41.955 33.7091 42.113 33.5307 42.0261 33.4161C41.8897 33.342 41.7173 33.5419 41.8202 33.6447Z" fill="white"/>
<path fill-rule="evenodd" clip-rule="evenodd" d="M49.5995 32.3133C49.6885 32.1703 49.7344 32.005 49.7316 31.8368C49.7289 31.6687 49.6777 31.5049 49.5841 31.3649C49.404 31.2314 49.2239 31.3137 49.3052 31.5137C49.3865 31.7136 49.4298 31.9135 49.5033 32.1134C49.4879 32.3123 49.5352 32.3787 49.5995 32.3133Z" fill="white"/>
<path fill-rule="evenodd" clip-rule="evenodd" d="M54.7377 34.0251C54.8267 33.882 54.8724 33.7165 54.8696 33.5483C54.8668 33.3801 54.8155 33.2163 54.7218 33.0762C54.5422 32.9432 54.3616 33.025 54.4429 33.2249C54.5242 33.4248 54.5674 33.6248 54.641 33.8247C54.6255 34.0236 54.6729 34.09 54.7372 34.0246L54.7377 34.0251Z" fill="white"/>
<path fill-rule="evenodd" clip-rule="evenodd" d="M37.9169 34.8969C38.0059 34.7539 38.0518 34.5885 38.0491 34.4204C38.0463 34.2523 37.9951 34.0885 37.9014 33.9484C37.7219 33.8155 37.5413 33.8973 37.6226 34.0972C37.7039 34.2971 37.7471 34.497 37.8207 34.6969C37.8052 34.8958 37.8526 34.9623 37.9169 34.8969Z" fill="white"/>
<path fill-rule="evenodd" clip-rule="evenodd" d="M33.7083 32.9928C33.554 33.0496 33.4315 33.0291 33.2751 33.0859C33.2665 34.1896 33.2578 35.2934 33.2489 36.3975C33.1799 37.284 32.9283 37.4972 32.6505 37.6143C32.6778 35.6152 32.7164 33.501 32.6243 31.5009C32.5836 31.4229 32.5693 31.3341 32.5834 31.2475C32.5975 31.1608 32.6392 31.081 32.7025 31.0198C33.0261 30.8055 33.2828 30.5831 33.2489 30.8781C33.3357 31.5956 33.4899 32.3035 33.7083 32.9928Z" fill="white"/>
<path fill-rule="evenodd" clip-rule="evenodd" d="M36.0963 33.3947C35.7876 33.6764 35.8761 34.0195 36.3392 33.8686C38.2617 32.9628 40.2832 32.281 42.3634 31.8368C42.7647 31.666 42.5908 31.2688 42.1885 31.3429C40.0923 31.8175 38.0509 32.5053 36.0963 33.3952V33.3947Z" fill="white"/>
<path fill-rule="evenodd" clip-rule="evenodd" d="M47.3796 31.7264C48.0155 31.7499 47.8128 31.2273 47.4542 31.3342C47.2304 31.4053 47.0128 31.8245 46.8106 31.5985C46.6428 31.2672 46.4371 31.1912 46.1932 31.3705C46.1552 31.4234 46.1389 31.4886 46.1476 31.553C46.1563 31.6174 46.1893 31.6761 46.24 31.7171C46.3241 31.8112 46.4145 31.8995 46.5106 31.9815C46.6007 32.1609 46.3177 32.3491 46.1937 32.6288C45.9882 32.9023 45.6838 33.0856 45.3448 33.1401C45.2933 33.1912 45.1544 33.2214 45.4477 33.3497C45.7687 33.3195 45.9853 33.4289 46.1381 33.2403C46.3877 33.0093 46.5766 32.7213 46.6886 32.4012C46.7665 32.2462 46.8319 32.237 46.8847 32.3736C46.9752 32.5807 47.0653 32.7275 47.1553 32.4468C47.1693 32.192 47.2467 31.9446 47.3796 31.7264Z" fill="white"/>
<path fill-rule="evenodd" clip-rule="evenodd" d="M30.3847 31.3971C30.5339 31.256 30.3425 31.1113 30.1995 31.2565C30.059 31.3838 29.9494 31.4901 29.809 31.6175C29.6613 31.7882 29.7061 31.9452 29.9222 31.9483C30.0539 31.9656 30.0812 32.0316 29.9222 32.1088L29.6855 32.1691C29.5708 32.1972 29.5435 32.2811 29.7061 32.2893C30.1728 32.4345 30.6384 31.8005 30.272 31.6578C30.1215 31.6544 30.094 31.5977 30.1897 31.4876C30.2634 31.4805 30.3324 31.4486 30.3852 31.3971H30.3847Z" fill="white"/>
<path fill-rule="evenodd" clip-rule="evenodd" d="M23.3306 31.3322C23.3857 31.369 23.3928 31.5239 23.3928 31.6967C22.996 31.9227 22.599 32.1623 22.2018 32.4156C22.1252 32.339 22.0684 32.2451 22.0361 32.142C22.4515 31.8474 22.8837 31.577 23.3306 31.3322Z" fill="white"/>
<path fill-rule="evenodd" clip-rule="evenodd" d="M21.0781 16.7789C21.1249 15.3739 22.0212 15.7533 22.0171 15.0405C22.0429 14.7483 22.154 14.4699 22.3368 14.2396C22.5196 14.0092 22.7661 13.837 23.0461 13.7439C23.5055 13.5834 23.7854 13.1753 23.7458 12.3261C23.7547 10.447 23.7636 8.5678 23.7725 6.68865C23.859 5.84043 23.4494 5.81946 22.9663 5.98716C23.0481 5.32709 23.4685 4.99629 23.9871 5.08935C24.2011 3.48902 24.8432 3.89907 25.2733 3.47317C25.239 7.48609 25.2047 11.4992 25.1704 15.5124L26.0183 15.4986C26.0567 11.5382 26.095 7.57778 26.133 3.61735C26.1968 2.94245 25.6314 2.99563 25.2862 3.16589C25.3015 2.89592 25.4237 2.64297 25.6262 2.46235C25.8287 2.28173 26.0949 2.18816 26.3666 2.20211C26.4243 0.816012 27.2567 0.835952 27.5757 0.57673C27.5417 6.62832 27.5078 12.8006 27.4728 18.8522C27.534 19.4995 28.632 19.6002 28.6726 18.8522C28.705 12.7653 28.7374 6.59202 28.7693 0.504639C29.3512 0.82317 30.0283 0.880945 30.0803 2.24301C30.6462 2.0748 30.9734 2.51144 31.1401 3.22366C30.6138 2.85809 30.2238 2.98182 30.3056 3.59486C30.2773 8.02362 30.2496 12.3425 30.2213 16.7712C31.134 17.1291 31.3979 18.5684 30.1749 18.8338C31.1525 19.4442 30.7527 20.746 29.8663 20.6279C29.7279 21.7174 28.5085 21.6699 27.9971 22.6863C27.6668 21.766 26.3301 21.5758 26.2231 20.6923C25.1113 20.542 25.1174 19.457 25.9062 18.8215C24.6096 18.2545 25.1231 17.1726 25.9962 16.7712C24.375 16.7789 22.7281 16.7671 21.0797 16.7789H21.0781ZM31.1726 3.47675C31.5775 3.83465 32.2659 3.64803 32.3827 5.12667C33.0793 5.07554 33.2846 5.436 33.4554 6.11754C33.3982 6.06004 33.3288 6.01603 33.2523 5.98879C33.1757 5.96155 33.094 5.95176 33.0131 5.96015C32.9323 5.96855 32.8543 5.99491 32.7851 6.03729C32.7159 6.07967 32.6571 6.13698 32.6132 6.20497C32.5909 8.33636 32.5687 10.4676 32.5468 12.5986C32.5895 13.6723 32.91 13.6125 33.5886 14.0609C33.8079 14.2385 33.9808 14.4659 34.0928 14.7241C34.2047 14.9822 34.2524 15.2633 34.2318 15.5436C34.7097 15.5948 35.0292 15.9649 35.1183 16.7814H31.0172C31.069 12.3503 31.1204 7.91523 31.1715 3.47624L31.1726 3.47675ZM32.5005 14.813L32.4871 15.5825L33.2161 15.5697C33.1911 15.3852 33.1087 15.213 32.9803 15.0774C32.852 14.9417 32.6843 14.8493 32.5005 14.813ZM23.6635 14.7429V15.5175L23.008 15.4991C23.0095 15.3165 23.0763 15.1402 23.1963 15.0019C23.3163 14.8635 23.4819 14.7714 23.6635 14.7429Z" fill="white"/>
<path fill-rule="evenodd" clip-rule="evenodd" d="M24.2777 16.8428C22.2444 18.5449 22.1096 20.6774 22.4209 22.4393C24.4573 21.0384 25.175 19.2049 24.5751 16.8428C25.0863 17.9681 25.1823 19.2365 24.8463 20.4252C24.5104 21.6139 23.7639 22.647 22.7378 23.3433C23.7776 25.5459 25.619 26.592 28.1231 26.68C29.1806 26.6475 30.2096 26.332 31.1017 25.7667C31.9938 25.2013 32.7157 24.4072 33.1914 23.4681C32.1882 22.7235 31.4715 21.6604 31.1603 20.4552C30.8491 19.25 30.9622 17.9753 31.4807 16.8428C30.9847 19.4452 31.6144 21.4285 33.603 22.5641C33.9117 20.5138 33.6632 18.7453 31.863 16.8428C34.5229 18.1849 34.7693 21.6013 34.6165 23.0294C37.2281 23.5984 39.3155 22.9358 40.6362 20.4729C42.2219 16.0247 38.8514 13.3149 35.2195 13.6728C38.9074 12.708 43.7273 15.7952 41.9353 21.157C40.4947 24.2304 37.3851 25.3496 34.2903 24.0673C33.0411 27.4995 29.9248 28.6177 27.2793 28.4746C24.3358 28.0405 22.513 26.4499 21.6198 23.9011C18.9871 25.2504 14.4138 23.8065 13.7218 19.7847C13.2587 14.8897 17.3279 12.8364 20.7333 13.5895C16.7583 13.2081 13.8879 16.5135 15.4536 20.3252C15.9706 21.39 16.8608 22.2309 17.9571 22.6902C19.0535 23.1494 20.2808 23.1955 21.4089 22.8197C20.9186 20.2679 22.4826 17.5652 24.2793 16.8377L24.2777 16.8428Z" fill="white"/>
</g>
<defs>
<clipPath id="clip0_361_5964">
<rect width="56" height="40" fill="white"/>
</clipPath>
</defs>
</svg>
