<svg width="165" height="40" viewBox="0 0 165 40" fill="none" xmlns="http://www.w3.org/2000/svg">
<path d="M153.222 22.4115L154.878 23.278C154.619 23.6101 154.446 23.8411 154.331 23.9711C154.072 24.2599 153.856 24.4476 153.668 24.5343L152.027 23.7112L152.589 23.018C152.805 22.7725 153.021 22.5704 153.222 22.4115ZM158.247 28.0722L161.213 28.0866C161.141 27.4801 160.81 26.8736 160.22 26.2816L161.141 24.6642C161.443 24.852 161.731 25.2419 162.005 25.8772C162.264 26.4693 162.408 26.9458 162.408 27.3213C162.408 27.9567 162.221 28.7798 161.846 29.7906H158.247H157.671H156.145H155.699H154.964C154.417 29.7906 154.043 29.444 153.841 28.7509L153.237 29.7906H151.149H150.717H149.119H148.615H147.117H146.585H144.972L144.785 29.5595V28.7653L144.195 29.805H138.493C138.004 29.805 137.586 29.6029 137.255 29.1985C136.953 28.8231 136.794 28.3899 136.794 27.8989C136.794 27.6101 136.866 27.2058 137.024 26.7003C137.197 26.1372 137.37 25.7906 137.543 25.6462L137.586 25.8339L137.428 26.8303C137.399 27.0758 137.471 27.3502 137.658 27.639C137.86 27.9567 138.09 28.1011 138.335 28.1011H144.756L144.209 23.8845L144.742 23.0036C144.943 22.6715 145.145 22.4115 145.346 22.1949C145.462 22.4837 145.591 23.3646 145.735 24.8664C145.807 25.8339 145.894 26.8159 145.98 27.7834L146.326 28.0866H146.585L148.615 28.0722H149.119H151.149L153.64 28.0866C153.697 27.9422 153.726 27.6823 153.726 27.3213C153.726 26.9891 153.755 26.7725 153.784 26.6859C153.884 26.4837 154.057 26.2527 154.302 25.9928C154.504 25.7906 154.72 25.5884 154.921 25.3863V26.2671C154.921 26.3826 154.892 26.5848 154.849 26.8303C154.792 27.0902 154.777 27.278 154.777 27.3935C154.777 27.7545 155.065 27.9855 155.627 28.0722H158.247ZM143.158 22.6715V22.7581C143.158 22.9169 142.985 23.2491 142.64 23.7545C142.381 23.8122 142.121 23.87 141.848 23.9422C141.545 24.0289 141.286 24.1299 141.099 24.231C141.243 24.3754 141.574 24.4476 142.093 24.4476C142.481 24.4621 142.683 24.6065 142.683 24.8664C142.683 25.3574 142.467 25.7617 142.035 26.065C141.646 26.3393 141.2 26.4837 140.667 26.4837C140.091 26.4837 139.659 26.3971 139.357 26.2527C139.458 26.2094 139.789 26.1227 140.336 25.9639C140.739 25.8484 141.056 25.7184 141.272 25.5884L140.451 25.4729C140.091 25.4007 139.918 25.2419 139.918 24.9675C139.918 24.5487 140.35 24.0577 141.2 23.509C141.992 23.0036 142.64 22.7292 143.158 22.6715ZM133.281 22.8447C133.598 24.592 133.756 26.0361 133.756 27.148C133.756 28.2599 133.454 29.1985 132.849 29.935L132.144 24.9242C132.129 24.7798 132.288 24.4332 132.604 23.8845C132.864 23.4512 133.079 23.1047 133.281 22.8447ZM123.937 22.296L125.348 23.0325C124.844 23.7256 124.498 24.0722 124.326 24.0722C124.254 24.0722 123.793 23.8411 122.943 23.379C122.771 23.5523 122.526 23.7689 122.209 24.0433C122.079 24.0289 121.849 23.9278 121.504 23.7545C121.216 23.5956 121 23.4512 120.827 23.3213C121.028 23.0613 121.187 22.8881 121.316 22.7725C121.504 22.5704 121.691 22.4115 121.864 22.296C122.483 22.7437 122.9 22.9747 123.087 22.9747C123.131 22.9747 123.274 22.8736 123.505 22.6715C123.793 22.4404 123.937 22.3104 123.937 22.296ZM130.243 23.3068C130.329 23.3646 130.747 23.5812 131.51 23.9711C131.395 24.1733 131.179 24.4187 130.891 24.7364C130.574 25.0686 130.358 25.3141 130.257 25.4729L130.243 25.6462L130.416 27.6678C130.445 27.9133 130.387 28.3177 130.243 28.852C130.07 29.4729 129.898 29.7906 129.696 29.7906H127.983H127.536H125.909H125.434H124.757C124.196 29.7906 123.807 29.444 123.606 28.7509L123.001 29.7906H120.913H120.496H118.912H118.379H116.695L116.22 28.9819C116.076 29.2419 115.917 29.5162 115.701 29.7906H113.34H112.865H111.31H110.806H109.812C109.755 29.8339 109.668 29.9783 109.568 30.2094C109.481 30.3971 109.395 30.5126 109.294 30.527L106.227 28.852C106.127 28.8953 106.069 28.9964 106.026 29.1697C105.954 29.3863 105.911 29.5162 105.867 29.574C105.767 29.7184 105.594 29.7906 105.349 29.7906H104.96H104.485H102.973H102.412H101.706C101.246 29.7906 100.886 29.444 100.627 28.7509L100.022 29.7906H96.9551C96.768 29.7906 96.552 29.7184 96.2928 29.574C95.7601 30.4404 95.4146 30.9891 95.2274 31.2058C94.6947 31.8411 94.1619 32.1588 93.6148 32.1588C93.2261 32.1588 92.607 31.9711 91.7719 31.5956C90.908 31.2202 90.3897 30.8881 90.2169 30.5993C90.3753 30.6137 90.62 30.7003 90.9656 30.8592C91.268 30.9891 91.5559 31.0613 91.8295 31.0613C92.1894 31.0613 92.8805 30.787 93.8884 30.2382C94.9682 29.6606 95.4433 29.213 95.3138 28.8808C95.213 28.6498 94.8962 28.2021 94.3779 27.5234L95.285 26.1372L96.1344 27.3213C96.5232 27.8122 96.9119 28.0577 97.3151 28.0577H100.411C100.468 27.9422 100.483 27.6678 100.483 27.2346C100.483 26.8736 100.627 26.5271 100.886 26.1949L101.678 25.3863L101.721 25.7761L101.548 27.379C101.548 27.6967 101.807 27.9133 102.297 28.0433L104.917 28.0289L105.939 28.0433L106.127 27.8989C106.357 27.3357 106.717 26.8592 107.206 26.4548C107.739 26.0216 108.301 25.805 108.891 25.805C109.15 25.805 109.294 25.8628 109.352 25.9783C109.366 26.0938 109.381 26.2671 109.409 26.4837C109.438 26.6715 109.582 26.9747 109.87 27.3935C110.158 27.8122 110.374 28.0289 110.518 28.0289H110.72L113.268 28.0144L115.471 28.0289C115.154 27.5668 114.722 27.3357 114.204 27.3357C114.06 27.3357 113.858 27.3502 113.628 27.3935C113.959 26.6426 114.247 26.1372 114.477 25.9061C114.852 25.5451 115.399 25.3574 116.119 25.3574C116.579 25.3574 117.04 25.5018 117.472 25.7906C117.962 26.1083 118.192 26.4982 118.192 26.9314C118.192 27.0758 118.12 27.2635 117.976 27.4946C117.861 27.6678 117.746 27.8556 117.631 28.0433H118.322L120.87 28.0289L123.346 28.0433C123.404 27.8989 123.433 27.6534 123.447 27.3068C123.447 26.9603 123.476 26.7437 123.519 26.6715C123.62 26.4693 123.778 26.2527 124.038 25.9928L124.642 25.3718V26.1949C124.642 26.3249 124.614 26.5271 124.57 26.787C124.527 27.0469 124.498 27.2346 124.498 27.3646C124.498 27.7689 124.801 27.9855 125.391 28.0289L127.939 28.0144L129.235 28.0289L129.293 27.7834C129.293 27.3502 129.221 26.787 129.091 26.0938C128.976 25.5307 128.861 24.9675 128.746 24.4043C128.616 24.3032 128.458 24.1588 128.242 23.9422C128.357 23.6678 128.53 23.3357 128.789 22.9314C129.091 22.4404 129.322 22.1805 129.494 22.1083V22.2238C129.494 22.6281 129.739 22.9747 130.243 23.3068ZM108.531 28.0722C108.545 27.9855 108.56 27.9422 108.56 27.9567C108.56 27.5234 108.416 27.3213 108.157 27.3213C107.941 27.3213 107.725 27.379 107.466 27.4801C107.811 27.7256 108.171 27.9278 108.531 28.0722ZM101.03 30.426L102.326 31.2058C102.239 31.3502 102.081 31.5523 101.879 31.7978C101.62 32.1011 101.462 32.2599 101.404 32.2599C101.332 32.2599 100.915 32.0289 100.151 31.5668C99.9931 31.6967 99.7915 31.9278 99.518 32.2599C99.3596 32.2599 99.158 32.1588 98.8269 31.9422C98.5245 31.7545 98.3229 31.6245 98.2221 31.5379C98.5101 31.1769 98.8269 30.8159 99.158 30.4693C99.2732 30.5848 99.4604 30.7148 99.7051 30.8736C99.9931 31.0613 100.18 31.1624 100.267 31.1624C100.295 31.1624 100.425 31.0613 100.655 30.8447C100.771 30.6859 100.9 30.5559 101.03 30.426ZM86.6462 27.5668C86.6606 27.3935 86.603 27.2346 86.4734 27.0758C86.3583 26.9169 86.2143 26.8303 86.0703 26.8303C85.9695 26.8303 85.8543 26.8881 85.7248 26.9747C85.5952 27.0758 85.5088 27.1624 85.4656 27.2491L85.3936 27.379C85.6096 27.6245 85.8543 27.74 86.1279 27.74C86.3295 27.74 86.5022 27.6678 86.6462 27.5668ZM87.6253 26.166C87.87 26.7292 87.9996 27.2491 87.9996 27.7112C87.9996 28.5776 87.7693 29.4873 87.3229 30.4404C86.7758 31.5956 86.1279 32.1588 85.3504 32.1588C84.4002 32.1588 83.2915 31.9422 82.0389 31.4946C82.3988 31.4657 82.9604 31.3935 83.7091 31.2924C84.2994 31.1913 85.0049 30.8303 85.8543 30.2238C86.7902 29.5595 87.2365 28.9819 87.2077 28.491V28.1877C87.1214 28.2455 87.035 28.3899 86.9342 28.6209C86.8478 28.8375 86.7326 28.9964 86.6318 29.083C86.4591 29.2274 86.1855 29.2996 85.8111 29.2996C85.3792 29.2996 85.0769 29.1552 84.9041 28.8664C84.7745 28.6498 84.7169 28.3177 84.7169 27.87C84.7169 27.379 84.9041 26.8303 85.2928 26.2238C85.696 25.574 86.1279 25.1841 86.5886 25.0541C86.9918 25.1408 87.3373 25.5018 87.6253 26.166ZM79.7064 22.8447C80.0232 24.592 80.1816 26.0361 80.1816 27.148C80.1816 28.2599 79.8792 29.1985 79.2745 29.935L78.569 24.9242C78.5546 24.7798 78.713 24.4332 79.0441 23.8845C79.2889 23.4512 79.5049 23.1047 79.7064 22.8447ZM74.336 28.3032C74.5232 28.3032 74.696 28.3032 74.8687 28.2888C74.7824 28.0866 74.7248 27.9711 74.696 27.9278C74.6096 27.7689 74.5376 27.6534 74.4656 27.6101C74.2352 27.8556 73.9905 28.0866 73.7169 28.2888C73.9185 28.2888 74.12 28.3032 74.336 28.3032ZM76.9996 23.2202C77.2876 23.3502 77.5036 23.4946 77.6331 23.6534C77.446 23.9278 77.158 24.3321 76.7837 24.8664C76.6973 24.9097 76.5389 24.8808 76.3085 24.8086C76.2221 25.4151 75.9054 26.0505 75.3007 26.7581C75.5166 27.2202 75.6462 27.5234 75.6894 27.639C75.8046 27.9422 75.8622 28.2599 75.8622 28.592C75.8622 28.7798 75.8334 29.1696 75.7614 29.7761H71.5284L72.1763 28.0722C72.7522 28.0577 73.357 27.7256 74.0049 27.0758C73.4146 26.3249 72.9682 25.935 72.6947 25.9061L72.3203 26.3538C71.802 26.065 71.2837 25.7761 70.7653 25.5018C70.0742 25.083 69.7287 24.6931 69.7287 24.3321C69.7287 24.1588 69.8151 23.8556 69.9878 23.4512L70.3622 22.5559H70.5782C72.3635 23.379 73.8033 24.5776 74.8831 26.1372C75.1711 25.8772 75.3007 25.4296 75.3007 24.7942C75.3007 24.4187 75.1711 24.1444 74.9263 23.9278L74.8975 23.8267L76.0494 22.1805C76.0782 22.5126 76.1789 22.7581 76.3805 22.9169C76.4669 22.9603 76.6685 23.0758 76.9996 23.2202ZM71.2405 31.6534C71.3556 31.6534 71.658 31.6534 72.1187 31.6534C72.0467 31.8122 71.946 31.9711 71.8164 32.1155C71.3412 32.1011 70.8085 32.3177 70.1462 32.7364C70.2038 32.592 70.2902 32.4621 70.4198 32.3754L70.7941 32.1444C70.6214 32.1155 70.391 32.0289 70.103 31.8989C70.103 31.5523 70.2182 31.2924 70.4342 31.0469C70.6502 30.8159 70.9093 30.6859 71.1973 30.6859C71.2837 30.6859 71.37 30.7148 71.4708 30.787C71.5716 30.8592 71.6292 30.9169 71.6292 30.9891C71.6292 31.0325 71.5284 31.1769 71.3557 31.4224C71.1253 31.2346 70.9813 31.1335 70.9093 31.1335C70.8517 31.1335 70.7077 31.2058 70.4918 31.3502C70.5782 31.509 70.8229 31.6101 71.2405 31.6534ZM68.9512 26.0216V27.7689C68.9512 28.1299 68.8792 28.4621 68.7496 28.7942L68.3609 29.7761H66.0284C65.9708 29.6895 65.9132 29.6029 65.8412 29.5307L65.5821 29.7761H64.8334H64.5022H63.624C63.5952 29.6317 63.5376 29.4873 63.4512 29.3574C63.3792 29.444 63.2928 29.5162 63.2064 29.6029C63.0913 29.7184 63.0049 29.7761 62.9329 29.7761H62.0834H61.6803H60.0533H59.5494H58.0376H57.5193H56.5834L55.3596 28.6931L54.6685 29.7761H52.2208H51.6305H49.8164L49.2837 23.5956C49.4996 23.278 49.8596 22.8303 50.3347 22.2527C50.4355 22.9169 50.5363 23.87 50.6371 25.0974C50.7522 26.4404 50.8386 27.3935 50.925 27.9711C50.9682 28.0144 51.1554 28.0433 51.5009 28.0722H51.6449H52.2352H54.6829C54.1502 27.5668 53.1855 26.6426 51.7889 25.2996C51.9617 24.7798 52.2352 24.0144 52.6096 22.9891C55.8347 22.1949 57.5193 21.7906 57.6632 21.7906L57.1017 23.3935L53.1567 24.5054L57.1593 28.0722H57.5481L59.5782 28.0577H60.0821H62.1122L63.3504 28.0722C63.4656 27.9133 63.5088 27.6678 63.5088 27.3502C63.5088 27.2202 63.6672 26.9891 63.9839 26.6426L64.6318 25.9639L64.6894 26.166C64.6894 26.3826 64.6318 26.7003 64.5022 27.0758C64.3439 27.5812 64.2431 27.9133 64.2143 28.0722H64.531H64.8622H65.7981C65.8125 27.9711 65.8269 27.8122 65.87 27.6101C65.942 27.4224 66.1292 27.148 66.4028 26.8014C66.7195 26.3971 66.9643 26.2094 67.1083 26.2238C66.7915 27.3935 66.6331 28.0144 66.6475 28.0866H67.785C67.8138 28.0144 67.7994 27.9278 67.785 27.8123C67.7706 27.6967 67.7706 27.5956 67.7706 27.5379C67.7706 27.3935 67.9433 27.1191 68.2745 26.7003C68.5913 26.2671 68.8216 26.0505 68.9512 26.0216ZM47.052 26.5704C47.7143 27.3213 48.0454 28.1444 48.0454 29.0108C48.0454 30.0361 47.6855 30.8592 46.98 31.4946C46.2601 32.1299 45.3818 32.4476 44.3164 32.4476C43.5677 32.4476 42.963 32.3465 42.4878 32.1299C41.8399 31.8411 41.5088 31.379 41.5088 30.7437C41.5088 30.166 41.7248 29.4585 42.1711 28.6498C42.6462 27.74 43.1645 27.2346 43.6829 27.148C43.2509 27.6678 43.0062 27.9855 42.9486 28.1011C42.7326 28.4476 42.6174 28.8231 42.6174 29.2274C42.6174 29.7473 42.8334 30.1372 43.2797 30.4115C43.6397 30.6281 44.1148 30.7292 44.6907 30.7292C45.0507 30.7292 45.4682 30.6859 45.9289 30.5993C46.5337 30.4982 46.908 30.3826 47.0808 30.2382C46.98 29.5595 46.6344 28.8086 46.0441 28L47.052 26.5704ZM45.353 23.5668C45.4106 23.5668 45.9002 23.8989 46.8504 24.5776C46.7496 24.7509 46.5193 24.9964 46.1737 25.2996C45.7994 25.6317 45.5258 25.805 45.3674 25.805C45.2235 25.805 44.7483 25.5162 43.9276 24.9242C43.9996 24.7653 44.2156 24.5054 44.6043 24.1299C45.0075 23.7545 45.2522 23.5668 45.353 23.5668ZM160.378 30.9603C160.781 31.3068 160.983 31.509 160.983 31.5523C160.983 31.6245 160.795 31.8122 160.421 32.0866C160.047 32.3754 159.802 32.5054 159.716 32.5054C159.629 32.5054 159.413 32.361 159.039 32.0722C158.665 31.7834 158.492 31.6101 158.492 31.5523C158.492 31.4801 158.679 31.278 159.039 30.9458C159.413 30.6137 159.629 30.4404 159.701 30.4404C159.744 30.426 159.975 30.5993 160.378 30.9603Z" fill="white"/>
<path d="M158.348 17.935H157.023V15.379C157.023 14.8447 156.994 14.4981 156.937 14.3393C156.879 14.1805 156.778 14.0505 156.663 13.9639C156.534 13.8772 156.39 13.8339 156.203 13.8339C155.972 13.8339 155.756 13.8916 155.583 14.0216C155.396 14.1516 155.267 14.3104 155.209 14.5126C155.137 14.7148 155.108 15.1046 155.108 15.6678V17.935H153.769V12.9386H155.007V13.675C155.454 13.1119 156.001 12.8231 156.678 12.8231C156.966 12.8231 157.239 12.8808 157.484 12.9819C157.729 13.083 157.916 13.2274 158.031 13.3862C158.161 13.5451 158.247 13.7328 158.29 13.9494C158.348 14.1516 158.362 14.4548 158.362 14.8447L158.348 17.935ZM151.768 15.5379C151.595 15.5956 151.322 15.6678 150.962 15.74C150.587 15.8122 150.357 15.8989 150.242 15.9711C150.069 16.0866 149.983 16.2454 149.983 16.4332C149.983 16.6209 150.055 16.7797 150.199 16.9097C150.343 17.0397 150.515 17.1119 150.731 17.1119C150.976 17.1119 151.206 17.0397 151.422 16.8808C151.581 16.7653 151.696 16.6209 151.739 16.4476C151.768 16.3321 151.797 16.1155 151.797 15.7978L151.768 15.5379ZM149.983 14.4693L148.773 14.2527C148.903 13.7617 149.148 13.4151 149.479 13.1841C149.81 12.953 150.299 12.8375 150.962 12.8375C151.552 12.8375 151.998 12.9097 152.286 13.0541C152.574 13.1841 152.776 13.3718 152.891 13.5884C153.006 13.805 153.078 14.1949 153.078 14.7725L153.064 16.3176C153.064 16.7509 153.078 17.083 153.121 17.2851C153.165 17.4873 153.251 17.7184 153.366 17.9494H152.042C152.013 17.8628 151.97 17.7328 151.912 17.5595C151.898 17.4873 151.883 17.4296 151.869 17.4007C151.638 17.6173 151.394 17.7906 151.134 17.8916C150.875 18.0072 150.587 18.0505 150.299 18.0505C149.781 18.0505 149.378 17.9061 149.076 17.6317C148.773 17.3574 148.629 16.9963 148.629 16.5776C148.629 16.2888 148.701 16.0433 148.831 15.8267C148.96 15.6101 149.162 15.4368 149.407 15.3213C149.651 15.2057 150.011 15.1046 150.472 15.018C151.091 14.9025 151.523 14.8014 151.768 14.7003V14.5703C151.768 14.3104 151.71 14.1371 151.581 14.0216C151.451 13.9061 151.221 13.8628 150.861 13.8628C150.616 13.8628 150.443 13.9061 150.299 14.0072C150.17 14.0649 150.069 14.2238 149.983 14.4693ZM144.022 14.9314V16.7797H145.318C145.822 16.7797 146.153 16.7653 146.282 16.7364C146.484 16.7075 146.657 16.6064 146.786 16.462C146.916 16.3176 146.988 16.1155 146.988 15.87C146.988 15.6678 146.93 15.4945 146.829 15.3501C146.729 15.2057 146.585 15.1046 146.383 15.0324C146.196 14.9602 145.778 14.9314 145.145 14.9314H144.022ZM144.022 12.1877V13.7906H144.943C145.49 13.7906 145.836 13.7761 145.966 13.7617C146.21 13.7328 146.398 13.6462 146.527 13.5162C146.657 13.3718 146.729 13.1985 146.729 12.9675C146.729 12.7509 146.671 12.5776 146.556 12.4476C146.441 12.3176 146.268 12.231 146.023 12.2021C145.879 12.1877 145.49 12.1732 144.828 12.1732L144.022 12.1877ZM142.611 11.0324H145.39C145.937 11.0324 146.354 11.0613 146.614 11.1046C146.887 11.148 147.132 11.2346 147.333 11.3935C147.549 11.5379 147.722 11.74 147.866 11.9711C148.01 12.2166 148.082 12.4765 148.082 12.7797C148.082 13.0974 147.996 13.4007 147.823 13.675C147.65 13.9494 147.42 14.1516 147.117 14.2815C147.549 14.4115 147.866 14.6137 148.096 14.9025C148.327 15.2057 148.442 15.5523 148.442 15.9422C148.442 16.2599 148.37 16.5631 148.212 16.8664C148.068 17.1552 147.866 17.4007 147.607 17.574C147.348 17.7472 147.045 17.8628 146.671 17.9061C146.441 17.935 145.865 17.9494 144.972 17.9494H142.596L142.611 11.0324ZM140.235 12.9386V13.9927H139.328V16.0144C139.328 16.4187 139.328 16.6642 139.357 16.7364C139.371 16.8086 139.415 16.8519 139.472 16.8953C139.53 16.9386 139.616 16.9675 139.703 16.9675C139.832 16.9675 140.005 16.9241 140.235 16.8375L140.35 17.8628C140.034 17.9927 139.688 18.0649 139.299 18.0649C139.055 18.0649 138.839 18.0216 138.651 17.9494C138.464 17.8628 138.32 17.7617 138.22 17.6462C138.133 17.5162 138.076 17.3429 138.032 17.1263C138.004 16.9675 137.989 16.6642 137.989 16.1877V13.9927H137.37V12.9386H137.989V11.9422L139.328 11.1624V12.9241L140.235 12.9386ZM137.212 17.935H135.873V15.379C135.873 14.8447 135.844 14.4981 135.786 14.3393C135.729 14.1805 135.642 14.0505 135.513 13.9639C135.383 13.8772 135.225 13.8339 135.052 13.8339C134.822 13.8339 134.62 13.8916 134.433 14.0216C134.246 14.1516 134.116 14.3104 134.044 14.5126C133.972 14.7148 133.943 15.1046 133.943 15.6678V17.935H132.604V12.9386H133.843V13.675C134.289 13.1119 134.836 12.8231 135.498 12.8231C135.786 12.8231 136.06 12.8808 136.305 12.9819C136.549 13.083 136.737 13.2274 136.852 13.3862C136.981 13.5451 137.068 13.7328 137.111 13.9494C137.168 14.1516 137.183 14.4548 137.183 14.8447L137.212 17.935ZM130.848 15.0036C130.833 14.6137 130.733 14.3393 130.545 14.1371C130.358 13.935 130.128 13.8339 129.854 13.8339C129.566 13.8339 129.322 13.935 129.134 14.1516C128.947 14.3537 128.846 14.6426 128.846 15.0036H130.848ZM130.761 16.3465L132.086 16.5631C131.913 17.0397 131.654 17.4151 131.28 17.6606C130.92 17.9205 130.445 18.0361 129.898 18.0361C129.019 18.0361 128.371 17.7472 127.954 17.1841C127.623 16.7364 127.45 16.1588 127.45 15.4657C127.45 14.6426 127.666 13.9927 128.098 13.5162C128.53 13.0397 129.091 12.8086 129.754 12.8086C130.502 12.8086 131.093 13.0541 131.524 13.5451C131.956 14.0361 132.158 14.787 132.144 15.7978H128.803C128.818 16.1877 128.918 16.4909 129.12 16.7075C129.322 16.9241 129.581 17.0397 129.883 17.0397C130.099 17.0397 130.272 16.9819 130.416 16.8664C130.589 16.7797 130.689 16.6064 130.761 16.3465ZM119.747 12.9386H120.971V13.6173C121.417 13.083 121.935 12.8231 122.54 12.8231C122.857 12.8231 123.145 12.8953 123.375 13.0252C123.62 13.1552 123.807 13.3574 123.951 13.6173C124.167 13.3574 124.412 13.1552 124.671 13.0252C124.93 12.8953 125.204 12.8231 125.492 12.8231C125.866 12.8231 126.183 12.8953 126.428 13.0541C126.687 13.1985 126.874 13.4151 127.004 13.7039C127.09 13.9205 127.148 14.2671 127.148 14.7436V17.935H125.809V15.0758C125.809 14.5848 125.765 14.2671 125.665 14.1227C125.549 13.935 125.348 13.8339 125.089 13.8339C124.901 13.8339 124.729 13.8916 124.556 14.0072C124.383 14.1227 124.268 14.2815 124.196 14.5126C124.124 14.7292 124.081 15.0758 124.081 15.5379V17.935H122.742V15.1913C122.742 14.7003 122.713 14.3971 122.67 14.2527C122.627 14.1083 122.555 14.0072 122.439 13.935C122.339 13.8628 122.209 13.8339 122.036 13.8339C121.835 13.8339 121.648 13.8916 121.489 13.9927C121.331 14.1083 121.201 14.2671 121.129 14.4693C121.057 14.6714 121.028 15.018 121.028 15.509V17.935H119.689V12.9386H119.747ZM115.816 15.3501C115.816 15.9133 115.932 16.3321 116.162 16.592C116.378 16.8519 116.651 16.9963 116.983 16.9963C117.299 16.9963 117.559 16.8664 117.76 16.6353C117.962 16.3898 118.077 15.9855 118.077 15.4223C118.077 14.9025 117.976 14.5126 117.76 14.2527C117.544 13.9927 117.285 13.8772 116.968 13.8772C116.651 13.8772 116.378 14.0072 116.162 14.2527C115.932 14.4981 115.816 14.8736 115.816 15.3501ZM114.492 12.9386H115.73V13.675C115.888 13.4296 116.119 13.2129 116.392 13.0685C116.666 12.9241 116.968 12.8375 117.299 12.8375C117.89 12.8375 118.379 13.0685 118.797 13.5306C119.2 13.9783 119.401 14.6137 119.401 15.4368C119.401 16.2743 119.2 16.9241 118.782 17.3862C118.365 17.8483 117.875 18.0794 117.285 18.0794C117.011 18.0794 116.752 18.0216 116.522 17.9205C116.292 17.805 116.061 17.6173 115.802 17.3574V19.8844H114.477L114.492 12.9386ZM110.288 15.4368C110.288 15.9277 110.403 16.3176 110.648 16.5776C110.892 16.8375 111.18 16.9675 111.526 16.9675C111.871 16.9675 112.159 16.8375 112.39 16.5776C112.634 16.3176 112.75 15.9277 112.75 15.4223C112.75 14.9314 112.634 14.5559 112.39 14.296C112.159 14.0361 111.857 13.8916 111.526 13.8916C111.18 13.8916 110.878 14.0216 110.648 14.296C110.403 14.5703 110.288 14.9458 110.288 15.4368ZM108.92 15.3646C108.92 14.9314 109.035 14.4981 109.251 14.0938C109.467 13.675 109.784 13.3718 110.172 13.1552C110.576 12.9386 111.022 12.8231 111.511 12.8231C112.274 12.8231 112.908 13.0685 113.383 13.5595C113.873 14.0505 114.117 14.6714 114.117 15.4223C114.117 16.1732 113.873 16.8086 113.383 17.2996C112.894 17.805 112.274 18.0361 111.526 18.0361C111.065 18.0361 110.619 17.935 110.201 17.7184C109.784 17.5162 109.467 17.2129 109.251 16.8086C109.035 16.4332 108.92 15.9422 108.92 15.3646ZM107.163 11.0324H108.502V17.935H107.163V11.0324ZM105.392 15.0036C105.378 14.6137 105.277 14.3393 105.09 14.1371C104.903 13.935 104.672 13.8339 104.399 13.8339C104.111 13.8339 103.866 13.935 103.679 14.1516C103.492 14.3537 103.391 14.6426 103.405 15.0036H105.392ZM105.306 16.3465L106.631 16.5631C106.458 17.0397 106.199 17.4151 105.824 17.6606C105.464 17.9205 105.004 18.0361 104.442 18.0361C103.564 18.0361 102.916 17.7472 102.498 17.1841C102.167 16.7364 101.994 16.1588 101.994 15.4657C101.994 14.6426 102.21 13.9927 102.642 13.5162C103.074 13.0397 103.636 12.8086 104.298 12.8086C105.047 12.8086 105.637 13.0541 106.069 13.5451C106.501 14.0361 106.717 14.787 106.688 15.7978H103.348C103.362 16.1877 103.463 16.4909 103.679 16.7075C103.881 16.9241 104.14 17.0397 104.442 17.0397C104.658 17.0397 104.831 16.9819 104.975 16.8664C105.133 16.7797 105.234 16.6064 105.306 16.3465ZM98.9996 17.935L96.9695 12.9386H98.3661L99.3164 15.4945L99.5899 16.3465C99.6619 16.1299 99.7051 15.9855 99.7339 15.9133C99.7771 15.7689 99.8203 15.6245 99.8779 15.4945L100.843 12.9386H102.21L100.209 17.935H98.9996ZM95.8465 15.0036C95.8321 14.6137 95.7313 14.3393 95.5441 14.1371C95.357 13.935 95.1266 13.8339 94.853 13.8339C94.5651 13.8339 94.3203 13.935 94.1331 14.1516C93.946 14.3537 93.8452 14.6426 93.8596 15.0036H95.8465ZM95.7601 16.3465L97.0847 16.5631C96.9119 17.0397 96.6384 17.4151 96.2784 17.6606C95.9185 17.9205 95.4577 18.0361 94.8962 18.0361C94.0179 18.0361 93.37 17.7472 92.9525 17.1841C92.6214 16.7364 92.4486 16.1588 92.4486 15.4657C92.4486 14.6426 92.6645 13.9927 93.0965 13.5162C93.5284 13.0397 94.0755 12.8086 94.7522 12.8086C95.5009 12.8086 96.0913 13.0541 96.5232 13.5451C96.9551 14.0361 97.1567 14.787 97.1423 15.7978H93.802C93.8164 16.1877 93.9172 16.4909 94.1187 16.7075C94.3203 16.9241 94.5795 17.0397 94.8818 17.0397C95.0978 17.0397 95.2706 16.9819 95.4146 16.8664C95.5873 16.7797 95.6881 16.6064 95.7601 16.3465ZM87.87 12.2021V16.7797H88.9211C89.3098 16.7797 89.5978 16.7509 89.7706 16.7075C90.0009 16.6498 90.1881 16.5487 90.3321 16.4187C90.4905 16.2888 90.6056 16.0577 90.7064 15.7545C90.8072 15.4512 90.8504 15.018 90.8504 14.4837C90.8504 13.9494 90.8072 13.5451 90.7064 13.2563C90.6056 12.9675 90.4761 12.7509 90.3033 12.592C90.1305 12.4332 89.9146 12.3176 89.6554 12.2599C89.4538 12.2166 89.0795 12.2021 88.5036 12.1877L87.87 12.2021ZM86.4591 11.0324H89.0219C89.5978 11.0324 90.0441 11.0758 90.3465 11.1624C90.7496 11.2779 91.1096 11.4945 91.3975 11.7978C91.6855 12.101 91.9015 12.4765 92.0598 12.9241C92.2038 13.3574 92.2902 13.9061 92.2902 14.5559C92.2902 15.1191 92.2182 15.6101 92.0742 16.0288C91.9015 16.5342 91.6567 16.9386 91.3255 17.2563C91.0808 17.4873 90.7496 17.675 90.3465 17.805C90.0297 17.9061 89.6266 17.9494 89.0939 17.9494H86.4591V11.0324ZM80.0232 14.787C79.7064 14.9458 79.4761 15.1335 79.3321 15.3357C79.1737 15.5523 79.1017 15.7689 79.1017 16C79.1017 16.2888 79.2025 16.5198 79.3897 16.7075C79.5769 16.8808 79.836 16.9819 80.1528 16.9819C80.3687 16.9819 80.5559 16.9386 80.7575 16.8664C80.9447 16.7797 81.1606 16.6498 81.391 16.462L80.0232 14.787ZM80.5415 13.3429L80.9015 13.0685C81.1606 12.8664 81.3046 12.6642 81.3046 12.462C81.3046 12.2888 81.2326 12.1444 81.1174 12.0288C81.0022 11.9133 80.8151 11.8555 80.5991 11.8555C80.3831 11.8555 80.2248 11.9133 80.0952 12.0144C79.98 12.1155 79.9224 12.2454 79.9224 12.3754C79.9224 12.5342 80.0232 12.7364 80.2248 12.9675L80.5415 13.3429ZM84.1698 17.0974L83.3635 18.1227C82.9748 17.935 82.586 17.6606 82.2261 17.3285C81.9525 17.574 81.6502 17.7617 81.3334 17.8916C81.0166 18.0072 80.6423 18.0649 80.2104 18.0649C79.3465 18.0649 78.6986 17.8194 78.2522 17.3429C77.9211 16.9675 77.7483 16.5342 77.7483 16.0577C77.7483 15.6101 77.8779 15.2202 78.1515 14.8736C78.4106 14.5126 78.8138 14.2093 79.3465 13.9494C79.1017 13.675 78.929 13.4007 78.8138 13.1552C78.6842 12.8953 78.6266 12.6642 78.6266 12.4332C78.6266 12.0144 78.7994 11.6534 79.1305 11.379C79.4617 11.0902 79.9512 10.9458 80.5703 10.9458C81.175 10.9458 81.6502 11.0902 81.9813 11.4079C82.3269 11.7111 82.4852 12.0866 82.4852 12.5198C82.4852 12.7942 82.3988 13.0685 82.2405 13.314C82.0677 13.5595 81.7365 13.8483 81.2326 14.166L82.1973 15.4368C82.3125 15.2346 82.4132 14.9747 82.4852 14.6426L83.6947 14.9169C83.5795 15.3357 83.4643 15.6534 83.3779 15.8555C83.2915 16.0577 83.1907 16.2166 83.0899 16.3465C83.2339 16.4765 83.4211 16.6353 83.6659 16.7942C83.8818 16.9386 84.0546 17.0397 84.1698 17.0974ZM71.7012 15.3357C71.7012 15.87 71.802 16.2599 72.0036 16.5054C72.2195 16.7509 72.4643 16.8664 72.7666 16.8664C73.0834 16.8664 73.3714 16.7364 73.5873 16.4909C73.8177 16.231 73.9185 15.8555 73.9185 15.3646C73.9185 14.8447 73.8033 14.4548 73.6017 14.2093C73.3858 13.9639 73.1122 13.8339 72.781 13.8339C72.4643 13.8339 72.1907 13.9639 71.9892 14.2093C71.802 14.4548 71.7012 14.8303 71.7012 15.3357ZM70.5062 18.2671L72.0323 18.4548C72.0611 18.6281 72.1187 18.7436 72.2051 18.8158C72.3347 18.9025 72.5363 18.9602 72.8098 18.9602C73.1554 18.9602 73.4146 18.9025 73.6017 18.8014C73.7169 18.7292 73.8033 18.6281 73.8609 18.4693C73.9041 18.3537 73.9185 18.1516 73.9185 17.8628V17.1263C73.5153 17.675 73.0258 17.935 72.4067 17.935C71.73 17.935 71.1973 17.6462 70.7941 17.083C70.4918 16.6353 70.3334 16.0722 70.3334 15.4079C70.3334 14.5703 70.535 13.935 70.9381 13.4873C71.3413 13.0397 71.8452 12.8231 72.4499 12.8231C73.069 12.8231 73.5873 13.0974 73.9905 13.6317V12.9241H75.2431V17.4151C75.2431 18.0072 75.1999 18.4404 75.0991 18.7292C74.9983 19.018 74.8687 19.249 74.6816 19.4223C74.5088 19.5812 74.264 19.7111 73.9761 19.8122C73.6737 19.8989 73.3138 19.9566 72.853 19.9566C72.0036 19.9566 71.3988 19.8122 71.0389 19.5234C70.6789 19.2346 70.5062 18.8592 70.5062 18.4259C70.5062 18.3826 70.5062 18.3249 70.5062 18.2671ZM69.9159 17.935H68.5769V15.379C68.5769 14.8447 68.5481 14.4981 68.4905 14.3393C68.4329 14.1805 68.3465 14.0505 68.2025 13.9639C68.0729 13.8772 67.9289 13.8339 67.7418 13.8339C67.5114 13.8339 67.3098 13.8916 67.1227 14.0216C66.9355 14.1516 66.8203 14.3104 66.7483 14.5126C66.6763 14.7148 66.6475 15.1046 66.6475 15.6678V17.935H65.3229V12.9386H66.5611V13.675C67.0075 13.1119 67.5546 12.8231 68.2169 12.8231C68.5049 12.8231 68.7784 12.8808 69.0232 12.9819C69.268 13.083 69.4551 13.2274 69.5703 13.3862C69.6999 13.5451 69.7863 13.7328 69.8295 13.9494C69.8871 14.1516 69.9015 14.4548 69.9015 14.8447L69.9159 17.935ZM63.264 12.9386H64.5886V17.935H63.264V12.9386ZM63.264 11.0324H64.5886V12.2599H63.264V11.0324ZM58.0232 16.5054L59.3622 16.3032C59.4198 16.5631 59.535 16.7509 59.7077 16.8953C59.8805 17.0252 60.1253 17.0974 60.442 17.0974C60.7876 17.0974 61.0468 17.0397 61.2195 16.9097C61.3347 16.8231 61.3923 16.7075 61.3923 16.5487C61.3923 16.4476 61.3635 16.3754 61.2915 16.3032C61.2195 16.2454 61.0755 16.1877 60.8452 16.1299C59.7653 15.8989 59.0886 15.6823 58.8007 15.4801C58.3975 15.2057 58.2104 14.8447 58.2104 14.3537C58.2104 13.9205 58.3831 13.5595 58.7287 13.2563C59.0742 12.953 59.607 12.8086 60.3269 12.8086C61.018 12.8086 61.5363 12.9241 61.8674 13.1407C62.1986 13.3574 62.4289 13.6895 62.5585 14.1227L61.3059 14.3537C61.2483 14.1516 61.1475 14.0072 61.0036 13.9061C60.8596 13.805 60.6436 13.7472 60.37 13.7472C60.0101 13.7472 59.7653 13.7906 59.607 13.8916C59.5062 13.9639 59.463 14.0505 59.463 14.166C59.463 14.2527 59.5062 14.3393 59.5926 14.3971C59.7077 14.4837 60.1253 14.6137 60.8308 14.7725C61.5363 14.9314 62.0402 15.1335 62.3138 15.3646C62.5873 15.5956 62.7313 15.9277 62.7313 16.3465C62.7313 16.8086 62.5441 17.1985 62.1554 17.5306C61.7666 17.8628 61.2051 18.0216 60.442 18.0216C59.7509 18.0216 59.2182 17.8772 58.8151 17.6028C58.3975 17.3574 58.1384 16.9819 58.0232 16.5054ZM56.497 17.935V17.1841C56.3098 17.4584 56.0651 17.6606 55.7771 17.8194C55.4748 17.9639 55.158 18.0505 54.8269 18.0505C54.4813 18.0505 54.1789 17.9783 53.9198 17.8339C53.6462 17.6895 53.4591 17.4729 53.3295 17.2129C53.2143 16.953 53.1567 16.5776 53.1567 16.101V12.9386H54.4957V15.2346C54.4957 15.9422 54.5245 16.3754 54.5677 16.5342C54.6253 16.6931 54.7117 16.8086 54.8413 16.9097C54.9708 16.9963 55.1292 17.0397 55.3308 17.0397C55.5611 17.0397 55.7627 16.9819 55.9355 16.8519C56.1227 16.722 56.2378 16.5776 56.3098 16.3898C56.3818 16.2021 56.4106 15.7545 56.4106 15.0324V12.9386H57.7352V17.935H56.497ZM48.9381 15.4368C48.9381 15.9277 49.0533 16.3176 49.2981 16.5776C49.5284 16.8375 49.8308 16.9675 50.1763 16.9675C50.5219 16.9675 50.8242 16.8375 51.0546 16.5776C51.285 16.3176 51.4146 15.9277 51.4146 15.4223C51.4146 14.9314 51.2994 14.5559 51.0546 14.296C50.8242 14.0361 50.5363 13.8916 50.1763 13.8916C49.8308 13.8916 49.5428 14.0216 49.2981 14.296C49.0533 14.5703 48.9381 14.9458 48.9381 15.4368ZM47.5703 15.3646C47.5703 14.9314 47.6855 14.4981 47.9015 14.0938C48.1174 13.675 48.4342 13.3718 48.8229 13.1552C49.2261 12.9386 49.6724 12.8231 50.1619 12.8231C50.925 12.8231 51.5441 13.0685 52.0337 13.5595C52.5232 14.0505 52.7536 14.6714 52.7536 15.4223C52.7536 16.1732 52.5088 16.8086 52.0193 17.2996C51.5297 17.805 50.9106 18.0361 50.1619 18.0361C49.7012 18.0361 49.2549 17.935 48.8373 17.7184C48.4198 17.5162 48.103 17.2129 47.8871 16.8086C47.6855 16.4332 47.5703 15.9422 47.5703 15.3646ZM41.5088 17.935V11.0324H42.9054V13.7472H45.6554V11.0324H47.0664V17.935H45.6554V14.9169H42.9054V17.935H41.5088ZM159.01 17.935V11.0324H160.349V14.7003L161.904 12.9386H163.545L161.832 14.7581L163.675 17.935H162.235L160.968 15.6967L160.349 16.3465V17.9494H159.01V17.935Z" fill="white"/>
<path d="M15.8809 6.31045V1.15521L30.8691 9.87723L30.8403 26.8014L16.5 35.5523V18.2094L26.5209 12.4043L15.8809 6.31045ZM26.3769 17.6462L21.0497 20.852V27.7256L26.3769 24.5776V17.6462Z" fill="white"/>
<path d="M15.8808 1.15521L0.892578 9.87723L0.935772 26.8014L5.39912 29.4873V24.5632V17.6462L10.7263 20.8375V27.7112L10.6976 27.6967V32.6498L15.2617 35.4801V18.2094L5.24075 12.4188L15.8808 6.31045V1.15521Z" fill="white"/>
<path d="M35.3324 4.02887H34.627V39.1336H35.3324V4.02887Z" fill="white"/>
</svg>
