<svg width="176" height="40" viewBox="0 0 176 40" fill="none" xmlns="http://www.w3.org/2000/svg">
<mask id="mask0_361_5769" style="mask-type:luminance" maskUnits="userSpaceOnUse" x="146" y="9" width="21" height="12">
<path d="M146.875 9.16156C146.802 9.65756 146.761 10.1576 146.75 10.6588C146.75 15.8083 151.19 20.0003 156.623 20.0003C162.055 20.0003 166.495 15.8089 166.495 10.6588C166.487 10.1575 166.445 9.65727 166.37 9.16156H146.87H146.875Z" fill="white"/>
</mask>
<g mask="url(#mask0_361_5769)">
<path d="M166.562 9.16156H146.75V19.9997H166.562V9.16156Z" fill="white"/>
</g>
<mask id="mask1_361_5769" style="mask-type:luminance" maskUnits="userSpaceOnUse" x="146" y="23" width="21" height="17">
<path d="M146.812 23.1139V36.1077C146.812 39.341 149.249 39.8802 150.561 40H151.31V23.1139H146.812ZM154.437 40H158.935V23.1139H154.437V40ZM162 23.1139V40H162.75C164 39.9416 166.25 39.4012 166.437 36.5271V23.1139H162Z" fill="white"/>
</mask>
<g mask="url(#mask1_361_5769)">
<path d="M166.499 23.1139H146.812V40H166.499V23.1139Z" fill="white"/>
</g>
<path d="M169.187 0H144.185C140.872 0 138.122 2.57503 138.122 5.68867V29.6981C138.122 32.6324 139.997 35.0275 142.997 35.3868V4.67338H170.372V35.329C173.372 34.9697 175.247 32.5746 175.247 29.6403V5.68925C175.247 2.57561 172.497 0.000583851 169.184 0.000583851" fill="white"/>
<mask id="mask2_361_5769" style="mask-type:luminance" maskUnits="userSpaceOnUse" x="0" y="25" width="133" height="3">
<path d="M132.688 25.3291H0.125977V27.6646H132.688V25.3291Z" fill="white"/>
</mask>
<g mask="url(#mask2_361_5769)">
<path d="M132.688 25.3291H0.125977V27.6646H132.688V25.3291Z" fill="white"/>
</g>
<path d="M15.5628 22.0361C16.5466 21.3766 17.5692 20.7767 18.625 20.2398C18.8116 20.1521 18.9628 20.0035 19.0536 19.8184C19.1445 19.6334 19.1697 19.4229 19.125 19.2216C17.7323 19.6708 16.4382 20.3822 15.3127 21.3176C14.9377 21.737 15.5003 22.0361 15.5628 22.0361ZM19.5001 37.6049H20.9377V29.8804H19.5001V37.6049ZM12.9381 31.1959H15.0008V37.6049H16.4384V31.1959H18.5011V29.8804H12.9387V31.1959H12.9381ZM4.37587 35.0281L1.50117 29.8786H0.126027V37.6049H1.43865V32.5746L4.25087 37.6043H5.68851V29.8804H4.37587V35.0299V35.0281ZM7.00056 5.08814C7.11328 5.4604 7.19686 5.84087 7.25058 6.2261C7.2285 6.31536 7.18154 6.39651 7.11514 6.46011C7.04875 6.52371 6.96566 6.56715 6.87554 6.58537C5.99928 6.76529 6.06296 5.02855 6.06296 5.02855C6.06296 5.02855 5.93795 4.72887 5.68792 4.72887C5.4379 4.72887 5.18786 5.08814 5.18786 5.14831C5.30691 5.73989 5.47416 6.32074 5.68792 6.88505C5.72472 7.04722 5.79833 7.19874 5.90309 7.32789C6.00784 7.45704 6.14091 7.56035 6.29199 7.62982C6.44308 7.69929 6.60812 7.73305 6.77435 7.7285C6.94058 7.72396 7.10352 7.68121 7.25058 7.60358C7.68812 7.48383 7.87564 6.88505 8.00065 6.82488C8.18817 6.76646 9.18828 6.94464 9.3758 6.46561C9.75083 5.20789 8.87575 4.18734 8.56322 3.831C8.31319 3.47173 8.00065 3.831 8.00065 3.831C8.5007 4.48995 9.12577 5.86684 8.56322 6.10927C8.00066 6.28919 7.68696 5.03147 7.62854 4.73179C7.57012 4.43211 7.50354 4.13302 7.06599 4.25277C6.62845 4.31119 6.87846 4.79196 7.00347 5.09106M98.2511 4.25277C98.2511 4.25277 96.6885 6.8278 91.6885 8.98456C91.5983 9.03812 91.5314 9.12359 91.501 9.22407C91.4385 9.46358 91.8761 9.64351 93.0012 9.22407C95.4208 8.32304 97.5564 6.79288 99.1876 4.79138L99.7501 5.21081C99.7501 5.21081 100.5 4.91113 100.375 3.23456L99.9376 2.75554C99.9376 2.75554 100.438 1.37806 99.6251 0.719699C98.8125 0.00116795 97.6874 1.01938 97.3749 1.37865C97.1873 1.61816 96.4402 2.87588 98.2511 4.25277ZM98.4386 1.67774C98.9387 1.31848 99.6263 2.21693 98.6262 2.63578C98.4387 2.75554 98.0011 2.09659 98.4386 1.67774ZM108.75 9.76034C108.602 9.72707 108.447 9.74779 108.312 9.81876C108.125 9.99869 107.25 11.1361 107.25 11.1361C107.25 11.1361 107.187 11.3756 107.312 11.4357C107.5 11.4942 109.123 12.1543 109.123 12.1543L110.311 10.7172C110.345 10.6194 110.346 10.5127 110.312 10.4147C110.278 10.3167 110.211 10.2332 110.123 10.178C109.811 10.1196 108.748 9.75859 108.748 9.75859M97.2499 14.3134C95.9997 14.6131 94.0626 14.1335 94.0001 14.3134C93.9376 14.5529 95.5003 16.0501 97.7499 15.5109C99.8751 15.0319 100.188 14.0739 100.437 13.4751C100.937 12.3973 100.687 10.9001 99.5608 11.0216C98.4346 11.1431 98.0607 10.6623 98.0607 10.303C98.0607 9.94377 98.3107 9.58451 99.0608 9.52434C99.2512 9.49932 99.432 9.42551 99.5855 9.31005C99.7391 9.1946 99.8601 9.04143 99.937 8.86539V7.78467C99.937 7.78467 99.9995 7.24548 99.312 7.36524C98.6244 7.48499 97.7493 8.2637 97.1867 9.34149C96.6242 10.4193 96.5617 11.9165 96.9367 12.4551C97.3743 13.0539 98.8119 12.8144 98.8744 13.3536C98.9995 13.6533 98.4994 14.0125 97.2493 14.3116M130.249 19.9401C130.249 20.2994 130.187 20.5991 130.437 20.5991C131.499 20.4793 132.062 16.8867 132.124 13.294C132.093 10.6962 131.8 8.10822 131.248 5.56949C131.123 4.97072 131.061 4.55128 131.436 4.31177C131.811 4.01209 132.248 4.31177 132.436 4.19202C132.623 4.07226 132.498 3.83275 132.498 3.83275C132.498 3.83275 130.373 0.35985 130.248 0.179925C130.201 0.129324 130.139 0.0960168 130.071 0.0854121C130.003 0.0748074 129.933 0.0875287 129.873 0.121508L128.81 1.8565C129.505 4.57519 130.028 7.33505 130.375 10.1196C130.629 13.3902 130.587 16.6771 130.249 19.9401ZM107.375 8.38345C107.375 8.38345 111.815 5.08989 120.313 2.03642L121.248 0.419435C116.423 1.8584 111.802 3.91103 107.5 6.52695C107.045 6.90094 106.753 7.43823 106.688 8.02419C106.742 8.15549 106.84 8.26353 106.966 8.32926C107.092 8.39499 107.237 8.41418 107.375 8.38345ZM80.0004 3.89234C79.5113 4.07514 79.0828 4.3906 78.7629 4.80333C78.443 5.21607 78.2445 5.70975 78.1895 6.22902C78.127 7.24724 79.6897 7.78584 79.6897 7.78584C79.4332 8.19613 79.3437 8.68908 79.4396 9.16332C79.5646 9.64234 79.6897 9.463 79.6897 9.463C79.8772 8.98065 80.1714 8.54697 80.5503 8.19441C80.9291 7.84186 81.3828 7.57956 81.8774 7.42716C82.3774 7.24724 82.4399 7.0679 82.4399 7.0679C82.4399 7.0679 82.8775 5.57066 82.6274 5.57066C82.116 5.71686 81.6148 5.89698 81.1273 6.10985C80.8148 6.28978 80.0022 6.46912 79.8147 6.16827C79.3771 5.50932 80.3147 5.50933 80.5022 5.50933C80.9597 5.48883 81.3983 5.32078 81.7524 5.0303C82.0649 4.85038 82.0024 4.61087 81.8149 4.37136C81.5688 4.15994 81.278 4.007 80.9644 3.92404C80.6507 3.84108 80.3223 3.83024 80.0039 3.89234M44.0628 9.64C46.4827 8.73967 48.6186 7.21011 50.2503 5.20906L50.8129 5.6285C50.8129 5.6285 51.5629 5.32882 51.4379 3.65224L51.0004 3.17322C51.0004 3.17322 51.5004 1.79574 50.6878 1.13738C49.8753 0.418851 48.7502 1.43706 48.4376 1.79633C48.1251 2.15559 47.4375 3.4729 49.2502 4.79021C49.2502 4.79021 47.6876 7.36524 42.6876 9.522C42.5973 9.57556 42.5304 9.66102 42.5001 9.76151C42.5001 9.88127 42.9377 10.0612 44.0628 9.64176M49.5002 2.15676C50.0003 1.73733 50.6879 2.69595 49.6878 3.1148C49.5002 3.17322 49.0002 2.51603 49.5002 2.15676ZM38.7515 20.8392C38.7515 21.1984 38.689 21.4981 38.939 21.4981C40.0016 21.3784 40.5642 17.7857 40.6267 14.193C40.5956 11.5953 40.302 9.00726 39.7504 6.46854C39.6254 5.86976 39.5629 5.45032 39.9379 5.21081C40.313 4.91113 40.7505 5.21081 40.938 5.09106C41.1256 4.9713 40.938 4.73179 40.938 4.73179C40.938 4.73179 38.8128 1.25889 38.6253 1.07897C38.5753 1.0298 38.5079 1.00225 38.4378 1.00225C38.3676 1.00225 38.3003 1.0298 38.2502 1.07897L37.1876 2.81571C37.882 5.53463 38.4039 8.29469 38.7503 11.0794C39.3129 14.9717 38.8128 20.4805 38.7503 20.8397M1.68809 6.58595C3.47225 5.90877 5.04605 4.77265 6.25047 3.29239L6.68803 3.59207C6.68803 3.59207 7.25058 3.35256 7.12557 2.09484L6.81304 1.73558C6.81304 1.73558 7.18807 0.717363 6.62551 0.238342C6.00045 -0.300849 5.18787 0.418267 5.00035 0.717363C4.81283 0.956873 4.25028 1.97509 5.62542 2.99563C5.62542 2.99563 4.4378 4.91172 0.81301 6.52871C0.778424 6.54537 0.748737 6.57069 0.726832 6.60222C0.704926 6.63375 0.691554 6.6704 0.688003 6.70863C0.562991 6.76705 0.875508 6.88855 1.68809 6.58887M5.75043 0.900209C6.12547 0.600528 6.75054 1.31964 5.93796 1.67891C5.75044 1.79867 5.31288 1.19989 5.75043 0.900209ZM76.7501 4.19377C78.0617 3.32547 79.4177 2.52602 80.8124 1.79867C81.047 1.67466 81.2384 1.48227 81.3612 1.24702C81.484 1.01176 81.5324 0.744744 81.5 0.481358C79.6637 1.07985 77.9643 2.03647 76.5001 3.2959C75.875 3.77492 76.6251 4.19435 76.7501 4.19435M52.3749 9.46358C51.8124 9.64351 51.4987 8.38579 51.4403 8.08611C51.3819 7.78643 51.3153 7.48733 50.8777 7.60709C50.3777 7.72684 50.6902 8.20586 50.7527 8.50554C50.8639 8.87678 50.9461 9.25607 50.9986 9.64C50.9766 9.72926 50.9296 9.81041 50.8632 9.87401C50.7968 9.93761 50.7137 9.98105 50.6236 9.99927C49.7473 10.1792 49.811 8.44245 49.811 8.44245C49.811 8.44245 49.686 8.14277 49.436 8.14277C49.186 8.14277 48.9359 8.50204 48.9359 8.56221C49.055 9.15379 49.2222 9.73464 49.436 10.299C49.811 11.3767 50.6236 11.1372 51.0611 11.0175C51.4987 10.8977 51.6862 10.299 51.8112 10.2388C51.9987 10.1804 52.9988 10.3585 53.1864 9.87952C53.5614 8.62179 52.6863 7.60124 52.3738 7.2449C52.1237 6.88563 51.8112 7.2449 51.8112 7.2449C52.3113 7.84368 52.9363 9.28074 52.3738 9.46066M9.18829 29.8804L6.438 37.6049H7.93815L8.50071 35.8682H11.3129L11.938 37.6049H13.5006L10.6908 29.8804H9.19062H9.18829ZM9.00076 34.5538L9.93544 31.6796L10.9355 34.5538H9.00076ZM91.563 37.6078H93.0006V34.3113H95.9384V32.994H93.0006V31.1959H96.3753V29.8804H91.563V37.6049V37.6078ZM101.688 34.1945H105.251V32.8743H101.688V31.1375H105.502V29.8202H100.25V37.5447H105.625V36.2876H101.687V34.1916L101.688 34.1945ZM83.0002 14.6709L85.8153 12.0351C85.8153 12.0351 86.0653 19.2204 85.8153 20.8976C85.5652 22.5747 86.9404 20.179 87.0654 18.2028C87.1904 16.2265 87.1279 10.7178 87.1279 10.7178C87.1279 10.7178 94.2548 4.13126 95.1281 0.837703C95.3157 -0.000583607 94.7531 0.238926 94.5031 0.478436C94.3155 0.717947 88.8156 7.54692 86.9404 8.80172L86.4403 5.32882C86.4403 5.32882 86.6279 4.90938 86.9404 5.08931C87.2529 5.26923 87.3154 5.44857 87.503 5.32882C87.5572 5.28816 87.598 5.23226 87.6203 5.16826C87.6426 5.10426 87.6452 5.03508 87.628 4.96955L85.817 0.837703C85.817 0.837703 85.6295 0.538023 85.442 0.717948C85.2545 0.957458 84.6294 2.27477 84.6294 2.27477C84.6294 2.27477 85.942 7.00656 85.692 9.99927L81.9422 13.4126L73.6253 5.86859C73.6253 5.86859 73.3128 5.38957 73.8129 5.3294C74.3129 5.26923 74.3754 5.02972 74.0004 4.73062C73.6254 4.49111 69.813 2.15559 69.813 2.15559L70.0006 4.49228L80.7493 14.7316C80.7493 14.7316 78.8116 16.1091 78.8742 18.2045C78.9367 20.3 79.6867 20.4828 80.6851 20.5412C81.1002 20.5589 81.5146 20.4934 81.904 20.3487C82.2935 20.2039 82.65 19.9828 82.9528 19.6982C83.2556 19.4137 83.4984 19.0716 83.667 18.6919C83.8356 18.3122 83.9267 17.9026 83.9348 17.4872C83.9903 16.9784 83.9355 16.4637 83.7742 15.9781C83.6129 15.4924 83.3489 15.0472 83.0002 14.6726M81.5625 18.2057C80.5624 18.3255 80.1874 18.086 80.1874 17.7863C80.2754 17.3326 80.476 16.9084 80.771 16.5526C81.0659 16.1969 81.4455 15.921 81.875 15.7504C81.875 15.7504 82.8097 16.469 82.8097 16.8282C82.7829 17.1637 82.6457 17.4809 82.4195 17.7301C82.1933 17.9794 81.8909 18.1466 81.5596 18.2057M25.4382 29.7606C24.9233 29.761 24.4135 29.8628 23.938 30.0603C23.5729 30.2206 23.2521 30.4672 23.0034 30.7788C22.7243 31.0922 22.5117 31.4589 22.3783 31.8566C22.1642 32.4933 22.0586 33.1613 22.0658 33.8329C22.0021 34.8747 22.3362 35.9019 23.0004 36.707C23.3218 37.0474 23.7093 37.3185 24.1392 37.5038C24.5691 37.6891 25.0323 37.7847 25.5004 37.7847C25.9685 37.7847 26.4317 37.6891 26.8616 37.5038C27.2915 37.3185 27.679 37.0474 28.0004 36.707C28.6649 35.8786 28.998 34.8329 28.935 33.7727C29.0082 32.7113 28.674 31.662 28.0004 30.8384C27.6719 30.4901 27.2742 30.2143 26.8329 30.0287C26.3916 29.8431 25.9163 29.7518 25.4376 29.7606M26.8127 35.7484C26.6561 35.9636 26.4484 36.1365 26.2084 36.2515C25.9683 36.3665 25.7035 36.4201 25.4376 36.4073C25.1647 36.4071 24.8951 36.3482 24.647 36.2345C24.3989 36.1208 24.1782 35.955 24 35.7484C23.5953 35.1718 23.3971 34.4754 23.4374 33.7721C23.3781 33.0669 23.5781 32.3642 24 31.7959C24.174 31.5843 24.3938 31.415 24.6429 31.3008C24.8919 31.1867 25.1637 31.1306 25.4376 31.1369C25.7105 31.1372 25.9801 31.1961 26.2282 31.3098C26.4763 31.4235 26.697 31.5893 26.8752 31.7959C27.2739 32.3732 27.4514 33.0747 27.3753 33.7721C27.4157 34.4754 27.2174 35.1718 26.8127 35.7484ZM110.125 34.7904H111.753V35.7484C111.517 35.9291 111.266 36.0893 111.002 36.2274C110.723 36.3386 110.427 36.3996 110.126 36.4073C109.852 36.4137 109.581 36.3576 109.331 36.2435C109.082 36.1293 108.863 35.96 108.689 35.7484C108.268 35.1341 108.07 34.3947 108.126 33.6524C108.075 32.9666 108.275 32.2858 108.689 31.7363C108.875 31.5235 109.106 31.3542 109.365 31.2404C109.625 31.1265 109.906 31.0709 110.189 31.0774C110.371 31.0666 110.554 31.0928 110.725 31.1546C110.897 31.2163 111.055 31.3123 111.189 31.4366C111.445 31.6868 111.638 31.9949 111.751 32.3351L113.189 32.0354C113.094 31.3805 112.762 30.7836 112.254 30.3588C111.66 29.9203 110.928 29.7081 110.192 29.7601C109.608 29.7369 109.028 29.8604 108.504 30.1193C107.928 30.4705 107.454 30.9658 107.129 31.5564C106.811 32.2291 106.661 32.9687 106.691 33.712C106.673 34.4157 106.823 35.1136 107.129 35.7478C107.353 36.3652 107.799 36.8773 108.379 37.1849C108.957 37.5518 109.632 37.7394 110.317 37.7241C110.898 37.7202 111.472 37.598 112.004 37.3648C112.488 37.1662 112.933 36.8823 113.317 36.5265V33.4742H110.255L110.13 34.7915L110.125 34.7904ZM127.124 29.8804V31.1959H129.187V37.6049H130.625V31.1959H132.687V29.8804H127.124ZM124.5 0.240095C124.45 0.190932 124.382 0.163384 124.312 0.163384C124.242 0.163384 124.175 0.190932 124.125 0.240095L123.062 1.97684C123.637 4.16294 124.076 6.38283 124.375 8.62355L124.562 10.1208V10.2405C124.625 10.66 124.687 11.139 124.75 11.5578L125.125 14.4921C125.125 14.4921 125.625 16.7704 123.687 17.0672C121.249 17.4264 121.562 15.1511 121.687 14.8514C121.749 14.5517 121.624 14.3724 121.374 14.5517C118.812 16.528 116.876 17.7255 114.624 17.7255C111.125 17.7839 111.562 15.6295 111.5 15.0909C111.437 14.432 111 14.5517 110.874 14.7316C110.687 14.9116 109.374 17.6659 107.437 17.486C105.062 17.2465 105.5 14.4921 105.5 13.7134C105.5 8.62355 104.374 0.839455 104.374 0.599944C104.374 0.360434 104.062 0.360434 104.062 0.360434L103.062 2.09718C103.766 6.21362 104.163 10.3769 104.249 14.5523C103.456 15.692 102.4 16.6242 101.171 17.2703C99.9419 17.9164 98.5754 18.2574 97.1867 18.2647C94.749 18.2647 93.3119 17.6058 92.5619 16.9474C92.2795 16.739 92.0485 16.4688 91.8865 16.1575C91.7245 15.8462 91.6358 15.5019 91.6272 15.1511C91.5647 13.9535 92.6898 12.6976 92.6898 12.6976C92.6859 12.5735 92.6491 12.4527 92.5832 12.3475C92.5173 12.2423 92.4247 12.1564 92.3148 12.0988C91.9397 11.9189 91.0646 12.5182 90.5038 15.5717C89.9413 18.5656 93.3166 20.2451 95.3163 20.3035C101.316 20.543 103.878 17.1297 104.128 16.9503C104.316 16.7704 104.941 16.2318 105.005 17.1898C105.035 17.8935 105.34 18.5572 105.854 19.0385C106.369 19.5199 107.051 19.7807 107.755 19.7649C108.288 19.7845 108.814 19.6474 109.27 19.3707C109.725 19.094 110.09 18.6898 110.318 18.2081C110.505 17.9685 110.755 17.9084 110.943 18.2665C111.476 18.9136 112.181 19.3973 112.977 19.6621C113.772 19.9269 114.626 19.9621 115.441 19.7637C119.316 18.9254 120.191 17.1887 120.628 17.1887C121.505 17.1887 120.941 19.0452 123.254 19.0452C126.004 19.0452 126.503 15.7516 126.566 15.3328C126.566 15.1528 126.378 12.8179 126.128 10.4841C126.076 8.86082 125.93 7.24189 125.691 5.63551C125.566 5.03673 125.503 4.61729 125.878 4.37778C126.253 4.0781 126.691 4.37778 126.878 4.25803C127.066 4.13827 126.878 3.89876 126.878 3.89876C126.878 3.89876 124.691 0.485447 124.503 0.245937M80.2504 29.8804H78.3128L75.5 33.2937V29.8804H74.0623V37.6049H75.5V35.2682L76.6251 33.9509L78.5628 37.6037H80.3737L77.5615 32.8719L80.2504 29.8804ZM121.251 20.3C120.804 20.1079 120.345 19.9478 119.875 19.821C119.727 19.7877 119.572 19.8084 119.438 19.8794C119.25 20.0593 118.375 21.1967 118.375 21.1967C118.375 21.1967 118.313 21.4362 118.438 21.5559C118.625 21.6144 120.249 22.3346 120.249 22.3346L121.436 20.8976C121.436 20.8392 121.561 20.4781 121.249 20.2988M116.874 32.9333L115.249 29.8792H113.563L116.126 34.3703V37.6037H117.563V34.3709L120.125 29.8798H118.5L116.874 32.9333ZM124.999 29.999C124.442 29.9031 123.877 29.863 123.312 29.8792H121.061V37.6049H122.501V34.6706H123.436C123.938 34.671 124.44 34.631 124.936 34.5508C125.207 34.481 125.462 34.359 125.686 34.1916C125.955 33.9866 126.169 33.7194 126.311 33.4129C126.502 33.0437 126.588 32.6298 126.561 32.2153C126.597 31.6802 126.442 31.1497 126.124 30.7181C125.819 30.3834 125.431 30.1354 124.999 29.9996M124.811 32.8737C124.712 33.0409 124.557 33.168 124.374 33.233C124.006 33.3251 123.627 33.3654 123.248 33.3527H122.501V31.1375H123.189C123.523 31.1125 123.86 31.1321 124.189 31.1959C124.415 31.2404 124.616 31.3687 124.752 31.5552C124.908 31.7629 124.995 32.0141 125.002 32.2737C125.006 32.4885 124.94 32.6988 124.814 32.8725M87.0017 29.7589C86.4868 29.7592 85.9771 29.8611 85.5016 30.0586C85.1491 30.2395 84.8324 30.483 84.5669 30.7771C84.2879 31.0905 84.0753 31.4571 83.9418 31.8549C83.6976 32.4837 83.591 33.1576 83.6293 33.8311C83.5656 34.873 83.8997 35.9002 84.564 36.7053C84.8721 37.0623 85.2572 37.3447 85.6903 37.5314C86.1234 37.7181 86.5931 37.8041 87.0642 37.7831C87.5345 37.7978 88.0023 37.7089 88.4344 37.5227C88.8665 37.3364 89.2523 37.0573 89.5645 36.7053C90.2291 35.8769 90.5622 34.8311 90.4992 33.771C90.5723 32.7096 90.2381 31.6602 89.5645 30.8367C89.2398 30.4835 88.8428 30.2044 88.4006 30.0184C87.9584 29.8324 87.4812 29.7439 87.0017 29.7589ZM88.4394 35.7466C88.2827 35.9618 88.075 36.1347 87.835 36.2497C87.595 36.3648 87.3301 36.4183 87.0642 36.4056C86.7993 36.4116 86.5368 36.3551 86.2978 36.2406C86.0589 36.1261 85.8503 35.9569 85.6891 35.7466C85.2844 35.17 85.0862 34.4737 85.1265 33.7704C85.0673 33.0651 85.2673 32.3625 85.6891 31.7941C85.8631 31.5825 86.0829 31.4132 86.332 31.2991C86.5811 31.1849 86.8528 31.1289 87.1267 31.1352C87.3996 31.1354 87.6693 31.1944 87.9173 31.3081C88.1654 31.4218 88.3861 31.5875 88.5644 31.7941C88.963 32.3715 89.1405 33.073 89.0644 33.7704C88.9967 34.4656 88.7838 35.1389 88.4394 35.7466ZM38.3753 16.7669C38.6253 14.3134 36.9376 13.773 36.125 13.6533C35.3124 13.5335 35.0624 13.9529 34.3141 14.0125C34.2409 14.0219 34.1665 14.0099 34.1 13.978C34.0334 13.9461 33.9776 13.8956 33.9391 13.8326C33.9597 11.1097 33.7926 8.3886 33.439 5.68867C33.314 5.08989 33.2515 4.67045 33.6265 4.43094C34.0016 4.13126 34.4391 4.43094 34.6266 4.31119C34.8141 4.19143 34.6266 3.95192 34.6266 3.95192C34.6266 3.95192 32.5014 0.479021 32.3764 0.299096C32.3264 0.249933 32.259 0.222385 32.1889 0.222385C32.1187 0.222385 32.0514 0.249933 32.0014 0.299096L30.9388 2.03584C31.4324 3.91033 31.8288 5.80909 32.1264 7.7245C32.4389 10.2394 32.6889 12.874 32.5639 14.0715C32.3764 15.928 30.6262 15.8083 30.5637 15.5688C30.5012 15.3293 30.8763 14.5506 30.9388 13.5925C31.0013 12.6345 29.6886 10.9579 27.2515 10.8381C24.8143 10.7184 22.8118 12.874 22.3765 13.353C21.814 14.0119 21.1889 14.9098 20.8139 15.449C20.4389 15.2095 19.3762 14.1913 18.1886 14.3712C16.876 14.5511 16.2509 14.9104 14.5638 16.2873C13.1262 17.545 10.9391 20.6587 8.87634 20.5985C6.81363 20.4787 7.43869 17.2453 7.43869 17.2453C9.06217 16.9842 10.6149 16.3931 12.0011 15.5086C13.6887 14.3706 15.4383 12.9937 15.5645 11.5567C15.627 10.4789 14.8144 9.76034 13.5643 9.58042C12.1267 9.34091 11.4391 9.76034 10.7521 9.28074C10.4396 9.04123 10.8146 8.3227 11.2522 7.84368C12.7523 6.28686 13.6899 6.1671 14.0019 6.22669C14.4394 6.28511 13.9394 6.82546 14.6894 6.88563C15.4395 7.00539 15.502 6.64612 15.6895 5.62791C15.8771 4.6097 15.5645 3.95134 14.6269 4.07109C13.261 4.29834 11.9847 4.89947 10.9396 5.80784C9.94856 6.76724 9.31045 8.03315 9.12869 9.40049C9.00368 10.598 9.69125 11.1968 10.8812 11.4965C12.1938 11.7962 13.2565 11.3767 13.5065 11.9159C13.7565 12.4551 11.0629 14.8502 7.12732 15.3894C5.31639 15.6289 3.31501 15.2697 1.93987 13.5931C0.814754 12.2758 1.56484 10.4193 1.81486 9.88068C2.31491 8.86247 3.19001 6.70688 2.1274 7.42716C1.06479 8.20586 -0.99735 12.159 0.564726 14.4331C2.62744 17.427 7.06481 17.1875 7.06481 17.1875C7.06481 17.1875 6.13014 19.044 6.18856 19.8823C6.25106 20.9005 6.62611 22.3972 8.5013 22.4573C10.5015 22.5157 11.4385 21.4391 13.2512 19.7625C15.0037 18.2057 16.6885 16.8282 17.251 16.5887C18.3136 16.1693 19.6888 17.1875 19.6888 17.1875C19.587 17.3478 19.5428 17.538 19.5638 17.7267C19.6265 17.9729 19.7102 18.2132 19.8138 18.4452L20.5639 17.7863C22.8766 19.2835 25.2512 18.565 26.6889 18.3255C28.4383 18.0076 30.1542 17.5264 31.8138 16.8884C32.1942 16.7451 32.5953 16.6642 33.0015 16.6489C33.5015 16.5291 33.7515 17.5474 34.1891 18.086C34.6074 18.549 35.1912 18.8288 35.8142 18.8647C36.4255 18.8963 37.0267 18.6992 37.5005 18.3117C37.9743 17.9242 38.2868 17.3741 38.377 16.7687M25.6269 16.5291C24.5018 16.8288 22.6271 17.3078 22.1896 16.2295C22.41 15.679 22.7265 15.172 23.1243 14.7322C24.1869 13.5347 25.562 12.454 26.8116 12.6964C28.0617 12.8763 29.3118 14.0137 29.3118 14.4331C29.2493 15.0921 27.8117 15.9304 25.6245 16.5291M35.7517 16.8253C35.2517 16.4661 35.2517 15.987 35.4392 15.8071C35.6892 15.6272 36.2518 15.8655 36.5018 16.1664C36.6893 16.5256 36.2518 17.1846 35.7517 16.8253ZM39.064 29.8792L36.3143 37.6037H37.8145L38.377 35.867H41.1892L41.8143 37.6037H43.3769L40.5647 29.8792H39.0646H39.064ZM38.8765 34.5526L39.8112 31.6785L40.7458 34.5526H38.8765ZM45.6242 29.94H44.1866V37.6049H49.124V36.2876H45.5606V29.94H45.6242ZM34.2504 35.0299L31.3757 29.8804H30.0006V37.6049H31.312V32.5746L34.1868 37.6043H35.6244V29.8804H34.2504V35.0299ZM33.8129 20.1796C33.9923 20.1 34.1393 19.9619 34.2302 19.7879C34.321 19.6139 34.3502 19.4143 34.3129 19.2216C32.9201 19.6708 31.6261 20.3822 30.5006 21.3176C30.0631 21.6769 30.6256 22.0361 30.6881 21.9765C31.6974 21.3232 32.7404 20.7236 33.8129 20.1802M71.2501 35.0305L68.3754 29.881H67.0003V37.6049H68.3129V32.5746L71.1251 37.6043H72.5628V29.8804H71.2501V35.0305ZM75.9375 17.5456C75.875 14.9706 72.8128 14.7311 72.8128 14.7311C73.1253 14.4916 73.7475 13.4138 73.9379 11.6174C74.1254 9.58159 72.9378 7.90501 72.6253 7.84484C72.3127 7.78467 71.1876 10.9585 70.9376 12.2758C70.6876 13.6533 70.0029 13.8326 70.0029 13.8326C69.3778 14.3718 68.1277 14.7311 64.5654 15.2101C60.9407 15.6891 58.8154 14.0721 58.1279 12.5153C57.4403 10.9585 56.2527 1.01821 56.1902 0.419435C56.0652 -0.179341 55.8151 0.0601694 55.6276 0.29968C55.3647 1.84266 55.2808 3.41083 55.3776 4.97306C55.5026 6.82955 56.1277 9.1049 56.3123 10.6617C56.3711 11.4955 56.1426 12.3242 55.6647 13.0099C55.1868 13.6956 54.4884 14.1969 53.6858 14.4302C52.8732 14.55 52.7511 14.9092 52.7511 14.9092C52.7511 14.9092 52.3761 16.5858 52.5011 16.7056C52.6261 16.8253 55.2508 16.764 55.5633 16.8253C55.8759 16.8867 56.6885 16.9451 56.4396 17.4241C56.3146 17.6636 54.6287 19.5797 50.8146 20.2982C49.5792 20.5677 48.3002 20.5677 47.0648 20.2982C46.1334 20.0657 45.301 19.541 44.6896 18.801C42.9371 16.1664 45.1271 13.412 44.9396 13.1725C44.377 12.3938 42.6894 15.4508 42.6894 17.0047C42.755 17.9107 43.0396 18.7872 43.5186 19.559C43.9977 20.3307 44.6569 20.9747 45.4397 21.4356C46.627 21.9409 47.9055 22.1964 49.1958 22.1864C50.4861 22.1763 51.7606 21.9009 52.9398 21.3772C57.0022 19.7006 58.1273 17.0058 57.9398 16.1675C57.843 15.872 57.6606 15.6118 57.4158 15.4199C57.171 15.228 56.8748 15.1131 56.5646 15.0897C56.2521 15.0313 56.2521 14.7901 56.3771 14.5506C56.5021 14.311 56.7521 14.2509 57.1897 14.5506C57.8147 15.0296 59.1274 17.1256 63.0647 17.3651C64.8849 17.374 66.6963 17.1116 68.4391 16.5864C68.7516 16.4666 70.1268 15.7481 70.25 16.528C70.5001 17.6659 70.8126 19.6416 73.5623 19.9413C73.9998 20.061 76 20.3 75.9375 17.5456ZM72.4377 11.1974C72.6878 11.139 73.1253 11.7366 72.8128 12.395C72.5002 13.0533 72.2502 13.4728 71.7502 13.1135C71.2501 12.8138 71.9377 11.3767 72.4377 11.1974ZM72.8128 17.7839C72.4377 17.604 71.8127 17.0654 72.1252 16.7061C72.3127 16.4666 74.0629 16.7061 74.3129 17.6046C74.3754 18.024 73.1253 17.9639 72.8128 17.7845M57.3129 33.5326C57.6157 33.3815 57.8741 33.1545 58.063 32.8737C58.2401 32.5644 58.3267 32.2116 58.313 31.8555C58.335 31.5362 58.2467 31.2191 58.063 30.957C57.9455 30.6861 57.7496 30.4566 57.5005 30.2981C57.2793 30.1373 57.0215 30.0343 56.7504 29.9984C56.3364 29.9403 55.9179 29.9207 55.5003 29.94H52.6875V37.6645H55.0627C55.6259 37.6914 56.1904 37.6719 56.7504 37.6061C57.0857 37.5608 57.4058 37.4378 57.6851 37.2468C57.9533 37.0294 58.1707 36.7559 58.322 36.4456C58.4734 36.1353 58.5551 35.7957 58.5613 35.4505C58.5702 35.0488 58.4616 34.6533 58.2488 34.3125C58.1652 34.1183 58.037 33.9466 57.8746 33.8113C57.7122 33.676 57.5202 33.5809 57.3141 33.5338M54.1269 31.1387H56.1896C56.4396 31.1971 56.6271 31.2585 56.6896 31.4384C56.8246 31.6076 56.8914 31.8212 56.8771 32.0372C56.8818 32.2519 56.8159 32.4622 56.6896 32.6359C56.5481 32.805 56.3463 32.9124 56.1271 32.9356H54.1269V31.1375V31.1387ZM56.9391 35.9289C56.8121 36.0837 56.6354 36.1896 56.439 36.2286C56.1102 36.2958 55.7734 36.3155 55.4389 36.287H54.1263V34.1916H55.2514C55.6715 34.1773 56.0917 34.2176 56.5015 34.3113C56.6849 34.3763 56.8397 34.5034 56.9391 34.6706C57.0456 34.851 57.0895 35.0615 57.0641 35.2694C57.129 35.3751 57.1521 35.5012 57.129 35.623C57.1059 35.7449 57.0382 35.8543 56.9391 35.9289ZM61.8765 29.8804L59.1268 37.6049H60.6269L61.1895 35.8682H64.0017L64.6268 37.6049H66.1871L63.3749 29.8804H61.8747H61.8765ZM61.6265 34.5538L62.5612 31.6796L63.5613 34.5538H61.6265ZM60.4377 20.3596C60.681 20.2459 60.8801 20.0553 61.0044 19.8173C61.1287 19.5792 61.1711 19.3069 61.1253 19.0423C59.3023 19.6707 57.6082 20.6242 56.1253 21.8568C55.5628 22.3358 56.3128 22.7552 56.4379 22.7552C57.7239 21.8806 59.0595 21.0803 60.4377 20.3596Z" fill="white"/>
</svg>
