<svg width="137" height="40" viewBox="0 0 137 40" fill="none" xmlns="http://www.w3.org/2000/svg">
<path d="M8.20595 17.2908L2.11339 11.1908L2.35214 10.7039C2.98881 9.39354 3.85538 8.17176 4.77502 7.04737L5.30557 6.40106L16.5445 17.6538C17.1635 18.2824 17.5172 19.1235 17.5172 20.0089C17.5172 20.8853 17.1635 21.7264 16.5445 22.3462L5.30557 33.6078L4.77502 32.9615C3.85538 31.8371 2.98881 30.6153 2.35214 29.3139L2.11339 28.8181L8.20595 22.718H0.282964L0.176852 22.0806C0.0618984 21.3988 0 20.6994 0 20.0089C0 19.3094 0.0618984 18.61 0.176852 17.9283L0.282964 17.2908H8.20595ZM22.6813 8.21603L28.7739 2.11598L29.2602 2.35502C30.5689 2.99247 31.7804 3.86012 32.8946 4.78088L33.5489 5.31209L22.3188 16.5737C21.691 17.1934 20.8509 17.5387 19.9666 17.5387C19.0912 17.5387 18.2512 17.1934 17.6233 16.5737L6.39322 5.31209L7.03873 4.78088C8.16174 3.86012 9.37318 2.99247 10.6819 2.35502L11.1682 2.11598L17.2608 8.21603V0.283311L17.8975 0.177069C18.5872 0.0619743 19.2769 0 19.9666 0C20.6652 0 21.3549 0.0619743 22.0447 0.177069L22.6813 0.283311V8.21603ZM31.7273 22.718L37.8199 28.8092L37.59 29.2961C36.9533 30.6153 36.0867 31.8371 35.1671 32.9526L34.6277 33.6078L23.3976 22.3462C22.7698 21.7264 22.4249 20.8853 22.4249 20C22.4249 19.1147 22.7698 18.2736 23.3976 17.6538L34.6277 6.39221L35.1671 7.04737C36.0867 8.1629 36.9533 9.38468 37.59 10.695L37.8199 11.1819L31.7273 17.282H39.6503L39.7653 17.9194C39.8802 18.61 39.9333 19.3006 39.9333 20C39.9333 20.6994 39.8802 21.39 39.7653 22.0717L39.6503 22.718H31.7273ZM17.2608 31.784L11.1682 37.884L10.6819 37.645C9.37318 37.0164 8.16174 36.1399 7.03873 35.2191L6.39322 34.6879L17.6233 23.4351C18.2512 22.8065 19.0912 22.4613 19.9666 22.4613C20.8509 22.4613 21.691 22.8065 22.3099 23.4351L33.5489 34.6879L32.9034 35.2191C31.7804 36.1399 30.5689 37.0164 29.2514 37.645L28.765 37.884L22.6725 31.784V39.7167L22.0447 39.8229C21.3549 39.9469 20.6652 40 19.9666 40C19.2769 40 18.5783 39.9469 17.8975 39.8229L17.2608 39.7167V31.784Z" fill="#85878B"/>
<path d="M0.759766 20.0089C0.759766 19.3626 0.812821 18.7251 0.927776 18.0522H10.0445L3.04116 11.0314C3.60709 9.86277 4.40293 8.70297 5.35793 7.53431L16.0044 18.1939C16.4996 18.6897 16.7472 19.3537 16.7472 20.0089C16.7472 20.6552 16.4996 21.3103 16.0044 21.8061L5.35793 32.4745C4.40293 31.3059 3.60709 30.1372 3.04116 28.9774L10.0445 21.9566H0.927776C0.812821 21.2838 0.759766 20.6375 0.759766 20.0089Z" fill="white"/>
<path d="M19.966 0.761398C20.6027 0.761398 21.2482 0.814519 21.9114 0.929614V10.0664L28.9236 3.03674C30.0908 3.60336 31.2492 4.40903 32.4164 5.37406L21.7699 16.0336C21.2747 16.5294 20.6203 16.7773 19.966 16.7773C19.3116 16.7773 18.6573 16.5294 18.1709 16.0336L7.52441 5.37406C8.6828 4.40903 9.85002 3.60336 11.0172 3.03674L18.0206 10.0664V0.929614C18.6838 0.814519 19.3382 0.761398 19.966 0.761398Z" fill="white"/>
<path d="M39.173 20.0089C39.173 20.6375 39.12 21.2838 39.0138 21.9566H29.8971L36.9005 28.9774C36.3345 30.1372 35.5298 31.3059 34.5748 32.4745L23.9283 21.8061C23.442 21.3103 23.1855 20.6552 23.1855 20.0089C23.1855 19.3537 23.442 18.6897 23.9283 18.1939L34.5748 7.53431C35.5298 8.70297 36.3345 9.86277 36.9005 11.0314L29.8971 18.0522H39.0138C39.12 18.7251 39.173 19.3626 39.173 20.0089Z" fill="white"/>
<path d="M19.966 39.2386C19.3382 39.2475 18.6838 39.1943 18.0206 39.0792V29.9425L11.0172 36.9633C9.85002 36.3966 8.6828 35.5998 7.52441 34.6348L18.1709 23.9752C18.6573 23.4706 19.3116 23.2315 19.966 23.2315C20.6203 23.2315 21.2747 23.4706 21.7699 23.9752L32.4164 34.6348C31.2492 35.5998 30.0908 36.3966 28.9236 36.9633L21.9114 29.9425V39.0792C21.2482 39.1943 20.6027 39.2475 19.966 39.2386Z" fill="white"/>
<path fill-rule="evenodd" clip-rule="evenodd" d="M134.002 17.7247C133.409 18.4418 132.843 18.9818 132.083 19.2917C131.11 19.699 131.871 19.7167 132.49 19.9203C140.2 22.4347 137.521 34.2098 127.927 34.2098H111.347V5.66622H127.025C133.878 5.66622 138.167 12.7844 134.002 17.7247ZM62.35 4.9845C71.2722 4.9845 77.1084 11.7131 77.1084 20C77.1084 24.0549 75.6847 27.7291 73.2088 30.4294L76.9492 34.2275C76.9492 34.2275 75.5697 35.5024 73.7835 35.5024C71.9973 35.5024 70.8301 34.2807 70.8301 34.2807L69.7336 33.174C67.6291 34.3426 65.1355 35.0155 62.35 35.0155C53.5428 35.0155 47.6094 28.2869 47.6094 20C47.6094 11.7131 53.4278 4.9845 62.35 4.9845ZM67.6025 24.7543L69.9193 27.1005C71.2457 25.2147 71.9973 22.7623 71.9973 20C71.9973 13.6432 68.1331 8.99513 62.35 8.99513C56.567 8.99513 52.7116 13.6432 52.7116 20C52.7116 26.3037 56.62 31.0049 62.35 31.0049C63.9329 31.0049 65.3654 30.6419 66.6299 29.9956L61.3154 24.5772C64.9232 21.8238 67.6025 24.7543 67.6025 24.7543ZM81.061 5.68393H84.0056C85.4646 5.68393 86.7468 6.56042 87.3746 7.18902L101.938 26.2063V5.68393H106.528V34.2098H103.645C102.195 34.2098 101.753 33.4661 101.134 32.8375L85.7211 12.988V34.2098H81.061V5.68393ZM116.184 29.9867H127.98C130.173 29.9867 131.968 28.1806 131.968 25.9849V25.6485C131.968 23.5325 129.147 22.0009 127.016 22.0009H121.074C119.12 22.0009 117.873 20.301 117.873 17.7424H126.618C128.811 17.7424 130.597 15.954 130.597 13.7494V13.413C130.597 11.4121 128.961 9.76538 126.945 9.76538H116.184V29.9867Z" fill="white"/>
</svg>
