<svg width="133" height="40" viewBox="0 0 133 40" fill="none" xmlns="http://www.w3.org/2000/svg">
<path fill-rule="evenodd" clip-rule="evenodd" d="M121.883 39.1578L121.715 37.8209C121.704 37.6946 121.673 37.6103 121.61 37.5788C121.568 37.5261 121.462 37.5261 121.336 37.5367H121.273L121.22 37.5472H121.115L120.925 37.5788C120.768 37.5998 120.62 37.5998 120.504 37.5998C120.188 37.5998 119.988 37.5261 119.873 37.3787C119.757 37.2314 119.715 36.9471 119.715 36.526V22.6828C119.715 22.5039 119.683 22.3986 119.599 22.346C119.536 22.2933 119.42 22.2828 119.241 22.2828H118.494C117.967 22.3144 116.946 22.5881 116.936 24.0935V37.1998C116.936 38.2314 117.136 38.9578 117.546 39.3684C117.936 39.7895 118.588 40 119.462 40C119.694 40 119.946 39.979 120.231 39.9579C120.325 39.9579 120.431 39.9474 120.536 39.9368C120.925 39.8842 121.283 39.8105 121.599 39.6842C121.747 39.6 121.841 39.5368 121.873 39.4842C121.904 39.4315 121.904 39.3157 121.873 39.1578H121.883ZM57.6361 22.9987C57.8572 22.9987 57.9941 23.0197 58.0467 23.125C58.1099 23.2092 58.1414 23.346 58.1414 23.5355V25.0199C58.1414 25.2304 58.1099 25.3778 58.0362 25.4515C57.973 25.5357 57.8467 25.5673 57.6361 25.5673H51.3725C50.7724 25.5673 50.3513 25.7041 50.1197 25.9673C49.8671 26.2305 49.7408 26.6305 49.7408 27.1358V29.9255H56.7624C56.9729 29.9255 57.0993 29.9676 57.1519 30.0413C57.2045 30.1045 57.2361 30.2519 57.2361 30.4835V31.8415C57.2361 32.0204 57.2045 32.1468 57.1519 32.2415C57.0993 32.3468 56.9729 32.3889 56.7624 32.3889H49.7408V37.8946C49.7408 39.4526 48.6775 39.7158 48.1828 39.7474H47.4353C47.2564 39.7474 47.13 39.7158 47.0353 39.6421C46.9405 39.5789 46.8984 39.4421 46.8984 39.2421V27.3043C46.8984 26.7463 46.9616 26.2094 47.0985 25.6936C47.2248 25.1672 47.4564 24.7251 47.7827 24.3145C48.1091 23.925 48.5512 23.5987 49.067 23.3671C49.5934 23.1145 50.2777 23.0197 51.0567 23.0197H57.6361V22.9987ZM68.0264 38.3788C68.0264 38.7578 67.8791 39.0105 67.5738 39.1578C67.2264 39.3157 66.8685 39.4631 66.4684 39.5684C66.0579 39.6737 65.6578 39.7684 65.2367 39.8316C64.8157 39.8947 64.4051 39.9368 63.9945 39.9579C63.584 39.9895 63.1839 40 62.805 40C61.7838 40 60.9206 39.8842 60.2469 39.6737C59.5626 39.4631 59.0362 39.1789 58.6257 38.8104C58.2362 38.4525 57.952 38.0314 57.8046 37.5472C57.6467 37.0735 57.5624 36.5471 57.5624 36.0207C57.5624 35.4418 57.6677 34.9259 57.8362 34.3996C58.0151 33.8837 58.2993 33.4205 58.6994 33.031C59.1205 32.6521 59.6258 32.3362 60.289 32.0941C60.9417 31.852 61.7312 31.7257 62.6471 31.7257H65.2789V31.3256C65.2789 31.0098 65.2473 30.7466 65.1946 30.4835C65.1315 30.2308 65.0051 30.0203 64.8262 29.8203C64.6367 29.6308 64.3946 29.4729 64.0998 29.3781C63.7735 29.2728 63.3734 29.2097 62.8787 29.2097C62.3418 29.2097 61.7733 29.2623 61.1522 29.3571C60.5101 29.4413 60.0153 29.5571 59.6258 29.6939C59.4468 29.736 59.331 29.7571 59.2468 29.7255C59.1731 29.6939 59.131 29.5992 59.0889 29.4518L58.7731 28.0938C58.7099 27.8411 58.7731 27.6727 58.9731 27.599C59.6258 27.3569 60.3416 27.1569 61.1206 27.0621C61.8996 26.9569 62.6365 26.9042 63.3208 26.9042C64.942 26.9042 66.1316 27.2727 66.8895 27.9991C67.6475 28.736 68.0264 29.7992 68.0264 31.2098V38.3788ZM65.2683 33.8522H63.026C62.7629 33.8522 62.4786 33.8732 62.1733 33.9048C61.8575 33.9364 61.5838 34.0206 61.2996 34.168C61.0364 34.3153 60.7943 34.5048 60.6259 34.7785C60.4469 35.0628 60.3627 35.4418 60.3627 35.9155C60.3627 36.5892 60.5943 37.0735 61.0469 37.3366C61.4996 37.6103 62.0997 37.7577 62.8471 37.7577C62.9418 37.7577 63.0576 37.7577 63.2261 37.7367H63.3103C63.4998 37.7261 63.7103 37.7051 63.9209 37.6735C64.0051 37.663 64.0893 37.6419 64.1735 37.6314C64.3104 37.6103 64.4577 37.5893 64.6156 37.5577C64.8578 37.5051 65.0894 37.4524 65.2789 37.3577V33.8522H65.2683ZM85.0489 39.1578C85.3541 39.0105 85.5015 38.7578 85.5015 38.3788V31.2098C85.5015 29.7992 85.1225 28.736 84.3646 27.9991C83.6066 27.2622 82.4171 26.9042 80.8064 26.9042C80.1221 26.9042 79.3852 26.9569 78.5957 27.0621C77.8167 27.1569 77.1009 27.3569 76.4376 27.599C76.2376 27.6727 76.1639 27.8411 76.2271 28.0938L76.5429 29.4518C76.5955 29.5992 76.6377 29.7045 76.7219 29.7255C76.7956 29.7571 76.9219 29.736 77.0903 29.6939C77.4904 29.5571 77.9851 29.4413 78.6062 29.3571C79.2273 29.2623 79.8063 29.2097 80.3327 29.2097C80.8275 29.2097 81.2485 29.2728 81.5433 29.3781C81.8591 29.4729 82.1012 29.6308 82.2907 29.8203C82.4697 30.0203 82.596 30.2308 82.6487 30.4835C82.7224 30.7466 82.7434 31.0203 82.7434 31.3256V31.7257H80.1221C79.1958 31.7257 78.4062 31.8415 77.743 32.0941C77.1008 32.3362 76.585 32.6415 76.1745 33.031C75.7639 33.4311 75.4797 33.8837 75.3007 34.3996C75.1112 34.9259 75.0165 35.4418 75.0165 36.0207C75.0165 36.5471 75.0902 37.0735 75.2586 37.5472C75.4165 38.0314 75.6902 38.463 76.0902 38.8104C76.4903 39.1789 77.0272 39.4631 77.7114 39.6737C78.3957 39.8842 79.2379 40 80.2695 40C80.6485 40 81.0275 39.9895 81.4486 39.9579C81.8697 39.9368 82.2802 39.8842 82.7118 39.8316C83.1329 39.7684 83.5329 39.6842 83.9435 39.5684C84.3225 39.4631 84.7015 39.3157 85.0383 39.1578H85.0489ZM80.4906 33.8522H82.7434V37.3577C82.5434 37.4524 82.3118 37.5051 82.0697 37.5577C81.9433 37.5788 81.8275 37.5998 81.7117 37.6209C81.5959 37.6419 81.4907 37.663 81.3854 37.6735C81.1538 37.7156 80.9433 37.7261 80.7643 37.7261H80.6485C80.5011 37.7472 80.3959 37.7577 80.3116 37.7577C79.5537 37.7577 78.9536 37.6103 78.501 37.3366C78.0483 37.0735 77.8272 36.5892 77.8272 35.9155C77.8272 35.4418 77.9009 35.0628 78.0904 34.7785C78.2694 34.5154 78.4904 34.3153 78.7747 34.168C79.0378 34.0311 79.3326 33.9364 79.6484 33.9048C79.9432 33.8732 80.2169 33.8522 80.4906 33.8522ZM132.737 38.3788C132.737 38.7578 132.589 39.0105 132.284 39.1578C131.947 39.3157 131.579 39.4631 131.168 39.5684C130.768 39.6737 130.358 39.7684 129.937 39.8316C129.516 39.8947 129.094 39.9368 128.684 39.9579C128.273 39.9895 127.884 40 127.505 40C126.473 40 125.621 39.8842 124.936 39.6737C124.273 39.4631 123.726 39.1789 123.315 38.8104C122.926 38.4525 122.652 38.0314 122.494 37.5472C122.326 37.0735 122.241 36.5471 122.241 36.0207C122.241 35.4418 122.336 34.9259 122.526 34.3996C122.694 33.8837 122.989 33.4205 123.399 33.031C123.799 32.6521 124.326 32.3362 124.978 32.0941C125.621 31.852 126.421 31.7257 127.358 31.7257H129.979V31.3256C129.979 31.0098 129.947 30.7466 129.884 30.4835C129.821 30.2308 129.684 30.0203 129.516 29.8203C129.326 29.6308 129.094 29.4729 128.779 29.3781C128.463 29.2728 128.063 29.2097 127.568 29.2097C127.042 29.2097 126.452 29.2623 125.821 29.3571C125.21 29.4413 124.705 29.5571 124.305 29.6939C124.136 29.736 124.01 29.7571 123.936 29.7255C123.852 29.6939 123.799 29.5992 123.768 29.4518L123.441 28.0938C123.378 27.8411 123.441 27.6727 123.652 27.599C124.305 27.3569 125.02 27.1569 125.799 27.0621C126.589 26.9569 127.326 26.9042 128 26.9042C129.631 26.9042 130.821 27.2727 131.579 27.9991C132.326 28.736 132.716 29.7992 132.716 31.2098V38.3788H132.737ZM129.968 33.8522H127.726C127.452 33.8522 127.168 33.8732 126.873 33.9048C126.568 33.9364 126.284 34.0206 125.999 34.168C125.726 34.3153 125.505 34.5048 125.326 34.7785C125.157 35.0628 125.052 35.4418 125.052 35.9155C125.052 36.5892 125.294 37.0735 125.736 37.3366C126.178 37.6103 126.789 37.7577 127.547 37.7577C127.631 37.7577 127.758 37.7577 127.926 37.7367H128C128.2 37.7261 128.4 37.7051 128.61 37.6735L128.779 37.6419C128.947 37.6103 129.126 37.5893 129.305 37.5472C129.547 37.4945 129.768 37.4419 129.968 37.3472V33.8416V33.8522ZM104.577 26.9042C106.366 26.9042 107.703 27.3885 108.577 28.3149C109.43 29.2623 109.861 30.5361 109.861 32.1889C109.861 32.5994 109.819 32.9468 109.735 33.2205C109.64 33.4732 109.503 33.6942 109.335 33.8627C109.177 34.0101 108.967 34.1259 108.735 34.1785C108.503 34.2417 108.261 34.2732 107.998 34.2732H101.787C101.787 34.9154 101.882 35.4207 102.061 35.8523C102.24 36.2734 102.471 36.6103 102.766 36.8734C103.061 37.1366 103.398 37.3261 103.787 37.4314C104.177 37.5472 104.619 37.5998 105.061 37.5998C105.545 37.5998 106.051 37.5367 106.535 37.4103C107.008 37.284 107.44 37.1366 107.798 36.9577C108.04 36.8524 108.219 36.884 108.314 37.0945L108.945 38.4525C109.051 38.7157 108.998 38.8947 108.777 39.0105C108.188 39.3789 107.535 39.6316 106.84 39.7684C106.135 39.9053 105.461 39.9895 104.819 39.9895C102.934 39.9895 101.482 39.4737 100.503 38.4209C99.4921 37.3893 98.9973 35.747 98.9973 33.5048C98.9973 32.452 99.1342 31.5151 99.4079 30.7045C99.6921 29.8729 100.082 29.1886 100.566 28.6307C101.071 28.0622 101.661 27.6306 102.334 27.3464C103.019 27.0411 103.777 26.8937 104.587 26.8937L104.577 26.9042ZM104.619 29.2202C104.198 29.2202 103.829 29.3044 103.503 29.4729C103.166 29.6413 102.892 29.8729 102.65 30.1571C102.429 30.4519 102.229 30.7782 102.092 31.1361C101.945 31.4941 101.871 31.873 101.861 32.2836H107.24C107.24 31.852 107.209 31.4625 107.124 31.094C107.051 30.7361 106.924 30.4203 106.714 30.1361C106.524 29.8518 106.251 29.6308 105.935 29.4729C105.598 29.3149 105.166 29.2307 104.629 29.2307L104.619 29.2202ZM115.725 37.8209L115.883 39.1578C115.914 39.3157 115.914 39.421 115.883 39.4842C115.851 39.5368 115.757 39.6 115.599 39.6842C115.283 39.8105 114.946 39.8842 114.535 39.9368C114.441 39.9368 114.346 39.9474 114.262 39.9579C113.977 39.979 113.714 40 113.472 40C112.577 40 111.956 39.7895 111.546 39.3684C111.146 38.9578 110.925 38.2314 110.925 37.1998V24.0093C110.998 22.5881 111.967 22.3144 112.472 22.2828H113.23C113.398 22.2828 113.525 22.2933 113.588 22.346C113.662 22.3986 113.704 22.5039 113.704 22.6828V36.526C113.704 36.9366 113.746 37.2314 113.851 37.3787C113.956 37.5261 114.177 37.5998 114.483 37.5998C114.609 37.5998 114.756 37.5998 114.925 37.5788H114.978C115.104 37.5577 115.23 37.5472 115.325 37.5367C115.462 37.5261 115.557 37.5367 115.599 37.5788C115.662 37.6103 115.683 37.684 115.704 37.8209H115.725ZM97.713 30.7782C97.492 29.9676 97.1867 29.2939 96.7551 28.7149C96.334 28.157 95.776 27.6938 95.0918 27.3885C94.418 27.0727 93.6074 26.9042 92.6705 26.9042C92.2494 26.9042 91.7652 26.9463 91.2178 27.02C90.6914 27.0937 90.1966 27.199 89.7229 27.3358V22.7144C89.7124 22.5144 89.6913 22.3986 89.6176 22.346C89.565 22.2933 89.4387 22.2828 89.2702 22.2828H88.5439C88.0175 22.3144 87.028 22.5881 86.9964 24.0619V38.5578C86.9964 38.6946 87.0174 38.8104 87.0701 38.9052C87.1122 38.9789 87.2174 39.0631 87.3438 39.1157C88.0596 39.4526 88.8176 39.6737 89.6597 39.7895C90.5019 39.9263 91.3125 39.9895 92.1126 39.9895C93.1337 39.9895 94.0285 39.821 94.7865 39.4842C95.5234 39.1473 96.134 38.6841 96.6287 38.0841C97.1024 37.484 97.4709 36.7787 97.6814 35.9681C97.9025 35.147 98.0183 34.2732 98.0183 33.3258C98.0183 32.3783 97.913 31.5362 97.713 30.7572V30.7782ZM94.9865 35.3786C94.8286 35.9155 94.6075 36.3471 94.3338 36.6734C94.039 37.0103 93.7022 37.2524 93.3021 37.3998C92.9126 37.5577 92.4494 37.6314 91.9757 37.6314C91.6599 37.6314 91.2915 37.6209 90.8914 37.5893C90.5019 37.5367 90.1124 37.463 89.7229 37.3366V29.6939C90.2177 29.536 90.7019 29.4202 91.1546 29.3781C91.6178 29.3255 91.9652 29.3044 92.2178 29.3044C93.1442 29.3044 93.8811 29.6518 94.4285 30.3361C94.9549 31.0203 95.2181 32.0731 95.2181 33.4626C95.2181 34.2206 95.1444 34.8733 94.997 35.3891L94.9865 35.3786ZM74.5217 37.8209L74.6901 39.1578C74.7112 39.3157 74.7112 39.421 74.6901 39.4842C74.6585 39.5368 74.5638 39.6 74.4059 39.6842C74.1006 39.8105 73.7322 39.8842 73.3427 39.9368C73.2479 39.9368 73.1637 39.9474 73.069 39.9579C72.7742 39.979 72.5005 40 72.2794 40C71.3951 40 70.753 39.7895 70.3529 39.3684C69.9424 38.9578 69.7424 38.2314 69.7424 37.1998V24.1251C69.7529 22.5881 70.7635 22.3144 71.2899 22.2828H72.0478C72.2268 22.2828 72.332 22.2933 72.4057 22.346C72.4794 22.3986 72.5005 22.5039 72.5005 22.6828V36.526C72.5005 36.9366 72.5636 37.2314 72.6794 37.3787C72.7742 37.5261 73.0058 37.5998 73.3005 37.5998C73.4374 37.5998 73.5637 37.5998 73.7322 37.5788C73.8901 37.5577 74.0374 37.5472 74.1427 37.5367C74.269 37.5261 74.3743 37.5367 74.4164 37.5788C74.4691 37.6103 74.5006 37.684 74.5112 37.8209H74.5217Z" fill="white"/>
<path fill-rule="evenodd" clip-rule="evenodd" d="M57.8991 10.9029C57.5728 10.6082 57.1938 10.3766 56.7622 10.1976V10.0397C57.278 9.73441 57.7201 9.30279 58.0675 8.73433C58.4149 8.15533 58.5939 7.50265 58.5939 6.79733C58.5939 6.09201 58.457 5.44985 58.2044 4.9235C57.9412 4.39714 57.6043 3.97605 57.1517 3.64971C56.7201 3.31284 56.1832 3.07072 55.5726 2.91281C54.9515 2.74437 54.2883 2.67068 53.5724 2.67068L48.1825 2.69174C47.6878 2.69174 47.3509 2.80754 47.1614 3.02861C46.9719 3.23915 46.8877 3.58655 46.8877 4.04974V17.9561C46.8877 18.4298 46.9824 18.7772 47.1614 18.9983C47.3404 19.2088 47.6878 19.3036 48.1825 19.3036H53.8461C54.6041 19.3036 55.3094 19.1878 55.9726 18.9457C56.6253 18.7141 57.1938 18.3772 57.678 17.9351C58.1728 17.4929 58.5518 16.9666 58.8465 16.3455C59.1203 15.7349 59.2782 15.0611 59.2782 14.3137C59.2782 13.8821 59.236 13.4715 59.1308 13.0505C59.0255 12.6399 58.8676 12.2504 58.6781 11.8819C58.4781 11.5135 58.2044 11.1872 57.8886 10.9029H57.8991ZM55.6568 12.2504C56.1305 12.7346 56.3621 13.3557 56.3621 14.1137C56.3621 14.3769 56.32 14.6611 56.2358 14.9769C56.1516 15.2717 56.0042 15.5559 55.7831 15.8086C55.5621 16.0612 55.2778 16.2718 54.9199 16.4402C54.5725 16.6086 54.1093 16.6823 53.5619 16.6823H49.73V11.524H53.583C54.4883 11.524 55.1831 11.7661 55.6568 12.2399V12.2504ZM53.4882 9.13436H49.73V5.23931H53.6356C54.2567 5.23931 54.7515 5.40775 55.0989 5.74461C55.4779 6.08148 55.6568 6.52362 55.6568 7.09209C55.6568 7.51318 55.5937 7.85005 55.4463 8.11322C55.3199 8.3764 55.1305 8.58695 54.9094 8.73433C54.6988 8.88171 54.4567 8.97645 54.2041 9.03961C53.9409 9.10278 53.7093 9.12383 53.4882 9.12383V9.13436ZM70.1317 17.9456C70.1317 18.3246 69.9843 18.5877 69.6895 18.7246C69.3632 18.872 68.9842 19.0088 68.5947 19.1246C68.2052 19.2404 67.7946 19.3246 67.3735 19.3878C66.963 19.451 66.5524 19.4931 66.1313 19.5247C65.7208 19.5457 65.3313 19.5457 64.9628 19.5457C63.9417 19.5457 63.089 19.451 62.4258 19.2404C61.752 19.0299 61.2152 18.7351 60.8256 18.3772C60.4361 18.0298 60.1624 17.6087 59.994 17.1139C59.8361 16.6507 59.7624 16.1349 59.7624 15.598C59.7624 15.0611 59.8466 14.5137 60.0361 13.9979C60.2045 13.4821 60.4888 13.0189 60.8993 12.6399C61.2888 12.2609 61.8152 11.9451 62.4574 11.7135C63.0995 11.4714 63.8891 11.3556 64.8154 11.3556H67.4157V10.945C67.4157 10.6608 67.3841 10.3766 67.3209 10.1239C67.2577 9.86073 67.1419 9.65019 66.963 9.4607C66.784 9.27121 66.5419 9.12383 66.2366 9.01856C65.9208 8.91329 65.5208 8.87118 65.026 8.87118C64.5312 8.87118 63.9312 8.91329 63.3101 9.00803C62.689 9.10278 62.1837 9.21858 61.7941 9.33437C61.6257 9.38701 61.5099 9.38701 61.4152 9.36596C61.3415 9.33437 61.2783 9.25016 61.2573 9.10278L60.9309 7.74477C60.8678 7.50265 60.9309 7.33422 61.152 7.26053C61.7941 7.00787 62.4995 6.81838 63.2679 6.72364C64.047 6.61837 64.7733 6.56573 65.4576 6.56573C67.0683 6.56573 68.2473 6.93418 68.9947 7.65003C69.7527 8.3764 70.1211 9.43965 70.1211 10.8292V17.9245L70.1317 17.9456ZM67.3841 13.4715H65.1628C64.8997 13.4715 64.6154 13.4821 64.3101 13.5137C64.0154 13.5452 63.7206 13.6295 63.4469 13.7768C63.1837 13.9242 62.9521 14.1242 62.7732 14.3874C62.5942 14.6506 62.51 15.0296 62.51 15.5033C62.51 16.1876 62.7416 16.6507 63.1837 16.9139C63.6364 17.1876 64.2259 17.3245 64.9734 17.3245C65.0891 17.3245 65.2365 17.3245 65.426 17.314C65.6155 17.314 65.826 17.2929 66.0366 17.2508C66.2577 17.2297 66.4893 17.1876 66.7209 17.135C66.963 17.0929 67.1841 17.0192 67.3841 16.9455V13.461V13.4715ZM75.5531 8.9554C75.8584 8.9554 76.1111 8.94487 76.2795 8.94487C76.9322 8.94487 77.4691 9.01856 77.8796 9.17647C78.3113 9.32385 78.6481 9.54492 78.8903 9.85021C79.1429 10.1555 79.3219 10.5239 79.4166 10.9977C79.5219 11.4503 79.564 11.9872 79.564 12.5978V18.9036C79.564 19.072 79.5956 19.1773 79.6693 19.2299C79.7324 19.2825 79.8377 19.2931 79.9956 19.2931H81.8168C81.9852 19.2931 82.1116 19.2825 82.1642 19.2299C82.2168 19.1773 82.2484 19.072 82.2484 18.9036V12.6399C82.2484 11.5556 82.1326 10.6187 81.901 9.85021C81.6694 9.0712 81.3115 8.45009 80.8167 7.96584C80.3325 7.47107 79.7114 7.1342 78.9639 6.9026C78.2165 6.68153 77.3428 6.57626 76.3111 6.57626C76.1111 6.57626 75.869 6.57626 75.5952 6.59731C75.3215 6.61837 75.0373 6.63942 74.7426 6.64995C74.6899 6.64995 74.6267 6.64995 74.5741 6.66048C74.3425 6.68153 74.1109 6.69206 73.9004 6.72364C73.6372 6.75522 73.4372 6.76575 73.2793 6.7868C72.6476 6.9026 72.2266 7.11314 72.0265 7.42896C71.816 7.74477 71.7213 8.18691 71.7213 8.75538V18.893C71.7213 19.0615 71.7528 19.1667 71.8371 19.2194C71.9002 19.272 72.016 19.2825 72.1739 19.2825H73.9846C74.153 19.2825 74.2688 19.272 74.332 19.2194C74.3952 19.1667 74.4162 19.0615 74.4162 18.893V9.08172C74.8268 9.00803 75.1952 8.96592 75.5216 8.9554H75.5531ZM89.2279 17.135C89.7227 17.135 90.2175 17.0718 90.7122 16.9455C91.207 16.8192 91.6281 16.6718 91.9439 16.5139C92.1124 16.4402 92.2387 16.4086 92.3124 16.4402C92.3755 16.4718 92.4387 16.556 92.4913 16.6718L93.0703 18.0509C93.2282 18.3035 93.1756 18.493 92.9229 18.6404C92.2913 18.9983 91.6071 19.251 90.8702 19.3668C90.1333 19.4826 89.449 19.5352 88.8174 19.5352C87.0909 19.5352 85.754 19.0088 84.8381 17.9351C83.9117 16.8718 83.4485 15.2717 83.4485 13.1452C83.4485 12.1451 83.5854 11.2398 83.8485 10.4397C84.1117 9.62914 84.4907 8.93434 84.9749 8.35535C85.4592 7.77636 86.0382 7.33422 86.7435 7.02893C87.4278 6.71311 88.2068 6.56573 89.07 6.56573C89.7122 6.56573 90.3227 6.63942 90.9228 6.75522C91.5018 6.89207 92.0808 7.11314 92.6071 7.38685C92.744 7.47107 92.8282 7.54476 92.8493 7.62898C92.8808 7.70267 92.8598 7.82899 92.7966 7.9869L92.2071 9.38701C92.1439 9.50281 92.0808 9.58703 92.0176 9.61861C91.9439 9.65019 91.8176 9.61861 91.6281 9.54492C91.2491 9.40806 90.8702 9.29227 90.4701 9.18699C90.0701 9.0712 89.6385 9.02909 89.1858 9.02909C88.6595 9.02909 88.2068 9.13436 87.8383 9.36596C87.4488 9.59755 87.1435 9.90284 86.9119 10.2818C86.6803 10.6608 86.5014 11.1029 86.3856 11.5977C86.2803 12.0925 86.2277 12.6083 86.2277 13.1452C86.2277 13.6821 86.2698 14.219 86.3645 14.6927C86.4487 15.1769 86.6172 15.6086 86.8488 15.9665C87.0699 16.3244 87.3751 16.6086 87.7541 16.8192C88.1436 17.0297 88.6489 17.1245 89.249 17.1245L89.2279 17.135ZM104.755 13.0294C104.755 15.1138 104.271 16.7244 103.324 17.8614C102.376 18.9878 100.955 19.5457 99.0603 19.5457C97.1654 19.5457 95.7969 18.9983 94.8705 17.9035C93.9546 16.7981 93.5019 15.198 93.5019 13.0926C93.5019 12.0399 93.6388 11.1135 93.923 10.3134C94.1967 9.50281 94.5757 8.8396 95.0705 8.27113C95.5653 7.72372 96.1653 7.29211 96.8496 7.00787C97.5444 6.71311 98.2918 6.56573 99.134 6.56573C100.976 6.56573 102.366 7.1342 103.324 8.28166C104.271 9.42912 104.755 10.9977 104.755 13.0189V13.0294ZM101.987 13.0926C101.987 12.5136 101.945 11.9662 101.861 11.4714C101.776 10.9661 101.629 10.5134 101.418 10.1344C101.208 9.73441 100.924 9.42912 100.555 9.20805C100.197 8.97645 99.7445 8.88171 99.1866 8.88171C98.6813 8.88171 98.2602 8.97645 97.8918 9.20805C97.5128 9.41859 97.197 9.71335 96.9654 10.0713C96.7127 10.4292 96.5338 10.8713 96.4074 11.3766C96.3022 11.8819 96.239 12.4399 96.239 13.0189C96.239 14.3453 96.4495 15.377 96.8601 16.1349C97.2812 16.8929 98.0286 17.2508 99.1024 17.2508C99.6393 17.2508 100.092 17.1455 100.46 16.9139C100.829 16.6823 101.124 16.377 101.355 15.9981C101.576 15.6191 101.734 15.1664 101.839 14.6716C101.945 14.1769 101.987 13.64 101.987 13.0926Z" fill="white"/>
<path fill-rule="evenodd" clip-rule="evenodd" d="M26.7074 40C19.8542 40 0 34.5469 0 27.8095C0 21.0722 19.8542 15.6296 26.7074 15.6296C33.5606 15.6296 39.1084 21.0827 39.1084 27.8095C39.1084 34.5364 33.5501 40 26.7074 40ZM20.5914 20.2089C16.1384 17.5456 5.40074 6.28152 8.11675 1.91275C10.8222 -2.46655 25.9392 1.68115 30.4027 4.35505C34.8557 7.00789 36.2874 12.7136 33.5714 17.0929C30.8659 21.4827 25.0549 22.8723 20.5914 20.2089Z" fill="white"/>
</svg>
