<?xml version="1.0"?>
<svg width="300" height="124.64435" xmlns="http://www.w3.org/2000/svg">
<path d="m 90.9205,57.11297 v 65.73222 H 71.17155 V 57.11297 c 0,-3.93305 -2.51046,-6.10879 -3.59833,-6.82008 -1.08786,-0.7113 -3.93305,-2.17574 -7.53138,-0.7113 -12.92887,5.73222 -25.14644,12.92887 -36.65272,21.54812 -2.17573,1.42259 -3.22176,3.93305 -3.22176,6.48535 0,1.4226 0.37657,4.30963 3.22176,6.10879 10.04184,7.53138 21.21339,14.35146 32.67783,19.74895 l -4.6862,19.74896 C 37.02929,116.7364 23.72385,108.87029 11.12971,99.49791 4.30962,94.10042 0,86.19247 0,77.57322 0,68.95397 3.93305,60.66946 11.12971,55.31381 23.72385,45.98326 37.36402,37.69874 51.71548,31.58996 60.33473,27.6569 70.37657,28.3682 78.28452,33.76569 86.23431,38.82845 90.9205,47.4477 90.9205,57.11297 Z M 288.49372,54.60251 C 275.89958,45.27197 262.25941,36.98745 247.90795,30.87866 l -0.37657,0.7113 -4.30962,18.66109 c 11.841,5.39749 23.01255,12.21757 33.43096,20.12552 2.17573,1.42259 3.22176,3.93305 3.22176,6.48535 0,1.4226 -0.37657,4.30963 -3.22176,6.10879 -11.50628,8.61925 -23.72385,15.8159 -36.65272,21.54812 -3.59833,1.79916 -6.48536,0 -7.90795,-0.7113 -1.08787,-0.7113 -3.59833,-2.88703 -3.59833,-6.82008 V 0 h -19.74895 v 96.98745 c 0,9.33054 4.68619,18.32636 12.92887,23.34728 4.68619,2.88703 9.70711,4.30962 15.1046,4.30962 3.93306,0 7.90795,-0.7113 11.50628,-2.51046 14.35146,-6.48535 28.03347,-14.35146 40.58577,-24.05858 C 295.69038,92.67782 300,84.76987 300,76.15063 299.62343,68.28452 295.31381,60 288.49372,54.60251 Z m -95.56485,11.88285 c 0,-20.46026 -16.90377,-36.98745 -37.36402,-36.98745 h -28.74477 c -10.79498,0 -19.74895,8.99581 -19.74895,19.74895 v 74.01674 h 19.74895 V 49.24686 h 28.3682 c 9.70712,0 17.2385,7.90795 17.2385,17.2385 v 56.40167 h 20.46025 V 66.48536 Z" style="stroke-width:0.41841;fill:#0073CF" />
</svg>