<?xml version="1.0" encoding="UTF-8" standalone="no"?>
<!-- Generator: Adobe Illustrator 24.0.1, SVG Export Plug-In . SVG Version: 6.00 Build 0)  -->

<svg
   version="1.1"
   id="Layer_1"
   x="0px"
   y="0px"
   viewBox="0 0 300 95.382484"
   xml:space="preserve"
   sodipodi:docname="Bank-Albilad-01-1.svg"
   width="300"
   height="95.382484"
   inkscape:version="1.3.2 (091e20e, 2023-11-25, custom)"
   xmlns:inkscape="http://www.inkscape.org/namespaces/inkscape"
   xmlns:sodipodi="http://sodipodi.sourceforge.net/DTD/sodipodi-0.dtd"
   xmlns="http://www.w3.org/2000/svg"
   xmlns:svg="http://www.w3.org/2000/svg"><defs
   id="defs16" /><sodipodi:namedview
   id="namedview16"
   pagecolor="#ffffff"
   bordercolor="#999999"
   borderopacity="1"
   inkscape:showpageshadow="2"
   inkscape:pageopacity="0"
   inkscape:pagecheckerboard="0"
   inkscape:deskcolor="#d1d1d1"
   inkscape:zoom="0.674"
   inkscape:cx="397.62611"
   inkscape:cy="127.59644"
   inkscape:window-width="1500"
   inkscape:window-height="912"
   inkscape:window-x="-8"
   inkscape:window-y="-8"
   inkscape:window-maximized="1"
   inkscape:current-layer="Layer_1" />








<g
   id="g17"
   transform="matrix(0.37745345,0,0,0.37745345,-38.764469,-140.82788)"><g
     id="g9">
	<path
  
   d="m 436,469.3 c 1.2,-1.8 4.3,-7.9 4.3,-9.9 -3.3,-3.2 -8,-3.8 -9.5,-5.7 -0.5,-0.7 6,-4.8 6.1,-5.6 L 438,443 c -0.3,-0.6 -13.2,9 -13.1,16.3 v 0.6 c -0.1,3.3 9.7,6.4 9.7,6.4 -1.9,2.4 -20,10.1 -24.1,11.2 v 0 c 9.6,0.6 20.1,0.2 25.5,-8.2"
   id="path1" fill="#7A6E66"/>
	<path
  
   d="m 183.6,470.2 c -6,-8.1 -18.4,-17.3 -35,-35.5 0,0 -8.2,-8.2 -13,-13.5 l -1.7,12 c 9.3,12.6 26.7,30.2 47.5,47.7 0.8,0.7 -0.7,1.6 -1.3,1.8 v 0 c -13,6.4 -46.1,20.7 -58.7,20.9 -19.4,0.3 -12,-25.4 -10.4,-29.8 0,0 0.6,-1.8 -0.3,-2.2 -3.7,8.5 -19.4,45.5 9.3,45.1 16.4,-0.2 51.1,-16.8 62.9,-22.8 4,-2 4,-8 4.1,-10.7 -0.2,-5.3 -0.8,-8.8 -3.4,-13"
   id="path2" fill="#7A6E66"/>
	<path
  
   d="m 575,468.7 -0.7,-0.8 c -1.2,4 -2.3,7.8 -3.5,11.7 4,5.6 8.4,11.7 8.9,18.8 -0.5,4.5 -11.9,6.1 -21,6.2 h -0.1 c -22.5,0 -20.2,-13.5 -20,-19.3 -0.1,0.2 -10.6,18.6 -26.5,18.6 C 493.8,503 488,491.6 487.7,483.5 487.5,457.3 465,447.2 445.5,418.2 l -0.6,-0.9 c 0,0 -6.4,-10.1 -7,-10.9 3.2,-3.1 81.4,-20.1 95.1,-22.8 v 0 c 2.9,-0.4 5.4,0.2 3.3,7.6 -2.4,8.2 -11.2,30 -15.2,40.2 8.4,-13.4 29.5,-59 19.8,-58.2 -16,2.9 -94.9,21 -106,25.5 -1.1,1.9 -2.9,16.1 -2,16.8 16.5,26.9 40.4,47.5 46.9,58.8 1.3,2.3 1.8,4.6 1.6,5.2 -6.2,14.8 -58,25.9 -74.6,25.9 -2.8,0 -6.3,-0.1 -10,-0.5 21.8,-34.5 -31.6,-102 -43.8,-121.9 -3.8,-5.8 -5.3,-8.4 -5.3,-8.4 l -4.7,10 c 2.1,11.3 7.3,88.5 7.3,93.9 0.1,6.5 0.2,6.6 0.2,14.3 0,9.9 -18.6,9.5 -21,9.2 -6.5,-1.2 -9.6,-14.7 -10,-23.9 -21.9,28.3 -47.1,26.4 -47.2,26.4 -24,-2.7 -24.8,-34.5 -25.6,-53.3 -0.2,-6.2 -0.1,-60.1 -1.3,-77.3 0,0 -7.4,10.5 -7.8,12.2 0,5.1 2,56 2.8,70.8 0.9,15.4 -3,29.7 -16.5,41.6 0.7,-0.8 2.6,-6 2.7,-7.9 2.5,-27.1 -29.9,-54 -50.9,-85 l -0.7,-0.9 c 0,0 -9,-15.2 -10.9,-17.7 -1.1,2.6 -2.6,8.9 -3.2,12.7 27.2,45.5 62.1,71.5 60.3,94.2 -0.4,4.5 -1,6.3 -3.7,9 -12.7,10.9 -26.3,17.8 -41.7,24.2 h 2.3 c 11.6,0.4 32,-4.3 41.1,-11 13,-9.5 22.2,-26.9 24.5,-37.6 l 0.1,-0.6 0.1,0.5 c 1.2,14.4 1.1,31.8 21.8,37.1 15.4,3.9 29.4,-2.9 38.9,-9.6 7.8,-5.5 12.4,-11.1 12.4,-10.7 0,8.2 1.8,14.5 5.8,16.9 6.8,4.1 16.3,2.2 16.3,2.2 22.2,-3.8 18.9,-30.4 18.9,-42.7 0,-15.4 -5.1,-65.6 -5.7,-73.1 11.1,17.7 56.4,77.8 38.4,105.7 -5.6,-1 -11,-2.8 -14.1,-6 0,-0.2 -6.6,-4.9 -6.5,-13.3 0.1,-11.3 8.3,-22.2 8.3,-22.2 -8.8,7.6 -13.6,23.2 -13.6,28.7 0,13 8.1,20.2 18.6,23.4 -5.1,5.9 -6,7.2 -9.3,10.6 5.6,-2.9 10.3,-6.1 14.1,-9.5 3.2,0.6 6.5,0.8 9.7,0.8 43.1,0 80,-16.6 85.6,-30.2 -0.4,34.2 33.1,28.2 33.1,28.2 11.9,-2 16.1,-7.9 19.9,-12.6 v 0.2 c 5.5,21.1 38.2,11.7 38.5,11.7 7.4,-1.7 9.9,-17.6 9.9,-23.5 -0.2,-8.2 -4.9,-15.5 -9.9,-21.8"
   id="path3" fill="#7A6E66"/>
	<path
  
   d="m 545.9,460.7 -9.8,-7.2 -5.7,7.6 c 0,0 -0.6,0.6 0,1.1 l 10,7.1 5.5,-7.2 c 0.5,-0.8 0.3,-1.1 0,-1.4"
   id="path4" fill="#7A6E66"/>
	<path
  
   d="m 566,532.5 -9.8,-7.3 -5.7,7.6 c 0,0 -0.6,0.6 0,1.1 l 10,7.1 5.5,-7.2 c 0.5,-0.7 0.3,-1 0,-1.3"
   id="path5" fill="#7A6E66"/>
	<path
  
   d="m 329.9,532.5 -9.8,-7.2 -5.8,7.6 c 0,0 -0.6,0.6 0,1.1 l 10,7.1 5.5,-7.2 c 0.6,-0.8 0.4,-1.1 0.1,-1.4"
   id="path6" fill="#7A6E66"/>
	<path
  
   d="m 124.5,615.8 c 1.8,0 3.6,-0.1 5.6,-0.3 1.9,-0.2 3.7,-0.7 5.3,-1.4 1.6,-0.8 2.9,-1.9 4,-3.4 1,-1.5 1.6,-3.5 1.6,-6.1 0,-2.5 -0.5,-4.5 -1.5,-6 -1,-1.5 -2.3,-2.7 -3.8,-3.6 -1.6,-0.9 -3.2,-1.5 -5.1,-1.8 -1.9,-0.3 -3.7,-0.5 -5.4,-0.5 h -12.6 v 23.1 z m 0.3,-31.6 c 1.5,0 3,-0.2 4.5,-0.6 1.5,-0.4 2.9,-1 4.1,-1.8 1.3,-0.8 2.3,-1.9 3,-3.2 0.8,-1.3 1.1,-2.9 1.1,-4.8 0,-2.1 -0.4,-3.7 -1.1,-5 -0.8,-1.3 -1.8,-2.3 -3,-3 -1.2,-0.7 -2.6,-1.2 -4.1,-1.4 -1.5,-0.2 -3,-0.4 -4.5,-0.4 h -12.3 v 20.1 h 12.3 z m -21.9,-28.7 h 23.3 c 3.6,0 6.7,0.5 9.3,1.4 2.6,0.9 4.8,2.2 6.5,3.8 1.7,1.6 3,3.4 3.8,5.6 0.9,2.1 1.3,4.4 1.3,6.8 0,2.2 -0.4,4.2 -1.2,6 -0.8,1.8 -1.8,3.3 -2.9,4.6 -1.1,1.2 -2.4,2.2 -3.7,3 -1.4,0.8 -2.6,1.2 -3.7,1.4 1.4,0.2 3,0.6 4.8,1.3 1.8,0.6 3.4,1.6 4.9,2.9 1.5,1.3 2.8,3 3.8,5.1 1,2.1 1.5,4.7 1.5,7.8 0,3.7 -0.7,6.8 -2,9.3 -1.3,2.4 -3.2,4.4 -5.5,5.9 -2.3,1.5 -5,2.6 -8.2,3.2 -3.2,0.6 -6.6,0.9 -10.1,0.9 h -22.1 z"
   id="path7" fill="#7A6E66"/>
	<path
  
   d="m 188.7,601.7 c -0.3,-0.1 -0.8,-0.2 -1.6,-0.3 -0.8,-0.1 -1.7,-0.2 -2.7,-0.3 -1.1,-0.1 -2.2,-0.1 -3.3,-0.2 -1.2,-0.1 -2.3,-0.1 -3.4,-0.1 -2.6,0 -4.8,0.3 -6.4,0.9 -1.6,0.6 -2.9,1.4 -3.8,2.3 -0.9,0.9 -1.6,2 -1.9,3.1 -0.4,1.1 -0.5,2.2 -0.5,3.2 0,2.6 0.9,4.6 2.7,5.9 1.8,1.3 4.3,2 7.4,2 1.8,0 3.5,-0.3 5.1,-0.9 1.6,-0.6 3,-1.4 4.3,-2.5 1.2,-1 2.2,-2.3 3,-3.6 0.8,-1.4 1.1,-2.8 1.1,-4.2 z m 0.2,16.9 c -1.8,2.4 -4.2,4.2 -7.1,5.4 -2.9,1.2 -5.9,1.8 -9,1.8 -2,0 -4,-0.3 -5.9,-0.8 -2,-0.5 -3.8,-1.4 -5.4,-2.6 -1.6,-1.2 -2.9,-2.7 -3.9,-4.7 -1,-1.9 -1.5,-4.2 -1.5,-7 0,-5.2 1.8,-9.3 5.4,-12.4 3.6,-3.1 8.8,-4.7 15.6,-4.7 1.1,0 2.3,0 3.5,0.1 1.2,0.1 2.4,0.1 3.5,0.2 1.1,0.1 2.1,0.1 2.9,0.2 0.8,0.1 1.4,0.1 1.8,0.2 v -1.8 c 0,-3.6 -1.1,-6.1 -3.3,-7.7 -2.2,-1.6 -5.1,-2.3 -8.8,-2.3 -3.6,0 -6.5,0.5 -8.7,1.5 -2.1,1 -3.9,2 -5.4,3 l -4.3,-6.3 c 0.8,-0.7 1.8,-1.4 3,-2.1 1.2,-0.7 2.5,-1.3 4.1,-1.9 1.6,-0.6 3.4,-1.1 5.4,-1.4 2,-0.4 4.3,-0.6 6.9,-0.6 6.2,0 11.1,1.5 14.6,4.5 3.5,3 5.3,7.2 5.3,12.7 v 22.7 5.2 c 0,1.7 0,3.1 0.1,4.3 h -8.6 z"
   id="path8" fill="#7A6E66"/>
	<path
  
   d="m 206.7,586.8 v -5.5 c 0,-1.6 0,-3.2 -0.1,-4.9 h 8.9 l 0.3,7.2 c 0.6,-0.8 1.4,-1.7 2.3,-2.7 0.9,-1 2,-1.9 3.3,-2.8 1.3,-0.8 2.8,-1.5 4.6,-2 1.8,-0.6 3.7,-0.8 5.9,-0.8 6.3,0 10.9,1.8 14,5.5 3,3.7 4.5,8.6 4.5,14.9 v 28.8 h -9.3 v -28.1 c 0,-4.5 -1,-7.8 -2.9,-9.9 -1.9,-2.1 -4.6,-3.1 -8.1,-3.2 -2.7,0 -4.9,0.6 -6.7,1.7 -1.8,1.1 -3.2,2.5 -4.3,4.3 -1.1,1.7 -1.9,3.8 -2.3,6 -0.5,2.2 -0.7,4.5 -0.7,6.8 v 22.3 h -9.3 v -37.6 z"
   id="path9" fill="#7A6E66"/>
</g><polygon
    
     points="288.6,576.3 299.7,576.4 281.6,594.1 302.4,624.4 291.4,624.4 275.1,600.3 268.4,606.7 268.4,624.4 259.2,624.4 259.2,555.5 268.4,555.5 268.4,596.1 "
     id="polygon9" fill="#7A6E66"/><path
    
     d="m 358.7,596.8 -11.1,-30.3 -11.3,30.3 z m -15.9,-41.3 h 10.1 l 27,68.9 h -11 l -7.1,-19.2 h -28.3 l -7.1,19.2 H 316 Z"
     id="path10" fill="#7A6E66"/><polygon
    
     points="383.8,624.4 383.8,555.5 393.1,555.5 393.1,624.4 "
     id="polygon10" fill="#7A6E66"/><g
     id="g11">
	<path
  
   d="m 411.5,616.4 c 1,0.3 2.2,0.6 3.6,0.9 1.4,0.3 3.5,0.5 6.3,0.5 2.7,0 5.1,-0.4 7.2,-1.3 2.2,-0.8 4,-2.1 5.6,-3.6 1.5,-1.6 2.7,-3.4 3.5,-5.6 0.8,-2.2 1.2,-4.5 1.3,-7.1 0,-2.2 -0.3,-4.3 -0.8,-6.3 -0.5,-2 -1.3,-3.8 -2.5,-5.4 -1.1,-1.5 -2.6,-2.8 -4.3,-3.7 -1.7,-0.9 -3.8,-1.4 -6.3,-1.4 -2.3,0 -4.3,0.4 -5.9,1.2 -1.7,0.8 -3.1,1.8 -4.2,3.1 -1.1,1.3 -2,2.8 -2.5,4.4 -0.6,1.7 -0.8,3.4 -0.8,5.2 v 19.1 z m -9.2,-60.9 h 9.3 v 26.1 c 0.5,-0.6 1.1,-1.3 2,-2.1 0.9,-0.8 1.9,-1.5 3.2,-2.1 1.3,-0.7 2.7,-1.2 4.3,-1.6 1.6,-0.4 3.4,-0.6 5.4,-0.6 3.6,0 6.7,0.6 9.4,1.9 2.7,1.3 5,3 6.9,5.3 1.9,2.2 3.3,4.9 4.2,7.9 0.9,3 1.4,6.2 1.4,9.7 0,3.8 -0.6,7.3 -2,10.4 -1.3,3.2 -3.2,5.9 -5.5,8.2 -2.4,2.3 -5.2,4.1 -8.5,5.3 -3.3,1.3 -7,1.9 -11,1.9 -3.9,0 -7.6,-0.3 -10.9,-0.9 -3.4,-0.6 -6.1,-1.4 -8.1,-2.2 v -67.2 z"
   id="path11" fill="#7A6E66"/>
</g><path
    
     d="m 455.7,576.4 h 9.3 v 48 h -9.3 z M 455,557.3 h 10.4 v 10.4 H 455 Z"
     id="path12" fill="#7A6E66"/><polygon
    
     points="474.6,624.4 474.6,555.5 483.9,555.5 483.9,624.4 "
     id="polygon12" fill="#7A6E66"/><g
     id="g16">
	<path
  
   d="m 523,601.7 c -0.3,-0.1 -0.8,-0.2 -1.6,-0.3 -0.8,-0.1 -1.7,-0.2 -2.7,-0.3 -1.1,-0.1 -2.1,-0.1 -3.3,-0.2 -1.2,-0.1 -2.3,-0.1 -3.4,-0.1 -2.6,0 -4.7,0.3 -6.4,0.9 -1.6,0.6 -2.9,1.4 -3.8,2.3 -0.9,0.9 -1.6,2 -1.9,3.1 -0.4,1.1 -0.5,2.2 -0.5,3.2 0,2.6 0.9,4.6 2.7,5.9 1.8,1.3 4.2,2 7.4,2 1.8,0 3.5,-0.3 5.1,-1 1.6,-0.6 3,-1.4 4.3,-2.5 1.3,-1 2.2,-2.2 3,-3.6 0.7,-1.4 1.1,-2.8 1.1,-4.2 z m 0.1,16.9 c -1.8,2.4 -4.2,4.2 -7.1,5.4 -2.9,1.2 -5.9,1.8 -9,1.8 -2,0 -4,-0.3 -5.9,-0.8 -2,-0.5 -3.8,-1.4 -5.4,-2.6 -1.6,-1.2 -2.9,-2.7 -3.9,-4.7 -1,-1.9 -1.5,-4.2 -1.5,-7 0,-5.2 1.8,-9.3 5.4,-12.4 3.6,-3.1 8.8,-4.6 15.6,-4.7 1.1,0 2.3,0 3.5,0.1 1.2,0.1 2.4,0.1 3.5,0.2 1.1,0.1 2.1,0.1 2.9,0.2 0.8,0.1 1.4,0.1 1.8,0.2 v -1.7 c 0,-3.6 -1.1,-6.1 -3.3,-7.7 -2.2,-1.6 -5.1,-2.3 -8.8,-2.3 -3.6,0 -6.5,0.5 -8.7,1.5 -2.1,1 -3.9,2 -5.4,3 l -4.3,-6.3 c 0.8,-0.7 1.8,-1.4 3,-2.1 1.2,-0.7 2.5,-1.3 4.1,-1.9 1.6,-0.6 3.4,-1.1 5.4,-1.4 2,-0.4 4.3,-0.6 6.9,-0.6 6.2,0 11.1,1.5 14.6,4.5 3.6,3 5.3,7.2 5.3,12.7 v 22.7 5.2 c 0,1.7 0,3.1 0.1,4.3 h -8.7 z"
   id="path13" fill="#7A6E66"/>
	<path
  
   d="m 575.6,587 c -0.7,-0.5 -2,-1.3 -3.8,-2.2 -1.9,-0.9 -4.5,-1.4 -8,-1.4 -2.3,0 -4.4,0.4 -6.2,1.2 -1.9,0.8 -3.6,2 -5,3.5 -1.4,1.5 -2.5,3.4 -3.3,5.6 -0.8,2.2 -1.2,4.7 -1.2,7.4 0,2.3 0.3,4.4 0.8,6.5 0.6,2 1.4,3.8 2.5,5.3 1.1,1.5 2.6,2.7 4.3,3.6 1.8,0.8 3.9,1.3 6.3,1.3 2.4,0 4.5,-0.4 6.2,-1.3 1.7,-0.9 3.1,-2 4.2,-3.4 1.1,-1.3 1.8,-2.8 2.4,-4.4 0.5,-1.6 0.8,-3.1 0.8,-4.5 z m 0,31.3 c -0.4,0.4 -0.9,1.1 -1.7,1.9 -0.8,0.9 -1.8,1.7 -3.2,2.5 -1.3,0.8 -2.8,1.6 -4.6,2.2 -1.8,0.6 -3.8,0.9 -6.1,0.9 -3,0 -5.9,-0.6 -8.5,-1.7 -2.6,-1.2 -4.9,-2.8 -6.8,-5 -1.9,-2.1 -3.4,-4.7 -4.5,-7.8 -1.1,-3.1 -1.6,-6.5 -1.6,-10.3 0,-4.5 0.8,-8.4 2.4,-11.7 1.6,-3.3 3.6,-6 6.1,-8.1 2.4,-2.1 5.1,-3.6 7.9,-4.6 2.9,-1 5.6,-1.4 8.1,-1.4 3.5,0 6.2,0.4 8.1,1.2 1.9,0.8 3.4,1.5 4.5,1.9 v -22.8 h 9.3 v 58.4 5.5 c 0,1.6 0,3.2 0.1,4.9 H 576 Z"
   id="path14" fill="#7A6E66"/>
	<path
  
   d="M 854.7,373.1 H 647.1 V 498.9 C 682.8,478 724.3,466 768.6,466 c 47.4,0 91.6,13.7 128.9,37.3 v -87.5 c 0,-23.6 -19.2,-42.7 -42.8,-42.7"
   id="path15" fill="#F5B335"/>
	<path
  
   d="m 733,492.3 c -31.4,0 -60.7,8.6 -85.8,23.5 v 64.9 c 0,23.6 19.1,42.8 42.7,42.8 H 897.4 C 880.3,548.4 813.2,492.3 733,492.3"
   id="path16" fill="#CE0E2D"/>
</g></g>
</svg>
