<?xml version="1.0" encoding="UTF-8" standalone="no"?>
<!-- Generator: Adobe Illustrator 27.2.0, SVG Export Plug-In . SVG Version: 6.00 Build 0)  -->

<svg
   version="1.1"
   id="Layer_1"
   x="0px"
   y="0px"
   viewBox="0 0 300 78.722809"
   xml:space="preserve"
   sodipodi:docname="Riyad Bank-01.svg"
   width="300"
   height="78.722809"
   inkscape:version="1.3.2 (091e20e, 2023-11-25, custom)"
   xmlns:inkscape="http://www.inkscape.org/namespaces/inkscape"
   xmlns:sodipodi="http://sodipodi.sourceforge.net/DTD/sodipodi-0.dtd"
   xmlns="http://www.w3.org/2000/svg"
   xmlns:svg="http://www.w3.org/2000/svg"><defs
   id="defs20" /><sodipodi:namedview
   id="namedview20"
   pagecolor="#ffffff"
   bordercolor="#999999"
   borderopacity="1"
   inkscape:showpageshadow="2"
   inkscape:pageopacity="0"
   inkscape:pagecheckerboard="0"
   inkscape:deskcolor="#d1d1d1"
   inkscape:zoom="0.674"
   inkscape:cx="359.05045"
   inkscape:cy="93.47181"
   inkscape:window-width="1500"
   inkscape:window-height="912"
   inkscape:window-x="-8"
   inkscape:window-y="-8"
   inkscape:window-maximized="1"
   inkscape:current-layer="Layer_1" />

<g
   id="g20"
   transform="matrix(0.41829336,0,0,0.41829336,-59.146681,-169.74345)">
	<g
   id="g4">
		<polygon
  
   points="198.1,462.6 198.1,519.2 141.4,575.9 254.7,575.9 254.7,519.2 254.7,519.2 254.7,462.6 311.4,405.9 198.1,405.9 "
   id="polygon1" fill="#230871"/>
		<g
   id="g3">
			<polygon
  
   points="311.4,519.2 311.4,405.9 254.7,462.6 254.7,519.2 "
   id="polygon2" fill="#00AF9A"/>
			<polygon
  
   points="141.4,462.6 141.4,575.9 198.1,519.2 198.1,462.6 "
   id="polygon3" fill="#00AF9A"/>
		</g>
	</g>
	<g
   id="g19">
		<rect
   x="512"
   y="482"
  
   width="11.6"
   height="11.6"
   id="rect4" fill="#747C91"/>
		<rect
   x="493.20001"
   y="482"
  
   width="11.6"
   height="11.6"
   id="rect5" fill="#747C91"/>
		<path
  
   d="m 470.1,453.3 c 0,-6.8 -1.3,-12.9 -4.8,-16.6 -4.1,-4.4 -10,-6.2 -17.4,-6.2 h -23.3 v -5.7 h -10.8 v 46.9 h -17.2 c -4.9,0 -9.8,-0.7 -12.6,-3.1 -2.6,-2.1 -3.5,-5.7 -3.5,-10.6 v -24.3 h -12.6 v 25.7 c 0,6.7 1.5,13.3 5.5,17.1 5,4.8 11.5,6.8 21.3,6.8 h 29.9 V 473 h 45.6 v -19.7 z m -11.6,8.1 h -34 V 442 H 449 c 3,0 5.9,1.4 7.3,3.2 1.5,1.9 2.2,4.3 2.2,7.6 z"
   id="path5" fill="#747C91"/>
		<polygon
  
   points="494.1,461.4 494.1,405.9 482.6,405.9 482.6,473 529,473 529,426.4 517.4,426.4 517.4,461.4 "
   id="polygon5" fill="#747C91"/>
		<rect
   x="600"
   y="405.89999"
  
   width="11.6"
   height="67.099998"
   id="rect6" fill="#747C91"/>
		<rect
   x="437.79999"
   y="409.60001"
  
   width="11.5"
   height="11.5"
   id="rect7" fill="#747C91"/>
		<rect
   x="812.29999"
   y="405.89999"
  
   width="11.6"
   height="11.7"
   id="rect8" fill="#747C91"/>
		<rect
   x="846.90002"
   y="482.10001"
  
   width="11.6"
   height="11.6"
   id="rect9" fill="#747C91"/>
		<path
  
   d="m 671.2,473 h 187.3 v -46.5 h -11.6 v 35 h -23.1 v -35 h -11.6 v 35 H 750.5 L 750.4,406 h -11.6 l 0.1,55.5 h -65.7 c -4.9,0 -9.5,-0.7 -12.3,-3.1 -2.6,-2.2 -3.5,-5.7 -3.5,-10.6 v -14.3 h -12.8 v 15.7 c 0,6.7 1.5,13.3 5.5,17.1 5.1,4.7 11.2,6.7 21.1,6.7 z"
   id="path9" fill="#747C91"/>
		<path
  
   d="m 710.4,438.4 h -12.2 v -4.6 c 0,-1.7 0.4,-3.1 1.2,-4 0.7,-0.9 1.6,-1.3 2.8,-1.3 h 6.4 v -6.7 h -5.7 c -3.6,0 -6.5,1.2 -8.5,3.4 -1.9,2.2 -2.9,5.4 -2.9,9.5 v 10.4 h 18.9 z"
   id="path10" fill="#747C91"/>
		<path
  
   d="m 552.9,472.9 h 34.7 v 0 -67.1 H 576 v 55.5 h -23 v -35 h -11.6 v 45.1 c 0,5.7 -1.6,8.1 -6.2,8.1 -1.4,0 -2.8,-0.1 -4.4,-0.5 v 11.4 c 1.4,0.4 3.6,0.7 5.7,0.7 10.8,0 15.7,-5.4 16.4,-18.2 z"
   id="path11" fill="#747C91"/>
		<path
  
   d="m 420.4,526.3 c 0,-11 -7.4,-21.5 -25.9,-21.5 h -26.6 v 71 h 12.6 v -28 H 393 l 17.3,28 h 14.2 L 405.9,546 c 10.6,-3.4 14.5,-11.5 14.5,-19.7 z m -28.7,10.6 h -11.2 v -20.3 h 11.2 c 10.4,0 15.4,2.9 15.4,10 0,8.2 -6.2,10.3 -15.4,10.3 z"
   id="path12" fill="#747C91"/>
		<path
  
   d="m 536.1,527.7 c -6.4,0 -12.7,1.6 -16.4,3.5 l -1.5,11.8 c 4.5,-2.2 11.5,-4.1 16.3,-4.1 6.3,0 10.7,1.5 10.7,6.7 v 0.7 c -3.5,-0.5 -6.6,-0.7 -9,-0.7 -12.6,0 -21.5,5.3 -21.5,15.7 0,11.3 10.4,15.4 21.9,15.4 6.8,0 14.3,-1.3 20.1,-3.6 v -27 c 0,-13.6 -8.7,-18.4 -20.6,-18.4 z m 9.1,37.2 c -2.5,0.8 -5.6,1.3 -8.5,1.3 -5.7,0 -10.1,-1.5 -10.1,-5.8 0,-4.4 4.9,-5.9 10.8,-5.9 2.5,0 5.7,0.4 7.8,1 z"
   id="path13" fill="#747C91"/>
		<path
  
   d="m 600.1,528.3 c -3.1,-0.4 -5.9,-0.7 -8,-0.7 -15.8,0 -26.1,10.8 -26.1,24.6 0,13.8 9.9,24.3 27,24.3 6.7,0 12.9,-0.8 18.6,-2.4 v -65.3 h -11.5 z m 0,36.1 c -2.5,0.6 -4.9,0.9 -7.2,0.9 -9,0 -14.9,-4.1 -14.9,-13.1 0,-9 5.8,-13.3 14.9,-13.3 2.1,0 4.4,0.2 7.2,1 z"
   id="path14" fill="#747C91"/>
		<path
  
   d="m 493.2,563.3 c -3.4,1 -6.2,1.2 -8.6,1.2 -6.4,0 -9.1,-2.5 -9.1,-11 v -24.3 h -11.6 v 27.5 c 0,15.2 8.4,19 20.1,19 3,0 6.1,-0.3 9.2,-1 v 1 c 0,5.4 -5,7.7 -12.1,7.7 -3.4,0 -8.2,-0.8 -12.4,-2.1 v 11 c 3.7,1 8.7,1.7 11.9,1.7 18.3,0 24.1,-5.7 24.1,-22 v -42.8 h -11.5 z"
   id="path15" fill="#747C91"/>
		<path
  
   d="m 729.9,527.7 c -6.4,0 -12.7,1.6 -16.4,3.5 L 712,543 c 4.5,-2.2 11.5,-4.1 16.3,-4.1 6.3,0 10.7,1.5 10.7,6.7 v 0.7 c -3.5,-0.5 -6.6,-0.7 -9,-0.7 -12.6,0 -21.5,5.3 -21.5,15.7 0,11.3 10.4,15.4 21.9,15.4 6.8,0 14.3,-1.3 20.1,-3.6 v -27 c 0,-13.6 -8.7,-18.4 -20.6,-18.4 z m 9.1,37.2 c -2.5,0.8 -5.6,1.3 -8.5,1.3 -5.7,0 -10.1,-1.5 -10.1,-5.8 0,-4.4 4.9,-5.9 10.8,-5.9 2.5,0 5.7,0.4 7.8,1 z"
   id="path16" fill="#747C91"/>
		<path
  
   d="m 780.7,528 c -5,0 -13.6,1.1 -20.8,2.4 v 45.5 h 11.5 v -35.8 c 3.3,-0.6 6.3,-0.9 8.8,-0.9 6.8,0 10.4,2.5 10.4,11 v 25.6 h 11.5 V 547 c 0,-15.2 -9.5,-19 -21.4,-19 z"
   id="path17" fill="#747C91"/>
		<polygon
  
   points="823,552.4 823,509.3 811.5,509.3 811.5,575.9 823,575.9 823,553.1 844.8,575.9 858.6,575.9 836.5,552.6 857.5,529.6 843.9,529.6 "
   id="polygon17" fill="#747C91"/>
		<path
  
   d="m 685.5,537.7 c 6.7,-3 9.9,-9 9.9,-15 0,-10 -8,-17.9 -25.7,-17.9 h -25 v 71 h 28.5 c 13,0 25.8,-6 25.8,-20.8 0,-7.1 -4,-14.4 -13.5,-17.3 z M 657.4,516.6 H 669 c 9.6,0 13.4,3.4 13.4,8.3 0,5.8 -4.1,8.6 -13.4,8.6 h -11.6 z m 14,47.6 H 657.3 V 545.4 H 671 c 9.3,0 14.9,2 14.9,9.5 0.1,6.4 -4.6,9.3 -14.5,9.3 z"
   id="path18" fill="#747C91"/>
		<rect
   x="437.79999"
   y="529.59998"
  
   width="11.5"
   height="46.299999"
   id="rect18" fill="#747C91"/>
		<rect
   x="437.79999"
   y="508.89999"
  
   width="11.5"
   height="11.5"
   id="rect19" fill="#747C91"/>
	</g>
</g>
</svg>
