<?xml version="1.0" encoding="UTF-8" standalone="no"?>
<svg
   version="1.1"
   width="136.882"
   height="44.1059"
   viewBox="0 0 136.882 44.105899"
   id="svg9"
   sodipodi:docname="SAB.svg"
   inkscape:version="1.4.2 (f4327f4, 2025-05-13)"
   xmlns:inkscape="http://www.inkscape.org/namespaces/inkscape"
   xmlns:sodipodi="http://sodipodi.sourceforge.net/DTD/sodipodi-0.dtd"
   xmlns="http://www.w3.org/2000/svg"
   xmlns:svg="http://www.w3.org/2000/svg">
  <sodipodi:namedview
     id="namedview9"
     pagecolor="#ffffff"
     bordercolor="#000000"
     borderopacity="0.25"
     inkscape:showpageshadow="2"
     inkscape:pageopacity="0.0"
     inkscape:pagecheckerboard="0"
     inkscape:deskcolor="#d1d1d1"
     inkscape:zoom="7.6684601"
     inkscape:cx="101.45453"
     inkscape:cy="19.365035"
     inkscape:window-width="1920"
     inkscape:window-height="1009"
     inkscape:window-x="-8"
     inkscape:window-y="-8"
     inkscape:window-maximized="1"
     inkscape:current-layer="svg9" />
  <defs
     id="defs2">
    <clipPath
       id="clip_0">
      <path
         transform="matrix(1,0,0,-1,0,841.89)"
         d="M 0,0 H 595.276 V 841.89 H 0 Z"
         clip-rule="evenodd"
         id="path1" />
    </clipPath>
    <clipPath
       id="clip_1">
      <path
         transform="matrix(0.1,0,0,-0.1,0,841.89)"
         d="m 2291.97,2686.5 h 1368.82 v 441.059 H 2291.97 Z"
         id="path2" />
    </clipPath>
  </defs>
  <g
     clip-path="url(#clip_0)"
     id="g9"
     transform="translate(-229.197,-529.1341)">
    <path
       transform="matrix(0.1,0,0,-0.1,0,841.89)"
       d="m 2499.56,2688.43 h 415.16 v 415.1599 h -415.16 z"
       fill="#ffffff"
       id="path3" />
    <path
       transform="matrix(0.1,0,0,-0.1,0,841.89)"
       d="m 2914.72,2688.43 207.58,207.59 -207.58,207.57"
       fill="#ed1d24"
       id="path4" />
    <path
       transform="matrix(0.1,0,0,-0.1,0,841.89)"
       d="m 2499.55,3103.6 207.58,-207.58 207.58,207.58"
       fill="#ed1d24"
       id="path5" />
    <path
       transform="matrix(0.1,0,0,-0.1,0,841.89)"
       d="m 2499.55,2688.43 h 415.16 l -207.58,207.59"
       fill="#ed1d24"
       id="path6" />
    <path
       transform="matrix(0.1,0,0,-0.1,0,841.89)"
       d="m 2291.97,2896.01 207.58,-207.58 v 415.17"
       fill="#ed1d24"
       id="path7" />
    <g
       clip-path="url(#clip_1)"
       id="g8">
      <path
         transform="matrix(0.1,0,0,-0.1,0,841.89)"
         d="m 3257.51,2685.44 c -35.93,0 -65.41,14.28 -66.1,54.13 h 36.16 c 0.46,-17.74 10.82,-28.33 30.63,-28.33 14.74,0 31.33,7.37 31.33,23.95 0,12.9 -11.29,17.05 -29.95,22.34 l -11.98,3.46 c -26.26,7.6 -52.28,17.73 -52.28,47.68 0,37.08 34.55,49.52 66.11,49.52 32.47,0 60.34,-11.29 60.57,-48.14 h -36.16 c -1.38,15.2 -10.13,23.95 -27.18,23.95 -13.36,0 -26.72,-7.14 -26.72,-21.88 0,-12.21 11.06,-15.89 34.55,-23.26 l 13.82,-4.38 c 28.56,-8.98 46.53,-18.89 46.53,-46.52 0,-38.01 -36.63,-52.52 -69.33,-52.52 m 201.33,41.23 h -72.79 l -14.28,-38.24 h -35.7 l 67.49,166.53 h 40.77 l 68.63,-166.53 h -39.84 z m -64.03,24.41 h 54.58 l -26.72,78.08 z m 136.14,103.88 h 57.82 c 18.19,0 25.56,-0.46 32.71,-2.07 20.27,-4.61 35.46,-17.74 35.46,-40.08 0,-21.42 -13.58,-32.47 -33.16,-37.54 22.57,-4.15 39.15,-15.66 39.15,-40.31 0,-37.77 -37.31,-46.53 -66.56,-46.53 h -65.42 z m 58.05,-69.33 c 15.89,0 32.01,3.23 32.01,22.57 0,17.28 -15.2,21.89 -29.71,21.89 h -25.33 v -44.46 z m 3.45,-72.32 c 16.82,0 33.4,3.91 33.4,24.18 0,19.81 -14.28,24.42 -31.32,24.42 h -28.56 v -48.6 z m -400.93,280.18 h 30.69 v -41.47 c 0,-20.72 6.16,-32.02 31.57,-32.02 25.57,0 30.47,11.87 30.47,38.48 v 145.12 h 30.69 v -149.74 c 0,-37.34 -14.6,-57.12 -61.16,-57.12 -46.56,0 -62.26,20.93 -62.26,51.83 z m 200.26,-74.18 c 5.88,0 10.11,1.43 12.69,4.26 2.57,2.85 4.01,7.34 4.31,13.48 h -11.27 c -38.88,0 -56.08,15.03 -56.08,48.61 0,11.06 1.05,51.14 56.53,51.14 14.3,0 39.88,-1.69 41.94,-1.84 v -91 c 0,-22.52 -3.48,-47.22 -47.46,-47.22 h -36.22 v 22.57 z m -19.88,67.04 c 0,-9.22 1.91,-15.86 5.74,-19.93 3.83,-4.07 10.23,-6.1 19.21,-6.1 h 12.14 v 51.83 c -2.65,0.15 -3.85,0.23 -12.36,0.23 -23.7,0 -24.73,-17.7 -24.73,-26.03 m 92.29,-49.3 v 23.27 h 39.74 v 103.2 h 30.69 v -103.2 h 34.89 v 143.28 h 30.69 v -166.55 z m 77.94,145.36 h -45.7 V 3096 h 9.49 c -0.88,3.07 -2.2,7.49 -2.2,11.52 0,6.14 2.52,20.04 24.94,20.04 1.18,0 8.39,-0.31 9.72,-0.46 v -13.13 c -0.74,0 -5.89,0.46 -6.63,0.46 -3.09,0 -5.81,-0.5 -8.17,-1.5 -2.35,-1 -3.53,-3.49 -3.53,-7.49 0,-4.12 1.03,-7.29 1.77,-9.44 h 20.31 z m 120.77,-145.36 h -30.6875 v 166.551 H 3662.9 Z"
         id="path8" />
    </g>
  </g>
</svg>
