<?xml version="1.0" encoding="UTF-8" standalone="no"?>
<!-- Generator: Adobe Illustrator 28.0.0, SVG Export Plug-In . SVG Version: 6.00 Build 0)  -->

<svg
   version="1.1"
   id="Layer_1"
   x="0px"
   y="0px"
   viewBox="0 0 300 207.54738"
   xml:space="preserve"
   sodipodi:docname="The Saudi Investment Bank-01.svg"
   width="300"
   height="207.54738"
   inkscape:version="1.3.2 (091e20e, 2023-11-25, custom)"
   xmlns:inkscape="http://www.inkscape.org/namespaces/inkscape"
   xmlns:sodipodi="http://sodipodi.sourceforge.net/DTD/sodipodi-0.dtd"
   xmlns="http://www.w3.org/2000/svg"
   xmlns:svg="http://www.w3.org/2000/svg"><defs
   id="defs28">
	
</defs><sodipodi:namedview
   id="namedview28"
   pagecolor="#ffffff"
   bordercolor="#999999"
   borderopacity="1"
   inkscape:showpageshadow="2"
   inkscape:pageopacity="0"
   inkscape:pagecheckerboard="0"
   inkscape:deskcolor="#d1d1d1"
   inkscape:zoom="0.674"
   inkscape:cx="321.95846"
   inkscape:cy="222.55193"
   inkscape:window-width="1500"
   inkscape:window-height="912"
   inkscape:window-x="-8"
   inkscape:window-y="-8"
   inkscape:window-maximized="1"
   inkscape:current-layer="Layer_1" />

<g
   id="g27"
   transform="matrix(0.46521726,0,0,0.46521726,-82.608629,-128.83262)">
		<path
  
   d="m 466.36,449.41 c 20.22,20.23 52.97,20.21 73.08,0.11 20.03,-20.03 20.03,-52.76 -0.2,-72.98 -19.97,-19.97 -52.64,-19.92 -72.67,0.11 -20.11,20.1 -20.18,52.79 -0.21,72.76"
   id="path1" fill="#FFD400"/>
		<path
  
   d="m 464.06,366.28 c -2.12,2.12 -2.12,5.59 0,7.7 l -12.24,-12.24 c -9.26,-9.26 -9.26,-24.41 0,-33.67 l 51.12,-51.14 51.14,51.14 c 9.26,9.26 9.26,24.41 0,33.67 l -12.24,12.24 c 2.12,-2.12 2.12,-5.59 0,-7.7 l -38.9,-38.9 z"
   id="path2" fill="#242423"/>
		<path
  
   d="m 496.74,492.65 c 4.15,4.16 6.23,9.64 6.22,15.12 l 0.02,-0.02 c -0.01,-5.48 2.06,-10.96 6.22,-15.12 l 79.5,-79.5 -38.55,-38.55 25.22,-25.23 42.12,42.13 c 11.9,11.9 11.9,31.38 0,43.29 L 502.96,549.31 388.41,434.77 c -11.9,-11.9 -11.9,-31.38 0,-43.29 l 42.12,-42.12 25.23,25.22 -38.55,38.55 z"
   id="path3" fill="#242423"/>
		<path
  
   d="m 404.94,688.61 c 0.83,0 1.51,-0.31 2.06,-0.83 0.67,-0.56 0.85,-1.28 0.85,-2.07 0,-0.84 -0.18,-1.6 -0.85,-2.13 -0.55,-0.63 -1.24,-0.89 -2.06,-0.89 -0.92,0 -1.58,0.32 -2.1,0.89 -0.61,0.59 -0.84,1.29 -0.84,2.13 0,0.79 0.23,1.51 0.84,2.07 0.52,0.52 1.18,0.83 2.1,0.83"
   id="path4" fill="#242423"/>
		<path
  
   d="m 336.81,719.37 c -0.75,0 -1.29,-0.32 -1.53,-1.05 -0.17,-0.38 -0.23,-1.18 -0.23,-2.23 v -11.46 c 0,-2.41 -0.41,-4.34 -1.05,-5.68 -1.29,-2.37 -3.81,-3.58 -7.51,-3.58 -3.14,0 -5.49,0.76 -7.17,2.19 -1.63,1.42 -2.46,2.81 -2.46,4.13 0,0.66 0.26,1.31 0.59,1.88 0.59,0.56 1.14,0.81 2.04,0.81 0.58,0 0.91,-0.13 1.44,-0.36 0.65,-0.44 1.04,-1.2 1.04,-2.24 0,-0.1 -0.08,-0.47 -0.17,-1 -0.05,-0.55 -0.09,-0.97 -0.09,-1.17 0,-0.9 0.42,-1.64 1.32,-2.15 0.84,-0.48 1.77,-0.68 2.79,-0.68 1.92,0 3.26,0.61 3.85,1.89 0.45,0.76 0.7,2.1 0.7,4.02 v 2.4 c -5.28,1.97 -8.74,3.5 -10.48,4.6 -2.7,1.91 -4.12,4.17 -4.12,6.95 0,1.73 0.64,3.21 1.81,4.39 1.17,1.09 2.59,1.63 4.21,1.63 1.56,0 3.16,-0.47 4.87,-1.47 1.05,-0.63 2.31,-1.55 3.8,-2.79 0.05,1.11 0.32,2.13 0.87,2.92 0.59,0.8 1.5,1.21 2.79,1.21 1.13,0 2.12,-0.33 3.19,-1.06 0.71,-0.44 1.38,-1.02 2.01,-1.8 v -1.38 c -0.71,0.47 -1.21,0.8 -1.46,0.91 -0.33,0.14 -0.65,0.17 -1.05,0.17 m -6.44,-3.81 c 0,1.09 -0.7,1.98 -1.73,2.7 -1.15,0.73 -2.35,1.04 -3.64,1.04 -0.85,0 -1.74,-0.25 -2.44,-0.77 -1.15,-0.89 -1.72,-2.17 -1.72,-3.89 0,-2.15 1.39,-4.09 4.08,-5.74 1.44,-0.87 3.19,-1.67 5.45,-2.41 z"
   id="path5" fill="#242423"/>
		<path
  
   d="m 731.64,705.28 c -1.87,-1.5 -4.2,-2.6 -6.83,-3.19 2.12,-0.57 3.76,-1.23 4.84,-2.08 1.89,-1.36 2.86,-3.44 2.86,-6.2 0,-3.62 -1.3,-6.22 -4.06,-7.73 -2.74,-1.47 -6.47,-2.23 -11.05,-2.23 h -16.24 v 1.07 c 2.29,0.08 3.77,0.5 4.51,1.11 0.61,0.64 1.01,1.97 1.01,4.16 v 25.7 c 0,2.19 -0.4,3.57 -1.01,4.18 -0.74,0.59 -2.23,1.03 -4.51,1.13 v 1.02 h 18.93 c 3.17,0 5.96,-0.44 8.14,-1.31 4.13,-1.69 6.22,-4.76 6.22,-9.31 0.01,-2.69 -0.94,-4.87 -2.81,-6.32 m -18.99,-17.29 c 0,-0.95 0.08,-1.53 0.39,-1.69 0.18,-0.23 0.97,-0.29 2.2,-0.29 3.18,0 5.61,0.32 7.18,0.96 2.74,1.23 4.24,3.56 4.24,7.03 0,2.94 -1.27,4.99 -3.78,6.1 -1.2,0.65 -2.88,0.89 -4.77,0.96 l -5.46,0.11 z m 12.27,30.39 c -2.1,1.14 -4.59,1.72 -7.55,1.72 -2,0 -3.36,-0.16 -3.95,-0.43 -0.54,-0.29 -0.77,-0.97 -0.77,-1.93 v -14.47 c 0.41,0.09 0.77,0.09 1.07,0.09 h 1.67 c 3.6,0 6.58,0.58 8.97,1.73 2.41,1.22 3.59,3.45 3.59,6.67 0,3.26 -1.04,5.52 -3.03,6.62"
   id="path6" fill="#242423"/>
		<path
  
   d="m 789.03,717.49 v -13.24 c 0,-3.64 -1,-6.27 -3.04,-7.66 -1.04,-0.77 -2.18,-1.15 -3.55,-1.15 -1.54,0 -3.05,0.45 -4.45,1.37 -1.1,0.65 -2.39,1.76 -4.06,3.39 v -4.1 c 0,-0.21 -0.03,-0.32 -0.03,-0.42 -0.05,-0.06 -0.17,-0.17 -0.31,-0.17 l -2.64,0.91 c -2.91,0.85 -4.7,1.43 -5.5,1.67 v 0.96 c 0.3,-0.05 0.45,-0.1 0.66,-0.1 0.23,0 0.41,-0.03 0.58,-0.03 1.1,0 1.83,0.36 2.12,1.07 0.29,0.47 0.35,1.35 0.35,2.56 v 14.59 c 0,1.69 -0.27,2.79 -0.7,3.33 -0.58,0.47 -1.56,0.75 -2.85,0.92 v 0.83 h 12.23 v -0.83 c -1.22,-0.01 -2.24,-0.21 -2.76,-0.73 -0.61,-0.46 -0.89,-1.35 -0.89,-2.71 v -15.93 c 0.98,-1.02 1.77,-1.72 2.46,-2.16 1.13,-0.73 2.27,-1.14 3.42,-1.14 1.56,0 2.65,0.49 3.16,1.63 0.66,1.02 0.88,2.39 0.88,4.03 v 12.17 c 0,1.93 -0.22,3.18 -0.74,3.73 -0.51,0.61 -1.49,0.94 -2.9,1.11 v 0.83 h 12.09 v -0.83 c -1.21,0 -2.17,-0.27 -2.66,-0.88 -0.55,-0.64 -0.87,-1.62 -0.87,-3.02"
   id="path7" fill="#242423"/>
		<path
  
   d="m 818.14,719.48 c -1.37,-1.13 -3.34,-3.48 -6.07,-6.88 l -5,-6.76 1.56,-1.37 c 3.56,-3.39 6.05,-5.43 7.35,-6.18 1.22,-0.72 2.86,-1.19 4.95,-1.29 v -0.81 H 809.14 V 697 c 1.16,0.05 1.82,0.15 2.36,0.27 0.36,0.11 0.58,0.37 0.58,0.82 0,0.21 -0.08,0.49 -0.3,0.76 -0.14,0.3 -0.62,0.72 -1.16,1.19 l -7.8,6.95 v -23.87 c 0,-0.16 -0.01,-0.26 -0.04,-0.33 -0.05,-0.07 -0.07,-0.07 -0.13,-0.07 -0.12,0 -0.62,0.21 -1.51,0.48 -1.4,0.41 -3.08,0.87 -5.02,1.39 l -2.56,0.66 v 0.84 c 0.28,-0.05 0.67,-0.07 0.88,-0.07 0.3,-0.05 0.49,-0.05 0.92,-0.05 0.87,0 1.51,0.12 1.97,0.5 0.46,0.38 0.63,1.17 0.63,2.49 v 28.49 c 0,1.61 -0.22,2.57 -0.8,3.1 -0.65,0.45 -1.8,0.73 -3.6,0.84 v 0.83 h 13.68 v -0.83 c -1.4,0 -2.32,-0.17 -2.97,-0.33 -0.83,-0.51 -1.46,-1.38 -1.46,-2.67 v -10.53 l 8.77,11.49 c 0.16,0.22 0.27,0.47 0.36,0.6 0.12,0.19 0.13,0.43 0.13,0.61 0,0.33 -0.08,0.5 -0.35,0.64 -0.23,0.05 -0.6,0.13 -0.94,0.13 l -0.91,0.05 v 0.83 h 12.55 v -0.83 c -1.51,-0.12 -2.89,-0.74 -4.28,-1.9"
   id="path8" fill="#242423"/>
		<path
  
   d="m 395.64,718.75 c -1.28,0 -2.14,-0.22 -2.42,-0.71 -0.28,-0.5 -0.54,-1.31 -0.54,-2.56 l 0.11,-23.05 c 0,-1.11 0,-2.23 0.05,-3.33 0,-1.16 0.11,-2.27 0.11,-3.34 l 0.01,-2.97 -0.27,-0.07 c -0.62,0.25 -1.2,0.48 -1.49,0.51 -0.59,0.28 -1.37,0.48 -2.24,0.73 -0.88,0.23 -1.67,0.45 -2.57,0.7 l -2.35,0.59 v 0.95 c 0.73,-0.04 0.94,-0.11 1.14,-0.11 h 0.65 c 1.01,0 1.59,0.22 1.8,0.64 0.28,0.43 0.45,1.22 0.45,2.37 v 8.89 c -0.71,-0.66 -1.44,-1.19 -2.2,-1.64 -1.1,-0.58 -2.39,-0.91 -3.79,-0.91 -3.42,0 -6.32,1.5 -8.73,4.41 -2.35,2.9 -3.54,6.47 -3.54,10.55 0,3.3 0.98,6.12 2.96,8.59 1.97,2.49 4.62,3.68 7.77,3.68 1.81,0 3.39,-0.37 4.74,-1.29 0.78,-0.48 1.66,-1.32 2.78,-2.55 v 3.67 l 0.23,0.16 4.39,-1.57 c 2.62,-0.96 4.12,-1.43 4.21,-1.47 v -0.97 c -0.21,0.03 -0.5,0.03 -0.68,0.04 -0.1,0.01 -0.41,0.06 -0.58,0.06 m -7.58,-2.96 c 0,0.75 -0.54,1.63 -1.4,2.47 -0.88,0.87 -2.02,1.26 -3.54,1.26 -2.82,0 -4.84,-1.14 -6.27,-3.52 -1.46,-2.3 -2.12,-5.03 -2.12,-8.07 0,-3.01 0.6,-5.65 1.94,-7.7 1.38,-2.12 3.2,-3.16 5.55,-3.16 1.31,0 2.56,0.53 3.84,1.52 1.33,1.03 2,2.74 2,5.17 z"
   id="path9" fill="#242423"/>
		<path
  
   d="m 407.91,716.32 v -20.36 c 0,-0.15 -0.01,-0.28 -0.05,-0.45 -0.08,0 -0.47,0.15 -0.99,0.32 -1.32,0.61 -3.56,1.35 -6.88,2.43 l -1.22,0.39 v 0.83 c 1.02,-0.33 1.46,-0.44 1.73,-0.49 0.21,-0.05 0.41,-0.05 0.58,-0.05 0.95,0 1.55,0.37 1.76,1.13 0.19,0.54 0.3,1.36 0.3,2.61 v 13.6 c 0,2.25 -0.3,3.61 -0.78,4.1 -0.59,0.52 -1.82,0.83 -3.87,1 v 0.83 h 13.73 v -0.83 c -1.76,-0.14 -2.99,-0.45 -3.43,-1 -0.62,-0.56 -0.88,-1.91 -0.88,-4.06"
   id="path10" fill="#242423"/>
		<path
  
   d="m 236.8,716.28 v -11.53 c 0,-2.21 -0.26,-3.96 -0.88,-5.34 -1.08,-2.6 -3.19,-3.91 -6.22,-3.91 -1.89,0 -3.67,0.62 -5.35,1.76 -0.84,0.62 -1.9,1.65 -3.09,3 v -17.33 l -0.1,-0.21 -2.69,0.82 c -0.52,0.23 -1.35,0.48 -2.58,0.78 -1.25,0.34 -2.27,0.63 -3.14,0.92 v 1.08 c 0.23,-0.06 0.54,-0.06 0.7,-0.13 0.18,-0.03 0.41,-0.03 0.62,-0.03 1.03,0 1.68,0.23 1.99,0.77 0.26,0.49 0.45,1.26 0.45,2.27 v 27.08 c 0,2.1 -0.25,3.45 -0.79,3.97 -0.45,0.54 -1.47,0.96 -3.04,1.13 v 0.83 h 12.54 v -0.83 c -1.61,-0.18 -2.69,-0.59 -3.17,-1.11 -0.49,-0.49 -0.75,-1.86 -0.75,-3.99 v -13.92 c 0,-0.33 0.74,-1.02 2.08,-2.07 1.35,-1.09 2.78,-1.58 4.25,-1.58 1.67,0 2.8,0.56 3.43,1.69 0.56,1.14 0.92,2.64 0.92,4.44 v 11.44 c 0,2.1 -0.24,3.45 -0.7,3.97 -0.55,0.54 -1.57,0.95 -3.23,1.13 v 0.83 h 12.35 v -0.83 c -1.41,-0.17 -2.39,-0.56 -2.86,-1.14 -0.49,-0.61 -0.74,-1.94 -0.74,-3.96"
   id="path11" fill="#242423"/>
		<path
  
   d="m 177.79,683.84 -0.22,9.9 h 1.35 c 0.57,-3.1 1.5,-5.13 2.63,-6.06 1.19,-0.92 3.35,-1.36 6.65,-1.36 h 3.07 v 28.9 c 0,2.54 -0.35,4.12 -0.92,4.72 -0.67,0.61 -2.15,1.05 -4.62,1.25 v 1.02 h 16.94 v -1.02 c -2.3,-0.15 -3.76,-0.55 -4.48,-1.09 -0.66,-0.54 -1.03,-1.94 -1.03,-4.21 v -29.56 h 3.16 c 3.37,0 5.54,0.44 6.58,1.36 1.08,0.95 1.86,2.96 2.59,6.06 h 1.43 l -0.31,-9.9 h -32.82 z"
   id="path12" fill="#242423"/>
		<path
  
   d="m 301.27,701.06 -5.14,-3.17 c -1.93,-1.14 -3.27,-2.27 -4.15,-3.34 -0.99,-1.05 -1.42,-2.33 -1.42,-3.84 0,-1.67 0.51,-2.94 1.73,-3.88 1.18,-0.98 2.56,-1.42 4.2,-1.42 2.06,0 4.11,0.7 6.18,2.2 2.09,1.49 3.66,4.07 4.6,7.76 h 1.37 l -1.29,-12.32 h -1.19 c -0.16,0.61 -0.36,1 -0.74,1.36 -0.23,0.35 -0.72,0.5 -1.44,0.5 -0.29,0 -1.32,-0.31 -3.19,-0.9 -1.83,-0.65 -3.4,-0.96 -4.72,-0.96 -3.18,0 -5.78,1 -7.81,2.96 -1.81,1.93 -2.82,4.37 -2.82,7.31 0,2.18 0.87,4.2 2.46,6.03 0.84,0.98 2.04,1.92 3.5,2.88 l 5.02,3.08 c 2.83,1.76 4.75,3.12 5.6,4.02 1.39,1.35 2.07,3.02 2.07,4.95 0,2.06 -0.68,3.72 -2.07,4.88 -1.34,1.16 -2.9,1.76 -4.72,1.76 -3.52,0 -6.31,-1.39 -8.63,-4.04 -1.32,-1.53 -2.5,-3.61 -3.44,-6.2 h -1.42 l 1.71,12.38 h 1.34 c 0.13,-0.53 0.24,-1 0.54,-1.41 0.22,-0.45 0.69,-0.62 1.33,-0.62 0.35,0 1.4,0.29 3.31,0.95 1.94,0.68 3.89,1.08 5.67,1.08 3.57,0 6.53,-1.08 8.74,-3.13 2.33,-2 3.52,-4.58 3.52,-7.58 0,-2.26 -0.69,-4.24 -1.95,-5.87 -1.33,-1.67 -3.56,-3.43 -6.75,-5.42"
   id="path13" fill="#242423"/>
		<path
  
   d="m 260.9,717.19 c -1.41,1.01 -2.97,1.51 -5.02,1.51 -2.45,0 -4.54,-0.96 -6.34,-2.98 -1.77,-1.96 -2.75,-5.17 -2.94,-9.5 h 17.88 c 0,-3.37 -0.98,-5.94 -2.99,-7.76 -2.02,-1.86 -4.42,-2.74 -6.95,-2.74 -3.59,0 -6.53,1.34 -8.75,4.08 -2.29,2.81 -3.41,6.03 -3.41,9.81 0,3.53 1.02,6.59 2.86,9.21 2.03,2.68 4.69,4 8.25,4 3.13,0 5.72,-0.99 7.85,-3.03 2.1,-2.05 3.54,-4.25 4.31,-6.66 l -1.07,-0.37 c -1.08,1.91 -2.34,3.43 -3.68,4.43 M 248,700.63 c 1.12,-1.9 2.69,-2.83 4.93,-2.83 2.12,0 3.69,0.86 4.59,2.5 0.45,0.94 0.88,2.35 1.05,4.17 h -11.86 c 0.27,-1.56 0.7,-2.78 1.29,-3.84"
   id="path14" fill="#242423"/>
		<path
  
   d="m 364.17,718.75 c -0.42,-0.45 -0.64,-1.33 -0.64,-2.57 v -20.13 h -9.13 v 0.94 c 1.72,0.08 2.88,0.38 3.4,0.81 0.56,0.49 0.85,1.39 0.85,2.88 v 15.46 c -0.66,0.76 -1.4,1.45 -2.06,1.91 -1.26,0.84 -2.56,1.26 -3.86,1.26 -1.8,0 -3.04,-0.71 -3.75,-2.16 -0.4,-0.78 -0.58,-1.79 -0.58,-3.06 v -18.04 h -8.41 v 0.76 c 1.31,0.18 2.23,0.37 2.61,0.66 0.69,0.51 1,1.57 1,3.01 v 14.65 c 0,2.76 0.67,4.68 2.18,5.86 1.38,1.14 2.96,1.68 4.59,1.68 1.8,0 3.5,-0.54 5.07,-1.63 1.03,-0.77 2.21,-1.89 3.48,-3.45 v 4.71 c 0,0.11 0,0.2 0.02,0.26 0,0.1 0.12,0.11 0.23,0.11 1.63,-0.6 2.73,-0.95 3.13,-1.16 1.21,-0.32 1.99,-0.58 2.52,-0.73 0.44,-0.14 1.25,-0.28 2.26,-0.6 v -0.81 c -1.46,0.07 -2.44,-0.11 -2.91,-0.62"
   id="path15" fill="#242423"/>
		<path
  
   d="m 429.07,684.91 c 2.28,0.08 3.81,0.5 4.42,1.11 0.71,0.64 1.07,1.97 1.07,4.17 v 25.69 c 0,2.28 -0.36,3.67 -1.07,4.22 -0.61,0.54 -2.15,0.94 -4.42,1.09 v 1.02 H 446 v -1.02 c -2.28,-0.15 -3.85,-0.55 -4.43,-1.09 -0.71,-0.55 -1.06,-1.94 -1.06,-4.22 v -25.69 c 0,-2.2 0.35,-3.53 1.06,-4.17 0.58,-0.62 2.16,-1.03 4.43,-1.11 v -1.07 h -16.93 z"
   id="path16" fill="#242423"/>
		<path
  
   d="m 634.46,717.19 c -1.36,1.01 -3.03,1.51 -4.99,1.51 -2.43,0 -4.59,-0.96 -6.33,-2.98 -1.87,-1.96 -2.82,-5.17 -3.04,-9.5 h 17.92 c 0,-3.37 -0.98,-5.94 -2.97,-7.76 -1.94,-1.86 -4.29,-2.74 -6.98,-2.74 -3.66,0 -6.59,1.34 -8.74,4.08 -2.25,2.81 -3.37,6.03 -3.37,9.81 0,3.53 0.91,6.59 2.87,9.21 1.95,2.68 4.72,4 8.27,4 3.03,0 5.57,-0.99 7.73,-3.03 2.16,-2.05 3.65,-4.25 4.32,-6.66 l -1.03,-0.37 c -1.09,1.91 -2.32,3.43 -3.66,4.43 m -12.99,-16.56 c 1.16,-1.9 2.76,-2.83 4.96,-2.83 2.19,0 3.74,0.86 4.62,2.5 0.56,0.94 0.83,2.35 1.1,4.17 h -11.93 c 0.26,-1.56 0.72,-2.78 1.25,-3.84"
   id="path17" fill="#242423"/>
		<path
  
   d="m 665.11,717.49 v -13.24 c 0,-3.64 -1.02,-6.27 -3.04,-7.66 -1.07,-0.77 -2.22,-1.15 -3.45,-1.15 -1.65,0 -3.17,0.45 -4.66,1.37 -0.95,0.65 -2.35,1.76 -4,3.39 v -4.1 c 0,-0.21 0,-0.32 -0.08,-0.42 0,-0.06 -0.18,-0.17 -0.23,-0.17 l -2.64,0.91 c -2.87,0.85 -4.72,1.43 -5.61,1.67 v 0.96 c 0.37,-0.05 0.61,-0.1 0.83,-0.1 0.11,0 0.26,-0.03 0.45,-0.03 1.14,0 1.75,0.36 2.15,1.07 0.23,0.47 0.42,1.35 0.42,2.56 v 14.59 c 0,1.69 -0.32,2.79 -0.88,3.33 -0.47,0.47 -1.45,0.75 -2.74,0.92 v 0.83 h 12.22 v -0.83 c -1.31,-0.01 -2.24,-0.21 -2.86,-0.73 -0.47,-0.46 -0.81,-1.35 -0.81,-2.71 v -15.93 c 0.97,-1.02 1.82,-1.72 2.37,-2.16 1.24,-0.73 2.35,-1.14 3.45,-1.14 1.6,0 2.74,0.49 3.25,1.63 0.67,1.02 1,2.39 1,4.03 v 12.17 c 0,1.93 -0.31,3.18 -0.89,3.73 -0.53,0.61 -1.5,0.94 -2.91,1.11 v 0.83 h 12.18 v -0.83 c -1.31,0 -2.13,-0.27 -2.8,-0.88 -0.45,-0.64 -0.72,-1.62 -0.72,-3.02"
   id="path18" fill="#242423"/>
		<path
  
   d="m 683.14,719.1 c -0.44,0.27 -1.06,0.42 -1.76,0.42 -1.32,0 -2.22,-0.64 -2.71,-1.93 -0.19,-0.7 -0.23,-1.86 -0.23,-3.19 l 0.01,-16.23 h 5.75 v -1.98 h -5.72 v -6.99 c 0,-0.26 0,-0.37 -0.03,-0.37 -0.01,-0.06 -0.24,-0.1 -0.54,-0.1 -2.12,2.86 -3.39,4.64 -4.07,5.28 -0.51,0.69 -1.52,1.56 -2.76,2.62 -0.45,0.36 -0.78,0.63 -0.88,0.74 -0.01,0.09 -0.06,0.22 -0.06,0.43 0,0.06 0.04,0.09 0.06,0.18 0,0.07 0.09,0.11 0.22,0.19 h 3.06 v 17.09 c 0,1.91 0.26,3.39 0.74,4.52 0.7,1.95 2.34,2.89 4.45,2.89 1.11,0 2.13,-0.17 3.23,-0.79 1.05,-0.62 2.13,-1.51 3.1,-2.83 l 0.58,-0.93 -0.67,-0.63 c -0.67,0.71 -1.29,1.21 -1.77,1.61"
   id="path19" fill="#242423"/>
		<path
  
   d="m 567.19,719.1 c -0.43,0.27 -1.05,0.42 -1.75,0.42 -1.25,0 -2.24,-0.64 -2.65,-1.93 -0.24,-0.7 -0.4,-1.86 -0.4,-3.19 l 0.07,-16.23 h 5.84 v -1.98 h -5.75 v -6.99 c 0,-0.26 0,-0.37 -0.06,-0.37 -0.08,-0.06 -0.22,-0.1 -0.45,-0.1 -2.13,2.86 -3.45,4.64 -4.13,5.28 -0.51,0.69 -1.42,1.56 -2.81,2.62 -0.41,0.36 -0.69,0.63 -0.79,0.74 -0.06,0.09 -0.06,0.22 -0.06,0.43 0,0.06 0,0.09 0.01,0.18 0.05,0.07 0.1,0.11 0.19,0.19 h 3.1 v 17.09 c 0,1.91 0.17,3.39 0.72,4.52 0.69,1.95 2.25,2.89 4.5,2.89 1.05,0 2.07,-0.17 3.15,-0.79 1.09,-0.62 2.21,-1.51 3.09,-2.83 l 0.7,-0.93 -0.85,-0.63 c -0.48,0.71 -1.1,1.21 -1.67,1.61"
   id="path20" fill="#242423"/>
		<path
  
   d="m 610.36,717.76 v -11.72 c 0,-3.03 -0.24,-5.24 -0.9,-6.6 -0.98,-2.49 -2.98,-3.7 -6.1,-3.7 -1.79,0 -3.6,0.53 -5.32,1.73 -1.01,0.65 -2.35,1.69 -3.72,3.15 -0.38,-1.25 -0.82,-2.24 -1.44,-2.94 -1.2,-1.32 -2.72,-1.94 -4.64,-1.94 -1.4,0 -2.77,0.33 -4.21,0.92 -1.29,0.72 -2.9,1.83 -4.76,3.54 v -3.77 c 0,-0.28 0,-0.48 -0.05,-0.6 -0.05,-0.06 -0.08,-0.09 -0.2,-0.09 -0.09,0 -0.91,0.33 -2.61,0.97 -1.75,0.67 -2.97,1.14 -3.72,1.4 l -2.02,0.63 v 1.01 c 0.31,-0.1 0.43,-0.12 0.7,-0.17 0.15,-0.03 0.44,-0.03 0.85,-0.03 0.87,0 1.48,0.18 1.83,0.62 0.35,0.46 0.49,1.36 0.49,2.76 v 14.53 c 0,1.67 -0.33,2.7 -1.06,3.22 -0.46,0.44 -1.45,0.61 -2.88,0.73 v 0.83 h 12.95 v -0.83 c -1.67,0 -2.78,-0.21 -3.35,-0.78 -0.44,-0.54 -0.67,-1.44 -0.67,-2.84 v -15.58 c 0.8,-1.06 1.78,-1.89 2.82,-2.55 1.11,-0.59 2.28,-0.92 3.41,-0.92 2.06,0 3.35,0.92 3.96,2.76 0.35,1.15 0.56,3.12 0.56,6.02 v 7.87 c 0,2.6 -0.26,4.15 -0.7,4.77 -0.53,0.59 -1.69,1.06 -3.45,1.24 v 0.83 h 13.01 v -0.83 c -1.8,-0.03 -2.91,-0.44 -3.48,-1.24 -0.48,-0.8 -0.75,-1.94 -0.75,-3.4 v -14.51 c 0.98,-1.06 1.89,-1.83 2.49,-2.29 1.24,-0.82 2.42,-1.23 3.7,-1.23 1.98,0 3.35,0.79 4.1,2.28 0.37,0.91 0.5,2.21 0.5,4.11 v 12.27 c 0,1.53 -0.21,2.56 -0.7,3.1 -0.57,0.48 -1.7,0.78 -3.31,0.92 v 0.83 h 12.86 v -0.83 c -1.58,-0.14 -2.64,-0.39 -3.23,-0.88 -0.69,-0.56 -0.96,-1.42 -0.96,-2.77"
   id="path21" fill="#242423"/>
		<path
  
   d="m 471.91,717.49 v -13.24 c 0,-3.64 -1.1,-6.27 -3.12,-7.66 -1.1,-0.77 -2.17,-1.15 -3.42,-1.15 -1.54,0 -3.11,0.45 -4.59,1.37 -1.04,0.65 -2.35,1.76 -4.03,3.39 v -4.1 c 0,-0.21 0,-0.32 -0.07,-0.42 -0.07,-0.06 -0.09,-0.17 -0.25,-0.17 l -2.63,0.91 c -2.92,0.85 -4.76,1.43 -5.56,1.67 v 0.96 c 0.23,-0.05 0.55,-0.1 0.71,-0.1 0.18,0 0.4,-0.03 0.54,-0.03 1.11,0 1.83,0.36 2.17,1.07 0.26,0.47 0.31,1.35 0.31,2.56 v 14.59 c 0,1.69 -0.2,2.79 -0.77,3.33 -0.53,0.47 -1.5,0.75 -2.79,0.92 v 0.83 h 12.33 v -0.83 c -1.33,-0.01 -2.31,-0.21 -2.93,-0.73 -0.62,-0.46 -0.88,-1.35 -0.88,-2.71 v -15.93 c 1.06,-1.02 1.73,-1.72 2.52,-2.16 1.13,-0.73 2.19,-1.14 3.38,-1.14 1.56,0 2.66,0.49 3.27,1.63 0.62,1.02 0.93,2.39 0.93,4.03 v 12.17 c 0,1.93 -0.31,3.18 -0.89,3.73 -0.48,0.61 -1.48,0.94 -2.95,1.11 v 0.83 h 12.23 v -0.83 c -1.28,0 -2.17,-0.27 -2.72,-0.88 -0.59,-0.64 -0.79,-1.62 -0.79,-3.02"
   id="path22" fill="#242423"/>
		<path
  
   d="m 495.75,696.65 c 0.8,0.05 1.36,0.16 1.73,0.34 0.75,0.38 1.07,0.87 1.07,1.64 0,0.37 -0.06,0.87 -0.28,1.57 -0.22,0.67 -0.5,1.32 -0.72,1.99 l -5.05,12.57 -5.96,-14.31 c -0.26,-0.5 -0.36,-0.92 -0.43,-1.24 -0.05,-0.22 -0.07,-0.49 -0.07,-0.85 0,-0.57 0.08,-0.98 0.58,-1.25 0.46,-0.16 1.1,-0.32 2.08,-0.45 v -0.81 h -11.3 v 0.81 c 0.87,0.14 1.5,0.34 2.01,0.72 0.77,0.57 1.53,1.75 2.16,3.43 l 8.71,20.77 c 0.15,0.31 0.34,0.6 0.45,0.84 0.1,0.16 0.18,0.26 0.35,0.26 0.25,0 0.37,-0.04 0.54,-0.14 0.13,-0.12 0.23,-0.4 0.41,-0.77 l 8.13,-20.44 c 0.62,-1.91 1.37,-3.15 1.71,-3.69 0.4,-0.58 1.09,-0.84 2.05,-0.98 v -0.81 h -8.15 v 0.8 z"
   id="path23" fill="#242423"/>
		<path
  
   d="m 545.15,707.5 -3.74,-1.97 c -2.61,-1.4 -3.94,-2.92 -3.94,-4.67 0,-1.13 0.43,-2.04 1.18,-2.88 0.77,-0.8 1.79,-1.2 3.11,-1.2 2.27,0 3.96,0.9 5.12,2.83 0.71,1.02 1.13,2.48 1.61,4.28 h 0.76 l -0.17,-7.84 h -0.59 c -0.15,0.17 -0.33,0.36 -0.48,0.4 -0.08,0.12 -0.33,0.17 -0.7,0.17 -0.21,0 -0.8,-0.18 -2.05,-0.57 -1.17,-0.4 -2.37,-0.61 -3.26,-0.61 -2.33,0 -4.32,0.7 -5.81,2.01 -1.51,1.39 -2.24,3.15 -2.24,5.24 0,1.72 0.59,3.23 1.62,4.46 1.19,1.28 2.83,2.5 5.15,3.8 l 3.14,1.77 c 1.27,0.67 2.02,1.36 2.52,2.17 0.45,0.71 0.62,1.46 0.62,2.29 0,1.28 -0.35,2.26 -1.16,3.07 -0.79,0.78 -1.93,1.12 -3.31,1.12 -2.59,0 -4.49,-1.03 -5.73,-3.18 -0.8,-1.17 -1.39,-2.84 -1.84,-4.96 h -0.95 v 9.18 h 0.78 c 0.15,-0.29 0.33,-0.5 0.45,-0.58 0.18,-0.17 0.33,-0.26 0.62,-0.26 0.23,0 1.1,0.2 2.54,0.55 1.43,0.41 2.69,0.55 3.84,0.55 2.67,0 4.75,-0.69 6.45,-2.1 1.68,-1.37 2.52,-3.21 2.52,-5.48 -0.01,-2.87 -2.04,-5.4 -6.06,-7.59"
   id="path24" fill="#242423"/>
		<path
  
   d="m 524.9,717.19 c -1.31,1.01 -2.97,1.51 -4.97,1.51 -2.43,0 -4.54,-0.96 -6.31,-2.98 -1.84,-1.96 -2.92,-5.17 -3.03,-9.5 h 17.95 c 0,-3.37 -0.97,-5.94 -2.98,-7.76 -2.03,-1.86 -4.31,-2.74 -7.01,-2.74 -3.59,0 -6.54,1.34 -8.8,4.08 -2.24,2.81 -3.29,6.03 -3.29,9.81 0,3.53 0.89,6.59 2.85,9.21 1.92,2.68 4.67,4 8.22,4 3.03,0 5.68,-0.99 7.83,-3.03 2.09,-2.05 3.56,-4.25 4.32,-6.66 l -1.01,-0.37 c -1.1,1.91 -2.38,3.43 -3.77,4.43 m -12.88,-16.56 c 1.16,-1.9 2.76,-2.83 4.87,-2.83 2.19,0 3.7,0.86 4.71,2.5 0.41,0.94 0.83,2.35 1.03,4.17 h -11.97 c 0.32,-1.56 0.8,-2.78 1.36,-3.84"
   id="path25" fill="#242423"/>
		<path
  
   d="m 761.79,719.37 c -0.73,0 -1.23,-0.32 -1.5,-1.05 -0.11,-0.38 -0.15,-1.18 -0.15,-2.23 v -11.46 c 0,-2.41 -0.51,-4.34 -1.07,-5.68 -1.35,-2.37 -3.83,-3.58 -7.48,-3.58 -3.13,0 -5.55,0.76 -7.22,2.19 -1.64,1.42 -2.5,2.81 -2.5,4.13 0,0.66 0.26,1.31 0.77,1.88 0.39,0.56 1.01,0.81 1.91,0.81 0.59,0 1.01,-0.13 1.45,-0.36 0.73,-0.44 0.99,-1.2 0.99,-2.24 0,-0.1 -0.06,-0.47 -0.14,-1 -0.02,-0.55 -0.02,-0.97 -0.02,-1.17 0,-0.9 0.45,-1.64 1.2,-2.15 0.93,-0.48 1.89,-0.68 2.79,-0.68 2.03,0 3.32,0.61 4.02,1.89 0.31,0.76 0.5,2.1 0.5,4.02 v 2.4 c -5.15,1.97 -8.61,3.5 -10.39,4.6 -2.77,1.91 -4.15,4.17 -4.15,6.95 0,1.73 0.7,3.21 1.88,4.39 1.18,1.09 2.64,1.63 4.15,1.63 1.63,0 3.26,-0.47 4.94,-1.47 1.05,-0.63 2.3,-1.55 3.59,-2.79 0.11,1.11 0.44,2.13 1.03,2.92 0.58,0.8 1.54,1.21 2.82,1.21 1.07,0 2.12,-0.33 3.21,-1.06 0.67,-0.44 1.38,-1.02 1.94,-1.8 v -1.38 c -0.65,0.47 -1.16,0.8 -1.5,0.91 -0.23,0.14 -0.51,0.17 -1.07,0.17 m -6.44,-3.81 c 0,1.09 -0.5,1.98 -1.72,2.7 -1.09,0.73 -2.3,1.04 -3.53,1.04 -1,0 -1.73,-0.25 -2.47,-0.77 -1.23,-0.89 -1.73,-2.17 -1.73,-3.89 0,-2.15 1.39,-4.09 4.12,-5.74 1.41,-0.87 3.2,-1.67 5.33,-2.41 z"
   id="path26" fill="#242423"/>
		<path
  
   d="m 814.23,595.17 c 1.56,-0.86 5.19,-2.97 8.2,-6.69 v 72.44 h -8.2 v -65.75 m -157.49,0 v 65.75 h 8.21 v -72.44 c -3.08,3.72 -6.76,5.82 -8.21,6.69 m -291.17,-6.69 c -3.07,3.71 -6.68,5.82 -8.2,6.69 v 48.43 h 8.2 z m 27.91,6.69 v 57.44 h -9.8 v -57.44 c -1.49,-0.86 -5.14,-2.97 -8.24,-6.69 v 64.13 H 357.2 v 8.31 h 44.52 v -72.44 c -3.02,3.68 -6.76,5.82 -8.24,6.69 m 403.23,-6.69 v 64.12 h -11.14 v -31.54 c -2.32,2.51 -6.49,4.77 -8.26,6.01 v 25.53 h -12.23 v -31.54 c -2.41,2.64 -6.66,4.97 -8.34,6.21 v 25.33 h -9.7 v -64.35 c -2.7,2.86 -6.24,5.65 -8.24,7.06 v 57.29 h -50.89 c -1.65,0 -2.85,-0.67 -3.78,-1.43 -0.93,2.92 -2.88,9.75 -2.88,9.75 h 123.34 v -65.64 c -3.43,-2.41 -6.14,-4.85 -7.88,-6.8 m -67.75,39.77 h -14.35 v -4.03 c 0,-3.51 0.5,-4.24 4.81,-4.24 4.04,0 5.27,-0.69 5.94,-1.11 v -3.03 c -1,0.52 -1.66,0.93 -4.07,0.93 h -6.02 c -3.01,0 -5.55,2.12 -5.55,5.77 v 5.71 h -11.71 c -0.56,0.89 -1.76,3.03 -2.99,5.17 h 33.94 z m -272.09,2.41 c 0,2.76 0.04,13.52 0.04,13.9 h 16.01 v 8.05 H 428.9 v -18.26 c -2.86,3.46 -7.14,5.62 -8.42,6.43 v 20.14 h 60.8 v -23.96 h -16.55 v -5.53 c 0,-8.5 9.52,-12.87 16.65,-13.58 v -8.13 c -20.09,3.62 -24.51,15.21 -24.51,20.94 m 44.42,5.97 h -9.58 v 6.48 h 7.4 c 4.48,0 5.15,2.33 5.15,5.76 v 3.74 h -12.24 v 8.36 h 20.47 v -13.9 c 0,-5.82 -3.7,-10.44 -11.2,-10.44 M 258.81,612.2 c 2.29,0 4.1,-1.83 4.1,-4.06 0,-2.27 -1.81,-4.1 -4.1,-4.1 -2.27,0 -4.11,1.83 -4.11,4.1 -0.01,2.23 1.84,4.06 4.11,4.06 m 6.33,-4.07 c 0,2.24 1.86,4.06 4.14,4.06 2.3,0 4.1,-1.83 4.1,-4.06 0,-2.27 -1.8,-4.1 -4.1,-4.1 -2.28,0 -4.14,1.83 -4.14,4.1 m 22.82,4.07 c 2.34,0 4.12,-1.83 4.12,-4.06 0,-2.27 -1.78,-4.1 -4.12,-4.1 -2.24,0 -4.11,1.83 -4.11,4.1 -0.01,2.23 1.87,4.06 4.11,4.06 m 10.51,0 c 2.21,0 4.07,-1.83 4.07,-4.06 0,-2.27 -1.86,-4.1 -4.07,-4.1 -2.23,0 -4.06,1.83 -4.06,4.1 0,2.23 1.84,4.06 4.06,4.06 m 144.9,52.71 c -2.33,0 -4.06,1.87 -4.06,4.13 0,2.24 1.73,4.1 4.06,4.1 2.29,0 4.13,-1.87 4.13,-4.1 0,-2.25 -1.84,-4.13 -4.13,-4.13 m 10.52,0 c -2.29,0 -4.19,1.87 -4.19,4.13 0,2.24 1.9,4.1 4.19,4.1 2.29,0 4.15,-1.87 4.15,-4.1 0,-2.25 -1.86,-4.13 -4.15,-4.13 m 327,0 c -2.32,0 -4.17,1.87 -4.17,4.13 0,2.24 1.85,4.1 4.17,4.1 2.28,0 4.08,-1.87 4.08,-4.1 0,-2.25 -1.8,-4.13 -4.08,-4.13 m -18.53,-54.69 c 2.28,0 4.15,-1.84 4.15,-4.13 0,-2.24 -1.87,-4.09 -4.15,-4.09 -2.24,0 -4.14,1.86 -4.14,4.09 -0.01,2.29 1.9,4.13 4.14,4.13 M 264.1,603.73 c 2.3,0 4.1,-1.89 4.1,-4.13 0,-2.3 -1.8,-4.12 -4.1,-4.12 -2.37,0 -4.07,1.83 -4.07,4.12 0.01,2.24 1.7,4.13 4.07,4.13 m 73.15,24.18 c 3.26,-2.19 6.1,-4.53 8.35,-6.96 v 39.98 H 240.93 c -1.65,5.26 -6.57,9.12 -12.36,9.12 -5.83,0 -10.72,-3.87 -12.29,-9.14 h -12.9 v -65.74 c 1.54,-0.87 5.23,-2.98 8.3,-6.69 v 64.16 h 4.83 c 1.85,-4.87 6.55,-8.37 12.06,-8.37 5.54,0 10.19,3.47 12.05,8.34 h 19.65 v -25.46 c 3.26,-1.89 6.6,-4.1 8.31,-6.11 v 31.57 h 19.37 v -25.46 c 3.43,-1.87 6.59,-4.13 8.25,-6.19 v 31.66 l 8.17,0.02 V 640.8 c 1.19,-0.22 2.35,-0.44 3.58,-0.72 1.59,-0.34 3.05,-0.73 4.69,-1.19 v 13.73 h 8.27 v -16.37 c 2.83,-1.11 5.52,-2.29 8.17,-3.59 v 19.96 h 8.17 v -24.71 m -108.68,35 c 3.18,0 5.71,-2.59 5.71,-5.73 0,-3.19 -2.53,-5.75 -5.71,-5.75 -3.12,0 -5.67,2.57 -5.67,5.75 0,3.13 2.55,5.73 5.67,5.73 m 410.7,-74.47 c 1.68,1.99 3.93,4.32 7.74,7.02 v 65.55 h -99.54 v 0.48 c 0,8.43 -10.1,13.43 -18.04,7.2 8.78,2.35 9.69,-3.4 9.69,-7.63 v -0.09 h -16.55 v -11.83 c 0,-6.3 2.86,-11.41 11.98,-13.04 6.16,-1.13 10.33,-2.31 12.92,-4.45 v 9.76 -0.01 11.27 h 7.77 v -7.85 c 0,-4.48 2.87,-7.68 9.06,-7.68 h 8.65 v 6.1 h -7.65 c -1.4,0 -1.8,0.7 -1.8,2.54 v 6.89 h 26.41 V 640.8 c 1.25,-0.22 2.41,-0.47 3.64,-0.72 1.53,-0.33 3.12,-0.75 4.68,-1.19 v 13.77 h 8.21 v -16.45 c 2.85,-1.07 5.65,-2.25 8.27,-3.55 v 19.99 h 8.13 v -24.76 c 3.31,-2.19 6.05,-4.52 8.27,-6.96 v 31.72 h 8.17 v -64.21 m -100.16,54.39 c 0,0 -1.41,0.5 -2.56,0.77 -4.54,0.99 -5.8,2.5 -5.8,5.81 v 3.15 h 8.36 v -3.92 z m -351.84,5.81 v 12.42 c 0,4.23 -0.93,9.98 -9.71,7.63 8,6.23 18.03,1.23 18.03,-7.2 v -20.1 c -2.15,5.96 -5.99,7.25 -8.32,7.25"
   id="path27" fill="#242423"/>
	</g>
</svg>
