<svg width="79" height="20" viewBox="0 0 79 20" fill="none" xmlns="http://www.w3.org/2000/svg">
<g clip-path="url(#clip0_625_12250)">
<path d="M52.1669 7.85572C52.1669 9.96006 50.6538 11.2992 48.2364 11.2992H44.2017V0.151367H48.4973C50.5321 0.151367 51.7843 1.22963 51.7843 2.95137C51.7843 3.96006 51.2451 4.74267 50.3582 5.16006C51.506 5.59485 52.1669 6.55137 52.1669 7.85572ZM48.306 1.78615H46.0973V4.53398H48.2886C49.2973 4.53398 49.9234 3.99485 49.9234 3.16006C49.9234 2.27311 49.3495 1.78615 48.306 1.78615ZM50.2712 7.85572C50.2712 6.77745 49.506 6.16876 48.1495 6.16876H46.0973V9.6818H48.1321C49.4538 9.66441 50.2712 8.96876 50.2712 7.85572Z" fill="#03BB86"/>
<path d="M60.1843 5.78623V11.2993H58.3583V10.3601C57.8191 11.108 56.9496 11.5254 55.8191 11.5254C54.2365 11.5254 53.1409 10.5515 53.1409 9.12536C53.1409 7.83841 53.9409 6.93406 55.28 6.77754L58.3583 6.39493V6.01232C58.3583 5.56015 58.1148 5.31667 57.6974 5.31667H53.8365V3.68188H57.767C59.3148 3.68188 60.1843 4.42971 60.1843 5.78623ZM58.3583 8.79493V7.82102L56.0104 8.15145C55.3496 8.23841 55.0017 8.58623 55.0017 9.12536C55.0017 9.71667 55.4539 10.0645 56.2713 10.0645C57.1757 10.0645 58.0452 9.54275 58.3583 8.79493Z" fill="#03BB86"/>
<path d="M69.6278 6.42967V11.2992H67.767V6.88184C67.767 5.89054 67.2974 5.1601 66.2017 5.1601C65.3843 5.1601 64.48 5.69923 64.1148 6.46445V11.2992H62.2539V3.68184H64.1148V4.63836C64.7409 3.89054 65.6626 3.47314 66.7583 3.47314C68.5496 3.47314 69.6278 4.65575 69.6278 6.42967Z" fill="#03BB86"/>
<path d="M74.2887 8.06441H73.4366V11.2992H71.5757V0.151367H73.4366V6.56876H74.2713L76.3757 3.6818H78.5148L75.8192 7.22963L78.6539 11.2992H76.4626L74.2887 8.06441Z" fill="#03BB86"/>
<path d="M6.30604 19.9425C8.30604 19.9425 9.94082 19.3165 11.0017 18.273C11.8017 17.473 12.2713 16.3947 12.2713 15.1599C12.2713 14.0295 11.8539 13.0208 11.0886 12.2382C10.3234 11.473 9.21038 10.8991 7.81908 10.6382L5.52343 10.186C4.56691 10.0121 4.04517 9.52515 4.04517 8.88167C4.04517 8.01211 4.87995 7.4208 6.21908 7.4208C7.05386 7.4208 7.7669 7.68167 8.23647 8.16863C8.53212 8.49907 8.74082 8.91646 8.79299 9.38602L12.0973 8.6382C12.0104 7.68167 11.5582 6.84689 10.8799 6.16863C9.80169 5.09037 8.14951 4.41211 6.1843 4.41211C4.3756 4.41211 2.86256 5.00341 1.81908 5.95993C0.932123 6.79472 0.427775 7.92515 0.427775 9.17733C0.427775 10.273 0.792992 11.1947 1.50604 11.9078C2.21908 12.6208 3.26256 13.1599 4.61908 13.4904L6.87995 14.0295C8.01038 14.2904 8.51473 14.7078 8.51473 15.4556C8.51473 16.3773 7.67995 16.9165 6.32343 16.9165C5.34951 16.9165 4.53212 16.586 4.02778 16.0469C3.66256 15.6817 3.47125 15.2121 3.43647 14.673L0.045166 15.4208C0.132123 16.4295 0.601688 17.3165 1.31473 18.0295C2.44517 19.2295 4.25386 19.9425 6.30604 19.9425Z" fill="#4F008C"/>
<path d="M33.5407 19.9425C35.732 19.9425 37.4364 19.1425 38.6016 18.0121C39.5233 17.1252 40.0798 16.0817 40.3929 15.0034L36.9146 13.8382C36.7581 14.3773 36.4625 14.9338 35.9929 15.386C35.4364 15.9252 34.6538 16.3078 33.5581 16.3078C32.5494 16.3078 31.5929 15.9252 30.9146 15.2295C30.2364 14.5165 29.819 13.473 29.819 12.1686C29.819 10.8643 30.2364 9.82081 30.9146 9.10776C31.5929 8.4295 32.5146 8.06428 33.5233 8.06428C34.6016 8.06428 35.332 8.4295 35.8712 8.95124C36.3233 9.40341 36.5842 9.95994 36.7581 10.5338L40.2885 9.35124C40.0277 8.30776 39.4538 7.26428 38.619 6.41211C37.4364 5.24689 35.6972 4.41211 33.419 4.41211C31.3146 4.41211 29.4016 5.21211 28.0451 6.58602C26.6711 7.97733 25.8538 9.90776 25.8538 12.1686C25.8538 14.4295 26.7233 16.3599 28.1146 17.7512C29.4538 19.1425 31.3842 19.9425 33.5407 19.9425Z" fill="#4F008C"/>
<path d="M17.4365 19.4903V8.04681H13.5234V4.58594H25.2452V8.04681H21.3147V19.4903H17.4365Z" fill="#4F008C"/>
</g>
<defs>
<clipPath id="clip0_625_12250">
<rect width="79" height="20" fill="white"/>
</clipPath>
</defs>
</svg>
