<svg width="209" height="40" viewBox="0 0 209 40" fill="none" xmlns="http://www.w3.org/2000/svg">
<path d="M70.4373 3.31907V28.5938C70.4373 34.165 65.5564 38.4008 59.1106 38.4008C52.6647 38.4008 47.7852 34.165 47.7852 28.5938V9.25884C47.7817 8.48168 47.9314 7.71124 48.2258 6.99211C48.5202 6.2727 48.9535 5.61858 49.501 5.06707C50.0485 4.5153 50.6994 4.07689 51.4163 3.77709C52.1333 3.47703 52.9024 3.32149 53.6796 3.31907H54.0944V28.5473C54.0944 31.5394 56.767 33.3819 59.3483 33.3819C61.8324 33.3819 64.5029 31.6777 64.5029 28.5473V8.93326C64.5088 7.4461 65.1022 6.02153 66.1539 4.97009C67.2056 3.91839 68.6299 3.32498 70.1171 3.31907H70.4373Z" fill="white"/>
<path d="M82.8638 12.25C91.4708 12.25 92.8516 17.0817 92.8516 19.9832V38.0309H92.5749C91.0276 38.0142 89.5447 37.3942 88.4433 36.3025C87.3438 35.2108 86.7125 33.7333 86.684 32.1838V20.0799C86.684 18.376 85.9928 16.3467 82.6328 16.3467C81.4424 16.3056 80.2551 16.4934 79.1354 16.8998V38.0322H72.9619V14.1345C76.1232 12.9189 79.4771 12.2807 82.8638 12.25Z" fill="white"/>
<path d="M98.6341 3.31908C99.0531 3.30323 99.4722 3.37039 99.8671 3.51652C100.262 3.66293 100.622 3.88563 100.931 4.17172C101.24 4.45782 101.49 4.80194 101.664 5.18447C101.839 5.56674 101.936 5.9799 101.952 6.40031C101.93 6.81482 101.828 7.22126 101.651 7.59627C101.471 7.97129 101.221 8.30734 100.915 8.58538C100.606 8.86369 100.246 9.07833 99.8537 9.21722C99.4641 9.3561 99.0477 9.41654 98.6341 9.39505C97.7905 9.43938 96.9658 9.14978 96.3372 8.58888C95.7086 8.02824 95.3245 7.24168 95.2734 6.40031C95.3137 5.5474 95.6898 4.74499 96.3184 4.16796C96.9497 3.59094 97.7798 3.28577 98.6341 3.31908ZM101.672 12.2501V32.2295C101.67 33.7674 101.057 35.2417 99.9692 36.3291C98.8812 37.4166 97.4064 38.0282 95.8698 38.0296H95.5931V12.2501H101.672Z" fill="white"/>
<path d="M119.199 2.8109C121.96 2.7467 124.684 3.44783 127.072 4.83721V10.9132C125.689 9.11575 123.712 7.87492 120.534 7.87492C114.272 7.87492 110.404 14.0441 110.404 20.4438C110.404 26.4771 114.46 33.0583 120.534 33.0583C123.204 33.0583 125.643 32.2779 127.072 30.343V36.3263C125.275 37.6624 122.468 38.4001 119.153 38.4001C109.208 38.4001 103.959 29.2837 103.959 20.49C103.959 11.8362 109.208 2.8109 119.199 2.8109Z" fill="white"/>
<path d="M137.975 12.2501C139.132 12.2571 140.287 12.3495 141.432 12.5268V17.453C139.31 15.9323 136.5 16.4397 135.259 17.0826V32.2314C135.251 33.7672 134.635 35.2372 133.55 36.323C132.462 37.4088 130.993 38.0226 129.456 38.0318H129.134V14.2294C131.874 12.8513 134.909 12.1714 137.975 12.2501Z" fill="white"/>
<path d="M162.789 25.4164L147.461 27.5346C147.966 31.7247 150.088 33.9343 153.949 33.9343C156.828 34.0557 159.657 33.1762 161.959 31.4454V36.5543C159.278 37.848 156.326 38.4801 153.352 38.3974C145.849 38.3974 141.382 33.332 141.382 25.227C141.382 17.3563 145.524 12.2466 152.339 12.2466C159.063 12.2466 162.789 16.7126 162.789 24.4458V25.4164ZM157.449 21.9182C157.264 16.8024 154.091 16.2549 152.385 16.2549H152.157C148.702 16.347 147.093 18.7873 147.093 23.3444L157.449 21.9182Z" fill="white"/>
<path d="M184.899 3.31907V37.7088C182.14 38.1228 179.357 38.3538 176.566 38.4H176.152C168.646 38.306 164.547 33.9756 164.547 26.1976C164.547 18.3255 168.829 13.2628 175.459 13.2628C176.59 13.2532 177.718 13.3767 178.819 13.6309V9.16401C178.814 8.39894 178.962 7.64059 179.252 6.9322C179.542 6.22408 179.969 5.57989 180.506 5.03698C181.046 4.49381 181.688 4.06265 182.395 3.76795C183.099 3.47299 183.856 3.32041 184.622 3.31907H184.899ZM178.865 17.2209C178.177 17.0294 177.466 16.9364 176.751 16.9442C171.685 16.9442 170.626 21.8242 170.626 25.8768C170.626 31.5388 172.512 34.3477 176.337 34.3477C177.183 34.3248 178.027 34.2483 178.865 34.1188V17.2209Z" fill="white"/>
<path d="M190.81 3.319C191.229 3.30315 191.648 3.37031 192.043 3.51672C192.438 3.66312 192.8 3.88582 193.106 4.17192C193.415 4.45801 193.665 4.80213 193.84 5.1844C194.014 5.56666 194.111 5.97983 194.127 6.40024C194.106 6.81474 194.004 7.22118 193.826 7.5962C193.649 7.97121 193.397 8.30727 193.09 8.58531C192.781 8.86361 192.421 9.07826 192.029 9.21714C191.64 9.35603 191.223 9.41647 190.81 9.39498C189.969 9.4393 189.141 9.14971 188.513 8.5888C187.881 8.02816 187.5 7.2416 187.446 6.40024C187.487 5.54706 187.865 4.74518 188.494 4.16815C189.125 3.5914 189.955 3.28623 190.81 3.319ZM193.851 12.25V32.2294C193.851 33.7682 193.238 35.2435 192.147 36.3312C191.059 37.4186 189.582 38.0295 188.045 38.0295H187.769V12.25H193.851Z" fill="white"/>
<path d="M204.615 3.31907V12.2501H208.572V17.1766H204.615V30.8517C204.615 32.5108 205.168 33.0155 206.96 33.0155C207.511 32.9964 208.056 32.8874 208.572 32.6926V37.8029C207.588 38.1883 206.543 38.3914 205.488 38.4022C200.977 38.4022 198.493 36.19 198.493 32.1852V17.1766H195.822V12.2514H198.493V9.1205C198.49 7.58982 199.094 6.12066 200.171 5.03376C201.251 3.94687 202.715 3.33089 204.244 3.32041L204.615 3.31907Z" fill="white"/>
<path fill-rule="evenodd" clip-rule="evenodd" d="M14.6716 18.4346C16.3863 16.1394 20.5032 10.7699 20.5032 10.7699C20.5032 10.7699 20.5502 10.7084 20.8486 10.2764C20.9109 10.212 20.9596 10.1354 20.9918 10.0518C21.0243 9.9683 21.0396 9.87912 21.0369 9.78966C21.0345 9.69994 21.0144 9.61182 20.9773 9.53015C20.9402 9.44849 20.8873 9.37515 20.8217 9.31417C20.6904 9.1992 17.589 7.32037 17.589 7.32037C17.4746 7.24354 17.3805 7.13985 17.3155 7.01816C17.2508 6.89647 17.217 6.76054 17.2172 6.62273C17.2172 6.16229 17.4936 5.81521 18.1158 5.64114C20.1096 5.095 27.1212 4.80676 29.5035 4.80676C30.333 4.80676 31.7606 4.80327 33.0417 4.8398L32.985 4.78527C29.1757 1.5356 24.2863 -0.167276 19.2825 0.0129776C14.2786 0.1935 9.52433 2.24372 5.95902 5.75907C2.3937 9.27469 0.276324 13.9994 0.0251507 19.0001C-0.225754 24.0007 1.40781 28.9137 4.60322 32.7686C7.11495 29.1536 13.3134 20.2535 14.6716 18.4346Z" fill="white"/>
<path fill-rule="evenodd" clip-rule="evenodd" d="M37.7314 10.7374C38.4226 10.0752 39.2134 9.02508 38.6923 7.70796C38.3678 7.16935 37.9855 6.66754 37.5522 6.2114L37.5406 6.20791C38.0935 7.72408 37.1111 8.67048 36.4075 9.30849C36.0285 9.65422 30.9502 14.4429 24.9943 19.6485C19.7404 24.2389 13.871 28.9124 10.469 31.4585C5.68518 35.0383 4.75464 35.5594 4.75464 35.5594C4.60125 35.6363 4.43308 35.6795 4.26169 35.686C4.12495 35.6857 3.9901 35.6532 3.86814 35.5909C3.74645 35.5285 3.6414 35.438 3.56135 35.3271L3.55518 35.3354C3.54175 35.3588 3.53396 35.3846 3.53181 35.4111C3.52967 35.4377 3.53368 35.4646 3.54335 35.4896C4.05483 36.3191 4.90668 37.283 5.40231 37.283C5.5737 37.2765 5.7416 37.2344 5.89526 37.1583C5.89526 37.1583 6.27135 36.951 7.80203 35.8552C11.4149 38.6326 15.8678 40.0932 20.4238 39.9954C24.9799 39.8979 29.3658 38.2477 32.8565 35.3179C36.3468 32.3882 38.7326 28.3547 39.6188 23.8846C40.505 19.4145 39.8402 14.7773 37.7314 10.7374Z" fill="white"/>
</svg>
