<svg width="70" height="40" viewBox="0 0 70 40" fill="none" xmlns="http://www.w3.org/2000/svg">
<path d="M43.8678 31.7803L47.9253 28.891H45.917L40.9439 32.4367V28.891H39.5348V35.6435H40.9439V33.8554L42.7643 32.5592L46.1538 35.6435H48.123L43.8678 31.7803ZM34.5514 31.5726L32.5136 31.4806C31.1903 31.4229 30.9311 31.1945 30.9311 30.8194C30.9311 30.1117 32.1865 29.9632 33.2399 29.9632C34.9476 29.9632 35.7954 30.2938 36.4564 30.6512L36.609 30.733L37.2059 29.6299L37.0553 29.5489C36.3509 29.1677 35.3472 28.7783 33.2399 28.7783C30.8833 28.7783 29.532 29.5523 29.532 30.9019C29.532 32.3911 31.0279 32.6644 32.3311 32.7364L34.3704 32.8284C35.8481 32.8981 36.1085 33.1228 36.1085 33.5715C36.1085 34.2233 35.2076 34.5818 33.5716 34.5818C31.7823 34.5818 30.7069 34.1223 30.1198 33.737L29.9794 33.6454L29.2443 34.6972L29.3935 34.7933C30.4196 35.458 31.747 35.7671 33.5716 35.7671C36.0921 35.7671 37.538 34.9362 37.538 33.4897C37.538 31.9311 36.1031 31.6469 34.5514 31.5726ZM24.4059 32.1374H21.3112V30.1068H24.4059C26.1041 30.1068 26.4152 30.4401 26.4152 31.0965C26.4152 31.7215 26.0733 32.1374 24.4059 32.1374ZM24.5197 28.891H19.9014V35.6435H21.3112V33.3321H24.5197C27.2774 33.3321 27.8554 32.0883 27.8554 31.0456C27.8554 29.5956 26.7651 28.891 24.5197 28.891ZM35.3992 24.3455H32.0609L33.7124 21.9044L35.3992 24.3455ZM33.7135 19.6635L28.9001 26.7941H30.4124L31.2495 25.5512H36.2363L37.0947 26.7941H38.6605L33.7135 19.6635ZM56.7825 24.3455H53.4438L55.096 21.9044L56.7825 24.3455ZM55.0972 19.6635L50.2838 26.7941H51.7957L52.6328 25.5512H57.62L58.4776 26.7941H60.0438L55.0972 19.6635ZM64.327 22.8971V24.1129H67.5322V25.161C66.9261 25.5508 66.0901 25.7423 64.9752 25.7423C62.8717 25.7423 61.8494 24.9819 61.8494 23.4173C61.8494 21.8818 62.9017 21.1033 64.9752 21.1033C66.5265 21.1033 67.2225 21.4192 67.7902 21.8942L67.9261 22.0081L68.7109 21.0286L68.5788 20.9216C67.7231 20.2347 66.618 19.9289 64.9957 19.9289C62.1541 19.9289 60.388 21.2733 60.388 23.4377C60.388 25.6164 62.1108 26.9166 64.9957 26.9166C66.6548 26.9166 67.9344 26.5434 68.7993 25.8071L68.8604 25.7559V22.8971H64.327ZM49.4743 20.0413L47.3048 24.5596L44.4682 19.6941L41.7647 24.5596L39.5052 20.0413H37.9827L41.6076 27.2228L44.4682 22.1804L47.4304 27.2228L50.9547 20.0413H49.4743ZM21.3115 21.2571H24.4062C25.8627 21.2571 26.2395 21.4075 26.2395 21.9896C26.2395 22.5989 25.8286 22.7738 24.4062 22.7738H21.3115V21.2571ZM24.3653 25.5775H21.3115V23.9485H24.3653C26.331 23.9485 26.6642 24.1487 26.6642 24.753C26.6642 25.4237 26.2342 25.5775 24.3653 25.5775ZM26.9298 23.2375C27.411 22.9694 27.6486 22.5382 27.6486 21.9282C27.6486 20.2701 26.1303 20.0413 24.489 20.0413H19.9021V26.7941H24.489C26.3078 26.7941 28.0838 26.6399 28.0838 24.8043C28.0838 24.0296 27.6835 23.4991 26.9298 23.2375Z" fill="white"/>
<path fill-rule="evenodd" clip-rule="evenodd" d="M7.98937 1.13733V38.8627L17.609 20.0439L7.98937 1.13733ZM6.96134 38.8627V15.9919L1.13965 27.4056L6.96134 38.8627Z" fill="white"/>
</svg>
