<svg width="217" height="40" viewBox="0 0 217 40" fill="none" xmlns="http://www.w3.org/2000/svg">
<path d="M66.5807 37.7474C69.13 38.8594 71.8487 39.5301 74.6207 39.7341H75.0767C75.4741 39.7674 75.7927 39.7674 76.1194 39.7674C76.6394 39.7674 77.1621 39.7341 77.6821 39.7021C78.0394 39.6687 78.3647 39.6367 78.7247 39.5701H78.7581C85.3995 38.5607 89.8595 33.7754 89.8595 27.622C89.8595 20.394 84.8461 17.9206 80.1581 16.1619C79.6701 15.9659 79.2141 15.8046 78.7247 15.6419C75.2741 14.3726 72.2781 13.2646 72.2781 10.5299C72.2781 8.54323 74.3607 7.17656 77.4207 7.17656C79.9128 7.24589 82.3714 7.76456 84.6794 8.7059C86.0795 9.1939 86.7621 9.4219 87.0888 9.2259C87.3541 9.0939 87.4861 8.7059 87.6421 7.95656C87.8701 6.97922 88.4235 4.70188 88.6515 3.7192C88.8475 2.84053 88.9168 2.48186 88.7168 2.2552C88.0555 1.85653 87.3275 1.58053 86.5675 1.44053C83.8688 0.656522 81.0768 0.24052 78.2661 0.203186C70.1887 0.203186 64.5273 4.69654 64.5273 11.1406C64.5273 17.6846 68.7647 20.1913 73.3167 21.8833C73.9994 22.1486 74.6514 22.3713 75.3034 22.5993C78.8528 23.8366 81.9128 24.9113 81.9128 28.3287C81.9688 29.398 81.5661 30.4393 80.8061 31.1927C79.5474 32.2527 77.9194 32.7674 76.2807 32.626C73.8034 32.5874 71.3807 31.902 69.2487 30.6393C68.0114 29.9567 67.3607 29.63 66.998 29.7607C66.6354 29.8913 66.478 30.4433 66.1194 31.482L65.762 32.5247C65.4367 33.4034 65.0793 34.478 64.818 35.194C64.33 36.6914 64.394 36.7567 66.5767 37.734" fill="white"/>
<path d="M148.652 30.2927C148.574 32.6954 146.562 34.5794 144.159 34.5007C144.104 34.4994 144.051 34.4967 143.996 34.4927C142.628 34.4927 140.546 34.0954 140.546 31.27C140.546 27.5914 145.82 27.6567 148.032 27.6567C148.339 27.6394 148.602 27.8754 148.618 28.182C148.618 28.1914 148.618 28.2007 148.618 28.21V30.2927H148.652ZM155.425 39.2447C155.733 39.2607 155.994 39.0247 156.01 38.7167C156.01 38.7087 156.01 38.6994 156.01 38.6914V20.982C156.01 12.7726 148.652 11.8339 145.136 11.8339C142.392 11.8006 139.672 12.3553 137.16 13.4619C136.088 13.8833 135.079 14.4513 134.163 15.1486C133.915 15.3953 133.827 15.7606 133.935 16.0926L135.759 20.7487C135.759 20.7487 135.987 21.302 136.442 20.9447C136.896 20.5873 137.124 20.4246 137.906 19.838C139.526 18.6966 141.458 18.082 143.439 18.0793C148.714 18.0793 148.582 21.4007 148.582 22.5073C148.599 22.814 148.363 23.0767 148.056 23.0927C148.047 23.0927 148.038 23.0927 148.028 23.0927H147.995C141.68 23.0927 133.247 24.5567 133.247 32.1434C133.247 37.4501 136.763 39.8914 141.744 39.8914C144.723 40.0048 147.444 38.2127 148.516 35.4314C148.516 35.4314 148.648 34.9754 148.648 35.5634V38.6234C148.631 38.9301 148.867 39.1927 149.174 39.2087C149.183 39.2087 149.192 39.2087 149.202 39.2087H149.235L155.421 39.2421L155.425 39.2447Z" fill="white"/>
<path d="M197.712 23.846C197.572 20.6366 200.061 17.9206 203.27 17.7819C203.492 17.7726 203.714 17.7753 203.936 17.7913C207.029 17.7913 208.134 19.4193 208.134 21.4046C208.134 24.01 206.413 25.702 198.27 25.994C197.974 26.0006 197.729 25.7686 197.717 25.474L197.712 23.846ZM209.561 29.8047C209.433 29.562 209.518 29.2606 209.756 29.122C209.789 29.122 209.789 29.0886 209.821 29.0886C213.398 27.7753 215.802 24.4006 215.877 20.5913C215.877 15.2206 212.492 11.7366 206.112 11.7366C202.946 11.6646 199.897 12.9299 197.712 15.2206V1.3165C197.716 1.0325 197.489 0.799166 197.205 0.7965C197.201 0.7965 197.196 0.7965 197.192 0.7965H190.485C190.201 0.7925 189.968 1.0205 189.965 1.30317C189.965 1.30717 189.965 1.3125 189.965 1.3165V38.6594C189.96 38.9554 190.19 39.2007 190.485 39.2127H197.158C197.461 39.2154 197.709 38.9727 197.712 38.67V38.6594V31.726C197.708 31.442 197.934 31.2087 198.218 31.206C198.222 31.206 198.228 31.206 198.232 31.206C199.469 31.1407 200.609 31.0433 201.716 30.978C201.909 30.9473 202.102 31.038 202.204 31.206C202.822 32.1167 204.906 35.178 206.012 36.7394C207.352 38.794 209.649 40.022 212.102 39.994C213.314 40.026 214.525 39.9287 215.716 39.702C215.97 39.6634 216.153 39.438 216.14 39.182L216.205 34.3313C216.205 34.0247 215.954 33.7753 215.648 33.7767C215.638 33.7767 215.629 33.7767 215.62 33.7767H215.586C214.294 34.1233 212.916 33.8593 211.842 33.0607C210.909 32.1087 210.14 31.0087 209.564 29.806" fill="white"/>
<path d="M170.332 13.7233C172.145 12.3832 174.363 11.7046 176.615 11.8019C182.308 11.8019 185.795 15.3513 185.795 20.3313V38.6274C185.811 38.9354 185.575 39.1967 185.267 39.2127C185.259 39.2127 185.249 39.2127 185.241 39.2127H178.536C178.229 39.2301 177.967 38.9941 177.951 38.6874C177.951 38.6781 177.951 38.6687 177.951 38.6594V24.3673C177.951 21.4366 177.56 18.3766 173.263 18.3766C170.575 18.3139 168.345 20.442 168.283 23.1286C168.283 23.1606 168.283 23.194 168.283 23.2273V38.658C168.3 38.9647 168.064 39.2274 167.757 39.2434C167.748 39.2434 167.739 39.2434 167.729 39.2434H160.957C160.651 39.2607 160.388 39.0247 160.372 38.718C160.372 38.7087 160.372 38.6994 160.372 38.69V13.1352C160.355 12.8286 160.591 12.5659 160.897 12.5499C160.907 12.5499 160.916 12.5499 160.925 12.5499H167.664C167.971 12.5326 168.233 12.7686 168.249 13.0752C168.249 13.0846 168.249 13.0939 168.249 13.1032V16.7819C168.703 15.6179 169.416 14.5713 170.332 13.7219" fill="white"/>
<path d="M61.7296 0.765869H54.3002C53.9496 0.768536 53.6176 0.923203 53.3896 1.18987L39.5588 18.4113C39.4495 18.5353 39.2615 18.55 39.1348 18.4446C39.0708 18.3873 39.0348 18.3033 39.0375 18.2166V1.58054C39.0308 1.15254 38.6842 0.805869 38.2562 0.799203H31.9095C31.4815 0.805869 31.1348 1.15254 31.1281 1.58054V38.4647C31.1188 38.8861 31.4521 39.2367 31.8748 39.2461H38.2895C38.7175 39.2394 39.0642 38.8927 39.0708 38.4647V21.7646C39.0708 21.6033 39.2002 21.4726 39.3602 21.4726H39.3628C39.4495 21.47 39.5322 21.506 39.5908 21.57L53.3949 38.7914C53.6229 39.0581 53.9549 39.2127 54.3056 39.2154H61.7283C62.1643 39.2127 62.5216 38.8701 62.543 38.4341C62.543 38.2421 62.4723 38.0581 62.3469 37.9141L48.3495 20.498C48.0895 20.1993 48.0895 19.7553 48.3495 19.4553L62.3469 2.03788C62.611 1.70054 62.5683 1.21654 62.2496 0.931203C62.095 0.828536 61.915 0.772536 61.7296 0.768536" fill="white"/>
<path d="M124.658 19.1579C124.658 19.1579 123.194 19.0259 124.625 18.6699C127.769 17.0713 129.671 13.7673 129.477 10.2459C129.477 4.4512 125.115 0.0498479 116.259 0.0498479C112.693 -0.0914862 109.121 0.0725147 105.581 0.53785C104.723 0.629851 104.085 1.36852 104.117 2.22986V37.5527C104.029 38.4914 104.659 39.3447 105.581 39.5394C107.17 39.8647 108.575 39.9954 115.542 39.9954C125.406 39.9954 130.681 35.89 130.681 28.078C130.714 19.7766 124.658 19.1579 124.658 19.1579ZM123.226 28.2087C123.23 31.4047 120.643 33.9994 117.447 34.0034C117.442 34.0034 117.437 34.0034 117.431 34.0034H113.947C112.842 34.0127 111.939 33.1247 111.929 32.0193C111.929 32.0193 111.929 32.018 111.929 32.0167V8.25922C111.926 7.27389 112.722 6.47122 113.709 6.46855C113.713 6.46855 113.715 6.46855 113.719 6.46855H117.105C119.561 6.46055 121.557 8.44589 121.565 10.9019C121.565 10.9112 121.565 10.9192 121.565 10.9286V11.7432C121.57 13.8166 120.137 15.6166 118.114 16.0739C116.625 16.2659 115.509 17.5339 115.509 19.0366V19.0699C115.509 20.542 116.646 21.7633 118.114 21.8686C121.054 22.1926 123.282 24.6726 123.29 27.63L123.225 28.2167L123.226 28.2087Z" fill="white"/>
<path d="M20.515 19.1579C20.515 19.1579 19.051 19.0259 20.4817 18.6699C23.6257 17.0713 25.527 13.7672 25.3324 10.2459C25.3324 4.48452 20.971 0.049829 12.147 0.049829C8.58029 -0.0928384 5.00694 0.0711624 1.46825 0.537832C0.61758 0.616499 -0.0224234 1.34584 0.00824345 2.19784V37.5234C-0.079757 38.4594 0.54558 39.3127 1.46425 39.51C3.05359 39.8354 4.45893 39.966 11.4256 39.966C21.2897 39.966 26.5644 35.8607 26.5644 28.0486C26.5977 19.7793 20.5084 19.1606 20.5084 19.1606M19.111 28.2113C19.115 31.4073 16.5283 34.002 13.3323 34.006C13.327 34.006 13.3216 34.006 13.3163 34.006H9.83763C8.73229 34.0153 7.82962 33.1273 7.81895 32.022C7.81895 32.022 7.81895 32.0207 7.81895 32.0193V8.25921C7.81228 7.27387 8.60562 6.46853 9.59229 6.46186C9.59763 6.46186 9.60429 6.46186 9.60963 6.46186H12.995C15.451 6.4552 17.447 8.43921 17.455 10.8952C17.455 10.9046 17.455 10.9126 17.455 10.9219V11.7366C17.4603 13.8099 16.027 15.6099 14.0043 16.0672C12.5136 16.2579 11.3963 17.5273 11.3976 19.0299V19.0633C11.3976 20.5353 12.535 21.7566 14.003 21.8619C16.943 22.1859 19.171 24.666 19.179 27.6233L19.111 28.2113Z" fill="white"/>
</svg>
