<svg width="170" height="40" viewBox="0 0 170 40" fill="none" xmlns="http://www.w3.org/2000/svg">
<mask id="mask0_354_1454" style="mask-type:luminance" maskUnits="userSpaceOnUse" x="0" y="0" width="27" height="40">
<path d="M0 0.00369263H26.6563V40H0V0.00369263Z" fill="white"/>
</mask>
<g mask="url(#mask0_354_1454)">
<path fill-rule="evenodd" clip-rule="evenodd" d="M23.9941 14.4046C24.9395 13.0891 25.4086 11.3632 25.4086 9.21219C25.4086 6.23491 24.2946 3.95569 22.0667 2.37452C19.8369 0.791527 16.5427 0.00369263 12.1766 0.00369263C9.16086 0.00369263 6.58849 0.0843082 4.45218 0.249204C2.31587 0.415931 0.831806 0.553344 0 0.666939V39.3075C0.75852 39.4174 2.13631 39.5603 4.13338 39.7362C6.13045 39.9139 8.58007 40 11.4841 40C16.3466 40 20.0916 38.8403 22.7153 36.5189C25.3444 34.2012 26.6545 31.0425 26.6545 27.0502C26.6545 24.5951 26.103 22.697 24.9927 21.3668C23.8824 20.0348 22.7574 19.1591 21.6215 18.7322C20.4855 18.3108 19.6391 18.0653 19.0839 18.0121C19.5456 17.9022 20.2437 17.5999 21.1781 17.1107C22.1125 16.6178 23.0506 15.7201 23.9941 14.4046ZM17.4478 11.07C17.4478 12.7153 16.9476 14.0015 15.9491 14.9249C14.9505 15.8502 13.406 16.3119 11.3173 16.3119C10.1415 16.3172 8.96594 16.2714 7.79406 16.1745V6.63066C7.97728 6.59402 8.38036 6.54821 9.00147 6.49142C9.62074 6.43645 10.5038 6.40897 11.6526 6.40897C13.4994 6.40897 14.9285 6.81938 15.9381 7.64385C16.9439 8.46833 17.4478 9.60794 17.4478 11.07ZM18.6937 27.6695C18.6937 31.9146 16.5775 34.0381 12.3452 34.0381C10.8082 34.0586 9.27602 33.8618 7.79406 33.4537V21.9403C8.14767 21.922 8.70465 21.9037 9.47233 21.8707C10.24 21.845 11.059 21.834 11.9274 21.834C16.4401 21.834 18.6955 23.7761 18.6955 27.6695" fill="white"/>
</g>
<path fill-rule="evenodd" clip-rule="evenodd" d="M62.0993 0.666931H29.0322V7.8234H41.6009V39.3093H49.6167V7.8234H62.0993V0.666931ZM90.6793 0.666931L81.1924 25.9069L72.0132 0.666931H63.1345L77.4474 39.3075H83.7702L98.6969 0.666931H90.6793Z" fill="white"/>
<path fill-rule="evenodd" clip-rule="evenodd" d="M113.132 31.7846C113.418 31.3852 113.56 30.8593 113.56 30.2126C113.56 29.3093 113.223 28.6186 112.553 28.1422C111.875 27.664 110.878 27.4222 109.554 27.4222C108.641 27.4222 107.862 27.4478 107.216 27.4955C106.569 27.5468 106.12 27.5907 105.869 27.6237V39.3185C107.022 39.4688 108.184 39.5398 109.346 39.531C110.816 39.531 111.95 39.1792 112.745 38.4757C113.542 37.7776 113.938 36.8194 113.938 35.612C113.938 34.8663 113.773 34.2928 113.434 33.8897C113.099 33.4867 112.758 33.2228 112.414 33.0946C112.167 32.9912 111.91 32.9174 111.646 32.8747C111.787 32.8381 111.996 32.7483 112.28 32.5999C112.562 32.4533 112.848 32.1803 113.132 31.7846ZM111.149 30.7732C111.149 31.2734 110.999 31.6618 110.697 31.9403C110.394 32.217 109.927 32.3599 109.293 32.3599C108.937 32.3621 108.582 32.3486 108.227 32.3196V29.4284C108.284 29.4174 108.405 29.4027 108.593 29.3844C108.86 29.3674 109.127 29.36 109.394 29.3624C109.957 29.3624 110.387 29.4852 110.691 29.7362C110.997 29.9854 111.149 30.328 111.149 30.7732ZM111.529 35.797C111.529 37.085 110.887 37.7245 109.605 37.7245C109.311 37.7286 109.018 37.7059 108.729 37.6567C108.56 37.6302 108.392 37.5941 108.227 37.5486V34.0638L108.736 34.0436C108.969 34.0345 109.216 34.0326 109.478 34.0326C110.845 34.0326 111.529 34.6226 111.529 35.797ZM125.876 39.3221L121.27 27.6237H119.222L114.29 39.3221H116.562L117.694 36.4163H122.175L123.244 39.3221H125.876ZM121.497 34.5438H118.432L120.012 30.5112L121.496 34.542L121.497 34.5438ZM137.095 27.6237H134.911V35.088L128.839 27.4551L126.959 27.7996V39.3221H129.143V31.7223L135.34 39.5658L137.095 39.1536V27.6237ZM144.431 33.2668L149.286 27.6237H146.312L141.802 33.1166V27.6237H139.376V39.3221H141.802V33.7285L146.261 39.3221H149.511L144.431 33.2668ZM113.385 23.679H108.297V14.1481H105.867V25.8465H113.385V23.679ZM125.814 25.8447L121.204 14.1462H119.16L114.226 25.8447H116.499L117.632 22.9388H122.111L123.179 25.8447H125.814ZM121.431 21.0664H118.37L119.947 17.0356L121.431 21.0664ZM137.069 14.1481H134.885V21.6142L128.811 13.9777L126.934 14.324V25.8465H129.114V18.2466L135.312 26.092L137.067 25.6779L137.069 14.1481ZM149.689 19.4632C149.689 18.6296 149.537 17.8692 149.235 17.184C148.941 16.5101 148.5 15.9104 147.945 15.4288C147.369 14.9338 146.701 14.5583 145.979 14.324C145.178 14.0645 144.34 13.9371 143.498 13.9465C142.78 13.9465 142.014 13.9704 141.19 14.0198C140.365 14.0711 139.753 14.1114 139.348 14.1481V25.7952L140.1 25.8831C140.462 25.9253 140.895 25.9638 141.4 26.0004C141.902 26.037 142.454 26.0554 143.053 26.0554C144.238 26.0554 145.261 25.8831 146.115 25.5387C146.911 25.2351 147.622 24.7421 148.185 24.1023C148.711 23.4903 149.092 22.7904 149.33 22.0044C149.568 21.2166 149.689 20.3701 149.689 19.4632ZM147.109 19.8406C147.109 20.6523 146.977 21.3742 146.719 22.0026C146.48 22.6062 146.06 23.1213 145.517 23.4775C144.977 23.8293 144.304 24.0052 143.498 24.0052C143.112 24.0125 142.726 23.9868 142.344 23.9282C142.152 23.8955 141.962 23.8515 141.776 23.7963V16.2111C141.89 16.1964 142.073 16.1781 142.326 16.1561C142.582 16.1415 142.93 16.1287 143.381 16.1287C144.064 16.1287 144.687 16.2532 145.253 16.5024C145.821 16.7534 146.268 17.1528 146.604 17.7043C146.941 18.254 147.109 18.9685 147.109 19.8406ZM159.09 23.7285H154.002V20.8392H158.267V18.7084H154.002V16.2642H158.661V14.1481H151.573V25.8447H159.09V23.7285Z" fill="white"/>
<mask id="mask1_354_1454" style="mask-type:luminance" maskUnits="userSpaceOnUse" x="160" y="14" width="10" height="12">
<path d="M160.707 14.0143H169.842V25.8977H160.707V14.0143Z" fill="white"/>
</mask>
<g mask="url(#mask1_354_1454)">
<path fill-rule="evenodd" clip-rule="evenodd" d="M167.94 19.2488C168.179 18.7999 168.298 18.307 168.298 17.7757C168.298 16.9512 168.147 16.2623 167.849 15.7053C167.544 15.1451 167.063 14.7008 166.48 14.4411C165.866 14.1572 165.101 14.0143 164.183 14.0143C163.023 14.031 161.864 14.0756 160.707 14.148V25.8446H163.133V21.2184L163.822 21.2348L167.231 25.8977L169.842 25.3847L166.315 20.8226C166.535 20.7676 166.801 20.6027 167.114 20.3334C167.427 20.0586 167.702 19.6995 167.94 19.2488ZM165.888 17.7427C165.888 18.2741 165.747 18.7101 165.469 19.0527C165.189 19.3935 164.782 19.5657 164.25 19.5657C163.874 19.5691 163.498 19.5235 163.133 19.4302V16.1634C163.248 16.1354 163.364 16.114 163.481 16.0993C163.659 16.0754 163.899 16.0626 164.199 16.0626C164.743 16.0626 165.159 16.2165 165.451 16.5207C165.744 16.8266 165.887 17.2315 165.887 17.7427" fill="white"/>
</g>
<path fill-rule="evenodd" clip-rule="evenodd" d="M113.073 0.670624L110.203 8.31262L107.422 0.670624H104.734L109.067 12.3709H110.982L115.5 0.670624H113.073Z" fill="white"/>
<mask id="mask2_354_1454" style="mask-type:luminance" maskUnits="userSpaceOnUse" x="0" y="0" width="170" height="40">
<path d="M0 40H169.842V0H0V40Z" fill="white"/>
</mask>
<g mask="url(#mask2_354_1454)">
<path fill-rule="evenodd" clip-rule="evenodd" d="M116.649 12.3691H119.074V0.670645H116.649V12.3691ZM129.082 10.2529H123.994V7.36357H128.259V5.23275H123.994V2.78864H128.653V0.672477H121.564V12.3672H129.082V10.2529ZM137.933 5.77325C138.171 5.32253 138.288 4.82968 138.288 4.29835C138.288 3.4757 138.142 2.78497 137.839 2.22799C137.536 1.66702 137.054 1.22293 136.471 0.965624C135.859 0.679805 135.093 0.536896 134.175 0.536896C133.594 0.536896 132.953 0.551553 132.261 0.588197C131.566 0.619344 131.046 0.646826 130.699 0.672477V12.3691H133.125V7.741L133.814 7.75932L137.222 12.4204L139.835 11.9074L136.308 7.34525C136.528 7.29028 136.791 7.12539 137.105 6.85606C137.422 6.58307 137.695 6.22213 137.933 5.77325ZM135.881 4.26537C135.881 4.79853 135.742 5.23642 135.459 5.57537C135.179 5.91616 134.772 6.08838 134.241 6.08838C133.865 6.09004 133.49 6.04449 133.125 5.9528V2.68603C133.18 2.66955 133.299 2.64939 133.473 2.62191C133.649 2.59809 133.889 2.5871 134.192 2.5871C134.734 2.5871 135.152 2.73917 135.445 3.04514C135.738 3.34928 135.881 3.75419 135.881 4.26537ZM117.671 14.0528C117.586 13.9092 117.463 13.7919 117.315 13.7139C117.163 13.633 116.993 13.592 116.821 13.5948C116.694 13.5887 116.568 13.6088 116.449 13.6539C116.33 13.699 116.223 13.7681 116.132 13.8568C116.044 13.9507 115.976 14.0615 115.932 14.1824C115.888 14.3033 115.869 14.4318 115.875 14.5603C115.875 14.8205 115.965 15.044 116.147 15.2346C116.231 15.3264 116.333 15.3992 116.448 15.4482C116.562 15.4972 116.685 15.5212 116.81 15.5186C116.993 15.5186 117.162 15.4746 117.31 15.3903C117.459 15.3088 117.583 15.1877 117.667 15.0404C117.754 14.8901 117.8 14.7197 117.801 14.5462C117.801 14.3726 117.757 14.2019 117.671 14.051M124.311 14.051C124.226 13.9085 124.103 13.7919 123.957 13.7139C123.804 13.6331 123.633 13.5922 123.461 13.5948C123.334 13.5887 123.207 13.6088 123.089 13.6539C122.97 13.699 122.862 13.7681 122.772 13.8568C122.684 13.951 122.616 14.0618 122.572 14.1826C122.528 14.3035 122.509 14.4319 122.515 14.5603C122.515 14.8205 122.607 15.044 122.786 15.2346C122.87 15.3262 122.973 15.3989 123.087 15.4479C123.202 15.4968 123.325 15.5209 123.45 15.5186C123.633 15.5186 123.801 15.4746 123.952 15.3903C124.063 15.3262 124.161 15.2406 124.239 15.1387C124.318 15.0367 124.375 14.9203 124.409 14.796C124.442 14.6718 124.45 14.5422 124.434 14.4147C124.417 14.2872 124.375 14.1642 124.311 14.0528" fill="white"/>
</g>
</svg>
