<svg width="40" height="40" viewBox="0 0 40 40" fill="none" xmlns="http://www.w3.org/2000/svg">
<g clip-path="url(#clip0_354_1473)">
<path d="M39.9999 0.000274658H0V40H39.9999V0.000274658Z" fill="#0079C2"/>
<path d="M9.35167 22.1248H6.23439V19.0045H4.15625V27.3174H6.23439V24.203H9.35167V27.3174H11.43V19.0045H9.35167V22.1248Z" fill="white"/>
<mask id="mask0_354_1473" style="mask-type:luminance" maskUnits="userSpaceOnUse" x="0" y="0" width="40" height="40">
<path d="M40 0H0V40H40V0Z" fill="white"/>
</mask>
<g mask="url(#mask0_354_1473)">
<path d="M31.8968 21.0307C33.0714 21.0307 34.027 21.9863 34.027 23.161C34.027 24.3356 33.0716 25.2912 31.8968 25.2912C30.7221 25.2912 29.7666 24.3356 29.7666 23.161C29.7666 21.9863 30.7222 21.0307 31.8968 21.0307ZM31.8968 18.9526C29.5726 18.9526 27.6885 20.8367 27.6885 23.161C27.6885 25.4852 29.5727 27.3692 31.8968 27.3692C34.2209 27.3692 36.1052 25.4851 36.1052 23.161C36.1052 20.8366 34.2211 18.9526 31.8968 18.9526Z" fill="white"/>
</g>
<mask id="mask1_354_1473" style="mask-type:luminance" maskUnits="userSpaceOnUse" x="0" y="0" width="40" height="40">
<path d="M40 0H0V40H40V0Z" fill="white"/>
</mask>
<g mask="url(#mask1_354_1473)">
<path d="M7.38281 32.1276C7.38281 31.1484 7.8846 30.361 9.03593 30.361C10.1431 30.361 10.6646 31.099 10.6646 32.093C10.6646 33.0672 10.1578 33.8397 9.02125 33.8397C7.9045 33.8398 7.38281 33.146 7.38281 32.1276ZM9.93664 32.0981C9.93664 31.4683 9.6856 30.9515 9.02633 30.9515C8.36692 30.9515 8.11602 31.4978 8.11602 32.0981C8.11602 32.7377 8.372 33.2494 9.02633 33.2494C9.6856 33.2494 9.93664 32.7178 9.93664 32.0981Z" fill="white"/>
</g>
<mask id="mask2_354_1473" style="mask-type:luminance" maskUnits="userSpaceOnUse" x="0" y="0" width="40" height="40">
<path d="M40 0H0V40H40V0Z" fill="white"/>
</mask>
<g mask="url(#mask2_354_1473)">
<path d="M13.1763 33.7659L12.4579 32.5063H12.0053V33.7659H11.3018V30.4351H12.4579C13.3189 30.4351 13.7225 30.7548 13.7225 31.3994C13.7225 31.7683 13.4814 32.0981 13.1124 32.2752L13.9734 33.7659H13.1763ZM13.0188 31.4584C13.0188 31.1384 12.7925 31.0352 12.4529 31.0352H12.0053V31.9208H12.4529C12.8073 31.9208 13.0188 31.7635 13.0188 31.4584Z" fill="white"/>
</g>
<mask id="mask3_354_1473" style="mask-type:luminance" maskUnits="userSpaceOnUse" x="0" y="0" width="40" height="40">
<path d="M40 0H0V40H40V0Z" fill="white"/>
</mask>
<g mask="url(#mask3_354_1473)">
<path d="M19.9146 33.7659L19.1962 32.5063H18.7436V33.7659H18.04V30.4351H19.1962C20.0574 30.4351 20.4608 30.7548 20.4608 31.3994C20.4608 31.7683 20.2196 32.0981 19.8506 32.2752L20.7117 33.7659H19.9146ZM19.7569 31.4584C19.7569 31.1384 19.5306 31.0352 19.1911 31.0352H18.7435V31.9208H19.1911C19.5454 31.9208 19.7569 31.7635 19.7569 31.4584Z" fill="white"/>
</g>
<mask id="mask4_354_1473" style="mask-type:luminance" maskUnits="userSpaceOnUse" x="0" y="0" width="40" height="40">
<path d="M40 0H0V40H40V0Z" fill="white"/>
</mask>
<g mask="url(#mask4_354_1473)">
<path d="M21.2188 30.4349H21.9273V33.1558H23.3735V33.7659H21.2188V30.4349Z" fill="white"/>
</g>
<mask id="mask5_354_1473" style="mask-type:luminance" maskUnits="userSpaceOnUse" x="0" y="0" width="40" height="40">
<path d="M40 0H0V40H40V0Z" fill="white"/>
</mask>
<g mask="url(#mask5_354_1473)">
<path d="M25.1692 33.7659H23.9785V30.4351H25.0462C25.9021 30.4351 26.2764 30.7153 26.2764 31.2665C26.2764 31.5617 26.1041 31.8816 25.7301 31.9653V31.9752C26.1385 32.0095 26.483 32.3193 26.483 32.7623C26.483 33.5051 25.9515 33.7659 25.1692 33.7659ZM25.0758 31.0303H24.6773V31.7388H25.1152C25.4105 31.7388 25.5677 31.5961 25.5677 31.3749C25.5676 31.1337 25.3956 31.0303 25.0758 31.0303ZM25.233 32.3193H24.6773V33.1656H25.233C25.5676 33.1656 25.7695 33.0081 25.7695 32.7425C25.7695 32.4473 25.5432 32.3193 25.233 32.3193Z" fill="white"/>
</g>
<mask id="mask6_354_1473" style="mask-type:luminance" maskUnits="userSpaceOnUse" x="0" y="0" width="40" height="40">
<path d="M40 0H0V40H40V0Z" fill="white"/>
</mask>
<g mask="url(#mask6_354_1473)">
<path d="M27.0889 30.4349H29.2288V31.0451H27.7972V31.7487H29.0468V32.3586H27.7972V33.1558H29.2435V33.7659H27.0889V30.4349Z" fill="white"/>
</g>
<mask id="mask7_354_1473" style="mask-type:luminance" maskUnits="userSpaceOnUse" x="0" y="0" width="40" height="40">
<path d="M40 0H0V40H40V0Z" fill="white"/>
</mask>
<g mask="url(#mask7_354_1473)">
<path d="M31.7458 33.7659L31.0274 32.5063H30.5747V33.7659H29.8711V30.4351H31.0274C31.8883 30.4351 32.2919 30.7548 32.2919 31.3994C32.2919 31.7683 32.0507 32.0981 31.6817 32.2752L32.5427 33.7659H31.7458ZM31.588 31.4584C31.588 31.1384 31.3616 31.0352 31.0223 31.0352H30.5745V31.9208H31.0223C31.3765 31.9208 31.588 31.7635 31.588 31.4584Z" fill="white"/>
</g>
<mask id="mask8_354_1473" style="mask-type:luminance" maskUnits="userSpaceOnUse" x="0" y="0" width="40" height="40">
<path d="M40 0H0V40H40V0Z" fill="white"/>
</mask>
<g mask="url(#mask8_354_1473)">
<path d="M34.6462 30.9467C33.923 30.9467 33.5048 31.3403 33.5048 32.1027C33.5048 32.8261 33.8593 33.2542 34.4789 33.2542C34.6807 33.2542 34.8185 33.2344 34.9365 33.215V31.9701H35.6353V33.6036C35.2907 33.7609 34.8678 33.8398 34.4003 33.8398C33.49 33.8398 32.7764 33.3331 32.7764 32.1374C32.7764 30.9665 33.4997 30.3613 34.5624 30.3613C34.9464 30.3613 35.2465 30.4351 35.4875 30.5482V31.1632C35.2565 31.0403 34.9612 30.9467 34.6462 30.9467Z" fill="white"/>
</g>
<mask id="mask9_354_1473" style="mask-type:luminance" maskUnits="userSpaceOnUse" x="0" y="0" width="40" height="40">
<path d="M40 0H0V40H40V0Z" fill="white"/>
</mask>
<g mask="url(#mask9_354_1473)">
<path d="M6.39131 30.4349L5.65203 32.9219L4.9126 30.4349H4.15625L5.25339 33.7659H5.29417H6.00974H6.05052L7.14766 30.4349H6.39131Z" fill="white"/>
</g>
<mask id="mask10_354_1473" style="mask-type:luminance" maskUnits="userSpaceOnUse" x="0" y="0" width="40" height="40">
<path d="M40 0H0V40H40V0Z" fill="white"/>
</mask>
<g mask="url(#mask10_354_1473)">
<path d="M16.7417 33.766H17.4982L16.4011 30.4349H16.3603H15.6448H15.604L14.5068 33.766H15.2632L15.4559 33.1176H16.5491L16.7417 33.766ZM15.6335 32.5207L16.0026 31.2791L16.3716 32.5207H15.6335Z" fill="white"/>
</g>
<mask id="mask11_354_1473" style="mask-type:luminance" maskUnits="userSpaceOnUse" x="0" y="0" width="40" height="40">
<path d="M40 0H0V40H40V0Z" fill="white"/>
</mask>
<g mask="url(#mask11_354_1473)">
<path d="M17.4577 19.0045L16.0027 22.6415L14.5479 19.0045H12.4697L14.9636 25.2394V27.3178H17.0419V25.2394L19.536 19.0045H17.4577Z" fill="white"/>
</g>
<mask id="mask12_354_1473" style="mask-type:luminance" maskUnits="userSpaceOnUse" x="0" y="0" width="40" height="40">
<path d="M40 0H0V40H40V0Z" fill="white"/>
</mask>
<g mask="url(#mask12_354_1473)">
<path d="M23.6909 19.0047H20.5742V27.3178H22.6521V25.2384H23.6909C25.4125 25.2384 26.8095 23.8429 26.8095 22.1217C26.8093 20.4 25.4125 19.0047 23.6909 19.0047ZM23.6909 23.1604H22.6521V21.0825H23.6909C24.266 21.0825 24.7299 21.5482 24.7299 22.1215C24.7299 22.6964 24.266 23.1604 23.6909 23.1604Z" fill="white"/>
</g>
</g>
<defs>
<clipPath id="clip0_354_1473">
<rect width="40" height="40" fill="white"/>
</clipPath>
</defs>
</svg>
