<svg width="221" height="40" viewBox="0 0 221 40" fill="none" xmlns="http://www.w3.org/2000/svg">
<path d="M35.858 20.4855C35.858 9.27036 28.098 1.84415 18.0855 1.84415C7.59725 1.84415 0 10.5131 0 21.5435C0 32.5862 7.10621 40 17.4317 40C28.0166 40 35.858 32.0552 35.858 20.4855ZM28.3421 21.0152C28.3421 28.96 23.6359 32.9435 18.0166 32.9435C12.7255 32.9435 7.67863 28.8055 7.67863 20.8428C7.67863 13.2442 12.5614 8.92829 18.0166 8.92829C23.7862 9.10208 28.3421 13.429 28.3421 21.0152Z" fill="white"/>
<path d="M65.1347 25.5131C65.1347 15.5435 59.6795 13.0717 55.6284 13.0717C50.5815 13.0717 48.5222 16.1573 48.5222 16.1573V0H41.416V36.9145C41.416 36.9145 44.9622 39.829 52.0809 39.829C59.3498 39.829 65.1347 34.6138 65.1347 25.5131ZM57.8505 26.5752C57.8505 31.429 55.4643 34.189 52.3953 34.189C50.1719 34.189 48.5208 32.9449 48.5208 32.9449V22.2607C48.5208 22.2607 50.0078 19.8759 53.0629 19.8759C55.4629 19.8731 57.8505 21.9007 57.8505 26.5752Z" fill="white"/>
<path d="M90.8942 27.7297C90.8942 20.1297 88.8335 13.069 79.8969 13.069C72.4638 13.069 68.25 18.5407 68.25 25.9711C68.25 34.4414 72.301 39.7435 80.3204 39.7435C86.5948 39.7435 90.6445 35.7559 90.6445 35.7559L87.9148 30.9035C87.9148 30.9035 85.0238 33.8359 80.9755 33.8359C75.3562 33.8359 75.0279 27.8262 75.0279 27.8262H90.8086V27.7338L90.8942 27.7297ZM83.7852 22.7849H74.9493C74.9493 22.7849 75.2748 18.4566 79.4914 18.4566C83.9493 18.458 83.7852 22.7849 83.7852 22.7849Z" fill="white"/>
<path d="M112.045 14.1296C112.045 14.1296 110.555 13.0717 108.325 13.0717C103.456 13.0717 102.322 17.3738 102.322 17.3738L102.376 13.7724H95.2725V39.2979H102.376V25.5131C102.376 20.8414 104.94 20.0455 106.918 20.0455C108.828 20.0455 110.151 21.1172 110.151 21.1172L112.045 14.1296Z" fill="white"/>
<path d="M138.822 25.5131C138.822 15.5435 133.367 13.0717 129.313 13.0717C124.284 13.0717 122.209 16.1573 122.209 16.1573V0H115.106V36.9145C115.106 36.9145 118.658 39.829 125.767 39.829C133.036 39.829 138.822 34.6138 138.822 25.5131ZM131.713 26.5752C131.713 31.429 129.316 34.189 126.258 34.189C124.036 34.189 122.377 32.9449 122.377 32.9449V22.2607C122.377 22.2607 123.861 19.8759 126.933 19.8759C129.151 19.8731 131.713 21.9007 131.713 26.5752Z" fill="white"/>
<path d="M162.38 39.2993V21.9007C162.38 14.1297 155.763 13.0676 152.707 13.0676C146.089 13.0676 142.531 16.6842 142.531 16.6842L144.605 22.1697C144.605 22.1697 147.501 19.069 151.227 19.069C155.926 19.069 155.769 22.1697 155.769 23.9228C149.658 23.9228 142.046 24.9752 142.046 32.5821C142.046 37.6124 145.44 39.9945 149.66 39.9945C153.861 39.9945 155.607 36.1945 155.773 35.3214V39.2855L162.38 39.2993ZM155.763 30.7297C155.763 33.6442 153.363 34.7007 151.544 34.7007C150.224 34.7007 148.472 34.3586 148.472 31.6166C148.472 28.1766 153.195 28.1766 155.753 28.1766L155.763 30.7297Z" fill="white"/>
<path d="M190.964 21.1862C190.964 16.3297 187.906 13.069 182.701 13.069C176.589 13.069 175.264 17.1435 175.264 17.1435V13.7724H168.144V39.298H175.264V23.9269C175.264 20.8428 177.648 19.2414 179.806 19.2414C183.681 19.2414 184.024 22.1724 184.024 24.9007V39.2938H190.966L190.964 21.1862Z" fill="white"/>
<path d="M196.646 0.00137931V39.2993H203.746V25.7573L212.099 39.298H220.691L211.429 25.1573L220.365 13.7738H212.1L203.75 24.3007V0L196.646 0.00137931Z" fill="white"/>
</svg>
