<svg width="246" height="40" viewBox="0 0 246 40" fill="none" xmlns="http://www.w3.org/2000/svg">
<path d="M245.785 0H206.284V39.5013H245.785V0Z" fill="#FFED00"/>
<path d="M189.028 7.58105H185.836V22.0449H189.028V18.3541L192.419 22.0449H196.908L192.12 17.2569L196.609 13.0673H192.319L189.028 16.2594V7.58105ZM177.556 13.0673H174.364V22.0449H177.556V17.4564C177.556 16.3591 177.955 15.3616 179.252 15.3616C180.848 15.3616 180.648 16.8579 180.648 17.6559V22.0449H183.841V16.5586C183.841 14.3641 182.843 12.8678 180.449 12.8678C179.152 12.8678 178.254 13.2668 177.556 14.2643V13.0673ZM172.17 13.0673H168.978V13.9651C168.379 13.1671 167.182 12.7681 166.185 12.7681C163.591 12.7681 161.696 14.9626 161.696 17.4564C161.696 19.9501 163.491 22.2444 166.185 22.2444C167.182 22.2444 168.379 21.8454 168.878 20.9476V21.9452H172.07L172.17 13.0673ZM167.082 15.5611C168.379 15.5611 169.177 16.5586 169.177 17.5561C169.177 18.6534 168.479 19.5511 167.082 19.5511C165.786 19.5511 164.988 18.6534 164.988 17.5561C165.087 16.4589 165.786 15.5611 167.082 15.5611ZM155.412 15.5611C156.708 15.5611 157.506 16.5586 157.506 17.5561C157.506 18.6534 156.808 19.5511 155.412 19.5511C154.115 19.5511 153.317 18.6534 153.317 17.5561C153.417 16.4589 154.215 15.5611 155.412 15.5611ZM150.324 22.0449H153.516V21.0474C154.115 21.9452 155.212 22.3442 156.21 22.3442C158.803 22.3442 160.698 20.1496 160.698 17.5561C160.698 14.9626 158.903 12.8678 156.21 12.8678C155.212 12.8678 154.115 13.2668 153.417 14.0648V7.68081H150.225L150.324 22.0449ZM148.529 13.3666C147.631 12.9676 146.633 12.7681 145.536 12.7681C143.641 12.7681 141.646 13.7656 141.646 15.9601C141.646 17.5561 142.643 18.0549 143.641 18.3541C144.638 18.5536 145.636 18.6534 145.636 19.3516C145.636 19.8504 145.037 19.9501 144.638 19.9501C143.84 19.9501 142.843 19.4514 142.145 19.0524L141.047 21.2469C142.145 21.8454 143.342 22.2444 144.638 22.2444C146.733 22.2444 148.828 21.2469 148.828 18.8529C148.828 17.1571 147.731 16.4589 146.235 16.2594C145.736 16.1596 144.838 16.0599 144.838 15.4614C144.838 14.9626 145.436 14.8629 145.835 14.8629C146.434 14.8629 147.032 15.0624 147.531 15.3616L148.529 13.3666ZM140.15 17.7556C140.15 14.7631 138.354 12.7681 135.262 12.7681C132.369 12.7681 130.274 14.5636 130.274 17.5561C130.274 20.6484 132.469 22.2444 135.461 22.2444C136.459 22.2444 137.556 22.0449 138.354 21.5462C139.152 21.0474 139.751 20.2494 140.05 19.2519H137.057C136.758 19.8504 136.259 20.0499 135.561 20.0499C134.264 20.0499 133.566 19.3516 133.566 18.0549H140.249L140.15 17.7556ZM133.466 16.2594C133.666 15.2619 134.464 14.8629 135.362 14.8629C136.259 14.8629 137.057 15.4614 137.157 16.2594H133.466ZM123.691 15.5611C124.988 15.5611 125.786 16.5586 125.786 17.5561C125.786 18.6534 125.087 19.5511 123.691 19.5511C122.394 19.5511 121.596 18.6534 121.596 17.5561C121.596 16.4589 122.394 15.5611 123.691 15.5611ZM125.586 22.0449H128.778V7.58105H125.586V13.9651C124.988 13.1671 123.791 12.7681 122.793 12.7681C120.2 12.7681 118.304 14.9626 118.304 17.4564C118.304 19.9501 120.1 22.2444 122.793 22.2444C123.791 22.2444 124.988 21.8454 125.486 20.9476L125.586 22.0449ZM110.524 13.0673H107.332V22.0449H110.524V17.4564C110.524 16.3591 110.923 15.3616 112.22 15.3616C113.816 15.3616 113.616 16.8579 113.616 17.6559V22.0449H116.808V16.5586C116.808 14.3641 115.811 12.8678 113.417 12.8678C112.12 12.8678 111.222 13.2668 110.524 14.2643V13.0673ZM105.237 13.0673H102.045V13.9651C101.446 13.1671 100.249 12.7681 99.2519 12.7681C96.6584 12.7681 94.7631 14.9626 94.7631 17.4564C94.7631 19.9501 96.5587 22.2444 99.2519 22.2444C100.249 22.2444 101.446 21.8454 101.945 20.9476V21.9452H105.137L105.237 13.0673ZM100.15 15.5611C101.446 15.5611 102.244 16.5586 102.244 17.5561C102.244 18.6534 101.546 19.5511 100.15 19.5511C98.8529 19.5511 98.0549 18.6534 98.0549 17.5561C98.0549 16.4589 98.8529 15.5611 100.15 15.5611ZM93.2669 7.58105H90.0749V22.0449H93.2669V7.58105ZM81.6958 13.0673H78.5038V22.0449H81.6958V17.4564C81.6958 16.3591 82.0948 15.3616 83.3916 15.3616C84.9876 15.3616 84.7881 16.8579 84.7881 17.6559V22.0449H87.9801V16.5586C87.9801 14.3641 86.9826 12.8678 84.5886 12.8678C83.2918 12.8678 82.3941 13.2668 81.6958 14.2643V13.0673ZM77.0075 17.7556C77.0075 14.7631 75.212 12.7681 72.1197 12.7681C69.227 12.7681 67.1322 14.5636 67.1322 17.5561C67.1322 20.6484 69.3267 22.2444 72.3192 22.2444C73.3167 22.2444 74.414 22.0449 75.212 21.5462C76.01 21.0474 76.6085 20.2494 76.9078 19.2519H73.9153C73.616 19.8504 73.1172 20.0499 72.419 20.0499C71.1222 20.0499 70.424 19.3516 70.424 18.0549H77.0075V17.7556ZM70.424 16.2594C70.6235 15.2619 71.4215 14.8629 72.3192 14.8629C73.217 14.8629 74.015 15.4614 74.1148 16.2594H70.424ZM65.8354 13.3666C64.9377 12.9676 63.9402 12.7681 62.8429 12.7681C60.9477 12.7681 58.9527 13.7656 58.9527 15.9601C58.9527 17.5561 59.9502 18.0549 60.9477 18.3541C61.9452 18.5536 62.9427 18.6534 62.9427 19.3516C62.9427 19.8504 62.3442 19.9501 61.9452 19.9501C61.1472 19.9501 60.1497 19.4514 59.4514 19.0524L58.3541 21.2469C59.4514 21.8454 60.6484 22.2444 61.9452 22.2444C64.0399 22.2444 66.1347 21.2469 66.1347 18.8529C66.1347 17.1571 65.0374 16.4589 63.5412 16.2594C63.0424 16.1596 62.1447 16.0599 62.1447 15.4614C62.1447 14.9626 62.7432 14.8629 63.1422 14.8629C63.7407 14.8629 64.3392 15.0624 64.8379 15.3616L65.8354 13.3666ZM55.2619 7.88031C54.2644 7.88031 53.4664 8.67831 53.4664 9.67582C53.4664 10.6733 54.2644 11.4713 55.2619 11.4713C56.2594 11.4713 57.0574 10.6733 57.0574 9.67582C57.0574 8.67831 56.2594 7.88031 55.2619 7.88031ZM56.8579 13.0673H53.6659V22.0449H56.8579V13.0673ZM52.1696 17.7556C52.1696 14.7631 50.3741 12.7681 47.2818 12.7681C44.3891 12.7681 42.2943 14.5636 42.2943 17.5561C42.2943 20.6484 44.4888 22.2444 47.4813 22.2444C48.4788 22.2444 49.5761 22.0449 50.3741 21.5462C51.1721 21.0474 51.7706 20.2494 52.0699 19.2519H49.0773C48.7781 19.8504 48.2793 20.0499 47.5811 20.0499C46.2843 20.0499 45.5861 19.3516 45.5861 18.0549H52.2694C52.1696 18.1546 52.1696 17.7556 52.1696 17.7556ZM45.5861 16.2594C45.7856 15.2619 46.5836 14.8629 47.4813 14.8629C48.3791 14.8629 49.1771 15.4614 49.2768 16.2594H45.5861ZM39.5013 15.7606H41.6958V13.1671H39.5013V11.7706C39.5013 10.7731 39.7008 10.2743 40.5985 10.2743C40.9975 10.2743 41.2968 10.4738 41.6958 10.5736V7.88031C41.197 7.6808 40.798 7.58105 40.2993 7.58105C39.1023 7.58105 38.005 8.07981 37.207 8.97756C36.3092 9.97507 36.3092 10.8728 36.3092 12.0698V13.1671H35.212V15.7606H36.3092V22.0449H39.5013V15.7606ZM32.3192 15.7606H34.5137V13.1671H32.3192V11.7706C32.3192 10.7731 32.5187 10.2743 33.4165 10.2743C33.8155 10.2743 34.1147 10.4738 34.5137 10.5736V7.88031C34.015 7.6808 33.616 7.58105 33.1172 7.58105C31.9202 7.58105 30.823 8.07981 30.025 8.97756C29.1272 9.97507 29.1272 10.8728 29.1272 12.0698V13.1671H28.0299V15.7606H29.1272V22.0449H32.3192V15.7606ZM25.0374 7.88031C24.0399 7.88031 23.2419 8.67831 23.2419 9.67582C23.2419 10.6733 24.0399 11.4713 25.0374 11.4713C26.0349 11.4713 26.8329 10.6733 26.8329 9.67582C26.8329 8.67831 26.1347 7.88031 25.0374 7.88031ZM26.6334 13.0673H23.4414V22.0449H26.6334V13.0673ZM21.3466 13.0673H18.1546V13.9651C17.5561 13.1671 16.3591 12.7681 15.3616 12.7681C12.7681 12.7681 10.8728 14.9626 10.8728 17.4564C10.8728 19.9501 12.6683 22.2444 15.3616 22.2444C16.3591 22.2444 17.5561 21.8454 18.0549 20.9476V21.9452H21.2469L21.3466 13.0673ZM16.2594 15.5611C17.5561 15.5611 18.3541 16.5586 18.3541 17.5561C18.3541 18.6534 17.6559 19.5511 16.2594 19.5511C14.8629 19.5511 14.1646 18.6534 14.1646 17.5561C14.1646 16.4589 14.9626 15.5611 16.2594 15.5611ZM3.39152 11.4713H3.69078C4.78803 11.4713 6.08479 11.6708 6.08479 13.1671C6.08479 14.5636 4.78803 14.8629 3.69078 14.8629H3.39152V11.4713ZM6.78305 16.6584C8.57856 16.3591 9.67582 14.7631 9.67582 12.9676C9.67582 10.1746 7.6808 8.87781 5.08728 8.87781H0V21.9452H3.39152V16.9576L6.58354 21.9452H10.7731L6.78305 16.6584Z" fill="white"/>
<path d="M187.531 25.0374V39.5013H190.723V34.9127C190.723 33.9152 191.122 32.7182 192.419 32.7182C193.715 32.7182 193.815 33.8155 193.815 34.9127V39.5013H197.007V34.1147C197.007 31.9202 195.91 30.3242 193.616 30.3242C192.419 30.3242 191.421 30.823 190.723 31.7207V25.1372C190.623 25.0374 187.531 25.0374 187.531 25.0374ZM185.436 30.823C184.838 30.5237 184.04 30.2245 183.341 30.2245C180.548 30.2245 178.354 32.2195 178.354 35.1122C178.354 37.8055 180.548 39.7008 183.242 39.7008C184.04 39.7008 184.738 39.5013 185.436 39.202V36.5087C185.037 36.9077 184.439 37.1072 183.84 37.1072C182.543 37.1072 181.646 36.2095 181.646 34.9127C181.646 33.7157 182.643 32.7182 183.84 32.7182C184.439 32.7182 185.037 32.9177 185.536 33.3167V30.823H185.436ZM175.361 25.3367C174.364 25.3367 173.566 26.1347 173.566 27.1322C173.566 28.1297 174.364 28.9277 175.361 28.9277C176.359 28.9277 177.157 28.1297 177.157 27.1322C177.057 26.1347 176.259 25.3367 175.361 25.3367ZM176.957 30.5237H173.765V39.5013H176.957V30.5237ZM172.169 35.212C172.169 32.2195 170.374 30.2245 167.281 30.2245C164.389 30.2245 162.294 32.02 162.294 35.0125C162.294 38.1048 164.488 39.8005 167.481 39.8005C168.478 39.8005 169.576 39.601 170.374 39.1023C171.172 38.6035 171.77 37.8055 172.069 36.808H169.077C168.778 37.4065 168.279 37.606 167.581 37.606C166.284 37.606 165.586 36.9077 165.586 35.611H172.269L172.169 35.212ZM165.586 33.7157C165.785 32.7182 166.583 32.3192 167.481 32.3192C168.379 32.3192 169.177 32.9177 169.276 33.7157H165.586ZM158.104 30.5237H154.912V39.5013H158.104V35.9102C158.104 34.414 158.603 33.217 160.299 33.217C160.798 33.217 161.197 33.3167 161.695 33.5162V30.5237H161.097C159.9 30.5237 158.902 31.0225 158.204 32.1197L158.104 30.5237ZM150.224 30.5237H147.032V39.5013H150.224V35.9102C150.224 34.414 150.723 33.217 152.419 33.217C152.917 33.217 153.316 33.3167 153.815 33.5162V30.5237H153.217C151.92 30.5237 151.022 31.0225 150.324 32.1197L150.224 30.5237ZM145.436 35.212C145.436 32.2195 143.641 30.2245 140.548 30.2245C137.656 30.2245 135.561 32.02 135.561 35.0125C135.561 38.1048 137.755 39.8005 140.748 39.8005C141.745 39.8005 142.743 39.601 143.641 39.1023C144.439 38.6035 145.037 37.8055 145.336 36.808H142.344C142.045 37.4065 141.546 37.606 140.848 37.606C139.551 37.606 138.853 36.9077 138.853 35.611H145.536L145.436 35.212ZM138.753 33.7157C138.952 32.7182 139.75 32.3192 140.648 32.3192C141.546 32.3192 142.344 32.9177 142.444 33.7157H138.753ZM133.167 33.1172H134.962V30.5237H133.167V27.8304H129.975V30.5237H128.977V33.1172H129.975V39.4015H133.167V33.1172ZM127.78 30.823C126.882 30.424 125.885 30.2245 124.788 30.2245C122.892 30.2245 120.897 31.222 120.897 33.4165C120.897 35.0125 121.895 35.5112 122.892 35.8105C123.89 36.01 124.887 36.1097 124.887 36.808C124.887 37.3068 124.289 37.5063 123.89 37.5063C123.092 37.5063 122.094 37.0075 121.396 36.6085L120.299 38.803C121.396 39.4015 122.593 39.8005 123.89 39.8005C125.985 39.8005 128.079 38.803 128.079 36.409C128.079 34.7132 126.982 34.015 125.486 33.8155C124.987 33.7157 124.089 33.616 124.089 33.0175C124.089 32.5187 124.688 32.419 125.087 32.419C125.685 32.419 126.284 32.6185 126.783 32.9177L127.78 30.823ZM116.309 25.5362C115.311 25.5362 114.513 26.3342 114.513 27.2319C114.513 28.2294 115.311 28.9277 116.309 28.9277C117.306 28.9277 118.005 28.2294 118.005 27.2319C118.005 26.3342 117.306 25.5362 116.309 25.5362ZM111.92 25.5362C110.922 25.5362 110.124 26.3342 110.124 27.2319C110.124 28.2294 110.922 28.9277 111.92 28.9277C112.917 28.9277 113.616 28.2294 113.616 27.2319C113.516 26.3342 112.818 25.5362 111.92 25.5362ZM114.114 32.9177C115.411 32.9177 116.209 33.9152 116.209 34.9127C116.209 36.01 115.511 36.9077 114.114 36.9077C112.818 36.9077 112.02 36.01 112.02 34.9127C112.02 33.9152 112.818 32.9177 114.114 32.9177ZM114.114 30.2245C111.222 30.2245 108.728 32.02 108.728 35.0125C108.728 38.005 111.321 39.8005 114.114 39.8005C117.007 39.8005 119.501 38.005 119.501 35.0125C119.501 32.02 117.007 30.2245 114.114 30.2245ZM104.439 30.5237H101.247V39.5013H104.439V35.9102C104.439 34.414 104.937 33.217 106.633 33.217C107.132 33.217 107.531 33.3167 108.03 33.5162V30.5237H107.431C106.134 30.5237 105.137 31.0225 104.538 32.1197C104.439 32.02 104.439 30.5237 104.439 30.5237ZM99.7503 35.212C99.7503 32.2195 97.9547 30.2245 94.8625 30.2245C91.9697 30.2245 89.8749 32.02 89.8749 35.0125C89.8749 38.1048 92.0695 39.8005 95.062 39.8005C96.0595 39.8005 97.057 39.601 97.9547 39.1023C98.7527 38.6035 99.3513 37.8055 99.6505 36.808H96.5582C96.259 37.4065 95.7602 37.606 95.062 37.606C93.7652 37.606 93.067 36.9077 93.067 35.611H99.6505C99.7503 35.5112 99.7503 35.212 99.7503 35.212ZM93.1667 33.7157C93.3662 32.7182 94.1642 32.3192 95.062 32.3192C95.9597 32.3192 96.7577 32.9177 96.8575 33.7157H93.1667ZM83.5906 32.9177C84.8874 32.9177 85.6854 33.9152 85.6854 34.9127C85.6854 36.01 84.9872 36.9077 83.5906 36.9077C82.2939 36.9077 81.4959 36.01 81.4959 34.9127C81.4959 33.9152 82.2939 32.9177 83.5906 32.9177ZM78.4036 39.5013H81.5956V38.5038C82.1941 39.4015 83.2914 39.8005 84.2889 39.8005C86.8824 39.8005 88.7777 37.606 88.7777 35.0125C88.7777 32.419 86.9822 30.3242 84.2889 30.3242C83.2914 30.3242 82.1941 30.7232 81.4959 31.5212V25.1372H78.3039L78.4036 39.5013ZM69.6256 29.2269C71.7203 29.2269 73.4161 30.9227 73.4161 32.6185C73.4161 34.813 71.7203 36.5087 69.6256 36.5087C67.5308 36.5087 65.835 34.813 65.835 32.6185C65.835 30.9227 67.5308 29.2269 69.6256 29.2269ZM69.6256 25.9352C65.835 25.9352 62.3438 28.7282 62.3438 32.7182C62.3438 36.9077 65.3363 40 69.6256 40C73.8151 40 76.9073 37.0075 76.9073 32.7182C76.8076 28.7282 73.3163 25.9352 69.6256 25.9352Z" fill="white"/>
<path d="M226.034 24.3391L213.964 36.409L209.276 31.7207L221.346 19.6508L218.952 17.2568V12.5685L217.256 10.8728V14.7631L215.56 16.4588L209.675 10.5735L208.079 12.1695C208.079 11.172 208.378 7.58101 211.171 4.88774C214.264 1.89522 217.456 3.59098 218.553 4.68824L224.338 10.4738L222.942 11.8703L226.034 14.9626L229.126 11.8703L227.73 10.4738L233.516 4.68824C234.613 3.59098 237.705 1.79547 240.897 4.88774C243.69 7.58101 243.89 11.0723 243.89 12.1695L242.393 10.6733L236.508 16.5586L234.812 14.8628V10.9725L233.117 12.6683V17.3566L230.723 19.7506L242.792 31.8204L238.104 36.5087L226.034 24.3391Z" fill="black"/>
</svg>
