<svg width="237" height="40" viewBox="0 0 237 40" fill="none" xmlns="http://www.w3.org/2000/svg">
<path d="M65.1355 0.464191L69.8174 12.0027L74.5259 0.464191H79.6853L71.0642 20.1194H68.6105L59.9496 0.464191H65.1223H65.1355ZM90.3621 16.2467C93.6249 16.2334 95.7337 13.939 95.9061 10.8488C95.9327 10.4775 95.9194 10.0928 95.8796 9.72149C95.5348 6.44562 93.6249 4.4695 90.2958 4.44297C86.7811 4.41645 84.712 6.75066 84.712 10.2785C84.712 13.8594 86.8341 16.2732 90.3489 16.2467H90.3621ZM82.2451 3.35544C84.1682 1.23342 86.5556 0.0795756 90.2826 0.106101C96.9142 0.119363 100.88 4.32361 100.92 10.2122C100.973 16.5517 96.5826 20.9682 89.4602 20.5968C88.8236 20.557 88.3992 20.4775 87.7758 20.3714C83.0011 19.4828 79.7251 15.3448 79.7383 10.2918C79.7383 7.50663 80.6137 5.19894 82.2583 3.3687L82.2451 3.35544ZM103.944 0.464191H108.718V16.2732L117.989 16.2467V20.1194H103.93V0.464191H103.944ZM119.913 0.464191H124.661V9.23077L130.112 0.464191H135.656L129.475 9.92042L137.858 20.1326H131.637L124.661 11.1141V20.1326H119.913V0.450928V0.464191ZM219.055 0.464191H223.83V9.23077L229.268 0.464191H234.812L228.631 9.92042L237 20.1326H230.793L223.816 11.1141V20.1326H219.055V0.450928V0.464191ZM151.505 1.61804L151.519 5.68966L150.617 5.14589C149.28 4.30589 147.739 3.84727 146.16 3.81963C144.489 3.87268 143.746 4.53581 143.746 5.3183C143.746 6.07427 144.29 6.75066 146.293 7.59947C147.526 8.11671 148.15 8.3687 148.654 8.55438C149.184 8.75332 149.755 9.09814 150.67 9.82759C151.279 10.2969 151.788 10.884 152.166 11.5538C152.545 12.2236 152.784 12.9625 152.872 13.7268C153.243 17.321 150.882 20.1724 146.399 20.5172C144.301 20.6788 142.202 20.2321 140.351 19.2308L139.184 18.5411L139.21 14.1114L140.378 14.8674C142.301 16.1008 143.468 16.5119 145.073 16.5782C147.009 16.6446 147.991 15.7294 147.991 14.7613C147.991 13.9257 147.367 13.1167 145.484 12.3342L143.932 11.7507C143.667 11.6446 143.428 11.5517 143.189 11.4324C140.059 9.97347 138.879 8.3687 138.826 6.03448C138.76 2.65252 141.346 0.0132626 145.603 0C147.381 0 148.76 0.30504 150.418 1.1008L151.519 1.61804H151.505ZM164.265 16.3395C166.082 16.2069 166.811 15.4642 166.785 14.0849C166.771 12.6923 165.949 11.9098 164.344 11.8966H161.227V16.3395H164.278H164.265ZM162.673 8.06366H163.323C164.729 7.99735 165.445 7.24138 165.405 5.94164C165.339 4.66844 164.623 4.13793 162.434 4.13793H161.241V8.06366H162.673ZM156.466 0.450928C156.466 0.450928 164.198 0.411141 165.087 0.450928C168.27 0.66313 170.207 2.7321 170.233 5.39788C170.246 7.29443 169.464 8.64721 168.363 9.21751L167.859 9.4695V9.48276L168.323 9.58886C170.273 10.0663 171.705 11.9496 171.679 14.5491C171.679 17.6923 169.291 20.0928 165.259 20.1194H156.466V0.450928ZM185.526 12.7188L182.979 6.04775H182.952L180.472 12.7188H185.512H185.526ZM180.313 0.464191H185.751L193.47 20.1194H188.351L186.998 16.7507H179.04L177.714 20.1194H172.554L180.313 0.464191ZM195.553 0.464191H200.38L210.381 13.0902V0.464191H215.209V20.1194H210.381L200.38 7.49337V20.1194H195.553V0.464191ZM33.1447 0.450928L27.6538 22.626L21.8843 0.450928H0C0 0.450928 0.252001 1.98939 0.570317 3.18302C0.888634 4.37666 1.36611 5.62334 1.36611 5.62334H14.9874L15.6373 7.74536H2.28127C3.16314 9.58219 4.24393 11.3167 5.50423 12.9178H17.2024L17.8257 15H7.2417C7.2417 15 9.25771 17.1485 10.7564 18.3687C12.2817 19.6286 13.1438 20.1724 13.1438 20.1724H19.3908L25.3858 40H29.63L35.5454 20.1724H41.7393C41.7393 20.1724 42.5881 19.6286 44.1266 18.3687C45.6254 17.1485 47.6414 15 47.6414 15H37.0972L37.7073 12.931H49.3789C49.3789 12.931 50.1216 11.9894 51.0368 10.557C51.612 9.6552 52.1346 8.72084 52.6018 7.75862H39.2591L39.8957 5.6366H53.517C53.517 5.6366 53.9812 4.37666 54.3128 3.18302C54.6311 1.98939 54.8698 0.450928 54.8698 0.450928H33.1447Z" fill="white"/>
</svg>
