<svg width="118" height="40" viewBox="0 0 118 40" fill="none" xmlns="http://www.w3.org/2000/svg">
<path d="M1.67584 29.8887H3.79479L2.75644 27.1315L1.67584 29.8887ZM2.4901 26.6211H3.06383L5.17222 31.9983H4.6243L3.96961 30.3275H1.51745L0.870974 31.9983H0.318359L2.4901 26.6211Z" fill="white"/>
<path d="M6.61523 26.6204H7.12796V31.5611H10.1421V31.9999H6.61523V26.6204Z" fill="white"/>
<path d="M15.328 31.5632H17.0937C17.854 31.5691 18.5087 31.3145 18.5087 30.4545C18.5087 29.7693 17.9901 29.4161 17.0937 29.4161H15.328V31.5632ZM15.328 28.9761H17.0937C17.9139 28.9761 18.3069 28.5725 18.3069 28.0668C18.3069 27.3957 17.8916 27.0566 17.0937 27.0566H15.328V28.9761ZM14.8164 26.6202H17.0937C17.9972 26.6202 18.8196 26.9358 18.8196 27.9366C18.8196 28.5021 18.4407 29.0231 17.8845 29.1439V29.1556C18.5768 29.2483 19.0214 29.7693 19.0214 30.4685C19.0214 30.9813 18.8408 31.9997 17.0937 31.9997H14.8164V26.6202Z" fill="white"/>
<path d="M21.5555 29.8887H23.6721L22.6314 27.1315L21.5555 29.8887ZM22.3686 26.6211H22.9435L25.0507 31.9983H24.5005L23.8458 30.3275H21.396L20.7471 31.9983H20.1992L22.3686 26.6211Z" fill="white"/>
<path d="M27.1451 29.1735H29.0599C29.6829 29.1735 30.2203 28.7804 30.2203 28.1258C30.2203 27.4687 29.8273 27.0569 29.0599 27.0569H27.1451V29.1735ZM26.6348 26.6216H29.0963C29.9845 26.6216 30.7342 27.0475 30.7342 28.0178C30.7342 28.6971 30.3775 29.2568 29.6829 29.3905V29.407C30.3857 29.4973 30.5899 29.9795 30.6263 30.6213C30.6486 30.9886 30.6486 31.7277 30.8762 31.9987H30.3107C30.1851 31.7887 30.1851 31.3886 30.1652 31.1622C30.1218 30.4066 30.0631 29.5748 29.0881 29.6111H27.1451V31.9987H26.6348V26.6216Z" fill="white"/>
<path d="M32.7891 26.6205H33.3018V32H32.7891V26.6205Z" fill="white"/>
<path d="M35.8873 31.5632H36.9808C38.5272 31.5691 39.196 30.9132 39.196 29.3082C39.196 27.7043 38.5272 27.0496 36.9808 27.0566H35.8873V31.5632ZM35.377 26.6202H37.2366C38.8569 26.6554 39.7087 27.5459 39.7087 29.3082C39.7087 31.0716 38.8569 31.9621 37.2366 31.9997H35.377V26.6202Z" fill="white"/>
<path d="M46.231 30.8764H47.3561C47.7961 30.8764 48.107 30.718 48.107 30.2733C48.107 29.7982 47.775 29.6409 47.3561 29.6409H46.231V30.8764ZM46.231 28.7352H47.3174C47.5556 28.7352 47.8876 28.6073 47.8876 28.2236C47.8876 27.8329 47.6096 27.7027 47.3174 27.7027H46.231V28.7352ZM44.8301 26.6197H47.3468C48.2737 26.6033 49.2909 26.845 49.2909 27.9655C49.2909 28.4489 49.0058 28.8419 48.5811 29.052C49.156 29.2186 49.5103 29.7149 49.5103 30.3285C49.5103 31.6085 48.5658 31.9992 47.4148 31.9992H44.8301V26.6197Z" fill="white"/>
<path d="M53.0525 29.9948H54.2727L53.679 28.1117H53.6626L53.0525 29.9948ZM52.961 26.6193H54.3854L56.4011 31.9988H54.9356L54.6059 31.0344H52.731L52.3896 31.9988H50.9512L52.961 26.6193Z" fill="white"/>
<path d="M58.1602 26.6204H59.5998L61.4712 29.9338H61.4864V26.6204H62.8028V31.9999H61.362L59.4942 28.6455H59.4813V31.9999H58.1602V26.6204Z" fill="white"/>
<path d="M64.9883 26.6204H66.3915V28.6819L68.1608 26.6204H69.9032L67.9133 28.7358L70.1507 31.9999H68.4119L66.9617 29.7367L66.3915 30.3421V31.9999H64.9883V26.6204Z" fill="white"/>
<path d="M16.2452 15.0632H13.7696C13.3719 15.0632 13.1736 14.9388 13.1736 14.6818V8.00001L10.8235 9.9195V15.0632H4.08301L2.98013 15.0479C2.65748 15.0479 2.33013 14.9552 2.02273 14.764C1.53582 14.4777 1.30117 14.0025 1.30117 13.3502C1.30117 13.0463 1.35396 12.7365 1.44431 12.4221L1.49945 12.2449C1.15568 12.6133 0.848281 13.0087 0.630051 13.4182C0.20063 14.1926 0 14.8191 0 15.2673C0 15.9349 0.269854 16.4758 0.813083 16.87C1.15568 17.1305 1.49945 17.2501 1.87959 17.2501L10.353 17.2654L10.8235 16.7222C10.8951 17.0906 11.2377 17.2654 11.8536 17.2654H16.2452V15.0632ZM8.00529 11.0752C7.65917 11.1714 7.32009 11.223 7.01035 11.223C6.16207 11.223 5.51324 11.0494 5.05684 10.6786C5.36775 10.4369 5.78192 10.3161 6.28761 10.3161C6.595 10.3161 6.9024 10.3536 7.2098 10.4498L7.4996 10.0415C7.64509 9.83737 7.71549 9.70244 7.71549 9.63204C7.71549 9.44197 7.42803 9.34928 6.84609 9.34928C5.98138 9.34928 5.27507 9.68719 4.73418 10.3536C4.42561 10.7208 4.28247 11.0071 4.28247 11.2136C4.28247 11.6325 4.56992 11.8906 5.1331 11.988C4.78815 12.2719 4.5535 12.6826 4.44438 13.1836C4.93364 12.7647 5.51324 12.4655 6.14329 12.2719C6.48589 12.1781 6.95638 12.0948 7.57235 12.0537L8.00529 11.0752ZM19.0118 17.2654L19.6994 16.5966L19.9868 17.2654H24.1614V15.0632H21.3783L20.53 12.8445L18.7408 14.1785L19.1022 15.0632H15.4134V17.2654H19.0118ZM21.3783 10.5589L19.4811 9.29297L18.0509 10.2856L19.9868 11.5374L21.3783 10.5589ZM28.0649 11.9328L26.3835 13.674C26.8001 13.9884 27.1239 14.4507 27.3585 15.0632H23.3283V17.2654H27.9733C28.1704 16.9545 28.391 16.5591 28.6257 16.0558C29.0035 15.2802 29.1853 14.656 29.1853 14.2043C29.1853 13.3502 28.8052 12.5864 28.0649 11.9328ZM25.8767 19.5404L27.7762 20.8017L29.1853 19.8102L27.2518 18.5595L25.8767 19.5404Z" fill="white"/>
<path d="M45.412 16.2379H42.5363L39.6653 12.4541L39.0118 13.2449L41.2903 16.2379H37.4748C37.0618 16.2379 36.7896 16.2262 36.6617 16.1992C36.3742 16.1288 36.1924 16.008 36.1184 15.8027C35.8474 16.1699 35.7207 16.4714 35.7207 16.7002C35.7207 16.9302 35.8474 17.0815 36.1008 17.1777C36.244 17.2305 36.4998 17.2587 36.8635 17.2587H41.2903L41.7596 16.8234L42.0482 17.2587H45.412V16.2379ZM48.161 13.2332L47.4371 13.9665C47.9592 14.6317 48.2126 15.2184 48.2126 15.7475C48.1774 15.9669 48.161 16.1288 48.161 16.2379H43.7283V17.2587H48.2842C48.4121 17.0147 48.4848 16.8926 48.5048 16.8786C48.9178 15.886 49.1348 15.2453 49.1348 14.9884C49.1348 14.3337 48.8122 13.7482 48.161 13.2332ZM45.324 19.1911L46.2439 19.8997L47.1285 19.3812L47.7973 19.8997L48.6655 19.3812L47.7222 18.6479L46.8375 19.1911L46.1336 18.6479L45.324 19.1911ZM56.5089 19.1653L55.5714 18.4015L54.7361 18.9729L55.6606 19.6803L56.5089 19.1653ZM52.5514 14.4018L51.7195 15.1222C52.3508 15.7064 52.8048 16.3893 53.0759 17.1777C52.1912 18.8497 51.0684 19.6933 49.6769 19.6933C49.19 19.6933 48.6831 19.6006 48.1739 19.407C49.2064 20.2377 49.9479 20.66 50.3996 20.66C50.7434 20.66 51.1587 20.4571 51.6855 20.0488C53.0031 19.0151 53.6719 17.8958 53.6719 16.7002C53.6719 16.4714 53.6343 16.2532 53.5628 16.0221L53.5815 16.049L53.5628 15.9927H56.1651L56.6884 15.5058V16.2379C56.6884 16.9196 57.0333 17.2587 57.7033 17.2587H60.6846V16.2379H58.3146C57.9931 16.2379 57.8288 16.1018 57.8288 15.8437V13.1229L56.6884 13.8691V15.0025H53.0759C52.9315 14.7678 52.7485 14.5801 52.5514 14.4018ZM65.4575 9.10675L64.3886 8.75477C63.8477 8.57643 63.5779 8.31948 63.5779 8.00738L62.9091 8.94718L62.7988 9.08211C62.7273 9.20413 62.6909 9.28626 62.6909 9.34141C62.6909 9.49041 62.8716 9.61361 63.2165 9.68048L63.9381 16.2379H59.0044V17.2587H64.1575L64.5189 16.4163C64.7512 15.8707 64.8415 15.4354 64.8239 15.1222L64.3886 10.0067L64.8603 10.1158L65.4575 9.10675ZM68.711 8.00738L67.3711 9.27101C67.6081 9.96559 67.736 10.4009 67.736 10.578C67.7724 11.3817 67.7724 11.9402 67.7864 12.2394L67.8803 14.715C67.9143 15.5856 67.8428 16.5524 67.6797 17.5989L67.6456 17.8301C68.1689 17.0815 68.5479 16.4022 68.7474 15.7639C68.9245 15.1351 69.0172 14.4018 68.9808 13.5582L68.9456 12.6465C68.9245 12.0892 68.9245 11.7349 68.9093 11.5706L68.7474 10.1557L68.711 9.87173L69.0724 9.52913L68.711 8.00738Z" fill="white"/>
<path d="M101.201 6.98312C102.424 6.97856 103.412 5.97065 103.406 4.72883C103.4 3.49157 102.405 2.48915 101.183 2.49555C99.9578 2.50012 98.9718 3.50984 98.9782 4.74802C98.9855 5.98802 99.9788 6.98861 101.201 6.98312ZM78.1504 4.2098C81.2216 12.7509 88.022 18.695 88.022 18.695C88.022 18.695 87.6391 24.1997 78.2006 33.0981C87.0588 30.3046 95.0837 25.4808 101.476 19.7934C108.476 14.732 113.297 6.63863 115.448 1.49737e-05C92.5589 20.8936 78.1504 4.2098 78.1504 4.2098Z" fill="white"/>
<path d="M101.199 15.5098C102.44 15.5061 103.443 14.4818 103.437 13.2263C103.43 11.9698 102.419 10.9564 101.182 10.961C99.9409 10.9647 98.9385 11.9899 98.9458 13.2464C98.9504 14.5019 99.962 15.5171 101.199 15.5098ZM82.5142 12.3929C86.9598 20.6599 95.1993 24.7362 95.1993 24.7362C95.1993 24.7362 94.3998 27.9244 80.7031 40C108.393 31.607 113.821 19.9818 117.694 8.04239C97.1411 27.3862 82.5142 12.3929 82.5142 12.3929Z" fill="#FFD42D"/>
</svg>
