<svg width="222" height="40" viewBox="0 0 222 40" fill="none" xmlns="http://www.w3.org/2000/svg">
<g clip-path="url(#clip0_402_2918)">
<path d="M102.812 37.8096C102.812 39.0091 101.901 39.661 100.365 39.661C99.4539 39.661 98.5167 39.6349 97.5273 39.5828V33.116C98.6208 33.09 99.532 33.0639 100.235 33.0639C101.719 33.0639 102.552 33.6897 102.552 34.7849C102.552 35.515 102.083 36.0887 101.381 36.2973C102.24 36.4798 102.812 37.0795 102.812 37.8096ZM99.4539 34.2634H98.8551V35.8279H100.183C100.808 35.8279 101.198 35.515 101.198 35.0196C101.198 34.498 100.808 34.2634 100.001 34.2634C99.9226 34.2634 99.7403 34.2634 99.4539 34.2634ZM101.459 37.6532C101.459 37.1838 101.042 36.9231 100.391 36.9231H98.8551V38.4355C99.48 38.4615 99.9226 38.4615 100.157 38.4615C101.042 38.4876 101.459 38.2008 101.459 37.6532Z" fill="white"/>
<path d="M109.765 39.5828H108.619L106.953 36.1408L106.718 39.5828H105.391L105.755 33.116H107.031L109.192 37.8879L111.353 33.116H112.602L112.967 39.5828H111.639L111.405 36.1408L109.765 39.5828Z" fill="white"/>
<path d="M121.142 34.5502C120.309 34.3677 119.71 34.2894 119.293 34.2894C118.564 34.2894 117.992 34.472 117.575 34.8631C117.184 35.2282 116.976 35.7236 116.976 36.3233C116.976 36.9492 117.184 37.4707 117.575 37.8618C117.992 38.2529 118.512 38.4355 119.189 38.4355C119.606 38.4355 120.257 38.3312 121.142 38.1486L121.376 39.3481C120.569 39.5828 119.814 39.6871 119.085 39.6871C118.018 39.6871 117.132 39.3742 116.482 38.7484C115.831 38.1226 115.492 37.3142 115.492 36.2973C115.492 35.2803 115.831 34.472 116.482 33.8722C117.132 33.2464 117.992 32.9335 119.085 32.9335C119.84 32.9335 120.595 33.0378 121.376 33.2203L121.142 34.5502Z" fill="white"/>
<path d="M128.509 35.7236V36.9752H125.515V38.3312H128.899V39.5828H124.135V33.116H128.899V34.3677H125.515V35.7236H128.509Z" fill="white"/>
<path d="M141.345 39.0352C140.225 39.5046 139.21 39.7392 138.351 39.7392C137.309 39.7392 136.476 39.4263 135.851 38.8005C135.226 38.1747 134.914 37.3403 134.914 36.3233C134.914 35.3325 135.253 34.5241 135.903 33.8983C136.58 33.2725 137.439 32.9857 138.533 32.9857C139.288 32.9857 140.043 33.09 140.798 33.2725L140.538 34.5502C139.574 34.3937 138.949 34.3155 138.637 34.3155C137.934 34.3155 137.387 34.498 136.971 34.8892C136.554 35.2542 136.346 35.7497 136.346 36.3755C136.346 37.0013 136.528 37.4967 136.919 37.8879C137.283 38.279 137.778 38.4615 138.403 38.4615C138.897 38.4615 139.47 38.3833 140.121 38.2269V37.0274H137.934V35.8018H141.397L141.345 39.0352Z" fill="white"/>
<path d="M146.317 37.601H145.561V39.5828H144.182V33.116C145.197 33.09 146.004 33.0639 146.681 33.0639C148.295 33.0639 149.311 33.8722 149.311 35.3064C149.311 36.1408 148.842 36.8448 148.087 37.2621L149.727 39.5828H148.087L146.759 37.601H146.317ZM146.785 36.4016C147.462 36.4016 147.957 35.9583 147.957 35.3064C147.957 34.6023 147.488 34.2894 146.681 34.2894C146.186 34.2894 145.796 34.2894 145.535 34.2894V36.4016H146.785Z" fill="white"/>
<path d="M155.22 32.9857C156.236 32.9857 157.069 33.2986 157.72 33.9244C158.371 34.5502 158.683 35.3585 158.683 36.3755C158.683 37.3924 158.371 38.2008 157.72 38.8266C157.095 39.4524 156.236 39.7653 155.22 39.7653C154.205 39.7653 153.372 39.4524 152.721 38.8266C152.096 38.2008 151.758 37.3924 151.758 36.3755C151.758 35.3585 152.07 34.5502 152.721 33.9244C153.372 33.2986 154.205 32.9857 155.22 32.9857ZM155.22 38.4355C155.819 38.4355 156.288 38.2529 156.678 37.8618C157.069 37.4707 157.251 36.9752 157.251 36.3494C157.251 35.7236 157.069 35.2282 156.678 34.837C156.288 34.4459 155.819 34.2634 155.22 34.2634C154.622 34.2634 154.153 34.4459 153.762 34.837C153.372 35.2282 153.19 35.7236 153.19 36.3494C153.19 36.9752 153.372 37.4707 153.762 37.8618C154.153 38.2529 154.622 38.4355 155.22 38.4355Z" fill="white"/>
<path d="M167.17 36.7405C167.17 37.6532 166.91 38.3833 166.363 38.9309C165.817 39.4785 165.114 39.7392 164.202 39.7392C163.291 39.7392 162.588 39.4785 162.041 38.9309C161.521 38.4094 161.234 37.6532 161.234 36.7405V33.116H162.614V36.7405C162.614 37.8096 163.213 38.4355 164.202 38.4355C165.166 38.4355 165.79 37.8096 165.79 36.7405V33.116H167.17V36.7405Z" fill="white"/>
<path d="M174.356 33.6636C174.85 34.0808 175.111 34.6284 175.111 35.3325C175.111 36.0365 174.85 36.6102 174.356 37.0274C173.861 37.4446 173.21 37.6793 172.403 37.6793H171.388V39.5828H170.008V33.116C170.945 33.0639 171.726 33.0378 172.403 33.0378C173.21 33.0378 173.861 33.2464 174.356 33.6636ZM172.507 36.4537C173.236 36.4537 173.757 36.0104 173.757 35.3325C173.757 34.6806 173.236 34.2894 172.507 34.2894C171.986 34.2894 171.596 34.2894 171.362 34.3155V36.4537H172.507Z" fill="white"/>
<path d="M11.0389 23.0248C11.0389 25.3716 9.16436 26.7275 6.11827 26.7275C4.3479 26.7275 2.36924 26.6754 0.234375 26.5711V13.5854C2.34321 13.5072 4.21772 13.4811 5.88396 13.4811C8.79987 13.4811 10.5442 14.7327 10.5442 16.9492C10.5442 18.4094 9.65903 19.6349 8.30521 20.0261C9.94541 20.3911 11.0389 21.5906 11.0389 23.0248ZM3.41064 16.1147V18.9831H5.67568C6.76915 18.9831 7.49813 18.3833 7.49813 17.4707C7.49813 16.5841 6.82122 16.1147 5.4674 16.1147H3.41064ZM7.88865 22.5815C7.88865 21.7471 7.15967 21.2516 6.01413 21.2516H3.41064V24.0417C3.61892 24.0417 3.98341 24.0678 4.53014 24.0678C5.07688 24.0939 5.49343 24.0939 5.70171 24.0939C7.15967 24.0939 7.88865 23.5984 7.88865 22.5815Z" fill="white"/>
<path d="M16.0889 26.5971H12.5742L18.354 13.5332H21.348L27.1017 26.5971H23.6391L22.7539 24.4589H16.9741L16.0889 26.5971ZM18.0676 21.721H21.6344L19.838 17.3924L18.0676 21.721Z" fill="white"/>
<path d="M41.7599 26.5971H38.844L32.8039 19.0352V26.5971H29.6016V13.5854H32.5435L38.5576 21.1995V13.5854H41.7599V26.5971Z" fill="white"/>
<path d="M48.4777 26.5971H45.2754V13.5854H48.4777V19.0874H49.1286L53.3462 13.5854H57.2515L52.5391 19.661L57.5639 26.5971H53.6326L50.4824 22.2164H48.4777V26.5971Z" fill="white"/>
<path d="M71.232 13.2725C67.4829 13.2725 64.4629 16.2973 64.4629 20.0522C64.4629 23.807 67.4829 26.8318 71.232 26.8318C74.981 26.8318 78.0011 23.807 78.0011 20.0522C78.0271 16.2973 74.981 13.2725 71.232 13.2725ZM71.232 23.7288C69.2013 23.7288 67.561 22.0861 67.561 20.0522C67.561 18.0183 69.2013 16.3755 71.232 16.3755C73.2627 16.3755 74.9029 18.0183 74.9029 20.0522C74.9029 22.0861 73.2627 23.7288 71.232 23.7288Z" fill="white"/>
<path d="M89.4821 19.2438V22.1643H84.0148V26.5971H80.8125V13.5854H90.3413V16.4276H84.0148V19.2438H89.4821Z" fill="white"/>
<path d="M101.015 26.5971H97.5L103.28 13.5332H106.274L112.027 26.5971H108.539L107.654 24.4589H101.9L101.015 26.5971ZM102.993 21.721H106.56L104.764 17.3924L102.993 21.721Z" fill="white"/>
<path d="M123.171 19.2438V22.1643H117.73V26.5971H114.527V13.5854H124.03V16.4276H117.73V19.2438H123.171Z" fill="white"/>
<path d="M131.113 22.8683H129.759V26.5971H126.557V13.5854C128.327 13.5072 130.071 13.4811 131.764 13.4811C135.174 13.4811 137.231 15.1239 137.231 18.0965C137.231 19.8435 136.398 21.1995 134.992 22.0339L138.09 26.5711H134.263L131.868 22.8422L131.113 22.8683ZM131.816 20.1565C133.143 20.1565 134.003 19.3481 134.003 18.1486C134.003 16.897 133.222 16.2451 131.686 16.2451C131.503 16.2451 131.165 16.2451 130.722 16.2712H129.759V20.1565H131.816Z" fill="white"/>
<path d="M143.687 13.5854H140.459V26.5711H143.687V13.5854Z" fill="white"/>
<path d="M158.059 16.8709C156.289 16.5319 155.013 16.3494 154.232 16.3494C151.55 16.3494 150.014 17.8618 150.014 20.0522C150.014 21.1995 150.379 22.1121 151.134 22.8162C151.889 23.5202 152.878 23.8592 154.076 23.8592C154.987 23.8592 156.341 23.6767 158.059 23.3377L158.606 26.1538C156.861 26.6232 155.273 26.8579 153.841 26.8579C151.654 26.8579 149.91 26.2321 148.582 24.9804C147.254 23.7288 146.604 22.0861 146.604 20.0522C146.604 18.0183 147.28 16.4016 148.582 15.1499C149.91 13.8983 151.68 13.2725 153.841 13.2725C155.377 13.2725 156.965 13.4811 158.606 13.8983L158.059 16.8709Z" fill="white"/>
<path d="M164.099 26.5971H160.584L166.364 13.5072H169.358L175.111 26.5711H171.623L170.738 24.4329H164.984L164.099 26.5971ZM166.077 21.721H169.644L167.848 17.3924L166.077 21.721Z" fill="white"/>
<path d="M216.143 6.3103C208.541 -1.30378 196.2 -1.30378 188.598 6.3103C180.996 13.9244 180.996 26.2581 188.598 33.8722C196.2 41.4863 208.515 41.4863 216.117 33.8722C223.745 26.2581 223.745 13.9244 216.143 6.3103ZM213.383 28.5267C207.291 34.6284 197.45 34.6284 191.358 28.5267C185.266 22.425 185.266 12.5684 191.358 6.46675C197.45 0.365059 207.291 0.365059 213.383 6.46675C219.45 12.5424 219.45 22.425 213.383 28.5267Z" fill="white"/>
<path d="M207.656 6.15385H196.669L192.191 11.2907L194.951 15.6454L200.158 16.6362L204.037 29.8566L211.978 13.455L207.656 6.15385Z" fill="white"/>
</g>
<defs>
<clipPath id="clip0_402_2918">
<rect width="222" height="40" fill="white"/>
</clipPath>
</defs>
</svg>
