<svg width="153" height="40" viewBox="0 0 153 40" fill="none" xmlns="http://www.w3.org/2000/svg">
<path d="M39.7622 16.3383C39.7622 18.0132 38.3785 19.1784 36.0481 19.1784H28.7656V9.63837H35.8296C38.0144 9.63837 39.3252 10.6579 39.3252 12.2601C39.3252 13.134 38.9611 13.7894 38.3057 14.2263C39.3252 14.5905 39.7622 15.3187 39.7622 16.3383ZM31.2417 13.2796H35.7568C36.6307 13.2796 36.9948 12.9883 36.9948 12.3329C36.9948 11.6775 36.6307 11.459 35.7568 11.459H31.2417V13.2796ZM37.359 16.1198C37.359 15.3915 36.922 15.1002 35.9753 15.1002H31.2417V17.2122H35.9753C36.922 17.2122 37.359 16.848 37.359 16.1198Z" fill="white"/>
<path d="M49.2287 16.9937H43.9125L42.7473 19.1056H40.0527L45.4418 10.0025C45.6602 9.63838 46.0972 9.34708 46.5341 9.34708C46.9711 9.34708 47.408 9.63838 47.6265 10.0025L53.0156 19.1056H50.3939L49.2287 16.9937ZM48.1363 15.1002L46.5341 12.2601L44.932 15.1002H48.1363Z" fill="white"/>
<path d="M62.7758 9.56555H65.1062V18.0861C65.1062 18.8143 64.5964 19.2513 63.8682 19.2513C63.5041 19.2513 63.1399 19.1056 62.9215 18.8871L56.6585 12.7698V19.1056H54.3281V10.5851C54.3281 9.85685 54.8379 9.34708 55.5661 9.34708C55.9303 9.34708 56.2944 9.49273 56.5129 9.7112L62.7758 15.7557V9.56555Z" fill="white"/>
<path d="M77.1921 19.1056L76.6095 18.6687C75.9541 18.96 75.2259 19.1056 74.4248 19.1056H71.8759C69.0358 19.1056 66.9238 17.0665 66.9238 14.2263C66.9238 11.459 68.8901 9.49272 71.8759 9.49272H74.4248C77.3378 9.49272 79.3041 11.459 79.3041 14.2263C79.3041 15.5372 78.8671 16.7024 78.066 17.5763L79.8867 19.1056H77.1921ZM74.7889 17.2122L72.8955 15.6828H75.7356L76.3911 16.2654C76.7552 15.7557 76.9737 15.1002 76.9737 14.372C76.9737 12.697 75.9541 11.5318 74.4976 11.5318H71.9488C70.4923 11.5318 69.4727 12.6242 69.4727 14.372C69.4727 16.047 70.4923 17.285 71.9488 17.285H74.4976C74.5705 17.2122 74.7161 17.2122 74.7889 17.2122Z" fill="white"/>
<path d="M92.342 9.56555V14.9546C92.342 17.7948 90.3757 19.2513 86.7345 19.2513C83.0932 19.2513 81.127 17.7219 81.127 14.9546V9.56555H83.4573V14.7361C83.4573 16.5567 84.4041 17.285 86.7345 17.285C89.0649 17.285 90.0116 16.5567 90.0116 14.7361V9.56555H92.342Z" fill="white"/>
<path d="M97.0009 13.2796H103.482V15.1731H97.0009V17.2122H104.356V19.1056H94.5977V9.56555H104.356V11.459H97.0009V13.2796Z" fill="white"/>
<path d="M10.8509 25.1501C10.8509 27.3348 9.17594 28.5729 6.33577 28.5729H2.40322V31.2674H0V21.7273H6.33577C9.24877 21.7273 10.8509 22.9653 10.8509 25.1501ZM8.44769 25.1501C8.44769 24.1305 7.79227 23.6208 6.33577 23.6208H2.47605V26.6794H6.33577C7.71944 26.6794 8.44769 26.1696 8.44769 25.1501Z" fill="white"/>
<path d="M24.6146 26.3881C24.6146 29.2283 22.5755 31.2674 19.7353 31.2674H17.1865C14.3463 31.2674 12.2344 29.2283 12.2344 26.3881C12.2344 23.6208 14.2007 21.6545 17.1865 21.6545H19.7353C22.6483 21.7273 24.6146 23.6208 24.6146 26.3881ZM22.2114 26.3881C22.2114 24.7131 21.1918 23.5479 19.7353 23.5479H17.1865C15.73 23.5479 14.7104 24.6403 14.7104 26.3881C14.7104 28.0631 15.73 29.3011 17.1865 29.3011H19.7353C21.1918 29.3739 22.2114 28.0631 22.2114 26.3881Z" fill="white"/>
<path d="M37.3587 25.1501C37.3587 27.3348 35.6838 28.5729 32.8436 28.5729H28.911V31.2674H26.5078V21.7273H32.8436C35.6838 21.7273 37.3587 22.9653 37.3587 25.1501ZM34.8827 25.1501C34.8827 24.1305 34.2273 23.6208 32.7708 23.6208H28.911V26.6794H32.7708C34.2273 26.6794 34.8827 26.1696 34.8827 25.1501Z" fill="white"/>
<path d="M50.3225 21.6545V27.0435C50.3225 29.8837 48.3562 31.3402 44.7149 31.3402C41.0737 31.3402 39.1074 29.8109 39.1074 27.0435V21.6545H41.4378V26.8251C41.4378 28.6457 42.3845 29.3739 44.7149 29.3739C47.0453 29.3739 47.9921 28.6457 47.9921 26.8251V21.6545H50.3225Z" fill="white"/>
<path d="M61.9725 29.3739V31.2674H52.5781V21.7273H54.9813V29.3739H61.9725Z" fill="white"/>
<path d="M72.023 29.1555H66.7068L65.5416 31.2674H62.9199L68.309 22.1643C68.5274 21.8001 68.9644 21.5088 69.4013 21.5088C69.8383 21.5088 70.2752 21.8001 70.4937 22.1643L75.8828 31.2674H73.2611L72.023 29.1555ZM70.9307 27.262L69.3285 24.4218L67.7264 27.262H70.9307Z" fill="white"/>
<path d="M79.452 21.7273H77.0488V31.2674H79.452V21.7273Z" fill="white"/>
<path d="M90.5202 28.5L93.2876 31.2674H90.2289L87.8257 28.7913H84.1845V31.2674H81.7812V21.7273H88.3355C91.1028 21.7273 92.7778 23.0382 92.7778 25.2229C92.7778 26.7522 91.9767 27.9903 90.5202 28.5ZM88.2627 26.8979C89.7192 26.8979 90.3746 26.3881 90.3746 25.2229C90.3746 24.1305 89.7192 23.5479 88.2627 23.5479H84.2573V26.8979H88.2627Z" fill="white"/>
<path d="M97.0009 25.4414H103.482V27.3348H97.0009V29.3739H104.356V31.2674H94.5977V21.7273H104.356V23.6208H97.0009V25.4414Z" fill="white"/>
<path d="M132.605 40C121.609 40 112.605 31.0653 112.605 20C112.605 9.00344 121.54 0 132.605 0C143.602 0 152.605 8.93471 152.605 20C152.605 31.0653 143.671 40 132.605 40ZM132.605 1.4433C122.365 1.4433 114.049 9.75945 114.049 20C114.049 30.2405 122.365 38.5567 132.605 38.5567C142.846 38.5567 151.162 30.2405 151.162 20C151.162 9.75945 142.846 1.4433 132.605 1.4433Z" fill="white"/>
<path d="M131.712 29.3471C131.643 29.2784 131.437 29.1409 131.368 28.866C131.299 28.7285 131.299 28.3849 131.162 28.2474C130.543 27.7663 129.925 27.354 129.1 26.8729C128.825 27.0103 128.482 27.2165 128.207 27.354C128.688 27.6289 129.238 28.0412 129.787 28.5911C129.856 28.6598 129.925 28.6598 130.062 28.6598C130.2 28.5911 130.406 28.5911 130.543 28.6598C130.75 28.7973 130.75 29.0722 130.543 29.2784V29.3471C130.543 29.5533 130.612 29.6907 130.612 29.8282C130.612 29.8282 130.612 29.8969 130.681 29.8969L131.849 30.5155C131.918 30.5155 131.987 30.5155 131.918 30.4467C131.849 29.6907 131.781 29.4845 131.712 29.3471C131.781 29.3471 131.781 29.3471 131.712 29.3471ZM137.829 24.1924C137.691 24.2612 137.485 24.3299 137.416 24.5361C137.21 25.0172 137.073 25.4296 136.935 25.9107C136.66 26.2543 136.592 26.5292 136.592 27.0103C136.592 27.354 136.179 28.0412 135.286 30.4467C135.286 30.5155 135.217 30.5842 135.286 30.6529C135.286 30.7217 135.354 30.8591 135.423 30.9966L135.492 31.0653C135.561 31.0653 135.698 31.0653 135.698 31.134C135.836 31.134 136.179 31.2715 136.248 31.6151C136.248 31.6839 136.248 31.8213 136.248 31.8213C136.248 31.89 136.317 32.0962 136.385 32.3024L136.454 32.3711H137.691C137.76 32.3711 137.829 32.3024 137.76 32.2337C137.485 31.8213 137.416 31.7526 137.279 31.4777C136.798 31.2715 136.66 31.0653 136.523 30.9278C136.385 30.7217 136.385 30.5155 136.385 30.378C136.454 29.6907 137.485 27.8351 137.691 27.6289C138.035 27.354 138.104 27.1478 138.172 26.9416C138.241 26.7354 138.241 26.5979 138.241 26.5292C138.31 26.2543 138.997 25.3608 139.341 24.8797C138.722 24.3986 138.31 24.3986 137.829 24.1924ZM143.602 11.2028C143.464 11.0653 143.464 11.0653 143.464 10.9966C143.396 10.7904 143.396 10.7217 143.327 10.7217C143.258 10.7217 143.189 10.6529 143.121 10.6529C142.915 10.6529 142.708 10.6529 142.502 10.5842C141.471 10.1718 140.99 9.75945 140.99 9.75945C141.128 9.62199 141.403 9.27835 141.128 8.79725C141.128 8.93471 141.059 9.00344 140.99 9.00344C141.059 8.59107 140.784 8.31615 140.509 8.24742C140.715 8.38488 140.647 8.6598 140.647 8.72852C140.578 8.59107 140.44 8.38488 140.234 8.38488C140.372 8.72852 140.165 9.07217 139.753 9.00344C139.89 8.59107 139.822 8.10997 139.684 7.62887C139.478 8.10997 139.203 8.24742 138.928 9.00344C138.722 8.86598 137.966 8.45361 137.348 8.72852C137.554 8.79725 137.966 8.93471 138.035 9.1409C137.416 9.00344 136.66 9.07217 136.179 9.48454C136.523 9.41581 137.004 9.55327 137.141 9.69072C136.866 9.89691 136.317 9.96564 135.698 9.96564C135.836 10.1031 136.385 10.378 136.729 10.4467C135.836 10.4467 135.629 10.8591 135.08 11.134C135.698 11.0653 135.904 11.3402 136.317 11.3402C135.629 11.4777 135.354 11.7526 134.598 11.6839C134.736 11.9588 135.354 12.3024 135.629 12.3711C135.217 12.4399 134.667 12.7835 134.186 12.646C134.392 13.0584 135.148 13.2646 135.561 13.2646C135.492 13.4021 134.736 13.5395 134.392 13.5395C134.53 13.7457 135.217 13.7457 135.354 13.8144C135.217 13.9519 134.323 14.0893 134.049 14.0893C134.255 14.5017 135.148 14.7079 135.561 14.6392C135.423 15.0515 134.323 14.9828 133.842 14.7766C134.049 15.2577 134.873 15.8076 135.629 15.7388C135.286 15.945 134.392 16.0137 133.98 15.945C134.117 16.2199 134.736 16.6323 135.217 16.7698C135.629 16.9072 135.492 17.1821 135.08 17.3196C133.636 17.732 131.437 17.732 129.719 17.3883C129.238 17.3196 128.55 17.3196 128.069 17.3883C127.726 17.457 127.451 17.5258 127.176 17.6632C127.038 17.732 127.038 17.6632 127.038 17.457C127.107 17.1134 127.107 16.7698 127.038 16.4261C126.901 15.6701 126.214 15.189 125.526 14.8454C124.908 14.5704 124.152 14.433 123.464 14.5017C123.189 14.5017 122.915 14.5704 122.64 14.5704C122.502 14.5704 122.021 14.7079 121.815 14.7766C121.952 14.8454 122.021 14.9141 122.365 14.9828C121.403 15.0515 120.44 15.3952 119.547 14.8454C119.684 15.3952 120.303 15.5326 120.715 15.5326C118.31 15.945 117.141 14.5704 117.004 14.2955C117.348 15.7388 118.653 16.2199 119.066 16.2887C118.791 16.2887 118.035 16.3574 117.004 15.8076C117.554 17.1134 120.028 16.9072 120.165 16.9072C120.028 16.9759 119.409 17.1821 118.447 17.1134C119.616 18.0069 121.471 16.9072 123.877 16.8385C123.396 16.9072 122.64 17.1821 122.159 17.732C123.739 17.0447 125.114 17.1821 125.251 17.1821C126.557 17.2509 126.488 17.8007 125.939 18.6254C125.732 18.9691 125.595 19.3814 125.526 19.7938C125.389 20.8247 125.801 21.8557 126.42 22.6117C126.626 22.8866 126.901 23.1615 127.176 23.4364C127.588 23.7801 127.863 24.055 128.069 24.1924C128.55 24.6048 128.619 24.7423 128.55 24.8797C128.344 25.2234 128 25.4983 127.657 25.7732L127.519 25.7045C127.382 25.6357 127.382 25.567 127.382 25.567C127.588 25.4983 127.932 25.4296 128.207 25.0172C128.275 24.9485 128.275 24.8797 128.275 24.7423C128.275 24.6735 128.138 24.5361 128 24.3986C128 24.3986 128 24.3986 127.932 24.3299C127.863 24.2612 127.794 24.1924 127.726 24.1237C127.519 23.9863 127.176 23.7801 126.901 23.5052C126.488 24.8797 125.801 25.4983 125.595 25.567C125.595 25.567 125.526 25.6357 125.595 25.6357C125.595 25.7045 125.664 25.9107 125.664 26.1168C125.664 26.1856 125.732 26.2543 125.801 26.2543C126.007 26.2543 126.145 26.323 126.42 26.323C126.488 26.323 126.488 26.323 126.557 26.323C126.488 26.4605 126.488 26.5979 126.488 26.8041C126.488 26.8729 126.488 26.8729 126.557 26.8729C126.763 27.079 127.176 27.4227 127.382 27.6289C127.863 28.1787 128.207 28.4536 128.894 30.4467C128.894 30.5155 129.031 30.5155 129.1 30.5842C129.787 30.7217 129.787 31.2715 129.719 31.4089C129.719 31.4089 129.719 31.4089 129.719 31.4777C129.719 31.6838 129.787 31.8213 129.787 31.89C129.787 31.89 129.787 31.9588 129.856 31.9588H131.231C131.299 31.9588 131.299 31.89 131.299 31.89C131.025 31.4089 130.887 31.2027 130.75 31.0653C130.612 30.9966 130.2 30.9278 130.062 30.5842C129.994 30.4467 129.994 30.378 130.062 30.2406C130.062 30.1718 129.994 29.9656 129.994 29.8969C129.1 28.866 128.482 27.4227 128.344 27.079C128.344 27.0103 128.344 27.0103 128.344 27.0103C128.344 27.0103 128.344 27.0103 128.413 27.0103C128.688 26.8729 128.894 26.7354 129.238 26.4605C129.375 26.3918 129.444 26.323 129.512 26.2543C130.475 25.567 130.956 24.9485 131.299 24.2612C131.506 23.8488 131.643 23.0928 131.574 22.6804C131.506 22.268 131.299 21.9244 131.162 21.7182C131.162 21.7182 131.162 21.6495 131.231 21.7182C131.574 21.9244 131.849 22.8179 131.918 22.9553C131.918 22.9553 133.018 23.7801 137.279 23.7801C137.416 23.7801 137.554 23.7801 137.691 23.7801C137.76 23.7801 137.897 23.7801 137.966 23.7113C137.897 23.6426 137.76 23.5739 137.691 23.5052C137.416 23.2302 137.21 22.8866 137.073 22.4742C137.004 22.268 136.935 21.8557 136.935 21.6495C136.935 21.512 137.004 21.512 137.004 21.6495C137.073 21.8557 137.073 22.1306 137.21 22.3368C137.348 22.6804 137.485 22.9553 137.76 23.1615C137.966 23.3677 138.241 23.6426 138.585 23.7801C138.653 23.8488 138.722 23.8488 138.86 23.9175C140.234 24.5361 141.196 24.8797 142.159 25.2921C142.159 25.2921 142.227 25.3608 142.227 25.4296C142.227 25.4296 142.227 25.567 142.227 25.7732C142.227 25.8419 142.159 25.9107 142.159 25.9107C141.403 26.8041 140.99 27.2165 140.165 27.9038C140.097 27.9725 140.028 28.0412 140.028 28.1787C140.028 28.3849 140.097 28.4536 140.097 28.5911C140.097 28.7285 140.028 28.7285 139.959 28.7285C139.822 28.6598 139.616 28.5911 139.409 28.5223C139.341 28.5223 139.341 28.5223 139.272 28.5911L138.653 29.7594C138.653 29.8282 138.653 29.8969 138.722 29.8969C138.997 29.8282 139.341 29.8282 139.547 29.7594C139.891 29.6907 139.891 29.3471 140.509 29.2096C140.578 29.2096 140.715 29.2096 140.853 29.0722C140.921 28.9347 141.128 28.5911 141.265 28.3162C141.471 28.0412 141.54 27.8351 141.609 27.7663C142.021 27.2165 142.09 27.1478 143.189 25.9794L143.258 25.8419C143.258 25.6357 143.327 25.3608 143.327 25.0859C143.327 24.9485 143.258 24.8797 143.258 24.811C143.258 24.811 143.052 24.6048 143.052 24.5361C142.227 23.9863 141.471 23.0241 141.196 22.7491L141.265 22.6804C141.265 22.6804 141.265 22.6804 141.334 22.6117C141.54 22.4055 141.746 22.1306 141.884 21.8557C142.708 20.2749 142.227 18.488 141.54 16.9759C139.891 13.6082 140.097 12.2337 140.097 12.2337C140.647 12.3711 141.059 12.0275 141.471 11.9588H142.502C142.571 12.0275 142.708 12.1649 142.777 12.2337C142.846 12.2337 142.915 12.2337 142.983 12.2337C143.052 12.2337 143.189 12.165 143.327 12.0962L143.533 12.0275C143.533 12.0275 143.602 12.0275 143.602 11.9588C143.671 11.89 143.739 11.7526 143.739 11.6839V11.6151C143.602 11.6151 143.327 11.5464 143.258 11.5464C143.189 11.5464 143.189 11.3402 143.258 11.3402C143.396 11.3402 143.739 11.4089 143.808 11.4089H143.877C143.877 11.3402 143.945 11.2028 144.014 11.134C143.671 11.3402 143.671 11.2715 143.602 11.2028ZM140.44 10.1718C140.234 10.1718 140.234 10.2406 140.234 10.2406C140.234 10.3093 140.303 10.378 140.44 10.4467C140.234 10.4467 140.165 10.378 139.959 10.1718C140.097 10.0344 140.234 9.96564 140.44 9.96564C140.715 9.96564 140.784 10.3093 140.784 10.3093C140.784 10.3093 140.509 10.2406 140.44 10.1718Z" fill="white"/>
</svg>
