<svg width="131" height="40" viewBox="0 0 131 40" fill="none" xmlns="http://www.w3.org/2000/svg">
<g clip-path="url(#clip0_407_166)">
<path d="M0 11.4233H119.549V39.9998H0V11.4233Z" fill="#E6332A"/>
<path d="M30.5759 30.4439C30.539 30.2659 30.3507 30.1893 30.2007 30.2625C29.3836 30.6758 28.4657 30.8845 27.4705 30.8845C24.3651 30.8845 23.2643 29.4958 23.2643 25.5785C23.2643 21.9294 24.3892 20.5725 27.4168 20.5725C28.3687 20.5725 29.4008 20.7754 30.1791 21.1177C30.3379 21.1877 30.5141 21.0866 30.5438 20.9168L30.7015 19.9023C30.7208 19.7857 30.6579 19.6708 30.5527 19.6227C29.8811 19.3126 28.5703 18.9983 27.364 18.9983C23.3386 18.9983 21.543 21.0278 21.543 25.5781C21.543 30.3367 23.3278 32.4586 27.3288 32.4586C28.6288 32.4586 29.8869 32.0565 30.6317 31.6801C30.7372 31.6262 30.7936 31.5082 30.7693 31.3943L30.5759 30.4439ZM41.368 19.1983H33.5927C33.4481 19.1983 33.3308 19.3163 33.3308 19.4604V31.9635C33.3308 32.1093 33.4481 32.2265 33.5927 32.2265H34.7541C34.8988 32.2265 35.016 32.1097 35.016 31.9635V26.3086H40.3473C40.492 26.3086 40.6102 26.1906 40.6102 26.0463V25.0462C40.6102 24.9016 40.492 24.7842 40.3471 24.7842H35.0158V20.7901H41.3676C41.5081 20.7901 41.6303 20.6777 41.6303 20.5197V19.4507C41.6251 19.3099 41.5089 19.1985 41.3674 19.1985L41.368 19.1983ZM52.8329 25.1329H51.6781C51.5335 25.1329 51.4152 25.251 51.4152 25.3953V30.482C50.7012 30.7379 49.9255 30.8678 48.9924 30.8678C45.8361 30.8678 44.717 29.5265 44.717 25.7452C44.717 21.901 45.8633 20.5386 49.0982 20.5386C50.187 20.5386 51.2309 20.7406 52.1988 21.1357C52.3578 21.203 52.5313 21.0984 52.5591 20.9344L52.7177 19.9188C52.7364 19.8 52.6727 19.6836 52.5591 19.6358C51.6169 19.2428 50.271 18.9991 49.0451 18.9991C44.8046 18.9991 42.9953 21.022 42.9953 25.7624C42.9953 30.457 44.794 32.4594 49.0098 32.4594C50.4155 32.4594 51.9228 32.1764 52.9452 31.7016C53.0361 31.6587 53.0956 31.5664 53.0956 31.4645V25.3957C53.0956 25.2507 52.9773 25.1331 52.8331 25.1331L52.8329 25.1329ZM67.6103 25.3023C68.537 24.7867 69.0413 23.8169 69.0413 22.5282C69.0413 20.3174 67.7172 19.1981 65.1032 19.1981H60.4705C60.3261 19.1981 60.2078 19.3161 60.2078 19.4602V31.9633C60.2078 32.1091 60.3261 32.2263 60.4705 32.2263H65.3672C68.1784 32.2263 69.6044 30.9603 69.6044 28.4641C69.6044 26.8542 68.934 25.793 67.6103 25.3023ZM61.9175 20.7063H65.0669C66.7297 20.7063 67.408 21.2866 67.408 22.7116C67.408 24.0906 66.709 24.7335 65.2074 24.7335H61.9171V20.7063H61.9175ZM65.3834 30.7353H61.8999V26.1568H65.3139C67.1274 26.1568 67.9357 26.8426 67.9357 28.379C67.9357 30.0302 67.1726 30.7353 65.3834 30.7353ZM77.7548 19.3645C77.7158 19.2631 77.6191 19.1979 77.5104 19.1979H76.1379C76.0296 19.1979 75.9339 19.2629 75.8951 19.3631L70.8809 31.8656C70.8089 32.0461 70.9465 32.2254 71.1252 32.2254H72.375C72.4833 32.2254 72.5821 32.1571 72.6205 32.0571L73.8052 28.9256H79.7914L80.9761 32.0559C81.0155 32.159 81.111 32.2252 81.2226 32.2252H82.5243C82.7049 32.2252 82.8398 32.0403 82.7671 31.8666L77.7551 19.3645H77.7548ZM74.3913 27.4178L76.5974 21.6484L76.8282 20.9982L77.053 21.6525L79.2238 27.4178H74.3917H74.3913ZM94.6048 19.1983H93.5094C93.3583 19.1983 93.2541 19.3188 93.2541 19.4604V28.6868L93.2769 29.1999L92.9683 28.7465L86.37 19.308C86.3202 19.2376 86.2413 19.1983 86.1563 19.1983H84.9534C84.8091 19.1983 84.6908 19.3163 84.6908 19.4604V31.9635C84.6908 32.1093 84.8087 32.2265 84.9536 32.2265H86.0695C86.2142 32.2265 86.3318 32.1097 86.3318 31.9635V22.5246L86.3252 21.9759L86.6458 22.446L93.4718 32.1184C93.5216 32.1855 93.6005 32.2261 93.6845 32.2261H94.6056C94.7513 32.2261 94.8692 32.1097 94.8692 31.9637V19.4604C94.8684 19.3163 94.7509 19.1983 94.6052 19.1983H94.6048ZM108.312 31.8004L103.221 25.3661L108.008 19.6285C108.145 19.4679 108.042 19.1979 107.808 19.1979H106.365C106.287 19.1979 106.213 19.2331 106.164 19.2931L101.759 24.5993H99.8734V19.4602C99.8734 19.3163 99.7563 19.1979 99.6113 19.1979H98.449C98.3044 19.1979 98.1869 19.3159 98.1869 19.4602V31.9633C98.1869 32.1089 98.304 32.2259 98.4488 32.2259H99.611C99.7559 32.2259 99.8734 32.1093 99.8734 31.9633V26.2394H101.734L106.386 32.1232C106.434 32.1886 106.511 32.2254 106.594 32.2254H108.107C108.334 32.2254 108.445 31.9695 108.312 31.8004Z" fill="white"/>
<path d="M107.143 11.4233C106.848 20.7736 114.471 25.6791 119.548 25.6224V11.4233H107.143Z" fill="#E6332A"/>
<path d="M107.155 11.4233C106.863 20.7409 114.458 25.6489 119.549 25.5926V11.4237H107.154L107.155 11.4233Z" fill="#E5332A"/>
<path d="M107.164 11.4233C106.875 20.7077 114.444 25.6183 119.548 25.5624V11.4233H107.164Z" fill="#E4332A"/>
<path d="M107.174 11.4233C106.888 20.6754 114.43 25.588 119.548 25.5326V11.4237H107.174V11.4233Z" fill="#E3332A"/>
<path d="M107.185 11.4233C106.903 20.6425 114.418 25.5574 119.549 25.5027V11.4233H107.185Z" fill="#E23329"/>
<path d="M107.195 11.4233C106.916 20.61 114.404 25.5268 119.548 25.4729V11.4233H107.195Z" fill="#E13229"/>
<path d="M107.205 11.4233C106.929 20.5773 114.39 25.4963 119.548 25.4431V11.4233H107.204H107.205Z" fill="#E03229"/>
<path d="M107.216 11.4237C106.944 20.5446 114.378 25.4659 119.549 25.4131V11.4237H107.216Z" fill="#DF3229"/>
<path d="M107.226 11.4233C106.957 20.5118 114.364 25.4354 119.549 25.3831V11.4233H107.226Z" fill="#DE3228"/>
<path d="M107.236 11.4233C106.969 20.4789 114.35 25.4046 119.548 25.3528V11.4233H107.236Z" fill="#DD3228"/>
<path d="M107.245 11.4233C106.982 20.4464 114.336 25.3744 119.547 25.323V11.4233H107.245Z" fill="#DC3128"/>
<path d="M107.257 11.4233C106.997 20.4137 114.324 25.3437 119.549 25.2932V11.4233H107.257Z" fill="#DB3128"/>
<path d="M107.266 11.4233C107.01 20.381 114.31 25.3133 119.549 25.2634V11.4237H107.266V11.4233ZM107.277 11.4233C107.023 20.3483 114.296 25.2828 119.548 25.2336V11.4233H107.277Z" fill="#DA3127"/>
<path d="M107.288 11.4233C107.037 20.3153 114.284 25.2522 119.548 25.2035V11.4233H107.288Z" fill="#D93127"/>
<path d="M107.297 11.4233C107.051 20.2826 114.27 25.2216 119.548 25.1739V11.4233H107.297Z" fill="#D83027"/>
<path d="M107.307 11.4233C107.063 20.2501 114.256 25.1913 119.547 25.1437V11.4233H107.307Z" fill="#D73026"/>
<path d="M107.318 11.4233C107.078 20.2174 114.244 25.1609 119.549 25.1139V11.4233H107.318Z" fill="#D63026"/>
<path d="M107.328 11.4233C107.091 20.1847 114.23 25.1304 119.548 25.0841V11.4233H107.328Z" fill="#D53026"/>
<path d="M107.338 11.4233C107.104 20.1518 114.216 25.0998 119.548 25.0538V11.4233H107.338Z" fill="#D43026"/>
<path d="M107.349 11.4233C107.118 20.1193 114.203 25.0694 119.549 25.0242V11.4233H107.349Z" fill="#D33026"/>
<path d="M107.359 11.4233C107.131 20.0866 114.189 25.0387 119.548 24.9944V11.4233H107.359Z" fill="#D22F25"/>
<path d="M107.369 11.4233C107.144 20.0538 114.175 25.0083 119.548 24.9642V11.4233H107.369Z" fill="#D12F25"/>
<path d="M107.38 11.4233C107.159 20.0207 114.164 24.9776 119.549 24.9344V11.4233H107.38Z" fill="#D02F25"/>
<path d="M107.39 11.4233C107.171 19.9882 114.149 24.947 119.548 24.9043V11.4233H107.39Z" fill="#CF2F25"/>
<path d="M107.399 11.4233C107.185 19.9557 114.135 24.9168 119.548 24.8745V11.4233H107.399Z" fill="#CE2F24"/>
<path d="M107.411 11.4233C107.199 19.923 114.123 24.8861 119.549 24.8447V11.4233H107.411Z" fill="#CD2E24"/>
<path d="M107.421 11.4233C107.212 19.8903 114.11 24.8557 119.549 24.8149V11.4233H107.421Z" fill="#CC2E24"/>
<path d="M107.43 11.4233C107.226 19.8571 114.095 24.8252 119.548 24.7847V11.4233H107.43Z" fill="#CB2E24"/>
<path d="M107.442 11.4233C107.24 19.8246 114.083 24.795 119.549 24.7551V11.4233H107.442Z" fill="#CA2E23"/>
<path d="M107.452 11.4233C107.253 19.7919 114.069 24.7644 119.549 24.725V11.4237H107.451L107.452 11.4233Z" fill="#C92E23"/>
<path d="M107.461 11.4233C107.266 19.7594 114.055 24.7337 119.548 24.6952V11.4233H107.461H107.461Z" fill="#C82E23"/>
<path d="M107.473 11.4233C107.28 19.7267 114.043 24.7033 119.549 24.6652V11.4233H107.473Z" fill="#C72D23"/>
<path d="M107.482 11.4233C107.294 19.6938 114.029 24.6729 119.549 24.6356V11.4233H107.482H107.482Z" fill="#C62D22"/>
<path d="M107.492 11.4233C107.306 19.6611 114.015 24.6422 119.548 24.6056V11.4233H107.492Z" fill="#C52D22"/>
<path d="M107.502 11.4233C107.319 19.6283 114.001 24.6116 119.548 24.5755V11.4233H107.502Z" fill="#C42D22"/>
<path d="M107.513 11.4233C107.334 19.5958 113.989 24.5811 119.549 24.5457V11.4233H107.513Z" fill="#C32D22"/>
<path d="M107.523 11.4233C107.347 19.5631 113.975 24.5507 119.548 24.5155V11.4233H107.523Z" fill="#C22C21"/>
<path d="M107.533 11.4233C107.36 19.5302 113.961 24.5203 119.548 24.4859V11.4233H107.533Z" fill="#C12C21"/>
<path d="M107.544 11.4233C107.375 19.4977 113.949 24.4896 119.549 24.4554V11.4233H107.544H107.544Z" fill="#C02C21"/>
<path d="M107.554 11.4233C107.387 19.4648 113.935 24.4592 119.548 24.426V11.4233H107.554Z" fill="#BF2C21"/>
<path d="M107.564 11.4233C107.4 19.4323 113.921 24.4285 119.548 24.396V11.4233H107.564Z" fill="#BE2C20"/>
<path d="M107.575 11.4233C107.415 19.3995 113.909 24.3981 119.549 24.3664V11.4233H107.575Z" fill="#BD2B20"/>
<path d="M107.585 11.4233C107.428 19.3666 113.895 24.3677 119.549 24.3362V11.4233H107.585Z" fill="#BC2B20"/>
<path d="M107.594 11.4233C107.441 19.3339 113.881 24.3374 119.549 24.3064V11.4233H107.594Z" fill="#BB2B20"/>
<path d="M107.604 11.4233C107.453 19.3014 113.867 24.3068 119.548 24.2763V11.4233H107.604Z" fill="#BA2B20"/>
<path d="M107.616 11.4233C107.468 19.2687 113.855 24.2761 119.549 24.2463V11.4233H107.616Z" fill="#B92B1F"/>
<path d="M107.625 11.4233C107.481 19.2356 113.841 24.2457 119.548 24.2167V11.4233H107.625Z" fill="#B82B1F"/>
<path d="M107.635 11.4233C107.494 19.203 113.827 24.2153 119.548 24.1867V11.4237H107.635V11.4233Z" fill="#B72A1F"/>
<path d="M107.647 11.4233C107.509 19.1705 113.815 24.1846 119.55 24.1569V11.4233H107.647Z" fill="#B62A1F"/>
<path d="M107.656 11.4233C107.522 19.1378 113.801 24.1542 119.549 24.1271V11.4233H107.656Z" fill="#B52A1E"/>
<path d="M107.666 11.4233C107.535 19.1051 113.786 24.1237 119.548 24.0972V11.4233H107.666Z" fill="#B42A1E"/>
<path d="M107.678 11.4233C107.55 19.072 113.775 24.0931 119.549 24.067V11.4233H107.678Z" fill="#B32A1E"/>
<path d="M107.687 11.4233C107.563 19.0395 113.761 24.0627 119.549 24.0372V11.4233H107.687Z" fill="#B2291E"/>
<path d="M107.697 11.4233C107.576 19.0068 113.747 24.0322 119.548 24.007V11.4233H107.697Z" fill="#B1291D"/>
<path d="M107.707 11.4233C107.589 18.974 113.733 24.0016 119.548 23.9771V11.4233H107.707Z" fill="#B0291D"/>
<path d="M107.718 11.4233C107.603 18.9415 113.721 23.9709 119.549 23.9473V11.4233H107.718Z" fill="#AF291D"/>
<path d="M107.728 11.4233C107.616 18.9084 113.707 23.9407 119.548 23.9175V11.4237H107.728V11.4233Z" fill="#AE291D"/>
<path d="M107.738 11.4233C107.629 18.8759 113.693 23.9101 119.548 23.8875V11.4233H107.738Z" fill="#AD291C"/>
<path d="M107.747 11.4233C107.642 18.8432 113.679 23.8798 119.548 23.8577V11.4233H107.747Z" fill="#AC281C"/>
<path d="M107.759 11.4233C107.657 18.8105 113.667 23.8492 119.549 23.8281V11.4233H107.759Z" fill="#AB281C"/>
<path d="M107.769 11.4233C107.67 18.778 113.653 23.8185 119.548 23.798V11.4233H107.769Z" fill="#AA281C"/>
<path d="M107.778 11.4233C107.683 18.7448 113.639 23.7881 119.548 23.768V11.4233H107.778Z" fill="#A9281B"/>
<path d="M107.79 11.4233C107.698 18.7123 113.627 23.7577 119.549 23.7382V11.4233H107.79H107.79Z" fill="#A8281B"/>
<path d="M107.8 11.4233C107.711 18.6796 113.613 23.727 119.549 23.708V11.4233H107.8Z" fill="#A7271B"/>
<path d="M107.81 11.4233C107.724 18.6469 113.599 23.6964 119.548 23.6784V11.4233H107.81Z" fill="#A6271B"/>
<path d="M107.821 11.4233C107.739 18.6144 113.587 23.6661 119.55 23.6483V11.4237H107.821L107.821 11.4233Z" fill="#A5271A"/>
<path d="M107.831 11.4233C107.751 18.5813 113.573 23.6355 119.549 23.6183V11.4233H107.831Z" fill="#A4271A"/>
<path d="M107.841 11.4233C107.764 18.5487 113.559 23.6051 119.548 23.5885V11.4233H107.841Z" fill="#A3271A"/>
<path d="M107.85 11.4233C107.777 18.516 113.545 23.5746 119.548 23.5583V11.4233H107.85Z" fill="#A2261A"/>
<path d="M107.862 11.4233C107.792 18.4833 113.533 23.5444 119.549 23.5287V11.4233H107.862Z" fill="#A1261A"/>
<path d="M107.872 11.4233C107.805 18.4508 113.519 23.5133 119.549 23.4988V11.4233H107.872Z" fill="#A02619"/>
<path d="M107.881 11.4233C107.818 18.4177 113.505 23.4831 119.548 23.469V11.4233H107.881Z" fill="#9F2619"/>
<path d="M107.893 11.4233C107.833 18.3852 113.493 23.4527 119.55 23.4388V11.4233H107.893Z" fill="#9E2619"/>
<path d="M107.903 11.4233C107.846 18.3525 113.479 23.4222 119.549 23.4092V11.4233H107.903Z" fill="#9D2619"/>
<path d="M107.912 11.4233C107.859 18.3197 113.465 23.3916 119.548 23.3792V11.4237H107.912V11.4233Z" fill="#9C2518"/>
<path d="M107.922 11.4233C107.872 18.2868 113.452 23.3609 119.549 23.3493V11.4233H107.922Z" fill="#9B2518"/>
<path d="M107.934 11.4233C107.887 18.2541 113.44 23.3305 119.55 23.3195V11.4233H107.934Z" fill="#9A2518"/>
<path d="M107.944 11.4233C107.899 18.2216 113.425 23.2997 119.549 23.2897V11.4233H107.944Z" fill="#992518"/>
<path d="M107.953 11.4233C107.912 18.1889 113.412 23.2694 119.548 23.2597V11.4233H107.953Z" fill="#982517"/>
<path d="M107.963 11.4233C107.925 18.1562 113.398 23.2388 119.548 23.2297V11.4233H107.963Z" fill="#972417"/>
<path d="M107.975 11.4233C107.94 18.1232 113.385 23.2085 119.549 23.1999V11.4233H107.975Z" fill="#962417"/>
<path d="M107.985 11.4233C107.953 18.0905 113.372 23.1779 119.549 23.1696V11.4233H107.985Z" fill="#952417"/>
<path d="M107.994 11.4233C107.966 18.058 113.358 23.1475 119.548 23.14V11.4233H107.994Z" fill="#942416"/>
<path d="M108.006 11.4233C107.981 18.0253 113.346 23.117 119.549 23.1096V11.4233H108.006Z" fill="#932416"/>
<path d="M108.016 11.4233C107.994 17.9926 113.332 23.0864 119.549 23.0802V11.4233H108.016Z" fill="#922316"/>
<path d="M108.025 11.4233C108.007 17.9601 113.318 23.0557 119.548 23.0502V11.4233H108.025Z" fill="#912316"/>
<path d="M108.035 11.4233C108.02 17.927 113.305 23.0255 119.549 23.0205V11.4233H108.035H108.035Z" fill="#902315"/>
<path d="M108.045 11.4233C108.033 17.8944 113.29 22.9949 119.548 22.9903V11.4233H108.045Z" fill="#8F2315"/>
<path d="M108.057 11.4233C108.048 17.8617 113.278 22.9646 119.549 22.9605V11.4233H108.057Z" fill="#8E2315"/>
<path d="M108.066 11.4233C108.061 17.829 113.264 22.934 119.549 22.9305V11.4233H108.066Z" fill="#8D2315"/>
<path d="M108.076 11.4233C108.074 17.7965 113.251 22.9036 119.548 22.9004V11.4233H108.076Z" fill="#8C2214"/>
<path d="M108.086 11.4233C108.087 17.7634 113.237 22.8729 119.548 22.8706V11.4233H108.086Z" fill="#8B2214"/>
<path d="M108.098 11.4233C108.102 17.7309 113.225 22.8425 119.55 22.8408V11.4237H108.098V11.4233Z" fill="#8A2214"/>
<path d="M131.001 11.4171C131.005 17.7255 125.882 22.8412 119.556 22.8472C113.231 22.8493 108.102 17.7371 108.098 11.4301C108.097 5.12051 113.219 0.00414364 119.542 2.51359e-06C125.867 -0.00413862 130.997 5.10912 131.001 11.4171Z" fill="#E6332A"/>
<path d="M119.541 1.43366C114.011 1.4378 109.531 5.91125 109.533 11.4283C109.536 16.9463 114.021 21.4163 119.554 21.4152C125.085 21.4103 129.567 16.9366 129.563 11.4175C129.559 5.90256 125.072 1.42993 119.541 1.43366ZM119.554 20.7988C114.363 20.8009 110.152 16.6045 110.15 11.4285C110.147 6.25062 114.353 2.05234 119.542 2.04841C124.732 2.04634 128.943 6.24192 128.946 11.4185C128.948 16.597 124.744 20.7951 119.554 20.7988H119.554Z" fill="white"/>
<path d="M125.708 16.1885C125.647 15.6626 124.058 15.1263 123.867 15.2982C123.702 15.4489 123.521 16.1351 123.454 16.7894C123.276 16.9509 123.025 17.1842 122.97 17.2662C122.925 17.3352 123.019 17.4774 123.12 17.5996C122.99 17.7247 122.828 17.8398 122.565 18.0485C121.387 18.9827 120.498 18.2504 120.217 17.6213C119.535 16.0974 119.723 12.7878 119.638 12.7969C119.561 12.8021 119.364 13.0943 119.327 13.2949C119.186 14.0455 119.167 16.1454 119.342 17.4184C119.429 18.0624 119.617 19.1525 120.317 19.4985C121.021 19.8428 121.814 19.8391 122.566 19.1879C123.018 18.7956 123.314 18.469 123.611 17.8199C123.951 17.823 124.503 17.7998 124.88 17.6364C125.46 17.3869 125.768 16.713 125.708 16.1885H125.708ZM123.912 16.9981C123.927 16.6206 123.999 16.1699 124.114 16.1564C124.259 16.1403 124.899 16.3838 125.032 16.6848C125.032 16.6848 124.597 17.0799 123.911 16.9975L123.912 16.9981ZM126.685 15.6775C126.351 14.8652 125.765 14.4128 125.091 14.0324C123.958 13.3914 120.945 11.6774 119.958 11.1177C119.866 10.1729 119.913 6.08974 119.89 5.33295C119.871 4.59334 119.848 4.24259 119.989 3.79037C120.146 3.28785 120.431 2.96505 120.331 2.89589C120.228 2.82508 120.066 2.90562 119.928 3.07396C119.373 3.75393 119.254 4.48401 119.241 5.25675C119.217 6.55292 119.145 10.0046 119.12 11.1423C118.418 11.6357 114.802 13.843 114.134 14.2312C113.491 14.6033 113.194 14.7898 112.728 14.8826C112.211 14.9861 111.791 14.8898 111.778 15.0099C111.765 15.1342 111.912 15.2365 112.128 15.2787C112.992 15.4381 113.69 15.1944 114.378 14.8385C115.554 14.2271 118.622 12.3455 119.566 11.8581C120.409 12.2052 124.031 14.2211 124.712 14.5664C125.376 14.9002 125.695 15.0485 126.025 15.3889C126.395 15.7657 126.543 16.1688 126.651 16.1142C126.762 16.0572 126.767 15.8781 126.685 15.6779V15.6775ZM118.706 16.1011C118.63 15.9587 117.932 16.533 117.81 16.7169C117.689 16.9033 117.778 17.9764 117.778 17.9764C117.778 17.9764 117.588 18.6363 115.895 17.6642C114.461 16.8401 114.731 16.1713 115.218 15.6847C115.708 15.1996 116.211 15.0981 116.11 14.8565C116.047 14.7012 115.833 14.7654 115.269 15.0874C114.701 15.4096 113.794 16.0489 113.764 16.8283C113.736 17.6089 114.218 18.5055 116.014 19.0631C117.801 19.6169 118.366 18.2224 118.539 17.7276C118.806 16.965 118.742 16.1686 118.706 16.1011ZM117.302 15.6328C117.168 15.5541 116.537 15.8057 116.495 15.9558C116.452 16.1073 116.564 16.702 116.696 16.7579C116.826 16.8138 117.5 16.5736 117.55 16.4618C117.596 16.3624 117.421 15.7046 117.302 15.6328ZM118.032 10.2381C117.45 9.77327 115.55 8.77423 114.346 8.34769C113.736 8.1309 112.683 7.79795 112.013 8.25203C111.294 8.73923 111.064 9.79253 111.461 10.7048C111.572 10.9574 111.697 11.162 111.833 11.3274C111.668 11.6235 111.432 12.1053 111.394 12.5043C111.336 13.1317 111.779 13.7243 112.272 13.9248C112.762 14.125 113.997 12.9922 113.936 12.7418C113.885 12.5253 113.37 12.0364 112.827 11.6658C112.769 11.4308 112.684 11.0991 112.639 11.0115C112.605 10.9479 112.469 10.95 112.331 10.9717C112.28 10.811 112.242 10.6164 112.247 10.3961C112.275 9.05748 113.01 8.97735 113.708 9.01814C115.4 9.11752 118.27 10.8104 118.309 10.733C118.331 10.6845 118.237 10.3988 118.032 10.2381ZM112.423 11.9643C112.746 12.159 113.106 12.4364 113.063 12.5462C113.01 12.6803 112.488 13.1239 112.159 13.0938C112.159 13.0938 112.021 12.5228 112.423 11.9643ZM127.835 10.3342C127.281 8.36405 125.735 8.97383 125.182 9.15438C124.957 9.22768 123.475 9.87245 121.851 10.3491C122.781 9.818 123.948 8.92331 124.713 8.26404C125.208 7.83957 126.024 7.09003 125.932 6.31481C125.835 5.48368 124.994 4.8209 123.966 4.74822C123.697 4.72958 123.454 4.73248 123.216 4.76188C123.173 4.39539 122.945 4.01027 122.687 3.76946C122.241 3.34872 121.478 3.18246 121.046 3.45349C120.661 3.69472 120.566 5.35303 120.79 5.47685C120.988 5.58659 121.695 5.53731 122.339 5.38947C122.549 5.50542 122.903 5.57168 122.998 5.5986C123.093 5.62427 123.125 5.52551 123.215 5.37353C123.341 5.39506 123.537 5.43068 123.709 5.48534C125.282 5.99573 124.784 6.84156 124.407 7.42049C123.509 8.80508 120.866 10.5236 120.741 10.6251C120.741 10.6251 120.741 10.6272 120.738 10.628V10.6297C120.721 10.6435 120.714 10.6613 120.721 10.6901C120.754 10.8848 122.154 10.9643 123.878 10.3327C125.123 9.87929 125.706 9.72875 126.071 9.68465C126.218 9.66767 126.667 9.88757 126.723 11.1955C126.796 12.847 126.051 13.0773 125.376 12.9338C124.701 12.7874 124.343 12.4207 124.194 12.6383C124.099 12.7741 124.267 12.9172 124.847 13.2166C125.426 13.5154 126.456 13.9293 127.126 13.5289C127.799 13.1284 128.341 12.1416 127.835 10.3346L127.835 10.3342ZM121.527 4.96811C121.463 4.83684 121.426 4.08709 121.67 3.86243C121.67 3.86243 122.319 4.1784 122.39 4.89109C122.027 4.99586 121.577 5.07288 121.527 4.96811ZM118.655 4.33307C118.646 4.25439 118.563 4.1432 118.259 3.8879C117.548 3.28785 116.386 3.16465 115.542 4.03139C115.161 4.42169 115.001 4.69852 114.909 5.14846C114.574 5.20436 114.105 5.31493 113.794 5.51329C113.263 5.85121 113.065 6.56576 113.21 7.07657C113.355 7.58551 115.01 7.86028 115.169 7.65985C115.31 7.48302 115.377 6.77861 115.338 6.12204C115.487 5.93403 115.722 5.68515 115.761 5.59404C115.792 5.52944 115.703 5.42012 115.594 5.31969C115.73 5.06978 115.922 4.86003 116.388 4.5921C116.963 4.26495 117.68 4.20035 118.271 4.4132C118.453 4.47904 118.554 4.49602 118.616 4.44964C118.654 4.42128 118.658 4.37448 118.655 4.33307H118.655ZM114.726 6.84591C114.581 6.89105 113.871 6.76226 113.675 6.47486C113.675 6.47486 114.054 5.98414 114.776 5.94107C114.829 6.33282 114.843 6.80905 114.726 6.84591Z" fill="white"/>
</g>
<defs>
<clipPath id="clip0_407_166">
<rect width="131" height="40" fill="white"/>
</clipPath>
</defs>
</svg>
