<svg width="324" height="40" viewBox="0 0 324 40" fill="none" xmlns="http://www.w3.org/2000/svg">
<path d="M70.0746 19.7791C70.0732 21.1323 69.9336 22.4819 69.6579 23.807C69.2236 25.8899 68.4533 27.8889 67.3769 29.726C67.2672 29.9117 67.1575 30.0976 67.037 30.2724C65.258 33.1164 62.7815 35.4618 59.8411 37.0873C56.9008 38.7128 53.5934 39.565 50.2311 39.5635H19.8435C17.2376 39.5635 14.6572 39.0519 12.2497 38.0579C9.84221 37.0639 7.65467 35.6071 5.81203 33.7703C3.96939 31.9337 2.50773 29.7533 1.5105 27.3536C0.513271 24.9539 0 22.3819 0 19.7845C0 17.1871 0.513271 14.6151 1.5105 12.2154C2.50773 9.8157 3.96939 7.63525 5.81203 5.79861C7.65467 3.96195 9.84221 2.50504 12.2497 1.51105C14.6572 0.517065 17.2376 0.00547058 19.8435 0.00547066H30.4424V9.29653H19.8435C17.05 9.29653 14.3708 10.4026 12.3954 12.3715C10.4201 14.3405 9.3104 17.0109 9.3104 19.7954C9.3104 22.5799 10.4201 25.2504 12.3954 27.2192C14.3708 29.1881 17.05 30.2943 19.8435 30.2943H50.2256C52.5046 30.2944 54.7221 29.5569 56.5445 28.1929C58.3669 26.8288 59.6957 24.9119 60.331 22.7303C60.8092 21.0771 60.8769 19.3327 60.5284 17.6475C60.0347 15.2878 58.741 13.1695 56.8647 11.6486C54.9884 10.1278 52.644 9.29726 50.2256 9.29653H44.3476V25.7252H35.0263V0H50.2201C53.5808 0.00716351 56.8849 0.863081 59.8237 2.48783C62.7626 4.11259 65.2405 6.45318 67.026 9.29107C67.2746 9.67731 67.5049 10.0707 67.7168 10.4715C68.8021 12.4861 69.5258 14.6742 69.8553 16.9371C69.9976 17.8778 70.0709 18.8276 70.0746 19.7791Z" fill="white"/>
<path d="M139.722 19.8062V39.5306H130.4V19.8062C130.4 17.0217 129.29 14.3512 127.315 12.3824C125.34 10.4134 122.66 9.30726 119.867 9.30726C117.074 9.30726 114.394 10.4134 112.419 12.3824C110.444 14.3512 109.334 17.0217 109.334 19.8062V39.5306H100.012V19.8062C100.012 17.0217 98.9029 14.3512 96.9271 12.3824C94.9523 10.4134 92.2728 9.30726 89.4794 9.30726C86.6859 9.30726 84.0068 10.4134 82.0315 12.3824C80.0561 14.3512 78.9464 17.0217 78.9464 19.8062V39.5306H69.625V19.8062C69.6231 15.7478 70.8739 11.7872 73.2079 8.4618C75.5418 5.13642 78.8458 2.6074 82.6714 1.21801C86.4969 -0.171396 90.6586 -0.353872 94.5922 0.695338C98.5247 1.74455 102.039 3.97464 104.657 7.08289C107.276 3.97772 110.79 1.75048 114.723 0.703127C118.654 -0.344224 122.815 -0.16103 126.639 1.22788C130.463 2.61679 133.766 5.14422 136.1 8.46754C138.434 11.7908 139.687 15.7493 139.688 19.8062H139.722Z" fill="white"/>
<path d="M69.8043 7.81004L57.7656 19.8095L69.8043 31.809L81.8429 19.8095L69.8043 7.81004Z" fill="#E7004C"/>
<path d="M161.672 18.4181H158.535V20.9923H161.672V18.4181Z" fill="white"/>
<path d="M166.308 13.7296H154.404C154.029 13.7442 153.656 13.6809 153.307 13.5437C153.034 13.4268 152.796 13.2379 152.622 12.9972C152.447 12.7285 152.327 12.4275 152.271 12.1118C152.202 11.7241 152.169 11.3307 152.172 10.9368V9.76715H149.409V11.2428C149.396 12.0072 149.503 12.7689 149.727 13.5C149.909 14.0885 150.22 14.6297 150.637 15.085C151.018 15.5 151.491 15.8202 152.019 16.0196C152.575 16.2326 153.167 16.3383 153.763 16.3311H169.444V6.9471H166.308V13.7296Z" fill="white"/>
<path d="M194.75 0.584259H191.613V3.15843H194.75V0.584259Z" fill="white"/>
<path d="M228.029 13.7292H220.846C220.597 13.7314 220.348 13.7058 220.106 13.6528C219.874 13.6097 219.653 13.5246 219.453 13.4013C219.261 13.2845 219.097 13.1257 218.975 12.9368C218.844 12.726 218.778 12.4801 218.789 12.2317V11.6196C218.807 10.8006 218.652 9.98691 218.334 9.23125C218.056 8.57959 217.634 7.99864 217.101 7.53157C216.558 7.07576 215.929 6.73206 215.253 6.52049C213.756 6.06145 212.155 6.06145 210.658 6.52049C209.982 6.73096 209.356 7.07482 208.816 7.53157C208.278 7.9969 207.855 8.57821 207.576 9.23125C207.261 9.98737 207.107 10.8009 207.126 11.6196V12.2317C207.135 12.4808 207.069 12.7266 206.934 12.9368C206.815 13.1254 206.653 13.2843 206.463 13.4013C206.259 13.5246 206.034 13.6098 205.8 13.6528C205.561 13.7044 205.316 13.73 205.071 13.7292H200.448H199.532C199.187 13.7292 198.841 13.7292 198.507 13.7292H197.734V13.6199C198.234 13.1941 198.633 12.664 198.904 12.0671C199.175 11.4701 199.311 10.821 199.302 10.1658C199.317 9.54384 199.207 8.92517 198.979 8.34591C198.788 7.87156 198.485 7.44987 198.096 7.11621C197.696 6.78715 197.228 6.55014 196.726 6.42211C196.153 6.27088 195.563 6.19734 194.971 6.2035H185.984V6.59701C186.425 7.04306 186.782 7.56526 187.037 8.13823C187.338 8.78314 187.623 9.45538 187.897 10.144C188.172 10.8326 188.445 11.494 188.736 12.1224C188.97 12.6766 189.303 13.184 189.717 13.6199V13.7074H180.341C180.068 13.7067 179.795 13.6848 179.525 13.6418C179.257 13.6021 178.998 13.5131 178.763 13.3794C178.536 13.2477 178.346 13.0593 178.214 12.8329C178.06 12.5502 177.985 12.2309 178 11.9093V6.93038H174.842V15.9591C174.886 16.7956 174.759 17.6323 174.469 18.4185C174.358 18.6723 174.17 18.8857 173.933 19.0296C173.696 19.1733 173.419 19.2405 173.142 19.2219C172.913 19.2218 172.684 19.2035 172.456 19.1672C172.251 19.1297 172.055 19.0496 171.881 18.9322V21.2004C172.184 21.3266 172.5 21.4164 172.824 21.4681C173.163 21.5269 173.506 21.5561 173.849 21.5556C174.535 21.5795 175.215 21.4389 175.834 21.1457C176.354 20.8869 176.794 20.4921 177.106 20.0035C177.444 19.4632 177.676 18.8643 177.792 18.2381C177.939 17.4876 178.009 16.7239 178 15.9591V14.9261H178.088C178.176 15.1428 178.305 15.3411 178.466 15.5109C178.626 15.68 178.811 15.8238 179.015 15.9373C179.224 16.0559 179.447 16.1495 179.678 16.216C179.888 16.2791 180.106 16.3123 180.325 16.3143H205.208C205.785 16.3133 206.353 16.1607 206.853 15.8716C207.327 15.6165 207.725 15.2391 208.004 14.7786C208.51 15.5148 209.224 16.0852 210.055 16.4182C211.904 17.1249 213.951 17.1249 215.801 16.4182C216.634 16.0869 217.35 15.5163 217.857 14.7786C218.133 15.2403 218.528 15.6182 219.004 15.8716C219.503 16.1607 220.07 16.3133 220.648 16.3143H231.165V0.585144H228.029V13.7292ZM195.952 11.3299C195.816 11.7632 195.621 12.1753 195.371 12.5542C195.124 12.9199 194.812 13.2368 194.45 13.4888C194.099 13.7365 193.679 13.8684 193.249 13.8659C192.952 13.8645 192.667 13.749 192.454 13.5435C192.199 13.3097 191.986 13.0343 191.823 12.7291C191.628 12.3783 191.462 12.0128 191.324 11.6361C191.177 11.2371 191.034 10.849 190.897 10.4664C190.759 10.0838 190.617 9.7396 190.486 9.42255C190.389 9.16315 190.24 8.92666 190.046 8.72848H194.373C194.816 8.71691 195.254 8.8306 195.634 9.0564C195.811 9.16433 195.955 9.31772 196.051 9.50047C196.148 9.68323 196.193 9.88853 196.182 10.0948C196.171 10.516 196.094 10.9329 195.952 11.3299ZM215.351 12.751C215.253 13.0907 215.088 13.4081 214.869 13.6856C214.655 13.9516 214.383 14.1664 214.074 14.314C213.73 14.4727 213.355 14.553 212.977 14.5491C212.599 14.5543 212.223 14.474 211.881 14.314C211.571 14.1678 211.299 13.9528 211.085 13.6856C210.863 13.4085 210.698 13.0911 210.598 12.751C210.379 11.9959 210.379 11.1943 210.598 10.4392C210.7 10.0964 210.865 9.7757 211.085 9.49365C211.296 9.22107 211.569 9.00199 211.881 8.85418C212.224 8.69614 212.599 8.61766 212.977 8.62464C213.355 8.61896 213.73 8.69739 214.074 8.85418C214.385 9.00402 214.657 9.22279 214.869 9.49365C215.088 9.77606 215.251 10.0967 215.351 10.4392C215.57 11.1943 215.57 11.9959 215.351 12.751Z" fill="white"/>
<path d="M237.837 0.584259H234.701V16.3299H237.837V0.584259Z" fill="white"/>
<path d="M266.113 0.584259H262.977V3.15843H266.113V0.584259Z" fill="white"/>
<path d="M268.467 6.85873C267.931 6.39602 267.303 6.05146 266.625 5.84765C265.879 5.62374 265.105 5.51318 264.327 5.51972C263.55 5.51145 262.778 5.6296 262.04 5.86951C261.367 6.09056 260.745 6.44569 260.214 6.91338C259.693 7.38449 259.282 7.965 259.013 8.6131C258.711 9.34944 258.563 10.1402 258.581 10.9359C258.582 11.4605 258.708 11.9773 258.948 12.4443C259.159 12.8952 259.455 13.3015 259.82 13.6412V13.7287H251.891C251.517 13.7438 251.143 13.6805 250.795 13.5428C250.52 13.4259 250.284 13.237 250.109 12.9963C249.931 12.7289 249.812 12.4272 249.758 12.1109C249.688 11.7232 249.656 11.3298 249.659 10.9359V9.76624H246.874V11.2419C246.861 12.0063 246.968 12.768 247.192 13.4991C247.375 14.0876 247.685 14.6288 248.102 15.0841C248.482 15.4978 248.953 15.8178 249.478 16.0187C250.037 16.2312 250.63 16.3369 251.228 16.3302H264.305C265.083 16.3376 265.858 16.2252 266.603 15.9967C267.279 15.7945 267.907 15.4539 268.445 14.9966C268.98 14.5363 269.404 13.9607 269.684 13.3133C270.291 11.7861 270.291 10.0856 269.684 8.55844C269.408 7.90985 268.992 7.3296 268.467 6.85873ZM266.723 12.0617C266.621 12.3994 266.455 12.7147 266.234 12.9908C266.02 13.255 265.748 13.4678 265.44 13.6138C265.098 13.7762 264.722 13.8567 264.343 13.8489C263.98 13.8741 263.618 13.8135 263.283 13.6719C262.949 13.5305 262.652 13.312 262.418 13.0346C261.972 12.422 261.747 11.6761 261.783 10.9195C261.78 10.5273 261.836 10.1368 261.947 9.76078C262.047 9.41836 262.211 9.09768 262.429 8.81532C262.642 8.54445 262.914 8.32572 263.225 8.17588C263.569 8.01908 263.943 7.94066 264.321 7.94633C264.7 7.93935 265.074 8.01784 265.418 8.17588C265.73 8.32368 266.002 8.54276 266.213 8.81532C266.434 9.0974 266.599 9.41809 266.701 9.76078C266.813 10.1368 266.868 10.5273 266.865 10.9195C266.876 11.3052 266.828 11.6904 266.723 12.0617Z" fill="white"/>
<path d="M323.153 8.55844C322.871 7.90777 322.448 7.32735 321.914 6.85873C321.378 6.39602 320.751 6.05146 320.072 5.84765C319.327 5.62374 318.552 5.51318 317.774 5.51972C316.999 5.51145 316.226 5.6296 315.488 5.86951C314.815 6.08939 314.196 6.4447 313.667 6.91338C313.144 7.38429 312.732 7.96475 312.461 8.6131C312.161 9.35026 312.013 10.1404 312.028 10.9359C312.032 11.4601 312.158 11.9764 312.395 12.4443C312.607 12.8952 312.902 13.3015 313.267 13.6412V13.7287H306.813C306.538 13.7292 306.262 13.6925 305.997 13.6194C305.725 13.5515 305.467 13.4369 305.235 13.2805C305.004 13.1218 304.817 12.9099 304.686 12.6629C304.538 12.3661 304.467 12.0375 304.477 11.7064V10.9359C304.499 10.1553 304.332 9.38108 303.99 8.67869C303.681 8.07071 303.229 7.54584 302.674 7.14839C302.091 6.73368 301.431 6.43833 300.732 6.27941C299.956 6.08977 299.158 5.99615 298.358 6.00067C297.539 5.99938 296.727 6.14948 295.963 6.44337C295.186 6.73902 294.449 7.13007 293.769 7.60748C293.08 8.09645 292.437 8.64512 291.845 9.24706C291.262 9.8237 290.713 10.4332 290.2 11.0725H290.162V7.56922H287.157V13.7341H280.609C280.336 13.7334 280.063 13.7114 279.793 13.6686C279.525 13.6287 279.266 13.5398 279.031 13.4062C278.804 13.274 278.614 13.0857 278.483 12.8596C278.333 12.5755 278.261 12.2568 278.273 11.936V6.95711H275.116V15.9858C275.161 16.8229 275.032 17.6602 274.737 18.4452C274.627 18.6992 274.442 18.9128 274.205 19.0568C273.968 19.2007 273.693 19.2677 273.415 19.2486C273.186 19.2487 272.957 19.2304 272.731 19.194C272.523 19.1573 272.328 19.0772 272.154 18.9589V21.2271C272.455 21.3525 272.77 21.4424 273.093 21.4949C273.431 21.5533 273.774 21.5826 274.117 21.5823C274.805 21.6062 275.487 21.4657 276.108 21.1725C276.628 20.9136 277.068 20.5187 277.38 20.0302C277.713 19.4876 277.945 18.8896 278.065 18.2649C278.211 17.5139 278.28 16.7505 278.273 15.9858V14.9529H278.362C278.448 15.1706 278.577 15.3692 278.74 15.5377C278.899 15.7079 279.084 15.8518 279.288 15.964C279.498 16.0818 279.721 16.1752 279.952 16.2427C280.164 16.3054 280.383 16.3385 280.604 16.3411H303.913C304.067 16.1188 304.187 15.8735 304.264 15.6141C304.337 15.3977 304.398 15.1768 304.445 14.9529H304.533C304.619 15.1719 304.749 15.3709 304.917 15.5377C305.087 15.7071 305.28 15.8507 305.492 15.964C305.701 16.0827 305.924 16.1762 306.156 16.2427C306.368 16.3058 306.587 16.3389 306.808 16.3411H317.774C318.553 16.3486 319.328 16.2361 320.072 16.0077C320.749 15.8054 321.376 15.4648 321.914 15.0075C322.45 14.5472 322.874 13.9717 323.153 13.3242C323.76 11.797 323.76 10.0966 323.153 8.56937V8.55844ZM301.336 13.7287H290.951C290.951 13.674 291.094 13.51 291.291 13.2368C291.488 12.9635 291.757 12.6356 292.091 12.2584C292.426 11.8814 292.804 11.4715 293.248 11.0452C293.701 10.6093 294.189 10.2108 294.707 9.8537C295.236 9.48828 295.807 9.18569 296.406 8.95195C297.006 8.71888 297.644 8.60024 298.287 8.60217C299.063 8.56355 299.835 8.73743 300.519 9.10495C301.067 9.44382 301.336 10.0778 301.336 11.0014V13.7287ZM320.171 12.089C320.068 12.4255 319.904 12.7404 319.688 13.0182C319.471 13.2823 319.197 13.4952 318.888 13.6412C318.545 13.8036 318.17 13.8841 317.79 13.8762C317.429 13.9014 317.065 13.8409 316.73 13.6993C316.396 13.5577 316.1 13.3393 315.867 13.0618C315.422 12.4479 315.198 11.703 315.23 10.9468C315.227 10.5546 315.283 10.1642 315.395 9.78815C315.496 9.44546 315.662 9.12477 315.883 8.84264C316.094 8.57008 316.366 8.351 316.678 8.2032C317.029 8.05191 317.408 7.97387 317.79 7.97387C318.173 7.97387 318.552 8.05191 318.904 8.2032C319.217 8.35149 319.491 8.57041 319.704 8.84264C319.921 9.12632 320.084 9.44664 320.187 9.78815C320.299 10.1642 320.354 10.5546 320.352 10.9468C320.347 11.3253 320.286 11.7011 320.171 12.0617V12.089Z" fill="white"/>
<path d="M149.409 34.0372V34.0043C149.393 33.2069 149.539 32.4144 149.84 31.675C150.14 30.9355 150.588 30.2645 151.156 29.7025C151.724 29.1405 152.401 28.6992 153.145 28.4053C153.888 28.1113 154.685 27.971 155.484 27.9925C156.332 27.9517 157.18 28.0897 157.971 28.3977C158.762 28.7056 159.478 29.1766 160.074 29.7797L158.429 31.6543C157.645 30.8484 156.577 30.3797 155.451 30.3481C153.488 30.3481 152.073 31.9877 152.073 33.9607V33.9934C152.073 35.9828 153.456 37.6443 155.451 37.6443C156.784 37.6443 157.595 37.0977 158.511 36.2834L160.156 37.923C159.568 38.6054 158.834 39.1463 158.007 39.5051C157.18 39.8638 156.281 40.0311 155.38 39.9944C154.592 40.0062 153.81 39.8602 153.08 39.5648C152.35 39.2696 151.686 38.8312 151.13 38.2756C150.572 37.7199 150.133 37.0585 149.838 36.3303C149.542 35.6023 149.397 34.8225 149.409 34.0372Z" fill="white"/>
<path d="M162.877 28.2014H168.201C168.817 28.1631 169.434 28.2478 170.017 28.4506C170.6 28.6533 171.136 28.9698 171.595 29.3818C171.93 29.735 172.191 30.1515 172.363 30.6066C172.534 31.0619 172.612 31.5467 172.593 32.0325V32.0653C172.63 32.8553 172.407 33.6357 171.957 34.2864C171.506 34.9371 170.853 35.4222 170.098 35.667L172.944 39.8097H169.944L167.449 36.1097H165.437V39.8206H162.877V28.2014ZM168.031 33.8415C169.282 33.8415 169.994 33.1802 169.994 32.202V32.1692C169.994 31.0761 169.232 30.5295 167.981 30.5295H165.437V33.8634L168.031 33.8415Z" fill="white"/>
<path d="M175.564 28.2011H184.338V30.4746H178.119V32.8302H183.603V35.1038H178.119V37.5413H184.441V39.8094H175.564V28.2011ZM180.976 24.6869L183.169 25.6323L180.911 27.2719H178.98L180.976 24.6869Z" fill="white"/>
<path d="M187.387 28.2004H191.932C195.595 28.2004 198.123 30.7035 198.123 33.9718V34.0045C198.123 37.2838 195.595 39.8087 191.932 39.8087H187.387V28.2004ZM191.932 37.4914C192.398 37.519 192.864 37.4482 193.3 37.284C193.737 37.1197 194.134 36.8654 194.465 36.5379C194.796 36.2104 195.054 35.817 195.222 35.3833C195.391 34.9496 195.465 34.4853 195.442 34.021V33.9882C195.465 33.5226 195.391 33.0573 195.222 32.6223C195.054 32.1873 194.797 31.7922 194.466 31.4626C194.135 31.133 193.739 30.8761 193.302 30.7087C192.866 30.5412 192.399 30.4668 191.932 30.4904H189.953V37.4914H191.932Z" fill="white"/>
<path d="M201.188 28.2004H203.748V39.8087H201.188V28.2004Z" fill="white"/>
<path d="M210.036 30.5568H206.494V28.2013H216.138V30.5568H212.596V39.8096H210.03L210.036 30.5568Z" fill="white"/>
<path d="M224.436 28.2013H228.975C232.639 28.2013 235.166 30.7044 235.166 33.9726V34.0054C235.166 37.2847 232.639 39.8096 228.975 39.8096H224.436V28.2013ZM228.975 37.4924C229.442 37.5198 229.908 37.4491 230.345 37.2848C230.781 37.1206 231.178 36.8664 231.51 36.539C231.841 36.2116 232.1 35.8183 232.269 35.3846C232.438 34.9508 232.513 34.4865 232.49 34.0218V33.9891C232.514 33.523 232.44 33.0572 232.27 32.6218C232.102 32.1863 231.844 31.791 231.513 31.4613C231.182 31.1316 230.785 30.875 230.347 30.7078C229.91 30.5407 229.443 30.4669 228.975 30.4913H226.996V37.4924H228.975Z" fill="white"/>
<path d="M237.936 34.8353V28.2004H240.496V34.7587C240.496 36.6498 241.444 37.6281 243.007 37.6281C244.57 37.6281 245.519 36.6826 245.519 34.8408V28.2004H248.084V34.7587C248.084 38.273 246.105 40 242.975 40C239.843 40 237.936 38.2511 237.936 34.8353Z" fill="white"/>
<path d="M257.022 28.2013H259.764L262.824 33.12L265.889 28.2013H268.63V39.8096H266.086V32.2347L262.796 37.1918H262.73L259.484 32.273V39.7987H256.973L257.022 28.2013Z" fill="white"/>
<path d="M276.125 28.1196H278.488L283.483 39.8099H280.802L279.743 37.2029H274.809L273.712 39.8044H271.135L276.125 28.1196ZM278.822 34.9512L277.276 31.1911L275.725 34.9567L278.822 34.9512Z" fill="white"/>
<path d="M285.945 28.2007H291.259C291.875 28.1619 292.493 28.2463 293.076 28.449C293.658 28.6518 294.195 28.9688 294.653 29.3812C294.989 29.7337 295.25 30.15 295.422 30.6054C295.594 31.0608 295.671 31.546 295.65 32.0319V32.0647C295.689 32.8546 295.465 33.635 295.014 34.2858C294.563 34.9365 293.91 35.4216 293.156 35.6663L296.001 39.8091H293.008L290.524 36.109H288.518V39.82H285.956L285.945 28.2007ZM291.105 33.841C292.355 33.841 293.068 33.1796 293.068 32.2013V32.1685C293.068 31.0754 292.301 30.5289 291.056 30.5289H288.518V33.8628L291.105 33.841Z" fill="white"/>
<path d="M298.129 34.0383V34.0055C298.192 32.4136 298.869 30.9077 300.02 29.8021C301.17 28.6964 302.705 28.0768 304.303 28.0725C305.902 28.0683 307.439 28.6798 308.596 29.7793C309.753 30.8789 310.438 32.3813 310.51 33.9727V34.0055C310.447 35.5973 309.769 37.1034 308.619 38.2089C307.468 39.3145 305.933 39.9342 304.335 39.9384C302.737 39.9427 301.198 39.3312 300.042 38.2316C298.885 37.1322 298.2 35.6298 298.129 34.0383ZM307.829 34.0383V34.0055C307.845 33.5335 307.765 33.063 307.596 32.622C307.426 32.1812 307.168 31.7787 306.84 31.4387C306.511 31.0986 306.117 30.8279 305.681 30.6426C305.245 30.4574 304.776 30.3613 304.303 30.3601C303.832 30.3582 303.366 30.4514 302.933 30.634C302.5 30.8166 302.108 31.0847 301.781 31.4223C301.455 31.76 301.201 32.1601 301.034 32.5984C300.867 33.0366 300.79 33.5042 300.81 33.9727V34.0055C300.794 34.4778 300.873 34.9485 301.043 35.3897C301.212 35.831 301.469 36.2338 301.798 36.5742C302.127 36.9147 302.52 37.1859 302.957 37.3718C303.392 37.5576 303.862 37.6544 304.335 37.6564C304.806 37.6582 305.273 37.5649 305.706 37.382C306.14 37.1991 306.532 36.9304 306.858 36.5922C307.185 36.254 307.439 35.8533 307.606 35.4143C307.773 34.9753 307.849 34.5072 307.829 34.0383Z" fill="white"/>
<path d="M312.941 34.0374V34.0046C312.925 33.2073 313.072 32.4152 313.373 31.6761C313.673 30.937 314.122 30.2663 314.689 29.7045C315.257 29.1426 315.933 28.7012 316.677 28.4071C317.42 28.1129 318.216 27.972 319.016 27.9928C319.865 27.9511 320.713 28.0888 321.505 28.3968C322.297 28.7048 323.015 29.1761 323.61 29.78L321.966 31.6545C321.183 30.8477 320.114 30.3788 318.989 30.3483C317.026 30.3483 315.611 31.9879 315.611 33.9609V33.9937C315.611 35.9831 316.993 37.6445 318.989 37.6445C320.321 37.6445 321.133 37.098 322.048 36.2837L323.693 37.9233C323.106 38.606 322.371 39.1471 321.544 39.5059C320.716 39.8647 319.819 40.0317 318.917 39.9946C318.129 40.0072 317.346 39.8617 316.616 39.5667C315.885 39.2718 315.221 38.8334 314.663 38.2777C314.105 37.7221 313.666 37.0604 313.37 36.3319C313.074 35.6035 312.928 34.8232 312.941 34.0374Z" fill="white"/>
</svg>
