<svg width="261" height="40" viewBox="0 0 261 40" fill="none" xmlns="http://www.w3.org/2000/svg">
<g clip-path="url(#clip0_403_3047)">
<path d="M33.1679 19.0398H6.29297V22.5514H33.1679V19.0398Z" fill="white"/>
<path d="M255.23 -1.15018e-07C255.463 2.6749 255.339 5.35665 255.443 8.03841C255.497 9.45816 255.546 10.8711 255.559 12.2908C255.559 12.8669 255.449 13.4225 255.257 13.9575C254.824 15.1303 253.945 15.6379 252.736 15.6584C252.461 15.6584 252.186 15.6584 251.911 15.6584C240.315 15.6584 228.719 15.6584 217.122 15.6584C212.286 15.6584 207.45 15.6516 202.613 15.6584C202.208 15.6584 201.809 15.7545 201.404 15.8025C200.703 15.8848 200.188 16.2826 199.776 16.8038C199.474 17.1879 199.213 17.6063 198.986 18.0384C197.715 20.487 195.661 22.037 193.16 23.0453C191.67 23.6488 190.11 23.9575 188.503 24.0878C187.548 24.1632 186.593 24.2181 185.645 24.1838C184.889 24.1564 184.14 24.0466 183.24 23.9643C184.422 23.7449 185.466 23.6008 186.483 23.3608C189.492 22.6543 192.357 21.5844 194.871 19.7394C196.286 18.6968 197.275 17.3388 197.729 15.5898C197.935 14.7874 197.557 14.2318 197.214 13.6283C197.069 13.3676 196.856 13.1481 196.671 12.915C196.087 12.1742 196.073 11.9616 196.54 11.1591C196.595 11.0631 196.664 10.9808 196.74 10.8985C196.794 10.8368 196.87 10.7956 197.001 10.6927C197.44 11.2071 197.921 11.6941 198.299 12.2428C198.642 12.7435 199.068 12.8395 199.625 12.8326C203.609 12.8189 207.594 12.8258 211.578 12.8258H219.465C220.358 12.332 220.475 11.3512 220.942 10.5693C221.134 10.5487 221.313 10.535 221.505 10.5144C222.117 11.2277 222.158 12.2977 223.051 12.8189C223.484 12.8189 223.786 12.5995 223.985 12.1879C224.246 11.6461 224.521 11.118 224.81 10.5487C224.982 10.5418 225.167 10.535 225.387 10.5213C225.655 11.0494 225.936 11.5432 226.177 12.0576C226.376 12.4897 226.692 12.7366 227.194 12.8395C228.08 12.3525 228.142 11.2963 228.739 10.5487H229.282C229.516 11.0082 229.777 11.454 229.983 11.9273C230.271 12.572 230.704 12.8395 231.446 12.8326C238.206 12.8052 244.966 12.8189 251.726 12.8189C252.392 12.8189 253.038 12.7572 253.519 12.1399C253.801 11.1385 253.821 10.1029 253.608 9.03978C253.491 8.45679 253.464 7.85322 253.43 7.25652C253.361 5.97394 253.292 4.69822 253.258 3.41564C253.224 2.06447 253.567 0.877915 254.824 0.130315C254.865 0.102881 254.879 0.0411521 254.907 -0.00685883C255.017 -0.00685883 255.127 -0.00685883 255.236 -0.00685883L255.23 -1.15018e-07Z" fill="white"/>
<path d="M85.4064 -1.15018e-07C86.1415 0.58299 86.8079 1.22085 86.9933 2.18793C87.0964 2.71605 87.2063 3.25789 87.2063 3.79287C87.2063 4.66392 87.3575 5.54184 87.0964 6.39918C87.0827 6.44719 87.0964 6.50892 87.0895 6.56379C87.0277 7.92867 86.9659 9.28669 86.904 10.6516C86.8903 10.8985 86.8903 11.1454 86.9178 11.3923C87.0071 12.2291 87.4949 12.7092 88.333 12.8121C88.4429 12.8258 88.5528 12.8189 88.6627 12.8189C94.6807 12.8189 100.692 12.8189 106.71 12.8189C107.177 12.8189 107.624 12.7572 108.001 12.4074C107.843 11.8244 107.328 11.8176 106.902 11.701C106.511 11.5981 106.098 11.5775 105.7 11.5021C105.597 11.4815 105.515 11.3992 105.398 11.3374C105.137 10.3155 105.769 9.67078 106.421 9.10837C107.156 8.47737 108.063 8.20988 109.059 8.1893C110.069 8.16872 111.017 8.27846 111.883 8.84088C112.687 9.36214 113.291 10.0274 113.477 10.9465C113.195 11.6667 112.556 11.5226 112.061 11.6735C111.78 11.7627 111.471 11.7627 111.196 11.8656C110.99 11.9479 110.818 12.1262 110.605 12.2771C110.873 12.7298 111.271 12.7435 111.629 12.8052C111.897 12.8464 112.178 12.8189 112.453 12.8189C118.828 12.8189 125.197 12.8189 131.572 12.8189C133.386 12.8189 133.647 12.2428 133.667 10.7339C133.681 9.6845 133.612 8.6214 133.399 7.57888C133.386 7.52401 133.392 7.46914 133.392 7.41427C133.351 5.91221 133.09 4.42387 133.228 2.91495C133.276 2.40741 133.392 1.89986 133.571 1.41975C133.777 0.864197 134.244 0.507544 134.705 0.150892C134.766 0.102881 134.821 0.0411521 134.876 -0.00685883C134.986 -0.00685883 135.096 -0.00685883 135.206 -0.00685883C135.206 0.322359 135.206 0.651577 135.227 0.980795C135.405 4.03978 135.392 7.10562 135.398 10.1646C135.398 10.3498 135.447 10.535 135.474 10.727C135.639 11.7627 135.529 12.7984 135.275 13.7929C135.014 14.8217 133.866 15.6859 132.678 15.6722C128.858 15.631 125.046 15.6584 121.226 15.6584C118.396 15.6584 115.565 15.6173 112.742 15.679C111.656 15.6996 110.921 15.2675 110.351 14.4239C110.152 14.1289 109.959 13.834 109.739 13.5597C109.65 13.4431 109.485 13.3882 109.348 13.3059C108.846 13.6008 108.551 14.0329 108.29 14.4719C107.775 15.3361 107.033 15.6722 106.037 15.6722C100.788 15.6516 95.5463 15.6653 90.2978 15.6653C89.336 15.6653 88.3742 15.6379 87.4124 15.6653C86.272 15.6927 85.0492 14.6159 84.8774 13.3333C84.7675 12.5171 84.6919 11.701 84.7606 10.8916C84.9873 8.1893 84.8087 5.48011 84.9393 2.77778C84.9873 1.85871 85.0148 0.925926 85.0767 0.0068586H85.4064V-1.15018e-07ZM107.665 10.3772C108.146 10.6447 108.606 10.9191 109.087 11.1523C109.217 11.214 109.423 11.2071 109.561 11.1523C110.042 10.9259 110.502 10.6653 110.976 10.4115C110.303 9.35528 108.462 9.28669 107.665 10.3772Z" fill="white"/>
<path d="M193.731 -1.15018e-07C193.992 0.775034 194.191 1.55007 193.958 2.37997C193.882 2.66118 193.896 2.96296 193.868 3.27846C193.717 3.28532 193.614 3.29218 193.546 3.29904C193.291 2.94239 193.058 2.62003 192.872 2.3594C192.405 2.25652 192.123 2.42798 191.856 2.62689C191.004 3.25789 190.145 3.88203 189.3 4.52675C187.981 5.53498 186.676 6.56379 185.35 7.57202C184.697 8.0727 184.594 8.16872 184.216 8.97119C184.56 9.54733 185.171 9.62277 185.748 9.69136C186.263 9.75309 186.792 9.71879 187.315 9.71193C188.407 9.70508 189.492 9.78052 190.55 10.0412C191.017 10.1578 191.491 10.3498 191.89 10.6104C192.453 10.9808 192.79 11.5089 192.776 12.2565C192.755 13.8683 192.089 14.808 190.523 15.3498C189.953 15.5487 189.375 15.6653 188.771 15.6653C186.628 15.6653 184.484 15.6653 182.341 15.6653C173.609 15.6653 164.871 15.6653 156.139 15.6653C155.727 15.6653 155.315 15.6653 154.903 15.6516C153.948 15.6173 153.549 15.2126 153.494 14.2318C153.494 14.1221 153.474 14.0123 153.467 13.9163C153.192 13.5117 152.814 13.3333 152.347 13.3333C151.935 13.3333 151.523 13.3471 151.11 13.3196C150.678 13.2922 150.245 13.2442 149.819 13.1756C149.194 13.0796 148.953 12.6475 149.056 12.0439C149.173 11.3649 149.434 10.7476 149.901 10.2263C150.568 9.47874 151.392 8.96433 152.285 8.53909C152.656 8.36763 153.027 8.20302 153.425 8.01783C153.529 7.07133 154.147 6.41975 154.786 5.69273C154.985 5.87106 155.157 6.02881 155.315 6.17284C155.315 7.7572 155.335 9.29355 155.308 10.8299C155.301 11.406 155.445 11.8999 155.782 12.3868C156.242 12.6475 156.744 12.8189 157.307 12.8189C167.742 12.8189 178.184 12.8189 188.62 12.8052C188.963 12.8052 189.321 12.716 189.65 12.6132C189.774 12.5789 189.856 12.3868 189.959 12.2702C189.678 11.5501 189.039 11.6049 188.503 11.5569C187.795 11.4883 187.074 11.5432 186.36 11.5432C185.508 11.5432 184.656 11.5569 183.804 11.5158C183.433 11.4952 183.041 11.4129 182.705 11.262C181.846 10.8779 181.482 10.2058 181.736 9.12209C182.045 8.47051 182.664 7.88066 183.323 7.35254C184.896 6.09739 186.518 4.89026 188.111 3.66255C189.424 2.64746 190.729 1.6118 192.041 0.596708C192.316 0.384088 192.611 0.192044 192.893 -0.00685883C193.168 -0.00685883 193.442 -0.00685883 193.717 -0.00685883L193.731 -1.15018e-07ZM153.453 10.0892C152.58 10.048 152.223 10.2538 151.612 11.1523C152.21 11.454 152.807 11.3923 153.453 11.2414V10.0823V10.0892Z" fill="white"/>
<path d="M261.001 39.177C257.209 39.177 253.424 39.1907 249.632 39.1907C249.549 39.1907 249.474 39.1701 249.398 39.1564C249.261 38.4911 249.213 29.0809 249.33 26.9342C249.941 26.7764 258.343 26.7147 260.61 26.8518C260.754 27.1811 260.665 27.5377 260.679 27.8807C260.692 28.2099 260.679 28.5391 260.679 28.8409C260.631 28.8889 260.617 28.9095 260.596 28.9232C260.576 28.9369 260.555 28.9575 260.527 28.9643C260.472 28.978 260.418 28.9849 260.363 28.9849C257.532 28.9849 254.709 28.9849 251.83 28.9849C251.7 29.4444 251.782 29.904 251.768 30.3566C251.755 30.7956 251.768 31.2346 251.768 31.6461C251.81 31.6872 251.83 31.7147 251.851 31.7284C251.871 31.7421 251.899 31.7627 251.92 31.7627C254.145 31.7627 256.364 31.7627 258.624 31.7627C258.769 32.4691 258.673 33.1481 258.693 33.8683C257.924 34.0192 257.161 33.9232 256.406 33.9369C255.664 33.9575 254.922 33.9369 254.18 33.9369H251.803C251.72 34.4582 251.775 34.9726 251.762 35.4801C251.748 35.9671 251.762 36.4609 251.762 36.9067C251.823 36.9684 251.837 36.989 251.858 37.0027C251.878 37.0165 251.906 37.0233 251.933 37.0233C254.956 37.0233 257.972 37.0233 260.995 37.0302V39.1701L261.001 39.177Z" fill="white"/>
<path d="M140.805 0C140.812 2.05761 140.723 4.12209 140.86 6.17284C141.032 8.79973 140.942 11.4266 140.97 14.0466C140.97 14.3621 140.894 14.6914 140.805 15C140.702 15.3704 140.434 15.5898 140.001 15.6447C139.589 15.5075 139.507 15.1372 139.479 14.7462C139.41 13.6008 139.376 12.4554 139.294 11.3169C139.218 10.3155 139.088 9.32099 138.998 8.32648C138.813 6.36488 138.737 4.39643 138.827 2.42798C138.854 1.82442 139.067 1.26886 139.534 0.829904C139.809 0.569273 140.056 0.274348 140.31 0C140.475 0 140.64 0 140.805 0Z" fill="white"/>
<path d="M261 14.8148C260.794 15.2172 260.473 15.4915 260.038 15.6379C259.599 15.5624 259.702 15.1303 259.537 14.8697C259.489 14.7874 259.516 14.6571 259.509 14.5473C259.447 13.3265 259.406 12.0988 259.317 10.8848C259.248 9.9177 259.118 8.95062 259.022 7.98354C258.836 6.19342 258.774 4.39643 258.85 2.59259C258.884 1.84499 259.111 1.15912 259.736 0.651578C259.963 0.466392 260.134 0.219479 260.334 0C260.499 0 260.663 0 260.828 0C260.835 1.6118 260.842 3.23045 260.863 4.84225C260.863 5.04115 260.746 5.28121 260.993 5.4321V14.8148H261Z" fill="white"/>
<path d="M77.9187 15.2469C77.5409 15.3224 77.1356 15.3635 76.7577 15.4938C76.2768 15.6584 75.7959 15.6653 75.3013 15.6653C72.4434 15.6653 69.5856 15.6653 66.7277 15.6653C63.5126 15.6653 60.2975 15.6653 57.0824 15.6653C56.6427 15.6653 56.2031 15.6722 55.7634 15.6379C55.1176 15.5898 54.7948 15.2332 54.7192 14.5953C54.6848 14.2798 54.6024 13.9712 54.5612 13.7449C54.1696 13.3951 53.8055 13.3333 53.4139 13.3402C52.8643 13.347 52.3079 13.3813 51.7651 13.3196C51.243 13.2647 50.6522 13.3059 50.2881 12.7366C50.1095 11.4403 50.6866 10.4732 51.6758 9.65706C52.4246 9.03978 53.2628 8.60768 54.1421 8.23045C54.3345 8.14815 54.5062 8.01783 54.6505 7.93553C54.7604 6.95473 55.3375 6.35116 55.9558 5.78189C56.2443 5.80933 56.3748 5.96708 56.3886 6.21399C56.4023 6.48834 56.4092 6.76269 56.4092 7.03703C56.4092 8.24417 56.3817 9.4513 56.416 10.6584C56.4366 11.3923 56.5328 12.1331 57.3847 12.6955C57.8793 12.7366 58.5251 12.8258 59.1709 12.8258C64.6667 12.8395 70.1626 12.8258 75.6585 12.8395C76.4829 12.8395 77.1081 12.6063 77.589 11.8724C78.4408 10.5624 80.0827 10.3567 81.2025 11.0151C82.02 11.4952 82.4528 12.1948 82.4597 13.155C82.4734 14.5542 81.8002 15.487 80.4743 15.8916C79.8079 16.0974 79.1828 16.0014 78.5851 15.679C78.3927 15.5761 78.2141 15.4527 77.905 15.2606L77.9187 15.2469ZM78.6263 13.1344C78.9492 14.2318 78.9629 14.2044 80.0003 14.4925C80.282 14.2867 80.6254 14.0398 80.9071 13.834C81.0102 12.4897 80.6186 12.1125 79.2858 12.2497C79.0866 12.5171 78.8462 12.8395 78.6263 13.1344ZM54.7535 10.9808C54.7123 10.631 54.6848 10.3772 54.6642 10.1372C53.723 9.97942 53.249 10.2401 52.7956 11.0905C53.2696 11.4883 53.8192 11.3237 54.3894 11.3443C54.4993 11.2346 54.6161 11.1248 54.7604 10.9808H54.7535Z" fill="white"/>
<path d="M208.109 26.845C208.267 26.8313 208.37 26.8176 208.48 26.8107C211.118 26.8107 213.756 26.8107 216.394 26.8107C217.472 26.8107 218.434 27.1811 219.224 27.8875C219.657 28.2716 220 28.786 220.165 29.3827C220.509 30.6036 220.495 31.7627 219.781 32.8738C219.279 33.6557 218.551 34.0878 217.726 34.4033C217.5 34.4925 217.266 34.5542 216.943 34.6571C218.125 36.1385 219.286 37.5995 220.433 39.0398C220.392 39.1084 220.385 39.1289 220.371 39.1427C220.351 39.1564 220.323 39.177 220.303 39.177C219.396 39.177 218.489 39.177 217.555 39.177C216.414 37.7023 215.267 36.214 214.127 34.7462H210.575V39.1289C209.73 39.2387 208.947 39.1838 208.171 39.1701C208.047 38.4979 207.999 28.5802 208.116 26.845H208.109ZM210.582 32.5652C212.341 32.5652 214.01 32.5857 215.686 32.5583C216.277 32.5446 216.882 32.4417 217.376 32.0782C217.939 31.6598 218.125 30.9053 217.898 30.1509C217.706 29.513 217.163 29.0604 216.476 28.9918C216.311 28.9781 216.146 28.9849 215.982 28.9849C214.388 28.9849 212.794 28.9849 211.207 28.9849C210.994 28.9849 210.788 29.0055 210.541 29.0192C210.541 30.1097 210.541 31.1454 210.541 32.1811C210.541 32.2839 210.561 32.3937 210.575 32.5652H210.582Z" fill="white"/>
<path d="M72.0237 26.4883C73.5763 26.3786 74.9915 26.797 76.2762 27.6337C78.0486 28.7929 79.0791 30.3978 79.1615 32.5514C79.1753 32.9355 79.1821 33.3196 79.1547 33.7037C79.031 35.3498 78.3097 36.6872 77.0662 37.7846C76.2487 38.5048 75.3075 39.0055 74.2839 39.2798C73.013 39.6159 71.7146 39.6433 70.4025 39.3964C69.6124 39.2524 68.8636 39.0398 68.1766 38.6557C66.679 37.8121 65.5523 36.6187 65.0577 34.9314C64.1509 31.8381 65.4012 28.9026 68.1766 27.3594C69.372 26.6941 70.6566 26.406 72.0237 26.4952V26.4883ZM76.6609 33.155C76.8533 31.118 75.5961 29.6091 74.1053 29.0329C72.8687 28.5597 71.5978 28.4774 70.2788 28.93C68.7193 29.465 67.7369 30.4595 67.3797 32.0508C66.995 33.7517 67.5583 35.5007 69.056 36.5089C70.4986 37.476 72.0856 37.5789 73.7412 37.0988C74.4694 36.8861 75.1152 36.5158 75.6029 35.9739C76.3311 35.1715 76.812 34.225 76.6678 33.155H76.6609Z" fill="white"/>
<path d="M131.929 33.9369V37.0302H141.134C141.134 37.4417 141.148 37.7915 141.148 38.1344C141.148 38.4568 141.148 38.786 141.148 39.1495H129.517C129.38 38.4774 129.332 29.2181 129.449 26.9273C130.053 26.7764 138.62 26.7078 140.736 26.8518C140.866 27.5171 140.77 28.1893 140.791 28.8477C140.757 28.882 140.736 28.9026 140.715 28.9163C140.695 28.93 140.667 28.9506 140.647 28.9506C137.768 28.9506 134.883 28.9506 131.956 28.9506C131.846 29.8834 131.929 30.775 131.894 31.7215C132.142 31.7352 132.348 31.7627 132.561 31.7627C134.347 31.7627 136.133 31.7627 137.919 31.7627C138.18 31.7627 138.469 31.6667 138.757 31.9136C138.902 32.5103 138.805 33.1619 138.819 33.8546C138.043 33.9918 137.28 33.9026 136.525 33.9232C135.783 33.9369 135.041 33.9232 134.299 33.9232H131.936L131.929 33.9369Z" fill="white"/>
<path d="M190.9 39.1701H188.53C185.96 36.2003 183.377 33.203 180.712 30.1235V39.1289C179.956 39.2661 179.221 39.1564 178.527 39.2044C178.479 39.1564 178.458 39.1358 178.438 39.1152C178.424 39.0946 178.397 39.0741 178.397 39.0466C178.39 35.096 178.383 31.1523 178.383 27.2016C178.383 27.0988 178.403 26.9959 178.417 26.8519H180.828C183.398 29.8148 186.022 32.8395 188.756 35.9945C188.708 34.3553 188.646 32.8807 188.619 31.406C188.598 29.904 188.619 28.4019 188.619 26.8587H190.907V39.1701H190.9Z" fill="white"/>
<path d="M205.438 26.8724V28.9232C204.421 29.0261 203.439 28.9575 202.456 28.9712C201.44 28.9849 200.423 28.9712 199.406 28.9712H196.425V31.701C196.583 31.7215 196.761 31.7627 196.94 31.7627C198.809 31.7627 200.677 31.7627 202.539 31.7627C202.807 31.7627 203.088 31.6941 203.37 31.8793C203.528 32.5103 203.425 33.1619 203.439 33.8546C202.662 33.9986 201.9 33.9095 201.144 33.9232C200.375 33.9369 199.605 33.9232 198.836 33.9232H196.562C196.342 34.4787 196.308 35.6379 196.445 37.0027H205.678C205.864 37.7092 205.726 38.3882 205.775 39.0398C205.733 39.0809 205.713 39.1015 205.699 39.1221C205.678 39.1427 205.658 39.1701 205.637 39.1701C201.927 39.177 198.225 39.1838 194.515 39.1907C194.384 39.1907 194.254 39.177 194.082 39.1632V26.9136C194.693 26.7901 204.181 26.7558 205.424 26.8724H205.438Z" fill="white"/>
<path d="M60.3113 35.3086C59.8716 34.6639 59.2258 34.4582 58.6007 34.3004C57.8656 34.1152 57.103 34.0466 56.3611 33.9095C54.9253 33.642 53.462 33.4636 52.1636 32.7229C51.6277 32.4211 51.1881 32.0302 50.8927 31.4815C50.3156 30.4184 50.5148 29.0261 51.3323 28.1413C52.1705 27.2291 53.2422 26.8519 54.4169 26.6392C55.2344 26.4883 56.0519 26.4403 56.8626 26.5021C58.6556 26.6324 60.4006 26.9753 62.0287 27.915C61.7264 28.5322 61.431 29.1427 61.1082 29.8011C60.5173 29.6022 59.9403 29.3964 59.3563 29.2112C58.2915 28.8752 57.1923 28.6626 56.0794 28.6831C55.3581 28.6968 54.6299 28.8477 53.9154 29.0123C53.62 29.0809 53.3658 29.3347 53.1185 29.4925V30.2949C53.3727 30.8093 53.8879 30.9328 54.3482 31.0425C55.2894 31.2757 56.258 31.4129 57.2198 31.5912C58.5251 31.8381 59.8372 32.0302 61.0326 32.6749C61.8776 33.1344 62.5302 33.7586 62.7569 34.7257C63.0111 35.8162 62.8737 36.8244 62.1112 37.7023C61.4379 38.4774 60.5723 38.9095 59.6105 39.1701C58.3053 39.5199 56.9656 39.6022 55.6329 39.4856C53.8673 39.3278 52.1705 38.8546 50.5973 38.011C50.5011 37.963 50.4255 37.8807 50.2812 37.7778C50.5835 37.1331 50.8858 36.4883 51.1949 35.8162C51.4423 35.9122 51.6277 35.9602 51.7926 36.0494C52.7544 36.5775 53.7849 36.9273 54.8497 37.1331C56.2443 37.4074 57.6595 37.4211 59.0403 37.0096C59.2464 36.9479 59.4388 36.8313 59.6243 36.7284C60.2288 36.3923 60.3593 36.1248 60.325 35.3086H60.3113Z" fill="white"/>
<path d="M164.576 26.845H175.753V28.9575H166.919V31.7627H173.796C173.802 32.1742 173.816 32.524 173.816 32.8669C173.816 33.1893 173.816 33.5185 173.816 33.9232C172.628 33.9506 171.48 33.93 170.34 33.9369C169.22 33.9369 168.094 33.9369 166.926 33.9369V37.037H176.234V39.1564H164.583V26.845H164.576Z" fill="white"/>
<path d="M104.883 33.9232V36.9204C104.883 36.9204 104.924 36.9685 104.945 36.989C104.965 37.0027 104.986 37.0233 105.006 37.0302C105.034 37.037 105.061 37.037 105.089 37.037C108.057 37.037 111.018 37.037 114.027 37.037C114.219 37.7229 114.075 38.4019 114.123 39.0466C114.082 39.0878 114.061 39.1084 114.04 39.1289C114.02 39.1495 113.999 39.177 113.978 39.177C113.786 39.1838 113.594 39.1975 113.401 39.1975C109.808 39.1975 106.216 39.1975 102.629 39.1975C102.492 38.4774 102.437 29.0466 102.554 26.9273C103.124 26.7901 112.598 26.749 113.779 26.893V28.9849H104.903V31.7764H111.759V33.93H104.876L104.883 33.9232Z" fill="white"/>
<path d="M161.469 28.4019C161.091 28.9712 160.714 29.5336 160.315 30.1372C160.198 30.0823 160.068 30.048 159.965 29.9726C158.976 29.3141 157.904 28.9575 156.715 28.7723C155.417 28.5665 154.215 28.7311 153.095 29.3416C151.783 30.0617 151.082 31.2071 151.02 32.7229C150.986 33.6077 151.11 34.4444 151.584 35.2195C152.271 36.3443 153.335 36.9067 154.565 37.1742C155.98 37.476 157.361 37.1948 158.721 36.797C158.9 36.749 159.051 36.6255 159.257 36.5158C159.257 35.9122 159.257 35.3155 159.257 34.7119C159.257 34.1084 159.257 33.5734 159.257 32.963H161.545V37.8189C161.442 37.9081 161.298 38.0864 161.112 38.1756C159.992 38.7311 158.845 39.1838 157.588 39.3896C156.599 39.5473 155.616 39.6022 154.648 39.4925C151.913 39.177 149.825 37.8807 148.794 35.2058C148.623 34.7599 148.63 34.2524 148.513 33.7792C148.279 32.8738 148.478 32.0096 148.705 31.1523C149.042 29.8765 149.756 28.8272 150.794 28.0041C151.769 27.2291 152.903 26.7627 154.112 26.5364C154.778 26.4129 155.479 26.4952 156.166 26.4746C158 26.4198 159.635 27.0233 161.153 28.0041C161.222 28.0453 161.284 28.107 161.339 28.1619C161.373 28.203 161.387 28.2579 161.456 28.4019H161.469Z" fill="white"/>
<path d="M235.602 39.1495H233.129C232.69 38.2305 232.229 37.2565 231.755 36.262H225.181C224.707 37.2291 224.233 38.1962 223.766 39.1427H221.189C223.209 35 225.188 30.9259 227.173 26.845H229.584C230.093 27.5171 235.245 38.0658 235.596 39.1495H235.602ZM226.253 33.9986C227.118 34.1289 230.072 34.1084 230.677 33.9575C229.88 32.4966 229.337 30.9122 228.437 29.4239C227.681 31.0082 226.967 32.5034 226.253 33.9986Z" fill="white"/>
<path d="M94.3726 28.299C93.9055 28.9643 93.4864 29.5542 93.0742 30.144C92.6208 29.8971 92.2155 29.6845 91.8102 29.4582C90.711 28.8546 89.5156 28.6077 88.2791 28.6694C87.1455 28.7243 86.0601 29.0192 85.2014 29.7942C84.0129 30.8779 83.5388 32.2291 83.8823 33.8409C84.0129 34.4582 84.2258 35.0137 84.6037 35.535C85.2701 36.4609 86.225 36.9136 87.2554 37.1536C88.863 37.5309 90.4293 37.2565 91.9132 36.5501C92.3254 36.3512 92.717 36.1043 93.1635 35.8505C93.3765 36.166 93.5963 36.4678 93.8024 36.7764C93.9948 37.0645 94.1734 37.3594 94.3795 37.6749C93.7818 38.251 93.1017 38.5665 92.401 38.8546C90.8003 39.5199 89.1172 39.6571 87.4272 39.4925C85.3937 39.2936 83.6556 38.4019 82.4191 36.749C81.7183 35.8093 81.3199 34.7051 81.2581 33.4979C81.2031 32.3114 81.368 31.1797 81.9176 30.1029C82.5084 28.9438 83.3946 28.0933 84.4938 27.4417C85.6204 26.7764 86.8364 26.4678 88.1485 26.4678C89.4057 26.4678 90.6492 26.4952 91.8445 26.9616C92.7101 27.2977 93.5208 27.7229 94.3658 28.2922L94.3726 28.299Z" fill="white"/>
<path d="M122.676 28.9712V39.1495H120.444C120.444 39.1495 120.416 39.1289 120.403 39.1015C120.389 39.0809 120.375 39.0535 120.368 39.0329C120.361 39.0055 120.361 38.9781 120.361 38.9506C120.361 35.6584 120.361 32.3731 120.361 29.0261C120.162 29.0055 119.983 28.9712 119.805 28.9712C118.568 28.9712 117.332 28.9712 116.095 28.9712C115.855 28.9712 115.621 28.9438 115.367 28.93C115.154 28.2236 115.326 27.572 115.257 26.9753C115.319 26.9136 115.333 26.8861 115.353 26.8724C115.374 26.8587 115.401 26.845 115.429 26.845C119.386 26.8381 123.336 26.8313 127.293 26.8244C127.43 26.8244 127.561 26.8381 127.74 26.8519V28.882C127.527 28.9163 127.327 28.9712 127.121 28.9712C125.94 28.9781 124.758 28.9712 123.576 28.9712C123.308 28.9712 123.034 28.9712 122.683 28.9712H122.676Z" fill="white"/>
<path d="M239.732 37.0576H247.777C248.018 37.5857 248.031 37.8395 247.935 39.0946C247.337 39.225 238.571 39.2661 237.349 39.1427C237.232 38.5048 237.191 28.4431 237.301 26.8656C238.077 26.7627 238.86 26.8244 239.726 26.8313C239.726 27.7023 239.732 28.546 239.739 29.3827C239.739 30.2332 239.739 31.0837 239.739 31.9342V37.0576H239.732Z" fill="white"/>
<path d="M96.8184 26.8587H99.2228V39.177C98.4259 39.2181 97.6427 39.2112 96.8184 39.177V26.8656V26.8587Z" fill="white"/>
<path d="M223.546 7.81207C224.185 8.107 224.528 8.58025 224.947 9.07407C224.515 9.49246 224.116 9.8834 223.711 10.2743C223.127 9.96571 222.804 9.49932 222.357 9.03978C222.749 8.62826 223.12 8.24417 223.546 7.81207Z" fill="white"/>
<path d="M225.044 5.85734C225.656 6.12483 225.958 6.62551 226.397 7.03704C226.061 7.54458 225.656 7.94924 225.14 8.28532C225.03 8.22359 224.92 8.18244 224.852 8.11385C224.522 7.79149 224.206 7.46228 223.828 7.07819C224.261 6.64609 224.653 6.25514 225.051 5.8642L225.044 5.85734Z" fill="white"/>
<path d="M150.801 6.06996C151.234 5.64472 151.632 5.26063 152.092 4.81481C152.553 5.26063 152.958 5.64472 153.418 6.09053C153.006 6.51577 152.635 6.89986 152.23 7.3251C151.577 7.10562 151.268 6.56378 150.808 6.07681L150.801 6.06996Z" fill="white"/>
<path d="M151.989 4.84225C151.55 4.38958 151.172 3.99863 150.787 3.60082C151.144 3.01783 151.563 2.62003 152.106 2.31824C152.498 2.72291 152.965 3.03155 153.226 3.55281C152.93 4.07407 152.484 4.41701 151.989 4.84225Z" fill="white"/>
<path d="M54.4714 3.47051C54.389 3.64198 54.3752 3.72428 54.3203 3.77915C53.9974 4.11523 53.6676 4.44445 53.3241 4.79424C52.7471 4.50617 52.4242 4.01235 51.957 3.5391C52.3898 3.09328 52.7608 2.70919 53.1249 2.33196C53.7363 2.5583 54.0455 3.04527 54.4714 3.47051Z" fill="white"/>
<path d="M226.556 7.82579C227.098 8.06585 227.353 8.49794 227.696 8.79973C227.655 9.41701 227.483 9.65021 226.611 10.2263C226.095 9.97943 225.786 9.49246 225.354 9.08093C225.656 8.57339 226.102 8.23045 226.556 7.81893V7.82579Z" fill="white"/>
<path d="M53.0215 7.2428C52.7055 6.90672 52.2796 6.63923 52.0254 6.10425C52.4101 5.70644 52.7948 5.30864 53.2345 4.84911C53.6742 5.27435 54.0726 5.65843 54.4436 6.02194C54.107 6.8107 53.6329 7.20164 53.0146 7.23594L53.0215 7.2428Z" fill="white"/>
<path d="M32.1166 20.4938V21.6735H6.80804V20.4938H0V40H38.9109C38.9178 39.7805 38.9384 39.561 38.9384 39.3416C38.9384 33.059 38.9384 26.7764 38.9384 20.4938H32.1235H32.1166Z" fill="black"/>
<path d="M6.80804 19.4719C7.72173 19.3621 8.64916 19.4376 9.56973 19.4239C10.504 19.4102 11.4383 19.4239 12.3726 19.4239H32.1166V20.5007H38.9315C38.9315 14.273 38.9315 8.05213 38.9315 1.82442C38.9315 1.74211 38.9315 1.65981 38.9315 1.5775C38.9178 1.39232 38.8972 1.21399 38.8697 1.00137H37.9217C29.7877 1.00137 21.6538 1.00137 13.5199 1.00137C9.01327 1.00137 4.50663 1.00137 0 0.994514V20.5007H6.80804V19.4787V19.4719Z" fill="#EC2127"/>
</g>
<defs>
<clipPath id="clip0_403_3047">
<rect width="261" height="40" fill="white"/>
</clipPath>
</defs>
</svg>
