<svg width="70" height="40" viewBox="0 0 70 40" fill="none" xmlns="http://www.w3.org/2000/svg">
<path d="M11.6223 8.30877C18.0413 8.30877 23.247 13.5205 23.247 19.9602V31.1158H16.5713V19.9556C16.5713 17.207 14.357 14.9801 11.6177 14.9801C8.88067 14.9801 6.657 17.207 6.657 19.9556C6.657 22.6994 8.883 24.9193 11.6177 24.9193H16.5713L10.3973 31.5415C4.55233 30.9263 0 25.9766 0 19.9579C0 13.5205 5.20567 8.30877 11.6223 8.30877ZM26.3433 0H33.2967V31.1018H26.3433V0ZM36.6893 0H43.6357V31.1018H36.6893V0ZM69.5333 8.62456L57.8923 39.6795H50.6473L54.2033 30.9988L45.6447 8.6269H52.9293L57.6683 22.5146L62.2277 8.6269C62.23 8.62456 69.5333 8.62456 69.5333 8.62456Z" fill="white"/>
</svg>
