<svg width="143" height="39" viewBox="0 0 143 39" fill="none" xmlns="http://www.w3.org/2000/svg">
<path d="M137.423 28.4286H133.276C132.418 28.4286 131.703 27.8571 131.703 27.1429C131.703 26.2857 132.418 25.8571 133.276 25.8571H140.855L142.571 22H133.276C129.415 22 127.27 24.2857 127.27 27.2857C127.27 30.4286 129.415 32.2857 132.704 32.2857H136.851C137.709 32.2857 138.424 32.8571 138.424 33.5714C138.424 34.2857 137.852 34.8571 136.851 34.8571H127.699V38.7143H136.851C140.712 38.7143 142.857 36.4286 142.857 33.2857C142.857 30.1429 140.855 28.4286 137.423 28.4286ZM120.692 28.4286H116.545C115.687 28.4286 114.972 27.8571 114.972 27.1429C114.972 26.2857 115.687 25.8571 116.545 25.8571H124.124L125.84 22H116.545C112.684 22 110.539 24.2857 110.539 27.2857C110.539 30.4286 112.684 32.2857 115.973 32.2857H120.12C120.978 32.2857 121.693 32.8571 121.693 33.5714C121.693 34.2857 121.121 34.8571 120.12 34.8571H110.968V38.7143H120.12C123.981 38.7143 126.126 36.4286 126.126 33.2857C126.269 30.1429 124.267 28.4286 120.692 28.4286ZM94.237 38.8571H108.537V35H98.813V32.2857H108.394V28.4286H98.813V25.7143H108.537V21.8571H94.237V38.8571ZM85.371 29.1429H80.652V25.7143H85.371C86.658 25.7143 87.373 26.5714 87.373 27.4286C87.373 28.4286 86.658 29.1429 85.371 29.1429ZM91.949 27.2857C91.949 24 89.661 21.8571 85.943 21.8571H76.076V38.8571H80.652V33H82.368L87.516 38.8571H92.95L87.373 32.7143C90.233 32 91.949 30 91.949 27.2857ZM67.496 29.4286H62.634V25.7143H67.496C68.783 25.7143 69.498 26.5714 69.498 27.5714C69.498 28.5714 68.926 29.4286 67.496 29.4286ZM68.068 21.8571H58.201V38.8571H62.777V33.2857H68.068C71.929 33.2857 74.217 30.8571 74.217 27.5714C74.074 24.1429 71.786 21.8571 68.068 21.8571ZM57.343 21.8571H51.48L47.19 27L42.757 21.8571H36.751L44.33 30.2857L36.608 38.8571H42.471L47.047 33.4286L51.623 38.8571H57.629L49.907 30.1429L57.343 21.8571ZM21.736 38.8571H36.036V35H26.169V32.2857H35.75V28.4286H26.169V25.7143H36.036V21.8571H21.736V38.8571ZM135.707 10.4286L128.7 0.142857H122.98V17H127.556V6.28571L134.706 17H140.14V0.142857H135.707V10.4286ZM109.395 9.85714L111.826 4.14286L114.257 9.85714H109.395ZM108.823 0.142857L101.387 17.1429H106.392L107.822 13.7143H115.687L117.117 17.1429H122.265L114.686 0.142857H108.823ZM93.951 8.71429V8.42857C93.951 5.85714 95.381 4.14286 98.241 4.14286H103.246V0H97.812C92.235 0 89.375 3.57143 89.375 8.28571V8.57143C89.375 13.8571 92.664 16.8571 97.669 16.8571H99.242L101.101 13H98.384C95.667 13.1429 93.951 11.5714 93.951 8.71429ZM82.511 0.142857V17H87.087V0.142857H82.511ZM73.645 7.28571H68.926V3.85714H73.645C74.932 3.85714 75.647 4.71429 75.647 5.57143C75.647 6.57143 74.932 7.28571 73.645 7.28571ZM80.223 5.57143C80.223 2.28571 77.935 0.142857 74.217 0.142857H64.35V17.1429H68.926V11.1429H70.642L75.79 17H81.367L75.647 10.8571C78.507 10.2857 80.223 8.14286 80.223 5.57143ZM47.047 17H61.347V13.1429H51.623V10.4286H61.061V6.57143H51.623V3.85714H61.347V0.142857H47.047V17ZM32.604 10.7143L28.743 0.142857H21.736V17H26.169V4.85714L30.602 17H34.606L39.039 4.85714V17H43.615V0.142857H36.465L32.604 10.7143ZM8.008 9.85714L10.439 4.14286L12.87 9.85714H8.008ZM7.436 0.142857L0 17H5.005L6.435 13.5714H14.3L15.73 17H20.878L13.299 0.142857H7.436Z" fill="white"/>
</svg>
