<svg width="395" height="40" viewBox="0 0 395 40" fill="none" xmlns="http://www.w3.org/2000/svg">
<path d="M358.408 39.5068C369.929 29.6438 386.113 20.0548 395 16.6027C393.629 15.726 391.489 14.4658 389.075 13.0959C377.61 16.8767 364.223 25.2603 352.264 34.7397C354.294 36.274 356.433 37.863 358.408 39.5068Z" fill="white"/>
<path d="M353.141 12.7123C351.441 11.8904 349.575 11.1233 348.149 10.4658C343.815 12.6027 338.164 15.8356 331.032 20.9315C332.568 21.7534 334.214 22.7397 335.97 23.726C341.456 19.6712 346.997 15.8356 353.141 12.7123Z" fill="white"/>
<path d="M363.4 8C361.315 6.84932 354.074 4.16438 349.081 3.0137C347.6 3.56164 345.515 4.38356 344.089 4.9863C345.899 5.47945 352.647 7.28767 358.408 10.1918C359.889 9.47945 361.974 8.60274 363.4 8Z" fill="white"/>
<path d="M338.878 7.28767C332.459 10.2466 325.711 14.3014 322.035 16.6575C323.352 17.2603 324.668 17.7534 326.479 18.6301C334.598 13.1507 340.962 9.80822 343.486 8.71233C341.675 8.05479 339.975 7.61644 338.878 7.28767Z" fill="white"/>
<path d="M368.228 6.30137C369.709 5.80822 371.41 5.36986 372.891 4.93151C368.612 3.12329 363.236 1.20548 358.408 0C357.64 0.219178 355.336 0.821918 353.745 1.31507C355.391 1.80822 360.822 3.06849 368.228 6.30137ZM341.182 26.9041C342.937 27.9452 344.802 29.3699 346.613 30.5753C358.627 21.2603 370.477 14.0822 383.48 10.0274C381.669 9.09589 380.078 8.27397 378.048 7.28767C370.258 9.26027 356.927 14.5753 341.182 26.9041Z" fill="white"/>
<path d="M0 36.6575H8.77778C13.2215 36.6575 15.3062 34.3562 15.3062 31.1233C15.3062 28.4931 13.9347 26.7397 11.0819 26.1918C13.6056 25.589 14.7576 24.0548 14.7576 21.8082C14.7576 18.9589 12.6729 16.6575 8.22917 16.6575H0.0548611V36.6575H0ZM7.62569 28.1644C9.27153 28.1644 10.4236 28.9863 10.4236 30.6301C10.4236 32.3836 9.32639 33.0959 7.62569 33.0959H4.77292V28.1096H7.62569V28.1644ZM7.07708 20.1644C8.72292 20.1644 9.875 20.8767 9.875 22.5205C9.875 24.1644 8.77778 24.8767 7.07708 24.8767H4.77292V20.1644H7.07708ZM33.0264 16.6027H28.0889L20.5729 36.6575H25.5653L26.9368 32.4931H34.1785L35.55 36.6575H40.5972L33.0264 16.6027ZM30.5576 21.4247L32.9167 28.8219H28.0889L30.5576 21.4247ZM65.6139 16.6027H61.0604V30.0274L52.5021 16.6027H47.4V36.6575H51.9535V23.2877L60.5118 36.6575H65.6139V16.6027ZM86.6257 36.6575L80.0424 26.4658V36.6575H75.1597V16.6027H80.0424V26.2466L86.2965 16.6027H91.7278L85.1444 26.2466L92.3313 36.6575H86.6257ZM109.613 26.6301C109.613 30.6301 112.026 33.0959 115.153 33.0959C118.281 33.0959 120.694 30.6301 120.694 26.6301C120.694 22.6301 118.281 20.1644 115.153 20.1644C112.026 20.1644 109.613 22.6301 109.613 26.6301ZM104.456 26.6301C104.51 20.7671 108.625 16.1644 115.153 16.1644C121.682 16.1644 125.797 20.7671 125.851 26.6301C125.797 32.4931 121.682 37.0959 115.153 37.0959C108.625 37.0959 104.51 32.4931 104.456 26.6301ZM132.544 36.6575H137.427V28.7671H143.791V24.9315H137.427V20.4384H145.108L145.985 16.6027H132.544V36.6575ZM168.753 16.6027H163.815L156.299 36.6575H161.292L162.663 32.4931H169.905L171.276 36.6575H176.324L168.753 16.6027ZM166.284 21.4247L168.643 28.8219H163.815L166.284 21.4247ZM205.29 16.6027H199.585L194.373 27.4521L189.161 16.6027H183.456V36.6575H187.844V23.2329L194.318 36.6575L200.792 23.2329V36.6575H205.345L205.29 16.6027ZM214.781 36.6575H228.497V32.8219H219.664V28.3288H226.631V24.6027H219.664V20.4384H227.728L228.606 16.6027H214.781V36.6575ZM247.094 36.6575H252.416L247.424 28.1644C250.167 27.3973 251.483 25.4795 251.483 22.6849C251.483 19.0685 249.289 16.6575 244.351 16.6575H236.616V36.7123H241.389V28.8219H242.706L247.094 36.6575ZM243.419 20.3288C245.449 20.3288 246.491 21.2055 246.491 22.9041C246.491 24.6027 245.449 25.4795 243.419 25.4795H241.334V20.3288H243.419ZM259.712 36.6575H264.595V16.6575H259.712V36.6575ZM288.624 31.2877C286.759 32.6027 285.113 33.0411 283.412 33.0411C279.682 33.0411 277.049 30.4658 277.049 26.6301C277.049 22.7945 279.627 20.2192 283.248 20.2192C284.894 20.2192 286.54 20.6575 288.35 21.9726V17.4247C286.704 16.4932 284.784 16.1096 282.644 16.1096C276.006 16.1096 271.837 20.7123 271.782 26.5753C271.837 32.4932 275.897 37.0411 282.644 37.0411C284.894 37.0411 286.814 36.6575 288.569 35.726V31.2877H288.624ZM306.509 16.6027H301.572L294.056 36.6575H299.048L300.419 32.4931H307.661L309.033 36.6575H314.08L306.509 16.6027ZM304.04 21.4247L306.399 28.8219H301.572L304.04 21.4247Z" fill="white"/>
</svg>
