<svg width="115" height="40" viewBox="0 0 115 40" fill="none" xmlns="http://www.w3.org/2000/svg">
<path d="M12.2389 15.5556C12.2389 17.6445 11.2834 18.8001 8.76667 18.8001H6.61668V12.4167C6.88891 12.3889 7.80002 12.3723 8.07226 12.3723H8.80555C11.3723 12.3723 12.2389 13.4612 12.2389 15.5556ZM17.3501 23.889C17.3501 20.5945 14.6612 19.4001 11.4 19.3278V19.2056C14.1778 18.9778 16.4501 17.8167 16.4501 15.0167C16.4501 11.9 13.8723 11.3167 10.9889 11.3167C7.52224 11.3167 3.45556 11.4112 0 11.3167V12.3889C0.72778 12.3389 2.50556 12.4389 2.50556 13.3556V26.6223C2.50556 27.5112 0.683335 27.6334 0 27.6334V28.6778C3.33335 28.589 7.30557 28.6778 10.6667 28.6778C14.2 28.6778 17.3501 27.4834 17.3501 23.889ZM12.9056 23.5501C12.9056 26.2778 11.9556 27.5723 8.65555 27.5723H6.60002V19.9278H8.78891C11.8056 19.9278 12.9223 20.9445 12.9223 23.5278L12.9056 23.5501Z" fill="white"/>
<path d="M39.7116 28.6501C38.156 28.6501 36.606 28.6501 35.056 28.6778V27.6112C35.7616 27.6112 37.7171 27.5723 37.7171 26.6223V14.3H37.6616L30.6505 28.889H29.806L22.9671 14.2723H22.9171V26.6223C22.9171 27.5945 24.856 27.6112 25.5893 27.6112L25.6227 28.6778C23.6837 28.6167 21.0393 28.5723 19.1338 28.6778V27.6112C19.8727 27.6112 21.5393 27.5501 21.5393 26.6223V13.3334C21.5393 12.4278 19.8171 12.35 19.1338 12.35V11.2778C21.356 11.3723 23.7116 11.3723 25.9171 11.2778L31.7616 23.6056L37.7449 11.3223C39.8671 11.4167 42.2671 11.3889 44.4116 11.2945V12.3667C43.706 12.3667 41.856 12.4167 41.856 13.35V26.6223C41.856 27.5723 43.6838 27.6112 44.4116 27.6112V28.6778C42.8394 28.6334 41.2616 28.6501 39.7116 28.6501Z" fill="white"/>
<path d="M60.7339 19.9667C60.7339 23.3001 60.4062 27.9056 55.4839 27.9056C50.5617 27.9056 50.2061 23.2778 50.2061 19.9667C50.2061 16.6556 50.5617 12.0612 55.4839 12.0612C60.4062 12.0612 60.7339 16.6667 60.7339 19.9667ZM65.3339 19.9667C65.3339 14.2167 61.8229 10.9889 55.4839 10.9889C49.145 10.9889 45.6006 14.1889 45.6006 19.9667C45.6006 25.7445 49.1172 28.9667 55.4839 28.9667C61.8506 28.9667 65.3339 25.7501 65.3339 19.9667Z" fill="white"/>
<path d="M94.7718 0C100.077 8.92126e-05 105.163 2.10676 108.914 5.85742C112.665 9.60811 114.772 14.6957 114.772 20C114.772 23.9556 113.598 27.8224 111.401 31.1113C109.203 34.4003 106.079 36.9638 102.425 38.4775C98.7707 39.9913 94.7495 40.3879 90.8695 39.6162C86.9897 38.8445 83.4269 36.9394 80.6302 34.1426C77.8329 31.3455 75.9273 27.7818 75.1556 23.9023C74.3839 20.0227 74.7806 16.0012 76.2943 12.3467C77.808 8.69221 80.3717 5.56872 83.6605 3.37109C86.9493 1.17345 90.8166 0 94.7718 0ZM99.4447 9.0498C99.3256 9.05085 99.208 9.07896 99.1009 9.13184C98.9945 9.18472 98.9003 9.26131 98.8275 9.35547L95.3832 13.8887C95.312 13.9827 95.219 14.0592 95.1126 14.1113C95.0071 14.1634 94.8902 14.1894 94.7718 14.1885C94.6543 14.1881 94.5375 14.1613 94.432 14.1094C94.3264 14.0575 94.2333 13.9817 94.1605 13.8887L90.6888 9.36133C90.6168 9.26621 90.5228 9.18878 90.4164 9.13574C90.3092 9.08281 90.1915 9.0555 90.0716 9.05566C89.9558 9.05507 89.8415 9.08085 89.7376 9.13184C89.6338 9.1829 89.5424 9.2576 89.472 9.34961L85.3392 14.5557V22.7168H85.3226V28.7061H104.211V22.7168H85.3441L89.4603 17.4502C89.5354 17.3553 89.631 17.2785 89.7396 17.2256C89.8483 17.1727 89.9676 17.1448 90.0882 17.1445C90.2106 17.1441 90.3321 17.1716 90.4417 17.2256C90.5521 17.2795 90.6476 17.359 90.722 17.4561L94.2113 22.0166C94.2768 22.1022 94.3605 22.1728 94.4564 22.2227C94.5523 22.2725 94.6581 22.3007 94.766 22.3057C94.8748 22.3019 94.9805 22.2736 95.0765 22.2236C95.1725 22.1736 95.257 22.1031 95.3226 22.0166L98.8109 17.4561C98.8861 17.3599 98.9825 17.2814 99.0921 17.2275C99.2017 17.1738 99.3224 17.1453 99.4447 17.1445C99.5655 17.1434 99.6855 17.1706 99.7943 17.2236C99.9031 17.2766 99.998 17.3542 100.072 17.4502L104.183 22.7168V14.5498L100.049 9.34473C99.978 9.25255 99.8863 9.17798 99.7816 9.12695C99.6768 9.07583 99.5607 9.04916 99.4447 9.0498ZM85.3392 22.7227V22.7168H85.3441L85.3392 22.7227Z" fill="white"/>
</svg>
