<svg width="111" height="41" viewBox="0 0 111 41" fill="none" xmlns="http://www.w3.org/2000/svg">
<path d="M75.328 28.9386H75.3014C70.5746 32.2986 64.998 35.8186 58.9701 39.5253L58.7311 39.6586C58.705 39.6694 58.6817 39.6859 58.663 39.707C58.6442 39.7281 58.6305 39.7532 58.6228 39.7804C58.6152 39.8076 58.6137 39.8362 58.6187 39.864C58.6236 39.8919 58.6348 39.9182 58.6513 39.9411C58.6679 39.964 58.6894 39.9828 58.7143 39.996C58.7391 40.0093 58.7667 40.0168 58.7948 40.0178C58.8229 40.0189 58.8509 40.0135 58.8767 40.0021C58.9025 39.9907 58.9253 39.9735 58.9435 39.952L59.1294 39.8453C64.2545 37.1786 70.1232 34.0053 76.0184 30.7253L76.1246 30.672C75.7766 30.1361 75.5083 29.5522 75.328 28.9386ZM106.344 3.71196C98.9088 -4.52804 50.9504 2.88529 30.5827 7.36529L30.1047 7.47196C30.058 7.48405 30.0168 7.51177 29.9878 7.55055C29.9588 7.58932 29.9439 7.63685 29.9454 7.68529C29.948 7.70938 29.956 7.73256 29.9688 7.75308C29.9816 7.77361 29.9989 7.79095 30.0194 7.80379C30.0398 7.81663 30.0629 7.82463 30.0869 7.8272C30.1109 7.82977 30.1352 7.82684 30.1579 7.81862L30.6358 7.73863C47.5248 4.72529 82.6571 0.538626 90.1988 8.05863C92.5091 10.352 91.9779 13.312 89.2959 16.8053C90.7764 17.7766 91.8237 19.2872 92.2169 21.0186C102.653 14.0586 109.664 7.39196 106.344 3.71196Z" fill="white"/>
<path d="M35.309 22.4853C34.7265 22.4871 34.1595 22.6738 33.6891 23.0186C33.2071 23.4224 32.8942 23.9936 32.8128 24.6186C32.6535 25.4453 32.7331 26.0053 33.0518 26.3786C33.2374 26.5598 33.4581 26.7006 33.7002 26.7924C33.9424 26.8841 34.2007 26.9248 34.4592 26.912C34.8616 26.9201 35.2607 26.8381 35.6276 26.672C35.9818 26.5075 36.2847 26.2494 36.5039 25.9253C36.7523 25.5545 36.9239 25.1374 37.0085 24.6986C37.1413 23.952 37.035 23.4186 36.6898 23.0453C36.5136 22.8573 36.2989 22.7099 36.0605 22.6132C35.8222 22.5166 35.5658 22.4729 35.309 22.4853ZM27.0504 32.832L29.2544 20.352H33.2377L32.919 21.952C33.3552 21.4041 33.9344 20.9886 34.592 20.752C35.4105 20.4162 36.2838 20.2354 37.1678 20.2186C38.2035 20.2186 38.8408 20.272 39.6109 20.672C40.341 21.0399 40.9089 21.6672 41.2042 22.432C41.5171 23.2381 41.5909 24.118 41.4166 24.9653C41.3061 25.6928 41.0518 26.3908 40.6688 27.0182C40.2857 27.6456 39.7815 28.1898 39.186 28.6186C37.9645 29.4986 36.8757 29.7386 35.309 29.7386C34.8349 29.7474 34.3617 29.6936 33.9015 29.5786C33.5849 29.5095 33.2805 29.3926 32.9987 29.232C32.7233 29.0325 32.4736 28.7997 32.2551 28.5386L31.5116 32.832H27.0504ZM73.0171 29.6053H68.3965L70.7334 16.6453L75.2212 16.752L73.0171 29.6053ZM49.9673 20.2453L50.286 18.352L55.0128 17.3386L54.5082 20.2453H56.8451L56.3937 22.1386H54.1365L52.7822 29.6053H48.1881L49.569 22.1386H47.8429L48.1881 20.272H49.9673V20.2453ZM13.1621 26.272C11.9246 26.55 10.6593 26.6842 9.39126 26.672C7.2403 26.672 5.51422 25.6053 5.62044 23.6053C5.67355 22.2986 7.2403 19.5253 11.1704 19.5253C12.4153 19.4964 13.6419 19.8298 14.7023 20.4853L15.2599 17.2586C13.8428 16.6934 12.3217 16.4389 10.7987 16.512C5.62044 16.5653 0.654654 18.912 0.0438888 23.712C-0.566877 28.512 5.35489 29.8186 7.98384 29.8186C9.49748 29.8186 11.0908 29.7386 12.5513 29.6053L13.1621 26.272ZM63.537 25.3386L62.7669 25.552L60.9877 25.872C60.5668 25.9066 60.1588 26.034 59.7927 26.2453C59.6858 26.3057 59.5943 26.3901 59.5252 26.4918C59.4561 26.5936 59.4113 26.71 59.3944 26.832C59.3626 26.9503 59.3686 27.0757 59.4115 27.1905C59.4543 27.3053 59.5319 27.4037 59.6334 27.472C59.8724 27.632 60.2441 27.6853 60.7752 27.6853C61.1702 27.6864 61.5634 27.6326 61.9437 27.5253C62.293 27.4226 62.6181 27.2503 62.8996 27.0186C63.0857 26.8546 63.2235 26.6425 63.298 26.4053C63.4099 26.0578 63.4899 25.7008 63.537 25.3386ZM68.4231 22.272C68.3965 22.7253 68.3169 23.152 68.2106 23.8186L67.3874 28.4853C67.3436 28.673 67.3644 28.8701 67.4464 29.0444C67.5284 29.2187 67.6667 29.36 67.8389 29.4453V29.6053H63.0855V28.4053C62.3703 28.8326 61.6026 29.1643 60.8018 29.392C60.056 29.5837 59.2878 29.6734 58.5181 29.6586C57.0044 29.6586 56.1281 29.4986 55.5173 28.9653C54.9066 28.432 54.6145 28.0586 54.641 27.312C54.6913 26.801 54.895 26.3174 55.2252 25.9253C55.5725 25.5442 55.9984 25.2439 56.4733 25.0453C57.0726 24.7763 57.7078 24.5967 58.3587 24.512C59.2085 24.3786 60.3769 24.2453 61.9437 24.112C62.4694 24.0609 62.9867 23.9445 63.4838 23.7653C63.8025 23.632 63.9353 23.4986 63.9884 23.232C64.0415 22.9653 63.9353 22.4853 63.298 22.352C61.5984 22.0053 58.4118 22.5653 56.7654 22.9653L57.6417 20.5653C59.7412 20.23 61.8626 20.0517 63.9884 20.032C67.3609 20.0586 68.4496 21.0453 68.4231 22.272ZM41.2838 29.6053L42.9303 20.2986H47.4712L45.8248 29.6053H41.2838ZM43.1958 18.1653C43.3286 17.392 44.5236 16.7786 45.8779 16.7786C47.2322 16.7786 48.1881 17.392 48.0554 18.1653C47.9226 18.9386 46.7276 19.552 45.3733 19.552C44.019 19.552 43.063 18.912 43.1958 18.1653ZM22.6953 25.312C22.4477 25.4128 22.1893 25.4844 21.9252 25.5253L20.1726 25.8453C19.7427 25.876 19.3251 26.0036 18.9511 26.2186C18.8435 26.2848 18.752 26.3741 18.6831 26.4802C18.6142 26.5863 18.5697 26.7065 18.5527 26.832C18.5254 26.9493 18.5365 27.0723 18.5843 27.1828C18.6322 27.2933 18.7142 27.3854 18.8183 27.4453C19.1577 27.6358 19.5463 27.7194 19.9336 27.6853C20.3298 27.6774 20.723 27.6146 21.102 27.4986C21.4513 27.396 21.7765 27.2236 22.058 26.992C22.2441 26.8279 22.3819 26.6158 22.4563 26.3786C22.5852 26.036 22.6657 25.677 22.6953 25.312ZM27.5815 22.272C27.5549 22.7253 27.4752 23.1253 27.369 23.8186L26.5458 28.4586C26.502 28.6463 26.5228 28.8434 26.6048 29.0177C26.6867 29.192 26.8251 29.3334 26.9972 29.4186V29.6053H22.2439V28.432C21.5223 28.8398 20.7559 29.162 19.9602 29.392C19.2244 29.5916 18.4651 29.6903 17.703 29.6853C16.1628 29.6853 15.2865 29.5253 14.7023 28.992C14.1181 28.4586 13.7728 28.0853 13.7994 27.312C13.8564 26.8107 14.0597 26.3376 14.3836 25.952C14.7293 25.5625 15.1552 25.2531 15.6317 25.0453C16.2433 24.7852 16.886 24.6059 17.5437 24.512C18.3669 24.3786 19.5353 24.2453 21.102 24.112C21.6327 24.096 22.1555 23.9783 22.6422 23.7653C22.9874 23.632 23.0937 23.4986 23.1468 23.232C23.1999 22.9653 23.0937 22.4853 22.4563 22.352C20.7568 22.032 17.5702 22.5653 15.9238 22.992L16.8001 20.5653C18.8997 20.2311 21.021 20.0528 23.1468 20.032C26.5192 20.032 27.608 21.0186 27.5815 22.272Z" fill="white"/>
<path d="M91.4995 23.5253L92.5351 23.4186C92.8803 23.4186 93.1724 23.4986 93.199 23.8186C93.2256 24.1386 92.8538 25.4186 92.7741 25.7653L92.0571 28.8853C91.7916 30.1653 91.4729 31.4986 91.2074 32.5653H93.0131L94.0222 27.6053C97.1557 24.352 98.3507 23.2853 99.0677 23.2853C99.1464 23.2769 99.2261 23.2863 99.3008 23.3128C99.3754 23.3393 99.4433 23.3823 99.4993 23.4385C99.5553 23.4948 99.5981 23.5629 99.6245 23.6379C99.6509 23.7129 99.6602 23.7929 99.6519 23.872C99.6784 24.432 99.3067 25.7386 99.2004 26.112L98.1382 29.712C97.9258 30.5386 97.7399 31.2586 97.7665 31.792C97.793 32.3253 98.271 32.9386 98.9614 32.9386C100.289 32.9386 101.272 31.552 102.095 30.192L101.856 29.7386C101.511 30.272 100.741 31.472 100.103 31.472C99.9174 31.472 99.7315 31.3386 99.7315 31.0186C99.753 30.5199 99.8423 30.0264 99.9971 29.552L101.166 25.312C101.458 24.1386 101.617 23.392 101.617 22.992C101.617 22.592 101.112 21.8453 100.422 21.8453C99.227 21.8453 97.6337 22.7253 94.2878 26.592H94.2346L94.6595 24.6986C94.8985 23.6586 95.111 22.592 95.3234 21.8453C94.0652 22.2943 92.7789 22.6595 91.4729 22.9386L91.4995 23.5253ZM109.265 23.632C109.238 22.8853 108.866 22.3786 108.096 22.3786C106.238 22.3786 104.272 26.032 103.927 27.4986C106.955 27.4986 109.344 25.6853 109.265 23.632ZM109.663 29.3653L110.008 29.6053C109.105 31.4453 107.273 32.9386 105.096 32.9386C103.316 32.9386 101.882 31.7653 101.803 29.552C101.643 25.552 105.388 21.8453 108.415 21.8453C109.716 21.8453 110.938 22.432 110.991 23.8453C111.097 27.0186 106.662 27.9786 103.741 28.032C103.646 28.4152 103.61 28.811 103.635 29.2053C103.688 30.5386 104.485 31.632 106.105 31.632C107.725 31.632 108.946 30.4853 109.663 29.3653ZM78.3547 26.7786C78.4344 29.6853 80.2667 32.0586 82.6567 32.0586C87.2772 32.0586 89.2423 26.352 89.1095 22.5386C89.0033 19.632 87.1445 17.2586 84.7545 17.2586C80.7713 17.2586 78.1954 22.9386 78.3547 26.7786ZM75.9117 26.6186C75.7258 21.6586 79.6028 16.592 85.2059 16.592C88.9768 16.592 91.4198 19.1253 91.5526 22.9653C91.7385 28.192 88.127 32.992 82.2583 32.992C78.4875 32.992 76.0445 30.4853 75.9117 26.6186Z" fill="white"/>
</svg>
