<svg width="210" height="40" viewBox="0 0 210 40" fill="none" xmlns="http://www.w3.org/2000/svg">
<g clip-path="url(#clip0_358_3576)">
<path fill-rule="evenodd" clip-rule="evenodd" d="M132.913 4.77051V35.2093H158.951L155.668 29.8533H138.872V22.1383H155.134V16.9745H138.872V10.0064H155.632L158.873 4.77051H132.913Z" fill="white"/>
<path fill-rule="evenodd" clip-rule="evenodd" d="M9.67862 4.77051C3.50474 4.77051 0.383789 8.64194 0.383789 14.2901V25.6492C0.383789 32.1737 4.40004 35.2223 9.64282 35.2223L28.263 35.215L24.8125 29.6518H10.7959C7.81644 29.6518 6.51827 28.5443 6.51827 25.102V14.7911C6.51827 11.4614 7.61411 10.1617 10.8783 10.1617H24.9593L28.2718 4.77051H9.67862Z" fill="white"/>
<path fill-rule="evenodd" clip-rule="evenodd" d="M106.876 4.76238C103.307 4.76238 99.6544 6.97911 99.6544 12.6679V14.1285C99.6544 20.0558 103.171 22.3187 106.69 22.3465H119.036C120.323 22.3465 121.36 22.561 121.36 24.7962V27.3827C121.326 29.396 120.357 29.8527 118.994 29.8527H102.75L99.4199 35.2087H119.378C124.189 35.2087 127.453 32.7387 127.453 27.0277V24.933C127.453 19.418 124.413 16.8018 119.712 16.8018H107.923C106.616 16.8018 105.705 16.445 105.705 14.4354L105.703 12.3333C105.703 10.6305 106.335 10.0093 107.857 10.0093L123.315 9.99823L126.552 4.76053L106.876 4.76238Z" fill="white"/>
<path fill-rule="evenodd" clip-rule="evenodd" d="M77.1579 4.78049L63.1699 35.2175H69.7771L72.5024 28.9408H87.6971L90.4062 35.2175H97.0439L83.0381 4.78049H77.1579ZM80.0819 11.1016L85.4589 23.7512H74.7424L80.0819 11.1016Z" fill="white"/>
<path fill-rule="evenodd" clip-rule="evenodd" d="M183.738 0C182.977 0 182.37 0.634143 182.37 1.41989V11.3111H207.693L196.158 0H183.738Z" fill="white"/>
<path fill-rule="evenodd" clip-rule="evenodd" d="M208.621 14.3134C208.621 13.5277 208.015 12.8972 207.25 12.8972H197.675V39.0432L208.621 27.1387V14.3134Z" fill="white"/>
<path fill-rule="evenodd" clip-rule="evenodd" d="M194.755 40C195.507 40 196.13 39.3658 196.13 38.5838V28.6927H170.804L182.332 39.9982L194.755 40Z" fill="white"/>
<path fill-rule="evenodd" clip-rule="evenodd" d="M169.873 25.697C169.873 26.4735 170.491 27.1038 171.245 27.1038H180.828V0.956116L169.883 12.868L169.873 25.697Z" fill="white"/>
<path fill-rule="evenodd" clip-rule="evenodd" d="M53.9649 4.77051V16.847H37.6725V4.77051H31.7422V35.2223H37.6725V22.1383H53.9649V35.2223H59.9114V4.77051H53.9649Z" fill="white"/>
</g>
<defs>
<clipPath id="clip0_358_3576">
<rect width="210" height="40" fill="white"/>
</clipPath>
</defs>
</svg>
