<svg width="68" height="40" viewBox="0 0 68 40" fill="none" xmlns="http://www.w3.org/2000/svg">
<g clip-path="url(#clip0_358_3586)">
<path d="M66.205 26.9675H66.4025C66.627 26.9675 66.8174 26.8859 66.8174 26.674C66.8174 26.5236 66.7075 26.3725 66.4025 26.3725C66.3133 26.3725 66.2519 26.3805 66.205 26.3861V26.9675ZM66.205 27.9168H65.9326V26.2029C66.0759 26.1813 66.2113 26.1613 66.4152 26.1613C66.674 26.1613 66.8437 26.2157 66.9464 26.2917C67.0483 26.3661 67.1025 26.4828 67.1025 26.646C67.1025 26.8715 66.9528 27.0091 66.7688 27.0626V27.077C66.9185 27.1034 67.0205 27.2402 67.0555 27.4929C67.0953 27.76 67.1367 27.8624 67.1638 27.9168H66.8787C66.8373 27.8624 66.7967 27.7048 66.7624 27.4801C66.7218 27.261 66.6127 27.1802 66.3953 27.1802H66.205V27.9168ZM66.4901 25.7239C65.8171 25.7239 65.266 26.3045 65.266 27.0227C65.266 27.7536 65.8171 28.327 66.4972 28.327C67.1773 28.3334 67.7221 27.7536 67.7221 27.0291C67.7221 26.3045 67.1773 25.7239 66.4972 25.7239H66.4901ZM66.4972 25.4847C67.3342 25.4847 68 26.1677 68 27.0227C68 27.8896 67.3342 28.5654 66.4901 28.5654C65.6539 28.5654 64.9738 27.8896 64.9738 27.0227C64.9738 26.1677 65.6539 25.4847 66.4901 25.4847H66.4972ZM54.3766 11.0709H54.187C54.6282 10.5671 54.9969 9.96725 55.2749 9.29866H55.8992C55.5106 9.98725 54.9922 10.5879 54.3766 11.0709ZM53.7984 11.4732L53.7968 11.474C53.7968 11.474 53.7968 11.4732 53.7984 11.4732ZM47.6678 11.4732L47.6686 11.474C47.6686 11.4732 47.6686 11.4732 47.6678 11.4732ZM45.5662 9.29866H46.1898C46.4677 9.96725 46.838 10.5671 47.28 11.0709H47.0897C46.4741 10.5879 45.954 9.98725 45.5662 9.29866ZM47.0873 1.67387H47.2808C46.9519 2.04815 46.658 2.47682 46.4151 2.95427L46.4096 2.95347L46.3243 3.13421L46.2383 3.31575L46.2447 3.31815C46.2248 3.36054 46.2057 3.40293 46.1882 3.44611H45.5662C45.6705 3.26217 45.7812 3.08143 45.9031 2.90948C46.2415 2.43683 46.6405 2.02256 47.0873 1.67387ZM53.7984 1.2724L53.7968 1.2716C53.7968 1.2716 53.7984 1.2716 53.7984 1.2724ZM55.8992 3.44611H55.2749C54.9969 2.77672 54.6282 2.17771 54.187 1.67387H54.3766C54.9922 2.15772 55.5106 2.75913 55.8992 3.44611ZM55.8459 6.57312H56.6606C56.6335 7.40006 56.4384 8.18781 56.1063 8.89799H55.4294C55.6794 8.18142 55.8244 7.39526 55.8459 6.57312ZM53.4591 8.89799C53.5985 8.18462 53.6789 7.40006 53.6909 6.57312H55.4445C55.423 7.40006 55.2685 8.18781 55.0065 8.89799H53.4591ZM52.5282 11.4732H53.1852C52.8316 11.7451 52.4501 11.9594 52.0432 12.1082C52.2136 11.9298 52.376 11.7163 52.5282 11.4732ZM48.9381 11.4732C49.0878 11.7163 49.2503 11.9298 49.4223 12.1082C49.0177 11.9594 48.6331 11.7451 48.2811 11.4732H48.9381ZM46.0193 6.57312H47.7754C47.7865 7.40006 47.8685 8.18462 48.0079 8.89799H46.4597C46.1961 8.18781 46.0416 7.40006 46.0193 6.57312ZM45.6196 6.17165H44.8072C44.8319 5.35911 45.0215 4.57296 45.3599 3.84838H46.0353C45.7812 4.57935 45.6419 5.36791 45.6196 6.17165ZM48.0111 3.84838C47.8685 4.57855 47.7873 5.36791 47.7754 6.17165H46.0217C46.0432 5.36391 46.1921 4.57456 46.4597 3.84838H48.0111ZM52.5282 1.2724C52.376 1.02848 52.2136 0.814943 52.0432 0.636599C52.4501 0.786152 52.8316 1.00048 53.1852 1.2724H52.5282ZM50.9322 6.17165V3.84838H53.0434C53.1907 4.56176 53.276 5.34871 53.2895 6.17165H50.9322ZM50.9322 8.89799V6.57312H53.2895C53.276 7.39526 53.1907 8.18462 53.0434 8.89799H50.9322ZM50.9322 11.0709V9.29866H52.951C52.7814 9.98325 52.556 10.5855 52.29 11.0709H50.9322ZM50.9322 11.4732H52.0424C51.7119 11.945 51.3336 12.2473 50.9322 12.3233V11.4732ZM50.5324 11.4732V12.3233C50.1318 12.2473 49.7536 11.945 49.4223 11.4732H50.5324ZM50.5324 9.29866V11.0709H49.1754C48.9102 10.5855 48.6832 9.98325 48.5128 9.29866H50.5324ZM50.5324 6.57312V8.89799H48.422C48.2755 8.18462 48.1879 7.39526 48.1767 6.57312H50.5324ZM50.5324 3.84838V6.17165H48.1767C48.1879 5.36631 48.2707 4.57615 48.4196 3.84838H50.5324ZM52.29 1.67387C52.556 2.16012 52.7814 2.76313 52.951 3.44611H50.9322V1.67387H52.29ZM50.9322 1.2724V0.422267C51.3336 0.497443 51.7119 0.798948 52.0424 1.2724H50.9322ZM50.5324 0.423066V1.2724H49.4191C49.7591 0.794149 50.139 0.497443 50.5324 0.423066ZM48.9397 1.2724H48.293C48.6426 1.00368 49.0193 0.793349 49.4143 0.645396C49.2463 0.820541 49.0878 1.03087 48.9397 1.2724ZM48.5455 3.30296C48.7111 2.66636 48.9261 2.12013 49.1698 1.67387H50.5324V3.44611H48.5088C48.5216 3.39813 48.5319 3.34854 48.5455 3.30296ZM55.4445 6.17165H53.6909C53.6789 5.34391 53.5985 4.56016 53.4591 3.84838H55.0065C55.2685 4.55776 55.423 5.34391 55.4445 6.17165ZM56.6606 6.17165H55.8459C55.8244 5.34871 55.6794 4.56416 55.4294 3.84838H56.1063C56.4384 4.55776 56.6335 5.34391 56.6606 6.17165ZM54.8416 3.44611H53.3715C53.2146 2.77512 53.0044 2.17691 52.7511 1.67387H53.6375C54.1257 2.15772 54.5366 2.75993 54.8416 3.44611ZM46.6859 3.30536C46.9877 2.66796 47.378 2.12013 47.8319 1.67387H48.7191C48.5247 2.05935 48.3551 2.50641 48.2118 3.00785L48.2102 3.00625L48.1576 3.19979L48.1074 3.39493H48.1114C48.1074 3.41172 48.1027 3.42932 48.0979 3.44611H46.623C46.6445 3.39973 46.6636 3.35254 46.6859 3.30536ZM44.8056 6.57312H45.6188C45.6411 7.39526 45.786 8.18142 46.0353 8.89799H45.3599C45.0278 8.18781 44.8311 7.40006 44.8056 6.57312ZM46.6222 9.29866H48.0923C48.2508 9.96965 48.4618 10.5687 48.7159 11.0709H47.8255C47.3405 10.5871 46.9304 9.98725 46.6222 9.29866ZM53.6375 11.0709H52.7511C53.0044 10.5687 53.2146 9.96965 53.3715 9.29866H54.8416C54.5366 9.98725 54.1257 10.5871 53.6375 11.0709ZM57.0659 6.37239C57.0659 3.05584 54.5255 0.325497 51.2946 0.0391876C51.1098 0.012796 50.9234 0 50.7323 0C50.5539 0 50.3779 0.0143955 50.2027 0.0375881C48.4292 0.187941 46.787 1.08766 45.6992 2.51521L45.6952 2.51121L45.5781 2.67436L45.4627 2.8383L45.4674 2.8431C44.7714 3.88997 44.3995 5.10399 44.3995 6.37239C44.3995 9.68894 46.9399 12.4201 50.1701 12.7064C50.3548 12.732 50.5436 12.7456 50.7323 12.7456C50.9234 12.7456 51.1098 12.732 51.2946 12.7064C54.5255 12.4201 57.0659 9.68894 57.0659 6.37239ZM64.2346 25.7503H0.207933V28.6198H64.2346V25.7503ZM33.9105 1.48897L36.1356 6.07072L38.4316 1.48897H41.3328L37.362 8.55074V12.4063H34.515V8.41398L30.6422 1.48897H33.9105ZM20.0862 1.48897H23.1984L25.5087 9.39767L27.9456 1.48897H30.7489L27.0433 12.4063H23.6778L20.0862 1.48897ZM17.6566 8.20276L16.3457 3.62101H16.3035L14.8963 8.20276H17.6566ZM14.7402 1.48888H18.1774L22.1911 12.4062H19.008L18.3032 10.2133H14.2329L13.5425 12.4062H10.7265L14.7402 1.48888ZM0.208015 1.48897H4.09595L7.53233 9.624L7.50525 1.48897H9.96925V12.4063H6.16653L2.65848 3.9234L2.68715 12.4063H0.208015V1.48897ZM56.8136 13.5648H59.6726V22.3349H64.2366V24.483H56.8136V13.5648ZM51.9818 20.2784L50.6717 15.6982H50.6287L49.2207 20.2784H51.9818ZM49.0654 13.5645H52.5026L56.5171 24.4835H53.3332L52.6292 22.2898H48.5589L47.8692 24.4835H45.0509L49.0654 13.5645ZM38.84 18.2527H39.8968C40.5163 18.2527 40.8261 18.2527 41.0651 18.1623C41.6854 17.9504 41.8121 17.2698 41.8121 16.9219C41.8121 15.5768 40.7131 15.5768 39.8968 15.5768H38.84V18.2527ZM36.0088 13.5646H40.7131C42.5447 13.5646 43.2352 13.6862 43.8412 14.3507C44.1502 14.6842 44.5444 15.2897 44.5444 16.4685C44.5444 17.6633 44.0945 18.1767 43.6151 18.4942C42.9676 18.9333 42.3472 19.0085 42.0653 19.0541V19.114C44.0379 19.1756 44.1502 20.1129 44.3756 21.79C44.4744 22.5322 44.6153 23.711 44.855 24.4836H41.7977C41.6289 23.8174 41.5572 22.9856 41.4601 22.0179C41.3326 20.7023 41.2912 20.2177 40.0234 20.2177H38.84V24.4836H36.0088V13.5646ZM27.5146 13.5951H35.1495V15.6825H30.3043V17.9498H34.8675V20.0371H30.3043V22.3652H35.2625V24.4829H27.5146V13.5951ZM19.6133 22.3808H20.8246C22.6976 22.3648 23.8946 21.5042 23.8946 18.9634C23.8946 15.6517 21.5851 15.6517 20.7258 15.6517L19.6133 15.6357V22.3808ZM16.7256 13.5652H21.0221C22.2326 13.5652 23.8389 13.7003 24.8949 14.4721C26.4024 15.5765 26.8102 17.3751 26.8102 18.9938C26.8102 21.4131 26.0926 23.1973 24.0364 24.0594C22.9931 24.4833 21.7539 24.4833 21.0499 24.4833H16.7256V13.5652ZM8.13359 13.5951H15.7677V15.6825H10.9225V17.9498H15.4858V20.0371H10.9225V22.3652H15.88V24.4829H8.13359V13.5951ZM0.208332 13.5951H7.40522V15.6977H3.01159V18.2377H7.09623V20.3386H3.01159V24.4829H0.208332V13.5951ZM58.8169 33.1406H60.1087V34.1163L60.1326 34.1418C60.5395 33.4101 61.2459 32.9598 62.059 32.9598C63.4001 32.9598 64.2506 33.7308 64.2506 35.2215V39.7817H62.8848V35.607C62.8617 34.5665 62.4787 34.1163 61.6767 34.1163C60.7673 34.1163 60.1811 34.8864 60.1811 35.8637V39.7817H58.8169V33.1406ZM56.7342 36.4551C56.7342 35.3114 56.1959 34.1166 54.975 34.1166C53.755 34.1166 53.2166 35.3114 53.2166 36.4551C53.2166 37.6115 53.755 38.8055 54.975 38.8055C56.1959 38.8055 56.7342 37.6115 56.7342 36.4551ZM51.8524 36.4551C51.8524 34.4253 52.9897 32.9602 54.975 32.9602C56.962 32.9602 58.0984 34.4253 58.0984 36.4551C58.0984 38.4984 56.962 39.9611 54.975 39.9611C52.9897 39.9611 51.8524 38.4984 51.8524 36.4551ZM49.7102 33.1407H51.0736V39.7818H49.7102V33.1407ZM49.7102 30.6095H51.0736V31.9971H49.7102V30.6095ZM43.1043 33.1406H44.3969V34.1163L44.4208 34.1418C44.8277 33.4101 45.5341 32.9598 46.348 32.9598C47.6875 32.9598 48.5373 33.7308 48.5373 35.2215V39.7817H47.1731V35.607C47.1492 34.5665 46.7661 34.1163 45.9641 34.1163C45.0547 34.1163 44.4677 34.8864 44.4677 35.8637V39.7817H43.1043V33.1406ZM34.979 30.6095H36.4746V35.9542C36.4746 37.1866 36.5463 38.6125 38.4855 38.6125C40.4247 38.6125 40.4956 37.1866 40.4956 35.9542V30.6095H41.992V36.4804C41.992 38.8309 40.5911 39.9993 38.4855 39.9993C36.3791 39.9993 34.979 38.8309 34.979 36.4804V30.6095ZM27.8468 33.1406H28.8765V31.1484H30.2399V33.1406H31.4727V34.2322H30.2399V37.7775C30.2399 38.3813 30.2877 38.6892 30.8985 38.6892C31.0897 38.6892 31.2816 38.6892 31.4727 38.638V39.7681C31.1741 39.7945 30.8858 39.8456 30.5872 39.8456C29.164 39.8456 28.8996 39.2538 28.8765 38.1502V34.2322H27.8468V33.1406ZM25.9199 33.1407H27.2833V39.7818H25.9199V33.1407ZM25.9199 30.6095H27.2833V31.9971H25.9199V30.6095ZM21.6481 38.8057C22.8682 38.8057 23.3834 37.6116 23.3834 36.4552C23.3834 34.9901 22.7248 34.1167 21.672 34.1167C20.3914 34.1167 19.9359 35.3372 19.9359 36.532C19.9359 37.6756 20.4631 38.8057 21.6481 38.8057ZM24.699 39.7814H23.4073V38.8824H23.3834C23.0242 39.6406 22.247 39.9613 21.4689 39.9613C19.5178 39.9613 18.5725 38.4074 18.5725 36.416C18.5725 34.0136 19.9008 32.9603 21.2531 32.9603C22.0304 32.9603 22.892 33.2682 23.3109 34H23.3356V30.6099H24.699V39.7814ZM16.7656 35.8759C16.7178 34.9514 16.1308 34.1165 15.2094 34.1165C14.2641 34.1165 13.6183 34.8859 13.5824 35.8759H16.7656ZM13.5824 36.8404C13.5824 37.8801 14.1088 38.8054 15.2453 38.8054C16.0353 38.8054 16.5139 38.4335 16.7536 37.7002H18.0453C17.7467 39.1525 16.5983 39.9619 15.2453 39.9619C13.3069 39.9619 12.2182 38.5103 12.2182 36.4686C12.2182 34.5788 13.3666 32.9601 15.2094 32.9601C17.1598 32.9601 18.3567 34.8491 18.1298 36.8404H13.5824ZM8.60394 33.1406H9.88372V34.425H9.90921C10.0645 33.718 10.8776 32.9598 11.7162 32.9598C12.0268 32.9598 12.1104 32.9862 12.2299 32.999V34.413C12.0379 34.3874 11.8349 34.3474 11.6429 34.3474C10.7104 34.3474 9.96734 35.1575 9.96734 36.6211V39.7817H8.60394V33.1406ZM6.22292 33.526C5.97206 32.472 5.33734 31.7026 4.0926 31.7026C2.26252 31.7026 1.4956 33.4357 1.4956 35.1951C1.4956 36.9554 2.26252 38.6892 4.0926 38.6892C5.42096 38.6892 6.15124 37.624 6.2707 36.2876H7.73047C7.61101 38.4853 6.16319 40 4.0926 40C1.53224 40 0 37.8167 0 35.1951C0 32.5743 1.53224 30.391 4.0926 30.391C6.01984 30.4046 7.53934 31.5483 7.71852 33.526H6.22292Z" fill="white"/>
</g>
<defs>
<clipPath id="clip0_358_3586">
<rect width="68" height="40" fill="white"/>
</clipPath>
</defs>
</svg>
