<svg width="132" height="40" viewBox="0 0 132 40" fill="none" xmlns="http://www.w3.org/2000/svg">
<g clip-path="url(#clip0_358_3588)">
<path d="M20.8215 0.754491C10.2111 0.754491 1.61035 9.37204 1.61035 20C1.61035 30.6295 10.2111 39.2454 20.8215 39.2454C31.4287 39.2454 40.0295 30.6295 40.0295 20C40.0295 9.37204 31.4287 0.754491 20.8215 0.754491ZM10.4895 10.0892L10.4961 9.44096C10.5043 7.32391 11.3822 5.54821 12.5893 5.2282C14.1667 4.80807 16.2927 6.6888 18.4236 10.3862L20.4039 13.8228C19.8273 13.9229 19.3409 14.3069 18.9641 14.9633L12.4993 26.187C11.5542 27.8199 10.9006 29.292 10.5321 30.5803C10.5305 30.5606 10.5305 30.5409 10.5305 30.5179C10.465 27.5557 10.406 21.6083 10.4895 10.0892ZM17.4179 33.915L16.8545 34.2367C15.0184 35.292 13.0496 35.4167 12.1668 34.5272C11.0153 33.3686 11.5771 30.5836 13.708 26.8878L15.6932 23.443C16.0716 23.8993 16.6432 24.1257 17.3966 24.1257H30.3264C32.2133 24.1257 33.8103 23.96 35.1091 23.6383C35.0895 23.6482 35.0747 23.6547 35.0551 23.6695C32.5294 25.204 27.4142 28.2368 17.4179 33.915ZM30.3264 22.7259H26.361C26.5625 22.1695 26.4773 21.559 26.1006 20.9075L19.634 9.68713C18.6906 8.04929 17.7472 6.74623 16.8168 5.78289C16.8381 5.79274 16.8545 5.80259 16.8725 5.81408C19.4621 7.23365 24.6313 10.1549 34.5408 15.9874L35.1091 16.3189C36.9371 17.3873 38.0279 19.0333 37.702 20.2428C37.2777 21.82 34.5899 22.7259 30.3264 22.7259Z" fill="white"/>
<path d="M57.8817 19.5621H55.9555V10.4309C55.9555 8.28762 55.9555 7.9594 60.0405 7.9594C64.63 7.9594 67.1573 10.0272 67.1573 13.7821C67.1573 18.8745 62.4679 19.5621 57.8817 19.5621ZM58.4992 5.79147H46.092H45.8086V7.02724L46.0592 7.05678C50.4767 7.59507 50.9255 8.17603 50.9255 10.4342V33.963H55.9555V21.7301H57.9849C62.7644 21.7301 72.7098 21.7301 72.7098 13.7821C72.7098 5.79147 63.4654 5.79147 58.4992 5.79147Z" fill="white"/>
<path d="M101.163 5.79427H98.207V27.7525C97.4274 26.6644 82.4764 5.79427 82.4764 5.79427H71.8037V7.02511L72.051 7.05793C76.3686 7.62084 76.9206 7.81285 76.9206 10.9211V33.9625H80.1604V10.3467C80.945 11.4381 97.1178 33.9625 97.1178 33.9625H101.447V5.79427H101.163Z" fill="white"/>
<path d="M105.303 18.9548C105.303 26.6451 109.987 34.4059 120.452 34.4059C125.421 34.4059 127.87 33.8578 130.143 33.2473L130.353 33.1915V30.8808L129.968 30.9842C127.552 31.6341 125.177 31.9919 123.282 31.9919C114.921 31.9919 110.855 27.3803 110.855 17.8897C110.855 11.5467 113.866 7.76229 118.907 7.76229C122.29 7.76229 124.273 9.0916 124.805 11.7158L124.851 11.9422H130.391L130.35 11.6222C130.161 10.1501 128.804 5.34819 119.217 5.34819C109.984 5.34819 105.303 9.92529 105.303 18.9548Z" fill="white"/>
</g>
<defs>
<clipPath id="clip0_358_3588">
<rect width="132" height="40" fill="white"/>
</clipPath>
</defs>
</svg>
