<svg width="131" height="40" viewBox="0 0 131 40" fill="none" xmlns="http://www.w3.org/2000/svg">
<g clip-path="url(#clip0_358_3602)">
<path d="M81.5076 25.8002C79.3188 24.7843 78.5021 22.4249 79.5475 20.1966C80.3969 18.3943 82.161 17.6078 85.6891 17.444C87.2572 17.3784 88.5313 17.1818 88.5313 17.018C88.5313 15.8055 84.5784 15.3139 82.0303 16.2315L80.6909 16.6903V12.8234L82.259 12.5613C83.1083 12.4302 85.1338 12.2991 86.7672 12.3319C89.2173 12.3319 90.0014 12.463 91.3081 13.1511C94.0196 14.4947 94.2482 15.019 94.3462 20.852L94.4443 25.8985H91.5041C88.5313 25.8985 88.5313 25.8985 88.5313 25.0465V24.2273L87.3552 25.112C85.9505 26.1934 83.1083 26.5211 81.5076 25.8002ZM87.7146 22.13C88.1719 21.704 88.5313 21.0486 88.5313 20.6554C88.5313 20.1311 88.3353 20 87.4532 20C85.4605 20 84.1211 21.7695 85.5258 22.5888C86.4078 23.1131 86.8652 23.0148 87.7146 22.13ZM60.4365 16.8869V7.8097L67.2315 7.94078C74.8106 8.07185 75.9213 8.33401 77.0974 10.2346C78.3714 12.3319 77.5874 15.1173 75.4313 16.2315L74.4186 16.7886L75.4966 17.3129C77.1627 18.1649 78.1754 19.8689 77.9794 21.5402C77.7834 23.2769 77.0974 24.3911 75.6926 25.1448C74.8106 25.6364 73.6019 25.7347 67.5582 25.833L60.4365 25.9313V16.8869ZM70.0083 21.9334C70.8577 21.4746 71.2171 21.0158 71.2171 20.2621C71.2171 19.2135 70.2697 18.6892 68.4076 18.6892H66.6435V20.2621C66.6435 21.1469 66.7415 21.9662 66.8722 22.0645C67.1989 22.4249 69.2243 22.3266 70.0083 21.9334ZM70.2697 14.4292C70.9884 14.0359 71.1191 12.4957 70.4984 11.8731C70.2697 11.6437 69.3223 11.4799 68.3749 11.4799H66.6435V14.7569H68.1463C68.963 14.7569 69.9103 14.593 70.2697 14.4292ZM96.1103 19.2791L96.2083 12.6268L99.2465 12.5285L102.252 12.4302V13.2822C102.252 14.2981 102.415 14.2981 103.591 13.315C105.421 11.7748 108.851 11.9387 110.452 13.6427C111.203 14.4619 111.236 14.6585 111.334 20.1966L111.432 25.8985H104.898L104.8 21.2452C104.702 16.9196 104.669 16.5592 104.081 16.4609C102.873 16.1987 102.579 17.2473 102.579 21.704V25.8985H96.045L96.1103 19.2791ZM113.686 16.2315V6.56445H119.893V11.9714C119.893 14.9535 120.024 17.3784 120.154 17.3784C120.318 17.3784 121.2 16.2643 122.147 14.9207L123.846 12.463H127.439C130.249 12.463 130.967 12.5613 130.771 12.889C130.641 13.0856 129.726 14.3308 128.779 15.5761C127.799 16.8541 126.917 18.0666 126.851 18.2632C126.753 18.4926 127.668 20.1966 128.844 22.0645C130.02 23.9323 131 25.5708 131 25.6691C131 25.8002 129.334 25.8985 127.341 25.8985H123.65L122.049 22.9492C121.167 21.3108 120.318 20 120.154 20C120.024 20 119.893 21.3435 119.893 22.9492V25.8985H113.686V16.2315Z" fill="white"/>
<path d="M0 20V0.0105591H47.3691V39.9895H0V20ZM18.6209 21.4746V11.4799H25.5793C31.9496 11.4799 32.603 11.5455 33.583 12.1353C35.6412 13.3806 36.6539 17.7717 36.0005 22.3594C35.2818 27.1765 33.8444 28.2907 28.6828 28.1269L25.6446 28.0286L25.5466 20.426L25.4813 12.7907H19.9277V31.5349L27.7027 31.4038L35.4451 31.3055L37.3399 30.388C40.3781 28.8806 41.7175 26.259 42.0441 21.1469C42.2402 17.9355 41.7828 14.3309 40.9334 12.6596C40.2147 11.2178 38.908 9.90697 37.4052 9.08774C36.1312 8.3668 35.7718 8.3668 20.5157 8.2685L4.90025 8.17019V11.4799H13.0673V31.4694H18.6209V21.4746Z" fill="white"/>
</g>
<defs>
<clipPath id="clip0_358_3602">
<rect width="131" height="40" fill="white"/>
</clipPath>
</defs>
</svg>
