<svg width="172" height="40" viewBox="0 0 172 40" fill="none" xmlns="http://www.w3.org/2000/svg">
<path fill-rule="evenodd" clip-rule="evenodd" d="M152.316 0.00972097C168.883 0.0373072 169.289 0.0442037 170.005 0.368342C170.404 0.547652 170.906 0.899376 171.119 1.14765C171.333 1.39593 171.615 1.98903 171.752 2.46489C171.966 3.20972 172 5.62351 172.007 19.9545C172.007 33.1683 171.959 36.7339 171.787 37.3201C171.67 37.727 171.422 38.2856 171.236 38.5546C171.051 38.8304 170.528 39.2373 169.269 39.8718H152.151C142.739 39.8718 134.759 39.8166 134.415 39.7477C134.077 39.6787 133.52 39.3821 133.19 39.0925C132.86 38.7959 132.447 38.258 132.282 37.8994C132 37.2718 131.986 36.2994 131.986 19.9545C131.986 3.60972 132 2.63731 132.282 2.00972C132.447 1.6511 132.86 1.11317 133.19 0.816618C133.548 0.506273 134.05 0.244204 134.415 0.189031C134.759 0.133859 135.109 0.0648934 135.199 0.0373072C135.295 0.00282441 142.994 -0.0109687 152.316 0.00972097ZM135.453 18.0649H145.374V10.8166H149.344V29.0925H145.374V21.8442H135.453V36.4994H168.526L168.443 21.927H158.522L158.44 29.0925H154.47V10.8166H158.44V18.0649L168.443 17.9821L168.505 3.40972H135.453V18.0649ZM92.6186 8.03731C93.1139 8.03041 94.029 8.09938 94.6413 8.18903C95.2536 8.27869 96.3544 8.55455 98.4115 9.258V11.3545C98.4046 12.5063 98.3496 13.4304 98.2808 13.4028C98.212 13.3752 97.6754 13.1201 97.0837 12.8373C96.492 12.5477 95.5563 12.1959 95.0128 12.058C94.4693 11.9201 93.4992 11.8028 92.8662 11.8097C92.2264 11.8097 91.4283 11.8787 91.0843 11.9752C90.7472 12.0649 90.1968 12.3752 89.8734 12.6718C89.5088 13.0028 89.2198 13.458 89.1166 13.8649C89.0272 14.2235 88.9928 14.7614 89.0478 15.058C89.096 15.3545 89.3437 15.8235 89.5982 16.1063C89.8459 16.3959 90.4789 16.8373 91.0018 17.0994C91.5246 17.3545 92.7906 17.8511 93.8157 18.2028C94.8408 18.5545 96.1411 19.0718 96.7053 19.3545C97.2763 19.6373 98.0882 20.189 98.5078 20.5752C98.9275 20.9545 99.4366 21.5683 99.643 21.927C99.8494 22.2925 100.111 22.9959 100.228 23.4925C100.352 24.0166 100.393 24.8511 100.345 25.4718C100.29 26.058 100.083 26.9821 99.877 27.527C99.5949 28.2787 99.244 28.7752 98.4184 29.5959C97.579 30.4235 97.0699 30.7752 96.2099 31.1201C95.5976 31.3614 94.4486 31.6373 93.6506 31.7339C92.6392 31.8511 91.7792 31.8511 90.7954 31.7339C90.0248 31.6373 88.9034 31.4166 88.3186 31.2511C87.7269 31.0787 86.8875 30.7821 85.6698 30.2442V28.0994C85.6698 26.927 85.7042 25.9614 85.7523 25.9614C85.8005 25.9614 86.1858 26.1752 86.6192 26.4304C87.0526 26.6856 87.9264 27.0994 88.5662 27.3477C89.1992 27.6028 90.128 27.8787 90.6302 27.9752C91.1325 28.0649 92.0613 28.1063 92.7011 28.0718C93.4992 28.0304 94.1115 27.8787 94.6826 27.5959C95.3086 27.2856 95.6045 27.0097 95.8934 26.4511C96.1549 25.9408 96.2581 25.5132 96.2168 25.058C96.1824 24.6925 96.031 24.1959 95.8728 23.9477C95.7214 23.6994 95.3155 23.3132 94.9715 23.0856C94.6344 22.858 93.1208 22.2235 91.621 21.6787C90.1211 21.127 88.525 20.4787 88.0778 20.2304C87.6374 19.989 86.9426 19.4718 86.5504 19.0925C86.1582 18.7063 85.6904 18.1132 85.5184 17.7752C85.3464 17.4373 85.1125 16.6718 84.9955 16.0856C84.8373 15.258 84.8304 14.7614 84.9818 13.8649C85.085 13.2304 85.3602 12.3201 85.5872 11.8442C85.8142 11.3752 86.3371 10.6511 86.743 10.2442C87.1558 9.83731 87.9539 9.27179 88.525 8.98903C89.0891 8.70627 90.0386 8.37524 90.6302 8.26489C91.2219 8.14765 92.1163 8.0442 92.6186 8.03731ZM0 8.51317H18.521V12.2994H11.4139L11.3314 31.3132L7.27904 31.3959V12.2994H0V8.51317ZM24.0043 8.49248L29.4877 8.55455C34.689 8.60972 35.033 8.63041 35.9686 8.98214C36.519 9.18214 37.2621 9.52696 37.6267 9.73386C37.9914 9.94765 38.6381 10.4994 39.0715 10.9683C39.505 11.4304 40.0416 12.1959 40.2686 12.6718C40.4888 13.1477 40.7571 13.9821 40.8603 14.5201C40.9635 15.0649 41.0048 15.9752 40.9498 16.5408C40.8947 17.1063 40.7021 17.9545 40.5163 18.4304C40.3306 18.9063 39.9797 19.589 39.732 19.9408C39.4843 20.2994 38.8307 20.9132 38.2872 21.3063C37.7437 21.7063 36.9387 22.1339 35.721 22.5063L36.1544 23.0442C36.3952 23.3339 36.98 24.2787 37.4547 25.1408C37.9363 26.0028 38.5418 26.8718 38.8032 27.0787C39.0646 27.2856 39.5394 27.5408 39.8558 27.6373C40.1792 27.7339 40.6814 27.7683 41.5139 27.6097V31.3959L40.7227 31.4856C40.2962 31.5408 39.4912 31.5132 38.9477 31.4235C38.4042 31.3408 37.5854 31.1132 37.1314 30.9132C36.6429 30.6994 35.9755 30.2028 35.5008 29.6994C34.9986 29.1546 34.3174 28.0856 33.657 26.789C33.079 25.6511 32.3566 24.4925 32.0539 24.2028C31.7512 23.9132 31.304 23.6028 31.0494 23.5063C30.8018 23.4097 30.0381 23.327 28.1186 23.327V31.3959L24.0662 31.3132L24.0043 8.49248ZM28.1186 19.7063C31.765 19.6994 33.2786 19.6097 33.829 19.4994C34.3794 19.389 35.088 19.1063 35.4045 18.8718C35.7141 18.6442 36.1544 18.0856 36.3746 17.6373C36.6498 17.0787 36.7805 16.5408 36.7805 15.9201C36.7805 15.2787 36.6635 14.7821 36.3677 14.1959C36.065 13.6028 35.7278 13.2304 35.1499 12.8787L34.345 12.3821L28.1323 12.2787L28.1186 19.7063ZM47.4651 8.51317H51.6L51.5931 16.0442C51.5931 23.0787 51.6138 23.6442 51.9165 24.6442C52.1298 25.327 52.4738 25.9752 52.8728 26.4373C53.2168 26.8373 53.8773 27.3546 54.3314 27.5821C55.0331 27.9408 55.3771 28.0097 56.643 28.0166C57.8608 28.0166 58.2874 27.9477 58.9616 27.6442C59.4157 27.4304 60.028 27.0235 60.3238 26.7339C60.6197 26.4442 61.0669 25.7683 61.7686 24.2373L61.8512 8.51317L65.9035 8.59593L65.9517 15.3477C65.9861 19.2166 65.931 22.727 65.8347 23.5752C65.7453 24.389 65.5114 25.4994 65.3256 26.0442C65.1398 26.589 64.6651 27.5132 64.2661 28.0994C63.867 28.6925 63.1446 29.4787 62.6562 29.8511C62.1677 30.2304 61.4522 30.6925 61.0669 30.8856C60.6816 31.0718 59.8973 31.3546 59.3331 31.5063C58.7002 31.6718 57.6613 31.7821 56.643 31.7821C55.5422 31.7821 54.6616 31.6856 54.0011 31.4925C53.4507 31.3339 52.5632 30.9683 52.0128 30.6787C51.4693 30.3959 50.6093 29.7546 50.107 29.258C49.5291 28.6856 48.9581 27.8925 48.5659 27.1132C48.1875 26.3546 47.8573 25.3752 47.7128 24.5614C47.5339 23.5546 47.4789 21.527 47.472 15.8787L47.4651 8.51317ZM73.7605 8.51317H77.8954V31.3959L73.843 31.3132L73.7605 8.51317ZM103.53 8.51317H122.051V12.2994H114.779V31.3959H110.809V12.2994H103.53V8.51317Z" fill="white"/>
</svg>
