<?xml version="1.0" encoding="UTF-8" standalone="no"?>
<!-- Created with Inkscape (http://www.inkscape.org/) -->

<svg
   version="1.1"
   id="svg1"
   width="199.34813"
   height="39.431999"
   viewBox="0 0 199.34813 39.431999"
   xmlns="http://www.w3.org/2000/svg"
   xmlns:svg="http://www.w3.org/2000/svg">
  <defs
     id="defs1" />
  <g
     id="g1"
     transform="translate(-389.92001,-974.0603)">
    <path
       id="path74"
       d="m 0,0 c -0.743,0 -1.33,0.593 -1.33,1.34 0,0.74 0.592,1.33 1.33,1.33 0.743,0 1.336,-0.589 1.336,-1.33 C 1.336,0.595 0.743,0 0,0 m -1.145,1.338 c 0,-0.644 0.502,-1.156 1.145,-1.156 0.642,0 1.147,0.513 1.147,1.156 0,0.638 -0.508,1.15 -1.147,1.15 -0.636,0 -1.145,-0.511 -1.145,-1.15 m 1.12,0.738 C 0.156,2.076 0.29,2.058 0.374,2.023 0.526,1.96 0.602,1.836 0.602,1.652 0.602,1.521 0.554,1.424 0.459,1.362 0.408,1.33 0.337,1.306 0.247,1.291 0.361,1.273 0.445,1.226 0.498,1.148 0.551,1.071 0.578,0.995 0.578,0.921 0.578,0.802 0.577,0.775 0.582,0.705 0.586,0.64 0.592,0.634 0.603,0.611 H 0.362 C 0.352,0.648 0.35,0.666 0.349,0.705 0.346,0.869 0.355,1.055 0.211,1.14 0.156,1.171 0.061,1.187 -0.076,1.187 H -0.28 V 0.611 H -0.538 V 2.076 Z M -0.059,1.899 H -0.28 v -0.53 h 0.233 c 0.227,0 0.398,0.047 0.398,0.261 0,0.196 -0.098,0.269 -0.41,0.269"
       style="fill:#001e79;fill-opacity:1;fill-rule:nonzero;stroke:none"
       transform="matrix(1.3333333,0,0,-1.3333333,587.4868,1002.1445)" />
    <path
       id="path75"
       d="m 0,0 v -20.881 h 4.423 v 1.685 c 0.692,-1.143 2.227,-2.016 4.213,-2.016 4.182,0 7.131,3.28 7.131,7.854 0,4.483 -2.618,7.793 -6.95,7.793 -2.047,0 -3.702,-0.842 -4.334,-1.775 V 0 Z m 7.823,-9.687 c 1.776,0 3.371,-1.174 3.371,-3.701 0,-2.498 -1.595,-3.732 -3.371,-3.732 -1.775,0 -3.4,1.264 -3.4,3.732 0,2.527 1.625,3.701 3.4,3.701 m 22.293,-1.564 c 0,3.069 -1.775,5.777 -6.62,5.777 -4.393,0 -6.379,-2.829 -6.56,-4.965 l 3.972,-0.812 c 0.09,1.113 0.963,2.196 2.558,2.196 1.444,0 2.197,-0.752 2.197,-1.625 0,-0.511 -0.271,-0.903 -1.084,-1.023 l -3.52,-0.542 c -2.468,-0.361 -4.424,-1.865 -4.424,-4.513 0,-2.377 1.896,-4.544 5.176,-4.544 1.986,0 3.43,0.842 4.213,2.106 0,-1.023 0.12,-1.564 0.15,-1.685 h 4.123 c -0.03,0.151 -0.181,1.144 -0.181,2.317 z m -4.453,-3.762 c 0,-2.317 -1.385,-2.979 -2.739,-2.979 -1.264,0 -1.775,0.752 -1.775,1.535 0,1.053 0.722,1.504 1.685,1.655 l 2.829,0.451 z m 20.501,3.521 v -9.389 h -4.573 v 8.606 c 0,1.475 -0.783,2.588 -2.438,2.588 -1.504,0 -2.467,-1.113 -2.467,-2.618 v -8.576 h -4.574 v 14.956 h 4.423 v -1.716 c 0.813,1.415 2.648,2.107 4.183,2.107 3.761,0 5.446,-2.678 5.446,-5.958 m 5.893,-1.896 c 0,-2.378 1.595,-3.702 3.491,-3.702 1.775,0 2.768,1.114 3.099,2.227 l 4.032,-1.234 c -0.662,-2.618 -3.129,-5.205 -7.131,-5.205 -4.454,0 -8.034,3.28 -8.034,7.914 0,4.664 3.49,7.943 7.883,7.943 4.123,0 6.53,-2.527 7.192,-5.205 l -4.093,-1.234 c -0.331,1.144 -1.233,2.227 -3.008,2.227 -1.896,0 -3.431,-1.324 -3.431,-3.731 m 27.353,0.03 c 0,4.634 -3.461,7.913 -7.944,7.913 -4.454,0 -7.944,-3.279 -7.944,-7.913 0,-4.634 3.49,-7.944 7.944,-7.944 4.483,0 7.944,3.31 7.944,7.944 m -11.314,0 c 0,2.527 1.655,3.701 3.37,3.701 1.745,0 3.37,-1.174 3.37,-3.701 0,-2.528 -1.625,-3.732 -3.37,-3.732 -1.715,0 -3.37,1.234 -3.37,3.732 m 17.031,7.432 v -2.016 c 0.783,1.685 2.678,2.166 3.882,2.166 0.451,0 0.903,-0.06 1.203,-0.15 v -4.514 c -0.511,0.121 -0.993,0.151 -1.444,0.151 -1.836,0 -3.491,-1.083 -3.491,-4.062 v -6.53 h -4.573 v 14.955 z m 15.437,0.362 c -2.137,0 -3.761,-0.933 -4.393,-1.896 v 1.535 h -4.424 v -20.672 h 4.574 v 6.89 c 0.692,-0.842 2.136,-1.504 4.062,-1.504 4.183,0 7.132,3.28 7.132,7.853 0,4.484 -2.618,7.794 -6.951,7.794 m -0.933,-11.555 c -1.775,0 -3.37,1.264 -3.37,3.731 0,2.498 1.595,3.701 3.37,3.701 1.805,0 3.4,-1.203 3.4,-3.701 0,-2.497 -1.595,-3.731 -3.4,-3.731"
       style="fill:#001e79;fill-opacity:1;fill-rule:nonzero;stroke:none"
       transform="matrix(1.3333333,0,0,-1.3333333,442.7688,974.0608)" />
    <path
       id="path76"
       d="M 0,0 17.867,-7.188 35.735,0 V 22.386 H 0 Z"
       style="fill:#cf2a36;fill-opacity:1;fill-rule:nonzero;stroke:none"
       transform="matrix(1.3333333,0,0,-1.3333333,389.92,1003.9083)" />
    <path
       id="path77"
       d="m 0,0 c -0.782,-1.294 -2.498,-1.836 -4.002,-1.836 -3.641,0 -5.687,2.648 -5.687,5.838 v 9.449 h 4.574 V 4.965 c 0,-1.444 0.782,-2.588 2.407,-2.588 1.534,0 2.497,1.053 2.497,2.558 v 8.516 H 4.363 V 1.174 c 0,-1.355 0.121,-2.438 0.151,-2.679 H 0.12 C 0.06,-1.234 0,-0.391 0,0 m 10.056,3.43 c 0.06,-1.023 0.783,-2.016 2.347,-2.016 1.174,0 1.746,0.632 1.746,1.294 0,0.542 -0.361,0.993 -1.475,1.234 l -1.715,0.391 c -3.19,0.692 -4.454,2.498 -4.454,4.604 0,2.739 2.408,4.965 5.748,4.965 4.333,0 5.838,-2.708 5.988,-4.453 L 14.45,8.757 c -0.121,0.993 -0.753,1.835 -2.137,1.835 -0.873,0 -1.625,-0.511 -1.625,-1.294 0,-0.632 0.512,-0.993 1.174,-1.113 l 1.986,-0.391 c 3.099,-0.632 4.604,-2.498 4.604,-4.695 0,-2.557 -1.956,-5.055 -5.958,-5.055 -4.695,0 -6.199,3.039 -6.32,4.694 z"
       style="fill:#ffffff;fill-opacity:1;fill-rule:nonzero;stroke:none"
       transform="matrix(1.3333333,0,0,-1.3333333,408.042,999.89573)" />
  </g>
</svg>
