<svg width="200" height="40" viewBox="0 0 200 40" fill="none" xmlns="http://www.w3.org/2000/svg">
<g clip-path="url(#clip0_358_3608)">
<path d="M197.566 28.0842C196.576 28.0842 195.793 27.2935 195.793 26.2975C195.793 25.3108 196.582 24.5242 197.566 24.5242C198.557 24.5242 199.348 25.3095 199.348 26.2975C199.348 27.2908 198.557 28.0842 197.566 28.0842ZM196.04 26.3002C196.04 27.1588 196.709 27.8415 197.566 27.8415C198.422 27.8415 199.096 27.1575 199.096 26.3002C199.096 25.4495 198.418 24.7668 197.566 24.7668C196.718 24.7668 196.04 25.4482 196.04 26.3002ZM197.533 25.3162C197.774 25.3162 197.953 25.3402 198.065 25.3868C198.268 25.4708 198.369 25.6362 198.369 25.8815C198.369 26.0562 198.305 26.1855 198.178 26.2682C198.11 26.3108 198.016 26.3428 197.896 26.3628C198.048 26.3868 198.16 26.4495 198.23 26.5535C198.301 26.6562 198.337 26.7575 198.337 26.8562C198.337 27.0148 198.336 27.0508 198.342 27.1442C198.348 27.2308 198.356 27.2388 198.37 27.2695H198.049C198.036 27.2202 198.033 27.1962 198.032 27.1442C198.028 26.9255 198.04 26.6775 197.848 26.5642C197.774 26.5228 197.648 26.5015 197.465 26.5015H197.193V27.2695H196.849V25.3162H197.533ZM197.488 25.5522H197.193V26.2588H197.504C197.806 26.2588 198.034 26.1962 198.034 25.9108C198.034 25.6495 197.904 25.5522 197.488 25.5522Z" fill="white"/>
<path d="M52.8486 0.00047005V27.8418H58.746V25.5951C59.6686 27.1191 61.7153 28.2831 64.3633 28.2831C69.9393 28.2831 73.8713 23.9098 73.8713 17.8111C73.8713 11.8338 70.3806 7.42047 64.6046 7.42047C61.8753 7.42047 59.6686 8.54314 58.826 9.78714V0.00047005H52.8486ZM63.2793 12.9165C65.6473 12.9165 67.774 14.4818 67.774 17.8511C67.774 21.1818 65.6473 22.8271 63.2793 22.8271C60.9126 22.8271 58.746 21.1418 58.746 17.8511C58.746 14.4818 60.9126 12.9165 63.2793 12.9165ZM93.0033 15.0018C93.0033 10.9098 90.6366 7.29913 84.1766 7.29913C78.3193 7.29913 75.6713 11.0711 75.43 13.9191L80.726 15.0018C80.846 13.5178 82.01 12.0738 84.1366 12.0738C86.062 12.0738 87.066 13.0765 87.066 14.2405C87.066 14.9218 86.7046 15.4445 85.6206 15.6045L80.9273 16.3271C77.6366 16.8085 75.0286 18.8138 75.0286 22.3445C75.0286 25.5138 77.5566 28.4031 81.93 28.4031C84.578 28.4031 86.5033 27.2805 87.5473 25.5951C87.5473 26.9591 87.7073 27.6805 87.7473 27.8418H93.2446C93.2046 27.6405 93.0033 26.3165 93.0033 24.7525V15.0018ZM87.066 20.0178C87.066 23.1071 85.2193 23.9898 83.414 23.9898C81.7286 23.9898 81.0473 22.9871 81.0473 21.9431C81.0473 20.5391 82.01 19.9378 83.294 19.7365L87.066 19.1351V20.0178ZM114.401 15.3231V27.8418H108.303V16.3671C108.303 14.4005 107.259 12.9165 105.053 12.9165C103.047 12.9165 101.763 14.4005 101.763 16.4071V27.8418H95.6646V7.90047H101.562V10.1885C102.646 8.3018 105.093 7.37914 107.139 7.37914C112.154 7.37914 114.401 10.9498 114.401 15.3231ZM122.258 17.8511C122.258 21.0218 124.385 22.7871 126.913 22.7871C129.279 22.7871 130.603 21.3018 131.045 19.8178L136.421 21.4631C135.538 24.9538 132.249 28.4031 126.913 28.4031C120.974 28.4031 116.201 24.0298 116.201 17.8511C116.201 11.6325 120.854 7.26047 126.711 7.26047C132.209 7.26047 135.418 10.6298 136.301 14.2005L130.843 15.8458C130.402 14.3205 129.199 12.8765 126.833 12.8765C124.305 12.8765 122.258 14.6418 122.258 17.8511ZM158.729 17.8111C158.729 11.6325 154.114 7.26047 148.137 7.26047C142.198 7.26047 137.545 11.6325 137.545 17.8111C137.545 23.9898 142.198 28.4031 148.137 28.4031C154.114 28.4031 158.729 23.9898 158.729 17.8111ZM143.643 17.8111C143.643 14.4418 145.85 12.8765 148.137 12.8765C150.463 12.8765 152.63 14.4418 152.63 17.8111C152.63 21.1818 150.463 22.7871 148.137 22.7871C145.85 22.7871 143.643 21.1418 143.643 17.8111ZM166.351 7.9018V10.5898C167.395 8.34314 169.922 7.7018 171.527 7.7018C172.129 7.7018 172.731 7.7818 173.131 7.9018V13.9205C172.45 13.7591 171.807 13.7191 171.206 13.7191C168.758 13.7191 166.551 15.1631 166.551 19.1351V27.8418H160.454V7.9018H166.351ZM186.934 7.41914C184.085 7.41914 181.919 8.66313 181.077 9.94713V7.90047H175.178V35.4631H181.277V26.2765C182.199 27.3991 184.125 28.2818 186.693 28.2818C192.27 28.2818 196.202 23.9085 196.202 17.8111C196.202 11.8325 192.711 7.41914 186.934 7.41914ZM185.69 22.8258C183.323 22.8258 181.197 21.1405 181.197 17.8511C181.197 14.5205 183.323 12.9165 185.69 12.9165C188.097 12.9165 190.223 14.5205 190.223 17.8511C190.223 21.1805 188.097 22.8258 185.69 22.8258Z" fill="white"/>
<path d="M0 29.848L23.8227 39.432L47.6467 29.848V6.45423e-06H0V29.848Z" fill="#CF2A36"/>
<path d="M18.1218 25.8354C17.0791 27.5608 14.7911 28.2834 12.7858 28.2834C7.93113 28.2834 5.20312 24.7528 5.20312 20.4994V7.90075H11.3018V19.2154C11.3018 21.1408 12.3445 22.6661 14.5111 22.6661C16.5565 22.6661 17.8405 21.2621 17.8405 19.2554V7.90075H23.9391V24.2701C23.9391 26.0768 24.1005 27.5208 24.1405 27.8421H18.2818C18.2018 27.4808 18.1218 26.3568 18.1218 25.8354ZM31.5298 21.2621C31.6098 22.6261 32.5738 23.9501 34.6591 23.9501C36.2245 23.9501 36.9871 23.1074 36.9871 22.2248C36.9871 21.5021 36.5058 20.9008 35.0205 20.5794L32.7338 20.0581C28.4805 19.1354 26.7951 16.7274 26.7951 13.9194C26.7951 10.2674 30.0058 7.29942 34.4591 7.29942C40.2365 7.29942 42.2431 10.9101 42.4431 13.2368L37.3885 14.1594C37.2271 12.8354 36.3845 11.7128 34.5391 11.7128C33.3751 11.7128 32.3725 12.3941 32.3725 13.4381C32.3725 14.2808 33.0551 14.7621 33.9378 14.9221L36.5858 15.4434C40.7178 16.2861 42.7245 18.7741 42.7245 21.7034C42.7245 25.1128 40.1165 28.4434 34.7805 28.4434C28.5205 28.4434 26.5151 24.3914 26.3538 22.1848L31.5298 21.2621Z" fill="white"/>
</g>
<defs>
<clipPath id="clip0_358_3608">
<rect width="199.348" height="39.432" fill="white"/>
</clipPath>
</defs>
</svg>
