<svg width="461" height="40" viewBox="0 0 461 40" fill="none" xmlns="http://www.w3.org/2000/svg">
<path d="M142.502 31.4721C141.284 33.7056 138.645 34.3147 134.179 34.3147H124.841V8.73097C124.841 5.68528 125.45 5.27919 129.104 5.27919H131.946V1.01523H109.008V5.27919H111.038C114.286 5.27919 116.113 5.68528 116.113 8.93401V31.269C116.113 34.5178 114.692 34.9239 111.444 34.9239H109.211V39.1878H148.592V23.7563H144.126C144.126 27.2081 143.72 29.6447 142.502 31.4721ZM92.3624 34.3147H80.1827V21.1168H83.0247C87.8965 21.1168 88.5055 21.9289 88.7085 28.6294H93.1744V9.3401H88.7085C88.3025 15.0254 87.6935 16.6497 82.8217 16.6497H79.9797V5.27919H90.7384C98.4522 5.27919 100.482 6.70051 100.888 15.6345H105.151V0.812186H48.7186V5.07614H51.3576C53.5905 5.07614 54.6055 5.48224 54.6055 6.70051C54.6055 7.30965 54.6055 8.32487 54.1995 9.54315L46.6887 29.0355H46.2827C42.8318 19.2893 38.3659 8.32487 38.3659 8.32487C38.1629 7.71574 37.9599 7.1066 37.9599 6.70051C37.9599 5.48224 38.7719 5.07614 40.5989 5.07614H43.8468V0.812186H23.5473V5.07614H26.1863C29.4342 5.07614 30.4491 6.70051 30.8551 9.74619L23.3443 28.8325H22.7354C19.2845 18.4772 14.8186 8.12183 14.8186 8.12183C14.6156 7.51269 14.6156 7.1066 14.6156 6.90356C14.6156 5.68528 15.4276 5.07614 17.6605 5.07614H19.4875V0.812186H0V5.07614H0.811977C3.6539 5.07614 5.48085 6.90355 6.90181 10.1523L18.2695 38.9848H25.3743L33.6971 17.665L42.4258 38.7817H49.3276L60.2893 9.74619C61.5073 6.29442 62.7252 5.07614 65.7701 5.07614H66.3791C69.627 5.07614 71.454 5.48223 71.454 8.52792V31.066C71.454 34.3147 69.627 34.5178 66.3791 34.5178H64.1462V38.7817H105.963V23.3503H101.497C100.888 31.066 99.2642 34.3147 92.3624 34.3147ZM183.507 31.4721C182.289 33.7056 179.65 34.3147 175.184 34.3147H165.846V8.73097C165.846 5.68528 166.455 5.27919 170.109 5.27919H172.951V1.01523H150.013V5.27919H152.449C155.697 5.27919 157.321 5.68528 157.321 8.93401V31.269C157.321 34.5178 155.9 34.9239 152.449 34.9239H151.84V39.1878H189.597V23.7563H185.131C185.131 27.2081 184.725 29.6447 183.507 31.4721ZM214.159 15.6345L206.242 14.2132C202.588 13.6041 199.746 13.198 199.746 10.3553C199.746 7.30965 202.791 4.67005 207.257 4.46701C213.55 4.26396 220.858 6.49746 221.67 14.0102H225.933V0.609139H222.482L220.655 3.85787C216.595 0.60914 211.114 0 207.054 0C198.528 0 192.236 4.67005 192.439 11.5736C192.642 17.868 195.889 20.7107 205.633 22.5381L212.129 23.7563C216.595 24.5685 221.873 24.1624 221.264 29.0355C220.858 33.2995 216.595 34.7208 210.505 34.5178C203.603 34.1117 198.528 31.066 197.31 23.7563H192.845V38.9848H196.701L197.919 34.9239C199.137 36.1421 205.024 39.5939 211.317 39.5939C221.467 39.5939 228.369 36.5482 228.369 27.8173C228.572 18.6802 222.279 17.0558 214.159 15.6345ZM265.314 16.6497H262.269V5.27919H271.809C276.275 5.27919 278.914 5.68528 280.335 7.91878C281.35 9.94924 281.959 12.5888 281.959 15.6345H286.425V0.812186H247.247V5.07614H249.48C252.728 5.07614 253.946 5.48223 253.946 8.52792V31.066C253.946 34.3147 252.728 34.5178 249.48 34.5178H247.247V38.7817H270.794V34.5178H266.328C263.081 34.5178 262.472 34.1117 262.472 31.066V21.1168H265.517C270.185 21.1168 270.997 22.335 270.997 28.8325H274.651V9.74619H271.2C270.794 15.8376 270.185 16.6497 265.314 16.6497ZM366.202 28.0203C366.405 32.4873 366.202 34.3147 363.969 34.3147C362.751 34.3147 361.939 33.2995 361.736 31.066V28.6294C361.33 23.5533 360.518 21.1168 353.616 19.4924C360.924 18.4772 365.187 15.2284 365.187 9.74619C365.187 3.65482 360.721 0.609139 350.977 0.609139H324.791V4.8731H327.836C331.084 4.8731 331.693 5.27919 331.693 8.32487V30.8629C331.693 33.7056 329.866 34.5178 327.633 34.5178H324.994C322.761 34.5178 321.543 33.7056 320.528 30.8629L308.348 0.812186H299.011L286.222 30.8629C285.004 33.5025 284.192 34.5178 281.147 34.5178H279.32V38.7817H299.214V34.5178H295.154C293.124 34.5178 292.109 34.5178 292.109 33.2995C292.109 32.8934 292.312 32.2843 292.515 31.4721L294.342 26.802H309.16L310.784 31.269C311.138 31.8169 311.348 32.4456 311.393 33.0964C311.393 34.3147 310.378 34.7208 308.145 34.7208H304.085V38.9848H347.323V34.7208H343.872C340.624 34.7208 340.015 34.3147 340.015 31.269V21.1168H343.872C350.368 21.1168 352.601 22.335 352.804 28.8325L353.007 33.2995C353.21 38.5787 356.661 40 361.939 40C366.608 40 369.653 37.1574 369.653 30.2538V28.2234H366.202V28.0203ZM296.575 22.335L302.258 7.71574L308.145 22.335H296.575ZM348.541 16.6497H340.218V5.07614H348.338C353.819 5.07614 356.255 6.29442 356.255 10.7614C356.458 15.0254 353.819 16.6497 348.541 16.6497ZM395.433 23.1472H397.26C400.914 23.1472 401.523 23.1472 401.523 25.7868V27.8173C401.523 32.2843 396.854 34.7208 391.779 34.7208C384.674 34.7208 380.817 29.2386 380.817 19.4924C380.817 9.74619 385.689 4.67005 391.779 4.67005C398.072 4.67005 401.929 7.30965 403.756 12.9949H407.613V0.203046H404.568L402.538 4.06091C399.696 1.01523 394.824 0 390.358 0C385.08 0 380.208 1.82741 376.96 5.07614C373.103 8.93401 371.277 13.6041 371.277 19.4924C371.277 25.3807 373.306 30.4569 377.163 34.3147C380.614 37.9695 385.08 39.797 390.358 39.797C394.824 39.797 399.899 38.5787 403.35 35.736L405.38 38.9848H408.424V26.1929C408.424 22.9442 408.83 23.1472 411.672 23.1472H413.093V18.6802H395.433V23.1472ZM438.671 0C426.085 0 416.341 7.71574 416.341 19.6954C416.341 31.6751 426.085 39.5939 438.874 39.5939C451.459 39.5939 461 31.6751 461 19.6954C460.797 7.71574 451.256 0 438.671 0ZM451.459 19.8985C451.459 29.8477 445.978 35.1269 438.671 35.1269C431.16 35.1269 425.679 29.8477 425.679 19.8985C425.679 9.94924 431.363 4.67005 438.671 4.67005C445.978 4.67005 451.459 9.94924 451.459 19.8985Z" fill="white"/>
</svg>
