<svg width="40" height="40" viewBox="0 0 40 40" fill="none" xmlns="http://www.w3.org/2000/svg">
<g clip-path="url(#clip0_385_1100)">
<path fill-rule="evenodd" clip-rule="evenodd" d="M35.865 12.6C33.075 6.635 27.02 2.5 20 2.5C12.98 2.5 6.925 6.635 4.135 12.6L1.87 11.545C5.055 4.725 11.975 0 20 0C28.025 0 34.945 4.725 38.13 11.545L35.865 12.6ZM2.5 20C2.5 22.1 2.8725 24.12 3.5525 25.9875L1.2025 26.8425C0.425 24.7075 0 22.4025 0 20C0 17.595 0.425 15.29 1.2025 13.155L3.5525 14.01C2.8725 15.88 2.5 17.895 2.5 20ZM4.1375 27.4C6.925 33.365 12.98 37.5 20 37.5C27.02 37.5 33.0775 33.365 35.865 27.4L38.13 28.455C34.945 35.275 28.025 40 20 40C11.9775 40 5.0575 35.275 1.87 28.455L4.1375 27.4ZM38.8 13.1575C39.5775 15.2925 40.0025 17.5975 40.0025 20.0025C40.0025 22.405 39.5775 24.71 38.8 26.845L36.45 25.99C37.13 24.1225 37.5025 22.105 37.5025 20.0025C37.5025 17.8975 37.13 15.88 36.45 14.0125L38.8 13.1575ZM19.985 19.995C19.985 23.14 18.5075 23.985 16.0025 23.985C14.9 23.985 13.785 23.7275 12.925 23.455V12.24L15.005 12.0125V16.19C15.4675 16.09 16.0025 16.0025 16.4975 16.0025C18.505 16.0025 19.985 16.85 19.985 19.995ZM17.84 19.9925C17.84 18.3 17.2975 17.7875 16.1675 17.7875C15.75 17.7875 15.3775 17.855 15.005 17.94V22.05C15.4575 22.155 15.7875 22.2 16.1675 22.2C17.2975 22.2 17.8425 21.6875 17.84 19.9925ZM27.5325 21.4475C27.5325 23.0775 26.705 23.9825 24.035 23.9825C22.935 23.9825 22.18 23.83 21.38 23.545L21.215 21.825C21.8325 22.02 22.6775 22.2025 23.8675 22.2025C24.9375 22.2025 25.4375 22.0675 25.4375 21.4325C25.4375 20.7075 24.8625 20.7375 23.7625 20.7225C22.0575 20.6925 21.0475 20.27 21.0475 18.625C21.0475 16.92 22.0125 16.0125 24.5175 16.0125C25.105 16.0125 25.995 16.12 26.7925 16.36L26.9575 18.08C26.34 17.93 25.36 17.795 24.6675 17.795C23.52 17.795 23.1425 17.93 23.1425 18.565C23.1425 19.05 23.7 19.0625 24.59 19.08C26.1875 19.11 27.53 19.395 27.5325 21.4475ZM11.475 18.625V23.4575C10.615 23.73 9.5 23.985 8.3375 23.985C5.8375 23.985 5.0075 23.08 5.0075 21.45C5.0075 19.44 6.3475 19.17 7.9475 19.08L9.395 19.0025V18.76C9.395 17.885 8.9575 17.795 7.8725 17.795C7.225 17.795 6.245 17.93 5.58 18.08L5.7475 16.36C6.545 16.12 7.435 16.0125 8.0975 16.0125C10.5275 16.0125 11.475 16.92 11.475 18.625ZM9.395 20.4675L8.2175 20.5425C7.465 20.59 7.1025 20.695 7.1025 21.3425C7.1025 21.96 7.48 22.25 8.385 22.25C8.76 22.25 9.1225 22.19 9.395 22.1425V20.4675ZM34.9975 18.625V23.4575C34.1375 23.73 33.0225 23.985 31.86 23.985C29.3575 23.985 28.5275 23.08 28.5275 21.45C28.5275 19.3975 29.87 19.17 31.4675 19.08L32.9175 19.005V18.7625C32.9175 17.885 32.48 17.795 31.395 17.795C30.7475 17.795 29.7675 17.9325 29.1025 18.0825L29.2675 16.3625C30.0675 16.12 30.9575 16.015 31.62 16.015C34.0475 16.015 34.9975 16.9225 34.9975 18.625ZM32.9175 20.4675L31.74 20.545C30.9875 20.59 30.625 20.695 30.625 21.345C30.625 21.9625 31.0025 22.25 31.9075 22.25C32.2825 22.25 32.645 22.19 32.9175 22.145V20.4675Z" fill="white"/>
</g>
<defs>
<clipPath id="clip0_385_1100">
<rect width="40" height="40" fill="white"/>
</clipPath>
</defs>
</svg>
