<svg width="48" height="40" viewBox="0 0 48 40" fill="none" xmlns="http://www.w3.org/2000/svg">
<g clip-path="url(#clip0_385_1167)">
<path d="M3.69412 28.7567H20.4643V24.7923H5.71552C3.69412 25.0178 3.88003 22.8338 3.88003 22.8338V6.38576C3.88003 3.75074 5.82765 4.16617 5.82765 4.16617H20.4643V0.0504456H3.89183C3.89183 0.0504456 0.0998756 0.350149 0.0998756 3.8635V25.0415C0.0998756 25.0415 -0.000456428 28.6558 3.69412 28.7567Z" fill="white"/>
<path d="M10.2073 37.3086C10.2073 36.7062 10.0184 36.2047 9.64662 35.8071C9.27185 35.4095 8.68757 35.1276 7.89672 34.9644C8.41903 34.8101 8.81741 34.5994 9.0889 34.3323C9.49613 33.9317 9.69974 33.454 9.69974 32.8932C9.69974 32.2255 9.4135 31.6676 8.84397 31.2136C8.27444 30.7626 7.45703 30.5371 6.39174 30.5371H0V39.997H5.89008C6.14091 39.997 6.65142 39.9555 7.41866 39.8665C7.99705 39.8012 8.42789 39.7003 8.71413 39.5578C9.17742 39.3294 9.54039 39.0178 9.80597 38.6291C10.0716 38.2374 10.2044 37.7952 10.2044 37.3056L10.2073 37.3086ZM3.4408 32.454H4.94873C5.46514 32.454 5.82811 32.5311 6.03762 32.6854C6.24714 32.8397 6.35042 33.0564 6.35042 33.3294C6.35042 33.6261 6.24714 33.8546 6.03762 34.0119C5.82811 34.1691 5.45924 34.2463 4.92807 34.2463H3.44375V32.454H3.4408ZM6.4242 37.6973C6.18222 37.8754 5.76909 37.9644 5.18185 37.9644H3.4408V36.0475H5.173C5.77204 36.0475 6.18812 36.1335 6.42715 36.3027C6.66617 36.4718 6.78421 36.6973 6.78421 36.9762C6.78421 37.2789 6.66322 37.5163 6.4242 37.6943V37.6973Z" fill="white"/>
<path d="M13.731 30.5371L9.7207 39.997H13.0848L13.6041 38.4362H17.3459L17.8801 39.997H21.3327L17.3253 30.5371H13.731ZM14.3242 36.3917L15.4898 32.9911L16.6672 36.3917H14.3242Z" fill="white"/>
<path d="M30.1282 35.7715L25.6309 30.5371H25.5542V29.4095H40.8667C40.9257 29.4095 40.9847 29.4095 41.0437 29.4095C42.2388 29.4125 43.2982 29.1365 44.154 28.6825C44.7973 28.3442 45.3167 27.9169 45.7239 27.4777C46.3347 26.816 46.6948 26.1395 46.9131 25.6142C47.1315 25.092 47.2112 24.7151 47.2318 24.6142L47.2702 24.4273V4.7181C47.2702 4.23739 47.1935 3.76855 47.0548 3.34125C46.8098 2.58754 46.3761 1.98813 45.9216 1.55193C45.5823 1.22255 45.2252 0.973294 44.8917 0.780415C44.3901 0.489614 43.9297 0.31454 43.5786 0.204748C43.2274 0.0949555 42.9884 0.0474777 42.9235 0.0356083L42.7494 0H26.5015C26.0175 0 25.5483 0.0563798 25.1086 0.172107C24.3384 0.37092 23.6597 0.771513 23.161 1.26113C22.7862 1.62611 22.5059 2.02967 22.2993 2.42433C21.9924 3.01484 21.839 3.58457 21.7534 4.06528C21.6678 4.54896 21.6531 4.95252 21.6501 5.23442C21.6501 5.36202 21.6531 5.45994 21.659 5.53116V12.822H20.9419V10.6766C20.9419 9.5727 20.517 8.55193 19.8117 7.80712C19.4576 7.43323 19.0326 7.1276 18.5516 6.91098C18.0706 6.69733 17.5365 6.57567 16.9817 6.57567H10.4602C9.90539 6.57567 9.37126 6.69436 8.89026 6.91098C8.17023 7.23442 7.57414 7.76261 7.15511 8.41246C6.73903 9.06231 6.5 9.84866 6.5 10.6736V18.3561C6.5 19.4599 6.92494 20.4807 7.63021 21.2255C7.98432 21.5994 8.40926 21.905 8.89026 22.1217C9.37126 22.3353 9.90539 22.457 10.4602 22.457H16.9817C17.5365 22.457 18.0706 22.3383 18.5516 22.1217C19.2717 21.7982 19.8678 21.27 20.2838 20.6202C20.6999 19.9703 20.9419 19.184 20.939 18.359V16.5104H21.656V30.5371H21.6472V39.997H25.6487V34.8012L30.1193 39.997H33.8316V30.5371H30.1193V35.7715H30.1282ZM17.6487 18.359C17.6487 18.6053 17.5572 18.8042 17.4273 18.9436C17.3624 19.0119 17.2886 19.0623 17.2178 19.095C17.144 19.1276 17.0703 19.1424 16.9876 19.1454H10.4661C10.3805 19.1454 10.3097 19.1276 10.2359 19.095C10.1267 19.0475 10.0175 18.9555 9.93489 18.8279C9.85227 18.7003 9.8021 18.543 9.8021 18.359V10.6766C9.8021 10.4303 9.89358 10.2315 10.0264 10.092C10.0913 10.0237 10.1651 9.97329 10.2359 9.94065C10.3097 9.90801 10.3805 9.89021 10.4661 9.89021H16.9876C17.0732 9.89021 17.144 9.90801 17.2178 9.94065C17.327 9.98813 17.4362 10.0801 17.5188 10.2077C17.6014 10.3353 17.6516 10.4926 17.6516 10.6766V12.822H16.3089C15.2968 12.822 14.4764 13.6469 14.4764 14.6647C14.4764 15.6825 15.2968 16.5104 16.3089 16.5104H17.6516V18.359H17.6487ZM32.0286 12.822H30.8364V10.6766C30.8364 10.4303 30.9279 10.2315 31.0607 10.092C31.1256 10.0237 31.1994 9.97329 31.2702 9.94065C31.344 9.90801 31.4148 9.89021 31.5004 9.89021H38.0219C38.1075 9.89021 38.1783 9.90801 38.2521 9.94065C38.3613 9.98813 38.4705 10.0801 38.5531 10.2077C38.6357 10.3353 38.6859 10.4926 38.6859 10.6766V18.359C38.6859 18.6053 38.5944 18.8042 38.4646 18.9436C38.3997 19.0119 38.3259 19.0623 38.2551 19.095C38.1813 19.1276 38.1075 19.1424 38.0249 19.1454H31.5033C31.4177 19.1454 31.3469 19.1276 31.2731 19.095C31.164 19.0475 31.0548 18.9555 30.9721 18.8279C30.8895 18.7003 30.8394 18.543 30.8394 18.359V16.5104H32.0315C33.0437 16.5104 33.867 15.6855 33.867 14.6647C33.867 13.6439 33.0467 12.822 32.0315 12.822H32.0286ZM28.6734 21.2285C29.0275 21.6024 29.4524 21.908 29.9334 22.1246C30.4144 22.3383 30.9485 22.4599 31.5033 22.4599H38.0249C38.5797 22.4599 39.1138 22.3412 39.5948 22.1246C40.3148 21.8012 40.9109 21.273 41.327 20.6231C41.7431 19.9733 41.9821 19.1869 41.9821 18.362V10.6795C41.9821 9.57567 41.5572 8.5549 40.8519 7.81009C40.4978 7.4362 40.0728 7.13056 39.5918 6.91395C39.1108 6.7003 38.5767 6.57863 38.0219 6.57863H31.5004C30.9456 6.57863 30.4115 6.69733 29.9334 6.91395C29.2134 7.23739 28.6173 7.76558 28.1983 8.41543C27.7822 9.06528 27.5402 9.85163 27.5432 10.6766V12.822H25.5542V5.38576L25.5483 5.31454C25.5483 5.31454 25.5483 5.27893 25.5483 5.23442C25.5483 5.1276 25.5572 4.93472 25.5926 4.73887C25.6191 4.59347 25.6605 4.44807 25.7077 4.33531C25.7431 4.24926 25.7814 4.18398 25.8139 4.13947C25.867 4.07122 25.8995 4.04451 25.9703 4.00593C26.0441 3.97033 26.1857 3.91691 26.5015 3.91395H42.3392C42.3864 3.92878 42.4395 3.94362 42.5015 3.96736C42.6254 4.01187 42.7671 4.07122 42.8939 4.14243C43.0887 4.24629 43.2333 4.37389 43.2923 4.45401C43.3218 4.49555 43.3366 4.52225 43.3484 4.5549C43.3572 4.58754 43.3691 4.62908 43.3691 4.71513V23.9674C43.3425 24.0415 43.3071 24.1335 43.254 24.2404C43.1861 24.3769 43.0976 24.5282 42.9884 24.6677C42.8202 24.8813 42.6166 25.0712 42.3333 25.2196C42.0441 25.3679 41.6634 25.4896 41.0408 25.4926C41.0024 25.4926 40.964 25.4926 40.9227 25.4926H40.8962H25.5483V16.5104H27.5373V18.359C27.5373 19.4629 27.9622 20.4837 28.6675 21.2285H28.6734Z" fill="white"/>
<path d="M43.6235 34.1098L47.8109 30.5371H43.0952L39.38 34.1127V30.5371H35.8359V40H39.38V37.6884L41.2126 36.1068L43.6323 40H47.9997L43.6235 34.1098Z" fill="white"/>
</g>
<defs>
<clipPath id="clip0_385_1167">
<rect width="48" height="40" fill="white"/>
</clipPath>
</defs>
</svg>
