<svg width="197" height="40" viewBox="0 0 197 40" fill="none" xmlns="http://www.w3.org/2000/svg">
<g clip-path="url(#clip0_385_1105)">
<path d="M128.888 0.728607H128.074V40H128.888V0.728607Z" fill="white"/>
<path d="M102.137 17.7072C103.764 16.6176 105.678 14.6257 105.678 10.0668C105.678 5.50802 103.924 0.0467914 95.6228 0.0467914H72.9523V39.2513H95.3761C104.718 39.2513 107.191 31.3102 107.191 26.992C107.191 22.6738 105.498 19.4184 102.137 17.7072ZM93.2024 31.3102H81.1737V7.39305H92.489C96.6364 7.39305 97.4698 8.74332 97.4698 10.9358C97.4698 14.1043 94.676 14.8062 93.7092 14.8062H87.3815L83.3408 22.6738H94.1959C96.2563 22.6738 98.7234 23.4024 98.7234 26.8382C98.7234 30.5816 96.703 31.3102 93.2091 31.3102M18.8232 0C28.0047 0 34.4192 7.95455 34.4192 19.3316C34.4192 30.7086 27.8314 39.258 18.023 39.258H0V15.5147L8.22806 10.8155V31.2634H15.7893C22.0171 31.2634 25.5843 27.0588 25.5843 19.7126C25.5843 11.8382 22.3104 7.33957 16.6095 7.33957H0V0H18.8232Z" fill="white"/>
<path d="M68.0174 0.106949H36.9121V7.86096H68.0174V0.106949Z" fill="white"/>
<path d="M56.5769 10.8155L48.3555 15.5147H48.3821V39.238H56.5569V10.8155" fill="white"/>
<path d="M192.946 2.33289C194.299 2.33289 195.066 3.40909 195.066 5.3008C195.066 6.95856 194.319 8.08155 192.759 8.08155H190.839V2.8008L189.045 3.8369V9.68583H193.272C195.519 9.68583 197.006 7.90775 197.006 5.20053C197.006 2.49332 195.486 0.71524 193.459 0.71524H189.045V2.31952H192.952" fill="white"/>
<path d="M139.13 2.33289C140.457 2.33289 141.244 3.40909 141.244 5.3008C141.244 6.95856 140.477 8.08155 138.943 8.08155H137.023V2.8008L135.223 3.8369V9.68583H139.463C141.697 9.68583 143.197 7.90775 143.197 5.20053C143.197 2.49332 141.677 0.71524 139.65 0.71524H135.229V2.31952H139.143" fill="white"/>
<path d="M163.294 9.69251L165.488 3.68315H165.501V9.69251H167.288V0.735291H164.968L162.474 7.25267L160.007 0.735291H157.66V9.69251H159.46V3.68315H159.487L161.674 9.69251H163.294Z" fill="white"/>
<path d="M146.752 0.735291H144.979V9.69251H146.752V0.735291Z" fill="white"/>
<path d="M153.373 0.735291H151.066L147.818 9.69251H149.932L152.226 2.68048L153.379 6.20989H151.726L150.932 7.84759H153.926L154.526 9.69251H156.62L153.373 0.735291Z" fill="white"/>
<path d="M185.352 6.97861H185.338L181.464 0.735291H179.277V9.69251H181.071V3.44919H181.098L185.118 9.69251H187.145V0.735291H185.352V6.97861Z" fill="white"/>
<path d="M173.283 0.481277C169.742 0.481277 168.742 3.34224 168.742 5.22058C168.742 7.09892 169.669 9.94652 173.283 9.94652C176.897 9.94652 177.837 7.07887 177.837 5.22058C177.837 3.36229 176.85 0.481277 173.283 0.481277ZM173.283 8.28208C171.443 8.28208 170.683 6.61096 170.683 5.22058C170.683 3.83021 171.443 2.15909 173.283 2.15909C175.123 2.15909 175.89 3.81684 175.89 5.22058C175.89 6.62433 175.137 8.28208 173.283 8.28208Z" fill="white"/>
<path d="M166.782 19.7259L164.214 19.0642C163.694 18.9439 163.068 18.7433 163.088 18.1484C163.088 17.5401 164.148 17.3128 164.921 17.3128C165.755 17.3128 166.815 17.3128 166.942 18.4893H168.882C168.742 15.9492 166.668 15.6283 165.121 15.6283C162.747 15.6283 161.201 16.4773 161.154 18.3289C161.121 19.8463 162.434 20.6016 163.694 20.9024L165.575 21.3837C166.401 21.5775 167.175 21.8115 167.155 22.4666C167.142 23.2286 166.148 23.4024 165.188 23.4024C163.381 23.4024 162.921 22.8543 162.881 21.6444L161.061 22.3262C161.147 24.6257 163.221 25.107 165.141 25.107C167.995 25.107 169.102 23.9372 169.129 22.2727C169.169 21.0428 168.462 20.1471 166.775 19.7326" fill="white"/>
<path d="M152.312 17.6471V21.6511C152.312 22.6537 152.853 25.1003 156.24 25.1003C159.627 25.1003 160.14 22.6537 160.14 21.6511V15.9024H158.334V21.0561C158.334 21.9318 158.093 23.3957 156.24 23.3957C154.386 23.3957 154.113 21.9318 154.113 21.0561V15.9024H152.312V17.6471Z" fill="white"/>
<path d="M151.151 24.8463L150.978 22.9144C150.885 21.9118 150.578 21.0896 149.678 20.5882C150.425 20.2273 150.845 19.4118 150.845 18.3289C150.845 17.4064 150.105 15.8824 148.411 15.8824H143.217V24.8463H145.017V17.4933H147.944C148.438 17.4933 149.031 17.8275 149.031 18.7032C149.031 19.5789 148.491 19.8596 148.044 19.8596H146.231L145.377 21.5709H147.964C148.598 21.5709 149.104 21.8382 149.218 23.1417L149.371 24.8463H151.158" fill="white"/>
<path d="M141.95 15.8824H134.535V17.6003H141.95V15.8824Z" fill="white"/>
<path d="M165.528 34.9265V31.0161H163.734V40H165.528V37.3329L166.842 35.9693L169.482 40H171.896L168.222 34.7393L171.656 31.0161H169.209L165.528 34.9265Z" fill="white"/>
<path d="M149.506 31.0294H147.199L143.965 40H146.045L148.359 32.9746L149.506 36.5107H147.852L147.052 38.1417H150.053L150.666 40H152.746L149.506 31.0294Z" fill="white"/>
<path d="M159.874 37.2794H159.847L155.98 31.0294H153.793V40H155.593V33.75H155.62L159.641 40H161.674V31.0294H159.874V37.2794Z" fill="white"/>
<path d="M141.798 35.1537C142.191 34.9131 142.685 34.4586 142.685 33.3356C142.685 32.2794 142.291 31.0495 140.411 31.0495H135.217V39.9933H140.351C142.458 39.9933 143.038 38.3088 143.038 37.3062C143.038 36.2366 142.618 35.5214 141.798 35.1537ZM139.864 38.3957H137.024V32.6404H139.704C140.691 32.6404 140.891 33.0013 140.891 33.5428C140.891 34.3583 140.178 34.5254 139.984 34.5254H138.264L137.391 36.23H140.078C140.584 36.23 141.184 36.4171 141.184 37.2727C141.184 38.2152 140.664 38.3957 139.864 38.3957Z" fill="white"/>
<path d="M139.163 18.2955L137.27 19.3783H137.276V24.8329H139.157V18.2955" fill="white"/>
<path d="M177.29 15.8824H169.875V17.6003H177.29V15.8824Z" fill="white"/>
<path d="M174.502 18.2955L172.615 19.3783V24.8329H174.496V18.2955" fill="white"/>
</g>
<defs>
<clipPath id="clip0_385_1105">
<rect width="197" height="40" fill="white"/>
</clipPath>
</defs>
</svg>
