<svg width="64" height="40" viewBox="0 0 64 40" fill="none" xmlns="http://www.w3.org/2000/svg">
<path d="M29 0L10 14V10H0V26H10L29 12L48 26H64L29 0Z" fill="white"/>
<path d="M36 30H38V40H36V30ZM40 32H44V40H46V32H50V30H40V32ZM59.6 30L57.2 33L54.4 30H52L56 35V40H58V35L62 30H59.6ZM2 40H10V38H4V36H8V34H4V32H10V30H2V40ZM32 30V35C32 36.6 30.6 38 29 38C27.4 38 26 36.6 26 35V30H24V35C24 37.8 26.2 40 29 40C31.8 40 34 37.8 34 35V30H32ZM23 40L21 38C21.6 37.2 22 36.2 22 35C22 32.2 19.8 30 17 30C14.2 30 12 32.2 12 35C12 37.8 14.2 40 17 40C18 40 19 39.8 19.6 39.2L20.4 40H23ZM17 38C15.4 38 14 36.6 14 35C14 33.4 15.4 32 17 32C18.6 32 20 33.4 20 35C20 35.6 19.8 36.2 19.6 36.6L17.6 34.6L16.4 35.8L18.4 37.8C17.8 38 17.4 38 17 38Z" fill="white"/>
</svg>
