<svg width="91" height="40" viewBox="0 0 91 40" fill="none" xmlns="http://www.w3.org/2000/svg">
<g clip-path="url(#clip0_385_1130)">
<path d="M91.0013 39.9976C90.9152 39.9952 90.8314 39.9928 90.7453 39.9904L90.7285 39.9712L90.7453 39.9544C90.829 39.9544 90.9151 39.9496 90.9989 39.9472V39.9976H91.0013Z" fill="white"/>
<path d="M31.9238 11.4742C32.1057 11.4742 32.2875 11.467 32.467 11.467C36.3432 11.467 40.2194 11.4886 44.0956 11.4574C46.0074 11.443 47.2899 12.6137 47.8067 14.0266C49.697 19.194 51.6351 24.3421 53.554 29.4974C53.6689 29.5694 53.7 29.6942 53.7431 29.8093C54.6954 32.3954 55.662 34.9766 56.6263 37.5603C57.0977 38.8293 58.026 39.5874 59.3468 39.8657C59.4425 39.8849 59.5693 39.8561 59.622 39.9856C59.4066 39.988 59.1937 39.9928 58.9783 39.9928C55.0519 39.9928 51.123 39.9976 47.1966 39.9904C46.0002 39.988 45.0264 39.5034 44.287 38.5559C44.0621 38.268 43.8994 37.9441 43.7726 37.6011C41.8369 32.3954 39.8988 27.1921 37.9631 21.9863C37.9607 21.9791 37.9535 21.972 37.9511 21.9648C37.8602 21.8976 37.8195 21.7968 37.7836 21.6961C36.9462 19.4435 36.1087 17.1933 35.2689 14.9406C35.0631 14.3937 34.9076 13.8227 34.6061 13.3142C34.0701 12.4074 33.2853 11.8364 32.2516 11.6181C32.1368 11.5941 31.998 11.6061 31.9286 11.4742H31.9238Z" fill="white"/>
<path d="M90.7479 39.9544C90.7479 39.9544 90.7479 39.9784 90.7479 39.9904C86.6157 39.9904 82.4858 40 78.3536 39.9856C76.8797 39.9808 75.5852 39.0332 75.0612 37.6275C73.7069 33.9955 72.355 30.3635 71.0032 26.7291C70.4265 25.1841 69.8523 23.6368 69.2756 22.0919C69.2589 22.0463 69.2349 22.0031 69.2158 21.9576C69.1009 21.8832 69.0818 21.7512 69.0387 21.6385C68.1439 19.2395 67.2538 16.8382 66.3589 14.4393C66.1722 13.9379 66.0048 13.4269 65.6746 12.9879C65.1338 12.273 64.4375 11.8124 63.5618 11.6205C63.4374 11.5941 63.2938 11.6085 63.2148 11.4718C63.3967 11.4718 63.5785 11.4646 63.758 11.4646C67.6509 11.4646 71.5463 11.4646 75.4393 11.4646C77.1955 11.4646 78.4493 12.3426 79.0666 13.9979C81.9881 21.8472 84.9073 29.6965 87.8288 37.5435C88.3384 38.9109 89.3194 39.7025 90.7479 39.952V39.9544Z" fill="white"/>
<path d="M63.2128 11.4718C64.0407 11.6253 64.7896 11.9348 65.3878 12.5513C65.6964 12.8679 65.9596 13.2206 66.1152 13.6332C67.1536 16.4064 68.1825 19.182 69.2137 21.9551C68.9362 22.6868 68.6514 23.4161 68.3787 24.1502C66.7062 28.6434 65.0384 33.1366 63.3635 37.6275C62.7845 39.1796 61.313 40.096 59.6237 39.9808C58.669 39.8369 57.8507 39.4435 57.2118 38.7022C56.7788 38.2008 56.5754 37.5915 56.3505 36.9869C55.4221 34.4896 54.4913 31.9923 53.5605 29.495C53.6563 29.4159 53.6682 29.2935 53.7089 29.188C55.5991 24.1142 57.4894 19.0404 59.3725 13.9643C59.863 12.64 60.7794 11.8148 62.16 11.5293C62.5069 11.4574 62.8611 11.4382 63.2176 11.4694L63.2128 11.4718Z" fill="#AEAEAE"/>
<path d="M4.89648 17.1716C5.01373 17.1716 5.09747 17.1716 5.17883 17.1716C9.2632 17.1716 13.3476 17.1716 17.432 17.1668C17.6282 17.1668 17.7143 17.2196 17.7861 17.4091C18.7814 20.1031 19.784 22.7948 20.7913 25.484C20.8559 25.6567 20.8583 25.8054 20.7913 25.9806C19.3509 29.8381 17.9153 33.698 16.4797 37.5579C16.1351 38.4839 15.5393 39.1748 14.6588 39.6234C14.5272 39.6905 14.4243 39.6881 14.2927 39.6234C13.4313 39.182 12.8308 38.5102 12.491 37.6034C10.9716 33.5204 9.45223 29.4374 7.93285 25.352C6.95183 22.7156 5.97082 20.0768 4.9898 17.4403C4.96109 17.3636 4.93477 17.2892 4.89648 17.1764V17.1716Z" fill="white"/>
<path d="M31.9238 11.4742C32.8331 11.6349 33.6298 12.0019 34.2567 12.7072C34.6946 13.2014 34.9147 13.8059 35.1373 14.4081C36.0728 16.927 37.0108 19.4459 37.9463 21.9624C37.7764 22.2382 37.6975 22.5525 37.5874 22.8524C36.2283 26.4964 34.8741 30.1404 33.5198 33.7844C33.5054 33.8227 33.4863 33.8587 33.4552 33.9331C33.3571 33.8155 33.2709 33.7148 33.1872 33.6116C32.3545 32.5849 31.529 31.5533 30.6892 30.5338C30.5672 30.385 30.6078 30.3323 30.7394 30.2387C31.4931 29.7013 32.2445 29.1616 32.8714 28.4707C33.4767 27.8038 33.8189 27.0289 33.8261 26.1149C33.8356 24.8027 33.1944 23.7951 31.9765 23.3082C30.6533 22.778 29.2895 22.7084 27.9328 23.1474C25.6645 23.8791 24.7265 26.1845 25.7769 28.3723C26.1406 29.1304 26.6407 29.7997 27.1647 30.4474C27.2987 30.6129 27.258 30.6705 27.1073 30.7761C26.3033 31.3278 25.5066 31.894 24.8964 32.6688C23.0062 35.0702 23.9465 38.4575 26.813 39.5994C27.282 39.7865 27.7701 39.9065 28.2725 39.9568C28.2941 39.964 28.3013 39.9736 28.2941 39.9808C28.2869 39.988 28.2797 39.9928 28.2725 39.9928C24.3174 39.9928 20.3622 39.9928 16.407 39.9928C16.3855 39.9856 16.3783 39.9784 16.3855 39.9712C16.3927 39.964 16.3999 39.9592 16.407 39.9592C17.8546 39.7025 18.8285 38.8845 19.3429 37.4979C22.2596 29.651 25.1811 21.8064 28.1003 13.9595C28.72 12.2922 30.1604 11.3542 31.931 11.4766L31.9238 11.4742Z" fill="#AEAEAE"/>
<path d="M15.5656 11.4694H15.2426C11.1941 11.4694 7.14319 11.4694 3.09471 11.4742C2.85304 11.4742 2.74298 11.4166 2.65445 11.1767C1.79067 8.82572 0.914938 6.47715 0.0320234 4.12859C-0.0325801 3.95586 -0.00386745 3.89589 0.158838 3.82152C2.70948 2.66283 5.25294 1.49455 7.80358 0.333459C9.62923 -0.496576 11.4046 0.263889 12.1033 2.15186C13.2231 5.17693 14.3525 8.1972 15.477 11.2199C15.5034 11.2894 15.5273 11.359 15.568 11.4694H15.5656Z" fill="white"/>
<path d="M30.0911 37.8769C28.7057 37.8769 27.4782 36.9941 27.0475 35.6819C26.6168 34.3721 27.0954 32.8991 28.2056 32.0787C28.3396 31.9803 28.3994 31.9995 28.4951 32.1219C29.7322 33.6812 30.974 35.2357 32.2206 36.7878C32.3211 36.9126 32.3187 36.9797 32.1943 37.0829C31.5817 37.5939 30.8902 37.8769 30.0887 37.8769H30.0911Z" fill="#AEAEAE"/>
<path d="M29.6518 24.3541C30.7525 24.3565 31.5182 25.3809 31.2191 26.4772C30.963 27.42 30.3649 28.1588 29.726 28.8665C29.6686 28.9289 29.6231 28.9361 29.5657 28.8713C28.8742 28.0893 28.1923 27.2952 28.0224 26.2181C27.8645 25.2225 28.6421 24.3517 29.6518 24.3541Z" fill="#AEAEAE"/>
<path d="M28.2676 39.9904C28.27 39.9784 28.27 39.9664 28.2676 39.9544C28.3872 39.9544 28.5045 39.9544 28.6241 39.9544C28.5068 40.012 28.3872 40.0048 28.2676 39.9904Z" fill="white"/>
<path d="M16.4033 39.9544C16.4033 39.9544 16.4033 39.9784 16.4033 39.988C16.3339 39.988 16.2646 39.988 16.1641 39.988C16.2598 39.9304 16.3316 39.9448 16.4009 39.9544H16.4033Z" fill="white"/>
</g>
<defs>
<clipPath id="clip0_385_1130">
<rect width="91" height="40" fill="white"/>
</clipPath>
</defs>
</svg>
