<svg width="83" height="40" viewBox="0 0 83 40" fill="none" xmlns="http://www.w3.org/2000/svg">
<g clip-path="url(#clip0_385_1062)">
<rect width="83" height="40" fill="#80BC00"/>
<path d="M32.4299 3.65957C32.0876 1.3617 30.633 2.04255 30.8897 1.2766C30.9753 1.02128 30.7186 0 29.1784 0H0V16.8511C0.598969 16.9362 1.11237 16.8511 1.62577 16.5106C2.56701 15.4043 3.33711 13.9574 4.87732 13.7021C5.30516 13.617 5.90412 13.617 6.16083 13.9574C5.98969 14.2979 5.56185 14.2128 5.21959 14.383C4.19278 14.6383 3.25155 15.234 2.56701 16.0851C2.48144 16.1702 2.56701 16.2553 2.65258 16.3404C2.73814 16.3404 2.90928 16.3404 2.99485 16.2553C3.50825 15.9149 3.93608 15.4043 4.62062 15.4894C4.70618 15.4894 4.79175 15.5745 4.70619 15.6596C4.70619 15.6596 4.70619 15.6596 4.70619 15.7447C4.27835 16.0851 3.76495 16.4255 3.25155 16.6809C2.56701 17.1915 0.770102 17.617 0.513401 18.5532C0.855669 18.6383 1.11237 18.6383 1.45464 18.6383C2.31031 18.7234 2.56701 17.7021 3.16598 17.2766C3.42268 17.1064 3.76495 16.8511 4.02165 17.0213C4.02165 17.1915 3.93608 17.2766 3.93608 17.3617C3.16598 18.1277 2.22474 18.6383 1.45464 19.4894C1.19794 19.7447 0.171133 20 0.0855657 20.3404V23.4894C1.0268 22.2979 2.13918 21.2766 3.42268 20.5106C3.50825 20.5106 3.76495 20.4255 3.85052 20.5957C3.93608 20.766 3.85052 21.0213 3.85052 21.1915C3.42268 22.0426 2.73815 22.7234 2.31031 23.5745C2.31031 23.234 2.39588 22.8085 2.56701 22.5532C2.56701 22.4681 2.65258 22.383 2.56701 22.2979C2.22474 22.2979 2.05361 22.7234 1.96804 22.8936C1.54021 23.9149 0.342267 25.0213 0.0855657 26.1277V40.3404H9.3268C9.92577 39.8298 10.4392 39.3192 10.7814 38.6383C11.2093 38.0426 11.2948 37.2766 11.8082 36.766C11.8938 36.766 11.9794 36.6809 12.065 36.766C12.2361 37.3617 12.2361 38.0426 11.8938 38.6383C11.7227 38.9787 11.466 39.3192 11.3804 39.7447C11.3804 39.8298 11.6371 39.8298 11.7227 39.7447C12.6639 38.9787 12.8351 37.7021 13.0918 36.5106C13.0918 36.5106 13.0918 36.3404 13.2629 36.3404C13.434 36.3404 13.3485 36.766 13.2629 36.9362C13.2629 37.1064 13.0918 37.2766 13.1773 37.4468C13.6052 37.617 13.6907 36.9362 13.8619 36.6809C13.9474 36.6809 14.033 36.766 14.033 36.8511C14.1186 37.4468 13.8619 38.0426 13.434 38.383C13.2629 38.5532 12.9206 38.6383 13.0062 38.8936C13.0918 39.1489 13.3485 39.0638 13.5196 38.9787C13.6052 38.9787 13.6052 39.0638 13.5196 39.1489C13.1773 39.5745 12.835 40 12.4072 40.3404H14.1186C15.0598 39.7447 15.9155 38.9787 16.6 38.1277H16.6856C17.1134 37.4468 17.5412 36.8511 18.0546 36.1702C18.568 35.4894 18.7392 34.6383 18.6536 33.7872C18.4825 33.2766 17.8835 33.5319 17.4557 33.5319C17.199 33.4468 17.0278 33.2766 16.8567 33.1064C16.7711 32.9362 16.8567 32.766 16.6856 32.6809C16.2577 32.5957 15.9155 32.9362 15.6588 33.1915C15.5732 33.2766 15.4021 33.3617 15.3165 33.2766C15.3165 32.4255 16.0866 32 16.1722 31.234C16.1722 31.0638 16.001 30.9787 15.9155 30.8936C15.3165 30.8936 15.0598 31.4894 14.7175 31.7447H14.5464C14.4608 31.5745 14.3753 31.4043 14.4608 31.3191C14.5464 30.8085 14.8031 30.2979 15.1454 29.9574C16.4289 28 19.2526 28 19.2526 28C21.9052 28 23.6165 29.7021 24.0443 29.7021C24.301 29.617 24.3866 29.3617 24.3866 29.1064C24.3866 28.766 24.2155 28.3404 23.9588 28.3404C23.7021 28.3404 24.1299 28.6809 23.5309 28.5106C21.2206 28 19.5948 26.383 19.6804 24.9362C19.766 23.4894 19.5093 22.8085 22.1619 21.7021C22.5897 21.5319 23.1031 21.5319 23.0175 20.5106C23.0175 20.5106 22.932 20.1702 22.7608 20.1702C22.5897 20.1702 22.5041 20.2553 22.5041 20.4255C22.5041 20.4255 22.6753 20.6809 22.2474 20.6809C21.8196 20.6809 22.0763 20.2553 21.2206 20.2553C20.8784 20.2553 20.5361 20.2553 20.2794 20.4255C19.9371 20.5106 19.5948 20.5957 19.2526 20.5957C18.9103 20.5957 18.568 20.5957 18.2258 20.4255C17.8835 20.3404 17.5412 20.2553 17.199 20.2553C16.3433 20.2553 16.4289 20.6809 16.1722 20.6809C16.001 20.6809 15.9155 20.5106 16.001 20.3404C16.001 20.1702 16.1722 20.1702 15.5732 19.7447C15.3165 19.5745 15.2309 19.1489 15.4021 18.8936C15.7443 18.383 15.9155 17.7872 16.001 17.1915C16.0866 16.5106 14.8887 15.0638 14.632 14.6383C14.2041 13.8723 14.632 13.617 13.1773 13.4468C12.2361 13.4468 11.3804 12.766 11.2093 11.8298C11.2093 11.7447 11.2093 11.5745 11.466 11.7447C11.9794 12 12.4072 12.9362 13.1773 12.9362C13.9474 12.9362 14.8887 13.1064 14.9742 13.4468C15.3165 14.1277 15.7443 14.2979 15.9155 14.2979C16.5144 14.2979 15.7443 13.1064 15.9155 12.8511C16.0866 12.5957 16.2577 12.766 16.4289 12.766C16.9423 12.8511 17.4557 13.1064 17.7979 13.5319C17.8835 13.617 18.3113 13.617 18.3113 13.3617C18.568 12.2553 18.9959 12.3404 19.5093 12.3404C20.0227 12.3404 20.0227 12.4255 20.0227 13.0213C20.0227 13.2766 20.1938 13.4468 20.3649 13.5319C20.4505 13.5319 20.5361 13.5319 20.6217 13.5319C21.1351 13.4468 21.3062 12.4255 21.8196 12.4255C21.9907 12.4255 21.9907 12.4255 22.0763 12.5106C22.1619 12.5957 21.6485 13.0213 21.8196 13.2766C21.9907 13.5319 22.0763 13.1915 22.2474 13.1915C22.5897 13.3617 22.4186 14.2128 22.7608 14.2128C23.1031 14.2128 23.1887 13.8723 23.4454 13.5319C23.6165 13.2766 23.8732 13.1064 24.2155 13.0213C25.0711 12.766 25.8412 12.5106 26.6113 12.1702C28.3227 11.234 27.2959 8.59574 25.8412 6.97872C25.499 6.55319 26.0124 6.21277 26.4402 6.6383C27.2959 7.48936 27.7237 8.76596 28.3227 8.76596C29.4351 8.59575 30.5474 8.17021 31.4887 7.48936C32.1732 6.38298 32.601 5.02128 32.4299 3.65957ZM11.8938 24.2553C12.4928 23.1489 14.8031 21.3617 16.001 21.7021C17.3701 22.0426 18.3113 23.234 18.3969 24.5957C18.6536 27.1489 15.4021 28.5957 15.2309 28.5106C15.0598 28.4255 15.2309 28.2553 15.2309 28.1702C15.2309 28.0851 15.1454 28 15.0598 28C14.3753 28 14.2897 29.0213 13.8619 29.3617C13.6907 29.3617 13.6052 29.2766 13.5196 29.1915C13.2629 28.766 13.9474 28.766 14.033 28.5106C14.1186 28.2553 14.1186 28 13.9474 27.9149C13.7763 27.8298 13.6052 27.8298 13.434 27.9149C13.1773 28.0851 13.1773 28.5957 12.835 28.5106C12.7495 28.3404 12.6639 28.1702 12.6639 27.9149C13.0062 27.4894 13.6907 27.5745 13.6907 26.8936C13.6907 26.4681 14.033 26.5532 14.2897 26.4681C14.4608 26.383 14.5464 26.1277 14.632 25.8723C14.8031 25.4468 15.2309 25.4468 15.3165 25.1915C15.3165 25.0213 15.2309 24.8511 15.1454 24.766C14.9742 24.766 14.7175 24.766 14.632 24.9362C14.5464 25.0213 14.5464 25.2766 14.3753 25.3617C14.2041 25.4468 13.9474 25.5319 13.7763 25.5319C13.434 25.617 13.434 25.9574 13.434 26.2128C13.434 26.383 13.0918 26.2979 12.9206 26.383C12.6639 26.4681 12.5783 26.8085 12.4072 27.0638C12.4072 27.0638 12.4072 27.1489 12.3216 27.1489C12.2361 27.1489 12.0649 26.9787 11.9794 26.9787C11.8938 26.8936 11.8082 26.8085 11.8938 26.7234C11.9794 26.6383 11.9794 26.6383 12.065 26.6383C12.2361 26.5532 12.4072 26.383 12.3216 26.1277C12.2361 25.7872 12.6639 25.617 12.6639 25.5319C12.6639 25.3617 12.6639 25.2766 12.4928 25.1915C12.2361 25.0213 11.9794 25.3617 11.7227 25.4468C11.6371 25.4468 11.466 25.3617 11.466 25.2766C11.5515 24.9362 11.6371 24.5957 11.8938 24.2553ZM9.3268 1.2766C10.6103 1.53191 11.7227 2.29787 12.4928 3.31915C13.0918 4.25532 13.3485 5.53191 14.4608 6.12766C14.632 6.29787 14.8031 6.38298 14.9742 6.46808C14.7175 6.46808 14.4608 6.38298 14.2897 6.29787C14.2041 6.29787 14.1186 6.12766 13.9474 6.21277C13.7763 6.29787 13.9474 6.29787 13.8619 6.38298C13.8619 6.46808 14.033 6.55319 14.1186 6.6383C14.033 6.7234 14.033 6.7234 13.9474 6.80851C12.8351 6.38298 12.6639 5.10638 12.065 4.17021C11.8083 3.65957 11.466 3.14894 10.9526 2.80851C10.867 2.80851 10.7814 2.80851 10.7814 2.89362C10.867 3.14894 11.1237 3.31915 11.2093 3.48936C11.5515 4 11.8082 4.59574 11.8082 5.2766C11.7227 5.3617 11.8083 5.44681 11.6371 5.44681C11.466 5.44681 11.2948 5.3617 11.2948 5.2766C10.6959 4.51064 10.6959 3.40426 9.8402 2.7234C9.8402 2.7234 9.8402 2.7234 9.75464 2.7234C9.49794 2.97872 9.75464 3.31915 9.75464 3.65957V3.91489C9.41237 3.06383 8.72784 2.29787 7.87217 1.87234C6.75979 1.70213 5.56186 1.95745 4.70619 2.7234H4.62062V2.6383C4.79175 2.12766 5.64742 0.510638 9.3268 1.2766ZM8.72784 6.80851C7.44433 6.29787 6.24639 5.70213 5.04845 5.02128C4.79175 4.93617 4.53505 4.85106 4.36392 5.02128C4.19278 5.19149 4.53505 5.2766 4.62062 5.44681C4.02165 5.3617 3.42268 5.44681 2.90928 5.61702C2.82371 5.61702 2.65258 5.61702 2.56701 5.53191C2.56701 5.2766 2.82371 5.02128 2.99485 4.76596C3.50825 4.25532 4.27835 4 4.96289 4.08511C5.73299 4.08511 6.50309 4.34043 7.18763 4.76596C8.21443 5.3617 9.0701 6.38298 10.0969 7.06383C9.58351 6.97872 9.07011 6.89362 8.64227 6.7234M16.2577 10.2128C16.3433 10.7234 16.001 11.9149 15.8299 11.9149C15.4876 11.9149 15.4876 11.5745 15.4021 11.0638C15.3165 10.5532 15.7443 9.87234 15.3165 9.70213C14.632 9.70213 14.9742 10.8085 14.3753 10.8085C14.1186 10.8085 13.7763 10.4681 13.434 10.383C11.5515 9.87234 10.7814 11.4043 10.4392 11.3191C9.75464 11.1489 10.268 10.7234 10.4392 10.5532C11.1237 9.87234 12.0649 9.3617 13.0918 9.19149C13.8619 9.02128 14.3753 8.51064 15.4876 8.51064C16.4289 8.68085 16.1722 9.70213 16.2577 10.2128ZM26.0979 9.95745C26.2691 10.0426 26.4402 10.2979 26.3546 10.4681C26.2691 10.7234 26.0979 10.5532 25.9268 10.4681C25.2423 10.1277 24.3866 10.2128 23.7021 10.6383C23.1887 10.8936 23.1031 10.4681 22.932 10.0426C22.8464 9.87234 22.6753 9.61702 22.5041 9.70213C22.333 9.78723 22.4186 10.2128 22.5041 10.383C22.5897 10.7234 22.4186 11.1489 22.0763 11.3191C21.8196 11.3191 21.8196 11.1489 21.6485 10.9787C21.2206 10.383 21.0495 8.93617 21.9052 8.68085C22.7608 8.42553 23.6165 8.68085 24.301 9.19149C24.8144 9.53192 25.4134 9.78723 26.0979 9.95745ZM26.0979 2.89362C26.6113 2.12766 27.5526 1.70213 28.4938 1.95745C28.8361 2.04255 29.1783 2.21277 29.5206 2.46808C29.5206 2.7234 29.8629 2.7234 29.8629 2.97872C28.7505 2.55319 27.2103 2.21277 26.0979 2.89362ZM29.1784 5.19149C28.665 5.19149 28.2371 5.02128 27.7237 4.85106C28.4082 4.51064 29.5206 3.82979 30.034 4.76596C30.034 5.10638 29.5206 5.10638 29.1784 5.19149Z" fill="#003B4D"/>
<path d="M47.0612 29.7872H42.6973L36.4509 20.8511V29.7872H32.7715V10.7234H36.4509V18.8085L43.1251 10.7234H46.5478L39.7024 19.1489L47.0612 29.7872Z" fill="white"/>
<path d="M56.8167 30.1277C50.7414 30.1277 47.4043 26.6383 47.4043 20.2553C47.4043 17.1915 48.0888 14.7234 49.5435 13.0213C51.0837 11.3192 53.3084 10.383 55.6187 10.4681C57.2445 10.5532 58.8703 10.8085 60.4961 11.0638L61.095 11.1489V14.7234L58.1857 13.0213C57.4156 12.5958 56.4744 12.4255 55.6187 12.4255H55.5332C51.8538 12.4255 51.3404 16.6809 51.2548 20.3404C51.1692 23.4043 51.8538 25.7872 53.1373 27.0638C53.993 27.9149 55.1909 28.3404 56.4744 28.3404C57.8435 28.3404 59.2125 27.9149 60.3249 27.1489L61.694 26.2128L61.1806 29.3617L60.8383 29.5319C59.4692 29.9575 58.1002 30.1277 56.8167 30.1277Z" fill="white"/>
<path d="M71.3637 29.7872H64.6895V10.7234H70.8503C72.2193 10.6383 73.674 10.8936 74.8719 11.5745C76.1554 12.4255 76.84 13.8723 76.6688 15.3192C76.7544 16.5106 76.3266 17.617 75.4709 18.5532L74.9575 19.0638L75.4709 19.4894C76.84 20.5957 77.5245 22.383 77.4389 24.1702C77.5245 25.7872 76.7544 27.4043 75.4709 28.4255C74.4441 29.2766 72.9039 29.7872 71.3637 29.7872ZM68.4544 27.8298H70.2513C73.075 27.8298 73.9307 26.8936 73.9307 23.9149C73.9307 22.2979 72.7328 21.0213 71.107 20.9362C71.0214 20.9362 70.9358 20.9362 70.7647 20.9362H68.4544V27.8298ZM68.4544 18.0426H70.3369C70.9358 18.0426 71.5348 17.9574 72.0482 17.617C72.7327 17.1064 73.075 16.2553 72.9895 15.4043C72.9895 12.766 71.5348 12.5106 69.9946 12.5106H68.4544V18.0426Z" fill="white"/>
</g>
<defs>
<clipPath id="clip0_385_1062">
<rect width="83" height="40" fill="white"/>
</clipPath>
</defs>
</svg>
