<svg width="121" height="40" viewBox="0 0 121 40" fill="none" xmlns="http://www.w3.org/2000/svg">
<g clip-path="url(#clip0_385_1070)">
<path d="M61.0967 14.1304V34.3419H55.5784L49.0635 23.284H48.9979V34.3419H43.7148V14.1304H49.069L55.7042 25.5223H55.77V14.1304H61.0967Z" fill="white"/>
<path d="M71.7941 34.3291C70.9291 34.1231 70.1135 33.8336 69.3415 33.4494C68.5696 33.0652 67.8689 32.5753 67.2228 31.985C66.5823 31.3949 66.0294 30.7211 65.5695 29.9695C65.1097 29.2178 64.7538 28.3604 64.4965 27.3915C64.2391 26.4228 64.1133 25.3871 64.1133 24.2847C64.1133 23.3214 64.2172 22.3971 64.4253 21.5063C64.6333 20.6154 64.9345 19.7858 65.3286 19.0119C65.7228 18.2379 66.2155 17.5364 66.8177 16.9016C67.4199 16.2669 68.0933 15.7212 68.8433 15.2702C69.5933 14.8137 70.4528 14.4629 71.4109 14.2124C72.369 13.9618 73.3927 13.8392 74.4767 13.8392C75.9219 13.8392 77.3673 14.1622 78.8126 14.8137C80.2578 15.4595 81.5116 16.4395 82.5736 17.7424L78.6812 21.1332C78.4512 20.8715 78.1994 20.6321 77.9257 20.4038C77.6465 20.1755 77.329 19.9584 76.9785 19.7469C76.6227 19.5352 76.2285 19.3627 75.7961 19.2402C75.3636 19.1176 74.9256 19.0509 74.4767 19.0509C73.9839 19.0509 73.5076 19.1232 73.0423 19.2569C72.577 19.3905 72.1445 19.6132 71.7393 19.9028C71.3342 20.1923 70.9839 20.5486 70.6828 20.9607C70.3817 21.3727 70.1462 21.8627 69.9711 22.4306C69.7959 22.9985 69.7138 23.6166 69.7138 24.2847C69.7138 24.9529 69.8232 25.621 70.0423 26.2446C70.2612 26.8626 70.5733 27.4138 70.9729 27.8815C71.3726 28.3549 71.8762 28.7279 72.4839 29.0063C73.0916 29.2847 73.754 29.4238 74.4821 29.4238C75.254 29.4238 76.026 29.2346 76.7979 28.8559C77.5698 28.4773 78.1994 27.9818 78.6866 27.3693L82.5791 30.7712C81.6593 31.9183 80.4988 32.8481 79.0973 33.5608C77.6958 34.2735 76.1574 34.6298 74.4821 34.6298C73.5515 34.6298 72.6591 34.5296 71.7941 34.3236V34.3291Z" fill="white"/>
<path d="M98.4654 24.353C99.0027 24.6871 99.4239 25.0825 99.7307 25.5334C100.037 25.99 100.256 26.4689 100.399 26.9811C100.54 27.4878 100.612 28.0502 100.612 28.6627C100.612 29.4867 100.48 30.2439 100.218 30.9288C99.9546 31.6136 99.5658 32.2093 99.0571 32.7216C98.5483 33.2283 97.8909 33.6292 97.0858 33.9188C96.2817 34.2083 95.3613 34.3474 94.3324 34.3474H85.1953V14.1304H92.9911C94.1135 14.1304 95.0934 14.2473 95.9368 14.4756C96.78 14.7094 97.464 15.038 98.0004 15.4667C98.5311 15.8954 98.9313 16.4132 99.1885 17.0146C99.4458 17.6159 99.5773 18.3008 99.5773 19.0691C99.5773 19.5146 99.5277 19.9322 99.4343 20.3274C99.3362 20.7228 99.1828 21.1181 98.9637 21.5246C98.7446 21.9254 98.4273 22.2985 98.0166 22.6382C97.6012 22.9778 97.1077 23.2617 96.5332 23.49V23.5457C97.2887 23.7517 97.9347 24.019 98.4711 24.353H98.4654ZM90.3414 22.1036H92.0769C92.7338 22.1036 93.2539 21.9589 93.6481 21.675C94.0423 21.3853 94.2339 20.9956 94.2339 20.4945C94.2339 20.1716 94.1572 19.8876 94.0039 19.6482C93.8507 19.4088 93.6043 19.2139 93.2649 19.0635C92.9255 18.9132 92.5203 18.8409 92.0386 18.8409H90.347V22.1036H90.3414ZM94.4529 29.2306C94.8908 28.9131 95.1098 28.4622 95.1098 27.872C95.1098 27.3263 94.9072 26.8865 94.5021 26.558C94.097 26.2294 93.4839 26.0624 92.6626 26.0624H90.3414V29.7038H92.6901C93.4291 29.7038 94.0149 29.5479 94.4529 29.2306Z" fill="white"/>
<path d="M114.448 31.0791H108.069L107.074 34.3419H101.5L108.71 14.1304H113.791L121.001 34.3419H115.444L114.448 31.0791ZM113.057 26.5357L111.283 20.7284H111.229L109.455 26.5357H113.063H113.057Z" fill="white"/>
<path d="M13.3318 7.4944L8.46484 1.58129L10.3207 0L13.3263 3.65811L16.3209 0L18.1768 1.58129L13.3318 7.4944Z" fill="white"/>
<path d="M13.4023 29.0438L14.6013 31.1651L21.8004 26.9502L14.6286 22.7465L13.4297 24.8623L16.9609 26.928L13.4023 29.0438Z" fill="white"/>
<path d="M19.4016 22.6176L21.7776 20.5853V24.0374L24.2028 25.4572V15.3125L17.168 21.3091L19.4016 22.6176Z" fill="white"/>
<path d="M8.95117 16.5849H15.1539L12.6684 18.7063L14.2286 20.5882L21.8001 14.1239H10.9822L8.95117 16.5849Z" fill="white"/>
<path d="M1.39055 13.2236L0 10.7627H10.5934L5.00927 17.5109L3.15337 15.9241L5.39248 13.2236H1.39055Z" fill="white"/>
<path d="M1.39055 5.83863L0 8.29964H10.8616L5.27205 1.55134L3.42163 3.13819L5.65527 5.83863H1.39055Z" fill="white"/>
<path d="M16.1722 11.6643L19.3803 7.78904V11.6643H21.8V1.04073L13.0078 11.6643H16.1722Z" fill="white"/>
<path d="M29.1807 8.91058L26.6459 10.1189V5.85937L24.2207 2.94736V13.9885L30.8012 10.8593L29.1807 8.91058Z" fill="white"/>
<path d="M26.6172 14.1239V16.6517H31.5334L26.6172 20.811V24.1015L38.3876 14.1239H26.6172Z" fill="white"/>
<path d="M30.1661 27.714V24.841L24.2207 28.3488V37.1794L26.6679 35.743V29.7797L30.1661 27.714Z" fill="white"/>
<path d="M19.38 40.0004L21.7998 38.575V29.7666L15.4766 33.4859L16.6865 35.6129L19.38 34.0315V40.0004Z" fill="white"/>
</g>
<defs>
<clipPath id="clip0_385_1070">
<rect width="121" height="40" fill="white"/>
</clipPath>
</defs>
</svg>
