<svg width="103" height="40" viewBox="0 0 103 40" fill="none" xmlns="http://www.w3.org/2000/svg">
<path d="M19.5649 39.4116L2.79095 28.4918C2.79095 28.4918 0.687441 27.2823 0.205897 25.0292C-0.470533 21.8657 1.75912 19.1534 1.75912 19.1534L23.5288 33.331C25.2082 34.4254 25.6663 36.6645 24.587 38.3534C23.478 40.0884 21.1993 40.4712 19.5642 39.4116H19.5649Z" fill="white"/>
<path d="M3.67644 16.8134C3.67644 16.8134 1.1071 15.262 1.1071 11.6737C1.1071 8.09772 3.67534 6.56533 3.67534 6.56533L12.8455 0.563763C13.6525 0.0523862 14.6286 -0.12021 15.562 0.0834134C16.4954 0.287037 17.3109 0.850458 17.8316 1.65146C18.3523 2.45247 18.5362 3.42647 18.3434 4.36218C18.1506 5.29789 17.5966 6.11986 16.8017 6.6498L9.07288 11.6824L22.2413 20.2588C22.2413 20.2588 24.6117 21.6168 25.0787 23.9093C25.7306 27.1076 23.5291 29.7427 23.5291 29.7427L3.67644 16.8134ZM3.62781 39.9904C4.48852 39.9904 5.10132 39.7173 5.69914 39.3297L10.1756 36.4138L5.69914 33.4985C5.09584 33.1099 4.46256 32.8378 3.62781 32.8378C3.15386 32.8311 2.68329 32.9186 2.24345 33.0952C1.80361 33.2719 1.40328 33.5343 1.06573 33.867C0.728172 34.1998 0.460127 34.5963 0.277171 35.0336C0.0942159 35.4709 0 35.9401 0 36.4141C0 36.8881 0.0942159 37.3574 0.277171 37.7947C0.460127 38.2319 0.728172 38.6285 1.06573 38.9612C1.40328 39.294 1.80361 39.5564 2.24345 39.733C2.68329 39.9097 3.15386 39.9972 3.62781 39.9904Z" fill="white"/>
<path d="M20.9372 8.10649C20.0762 8.10649 19.4634 8.37962 18.8655 8.76683L14.3887 11.6824L18.8655 14.598C19.4688 14.9871 20.1025 15.2591 20.9372 15.2591C21.4069 15.2591 21.8719 15.1666 22.3058 14.9869C22.7397 14.8071 23.134 14.5437 23.4661 14.2116C23.7982 13.8795 24.0616 13.4853 24.2413 13.0514C24.421 12.6175 24.5135 12.1524 24.5135 11.6828C24.5135 11.2131 24.421 10.7481 24.2413 10.3142C24.0616 9.8803 23.7982 9.48605 23.4661 9.15396C23.134 8.82187 22.7397 8.55844 22.3058 8.37872C21.8719 8.19899 21.4069 8.10649 20.9372 8.10649Z" fill="white"/>
<path d="M39.5605 28.6385C40.5071 28.6385 41.3898 28.3818 42.0794 27.7881V29.1197C41.309 29.6491 40.3945 29.8736 39.4318 29.8736C37.0076 29.8736 35.3242 28.1888 35.3242 25.7661C35.3242 23.3591 37.057 21.6746 39.464 21.6746C40.4106 21.6746 41.2929 21.9477 41.9989 22.4768V23.9368C41.3733 23.2633 40.5071 22.9101 39.544 22.9101C37.8592 22.9101 36.672 24.0816 36.672 25.7657C36.672 27.4506 37.8756 28.6385 39.5605 28.6385ZM44.8231 29.7296H43.5233V19.3118L44.8231 20.1152V23.1671C45.4169 22.2527 46.3635 21.6753 47.5669 21.6753C49.5567 21.6753 50.6155 23.135 50.6155 25.0765V29.7296H49.3V25.301C49.3 23.7606 48.6261 22.9426 47.2458 22.9426C45.7858 22.9426 44.822 24.1938 44.822 25.7664L44.8231 29.7296ZM58.6863 28.3808C58.0288 29.3113 57.0178 29.8729 55.7824 29.8729C53.4719 29.8729 51.8192 28.1563 51.8192 25.8136C51.8192 23.4238 53.4719 21.6739 55.7824 21.6739C57.0178 21.6739 58.0288 22.2516 58.6863 23.1986V21.8183H60.0022V29.7285H58.6863V28.3808ZM53.167 25.7975C53.167 27.4341 54.3063 28.6374 55.9107 28.6374C57.5312 28.6374 58.6863 27.4341 58.6863 25.7975C58.6863 24.1288 57.5312 22.9094 55.9107 22.9094C54.3063 22.9105 53.167 24.1295 53.167 25.7986V25.7975ZM63.3236 29.7296H62.0238V21.8194H63.3236V23.5039C63.9492 22.3324 64.9602 21.675 66.2118 21.675V23.1671C64.6392 22.9426 63.3236 24.0015 63.3236 25.9588V29.7296ZM79.5294 26.2798H73.2876C73.4803 27.708 74.6035 28.6546 76.1758 28.6546C77.1868 28.6546 78.1656 28.3658 79 27.772V29.0235C78.1495 29.6012 77.1868 29.874 76.1758 29.874C73.6887 29.874 71.9084 28.2696 71.9084 25.8454C71.9084 23.4706 73.4167 21.6739 75.8076 21.6739C78.0859 21.6739 79.5784 23.3584 79.5784 25.6209C79.5788 25.8414 79.5623 26.0619 79.5294 26.2798ZM73.3037 25.2216H78.1978C78.0694 23.8735 77.219 22.879 75.8229 22.879C74.3787 22.8783 73.5121 23.8893 73.3037 25.2209V25.2216ZM82.3053 29.7296H81.0055V21.8194H82.3053V23.5039C82.9309 22.3324 83.9416 21.675 85.1931 21.675V23.1671C83.6213 22.9426 82.3053 24.0015 82.3053 25.9588V29.7296ZM92.9114 26.2798H86.6699C86.8619 27.708 87.9855 28.6546 89.5577 28.6546C90.5687 28.6546 91.5475 28.3658 92.3819 27.772V29.0235C91.5315 29.6012 90.5687 29.874 89.5577 29.874C87.0707 29.874 85.2904 28.2696 85.2904 25.8454C85.2904 23.4706 86.7983 21.6739 89.1892 21.6739C91.4675 21.6739 92.9596 23.3584 92.9596 25.6209C92.9602 25.8415 92.9441 26.0617 92.9114 26.2798ZM86.686 25.2216H91.5794C91.451 23.8735 90.6005 22.879 89.2049 22.879C87.761 22.8783 86.8952 23.8893 86.686 25.2209V25.2216ZM100.713 28.3712C100.072 29.3182 99.0449 29.8956 97.8094 29.8956C95.4986 29.8956 93.8459 28.1786 93.8459 25.8359C93.8459 23.4461 95.4986 21.6962 97.8094 21.6962C99.0449 21.6962 100.072 22.2903 100.713 23.2527V19.3137L102.029 20.1173V29.7292H100.713V28.3712ZM95.1941 25.8202C95.1941 27.4568 96.333 28.6605 97.9378 28.6605C99.5583 28.6605 100.713 27.4568 100.713 25.8202C100.713 24.1514 99.5583 22.932 97.9378 22.932C96.333 22.932 95.1941 24.1507 95.1941 25.8202ZM68.4828 27.1003C68.4828 28.2074 69.1566 28.6407 70.0071 28.6407C70.6677 28.6472 71.3135 28.445 71.8525 28.063V29.3307C71.3062 29.7318 70.5526 29.8923 69.8949 29.8923C68.21 29.8923 67.1829 29.138 67.1829 27.0038V19.31L68.4828 20.1133V27.1003ZM70.5837 21.7159C70.4731 21.6442 70.3495 21.5949 70.2199 21.571C70.0903 21.547 69.9572 21.5488 69.8283 21.5763C69.6994 21.6037 69.5771 21.6563 69.4685 21.7311C69.36 21.8058 69.2671 21.9011 69.1954 22.0117C69.1237 22.1223 69.0744 22.2459 69.0505 22.3755C69.0265 22.5052 69.0283 22.6382 69.0558 22.7671C69.0832 22.8961 69.1358 23.0183 69.2105 23.1269C69.2853 23.2355 69.3806 23.3283 69.4912 23.4L69.519 23.4176C69.6804 23.521 69.8681 23.5759 70.0598 23.5759C70.2515 23.5759 70.4391 23.521 70.6005 23.4176L71.8931 22.5887L70.5837 21.7159ZM38.0362 17.2314C38.9663 17.2314 39.6406 16.8303 39.6406 16.1081C39.6406 15.6749 39.4161 15.3381 38.8212 15.0971L36.9436 14.3432C35.9809 13.926 35.4515 13.3805 35.4515 12.3534C35.4515 10.9735 36.5586 10.1069 38.163 10.1069C39.0932 10.1069 39.9598 10.3636 40.5697 10.8291V12.1947C39.8479 11.5527 38.9649 11.1837 38.1798 11.1837C37.3451 11.1837 36.7513 11.5687 36.7513 12.2108C36.7513 12.692 36.9762 12.9808 37.6021 13.2214L39.4797 13.9757C40.4903 14.409 40.9561 15.0185 40.9561 15.869C40.9561 17.3773 39.7364 18.3078 38.0201 18.3078C36.9765 18.3078 36.0299 18.019 35.3403 17.506V16.092C36.1743 16.8782 37.1052 17.2314 38.0362 17.2314ZM43.4275 15.5143C43.4275 16.6215 44.101 17.0548 44.9518 17.0548C45.6118 17.0607 46.2568 16.8585 46.7954 16.4771V17.7447C46.2491 18.1458 45.4952 18.3063 44.8374 18.3063C43.1525 18.3063 42.1262 17.5524 42.1262 15.4182V8.52189L43.4256 7.71749L43.4275 15.5143ZM54.0653 16.8138C53.4075 17.7447 52.3966 18.3063 51.1611 18.3063C48.8506 18.3063 47.1979 16.5897 47.1979 14.2467C47.1979 11.8569 48.8506 10.1069 51.1611 10.1069C52.3966 10.1069 53.4075 10.6846 54.0653 11.6316V10.2525H55.3813V18.1619H54.0653V16.8138ZM48.5457 14.231C48.5457 15.8675 49.685 17.0709 51.2894 17.0709C52.9103 17.0709 54.0653 15.8675 54.0653 14.231C54.0653 12.5622 52.9103 11.3424 51.2894 11.3424C49.685 11.3424 48.5457 12.5622 48.5457 14.231ZM58.7023 18.1619H57.4025V10.2525H58.7023V11.6002C59.2961 10.6857 60.2428 10.108 61.4461 10.108C63.4359 10.108 64.4948 11.5684 64.4948 13.5099V18.163H63.1792V13.7348C63.1792 12.1944 62.5053 11.3761 61.1254 11.3761C59.6651 11.3761 58.7012 12.6276 58.7012 14.2002L58.7023 18.1619ZM72.5658 16.782C71.9242 17.729 70.8971 18.3067 69.6616 18.3067C67.3511 18.3067 65.6984 16.5897 65.6984 14.2467C65.6984 11.8569 67.3511 10.1069 69.6616 10.1069C70.8971 10.1069 71.9242 10.7007 72.5658 11.6634V8.52079L73.8818 7.71749V18.1619H72.5658V16.782ZM67.0462 14.231C67.0462 15.8675 68.1855 17.0709 69.7899 17.0709C71.4108 17.0709 72.5658 15.8675 72.5658 14.231C72.5658 12.5622 71.4108 11.3424 69.7899 11.3424C68.1866 11.3424 67.0462 12.5622 67.0462 14.231ZM96.6347 16.782C95.993 17.729 94.9659 18.3067 93.7304 18.3067C91.4196 18.3067 89.7669 16.5897 89.7669 14.2467C89.7669 11.8569 91.4196 10.1069 93.7304 10.1069C94.9659 10.1069 95.993 10.7007 96.6347 11.6634V8.52079L97.9502 7.71749V18.1619H96.6347V16.782ZM91.115 14.231C91.115 15.8675 92.254 17.0709 93.8587 17.0709C95.4792 17.0709 96.6347 15.8675 96.6347 14.231C96.6347 12.5622 95.4792 11.3424 93.8587 11.3424C92.2551 11.3424 91.115 12.5622 91.115 14.231ZM82.1613 16.8138C81.5035 17.7447 80.4925 18.3063 79.257 18.3063C76.9466 18.3063 75.2939 16.5897 75.2939 14.2467C75.2939 11.8569 76.9466 10.1069 79.257 10.1069C80.4925 10.1069 81.5035 10.6846 82.1613 11.6316V10.2525H83.4772V18.1619H82.1613V16.8138ZM76.6416 14.231C76.6416 15.8675 77.7809 17.0709 79.3854 17.0709C81.0059 17.0709 82.1613 15.8675 82.1613 14.231C82.1613 12.5622 81.0059 11.3424 79.3854 11.3424C77.7798 11.3424 76.6416 12.5622 76.6416 14.231ZM86.7983 18.1619H85.4984V10.2525H86.7983V11.9373C87.4239 10.7658 88.4349 10.108 89.6865 10.108V11.6002C88.1138 11.3757 86.7983 12.4346 86.7983 14.3922V18.1619ZM45.2593 11.9373C45.398 12.0278 45.557 12.0825 45.722 12.0967C45.887 12.1109 46.0529 12.084 46.205 12.0185C46.3571 11.9531 46.4907 11.851 46.5938 11.7214C46.6969 11.5919 46.7664 11.4388 46.7961 11.2759C46.8198 11.1457 46.8175 11.0121 46.7892 10.8828C46.761 10.7535 46.7074 10.6311 46.6316 10.5227C46.5559 10.4142 46.4596 10.3217 46.3482 10.2506L46.3204 10.2334C46.1586 10.1306 45.9708 10.0763 45.7791 10.077C45.5874 10.0776 45.3999 10.1332 45.2388 10.2371L43.947 11.0689L45.2593 11.9373Z" fill="white"/>
</svg>
