<svg width="113" height="40" viewBox="0 0 113 40" fill="none" xmlns="http://www.w3.org/2000/svg">
<g clip-path="url(#clip0_361_6062)">
<path fill-rule="evenodd" clip-rule="evenodd" d="M81.0941 39.1003H87.0765V12.4H81.0941V39.1003ZM22.1347 23.467H12.0644L17.1162 9.83333L22.1347 23.467ZM27.9509 39.1003H34.2988L20.1406 2.16667H14.1582L0 39.1003H6.28147L10.0703 28.867H24.1621L27.9509 39.1003ZM48.8891 23.9337L60.2223 12.4H52.545L42.1091 23.3333V0H36.1268V39.1003H42.1091V30.2333L44.5685 27.7003L53.3759 39.0667H60.6215L48.8891 23.9337ZM72.4862 39.7003C74.3473 39.7003 75.9759 39.3333 76.9729 38.7333V33.267C76.1421 33.867 74.7465 34.3333 73.5497 34.3333C71.5556 34.3333 70.3591 33.367 70.3591 31.2003V17.367H76.3415V12.367H70.3591V5.23333H64.3768V12.4H60.1891V17.4H64.3768V31.9C64.41 37.1667 67.7671 39.7003 72.4862 39.7003ZM87.8076 4.33333C87.8076 2.30033 86.0794 0.666667 84.0853 0.666667C82.0912 0.666667 80.3629 2.30033 80.3629 4.33333C80.3629 6.367 82.0912 8 84.0853 8C86.0794 8 87.8076 6.367 87.8076 4.33333ZM107.084 32C106.419 33.7003 104.026 34.7003 101.634 34.7003C98.9415 34.7003 96.1165 33.5667 96.1165 30.867C96.1165 28.2333 98.9415 27.0667 101.634 27.0667C104.026 27.0667 106.419 28.1003 107.084 29.767V32ZM112.767 39.1003V21.6003C112.767 15.5337 108.813 11.8003 102.099 11.8003C96.6482 11.8003 92.4606 15.2333 91.6629 19.8003H97.4126C98.0773 17.9337 99.5729 16.9 101.966 16.9C105.389 16.9 107.051 19 107.051 21.7003V23.867C105.988 23.1003 103.262 22.2333 100.869 22.2333C94.9865 22.2333 90.4997 25.767 90.4997 30.8333C90.4997 36.3003 94.9865 39.5667 100.437 39.5667C103.428 39.5667 106.12 38.5 107.018 37.5667V39.0667H112.767V39.1003Z" fill="white"/>
</g>
<defs>
<clipPath id="clip0_361_6062">
<rect width="113" height="40" fill="white"/>
</clipPath>
</defs>
</svg>
