<svg width="370" height="40" viewBox="0 0 370 40" fill="none" xmlns="http://www.w3.org/2000/svg">
<path d="M1.4375 1.15158H9.50223V15.2378H24.3475V1.15158H32.4122V37.8581H24.3475V22.0239H9.50223V37.8581H1.4375V1.15158Z" fill="white"/>
<path d="M37.9088 19.4534C38.3197 12.6159 44.4325 10.5595 50.3912 10.5595C55.682 10.5595 62.0516 11.742 62.0516 18.1168V31.9459C62.0516 34.3617 62.3085 36.7785 62.9763 37.8581H55.5793C55.3225 37.0355 55.117 36.1615 55.0656 35.2876C52.7541 37.7038 49.3638 38.5778 46.1276 38.5778C41.0936 38.5778 37.0869 36.0587 37.0869 30.6093C37.0869 24.5944 41.6073 23.1549 46.1276 22.538C50.5966 21.8702 54.7574 22.0244 54.7574 19.0421C54.7574 15.9061 52.6 15.4435 50.0316 15.4435C47.2577 15.4435 45.4599 16.5745 45.203 19.4534H37.9088ZM54.7569 24.8514C53.5241 25.931 50.9557 25.9824 48.6955 26.3937C46.4353 26.8564 44.3806 27.6275 44.3806 30.3003C44.3806 33.025 46.4867 33.6939 48.8496 33.6939C54.5514 33.6939 54.7569 29.1698 54.7569 27.5761V24.8514Z" fill="white"/>
<path d="M67.1875 11.2793H74.1221V14.9808H74.2763C76.1255 11.999 79.3103 10.5595 82.3923 10.5595C90.1489 10.5595 92.1009 14.9294 92.1009 21.5098V37.8581H84.8066V22.8459C84.8066 18.4761 83.5224 16.3169 80.1322 16.3169C76.1769 16.3169 74.4817 18.5275 74.4817 23.9255V37.8575H67.1875V11.2793Z" fill="white"/>
<path d="M116.089 34.465H115.986C114.291 37.3434 111.311 38.5778 107.921 38.5778C99.9079 38.5778 96.0039 31.6889 96.0039 24.3373C96.0039 17.1909 99.9592 10.5595 107.767 10.5595C110.901 10.5595 113.983 11.8962 115.626 14.5181H115.729V1.15158H123.023V37.8581H116.089V34.465ZM109.719 16.0604C104.942 16.0604 103.298 20.1731 103.298 24.543C103.298 28.7071 105.199 33.077 109.719 33.077C114.548 33.077 115.986 28.8614 115.986 24.4921C115.986 20.1731 114.445 16.0604 109.719 16.0604Z" fill="white"/>
<path d="M134.016 26.3423C134.221 30.9692 136.482 33.077 140.54 33.077C143.468 33.077 145.83 31.2776 146.293 29.6331H152.714C150.659 35.905 146.293 38.5783 140.283 38.5783C131.91 38.5783 126.722 32.8205 126.722 24.5949C126.722 16.6269 132.218 10.5606 140.283 10.5606C149.323 10.5606 153.69 18.1692 153.176 26.3428L134.016 26.3423ZM145.881 21.7154C145.214 18.014 143.621 16.0604 140.077 16.0604C135.454 16.0604 134.118 19.6591 134.015 21.7154H145.881Z" fill="white"/>
<path d="M157.182 1.15158H164.476V37.8581H157.182V1.15158Z" fill="white"/>
<path d="M175.366 29.2212C175.418 32.4086 178.089 33.6939 180.965 33.6939C183.071 33.6939 185.743 32.8713 185.743 30.3003C185.743 28.0897 182.712 27.3186 177.472 26.1876C173.26 25.2622 169.048 23.7718 169.048 19.093C169.048 12.3069 174.904 10.559 180.606 10.559C186.41 10.559 191.753 12.5126 192.318 19.0416H185.383C185.178 16.2141 183.02 15.4429 180.4 15.4429C178.757 15.4429 176.342 15.7514 176.342 17.9106C176.342 20.533 180.452 20.8924 184.612 21.8691C188.876 22.8454 193.037 24.3882 193.037 29.3235C193.037 36.3147 186.975 38.5773 180.914 38.5773C174.75 38.5773 168.74 36.2638 168.432 29.2207L175.366 29.2212Z" fill="white"/>
<path d="M196.786 1.15158H204.08V14.5181H204.183C205.981 11.7934 209.268 10.5595 212.556 10.5595C217.847 10.5595 223.549 14.8265 223.549 24.543C223.549 34.3108 217.847 38.5778 212.556 38.5778C208.653 38.5778 205.416 37.3954 203.824 34.465H203.721V37.8581H196.787L196.786 1.15158ZM210.039 16.0604C205.725 16.0604 203.824 20.1217 203.824 24.5944C203.824 29.0161 205.725 33.077 210.039 33.077C214.354 33.077 216.255 29.0161 216.255 24.5944C216.255 20.1217 214.354 16.0604 210.039 16.0604Z" fill="white"/>
<path d="M227.349 19.4534C227.76 12.6159 233.873 10.5595 239.831 10.5595C245.122 10.5595 251.492 11.742 251.492 18.1168V31.9459C251.492 34.3617 251.748 36.7785 252.417 37.8581H245.02C244.763 37.0355 244.557 36.1615 244.506 35.2876C242.195 37.7038 238.804 38.5778 235.568 38.5778C230.534 38.5778 226.527 36.0587 226.527 30.6093C226.527 24.5944 231.048 23.1549 235.568 22.538C240.037 21.8702 244.198 22.0244 244.198 19.0421C244.198 15.9061 242.041 15.4435 239.472 15.4435C236.698 15.4435 234.9 16.5745 234.643 19.4534H227.349ZM244.198 24.8514C242.965 25.931 240.397 25.9824 238.137 26.3937C235.876 26.8564 233.822 27.6275 233.822 30.3003C233.822 33.025 235.929 33.6939 238.291 33.6939C243.993 33.6939 244.198 29.1698 244.198 27.5761L244.198 24.8514Z" fill="white"/>
<path d="M256.628 11.2793H263.562V14.9808H263.716C265.565 11.999 268.75 10.5595 271.832 10.5595C279.589 10.5595 281.54 14.9294 281.54 21.5098V37.8581H274.247V22.8459C274.247 18.4761 272.963 16.3169 269.573 16.3169C265.617 16.3169 263.923 18.5275 263.923 23.9255V37.8575H256.628L256.628 11.2793Z" fill="white"/>
<path d="M287.243 1.15158H294.537V20.8415L303.732 11.2788H312.362L302.345 21.0466L313.493 37.8575H304.657L297.363 25.9819L294.538 28.7061V37.857H287.244L287.243 1.15158Z" fill="white"/>
<path d="M321.556 26.3423C321.762 30.9692 324.022 33.077 328.08 33.077C331.008 33.077 333.371 31.2776 333.833 29.6331H340.254C338.199 35.905 333.833 38.5783 327.823 38.5783C319.45 38.5783 314.262 32.8205 314.262 24.5949C314.262 16.6269 319.758 10.5606 327.823 10.5606C336.864 10.5606 341.23 18.1692 340.716 26.3428L321.556 26.3423ZM333.421 21.7154C332.754 18.014 331.161 16.0604 327.617 16.0604C322.994 16.0604 321.659 19.6591 321.556 21.7154H333.421Z" fill="white"/>
<path d="M344.517 11.2793H351.451V14.9808H351.605C353.455 11.999 356.639 10.5595 359.721 10.5595C367.478 10.5595 369.429 14.9294 369.429 21.5098V37.8581H362.135V22.8459C362.135 18.4761 360.851 16.3169 357.461 16.3169C353.505 16.3169 351.811 18.5275 351.811 23.9255V37.8575H344.517L344.517 11.2793Z" fill="white"/>
</svg>
