<svg width="532" height="40" viewBox="0 0 532 40" fill="none" xmlns="http://www.w3.org/2000/svg">
<g clip-path="url(#clip0_361_6073)">
<path fill-rule="evenodd" clip-rule="evenodd" d="M12.3496 3.53265C12.3794 3.56565 12.3994 3.5879 14.3699 6.85089H29.3302C27.2656 3.60735 27.2262 3.53335 27.1997 3.48362C27.1726 3.43258 27.159 3.40705 24.9868 0.0119197C23.4136 0.0119197 22.187 0.00900497 20.947 0.00605816C18.4257 6.62352e-05 15.8486 -0.00605815 10.1874 0.0119197C12.2794 3.45472 12.3195 3.49921 12.3496 3.53265ZM451.074 13.4996C450.916 13.2314 450.87 13.155 450.822 13.0789L450.76 12.9749L450.756 12.9699C450.617 12.7413 450.264 12.1634 448.645 9.47908C460.281 9.42544 471.943 9.42544 483.633 9.42544C485.639 12.6834 485.67 12.7516 485.707 12.8291C485.744 12.9059 485.786 12.9918 487.761 16.2108H465.454V21.1992H474.812V27.7699C473.777 27.7699 472.732 27.7641 471.685 27.7582C469.591 27.7462 467.494 27.7343 465.454 27.7699V33.4021H487.948C486.321 36.5406 486.267 36.628 486.219 36.7189C486.174 36.8089 486.134 36.9023 484.572 39.9728H452.642V16.0767H452.613C451.71 14.5643 451.289 13.8594 451.074 13.4996ZM53.0843 39.9193C53.0668 30.951 53.0725 26.9966 53.0784 22.9972C53.0812 20.9806 53.0843 18.9525 53.0843 16.2644C51.1414 12.9112 51.1255 12.8896 51.07 12.8136C51.0168 12.7405 50.9269 12.6174 49.0626 9.45228H65.6851V32.1951C68.4198 32.2218 71.1208 32.2218 73.8221 32.2218C76.5231 32.2218 79.2245 32.2218 81.9592 32.2486C80.0151 35.8179 79.9135 36.0248 79.8852 36.0828L79.8815 36.09C79.8727 36.1075 79.8635 36.1248 79.7802 36.2735C79.6105 36.5778 79.1322 37.4335 77.723 39.9727C72.2267 39.9727 61.8776 39.9728 53.0843 39.9193ZM135.285 39.9728V16.5327C133.298 13.1073 133.268 13.0661 133.231 13.0157C133.194 12.9655 133.151 12.9061 131.157 9.47914H154.723C159.099 16.501 159.154 16.6067 159.194 16.6838C159.234 16.7607 159.259 16.8093 163.544 23.6666V9.47914H173.892V39.9728H157.511C151.702 30.8491 151.64 30.7078 151.603 30.6238C151.566 30.5394 151.555 30.5134 145.715 21.4138C145.698 25.2501 145.702 27.7623 145.707 31.3456C145.71 33.5991 145.715 36.2765 145.715 39.9728C141.237 39.9996 139.226 39.9996 135.285 39.9728ZM426.373 33.6801L426.378 33.6884C426.421 33.7648 426.585 34.0564 430.227 39.9729V39.9462H445.08C440.21 31.8449 439.944 31.4251 439.851 31.2762L439.842 31.2605C439.796 31.1906 439.754 31.1199 439.148 30.1033L439.137 30.0833L439.123 30.0611C438.472 28.9668 437.19 26.8153 434.623 22.514C440.286 16.1775 440.288 16.1753 440.43 16.0248C440.563 15.8804 440.823 15.5995 446.339 9.45296H437.546L432.252 15.2672C428.986 18.8539 425.687 22.4776 422.478 26.0002V9.45228H406.042C407.944 12.6468 408.017 12.7681 408.063 12.8383C408.105 12.9107 408.116 12.9286 410.063 16.2108C410.038 24.3639 410.038 33.8848 410.038 39.9459C411.088 39.9459 412.124 39.9476 413.154 39.9492C416.216 39.9542 419.227 39.9592 422.478 39.9192C422.493 37.5983 422.483 35.5692 422.478 33.5846V33.4897C422.472 31.5167 422.463 29.5839 422.478 27.4477C425.129 31.6976 425.956 33.0164 426.227 33.4495C426.346 33.6375 426.361 33.6589 426.373 33.6801ZM249.739 32.2492C239.363 32.1954 238.478 32.1954 225.234 32.1954C227.474 35.7774 227.62 36.0002 227.691 36.1083L227.699 36.1199C227.761 36.2147 227.82 36.311 229.402 38.8584L230.06 39.9196H257.326C267.246 38.6591 267.219 20.9581 257.675 19.4026C256.002 19.4026 254.535 19.3998 253.032 19.3969C249.912 19.391 246.635 19.3845 241.026 19.4026C239.363 18.8126 239.739 16.667 241.052 16.1842H261.026C260.89 15.948 260.176 14.7828 259.367 13.4622C258.432 11.9353 257.37 10.2004 256.924 9.45262C251.635 9.41687 246.381 9.42879 241.123 9.44071C238.493 9.44664 235.861 9.45262 233.224 9.45262C229.712 9.80128 225.181 13.7169 225.288 19.4831C225.556 28.7626 230.275 28.9503 249.82 28.7626C251.482 29.0576 251.509 31.7662 249.739 32.2492ZM207.326 9.69383C203.85 9.4484 201.216 9.45253 191.148 9.4683C188.014 9.47323 184.16 9.47929 179.336 9.47929L179.679 10.0404L179.68 10.0424L179.694 10.0644C181.366 12.7956 181.403 12.8571 181.438 12.9203L181.441 12.9247C181.477 12.9913 181.55 13.1251 183.438 16.2378C183.411 24.304 183.411 31.8883 183.411 39.9536V39.973C186.237 39.973 188.694 39.9769 190.852 39.9807H190.859C199.778 39.9953 203.608 40.0016 207.298 39.6778C215.421 39.0879 220.998 32.3026 220.998 26.0269C220.944 18.0615 217.031 11.2762 207.326 9.69383ZM196.173 33.3486C196.173 30.9391 196.169 28.7444 196.165 26.6839C196.16 22.9184 196.154 19.6005 196.173 16.2378C203.706 15.755 207.379 17.6592 207.299 25.7319C206.977 31.9808 204.162 33.9385 196.173 33.3486ZM349.898 25.0137L349.929 25.0674C350.127 25.393 350.763 26.4361 359.1 39.9729H337.435L338.281 38.4165L338.298 38.3842C339.087 36.929 339.158 36.7973 339.232 36.6666L339.254 36.6261C339.35 36.4568 339.546 36.1058 341.028 33.4021H322.878C321.658 35.8142 321.446 36.2102 321.302 36.4769C321.135 36.7911 321.061 36.925 319.553 39.9728H309.739C313.045 33.7047 316.415 27.3518 319.76 21.0488L319.765 21.0372L322.34 16.1842C320.538 13.3447 320.34 13.0151 320.289 12.9265L320.274 12.9041C320.263 12.8875 320.252 12.8712 320.215 12.8134C320.09 12.625 319.671 11.9959 318.024 9.4793H340.303C346.136 18.9251 348.351 22.5155 349.243 23.9553C349.758 24.7915 349.83 24.9023 349.898 25.0137ZM328.98 22.2585C328.932 22.3622 328.912 22.4072 327.033 26.0268H335.746L334.283 23.7842L334.274 23.7706L334.265 23.7562C333.302 22.2807 333.22 22.154 333.133 22.0305L333.107 21.9949C332.991 21.8327 332.751 21.4929 330.84 18.6248C329.097 22.0069 329.028 22.1594 328.98 22.2585ZM49.8139 40L49.7975 39.9732H49.8139V40ZM49.7975 39.9732C43.4755 29.7907 37.1806 19.6351 30.9392 9.4794C28.4637 9.4794 25.9883 9.47344 23.5128 9.46749C18.5619 9.45556 13.6107 9.44365 8.65978 9.4794C10.7536 12.8226 10.751 12.8251 10.7477 12.8285C10.7443 12.8319 10.7402 12.8359 12.8154 16.1574C6.42331 27.9828 6.38774 28.0183 6.37761 28.0283C6.37367 28.0322 6.37084 28.0376 5.98079 28.7657C5.37982 29.8878 3.85958 32.7261 0 39.9196V39.9461C4.86112 39.9863 4.8661 39.9797 4.87612 39.9663C4.88617 39.9529 4.90129 39.9327 9.81263 39.9461C11.3733 37.0335 11.5162 36.7909 11.6158 36.6217C11.7198 36.445 11.7767 36.3482 13.3516 33.3754H31.4486C29.8265 36.4181 29.7926 36.4742 29.7244 36.5866C29.6576 36.697 29.5577 36.8617 27.8829 39.973L49.7975 39.9732ZM21.9115 26.0194L21.7686 26.0203L21.6328 26.0194C21.3717 26.0172 20.613 26.0108 17.4271 26.0002H17.3733C18.9599 23.1015 19.2832 22.4992 19.389 22.3022L19.437 22.2132C19.4534 22.1831 19.4705 22.1531 19.5092 22.0847C19.6432 21.8478 20.0383 21.1496 21.5826 18.3834C22.6426 20.0864 23.4655 21.4029 24.1026 22.4221C26.1245 25.6565 26.2755 25.8982 26.194 26.0002C22.9662 26.0107 22.1816 26.0171 21.9115 26.0194ZM122.016 24.8617L122.264 25.2632L122.269 25.272C122.811 26.1488 124.635 29.1016 131.371 39.9997H109.574C110.401 38.4119 110.804 37.6346 111.017 37.2244L111.019 37.2215L111.021 37.2166L111.023 37.2132C111.194 36.8835 111.239 36.7963 111.286 36.7097L111.342 36.6058C111.461 36.3839 111.747 35.8539 113.06 33.3754C106.974 33.4021 101.022 33.4021 94.8821 33.4021C93.3756 36.3398 93.2559 36.5572 93.2134 36.6345L93.2068 36.6463C93.1883 36.6805 93.1706 36.7154 92.9977 37.0593L92.9957 37.0626L92.9948 37.0646L92.9937 37.0672C92.7922 37.4678 92.3839 38.2802 91.5307 39.9727H81.6643C81.677 39.96 81.8259 39.6808 83.2303 37.0454C84.8138 34.0747 87.9936 28.1096 94.3728 16.1571C92.5054 13.1249 92.3464 12.8514 92.2748 12.7279L92.2629 12.7079C92.2115 12.6195 92.1572 12.5325 91.3606 11.2568L91.3538 11.2461L90.2171 9.42544C101.719 9.42544 103.917 9.42544 112.497 9.47909C121.296 23.7038 121.858 24.608 121.996 24.8297L122.016 24.8617ZM101.062 22.2013L101.061 22.2035C101.041 22.2475 100.993 22.3527 99.0111 25.9999C102.175 25.9999 103.73 25.9999 107.832 25.973C105.617 22.4446 105.541 22.3277 105.485 22.2412C105.427 22.1529 105.39 22.0962 103.113 18.4636L101.774 20.9022C101.092 22.1419 101.076 22.1711 101.062 22.2013ZM302.021 24.1493V23.9079C305.317 22.3524 306.659 19.2145 306.523 16.2376C306.282 11.8928 303.52 9.90819 299.445 9.47908C294.043 9.49241 290.498 9.47919 286.032 9.46255C281.527 9.44575 276.084 9.42544 266.844 9.42544C268.698 12.4895 268.815 12.6799 268.869 12.7673L268.874 12.7768C268.915 12.8433 268.956 12.9102 269.837 14.3725L270.946 16.2108V16.2304C270.946 24.3477 270.946 30.9419 270.919 39.9728C274.74 39.9728 277.998 39.976 281.15 39.9789C287.154 39.9848 292.776 39.9901 301.16 39.9728C310.733 38.8731 309.579 25.2221 302.021 24.1493ZM283.655 16.2108C285.121 16.2457 286.406 16.2351 287.518 16.226C291.536 16.193 293.336 16.1782 293.441 18.3831C293.333 21.0068 290.97 20.9839 287.014 20.9456C285.995 20.9356 284.872 20.9249 283.655 20.9577C283.655 20.4545 283.661 19.9338 283.666 19.4072C283.677 18.3345 283.689 17.2357 283.655 16.2108ZM283.627 33.4021V27.5286C284.555 27.5317 285.418 27.5279 286.213 27.5243C292.224 27.4975 294.57 27.487 294.807 30.6127C294.635 33.3795 292.563 33.3764 287.668 33.3693C286.49 33.3676 285.146 33.3656 283.627 33.4021ZM363.415 39.9728V16.5327C361.46 13.1375 361.412 13.0671 361.378 13.017C361.344 12.9663 361.324 12.9365 359.341 9.47914H382.879C387.205 16.4234 387.307 16.6035 387.353 16.6812L387.354 16.6847C387.386 16.7417 387.419 16.7972 389.202 19.6398C389.814 20.6159 390.631 21.9206 391.727 23.6667V9.47914H402.05V39.9728H385.668C379.833 30.8321 379.768 30.7073 379.725 30.6235C379.683 30.5394 379.661 30.4967 373.842 21.4138C373.831 24.3974 373.837 26.5801 373.842 29.0886C373.851 31.8336 373.857 34.9706 373.842 39.9728C369.394 39.9996 367.383 39.9996 363.415 39.9728ZM493.393 16.5327V39.9728C497.332 39.9996 499.344 39.9996 503.796 39.9728C503.812 33.6005 503.807 30.2574 503.801 26.892C503.797 25.2007 503.796 23.5038 503.796 21.4138C509.616 30.4624 509.673 30.5388 509.715 30.6226C509.761 30.7064 509.789 30.7976 515.618 39.9728H532V9.47914H521.652V23.6666C517.367 16.8339 517.322 16.7612 517.282 16.6846C517.24 16.6074 517.209 16.5262 512.831 9.47914H489.265C491.254 12.9242 491.288 12.966 491.327 13.0165C491.367 13.0666 491.415 13.1253 493.393 16.5327Z" fill="white"/>
</g>
<defs>
<clipPath id="clip0_361_6073">
<rect width="532" height="40" fill="white"/>
</clipPath>
</defs>
</svg>
