<svg width="108" height="40" viewBox="0 0 108 40" fill="none" xmlns="http://www.w3.org/2000/svg">
<g clip-path="url(#clip0_361_6075)">
<mask id="mask0_361_6075" style="mask-type:luminance" maskUnits="userSpaceOnUse" x="0" y="0" width="108" height="40">
<path d="M0 0H108V40H0V0Z" fill="white"/>
</mask>
<g mask="url(#mask0_361_6075)">
<path d="M41.1554 14.4883C43.6419 14.4883 45.1623 15.9858 45.1623 18.6608V30.0783H47.9276V18.5425C47.9276 14.725 45.6428 12.2442 41.4769 12.2442C38.231 12.2442 36.3465 13.78 35.3033 15.8675C34.4619 13.8208 32.2592 12.2442 29.334 12.2442C27.0082 12.2442 25.0843 13.0708 23.723 15.1975V12.7167H20.9971V30.0783H23.7624V19.1333C23.7624 16.5758 25.7281 14.4883 29.0133 14.4883C31.5375 14.4883 33.0613 15.9858 33.0613 18.6608V30.0783H35.8266V19.3308C35.8266 16.2983 37.9907 14.4883 41.1554 14.4883ZM96.299 8.89667H98.9831C98.9831 8.3825 98.9831 7.99 98.8626 7.36083C97.9818 2.63667 94.0536 0 89.7253 0C84.676 0 80.6273 3.77917 80.6273 8.89667C80.6273 14.4475 84.0331 16.455 84.0331 21.6517C84.0331 25.4317 81.6286 28.3042 77.8595 28.3042C74.0904 28.3042 71.4883 25.1542 71.4883 21.4158C71.4883 17.6775 73.892 15.1942 76.5786 14.7633C76.8836 14.7179 77.1912 14.6912 77.4995 14.6833V12.4008C77.219 12.4008 76.7778 12.44 76.417 12.4808C72.7709 12.915 68.723 16.0242 68.723 21.4183C68.723 26.4558 72.4913 30.5517 77.8201 30.5517C83.149 30.5517 86.8762 26.535 86.8762 21.6133C86.8762 15.9058 83.4713 13.8183 83.4713 8.89917C83.4713 4.76583 86.1973 2.24417 89.7621 2.24417C92.8874 2.24417 95.4124 3.93583 96.1759 7.71833C96.2145 8.0725 96.2957 8.545 96.2957 8.89917" fill="white"/>
<path d="M98.9833 12.2442C96.218 12.2442 94.0153 13.6233 92.6113 15.9858V12.7167H89.846V40H92.6113V20.7483C92.6113 16.8125 95.3766 14.4883 98.743 14.4883C102.629 14.4883 105.196 17.4408 105.196 21.1408C105.196 25.1983 102.83 28.3075 98.743 28.3075C97.5801 28.3075 96.6181 28.1092 95.7767 27.755V30.0783C96.66 30.3533 97.781 30.5508 98.743 30.5508C104.514 30.5508 108 26.4175 108 21.1408C108 16.26 104.114 12.2442 98.9833 12.2442ZM58.51 12.2442C54.9452 12.2442 52.2193 13.86 51.6181 16.6142H54.3834C54.9452 15.0408 56.5083 14.4892 58.51 14.4892C60.8752 14.4892 62.8384 15.4725 62.8384 18.1117V18.5842C62.8384 19.5292 62.357 20.1192 61.1163 20.1192H56.9888C53.3821 20.1192 50.8973 22.0475 50.8973 25.2358C50.8973 28.425 53.5806 30.5508 57.2685 30.5508C59.5532 30.5508 61.678 29.6858 62.8803 27.6783V30.0783H65.6062V18.15C65.6062 14.5683 62.8803 12.2442 58.5134 12.2442H58.51ZM62.8384 23.7808C62.8384 26.9283 60.3553 28.3867 57.7105 28.3867C54.7443 28.3867 53.7003 26.7333 53.7003 25.2367C53.7003 23.4258 54.7828 22.1658 57.389 22.1658H60.5955C61.5156 22.1658 62.3989 22.0092 62.8384 21.495V23.7783V23.7808ZM9.05609 12.245C4.00605 12.245 0 16.0625 0 21.4158C0 26.7692 4.00605 30.5492 9.05609 30.5492C14.1045 30.5492 18.154 26.7692 18.154 21.4158C18.154 16.0625 14.1472 12.2417 9.05609 12.2417V12.245ZM9.05609 28.3075C5.28949 28.3075 2.80381 25.355 2.80381 21.4192C2.80381 17.4833 5.29033 14.4892 9.05609 14.4892C12.8219 14.4892 15.3469 17.4808 15.3469 21.4192C15.3469 25.3575 12.8604 28.3075 9.05609 28.3075Z" fill="white"/>
</g>
</g>
<defs>
<clipPath id="clip0_361_6075">
<rect width="108" height="40" fill="white"/>
</clipPath>
</defs>
</svg>
