<svg width="40" height="40" viewBox="0 0 40 40" fill="none" xmlns="http://www.w3.org/2000/svg">
<path d="M20 0C25.3043 0 30.3919 2.10669 34.1426 5.85742C37.8933 9.60815 40 14.6957 40 20C40 25.3043 37.8933 30.3919 34.1426 34.1426C30.3919 37.8933 25.3043 40 20 40C14.6957 40 9.60815 37.8933 5.85742 34.1426C2.10669 30.3919 0 25.3043 0 20C7.89274e-08 14.6957 2.10669 9.60815 5.85742 5.85742C9.60815 2.10669 14.6957 7.89263e-08 20 0ZM18 4.40039V12.6396C16.6401 11.7597 14.9601 11.2002 13.2002 11.2002C8.3202 11.2002 4.40039 15.12 4.40039 20C4.40039 24.88 8.3202 28.7998 13.2002 28.7998C14.9601 28.7998 16.6401 28.2403 18 27.3604V35.5996H22V27.3604C23.3599 28.2403 25.0399 28.7998 26.7998 28.7998C31.6798 28.7998 35.5996 24.88 35.5996 20C35.5996 15.12 31.6798 11.2002 26.7998 11.2002C25.0399 11.2002 23.3599 11.7597 22 12.6396V4.40039H18ZM13.2002 15.2002C15.8401 15.2003 18 17.3601 18 20C18 22.6399 15.8401 24.7997 13.2002 24.7998C10.5602 24.7998 8.40039 22.64 8.40039 20C8.40039 17.36 10.5602 15.2002 13.2002 15.2002ZM26.7998 15.2002C29.4398 15.2002 31.5996 17.36 31.5996 20C31.5996 22.64 29.4398 24.7998 26.7998 24.7998C24.1599 24.7997 22 22.6399 22 20C22 17.3601 24.1599 15.2003 26.7998 15.2002Z" fill="white"/>
</svg>
