<svg width="178" height="40" viewBox="0 0 178 40" fill="none" xmlns="http://www.w3.org/2000/svg">
<g clip-path="url(#clip0_361_6082)">
<path d="M175.263 16.0111C175.263 16.0111 174.595 16.1667 174.506 16.0778L174.562 16.0444C174.501 15.9853 174.449 15.918 174.406 15.8444C174.139 15.9556 173.906 16.0111 173.683 16.0111C173.48 16.0145 173.282 15.9434 173.127 15.8111C172.989 15.8806 172.837 15.9185 172.682 15.9222C172.512 15.9226 172.345 15.8723 172.204 15.7778C172.005 15.7312 171.83 15.6124 171.714 15.4444C171.603 15.2889 171.536 15.1222 171.492 14.9444C171.372 15.0077 171.238 15.0408 171.102 15.0408C170.966 15.0408 170.833 15.0077 170.713 14.9444L170.546 14.8667C170.466 15.0243 170.337 15.1524 170.179 15.2323C170.021 15.3122 169.842 15.3398 169.667 15.3111C169.526 15.29 169.388 15.2527 169.255 15.2C169.245 15.2118 169.234 15.2229 169.222 15.2333C169.202 15.2716 169.18 15.3087 169.155 15.3444C169.055 15.8222 168.799 16.0111 168.577 16.1C168.491 16.1326 168.401 16.1514 168.31 16.1556C168.29 16.2855 168.239 16.4089 168.162 16.5152C168.084 16.6215 167.983 16.7078 167.865 16.7667C167.82 16.9495 167.737 17.121 167.622 17.2702C167.508 17.4194 167.363 17.5431 167.197 17.6333C167.075 17.9444 166.908 18.2556 166.719 18.5333C166.463 18.8667 166.185 19.1556 165.862 19.4111C170.691 19.0556 174.106 17.4111 175.563 16.1333C175.708 16.0111 175.497 16.1667 175.252 16.0222" fill="white"/>
<path d="M177.688 11.5889C177.344 11.5889 177.321 11.3 177.321 11.3C177.321 11.3 178.1 10.4445 177.878 10.4778H177.744C177.744 10.4778 177.822 9.71114 177.544 9.83336C177.255 9.94448 177.154 9.92225 177.154 9.92225C177.154 9.92225 177.01 9.64447 177.088 9.58892C177.177 9.52225 176.698 9.53336 176.698 9.53336C176.698 9.53336 177.722 8.44448 177.255 8.55559C176.999 8.61114 176.976 8.44448 176.976 8.44448L177.31 8.20003C177.488 8.04448 177.611 7.84448 177.488 7.8667C177.31 7.8667 177.244 7.77781 177.244 7.77781C177.244 7.77781 177.677 6.84448 177.433 6.92225C176.843 7.14448 176.765 6.94448 176.765 6.94448C176.765 6.94448 176.965 6.20003 176.91 6.14448C176.854 6.10003 176.609 6.10003 176.776 5.97781C176.943 5.8667 177.143 5.51114 177.11 5.4667C177.099 5.42225 176.921 5.55559 177.043 5.32225C177.154 5.10003 177.243 4.65559 177.199 4.65559C176.932 4.68892 176.776 4.45559 176.776 4.45559C176.776 4.45559 177.399 3.8667 177.366 3.50003C177.366 3.45559 176.654 3.43336 176.787 3.34448C177.255 3.07781 177.544 2.61114 177.544 2.51114C177.544 2.42225 177.154 2.47781 177.232 2.40003C177.566 2.22225 177.455 1.7667 177.544 1.5667C177.499 1.48892 177.232 1.48892 177.232 1.48892C177.232 1.48892 177.143 1.24448 177.31 1.08892C177.533 0.88892 177.655 0.58892 177.588 0.58892C177.232 0.58892 177.588 0.322254 177.622 0.277809C177.644 0.233365 177.878 -0.0110797 177.733 3.14472e-05C177.399 3.14472e-05 176.843 0.333365 176.843 0.333365C176.843 0.333365 176.732 0.155587 176.698 0.222254C176.698 0.333365 176.632 0.566698 176.509 0.755587C176.409 0.911143 176.287 1.05559 176.164 1.18892C176.164 1.18892 175.942 0.900031 175.92 0.955587C175.886 1.08892 175.819 1.22225 175.742 1.34448C175.664 1.4667 175.564 1.57781 175.463 1.67781C175.463 1.67781 175.363 1.54448 175.352 1.62225C175.374 1.75559 175.241 1.9667 175.241 1.9667C175.241 1.9667 174.985 1.62225 174.963 1.6667C174.907 1.68892 174.996 1.64448 174.707 2.21114C174.621 2.36414 174.499 2.49382 174.351 2.58892C174.351 2.58892 174.24 2.38892 174.184 2.47781C174.173 2.83336 173.784 3.10003 173.784 3.10003C173.784 3.10003 173.428 2.85559 173.461 2.72225C173.238 2.73336 173.116 3.11114 172.871 3.34448C172.727 3.50003 172.56 3.63336 172.382 3.75559C172.371 3.72225 172.326 3.55559 172.204 3.5667C172.137 3.93336 171.759 4.34448 171.759 4.34448C171.759 4.34448 171.592 3.94448 171.514 4.01114C171.425 4.07781 171.269 4.10003 171.269 4.10003C171.269 4.10003 171.258 3.82225 171.169 3.7667C171.058 3.68892 171.036 3.48892 170.98 3.54448C170.88 3.6667 170.78 3.7667 170.669 3.85559C170.557 3.92225 170.457 3.97781 170.346 4.02225C170.346 4.02225 170.168 3.6667 170.146 3.80003C170.146 3.85559 170.101 4.14448 170.012 4.33336C169.957 4.4667 169.868 4.58892 169.767 4.68892C169.767 4.68892 169.512 4.4667 169.523 4.54448C169.523 4.57781 169.356 4.75559 169.334 4.94448C169.3 5.1667 169.067 5.2667 169.067 5.2667C169.054 5.19713 169.032 5.12974 169 5.0667C168.969 4.99819 168.924 4.93743 168.866 4.88892C168.838 4.921 168.804 4.9474 168.766 4.9667C168.731 4.98792 168.693 5.00649 168.655 5.02225C168.655 4.91114 168.588 4.64448 168.466 4.42225C168.355 4.25559 168.165 3.9667 168.11 4.05559C168.032 4.15559 167.965 4.27781 167.887 4.34448C167.811 4.41494 167.72 4.46801 167.62 4.50003C167.62 4.50003 167.542 4.34448 167.453 4.42225C167.431 4.55559 167.42 4.68892 167.364 4.81114C167.298 4.9667 167.198 5.10003 167.175 5.08892C167.131 5.0667 166.953 4.82225 166.875 4.90003C166.819 4.90003 166.808 5.2667 166.686 5.50003C166.575 5.70003 166.441 5.90003 166.296 6.0667C166.296 6.01114 166.263 5.95559 166.241 5.91114C166.174 5.83336 166.074 5.65559 166.041 5.74448C166.007 5.83336 165.896 6.00003 165.751 6.13336C165.64 6.23336 165.529 6.31114 165.418 6.38892C165.418 6.38892 165.284 6.1667 165.317 6.07781C165.362 5.98892 165.24 6.02225 165.24 6.02225C165.197 6.02681 165.158 6.04653 165.128 6.07781L165.039 6.1667C165.039 6.1667 164.839 5.91114 164.706 5.78892C164.594 5.6667 164.528 5.65559 164.472 5.68892C164.249 5.84448 164.283 5.92225 164.016 6.07781C163.715 6.24448 163.526 6.8667 163.526 6.8667C163.482 6.83492 163.433 6.8088 163.382 6.78892C163.323 6.78275 163.263 6.78275 163.204 6.78892C162.981 6.81114 163.148 7.21114 163.07 7.45559C163.003 7.71114 162.903 7.94448 162.781 8.1667C162.781 8.1667 162.558 7.95559 162.425 8.03336C162.392 8.20003 162.347 8.3667 162.269 8.53336C162.191 8.71114 162.102 8.8667 162.002 9.03336C161.813 9.04447 161.557 8.91114 161.357 8.73336C161.134 8.55559 161.09 8.24448 160.912 8.28892C160.89 8.75559 160.523 9.40003 160.523 9.40003C160.523 9.40003 160.367 9.32225 160.256 9.43336C160.233 9.57781 160.322 9.62225 160.322 9.94447C160.322 10.2445 160.3 10.5 160.3 10.5C160.3 10.5 160.133 10.3667 159.966 10.5C160.211 11.0556 160.066 11.8 160.066 11.8C159.917 11.728 159.746 11.716 159.588 11.7667C159.477 12 159.688 12.3445 159.777 12.6889C159.833 12.8889 159.855 13.0889 159.833 13.3C159.833 13.3 159.61 13.3445 159.51 13.4889C159.777 15.2889 163.07 17.8223 163.549 18.2667C163.749 18.4445 163.749 18.4334 163.838 18.6111C163.982 19.0667 163.282 19.5445 163.248 19.5556C163.248 19.5556 162.336 20.1111 159.577 20.1111H157.441L151.979 27.2223V10.3556L147.351 12.5778V39.2778H151.979V31.0445L157.04 39.2667H163.226L155.961 28.2889L161.557 21.6223C162.659 20.3778 164.005 19.7667 164.516 19.4556C166.385 18.3 166.575 16.8334 166.575 16.8334C166.575 16.8334 166.741 16.7 166.775 16.8C166.808 16.8889 166.864 16.8667 166.864 16.8667C166.886 16.8445 167.109 16.6778 167.075 16.4556C167.075 16.4556 166.997 16.1 167.075 16.0556C167.164 16.0111 167.22 16.0778 167.309 16.0778C167.376 16.0778 167.442 16.0556 167.498 16.0334C167.509 16.0111 167.453 15.7667 167.487 15.7C167.487 15.7 167.554 15.7 167.565 15.5111C167.565 15.4 167.62 15.3 167.698 15.2223C167.698 15.2223 167.987 15.2111 168.132 15.2778C168.277 15.3445 168.288 15.3111 168.288 15.3111C168.343 15.3111 168.343 15.0778 168.399 15C168.521 14.8223 168.477 14.7223 168.699 14.5778C168.866 14.4778 169.033 14.3556 169.178 14.2445C169.178 14.2445 169.367 14.2778 169.467 14.3778C169.578 14.4667 169.801 14.5 169.801 14.5C169.801 14.5 169.957 14.2111 170.201 14.0556C170.357 13.9667 170.535 13.9111 170.724 13.9111C170.724 13.9111 170.746 13.9111 170.802 14C170.869 14.0889 171.091 14.2223 171.091 14.2223C171.091 14.2223 171.225 14.0223 171.648 13.9223C172.081 13.8223 172.326 13.8111 172.36 13.8556C172.383 14.1051 172.364 14.3568 172.304 14.6C172.259 14.7889 172.393 14.9778 172.404 14.9778C172.422 14.9546 172.445 14.9357 172.471 14.9223C172.507 14.9054 172.544 14.8906 172.582 14.8778C172.604 14.8778 172.571 14.9556 172.593 14.9889C172.613 15.0218 172.631 15.0551 172.649 15.0889C172.649 15.0889 172.671 15.1223 172.838 15.0223C172.994 14.9334 173.45 14.8223 173.494 14.8223C173.539 14.8223 173.394 14.9778 173.472 15.0111C173.55 15.0445 173.695 15.1889 173.695 15.1889C173.806 15.1889 173.973 15.1445 174.262 14.9778C174.551 14.8111 174.74 14.7778 174.785 14.7778C174.829 14.7778 174.729 14.9556 174.807 15C174.874 15.0223 175.041 15.0223 175.074 15.0223C175.107 15.0223 175.041 15.1334 175.074 15.1334C175.107 15.1445 175.041 15.1667 175.074 15.2C175.096 15.2334 175.052 15.3445 175.13 15.4334C175.208 15.5223 175.875 15.3667 175.875 15.3667C176.053 15.7334 176.431 15.3667 176.654 15.2111C176.654 15.1778 176.654 15.0334 176.798 14.9334C177.232 14.6778 177.51 14.3556 177.344 14.4111C177.314 14.4237 177.28 14.4249 177.25 14.4147C177.219 14.4045 177.193 14.3835 177.177 14.3556C177.166 14.3388 177.158 14.3199 177.154 14.3C177.31 14.1334 177.822 13.5 177.599 13.4223C177.221 13.5667 177.043 13.5334 177.043 13.5334C177.043 13.5334 177.288 13.4556 177.154 13.1111C177.154 13.0778 176.531 13.0778 176.743 12.8667C176.899 12.7334 177.11 12.4334 177.054 12.4556C176.887 12.5111 176.865 12.3111 176.865 12.3111C176.865 12.3111 177.088 12.2889 177.332 12.1C177.588 11.8889 177.822 11.5889 177.688 11.5889ZM57.8722 12.4223C55.0799 12.4223 51.5087 12.6445 49.4395 12.6445V39.2778H54.4902V16.0556C55.0799 16.0556 56.0589 16.0111 56.9711 16.0111C60.6424 16.0111 62.4224 17.6445 62.4224 21.7778C62.4224 26.6556 59.3407 27.1667 57.3827 27.2223L55.6472 30.7778C56.0589 30.8 56.4927 30.8111 57.0045 30.8111C58.4285 30.8111 62.0997 30.8111 64.614 28.6778C65.6366 27.7797 66.4465 26.6658 66.9852 25.4168C67.5239 24.1677 67.778 22.8147 67.729 21.4556C67.729 18.7778 66.9057 16.4556 65.593 15.0111C63.4125 12.5556 60.3197 12.4223 57.8834 12.4223M33.5085 36.6C29.0362 36.6 25.0424 32.5445 25.0424 25.6223C25.0424 20.2556 27.6345 15.4 32.8521 15.4C37.291 15.4 41.2849 19.4556 41.2849 26.4667C41.2849 34.4111 36.4344 36.6 33.5085 36.6ZM42.5754 15.3111C39.3936 12.3111 34.9214 12.1111 34.0314 12.1111C30.7384 12.1111 27.412 12.6556 24.1524 15.6111C21.449 18.0556 19.6467 21.3889 19.6467 26.1667C19.6467 32.5 23.229 39.9445 32.6964 39.9445C39.7719 39.9445 46.6471 35.3778 46.6471 25.7889C46.6471 19.9556 44.1329 16.7556 42.5754 15.3111ZM8.44387 12.4223C5.64037 12.4223 2.06925 12.6445 0 12.6445V39.2778H5.06187V16.0556C5.64037 16.0556 6.61937 16.0111 7.53162 16.0111C11.2029 16.0111 12.9829 17.6445 12.9829 21.7778C12.9829 26.6667 9.89012 27.1667 7.94325 27.2223L6.20775 30.7778C6.61937 30.8 7.04212 30.8111 7.565 30.8111C8.989 30.8111 12.6602 30.8111 15.1745 28.6778C16.1971 27.7797 17.007 26.6658 17.5457 25.4168C18.0844 24.1677 18.3385 22.8147 18.2895 21.4556C18.2895 18.7889 17.4551 16.4556 16.1535 15.0111C13.973 12.5667 10.8691 12.4223 8.44387 12.4223ZM145.381 20.1111H139.986L134.535 27.2223V10.3556L129.907 12.5778V39.2778H134.523V31.0445L139.596 39.2667H145.771L138.517 28.2889L145.381 20.1111Z" fill="white"/>
<path d="M164.917 39.2778H169.601V20.1111L164.917 22.4778V39.2778ZM122.097 19.6111C119.872 19.6111 117.691 20.9222 115.845 22.4222L115.911 20.1111L111.217 22.4333V39.2778H115.911V26.1C116.534 25.5111 118.17 24.1 119.994 24.1C122.064 24.1 122.064 25.7333 122.064 28.8333V39.2778H126.714V27.5111C126.714 25.2 126.714 23.4222 125.991 22.0667C125.639 21.3328 125.087 20.7131 124.398 20.2787C123.709 19.8443 122.912 19.6129 122.097 19.6111ZM90.858 15.0111C88.6775 12.5667 85.5847 12.4222 83.1484 12.4222C80.3449 12.4222 76.7849 12.6444 74.6934 12.6444V39.2778H79.7664V16.0555C80.3449 16.0555 81.3239 16.0111 82.2361 16.0111C85.9074 16.0111 87.6874 17.6444 87.6874 21.7778C87.6874 26.6667 84.5946 27.1667 82.6477 27.2222L80.9122 30.7778C81.3239 30.8 81.7577 30.8111 82.2695 30.8111C83.6935 30.8111 87.3647 30.8111 89.879 28.6778C90.9016 27.7797 91.7115 26.6658 92.2502 25.4167C92.7889 24.1677 93.043 22.8147 92.994 21.4555C92.994 18.7889 92.1707 16.4555 90.858 15.0111ZM102.039 35C100.514 35.5 99.9249 35.6889 98.8791 35.6889C97.4329 35.6889 96.9879 35.0889 96.9879 33.5555C96.9879 32 97.3216 31.7778 98.4341 31.4667C98.7345 31.3667 100.225 31.0111 102.039 30.6889V35ZM107.356 35.6889C106.522 35.6889 106.477 35.0889 106.522 34L106.633 27.1444C106.667 25.1444 106.667 23.8778 106.121 22.4222C105.643 21.2 104.119 19.6111 100.77 19.6111C99.3686 19.6111 96.6541 19.9444 94.24 21.5222L95.6195 24.9444C96.1299 24.4292 96.7409 24.0243 97.4145 23.7548C98.0882 23.4853 98.8101 23.357 99.5355 23.3778C99.9805 23.3778 100.948 23.4222 101.571 24.0555C102.05 24.5555 102.05 25.0555 102.05 27.7889C94.1176 29.0111 92.549 29.9222 92.549 34.1889C92.549 39.1889 95.4971 39.7222 96.554 39.7222C98.6232 39.7222 100.67 38.7778 102.45 37.9111C102.739 38.5889 103.24 39.7222 104.92 39.7222C107.067 39.7222 109.325 38.2333 109.426 38.1889L109.448 38.1778L108.38 35.5444C108.046 35.6333 107.712 35.6778 107.356 35.6889Z" fill="white"/>
</g>
<defs>
<clipPath id="clip0_361_6082">
<rect width="178" height="40" fill="white"/>
</clipPath>
</defs>
</svg>
