<svg width="105" height="40" viewBox="0 0 105 40" fill="none" xmlns="http://www.w3.org/2000/svg">
<path d="M32.5081 8.42105C34.2741 8.42105 35.6302 8.95968 36.592 10.0368C37.546 11.114 38.0269 12.5691 38.0269 14.4179V20.5433C38.0269 22.4484 37.5539 23.9758 36.6077 25.1173C35.6616 26.2587 34.282 26.8295 32.4766 26.8295H29.867V31.7249H25.2627V8.42105H32.5081ZM33.0285 21.9339C33.3123 21.5802 33.4542 21.0658 33.4542 20.3985V14.7716C33.4542 13.4372 32.9181 12.778 31.8537 12.778H29.8591V22.4645H31.8143C32.3425 22.4725 32.7446 22.2957 33.0285 21.9339Z" fill="white"/>
<path d="M49.9296 8.42105L54.5654 31.7249H49.9296L49.1097 26.9982H44.3399L43.5199 31.7249H38.9473L43.6461 8.42105H49.9296ZM46.7602 13.2121H46.6972L45.0337 22.8343H48.4001L46.7602 13.2121Z" fill="white"/>
<path d="M60.4563 8.42105L64.8635 22.1349H64.895L64.8635 8.42105H69.2391V31.7249H64.8635L60.1646 17.5448H60.1331L60.1646 31.7249H55.7891V8.42105H60.4563Z" fill="white"/>
<path d="M74.9966 8.42105V21.9741L75.3198 20.9774L79.4984 8.42916H84.1656L80.0817 20.4146L84.3628 31.7329H79.6954L76.8257 24.0079L74.9966 28.3326V31.7249H70.5264V8.42105H74.9966Z" fill="white"/>
<path d="M89.7329 8.42105V21.9741L90.0562 20.9774L94.2347 8.42916H98.9015L94.8181 20.4146L99.0994 31.7329H94.4317L91.5621 24.0079L89.7329 28.3326V31.7249H85.2627V8.42105H89.7329Z" fill="white"/>
<path d="M104.801 8.42105V31.7249H100V8.42105H104.801Z" fill="white"/>
<path d="M11.2898 6.49516C13.9467 3.78617 17.3684 2.60451 21.0107 2.60451H23.6992V0H20.9951C16.6746 0 12.6143 1.45498 9.48441 4.65434C6.33082 7.86979 4.9196 11.9775 4.9196 16.4711V23.2074C4.9196 23.4566 4.90383 23.7701 4.86441 23.9791C4.7698 24.4856 4.57269 24.8955 4.24157 25.2251C3.94198 25.5225 3.5872 25.6994 3.31126 25.7958C3.07475 25.8842 2.77516 25.9485 2.45192 25.9967C1.73447 26.1094 0 26.1415 0 26.1415V34.2202H2.34942C5.34533 34.2202 8.08895 33.2958 10.1467 31.1978C12.2044 29.1077 13.1032 26.4228 13.1032 23.5369V16.4631C13.1032 14.2845 13.7812 12.2427 15.3501 10.6431C16.9268 9.03537 18.9294 8.344 21.0344 8.344H21.4049V11.4469C20.6876 11.4952 20.1829 11.5675 19.5286 11.7765C18.8426 12.0016 18.1883 12.3634 17.6127 12.9502C16.6509 13.9228 16.2567 15.1688 16.2567 16.4631V23.5369C16.2567 27.3152 15.0741 30.7878 12.4094 33.5048C9.75246 36.2138 6.33082 37.3955 2.68843 37.3955H0V40H2.7042C7.02461 40 11.0848 38.5451 14.2148 35.3457C17.3684 32.1302 18.7796 28.0225 18.7796 23.5289V16.7926C18.7796 16.5434 18.7954 16.2299 18.8348 16.0209C18.9294 15.5144 19.1265 15.1045 19.4576 14.7749C19.7573 14.4775 20.112 14.3006 20.3879 14.2042C20.6244 14.1158 20.924 14.0515 21.2473 14.0033C21.9647 13.8906 23.6992 13.8585 23.6992 13.8585V5.77975H21.3498C18.3539 5.77975 15.6102 6.70421 13.5525 8.80221C11.4948 10.8923 10.596 13.5772 10.596 16.4631V23.5369C10.596 25.7155 9.91803 27.7573 8.34912 29.3569C6.77233 30.9646 4.7698 31.656 2.66478 31.656H2.29423V28.4887C3.01167 28.4405 3.55567 28.344 4.17062 28.1592C4.86441 27.9421 5.5109 27.6366 6.08642 27.0579C7.04826 26.0852 7.44246 24.8393 7.44246 23.5451V16.4711C7.44246 12.6929 8.62506 9.21221 11.2898 6.49516Z" fill="white"/>
</svg>
