<svg width="230" height="40" viewBox="0 0 230 40" fill="none" xmlns="http://www.w3.org/2000/svg">
<path fill-rule="evenodd" clip-rule="evenodd" d="M17.9557 25.7374C17.9557 22.8552 17.0626 20.1759 15.4794 17.9973H10.3103C11.5446 18.8757 12.5509 20.0366 13.2453 21.383C13.9397 22.7295 14.3021 24.2225 14.3021 25.7374C14.3021 28.958 12.7189 31.7862 10.2832 33.5047H25.6689C24.4226 32.6297 23.4063 31.4665 22.7066 30.1141C22.0068 28.7617 21.6443 27.2602 21.6499 25.7374C21.6499 22.5439 23.2331 19.7158 25.6418 17.9973H20.4726C18.8894 20.1759 17.9963 22.8416 17.9963 25.7374H17.9557Z" fill="white"/>
<path fill-rule="evenodd" clip-rule="evenodd" d="M17.9838 4.45196C16.6577 4.45196 15.4127 4.96617 14.4655 5.9134C13.5183 6.86062 13.0041 8.10555 13.0041 9.4452C13.0041 10.7307 13.2476 11.5156 13.5183 12.3004C13.7889 13.0852 14.0595 13.7212 14.3167 14.3302C13.7213 14.0595 13.0853 13.8024 12.3004 13.5318C11.5156 13.2612 10.7307 13.0176 9.45874 13.0176C8.13262 13.0176 6.87416 13.5318 5.92694 14.479C4.99324 15.4127 4.4655 16.6712 4.4655 18.0108C4.4655 19.3369 4.97971 20.5954 5.92694 21.5426C6.87416 22.4899 8.11909 23.0041 9.45874 23.0041C10.2165 23.0041 10.9743 22.8552 11.7456 22.4493C12.4205 23.8681 12.6425 25.4601 12.3816 27.0095C11.4073 27.3207 10.4195 27.4831 9.45874 27.4831C6.92829 27.4831 4.56023 26.4953 2.77403 24.7091C1.89326 23.8331 1.19466 22.7914 0.718548 21.6441C0.242432 20.4968 -0.00177735 19.2665 9.73761e-06 18.0244C9.73761e-06 13.1123 3.88364 8.8092 8.71449 8.72801C8.78215 3.89716 13.0853 0 17.9838 0C22.8823 0 27.1854 3.89716 27.2531 8.72801C32.0839 8.79567 35.9675 13.1123 35.9675 18.0244C35.9675 20.5548 34.9797 22.9229 33.207 24.7091C31.9811 25.9485 30.4332 26.8207 28.738 27.2271C27.0428 27.6336 25.2677 27.5582 23.613 27.0095C23.3472 25.4615 23.5645 23.8693 24.2355 22.4493C24.9932 22.8552 25.7646 23.0041 26.5223 23.0041C27.8485 23.0041 29.1069 22.4763 30.0406 21.5426C30.9878 20.5954 31.502 19.3505 31.502 18.0108C31.502 16.6712 30.9878 15.4263 30.0406 14.479C29.581 14.0134 29.0331 13.6443 28.4289 13.3933C27.8248 13.1424 27.1765 13.0146 26.5223 13.0176C25.2503 13.0176 24.452 13.2612 23.6671 13.5318C22.8958 13.8024 22.2463 14.0731 21.6509 14.3302C21.908 13.7348 22.1786 13.0852 22.4493 12.3004C22.7199 11.5156 22.9635 10.7307 22.9635 9.4452C22.9635 8.10555 22.4493 6.86062 21.502 5.9134C20.5548 4.96617 19.3099 4.45196 17.9838 4.45196ZM48.6198 33.8024C45.1421 33.8024 42.138 32.3004 40.1353 29.9459L42.6928 27.456C44.2896 29.2016 46.6441 30.2842 48.8904 30.2842C52.2328 30.2842 53.8295 29.134 53.8295 26.8065C53.8295 24.9662 52.4357 24.046 48.4439 22.8552C43.3965 21.3532 40.9743 20.0947 40.9743 15.8322C40.9743 11.705 44.452 9.18809 48.8498 9.18809C52.0839 9.18809 54.5467 10.3789 56.6577 12.4222L54.1407 14.9797C52.6387 13.4506 50.9337 12.6928 48.5792 12.6928C45.7781 12.6928 44.5873 14.0595 44.5873 15.6563C44.5873 17.3207 45.6834 18.1461 49.797 19.3775C54.5061 20.8119 57.429 22.3139 57.429 26.5629C57.4425 30.866 54.7226 33.8024 48.6198 33.8024ZM70.8796 13.3153C69.6211 13.3153 68.5656 12.2598 68.5656 11.0284C68.5656 9.76996 69.6211 8.71448 70.8796 8.71448C72.111 8.71448 73.1664 9.76996 73.1664 11.0284C73.1664 12.2598 72.111 13.3153 70.8796 13.3153ZM70.9066 25.7916C69.9459 25.318 68.728 25.0068 66.82 25.0068C64.5738 25.0068 63.1394 26.0352 63.1394 27.659C63.1394 29.4317 64.2625 30.6225 66.5765 30.6225C68.4439 30.6225 70.0812 29.4587 70.9066 28.3356V25.7916ZM64.2355 13.3153C62.977 13.3153 61.9215 12.2598 61.9215 11.0284C61.9215 9.76996 62.977 8.71448 64.2355 8.71448C65.4669 8.71448 66.5223 9.76996 66.5223 11.0284C66.5088 12.2598 65.4533 13.3153 64.2355 13.3153ZM70.9066 33.4235V31.6509C69.6752 32.8823 67.9432 33.8024 65.9946 33.8024C63.0988 33.8024 59.797 32.1651 59.797 27.7673C59.797 23.7754 62.8687 21.9756 66.9283 21.9756C68.5927 21.9756 69.9323 22.2192 70.9202 22.6522V21.3261C70.9202 19.3775 69.7294 18.295 67.5508 18.295C65.7104 18.295 64.2761 18.6333 62.8823 19.4181L61.502 16.7524C63.207 15.6969 65.115 15.1556 67.6319 15.1556C71.6238 15.1556 74.3437 17.1042 74.3437 21.1502V33.4235H70.9066ZM87.9973 13.3153C86.7388 13.3153 85.6834 12.2598 85.6834 11.0284C85.6834 9.76996 86.7388 8.71448 87.9973 8.71448C89.2287 8.71448 90.2842 9.76996 90.2842 11.0284C90.2842 12.2598 89.2152 13.3153 87.9973 13.3153ZM88.0244 25.7916C87.0636 25.318 85.8457 25.0068 83.9378 25.0068C81.6915 25.0068 80.2571 26.0352 80.2571 27.659C80.2571 29.4317 81.3803 30.6225 83.6942 30.6225C85.5616 30.6225 87.2125 29.4587 88.0244 28.3356V25.7916ZM81.3397 13.3153C80.0812 13.3153 79.0257 12.2598 79.0257 11.0284C79.0257 9.76996 80.0812 8.71448 81.3397 8.71448C82.571 8.71448 83.6265 9.76996 83.6265 11.0284C83.6265 12.2598 82.571 13.3153 81.3397 13.3153ZM88.0244 33.4235V31.6509C86.793 32.8823 85.0609 33.8024 83.1123 33.8024C80.2165 33.8024 76.9148 32.1651 76.9148 27.7673C76.9148 23.7754 79.9865 21.9756 84.046 21.9756C85.7104 21.9756 87.0501 22.2192 88.0379 22.6522V21.3261C88.0379 19.3775 86.8471 18.295 84.6685 18.295C82.8282 18.295 81.3938 18.6333 80 19.4181L78.6198 16.7524C80.3248 15.6969 82.2328 15.1556 84.7497 15.1556C88.7416 15.1556 91.4614 17.1042 91.4614 21.1502V33.4235H88.0244ZM100.677 33.8024C98.2544 33.8024 95.6292 32.8417 93.8295 31.5156L95.4263 28.8633C97.0907 30.0271 98.9716 30.636 100.636 30.636C102.855 30.636 103.911 29.9188 103.911 28.6604C103.911 27.2936 102.341 26.6441 99.7564 25.6563C95.8999 24.1543 94.5061 22.8552 94.5061 20.0271C94.5061 16.82 97.0365 15.1556 100.609 15.1556C102.855 15.1556 105.074 15.9675 106.671 17.1313L105.142 19.8241C103.681 18.7957 102.206 18.295 100.501 18.295C98.7957 18.295 98.0514 18.9716 98.0514 19.9323C98.0514 20.8119 98.6604 21.475 101.353 22.5169C105.345 24.046 107.388 25.1421 107.388 28.5115C107.388 32.4763 104.195 33.8024 100.677 33.8024ZM118.809 32.977C117.957 33.4506 116.766 33.7889 115.372 33.7889C112.882 33.7889 111.353 32.2598 111.353 29.0528V18.728H108.796V15.521H111.353V10.406L114.79 8.56563V15.521H119.229V18.728H114.79V28.4438C114.79 30.1083 115.332 30.5954 116.631 30.5954C117.551 30.5954 118.579 30.2571 119.215 29.8782L118.809 32.977ZM132.043 13.4777C130.785 13.4777 129.729 12.4222 129.729 11.1908C129.729 9.93234 130.785 8.87686 132.043 8.87686C133.275 8.87686 134.33 9.93234 134.33 11.1908C134.33 12.4222 133.275 13.4777 132.043 13.4777ZM128.66 18.498C126.008 18.498 124.371 20.8525 124.371 24.3978C124.371 28.3221 126.171 30.4601 128.836 30.4601C131.489 30.4601 133.234 27.7673 133.234 24.4926C133.234 20.839 131.502 18.498 128.66 18.498ZM125.399 13.4777C124.141 13.4777 123.085 12.4222 123.085 11.1908C123.085 9.93234 124.141 8.87686 125.399 8.87686C126.631 8.87686 127.686 9.93234 127.686 11.1908C127.673 12.4222 126.617 13.4777 125.399 13.4777ZM128.701 33.8024C124.195 33.8024 120.825 30.0812 120.825 24.4926C120.825 18.6333 124.303 15.1556 128.796 15.1556C133.369 15.1556 136.779 18.7957 136.779 24.3978C136.779 30.3248 133.302 33.8024 128.701 33.8024ZM146.969 18.3897C145.304 18.3897 143.829 19.5129 142.909 20.6766V28.2138C143.694 29.2693 145.332 30.5683 147.104 30.5683C149.621 30.5683 150.988 28.6604 150.988 24.8714C151.001 20.3654 149.567 18.3897 146.969 18.3897ZM147.456 33.8024C145.656 33.8024 143.951 32.8417 142.95 31.7591V38.2003L139.472 40V15.521H142.95V17.226C144.249 16.0352 145.751 15.1421 147.618 15.1421C151.475 15.1421 154.506 17.9296 154.506 24.7497C154.506 30.9066 151.164 33.8024 147.456 33.8024ZM167.537 25.7916C166.576 25.318 165.359 25.0068 163.451 25.0068C161.204 25.0068 159.77 26.0352 159.77 27.659C159.77 29.4317 160.893 30.6225 163.207 30.6225C165.088 30.6225 166.712 29.4587 167.537 28.3356V25.7916ZM167.537 33.4235V31.6509C166.306 32.8823 164.574 33.8024 162.625 33.8024C159.729 33.8024 156.428 32.1651 156.428 27.7673C156.428 23.7754 159.499 21.9756 163.559 21.9756C165.223 21.9756 166.563 22.2192 167.551 22.6522V21.3261C167.551 19.3775 166.36 18.295 164.181 18.295C162.341 18.295 160.907 18.6333 159.513 19.4181L158.119 16.7524C159.824 15.6969 161.732 15.1556 164.249 15.1556C168.241 15.1556 170.961 17.1042 170.961 21.1502V33.4235H167.537ZM185.264 33.4235V23.3018C185.264 19.6888 183.897 18.3897 181.583 18.3897C179.229 18.3897 177.903 20.0541 177.903 22.9499V33.41H174.398V15.521H177.903V17.226C178.796 15.9269 180.568 15.1421 182.409 15.1421C186.563 15.1421 188.782 17.862 188.782 23.1529V33.41H185.264M202.382 33.4235L198.43 24.5196L195.71 28.1326V33.41H192.179V10.406L195.683 8.56563V19.8512C195.683 20.9472 195.643 22.7876 195.643 23.6671C196.116 22.9499 197.009 21.5832 197.618 20.7307L201.34 15.5074H205.332L200.798 21.502L206.184 33.3965H202.382M218.769 33.4235L214.817 24.5196L212.084 28.1326V33.41H208.566V10.406L212.084 8.56563V19.8512C212.084 20.9472 212.043 22.7876 212.043 23.6671C212.517 22.9499 213.41 21.5832 214.019 20.7307L217.74 15.5074H221.732L217.199 21.502L222.585 33.3965H218.769M228.66 33.4235H225.156V15.521H228.66V33.4235ZM226.928 13.207C225.67 13.207 224.641 12.1786 224.641 10.9608C224.641 9.7023 225.67 8.67388 226.928 8.67388C228.16 8.67388 229.175 9.7023 229.175 10.9608C229.175 12.1786 228.146 13.207 226.928 13.207Z" fill="white"/>
</svg>
