<svg width="40" height="40" viewBox="0 0 40 40" fill="none" xmlns="http://www.w3.org/2000/svg">
<g clip-path="url(#clip0_368_23)">
<path d="M0.0253906 0.0231781V39.9794H39.9738V0.0231781H0.0253906Z" fill="url(#paint0_linear_368_23)"/>
<g opacity="0.02">
<path d="M6.32422 21.2131C6.32422 20.8139 13.3732 18.0399 20.1747 18.0399C26.9737 18.0399 33.649 20.8139 33.649 21.2131C33.649 21.9369 27.0252 22.1636 20.1747 22.1636C13.35 22.1636 6.32422 21.9369 6.32422 21.2131Z" fill="#FDFDFD"/>
</g>
<g opacity="0.04">
<path d="M6.45117 21.2131C6.45117 20.8139 13.4254 18.1146 20.1754 18.1146C26.8996 18.1146 33.5001 20.8139 33.5001 21.2131C33.5001 21.9369 27.0259 22.1636 20.1754 22.1636C13.3507 22.1636 6.45117 21.9369 6.45117 21.2131Z" fill="#FCFCFC"/>
</g>
<g opacity="0.06">
<path d="M6.59961 21.2131C6.59961 20.8139 13.4991 18.1893 20.1744 18.1893C26.8238 18.1893 33.3496 20.8139 33.3496 21.2131C33.3496 21.9369 26.9991 22.1636 20.1744 22.1636C13.3496 22.1636 6.59961 21.9369 6.59961 21.2131Z" fill="#FAFAFA"/>
</g>
<g opacity="0.08">
<path d="M6.75 21.2389C6.75 20.8371 13.549 18.2383 20.1495 18.2383C26.7758 18.2383 33.201 20.8371 33.201 21.2389C33.201 21.9369 27 22.1378 20.1753 22.1378C13.3505 22.1378 6.75 21.9369 6.75 21.2389Z" fill="#F8F8F9"/>
</g>
<g opacity="0.1">
<path d="M6.87695 21.2389C6.87438 20.8371 13.6012 18.3155 20.1501 18.3155C26.7017 18.3155 33.0754 20.8371 33.0754 21.2389C33.0754 21.9369 26.9749 22.1378 20.1759 22.1378C13.3512 22.1378 6.87695 21.9369 6.87695 21.2389Z" fill="#F7F7F7"/>
</g>
<g opacity="0.12">
<path d="M7.02539 21.2389C7.02539 20.8371 13.6749 18.3902 20.1491 18.3902C26.6233 18.3902 32.9249 20.8371 32.9249 21.2389C32.9249 21.9369 26.9738 22.1378 20.1491 22.1378C13.3501 22.1378 7.02539 21.9369 7.02539 21.2389Z" fill="#F5F5F5"/>
</g>
<g opacity="0.14">
<path d="M7.17578 21.2621C7.17578 20.8371 13.7248 18.4391 20.15 18.4391C26.5753 18.4391 32.7763 20.8371 32.7763 21.2621C32.7763 21.9369 26.9516 22.1378 20.15 22.1378C13.351 22.1378 7.17578 21.9369 7.17578 21.2621Z" fill="#F3F3F4"/>
</g>
<g opacity="0.16">
<path d="M7.32422 21.2621C7.32422 20.8371 13.7752 18.5138 20.149 18.5138C26.4995 18.5138 32.6232 20.8371 32.6232 21.2621C32.6232 21.9369 26.9505 22.1378 20.149 22.1378C13.35 22.1378 7.32422 21.9369 7.32422 21.2621Z" fill="#F1F2F2"/>
</g>
<g opacity="0.18">
<path d="M7.45117 21.2621C7.45117 20.8628 13.8507 18.5885 20.1239 18.5885C26.4254 18.5885 32.4744 20.8628 32.4744 21.2621C32.4744 21.9369 26.9254 22.1378 20.1496 22.1378C13.3764 22.1378 7.45117 21.9369 7.45117 21.2621Z" fill="#F0F0F1"/>
</g>
<g opacity="0.2">
<path d="M7.59961 21.2878C7.59961 20.8628 13.8986 18.6401 20.1228 18.6401C26.3496 18.6401 32.3496 20.8628 32.3496 21.2878C32.3496 21.9369 26.9244 22.112 20.1486 22.112C13.3754 22.112 7.59961 21.9369 7.59961 21.2878Z" fill="#EEEEEF"/>
</g>
<g opacity="0.22">
<path d="M7.75 21.2878C7.75 20.8628 13.951 18.7147 20.1237 18.7147C26.299 18.7147 32.201 20.8628 32.201 21.2878C32.201 21.9369 26.8995 22.112 20.1263 22.112C13.3763 22.112 7.75 21.9369 7.75 21.2878Z" fill="#ECEDED"/>
</g>
<g opacity="0.24">
<path d="M7.90039 21.2878C7.90039 20.8629 14.0267 18.7894 20.1246 18.7894C26.2251 18.7894 32.0499 20.8629 32.0499 21.2878C32.0499 21.9369 26.9004 22.112 20.1246 22.112C13.3746 22.112 7.90039 21.9369 7.90039 21.2878Z" fill="#EBEBEC"/>
</g>
<g opacity="0.25">
<path d="M8.02539 21.3136C8.02539 20.8628 14.0744 18.8384 20.1233 18.8384C26.1491 18.8384 31.8991 20.8628 31.8991 21.3136C31.8991 21.9369 26.8759 22.112 20.1233 22.112C13.3733 22.112 8.02539 21.9369 8.02539 21.3136Z" fill="#E9E9EA"/>
</g>
<g opacity="0.27">
<path d="M8.17578 21.3136C8.17578 20.8886 14.15 18.9131 20.1242 18.9131C26.101 18.9131 31.7763 20.8886 31.7763 21.3136C31.7763 21.9369 26.8742 22.112 20.1242 22.112C13.3742 22.112 8.17578 21.9369 8.17578 21.3136Z" fill="#E7E7E8"/>
</g>
<g opacity="0.29">
<path d="M8.32422 21.3136C8.32422 20.8886 14.2005 18.9903 20.1 18.9903C26.0252 18.9903 31.6232 20.8886 31.6232 21.3136C31.6232 21.9369 26.85 22.0889 20.1232 22.0889C13.3732 22.0889 8.32422 21.9369 8.32422 21.3136Z" fill="#E6E6E7"/>
</g>
<g opacity="0.31">
<path d="M8.45117 21.3368C8.45117 20.8886 14.2501 19.0393 20.1007 19.0393C25.9512 19.0393 31.4744 20.8886 31.4744 21.3368C31.4744 21.9369 26.8507 22.0889 20.1007 22.0889C13.3764 22.0889 8.45117 21.9369 8.45117 21.3368Z" fill="#E4E4E5"/>
</g>
<g opacity="0.33">
<path d="M8.59961 21.3368C8.59961 20.8886 14.3238 19.114 20.0996 19.114C25.8986 19.114 31.3238 20.8886 31.3238 21.3368C31.3238 21.9369 26.8238 22.0889 20.0996 22.0889C13.3754 22.0889 8.59961 21.9369 8.59961 21.3368Z" fill="#E2E2E3"/>
</g>
<g opacity="0.35">
<path d="M8.75 21.3368C8.75 20.9144 14.3763 19.1887 20.1005 19.1887C25.8247 19.1887 31.1753 20.9144 31.1753 21.3368C31.1753 21.9369 26.8247 22.0889 20.1005 22.0889C13.3995 22.0889 8.75 21.9369 8.75 21.3368Z" fill="#E0E1E2"/>
</g>
<g opacity="0.37">
<path d="M8.90039 21.3368C8.90039 20.9144 14.4262 19.2402 20.1014 19.2402C25.7509 19.2402 31.0499 20.9144 31.0499 21.3368C31.0499 21.9369 26.7999 22.0889 20.1014 22.0889C13.4004 22.0889 8.90039 21.9369 8.90039 21.3368Z" fill="#DFDFE0"/>
</g>
<g opacity="0.39">
<path d="M9.02539 21.3625C9.02539 20.9144 14.4996 19.3149 20.1001 19.3149C25.6749 19.3149 30.8991 20.9144 30.8991 21.3625C30.8991 21.9369 26.7986 22.0889 20.1001 22.0889C13.3991 22.0889 9.02539 21.9369 9.02539 21.3625Z" fill="#DDDDDF"/>
</g>
<g opacity="0.41">
<path d="M9.17578 21.3625C9.17578 20.9144 14.5495 19.3896 20.0753 19.3896C25.6268 19.3896 30.7505 20.9144 30.7505 21.3625C30.7505 21.9369 26.7763 22.0631 20.101 22.0631C13.4 22.0631 9.17578 21.9369 9.17578 21.3625Z" fill="#DBDCDD"/>
</g>
<g opacity="0.43">
<path d="M9.32422 21.3625C9.32422 20.9144 14.6 19.4385 20.0742 19.4385C25.5484 19.4385 30.6 20.9144 30.6 21.3625C30.6 21.9369 26.7753 22.0631 20.0742 22.0631C13.399 22.0631 9.32422 21.9369 9.32422 21.3625Z" fill="#D9DADB"/>
</g>
<g opacity="0.45">
<path d="M9.47461 21.3883C9.47461 20.9375 14.6756 19.5132 20.0751 19.5132C25.4746 19.5132 30.4746 20.9375 30.4746 21.3883C30.4746 21.9369 26.7504 22.0631 20.0751 22.0631C13.3999 22.0631 9.47461 21.9369 9.47461 21.3883Z" fill="#D8D8DA"/>
</g>
<g opacity="0.47">
<path d="M9.59961 21.3883C9.59961 20.9375 14.7233 19.5879 20.0738 19.5879C25.4244 19.5879 30.3238 20.9375 30.3238 21.3883C30.3238 21.9369 26.7491 22.0631 20.0738 22.0631C13.3986 22.0631 9.59961 21.9369 9.59961 21.3883Z" fill="#D6D6D8"/>
</g>
<g opacity="0.49">
<path d="M9.75 21.3883C9.75 20.9375 14.7758 19.6394 20.0747 19.6394C25.3505 19.6394 30.1753 20.9375 30.1753 21.3883C30.1753 21.9369 26.7242 22.0631 20.0747 22.0631C13.3995 22.0631 9.75 21.9369 9.75 21.3883Z" fill="#D4D4D6"/>
</g>
<g opacity="0.51">
<path d="M9.90039 21.414C9.90039 20.9375 14.8514 19.7141 20.0499 19.7141C25.2767 19.7141 30.0267 20.9375 30.0267 21.414C30.0267 21.9369 26.7251 22.0373 20.0756 22.0373C13.4004 22.0373 9.90039 21.9369 9.90039 21.414Z" fill="#D2D3D5"/>
</g>
<g opacity="0.53">
<path d="M10.0488 21.414C10.0488 20.9633 14.8993 19.7888 20.0488 19.7888C25.2009 19.7888 29.8736 20.9633 29.8736 21.414C29.8736 21.9369 26.7009 22.0373 20.0488 22.0373C13.3993 22.0373 10.0488 21.9369 10.0488 21.414Z" fill="#D1D1D3"/>
</g>
<g opacity="0.55">
<path d="M10.1758 21.414C10.1758 20.9633 14.9516 19.8377 20.0495 19.8377C25.15 19.8377 29.7505 20.9633 29.7505 21.414C29.7505 21.9369 26.7016 22.0374 20.0495 22.0374C13.4258 22.0374 10.1758 21.9369 10.1758 21.414Z" fill="#CFCFD1"/>
</g>
<g opacity="0.57">
<path d="M10.3242 21.4372C10.3242 20.9633 15.0253 19.9124 20.0484 19.9124C25.0742 19.9124 29.6 20.9633 29.6 21.4372C29.6 21.9369 26.6747 22.0373 20.0484 22.0373C13.4247 22.0373 10.3242 21.9369 10.3242 21.4372Z" fill="#CDCECF"/>
</g>
<g opacity="0.59">
<path d="M10.4746 21.4372C10.4746 20.9633 15.0751 19.9897 20.0494 19.9897C25.0004 19.9897 29.4514 20.9633 29.4514 21.4372C29.4514 21.9369 26.6756 22.0373 20.0494 22.0373C13.4256 22.0373 10.4746 21.9369 10.4746 21.4372Z" fill="#CBCCCE"/>
</g>
<g opacity="0.61">
<path d="M10.5996 21.4372C10.5996 20.9633 15.1228 20.0386 20.0249 20.0386C24.9501 20.0386 29.2981 20.9633 29.2981 21.4372C29.2981 21.9369 26.6486 22.0373 20.0481 22.0373C13.4244 22.0373 10.5996 21.9369 10.5996 21.4372Z" fill="#C9CACC"/>
</g>
<g opacity="0.63">
<path d="M10.75 21.463C10.75 20.9891 15.201 20.1133 20.0258 20.1133C24.8737 20.1133 29.1495 20.9891 29.1495 21.463C29.1495 21.9369 26.6495 22.0116 20.0258 22.0116C13.4253 22.0116 10.75 21.9369 10.75 21.463Z" fill="#C8C8CA"/>
</g>
<g opacity="0.65">
<path d="M10.9004 21.463C10.9004 20.989 15.2509 20.188 20.0267 20.188C24.7999 20.188 29.0267 20.989 29.0267 21.463C29.0267 21.9369 26.6246 22.0116 20.0267 22.0116C13.4262 22.0116 10.9004 21.9369 10.9004 21.463Z" fill="#C6C7C9"/>
</g>
<g opacity="0.67">
<path d="M11.0488 21.463C11.0488 20.989 15.2988 20.2395 20.0256 20.2395C24.7499 20.2395 28.8736 20.989 28.8736 21.463C28.8736 21.9369 26.6236 22.0116 20.0256 22.0116C13.4251 22.0116 11.0488 21.9369 11.0488 21.463Z" fill="#C4C5C7"/>
</g>
<g opacity="0.69">
<path d="M11.1758 21.463C11.1758 20.9891 15.3742 20.3142 20.0263 20.3142C24.6758 20.3142 28.7248 20.9891 28.7248 21.463C28.7248 21.9369 26.601 22.0116 20.0263 22.0116C13.4258 22.0116 11.1758 21.9369 11.1758 21.463Z" fill="#C2C3C5"/>
</g>
<g opacity="0.71">
<path d="M11.3242 21.4887C11.3242 21.0122 15.4247 20.3889 20.0252 20.3889C24.6 20.3889 28.5742 21.0122 28.5742 21.4887C28.5742 21.9369 26.6 22.0116 20.0252 22.0116C13.4247 22.0116 11.3242 21.9369 11.3242 21.4887Z" fill="#C1C1C3"/>
</g>
<g opacity="0.73">
<path d="M11.4746 21.4887C11.4746 21.0122 15.4746 20.4379 20.0004 20.4379C24.5262 20.4379 28.4514 21.0122 28.4514 21.4887C28.4514 21.9369 26.5751 22.0116 20.0262 22.0116C13.4514 22.0116 11.4746 21.9369 11.4746 21.4887Z" fill="#BFC0C2"/>
</g>
<g opacity="0.75">
<path d="M11.623 21.4887C11.623 21.0122 15.5483 20.5126 19.9993 20.5126C24.4736 20.5126 28.2983 21.0122 28.2983 21.4887C28.2983 21.9369 26.5741 21.9884 19.9993 21.9884C13.4504 21.9884 11.623 21.9369 11.623 21.4887Z" fill="#BDBEC0"/>
</g>
<g opacity="0.76">
<path d="M11.75 21.5119C11.75 21.0122 15.6005 20.5641 20 20.5641C24.3995 20.5641 28.1495 21.0122 28.1495 21.5119C28.1495 21.9369 26.549 21.9884 20 21.9884C13.451 21.9884 11.75 21.9369 11.75 21.5119Z" fill="#BBBCBE"/>
</g>
<g opacity="0.78">
<path d="M11.9004 21.5119C11.9004 21.0122 15.6504 20.6388 20.0009 20.6388C24.3256 20.6388 28.0009 21.0122 28.0009 21.5119C28.0009 21.9369 26.5499 21.9884 20.0009 21.9884C13.4519 21.9884 11.9004 21.9369 11.9004 21.5119Z" fill="#B9BABD"/>
</g>
<g opacity="0.8">
<path d="M12.0488 21.5119C12.0488 21.038 15.7241 20.7135 19.9999 20.7135C24.2756 20.7135 27.8504 21.038 27.8504 21.5119C27.8504 21.9369 26.5488 21.9884 19.9999 21.9884C13.4509 21.9884 12.0488 21.9369 12.0488 21.5119Z" fill="#B8B8BB"/>
</g>
<g opacity="0.82">
<path d="M12.1758 21.5377C12.1758 21.038 15.7763 20.7624 19.9748 20.7624C24.2016 20.7624 27.7247 21.038 27.7247 21.5377C27.7247 21.9369 26.5263 21.9884 20.0005 21.9884C13.4516 21.9884 12.1758 21.9369 12.1758 21.5377Z" fill="#B6B6B9"/>
</g>
<g opacity="0.84">
<path d="M12.3242 21.5377C12.3242 21.038 15.8242 20.8371 19.9737 20.8371C24.1232 20.8371 27.5742 21.038 27.5742 21.5377C27.5742 21.9369 26.5252 21.9627 19.9737 21.9627C13.4505 21.9627 12.3242 21.9369 12.3242 21.5377Z" fill="#B4B5B8"/>
</g>
<g opacity="0.86">
<path d="M12.4746 21.5377C12.4746 21.038 15.8999 20.9144 19.9746 20.9144C24.0751 20.9144 27.4256 21.038 27.4256 21.5377C27.4256 21.9369 26.5004 21.9627 19.9746 21.9627C13.4514 21.9627 12.4746 21.9369 12.4746 21.5377Z" fill="#B2B3B6"/>
</g>
<g opacity="0.88">
<path d="M12.623 21.5634C12.623 21.038 15.9504 20.9633 19.9736 20.9633C23.9993 20.9633 27.2751 21.038 27.2751 21.5634C27.2751 21.9369 26.4993 21.9627 19.9736 21.9627C13.4504 21.9627 12.6256 21.9369 12.623 21.5634Z" fill="#B0B1B4"/>
</g>
<g opacity="0.9">
<path d="M12.75 21.5634C12.75 21.0638 16 21.038 19.9742 21.038C23.9253 21.038 27.1495 21.0638 27.1495 21.5634C27.1495 21.9369 26.4742 21.9627 19.9742 21.9627C13.4742 21.9627 12.75 21.9369 12.75 21.5634Z" fill="#AEAFB2"/>
</g>
<g opacity="0.92">
<path d="M12.9004 21.5634C12.9004 21.0637 16.0756 21.1127 19.9751 21.1127C23.8514 21.1127 27.0009 21.0637 27.0009 21.5634C27.0009 21.9369 26.4751 21.9627 19.9751 21.9627C13.4751 21.9627 12.9004 21.9369 12.9004 21.5634Z" fill="#ADADB0"/>
</g>
<g opacity="0.94">
<path d="M13.0488 21.5634C13.0488 21.0637 16.1236 21.1642 19.9509 21.1642C23.7988 21.1642 26.8504 21.0637 26.8504 21.5634C26.8504 21.9369 26.4509 21.9627 19.9509 21.9627C13.4741 21.9627 13.0488 21.9369 13.0488 21.5634Z" fill="#ABACAF"/>
</g>
<g opacity="0.96">
<path d="M13.2012 21.5892C13.2012 21.0637 16.1754 21.2389 19.9512 21.2389C23.7244 21.2389 26.7012 21.0637 26.7012 21.5892C26.7012 21.9369 26.4512 21.9369 19.9512 21.9369C13.4744 21.9369 13.2012 21.9369 13.2012 21.5892Z" fill="#A9AAAD"/>
</g>
<g opacity="0.98">
<path d="M13.3242 21.5892C13.3242 21.0869 16.2495 21.3136 19.9505 21.3136C23.649 21.3136 26.5484 21.0869 26.5484 21.5892C26.5484 21.9369 26.4247 21.9369 19.9505 21.9369C13.4737 21.9369 13.3242 21.9369 13.3242 21.5892Z" fill="#A7A8AB"/>
</g>
<path d="M13.4746 21.5892C13.4746 21.0869 16.2994 21.3625 19.9514 21.3625C23.6009 21.3625 26.4256 21.0869 26.4256 21.5892C26.4256 21.9369 26.4256 21.9369 19.9514 21.9369C13.4746 21.9369 13.4746 21.9369 13.4746 21.5892Z" fill="#A5A6A9"/>
<path fill-rule="evenodd" clip-rule="evenodd" d="M21.5996 34.1326V34.5808H19.3496C19.1486 34.5808 18.9991 34.4314 18.9991 34.2331V26.3361C18.9991 25.8107 18.8238 25.3857 18.5738 25.2106C18.5412 25.1951 18.5077 25.1874 18.4733 25.1874L18.3986 25.1359V24.6877H20.6486C20.8238 24.6877 20.9991 24.8371 20.9991 25.0354V32.9581C20.9991 33.4578 21.1744 33.8828 21.4244 34.058C21.4415 34.0734 21.4664 34.0897 21.4991 34.1069L21.5996 34.1326ZM10.1486 34.6066H8.09961L12.0249 24.6877H13.4244C13.7491 24.6877 14.0738 24.9118 14.1744 25.2131L17.8986 34.6066H15.8238L14.8986 32.2833H11.0506L10.1486 34.6066ZM14.2233 30.5602L12.9733 27.5106L11.7465 30.5602H14.2233ZM30.1254 17.8648C30.1254 20.8628 26.6744 21.9627 23.8754 21.9627H16.0249C13.2233 21.9627 9.77487 20.8628 9.77487 17.8648C9.77487 14.0167 13.6744 14.3413 12.7749 11.8429C15.6486 12.7418 13.2749 14.841 12.9244 15.9408C12.5249 17.2389 13.5506 18.9388 16.0249 18.9388H19.1744V16.6903H15.4501L16.5996 15.5415H19.1744V14.2408C15.5506 13.4913 16.4244 9.44237 11.4501 9.04315C9.79806 8.89376 10.3986 5.69479 10.5506 5.19511C10.5996 5.04572 10.7233 4.99678 10.8754 5.12042C17.0249 10.4185 20.4733 8.79331 22.0481 7.79395C22.7981 7.32003 23.8496 6.19447 24.6486 6.19447C25.3006 6.19447 25.8496 6.57051 26.0738 6.74566C26.3238 6.9208 28.5738 8.59498 28.5738 8.59498C28.5738 8.59498 26.9501 8.59498 26.0249 9.24405C24.0249 10.6941 23.6486 13.6407 20.7233 14.2408V15.5415H23.2981L24.4501 16.6903H20.7233V18.9388H23.8754C26.3496 18.9388 27.3754 17.2389 26.9733 15.9408C26.6254 14.841 24.2491 12.7418 27.1254 11.8429C26.2233 14.3413 30.1254 14.0167 30.1254 17.8648ZM25.4733 7.90728C25.4733 7.52608 25.1718 7.21958 24.7981 7.21958C24.4269 7.21958 24.1254 7.52608 24.1254 7.90728C24.1254 8.2859 24.4269 8.59498 24.7981 8.59498C25.1718 8.59498 25.4733 8.2859 25.4733 7.90728Z" fill="white"/>
<path fill-rule="evenodd" clip-rule="evenodd" d="M30.9736 31.9073C30.9736 33.2827 29.7751 34.5808 27.7983 34.5808H23.123V24.6877H27.1746C29.1488 24.6877 30.3756 26.0116 30.3756 27.3612C30.3756 28.2344 29.8988 28.9839 29.2004 29.4836C30.2493 29.8854 30.9736 30.8332 30.9736 31.9073ZM24.9736 28.7598H27.3241C27.9504 28.7341 28.4504 28.2344 28.4504 27.5853C28.4504 26.9362 27.9246 26.3851 27.2493 26.3851H24.9736V28.7598ZM29.0741 31.6832C29.0741 31.0341 28.5741 30.5087 27.9246 30.5087H24.9736V32.8834H27.8756C28.5251 32.8834 29.0741 32.358 29.0741 31.6832Z" fill="white"/>
</g>
<defs>
<linearGradient id="paint0_linear_368_23" x1="4.72275e-07" y1="40" x2="40" y2="-9.59041e-07" gradientUnits="userSpaceOnUse">
<stop stop-color="#4D2476"/>
<stop offset="1" stop-color="#CB57AA"/>
</linearGradient>
<clipPath id="clip0_368_23">
<rect width="40" height="40" fill="white"/>
</clipPath>
</defs>
</svg>
