<svg width="80" height="40" viewBox="0 0 80 40" fill="none" xmlns="http://www.w3.org/2000/svg">
<g clip-path="url(#clip0_372_246)">
<path fill-rule="evenodd" clip-rule="evenodd" d="M26.961 8.47458V15.7514H23.6389V8.67797C23.6389 6.91526 22.848 6.0339 21.3564 6.0339C20.1813 6.0339 19.1418 6.64407 18.5768 7.9548V15.7514H15.2773V3.23164H18.1474L18.396 4.90396C19.2095 3.54802 20.5655 2.89266 22.1926 2.89266C25.1305 2.87006 26.961 4.72317 26.961 8.47458Z" fill="white"/>
<path d="M44.3395 9.37853C44.3395 13.3785 41.6276 16.1356 37.9892 16.1356C36.5203 16.1356 35.3903 15.6836 34.5542 14.7345L34.5768 19.2542H31.2773V3.23164H34.1248L34.4186 4.85876C35.3451 3.50282 36.7689 2.87006 38.4638 2.87006C42.0118 2.87006 44.3395 5.67232 44.3395 9.37853ZM40.8593 9.49152C40.8593 7.38983 39.5485 5.9209 37.5824 5.9209C36.2039 5.87571 34.9836 6.73446 34.5316 8.0226V11.2542C35.0514 12.3842 36.2265 13.1073 37.4694 13.0621C39.4355 13.0621 40.8593 11.5932 40.8593 9.49152Z" fill="white"/>
<path fill-rule="evenodd" clip-rule="evenodd" d="M65.9429 8.27119L65.0842 8C63.683 7.54802 63.2085 7.27684 63.2085 6.66667C63.2085 6.0565 63.7508 5.76271 65.1068 5.76271C66.1689 5.76271 67.2085 5.9661 68.2028 6.32768L68.6548 3.41243C67.4571 2.98305 66.3497 2.87006 64.9486 2.87006C61.8299 2.87006 59.8864 4.47458 59.8864 6.71186C59.8864 8.76836 61.039 9.9435 63.3893 10.7119L64.135 10.9605C65.491 11.4124 66.0333 11.7288 66.0333 12.2712C66.0333 12.8136 65.5813 13.2203 64.2028 13.2203C62.8921 13.2203 61.4684 12.7006 60.4514 12.1356L59.7734 14.983C61.1294 15.7062 62.6435 16.0904 64.1802 16.0904C67.4571 16.0904 69.3328 14.4859 69.3328 12.1808C69.378 10.1921 68.4062 9.08475 65.9429 8.27119Z" fill="white"/>
<path fill-rule="evenodd" clip-rule="evenodd" d="M19.5252 28.4294V35.7062H16.2257V28.6102C16.2257 26.8475 15.5026 25.9661 14.1466 25.9661C13.0619 25.9661 12.1127 26.5989 11.593 27.9322C11.593 28.0904 11.593 28.2486 11.593 28.4294V35.7062H8.29353V28.6102C8.29353 26.8475 7.57037 25.9661 6.21444 25.9661C5.15229 25.9661 4.20314 26.5763 3.68336 27.887V35.7062H0.361328V23.1638H3.20879L3.45737 24.791C4.22573 23.4576 5.49127 22.8023 7.02799 22.8023C8.8359 22.8023 10.1466 23.5254 10.915 25.0621C11.706 23.548 13.1749 22.8023 14.9602 22.8023C17.7625 22.8023 19.5252 24.6554 19.5252 28.4294Z" fill="white"/>
<path d="M34.4408 29.4237C34.4408 33.3333 31.6611 36.0452 27.7741 36.0452C23.8871 36.0452 21.1074 33.3333 21.1074 29.4237C21.1074 25.5141 23.8871 22.8023 27.7741 22.8023C31.6611 22.8023 34.4408 25.5141 34.4408 29.4237ZM31.0283 29.4237C31.0283 27.2316 29.6724 25.8079 27.7967 25.8079C25.921 25.8079 24.565 27.2316 24.565 29.4237C24.565 31.6158 25.921 33.0395 27.7967 33.0395C29.6724 33.0395 31.0283 31.6158 31.0283 29.4237Z" fill="white"/>
<path fill-rule="evenodd" clip-rule="evenodd" d="M47.8195 28.4294V35.7062H44.4975V28.6102C44.4975 26.8475 43.7065 25.9661 42.215 25.9661C41.0398 25.9661 39.9777 26.5763 39.4353 27.9096V35.7062H36.1133V23.1638H38.9833L39.2319 24.8362C40.0455 23.4802 41.3788 22.8249 43.0285 22.8249C45.9664 22.8023 47.8195 24.6554 47.8195 28.4294Z" fill="white"/>
<path d="M61.3784 30.7571H52.7908C53.1524 32.2938 54.3953 33.1073 56.384 33.1073C57.6495 33.1299 58.8925 32.8362 60.0224 32.226L61.0168 34.8927C59.5252 35.661 57.8755 36.0678 56.2032 36.0452C52.045 36.0452 49.4688 33.5367 49.4688 29.4011C49.4688 25.5593 51.9094 22.8023 55.7964 22.8023C60.158 22.8023 62.2145 26.0339 61.3784 30.7571ZM52.8134 28.2712H58.3727C58.3049 26.3729 57.3558 25.6271 55.7964 25.6271C54.1241 25.6271 52.9942 26.5311 52.8134 28.2712Z" fill="white"/>
<path fill-rule="evenodd" clip-rule="evenodd" d="M74.7352 23.1638C74.125 26.2599 73.2211 29.3107 72.0233 32.2486C69.7634 37.7853 68.2041 39.8418 63.594 39.9774L62.9838 36.9266C64.9725 36.9492 65.899 36.5198 66.7578 35.3446C64.7917 31.5028 63.3228 27.3898 62.4414 23.1638H66.0798C66.7804 27.1186 67.5262 29.4689 68.6335 32.2938C69.786 29.5367 70.3962 27.1638 71.0742 23.1638H74.7352Z" fill="white"/>
<path d="M13.0621 3.23164V15.774H10.0565L10.0113 14.1469C9.19774 15.3898 7.9774 16.113 6.10169 16.113C2.57627 16.113 0 13.1751 0 9.49152C0 5.80791 2.59887 2.87006 6.21469 2.87006C7.9096 2.87006 9.10734 3.45763 9.9435 4.67797L10.1243 3.20904L13.0621 3.23164ZM9.76271 11.1412V7.86441C9.31073 6.66667 8.15819 5.8983 6.87006 5.9435C4.90395 5.9435 3.48023 7.41243 3.48023 9.51412C3.48023 11.6158 4.90395 13.0847 6.87006 13.0847C8.13559 13.0847 9.28813 12.3164 9.76271 11.1412Z" fill="white"/>
<path fill-rule="evenodd" clip-rule="evenodd" d="M50.5543 14.4181C53.2662 14.4181 55.4583 12.226 55.4583 9.51412C55.4583 11.2768 54.0346 12.7232 52.2493 12.7232C50.464 12.7232 49.0402 11.2994 49.0402 9.51412C49.0402 6.80226 51.2323 4.61017 53.9442 4.61017C56.656 4.61017 58.8933 6.77966 58.8933 9.49152C58.7577 5.83051 55.6843 2.98305 52.0233 3.11864C48.5656 3.23164 45.786 6.0339 45.6504 9.49152C45.6504 12.2034 47.8425 14.3955 50.5543 14.4181Z" fill="url(#paint0_linear_372_246)"/>
<path fill-rule="evenodd" clip-rule="evenodd" d="M53.9657 4.58757C51.2538 4.58757 49.0617 6.77966 49.0617 9.49153C49.0617 7.72881 50.4854 6.28249 52.2707 6.28249C54.0561 6.28249 55.4798 7.70621 55.4798 9.49153C55.4798 12.2034 53.2877 14.3955 50.5758 14.3955C47.864 14.3955 45.6719 12.2034 45.6719 9.49153C45.6719 13.1525 48.6323 16.113 52.2933 16.113C55.9544 16.113 58.9148 13.1525 58.9148 9.49153C58.8922 6.77966 56.6775 4.58757 53.9657 4.58757Z" fill="url(#paint1_linear_372_246)"/>
<path fill-rule="evenodd" clip-rule="evenodd" d="M79.5258 12.6102C78.9157 12.7458 78.2603 12.8136 77.6275 12.8136C75.4354 12.8136 74.6897 11.7062 74.6897 9.19774C74.7123 8.24859 74.7801 7.29943 74.9382 6.35028H79.5032V3.25424H75.458C75.684 2.12429 75.8874 1.17514 76.2038 0H72.6784C72.4072 0.99435 72.1586 2.10169 71.9326 3.25424H70.1699L69.6953 6.39548H71.458C71.345 7.38983 71.2772 8.40678 71.2772 9.42373C71.2772 13.6949 73.2207 16.0904 77.5371 16.0904C78.3281 16.113 79.119 16.0226 79.8874 15.7966L79.5258 12.6102Z" fill="white"/>
</g>
<defs>
<linearGradient id="paint0_linear_372_246" x1="50.0187" y1="3.26578" x2="52.8138" y2="13.809" gradientUnits="userSpaceOnUse">
<stop stop-color="white"/>
<stop offset="0.6" stop-color="white" stop-opacity="0.88"/>
<stop offset="1" stop-color="white" stop-opacity="0.15"/>
</linearGradient>
<linearGradient id="paint1_linear_372_246" x1="53.9451" y1="15.9013" x2="51.7436" y2="5.04899" gradientUnits="userSpaceOnUse">
<stop stop-color="white"/>
<stop offset="0.6" stop-color="white" stop-opacity="0.88"/>
<stop offset="1" stop-color="white" stop-opacity="0.15"/>
</linearGradient>
<clipPath id="clip0_372_246">
<rect width="80" height="40" fill="white"/>
</clipPath>
</defs>
</svg>
