<svg width="161" height="40" viewBox="0 0 161 40" fill="none" xmlns="http://www.w3.org/2000/svg">
<g clip-path="url(#clip0_374_266)">
<path d="M152.095 8.71703H149.944L154.341 20.0923L152.549 24.5466H154.58L160.84 8.71703H158.785L155.44 17.6496H155.416L152.095 8.71703ZM144.305 10.2497C146.217 10.2497 147.507 11.471 147.771 13.2193H140.555C140.937 11.471 142.394 10.2497 144.305 10.2497ZM147.675 16.4762C147.053 17.7215 145.859 18.4159 144.329 18.4159C142.179 18.4159 140.65 16.9552 140.459 14.8717H149.73V14.0335C149.73 10.8005 147.436 8.50155 144.305 8.50155C141.128 8.50155 138.619 10.8963 138.619 14.273V14.4646C138.619 17.8652 141.104 20.2121 144.329 20.2121C146.671 20.2121 148.678 18.8949 149.538 16.7875L147.675 16.4762ZM129.205 13.6264C129.205 11.5908 130.686 10.2737 132.454 10.2737C134.103 10.2737 135.226 11.4232 135.226 13.4348V19.9726H137.09V12.9319C137.09 9.79471 134.964 8.47755 132.885 8.47755C131.212 8.47755 129.707 9.31574 129.205 10.7047H129.181V8.71703H127.341V19.9726H129.205V13.6264ZM119.863 18.4159C117.592 18.4159 115.92 16.7635 115.92 14.4406V14.273C115.92 11.9261 117.616 10.2976 119.863 10.2976C122.133 10.2976 123.805 11.95 123.805 14.273V14.4406C123.805 16.7635 122.109 18.4159 119.863 18.4159ZM119.863 20.1881C123.136 20.1881 125.693 17.8173 125.693 14.4166V14.249C125.693 10.8484 123.136 8.47755 119.863 8.47755C116.589 8.47755 114.032 10.8484 114.032 14.249V14.4166C114.032 17.8173 116.589 20.1881 119.863 20.1881ZM103.256 19.9726H105.407L110.353 6.25041H110.376V19.9726H112.265V4.16694H109.254L104.355 17.7215H104.332L99.4815 4.16694H96.3992V19.9726H98.2627V6.29831H98.2866L103.256 19.9726ZM81.3939 10.561H83.6162V16.9791C83.6162 19.0865 84.6197 20.2121 86.7696 20.2121C87.2953 20.2121 87.797 20.1402 88.3706 19.9965V18.2005C87.9884 18.3202 87.5585 18.392 87.1285 18.392C85.9814 18.392 85.4797 17.8652 85.4797 16.7157V10.561H88.2277V8.74097H85.4797V5.41223H83.6162V8.71703H81.3939V10.561ZM72.3857 13.6264C72.3857 11.5908 73.8676 10.2737 75.6354 10.2737C77.2842 10.2737 78.4073 11.4232 78.4073 13.4348V19.9726H80.2708V12.9319C80.2708 9.79471 78.1442 8.47755 76.0654 8.47755C74.3933 8.47755 72.8874 9.31574 72.3857 10.7047H72.3624V8.71703H70.5222V19.9726H72.3857V13.6264ZM62.4462 18.4159C60.2241 18.4159 58.5277 16.7635 58.5277 14.4646V14.273C58.5277 11.8543 60.3197 10.2976 62.4462 10.2976C64.5966 10.2976 66.3646 11.8543 66.3646 14.273V14.4646C66.3646 16.7635 64.6686 18.4159 62.4462 18.4159ZM62.279 20.1881C64.0949 20.1881 65.5047 19.3978 66.2211 18.1046H66.245V19.9486H68.1091V8.6931H66.245V10.5371H66.2211C65.4568 9.196 64.0232 8.45361 62.279 8.45361C59.2684 8.45361 56.664 10.7766 56.664 14.2251V14.4166C56.664 17.8173 59.1728 20.1881 62.279 20.1881ZM49.6871 19.9726H52.3154L56.3773 8.71703H54.418L51.049 18.3681H51.0251L47.5605 8.71703H45.5296L49.6871 19.9726ZM39.6278 5.98699L42.4951 13.8898H36.8323L39.6278 5.98699ZM38.4093 4.16694L32.6748 19.9726H34.7058L36.1632 15.8296H43.2119L44.6933 19.9726H46.7959L41.0137 4.16694H38.4093ZM4.43255 4.0472H20.2979V19.9486H4.43255V4.0472ZM12.3652 23.9958H24.336V11.9979C24.336 5.31644 19.0316 0 12.3652 0C5.69891 0 0.394531 5.31644 0.394531 11.9979C0.394531 18.6794 5.69891 23.9958 12.3652 23.9958Z" fill="white"/>
<path d="M66.5977 36.5334V27.1781L67.7318 27.0968V30.8739C67.9658 30.703 68.1643 30.5779 68.3273 30.4987C68.7159 30.3028 69.1801 30.2048 69.7187 30.2048C70.6298 30.2048 71.2608 30.4946 71.6113 31.0741C71.8829 31.5243 72.0193 32.3143 72.0193 33.4442C72.0193 34.7199 71.8395 35.5829 71.48 36.0332C71.1166 36.4876 70.525 36.7148 69.7064 36.7148C68.9124 36.7148 68.2167 36.4917 67.6193 36.0457L67.563 36.5334H66.5977ZM67.7318 35.0576C67.8992 35.2077 68.0538 35.3244 68.196 35.4078C68.5594 35.6329 68.99 35.7455 69.4873 35.7455C70.055 35.7455 70.4313 35.5683 70.6149 35.2139C70.774 34.9054 70.8535 34.3134 70.8535 33.4379C70.8535 32.6083 70.7759 32.0371 70.6214 31.7244C70.4416 31.3575 70.0595 31.1741 69.4743 31.1741C68.9816 31.1741 68.5659 31.2929 68.2271 31.5306C68.0725 31.639 67.9076 31.7849 67.7318 31.9683V35.0576Z" fill="white"/>
<path d="M73.6367 30.3862H74.7715V34.2696C74.7715 34.845 74.809 35.2077 74.884 35.3577C75.0094 35.6204 75.2913 35.7517 75.7304 35.7517C76.3149 35.7517 76.9169 35.4766 77.535 34.9263V30.3862H78.6697V35.8768C78.6697 36.6481 78.6406 37.2505 78.5818 37.6841C78.4777 38.4554 78.168 39.0016 77.6546 39.3225C77.1904 39.6144 76.5134 39.7603 75.6237 39.7603C74.9092 39.7603 74.2574 39.6728 73.6684 39.4977L73.8184 38.4783C74.4327 38.6993 75.0346 38.8098 75.6237 38.8098C76.5599 38.8098 77.1386 38.5471 77.3598 38.0218C77.4723 37.7592 77.5292 37.2714 77.5292 36.5585V36.0332C77.2279 36.2208 77.0106 36.35 76.8774 36.4209C76.4804 36.621 76.0103 36.721 75.4672 36.721C74.5769 36.721 74.0214 36.4334 73.7997 35.8581C73.691 35.5829 73.6367 35.1056 73.6367 34.426V30.3862Z" fill="white"/>
<path fill-rule="evenodd" clip-rule="evenodd" d="M147.841 31.8276C150.611 31.6999 151.056 31.4589 151.056 30.7846C151.056 29.9921 150.551 29.6074 148.976 29.6074C146.956 29.6074 146.695 30.0033 146.695 31.8929L147.841 31.8276ZM158.608 34.453H160.736V36.6052H158.608V34.453ZM86.6847 36.7177C89.6945 36.7177 91.1823 35.7722 91.1823 32.389C91.1823 29.3348 90.0728 27.9639 87.0894 27.9639C85.7814 27.9639 84.8865 28.0767 84.2335 28.645V24.5161H82.1172V32.5974C82.1172 35.6917 83.4091 36.7177 86.6847 36.7177ZM98.856 31.2186V30.8179C98.856 29.8477 98.2437 29.6386 96.6298 29.6386C95.1103 29.6386 93.7564 29.9758 93.0574 30.2239V28.645C94.2743 28.1566 95.658 27.9639 96.7068 27.9639C99.0241 27.9639 100.983 28.3482 100.983 31.0911V33.672C100.983 36.6983 98.6271 36.7177 96.7068 36.7177C93.8139 36.7177 92.4024 35.8684 92.4024 34.1532C92.4024 31.8439 93.8139 31.3943 98.856 31.2186ZM115.403 33.1728V36.6059H113.308V24.5161H115.419V31.2675H115.817C116.444 31.2675 116.659 31.1544 117.095 30.6891L119.574 28.1402H122.015L118.25 32.1641L122.306 36.6055H119.589L117.003 33.7039C116.569 33.222 116.399 33.1728 115.771 33.1728H115.403ZM104.8 36.6055V31.2828C104.8 29.9924 105.229 29.639 107.027 29.639C108.863 29.639 109.276 29.9924 109.276 31.2828V36.6059H111.388V31.203C111.388 28.7893 109.72 27.9965 107.401 27.9965H106.69C104.364 27.9965 102.688 28.7893 102.688 31.203V36.6055H104.8ZM129.251 36.6055V31.2828C129.251 29.9924 129.679 29.639 131.47 29.639C133.322 29.639 133.719 29.9924 133.719 31.2828V36.6059H135.847V31.203C135.847 28.7893 134.164 27.9965 131.852 27.9965H131.132C128.808 27.9965 127.14 28.7893 127.14 31.203V36.6055H129.251ZM143.251 29.832H139.717V33.9605C139.717 34.7302 140.252 35.0341 141.125 35.0341C142.104 35.0341 142.792 34.9393 143.298 34.8104V36.333C142.456 36.5739 141.583 36.7177 140.865 36.7177C138.524 36.7177 137.636 35.6917 137.636 34.1532V25.4782H139.717V28.2045H143.251V29.832ZM86.6536 35.0813C84.4727 35.0813 84.1442 34.6983 84.1442 32.1311C84.1442 29.9439 84.8251 29.639 86.5618 29.639C88.3115 29.639 88.9956 29.9439 88.9956 32.1311C88.9956 34.6983 88.6115 35.0813 86.6536 35.0813ZM154.895 30.8662C154.895 28.5732 156.487 27.9153 157.929 27.9153C158.599 27.9153 160.369 28.0115 160.736 28.0924V29.7035H158.462C157.298 29.7035 157.008 29.816 157.008 30.9946V36.6059H154.895V30.8662ZM123.084 28.1402H125.228V36.6055H123.084V28.1402ZM96.829 35.0813C98.3976 35.0813 98.856 34.8414 98.856 34.0248V32.6939L96.9363 32.789C95.0082 32.9022 94.564 33.1914 94.564 33.8647C94.564 34.875 94.8556 35.0813 96.829 35.0813ZM123.084 24.5161H125.228V26.6775H123.084V24.5161ZM146.725 33.4793C146.862 34.5206 147.336 35.1296 148.988 35.1296C150.397 35.1296 151.866 34.9056 152.968 34.4903V35.9799C152.156 36.4448 150.351 36.7503 149.051 36.7503C145.607 36.7503 144.475 35.8511 144.475 32.2606C144.475 29.1262 145.455 27.9479 149.005 27.9479C151.944 27.9479 153.243 28.9817 153.273 30.7265C153.273 32.8862 151.866 33.4144 146.725 33.4793Z" fill="#FF821C"/>
</g>
<defs>
<clipPath id="clip0_374_266">
<rect width="161" height="40" fill="white"/>
</clipPath>
</defs>
</svg>
