<svg width="51" height="40" viewBox="0 0 51 40" fill="none" xmlns="http://www.w3.org/2000/svg">
<path d="M47.8442 19.4022V20.3939H49.4109V21.6626H47.8442V27.698H45.6195V19.734C45.6195 18.0248 46.5262 16.6747 48.7519 16.6747C49.6586 16.6747 50.346 16.8667 50.6759 17.033V18.4388C50.2646 18.1354 49.6595 17.9425 49.0544 17.9425C48.2848 17.9425 47.8452 18.5759 47.8452 19.4031L47.8442 19.4022ZM36.3027 23.4267C36.3027 20.0923 38.2268 18.8246 40.3702 18.8246C42.6507 18.7971 44.4102 20.0923 44.4102 23.4267C44.4376 26.7337 42.4588 27.974 40.3702 27.974C38.2816 27.974 36.3027 26.7611 36.3027 23.4267ZM38.639 23.4267C38.639 25.6588 39.1052 26.6789 40.3702 26.6789C41.6069 26.6789 42.1288 25.6588 42.1014 23.4267C42.0739 21.1389 41.5804 20.0649 40.3702 20.0923C39.1061 20.0923 38.639 21.0566 38.639 23.4267ZM11.4602 27.974C9.81125 27.974 8.68425 27.1194 8.68425 25.4659C8.68425 23.8124 9.81125 22.9852 11.4053 22.5995L14.0158 21.9661V21.4149C14.0158 20.3126 13.3833 19.9817 12.6969 19.9817C11.8724 19.9817 11.1028 20.5055 11.1028 21.4972H9.06906C9.06906 20.34 9.83867 18.7962 12.6704 18.7962C14.3193 18.7962 16.215 19.043 16.215 21.5795V25.9065C16.215 26.7337 16.3064 27.3671 16.3978 27.7346H14.3092C14.2818 27.5975 14.1995 27.3214 14.1447 27.1286C13.8979 27.3205 12.9628 27.9832 11.4519 27.9832L11.4602 27.974ZM12.2572 26.5134C13.0268 26.5134 13.7416 26.1277 14.0158 25.88V23.179L12.8888 23.4551C11.9272 23.7311 10.9373 24.2539 10.9373 25.2466C10.9648 26.1012 11.4309 26.5143 12.2563 26.5143L12.2572 26.5134ZM3.93949 27.7263H0.00914056V16.9499H4.43307C5.94488 16.9499 7.29126 17.639 7.29126 19.3474C7.29126 20.9744 6.10941 21.5795 4.98241 21.8281C6.10941 21.8829 7.86802 22.6553 7.86802 24.6113C7.84059 26.7063 6.05457 27.7254 3.93766 27.7254L3.93949 27.7263ZM2.40026 21.3327H3.00352C4.15795 21.3327 4.87181 20.8363 4.87181 19.6508C4.87181 18.4653 4.01993 18.1354 3.00352 18.1354H2.40026V21.3327ZM5.28587 24.4468C5.25844 23.1242 4.40656 22.5456 3.16987 22.5456H2.37284V26.5143H3.16987C4.65427 26.5143 5.31329 25.7703 5.28587 24.4486V24.4468ZM22.8463 22.2147V27.7263H25.0446V22.105C25.0446 20.6992 24.7978 18.8255 22.3235 18.8255C21.1691 18.8255 20.1526 19.4872 19.8227 19.7075V19.0741H17.6244V27.7556H19.8227V21.0859C20.1792 20.8098 20.8117 20.3418 21.499 20.3418C22.5712 20.3144 22.8454 20.9479 22.8454 22.2156L22.8463 22.2147ZM26.4202 16.9224V27.6989H28.6459V16.895H26.4202V16.9224ZM30.9264 22.4341L33.7297 19.043H31.8331L28.6449 22.8454L31.1183 27.7236H33.8394L30.9264 22.4313V22.4341ZM17.5979 35.2763V35.662H11.8541C11.8541 37.5358 12.238 38.6938 13.5853 38.6938C14.6575 38.6938 15.0697 37.9224 15.2068 36.7926H17.5157C17.0495 39.1902 15.3448 39.9616 13.5853 39.9616C11.3596 39.9616 9.51785 38.8044 9.51785 35.2763C9.51785 32.2444 11.3313 30.8112 13.5853 30.8112C15.7287 30.8112 17.6071 32.2444 17.6071 35.2763H17.5979ZM15.2342 34.5048C15.1794 33.4299 14.8503 32.0799 13.5579 32.0799C12.2654 32.0799 11.9638 33.4582 11.8541 34.5048H15.2342ZM29.772 37.9233C29.772 38.7505 29.8634 39.3839 29.9548 39.7514H27.8662C27.8388 39.6143 27.7565 39.3382 27.7017 39.1454C27.4274 39.3373 26.4924 40 24.9806 40C23.3042 40 22.2047 39.1454 22.2047 37.4919C22.2047 35.8384 23.3042 35.0112 24.9257 34.6255L27.5362 33.992V33.4409C27.5362 32.3386 26.9037 32.0077 26.2173 32.0077C25.3928 32.0077 24.6232 32.5314 24.6232 33.5231H22.5895C22.5895 32.366 23.3591 30.8222 26.1908 30.8222C27.8397 30.8222 29.7354 31.069 29.7354 33.6054V37.9325H29.7628L29.772 37.9233ZM27.5737 35.1675L26.4467 35.4435C25.4851 35.7196 24.4952 36.2424 24.4952 37.235C24.4952 38.0897 24.9614 38.5028 25.7868 38.5028C26.5564 38.5028 27.2712 38.1171 27.5454 37.8694V35.1684H27.5728L27.5737 35.1675ZM18.8081 39.7148H21.0228V28.9383H18.7971V39.7148H18.8081ZM35.9554 30.8121C34.801 30.8121 33.7846 31.4739 33.4546 31.6942V31.0607H31.2563V39.7422H33.4537V33.0725C33.8102 32.7965 34.4427 32.3285 35.13 32.3285C36.2022 32.3285 36.4764 32.9619 36.4764 34.2297V39.7413H38.6747V34.12C38.6747 32.7142 38.4279 30.813 35.9536 30.813L35.9554 30.8121ZM45.6286 28.9383H47.8543V39.7148H45.6195V39.0531C45.5281 39.1445 44.6031 39.9625 43.2832 39.9625C41.6069 39.9625 39.8483 38.9425 39.8483 35.3604C39.8483 31.5854 42.0739 30.8405 43.4221 30.8405C44.4386 30.8405 45.1808 31.2262 45.6204 31.6393V28.9383H45.6286ZM45.6286 33.0999C45.4093 32.7416 44.7767 32.1631 44.0071 32.1631C43.1004 32.1631 42.2211 32.7416 42.2211 35.332C42.2211 38.033 43.0456 38.5842 44.0346 38.5842C44.7767 38.5842 45.4906 37.9224 45.6561 37.6473V33.0999H45.6286ZM0 39.713H2.39112V28.9383H0V39.7148V39.713ZM6.23829 32.1612V31.0315H4.02176V39.713H6.24743V34.7516C6.24743 32.6292 8.0883 32.4638 9.16046 32.5195V30.8377C7.4567 30.6458 6.43938 31.6923 6.24743 32.1603L6.23829 32.1612ZM25.4193 3.56474H25.2548C25.2548 1.80065 18.1372 1.63612 18.1372 0H17.9727V1.70925C17.9727 3.74754 25.1177 3.5556 25.2548 5.51163H25.4193C25.5564 3.5556 32.7014 3.74754 32.7014 1.70925V0H32.5369C32.5369 1.62698 25.4193 1.82807 25.4193 3.56474ZM32.5369 3.8682C32.5369 5.49518 25.4193 5.69627 25.4193 7.43293H25.2548C25.2548 5.66884 18.1372 5.50432 18.1372 3.8682H17.9727V5.57744C17.9727 7.61574 25.1177 7.42379 25.2548 9.37983H25.4193C25.5564 7.42379 32.7014 7.61574 32.7014 5.57744V3.8682H32.5369ZM32.5369 7.75284C32.5369 9.37983 25.4193 9.58091 25.4193 11.3176H25.2548C25.2548 9.55349 18.1372 9.38897 18.1372 7.75284H17.9727V9.46209C17.9727 11.5004 25.1177 11.3084 25.2548 13.2645H25.4193C25.5564 11.3084 32.7014 11.5004 32.7014 9.46209V7.75284H32.5369Z" fill="white"/>
</svg>
