<svg width="96" height="40" viewBox="0 0 96 40" fill="none" xmlns="http://www.w3.org/2000/svg">
<g clip-path="url(#clip0_374_271)">
<path d="M4.069 28.6391C5.22819 29.5858 6.55298 30.2959 7.9724 30.6982C10.6456 31.4556 13.5081 31.1953 15.9685 29.9408C21.4569 27.1243 23.6097 20.426 20.8181 14.9349C19.7536 12.8521 18.0503 11.1479 15.9685 10.0828C13.4845 8.8284 10.622 8.54438 7.9724 9.32544C6.69492 9.70414 5.48842 10.2959 4.42385 11.1243V0H0V20C0 20.1893 0 20.3787 0.023657 20.568H0V30.5799H3.85609L4.069 28.6391ZM7.99606 13.3964C8.87137 12.9941 9.79399 12.7811 10.7639 12.7811C12.8694 12.7811 14.7383 13.7515 15.9921 15.3136C17.0803 16.6391 17.6481 18.2959 17.6481 20C17.6481 21.7041 17.0803 23.3609 15.9921 24.6864C14.7146 26.2249 12.8457 27.2189 10.7639 27.2189C9.81764 27.2189 8.87137 27.0059 7.99606 26.6035C5.55939 25.4911 3.87974 22.9349 3.87974 19.9763C3.87974 17.0178 5.55939 14.5089 7.99606 13.3964Z" fill="white"/>
<path d="M41.3755 21.1124C41.3755 22.5799 40.9024 24 40.0034 25.1598C38.9862 26.4379 37.5194 27.2426 35.8634 27.2426C34.3494 27.2426 33.001 26.5799 32.0074 25.4911V25.4675C30.9901 24.355 30.3514 22.8166 30.3514 21.1124V9.44379H25.9512V21.1124C25.9512 25.1124 28.3405 28.7574 32.0074 30.3195C34.5623 31.4083 37.4721 31.3609 40.0034 30.2012C43.552 28.568 45.7994 25.0178 45.7994 21.1124V9.44379H41.3755V21.1124Z" fill="white"/>
<path d="M63.9912 9.68048C62.7611 9.15977 61.4599 8.89941 60.1351 8.89941C58.7157 8.89941 57.2963 9.20711 55.9952 9.79882C52.4703 11.432 50.1992 14.9823 50.1992 18.8876V30.5562H54.5994V18.8876C54.5994 17.4201 55.0726 16 55.9715 14.8402C56.9888 13.5621 58.4555 12.7574 60.1115 12.7574C61.6255 12.7574 62.974 13.4201 63.9676 14.5089C64.9848 15.6213 65.6236 17.1598 65.6236 18.8639V30.5326H70.0474V18.8876C70.0711 14.8876 67.6817 11.2663 63.9912 9.68048Z" fill="white"/>
<path d="M96.0009 9.44379H92.1449L91.9319 11.3846C90.7727 10.4379 89.448 9.72782 88.0049 9.32545C85.3316 8.56805 82.4692 8.82841 80.0088 10.0828C74.5204 12.8757 72.344 19.5976 75.1591 25.0888C76.2237 27.1716 77.927 28.8521 79.9852 29.9172C82.4691 31.1716 85.308 31.4556 87.9812 30.6746C89.2824 30.2959 90.4889 29.6805 91.5534 28.8757V40H95.9773V20C95.9773 19.8107 95.9773 19.6213 95.9536 19.432H95.9773L96.0009 9.44379ZM88.0049 26.6272C87.1296 27.0296 86.1833 27.2426 85.237 27.2426C83.1315 27.2426 81.2626 26.2485 80.0088 24.7101C78.9443 23.3846 78.3528 21.7278 78.3528 20.0237C78.3528 18.3195 78.9206 16.6627 80.0088 15.3373C81.2626 13.7752 83.1552 12.8047 85.2607 12.8047C86.2069 12.8047 87.1532 13.0178 88.0285 13.4201C90.4652 14.5325 92.1685 17.0888 92.1685 20.0473C92.1685 23.0059 90.4179 25.5148 88.0049 26.6272Z" fill="white"/>
</g>
<defs>
<clipPath id="clip0_374_271">
<rect width="96" height="40" fill="white"/>
</clipPath>
</defs>
</svg>
