<svg width="58" height="40" viewBox="0 0 58 40" fill="none" xmlns="http://www.w3.org/2000/svg">
<g clip-path="url(#clip0_374_264)">
<path d="M51.2531 15.9938C48.5952 15.9938 46.695 17.2125 45.7355 19.0175C45.7355 14.7537 47.236 11.0388 50.7979 11.0388C53.0624 11.0388 53.9614 12.3313 54.4406 14.4488L57.739 13.795C56.9636 10.1375 54.6196 8.36125 50.8206 8.36125C46.0482 8.36125 42.4774 11.9937 42.4774 20.1362C42.4774 27.365 45.4543 30.9375 50.5848 30.9375C54.8251 30.9375 58 28.0675 58 23.3375C58 19.6425 56.0129 15.9938 51.2531 15.9938ZM50.5937 28.2663C47.9622 28.2663 46.1415 25.8662 45.825 22.6875C46.6244 19.9725 48.3972 18.6213 50.4915 18.6213C53.1847 18.6213 54.7054 20.5925 54.7054 23.3962C54.7054 26.405 52.9742 28.2663 50.5937 28.2663ZM33.0487 23.7188C31.9807 24.7775 29.5737 26.6887 27.8942 27.8387H37.9698V30.7037H23.1433V28.0875C24.8618 26.8712 28.4301 24.23 30.6631 22.015C32.8003 19.8962 34.1998 17.96 34.1998 15.1175C34.1998 12.3212 32.6502 11.1588 30.5559 11.1588C28.4099 11.1588 26.6951 12.3887 26.6951 14.9575C26.6951 15.5175 26.7582 16.14 26.9145 16.8562L23.5467 16.5325C23.4006 15.9626 23.3269 15.3768 23.3273 14.7888C23.3273 11.36 25.7533 8.36125 30.6669 8.36125C34.7206 8.36125 37.7189 10.4475 37.7189 15.0087C37.7189 19.1563 34.6638 22.14 33.2895 23.4825L33.0487 23.7188ZM0 0H17.9687V2.865H0V0ZM14.5996 8.59375V23.7188H14.5983C14.5983 25.0575 14.6299 25.8675 14.6929 26.6462H14.6299C14.2995 25.755 13.9099 24.9738 13.3299 23.9563L4.30713 8.59375H0.184087V30.7037H3.39678V15.5788H3.3993C3.3993 14.2388 3.36778 13.43 3.30474 12.6513H3.36778C3.69687 13.5425 4.08648 14.3238 4.66648 15.34L13.6893 30.7037H17.7707V8.59375H14.5996ZM0 36.4325H17.9687V39.2825H0V36.4325Z" fill="white"/>
</g>
<defs>
<clipPath id="clip0_374_264">
<rect width="58" height="40" fill="white"/>
</clipPath>
</defs>
</svg>
