<svg width="59" height="40" viewBox="0 0 59 40" fill="none" xmlns="http://www.w3.org/2000/svg">
<g clip-path="url(#clip0_358_3698)">
<path d="M14.8757 8.72275V24.1122C14.8757 25.4829 14.9385 26.2928 15.0012 27.1028H14.9385C14.6246 26.1682 14.1853 25.4206 13.6204 24.3614L4.3938 8.72275H0.188477V31.215H3.45231V15.8879C3.45231 14.5171 3.38954 13.7072 3.32677 12.8972H3.38954C3.70337 13.8318 4.14273 14.5794 4.70763 15.6386L13.8715 31.2773H18.014V8.72275H14.8757Z" fill="white"/>
<path d="M52.1589 16.2617C49.4599 16.2617 47.5142 17.5078 46.5727 19.3146C46.5727 14.9533 48.0791 11.2149 51.7195 11.2149C54.0418 11.2149 54.9206 12.5234 55.4227 14.704L58.7493 14.0187C57.9333 10.2804 55.5482 8.47351 51.7195 8.47351C46.8865 8.47351 43.2461 12.1495 43.2461 20.4361C43.2461 27.7882 46.2589 31.4642 51.4684 31.4642C55.7993 31.4642 59.0003 28.5358 59.0003 23.7383C59.0003 20 56.9918 16.2617 52.1589 16.2617ZM51.4684 28.785C48.7695 28.785 46.9493 26.3551 46.6355 23.1153C47.4514 20.3738 49.2716 19.0031 51.4057 19.0031C54.1674 19.0031 55.6738 20.9969 55.6738 23.8629C55.6738 26.9159 53.9163 28.785 51.4684 28.785Z" fill="white"/>
<path d="M28.3705 28.3489C30.0652 27.1651 32.5131 25.2336 33.6429 24.1745C34.8982 22.9283 38.4131 19.8131 38.4131 15.3271C38.4131 10.6542 35.3376 8.53583 31.2578 8.53583C26.2365 8.53583 23.7886 11.5888 23.7886 15.0779C23.7886 15.6386 23.8514 16.1994 24.0397 16.8847L27.4918 17.1963C27.3035 16.4486 27.2407 15.8255 27.2407 15.2648C27.2407 12.648 28.9982 11.4019 31.195 11.4019C33.329 11.4019 34.8982 12.5857 34.8982 15.4517C34.8982 18.3178 33.4546 20.3115 31.3205 22.4922C29.061 24.7352 25.4205 27.4143 23.6631 28.6604V31.3396H38.7269V28.4112H28.3705V28.3489Z" fill="white"/>
<path d="M18.2649 37.134V40.0623H0V37.134H18.2649Z" fill="white"/>
<path d="M18.2649 0V2.92835H0V0H18.2649Z" fill="white"/>
</g>
<defs>
<clipPath id="clip0_358_3698">
<rect width="59" height="40" fill="white"/>
</clipPath>
</defs>
</svg>
