<svg width="74" height="40" viewBox="0 0 74 40" fill="none" xmlns="http://www.w3.org/2000/svg">
<g clip-path="url(#clip0_371_237)">
<path d="M0 40L0.0359274 37.1288C0.0374244 37.0427 0.0733518 36.9626 0.0763458 36.8765C0.224546 31.9635 0.606275 27.0238 1.84427 22.2532C0.592802 18.4368 0.176643 14.4081 0 10.4077L5.66605 9.35861L5.64809 13.6009C6.20646 12.9658 6.7304 12.3026 7.36362 11.7357C11.8665 7.69967 18.5236 9.12713 20.5699 14.8889C22.7765 21.1032 20.3903 29.7926 12.9324 30.7794C10.2169 31.1385 7.61811 30.444 5.61066 28.5907L5.68252 32.9621L6.01635 39.9985H0V40ZM10.624 12.2951C7.69895 12.5741 6.65256 16.3015 6.21395 18.6757C6.00138 19.8227 5.94299 20.4192 6.09718 21.584C6.43999 24.1822 7.39955 29.0492 10.7228 29.2866C14.2123 29.5374 15.2706 25.7877 15.5775 23.0515C15.9682 19.5645 15.9203 11.7906 10.624 12.2951Z" fill="white"/>
<path d="M59.3542 0V12.4316C60.7779 10.7326 62.7883 9.70138 65.0203 9.50699C69.4364 9.12416 72.4887 11.7268 73.5471 15.8311C75.0515 21.6701 72.827 28.2331 66.7553 30.2749C63.1356 31.4916 57.7165 30.8729 54.6702 28.4972C54.5804 28.4275 54.1822 28.1233 54.1478 28.064C54.1193 28.015 54.1028 27.9764 54.1103 27.9185L54.1148 4.29573C54.0325 3.16504 53.8364 2.05067 53.3379 1.02534L59.3542 0.00148384V0ZM63.2598 12.2966C61.0204 12.5029 59.6551 14.6574 59.3527 16.6903V26.2359C59.6072 27.8874 61.0922 29.1783 62.7673 29.2896C66.4499 29.5344 67.8002 26.2908 68.2074 23.2311C68.6759 19.7203 68.6055 11.8025 63.2598 12.2966Z" fill="white"/>
<path d="M50.9025 11.0057V16.6725H50.1271C50.0582 16.3579 49.9369 16.0552 49.8127 15.7599C48.8217 13.414 46.7798 11.3722 44.1257 11.0828C42.0898 10.8603 39.8069 11.7209 39.9761 14.0965C40.1452 16.4722 44.2634 17.1161 46.0867 17.6948C49.6929 18.8404 52.2333 20.5453 52.0117 24.6986C51.6435 31.5896 42.738 31.6816 37.8279 29.898C37.3803 29.7362 36.9522 29.5255 36.5076 29.3594V23.2904H37.283C38.039 26.6914 41.1108 29.5122 44.7589 29.2881C46.7604 29.165 48.4205 27.88 48.2454 25.7595C48.0343 23.2073 43.6706 22.6969 41.7215 22.0574C38.8144 21.1032 36.4746 19.6149 36.3219 16.2911C36.1693 12.9673 38.3638 10.4878 41.6452 9.75183C44.7933 9.04552 47.9879 9.82305 50.9025 11.0072V11.0057Z" fill="white"/>
<path d="M28.9402 5.30178V10.0189H35.437L34.8457 11.7001H28.9402V25.1378C29.036 26.3783 29.6243 27.552 30.8099 28.0743C32.1108 28.6471 33.8293 28.3711 34.7589 27.2775L35.3652 27.6604C34.1556 30.3921 30.774 31.2824 28.0106 30.6993C25.2561 30.1176 23.831 27.8992 23.6978 25.209L23.7008 9.63015C23.6229 8.5054 23.4283 7.37471 22.9238 6.35976L28.9402 5.29881V5.30178Z" fill="white"/>
</g>
<defs>
<clipPath id="clip0_371_237">
<rect width="74" height="40" fill="white"/>
</clipPath>
</defs>
</svg>
