<svg width="181" height="40" viewBox="0 0 181 40" fill="none" xmlns="http://www.w3.org/2000/svg">
<g clip-path="url(#clip0_373_262)">
<path fill-rule="evenodd" clip-rule="evenodd" d="M123.335 0H130.434V39.664H123.335V0ZM180.826 16.7106V10.5555H173.485V2.53058H166.386V31.7873C166.386 34.4755 167.062 36.5241 168.394 37.8765C169.724 39.23 171.799 39.9161 174.559 39.9161H180.826V33.7611H176.24C175.243 33.7611 174.528 33.5415 174.113 33.1079C173.733 32.711 173.485 31.7085 173.485 30.5541V16.7106H180.826ZM75.1109 31.9438L82.4512 10.5547H89.9096L79.3131 39.6644H70.9088L60.3122 10.5547H67.7705L75.1109 31.9438ZM154.815 25.1374C154.815 26.9802 154.535 28.5835 153.986 29.9025C153.441 31.2144 152.659 32.2201 151.663 32.891C150.667 33.5619 149.442 33.9021 148.023 33.9021C145.993 33.9021 144.462 33.2341 143.472 31.9174C142.471 30.5866 141.963 28.5698 141.963 25.9231V10.5555H134.864V26.7089C134.864 29.2241 135.177 31.3575 135.797 33.049C136.418 34.7456 137.27 36.1257 138.33 37.1502C139.39 38.1736 140.627 38.9128 142.008 39.3479C143.381 39.7808 144.859 40 146.399 40C148.618 40 150.456 39.5969 151.858 38.8018C153.136 38.0744 154.208 37.224 155.047 36.2704L155.682 39.6639H161.914V10.5555H154.815V25.1374ZM112.482 12.0906C110.245 10.8484 107.588 10.2191 104.587 10.2191C101.622 10.2191 98.9755 10.8484 96.7198 12.0902C94.4614 13.3351 92.6869 15.0932 91.4453 17.3156C90.2057 19.536 89.5771 22.1677 89.5771 25.1374C89.5771 28.0706 90.2057 30.684 91.4453 32.9044C92.6861 35.126 94.461 36.8837 96.7198 38.1285C98.9755 39.3704 101.623 39.9996 104.587 39.9996C107.588 39.9996 110.245 39.3704 112.482 38.1281C114.722 36.884 116.487 35.1264 117.728 32.9044C118.968 30.6827 119.597 28.0694 119.597 25.1374C119.597 22.1689 118.968 19.5371 117.728 17.3155C116.486 15.0929 114.721 13.3346 112.482 12.0906ZM108.731 32.8894C107.588 33.6351 106.193 34.0135 104.587 34.0135C103.018 34.0135 101.633 33.6353 100.47 32.8891C99.3048 32.1421 98.3913 31.0879 97.7539 29.7551C97.1137 28.4211 96.7887 26.8677 96.7887 25.1374C96.7887 23.3714 97.1134 21.809 97.7539 20.4931C98.391 19.1784 99.3052 18.1238 100.471 17.358C101.634 16.593 103.019 16.2053 104.587 16.2053C106.193 16.2053 107.586 16.593 108.73 17.3571C109.877 18.1234 110.783 19.1784 111.421 20.4935C112.061 21.8125 112.386 23.375 112.386 25.1375C112.386 26.8639 112.061 28.4178 111.421 29.7551C110.783 31.0881 109.878 32.1425 108.731 32.8894ZM7.378 9.78894H0V39.6644H7.378V9.78894ZM30.5151 11.4973C30.5151 5.15797 25.36 0.00042915 19.0231 0.00042915H0V6.38053H18.1186C20.9864 6.38053 23.3619 8.63662 23.4144 11.4095C23.4406 12.7979 22.9202 14.1082 21.9492 15.0991C20.9778 16.0902 19.6798 16.6365 18.2945 16.6365H11.2363C10.9857 16.6365 10.7818 16.8404 10.7818 17.0914V22.7618C10.7818 22.8583 10.8115 22.9504 10.8675 23.028L22.8427 39.6645H31.6087L19.6057 22.9825C25.6504 22.6786 30.5151 17.5927 30.5151 11.4973ZM53.2019 11.9212C51.0766 10.7916 48.5531 10.2191 45.7014 10.2191C42.8461 10.2191 40.2932 10.8488 38.1135 12.0914C35.9301 13.3351 34.2125 15.0936 33.0084 17.3171C31.8056 19.5356 31.1959 22.1857 31.1959 25.1942C31.1959 28.1264 31.8149 30.7389 33.0366 32.9596C34.2609 35.1855 36.0269 36.9342 38.2845 38.1571C40.5379 39.3801 43.2409 40 46.3177 40C48.7585 40 50.9505 39.5421 52.8327 38.6383C54.7152 37.7321 56.2521 36.4982 57.4008 34.9706C58.4921 33.5187 59.2283 31.8766 59.5884 30.0904L59.6273 29.8997H52.5671L52.5338 30.0143C52.1451 31.3466 51.3909 32.3994 50.2914 33.144C49.1113 33.9446 47.6618 34.3508 45.9825 34.3508C44.5592 34.3508 43.2737 34.0454 42.1621 33.4431C41.0559 32.8444 40.191 31.9881 39.5919 30.8973C38.9905 29.8026 38.6482 28.4855 38.5751 26.9905V26.7567H59.9009L59.9247 26.6263C59.9991 26.2165 60.0469 25.7943 60.0677 25.3696C60.0853 24.9559 60.0955 24.5426 60.0955 24.1255C60.0574 21.3051 59.4279 18.8244 58.2247 16.7514C57.0167 14.676 55.3268 13.0508 53.2019 11.9212ZM50.615 17.403C51.8279 18.4253 52.5825 19.8779 52.8592 21.7235H38.8203C38.9807 20.526 39.3777 19.4889 40.0015 18.6381C40.6558 17.7457 41.4941 17.0446 42.4933 16.5541C43.4937 16.0621 44.592 15.8124 45.7573 15.8124C47.7272 15.8123 49.3616 16.3475 50.615 17.403Z" fill="white"/>
</g>
<defs>
<clipPath id="clip0_373_262">
<rect width="181" height="40" fill="white"/>
</clipPath>
</defs>
</svg>
