<?xml version="1.0" encoding="UTF-8"?>
<svg id="Layer_2" data-name="Layer 2" xmlns="http://www.w3.org/2000/svg" viewBox="0 0 1300.24 1373.07">
  <defs>
    <style>
      .cls-1 {
        fill: #fdfdfd;
      }

      .cls-2 {
        fill: #060606;
      }

      .cls-3 {
        fill: #f93;
        stroke: #0b193a;
        stroke-miterlimit: 10;
      }

      .cls-4 {
        fill: #f4f4f4;
      }

      .cls-5 {
        fill: #20c6ba;
      }
    </style>
  </defs>
  <g id="Layer_1-2" data-name="Layer 1">
    <g>
      <path class="cls-2" d="M1217.24,119.02l-11.18,23.32c-26.71,45.53-65.55,82.98-109.89,111.11-30.28,19.21-63.2,34.3-97.93,43.57-.69-.65,1.94-4.08,2.57-4.93,10.85-14.52,24.31-27.27,37.46-39.54,47.02-43.91,99.5-82.14,152.66-118.34l26.31-15.18Z"/>
      <path class="cls-2" d="M1025.24,84.02c-2.41,26.37-7.47,52.41-13.28,78.21-7.29,32.37-13.89,71.79-42.77,92.23-.82.58-2.47,1.72-3.37,1.51-8.25-12.01-9.67-28.06-8.51-42.39,1.4-17.22,8.75-26.63,16.11-40.89,15.76-30.52,28.53-58.93,49.26-86.78.86-1.16-.06-2.49,2.55-1.9Z"/>
      <path class="cls-2" d="M1175.24,304.02c.55,2.38-.42,1.6-1.28,2.23-20.31,14.59-44.9,27.53-67.35,38.63-24.46,12.1-42.17,22.86-70.88,20.16-4.76-.45-9.57-3.11-14.49-3.02-.24-2.23.41-4.23,1.25-6.26,7.67-18.53,27.01-32.66,46.5-36.5,19.68-3.88,40.04-8.06,59.85-11.15,13.66-2.13,27.39-2.62,40.98-4.02,1.81-.19,3.62-.07,5.42-.07Z"/>
      <g>
        <g>
          <path class="cls-2" d="M883.24,583.01h18.5c15.62,0,42.85,14.3,57.19,21.81,37.11,19.46,77.09,41.35,102.75,75.25,24.45,32.31,36.75,73.44,48.08,111.92,19.85,67.4,37.45,135.52,56.98,203.02,2.15,7.44,6.44,26.97,9.65,32.35.98,1.65,9.12,9.85,10.26,9.59l19.99-15.9,93.62,78.46-318.5,273.54-2.34-1.72-68.18-99.86,8.98-9.88c-9.91-10.55-20.26-20.56-32.04-29.02-23.16-16.63-49.58-27.65-74.24-41.76-50.86-29.11-102.78-61.62-150.18-95.82-62.33-54.71-58.96-122.63-56.48-199.47.23-7.16-.22-14.37-.03-21.52-12.66,4.89-25.64,9.19-38.77,12.73-183.5,49.49-376.77-21.15-485.65-174.81C-57.69,513.62-14.85,239.97,176.74,93.02c157.38-120.71,376.27-124.38,537.41-8.42,144.67,104.1,215.27,282.96,178.8,458.63-2.78,13.38-6.84,26.44-9.71,39.79ZM765.94,149.31C611.35-11.43,362.03-30.39,184.74,106.02,46.47,212.4-15.69,393.61,29.51,563.24c60.06,225.41,288.78,365.51,517.94,313.49,20.68-4.7,40.91-11.34,60.7-18.8l-1.45-6.88c-30.28-35.51-61.08-70.83-87.88-109.12-5.91-8.45-11.31-17.52-17.21-25.81l-3.63.12c-24.41,6.16-48.91,12.16-73.52,17.49-19.89,4.3-47.12,11.62-66.69,13.31-40.37,3.48-51.64-30.13-67.04-60-30.57-59.26-56.44-121.16-77.5-184.5-4.24-12.74-12.06-32.04-10.99-45.05,1.32-16.09,12.53-31.41,27.08-38.06-3.25-13.52-9.74-26.01-13.58-39.41-36.34-126.79,68.27-249.1,198.92-229.92,66.82,9.81,127.65,41.65,153.78,107.22,2.15,5.4,2.84,9.76-.32,15.05-3.66,6.14-10.95,6.46-16.22,9.78-12.31,7.77-20.22,10.83-33.64,16.36-13.78,5.67-29.24,16.03-41.44.42s-17.52-27.63-36.25-38.75c-23.09-13.7-63.67-19.85-86.25-2.61-31.58,24.11-45.04,67.02-36.59,105.45,1.33,6.04,3.39,12.12,5.62,17.87,1.07.32,2.23.21,3.33.06,8.95-1.22,24.95-8.48,34.56-11.46,52.62-16.31,106.61-29.01,160.79-39.21,21.95-4.13,52.2-11.14,73.81-12.25,4.46-.23,12.23,2.9,15.91,2.87,6.36-.04,10.54-1.12,17.56.55,21.29,5.05,26.08,22.9,30.66,41.34,19.5,78.41,29.87,162.16,33.33,242.67,1.03,23.95.56,38.64-21.36,51.74-5.96,3.56-11.54,7.91-17.01,10.99-8.3,4.68-18.68,6.83-27.68,9.82l27.41,28.96c2.75-1.6,3.15-5,4.74-7.32,12.38-18.04,36.37-31.94,57.63-36.37,9.31-1.94,18.81-1.95,28.24-2.76,12.38-18.78,27.37-34.66,46.87-46.13,21.86-46.45,34.04-96.63,37.13-147.87.43-7.06-3.18-23.61,7.47-23.59,9.63.02,7.84,10.38,7.53,17.59-.94,21.81-3.12,44.11-7.3,65.7-5.4,27.9-14.69,55.69-25.73,81.77,9.49-1.53,19.89-1.59,29.37-.06.79-.22,5.24-7.8,6.64-9.43,5.17-6.04,11.72-8.5,18.81-11.69,50.35-152.5,10.25-322.78-100.11-437.52ZM541.02,272.8c.48-1.57,2.13-3.55,2.02-5.1s-3.63-9.38-4.59-11.39c-46.07-96.38-176.77-123.94-257.7-53.29-54.46,47.54-70.04,117.71-46.53,185.52,2.83,8.17,7.06,16.08,9.03,24.48l53.98-21.02c-1.47-9.71-6.01-18.93-7.75-28.72-14.82-83.76,62.29-156.12,144.03-123.03,19.8,8.01,36.67,22.8,49.14,39.86,4.03,5.52,5.83,14.4,14.62,11.45l43.74-18.75ZM475.24,664.01l-85.5,18.06c-17.88-.9-23.14-12.71-30.69-26.37-24.99-45.25-51.87-106.66-65.56-156.44-3.72-13.51.41-26.7,13.04-33.45,12.56-6.71,30.85-13.45,44.43-18.57,55.88-21.06,116.93-36.28,175.89-46.11,12.2-2.03,33.63-7.35,44.42-1.66,12.38,6.53,13.65,17.91,16.68,30.32,12.83,52.65,20.06,111.91,22.31,165.69.55,13.22-1.3,25.36-13.71,32.34-4.01,2.26-8.01,2.63-11.64,4.36-.92.44-2.03,1.13-1.67,2.31l31.67,31.39,2.6-.05c20.33-7.35,44.51-9.79,46.75-36.31.67-7.96-.55-18.75-1-27.05-3.67-68.49-12.04-137.29-26.31-204.69-2.69-12.72-5.48-28.67-9.18-40.82-4.64-15.25-18.12-24.47-33.97-23.88-117.7,19.45-238.33,45.32-347.26,94.73-19.84,9-34.13,18.15-27.82,43.2,3.95,15.69,11.25,34.71,16.74,50.26,17.76,50.29,38.59,99.83,62.58,147.42,7.6,15.07,16.52,33.53,25.37,47.63,6.61,10.53,15.85,15.47,28.23,16.66,47.19-8.73,94.08-18.85,140.62-30.45,1.6-1.24.49-1.13.13-2.17-3.72-10.58-12-22-16.37-32.65-.5-1.21-.93-2.37-.79-3.7ZM450,442.28c-30.65,3.14-58.74,27.36-67.27,56.73-1.22,4.21-3.69,14.51-3.57,18.5.23,7.31,9.22,10.7,13.59,4.52,1.2-11.92,3.38-22.24,9.31-32.69,12.5-22.05,36.13-35.23,61.73-33.36,4.43.32,11.15,3.61,14.52-.39,2.04-2.42,2.63-7.06.41-9.55-4.01-4.51-22.67-4.37-28.71-3.75ZM543.23,595.01c8.1-22.2,8.8-44.23,3.72-67.21-4.91-22.2-17.6-47.34-32.71-64.29-4.98-5.58-12.57-15.13-18.83-5.84-2.1,8.16,5.41,11.62,9.83,16.84,20.79,24.57,33.57,58.52,31.03,91.02-.55,7-3.47,14.09-4.05,20.96.32,2.2,6.34,6.26,8.49,7.55.83.5,1.15,1.32,2.53.96ZM520.22,578c.57-4.58,2.25-9.01,2.95-13.56,6.55-43.2-29.7-101.93-79.2-83.2-40.13,15.18-46.3,67.57-31.5,103.04,1.93,4.63,2.62,7.2,8.29,6.78,11.87-.89,3.59-14.33,1.75-20.82-5.73-20.2-5.26-45.09,8.3-62.16,17.8-22.41,46.54-21.37,63.86,1,13.21,17.06,19.08,44.19,12.61,64.87l12.94,4.04ZM461.24,602.01c-.72-4.8,1.76-8.89,2.87-13.37-10.15-11.56-17.34-36.72-10.63-50.89,4.45-9.39,15.54-10.82,21.77-2.25,5.54,7.61,1.45,15.98,3.18,23.82,1.66,7.51,12.62,7.1,13.75-1.87,1.06-8.44.25-19.52-3.75-27.13-8.14-15.47-26.71-19.29-40.21-7.83-19.08,16.19-10.96,54.46,3.03,72.02,1.27,1.59,8.33,9.2,9.99,7.5ZM378.93,537.22c-4.45.99-5.04,5.32-4.72,9.32,2.2,28.06,12.9,59.12,28.61,82.39,2.01,2.97,7.62,11.06,9.88,13.12,5.52,5.02,12.71-.78,11.39-7.37-19.19-22.91-29.91-50.94-34.78-80.24-1.26-7.56,1.21-19.81-10.38-17.22ZM644.6,719.69c-35.38-38.61-74.2-80.33-113.86-114.68-11.74-10.17-32.63-24.45-48.2-15.2-11.71,6.95-6.94,29.4-4.04,40.44,17.62,67.09,73.31,130.84,116.74,183.26,40.28,48.62,81.24,96.63,123,144,10.64,12.07,31.29,27.27,24.5,45.5-4.87,13.08-20.29,12.59-30.84,6.84-27.8-15.16-25.91-53.71-36.81-79.19-16.79-17.93-31.33-38.1-47.85-56.15-.75-.82-4.02-4.56-5-3.5-.22,8.48.28,17.03.02,25.52-1.63,53.9-6.09,115.53,27.56,161.39,17.13,23.35,40.94,39.6,65.1,54.9,28.95,18.33,58.54,36.5,88,54,22.42,13.32,45.55,24.25,68.01,36.99s43.61,28.09,60.32,47.75l1.33.33,240.21-202.86c1.75-3.25-4.95-7.48-6.97-10.1-2.15-2.79-3.65-5.83-4.86-9.14-12.11-33.24-21.62-72.36-31.23-106.77-17.1-61.25-30.88-131.63-55.3-189.7-27.04-64.33-71.26-88.83-130.5-119.5-22.27-11.53-45.33-20.73-70.7-13.32-6.73,1.97-14.32,4.91-16.99,11.97l39.78,16.76c4.66,8.36.14,14.63-9.58,12.08-23.12-6.07-45.11-24.03-70.46-19.06-18.17,3.56-36.46,18.06-47.74,32.27-1.35,1.7-9.2,12.03-9,12.95l41.94,26.1c3.01,3.18,4.33,6.76,1.95,10.83-4.12,4.77-9,2.3-13.57-.21-13.95-7.66-28.41-19.84-42.4-26.6-9.52-4.6-28.41-.08-38.19,3.64-14.21,5.41-37.59,19.94-41.28,35.72-1.08,4.62.71,6.08,3.55,9.56,26.39,32.22,56.51,62.05,81.43,95.57,2.94,3.96,5.62,8.01,1.6,12.46-2.13,2.36-5.07,3.04-8.09,2.03-4.01-1.35-16.25-18.64-19.94-23.06-26.57-31.84-53.86-63.5-81.64-93.82ZM444.52,610.73c-3.27-3.17-6.98-9.22-10.24-12.26-5.66-5.27-13.3-1.61-12.05,6.02.61,3.73,14.43,18,17.98,21.05,1.47,1.26,3.51,2.77,5.11,3.89,2.47,1.73,18.47,11.02,19.91,9.58l-3.5-16c-3.25-2.54-7.12-4.12-10.43-6.57-1.66-1.23-5.34-4.31-6.79-5.71ZM1182.96,1062.24c-8.15,1.46-9.94,10.65-.41,8.57,1.59-.35,7.43-3.49,8.24-4.78.86-4.53-4.55-4.38-7.82-3.79ZM1190.24,1087.01c1.45.25,7.91.42,6.99-2.49-.87-2.76-8.56-2.24-6.99,2.49ZM1173.24,1089.01c0-5.03-8.52-3.35-7,1l7-1ZM1107.24,1242.02c-.61-.62-4.34,1.63-5.32,2.18-38.91,21.76-81.77,59.66-130.11,52.75-1-.14-4.67-.54-4.57-1.92,1.31.73,8.61-2.73,8.88-3.12.5-.71-.07-2.77.12-3.88-4.09-.21-8.35.33-12.42-.08-5.3-.53-11.35-3.98-16.06-3.95-1.57,0-1.72-.28-1.5,1.51l32.55,50.45c7,5.65,9.76,6.28,17.35,1.47,13.58-8.61,29.73-24.77,42.59-35.41,20.53-16.99,43.48-34.19,63-52,1.2-1.1,7.18-6.29,5.5-8Z"/>
          <path class="cls-3" d="M765.94,149.31c110.36,114.74,150.46,285.02,100.11,437.52-7.09,3.19-13.64,5.65-18.81,11.69-1.39,1.63-5.85,9.22-6.64,9.43-9.47-1.53-19.88-1.47-29.37.06,11.04-26.08,20.33-53.87,25.73-81.77,4.18-21.59,6.36-43.89,7.3-65.7.31-7.21,2.1-17.57-7.53-17.59-10.65-.02-7.04,16.53-7.47,23.59-3.09,51.24-15.27,101.42-37.13,147.87-19.51,11.47-34.49,27.35-46.87,46.13-9.43.82-18.93.83-28.24,2.76-21.27,4.43-45.26,18.33-57.63,36.37-1.59,2.32-1.99,5.72-4.74,7.32l-27.41-28.96c9-2.99,19.38-5.14,27.68-9.82,5.47-3.08,11.05-7.44,17.01-10.99,21.92-13.09,22.39-27.79,21.36-51.74-3.46-80.51-13.83-164.26-33.33-242.67-4.58-18.44-9.37-36.29-30.66-41.34-7.02-1.67-11.19-.59-17.56-.55-3.68.02-11.45-3.1-15.91-2.87-21.61,1.11-51.87,8.12-73.81,12.25-54.18,10.2-108.17,22.91-160.79,39.21-9.61,2.98-25.61,10.24-34.56,11.46-1.09.15-2.26.26-3.33-.06-2.24-5.75-4.3-11.83-5.62-17.87-8.45-38.43,5.01-81.35,36.59-105.45,22.58-17.24,63.16-11.09,86.25,2.61,18.74,11.12,23.89,22.93,36.25,38.75s27.66,5.25,41.44-.42c13.43-5.52,21.33-8.59,33.64-16.36,5.26-3.32,12.56-3.65,16.22-9.78,3.16-5.29,2.47-9.65.32-15.05-26.13-65.57-86.96-97.42-153.78-107.22-130.66-19.17-235.26,103.13-198.92,229.92,3.84,13.39,10.32,25.88,13.58,39.41-14.55,6.65-25.76,21.97-27.08,38.06-1.07,13.01,6.76,32.31,10.99,45.05,21.06,63.33,46.94,125.24,77.5,184.5,15.41,29.87,26.67,63.48,67.04,60,19.58-1.69,46.81-9,66.69-13.31,24.61-5.33,49.11-11.33,73.52-17.49l3.63-.12c5.9,8.29,11.3,17.36,17.21,25.81,26.8,38.29,57.6,73.61,87.88,109.12l1.45,6.88c-19.79,7.46-40.02,14.1-60.7,18.8-229.17,52.03-457.89-88.07-517.94-313.49C-15.69,393.61,46.47,212.4,184.74,106.02,362.03-30.39,611.35-11.43,765.94,149.31ZM699.92,146.37c-65.86-53.56-150.08-85.62-235.15-88.38-3.9-.13-16.29-.64-18.87.97-3.42,3.86-4.37,9.33.39,12.51,4.24,2.83,12.19,1.25,17.48,1.52,97.48,5.1,175.44,38.73,247.5,103.5,2.79,2.51,5.46,7.37,9.67,8.33,4.53,1.04,8.82-1.71,9.32-6.37.67-6.22-10.7-14.09-14.97-18.02-4.92-4.54-10.16-9.83-15.36-14.06ZM183.03,173.23c-1.7-1.72-7.16-1.68-9.34-.27-2.9,1.88-11.59,11.41-14.45,14.55-59.85,65.93-97.52,155.56-101.05,244.95-.22,5.69-.68,15.72.08,21.01.19,1.3.7,2.47,1.49,3.51,2.82,3.25,9.65,2.62,11.94-1.01,2.91-4.6,1.17-17.43,1.51-23.49,4.85-86.11,37.96-166.3,94.03-230.97,5.36-6.19,11.73-11.67,16.86-18.13,2.12-2.34.77-8.28-1.08-10.15ZM457.03,831.22c-3.77-3.69-24.04-1.84-30.32-2.19-75.98-4.15-155.25-36.27-213.97-84.03-8.67-7.05-16.25-15.44-24.48-22.52-4.13-3.56-9.4-8.59-14.57-3.52-3.3,3.24-2.63,7.63,0,11.09,4.63,6.08,17.68,16.61,24.04,21.96,63.91,53.7,146.96,88.26,230.95,92.05,8.57.39,17.3-.23,25.88-.21,4.47-2.17,5.94-9.21,2.46-12.62Z"/>
          <path class="cls-1" d="M541.02,272.8l-43.74,18.75c-8.8,2.95-10.59-5.93-14.62-11.45-12.47-17.06-29.34-31.84-49.14-39.86-81.74-33.09-158.85,39.27-144.03,123.03,1.73,9.79,6.28,19.01,7.75,28.72l-53.98,21.02c-1.97-8.39-6.2-16.3-9.03-24.48-23.51-67.81-7.93-137.99,46.53-185.52,80.93-70.64,211.63-43.09,257.7,53.29.96,2.01,4.48,9.85,4.59,11.39s-1.54,3.53-2.02,5.1Z"/>
          <path class="cls-2" d="M183.03,173.23c1.85,1.87,3.2,7.81,1.08,10.15-5.13,6.46-11.5,11.95-16.86,18.13-56.06,64.68-89.18,144.86-94.03,230.97-.34,6.06,1.4,18.89-1.51,23.49-2.29,3.63-9.12,4.26-11.94,1.01-.78-1.05-1.3-2.21-1.49-3.51-.76-5.29-.31-15.32-.08-21.01,3.53-89.39,41.2-179.02,101.05-244.95,2.85-3.14,11.55-12.68,14.45-14.55,2.18-1.41,7.64-1.45,9.34.27Z"/>
          <path class="cls-2" d="M457.03,831.22c3.48,3.41,2.01,10.45-2.46,12.62-8.58-.02-17.31.6-25.88.21-83.99-3.78-167.04-38.35-230.95-92.05-6.37-5.35-19.41-15.88-24.04-21.96-2.64-3.46-3.31-7.85,0-11.09,5.17-5.07,10.44-.04,14.57,3.52,8.23,7.08,15.81,15.47,24.48,22.52,58.73,47.75,137.99,79.88,213.97,84.03,6.28.34,26.55-1.51,30.32,2.19Z"/>
          <path class="cls-2" d="M699.92,146.37c5.2,4.23,10.44,9.53,15.36,14.06,4.27,3.94,15.65,11.81,14.97,18.02-.5,4.65-4.79,7.4-9.32,6.37-4.2-.96-6.87-5.82-9.67-8.33-72.06-64.77-150.02-98.4-247.5-103.5-5.29-.28-13.24,1.31-17.48-1.52-4.76-3.18-3.81-8.65-.39-12.51,2.58-1.62,14.96-1.1,18.87-.97,85.07,2.77,169.29,34.82,235.15,88.38Z"/>
          <g>
            <path class="cls-1" d="M475.24,664.01c-.14,1.34.3,2.49.79,3.7,4.37,10.66,12.65,22.08,16.37,32.65.36,1.04,1.47.94-.13,2.17-46.54,11.6-93.43,21.72-140.62,30.45-12.38-1.19-21.61-6.12-28.23-16.66-8.85-14.1-17.77-32.56-25.37-47.63-23.99-47.59-44.82-97.13-62.58-147.42-5.49-15.54-12.79-34.57-16.74-50.26-6.31-25.05,7.98-34.2,27.82-43.2,108.93-49.41,229.56-75.28,347.26-94.73,15.85-.58,29.32,8.64,33.97,23.88,3.7,12.15,6.49,28.11,9.18,40.82,14.27,67.4,22.64,136.2,26.31,204.69.44,8.29,1.67,19.09,1,27.05-2.24,26.51-26.42,28.95-46.75,36.31l-2.6.05-31.67-31.39c-.36-1.19.75-1.88,1.67-2.31,3.63-1.72,7.63-2.1,11.64-4.36,12.41-6.98,14.26-19.12,13.71-32.34-2.25-53.78-9.48-113.05-22.31-165.69-3.03-12.42-4.29-23.8-16.68-30.32-10.79-5.69-32.23-.37-44.42,1.66-58.95,9.83-120.01,25.05-175.89,46.11-13.58,5.12-31.88,11.86-44.43,18.57-12.63,6.75-16.76,19.93-13.04,33.45,13.69,49.78,40.57,111.2,65.56,156.44,7.54,13.66,12.81,25.47,30.69,26.37l85.5-18.06Z"/>
            <path class="cls-4" d="M520.22,578l-12.94-4.04c6.47-20.69.59-47.81-12.61-64.87-17.32-22.37-46.06-23.41-63.86-1-13.56,17.07-14.03,41.96-8.3,62.16,1.84,6.49,10.12,19.93-1.75,20.82-5.68.43-6.36-2.15-8.29-6.78-14.8-35.48-8.63-87.86,31.5-103.04,49.5-18.73,85.75,40,79.2,83.2-.69,4.56-2.37,8.98-2.95,13.56Z"/>
            <path class="cls-4" d="M543.23,595.01c-1.38.35-1.69-.46-2.53-.96-2.15-1.29-8.17-5.35-8.49-7.55.57-6.88,3.5-13.97,4.05-20.96,2.55-32.5-10.24-66.45-31.03-91.02-4.42-5.22-11.93-8.68-9.83-16.84,6.26-9.3,13.85.26,18.83,5.84,15.11,16.94,27.8,42.08,32.71,64.29,5.08,22.98,4.38,45.02-3.72,67.21Z"/>
            <path class="cls-4" d="M461.24,602.01c-1.66,1.7-8.73-5.91-9.99-7.5-13.99-17.55-22.1-55.83-3.03-72.02,13.5-11.46,32.07-7.64,40.21,7.83,4,7.61,4.81,18.69,3.75,27.13-1.12,8.98-12.09,9.38-13.75,1.87-1.73-7.84,2.36-16.21-3.18-23.82-6.23-8.57-17.32-7.14-21.77,2.25-6.72,14.17.47,39.33,10.63,50.89-1.11,4.48-3.59,8.57-2.87,13.37Z"/>
            <path class="cls-4" d="M450,442.28c6.04-.62,24.71-.75,28.71,3.75,2.21,2.49,1.63,7.13-.41,9.55-3.38,4-10.09.71-14.52.39-25.6-1.87-49.24,11.31-61.73,33.36-5.92,10.45-8.11,20.77-9.31,32.69-4.37,6.18-13.36,2.79-13.59-4.52-.12-3.99,2.35-14.3,3.57-18.5,8.54-29.37,36.62-53.58,67.27-56.73Z"/>
            <path class="cls-4" d="M378.93,537.22c11.59-2.59,9.12,9.66,10.38,17.22,4.87,29.3,15.59,57.33,34.78,80.24,1.32,6.59-5.86,12.39-11.39,7.37-2.26-2.06-7.88-10.15-9.88-13.12-15.72-23.28-26.41-54.34-28.61-82.39-.31-4,.28-8.33,4.72-9.32Z"/>
            <path class="cls-4" d="M444.52,610.73c1.45,1.4,5.12,4.48,6.79,5.71,3.31,2.45,7.18,4.03,10.43,6.57l3.5,16c-1.44,1.44-17.45-7.85-19.91-9.58-1.6-1.12-3.64-2.63-5.11-3.89-3.56-3.04-17.38-17.31-17.98-21.05-1.24-7.64,6.39-11.29,12.05-6.02,3.27,3.04,6.97,9.09,10.24,12.26Z"/>
          </g>
        </g>
        <g>
          <path class="cls-1" d="M644.6,719.69c27.78,30.32,55.07,61.98,81.64,93.82,3.69,4.42,15.93,21.71,19.94,23.06,3.02,1.01,5.96.33,8.09-2.03,4.02-4.45,1.34-8.5-1.6-12.46-24.92-33.52-55.04-63.36-81.43-95.57-2.84-3.47-4.63-4.93-3.55-9.56,3.68-15.78,27.07-30.3,41.28-35.72,9.78-3.72,28.67-8.24,38.19-3.64,13.99,6.76,28.45,18.94,42.4,26.6,4.57,2.51,9.45,4.98,13.57.21,2.38-4.07,1.06-7.65-1.95-10.83l-41.94-26.1c-.2-.92,7.65-11.25,9-12.95,11.28-14.21,29.57-28.7,47.74-32.27,25.35-4.97,47.35,12.98,70.46,19.06,9.72,2.55,14.24-3.71,9.58-12.08l-39.78-16.76c2.67-7.06,10.25-10,16.99-11.97,25.36-7.41,48.43,1.8,70.7,13.32,59.24,30.67,103.46,55.17,130.5,119.5,24.41,58.07,38.2,128.45,55.3,189.7,9.61,34.41,19.12,73.53,31.23,106.77,1.21,3.31,2.7,6.35,4.86,9.14,2.03,2.63,8.72,6.85,6.97,10.1l-240.21,202.86-1.33-.33c-16.71-19.65-37.96-35.06-60.32-47.75s-45.59-23.67-68.01-36.99c-29.46-17.5-59.04-35.67-88-54-24.16-15.3-47.97-31.55-65.1-54.9-33.65-45.86-29.19-107.49-27.56-161.39.26-8.49-.24-17.04-.02-25.52.98-1.06,4.24,2.68,5,3.5,16.52,18.05,31.06,38.22,47.85,56.15,10.9,25.48,9.01,64.02,36.81,79.19,10.55,5.75,25.97,6.24,30.84-6.84,6.79-18.23-13.86-33.43-24.5-45.5-41.77-47.37-82.73-95.38-123-144-43.43-52.42-99.12-116.17-116.74-183.26-2.9-11.04-7.67-33.49,4.04-40.44,15.57-9.25,36.46,5.03,48.2,15.2,39.65,34.35,78.48,76.07,113.86,114.68ZM1001.33,705.27c0-4.36-3.54-7.9-7.9-7.9s-7.9,3.54-7.9,7.9,3.54,7.9,7.9,7.9,7.9-3.54,7.9-7.9ZM940.53,727.72c.55.58,4.93,3.61,5.65,3.85,14.37,4.8,19.35-14.41,12.07-24.07-8.21-10.9-20.61-7.12-21.94,6.09-.39,3.82,1.58,11.35,4.22,14.13ZM977.34,741.91c7.01,1.61,15.56-3.54,10.47-10.96-7.38-3.22-14.32,3.47-10.47,10.96ZM877.15,1144.1c-3.96-1.96-8.44-1.46-12.34-2.16-16.71-3-33.16-7.19-49.14-12.92-4.06-.09-4,2.23-1.9,4.96,34.19,24.21,66.85,50.99,101.55,74.45,7.38,4.99,13.47,10.44,23.22,8.39,4.69-.99,7.79-5.94,11.2-8.8,13.23-11.11,26.05-22.63,39-34,9.7-8.51,20.16-16.25,28.79-25.72.58-.63,2.41-.88,2.7-1.79,1.19-3.69-2.68-2.56-5.33-2.33-27.78,20.62-64.12,41.13-100.09,34.76-3.93-.7-7.58-2.53-11.57-2.94l5.91-3.08c1.55-4.77-4.29-5.95-8.13-7.2-4.09-1.34-8.83-1.78-12.79-3.21-7.19-2.58-13.5-8.48-20.99-10.51l9.04-2.45.87-5.46Z"/>
          <g>
            <path class="cls-5" d="M996.15,1337.43c-7.59,4.81-10.35,4.18-17.35-1.47l-32.55-50.45c-.22-1.79-.06-1.5,1.5-1.51,4.72-.03,10.77,3.42,16.06,3.95,4.07.41,8.33-.13,12.42.08-.19,1.11.38,3.17-.12,3.88-.27.39-7.57,3.85-8.88,3.12-.1,1.38,3.57,1.78,4.57,1.92,48.34,6.92,91.2-30.99,130.11-52.75.98-.55,4.71-2.8,5.32-2.18,1.68,1.71-4.3,6.9-5.5,8-19.52,17.82-42.47,35.01-63,52"/>
            <path class="cls-4" d="M1182.96,1062.24c3.28-.59,8.68-.74,7.82,3.79-.81,1.29-6.65,4.43-8.24,4.78-9.52,2.08-7.73-7.11.41-8.57Z"/>
            <path class="cls-4" d="M1190.24,1087.01c-1.57-4.73,6.12-5.25,6.99-2.49.92,2.91-5.54,2.74-6.99,2.49Z"/>
            <path class="cls-4" d="M1173.24,1089.01l-7,1c-1.52-4.36,6.99-6.03,7-1Z"/>
            <path class="cls-2" d="M877.15,1144.1l-.87,5.46-9.04,2.45c7.49,2.03,13.8,7.93,20.99,10.51,3.96,1.43,8.7,1.87,12.79,3.21,3.83,1.25,9.68,2.43,8.13,7.2l-5.91,3.08c3.99.4,7.64,2.24,11.57,2.94,35.97,6.37,72.32-14.14,100.09-34.76,2.66-.23,6.52-1.35,5.33,2.33-.29.91-2.12,1.15-2.7,1.79-8.64,9.47-19.09,17.2-28.79,25.72-12.95,11.37-25.77,22.89-39,34-3.41,2.87-6.51,7.81-11.2,8.8-9.75,2.05-15.84-3.4-23.22-8.39-34.7-23.45-67.36-50.24-101.55-74.45-2.1-2.73-2.15-5.05,1.9-4.96,15.98,5.73,32.43,9.92,49.14,12.92,3.9.7,8.38.2,12.34,2.16Z"/>
            <path class="cls-2" d="M940.53,727.72c-2.65-2.78-4.61-10.31-4.22-14.13,1.33-13.21,13.73-16.98,21.94-6.09,7.28,9.66,2.3,28.87-12.07,24.07-.72-.24-5.09-3.27-5.65-3.85Z"/>
            <circle class="cls-2" cx="993.44" cy="705.27" r="7.9"/>
            <path class="cls-2" d="M977.34,741.91c-3.85-7.49,3.08-14.18,10.47-10.96,5.09,7.42-3.46,12.57-10.47,10.96Z"/>
          </g>
        </g>
      </g>
    </g>
  </g>
</svg>