<?xml version="1.0" encoding="UTF-8"?>
<svg xmlns="http://www.w3.org/2000/svg" viewBox="0 0 1199.93 2712.08">
  <defs>
    <style>
      .cls-1 {
        stroke: #168b9b;
        stroke-width: 4px;
      }

      .cls-1, .cls-2, .cls-3, .cls-4, .cls-5, .cls-6, .cls-7, .cls-8 {
        stroke-miterlimit: 10;
      }

      .cls-1, .cls-3, .cls-6 {
        fill: none;
      }

      .cls-9 {
        fill: #8696b5;
        mix-blend-mode: multiply;
      }

      .cls-2, .cls-3, .cls-5 {
        stroke: #000;
      }

      .cls-2, .cls-4 {
        stroke-width: 3px;
      }

      .cls-2, .cls-5, .cls-8 {
        fill: #fff;
      }

      .cls-4, .cls-7 {
        fill: #f93;
      }

      .cls-4, .cls-7, .cls-8 {
        stroke: #0b193a;
      }

      .cls-6 {
        stroke: #345391;
        stroke-linecap: round;
        stroke-width: 2px;
      }

      .cls-10 {
        fill: #0b193a;
      }

      .cls-11 {
        isolation: isolate;
      }

      .cls-12 {
        fill: #168b9b;
      }

      .cls-13 {
        fill: #f8001b;
      }

      .cls-14 {
        fill: #20c6ba;
      }
    </style>
  </defs>
  <g class="cls-11">
    <g id="Layer_2" data-name="Layer 2">
      <g id="Layer_1-2" data-name="Layer 1">
        <g>
          <path class="cls-8" d="M440.13,2646.33l310.23-247.94s-54.71-103.24-132.73-76.62c-78.03,26.61,48.13-332.38-57.03-319.83s-178.35,75.02-151.61-105.22c26.74-180.24-115.75-129.91-152.11-80.99-36.36,48.92-120.97-360.08-231.99-235.6s197.02,410.51,126.74,446.81c-70.28,36.31-80.01,123.52,17.83,216.12,97.84,92.6-87.23,10.21-94.52,75.54-11.68,104.66,97.23,186.98,206.3,248.19,108.03,60.62-74.65,55.69-4.9,123.07,69.74,67.39,163.8-43.53,163.8-43.53Z"/>
          <path class="cls-6" d="M62.66,1637.32s393.1,706.58,424.48,971.44"/>
          <polyline class="cls-6" points="116.82 1864.11 257.17 2011.52 326.16 1827.87"/>
          <polyline class="cls-6" points="163.7 2116.58 354.76 2220.14 532.47 2056.19"/>
          <polyline class="cls-6" points="195.09 2349.67 443.67 2441.58 575 2288.31"/>
        </g>
        <rect class="cls-2" x="575.06" y="363.43" width="71.36" height="2140.82"/>
        <g>
          <path class="cls-14" d="M687.52,2519.1h397.14s21.72-114.8-55.85-142.72c-77.57-27.92,245.11-229.59,155.13-285.44-89.98-55.85-186.16-52.74-52.74-176.85,133.41-124.11-9.31-173.75-68.26-158.23-58.95,15.51,130.31-356.8-34.13-328.88-164.44,27.92-102.39,443.68-179.95,428.16-77.57-15.51-139.62,46.54-121,179.95s-74.51-46.49-121,0c-74.46,74.46-40.78,206.77,6.21,322.67,46.54,114.8-93.08-3.1-80.67,93.08,12.41,96.18,155.13,68.26,155.13,68.26Z"/>
          <path class="cls-6" d="M1022.6,1495.23s-134.06,797.38-274.91,1023.87"/>
          <polyline class="cls-6" points="923.32 1706.21 940.92 1908.98 1109.48 1808.6"/>
          <polyline class="cls-6" points="802.32 1932.7 886.91 2132.88 1128.09 2115.76"/>
          <polyline class="cls-6" points="681.32 2134.38 818.11 2361.37 1016.4 2323.64"/>
        </g>
        <g>
          <path class="cls-4" d="M578.31,20.22L128.14,799.95c-14.41,24.96,3.6,56.17,32.43,56.17h900.35c28.83,0,46.84-31.21,32.43-56.17L643.17,20.22c-14.41-24.96-50.45-24.96-64.86,0Z"/>
          <g>
            <path class="cls-10" d="M664.38,564.42c-5.56,0-11.12-2.12-15.36-6.36-10.21-10.22-23.81-15.84-38.28-15.84s-28.06,5.62-38.28,15.84c-8.48,8.48-22.23,8.48-30.72,0-8.48-8.48-8.48-22.23,0-30.71,18.42-18.42,42.92-28.56,68.99-28.56s50.57,10.14,68.99,28.56c8.48,8.48,8.48,22.23,0,30.71-4.24,4.24-9.8,6.36-15.36,6.36Z"/>
            <path class="cls-10" d="M723.53,505.27c-5.56,0-11.12-2.12-15.36-6.37-26-26.03-60.6-40.36-97.42-40.36s-71.42,14.33-97.42,40.36c-8.48,8.48-22.24,8.49-30.71.01-8.49-8.48-8.49-22.23-.02-30.72,34.21-34.24,79.72-53.1,128.15-53.1s93.94,18.86,128.15,53.1c8.48,8.49,8.47,22.24-.02,30.72-4.24,4.24-9.8,6.35-15.35,6.35Z"/>
            <path class="cls-10" d="M793.8,435c-5.56,0-11.12-2.12-15.36-6.37-44.78-44.8-104.33-69.47-167.69-69.47s-122.92,24.67-167.69,69.47c-8.48,8.48-22.23,8.49-30.71,0-8.48-8.48-8.49-22.23,0-30.71,52.98-53.01,123.44-82.2,198.42-82.2s145.44,29.19,198.42,82.2c8.48,8.48,8.47,22.24,0,30.71-4.24,4.24-9.8,6.36-15.35,6.36Z"/>
          </g>
          <path class="cls-13" d="M585.91,613.07c-3.38,0-6.82-.79-10.03-2.47-10.63-5.55-14.76-18.67-9.21-29.3l148.93-285.44c5.55-10.64,18.67-14.76,29.3-9.21,10.63,5.55,14.76,18.67,9.21,29.3l-148.93,285.44c-3.88,7.43-11.44,11.68-19.27,11.68Z"/>
          <path class="cls-10" d="M311.66,774.97h-19.63l-30.88-64.6-.42.14v64.46h-19.78v-101.02h19.78l30.87,64.53.42-.14v-64.39h19.63v101.02Z"/>
          <path class="cls-10" d="M395.13,738.68c0,11.84-3.21,21.09-9.64,27.76-6.43,6.66-14.99,9.99-25.67,9.99s-19.22-3.33-25.6-9.99c-6.38-6.66-9.57-15.91-9.57-27.76v-28.31c0-11.8,3.19-21.06,9.57-27.79,6.38-6.73,14.89-10.1,25.53-10.1s19.19,3.36,25.67,10.1c6.47,6.73,9.71,15.99,9.71,27.79v28.31ZM375.49,710.16c0-7.24-1.34-12.7-4.02-16.39-2.68-3.69-6.59-5.53-11.73-5.53s-9.07,1.83-11.66,5.5c-2.59,3.66-3.89,9.14-3.89,16.42v28.53c0,7.33,1.32,12.83,3.96,16.49,2.64,3.66,6.52,5.5,11.66,5.5s8.97-1.83,11.66-5.5c2.68-3.66,4.02-9.16,4.02-16.49v-28.53Z"/>
          <path class="cls-10" d="M459.79,774.97h-19.63v-101.02h19.63v101.02Z"/>
          <path class="cls-10" d="M546.87,774.97h-19.63l-30.88-64.6-.42.14v64.46h-19.78v-101.02h19.78l30.87,64.53.42-.14v-64.39h19.63v101.02Z"/>
          <path class="cls-10" d="M619.73,689.7h-22.76v85.28h-19.7v-85.28h-22.62v-15.75h65.08v15.75Z"/>
          <path class="cls-10" d="M682.94,730.63h-33.93v28.59h39.89v15.75h-59.67v-101.02h59.53v15.75h-39.76v25.19h33.93v15.75Z"/>
          <path class="cls-10" d="M718.95,734.8v40.17h-19.71v-100.96h32.96c9.94,0,17.75,2.63,23.42,7.88,5.67,5.25,8.5,12.55,8.5,21.89,0,5.27-1.18,9.82-3.54,13.63-2.36,3.82-5.81,6.86-10.34,9.12,5.18,1.76,8.91,4.67,11.2,8.74,2.29,4.07,3.44,9.16,3.44,15.26v7.15c0,2.78.32,5.75.97,8.92.65,3.17,1.78,5.47,3.4,6.9v1.46h-20.4c-1.62-1.48-2.64-3.89-3.05-7.22-.42-3.33-.62-6.73-.62-10.2v-6.87c0-5.04-1.03-8.95-3.09-11.73-2.06-2.78-5.01-4.16-8.85-4.16h-14.29ZM718.95,719.05h13.18c4.02,0,7.07-1.23,9.16-3.68,2.08-2.45,3.12-5.94,3.12-10.48s-1.04-8.3-3.12-11.03c-2.08-2.73-5.11-4.09-9.09-4.09h-13.25v29.28Z"/>
          <path class="cls-10" d="M850.5,774.97h-19.63l-30.88-64.6-.42.14v64.46h-19.78v-101.02h19.78l30.87,64.53.42-.14v-64.39h19.63v101.02Z"/>
          <path class="cls-10" d="M919.61,730.63h-33.93v28.59h39.89v15.75h-59.67v-101.02h59.53v15.75h-39.76v25.19h33.93v15.75Z"/>
          <path class="cls-10" d="M996.7,689.7h-22.76v85.28h-19.7v-85.28h-22.62v-15.75h65.08v15.75Z"/>
        </g>
        <path class="cls-9" d="M627.16,2374.03c-3.01,0-5.99.12-8.94.34-1.46-15.58-16.97-28.86-23.73-33.91,10.39-1.99,39-8.59,42.23-21.75,1.46-5.96-2.26-12.26-11.08-18.71-12.91-9.49-24.05-12.69-33.14-9.46-8.59,3.04-12.94,10.95-14.74,15.39-.87-1.27-1.77-2.48-2.7-3.63v103.13c.9.53,1.8.96,2.76,1.33,2.39.93,4.87,1.4,7.41,1.4,5.86,0,12.13-2.45,18.68-7.29,5.74-4.28,9.74-8.9,12.07-13.84,3.66-.37,7.38-.59,11.17-.59h19.27v-12.41h-19.27ZM627.81,1624.37c-19.7,0-37.91-5.21-52.74-14.02v14.12c15.42,7.82,33.45,12.32,52.74,12.32h18.62v-12.41h-18.62ZM627.81,1889.71c-19.3,0-37.36,4.53-52.74,12.38v14.06c14.83-8.81,33.04-14.02,52.74-14.02h18.62v-12.41h-18.62ZM627.81,2139.6c-19.7,0-37.91-5.21-52.74-14.02v14.12c15.42,7.82,33.45,12.32,52.74,12.32h18.62v-12.41h-18.62ZM646.02,1402.29c-7.82-11.45-18.15-17.41-28.64-16.51-9.03.78-16.97,6.79-20.26,15.33-3.35,8.69-1.52,18.34,5,26.99-11.73-1.68-20.82,1.89-27.05,7.29v43.22c14.95,8.19,38.6-9.49,45.58-15.2,1.99,8.19,9.31,33.48,25.44,39.71.12.03.22.09.34.12v-101.89c-.16.34-.28.65-.4.93ZM627.81,1338.44c-19.27,0-37.32,4.5-52.74,12.32v14.12c14.83-8.81,33.04-14.02,52.74-14.02,6.36,0,12.57-.5,18.62-1.43v-12.6c-5.99,1.06-12.22,1.61-18.62,1.61Z"/>
        <path class="cls-9" d="M627.41,1675.2c-3.23,13.16-31.83,19.79-42.23,21.75,7.01,5.27,23.42,19.27,23.89,35.56.28,9.18-4.59,17.56-14.46,24.85-6.55,4.87-12.81,7.29-18.68,7.29-.28,0-.59,0-.87-.03v-112.38c2.14-2.14,4.84-4.03,8.13-5.21,9.09-3.2,20.23-.03,33.14,9.46,8.81,6.48,12.53,12.78,11.08,18.71Z"/>
        <path class="cls-1" d="M506.14,2504.25v-87.59c0-44.1,43.06-79.86,96.18-79.86h28.59c53.12,0,96.18-35.75,96.18-79.86v-74.71c0-44.11-43.06-79.86-96.18-79.86h-27.92c-53.12,0-96.18-35.75-96.18-79.86v-90.16c0-44.11,43.06-79.86,96.18-79.86h49.64c53.12,0,96.18-35.75,96.18-79.86v-105.62c0-44.1-43.06-79.86-96.18-79.86h-49.64c-53.12,0-96.18-35.75-96.18-79.86v-126.23c0-44.11,43.06-79.86,96.18-79.86h0c53.12,0,96.18-35.75,96.18-79.86h0"/>
        <path class="cls-3" d="M506.81,1458.21s27.92-54.77,102.39-65.72"/>
        <path class="cls-12" d="M697.07,1237.95s90.52-71.37,22.26-156.25c0,0-96.18,76.67-22.26,156.25Z"/>
        <path class="cls-12" d="M716.69,1612.27s118.65-22.58,106.82-126.15c0,0-126.54,24.73-106.82,126.15Z"/>
        <path class="cls-12" d="M384.37,1792.95s30.99,103.57,147.67,88.4c0,0-33.78-110.43-147.67-88.4Z"/>
        <path class="cls-12" d="M512.31,1365.62s4.97-107.03-111.59-122.89c0,0-4.6,114.32,111.59,122.89Z"/>
        <g>
          <path class="cls-7" d="M581.27,1387.02c-27.92-30.12,15.51-65.72,40.33-24.64,0,0,9.31-35.6,46.54-8.22,37.23,27.38-34.13,38.34-34.13,38.34,0,0,49.64,32.47,12.41,60.05-37.23,27.58-49.64-35.4-49.64-35.4,0,0-34.13,30.12-49.64,13.69-15.51-16.43,0-52.03,34.13-43.81Z"/>
          <ellipse class="cls-5" cx="609.19" cy="1392.49" rx="18.62" ry="16.43"/>
        </g>
        <g>
          <path class="cls-7" d="M503.7,1647.16c-27.92-30.12,15.51-65.72,40.33-24.64,0,0,9.31-35.6,46.54-8.21,37.23,27.38-34.13,38.34-34.13,38.34,0,0,49.64,32.47,12.41,60.05-37.23,27.58-49.64-35.4-49.64-35.4,0,0-34.13,30.12-49.64,13.69-15.51-16.43,0-52.03,34.13-43.81Z"/>
          <ellipse class="cls-5" cx="531.63" cy="1652.63" rx="18.62" ry="16.43"/>
        </g>
      </g>
    </g>
  </g>
</svg>