<?xml version="1.0" encoding="UTF-8"?>
<svg id="Layer_2" data-name="Layer 2" xmlns="http://www.w3.org/2000/svg" viewBox="0 0 348.78 400">
  <defs>
    <style>
      .cls-1 {
        fill: #ed6061;
      }

      .cls-2 {
        fill: #f9cc15;
      }

      .cls-3 {
        fill: #fdfdfd;
      }

      .cls-4 {
        fill: #0e0c0c;
      }

      .cls-5 {
        fill: #d4646b;
      }
    </style>
  </defs>
  <g id="Layer_1-2" data-name="Layer 1">
    <g>
      <path class="cls-3" d="M43.95,79.1c-.62,1.41-.62,2.98-.82,4.47-.67,4.84-.94,10-.82,14.96.73,29.27.77,58.71,1.11,87.99.06,5.21.22,10.87-.01,16.04-.02.43.11.44-.41.41-.84-.05-2.27-.44-3.12-.68-10.06-2.78-15.41-7.96-16.83-18.49-.32-28.2-.55-56.54-.84-84.74-.07-6.66.07-13.32.01-19.98h21.73Z"/>
      <g>
        <path class="cls-4" d="M302.22,262.8c2.6-.05,5.84-.3,8.37-.07,2.05.19,2.73,2.65,1.09,3.82-1.26.9-3.64.44-5.18.52-17.47.92-34.93,1.69-52.43,2.44-.43.02-.75.25-1.08.27-5.08.42-6.24-5.36-1.34-6.5,16.88-.04,33.75-.17,50.58-.49Z"/>
        <g>
          <circle class="cls-2" cx="331.99" cy="365.72" r="11.8"/>
          <circle class="cls-2" cx="49.72" cy="372.25" r="11.8"/>
        </g>
        <g>
          <path class="cls-3" d="M175.9,332.34c13.32-.27,26.64-.03,39.86.49,3.84.15,7.94-.37,11.38,1.66,2.37,1.41,3.4,3.74,3.97,6.35.65,13.87.09,27.9.29,41.84-.47,3.8-.99,7.78-4.82,9.57-3.05,1.43-5.98,1-9.19,1.13-5.39.23-10.88.66-16.28.84-9.87.32-19.77.23-29.61.81-2.08.12-6.68-.25-8.64-.89-3.62-1.17-5.94-4.2-6.43-7.96-.55-4.17-.33-8.8-.54-13.04-.31-6.29-.9-12.71-1.11-18.99-.22-6.77-.95-17.92,6.73-20.73,3.52-1.29,10.43-1.01,14.4-1.09ZM193.28,346.19c-4.3.73-6.63,6.38-4,9.87.78,1.03,2.72,2.1,2.72,3.53,0,.94-1.28,2.34-1.68,3.2-1.92,4.11-2.25,9.72-3.44,14.12.32,1.36.89,2.03,2.27,2.37l11.63-.04c1.84-.63,2.34-1.7,2.08-3.61-1.49-4.09-1.7-9.27-3.74-13.1-.73-1.36-1.58-1.67-1.42-3.49.05-.57.68-1.46,1.1-1.88.25-.25.71-.4,1.09-.82,1.09-1.2,1.52-2.97,1.29-4.56-.56-3.95-3.99-6.24-7.9-5.57Z"/>
          <path class="cls-4" d="M193.28,346.19c3.91-.66,7.34,1.62,7.9,5.57.22,1.59-.21,3.36-1.29,4.56-.37.41-.84.56-1.09.82-.42.42-1.05,1.32-1.1,1.88-.16,1.82.7,2.14,1.42,3.49,2.05,3.83,2.25,9.01,3.74,13.1.26,1.92-.24,2.98-2.08,3.61l-11.63.04c-1.39-.34-1.95-1.01-2.27-2.37,1.18-4.4,1.51-10.01,3.44-14.12.4-.87,1.68-2.26,1.68-3.2,0-1.43-1.94-2.49-2.72-3.53-2.63-3.49-.31-9.13,4-9.87Z"/>
        </g>
      </g>
      <path class="cls-4" d="M196.35,253.77l.55,31.78c5.01.6,9.89,2.02,14.21,4.67,5.99,3.68,11.05,9.81,13.43,16.45,2.05,5.74,2,11.86,2.24,17.86.07,1.67-.09,3.35,0,5.02,5.12,1.51,8.18,5.68,9.16,10.81.76,4,.44,8.87.59,12.99.02.47.28.86.29,1.34.06,1.94-.26,4.45-.02,6.27.03.23.06.41.27.55,1.64.37,3.22.98,4.84,1.41,9.21,2.48,19.3,3.72,28.59,1.15-1.77-2.57-3.18-5.51-3.74-8.62-1.97-10.8,7.01-21.65,18.42-18.15,4.27,1.31,8.05,5.52,8.42,10.05.67,8.13-4.27,13.74-10.58,17.96-.27.18-.47.43-.84.38-.09.08.15.32.27.41.69.51,3.07,1.39,4,1.71,7.4,2.56,16.67,3.19,24.38,1.95,1.77-.29,3.51-.92,5.31-1.08-.46-7.57,4.42-15.12,11.88-17.05,13.29-3.44,24.76,9.34,19.42,22.13-4.22,10.09-17.05,12.93-25.46,6.06-1.75-1.43-2.87-3.3-4.1-5.15-1.63.29-3.24.78-4.88,1.06-12.5,2.14-26.77.73-37.47-6.52-2.03.36-4,1.16-6.04,1.57-7.26,1.46-15.41,1.14-22.69-.27-3.27-.63-6.45-1.72-9.7-2.38.04,1.22-.05,2.46,0,3.68.32,8.26,1.9,19.48-5.98,24.96-6,4.17-17.59,2.75-24.85,2.86-9.89.14-19.93.51-29.88.29-3.31-.07-7.05-.13-10.32-.55-7.44-.96-13.05-4.9-13.72-12.9-.17-1.99-.21-4.27-.27-6.25-.16-5.38.25-10.83-.11-16.19-4.75-2.16-9.92-3.96-15.02-5.08-6.26-1.38-13.13-2.25-19.43-1.09-.54.1-1.23.14-1.01.75.27-.02.48.09.68.26,5.2,4.44,8.26,11.47,5.35,18.13-2.79,6.38-10.43,8.34-16.44,5.2-6.96-3.63-8.55-12.42-5.48-19.25l2.04-3.53c-.43-.04-.75-.25-1.21-.28-5.28-.44-11.1.32-16.24,1.44-6.91,1.5-13.56,3.96-20.03,6.73.41,1.02.81,2.1,1.03,3.18,2.3,11.33-7.58,21.64-19.03,19.3s-16.67-14.44-11.02-24.21c4.99-8.63,16.36-10.5,24.27-4.53.36.27.87,1.14,1.31,1.07,6.09-2.97,12.55-5.3,19.12-6.97,3.84-.98,7.4-1.63,11.33-1.98s7.86-.62,11.95.02c1.24.19,3.91,1.19,4.89,1.08.88-.1,3.84-1.72,5.24-2.11,9.25-2.56,21.71-.37,30.83,2.44,2.28.7,4.45,1.68,6.72,2.38-.05-1.4.07-2.82.01-4.22-.19-4.31-.35-8.7.87-12.96,1.38-4.8,4.59-8.65,9.7-9.45.26-4.94-.32-10.18,0-15.08.91-13.99,11.79-26.28,25.48-29.12.92-.19,1.85-.4,2.79-.34l.81-31.36c-.18-.28-.33-.39-.67-.43-2.29-.32-5.25.26-7.62,0-16.24.6-32.58.56-48.9.81-14.04.22-28.48.65-42.63.84-11.74.15-25,.35-35.28-6.03-5.78-3.59-9.69-8.49-11.52-15.1-1.33-4.82-1.65-9.68-1.42-14.59.15-3.25-.12-6.64-.03-9.91-4.59-.88-9.12-2.3-13.21-4.58-14.26-7.94-13.6-20.68-13.41-35.24,0-.47.29-.87.29-1.34.52-37.32.15-75.01.81-112.46.16-8.76-.55-17.37,2.84-25.69,5.67-13.95,23.07-15.84,36.12-16.85,76.38.23,152.66-.38,229.03-.27,10.4.6,21.3,3.39,27.68,12.25,3.56,4.95,4.77,11.27,5.05,17.22.2,4.2-.19,8.54.01,12.75.28.66.93.33,1.46.44,13.68,2.93,21.8,11.12,22.71,25.38.62,9.81.33,19.77.52,29.63.64,33.01,1.7,66.13,2.2,99.13.21,14.22,1.24,28.68-13.13,36.33-9.78,5.2-22.16,4.59-32.93,4.83-30.3.67-60.69,1.69-90.98,2.2-4.03.07-8.07-.07-12.1-.01ZM311.26,43.24c-.19-1.99-.19-4.13-.56-6.1-3.74-19.87-30.22-16.79-45.23-16.98-53.76-.67-107.55-1.18-161.36-1.63-14.04-.12-28.67-.87-42.63-.27-3.47.15-6.91-.07-10.35.25-7.92.74-20.62,3.52-25.07,10.79-1.8,2.94-3.34,8.49-3.59,11.9-.05.67.06,1.38.01,2.05h288.77ZM262.9,59.81c-.45-.04-.91.02-1.36,0-.63-.03-1.27.01-1.9,0-.18,0-.36,0-.54,0-2.69-.05-5.38.25-8,.28-18.58.26-37.14.35-55.69.81-2.67.07-5.36-.07-8.03-.01-1.08-.02-2.18.02-3.26,0-1.85-.04-3.73-.05-5.58-.01-19.32.39-39.07.73-58.53,1.1-.72.01-1.45,0-2.17,0-10.92.15-21.84.41-32.72.83-7.02.27-12.44.47-19.16,2.71-5.22,1.73-10.01,3.62-13.04,8.42-1.51,2.39-2.45,4.93-2.98,7.75-1.33,7.17-.69,14.85-.55,22.13,0,.18,0,.36,0,.54.26,16.49.74,32.97,1.09,49.44,0,.18,0,.36,0,.54.32,15.44.81,30.9,1.1,46.31.17,8.99-.84,19.55.54,28.25,1.83,11.56,10.77,16.1,21.58,17.27,6.62.72,13.48.04,20.1-.02,64.57-.58,129.12-1.3,193.69-1.9,9.7-.09,19.5.4,29.09-.52,2.23-.21,4.42-.41,6.58-1.02.45-.13,1.01,0,1.15-.62.09.01.18,0,.27,0,1.13.07,2.8-.65,3.88-1.15,1-.46,2.68-1.44,3.45-1.98.93-.65,1.48-1.04,1.91-2.04,1.55-.57,1.09-1.35,1.69-2.13.06-.08.35.01.49-.21,1.05-1.6,1.98-4.66,2.37-6.55.77-3.72.7-7.66.59-11.34-.8-27.24,1.07-54.98-.27-82.04-.82-16.56.42-33.72-.26-50.4-.01-.27,0-.54,0-.81,0-.09,0-.18,0-.27,0-.18,0-.36,0-.54-.14-2.99-.6-6.7-1.76-9.51-.18-.43-1.43-3.08-1.55-3.2-.63-.63-.43-.45-.9-1.14-1.02-1.48-1.97-2.24-3.39-3.27-2.96-2.13-5.47-3.32-8.96-4.35-2.9-.85-4.93-1.13-8-1.37-13.07-1.03-27.08-.23-40.2.02-3.58.07-7.17-.07-10.74-.01ZM43.95,79.1h-21.73c.06,6.65-.08,13.32-.01,19.98.28,28.2.52,56.53.84,84.74,1.42,10.53,6.76,15.71,16.83,18.49.86.24,2.28.63,3.12.68.52.03.39.02.41-.41.23-5.17.07-10.83.01-16.04-.34-29.28-.38-58.72-1.11-87.99-.12-4.96.15-10.12.82-14.96.21-1.5.21-3.07.82-4.47ZM209.66,328.75c-.54-1.53-.19-3.38-.26-5.04-.12-2.64-.27-5.5-.56-8.13-.62-5.48-5.42-10.6-10.58-12.24-9.42-3-19.22,3.53-20.1,13.33-.29,3.27-.1,6.75-.29,10.03-.06.94.06,1.92.01,2.86l31.78-.82ZM175.9,332.34c-3.97.08-10.88-.21-14.4,1.09-7.68,2.82-6.95,13.97-6.73,20.73.21,6.29.8,12.7,1.11,18.99.21,4.24,0,8.87.54,13.04.49,3.76,2.82,6.79,6.43,7.96,1.96.64,6.56,1.01,8.64.89,9.84-.58,19.74-.5,29.61-.81,5.4-.17,10.89-.61,16.28-.84,3.21-.13,6.14.3,9.19-1.13,3.84-1.8,4.35-5.78,4.82-9.57-.2-13.93.36-27.97-.29-41.84-.58-2.61-1.6-4.94-3.97-6.35-3.44-2.04-7.54-1.51-11.38-1.66-13.22-.53-26.54-.76-39.86-.49ZM279.67,342.94c-3.89.56-6.63,5.12-6.98,8.78-.17,1.81.68,4.72,1.48,6.38.26.54,2.14,3.41,2.47,3.51s.56-.07.85-.2c1.31-.61,3.72-2.34,4.84-3.31,3.15-2.73,5.71-6.28,4.97-10.68-.55-3.23-4.67-4.9-7.63-4.48ZM343.8,365.72c0-6.52-5.28-11.8-11.8-11.8s-11.8,5.28-11.8,11.8,5.28,11.8,11.8,11.8,11.8-5.28,11.8-11.8ZM61.52,372.25c0-6.52-5.28-11.8-11.8-11.8s-11.8,5.28-11.8,11.8,5.28,11.8,11.8,11.8,11.8-5.28,11.8-11.8ZM108.14,362.77c-2.81,3.21-4.01,8.52-1.29,12.15,1.93,2.57,6.92,3.63,9.09.97,3.94-4.82-.77-11.58-5.35-13.95-.66-.34-1.09-.47-1.73.09-.19.17-.19.46-.34.61-.09.09-.32.05-.39.13Z"/>
      <g>
        <path class="cls-1" d="M259.64,59.81v.54c.63,0,1.27,0,1.9,0v-.54c.45.02.91-.04,1.36,0,.95.08,2.61.56,3.67.56,15.69,0,31.53-.6,47.28-.3,2.24.54,4.48.7,6.76,1.12.46.08.77.38,1.24-.02,3.49,1.03,6.01,2.22,8.96,4.35-.04.28.18,1.22.31,1.32.12.09.51.03.77.17.09.05,1.53,1.19,1.59,1.27.1.14.04.51.18.76.22.39.9.73,1.09,1.09.27.51.37,1.57.41,2.17l.54-.54c.25,1.08.73,2.11,1.03,3.18.62,2.18,1.05,4.45,1.15,6.74.02.53-.28,1.09.54.95,0,.18,0,.36,0,.54l-.27.14.27.14c0,.27-.01.54,0,.81-.47.23-.27,1.05-.27,1.5-.18,20.06-.51,40.61.28,60.57.6,15.05-.05,30.62-.29,45.64-.14,8.79.66,17.67.27,26.35-.19,4.21.1,8.92-1.48,12.92-.29.73-.81,1.44-1.1,2.16-.57,1.41-.69,1.45-1.62,2.45-.3.33-.28.79-.41,1.09-1.11.41-1.65.91-2.35,1.92l-6.89,3.24c-.09,0-.18.01-.27,0-.8-.09-1.17.12-2.32,0-.9-.09-1.8.29-2.65.59-2.45.88-5.33.94-7.92,1.04-9.73.39-19.54-.16-29.07.27-8.59.39-17.32,0-25.81.27-13.99.46-28.06-.17-41.83.27-6.17.2-12.31-.16-18.47,0s-12.78.21-19.02.27c-24.69.25-49.18.47-73.91.79-7.74.1-15.52,0-23.07.29-4.02.16-8.02-.02-11.75-1.31-1.65-.57-4.68-.92-5.79-2.09-.68-.71-.64-.77-1.81-1.18-.84-.29-.88-.18-1.64-.95-.17-.17-.38-.37-.53-.53-.55-.58-.33-.99-1.71-.75l-.31-1.6-.77-.03c.1-1.48-1.2-1.42-1.79-2.97-3.49-9.15-1.79-23.75-2.02-33.84-.01-.47-.28-.87-.29-1.34-.17-6.84.02-13.72-.25-20.39-.32-7.88-.29-15.73-.55-23.63-.02-.53.28-1.1-.54-.95,0-.18,0-.36,0-.54l.55-3.38c-.84-14.98-.6-30.08-1.09-45.11-.02-.53.28-1.1-.54-.95,0-.18,0-.36,0-.54.76.17.61-.47.55-.96-.66-5.83-.56-13.74.25-19.56.06-.44.43-.58.51-.85.21-.69.15-2.18.38-3.15.46-1.97,1.84-3.3,1.83-5.36,3.03-4.8,7.82-6.69,13.04-8.42,1.83.27,3.64-.82,5.35-1.02.86-.1,1.69-.2,2.66-.34,1.3-.2,2.08-.22,3.31-.49,2.2-.48,6.01-.52,8.37-.6,10.44-.35,20.89-.19,31.25-.53.53-.02,1.1.28.95-.54.72,0,1.45.01,2.17,0,.23.47,1.05.27,1.5.27,10.77.1,21.3-.3,32.04-.55,2.27-.05,4.83-.1,7.09,0,6.94.31,14.25-.2,21.18,0l2.31-.8c1.08.02,2.18-.02,3.26,0,20.88.4,42.15-.06,63.15-.55,2.54-.06,5.08.09,7.62.01.53-.02,1.1.28.95-.54.18,0,.36,0,.54,0ZM148.26,107.9c.47-.23.27-1.05.27-1.5,0-.78.08-1.7.01-2.46-.13-1.5-1.1-3.85-1.09-5.15,0-.36.39-.76.27-1.22l-.79-.02c-.27-1.44-1.54-2.06-1.12-3.78h-.62s-.23-.5-.23-.5c-1.09.03-.6-.26-.91-.86-.28-.56-1.16-.78-1.36-1.09-.15-.23-.11-.59-.26-.82-.1-.15-2.26-1.4-2.8-1.96-.13-.14-.12-.48-.32-.63l-1.08.14c.1-.53-.61-.78-1.1-.95-5.58-1.95-12.61-2.05-18.63-1.77-7.74.36-15.83.44-23.61.57-2.19.04-4.53,0-6.67.4-.48.09-.96,0-.81.68-.15.02-.41.03-.54,0-2.96-.58-5.39,1.37-8.12,2.22l-.07.45-1.31.34.25.5c-1.02.77-2.41,2.4-3.38,3.57-.11.14-.13.35-.15.52l-1.07-.26c.31.53.02,2.36-.34,2.66-.56.46-1.2,2.51-1.51,3.5-.84,2.64-.7,4.64-.85,7.3-.33,5.91-.83,13.99-.29,19.83.07.74.47,1.49.54,2.17.2,1.73-.3,1.5.68,3.12.93,1.53.98,4.27,2.32,5.02s.96.91,1.89,1.9c.31.33,2.17,2,2.45,2.16.74.44.91.26,1.69.87.63.49,1.56.87,2.37.9v1.08c1.32-.28,2.26.29,3.41.54,9.58,2.06,19.72,1.18,29.61,1.35,4.14.07,8.02.34,12.2,0,1.54-.12,2.29-.02,3.68-.81.22-.12.18-.14.54-.27.74.74,2.05-.21,2.86-.27.56-.04,1.11.91.95-.55.03,0,.28-.18.54-.27l1.06.52.07-.46c2.65-1.11,5.99-2.67,7.04-5.48,1.22.27.76-.89,1.12-1.33,2-2.47,2.73-4.42,3.62-7.64,1.35-4.93.68-9.3.39-14.26-.07-1.26.16-2.15.27-3.28.12-1.21-.34-1.87-.54-2.97-.09-.5.36-1.11-.53-.96-.01-.27.02-.55,0-.81ZM260.78,96.97c.2.21,1.42.75,1.77.81,3.51.67,2.32.45,4.83,2.5,4.56,3.72,9.69,3.7,15.09,1.77,2.39-.85,4.63-2.46,6.98-3.34,4.67-1.76,10.56-1.23,15.42-.59,2.49.33,7.14,2.19,7.98-1.55.41-1.84-.63-3.3-2.33-3.82-2.44-.74-5.54-.9-8.07-1.17-4.73-.49-8.82-.71-13.52.62-3.44.97-6.34,3.13-9.72,4.13-.94.28-2.67.75-3.66.71-.44-.02-1.66-.23-2.12-.34-.9-.2-2.84-2.41-3.72-3.07-2.51-1.88-8.89-3.93-9.72.59-.12.67.39,2.3.82,2.74ZM206.88,103.21c.33-.32.77-1.32,1.14-1.71,1.07-1.13,3.57-1.41,5.03-1.21,1.32.18,4.01,2.35,5.38,3.04,2.18,1.09,4.4,1.5,6.78.97,3.27-.73,5.93-3.26,8.97-4.61,4.07-1.81,7.39-2.12,11.72-1.84,2.05.13,4.45-.17,4.76-2.6s-1.41-3.7-3.67-3.92c-5.01-.49-11.4.6-15.96,2.77-1.93.92-5.61,3.87-7.38,4.02-2.43.22-4.42-2.05-6.47-3.06-3.95-1.95-9.08-1.53-12.68,1.02-2.04,1.45-4.32,4.84-2.19,7.06,1.11,1.16,3.43,1.19,4.56.06ZM276.41,118.01c-4.77.57-8.71,3.78-12.96,5.51-8.01,3.26-13.7-2.61-21.34-3.39s-9.84,4.06-16.03,5.41c-.66.14-1.08-.14-1.85.32-2.61,1.55-1.83,5.52,1.33,5.93,5.81.75,10.18-5.65,14.66-5.45,6.7.3,12.67,5.28,19.82,4.63,6.66-.61,12.16-6.34,18.2-6.79,2.66-.2,5.12,1.89,7.48,2.87s4.8,1.48,7.46,1.21c3.91-.39,10.18-4,13.71-2.28.7.34,1.4,1.28,2.1,1.43,1.94.42,3.9-.47,4.16-2.54.27-2.18-1.62-3.63-3.34-4.53-3.03-1.58-7.3-1.21-10.52-.36s-6.77,2.75-10.06,1.65c-1.47-.49-3.22-1.73-4.69-2.38-2.64-1.16-5.24-1.59-8.14-1.24ZM283.82,213.03c-.23-.47-1.05-.27-1.5-.27-3.56-.03-7.36-.1-10.86.28-.25.03-1.11.22-1.32.31-.51.21-.73.92-1.52.79l.03,2.11.44.08c-.05.93.26.65.74,1.03.74.58.04,1.02.13,1.1.54.07.97-.27,1.49-.29.64-.03,1.08.29,1.63.31.63.03,1.06-.27,1.62-.3,2.99-.15,6.07.08,8.96,0,6.34-.19,13.23.31,19.56.57,2.73.11,6.89.26,9.53,0,4.53-.44,3.79-6.79.54-7.08-2.32-.21-5.5-.05-7.9,0-6.39.14-12.89.64-19.28.83-.53.02-1.1-.28-.95.54-.45.02-.91-.02-1.36,0ZM249.8,213.36c-.79-.79-2.54-.97-3.62-.89-11.53.85-23.43.87-35.02,1.38-2.11.09-6.82-.85-6.68,2.3.04.98.78,1.89,1.78,2.03,2.12.29,5.09-.07,7.34,0,10.58.3,21.16.35,31.78.54.48,0,.87.32,1.33.29.55-.04,1.4-.42,2.07-.4,1.38-.68,2.1-2.01,1.88-3.55-.05-.33-.67-1.5-.88-1.7ZM184.87,218.67c.12-.12.79-1.29.83-1.48.36-1.6-.28-3.18-1.78-3.83-1.07-.47-2.56-.39-3.73-.32-10.81.62-21.76.95-32.6,1.36-1.81.07-5.7-.4-7.09.52-.98.64-1.21,2.26-.41,3.15,1.03,1.13,4.28.59,5.86.66,11.45.5,23.08.11,34.5.82,1.3.08,3.44.11,4.41-.87ZM119.47,214.11c.15-.67-.33-.59-.81-.68-1.24-.23-2.93-.2-4.23-.15-4.94.21-10.57.81-15.48.57-.71-.04-1.3-.49-2.12-.24-2.86.88-5.68.39-8.74.49-2.56.08-5.29.41-7.86.57-1.92.12-4.47-.48-5.82,1.25-.31,2.39.02,3.61,2.55,3.89,4.28.48,9.67-.15,14.13,0,.47.02.86.28,1.34.29,3.95.14,7.76-.2,11.7-.02,4.3.19,8.66.1,13.04.27.43.02.78.28,1.08.28.13,0,2.16-1.05,2.25-1.14.08-.07.79-1.33.82-1.49.32-1.44.02-3.48-1.58-3.89-.08-.02-.19.02-.27,0Z"/>
        <path class="cls-5" d="M50.47,154.35c.82-.15.53.42.54.95.26,7.89.23,15.75.55,23.63.27,6.68.08,13.55.25,20.39.01.47.28.87.29,1.34.23,10.09-1.47,24.69,2.02,33.84.59,1.55,1.88,1.49,1.79,2.97l.77.03.31,1.6c1.37-.24,1.15.17,1.71.75.16.16.36.36.53.53.76.77.8.65,1.64.95,1.17.4,1.13.46,1.81,1.18,1.12,1.17,4.15,1.52,5.79,2.09,3.73,1.29,7.73,1.47,11.75,1.31,7.55-.3,15.33-.19,23.07-.29,24.73-.32,49.22-.55,73.91-.79,6.24-.06,12.6-.1,19.02-.27s12.3.2,18.47,0c13.77-.44,27.85.19,41.83-.27,8.49-.28,17.22.12,25.81-.27,9.53-.43,19.34.12,29.07-.27,2.6-.1,5.47-.16,7.92-1.04.85-.3,1.75-.68,2.65-.59,1.15.11,1.52-.1,2.32,0-.14.62-.71.49-1.15.62-2.17.62-4.35.81-6.58,1.02-9.58.92-19.39.43-29.09.52-64.57.61-129.12,1.32-193.69,1.9-6.62.06-13.48.73-20.1.02-10.81-1.17-19.74-5.71-21.58-17.27-1.38-8.7-.37-19.26-.54-28.25-.29-15.4-.78-30.87-1.1-46.31Z"/>
        <path class="cls-5" d="M338.42,84.26c.68,16.68-.56,33.84.26,50.4,1.34,27.06-.53,54.8.27,82.04.11,3.68.18,7.62-.59,11.34-.39,1.89-1.33,4.95-2.37,6.55-.15.23-.43.13-.49.21-.6.77-.14,1.55-1.69,2.13-.43,1-.98,1.39-1.91,2.04-.77.54-2.44,1.51-3.45,1.98-1.08.5-2.75,1.22-3.88,1.15l6.89-3.24c.7-1.01,1.24-1.51,2.35-1.92.13-.31.1-.77.41-1.09.93-1,1.05-1.03,1.62-2.45.29-.72.81-1.43,1.1-2.16,1.58-4,1.29-8.71,1.48-12.92.39-8.68-.42-17.56-.27-26.35.25-15.02.89-30.59.29-45.64-.79-19.95-.47-40.5-.28-60.57,0-.45-.2-1.26.27-1.5Z"/>
        <path class="cls-5" d="M184.12,60.9l-2.31.8c-6.93-.2-14.24.31-21.18,0-2.26-.1-4.81-.05-7.09,0-10.75.25-21.27.65-32.04.55-.45,0-1.26.2-1.5-.27,19.46-.36,39.21-.71,58.53-1.1,1.85-.04,3.74-.03,5.58.01Z"/>
        <path class="cls-5" d="M259.1,59.81c.15.82-.42.53-.95.54-2.53.08-5.08-.07-7.62-.01-21,.49-42.26.96-63.15.55,2.67-.06,5.35.08,8.03.01,18.55-.47,37.1-.55,55.69-.81,2.62-.04,5.31-.33,8-.28Z"/>
        <path class="cls-5" d="M321.85,61.17c-.47.4-.78.1-1.24.02-2.28-.41-4.52-.57-6.76-1.12-15.74-.3-31.59.3-47.28.3-1.06,0-2.71-.48-3.67-.56,3.57-.06,7.16.08,10.74.01,13.12-.25,27.13-1.05,40.2-.02,3.08.24,5.11.51,8,1.37Z"/>
        <path class="cls-5" d="M117.84,61.99c.15.82-.42.53-.95.54-10.37.34-20.82.18-31.25.53-2.36.08-6.17.12-8.37.6-1.23.27-2.01.29-3.31.49-.97.15-1.8.24-2.66.34-1.71.2-3.52,1.29-5.35,1.02,6.72-2.23,12.14-2.44,19.16-2.71,10.89-.42,21.8-.68,32.72-.83Z"/>
        <path class="cls-5" d="M49.38,104.36c.82-.15.53.42.54.95.5,15.03.26,30.14,1.09,45.11l-.55,3.38c-.34-16.47-.83-32.96-1.09-49.44Z"/>
        <path class="cls-5" d="M52.91,73.94c0,2.06-1.38,3.4-1.83,5.36-.23.97-.17,2.46-.38,3.15-.08.27-.45.41-.51.85-.82,5.81-.91,13.73-.25,19.56.06.49.21,1.13-.55.96-.14-7.28-.78-14.96.55-22.13.52-2.83,1.47-5.36,2.98-7.75Z"/>
        <path class="cls-5" d="M330.82,65.52c1.42,1.02,2.37,1.78,3.39,3.27.47.69.26.51.9,1.14.13.13,1.38,2.77,1.55,3.2,1.17,2.81,1.62,6.52,1.76,9.51-.83.15-.52-.42-.54-.95-.1-2.29-.53-4.55-1.15-6.74-.3-1.07-.78-2.1-1.03-3.18l-.54.54c-.03-.61-.14-1.66-.41-2.17-.19-.36-.87-.7-1.09-1.09-.14-.25-.08-.62-.18-.76-.06-.08-1.5-1.22-1.59-1.27-.26-.15-.65-.08-.77-.17-.13-.1-.35-1.04-.31-1.32Z"/>
        <path class="cls-5" d="M261.54,59.81v.54c-.63,0-1.27,0-1.9,0v-.54c.63.01,1.27-.03,1.9,0Z"/>
        <path class="cls-5" d="M338.42,83.45l-.27-.14.27-.14c0,.09,0,.18,0,.27Z"/>
        <path class="cls-4" d="M276.41,118.01c2.9-.35,5.5.08,8.14,1.24,1.47.64,3.22,1.89,4.69,2.38,3.29,1.1,6.9-.82,10.06-1.65s7.49-1.22,10.52.36c1.72.9,3.61,2.35,3.34,4.53s-2.21,2.97-4.16,2.54c-.7-.15-1.4-1.09-2.1-1.43-3.54-1.71-9.8,1.89-13.71,2.28-2.66.27-5.03-.21-7.46-1.21s-4.82-3.07-7.48-2.87c-6.04.46-11.54,6.19-18.2,6.79-7.15.65-13.12-4.32-19.82-4.63-4.48-.2-8.86,6.2-14.66,5.45-3.16-.41-3.94-4.38-1.33-5.93.77-.46,1.2-.18,1.85-.32,6.19-1.35,8.15-6.21,16.03-5.41s13.33,6.65,21.34,3.39c4.26-1.73,8.19-4.94,12.96-5.51Z"/>
        <path class="cls-4" d="M260.78,96.97c-.43-.45-.94-2.08-.82-2.74.83-4.52,7.21-2.47,9.72-.59.88.66,2.82,2.87,3.72,3.07.46.1,1.68.32,2.12.34.99.05,2.72-.43,3.66-.71,3.38-1,6.28-3.16,9.72-4.13,4.71-1.33,8.79-1.11,13.52-.62,2.53.26,5.63.43,8.07,1.17,1.71.52,2.74,1.98,2.33,3.82-.84,3.74-5.49,1.87-7.98,1.55-4.86-.64-10.74-1.16-15.42.59-2.35.88-4.59,2.49-6.98,3.34-5.4,1.93-10.53,1.95-15.09-1.77-2.51-2.05-1.32-1.83-4.83-2.5-.34-.07-1.57-.61-1.77-.81Z"/>
        <path class="cls-4" d="M206.88,103.21c-1.13,1.12-3.46,1.09-4.56-.06-2.13-2.23.15-5.62,2.19-7.06,3.6-2.54,8.73-2.97,12.68-1.02,2.05,1.01,4.05,3.27,6.47,3.06,1.77-.16,5.45-3.11,7.38-4.02,4.55-2.16,10.95-3.26,15.96-2.77,2.26.22,3.98,1.46,3.67,3.92s-2.71,2.73-4.76,2.6c-4.33-.28-7.65.03-11.72,1.84-3.04,1.35-5.7,3.89-8.97,4.61-2.39.53-4.6.12-6.78-.97-1.37-.69-4.07-2.86-5.38-3.04-1.47-.2-3.96.08-5.03,1.21-.37.39-.81,1.39-1.14,1.71Z"/>
        <path class="cls-4" d="M184.87,218.67c-.97.98-3.11.95-4.41.87-11.41-.71-23.05-.31-34.5-.82-1.58-.07-4.84.47-5.86-.66-.8-.89-.57-2.5.41-3.15,1.39-.92,5.28-.45,7.09-.52,10.84-.41,21.78-.74,32.6-1.36,1.18-.07,2.66-.15,3.73.32,1.5.65,2.14,2.23,1.78,3.83-.04.19-.71,1.35-.83,1.48Z"/>
        <path class="cls-4" d="M249.8,213.36c.21.21.83,1.38.88,1.7.22,1.53-.51,2.86-1.88,3.55-.67-.02-1.52.36-2.07.4-.46.03-.85-.28-1.33-.29-10.62-.19-21.2-.24-31.78-.54-2.26-.06-5.23.3-7.34,0-1.01-.14-1.74-1.05-1.78-2.03-.14-3.16,4.57-2.21,6.68-2.3,11.59-.51,23.49-.53,35.02-1.38,1.07-.08,2.83.1,3.62.89Z"/>
        <path class="cls-4" d="M285.18,213.03c8.65-.3,17.26-.63,25.95-.8.42,0,.76-.27,1.08-.27.83,0,2.22.63,2.71,1.36.23.33.68,1.41.68,1.76,0,.26-.7,2.09-.87,2.25-.3.31-1.49.84-1.97.88-3.45.32-8.13.05-11.7,0-5.7-.08-11.66-.47-17.36-.57-4.15-.07-8.31.11-12.46-.03-1.44-.39-2.33-1.83-1.39-3.2.53-.78,1.51-1.03,2.42-1.11,3.55-.31,7.9-.14,11.56-.26.45-.02.91.02,1.36,0Z"/>
        <path class="cls-4" d="M119.47,214.11c.09.02.19-.02.27,0,.03.77.87,1.05,1.04,1.81.37,1.69-.39,3.37-2.04,3.85-5.15.03-10.3.12-15.45.06-6.34-.07-12.92-.39-19.26-.57-2.26-.06-5.23.3-7.34,0-1.65-.23-2.22-1.96-1.51-3.36,1.12-1.09,2.51-.62,3.94-.72,10.44-.76,21.02-.79,31.53-1.07.47-.01.87-.28,1.34-.29,2.27-.06,5.34-.2,7.48.28Z"/>
        <path class="cls-5" d="M285.18,213.03c-.15-.82.42-.53.95-.54,6.39-.19,12.89-.69,19.28-.83,2.4-.05,5.58-.21,7.9,0,3.25.29,3.99,6.64-.54,7.08-2.64.26-6.8.11-9.53,0-6.33-.26-13.22-.75-19.56-.57-2.89.08-5.98-.15-8.96,0-.56.03-1,.33-1.62.3-.55-.03-1-.34-1.63-.31-.53.02-.95.37-1.49.29-.09-.08.61-.52-.13-1.1-.47-.37-.78-.1-.74-1.03l-.44-.08-.03-2.11c.78.13,1-.58,1.52-.79.21-.09,1.07-.28,1.32-.31,3.5-.38,7.3-.31,10.86-.28.45,0,1.26-.2,1.5.27-3.66.13-8.01-.05-11.56.26-.91.08-1.89.32-2.42,1.11-.94,1.38-.05,2.82,1.39,3.2,4.15.15,8.31-.04,12.46.03,5.7.1,11.66.48,17.36.57,3.57.05,8.26.32,11.7,0,.48-.04,1.67-.57,1.97-.88.16-.17.87-1.99.87-2.25,0-.35-.46-1.42-.68-1.76-.49-.72-1.88-1.36-2.71-1.36-.31,0-.65.27-1.08.27-8.69.17-17.31.5-25.95.8Z"/>
        <path class="cls-5" d="M119.74,214.11c1.6.41,1.91,2.45,1.58,3.89-.03.15-.74,1.41-.82,1.49-.09.09-2.12,1.14-2.25,1.14-.3,0-.65-.27-1.08-.28-4.38-.17-8.74-.08-13.04-.27-3.94-.18-7.75.16-11.7.02-.47-.02-.86-.28-1.34-.29-4.46-.15-9.85.48-14.13,0-2.54-.29-2.86-1.5-2.55-3.89,1.35-1.73,3.89-1.13,5.82-1.25,2.56-.15,5.29-.49,7.86-.57,3.06-.1,5.89.39,8.74-.49.82-.25,1.41.21,2.12.24,4.91.24,10.55-.35,15.48-.57,1.3-.06,2.98-.09,4.23.15.48.09.96,0,.81.68-2.14-.49-5.21-.34-7.48-.28-.47.01-.87.28-1.34.29-10.51.27-21.09.31-31.53,1.07-1.43.1-2.83-.37-3.94.72-.71,1.4-.14,3.13,1.51,3.36,2.12.29,5.09-.07,7.34,0,6.34.18,12.92.49,19.26.57,5.15.06,10.3-.03,15.45-.06,1.65-.47,2.41-2.16,2.04-3.85-.17-.76-1.01-1.04-1.04-1.81Z"/>
        <path class="cls-5" d="M86.87,86.98c-3.31.62-6.51,1.89-9.1,4.07-.62.52-2.05,1.74-2.52,2.23-.26.27-2.36,4-2.63,4.57-1.32,2.84-1.54,6.3-2.05,9.35.85,10.39-2.59,22.53,4.23,31.38.36.47.94.64,1.37,1.08.25.26.38.73.44.78.15.11.52.03.76.18.77.51,1.52,1.22,2.36,1.72,4.59,2.75,9.96,3.37,15.16,3.86,11.16-.45,22.63.68,33.71-.27.76-.07,1.54.02,2.3,0-1.39.79-2.14.68-3.68.81-4.19.34-8.07.07-12.2,0-9.89-.18-20.03.71-29.61-1.35-1.15-.25-2.09-.81-3.4-.54v-1.08c-.82-.04-1.75-.41-2.38-.9-.78-.61-.95-.44-1.69-.87-.28-.17-2.15-1.84-2.45-2.16-.93-.99-.55-1.16-1.89-1.9s-1.4-3.49-2.32-5.02c-.98-1.62-.49-1.39-.68-3.12-.08-.68-.48-1.44-.54-2.17-.54-5.84-.04-13.92.29-19.83.15-2.65.01-4.66.85-7.3.31-.99.96-3.03,1.51-3.5.37-.31.66-2.13.34-2.66l1.07.26c.02-.18.04-.39.15-.52.96-1.17,2.35-2.79,3.38-3.57l-.25-.5,1.31-.34.07-.45c2.73-.85,5.16-2.8,8.12-2.22Z"/>
        <path class="cls-5" d="M87.41,86.98c-.15-.67.33-.59.81-.68,2.14-.4,4.48-.36,6.67-.4,7.78-.13,15.87-.2,23.61-.57,6.01-.28,13.04-.18,18.63,1.77.48.17,1.2.41,1.1.95l1.08-.14c.19.15.18.5.32.63.54.56,2.7,1.81,2.8,1.96.15.23.11.59.26.82.21.31,1.08.53,1.36,1.09.31.6-.18.89.91.86l.23.5h.62c-.42,1.72.84,2.33,1.12,3.77l.79.02c.13.46-.26.86-.27,1.22,0,1.3.96,3.65,1.09,5.15.06.76,0,1.67-.01,2.46,0,.45.2,1.26-.27,1.5-.28-4.65-.75-9.34-3.3-13.4-1-1.59-2.23-2.58-3.5-3.84-.18-.18-.2-.52-.31-.63-.47-.45-4.49-2.41-5.3-2.71-5.79-2.13-15.37-1.56-21.68-1.43-.47,0-.87.28-1.34.29-8.47.19-17.01-.1-25.41.8Z"/>
        <path class="cls-5" d="M148.26,108.71c.9-.15.44.46.53.96.21,1.11.66,1.77.54,2.97-.11,1.13-.35,2.02-.27,3.28.29,4.96.97,9.33-.39,14.26-.88,3.22-1.61,5.17-3.62,7.64-.36.45.1,1.6-1.12,1.33-1.06,2.81-4.4,4.36-7.04,5.48l-.07.46-1.06-.52c6.9-2.57,11.48-8.41,12.75-15.64,1.1-6.22.09-13.86-.26-20.22Z"/>
        <path class="cls-5" d="M135.22,144.84c.16,1.46-.39.51-.95.55-.8.05-2.12,1.01-2.86.27,1.2-.42,2.73-.48,3.8-.81Z"/>
        <g>
          <path class="cls-4" d="M87.41,86.98c8.4-.9,16.94-.61,25.41-.8.47-.01.87-.28,1.34-.29,6.31-.13,15.89-.7,21.68,1.43.82.3,4.83,2.26,5.3,2.71.11.11.13.44.31.63,1.26,1.27,2.5,2.25,3.5,3.84,2.55,4.07,3.02,8.76,3.3,13.4.02.27-.01.54,0,.81.34,6.37,1.35,14.01.26,20.22-1.28,7.23-5.85,13.07-12.75,15.64-.26.1-.51.26-.54.27-1.07.33-2.6.4-3.8.81-.36.13-.33.15-.54.27-.76.03-1.54-.06-2.3,0-11.07.95-22.55-.17-33.71.27-5.19-.49-10.57-1.1-15.16-3.86-.84-.5-1.59-1.21-2.36-1.72-.24-.16-.61-.07-.76-.18-.07-.05-.19-.52-.44-.78-.43-.44-1-.61-1.37-1.08-6.82-8.85-3.38-20.99-4.23-31.38.51-3.06.74-6.52,2.05-9.35.26-.57,2.37-4.3,2.63-4.57.47-.49,1.9-1.71,2.52-2.23,2.6-2.18,5.8-3.45,9.1-4.07.14.03.39.02.54,0ZM90.6,90.57c-5.3.55-9.9,2.43-12.65,7.18-3.32,5.75-2.24,11.68-1.93,17.87.24,4.8-.2,10.63,1.75,15.09,3.54,8.1,14.58,7.54,22.02,7.34,5.56-.15,11.25-.62,16.82-.84,4.59-.18,9.26.09,13.8-.87,13.16-2.78,9.88-17.67,10.24-27.79.1-2.85.34-4.56-.33-7.53-2.47-10.96-15.27-9.96-23.99-10.24-8.53-.28-17.15-.43-25.73-.22Z"/>
          <path class="cls-3" d="M90.6,90.57c8.58-.21,17.21-.06,25.73.22,8.71.29,21.51-.72,23.99,10.24.67,2.97.43,4.67.33,7.53-.36,10.12,2.92,25-10.24,27.79-4.54.96-9.21.69-13.8.87-5.57.22-11.26.69-16.82.84-7.43.2-18.47.75-22.02-7.34-1.95-4.46-1.51-10.29-1.75-15.09-.31-6.19-1.39-12.13,1.93-17.87,2.74-4.75,7.35-6.63,12.65-7.18Z"/>
        </g>
      </g>
      <g>
        <path class="cls-4" d="M37.35.11c1.36-.13,3.3-.4,4.02,1.02.57,1.11-.06,2.21-.95,2.86-16.32,1.56-30.43,13.41-33.63,29.66-1.52,7.74-.58,15.04-.34,22.77.01.46.32.82.25,1.29-.36,2.35-2.9,3.68-4.95,2.33s-1.41-4.18-1.52-6.36C-.4,41.96-.08,31.05,5.96,20.6,12.15,9.89,24.93,1.28,37.35.11Z"/>
        <path class="cls-3" d="M311.26,43.24H22.49c.04-.67-.06-1.38-.01-2.05.25-3.41,1.79-8.96,3.59-11.9,4.45-7.27,17.15-10.04,25.07-10.79,3.44-.32,6.87-.1,10.35-.25,13.95-.6,28.59.15,42.63.27,53.82.45,107.61.96,161.36,1.63,15.01.19,41.49-2.88,45.23,16.98.37,1.97.37,4.11.56,6.1Z"/>
      </g>
    </g>
  </g>
</svg>