<svg width="211" height="38" viewBox="0 0 211 38" fill="none" xmlns="http://www.w3.org/2000/svg">
<g clip-path="url(#clip0_377_429)">
<path d="M151.9 35.7L152 34.1H155.6L155.9 29.4H152.6L152.7 27.8H157.6L157.2 34.1H157.8L157.7 35.7H151.9ZM144.1 34.1C144 35 143.3 35.7 142.4 35.7H140.5L140.6 34.1H142.5L142.8 29.4H141.7L141.8 27.8H144.5L144.1 34.1ZM133.2 33.3C133.1 34.6 132 35.7 130.7 35.7H130L130.1 34.1H130.8C131.2 34.1 131.6 33.8 131.6 33.3L131.9 29.4H128L128.1 27.8H133.6L133.2 33.3ZM127.9 30.8H129.5L129 37.2H127.4L127.9 30.8ZM117.7 35.7L115.9 32L115.2 32.6L115 35.7H113.4L113.7 31.8L115.3 30.5L114 27.8H115.8L117.6 31.5L118.2 31L118.4 27.7H120L119.7 31.7L118.3 32.8L119.6 35.5H117.7V35.7ZM103.8 35.7L104.2 29.4H103.1L103.2 27.8H105.9L105.4 35.7H103.8ZM93.3 35.7L93.7 29.4H91.7L91.3 35.7H88.9L89 34.1H89.8L90.1 29.4H89.5L89.6 27.8H95.4L94.9 35.7H93.3ZM69.4 35.7L69.5 34.1H70.6L70.9 29.4H68.4L68 35.7H66.4L66.8 29.4H66.2L66.3 27.8H68.5L68.4 28.6L69.9 27.8H72.5L72 35.7H69.4ZM57.7 33C57.3 34.8 55.6 35.7 54.5 35.7H51.8L51.2 27.8H52.8L53.1 32L54 27.8H55.7L54.7 32.1H53.1L53.3 34.1H54.7C55.4 34.1 56.1 33.5 56.2 33L57.4 27.8H59L57.7 33ZM43.3 32.9C43.2 34.2 41.8 35.6 40.5 35.6H39.7L39.8 34H40.5C40.9 34 41.6 33.3 41.6 32.9L41.9 29.3H38.3L38.5 26.2H40.1L40 27.8H43.6L43.3 32.9ZM28.9 32.1L29.1 29.4H28L28.1 27.8H30.8L30.5 32.1H28.9ZM17.3 35.7L17.4 34.1H18.5L18.8 29.4H16.3L15.9 35.7H14.3L14.7 29.4H14.1L14.2 27.8H16.4L16.3 28.6L17.8 27.8H20.4L19.9 35.7H17.3ZM4.3 35.7L4.7 29.4H0.5L0.600002 27.8H6.4L5.9 35.7H4.3ZM0.299999 31.3H1.9L1.6 35.6H0L0.299999 31.3Z" fill="white"/>
<path d="M18.5008 10.2C18.6008 7.9 18.1008 6.3 17.1008 5.3C16.1008 4.4 14.4008 3.9 12.0008 3.9H2.80078C2.20078 3.9 1.80078 4.2 1.80078 4.8L0.800781 18.9C0.800781 19.5 1.00078 19.8 1.50078 19.8H16.6008C17.0008 19.8 17.3008 19.7 17.4008 19.6C17.5008 19.5 17.6008 19.2 17.6008 18.8L18.5008 10.2ZM6.20078 17.1L7.00078 6.7H10.6008C11.7008 6.7 12.4008 6.9 12.9008 7.4C13.4008 7.8 13.6008 8.6 13.5008 9.7L12.8008 17.1H6.20078ZM25.8008 4H20.7008L20.2008 12.8C22.3008 12.8 24.0008 12.4 25.4008 11.7L25.8008 4ZM40.7008 4H32.7008V0.5H27.6008L27.5008 5.9C27.5008 6.5 27.7008 6.7 28.2008 6.7H36.6008C37.0008 6.7 37.2008 7 37.1008 7.5L35.9008 13.9C35.7008 15.1 35.3008 16 34.7008 16.5C34.1008 17 33.2008 17.2 31.8008 17.2H30.7008C30.0008 18.1 29.6008 19 29.4008 19.9H32.4008C37.4008 19.9 40.3008 17.7 41.1008 13.2L42.4008 6.2C42.8008 4.7 42.2008 4 40.7008 4ZM58.8008 4H53.9008L53.5008 16.3C55.1008 16.3 56.3008 16.2 57.3008 15.8C58.1008 15.5 58.4008 13.8 58.4008 13.1L58.8008 4ZM62.9008 4L61.8008 12.8C61.6008 14.8 60.7008 16.1 59.3008 16.6C58.4008 17 57.0008 17.2 55.2008 17.2H50.6008L50.0008 4H44.7008L45.8008 19.1C45.8008 19.7 46.1008 20 46.6008 20H55.1008C58.6008 20 61.1008 19.7 62.6008 19C65.0008 18 66.4008 15.7 66.8008 12.3L67.9008 4H62.9008ZM76.1008 4H71.0008L70.3008 20H75.4008L76.1008 4ZM92.3008 10.4C92.4008 8.2 91.9008 6.6 90.9008 5.5C89.9008 4.5 88.2008 4 86.0008 4H78.2008C78.3008 5.3 78.7008 6.2 79.2008 6.8H83.6008C85.0008 6.8 86.0008 7.1 86.5008 7.6C87.0008 8.2 87.2008 9.1 87.2008 10.4L86.8008 19.9H91.9008L92.3008 10.4ZM100.501 4H95.4008L94.9008 12.8C97.0008 12.8 98.7008 12.4 100.101 11.7L100.501 4ZM129.001 5.7C129.101 4.5 128.401 3.9 127.201 3.9H110.301C110.401 5 110.801 5.9 111.401 6.6H122.901C123.401 6.6 123.601 6.9 123.501 7.4L122.301 14.5C122.001 16.3 121.001 17.1 119.401 17.1H119.001C118.501 17.9 118.101 18.8 117.901 19.8H119.401C121.901 19.8 123.801 19.2 125.101 18.1C126.401 17 127.301 15.3 127.701 13L129.001 6V5.7ZM116.601 9.6C114.101 9.8 112.401 10.1 111.501 10.7L110.701 23H115.801L116.601 9.6ZM140.701 9.4C140.801 7.5 140.401 6.1 139.501 5.2C138.601 4.4 137.101 3.9 135.001 3.9H131.301C131.201 5.1 131.501 6.1 132.001 6.7H133.301C135.001 6.7 135.801 7.6 135.701 9.3L135.401 17.1H131.201C130.601 17.8 130.201 18.7 130.001 19.9H139.601C140.101 19.9 140.401 19.6 140.401 19L140.701 9.4ZM156.401 17.1C156.101 17.1 156.101 17 156.401 16.9C157.701 16.2 158.301 14.8 158.401 13L158.601 9.4C158.801 5.8 157.001 4 153.201 4H143.701C143.901 5.5 144.301 6.4 144.701 6.8H150.101C151.401 6.8 152.201 7 152.801 7.5C153.301 8 153.501 8.8 153.501 9.9L153.301 14.5C153.301 15.5 153.001 16.2 152.501 16.6C152.001 17 151.301 17.2 150.301 17.2H144.101C143.401 17.8 142.901 18.7 142.601 20H158.501C159.201 19.3 159.701 18.4 160.001 17.2H156.401V17.1Z" fill="white"/>
<path d="M210.201 17.3C210.201 17.7 210.301 18.2 210.301 18.7V18.9C207.701 17.4 204.701 16.5 202.201 16.5C200.401 16.5 198.801 17 197.601 18C196.401 19.1 195.601 20.7 195.501 23.3V36.1C195.101 36.2 194.601 36.2 194.201 36.3V23C194.401 20.3 195.301 18.4 196.701 17.1C198.201 15.7 200.201 15.2 202.301 15.2C204.801 15.1 207.601 16 210.201 17.3ZM210.101 15.9C207.601 14.7 204.801 14 202.301 14C199.901 14 197.701 14.6 196.001 16C194.301 17.4 193.201 19.5 192.801 22.8V36.3H192.401H191.401V22.8C191.701 19.2 193.101 16.7 195.001 15C197.001 13.4 199.501 12.7 202.201 12.7C204.701 12.7 207.301 13.3 209.701 14.3C209.901 14.8 210.001 15.3 210.101 15.9ZM209.201 12.5C207.001 11.7 204.701 11.3 202.501 11.3C199.301 11.3 196.301 12.2 194.101 14C191.901 15.8 190.401 18.7 190.201 22.9V36.2C189.701 36.1 189.201 36.1 188.701 35.9V23.7L188.801 22.2C189.201 18 190.801 15 193.101 13C195.701 10.8 199.001 9.9 202.501 9.9C204.501 9.9 206.501 10.2 208.501 10.8C208.701 11.4 209.001 11.9 209.201 12.5ZM207.601 9.3C206.201 9 204.501 8.8 202.701 8.8C198.601 8.8 194.201 9.8 192.101 12.5C191.801 12.2 191.401 11.8 191.101 11.6C193.701 8.5 198.401 7.5 202.701 7.4C204.001 7.4 205.301 7.5 206.501 7.7C206.901 8.2 207.301 8.7 207.601 9.3ZM205.401 6.4C204.401 6.3 203.401 6.2 202.301 6.2C197.901 6.2 193.001 7.4 189.901 10.8C189.501 10.6 189.001 10.4 188.501 10.2C192.001 6.2 197.501 4.8 202.201 4.8C202.701 4.8 203.201 4.8 203.701 4.9C204.301 5.4 204.901 5.9 205.401 6.4ZM201.801 3.5C197.101 3.6 190.701 5.1 187.001 9.8L185.501 9.5C189.001 4.8 194.701 2.8 199.601 2.3C200.401 2.7 201.101 3.1 201.801 3.5ZM190.701 4C190.201 4.3 189.601 4.6 189.101 4.9C186.801 4.2 184.501 4 182.501 4H182.401C183.101 3.5 183.801 3.1 184.501 2.8C186.501 2.9 188.601 3.3 190.701 4ZM180.601 5.3C181.201 5.3 181.801 5.2 182.401 5.2C184.101 5.2 185.901 5.4 187.701 5.8C187.301 6.1 186.801 6.5 186.401 6.9C185.101 6.7 183.701 6.5 182.401 6.5C181.201 6.5 180.101 6.6 179.101 6.8L180.601 5.3ZM178.101 8.2C179.301 8 180.601 7.9 181.901 7.9C183.101 7.9 184.301 8 185.501 8.2C185.201 8.6 184.901 9 184.601 9.4C183.701 9.3 182.801 9.2 181.901 9.3C180.201 9.3 178.501 9.5 177.101 9.8C177.401 9.2 177.701 8.7 178.101 8.2ZM176.101 11.6C178.101 11 180.201 10.7 182.301 10.7C185.501 10.7 188.601 11.5 191.101 13.3C190.801 13.6 190.501 14 190.201 14.3C188.001 12.7 185.301 12 182.301 12C180.001 12 177.701 12.4 175.501 13.2C175.701 12.6 175.901 12.1 176.101 11.6ZM175.001 14.9C177.401 13.9 180.001 13.3 182.501 13.3C185.001 13.3 187.501 13.9 189.401 15.4C189.201 15.8 189.001 16.2 188.801 16.7C187.101 15.3 185.001 14.7 182.601 14.7C180.101 14.7 177.301 15.4 174.901 16.5C174.801 15.9 174.901 15.4 175.001 14.9ZM174.701 17.9C177.301 16.6 180.001 15.8 182.601 15.8C184.701 15.8 186.701 16.4 188.201 17.7L188.401 17.9C188.201 18.4 188.101 19 188.001 19.5C187.801 19.2 187.501 18.9 187.201 18.6C186.001 17.5 184.501 17.1 182.601 17.1C180.101 17.1 177.301 18 174.701 19.4V18.6C174.601 18.4 174.701 18.1 174.701 17.9ZM211.001 18.6C211.001 8.3 202.701 0 192.401 0C182.101 0 173.801 8.3 173.801 18.6C173.801 28.9 182.101 37.2 192.401 37.2C202.701 37.2 211.001 28.9 211.001 18.6Z" fill="white"/>
</g>
<defs>
<clipPath id="clip0_377_429">
<rect width="211" height="37.2" fill="white"/>
</clipPath>
</defs>
</svg>
