<svg width="111" height="40" viewBox="0 0 111 40" fill="none" xmlns="http://www.w3.org/2000/svg">
<g clip-path="url(#clip0_378_447)">
<path d="M72.1152 19.655L91.4464 0L110.999 19.4821H80.9139L85.6509 14.6568L98.6642 14.6345L91.4937 7.53696L79.4582 19.6543L72.1152 19.655Z" fill="white"/>
<path d="M110.872 20.2547L91.5412 40L71.9883 20.4285H102.073L97.3367 25.3216L84.3234 25.2754L91.4939 32.3739L103.529 20.2546L110.872 20.2547Z" fill="white"/>
<path d="M4.32201 12.3803L1.28326 26.6304H4.17314L7.21184 12.3803H8.22704L8.94854 8.99319H0.723418L0 12.3803H4.32201Z" fill="white"/>
<path d="M12.7628 12.3803H15.7827L13.7918 21.7177L12.608 23.2432H10.4465L12.7628 12.3803ZM6.80859 26.6304H13.4734L16.4283 22.9082L19.3951 8.99319H10.5707L6.80859 26.6304Z" fill="white"/>
<path d="M18.1016 26.6303H21.1472L27.9747 12.1975L25.618 23.2431H23.7443L23.0209 26.6303H27.7844L31.5476 8.99307H26.3404L23.4516 15.0965L24.7526 8.99307H21.8627L20.4513 15.6142H23.2111L18.1016 26.6303Z" fill="white"/>
<path d="M40.0486 12.3803H45.9574L44.1804 20.7098L40.3157 26.6304H43.3603L46.9933 21.199L49.5964 8.99319H40.7711L40.0486 12.3803ZM36.4688 29.1629H39.3596L42.3914 14.9433H39.5016L36.4688 29.1629Z" fill="white"/>
<path d="M52.2728 26.6303L56.034 8.99307H51.4005L50.679 12.3802H52.4226L50.1054 23.2431H48.075L47.3535 26.6303H52.2728Z" fill="white"/>
<path d="M57.5592 12.3803H62.4529L60.1366 23.2432H55.243L54.5195 26.6304H63.6317L64.3542 23.2432H63.0521L66.0909 8.99319H58.2817L57.5592 12.3803Z" fill="white"/>
</g>
<defs>
<clipPath id="clip0_378_447">
<rect width="111" height="40" fill="white"/>
</clipPath>
</defs>
</svg>
