<svg width="313" height="40" viewBox="0 0 313 40" fill="none" xmlns="http://www.w3.org/2000/svg">
<path d="M16.7357 38.6075C18.5588 40.4642 21.5192 40.4642 23.3804 38.6075L38.7569 23.334C40.6181 21.518 40.6181 18.5635 38.7569 16.7068L23.3804 1.39251C21.5192 -0.464171 18.5588 -0.464171 16.7357 1.39251L1.39589 16.7068C-0.465296 18.5635 -0.465296 21.518 1.39589 23.334L16.7357 38.6075Z" fill="#ED1D24"/>
<path d="M178.114 11.3806C174.967 11.3806 172.433 12.4123 170.321 13.905L172.278 16.9643C173.774 16.0842 175.658 15.2441 177.729 15.2441C180.61 15.2441 182.261 16.5809 182.261 19.6025V20.1389C181.415 20.0615 180.033 19.9855 178.729 19.9855C173.124 19.9855 169.668 22.6996 169.668 26.9839C169.668 30.8077 172.394 33.1782 176.233 33.1782C178.805 33.1782 181.147 32.1087 182.413 30.3865L182.798 32.9869H186.945V20.4822C186.945 17.4233 186.214 15.2819 184.793 13.7893C183.296 12.2206 181.071 11.3806 178.114 11.3806ZM182.261 24.5733C182.261 27.4429 180.109 29.3548 177.461 29.3548C175.387 29.3548 174.39 28.2074 174.39 26.5249C174.39 24.6116 175.696 23.5416 179.073 23.5416C180.033 23.5416 181.185 23.5416 182.261 23.695V24.5733Z" fill="white"/>
<path d="M202.032 11.2588C199.307 11.2588 197.042 12.444 195.774 14.3182L195.275 11.7556H191.322V38.718H195.928V30.8016C197.272 32.3679 199.46 33.2878 201.994 33.2878C207.331 33.2878 211.746 29.5003 211.746 22.2723C211.746 15.0066 207.369 11.2588 202.032 11.2588ZM201.419 29.4247C198.078 29.4247 196.004 26.9381 196.004 22.2723C196.004 17.7222 198.078 15.2739 201.419 15.2739C204.797 15.2739 206.908 17.7222 206.908 22.2723C206.908 26.9381 204.797 29.4247 201.419 29.4247Z" fill="white"/>
<path d="M158.65 11.3807C156.115 11.3807 153.89 12.5281 152.852 14.0188V4.30621H148.016V32.987H152.852V21.5145C152.852 19.2971 153.351 17.8441 154.196 16.8487C155.08 15.817 156.346 15.282 157.882 15.282C159.148 15.282 160.146 15.7013 160.799 16.581C161.414 17.4234 161.759 18.6846 161.759 20.5965V32.987H166.597V20.367C166.597 17.2317 165.752 15.0128 164.293 13.5598C162.873 12.1451 160.991 11.3807 158.65 11.3807Z" fill="white"/>
<path d="M225.144 11.2588C219.194 11.2588 214.816 15.2362 214.816 22.3106C214.816 29.4248 219.116 33.4398 225.029 33.4398C231.017 33.4398 235.395 29.3091 235.395 22.1964C235.395 15.1979 231.094 11.2588 225.144 11.2588ZM225.067 29.4248C221.726 29.4248 219.654 26.8621 219.654 22.2724C219.654 17.7983 221.726 15.2739 225.067 15.2739C228.445 15.2739 230.557 17.7983 230.557 22.2724C230.557 26.8621 228.445 29.4248 225.067 29.4248Z" fill="white"/>
<path d="M62.3643 11.3807C59.7922 11.3807 57.45 12.4521 56.1061 13.8272V4.30627H51.2695V21.7818C51.2695 25.8366 52.3437 28.513 54.1104 30.3106C56.0298 32.2603 58.6403 33.2543 61.5191 33.2543C67.2023 33.2543 71.8463 29.6604 71.8463 22.2805C71.8463 14.8991 67.4706 11.3807 62.3643 11.3807ZM61.5191 29.1632C58.2174 29.1632 56.1838 26.6771 56.1838 22.1648C56.1838 17.8442 58.2174 15.358 61.4807 15.282C64.8605 15.2041 66.932 17.6907 66.932 22.1648C66.932 26.6771 64.8605 29.1632 61.5191 29.1632Z" fill="white"/>
<path d="M106.897 11.3806C104.363 11.3806 102.059 12.4784 100.831 14.2402L100.487 11.6788H96.416V32.9833H101.254V21.545C101.254 19.2546 101.715 17.8045 102.559 16.8423C103.442 15.8123 104.71 15.2702 106.244 15.2702C107.435 15.2702 108.318 15.6632 108.971 16.4221C109.662 17.2624 110.046 18.5635 110.046 20.7454V32.9833H114.884V20.515C114.884 17.3031 114.078 15.1617 112.734 13.7116C111.314 12.1802 109.278 11.3806 106.897 11.3806Z" fill="white"/>
<path d="M89.355 13.7388C87.8584 12.2481 85.6689 11.3679 82.7901 11.3679C79.6425 11.3679 77.1083 12.4776 74.997 13.9683L76.9542 17.0277C78.4508 16.1475 80.3322 15.2673 82.4056 15.2673C85.2863 15.2673 86.9369 16.6442 86.9369 19.5898V20.1248C86.0917 20.0488 84.7094 19.9728 83.4049 19.9728C77.7995 19.9728 74.3438 22.687 74.3438 26.9712C74.3438 30.7951 77.0704 33.166 80.9091 33.166C83.4812 33.166 85.8229 32.0941 87.0891 30.3739L87.474 32.9742H91.6208V20.5838C91.6208 17.4106 90.8515 15.2295 89.355 13.7388ZM86.9369 24.5611C86.9369 27.4302 84.7853 29.3421 82.1368 29.3421C80.0634 29.3421 79.0661 28.1947 79.0661 26.5108C79.0661 24.5989 80.372 23.5289 83.7495 23.5289C84.7094 23.5289 85.8613 23.5289 86.9369 23.6809V24.5611Z" fill="white"/>
<path d="M137.843 11.6787H132.199L124.406 20.9623V4.29272H119.568V32.9833H124.406V22.4937L132.467 32.9833H138.342L129.397 21.6669L137.843 11.6787Z" fill="white"/>
<path d="M246.604 11.3731C243.457 11.3731 240.923 12.4049 238.811 13.8975L240.768 16.9569C242.265 16.0767 244.148 15.2744 246.22 15.2744C249.1 15.2744 250.751 16.5734 250.751 19.595V20.1315C249.906 20.054 248.523 19.978 247.219 19.978C241.614 19.978 238.158 22.6922 238.158 26.9764C238.158 30.8003 240.884 33.1707 244.723 33.1707C247.295 33.1707 249.637 32.1012 250.903 30.3791L251.288 32.9795H255.435V20.3595C255.435 17.3398 254.665 15.1587 253.169 13.668C251.672 12.1754 249.483 11.3731 246.604 11.3731ZM250.751 24.5658C250.751 27.4354 248.599 29.3473 245.951 29.3473C243.877 29.3473 242.88 28.1999 242.88 26.5174C242.88 24.6041 244.186 23.5341 247.563 23.5341C248.523 23.5341 249.675 23.5341 250.751 23.6876V24.5658Z" fill="white"/>
<path d="M260.502 4.29272H265.34V32.975H260.502V4.29272Z" fill="white"/>
<path d="M304.573 11.373C301.578 11.373 299.046 12.6343 297.548 14.7374C296.243 12.5205 293.901 11.373 291.021 11.373C288.372 11.373 286.185 12.4827 284.956 14.2407L284.61 11.6785H280.693V32.9794H285.531V21.4686C285.531 19.212 285.954 17.759 286.76 16.8028C287.605 15.8093 288.833 15.2743 290.369 15.2743C291.56 15.2743 292.441 15.6554 293.094 16.4218C293.785 17.2618 294.17 18.5249 294.17 20.6664V32.9794H299.006V21.4686C299.006 19.136 299.505 17.683 300.35 16.689C301.157 15.7333 302.424 15.2743 303.92 15.2743C305.11 15.2743 306.032 15.6936 306.685 16.4595C307.376 17.2618 307.645 18.5632 307.645 20.4746V32.9794H312.482V20.3212C312.482 17.0323 311.675 15.0448 310.255 13.5522C308.874 12.1375 306.915 11.373 304.573 11.373Z" fill="white"/>
<path d="M270.561 11.6788H275.398V32.9792H270.561V11.6788Z" fill="white"/>
<path d="M273.018 3.53221C271.252 3.53221 270.1 4.64189 270.1 6.28607C270.1 7.93026 271.252 9.03993 273.018 9.03993C274.669 9.03993 275.821 7.93026 275.821 6.28607C275.821 4.64189 274.669 3.53221 273.018 3.53221Z" fill="white"/>
</svg>
