<svg width="97" height="40" viewBox="0 0 97 40" fill="none" xmlns="http://www.w3.org/2000/svg">
<path d="M70.3665 16.7357L70.3564 18.6351L70.3457 16.7357H70.3665Z" fill="white"/>
<path d="M75.2819 26.8084L75.2617 16.7357H75.2819V26.8084Z" fill="white"/>
<path d="M58.3429 25.7143C59.0475 25.6598 59.8213 25.2496 60.3563 24.8057C60.5591 24.6371 60.7333 24.4303 60.9345 24.2696L61.5229 24.899C60.6243 25.9638 59.4769 26.8337 58.0428 26.9731C53.8176 27.3833 51.9351 23.0249 53.5254 19.5493C54.5728 17.2595 56.8408 16.1839 59.3173 16.6593C61.7684 17.1302 62.2483 19.714 60.4911 21.3284C59.2324 22.4849 57.2954 22.9226 55.6568 23.2171C55.8687 24.2151 56.4267 25.2861 57.464 25.6115C57.6168 25.6593 57.7736 25.6806 57.9293 25.7143C57.9186 25.7143 57.8214 25.702 57.8568 25.7351H58.353L58.3423 25.7143H58.3429ZM55.5332 22.1848C57.01 21.7291 59.0869 21.1138 59.2099 19.2639C59.2813 18.1962 58.6244 17.3915 57.5 17.7C56.0429 18.0996 55.5242 20.3377 55.5113 21.6369C55.5096 21.8212 55.5343 22.0011 55.5332 22.1848Z" fill="white"/>
<path d="M65.739 16.7357L65.7491 24.373L65.7592 16.7357C65.7935 16.7571 65.78 16.8139 65.78 16.8487C65.8109 19.3594 65.7559 21.8718 65.78 24.3826C65.9132 25.0687 66.5892 24.7399 66.9725 24.4803C68.4498 23.4778 70.2182 20.5119 70.3255 18.7284C70.362 18.1243 70.3177 17.4612 70.3244 16.8487C70.3244 16.8139 70.3115 16.7571 70.3452 16.7357L70.3553 18.6351L70.3654 16.7357H72.7615V26.8084H70.3654V22.032C70.2918 21.9882 70.3132 22.0309 70.3036 22.0612C70.2322 22.2832 70.1131 22.5152 70.0047 22.722C69.0831 24.4753 66.8061 27.2782 64.5736 26.9714C63.7284 26.8551 63.3766 26.2774 63.3418 25.4671V16.7363H65.7379L65.739 16.7357Z" fill="white"/>
<path d="M72.7626 16.7358L72.7834 26.8292H70.3457L70.3665 26.8084H72.7631L72.7626 16.7358Z" fill="white"/>
<path d="M65.7591 16.7358L65.749 24.373L65.7383 16.7358H65.7591Z" fill="white"/>
<path d="M96.0646 16.7357H93.627V26.8084H96.0646V16.7357Z" fill="white"/>
<path d="M96.0804 13H93.627V15.0022H96.0804V13Z" fill="white"/>
<path d="M96.0804 15.0022H93.627V15.0235H96.0804V15.0022Z" fill="white"/>
<path d="M84.4124 18.1187C84.4534 19.1858 84.382 20.2787 84.4124 21.3487C84.4304 21.379 84.4399 21.3638 84.454 21.3385C84.5062 21.2441 84.5512 21.0868 84.6018 20.98C85.4829 19.1099 87.435 16.4126 89.7732 16.5705C90.7836 16.6391 91.0994 17.2269 91.1483 18.1692L91.1472 26.8084H88.7095L88.7112 19.1998C88.7241 19.1695 88.6915 19.1414 88.6893 19.1301C88.5347 18.4761 87.8239 18.8464 87.4727 19.1015C85.9555 20.2029 84.6591 22.8749 84.4337 24.7034C84.4337 24.7073 84.4028 24.7321 84.4118 24.7529L84.413 26.809H81.9753V19.1408C81.9753 19.0548 81.8809 18.9054 81.8106 18.8514C81.4105 18.544 80.689 19.1245 80.3946 19.3982C79.2724 20.4428 78.1935 22.4073 77.8541 23.8982C77.6456 24.813 77.7304 25.761 77.7203 26.6955C77.7203 26.7303 77.7332 26.7871 77.6995 26.8084L77.6894 24.8265L77.6793 26.8084H75.2832V16.7357H77.6793V21.3487C77.6793 21.3796 77.7473 21.3745 77.7602 21.3565C77.7714 21.3408 77.7563 21.2964 77.7619 21.2767C77.8321 21.0284 78.0193 20.6845 78.1434 20.4507C79.0661 18.7121 81.0183 16.2738 83.2436 16.5941C84.1174 16.72 84.382 17.3027 84.4135 18.1187H84.4124Z" fill="white"/>
<path d="M88.6881 19.1302C88.6909 19.1414 88.7235 19.1701 88.71 19.1998L88.7083 26.8084H91.146L88.6875 26.8292V19.1302H88.6881Z" fill="white"/>
<path d="M84.4536 21.3385C84.4396 21.3638 84.43 21.379 84.4121 21.3487C84.3817 20.2787 84.4531 19.1858 84.4121 18.1187L84.4536 21.3385Z" fill="white"/>
<path d="M84.4149 26.8084L84.4138 24.7523C84.4048 24.7315 84.4351 24.7068 84.4357 24.7029L84.4149 26.8084Z" fill="white"/>
<path d="M77.698 26.8084H77.6777L77.6878 24.8265L77.698 26.8084Z" fill="white"/>
<path d="M57.9298 25.7143C58.0642 25.7121 58.2114 25.7244 58.3429 25.7143L58.3536 25.7351H57.8574C57.822 25.702 57.9186 25.7149 57.9298 25.7143Z" fill="white"/>
<path d="M51.1128 13V26.8292H48.6543V13H51.1128ZM48.6751 13.0202V26.8084H51.0712V13.0202H48.6751Z" fill="white"/>
<path d="M51.0719 13.0202H48.6758V26.8084H51.0719V13.0202Z" fill="white"/>
<g clip-path="url(#clip0_377_347)">
<path d="M40.6541 17.6256V22.4983L40.6048 23.274C40.5968 23.5508 40.5874 23.828 40.5759 24.1063H0.067643C0.0412581 23.3616 0.0317994 22.6233 0.0313016 21.9015C0.024332 21.8313 0.018358 21.7611 0.0143754 21.6909C-0.00205294 21.44 -0.00205294 21.1891 0.0143754 20.9382V18.9827C-0.0050399 18.7821 -0.00454208 18.5715 0.0143754 18.3694C0.0188559 18.3196 0.024332 18.2703 0.0313016 18.222C0.0258254 16.378 0.0875562 14.4226 0.341449 12.5144H40.3275C40.556 14.2125 40.6307 15.935 40.6043 17.6256H40.6541Z" fill="white"/>
<path d="M40.6541 17.6256V19.0698C40.6541 19.1091 40.6431 19.1664 40.6197 19.1669C38.2396 19.2032 35.7794 19.1963 33.3908 19.1111C32.0242 18.9314 30.7324 18.4246 29.4938 17.8392C27.0161 16.5652 24.6499 15.4526 21.8207 15.1663C17.7878 14.7586 14.2876 16.0759 10.8247 17.9542C9.47311 18.5984 8.03738 19.1241 6.52497 19.1689C4.36042 19.1803 2.19685 19.1724 0.0347864 19.145C0.0263233 19.0917 0.0198515 19.0375 0.0143754 18.9827C-0.0050399 18.7821 -0.00454208 18.5715 0.0143754 18.3694C0.0188559 18.3196 0.024332 18.2703 0.0313016 18.222C0.0258254 16.3781 0.0875562 14.4226 0.341449 12.5144C0.993604 7.62623 2.91174 3.05069 8.22008 1.46412C11.5774 0.460991 15.2335 0.115499 18.7267 0.0741788C19.7846 -0.024889 20.9008 -0.024889 21.9586 0.0741788C25.1801 0.0403265 28.413 0.509779 31.516 1.21819C35.7574 2.33034 38.3586 4.68407 39.5912 8.95494C39.9263 10.1164 40.1657 11.3092 40.3275 12.5144C40.556 14.2125 40.6307 15.935 40.6043 17.6256H40.6541Z" fill="#4169B2"/>
<path d="M40.654 21.0064V22.4984L40.6047 23.274C40.5967 23.5508 40.5873 23.8281 40.5758 24.1063C40.3414 29.9668 39.3218 36.0199 33.1019 38.3497C29.753 39.6037 25.9601 39.8253 22.4559 40H18.1302C14.8227 39.8218 11.2722 39.5978 8.06018 38.5643C1.58891 36.4818 0.280613 30.0723 0.067542 24.1063C0.0411571 23.3616 0.0316984 22.6233 0.0312005 21.9015C0.0242309 21.8313 0.018257 21.7611 0.0142744 21.6909C-0.00215396 21.44 -0.00215396 21.1891 0.0142744 20.9382C13.5313 20.9003 27.0573 20.8899 40.5918 20.9073L40.654 21.0064Z" fill="#2D2F88"/>
<path d="M11.4666 26.7244L11.9147 28.2657C12.1183 28.0058 12.2408 27.6967 12.4598 27.4443C13.5819 26.1534 15.6748 26.4984 16.5091 27.9217C17.0772 28.8905 17.0846 30.4113 16.6465 31.4319C16.0307 32.8656 14.4755 33.0881 13.1538 32.5092L13.4062 31.398C14.2082 31.6534 15.061 31.8167 15.4533 30.8848C15.8271 29.9961 15.741 28.3344 14.6841 27.957C13.6272 27.5792 13.0333 28.5475 12.7227 29.3973C12.3359 30.4541 12.1362 31.6569 11.8151 32.7407H10.4227L11.1665 29.9369L10.0742 26.7244H11.4666Z" fill="white"/>
<path d="M22.2312 26.7244L24.5227 29.7114C24.7273 29.7432 25.0255 29.216 25.0992 29.0453C25.4079 28.3299 25.3959 27.4896 25.389 26.7244H26.7814C26.8187 28.1666 26.7122 29.9155 25.2894 30.6782L26.7814 32.7407H25.265L22.977 29.7567C22.0495 30.3839 22.1531 31.746 22.1073 32.7407H20.7149C20.7139 31.3338 20.7945 29.5595 22.2083 28.8362L20.7149 26.7244H22.2312Z" fill="white"/>
<path d="M29.1185 25.7303V26.7244H32.9473L30.7349 32.7407H29.2678L31.058 27.9177H27.7266V25.7303H29.1185Z" fill="white"/>
<path d="M19.5233 26.7244H18.1309V32.7407H19.5233V26.7244Z" fill="#FEFEFF"/>
<path d="M9.13071 26.7244V30.1554L7.73828 30.3541V26.7244H9.13071Z" fill="white"/>
</g>
<defs>
<clipPath id="clip0_377_347">
<rect width="40.6541" height="40" fill="white"/>
</clipPath>
</defs>
</svg>
