<svg width="64" height="40" viewBox="0 0 64 40" fill="none" xmlns="http://www.w3.org/2000/svg">
<g clip-path="url(#clip0_377_369)">
<mask id="mask0_377_369" style="mask-type:luminance" maskUnits="userSpaceOnUse" x="-546" y="-820" width="671" height="939">
<path d="M-545.09 118.154H124.645V-819.475H-545.09V118.154Z" fill="white"/>
</mask>
<g mask="url(#mask0_377_369)">
<path d="M38.4624 9.32566H35.8257V6.40539H33.6473C33.6104 7.34668 33.6416 8.3579 33.6312 9.32566H30.9954C31.0436 6.99889 30.9302 4.6296 30.9954 2.31607C31.0181 1.47685 31.4689 0.899409 31.9896 0.500589C32.2391 0.309685 32.5453 0.110275 32.9215 0.0431754C33.4195 -0.0466063 34.0697 0.0762525 34.6103 0.0110426C34.8778 -0.0210898 35.2019 0.027109 35.5261 0.027109C35.8824 0.027109 36.3001 0.00159211 36.5836 0.0582963C37.3973 0.223684 38.0853 0.901299 38.3518 1.63751C38.5267 2.11949 38.4624 2.85287 38.4624 3.48418V9.32566ZM35.7 2.44271C35.3871 1.92859 34.0603 1.98151 33.7578 2.45878C33.4384 2.96155 33.7078 3.67981 33.6161 4.38483H35.8257C35.7501 3.72139 35.9712 2.88973 35.7 2.44271Z" fill="white"/>
<path d="M11.0395 0.0428942H14.1025V9.34144H11.0234V0.0901479L11.0395 0.0428942Z" fill="white"/>
<path d="M21.5853 0.0429036V2.34793C21.0844 2.37628 20.4049 2.364 19.7859 2.364C19.1858 2.364 18.4921 2.33281 18.459 2.86866C18.4297 3.35254 19.2623 3.71545 19.5648 3.91108C20.0165 4.2031 20.4418 4.49513 20.8122 4.79472C21.5069 5.35798 22.4047 6.36353 21.8537 7.66773C21.0041 9.67979 17.9269 9.32633 15.002 9.34145V6.95798H16.9441C17.5981 6.95798 18.5167 6.99862 18.3966 6.23123C18.3418 5.88249 17.8239 5.58007 17.5281 5.37877C16.79 4.87694 16.188 4.53955 15.6021 3.86382C15.2477 3.45461 14.9821 3.00475 15.0341 2.23736C15.1333 0.756432 16.4942 0.119454 18.1122 0.0429036C19.2727 -0.0119104 20.3983 0.0835417 21.5853 0.0429036Z" fill="white"/>
<path d="M28.2465 4.60531C28.2465 4.71872 28.3996 4.66296 28.4515 4.66863C28.9401 4.71683 29.3673 4.86521 29.6669 5.11093C30.5997 5.8736 30.1687 7.69191 30.267 9.32594H27.6312V8.01513C27.6312 7.57567 27.687 7.12298 27.583 6.76858C27.3581 5.99835 26.4697 5.89817 25.4207 5.93125C25.3838 7.03131 25.415 8.19942 25.4046 9.32594H22.6895V1.33726C22.6895 0.53962 22.7216 0.099217 23.4474 0.0425128C24.1496 -0.0113562 24.9406 0.0425128 25.6891 0.0425128C26.4688 0.0425128 27.223 0.00565473 27.8514 0.121898C29.2445 0.378958 30.2113 1.24748 30.0931 2.86922C30.0308 3.73112 29.4902 4.42858 28.6566 4.54199L28.4364 4.55806C28.3873 4.56184 28.2739 4.51459 28.2465 4.60531ZM25.4046 2.14246V3.78405C25.829 3.80673 26.3232 3.80389 26.7306 3.68954C27.0916 3.58936 27.4999 3.37861 27.5991 3.08942C27.6652 2.89757 27.6482 2.64807 27.5358 2.45811C27.2296 1.93927 26.2335 2.1349 25.4207 2.09521L25.4046 2.14246Z" fill="white"/>
<path d="M45.9119 0.0428954V2.22128H42.0759C42.039 2.69004 42.0702 3.22684 42.0598 3.72111H45.9119V5.66323H42.0598V7.16306H45.9119V9.34144H39.3919V1.87444C39.3919 1.51153 39.3493 1.06924 39.4079 0.784775C39.4854 0.402967 39.8559 0.0825884 40.3076 0.0428954C40.7632 0.00320245 41.2442 0.0428954 41.713 0.0428954H45.9119Z" fill="white"/>
<path d="M47.0028 0.0428944H50.0658V6.94191C50.9967 6.98916 52.0391 6.92584 52.97 6.9731V9.34144H49.0395C48.6057 9.34144 48.1426 9.39437 47.7608 9.32538C47.3714 9.25639 47.0936 8.95585 47.0189 8.64682C46.949 8.35857 46.9868 7.96731 46.9868 7.60535C46.9868 5.10658 46.9877 2.57379 46.9868 0.0901481L47.0028 0.0428944Z" fill="white"/>
<path d="M32.8405 10.557C34.2619 10.5428 35.3657 11.2072 36.0764 11.9784C36.7909 12.7514 37.3872 13.8647 37.3872 15.3249C37.3872 16.8067 36.8674 17.903 36.1246 18.7186C35.3931 19.5219 34.3545 20.1476 32.935 20.1873C31.5391 20.226 30.4135 19.5437 29.6991 18.7659C28.9458 17.9465 28.4147 16.8899 28.3731 15.4354C28.3315 14.0027 28.9345 12.8006 29.6357 12.0407C30.3559 11.2601 31.3529 10.5721 32.8405 10.557ZM31.8935 13.5406C31.3907 13.8874 30.991 14.532 30.9938 15.3721C30.9948 15.96 31.1753 16.372 31.3879 16.682C31.7659 17.233 32.4218 17.6044 33.1561 17.4872C33.7818 17.388 34.3327 16.8842 34.5775 16.304C34.879 15.5876 34.7816 14.7663 34.4509 14.204C34.1588 13.7079 33.6003 13.1777 32.7772 13.241C32.4124 13.2684 32.109 13.3922 31.8935 13.5406Z" fill="white"/>
<path d="M1.72497 20.0135V13.004C1.72497 12.2876 1.61723 11.2348 1.96123 10.904C2.30713 10.5732 3.43271 10.715 4.09331 10.715C5.64795 10.715 6.73762 10.9834 7.64489 11.6459C8.78559 12.4794 9.54164 13.9046 9.47643 15.7985C9.44525 16.6982 9.13337 17.4571 8.73455 18.0563C7.93408 19.2556 6.67902 20.0135 4.70855 20.0135H1.72497ZM4.28233 13.2251V17.5346C5.13856 17.6187 5.69048 17.442 6.11387 16.9978C6.77164 16.3079 6.83402 14.8242 6.2717 13.9982C5.88611 13.4321 5.21984 13.1476 4.29839 13.1779L4.28233 13.2251Z" fill="white"/>
<path d="M10.1704 10.7149H13.2333V20.0135H10.1543V10.7622L10.1704 10.7149Z" fill="white"/>
<path d="M20.7474 10.7149V13.036H18.9159C18.3422 13.036 17.6277 13.0218 17.6221 13.5567C17.6164 13.9848 18.2241 14.2608 18.553 14.4725C18.9442 14.7239 19.3241 14.962 19.6578 15.2144C20.2995 15.6983 21.116 16.3683 21.1897 17.3767C21.2162 17.7415 21.1585 18.0534 21.047 18.3246C20.6472 19.3009 19.6086 19.7781 18.3791 19.9501C17.1231 20.1259 15.6147 19.9501 14.1641 20.0134V17.6451H16.0429C16.6931 17.6451 17.6088 17.6801 17.5739 16.9826C17.5569 16.6395 17.107 16.3466 16.8169 16.1453C16.4823 15.9147 16.1534 15.7039 15.869 15.4988C15.3085 15.0925 14.6064 14.533 14.3219 13.8563C14.0535 13.2174 14.2378 12.3537 14.5591 11.883C15.0883 11.1052 16.0892 10.7763 17.3849 10.7149C18.5086 10.662 19.5973 10.7546 20.7474 10.7149Z" fill="white"/>
<path d="M28.2472 10.7149V13.0833C27.2275 13.0388 26.3674 13.139 25.721 13.5095C25.1294 13.8488 24.6191 14.4735 24.6162 15.3562C24.6134 16.2634 25.1124 16.8607 25.721 17.2189C26.3542 17.5922 27.2284 17.699 28.2472 17.6451V20.0135C26.3164 20.1316 24.8695 19.9142 23.7477 19.2555C22.6769 18.627 21.7848 17.647 21.506 16.2559C21.1856 14.6559 21.8028 13.2156 22.6429 12.3414C23.4869 11.4625 24.7334 10.7896 26.3211 10.7149C26.9666 10.6847 27.5752 10.7376 28.2472 10.7149Z" fill="white"/>
<path d="M38.1457 10.7149H41.2087V15.6406C41.2087 16.1888 41.116 16.9363 41.2871 17.3143C41.5999 18.0042 42.8899 18.0335 43.1347 17.1877C43.25 16.786 43.1659 16.081 43.1659 15.5934V10.7149H46.2449V15.7824C46.2449 16.3466 46.2865 16.9127 46.2128 17.44C46.0824 18.3775 45.5276 19.0259 44.8547 19.4606C44.1611 19.9095 43.285 20.1817 42.2029 20.1874C41.1387 20.193 40.2551 19.9095 39.551 19.4606C38.8658 19.0259 38.2969 18.4191 38.1618 17.4722C38.0862 16.9458 38.1296 16.3787 38.1296 15.8145V10.7622L38.1457 10.7149Z" fill="white"/>
<path d="M47.2382 10.7149C47.948 10.8028 48.6795 10.5817 49.2748 10.7461C49.7077 10.8661 49.9581 11.3481 50.1746 11.7252C50.8437 12.8876 51.6092 14.1295 52.2584 15.2305V10.7149H54.674V19.9823C53.7431 19.9114 52.6185 20.1864 52.1479 19.6978C51.9201 19.4615 51.7698 19.0835 51.5959 18.782C51.0818 17.8937 50.4458 16.8806 49.9534 16.0357H49.6378C49.6009 17.3191 49.633 18.6715 49.6217 19.9823H47.207V10.7622L47.2382 10.7149Z" fill="white"/>
<path d="M55.5278 10.7149H62.269V13.0833H60.4374C60.4006 15.3618 60.4327 17.7084 60.4214 20.0135H57.3433V13.0833H55.5117V10.7622L55.5278 10.7149Z" fill="white"/>
<path d="M21.8538 25.5232C22.7176 25.9305 23.346 26.5514 23.3848 27.6865C23.4453 29.432 22.2365 30.3393 20.6696 30.5122C20.1158 30.5727 19.4892 30.5274 18.838 30.5274H15.1598V23.5972C15.1598 22.8836 15.0578 21.8582 15.381 21.5133C15.5104 21.3753 15.776 21.3091 15.9972 21.2921C16.8231 21.2279 17.7777 21.2921 18.6651 21.2921C20.4314 21.2921 21.8311 21.655 22.4539 22.8392C22.7497 23.4025 22.7837 24.3371 22.3745 24.9392C22.2223 25.1631 22.038 25.2784 21.8538 25.5232ZM17.7805 23.3921V25.097C18.6963 25.0932 19.8134 25.2038 20.1489 24.6074C20.2594 24.4109 20.3095 24.0621 20.18 23.8022C20.0449 23.5291 19.5364 23.3732 19.1064 23.3448C18.6755 23.3155 18.2228 23.3666 17.7966 23.3448L17.7805 23.3921ZM17.7805 26.5968V28.5389C18.6415 28.4756 19.7311 28.6882 20.3227 28.3178C20.8293 28.0002 20.8123 27.0306 20.2755 26.7386C19.9967 26.5874 19.5497 26.5675 19.1386 26.5496C18.7076 26.5307 18.2341 26.5637 17.7966 26.5496L17.7805 26.5968Z" fill="white"/>
<path d="M31.3888 30.5278H28.7681V27.6227H26.5736V30.5278H23.9369V25.1126C23.9369 24.4888 23.8943 23.8736 23.9369 23.3132C23.9794 22.765 24.3177 22.2944 24.6315 21.9872C24.9651 21.6612 25.4537 21.3351 26.0056 21.2926C26.5538 21.2501 27.1265 21.2926 27.6633 21.2926C28.2303 21.2926 28.786 21.2539 29.3209 21.2926C29.8672 21.3323 30.3293 21.6338 30.6629 21.9551C31.0079 22.2887 31.3302 22.6856 31.3888 23.2338C31.4511 23.8178 31.3888 24.4595 31.3888 25.0653V30.5278ZM28.6263 23.6288C28.3815 23.2565 27.3684 23.1988 26.9526 23.4237C26.3506 23.7489 26.618 24.762 26.5576 25.5861H28.752C28.6698 24.9274 28.9117 24.0645 28.6263 23.6288Z" fill="white"/>
<path d="M32.352 21.2923H33.3784C33.7242 21.2923 34.175 21.2564 34.4047 21.3235C34.8111 21.4426 35.0946 21.9246 35.3044 22.2865C35.9811 23.4556 36.7135 24.7069 37.3722 25.8079V21.2923H39.7878V30.5597C38.9684 30.4595 37.9393 30.7581 37.4195 30.4019C37.1482 30.2147 36.9658 29.7828 36.7882 29.4861C36.2192 28.5344 35.603 27.4948 35.0672 26.597H34.7515C34.7147 27.8861 34.7468 29.2441 34.7355 30.5597H32.3359V21.3396L32.352 21.2923Z" fill="white"/>
<path d="M40.7036 21.2923H43.7665V24.7655C44.4668 24.8685 44.602 24.3591 44.7768 23.8969C45.1 23.0407 45.4752 22.089 45.771 21.2923H48.834C48.6299 21.9019 48.3586 22.5587 48.1082 23.2184C47.8615 23.8658 47.6829 24.5538 47.2548 25.0027C47.0875 25.1785 46.8768 25.2767 46.7189 25.4601C47.4712 25.6699 48.2443 25.9648 48.5495 26.6282C48.5892 26.7142 48.6318 26.8361 48.644 26.9439C48.7149 27.5289 48.644 28.1649 48.644 28.7754V30.6069H45.566V28.0968C45.566 27.7613 45.6066 27.3965 45.5187 27.1811C45.2994 26.6443 44.5547 26.649 43.7817 26.6443C43.7448 27.9333 43.7769 29.2914 43.7665 30.6069H40.6875V21.3396L40.7036 21.2923Z" fill="white"/>
<path d="M0.651094 29.0123C0.855229 28.966 1.2068 29.293 1.42416 29.4546C3.00715 30.6293 4.95211 31.5546 6.96606 32.2643C9.29093 33.0846 11.8662 33.767 14.4964 34.2698C19.8549 35.2933 25.634 35.832 32.0048 35.832C38.2356 35.832 44.2056 35.3018 49.5282 34.2698C54.4417 33.3162 59.1377 31.925 62.5844 29.4386C62.7942 29.2873 63.141 28.9736 63.3263 28.9963C63.4898 29.0171 63.5663 29.2647 63.6098 29.3913C63.7572 29.8128 63.8517 30.6927 63.7364 31.2068C63.5616 31.9865 63.021 32.3276 62.5211 32.6905C59.4042 34.9521 55.5465 36.5483 51.2965 37.6635C45.5835 39.1633 39.2024 40.0007 32.0199 39.9997C24.9394 39.9997 18.4345 39.1926 12.7281 37.6796C9.91278 36.933 7.25808 35.969 4.85099 34.7584C3.6687 34.1649 2.52422 33.4768 1.50355 32.7066C1.00739 32.3314 0.452629 32.0016 0.272121 31.238C0.156822 30.7503 0.213527 29.8875 0.366628 29.4225C0.419552 29.2628 0.493267 29.0482 0.651094 29.0123Z" fill="white"/>
</g>
</g>
<defs>
<clipPath id="clip0_377_369">
<rect width="64" height="40" fill="white"/>
</clipPath>
</defs>
</svg>
