<svg width="100" height="40" viewBox="0 0 100 40" fill="none" xmlns="http://www.w3.org/2000/svg">
<g clip-path="url(#clip0_381_472)">
<path d="M27.8293 24.225C27.5278 20.8391 26.1829 17.7731 23.9681 15.4759C21.4615 12.8708 17.9833 11.4305 14.1927 11.4054C6.34825 11.4418 0 17.8262 0 25.6944C0 26.1946 0.0268469 26.6932 0.0795081 27.1888C0.175538 28.1274 0.367079 29.0563 0.648456 29.958C0.920025 30.8378 1.28143 31.6921 1.71975 32.5019C2.15446 33.303 2.66662 34.0623 3.24279 34.7668C3.82052 35.4688 4.46174 36.1157 5.1608 36.6955C5.85985 37.277 6.61569 37.7925 7.41283 38.2324C8.21979 38.6748 9.07008 39.0407 9.94783 39.3197C10.8436 39.6043 11.7693 39.7999 12.7053 39.8995C13.219 39.9567 13.7399 39.9864 14.2624 39.9976C14.3584 39.9992 14.455 40.0002 14.551 40.0002C15.0523 39.9987 15.5505 39.9777 16.0457 39.9455C17.1015 39.8771 18.1532 39.7202 19.1769 39.455C20.1352 39.2057 21.065 38.8623 21.9443 38.4158C22.8008 37.98 23.6072 37.4466 24.3393 36.8314C24.71 36.5193 25.0626 36.1872 25.3951 35.8357C25.4813 35.7463 26.3461 34.7208 26.3461 34.7193C26.3461 34.7168 20.9235 31.6108 20.2864 31.2455C20.2467 31.2246 20.2255 31.2118 20.2255 31.2118C18.9683 32.4615 17.0137 33.208 14.9258 33.2315H14.8283C14.3001 33.2315 13.7993 33.2034 13.3264 33.1447C10.6722 32.9009 8.47433 31.1066 7.66323 28.6848H27.6198C27.7556 27.9746 27.8418 27.2308 27.8758 26.4658C27.8872 26.2109 27.8929 25.9534 27.8929 25.6938C27.8929 25.1978 27.8718 24.7083 27.8293 24.225ZM7.43968 23.9884C7.43968 20.4288 10.3557 17.5437 13.9521 17.5437C17.5486 17.5437 20.4635 20.4293 20.4635 23.9884H7.43968Z" fill="white"/>
<path d="M42.9363 22.4523C40.6496 21.6971 38.8437 21.1003 38.8437 19.9283C38.8437 18.5882 40.6404 17.9782 42.3101 17.9782C44.542 17.9782 46.444 19.1037 47.379 19.775L47.569 19.9114L51.218 14.3077L51.057 14.182C49.328 12.8358 45.4785 11.4046 41.7509 11.4046C38.9862 11.4046 36.3769 12.2247 34.4041 13.713C32.2921 15.3065 31.1294 17.5536 31.1294 20.0397C31.1294 25.3594 35.8678 26.9816 39.676 28.2849C42.1396 29.1279 44.2673 29.8565 44.2673 31.3499C44.2673 32.5256 42.8733 33.4115 41.0245 33.4115C38.3119 33.4115 35.5204 32.4091 33.7391 30.7951L33.5486 30.6224L29.7617 36.1935L29.9346 36.3202C33.1062 38.6495 37.1281 39.985 40.9687 39.985C43.8889 39.985 46.6112 39.1758 48.6336 37.7068C50.8241 36.1158 51.9816 33.9368 51.9816 31.4057C51.9816 25.4396 46.7537 23.7133 42.9363 22.4523Z" fill="white"/>
<path d="M70.2632 11.4042C67.6926 11.4042 65.169 12.2667 63.1069 13.8408V0H55.3926V39.4277H63.1069V22.4115C63.9572 21.1986 66.3172 19.0073 69.4805 19.0073C71.0789 19.0073 72.4723 19.5524 73.4037 20.5416C74.4942 21.7003 74.9598 23.2668 74.9598 25.7795V39.4282H82.6742V26.3737C82.6742 21.7693 81.796 18.6077 79.8268 16.1237C77.4752 13.125 73.9892 11.4042 70.2632 11.4042Z" fill="white"/>
<path d="M86.0801 39.4279C86.0801 35.6241 89.1959 32.5407 93.0392 32.5407C96.8834 32.5407 99.9992 35.6241 99.9992 39.4279H86.0801Z" fill="white"/>
</g>
<defs>
<clipPath id="clip0_381_472">
<rect width="100" height="40" fill="white"/>
</clipPath>
</defs>
</svg>
