<svg width="228" height="40" viewBox="0 0 228 40" fill="none" xmlns="http://www.w3.org/2000/svg">
<g clip-path="url(#clip0_377_424)">
<path fill-rule="evenodd" clip-rule="evenodd" d="M39.8659 8.22439L35.356 13.1568C34.8554 13.7693 35.0494 14.5497 35.9401 15.4982L39.0307 19.092C39.9215 20.1515 40.0877 21.0153 39.5317 21.6832L35.2729 26.3659C35.0492 26.5879 34.9662 26.9503 35.0214 27.4518C35.077 27.8975 35.2729 28.3434 35.6069 28.7892L39.1139 32.6358C39.3928 32.9135 39.5037 33.1645 39.4481 33.3866C39.3929 33.4997 39.2801 33.5547 39.1139 33.5547L33.4345 33.7218C33.0448 33.7218 32.6271 33.4997 32.1818 33.054L28.592 28.9575C27.7012 27.842 27.5332 27.006 28.091 26.4496L32.4329 21.6C32.6564 21.3779 32.7395 21.0434 32.6843 20.5976C32.6271 20.0964 32.4055 19.6505 32.0154 19.2605L28.7583 15.5821C27.8678 14.4669 27.7014 13.6309 28.2576 13.0741L32.7675 8.22478C33.102 7.77888 33.5196 7.55698 34.0202 7.55698L39.2804 7.4723C39.504 7.4723 39.6702 7.58482 39.7828 7.80685C39.9493 7.97452 39.9768 8.1133 39.8659 8.22439ZM6.29376 7.63996L11.5557 7.55646C11.779 7.55646 11.9454 7.66741 12.0564 7.88944C12.1673 8.05789 12.1673 8.19642 12.0564 8.30737L7.63138 13.2402C7.40775 13.4637 7.35213 13.8263 7.4631 14.3275C7.57433 14.7734 7.79757 15.1913 8.13204 15.5815L11.2212 19.2599C12.112 20.2625 12.3074 21.0987 11.8068 21.7676L7.46323 26.532C6.90722 27.2016 7.04599 27.9803 7.88073 28.8736L11.3044 32.802C11.8625 33.4143 11.8625 33.7215 11.3044 33.7215L5.70981 33.8897C5.26477 33.8897 4.84727 33.6381 4.45745 33.1366L0.782464 29.0401C-0.0526646 28.0934 -0.218855 27.2573 0.281805 26.5321L4.7085 21.7678C5.20915 21.1538 5.06894 20.3735 4.29087 19.4267L1.03377 15.6648C0.14303 14.6624 -0.0248575 13.8264 0.532852 13.1568L4.95811 8.3075C5.40315 7.862 5.84846 7.63996 6.29376 7.63996ZM25.8354 0.783852C26.0037 0.783852 26.1699 0.868797 26.3363 1.03542C26.4486 1.25889 26.4486 1.42564 26.3363 1.5366L21.9111 6.46903C21.466 7.02588 21.6322 7.8062 22.412 8.81038L25.5011 12.4042C26.3932 13.4637 26.5872 14.3275 26.0866 14.9954L21.7431 19.6781C21.5212 19.9558 21.4659 20.3178 21.5769 20.7637C21.6322 21.2652 21.8279 21.7111 22.1607 22.1011L24.9171 25.3616C25.8079 26.4213 26.0036 27.2573 25.5012 27.8696L21.1594 32.6356C20.9357 32.9133 20.8527 33.2756 20.9079 33.7215C21.0206 34.2224 21.2425 34.6403 21.5769 34.9755L25.0836 38.9051C25.529 39.5178 25.5011 39.8245 25.0004 39.8245L19.4058 39.9908C18.9049 39.9908 18.4873 39.7688 18.1531 39.323L14.4781 35.1437C14.0883 34.7535 13.8664 34.3078 13.8094 33.8045C13.6984 33.3586 13.7816 32.9963 14.0604 32.7186L18.4027 27.8697C18.9048 27.2574 18.7646 26.4771 17.985 25.5299L15.0622 22.2695C14.227 21.2097 14.0604 20.3738 14.5615 19.7615L18.9883 14.9122C19.2101 14.6901 19.2653 14.3556 19.1545 13.9098C19.0992 13.4086 18.9049 12.9628 18.5707 12.5727L15.3135 8.89362C14.4231 7.77849 14.2551 6.9425 14.8128 6.38591L19.2378 1.53673C19.5723 1.09083 20.0177 0.868927 20.5754 0.868927L25.8354 0.783852Z" fill="white"/>
<path fill-rule="evenodd" clip-rule="evenodd" d="M123.444 9.20479L122.359 1.17996C123.416 0.399641 124.837 0.00915527 126.618 0.00915527C128.51 0.00915527 129.986 0.233018 131.043 0.678784L131.795 6.36409C131.906 7.03163 132.213 7.36645 132.713 7.36645H141.232C144.072 7.36645 145.77 9.06626 146.326 12.4656L146.577 23.5843C146.633 26.7602 145.742 29.2125 143.904 30.9401C142.234 32.5565 139.924 33.3646 136.973 33.3646H127.536C127.481 32.4729 127.62 31.4149 127.954 30.1888C128.288 28.8501 128.706 27.9307 129.206 27.4298H134.051C136.388 27.4298 137.558 26.0646 137.558 23.3334L137.474 14.8904C137.306 13.7752 136.695 13.2184 135.636 13.2184H126.952C126.06 13.2184 125.282 12.8283 124.613 12.0478C123.945 11.267 123.555 10.3199 123.444 9.20479ZM146.91 7.36645H154.843C159.911 7.36645 162.804 10.2368 163.529 15.9774L165.367 29.686C165.7 32.1384 164.837 33.3645 162.777 33.3645H149.833C149.833 30.6345 150.335 28.6836 151.337 27.5132H155.679C155.902 27.5132 156.013 27.4854 156.013 27.4297C156.068 27.3183 156.068 27.0951 156.013 26.7601L154.677 16.3108C154.511 15.3082 154.121 14.5277 153.508 13.971C152.896 13.4127 152.172 13.135 151.337 13.135H149.583C148.024 11.463 147.133 9.65068 146.91 7.70126V7.36645H146.91ZM164.865 7.36645H173.885L175.555 20.4907C174.385 20.936 172.883 21.1597 171.045 21.1597C169.208 21.1597 167.705 20.936 166.535 20.4907L164.865 7.36645ZM43.6914 7.36645H52.7114L54.3816 20.4907C53.1003 20.936 51.5694 21.1597 49.7884 21.1597C48.0063 21.1597 46.5311 20.936 45.3615 20.4907L43.6914 7.36645ZM78.1821 9.62272C79.5735 11.017 80.6309 13.107 81.3552 15.8927L83.359 24.5872C83.7487 27.5961 83.1641 29.8542 81.6056 31.3581C80.2133 32.6967 78.2373 33.3646 75.6766 33.3646H68.6613C68.6613 32.3623 68.8009 31.2746 69.0788 30.1042C69.4133 28.7667 69.8309 27.9034 70.3316 27.5133L71.6674 27.4298C72.6142 27.4298 73.3376 27.0397 73.8392 26.2593C74.229 25.534 74.3677 24.6702 74.2568 23.6678L72.5025 16.3108C71.9462 14.1929 70.666 13.135 68.6613 13.135H66.9911L66.6569 33.3646H57.6378L58.3058 13.135C57.3597 13.135 56.4691 12.5489 55.634 11.3798C54.9097 10.2646 54.4368 8.92747 54.2143 7.36645H71.7514C74.4239 7.36645 76.5673 8.11932 78.1821 9.62272ZM83.1085 7.44969H92.3786L95.8853 33.3646H86.6161L83.1085 7.44969ZM94.3833 7.36645H104.236L113.256 18.0674H113.674L112.253 7.36645H121.273L122.359 15.3913C122.916 19.7951 121.328 22.5528 117.598 23.6678L125.783 33.3646H115.511L106.742 22.8318L106.324 22.9153L107.745 33.3646H98.725L97.6389 25.3398C97.4168 23.4439 97.5832 21.772 98.141 20.3238C98.8637 18.5412 100.201 17.3425 102.149 16.7288L94.3833 7.36645ZM204.95 33.3645L203.279 20.6588C203.893 19.8225 205.007 19.0699 206.62 18.4003C208.234 17.788 209.739 17.4812 211.13 17.4812H211.547L213.635 33.3645H204.95ZM175.388 7.36645H191.422C193.315 7.36645 195.013 8.1746 196.515 9.79091C197.964 11.4076 198.827 13.3569 199.104 15.6428L199.856 21.1597C200.024 22.6653 199.939 23.9472 199.606 25.0051C199.161 26.2863 198.354 27.0951 197.184 27.4296H202.529C202.975 30.0484 202.416 32.0276 200.859 33.3645H178.311C178.533 30.4663 179.312 28.4894 180.649 27.4296H186.995C190.114 27.4296 191.477 25.8961 191.087 22.8315L190.42 17.8159C189.975 14.6958 188.192 13.1347 185.075 13.1347H178.477C176.808 11.3519 175.778 9.42865 175.388 7.36645ZM216.976 7.36645C222.041 7.36645 224.964 10.4034 225.744 16.479L228 33.3646H218.98L216.809 17.0634C216.42 14.5 215.25 13.2182 213.301 13.2182L203.614 13.1351C201.999 11.4077 200.942 9.48445 200.441 7.36658L216.976 7.36645Z" fill="white"/>
</g>
<defs>
<clipPath id="clip0_377_424">
<rect width="228" height="40" fill="white"/>
</clipPath>
</defs>
</svg>
