<svg width="109" height="40" viewBox="0 0 109 40" fill="none" xmlns="http://www.w3.org/2000/svg">
<path d="M98.6524 3.86207C98.6524 3.31034 99.2043 2.48276 100.032 2.48276H100.17H107.759V5.65517H102.378V8.27586H107.759V11.0345H102.378V13.7931H107.759V15.8621V16.9655H98.6524V15.8621V3.86207ZM89.4081 15.5862V2.48276H93.6853V13.5172H97.8246V15.8621V16.9655H90.9258H90.7878C89.96 16.8276 89.5461 16.4138 89.4081 15.8621C89.4081 15.8621 89.4081 15.7241 89.4081 15.5862ZM84.1651 2.48276H88.4423V15.8621V16.9655H84.1651V15.8621V2.48276ZM76.3005 6.06896H73.679V2.48276H83.1992V5.93103H80.5777V15.8621V16.9655H76.3005V15.8621V6.06896ZM62.503 2.62069H65.1246C65.9524 2.62069 66.5043 3.86207 66.5043 3.86207L69.6777 9.65517V2.62069H72.9891V16V17.1034H70.5056C69.9537 17.1034 69.6777 16.8276 69.4018 16.5517C69.4018 16.5517 69.2638 16.4138 69.1258 16C68.5739 15.1724 67.4701 12.2759 66.5043 10.4828C66.0904 9.7931 65.9524 10.4828 65.9524 10.4828V16V17.1034H62.641V16V2.62069H62.503ZM56.0182 5.51724C54.6385 5.51724 54.5005 6.2069 54.5005 7.17241V9.7931H57.5359V7.17241C57.5359 6.2069 57.398 5.51724 56.0182 5.51724ZM50.7752 5.7931C50.7752 4.13793 52.5689 2.48276 53.8106 2.48276H56.1562H58.2258C59.4676 2.48276 61.2613 4 61.2613 5.7931V15.8621V16.9655H57.5359V15.8621V13.5172H54.5005V15.8621V16.9655H50.7752V15.8621V5.7931ZM40.1511 9.37931C40.1511 5.51724 43.4625 2.48276 47.4638 2.48276H49.6714V5.93103H48.4296C46.36 5.93103 44.5663 7.17241 44.5663 9.24138C44.5663 11.3103 46.36 13.3793 48.4296 13.3793H49.6714V15.7241V16.8276H47.3258C45.8081 16.8276 44.5663 16.4138 43.3246 15.7241C41.3929 14.7586 40.1511 11.8621 40.1511 9.37931ZM35.7359 7.17241C35.7359 6.34483 35.184 5.51724 34.2182 5.51724H32.7005V8.82759C32.7005 8.82759 34.0803 8.82758 34.7701 8.55172C35.184 8.41379 35.7359 7.72414 35.7359 7.17241ZM28.8372 4.55172C28.8372 3.44827 29.3891 2.48276 30.3549 2.48276H34.7701C37.3916 2.48276 39.1853 4.27586 39.1853 6.62069C39.1853 7.58621 38.7714 9.10345 37.8056 9.65517C37.3916 9.93103 36.5638 9.7931 36.5638 9.7931V9.93103C36.5638 9.93103 37.3916 9.93103 37.8056 10.2069C38.7714 10.7586 39.3233 12.2759 39.3233 13.6552V15.7241V16.8276H35.598V15.7241V13.6552C35.598 12.5517 34.6322 12 33.3904 12H32.5625V15.8621V16.9655H28.6992V15.8621V4.55172H28.8372ZM18.0752 3.86207C18.0752 3.31034 18.6271 2.48276 19.4549 2.48276H20.4208H27.1815V5.65517H21.8005V8.27586H27.1815V11.0345H21.8005V13.7931H27.1815V15.8621V16.9655H18.0752V15.8621V3.86207ZM2.07013 3.86207C2.07013 3.86207 2.2081 3.44827 2.34607 3.17241C2.62202 2.89655 3.17392 2.48276 3.72582 2.48276H4.96759C5.51949 2.48276 5.79544 2.75862 6.07139 3.03448C6.34734 3.17241 6.48531 3.44827 6.48531 3.44827L9.10683 10.4828L11.5904 3.44827C11.5904 3.44827 11.7284 3.17241 12.0043 3.03448C12.1423 2.75862 12.5562 2.48276 12.9701 2.48276H14.2119C14.7638 2.48276 15.3157 2.89655 15.5916 3.17241C15.8676 3.58621 15.8676 3.86207 15.8676 3.86207L16.6954 15.8621L16.8334 16.9655H12.9701V15.8621V8.13793L10.3486 15.8621L10.2106 16H7.86506L7.72709 15.8621L5.10557 8.13793V15.8621V16.9655H1.1043L1.24228 15.8621L2.07013 3.86207ZM106.793 19.1724C106.931 19.0345 107.207 18.8965 107.345 19.0345C107.483 19.1724 107.483 19.1724 107.621 19.3103C107.897 19.8621 108.035 20.5517 108.035 21.3793C108.035 22.2069 108.035 22.6207 107.897 23.4483C107.759 23.7241 107.759 23.8621 107.621 24.1379C107.483 24.2759 107.345 24.5517 107.345 24.5517C107.069 24.8276 106.103 25.5172 106.103 25.6552C92.4435 35.5862 71.1954 37.6552 55.4663 37.6552H55.0524C39.3233 37.6552 16.2815 34.4828 3.3119 25.3793C3.17392 25.2414 2.34607 24.6897 2.07013 24.2759C1.93215 24.1379 1.93215 24 1.79418 23.8621C1.38025 23.4483 1.24228 23.3103 1.24228 23.0345C0.966326 22.3448 0.966326 21.7931 1.1043 21.1034C1.1043 20.2759 1.24228 19.7241 1.51823 19.0345C1.6562 18.8965 1.6562 18.8965 1.79418 18.7586C1.93215 18.6207 2.34607 18.8965 2.34607 18.8965C14.0739 28.5517 40.2891 31.0345 55.0524 31.0345H55.4663C69.9537 31.0345 95.0651 28.8276 106.793 19.1724Z" fill="white"/>
</svg>
