<svg width="106" height="40" viewBox="0 0 106 40" fill="none" xmlns="http://www.w3.org/2000/svg">
<g clip-path="url(#clip0_377_365)">
<path d="M75.5343 17.8206C75.905 15.2489 74.5403 12.2939 72.2881 10.3617C68.9035 7.45528 62.8179 6.13047 56.932 9.71004C56.6289 9.89477 56.3371 9.92103 56.1937 9.83639C55.9679 9.70352 56.0027 9.37339 56.1764 9.15931C57.4274 7.61373 62.5425 0.762405 69.8463 0.762405C74.6994 0.762405 79.2681 4.14901 80.5759 9.00412C80.9187 10.2764 81.0787 11.3401 81.0869 12.2529C81.0869 12.2529 80.3972 15.3531 76.7935 17.2261C76.3818 17.4407 75.9617 17.639 75.5343 17.8206Z" fill="white"/>
<path d="M49.5945 4.51914C51.3184 6.07039 60.6223 14.2359 61.7447 15.2216C67.8001 20.5406 73.3411 19.0196 76.7925 17.2254C80.3962 15.3531 81.0877 12.252 81.086 12.252C81.1016 13.2814 81.2542 19.5605 75.0348 23.6474C70.9646 26.3241 63.8874 28.4189 55.9984 21.5921C54.4245 20.2294 44.3912 11.6561 43.2696 10.6702C37.2133 5.3521 31.3071 7.16945 27.8271 10.1883C26.8043 11.0755 25.4915 12.6031 24.9551 13.965C24.9906 13.3329 24.8653 9.79451 28.5136 5.48927C30.2615 3.4273 33.6633 0.238457 39.3957 0.238457C42.7231 0.239315 45.7169 1.02575 49.5945 4.51914Z" fill="#D5D5D5"/>
<path d="M25.3872 18.3236C24.9751 16.9065 24.8295 15.4258 24.9578 13.9561C25.4985 12.5985 26.8062 11.0733 27.8272 10.1894C28.6388 9.48213 29.539 8.88284 30.5055 8.40652C29.9097 11.0956 31.2997 14.0488 33.675 16.0869C37.0627 18.9935 42.9285 20.3248 48.8133 16.7452C49.1167 16.5605 49.424 16.5121 49.5517 16.6189C49.7585 16.7919 49.7511 17.0604 49.5707 17.296C48.3633 18.876 43.3546 25.7363 36.0482 25.7363C31.196 25.7363 26.7831 23.1557 25.3872 18.3236ZM18.8564 30.4216C18.7311 31.6069 17.9615 38.794 17.8987 39.1485C17.8295 39.5351 17.4916 39.7133 17.1464 39.7133H14.9897L15.9811 31.1143H14.6632C14.5819 31.114 14.5015 31.0963 14.4276 31.0624C14.3537 31.0285 14.2879 30.9791 14.2348 30.9177C14.1817 30.8563 14.1424 30.7843 14.1196 30.7064C14.0969 30.6286 14.0912 30.5468 14.1029 30.4666C14.1465 30.0865 14.529 29.7518 14.9097 29.7518H18.1014C18.7204 29.7526 18.8976 30.0185 18.8564 30.4216ZM42.6369 34.7334C42.973 32.0312 40.9549 29.7526 37.7936 29.7526H34.9013C34.1159 29.7526 33.3528 29.9545 33.2415 30.7579L32.7965 34.5763C32.7965 34.6002 32.8204 34.7997 32.8863 34.8891C33.0214 35.0697 33.1565 35.1354 33.3577 35.1354H36.0277C36.386 35.1354 36.7454 34.8218 36.7891 34.4664C36.8353 34.0192 36.654 33.864 36.4075 33.864H35.6452L35.9311 31.0937H37.5018C39.1161 31.0937 39.9912 32.9035 39.7665 34.8014C39.52 36.6999 38.1982 38.4194 36.6728 38.4194H32.9275C32.5672 38.4194 32.2098 38.7552 32.142 39.1131C32.1198 39.4488 32.3447 39.7147 32.6801 39.7147H36.4915C39.5655 39.714 42.3229 37.4584 42.6369 34.7334ZM31.2671 32.9028C31.076 34.657 30.7752 37.6324 30.5872 39.1042C30.5419 39.5481 30.3325 39.714 29.9634 39.714H27.664C27.7974 38.6421 28.1304 35.3367 28.3555 33.7509C28.6242 31.7629 27.6831 31.1152 26.0671 31.1152H24.3332L23.3763 39.714H20.5572L21.5593 31.1152H20.7525C20.4164 31.1152 20.1699 30.7803 20.2152 30.4455C20.2599 30.0654 20.6191 29.7526 20.9767 29.7526H27.6156C30.9795 29.7524 31.4697 31.0709 31.2671 32.9028ZM13.193 32.9028C12.9953 34.7013 12.683 37.7712 12.5058 39.1961C12.4572 39.5875 12.1994 39.714 11.9372 39.714H9.61919C9.75415 38.6421 10.064 35.3367 10.2883 33.7509C10.6021 31.5839 9.36772 31.1152 8.00144 31.1152H6.24443L5.33145 39.4917C5.30904 39.714 5.24165 39.714 5.17391 39.714H0.824465C0.510602 39.714 0.220524 39.3792 0.26413 39.0221C0.30946 38.6865 0.64573 38.3966 1.04956 38.3966H2.62267L3.46412 31.1152H2.68541C2.34914 31.1152 2.10181 30.7803 2.148 30.4455C2.19178 30.0654 2.55183 29.7528 2.93171 29.7528H9.54835C12.9343 29.7526 13.4164 31.0709 13.193 32.9028ZM51.2213 35.7124L51.7207 31.1152H50.4202C50.3384 31.1146 50.2576 31.0969 50.1831 31.0631C50.1086 31.0293 50.0421 30.9803 49.9879 30.9192C49.9337 30.8581 49.8931 30.7863 49.8686 30.7085C49.8441 30.6307 49.8364 30.5486 49.8459 30.4676C49.8821 30.0876 50.2563 29.7526 50.6371 29.7526H53.8962C54.4863 29.7526 54.6263 30.0539 54.6009 30.4216C54.5615 31.0002 54.1221 35.0642 54.1221 35.0642C53.8896 37.6785 52.4022 40.0537 48.0601 39.732C45.4849 39.5432 43.6405 37.6553 43.8515 35.0642L44.0387 33.3782L44.4112 29.7519C44.4112 29.7519 45.0011 29.7535 45.4346 29.7519C46.5784 29.7519 47.3991 30.3535 47.2911 31.5157L46.8264 35.6436C46.6995 37.0292 47.7361 38.1906 49.1479 38.1906C50.4254 38.1914 51.0929 36.9619 51.2213 35.7124ZM105.698 34.9114C106.035 32.1863 104.42 29.7526 100.002 29.7526H94.5311C94.1719 29.7526 93.7935 30.0094 93.7456 30.3887C93.6937 30.8015 93.9278 31.115 94.3061 31.115H95.182L94.1758 39.7138H97.1457C97.1457 39.7138 98.082 31.115 98.1049 31.115H100.064C101.545 31.115 103.023 32.4021 102.762 34.7784C102.492 37.034 102.294 38.2652 100.097 38.376L99.603 38.422C99.379 38.422 98.9512 38.6453 98.9067 39.0908C98.8964 39.1638 98.9009 39.2381 98.9199 39.3093C98.939 39.3805 98.9721 39.4471 99.0174 39.5054C99.0628 39.5636 99.1193 39.6122 99.1838 39.6483C99.2483 39.6844 99.3194 39.7073 99.3929 39.7155L99.9755 39.7173C104.146 39.7173 105.363 37.749 105.698 34.9114ZM90.9588 31.1152C90.9588 31.1152 90.1025 38.9883 90.0811 39.1289C90.0186 39.5155 89.7185 39.714 89.3748 39.714H87.1729L88.1783 31.1152H87.1695C86.8325 31.1152 86.5852 30.7803 86.6314 30.4216C86.6752 30.0645 87.0344 29.7528 87.3929 29.7528H92.1248C92.4626 29.7528 92.7091 30.0204 92.6637 30.3561C92.6175 30.7131 92.2368 31.1154 91.8783 31.1154H90.9588M85.6698 32.9251C85.4918 34.6561 85.1967 37.5782 84.9659 39.0427C84.8926 39.5179 84.5738 39.7133 84.2053 39.7133H81.9927C82.394 36.4709 82.5062 35.4491 82.6692 33.7722C82.8564 31.8687 82.1337 31.0711 80.4517 31.0711C79.4661 31.0479 77.9408 31.0711 77.9408 31.0711C77.865 31.071 77.7901 31.0546 77.7212 31.023C77.6524 30.9914 77.5912 30.9454 77.5418 30.8881C77.4925 30.8308 77.4561 30.7636 77.4352 30.6911C77.4143 30.6185 77.4094 30.5423 77.4208 30.4676C77.4635 30.0876 77.8194 29.7528 78.1781 29.7528H81.9234C85.2873 29.7526 85.8577 31.093 85.6698 32.9251ZM76.4647 32.9028C76.2297 34.9718 75.9795 37.0389 75.7141 39.1042C75.6679 39.5481 75.4593 39.714 75.0903 39.714H72.7211C72.8538 38.6421 73.2575 35.3367 73.4826 33.7509C73.7513 31.7629 72.8102 31.1152 71.1955 31.1152H69.4387L68.5042 39.714H65.6551L66.6441 31.1152H65.8785C65.5432 31.1152 65.2959 30.7803 65.3412 30.4455C65.3866 30.0654 65.7459 29.7528 66.1044 29.7528H72.7425C76.1064 29.7526 76.6676 31.0709 76.4647 32.9028ZM64.2064 30.4216C64.1421 30.9689 63.7935 34.4977 63.7278 34.9928C63.6735 35.3942 63.3116 35.5329 62.9703 35.5329H61.0404L61.5382 31.1145H60.0135C59.932 31.1144 59.8515 31.0969 59.7774 31.0631C59.7033 31.0292 59.6374 30.9799 59.5842 30.9185C59.5309 30.857 59.4916 30.7849 59.4688 30.7069C59.4461 30.629 59.4404 30.5471 59.4523 30.4668C59.4969 30.0867 59.8784 29.7519 60.2591 29.7519H63.4606C63.9724 29.7524 64.2533 30.0292 64.2064 30.4216Z" fill="white"/>
</g>
<defs>
<clipPath id="clip0_377_365">
<rect width="106" height="40" fill="white"/>
</clipPath>
</defs>
</svg>
