<svg width="213" height="40" viewBox="0 0 213 40" fill="none" xmlns="http://www.w3.org/2000/svg">
<g clip-path="url(#clip0_380_460)">
<path d="M60.9945 33.1376C53.6889 33.1376 47.8477 27.3763 47.8477 19.9997C47.8477 12.623 53.6846 6.86176 60.9945 6.86176C68.3042 6.86176 74.1412 12.6273 74.1412 19.9997C74.1412 27.3722 68.338 33.1376 60.9945 33.1376ZM60.9945 29.987C66.5824 29.987 70.8112 25.5839 70.8112 19.9997C70.8112 14.4156 66.5824 10.0123 60.9945 10.0123C55.4066 10.0123 51.2156 14.4156 51.2156 19.9997C51.2156 25.5839 55.4445 29.987 60.9945 29.987Z" fill="white"/>
<path d="M95.8122 32.7083L80.3358 12.9107V32.7083H77.0059V7.29282H79.9054L95.3818 27.0904V7.29282H98.678V32.7083H95.8122Z" fill="white"/>
<path d="M102.582 7.29282H117.413V10.4434H105.912V18.1406H115.26V21.2911H105.912V29.5618H117.413V32.7124H102.582V7.29282Z" fill="white"/>
<path d="M129.02 30.4898L142.812 10.4434H129.416V7.29282H147.219V9.51129L133.426 29.5577H147.578V32.7083H129.02V30.4898Z" fill="white"/>
<path d="M150.762 7.29282H165.593V10.4434H154.093V18.1406H163.44V21.2911H154.093V29.5618H165.593V32.7124H150.762V7.29282Z" fill="white"/>
<path d="M168.568 7.29282H177.238C181.932 7.29282 184.831 10.1228 184.831 14.311C184.831 18.0351 182.466 20.5404 178.564 21.114L188.342 32.7124H184.15L174.372 21.152H171.899V32.7124H168.568V7.29282ZM176.845 18.1743C179.749 18.1743 181.5 16.85 181.5 14.3067C181.5 11.7635 179.744 10.3675 176.845 10.3675H171.903V18.1701H176.845V18.1743Z" fill="white"/>
<path d="M199.837 33.1376C192.532 33.1376 186.691 27.3763 186.691 19.9997C186.691 12.623 192.528 6.86176 199.837 6.86176C207.148 6.86176 212.985 12.6273 212.985 19.9997C212.985 27.3722 207.181 33.1376 199.837 33.1376ZM199.837 29.987C205.425 29.987 209.654 25.5839 209.654 19.9997C209.654 14.4156 205.425 10.0123 199.837 10.0123C194.249 10.0123 190.059 14.4156 190.059 19.9997C190.059 25.5839 194.288 29.987 199.837 29.987Z" fill="white"/>
<path d="M20.0134 0C8.97692 0 0 8.9709 0 20C0 31.0291 8.97692 40 20.0134 40C31.05 40 40.0268 31.0291 40.0268 20C40.0268 8.9709 31.05 0 20.0134 0ZM37.8491 20C37.8491 29.8271 29.8472 37.8237 20.0134 37.8237C10.1798 37.8237 2.17776 29.8313 2.17776 20C2.17776 10.1687 10.1798 2.1763 20.0134 2.1763C29.8472 2.1763 37.8491 10.1729 37.8491 20Z" fill="white"/>
<path d="M21.1016 7.23773H18.9238V32.7629H21.1016V7.23773Z" fill="white"/>
</g>
<defs>
<clipPath id="clip0_380_460">
<rect width="213" height="40" fill="white"/>
</clipPath>
</defs>
</svg>
