<svg width="211" height="40" viewBox="0 0 211 40" fill="none" xmlns="http://www.w3.org/2000/svg">
<g clip-path="url(#clip0_379_458)">
<path fill-rule="evenodd" clip-rule="evenodd" d="M31.3656 14.0111C31.3656 4.67036 26.6331 0 14.701 0H0V37.6642H12.5865V27.3192H14.701C26.7337 27.3192 31.3656 22.2973 31.3656 14.0111ZM18.3763 14.0111C18.3763 17.5767 17.6211 18.0286 14.701 18.0286H12.5865V9.74248H14.701C17.7721 9.74248 18.3763 10.4456 18.3763 13.9609V14.0111ZM46.7211 27.52V23.2013H58.6027V13.9107H46.7211V10.3451H61.3214L61.1704 0H34.1345V37.6642H61.8249L62.0262 27.4699L46.7211 27.52ZM96.3622 14.0111C96.3622 4.67036 91.6297 0 79.6977 0H64.9966V37.6642H77.5832V27.3192H79.6977C91.7303 27.3192 96.3622 22.2973 96.3622 14.0111ZM83.3728 14.0111C83.3728 17.6269 82.517 18.0788 79.6977 18.0788H77.5832V9.74248H79.6977C82.7688 9.74248 83.3728 10.4456 83.3728 13.9609V14.0111ZM130.497 14.0111C130.497 4.67036 125.865 0 113.832 0H99.1312V37.6642H111.718V27.3192H113.832C125.865 27.3192 130.497 22.2973 130.497 14.0111ZM117.508 14.0111C117.508 17.6269 116.652 18.0788 113.832 18.0788H111.718V9.74248H113.832C116.903 9.74248 117.508 10.4456 117.508 13.9609V14.0111ZM145.852 27.52V23.2013H157.734V13.9107H145.852V10.3451H160.453L160.302 0H133.266V37.6642H160.956L161.107 27.4699L145.852 27.52ZM195.594 12.7054C195.594 3.86686 189.955 0 179.181 0H164.078V37.6642H176.664V25.5112H178.93L183.511 37.6642H198.111L190.56 23.0002C192.262 21.9072 193.631 20.3695 194.519 18.5545C195.406 16.7395 195.778 14.7165 195.594 12.7054ZM182.454 13.1574C182.454 16.3714 181.699 16.7731 179.282 16.7731H176.765V9.69227H179.282C181.799 9.69227 182.454 10.2949 182.454 13.1574ZM211 32.6423C211 29.0265 209.188 26.9676 204.807 26.9676C200.427 26.9676 198.514 29.0265 198.514 32.6423C198.514 36.7101 200.427 38.2669 204.807 38.2669C209.188 38.2669 211 36.1074 211 32.6423Z" fill="white"/>
</g>
<defs>
<clipPath id="clip0_379_458">
<rect width="211" height="40" fill="white"/>
</clipPath>
</defs>
</svg>
