<svg width="48" height="34" viewBox="0 0 48 34" fill="none" xmlns="http://www.w3.org/2000/svg">
<g filter="url(#filter0_ii_210_1438)">
<path d="M0 4.51371C0 2.02086 2.0467 0 4.57143 0H43.4286C45.9533 0 48 2.02086 48 4.51371V29.4863C48 31.9791 45.9533 34 43.4286 34H4.57143C2.0467 34 0 31.9791 0 29.4863V4.51371Z" fill="#CDC9C1"/>
<path d="M0 4.51371C0 2.02086 2.0467 0 4.57143 0H43.4286C45.9533 0 48 2.02086 48 4.51371V29.4863C48 31.9791 45.9533 34 43.4286 34H4.57143C2.0467 34 0 31.9791 0 29.4863V4.51371Z" fill="url(#paint0_radial_210_1438)" fill-opacity="0.1"/>
<path d="M0 4.51371C0 2.02086 2.0467 0 4.57143 0H43.4286C45.9533 0 48 2.02086 48 4.51371V29.4863C48 31.9791 45.9533 34 43.4286 34H4.57143C2.0467 34 0 31.9791 0 29.4863V4.51371Z" fill="url(#paint1_radial_210_1438)" fill-opacity="0.1"/>
<path d="M0 4.51371C0 2.02086 2.0467 0 4.57143 0H43.4286C45.9533 0 48 2.02086 48 4.51371V29.4863C48 31.9791 45.9533 34 43.4286 34H4.57143C2.0467 34 0 31.9791 0 29.4863V4.51371Z" fill="url(#paint2_radial_210_1438)" fill-opacity="0.1"/>
</g>
<path fill-rule="evenodd" clip-rule="evenodd" d="M2 5.29226C2 4.57863 2.5794 4.00012 3.29412 4.00012H13.512C14.2267 4.00012 14.8061 4.57863 14.8061 5.29226V11.7192C14.8061 12.4328 14.2267 13.0114 13.512 13.0114H3.29412C2.5794 13.0114 2 12.4328 2 11.7192V5.29226ZM3.29412 4.51698C2.86529 4.51698 2.51765 4.86408 2.51765 5.29226V11.7192C2.51765 12.1474 2.86528 12.4945 3.29412 12.4945H13.512C13.9409 12.4945 14.2885 12.1474 14.2885 11.7192V5.29226C14.2885 4.86408 13.9409 4.51698 13.512 4.51698H3.29412Z" fill="#10141E"/>
<path fill-rule="evenodd" clip-rule="evenodd" d="M2 13.7865C2 13.0729 2.5794 12.4944 3.29412 12.4944H13.512C14.2267 12.4944 14.8061 13.0729 14.8061 13.7865V20.2135C14.8061 20.9271 14.2267 21.5056 13.512 21.5056H3.29412C2.5794 21.5056 2 20.9271 2 20.2135V13.7865ZM3.29412 13.0112C2.86529 13.0112 2.51765 13.3583 2.51765 13.7865V20.2135C2.51765 20.6417 2.86528 20.9888 3.29412 20.9888H13.512C13.9409 20.9888 14.2885 20.6417 14.2885 20.2135V13.7865C14.2885 13.3583 13.9409 13.0112 13.512 13.0112H3.29412Z" fill="#10141E"/>
<path fill-rule="evenodd" clip-rule="evenodd" d="M17.1243 12.8427C17.1243 12.129 17.7037 11.5505 18.4184 11.5505H32.4174C33.1321 11.5505 33.7115 12.129 33.7115 12.8427V13.1348C33.7115 13.8484 33.1321 14.4269 32.4174 14.4269H31.6522C31.2234 14.4269 30.8757 14.774 30.8757 15.2022V22.1011C30.8757 22.8147 30.2963 23.3932 29.5816 23.3932H15.5826C14.8679 23.3932 14.2885 22.8147 14.2885 22.1011V21.3371C14.2885 20.6234 14.8679 20.0449 15.5826 20.0449H16.3478C16.7767 20.0449 17.1243 19.6978 17.1243 19.2696V12.8427ZM18.4184 12.0674C17.9896 12.0674 17.642 12.4145 17.642 12.8427V19.2696C17.642 19.9833 17.0626 20.5618 16.3478 20.5618H15.5826C15.1538 20.5618 14.8062 20.9089 14.8062 21.3371V22.1011C14.8062 22.5293 15.1538 22.8764 15.5826 22.8764H29.5816C30.0104 22.8764 30.3581 22.5293 30.3581 22.1011V15.2022C30.3581 14.4886 30.9375 13.9101 31.6522 13.9101H32.4174C32.8462 13.9101 33.1939 13.563 33.1939 13.1348V12.8427C33.1939 12.4145 32.8462 12.0674 32.4174 12.0674H18.4184Z" fill="#10141E"/>
<path fill-rule="evenodd" clip-rule="evenodd" d="M2 22.2809C2 21.5673 2.5794 20.9888 3.29412 20.9888H13.512C14.2267 20.9888 14.8061 21.5673 14.8061 22.2809V28.7079C14.8061 29.4215 14.2267 30 13.512 30H3.29412C2.5794 30 2 29.4215 2 28.7079V22.2809ZM3.29412 21.5056C2.86529 21.5056 2.51765 21.8527 2.51765 22.2809V28.7079C2.51765 29.136 2.86528 29.4832 3.29412 29.4832H13.512C13.9409 29.4832 14.2885 29.136 14.2885 28.7079V22.2809C14.2885 21.8527 13.9409 21.5056 13.512 21.5056H3.29412Z" fill="#10141E"/>
<path fill-rule="evenodd" clip-rule="evenodd" d="M33.1938 5.29214C33.1938 4.57851 33.7732 4 34.488 4H44.7059C45.4206 4 46 4.57851 46 5.29213V11.7191C46 12.4327 45.4206 13.0112 44.7059 13.0112H34.488C33.7732 13.0112 33.1938 12.4327 33.1938 11.7191V5.29214ZM34.488 4.51685C34.0591 4.51685 33.7115 4.86396 33.7115 5.29214V11.7191C33.7115 12.1473 34.0591 12.4944 34.488 12.4944H44.7059C45.1347 12.4944 45.4823 12.1473 45.4823 11.7191V5.29213C45.4823 4.86396 45.1347 4.51685 44.7059 4.51685H34.488Z" fill="#10141E"/>
<path fill-rule="evenodd" clip-rule="evenodd" d="M33.1938 13.7865C33.1938 13.0729 33.7732 12.4944 34.488 12.4944H44.7059C45.4206 12.4944 46 13.0729 46 13.7865V20.2135C46 20.9271 45.4206 21.5056 44.7059 21.5056H34.488C33.7732 21.5056 33.1938 20.9271 33.1938 20.2135V13.7865ZM34.488 13.0112C34.0591 13.0112 33.7115 13.3583 33.7115 13.7865V20.2135C33.7115 20.6417 34.0591 20.9888 34.488 20.9888H44.7059C45.1347 20.9888 45.4823 20.6417 45.4823 20.2135V13.7865C45.4823 13.3583 45.1347 13.0112 44.7059 13.0112H34.488Z" fill="#10141E"/>
<path fill-rule="evenodd" clip-rule="evenodd" d="M33.1938 22.2809C33.1938 21.5673 33.7732 20.9888 34.488 20.9888H44.7059C45.4206 20.9888 46 21.5673 46 22.2809V28.7079C46 29.4215 45.4206 30 44.7059 30H34.488C33.7732 30 33.1938 29.4215 33.1938 28.7079V22.2809ZM34.488 21.5056C34.0591 21.5056 33.7115 21.8527 33.7115 22.2809V28.7079C33.7115 29.136 34.0591 29.4832 34.488 29.4832H44.7059C45.1347 29.4832 45.4823 29.136 45.4823 28.7079V22.2809C45.4823 21.8527 45.1347 21.5056 44.7059 21.5056H34.488Z" fill="#10141E"/>
<defs>
<filter id="filter0_ii_210_1438" x="0" y="0" width="48" height="34" filterUnits="userSpaceOnUse" color-interpolation-filters="sRGB">
<feFlood flood-opacity="0" result="BackgroundImageFix"/>
<feBlend mode="normal" in="SourceGraphic" in2="BackgroundImageFix" result="shape"/>
<feColorMatrix in="SourceAlpha" type="matrix" values="0 0 0 0 0 0 0 0 0 0 0 0 0 0 0 0 0 0 127 0" result="hardAlpha"/>
<feOffset dx="-1" dy="-1"/>
<feComposite in2="hardAlpha" operator="arithmetic" k2="-1" k3="1"/>
<feColorMatrix type="matrix" values="0 0 0 0 0.184314 0 0 0 0 0.152941 0 0 0 0 0.0941176 0 0 0 0.2 0"/>
<feBlend mode="normal" in2="shape" result="effect1_innerShadow_210_1438"/>
<feColorMatrix in="SourceAlpha" type="matrix" values="0 0 0 0 0 0 0 0 0 0 0 0 0 0 0 0 0 0 127 0" result="hardAlpha"/>
<feOffset dx="1" dy="1"/>
<feComposite in2="hardAlpha" operator="arithmetic" k2="-1" k3="1"/>
<feColorMatrix type="matrix" values="0 0 0 0 0.184314 0 0 0 0 0.152941 0 0 0 0 0.0941176 0 0 0 0.2 0"/>
<feBlend mode="normal" in2="effect1_innerShadow_210_1438" result="effect2_innerShadow_210_1438"/>
</filter>
<radialGradient id="paint0_radial_210_1438" cx="0" cy="0" r="1" gradientTransform="matrix(12 34 -48 16.5161 12 -5.06639e-07)" gradientUnits="userSpaceOnUse">
<stop stop-color="#C29632"/>
<stop offset="1" stop-color="#C29632" stop-opacity="0"/>
</radialGradient>
<radialGradient id="paint1_radial_210_1438" cx="0" cy="0" r="1" gradientTransform="matrix(-24 16.4848 -23.2727 -33.0321 48 17.5152)" gradientUnits="userSpaceOnUse">
<stop stop-color="#664700"/>
<stop offset="1" stop-color="#664700"/>
</radialGradient>
<radialGradient id="paint2_radial_210_1438" cx="0" cy="0" r="1" gradientTransform="matrix(41.7391 -16.4848 23.2727 57.4472 6.26087 34)" gradientUnits="userSpaceOnUse">
<stop stop-color="#402200"/>
<stop offset="1" stop-color="#402200" stop-opacity="0"/>
</radialGradient>
</defs>
</svg>
