<svg width="46" height="45" viewBox="0 0 46 45" fill="none" xmlns="http://www.w3.org/2000/svg">
<g filter="url(#filter0_n_235_1365)">
<rect x="0.526855" y="9.8363" width="44" height="34.0758" rx="7.02595" fill="#187393"/>
</g>
<rect x="0.526855" y="17.5648" width="44" height="26.3473" rx="7.02595" fill="#20457C"/>
<g filter="url(#filter1_i_235_1365)">
<rect x="2.39258" width="40.2688" height="24.099" rx="6.32335" fill="#2CA8FF"/>
</g>
<g filter="url(#filter2_di_235_1365)">
<rect x="2.39258" y="5.88428" width="40.2688" height="24.099" rx="6.32335" fill="#5BFF8C"/>
</g>
<g filter="url(#filter3_di_235_1365)">
<rect x="2.39258" y="11.7684" width="40.2688" height="24.099" rx="6.32335" fill="white"/>
</g>
<g filter="url(#filter4_din_235_1365)">
<rect x="0.526855" y="17.6527" width="44" height="26.3473" rx="7.02595" fill="#2C94B9"/>
</g>
<g filter="url(#filter5_i_235_1365)">
<path d="M26.3145 32.0588C26.3358 32.5547 26.2667 33.0932 26.2028 33.6317C26.1974 33.685 26.1868 33.7383 26.1708 33.7863C26.1389 33.9249 26.0697 34.0475 25.9046 34.0208C25.7397 33.9889 25.7024 33.8556 25.729 33.7117C25.7822 33.3597 25.8088 33.0079 25.8408 32.656C25.9313 31.6377 25.8408 30.63 25.5906 29.6437C25.1861 28.0602 23.5838 27.0579 21.9922 27.3458C20.3474 27.6444 19.2029 29.1105 19.3519 30.7526C19.3945 31.2218 19.5276 31.6804 19.4957 32.1548C19.4903 32.2508 19.4903 32.3521 19.4691 32.448C19.4424 32.576 19.3786 32.6933 19.2242 32.6773C19.0592 32.6614 19.0006 32.5334 19.0166 32.3895C19.0379 32.1602 19.0539 31.9309 19.0219 31.7017C18.9421 31.0886 18.825 30.4754 18.9421 29.8516C19.2668 28.1295 20.7679 26.85 22.5085 26.8393C24.2225 26.8286 25.7609 28.0922 26.0963 29.793C26.24 30.5234 26.3305 31.2645 26.3145 32.0588Z" fill="#133568"/>
<path d="M27.8635 29.9742C27.8688 30.1661 27.8795 30.3261 27.6825 30.3474C27.4962 30.3687 27.4483 30.2194 27.4217 30.0702C27.2992 29.2331 27.0704 28.4334 26.57 27.7403C25.3297 26.0182 23.6477 25.3411 21.577 25.6876C19.6926 26.0022 18.1595 27.543 17.7443 29.4304C17.7071 29.601 17.7124 29.8622 17.4409 29.8036C17.1535 29.7449 17.2653 29.4997 17.3078 29.3184C17.8295 27.0418 19.7405 25.3837 22.0134 25.1598C24.7176 24.8932 27.3153 26.7699 27.7997 29.617C27.8262 29.7556 27.8475 29.8889 27.8635 29.9742Z" fill="#133568"/>
<path d="M22.6093 24.7706C19.7082 24.6693 17.0893 26.8766 16.7965 30.0328C16.7433 30.614 16.8231 31.1845 16.9136 31.755C17.0041 32.3041 16.8391 32.7892 16.4984 33.2211C16.4026 33.3438 16.2801 33.4664 16.1205 33.3331C15.9554 33.1998 16.0513 33.0612 16.1524 32.9386C16.4771 32.544 16.5197 32.0909 16.4345 31.6056C15.8437 28.0655 18.1273 24.8986 21.6831 24.3494C22.1994 24.2695 22.7264 24.2481 23.248 24.3334C23.3971 24.3601 23.5462 24.3974 23.5355 24.584C23.5195 24.792 23.3599 24.7866 23.2002 24.7813C23.0032 24.7653 22.8062 24.7706 22.6093 24.7706Z" fill="#133568"/>
<path d="M23.7651 32.0321C23.7384 33.9728 23.1582 35.7269 21.9978 37.289C21.9019 37.417 21.7955 37.5769 21.6092 37.4436C21.4335 37.3156 21.5187 37.1664 21.6198 37.0278C22.4981 35.8442 23.0464 34.5219 23.2381 33.0557C23.3552 32.1547 23.3179 31.2697 23.1422 30.3846C23.0677 30.0061 22.7377 29.8088 22.3651 29.8888C22.051 29.9581 21.8541 30.2727 21.9232 30.6299C22.0882 31.5043 22.1095 32.3733 21.9499 33.2477C21.9179 33.4236 21.9179 33.6796 21.6571 33.6422C21.391 33.6049 21.4708 33.3703 21.5027 33.189C21.6411 32.384 21.6464 31.5842 21.4868 30.7845C21.3484 30.0861 21.7103 29.5476 22.381 29.4249C22.9612 29.3183 23.4936 29.7342 23.616 30.3953C23.6532 30.5979 23.6905 30.7952 23.7065 30.9978C23.7331 31.339 23.7864 31.6855 23.7651 32.0321Z" fill="#133568"/>
<path d="M28.8694 32.0641C28.896 32.5332 28.8481 33.0344 28.7948 33.5356C28.7789 33.7009 28.7736 33.9407 28.5181 33.9034C28.2732 33.8661 28.3211 33.6475 28.3424 33.4716C28.5181 32.0001 28.4542 30.5392 28.0922 29.1104C27.5971 27.1324 26.3516 25.7995 24.4512 25.0691C24.4087 25.0531 24.3661 25.0424 24.3235 25.0264C24.1957 24.9731 24.0946 24.8931 24.1425 24.7439C24.1957 24.5839 24.3288 24.5679 24.4725 24.6106C24.8398 24.7225 25.1911 24.8718 25.5212 25.0638C27.3789 26.1354 28.4116 27.7615 28.7097 29.8728C28.8108 30.5872 28.8906 31.3016 28.8694 32.0641Z" fill="#133568"/>
<path d="M22.4231 27.6923C22.5296 27.6923 22.5668 27.687 22.5987 27.6923C22.7531 27.7083 22.9288 27.735 22.9341 27.9269C22.9394 28.1402 22.7585 28.1668 22.5881 28.1668C21.6938 28.1508 21.0125 28.524 20.5387 29.2758C20.2246 29.777 20.1235 30.3261 20.2353 30.9125C20.5919 32.8373 20.0703 34.4953 18.6969 35.8815C18.649 35.9295 18.5958 35.9829 18.5372 36.0255C18.4201 36.1215 18.2924 36.1534 18.1859 36.0255C18.0848 35.9082 18.138 35.7909 18.2338 35.6949C18.5213 35.4177 18.7981 35.1298 19.0216 34.7993C19.7615 33.6956 20.0703 32.4853 19.8041 31.1791C19.4475 29.3877 20.6505 27.767 22.4231 27.6923Z" fill="#133568"/>
<path d="M25.4678 31.8456C25.4625 33.8343 25.0153 35.5457 24.121 37.1452C24.1051 37.1771 24.0891 37.2091 24.0678 37.2358C23.9826 37.3744 23.8709 37.4597 23.7165 37.3637C23.5727 37.2784 23.5994 37.1398 23.6739 37.0119C23.8549 36.6973 24.0146 36.3721 24.1636 36.0362C24.7545 34.7087 25.026 33.3171 25.0153 31.8669C25.01 31.2218 24.9408 30.5713 24.7917 29.9423C24.6693 29.4038 24.3819 28.9666 23.94 28.6307C23.8496 28.5614 23.7484 28.4974 23.6633 28.4281C23.5727 28.3535 23.5195 28.2628 23.5888 28.1509C23.6579 28.0336 23.7644 28.0069 23.8868 28.0655C24.1849 28.2148 24.4298 28.4228 24.648 28.6787C25.0792 29.1852 25.2655 29.7876 25.3507 30.4327C25.4146 30.9552 25.4838 31.4724 25.4678 31.8456Z" fill="#133568"/>
<path d="M22.5404 23.4804C23.5571 23.4111 24.5099 23.651 25.4308 24.0615C25.4574 24.0722 25.4787 24.0829 25.5053 24.0935C25.6597 24.1575 25.7874 24.2482 25.7129 24.4348C25.6331 24.6267 25.4734 24.5734 25.3296 24.5041C24.8293 24.2695 24.3076 24.0829 23.7646 24.0029C21.1776 23.5977 19.0271 24.3868 17.345 26.4128C17.2332 26.5514 17.1321 26.7913 16.9085 26.626C16.669 26.4501 16.8819 26.2741 16.9937 26.1302C18.202 24.6214 19.7724 23.7417 21.6887 23.4857C21.9655 23.4484 22.2529 23.4804 22.5404 23.4804Z" fill="#133568"/>
<path d="M27.1712 31.8669C27.1766 33.397 26.9423 34.7352 26.4845 36.0361C26.4526 36.1214 26.4207 36.2014 26.3887 36.2867C26.3355 36.4253 26.245 36.5267 26.0853 36.468C25.9309 36.4093 25.915 36.2814 25.9682 36.1374C26.0374 35.9348 26.1066 35.7375 26.1705 35.5296C26.5644 34.3033 26.7613 33.0398 26.7134 31.7495C26.6709 30.662 26.6123 29.5636 26.08 28.5666C26.0002 28.4174 25.9043 28.2787 25.8192 28.1295C25.7499 28.0068 25.7393 27.8842 25.8617 27.7989C25.9948 27.7029 26.096 27.7776 26.1811 27.8842C26.575 28.4067 26.8093 28.9985 26.937 29.6276C27.0914 30.422 27.1872 31.2111 27.1712 31.8669Z" fill="#133568"/>
<path d="M18.1967 31.9202C18.1701 31.7443 18.1328 31.4723 18.0955 31.2004C17.872 29.585 18.367 28.2254 19.5594 27.1165C19.602 27.0738 19.6552 27.0365 19.7031 26.9992C19.8042 26.9352 19.9054 26.9352 19.9905 27.0258C20.081 27.1165 20.0651 27.2231 19.9905 27.3137C19.9213 27.3937 19.8415 27.4684 19.767 27.543C18.7077 28.588 18.3085 29.8409 18.5746 31.3071C18.7982 32.5387 18.4628 33.6103 17.6377 34.5326C17.5313 34.6499 17.4035 34.7513 17.2758 34.8472C17.18 34.9165 17.0735 34.9218 16.9883 34.8259C16.8978 34.7192 16.9191 34.6126 17.0096 34.5167C17.0895 34.4314 17.1746 34.3567 17.2545 34.2714C17.8666 33.6423 18.1701 32.8905 18.1967 31.9202Z" fill="#133568"/>
<path d="M22.9131 32.0482C22.8759 33.9409 22.2743 35.6257 21.0607 37.0918C21.0341 37.1238 21.0074 37.1611 20.9755 37.1931C20.8744 37.3051 20.7519 37.3584 20.6295 37.2518C20.5124 37.1558 20.539 37.0278 20.6242 36.9159C20.7679 36.724 20.9223 36.5427 21.0607 36.3454C21.9603 35.0925 22.4074 33.685 22.466 32.1442C22.4819 31.6643 22.418 31.1898 22.3435 30.7153C22.3329 30.662 22.3222 30.6087 22.3169 30.5554C22.3063 30.4167 22.3435 30.2994 22.4979 30.2781C22.6523 30.2515 22.7268 30.3474 22.7534 30.486C22.8599 31.0032 22.9185 31.5257 22.9131 32.0482Z" fill="#133568"/>
<path d="M29.5668 30.2514C29.5668 30.3581 29.5668 30.4647 29.5668 30.5713C29.5668 30.7099 29.5295 30.8272 29.3645 30.8326C29.1995 30.8379 29.1356 30.7206 29.125 30.5713C29.1143 30.3047 29.109 30.0382 29.0771 29.7769C28.8535 27.8895 27.9752 26.37 26.4794 25.2078C26.3463 25.1011 26.1281 24.9998 26.2772 24.7919C26.4209 24.5946 26.5965 24.7439 26.7349 24.8506C28.5235 26.2048 29.4337 28.0228 29.5668 30.2514Z" fill="#133568"/>
<path d="M24.611 31.6909C24.611 31.7709 24.611 31.8508 24.611 31.9308C24.6056 32.0748 24.5577 32.2081 24.3874 32.2081C24.217 32.2081 24.1745 32.0801 24.1691 31.9308C24.1425 31.3923 24.0999 30.8538 24.0041 30.3207C23.8072 29.2437 22.7373 28.6946 21.811 29.2011C21.5023 29.3717 21.2681 29.6276 21.1456 29.9688C21.1297 30.0115 21.1137 30.0541 21.103 30.0967C21.0551 30.2461 20.9966 30.406 20.7996 30.3473C20.5867 30.2834 20.6293 30.1021 20.6772 29.9475C20.8901 29.297 21.3106 28.8385 21.9707 28.6466C23.0939 28.316 24.1745 28.9771 24.43 30.1394C24.5417 30.6459 24.5843 31.1684 24.611 31.6909Z" fill="#133568"/>
<path d="M21.1986 32.0322C21.1773 33.7116 20.5758 35.1565 19.4207 36.3774C19.3834 36.4147 19.3461 36.452 19.3089 36.4894C19.1971 36.596 19.064 36.66 18.9363 36.532C18.7978 36.3987 18.8777 36.2707 18.9895 36.1642C19.3727 35.7909 19.6974 35.3751 19.9689 34.9113C20.5651 33.8769 20.8366 32.768 20.7301 31.5683C20.7248 31.4777 20.7195 31.3924 20.7195 31.3018C20.7142 31.1578 20.7514 31.0192 20.9164 31.0086C21.0868 30.9926 21.14 31.1205 21.1613 31.2645C21.1773 31.3711 21.1986 31.4724 21.2039 31.579C21.2039 31.7283 21.1986 31.8776 21.1986 32.0322Z" fill="#133568"/>
<path d="M15.4926 30.5446C15.4713 29.4196 15.7161 28.4227 16.1633 27.4683C16.1952 27.3937 16.2325 27.3244 16.2804 27.2604C16.3443 27.1751 16.4347 27.1324 16.5359 27.1857C16.6477 27.2391 16.6903 27.335 16.6477 27.4523C16.5944 27.6016 16.5252 27.7456 16.4614 27.8948C15.9237 29.1637 15.7907 30.4753 16.0728 31.8295C16.11 32.0055 16.2431 32.2507 15.9557 32.32C15.6682 32.3893 15.6682 32.1121 15.631 31.9362C15.5351 31.4563 15.4659 30.9711 15.4926 30.5446Z" fill="#133568"/>
<path d="M22.4764 25.9808C23.5037 26.0182 24.3873 26.2847 25.1699 26.8552C25.1965 26.8765 25.2284 26.8979 25.255 26.9192C25.3722 27.0258 25.5371 27.1325 25.3934 27.3137C25.255 27.495 25.1113 27.3724 24.9782 27.2764C23.7433 26.37 22.4072 26.2208 20.9806 26.7539C20.9487 26.7646 20.9167 26.7806 20.8795 26.7912C20.7517 26.8392 20.6239 26.8392 20.5601 26.7006C20.4855 26.546 20.576 26.4447 20.7091 26.3807C21.1083 26.1941 21.5236 26.0875 21.9547 26.0288C22.1517 26.0075 22.3433 25.9968 22.4764 25.9808Z" fill="#133568"/>
<path d="M24.5526 33.1305C24.4514 33.9515 24.2598 34.7352 23.967 35.4923C23.7275 36.1054 23.4348 36.6919 23.0675 37.2411C23.0302 37.2997 22.9929 37.3637 22.945 37.417C22.8492 37.529 22.7268 37.5503 22.615 37.4756C22.4926 37.3957 22.5139 37.2784 22.5777 37.1664C22.6895 36.9745 22.8173 36.7932 22.9291 36.6013C23.5306 35.5563 23.9192 34.442 24.0735 33.2424C24.0789 33.1784 24.0948 33.1198 24.1108 33.0612C24.1427 32.9332 24.2226 32.8532 24.361 32.8692C24.5047 32.8905 24.5526 33.0025 24.5526 33.1305Z" fill="#133568"/>
<path d="M28.0127 32.0801C28.0287 33.109 27.8903 34.1167 27.6507 35.1137C27.6401 35.1457 27.6348 35.183 27.6241 35.215C27.5762 35.3696 27.5389 35.5616 27.3207 35.5029C27.1131 35.4496 27.1344 35.2736 27.177 35.1084C27.2888 34.6765 27.3792 34.2447 27.4325 33.8022C27.5389 32.9918 27.6188 32.1814 27.5389 31.3603C27.523 31.195 27.5443 31.0351 27.7359 31.0084C27.9541 30.9818 27.9967 31.1577 28.0021 31.3283C28.018 31.5789 28.0127 31.8295 28.0127 32.0801Z" fill="#133568"/>
<path d="M17.8029 31.9628C17.7709 32.8371 17.4675 33.5303 16.8607 34.09C16.7596 34.1807 16.6478 34.234 16.5307 34.1274C16.4082 34.0154 16.4242 33.8768 16.536 33.7755C17.3398 33.0451 17.4516 32.1387 17.228 31.1364C17.196 30.9925 17.2014 30.8378 17.2014 30.6885C17.2067 30.5712 17.2759 30.4806 17.3983 30.4806C17.5208 30.4753 17.6059 30.5499 17.6219 30.6672C17.6911 31.1151 17.7496 31.5629 17.8029 31.9628Z" fill="#133568"/>
<path d="M21.5661 34.5861C21.5128 34.7086 21.4436 34.8686 21.3691 35.0285C21.0497 35.7057 20.6399 36.3241 20.1182 36.8626C20.0064 36.9746 19.884 37.0812 19.7349 36.9373C19.5965 36.804 19.6817 36.676 19.7828 36.5694C20.3577 35.9563 20.7995 35.2578 21.1243 34.4794C21.1775 34.3514 21.2573 34.2395 21.4224 34.2875C21.5448 34.3248 21.582 34.4208 21.5661 34.5861Z" fill="#133568"/>
<path d="M19.2025 33.5889C19.1865 33.6422 19.1599 33.7168 19.1333 33.7862C18.8618 34.4259 18.4519 34.9591 17.9356 35.4176C17.8132 35.5296 17.6694 35.5936 17.5417 35.439C17.4192 35.295 17.5204 35.1671 17.6322 35.0764C18.1272 34.6552 18.4892 34.1381 18.7394 33.5409C18.7979 33.4077 18.8724 33.3063 19.0375 33.3384C19.1439 33.3703 19.1972 33.4503 19.2025 33.5889Z" fill="#133568"/>
<path d="M25.9313 34.9165C25.9153 34.9805 25.9046 35.0498 25.8833 35.1191C25.7077 35.7162 25.5001 36.2974 25.2232 36.8572C25.1541 37.0011 25.0583 37.1344 24.8773 37.0491C24.7069 36.9691 24.7495 36.8145 24.8134 36.6812C25.0796 36.1001 25.3084 35.503 25.4788 34.8899C25.516 34.7459 25.5905 34.6446 25.7609 34.6766C25.8833 34.7033 25.9313 34.7939 25.9313 34.9165Z" fill="#133568"/>
</g>
<defs>
<filter id="filter0_n_235_1365" x="0.526855" y="9.8363" width="44" height="34.0758" filterUnits="userSpaceOnUse" color-interpolation-filters="sRGB">
<feFlood flood-opacity="0" result="BackgroundImageFix"/>
<feBlend mode="normal" in="SourceGraphic" in2="BackgroundImageFix" result="shape"/>
<feTurbulence type="fractalNoise" baseFrequency="7.1164770126342773 7.1164770126342773" stitchTiles="stitch" numOctaves="3" result="noise" seed="9" />
<feColorMatrix in="noise" type="luminanceToAlpha" result="alphaNoise" />
<feComponentTransfer in="alphaNoise" result="coloredNoise1">
<feFuncA type="discrete" tableValues="1 1 1 1 1 1 1 1 1 1 1 1 1 1 1 1 1 1 1 1 1 1 1 1 1 1 1 1 1 1 1 1 1 1 1 1 1 1 1 1 1 1 1 1 1 1 1 1 1 1 1 0 0 0 0 0 0 0 0 0 0 0 0 0 0 0 0 0 0 0 0 0 0 0 0 0 0 0 0 0 0 0 0 0 0 0 0 0 0 0 0 0 0 0 0 0 0 0 0 0 "/>
</feComponentTransfer>
<feComposite operator="in" in2="shape" in="coloredNoise1" result="noise1Clipped" />
<feFlood flood-color="rgba(0, 0, 0, 0.25)" result="color1Flood" />
<feComposite operator="in" in2="noise1Clipped" in="color1Flood" result="color1" />
<feMerge result="effect1_noise_235_1365">
<feMergeNode in="shape" />
<feMergeNode in="color1" />
</feMerge>
</filter>
<filter id="filter1_i_235_1365" x="2.39258" y="0" width="40.269" height="24.099" filterUnits="userSpaceOnUse" color-interpolation-filters="sRGB">
<feFlood flood-opacity="0" result="BackgroundImageFix"/>
<feBlend mode="normal" in="SourceGraphic" in2="BackgroundImageFix" result="shape"/>
<feColorMatrix in="SourceAlpha" type="matrix" values="0 0 0 0 0 0 0 0 0 0 0 0 0 0 0 0 0 0 127 0" result="hardAlpha"/>
<feMorphology radius="1.05389" operator="erode" in="SourceAlpha" result="effect1_innerShadow_235_1365"/>
<feOffset/>
<feGaussianBlur stdDeviation="1.14172"/>
<feComposite in2="hardAlpha" operator="arithmetic" k2="-1" k3="1"/>
<feColorMatrix type="matrix" values="0 0 0 0 0 0 0 0 0 0.0960784 0 0 0 0 0.163898 0 0 0 0.15 0"/>
<feBlend mode="normal" in2="shape" result="effect1_innerShadow_235_1365"/>
</filter>
<filter id="filter2_di_235_1365" x="1.33869" y="4.65474" width="42.3768" height="26.2068" filterUnits="userSpaceOnUse" color-interpolation-filters="sRGB">
<feFlood flood-opacity="0" result="BackgroundImageFix"/>
<feColorMatrix in="SourceAlpha" type="matrix" values="0 0 0 0 0 0 0 0 0 0 0 0 0 0 0 0 0 0 127 0" result="hardAlpha"/>
<feOffset dy="-0.175649"/>
<feGaussianBlur stdDeviation="0.526946"/>
<feComposite in2="hardAlpha" operator="out"/>
<feColorMatrix type="matrix" values="0 0 0 0 0 0 0 0 0 0 0 0 0 0 0 0 0 0 0.15 0"/>
<feBlend mode="normal" in2="BackgroundImageFix" result="effect1_dropShadow_235_1365"/>
<feBlend mode="normal" in="SourceGraphic" in2="effect1_dropShadow_235_1365" result="shape"/>
<feColorMatrix in="SourceAlpha" type="matrix" values="0 0 0 0 0 0 0 0 0 0 0 0 0 0 0 0 0 0 127 0" result="hardAlpha"/>
<feMorphology radius="1.05389" operator="erode" in="SourceAlpha" result="effect2_innerShadow_235_1365"/>
<feOffset/>
<feGaussianBlur stdDeviation="1.14172"/>
<feComposite in2="hardAlpha" operator="arithmetic" k2="-1" k3="1"/>
<feColorMatrix type="matrix" values="0 0 0 0 0.0350989 0 0 0 0 0.366696 0 0 0 0 0.133788 0 0 0 0.15 0"/>
<feBlend mode="normal" in2="shape" result="effect2_innerShadow_235_1365"/>
</filter>
<filter id="filter3_di_235_1365" x="1.33869" y="10.5389" width="42.3768" height="26.2068" filterUnits="userSpaceOnUse" color-interpolation-filters="sRGB">
<feFlood flood-opacity="0" result="BackgroundImageFix"/>
<feColorMatrix in="SourceAlpha" type="matrix" values="0 0 0 0 0 0 0 0 0 0 0 0 0 0 0 0 0 0 127 0" result="hardAlpha"/>
<feOffset dy="-0.175649"/>
<feGaussianBlur stdDeviation="0.526946"/>
<feComposite in2="hardAlpha" operator="out"/>
<feColorMatrix type="matrix" values="0 0 0 0 0 0 0 0 0 0 0 0 0 0 0 0 0 0 0.15 0"/>
<feBlend mode="normal" in2="BackgroundImageFix" result="effect1_dropShadow_235_1365"/>
<feBlend mode="normal" in="SourceGraphic" in2="effect1_dropShadow_235_1365" result="shape"/>
<feColorMatrix in="SourceAlpha" type="matrix" values="0 0 0 0 0 0 0 0 0 0 0 0 0 0 0 0 0 0 127 0" result="hardAlpha"/>
<feMorphology radius="1.05389" operator="erode" in="SourceAlpha" result="effect2_innerShadow_235_1365"/>
<feOffset/>
<feGaussianBlur stdDeviation="1.14172"/>
<feComposite in2="hardAlpha" operator="arithmetic" k2="-1" k3="1"/>
<feColorMatrix type="matrix" values="0 0 0 0 0 0 0 0 0 0 0 0 0 0 0 0 0 0 0.15 0"/>
<feBlend mode="normal" in2="shape" result="effect2_innerShadow_235_1365"/>
</filter>
<filter id="filter4_din_235_1365" x="-9.06587e-05" y="16.915" width="45.0539" height="27.4012" filterUnits="userSpaceOnUse" color-interpolation-filters="sRGB">
<feFlood flood-opacity="0" result="BackgroundImageFix"/>
<feColorMatrix in="SourceAlpha" type="matrix" values="0 0 0 0 0 0 0 0 0 0 0 0 0 0 0 0 0 0 127 0" result="hardAlpha"/>
<feMorphology radius="0.0702595" operator="dilate" in="SourceAlpha" result="effect1_dropShadow_235_1365"/>
<feOffset dy="-0.210778"/>
<feGaussianBlur stdDeviation="0.228343"/>
<feComposite in2="hardAlpha" operator="out"/>
<feColorMatrix type="matrix" values="0 0 0 0 0 0 0 0 0 0 0 0 0 0 0 0 0 0 0.15 0"/>
<feBlend mode="normal" in2="BackgroundImageFix" result="effect1_dropShadow_235_1365"/>
<feBlend mode="normal" in="SourceGraphic" in2="BackgroundImageFix" result="shape"/>
<feColorMatrix in="SourceAlpha" type="matrix" values="0 0 0 0 0 0 0 0 0 0 0 0 0 0 0 0 0 0 127 0" result="hardAlpha"/>
<feMorphology radius="2.88064" operator="erode" in="SourceAlpha" result="effect2_innerShadow_235_1365"/>
<feOffset/>
<feGaussianBlur stdDeviation="1.24711"/>
<feComposite in2="hardAlpha" operator="arithmetic" k2="-1" k3="1"/>
<feColorMatrix type="matrix" values="0 0 0 0 0 0 0 0 0 0 0 0 0 0 0 0 0 0 0.14 0"/>
<feBlend mode="normal" in2="shape" result="effect2_innerShadow_235_1365"/>
<feTurbulence type="fractalNoise" baseFrequency="56.931816101074219 56.931816101074219" stitchTiles="stitch" numOctaves="3" result="noise" seed="8418" />
<feColorMatrix in="noise" type="luminanceToAlpha" result="alphaNoise" />
<feComponentTransfer in="alphaNoise" result="coloredNoise1">
<feFuncA type="discrete" tableValues="1 1 1 1 1 1 1 1 1 1 1 1 1 1 1 1 1 1 1 1 1 1 1 1 1 1 1 1 1 1 1 1 1 1 1 1 1 1 1 1 1 1 1 1 1 1 1 1 1 1 1 0 0 0 0 0 0 0 0 0 0 0 0 0 0 0 0 0 0 0 0 0 0 0 0 0 0 0 0 0 0 0 0 0 0 0 0 0 0 0 0 0 0 0 0 0 0 0 0 0 "/>
</feComponentTransfer>
<feComposite operator="in" in2="effect2_innerShadow_235_1365" in="coloredNoise1" result="noise1Clipped" />
<feFlood flood-color="rgba(0, 0, 0, 0.25)" result="color1Flood" />
<feComposite operator="in" in2="noise1Clipped" in="color1Flood" result="color1" />
<feMerge result="effect3_noise_235_1365">
<feMergeNode in="effect2_innerShadow_235_1365" />
<feMergeNode in="color1" />
</feMerge>
<feBlend mode="normal" in="effect3_noise_235_1365" in2="effect1_dropShadow_235_1365" result="effect3_noise_235_1365"/>
</filter>
<filter id="filter5_i_235_1365" x="15.4868" y="23.4677" width="14.0801" height="14.1573" filterUnits="userSpaceOnUse" color-interpolation-filters="sRGB">
<feFlood flood-opacity="0" result="BackgroundImageFix"/>
<feBlend mode="normal" in="SourceGraphic" in2="BackgroundImageFix" result="shape"/>
<feColorMatrix in="SourceAlpha" type="matrix" values="0 0 0 0 0 0 0 0 0 0 0 0 0 0 0 0 0 0 127 0" result="hardAlpha"/>
<feOffset dy="0.105389"/>
<feGaussianBlur stdDeviation="0.122954"/>
<feComposite in2="hardAlpha" operator="arithmetic" k2="-1" k3="1"/>
<feColorMatrix type="matrix" values="0 0 0 0 0 0 0 0 0 0 0 0 0 0 0 0 0 0 0.25 0"/>
<feBlend mode="normal" in2="shape" result="effect1_innerShadow_235_1365"/>
</filter>
</defs>
</svg>
