<svg width="150" height="38" viewBox="0 0 150 38" fill="none" xmlns="http://www.w3.org/2000/svg">
<path d="M142.371 12.2985H142.058V6.919L134.366 6.91902V37.3147L142.58 37.3147V14.1785L149.789 14.1785L149.789 6.44975L148.796 6.44977C144.983 6.44979 143.311 8.12686 142.371 12.2985Z" fill="white"/>
<g opacity="0.5">
<path d="M115.27 6.44902C105.434 6.44902 99.2603 13.6042 99.2603 22.378C99.2603 31.1519 105.643 37.8368 115.061 37.8368C123.118 37.8368 129.03 32.9275 130.756 26.5037H122.49C121.914 29.0626 119.089 31.1519 115.165 31.1519C110.789 31.1519 107.945 28.1477 107.529 23.6314H130.756V21.3334C130.756 12.8206 124.53 6.44902 115.27 6.44902ZM107.756 18.0431C108.966 14.5802 111.911 12.8206 115.27 12.8206C119.104 12.8206 121.579 14.9899 122.753 18.0431H107.756Z" fill="white"/>
</g>
<g opacity="0.5">
<path d="M130.24 23.7101L130.233 18.049L100.185 18.0431L100.192 23.7039L130.24 23.7101Z" fill="white"/>
</g>
<path d="M115.27 6.44901C105.434 6.44901 99.2603 13.6042 99.2603 22.378C99.2603 31.1519 105.643 37.8368 115.061 37.8368C123.118 37.8368 129.03 32.9275 130.756 26.5037H122.49C121.914 29.0626 119.089 31.1519 115.165 31.1519C110.789 31.1519 107.945 28.1477 107.529 23.6313H130.756V21.3334C130.756 12.8206 124.53 6.44901 115.27 6.44901ZM107.756 18.0431C108.966 14.5802 111.911 12.8206 115.27 12.8206C119.104 12.8206 121.579 14.9899 122.753 18.0431H107.756Z" fill="white"/>
<path d="M92.0401 30.6296H98.266V37.3144H93.0865C87.6453 37.3144 84.2968 35.4344 84.2968 28.5406V13.6039H80.5953C79.9462 13.6039 79.6079 12.8328 80.0478 12.3564L90.7476 0.241058C91.2072 -0.256698 92.0401 0.0678431 92.0401 0.744953V6.919H98.2136V13.6039H92.0401V30.6296Z" fill="white"/>
<path d="M69.8566 6.44875C66.1421 6.44875 63.3692 8.59003 62.0088 11.9326H61.7471V6.91875H54.3701V37.3144H62.1134V13.7606H67.2931C69.5427 13.7606 70.3798 14.2306 70.3798 16.6329V37.3144H78.1231V15.1182C78.1231 9.00772 75.1933 6.44875 69.8566 6.44875Z" fill="white"/>
<path d="M40.9766 37.3144H48.7196V6.91901H40.9766V37.3144Z" fill="white"/>
<g>
<path d="M0.399902 36.6256L31.8525 36.6254" stroke="white" stroke-width="1.2487" stroke-miterlimit="10"/>
<path d="M0.849121 31.3849L28.2048 37.2767" stroke="white" stroke-width="1.45681" stroke-miterlimit="10"/>
<path d="M2.30225 25.9365L28.2048 37.2767" stroke="white" stroke-width="1.87305" stroke-miterlimit="10"/>
<path d="M5.28418 19.9646L28.2048 37.2767" stroke="white" stroke-width="2.28928" stroke-miterlimit="10"/>
<path d="M10.4556 14.1912L28.9597 37.2767" stroke="white" stroke-width="3.12175" stroke-miterlimit="10"/>
<path d="M18.2266 9.37094L28.9593 37.2767" stroke="white" stroke-width="3.32986" stroke-miterlimit="10"/>
<path d="M28.9595 6.8791V37.2767" stroke="white" stroke-width="4.78668" stroke-miterlimit="10"/>
<path d="M16.3223 35.974L16.409 35.5394L16.7135 33.9327L16.8441 33.325L17.5401 31.3707L17.8446 30.9363L19.1062 28.8088L19.4979 28.2876L21.934 25.6386L22.3689 25.2478L25.6317 23.424L26.0669 23.2938H31.8527V37.2767H16.3223V35.974Z" fill="white"/>
</g>
</svg>
