<svg width="286" height="40" viewBox="0 0 286 40" fill="none" xmlns="http://www.w3.org/2000/svg">
<g clip-path="url(#clip0_303_1665)">
<mask id="mask0_303_1665" style="mask-type:luminance" maskUnits="userSpaceOnUse" x="-1105" y="-433" width="1497" height="3132">
<path d="M-1104.68 -432.348H391.137V2698.18H-1104.68V-432.348Z" fill="white"/>
</mask>
<g mask="url(#mask0_303_1665)">
<path d="M0 34.4428L4.17177 31.6633L8.34531 34.4428L0 40V34.4428ZM40.0707 5.55185L35.8971 8.33133L31.7236 5.55185L40.0707 -3.8147e-06V5.55185ZM40.0707 26.6667L20.0309 40L0 26.6667L23.7905 10.8306L27.964 13.6083L8.76462 26.3864L20.452 34.1679L25.8763 30.5565L21.7046 27.7753L31.7236 21.1095L40.0707 26.6667ZM0 13.3333L20.0309 -3.8147e-06L40.0707 13.3333L16.2749 29.1694L12.1067 26.3864L31.3025 13.6083L19.6187 5.83211L14.1872 9.44348L18.3661 12.2212L8.34531 18.8887L0 13.3333Z" fill="white"/>
</g>
<mask id="mask1_303_1665" style="mask-type:luminance" maskUnits="userSpaceOnUse" x="-1105" y="-433" width="1497" height="3132">
<path d="M-1104.68 -432.348H391.137V2698.18H-1104.68V-432.348Z" fill="white"/>
</mask>
<g mask="url(#mask1_303_1665)">
<path d="M54.8079 17.5774V10.7662H57.2243C59.415 10.7662 60.9608 12.2065 60.9608 14.1629C60.9608 16.7473 58.9868 17.5561 57.569 17.5561H55.3054L54.8079 17.5774ZM56.1512 21.657H57.0075C60.2732 21.657 61.309 23.0956 61.309 25.4564C61.309 29.1902 58.2104 29.2274 56.8387 29.2274H54.8079V21.6978L56.1512 21.657ZM94.2141 33.3213V18.7694L100.298 33.3213H106.854V11.5041H102.137V25.609L96.22 11.5041H89.5004V33.3213H94.2141ZM117.404 33.9634C122.237 33.9634 125.055 32.053 125.055 26.1039H119.563C119.493 27.8599 119.469 30.6358 117.404 30.6358C115.069 30.6358 114.734 29.2274 114.734 22.4641C114.734 15.4737 115.267 14.2995 117.305 14.2995C118.769 14.2995 119.426 15.4081 119.426 18.3632H124.884C125.087 13.5865 122.432 10.9666 117.171 10.9666C109.332 10.9666 109.105 15.942 109.105 22.4641C109.105 29.027 108.901 33.9634 117.404 33.9634ZM73.7763 33.3213L75.1498 28.486H81.045L82.3828 33.3213H88.2087L81.6473 11.5041H74.981L68.2809 33.3213H73.7763ZM80.1744 25.1336H75.9493L77.9623 16.2045L80.1744 25.1336ZM135.194 30.6358C132.705 30.6358 132.382 28.1703 132.382 22.4641C132.382 16.7633 132.705 14.2995 135.194 14.2995C137.685 14.2995 138.007 16.7633 138.007 22.4641C138.007 28.1703 137.685 30.6358 135.194 30.6358ZM135.194 33.9634C143.703 33.9634 143.703 28.2927 143.703 22.4641C143.703 16.577 143.703 10.9666 135.194 10.9666C126.686 10.9666 126.686 16.577 126.686 22.4641C126.686 28.2927 126.686 33.9634 135.194 33.9634ZM270.69 11.5041H265.129V33.3231H270.69V11.5041ZM286 33.3213V30.0221H279.515V11.5041H273.948V33.3213H286ZM201.952 33.3284C204.578 33.3284 211.077 33.0304 211.077 26.2777C211.077 22.6202 209.933 20.0695 205.557 19.5179C208.913 18.8545 210.588 16.6355 210.588 13.5758C210.588 7.8856 206.699 6.67057 201.994 6.67057H191.028V33.3284H201.952ZM197.764 17.62V10.8052H201.015C202.801 10.8052 204.062 12.2437 204.062 14.2002C204.062 16.7863 202.453 17.6022 201.294 17.6022H199.454L197.764 17.62ZM199.454 21.6943H200.843C203.501 21.6943 204.345 23.1381 204.345 25.5008C204.345 29.2292 201.82 29.2647 200.704 29.2647H197.764V21.7369L199.454 21.6943ZM155.284 14.837H157.542C160.584 14.837 160.584 18.3827 160.584 22.418C160.584 27.9024 160.058 29.9937 157.396 29.9937H155.284V14.837ZM149.746 33.3213H158.05C166.762 33.3213 166.19 25.6214 166.19 22.2566C166.19 15.4347 164.937 11.4349 158.249 11.4349H149.746V33.3213ZM176.766 30.6482C174.275 30.6482 173.954 28.1933 173.954 22.5173C173.954 16.8377 174.275 14.3793 176.766 14.3793C179.256 14.3793 179.577 16.8377 179.577 22.5173C179.577 28.1933 179.256 30.6482 176.766 30.6482ZM176.766 33.9634C185.279 33.9634 185.279 28.3157 185.279 22.5173C185.279 16.6533 185.279 11.0659 176.766 11.0659C168.254 11.0659 168.254 16.6533 168.254 22.5173C168.254 28.3157 168.254 33.9634 176.766 33.9634ZM240.242 25.1443H236.029L238.041 16.2152L240.242 25.1443ZM255.696 33.3213C259.356 33.3213 263.064 32.8353 263.064 27.1841C263.064 20.662 253.594 21.3094 253.594 17.1712C253.594 15.6617 254.516 14.8423 256.076 14.8423H261.145V11.4863H254.021C248.166 11.4863 246.72 14.1239 246.72 17.5384C246.72 24.0339 257.213 23.8796 257.213 27.5335C257.213 29.0164 256.421 30.0132 254.795 30.0132H247.288L241.718 11.5005H235.057L228.896 31.3613L225.03 22.8224C227.863 22.2938 228.992 20.5041 228.999 17.212C229.013 13.4942 226.79 11.5005 223.34 11.5005H212.916V33.3195H218.616V14.8547H220.502C222.116 14.8547 223.51 16.0254 223.51 18.1681C223.51 19.9897 222.601 21.4832 221.135 21.3874L219.55 21.4105L224.736 33.3195H233.849L235.217 28.486H241.118L242.459 33.3195L255.696 33.3213ZM59.0099 33.3231C61.627 33.3231 68.1317 33.0304 68.1317 26.2741C68.1317 22.6184 66.9874 20.0678 62.6114 19.5108C65.9623 18.8492 67.6466 16.6355 67.6466 13.5723C67.6466 7.88559 63.7573 6.66525 59.049 6.66525H48.083V33.3231H59.0099Z" fill="white"/>
</g>
</g>
<defs>
<clipPath id="clip0_303_1665">
<rect width="286" height="40" fill="white"/>
</clipPath>
</defs>
</svg>
