<svg width="132" height="40" viewBox="0 0 132 40" fill="none" xmlns="http://www.w3.org/2000/svg">
<path d="M48.2119 25.35C48.3919 26.6135 48.7435 27.5615 49.2662 28.1931C50.2254 29.3296 51.8673 29.8973 54.1923 29.8969C55.5865 29.8969 56.7181 29.7462 57.5869 29.4458C59.2354 28.8688 60.0592 27.7973 60.0592 26.2312C60.0592 25.3158 59.6538 24.6081 58.8427 24.1081C58.0315 23.6081 56.7504 23.1758 54.9996 22.8112L52.0038 22.1515C49.0596 21.5 47.0362 20.7919 45.9338 20.0285C44.0692 18.7504 43.1369 16.7515 43.1369 14.0315C43.1369 11.5508 44.0492 9.48923 45.8731 7.84615C47.6973 6.20346 50.3777 5.38269 53.9138 5.38462C56.8662 5.38462 59.3846 6.15808 61.4692 7.70538C63.5539 9.25269 64.6465 11.4988 64.7477 14.4446H59.1954C59.0927 12.7792 58.3485 11.595 56.9623 10.8927C56.0396 10.4288 54.8912 10.1965 53.5177 10.1965C51.9904 10.1965 50.7708 10.4981 49.8596 11.1C48.9485 11.7019 48.4931 12.5415 48.4931 13.6185C48.4931 14.6115 48.9438 15.3508 49.845 15.8365C50.4215 16.1615 51.6473 16.5435 53.5219 16.9831L58.3788 18.1288C60.5069 18.6308 62.1023 19.3012 63.1658 20.1408C64.815 21.4454 65.6396 23.3308 65.6396 25.7981C65.6396 28.33 64.6623 30.4327 62.7077 32.1065C60.7527 33.7796 57.9915 34.6162 54.4235 34.6154C50.78 34.6154 47.9146 33.7912 45.8273 32.1431C43.74 30.4946 42.695 28.2304 42.6923 25.3496H48.2119V25.35ZM79.9842 23.9377C79.6558 24.1438 79.3081 24.3169 78.9458 24.4546C78.4781 24.6173 77.9973 24.7404 77.5088 24.8215L76.2923 25.0465C75.1512 25.2481 74.3308 25.4904 73.8331 25.7804C72.9896 26.2696 72.5685 27.0273 72.5692 28.0535C72.5692 28.9688 72.8265 29.6304 73.3412 30.0373C73.8777 30.4515 74.5412 30.6677 75.2188 30.6481C76.3754 30.6527 77.505 30.2977 78.4512 29.6327C79.4354 28.9558 79.9465 27.7215 79.9854 25.9308L79.9842 23.9377ZM76.7112 21.4377C77.7073 21.3127 78.4196 21.1558 78.8485 20.9685C79.6173 20.6423 80.0023 20.1346 80.0031 19.445C80.0031 18.6054 79.7077 18.0258 79.1177 17.7065C78.5273 17.3869 77.6631 17.2265 76.5246 17.2258C75.2431 17.2258 74.3358 17.5392 73.8023 18.1665C73.4208 18.6296 73.1673 19.2558 73.0412 20.0446H67.8731C67.9865 18.2538 68.4896 16.7815 69.3815 15.6277C70.8019 13.8223 73.2412 12.92 76.6992 12.92C78.9523 12.92 80.9512 13.365 82.6958 14.2546C84.4408 15.145 85.3127 16.825 85.3115 19.2946V28.6923C85.3115 29.345 85.3227 30.1346 85.3481 31.0619C85.3862 31.7635 85.4923 32.2388 85.6673 32.4888C85.87 32.7631 86.1427 32.9777 86.4565 33.1108V33.9H80.6412C80.4892 33.5238 80.3762 33.1335 80.3031 32.7346C80.235 32.3235 80.185 31.9096 80.1531 31.4938C79.4042 32.3015 78.5385 32.9923 77.5846 33.5427C76.3865 34.2165 75.0308 34.5604 73.6562 34.5388C71.7923 34.5388 70.2531 34.0092 69.0385 32.9496C67.8235 31.89 67.2162 30.3896 67.2162 28.4488C67.2162 25.9304 68.1935 24.1065 70.1481 22.9785C71.2196 22.3646 72.7969 21.9262 74.8796 21.6623L76.7112 21.4377ZM97.6865 5.93846C97.9569 5.95769 98.3365 5.98577 98.8127 6.02385V10.3854C98.5123 10.3469 98.0096 10.3188 97.3012 10.2996C96.5927 10.2808 96.1062 10.435 95.8369 10.7696C95.5765 11.0773 95.4327 11.4673 95.4315 11.8704V13.5981H98.9462V17.3773H95.4315V33.8965H90.1188V17.3769H87.115V13.5977H90.0431V12.2831C90.0431 10.0912 90.4127 8.58115 91.1515 7.75231C91.9277 6.52462 93.7988 5.91115 96.7658 5.91115C97.1027 5.91115 97.4092 5.92 97.685 5.93808M111.694 12.9315C111.763 12.9385 111.916 12.9477 112.154 12.96V18.4438C111.643 18.3854 111.13 18.3542 110.615 18.3504C108.462 18.3504 107.017 19.0523 106.277 20.4558C105.865 21.2458 105.658 22.4615 105.658 24.1038V33.8962H100.27V13.4112H105.377V16.9831C106.203 15.6177 106.925 14.6835 107.54 14.1819C108.541 13.3423 109.843 12.9227 111.445 12.9227C111.545 12.9227 111.629 12.9227 111.698 12.9319M125.447 23.9373C125.118 24.1438 124.77 24.3169 124.408 24.4546C123.94 24.6173 123.46 24.7404 122.971 24.8215L121.755 25.0465C120.613 25.2481 119.793 25.4904 119.295 25.7804C118.449 26.2696 118.026 27.0288 118.026 28.0577C118.026 28.9731 118.283 29.6346 118.798 30.0415C119.334 30.4562 119.998 30.6723 120.676 30.6523C121.832 30.6569 122.961 30.3023 123.907 29.6369C124.892 28.9596 125.403 27.7254 125.442 25.9346L125.447 23.9373ZM122.173 21.4381C123.17 21.3127 123.882 21.1558 124.311 20.9681C125.078 20.6396 125.461 20.1319 125.461 19.445C125.461 18.6054 125.166 18.0258 124.576 17.7065C123.985 17.3869 123.121 17.2265 121.982 17.2258C120.701 17.2258 119.794 17.5392 119.26 18.1665C118.879 18.6296 118.625 19.2558 118.499 20.0446H113.335C113.449 18.2538 113.952 16.7815 114.844 15.6277C116.264 13.8223 118.703 12.92 122.162 12.92C124.415 12.92 126.413 13.365 128.158 14.2546C129.903 15.145 130.776 16.8238 130.778 19.2919V28.69C130.778 29.3427 130.791 30.1323 130.816 31.0596C130.854 31.7612 130.96 32.2365 131.135 32.4865C131.338 32.7604 131.61 32.9754 131.923 33.1088V33.8981H126.11C125.958 33.5219 125.845 33.1312 125.772 32.7323C125.703 32.3212 125.653 31.9073 125.622 31.4919C124.873 32.2992 124.007 32.99 123.053 33.5408C121.855 34.2146 120.5 34.5585 119.125 34.5369C117.262 34.5369 115.722 34.0073 114.507 32.9477C113.292 31.8877 112.685 30.3877 112.685 28.4469C112.685 25.9285 113.662 24.1046 115.617 22.9765C116.689 22.3627 118.266 21.9238 120.348 21.6604L122.173 21.4385V21.4381ZM25.2308 29.3012C23.7923 29.3012 22.8477 28.4781 22.8477 27.2435C22.8477 26.2146 23.5465 25.3915 24.3685 25.3915C24.6969 25.3915 24.9846 25.5146 24.9846 25.8435C24.9846 26.0492 24.9023 26.2146 25.1077 26.2146C25.2308 26.2146 25.355 26.0915 25.355 25.7608C25.355 25.355 24.9846 25.0204 24.4508 25.0204H24.3265C24.3819 24.905 24.4104 24.7781 24.4088 24.6496C24.4088 24.6454 24.4088 24.6408 24.4088 24.6365C24.4088 24.3281 24.155 24.0742 23.8465 24.0742C23.8427 24.0742 23.8385 24.0742 23.8342 24.0742C23.5465 24.0742 23.2585 24.2396 23.2585 24.445C23.2515 24.4965 23.2827 24.5462 23.3319 24.5627C23.3481 24.5681 23.365 24.5696 23.3819 24.5669C23.5046 24.5669 23.5465 24.445 23.7519 24.445C23.7623 24.4438 23.7723 24.4431 23.7827 24.4431C23.9238 24.4431 24.0404 24.5596 24.0404 24.7008C24.0404 24.7112 24.0396 24.7215 24.0385 24.7319C24.0385 25.0204 23.7923 25.1381 23.5869 25.2665C22.8885 25.6769 22.4638 26.4338 22.4773 27.2435C22.4773 28.3954 23.1358 29.1385 24.0804 29.465L23.4642 30.4127C22.6423 30.4127 22.23 31.0312 21.4908 32.3473C21.4208 32.0004 21.105 31.7542 20.7515 31.7704C20.2985 31.7704 20.0108 32.0992 20.0108 32.5531C20.0008 32.6538 20.0746 32.7458 20.1754 32.7573C20.1796 32.7577 20.1842 32.7577 20.1885 32.7577C20.2942 32.7577 20.3815 32.6708 20.3815 32.5646C20.3815 32.5608 20.3815 32.5569 20.3812 32.5531C20.3804 32.5438 20.38 32.5342 20.38 32.525C20.38 32.32 20.5465 32.1504 20.7515 32.1469C21.0392 32.1469 21.1569 32.3527 21.1569 32.5988C21.1658 32.8804 21.0785 33.1565 20.9096 33.3815C20.0473 34.78 18.855 35.4796 17.8277 35.4796C16.9223 35.4796 16.3885 34.945 16.3885 34.4104C16.3885 33.9162 16.6762 33.5046 17.1692 33.5046C17.4981 33.5046 17.7035 33.7104 17.7035 33.9973C17.7035 34.245 17.4981 34.245 17.4981 34.3685C17.4981 34.4508 17.5804 34.4915 17.6631 34.4915C17.9104 34.4915 18.0685 34.2046 18.0685 33.9162C18.0685 33.4623 17.6981 33.1335 17.1642 33.1335C16.7227 33.1315 16.3192 33.3908 16.1373 33.7931C15.9542 33.3915 15.5512 33.1327 15.1096 33.1335C14.5692 33.1335 14.2042 33.4627 14.2042 33.9162C14.2042 34.2046 14.3688 34.4915 14.6096 34.4915C14.6904 34.4915 14.7731 34.4508 14.7731 34.3685C14.7731 34.2454 14.5677 34.2454 14.5677 33.9973C14.5677 33.7104 14.7731 33.5046 15.1085 33.5046C15.6004 33.5046 15.8885 33.9108 15.8885 34.4104C15.8885 34.945 15.3542 35.4796 14.45 35.4796C13.4231 35.4796 12.2308 34.7796 11.3669 33.3815C11.2019 33.1527 11.1196 32.8742 11.1335 32.5923C11.1335 32.3458 11.2565 32.14 11.5388 32.14C11.7438 32.1435 11.9104 32.3131 11.9104 32.5181C11.9104 32.5273 11.91 32.5369 11.9092 32.5462C11.9088 32.55 11.9088 32.5538 11.9088 32.5577C11.9088 32.6635 11.9962 32.7508 12.1019 32.7508C12.1058 32.7508 12.1092 32.7508 12.1131 32.7504C12.2142 32.7392 12.2885 32.6473 12.2781 32.5462C12.2781 32.0923 11.9904 31.7635 11.5388 31.7635C11.1846 31.7462 10.8681 31.9927 10.7981 32.3404C10.0642 31.03 9.65308 30.4127 8.83538 30.4127L8.21923 29.465C9.16539 29.1362 9.82231 28.3958 9.82231 27.2435C9.83538 26.4338 9.41038 25.6769 8.71231 25.2665C8.50692 25.1435 8.26115 25.0204 8.26115 24.7319C8.26 24.7219 8.25923 24.7119 8.25923 24.7019C8.25923 24.56 8.37615 24.4431 8.51808 24.4431C8.52846 24.4431 8.53885 24.4438 8.54885 24.445C8.75462 24.445 8.795 24.5669 8.91808 24.5669C8.92346 24.5677 8.92846 24.5681 8.93385 24.5681C8.99385 24.5681 9.04308 24.5188 9.04308 24.4588C9.04308 24.4542 9.04308 24.4496 9.04231 24.445C9.04231 24.2392 8.75462 24.0742 8.46654 24.0742C8.23231 24.0677 8.01731 24.2092 7.93077 24.4269C7.90269 24.4977 7.88885 24.5731 7.89077 24.6496C7.88923 24.7781 7.91769 24.905 7.97308 25.0204H7.85C7.30962 25.0204 6.94615 25.3496 6.94615 25.7612C6.94615 26.0912 7.06923 26.2146 7.19231 26.2146C7.39731 26.2146 7.315 26.0492 7.315 25.8435C7.315 25.5146 7.60269 25.3915 7.93269 25.3915C8.75462 25.3915 9.45308 26.2146 9.45308 27.2435C9.45308 28.4781 8.50692 29.3012 7.06885 29.3012C5.38346 29.3012 4.10885 28.0665 4.10885 26.3377C4.10885 24.6492 5.09577 23.4946 6.205 22.47L7.15115 21.5642C8.34346 20.4527 8.83577 19.3008 8.83577 17.8615C8.83577 16.2965 7.88962 14.5681 5.91885 13.7042C6.32423 13.5812 6.57577 13.1627 6.57577 12.6754C6.57577 12.3465 6.45269 12.1419 6.45269 11.8946C6.45269 11.4 6.74038 11.1119 7.15154 11.1119C7.47885 11.1012 7.75692 11.3615 7.76769 11.6888C7.76808 11.6954 7.76808 11.7023 7.76808 11.7088C7.76808 11.9465 7.57231 12.1423 7.33462 12.1423C7.32808 12.1423 7.32154 12.1423 7.315 12.1419C7.19192 12.1419 7.10962 12.1419 7.10962 12.265C7.10962 12.3881 7.23385 12.4288 7.39731 12.4288C7.76308 12.4412 8.08346 12.1738 8.13654 11.8115C8.225 11.8631 8.32423 11.8915 8.42577 11.8942C8.43231 11.8946 8.43846 11.8946 8.445 11.8946C8.705 11.8946 8.91846 11.6808 8.91846 11.4212C8.91846 11.4142 8.91846 11.4069 8.91808 11.4C8.91808 11.3177 8.87731 11.1942 8.75462 11.1942C8.67192 11.1942 8.63154 11.2769 8.63154 11.3581C8.63192 11.3623 8.63192 11.3665 8.63192 11.3708C8.63192 11.4777 8.54385 11.5658 8.43692 11.5658C8.43308 11.5658 8.42962 11.5658 8.42577 11.5654C8.25731 11.5488 8.11308 11.4362 8.05577 11.2769C7.87231 10.9488 7.52731 10.7423 7.15154 10.7354C6.64308 10.7265 6.20115 11.0981 6.12269 11.6008C5.84077 11.3142 5.52269 11.0658 5.17654 10.8615C5.505 10.6538 5.79308 10.4904 6.12269 10.2423C6.64269 9.84923 7.12462 9.40846 7.56231 8.92538L9.82231 6.45615C11.7954 4.27538 13.0662 3.74077 14.3031 3.74077C15.3719 3.74077 15.9058 4.27538 15.9058 4.89269C15.9058 5.34615 15.7127 5.68192 15.4042 5.84692C15.2169 5.65192 15.0915 5.40538 15.0435 5.13923C15.0015 4.93462 14.9612 4.93462 14.9192 4.93462C14.8365 4.93462 14.8365 5.01538 14.8365 5.09846C14.8288 5.39923 14.9058 5.69615 15.0585 5.95538C15.0138 5.95538 14.9677 5.96308 14.9231 5.96308C14.5177 5.96308 14.2662 5.75615 14.2662 5.51C14.2623 5.43308 14.2927 5.35808 14.3488 5.30538C14.4296 5.22269 14.3892 5.18077 14.3488 5.18077C14.1838 5.18077 14.0188 5.38654 14.0188 5.63308C14.0188 5.92154 14.2662 6.33308 14.965 6.33308C15.0965 6.33308 15.2273 6.31346 15.3531 6.27462C15.8292 6.62731 16.4838 6.62731 16.96 6.27462C17.0862 6.31346 17.2177 6.33308 17.3492 6.33308C18.0469 6.33308 18.2954 5.92692 18.2954 5.63308C18.2954 5.38692 18.1308 5.18077 17.9669 5.18077C17.9265 5.18077 17.8846 5.22308 17.9669 5.30538C18.0219 5.35885 18.0512 5.43346 18.0481 5.51C18.0481 5.75615 17.8019 5.96346 17.3912 5.96346C17.3438 5.96346 17.2965 5.96346 17.2562 5.95538C17.4088 5.69615 17.4858 5.39923 17.4777 5.09846C17.4777 5.01577 17.4777 4.93462 17.3954 4.93462C17.3546 4.93462 17.3127 4.93462 17.2723 5.13885C17.2235 5.405 17.0981 5.65077 16.9115 5.84692C16.6035 5.68154 16.4085 5.34615 16.4085 4.89269C16.4085 4.27538 16.9427 3.74038 18.0115 3.74038C19.2442 3.74038 20.5192 4.275 22.4923 6.45615L24.7523 8.92538C25.18 9.41808 25.6631 9.86 26.1915 10.2427C26.52 10.4904 26.8081 10.6488 27.1377 10.8612C26.7915 11.065 26.4735 11.3138 26.1915 11.6004C26.1115 11.0988 25.6708 10.7281 25.1631 10.7354C24.7873 10.7419 24.4419 10.9485 24.2588 11.2769C24.2015 11.4358 24.0577 11.5485 23.8896 11.5654C23.8858 11.5658 23.8819 11.5658 23.8781 11.5658C23.7715 11.5658 23.6838 11.4781 23.6838 11.3715C23.6838 11.3669 23.6838 11.3627 23.6842 11.3581C23.6842 11.2773 23.6423 11.1942 23.5612 11.1942C23.4369 11.1942 23.3965 11.3173 23.3965 11.4C23.3962 11.4065 23.3962 11.4127 23.3962 11.4192C23.3962 11.68 23.6108 11.8946 23.8715 11.8946C23.8777 11.8946 23.8835 11.8946 23.8896 11.8942C23.9912 11.8915 24.0904 11.8631 24.1781 11.8115C24.2319 12.1731 24.5515 12.44 24.9169 12.4288C25.0823 12.4288 25.205 12.3885 25.205 12.2654C25.205 12.1423 25.1223 12.1423 24.9996 12.1423C24.9831 12.1442 24.9662 12.1454 24.9492 12.1454C24.7273 12.1454 24.5446 11.9627 24.5446 11.7408C24.5446 11.7235 24.5458 11.7058 24.5481 11.6885C24.56 11.3619 24.8365 11.1027 25.1631 11.1115C25.5754 11.1115 25.8631 11.4 25.8631 11.8942C25.8631 12.1419 25.7388 12.3465 25.7388 12.6754C25.7388 13.1696 25.9862 13.5812 26.3969 13.7042C24.4238 14.5681 23.4788 16.2965 23.4788 17.8619C23.4788 19.3008 23.9723 20.4527 25.1631 21.5642L26.1092 22.47C27.2188 23.4988 28.2054 24.6496 28.2054 26.3377C28.2054 28.0665 26.9308 29.3012 25.2454 29.3012H25.2308ZM16.1627 36.9538C15.9273 36.4954 15.6373 36.0673 15.2988 35.6788C15.6738 35.5338 15.9815 35.255 16.1627 34.8962C16.3435 35.2546 16.6508 35.5335 17.025 35.6788C16.6873 36.0677 16.3977 36.4958 16.1627 36.9538ZM16.5777 6.08808C16.3135 6.20731 16.0108 6.20731 15.7465 6.08808C15.9331 5.94385 16.0769 5.75154 16.1627 5.53154C16.2481 5.75115 16.3915 5.94385 16.5777 6.08808ZM28.8638 24.5692C28.6442 24.5577 28.4354 24.6696 28.3231 24.8588C27.9946 24.1185 27.6662 23.4185 26.2269 22.1012C26.4135 22.1581 26.6077 22.1858 26.8027 22.1838C27.2554 22.1838 27.7488 22.0592 28.0354 21.7777C28.1123 22.0523 28.3681 22.2404 28.6531 22.2315C29.1042 22.2315 29.2692 21.9431 29.2692 21.6138C29.2692 21.4896 29.2273 21.3662 29.1042 21.3662C28.8581 21.3662 29.0638 21.8604 28.6531 21.8604C28.4935 21.8588 28.3627 21.7269 28.3627 21.5673C28.3627 21.555 28.3635 21.5423 28.365 21.53C28.365 21.3258 28.4881 21.0781 28.4881 20.7896C28.5142 20.2188 28.1362 19.7023 27.5838 19.555C27.3273 19.5054 27.1385 19.2815 27.1323 19.0204C27.1323 18.6912 27.3785 18.6504 27.5377 18.6504C27.6973 18.6504 27.8258 18.6912 27.8258 18.5681C27.8258 18.445 27.7027 18.3623 27.4565 18.3623C27.1688 18.3623 26.7581 18.5681 26.7581 19.02C26.7523 19.2065 26.8273 19.3865 26.9635 19.5142C26.5631 19.5835 26.2673 19.9327 26.2646 20.3388C26.2646 20.6258 26.3454 20.9127 26.5527 20.9127C26.7988 20.9127 26.5931 20.7069 26.5931 20.3781C26.5931 20.0085 26.9215 19.8446 27.2512 19.8446C27.7027 19.8446 28.1135 20.2508 28.1135 20.7923C28.1135 21.4096 27.6204 21.8212 26.8388 21.8212C26.21 21.8504 25.6012 21.5888 25.19 21.1119C24.3265 20.1642 23.8385 19.3427 23.8385 17.8627C23.8385 15.9673 25.19 14.3227 27.1673 13.7877C27.6062 13.6615 27.91 13.2558 27.9069 12.7992C27.9069 12.3935 27.6608 12.0604 27.25 12.0604C27.085 12.0604 26.9619 12.0996 26.9619 12.2242C26.9619 12.3488 27.085 12.3473 27.1673 12.3473C27.3915 12.3727 27.5565 12.575 27.5365 12.7996C27.5362 13.0765 27.3619 13.3254 27.1019 13.4204C27.0173 13.4512 26.9273 13.4642 26.8377 13.4588C26.3862 13.4588 26.0985 13.13 26.0985 12.6765C26.0985 11.8127 27.1269 11.2362 27.9069 10.8677C27.2081 10.5373 26.9608 10.4138 26.4269 10.0023C26.3165 9.89692 26.2569 9.74885 26.2635 9.59654C26.2635 9.39077 26.3865 9.22538 26.5512 9.22538C26.5546 9.225 26.5585 9.225 26.5619 9.225C26.6688 9.225 26.7569 9.31308 26.7569 9.42C26.7569 9.42385 26.7569 9.42769 26.7565 9.43154C26.7565 9.55462 26.6742 9.55462 26.6742 9.63731C26.6735 9.64269 26.6731 9.64769 26.6731 9.65308C26.6731 9.71269 26.7219 9.76154 26.7815 9.76154C26.7869 9.76154 26.7919 9.76115 26.7973 9.76039C26.8796 9.76039 27.085 9.67923 27.085 9.35423C27.085 9.35154 27.085 9.34885 27.085 9.34577C27.085 9.07808 26.8646 8.85769 26.5969 8.85769C26.5815 8.85769 26.5665 8.85846 26.5512 8.86C26.1892 8.86 25.8919 9.15769 25.8919 9.51923C25.8919 9.53269 25.8923 9.54654 25.8931 9.56C25.5715 9.29423 25.2692 9.00539 24.9888 8.69615L23.6735 7.25577C23.3031 6.84962 23.5088 6.06346 24.0427 6.06346C24.0519 6.06269 24.0612 6.06231 24.0704 6.06231C24.2754 6.06231 24.445 6.22923 24.4481 6.43423C24.4481 6.80346 24.0777 6.63846 24.0777 6.84038V6.84308C24.0777 6.92538 24.1454 6.99269 24.2273 6.99269C24.2327 6.99269 24.2385 6.99269 24.2438 6.99192C24.4888 6.99539 24.71 6.84 24.79 6.60846C24.8162 6.53346 24.8262 6.45385 24.8196 6.37462C24.7962 5.96923 24.4442 5.65462 24.0388 5.67615C23.4977 5.67615 23.1358 6.08231 23.1358 6.66462L22.7235 6.21077C20.915 4.23538 19.4362 3.36769 17.9927 3.36769C17.5273 3.36 17.07 3.48923 16.6773 3.73885C16.4823 3.505 16.3038 3.25731 16.1438 2.99808C15.9815 3.25769 15.8008 3.505 15.6031 3.73885C15.2104 3.48923 14.7531 3.36 14.2877 3.36769C12.8496 3.36769 11.3696 4.23308 9.55692 6.21077L9.15192 6.66462C9.15192 6.08769 8.78154 5.67615 8.24769 5.67615C8.23346 5.67538 8.21962 5.675 8.20538 5.675C7.81462 5.675 7.48769 5.98462 7.46654 6.37462C7.46538 6.38923 7.465 6.40423 7.465 6.41885C7.465 6.73308 7.72346 6.99192 8.03808 6.99192H8.04231C8.04731 6.99231 8.05269 6.99269 8.05769 6.99269C8.13923 6.99269 8.20654 6.92538 8.20654 6.84385C8.20654 6.83846 8.20615 6.83346 8.20577 6.82808C8.20577 6.62231 7.83654 6.78731 7.83654 6.42192C7.83923 6.26346 7.94077 6.12269 8.09038 6.07038C8.13923 6.05346 8.19077 6.04692 8.24231 6.05115C8.77615 6.05115 8.98154 6.83192 8.61231 7.24346L7.29615 8.68462C7.01577 8.99385 6.71346 9.28231 6.39192 9.54808C6.40808 9.27192 6.24923 9.01346 5.99577 8.90269C5.91346 8.86692 5.82462 8.84846 5.735 8.84846C5.71692 8.84654 5.69846 8.84538 5.68038 8.84538C5.41346 8.84538 5.19423 9.065 5.19423 9.33154V9.34231C5.19423 9.67308 5.39962 9.74846 5.48231 9.74846C5.48769 9.74923 5.49308 9.74962 5.49846 9.74962C5.55769 9.74962 5.60654 9.70077 5.60654 9.64154C5.60654 9.63615 5.60615 9.63077 5.60538 9.62538C5.60538 9.54269 5.52423 9.54269 5.52423 9.41962C5.52385 9.41577 5.52385 9.41154 5.52385 9.40769C5.52385 9.30115 5.61154 9.21346 5.71808 9.21346C5.72192 9.21346 5.72577 9.21346 5.72962 9.21385C5.89423 9.21385 6.01731 9.37923 6.01731 9.58462C6.02346 9.73731 5.96346 9.88538 5.85269 9.99077C5.35923 10.485 5.07115 10.5323 4.37231 10.8562C5.15385 11.2242 6.18077 11.8035 6.18077 12.6646C6.18077 13.1181 5.89423 13.4469 5.44154 13.4469C5.42808 13.4477 5.415 13.4481 5.40154 13.4481C5.04 13.4481 4.74269 13.1508 4.74269 12.7892C4.74269 12.7888 4.74269 12.7881 4.74269 12.7877C4.72423 12.5631 4.88923 12.3619 5.11308 12.3358C5.19423 12.3358 5.31846 12.3358 5.31846 12.2127C5.31846 12.0892 5.19423 12.0485 5.03077 12.0485C4.62538 12.0485 4.37231 12.3777 4.37231 12.7877C4.37077 13.2442 4.67462 13.6492 5.11308 13.7762C7.08538 14.3531 8.44231 15.9569 8.44231 17.8508C8.44231 19.3319 7.90846 20.1131 7.09077 21.1C6.68269 21.5731 6.08038 21.835 5.45615 21.8108C4.67538 21.8108 4.18192 21.4046 4.18192 20.7819C4.18192 20.2473 4.58731 19.8342 5.04538 19.8342C5.37385 19.8342 5.70231 19.9981 5.70231 20.3677C5.70231 20.6965 5.49692 20.9023 5.74462 20.9023C5.95 20.9023 6.03231 20.6154 6.03231 20.3285C6.02846 19.9227 5.73308 19.5742 5.33346 19.5038C5.46923 19.3762 5.54385 19.1962 5.53885 19.0096C5.53885 18.5577 5.13346 18.3519 4.84 18.3519C4.59269 18.3519 4.46962 18.4342 4.46962 18.5577C4.46962 18.6808 4.59269 18.64 4.75769 18.64C4.92269 18.64 5.16308 18.6808 5.16308 19.0096C5.15577 19.2704 4.96769 19.4931 4.71192 19.5442C4.15846 19.6896 3.77885 20.2073 3.80615 20.7788C3.80615 21.0673 3.93038 21.3208 3.93038 21.5196C3.93192 21.5315 3.93269 21.5438 3.93269 21.5558C3.93269 21.7158 3.80231 21.8477 3.64269 21.85C3.23731 21.85 3.43731 21.3558 3.19 21.3558C3.06692 21.3558 3.02615 21.4788 3.02615 21.6035C3.02615 21.9327 3.19 22.2208 3.64269 22.2208C3.92731 22.23 4.18308 22.0415 4.25885 21.7673C4.54692 22.0542 5.04 22.1735 5.49154 22.1735C5.68654 22.1754 5.88077 22.1473 6.06731 22.0908C4.62923 23.4081 4.29962 24.1081 3.97115 24.8485C3.85885 24.6592 3.65 24.5477 3.43038 24.5588C3.025 24.5588 2.81423 24.8065 2.81423 25.1773C2.81423 25.2588 2.81423 25.5065 3.01962 25.5065C3.18308 25.5065 3.10192 25.3412 3.10192 25.2181C3.10385 25.0588 3.23538 24.9288 3.39462 24.9288C3.40654 24.9288 3.41846 24.9296 3.43038 24.9312C3.75885 24.9312 3.83577 25.2181 3.75885 25.6715C3.725 25.8892 3.71154 26.1092 3.71846 26.3292C3.71846 28.2627 5.15654 29.6627 7.04731 29.6627C7.32269 29.655 7.59731 29.6277 7.86923 29.58L8.445 30.4454C8.04039 30.5608 7.75577 30.9285 7.74615 31.3492C7.73962 31.7338 7.97154 32.0846 8.32769 32.2292C8.44308 32.2762 8.56731 32.2992 8.69231 32.2969C9.02192 32.2969 9.26808 32.1315 9.26808 31.9665C9.26846 31.9619 9.26885 31.9573 9.26885 31.9523C9.26885 31.87 9.20115 31.8023 9.11885 31.8023C9.11385 31.8023 9.10923 31.8027 9.10462 31.8031C8.98 31.8031 8.98 31.9262 8.69885 31.9262C8.46423 31.9319 8.24962 31.7904 8.16308 31.5723C8.13462 31.5015 8.12115 31.4254 8.12308 31.3492C8.12308 31.0219 8.41231 30.7742 8.82192 30.7742C9.60308 30.7742 9.97346 31.6796 10.5073 32.5838L11.0481 33.4896C11.9119 34.9704 13.3081 35.8346 14.4596 35.8346C14.625 35.8412 14.7908 35.8277 14.9531 35.7938C15.4462 36.2881 15.9396 37.1923 16.1454 37.6038C16.3504 37.1977 16.8427 36.2881 17.3373 35.7938C17.4992 35.8277 17.665 35.8412 17.8304 35.8346C18.9804 35.8346 20.3785 34.9708 21.2419 33.4896L21.7758 32.5838C22.3096 31.68 22.68 30.7738 23.4615 30.7738C23.8669 30.7738 24.16 31.0219 24.16 31.3492V31.3627C24.16 31.6719 23.9058 31.9262 23.5965 31.9262C23.5927 31.9262 23.5885 31.9262 23.5842 31.9262C23.2965 31.9262 23.2965 31.8031 23.1788 31.8031C23.1735 31.8027 23.1685 31.8023 23.1631 31.8023C23.0808 31.8023 23.0131 31.87 23.0131 31.9523C23.0131 31.9569 23.0135 31.9619 23.0138 31.9665C23.0138 32.1319 23.2612 32.2973 23.5896 32.2973H23.605C24.1158 32.2973 24.5358 31.8773 24.5358 31.3665C24.5358 31.3608 24.5358 31.355 24.5358 31.3492C24.5219 30.9323 24.2392 30.5688 23.8385 30.4531L24.4131 29.5881C24.6846 29.6358 24.9592 29.6631 25.2346 29.6708C27.1269 29.6708 28.5654 28.2708 28.5654 26.3377C28.5719 26.1177 28.5585 25.8977 28.5246 25.68C28.4419 25.2262 28.5246 24.9392 28.8531 24.9392C28.8654 24.9377 28.8773 24.9369 28.8896 24.9369C29.0488 24.9369 29.18 25.0669 29.1815 25.2262C29.1815 25.3492 29.0988 25.5146 29.2638 25.5146C29.4692 25.5146 29.4692 25.2669 29.4692 25.1858C29.4692 24.8146 29.2638 24.5669 28.8531 24.5669L28.8638 24.5692ZM27.7838 31.6462C25.9754 33.4981 23.3031 34.8142 20.7554 36.05C19.07 36.8731 17.4265 37.695 16.1515 38.6831C14.8773 37.6946 13.2323 36.8731 11.5481 36.05C8.99923 34.8142 6.32808 33.4981 4.52 31.6462C2.22192 29.3015 1.10692 26.9077 1.10692 24.2004C1.10692 21.8992 2.01269 19.9619 4.06692 17.3696C4.23038 17.1619 4.39538 16.9565 4.39538 16.7927C4.39538 16.6288 4.23038 16.2985 4.14923 16.135L2.71 13.0062C2.38154 12.3077 2.05308 11.6523 2.05308 10.9496C2.05308 10.3727 2.42346 9.96115 2.91538 9.54962L4.97115 7.69962C5.04423 7.62192 5.06077 7.50615 5.01192 7.41115L4.355 6.05731C4.27231 5.89192 4.27231 5.76731 4.39538 5.68615C6.40923 4.33231 8.095 3.91692 10.5196 3.25769C12.8173 2.64038 14.8773 2.10538 16.1519 1.28231C17.4265 2.10538 19.4808 2.63615 21.7827 3.25769C24.2073 3.91692 25.8523 4.40962 27.9069 5.68615C28.03 5.76731 28.03 5.89192 27.9473 6.05731L27.2904 7.41115C27.2427 7.50654 27.2596 7.62192 27.3327 7.69962L29.38 9.54846C29.8735 9.95462 30.2423 10.3715 30.2423 10.9485C30.2423 11.6485 29.9138 12.3023 29.5854 13.0046L28.15 16.1335C28.0677 16.2969 27.9027 16.6273 27.9027 16.7912C27.9027 16.955 28.0677 17.1608 28.2312 17.3681C30.4519 19.8373 31.1912 21.8938 31.1912 24.1988C31.1912 26.9065 30.0815 29.3015 27.7796 31.645L27.7838 31.6462ZM29.7112 17.49C29.3419 17.0362 29.1369 16.8304 29.1369 16.6669C29.1369 16.5031 29.26 16.2608 29.3831 15.9669L30.6154 13.2512C30.9858 12.4281 31.3142 11.7281 31.3142 10.8658C31.3142 10.2473 31.0681 9.62962 30.4519 9.095L28.6838 7.57192C28.5385 7.45077 28.5035 7.23962 28.6015 7.07808L29.26 5.59692C29.3127 5.495 29.2762 5.36808 29.1773 5.31C27.1635 3.95615 24.8619 3.12769 22.6827 2.51C20.5038 1.93462 17.5858 1.11154 16.1481 0C14.7085 1.11154 11.7904 1.89538 9.61154 2.51C7.43269 3.12462 5.13192 3.95154 3.12346 5.30962C3.02346 5.36692 2.98654 5.495 3.04115 5.59654L3.69923 7.07885C3.79846 7.24 3.76385 7.45192 3.61846 7.57308L1.85 9.09615C1.23346 9.63769 0.986154 10.2481 0.986154 10.8669C0.986154 11.7292 1.31462 12.4288 1.685 13.2519L2.91769 15.9677C3.04192 16.2562 3.165 16.5023 3.165 16.6677C3.165 16.8331 2.95962 17.0369 2.58923 17.4908C0.740769 19.7923 0 21.6877 0 24.1985C0 27.6954 1.72615 30.3692 3.69923 32.3877C5.71308 34.4442 8.50846 35.8019 11.0577 37.0365C12.7431 37.8596 14.5096 38.6827 16.1546 40C17.7981 38.6827 19.5662 37.8596 21.2515 37.0365C23.7992 35.8019 26.6362 34.4442 28.6085 32.3877C30.5815 30.3692 32.3077 27.6954 32.3077 24.1988C32.3077 21.6873 31.5685 19.795 29.7181 17.4908" fill="white"/>
<path d="M18.9931 25.268C18.7923 25.7407 18.4635 26.1477 18.0435 26.4434C17.6239 26.7388 17.13 26.9107 16.6181 26.94C14.7004 27.0984 14.672 24.8188 14.672 24.8188V19.2561H14.7285C15.3462 19.1915 15.9704 19.2453 16.5681 19.4146C18.2954 19.9046 19.5323 21.4653 19.47 23.2619C19.4431 23.9553 19.2812 24.6369 18.9931 25.268ZM14.6677 11.6115C14.6677 11.6115 15.0731 10.5369 16.5966 10.6519C18.1196 10.7673 18.9458 12.0177 18.9889 13.2442C19.032 14.4711 19.3581 17.188 16.2304 18.2777H14.672L14.6677 11.6115ZM20.3243 21.7134C20.1696 21.12 19.9054 20.5603 19.5458 20.0634C18.7346 18.9696 17.8008 18.6119 17.7604 18.5984C17.9812 18.473 18.1935 18.333 18.3954 18.1792C19.0493 17.6811 19.5412 17 19.8081 16.2227C20.2 15.1146 20.2512 13.9142 19.9543 12.7773C19.2781 10.2403 17.4712 9.86112 17.4712 9.86112C17.4712 9.86112 15.3693 9.02689 13.9231 10.8615C13.907 10.8361 13.1216 9.62573 11.732 10.2607C10.5293 10.9238 11.2212 11.973 11.5173 12.1557C11.5173 12.1557 11.9104 12.4173 12.1362 12.1557C12.3012 11.9611 12.1362 11.7596 12.0431 11.6238C11.87 11.353 12.1566 11.0511 12.5593 11.058C12.9093 11.058 13.6081 11.3288 13.6081 12.2765V25.1373C13.6081 25.2442 13.4985 25.9307 12.9216 25.9169C12.3446 25.9034 12.135 25.2996 12.4646 24.9696C12.4427 24.9161 12.4073 24.8692 12.362 24.8338C12.3023 24.803 11.4158 24.7784 11.5196 25.7196C11.6239 26.6603 12.75 27.115 13.835 26.5234C14.3743 27.4715 15.3912 28.0515 16.4816 28.033C18.382 28.033 19.5739 26.438 19.5739 26.438C19.5739 26.438 21.0989 24.585 20.3216 21.7311" fill="white"/>
<path d="M12.35 24.0877C13.7369 25.1266 15.4438 25.65 17.175 25.5673C18.3508 25.5196 19.4892 25.1416 20.4596 24.4762C23.2681 22.5135 22.0123 19.967 21.93 19.7377C21.93 19.7377 21.1542 17.9685 19.2454 17.3108C19.2454 17.3108 17.8115 16.8289 15.5354 16.6623C13.2592 16.4958 12.3673 15.5212 12.7146 14.3258C13.0619 13.1304 14.8338 12.5912 15.93 12.5223C17.4908 12.4331 19.0388 12.8558 20.3377 13.7262C20.5646 13.9077 20.7754 14.1085 20.9677 14.327C20.9677 14.327 21.2785 14.7331 21.4758 14.5246C21.6435 14.342 21.3515 14.0862 21.3515 14.0862C21.0342 13.7027 20.845 13.2289 20.8108 12.7323C20.7792 12.3931 20.7731 12.052 20.7919 11.7116C20.8058 11.5743 20.8311 11.4385 20.8677 11.3054C20.9 11.19 20.9269 11.025 20.7608 10.997C20.6258 10.9739 20.5596 11.132 20.5458 11.1566C20.2111 11.7212 19.5473 12.0085 18.9065 11.8658C17.0669 11.4666 15.9327 11.4854 15.9327 11.4854C15.9327 11.4854 13.7865 11.3366 12.3496 12.8812C11.7058 13.5527 11.4204 14.4927 11.5819 15.4089C11.9242 17.1358 13.7081 17.7712 15.545 17.752C16.2731 17.7439 16.9992 17.8246 17.7077 17.9931C18.1042 18.0843 18.4931 18.2073 18.87 18.3612C19.8435 18.7493 20.59 19.5593 20.8973 20.5612C21.1596 21.4777 21.0635 22.7081 19.3958 23.7035C16.3165 25.5443 12.6104 23.8385 11.0573 20.2104C10.995 20.0873 10.8431 20.037 10.7196 20.0981C10.5235 20.1793 10.6319 20.4581 10.6319 20.4581C10.6319 20.4581 11.2088 21.4993 11.0981 22.3196C11.0088 22.8754 10.7154 23.3781 10.275 23.7289C10.1154 23.875 9.91961 24.0496 10.0723 24.2016C10.225 24.3531 10.3858 24.2693 10.6127 24.0662H10.6223C11.1419 23.6977 11.8446 23.7062 12.355 24.0877" fill="white"/>
<path d="M15.9301 11.6911V26.8427C15.9366 27.3911 15.8174 27.9338 15.5816 28.4292C15.3208 28.9585 14.8881 29.4881 14.1974 29.4881C14.1974 29.4881 13.3866 29.5573 13.1243 29.0454C12.812 28.4442 13.3366 28.21 13.3366 28.21C13.3366 28.21 13.7016 28.0419 13.527 27.7592C13.3528 27.4762 12.9647 27.6238 12.9647 27.6238C12.5566 27.7873 12.232 28.11 12.0658 28.5173C11.7685 29.2135 12.2581 30.375 13.5866 30.5019C14.6481 30.6085 15.6881 30.1331 16.302 29.2604C16.9158 28.3877 17.2724 30.4111 18.682 30.5981C18.682 30.5981 18.8512 30.6185 18.8997 30.5465C18.9485 30.475 18.9593 30.3569 18.7335 30.2C18.5078 30.0431 17.202 29.2904 17.2074 27.9758V11.1888C17.1981 10.2496 17.6712 9.36807 18.4593 8.85653L18.4928 8.83615C19.0166 8.55038 19.5731 8.32846 20.1501 8.17538C20.727 8.0223 20.4731 8.11846 20.5108 7.95884C20.5485 7.79923 20.4554 7.69884 20.2404 7.72192C19.8254 7.75461 19.4166 7.84115 19.0239 7.97923C18.4443 8.18499 17.7439 8.59923 16.6197 8.60038C15.752 8.60038 14.592 8.29461 14.1016 8.15384C13.9789 8.11653 13.8589 8.07115 13.742 8.01846C13.6285 7.96846 13.4716 7.91538 13.3716 7.98192C13.2801 8.05307 13.2531 8.18153 13.3089 8.28307C13.3335 8.32615 13.3708 8.36076 13.4162 8.38115C13.7528 8.59384 13.8458 8.57346 14.1624 8.7373C14.5335 8.92692 14.8651 9.18576 15.1393 9.49961C15.6593 10.1111 15.9401 10.8911 15.9289 11.6938" fill="white"/>
</svg>
