<svg width="213" height="40" viewBox="0 0 213 40" fill="none" xmlns="http://www.w3.org/2000/svg">
<g clip-path="url(#clip0_303_1820)">
<path d="M59.917 16.9697C58.3586 16.9851 56.8222 17.3397 55.4146 18.0086V7.09955C53.6187 7.78239 51.928 8.7151 50.3926 9.87012C50.0565 10.1389 49.7876 10.4822 49.6073 10.873C49.4269 11.2637 49.3401 11.6911 49.3536 12.1212V38.7879C51.9219 39.6366 54.6149 40.0464 57.3195 40C65.2853 40 69.7878 35.1515 69.7878 28.2251C69.7878 21.2987 66.6707 16.9697 59.917 16.9697ZM57.6658 35.1515C56.8995 35.1932 56.1329 35.0752 55.4146 34.8052V22.684C56.5146 22.2352 57.69 22.0001 58.878 21.9913C61.9951 21.9913 63.5536 24.0693 63.5536 28.0519C63.5536 32.0346 61.6487 35.1515 57.6658 35.1515ZM20.0878 28.3983L17.6634 29.7835C17.317 29.9567 17.317 30.1299 17.317 30.4762V39.3073C17.317 39.6537 17.4902 39.8268 17.6634 39.8268H20.0878V28.3983ZM85.2 17.1428C84.0119 17.1278 82.8383 17.4041 81.7818 17.9474C80.7252 18.4908 79.8178 19.2847 79.139 20.2597C78.9698 19.3219 78.7384 18.3963 78.4463 17.4892L76.0219 17.1428L73.5975 17.4892V39.4805C74.5467 39.7875 75.5469 39.9052 76.5414 39.8268L79.6585 39.4805V28.7446C79.6585 24.4156 81.9097 22.1645 84.8536 22.1645H86.9317C87.1905 20.5587 87.1905 18.9218 86.9317 17.316L85.2 17.1428ZM24.5902 25.8009L21.4731 27.5325H21.3V39.4805H24.7634C24.9471 39.4805 25.1233 39.4075 25.2532 39.2776C25.3831 39.1477 25.4561 38.9716 25.4561 38.7879V26.3203C25.4908 26.2091 25.4871 26.0895 25.4456 25.9807C25.4042 25.8718 25.3273 25.7801 25.2274 25.7201C25.1275 25.6602 25.0104 25.6356 24.8948 25.6502C24.7793 25.6649 24.672 25.7179 24.5902 25.8009ZM19.7414 8.48483C17.185 8.4652 14.6329 8.6972 12.1219 9.17747C13.4661 7.43007 15.1986 6.01962 17.1824 5.05784C19.1662 4.09606 21.3467 3.60938 23.5512 3.63635C26.9234 3.63635 30.2046 4.73003 32.9024 6.75323C33.2487 7.09955 33.5951 7.27271 33.9414 6.92639C34.0151 6.86139 34.0742 6.78146 34.1146 6.69189C34.155 6.60232 34.1759 6.50518 34.1759 6.40691C34.1759 6.30864 34.155 6.2115 34.1146 6.12193C34.0742 6.03237 34.0151 5.95243 33.9414 5.88743C32.392 3.99837 30.433 2.48659 28.2128 1.46657C25.9927 0.44655 23.5695 -0.0549695 21.1268 -1.44206e-05C17.8489 0.0591086 14.6633 1.09622 11.9789 2.97826C9.29456 4.8603 7.23376 7.50142 6.06094 10.5628L0.519478 12.8138C0.0576898 13.1602 -0.115481 13.5065 -3.38219e-05 13.8528C0.0349525 13.9526 0.0923083 14.043 0.16764 14.1171C0.242971 14.1913 0.33428 14.2472 0.43457 14.2807C0.534861 14.3141 0.641473 14.3241 0.746239 14.31C0.851005 14.2959 0.951146 14.2579 1.03899 14.1991C2.45594 13.7517 3.90259 13.4046 5.36826 13.1602C5.21744 13.9589 5.15934 14.7724 5.19509 15.5844C5.14843 18.3374 5.80844 21.0563 7.11208 23.4816C8.41573 25.9068 10.3195 27.9573 12.6414 29.4372C12.9878 29.6104 13.5073 29.6104 13.6805 29.2641C13.8536 28.9177 13.8536 28.5714 13.5073 28.2251C12.0586 26.9151 10.9072 25.3101 10.1306 23.518C9.35394 21.7259 8.9701 19.7883 9.00484 17.8355C8.95113 15.9727 9.36804 14.1265 10.217 12.4675L15.0658 12.1212C26.8414 12.1212 36.8853 16.1039 36.8853 21.1255C36.8853 26.1472 33.5951 26.3203 29.6122 28.0519C28.7463 28.3983 28.7463 28.7446 28.7463 29.0909C28.7463 29.4372 29.2658 29.6104 29.7853 29.4372C36.7122 27.3593 41.7341 23.5498 41.7341 19.2208C41.7341 14.8918 32.0365 8.48483 19.7414 8.48483ZM123.471 12.1212V17.316L120.354 16.9697C113.6 16.9697 109.098 21.4718 109.098 28.7446C109.098 36.0173 113.427 40 120.354 40C123.471 40.0892 126.579 39.6201 129.532 38.6147V7.09955C127.736 7.78239 126.045 8.7151 124.51 9.87012C124.15 10.1171 123.864 10.4566 123.681 10.8528C123.498 11.249 123.425 11.6872 123.471 12.1212ZM123.471 34.8052C122.634 35.0808 121.753 35.1982 120.873 35.1515C116.89 35.1515 115.332 32.5541 115.332 28.7446C115.332 24.9351 116.89 21.8182 120.873 21.8182L123.471 22.1645V34.8052ZM185.466 35.1515C182.522 35.1515 180.444 32.7273 180.444 28.5714C180.444 24.4156 182.176 21.9913 185.466 21.9913C186.826 21.9546 188.18 22.1901 189.449 22.684C189.819 21.1596 190.529 19.7388 191.527 18.5281C189.458 17.4065 187.124 16.8678 184.773 16.9697C178.019 16.9697 174.21 21.645 174.21 28.5714C174.21 35.4978 178.193 40 184.946 40C187.278 40.1147 189.601 39.6382 191.7 38.6147C190.682 37.2997 189.865 35.8408 189.276 34.2857C188.095 34.8793 186.787 35.1765 185.466 35.1515ZM96.4561 16.9697C94.2422 16.9247 92.0315 17.1574 89.8756 17.6623C89.5288 19.2599 89.5288 20.9132 89.8756 22.5108C91.6766 21.9987 93.5454 21.7651 95.417 21.8182C98.5341 21.8182 100.093 23.0303 100.093 25.6277V25.974L97.1487 25.6277C92.1268 25.6277 87.6244 27.5325 87.6244 32.5541C87.6244 37.5757 91.6073 40 97.4951 40C100.305 39.9364 103.096 39.5293 105.807 38.7879V26.1472C105.807 20.0866 102.517 17.1428 96.4561 16.9697ZM100.093 35.1515H97.4951C94.7243 35.1515 93.1658 34.2857 93.1658 32.3809C93.1658 30.4762 94.7243 29.6104 97.4951 29.6104H100.093V35.1515ZM202.437 16.9697C195.683 16.9697 191.873 21.645 191.873 28.5714C191.873 35.4978 195.856 40 202.437 40C209.017 40 213 35.4978 213 28.5714C213 21.645 209.19 16.9697 202.437 16.9697ZM202.437 35.1515C198.973 35.1515 198.107 32.3809 198.107 28.5714C198.107 24.7619 198.973 21.8182 202.437 21.8182C205.9 21.8182 206.939 24.5887 206.939 28.5714C206.939 32.5541 205.727 35.1515 202.437 35.1515ZM143.385 16.9697C136.978 16.9697 132.995 21.2987 132.995 28.5714C132.995 35.8441 137.151 40 144.424 40C146.792 40.0789 149.151 39.6662 151.351 38.7879C151.695 37.2483 151.695 35.6521 151.351 34.1125C149.34 34.7801 147.236 35.1306 145.117 35.1515C141.654 35.1515 139.402 33.7662 138.883 30.303H152.563C152.774 29.2768 152.89 28.2335 152.91 27.1861C152.91 20.606 149.1 16.9697 143.385 16.9697ZM138.883 25.8009C138.905 25.2322 139.039 24.6735 139.278 24.1568C139.516 23.6401 139.854 23.1754 140.272 22.7894C140.691 22.4035 141.181 22.1037 141.715 21.9073C142.249 21.7109 142.817 21.6218 143.385 21.645C146.156 21.645 147.195 23.3766 147.195 25.8009H138.883ZM166.763 26.4935L164.166 25.4545C162.78 24.7619 162.088 24.4156 162.088 23.3766C162.088 22.3376 163.3 21.645 164.858 21.645C166.805 21.6972 168.733 22.0476 170.573 22.684C170.92 21.2033 170.92 19.6625 170.573 18.1818C168.506 17.2657 166.251 16.8504 163.993 16.9697C159.317 16.9697 155.854 19.3939 155.854 23.2034C155.854 27.013 157.239 28.3983 161.395 30.1299L163.3 30.8225C165.032 31.5151 165.551 32.0346 165.551 33.2467C165.551 34.4589 163.819 35.1515 162.434 35.1515C160.182 35.1836 157.946 34.7717 155.854 33.9394C155.339 35.4553 155.339 37.0987 155.854 38.6147C158.192 39.6555 160.743 40.1301 163.3 40C167.976 40 171.785 37.5757 171.785 33.2467C171.785 28.9177 170.227 27.8788 166.763 26.4935Z" fill="white"/>
</g>
<defs>
<clipPath id="clip0_303_1820">
<rect width="213" height="40" fill="white"/>
</clipPath>
</defs>
</svg>
