<svg width="101" height="40" viewBox="0 0 101 40" fill="none" xmlns="http://www.w3.org/2000/svg">
<g clip-path="url(#clip0_303_1822)">
<path fill-rule="evenodd" clip-rule="evenodd" d="M93.8879 16.9732H91.4509L91.2492 17.8643H93.8879C96.302 17.8643 97.1166 18.5195 97.1166 20.4608V21.4005C96.5179 20.7894 95.4595 20.4795 93.9638 20.4795C91.5773 20.4795 90.4173 21.5111 90.4173 23.6327V23.7871C90.4173 25.7762 91.5598 26.7851 93.8122 26.7851H94.4188C96.8049 26.7851 98.0154 25.7762 98.0154 23.7871V20.4608C98.0154 17.9835 96.8194 16.9732 93.8879 16.9732ZM97.1166 23.9157C97.1166 25.3392 96.3532 25.8939 94.3936 25.8939H94.0145C92.1234 25.8939 91.3164 25.2635 91.3164 23.7871V23.6327C91.3164 22.0289 92.0854 21.3451 93.8879 21.3451H94.0396C96.1964 21.3451 97.1166 22.0058 97.1166 23.5552V23.9157ZM31.313 18.7215L31.7924 16.341H27.6661V13.0891L24.7696 13.5352V23.2484C24.7696 26.6063 26.0613 27.6056 29.5831 27.6056H31.125L31.6046 25.2461H29.7914C28.1871 25.2461 27.6659 24.8428 27.6659 23.057V18.7215H31.313ZM11.412 11.9623V22.3985C11.412 26.2668 13.1622 27.882 16.9759 27.882C20.9352 27.882 22.6857 26.3094 22.6857 22.4195V21.4208C22.6857 17.7651 21.06 15.9795 17.5177 15.9795C16.3922 15.9795 15.1627 16.2132 14.3291 16.8719V11.4947L11.412 11.9623ZM17.0799 18.3172C19.0804 18.3172 19.7891 19.1251 19.7891 21.5266V22.4195C19.7891 24.7572 19.0804 25.5653 17.0383 25.5653C14.9962 25.5653 14.2872 24.7572 14.2872 22.3982V21.1868C14.2872 19.04 14.9962 18.3172 17.0799 18.3172ZM38.3148 15.9795C34.5011 15.9795 32.7506 17.6159 32.7506 21.3567V21.9306C32.7506 25.48 34.272 27.2015 37.856 27.2015C39.0022 27.2015 40.1485 26.9894 40.9611 26.3301V26.7557C40.9611 28.7537 40.1069 29.4119 38.1062 29.4119H36.9084C36.2237 29.4243 35.9126 29.5484 35.5 30.2382L35.4977 30.2372C32.0617 35.7835 26.0963 39.1719 19.5953 39.1719C9.22247 39.1719 0.783892 30.5653 0.783892 19.9856C0.783892 9.40608 9.22247 0.799494 19.5953 0.799494C26.8812 0.799494 33.5094 5.10304 36.6105 11.8003H37.4748C34.3144 4.62886 27.3081 0 19.5953 0C8.79055 0 0 8.96557 0 19.9856C0 31.0058 8.79055 39.9714 19.5953 39.9714C25.9496 39.9714 31.8137 36.8641 35.4695 31.7073H38.2729C41.9614 31.7073 43.8579 30.2835 43.8579 26.6491V21.1656C43.8579 17.5522 42.0449 15.9795 38.3148 15.9795ZM40.9821 22.2919C40.9821 24.2899 40.2944 24.9061 38.315 24.9061C36.0849 24.9061 35.6474 24.1197 35.6474 21.8033V21.442C35.6474 19.1461 36.0433 18.3172 38.3148 18.3172C40.5444 18.3172 40.9821 19.1251 40.9821 21.463V22.2919ZM99.8717 26.7851H100.771V13.2863H99.872V26.7851H99.8717ZM79.6154 17.8646L79.8172 16.9732H75.7957V14.4248L74.8714 14.5932V23.323C74.8714 25.8091 75.7848 26.7337 78.2407 26.7337H79.5687L79.7367 25.8425H78.2407C76.3897 25.8425 75.7957 25.243 75.7957 23.3742V17.8648H79.6157L79.6154 17.8646ZM87.9403 22.9106C87.9403 25.2081 87.2356 25.9453 85.0405 25.9453C82.9101 25.9453 82.1909 25.1797 82.1909 22.9106V16.9732H81.2667V22.9106C81.2667 25.736 82.3249 26.8365 85.0402 26.8365C87.7388 26.8365 88.8394 25.6995 88.8394 22.9106V16.9732H87.9403V22.9106ZM67.6053 22.2661V21.4408C67.6053 18.8003 68.4897 17.8646 70.9855 17.8646H73.0943L73.2953 16.9732H70.9857C68.009 16.9732 66.6808 18.3509 66.6808 21.4405V22.2661C66.6808 25.3557 68.0088 26.7337 70.9857 26.7337H73.1189L73.3207 25.8425H70.9857C68.5529 25.8425 67.6055 24.8397 67.6055 22.2661H67.6053ZM60.9502 16.9732H58.513L58.3118 17.8643H60.9502C63.3453 17.8643 64.1533 18.5195 64.1533 20.4608V21.4005C63.5551 20.7894 62.4967 20.4795 61.0004 20.4795C58.6145 20.4795 57.4545 21.5111 57.4545 23.6327V23.7871C57.4545 25.7762 58.6049 26.7851 60.8741 26.7851H61.4808C63.851 26.7851 65.0526 25.7762 65.0526 23.7871V20.4608C65.0526 17.9835 63.864 16.9732 60.9502 16.9732ZM64.1533 23.9157C64.1533 25.358 63.4222 25.8939 61.4557 25.8939H61.0766C59.1682 25.8939 58.3536 25.2635 58.3536 23.7871V23.6327C58.3536 22.0289 59.1226 21.3451 60.9248 21.3451H61.0766C63.2331 21.3451 64.1533 22.0058 64.1533 23.5552V23.9157ZM51.9003 16.8185C49.05 16.8185 47.7222 18.2547 47.7222 21.3375V29.7243H48.6213V25.4177C49.272 26.2803 50.485 26.7851 51.9508 26.7851C54.7882 26.7851 56.0535 25.3911 56.0535 22.2661V21.3119C56.0535 18.2043 54.7724 16.8185 51.9003 16.8185ZM55.1287 22.2658C55.1287 24.9106 54.2677 25.8937 51.9508 25.8937C49.7582 25.8937 48.6465 24.8033 48.6465 22.6524V21.3375C48.6465 18.7603 49.5892 17.7094 51.9003 17.7094C54.2235 17.7094 55.1287 18.7192 55.1287 21.3119V22.2658Z" fill="white"/>
</g>
<defs>
<clipPath id="clip0_303_1822">
<rect width="101" height="40" fill="white"/>
</clipPath>
</defs>
</svg>
