<svg width="200" height="40" viewBox="0 0 200 40" fill="none" xmlns="http://www.w3.org/2000/svg">
<g clip-path="url(#clip0_303_1824)">
<path fill-rule="evenodd" clip-rule="evenodd" d="M25.0567 26.7417C26.3533 25.6067 27.1983 24.115 27.5967 22.2683H40.3967C39.81 27.5467 37.685 31.82 34.0233 35.0917C30.36 38.3633 25.85 40 20.4967 40C16.5917 40 13.0767 39.1417 9.95 37.4267C6.82333 35.7117 4.38333 33.3283 2.63 30.2767C0.876666 27.225 0 23.8 0 20C0 16.2 0.876666 12.775 2.63 9.72333C4.38333 6.67167 6.82333 4.28833 9.95 2.57333C13.0767 0.856667 16.5917 0 20.4967 0C25.765 0 30.2133 1.57833 33.8417 4.73667C37.4683 7.89333 39.6117 12.0317 40.2667 17.15H27.65C27.115 15.4617 26.2 14.1033 24.9033 13.0733C23.6083 12.045 22.1567 11.53 20.55 11.53C18.3383 11.53 16.555 12.3083 15.2 13.865C13.8417 15.4217 13.165 17.4667 13.165 19.9983C13.165 22.515 13.8483 24.5517 15.2117 26.1083C16.5783 27.665 18.355 28.4417 20.55 28.4417C22.26 28.4417 23.7617 27.875 25.0567 26.7417ZM70.49 16.3417C72.975 18.725 74.2183 21.8083 74.2183 25.5867C74.2183 29.9067 72.7883 33.39 69.9267 36.0333C67.0633 38.6783 63.2933 40 58.61 40C53.9833 40 50.2217 38.6733 47.3233 36.02C44.4233 33.365 42.975 29.9267 42.975 25.6983C42.975 23.39 43.3733 21.0667 44.1683 18.73C44.9633 16.3933 46.1933 13.8367 47.8583 11.0633L53.7417 1.28L66.175 1.27833L59.2133 12.8217C59.9083 12.785 60.4567 12.7667 60.86 12.7667C64.7917 12.7667 68.0017 13.9583 70.49 16.3417ZM62.095 29.1333C62.99 28.2217 63.4383 27.04 63.4383 25.5867C63.4383 24.135 62.99 22.9433 62.095 22.0117C61.1983 21.08 60.0367 20.615 58.6117 20.615C57.185 20.615 56.0217 21.0817 55.1283 22.0117C54.23 22.9433 53.7833 24.135 53.7833 25.5867C53.7833 27.04 54.23 28.2217 55.1267 29.1333C56.0217 30.0467 57.185 30.5033 58.61 30.5033C60.0367 30.5033 61.2 30.0467 62.095 29.1333ZM97.5267 18.2667C101.943 19.5733 104.733 23.4817 104.733 28.5333C104.733 31.325 103.77 33.75 101.87 35.7417C99.9817 37.7183 97.6133 38.7217 94.83 38.7217H82.7867C82.7646 38.7214 82.7427 38.7169 82.7224 38.7082C82.702 38.6996 82.6836 38.687 82.6681 38.6712C82.6526 38.6554 82.6404 38.6367 82.6322 38.6162C82.6239 38.5957 82.6198 38.5738 82.62 38.5517V1.44833C82.62 1.355 82.6933 1.27833 82.7867 1.27833H93.395C95.9733 1.27833 98.1017 2.14 99.7167 3.84167C101.377 5.475 102.223 7.65833 102.223 10.32C102.223 13.89 100.452 16.8333 97.5267 18.2667ZM100.86 34.7867C102.553 33.0617 103.377 31.0167 103.377 28.5317C103.377 25.7717 102.532 23.51 100.865 21.8133C99.14 20.0583 97.015 19.2033 94.3683 19.2033H83.9783V37.3383H94.8283C97.215 37.3383 99.245 36.4783 100.86 34.7867ZM83.9767 2.66167V17.8217H93.395C95.5983 17.8217 97.4033 17.1183 98.7633 15.7333C100.158 14.3133 100.865 12.4917 100.865 10.32C100.865 5.81 97.7933 2.66167 93.395 2.66167H83.9767ZM199.968 38.4533C199.986 38.4784 199.997 38.5079 200 38.5386C200.002 38.5694 199.996 38.6002 199.982 38.6277C199.968 38.6552 199.947 38.6784 199.921 38.6947C199.894 38.7109 199.864 38.7197 199.833 38.72H198.57C198.543 38.7202 198.516 38.7138 198.492 38.7013C198.468 38.6888 198.447 38.6706 198.432 38.6483L184.933 19.3733L178.972 26.3833V38.55C178.972 38.5722 178.968 38.5944 178.96 38.6151C178.952 38.6358 178.94 38.6546 178.924 38.6706C178.909 38.6866 178.89 38.6993 178.87 38.7081C178.849 38.7168 178.827 38.7215 178.805 38.7217H177.802C177.78 38.7214 177.758 38.7169 177.737 38.7082C177.717 38.6996 177.699 38.687 177.683 38.6712C177.668 38.6554 177.655 38.6367 177.647 38.6162C177.639 38.5957 177.635 38.5738 177.635 38.5517V1.44833C177.635 1.355 177.71 1.27833 177.802 1.27833H178.805C178.897 1.27833 178.972 1.355 178.972 1.44833V24.3217L198.333 1.33833C198.349 1.31961 198.369 1.30454 198.391 1.29418C198.413 1.28381 198.437 1.27841 198.462 1.27833H199.788C199.882 1.27833 199.957 1.355 199.957 1.44833C199.957 1.49 199.94 1.52833 199.917 1.55833L185.832 18.2783L199.968 38.4533ZM169.16 1.27833C169.252 1.27833 169.327 1.355 169.327 1.44833V38.5517C169.327 38.5738 169.323 38.5957 169.314 38.6162C169.306 38.6367 169.294 38.6554 169.279 38.6712C169.263 38.687 169.245 38.6996 169.224 38.7082C169.204 38.7169 169.182 38.7214 169.16 38.7217H168.698C168.672 38.7218 168.646 38.7155 168.622 38.7033C168.599 38.6911 168.578 38.6734 168.563 38.6517L144.263 4.31833V38.5517C144.264 38.5738 144.259 38.5957 144.251 38.6162C144.243 38.6367 144.231 38.6554 144.215 38.6712C144.2 38.687 144.181 38.6996 144.161 38.7082C144.141 38.7169 144.119 38.7214 144.097 38.7217H143.073C143.051 38.7214 143.029 38.7169 143.009 38.7082C142.989 38.6996 142.97 38.687 142.955 38.6712C142.939 38.6554 142.927 38.6367 142.919 38.6162C142.911 38.5957 142.906 38.5738 142.907 38.5517V1.44833C142.907 1.355 142.982 1.27833 143.073 1.27833H143.723C143.749 1.27872 143.775 1.28525 143.798 1.29742C143.822 1.30958 143.841 1.32702 143.857 1.34833L167.968 35.415V1.45C167.968 1.35667 168.043 1.28 168.135 1.28L169.16 1.27833ZM136.863 38.4917C136.873 38.5172 136.877 38.5448 136.874 38.5721C136.871 38.5993 136.861 38.6254 136.846 38.6481C136.83 38.6708 136.81 38.6893 136.785 38.7021C136.761 38.715 136.734 38.7217 136.707 38.7217H135.643C135.609 38.7214 135.575 38.7104 135.547 38.69C135.519 38.6697 135.498 38.6412 135.487 38.6083L131.233 27.1367H113.895L109.643 38.6117C109.632 38.6439 109.61 38.6717 109.582 38.6914C109.554 38.7111 109.521 38.7216 109.487 38.7217H108.422C108.394 38.7215 108.367 38.7146 108.343 38.7016C108.319 38.6886 108.298 38.6698 108.283 38.6469C108.267 38.6241 108.258 38.5978 108.255 38.5705C108.252 38.5431 108.256 38.5155 108.267 38.49L122.083 1.38833C122.095 1.35612 122.116 1.32828 122.144 1.3086C122.172 1.28892 122.206 1.27835 122.24 1.27833H122.887C122.921 1.27812 122.955 1.28877 122.984 1.3088C123.012 1.32882 123.034 1.35721 123.045 1.39L136.863 38.4917ZM114.393 25.7533H130.737L122.567 3.94833L114.393 25.7533Z" fill="white"/>
</g>
<defs>
<clipPath id="clip0_303_1824">
<rect width="200" height="40" fill="white"/>
</clipPath>
</defs>
</svg>
