<svg width="177" height="40" viewBox="0 0 177 40" fill="none" xmlns="http://www.w3.org/2000/svg">
<path d="M88.8911 39.4284H105.724L124.159 20.9547H107.327L88.8911 39.4284ZM120.342 7.93917L126.029 19.0844L144.465 0.648926H127.632L120.342 7.93917Z" fill="#F7941D"/>
<path fill-rule="evenodd" clip-rule="evenodd" d="M88.3186 39.4284H74.2344L80.3796 0.648926H94.4639L88.3186 39.4284Z" fill="white"/>
<path fill-rule="evenodd" clip-rule="evenodd" d="M43.6964 39.4278H28.8105L48.3918 0.685928H63.9649L71.6743 39.4278H56.7506L56.2149 34.5808H45.5673L43.6598 39.4278H43.6964ZM55.3762 25.4199L54.689 18.3206C54.5374 16.6405 54.6132 14.1216 54.6524 12.3278H54.0789L49.2711 25.4186H55.4154L55.3762 25.4199Z" fill="white"/>
<path fill-rule="evenodd" clip-rule="evenodd" d="M126.029 19.0844H109.197L99.8071 0.648926H116.64L126.029 19.0844Z" fill="white"/>
<path fill-rule="evenodd" clip-rule="evenodd" d="M148.966 39.4278H134.08L153.7 0.68589H169.273L176.982 39.4278H162.058L161.523 34.5808H150.875L148.966 39.4278ZM160.646 25.4199L159.959 18.3205C159.806 16.6404 159.882 14.1216 159.882 12.3278H159.31L154.5 25.4186L160.646 25.4199ZM30.9874 16.3347C29.0786 14.2365 26.5206 12.4415 23.3537 12.4415C19.1547 12.4415 15.1857 15.8004 14.4985 19.9993C13.8492 24.2741 16.9795 27.5572 21.1771 27.5572C24.4224 27.5572 27.2078 26.1828 29.8037 23.9684L27.0941 38.4727C24.651 39.5414 19.3455 40 16.8253 40C5.79615 40 -1.49523 31.4113 0.260658 20.3808C2.05443 9.04465 12.3611 0 23.7352 0C26.9034 0 30.1094 0.610116 32.9327 1.60172L30.9861 16.3739L30.9874 16.3347Z" fill="white"/>
<path fill-rule="evenodd" clip-rule="evenodd" d="M133.549 39.4284H116.717L113.014 32.1L124.159 20.9548L133.549 39.4284Z" fill="white"/>
</svg>
