<svg width="73" height="40" viewBox="0 0 73 40" fill="none" xmlns="http://www.w3.org/2000/svg">
<g clip-path="url(#clip0_303_1660)">
<path d="M13.1776 3.81559C15.4861 1.40697 18.5482 0 22.1456 0C29.1537 0 33.8001 5.0818 34.6891 12.6947C34.9773 15.167 34.9747 18.6525 34.9718 22.6896C34.9712 23.1036 34.9712 23.5235 34.9712 23.9486V39.0724H25.3337V27.8864C25.3337 27.8864 25.3141 18.3127 25.2552 16.5235C24.9965 8.73065 20.3513 3.83405 13.1767 3.82878C11.0121 6.10011 9.85222 8.8772 9.68117 13.1234C9.65766 13.7157 9.66358 15.815 9.67138 18.5817C9.67542 20.0152 9.67996 21.628 9.68117 23.3031C9.68831 30.5943 9.68117 39.0741 9.68117 39.0741H0.0436329V21.8589C0.0436329 21.269 0.0328009 20.6741 0.0219439 20.0769C8.61761e-05 18.8755 -0.0219448 17.6648 0.0436329 16.4661C0.152521 14.4677 0.500605 12.5032 1.43953 10.6782C3.58873 6.49728 7.99244 3.80534 12.6871 3.80534C12.8511 3.80534 13.0153 3.80936 13.1776 3.81559Z" fill="white"/>
<path d="M72.9564 23.5341C73.022 22.3354 73 21.1246 72.9782 19.9233C72.9672 19.3261 72.9564 18.7312 72.9564 18.1413V0.92609H63.319C63.319 0.92609 63.3118 9.40588 63.319 16.697C63.3201 18.3721 63.3247 19.9847 63.3287 21.4182C63.3365 24.1851 63.3424 26.2844 63.319 26.8766C63.148 31.123 61.988 33.9 59.8235 36.1714C52.6489 36.1664 48.0039 31.2694 47.7451 23.4767C47.6862 21.6875 47.6613 17.2473 47.6613 12.1048V0.918777L38.0309 0.927516V16.0514C38.0309 16.4765 38.0304 16.8963 38.0304 17.3104C38.0273 21.3475 38.0249 24.8329 38.3131 27.3053C39.2002 34.9182 43.8466 40 50.8547 40C54.4522 40 57.5143 38.593 59.8228 36.1844C59.985 36.1906 60.149 36.1944 60.313 36.1944C65.0077 36.1944 69.4115 33.5025 71.5607 29.3216C72.4996 27.4964 72.8476 25.5321 72.9565 23.5337L72.9564 23.5341Z" fill="white"/>
</g>
<defs>
<clipPath id="clip0_303_1660">
<rect width="73" height="40" fill="white"/>
</clipPath>
</defs>
</svg>
