<?xml version="1.0"?>
<svg xmlns="http://www.w3.org/2000/svg" xmlns:xlink="http://www.w3.org/1999/xlink" width="200px" height="30.8px"
	 viewBox="0 0 200 30.8" style="enable-background:new 0 0 200 30.8;" xml:space="preserve">

<g>
	<polygon points="4.4,3.7 200,3.7 195.6,27.4 0,27.4 	" fill="#11175E"/>
	<polygon points="94.2,30.8 125.5,30.8 125.7,30.8 125.7,30.6 131.3,0.2 131.4,0 131.1,0 99.9,0 99.8,0 99.7,0.2 
		94,30.5 94,30.8 	" fill="#11175E"/>
	<polygon points="94.7,30.4 125.2,30.4 125.3,30.4 125.3,30.2 130.8,0.6 130.9,0.4 130.6,0.4 100.3,0.4 100.1,0.4 
		100.1,0.5 94.5,30.2 94.5,30.4 	" fill="#FFFFFF"/>
	<g>
		<path d="M14.1,10h3.4c0.7,0,1.2,0.1,1.7,0.4c0.4,0.3,0.6,0.8,0.5,1.5c-0.1,0.7-0.4,1.2-0.9,1.5
			c-0.5,0.3-1,0.5-1.7,0.5h-3.7L14.1,10z M7.9,23.6h8c1,0,2-0.2,2.9-0.5c0.9-0.3,1.7-0.8,2.4-1.5c0.7-0.7,1.1-1.6,1.4-2.7
			c0.2-1,0.1-1.9-0.3-2.6c-0.4-0.7-1-1.2-2-1.5c0.8-0.3,1.4-0.8,1.9-1.4s0.8-1.2,1-2c0.3-1.5,0-2.6-0.9-3.2c-0.8-0.6-2-0.9-3.6-0.9
			H11L7.9,23.6z M12.9,16.3h4c0.8,0,1.4,0.2,1.8,0.5c0.4,0.4,0.5,1,0.4,1.8c-0.2,0.8-0.6,1.4-1.1,1.7c-0.6,0.3-1.2,0.5-2,0.4h-3.9
			L12.9,16.3z" fill="#FFFFFF"/>
	</g>
	<path d="M30.3,7.2H27l-0.5,2.7h3.3L30.3,7.2z M23.9,23.6h3.3l2.2-11.8h-3.3L23.9,23.6z" fill="#FFFFFF"/>
	<g>
		<path d="M39.4,17.6c-0.2,1-0.5,1.9-1.1,2.6c-0.6,0.8-1.4,1.1-2.4,1.2c-0.7,0-1.2-0.2-1.5-0.6
			c-0.4-0.4-0.6-0.8-0.7-1.4c-0.1-0.6-0.1-1.2,0-1.8c0.2-1,0.6-1.9,1.1-2.6c0.6-0.7,1.4-1.1,2.5-1.2c1,0,1.7,0.4,2,1.2
			C39.6,15.7,39.6,16.6,39.4,17.6 M38.3,23.6h3.1l3-16.3h-3.3l-1.1,6h0c-0.3-0.6-0.7-1-1.3-1.3c-0.6-0.3-1.2-0.4-1.9-0.4
			c-1.2,0-2.2,0.3-3.1,0.9c-0.9,0.6-1.6,1.3-2.2,2.2c-0.6,0.9-0.9,1.9-1.2,3c-0.2,1.1-0.2,2.1,0,3.1c0.2,1,0.7,1.7,1.3,2.3
			c0.7,0.6,1.6,0.9,2.8,0.9c0.8,0,1.5-0.1,2.2-0.4c0.7-0.3,1.3-0.8,1.8-1.4h0L38.3,23.6z" fill="#FFFFFF"/>
		<path d="M60,16.4c0.1-0.3,0.2-0.7,0.5-1.1c0.2-0.4,0.6-0.7,1-1c0.4-0.3,1-0.4,1.7-0.4c0.8,0,1.3,0.2,1.7,0.6
			c0.3,0.4,0.5,1.1,0.5,1.9H60z M68.2,18.4c0.3-1.2,0.4-2.4,0.1-3.4c-0.2-1.1-0.7-1.9-1.5-2.6c-0.8-0.7-1.8-1-3.2-1
			c-1.2,0-2.3,0.3-3.3,0.8c-1,0.5-1.9,1.3-2.5,2.2s-1.1,2-1.4,3.2c-0.3,1.9-0.1,3.4,0.8,4.5c0.9,1.1,2.2,1.7,4.1,1.7
			c1.4,0,2.6-0.3,3.6-0.9c1.1-0.6,2-1.6,2.7-3h-2.9c-0.2,0.4-0.5,0.7-1.1,1c-0.5,0.3-1.1,0.5-1.8,0.5c-0.9,0-1.6-0.2-2-0.7
			c-0.4-0.5-0.5-1.2-0.4-2.3H68.2z" fill="#FFFFFF"/>
		<path d="M69.3,19.7c-0.1,1,0,1.9,0.4,2.5c0.4,0.6,1,1,1.8,1.3c0.8,0.3,1.6,0.4,2.6,0.4c0.9,0,1.8-0.1,2.7-0.4
			c0.9-0.3,1.6-0.7,2.3-1.3c0.6-0.6,1.1-1.4,1.3-2.5c0.2-1.1-0.1-1.8-0.7-2.3c-0.7-0.5-1.5-0.8-2.4-1c-0.9-0.2-1.8-0.4-2.4-0.6
			c-0.7-0.2-1-0.6-0.9-1.2c0.1-0.5,0.4-0.8,0.8-0.9c0.4-0.1,0.8-0.2,1.2-0.2c0.6,0,1.1,0.1,1.5,0.3s0.5,0.7,0.5,1.3h3.1
			c0.1-1-0.1-1.7-0.5-2.3c-0.4-0.6-1-0.9-1.7-1.2c-0.7-0.2-1.5-0.3-2.4-0.3c-0.9,0-1.7,0.1-2.5,0.3c-0.8,0.2-1.5,0.6-2.1,1.2
			c-0.6,0.6-1,1.3-1.2,2.3c-0.1,0.7,0,1.2,0.3,1.7c0.3,0.4,0.7,0.7,1.2,1c0.5,0.2,1.1,0.4,1.7,0.5c1.1,0.2,2,0.5,2.6,0.7
			c0.6,0.3,0.9,0.6,0.8,1.1c-0.1,0.6-0.4,1-0.9,1.2c-0.5,0.2-1,0.3-1.5,0.3c-0.7,0-1.2-0.1-1.6-0.5c-0.4-0.3-0.6-0.8-0.5-1.5H69.3z" fill="#FFFFFF"/>
		<path d="M88.6,8.2h-3.3l-0.7,3.5h-2l-0.4,2.2h2l-1.3,7c-0.2,1.1,0,1.9,0.7,2.3c0.6,0.4,1.5,0.6,2.5,0.5
			c0.3,0,0.7,0,1,0c0.3,0,0.6,0,0.9-0.1l0.5-2.5c-0.2,0-0.4,0.1-0.5,0.1c-0.2,0-0.3,0-0.5,0c-0.5,0-0.9-0.1-1.1-0.3
			c-0.2-0.2-0.2-0.6-0.1-1.1l1.1-5.9h2.4l0.4-2.2h-2.4L88.6,8.2z" fill="#FFFFFF"/>
	</g>
	<polygon points="50.6,23.5 56.8,11.7 54,11.7 49.6,20.4 48.5,11.7 45,11.7 47,23.5 	" fill="#FFFFFF"/>
	<g>
		<path d="M159,17.9l-0.3,1.1c-0.3,1.3-1,2.7-3,2.7c-0.9,0-1.8-0.4-1.8-1.3c0-1.5,1.1-1.8,2.4-1.9
			C157.2,18.4,158.2,18.4,159,17.9 M162.6,14.5c0-2.7-2.9-3.1-5-3.1c-2.7,0-5.2,0.9-5.6,3.9h3.1c0.2-1.2,1.2-1.7,2.4-1.7
			c0.8,0,2.1,0.3,2.1,1.4c0,1.5-1.4,1.4-4.5,1.7c-2.8,0.3-4.5,1.8-4.5,4c0,1.6,1.4,3.1,4,3.1c1.3,0,2.7-0.5,3.6-1.5l0,1.2h3.3
			c-0.1-0.2-0.1-0.5-0.1-0.7c0-0.5,0-1.2,0.1-1.6l0.9-4.8C162.5,15.8,162.6,15,162.6,14.5" fill="#FFFFFF"/>
		<path d="M163.7,23.6h3.3l1.2-6.3c0.3-1.6,1.3-3.3,3.3-3.3c0.8,0,1.6,0.5,1.6,1.2c0,0.3-0.1,1.1-0.2,1.4l-1.3,6.9h3.3
			l1.3-6.9c0.1-0.4,0.3-1.6,0.3-2c-0.1-2.1-1.3-3.2-3.6-3.2c-1.7,0-3.1,0.7-4.1,2h0l0.3-1.6h-3.1L163.7,23.6z" fill="#FFFFFF"/>
	</g>
	<polygon points="177.3,23.6 180.6,23.6 181.3,19.7 183,18.3 185.1,23.6 188.7,23.6 185.4,16.2 190.7,11.7 186.6,11.7 
		182,16.1 182,16.1 183.6,7.2 180.4,7.2 	" fill="#FFFFFF"/>
	<g>
		<path d="M140.4,10h3.4c0.7,0,1.2,0.1,1.7,0.4c0.4,0.3,0.6,0.8,0.5,1.5c-0.1,0.7-0.4,1.2-0.9,1.5
			c-0.5,0.3-1,0.5-1.7,0.5h-3.7L140.4,10z M134.3,23.6h8c1,0,2-0.2,2.9-0.5c0.9-0.3,1.7-0.8,2.4-1.5c0.7-0.7,1.1-1.6,1.4-2.7
			c0.2-1,0.1-1.9-0.3-2.6c-0.4-0.7-1-1.2-2-1.5c0.8-0.3,1.4-0.8,1.9-1.4s0.8-1.2,1-2c0.3-1.5,0-2.6-0.9-3.2c-0.8-0.6-2-0.9-3.6-0.9
			h-7.8L134.3,23.6z M139.2,16.3h4c0.8,0,1.4,0.2,1.8,0.5c0.4,0.4,0.5,1,0.4,1.8c-0.2,0.8-0.6,1.4-1.1,1.7c-0.6,0.3-1.2,0.5-2,0.4
			h-3.9L139.2,16.3z" fill="#FFFFFF"/>
		<path d="M121.1,5.2L121.1,5.2c3.1,0,5.1,2.1,4.5,4.8c-0.6,2.6-3.6,4.8-6.7,4.8h-16l1.8-9.6H121.1z" fill="#11175E"/>
		<path d="M118.4,16.9L118.4,16.9c3.1,0,5.1,2.1,4.5,4.8c-0.6,2.6-3.6,4.8-6.7,4.8h-15.7l1.8-9.6H118.4z" fill="#11175E"/>
	</g>
	<polygon points="113.3,22.4 126.5,15.9 116.2,9.3 	" fill="#ADAFB2"/>
	<path d="M113.3,22.4l13.2-6.5l0.1-0.1l-0.1-0.1l-10.3-6.6l-0.1-0.1l0,0.1l-2.9,13.1l0,0.2L113.3,22.4z M116.2,9.4
		l10.3,6.6l0-0.1l-13.2,6.5l0.1,0.1l2.9-13.1L116.2,9.4z" fill="#FFFFFF"/>
</g>
</svg>
