<!-- Generated by IcoMoon.io -->
<svg version="1.1" xmlns="http://www.w3.org/2000/svg" width="156" height="32" viewBox="0 0 156 32">
<title>logo-color</title>
<path fill="#184785" d="M141.871 12.673l0.26 1.992c0 0-1.732-0.852-3.811-0.736-1.227 0.072-2.021 0.505-2.699 1.039v10.104h-2.815v-12.485l2.815-0.361v1.212c0.548-0.361 1.487-0.982 2.8-1.068 1.588-0.115 3.175 0.245 3.45 0.303zM67.767 23.989c1.083-0.087 2.973-0.318 2.973-2.093 0-0.606-0.404-1.083-1.097-1.472-0.938-0.534-2.079-0.953-2.54-1.155-1.848-0.751-3.825-1.645-3.825-3.479 0-2.122 1.559-3.594 5.355-3.594 1.689 0 3.71 0.476 3.71 0.476v1.949c0 0-2.18-1.097-4.027-1.097-1.342 0-2.454 0.404-2.454 1.53 0 0.592 0.404 1.039 1.083 1.4 0.953 0.52 2.079 0.895 2.54 1.083 1.862 0.736 3.839 1.703 3.839 3.868 0 2.757-2.555 3.912-5.831 3.912-2.656 0-4.287-0.491-4.287-0.491v-1.054c-0.014-0.014 2.742 0.346 4.561 0.216zM86.632 14.607c0 0-2.122-1.097-3.94-1.097-3.406 0-4.099 2.526-4.099 3.955 0 1.617 0.087 3.204 1.155 4.446 1.039 1.184 3.19 2.079 5.24 2.079 0.852 0 1.92-0.188 1.92-0.188v1.054c0 0-1.458 0.462-3.58 0.462-5.687 0-7.794-2.887-7.794-6.943 0-3.363 1.718-6.178 6.438-6.178 2.843 0 4.677 0.476 4.677 0.476v1.934zM127.033 16.57c0-1.573-1.054-3.060-2.8-3.060-2.555 0-3.147 2.064-3.291 3.060h6.091zM129.775 24.783c0 0-1.516 0.52-4.114 0.52-4.778 0-7.578-2.483-7.578-6.943 0-3.839 1.79-6.178 6.567-6.178 3.089 0 5.514 1.819 5.514 5.037v0.549h-9.267c0 1.328 0.216 3.074 1.328 4.287 1.068 1.169 3.017 1.92 5.138 1.92 1.039 0 2.439-0.361 2.439-0.361v1.169zM103.477 12.832l2.815-0.375 4.561 9.396 4.301-9.396h2.107l-6.019 12.832h-1.703l-6.062-12.456zM95.654 23.975c3.406 0 3.695-3.118 3.695-5.167 0-2.208-0.534-5.297-3.753-5.297-3.536 0-3.724 3.089-3.724 5.297 0 2.021 0.592 5.167 3.782 5.167zM88.812 18.807c0-3.912 1.977-6.625 6.755-6.625 4.287 0 6.842 2.598 6.842 6.596 0 4.027-2.208 6.524-6.784 6.524-4.388 0-6.813-2.67-6.813-6.495zM56.379 8.328c0-0.895 0.88-1.631 1.992-1.631 1.054 0 1.963 0.722 1.963 1.631 0 0.953-0.909 1.631-1.963 1.631-1.111-0.014-1.992-0.736-1.992-1.631zM57.072 12.529l2.815-0.375v12.861h-2.815v-12.485zM43.475 6.986c2.901 0 5.687 0.693 7.65 2.223 2.107 1.645 3.262 4.215 3.262 6.784 0 2.598-1.111 5.167-3.233 6.813-1.949 1.516-4.806 2.194-7.693 2.194h-5.297v-18.014h5.312zM41.31 8.343v15.343c2.050 0 3.969-0.159 5.283-0.736 2.901-1.299 4.345-4.027 4.345-6.928 0-2.916-1.443-5.629-4.345-6.928-1.313-0.606-3.233-0.751-5.283-0.751zM143.733 12.514l2.699-0.346 3.681 9.238 4.186-9.238h2.078l-5.918 13.063c-0.982 2.078-2.728 4.835-5.875 4.835h-0.476v-1.934c3.161 0.202 4.46-2.151 4.46-3.089 0-0.722-0.361-1.501-0.361-1.501l-4.475-11.027z"></path>
<path fill="#ba8c60" d="M10.753 8.949c-0.794 0.779-1.573 1.573-2.324 2.41 2.454 2.67 4.98 5.254 7.563 7.794 2.584-2.54 5.124-5.124 7.563-7.794-0.751-0.823-1.53-1.602-2.324-2.382-1.761 1.66-3.507 3.349-5.239 5.066-1.718-1.718-3.464-3.421-5.239-5.095zM13.178 6.798c0.967 0.794 1.905 1.617 2.829 2.454 0.924-0.837 1.862-1.66 2.815-2.454-0.909-0.765-1.862-1.501-2.829-2.194-0.967 0.693-1.905 1.429-2.815 2.194zM6.337 13.741c-0.606 0.751-1.184 1.516-1.732 2.309 3.132 4.345 7.015 8.198 11.388 11.287 4.359-3.089 8.242-6.943 11.345-11.302-0.534-0.779-1.097-1.544-1.689-2.281-2.887 3.608-6.149 6.914-9.627 9.959-3.507-3.060-6.77-6.365-9.685-9.974zM1.92 16.007c-0.014-7.592 6.38-14.088 13.986-14.102 7.621 0 14.015 6.51 14.001 14.102 0 7.592-6.394 14.073-14.001 14.073-7.592 0-13.972-6.481-13.986-14.073zM0 16.007c0-8.848 7.13-16.007 15.921-16.007s15.921 7.159 15.921 16.007c0 8.834-7.13 16.007-15.921 16.007-8.79-0.014-15.921-7.174-15.921-16.007zM1.083 16.007c0 8.242 6.64 14.91 14.838 14.91s14.838-6.683 14.838-14.91c0-8.242-6.64-14.91-14.838-14.91-8.198-0.014-14.838 6.668-14.838 14.91z"></path>
</svg>
