<?xml version="1.0" encoding="UTF-8"?>
<svg width="33px" height="33px" viewBox="0 0 33 33" version="1.1" xmlns="http://www.w3.org/2000/svg" xmlns:xlink="http://www.w3.org/1999/xlink">
    <title>header-logo_lrg</title>
    <g id="Page-1" stroke="none" stroke-width="1" fill="none" fill-rule="evenodd">
        <g id="header-logo_lrg" fill-rule="nonzero">
            <g id="icons/reserved/payments">
                <path d="M33,16.5 C33,25.6127208 25.6127208,33 16.5,33 C7.38727917,33 0,25.6127208 0,16.5 C0,7.38727917 7.38727917,0 16.5,0 C25.6127208,0 33,7.38727917 33,16.5" id="Fill-1" fill="#00A9AC"></path>
                <path d="M28.4257417,16.5 C28.4257417,23.0863875 23.0863875,28.4257417 16.5,28.4257417 C9.9136125,28.4257417 4.57425833,23.0863875 4.57425833,16.5 C4.57425833,9.9136125 9.9136125,4.57425833 16.5,4.57425833 C23.0863875,4.57425833 28.4257417,9.9136125 28.4257417,16.5" id="Fill-3" fill="#FA9D1E"></path>
                <path d="M16.5,27.9356825 C10.1842125,27.9356825 5.0642625,22.8157325 5.0642625,16.4999908 C5.0642625,10.1842492 10.1842125,5.06429917 16.5,5.06429917 C22.8157875,5.06429917 27.9357375,10.1842492 27.9357375,16.4999908 C27.9357375,22.8157325 22.8157875,27.9356825 16.5,27.9356825 M16.5,3.92084917 C9.55272083,3.92084917 3.9208125,9.55271167 3.9208125,16.4999908 C3.9208125,23.44727 9.55272083,29.0791783 16.5,29.0791783 C23.4472792,29.0791783 29.0791875,23.44727 29.0791875,16.4999908 C29.0791875,9.55271167 23.4472792,3.92084917 16.5,3.92084917" id="Fill-5" fill="#FFFFFF"></path>
                <path d="M18.1221838,17.0037863 C17.4075046,17.8485404 16.8435713,18.8443154 16.5000046,19.9306571 C16.1564379,18.8443154 15.5925046,17.8485404 14.8778254,17.0037863 L14.8778713,17.0037863 C14.8740213,16.9992488 14.8702171,16.9946196 14.8663213,16.9900821 L16.5000046,16.9900821 L18.1336879,16.9900821 C18.1297921,16.9946196 18.1259879,16.9992488 18.1221379,17.0037863 L18.1221838,17.0037863 Z M16.5000046,15.2474987 C15.6442963,15.2476362 14.7837754,15.2691779 13.9234837,15.3113904 C13.5480629,14.8130904 13.0955962,14.3780404 12.5830879,14.0247112 C13.8763671,13.9329071 15.1825254,13.8861112 16.5000046,13.8861112 C19.1078754,13.8861112 21.6715629,14.0691696 24.1781879,14.4224529 L24.3193546,13.0794904 C21.7948546,12.5731237 19.1795588,12.3068779 16.5000046,12.3068779 C13.8204504,12.3068779 11.2051546,12.5731237 8.68065458,13.0794904 L8.82182125,14.4224529 C9.44753792,14.3342696 10.0768754,14.2567654 10.7095129,14.1900321 C10.8219879,14.1771071 10.9128296,14.2074946 10.9628796,14.2294487 C11.5538087,14.4884529 12.0643462,14.8954071 12.4521879,15.4040196 C10.8450879,15.5273571 9.24848375,15.7228821 7.69491708,15.9884862 L7.84158375,17.3798946 C9.08747125,17.2717279 10.6113837,17.1570987 10.9330879,17.1507279 C12.7592254,17.1145196 14.2753004,18.3679237 14.7122754,20.1457071 C15.0141337,21.4155196 14.8544046,23.0564904 14.8118254,23.8514696 L16.5000046,23.8514696 L18.1881838,23.8514696 C18.1456046,23.0564904 17.9858754,21.4155196 18.2876879,20.1457071 C18.7247087,18.3679237 20.2407837,17.1145196 22.0669213,17.1507279 C22.3886254,17.1570987 23.9125379,17.2717279 25.1584254,17.3798946 L25.3050921,15.9884862 C22.4482087,15.5000862 19.4458962,15.2480487 16.5000046,15.2474987 L16.5000046,15.2474987 Z M16.5000046,9.80198083 C14.6064921,9.80198083 12.7596379,10.0014475 10.9791046,10.3803058 L11.1089046,11.6156058 C12.8679421,11.3536683 14.6680921,11.2177725 16.5000046,11.2177725 C18.3319171,11.2177725 20.1320671,11.3536683 21.8911046,11.6156058 L22.0209046,10.3803058 C20.2403713,10.0014475 18.3935171,9.80198083 16.5000046,9.80198083" id="Fill-9" fill="#000000"></path>
            </g>
        </g>
    </g>
</svg>