<?xml version="1.0" encoding="UTF-8"?><svg id="a" xmlns="http://www.w3.org/2000/svg" width="202.24" height="64.49" viewBox="0 0 202.24 64.49">
<title>GoTyme Bank logo - Brandlogos.net</title><polygon points="122.73 32.39 115.6 15.56 110.03 15.56 120.09 38.6 115.24 50.29 120.59 50.29 134.92 15.56 129.43 15.56 122.73 32.39" style="fill:#2d2d3a;"/><path d="M158.24,39.88v-13.69c0-4.35,2.5-6.56,5.78-6.56,3.64,0,5.63,2.35,5.63,5.99v14.26h5.28v-14.62c0-6.2-3.42-10.2-10.05-10.2-3.57,0-6.56,1.71-8.2,4.35-1.43-2.71-4.14-4.35-7.99-4.35-3.14,0-5.56,1.28-7.13,3.42v-2.92h-5.13v24.32h5.21v-13.55c0-4.49,2.5-6.77,5.92-6.77s5.49,2.21,5.49,5.78v14.48h5.21v.07Z" style="fill:#2d2d3a;"/><path d="M103.54,6.93l-5.28,2.85v5.71h-4.14v4.64h4.14v9.84c0,7.56,2.21,9.91,9.63,9.91h.78v-4.92c-4.49,0-5.13-.71-5.13-5.06v-9.7h5.13v-4.64h-5.13V6.93Z" style="fill:#2d2d3a;"/><path d="M182.34,24.98c1-3.14,3.78-5.28,7.35-5.28s6.35,1.93,7.2,5.28h-14.55ZM189.62,15.06c-7.13,0-12.55,5.56-12.55,12.77s4.85,12.55,12.55,12.55c6.2,0,10.34-3.28,12.19-8.63h-5.56c-.93,2.5-3.21,4.14-6.56,4.14-4.28,0-7.06-2.71-7.63-6.49h20.18v-1.78c-.07-7.27-5.49-12.55-12.62-12.55Z" style="fill:#2d2d3a;"/><path d="M91.28,27.97l-9.41-1.21c-.07,0-.21.07-.21.14-.07.5-.14,1-.29,1.43,0,.07,0,.21.14.21l9.2,2.42c.07,0,.21,0,.21-.14.21-.86.43-1.78.5-2.64,0-.14-.07-.21-.14-.21Z" style="fill:#2d2d3a;"/><path d="M80.87,19.56c.07.21.14.5.29.71.07.21.29.29.43.21l8.77-2.5c.21-.07.29-.29.21-.43-.14-.57-.36-1.07-.57-1.64-.07-.21-.29-.29-.43-.21l-8.49,3.42c-.14,0-.29.21-.21.43Z" style="fill:#2d2d3a;"/><path d="M81.58,21.91c.07.36.14.71.14,1.07,0,.14.14.29.29.29l9.2-.93c.14,0,.29-.14.29-.36-.07-.71-.21-1.43-.36-2.14,0-.14-.21-.29-.36-.21l-9.06,1.93c-.07,0-.21.21-.14.36Z" style="fill:#2d2d3a;"/><path d="M91.42,23.55l-9.41.5c-.14,0-.21.14-.21.21v1.28c0,.14.07.21.21.29l9.34.71c.14,0,.21-.07.29-.21.07-.86.07-1.64.07-2.5-.07-.14-.14-.29-.29-.29Z" style="fill:#2d2d3a;"/><path d="M90.42,32.11l-9.2-2.92c-.07,0-.14,0-.14.07-.14.57-.36,1.07-.64,1.57,0,.07,0,.14.07.14l8.7,4.07c.07,0,.14,0,.14-.07.43-.93.78-1.85,1.07-2.85.07.07.07,0,0,0Z" style="fill:#2d2d3a;"/><path d="M79.87,17.35l.07.21.07.21c.14.21.36.29.57.21l8.06-3.92c.21-.14.29-.36.21-.57-.07-.21-.21-.36-.29-.57-.07-.21-.21-.36-.29-.57-.14-.21-.43-.29-.64-.14l-7.63,4.64c-.14.07-.21.29-.14.5Z" style="fill:#2d2d3a;"/><path d="M80.23,31.54h-.07c-1.28,2.5-3.35,4.71-5.99,6.13-8.2,4.49-18.76.43-21.46-9.13-1.5-5.35.14-11.05,4.21-14.76,3.35-3.07,7.49-4.28,11.41-3.92,0,0,.07,0,.07-.07l.78-9.63s0-.07-.07-.07c-4.28-.36-8.7.36-12.84,2.35-7.35,3.57-12.12,10.27-13.55,17.61h-17.11c-.43,0-.71.29-.71.71v7.92c0,.14.07.29.14.36.07.07.21.14.36.14h13.12c-1.07,6.56-5.7,10.77-13.41,10.77-9.27,0-15.26-6.7-15.26-15.26,0-5.49,2.5-10.06,6.7-12.69,0,0,.29-.21.78-.43,1.35-.78,2.92-1.35,4.64-1.71,3.64-.78,8.99-.57,14.55,2.92.21.14.43.07.57-.21.64-1.28,2.28-4.78,4.14-6.99.07-.07.07-.21,0-.29C36.94,1.8,31.09.09,25.17.09,10.55.16,0,10.93,0,24.76s10.55,24.6,25.1,24.6c8.99,0,16.83-3.92,20.89-11.7.07.14.14.29.29.43,6.99,10.77,21.18,14.55,32.66,8.27,4.42-2.42,7.84-6.06,10.05-10.27v-.07l-8.77-4.49Z" style="fill:#2d2d3a;"/><path d="M71.67,10.64c.5.14.93.36,1.35.57.07.07.21,0,.21-.07l3.99-8.63c.07-.07,0-.21-.07-.21-.86-.36-1.64-.71-2.57-1-.07,0-.21,0-.21.14l-2.92,9.06c.07,0,.14.07.21.14Z" style="fill:#2d2d3a;"/><path d="M78.3,15.14c.14.21.36.43.5.57s.36.21.5.07l7.42-5.35c.14-.14.21-.36.07-.5-.36-.5-.71-.93-1.07-1.35-.14-.14-.36-.14-.5-.07l-6.85,6.06c-.14.21-.14.43-.07.57Z" style="fill:#2d2d3a;"/><path d="M76.37,13.21c.29.21.5.43.78.71.14.14.29.07.43,0l6.49-6.56c.14-.14.14-.29,0-.43-.5-.5-1.07-1-1.64-1.43-.14-.07-.29-.07-.43.07l-5.7,7.27c-.07.07-.07.29.07.36Z" style="fill:#2d2d3a;"/><path d="M74.16,11.71c.36.21.78.43,1.14.71.07.07.29.07.36-.07l5.42-7.63c.07-.07.07-.29-.07-.36-.71-.5-1.43-.93-2.14-1.28-.14-.07-.29,0-.29.07l-4.49,8.27c-.07.14,0,.29.07.29Z" style="fill:#2d2d3a;"/><path d="M69.03,10c.57.07,1.14.21,1.71.36.07,0,.14,0,.14-.07l2.5-9.27c0-.07,0-.14-.07-.14-1-.29-2-.43-3-.57-.07,0-.14.07-.14.07l-1.21,9.56c-.07,0,0,.07.07.07Z" style="fill:#2d2d3a;"/><path d="M179.85,47.94c-2.71,0-4.85,1.36-5.92,3.28v-3h-1.71v15.83h1.78v-8.84c0-3.21,2.42-5.71,5.63-5.71,3.42,0,5.42,2.28,5.42,5.63v8.84h1.78v-8.77c0-4.56-2.78-7.27-6.99-7.27Z" style="fill:#2d2d3a;"/><polygon points="201.88 48.23 199.53 48.23 190.54 57.57 190.54 43.8 188.76 43.8 188.76 64.06 190.54 64.06 190.54 59.71 194.11 56 200.03 64.06 202.17 64.06 195.39 54.86 201.88 48.23" style="fill:#2d2d3a;"/><path d="M161.88,62.77c-3.57,0-6.42-2.92-6.42-6.56s2.85-6.56,6.42-6.56,6.49,3,6.49,6.56-2.78,6.56-6.49,6.56ZM168.22,51.51c-1.28-2.28-3.99-3.64-6.42-3.64-4.64,0-8.13,3.71-8.13,8.27s3.49,8.27,8.13,8.27c2.42,0,5.13-1.28,6.42-3.64v3.28h1.78v-15.83h-1.78v3.28Z" style="fill:#2d2d3a;"/><path d="M144.69,62.77c-3.71,0-6.56-2.92-6.56-6.56s2.85-6.56,6.56-6.56,6.42,2.92,6.42,6.56c-.07,3.57-2.85,6.56-6.42,6.56ZM144.76,47.94c-2.42,0-5.06,1.28-6.35,3.57v-7.7h-1.78v20.32h1.71v-3.28c1.28,2.28,3.99,3.64,6.42,3.64,4.64,0,8.2-3.71,8.2-8.27-.07-4.56-3.57-8.27-8.2-8.27Z" style="fill:#2d2d3a;"/></svg>