<?xml version="1.0"?>
<svg xmlns="http://www.w3.org/2000/svg" xmlns:xlink="http://www.w3.org/1999/xlink" width="200px" height="39.7px"
	 viewBox="0 0 200 39.7" style="enable-background:new 0 0 200 39.7;" xml:space="preserve">

<g>
	<path d="M41.4,14.2c0.7,0,1.4,0.3,1.4,0.8v23.2c0,0.5-0.7,0.8-1.4,0.8v0.5h6.7V39c-0.7,0-1.4-0.3-1.4-0.8V15
		c0-0.5,0.7-0.8,1.4-0.8v-0.5h-6.7V14.2z M126.8,25.7c0-1.6,1.8-2.5,3.7-2.5c3,0,4.8,0.5,5.3,2.6l0.6,0l-0.1-2.7
		c-1.8-0.7-3.9-1.1-5.4-1.1c-5.2,0-7.3,2.7-7.3,4.8c0,6,10.3,4.6,10.3,9c0,1.3-1,2.6-3.8,2.6c-3.4,0-5.2-1.1-6-3.4l-0.5,0.1l0.2,3.2
		c1.6,0.7,3.9,1.3,5.8,1.3c5.6,0,8.1-2.6,8.1-5.1C137.7,28.7,126.8,30.1,126.8,25.7 M92.4,22.9c1.1,0,1.8,0.6,1.4,1.5l-5.1,9.9
		l-5.1-10c-0.2-0.8,0.5-1.3,1.4-1.3v-0.5h-8.2v0.5c1,0,1.7,0.4,2.5,1.7l8.3,15.1l8.6-15.4c0.7-1.2,1.6-1.4,2.2-1.4v-0.5h-5.9V22.9z
		 M73.4,38.2l0-7.8h0v-3.5c0-3.2-3.4-5-7-5c-3,0-5.7,1.7-6.8,2.6v-2.4l0,0v0c0-0.3-0.2-0.4-0.3-0.4c-2.2,0.8-3.2,1.2-5.4,1.9V24
		c1.2,0.1,1.5,0.7,1.6,1.6v12.6c0,0.6-0.7,0.8-1.4,0.8v0.5H61V39c-0.7,0-1.4-0.3-1.4-0.8V26h0v-0.1c0.9-0.9,2.8-1.9,4.8-1.9
		c4.1,0,5,2.2,5,4.2l0,10c0,0.5-0.7,0.7-1.4,0.7v0.5h6.7V39C74.1,39,73.4,38.8,73.4,38.2 M119,29.5c0-5.4-4.9-7.5-8.9-7.5
		c-7.2,0-10.7,4.8-10.7,8.7c0,1.4,0.4,3.1,1.2,4.4c0.9,1.5,2.1,2.6,3.7,3.4c1.6,0.8,3.4,1.2,5.4,1.2c1.8,0,3.4-0.2,4.8-0.7
		c1.4-0.5,2.7-1.3,4.1-2.4l0-1.3c-1.4,1-2.7,1.6-3.8,2c-1.1,0.3-2.3,0.5-3.7,0.5c-2,0-3.8-0.6-5.3-2c-1.5-1.4-2.1-3.6-2.2-5.2v-1
		H119z M109.6,23.2c2.6,0,5.1,1.3,5.1,4.9H104C104.3,25.6,106.2,23.2,109.6,23.2 M178,29.5c0-5.4-4.9-7.5-8.9-7.5
		c-7.2,0-10.7,4.8-10.7,8.7c0,1.4,0.4,3.1,1.2,4.4c0.9,1.5,2.1,2.6,3.7,3.4c1.6,0.8,3.4,1.2,5.4,1.2c1.8,0,3.4-0.2,4.8-0.7
		c1.4-0.5,2.7-1.3,4.1-2.4l0-1.3c-1.4,1-2.7,1.6-3.8,2c-1.1,0.3-2.3,0.5-3.7,0.5c-2,0-3.8-0.6-5.3-2c-1.5-1.4-2.1-3.6-2.2-5.2v-1
		H178z M168.6,23.2c2.6,0,5.1,1.3,5.1,4.9H163C163.3,25.6,165.2,23.2,168.6,23.2 M152.7,38.2c-1.4,0.1-4.3-0.4-4.3-3.7V24.1h6.6
		v-1.5h-6.5v-3.3l-4.1,0l0,3.4h-2.6l0,1.5h2.6v10.2h0c0,0,0,0,0,0v0.1c0,3.5,2.8,5.2,6.5,5.2c1.3,0,2.7-0.5,3.5-1
		c0.4-0.2,0.8-0.5,1.3-0.9l-0.1-0.6C155.1,37.5,153.8,38.1,152.7,38.2 M192.5,23.2c2.9,0,5.6,1.6,6.6,3.5h0.9v-3.2
		c0,0-3.2-1.7-7.3-1.7c-8,0-11.2,5.3-11.2,9c0,0.7,0.1,1.5,0.3,2.3h0c0.1,0.2,0.1,0.4,0.2,0.6c0.3,0.9,0.8,1.8,1.5,2.6
		c0.7,0.9,1.6,1.6,2.7,2.2c1.3,0.7,2.7,1.1,4.2,1.2c0.5,0.1,1,0.1,1.6,0.1c1.6,0,2.9-0.3,4-0.7c0,0,0,0,0,0c1.3-0.5,2.6-1.2,3.9-2.4
		v-1.4c-1.1,0.8-2.2,1.4-3.1,1.7c-1,0.4-2.2,0.6-3.6,0.6c-5,0-7.4-3.5-7.4-7.2C185.8,27,187.8,23.2,192.5,23.2" fill="#0B1742"/>
	<path d="M16.3,13.7V0h-1.2v3c-5.9,0.2-10.8,4-12,8.9h3.2c1.1-4,4.6-7,8.8-7.2v9.1H0V15h2.7c0.4,5.8,5.7,10.5,12.3,10.8
		v2.9h1.2V15h9.1c-0.3,4.3-3.3,7.8-7.4,8.8v1.8c5.8-0.9,10.2-5.3,10.6-10.6h2.7v-1.3H16.3z M15.1,24c-4.9-0.3-8.8-4.2-9.1-9.1h9.1
		V24z M25.1,11.9h3.2C27.2,7.4,23.2,4,18.1,3.1v1.8C21.5,5.8,24.2,8.5,25.1,11.9" fill="#5E9AD3"/>
</g>
</svg>
