<svg width="238" height="40" viewBox="0 0 238 40" fill="none" xmlns="http://www.w3.org/2000/svg">
<path d="M236.422 11.5406C235.152 9.24017 232.416 7.49543 229.444 7.49543C226.83 7.49543 224.531 8.56598 224.531 11.3417C224.531 13.6791 227.425 15.2645 230.438 17.208C233.726 19.2688 237.137 21.8037 237.137 26.2057C237.137 31.9535 231.548 35.4799 225.087 35.4799C222.431 35.4799 219.657 34.965 216.526 33.7759L217.04 26.1254C218.547 29.179 221.363 31.5953 225.521 31.5953C228.733 31.5953 231.11 30.0507 231.11 27.354C231.11 25.0548 229.166 23.6287 226.791 22.2026C221.795 19.1911 218.626 16.7709 218.626 12.4123C218.626 5.87051 224.095 3.69121 229.763 3.69121C233.051 3.69121 235.114 4.28635 237.213 4.28635L236.422 11.5406ZM208.718 18.3958C208.001 19.5862 207.094 21.2086 206.536 22.4002C206.062 24.6585 205.823 27.6726 205.823 31.0002C205.823 32.388 206.062 34.25 206.695 34.8847H198.412C199.877 33.4981 200.473 24.9784 200.395 22.2816C199.285 18.4379 197.776 14.7509 195.479 10.2712C194.015 7.45848 192.309 4.79996 191.238 4.28635C193.1 4.12959 195.478 4.00982 196.629 4.00982C198.689 4.00982 199.246 4.28636 200.515 7.06212C202.493 11.5418 203.96 14.9077 204.833 17.4069C206.935 14.1162 208.4 11.8579 210.303 8.76607C210.778 8.01287 211.175 7.06212 211.175 6.14961C211.175 5.43464 211.055 4.6432 210.739 4.28635H218.944C217.358 4.6432 210.223 15.861 208.718 18.3958ZM179.902 11.4628L174.989 22.1223H182.994L179.902 11.4628ZM189.534 35.1613C186.917 35.1613 186.72 35.0835 184.619 27.8701L183.867 25.2142C182.6 25.8081 180.338 26.0859 176.733 26.0859H173.086L172.452 27.433C171.54 29.4568 170.312 31.8311 170.312 33.4994C170.312 33.8957 170.351 34.3303 170.511 34.886H148.869C150.099 33.4994 150.495 29.0209 151.089 20.8938L151.208 18.9528C151.525 14.315 151.766 10.7478 151.724 8.25245C151.684 6.19166 151.486 4.88281 150.931 4.28892H159.295C158.105 5.20143 157.668 10.1144 157.115 18.2416L156.956 20.1826C156.757 23.1954 156.362 26.286 156.362 29.2988C156.362 30.6841 156.916 31.0014 158.345 31.0014C163.416 31.0014 164.686 30.8829 166.983 29.337C168.409 26.7206 170.037 23.4299 171.619 20.022L173.763 15.4646C175.783 11.1837 177.764 6.82253 177.764 5.99159C177.764 5.39514 177.606 4.84201 177.37 4.28635H184.028C184.028 4.28635 186.722 14.2755 187.317 16.414L188.623 21.2506C190.882 29.3765 192.31 33.3388 194.213 34.8847C192.625 35.0835 190.367 35.1613 189.534 35.1613ZM135.593 35.4799C127.706 35.4799 123.147 28.9801 123.147 21.6877C123.147 11.5418 128.655 3.69121 139.159 3.69121C142.449 3.69121 143.996 4.28635 146.649 4.28635L145.858 12.0949C144.351 9.35997 141.893 7.49671 138.605 7.49671C132.066 7.49671 129.41 14.5533 129.41 20.6172C129.41 27.1959 133.097 30.8013 138.01 30.8013C140.666 30.8013 143.003 30.0877 146.928 27.354C145.343 32.4288 141.656 35.4799 135.593 35.4799ZM108.246 8.01287C107.493 8.01287 106.579 8.01284 105.868 8.09186C105.63 9.39945 105.431 11.6591 105.153 15.304L104.994 17.4464C105.393 17.5267 105.906 17.5675 106.383 17.5675C110.186 17.5675 112.803 15.2658 112.803 11.7801C112.803 9.39946 111.139 8.01287 108.246 8.01287ZM119.302 36.1936C117.044 36.1936 116.488 35.8355 115.736 34.8044L107.174 22.9138C106.5 22.0025 105.985 21.2493 104.916 21.2493H104.717L104.56 23.5485C104.36 26.6798 104.242 29.179 104.242 31.041C104.281 33.1017 104.519 34.3685 105.075 34.8847H96.7912C97.979 33.8142 98.4136 30.247 99.0891 20.8925L99.2089 18.9515C99.5262 14.3546 99.7645 10.7861 99.7238 8.29068C99.683 6.11009 99.4472 4.76172 98.8508 4.28635C103.568 4.28635 110.146 4.28635 110.146 4.28635C113.832 4.28635 118.906 4.9223 118.906 10.9059C118.906 15.8189 115.615 18.5156 111.534 19.7824C111.93 20.1405 112.643 21.0518 113.08 21.6074L119.302 29.8519C123.186 34.965 123.502 35.202 124.892 35.9157C123.147 36.1133 120.81 36.1936 119.302 36.1936ZM80.7012 11.4628L75.7436 22.1223H83.7892L80.7012 11.4628ZM90.3298 35.1613C87.7159 35.1613 87.517 35.0835 85.4167 27.8701L84.6635 25.2142C83.3929 25.8081 81.1346 26.0859 77.5279 26.0859H73.8817L73.2483 27.433C72.6136 28.8617 71.0677 31.7954 71.1072 33.4994C71.1072 33.8957 71.1467 34.2921 71.306 34.886H63.974C66.0743 32.7857 68.7303 27.9109 72.4161 20.0233L74.5571 15.4659C76.4981 11.3443 78.5602 6.66706 78.5602 5.99287C78.5602 5.39643 78.4034 4.8433 78.1638 4.28764H84.8241C84.8241 4.28764 86.565 10.9071 88.1122 16.4153L89.4198 21.2519C91.6794 29.3778 93.1055 33.3401 95.0083 34.886C93.3043 35.0835 91.1633 35.1613 90.3298 35.1613ZM52.597 7.97335C52.0019 7.97335 51.2104 7.97334 50.4572 8.05363C50.1399 10.1934 49.9411 12.2543 49.7843 14.5126C49.7843 14.5126 49.6645 16.4536 49.6645 16.3746H50.4572C54.3418 16.3746 57.9102 15.0275 57.9102 11.4628C57.9102 9.39947 56.205 7.97335 52.597 7.97335ZM51.6081 20.101H49.4287L49.1114 24.619C48.9534 26.602 48.8731 28.2652 48.8336 30.247C48.8336 30.5261 49.7053 31.1199 51.7648 31.1199C56.0457 31.1199 58.861 28.9801 58.861 25.4512C58.861 21.5271 55.6494 20.101 51.6081 20.101ZM52.0834 34.8847H41.3818C42.7302 33.6944 43.0871 29.0579 43.681 20.8925L43.7995 18.991C44.1181 14.3532 44.3551 10.7861 44.3156 8.29068C44.2761 6.1496 44.0378 4.76172 43.4426 4.28635H55.4123C58.2658 4.28635 63.974 4.44566 63.974 10.3897C63.974 14.3533 60.2871 16.8104 56.9187 17.6847C61.675 18.16 65.2422 20.4579 65.2422 25.3722C65.2409 30.6828 60.2476 34.8847 52.0834 34.8847Z" fill="white"/>
<path d="M17.2952 0.00256695C16.2348 0.00256695 16.0156 0.187381 15.6715 0.570991C15.5364 0.56207 15.395 0.559518 15.2471 0.559518C14.4315 0.559518 13.3839 0.679301 12.4905 1.27702C11.6277 1.8467 11.2173 2.85477 11.6774 3.59268C11.6774 3.59268 11.9858 3.14028 13.0003 3.14028C13.143 3.14028 13.301 3.15554 13.4693 3.16956C14.8712 3.33524 15.9086 4.07316 15.7824 6.0218C15.6703 7.96916 14.94 10.1408 11.9527 10.1663C11.9527 10.1663 11.5678 10.1663 11.1574 10.1281C9.76699 9.97644 9.32985 9.10342 9.32985 9.10342C9.32985 9.10342 10.5317 8.77716 10.5419 7.25164C10.5317 6.21424 9.62807 5.26479 8.32431 4.88118C7.89736 4.75628 7.42837 4.69511 6.94025 4.69511C5.40326 4.69511 3.67765 5.3387 2.51408 6.85785C-0.124042 10.3409 -0.338149 15.4183 0.305449 20.1402C0.952871 24.8722 3.95421 29.2551 4.04215 29.3749C4.10587 29.459 4.16322 29.5049 4.22822 29.5049C4.26135 29.5049 4.29576 29.4896 4.33145 29.4603C5.62757 28.2024 6.86378 26.4832 7.39268 25.3336C7.95854 25.7848 7.66287 26.7444 7.3519 27.7691C7.05623 28.8167 6.33744 30.2071 6.07745 30.6557C5.82638 31.0941 5.48992 31.6039 5.94235 31.8702C5.98824 31.8983 6.04686 31.9136 6.11695 31.9136C6.69811 31.9136 8.06559 30.9004 9.59111 28.8664C11.2989 26.5775 12.1655 24.546 12.1655 24.546C12.2904 24.574 12.4994 24.7856 12.465 25.3616C12.4421 25.9466 11.8405 28.1234 10.6693 30.1497C9.48533 32.1749 8.39185 33.4417 8.17137 33.7297C8.03501 33.8967 8.15098 34.0012 8.23892 34.0687C8.32558 34.1273 10.4195 36.0823 13.4616 37.734C17.0658 39.6546 18.6639 40 18.6639 40C18.6639 40 20.2583 39.6635 23.8624 37.7442C26.9033 36.09 29.0061 34.126 29.0839 34.0598C29.1718 33.9999 29.284 33.9055 29.1514 33.722C28.9437 33.4467 27.8464 32.1736 26.665 30.1485C25.4976 28.1361 24.8731 25.9453 24.8642 25.368C24.8399 24.7856 25.0362 24.5931 25.156 24.5447C25.156 24.5447 26.0316 26.5889 27.7393 28.8651C29.2725 30.9017 30.6272 31.9123 31.2109 31.9123C31.2849 31.9123 31.3435 31.897 31.3919 31.869C31.8303 31.6026 31.5041 31.0852 31.2466 30.6519C31.007 30.2058 30.278 28.8243 29.9683 27.7678C29.6714 26.7317 29.363 25.7733 29.939 25.3323C30.4692 26.4819 31.6965 28.21 32.9964 29.4501C33.0309 29.4857 33.0704 29.5036 33.1086 29.5036C33.1659 29.5036 33.2271 29.459 33.2806 29.3812C33.3762 29.2538 36.3827 24.8786 37.025 20.1389C37.6699 15.4069 37.457 10.3409 34.8164 6.85656C33.6604 5.33359 31.9221 4.68617 30.3749 4.68617C29.8919 4.68617 29.4305 4.74863 29.0087 4.8697C27.6947 5.26478 26.795 6.22319 26.8026 7.2504C26.8026 8.77592 28.0108 9.10214 28.0108 9.10214C28.0108 9.10214 27.6068 9.9535 26.1666 10.1268C25.8977 10.16 25.6365 10.1752 25.3867 10.1752C24.3034 10.1752 23.3909 9.83115 22.5498 8.64336C21.7341 7.50017 21.7609 5.14628 21.7137 4.36121C21.6768 3.56468 21.506 1.7779 20.6687 1.04891C19.8339 0.300807 18.8169 0.0497037 17.5488 0C17.4558 0.00254891 17.3729 0.00256695 17.2952 0.00256695Z" fill="white"/>
</svg>
