<svg width="62" height="40" viewBox="0 0 62 40" fill="none" xmlns="http://www.w3.org/2000/svg">
<path fill-rule="evenodd" clip-rule="evenodd" d="M6.77115 18.9724H2.88743V14.296H0.239258V25.704H2.88743V21.3787H6.77115V25.704H9.43565V14.296H6.77115V18.9724Z" fill="white"/>
<path fill-rule="evenodd" clip-rule="evenodd" d="M24.4565 14.296H21.792V25.704H28.5899V23.2976H24.4565V14.296Z" fill="white"/>
<path fill-rule="evenodd" clip-rule="evenodd" d="M29.8262 25.704H32.5226V14.296H29.8262V25.704Z" fill="white"/>
<path fill-rule="evenodd" clip-rule="evenodd" d="M36.7062 16.7024H41.7257V14.296H34.042V25.704H36.7062V21.3787H40.8653V18.9724H36.7062V16.7024Z" fill="white"/>
<path fill-rule="evenodd" clip-rule="evenodd" d="M14.3998 21.3787L15.6143 17.521L16.8288 21.3787H14.3998ZM14.1569 14.296L10.2998 25.704H13.0382L13.6908 23.631H17.538L18.1906 25.704H20.929L17.0757 14.296H14.1569Z" fill="white"/>
<path fill-rule="evenodd" clip-rule="evenodd" d="M45.0113 21.3787L46.2258 17.521L47.4403 21.3787H45.0113ZM61.458 14.296H58.4353L56.2881 17.7427L54.1408 14.296H51.1182L54.8388 20L51.3962 25.2776L47.6872 14.296H44.7682L40.9111 25.704H43.6495L44.3021 23.631H48.1494L48.8021 25.704H54.1408L56.2881 22.2574L58.4353 25.704H61.458L57.7373 20L61.458 14.296Z" fill="white"/>
<path d="M0 0H22.6407L34.0419 12.0437H12.5102L0 0Z" fill="white"/>
<path d="M32.2832 7.3309L39.3451 0H61.9858L49.4756 12.0437H36.7445L32.2832 7.3309Z" fill="white"/>
<path d="M32.2832 32.6691L36.7446 27.9563H49.4756L61.9858 40H39.3451L32.2832 32.6691Z" fill="white"/>
<path d="M34.0423 27.9563H12.5106L0.00683594 39.9935L22.641 40L34.0423 27.9563Z" fill="white"/>
</svg>
