<svg height="254.291783" viewBox="0 0 566 366" width="393.249042" xmlns="http://www.w3.org/2000/svg"><g fill="#005d9d"><g fill-rule="evenodd"><path d="m61.798 174.095h-35.444v-42.678h-24.168v104.112h24.168v-39.474h35.444v39.474h24.317v-104.112h-24.317z"/><path d="m223.197 131.417h-24.317v104.112h62.04v-21.961h-37.723z"/><path d="m272.2 235.529h24.608v-104.112h-24.608z"/><path d="m334.993 153.378h45.81v-21.961h-70.124v104.112h24.314v-39.474h37.958v-21.96h-37.958z"/><path d="m131.413 196.055 11.084-35.206 11.084 35.206zm-2.217-64.638-35.201 104.112h24.991l5.956-18.918h35.111l5.956 18.918h24.991l-35.166-104.112z"/><path d="m410.786 196.055 11.084-35.206 11.084 35.206zm150.098-64.638h-27.586l-19.596 31.455-19.597-31.455h-27.585l33.955 52.056-31.418 48.165-33.85-100.221h-26.639l-35.201 104.112h24.991l5.956-18.918h35.112l5.956 18.918h48.723l19.597-31.454 19.596 31.454h27.586l-33.956-52.056z"/></g><g><path d="m0 .947h206.626l104.051 109.914h-196.505z"/><path d="m294.623 67.851 64.449-66.904h206.626l-114.172 109.914h-116.188z"/><path d="m294.623 299.095 40.716-43.01h116.187l114.172 109.914h-206.626z"/><path d="m310.678 256.085h-196.505l-114.113 109.855 206.566.059z"/></g></g></svg>