<svg width="185" height="40" viewBox="0 0 185 40" fill="none" xmlns="http://www.w3.org/2000/svg">
<g clip-path="url(#clip0_358_3035)">
<path d="M80.9168 20L60.8174 0V40L80.9168 20Z" fill="white"/>
<path d="M40.7652 20L60.8175 0H20.7129L40.7652 20Z" fill="white"/>
<path d="M0.660156 20L20.7124 40V0L0.660156 20Z" fill="white"/>
<path d="M40.7652 20L20.7129 40H60.8175L40.7652 20Z" fill="white"/>
<path d="M98.5152 21.2235H91.2492V28.3765H87.6162V11.6235H91.2492V18.4941H98.5152V11.6235H102.148V28.3765H98.5152V21.2235Z" fill="white"/>
<path d="M110.877 28.7059C107.244 28.7059 104.272 27.2471 104.225 23.2471H107.858C107.905 25.0353 108.943 26.1176 110.924 26.1176C112.387 26.1176 114.086 25.3647 114.086 23.7176C114.086 22.4 112.953 22.0235 111.066 21.4588L109.839 21.1294C107.197 20.3765 104.555 19.3412 104.555 16.3294C104.555 12.6118 108.046 11.3412 111.208 11.3412C114.463 11.3412 117.294 12.4706 117.341 16.1882H113.708C113.567 14.6824 112.67 13.7882 110.972 13.7882C109.603 13.7882 108.282 14.4941 108.282 16C108.282 17.2235 109.415 17.6 111.774 18.3529L113.189 18.7765C116.067 19.6706 117.907 20.6588 117.907 23.4824C117.907 27.2471 114.18 28.7059 110.877 28.7059Z" fill="white"/>
<path d="M119.937 11.6235H125.787C126.872 11.5765 128.005 11.6235 129.09 11.8118C131.119 12.2824 132.676 13.6 132.676 15.8588C132.676 18.0235 131.307 19.1059 129.326 19.6235C131.59 20.0471 133.289 21.1765 133.289 23.6706C133.289 27.4824 129.514 28.3294 126.589 28.3294H119.984L119.937 11.6235ZM125.787 18.5882C127.391 18.5882 129.043 18.2588 129.043 16.3294C129.043 14.5882 127.533 14.1176 126.023 14.1176H123.475V18.5882H125.787ZM126.117 25.8824C127.816 25.8824 129.467 25.5059 129.467 23.4353C129.467 21.3647 128.052 20.9882 126.306 20.9882H123.428V25.8824H126.117Z" fill="white"/>
<path d="M142.773 28.7059C137.347 28.7059 134.94 25.2706 134.94 20.1412C134.94 15.0118 137.63 11.2941 142.961 11.2941C146.311 11.2941 149.567 12.8 149.661 16.5647H145.887C145.698 14.8706 144.566 14.0235 142.961 14.0235C139.659 14.0235 138.668 17.5529 138.668 20.2353C138.668 22.9176 139.659 26.0235 142.82 26.0235C144.471 26.0235 145.698 25.1294 145.934 23.4353H149.708C149.331 27.2941 146.264 28.7059 142.773 28.7059Z" fill="white"/>
<path d="M162.872 28.6588C158.72 28.6588 156.455 26.3529 156.455 22.2588V11.6235H158.059V21.6941C158.059 23.0118 158.059 24.3294 158.814 25.4588C159.711 26.8235 161.362 27.3882 162.919 27.3882C164.759 27.3882 166.552 26.5882 167.354 24.8471C167.732 23.8588 167.873 22.7765 167.779 21.6941V11.6235H169.383V22.2118C169.289 26.2118 166.882 28.6588 162.872 28.6588Z" fill="white"/>
<path d="M172.591 11.6235H174.101V28.3765H172.591V11.6235ZM174.195 19.2941L181.697 11.6235H183.726L176.035 19.2L184.528 28.4235H182.452L174.195 19.2941Z" fill="white"/>
</g>
<defs>
<clipPath id="clip0_358_3035">
<rect width="185" height="40" fill="white"/>
</clipPath>
</defs>
</svg>
