<svg width="91" height="40" viewBox="0 0 91 40" fill="none" xmlns="http://www.w3.org/2000/svg">
<path d="M51.3964 8.87023C53.3942 5.98347 54.8137 3.62157 56.0229 0.157459H59.7557C58.0207 4.56633 55.9704 8.03044 53.0788 11.9669V17.8454H49.7666V12.0194C46.875 8.03044 44.8246 4.61882 43.0897 0.209947H46.8224C47.9791 3.67406 49.3986 6.03595 51.3964 8.87023ZM85.6222 7.4006C83.9924 6.87574 83.0461 6.61331 82.4677 6.19341C81.8369 5.82601 81.6791 5.35363 81.6791 4.88125C81.6791 4.14644 82.0997 3.67406 82.7306 3.35914C83.3615 3.04422 84.2027 2.93925 84.9387 2.93925C86.0954 2.93925 87.4097 3.20168 88.7766 3.67406L89.8807 1.10222C88.5138 0.419892 86.6737 0 84.9387 0C83.1512 0 81.574 0.419892 80.4699 1.20719C79.103 2.09946 78.4195 3.41163 78.4195 4.98622C78.4195 8.03044 80.9957 9.18514 83.5192 10.0249C84.5707 10.3923 85.6748 10.6548 86.4108 11.0747C87.1468 11.4946 87.5674 12.0719 87.5674 12.8067C87.5674 13.6465 87.0417 14.2239 86.516 14.4863C85.8851 14.8537 84.8862 15.0112 83.8872 15.0112C81.5214 15.0112 79.839 14.1189 78.6298 13.2791L77.4732 15.9559C78.9978 17.1106 81.5214 17.9504 84.045 17.9504C87.9355 17.9504 90.8796 15.9034 90.8796 12.5968C90.8796 9.71001 88.5138 8.29287 85.6222 7.4006ZM67.4315 14.7487H65.0131V3.25416H67.1161C70.7963 3.25416 73.1621 5.24866 73.1621 8.87023C73.1621 12.3343 71.0066 14.7487 67.4315 14.7487ZM67.0635 0.157459H61.7535V17.8454H67.379C72.5838 17.8454 76.4743 14.1714 76.4743 8.87023C76.4743 3.67406 72.7941 0.157459 67.0635 0.157459ZM13.7533 17.8454H23.6898L24.7413 14.6962H16.9603V0.157459H13.7533V17.8454ZM0.0839844 17.8454H10.0205L11.1246 14.6962H3.34358V0.157459H0.0839844L0.0839844 17.8454ZM34.2572 15.0112C30.6822 15.0112 28.6318 12.3868 28.6318 9.02768C28.6318 5.66855 30.6822 3.04422 34.2572 3.04422C37.8848 3.04422 39.9352 5.77352 39.9352 9.08017C39.8827 12.3343 37.8323 15.0112 34.2572 15.0112ZM34.3098 0C28.8946 0 25.3196 3.98898 25.3196 9.02768C25.3196 14.0139 28.7895 18.0029 34.2572 18.0029C39.6724 18.0029 43.2474 13.9614 43.2474 8.9752C43.1948 3.98898 39.6724 0 34.3098 0Z" fill="white"/>
<path d="M5.99347 37.3232H3.15445V32.1795H6.09861C8.62217 32.1795 9.93653 32.8618 9.93653 34.6464C9.93653 37.0083 7.67584 37.3232 5.99347 37.3232ZM3.15445 24.9888H5.67802C8.04385 24.9888 9.14791 25.5662 9.14791 27.0883C9.14791 28.6104 8.04386 29.5027 5.94089 29.5027H3.15445V24.9888ZM9.25306 30.7099C11.1457 30.08 12.3024 28.7679 12.3024 26.7209C12.3024 23.6242 9.56851 22.3645 6.88722 22.3645H0V40H6.41406C9.72624 40 13.091 38.6354 13.091 34.9613C13.091 32.4944 11.5663 31.0248 9.25306 30.7099ZM47.8425 22.312H44.7406V35.0663H44.6881L37.2225 22.312H33.1743V40H36.2236V26.8259H36.2762L43.8995 40H47.8425V22.312ZM58.0945 30.8149L66.2961 22.312H62.1427L54.7823 30.2375H54.6772V22.312H51.5753V40H54.6772V31.4447H54.7823L62.6159 40H66.9795L58.0945 30.8149ZM22.5543 36.221C23.8687 36.221 25.1305 36.116 26.2345 35.8011L27.8643 40H31.5445L23.9213 22.3645H21.24L13.5641 40H17.2443L18.8741 35.8011C19.9782 36.116 21.24 36.221 22.5543 36.221ZM22.5543 33.5442C21.608 33.5442 20.7668 33.4917 19.8205 33.2817L22.5543 26.301L25.2882 33.2817C24.3419 33.4917 23.5007 33.5442 22.5543 33.5442Z" fill="white"/>
</svg>
