<svg width="110" height="40" viewBox="0 0 110 40" fill="none" xmlns="http://www.w3.org/2000/svg">
<path d="M16.9476 3.60774L22.4076 15.6161L29.6832 0.104858H38.0151L43.5093 40H32.8467L30.5135 23.5946H30.4031L22.4076 40L14.8587 23.7257L16.9476 3.60774ZM4.3617 0.104858L0 40H10.1212L14.4829 0.104858H4.3617Z" fill="white"/>
<path d="M45.9873 0.152072H56.8521L56.8732 5.49292H51.2765V7.59832H55.4438V12.9339H51.2765V15.0419H56.8574L56.8732 20.3776H45.9873V0.152072ZM59.0198 0.152072H71.5164L71.4849 5.26481H67.914V20.3776H62.6248V5.26743H59.0304L59.0198 0.152072ZM78.863 9.64866C80.8336 9.64866 82.0423 8.97483 82.0423 7.14735C82.0423 5.3225 80.8336 4.64866 78.863 4.64866V9.64866ZM73.5711 0.152072H80.5236C84.5489 0.152072 87.3341 2.34662 87.3341 6.64394C87.3341 8.80703 86.3514 10.4326 84.5805 11.6177L88.4613 20.3749H82.4942L78.9208 12.0372H78.863V20.3749H73.5711V0.152072ZM98.932 5.27006C96.2914 5.27006 94.0842 7.49607 94.0842 10.2648C94.0842 13.0336 96.2914 15.2674 98.932 15.2674C101.602 15.2674 103.777 12.9287 103.777 10.2648C103.777 7.60356 101.602 5.27006 98.932 5.27006ZM98.932 20.5349C93.4589 20.5349 88.8607 15.9439 88.8607 10.2648C88.8607 4.58836 93.4589 0 98.932 0C104.4 0 109.001 4.58836 109.001 10.2648C109.001 15.9439 104.403 20.5349 98.932 20.5349ZM58.2947 37.7163H51.153V33.9958H58.5968C59.9736 34.0115 60.599 34.6093 60.6121 35.9229C60.6043 37.129 59.8843 37.7006 58.2947 37.7163ZM51.153 28.2197H58.5206C59.0566 28.2197 59.4665 28.377 59.7687 28.6864C60.0735 29.001 60.2285 29.4206 60.2285 29.9633C60.2285 30.4641 60.0577 30.881 59.7135 31.2271C59.5488 31.3971 59.3505 31.531 59.1311 31.6204C58.9117 31.7098 58.6761 31.7526 58.4392 31.7462H51.153V28.2197ZM60.8828 32.7347C61.8287 32.0425 62.3016 31.0619 62.3016 29.8401C62.3016 28.6812 61.9548 27.7347 61.2611 27.0294C60.5648 26.3214 59.6058 25.9675 58.405 25.9675H49.0326V39.9633H58.2763C59.7608 39.9633 60.8854 39.6591 61.6474 39.0377C62.4094 38.4137 62.7851 37.4698 62.7825 36.248C62.7877 34.5044 62.1519 33.3115 60.8828 32.7347ZM68.3266 34.6749L71.2274 28.2197L74.0914 34.6749H68.3266ZM72.4439 25.9858H69.974L63.7205 40H65.8646L67.2256 36.8642H75.1923L76.556 40H78.7L72.4439 25.9858ZM90.1351 40L82.6702 28.8962V40H80.5498V26.0042H83.0907L90.5607 37.1133V26.0042H92.6838V40H90.1351ZM109.022 39.8453L109.14 40H106.415L100.876 32.7976L98.2226 35.7525V40H96.0996V26.0042H98.22V33.0231L105.477 26.0042H108.559L102.474 31.3346L109.022 39.8453Z" fill="white"/>
</svg>
