<svg width="226" height="40" viewBox="0 0 226 40" fill="none" xmlns="http://www.w3.org/2000/svg">
<path d="M0 38.9903V1.00774H10.0948V6.09863C11.1038 4.26473 12.6035 2.75002 14.4249 1.72531C16.2464 0.700603 18.317 0.206647 20.4034 0.299144C22.5471 0.233632 24.6667 0.76826 26.5245 1.8431C28.3823 2.91794 29.9049 4.4905 30.9217 6.38452C34.8736 2.20848 37.9094 0.299144 42.6412 0.299144C51.1825 0.299144 55.9835 5.10618 55.9835 13.9524V38.9903H45.111V18.4103C45.111 13.105 43.983 10.6994 39.8172 10.6994C35.5822 10.6994 33.3222 13.3153 33.3222 18.4103V38.9903H22.3804V18.4103C22.3804 13.105 21.2504 10.6994 17.0846 10.6994C12.8496 10.6994 10.5896 13.3153 10.5896 18.4103V38.9903H0ZM68.8596 5.95772C71.6322 3.15036 75.169 1.22595 79.0272 0.425567C82.8854 -0.374815 86.8932 -0.0155832 90.5487 1.45826C94.2042 2.93211 97.3448 5.45503 99.5772 8.711C101.809 11.967 103.034 15.8112 103.098 19.7621C103.171 22.4095 102.702 25.0437 101.718 27.5016C100.735 29.9594 99.2584 32.1884 97.3807 34.0505C95.5101 35.9728 93.2677 37.4914 90.7909 38.5133C88.3142 39.5351 85.6554 40.0387 82.9776 39.9929C80.2939 40.0668 77.6257 39.5617 75.1535 38.5118C72.6812 37.4619 70.4627 35.8918 68.6478 33.9076C65.0223 30.1573 63.0177 25.1244 63.069 19.901C63.0588 17.3071 63.5658 14.7373 64.5602 12.3428C65.5546 9.94828 67.0164 7.77737 68.8596 5.95772ZM83.0489 29.3742C84.9165 29.4538 86.7652 28.9711 88.3571 27.9881C89.9489 27.0052 91.211 25.5669 91.9811 23.8585C92.5566 22.5812 92.8391 21.1907 92.8079 19.7894C92.7767 18.3881 92.4325 17.0117 91.8007 15.7614C91.169 14.5112 90.2656 13.419 89.1573 12.5652C88.049 11.7114 86.7638 11.1178 85.3965 10.8281C83.5679 10.438 81.6648 10.6055 79.9319 11.3089C78.199 12.0123 76.7155 13.2196 75.6722 14.7754C74.6305 16.331 74.0773 18.1639 74.0841 20.0378C74.0612 21.2413 74.2749 22.4375 74.713 23.5582C75.1512 24.6788 75.8052 25.7019 76.6378 26.5689C77.4703 27.4359 78.465 28.1299 79.565 28.6113C80.6651 29.0926 81.8489 29.3518 83.0489 29.3742ZM110.188 38.9903V1.00774H120.775L120.637 6.10067C121.739 4.22249 123.339 2.68677 125.257 1.66327C127.176 0.639777 129.34 0.168377 131.509 0.301186C139.344 0.301186 144.426 5.25117 144.426 13.9524V38.9903H133.272V18.4103C133.272 13.105 132.142 10.6994 127.836 10.6994C123.459 10.6994 121.129 13.3153 121.129 18.4103V38.9903H110.188ZM191.756 5.95364C194.529 3.14436 198.066 1.21833 201.925 0.416965C205.785 -0.384401 209.794 -0.0254486 213.45 1.44883C217.107 2.92174 220.248 5.44509 222.479 8.70211C224.71 11.9591 225.933 15.8047 225.993 19.756C226.066 22.4033 225.596 25.0376 224.613 27.4954C223.629 29.9533 222.153 32.1823 220.275 34.0444C218.404 35.9658 216.161 37.4838 213.685 38.5056C211.208 39.5274 208.55 40.0314 205.872 39.9868C203.188 40.0606 200.52 39.5556 198.048 38.5057C195.576 37.4558 193.357 35.8857 191.542 33.9014C187.917 30.1517 185.913 25.1196 185.964 19.8969C185.953 17.3032 186.46 14.7335 187.454 12.339C188.448 9.94453 189.909 7.77352 191.752 5.95364H191.756ZM205.948 29.3701C207.815 29.449 209.664 28.9657 211.256 27.9825C212.847 26.9992 214.11 25.5608 214.88 23.8524C215.648 22.1441 215.888 20.2439 215.569 18.3973C215.25 16.5507 214.387 14.8424 213.09 13.493C211.793 12.1416 210.123 11.2107 208.294 10.8202C206.465 10.4296 204.561 10.5974 202.828 11.3018C201.096 12.0058 199.614 13.2137 198.572 14.7699C197.53 16.326 196.977 18.1593 196.983 20.0337C196.96 21.2371 197.174 22.4333 197.612 23.5538C198.051 24.6743 198.705 25.6972 199.537 26.5642C200.369 27.4312 201.364 28.1252 202.464 28.6066C203.564 29.0881 204.748 29.3475 205.948 29.3701ZM152.554 38.9903V31.067L168.156 10.8301H152.554V1.0057H180.723V9.99081L166.955 29.1618H181.004V38.9882H152.556L152.554 38.9903Z" fill="white"/>
</svg>
