<svg xmlns:xlink="http://www.w3.org/1999/xlink" xmlns="http://www.w3.org/2000/svg" viewBox="0 0 112 21" width="500"  height="93.75" ><path fill="#FF4F40" d="M0 19.3V.7h4.958v2.493a5.505 5.505 0 0 1 5.063-2.84 5.671 5.671 0 0 1 5.166 2.98c1.941-2.045 3.432-2.98 5.756-2.98 4.195 0 6.553 2.354 6.553 6.686V19.3h-5.34V9.222c0-2.598-.554-3.776-2.6-3.776-2.08 0-3.19 1.281-3.19 3.776V19.3h-5.374V9.222c0-2.598-.555-3.776-2.601-3.776-2.08 0-3.19 1.281-3.19 3.776V19.3H0ZM33.82 3.124a9.832 9.832 0 0 1 16.816 6.76 9.47 9.47 0 0 1-2.808 6.997 9.655 9.655 0 0 1-7.074 2.91 9.208 9.208 0 0 1-7.038-2.98 9.716 9.716 0 0 1-2.74-6.859 9.528 9.528 0 0 1 2.844-6.828Zm6.969 11.467a4.6 4.6 0 0 0 4.387-2.701 4.59 4.59 0 0 0-3.234-6.381 4.602 4.602 0 0 0-4.776 1.933 4.592 4.592 0 0 0-.78 2.577 4.487 4.487 0 0 0 4.403 4.572ZM54.118 19.3V.7h5.2l-.068 2.494a5.788 5.788 0 0 1 5.34-2.84c3.848 0 6.344 2.424 6.344 6.685V19.3h-5.478V9.222c0-2.598-.555-3.776-2.67-3.776-2.15 0-3.294 1.281-3.294 3.776V19.3h-5.374ZM94.18 3.122A9.832 9.832 0 0 1 104.835.916a9.822 9.822 0 0 1 6.16 8.965 9.47 9.47 0 0 1-2.808 6.997 9.664 9.664 0 0 1-7.074 2.91 9.208 9.208 0 0 1-7.038-2.98 9.716 9.716 0 0 1-2.74-6.858 9.529 9.529 0 0 1 2.843-6.828Zm6.97 11.467a4.602 4.602 0 0 0 4.387-2.702 4.59 4.59 0 0 0-.879-5.073 4.598 4.598 0 0 0-5.04-1.073 4.598 4.598 0 0 0-2.871 4.276 4.488 4.488 0 0 0 4.403 4.572ZM74.926 19.3V15.42l7.663-9.91h-7.663V.699h13.835v4.4l-6.762 9.388h6.9v4.812H74.927Z"></path></svg>