<?xml version="1.0" encoding="UTF-8"?>
<svg width="480" height="63" viewBox="0 0 480 63" xmlns="http://www.w3.org/2000/svg">
 <path d="m49.736 23.364c-0.788-13.004-11.672-23.364-24.796-23.364-13.768 0-24.94 11.072-24.94 24.872a24.4 24.4 0 0 0 6.992 17.188l16.436-18.696h26.312zm-15.788 39.54h31.64v-20.704l-15.86-18.832-15.788 18.832v20.704h0.01201z" fill="#f9383d" />
 <path d="m281.62 58.392h-12.316v-37.88h12.32v8.28c1.532-5.628 5.9-9.3 12.832-9.3 8.3 0 13.344 5.204 13.344 14.848v24.056h-12.32v-20.56c0-5.628-2.052-8.44-6.328-8.44-4.792 0-7.532 3.92-7.532 10.068v18.936zm72.336-13.136h-0.348l-6.244-24.74h-11.632l-6.328 24.736h-0.34l-6.592-24.736h-12.312l11.204 37.88h13.08l6.332-24.564h0.344l6.324 24.564h13.088l11.284-37.88h-11.2l-6.676 24.736h0.012zm-72.336 13.136h-12.316v-37.88h12.32v8.28c1.532-5.628 5.9-9.3 12.832-9.3 8.3 0 13.344 5.204 13.344 14.848v24.056h-12.32v-20.56c0-5.628-2.052-8.44-6.328-8.44-4.792 0-7.532 3.92-7.532 10.068v18.936zm72.336-13.136h-0.348l-6.244-24.74h-11.632l-6.328 24.736h-0.34l-6.592-24.736h-12.312l11.204 37.88h13.08l6.332-24.564h0.344l6.324 24.564h13.088l11.284-37.88h-11.2l-6.676 24.736h0.012zm56.852-25.768c-9.916 0-17.276 7.68-17.276 19.96 0 12.28 7.36 19.96 17.276 19.96 5.3 0 10.616-2.896 12.576-7.76v6.736h12.396v-53.456h-12.396v22.416c-1.88-4.864-7.192-7.856-12.576-7.856zm3.932 9.728c5.22 0 8.644 3.84 8.644 9.808v0.848c0 6.056-3.424 9.892-8.644 9.892-5.22 0-8.728-4-8.728-10.328 0-6.32 3.424-10.232 8.728-10.232zm64.292 19.072c-2.616 7.096-9.016 11.172-17.984 11.172-12.084 0-20.664-7.356-20.664-19.412 0-12.056 8.744-20.612 20.408-20.612 12.608 0 19.204 8.64 19.204 18.988v3.764h-27.432c0.34398 5.048 4.12 7.96 8.912 7.96 3.984 0 6.56-1.4 8-4.412l9.544 2.56 0.012-0.01601zm-26.292-12.688h15.344c-0.25599-3.764-2.656-7.184-7.376-7.184-4.968 0-7.28 3.172-7.968 7.184zm-308.6 1.376c-8.4 1.364-13.892 4.708-13.892 11.972 0 6.496 4.8 10.348 12.428 10.348 5.92 0 10.636-2.308 12.772-6.676 1.112 4.272 4.46 6.676 9.004 6.676 3.78 0 6.172-1.108 8.06-2.484v-6.584a7.04 7.04 0 0 1-3.172 0.684c-1.548 0-2.4-0.86-2.4-2.824v-13.856c0-10.348-7.116-14.796-17.068-14.796-9.948 0-16.16 4.936-17.948 12.22l11.192 2.308c0.708-3.12 2.5-5.288 6.072-5.288 3.776 0 5.572 2.144 5.572 5.732v0.86l-10.636 1.708zm-1.888 10.6c0-2.992 2.4-4.016 6.26-4.708l6.252-1.108v1.448c0 5.392-3.6 7.956-8.144 7.956-2.656 0-4.368-1.364-4.368-3.592zm139.38 10.816h-12.316v-37.88h12.32v8.28c1.532-5.628 5.9-9.3 12.832-9.3 8.3 0 13.344 5.204 13.344 14.848v24.056h-12.32v-20.56c0-5.628-2.052-8.44-6.328-8.44-4.792 0-7.532 3.92-7.532 10.068v18.936zm72.336-13.136h-0.34801l-6.244-24.74h-11.632l-6.328 24.736h-0.34001l-6.592-24.736h-12.312l11.204 37.88h13.08l6.332-24.564h0.34401l6.324 24.564h13.088l11.284-37.88h-11.2l-6.676 24.736h0.012zm-109.82-25.768c-12.4 0-20.532 8.36-20.532 20.22 0 11.856 8.124 19.708 20.532 19.708 12.408 0 20.78-7.852 20.78-19.708 0-11.86-8.3-20.22-20.78-20.22zm0 30.456c-5.22 0-8.464-3.76-8.464-10.236 0-6.476 3.244-10.752 8.464-10.752 5.216 0 8.724 4.264 8.724 10.752 0 6.488-3.504 10.236-8.724 10.236zm144.08 8.448h-12.316v-37.88h12.32v37.884zm-13.004-48.112c0-4.016 2.824-6.828 6.84-6.828 4.012 0 6.844 2.812 6.844 6.828 0 4.012-2.82 6.828-6.844 6.828-4.024 0-6.84-2.816-6.84-6.828zm-156.79 10.236v37.88h-12.32v-37.88zm-13-10.236c0-4.016 2.824-6.828 6.848-6.828 4.024 0 6.844 2.812 6.844 6.828 0 4.012-2.82 6.828-6.844 6.828-4.024 0-6.848-2.816-6.848-6.828zm-15.416 10.236v-9.304h-7.92l-0.944 3.84c-0.94 3.496-2.08 5.464-5.848 6.144l-2.74 0.428v7.512h5.3v19.112c0 8.528 5.56 11.176 11.724 11.176 4.96 0 8.208-1.192 11.04-3.332v-7.816c-2.312 1.028-4.272 1.536-6.164 1.536-2.904 0-4.448-1.368-4.448-4.604v-16.08h10.092v-8.62h-10.092v0.012zm-102.68 37.876h12.32v-18.936c0-6.144 2.736-10.068 7.528-10.068 4.276 0 6.328 2.812 6.328 8.44v20.56h12.32v-24.052c0-9.644-5.04-14.852-13.344-14.852-6.928 0-11.288 3.672-12.836 9.304v-8.28h-12.316v37.888z" fill="#011546"/>
</svg>
