<svg width="305" height="40" viewBox="0 0 305 40" fill="none" xmlns="http://www.w3.org/2000/svg">
<g clip-path="url(#clip0_358_3077)">
<path d="M31.6032 14.8343C31.1025 6.57778 24.1866 0 15.8474 0C7.09898 0 0.000106593 7.02984 0.000106593 15.7917C-0.0150254 19.8721 1.5815 23.7937 4.44294 26.7048L14.8866 14.8343H31.6057H31.6032ZM21.5712 39.939H41.6758V26.7937L31.5981 14.8368L21.5661 26.7937V39.939H21.5738H21.5712Z" fill="white"/>
<path d="M178.946 37.0743H171.12V13.0235H178.949V18.2806C179.922 14.7073 182.698 12.3759 187.102 12.3759C192.376 12.3759 195.581 15.68 195.581 21.8032V37.0768H187.753V24.0229C187.753 20.4495 186.449 18.6641 183.732 18.6641C180.687 18.6641 178.946 21.153 178.946 25.0565V37.0794V37.0743ZM224.91 28.734H224.689L220.721 13.026H213.33L209.309 28.7314H209.093L204.904 13.026H197.081L204.2 37.0768H212.511L216.535 21.4806H216.753L220.772 37.0768H229.088L236.258 13.026H229.142L224.899 28.7314H224.907L224.91 28.734ZM178.946 37.0743H171.12V13.0235H178.949V18.2806C179.922 14.7073 182.698 12.3759 187.102 12.3759C192.376 12.3759 195.581 15.68 195.581 21.8032V37.0768H187.753V24.0229C187.753 20.4495 186.449 18.6641 183.732 18.6641C180.687 18.6641 178.946 21.153 178.946 25.0565V37.0794V37.0743ZM224.91 28.734H224.689L220.721 13.026H213.33L209.309 28.7314H209.093L204.904 13.026H197.081L204.2 37.0768H212.511L216.535 21.4806H216.753L220.772 37.0768H229.088L236.258 13.026H229.142L224.899 28.7314H224.907L224.91 28.734ZM261.034 12.3733C254.734 12.3733 250.057 17.2495 250.057 25.0463C250.057 32.8432 254.734 37.7194 261.034 37.7194C264.402 37.7194 267.78 35.8806 269.025 32.7924V37.0692H276.902V3.12888H269.025V17.3613C267.831 14.273 264.455 12.3733 261.034 12.3733ZM263.533 18.5498C266.85 18.5498 269.025 20.9879 269.025 24.7771V25.3156C269.025 29.1606 266.85 31.5962 263.533 31.5962C260.216 31.5962 257.987 29.0565 257.987 25.0387C257.987 21.026 260.163 18.5422 263.533 18.5422V18.5498ZM304.385 30.659C302.723 35.1644 298.656 37.7524 292.958 37.7524C285.279 37.7524 279.827 33.0819 279.827 25.4273C279.827 17.7727 285.383 12.3403 292.795 12.3403C300.806 12.3403 304.998 17.826 304.998 24.3962V26.786H287.567C287.785 29.9911 290.185 31.84 293.23 31.84C295.761 31.84 297.398 30.9511 298.313 29.0387L304.377 30.6641L304.385 30.654V30.659ZM287.679 22.6032H297.428C297.266 20.2133 295.741 18.0419 292.742 18.0419C289.585 18.0419 288.116 20.0559 287.679 22.6032ZM91.589 23.4768C86.2515 24.3429 82.7618 26.466 82.7618 31.0781C82.7618 35.2025 85.8118 37.6483 90.6588 37.6483C94.4204 37.6483 97.4171 36.1829 98.7743 33.4095C99.4809 36.1219 101.608 37.6483 104.496 37.6483C106.897 37.6483 108.417 36.9448 109.617 36.0711V31.8908C108.988 32.1904 108.298 32.3391 107.602 32.3251C106.618 32.3251 106.077 31.779 106.077 30.5321V21.7346C106.077 15.1644 101.555 12.3403 95.2312 12.3403C88.9101 12.3403 84.9629 15.4743 83.8268 20.099L90.9384 21.5644C91.3882 19.5835 92.5269 18.207 94.7966 18.207C97.196 18.207 98.3372 19.5683 98.3372 21.8463V22.3924L91.5789 23.4768H91.589ZM90.3894 30.207C90.3894 28.3073 91.9144 27.6571 94.3671 27.2178L98.3397 26.5143V27.4336C98.3397 30.8571 96.0522 32.4851 93.1649 32.4851C91.4772 32.4851 90.3894 31.619 90.3894 30.2044V30.207ZM178.954 37.0743H171.128V13.0235H178.956V18.2806C179.93 14.7073 182.705 12.3759 187.11 12.3759C192.384 12.3759 195.589 15.68 195.589 21.8032V37.0768H187.761V24.0229C187.761 20.4495 186.457 18.6641 183.74 18.6641C180.695 18.6641 178.954 21.153 178.954 25.0565V37.0794V37.0743ZM224.917 28.734H224.696L220.729 13.026H213.337L209.316 28.7314H209.1L204.912 13.026H197.089L204.208 37.0768H212.519L216.542 21.4806H216.761L220.779 37.0768H229.096L236.266 13.026H229.149L224.907 28.7314H224.915L224.917 28.734ZM155.136 12.3733C147.257 12.3733 142.089 17.6813 142.089 25.2114C142.089 32.739 147.252 37.7244 155.136 37.7244C163.02 37.7244 168.34 32.739 168.34 25.2114C168.34 17.6813 163.066 12.3733 155.136 12.3733ZM155.136 31.7105C151.819 31.7105 149.758 29.3232 149.758 25.2114C149.758 21.0997 151.819 18.3848 155.136 18.3848C158.45 18.3848 160.679 21.0921 160.679 25.2114C160.679 29.3308 158.453 31.7105 155.136 31.7105ZM246.687 37.0743H238.861V13.0235H246.689V37.0768L246.687 37.0743ZM238.424 6.52698C238.424 3.97714 240.218 2.19174 242.77 2.19174C245.319 2.19174 247.119 3.97714 247.119 6.52698C247.119 9.07428 245.327 10.8622 242.77 10.8622C240.213 10.8622 238.424 9.07428 238.424 6.52698ZM138.797 13.026V37.0768H130.968V13.026H138.797ZM130.536 6.52698C130.536 3.97714 132.331 2.19174 134.888 2.19174C137.445 2.19174 139.236 3.97714 139.236 6.52698C139.236 9.07428 137.445 10.8622 134.888 10.8622C132.331 10.8622 130.536 9.07428 130.536 6.52698ZM120.741 13.026V7.11873H115.708L115.108 9.55682C114.511 11.7765 113.787 13.026 111.392 13.4578L109.651 13.7295V18.499H113.019V30.6336C113.019 36.0483 116.552 37.7295 120.469 37.7295C123.62 37.7295 125.684 36.9727 127.484 35.614V30.6514C126.015 31.3041 124.769 31.6267 123.567 31.6267C121.722 31.6267 120.741 30.7581 120.741 28.7035V18.494H127.153V13.0209H120.741V13.0286V13.026ZM55.4961 37.0743H63.3244V25.0514C63.3244 21.1505 65.0629 18.659 68.1078 18.659C70.8249 18.659 72.1288 20.4444 72.1288 24.0178V37.0717H79.9571V21.8006C79.9571 15.6775 76.7546 12.3708 71.4781 12.3708C67.0759 12.3708 64.3055 14.7022 63.3219 18.2781V13.0209H55.4961V37.0768V37.0743Z" fill="white"/>
</g>
<defs>
<clipPath id="clip0_358_3077">
<rect width="305" height="40" fill="white"/>
</clipPath>
</defs>
</svg>
