<svg width="115" height="40" viewBox="0 0 115 40" fill="none" xmlns="http://www.w3.org/2000/svg">
<g clip-path="url(#clip0_358_3056)">
<path d="M76.3553 17.4376V19.432H73.9291V24.6296C73.9291 25.5568 74.3675 25.7368 75.1765 25.7368C75.6493 25.7368 76.0055 25.6456 76.1748 25.5936L76.3553 25.536V27.5352L76.2539 27.56C75.5734 27.7328 75.004 27.7904 74.1647 27.7904C73.5833 27.7904 71.6882 27.5984 71.6882 25.108V19.432H70.2642V19.2976C70.2626 19.2008 70.2626 18.516 70.2642 17.8768V17.4376H71.6882V14.8792L73.9291 14.0936V17.4376H76.3553ZM91.4044 14.1768L88.7219 27.576H86.4442L84.0739 18.2456L81.6645 27.576H79.4244L76.6196 14.1768H78.958L80.7756 23.2688L83.0349 14.1768H85.2151C85.4316 15.0264 87.4784 23.156 87.5048 23.2576C87.5207 23.1496 89.1148 14.4744 89.1707 14.1768H91.4044ZM93.7268 21.4576C93.7843 20.5016 94.4583 19.2544 95.8839 19.2544C97.4308 19.2544 97.902 20.6232 97.9531 21.4576H93.7268ZM95.9845 17.256C94.2762 17.256 91.3916 18.3712 91.3916 22.5552C91.3916 27.5376 95.3488 27.7904 96.1418 27.7904C97.8221 27.7904 98.572 27.4392 99.3091 27.0944L99.3898 27.0568V24.9376L99.1766 25.0656C98.6415 25.4008 97.6041 25.7768 96.4421 25.7768C94.0902 25.7768 93.7579 24.092 93.7276 23.3824H100.193L100.206 23.268C100.41 21.8696 100.208 19.912 99.0623 18.5792C98.3053 17.7016 97.2679 17.2552 95.9853 17.2552M108.49 24.7536C108.49 26.2736 107.17 27.8104 104.657 27.8104C103.555 27.8104 102.337 27.536 101.463 27.1136L101.384 27.0744V24.8984L101.592 25.0112C102.319 25.4032 103.485 25.82 104.598 25.82C105.613 25.82 106.196 25.456 106.196 24.8192C106.196 24.2208 105.838 24.036 104.955 23.6448L104.606 23.496C104.179 23.3112 103.805 23.1464 103.19 22.864C102.599 22.5976 101.222 21.9752 101.222 20.1248C101.222 19.1296 101.984 17.2568 104.847 17.2568C106.028 17.2568 107.196 17.576 107.657 17.7992L107.739 17.8392V19.9768L107.531 19.8792C106.617 19.4272 105.815 19.2176 104.927 19.2176C104.599 19.2176 103.517 19.2832 103.517 20.0408C103.517 20.616 104.199 20.9168 104.749 21.1648L104.856 21.2096C105.252 21.3848 105.564 21.5312 105.832 21.6368L106.121 21.76C107.844 22.5152 108.488 23.3216 108.488 24.752M57.8745 14.1736H60.0619V27.5728H57.9352L52.0973 18.2408V27.5728H49.9131V14.1736H52.0941L57.8737 23.5768V14.1736H57.8745ZM112.374 19.4296V24.6272C112.374 25.5576 112.811 25.7344 113.624 25.7344C114.086 25.7344 114.44 25.6432 114.618 25.5944L114.801 25.5336V27.5328L114.686 27.5576C114.016 27.7304 113.447 27.788 112.606 27.788C112.025 27.788 110.14 27.596 110.14 25.1056V19.4296H108.708V19.2952C108.702 19.1984 108.702 18.5136 108.708 17.8744V17.4352H110.14V14.8768L112.374 14.0912V17.4352H114.801V19.4296H112.374ZM67.3916 24.6144C67.1345 24.9312 66.3294 25.7696 65.0764 25.7696C64.1133 25.7696 63.4976 25.2152 63.4976 24.3568C63.4976 23.4984 64.1995 22.9712 65.423 22.9712H67.3916V24.6136V24.6144ZM65.6658 17.2224C64.5286 17.2224 63.4241 17.42 62.6462 17.7592L62.5576 17.792V19.856L62.7604 19.7536C63.2859 19.4984 64.5445 19.2664 65.3336 19.2664C67.299 19.2664 67.386 20.016 67.3916 20.9904H65.2905C62.5081 20.9904 61.2415 22.7376 61.2415 24.3576C61.2415 26.616 63.0344 27.7888 64.8145 27.7888C66.0268 27.7888 66.7903 27.3336 67.406 26.7872V27.5736H69.6221V20.7224C69.6221 17.5632 66.8541 17.2224 65.6658 17.2224Z" fill="white"/>
<path d="M39.9308 20C39.9308 38.548 38.4813 40 19.9654 40C1.44949 40 0 38.548 0 20C0 1.452 1.44949 0 19.9654 0C38.4813 0 39.9308 1.452 39.9308 20Z" fill="#3C1053"/>
<path d="M25.9296 24.3968H17.9834L21.9541 31.2936H29.9012H29.9028L25.9296 24.3968Z" fill="#E90000"/>
<path d="M29.9004 17.5072L33.8735 24.4L29.9028 31.2936L25.9297 24.3968L29.9004 17.5072Z" fill="#C20000"/>
<path d="M23.9386 7.16401L23.9394 7.16321H15.9932L12.0225 14.0536H19.9679L23.9386 7.16401Z" fill="#E90000"/>
<path d="M19.9678 14.0536L23.9409 20.9488L27.9116 14.0568L23.9385 7.16321L19.9678 14.0536Z" fill="#C20000"/>
<path d="M14.0062 24.396L17.977 17.5064H10.0307L6.06001 24.396L6.05762 24.3992L14.0062 24.396Z" fill="#E90000"/>
<path d="M17.9786 31.2936H17.9762H10.0307L6.05762 24.3992L6.06001 24.396H14.0062L17.9786 31.2936Z" fill="#C20000"/>
<path d="M25.9232 17.5064L23.9403 20.948H19.9672L17.9834 24.3968H25.9296L29.9004 17.5064H25.9232Z" fill="url(#paint0_linear_358_3056)"/>
<path d="M14.0166 17.5064H17.9761L19.9671 20.948H23.9402L19.9679 14.0528H12.0225L14.0166 17.5064Z" fill="url(#paint1_linear_358_3056)"/>
<path d="M19.9635 27.8368L17.983 24.3968L19.9667 20.948L17.9758 17.5064L14.0059 24.396L17.9782 31.2936L19.9635 27.8368Z" fill="url(#paint2_linear_358_3056)"/>
</g>
<defs>
<linearGradient id="paint0_linear_358_3056" x1="20.959" y1="20.3768" x2="25.9317" y2="23.2431" gradientUnits="userSpaceOnUse">
<stop stop-color="#C20000" stop-opacity="0.1"/>
<stop offset="0.24" stop-color="#C20000" stop-opacity="0.2"/>
<stop offset="0.72" stop-color="#C20000" stop-opacity="0.44"/>
<stop offset="1" stop-color="#C20000" stop-opacity="0.6"/>
</linearGradient>
<linearGradient id="paint1_linear_358_3056" x1="20.4962" y1="16.4998" x2="17.9602" y2="19.5168" gradientUnits="userSpaceOnUse">
<stop stop-color="#C20000" stop-opacity="0.1"/>
<stop offset="0.2" stop-color="#C20000" stop-opacity="0.2"/>
<stop offset="0.61" stop-color="#C20000" stop-opacity="0.44"/>
<stop offset="1" stop-color="#C20000" stop-opacity="0.7"/>
</linearGradient>
<linearGradient id="paint2_linear_358_3056" x1="16.5369" y1="21.5511" x2="20.0889" y2="24.5263" gradientUnits="userSpaceOnUse">
<stop stop-color="#C20000" stop-opacity="0.1"/>
<stop offset="0.2" stop-color="#C20000" stop-opacity="0.2"/>
<stop offset="0.61" stop-color="#C20000" stop-opacity="0.44"/>
<stop offset="1" stop-color="#C20000" stop-opacity="0.7"/>
</linearGradient>
<clipPath id="clip0_358_3056">
<rect width="115" height="40" fill="white"/>
</clipPath>
</defs>
</svg>
