<svg width="181" height="40" viewBox="0 0 181 40" fill="none" xmlns="http://www.w3.org/2000/svg">
<path fill-rule="evenodd" clip-rule="evenodd" d="M123.453 0H130.559V39.664H123.453V0ZM181 16.7106V10.5555H173.652V2.53058H166.546V31.7873C166.546 34.4755 167.222 36.5241 168.555 37.8765C169.887 39.23 171.964 39.9161 174.726 39.9161H181V33.7611H176.409C175.411 33.7611 174.695 33.5415 174.28 33.1079C173.899 32.711 173.652 31.7085 173.652 30.5541V16.7106H181ZM75.183 31.9438L82.5304 10.5547H89.9958L79.3892 39.6644H70.9769L60.3701 10.5547H67.8356L75.183 31.9438ZM154.963 25.1374C154.963 26.9802 154.684 28.5835 154.134 29.9025C153.588 31.2144 152.806 32.2201 151.809 32.891C150.811 33.5619 149.586 33.9021 148.165 33.9021C146.133 33.9021 144.6 33.2341 143.61 31.9174C142.607 30.5866 142.099 28.5698 142.099 25.9231V10.5555H134.993V26.7089C134.993 29.2241 135.307 31.3575 135.928 33.049C136.549 34.7456 137.402 36.1257 138.463 37.1502C139.524 38.1736 140.762 38.9128 142.144 39.3479C143.518 39.7808 144.998 40 146.54 40C148.761 40 150.6 39.5969 152.003 38.8018C153.283 38.0744 154.356 37.224 155.196 36.2704L155.832 39.6639H162.069V10.5555H154.963V25.1374ZM112.59 12.0906C110.351 10.8484 107.691 10.2191 104.687 10.2191C101.72 10.2191 99.0705 10.8484 96.8126 12.0902C94.552 13.3351 92.7758 15.0932 91.5331 17.3156C90.2922 19.536 89.6631 22.1677 89.6631 25.1374C89.6631 28.0706 90.2922 30.684 91.5331 32.9044C92.775 35.126 94.5517 36.8837 96.8126 38.1285C99.0705 39.3704 101.72 39.9996 104.687 39.9996C107.691 39.9996 110.351 39.3704 112.59 38.1281C114.832 36.884 116.599 35.1264 117.841 32.9044C119.082 30.6827 119.712 28.0694 119.712 25.1374C119.712 22.1689 119.082 19.5371 117.841 17.3155C116.598 15.0929 114.832 13.3346 112.59 12.0906ZM108.836 32.8894C107.691 33.6351 106.295 34.0135 104.688 34.0135C103.117 34.0135 101.73 33.6353 100.566 32.8891C99.4001 32.1421 98.4858 31.0879 97.8477 29.7551C97.2069 28.4211 96.8816 26.8677 96.8816 25.1374C96.8816 23.3714 97.2065 21.809 97.8477 20.4931C98.4854 19.1784 99.4005 18.1238 100.568 17.358C101.731 16.593 103.118 16.2053 104.688 16.2053C106.294 16.2053 107.689 16.593 108.835 17.3571C109.983 18.1234 110.889 19.1784 111.528 20.4935C112.169 21.8125 112.493 23.375 112.493 25.1375C112.493 26.8639 112.169 28.4178 111.528 29.7551C110.889 31.0881 109.983 32.1425 108.836 32.8894ZM7.38508 9.78894H0V39.6644H7.38508V9.78894ZM30.5444 11.4973C30.5444 5.15797 25.3843 0.00042915 19.0414 0.00042915H0V6.38053H18.136C21.0065 6.38053 23.3843 8.63662 23.4369 11.4095C23.4631 12.7979 22.9422 14.1082 21.9702 15.0991C20.9979 16.0902 19.6987 16.6365 18.312 16.6365H11.2471C10.9963 16.6365 10.7921 16.8404 10.7921 17.0914V22.7618C10.7921 22.8583 10.8219 22.9504 10.8779 23.028L22.8646 39.6645H31.639L19.6245 22.9825C25.6751 22.6786 30.5444 17.5927 30.5444 11.4973ZM53.2529 11.9212C51.1256 10.7916 48.5997 10.2191 45.7452 10.2191C42.8872 10.2191 40.3319 10.8488 38.1501 12.0914C35.9646 13.3351 34.2453 15.0936 33.0401 17.3171C31.8361 19.5356 31.2258 22.1857 31.2258 25.1942C31.2258 28.1264 31.8455 30.7389 33.0683 32.9596C34.2938 35.1855 36.0614 36.9342 38.3212 38.1571C40.5768 39.3801 43.2824 40 46.3621 40C48.8053 40 50.9994 39.5421 52.8834 38.6383C54.7677 37.7321 56.306 36.4982 57.4559 34.9706C58.5482 33.5187 59.2852 31.8766 59.6456 30.0904L59.6845 29.8997H52.6176L52.5842 30.0143C52.1951 31.3466 51.4402 32.3994 50.3397 33.144C49.1584 33.9446 47.7075 34.3508 46.0266 34.3508C44.602 34.3508 43.3153 34.0454 42.2026 33.4431C41.0953 32.8444 40.2296 31.9881 39.6299 30.8973C39.0279 29.8026 38.6853 28.4855 38.6121 26.9905V26.7567H59.9584L59.9822 26.6263C60.0567 26.2165 60.1046 25.7943 60.1253 25.3696C60.1429 24.9559 60.1532 24.5426 60.1532 24.1255C60.1151 21.3051 59.4849 18.8244 58.2806 16.7514C57.0715 14.676 55.3799 13.0508 53.2529 11.9212ZM50.6635 17.403C51.8776 18.4253 52.633 19.8779 52.91 21.7235H38.8575C39.0181 20.526 39.4155 19.4889 40.0399 18.6381C40.6949 17.7457 41.5339 17.0446 42.5341 16.5541C43.5354 16.0621 44.6348 15.8124 45.8012 15.8124C47.773 15.8123 49.4089 16.3475 50.6635 17.403Z" fill="white"/>
</svg>
