<?xml version="1.0" encoding="UTF-8"?>
<svg id="AW_Layer" data-name="AW Layer" xmlns="http://www.w3.org/2000/svg" viewBox="0 0 1175.7 351.41">
  <defs>
    
  </defs>
  <path d="M150.26,83.96c27.12,0,52.61,16.98,52.61,49.78h-30.64c0-14.48-10.89-22.04-21.38-22.04-11.42,0-21.32,7.56-21.33,17.9h0c0,38.52,91.72,11,91.72,78.57v.02c0,34.39-28.49,58.63-66.91,58.63-41.4,0-71.29-26.61-65.86-72.75h31.96c-3.55,25.09,7.17,46.14,33.94,46.14,21.46,0,34.27-14,34.27-30.8,0-43.26-90.59-10.57-90.59-79.8,0-25.68,25.07-45.66,52.19-45.66Z" fill="#321e37"/>
  <path d="M1008.08,84.59c43.04,0,67.39,25.99,75.25,54.47h-36.04c-3.84-9.48-13-24.78-39.21-24.78-26.21,0-46.32,21.3-46.32,61.42s19.68,61.41,46.32,61.41,44.78-15.9,46.07-42.08h-49.5v-30.13h82.36c7.36,70.32-35.3,101.91-78.93,101.91s-79.7-32.53-79.7-91.12,36.65-91.11,79.69-91.11Z" fill="#321e37"/>
  <path d="M331.81,118.23h-44.39v145.33h-32.06V118.23h-44.14v-30.37h120.59v30.37Z" fill="#321e37"/>
  <path d="M460.48,263.56h-34.56l-10.27-33.89h-59.61l-10.27,33.89h-33.56l59.35-175.7h30.06l58.85,175.7ZM362.56,199.55h45.32l-22.29-69.28-23.04,69.28Z" fill-rule="evenodd"/>
  <path d="M534.99,87.85s58.85-.57,58.85,49.2c0,21.45-10.93,33.88-23.37,41.08h0c13.75,6.86,23.37,22.46,23.37,38.39v47.03h-32.31v-41.73c0-14.74-11.84-26.69-26.55-26.71l-29.93-.08v68.52h-31.81V87.85h61.73ZM505.06,164.91h29.93s26.55,0,26.55-23.46-26.55-23.47-26.55-23.47h-29.93v46.93Z" fill-rule="evenodd"/>
  <path d="M768.06,263.56h-32.05V87.86h32.05v175.7Z" fill="#321e37"/>
  <path d="M880.73,203.07v-115.21h29.81v175.7h-28.55l-62.23-120.73.16,120.73h-29.97V87.86h31.3l59.49,115.21Z" fill="#321e37"/>
  <path d="M647.74,233.19h69.11v30.37h-101.11V87.86h32v145.33Z" fill="#321e37"/>
</svg>