<svg width="220" height="40" viewBox="0 0 220 40" fill="none" xmlns="http://www.w3.org/2000/svg">
<path d="M13.6727 0.00218781C19.6125 0.00218781 25.1953 3.7163 25.1953 10.8908H18.4845C18.4845 7.72352 16.0994 6.06989 13.8019 6.06989C11.3008 6.06989 9.13247 7.72352 9.13028 9.98524C9.13028 18.4109 29.2186 12.3913 29.2186 27.1712V27.1756C29.2186 34.6979 22.9788 40 14.5641 40C5.49677 40 -1.04968 34.1795 0.139592 24.0871H7.13941C6.36189 29.5751 8.70977 34.1795 14.5729 34.1795C19.273 34.1795 22.0786 31.1172 22.0786 27.4424C22.0786 17.98 2.23779 25.1304 2.23779 9.98742C2.23779 4.37032 7.72857 0 13.6683 0L13.6727 0.00218781Z" fill="white"/>
<path d="M201.55 0.140004C210.977 0.140004 216.31 5.82492 218.032 12.0545H210.138C209.297 9.98087 207.291 6.63423 201.55 6.63423C195.81 6.63423 191.406 11.2933 191.406 20.0689C191.406 28.8445 195.716 33.5014 201.55 33.5014C207.385 33.5014 211.358 30.0235 211.641 24.2971H200.799V17.7066H218.838C220.45 33.088 211.106 39.9978 201.55 39.9978C191.995 39.9978 184.095 32.8824 184.095 20.0667C184.095 7.25107 192.122 0.137817 201.548 0.137817L201.55 0.140004Z" fill="white"/>
<path d="M53.4348 7.49826H43.7126V39.287H36.6909V7.49826H27.0234V0.855286H53.4348V7.49826Z" fill="white"/>
<path fill-rule="evenodd" clip-rule="evenodd" d="M81.6164 39.287H74.0471L71.7978 31.874H58.7421L56.4928 39.287H49.1426L62.1413 0.855286H68.725L81.6142 39.287H81.6164ZM60.1701 25.2858H70.096L65.2141 10.1318L60.1679 25.2858H60.1701Z" fill="white"/>
<path fill-rule="evenodd" clip-rule="evenodd" d="M97.9355 0.85309C97.9355 0.85309 110.825 0.728412 110.825 11.6148C110.825 16.3067 108.431 19.0256 105.706 20.6005C108.718 22.101 110.825 25.5132 110.825 28.9977V39.2848H103.748V30.157C103.748 26.9328 101.155 24.3189 97.9333 24.3146L91.3781 24.2971V39.2848H84.4111V0.85309H97.9311H97.9355ZM91.3803 17.7088H97.9355C97.9355 17.7088 103.75 17.7088 103.75 12.5773C103.75 7.44575 97.9355 7.44357 97.9355 7.44357H91.3803V17.7088Z" fill="white"/>
<path d="M148.982 39.287H141.963V0.855286H148.982V39.287Z" fill="white"/>
<path d="M173.659 26.0557V0.855286H180.188V39.287H173.935L160.305 12.8791L160.34 39.287H153.776V0.855286H160.632L173.661 26.0557H173.659Z" fill="white"/>
<path d="M122.63 32.644H137.766V39.287H115.621V0.855286H122.63V32.644Z" fill="white"/>
</svg>
