<svg width="222" height="40" viewBox="0 0 222 40" fill="none" xmlns="http://www.w3.org/2000/svg">
<g clip-path="url(#clip0_394_1919)">
<path d="M10.8013 4.0093C10.9847 4.80371 11.1154 5.5671 11.3362 6.29945C11.9053 8.18618 13.0374 9.71605 14.5053 11.0039C14.9034 11.3545 15.3326 11.7207 15.8146 11.9162C16.3682 12.1427 16.4055 12.5617 16.39 12.9868C16.362 13.7781 16.2562 14.5663 16.1754 15.3576C16.1536 15.5593 16.0417 15.5842 15.8582 15.5035C14.5146 14.9108 13.2893 14.1474 12.179 13.1761C10.7328 11.9069 9.63811 10.3925 8.84505 8.65166C8.38476 7.63692 8.02711 6.58184 7.89649 5.4709C7.79697 4.60821 7.66946 3.73932 7.68812 2.87664C7.70989 1.93638 7.88716 1.00232 8.00534 -0.00311279C8.8606 0.158253 9.635 0.257554 10.3814 0.456158C11.8307 0.840952 13.1835 1.45228 14.4338 2.29014C16.2003 3.47555 17.5842 5.00852 18.623 6.85802C19.4565 8.34444 19.9852 9.93327 20.1966 11.6121C20.4734 13.8247 20.2277 15.9969 19.4129 18.0884C19.2947 18.3956 19.3414 18.557 19.6151 18.7308C20.0878 19.0256 20.5325 19.3607 20.9959 19.6835C22.4452 18.4981 24.0469 17.6136 25.8476 17.0985C26.9796 16.7727 28.1272 16.602 29.3121 16.5834C30.9573 16.5586 32.5497 16.782 34.0954 17.3375C35.6068 17.8805 36.9784 18.6563 38.2099 19.6928C39.8023 21.0333 40.9779 22.6718 41.8487 24.543C41.9451 24.751 41.9295 24.8503 41.7118 24.9744C40.331 25.7626 38.8568 26.3212 37.2925 26.5477C36.1635 26.7122 34.9973 26.7773 33.859 26.6998C31.8748 26.5663 29.9963 25.9612 28.2921 24.9278C27.5052 24.45 26.7806 23.8635 26.0653 23.2863C25.6392 22.9418 25.2753 22.5198 24.8897 22.1257C24.8088 22.045 24.756 21.9364 24.6844 21.834C25.633 21.2537 26.6437 20.8937 27.6949 20.6423C27.7758 20.6237 27.9095 20.6827 27.9748 20.7479C29.4023 22.1536 31.1284 23.007 33.0691 23.4166C34.0425 23.6214 35.0377 23.699 36.036 23.5314C36.4434 23.4631 36.8571 23.4321 37.2956 23.3235C36.092 21.7936 34.5183 20.7696 32.6896 20.1955C28.8394 18.9884 25.3437 20.18 23.1232 22.0667C25.0016 24.7168 25.8134 27.699 25.5521 30.9077C25.2598 34.5198 23.6737 37.5392 20.8529 39.9969C20.4672 39.6121 20.0256 39.2397 19.6711 38.7991C19.1237 38.1195 18.6043 37.4119 18.1378 36.6765C17.3416 35.4197 16.7818 34.0543 16.5548 32.5803C16.3993 31.5686 16.2594 30.5415 16.2656 29.5205C16.2749 27.8603 16.6139 26.2374 17.3012 24.7168C17.6744 23.8945 18.144 23.1156 18.5981 22.3336C18.7474 22.0791 18.6976 21.9271 18.4892 21.7781C18.2311 21.595 17.9699 21.4181 17.7117 21.2351C16.5393 22.7773 15.1211 24.031 13.4168 24.9775C12.1977 25.6571 10.907 26.1505 9.55102 26.3894C8.45629 26.5818 7.32113 26.6749 6.21085 26.6222C4.22666 26.5291 2.33887 25.986 0.578595 25.0489C-0.118051 24.6796 -0.133602 24.6765 0.236492 23.9752C0.842947 22.8208 1.56136 21.7471 2.44772 20.7758C3.58288 19.5314 4.91086 18.5601 6.40679 17.8278C7.60726 17.2413 8.87304 16.8006 10.2135 16.6765C11.2553 16.5803 12.3096 16.4841 13.3515 16.543C14.2503 16.5927 15.1397 16.8503 16.0292 17.0427C16.2936 17.1016 16.4242 17.1202 16.533 16.8068C16.9933 15.4631 17.2483 14.0853 17.1395 12.6734C16.9902 10.7401 16.3402 8.96818 15.2019 7.38556C14.1228 5.88672 12.7233 4.7851 11.0501 4.01861C11.019 4.00309 10.9785 4.0124 10.8013 4.0062V4.0093ZM4.57187 23.1932C8.13285 24.1955 12.3843 22.7401 14.6515 19.9597C11.6223 19.0783 7.22161 20 4.57187 23.1932ZM20.8871 35.1435C21.8605 33.6912 22.3208 32.1334 22.4328 30.4918C22.5789 28.3724 22.072 26.3863 20.9275 24.5089C18.9589 28.0559 18.8935 31.55 20.884 35.1435H20.8871ZM21.0115 19.6711C21.0115 19.6711 20.9959 19.6617 20.9897 19.6586C20.9897 19.6742 20.9897 19.6897 20.9897 19.7083C20.999 19.7052 21.0084 19.7021 21.0115 19.6959C21.0146 19.6897 21.0115 19.6804 21.0115 19.6711Z" fill="white"/>
<path d="M126.764 24.2017C126.681 23.488 126.59 22.7742 126.513 22.0574C126.472 21.6912 126.435 21.325 126.429 20.9589C126.397 19.1652 126.366 17.3716 126.354 15.5748C126.342 13.8371 126.354 12.0993 126.354 10.3615V9.98291H130.655V29.9798C130.562 29.986 130.456 29.9984 130.347 29.9984C128.531 29.9984 126.715 29.9984 124.898 30.0046C124.656 30.0046 124.559 29.9426 124.469 29.6912C123.465 26.9511 122.438 24.2203 121.418 21.4833C120.697 19.55 119.978 17.6198 119.254 15.6866C119.22 15.5904 119.148 15.5097 119.024 15.4445C119.052 15.7672 119.08 16.0869 119.111 16.4096C119.185 17.263 119.26 18.1132 119.335 18.9666C119.649 22.6253 119.387 26.2901 119.506 29.9736H115.248V9.9705H115.988C117.593 9.9705 119.198 9.97671 120.803 9.96429C121.073 9.96429 121.185 10.0543 121.278 10.2994C122.103 12.4779 122.942 14.647 123.773 16.8223C124.485 18.6935 125.191 20.5679 125.9 22.4391C126.105 22.979 126.301 23.5252 126.509 24.0651C126.537 24.1365 126.615 24.1862 126.668 24.2482C126.699 24.2327 126.733 24.2203 126.764 24.2048V24.2017Z" fill="white"/>
<path d="M184.732 9.98291H190.645C192.473 14.7649 194.299 19.5469 196.128 24.3289C196.168 24.3227 196.212 24.3196 196.252 24.3134C196.236 24.0217 196.233 23.7269 196.202 23.4352C196.14 22.8921 196.031 22.3522 195.991 21.806C195.711 17.9364 195.882 14.0574 195.838 10.1846C195.838 10.1257 195.845 10.0667 195.848 9.98601H200.149V29.9767C200.065 29.986 199.968 30.0015 199.875 30.0015C198.034 30.0015 196.193 30.0077 194.352 29.9953C194.227 29.9953 194.025 29.9022 193.988 29.8029C193.189 27.6928 192.414 25.5764 191.627 23.4631C190.704 20.9899 189.768 18.5167 188.841 16.0434C188.769 15.8541 188.71 15.6648 188.645 15.4724C188.608 15.4786 188.573 15.4817 188.536 15.488C188.558 15.8231 188.567 16.1613 188.601 16.4965C188.667 17.1016 188.772 17.7036 188.816 18.3118C189.093 22.1319 188.925 25.9612 188.968 29.7843C188.968 29.8433 188.962 29.9022 188.959 29.9798H184.732V9.98291Z" fill="white"/>
<path d="M156.466 19.4104C157.62 19.6245 158.668 20.0652 159.52 20.8565C160.077 21.3747 160.45 22.0512 160.596 22.8022C160.823 23.9627 160.795 25.1171 160.394 26.2529C160.03 27.2863 159.383 28.0869 158.462 28.6517C157.371 29.3219 156.161 29.6571 154.889 29.775C154.18 29.8402 153.468 29.9084 152.759 29.9209C150.389 29.9612 148.019 29.9736 145.646 29.9984C145.624 29.9984 145.599 29.9891 145.553 29.9767V9.97051H145.948C147.64 9.97051 149.331 9.9612 151.023 9.97051C152.665 9.98292 154.304 10.0636 155.906 10.4918C157.206 10.8394 158.391 11.3856 159.181 12.5368C159.629 13.1885 159.865 13.9271 159.862 14.7277C159.862 15.4228 159.878 16.1086 159.594 16.782C159.193 17.7378 158.518 18.4112 157.638 18.8984C157.271 19.1032 156.867 19.2397 156.469 19.4135L156.466 19.4104ZM150.324 26.5663C151.484 26.4918 152.631 26.4763 153.76 26.3243C154.5 26.225 155.156 25.8681 155.53 25.1264C155.775 24.6392 155.769 24.1334 155.754 23.6245C155.716 22.3801 154.992 21.6943 153.937 21.3623C153.026 21.0768 152.087 21.1513 151.154 21.142C150.874 21.142 150.594 21.142 150.324 21.142V26.5663ZM150.324 17.865C151.219 17.865 152.078 17.9302 152.92 17.8495C154.189 17.7316 154.777 17.1885 154.979 16.0186C155.147 15.0473 154.914 14.0264 153.667 13.6602C153.297 13.5516 152.914 13.4523 152.532 13.4337C151.795 13.3995 151.057 13.4243 150.324 13.4243V17.865Z" fill="white"/>
<path d="M215.168 18.9884C215.553 19.6276 215.93 20.2731 216.325 20.9092C217.429 22.6843 218.542 24.4531 219.655 26.2219C220.343 27.3173 221.036 28.4096 221.727 29.505C221.817 29.6447 221.892 29.7936 222.004 29.986C221.864 29.9953 221.77 30.0047 221.68 30.0047C220.038 30.0047 218.396 30.0047 216.754 30.0078C216.555 30.0078 216.427 29.9705 216.312 29.7719C215.662 28.6517 214.99 27.5469 214.322 26.436C213.379 24.872 212.431 23.308 211.488 21.744C211.047 21.0085 210.615 20.2638 210.176 19.5252C210.148 19.4787 210.12 19.429 210.033 19.2863V29.986H205.203V9.99534H210.024V19.1094C210.055 19.1218 210.083 19.1342 210.114 19.1466C210.223 19.0132 210.344 18.8891 210.44 18.7463C211.874 16.6299 213.302 14.5105 214.738 12.3972C215.242 11.6555 215.755 10.917 216.275 10.1877C216.346 10.0884 216.493 9.97983 216.604 9.97673C218.209 9.96431 219.814 9.96742 221.521 9.96742C219.379 12.9837 217.276 15.941 215.174 18.8953C215.155 18.9077 215.14 18.917 215.121 18.9294C215.14 18.948 215.155 18.9697 215.174 18.9884H215.168Z" fill="white"/>
<path d="M169.217 9.97052C171.099 9.97052 172.962 9.97052 174.828 9.97983C174.915 9.97983 175.055 10.0822 175.08 10.166C175.515 11.5842 175.929 13.0085 176.361 14.4267C177.173 17.1047 177.997 19.7766 178.808 22.4546C179.272 23.9907 179.72 25.5299 180.18 27.0659C180.469 28.0341 180.771 28.9992 181.079 30.0078H179.894C178.687 30.0078 177.48 30.0078 176.274 30.0078C176.075 30.0078 175.953 30.0016 175.894 29.7347C175.593 28.391 175.251 27.0566 174.915 25.685H173.624C172.256 25.685 170.887 25.6912 169.519 25.6819C169.273 25.6819 169.164 25.7409 169.105 26.0047C168.828 27.2521 168.524 28.4965 168.213 29.7378C168.188 29.8402 168.045 29.9922 167.958 29.9922C166.393 30.0078 164.826 30.0047 163.199 30.0047C163.289 29.654 163.358 29.3313 163.451 29.0178C164.107 26.8611 164.77 24.7044 165.426 22.5477C166.182 20.0683 166.944 17.5888 167.69 15.1094C168.206 13.4026 168.704 11.6928 169.214 9.97362L169.217 9.97052ZM174.094 22.1722C173.428 19.3949 172.766 16.6237 172.103 13.8526C172.069 13.8526 172.035 13.8526 172.004 13.8526C171.341 16.6206 170.679 19.3887 170.013 22.1753H174.094V22.1722Z" fill="white"/>
<path d="M51.7355 30.0046C53.7602 23.3049 55.7692 16.6517 57.7876 9.97051H61.2087C61.8929 9.97051 62.5771 9.97982 63.2613 9.96431C63.4945 9.9612 63.5941 10.0264 63.6625 10.2653C64.2938 12.391 64.9469 14.5105 65.5907 16.6361C66.362 19.187 67.1333 21.7378 67.9046 24.2886C68.4768 26.1815 69.0491 28.0714 69.6337 30.0078H69.2108C67.7553 30.0078 66.2998 30.0078 64.8443 30.0078C64.6173 30.0078 64.5177 29.9736 64.4555 29.7036C64.1539 28.3631 63.8056 27.0349 63.4728 25.685C61.6223 25.685 59.7843 25.6819 57.9431 25.6943C57.8561 25.6943 57.713 25.8216 57.6881 25.9147C57.4207 27.0163 57.1781 28.1272 56.9075 29.2289C56.7178 30.0078 56.7054 30.0015 55.8657 30.0015H51.7324L51.7355 30.0046ZM60.6706 13.9053C60.6271 13.9116 60.5867 13.9178 60.5431 13.924C59.8869 16.6672 59.2307 19.4104 58.5714 22.1722H62.6517C61.9893 19.4135 61.33 16.6579 60.6706 13.9053Z" fill="white"/>
<path d="M99.3904 22.1132H93.9572V29.986H89.2051V9.99222H101.154C100.992 11.1249 100.83 12.2451 100.666 13.3871H93.9821V18.5942H99.9067C99.7325 19.7859 99.5646 20.9402 99.3904 22.1132Z" fill="white"/>
<path d="M73.3008 9.97983H85.234C85.0722 11.1125 84.9136 12.2234 84.7488 13.3716H78.0809V18.5943H83.9775C83.8065 19.7859 83.6416 20.931 83.4737 22.0977H78.0747V29.9767H73.3008V9.97983Z" fill="white"/>
<path d="M110.349 29.9922H105.619V9.99533H110.349V29.9922Z" fill="white"/>
<path d="M34.63 3.24281C33.1216 3.36383 31.7625 3.58106 30.5247 4.20479C29.8374 4.55235 29.1967 5.00542 28.5778 5.46779C27.6884 6.13497 26.9855 6.98524 26.4008 7.92861C25.6389 9.15437 25.1257 10.4794 24.9204 11.9069C24.8178 12.633 24.7774 13.3716 24.7743 14.1039C24.7743 14.5849 24.8645 15.0721 24.9547 15.55C25.0075 15.8324 24.992 15.9472 24.6623 16.0248C23.7573 16.2358 22.8709 16.5151 21.9877 16.7634C21.5803 15.3452 21.5554 13.9178 21.6425 12.4996C21.7389 10.9108 22.1339 9.3809 22.7994 7.9162C23.5862 6.19083 24.681 4.6951 26.0712 3.429C27.3058 2.30254 28.7147 1.41503 30.3008 0.840946C31.4453 0.42512 32.6084 0.0930794 33.84 0.0620476C34.123 0.0558412 34.2163 0.15204 34.2474 0.428223C34.3563 1.35607 34.4962 2.28082 34.63 3.24591V3.24281Z" fill="white"/>
<path d="M30.7747 11.6835C29.9786 11.7393 29.1762 11.0566 29.17 10.0667C29.1637 9.22575 29.9692 8.42513 30.7872 8.4903C31.6984 8.56167 32.3329 9.083 32.3702 10.1008C32.4044 11.0411 31.5553 11.7455 30.7747 11.6835Z" fill="white"/>
<path d="M27.5171 11.6835C28.4284 11.6835 29.1841 12.3444 29.153 13.2289C29.1188 14.1598 28.5963 14.8425 27.5358 14.8704C26.6961 14.8922 25.9559 14.2095 25.9434 13.2692C25.9341 12.4437 26.7241 11.6276 27.514 11.6835H27.5171Z" fill="white"/>
<path d="M32.6591 4.53374C33.4708 4.38789 34.3043 5.27229 34.2669 6.12877C34.2327 6.89836 33.5361 7.7176 32.6342 7.68036C31.8069 7.64623 31.0636 6.9356 31.0885 6.04809C31.1103 5.31884 31.7758 4.42512 32.6622 4.53684L32.6591 4.53374Z" fill="white"/>
<path d="M215.168 18.9884C215.149 18.9697 215.134 18.948 215.115 18.9294C215.134 18.917 215.149 18.9077 215.168 18.8953C215.168 18.9263 215.168 18.9573 215.168 18.9853V18.9884Z" fill="white"/>
<path d="M21.012 19.671C21.012 19.671 21.012 19.6897 21.012 19.6959C21.0089 19.7021 20.9965 19.7052 20.9902 19.7083C20.9902 19.6928 20.9902 19.6772 20.9902 19.6586C20.9965 19.6617 21.0058 19.6679 21.012 19.671Z" fill="white"/>
</g>
<defs>
<clipPath id="clip0_394_1919">
<rect width="222" height="40" fill="white"/>
</clipPath>
</defs>
</svg>
