<svg width="257" height="40" viewBox="0 0 257 40" fill="none" xmlns="http://www.w3.org/2000/svg">
<path d="M242.051 34.9988H245.447V25.2584H245.506L252.501 34.9988H256.625L248.989 24.5039L256.073 14.9961H251.952L245.508 23.722H245.449V14.9961H242.053V34.9988H242.051ZM222.428 34.9988H225.533V19.5468H225.592L233.69 34.9988H237.494V14.9961H234.387V29.723H234.33L226.608 14.9961H222.428V34.9988ZM211.106 18.2154H211.164L213.923 26.9999H208.349L211.106 18.2154ZM202.252 34.9988H205.793L207.535 29.5783H214.735L216.479 34.9988H220.02L213.198 14.9961H209.105L202.255 34.9988H202.252ZM191.307 25.6082H192.671C195.488 25.6082 197.287 26.5348 197.287 29.1736C197.287 32.1604 194.879 32.5926 192.671 32.5926H191.307V25.6082ZM191.307 17.4042H192.671C194.819 17.4042 196.301 17.7814 196.301 20.2738C196.301 22.7661 194.733 23.2019 192.671 23.2019H191.307V17.4042ZM187.91 34.9988H194.065C196.968 34.9988 200.74 34.3909 200.74 29.4611C200.74 25.6064 198.129 24.6193 196.414 24.3593V24.3007C197.577 23.8355 199.754 22.9382 199.754 19.6914C199.754 15.6334 196.242 14.9943 194.065 14.9943H187.91V34.997V34.9988ZM164.453 34.9988H176.386V32.4186H167.851V25.9268H175.719V23.3466H167.851V17.5763H176.153V14.9961H164.453V34.9988ZM161.058 31.1734C160.505 31.492 158.619 32.6512 156.384 32.6512C152.29 32.6512 150.926 29.1736 150.926 24.3904C150.926 21.259 151.564 17.0856 155.078 17.0856C157.689 17.0856 158.04 18.9131 158.04 20.477H161.814C161.814 17.3749 159.723 14.6793 155.078 14.6793C149.358 14.6793 147.183 19.0285 147.183 24.9123C147.183 31.1441 149.767 35.3193 155.601 35.3193C158.01 35.3193 160.101 34.5667 161.058 34.1601V31.1752V31.1734ZM129.093 34.9988H132.202V19.5468H132.259L140.359 34.9988H144.161V14.9961H141.054V29.723H140.995L133.273 14.9961H129.093V34.9988ZM117.918 18.2154H117.976L120.734 26.9999H115.161L117.919 18.2154H117.918ZM109.062 34.9988H112.605L114.347 29.5783H121.547L123.289 34.9988H126.83L120.01 14.9961H115.917L109.065 34.9988H109.062ZM103.461 34.9988H106.857V14.9961H103.461V34.9988ZM89.8459 34.9988H101.11V32.4186H93.2441V14.9961H89.8477V34.9988H89.8459ZM76.1136 34.9988H87.3775V32.4186H79.51V14.9961H76.1136V34.9988ZM65.0533 18.2154H65.112L67.8684 26.9999H62.2951L65.0533 18.2154ZM56.1992 34.9988H59.7405L61.4827 29.5783H68.6826L70.4248 34.9988H73.9661L67.144 14.9961H63.0507L56.1992 34.9988Z" fill="white"/>
<path d="M39.998 6V39H6.99805V6H39.998Z" stroke="white" stroke-width="2"/>
<path d="M0 35.0007H19.113C19.113 35.0007 21.9574 30.7851 23.6464 28.2873C25.3299 30.7851 28.1817 35.0007 28.1817 35.0007H47.2873L23.6464 0L0 35.0007Z" fill="white"/>
</svg>
