<svg width="309" height="40" viewBox="0 0 309 40" fill="none" xmlns="http://www.w3.org/2000/svg">
<path d="M98.9271 24.7201L103.512 11.3752L108.097 24.7201H98.9271ZM109.235 1.65428H98.1039L84.2539 39.1243H94.0076L96.6248 31.5319H110.399L113.02 39.1243H123.085L109.235 1.65428Z" fill="white"/>
<path d="M152.656 19.0164V39.124H143.608V24.9526C143.608 23.5719 143.572 22.3978 143.506 21.4303C143.441 20.4595 143.257 19.6724 142.955 19.0656C142.653 18.4622 142.198 18.0194 141.588 17.7406C140.974 17.4652 140.118 17.3241 139.013 17.3241C138.128 17.3241 137.262 17.5045 136.425 17.8653C135.589 18.2293 134.835 18.613 134.169 19.0164V39.124H125.117V10.8993H134.169V13.933C135.72 12.7064 137.206 11.7487 138.626 11.06C140.046 10.3713 141.617 10.0236 143.336 10.0236C145.192 10.0236 146.829 10.4401 148.249 11.2732C149.669 12.1062 150.78 13.3295 151.581 14.9431C153.385 13.4148 155.139 12.2111 156.841 11.3388C158.547 10.4631 160.216 10.0236 161.853 10.0236C164.893 10.0236 167.202 10.9419 168.779 12.7752C170.357 14.6053 171.147 17.2454 171.147 20.6891V39.124H162.099V24.9526C162.099 23.5555 162.066 22.3781 162.007 21.4139C161.951 20.4562 161.771 19.6724 161.469 19.0656C161.184 18.4622 160.734 18.0194 160.114 17.7406C159.495 17.4652 158.622 17.3241 157.504 17.3241C156.749 17.3241 156.012 17.4553 155.293 17.7177C154.575 17.9768 153.693 18.4097 152.656 19.0164Z" fill="white"/>
<path d="M196.544 14.359C196.275 14.9789 195.708 15.4774 194.842 15.8677C194.222 16.153 193.376 16.3235 192.307 16.3694C191.237 16.4252 189.945 16.4482 188.427 16.4482H186.921V8.46876H187.823C189.712 8.46876 191.178 8.48188 192.221 8.50812C193.264 8.53107 194.137 8.68194 194.842 8.95087C195.622 9.25588 196.17 9.71831 196.478 10.3414C196.79 10.9679 196.944 11.5943 196.944 12.2174C196.944 13.0275 196.813 13.7392 196.544 14.359ZM207.15 21.5939C205.711 20.0656 203.769 19.0588 201.316 18.5701V18.3733C203.051 17.6026 204.395 16.5269 205.347 15.1461C206.298 13.7588 206.773 12.1649 206.773 10.3546C206.773 8.79672 206.426 7.40943 205.734 6.19268C205.038 4.97921 203.979 4.01171 202.556 3.29018C201.185 2.60146 199.801 2.16198 198.403 1.95864C197.006 1.75859 194.802 1.65692 191.792 1.65692H177.289V39.1237H193.622C196.334 39.1237 198.577 38.8908 200.345 38.4186C202.109 37.9496 203.733 37.1592 205.205 36.0474C206.481 35.1094 207.478 33.9287 208.21 32.4988C208.938 31.0754 209.305 29.452 209.305 27.6351C209.305 25.1392 208.584 23.1223 207.15 21.5939ZM198.718 29.9308C198.341 30.6359 197.652 31.2 196.652 31.6231C195.668 32.0495 194.593 32.2692 193.425 32.2856C192.257 32.302 190.322 32.3086 187.623 32.3086H186.921V22.873H189.024C190.457 22.873 191.831 22.8796 193.153 22.8992C194.468 22.9124 195.501 23.0304 196.252 23.2534C197.354 23.5748 198.131 24.0635 198.59 24.7162C199.05 25.3688 199.279 26.297 199.279 27.5006C199.279 28.4189 199.092 29.229 198.718 29.9308Z" fill="white"/>
<path d="M227.758 33.3095C226.853 33.6801 225.961 33.8671 225.078 33.8671C223.973 33.8671 223.156 33.7884 222.635 33.6244C222.114 33.4637 221.664 33.2144 221.29 32.8766C220.9 32.5388 220.654 32.1846 220.556 31.8107C220.457 31.4369 220.411 30.9515 220.411 30.3611C220.411 29.4625 220.641 28.7377 221.107 28.19C221.572 27.6357 222.245 27.2159 223.124 26.9306C223.839 26.6912 224.891 26.4879 226.279 26.3075C227.663 26.1304 228.952 25.9893 230.142 25.8877V31.8337C229.457 32.4437 228.663 32.9389 227.758 33.3095ZM230.142 39.1244H239.194V19.8761C239.194 16.4816 238.053 13.9924 235.777 12.4083C233.5 10.8177 229.801 10.024 224.681 10.024C222.527 10.024 220.382 10.1978 218.24 10.5356C216.095 10.88 214.547 11.1752 213.6 11.4244V18.2002H214.419C215.144 17.9116 216.348 17.495 218.02 16.9605C219.693 16.4259 221.264 16.1569 222.74 16.1569C225.19 16.1569 227.046 16.462 228.305 17.072C229.565 17.682 230.191 18.7839 230.191 20.3811V20.5353C227.558 20.6861 225.016 20.9256 222.566 21.2437C220.116 21.5684 218.06 22.1062 216.407 22.8671C214.734 23.6247 213.442 24.6676 212.53 25.9828C211.619 27.3012 211.166 29.0001 211.166 31.0761C211.166 33.6801 212.058 35.8152 213.849 37.4911C215.636 39.1604 217.853 40 220.503 40C221.631 40 222.668 39.8852 223.609 39.6622C224.554 39.4359 225.462 39.1178 226.341 38.6947C226.971 38.3963 227.64 37.983 228.351 37.4649C229.063 36.9434 229.66 36.5006 230.142 36.13V39.1244Z" fill="white"/>
<path d="M273.113 39.123H264.061V25.0533C264.061 23.9087 264.005 22.7707 263.884 21.6326C263.766 20.4946 263.566 19.655 263.28 19.1172C262.946 18.494 262.454 18.0414 261.808 17.7561C261.162 17.4675 260.26 17.3232 259.102 17.3232C258.279 17.3232 257.446 17.4576 256.6 17.7299C255.754 17.9988 254.832 18.4284 253.845 19.0155V39.123H244.793V10.9016H253.845V13.9353C255.449 12.6726 256.99 11.7051 258.472 11.0328C259.955 10.3605 261.598 10.026 263.405 10.026C266.449 10.026 268.826 10.9147 270.542 12.6989C272.254 14.4797 273.113 17.1428 273.113 20.6914V39.123Z" fill="white"/>
<path d="M308.639 39.123H298.173L290.201 26.7784L287.715 29.8187V39.123H278.666V4.95911e-05H287.715V23.2397L297.413 10.9016H307.96L297.75 23.0659L308.639 39.123Z" fill="white"/>
<path d="M25.9516 25.032C24.5074 26.7053 22.3792 27.7628 19.9937 27.7628C15.6576 27.7628 12.145 24.2517 12.145 19.9157C12.145 15.5813 15.6576 12.0686 19.9937 12.0686C24.3298 12.0686 27.8458 15.5813 27.8458 19.9157V39.9094H40.0023L39.9924 19.9987C39.9924 8.95102 31.0397 7.62939e-06 19.9937 7.62939e-06C8.95268 7.62939e-06 0 8.95102 0 19.9987C0 31.043 8.95268 39.994 19.9937 39.994C22.0638 39.994 24.0625 39.6803 25.9417 39.0926L25.9516 25.032Z" fill="white"/>
<path d="M45.6111 39.8257C46.4777 39.9403 47.3658 40 48.2589 40C59.3032 40 68.2543 31.0474 68.2543 20.0063C68.2543 8.96033 59.3032 0.00598907 48.2589 0.00598907C43.4298 0.00598907 38.9908 1.72414 35.5312 4.5811L35.5545 4.62592C38.5658 7.68706 40.6774 11.6314 41.4659 16.0322L41.4958 16.0205C42.8621 13.7031 45.3804 12.1559 48.2589 12.1559C52.5983 12.1559 56.111 15.6686 56.111 20.0063C56.111 24.3358 52.5983 27.8551 48.2589 27.8551C47.3276 27.8551 46.4328 27.6907 45.5962 27.3886L45.6111 39.8257Z" fill="white"/>
</svg>
