<svg width="173" height="40" viewBox="0 0 173 40" fill="none" xmlns="http://www.w3.org/2000/svg">
<g clip-path="url(#clip0_395_1958)">
<path d="M111.961 38.4009C95.4023 38.1759 81.9113 29.1146 81.8479 18.4385C81.7925 8.07027 94.4997 0.0789613 110.212 0.319806C112.147 0.347444 114.039 0.501427 115.876 0.762013C113.374 0.31191 110.758 0.0513234 108.074 0.00789232C91.3882 -0.244797 77.8418 8.12555 77.8418 19.011C77.8418 29.8964 92.1562 39.767 109.784 40C124.118 40.1935 135.741 34.1408 139.011 25.8099C135.499 33.2721 124.91 38.5826 111.961 38.4088" fill="white"/>
<path d="M2.7077 17.1039C2.7077 13.0372 2.7077 12.291 2.65228 11.4342C2.59686 10.5261 2.38309 10.0957 1.50032 9.91017C1.28655 9.85885 0.831312 9.83121 0.455242 9.83121C0.158345 9.83121 0 9.77593 0 9.59036C0 9.40479 0.186056 9.34952 0.589836 9.34952C2.01098 9.34952 3.70132 9.42848 4.23573 9.42848C5.55 9.42848 6.59508 9.34952 7.50556 9.34952C12.3588 9.34952 13.2179 11.9435 13.2179 13.361C13.2179 15.5562 11.959 16.8631 10.4824 18.0397C12.6834 18.7898 15.3634 20.689 15.3634 23.816C15.3634 26.6785 13.1387 29.6476 8.20228 29.6476C7.88163 29.6476 7.10178 29.5923 6.32589 29.5686C5.52229 29.5134 4.71869 29.4897 4.31491 29.4897C4.01801 29.4897 3.42817 29.4897 2.78687 29.5173C2.16933 29.5173 1.47261 29.5726 0.938195 29.5726C0.589836 29.5726 0.40378 29.4936 0.40378 29.3041C0.40378 29.1699 0.510663 29.0909 0.831312 29.0909C1.23509 29.0909 1.55574 29.0396 1.79722 28.9843C2.33163 28.8777 2.46623 28.2894 2.57311 27.5116C2.7077 26.3863 2.7077 24.274 2.7077 21.8142V17.1079V17.1039ZM5.92607 17.558C5.92607 17.7712 6.00524 17.8265 6.11212 17.8541C6.3536 17.9094 6.75738 17.9331 7.37097 17.9331C8.2577 17.9331 8.84754 17.8265 9.30278 17.4237C9.9995 16.8631 10.4033 15.8997 10.4033 14.5889C10.4033 12.7964 9.3582 10.4432 7.05032 10.4432C6.67425 10.4432 6.43277 10.4432 6.16359 10.4985C5.97753 10.5498 5.92211 10.6603 5.92211 10.9525V17.558H5.92607ZM9.46508 19.698C8.90296 19.2952 8.28541 19.1097 7.24033 19.0544C6.75738 19.0267 6.48819 19.0267 6.08837 19.0267C5.98149 19.0267 5.92607 19.082 5.92607 19.2123V25.5532C5.92607 27.3181 6.00524 27.7722 6.86426 28.1196C7.58869 28.4158 8.20624 28.4394 8.82378 28.4394C10.0312 28.4394 12.0699 27.7959 12.0699 25.0163C12.0699 23.358 11.5077 21.1114 9.46904 19.694" fill="white"/>
<path d="M20.7318 22.5881C20.5972 22.5881 20.5457 22.6434 20.4903 22.8013L19.0415 26.6272C18.7723 27.2944 18.6377 27.938 18.6377 28.2578C18.6377 28.7395 18.8791 29.087 19.7105 29.087H20.1142C20.4349 29.087 20.518 29.1422 20.518 29.3002C20.518 29.5134 20.3557 29.5687 20.0628 29.5687C19.2038 29.5687 18.0518 29.4897 17.2205 29.4897C16.9275 29.4897 15.451 29.5687 14.0575 29.5687C13.7092 29.5687 13.5469 29.5134 13.5469 29.3002C13.5469 29.1383 13.6538 29.087 13.8675 29.087C14.109 29.087 14.4851 29.0593 14.6988 29.0356C15.9339 28.8738 16.4406 27.9657 16.979 26.6272L23.7087 9.83121C24.0293 9.05735 24.1916 8.76123 24.4608 8.76123C24.7023 8.76123 24.8646 9.00208 25.1298 9.61801C25.7751 11.0907 30.0623 22.0038 31.7803 26.0665C32.7977 28.475 33.5775 28.8461 34.1397 28.9804C34.5434 29.0593 34.9433 29.087 35.2679 29.087C35.4816 29.087 35.6162 29.1146 35.6162 29.3002C35.6162 29.5134 35.3748 29.5687 34.3811 29.5687C33.3875 29.5687 31.4597 29.5687 29.3141 29.5134C28.8311 29.4857 28.5105 29.4857 28.5105 29.3002C28.5105 29.1383 28.6174 29.087 28.8866 29.0593C29.0726 29.008 29.2626 28.7632 29.128 28.4434L26.9825 22.7737C26.927 22.6394 26.8479 22.5881 26.7133 22.5881H20.7318ZM26.2026 21.2496C26.3372 21.2496 26.3649 21.1707 26.3372 21.0878L23.9224 14.4823C23.8947 14.3757 23.867 14.2414 23.7878 14.2414C23.7087 14.2414 23.6533 14.3757 23.6255 14.4823L21.1593 21.0601C21.1316 21.1667 21.1593 21.2457 21.2662 21.2457H26.1987L26.2026 21.2496Z" fill="white"/>
<path d="M38.3232 25.9323C38.3786 28.017 38.7269 28.7158 39.2614 28.9014C39.7166 29.0633 40.2273 29.087 40.6548 29.087C40.9517 29.087 41.11 29.1422 41.11 29.3002C41.11 29.5134 40.8686 29.5687 40.4925 29.5687C38.7507 29.5687 37.6779 29.4897 37.1672 29.4897C36.9258 29.4897 35.6669 29.5687 34.2695 29.5687C33.9212 29.5687 33.6797 29.541 33.6797 29.3002C33.6797 29.1383 33.842 29.087 34.1072 29.087C34.4556 29.087 34.9385 29.0593 35.3146 28.9527C36.0113 28.7395 36.1182 27.9617 36.1459 25.6362L36.3874 9.80358C36.3874 9.27056 36.4666 8.89548 36.7357 8.89548C37.0326 8.89548 37.2702 9.24293 37.7294 9.72461C38.05 10.0721 42.1274 14.431 46.0425 18.3121C47.8674 20.1323 51.4856 23.9818 51.9408 24.4122H52.0754L51.8062 12.4015C51.7785 10.7709 51.5371 10.2616 50.8958 9.9931C50.492 9.83122 49.8507 9.83122 49.4746 9.83122C49.154 9.83122 49.0471 9.75225 49.0471 9.59037C49.0471 9.37717 49.344 9.34953 49.7438 9.34953C51.1372 9.34953 52.4238 9.42849 52.9899 9.42849C53.2868 9.42849 54.3041 9.34953 55.6184 9.34953C55.9668 9.34953 56.236 9.37717 56.236 9.59037C56.236 9.75225 56.0736 9.83122 55.753 9.83122C55.4838 9.83122 55.27 9.83122 54.9494 9.91018C54.1973 10.1234 53.9835 10.684 53.9558 12.1844L53.6589 29.0633C53.6589 29.6516 53.552 29.8924 53.3105 29.8924C53.0176 29.8924 52.693 29.5963 52.4 29.3041C50.7097 27.7011 47.2776 24.1951 44.4907 21.4392C41.5692 18.549 38.5923 15.2088 38.1094 14.6994H38.0302L38.3271 25.9323H38.3232Z" fill="white"/>
<path d="M62.8077 18.2805H62.9423C63.8527 17.2895 67.7678 13.3057 68.5477 12.3976C69.2998 11.5132 69.8896 10.8459 69.8896 10.3919C69.8896 10.0957 69.7828 9.91017 69.5136 9.85885C69.2721 9.80357 69.1652 9.75224 69.1652 9.59036C69.1652 9.40479 69.2998 9.34952 69.5928 9.34952C70.1549 9.34952 71.6314 9.42848 72.3559 9.42848C73.1872 9.42848 74.6638 9.34952 75.4951 9.34952C75.7643 9.34952 75.9503 9.40479 75.9503 9.59036C75.9503 9.77593 75.8157 9.83121 75.5465 9.83121C75.1705 9.83121 74.5015 9.93781 73.9908 10.1234C73.1595 10.4432 72.249 11.0078 71.0931 12.1291C70.2618 12.9306 66.2121 16.9421 65.3016 17.9054C66.2675 19.161 71.5246 24.807 72.5696 25.7941C73.7493 26.9154 74.9567 28.1196 76.4055 28.6842C77.2091 29.004 77.7475 29.087 78.0682 29.087C78.2542 29.087 78.4165 29.1422 78.4165 29.3002C78.4165 29.4857 78.2819 29.5686 77.7713 29.5686H75.4396C74.636 29.5686 74.1531 29.5686 73.591 29.5134C72.1421 29.3791 71.4177 28.7908 70.2657 27.7761C69.086 26.7338 63.8013 20.5547 63.2391 19.7769L62.9462 19.3742H62.8116V21.8103C62.8116 24.2701 62.8116 26.3824 62.8908 27.5353C62.9462 28.2855 63.1877 28.8738 63.8567 28.9804C64.2328 29.0356 64.8226 29.087 65.171 29.087C65.3847 29.087 65.5193 29.1659 65.5193 29.3002C65.5193 29.4857 65.3056 29.5686 65.0087 29.5686C63.5083 29.5686 61.818 29.4897 61.145 29.4897C60.5275 29.4897 58.8372 29.5686 57.7644 29.5686C57.416 29.5686 57.23 29.4897 57.23 29.3002C57.23 29.1659 57.3368 29.087 57.6575 29.087C58.0613 29.087 58.3819 29.0356 58.6234 28.9804C59.1578 28.8738 59.2924 28.2855 59.3993 27.5076C59.5339 26.3824 59.5339 24.2701 59.5339 21.8103V17.1039C59.5339 13.0372 59.5339 12.291 59.4785 11.4342C59.423 10.5261 59.2093 10.0957 58.3265 9.91017C58.1127 9.85885 57.6575 9.83121 57.2814 9.83121C56.9885 9.83121 56.8262 9.77593 56.8262 9.59036C56.8262 9.40479 57.0122 9.34952 57.416 9.34952C58.8372 9.34952 60.5275 9.42848 61.1688 9.42848C61.8101 9.42848 63.5004 9.34952 64.4149 9.34952C64.7909 9.34952 64.977 9.40479 64.977 9.59036C64.977 9.77593 64.8147 9.83121 64.6009 9.83121C64.3317 9.83121 64.1734 9.85885 63.8488 9.91017C63.1243 10.0444 62.9106 10.4985 62.8552 11.4342C62.7997 12.291 62.7997 13.0372 62.7997 17.1039V18.2805H62.8077Z" fill="white"/>
<path d="M94.6112 17.1039C94.6112 13.0372 94.6112 12.291 94.5598 11.4342C94.5044 10.5261 94.2391 10.0721 93.6493 9.93781C93.3524 9.85885 93.004 9.83121 92.6834 9.83121C92.4142 9.83121 92.2559 9.77593 92.2559 9.56272C92.2559 9.40085 92.4696 9.34952 92.9011 9.34952C93.9185 9.34952 95.6088 9.42848 96.3887 9.42848C97.0577 9.42848 98.6411 9.34952 99.6585 9.34952C100.007 9.34952 100.221 9.40085 100.221 9.56272C100.221 9.77593 100.058 9.83121 99.7931 9.83121C99.5279 9.83121 99.3101 9.85885 98.9895 9.91017C98.2651 10.0444 98.0513 10.4985 97.9959 11.4342C97.9405 12.291 97.9405 13.0372 97.9405 17.1039V21.8103C97.9405 24.4043 97.9404 26.5166 98.0473 27.6656C98.1265 28.3881 98.3165 28.8698 99.1201 28.9764C99.4962 29.0317 100.086 29.083 100.49 29.083C100.787 29.083 100.917 29.162 100.917 29.2962C100.917 29.4818 100.704 29.5647 100.407 29.5647C98.6372 29.5647 96.9468 29.4857 96.2224 29.4857C95.6049 29.4857 93.9145 29.5647 92.8417 29.5647C92.4934 29.5647 92.3073 29.4857 92.3073 29.2962C92.3073 29.162 92.4142 29.083 92.7349 29.083C93.1386 29.083 93.4593 29.0317 93.7008 28.9764C94.2391 28.8698 94.3975 28.4158 94.4767 27.6379C94.6112 26.5127 94.6112 24.4004 94.6112 21.8063V17.1V17.1039Z" fill="white"/>
<path d="M101.507 29.2488C101.079 29.0633 100.996 28.929 100.996 28.3407C100.996 26.868 101.103 25.265 101.131 24.8386C101.158 24.4359 101.238 24.1437 101.451 24.1437C101.693 24.1437 101.721 24.3846 101.721 24.5978C101.721 24.9452 101.827 25.5059 101.962 25.9639C102.552 27.942 104.135 28.6645 105.798 28.6645C108.213 28.6645 109.392 27.0339 109.392 25.6164C109.392 24.3056 108.989 23.0737 106.764 21.3365L105.529 20.3731C102.58 18.0713 101.558 16.1998 101.558 14.0361C101.558 11.0947 104.024 8.98233 107.753 8.98233C109.495 8.98233 110.623 9.25081 111.32 9.43638C111.562 9.49166 111.696 9.57062 111.696 9.75619C111.696 10.1036 111.589 10.8815 111.589 12.9661C111.589 13.5544 111.51 13.7676 111.292 13.7676C111.106 13.7676 111.023 13.6058 111.023 13.286C111.023 13.0451 110.889 12.216 110.327 11.5211C109.923 11.0117 109.147 10.2102 107.405 10.2102C105.422 10.2102 104.214 11.3592 104.214 12.9661C104.214 14.198 104.832 15.1337 107.057 16.8197L107.809 17.3803C111.055 19.8125 112.207 21.6603 112.207 24.199C112.207 25.7507 111.617 27.5945 109.685 28.854C108.343 29.7108 106.843 29.9516 105.422 29.9516C103.866 29.9516 102.659 29.7661 101.507 29.2567" fill="white"/>
<path d="M118.185 21.8103C118.185 25.2335 118.185 27.0812 118.748 27.559C119.203 27.9617 119.9 28.1473 121.994 28.1473C123.415 28.1473 124.46 28.1196 125.133 27.3971C125.454 27.0497 125.778 26.2995 125.83 25.7902C125.857 25.5493 125.909 25.3874 126.126 25.3874C126.313 25.3874 126.34 25.5217 126.34 25.8415C126.34 26.1376 126.154 28.1433 125.936 28.9172C125.774 29.5055 125.64 29.6397 124.246 29.6397C122.314 29.6397 120.921 29.5845 119.714 29.5608C118.506 29.5055 117.54 29.4818 116.444 29.4818C116.147 29.4818 115.557 29.4818 114.916 29.5094C114.298 29.5094 113.601 29.5647 113.067 29.5647C112.719 29.5647 112.533 29.4857 112.533 29.2962C112.533 29.162 112.639 29.083 112.96 29.083C113.364 29.083 113.685 29.0317 113.926 28.9764C114.46 28.8698 114.595 28.2815 114.702 27.5037C114.836 26.3785 114.836 24.2661 114.836 21.8063V17.1C114.836 13.0333 114.836 12.287 114.781 11.4303C114.73 10.5222 114.512 10.0918 113.629 9.90624C113.415 9.85096 113.095 9.82727 112.742 9.82727C112.445 9.82727 112.287 9.772 112.287 9.58643C112.287 9.40086 112.473 9.34558 112.877 9.34558C114.136 9.34558 115.826 9.42455 116.551 9.42455C117.196 9.42455 119.151 9.34558 120.196 9.34558C120.573 9.34558 120.759 9.40086 120.759 9.58643C120.759 9.772 120.596 9.82727 120.276 9.82727C119.979 9.82727 119.551 9.85491 119.231 9.90624C118.506 10.0405 118.292 10.4945 118.237 11.4303C118.182 12.287 118.182 13.0333 118.182 17.1V21.8063L118.185 21.8103Z" fill="white"/>
<path d="M132.669 22.5881C132.535 22.5881 132.483 22.6434 132.428 22.8013L130.979 26.6272C130.71 27.2944 130.575 27.938 130.575 28.2578C130.575 28.7395 130.817 29.087 131.648 29.087H132.052C132.372 29.087 132.456 29.1422 132.456 29.3002C132.456 29.5134 132.293 29.5687 132 29.5687C131.141 29.5687 129.989 29.4897 129.158 29.4897C128.861 29.4897 127.388 29.5687 125.995 29.5687C125.647 29.5687 125.484 29.5134 125.484 29.3002C125.484 29.1383 125.591 29.087 125.805 29.087C126.046 29.087 126.423 29.0593 126.636 29.0356C127.871 28.8738 128.378 27.9657 128.917 26.6272L135.646 9.83121C135.967 9.05735 136.129 8.76123 136.398 8.76123C136.64 8.76123 136.802 9.00208 137.067 9.61801C137.713 11.0907 142 22.0038 143.718 26.0665C144.735 28.475 145.515 28.8461 146.077 28.9804C146.481 29.0593 146.881 29.087 147.201 29.087C147.415 29.087 147.55 29.1146 147.55 29.3002C147.55 29.5134 147.308 29.5687 146.315 29.5687C145.321 29.5687 143.393 29.5687 141.248 29.5134C140.765 29.4857 140.444 29.4857 140.444 29.3002C140.444 29.1383 140.551 29.087 140.82 29.0593C141.006 29.008 141.196 28.7632 141.062 28.4434L138.916 22.7737C138.861 22.6394 138.781 22.5881 138.647 22.5881H132.665H132.669ZM138.14 21.2496C138.275 21.2496 138.302 21.1707 138.275 21.0878L135.86 14.4823C135.832 14.3757 135.805 14.2414 135.725 14.2414C135.646 14.2414 135.591 14.3757 135.563 14.4823L133.097 21.0601C133.069 21.1667 133.097 21.2457 133.204 21.2457H138.14V21.2496Z" fill="white"/>
<path d="M150.285 9.45613C150.364 9.00208 150.526 8.76123 150.74 8.76123C150.954 8.76123 151.116 8.89547 151.464 9.59037L158.784 24.6767L166.08 9.4048C166.293 8.97839 166.428 8.76123 166.67 8.76123C166.911 8.76123 167.073 9.02971 167.153 9.59037L169.591 26.1218C169.833 27.8077 170.102 28.5816 170.905 28.8224C171.681 29.0633 172.22 29.0909 172.568 29.0909C172.809 29.0909 172.995 29.1185 172.995 29.2765C172.995 29.4897 172.675 29.5726 172.299 29.5726C171.63 29.5726 167.928 29.4936 166.856 29.4107C166.238 29.3554 166.08 29.2765 166.08 29.1146C166.08 28.9804 166.187 28.9014 166.377 28.8185C166.539 28.7632 166.618 28.4158 166.511 27.6695L164.9 15.8997H164.793L158.946 28.0446C158.329 29.3002 158.194 29.541 157.953 29.541C157.711 29.541 157.442 29.008 157.014 28.2025C156.369 26.9707 154.251 22.8803 153.931 22.1301C153.689 21.5694 152.082 18.1976 151.14 16.1919H151.033L149.64 26.8364C149.584 27.3181 149.56 27.6656 149.56 28.092C149.56 28.6013 149.909 28.8422 150.364 28.9488C150.847 29.0554 151.223 29.083 151.488 29.083C151.702 29.083 151.892 29.1383 151.892 29.2686C151.892 29.5094 151.651 29.5647 151.247 29.5647C150.122 29.5647 148.915 29.4857 148.432 29.4857C147.921 29.4857 146.635 29.5647 145.776 29.5647C145.507 29.5647 145.293 29.5094 145.293 29.2686C145.293 29.1343 145.455 29.083 145.72 29.083C145.934 29.083 146.124 29.083 146.524 29.004C147.276 28.8422 147.49 27.7998 147.625 26.8917L150.281 9.45218L150.285 9.45613Z" fill="white"/>
</g>
<defs>
<clipPath id="clip0_395_1958">
<rect width="173" height="40" fill="white"/>
</clipPath>
</defs>
</svg>
