<svg width="133" height="40" viewBox="0 0 133 40" fill="none" xmlns="http://www.w3.org/2000/svg">
<mask id="mask0_303_3658" style="mask-type:luminance" maskUnits="userSpaceOnUse" x="0" y="1" width="133" height="38">
<path d="M133 1.12H0V38.8807H133V1.12Z" fill="white"/>
</mask>
<g mask="url(#mask0_303_3658)">
<path fill-rule="evenodd" clip-rule="evenodd" d="M21.0386 23.638L14.2902 23.636C14.2902 23.636 14.086 23.6133 13.983 23.434C13.8819 23.2587 13.9085 23.1653 13.9085 23.1653V16.8593C13.9085 16.8593 13.9005 16.6353 14.0202 16.5013C14.1352 16.3727 14.3467 16.3667 14.3467 16.3667H23.2384C23.2384 16.3667 23.3807 16.3447 23.5443 16.436C23.686 16.5127 23.7638 16.8087 23.7638 16.8087V23.28C23.7638 23.28 23.686 23.46 23.6082 23.5233C23.5383 23.5833 23.392 23.634 23.392 23.634L21.0386 23.638ZM20.9867 12.3107V5.33466C28.1328 6.37733 33.6224 12.5453 33.6224 19.998C33.6224 27.45 28.1455 33.6267 21 34.6727L20.9881 27.6487H23.7611C26.076 27.6487 27.7764 25.9093 27.7764 23.5893V16.3207C27.7764 14.0013 25.933 12.3073 23.6181 12.3073L20.9867 12.3107ZM9.81274 16.3207C9.81274 14.0013 11.2205 12.296 13.5334 12.296L16.6144 12.2867V5.35133C9.50418 6.42666 4.05052 12.5707 4.05052 19.998C4.05052 27.4267 9.50484 33.5867 16.6144 34.6607L16.6031 27.6993L14.0262 27.6973C11.7106 27.6973 9.81274 25.9087 9.81274 23.5893V16.3207ZM0 19.998C0 9.57199 8.4342 1.12 18.8361 1.12C29.2394 1.12 37.6716 9.57266 37.6716 19.998C37.6716 30.4287 29.2387 38.88 18.8361 38.88C8.4342 38.88 0 30.4293 0 19.998Z" fill="white"/>
</g>
<mask id="mask1_303_3658" style="mask-type:luminance" maskUnits="userSpaceOnUse" x="0" y="1" width="133" height="38">
<path d="M133 1.12H0V38.8807H133V1.12Z" fill="white"/>
</mask>
<g mask="url(#mask1_303_3658)">
<path fill-rule="evenodd" clip-rule="evenodd" d="M125.846 37.2547C125.846 37.2547 125.869 37.1213 125.927 37.062C125.982 37.0053 126.315 36.92 126.453 36.7513C126.581 36.5807 129.339 30.3213 129.339 30.3213L129.506 30.2793L132.042 36.1127C132.212 36.4967 132.328 36.754 132.422 36.85C132.525 36.9393 132.779 37.048 132.95 37.0613C133.051 37.07 132.992 37.2173 132.992 37.2173L130.207 37.2153C130.207 37.2153 130.022 37.072 130.207 37.0007C130.322 36.9587 130.768 36.82 130.838 36.5367C130.872 36.4093 130.81 36.112 130.683 35.772C130.594 35.532 130.343 35.0053 130.202 34.9053C130.075 34.816 129.551 34.8633 129.068 34.85C128.63 34.836 128.051 34.8207 127.865 34.9193C127.636 35.0413 127.382 36.006 127.328 36.154C127.278 36.298 127.328 36.6353 127.454 36.7353C127.668 36.904 128.094 37.0333 128.246 37.076C128.302 37.092 128.288 37.2467 128.288 37.2467L125.846 37.2547ZM130.058 34.3953C130.131 34.3007 129.866 33.78 129.622 33.232C129.438 32.822 129.127 32.0227 129.026 32.0553C128.955 32.0767 128.704 32.7073 128.503 33.1607C128.29 33.652 128.034 34.2653 128.136 34.3667C128.198 34.428 128.673 34.4667 129.069 34.452C129.524 34.4353 129.996 34.4807 130.058 34.3953ZM52.5784 35.766C52.728 35.04 52.5644 34.56 52.1408 34.204C51.94 34.038 51.402 33.7793 50.9651 33.7793C50.3613 33.7793 49.9676 33.7227 49.9676 34.3967L49.9736 36.036C49.9736 36.9587 51.12 36.8607 51.12 36.8607C52.0537 36.8613 52.4653 36.32 52.5784 35.766ZM70.6823 36.986C70.693 37.0007 71.0381 36.9013 71.1951 36.662C71.2755 36.532 71.3793 36.3567 71.3793 35.9233V31.58C71.3793 31.312 71.2935 31.052 71.1791 30.944C71.07 30.832 70.8918 30.7167 70.5001 30.688C70.5001 30.688 70.2029 30.502 70.5001 30.4187C70.5141 30.4313 73.1196 30.414 73.1196 30.414C73.1196 30.414 73.357 30.4893 73.1482 30.6013C72.96 30.702 72.7924 30.6313 72.6401 30.8027C72.5324 30.9213 72.4699 31.15 72.4685 31.5213V33.6653C72.4685 33.7507 72.5503 33.878 72.5776 33.88C72.7206 33.8947 72.8063 33.72 72.8762 33.6813C73.1608 33.4393 73.5984 32.966 73.9947 32.5867C74.7076 31.9073 75.0673 31.5573 75.1844 31.3973C75.3387 31.1833 75.3713 30.886 75.2815 30.786C75.1844 30.6727 74.9723 30.6727 74.788 30.6147C74.788 30.6147 74.6191 30.5013 74.8166 30.4307C74.8166 30.4453 77.1495 30.4307 77.1495 30.4307C77.1495 30.4307 77.2366 30.6433 77.1089 30.702C76.7844 30.7307 76.6647 30.7987 76.4725 30.9007C76.287 30.994 75.8999 31.266 75.5674 31.596C75.5674 31.596 73.861 33.0673 73.9255 33.2393C74.024 33.51 75.0088 34.6667 75.6778 35.5967C75.9651 35.994 76.2517 36.4927 76.4153 36.618C76.5749 36.7333 76.8256 36.972 77.0391 36.972C77.2858 36.972 77.1674 37.198 77.1674 37.198C77.1674 37.198 75.8374 37.1507 75.6087 37.1733C75.4517 37.1847 75.2655 36.9013 75.2695 36.9013C74.7462 36.2207 73.2605 34.1353 73.1475 34.0053C73.0903 33.9633 72.4798 34.4167 72.4685 34.8013C72.4805 34.7873 72.4685 36.0647 72.4685 36.0647C72.4685 36.4433 72.5556 36.6347 72.662 36.7453C72.8502 36.928 73.3164 36.9853 73.3164 36.972C73.5292 37.03 73.3856 37.1733 73.3856 37.1733H70.57C70.57 37.1733 70.4735 37.0307 70.6823 36.986ZM61.9562 36.9907C62.1484 36.916 62.4962 36.6973 62.6292 36.548C62.7575 36.3953 62.856 36.2653 62.856 35.7253C62.856 35.7253 62.8267 32.4313 62.8267 31.9467C62.8267 31.554 62.6877 31.0287 62.5035 30.8847C62.3166 30.742 62.0972 30.6547 61.8658 30.644C61.8658 30.644 61.6816 30.446 61.8797 30.4027C61.9363 30.3907 63.6473 30.4027 63.6473 30.4027L67.8375 35.042C67.8375 35.042 68.0011 35.246 68.0922 35.2C68.1101 35.1893 68.1314 34.9947 68.1327 34.9727C68.1494 34.618 68.1367 31.888 68.1367 31.888C68.1367 31.596 68.1939 31.2687 67.9937 31.0407C67.7404 30.7507 67.2363 30.6993 67.0893 30.6433C66.9743 30.6013 66.9743 30.4727 67.102 30.4307C67.102 30.4693 69.3397 30.4307 69.3397 30.4307C69.4953 30.4453 69.3803 30.6013 69.3803 30.6013C69.1282 30.6727 68.8789 30.7287 68.7605 30.8847C68.6188 31.0693 68.5464 31.348 68.5464 31.888V37.2947H68.3555C68.3555 37.2947 63.7564 32.2827 63.4784 32.0073C63.352 31.8787 63.3095 32.0493 63.3095 32.2187C63.3095 32.3893 63.2955 35.6653 63.2955 35.6653C63.2955 36.2307 63.4092 36.576 63.7663 36.7633C63.906 36.8347 64.2658 36.9273 64.4274 36.958C64.4992 36.972 64.5344 37.1767 64.5344 37.1767H61.9569C61.9562 37.178 61.8877 37.0153 61.9562 36.9907ZM54.3233 37.194C54.3233 37.194 54.3486 37.0593 54.4065 37.0013C54.4617 36.9433 54.7942 36.8593 54.9292 36.6893C55.0575 36.5187 57.8172 30.2607 57.8172 30.2607L57.9882 30.2193L60.5225 36.052C60.6914 36.4327 60.8031 36.6927 60.9048 36.788C61.0039 36.8793 61.2586 36.986 61.4275 37.0007C61.5286 37.0087 61.4721 37.1553 61.4721 37.1553L58.6532 37.2273C58.6532 37.2273 58.5554 37.0713 58.7383 37C58.852 36.9553 59.249 36.7593 59.3175 36.4733C59.3507 36.3453 59.2909 36.0513 59.1639 35.7073C59.0741 35.4693 58.8234 34.9427 58.6804 34.844C58.5554 34.7527 58.0307 34.8013 57.5493 34.7873C57.1097 34.7733 56.5305 34.7567 56.3476 34.858C56.1162 34.9827 55.8621 35.942 55.807 36.092C55.7577 36.2373 55.807 36.576 55.9353 36.674C56.1481 36.8413 56.5737 36.9713 56.7293 37.0127C56.7832 37.0293 56.7699 37.184 56.7699 37.184L54.3233 37.194ZM58.5401 34.334C58.6086 34.242 58.3453 33.72 58.1005 33.1713C57.9157 32.758 57.6058 31.9613 57.5047 31.9927C57.4329 32.0133 57.1795 32.6453 56.982 33.1C56.7665 33.588 56.5092 34.2033 56.6129 34.3047C56.6741 34.3667 57.1509 34.4027 57.5466 34.3887C58.0015 34.3753 58.4756 34.4193 58.5401 34.334ZM52.2399 32.164C52.2452 31.7087 51.9812 31.2847 51.6866 31.0407C51.517 30.9007 51.1912 30.7287 50.8234 30.7287C50.3127 30.7287 49.9776 30.798 49.9776 31.2813L49.9736 33.0833C49.9323 33.51 50.9491 33.4033 50.9491 33.4033C51.801 33.404 52.2246 33.2847 52.2399 32.164ZM47.95 36.9833C48.2898 36.888 48.5392 36.8027 48.6422 36.6753C48.7566 36.532 48.7972 36.442 48.7999 36.062V31.5133C48.7992 31.24 48.7294 31.0847 48.5724 30.914C48.2672 30.5807 47.9081 30.7993 47.8516 30.674C47.807 30.5773 47.8216 30.408 47.8216 30.408H50.6778C51.4938 30.408 52.0344 30.4433 52.5212 30.6893C52.8889 30.872 53.3285 31.3133 53.3285 31.9727C53.3285 32.8887 52.5917 33.2147 52.2944 33.428C52.861 33.5813 53.7953 33.9093 53.7953 34.974C53.7953 36.078 53.1869 36.7753 52.6056 36.96C52.2086 37.0853 51.7119 37.1627 51.1433 37.1667H47.9493V36.9833H47.95ZM88.9865 37.042C88.9865 37.062 89.3409 36.9293 89.4959 36.8033C89.6076 36.7127 89.6947 36.5233 89.6947 36.0773L89.7086 31.7813C89.7086 31.4187 89.6661 31.2547 89.5384 31.0567C89.4114 30.8593 89.0982 30.8147 88.7318 30.758C88.7318 30.758 88.4631 30.5593 88.6526 30.4767C88.6347 30.474 90.6397 30.4907 91.6046 30.5027C92.5968 30.5187 93.5856 30.4213 93.6867 30.49C93.8137 30.5753 93.7479 31.528 93.7698 31.7093C93.7851 31.8073 93.706 32.0087 93.6175 32.0207C93.5018 32.0347 93.4759 31.8333 93.4759 31.7093C93.4759 31.4547 93.2578 31.1567 93.2059 31.0847C93.0696 30.9013 92.8069 30.87 92.6812 30.87H91.159C91.024 30.87 90.9861 30.8647 90.9409 30.9133C90.9043 30.9587 90.8458 31.0693 90.8398 31.2133V33.1C90.8398 33.2133 90.8465 33.3713 90.9136 33.3967C91.0679 33.452 92.088 33.4387 92.088 33.4387C92.2583 33.4387 92.4544 33.2673 92.5143 33.1707C92.6001 33.0147 92.747 32.83 92.8235 32.6027C92.8661 32.474 93.0922 32.3733 93.0922 32.6593C93.0922 32.838 93.1208 34.87 93.1208 34.87C93.0077 35.028 92.9093 34.8293 92.9093 34.8293C92.8342 34.434 92.7637 34.292 92.6366 34.1627C92.5183 34.0333 92.3434 33.8787 92.0887 33.8787C92.0887 33.8787 91.2315 33.866 91.2096 33.864C90.8837 33.8347 90.8691 34.1887 90.8578 34.3193C90.8578 34.3333 90.8411 36.1353 90.8411 36.1353C90.8578 36.3193 90.8983 36.5653 91.0141 36.6747C91.1284 36.7733 91.4177 36.9807 91.8061 37.0133C91.9876 37.03 91.8619 37.2393 91.8619 37.2393H88.9173C88.9173 37.2393 88.7763 37.1433 88.9865 37.042ZM81.9381 31.2393C82.5639 30.64 83.4723 30.38 84.3867 30.376C85.3037 30.376 86.0625 30.518 86.6949 31.126C87.3732 31.78 87.7223 32.5867 87.729 33.6813C87.729 34.788 87.3745 35.69 86.6663 36.346C86.0379 36.932 85.1547 37.278 84.257 37.2807C83.3034 37.2807 82.3863 37.024 81.7539 36.3767C81.1175 35.7207 80.8821 34.836 80.8775 33.7927C80.8768 32.7073 81.2512 31.904 81.9381 31.2393ZM82.8146 36.1787C83.3759 36.8173 83.7655 36.9593 84.5423 36.9593C85.0802 36.9593 85.6229 36.64 86.0425 36.1367C86.3956 35.7087 86.5659 34.9587 86.5659 33.85C86.5659 32.7373 86.262 31.996 85.8437 31.484C85.3629 30.8853 84.8435 30.748 84.245 30.7447C83.6399 30.7447 83.0281 30.9013 82.6291 31.3547C82.1968 31.85 82.0006 32.642 81.9953 33.724C81.9953 34.794 82.502 35.8233 82.8146 36.1787ZM118.331 36.986C118.331 37.0007 118.784 36.8447 118.955 36.588C119.061 36.4293 119.129 36.2773 119.129 35.7387L119.068 31.4947C119.039 31.1707 118.795 30.9393 118.686 30.8847C118.544 30.814 118.313 30.83 118.19 30.7293C118.19 30.7293 117.908 30.5187 118.148 30.4733C118.13 30.482 119.86 30.4167 119.882 30.482C120.074 30.602 122.777 33.6087 123.892 34.902C124.263 35.3407 124.404 35.2687 124.39 34.8453C124.404 34.8453 124.404 31.6653 124.404 31.6653C124.404 31.2133 124.178 31.056 124.081 30.9847C123.874 30.8367 123.68 30.7293 123.343 30.6713C123.343 30.6713 123.06 30.5747 123.343 30.482C123.357 30.49 125.564 30.482 125.564 30.482C125.72 30.4733 125.72 30.602 125.564 30.644C125.367 30.644 125.131 30.8047 125 30.9553C124.873 31.1067 124.807 31.444 124.807 31.984L124.8 37.174C124.786 37.4133 124.56 37.2853 124.56 37.2853C124.56 37.2853 120.34 32.6747 119.838 32.1093C119.834 32.1027 119.761 31.964 119.638 32.0513C119.562 32.1067 119.554 32.1333 119.562 32.2607C119.562 32.2767 119.575 35.7387 119.575 35.7387C119.575 36.298 119.769 36.606 119.931 36.774C120.035 36.8833 120.209 36.9773 120.582 37.0133C120.808 37.0007 120.767 37.24 120.767 37.24L118.177 37.242C118.177 37.242 118.134 37.042 118.331 36.986ZM114.395 37.058C114.494 37.0307 114.711 36.912 114.836 36.8173C114.954 36.7207 115.023 36.532 115.027 36.1347L115.046 31.7513C115.032 31.4673 115.032 31.1267 114.893 30.9853C114.686 30.78 114.454 30.6913 114.036 30.672C114.036 30.672 113.857 30.5753 114.036 30.4827C114.044 30.5027 116.848 30.4827 116.848 30.4827C117.073 30.5193 116.818 30.672 116.818 30.672C116.589 30.674 116.412 30.794 116.321 30.902C116.194 31.0567 116.198 31.3747 116.179 31.6107V36.1353C116.179 36.5287 116.31 36.7613 116.435 36.8627C116.553 36.95 116.696 37.0247 117.114 37.0607C117.383 37.102 117.114 37.2433 117.114 37.2433L114.395 37.2413C114.181 37.174 114.395 37.058 114.395 37.058ZM105.561 37.0307C105.548 37.032 105.986 36.744 106.086 36.632C106.185 36.5273 106.271 36.3527 106.271 35.9087L106.3 31.6813C106.3 31.314 106.226 31.11 106.144 30.9713C106.044 30.7987 105.814 30.7733 105.434 30.744C105.434 30.744 104.899 30.6153 105.393 30.4893C105.389 30.5093 108.04 30.4893 108.04 30.4893C108.323 30.502 108.084 30.6707 108.084 30.6707C107.871 30.6727 107.7 30.7433 107.593 30.8733C107.497 30.9967 107.402 31.2133 107.424 31.5873V33.0833C107.424 33.0833 107.402 33.4387 107.714 33.426C108.169 33.404 110.203 33.4647 110.52 33.4393C110.886 33.41 110.957 33.182 110.957 33.0127C110.973 32.5867 110.957 31.6307 110.957 31.6307C110.957 31.2667 110.858 30.988 110.749 30.8733C110.642 30.7653 110.395 30.702 110.018 30.6707C109.752 30.6307 109.938 30.4813 109.938 30.4813L112.754 30.4833C112.754 30.4833 112.895 30.6433 112.67 30.6727C112.44 30.6593 112.35 30.76 112.237 30.8733C112.125 30.984 112.073 31.2193 112.073 31.5873L112.075 36.0927C112.075 36.462 112.147 36.5787 112.259 36.6893C112.368 36.788 112.489 36.9627 112.867 37.0013C113.065 37.0307 113.15 37.2287 112.925 37.242C112.938 37.2693 110.348 37.2993 110.348 37.2993C110.348 37.2993 110.006 37.1433 110.391 37.0133C110.391 37.03 110.688 36.916 110.802 36.7313C110.875 36.6073 110.929 36.2773 110.929 36.052C110.929 36.052 110.943 34.4753 110.943 34.2327C110.943 34.064 110.886 33.8353 110.657 33.88C110.657 33.88 107.898 33.8707 107.671 33.8493C107.515 33.8353 107.415 33.92 107.415 34.22C107.423 34.2133 107.415 36.0107 107.415 36.0107C107.415 36.3773 107.615 36.678 107.728 36.7887C107.837 36.8927 108.045 36.996 108.423 37.0307C108.749 37.0727 108.506 37.242 108.506 37.242L105.494 37.24C105.494 37.24 105.324 37.0867 105.561 37.0307ZM102.745 30.6733C103.105 30.8587 103.396 31.014 103.556 31.0007C103.65 30.99 103.73 30.7927 103.765 30.6733C103.922 30.46 103.976 30.844 103.976 30.83L104.106 32.744C104.106 32.744 103.976 32.9293 103.851 32.744C103.714 32.2913 103.359 31.7887 103.114 31.524C102.745 31.126 102.078 30.7293 101.372 30.7147C100.568 30.702 100.006 31.0347 99.5899 31.554C99.2341 31.9927 99.0233 32.7307 99.0233 33.4973C99.0233 34.4027 99.4077 35.4553 99.9457 35.9653C100.465 36.462 101.022 36.7133 101.759 36.7173C102.282 36.7173 102.58 36.5733 103.028 36.32C103.283 36.18 103.626 35.8067 103.938 35.5113C104.12 35.3553 104.216 35.568 104.216 35.568C104.245 35.7247 103.66 36.3347 103.186 36.7173C102.83 37.0013 101.909 37.3287 101.446 37.3287C100.347 37.3287 99.7142 37.2693 98.7547 36.406C98.2107 35.9147 97.9041 34.9 97.8975 33.9267C97.8975 32.936 98.2147 32.1007 98.8391 31.4253C99.4988 30.7167 100.351 30.3613 101.417 30.3613C101.788 30.362 102.392 30.4893 102.745 30.6733Z" fill="white"/>
</g>
<mask id="mask2_303_3658" style="mask-type:luminance" maskUnits="userSpaceOnUse" x="0" y="1" width="133" height="38">
<path d="M133 1.12H0V38.8807H133V1.12Z" fill="white"/>
</mask>
<g mask="url(#mask2_303_3658)">
<mask id="mask3_303_3658" style="mask-type:luminance" maskUnits="userSpaceOnUse" x="0" y="1" width="134" height="38">
<path d="M133.145 1.12H0V38.8807H133.145V1.12Z" fill="white"/>
</mask>
<g mask="url(#mask3_303_3658)">
<path fill-rule="evenodd" clip-rule="evenodd" d="M74.941 11.1227C74.9848 11.0367 74.9981 11.194 75.2056 11.424C75.4138 11.652 75.2861 11.722 75.4124 11.9067C75.5375 12.0933 75.5395 11.996 75.5075 12.2067C75.4776 12.4173 75.4364 12.376 75.2488 12.528C75.0673 12.6827 75.2203 12.614 75.04 12.4287C74.8572 12.24 75.0168 11.9753 74.8359 11.816C74.653 11.6573 74.6384 11.6573 74.6829 11.404C74.7295 11.1487 74.8984 11.2067 74.941 11.1227ZM74.2281 11.8207C74.3125 11.7653 74.4622 12.0247 74.5745 12.2947C74.6823 12.5647 74.6836 12.5073 74.78 12.8067C74.8764 13.1047 74.8492 12.9633 74.6058 13.2433C74.3604 13.5233 74.0359 13.4893 73.7094 13.784C73.3809 14.0787 73.2392 13.992 72.9393 14.2007C72.6407 14.4093 72.6846 14.3373 72.4299 14.236C72.1765 14.1333 72.1912 14.064 72.3634 13.852C72.535 13.6427 72.5064 13.7553 72.6334 13.6427C72.7631 13.5313 72.4805 13.514 72.6228 13.402C72.7671 13.2907 72.7511 13.4473 72.9785 13.194C73.21 12.94 73.1381 12.8993 73.2253 12.7447C73.311 12.5893 73.4108 12.4067 73.6542 12.294C73.8982 12.186 74.1423 11.878 74.2281 11.8207ZM76.0854 5.78267C76.1725 5.74 76.3541 5.74333 76.5529 5.77333C76.666 5.79067 76.4658 5.74333 76.9632 5.722C77.2179 5.71067 77.3556 5.84067 77.5817 5.97133C78.109 6.27533 78.4794 6.38333 78.5925 6.54867C78.6896 6.692 78.7627 6.966 78.7261 7.176C78.6949 7.34467 78.6769 7.66933 78.4628 7.84933C78.2759 8.00933 78.1715 8.15267 78.0798 8.24333C77.9926 8.32733 78.0252 8.58133 77.8729 8.63733C77.6914 8.70667 77.5511 8.57733 77.325 8.574C77.0823 8.572 76.8987 8.71067 76.8302 8.638C76.7797 8.58733 76.7225 8.49933 76.6314 8.438C76.5496 8.38067 76.4259 8.422 76.4093 8.32067C76.3833 8.164 76.1872 7.74933 76.0375 7.59533C75.9804 7.53733 76.1247 7.23933 76.0429 7.14067C75.9584 7.04133 75.973 6.88467 75.9611 6.78533C75.9471 6.68267 75.9504 6.596 75.9504 6.488C75.9518 6.39067 75.8207 6.232 75.8826 6.104C75.9285 6.02133 75.9943 5.82733 76.0854 5.78267ZM73.7972 7.56667C73.7453 7.29667 74.0545 7.37133 74.3385 7.21933C74.6244 7.06667 74.4828 7.10667 74.5632 7.334C74.6437 7.56333 74.4801 7.34933 74.4063 7.658C74.3311 7.96867 74.3311 7.91333 74.131 8.052C73.9321 8.19 73.9607 8.03667 73.865 7.87867C73.7672 7.722 73.8517 7.836 73.7972 7.56667ZM70.4057 5.85533C70.3485 5.72133 70.6943 5.26267 71.612 4.11333C72.4279 3.09067 74.1197 2.41667 74.8159 2.17067C74.9629 2.11533 75.4563 1.97267 75.6239 1.93733C75.7509 1.91267 76.2656 1.88867 76.3887 1.84733C76.6287 1.76533 77.0357 1.79667 77.1095 1.75733C77.2864 1.672 77.4733 1.62667 77.6781 1.582C77.9142 1.52867 78.2134 1.65867 78.4249 1.61933C78.8418 1.54067 79.165 1.77867 79.3978 1.89867C80.1978 2.32133 81.0696 3.80467 81.3994 4.64533C81.7266 5.484 82.4036 7.844 82.5226 9.77333C82.5991 11.01 82.5539 14.2493 82.5073 14.7453C82.4202 15.628 82.3836 17.7053 82.3231 18.1007C82.2506 18.5787 82.1961 19.402 82.0219 19.698C81.7027 20.2433 80.4006 21.216 80.1206 21.4713C79.8919 21.682 78.905 22.5413 78.7946 22.5327C78.6503 22.524 78.4854 22.2313 78.1775 21.932C77.6295 21.3907 76.1965 20.8873 75.594 20.5527C75.0015 20.226 73.0583 20.0453 71.8713 19.97C71.0234 19.9153 69.7254 19.802 69.6828 19.7053C69.6389 19.5893 69.5425 19.63 69.4141 19.626C69.2984 19.626 69.2871 19.77 69.2585 19.824C69.2146 19.91 69.3131 19.8693 69.2705 20.1087C69.2253 20.35 69.3397 20.1947 69.3643 20.3927C69.3902 20.5933 69.476 20.508 69.4048 20.6907C69.3323 20.8727 69.6981 21.0067 69.7646 21.2047C69.8477 21.442 69.8437 21.7447 69.589 21.7553C69.3137 21.7667 69.075 21.8767 68.7824 21.7727C68.5722 21.7 67.8447 21.0407 67.8068 20.6287C67.7756 20.2767 67.725 19.4653 67.6978 19.2107C67.6459 18.758 67.477 17.566 67.4271 16.968C67.3786 16.374 67.3201 16.5007 67.4364 16.2607C67.5528 16.022 67.2555 15.9833 67.3593 15.6647C67.4324 15.438 67.34 15.0007 67.4697 14.7167C67.5282 14.5887 67.3746 14.5913 67.3879 14.4613C67.4045 14.29 67.4205 14.1773 67.4644 14.0087C67.4996 13.8773 67.4823 13.7247 67.471 13.4853C67.459 13.2447 67.4604 13.1453 67.5608 12.976C67.6233 12.8713 67.5076 12.818 67.5242 12.6067C67.5335 12.4853 67.6811 11.3747 67.741 10.9527C67.8035 10.528 67.8966 9.40267 67.9751 9.25533C68.1919 8.84733 68.3182 7.92667 68.4047 7.60267C68.4998 7.25867 68.7983 6.95067 68.8668 6.68667C68.8968 6.57533 69.081 6.478 69.1528 6.52C69.2492 6.58133 69.2891 6.87867 69.2878 6.99067C69.2851 7.15533 69.1787 7.87267 69.1062 8.02133C69.0191 8.206 68.926 8.86933 68.9114 8.96867C68.8841 9.146 68.8788 9.35067 68.8609 9.47867C68.8469 9.604 68.7611 9.77467 68.7152 9.91533C68.6786 10.032 68.7438 10.2667 68.7099 10.3833C68.6647 10.5387 68.6786 10.6387 68.6062 10.7647C68.537 10.8867 68.6467 11.0053 68.6022 11.104C68.5476 11.2267 68.6554 11.3453 68.5696 11.486C68.4785 11.6327 68.6281 11.6653 68.5802 11.8547C68.519 12.0813 68.5297 12.2653 68.4738 12.3773C68.4166 12.49 68.5802 12.638 68.523 12.8467C68.4506 13.128 68.5011 14.734 68.4565 15.0553C68.4087 15.38 68.424 16.4013 68.4645 16.5867C68.4931 16.712 68.5038 16.9673 68.6155 16.954C68.7558 16.9393 68.7804 16.48 68.9207 16.5067C69.0012 16.5213 68.948 16.7827 68.9686 16.96C69.0065 17.2847 68.9826 17.0067 69.0597 17.584C69.1116 17.9667 69.0457 18.604 69.1023 18.804C69.1568 19.002 69.1255 19.1873 69.3363 19.188C69.5205 19.1887 69.4534 19.0467 69.595 18.8667C69.7407 18.6833 69.7493 18.6547 69.8663 18.742C69.9634 18.814 70.657 18.8087 70.8831 18.7693C71.1764 18.7173 71.3805 18.4733 71.5807 18.3233C71.8234 18.144 72.7664 17.248 73.2405 16.844C73.452 16.66 74.0405 15.96 74.2706 15.7367C74.6484 15.3653 75.2369 14.7533 75.328 14.646C75.4005 14.5593 75.4291 14.4473 75.3459 14.29C75.2981 14.1933 75.2209 14.1753 75.1225 14.2327C74.8771 14.3687 74.5639 14.7773 74.3238 14.9273C73.8949 15.198 73.3616 15.5593 73.0703 15.7367C72.7405 15.93 72.2716 16.1507 71.9731 16.3167C71.586 16.5327 71.1558 16.6727 71.0913 16.7027C70.9496 16.7727 70.8978 16.8147 70.7681 16.7127C70.655 16.628 70.6916 16.6753 70.8007 16.3167C70.8731 16.078 70.685 15.8167 70.9529 15.468C71.1245 15.2453 71.2868 14.666 71.5608 14.3287C71.6578 14.21 72.1845 13.5473 72.2909 13.3753C72.3807 13.2347 72.5536 13.1573 72.5782 13.1087C72.6653 12.9373 72.7731 12.728 72.8249 12.7013C73.0031 12.608 73.182 12.3407 73.2106 12.31C73.2691 12.2407 73.2924 12.1987 73.2558 12.0833C73.2419 12.0387 73.1508 11.8813 73.043 12.0113C72.93 12.1507 72.7199 12.1887 72.6327 12.246C72.4731 12.35 72.5157 12.542 72.3574 12.554C72.13 12.5727 72.1519 12.1993 72.1819 12.0713C72.2171 11.9207 72.0987 11.8847 72.1712 11.7287C72.3388 11.3727 72.2896 11.3347 72.3335 11.2627C72.3774 11.1933 72.414 11.2473 72.5051 11.1393C72.5622 11.0673 72.4479 10.968 72.5217 10.884C72.6647 10.7127 72.7085 10.5113 72.8529 10.4207C73.0085 10.324 73.2818 9.95867 73.3104 9.85933C73.3483 9.73733 73.3556 9.616 73.3988 9.49133C73.4141 9.44933 73.2532 9.42733 73.1907 9.34933C73.1195 9.26333 73.1774 9.208 73.2086 9.05133C73.2226 8.966 73.0543 8.86467 73.0543 8.75133C73.0597 8.62267 73.0424 8.56733 72.8894 8.57933C72.7312 8.59133 72.3933 8.94333 72.1194 8.99467C71.8361 9.04867 71.614 8.84733 71.7569 8.56467C71.9371 8.21667 72.3594 7.70867 72.4465 7.61133C72.5736 7.466 72.5489 7.32867 72.535 7.18667C72.5257 7.04 72.3933 6.71867 72.3494 6.376C72.3235 6.178 72.1094 5.44333 72.0648 5.35267C72.0389 5.29467 71.9737 5.11933 72.1386 5.05467C72.2111 5.02733 72.3514 5.18667 72.4465 5.33C72.5948 5.544 72.8209 5.94267 72.8908 6.08533C72.9765 6.26067 73.0597 6.44467 73.0976 6.58467C73.1235 6.68333 73.1913 6.86667 73.3336 6.88467C73.4713 6.9 73.5584 6.888 73.6455 6.80267C73.7912 6.66 74.5459 6.36467 74.8665 6.25067C75.0221 6.19733 75.1092 6.17067 75.2768 6.27133C75.3719 6.32667 75.4849 6.65467 75.5414 6.684C75.6572 6.744 75.709 6.73 75.6791 6.814C75.6611 6.86933 75.6764 6.84067 75.5348 7.01C75.3932 7.178 75.5195 7.23733 75.3752 7.46267C75.2296 7.68667 75.1139 7.996 75.056 8.13733C75.0001 8.27533 74.8691 8.334 74.7687 8.43333C74.6543 8.54533 74.6949 8.69933 74.6377 8.72867C74.4622 8.814 74.4661 8.788 74.4116 8.90933C74.3504 9.03667 74.3218 9.23533 74.4595 9.49133C74.5287 9.61867 74.6583 9.648 74.6816 9.75067C74.7321 9.94 74.8631 9.936 74.935 10.0347C75.052 10.2067 75.0321 10.1967 75.1012 10.306C75.2236 10.508 75.2116 10.4233 75.3646 10.5367C75.4616 10.608 75.5448 10.8367 75.6565 10.952C75.8394 11.1387 76.0761 11.2833 76.2424 11.4833C76.3774 11.644 76.3813 11.724 76.366 11.8667C76.3401 12.1053 76.3946 11.9653 76.3049 12.1347C76.2424 12.2613 76.3049 12.432 76.3035 12.5173C76.3009 12.674 76.2995 12.7873 76.1985 12.9273C76.0974 13.0687 75.8101 13.4327 75.7516 13.574C75.7024 13.6907 75.6645 13.8133 75.7203 13.87C75.7981 13.9513 75.858 13.986 75.9617 13.9167C76.1413 13.7913 76.6773 12.904 77.1374 12.316C77.3828 12.0013 77.8882 11.1633 78.0039 10.9367C78.1223 10.7067 78.4781 10.2727 78.5506 10.18C78.5931 10.1227 78.7208 10.1247 78.7454 10.2247C78.7714 10.3127 78.7315 10.4093 78.7594 10.466C78.796 10.5433 78.8984 10.4967 78.9103 10.6247C78.9236 10.7533 78.9376 10.8093 78.895 10.8787C78.8625 10.9313 78.9742 10.9613 78.907 11.078C78.8485 11.1753 78.9203 11.376 78.76 11.556C78.5326 11.8153 77.9833 12.5513 77.7532 12.848C77.4374 13.2547 76.5217 14.348 76.378 14.474C76.3015 14.5427 76.2038 14.69 76.247 14.786C76.3162 14.9393 76.5782 15.3833 76.7305 15.5133C76.9306 15.6793 77.3516 15.93 77.5331 15.934C77.7512 15.9367 77.8955 15.8713 77.972 15.8087C78.3152 15.5447 78.5905 14.968 78.7062 14.6867C78.8698 14.2933 79.1325 13.486 79.1491 13.3607C79.171 13.1607 79.0812 12.9473 79.0959 12.8773C79.1165 12.788 79.2415 12.808 79.2661 12.8933C79.304 13.0073 79.3353 13.2187 79.3612 13.3613C79.4051 13.5973 79.0493 14.802 78.9848 15.2107C78.9083 15.708 78.3118 16.55 78.26 16.6773C78.2314 16.7467 78.2433 16.8607 78.1017 16.872C77.9381 16.8873 77.8756 16.8387 77.7785 16.8127C77.4134 16.7073 77.1029 16.4493 76.8695 16.2347C76.6294 16.02 76.0708 15.332 76.0016 15.2187C75.9498 15.1347 75.7656 15.0027 75.6784 15.074C75.5255 15.1993 75.2901 15.5493 75.1797 15.632C75.0886 15.6973 74.9183 15.766 74.8213 15.8693C74.6783 16.0227 74.508 16.22 74.3365 16.3733C74.2095 16.4873 73.6622 16.89 73.5637 16.9873C73.4068 17.1407 73.2179 17.3933 73.1062 17.476C72.9918 17.5613 72.6075 17.7973 72.4918 17.9233C72.3634 18.064 72.1825 18.3493 72.0336 18.4127C71.9352 18.4547 71.8048 18.6233 71.9039 18.7093C72.001 18.7947 72.3275 18.6427 72.5416 18.6033C72.7105 18.5707 72.9652 18.566 73.1468 18.5533C73.2625 18.5447 73.3676 18.4267 73.6322 18.3473C73.8583 18.2787 74.0139 18.378 74.113 18.3527C74.2367 18.3187 74.3092 18.27 74.5107 18.2167C74.7328 18.154 75.0341 18.1927 75.1617 18.1393C75.2542 18.0993 75.2462 18.0673 75.4178 17.9573C75.5321 17.884 75.6791 17.9533 75.8008 17.9173C75.9577 17.8793 76.241 17.7987 76.5383 17.6887C76.7744 17.6013 77.5305 17.4167 77.6435 17.4053C77.7526 17.3913 77.9148 17.152 78.0984 17.084C78.3344 16.996 78.7773 17.078 78.9635 16.966C79.0726 16.9007 79.3233 17.0453 79.4417 17.2573C79.5946 17.5267 79.4211 17.666 79.3778 17.8227C79.2648 18.2113 79.1584 18.3873 79.0314 18.5273C78.9017 18.6653 78.8571 18.9207 78.643 18.9727C78.4003 19.0373 78.2726 19.0733 78.0066 18.9533C77.5285 18.734 77.2724 18.9433 76.9938 18.884C76.5715 18.794 76.4093 19.0047 76.2131 18.988C76.112 18.98 75.7961 18.9267 75.701 18.9807C75.4284 19.14 75.2076 19.102 75.0221 19.158C74.8691 19.2027 74.808 19.352 74.8937 19.424C75.0394 19.5487 75.5262 19.6733 75.9225 19.648C76.5576 19.6113 77.0224 19.7467 77.2771 19.7647C77.6588 19.792 77.9241 20.0007 78.1097 20.002C78.3178 20.002 78.4029 20.1033 78.6151 20.164C78.7567 20.2007 78.9243 20.2527 79.0799 20.2393C79.2515 20.2267 79.3785 20.3547 79.4477 20.3273C79.7024 20.232 79.7024 20.2553 79.844 20.2213C79.9584 20.194 80.1858 19.8967 80.3441 19.79C80.5456 19.648 80.9612 19.258 81.047 19.0193C81.1368 18.7727 81.1627 18.6647 81.2525 18.3547C81.3289 18.0927 81.2132 18.07 81.3163 17.6467C81.4074 17.2773 81.315 16.684 81.3888 16.4567C81.434 16.3153 81.42 16.2453 81.4626 16.1173C81.5225 15.9473 81.4639 15.8207 81.4533 15.7513C81.4393 15.664 81.569 15.4827 81.569 15.368C81.573 15.27 81.4626 15.1827 81.5324 14.988C81.6262 14.738 81.5544 14.476 81.6262 14.394C81.696 14.31 81.5444 14.1673 81.587 14.0373C81.6535 13.846 81.6595 13.06 81.6169 12.6507C81.569 12.138 81.6455 11.4447 81.6661 11.19C81.6714 11.0613 81.4985 10.9627 81.5544 10.85C81.6335 10.696 81.5437 10.452 81.5205 10.2553C81.4839 9.99133 81.4008 9.50333 81.3908 9.20467C81.3755 8.69333 80.896 5.73 80.5948 4.974C80.1672 3.90467 79.04 2.78733 78.5725 2.58333C78.1323 2.38733 77.5584 2.416 77.192 2.41C76.9087 2.406 75.9025 2.56333 75.0114 2.85067C74.2168 3.10467 73.3696 3.49933 73.0929 3.662C72.7657 3.85667 72.3927 4.30533 72.1486 4.55733C71.8859 4.83067 71.8188 5.156 71.745 5.30467C71.5421 5.71133 71.7463 6.224 71.7869 6.366C71.858 6.60867 71.7975 6.77867 71.6984 6.81933C71.4776 6.91067 71.5714 6.91667 71.1578 6.968C71.0254 6.98467 70.7787 6.864 70.7641 6.76533C70.7262 6.52067 70.5121 6.11067 70.4057 5.85533Z" fill="white"/>
</g>
<mask id="mask4_303_3658" style="mask-type:luminance" maskUnits="userSpaceOnUse" x="0" y="1" width="134" height="38">
<path d="M133.145 1.12H0V38.8807H133.145V1.12Z" fill="white"/>
</mask>
<g mask="url(#mask4_303_3658)">
<path fill-rule="evenodd" clip-rule="evenodd" d="M133 11.0127C132.761 11.142 132.042 11.9493 131.857 12.0333C131.677 12.1127 131.42 11.916 131.263 11.9413C130.853 12.0067 129.872 12.2433 129.181 12.37C128.603 12.4753 127.638 12.834 127.379 12.9687C127.195 13.066 127.19 13.198 127.292 13.294C127.64 13.6247 127.935 13.784 128.103 13.998C128.215 14.1453 128.042 14.2107 127.998 14.4527C127.942 14.7447 127.751 16.134 127.842 16.886C127.92 17.5427 128.266 19.52 128.354 20.0653C128.433 20.5487 128.5 21.2107 128.562 21.4567C128.649 21.8033 128.524 22.42 128.395 22.558C127.922 23.072 127.176 23.8327 126.978 23.904C126.679 24.0047 126.287 23.9927 126.006 23.762C125.641 23.464 125.506 22.9207 125.396 22.6367C125.209 22.1487 124.671 21.7773 124.296 21.5027C123.627 21.0193 122.163 20.2713 121.942 19.7447C121.91 19.6707 121.859 19.5167 122.017 19.4627C122.312 19.3587 122.451 19.7247 122.646 19.868C123.018 20.1393 123.335 20.2147 123.604 20.3033C124.022 20.4433 124.774 20.6287 124.953 20.6887C125.381 20.83 125.603 20.894 125.926 20.786C126.151 20.712 126.515 20.014 126.534 19.7173C126.577 18.994 126.413 18.1413 126.432 17.788C126.484 16.768 126.462 16.578 126.567 15.8053C126.646 15.2407 126.497 14.8133 126.515 14.5587C126.533 14.2427 126.537 13.7793 126.625 13.5553C126.698 13.3653 126.464 13.3733 126.301 13.422C125.52 13.6547 125.156 14.0167 124.481 14.3347C124.012 14.556 123.169 15.0693 122.829 15.1933C122.592 15.2793 122.403 15.6127 122.261 15.484C122.104 15.3367 121.881 15.3793 121.742 15.124C121.542 14.7473 121.863 14.402 122.12 14.2493C122.462 14.0447 122.773 14.1713 123.81 13.6627C124.848 13.1487 125.971 12.47 126.813 12.138C127.631 11.8173 129.862 11.1473 130.188 11.0753C130.513 11.0067 131.221 10.9427 131.334 10.8913C131.776 10.698 132.169 10.7053 132.311 10.678C132.51 10.6407 132.793 10.7107 132.962 10.728C133.165 10.75 133.229 10.888 133 11.0127ZM124.183 8.56799C124.481 8.41466 124.561 8.77199 124.663 8.77199C124.957 8.77533 125.223 8.80866 125.595 8.68266C125.88 8.58866 127.671 7.68866 128.28 7.53999C129.32 7.28733 130.776 6.87733 131.283 6.91132C131.457 6.92199 131.466 7.04066 131.296 7.13866C131.101 7.24666 131.051 7.51666 130.894 7.67066C130.793 7.77066 130.833 8.08333 130.745 8.19399C130.642 8.33066 130.487 8.40333 130.305 8.40133C130.021 8.39733 129.993 8.39733 129.811 8.39533C129.604 8.39333 129.182 8.66066 129.027 8.69732C128.973 8.70999 128.83 8.58866 128.695 8.55132C128.367 8.46133 127.14 8.95333 126.662 9.16333C126.167 9.38532 125.284 9.81999 124.841 10.2893C124.669 10.4707 124.495 10.8093 124.215 10.65C123.96 10.506 123.857 9.92266 123.79 9.66533C123.729 9.44666 123.758 8.78599 124.183 8.56799ZM122.587 1.57733C122.853 1.62333 123.349 2.83266 123.624 3.37533C123.715 3.55066 123.772 3.83399 123.827 4.28533C123.85 4.49666 124.046 4.89733 123.998 5.37666C123.972 5.61733 124.042 6.05133 123.956 6.25666C123.897 6.39666 123.671 6.53466 123.669 6.73466C123.669 6.85066 123.482 7.11333 123.367 7.22533C123.188 7.39866 123.075 7.86266 122.962 8.01399C122.748 8.29399 122.201 8.28533 121.814 8.39599C121.528 8.47933 121.185 8.65999 120.888 8.86732C120.588 9.07599 120.05 9.26266 119.676 9.51733C119.394 9.71399 118.807 10.3013 118.636 10.44C118.516 10.5373 118.314 10.6973 118.502 10.864C118.698 11.036 119.253 10.9453 119.996 11.2787C120.488 11.4987 120.922 11.802 121.171 12.2133C121.38 12.556 121.278 12.8547 121.048 12.9927C120.864 13.102 120.74 13.4327 120.348 13.7627C120.147 13.9307 120.004 14.358 119.687 14.6333C119.442 14.8413 118.564 15.7793 118.23 16.0327C118.044 16.172 118.048 16.4053 118.351 16.514C118.633 16.6167 119.504 17.236 119.791 17.6527C120.096 18.0953 120.231 19.0493 120.29 19.824C120.324 20.3367 119.976 21.1133 119.829 21.6467C119.755 21.916 119.702 22.0313 119.359 21.9687C119.266 21.9507 119.113 21.7433 118.968 21.594C118.758 21.3793 118.465 21.2927 118.321 21.1313C118.153 20.946 117.92 20.84 117.805 20.6593C117.668 20.4447 117.682 19.4647 117.755 19.0287C117.813 18.6627 117.874 18.4013 117.964 18.124C118.036 17.898 118.182 17.158 117.906 17.104C117.749 17.0747 117.166 17.3927 116.853 17.5447C116.505 17.714 116.113 17.9467 115.941 18.1427C115.749 18.3613 115.64 18.6627 115.607 18.8887C115.578 19.1107 115.421 19.2667 115.32 19.2113C115.112 19.0973 114.905 19.1947 114.752 19.2333C114.542 19.2887 114.403 19.094 114.164 18.998C113.753 18.838 113.943 18.9627 113.587 18.6667C113.365 18.48 112.868 17.7473 113.056 17.2293C113.157 16.9473 113.06 16.8187 113.347 16.5527C114.043 15.9053 114.313 15.5453 115.024 14.7733C115.393 14.3693 116.024 13.7087 116.409 13.388C116.565 13.2587 116.709 13.0267 116.826 12.756C116.899 12.5873 117.307 12.28 117.047 12.1073C116.765 11.9187 116.404 11.8993 116.199 11.9827C115.999 12.0647 115.872 11.8353 115.639 11.7067C115.428 11.5907 115.195 11.7487 115.032 11.63C114.835 11.4847 114.738 11.384 114.556 11.2533C114.386 11.134 114.069 10.9607 114.222 10.6413C114.339 10.402 114.243 10.06 114.502 9.86466C114.829 9.61466 115.055 9.36399 115.288 9.16666C115.73 8.78866 116.947 7.37466 117.767 6.43333C118.629 5.44533 120.209 3.09199 120.825 2.46199C120.955 2.33066 120.9 2.02133 121.555 1.67666C121.952 1.46999 122.267 1.52333 122.587 1.57733Z" fill="white"/>
</g>
</g>
<mask id="mask5_303_3658" style="mask-type:luminance" maskUnits="userSpaceOnUse" x="0" y="1" width="133" height="38">
<path d="M133 1.12H0V38.8807H133V1.12Z" fill="white"/>
</mask>
<g mask="url(#mask5_303_3658)">
<path fill-rule="evenodd" clip-rule="evenodd" d="M103.529 4.70266C103.581 4.94332 103.374 5.83332 103.124 6.59532C102.873 7.35666 102.817 7.61066 102.595 8.30332C102.495 8.60932 102.298 8.47132 102.185 8.59599C102.052 8.73532 102.338 8.48466 101.796 9.01599C101.465 9.33866 100.772 9.76665 100.583 9.97732C100.482 10.0893 100.27 10.032 100.23 9.81866C100.206 9.67932 100.207 9.54999 100.198 9.26466C100.184 9.02399 100.398 8.72799 100.446 8.60199C100.517 8.40466 100.635 8.00932 100.635 7.75466C100.642 7.27266 101.16 6.62799 101.562 6.14999C101.961 5.67399 103.529 4.70266 103.529 4.70266ZM101.019 12.25C101.233 12.0973 101.214 12.5073 101.415 12.466C101.539 12.4433 101.644 12.2873 101.727 12.188C101.797 12.1047 101.907 12.0413 101.979 12.404C102.021 12.602 102.057 12.7913 101.945 12.9273C101.774 13.1387 100.795 13.494 100.623 13.5653C100.502 13.6127 100.464 13.664 100.415 13.42C100.346 13.1067 100.714 12.9407 100.731 12.7987C100.761 12.54 100.844 12.376 101.019 12.25ZM103.142 16.6113C103.342 16.642 103.853 16.3507 104.068 16.1827C104.222 16.0633 104.363 16.2453 104.277 16.3993C104.183 16.5647 103.846 16.96 103.775 17.144C103.73 17.2507 103.616 17.3253 103.533 17.2967C103.367 17.2393 103.138 17.1373 102.981 17.0473C102.785 16.9373 102.962 16.5827 103.142 16.6113ZM98.5918 16.9093C98.657 16.7527 99.0526 17.2133 99.3047 17.2733C99.576 17.338 99.8826 17.464 100.22 17.5533C100.684 17.6753 101.177 17.9467 101.527 18.1913C101.77 18.3607 102.091 18.4273 102.368 18.712C102.475 18.8193 102.437 18.9687 102.352 19.066C102.251 19.18 102.193 19.3187 102.007 19.4453C101.524 19.7713 99.9151 20.6233 99.701 20.804C99.427 21.0353 98.9077 20.9093 98.7388 20.7493C98.5918 20.6113 98.4362 20.3987 98.393 20.11C98.3265 19.6567 98.2979 18.8033 98.3305 18.3947C98.3591 18.0067 98.371 17.4173 98.5918 16.9093ZM93.4261 17.144C93.4301 17.044 93.9388 16.8113 94.2221 16.6727C94.4974 16.5413 94.7508 16.4233 94.9908 16.3987C95.1105 16.3847 95.2468 16.4907 95.201 16.6427C95.1258 16.88 94.0239 17.9453 93.6382 18.3653C93.5564 18.4547 93.3995 18.136 93.3888 17.9367C93.3795 17.7107 93.4261 17.362 93.4261 17.144ZM92.5536 14.7833C92.7092 14.7647 92.7731 14.9913 92.646 15.18C92.5616 15.3053 92.3189 15.374 92.2643 15.3033C92.1732 15.184 92.2537 15.076 92.3953 14.9787C92.5184 14.8907 92.4379 14.7947 92.5536 14.7833ZM93.8184 10.604C94.1017 10.5787 94.1097 10.714 94.1277 10.7353C94.1988 10.8213 94.3498 11.1807 94.4588 11.306C94.5559 11.4207 94.6357 11.5513 94.7953 11.608C94.8784 11.636 94.8878 12.0193 94.8718 12.19C94.8565 12.374 94.4136 12.4493 94.1888 12.62C94.0472 12.732 93.9641 12.8233 93.873 12.9407C93.7599 13.0973 93.73 13.182 93.5717 13.3213C93.4434 13.4373 93.6003 14.0467 93.5052 14.3253C93.4613 14.4527 93.6302 14.44 93.7699 14.4453C93.8424 14.4453 93.865 14.3113 93.9554 14.2327C94.0711 14.1347 94.385 13.9087 94.5439 13.814C94.6543 13.7447 94.5074 13.36 94.6749 13.3213C94.788 13.294 94.7946 13.7133 94.8671 13.8767C94.919 14.004 95.1032 14.4793 95.0527 14.6713C95.0061 14.8407 94.9775 15.0293 94.919 15.1387C94.8605 15.25 94.1802 15.5453 94.25 15.8367C94.2893 16.008 94.794 15.77 95.0527 15.7887C95.2515 15.8053 95.6292 15.77 95.8035 15.77C95.9724 15.772 96.2995 16.026 96.4877 16.3593C96.5848 16.5313 95.8879 17.1427 95.5255 17.6087C95.1684 18.0713 93.7692 19.2593 93.4826 19.54C93.3383 19.6813 93.4294 20.206 93.3164 20.2733C93.1814 20.3587 93.059 20.2753 92.9087 20.3127C92.793 20.3373 92.5995 20.4153 92.5383 20.5487C92.4798 20.6753 92.4691 20.7747 92.5762 20.8313C92.7165 20.9033 94.1961 20.1567 94.9117 19.514C95.6572 18.842 96.6833 17.8067 97.0576 17.33C97.3463 16.9647 97.2345 15.4213 97.567 13.9093C97.718 13.2147 98.0538 10.9687 98.2919 9.90866C98.5672 8.69799 99.5115 6.81866 99.6917 6.53932C99.7642 6.42799 99.6864 6.31732 99.7516 6.21465C99.8267 6.10265 99.85 6.01866 100.106 6.13465C100.208 6.18266 100.372 6.37865 100.47 6.33732C100.692 6.24466 100.354 6.43466 101.159 5.65266C101.957 4.86799 102.725 4.47999 103.152 4.16066C103.581 3.83999 103.87 3.47599 104.081 3.37866C104.26 3.29866 104.423 3.37532 104.488 3.55466C104.558 3.73932 104.575 4.01066 104.48 4.34666C104.423 4.55999 104.263 4.85866 104.073 5.30532C103.997 5.48132 103.765 6.38132 103.601 6.87199C103.437 7.36399 103.241 8.53266 103.125 8.73599C102.954 9.04532 103.154 9.12199 103.031 9.45799C102.993 9.56799 102.767 10.082 102.624 10.372C102.479 10.67 102.06 11.6007 101.973 11.6827C101.864 11.7907 101.94 12.0153 101.996 12.1093C102.065 12.222 102.453 12.464 102.718 13.1093C102.801 13.3093 102.775 13.5147 102.613 13.7307C102.496 13.8853 102.035 14.0313 101.774 14.16C101.431 14.3253 100.069 15.0173 99.6086 15.394C99.5102 15.478 99.3426 15.4547 99.3851 15.3047C99.459 15.038 99.3712 14.2153 99.4696 13.934C99.6226 13.5153 99.5607 13.68 99.9045 13.2013C100.086 12.9473 100.47 12.0187 100.884 11.556C100.927 11.5113 101.011 11.2747 100.876 11.1887C100.763 11.1167 100.624 11.264 100.48 11.3107C100.393 11.3387 100.379 11.5513 100.277 11.5927C100.126 11.656 99.981 11.4967 99.8393 11.6153C99.7396 11.6967 99.556 12.1027 99.5175 12.376C99.5055 12.4887 99.3107 12.6387 99.2615 12.7133C99.2043 12.7987 99.2408 13.1653 99.2083 13.422C99.1717 13.73 98.8811 14.518 98.8093 14.8467C98.7654 15.0587 98.6783 15.5313 98.6989 15.808C98.7108 15.9653 98.782 16.074 98.895 16.0527C99.0221 16.0247 99.1105 15.808 99.2382 15.7873C99.3925 15.7607 99.9045 15.752 100.127 15.8133C100.232 15.8413 100.421 15.9727 100.763 15.9047C100.955 15.8687 101.254 15.7847 101.485 15.788C101.709 15.79 102.811 15.7887 103.277 15.7953C103.448 15.7973 104.4 15.3267 104.698 15.188C104.945 15.076 105.538 14.5187 105.943 14.0987C106.173 13.8607 106.71 13.6973 106.991 13.8293C107.132 13.8947 107.048 14.318 106.83 14.4787C106.658 14.6033 106.245 14.8247 106.045 14.9647C105.726 15.1867 105.213 15.8247 104.97 16.242C104.853 16.438 104.48 16.97 104.293 17.3093C104.254 17.376 104.254 17.5413 104.399 17.6927C104.541 17.8367 105.71 18.1493 106.257 18.3393C106.306 18.3567 106.382 18.4533 106.498 18.4127C106.574 18.3853 106.68 18.3453 106.694 18.5433C106.699 18.6393 107.466 18.6593 107.555 18.7233C107.847 18.9413 108.974 19.194 109.342 19.4247C109.479 19.5127 109.522 19.5473 109.648 19.6993C109.733 19.7987 109.943 19.7953 109.914 19.9427C109.882 20.098 107.712 20.6373 106.936 20.6C106.271 20.5667 105.582 20.4833 104.947 20.2627C104.387 20.0687 103.309 19.2533 103.15 19.2513C102.898 19.2473 102.924 19.304 102.752 19.4733C102.705 19.518 102.618 19.674 102.495 19.7947C102.35 19.9353 101.852 20.4253 101.749 20.564C101.605 20.762 101.266 20.838 101.053 21.01C100.896 21.134 100.592 21.472 100.409 21.5967C100.068 21.8273 99.6398 22.1113 99.3838 22.2207C99.1238 22.3307 98.6683 22.166 98.2812 22.1087C97.859 22.048 97.3436 21.6 97.1474 21.2153C97.0344 20.988 97.0384 20.4187 96.9798 20.0813C96.9373 19.854 97.1188 19.1553 96.9772 19.0613C96.781 18.9307 96.6759 19.0787 96.5808 19.184C96.4212 19.3507 96.235 19.6733 95.7343 20.0233C95.5162 20.1773 95.5148 20.284 95.2641 20.526C95.0773 20.708 94.6404 20.97 94.3345 21.2233C94.0385 21.4747 93.4952 21.6273 93.1435 21.6893C93.0164 21.7147 92.6613 21.9327 92.4605 22.0227C92.2763 22.1047 91.6904 22.31 91.3267 22.42C91.0979 22.4887 90.9929 21.9913 90.9397 21.6513C90.8878 21.3087 91.0188 20.956 91.2189 20.848C91.5501 20.6627 92.0735 20.0507 92.3608 19.7427C92.4359 19.6613 92.2883 19.4773 92.1526 19.4833C91.6864 19.5073 91.3905 19.304 91.3905 19.304C91.7323 19.2513 92.3115 19.2327 92.513 18.9773C92.5483 18.9393 92.6427 18.8507 92.6427 18.7387C92.6467 18.5727 92.5895 18.5313 92.5749 18.426C92.5616 18.346 92.672 18.2067 92.6347 18.1287C92.5955 18.0453 92.515 17.8433 92.3714 17.9287C92.0741 18.1047 91.5634 18.614 91.4258 18.88C91.34 19.0487 91.322 19.2327 91.322 19.2327C91.2376 19.3167 91.082 19.2433 91.082 19.2433C90.8093 19.5227 90.3804 19.9993 90.1662 20.1813C90.0093 20.3173 89.7885 20.4167 89.6143 20.3327C89.4042 20.2287 89.2625 19.7887 89.1674 19.6453C89.087 19.5173 89.2027 19.334 89.3297 19.252C89.5232 19.1273 90.0286 18.8633 90.1702 18.7373C90.3285 18.5993 91.0015 17.9273 91.1571 17.8013C91.4078 17.5993 91.7569 17.3707 91.9571 17.158C92.0987 17.0033 91.9232 16.8167 91.8181 16.9013C91.7323 16.9707 91.6053 16.942 91.5508 16.8153C91.4145 16.4933 91.1258 15.7033 91.1312 15.4053C91.1325 15.2213 91.1352 15.12 91.205 14.9527C91.4231 14.4473 92.1466 13.4973 92.3714 13.3247C92.5842 13.158 92.4572 12.9967 92.3893 12.8727C92.3062 12.714 91.8906 12.2 91.9059 12.016C91.9278 11.7407 92.3368 11.4973 92.7345 11.2193C93.1355 10.9333 93.5351 10.6293 93.8184 10.604ZM95.1704 6.35732C95.2741 6.14466 95.965 6.09866 96.2743 6.15532C96.5562 6.21332 96.8927 6.76665 97.0005 7.03065C97.0696 7.20065 97.186 7.56132 97.1315 7.69799C97.059 7.88132 96.765 7.88132 96.4804 7.96066C96.378 7.98666 96.1127 8.08466 95.9245 8.17866C95.6844 8.30399 95.3878 8.56399 95.2841 8.66732C95.1684 8.77932 94.9775 8.82932 94.8864 8.80466C94.8279 8.78999 94.8306 8.62666 94.929 8.52332C95.1145 8.32599 95.3499 7.77599 95.2954 7.56199C95.2708 7.45199 95.1577 7.40532 95.1471 7.06466C95.1431 6.89266 95.0833 6.53332 95.1704 6.35732ZM95.0746 2.54466C95.189 2.51666 95.2668 2.71066 95.4424 2.79066C95.5674 2.84799 95.6219 2.96132 95.7489 2.96399C95.9232 2.96466 95.9291 3.23466 96.0269 3.32066C96.1114 3.39199 96.2231 3.66199 96.3188 3.75066C96.4305 3.85266 96.4711 3.98132 96.5835 4.06532C96.7059 4.15799 96.7391 4.47732 96.5928 4.66066C96.4771 4.80199 96.2929 4.99199 96.0488 5.06532C95.8227 5.13266 95.3227 5.14866 95.042 5.32132C94.8133 5.45999 94.391 5.79466 94.1536 6.04866C93.712 6.52266 93.208 7.35332 92.8043 8.05666C92.529 8.53399 91.5042 10.2927 91.199 10.9833C91.072 11.2707 90.417 12.6707 90.1862 13.1793C89.8796 13.8413 89.1328 15.2847 88.9819 15.6727C88.7764 16.196 88.8948 16.634 88.7531 16.832C88.6234 17.016 88.3728 16.9973 88.2151 16.8827C88.0629 16.768 87.8161 16.536 87.7556 16.2953C87.7038 16.0833 87.8141 15.588 87.8813 15.334C87.9252 15.1647 88.015 15.0507 88.1566 14.9847C88.2411 14.9427 88.3827 14.984 88.5071 14.9313C88.6035 14.8913 89.0085 14.214 89.214 13.8347C89.4826 13.3327 90.1935 11.8247 90.3598 11.4687C90.4608 11.252 90.8692 10.3293 91.1704 9.76399C91.3586 9.41199 92.281 6.87466 92.7278 6.25666C92.8302 6.11466 93.3031 5.10666 93.5943 4.65266C93.855 4.24332 94.9044 2.58399 95.0746 2.54466Z" fill="white"/>
</g>
<mask id="mask6_303_3658" style="mask-type:luminance" maskUnits="userSpaceOnUse" x="0" y="1" width="133" height="38">
<path d="M133 1.12H0V38.8807H133V1.12Z" fill="white"/>
</mask>
<g mask="url(#mask6_303_3658)">
<path fill-rule="evenodd" clip-rule="evenodd" d="M55.1105 19.03C55.195 19.032 55.2508 19.1027 55.2768 19.244C55.3133 19.4413 55.2881 19.4413 55.3147 19.6107C55.3406 19.778 55.2768 19.8213 55.3087 19.9613C55.3499 20.1293 55.334 20.2253 55.3473 20.3987C55.3719 20.6927 55.3825 20.9607 55.324 21.1447C55.2661 21.324 55.336 21.3813 55.334 21.564C55.3306 21.7327 55.2329 22 55.2136 22.2533C55.1956 22.4633 55.4025 22.6787 55.4005 22.9313C55.3998 23.084 55.3306 23.084 55.1897 23.068C55.0347 23.0533 54.8518 22.9527 54.7993 22.8247C54.7428 22.6953 54.5799 22.2747 54.5818 22.1193C54.5838 21.9493 54.6331 21.6413 54.6603 21.4433C54.6916 21.234 54.637 20.9827 54.6404 20.782C54.6424 20.544 54.9276 20.296 54.9296 20.054C54.9336 19.8153 54.8791 19.7887 54.8818 19.492C54.8851 19.1973 54.9981 19.03 55.1105 19.03ZM57.4201 8.098C57.4088 7.94466 57.968 7.6 58.244 7.42066C58.4967 7.256 58.6915 7.02267 58.907 6.908C59.2189 6.74266 59.5002 6.79466 59.6811 6.806C59.9617 6.82266 60.3028 6.67133 60.4525 6.858C60.5901 7.028 60.5496 7.168 60.5023 7.36333C60.4671 7.51733 59.6571 8.78933 59.2728 9.24733C58.8718 9.72933 57.8769 10.8713 57.7798 10.9307C57.6648 11 57.5737 10.8327 57.5444 10.5913C57.5185 10.3807 57.4892 10.2027 57.5364 10.0987C57.5936 9.97333 57.5231 9.89266 57.4979 9.77466C57.4726 9.646 57.3443 9.18067 57.3695 8.83133C57.3868 8.57733 57.4387 8.32533 57.4201 8.098ZM50.7342 12.154C50.7694 12.068 51.1425 11.878 51.3127 11.7387C51.4311 11.6433 51.723 11.448 51.8374 11.3507C52.1626 11.072 52.1213 11.1253 52.4193 10.922C52.5589 10.824 52.7571 10.7567 52.7824 11.0527C52.8116 11.4053 52.7697 12.036 52.779 12.2627C52.7917 12.4867 52.7338 12.544 52.7185 12.7253C52.7059 12.8807 52.7711 12.966 52.783 13.066C52.7977 13.1633 52.7651 13.1913 52.7385 13.374C52.7245 13.4867 52.8063 13.656 52.7059 13.8513C52.6041 14.0467 52.0662 14.4773 51.8972 14.5313C51.7277 14.586 51.8427 14.2793 51.5647 14.0767C51.2868 13.876 51.2189 13.5927 51.0953 13.396C50.943 13.15 50.9882 13.03 50.808 12.8147C50.6278 12.6007 50.6304 12.3913 50.7342 12.154ZM47.1984 8.75C47.3699 8.69733 47.7077 9.358 48.0382 9.71533C48.3707 10.0727 48.8675 10.5207 48.9692 10.6127C49.081 10.7113 49.3423 11.1087 49.4401 11.112C49.4906 11.112 49.8111 10.836 50.0778 10.654C50.3598 10.46 50.9995 10.0213 51.1957 9.89333C51.3533 9.78733 51.8427 9.432 52.1433 9.20133C52.4445 8.97066 53.0989 8.544 53.1222 8.482C53.1341 8.44466 53.1069 8.298 53.2086 8.01933C53.2725 7.846 53.1341 7.77133 53.1288 7.738C53.1168 7.666 53.2026 7.45533 53.2166 7.34333C53.2492 7.134 53.1986 6.70133 53.2279 6.61266C53.2997 6.38866 53.3257 5.91933 53.335 5.786C53.3682 5.4 53.3223 5.23533 53.3715 5.08C53.5371 4.568 53.5524 4.15466 53.5139 3.77333C53.4833 3.454 53.4068 3.42266 53.4966 2.93066C53.5797 2.486 53.9807 2.014 54.1636 1.8C54.2853 1.66066 54.6483 1.63666 54.9263 1.90666C55.0287 2.00866 55.2748 2.12266 55.5108 2.36333C55.7369 2.59933 56.1665 3.12733 56.3135 3.26C56.5489 3.47666 57.0051 4.05666 57.2964 4.42666C57.5178 4.70733 57.6369 5.21933 57.6621 5.402C57.7014 5.68066 57.6415 6.04933 57.8297 6.086C58.101 6.138 58.6284 5.68133 59.4716 5.52333C60.0315 5.41666 60.9459 5.442 61.5504 5.45C61.817 5.454 62.3357 5.42933 62.379 5.554C62.4601 5.78333 62.3198 6.48 61.9773 7.25667C61.6747 7.94067 61.5092 8.07133 61.1627 8.51C60.8774 8.874 60.8362 9.104 60.3175 9.78C59.8174 10.4367 58.8245 11.3947 59.0194 11.58C59.1863 11.7373 59.6777 11.5033 59.7595 11.872C59.826 12.1673 59.5009 12.3593 59.3838 12.652C59.2262 13.0607 59.3213 13.3553 58.9542 13.5353C58.6164 13.698 58.4182 13.6407 58.2054 13.78C57.9521 13.9453 58.0492 14.3693 57.8869 14.6753C57.5989 15.2207 57.7466 15.7427 57.5717 16.1833C57.3077 16.8433 57.3715 16.586 57.1561 17.276C57.1075 17.4247 57.0024 18.1827 56.9426 18.4473C56.8921 18.674 56.7192 18.8553 56.7112 18.938C56.6932 19.17 56.5788 19.7687 56.5888 19.836C56.6021 19.9213 56.4445 20.034 56.4585 20.1867C56.4711 20.3293 56.3208 20.6827 56.2949 20.93C56.1918 21.9047 56.2776 22.034 56.3168 22.5767C56.3554 23.1187 56.2523 23.2373 56.1938 23.38C56.1419 23.512 55.9398 23.5447 55.7988 23.584C55.6452 23.626 55.6565 23.7927 55.5601 23.8253C55.445 23.8627 55.2828 23.742 55.2296 23.8353C55.1225 24.0247 55.0061 24.2647 54.8645 24.276C54.7188 24.2867 54.6696 24.2033 54.6284 23.9787C54.6171 23.9187 54.4768 23.904 54.4515 23.7807C54.4083 23.5787 54.3657 23.702 54.1855 23.3727C54.0372 23.098 54.1642 23.0007 54.1483 22.7547C54.1363 22.564 53.8836 22.3913 53.9474 22.09C53.9807 21.932 53.9375 21.6053 53.9042 21.336C53.867 21.0253 53.8543 20.8107 53.8543 20.73C53.8577 20.5887 53.8111 20.7267 53.8477 20.2807C53.8809 19.8887 53.7586 19.5613 53.7599 19.4493C53.7619 19.3087 53.706 19.21 53.595 19.21C53.5039 19.208 53.4573 19.26 53.4095 19.484C53.3609 19.7087 53.3556 20.1607 53.3842 20.432C53.4088 20.6833 53.5677 21.3887 53.579 21.6133C53.595 21.9153 53.5617 21.768 53.573 22.1747C53.5757 22.378 53.6681 22.87 53.74 23.1407C53.8118 23.412 53.9681 23.402 54.0186 23.5893C54.0725 23.788 54.125 23.9573 54.1942 24.07C54.2833 24.2193 54.6257 24.3 54.5832 24.3853C54.5306 24.4887 54.3817 24.692 54.27 24.7053C54.0425 24.7293 53.6309 24.2613 53.5484 24.054C53.4008 23.686 53.3017 22.3707 53.2252 21.8907C53.0909 21.0867 52.9546 20.73 52.8575 19.832C52.7564 18.9027 52.5343 16.4747 52.5403 15.96C52.5443 15.622 52.3208 15.5073 52.1985 15.4993C52.0502 15.492 51.862 15.6507 51.85 15.812C51.8367 16.008 51.8819 16.4733 51.6758 16.5547C51.5082 16.622 50.3039 16.286 49.3716 15.6687C47.8454 14.6573 47.3028 12.1547 47.0474 11.6733C46.7036 11.0213 46.6949 9.66666 46.7674 9.40333C46.8393 9.13533 46.9423 8.82933 47.1984 8.75Z" fill="white"/>
</g>
</svg>
