<svg width="319" height="58" viewBox="0 0 319 58" fill="none" xmlns="http://www.w3.org/2000/svg">
<g clip-path="url(#clip0_396_1991)">
<path d="M60.3991 31.31L48.0691 9.76L53.4991 0H39.9991L27.8691 21.81H41.3591L53.6891 43.38L60.3991 31.31Z" fill="white"/>
<path d="M24.01 0.02L11.29 21.81L0 21.85L6.75 33.54L31.88 33.51L25.06 21.68L37.7 0L24.01 0.02Z" fill="white"/>
<path d="M15.2905 47.77L40.1105 47.8L45.8505 57.38L52.5905 45.69L39.7705 24.26L33.0205 35.95L8.23047 35.94L15.2905 47.77Z" fill="white"/>
<path d="M73.4902 25.77L78.9102 5.12H87.9202C89.7602 5.12 91.1702 5.33 92.1702 5.75C93.1702 6.17 93.8702 6.81 94.2702 7.68C94.6702 8.55 94.7502 9.45999 94.5002 10.4C94.2702 11.28 93.7702 12.11 93.0102 12.9C92.2502 13.67 91.2502 14.3 90.0002 14.78C91.3602 15.14 92.3102 15.77 92.8502 16.65C93.4002 17.54 93.5202 18.58 93.2002 19.78C92.9502 20.75 92.4702 21.64 91.7702 22.49C91.0802 23.31 90.3202 23.95 89.5002 24.41C88.6802 24.86 87.7202 25.2 86.6102 25.44C85.4902 25.67 84.1702 25.78 82.6502 25.78H73.4902V25.77ZM79.8202 13.79H85.0102C86.4202 13.79 87.4502 13.71 88.1102 13.55C88.9802 13.34 89.6702 12.99 90.2102 12.52C90.7502 12.03 91.1102 11.43 91.3002 10.71C91.4702 10.03 91.4402 9.42999 91.2002 8.89999C90.9602 8.36999 90.5002 8.02 89.8402 7.83C89.1802 7.64 87.9902 7.54 86.2602 7.54H81.4602L79.8202 13.79ZM77.3102 23.34H83.2802C84.3102 23.34 85.0402 23.3 85.4702 23.24C86.2302 23.12 86.9002 22.93 87.4602 22.67C88.0202 22.41 88.5302 22.03 88.9702 21.52C89.4202 21.02 89.7302 20.43 89.9002 19.78C90.1002 19 90.0502 18.33 89.7402 17.76C89.4302 17.2 88.9002 16.78 88.1502 16.56C87.3902 16.33 86.2502 16.21 84.7302 16.21H79.1702L77.3002 23.33L77.3102 23.34Z" fill="white"/>
<path d="M93.3811 25.77L108.001 5.12H111.471L115.871 25.77H112.251L111.111 19.52H100.991L96.7511 25.77H93.3711H93.3811ZM102.531 17.29H110.711L109.711 11.57C109.411 9.82999 109.211 8.38 109.111 7.25C108.431 8.59 107.661 9.91999 106.751 11.24L102.531 17.3V17.29Z" fill="white"/>
<path d="M118.391 25.77L123.811 5.12H127.071L135.431 21.33L139.681 5.12H142.731L137.311 25.77H134.051L125.691 9.55L121.431 25.77H118.391Z" fill="white"/>
<path d="M142.529 25.77L147.959 5.12H151.139L148.459 15.34L163.059 5.12H167.359L155.089 13.5L162.389 25.77H158.189L152.389 15.34L147.599 18.62L145.719 25.77H142.529Z" fill="white"/>
<path d="M165.02 25.77L170.45 5.12H182.83C185.13 5.12 186.84 5.29 187.97 5.63C189.08 5.96 189.9 6.59 190.41 7.5C190.91 8.42 190.99 9.53 190.64 10.84C190.35 11.99 189.8 12.97 189.01 13.81C188.22 14.63 187.26 15.32 186.13 15.83C185.41 16.16 184.47 16.44 183.3 16.66C184.12 16.91 184.69 17.17 185.03 17.42C185.26 17.59 185.56 17.94 185.93 18.5C186.3 19.06 186.54 19.49 186.64 19.79L188.67 25.77H180.28L177.96 19.46C177.67 18.63 177.37 18.11 177.04 17.87C176.59 17.54 176.02 17.38 175.35 17.38H174.7L172.5 25.77H165.03H165.02ZM175.73 13.47H178.86C179.19 13.47 179.87 13.37 180.89 13.19C181.4 13.1 181.86 12.88 182.26 12.54C182.66 12.2 182.92 11.8 183.04 11.35C183.21 10.7 183.09 10.18 182.7 9.83C182.3 9.47 181.43 9.29 180.08 9.29H176.82L175.73 13.47Z" fill="white"/>
<path d="M206.699 22.37H198.259L196.199 25.76H188.609L203.049 5.10999H211.189L214.769 25.76H206.999L206.699 22.37ZM206.329 17.9L205.639 10.48L201.049 17.9H206.329Z" fill="white"/>
<path d="M222.609 5.12H230.049L227.999 12.92L237.839 5.12H247.699L236.919 12.9L242.659 25.77H233.509L230.689 17.3L225.959 20.73L224.629 25.77H217.189L222.609 5.12Z" fill="white"/>
<path d="M248.109 5.12H256.359L259.399 12.06L266.059 5.12H274.249L261.769 17.12L259.499 25.77H252.059L254.329 17.12L248.109 5.12Z" fill="white"/>
<path d="M283.73 22.37H275.3L273.23 25.76H265.65L280.08 5.10999H288.23L291.8 25.76H284.04L283.73 22.37ZM283.38 17.9L282.67 10.48L278.09 17.9H283.38Z" fill="white"/>
<path d="M295.59 5.12H318.19L316.86 10.2H309.28L305.19 25.78H297.74L301.83 10.2H294.25L295.58 5.12H295.59Z" fill="white"/>
<path fill-rule="evenodd" clip-rule="evenodd" d="M280.68 36.42L278.92 34.67L280.68 32.9L282.44 34.67L280.68 36.42Z" fill="white"/>
<path fill-rule="evenodd" clip-rule="evenodd" d="M201.551 51.81L203.321 53.57L205.081 51.81L203.321 50.05L201.551 51.81ZM285.451 37.91L283.691 36.15L281.921 37.91L283.691 39.67L285.451 37.91ZM227.431 46.36H221.421C220.231 43.63 223.451 43.23 223.451 43.23C225.251 43.19 226.211 41.66 226.211 41.66C224.531 40.33 224.721 37.59 224.721 37.59C224.201 40.53 220.591 41.02 220.591 41.02C216.101 41.47 217.901 46.39 217.901 46.39H212.871V40.89C211.851 43.26 209.251 44.25 209.251 44.25L209.971 45.11V46.35H199.541V39.09C198.631 40.73 196.121 41.36 196.121 41.36L196.661 42.23V42.68C190.581 40.99 190.331 46.39 190.331 46.39H187.791C187.861 47.43 184.091 48.93 184.091 48.93H231.911C228.961 48.3 227.441 46.35 227.441 46.35L227.431 46.36ZM194.621 46.51C194.621 46.51 192.521 45.28 195.071 44.24C195.071 44.24 196.611 43.74 197.201 45.38C197.201 45.38 196.841 47.1 194.621 46.51ZM187.251 40.27L185.491 38.52L183.721 40.27L185.491 42.03L187.251 40.27ZM191.741 40.27L189.981 38.52L188.221 40.27L189.981 42.03L191.741 40.27ZM279.191 37.91L277.441 36.15L275.681 37.91L277.441 39.67L279.191 37.91ZM233.471 41.99C233.471 41.99 231.441 43.6 231.671 45.4C231.671 45.4 234.861 45.35 235.091 48.18C235.091 48.18 235.261 51.83 229.931 52.29L229.991 52.41C229.991 52.41 238.041 53.23 238.211 47.2C238.211 47.2 238.041 41.36 233.461 41.99H233.471ZM295.751 51.81L297.511 53.57L299.271 51.81L297.511 50.05L295.751 51.81ZM300.531 44.27L301.251 45.14V46.4L294.251 46.38V40.86C293.241 43.23 290.631 44.22 290.631 44.22L291.361 45.08V46.35H283.661V44.77C283.661 44.77 285.161 43.43 286.201 43.6L286.261 43.04C286.261 43.04 284.521 42.22 283.541 42.34C283.541 42.34 282.961 40.54 280.871 40.54C278.781 40.54 278.201 42.34 278.201 42.34C277.221 42.22 275.491 43.04 275.491 43.04L275.541 43.6C276.581 43.43 278.091 44.77 278.091 44.77V46.39H269.981C269.981 46.39 270.671 41.29 264.311 41.29H252.961C252.961 41.29 253.311 40.14 254.641 40.14C254.641 40.14 260.141 38.98 258.341 34.98C258.341 34.98 256.371 30.93 249.891 32.84C249.891 32.84 251.861 34.98 251.861 35.44C251.861 35.44 254.931 34.92 255.281 36.14C255.281 36.14 255.921 37.53 252.501 38.28C252.501 38.28 247.121 39.67 248.561 43.9H263.921C263.921 43.9 266.171 43.9 266.171 45.06C266.171 45.06 266.221 46.39 263.791 46.39H243.471V48.92H304.141V40.91C303.131 43.28 300.531 44.27 300.531 44.27ZM280.991 45.33C280.271 45.33 279.691 44.75 279.691 44.03C279.691 43.31 280.271 42.74 280.991 42.74C281.711 42.74 282.281 43.32 282.281 44.03C282.281 44.74 281.701 45.33 280.991 45.33ZM206.041 51.81L207.791 53.57L209.551 51.81L207.791 50.05L206.041 51.81ZM287.701 51.81L289.461 53.57L291.221 51.81L289.461 50.05L287.701 51.81ZM283.211 51.81L284.971 53.57L286.731 51.81L284.971 50.05L283.211 51.81Z" fill="white"/>
</g>
<defs>
<clipPath id="clip0_396_1991">
<rect width="318.19" height="57.38" fill="white"/>
</clipPath>
</defs>
</svg>
