<svg width="145" height="40" viewBox="0 0 145 40" fill="none" xmlns="http://www.w3.org/2000/svg">
<g clip-path="url(#clip0_385_1308)">
<path d="M70.3077 26.7847C69.0301 27.7969 67.4928 28.4287 65.8721 28.6078C64.2515 28.7869 62.6131 28.5059 61.145 27.7972C59.6769 27.0884 58.4385 25.9806 57.5719 24.6007C56.7054 23.2209 56.2457 21.625 56.2457 19.9961C56.2457 18.3672 56.7054 16.7713 57.5719 15.3915C58.4385 14.0117 59.6769 12.9039 61.145 12.1951C62.6131 11.4864 64.2515 11.2054 65.8721 11.3845C67.4928 11.5636 69.0301 12.1954 70.3077 13.2075L70.3761 13.2712L74.0719 9.58684L73.9849 9.51071C71.471 7.32641 68.2518 6.12283 64.9201 6.1215C62.6779 6.119 60.4685 6.65875 58.4805 7.69464C56.4925 8.73053 54.7851 10.2318 53.5041 12.0701C52.223 13.9085 51.4065 16.0293 51.1242 18.2514C50.8419 20.4735 51.1023 22.7308 51.883 24.8306C52.6638 26.9303 53.9417 28.81 55.6077 30.3092C57.2736 31.8083 59.2781 32.8823 61.4498 33.4394C63.6215 33.9965 65.896 34.0201 68.0788 33.5083C70.2617 32.9965 72.2881 31.9643 73.9849 30.5002L74.0719 30.4117L70.3761 26.7241L70.3077 26.7847ZM79.077 33.0972H84.3914V6.8888H79.077V33.0972ZM105.318 23.6378C105.122 23.2898 96.0527 6.8422 96.0527 6.8422H90.8751V33.0522H96.1616V17.3983L105.31 33.2635L114.415 17.3983V33.0522H119.702V6.84533H114.517C114.517 6.84533 105.498 23.293 105.304 23.6409M141.541 19.6692C142.48 19.1235 143.258 18.3411 143.799 17.4004C144.339 16.4596 144.623 15.3936 144.621 14.3088C144.621 9.73442 141.493 6.89657 136.466 6.89657H125.907V33.0988H136.902C141.877 33.0988 144.987 30.1973 144.987 25.5079C145.048 24.3048 144.754 23.1103 144.142 22.0725C143.529 21.0346 142.624 20.199 141.541 19.6692ZM131.211 11.6387H136.078C138.099 11.6387 139.321 12.7167 139.321 14.5247C139.321 16.3327 138.102 17.403 136.078 17.403H131.217L131.211 11.6387ZM136.396 28.3582H131.217V22.1886H136.402C136.824 22.1618 137.248 22.2217 137.645 22.3646C138.043 22.5076 138.408 22.7304 138.716 23.0195C139.024 23.3086 139.27 23.6577 139.438 24.0454C139.606 24.433 139.693 24.851 139.693 25.2734C139.693 25.6958 139.606 26.1137 139.438 26.5014C139.27 26.889 139.024 27.2382 138.716 27.5273C138.408 27.8163 138.043 28.0392 137.645 28.1821C137.248 28.325 136.824 28.385 136.402 28.3582" fill="white"/>
<path d="M39.2822 0.75V39.25H0.75V0.75H39.2822Z" stroke="white" stroke-width="1.5"/>
<path d="M25.5674 8.30981L33.8564 19.2473H14.4512L6.1709 8.30981H25.5674Z" stroke="white" stroke-width="1.5"/>
<path d="M35.3649 19.9969H14.0791L4.66602 32.4449H25.941L35.3649 19.9969Z" fill="white"/>
</g>
<defs>
<clipPath id="clip0_385_1308">
<rect width="145" height="40" fill="white"/>
</clipPath>
</defs>
</svg>
