<svg width="241" height="40" viewBox="0 0 241 40" fill="none" xmlns="http://www.w3.org/2000/svg">
<g clip-path="url(#clip0_385_1343)">
<path fill-rule="evenodd" clip-rule="evenodd" d="M107.569 29.917V10.1736H112.196V26.7925H117.245V29.917H107.569ZM53.1742 29.917V21.3736H48.1553V29.917H43.498V10.1736H48.1553V18.3245H53.1742V10.1736H57.8314V29.917H53.1742ZM66.543 30.2038C62.0365 30.2038 59.7154 26.7925 59.7154 22.1736C59.7154 17.5547 62.0817 14.1434 66.543 14.1434C71.0344 14.1434 73.4007 17.5094 73.4007 22.1736C73.3706 26.7925 71.0344 30.2038 66.543 30.2038ZM66.543 16.9509C64.5686 16.9509 64.1767 19.366 64.1767 22.1283C64.1767 24.9057 64.6138 27.1849 66.543 27.1849C68.5024 27.1849 68.9093 24.9509 68.9093 22.1283C68.9093 19.366 68.5024 16.9509 66.543 16.9509ZM83.7702 19.0792C83.7702 17.9925 83.2879 16.9208 81.4793 16.9208C80.59 16.9208 80.1077 17.0717 79.5953 17.2377V29.917H75.0436V15.3057C76.6111 14.6264 78.7814 14.1434 81.5546 14.1434C86.453 14.1434 88.2164 16.2264 88.2164 19.034V29.8868H83.7702V19.0792ZM96.5663 36.4528C94.2 36.4528 92.0296 36.0151 90.7937 35.2906L91.9543 32.4075C92.9189 32.9208 94.3206 33.3283 95.7675 33.3283C98.1338 33.3283 98.9778 32.2113 98.9778 30.4302V29.5547C98.4653 29.8415 97.5761 30.0377 96.295 30.0377C92.6024 30.0377 89.9045 27.1849 89.9045 22.566C89.9045 17.3887 92.5571 14.1434 97.8625 14.1434C100.229 14.1434 102.279 14.6113 103.364 15.3057V30.0377C103.364 34.4453 100.545 36.4528 96.5663 36.4528ZM98.9778 16.9811C98.6161 16.8302 98.179 16.7396 97.5761 16.7396C95.2852 16.7396 94.3206 18.5962 94.3206 22.3245C94.3206 25.8264 95.24 27.5019 97.5007 27.5019C98.1036 27.5019 98.6161 27.3509 98.9778 27.1396V16.9811ZM140.772 30.1887C136.281 30.1887 133.945 26.7774 133.945 22.1585C133.945 17.5547 136.326 14.1283 140.772 14.1283C145.279 14.1283 147.645 17.5094 147.645 22.1585C147.6 26.7774 145.234 30.1887 140.772 30.1887ZM140.772 16.9509C138.813 16.9509 138.406 19.3509 138.406 22.1283C138.406 24.8906 138.843 27.1849 140.772 27.1849C142.747 27.1849 143.139 24.9359 143.139 22.1283C143.139 19.3509 142.747 16.9509 140.772 16.9509ZM158.527 19.0792C158.527 17.9925 158.045 16.9057 156.236 16.9057C155.347 16.9057 154.864 17.0717 154.352 17.2226V29.917H149.846V15.3057C151.413 14.6113 153.583 14.1283 156.357 14.1283C161.255 14.1283 163.018 16.2264 163.018 19.034V29.8717H158.527V19.0792ZM171.368 36.4679C169.002 36.4679 166.832 36.0302 165.596 35.3057L166.756 32.4075C167.721 32.9359 169.123 33.3434 170.569 33.3434C172.936 33.3434 173.78 32.2113 173.78 30.4453V29.5547C173.252 29.8415 172.378 30.0377 171.097 30.0377C167.389 30.0377 164.706 27.2 164.706 22.5811C164.706 17.3887 167.359 14.1434 172.649 14.1434C175.031 14.1434 177.035 14.6264 178.151 15.3057V30.0377C178.151 34.4604 175.347 36.4679 171.368 36.4679ZM173.78 16.9962C173.418 16.8302 172.981 16.7547 172.378 16.7547C170.087 16.7547 169.123 18.5962 169.123 22.3396C169.123 25.8264 170.042 27.517 172.288 27.517C172.89 27.517 173.418 27.3509 173.78 27.1547V16.9962ZM132.226 22.4604V22.9434H122.837C122.877 23.2151 122.917 23.4918 122.957 23.7736C123.394 26.1434 124.434 27.2 126.725 27.2C128.534 27.2 129.89 26.7472 130.734 26.3547L131.744 29.117C130.538 29.7208 128.805 30.2491 126.198 30.2491C121.465 30.2491 118.737 27.1094 118.737 22.1736C118.737 17.3132 121.269 14.1887 125.715 14.1887C130.177 14.1887 132.468 17.2377 132.226 22.4604ZM128.082 20.7245C128.082 18.0377 127.162 16.8302 125.519 16.8302C123.831 16.8302 122.746 18.1132 122.671 20.7245H128.082ZM192.484 30.2038C190.238 30.2038 188.339 29.7962 187.103 29.117V10.9736C188.188 10.3245 190.072 9.8868 192.243 9.8868C196.568 9.8868 198.905 11.9396 198.905 14.8226C198.905 17.6302 196.81 19.0792 195.046 19.3962V19.4415C196.9 19.8038 199.628 21.5245 199.628 24.5434C199.628 28.5585 196.568 30.2038 192.484 30.2038ZM192.198 11.4113C191.158 11.4113 190.389 11.5774 189.59 11.8491V18.883H190.871C194.971 18.883 196.327 17.6 196.327 15.034C196.327 12.6189 194.895 11.4113 192.198 11.4113ZM190.917 20.2113H189.59V28.0755C190.359 28.3925 191.158 28.5132 192.363 28.5132C194.926 28.5132 196.93 27.4717 196.93 24.6189C196.975 21.5245 195.167 20.2113 190.917 20.2113ZM207.3 30.2038C203.275 30.2038 201.391 28.4377 201.391 25.6302C201.391 21.5245 205.25 20.3321 210.028 19.8491V18.883C210.028 16.5132 208.581 15.7887 206.606 15.7887C205.129 15.7887 203.758 16.3472 202.884 16.7547L202.281 15.2604C203.155 14.7925 204.888 14.0981 207.013 14.0981C209.907 14.0981 212.394 15.3509 212.394 19.1245V29.0415C211.264 29.7962 209.47 30.2038 207.3 30.2038ZM210.073 21.1321C206.169 21.6151 203.848 22.4604 203.848 25.5849C203.848 27.834 205.205 28.7547 207.541 28.7547C208.505 28.7547 209.47 28.6038 210.103 28.2415V21.1321H210.073ZM224.09 18.8075C224.09 17.3585 223.487 15.7887 220.834 15.7887C219.387 15.7887 218.709 15.9849 217.91 16.3472V29.917H215.378V15.2302C216.735 14.5811 218.543 14.1434 221.03 14.1434C225.326 14.1434 226.622 16.5132 226.622 18.717V29.8868H224.09V18.8075ZM240.985 29.9321H238.137L232.199 21.9321H232.153V29.9321H229.666V10.1736H232.153V21.6151H232.199L237.745 14.4604H240.383L234.535 21.6906L240.985 29.9321Z" fill="white"/>
<path d="M34.5001 10.083V14.5509C32.8874 14.3849 31.32 14.0981 29.7676 13.7057C26.0297 12.7396 22.6084 11.0491 19.5639 8.72453C17.1976 6.91321 15.1026 4.78491 13.3844 2.38491L17.3182 0.135849C20.6943 4.66415 25.4268 7.92453 30.9733 9.40377C32.164 9.72075 33.3396 9.93208 34.5454 10.083H34.5001ZM27.8233 21.1321C23.1661 19.8491 18.8404 17.7208 14.982 14.8226C11.7717 12.4226 8.99845 9.52453 6.75274 6.23396L10.6413 3.98491C12.6157 6.76226 14.9368 9.20755 17.6648 11.2453C21.0409 13.8264 24.8541 15.6679 28.9989 16.8C30.8075 17.3132 32.6463 17.6 34.5303 17.7962V22.2943C32.2846 22.0981 30.0841 21.7358 27.8233 21.1321ZM4.02472 7.83396C6.46637 11.5321 9.55612 14.7019 13.098 17.3887C17.2729 20.5736 21.9603 22.8528 27.0245 24.2264C29.5113 24.8604 31.9982 25.2981 34.5755 25.4642V29.9623C31.6365 29.766 28.7577 29.283 25.8639 28.5132C20.2421 27.034 15.0272 24.4679 10.37 20.966C6.3458 17.917 2.93954 14.2642 0.121094 10.083L4.02472 7.83396Z" fill="white"/>
<path d="M0.134766 30.0075C2.93814 25.8264 6.35947 22.1736 10.3686 19.1245C15.0258 15.6226 20.2407 13.1019 25.8625 11.5774C28.7563 10.8075 31.6502 10.3245 34.5741 10.1283V14.6264C32.0119 14.7924 29.525 15.2302 27.0231 15.8641C21.974 17.1924 17.2715 19.517 13.0966 22.6566C9.56979 25.3434 6.48004 28.5132 4.02332 32.2113L0.134766 30.0075ZM34.544 17.7962V22.2943C32.6549 22.4553 30.8061 22.7774 28.9975 23.2604C24.8678 24.3924 21.0546 26.234 17.6785 28.8C14.9505 30.8528 12.6294 33.2981 10.655 36.0755L6.76641 33.8264C9.01213 30.5358 11.7854 27.6377 14.9957 25.2226C18.839 22.2943 23.1797 20.2113 27.837 18.9283C30.0827 18.3245 32.2982 17.9623 34.544 17.7962ZM34.544 29.9623C33.3382 30.1283 32.1777 30.3245 30.9719 30.6566C25.4254 32.1358 20.6929 35.3811 17.3168 39.9245L13.383 37.6755C15.1163 35.2604 17.1962 33.1321 19.5625 31.3358C22.6221 28.9962 26.0283 27.3207 29.7662 26.3547C31.3336 25.9472 32.9011 25.6755 34.4987 25.5094V29.9623H34.544Z" fill="#ACACAC"/>
</g>
<defs>
<clipPath id="clip0_385_1343">
<rect width="241" height="40" fill="white"/>
</clipPath>
</defs>
</svg>
