<svg width="176" height="40" viewBox="0 0 176 40" fill="none" xmlns="http://www.w3.org/2000/svg">
<path fill-rule="evenodd" clip-rule="evenodd" d="M51.4678 18.9206C51.4678 20.4076 51.319 21.1512 50.873 21.7459C50.1295 22.4894 49.386 22.6382 47.7502 22.6382L43.1407 22.4894C42.9919 22.4894 42.9919 22.6382 42.8432 22.6382C42.8432 22.6382 42.8432 22.7869 42.8432 22.9354V25.0172H39.8691V15.5006H47.7502C49.386 15.5006 50.1295 15.5006 50.7243 16.0953C51.319 16.8388 51.4678 17.2848 51.4678 18.9206ZM47.6014 20.2589C47.899 20.2589 48.1962 20.2589 48.4937 19.9616C48.6425 19.6641 48.7913 19.3666 48.7913 18.9206C48.7913 18.6234 48.7913 18.3258 48.4937 18.0283C48.0475 17.7311 47.899 17.7311 47.6014 17.7311H43.1407C42.9919 17.7311 42.9919 17.7311 42.9919 17.7311C42.8432 17.8796 42.8432 17.8796 42.8432 18.0283V19.9616C42.8432 20.1104 42.8432 20.1104 42.9919 20.2589C42.9919 20.2589 42.9919 20.2589 43.1407 20.2589H47.6014Z" fill="white"/>
<path fill-rule="evenodd" clip-rule="evenodd" d="M54.4411 24.2739C53.8464 23.6792 53.5488 23.0841 53.5488 22.1922V15.5006H56.3742V21.5971C56.3742 22.7869 58.7531 22.7869 59.7942 22.7869C60.6861 22.7869 62.7679 22.9354 62.7679 21.5971V15.5006H65.7419V22.1922C65.7419 23.0841 65.4447 23.5302 64.9987 24.1252C64.1064 25.1659 61.2812 25.0172 59.7942 25.0172C58.1584 25.0172 55.1843 25.1659 54.4411 24.2739Z" fill="white"/>
<path fill-rule="evenodd" clip-rule="evenodd" d="M78.9766 16.0953C79.4229 16.6904 79.5714 17.1364 79.5714 17.8796C79.5714 18.4746 79.4229 19.2181 79.2742 19.5154C78.8282 20.1104 78.2334 20.1104 78.2334 20.2589C78.2334 20.4076 78.9766 20.4076 79.2742 20.7051C79.7201 21.2999 79.8692 21.7459 79.8692 22.3406C79.8692 23.2329 79.7201 23.9764 79.1254 24.5711C78.5306 25.0172 77.1924 25.0172 76.1516 25.0172H67.6758V15.5006H76.0026C77.1924 15.5006 78.5306 15.5006 78.9766 16.0953ZM76.8948 18.4746C76.8948 18.0283 76.5977 17.5823 76.0026 17.5823H70.5008V19.3666H76.0026C76.5977 19.3666 76.8948 18.9206 76.8948 18.4746ZM77.1924 22.0434C77.1924 21.4483 76.8948 21.1512 76.0026 21.1512H70.5008V22.7869H76.1516C77.0436 22.7869 77.1924 22.4894 77.1924 22.0434Z" fill="white"/>
<path fill-rule="evenodd" clip-rule="evenodd" d="M91.4668 22.7869V25.0172H81.5039V15.5006H84.4779V22.7869H91.4668Z" fill="white"/>
<path fill-rule="evenodd" clip-rule="evenodd" d="M93.4004 25.0172H96.3741V15.5006H93.4004V25.0172Z" fill="white"/>
<path fill-rule="evenodd" clip-rule="evenodd" d="M110.202 21.4483C110.202 21.4483 110.5 23.3817 109.756 24.1252C109.013 24.8684 106.485 25.0172 104.403 25.0172C102.321 25.0172 99.6449 24.8684 99.0502 24.1252C98.3066 22.9354 98.3066 21.5971 98.3066 20.2589C98.3066 18.7718 98.4553 17.2848 99.1989 16.2441C99.7934 15.6493 102.321 15.5006 104.403 15.5006C106.634 15.5006 108.864 15.6493 109.459 16.2441C110.202 17.1364 110.054 18.7719 110.054 18.7719H107.526C107.526 18.7719 107.526 18.4746 107.228 18.0283C106.782 17.7311 105.593 17.7311 104.403 17.7311C103.065 17.7311 101.875 17.7311 101.429 18.1771C101.132 18.6234 100.983 19.5154 100.983 20.2589C100.983 21.0024 100.983 21.7459 101.429 22.3406C101.727 22.7869 103.065 22.7869 104.403 22.7869C105.593 22.7869 106.782 22.7869 107.228 22.4894C107.674 22.0434 107.526 21.4483 107.526 21.4483H110.202Z" fill="white"/>
<path fill-rule="evenodd" clip-rule="evenodd" d="M129.088 16.0953C129.683 16.6904 129.683 17.1364 129.683 17.8796C129.683 18.4746 129.534 19.2181 129.385 19.5154C128.939 20.1104 128.344 20.1104 128.344 20.2589C128.344 20.4076 129.088 20.4076 129.385 20.7051C129.831 21.2999 129.98 21.7459 129.98 22.3406C129.98 23.2329 129.831 23.9764 129.237 24.5711C128.642 25.0172 127.303 25.0172 126.262 25.0172H117.936V15.5006H126.114C127.303 15.5006 128.642 15.5006 129.088 16.0953ZM127.006 18.4746C127.006 18.0283 126.709 17.5823 126.114 17.5823H120.612V19.3666H126.114C126.709 19.3666 127.006 18.9206 127.006 18.4746ZM127.303 22.0434C127.303 21.4483 127.006 21.1512 126.114 21.1512H120.612V22.7869H126.262C127.155 22.7869 127.303 22.4894 127.303 22.0434Z" fill="white"/>
<path fill-rule="evenodd" clip-rule="evenodd" d="M130.871 25.0172L136.224 15.5006H140.536L145.592 25.0172H142.47L141.429 23.0841H135.035L133.993 25.0172H130.871ZM136.224 21.1512C136.224 21.2999 136.224 21.2999 136.373 21.2999H140.239C140.388 21.2999 140.388 21.2999 140.388 21.1512C140.536 21.1512 140.536 21.0024 140.536 21.0024L138.901 17.7311C138.901 17.5823 138.752 17.5823 138.752 17.5823C138.752 17.4336 138.603 17.4336 138.603 17.4336H138.157C138.157 17.4336 138.009 17.4336 138.009 17.5823C138.009 17.5823 138.009 17.5823 137.86 17.7311L136.224 20.8536C136.224 21.0024 136.075 21.0024 136.224 21.1512Z" fill="white"/>
<path fill-rule="evenodd" clip-rule="evenodd" d="M150.649 18.1771C150.5 17.8796 150.5 17.8796 150.203 17.8796C149.905 17.8796 149.905 17.8796 149.905 18.1771V25.0172H147.229V15.5006H152.136L156.894 22.3406C157.043 22.6382 157.192 22.6382 157.489 22.6382C157.638 22.6382 157.638 22.6382 157.638 22.3406V15.5006H160.314V25.0172H155.407L150.649 18.1771Z" fill="white"/>
<path fill-rule="evenodd" clip-rule="evenodd" d="M165.518 21.5971V25.0172H162.693V15.5006H165.518V18.7719V18.9206C165.667 19.0693 165.816 19.0693 165.816 19.0693H167.303L171.021 15.5006H175.184L169.682 20.1104L175.63 25.0172H171.466L167.154 21.2999H165.816C165.667 21.2999 165.667 21.2999 165.518 21.2999C165.518 21.4483 165.518 21.4483 165.518 21.5971Z" fill="white"/>
<path fill-rule="evenodd" clip-rule="evenodd" d="M31.9699 9.07044L22.7504 0H9.36777L0 9.21953V18.7357L1.48702 20.0744L0 21.4123V30.9293L9.21929 40H22.8995L31.9699 31.0783V21.264L30.632 20.0744L31.9699 18.8848V9.07044ZM16.059 37.1747L5.05548 26.1708L6.24525 24.9812L9.21929 27.8069H22.8995L25.8735 24.8329L27.2115 26.1708L16.059 37.1747ZM11.1523 20.0744L16.059 15.1676L21.1151 20.0744L16.059 24.9812L11.1523 20.0744ZM25.8735 15.1676L22.7504 12.1936H9.36777L6.24525 15.3159L5.05548 13.978L16.059 2.97404L27.2115 13.978L25.8735 15.1676Z" fill="white"/>
</svg>
