<svg width="125" height="40" viewBox="0 0 125 40" fill="none" xmlns="http://www.w3.org/2000/svg">
<path d="M124.628 19.9974L106.377 38.2529L88.125 19.9974L106.377 1.74849L124.628 19.9974Z" fill="#EF3E42"/>
<path d="M0 39.9991L4.02749 11.7408C4.92708 5.50508 11.5081 0.0650635 18.5662 0.0650635C25.7283 0.0650635 29.1267 5.04243 28.4372 9.81866L27.8527 13.9322C27.3744 17.3808 24.8265 20.6987 20.3174 23.1516L24.9338 30.9786C25.4646 31.8402 25.678 33.1656 25.4646 34.5636C24.9874 37.5462 22.758 39.9991 20.3174 39.9991C18.992 39.9991 17.9293 39.2728 17.2945 38.1441L10.5001 26.3991L9.33341 34.6262C8.90764 37.6121 6.67821 39.9991 4.2901 39.9991H0ZM16.1256 5.90403C14.5846 5.90403 13.153 7.43055 12.8893 9.35377L11.726 17.8714C11.4623 19.7957 12.4702 21.3234 14.0091 21.3234C15.5467 21.3234 16.9794 19.7957 17.2453 17.8714L18.4076 9.35377C18.6735 7.43055 17.6622 5.90403 16.1256 5.90403Z" fill="white"/>
<path d="M32.9368 6.3005C33.414 2.85075 36.1195 0 38.8797 0C41.6388 0 43.4961 2.85075 43.0178 6.3005L41.0566 20.5632H46.5234L48.5383 6.3005C49.0155 2.85075 51.7232 0 54.4834 0C57.2425 0 59.0998 2.85075 58.6215 6.3005L54.8008 33.6973C54.3225 37.1459 51.617 40 48.8557 40C46.0977 40 44.2404 37.1459 44.7175 33.6973L45.939 24.8086H40.4207L39.1993 33.6973C38.7199 37.1459 36.0144 40 33.2564 40H28.2656L32.9368 6.3005Z" fill="white"/>
<path d="M86.6275 11.4757C86.2017 14.1298 84.768 16.7157 82.22 19.1038C83.9723 20.9622 84.7143 23.4151 84.3433 25.8044L83.9723 28.2584C83.0179 34.5611 76.4883 39.9989 69.4849 39.9989H58.3926L62.4782 11.6769C63.3834 5.44006 69.9632 0.00115204 77.0192 0.00115204C84.1824 0.00115204 87.6332 4.97517 86.889 9.75251L86.6275 11.4757ZM72.9872 20.4314C71.235 20.4314 69.5911 22.2216 69.2715 24.4119L68.4758 30.1168C68.1585 32.3049 69.3251 34.0951 71.0763 34.0951C72.8274 34.0951 74.5271 32.3049 74.8445 30.1168L75.6413 24.4119C75.9609 22.2216 74.7361 20.4314 72.9872 20.4314ZM75.1105 5.90382C73.3593 5.90382 71.7658 7.69518 71.3948 9.88437L70.7589 13.7979C70.3845 15.9871 71.6082 17.7773 73.3593 17.7773C75.1105 17.7773 76.7554 15.9871 77.1287 13.7979L77.7634 9.88437C78.1356 7.69518 76.8605 5.90382 75.1105 5.90382Z" fill="white"/>
</svg>
