<svg width="101" height="40" viewBox="0 0 101 40" fill="none" xmlns="http://www.w3.org/2000/svg">
<path fill-rule="evenodd" clip-rule="evenodd" d="M4.13095 10.5766C4.12186 10.8536 4.16972 11.1295 4.27157 11.3873C4.37342 11.645 4.52709 11.8791 4.72306 12.0751C4.91904 12.2711 5.15316 12.4248 5.41092 12.5266C5.66868 12.6285 5.9446 12.6763 6.22161 12.6672C6.56882 12.6647 6.91153 12.5884 7.22694 12.4432C7.54235 12.298 7.82324 12.0873 8.05093 11.8252C8.77686 10.896 8.86397 9.76354 8.86397 8.19555C6.10546 7.96325 4.13095 8.83436 4.13095 10.5766ZM9.40115 15.1063C9.29642 14.4438 9.25027 13.7734 9.26323 13.1028C8.81308 13.8477 8.17181 14.4587 7.40594 14.8723C6.64007 15.2858 5.77749 15.487 4.90769 15.4548C2.78799 15.4548 1.82977 14.845 1.27807 14.2933C0.442978 13.43 -0.0163679 12.2712 0.000445838 11.0702C-0.00228199 10.0855 0.29304 9.12309 0.847582 8.30942C1.40212 7.49574 2.18992 6.86893 3.1074 6.51141C4.91495 5.69837 7.46294 5.69837 8.91478 5.69837C8.95923 5.04302 8.89047 4.38491 8.71152 3.7529C8.55477 3.3783 8.28711 3.06065 7.94452 2.84264C7.60193 2.62462 7.20082 2.51669 6.79509 2.53335C6.47853 2.52746 6.16527 2.59834 5.88208 2.73993C5.5989 2.88152 5.35424 3.08961 5.16902 3.34638C4.92733 3.73732 4.81553 4.1947 4.84961 4.65304H0.639258C0.613043 3.98587 0.750105 3.32238 1.03854 2.72021C1.32698 2.11804 1.75807 1.59538 2.29436 1.19765C3.61829 0.355001 5.16913 -0.0605835 6.73701 0.00713599C7.95656 0.00713599 10.5118 0.210394 11.9637 1.89454C12.6965 2.95776 13.0542 4.23494 12.98 5.52415V11.4186C12.9436 12.6641 13.0384 13.9098 13.2631 15.1354H9.43019L9.40115 15.1063ZM15.7748 0.384616H20.0722V15.1063H15.7748V0.384616ZM26.954 3.2012L26.8669 0.384616H22.8307C22.9178 1.22669 23.034 3.34638 23.034 4.01423V15.1136H27.3605V7.85437C27.3605 6.02504 27.6218 3.7892 31.9774 4.22475V0.362838C28.4929 0.188617 27.5347 1.95987 26.983 3.20846L26.954 3.2012ZM46.7209 14.9757C45.9207 14.9444 45.1248 15.1078 44.4016 15.4517C43.6784 15.7956 43.0494 16.3098 42.5686 16.9502V10.5185H38.2493V29.8498H42.4016C42.4887 28.9497 42.5178 28.3181 42.5468 27.8535C43.0011 28.6036 43.6535 29.2139 44.4322 29.6173C45.2108 30.0208 46.0856 30.2017 46.9604 30.1402C49.8641 30.1402 53.0872 28.2238 53.0872 22.7358C53.0872 17.7995 50.2706 14.9829 46.6991 14.9829L46.7209 14.9757ZM45.7409 27.2365C43.7954 27.2365 42.3726 25.6685 42.3726 22.3946C42.3726 21.4872 42.3726 17.952 45.5449 17.952C48.7171 17.952 48.7099 21.7413 48.7099 22.8737C48.7099 23.5996 48.7099 27.2293 45.7481 27.2293L45.7409 27.2365ZM67.4895 20.2677C67.5637 18.9784 67.2061 17.7013 66.4732 16.638C65.0214 14.9539 62.4661 14.7506 61.2466 14.7506C59.6787 14.6829 58.1279 15.0985 56.8039 15.9411C56.2676 16.3389 55.8365 16.8615 55.5481 17.4637C55.2597 18.0659 55.1226 18.7294 55.1488 19.3965H59.3592C59.3251 18.9382 59.4369 18.4808 59.6786 18.0899C59.8638 17.8331 60.1085 17.625 60.3917 17.4834C60.6748 17.3418 60.9881 17.271 61.3047 17.2768C61.7104 17.2602 62.1115 17.3681 62.4541 17.5861C62.7967 17.8041 63.0643 18.1218 63.2211 18.4964C63.3997 19.128 63.4679 19.7864 63.4244 20.4419C61.9725 20.4419 59.4173 20.4419 57.617 21.2549C56.6995 21.6124 55.9117 22.2392 55.3572 23.0529C54.8026 23.8666 54.5073 24.829 54.51 25.8137C54.4932 27.0147 54.9525 28.1735 55.7876 29.0368C56.3684 29.5885 57.3266 30.1983 59.4173 30.1983C60.2869 30.2297 61.1492 30.0282 61.915 29.6147C62.6807 29.2013 63.3221 28.5907 63.7728 27.8463C63.751 28.5163 63.7902 29.1871 63.8889 29.8498H67.7436C67.5187 28.6243 67.4238 27.3785 67.4605 26.1331L67.4895 20.2677ZM62.6113 26.5977C62.3842 26.8606 62.1035 27.0717 61.7879 27.217C61.4724 27.3622 61.1294 27.4382 60.782 27.4398C60.505 27.4489 60.2291 27.401 59.9713 27.2992C59.7135 27.1973 59.4794 27.0436 59.2834 26.8477C59.0875 26.6517 58.9338 26.4176 58.832 26.1598C58.7301 25.902 58.6822 25.6261 58.6913 25.3491C58.6913 23.6069 60.6658 22.7358 63.4244 22.9681C63.4244 24.5361 63.3663 25.6685 62.6113 26.5977ZM83.6994 17.5309C83.3219 16.5146 82.1024 14.7724 79.2277 14.7724C78.2728 14.7059 77.3184 14.9104 76.4747 15.3625C75.6309 15.8145 74.932 16.4958 74.4584 17.3277L74.3422 15.1499H70.19C70.2771 16.1662 70.2771 17.7632 70.2771 17.8213V29.8498H74.6326V21.3783C74.5863 20.5981 74.7679 19.8213 75.1553 19.1425C75.4069 18.7852 75.7423 18.4952 76.1321 18.2978C76.522 18.1003 76.9542 18.0015 77.3911 18.01C77.8232 17.9929 78.2508 18.1018 78.6221 18.3235C78.9933 18.5452 79.292 18.8701 79.4818 19.2586C79.6842 19.7652 79.7638 20.3124 79.7141 20.8556V29.8498H84.0696V21.9155C84.0696 19.186 83.9825 18.4311 83.6631 17.56L83.6994 17.5309Z" fill="white"/>
<path fill-rule="evenodd" clip-rule="evenodd" d="M37.08 0.37735L21.6396 29.8281H26.1113L41.5517 0.37735H37.08Z" fill="#99CC33"/>
<path fill-rule="evenodd" clip-rule="evenodd" d="M100.468 15.1208H95.6113L91.1904 21.2186V10.4604H86.922V29.8498H91.1904V21.8574L95.7274 29.8498H100.809L95.4588 21.4872L100.468 15.1208ZM24.8795 38.4462L24.886 38.4658C24.894 38.9014 24.7408 39.2665 24.4265 39.5598C24.1115 39.853 23.6962 39.9997 23.1794 39.9997C22.6538 39.9997 22.2255 39.8139 21.8945 39.4415C21.5642 39.0698 21.3994 38.5972 21.3994 38.0259V37.1983C21.3994 36.627 21.5642 36.1545 21.8952 35.7813C22.2255 35.4075 22.6538 35.2209 23.1794 35.2209C23.7042 35.2209 24.1224 35.361 24.433 35.6405C24.743 35.92 24.894 36.2909 24.886 36.7526L24.8795 36.7715H24.277C24.277 36.4463 24.1812 36.1886 23.9895 35.9998C23.7979 35.8104 23.5278 35.7153 23.1794 35.7153C22.828 35.7153 22.5486 35.8568 22.3402 36.14C22.1319 36.4231 22.0281 36.7737 22.0281 37.1925V38.0252C22.0281 38.4484 22.1319 38.8019 22.3402 39.085C22.5486 39.3674 22.828 39.509 23.1794 39.509C23.5278 39.509 23.7979 39.4146 23.9895 39.2259C24.1812 39.0378 24.2762 38.778 24.2762 38.4462H24.8795ZM23.1823 34.3883L23.6512 33.9165H24.1935V33.9738L23.3732 34.7556H22.9943L22.1841 33.9803V33.9165H22.7141L23.1823 34.3883ZM27.7781 39.4415H29.9762V39.9329H27.1502V35.2884H27.7781V39.4415ZM34.85 37.7791H32.7224V39.4415H35.176V39.9329H32.093V35.2884H35.1397V35.7821H32.7216V37.2847H34.8486V37.7798L34.85 37.7791ZM40.8404 39.9329H40.2117L37.9759 36.341L37.9563 36.3476V39.9329H37.3276V35.2884H37.9563L40.1921 38.8738L40.2117 38.8672V35.2884H40.8404V39.9329ZM48.9729 38.762C48.9746 38.6608 48.954 38.5605 48.9126 38.4682C48.8712 38.3758 48.81 38.2937 48.7333 38.2277C48.5743 38.084 48.2912 37.9635 47.8854 37.8655C47.394 37.7493 47.0107 37.5766 46.7356 37.3486C46.4597 37.1214 46.3218 36.8354 46.3218 36.4906C46.3218 36.1291 46.4706 35.8271 46.7675 35.5846C47.0637 35.3422 47.4484 35.2217 47.9203 35.2217C48.4284 35.2217 48.8335 35.3603 49.134 35.6391C49.4353 35.9178 49.5805 36.2416 49.5696 36.6089L49.5631 36.6278H48.9634C48.9634 36.3555 48.8734 36.1356 48.6941 35.9672C48.5141 35.8002 48.2564 35.7153 47.9203 35.7153C47.6081 35.7153 47.3686 35.7864 47.2016 35.928C47.1204 35.995 47.0555 36.0796 47.012 36.1755C46.9685 36.2713 46.9474 36.3759 46.9505 36.4811C46.9505 36.6829 47.0412 36.8514 47.222 36.9871C47.4027 37.1221 47.696 37.2404 48.1025 37.3428C48.5918 37.464 48.9634 37.6426 49.219 37.8785C49.4738 38.1145 49.6015 38.407 49.6015 38.7555C49.6015 39.13 49.4491 39.4306 49.142 39.6585C48.8357 39.8864 48.4364 39.9997 47.9428 39.9997C47.5035 40.0072 47.073 39.8756 46.7131 39.6237C46.3574 39.3725 46.1839 39.0364 46.1948 38.6154L46.2013 38.5965H46.8009C46.8009 38.8941 46.9098 39.1206 47.129 39.2759C47.3483 39.4313 47.6198 39.5082 47.9428 39.5082C48.26 39.5082 48.5105 39.4414 48.6956 39.3079C48.7838 39.2474 48.8554 39.1657 48.9039 39.0703C48.9523 38.9749 48.9761 38.8689 48.9729 38.762ZM53.1034 37.8372H52.5611V39.9329H51.9325V35.2884H52.5611V37.3428H53.046L54.7084 35.2884H55.4038L55.4133 35.3044L53.6108 37.5337L55.5439 39.9169L55.5345 39.9329H54.7846L53.1034 37.8372ZM60.9434 35.2884V38.4368C60.9434 38.9427 60.7793 39.3297 60.4512 39.5982C60.1223 39.8661 59.6933 39.9997 59.1641 39.9997C58.6531 39.9997 58.2393 39.8654 57.9213 39.5961C57.6034 39.3275 57.4444 38.9406 57.4444 38.4368V35.2884H58.0731V38.4368C58.0731 38.7874 58.1725 39.0538 58.3729 39.2353C58.5725 39.4175 58.836 39.509 59.1641 39.509C59.5082 39.509 59.7862 39.4175 59.9982 39.236C60.2094 39.0545 60.3154 38.7874 60.3154 38.4368V35.2884H60.9441H60.9434ZM64.0155 38.0702V39.9329H63.3868V35.2884H65.1639C65.659 35.2884 66.0437 35.4155 66.3181 35.671C66.5925 35.9258 66.7297 36.2619 66.7297 36.6793C66.7297 37.1025 66.5925 37.4401 66.3181 37.692C66.0437 37.9439 65.659 38.0695 65.1639 38.0695L64.0155 38.0702ZM64.0155 37.5787H65.1639C65.4782 37.5787 65.7134 37.4938 65.868 37.3247C66.0241 37.1562 66.1018 36.9428 66.1018 36.6858C66.1018 36.4281 66.0234 36.2133 65.8673 36.0412C65.7105 35.8685 65.476 35.7828 65.1631 35.7828H64.0155V37.5787ZM69.6508 39.9329H69.0192V35.2884H69.6508V39.9329ZM75.7631 39.9329H75.1344L72.8979 36.341L72.879 36.3476V39.9329H72.2503V35.2884H72.879L75.1148 38.8738L75.1344 38.8672V35.2884H75.7623L75.7631 39.9329ZM79.6569 37.6491L80.8692 35.2884H81.5864L79.9567 38.2996V39.9329H79.3317V38.2582L77.7274 35.2884H78.4446L79.6569 37.6491ZM87.3082 38.0702V39.9329H86.6795V35.2884H88.4566C88.9524 35.2884 89.3371 35.4155 89.6108 35.671C89.8859 35.9258 90.0231 36.2619 90.0231 36.6793C90.0231 37.1025 89.8852 37.4401 89.6115 37.692C89.3371 37.9439 88.9524 38.0695 88.4566 38.0695L87.3082 38.0702ZM87.3082 37.5787H88.4566C88.7716 37.5787 89.0061 37.4938 89.1614 37.3247C89.3168 37.1562 89.3937 36.9428 89.3937 36.6858C89.3937 36.4281 89.3161 36.2133 89.16 36.0412C89.0039 35.8685 88.7694 35.7828 88.4558 35.7828H87.3082V37.5787ZM92.9094 38.0702V39.9329H92.2807V35.2884H94.0578C94.5529 35.2884 94.9376 35.4155 95.212 35.671C95.4864 35.9258 95.6236 36.2619 95.6236 36.6793C95.6236 37.1025 95.4864 37.4401 95.212 37.692C94.9376 37.9439 94.5529 38.0695 94.0578 38.0695L92.9094 38.0702ZM92.9094 37.5787H94.0578C94.3721 37.5787 94.6073 37.4938 94.7619 37.3247C94.918 37.1562 94.9957 36.9428 94.9957 36.6858C94.9957 36.4281 94.9173 36.2133 94.7612 36.0412C94.6044 35.8685 94.3699 35.7828 94.0571 35.7828H92.9094V37.5787ZM100.628 37.8785H98.5099V39.9329H97.8812V35.2884H100.953V35.7821H98.5099V37.3842H100.628V37.8785Z" fill="white"/>
</svg>
