<svg width="179" height="40" viewBox="0 0 179 40" fill="none" xmlns="http://www.w3.org/2000/svg">
<path d="M78.8322 0H73.0493L66.3307 17.8444H71.5536L72.4335 15.2769H79.4721L80.3519 17.8444H85.5668L78.8322 0ZM73.5452 11.6137L75.9368 4.89502L78.2083 11.6137H73.5372H73.5452ZM91.9336 7.5185L99.484 17.8444H103.923V0H99.3001V9.82204L92.0695 0H87.3345V17.8444H91.9336V7.5185ZM64.2831 10.006C63.6352 9.16617 62.8274 8.67826 61.8596 8.53429C62.7314 8.34233 63.4593 7.88642 64.0431 7.15857C64.627 6.43871 64.915 5.54289 64.915 4.4871C64.915 3.71126 64.715 2.9834 64.3311 2.29554C63.9392 1.60768 63.3473 1.05579 62.5634 0.631874C61.7796 0.207958 60.8198 0 59.7 0H49.582V17.8444H60.0199C61.1477 17.8444 62.0995 17.6285 62.8994 17.1806C63.6912 16.7407 64.2831 16.1488 64.683 15.4049C65.0749 14.6611 65.2749 13.8452 65.2749 12.9414C65.2749 11.8216 64.947 10.8458 64.2991 9.998L64.2831 10.006ZM54.1811 3.66327H58.6522C59.1161 3.66327 59.492 3.80724 59.788 4.11118C60.0839 4.40712 60.2279 4.78304 60.2279 5.24695C60.2279 5.71086 60.0759 6.11078 59.788 6.40672C59.492 6.70266 59.1161 6.85463 58.6522 6.85463H54.1811V3.67127V3.66327ZM60.1079 13.6773C59.796 14.0132 59.3641 14.1812 58.8122 14.1812H54.1811V10.5179H58.8122C59.3641 10.5179 59.796 10.6939 60.1079 11.0378C60.4199 11.3817 60.5798 11.8216 60.5798 12.3495C60.5798 12.8774 60.4199 13.3413 60.1079 13.6773ZM136.541 0H130.758L124.039 17.8444H129.254L130.134 15.2769H137.173L138.052 17.8444H143.267L136.541 0ZM131.254 11.6137L133.645 4.89502L135.917 11.6137H131.246H131.254Z" fill="white"/>
<path d="M123.759 0H118.08L112.593 7.33453V0H107.994V17.8444H112.593V12.6295L113.801 11.1338L118.48 17.8444H124.127L116.824 8.35033L123.759 0ZM55.5563 25.9308C56.3082 25.4429 57.164 25.195 58.1238 25.195C58.9636 25.195 59.7315 25.4429 60.4353 25.9388C61.1392 26.4427 61.6431 27.0586 61.947 27.7864L65.9062 25.9148C65.2104 24.6271 64.2266 23.5793 62.9628 22.7554C61.6991 21.9316 60.0834 21.5237 58.1238 21.5237C56.3082 21.5237 54.6605 21.9076 53.1888 22.6835C51.7171 23.4593 50.5653 24.5471 49.7255 25.9468C48.8856 27.3465 48.4697 28.9462 48.4697 30.7458C48.4697 32.5455 48.8856 34.1532 49.7255 35.5529C50.5653 36.9526 51.7171 38.0404 53.1888 38.8162C54.6605 39.5921 56.3082 39.984 58.1238 39.984C60.0834 39.984 61.7071 39.5681 62.9788 38.7443C64.2506 37.9204 65.2264 36.8726 65.9062 35.5929L61.947 33.7213C61.6431 34.4571 61.1392 35.073 60.4353 35.5689C59.7315 36.0728 58.9556 36.3207 58.1238 36.3207C57.164 36.3207 56.3082 36.0728 55.5563 35.5849C54.8045 35.097 54.2206 34.4251 53.7887 33.5853C53.3568 32.7375 53.1488 31.7936 53.1488 30.7538C53.1488 29.7141 53.3647 28.7782 53.7887 27.9304C54.1876 27.1151 54.798 26.4218 55.5563 25.9228V25.9308ZM79.9274 33.1134C80.8872 32.7774 81.7271 32.1536 82.4309 31.2577C83.1348 30.3539 83.4867 29.1942 83.4867 27.7624C83.4867 26.6347 83.2468 25.6269 82.7509 24.7231C82.263 23.8192 81.5431 23.1154 80.6073 22.5955C79.6715 22.0756 78.5597 21.8196 77.272 21.8196H68.3378V39.6641H72.9368V33.6733H75.2884L78.2878 39.6641H83.5587L79.9194 33.1134H79.9274ZM78.1598 29.4101C77.7279 29.81 77.208 30.01 76.5841 30.01H72.9448V25.4909H76.5841C77.208 25.4909 77.7359 25.6909 78.1598 26.0908C78.5917 26.4907 78.7997 27.0346 78.7997 27.7385C78.7997 28.4423 78.5837 29.0102 78.1598 29.4181V29.4101ZM156.016 21.8276H150.233L143.515 39.6721H148.738L149.617 37.1046H156.656L157.536 39.6721H162.751L156.008 21.8276H156.016ZM150.737 33.4413L153.129 26.7227L155.408 33.4413H150.737ZM144.435 21.8276H129.853V25.4909H134.852V39.6721H139.452V25.4909H144.435V21.8276ZM177.428 30.9458C176.749 30.1963 175.898 29.6227 174.948 29.2741C174.005 28.9302 172.845 28.6103 171.469 28.3223C170.365 28.0264 169.574 27.7704 169.102 27.5545C168.63 27.3385 168.39 27.0266 168.39 26.6107C168.39 26.1788 168.55 25.8348 168.87 25.5789C169.19 25.3229 169.677 25.195 170.317 25.195C171.229 25.195 172.141 25.3469 173.061 25.6589C173.981 25.9708 174.804 26.4347 175.532 27.0346L178.044 23.8432C177.1 23.0754 176.012 22.4995 174.78 22.1076C173.549 21.7157 172.221 21.5237 170.789 21.5237C169.358 21.5237 168.054 21.7796 166.974 22.2995C165.894 22.8194 165.078 23.5073 164.511 24.3791C163.958 25.2195 163.665 26.2046 163.671 27.2106C163.671 28.5703 164.023 29.6421 164.726 30.4179C165.43 31.1938 166.254 31.7536 167.206 32.0816C168.15 32.4175 169.326 32.7215 170.733 33.0014C171.805 33.2334 172.581 33.4653 173.061 33.6893C173.541 33.9132 173.781 34.2571 173.781 34.7211C173.781 35.185 173.557 35.5689 173.101 35.8728C172.645 36.1768 172.029 36.3287 171.237 36.3287C170.093 36.3287 169.038 36.1128 168.054 35.6729C167.07 35.233 166.238 34.6651 165.542 33.9772L163.103 37.3525C165.086 39.1122 167.726 40 171.021 40C173.373 40 175.204 39.4641 176.508 38.3843C177.812 37.3045 178.46 35.8568 178.46 34.0332C178.46 32.7534 178.108 31.7217 177.404 30.9538L177.428 30.9458ZM86.4861 39.6721H99.5635V36.0088H91.0852V32.2815H99.3795V28.6183H91.0852V25.4909H99.5635V21.8276H86.4861V39.6721ZM118.616 25.9948C117.792 24.6591 116.656 23.6273 115.192 22.8994C113.729 22.1796 112.057 21.8196 110.185 21.8196H102.691V39.6641H110.209C112.065 39.6641 113.721 39.3041 115.184 38.5843C116.648 37.8644 117.784 36.8246 118.608 35.4809C119.432 34.1372 119.839 32.5535 119.839 30.7299C119.839 28.9062 119.432 27.3305 118.608 25.9948H118.616ZM114.553 33.3693C114.161 34.1692 113.593 34.809 112.841 35.2889C112.089 35.7688 111.209 36.0088 110.193 36.0088H107.298V25.4909H110.217C111.785 25.4909 113.001 25.9788 113.857 26.9546C114.712 27.9304 115.144 29.1942 115.144 30.7379C115.144 31.6897 114.944 32.5695 114.553 33.3773V33.3693ZM122.599 21.8276H127.198V39.6721H122.599V21.8276Z" fill="white"/>
<path d="M29.0742 0C32.0016 9.37301e-06 34.6489 1.18391 36.5605 3.10352C38.4802 5.01513 39.6719 7.67044 39.6719 10.5898C39.6719 14.557 37.4966 18.0045 34.2812 19.8281C37.4965 21.6438 39.6719 25.1074 39.6719 29.0586H39.6641C39.664 31.9858 38.4803 34.6332 36.5527 36.5527C35.5723 37.5401 34.406 38.3234 33.1211 38.8574C31.8362 39.3914 30.4579 39.6656 29.0664 39.6641H0V0H29.0742ZM19.8359 5.4707C11.9016 5.47075 5.47075 11.9018 5.4707 19.8281C5.47078 27.7545 11.9018 34.1855 19.8281 34.1855C21.7141 34.1887 23.5822 33.8191 25.3252 33.0986C27.0682 32.3781 28.652 31.3203 29.9854 29.9863L27.166 27.1748C27.1675 27.1733 27.1694 27.1724 27.1709 27.1709L27.166 27.166L27.1699 27.1621L24.3555 24.3389C23.1957 25.4986 21.5955 26.2187 19.8359 26.2188L19.5078 26.21C19.1231 26.1905 18.7477 26.1355 18.3838 26.0508C18.128 25.9914 17.8777 25.9182 17.6348 25.8291C15.5472 25.0623 13.9706 23.2362 13.5547 21.0039C13.4839 20.6228 13.4453 20.23 13.4453 19.8281C13.4453 19.4368 13.4816 19.0536 13.5488 18.6816C14.0897 15.7008 16.7 13.4375 19.8359 13.4375C20.6758 13.4379 21.5078 13.6042 22.2832 13.9268C23.0583 14.2492 23.7623 14.7214 24.3545 15.3164L29.9941 9.67773C27.3867 7.07832 23.8031 5.47073 19.8359 5.4707Z" fill="white"/>
</svg>
