<svg width="89" height="40" viewBox="0 0 89 40" fill="none" xmlns="http://www.w3.org/2000/svg">
<path d="M7.09021 8.23279C10.4966 8.23279 11.5883 8.76632 11.5883 10.0878V11.4356H7.09021C4.57358 11.4356 3.7856 12.5289 3.7856 16.4935C3.7856 20.458 4.57358 21.5513 7.09021 21.5513H11.5883V22.8991C11.5883 24.2206 10.4949 24.7542 7.09021 24.7542C2.43946 24.7525 0 22.2622 0 16.4918C0 10.7215 2.43946 8.23279 7.09021 8.23279ZM6.50579 7.44481C6.20044 7.44481 6.02315 7.36929 5.7178 7.01306L3.58368 4.42092C3.4819 4.29451 3.4819 4.14184 3.4819 4.04006H4.95609C5.28605 4.04006 5.43872 4.11558 5.79496 4.42092L7.01469 5.46336L8.2098 4.42092C8.59066 4.11558 8.7187 4.04006 9.0733 4.04006H10.5212C10.5212 4.14184 10.5212 4.29451 10.4194 4.42092L8.28531 7.01306C7.97997 7.36929 7.80267 7.44481 7.47271 7.44481H6.50743H6.50579Z" fill="white"/>
<path d="M12.8591 9.75787C12.8591 8.84348 13.2662 8.36084 14.2068 8.36084H23.4574V10.1404C23.4574 11.0548 22.9748 11.4881 22.0095 11.4881H16.5445V14.8683H22.5168V17.7904H16.5445V21.5267H23.5838V23.3063C23.5838 24.2206 23.1012 24.6278 22.1605 24.6278H14.2052C13.2645 24.6278 12.8574 24.1451 12.8574 23.2307V9.75787H12.8591Z" fill="white"/>
<path d="M30.0651 8.23279C33.3435 8.23279 35.2248 8.58902 35.2248 10.0369V11.4356H30.4214C28.9981 11.4356 28.4383 11.8674 28.4383 12.6816C28.4383 14.8929 36.0883 14.512 36.0883 19.9508C36.0883 22.5429 34.4877 24.7542 29.8369 24.7542C26.9148 24.7542 24.5 24.347 24.5 22.95V21.5513H30.0159C31.4638 21.5513 32.1763 21.0933 32.1763 20.1543C32.1763 17.7657 24.5525 18.1203 24.5525 12.5798C24.5525 10.1404 26.2812 8.23443 30.0684 8.23443L30.0651 8.23279Z" fill="white"/>
<path d="M41.5019 15.8828L46.2298 9.04539C46.6106 8.46097 46.8142 8.35919 47.2968 8.35919H50.7032C50.7032 8.58738 50.6523 8.79094 50.475 9.04539L45.2399 16.2374L50.7295 23.9383C50.8559 24.1418 50.9577 24.3963 50.9577 24.6245H47.704C46.9931 24.6245 46.7633 24.5736 46.3053 23.8874L41.5019 17.1271V24.6245H37.8164V9.75786C37.8164 8.84347 38.2235 8.36083 39.1642 8.36083H41.5019V15.8844V15.8828Z" fill="white"/>
<path d="M59.8756 8.3083C60.5372 8.3083 60.8409 8.38382 60.9935 8.94361L65.1354 24.0154C65.1863 24.2436 65.2109 24.4734 65.2109 24.6261H62.2888C61.6288 24.6261 61.4253 24.6015 61.2726 24.0417L60.3582 20.5844H55.911L54.9967 24.0417C54.8703 24.6015 54.6667 24.6261 54.0051 24.6261H51.083C51.083 24.4734 51.1076 24.2699 51.1585 24.0154L55.3266 8.94361C55.4793 8.38382 55.7846 8.3083 56.4446 8.3083H59.8756ZM56.5201 17.7887H59.6966L58.1716 12.1218H58.0452L56.5201 17.7887ZM59.4931 7.06395C59.1631 7.42018 58.9842 7.44481 58.6542 7.44481H57.18C57.18 7.34302 57.18 7.19035 57.2818 7.06395L59.4159 4.47181C59.7213 4.11558 59.8986 4.04006 60.2039 4.04006H61.6518C61.8554 4.04006 61.9572 4.11558 61.9572 4.21736C61.9572 4.34376 61.9063 4.44554 61.7027 4.67537L59.4914 7.06395H59.4931Z" fill="white"/>
<path d="M69.961 20.2561H84.478V18.3075H69.989C69.9775 18.0826 69.984 13.6879 69.9545 11.6572C69.9299 9.92531 71.1118 8.23936 73.3461 8.27711C77.4173 8.34442 81.4935 8.34442 85.5647 8.27383C87.3197 8.24264 88.917 9.53132 88.9153 11.6277C88.9153 11.9199 88.9137 12.2778 88.9137 12.657H74.3836V14.5596L88.9137 14.5564C88.9137 14.8174 88.9186 19.2186 88.9137 21.2657C88.9071 23.3259 87.5872 24.6212 85.5024 24.6228C81.464 24.6228 77.4255 24.6228 73.3871 24.6228C71.2858 24.6228 69.9709 23.3128 69.9627 21.2132C69.9627 20.921 69.9627 20.6287 69.9627 20.2561" fill="white"/>
<path d="M79.4546 6.24313C77.7374 6.24313 76.3486 4.82804 76.3585 3.0912C76.3683 1.3839 77.7637 -0.00327745 79.4661 5.81628e-06C81.1684 0.00328908 82.5605 1.39703 82.5638 3.10269C82.5671 4.83625 81.1734 6.24477 79.4546 6.24313Z" fill="white"/>
<path d="M2.83208 30.2093C4.26687 30.2093 5.23872 30.2536 5.23872 30.971V31.4044H2.81731C2.14424 31.4044 1.7404 31.6884 1.7404 32.107C1.7404 33.5123 5.62778 33.1084 5.62778 35.6349C5.62778 36.8612 4.83487 37.833 2.56286 37.833C1.23313 37.833 0.00683594 37.833 0.00683594 37.1452V36.6363H2.69747C3.5938 36.6363 3.98287 36.3671 3.98287 35.7695C3.98287 34.4989 0.0807094 34.7238 0.0807094 32.2121C0.0807094 30.9563 1.09688 30.2093 2.83208 30.2093Z" fill="white"/>
<path d="M8.25885 40H6.68945V30.2832H7.51191C8.06514 30.2832 8.25885 30.582 8.25885 30.9415V31.1516C8.70702 30.6591 9.40964 30.2093 10.2912 30.2093C12.1741 30.2093 13.0278 31.6736 13.0278 34.0212C13.0278 36.3687 12.1758 37.833 10.2912 37.833C9.40964 37.833 8.70702 37.3849 8.25885 36.9055V40ZM9.7396 31.4487C9.15683 31.4487 8.66269 31.6884 8.25885 32.002V36.024C8.66269 36.3375 9.15518 36.5772 9.7396 36.5772C10.9511 36.5772 11.3993 35.6956 11.3993 34.0212C11.3993 32.3467 10.9511 31.4504 9.7396 31.4504V31.4487Z" fill="white"/>
<path d="M13.9238 34.0212C13.9238 31.9281 14.6855 30.2093 17.212 30.2093C19.7385 30.2093 20.5002 31.9281 20.5002 34.0212C20.5002 36.1143 19.7385 37.833 17.212 37.833C14.6855 37.833 13.9238 36.1143 13.9238 34.0212ZM18.8865 34.0212C18.8865 32.2876 18.4974 31.3305 17.212 31.3305C15.9266 31.3305 15.5523 32.2876 15.5523 34.0212C15.5523 35.7547 15.9266 36.7118 17.212 36.7118C18.4974 36.7118 18.8865 35.7695 18.8865 34.0212Z" fill="white"/>
<path d="M23.2964 29.6856C23.1027 29.6856 22.9976 29.6265 22.8187 29.4312L21.5628 27.9668C21.4873 27.8913 21.4873 27.8027 21.4873 27.7419H22.1751C22.3853 27.7419 22.4739 27.7863 22.6841 27.9668L23.5065 28.6695L24.3437 27.9668C24.5522 27.7879 24.6425 27.7419 24.8379 27.7419H25.5257C25.5257 27.801 25.5257 27.8913 25.4666 27.9668L24.196 29.4312C24.0171 29.6249 23.912 29.6856 23.7183 29.6856H23.2997H23.2964ZM21.7418 37.7575V30.2832H22.5642C23.0731 30.2832 23.2816 30.6575 23.3112 31.2255C23.9235 30.4326 24.7016 30.2093 25.2992 30.2093C25.5684 30.2093 25.8376 30.2848 25.8376 30.5836V31.7492H25.4633C24.3126 31.7492 23.7593 31.9888 23.3112 32.3024V37.7592H21.7418V37.7575Z" fill="white"/>
<path d="M28.0352 29.5067H26.4658V28.6399C26.4658 28.1622 26.6448 27.893 27.1389 27.893H28.0352V29.5067ZM26.4658 30.2848H27.3474C27.8415 30.2848 28.0352 30.5541 28.0352 31.0318V37.7592H26.4658V30.2848Z" fill="white"/>
<path d="M31.5785 30.2832H33.2529V31.4487H31.5785V35.7991C31.5785 36.3818 31.654 36.6067 32.1613 36.6067H33.2529V36.9958C33.2529 37.6229 32.7145 37.8035 31.8625 37.8035C30.1585 37.8035 30.0091 36.8924 30.0091 35.8007V31.4504H29.0225V30.5836L30.0091 30.2848L30.5771 29.0881C30.7412 28.7745 30.8611 28.6399 31.1451 28.6399H31.5785V30.2848V30.2832Z" fill="white"/>
<path d="M39.532 36.6363V37.0549C39.532 37.6672 38.7096 37.833 36.9005 37.833C34.3888 37.833 33.6123 36.1143 33.6123 34.0212C33.6123 31.9281 34.4348 30.2093 36.8857 30.2093C38.859 30.2093 39.8899 31.3453 39.8899 33.0346C39.8899 33.4089 39.8899 33.6929 39.8144 34.4398H35.2392C35.2392 36.0387 35.8367 36.6379 37.0778 36.6379H39.5287L39.532 36.6363ZM38.3057 33.3924C38.3205 33.2578 38.3205 32.9886 38.3205 32.8244C38.3205 32.1514 38.0365 31.3289 36.9005 31.3289C35.8548 31.3289 35.3015 31.9265 35.2408 33.3924H38.3057Z" fill="white"/>
<path d="M42.6563 37.7575H41.0869V28.6383C41.0869 28.1606 41.2659 27.8913 41.76 27.8913H42.6563V37.7575Z" fill="white"/>
<path d="M44.3008 37.7575V30.2832H45.1232C45.6765 30.2832 45.8702 30.5672 45.8702 30.9267V31.1516C46.5137 30.4785 47.2902 30.2093 48.0683 30.2093C49.623 30.2093 50.3699 31.1516 50.3699 32.5273V37.7592H48.8005V32.6012C48.8005 31.7787 48.2768 31.4504 47.4396 31.4504C46.8716 31.4504 46.2888 31.6901 45.8702 32.0036V37.7592H44.3008V37.7575Z" fill="white"/>
<path d="M56.8579 37.7575C56.3194 37.7575 56.1109 37.4735 56.1109 37.114V36.9039C55.4674 37.577 54.6302 37.8314 53.9275 37.8314C52.5075 37.8314 51.626 37.0089 51.626 35.7383C51.626 33.8701 53.6747 33.3612 56.1109 33.2562V32.6291C56.1109 31.6868 55.4378 31.4028 54.4808 31.4028H52.1792V30.9694C52.1792 30.252 53.0755 30.2077 54.7352 30.2077C56.5886 30.2077 57.6803 30.9858 57.6803 32.5552V37.7575H56.8579ZM56.1109 34.2001C54.0622 34.2297 53.2857 34.6335 53.2857 35.5151C53.2857 36.2932 53.8537 36.5608 54.6154 36.5608C55.1686 36.5608 55.7366 36.3523 56.1109 36.0223V34.1985V34.2001Z" fill="white"/>
</svg>
