<svg width="216" height="40" viewBox="0 0 216 40" fill="none" xmlns="http://www.w3.org/2000/svg">
<path fill-rule="evenodd" clip-rule="evenodd" d="M19.9066 26.2418L1.7998 20.0187L19.8317 13.7957L19.9066 26.2418Z" fill="#00408A"/>
<path fill-rule="evenodd" clip-rule="evenodd" d="M37.451 7.72258L57.3572 0.824738V39.1753L37.376 32.2774L53.3085 26.8041V13.1584L37.451 7.72258Z" fill="#00408A"/>
<path fill-rule="evenodd" clip-rule="evenodd" d="M15.5199 25.4546V40L36.6633 32.6523L57.8067 25.4546L73.8892 20.1687L57.8067 14.9578L36.7008 7.61013L15.4824 0.337402V14.9578L15.5199 25.4546Z" fill="#00408A"/>
<path fill-rule="evenodd" clip-rule="evenodd" d="M19.9066 26.2418L1.7998 20.0187L19.8317 13.7957L19.9066 26.2418Z" fill="#00408A"/>
<path fill-rule="evenodd" clip-rule="evenodd" d="M19.269 14.6204C19.269 15.9325 19.3065 24.105 19.3065 25.4546C18.0319 25.0047 6.0731 20.881 3.56139 20.0188C6.0731 19.1565 17.9944 15.0703 19.269 14.6204ZM0 20.0188L20.4686 27.0666L20.3936 13.0085L0 20.0188Z" fill="#00408A"/>
<path fill-rule="evenodd" clip-rule="evenodd" d="M37.451 7.72258L57.3572 0.824738V39.1753L37.376 32.2774L53.3085 26.8041V13.1584L37.451 7.72258Z" fill="#00408A"/>
<path fill-rule="evenodd" clip-rule="evenodd" d="M56.7576 1.612C56.7576 3.14902 56.7576 36.851 56.7576 38.3505C55.4456 37.9007 41.7248 33.1396 39.1382 32.2774C41.7248 31.3777 53.8711 27.2165 53.8711 27.2165V12.746C53.8711 12.746 41.7998 8.58482 39.2131 7.72259C41.7998 6.82287 55.4456 2.09934 56.7576 1.612ZM35.6517 7.72259C35.6517 7.72259 51.9592 13.3083 52.7089 13.5708C52.7089 14.3205 52.7089 25.642 52.7089 26.3918C51.9592 26.6542 35.6143 32.2774 35.6143 32.2774L57.9198 40V0L35.6517 7.72259Z" fill="#00408A"/>
<path fill-rule="evenodd" clip-rule="evenodd" d="M15.5199 25.4546V40L36.6633 32.6523L57.8067 25.4546L73.8892 20.1687L57.8067 14.9578L36.7008 7.61013L15.4824 0.337402V14.9578L15.5199 25.4546Z" fill="#00408A"/>
<path fill-rule="evenodd" clip-rule="evenodd" d="M37.4512 7.72258L53.3087 13.1584V26.8041L37.3762 32.2774L57.32 39.1753V0.824738L37.4512 7.72258ZM1.7998 20.0187L19.9066 26.2418L19.8692 13.7957L1.7998 20.0187ZM45.961 15.5576H46.0735C47.6105 15.3327 47.9104 18.2943 47.9104 19.269C47.9104 20.731 47.7604 22.7554 46.1859 23.2427C46.1859 23.2427 46.1484 23.2427 46.0735 23.2802C44.274 23.6551 44.274 20.0187 44.274 18.9316C44.274 17.5445 44.5739 15.9325 45.961 15.5576ZM46.036 23.6551C46.1859 23.6176 46.2984 23.6176 46.4109 23.5426C48.2478 22.7929 49.5599 20.656 49.5974 18.5567V18.2193C49.5974 17.657 49.4849 17.1696 49.2975 16.6823C48.7726 15.3327 47.3481 14.8454 46.036 15.1078C45.886 15.1453 45.7361 15.2202 45.5486 15.2577C43.9741 15.895 42.887 17.582 42.6245 19.3439C42.3996 20.656 42.5121 22.493 43.7117 23.3552C44.424 23.8425 45.2487 23.8425 46.036 23.6551ZM38.0135 26.5417C38.4259 26.5042 39.0632 26.0544 39.3256 25.7919C39.738 25.3046 40.2253 24.3674 40.4877 23.2802C39.9629 23.1303 40.6377 23.3177 40.0753 23.1678C39.9629 23.6176 39.7005 24.105 39.588 24.2924C39.4755 24.4424 39.2131 24.8547 39.0632 24.8922L38.8382 24.9297C38.6883 24.8922 38.6883 23.9925 38.7258 23.7301V16.8322C37.2637 17.4695 37.0013 17.5445 35.4643 18.2568C35.5393 18.5942 35.5018 18.6317 35.5018 18.5567C35.5018 18.6317 35.5393 18.7066 35.5768 18.8566L35.8392 18.8191C36.0641 18.7816 36.364 18.7066 36.4015 18.7066C36.7014 18.6692 36.7014 19.0815 36.7014 19.6439V24.6298C36.7014 25.2296 36.5889 26.2793 37.0763 26.4292C37.1138 26.4292 37.5261 26.6167 38.0135 26.5417ZM35.5393 18.5567C35.5018 18.5192 35.4643 18.2943 35.5393 18.5567ZM38.051 15.5576C38.8007 15.5576 39.3631 14.9203 39.3631 14.1331C39.3631 13.3833 38.8007 12.7085 38.051 12.7085C37.2637 12.7085 36.7014 13.3458 36.7014 14.1331C36.7014 14.8828 37.2637 15.5576 38.051 15.5576ZM23.693 13.6457C24.3303 13.5333 24.7426 13.5333 25.0425 13.6457C25.1925 13.6832 25.4549 13.9831 25.4549 14.2455C25.4549 14.3955 25.5674 14.8454 25.5674 15.2202V27.329C25.5674 27.6664 25.7923 29.3533 23.7679 30.5529V31.3027L30.1035 29.2409V28.3037C29.0913 28.3037 28.529 27.8538 28.529 27.254V20.5061C29.2037 20.3561 29.6161 20.2437 29.991 20.2437C30.2909 20.2437 30.6658 20.3936 30.8907 20.5811C31.0407 20.6935 31.2656 20.9559 31.3031 21.1809C31.3406 21.3308 31.528 21.7807 31.5655 22.1181L31.7904 23.1678H32.2403V15.8575H31.603C31.5655 16.3824 31.4905 16.9072 31.4905 16.9822C31.453 17.3571 31.2281 17.8069 31.1156 18.0693C30.9657 18.4067 30.5908 18.7816 30.2909 18.9316C29.6536 19.269 29.0913 19.3814 28.454 19.5689V13.5333C28.454 12.896 28.454 12.4461 29.0913 12.0712L29.3162 11.9588C30.3659 11.3215 31.528 11.6963 32.0903 11.9962C32.7276 12.2587 33.29 13.6457 33.5149 14.7329L33.6274 15.1828H34.1147V9.33458L23.6555 12.9709V13.6457H23.693Z" fill="white"/>
<path fill-rule="evenodd" clip-rule="evenodd" d="M89.4092 9.89691H104.817V14.1331H95.1074V17.9194H101.48V22.0806H95.1074V30.1031H89.4092V9.89691Z" fill="white"/>
<path fill-rule="evenodd" clip-rule="evenodd" d="M106.316 15.8575H111.265V30.1031H106.316V15.8575ZM106.316 9.89691H111.265V13.9831H106.316V9.89691Z" fill="white"/>
<path fill-rule="evenodd" clip-rule="evenodd" d="M118.913 26.1293C119.251 26.8041 119.851 27.179 120.638 27.179C121.425 27.179 122.025 26.8416 122.362 26.1293C122.7 25.4545 122.887 24.4049 122.887 22.9803C122.887 21.5558 122.7 20.5061 122.362 19.8313C122.025 19.1565 121.425 18.8191 120.638 18.8191C119.851 18.8191 119.251 19.1565 118.913 19.8313C118.576 20.5061 118.389 21.5558 118.389 22.9803C118.389 24.4049 118.576 25.4545 118.913 26.1293ZM113.74 20.0562C114.115 19.119 114.64 18.3318 115.277 17.657C115.952 16.9822 116.739 16.4573 117.639 16.0825C118.539 15.7076 119.551 15.5201 120.638 15.5201C121.725 15.5201 122.7 15.7076 123.637 16.0825C124.574 16.4573 125.361 16.9822 125.999 17.6195C126.674 18.2943 127.161 19.0815 127.536 19.9812C127.911 20.9185 128.098 21.8932 128.098 23.0178C128.098 24.105 127.911 25.1171 127.536 26.0169C127.161 26.9166 126.636 27.7038 125.999 28.3786C125.324 29.0534 124.537 29.5408 123.637 29.9156C122.737 30.2905 121.725 30.478 120.638 30.478C119.551 30.478 118.539 30.2905 117.639 29.9156C116.739 29.5408 115.952 29.0159 115.277 28.3786C114.602 27.7038 114.115 26.9166 113.74 26.0169C113.365 25.1171 113.178 24.105 113.178 23.0178C113.178 21.9681 113.365 20.9559 113.74 20.0562Z" fill="white"/>
<path fill-rule="evenodd" clip-rule="evenodd" d="M146.242 27.6664C147.142 27.6664 147.779 27.2915 148.079 26.5792C148.379 25.8669 148.566 24.6673 148.566 23.0178C148.566 21.5183 148.417 20.4311 148.154 19.7563C147.854 19.0815 147.329 18.7067 146.542 18.7067C146.205 18.7067 145.867 18.7816 145.53 18.9691C145.193 19.119 144.855 19.3814 144.48 19.7563V25.3421C144.48 26.8791 145.043 27.6664 146.242 27.6664ZM139.494 28.9784C139.532 28.6411 139.532 28.3037 139.532 28.0412V9.89691H144.48V17.4695C145.08 16.8322 145.642 16.3824 146.242 16.0825C146.842 15.7826 147.517 15.6326 148.229 15.6326C149.954 15.6326 151.341 16.2699 152.315 17.507C153.29 18.7441 153.815 20.5061 153.815 22.8304C153.815 25.2296 153.29 27.0665 152.203 28.3786C151.116 29.6907 149.654 30.3655 147.779 30.3655C145.905 30.3655 144.443 29.6157 143.356 28.1537L142.531 30.0656H139.382C139.419 29.6907 139.457 29.3158 139.494 28.9784Z" fill="white"/>
<path fill-rule="evenodd" clip-rule="evenodd" d="M163.412 23.6176C161.087 23.7676 159.925 24.4799 159.925 25.7919C159.925 26.8416 160.413 27.3665 161.425 27.3665C161.762 27.3665 162.1 27.2915 162.437 27.179C162.737 27.0665 163.074 26.8791 163.412 26.6167V23.6176ZM168.36 29.3908C168.398 29.6157 168.435 29.8782 168.51 30.1031H163.599C163.487 29.8032 163.412 29.3908 163.412 28.866C162.1 29.8782 160.638 30.403 158.988 30.403C157.788 30.403 156.851 30.0281 156.139 29.2784C155.427 28.5286 155.052 27.5539 155.052 26.3543C155.052 24.7048 155.764 23.3927 157.151 22.493C158.576 21.5933 160.638 21.1434 163.412 21.1059V19.8688C163.412 19.4939 163.262 19.1565 162.962 18.9316C162.662 18.7067 162.25 18.5942 161.762 18.5942C161.275 18.5942 160.862 18.7441 160.525 19.0441C160.188 19.344 159.963 19.7563 159.85 20.3187L155.689 19.4189C156.101 18.1443 156.814 17.2071 157.826 16.5698C158.838 15.97 160.188 15.6701 161.912 15.6701C164.086 15.6701 165.698 16.0075 166.748 16.7198C167.798 17.3946 168.323 18.4817 168.323 19.9438V28.6411C168.323 28.9035 168.323 29.1284 168.36 29.3908Z" fill="white"/>
<path fill-rule="evenodd" clip-rule="evenodd" d="M170.797 15.8575H175.708V17.9194C176.608 17.1696 177.432 16.6073 178.22 16.2324C179.007 15.8575 179.794 15.6701 180.656 15.6701C182.006 15.6701 182.943 16.045 183.505 16.8322C184.068 17.6195 184.33 18.7816 184.33 20.3936V30.1031H179.382V21.6307C179.382 20.7685 179.307 20.1312 179.157 19.7188C179.007 19.3065 178.632 19.0815 178.032 19.0815C177.695 19.0815 177.357 19.194 176.982 19.3814C176.608 19.5689 176.195 19.8688 175.745 20.2812V30.1031H170.834V15.8575H170.797Z" fill="white"/>
<path fill-rule="evenodd" clip-rule="evenodd" d="M186.842 9.89691H191.678V21.1059L196.551 15.8575H201.5L197.076 20.4686L201.425 30.1031H195.951L193.44 24.2174L191.678 26.0169V30.1031H186.842V9.89691Z" fill="white"/>
<path fill-rule="evenodd" clip-rule="evenodd" d="M210.384 23.6176C208.059 23.7676 206.897 24.4799 206.897 25.7919C206.897 26.8416 207.385 27.3665 208.397 27.3665C208.734 27.3665 209.072 27.2915 209.409 27.179C209.709 27.0665 210.046 26.8791 210.384 26.6167V23.6176ZM215.332 29.3908C215.37 29.6157 215.407 29.8782 215.482 30.1031H210.571C210.459 29.8032 210.384 29.3908 210.384 28.866C209.072 29.8782 207.61 30.403 205.96 30.403C204.76 30.403 203.823 30.0281 203.073 29.2784C202.361 28.5286 201.986 27.5539 201.986 26.3543C201.986 24.7048 202.699 23.3927 204.086 22.493C205.51 21.5933 207.572 21.1434 210.346 21.1059V19.8688C210.346 19.4939 210.196 19.1565 209.896 18.9316C209.596 18.7067 209.184 18.5942 208.697 18.5942C208.209 18.5942 207.797 18.7441 207.46 19.0441C207.122 19.344 206.897 19.7563 206.785 20.3187L202.624 19.4189C203.036 18.1443 203.748 17.2071 204.76 16.5698C205.773 15.97 207.122 15.6701 208.847 15.6701C211.021 15.6701 212.633 16.0075 213.683 16.7198C214.732 17.3946 215.257 18.4817 215.257 19.9438V28.6411C215.295 28.9035 215.295 29.1284 215.332 29.3908Z" fill="white"/>
<path fill-rule="evenodd" clip-rule="evenodd" d="M89.4092 9.89691H104.817V14.1331H95.1074V17.9194H101.48V22.0806H95.1074V30.1031H89.4092V9.89691Z" fill="white"/>
<path fill-rule="evenodd" clip-rule="evenodd" d="M106.316 15.8575H111.265V30.1031H106.316V15.8575ZM106.316 9.89691H111.265V13.9831H106.316V9.89691Z" fill="white"/>
<path fill-rule="evenodd" clip-rule="evenodd" d="M118.913 26.1293C119.251 26.8041 119.851 27.179 120.638 27.179C121.425 27.179 122.025 26.8416 122.362 26.1293C122.7 25.4545 122.887 24.4049 122.887 22.9803C122.887 21.5558 122.7 20.5061 122.362 19.8313C122.025 19.1565 121.425 18.8191 120.638 18.8191C119.851 18.8191 119.251 19.1565 118.913 19.8313C118.576 20.5061 118.389 21.5558 118.389 22.9803C118.389 24.4049 118.576 25.4545 118.913 26.1293ZM113.74 20.0562C114.115 19.119 114.64 18.3318 115.277 17.657C115.952 16.9822 116.739 16.4573 117.639 16.0825C118.539 15.7076 119.551 15.5201 120.638 15.5201C121.725 15.5201 122.7 15.7076 123.637 16.0825C124.574 16.4573 125.361 16.9822 125.999 17.6195C126.674 18.2943 127.161 19.0815 127.536 19.9812C127.911 20.9185 128.098 21.8932 128.098 23.0178C128.098 24.105 127.911 25.1171 127.536 26.0169C127.161 26.9166 126.636 27.7038 125.999 28.3786C125.324 29.0534 124.537 29.5408 123.637 29.9156C122.737 30.2905 121.725 30.478 120.638 30.478C119.551 30.478 118.539 30.2905 117.639 29.9156C116.739 29.5408 115.952 29.0159 115.277 28.3786C114.602 27.7038 114.115 26.9166 113.74 26.0169C113.365 25.1171 113.178 24.105 113.178 23.0178C113.178 21.9681 113.365 20.9559 113.74 20.0562Z" fill="white"/>
<path fill-rule="evenodd" clip-rule="evenodd" d="M146.242 27.6664C147.142 27.6664 147.779 27.2915 148.079 26.5792C148.379 25.8669 148.566 24.6673 148.566 23.0178C148.566 21.5183 148.417 20.4311 148.154 19.7563C147.854 19.0815 147.329 18.7067 146.542 18.7067C146.205 18.7067 145.867 18.7816 145.53 18.9691C145.193 19.119 144.855 19.3814 144.48 19.7563V25.3421C144.48 26.8791 145.043 27.6664 146.242 27.6664ZM139.494 28.9784C139.532 28.6411 139.532 28.3037 139.532 28.0412V9.89691H144.48V17.4695C145.08 16.8322 145.642 16.3824 146.242 16.0825C146.842 15.7826 147.517 15.6326 148.229 15.6326C149.954 15.6326 151.341 16.2699 152.315 17.507C153.29 18.7441 153.815 20.5061 153.815 22.8304C153.815 25.2296 153.29 27.0665 152.203 28.3786C151.116 29.6907 149.654 30.3655 147.779 30.3655C145.905 30.3655 144.443 29.6157 143.356 28.1537L142.531 30.0656H139.382C139.419 29.6907 139.457 29.3158 139.494 28.9784Z" fill="white"/>
<path fill-rule="evenodd" clip-rule="evenodd" d="M163.412 23.6176C161.087 23.7676 159.925 24.4799 159.925 25.7919C159.925 26.8416 160.413 27.3665 161.425 27.3665C161.762 27.3665 162.1 27.2915 162.437 27.179C162.737 27.0665 163.074 26.8791 163.412 26.6167V23.6176ZM168.36 29.3908C168.398 29.6157 168.435 29.8782 168.51 30.1031H163.599C163.487 29.8032 163.412 29.3908 163.412 28.866C162.1 29.8782 160.638 30.403 158.988 30.403C157.788 30.403 156.851 30.0281 156.139 29.2784C155.427 28.5286 155.052 27.5539 155.052 26.3543C155.052 24.7048 155.764 23.3927 157.151 22.493C158.576 21.5933 160.638 21.1434 163.412 21.1059V19.8688C163.412 19.4939 163.262 19.1565 162.962 18.9316C162.662 18.7067 162.25 18.5942 161.762 18.5942C161.275 18.5942 160.862 18.7441 160.525 19.0441C160.188 19.344 159.963 19.7563 159.85 20.3187L155.689 19.4189C156.101 18.1443 156.814 17.2071 157.826 16.5698C158.838 15.97 160.188 15.6701 161.912 15.6701C164.086 15.6701 165.698 16.0075 166.748 16.7198C167.798 17.3946 168.323 18.4817 168.323 19.9438V28.6411C168.323 28.9035 168.323 29.1284 168.36 29.3908Z" fill="white"/>
<path fill-rule="evenodd" clip-rule="evenodd" d="M170.797 15.8575H175.708V17.9194C176.608 17.1696 177.432 16.6073 178.22 16.2324C179.007 15.8575 179.794 15.6701 180.656 15.6701C182.006 15.6701 182.943 16.045 183.505 16.8322C184.068 17.6195 184.33 18.7816 184.33 20.3936V30.1031H179.382V21.6307C179.382 20.7685 179.307 20.1312 179.157 19.7188C179.007 19.3065 178.632 19.0815 178.032 19.0815C177.695 19.0815 177.357 19.194 176.982 19.3814C176.608 19.5689 176.195 19.8688 175.745 20.2812V30.1031H170.834V15.8575H170.797Z" fill="white"/>
<path fill-rule="evenodd" clip-rule="evenodd" d="M186.842 9.89691H191.678V21.1059L196.551 15.8575H201.5L197.076 20.4686L201.425 30.1031H195.951L193.44 24.2174L191.678 26.0169V30.1031H186.842V9.89691Z" fill="white"/>
<path fill-rule="evenodd" clip-rule="evenodd" d="M210.384 23.6176C208.059 23.7676 206.897 24.4799 206.897 25.7919C206.897 26.8416 207.385 27.3665 208.397 27.3665C208.734 27.3665 209.072 27.2915 209.409 27.179C209.709 27.0665 210.046 26.8791 210.384 26.6167V23.6176ZM215.332 29.3908C215.37 29.6157 215.407 29.8782 215.482 30.1031H210.571C210.459 29.8032 210.384 29.3908 210.384 28.866C209.072 29.8782 207.61 30.403 205.96 30.403C204.76 30.403 203.823 30.0281 203.073 29.2784C202.361 28.5286 201.986 27.5539 201.986 26.3543C201.986 24.7048 202.699 23.3927 204.086 22.493C205.51 21.5933 207.572 21.1434 210.346 21.1059V19.8688C210.346 19.4939 210.196 19.1565 209.896 18.9316C209.596 18.7067 209.184 18.5942 208.697 18.5942C208.209 18.5942 207.797 18.7441 207.46 19.0441C207.122 19.344 206.897 19.7563 206.785 20.3187L202.624 19.4189C203.036 18.1443 203.748 17.2071 204.76 16.5698C205.773 15.97 207.122 15.6701 208.847 15.6701C211.021 15.6701 212.633 16.0075 213.683 16.7198C214.732 17.3946 215.257 18.4817 215.257 19.9438V28.6411C215.295 28.9035 215.295 29.1284 215.332 29.3908Z" fill="white"/>
</svg>
