<svg width="198" height="40" viewBox="0 0 198 40" fill="none" xmlns="http://www.w3.org/2000/svg">
<path fill-rule="evenodd" clip-rule="evenodd" d="M198 39.5775H188.518L180.359 27.1518H176.501V39.5775H168.137V0H176.501V20.7981H180.359L188.077 10.8764H197.417L187.605 23.4742L198 39.5775ZM162.703 23.1455V39.5775H154.339V24.4288C154.339 19.7809 152.182 17.6526 148.48 17.6526C144.464 17.6526 141.566 20.1095 141.566 25.3834V39.5775H133.202V17.277H129.973V10.8764H139.896L140.337 15.3521C142.527 12.1596 146.291 10.4538 150.733 10.4538C157.553 10.4538 162.703 14.3975 162.703 23.1455ZM126.004 10.8764V39.5775H118.019V36.2598C115.924 38.7793 112.868 40 109.009 40C100.851 40 94.582 34.241 94.582 25.2269C94.582 16.2128 100.851 10.4538 109.009 10.4538C112.553 10.4538 115.546 11.5649 117.641 13.9124V10.8764H126.004ZM117.798 25.2269C117.798 20.266 114.585 17.277 110.459 17.277C106.269 17.277 103.04 20.266 103.04 25.2269C103.04 30.1878 106.269 33.1768 110.459 33.1768C114.585 33.1768 117.798 30.1878 117.798 25.2269ZM91.9989 29.3897C91.9989 35.8372 86.8485 39.5775 76.9729 39.5775H58.529V9.28013H54.5599V2.23787H75.9018C85.2891 2.23787 90.1246 6.11894 90.1246 11.9405C90.1246 15.6808 88.1873 18.5603 85.1316 20.1565C89.3213 21.4867 91.9989 24.6948 91.9989 29.3897ZM67.1603 8.74804V17.543H74.8308C79.0677 17.543 81.383 16.0563 81.383 13.1142C81.383 10.1878 79.0677 8.74804 74.8308 8.74804H67.1603ZM83.1943 28.482C83.1943 25.3365 80.8475 23.8341 76.3271 23.8341H67.1603V33.0673H76.3271C80.8475 33.0673 83.1943 31.6745 83.1943 28.482ZM51.9768 23.1455V39.5775H43.6132V24.4288C43.6132 19.7809 41.5184 17.6526 38.1478 17.6526C34.3834 17.6526 31.7688 20.0469 31.7688 25.1643V39.5775H23.3895V24.4288C23.3895 19.7809 21.405 17.6526 17.9241 17.6526C14.2227 17.6526 11.5924 20.0469 11.5924 25.1643V39.5775H3.22886V17.277H0V10.8764H9.92284L10.3639 15.3052C12.4429 12.1596 16.0498 10.4538 20.2867 10.4538C24.3031 10.4538 27.7367 11.9875 29.7685 15.1487C32.0838 12.2066 35.8325 10.4538 40.1796 10.4538C47.0469 10.4538 51.9768 14.3975 51.9768 23.1455Z" fill="white"/>
</svg>
