<svg width="296" height="40" viewBox="0 0 296 40" fill="none" xmlns="http://www.w3.org/2000/svg">
<mask id="mask0_358_2158" style="mask-type:luminance" maskUnits="userSpaceOnUse" x="0" y="0" width="35" height="40">
<path d="M17.4735 16.8955L0 0V40L17.3915 23.1819L20.686 20.0035H20.6815L30.4852 10.5205V29.4841L23.894 23.1068L20.6792 26.2056L34.9468 40V0L17.4757 16.8955H17.4735ZM4.45936 29.4796V10.5159L14.2631 19.9965L4.45936 29.4796Z" fill="white"/>
</mask>
<g mask="url(#mask0_358_2158)">
<path d="M-20.001 19.9965L17.4737 -17.4757L54.946 19.9965L17.4737 57.4711L-20.001 19.9965Z" fill="white"/>
</g>
<path d="M70.5875 30.8947H75.0172V8.19294L62.5902 24.704L50.1631 8.19294V30.8947H54.5907V20.9225L62.5902 31.7729L70.5875 20.9225V30.8947ZM97.0796 19.9829C97.0796 23.8553 93.9763 26.9928 90.1382 26.9928C86.2999 26.9928 83.2011 23.8553 83.2011 19.9829C83.2011 16.1105 86.3067 12.9708 90.1382 12.9708C93.9695 12.9708 97.0796 16.106 97.0796 19.9829ZM101.739 19.9829C101.739 13.6852 96.545 8.57516 90.1382 8.57516C83.7312 8.57516 78.5415 13.6829 78.5415 19.9829C78.5415 26.2829 83.738 31.3884 90.1382 31.3884C96.5382 31.3884 101.739 26.2784 101.739 19.9829ZM109.068 17.4097L126.279 31.7729V9.07343H121.85V22.5607L104.638 8.19294V30.8947H109.068V17.412V17.4097ZM130.661 30.8947H147.452V26.8995H135.219V21.9305H146.929V18.0376H135.219V13.146H147.452V9.07343H130.661V30.8924V30.8947ZM169.379 13.146L171.749 9.07343H149.96V13.146H156.531V30.8924H161.088V13.146H169.376H169.379ZM180.527 23.1432H173.367L176.935 16.7817L180.527 23.1432ZM184.923 30.8924H189.955L176.967 8.19066L163.984 30.8924H169.005L171.351 26.7129H182.563L184.923 30.8924ZM215.576 24.2989C215.576 25.8188 214.352 27.0428 212.329 27.0428H205.645V21.5528H212.329C214.352 21.5528 215.576 22.7768 215.576 24.2967M214.955 15.4144C214.955 16.7544 213.867 17.8671 211.999 17.8671H205.647V12.9731H211.999C213.869 12.9731 214.955 14.0697 214.955 15.4167M216.859 19.2321C218.361 18.4359 219.432 16.9 219.432 14.8843C219.432 11.5625 216.843 9.07343 212.712 9.07343H201.092V30.8969H213.121C217.273 30.8969 220.237 27.9415 220.237 24.2921C220.237 21.7303 218.904 19.9875 216.857 19.2344M237.036 23.1432H229.867L233.445 16.7795L237.036 23.1432ZM241.436 30.8947H246.477L233.472 8.19294L220.484 30.8947H225.513L227.857 26.7175H239.079L241.436 30.8947ZM253.155 17.4143L270.356 31.7729V9.07115H265.935V22.5516L248.716 8.19294V30.8947H253.153L253.155 17.4143ZM285.607 17.842L294.944 9.07115H288.771L279.124 18.1332V9.07115H274.573V30.8947H279.124V23.9099L282.319 20.9317L289.936 30.8947H295.583L285.607 17.842Z" fill="white"/>
</svg>
