<svg width="158" height="41" viewBox="0 0 158 41" fill="none" xmlns="http://www.w3.org/2000/svg">
<path d="M59.1479 18.1534L55.6351 11.7721H54.2123V18.1534H50.7969V2.02118H57.2755C58.3835 2.02118 59.3397 2.20727 60.147 2.57944C60.9543 2.95161 61.5698 3.49269 61.9964 4.20555C62.423 4.9184 62.6377 5.77154 62.6377 6.76781C62.6377 7.93873 62.3256 8.91783 61.7015 9.71084C61.0774 10.5039 60.1871 11.0564 59.0333 11.3713L62.9498 18.1563H59.1536L59.1479 18.1534ZM54.2123 4.96135V9.0667H56.869C57.5819 9.0667 58.1258 8.8892 58.5066 8.53421C58.8873 8.17921 59.0763 7.66103 59.0763 6.97967C59.0763 6.2983 58.8873 5.75436 58.5066 5.43658C58.1258 5.1188 57.5733 4.96135 56.8461 4.96135H54.2123Z" fill="white"/>
<path d="M72.7437 5.60263H75.993V18.1534H72.7437V16.659C72.3314 17.2287 71.8104 17.6753 71.1777 17.9989C70.545 18.3224 69.8322 18.4855 69.042 18.4855C68.0142 18.4855 67.0952 18.205 66.2908 17.6439C65.4835 17.0827 64.8565 16.2983 64.4042 15.2934C63.9518 14.2886 63.7285 13.1549 63.7285 11.8895C63.7285 10.6241 63.9547 9.46464 64.4042 8.45977C64.8536 7.45491 65.4835 6.67334 66.2908 6.11222C67.0981 5.5511 68.0142 5.27054 69.042 5.27054C69.8322 5.27054 70.545 5.43658 71.1777 5.76868C71.8104 6.10077 72.3314 6.5531 72.7437 7.12281V5.60263ZM71.4611 15.1159C71.8877 14.8325 72.2255 14.4145 72.4689 13.8706C72.7151 13.3238 72.8353 12.6653 72.8353 11.8895C72.8353 11.1137 72.7122 10.4552 72.4689 9.90839C72.2226 9.36444 71.8877 8.94646 71.4611 8.66304C71.0346 8.37961 70.545 8.23647 69.9896 8.23647C69.4342 8.23647 68.9418 8.37961 68.5066 8.66304C68.0715 8.94646 67.7365 9.36444 67.4989 9.90839C67.2613 10.4552 67.1439 11.1137 67.1439 11.8895C67.1439 12.6653 67.2613 13.3238 67.4989 13.8706C67.7365 14.4145 68.0715 14.8325 68.5066 15.1159C68.9418 15.4022 69.4371 15.5425 69.9896 15.5425C70.5421 15.5425 71.0346 15.3994 71.4611 15.1159Z" fill="white"/>
<path d="M79.0442 3.31234C78.6892 2.95734 78.5117 2.49356 78.5117 1.92385C78.5117 1.35414 78.6892 0.890352 79.0442 0.535356C79.3992 0.180361 79.863 0 80.4327 0C81.0024 0 81.4605 0.177498 81.8097 0.535356C82.1561 0.890352 82.3308 1.35414 82.3308 1.92385C82.3308 2.49356 82.1561 2.95734 81.8097 3.31234C81.4605 3.66733 81.0024 3.8477 80.4327 3.8477C79.863 3.8477 79.3992 3.6702 79.0442 3.31234ZM82.0216 18.1534H78.7722V5.60263H82.0216V18.1534Z" fill="white"/>
<path d="M88.9729 5.60262H92.4141V8.45118H88.9729V18.1563H85.7236V8.45118H83.5879V5.60262H85.7236V4.84396C85.7236 3.46692 86.1187 2.41625 86.9088 1.68908C87.699 0.961912 88.784 0.598328 90.1582 0.598328C90.6649 0.598328 91.1459 0.644134 91.6068 0.741471C92.0648 0.835946 92.4857 0.964775 92.8636 1.12223L92.0334 3.61293C91.6068 3.43829 91.1401 3.35241 90.6334 3.35241C90.0465 3.35241 89.6257 3.48696 89.3652 3.75607C89.1046 4.02518 88.9729 4.43743 88.9729 4.98997V5.60548V5.60262Z" fill="white"/>
<path d="M97.2786 5.60262H100.72V8.45118H97.2786V18.1563H94.0293V8.45118H91.8936V5.60262H94.0293V4.84396C94.0293 3.46692 94.4243 2.41625 95.2145 1.68908C96.0046 0.961912 97.0897 0.598328 98.4638 0.598328C98.9706 0.598328 99.4515 0.644134 99.9125 0.741471C100.371 0.835946 100.791 0.964775 101.169 1.12223L100.339 3.61293C99.9124 3.43829 99.4458 3.35241 98.9391 3.35241C98.3522 3.35241 97.9314 3.48696 97.6708 3.75607C97.4103 4.02518 97.2786 4.43743 97.2786 4.98997V5.60548V5.60262Z" fill="white"/>
<path d="M113.364 13.0289H104.893C105.005 13.9794 105.311 14.6665 105.818 15.093C106.325 15.5196 107.066 15.7343 108.048 15.7343C108.727 15.7343 109.356 15.637 109.935 15.4395C110.513 15.2419 111.014 14.9614 111.441 14.5978L112.84 16.8279C112.208 17.3662 111.472 17.7784 110.633 18.0618C109.794 18.3453 108.893 18.4884 107.928 18.4884C106.568 18.4884 105.397 18.2279 104.415 17.7068C103.433 17.1858 102.686 16.4329 102.173 15.4538C101.658 14.4718 101.403 13.3095 101.403 11.9668C101.403 10.6241 101.655 9.46751 102.162 8.45405C102.669 7.4406 103.384 6.65904 104.309 6.10364C105.234 5.55111 106.29 5.27341 107.475 5.27341C108.661 5.27341 109.697 5.54252 110.585 6.08074C111.469 6.61896 112.153 7.3862 112.637 8.38248C113.118 9.37876 113.362 10.5497 113.362 11.8952V13.0346L113.364 13.0289ZM104.893 10.7987H110.089C110.009 9.86545 109.749 9.16977 109.308 8.71171C108.864 8.25365 108.263 8.02462 107.504 8.02462C105.987 8.02462 105.116 8.94933 104.893 10.8016V10.7987Z" fill="white"/>
<path d="M115.632 3.31234C115.277 2.95734 115.1 2.49356 115.1 1.92385C115.1 1.35414 115.277 0.890352 115.632 0.535356C115.987 0.180361 116.451 0 117.021 0C117.59 0 118.048 0.177498 118.398 0.535356C118.744 0.890352 118.919 1.35414 118.919 1.92385C118.919 2.49356 118.744 2.95734 118.398 3.31234C118.048 3.66733 117.59 3.8477 117.021 3.8477C116.451 3.8477 115.987 3.6702 115.632 3.31234ZM118.609 18.1534H115.36V5.60263H118.609V18.1534Z" fill="white"/>
<path d="M122.761 18.0704C121.873 17.7927 121.123 17.3633 120.508 16.7764L122.025 14.4518C122.958 15.3364 124.144 15.7801 125.584 15.7801C126.216 15.7801 126.694 15.6828 127.018 15.4824C127.341 15.2849 127.505 14.9871 127.505 14.592C127.505 14.2599 127.359 13.988 127.067 13.7733C126.775 13.5585 126.239 13.3581 125.466 13.1692C124.47 12.9488 123.651 12.7025 123.01 12.4334C122.369 12.1643 121.85 11.7836 121.455 11.294C121.06 10.8045 120.863 10.1632 120.863 9.37303C120.863 8.53421 121.078 7.80704 121.504 7.19152C121.931 6.57601 122.54 6.10077 123.331 5.76868C124.121 5.43658 125.04 5.27054 126.082 5.27054C127.061 5.27054 127.968 5.41368 128.799 5.69711C129.629 5.98053 130.336 6.40137 130.923 6.95391L129.406 9.18408C128.979 8.789 128.472 8.4884 127.888 8.28228C127.304 8.07615 126.694 7.97309 126.062 7.97309C125.429 7.97309 125.003 8.06756 124.685 8.25937C124.367 8.44832 124.209 8.73461 124.209 9.11251C124.209 9.33295 124.275 9.51904 124.41 9.67077C124.544 9.8225 124.776 9.96564 125.111 10.1088C125.446 10.2519 125.919 10.3922 126.534 10.5354C127.387 10.7415 128.123 10.9877 128.741 11.2711C129.36 11.5545 129.864 11.9582 130.259 12.4821C130.654 13.0031 130.851 13.6673 130.851 14.4747C130.851 15.282 130.645 15.9863 130.233 16.5875C129.821 17.1887 129.22 17.6553 128.429 17.9874C127.639 18.3195 126.689 18.4855 125.581 18.4855C124.585 18.4855 123.643 18.3481 122.758 18.0704H122.761Z" fill="white"/>
<path d="M144.138 13.0289H135.667C135.778 13.9794 136.085 14.6665 136.591 15.093C137.098 15.5196 137.84 15.7343 138.821 15.7343C139.5 15.7343 140.13 15.637 140.708 15.4395C141.286 15.2419 141.787 14.9614 142.214 14.5978L143.614 16.8279C142.981 17.3662 142.245 17.7784 141.407 18.0618C140.568 18.3453 139.666 18.4884 138.701 18.4884C137.341 18.4884 136.17 18.2279 135.188 17.7068C134.207 17.1858 133.459 16.4329 132.947 15.4538C132.432 14.4718 132.177 13.3095 132.177 11.9668C132.177 10.6241 132.429 9.46751 132.935 8.45405C133.442 7.4406 134.158 6.65904 135.083 6.10364C136.007 5.55111 137.064 5.27341 138.249 5.27341C139.434 5.27341 140.47 5.54252 141.358 6.08074C142.243 6.61896 142.927 7.3862 143.411 8.38248C143.892 9.37876 144.135 10.5497 144.135 11.8952V13.0346L144.138 13.0289ZM135.667 10.7987H140.863C140.783 9.86545 140.522 9.16977 140.081 8.71171C139.637 8.25365 139.036 8.02462 138.278 8.02462C136.76 8.02462 135.89 8.94933 135.667 10.8016V10.7987Z" fill="white"/>
<path d="M155.469 5.8517C156.141 6.23819 156.66 6.80504 157.023 7.54938C157.387 8.29373 157.57 9.18694 157.57 10.2319V18.1563H154.295V10.6356C154.295 9.82823 154.109 9.22416 153.737 8.8205C153.364 8.41683 152.8 8.21643 152.039 8.21643C151.469 8.21643 150.968 8.3424 150.533 8.59719C150.098 8.85199 149.714 9.22989 149.382 9.73661V18.1592H146.133V5.60263H149.382V7.07415C149.777 6.50444 150.295 6.06069 150.937 5.74577C151.578 5.43086 152.294 5.27054 153.084 5.27054C154 5.27054 154.796 5.46521 155.469 5.8517Z" fill="white"/>
<path d="M61.9964 32.6567C62.4545 33.3123 62.6835 34.1168 62.6835 35.0644C62.6835 36.5359 62.2111 37.6725 61.2721 38.4684C60.3302 39.2671 58.999 39.6679 57.2755 39.6679H50.7969V23.5328H56.7058C58.415 23.5328 59.7347 23.8992 60.668 24.635C61.6013 25.3707 62.068 26.41 62.068 27.7555C62.068 29.353 61.3809 30.501 60.0039 31.1967C60.8742 31.5145 61.5384 32.0011 61.9964 32.6567ZM54.2123 26.4271V30.2004H56.4425C57.1696 30.2004 57.705 30.0429 58.0428 29.7252C58.3835 29.4102 58.5524 28.9436 58.5524 28.3252C58.5524 27.6467 58.3692 27.16 58.0056 26.8652C57.642 26.5731 57.0952 26.4271 56.368 26.4271H54.2094H54.2123ZM56.869 36.7707C57.6134 36.7707 58.1688 36.6132 58.5409 36.2954C58.9131 35.9805 59.0992 35.4738 59.0992 34.7781C59.0992 34.1283 58.9217 33.6473 58.5667 33.3295C58.2117 33.0146 57.622 32.8543 56.8003 32.8543H54.2151V36.7707H56.8719H56.869Z" fill="white"/>
<path d="M72.9585 27.1171H76.2079V39.6679H72.9585V38.1735C72.5463 38.7432 72.0252 39.1898 71.3925 39.5133C70.7599 39.8368 70.047 40 69.2568 40C68.2291 40 67.3101 39.7194 66.5056 39.1583C65.6983 38.5972 65.0713 37.8128 64.619 36.8079C64.1667 35.803 63.9434 34.6693 63.9434 33.404C63.9434 32.1386 64.1695 30.9791 64.619 29.9742C65.0685 28.9694 65.6983 28.1878 66.5056 27.6267C67.313 27.0656 68.2291 26.785 69.2568 26.785C70.047 26.785 70.7599 26.951 71.3925 27.2831C72.0252 27.6152 72.5463 28.0676 72.9585 28.6373V27.1171ZM71.676 36.6304C72.1025 36.347 72.4404 35.929 72.6837 35.3851C72.9299 34.8383 73.0501 34.1798 73.0501 33.404C73.0501 32.6281 72.927 31.9697 72.6837 31.4228C72.4375 30.8789 72.1025 30.4609 71.676 30.1775C71.2494 29.8941 70.7598 29.7509 70.2045 29.7509C69.6491 29.7509 69.1566 29.8941 68.7215 30.1775C68.2863 30.4609 67.9514 30.8789 67.7138 31.4228C67.4761 31.9697 67.3588 32.6281 67.3588 33.404C67.3588 34.1798 67.4761 34.8383 67.7138 35.3851C67.9514 35.929 68.2863 36.347 68.7215 36.6304C69.1566 36.9167 69.6519 37.057 70.2045 37.057C70.757 37.057 71.2494 36.9138 71.676 36.6304Z" fill="white"/>
<path d="M88.3202 27.3661C88.993 27.7526 89.5111 28.3195 89.8747 29.0638C90.2383 29.8082 90.4215 30.7014 90.4215 31.7463V39.6708H87.1464V32.15C87.1464 31.3427 86.9603 30.7386 86.5882 30.3349C86.216 29.9313 85.652 29.7309 84.8905 29.7309C84.3208 29.7309 83.8198 29.8568 83.3846 30.1116C82.9494 30.3664 82.5658 30.7443 82.2337 31.2511V39.6736H78.9844V27.1228H82.2337V28.5943C82.6288 28.0246 83.147 27.5809 83.7883 27.2659C84.4296 26.951 85.1453 26.7907 85.9354 26.7907C86.8515 26.7907 87.6474 26.9854 88.3202 27.3719V27.3661Z" fill="white"/>
<path d="M99.3427 32.9774L104.373 39.6679H100.482L96.1878 33.9737V39.6679H92.9385V22.5852H96.1878V32.2187L100.27 27.1171H104.138L99.3456 32.9774H99.3427Z" fill="white"/>
<mask id="path-15-outside-1_358_2165" maskUnits="userSpaceOnUse" x="0" y="1.01831" width="40" height="40" fill="black">
<rect fill="white" y="1.01831" width="40" height="40"/>
<path d="M38.6465 39.6677H1V2.01831H38.6465V39.6677ZM13.834 8.61108C12.955 7.73217 10.4042 6.28152 7.85352 8.76636C5.57779 10.9849 5.33403 13.8185 5.33398 14.6433L5.34277 14.6521L6.625 13.3699L11.4229 18.1677L12.7461 16.8455V13.6843L14.1055 15.0447V18.866L15.9785 20.739L6.26172 30.4548L10.1064 34.2996L19.8232 24.5837L29.5391 34.2996L33.3848 30.4548L23.668 20.739L25.54 18.866V15.0447L26.9004 13.6843V16.8455L28.2227 18.1677L33.0205 13.3699L34.3037 14.6521L34.3115 14.6433C34.3115 13.8185 34.0684 10.9848 31.793 8.76636C29.2454 6.28178 26.6947 7.735 25.8125 8.61108L21.1914 13.2322L22.3369 14.3777L19.8232 16.8914L17.3096 14.3777L18.4541 13.2322L13.834 8.61108Z"/>
</mask>
<path d="M38.6465 39.6677V40.6677H39.6465V39.6677H38.6465ZM1 39.6677H0V40.6677H1V39.6677ZM1 2.01831V1.01831H0V2.01831H1ZM38.6465 2.01831H39.6465V1.01831H38.6465V2.01831ZM13.834 8.61108L14.5412 7.90405L14.541 7.90393L13.834 8.61108ZM7.85352 8.76636L7.15571 8.05007L7.15547 8.0503L7.85352 8.76636ZM5.33398 14.6433L4.33398 14.6433L4.33396 15.0575L4.62688 15.3504L5.33398 14.6433ZM5.34277 14.6521L4.63567 15.3592L5.34277 16.0663L6.04988 15.3592L5.34277 14.6521ZM6.625 13.3699L7.33211 12.6628L6.625 11.9557L5.91789 12.6628L6.625 13.3699ZM11.4229 18.1677L10.7157 18.8748L11.4226 19.5817L12.1297 18.8751L11.4229 18.1677ZM12.7461 16.8455L13.4529 17.5528L13.7461 17.2599V16.8455H12.7461ZM12.7461 13.6843L13.4535 12.9775L11.7461 11.2689V13.6843H12.7461ZM14.1055 15.0447H15.1055V14.6307L14.8128 14.3378L14.1055 15.0447ZM14.1055 18.866H13.1055V19.2802L13.3984 19.5731L14.1055 18.866ZM15.9785 20.739L16.6856 21.4462L17.3928 20.739L16.6856 20.0319L15.9785 20.739ZM6.26172 30.4548L5.55465 29.7477L4.84747 30.4548L5.55461 31.1619L6.26172 30.4548ZM10.1064 34.2996L9.39934 35.0067L10.1064 35.7137L10.8135 35.0067L10.1064 34.2996ZM19.8232 24.5837L20.5303 23.8766L19.8233 23.1696L19.1162 23.8766L19.8232 24.5837ZM29.5391 34.2996L28.832 35.0067L29.539 35.7137L30.2461 35.0068L29.5391 34.2996ZM33.3848 30.4548L34.0918 31.162L34.7991 30.4549L34.0918 29.7477L33.3848 30.4548ZM23.668 20.739L22.9607 20.0321L22.2539 20.7392L22.9609 21.4462L23.668 20.739ZM25.54 18.866L26.2473 19.5729L26.54 19.28V18.866H25.54ZM25.54 15.0447L24.8329 14.3376L24.54 14.6305V15.0447H25.54ZM26.9004 13.6843H27.9004V11.2701L26.1933 12.9772L26.9004 13.6843ZM26.9004 16.8455H25.9004V17.2597L26.1933 17.5526L26.9004 16.8455ZM28.2227 18.1677L27.5155 18.8748L28.2227 19.5819L28.9298 18.8748L28.2227 18.1677ZM33.0205 13.3699L33.7273 12.6625L33.0202 11.9559L32.3134 12.6628L33.0205 13.3699ZM34.3037 14.6521L33.5969 15.3595L34.3468 16.1088L35.0511 15.3165L34.3037 14.6521ZM34.3115 14.6433L35.0589 15.3077L35.3115 15.0235L35.3115 14.6433L34.3115 14.6433ZM31.793 8.76636L31.0948 9.48226L31.0949 9.48238L31.793 8.76636ZM25.8125 8.61108L25.1078 7.90154L25.1054 7.90398L25.8125 8.61108ZM21.1914 13.2322L20.4843 12.5251L19.7772 13.2322L20.4843 13.9393L21.1914 13.2322ZM22.3369 14.3777L23.044 15.0848L23.7511 14.3777L23.044 13.6706L22.3369 14.3777ZM19.8232 16.8914L19.1161 17.5985L19.8232 18.3056L20.5303 17.5985L19.8232 16.8914ZM17.3096 14.3777L16.6022 13.6709L15.8957 14.378L16.6025 15.0848L17.3096 14.3777ZM18.4541 13.2322L19.1615 13.939L19.8679 13.232L19.1613 12.5251L18.4541 13.2322ZM38.6465 39.6677V38.6677H1V39.6677V40.6677H38.6465V39.6677ZM1 39.6677H2V2.01831H1H0V39.6677H1ZM1 2.01831V3.01831H38.6465V2.01831V1.01831H1V2.01831ZM38.6465 2.01831H37.6465V39.6677H38.6465H39.6465V2.01831H38.6465ZM13.834 8.61108L14.541 7.90393C13.9857 7.34864 12.9423 6.6393 11.6207 6.43864C10.2376 6.22863 8.65028 6.59408 7.15571 8.05007L7.85352 8.76636L8.55132 9.48265C9.60743 8.45379 10.5708 8.30215 11.3205 8.41598C12.1318 8.53917 12.8033 8.99462 13.1269 9.31824L13.834 8.61108ZM7.85352 8.76636L7.15547 8.0503C4.60197 10.5396 4.33404 13.6961 4.33398 14.6433L5.33398 14.6433L6.33398 14.6434C6.33403 13.9409 6.55361 11.4301 8.55156 9.48241L7.85352 8.76636ZM5.33398 14.6433L4.62688 15.3504L4.63567 15.3592L5.34277 14.6521L6.04988 13.945L6.04109 13.9362L5.33398 14.6433ZM5.34277 14.6521L6.04988 15.3592L7.33211 14.077L6.625 13.3699L5.91789 12.6628L4.63567 13.945L5.34277 14.6521ZM6.625 13.3699L5.91789 14.077L10.7157 18.8748L11.4229 18.1677L12.13 17.4606L7.33211 12.6628L6.625 13.3699ZM11.4229 18.1677L12.1297 18.8751L13.4529 17.5528L12.7461 16.8455L12.0392 16.1381L10.716 17.4604L11.4229 18.1677ZM12.7461 16.8455H13.7461V13.6843H12.7461H11.7461V16.8455H12.7461ZM12.7461 13.6843L12.0387 14.3912L13.3981 15.7515L14.1055 15.0447L14.8128 14.3378L13.4535 12.9775L12.7461 13.6843ZM14.1055 15.0447H13.1055V18.866H14.1055H15.1055V15.0447H14.1055ZM14.1055 18.866L13.3984 19.5731L15.2714 21.4461L15.9785 20.739L16.6856 20.0319L14.8126 18.1589L14.1055 18.866ZM15.9785 20.739L15.2714 20.0319L5.55465 29.7477L6.26172 30.4548L6.96879 31.162L16.6856 21.4462L15.9785 20.739ZM6.26172 30.4548L5.55461 31.1619L9.39934 35.0067L10.1064 34.2996L10.8136 33.5925L6.96883 29.7477L6.26172 30.4548ZM10.1064 34.2996L10.8135 35.0067L20.5303 25.2909L19.8232 24.5837L19.1162 23.8766L9.39937 33.5924L10.1064 34.2996ZM19.8232 24.5837L19.1161 25.2908L28.832 35.0067L29.5391 34.2996L30.2462 33.5925L20.5303 23.8766L19.8232 24.5837ZM29.5391 34.2996L30.2461 35.0068L34.0918 31.162L33.3848 30.4548L32.6777 29.7476L28.832 33.5924L29.5391 34.2996ZM33.3848 30.4548L34.0918 29.7477L24.375 20.0319L23.668 20.739L22.9609 21.4462L32.6777 31.162L33.3848 30.4548ZM23.668 20.739L24.3753 21.4459L26.2473 19.5729L25.54 18.866L24.8327 18.159L22.9607 20.0321L23.668 20.739ZM25.54 18.866H26.54V15.0447H25.54H24.54V18.866H25.54ZM25.54 15.0447L26.2471 15.7518L27.6075 14.3914L26.9004 13.6843L26.1933 12.9772L24.8329 14.3376L25.54 15.0447ZM26.9004 13.6843H25.9004V16.8455H26.9004H27.9004V13.6843H26.9004ZM26.9004 16.8455L26.1933 17.5526L27.5155 18.8748L28.2227 18.1677L28.9298 17.4606L27.6075 16.1384L26.9004 16.8455ZM28.2227 18.1677L28.9298 18.8748L33.7276 14.077L33.0205 13.3699L32.3134 12.6628L27.5155 17.4606L28.2227 18.1677ZM33.0205 13.3699L32.3137 14.0772L33.5969 15.3595L34.3037 14.6521L35.0105 13.9447L33.7273 12.6625L33.0205 13.3699ZM34.3037 14.6521L35.0511 15.3165L35.0589 15.3077L34.3115 14.6433L33.5641 13.9789L33.5563 13.9877L34.3037 14.6521ZM34.3115 14.6433L35.3115 14.6433C35.3115 13.6964 35.0444 10.5397 32.491 8.05034L31.793 8.76636L31.0949 9.48238C33.0925 11.4299 33.3115 13.9406 33.3115 14.6434L34.3115 14.6433ZM31.793 8.76636L32.4912 8.05046C30.9978 6.59397 29.4108 6.22944 28.0278 6.43985C26.7065 6.64087 25.6633 7.34985 25.1078 7.90154L25.8125 8.61108L26.5172 9.32063C26.8438 8.99623 27.5171 8.54056 28.3286 8.4171C29.0784 8.30302 30.0406 8.45417 31.0948 9.48226L31.793 8.76636ZM25.8125 8.61108L25.1054 7.90398L20.4843 12.5251L21.1914 13.2322L21.8985 13.9393L26.5196 9.31819L25.8125 8.61108ZM21.1914 13.2322L20.4843 13.9393L21.6298 15.0848L22.3369 14.3777L23.044 13.6706L21.8985 12.5251L21.1914 13.2322ZM22.3369 14.3777L21.6298 13.6706L19.1161 16.1843L19.8232 16.8914L20.5303 17.5985L23.044 15.0848L22.3369 14.3777ZM19.8232 16.8914L20.5303 16.1843L18.0167 13.6706L17.3096 14.3777L16.6025 15.0848L19.1161 17.5985L19.8232 16.8914ZM17.3096 14.3777L18.017 15.0845L19.1615 13.939L18.4541 13.2322L17.7467 12.5254L16.6022 13.6709L17.3096 14.3777ZM18.4541 13.2322L19.1613 12.5251L14.5412 7.90405L13.834 8.61108L13.1268 9.31812L17.7469 13.9392L18.4541 13.2322Z" fill="white" mask="url(#path-15-outside-1_358_2165)"/>
<path fill-rule="evenodd" clip-rule="evenodd" d="M28.2226 18.1678L33.0208 13.3696L34.3034 14.6521L34.3119 14.6436C34.3119 13.8191 34.0686 10.9848 31.7926 8.76609C29.2447 6.28112 26.6938 7.73546 25.8121 8.6115L21.1914 13.2322L22.3366 14.3773L19.823 16.8909L17.3094 14.3773L18.4545 13.2322L13.8338 8.6115C12.9549 7.7326 10.4041 6.28112 7.85331 8.76609C5.57733 10.9848 5.33398 13.8191 5.33398 14.6436L5.34257 14.6521L6.62514 13.3696L11.4233 18.1678L12.746 16.8451V13.6845L14.1058 15.0444V18.8663L15.9781 20.7386L6.26155 30.4552L10.1064 34.3L19.823 24.5834L29.5395 34.3L33.3844 30.4552L23.6678 20.7386L25.5401 18.8663V15.0444L26.9 13.6845V16.8451L28.2226 18.1678Z" fill="white"/>
</svg>
