<svg width="52" height="40" viewBox="0 0 52 40" fill="none" xmlns="http://www.w3.org/2000/svg">
<path d="M11.59 30.7366C11.59 34.0013 14.2685 34.5629 16.2249 34.972C17.2809 35.1939 18.1156 35.3688 18.1156 35.8702C18.1156 36.395 17.1012 36.5817 16.1507 36.5817C14.7085 36.5817 13.1772 36.2798 11.9494 35.7523L11.7142 35.6504V39.3589L11.8438 39.3904C13.6461 39.8176 15.1891 40 17.0046 40C18.873 40 23.2194 39.5658 23.2194 35.5406C23.2194 32.2844 20.5238 31.751 18.5557 31.3611C17.5151 31.1547 16.6932 30.9926 16.6932 30.5174C16.6932 29.9227 17.6415 29.8432 18.5695 29.8432C19.7952 29.8432 21.0481 30.0608 22.1932 30.4747L22.4199 30.5558V26.8958L22.286 26.8676C20.9344 26.5822 19.4634 26.4238 18.1428 26.4238C13.7949 26.4238 11.59 27.8751 11.59 30.7366ZM23.6109 33.2114C23.6109 37.5887 26.1145 39.9995 30.6619 39.9995C35.2429 39.9995 37.7657 37.5887 37.7657 33.2114C37.7657 28.8975 35.1768 26.4233 30.6619 26.4233C26.1806 26.4238 23.6109 28.8981 23.6109 33.2114ZM28.9274 33.2114C28.9274 30.9761 29.5109 29.8427 30.6614 29.8427C32.2182 29.8427 32.4273 31.7665 32.4487 33.2146C32.4279 34.8408 32.2705 36.5817 30.6614 36.5817C29.4949 36.5817 28.9274 35.4792 28.9274 33.2114ZM38.7717 26.6446H38.6031V39.7797H45.9736C48.7125 39.7797 51.2465 39.3285 51.2465 36.0537C51.2465 34.8733 50.3573 33.5431 48.8479 33.0962C50.3184 32.5543 51.0155 31.5515 51.0155 29.9669C51.0155 27.8239 49.4394 26.6446 46.5785 26.6446H38.7717ZM44.5336 34.5181C45.6611 34.5181 46.1433 34.8568 46.1433 35.6504C46.1433 36.7182 44.884 36.8014 44.4978 36.8014C44.4978 36.8014 43.6749 36.8014 43.422 36.8014C43.422 36.5262 43.422 34.7928 43.422 34.5181C43.677 34.5181 44.5336 34.5181 44.5336 34.5181ZM44.5512 29.4021C45.5246 29.4021 46.0184 29.7648 46.0184 30.48C46.0184 31.3553 45.1629 31.5393 44.4445 31.5393C44.4445 31.5393 43.6711 31.5393 43.422 31.5393C43.422 31.2673 43.422 29.6736 43.422 29.4016C43.6781 29.4021 44.5512 29.4021 44.5512 29.4021ZM3.89034 24.3037L2.40546 25.6675L2.51587 25.7614C2.55427 25.795 3.38578 26.4894 4.74105 26.8596C1.76276 27.7417 0 30.0139 0 33.0284C0 37.3039 2.89775 39.96 7.56254 39.96C9.09808 39.96 10.5915 39.5632 11.0129 39.441L11.1062 39.4138V35.7416L10.9339 35.803C10.0037 36.1363 9.19836 36.2905 8.39831 36.2905C6.35234 36.2905 5.13094 35.0989 5.13094 33.101C5.13094 31.2017 6.44461 30.0219 8.55886 30.0219C9.3589 30.0219 10.1573 30.248 10.9014 30.4928L11.0705 30.5483V26.89L10.712 26.8222C10.072 26.7022 9.53384 26.6036 8.96314 26.5401C9.9936 26.083 10.6763 25.46 11.0129 25.0984L11.1105 24.9933L10.5403 24.5608L10.4608 24.6472C10.4502 24.6594 9.38503 25.8014 7.40946 25.7816C5.31282 25.7608 4.08982 24.3314 4.07808 24.317L3.99115 24.213L3.89034 24.3037Z" fill="white"/>
<path d="M17.204 8.62926C17.204 3.86367 21.0677 0 25.8338 0C30.5999 0 34.4636 3.86367 34.4636 8.62926C34.4636 13.3948 30.5999 17.2585 25.8338 17.2585C21.0677 17.2585 17.204 13.3948 17.204 8.62926ZM32.1984 15.6104C30.5541 17.3929 27.6547 19.176 23.935 19.176C21.049 19.176 18.5641 18.0538 16.9832 16.8073C7.5619 17.7961 0.555664 19.1973 0.555664 19.1973V23.0124L50.4869 23.0071L50.4917 15.1411C50.4917 15.1411 41.9717 15.0883 32.1984 15.6104Z" fill="white"/>
</svg>
