<svg width="308" height="40" viewBox="0 0 308 40" fill="none" xmlns="http://www.w3.org/2000/svg">
<path d="M20.3815 10.6812C20.3815 10.6812 20.3815 10.5722 20.7084 10.1362C21.0354 9.70027 20.9264 9.3733 20.7084 9.15531C20.5995 9.04632 17.4387 7.19346 17.4387 7.19346C17.2207 7.08447 17.1117 6.75749 17.1117 6.53951C17.1117 6.10354 17.4387 5.77657 17.9837 5.55858C19.9455 5.01362 27.03 4.68665 29.4278 4.68665H32.6975H32.8065C29.3188 1.74387 24.8501 0 19.9455 0C8.93733 0 0 8.93733 0 19.9455C0 24.7411 1.74387 29.2098 4.57766 32.6975C7.08447 28.9918 13.297 20.2725 14.6049 18.4196C16.2398 16.0218 20.3815 10.6812 20.3815 10.6812Z" fill="white"/>
<path d="M38.2555 11.9891C39.2365 11.0082 39.8904 10.1362 39.7814 9.3733C39.6724 7.30246 37.1656 5.66758 37.1656 5.66758C37.1656 5.66758 37.1656 5.66758 37.0566 5.55859C37.1656 5.66758 37.2746 5.77657 37.3836 5.99455C38.0375 7.52044 36.9476 8.50137 36.2937 9.15532C35.9667 9.48229 30.8441 14.2779 24.8495 19.5095C19.6179 24.0872 13.7324 28.7738 10.2446 31.3897C5.44898 34.9864 4.46806 35.5313 4.46806 35.5313C4.35907 35.6403 4.14108 35.6403 3.9231 35.6403C3.59612 35.6403 3.37814 35.4223 3.16016 35.2044C3.16016 35.3134 3.16016 35.6403 3.59612 36.1853L3.81411 36.4033C4.14108 36.7303 4.57705 37.2752 5.231 37.7112C6.21193 38.5831 6.64789 38.1471 8.71874 36.6213C11.8795 38.6921 15.6942 40 19.8359 40C30.8441 40 39.7814 31.0627 39.7814 20.0545C39.9994 17.1117 39.3454 14.3869 38.2555 11.9891Z" fill="white"/>
<path d="M69.3185 3.59673V28.5559C69.3185 34.0055 64.5229 38.2561 58.0924 38.2561C51.7708 38.2561 46.8662 34.1144 46.8662 28.5559V9.48229C46.8662 6.21254 49.482 3.59673 52.6428 3.59673H53.0787V28.5559C53.0787 31.4986 55.6945 33.3515 58.3104 33.3515C60.8172 33.3515 63.433 31.7166 63.433 28.5559V9.15532C63.433 6.10354 65.9398 3.59673 68.9916 3.59673H69.3185Z" fill="white"/>
<path d="M81.6354 12.4251C90.1368 12.4251 91.4447 17.2207 91.4447 20.0545V37.8202H91.2267C88.066 37.8202 85.4502 35.2044 85.4502 32.0436V20.0545C85.4502 18.4196 84.7962 16.3488 81.4175 16.3488C79.8916 16.3488 78.9106 16.5668 77.9297 16.8937V37.7112H71.8262V14.1689C74.442 13.079 78.6927 12.4251 81.6354 12.4251Z" fill="white"/>
<path d="M97.2206 3.59673C99.0734 3.59673 100.49 5.01363 100.49 6.6485C100.49 8.28338 99.0734 9.59128 97.2206 9.59128C95.3677 9.59128 93.9508 8.28338 93.9508 6.6485C93.8418 4.90463 95.3677 3.59673 97.2206 3.59673ZM100.163 12.4251V32.1526C100.163 35.3134 97.6565 37.9292 94.3868 37.9292H94.1688V12.4251H100.163Z" fill="white"/>
<path d="M117.494 3.05177C120.327 3.05177 123.052 3.70572 125.232 5.01362V11.0082C123.815 9.2643 121.962 7.9564 118.802 7.9564C112.589 7.9564 108.774 14.0599 108.774 20.3815C108.774 26.376 112.807 32.8065 118.802 32.8065C121.417 32.8065 123.815 32.0436 125.232 30.0817V35.9673C123.488 37.2752 120.654 38.0381 117.385 38.0381C107.575 38.0381 102.344 28.9918 102.344 20.3815C102.453 11.9891 107.684 3.05177 117.494 3.05177Z" fill="white"/>
<path d="M136.021 12.4251C137.002 12.4251 138.31 12.5341 139.4 12.6431V17.5477C137.329 16.0218 134.495 16.5668 133.296 17.2207V32.1526C133.296 35.3134 130.681 37.9292 127.52 37.9292H127.302V14.3869C129.7 13.188 132.097 12.4251 136.021 12.4251Z" fill="white"/>
<path d="M160.545 25.3951L145.395 27.4659C145.94 31.6076 148.011 33.7875 151.826 33.7875C156.077 33.7875 158.147 32.3706 159.782 31.2807V36.2943C158.256 37.1662 155.423 38.1471 151.281 38.1471C143.869 38.1471 139.51 33.1335 139.51 25.1771C139.51 17.4387 143.651 12.3161 150.3 12.3161C156.948 12.3161 160.654 16.6758 160.654 24.4142V25.3951H160.545ZM155.314 21.9074C155.096 16.8937 152.044 16.3488 150.3 16.3488H150.082C146.703 16.4578 145.068 18.8556 145.068 23.3243L155.314 21.9074Z" fill="white"/>
<path d="M182.344 3.59673V37.6022C180.927 37.9292 176.131 38.2561 174.169 38.2561H173.733C166.322 38.1471 162.289 33.8965 162.289 26.267C162.289 18.5286 166.54 13.515 173.079 13.515C174.387 13.515 175.477 13.624 176.349 13.842V9.48229C176.349 6.32153 178.856 3.70572 182.126 3.70572H182.344V3.59673ZM176.458 17.3297C175.804 17.1117 175.15 17.1117 174.387 17.1117C169.374 17.1117 168.393 21.9074 168.393 25.9401C168.393 31.4986 170.245 34.3324 174.06 34.3324C174.714 34.3324 176.131 34.2234 176.567 34.1144V17.3297H176.458Z" fill="white"/>
<path d="M188.228 3.59673C190.081 3.59673 191.498 5.01363 191.498 6.6485C191.498 8.28338 190.081 9.59128 188.228 9.59128C186.376 9.59128 184.959 8.28338 184.959 6.6485C184.85 4.90463 186.376 3.59673 188.228 3.59673ZM191.171 12.4251V32.1526C191.171 35.3134 188.664 37.9292 185.395 37.9292H185.177V12.4251H191.171Z" fill="white"/>
<path d="M201.854 3.59673V12.4251H205.777V17.3297H201.854V30.8447C201.854 32.4796 202.398 33.0245 204.142 33.0245C204.578 33.0245 205.232 32.9155 205.777 32.6976V37.7112C205.559 37.8202 204.36 38.2561 202.725 38.2561C198.257 38.2561 195.859 36.0763 195.859 32.1526V17.3297H193.243V12.4251H195.859V9.3733C195.859 6.21254 198.366 3.59673 201.527 3.59673H201.854Z" fill="white"/>
<path d="M233.678 19.2915V19.4005C236.948 20.0545 241.417 22.8883 241.417 27.9019C241.417 34.7684 235.967 37.7112 227.902 37.7112C220.272 37.7112 217.438 37.6022 217.438 37.6022V4.79563C219.618 3.70571 223.215 2.83378 227.466 2.83378C235.967 2.83378 240.218 6.5395 240.218 11.5531C240.327 16.4578 236.73 18.6376 233.678 19.2915ZM234.005 12.0981C234.005 8.28337 231.825 6.5395 227.575 6.5395C226.049 6.5395 224.85 6.75748 223.651 7.08446V17.8747H225.613C231.934 18.2016 234.005 16.2398 234.005 12.0981ZM225.613 21.1444H223.651V33.8964H227.793C231.934 33.8964 234.986 32.2616 234.986 27.9019C234.986 23.1063 232.261 20.9264 225.613 21.1444Z" fill="white"/>
<path d="M256.458 21.7984V20.1635C256.458 16.8937 254.496 16.0218 251.553 16.0218C249.155 16.0218 246.758 16.8937 244.033 18.3106V14.2779C245.668 13.515 248.61 12.3161 252.534 12.3161C257.657 12.3161 262.016 14.9319 262.016 21.2534V37.4932C260.381 37.8202 256.458 38.1471 254.06 38.1471H252.752C245.995 38.1471 242.507 35.3134 242.507 30.5177C242.507 23.9782 248.828 22.4523 256.458 21.7984ZM256.458 24.5232C251.117 25.0681 247.847 26.158 247.847 30.4087C247.847 33.5695 249.809 34.9864 253.079 34.9864C254.387 34.9864 255.913 34.8774 256.458 34.7684V24.5232Z" fill="white"/>
<path d="M274.332 12.3161C282.833 12.3161 284.25 17.1117 284.25 19.9455V37.8202H284.032C280.871 37.8202 278.146 35.2044 278.146 32.0436V20.0545C278.146 18.4196 277.492 16.3488 274.114 16.3488C272.588 16.3488 271.607 16.5668 270.626 16.8937V37.8202H264.522V14.1689C267.138 13.079 271.389 12.3161 274.332 12.3161Z" fill="white"/>
<path d="M292.97 31.9346C292.97 35.2044 290.463 37.8202 286.976 37.8202V9.3733C286.976 6.10354 289.482 3.48774 292.97 3.48774V24.1962L300.491 12.97H306.158L298.42 24.3052L307.575 37.8202H301.145L292.97 25.1771V31.9346Z" fill="white"/>
</svg>
