<svg width="206" height="40" viewBox="0 0 206 40" fill="none" xmlns="http://www.w3.org/2000/svg">
<path d="M20.3815 10.6812C20.3815 10.6812 20.3815 10.5722 20.7084 10.1362C21.0354 9.70027 20.9264 9.3733 20.7084 9.15531C20.5995 9.04632 17.4387 7.19346 17.4387 7.19346C17.2207 7.08447 17.1117 6.75749 17.1117 6.53951C17.1117 6.10354 17.4387 5.77657 17.9837 5.55858C19.9455 5.01362 27.03 4.68665 29.4278 4.68665H32.6975H32.8065C29.3188 1.74387 24.8501 0 19.9455 0C8.93733 0 0 8.93733 0 19.9455C0 24.7411 1.74387 29.2098 4.57766 32.6976C7.08447 28.9918 13.297 20.2725 14.6049 18.4196C16.2398 16.0218 20.3815 10.6812 20.3815 10.6812Z" fill="#E00A1E"/>
<path d="M38.2555 11.9891C39.2365 11.0082 39.8904 10.1362 39.7814 9.37329C39.6724 7.30245 37.1656 5.66757 37.1656 5.66757C37.1656 5.66757 37.1656 5.66757 37.0566 5.55858C37.1656 5.66757 37.2746 5.77656 37.3836 5.99455C38.0375 7.52043 36.9476 8.50136 36.2937 9.15531C35.9667 9.48228 30.8441 14.2779 24.8495 19.5095C19.6179 24.0872 13.7324 28.7738 10.2446 31.3896C5.44898 34.9864 4.46806 35.5313 4.46806 35.5313C4.35907 35.6403 4.14108 35.6403 3.9231 35.6403C3.59612 35.6403 3.37814 35.4223 3.16016 35.2044C3.16016 35.3134 3.16016 35.6403 3.59612 36.1853L3.81411 36.4033C4.14108 36.7302 4.57705 37.2752 5.231 37.7112C6.21193 38.5831 6.64789 38.1471 8.71874 36.6213C11.8795 38.6921 15.6942 40 19.8359 40C30.8441 40 39.7814 31.0627 39.7814 20.0545C39.9994 17.1117 39.3454 14.3869 38.2555 11.9891Z" fill="#E00A1E"/>
<path fill-rule="evenodd" clip-rule="evenodd" d="M20.7094 10.1362C21.0364 9.70026 20.9274 9.37329 20.7094 9.1553C20.6004 9.04631 17.4397 7.19345 17.4397 7.19345C17.2217 7.08446 17.1127 6.75748 17.1127 6.5395C17.1127 6.10353 17.4397 5.77656 17.9846 5.55857C19.9465 5.01361 27.0309 4.68664 29.4288 4.68664C30.5187 4.68664 32.8075 4.68664 34.2244 4.79563C35.8593 4.90462 37.1672 5.2316 37.3852 5.99454C38.0391 7.52043 36.9492 8.50135 36.2952 9.1553C35.9683 9.48228 30.8457 14.2779 24.8511 19.5095C19.6195 24.0872 13.7339 28.7738 10.2462 31.3896C5.45056 34.9864 4.46963 35.5313 4.46963 35.5313C4.36064 35.6403 4.14265 35.6403 3.92467 35.6403C3.37971 35.6403 3.05273 35.3133 3.05273 34.7684C3.05273 34.5504 3.16173 34.4414 3.16173 34.2234C3.16173 34.2234 12.644 20.5994 14.2789 18.3106C16.0228 16.0218 20.1645 10.6812 20.1645 10.6812C20.1645 10.6812 20.3824 10.5722 20.7094 10.1362Z" fill="white"/>
<path d="M69.3176 3.59671V28.5558C69.3176 34.0054 64.5219 38.2561 58.0914 38.2561C51.7699 38.2561 46.8652 34.1144 46.8652 28.5558V9.48227C46.8652 6.21251 49.481 3.59671 52.6418 3.59671H53.0778V28.5558C53.0778 31.4986 55.6936 33.3515 58.3094 33.3515C60.8162 33.3515 63.432 31.7166 63.432 28.5558V9.15529C63.432 6.10352 65.9388 3.59671 68.9906 3.59671H69.3176Z" fill="white"/>
<path d="M81.6335 12.4251C90.1348 12.4251 91.4427 17.2207 91.4427 20.0545V37.8202H91.2248C88.064 37.8202 85.4482 35.2044 85.4482 32.0436V20.0545C85.4482 18.4196 84.7942 16.3488 81.4155 16.3488C79.8896 16.3488 78.9087 16.5667 77.9278 16.8937V37.7112H71.8242V14.1689C74.44 13.079 78.6907 12.4251 81.6335 12.4251Z" fill="white"/>
<path d="M97.2206 3.59671C99.0734 3.59671 100.49 5.0136 100.49 6.64848C100.49 8.28336 99.0734 9.59126 97.2206 9.59126C95.3677 9.59126 93.9508 8.28336 93.9508 6.64848C93.8418 4.90461 95.3677 3.59671 97.2206 3.59671ZM100.163 12.425V32.1526C100.163 35.3133 97.6565 37.9291 94.3868 37.9291H94.1688V12.425H100.163Z" fill="white"/>
<path d="M117.492 3.05177C120.325 3.05177 123.05 3.70572 125.23 5.01363V11.0082C123.813 9.26431 121.96 7.95641 118.8 7.95641C112.587 7.95641 108.772 14.0599 108.772 20.3815C108.772 26.376 112.805 32.8065 118.8 32.8065C121.415 32.8065 123.813 32.0436 125.23 30.0817V35.9673C123.486 37.2752 120.652 38.0382 117.383 38.0382C107.573 38.0382 102.342 28.9918 102.342 20.3815C102.451 11.9891 107.682 3.05177 117.492 3.05177Z" fill="white"/>
<path d="M136.02 12.4251C137.001 12.4251 138.309 12.534 139.399 12.643V17.5477C137.328 16.0218 134.494 16.5667 133.295 17.2207V32.1526C133.295 35.3133 130.68 37.9291 127.519 37.9291H127.301V14.3869C129.699 13.188 132.096 12.4251 136.02 12.4251Z" fill="white"/>
<path d="M160.545 25.3951L145.395 27.466C145.94 31.6076 148.011 33.7875 151.826 33.7875C156.077 33.7875 158.147 32.3706 159.782 31.2807V36.2943C158.256 37.1662 155.423 38.1472 151.281 38.1472C143.869 38.1472 139.51 33.1335 139.51 25.1771C139.51 17.4387 143.651 12.3161 150.3 12.3161C156.948 12.3161 160.654 16.6758 160.654 24.4142V25.3951H160.545ZM155.314 21.9074C155.096 16.8938 152.044 16.3488 150.3 16.3488H150.082C146.703 16.4578 145.068 18.8556 145.068 23.3243L155.314 21.9074Z" fill="white"/>
<path d="M182.344 3.59671V37.6022C180.927 37.9291 176.131 38.2561 174.169 38.2561H173.733C166.322 38.1471 162.289 33.8964 162.289 26.267C162.289 18.5286 166.54 13.515 173.079 13.515C174.387 13.515 175.477 13.624 176.349 13.8419V9.48227C176.349 6.32151 178.856 3.7057 182.126 3.7057H182.344V3.59671ZM176.458 17.3297C175.804 17.1117 175.15 17.1117 174.387 17.1117C169.374 17.1117 168.393 21.9073 168.393 25.94C168.393 31.4986 170.245 34.3324 174.06 34.3324C174.714 34.3324 176.131 34.2234 176.567 34.1144V17.3297H176.458Z" fill="white"/>
<path d="M188.228 3.59671C190.081 3.59671 191.498 5.0136 191.498 6.64848C191.498 8.28336 190.081 9.59126 188.228 9.59126C186.376 9.59126 184.959 8.28336 184.959 6.64848C184.85 4.90461 186.376 3.59671 188.228 3.59671ZM191.171 12.425V32.1526C191.171 35.3133 188.664 37.9291 185.395 37.9291H185.177V12.425H191.171Z" fill="white"/>
<path d="M201.853 3.59671V12.425H205.776V17.3297H201.853V30.8447C201.853 32.4795 202.398 33.0245 204.141 33.0245C204.577 33.0245 205.231 32.9155 205.776 32.6975V37.7112C205.558 37.8201 204.359 38.2561 202.724 38.2561C198.256 38.2561 195.858 36.0763 195.858 32.1526V17.3297H193.242V12.425H195.858V9.37328C195.858 6.21251 198.365 3.59671 201.526 3.59671H201.853Z" fill="white"/>
</svg>
