<svg width="311" height="40" viewBox="0 0 311 40" fill="none" xmlns="http://www.w3.org/2000/svg">
<path d="M11.9284 29.2768L9.13216 39.3551H0L11.9284 0.106354H23.5612L35.7828 39.3551H26.1842L23.156 29.2768H11.9284ZM21.8779 22.6438L19.4361 14.3188C18.7377 11.9807 18.038 9.07512 17.4562 6.74278H17.3407C16.7565 9.07512 16.177 12.0385 15.5385 14.3188L13.2053 22.6438H21.8779ZM27.2729 0.106354L29.5554 7.55529H38.8677V39.3551H47.7158V7.55529H57.9078V39.1806C59.8878 39.4765 63.1458 39.7631 67.5064 39.7631C75.3017 39.7631 80.0755 38.4848 82.9272 36.2126C85.3667 34.2351 86.9991 31.4358 86.9991 27.8263C86.9991 22.8126 83.9166 19.4227 79.436 18.2565V18.1433C83.8554 16.4524 85.6599 13.4301 85.6599 9.99858C85.6599 6.38449 83.7411 3.70542 81.0061 2.24915C78.0956 0.558259 74.8271 0.106354 69.416 0.106354H27.2729ZM66.6959 7.54951H70.477C74.4912 7.54951 76.6213 8.9711 76.6213 11.9472C76.6213 14.8551 74.3192 15.5752 69.6042 15.5752H66.6948L66.6959 7.54951ZM70.1329 33.1833C68.6182 33.1833 67.5664 33.1833 66.6959 33.0643V22.0012H69.7219C74.1437 22.0012 77.6903 23.5696 77.6903 27.4773C77.6903 31.6103 74.1437 33.1833 70.1329 33.1833Z" fill="white"/>
<path d="M105.708 0.0589449H126.849V4.3168H110.833V17.3781H125.627V21.5747H110.833V39.3585H105.708V0.0589449ZM138.614 3.20841C138.614 4.95825 137.389 6.35788 135.351 6.35788C133.489 6.35788 132.264 4.95825 132.264 3.20841C132.264 1.45858 133.544 0.00115513 135.468 0.00115513C137.333 -6.34938e-07 138.614 1.39963 138.614 3.20841ZM132.905 39.3574V11.1381H138.03V39.3574H132.905ZM144.203 18.7743C144.203 15.8017 144.144 13.4693 143.968 11.1381H148.513L148.803 15.8017H148.922C150.321 13.1781 153.58 10.5556 158.24 10.5556C162.142 10.5556 168.2 12.888 168.2 22.5652V39.3574H163.074V23.0911C163.074 18.542 161.385 14.7522 156.553 14.7522C153.231 14.7522 150.611 17.1424 149.68 20.0006C149.445 20.6432 149.328 21.5169 149.328 22.3896V39.3574H144.204L144.203 18.7743ZM193.998 32.595C193.998 35.0441 194.114 37.4353 194.405 39.3585H189.804L189.396 35.8034H189.222C187.652 38.0179 184.621 40 180.603 40C174.894 40 171.979 35.9791 171.979 31.8957C171.979 25.0744 178.038 21.3424 188.931 21.4014V20.8166C188.931 18.5432 188.29 14.2865 182.524 14.3442C179.846 14.3442 177.11 15.1024 175.129 16.4431L173.963 13.0024C176.293 11.5461 179.73 10.5556 183.281 10.5556C191.9 10.5556 193.998 16.4431 193.998 22.0417V32.595ZM189.046 24.9577C183.454 24.8386 177.106 25.8314 177.106 31.3121C177.106 34.6939 179.318 36.2091 181.882 36.2091C185.61 36.2091 187.998 33.8744 188.814 31.4866C188.987 30.9018 189.046 30.3193 189.046 29.8523V24.9577ZM199.354 18.7743C199.354 15.8017 199.294 13.4693 199.122 11.1381H203.665L203.958 15.8017H204.076C205.471 13.1781 208.734 10.5556 213.392 10.5556C217.296 10.5556 223.352 12.888 223.352 22.5652V39.3574H218.228V23.0911C218.228 18.542 216.538 14.7522 211.705 14.7522C208.383 14.7522 205.763 17.1424 204.832 20.0006C204.601 20.6432 204.482 21.5169 204.482 22.3896V39.3574H199.358V18.7743H199.354ZM249.437 38.368C248.1 39.0095 245.13 39.9988 241.343 39.9988C232.839 39.9988 227.305 34.2281 227.305 25.5991C227.305 16.91 233.247 10.5556 242.448 10.5556C245.476 10.5556 248.155 11.3115 249.555 12.0708L248.387 15.9762C247.164 15.3347 245.243 14.6355 242.447 14.6355C235.983 14.6355 232.487 19.4759 232.487 25.3056C232.487 31.8356 236.681 35.86 242.271 35.86C245.184 35.86 247.106 35.1608 248.565 34.5193L249.437 38.368ZM259.978 3.20841C259.978 4.95825 258.753 6.35788 256.718 6.35788C254.851 6.35788 253.631 4.95825 253.631 3.20841C253.631 1.45858 254.911 0.00115513 256.832 0.00115513C258.695 -6.34938e-07 259.978 1.39963 259.978 3.20841ZM254.271 39.3574V11.1381H259.395V39.3574H254.271ZM285.953 32.595C285.953 35.0441 286.072 37.4353 286.361 39.3585H281.761L281.355 35.8034H281.179C279.608 38.0179 276.578 40 272.559 40C266.852 40 263.938 35.9791 263.938 31.8957C263.938 25.0744 269.996 21.3424 280.888 21.4014V20.8166C280.888 18.5432 280.248 14.2865 274.482 14.3442C271.801 14.3442 269.066 15.1024 267.086 16.4431L265.918 13.0024C268.25 11.5461 271.686 10.5556 275.238 10.5556C283.858 10.5556 285.953 16.4431 285.953 22.0417V32.595ZM281 24.9577C275.41 24.8386 269.063 25.8314 269.063 31.3121C269.063 34.6939 271.275 36.2091 273.839 36.2091C277.567 36.2091 279.952 33.8744 280.771 31.4866C280.942 30.9018 281 30.3193 281 29.8523V24.9577ZM291.892 0.0751256H297.012V39.3297H291.892V0.0751256ZM301.363 0.752404V0.00115513H305.202V0.752404H303.73V4.50865H302.837V0.752404H301.363ZM307.255 0L308.404 3.22691L309.564 0H310.841V4.5075H310.016V0.869139L308.769 4.5075H308.049L306.791 0.869139V4.5075H305.966V0H307.255Z" fill="white"/>
</svg>
