<svg width="116" height="40" viewBox="0 0 116 40" fill="none" xmlns="http://www.w3.org/2000/svg">
<g clip-path="url(#clip0_303_2673)">
<path d="M12.3239 15.5555C12.3239 17.6444 11.3617 18.8 8.82752 18.8H6.66261V12.4167C6.93673 12.3889 7.85417 12.3723 8.1283 12.3723H8.86667C11.4512 12.3723 12.3239 13.4611 12.3239 15.5555ZM17.4705 23.8889C17.4705 20.5944 14.7629 19.4 11.4792 19.3278V19.2055C14.2762 18.9778 16.5642 17.8166 16.5642 15.0167C16.5642 11.9 13.9686 11.3167 11.0652 11.3167C7.57445 11.3167 3.47955 11.4111 0 11.3167V12.3889C0.732832 12.3389 2.52295 12.4389 2.52295 13.3555V26.6223C2.52295 27.5111 0.688078 27.6334 0 27.6334V28.6778C3.35648 28.5889 7.35628 28.6778 10.7407 28.6778C14.2986 28.6778 17.4705 27.4834 17.4705 23.8889ZM12.9951 23.55C12.9951 26.2778 12.0385 27.5723 8.71563 27.5723H6.64583V19.9278H8.84991C11.8875 19.9278 13.012 20.9444 13.012 23.5278L12.9951 23.55Z" fill="white"/>
<path d="M39.9868 28.65C38.4204 28.65 36.8596 28.65 35.2988 28.6778V27.6111C36.0093 27.6111 37.9784 27.5723 37.9784 26.6223V14.3H37.9225L30.8627 28.8889H30.0124L23.126 14.2723H23.0757V26.6223C23.0757 27.5944 25.028 27.6111 25.7665 27.6111L25.8001 28.6778C23.8476 28.6166 21.1849 28.5722 19.2661 28.6778V27.6111C20.0101 27.6111 21.6883 27.55 21.6883 26.6223V13.3334C21.6883 12.4278 19.9541 12.35 19.2661 12.35V11.2778C21.5037 11.3723 23.8757 11.3723 26.0965 11.2778L31.9816 23.6055L38.0064 11.3223C40.1434 11.4167 42.56 11.3889 44.7194 11.2945V12.3667C44.0089 12.3667 42.1461 12.4167 42.1461 13.35V26.6223C42.1461 27.5723 43.9865 27.6111 44.7194 27.6111V28.6778C43.1363 28.6334 41.5475 28.65 39.9868 28.65Z" fill="white"/>
<path d="M61.1549 19.9667C61.1549 23.3 60.8248 27.9055 55.8684 27.9055C50.9121 27.9055 50.554 23.2778 50.554 19.9667C50.554 16.6555 50.9121 12.0611 55.8684 12.0611C60.8248 12.0611 61.1549 16.6667 61.1549 19.9667ZM65.7868 19.9667C65.7868 14.2167 62.2514 10.9889 55.8684 10.9889C49.4855 10.9889 45.9165 14.1889 45.9165 19.9667C45.9165 25.7444 49.4576 28.9667 55.8684 28.9667C62.2794 28.9667 65.7868 25.75 65.7868 19.9667Z" fill="white"/>
<path d="M95.4302 0C100.772 5.22702e-05 105.893 2.10694 109.67 5.85742C113.447 9.60812 115.569 14.6957 115.569 20C115.569 23.9555 114.388 27.8224 112.175 31.1113C109.963 34.4002 106.817 36.9638 103.137 38.4775C99.4575 39.9913 95.4084 40.3869 91.5015 39.6152C87.5946 38.8436 84.0062 36.9396 81.1899 34.1426C78.3732 31.3455 76.4553 27.781 75.6782 23.9014C74.9013 20.0219 75.3006 16.0011 76.8247 12.3467C78.3489 8.69226 80.9301 5.56871 84.2417 3.37109C87.5533 1.17346 91.4475 0 95.4302 0ZM100.135 9.0498C100.015 9.05085 99.8965 9.07888 99.7886 9.13184C99.6815 9.18471 99.5874 9.26137 99.5142 9.35547L96.0454 13.8887C95.9737 13.9827 95.8801 14.0592 95.7729 14.1113C95.6667 14.1633 95.5492 14.1893 95.4302 14.1885C95.3118 14.1881 95.1937 14.1614 95.0874 14.1094C94.9812 14.0575 94.8882 13.9816 94.8149 13.8887L91.3188 9.36133C91.2463 9.26621 91.1516 9.18878 91.0444 9.13574C90.9366 9.08281 90.8184 9.05556 90.6978 9.05566C90.5811 9.05503 90.4655 9.08081 90.3608 9.13184C90.2562 9.18291 90.1641 9.25757 90.0933 9.34961L85.9321 14.5557V22.7168H85.9146V28.7051H104.935V22.7168H85.937L90.0815 17.4502C90.1572 17.3553 90.2534 17.2785 90.3628 17.2256C90.4723 17.1726 90.5927 17.1447 90.7144 17.1445C90.8376 17.1441 90.9595 17.1716 91.0698 17.2256C91.1808 17.2794 91.2772 17.3582 91.3521 17.4551L94.8657 22.0166C94.9318 22.1021 95.0162 22.1728 95.1128 22.2227C95.2094 22.2725 95.3157 22.3008 95.4243 22.3057C95.5339 22.3019 95.6402 22.2736 95.7368 22.2236C95.8334 22.1737 95.9178 22.103 95.9839 22.0166L99.4976 17.4551C99.5732 17.3592 99.6697 17.2813 99.7798 17.2275C99.8901 17.1737 100.012 17.1453 100.135 17.1445C100.257 17.1434 100.378 17.1706 100.488 17.2236C100.597 17.2766 100.693 17.3543 100.767 17.4502L104.907 22.7168V14.5498L100.745 9.34473C100.673 9.25249 100.58 9.17799 100.474 9.12695C100.369 9.07587 100.252 9.04916 100.135 9.0498ZM85.9321 22.7227V22.7168H85.937L85.9321 22.7227Z" fill="white"/>
</g>
<defs>
<clipPath id="clip0_303_2673">
<rect width="116" height="40" fill="white"/>
</clipPath>
</defs>
</svg>
