<svg width="157" height="40" viewBox="0 0 157 40" fill="none" xmlns="http://www.w3.org/2000/svg">
<g clip-path="url(#clip0_303_2679)">
<path d="M23.5162 29.7376C21.9378 30.9714 19.9771 31.6104 17.977 31.541C12.2758 31.541 8.49126 27.1579 8.49126 20.1888C8.49126 13.1078 12.238 8.78151 17.977 8.78151C19.8481 8.72313 21.6861 9.27536 23.2172 10.353L27.4754 4.54991C24.827 2.77176 22.2305 1.6752 17.1965 1.6752C6.24413 1.6752 0 9.1018 0 20.1888C0 31.5599 6.53053 38.6473 17.1965 38.6473C24.004 38.6473 26.6445 36.3058 27.8562 35.4728L23.5162 29.7376ZM100.742 29.6808C99.1428 30.9414 97.1553 31.6056 95.1222 31.5599C89.421 31.5599 85.6364 27.1768 85.6364 20.2078C85.6364 13.1267 89.4147 8.80045 95.1222 8.80045C96.9917 8.74365 98.8297 9.29429 100.361 10.3719L104.621 4.56885C101.972 2.79069 99.3742 1.69413 94.3417 1.69413C83.4082 1.69413 77.1436 9.12073 77.1436 20.2078C77.1436 31.5788 83.6757 38.6662 94.3417 38.6662C101.148 38.6662 103.79 36.3248 105.001 35.4917L100.742 29.6808ZM60.1155 2.32682C67.9647 2.32682 72.1112 5.48869 72.1112 11.4685C72.1112 15.7947 69.307 18.0162 66.6098 19.1191L66.5909 19.1933C69.7507 20.0958 73.4598 22.1548 73.4598 27.8221C73.4598 34.3952 68.6209 38.0146 59.8401 38.0146H47.3518V2.32682H60.1155ZM59.0533 22.5192H55.607V31.7603H59.154C62.7324 31.7603 65.1117 30.3513 65.1117 27.2462C65.1117 23.9582 62.7513 22.5192 59.0533 22.5192ZM59.0533 8.26242H55.607V16.5458H58.8408C61.9645 16.5458 64.2179 15.293 64.2179 12.4451C64.2179 10.5344 63.0566 8.26242 59.0533 8.26242ZM31.5165 38.0146H39.7402V2.32682H31.5165V38.0146Z" fill="white"/>
<path d="M133.526 6.20863C131.847 3.93032 130.522 2.12692 130.122 1.59363C129.39 0.550716 128.179 -0.0488394 126.907 0.00322724C125.651 -0.0488394 124.454 0.531783 123.716 1.55103L110.046 20.1893L123.716 38.8229C124.456 39.839 125.653 40.418 126.907 40.3628C128.177 40.4164 129.389 39.82 130.122 38.7787L133.526 34.1574L123.278 20.1893L133.526 6.20863Z" fill="#BDBCBC"/>
<path d="M143.33 1.5504C142.594 0.532729 141.398 -0.0478933 140.145 0.0041734H126.906C128.179 -0.0478933 129.389 0.550085 130.123 1.59457C131.459 3.37904 143.768 20.1887 143.768 20.1887C143.768 20.1887 131.459 36.9936 130.123 38.7844C129.388 39.8257 128.178 40.4221 126.906 40.3685H140.145C141.398 40.4221 142.592 39.8431 143.33 38.8286L157 20.1887L143.33 1.5504Z" fill="white"/>
</g>
<defs>
<clipPath id="clip0_303_2679">
<rect width="157" height="40" fill="white"/>
</clipPath>
</defs>
</svg>
