<svg width="187" height="40" viewBox="0 0 187 40" fill="none" xmlns="http://www.w3.org/2000/svg">
<path d="M53.8561 8.875H46.2515V31.125H53.9808C60.9621 31.125 65.4501 26.75 65.4501 20C65.4501 13.375 60.7128 8.875 53.8561 8.875ZM53.7315 27.375H50.8641V12.75H53.9808C58.0948 12.75 60.9621 15.875 60.9621 20.125C60.9621 24.375 57.9701 27.375 53.7315 27.375Z" fill="white"/>
<path d="M0 10V30L17.3287 40L34.6573 30V10L17.3287 0L0 10ZM29.92 12.75V27.375L17.3287 34.625L4.73733 27.25V12.75L17.3287 5.5L29.92 12.75Z" fill="white"/>
<path d="M153.839 10.875C153.839 12.125 152.842 13.25 151.47 13.25C150.224 13.25 149.102 12.25 149.102 10.875C149.102 9.625 150.099 8.5 151.47 8.5C152.717 8.5 153.839 9.625 153.839 10.875ZM153.465 15.875H149.476V31.125H153.465V15.875Z" fill="white"/>
<path d="M90.8821 21.75C89.1367 21.125 88.6381 20.75 88.6381 20C88.6381 19.375 89.1367 18.875 90.1341 18.875C91.6301 18.875 92.7521 19.75 93.7494 20.625L95.9934 18.125C94.4974 16.5 92.3781 15.625 90.1341 15.625C86.8927 15.625 84.6487 17.5 84.6487 20.125C84.6487 23.125 87.0174 24.375 89.2614 25.125C89.5107 25.25 89.7601 25.25 90.0094 25.375C91.2561 25.75 92.0041 26 92.0041 26.75C92.0041 27.25 91.7547 27.875 90.1341 27.875C88.6381 27.875 87.1421 27.125 86.3941 26L84.0254 28.5C85.6461 30.375 87.6407 31.25 90.1341 31.25C93.7494 31.25 95.9934 29.5 95.9934 26.625C96.1181 23.875 94.1234 23 90.8821 21.75Z" fill="white"/>
<path d="M179.769 21.75C178.024 21.125 177.525 20.75 177.525 20C177.525 19.375 178.024 18.875 179.021 18.875C180.517 18.875 181.639 19.75 182.637 20.625L184.881 18.125C183.385 16.5 181.265 15.625 179.021 15.625C175.78 15.625 173.536 17.5 173.536 20.125C173.536 23.125 175.905 24.375 178.149 25.125C178.398 25.25 178.647 25.25 178.897 25.375C180.143 25.75 180.891 26 180.891 26.75C180.891 27.25 180.642 27.875 179.021 27.875C177.525 27.875 176.029 27.125 175.281 26L172.913 28.5C174.533 30.375 176.528 31.25 179.021 31.25C182.637 31.25 184.881 29.5 184.881 26.625C185.005 23.875 183.011 23 179.769 21.75Z" fill="white"/>
<path d="M103.224 10.875C103.224 12.125 102.227 13.25 100.855 13.25C99.6088 13.25 98.4868 12.25 98.4868 10.875C98.4868 9.5 99.4841 8.5 100.855 8.5C102.102 8.5 103.224 9.625 103.224 10.875ZM98.4868 37C101.105 37 102.85 35.25 102.85 31.625V15.875H98.8608V31.5C98.8608 32.875 98.2374 33.625 97.3648 33.625C96.8661 33.625 96.4921 33.5 95.9935 33.25L95.3701 36.625C96.3675 36.875 97.1155 37 98.4868 37Z" fill="white"/>
<path d="M115.691 16.75C114.569 16 113.197 15.625 111.577 15.625C109.083 15.625 107.089 16.5 105.842 18.125C106.091 18.375 107.837 20.25 108.211 20.625C108.834 19.75 109.457 19.25 110.33 19C110.704 18.875 110.953 18.875 111.327 18.875C111.826 18.875 112.325 19 112.699 19.125C113.696 19.5 114.195 20.25 114.195 21.25V22.25C114.07 22.25 112.823 21.625 110.829 21.625C107.587 21.625 105.219 23.75 105.219 26.5C105.219 29.25 107.338 31.25 110.205 31.25C111.951 31.25 113.073 30.5 114.07 29.625H114.195V31H117.935V21C117.935 19.125 117.187 17.75 115.691 16.75ZM114.195 26.125C114.195 26.875 112.574 28.125 110.704 28.125C109.582 28.125 108.709 27.375 108.709 26.375C108.709 25.75 109.083 24.5 111.078 24.5C112.574 24.5 114.195 25 114.195 25V26.125Z" fill="white"/>
<path d="M125.29 17.625L125.165 15.875H121.176V31.125H125.165V24.25C125.165 21.5 126.536 19.625 129.902 19.625V15.625C127.908 15.625 126.287 16.25 125.29 17.625Z" fill="white"/>
<path d="M142.369 29.75H142.494V31.125H146.234V8.875H142.245V17.125H142.12C141.372 16.125 139.502 15.625 138.255 15.625C133.393 15.625 130.9 19.625 130.9 23.5C130.9 26.375 132.147 28.25 133.144 29.25C134.515 30.625 136.385 31.375 138.255 31.375C139.128 31.375 140.624 31.125 142.369 29.75ZM138.505 27.75C136.385 27.75 134.64 25.875 134.64 23.5C134.64 21.125 136.385 19.25 138.505 19.25C140.873 19.25 142.369 21.5 142.369 23.5C142.369 25.875 140.624 27.75 138.505 27.75Z" fill="white"/>
<path d="M160.82 17.125H160.695V15.875H156.706V31.125H160.695V23.25C160.695 19.75 162.815 19.25 164.186 19.25C166.43 19.25 167.303 21.125 167.303 22.875V31.125H171.292V22.875C171.292 18.375 168.799 15.625 164.809 15.625C161.942 15.625 160.82 17.125 160.82 17.125Z" fill="white"/>
<path d="M82.5293 23.375C82.5293 18.875 79.4127 15.625 75.0493 15.625C70.686 15.625 67.5693 18.875 67.5693 23.5C67.5693 28.125 70.8107 31.375 75.4233 31.375C78.166 31.375 80.41 30.375 81.906 28.625C81.6567 28.25 79.9113 26.5 79.5373 26.125C78.7893 27 77.418 27.875 75.7973 27.875C73.8027 27.875 72.3067 26.75 71.808 24.75H82.5293C82.5293 24.5 82.5293 23.875 82.5293 23.375ZM71.6833 21.875C72.182 20 73.4287 19 75.174 19C76.9193 19 78.166 20 78.54 21.875H71.6833Z" fill="white"/>
</svg>
