<svg width="92" height="40" viewBox="0 0 92 40" fill="none" xmlns="http://www.w3.org/2000/svg">
<g clip-path="url(#clip0_303_2696)">
<path d="M54.0704 19.504V19.408C54.3838 19.3599 54.6843 19.2495 54.9543 19.0832C55.2243 18.917 55.4581 18.6983 55.6421 18.44C56.0548 17.8316 56.2609 17.1066 56.23 16.372C56.23 15.1374 55.7808 14.236 54.8823 13.668C53.9838 13.1 52.5373 12.8174 50.543 12.82H46.1758V24.524C46.1819 25.1393 46.4277 25.7279 46.8608 26.1648C47.2939 26.6018 47.8803 26.8526 48.4954 26.864H51.4269C53.0266 26.864 54.2837 26.5054 55.1982 25.788C55.6526 25.4382 56.016 24.984 56.2576 24.4638C56.4991 23.9437 56.6118 23.373 56.586 22.8C56.6265 22.0282 56.4175 21.2639 55.9901 20.62C55.5107 20.0228 54.8265 19.6251 54.0704 19.504ZM49.1513 15.26H50.719C51.3609 15.217 52.0033 15.3367 52.5867 15.608C52.7825 15.7281 52.9415 15.9 53.0459 16.1047C53.1503 16.3094 53.1962 16.5389 53.1786 16.768C53.1994 17.0038 53.1605 17.241 53.0654 17.4577C52.9704 17.6744 52.8222 17.8637 52.6347 18.008C52.0981 18.2963 51.4904 18.4253 50.883 18.38H49.1513V15.26ZM52.9066 23.936C52.3698 24.2883 51.7309 24.4516 51.0909 24.4H49.1513V20.744H50.9949C52.664 20.744 53.4972 21.3267 53.4945 22.492C53.5152 22.7618 53.4729 23.0328 53.3709 23.2834C53.2688 23.534 53.1099 23.7575 52.9066 23.936Z" fill="white"/>
<path d="M87.1448 20.8L91.408 16.14H88.1046L85.0971 19.408L83.8214 21.04H83.7814L83.9374 18.6V11.916H81.0059V26.864H83.9374V23.52L85.1851 22.512L86.7849 24.784L87.5047 25.812C87.7163 26.1315 88.0022 26.3949 88.338 26.5795C88.6738 26.7642 89.0493 26.8645 89.4324 26.872H91.636L87.1448 20.8Z" fill="white"/>
<path d="M78.1145 16.936C77.472 16.2587 76.5241 15.9214 75.271 15.924C74.5991 15.9135 73.933 16.05 73.3193 16.324C72.8302 16.5487 72.4073 16.8959 72.0916 17.332V16.132H69.1641V20.668V26.864H72.0956V21.812C72.0956 20.544 72.2755 19.636 72.6435 19.088C72.8449 18.8123 73.1144 18.5937 73.4257 18.4534C73.7369 18.3132 74.0792 18.2562 74.4191 18.288C74.6694 18.2671 74.921 18.3092 75.1508 18.4105C75.3807 18.5118 75.5815 18.6691 75.7349 18.868C76.042 19.3953 76.1815 20.0036 76.1348 20.612V26.864H79.0663V19.86C79.0797 18.588 78.7624 17.6134 78.1145 16.936Z" fill="white"/>
<path d="M35.8257 0.400391C36.6062 0.40047 37.3548 0.710659 37.9067 1.2627C38.4586 1.81472 38.769 2.56314 38.769 3.34375V22.4756C38.8057 23.6663 38.5984 24.8525 38.1597 25.96C37.7208 27.0675 37.0595 28.0736 36.2173 28.916C33.5218 31.736 29.5225 35.9201 28.3228 37.1201C26.959 38.4801 24.0594 39.5996 21.8198 39.5996H3.2749C2.88826 39.6001 2.50526 39.5247 2.14795 39.377C1.79077 39.2293 1.46622 39.0126 1.19287 38.7393C0.919438 38.4658 0.701937 38.1406 0.554199 37.7832C0.406538 37.4259 0.331046 37.0429 0.331543 36.6562V17.5039C0.294741 16.3142 0.502563 15.1292 0.942871 14.0234C1.38318 12.9178 2.04672 11.9148 2.89111 11.0762C5.60259 8.27222 9.54183 4.1122 10.7417 2.91211C12.1294 1.51217 14.6409 0.40048 17.2163 0.400391H35.8257ZM25.3755 12.5996C23.2186 12.5996 21.5619 13.2163 20.4048 14.4482C19.2477 15.6802 18.6697 17.4652 18.6724 19.8037C18.6724 22.1397 19.2469 23.9389 20.396 25.2002C21.545 26.4614 23.1983 27.0855 25.355 27.0723H25.5952L26.187 27.7959L26.5269 28.1963V28.2197L26.6714 28.3955C26.7426 28.4774 26.8198 28.5542 26.9028 28.624L27.0913 28.7676C27.537 29.0714 28.0477 29.2663 28.5825 29.3359H31.1948L28.5991 26.4316C29.7082 25.9288 30.6127 25.0622 31.1626 23.9756C31.7886 22.6838 32.0908 21.2589 32.0425 19.8242C32.0425 17.4909 31.4704 15.7026 30.3267 14.46C29.1829 13.2173 27.5324 12.5969 25.3755 12.5996ZM10.0942 12.8203C9.47581 12.8318 8.8863 13.0853 8.45264 13.5264C8.01903 13.9675 7.77495 14.5611 7.77393 15.1797V26.8643H15.1968C15.7895 26.8481 16.3546 26.6096 16.7798 26.1963C17.205 25.7828 17.4598 25.2241 17.4927 24.6318V24.4238H10.7495V21.0996H14.8569C15.4464 21.0817 16.0079 20.8443 16.4312 20.4336C16.8544 20.0228 17.1094 19.4686 17.145 18.8799V18.6602H10.7456V15.2803H15.1968C15.7897 15.2622 16.3548 15.0223 16.7798 14.6084C17.2046 14.1945 17.4589 13.6362 17.4927 13.0439V12.8203H10.0942ZM25.3755 15.0645C27.7376 15.0645 28.9196 16.6465 28.9224 19.8115C28.925 22.9767 27.7378 24.5594 25.3599 24.5596C24.8505 24.5925 24.3401 24.5011 23.8745 24.292C23.409 24.0829 23.0017 23.7628 22.688 23.3604C22.0935 22.5604 21.7952 21.3789 21.7925 19.8164C21.7925 18.2444 22.0959 17.0637 22.6958 16.2637C23.0115 15.8613 23.4205 15.5421 23.8872 15.333C24.354 15.1239 24.865 15.032 25.3755 15.0645Z" fill="white"/>
<path d="M66.0644 16.844C65.2965 16.2147 64.1913 15.9014 62.7489 15.904C61.4311 15.8897 60.127 16.1727 58.9336 16.732L59.6215 18.848C60.5626 18.3853 61.5893 18.1225 62.6369 18.076C63.7488 18.076 64.3087 18.62 64.3087 19.708V20.18L62.445 20.236C60.8453 20.292 59.6455 20.5907 58.8456 21.132C58.0457 21.676 57.6458 22.516 57.6458 23.656C57.6161 24.1136 57.6794 24.5726 57.832 25.005C57.9846 25.4374 58.2233 25.8345 58.5337 26.172C58.8586 26.4767 59.242 26.7122 59.6607 26.8641C60.0794 27.0161 60.5246 27.0814 60.9692 27.056C61.667 27.0822 62.3623 26.9594 63.0089 26.696C63.5032 26.451 63.9406 26.1049 64.2927 25.68V26.88H67.2202V19.708C67.2175 18.428 66.8322 17.4734 66.0644 16.844ZM64.3087 22.1H64.2887V22.988C64.2679 23.4935 64.0564 23.9723 63.6968 24.328C63.4778 24.5288 63.2211 24.6841 62.9418 24.785C62.6624 24.8859 62.3657 24.9305 62.069 24.916C61.1212 24.916 60.6453 24.516 60.6453 23.676C60.6318 23.4273 60.6824 23.1793 60.7924 22.9559C60.9023 22.7324 61.0679 22.541 61.2732 22.4C61.8553 22.0673 62.5188 21.9038 63.1889 21.928L64.3247 21.888L64.3087 22.1Z" fill="white"/>
</g>
<defs>
<clipPath id="clip0_303_2696">
<rect width="92" height="40" fill="white"/>
</clipPath>
</defs>
</svg>
