<svg width="124" height="40" viewBox="0 0 124 40" fill="none" xmlns="http://www.w3.org/2000/svg">
<path d="M39.8232 0V40H0V0H39.8232ZM16.7822 20.9971L16.7832 31.3438H23.1299V21.0068L19.9482 17.8154L16.7822 20.9971ZM6.34277 25.5459L12.1885 25.5508L15.3604 22.3613L12.1963 19.1816L6.34277 19.1787V25.5459ZM24.4971 22.3691L27.6611 25.5488L33.5146 25.5508L33.5137 19.1846L27.6543 19.1787L24.4971 22.3691ZM8.10645 14.9404L12.2363 19.1025L16.7207 19.1035L16.7178 14.6045L12.5811 10.4385L8.10645 14.9404ZM23.1592 14.5918L23.1582 19.1035L27.6299 19.1006L31.7695 14.9385L27.2959 10.4365L23.1592 14.5918ZM16.7812 8.64453V14.5498L19.9463 17.7178L23.1016 14.5498L23.1084 8.64453H16.7812Z" fill="white"/>
<path d="M48.3892 8.62488V16.4473H51.2425V17.7793H46.1694V8.62488H48.3892Z" fill="white"/>
<path d="M54.7714 14.3882H56.5632L55.6813 11.5166L54.7714 14.3882ZM56.6599 8.63202L59.9132 17.7865H57.6386L56.9217 15.5534H54.413L53.6961 17.7865H52.166L55.3505 8.63202H56.6599Z" fill="white"/>
<path d="M62.5924 8.63202V13.6114C62.5924 14.8735 62.62 15.4006 62.9369 15.8859C63.199 16.3024 63.6814 16.5244 64.1365 16.5244C64.5226 16.5244 65.2254 16.3439 65.5151 15.5812C65.653 15.2342 65.7218 14.8598 65.7218 13.5977V8.63202H67.2243V13.7364C67.2243 14.4296 67.4589 17.9252 63.723 17.9252C63.2266 17.9252 61.5587 17.8834 60.7315 16.2189C60.4422 15.6366 60.373 15.0262 60.373 13.8333V8.63202H62.5924Z" fill="white"/>
<path d="M70.9577 9.86609V12.7928H71.3159C71.8404 12.7928 72.7632 12.7928 72.7632 11.2254C72.7632 9.86609 72.0057 9.86609 71.3437 9.86609H70.9577ZM71.3579 8.63202C72.6122 8.63202 73.1637 8.67345 73.7702 8.96459C74.3902 9.2698 74.956 9.92195 74.956 10.8648C74.956 11.9054 74.418 12.8901 73.1082 13.3062L75.7692 17.7865H73.3569L71.3437 13.8747H70.9577V17.7865H68.7935V8.63202H71.3579Z" fill="white"/>
<path d="M81.8445 8.63202V9.97702H78.9084V12.3907H81.6235V13.6805H78.9084V16.4271H81.8858V17.7865H76.6885V8.63202H81.8445Z" fill="white"/>
<path d="M84.8437 8.63202L88.8003 14.2354V8.63202H90.3025V17.7865H88.91L84.9677 12.1828V17.7865H83.4512V8.63202H84.8437Z" fill="white"/>
<path d="M98.0049 8.63202V9.94966H95.7166V17.7865H93.4974V9.94966H91.2227V8.63202H98.0049Z" fill="white"/>
<path d="M101.144 8.63202H98.9248V17.7865H101.144V8.63202Z" fill="white"/>
<path d="M104.669 14.3882H106.462L105.579 11.5166L104.669 14.3882ZM106.559 8.63202L109.812 17.7865H107.537L106.82 15.5534H104.312L103.595 17.7865H102.064L105.248 8.63202H106.559Z" fill="white"/>
<path d="M112.127 8.63202L116.084 14.2354V8.63202H117.586V17.7865H116.194L112.251 12.1828V17.7865H110.735V8.63202H112.127Z" fill="white"/>
<path d="M48.8684 30.0946C49.2128 30.0946 49.6816 30.0946 49.9985 29.8864C50.357 29.6504 50.5363 29.1928 50.5363 28.5551C50.5363 28.0139 50.3709 27.5978 50.0264 27.3895C49.7228 27.1953 49.3095 27.1816 48.8129 27.1816H48.3581V30.0946H48.8684ZM48.7993 26.0305C49.1026 26.0305 49.5161 26.0305 49.8055 25.8363C50.1363 25.642 50.3158 25.2259 50.3158 24.6155C50.3158 24.158 50.1915 23.811 49.9022 23.6172C49.64 23.4508 49.2956 23.4367 48.8684 23.4367H48.3581V26.0305H48.7993ZM49.254 22.2023C49.9849 22.2023 50.7705 22.2574 51.4047 22.5766C52.0113 22.8818 52.4248 23.4367 52.4248 24.2827C52.4248 25.4479 51.6253 26.2106 50.5503 26.5162C50.8672 26.5713 51.3911 26.6823 51.8734 27.0015C52.3837 27.3481 52.7557 27.903 52.7557 28.7353C52.7557 29.5675 52.3282 30.5659 51.1981 31.0098C50.6742 31.2595 50.0536 31.3568 48.6614 31.3568H46.1938V22.2023H49.254Z" fill="white"/>
<path d="M55.9399 27.9635H57.7397L56.8537 25.08L55.9399 27.9635ZM57.7286 22.1836L60.9954 31.3755H58.7115L57.9917 29.133H55.4726L54.7525 31.3755H53.2163L56.4137 22.1836H57.7286Z" fill="white"/>
<path d="M63.3129 22.1836L67.2855 27.81V22.1836H68.7941V31.3755H67.3961L63.4375 25.7491V31.3755H61.9146V22.1836H63.3129Z" fill="white"/>
<path d="M72.5933 22.1836V26.3757L75.6797 22.1836H77.4236L74.4618 25.9577L77.6174 31.3755H74.9877L72.5933 26.8214V31.3755H70.3643V22.1836H72.5933Z" fill="white"/>
</svg>
