<svg width="124" height="40" viewBox="0 0 124 40" fill="none" xmlns="http://www.w3.org/2000/svg">
<g clip-path="url(#clip0_303_2726)">
<path d="M22.9598 10.8C22.3198 10.96 21.9198 11.04 21.4398 10.8C21.1198 10.64 20.7998 10.32 20.5598 9.91999L16.3998 4.23999C16.1598 3.91999 15.8398 3.51999 15.5198 3.35999C15.0398 3.19999 14.6398 3.35999 13.9998 3.35999L0.799805 7.11999V32L14.1598 28.4C14.7998 28.24 15.1998 28.16 15.6798 28.4C15.9998 28.56 16.3198 28.88 16.5598 29.28L20.6398 34.96C20.8798 35.28 21.1198 35.68 21.5198 35.84C21.9998 36 22.3998 35.84 23.0398 35.84L36.3998 32.24V7.19999L23.0398 10.8H22.9598Z" fill="white"/>
<path d="M51.52 8.31997V14.64H51.44L47.28 7.27997L44.96 8.39997V17.84H47.04V10.32L51.36 17.84H53.6V7.27997L51.52 8.31997Z" fill="white"/>
<path d="M60.9597 7.27997L57.9197 8.79997L54.7197 17.84H57.0397L57.7597 15.68H61.6797L62.3197 17.84H64.7197L60.9597 7.27997ZM58.2397 13.84L59.5997 9.67997L60.8797 13.84H58.1597H58.2397Z" fill="white"/>
<path d="M104.16 7.27997L101.04 8.79997L97.8398 17.84H100.16L100.88 15.68H104.8L105.44 17.84H107.84L104.08 7.27997H104.16ZM101.52 13.84L102.88 9.67997L104.16 13.84H101.44H101.52Z" fill="white"/>
<path d="M71.9999 7.27997H64.4799L63.3599 9.11997V9.19997H66.5599V17.84H68.7999V9.19997H70.8799L71.9999 7.27997Z" fill="white"/>
<path d="M72.8799 8.39997V17.84H75.0399V7.27997L72.8799 8.39997Z" fill="white"/>
<path d="M81.6 7.03996C81.52 7.03996 81.36 7.03996 81.28 7.03996L77.6 8.79996C76.96 9.59996 76.48 10.8 76.48 12.56C76.48 17.52 80.16 18.16 81.6 18.16C83.04 18.16 86.72 17.52 86.72 12.56C86.72 7.59996 83.04 6.95996 81.6 6.95996V7.03996ZM81.6 16.24C80.4 16.24 78.72 15.52 78.72 12.56C78.72 9.59996 80.4 8.87996 81.6 8.87996C82.8 8.87996 84.48 9.59996 84.48 12.56C84.48 15.52 82.8 16.24 81.6 16.24Z" fill="white"/>
<path d="M94.7202 8.31997V14.64H94.6402L90.4802 7.27997L88.1602 8.39997V17.84H90.1602V10.32H90.2402L94.5602 17.84H96.7202V7.27997L94.7202 8.31997Z" fill="white"/>
<path d="M116.48 15.92H111.2V7.27997L108.96 8.39997V17.84H115.36L116.48 15.92Z" fill="white"/>
<path d="M52.08 26.48C52.56 26.24 53.36 25.84 53.36 24.32C53.36 22.8 52.72 21.6 50.08 21.6H47.2L44.96 22.72V32.24H49.44C51.6 32.24 52.16 31.84 52.8 31.28C53.36 30.72 53.68 29.92 53.68 29.12C53.68 28.32 53.36 27.04 52.08 26.56V26.48ZM47.04 23.36H49.6C50.64 23.36 51.2 23.6 51.2 24.48C51.2 25.36 50.48 25.68 49.6 25.68H47.04V23.36ZM49.76 30.32H47.04V27.52H49.84C50.64 27.52 51.44 27.84 51.44 28.8C51.44 29.76 50.8 30.32 49.76 30.32Z" fill="white"/>
<path d="M71.52 22.56V28.96H71.44L67.28 21.6L64.96 22.72V32.16H66.96V24.64H67.04L71.36 32.16H73.52V21.6L71.52 22.56Z" fill="white"/>
<path d="M60.2399 21.6L57.1199 23.12L53.9199 32.16H56.2399L56.9599 30H60.8799L61.5199 32.16H63.9199L60.1599 21.6H60.2399ZM57.5999 28.16L58.9599 24L60.2399 28.16H57.5199H57.5999Z" fill="white"/>
<path d="M84.4799 21.6L81.0399 22.16L77.5999 25.84V21.6L75.3599 22.64V32.16H77.5999V28.56L78.6399 27.52L81.9199 32.16H84.7199L80.1599 25.92L84.4799 21.6Z" fill="white"/>
</g>
<defs>
<clipPath id="clip0_303_2726">
<rect width="124" height="40" fill="white"/>
</clipPath>
</defs>
</svg>
