<svg width="274" height="40" viewBox="0 0 274 40" fill="none" xmlns="http://www.w3.org/2000/svg">
<g clip-path="url(#clip0_303_2625)">
<path d="M25.5648 31.8703C26.1824 30.364 26.4808 28.7423 26.4389 27.1153C26.4965 24.722 25.6747 22.3865 24.1305 20.5549C22.4084 18.655 19.4614 17.0752 15.3786 15.8733C14.5882 15.6686 13.8188 15.3905 13.0755 15.0493C12.4316 14.7344 11.8559 14.3041 11.3691 13.7792C10.8613 13.2019 10.5944 12.4514 10.631 11.6799C10.6467 10.5568 11.2748 9.52808 12.2694 9.00849C14.3056 8.11102 16.6244 8.11102 18.6553 9.00849C19.5609 9.33914 20.4298 9.74851 21.2621 10.2314L24.6906 3.38226C23.1569 2.43231 21.5081 1.70279 19.7755 1.2042C17.9906 0.742345 16.1585 0.50617 14.316 0.50617C12.5625 0.47468 10.8194 0.763339 9.17061 1.3564C7.70498 1.92847 6.3702 2.80495 5.25528 3.91759C4.13512 5.04074 3.24527 6.37907 2.64855 7.84861C2.05706 9.36013 1.76393 10.9766 1.7744 12.5984C1.86862 15.191 2.96261 17.642 4.81559 19.4475C6.58482 21.001 8.65764 22.1661 10.9032 22.8589C11.971 23.2683 13.154 23.6356 13.9077 23.9243C14.6824 24.2182 15.4257 24.5908 16.1167 25.0474C16.6139 25.4043 17.017 25.8714 17.2944 26.4173C17.5352 26.9368 17.6242 27.5089 17.5509 28.0757C17.4724 28.9365 17.0589 29.7342 16.4046 30.2958C15.3315 31.0778 14.0124 31.4399 12.6934 31.3192C11.1335 31.2772 9.59983 30.9098 8.18654 30.2381C6.95122 29.645 5.75255 28.9785 4.59574 28.2384L0.502441 35.2922C3.73207 37.9531 7.76779 39.4279 11.9396 39.4699C14.0072 39.4699 16.0643 39.1445 18.0272 38.499C19.7179 37.9321 21.283 37.0557 22.644 35.9115C23.8897 34.7831 24.8843 33.4081 25.5648 31.8703Z" fill="white"/>
<path d="M47.6644 29.666C45.6073 32.2377 41.8647 32.6523 39.2998 30.5949C36.735 28.5323 36.3162 24.7745 38.3681 22.2028C40.4252 19.6259 44.1678 19.2113 46.7327 21.2686C47.0729 21.5416 47.387 21.8512 47.6644 22.1871L52.9982 16.818C50.4491 13.9944 46.8216 12.3884 43.0215 12.3937C35.5834 12.3674 29.166 17.6945 29.166 25.9134C29.166 34.1271 35.6514 39.4699 43.0895 39.4699C46.8949 39.4699 50.5224 37.8587 53.082 35.035L47.6644 29.666Z" fill="white"/>
<path d="M66.8382 12.3674C59.3739 12.3569 53.3177 18.424 53.3125 25.9134C53.3072 33.4081 59.3582 39.4804 66.8225 39.4856C74.2868 39.4856 80.3377 33.4133 80.3377 25.9239C80.3377 18.4398 74.2972 12.3727 66.8382 12.3674ZM66.8382 31.8965C63.551 31.8755 60.9024 29.1831 60.9181 25.8819C60.9337 22.586 63.6086 19.9198 66.8958 19.925C70.183 19.9355 72.8473 22.6122 72.8473 25.9134C72.8473 27.5037 72.2139 29.0362 71.0833 30.1593C69.9579 31.2825 68.4295 31.907 66.8382 31.8965Z" fill="white"/>
<path d="M97.5535 13.0077H93.8685V5.0145H85.7866V13.0077H82.1016V20.3502H85.7866V38.8243H93.8685V20.3502H97.5535V13.0077Z" fill="white"/>
<path d="M105.29 0.506168C103.469 0.50092 101.82 1.59782 101.118 3.28779C100.417 4.97251 100.799 6.91965 102.087 8.21599C103.374 9.51233 105.316 9.90071 106.997 9.20268C108.682 8.50465 109.781 6.85667 109.781 5.02499C109.781 2.53728 107.776 0.511416 105.29 0.506168Z" fill="white"/>
<path d="M101.249 13.0077H109.32V38.8139H101.249V13.0077Z" fill="white"/>
<path d="M140.889 38.8558V13.0077H133.027V15.7474L132.289 15.1071C130.457 13.3436 128.007 12.3569 125.468 12.3674C118.517 12.3674 112.649 18.571 112.649 25.9134C112.649 33.2506 118.533 39.4699 125.468 39.4699C128.007 39.4752 130.457 38.4937 132.289 36.7303L133.027 36.0847V38.8244L140.889 38.8558ZM126.777 32.0068C123.417 31.9858 120.71 29.2356 120.731 25.8662C120.747 22.4967 123.479 19.7781 126.84 19.7886C130.2 19.8043 132.912 22.544 132.907 25.9134C132.901 27.5352 132.252 29.0939 131.101 30.2381C129.954 31.3822 128.394 32.0173 126.777 32.0068Z" fill="white"/>
<path d="M152.944 38.8558V36.1162L153.666 36.7565C155.503 38.5199 157.948 39.5014 160.492 39.4961C167.438 39.4961 173.306 33.2926 173.306 25.9397C173.306 18.5867 167.438 12.3937 160.492 12.3937C157.948 12.3884 155.503 13.3699 153.666 15.1333L152.944 15.7789V1.15172H145.066V38.8558H152.944ZM153.106 25.9397C153.09 23.4624 154.561 21.2266 156.838 20.2662C159.11 19.3057 161.732 19.8201 163.486 21.5625C165.234 23.305 165.763 25.9397 164.821 28.2279C163.884 30.511 161.659 32.0067 159.194 32.0067C155.838 32.0067 153.116 29.2776 153.106 25.9134V25.9397Z" fill="white"/>
<path d="M204.293 38.8558V13.0077H196.431V15.7474L195.693 15.1071C193.856 13.3436 191.411 12.3622 188.868 12.3674C181.921 12.3674 176.054 18.571 176.054 25.9134C176.054 33.2506 181.937 39.4699 188.868 39.4699C191.411 39.4752 193.856 38.4937 195.693 36.7303L196.431 36.0847V38.8244L204.293 38.8558ZM190.234 32.0068C186.868 32.012 184.136 29.2829 184.13 25.9082C184.125 22.5335 186.852 19.7938 190.218 19.7886C193.579 19.7886 196.306 22.523 196.306 25.8977C196.306 29.2671 193.589 31.9963 190.234 32.0068Z" fill="white"/>
<path d="M221.043 19.967C223.692 19.9775 225.838 22.1294 225.843 24.7903V38.8558H233.915V23.7878C233.915 16.9387 229.968 12.4776 223.729 12.4776C221.164 12.4776 218.463 13.6008 216.238 17.2169V13.1074H208.156V38.8558H216.17V24.7903C216.17 23.4992 216.688 22.2658 217.604 21.3578C218.52 20.4551 219.756 19.9513 221.043 19.967Z" fill="white"/>
<path d="M263.327 38.8244L253.418 25.9239L262.631 13.0077H253.198L245.786 23.4624V1.15172H237.72V38.8244H245.786V28.186L253.921 38.8244H263.327Z" fill="white"/>
<path d="M269.022 29.8024C267.195 29.792 265.547 30.8836 264.84 32.5683C264.133 34.253 264.51 36.2002 265.793 37.5018C267.075 38.8034 269.012 39.197 270.702 38.5042C272.388 37.8062 273.492 36.1634 273.498 34.3318C273.503 31.844 271.503 29.8182 269.022 29.8024ZM269.022 37.9216C267.562 37.9269 266.243 37.0504 265.683 35.7016C265.117 34.3475 265.426 32.794 266.452 31.7548C267.483 30.7157 269.033 30.406 270.383 30.9676C271.728 31.5239 272.608 32.8412 272.608 34.3055C272.613 35.266 272.236 36.1844 271.561 36.8615C270.891 37.5385 269.975 37.9216 269.022 37.9216Z" fill="white"/>
<path d="M269.006 35.0613H268.284V36.7723H267.41V31.8441H269.278C270.184 31.8441 270.917 32.5788 270.917 33.4868C270.901 34.1061 270.535 34.6624 269.975 34.9248L271.011 36.7723H269.948L269.006 35.0613ZM268.284 34.2373H269.32C269.734 34.2373 270.069 33.9014 270.069 33.4868C270.069 33.0669 269.734 32.731 269.32 32.731H268.284V34.2373Z" fill="white"/>
</g>
<defs>
<clipPath id="clip0_303_2625">
<rect width="274" height="40" fill="white"/>
</clipPath>
</defs>
</svg>
