<svg width="193" height="40" viewBox="0 0 193 40" fill="none" xmlns="http://www.w3.org/2000/svg">
<g clip-path="url(#clip0_303_2640)">
<path d="M73.9547 8.843C78.3661 8.84309 79.6943 11.7196 80.5081 11.7197C80.8076 11.7197 80.9378 11.5468 81.1071 10.8199L81.4493 9.27362H85.9449V30.8147C85.9449 35.9644 82.5165 39.3104 77.3336 39.3104H66.3682V35.2339H75.5367C78.3204 35.2338 80.5927 33.3033 80.5927 30.9845V29.3113C80.5927 28.7112 80.4202 28.411 80.0784 28.411C79.1376 28.4111 78.0205 31.1574 73.8667 31.1575C68.2535 31.1575 64.1872 26.438 64.1872 20C64.1877 13.5198 68.2997 8.843 73.9547 8.843ZM27.2293 8.843C31.6407 8.843 32.9693 11.7197 33.7833 11.7197C34.0827 11.7196 34.213 11.5468 34.3821 10.8199L34.7238 9.27362H39.2198V30.7269H33.864V29.3113C33.864 28.7112 33.6915 28.411 33.3497 28.411C32.4089 28.4112 31.2919 31.1575 27.1378 31.1575C21.5249 31.1575 17.4587 26.438 17.4587 20H17.4624C17.4625 13.5199 21.5742 8.84309 27.2293 8.843ZM98.6368 8.843C104.933 8.84305 109.302 13.4351 109.303 20V21.8462H93.4961C94.0528 25.0228 96.1525 27.0805 99.0632 27.0805C101.033 27.0805 102.404 26.1381 102.96 24.3769H108.658C107.801 28.4112 103.732 31.1574 98.7214 31.1575C92.3823 31.1575 87.9714 26.6074 87.9714 20C87.9714 13.3927 92.3405 8.843 98.6368 8.843ZM168.529 8.843C174.826 8.84309 179.195 13.4351 179.195 20V21.8462H163.388C163.945 25.0228 166.045 27.0805 168.955 27.0805C170.925 27.0805 172.295 26.1381 172.852 24.3769H178.55C177.694 28.4111 173.624 31.1574 168.614 31.1575C162.275 31.1575 157.864 26.6074 157.864 20C157.864 13.3927 162.233 8.843 168.529 8.843ZM116.469 11.5927C116.469 12.108 116.554 12.3656 116.899 12.3656C117.156 12.3656 117.329 12.1927 117.671 11.5927C118.611 9.91971 119.728 9.27733 121.783 9.27733H125.211V13.3538H121.613C118.273 13.3539 116.645 15.1118 116.645 18.7189L116.638 18.7156V30.7301H111.328V9.27733H116.469V11.5927ZM132.744 30.7301H127.346V9.27733H132.744V30.7301ZM23.6459 4.98185H13.0648C12.5928 4.9819 12.3355 5.15481 12.3355 5.49709C12.3355 6.52776 14.6046 6.5279 14.6046 10.1316V30.7269H9.03758V6.27C9.03758 5.23947 8.78036 4.9819 7.75166 4.98185H0V0.689636H23.6459V4.98185ZM53.9444 8.843C58.9548 8.80066 62.1683 12.0621 62.1683 17.2117V30.7269H56.7705V17.639C56.7705 14.8083 54.8006 12.9199 51.8866 12.9199H51.8837C48.8851 12.9199 46.9154 14.8083 46.9154 17.639V30.7269H41.6055V9.27362H46.7459V11.0314C46.7459 11.5466 46.9187 11.8041 47.1758 11.8043C48.1625 11.8043 49.061 8.80066 53.9444 8.843ZM147.617 8.843C152.627 8.80071 155.841 12.0621 155.841 17.2117V30.7269H150.443V17.639C150.443 14.8083 148.473 12.9199 145.559 12.9199H145.556C142.558 12.9199 140.588 14.8083 140.588 17.639V30.7269H135.277V9.27362H140.418V11.0314C140.418 11.5467 140.591 11.8042 140.848 11.8043C141.835 11.8043 142.733 8.80066 147.617 8.843ZM28.3852 12.9199C25.045 12.9199 22.945 15.7964 22.9449 20C22.9449 24.2038 25.1295 27.0805 28.3852 27.0805C31.7254 27.0805 34.0827 24.119 34.0827 20C34.0826 15.8811 31.7254 12.92 28.3852 12.9199ZM75.1103 12.9199C71.7699 12.92 69.6701 15.7964 69.6701 20C69.6701 24.2037 71.8545 27.0805 75.1103 27.0805C78.4507 27.0805 80.8076 24.119 80.8076 20C80.8076 15.8811 78.4502 12.9199 75.1103 12.9199ZM191.572 4.98885C192.179 4.98176 192.637 5.20076 192.855 5.58547L192.859 5.58176C193.081 5.96647 193.042 6.47124 192.735 6.99357L185.649 19.2801C185.195 20.0707 183.923 19.8096 184.177 18.5003C184.709 15.7578 184.384 12.9444 183.321 11.0984C182.256 9.25252 179.987 7.56562 177.348 6.65505C176.09 6.2209 176.499 4.989 177.408 4.98885H191.572ZM98.8517 12.9232C96.153 12.9232 94.183 14.8963 93.5418 17.9422H102.576C103.347 17.9422 103.516 17.5578 103.263 16.5271C102.622 14.2118 100.994 12.9232 98.8517 12.9232ZM168.744 12.9232C166.045 12.9232 164.075 14.8963 163.434 17.9422H172.468C173.24 17.9422 173.409 17.5578 173.155 16.5271C172.514 14.2118 170.886 12.9233 168.744 12.9232ZM132.917 5.84309H127.177V1.12397H132.917V5.84309Z" fill="white"/>
</g>
<defs>
<clipPath id="clip0_303_2640">
<rect width="193" height="40" fill="white"/>
</clipPath>
</defs>
</svg>
