<svg width="279" height="40" viewBox="0 0 279 40" fill="none" xmlns="http://www.w3.org/2000/svg">
<g clip-path="url(#clip0_303_2653)">
<path d="M47.1991 4.94803C46.8504 5.17219 46.4816 5.52108 46.0921 5.996C45.5622 6.63955 45.0263 7.40112 44.4827 8.28123C43.9397 9.16237 43.4594 10.0631 43.0412 10.9856L32.8448 33.1245L24.9889 15.0108L16.0884 33.1245L6.10071 10.9022C5.71052 10.0079 5.23709 9.09936 4.67979 8.17638C4.12241 7.25392 3.60705 6.51378 3.1336 5.95468C2.74352 5.4795 2.32517 5.1226 1.87988 4.88527C1.43409 4.6482 0.807229 4.41707 0 4.19343V3.77429H15.3356V4.19343C14.7226 4.4447 14.2842 4.73187 14.0193 5.05288C13.7544 5.37465 13.6223 5.80128 13.6223 6.33146C13.6223 6.779 13.7481 7.29601 13.9987 7.88301L20.5176 22.8939L24.7798 14.2983L22.3143 8.51185C21.5898 6.83504 20.9072 5.67499 20.2666 5.03144C20.0436 4.80857 19.7862 4.63374 19.4937 4.50823C19.2014 4.38195 18.7899 4.27684 18.2607 4.19343V3.77429H33.3884V4.19343C31.8842 4.4447 31.1317 5.25586 31.1317 6.62509C31.1317 6.96055 31.2078 7.42178 31.3612 8.0093C31.5141 8.59603 31.7169 9.1975 31.9676 9.81187L37.1909 22.2649L38.2354 20.1261C39.2945 17.9187 40.1091 15.878 40.6802 14.0048C41.2508 12.1322 41.537 10.4823 41.537 9.05726C41.537 7.43624 41.188 6.192 40.4923 5.32558C40.2411 5.01827 39.9626 4.78766 39.6564 4.63374C39.3496 4.4806 38.8899 4.3334 38.2773 4.19343V3.77429H48.7661V4.19343C48.0696 4.47285 47.5474 4.7249 47.1991 4.94803Z" fill="white"/>
<path d="M63.2056 25.2626C63.0103 25.7238 62.8155 26.1367 62.6209 26.4998C62.4255 26.863 62.2093 27.2124 61.9725 27.5478C61.736 27.8832 61.4642 28.2466 61.1579 28.6381C60.1822 29.8118 59.0124 30.7134 57.648 31.3426C56.2829 31.9713 54.778 32.2856 53.1346 32.2856C51.5741 32.2856 50.1189 32.0129 48.7682 31.468C47.4167 30.9226 46.2464 30.168 45.2575 29.2034C44.2687 28.2396 43.496 27.101 42.9385 25.7867C42.3805 24.4734 42.1025 23.0477 42.1025 21.5096C42.1025 19.945 42.3957 18.4772 42.9805 17.1074C43.5655 15.7383 44.3731 14.5432 45.404 13.5226C46.4348 12.5023 47.6396 11.6986 49.0186 11.1119C50.3974 10.5244 51.8809 10.2315 53.4692 10.2315C54.8619 10.2315 56.1437 10.4407 57.3134 10.8598C58.4832 11.2795 59.514 11.881 60.4059 12.6627C61.2969 13.4462 62.0284 14.3962 62.5995 15.514C63.1706 16.6324 63.54 17.8765 63.7073 19.2457H49.8752C49.9027 24.4734 52.2292 27.0866 56.8538 27.0866C58.6091 27.0866 60.0991 26.6537 61.3252 25.7867C61.7985 25.4794 62.1743 25.1652 62.4536 24.8429C62.7316 24.5225 63.0806 24.0399 63.498 23.3971L63.8746 23.5642C63.6234 24.2353 63.4005 24.8014 63.2056 25.2626ZM56.3104 17.5134C56.3104 17.1746 56.3035 16.8718 56.2896 16.6029C56.2752 16.3345 56.2615 16.087 56.2476 15.8614C56.234 15.6358 56.2126 15.382 56.1851 15.0987C56.0736 13.5738 55.7949 12.4646 55.3496 11.7722C54.9039 11.0812 54.2632 10.7341 53.4273 10.7341C52.2575 10.7341 51.3726 11.4197 50.7739 12.7895C50.1745 14.16 49.8752 16.1449 49.8752 18.7424H56.3104V17.5134Z" fill="white"/>
<path d="M86.7414 31.552C85.6838 32.0685 84.6273 32.3272 83.571 32.3272C81.3184 32.3272 79.928 30.9858 79.4009 28.3022C78.8998 29.0015 78.4829 29.5185 78.149 29.8542C77.8152 30.1889 77.3983 30.5246 76.8979 30.8601C75.5075 31.8102 73.8395 32.2859 71.8937 32.2859C70.1422 32.2859 68.7099 31.866 67.5977 31.0279C66.4856 30.1889 65.9302 29.0857 65.9302 27.7152C65.9302 25.954 66.9046 24.5151 68.8553 23.3967C71.3895 21.971 74.9001 20.6018 79.3857 19.2874V17.107C79.3857 15.0391 79.2874 13.6556 79.0928 12.9563C78.9531 12.4537 78.6888 12.0553 78.2993 11.7619C77.9086 11.4678 77.449 11.3213 76.9203 11.3213C76.5296 11.3213 76.1471 11.3911 75.7706 11.5305C75.3948 11.6712 75.0669 11.8523 74.7887 12.0759C74.4268 12.3838 74.155 12.7884 73.9741 13.2918C73.7924 13.7951 73.6328 14.4944 73.4938 15.3886L73.3265 16.6464C73.1592 17.988 72.6789 19.0436 71.8849 19.8121C71.0909 20.5811 70.109 20.965 68.9384 20.965C68.0749 20.965 67.3718 20.6923 66.8282 20.1476C66.2851 19.6022 66.0136 18.8965 66.0136 18.0295C66.0136 15.9899 67.6284 14.2286 70.8611 12.7471C72.5881 11.9365 74.3779 11.3144 76.231 10.8808C78.0834 10.4479 79.786 10.2313 81.3385 10.2313C82.9448 10.2313 84.206 10.608 85.1197 11.3634C85.7289 11.8662 86.1515 12.4605 86.387 13.1453C86.622 13.8302 86.7401 14.7879 86.7401 16.0168V25.6612C86.7401 26.4716 86.754 27.0517 86.7821 27.4011C86.8099 27.7511 86.893 28.0509 87.0328 28.3022C87.1434 28.5823 87.3388 28.799 87.6175 28.9524C87.8963 29.1064 88.217 29.1831 88.5788 29.1831C88.8301 29.1831 89.0735 29.1485 89.3103 29.0781C89.5463 29.0084 89.8601 28.8621 90.2503 28.6376L90.5015 28.9318C89.0522 30.1621 87.7992 31.0347 86.7414 31.552ZM79.3857 19.7907C78.5773 20.0709 77.9787 20.2877 77.5885 20.4404C77.1985 20.595 76.8083 20.8255 76.4189 21.1328C75.7217 21.6084 75.2203 22.1953 74.9145 22.8934C74.6077 23.5928 74.4543 24.4731 74.4543 25.5349C74.4543 26.7929 74.6636 27.7572 75.0818 28.4285C75.4996 29.0988 76.0982 29.4343 76.8783 29.4343C77.6582 29.4343 78.2713 29.1554 78.7171 28.5963C79.1623 28.037 79.3857 27.2684 79.3857 26.2897V19.7907Z" fill="white"/>
<path d="M90.3606 31.7405V31.2374C91.0847 31.1818 91.6208 31.0915 91.9695 30.9651C92.3178 30.8402 92.6171 30.6241 92.868 30.3172C93.0624 30.0391 93.2019 29.628 93.2858 29.0839C93.3692 28.5406 93.4111 27.6132 93.4111 26.3031V9.11666C93.4111 7.86235 93.3547 6.93576 93.2438 6.33637C93.1324 5.73697 92.9095 5.21402 92.5757 4.76803C92.2681 4.35018 91.9132 4.05036 91.5098 3.86933C91.106 3.68856 90.5555 3.58345 89.859 3.5553L89.7759 3.09536C90.3326 2.98405 90.8129 2.88747 91.2175 2.80302C91.6208 2.71961 92.0177 2.62922 92.4084 2.53109C92.798 2.43373 93.2219 2.32888 93.6803 2.21757C94.1374 2.10627 94.6849 1.96682 95.3222 1.79921C95.9867 1.63187 96.5416 1.48544 96.9843 1.35993C97.4275 1.23468 97.836 1.10969 98.2105 0.984181C98.5837 0.8579 98.9651 0.732907 99.3527 0.607141C99.7409 0.482148 100.211 0.33624 100.765 0.168378V26.3031C100.765 26.9446 100.772 27.4879 100.787 27.9342C100.8 28.3802 100.829 28.7497 100.87 29.0418C100.912 29.3347 100.968 29.5784 101.037 29.7739C101.107 29.9694 101.198 30.151 101.309 30.3172C101.531 30.6241 101.817 30.8402 102.166 30.9651C102.514 31.0915 103.064 31.1818 103.816 31.2374V31.7405H90.3606Z" fill="white"/>
<path d="M117.293 31.5715C116.164 32.0473 115.018 32.2859 113.853 32.2859C112.219 32.2859 110.847 31.8374 109.74 30.9414C109.047 30.3816 108.562 29.681 108.285 28.8401C108.008 28.0007 107.87 26.8095 107.87 25.2687V12.705H102.73C103.315 12.4532 103.83 12.2162 104.276 11.992C104.721 11.7689 105.133 11.5452 105.508 11.3216C105.885 11.0979 106.261 10.8604 106.637 10.6083C107.013 10.357 107.451 10.0497 107.952 9.68584C109.199 8.76364 110.321 7.82749 111.318 6.87662C111.734 6.48589 112.101 6.12951 112.42 5.80799C112.738 5.48673 113.042 5.15127 113.334 4.80134C113.625 4.45193 113.915 4.07489 114.207 3.6697C114.497 3.26425 114.837 2.78237 115.224 2.22248V10.7762H120.49L119.445 12.705H115.224V24.8069C115.224 26.4027 115.489 27.5445 116.018 28.2314C116.547 28.9175 117.439 29.2605 118.693 29.2605C119.082 29.2605 119.445 29.2329 119.779 29.1763C120.114 29.1203 120.545 28.9948 121.074 28.798L121.326 29.1342C119.765 30.2829 118.421 31.0954 117.293 31.5715Z" fill="white"/>
<path d="M136.118 31.7405V31.2374C136.898 31.1537 137.42 30.9161 137.685 30.5246C137.95 30.1334 138.082 29.3504 138.082 28.1767V17.1072C138.082 16.3526 138.047 15.7865 137.977 15.4095C137.907 15.0319 137.76 14.69 137.535 14.3821C137.338 14.1032 137.071 13.8788 136.734 13.7112C136.398 13.5433 136.047 13.4599 135.682 13.4599C135.205 13.4599 134.707 13.5792 134.188 13.816C133.668 14.0536 133.086 14.4519 132.441 15.0111V28.4279C132.441 28.7634 132.455 29.0438 132.482 29.2667C132.51 29.4906 132.538 29.6721 132.566 29.8121C132.593 29.9524 132.635 30.0918 132.692 30.2313C132.831 30.539 133.026 30.7697 133.276 30.9231C133.528 31.077 133.903 31.1818 134.405 31.2374V31.7405H121.743V31.2374C122.551 31.1818 123.15 31.0915 123.54 30.9651C123.93 30.8402 124.251 30.6241 124.501 30.3172C124.724 30.0107 124.878 29.5929 124.961 29.0632C125.045 28.5335 125.086 27.6132 125.086 26.3031V9.11666C125.086 7.86235 125.03 6.93576 124.919 6.33637C124.807 5.73697 124.598 5.21402 124.292 4.76803C123.985 4.35018 123.63 4.05036 123.227 3.86933C122.822 3.68856 122.258 3.58345 121.534 3.5553L121.492 3.09536C122.078 2.98405 122.592 2.87972 123.039 2.78236C123.484 2.68449 123.909 2.58687 124.313 2.48951C124.717 2.39163 125.134 2.28652 125.563 2.17548C125.993 2.06417 126.484 1.93867 127.039 1.79921C127.62 1.63187 128.126 1.49242 128.555 1.3806C128.985 1.26929 129.394 1.15179 129.781 1.0255C130.169 0.899995 130.571 0.775002 130.986 0.649236C131.402 0.524243 131.886 0.363355 132.441 0.168378V14.3853C132.831 14.051 133.165 13.7721 133.444 13.549C133.722 13.3266 133.973 13.1311 134.196 12.9633C134.419 12.7967 134.628 12.6436 134.823 12.5041C135.017 12.3652 135.24 12.2118 135.491 12.0442C136.466 11.4032 137.378 10.9358 138.229 10.6429C139.078 10.3513 139.948 10.2044 140.84 10.2044C142.372 10.2044 143.528 10.6788 144.309 11.6255C144.699 12.0999 144.977 12.6642 145.144 13.3196C145.311 13.9743 145.395 14.8879 145.395 16.0585V27.1393L145.437 28.1855C145.464 28.798 145.485 29.2378 145.5 29.5025C145.513 29.7669 145.59 30.0107 145.729 30.2338C145.897 30.5404 146.14 30.7705 146.46 30.9236C146.78 31.077 147.261 31.1818 147.902 31.2374V31.7405H136.118Z" fill="white"/>
<path d="M166.895 27.7278C166.435 28.666 165.794 29.4715 164.973 30.1437C164.151 30.8155 163.168 31.3407 162.026 31.719C160.884 32.0961 159.644 32.2859 158.307 32.2859C157.917 32.2859 157.535 32.2725 157.158 32.2469C156.783 32.2211 156.37 32.1689 155.925 32.0922C155.48 32.0142 154.992 31.9158 154.463 31.7957C153.934 31.6751 153.306 31.5033 152.582 31.2792C152.108 31.1398 151.726 31.0279 151.433 30.9438C151.141 30.8601 150.869 30.7764 150.619 30.6922C150.367 30.6089 150.124 30.5246 149.887 30.441C149.65 30.3568 149.365 30.2455 149.031 30.1055L148.613 21.7618H149.031C149.699 23.2993 150.43 24.6898 151.225 25.9333C152.018 27.1775 152.854 28.233 153.732 29.0988C154.609 29.9661 155.501 30.6294 156.406 31.0908C157.311 31.552 158.21 31.7826 159.101 31.7826C160.021 31.7826 160.758 31.5028 161.316 30.9425C161.873 30.3826 162.152 29.6544 162.152 28.7578C162.152 27.8339 161.866 27.078 161.295 26.4892C160.724 25.9012 159.7 25.3546 158.224 24.8506L156.176 24.1362C153.502 23.2126 151.594 22.1972 150.451 21.0907C149.308 19.9849 148.738 18.6616 148.738 17.1203C148.738 16.1406 148.968 15.2302 149.427 14.3908C149.887 13.5508 150.514 12.8225 151.308 12.2061C152.102 11.5896 153.042 11.1065 154.128 10.7565C155.215 10.4064 156.399 10.2313 157.681 10.2313C158.794 10.2313 159.923 10.3155 161.065 10.4825C162.207 10.6501 163.558 10.9582 165.119 11.4055L165.537 18.2815H165.119C164.673 17.1913 164.143 16.1846 163.531 15.2623C162.917 14.3404 162.263 13.5438 161.567 12.8726C160.871 12.2017 160.16 11.6777 159.436 11.3007C158.711 10.9228 158.015 10.7346 157.346 10.7346C156.538 10.7346 155.849 11.0078 155.278 11.5537C154.707 12.1005 154.421 12.7652 154.421 13.5487C154.421 15.2296 155.744 16.5039 158.391 17.3723L161.232 18.2959C163.461 19.0247 165.077 19.8931 166.08 20.9009C167.083 21.9094 167.584 23.1692 167.584 24.6817C167.584 25.7743 167.354 26.7896 166.895 27.7278Z" fill="white"/>
<path d="M168.211 31.7405V31.2374C168.963 31.1818 169.513 31.091 169.861 30.9651C170.21 30.839 170.495 30.6228 170.718 30.3149C170.94 30.0076 171.094 29.5885 171.178 29.0571C171.261 28.5265 171.303 27.6041 171.303 26.2897V19.4132C171.303 18.7987 171.289 18.2603 171.261 17.7991C171.233 17.3379 171.184 16.9395 171.115 16.6046C171.045 16.269 170.962 15.975 170.864 15.7237C170.766 15.4723 170.634 15.2347 170.467 15.0111C170.16 14.6197 169.805 14.3338 169.401 14.1515C168.997 13.9699 168.433 13.8511 167.709 13.7953L167.667 13.3757C168.224 13.2644 168.705 13.1593 169.109 13.0614C169.513 12.9633 169.91 12.8584 170.3 12.7466C170.69 12.6353 171.115 12.5165 171.574 12.3902C172.034 12.2647 172.583 12.1043 173.225 11.9083C173.865 11.7131 174.409 11.5514 174.855 11.4264C175.3 11.3002 175.718 11.1744 176.109 11.0489C176.498 10.9231 176.888 10.7906 177.278 10.6504C177.669 10.5109 178.128 10.3431 178.657 10.1471V26.2897C178.657 26.9332 178.664 27.4778 178.678 27.9246C178.692 28.3727 178.72 28.7427 178.762 29.0361C178.804 29.3297 178.866 29.5748 178.95 29.7701C179.034 29.9661 179.131 30.147 179.242 30.3149C179.465 30.6228 179.751 30.839 180.099 30.9651C180.447 31.091 180.997 31.1818 181.75 31.2374V31.7405H168.211ZM178.595 6.18478C178.358 6.7302 178.037 7.1984 177.634 7.5899C177.229 7.98141 176.756 8.29595 176.213 8.53303C175.67 8.77036 175.091 8.88915 174.479 8.88915C173.865 8.88915 173.294 8.77036 172.765 8.53303C172.236 8.29595 171.769 7.98141 171.366 7.5899C170.962 7.1984 170.641 6.7302 170.404 6.18478C170.168 5.64013 170.049 5.06011 170.049 4.44496C170.049 3.83059 170.168 3.25677 170.404 2.72581C170.641 2.19485 170.954 1.72665 171.345 1.32146C171.734 0.916266 172.202 0.594491 172.745 0.357162C173.288 0.119573 173.865 0.000777245 174.479 0.000777245C175.091 0.000777245 175.67 0.119573 176.213 0.357162C176.756 0.594491 177.229 0.909291 177.634 1.30028C178.037 1.6923 178.358 2.15973 178.595 2.70437C178.831 3.25005 178.95 3.83059 178.95 4.44496C178.95 5.06011 178.831 5.64013 178.595 6.18478Z" fill="white"/>
<path d="M208.41 31.7405V31.2374C209.19 31.1537 209.712 30.9161 209.978 30.5246C210.242 30.1334 210.374 29.3504 210.374 28.1767V17.5685C210.374 16.5907 210.339 15.8493 210.27 15.3466C210.199 14.8433 210.066 14.4381 209.869 14.1303C209.7 13.8511 209.44 13.6275 209.09 13.4599C208.739 13.292 208.381 13.2078 208.016 13.2078C207.539 13.2078 207.061 13.3271 206.584 13.5647C206.107 13.8021 205.56 14.2005 204.942 14.7591V28.1767C204.942 28.7634 204.969 29.2455 205.025 29.6231C205.081 30.0007 205.178 30.3018 205.318 30.5246C205.457 30.7486 205.652 30.9161 205.903 31.0279C206.154 31.1398 206.488 31.2095 206.906 31.2374V31.7405H195.665V31.2374C196.055 31.2095 196.375 31.1398 196.626 31.0279C196.877 30.9161 197.071 30.7486 197.211 30.5246C197.351 30.3018 197.448 30.0007 197.504 29.6231C197.559 29.2455 197.587 28.7634 197.587 28.1767V17.5685C197.587 16.6184 197.552 15.9121 197.483 15.4515C197.413 14.9897 197.267 14.5782 197.044 14.2144C196.877 13.9072 196.619 13.6691 196.271 13.502C195.922 13.3341 195.539 13.2499 195.122 13.2499C194.648 13.2499 194.182 13.3617 193.722 13.5854C193.262 13.8098 192.74 14.2005 192.155 14.7591V28.1767C192.155 28.7634 192.182 29.2455 192.239 29.6231C192.294 30.0007 192.391 30.3018 192.531 30.5246C192.67 30.7486 192.872 30.9161 193.137 31.0279C193.402 31.1398 193.729 31.2095 194.118 31.2374V31.7405H181.415V31.2374C182.223 31.1826 182.822 31.092 183.212 30.9665C183.602 30.8407 183.923 30.6253 184.174 30.3185C184.424 30.012 184.584 29.5946 184.654 29.0658C184.723 28.5366 184.758 27.6185 184.758 26.3097V19.4603C184.758 18.8477 184.744 18.3123 184.716 17.8531C184.689 17.3937 184.647 16.9967 184.591 16.6624C184.535 16.3288 184.459 16.0359 184.361 15.7852C184.264 15.5352 184.132 15.2976 183.964 15.0752C183.658 14.6863 183.302 14.4004 182.899 14.2194C182.495 14.0384 181.93 13.9203 181.207 13.8643L181.165 13.4467C181.471 13.3912 181.742 13.3359 181.979 13.2801C182.216 13.2241 182.404 13.1688 182.543 13.1123C183.212 12.9465 183.853 12.7861 184.466 12.633C185.078 12.4796 185.692 12.3125 186.304 12.1314C186.917 11.9512 187.558 11.7557 188.227 11.5465C188.895 11.3384 189.634 11.0946 190.441 10.8157L192.155 10.2313V14.2144C192.406 13.9624 192.628 13.7393 192.824 13.5433C193.018 13.3478 193.213 13.1732 193.408 13.0193C193.603 12.8659 193.806 12.712 194.015 12.5581C194.223 12.4049 194.481 12.2301 194.787 12.0341C195.762 11.3913 196.659 10.9301 197.48 10.6504C198.299 10.3715 199.152 10.2313 200.039 10.2313C202.809 10.2313 204.443 11.5592 204.942 14.2144C205.248 13.9353 205.513 13.6902 205.736 13.4805C205.959 13.2714 206.168 13.0821 206.363 12.9145C206.557 12.7466 206.745 12.5932 206.927 12.4532C207.108 12.3138 207.309 12.1743 207.533 12.0341C208.424 11.4195 209.315 10.9647 210.207 10.6713C211.098 10.3777 211.99 10.2313 212.881 10.2313C216.085 10.2313 217.687 12.2081 217.687 16.1616V27.1449L217.729 28.1893C217.757 28.8018 217.777 29.2398 217.792 29.5043C217.806 29.7696 217.882 30.012 218.022 30.2351C218.189 30.5417 218.432 30.771 218.753 30.9244C219.073 31.0778 219.553 31.1826 220.195 31.2374V31.7405H208.41Z" fill="white"/>
<path d="M244.073 24.9691C243.556 26.4369 242.851 27.7154 241.957 28.8058C241.062 29.8957 240.015 30.7486 238.813 31.3629C237.612 31.9776 236.313 32.2862 234.916 32.2862C234.105 32.2862 233.4 32.1736 232.8 31.9504C232.198 31.7268 231.535 31.3361 230.809 30.7761V34.6064C230.809 35.2423 230.815 35.7733 230.829 36.203C230.843 36.6304 230.878 36.9966 230.934 37.3008C230.989 37.6051 231.059 37.8532 231.143 38.0466C231.226 38.2401 231.337 38.4197 231.477 38.5851C231.728 38.8892 232.062 39.1029 232.48 39.2279C232.898 39.3516 233.552 39.4414 234.444 39.4974V40H219.567V39.4974C220.514 39.4133 221.197 39.2958 221.615 39.1423C222.033 38.9892 222.395 38.717 222.701 38.3268C222.98 38.0203 223.161 37.6024 223.245 37.0727C223.3 36.8497 223.342 36.626 223.37 36.4042C223.397 36.1806 223.419 35.9159 223.433 35.6093C223.447 35.3027 223.454 34.9117 223.454 34.4381V19.4711C223.454 18.8579 223.439 18.3212 223.412 17.8613C223.384 17.4014 223.342 17.0042 223.287 16.6699C223.23 16.3357 223.154 16.0429 223.057 15.7922C222.959 15.5409 222.827 15.3039 222.66 15.0809C222.353 14.6907 221.998 14.4048 221.595 14.2244C221.19 14.0435 220.626 13.9247 219.902 13.8682L219.86 13.4503C220.389 13.339 220.856 13.2349 221.26 13.1376C221.663 13.0394 222.06 12.9346 222.451 12.8233C222.84 12.712 223.265 12.5935 223.723 12.4677C224.18 12.3427 224.742 12.1831 225.407 11.9876C226.071 11.7921 226.625 11.6325 227.068 11.507C227.512 11.3807 227.921 11.2557 228.294 11.13C228.668 11.005 229.05 10.8722 229.437 10.7328C229.825 10.5938 230.282 10.4262 230.809 10.2315V12.9566C231.954 11.9783 233.022 11.2795 234.014 10.8598C235.006 10.4407 236.033 10.2315 237.095 10.2315C238.241 10.2315 239.288 10.4763 240.238 10.9647C241.188 11.4541 242.006 12.1389 242.691 13.0193C243.375 13.8997 243.906 14.9483 244.283 16.1641C244.66 17.38 244.849 18.7291 244.849 20.2101C244.849 21.9153 244.591 23.5019 244.073 24.9691ZM236.025 14.9898C235.351 13.3832 234.426 12.579 233.248 12.579C232.912 12.579 232.575 12.6492 232.239 12.7887C231.902 12.9289 231.425 13.1939 230.809 13.5854V30.105C231.425 30.7209 232.113 31.0282 232.87 31.0282C234.188 31.0282 235.212 30.2036 235.941 28.5545C236.67 26.905 237.035 24.599 237.035 21.6358C237.035 18.8126 236.698 16.5977 236.025 14.9898Z" fill="white"/>
<path d="M244.347 31.7405V31.2374C245.071 31.1818 245.608 31.0915 245.956 30.9651C246.305 30.8402 246.604 30.6241 246.855 30.3172C247.049 30.0391 247.189 29.628 247.273 29.0839C247.356 28.5406 247.398 27.6132 247.398 26.3031V9.11666C247.398 7.86235 247.342 6.93576 247.231 6.33637C247.119 5.73697 246.896 5.21402 246.562 4.76803C246.255 4.35018 245.9 4.05036 245.497 3.86933C245.093 3.68856 244.542 3.58345 243.846 3.5553L243.763 3.09536C244.319 2.98405 244.8 2.88747 245.204 2.80302C245.608 2.71961 246.004 2.62922 246.395 2.53109C246.785 2.43373 247.209 2.32888 247.667 2.21757C248.124 2.10627 248.672 1.96682 249.309 1.79921C249.974 1.63187 250.528 1.48544 250.971 1.35993C251.415 1.23468 251.823 1.10969 252.197 0.984181C252.57 0.8579 252.952 0.732907 253.34 0.607141C253.728 0.482148 254.198 0.33624 254.752 0.168378V26.3031C254.752 26.9446 254.759 27.4879 254.774 27.9342C254.787 28.3802 254.816 28.7497 254.857 29.0418C254.899 29.3347 254.955 29.5784 255.024 29.7739C255.094 29.9694 255.184 30.151 255.296 30.3172C255.519 30.6241 255.804 30.8402 256.152 30.9651C256.501 31.0915 257.051 31.1818 257.802 31.2374V31.7405H244.347Z" fill="white"/>
<path d="M278.331 25.2626C278.135 25.7238 277.942 26.1367 277.746 26.4998C277.551 26.863 277.335 27.2124 277.098 27.5478C276.861 27.8832 276.591 28.2466 276.284 28.6381C275.309 29.8118 274.138 30.7134 272.774 31.3426C271.41 31.9713 269.904 32.2856 268.262 32.2856C266.7 32.2856 265.245 32.0129 263.894 31.468C262.543 30.9226 261.372 30.168 260.383 29.2034C259.395 28.2396 258.62 27.101 258.064 25.7867C257.506 24.4734 257.229 23.0477 257.229 21.5096C257.229 19.945 257.521 18.4772 258.106 17.1074C258.692 15.7383 259.498 14.5432 260.53 13.5226C261.56 12.5023 262.764 11.6986 264.144 11.1119C265.523 10.5244 267.006 10.2315 268.594 10.2315C269.989 10.2315 271.268 10.4407 272.439 10.8598C273.61 11.2795 274.64 11.881 275.533 12.6627C276.423 13.4462 277.154 14.3962 277.726 15.514C278.297 16.6324 278.665 17.8765 278.832 19.2457H265.001C265.029 24.4734 267.356 27.0866 271.981 27.0866C273.736 27.0866 275.224 26.6537 276.452 25.7867C276.925 25.4794 277.301 25.1652 277.579 24.8429C277.857 24.5225 278.207 24.0399 278.624 23.3971L279 23.5642C278.75 24.2353 278.526 24.8014 278.331 25.2626ZM271.435 17.5134C271.435 17.1746 271.43 16.8718 271.415 16.6029C271.402 16.3345 271.386 16.087 271.374 15.8614C271.361 15.6358 271.338 15.382 271.312 15.0987C271.199 13.5738 270.921 12.4646 270.475 11.7722C270.03 11.0812 269.389 10.7341 268.553 10.7341C267.384 10.7341 266.499 11.4197 265.899 12.7895C265.299 14.16 265.001 16.1449 265.001 18.7424H271.435V17.5134Z" fill="white"/>
</g>
<defs>
<clipPath id="clip0_303_2653">
<rect width="279" height="40" fill="white"/>
</clipPath>
</defs>
</svg>
