<svg width="162" height="40" viewBox="0 0 162 40" fill="none" xmlns="http://www.w3.org/2000/svg">
<g clip-path="url(#clip0_358_2560)">
<mask id="mask0_358_2560" style="mask-type:luminance" maskUnits="userSpaceOnUse" x="0" y="0" width="162" height="40">
<path d="M161.644 0H0V40H161.644V0Z" fill="white"/>
</mask>
<g mask="url(#mask0_358_2560)">
<path d="M49.9403 2.89315H45.1239L40.291 20.3452H43.891L44.8828 16.4767H49.8581L50.828 20.3452H54.6746L49.9348 2.89315H49.9403ZM45.6116 13.7973L47.2773 6.25205H47.3266L49.0855 13.7973H45.6061H45.6116ZM65.9842 11.3041V11.2603C67.9677 10.8658 68.9595 9.41917 68.9595 7.41369C68.9595 3.69315 66.6636 2.89315 63.88 2.89315H57.4033V20.3452H63.8581C65.4033 20.3452 69.2444 20.1534 69.2444 15.7315C69.2444 13.337 68.5705 11.6712 65.9842 11.3041ZM61.0526 5.57808H63.2992C64.5321 5.57808 65.4033 6.51507 65.4033 7.79726C65.4033 9.49041 64.2965 10.0164 63.4965 10.0164H61.0526V5.5726V5.57808ZM63.08 17.6603H61.0526V12.7068H63.1787C65.0143 12.7068 65.5951 13.6493 65.5951 15.1945C65.5951 17.6384 63.8527 17.6603 63.0746 17.6603H63.08ZM73.5951 20.3452V2.89315H78.5266L83.1677 14.9808H83.217V2.89315H86.6252V20.3452H81.8143L77.0526 7.58356H77.0033V20.3452H73.5951ZM105.305 2.89315H100.494L95.6609 20.3452H99.2609L100.253 16.4767H105.234L106.198 20.3452H110.039L105.3 2.89315H105.305ZM100.976 13.7973L102.648 6.25205H102.697L104.461 13.7973H100.976ZM113.135 20.3452V2.89315H119.009L121.743 14.7616H121.793L124.691 2.89315H130.374V20.3452H126.823V6.88219H126.774L123.415 20.3452H119.935L116.746 6.88219H116.697V20.3452H113.141H113.135ZM145.475 15.2219C145.475 12.0767 143.102 11.8904 142.308 11.7918V11.7425C144.675 11.3534 145.546 9.68767 145.546 7.46301C145.546 4.48767 143.952 2.89315 141.464 2.89315H134.719V20.3452H138.374V13.1178H139.311C142.116 13.1178 141.93 14.8822 141.93 16.9644C141.93 18.0986 141.831 19.2877 142.313 20.3452H145.891C145.552 19.6219 145.48 16.3342 145.48 15.2219H145.475ZM139.985 10.4384H138.368V5.58356H139.985C141.146 5.58356 141.848 6.20821 141.848 7.87945C141.848 8.9863 141.437 10.4384 139.985 10.4384ZM155.524 2.60822C149.508 2.60822 149.508 7.00274 149.508 11.6219C149.508 16.2411 149.508 20.6411 155.524 20.6411C161.541 20.6411 161.541 16.1918 161.541 11.6219C161.541 7.05205 161.541 2.60822 155.524 2.60822ZM155.524 18.0274C153.475 18.0274 153.206 16.0986 153.206 11.6219C153.206 7.1452 153.475 5.21644 155.524 5.21644C157.574 5.21644 157.848 7.15616 157.848 11.6219C157.848 16.0877 157.585 18.0274 155.524 18.0274ZM92.0773 13.0959L89.5622 10.5808L92.0773 8.07123L94.5924 10.5808L92.0773 13.0959Z" fill="white"/>
<path d="M29.6387 0.0219116V24.6996L14.8613 9.89594V39.5053L14.8604 39.5073L0.0224609 24.7016V0.0219116H29.6387Z" fill="white"/>
<path d="M28.9316 24.7016L15.3613 38.2982V11.1039L28.9316 24.7016Z" stroke="white"/>
</g>
</g>
<defs>
<clipPath id="clip0_358_2560">
<rect width="162" height="40" fill="white"/>
</clipPath>
</defs>
</svg>
