<svg xmlns="http://www.w3.org/2000/svg" fill="none" viewBox="0 0 222.5 60">
  <rect y="16.01" width="46.8128" height="46.8128" transform="rotate(-19.9988 0 16.01)" fill="black" style="--darkreader-inline-fill: #000000;" data-darkreader-inline-fill=""/>
  <rect x="26.0557" y="10.9729" width="8.03857" height="38.0312" fill="#FF2800" style="--darkreader-inline-fill: #cc2000;" data-darkreader-inline-fill=""/>
  <rect x="18.0171" y="20.0247" width="6.01204" height="23.9806" fill="#0066FF" style="--darkreader-inline-fill: #0052cc;" data-darkreader-inline-fill=""/>
  <rect x="44.0242" y="27.9957" width="3.98551" height="16.0096" fill="#E7FF00" style="--darkreader-inline-fill: #e9ff1a;" data-darkreader-inline-fill=""/>
  <rect x="12.0051" y="15.9717" width="3.98551" height="16.0096" fill="white" style="--darkreader-inline-fill: #e8e6e3;" data-darkreader-inline-fill=""/>
  <rect x="36.0532" y="15.9717" width="6.01204" height="23.9806" fill="#FA69FF" style="--darkreader-inline-fill: #88008d;" data-darkreader-inline-fill=""/>
  <path fill-rule="evenodd" clip-rule="evenodd" d="M196.352 43.7351C196.352 44.0053 196.622 44.208 196.824 44.208V44.1404H202.836C203.107 44.1404 203.309 43.8702 203.309 43.6676L203.174 31.7786V28.6037C203.715 22.5917 206.957 19.687 210.335 19.687C213.442 19.687 215.671 21.8486 215.671 25.9692V31.7786L215.536 43.6676C215.536 43.9378 215.806 44.1404 216.009 44.1404H222.021C222.291 44.1404 222.494 43.8702 222.494 43.6676L222.359 31.7786V25.7666C222.359 18.4035 218.441 14.3504 212.429 14.3504C208.105 14.3504 204.795 16.5796 202.904 19.2817L203.107 15.4988C203.107 15.2286 202.836 15.026 202.634 15.026H196.96C196.689 15.026 196.487 15.2962 196.487 15.4988L196.554 30.4951L196.352 43.7351ZM165.075 29.7521C165.075 38.939 170.277 44.8835 179.464 44.8835C188.583 44.8835 193.785 38.8039 193.717 29.5494C193.717 20.3625 188.583 14.418 179.464 14.418C170.277 14.418 165.075 20.5651 165.075 29.7521ZM186.759 29.7521C186.759 36.7098 184.395 40.0874 179.464 40.0874C174.465 40.0874 172.033 36.6423 171.966 29.8196C171.966 22.9294 174.398 19.3492 179.396 19.2817C184.328 19.2817 186.759 22.8619 186.759 29.7521ZM95.7007 43.7351C95.7007 44.0053 95.9709 44.208 96.1735 44.208V44.2755H102.118C102.388 44.2755 102.591 44.0053 102.591 43.8027L102.388 29.617L102.591 15.6339C102.591 15.3637 102.321 15.1611 102.118 15.1611H96.106C95.8358 15.1611 95.6331 15.4313 95.6331 15.6339L95.8358 18.8764C93.8768 16.0392 90.9045 14.5531 87.0541 14.5531C79.2858 14.5531 74.6248 21.3082 74.6248 29.7521C74.6248 38.1959 78.8129 44.7484 86.919 44.7484C90.837 44.7484 93.8768 43.0596 95.8358 40.1549L95.7007 43.7351ZM96.0385 29.8196C95.9709 36.5747 93.3364 39.9523 88.743 39.9523C84.0144 39.9523 81.515 36.0343 81.515 29.2792C81.515 23.0645 83.9469 19.2817 88.9456 19.3492C93.4716 19.3492 96.106 23.1321 96.0385 29.8196ZM132.854 30.9004C133.124 30.9004 133.327 30.6302 133.327 30.4276C133.191 20.4976 128.058 14.418 119.073 14.3504C110.224 14.3504 104.888 20.4976 104.888 29.6845C104.888 38.5337 109.886 44.8159 119.276 44.8159C126.707 44.8159 131.435 40.6278 132.516 35.3588C132.584 35.0886 132.313 34.8859 132.111 34.8859H126.436C126.234 34.8859 125.964 35.0886 125.896 35.3588C124.95 38.4661 122.721 40.0198 119.411 40.0198C114.48 40.0198 111.913 37.1151 111.643 30.9004H132.854ZM119.073 19.1466C123.532 19.1466 125.693 22.5241 125.964 26.307H111.845C112.589 21.646 115.02 19.1466 119.073 19.1466ZM162.779 15.5664C162.779 15.3637 162.576 15.0935 162.306 15.0935H156.362C156.159 15.0935 155.889 15.2962 155.889 15.5664L156.024 18.8088C154.132 16.1068 151.16 14.6207 147.31 14.6207C139.474 14.6207 134.813 21.3082 134.813 29.4819C134.813 37.7231 139.136 44.0053 147.58 44.0053C151.43 44.0053 154.335 42.3166 156.294 39.4119V42.7219C156.294 48.1935 153.389 50.5578 149.201 50.5578C145.688 50.5578 143.392 49.2743 142.716 46.7074C142.649 46.4372 142.446 46.2345 142.176 46.2345H136.299C136.096 46.2345 135.826 46.4372 135.826 46.7074C136.637 52.5843 141.973 55.4215 148.931 55.2864C157.848 55.2864 162.576 50.6253 162.509 42.7894L162.441 28.4686L162.779 15.5664ZM149.066 39.3443C144.27 39.4119 141.703 35.8317 141.703 29.2117C141.703 22.997 144.202 19.2817 149.066 19.4168C153.727 19.4843 156.226 23.1321 156.159 29.7521C156.159 36.1694 153.524 39.3443 149.066 39.3443Z" fill="black" style="--darkreader-inline-fill: #000000;" data-darkreader-inline-fill=""/>
</svg>