<svg width="210" height="40" viewBox="0 0 210 40" fill="none" xmlns="http://www.w3.org/2000/svg">
<g clip-path="url(#clip0_358_2624)">
<path fill-rule="evenodd" clip-rule="evenodd" d="M155.497 26.6535V32.743C155.497 33.4644 155.167 34.1345 154.615 34.5407C153.88 35.0753 151.267 36.8261 148.522 36.8261C145.913 36.8261 142.868 35.4453 142.868 31.5502C142.868 28.7896 144.382 27.6305 148.453 27.2721L155.497 26.6535ZM157.764 36.2974V36.2621L157.773 22.3062C157.773 17.2018 155.672 15.2127 150.279 15.2127C147.282 15.2127 145.136 15.7871 143.865 16.2692L143.34 16.4676V18.7788L144.432 18.3703C145.343 18.0293 147.287 17.4575 150.062 17.4575C154.383 17.4575 155.501 18.508 155.501 22.5701V24.3678L148.258 25.0016C144.698 25.3144 140.608 26.3416 140.608 31.5464C140.608 36.7665 144.584 39.1021 148.522 39.1021C151.499 39.1021 154.16 37.6034 155.526 36.6743V36.9368C155.526 37.8274 156.249 38.5511 157.16 38.5511L160.461 38.3879V36.512L157.875 36.3227C157.829 36.3139 157.791 36.3062 157.764 36.2974Z" fill="white"/>
<path fill-rule="evenodd" clip-rule="evenodd" d="M155.185 26.9943L148.482 27.5827C144.569 27.9268 143.182 28.9647 143.182 31.5478C143.182 35.2131 146.058 36.5135 148.521 36.5135C151.174 36.5135 153.715 34.8092 154.432 34.2863C154.904 33.9409 155.186 33.3642 155.186 32.7455L155.185 26.9943ZM148.52 37.1379C145.77 37.1379 142.556 35.6742 142.556 31.5468C142.556 28.6169 144.201 27.3305 148.427 26.9593L155.81 26.3127V32.7443C155.81 33.5614 155.432 34.3283 154.799 34.7905C154.043 35.3415 151.362 37.1379 148.52 37.1379ZM150.061 17.1449C154.578 17.1449 155.813 18.3123 155.813 22.5693V24.654L148.284 25.3146C144.643 25.6345 140.919 26.6266 140.919 31.5478C140.919 36.5531 144.738 38.7931 148.521 38.7931C151.431 38.7931 154.048 37.3048 155.35 36.4177L155.838 36.0837V36.9393C155.838 37.6572 156.43 38.2408 157.16 38.2408L160.148 38.0914V36.8039L157.814 36.6287C157.755 36.6155 157.714 36.6067 157.683 36.5979L157.454 36.5347L157.463 22.3057C157.463 17.3623 155.516 15.5238 150.281 15.5238C147.33 15.5238 145.224 16.0889 143.977 16.5628L143.654 16.6841V18.3276L144.324 18.0765C145.258 17.7288 147.24 17.1449 150.061 17.1449ZM148.52 39.4165C144.427 39.4165 140.295 36.9839 140.295 31.549C140.295 26.0886 144.535 25.0159 148.232 24.6902L155.189 24.0808V22.5693C155.189 18.6683 154.229 17.7718 150.062 17.7718C147.34 17.7718 145.435 18.3297 144.541 18.6635L143.029 19.2296V16.2531L143.755 15.9764C145.051 15.4862 147.234 14.8991 150.28 14.8991C155.825 14.8991 158.086 17.0445 158.086 22.3054L158.08 36.0232L160.772 36.2217V38.6847L157.176 38.8634C156.191 38.8634 155.381 38.1572 155.234 37.2374C153.769 38.1653 151.277 39.4165 148.52 39.4165ZM15.7877 26.6536V32.7431C15.7877 33.4645 15.4574 34.1346 14.9041 34.5408C14.1687 35.0754 11.5576 36.8262 8.81112 36.8262C6.20351 36.8262 3.15819 35.4454 3.15819 31.5503C3.15819 28.7897 4.67211 27.6306 8.74343 27.2722L15.7877 26.6536ZM18.0545 36.2975V36.2622L18.0629 22.3063C18.0629 17.2019 15.9618 15.2128 10.5692 15.2128C7.57174 15.2128 5.42635 15.7872 4.15406 16.2693L3.6288 16.4677V18.7789L4.72251 18.3704C5.63296 18.0294 7.57757 17.4576 10.3521 17.4576C14.6709 17.4576 15.7891 18.5081 15.7891 22.5702V24.3679L8.54754 25.0017C4.98747 25.3145 0.897461 26.3417 0.897461 31.5465C0.897461 36.7665 4.87191 39.1022 8.81134 39.1022C11.7878 39.1022 14.4491 37.6035 15.8148 36.6743V36.9369C15.8148 37.8275 16.5384 38.5512 17.4489 38.5512L20.7487 38.388V36.5121L18.1621 36.3228C18.1154 36.314 18.0813 36.3063 18.0545 36.2975Z" fill="white"/>
<path fill-rule="evenodd" clip-rule="evenodd" d="M15.4744 26.9943L8.76982 27.5826C4.85724 27.9267 3.47057 28.9646 3.47057 31.5478C3.47057 35.213 6.34779 36.5134 8.81066 36.5134C11.4626 36.5134 14.0049 34.8092 14.7204 34.2863C15.1931 33.9408 15.4756 33.3641 15.4756 32.7455L15.4744 26.9943ZM8.8095 37.1378C6.05948 37.1378 2.84492 35.6742 2.84492 31.5467C2.84492 28.6169 4.49071 27.3305 8.71611 26.9593L16.0989 26.3126V32.7443C16.0989 33.5613 15.7219 34.3283 15.0881 34.7905C14.334 35.3414 11.6494 37.1378 8.8095 37.1378ZM10.3503 17.1449C14.8651 17.1449 16.1012 18.3122 16.1012 22.5692V24.6539L8.57255 25.3146C4.93077 25.6344 1.20728 26.6266 1.20728 31.5478C1.20728 36.553 5.02648 38.793 8.81066 38.793C11.7171 38.793 14.3364 37.3048 15.6367 36.4177L16.1269 36.0836V36.9392C16.1269 37.6571 16.7187 38.2408 17.4482 38.2408L20.4363 38.0913V36.8038L18.0995 36.6286C18.0435 36.6154 18.0003 36.6066 17.9712 36.5978L17.7412 36.5347L17.7483 22.3056C17.7483 17.3622 15.8025 15.5237 10.5674 15.5237C7.61668 15.5237 5.51096 16.0888 4.26436 16.5627L3.94104 16.684V18.3275L4.61103 18.0764C5.54482 17.7288 7.52904 17.1449 10.3503 17.1449ZM8.8095 39.4164C4.716 39.4164 0.583984 36.9838 0.583984 31.549C0.583984 26.0885 4.82456 25.0158 8.5212 24.6901L15.4779 24.0808V22.5692C15.4779 18.6682 14.5185 17.7718 10.3503 17.7718C7.62826 17.7718 5.72332 18.3296 4.82922 18.6634L3.31648 19.2296V16.2531L4.04484 15.9764C5.34047 15.4861 7.5232 14.899 10.5697 14.899C16.1141 14.899 18.375 17.0444 18.375 22.3053L18.3702 36.0232L21.063 36.2216V38.6847L17.4655 38.8633C16.4816 38.8633 15.6738 38.1571 15.5279 37.2373C14.0619 38.1653 11.571 39.4155 8.81399 39.4155L8.8095 39.4164ZM135.7 26.9196C135.7 30.5451 134.661 36.6266 127.708 36.6266C125.218 36.6266 123.386 36.0628 122.11 34.9014C121.666 34.4999 121.414 33.8975 121.414 33.2485V20.607C121.414 19.9417 121.671 19.3347 122.124 18.9378C123.4 17.8172 125.226 17.2709 127.708 17.2709C133.085 17.2709 135.7 20.4272 135.7 26.9196ZM127.708 15.0718C125.081 15.0718 123.011 15.6088 121.414 16.7107V8.46508C121.414 7.61882 120.725 6.9301 119.858 6.9301L116.782 7.08184V8.80948L119.192 8.98679C119.213 8.99032 119.233 8.99558 119.248 8.99999V38.3778H121.112L121.259 37.0425C122.878 38.2401 124.997 38.825 127.707 38.825C134.173 38.825 137.88 34.4874 137.88 26.9212C137.88 19.1705 134.363 15.0718 127.708 15.0718Z" fill="white"/>
<path fill-rule="evenodd" clip-rule="evenodd" d="M127.708 17.5837C125.304 17.5837 123.546 18.1043 122.331 19.1735C121.945 19.5119 121.727 20.0326 121.727 20.6057V33.2473C121.727 33.81 121.943 34.327 122.32 34.6714C123.534 35.7768 125.299 36.3137 127.708 36.3137C134.389 36.3137 135.388 30.4283 135.388 26.9195C135.388 20.6372 132.875 17.5837 127.708 17.5837ZM127.708 36.9393C125.135 36.9393 123.235 36.3487 121.899 35.1324C121.393 34.6725 121.103 33.9849 121.103 33.2484V20.607C121.103 19.8529 121.4 19.1595 121.92 18.7043C123.254 17.5288 125.148 16.9581 127.709 16.9581C133.297 16.9581 136.013 20.2147 136.013 26.9195C136.013 35.6389 130.809 36.9393 127.708 36.9393ZM121.008 36.4678L121.446 36.7912C123.01 37.9468 125.06 38.5105 127.708 38.5105C133.976 38.5105 137.571 34.2851 137.571 26.9196C137.571 19.3732 134.159 15.3846 127.708 15.3846C125.138 15.3846 123.136 15.904 121.592 16.9674L121.102 17.3058V8.46487C121.102 7.79137 120.544 7.24278 119.858 7.24278L117.096 7.38038V8.51966L119.318 8.69253L119.561 8.7472V38.0645H120.833L121.008 36.4678ZM127.708 39.1361C125.159 39.1361 123.124 38.6319 121.512 37.5954L121.392 38.6902H118.934V9.27968L116.469 9.10102V6.78516L119.84 6.61848C120.888 6.61848 121.726 7.44717 121.726 8.465V16.141C123.302 15.213 125.265 14.7601 127.707 14.7601C134.568 14.7601 138.193 18.9646 138.193 26.9196C138.193 34.6843 134.372 39.1361 127.708 39.1361ZM208.294 36.6953C206.82 36.6953 206.613 36.6138 204.125 33.7002L197.559 25.9763L205.538 18.4474C206.32 17.698 206.32 17.6981 208.272 17.467L209.063 17.3734V15.5012H200.853V17.3687L203.302 17.5673L195.743 24.6923C195.712 24.7144 195.583 24.7576 195.404 24.7576H193.543L193.54 8.49166C193.54 7.62789 192.79 6.89838 191.878 6.89838L188.581 7.05941V8.83363L191.165 9.02024C191.214 9.02906 191.252 9.03791 191.282 9.04232V36.2793L191.251 36.2882L188.586 36.4889V38.4114H196.246V36.4854L193.658 36.2988C193.609 36.29 193.573 36.2811 193.545 36.2723V26.9739H195.337C195.459 26.9739 195.575 27.0277 195.652 27.1208L202.335 35.0186C204.594 37.6951 205.685 38.7853 207.389 38.7853C208.071 38.7853 208.528 38.6882 208.778 38.4937L209.105 38.252V36.6925L208.294 36.6953Z" fill="white"/>
<path fill-rule="evenodd" clip-rule="evenodd" d="M193.231 26.6641H195.335C195.55 26.6641 195.752 26.7576 195.89 26.9208L202.572 34.8173C204.766 37.4168 205.815 38.4744 207.389 38.4744C208.136 38.4744 208.454 38.353 208.587 38.2502L208.791 38.0985V37.0094H208.295C206.656 37.0094 206.369 36.8065 203.889 33.9045L197.13 25.952L205.324 18.2211C206.183 17.3982 206.26 17.3888 208.238 17.1565L208.754 17.0947V15.8143H201.169V17.0807L204.031 17.3142L195.96 24.92C195.81 25.0369 195.574 25.0682 195.408 25.0682H193.234L193.232 8.49071C193.232 7.79621 192.613 7.20898 191.881 7.20898L188.897 7.35587V8.54416L191.188 8.70747C191.284 8.72071 191.33 8.73392 191.365 8.74274L191.595 8.8071V36.2648L191.637 36.5449L191.275 36.5996L188.9 36.7771V38.0984H195.934V36.7758L193.596 36.6042C193.538 36.591 193.497 36.5822 193.465 36.5734L193.213 36.5054L193.232 36.2465L193.231 26.6641ZM207.389 39.1001C205.551 39.1001 204.421 37.9795 202.095 35.2224L195.412 27.3247C195.392 27.3027 195.366 27.2894 195.334 27.2894H193.855L193.857 35.9995L196.556 36.1946V38.7217H188.272V36.1969L190.966 35.9948L190.969 9.31683L188.268 9.12538V6.76172L191.863 6.58656C192.948 6.58656 193.853 7.45846 193.853 8.49152L193.856 24.4434L195.405 24.4458C195.483 24.4458 195.545 24.4326 195.574 24.4282L202.578 17.8261L200.542 17.6592V15.1904H209.378V17.6535L208.31 17.7796C206.466 17.9967 206.466 17.9966 205.754 18.6748L197.989 26.0007L204.365 33.5004C206.83 36.3836 206.968 36.3835 208.296 36.3835H209.417V38.4145L208.967 38.7495C208.656 38.9899 208.153 39.1001 207.389 39.1001ZM31.8041 25.4115C27.7923 24.2268 26.3706 23.1399 26.3706 21.2618C26.3706 20.3712 26.8048 19.4643 27.5611 18.7779C28.223 18.1744 29.4591 17.4554 31.5764 17.4554C33.0798 17.4554 34.5296 17.829 35.8836 18.5608C36.187 18.7244 36.347 18.9283 36.3621 19.1643L36.5699 22.3883H38.5857L38.7188 16.1469H36.8279L36.7753 16.315C35.7446 15.7956 33.9798 15.1513 31.5764 15.1513C27.958 15.1513 24.1096 17.2931 24.1096 21.2618C24.1096 24.892 26.8223 26.4026 31.1983 27.6644C34.7081 28.6799 37.6146 29.7304 37.6146 32.2797C37.6146 34.6072 35.0431 36.4994 31.8834 36.4994C30.1641 36.4994 28.6152 36.0711 27.2763 35.2294C26.7394 34.891 26.3542 34.3307 26.2223 33.6887L25.7753 31.5035H23.7793L24.2182 38.3437L26.0624 38.3658L26.1674 37.7121C26.1908 37.5489 26.2141 37.3993 26.2328 37.2627C27.5553 38.0331 29.4777 38.8012 31.8822 38.8012C36.3644 38.8012 39.8778 35.9355 39.8778 32.2761C39.8778 27.8708 35.9699 26.6816 31.8041 25.4115Z" fill="white"/>
<path fill-rule="evenodd" clip-rule="evenodd" d="M25.9868 36.7608L26.3883 36.9941C27.5602 37.677 29.4652 38.4906 31.8814 38.4906C36.1885 38.4906 39.5618 35.7628 39.5618 32.2808C39.5618 28.1043 35.9258 26.9954 31.7144 25.7114C27.5381 24.4776 26.058 23.3126 26.058 21.2617C26.058 20.2835 26.5296 19.2937 27.3501 18.5467C28.0551 17.9047 29.3601 17.1412 31.5779 17.1412C33.135 17.1412 34.636 17.5264 36.0367 18.2852C36.5351 18.5539 36.66 18.8992 36.6764 19.1408L36.8631 22.0706H38.2813L38.4004 16.456H37.058L36.9623 16.7574L36.6355 16.5942C35.6118 16.0771 33.9042 15.4619 31.5779 15.4619C28.1077 15.4619 24.4227 17.4929 24.4227 21.2597C24.4227 24.6915 27.0466 26.1389 31.2837 27.3622C34.9173 28.4151 37.9253 29.5101 37.9253 32.2765C37.9253 34.7768 35.215 36.8101 31.8825 36.8101C30.1036 36.8101 28.4975 36.3665 27.1085 35.4911C26.4992 35.1103 26.0638 34.4756 25.9156 33.7495L25.5187 31.8154H24.1134L24.5102 38.0346L25.7965 38.0478L25.9891 36.7557L25.9868 36.7608ZM31.8813 39.1164C29.5854 39.1164 27.726 38.423 26.4735 37.7589L26.3264 38.6845L23.9219 38.658L23.4434 31.1932H26.03L26.5284 33.6282C26.6451 34.1862 26.9766 34.674 27.4423 34.9658C28.7309 35.7771 30.225 36.1881 31.8837 36.1881C34.8718 36.1881 37.302 34.4371 37.302 32.2823C37.302 29.9513 34.4983 28.9485 31.1109 27.968C26.5972 26.6654 23.7982 25.0896 23.7982 21.2644C23.7982 17.0914 27.8077 14.841 31.5802 14.841C33.7956 14.841 35.4858 15.3743 36.59 15.8798L36.6041 15.8358H39.0413L38.8965 22.7016H36.2784L36.0566 19.1847C36.0474 19.0634 35.9399 18.9455 35.7415 18.8379C34.4318 18.1293 33.0335 17.7698 31.5803 17.7698C29.561 17.7698 28.3972 18.4445 27.7751 19.0106C27.0829 19.641 26.686 20.4604 26.686 21.2635C26.686 22.9677 28.0494 23.9773 31.8954 25.1154C36.1593 26.4146 40.1886 27.6427 40.1886 32.2826C40.1886 36.1159 36.5386 39.1164 31.8813 39.1164ZM62.6392 36.2496V36.2186L62.6441 22.1612C62.6441 19.6598 62.183 18.0488 61.1523 16.9364C59.9898 15.6804 58.1245 15.0969 55.2811 15.0969C51.7677 15.0969 49.3749 16.1287 47.8505 17.1746V16.9469C47.8505 16.0761 47.1361 15.3689 46.2374 15.3689L43.0356 15.532V17.2945L45.5452 17.4768L45.6129 17.49L45.5781 36.2364V36.2496C45.5697 36.2531 45.5595 36.2541 45.5489 36.2585L42.883 36.4569V38.3829H50.5401V36.4569L47.9546 36.2703C47.9056 36.2615 47.8682 36.2528 47.8414 36.2439V21.1523C47.8414 20.4612 48.1648 19.8169 48.725 19.3838C50.5459 17.9808 52.6294 17.3271 55.2802 17.3271C59.5523 17.3271 60.3087 18.5153 60.3694 22.3066L60.3742 36.2403V36.2536C60.3659 36.2571 60.3557 36.258 60.3451 36.2624L57.6791 36.461V38.3869H65.3386V36.461L62.7473 36.2744C62.7006 36.2655 62.6672 36.2584 62.6392 36.2496Z" fill="white"/>
<path fill-rule="evenodd" clip-rule="evenodd" d="M57.9934 38.0739H65.0272V36.7549L62.6892 36.582C62.6332 36.5688 62.59 36.56 62.5573 36.5512L62.3075 36.4832L62.3274 36.2264L62.3309 22.1608C62.3309 19.7446 61.8967 18.1979 60.9232 17.1474C59.8236 15.9626 58.0308 15.4105 55.2819 15.4105C51.7218 15.4105 49.3722 16.5101 48.0275 17.4334L47.5373 17.7696V16.9477C47.5373 16.2497 46.9537 15.6824 46.2382 15.6824L43.3481 15.8307V17.005L45.6079 17.1683L45.6919 17.1904L45.9277 17.2485L45.8928 36.24L45.9198 36.4945L45.5731 36.5762L43.1966 36.7535V38.0726H50.2304V36.7535L47.9332 36.5867C47.8352 36.5691 47.7897 36.5602 47.7547 36.547L47.5165 36.4769L47.5306 36.2294V21.1542C47.5306 20.3651 47.8983 19.6297 48.5368 19.1383C50.4161 17.6909 52.5579 17.0161 55.2834 17.0161C59.7948 17.0161 60.62 18.4018 60.6831 22.3039L60.6879 36.2247L60.729 36.47L60.3695 36.575L57.993 36.7537L57.9934 38.0739ZM65.6528 38.6997H57.3701V36.1737L60.0618 35.9716L60.0569 22.3087C59.9985 18.6936 59.3659 17.6419 55.2829 17.6419C52.7033 17.6419 50.6805 18.2758 48.9168 19.6345C48.4336 20.0082 48.1581 20.5612 48.1581 21.1554L48.1557 35.9798L50.8556 36.1734V38.6994H42.5693V36.1734L45.2657 35.9705L45.2983 17.7728L42.7187 17.5862V15.2376L46.2169 15.058C47.1799 15.058 47.9713 15.7351 48.1312 16.6199C49.5973 15.7234 51.9329 14.785 55.2794 14.785C58.215 14.785 60.1537 15.4013 61.3793 16.7226C62.4684 17.898 62.9551 19.5754 62.9551 22.162L62.9516 35.9767L65.6514 36.1753L65.6528 38.6997ZM183.404 36.2496V36.2186L183.407 22.1612C183.407 19.6598 182.946 18.0488 181.916 16.9364C180.753 15.6805 178.888 15.0969 176.044 15.0969C172.531 15.0969 170.138 16.1287 168.612 17.1746V16.9469C168.612 16.0761 167.9 15.3689 167.002 15.3689L163.799 15.532V17.2946L166.308 17.4769L166.378 17.4901L166.344 36.2388V36.252L166.313 36.2608L163.648 36.4594V38.3853H171.309V36.4594L168.722 36.2728C168.673 36.2639 168.636 36.2551 168.608 36.2462V21.1547C168.608 20.4637 168.93 19.8192 169.491 19.3861C171.312 17.9831 173.396 17.3294 176.047 17.3294C180.319 17.3294 181.074 18.5177 181.136 22.3091L181.139 36.2427V36.2559L181.109 36.2648L178.445 36.4633V38.3894H186.105V36.4633L183.513 36.2767C183.467 36.2678 183.432 36.2584 183.404 36.2496Z" fill="white"/>
<path fill-rule="evenodd" clip-rule="evenodd" d="M178.758 38.0739H185.792V36.7549L183.49 36.5869C183.397 36.5692 183.354 36.5604 183.321 36.5516L183.081 36.485L183.09 36.2317L183.403 36.2449L183.091 36.223L183.093 22.1573C183.093 19.7411 182.659 18.1955 181.686 17.145C180.586 15.9602 178.793 15.4082 176.044 15.4082C172.484 15.4082 170.134 16.5077 168.789 17.431L168.299 17.7671V16.9455C168.299 16.2474 167.715 15.6802 167 15.6802L164.109 15.8284V17.0027L166.444 17.1835L166.689 17.2382L166.654 36.2367L166.682 36.5053L166.334 36.5706L163.959 36.7493V38.0683H170.991V36.7493L168.694 36.5826C168.596 36.5649 168.55 36.5561 168.516 36.5429L168.276 36.4727L168.291 36.2252V21.1499C168.291 20.3608 168.658 19.6254 169.297 19.134C171.176 17.6866 173.318 17.012 176.043 17.012C180.555 17.012 181.38 18.3975 181.443 22.2996L181.448 36.2368L181.483 36.51L181.129 36.5709L178.755 36.7495V38.0685L178.758 38.0739ZM186.415 38.6997H178.134V36.1737L180.828 35.9708L180.823 22.3091C180.765 18.6941 180.132 17.6423 176.049 17.6423C173.469 17.6423 171.446 18.2761 169.683 19.6348C169.2 20.0085 168.924 20.5617 168.924 21.1558L168.922 35.9801L171.622 36.1738V38.6997H163.339V36.1738L166.035 35.9708L166.067 17.7731L163.49 17.5865V15.2379L166.987 15.0584C167.949 15.0584 168.741 15.7354 168.899 16.6202C170.367 15.7237 172.702 14.7852 176.049 14.7852C178.983 14.7852 180.922 15.4016 182.148 16.7229C183.237 17.8983 183.723 19.5757 183.723 22.1623L183.72 35.9782L186.418 36.1731L186.415 38.6997Z" fill="white"/>
<path fill-rule="evenodd" clip-rule="evenodd" d="M78.5505 23.1458C78.8003 21.9599 79.2077 20.8311 79.7504 19.7841C80.0737 19.1619 80.334 18.5071 80.4811 17.8231C80.5488 17.5126 80.5978 17.1927 80.5978 16.9126C80.5978 14.0668 78.2925 11.7591 75.4503 11.7591C73.3073 11.7591 71.47 13.0688 70.6962 14.9341C70.4627 14.0026 70.339 13.0279 70.346 12.0241C70.3915 5.67294 75.5133 0.583637 81.8608 0.583637C88.0296 0.583637 93.0663 5.43948 93.3581 11.542C93.4841 14.1497 92.5643 16.5461 91.1602 18.709C89.3276 21.5338 87.2464 24.1788 87.2464 27.7133C87.2464 32.8318 90.5894 37.1682 95.207 38.6588C93.986 39.009 92.6927 39.1911 91.3551 39.1724C84.3447 39.0826 78.5668 33.4657 78.275 26.4562C78.2283 25.3169 78.3264 24.208 78.5505 23.1458Z" fill="white"/>
<path fill-rule="evenodd" clip-rule="evenodd" d="M98.7186 17.2674C98.7186 16.6464 98.2167 16.1433 97.5946 16.1433C96.9759 16.1433 96.4717 16.6452 96.4717 17.2674C96.4717 17.8895 96.9759 18.3927 97.5957 18.3927C98.2179 18.3927 98.7186 17.8907 98.7186 17.2674Z" fill="white"/>
<path fill-rule="evenodd" clip-rule="evenodd" d="M97.1523 5.29704C97.1523 5.31027 97.1488 5.31908 97.1475 5.33231L97.1651 5.29704H97.1523Z" fill="white"/>
<path fill-rule="evenodd" clip-rule="evenodd" d="M102.012 30.5557C101.912 28.583 103.053 26.8391 104.748 26.0734V26.0244C104.274 25.9308 103.784 25.8818 103.282 25.8818C99.0649 25.8818 95.6484 29.3019 95.6484 33.524C95.6484 35.1733 96.1714 36.6989 97.0585 37.948C99.4221 36.8507 101.409 35.0764 102.771 32.8738C102.331 32.2026 102.055 31.4148 102.012 30.5557ZM103.611 12.4665C103.905 11.7078 104.069 10.8848 104.069 10.0234C104.069 8.78371 103.73 7.62696 103.147 6.62894C102.928 8.20476 102.298 9.64045 101.366 10.831L101.303 10.9361C100.9 10.7234 100.464 10.5111 99.9952 10.2975C99.6474 10.1201 99.3381 9.93226 99.0591 9.73726C97.8837 9.05322 97.0001 7.92443 96.6429 6.57858C96.4211 7.31159 96.3044 8.08904 96.3044 8.89445C96.3044 11.5593 97.6024 13.9184 99.6018 15.3728L99.6252 15.386C100.037 15.7046 100.431 16.0351 100.804 16.4016C102.281 17.8443 103.422 19.6314 104.099 21.631C104.793 20.6972 105.271 19.5929 105.461 18.3918C105.523 18.0088 105.555 17.6156 105.555 17.2152C105.555 15.1258 104.987 13.6921 103.611 12.4665Z" fill="white"/>
</g>
<defs>
<clipPath id="clip0_358_2624">
<rect width="210" height="40" fill="white"/>
</clipPath>
</defs>
</svg>
