<?xml version="1.0" encoding="UTF-8" standalone="no"?>
<!-- Created with Inkscape (http://www.inkscape.org/) -->

<svg
   xmlns:dc="http://purl.org/dc/elements/1.1/"
   xmlns:cc="http://creativecommons.org/ns#"
   xmlns:rdf="http://www.w3.org/1999/02/22-rdf-syntax-ns#"
   xmlns:svg="http://www.w3.org/2000/svg"
   xmlns="http://www.w3.org/2000/svg"
   xmlns:sodipodi="http://sodipodi.sourceforge.net/DTD/sodipodi-0.dtd"
   xmlns:inkscape="http://www.inkscape.org/namespaces/inkscape"
   width="179.91199"
   height="34.267971"
   viewBox="0 0 47.601715 9.066734"
   version="1.1"
   id="svg8"
   inkscape:version="0.92.0 r15299"
   sodipodi:docname="asn bank.svg">
  <defs
     id="defs2">
    <path
       d="M 21.504,0.065 H 0.207 v 33.06 H 21.504 V 0.066 Z"
       id="a"
       inkscape:connector-curvature="0" />
  </defs>
  <sodipodi:namedview
     id="base"
     pagecolor="#ffffff"
     bordercolor="#666666"
     borderopacity="1.0"
     inkscape:pageopacity="0.0"
     inkscape:pageshadow="2"
     inkscape:zoom="5.0136381"
     inkscape:cx="89.456013"
     inkscape:cy="16.633986"
     inkscape:document-units="mm"
     inkscape:current-layer="layer1"
     showgrid="false"
     fit-margin-top="0"
     fit-margin-left="0"
     fit-margin-right="0"
     fit-margin-bottom="0"
     units="px"
     inkscape:window-width="1280"
     inkscape:window-height="744"
     inkscape:window-x="-4"
     inkscape:window-y="-4"
     inkscape:window-maximized="1" />
  <metadata
     id="metadata5">
    <rdf:RDF>
      <cc:Work
         rdf:about="">
        <dc:format>image/svg+xml</dc:format>
        <dc:type
           rdf:resource="http://purl.org/dc/dcmitype/StillImage" />
        <dc:title></dc:title>
      </cc:Work>
    </rdf:RDF>
  </metadata>
  <g
     inkscape:label="Layer 1"
     inkscape:groupmode="layer"
     id="layer1"
     transform="translate(-36.807624,-296.87006)">
    <g
       id="g100"
       transform="translate(0.13229265,-0.13228641)">
      <path
         id="path15"
         d="m 71.922594,303.04384 v 1.38033 c 0,0.16351 -0.07488,0.31539 -0.200025,0.40746 -0.166687,0.12118 -0.758825,0.51805 -1.381125,0.51805 -0.591343,0 -1.281641,-0.313 -1.281641,-1.19591 0,-0.62574 0.343164,-0.88847 1.266031,-0.9697 z m 0.513821,2.18599 v -0.008 l 0.0019,-3.16336 c 0,-1.15702 -0.47625,-1.60787 -1.698625,-1.60787 -0.67945,0 -1.165754,0.13017 -1.453885,0.23945 l -0.119063,0.045 v 0.52387 l 0.24765,-0.0926 c 0.206375,-0.0773 0.647171,-0.20691 1.276086,-0.20691 0.979487,0 1.232958,0.23813 1.232958,1.15888 v 0.40746 l -1.641739,0.14367 c -0.80698,0.0709 -1.73408,0.30374 -1.73408,1.48351 0,1.18322 0.901171,1.71265 1.793875,1.71265 0.674688,0 1.277938,-0.33972 1.5875,-0.55033 v 0.0595 c 0,0.20188 0.164042,0.36592 0.370417,0.36592 l 0.748242,-0.037 v -0.42519 l -0.586052,-0.0429 c -0.01058,-0.002 -0.01852,-0.004 -0.02461,-0.006 z"
         inkscape:connector-curvature="0"
         style="fill:#525252;fill-rule:evenodd;stroke-width:0.26458332" />
      <path
         id="path17"
         d="m 71.851686,303.1211 -1.519502,0.13335 c -0.886883,0.078 -1.201208,0.31327 -1.201208,0.89879 0,0.83079 0.651933,1.12554 1.210204,1.12554 0.601398,0 1.177396,-0.3863 1.33985,-0.50483 0.106891,-0.0783 0.170921,-0.20902 0.170921,-0.34925 v -1.30334 z m -1.510771,2.29923 c -0.623358,0 -1.352021,-0.33179 -1.352021,-1.26736 0,-0.6641 0.373063,-0.95567 1.330855,-1.03981 l 1.673489,-0.14658 v 1.45786 c 0,0.1852 -0.08546,0.35904 -0.229129,0.46381 -0.171185,0.12488 -0.779198,0.53234 -1.423458,0.53234 z m 0.34925,-4.53179 c 1.023938,0 1.303867,0.26459 1.303867,1.22952 v 0.47255 l -1.706563,0.14975 c -0.8255,0.0725 -1.66952,0.2974 -1.66952,1.41288 0,1.13453 0.865716,1.64227 1.723231,1.64227 0.659606,0 1.252802,-0.33735 1.547812,-0.53843 l 0.110596,-0.0757 v 0.19394 c 0,0.16272 0.134408,0.29501 0.299773,0.29501 l 0.677333,-0.0339 v -0.29183 l -0.529166,-0.0397 c -0.01323,-0.003 -0.02249,-0.005 -0.02963,-0.007 l -0.05186,-0.0143 0.0019,-3.22527 c 0,-1.12051 -0.441325,-1.53723 -1.627981,-1.53723 -0.668867,0 -1.146175,0.12806 -1.42875,0.23548 l -0.07329,0.0275 v 0.37253 l 0.151871,-0.0569 c 0.211667,-0.0788 0.661458,-0.21167 1.300956,-0.21167 z m -0.34925,5.04825 c -0.927893,0 -1.864518,-0.55139 -1.864518,-1.78329 0,-1.23772 0.961231,-1.48087 1.799166,-1.55469 l 1.576917,-0.13811 v -0.34264 c 0,-0.88423 -0.217488,-1.08743 -1.16205,-1.08743 -0.617009,0 -1.048808,0.12647 -1.251479,0.20214 l -0.342636,0.12832 v -0.67469 l 0.164571,-0.0627 c 0.293688,-0.11113 0.788458,-0.24421 1.479021,-0.24421 1.256771,0 1.769269,0.4863 1.769269,1.67878 l -0.0013,3.10938 0.610129,0.045 v 0.55827 l -0.814917,0.0405 h -5.29e-4 c -0.223308,0 -0.4064,-0.16007 -0.439737,-0.36856 -0.332053,0.21034 -0.896409,0.49371 -1.521355,0.49371 z m -30.087093,-2.89295 v 1.38033 c 0,0.16351 -0.07488,0.31539 -0.20029,0.40746 -0.166687,0.12118 -0.75856,0.51805 -1.381125,0.51805 -0.591079,0 -1.281377,-0.313 -1.281377,-1.19591 0,-0.62574 0.343165,-0.88847 1.266031,-0.9697 z m 0.513821,2.18599 v -0.008 l 0.0019,-3.16336 c 0,-1.15702 -0.47625,-1.60787 -1.698625,-1.60787 -0.67945,0 -1.165754,0.13017 -1.45415,0.23945 l -0.119063,0.045 v 0.52387 l 0.247915,-0.0926 c 0.206375,-0.0773 0.647171,-0.20691 1.276085,-0.20691 0.978959,0 1.232429,0.23813 1.232429,1.15888 v 0.40746 l -1.641475,0.14367 c -0.806979,0.0709 -1.734079,0.30374 -1.734079,1.48351 0,1.18322 0.900907,1.71265 1.793875,1.71265 0.674688,0 1.277938,-0.33972 1.5875,-0.55033 v 0.0595 c 0,0.20188 0.164042,0.36592 0.370417,0.36592 l 0.747977,-0.037 v -0.42519 l -0.586317,-0.0429 c -0.01058,-0.002 -0.01852,-0.004 -0.02461,-0.006 z"
         inkscape:connector-curvature="0"
         style="fill:#525252;fill-rule:evenodd;stroke-width:0.26458332" />
      <path
         id="path19"
         d="m 40.182914,303.1211 -1.519767,0.13335 c -0.886883,0.078 -1.201208,0.31327 -1.201208,0.89879 0,0.83079 0.652197,1.12554 1.210468,1.12554 0.601134,0 1.177396,-0.3863 1.339586,-0.50483 0.107156,-0.0783 0.171185,-0.20902 0.171185,-0.34925 v -1.30334 z m -1.510771,2.29923 c -0.623359,0 -1.352021,-0.33179 -1.352021,-1.26736 0,-0.6641 0.373062,-0.95567 1.330854,-1.03981 l 1.67349,-0.14658 v 1.45786 c 0,0.1852 -0.08546,0.35904 -0.22913,0.46381 -0.17092,0.12488 -0.779197,0.53234 -1.422929,0.53234 z m 0.34925,-4.53179 c 1.023408,0 1.303602,0.26459 1.303602,1.22952 v 0.47255 l -1.706563,0.14975 c -0.8255,0.0725 -1.669521,0.2974 -1.669521,1.41288 0,1.13453 0.865717,1.64227 1.723496,1.64227 0.658813,0 1.252538,-0.33735 1.547284,-0.53843 l 0.111125,-0.0757 v 0.19394 c 0,0.16272 0.134143,0.29501 0.299508,0.29501 l 0.677333,-0.0339 v -0.29183 l -0.529696,-0.0397 c -0.0127,-0.003 -0.02249,-0.005 -0.0291,-0.007 l -0.05212,-0.0143 0.0016,-3.22527 c 0,-1.12051 -0.441061,-1.53723 -1.627717,-1.53723 -0.668866,0 -1.146175,0.12806 -1.42875,0.23548 l -0.07329,0.0275 v 0.37253 l 0.15187,-0.0569 c 0.211667,-0.0788 0.661459,-0.21167 1.300957,-0.21167 z m -0.34925,5.04825 c -0.927894,0 -1.864519,-0.55139 -1.864519,-1.78329 0,-1.23772 0.961231,-1.48087 1.799167,-1.55469 l 1.576916,-0.13811 v -0.34264 c 0,-0.88423 -0.217487,-1.08743 -1.162314,-1.08743 -0.617009,0 -1.048809,0.12647 -1.251479,0.20214 l -0.3429,0.12832 v -0.67469 l 0.1651,-0.0627 c 0.293687,-0.11113 0.788458,-0.24421 1.47902,-0.24421 1.256771,0 1.769269,0.4863 1.769269,1.67878 l -0.0011,3.10938 0.610394,0.045 v 0.55827 l -0.815446,0.0405 c -0.223044,0 -0.406136,-0.16007 -0.439209,-0.36856 -0.332316,0.21034 -0.896937,0.49371 -1.521883,0.49371 z m 28.762854,-2.83262 c 0,0.82179 -0.23548,2.20027 -1.811603,2.20027 -0.564356,0 -0.979752,-0.12779 -1.268941,-0.39105 -0.100542,-0.091 -0.157692,-0.22755 -0.157692,-0.37465 v -2.86544 c 0,-0.15081 0.05821,-0.2884 0.160867,-0.37836 0.289189,-0.254 0.703262,-0.37782 1.265766,-0.37782 1.218936,0 1.811603,0.71543 1.811603,2.18705 m -1.811603,-2.68553 c -0.595312,0 -1.064683,0.12171 -1.426633,0.37148 v -1.86902 c 0,-0.19182 -0.156104,-0.34792 -0.352689,-0.34792 l -0.697177,0.0344 v 0.39159 l 0.546099,0.0402 c 0.0048,8e-4 0.0093,0.002 0.0127,0.003 v 6.65903 h 0.42254 l 0.03334,-0.30268 c 0.366977,0.27146 0.84746,0.40402 1.461558,0.40402 1.465792,0 2.306108,-0.9832 2.306108,-2.69822 0,-1.75684 -0.797454,-2.68553 -2.306108,-2.68553"
         inkscape:connector-curvature="0"
         style="fill:#525252;fill-rule:evenodd;stroke-width:0.26458332" />
      <path
         id="path21"
         d="m 65.623394,300.98803 c -0.545041,0 -0.943504,0.118 -1.218935,0.36036 -0.08731,0.0767 -0.13679,0.19473 -0.13679,0.32464 v 2.86544 c 0,0.12753 0.04895,0.24474 0.134409,0.32279 0.275166,0.25056 0.675216,0.37227 1.221316,0.37227 1.514475,0 1.740959,-1.33403 1.740959,-2.12936 0,-1.42399 -0.569648,-2.11614 -1.740959,-2.11614 z m 0,4.38732 c -0.583141,0 -1.013883,-0.13388 -1.316831,-0.40958 -0.114564,-0.10424 -0.180446,-0.26008 -0.180446,-0.42703 v -2.86544 c 0,-0.17092 0.06747,-0.32808 0.185209,-0.43127 0.302418,-0.26644 0.731837,-0.39582 1.312333,-0.39582 1.26656,0 1.882246,0.73819 1.882246,2.25796 0,1.97643 -1.179248,2.27118 -1.882246,2.27118 z m -1.518708,-0.10689 0.09922,0.0733 c 0.354542,0.26193 0.81915,0.38973 1.419489,0.38973 1.420813,0 2.23573,-0.95779 2.23573,-2.62731 0,-1.71054 -0.773377,-2.61462 -2.23573,-2.61462 -0.582612,0 -1.036372,0.11774 -1.386416,0.35878 l -0.111125,0.0767 v -2.00396 c 0,-0.15266 -0.126471,-0.27702 -0.281781,-0.27702 l -0.626269,0.0312 v 0.25823 l 0.503766,0.0392 0.05503,0.0124 v 6.64528 h 0.288396 z m 1.518708,0.60483 c -0.57785,0 -1.039018,-0.1143 -1.404408,-0.34925 l -0.02725,0.24818 h -0.557212 v -6.66644 l -0.5588,-0.0405 v -0.52493 l 0.764116,-0.0378 c 0.237596,0 0.427567,0.18786 0.427567,0.41857 v 1.7399 c 0.357187,-0.21034 0.802217,-0.313 1.355725,-0.313 1.555221,0 2.377017,0.95303 2.377017,2.75617 0,1.76 -0.866511,2.76912 -2.377017,2.76912 z m 18.266834,-0.55324 c -0.334169,0 -0.381,-0.0185 -0.945092,-0.67892 l -1.488281,-1.75075 1.808691,-1.70656 c 0.177271,-0.16986 0.177271,-0.16986 0.619654,-0.22225 l 0.179388,-0.0212 v -0.42439 h -1.861079 v 0.42333 l 0.555096,0.045 -1.713442,1.61502 c -0.0069,0.005 -0.03625,0.0148 -0.07673,0.0148 h -0.422011 l -5.29e-4,-3.68697 c 0,-0.19579 -0.170127,-0.36116 -0.376766,-0.36116 l -0.747448,0.0365 v 0.40217 l 0.585787,0.0423 c 0.01111,0.002 0.01984,0.004 0.02646,0.005 v 6.17378 l -0.0069,0.002 -0.604043,0.0455 v 0.43577 h 1.736195 v -0.43656 l -0.586581,-0.0423 c -0.01111,-0.002 -0.01931,-0.004 -0.02566,-0.006 v -2.10767 h 0.406135 c 0.02778,0 0.05398,0.0122 0.07144,0.0333 l 1.515004,1.79017 c 0.511968,0.60669 0.759354,0.85381 1.145645,0.85381 0.154517,0 0.257969,-0.022 0.314855,-0.0661 l 0.07408,-0.0548 v -0.35348 h -0.183621 z"
         inkscape:connector-curvature="0"
         style="fill:#525252;fill-rule:evenodd;stroke-width:0.26458332" />
      <path
         id="path23"
         d="m 80.47578,303.04622 h 0.477043 c 0.04868,0 0.09446,0.0212 0.125678,0.0582 l 1.514739,1.78991 c 0.497417,0.58922 0.735013,0.82894 1.091935,0.82894 0.169334,0 0.2413,-0.0275 0.271463,-0.0508 l 0.0463,-0.0344 v -0.24686 H 83.89049 c -0.371475,0 -0.436562,-0.046 -0.998802,-0.70379 l -1.531937,-1.8026 1.857375,-1.75234 c 0.194733,-0.18653 0.212195,-0.18865 0.6604,-0.2413 l 0.116945,-0.014 v -0.29025 h -1.719262 v 0.28707 l 0.648758,0.0529 -1.829593,1.72402 c -0.03387,0.0265 -0.08731,0.0336 -0.125148,0.0336 h -0.492655 l -5.29e-4,-3.75762 c 0,-0.15742 -0.140229,-0.29051 -0.306123,-0.29051 l -0.676539,0.0333 v 0.26934 l 0.519377,0.037 c 0.0217,0.003 0.03228,0.006 0.04022,0.008 l 0.05212,0.0146 v 6.22379 l 0.0095,0.0635 -0.08202,0.0124 -0.538427,0.0402 v 0.29951 h 1.594379 v -0.29977 l -0.529961,-0.0389 c -0.01323,-0.003 -0.02249,-0.005 -0.02963,-0.007 l -0.05715,-0.0154 0.0042,-0.0587 v -2.17276 z m 3.209395,2.81887 c -0.416718,0 -0.672835,-0.254 -1.200149,-0.87894 l -1.51474,-1.79017 c -0.0045,-0.005 -0.01058,-0.008 -0.01773,-0.008 h -0.335227 l 5.29e-4,1.97432 0.611717,0.0442 v 0.57283 H 79.35183 v -0.5723 l 0.610658,-0.0458 5.29e-4,-6.04705 -0.612246,-0.0434 V 298.535 l 0.814917,-0.0397 c 0.246063,0 0.451115,0.19764 0.451115,0.4318 l 7.93e-4,3.61579 0.351102,5.3e-4 c 0.01773,0 0.03175,-0.003 0.03836,-0.004 l 1.5875,-1.49649 -0.461433,-0.0378 v -0.5596 h 2.002895 v 0.55827 l -0.242093,0.0286 c -0.418042,0.0492 -0.418042,0.0492 -0.579438,0.20293 l -1.760008,1.66053 1.445154,1.69995 c 0.5588,0.65352 0.590021,0.65352 0.891117,0.65352 h 0.254 v 0.46037 l -0.101865,0.0759 c -0.07064,0.0545 -0.18415,0.0799 -0.357187,0.0799 z m -39.800741,-3.10277 c -0.909373,-0.26855 -1.231635,-0.51488 -1.231635,-0.94059 0,-0.20188 0.09842,-0.40746 0.269875,-0.56303 0.150019,-0.13679 0.430212,-0.29978 0.910167,-0.29978 0.340783,0 0.669395,0.0847 0.976312,0.25056 0.06879,0.0371 0.10504,0.0833 0.108479,0.13679 l 0.0471,0.73078 h 0.456935 l 0.03016,-1.41472 h -0.428625 l -0.01191,0.0381 c -0.233627,-0.11774 -0.633677,-0.26379 -1.178454,-0.26379 -0.820209,0 -1.69254,0.48551 -1.69254,1.38509 0,0.82285 0.614892,1.16523 1.606815,1.45124 0.795602,0.23019 1.454414,0.46831 1.454414,1.04616 0,0.52758 -0.582877,0.95647 -1.299104,0.95647 -0.389731,0 -0.740833,-0.0971 -1.04431,-0.28787 -0.121709,-0.0767 -0.209021,-0.20372 -0.238919,-0.34925 l -0.101336,-0.4953 h -0.452437 l 0.09948,1.55046 0.418042,0.005 0.02381,-0.14816 c 0.0053,-0.037 0.01058,-0.0709 0.01482,-0.10187 0.299773,0.17463 0.735542,0.34872 1.280583,0.34872 1.016,0 1.812396,-0.64955 1.812396,-1.47902 0,-0.99853 -0.885296,-1.26841 -1.829594,-1.55628"
         inkscape:connector-curvature="0"
         style="fill:#525252;fill-rule:evenodd;stroke-width:0.26458332" />
      <path
         id="path25"
         d="m 42.565751,305.33487 0.09102,0.0529 c 0.265641,0.15479 0.697441,0.3392 1.245129,0.3392 0.976312,0 1.740958,-0.61833 1.740958,-1.40758 0,-0.94668 -0.824177,-1.19804 -1.778794,-1.48908 -0.946679,-0.27966 -1.28217,-0.54372 -1.28217,-1.00859 0,-0.22172 0.106891,-0.44609 0.292893,-0.61542 0.159809,-0.14552 0.455613,-0.31856 0.958321,-0.31856 0.352954,0 0.693208,0.0873 1.010708,0.25929 0.112978,0.0609 0.141288,0.13917 0.144992,0.19394 l 0.04233,0.66411 h 0.321469 l 0.02699,-1.27265 h -0.304271 l -0.0217,0.0683 -0.07408,-0.037 c -0.23204,-0.11721 -0.619125,-0.25664 -1.14644,-0.25664 -0.786606,0 -1.621896,0.46037 -1.621896,1.31418 0,0.77788 0.594784,1.10596 1.555221,1.38324 0.823648,0.23866 1.505479,0.48684 1.505479,1.1139 0,0.56674 -0.614362,1.02764 -1.369748,1.02764 -0.403225,0 -0.767291,-0.10054 -1.082145,-0.29898 -0.138113,-0.0863 -0.236802,-0.23019 -0.270405,-0.39476 l -0.08996,-0.43841 h -0.318558 l 0.08996,1.4097 0.291571,0.003 0.04366,-0.2929 z m 1.336146,0.53393 c -0.520436,0 -0.941917,-0.15717 -1.225815,-0.30771 l -0.03334,0.20981 -0.545042,-0.006 -0.108479,-1.69201 h 0.586317 l 0.112977,0.55192 c 0.02646,0.12647 0.1016,0.23706 0.207168,0.30321 0.2921,0.18388 0.630767,0.27702 1.00674,0.27702 0.677333,0 1.228196,-0.39688 1.228196,-0.8853 0,-0.52837 -0.635529,-0.75565 -1.40335,-0.9779 -1.023144,-0.29527 -1.657615,-0.65246 -1.657615,-1.5195 0,-0.94589 0.908844,-1.456 1.763977,-1.456 0.502179,0 0.885296,0.12091 1.135592,0.23548 l 0.0032,-0.01 h 0.55245 l -0.03281,1.55628 h -0.593461 l -0.05027,-0.79719 c -0.0021,-0.0275 -0.02646,-0.0542 -0.07144,-0.0786 -0.296863,-0.16061 -0.613833,-0.2421 -0.94324,-0.2421 -0.457729,0 -0.721518,0.15293 -0.862541,0.28125 -0.156898,0.14288 -0.246857,0.32862 -0.246857,0.51065 0,0.38629 0.309034,0.61516 1.180836,0.87312 h 5.29e-4 c 0.966523,0.29449 1.879335,0.57283 1.879335,1.62455 0,0.86889 -0.826823,1.5494 -1.88251,1.5494 z m 6.972035,-0.64982 v -0.007 l 0.0011,-3.18638 c 0,-0.567 -0.10451,-0.93213 -0.338137,-1.18428 -0.263525,-0.28469 -0.686329,-0.41698 -1.330854,-0.41698 -0.796396,0 -1.338792,0.23389 -1.684338,0.47096 v -0.0516 c 0,-0.19738 -0.161925,-0.35772 -0.365654,-0.35772 l -0.725752,0.037 v 0.39952 l 0.568854,0.0413 0.01535,0.003 -0.0079,4.2492 v 0.003 c -0.0019,8e-4 -0.0042,0.001 -0.0066,0.002 l -0.604308,0.045 v 0.43656 h 1.735666 V 305.266 l -0.586052,-0.0423 c -0.01111,-0.002 -0.01958,-0.004 -0.02566,-0.006 v -3.4208 c 0,-0.15663 0.07329,-0.30268 0.200289,-0.40085 0.41275,-0.31802 0.885032,-0.46619 1.4859,-0.46619 0.968375,0 1.139825,0.26934 1.153584,1.12871 l 0.0011,3.15833 v 0.003 c -0.0019,7.9e-4 -0.0042,10e-4 -0.0066,0.002 l -0.604308,0.045 v 0.43656 h 1.736196 v -0.43656 l -0.587375,-0.0423 c -0.01058,-0.002 -0.01852,-0.004 -0.02487,-0.006"
         inkscape:connector-curvature="0"
         style="fill:#525252;fill-rule:evenodd;stroke-width:0.26458332" />
      <path
         id="path27"
         d="m 49.820891,305.63252 h 1.594379 v -0.29898 l -0.529961,-0.0392 c -0.0127,-0.003 -0.02249,-0.005 -0.0299,-0.007 l -0.05662,-0.0154 0.0045,-0.0582 7.94e-4,-3.18823 c 0,-0.54768 -0.09842,-0.89826 -0.319087,-1.13638 -0.249238,-0.26855 -0.655638,-0.3937 -1.278732,-0.3937 -0.806979,0 -1.339585,0.24924 -1.644385,0.45852 l -0.111125,0.0762 v -0.18627 c 0,-0.15822 -0.132292,-0.2868 -0.294481,-0.2868 l -0.655109,0.0336 v 0.26617 l 0.512234,0.037 0.01905,0.005 0.05345,0.0132 -0.0079,4.30477 0.0061,0.0577 -0.07858,0.0185 -0.538691,0.0402 v 0.29897 h 1.594379 v -0.29897 l -0.5207,-0.0378 c -0.02222,-0.004 -0.03254,-0.006 -0.04048,-0.009 l -0.05398,-0.0159 0.0032,-0.0561 v -3.41709 c 0,-0.17886 0.08334,-0.34555 0.22807,-0.45694 0.42598,-0.32808 0.91149,-0.48101 1.529292,-0.48101 1.022615,0 1.209675,0.31406 1.223962,1.19856 l 0.0011,3.15542 0.0093,0.0556 -0.08149,0.0238 -0.538692,0.0405 v 0.29898 z m 1.736195,0.14182 h -1.877483 v -0.57256 l 0.610129,-0.0458 -0.0011,-3.09695 c -0.01323,-0.81941 -0.156634,-1.0578 -1.082146,-1.0578 -0.584729,0 -1.043252,0.14367 -1.443037,0.45164 -0.109538,0.0847 -0.17198,0.21008 -0.17198,0.34475 l -5.29e-4,3.36021 0.611981,0.0439 v 0.57256 h -1.878277 v -0.57256 l 0.611188,-0.046 0.0074,-4.12485 -0.584729,-0.0423 v -0.53234 l 0.792956,-0.0407 c 0.218282,0 0.397669,0.15346 0.433917,0.35401 0.332317,-0.2032 0.861748,-0.41592 1.620308,-0.41592 0.665427,0 1.1049,0.1397 1.382713,0.43921 0.246856,0.26643 0.357187,0.64664 0.357187,1.23295 l -7.94e-4,3.13135 0.611982,0.045 v 0.57256 z m 26.691167,-0.55536 v -0.007 l 7.93e-4,-3.18638 c 0,-0.567 -0.10451,-0.93213 -0.338137,-1.18428 -0.263525,-0.28469 -0.686329,-0.41698 -1.330854,-0.41698 -0.796396,0 -1.338792,0.23389 -1.684602,0.47096 v -0.0516 c 0,-0.19738 -0.161396,-0.35772 -0.365125,-0.35772 h -5.29e-4 l -0.725488,0.037 v 0.39952 l 0.568854,0.0413 0.01587,0.003 -0.0079,4.24974 v 0.003 l -0.0069,0.002 -0.604044,0.045 v 0.43656 h 1.73646 v -0.43656 l -0.586316,-0.0423 c -0.01111,-0.002 -0.01958,-0.004 -0.02593,-0.006 v -3.4208 c 0,-0.15663 0.07303,-0.30268 0.20029,-0.40085 0.41275,-0.31802 0.885031,-0.46619 1.4859,-0.46619 0.968375,0 1.13956,0.26934 1.153583,1.12871 l 7.94e-4,3.15833 v 0.003 l -0.0069,0.002 -0.603779,0.045 v 0.43656 h 1.736195 v -0.43656 l -0.587375,-0.0423 c -0.01058,-0.002 -0.01852,-0.004 -0.02487,-0.006"
         inkscape:connector-curvature="0"
         style="fill:#525252;fill-rule:evenodd;stroke-width:0.26458332" />
      <path
         id="path29"
         d="m 77.195211,305.63252 h 1.594379 v -0.29898 l -0.521758,-0.0381 c -0.02117,-0.004 -0.03096,-0.006 -0.03836,-0.008 l -0.0545,-0.0151 0.0021,-0.0574 0.07091,0.003 -0.07064,-0.005 5.29e-4,-3.18823 c 0,-0.54769 -0.09843,-0.898 -0.319087,-1.13612 -0.249238,-0.26855 -0.655638,-0.3937 -1.278731,-0.3937 -0.806979,0 -1.33985,0.24924 -1.64465,0.45852 l -0.111125,0.0762 v -0.18627 c 0,-0.15822 -0.132292,-0.2868 -0.294481,-0.2868 l -0.655109,0.0336 v 0.26617 l 0.529167,0.041 0.05556,0.0124 -0.0079,4.30635 0.0063,0.0609 -0.07885,0.0148 -0.538427,0.0405 v 0.29897 h 1.594115 v -0.29897 l -0.5207,-0.0378 c -0.02222,-0.004 -0.03281,-0.006 -0.04048,-0.009 l -0.05424,-0.0159 0.0032,-0.0561 v -3.41709 c 0,-0.17886 0.08334,-0.34555 0.228071,-0.45694 0.425979,-0.32808 0.911489,-0.48101 1.529291,-0.48101 1.022615,0 1.209675,0.31406 1.223963,1.19856 l 0.0011,3.15913 0.0079,0.0619 -0.08017,0.0138 -0.538163,0.0405 v 0.29898 z m 1.735667,0.14182 h -1.877219 v -0.57256 l 0.610658,-0.046 -0.0011,-3.09668 c -0.01323,-0.81941 -0.156633,-1.0578 -1.082146,-1.0578 -0.584729,0 -1.043252,0.14367 -1.443037,0.45164 -0.109538,0.0847 -0.17198,0.21008 -0.17198,0.34475 l -5.29e-4,3.36021 0.611982,0.0439 v 0.57256 h -1.877484 v -0.57256 l 0.611188,-0.046 0.0071,-4.12485 -0.583935,-0.0423 v -0.53234 l 0.792692,-0.0407 c 0.218016,0 0.397404,0.15346 0.433387,0.35401 0.332581,-0.2032 0.862013,-0.41592 1.620573,-0.41592 0.665163,0 1.104635,0.1397 1.382448,0.43921 0.246856,0.26643 0.357187,0.64664 0.357187,1.23295 l -7.93e-4,3.13161 0.611716,0.0442 v 0.57256 z"
         inkscape:connector-curvature="0"
         style="fill:#525252;fill-rule:evenodd;stroke-width:0.26458332" />
      <path
         transform="matrix(0.26458333,0,0,0.26458333,52.566207,297.11744)"
         style="fill:#ef533d;fill-rule:evenodd"
         inkscape:connector-curvature="0"
         d="m 7.236,19.394 c 0.214,-1.016 0.563,-1.983 1.028,-2.88 0.277,-0.533 0.5,-1.094 0.626,-1.68 0.058,-0.266 0.1,-0.54 0.1,-0.78 0,-2.438 -1.975,-4.415 -4.41,-4.415 -1.836,0 -3.41,1.122 -4.073,2.72 -0.2,-0.798 -0.306,-1.633 -0.3,-2.493 0.039,-5.441 4.427,-9.801 9.865,-9.801 5.285,0 9.6,4.16 9.85,9.388 0.108,2.234 -0.68,4.287 -1.883,6.14 -1.57,2.42 -3.353,4.686 -3.353,7.714 0,4.385 2.864,8.1 6.82,9.377 -1.046,0.3 -2.154,0.456 -3.3,0.44 C 12.2,33.047 7.25,28.235 7,22.23 6.96,21.254 7.044,20.304 7.236,19.394"
         mask="none"
         id="path34" />
      <path
         id="path38"
         d="m 59.052203,300.91633 c 0,-0.14076 -0.113771,-0.2548 -0.254794,-0.2548 -0.140229,0 -0.254529,0.11377 -0.254529,0.2548 0,0.14102 0.1143,0.25505 0.254794,0.25505 0.141023,0 0.255058,-0.11377 0.255058,-0.25505"
         inkscape:connector-curvature="0"
         style="fill:#ef533d;fill-rule:evenodd;stroke-width:0.26458332" />
      <path
         mask="none"
         id="path40"
         d="m 58.697132,298.20302 c 0,0.003 -7.94e-4,0.005 -0.0011,0.008 l 0.004,-0.008 -0.0026,-5.3e-4 z"
         inkscape:connector-curvature="0"
         style="fill:#ea553f;fill-rule:evenodd;stroke-width:0.26458332" />
      <path
         id="path42"
         d="m 59.798857,303.92834 c -0.02275,-0.44714 0.236008,-0.84243 0.620183,-1.016 v -0.0111 c -0.10742,-0.0212 -0.218545,-0.0323 -0.332316,-0.0323 -0.95594,0 -1.730375,0.77523 -1.730375,1.73223 0,0.37385 0.118533,0.71966 0.319616,1.00277 0.535782,-0.24871 0.986102,-0.65088 1.294871,-1.15014 -0.09975,-0.15214 -0.162189,-0.33073 -0.171979,-0.52547 m 0.362479,-4.10025 c 0.06668,-0.17197 0.103717,-0.35851 0.103717,-0.55377 0,-0.28099 -0.07673,-0.54319 -0.209021,-0.76941 -0.04948,0.35719 -0.192352,0.68263 -0.403754,0.9525 l -0.01429,0.0238 c -0.09128,-0.0482 -0.18997,-0.0963 -0.296333,-0.14473 -0.07885,-0.0402 -0.14896,-0.0828 -0.212196,-0.127 -0.266435,-0.15505 -0.466725,-0.4109 -0.547687,-0.71596 -0.05027,0.16615 -0.07673,0.34237 -0.07673,0.52493 0,0.60404 0.294216,1.13877 0.747447,1.46844 l 0.0053,0.003 c 0.0934,0.0722 0.182563,0.14711 0.267229,0.23019 0.334698,0.32702 0.593461,0.7321 0.746919,1.18533 0.157163,-0.21166 0.265642,-0.46196 0.308769,-0.73422 0.01402,-0.0868 0.02117,-0.17594 0.02117,-0.2667 0,-0.4736 -0.128322,-0.79904 -0.440266,-1.07685"
         inkscape:connector-curvature="0"
         style="fill:#ef533d;fill-rule:evenodd;stroke-width:0.26458332" />
    </g>
  </g>
</svg>
