<?xml version="1.0" encoding="UTF-8" standalone="no"?>
<!DOCTYPE svg PUBLIC "-//W3C//DTD SVG 1.1//EN" "http://www.w3.org/Graphics/SVG/1.1/DTD/svg11.dtd">
<svg width="100%" height="100%" viewBox="0 0 120 120" version="1.1" xmlns="http://www.w3.org/2000/svg" xmlns:xlink="http://www.w3.org/1999/xlink" xml:space="preserve" style="fill-rule:evenodd;clip-rule:evenodd;stroke-linejoin:round;stroke-miterlimit:1.41421;">
    <g transform="matrix(1,0,0,1,-1207,-524)">
        <g id="bunq_App_Icon_Square" transform="matrix(0.135287,0,0,1.16505,1045.2,-180.854)">
            <rect x="1196" y="605" width="887" height="103" style="fill:none;"/>
            <clipPath id="_clip1">
                <rect x="1196" y="605" width="887" height="103"/>
            </clipPath>
            <g clip-path="url(#_clip1)">
                <g>
                    <g transform="matrix(2.46389,0,0,0.858333,-1583.27,144.075)">
                        <rect x="1128" y="537" width="60" height="120" style="fill:rgb(35,134,71);"/>
                    </g>
                    <g transform="matrix(2.46389,0,0,0.858333,-1509.35,144.075)">
                        <rect x="1128" y="537" width="60" height="120" style="fill:rgb(47,155,71);"/>
                    </g>
                    <g transform="matrix(2.46389,0,0,0.858333,-1435.43,144.075)">
                        <rect x="1128" y="537" width="60" height="120" style="fill:rgb(98,182,79);"/>
                    </g>
                    <g transform="matrix(2.46389,0,0,0.858333,-1361.52,144.075)">
                        <rect x="1128" y="537" width="60" height="120" style="fill:rgb(137,204,83);"/>
                    </g>
                    <g transform="matrix(2.46389,0,0,0.858333,-1287.6,144.075)">
                        <rect x="1128" y="537" width="60" height="120" style="fill:rgb(61,184,173);"/>
                    </g>
                    <g transform="matrix(2.46389,0,0,0.858333,-1213.68,144.075)">
                        <rect x="1128" y="537" width="60" height="120" style="fill:rgb(51,148,215);"/>
                    </g>
                    <g transform="matrix(2.46389,0,0,0.858333,-1139.77,144.075)">
                        <rect x="1128" y="537" width="60" height="120" style="fill:rgb(40,114,188);"/>
                    </g>
                    <g transform="matrix(2.46389,0,0,0.858333,-1065.85,144.075)">
                        <rect x="1128" y="537" width="60" height="120" style="fill:rgb(29,92,132);"/>
                    </g>
                    <g transform="matrix(2.46389,0,0,0.858333,-991.933,144.075)">
                        <rect x="1128" y="537" width="60" height="120" style="fill:rgb(153,50,51);"/>
                    </g>
                    <g transform="matrix(2.46389,0,0,0.858333,-918.017,144.075)">
                        <rect x="1128" y="537" width="60" height="120" style="fill:rgb(225,48,48);"/>
                    </g>
                    <g transform="matrix(2.46389,0,0,0.858333,-844.1,144.075)">
                        <rect x="1128" y="537" width="60" height="120" style="fill:rgb(242,136,37);"/>
                    </g>
                    <g transform="matrix(1.23194,0,0,0.858333,619.45,144.075)">
                        <rect x="1128" y="537" width="60" height="120" style="fill:rgb(245,200,54);"/>
                    </g>
                </g>
                <g transform="matrix(3.73831,0,0,0.429167,-861.432,598.133)">
                    <g>
                        <g>
                            <g transform="matrix(0.988636,0,0,1,311.114,0)">
                                <path d="M350,117L358,117L358,138C358,147.934 349.934,156 340,156C330.066,156 322,147.934 322,138L322,117L330,117L330,138C330,144.071 334.481,149 340,149C345.519,149 350,144.071 350,138L350,117Z" style="fill:white;"/>
                            </g>
                            <g transform="matrix(0.988636,-1.40764e-18,1.37583e-18,-1,354.659,272)">
                                <path d="M350,117L358,117L358,138C358,147.934 349.934,156 340,156C330.066,156 322,147.934 322,138L322,117L330,117L330,138C330,144.071 334.481,149 340,149C345.519,149 350,144.071 350,138L350,117Z" style="fill:white;"/>
                            </g>
                            <g transform="matrix(0.988636,0,0,1,-1320.14,-98)">
                                <path d="M1931,253L1924,253L1924,235L1924.03,235C1924.01,234.669 1924,234.335 1924,234L1924,198L1932,198L1932,218.003C1935.34,215.49 1939.5,214 1944,214C1955.04,214 1964,222.962 1964,234C1964,245.038 1955.04,254 1944,254C1939.22,254 1934.83,252.319 1931.39,249.517L1931,253ZM1943.5,221C1950.4,221 1956,226.825 1956,234C1956,241.175 1950.4,247 1943.5,247C1936.6,247 1931,241.175 1931,234C1931,226.825 1936.6,221 1943.5,221Z" style="fill:white;"/>
                            </g>
                            <g transform="matrix(-0.988636,-1.40764e-18,-1.37583e-18,-1,2658.14,370)">
                                <path d="M1931,253L1924,253L1924,235L1924.03,235C1924.01,234.669 1924,234.335 1924,234L1924,198L1932,198L1932,218.003C1935.34,215.49 1939.5,214 1944,214C1955.04,214 1964,222.962 1964,234C1964,245.038 1955.04,254 1944,254C1939.22,254 1934.83,252.319 1931.39,249.517L1931,253ZM1943.5,221C1950.4,221 1956,226.825 1956,234C1956,241.175 1950.4,247 1943.5,247C1936.6,247 1931,241.175 1931,234C1931,226.825 1936.6,221 1943.5,221Z" style="fill:white;"/>
                            </g>
                        </g>
                    </g>
                </g>
            </g>
        </g>
    </g>
</svg>
