<svg width="98" height="40" viewBox="0 0 98 40" fill="none" xmlns="http://www.w3.org/2000/svg">
<path fill-rule="evenodd" clip-rule="evenodd" d="M42.2254 9.44446H46.6698V21.1111C46.6698 26.63 42.1887 31.1111 36.6698 31.1111C31.151 31.1111 26.6699 26.63 26.6699 21.1111V9.44446H31.1143V21.1111C31.1143 24.4839 33.6038 27.2222 36.6698 27.2222C39.7359 27.2222 42.2254 24.4839 42.2254 21.1111V9.44446Z" fill="white"/>
<path fill-rule="evenodd" clip-rule="evenodd" d="M66.6951 30.5555H71.1395V18.8889C71.1395 13.37 66.6584 8.88889 61.1396 8.88889C55.6207 8.88889 51.1396 13.37 51.1396 18.8889V30.5555H55.5841V18.8889C55.5841 15.5161 58.0735 12.7778 61.1396 12.7778C64.2057 12.7778 66.6951 15.5161 66.6951 18.8889V30.5555Z" fill="white"/>
<path fill-rule="evenodd" clip-rule="evenodd" d="M3.88886 30.5555H0V20.5555H0.0166828C0.00557179 20.3717 0 20.1861 0 20V0H4.44441V11.1128C6.29995 9.71667 8.61105 8.88888 11.111 8.88888C17.2443 8.88888 22.2221 13.8678 22.2221 20C22.2221 26.1322 17.2443 31.1111 11.111 31.1111C8.45549 31.1111 6.01663 30.1772 4.10553 28.6205L3.88886 30.5555ZM10.8333 12.7778C14.6666 12.7778 17.7776 16.0139 17.7776 20C17.7776 23.9861 14.6666 27.2222 10.8333 27.2222C6.99995 27.2222 3.88886 23.9861 3.88886 20C3.88886 16.0139 6.99995 12.7778 10.8333 12.7778Z" fill="white"/>
<path fill-rule="evenodd" clip-rule="evenodd" d="M93.8943 9.44446H97.7832V19.4445H97.7665C97.7776 19.6283 97.7832 19.8139 97.7832 20V40H93.3388V28.8872C91.4833 30.2833 89.1722 31.1111 86.6722 31.1111C80.5389 31.1111 75.5611 26.1322 75.5611 20C75.5611 13.8678 80.5389 8.8889 86.6722 8.8889C89.3277 8.8889 91.7666 9.82279 93.6777 11.3795L93.8943 9.44446ZM86.95 27.2222C83.1166 27.2222 80.0056 23.9861 80.0056 20C80.0056 16.0139 83.1166 12.7778 86.95 12.7778C90.7833 12.7778 93.8943 16.0139 93.8943 20C93.8943 23.9861 90.7833 27.2222 86.95 27.2222Z" fill="white"/>
</svg>
