<svg width="123" height="40" viewBox="0 0 123 40" fill="none" xmlns="http://www.w3.org/2000/svg">
<path d="M46.7177 10.6696C42.7221 10.6696 40.1754 12.7333 38.6387 15.1921H38.507L38.5509 11.1965H30.8231C30.1206 11.1965 29.5059 12.0747 29.5059 12.865V37.4533C29.5059 38.2437 30.1645 39.0779 30.867 39.0779H38.5509V25.2909C38.5509 21.2953 39.6486 18.1339 43.5124 18.1339C47.2446 18.1339 47.8154 20.9001 47.8154 24.5884V37.4533C47.8154 38.3315 48.474 39.0779 49.1326 39.0779H56.8604V22.6125C56.9043 15.8507 54.7967 10.6696 46.7177 10.6696Z" fill="white"/>
<path d="M106.345 10.6696C102.701 10.6696 100.198 11.9868 98.7052 13.348C98.7491 12.3381 98.7491 10.8891 98.7491 9.44018V0.0439148H91.0653C90.3628 0.0439148 89.748 0.922076 89.748 1.66851V37.4094C89.748 38.2876 90.4067 39.034 91.1092 39.034H98.354L98.3101 36.7508C100.374 38.7267 103.184 39.6487 106.301 39.6487C114.38 39.6487 119.518 33.326 119.518 25.1153C119.474 16.9484 114.38 10.6696 106.345 10.6696ZM104.413 32.1405C100.637 32.1405 98.0027 29.1987 98.0027 24.8957C98.0027 20.5928 100.593 17.6509 104.413 17.6509C108.189 17.6509 110.736 20.5928 110.736 24.8957C110.736 29.1987 108.233 32.1405 104.413 32.1405Z" fill="white"/>
<path d="M27.9253 11.1526H18.6169C17.9144 11.1526 17.1679 11.5477 16.7289 12.0746L9.045 20.3732V0H1.31723C0.614709 0 0 0.878161 0 1.62459V37.4094C0 38.1998 0.526893 39.034 1.31723 39.034H9.045V30.6037L11.5477 28.1888L17.7387 37.9802C18.3095 38.7706 19.0999 39.034 20.0219 39.034H28.7596L17.7387 21.6026L27.9253 11.1526Z" fill="white"/>
<path d="M82.9857 13.9188C80.7903 11.8551 77.7606 10.6696 72.5795 10.6696C68.1448 10.6696 64.3248 11.899 61.8221 12.9528C61.1635 13.2602 60.9 14.1383 61.1635 14.7969L63.0076 19.4072C64.4566 18.4852 67.9692 16.9045 71.5257 16.9045C75.1701 16.9045 77.2337 18.4413 77.2337 21.3831V21.9978L70.2085 22.2613C65.0713 22.4808 59.3633 24.5884 59.3633 30.7794C59.3633 36.9704 64.5883 39.6487 69.506 39.6487C74.0285 39.6487 76.3117 37.2777 77.4972 36.0922L77.6289 37.9802C77.6728 38.5071 78.1558 38.9901 78.8583 38.9901H86.3227V23.3589C86.2787 18.6608 85.1371 15.9385 82.9857 13.9188ZM77.3216 31.3941C76.7508 32.36 75.1262 33.9407 72.7112 33.9407C70.2085 33.9407 68.4522 32.6235 68.4522 30.5159C68.4522 28.4522 70.0768 27.2228 72.843 27.135L77.3216 26.8716V31.3941Z" fill="white"/>
<path d="M120.439 40C119.122 40 118.112 38.9901 118.112 37.6729C118.112 36.3557 119.122 35.3458 120.439 35.3458C121.757 35.3458 122.767 36.3557 122.767 37.6729C122.767 38.9901 121.713 40 120.439 40ZM120.439 35.697C119.342 35.697 118.464 36.5752 118.464 37.6729C118.464 38.7706 119.342 39.6487 120.439 39.6487C121.537 39.6487 122.415 38.7706 122.415 37.6729C122.415 36.5752 121.537 35.697 120.439 35.697ZM121.581 39.034H120.922L120.352 37.9363H120.088V39.034H119.517V36.3118H120.483C121.054 36.3118 121.449 36.6191 121.449 37.146C121.449 37.6729 121.098 37.8485 120.878 37.9363L121.581 39.034ZM120.396 36.7947H120.088V37.5412H120.396C120.659 37.5412 120.878 37.4973 120.878 37.1899C120.878 36.8386 120.659 36.7947 120.396 36.7947Z" fill="white"/>
</svg>
