<svg width="221" height="40" viewBox="0 0 221 40" fill="none" xmlns="http://www.w3.org/2000/svg">
<path d="M130.76 25.8189C129.806 31.8034 126.73 34.9239 123.01 34.9239C120.641 34.9239 119.29 33.2674 119.687 30.724L120.984 22.6236C121.477 19.6206 123.289 17.2589 126.526 17.2589C130.117 17.2589 131.747 19.6848 130.76 25.8189ZM118.057 37.7238C118.551 37.7238 119.751 39.8076 123.685 39.8076C132.025 39.8076 136.796 33.8018 138.082 26.0326C139.744 16.4681 135.07 12.1079 129.195 12.1079C126.43 12.1079 124.361 12.3537 122.86 13.1552L125.111 0H118.186L111.293 39.3161H116.525C116.525 39.3161 117.264 37.6917 118.09 37.6917H118.057V37.7238ZM191.703 20.9778C192.753 15.0254 190.534 12.1186 184.07 12.1186C179.236 12.1186 177.36 14.2346 175.548 16.0406L175.73 12.7278L169.33 12.7598L168.837 17.665L165.118 39.3802H172.128L174.379 25.3059C175.183 20.4649 178.528 16.7459 181.701 16.7459C185.206 16.7459 185.174 18.7443 184.628 21.8114L181.583 39.4122H188.54L191.703 20.9778ZM221 12.1721H212.821L203.409 22.1106L203.291 22.0786L207.043 0.0534363H200.214L193.321 39.3374H200.246L200.954 35.4154L202.369 26.802C206.035 26.802 208.093 27.1974 209.691 34.475L210.795 39.3481H217.87C217.87 39.3481 216.112 31.9209 214.943 29.0142C213.743 25.9471 212.424 23.9487 209.616 23.4037L221 12.1721ZM19.821 21.8007C24.9022 20.7 27.5178 16.6177 28.2253 13.946C30.037 6.64708 26.7781 0.940424 17.4304 1.0366H6.71061L0 39.3695H6.97861L9.74432 23.9701C16.1762 23.7884 16.9695 25.3487 18.1701 32.8293L19.2743 39.3588H26.4994C25.6418 35.4048 25.0844 31.6644 24.3769 28.6508C23.6372 25.4876 22.4366 23.0403 19.4243 21.8755L19.821 21.8007ZM21.236 12.6636C20.6249 16.0727 17.9772 18.4558 14.7183 18.4558H10.5912L12.7137 6.33716L16.4657 6.3051C20.8929 6.34784 21.7505 9.2546 21.236 12.6636ZM52.763 19.9305C53.7814 14.1384 50.6405 12.1079 44.3587 12.1079C36.5117 12.1079 33.1028 15.8162 33.1028 15.8162L35.5041 19.8664C35.5041 19.8664 38.0232 16.9169 43.1044 16.9169C45.9345 16.9169 45.9988 18.3275 45.7201 19.8664L45.1626 23.3289C35.0753 23.0831 29.8976 25.2311 28.7291 31.8247C27.7751 37.2215 31.8379 39.829 36.426 39.829C38.7951 39.829 40.7032 39.487 43.008 37.4673C43.4689 38.7604 44.2729 39.4657 45.1626 39.6153C46.6098 39.9252 49.129 39.5832 49.8686 39.0275C49.8043 38.226 49.8686 36.1742 50.7262 31.3545L52.763 19.9305ZM44.4873 26.9837C43.3831 34.8918 42.3004 35.6933 38.4842 35.6933C35.8685 35.6933 34.9145 33.9193 35.3433 31.579C35.965 28.3623 38.3663 26.9837 44.4873 26.9837ZM163.467 19.9305C164.485 14.1384 161.344 12.1079 155.062 12.1079C147.215 12.1079 143.828 15.8162 143.828 15.8162L146.229 19.8664C146.229 19.8664 148.748 16.9169 153.83 16.9169C156.66 16.9169 156.724 18.3275 156.445 19.8664L155.888 23.3289C145.8 23.0831 140.623 25.2311 139.454 31.8247C138.5 37.2215 142.563 39.829 147.151 39.829C149.52 39.829 151.428 39.487 153.733 37.4673C154.194 38.7604 154.998 39.4657 155.888 39.6153C157.335 39.9252 159.854 39.5832 160.594 39.0275C160.529 38.226 160.594 36.1742 161.451 31.3545L163.467 19.9305ZM155.191 26.9837C154.087 34.8918 153.004 35.6933 149.188 35.6933C146.572 35.6933 145.618 33.9193 146.047 31.579C146.669 28.3623 149.07 26.9837 155.191 26.9837ZM66.7631 39.8397C75.1031 39.8397 79.8734 33.8231 81.1598 26.0647C82.8214 16.5001 78.1475 12.14 72.2731 12.14C69.5074 12.14 67.5349 12.3858 65.9698 13.1873L68.221 0.0320585H61.2638L54.371 39.3481H59.6022C59.6022 39.3481 60.3419 37.7238 61.1137 37.7238C61.6605 37.7238 62.8611 39.8397 66.7631 39.8397ZM69.6896 17.2589C73.2593 17.2589 74.7708 19.6527 73.9347 25.8189C73.0771 32.1026 69.904 34.9239 66.1199 34.9239C63.7508 34.9239 62.4001 33.2674 62.8611 30.724L64.1796 22.6236C64.6727 19.6206 66.4844 17.2589 69.6574 17.2589H69.6896ZM84.1185 28.2127C85.1905 18.21 89.7142 12.0224 100.488 12.0224C108.485 12.0224 111.1 18.0924 110.06 24.6327C108.335 35.0949 104.272 40 94.0343 40C87.3452 39.9893 83.411 34.5926 84.1185 28.2127ZM102.728 25.1135C103.253 22.3564 103.779 16.981 99.0083 16.981C95.8138 16.981 92.7908 19.1611 91.4401 26.77C90.6147 31.3973 91.5045 35.1483 95.2242 35.1483C97.9899 35.1162 101.281 32.872 102.728 25.1135Z" fill="white"/>
</svg>
