<svg width="300" height="38.327" version="1.1" viewBox="0 0 300 38.327" xmlns="http://www.w3.org/2000/svg">
	<path d="m51.888 4.3583c0-1.6889-1.4222-3.0666-3.1111-3.0666-1.7805 0-3.1139 1.3778-3.1139 3.0666 0 1.8222 1.3333 3.1555 3.1139 3.1555 1.6889 0 3.1111-1.2889 3.1111-3.1555m55.311 26.544-0.13333-1.2h-0.93332c-2 0-2-1.0222-2-4.5805v-25.033c-2.4028 0-4.4027 0.26666-8.0944 1.025v1.1555c0.17778 0 0.71388-0.088888 1.2472-0.088888 1.5111 0 1.5111 1.7333 1.5111 5.6472v3.6444c-0.84444-0.13333-1.6444-0.26666-2.9361-0.26666-3.6889 0-12.758 1.4667-12.758 11.65 0 6.7583 4.8888 9.9138 9.8249 9.9138 2.8444 0 4.9805-1.4222 6.0916-2.0444l1.1555 2.0444c2.3555-0.44444 4.8027-0.97777 7.0249-1.8666m-81.321-20.497c0-0.7111-0.4-6.6694-0.57777-7.6471h-24.719c-0.17778 0.97777-0.58055 6.936-0.58055 7.6471h1.6028c1.1555-4.8027 1.6444-5.9583 6.6694-5.9583h1.7778v21.208c0 4.5361 0 4.8027-2.8916 5.1583l-1.0667 0.13333v1.1555h13.694v-1.1555l-1.0667-0.13333c-2.8889-0.35555-2.8889-0.62222-2.8889-5.1583v-21.208h1.7778c5.025 0 5.5138 1.1555 6.6694 5.9583zm28.633 21.697v-1.1555l-0.93332-0.08889c-1.6-0.13333-1.8222-0.62221-1.8222-2.9805v-16.672c-2.3111 0.13333-4.7583 0.48888-8.0916 1.6v1.2889c0.17778-0.04444 0.75555-0.26666 1.4222-0.26666 1.3333 0 1.3333 2.0028 1.3333 3.5583v10.492c0 2.3583-0.22222 2.8472-1.8222 2.9805l-0.93332 0.08889v1.1555zm-12.983-18.941c-0.62222-0.66666-1.7333-1.9555-3.6-1.9555-2.2666 0-4.1361 2.1333-5.025 3.0666 0-1.3333-0.22222-2.2666-0.35555-3.0666-3.2 0.48888-4.1333 0.79999-7.4694 1.9111v1.1555c0.26666-0.08889 0.75555-0.26666 1.4222-0.26666 1.3333 0 1.3333 2.0028 1.3333 3.5583v10.314c0 2.3583-0.22222 2.8472-1.8222 2.9805l-0.93332 0.08889v1.1555h11.739v-1.1555l-1.7778-0.22222c-1.8694-0.22222-1.8694-0.79999-1.8694-3.9583v-10.803c0.57777-0.7111 1.1111-0.88888 1.7805-0.88888 0.62222 0 3.2 1.0667 3.9111 1.2444 1.4222-0.97777 2.0444-1.7361 2.6666-3.1583m107.2 13.205c0-6.8027-10.003-6.0472-10.003-10.714 0-1.5583 1.1111-2.7583 2.4889-2.7583 3.2889 0 4.2694 3.6027 4.4027 5.0694h1.7778c0-1.8222-0.0444-3.7805-0.48889-5.5138-1.0666-0.57777-2.9805-1.2444-5.3361-1.2444-7.9138 0-7.9138 5.4694-7.9138 5.8249 0 7.1138 10.003 5.8249 10.003 11.114 0 1.6028-1.0666 2.9361-2.9333 2.9361-3.3361 0-5.3361-3.5583-5.6027-6.0027h-1.7778c0 2.6666 0.35555 4.5361 0.79999 6.3138 1.6 0.79999 3.5111 1.3778 6.136 1.3778 6.0027 0 8.4471-2.9777 8.4471-6.4027m-18.141-4.8c0-7.161-5.2444-10.361-11.069-10.361-5.6027 0-11.294 3.3777-11.294 11.028 0 7.4694 5.2916 10.536 10.983 10.536s11.38-3.2889 11.38-11.203m-51.041 0c0-7.161-5.2472-10.361-11.072-10.361-5.5999 0-11.292 3.3777-11.292 11.028 0 7.4694 5.2916 10.536 10.98 10.536 5.6916 0 11.383-3.2889 11.383-11.203m19.253 7.8249c-0.48888 0.4-1.4222 0.79999-2.5805 0.79999-3.5555 0-7.4249-3.4694-7.4249-9.4721 0-4.4888 2.2694-7.8249 6.1805-7.8249 2.1361 0 2.9805 0.79999 3.825 1.5555zm26.1-6.8916c0 3.5111-0.98055 8.5805-5.1138 8.5805-4.2694 0-5.8694-5.1138-5.8694-9.7832 0-3.6889 1.1111-8.4027 5.1583-8.4027 4.4888 0 5.8249 4.9361 5.8249 9.6055m-51.044 0c0 3.5111-0.97777 8.5805-5.1138 8.5805-4.2666 0-5.8666-5.1138-5.8666-9.7832 0-3.6889 1.1111-8.4027 5.1555-8.4027 4.4916 0 5.8249 4.9361 5.8249 9.6055" fill="#003168"/>
	<path d="m195.3 19.919c0-5.4249-2.3111-10.672-5.3805-13.783-1.9555-1.9555-3.7333-3.1555-6.3583-4.3138l-0.26667 0.48888c1.2444 0.75833 2.2694 1.5583 3.4694 2.7583 3.4222 3.2889 5.6916 8.9805 5.6916 13.65 0 0.7111 0 2.1333-0.0889 3.1555-0.4-2-1.6472-4.1333-3.3805-5.8694-0.48888-0.48888-1.2-1.2444-1.7333-1.5111 0 1.0222-0.4 3.3805-0.88888 4.7583 0.66666 0.53333 1.0222 0.93332 1.6444 1.5111 1.4222 1.4667 2.3555 3.3361 2.3555 4.8916 0 0.88888-0.4 1.8222-1.1111 2.5333-0.71111 0.7111-2.1778 1.2444-3.6444 1.2444-1.7361 0-4.3138-0.93332-5.6472-1.9111 2.7111-2.7555 4.3555-5.7361 5.3805-9.4694 0.44444-1.6028 0.66666-3.2027 0.66666-4.8027 0-2.8889-0.71111-5.6472-1.9583-7.8249-2-3.4694-5.0222-5.4249-8.9805-5.4249-4.7138 0-9.1138 2.3111-12.405 5.6472-3.7777 3.8222-5.6472 8.4916-5.6472 13.294 0 0.84444 0.0444 1.6444 0.17778 2.5778h0.5361c0.0445-1.4222 0.22222-2.7555 0.62222-4.4 0.75555-2.9805 2.8-6.2694 5.3777-8.8499 1.8694-1.8666 4.625-3.6889 6.536-4.4444-1.4666 1.2-2.8889 3.4222-3.6 5.9138-0.17777 0.66666-0.35555 1.5555-0.35555 2.1778 0.88888-0.53333 3.1111-1.3333 4.5333-1.5555 0.31111-2.0472 1.0694-4.3138 2.5805-5.8249 0.75555-0.75555 1.6444-1.2444 2.7555-1.2444 1.6889 0 3.025 1.2444 3.8694 2.6666 0.84444 1.4667 1.3778 4.0916 1.1556 5.8694-1.8666-0.53333-3.6472-0.79999-5.425-0.79999s-3.5555 0.26666-5.4694 0.79999c-3.1111 0.84444-5.9583 2.4444-8.0027 4.4888-2.1778 2.1805-3.8666 5.2027-3.8666 8.3166 0 3.2444 1.6444 5.9583 3.8222 8.1805 3.6472 3.6444 8.8471 5.5138 13.961 5.5138 4.1361 0 7.8249-1.425 11.161-3.8694l-0.26666-0.44444c-2.6694 1.4667-5.4694 2.1778-8.6249 2.1778-4.7583 0-9.2944-1.4667-12.805-4.1333 1.0667 0.35555 2.2666 0.53333 3.1555 0.53333 1.5555 0 4.4027-0.44444 5.7805-1.2889-0.97777-0.57777-2.7555-2.0028-3.6916-3.1139-1.3333 0.53333-2.9778 0.93332-4.4444 0.93332-1.3778 0-2.8916-0.31111-3.8694-1.3333-0.57777-0.66666-0.93332-1.5111-0.93332-2.4 0-1.8666 1.0222-3.425 2.2666-4.7138 0.89166-0.93332 2.0916-1.7778 3.025-2.2222 1.0222 3.7777 2.7555 6.8027 5.4694 9.5138 3.3777 3.3361 7.7805 5.2027 11.647 5.2027 2.9361 0.04444 5.4249-0.79999 7.5138-2.8889 2.225-2.2694 3.6916-6.2694 3.6916-10.361m-14.672-3.1111c-0.93332 2.8889-2.6694 5.5111-4.7583 7.5583-2.0444-2.1805-3.4222-5.025-4.1333-7.8694 1.2-0.26944 2.4444-0.40277 3.6888-0.40277 1.7778 0 3.5138 0.26666 5.2027 0.71388" fill="#00927b"/>
	<path d="m300 32.102v-1.1555c-1.7778 0-2.1778-0.44444-9.2471-11.65 4.9333-5.0694 4.9777-5.7361 7.6472-6.136l0.84443-0.13333v-1.1555h-9.8277v1.1555l1.425 0.17778c0.62221 0.08889 1.3778 0.22222 1.3778 0.57777 0 0.66666-0.44444 1.2917-2 3.1139l-1.4694 1.6889c-1.6444 1.8666-2.5778 1.9555-4.1777 1.9555v-20.453c-2.4028 0-4.4027 0.26666-8.0916 1.0222v1.1583c0.17778 0 0.7111-0.088888 1.2444-0.088888 1.5111 0 1.5111 1.7333 1.5111 5.6444v20.053c0 2.3583-0.26667 2.8472-1.8222 2.9805l-0.93332 0.08889v1.1555h10.847v-1.1555l-0.93332-0.08889c-1.6-0.13333-1.8222-0.62222-1.8222-2.9805v-5.6444h0.48888c1.8666 0 1.9111 1.2 4.2222 4.6666 2.3139 3.5583 2.5805 5.2027 7.3388 5.2027zm-74.163-8.3582c0-5.4694-4.7555-7.2472-7.5138-7.6471v-0.08889c2.3555-0.7111 6.0916-2.3583 6.0916-7.1138 0-6.136-7.3805-6.136-9.5138-6.136h-13.25v1.1555l1.0667 0.13333c2.0889 0.26666 2.0889 0.26666 2.0889 5.2027v16.272c0 5.025 0.0444 5.025-2.0889 5.2916l-1.0667 0.13333v1.1555h11.558c6.6249 0 12.628-1.8666 12.628-8.3582m48.908 8.3582v-1.1555l-0.93333-0.08889c-1.6-0.13333-1.8222-0.62222-1.8222-2.9805v-8.7582c0-6.0027-2.7111-7.9138-6.7138-7.9138-3.7805 0-5.9138 1.6-7.0249 2.5778v-2.5778c-2.3111 0.13333-4.6694 0.48888-8.0027 1.6v1.2889c0.17778-0.04444 0.75555-0.26666 1.4222-0.26666 1.3333 0 1.3333 2.0028 1.3333 3.5583v10.492c0 2.3583-0.22222 2.8472-1.7333 2.9805l-0.93332 0.08889v1.1555h10.758v-1.1555l-0.93332-0.08889c-1.6-0.13333-1.8222-0.62222-1.8222-2.9805v-12.403c0.7111-0.75832 1.8666-1.6916 3.6888-1.6916 4.625 0 4.625 4.2694 4.625 7.7805v6.3138c0 2.3583-0.22222 2.8472-1.8222 2.9805l-0.93333 0.08889v1.1555zm-25.875-0.44444-0.13334-0.57777-0.35833 0.04444c-2.8444 0-2.8444-3.2916-2.8444-6.4916v-5.4694c0-5.0694-0.97777-7.9583-6.5805-7.9583-4.4916 0-7.5583 2.5333-9.5582 4.7138 0.35555 1.0667 0.57777 1.4222 1.2 2.2666h0.44444c0.57777-1.3333 1.8666-4.4027 5.2916-4.4027 3.1555 0 3.8666 2.3583 3.8666 4.9805v1.0667c-3.6888 0.97777-11.514 2.4916-11.514 8.0916 0 2.8472 2.3555 4.8472 5.8222 4.8472 3.1139 0 4.9361-1.3778 6.1805-2.2666 0.71111 1.1111 1.5139 2.2666 4.3583 2.2666 1.9555 0 3.2444-0.79999 3.825-1.1111m-30.236-21.697c0 4.8-3.0222 5.7361-6.4027 5.7361h-1.6444v-10.939c0.75554-0.22222 1.5111-0.31111 2.2666-0.31111 3.425 0 5.7805 2.0889 5.7805 5.5138m1.4222 14.405c0 3.5111-1.7778 6.0472-5.8666 6.0472-1.2028 0-2.4472-0.26666-3.6027-0.7111v-12.317h1.9111c5.3805 0 7.5582 3.4666 7.5582 6.9805m20.319 4.7583c-0.35556 0.26666-1.2 1.0667-2.7111 1.0667-2 0-3.2916-1.6028-3.2916-3.7361 0-3.2889 2.8028-4.6222 5.3361-4.6222l0.48888 0.04444v4.8444c0 0.84444 0.13333 1.9583 0.17778 2.4028" fill="#003168"/>
</svg>
