<svg width="314" height="40" viewBox="0 0 314 40" fill="none" xmlns="http://www.w3.org/2000/svg">
<g clip-path="url(#clip0_358_2556)">
<path d="M54.3097 4.54854C54.3097 2.78592 52.8211 1.34808 51.0534 1.34808C49.1898 1.34808 47.7942 2.78602 47.7942 4.54854C47.7942 6.45028 49.1897 7.84178 51.0534 7.84178C52.8211 7.84178 54.3097 6.49662 54.3097 4.54854ZM112.202 32.2512L112.062 30.9988H111.085C108.992 30.9988 108.992 29.932 108.992 26.2184V0.0926743C106.477 0.0926743 104.384 0.370974 100.52 1.16242V2.36835C100.706 2.36835 101.267 2.27559 101.825 2.27559C103.407 2.27559 103.407 4.08455 103.407 8.16929V11.9728C102.523 11.8336 101.686 11.6945 100.334 11.6945C96.4728 11.6945 86.9805 13.2252 86.9805 23.853C86.9805 30.9063 92.0974 34.1996 97.2639 34.1996C100.241 34.1996 102.477 32.7153 103.64 32.0659L104.849 34.1996C107.315 33.7357 109.876 33.1788 112.202 32.2512ZM27.0859 10.8598C27.0859 10.1176 26.6672 3.89924 26.4812 2.87886H0.608619C0.422543 3.89931 0.000976562 10.1176 0.000976562 10.8598H1.67857C2.888 5.84742 3.39971 4.64138 8.65921 4.64138H10.52V26.7751C10.52 31.5092 10.52 31.7875 7.49344 32.1586L6.37696 32.2977V33.5037H20.71V32.2977L19.5935 32.1586C16.5698 31.7875 16.5698 31.5092 16.5698 26.7751V4.64138H18.4306C23.6901 4.64138 24.2017 5.84731 25.4112 10.8598H27.0859ZM57.0551 33.5039V32.2979L56.0782 32.2051C54.4036 32.066 54.171 31.5558 54.171 29.0945V11.6948C51.7521 11.8339 49.1907 12.205 45.7018 13.3646V14.7098C45.8879 14.6634 46.4926 14.4315 47.1904 14.4315C48.5859 14.4315 48.5859 16.5217 48.5859 18.1451V29.0951C48.5859 31.5563 48.3533 32.0666 46.6787 32.2057L45.7018 32.2985V33.5044L57.0551 33.5039ZM43.4662 13.7361C42.815 13.0403 41.6521 11.6952 39.6982 11.6952C37.3259 11.6952 35.3691 13.9216 34.4387 14.8957C34.4387 13.5042 34.2062 12.5301 34.0666 11.6952C30.7173 12.2054 29.7404 12.5301 26.2486 13.6897V14.8957C26.5277 14.8029 27.0394 14.6174 27.7372 14.6174C29.1327 14.6174 29.1327 16.7076 29.1327 18.331V29.0952C29.1327 31.5564 28.9001 32.0667 27.2255 32.2058L26.2486 32.2986V33.5045H38.5354V32.2986L36.6747 32.0666C34.718 31.8347 34.718 31.2317 34.718 27.9356V16.661C35.3228 15.9189 35.881 15.7333 36.5816 15.7333C37.2329 15.7333 39.9309 16.8466 40.6752 17.032C42.1638 16.0116 42.815 15.2203 43.4662 13.7361ZM155.669 27.5173C155.669 20.4176 145.199 21.2061 145.199 16.3356C145.199 14.7093 146.362 13.4569 147.804 13.4569C151.247 13.4569 152.273 17.2169 152.412 18.7476H154.273C154.273 16.8459 154.227 14.8021 153.761 12.9931C152.645 12.3901 150.642 11.6944 148.176 11.6944C139.893 11.6944 139.893 17.4025 139.893 17.7736C139.893 25.1979 150.363 23.8527 150.363 29.3727C150.363 31.0455 149.247 32.437 147.293 32.437C143.801 32.437 141.708 28.7233 141.429 26.1722H139.568C139.568 28.9552 139.94 30.9063 140.405 32.7616C142.08 33.5965 144.08 34.1996 146.828 34.1996C153.11 34.1996 155.669 31.0918 155.669 27.5173ZM136.681 22.5079C136.681 15.0343 131.192 11.6946 125.096 11.6946C119.232 11.6946 113.275 15.2197 113.275 23.204C113.275 30.9994 118.813 34.1999 124.77 34.1999C130.727 34.1999 136.681 30.7674 136.681 22.5079ZM83.2583 22.5079C83.2583 15.0343 77.7663 11.6946 71.6697 11.6946C65.8084 11.6946 59.8507 15.2197 59.8507 23.204C59.8507 30.9994 65.3892 34.1999 71.3431 34.1999C77.3003 34.1999 83.2583 30.7674 83.2583 22.5079ZM103.409 30.6743C102.897 31.0918 101.92 31.5092 100.708 31.5092C96.9864 31.5092 92.9364 27.8884 92.9364 21.6237C92.9364 16.9389 95.3118 13.4572 99.4054 13.4572C101.641 13.4572 102.525 14.2921 103.409 15.0806L103.409 30.6743ZM130.727 23.4819C130.727 27.1463 129.7 32.437 125.374 32.437C120.906 32.437 119.231 27.0999 119.231 22.2267C119.231 18.3768 120.394 13.4572 124.63 13.4572C129.328 13.4572 130.727 18.6087 130.727 23.4819ZM77.3007 23.482C77.3007 27.1464 76.2773 32.4371 71.9483 32.4371C67.4826 32.4371 65.8079 27.1 65.8079 22.2268C65.8079 18.3769 66.9708 13.4573 71.204 13.4573C75.9052 13.4573 77.3007 18.6088 77.3007 23.482Z" fill="white"/>
<path d="M204.414 20.7885C204.414 15.1268 201.995 9.65064 198.782 6.40384C196.736 4.36298 194.875 3.1106 192.127 1.90174L191.848 2.41196C193.151 3.20339 194.224 4.03828 195.48 5.29066C199.061 8.72312 201.437 14.6632 201.437 19.5365C201.437 20.2786 201.437 21.7629 201.344 22.8297C200.925 20.7424 199.62 18.516 197.805 16.7041C197.294 16.1939 196.549 15.4054 195.991 15.1271C195.991 16.1939 195.573 18.6551 195.061 20.0931C195.759 20.6497 196.131 21.0671 196.782 21.6701C198.271 23.2009 199.247 25.1519 199.247 26.7753C199.247 27.7029 198.829 28.677 198.084 29.4191C197.34 30.1613 195.805 30.7179 194.27 30.7179C192.453 30.7179 189.755 29.7438 188.359 28.7233C191.197 25.8476 192.918 22.7368 193.991 18.8406C194.456 17.1678 194.689 15.4981 194.689 13.8282C194.689 10.8132 193.944 7.93454 192.639 5.66178C190.546 2.04094 187.382 8.39233e-05 183.239 8.39233e-05C178.306 8.39233e-05 173.7 2.41206 170.255 5.89379C166.301 9.88283 164.345 14.7561 164.345 19.7681C164.345 20.6494 164.391 21.4843 164.531 22.4584H165.092C165.139 20.9741 165.325 19.5826 165.743 17.8663C166.534 14.7557 168.674 11.3233 171.372 8.63014C173.328 6.68206 176.213 4.78021 178.213 3.99173C176.678 5.24412 175.189 7.56332 174.445 10.1637C174.259 10.8594 174.073 11.7871 174.073 12.4365C175.003 11.8799 177.329 11.045 178.818 10.8131C179.143 8.67658 179.937 6.31104 181.518 4.73398C182.309 3.94545 183.24 3.43526 184.403 3.43526C186.17 3.43526 187.569 4.73398 188.453 6.21826C189.336 7.74898 189.895 10.4885 189.662 12.3439C187.708 11.7873 185.845 11.509 183.984 11.509C182.123 11.509 180.262 11.7873 178.259 12.3439C175.003 13.2252 172.023 14.895 169.883 17.0286C167.604 19.3043 165.836 22.4584 165.836 25.7082C165.836 29.0942 167.557 31.9266 169.837 34.2458C173.654 38.0493 179.097 40.0003 184.449 40.0003C188.778 40.0003 192.639 38.5131 196.131 35.962L195.852 35.4981C193.058 37.0289 190.127 37.771 186.825 37.771C181.844 37.771 177.096 36.2403 173.422 33.4573C174.538 33.8284 175.794 34.0139 176.725 34.0139C178.353 34.0139 181.333 33.5501 182.775 32.6687C181.752 32.0657 179.891 30.5785 178.911 29.4189C177.516 29.9755 175.794 30.393 174.259 30.393C172.817 30.393 171.233 30.0683 170.209 29.0015C169.605 28.3057 169.232 27.4244 169.232 26.4967C169.232 24.5486 170.302 22.9222 171.605 21.5772C172.538 20.6031 173.794 19.7218 174.771 19.258C175.841 23.2006 177.655 26.3576 180.496 29.187C184.031 32.6688 188.639 34.6168 192.686 34.6168C195.759 34.6632 198.364 33.7819 200.551 31.6018C202.879 29.2334 204.414 25.0587 204.414 20.7885ZM189.058 17.5417C188.081 20.5567 186.264 23.2933 184.077 25.4299C181.938 23.1542 180.495 20.1855 179.751 17.217C181.007 16.9358 182.31 16.7966 183.612 16.7966C185.473 16.7966 187.29 17.0749 189.058 17.5417Z" fill="white"/>
<path d="M314 33.5033V32.2973C312.139 32.2973 311.721 31.8335 304.322 20.1388C309.485 14.8481 309.531 14.1523 312.326 13.735L313.209 13.5958V12.3899H302.923V13.5958L304.415 13.7814C305.066 13.8741 305.857 14.0133 305.857 14.3843C305.857 15.0801 305.392 15.7324 303.763 17.6342L302.225 19.3968C300.504 21.3449 299.527 21.4377 297.853 21.4377V0.0918655C295.338 0.0918655 293.245 0.370165 289.384 1.15869V2.36755C289.57 2.36755 290.128 2.27478 290.686 2.27478C292.268 2.27478 292.268 4.08374 292.268 8.16556V29.0939C292.268 31.5551 291.988 32.0654 290.36 32.2045L289.383 32.2973V33.5032H300.737V32.2973L299.76 32.2045C298.085 32.0653 297.853 31.5551 297.853 29.0939V23.2031H298.364C300.318 23.2031 300.365 24.4555 302.784 28.0734C305.205 31.787 305.484 33.5032 310.465 33.5032L314 33.5033ZM236.376 24.7802C236.376 19.0721 231.399 17.2167 228.512 16.7993V16.7066C230.977 15.9644 234.888 14.2453 234.888 9.28224C234.888 2.8784 227.163 2.8784 224.93 2.8784H211.062V4.08434L212.178 4.22349C214.364 4.50179 214.364 4.50179 214.364 9.65329V26.6356C214.364 31.8799 214.411 31.8799 212.178 32.1582L211.062 32.2973V33.5032H223.159C230.093 33.5032 236.376 31.5552 236.376 24.7802ZM287.567 33.5032V32.2973L286.59 32.2045C284.915 32.0654 284.682 31.5552 284.682 29.0939V19.9534C284.682 13.6887 281.845 11.6942 277.655 11.6942C273.698 11.6942 271.466 13.364 270.303 14.3845V11.6942C267.884 11.8333 265.415 12.2044 261.926 13.364V14.7092C262.113 14.6628 262.717 14.4309 263.415 14.4309C264.811 14.4309 264.811 16.5211 264.811 18.1445V29.0945C264.811 31.5557 264.578 32.066 262.996 32.2051L262.019 32.2979V33.5038H273.28V32.2979L272.303 32.2051C270.628 32.0659 270.395 31.5557 270.395 29.0945V16.1501C271.14 15.3587 272.349 14.3847 274.256 14.3847C279.097 14.3847 279.097 18.8404 279.097 22.5048V29.0942C279.097 31.5554 278.865 32.0657 277.19 32.2048L276.213 32.2976V33.5035L287.567 33.5032ZM260.484 33.0394L260.345 32.4364L259.969 32.4828C256.992 32.4828 256.992 29.0475 256.992 25.7078V19.9997C256.992 14.709 255.969 11.694 250.105 11.694C245.404 11.694 242.194 14.3379 240.1 16.6136C240.473 17.7268 240.705 18.0978 241.356 18.9791H241.822C242.426 17.5876 243.775 14.3842 247.36 14.3842C250.663 14.3842 251.407 16.8455 251.407 19.5821V20.6954C247.546 21.7158 239.356 23.2957 239.356 29.1402C239.356 32.1117 241.821 34.199 245.45 34.199C248.709 34.199 250.616 32.761 251.919 31.8334C252.663 32.993 253.503 34.199 256.48 34.199C258.527 34.199 259.876 33.3641 260.484 33.0394ZM228.837 10.3953C228.837 15.4048 225.674 16.3818 222.135 16.3818H220.414V4.96528C221.205 4.73336 221.996 4.64059 222.787 4.64059C226.371 4.64059 228.837 6.82089 228.837 10.3953ZM230.326 25.4289C230.326 29.0932 228.465 31.74 224.185 31.74C222.926 31.74 221.624 31.4617 220.414 30.9979V18.1432H222.415C228.046 18.1432 230.326 21.7616 230.326 25.4289ZM251.593 30.3944C251.221 30.6727 250.337 31.5077 248.755 31.5077C246.662 31.5077 245.31 29.8349 245.31 27.6085C245.31 24.1761 248.243 22.7846 250.895 22.7846L251.407 22.8309V27.8868C251.407 28.7681 251.546 29.9305 251.593 30.3944Z" fill="white"/>
</g>
<defs>
<clipPath id="clip0_358_2556">
<rect width="314" height="40" fill="white"/>
</clipPath>
</defs>
</svg>
