<svg width="85" height="40" viewBox="0 0 85 40" fill="none" xmlns="http://www.w3.org/2000/svg">
<path d="M20.7317 33.6668H21.9823C22.726 33.6668 25.4301 33.6334 25.4301 31.1992C25.4301 30.1434 24.7203 28.8499 22.6584 28.8499H20.7317V33.6668ZM24.8895 39.7616L20.7655 33.9233H20.7317V39.7616H18.9062V27.1645H22.7765C24.5343 27.1645 25.447 27.5897 26.1059 28.2192C26.9005 28.9857 27.2553 30.1434 27.2553 31.1992C27.2553 34.5363 24.4836 35.0629 23.6723 35.0629L27.171 39.7616H24.8895Z" fill="white"/>
<path d="M37.3444 30.3302C36.8207 29.7516 35.7725 28.6111 33.9304 28.6111C31.3279 28.6111 29.3 30.8583 29.3 33.4971C29.3 36.2721 31.5815 38.315 33.9477 38.315C34.3025 38.315 37.0575 38.2814 38.2575 35.1825H32.4266V33.4971H40.3361C40.2684 37.7193 36.9221 40 33.8801 40C30.2296 40 27.4746 37.021 27.4746 33.4971C27.4746 29.8707 30.2634 26.9267 33.8632 26.9267C35.9923 26.9267 38.2574 28.0672 39.4743 30.3302H37.3444Z" fill="white"/>
<path d="M40.9619 39.7616V27.1644H47.7036V28.8498H42.7862V32.5606H47.7036V34.2465H42.7862V38.0764H47.7036V39.7616H40.9619Z" fill="white"/>
<path d="M56.9482 39.7616L50.7631 30.0238H50.7287V39.7616H48.9033V27.1644H50.8982L56.9826 36.7487H57.0159V27.1644H58.8413V39.7616H56.9482Z" fill="white"/>
<path d="M61.6133 39.7616V28.8498H59.2129V27.1644H65.8383V28.8498H63.4385V39.7616H61.6133Z" fill="white"/>
<path d="M68.4531 34.2497V29.5949L74.4337 34.2261L68.4531 34.2497ZM68.4508 27.1434H66.4756V39.8643H68.4531V36.0263L76.7697 36.035L81.714 39.8643H84.5368L68.4508 27.1434Z" fill="white"/>
<path d="M16.0831 34.2497L10.1037 34.2261L16.0831 29.5949V34.2497ZM16.0858 27.1434L0 39.8643H2.82245L7.76713 36.035L16.0831 36.0263V39.8643H18.0611V27.1434H16.0858Z" fill="white"/>
<path d="M38.5365 7.15199H42.7032L33.5381 14.4139L33.5387 11.1119L38.5365 7.15199Z" fill="white"/>
<path d="M48.9094 23.3198H44.7432L53.9081 16.0585L53.9077 19.3595L48.9094 23.3198Z" fill="white"/>
<path d="M48.91 7.15199L51.141 8.919L35.7518 21.1125L33.5391 19.3593V15.2916L43.8119 7.15199H48.91Z" fill="white"/>
<path d="M51.6949 9.35817L53.908 11.1119V15.1796L43.6342 23.3198H38.5368L36.3057 21.5519L51.6949 9.35817Z" fill="white"/>
<path d="M45.1621 6.08233L50.271 2.03384H59.8305L54.7224 6.08233H45.1621Z" fill="white"/>
<path d="M44.0537 0.816652L45.0848 0V5.26549L44.0537 6.08234V0.816652Z" fill="white"/>
</svg>
