<svg width="133" height="40" viewBox="0 0 133 40" fill="none" xmlns="http://www.w3.org/2000/svg">
<path d="M83.6102 0.468473C82.5199 0.468473 81.4207 1.28721 81.4207 2.85027V7.32487H85.7995V2.85027C85.7995 1.28721 84.7005 0.468473 83.6144 0.468473H83.6102ZM81.4294 39.5096H85.7822L85.7951 11.1208H81.4207L81.4294 39.5096ZM18.7737 19.4703C18.6916 19.4001 18.6439 19.2951 18.6397 19.1856C18.6397 19.0761 18.6785 18.9711 18.7608 18.8967C20.8895 16.8871 22.1097 14.0324 22.1097 11.0508C22.1097 5.22329 17.5104 0.481607 11.8596 0.481607H2.30183C1.05573 0.481607 0 1.5718 0 2.8634V37.1365C0 38.4281 1.0514 39.5184 2.29751 39.5184H11.8553C17.8868 39.5184 22.7933 34.4352 22.7933 28.1873C22.7933 24.8643 21.292 21.6068 18.7737 19.4703ZM4.59934 5.62609C4.59934 5.41593 4.76375 5.24519 4.96711 5.24519H11.8596C14.6807 5.24519 17.0864 7.42995 17.4584 10.324C17.4844 10.5385 17.4584 11.0508 17.4584 11.0508C17.4584 14.2776 14.9445 16.9045 11.8553 16.9045H4.96279C4.75943 16.9045 4.595 16.7337 4.595 16.5236V5.62609H4.59934ZM11.8596 34.7548H4.96711C4.76375 34.7548 4.59934 34.584 4.59934 34.3739V22.0491C4.59934 21.8389 4.76375 21.6681 4.96711 21.6681H11.8596C15.3556 21.6681 18.1983 24.6147 18.1983 28.2356C18.1983 31.8564 15.3556 34.7548 11.8596 34.7548ZM36.5048 10.7137C31.0574 10.7137 26.6225 15.3065 26.6225 20.9501V29.7548C26.6225 35.3021 31.3559 39.9912 36.9635 39.9912C40.0139 39.9912 42.7916 38.8485 44.5914 36.8476C44.9636 36.4624 45.1496 36.1515 45.1669 36.1208C45.1713 36.1077 45.18 36.0989 45.1886 36.0859C45.5045 35.6217 45.6472 35.1839 45.6472 34.7023C45.6472 33.4544 44.5093 32.3205 43.2545 32.3205C42.5363 32.3205 41.9046 32.6927 41.4287 33.3932C41.4157 33.4107 41.4026 33.4239 41.3897 33.4413C40.2604 34.6409 38.811 35.2276 36.9547 35.2276C33.952 35.2276 31.2132 32.6183 31.2132 29.7548V27.0447C31.2132 26.8345 31.3776 26.6637 31.581 26.6637H44.0766C45.3227 26.6637 46.3784 25.5736 46.3784 24.282V20.9501C46.3784 15.3065 41.9435 10.7137 36.4961 10.7137H36.5048ZM41.7878 21.5192C41.7878 21.7295 41.6233 21.9001 41.4199 21.9001H31.5896C31.3863 21.9001 31.2219 21.7295 31.2219 21.5192V20.9501C31.2219 17.8809 33.541 15.4772 36.5048 15.4772C39.4687 15.4772 41.7878 17.8809 41.7878 20.9501V21.5192ZM53.5305 0.481607C52.3883 0.481607 51.2287 1.30035 51.2287 2.8634L51.2373 39.5184H55.8108L55.8281 2.8634C55.8281 1.30035 54.6728 0.481607 53.5305 0.481607ZM72.1702 0.00437588C67.6618 0.00437588 64.2652 3.30123 64.2652 7.67076V10.81C64.2652 11.0201 64.1008 11.1909 63.8975 11.1909H61.8725C60.3624 11.1909 59.5751 12.3905 59.5751 13.5727C59.5751 14.7548 60.3624 15.9545 61.8725 15.9545H63.8975C64.1008 15.9545 64.2652 16.1252 64.2652 16.3353V39.5359H68.8646V16.3353C68.8646 16.1252 69.029 15.9545 69.2324 15.9545H74.8355C76.3455 15.9545 77.1373 14.7548 77.1373 13.5727C77.1373 12.3905 76.3455 11.1909 74.8355 11.1909H69.2324C69.029 11.1909 68.8646 11.0201 68.8646 10.81V7.67076C68.8646 6.22592 69.8857 4.76795 72.1702 4.76795C73.2043 4.76795 74.0783 5.22767 74.4202 5.43345C74.8571 5.72241 75.3114 5.86252 75.8003 5.86252C76.9037 5.86252 77.7344 4.89931 77.7344 3.62084C77.7344 1.81699 76.0167 0 72.1746 0L72.1702 0.00437588ZM108.762 11.1909C107.619 11.1909 106.464 12.0096 106.464 13.5727V29.7592C106.464 32.8284 104.145 35.232 101.181 35.232C98.2172 35.232 95.8981 32.8284 95.8981 29.7592V13.5727C95.8981 12.0096 94.7428 11.1909 93.6006 11.1909C92.4583 11.1909 91.303 12.0096 91.303 13.5727V29.7592C91.303 35.4028 95.7337 39.9956 101.181 39.9956C106.628 39.9956 111.063 35.4028 111.063 29.7592V13.5727C111.063 12.0096 109.908 11.1909 108.762 11.1909ZM124.905 22.4693C122.326 21.4185 120.098 20.5079 120.098 18.4764C120.098 16.6549 121.577 15.4816 123.862 15.4816C125.372 15.4816 126.57 16.0901 127.743 17.4519C127.756 17.4693 127.773 17.4868 127.782 17.5088C128.202 18.2268 128.846 18.6208 129.603 18.6208C130.902 18.6208 131.996 17.5307 131.996 16.2391C131.996 15.7312 131.875 15.2845 131.628 14.9037C130.084 12.4387 126.891 10.7137 123.862 10.7137C119.704 10.7137 115.498 13.38 115.498 18.4764C115.498 23.5727 119.704 25.416 123.083 26.7864C125.822 27.894 128.405 28.9361 128.405 31.5236C128.405 33.3669 126.735 35.232 123.537 35.232C121.923 35.232 120.509 34.6848 119.652 33.7347C119.639 33.7216 119.626 33.704 119.617 33.6909L119.539 33.5727C119.068 32.9072 118.397 32.5263 117.701 32.5263C116.45 32.5263 115.308 33.6603 115.308 34.908C115.308 35.4072 115.459 35.8844 115.767 36.3353C117.316 38.7435 120.846 40 123.533 40C128.124 40 133 37.0315 133 31.5236C133 26.0157 128.509 23.9448 124.896 22.4737L124.905 22.4693Z" fill="white"/>
</svg>
