<svg width="229" height="40" viewBox="0 0 229 40" fill="none" xmlns="http://www.w3.org/2000/svg">
<path d="M48.032 9.38196C39.325 9.38196 33.1057 15.4099 33.1057 24.4039C33.1057 33.4936 39.8991 40 48.9888 40C55.3995 40 58.844 36.8425 60.2792 35.6943C60.8533 35.3116 61.0447 34.6418 61.0447 34.0677C61.0447 32.7282 59.8008 31.58 58.7483 31.58C57.9829 31.58 57.5044 32.1541 56.6433 32.7282C55.3038 33.8764 53.4858 35.4073 49.0845 35.4073C42.6738 35.4073 38.1768 30.7189 38.1768 24.4039C38.1768 18.089 42.0041 13.9747 48.032 13.9747C53.6772 13.9747 56.5476 16.9408 56.6433 21.4378H42.2911C40.7602 21.4378 39.9948 22.586 39.9948 23.7341C39.9948 24.978 40.7602 26.1262 42.2911 26.1262H59.2267C60.8533 26.1262 61.7144 25.3607 61.7144 23.9255V21.8205C61.7144 14.4531 55.9735 9.38196 48.032 9.38196ZM17.0313 9.38196C14.7349 9.38196 9.66381 10.1474 9.66381 12.8265C9.66381 14.166 10.5249 15.1228 11.8645 15.1228C12.2472 15.1228 12.4386 15.0272 12.8213 14.9315C14.3522 14.3574 15.596 13.879 16.9356 13.879C21.624 13.879 24.5901 18.376 24.5901 24.5953C24.5901 31.58 20.4758 35.3116 15.9788 35.3116C13.6824 35.3116 11.0033 34.0677 8.99404 32.0584V2.30154C8.99404 1.15337 8.22859 0.00519311 6.69769 0.00519311H2.29635C0.76545 -0.0904881 0 1.15337 0 2.30154C0 3.5454 0.76545 4.69357 2.29635 4.69357H4.01861V37.4166C4.01861 38.8518 5.26247 39.6172 6.50633 39.6172C7.6545 39.6172 8.80268 38.9475 8.99404 37.7993C11.2904 39.2345 13.8738 40 16.3615 40C23.3462 40 29.6612 33.8764 29.6612 24.691C29.5655 13.6876 23.729 9.38196 17.0313 9.38196ZM196.816 34.7375H194.998V19.2371C194.998 12.4438 190.119 9.38196 184.952 9.38196C181.89 9.38196 178.541 10.6258 176.436 12.7308V12.5394C176.436 11.3913 175.671 10.1474 174.14 10.1474H170.121C168.59 10.1474 167.825 11.3913 167.825 12.5394C167.825 13.7833 168.59 14.9315 170.121 14.9315H171.844V37.5122C171.844 38.9475 173.087 39.7129 174.331 39.7129C175.575 39.7129 176.819 38.9475 176.819 37.5122V17.7062C178.254 15.5056 181.507 13.9747 184.282 13.9747C187.248 13.9747 190.119 15.6012 190.119 19.5242V37.0338C190.119 38.2777 190.884 39.4259 192.415 39.4259H196.816C198.347 39.4259 199.113 38.2777 199.113 37.0338C199.017 35.8857 198.347 34.7375 196.816 34.7375ZM225.712 34.7375H223.894L217.292 23.2557L225.712 12.1567C225.999 11.774 226.191 11.1999 226.191 10.7215C226.191 9.47764 225.138 8.32946 223.798 8.32946C223.033 8.32946 222.268 8.71219 221.885 9.28628L214.709 19.0458C214.23 19.6199 213.752 19.8112 212.604 19.8112H208.107V2.30154C208.107 1.15337 207.341 0.00519311 205.906 0.00519311H201.409C199.878 0.00519311 199.208 1.15337 199.208 2.30154C199.208 3.5454 199.878 4.69357 201.409 4.69357H203.227V37.4166C203.227 38.8518 204.471 39.6172 205.715 39.6172C206.959 39.6172 208.202 38.8518 208.202 37.4166V24.4996H212.699L219.876 37.1295C220.641 38.4691 221.311 39.4259 222.842 39.4259H225.808C227.339 39.4259 228.104 38.2777 228.104 37.0338C227.913 35.8857 227.243 34.7375 225.712 34.7375ZM123.237 9.38196C120.941 9.38196 115.87 10.1474 115.87 12.8265C115.87 14.166 116.731 15.1228 118.071 15.1228C118.453 15.1228 118.645 15.0272 119.027 14.9315C120.558 14.3574 121.802 13.879 123.142 13.879C127.83 13.879 130.796 18.376 130.796 24.5953C130.796 31.58 126.682 35.3116 122.185 35.3116C119.889 35.3116 117.21 34.0677 115.2 32.0584V2.30154C115.2 1.15337 114.435 0.00519311 112.904 0.00519311H108.503C106.972 0.00519311 106.206 1.15337 106.206 2.30154C106.206 3.5454 106.972 4.69357 108.503 4.69357H110.225V37.4166C110.225 38.8518 111.469 39.6172 112.713 39.6172C113.765 39.6172 115.009 38.9475 115.2 37.7993C117.497 39.2345 120.08 40 122.568 40C129.552 40 135.867 33.8764 135.867 24.691C135.867 13.6876 129.935 9.38196 123.237 9.38196ZM165.529 34.7375H163.806V21.0551C163.806 12.9222 160.17 9.38196 152.42 9.38196C146.201 9.38196 141.13 11.8697 141.13 17.2278C141.13 18.663 142.374 19.4285 143.522 19.4285C144.766 19.4285 146.01 18.663 146.01 17.2278C146.01 14.5487 148.976 13.9747 152.325 13.9747C156.248 13.9747 158.831 15.4099 158.831 21.0551V31.6757C157.3 33.0152 153.377 35.4073 149.454 35.4073C146.871 35.4073 144.383 34.5461 144.383 31.8671C144.383 27.37 149.358 27.1787 154.908 26.5089C156.343 26.3175 156.917 25.7435 156.822 24.1169C156.726 22.873 155.865 22.2032 154.43 22.2989C144.479 23.1601 139.216 25.7435 139.216 31.9627C139.216 37.4166 143.809 40 149.071 40C152.707 40 156.63 38.182 158.831 36.7468V37.1295C158.831 38.3734 159.596 39.5216 161.127 39.5216H165.433C166.964 39.5216 167.729 38.3734 167.729 37.1295C167.825 35.8857 167.06 34.7375 165.529 34.7375Z" fill="white"/>
<path d="M85.4447 0.674988C74.1543 0.674988 65.543 9.09494 65.543 20.481C65.543 31.8671 74.25 40 85.4447 40C96.6394 40 105.346 31.7714 105.346 20.481C105.346 17.2278 104.677 11.1042 101.136 11.1042C99.4141 11.1042 98.266 12.4438 98.266 13.9747C98.266 14.3574 98.3616 14.7401 98.4573 15.0272C99.2228 16.7494 99.5098 18.6631 99.5098 20.5767C99.5098 28.8053 93.2905 34.4505 85.349 34.4505C77.4074 34.4505 71.1882 28.8053 71.1882 20.5767C71.1882 12.3481 77.5031 6.41586 85.4447 6.41586C86.8799 6.41586 87.741 6.70291 88.5065 6.98995C88.9849 7.08563 89.2719 7.18131 89.846 7.18131C91.5683 7.18131 92.4294 5.7461 92.4294 4.21519C92.4294 1.53612 89.1762 0.674988 85.4447 0.674988Z" fill="white"/>
</svg>
