<svg width="194" height="40" viewBox="0 0 194 40" fill="none" xmlns="http://www.w3.org/2000/svg">
<path d="M40 0H0V40H40V0Z" fill="#017F50"/>
<path d="M31.1857 10.5207C28.7168 11.9744 27.9669 12.0898 25.2786 13.705C26.8477 12.009 27.3899 11.2937 28.3476 9.87458C25.8786 10.0015 22.2789 10.3015 19.7061 10.8668C21.9443 9.67844 26.3747 8.34012 28.7052 8.0286C28.163 7.27867 23.7788 4.90198 22.6828 4.44049C26.1554 4.70584 30.4013 6.00957 32.4665 7.26713C33.274 7.01332 34.1163 7.00177 35.6277 6.86333C35.2469 7.52096 35.2238 7.90169 33.7471 8.88237C34.1624 9.97841 33.1818 16.0009 32.3741 17.6046C32.3395 15.0779 32.1202 11.8937 31.1857 10.5091" fill="white"/>
<path d="M13.1073 32.1423C11.6883 31.6116 10.6729 31 9.54227 29.9501C9.87685 29.0157 10.2576 28.3002 10.8921 27.3658C9.7384 27.5388 8.88464 27.6658 7.89243 27.8619C7.08482 26.4428 6.71561 25.0814 6.30027 23.1777C6.08106 25.1968 6.00029 26.6274 6.27719 28.2311C5.36574 28.4849 4.71965 28.7041 3.96973 29.0387C5.01963 29.6847 5.87338 30.1809 7.03866 30.7231C7.67321 32.073 8.31931 32.9844 9.38075 34.0343C9.13846 33.146 9.06924 32.4422 9.17307 31.5077C10.4883 31.8884 11.6074 32.0961 13.0958 32.1308" fill="white"/>
<path d="M16.7988 12.1014C16.3603 12.6783 15.8411 13.7397 15.7028 14.2358C19.36 14.7319 22.2905 16.6126 22.2905 16.6126C19.0947 16.0472 17.4102 16.1164 16.2218 16.2203C15.0336 16.3356 14.7912 16.4741 14.7912 16.4741C13.9259 18.3662 13.4067 21.6082 13.4067 21.6082C12.8299 20.2006 11.9876 17.397 11.9876 17.397C10.3724 18.2624 6.66895 21.7466 6.66895 21.7466C8.71106 17.6625 10.7763 15.8049 10.7763 15.8049C10.0609 15.0781 8.19187 14.7204 6.83047 14.6628C7.53425 14.3743 9.35715 14.0397 10.7532 13.9705C12.1492 13.9359 13.003 14.0051 13.003 14.0051C14.249 13.0244 16.1411 12.1938 16.7988 12.0899" fill="white"/>
<path d="M20.675 29.6153C20.0289 30.4921 19.4751 31.1729 18.7598 31.9805C17.5253 32.3266 16.5446 32.4536 15.3447 32.4536C16.0832 32.8343 16.7985 33.065 17.5599 33.2265C16.787 33.9188 16.1408 34.4149 15.3908 34.888C16.637 34.588 18.2868 34.0573 19.5097 33.3419C20.1443 33.365 20.7442 33.3304 21.1827 33.2381C21.0673 32.8689 20.9981 32.5919 20.9057 32.1075C22.0595 31.2191 22.8901 30.4114 23.8478 29.4307C22.8325 30.146 21.9441 30.6767 20.7673 31.2306C20.7211 30.6884 20.6866 30.2268 20.6635 29.6153" fill="white"/>
<path d="M50.0266 6.12487C50.1305 7.59012 50.2112 11.2705 50.2112 12.6204C50.2112 13.8549 50.1997 17.9968 50.0035 19.785L49.9805 19.935H56.4645C59.6257 19.935 63.0177 18.9314 63.0177 16.1163C63.0177 14.3394 61.737 13.0357 59.3372 12.3204C61.0909 11.8589 62.2908 10.6244 62.2908 9.22842C62.2908 6.93248 59.6372 6.05564 57.1567 5.99796H50.0035V6.1364L50.0266 6.12487ZM55.0339 7.54396C57.7451 7.54396 58.7489 8.10929 58.7489 9.58607C58.7489 9.97834 58.6335 10.3245 58.3912 10.6129C57.872 11.2359 56.8452 11.5475 55.5646 11.4897H55.5068L54.7569 13.451H55.5068C56.9952 13.4049 58.2989 13.878 58.9565 14.6855C59.2681 15.0664 59.4181 15.4932 59.4181 15.9432C59.4181 17.5006 58.0682 18.2852 55.3915 18.2852C54.9415 18.2852 54.2147 18.2852 53.7531 18.2506C53.6609 16.2085 53.6494 13.428 53.6494 12.6089C53.6494 11.6397 53.6955 9.45916 53.7531 7.61319C54.0531 7.55549 54.5608 7.52088 55.0339 7.52088" fill="white"/>
<path d="M77.9693 5.98573H74.8196L74.9466 9.4931C75.0042 11.2468 75.0619 13.0351 75.1773 14.7541C74.9581 14.2234 74.785 13.935 73.8504 12.5505C73.8158 12.5044 70.5507 7.45098 69.4086 6.02034L69.374 5.98573H65.7051V6.12418C65.8204 7.58943 65.9012 11.2699 65.9012 12.6197C65.9012 13.8542 65.9012 17.9961 65.7051 19.7959V19.9459H68.9471V19.8075C68.7509 16.3925 68.7509 12.9543 68.7509 9.63155C68.8663 10.0238 69.0163 10.3815 69.5355 11.1429C69.5932 11.2237 75.1888 19.3922 75.4656 19.8883L75.5003 19.9459H78.1193L78.0963 19.7959C77.9117 18.0077 77.8885 13.8542 77.8885 12.6197C77.8885 11.2584 77.9693 7.57789 78.0731 6.12418V5.98573H77.9693Z" fill="white"/>
<path d="M81.7652 6.1132C81.8691 7.58998 81.9498 11.2589 81.9498 12.6202C81.9498 13.8547 81.9383 17.9967 81.7422 19.7849V19.9234H85.6187V19.7849C85.4687 18.5043 85.4226 16.0584 85.3995 14.1663C85.5611 14.1663 86.1148 14.2009 86.1148 14.2009L86.6571 14.2239C91.7681 14.2239 94.2602 12.8511 94.2602 10.0244C94.2602 6.79391 90.776 6.04398 87.857 5.97475H81.7652V6.1132ZM86.5186 7.65921C88.3301 7.62459 89.6107 8.00533 90.2221 8.75526C90.499 9.10137 90.6375 9.52826 90.6375 10.0244C90.6375 12.0434 88.3762 12.4702 86.484 12.4702L85.7111 12.4472C85.7111 12.4472 85.5265 12.4241 85.3995 12.4011C85.3995 11.9395 85.388 11.3396 85.388 10.6358C85.388 9.74746 85.3995 8.72063 85.4341 7.7515C85.6764 7.70536 86.1033 7.67075 86.5186 7.65921Z" fill="white"/>
<path d="M101.668 6.1132C101.771 7.58998 101.852 11.2589 101.852 12.6202C101.852 13.8547 101.841 17.9967 101.645 19.7849V19.9234H105.521L105.498 19.7849C105.371 18.5043 105.313 16.0584 105.302 14.1663C105.463 14.1663 106.006 14.2009 106.006 14.2009L106.559 14.2239C111.67 14.2239 114.162 12.8511 114.162 10.0244C114.162 6.79391 110.678 6.04398 107.748 5.97475H101.656V6.1132H101.668ZM106.432 7.65921C108.255 7.62459 109.525 8.00533 110.147 8.75526C110.424 9.10137 110.563 9.52826 110.563 10.0244C110.563 12.0434 108.302 12.4702 106.398 12.4702L105.625 12.4472C105.625 12.4472 105.44 12.4241 105.325 12.4011C105.313 11.9395 105.302 11.3281 105.302 10.6243C105.302 9.73592 105.325 8.72063 105.36 7.7515C105.602 7.70536 106.017 7.67075 106.432 7.65921Z" fill="white"/>
<path d="M119.377 5.98628H119.308L119.285 6.05551C118.558 8.03994 113.92 18.1813 113.193 19.7388L113.101 19.9234H116.435L116.458 19.8427C116.746 18.885 117.116 17.8121 117.566 16.6468C117.681 16.6468 120.311 16.6007 120.311 16.6007L122.584 16.6237C122.584 16.6237 122.988 16.6352 123.08 16.6352C123.68 18.1351 124.13 19.2773 124.327 19.8427L124.349 19.9234H128.203L121.996 5.97475H119.388L119.377 5.98628ZM120.311 10.0936C120.623 10.7512 121.419 12.6202 122.319 14.8239C122.18 14.8239 122.019 14.8239 122.019 14.8239L120.311 14.847C120.311 14.847 118.546 14.8124 118.269 14.8124C118.996 13.0472 119.7 11.4435 120.311 10.0936Z" fill="white"/>
<path d="M129.727 6.1132C129.831 7.57844 129.912 11.2589 129.912 12.6087C129.912 13.8432 129.899 17.9851 129.703 19.7734V19.9234H133.569V19.7734C133.362 17.9736 133.349 13.8317 133.349 12.5972C133.349 11.6281 133.395 9.44749 133.465 7.72843C133.788 7.69382 134.215 7.64766 134.515 7.64766C136.326 7.61305 137.619 7.99379 138.219 8.74372C138.495 9.08984 138.645 9.50518 138.645 10.0128C138.645 11.6166 137.122 12.4356 135.726 12.5165C135.265 12.5395 134.906 12.4702 134.906 12.4702L134.641 12.4241L134.815 12.678C136.176 14.697 138.241 18.2043 139.118 19.8658L139.152 19.9234H143.318L143.191 19.7158C143.052 19.4849 140.318 15.4931 139.165 13.7855C139.165 13.7855 139.118 13.7279 139.095 13.6817C141.206 13.0472 142.256 11.8473 142.256 10.0128C142.256 6.78237 138.761 6.03244 135.841 5.97475H129.749L129.762 6.10166L129.727 6.1132Z" fill="white"/>
<path d="M148.81 5.97475H145.083V6.1132C145.21 7.58998 145.279 11.2704 145.279 12.6202C145.279 13.8547 145.268 17.9967 145.071 19.7849V19.9234H148.936V19.7849C148.728 17.9851 148.717 13.8432 148.717 12.6202C148.717 11.2704 148.797 7.58998 148.901 6.1132V5.97475H148.81Z" fill="white"/>
<path d="M152.443 6.12418C152.547 7.58943 152.628 11.2699 152.628 12.6197C152.628 13.8542 152.617 17.9961 152.421 19.7844V19.9344H158.893C162.066 19.9344 165.446 18.9306 165.446 16.104C165.446 14.3272 164.166 13.0236 161.766 12.3083C163.531 11.8467 164.731 10.6122 164.731 9.2162C164.731 6.92026 162.089 6.04343 159.596 5.98573H152.443L152.455 6.12418H152.443ZM157.45 7.54328C160.15 7.54328 161.166 8.10861 161.166 9.58539C161.166 9.97766 161.039 10.3238 160.796 10.6122C160.289 11.2352 159.25 11.5467 157.97 11.4891H157.9L157.163 13.4504H157.924C159.424 13.4043 160.704 13.8774 161.374 14.6849C161.685 15.0656 161.835 15.4926 161.835 15.9425C161.835 17.5 160.485 18.2846 157.82 18.2846C157.37 18.2846 156.632 18.2846 156.171 18.2499C156.078 16.2079 156.078 13.4274 156.078 12.6082C156.078 11.6276 156.124 9.45848 156.193 7.6125C156.482 7.55482 157 7.52021 157.463 7.52021" fill="white"/>
<path d="M174.987 5.97531H172.38L172.357 6.05606C171.595 8.1674 166.669 18.8625 166.265 19.7394L166.173 19.924H169.508L169.53 19.8432C169.819 18.8856 170.187 17.8126 170.626 16.6473C170.741 16.6473 173.372 16.6012 173.372 16.6012L175.644 16.6358C175.644 16.6358 176.037 16.6358 176.141 16.6358C176.741 18.1357 177.179 19.2663 177.376 19.8432L177.398 19.9124H181.251L175.045 5.96376H174.987V5.97531ZM173.383 10.0826C173.695 10.7402 174.491 12.6092 175.391 14.8014C175.252 14.8014 175.102 14.8129 175.102 14.8129L173.383 14.836C173.383 14.836 171.619 14.8014 171.341 14.8014C172.057 13.0247 172.772 11.4325 173.383 10.0826Z" fill="white"/>
<path d="M182.336 9.59815C182.336 12.0557 184.806 13.0478 186.986 13.9246C188.682 14.6054 190.424 15.3207 190.424 16.486C190.424 16.8436 190.343 17.1205 190.159 17.3398C189.756 17.8242 188.925 18.0205 187.61 17.9627C186.329 17.9051 184.864 17.4898 183.236 16.7282L182.556 16.4167V16.9589V19.4626L182.994 19.5549L183.26 19.6126C184.079 19.8087 185.625 20.1779 187.193 20.1779C191.289 20.1779 193.735 18.5512 193.735 15.8514C193.735 13.3363 191.209 12.3325 188.982 11.4441C187.332 10.7865 185.636 10.1058 185.636 9.04435C185.636 8.73285 185.636 7.79832 187.747 7.79832C189.317 7.79832 190.863 8.44441 191.693 8.77899L192.489 9.11357V8.58286V6.04464L191.693 5.90619C190.909 5.75621 189.582 5.50238 188.21 5.50238C184.69 5.50238 182.325 7.15222 182.325 9.59815" fill="white"/>
<path d="M49.9912 34.357C50.1412 32.7302 50.1412 29.6844 50.1412 28.7729C50.1412 27.7692 50.1066 24.8963 50.0258 23.6964H58.2173V25.4386C56.9944 25.3001 55.8753 25.3001 54.9639 25.3001C54.71 25.3001 53.487 25.3001 53.187 25.3233C53.1524 25.8423 53.1294 26.6039 53.1294 27.2615C53.1294 27.6307 53.1294 27.9538 53.1524 28.2306L56.6021 28.1499V29.8112H53.1524C53.1755 31.3227 53.1755 33.1801 53.3486 34.3454H50.0027L49.9912 34.357Z" fill="white"/>
<path d="M58.4141 29.0498C58.4141 25.681 60.86 23.4658 64.125 23.4658C67.3901 23.4658 69.8245 25.6694 69.8245 29.0498C69.8245 32.4304 67.367 34.5878 64.125 34.5878C60.883 34.5878 58.4141 32.3841 58.4141 29.0498ZM66.6863 29.0498C66.6863 26.3039 65.6941 24.8272 64.125 24.8272C62.5559 24.8272 61.506 26.3039 61.506 29.0498C61.506 31.7958 62.5098 33.1918 64.125 33.1918C65.7402 33.1918 66.6863 31.7727 66.6863 29.0498Z" fill="white"/>
<path d="M71.1055 34.3577C71.2786 32.7654 71.3132 30.908 71.3132 28.7621C71.3132 26.9737 71.2901 24.7932 71.1401 23.7087H75.9511C78.2355 23.7087 80.9699 24.5394 80.9699 27.0199C80.9699 28.3582 79.8854 29.4774 78.4548 29.8927C78.8471 30.608 81.2815 33.8038 81.8122 34.3692H78.3279C77.451 32.8347 76.0435 30.3195 75.0743 29.0158C75.2936 29.0504 75.5243 29.0967 75.755 29.0967C76.9203 29.0967 77.9818 28.4736 77.9818 27.0084C77.9818 25.5431 76.4703 25.2085 75.1321 25.2085C74.8551 25.2085 74.6244 25.2085 74.3937 25.2317C74.3359 26.5238 74.3129 28.0814 74.3129 28.7736C74.3129 29.7081 74.3129 32.7424 74.4859 34.3692H71.117L71.1055 34.3577Z" fill="white"/>
<path d="M84.9155 34.3577C85.0886 32.7309 85.1232 29.6735 85.1232 28.7621C85.1232 27.6544 85.1001 26.4315 85.0424 25.2778C83.8426 25.2778 82.6542 25.37 81.5928 25.5085V23.7087H91.5495V25.5316C90.5227 25.3585 89.2305 25.2778 88.1575 25.2778C88.0768 26.3969 88.0652 28.0814 88.0652 28.7621C88.0652 29.6735 88.0883 32.7309 88.2729 34.3577H84.904H84.9155Z" fill="white"/>
<path d="M92.541 34.357C92.7371 32.7302 92.7486 29.6844 92.7486 28.7729C92.7486 27.7692 92.6679 24.8963 92.5986 23.6964H95.8753C95.7946 24.8963 95.7368 27.746 95.7368 28.7729C95.7368 29.719 95.7368 32.9033 95.8753 34.357H92.541Z" fill="white"/>
<path d="M97.606 33.9873V31.4722C99.2905 32.3029 100.49 32.7874 101.679 32.7874C102.867 32.7874 103.502 32.3259 103.502 31.6105C103.502 29.8223 97.4561 29.9838 97.4561 26.5342C97.4561 24.6305 99.2559 23.4767 101.956 23.4767C103.444 23.4767 104.69 23.6844 105.486 23.9267V26.4995C104.667 25.842 103.04 25.3343 101.829 25.3343C100.998 25.3343 100.375 25.5881 100.375 26.1881C100.375 28.0109 106.444 28.1033 106.444 31.3568C106.444 33.445 104.528 34.5873 101.333 34.5873C99.8788 34.5873 98.5406 34.3103 97.6292 33.9873" fill="white"/>
</svg>
