<svg width="139" height="40" viewBox="0 0 139 40" fill="none" xmlns="http://www.w3.org/2000/svg">
<path d="M57.6817 39.9983C56.063 39.9983 54.5739 39.5941 53.2155 38.7848C51.8561 37.9755 50.7878 36.8821 50.0112 35.5042C49.2339 34.1265 48.8457 32.6393 48.8457 31.043C48.8457 29.4467 49.2452 27.893 50.0429 26.5161C50.8413 25.1382 51.9201 24.0504 53.2795 23.2519C54.6396 22.454 56.1067 22.0548 57.6817 22.0548C59.5151 22.0548 61.1606 22.5749 62.6172 23.6125C64.0737 24.651 65.1258 26.0239 65.7728 27.7296L61.9217 28.8124C61.5545 27.9382 60.9936 27.2324 60.239 26.6959C59.4836 26.1603 58.6316 25.8924 57.6824 25.8924C56.7332 25.8924 55.9503 26.1282 55.2069 26.5973C54.4629 27.0681 53.8744 27.6967 53.4432 28.4838C53.0112 29.2717 52.7956 30.1244 52.7956 31.043C52.7956 31.9615 53.0112 32.8144 53.4432 33.6023C53.8744 34.3893 54.4629 35.0121 55.2069 35.4722C55.9511 35.9314 56.7771 36.1606 57.6824 36.1606C58.6527 36.1606 59.5111 35.8936 60.2551 35.3571C60.9993 34.8214 61.5545 34.1272 61.9217 33.2736L65.7728 34.3556C65.125 36.0399 64.0786 37.4013 62.6334 38.4406C61.1882 39.4791 59.537 39.9983 57.6817 39.9983ZM67.1961 22.3497H71.4037V24.941C71.9419 23.9576 72.7516 23.2083 73.8305 22.694C74.6638 22.2971 75.7183 22.0613 76.8483 22.1148C77.0582 23.3924 77.6466 26.5448 77.6466 26.5448C76.5411 26.3501 75.7289 26.4002 74.7367 26.6302C73.7446 26.8603 72.9405 27.3515 72.3262 28.1067C71.7109 28.8609 71.4037 29.786 71.4037 30.8787V39.7355H67.1961V22.3497ZM86.3878 39.9983C84.7691 39.9983 83.2801 39.5941 81.9216 38.7848C80.5623 37.9755 79.494 36.8821 78.7175 35.5042C77.9401 34.1265 77.5518 32.6393 77.5518 31.043C77.5518 29.4467 77.9515 27.893 78.749 26.5161C79.5475 25.1382 80.6264 24.0504 81.9856 23.2519C83.3458 22.454 84.8129 22.0548 86.3878 22.0548C87.7901 22.0548 89.1008 22.372 90.3199 23.0062C91.5381 23.6405 92.5643 24.5155 93.3943 25.6304C94.2244 26.7453 94.7699 27.9818 95.0284 29.3373C95.2651 30.4966 95.2765 31.5902 95.0609 32.6179H81.7262C81.8771 33.3837 82.1737 34.0393 82.6171 34.5865C83.0588 35.1329 83.6084 35.5437 84.2673 35.8164C84.9248 36.09 85.6315 36.2264 86.387 36.2264C87.2065 36.2264 88.0106 36.0678 88.7985 35.7515C89.5855 35.4344 90.2494 34.9916 90.7884 34.423L94.4781 35.4401C93.7874 36.818 92.6762 37.923 91.1442 38.7536C89.6122 39.5842 88.026 40 86.387 40L86.3878 39.9983ZM90.9505 29.3702C90.7998 28.736 90.5136 28.1452 90.0937 27.5989C89.6723 27.0525 89.1437 26.6195 88.5075 26.3024C87.8704 25.9861 87.153 25.8275 86.3554 25.8275C85.5578 25.8275 84.8347 25.9861 84.1871 26.3024C83.5395 26.6195 83.0054 27.0525 82.5846 27.5989C82.1632 28.1452 81.8778 28.736 81.7271 29.3702H90.9505ZM96.8085 16.7728H100.984V39.7362H96.8085V16.7728ZM109.398 39.9983C107.736 39.9983 106.248 39.5777 104.932 38.7355C103.616 37.8934 102.957 36.4992 102.957 34.5528C102.957 33.3286 103.232 32.3172 103.783 31.5187C104.333 30.721 105.131 30.1302 106.178 29.7473C107.223 29.3645 108.46 29.1731 109.884 29.1731H114.933V28.2216C114.933 27.3475 114.588 26.7017 113.897 26.2868C113.206 25.8719 112.3 25.6632 111.179 25.6632C110.229 25.6632 109.415 25.8226 108.736 26.1389C108.055 26.456 107.608 26.9975 107.392 27.7632L103.379 27.796C103.401 26.6368 103.756 25.6254 104.448 24.7611C105.137 23.8968 106.066 23.2305 107.231 22.7597C108.396 22.2906 109.679 22.0548 111.082 22.0548C112.484 22.0548 113.751 22.2906 114.949 22.7597C116.146 23.2305 117.106 23.8919 117.829 24.7447C118.553 25.5975 118.914 26.5933 118.914 27.7296V39.7362H114.933V37.5714C114.48 38.1842 113.768 38.7421 112.797 39.2441C111.826 39.7478 110.692 39.9983 109.398 39.9983ZM109.754 36.5206C110.595 36.5206 111.416 36.3233 112.214 35.9306C113.012 35.5371 113.665 35.0112 114.172 34.3556C114.679 33.6992 114.933 32.9778 114.933 32.1907H110.66C109.841 32.1907 109.16 32.3 108.622 32.5186C108.082 32.7371 107.687 33.0329 107.439 33.4042C107.192 33.7756 107.1 34.2029 107.165 34.6834C107.229 35.34 107.511 35.8099 108.007 36.0942C108.503 36.3784 109.085 36.5206 109.754 36.5206ZM121.923 22.3497H126.131V24.3183C126.713 23.6182 127.436 23.0669 128.299 22.6611C129.161 22.2569 130.133 22.0548 131.212 22.0548C132.464 22.0548 133.639 22.3333 134.739 22.8912C135.839 23.449 136.719 24.2583 137.377 25.3189C138.035 26.3796 138.364 27.6104 138.364 29.0095V39.7362H134.158V30.1245C134.158 29.2938 133.99 28.5658 133.656 27.9431C133.321 27.3203 132.863 26.8447 132.281 26.5161C131.698 26.1882 131.061 26.0239 130.371 26.0239C129.53 26.0239 128.79 26.2325 128.154 26.6475C127.517 27.0632 127.021 27.6309 126.666 28.3531C126.31 29.0744 126.131 29.8837 126.131 30.7809V39.7362H121.924L121.923 22.3497Z" fill="white"/>
<path d="M41.6602 0.988128C40.814 4.13564 39.5357 7.06954 37.9041 9.7011C32.9806 17.6451 24.8393 22.8367 15.6281 22.8367C12.3639 22.8367 9.23435 22.1844 6.33496 20.9889L7.52973 25.5241L9.44915 32.8083C12.6315 33.993 16.0301 34.6355 19.5618 34.6355C32.3923 34.6355 43.4807 26.1789 48.734 13.9125L41.6594 0.987305L41.6602 0.988128Z" fill="#C3D100"/>
<path d="M37.9037 9.70134L32.5937 0C31.9866 2.21172 30.9725 4.35935 29.6059 6.30652C26.097 11.3051 20.2617 14.9743 13.0072 14.9743C10.7943 14.9743 8.60092 14.7105 6.53883 14.1436C4.11767 13.4782 1.87727 12.3953 0 10.8261L3.42545 23.8261C4.48243 24.3939 5.86363 25.0043 7.53015 25.5252C9.90106 26.2662 12.8483 26.8265 16.2632 26.8265C25.6836 26.8265 34.5293 21.0475 39.7615 13.0945L37.9045 9.70216L37.9037 9.70134Z" fill="#88BC1F"/>
<path d="M29.6053 6.30554L26.6589 0.921661C24.412 6.07056 20.8812 9.76115 14.0594 9.76115C10.3755 9.76115 6.17672 8.1763 4.61719 6.85436L6.53742 14.1419L7.45092 17.609C9.62648 18.2983 11.9204 18.668 14.2905 18.668C21.9487 18.668 28.6043 14.4746 31.2889 9.38158L29.6053 6.30554Z" fill="#019544"/>
<path d="M39.7611 13.0931L37.9041 9.70078C32.9807 17.6448 24.8393 22.8363 15.6281 22.8363C12.3639 22.8363 9.23435 22.1841 6.33496 20.9886L7.52973 25.5238C9.90064 26.2649 12.8478 26.8252 16.2627 26.8252C25.6832 26.8252 34.5289 21.0461 39.7611 13.0931Z" fill="#7FAD00"/>
<path d="M41.6598 0.988128C40.8135 4.13564 39.5353 7.06954 37.9036 9.7011L39.7607 13.0934C34.5292 21.0465 25.6835 26.8255 16.2623 26.8255C12.8474 26.8255 9.9002 26.2652 7.5293 25.5241L9.44872 32.8083C12.631 33.993 16.0297 34.6355 19.5614 34.6355C32.3918 34.6355 43.4803 26.1789 48.7336 13.9125L41.659 0.987305L41.6598 0.988128Z" fill="#C4D600"/>
<path d="M29.6053 6.30554L26.6589 0.921661C24.412 6.07056 20.8812 9.76115 14.0594 9.76115C10.3755 9.76115 6.17672 8.1763 4.61719 6.85437L6.53742 14.1419C8.60031 14.7088 10.7937 14.9725 13.0058 14.9725C20.2602 14.9725 26.0955 11.3033 29.6045 6.30472L29.6053 6.30554Z" fill="#00AE53"/>
<path d="M14.2903 18.6688C21.9486 18.6688 28.6041 14.4754 31.2887 9.38236L29.6052 6.30634C26.0963 11.3049 20.261 14.9741 13.0064 14.9741C10.7935 14.9741 8.60016 14.7104 6.53809 14.1434L7.45159 17.6105C9.62715 18.2999 11.921 18.6696 14.2911 18.6696L14.2903 18.6688Z" fill="#009644"/>
<path d="M32.5945 0C31.9874 2.21172 30.9733 4.35935 29.6067 6.30653L31.2902 9.38256C28.6057 14.4756 21.9501 18.669 14.2919 18.669C11.9219 18.669 9.62871 18.2993 7.45234 17.6099L6.53883 14.1428C4.11767 13.4774 1.87727 12.3945 0 10.8253L3.42545 23.8253C4.48243 24.393 5.86363 25.0034 7.53015 25.5243L6.33538 20.9892C9.23558 22.1846 12.3652 22.837 15.6285 22.837C24.8398 22.837 32.9811 17.6453 37.9045 9.70134L32.5945 0Z" fill="#84BD00"/>
</svg>
