<svg width="52" height="40" viewBox="0 0 52 40" fill="none" xmlns="http://www.w3.org/2000/svg">
<path d="M25.9358 17.7074C30.8255 17.7074 34.7895 13.7435 34.7895 8.85372C34.7895 3.96395 30.8255 0 25.9358 0C21.046 0 17.082 3.96395 17.082 8.85372C17.082 13.7435 21.046 17.7074 25.9358 17.7074Z" fill="white"/>
<path d="M32.4643 16.0188C30.7777 17.8477 27.8031 19.6765 23.9872 19.6765C21.0266 19.6765 18.4766 18.5247 16.8541 17.2467C7.18914 18.2603 0 19.6985 0 19.6985V23.6126L51.2775 23.6066V15.5361C51.2775 15.5361 42.4919 15.482 32.4643 16.0188Z" fill="white"/>
<path d="M6.09339 35.0563V39.8257H0.00195312V27.1381H6.09339V32.8469H6.12945L9.71501 27.1381H17.0183L11.67 33.6962L16.7179 39.8257H9.74706L6.13746 35.0563H6.09339Z" fill="white"/>
<path d="M51.2815 39.3009C49.8433 39.7396 47.9543 40 46.2637 40C40.2384 40 35.8115 38.2873 35.8115 33.3056C35.8115 28.8026 40.1002 26.8476 45.9633 26.8476C47.5918 26.8476 49.663 27.0279 51.2815 27.5447V31.9055C50.0796 31.1783 48.8798 30.7256 47.1611 30.7256C44.9236 30.7256 42.6902 31.8273 42.6902 33.4258C42.6902 35.0243 44.9156 36.126 47.1611 36.126C48.8517 36.126 50.0796 35.6573 51.2795 34.9642V39.3029H51.2815V39.3009Z" fill="white"/>
<path d="M18.0156 27.1381H30.3307C33.5297 27.1381 34.5773 28.382 34.5773 30.319C34.5773 32.4863 32.6403 33.4278 30.6492 33.536V33.572C32.6924 33.7323 34.6835 33.9626 34.6835 36.5206C34.6835 38.1912 33.6358 39.8257 30.1184 39.8257H18.0176V27.1381H18.0156ZM24.1071 37.2457H27.284C28.4758 37.2457 28.8805 36.753 28.8805 36.0238C28.8805 35.2947 28.4718 34.7719 27.298 34.7719H24.1091V37.2457H24.1071ZM24.1071 32.5144H27.1418C28.3136 32.5144 28.7743 32.0397 28.7743 31.3105C28.7743 30.4752 28.3116 30.0586 27.2279 30.0586H24.1091V32.5144H24.1071Z" fill="white"/>
</svg>
