<svg width="168" height="40" viewBox="0 0 168 40" fill="none" xmlns="http://www.w3.org/2000/svg">
<path d="M95.0714 13.2067H92.629C92.5386 13.2067 92.4481 13.2971 92.3577 13.3876L90.5486 16.3727L86.7494 9.85979C86.6589 9.76933 86.5685 9.67887 86.478 9.67887H83.4929C83.4025 9.67887 83.2216 9.76933 83.2216 9.85979C83.1311 9.95024 83.1311 10.1312 83.2216 10.2216L88.5585 19.3577V26.0515C88.5585 26.2324 88.7394 26.4133 88.9203 26.4133H91.5436C91.7245 26.4133 91.9054 26.2324 91.9054 26.0515V19.5386L95.4332 13.7494C95.5237 13.659 95.5237 13.478 95.4332 13.3876C95.3427 13.2971 95.2523 13.2067 95.0714 13.2067ZM107.645 9.58842H94.8C94.7095 9.58842 94.6191 9.67887 94.5286 9.76933L93.3527 11.7594C93.2622 11.8498 93.2622 12.0307 93.3527 12.1212C93.4432 12.2117 93.5336 12.3021 93.6241 12.3021H98.7801V26.0515C98.7801 26.2324 98.961 26.4133 99.1419 26.4133H101.765C101.946 26.4133 102.127 26.2324 102.127 26.0515V12.2117H106.921C107.012 12.2117 107.193 12.1212 107.193 12.0307L108.007 10.0407V9.76933C107.826 9.67887 107.735 9.58842 107.645 9.58842ZM70.1054 25.6897L62.0547 17.5486L69.3817 10.1312C69.4722 10.0407 69.4722 9.85979 69.4722 9.76933C69.3817 9.67887 69.2913 9.58842 69.2008 9.58842H65.9444C65.8539 9.58842 65.7635 9.58842 65.673 9.67887L58.6174 17.3677V9.85979C58.6174 9.67887 58.4365 9.49796 58.2556 9.49796H55.6323C55.4514 9.49796 55.2705 9.67887 55.2705 9.85979V25.8706C55.2705 26.0515 55.4514 26.2324 55.6323 26.2324H58.2556C58.4365 26.2324 58.6174 26.0515 58.6174 25.8706V18.3627L66.0348 26.142C66.1253 26.2324 66.2157 26.2324 66.3062 26.2324H70.1054C70.2863 26.2324 70.4672 26.0515 70.4672 25.8706C70.2863 25.8706 70.1958 25.7801 70.1054 25.6897ZM152.511 11.6689C151.697 10.9453 150.702 10.3121 149.526 9.95024C148.35 9.58842 147.084 9.31705 145.637 9.31705C144.461 9.31705 143.466 9.4075 142.652 9.49796C141.837 9.58842 141.023 9.67887 140.3 9.85979C140.119 9.85979 140.028 10.0407 140.028 10.2216V25.6897C140.028 25.8706 140.119 25.961 140.3 26.0515C140.933 26.2324 141.747 26.4133 142.652 26.5038C143.556 26.5942 144.551 26.6847 145.637 26.6847C147.084 26.6847 148.35 26.5038 149.526 26.0515C150.702 25.5992 151.697 25.0565 152.511 24.2424C153.325 23.5187 153.959 22.6142 154.411 21.5287C154.863 20.4432 155.044 19.2673 155.044 18.0009C155.044 16.644 154.863 15.4681 154.411 14.3826C153.959 13.3876 153.325 12.483 152.511 11.6689ZM151.154 20.3527C150.883 21.0764 150.521 21.7096 149.978 22.3428C149.436 22.8855 148.893 23.3378 148.079 23.6996C147.355 24.0615 146.451 24.2424 145.546 24.2424C145.094 24.2424 144.551 24.2424 144.099 24.1519C143.737 24.0615 143.466 24.0615 143.194 23.971V11.8498H144.913C145.998 11.8498 146.903 12.0307 147.808 12.3021C148.622 12.5735 149.345 13.0258 149.888 13.5685C150.431 14.1112 150.883 14.7444 151.154 15.5585C151.426 16.2822 151.607 17.1868 151.607 18.0913C151.607 18.9054 151.426 19.6291 151.154 20.3527ZM82.2265 23.6996H75.0805V19.0864H79.6938C79.7842 19.0864 79.9651 18.9959 79.9651 18.9054L80.7792 17.0963V16.8249C80.6888 16.7345 80.5983 16.644 80.5079 16.644H75.0805V12.1212H80.8697C80.9602 12.1212 81.1411 12.0307 81.1411 11.9403L81.9552 10.1312C82.0456 10.0407 81.9552 9.95024 81.9552 9.85979C81.8647 9.76933 81.7743 9.67887 81.6838 9.67887H72.0954C71.9145 9.67887 71.7336 9.85979 71.7336 10.0407V26.0515C71.7336 26.2324 71.9145 26.4133 72.0954 26.4133H81.0506C81.1411 26.4133 81.2315 26.3229 81.322 26.2324L82.4075 24.3328C82.4979 24.2424 82.4979 24.1519 82.4075 23.971C82.4075 23.7901 82.317 23.6996 82.2265 23.6996ZM131.887 9.76933C131.797 9.67887 131.706 9.58842 131.616 9.58842H128.812C128.721 9.58842 128.631 9.67887 128.54 9.76933C128.45 9.85979 128.45 9.95024 128.54 10.0407L129.083 11.2166L122.932 25.8706V26.142C123.022 26.2324 123.113 26.3229 123.203 26.3229H125.646C125.736 26.3229 125.917 26.2324 125.917 26.142L127.364 22.6142H133.334L134.782 26.142C134.872 26.2324 134.963 26.3229 135.053 26.3229H137.948C138.129 26.3229 138.31 26.142 138.31 25.961C138.31 25.8706 138.31 25.7801 138.219 25.7801L131.887 9.76933ZM128.359 20.0814L130.349 14.9254L132.339 20.0814H128.359ZM167.165 23.6996H160.019V19.0864H164.632C164.723 19.0864 164.904 18.9959 164.904 18.9054L165.718 17.0963C165.808 17.0059 165.718 16.9154 165.718 16.8249C165.627 16.7345 165.537 16.644 165.447 16.644H160.019V12.1212H165.808C165.899 12.1212 166.08 12.0307 166.08 11.9403L166.894 10.1312C166.984 10.0407 166.894 9.95024 166.894 9.85979C166.803 9.76933 166.713 9.67887 166.622 9.67887H157.034C156.853 9.67887 156.672 9.85979 156.672 10.0407V26.0515C156.672 26.2324 156.853 26.4133 157.034 26.4133H165.989C166.08 26.4133 166.17 26.3229 166.261 26.2324L167.346 24.3328C167.437 24.2424 167.437 24.0615 167.346 23.971C167.437 23.7901 167.346 23.6996 167.165 23.6996ZM123.022 25.6897L117.324 18.815C117.595 18.7245 117.776 18.5436 118.047 18.4532C118.5 18.1818 118.861 17.82 119.314 17.4581C119.676 17.0963 120.037 16.5536 120.309 16.1013C120.58 15.5585 120.671 14.9254 120.671 14.2922C120.671 13.478 120.49 12.7544 120.128 12.1212C119.766 11.488 119.314 11.0357 118.681 10.5834C118.138 10.2216 117.414 9.85979 116.6 9.67887C115.786 9.49796 114.972 9.4075 114.067 9.4075C112.982 9.4075 111.987 9.49796 111.263 9.58842C110.539 9.67887 109.816 9.76933 109.092 9.95024C108.911 9.95024 108.821 10.1312 108.821 10.3121V26.142C108.821 26.3229 109.002 26.5038 109.183 26.5038H111.806C111.987 26.5038 112.168 26.3229 112.168 26.142V19.9909H114.248L119.314 26.3229C119.404 26.4133 119.495 26.4133 119.585 26.4133H122.842C123.022 26.4133 123.203 26.2324 123.203 26.0515C123.203 25.8706 123.113 25.7801 123.022 25.6897ZM116.69 16.3727C116.51 16.644 116.238 16.8249 115.967 17.0059C115.695 17.1868 115.515 17.2772 115.334 17.3677H112.168V11.7594H113.344C114.791 11.7594 115.786 11.9403 116.51 12.3926C117.143 12.7544 117.414 13.478 117.414 14.3826C117.414 14.7444 117.324 15.1063 117.233 15.3776C117.052 15.8299 116.871 16.1013 116.69 16.3727Z" fill="white"/>
<path d="M60.3352 33.9212C60.4257 33.9212 60.5161 33.8307 60.5161 33.8307C60.697 33.7403 60.8779 33.5594 61.0589 33.4689C61.2398 33.288 61.4207 33.1071 61.5111 32.9262C61.6016 32.7453 61.692 32.4739 61.692 32.1121C61.692 31.8407 61.6016 31.4789 61.4207 31.298C61.2398 31.0266 60.9684 30.8457 60.697 30.6648C60.4257 30.4838 59.9734 30.3934 59.6115 30.3029C59.1593 30.2125 58.707 30.122 58.2547 30.122C57.6215 30.122 57.0788 30.122 56.6265 30.2125C56.0837 30.2125 55.7219 30.3029 55.3601 30.3934C55.2696 30.3934 55.2696 30.4838 55.2696 30.4838V37.9917C55.2696 38.0822 55.2696 38.0822 55.3601 38.0822C55.4506 38.0822 55.6315 38.1726 55.9028 38.1726C56.0837 38.1726 56.3551 38.2631 56.6265 38.2631C56.8979 38.2631 57.1692 38.3536 57.5311 38.3536H58.4356C58.9784 38.3536 59.4306 38.2631 59.8829 38.1726C60.3352 38.0822 60.697 37.9013 61.0589 37.7204C61.4207 37.5395 61.692 37.2681 61.873 36.9967C62.0539 36.7253 62.1443 36.3635 62.1443 36.0017C62.1443 35.459 61.9634 35.0067 61.6016 34.5544C61.2398 34.283 60.8779 34.1021 60.3352 33.9212ZM59.4306 31.4789C59.7925 31.6598 59.9734 31.9311 59.9734 32.293C59.9734 32.6548 59.8829 32.8357 59.702 33.1071C59.5211 33.288 59.3402 33.4689 59.0688 33.6498H56.9883V31.2075H57.8024C58.5261 31.2075 59.0688 31.298 59.4306 31.4789ZM56.9883 34.6448H58.0738C58.7974 34.6448 59.2497 34.7353 59.702 34.9162C59.8829 35.0067 60.0638 35.0971 60.1543 35.278C60.2447 35.459 60.3352 35.6399 60.3352 35.8208C60.3352 36.2731 60.1543 36.5444 59.7925 36.8158C59.4306 37.0872 58.8879 37.1776 58.2547 37.1776C57.8929 37.1776 57.531 37.1776 57.3501 37.0872C57.1692 37.0872 57.0788 36.9967 56.9883 36.9967V34.6448ZM67.3908 30.2125L65.6721 30.122C65.6721 30.122 65.5817 30.122 65.5817 30.2125V30.3029L65.853 30.9361L62.4157 37.9917V38.0822L62.5062 38.1726H63.9535C64.0439 38.1726 64.0439 38.1727 64.0439 38.0822L64.858 36.3635H68.3858L69.1999 38.0822L69.2904 38.1726H70.9186C70.9186 38.1726 71.0091 38.1727 71.0091 38.0822V37.9917L67.3908 30.2125ZM66.5767 32.5643L67.8431 35.1876H65.4008L66.5767 32.5643ZM79.9643 30.2125H78.6074V35.3685L73.2705 30.2125H71.2804C71.19 30.2125 71.19 30.2125 71.19 30.3029V30.3934L72.185 31.298V38.1726H73.6323V32.8357L79.2406 38.1726H80.1452V30.3029L79.9643 30.2125ZM90.0049 37.9917L85.3012 34.0117L89.4622 30.3934C89.4622 30.3934 89.5527 30.3029 89.4622 30.3029C89.4622 30.2125 89.3717 30.2125 89.3717 30.2125H87.3817L83.2207 34.1021V30.2125H81.502V38.1726H83.2207V34.283L87.5626 38.1726H89.824C89.9145 38.1726 89.9145 38.1727 90.0049 37.9917C90.0954 38.0822 90.0954 37.9917 90.0049 37.9917ZM26.2331 8.41246C26.8663 8.41246 27.3186 7.86972 27.2281 7.23652L26.1426 1.17593C26.0522 0.542739 25.419 0 24.6953 0H23.7003C23.0671 0 22.4339 0.542739 22.253 1.17593L21.1675 7.23652C21.0771 7.86972 21.5294 8.41246 22.1625 8.41246H26.2331ZM26.5949 12.2116C26.2331 11.6689 25.419 11.2166 24.7858 11.2166H23.7908C23.1576 11.2166 22.253 11.6689 21.9816 12.2116L6.96586 36.7253C6.60403 37.2681 6.78494 38.0822 7.23723 38.5345L8.77499 39.7104C9.31773 40.1627 10.0414 40.0722 10.4032 39.5295L23.5194 21.2573C23.8812 20.7145 24.5144 20.7145 24.9667 21.2573L38.0829 39.5295C38.4447 40.0722 39.1684 40.1627 39.7111 39.7104L41.2489 38.5345C41.7916 38.0822 41.8821 37.2681 41.5202 36.7253L26.5949 12.2116ZM17.9111 11.3975C18.2729 10.8548 18.0016 10.2216 17.3684 10.1311L2.53349 7.41744C1.80983 7.32698 1.08618 7.77926 0.814812 8.322L0.09116 9.95022C-0.18021 10.5834 0.181617 11.2166 0.814812 11.488L13.8406 15.9203C14.4737 16.1013 15.2879 15.8299 15.6497 15.2872L17.9111 11.3975ZM32.9269 15.2872C33.2887 15.8299 34.1028 16.1917 34.736 15.9203L47.7617 11.5784C48.3949 11.3975 48.7568 10.6739 48.4854 10.0407L47.7617 8.41246C47.4904 7.77926 46.6763 7.41743 46.0431 7.50789L31.2082 10.2216C30.575 10.312 30.3036 10.9452 30.6655 11.488L32.9269 15.2872Z" fill="#03B3D9"/>
</svg>
