<svg width="40" height="40" viewBox="0 0 40 40" fill="none" xmlns="http://www.w3.org/2000/svg">
<path d="M37.77 0.0287281L2.04327 5.87835C0.816947 6.07943 0 6.82095 0 8.08497V31.8587C0 33.1227 0.942632 33.8535 2.17075 34.0977L37.77 39.9706C38.9962 40.1735 40 39.3045 40 38.0404V1.96244C40 0.820526 39.1812 0 38.1183 0C38.0052 0 37.8885 0.00897797 37.77 0.0287281Z" fill="url(#paint0_linear_355_1669)"/>
<path d="M8.98794 19.2008L11.1813 13.365H13.9817L10.1238 22.5104H7.83252L3.97461 13.365H6.75544L8.98794 19.2008ZM21.9483 14.4812V8.39081H24.5137V22.5104H21.9483V21.3745C21.3021 22.3145 20.0293 22.7454 19.0109 22.7454C16.6609 22.7454 14.5264 20.8654 14.5264 17.9279C14.5264 14.9904 16.6609 13.13 19.0109 13.13C20.0684 13.13 21.3021 13.5412 21.9483 14.4812ZM19.5005 20.3562C20.7538 20.3562 21.87 19.3183 21.87 17.9279C21.87 16.5179 20.6951 15.5191 19.5005 15.5191C18.208 15.5191 17.1309 16.5766 17.1309 17.9279C17.1309 19.2595 18.208 20.3562 19.5005 20.3562ZM31.6473 17.3991L36.0144 22.5104H32.8223L29.6106 18.5545V22.5104H27.0452V8.39081H29.6106V16.1654L31.9214 13.365H35.2114L31.6473 17.3991Z" fill="white"/>
<path d="M13.6895 26.36C14.8041 26.36 15.7185 27.2046 15.7185 28.4935C15.7185 29.7735 14.7954 30.6358 13.6807 30.6358C13.0973 30.6358 12.5051 30.3571 12.2352 29.8956V30.5312H11.4775V24.2525H12.2352V27.1002C12.5051 26.6213 13.0799 26.36 13.6895 26.36ZM13.6111 29.9217C14.36 29.9217 14.9522 29.2946 14.9522 28.4848C14.9522 27.6662 14.36 27.074 13.6111 27.074C12.9492 27.074 12.2352 27.6052 12.2352 28.4848C12.2352 29.3556 12.8883 29.9217 13.6111 29.9217ZM19.9716 27.1002V26.4644H20.7293V30.5312H19.9716V29.8085C19.7017 30.296 19.1356 30.6358 18.4825 30.6358C17.4201 30.6358 16.4883 29.7387 16.4883 28.4935C16.4883 27.2917 17.3678 26.36 18.5173 26.36C19.1269 26.36 19.7017 26.6213 19.9716 27.1002ZM18.5957 29.9217C19.3185 29.9217 19.9716 29.3208 19.9716 28.4935C19.9716 27.6575 19.2663 27.074 18.587 27.074C17.8468 27.074 17.2546 27.7271 17.2546 28.4935C17.2546 29.2685 17.8468 29.9217 18.5957 29.9217ZM24.1552 26.36C25.1654 26.36 25.8013 27.0392 25.7925 28.18V30.5312H25.0348V28.2235C25.0348 27.5444 24.6169 27.109 24.0509 27.109C23.4848 27.109 22.8054 27.4485 22.8054 28.3281V30.5312H22.0479V26.4644H22.8054V27.0827C23.0494 26.5865 23.7113 26.36 24.1552 26.36ZM28.5286 28.2235L30.6969 30.5312H29.6781L27.8059 28.5458V30.5312H27.0481V24.2525H27.8059V27.9012L29.2165 26.4644H30.2702L28.5286 28.2235Z" fill="white"/>
<defs>
<linearGradient id="paint0_linear_355_1669" x1="12.0548" y1="38.3562" x2="30.8316" y2="-3.66906" gradientUnits="userSpaceOnUse">
<stop stop-color="#E30613"/>
<stop offset="0.18" stop-color="#E52811"/>
<stop offset="0.35" stop-color="#E7430F"/>
<stop offset="0.45" stop-color="#E84E0F"/>
<stop offset="0.61" stop-color="#EE700A"/>
<stop offset="0.87" stop-color="#F7A502"/>
<stop offset="1" stop-color="#FBBA00"/>
</linearGradient>
</defs>
</svg>
