<svg width="22" height="16" viewBox="0 0 22 16" fill="none" xmlns="http://www.w3.org/2000/svg">
<g clip-path="url(#clip0_2_1440)">
<rect width="22" height="16" fill="#1A47B8"/>
<path d="M19.9048 0H2.09524C0.93807 0 0 0.955126 0 2.13333V13.8667C0 15.0449 0.93807 16 2.09524 16H19.9048C21.0619 16 22 15.0449 22 13.8667V2.13333C22 0.955126 21.0619 0 19.9048 0Z" fill="#1A47B8"/>
<path opacity="0.5" fill-rule="evenodd" clip-rule="evenodd" d="M4.19049 12.2667L5.23811 11.7333L5.76192 10.6667L6.28573 11.7333L7.33335 12.2667L6.28573 12.8L5.76192 13.8667L5.23811 12.8L4.19049 12.2667ZM14.6667 3.20001V4.26668H15.7143V3.20001H14.6667ZM17.8095 4.26668V5.33335H18.8572V4.26668H17.8095ZM13.6191 6.40001V7.46668H14.6667V6.40001H13.6191ZM16.7619 7.46668V8.53335H17.8095V7.46668H16.7619ZM15.7143 10.6667V11.7333H16.7619V10.6667H15.7143Z" fill="white"/>
<path d="M9.42856 1.06668H2.09523C1.51664 1.06668 1.04761 1.54424 1.04761 2.13335V7.46668C1.04761 8.05579 1.51664 8.53335 2.09523 8.53335H9.42856C10.0071 8.53335 10.4762 8.05579 10.4762 7.46668V2.13335C10.4762 1.54424 10.0071 1.06668 9.42856 1.06668Z" fill="white"/>
<path fill-rule="evenodd" clip-rule="evenodd" d="M5.23807 5.33333H2.09521V4.26666H5.23807V2.13333H6.28569V4.26666H9.42855V5.33333H6.28569V7.46666H5.23807V5.33333ZM7.85712 6.4V7.46666H9.42855V6.4H7.85712ZM7.85712 2.13333V3.2H9.42855V2.13333H7.85712ZM2.09521 6.4V7.46666H3.66664V6.4H2.09521ZM2.09521 2.13333V3.2H3.66664V2.13333H2.09521Z" fill="#F93939"/>
</g>
<defs>
<clipPath id="clip0_2_1440">
<rect width="22" height="16" rx="2" fill="white"/>
</clipPath>
</defs>
</svg>
