<svg width="22" height="16" viewBox="0 0 22 16" fill="none" xmlns="http://www.w3.org/2000/svg">
<g clip-path="url(#clip0_2_877)">
<rect width="22" height="16" fill="white"/>
<rect width="22" height="1.14872" fill="#AF010D"/>
<rect y="2.29742" width="22" height="1.14872" fill="#AF010D"/>
<rect y="4.59485" width="22" height="1.14872" fill="#AF010D"/>
<rect y="6.89233" width="22" height="1.14872" fill="#AF010D"/>
<rect y="9.18976" width="22" height="1.14872" fill="#AF010D"/>
<rect y="11.4872" width="22" height="1.14872" fill="#AF010D"/>
<rect y="13.7846" width="22" height="1.14872" fill="#AF010D"/>
<path fill-rule="evenodd" clip-rule="evenodd" d="M0 0H11.5238V9.19467H0V0Z" fill="#1A47B8"/>
<path fill-rule="evenodd" clip-rule="evenodd" d="M7.33331 4.26666H8.38093V5.33333H7.33331V4.26666Z" fill="#FFDA2C"/>
<path fill-rule="evenodd" clip-rule="evenodd" d="M7.85717 6.40003C7.37946 7.0475 6.61888 7.4667 5.76193 7.4667C4.31622 7.4667 3.14288 6.27203 3.14288 4.80003C3.14288 3.32803 4.31622 2.13336 5.76193 2.13336C6.61888 2.13336 7.37946 2.55256 7.85717 3.20003H6.28574C5.41831 3.20003 4.71431 3.91683 4.71431 4.80003C4.71431 5.68323 5.41831 6.40003 6.28574 6.40003H7.85717Z" fill="#FFDA2C"/>
</g>
<defs>
<clipPath id="clip0_2_877">
<rect width="22" height="16" rx="2" fill="white"/>
</clipPath>
</defs>
</svg>
