<svg _ngcontent-ng-c3248064027="" xmlns="http://www.w3.org/2000/svg" width="84" height="25" fill-rule="evenodd"><path _ngcontent-ng-c3248064027="" d="M4.746 17.68l-.393 1.463-.784 2.537h2.42l-1.243-4zm1.285-2.255L9.545 24.9H7.004l-.473-1.517H3.015L2.542 24.9H0l3.542-9.475H6.03zm9.463 0h2.542L14.723 24.9H12.29l-3.272-9.475h2.542l1.974 6.737 1.96-6.737m6.766 2.255l-.392 1.463-.784 2.537h2.42l-1.244-4zm1.285-2.255L27.06 24.9h-2.542l-.474-1.517h-3.515l-.473 1.517h-2.542l3.542-9.475h2.488zm4.954 0h2.339l2.068 3.489 1.433 2.59-.108-6.08h2.285V24.9h-2.339l-1.785-2.993-1.677-2.966.068 5.959h-2.285v-9.475m10.403 0h7.706v1.852l-5.205 5.758h5.178V24.9h-8.125v-1.772l5.286-5.851h-4.84v-1.852m13.634 2.255l-.392 1.463-.784 2.537h2.42l-1.243-3.999zm1.284-2.255l3.515 9.475h-2.541l-.473-1.517h-3.515l-.474 1.517h-2.542l3.542-9.475h2.488z"></path><path _ngcontent-ng-c3248064027="" d="M62.466 15.376h3.282V24.9h-3.282zm5.998-2.763h3.283V24.9h-3.283zm6-3.461h3.284V24.9h-3.284zM80.469.159h3.283V24.9h-3.283z" fill="#00c281"></path></svg>