<svg width="978" height="184" viewBox="0 0 978 184" fill="none" xmlns="http://www.w3.org/2000/svg">
<path d="M65.7996 0V51.178H132.822V184H184V0H65.7996Z" fill="#005AA0"/>
<path d="M0 0V184H118.2V132.822H51.178V0H0Z" fill="#005AA0"/>
<path d="M118.196 65.7996H65.7996V118.196H118.196V65.7996Z" fill="#E30613"/>
<path d="M432.107 85.9601C427.369 83.5911 422.161 81.9318 417.663 80.0376C408.781 75.8942 406.412 71.631 406.412 65.8284C406.412 59.3161 411.5 55.8824 418.847 55.8824C428.203 55.8824 434.831 60.2656 440.753 75.2996H443.477V52.329C443.477 52.329 433.651 49.96 421.806 49.96C402.744 49.96 391.613 60.0258 391.613 74.9447C391.613 84.061 396.941 91.0481 405.703 95.4313C409.731 97.2056 414.464 98.8649 418.372 100.524C429.978 105.262 432.817 109.405 432.817 116.747C432.817 123.38 428.318 128.113 419.437 128.113C411.15 128.113 399.9 124.204 395.522 105.262H392.208L392.918 131.311C400.025 132.851 408.311 134.035 415.414 134.035C433.886 134.035 447.265 127.998 447.265 107.156C447.265 97.8002 442.173 90.8132 432.112 85.9601H432.107Z" fill="#005AA0"/>
<path d="M518.005 71.2761C496.693 71.2761 488.047 75.4195 488.047 103.248C488.047 131.076 496.808 134.035 518.005 134.035C539.201 134.035 546.303 130.957 546.303 103.248C546.303 75.5394 540.026 71.2761 518.005 71.2761ZM518.005 128.942C506.994 128.942 505.81 127.993 505.81 103.248C505.81 78.503 506.399 76.369 518.005 76.369C528.07 76.369 528.54 79.0928 528.54 103.248C528.54 127.403 527.476 128.942 518.005 128.942Z" fill="#005AA0"/>
<path d="M581.425 71.2773C567.926 71.2773 554.071 75.3055 554.071 102.18C554.071 123.611 561.888 134.032 581.07 134.032C588.532 134.032 596.282 132.847 603.504 126.335V125.15H588.177C572.074 125.15 571.834 121.837 571.834 99.8107C571.834 82.7578 573.258 79.4441 580.835 79.4441C587.467 79.4441 590.781 79.4441 597.528 79.7989V80.1538C589.712 80.7437 589.357 83.9423 589.357 87.021C589.357 92.5886 592.201 95.1926 597.409 95.1926C603.566 95.1926 605.815 93.0634 605.815 86.6661C605.815 78.2596 595.749 71.2725 581.425 71.2725V71.2773Z" fill="#005AA0"/>
<path d="M731.018 122.545V86.785C731.018 74.1152 721.902 71.2714 714.205 71.2714C708.168 71.2714 699.761 73.6404 694.193 77.4289V47.5911H668.734V49.7203C677.38 51.9694 677.615 52.3243 677.615 57.8919V122.541C677.615 128.938 674.45 129.978 671.947 129.978C670.038 129.978 668.547 128.099 667.046 126.094L645.063 94.0071C645.063 94.0071 655.086 82.5218 658.639 79.208C661.008 76.9589 662.903 75.5395 668.35 74.9448V72.4559H646.324V74.9448C651.062 75.0647 653.192 75.5347 653.192 76.839C653.192 77.4289 652.482 78.3784 651.178 79.5629L630.614 100.759L647.744 126.454C648.219 127.283 648.574 127.873 648.574 128.348C648.574 129.652 646.324 129.887 641.706 130.952V132.846H703.07V130.717C694.544 128.468 694.189 127.993 694.189 122.545V80.9824C698.687 80.6275 703.07 80.2727 707.448 80.2727C713.726 80.2727 714.435 81.6921 714.435 87.6146V122.545C714.435 128.113 714.196 128.468 705.554 130.717V132.846H739.895V130.717C731.369 128.468 731.014 127.993 731.014 122.545H731.018Z" fill="#005AA0"/>
<path d="M771.895 71.2761C750.583 71.2761 741.937 75.4195 741.937 103.248C741.937 131.076 750.698 134.035 771.895 134.035C793.091 134.035 800.193 130.957 800.193 103.248C800.193 75.5394 793.916 71.2761 771.895 71.2761ZM771.895 128.942C760.884 128.942 759.7 127.993 759.7 103.248C759.7 78.503 760.294 76.369 771.895 76.369C781.961 76.369 782.431 79.0928 782.431 103.248C782.431 127.403 781.366 128.942 771.895 128.942Z" fill="#005AA0"/>
<path d="M933.098 122.544L932.978 86.6688C932.978 73.999 924.096 71.2751 916.399 71.2751C910.007 71.2751 900.886 73.8791 895.323 77.9073C892.479 72.1047 886.087 71.2751 880.284 71.2751C873.417 71.2751 863.711 74.1188 858.263 78.737V72.4596H835.173V74.5888C843.819 76.8379 844.054 77.1928 844.054 82.7604L843.934 122.544C843.934 126.596 843.181 128.941 838.621 130.236C837.177 130.644 834.554 130.706 832.732 130.169C828.502 128.917 827.567 127.047 827.567 122.544V47.5947H802.107V49.7239C810.749 51.9731 810.989 52.3279 810.989 57.8955V122.544C810.989 128.112 810.749 128.467 802.107 130.716V132.845H869.389V130.716C860.862 128.467 860.507 127.992 860.507 122.544L860.388 80.8662C864.886 80.3914 869.269 80.1564 873.532 80.1564C879.81 80.1564 880.519 81.5759 880.519 87.2634L880.399 122.549C880.399 128.117 880.16 128.471 871.518 130.721V132.85H905.854V130.721C897.328 128.471 896.973 127.997 896.973 122.549L896.853 85.4891C896.853 83.7147 896.733 82.1754 896.378 80.871C900.876 80.5161 905.259 80.1612 909.638 80.1612C915.915 80.1612 916.625 81.5807 916.625 87.2682L916.505 122.554C916.505 128.121 916.265 128.476 907.624 130.725V132.855H941.965V130.725C933.438 128.476 933.083 128.002 933.083 122.554L933.098 122.544Z" fill="#005AA0"/>
<path d="M629.559 122.544V47.5947H604.099V49.7239C612.741 51.9731 612.98 52.3279 612.98 57.8955V123.014C612.98 128.15 612.76 128.85 605.941 130.697V132.85H638.44V130.721C629.913 128.471 629.559 127.997 629.559 122.549V122.544Z" fill="#005AA0"/>
<path d="M265.069 126.928H258.144V61.4549C258.144 55.892 258.379 55.5372 267.025 53.2833V51.1541H231.979V53.2833C240.506 55.5324 240.861 56.0071 240.861 61.4549V122.55C240.861 128.113 240.626 128.473 231.979 130.722V132.851H292.418L293.842 106.801H291.713C283.541 127.403 276.794 126.928 265.074 126.928H265.069Z" fill="#005AA0"/>
<path d="M300.517 51.2691V53.7532C309.149 55.9975 309.384 56.3524 309.384 61.9104V122.56C309.384 128.118 309.149 128.473 300.517 130.717V132.846H335.515V130.717C327.003 128.473 326.648 127.998 326.648 122.56V96.0787H332.796C340.953 95.9588 344.262 96.7884 347.336 108.729H350.055C349.935 102.936 349.82 98.2079 349.82 92.6498C349.82 86.502 349.94 82.7183 350.055 77.1603H347.336C344.262 88.9813 341.308 90.1658 332.796 90.1658H326.648V57.182H335.395C350.29 57.182 352.065 59.5462 360.222 74.9159H362.351L360.697 51.1541L300.517 51.2739V51.2691Z" fill="#005AA0"/>
<path d="M472.864 113.194V77.9707L485.592 74.9495V72.4607H472.864V55.4077H470.735L456.291 66.3032V119.232C456.291 130.127 460.079 133.915 470.26 133.915C478.077 133.915 483.251 130.75 486.565 128.113V126.099H484.023C472.912 126.099 472.859 124.924 472.859 113.194H472.864Z" fill="#005AA0"/>
</svg>
