<svg xmlns:xlink="http://www.w3.org/1999/xlink"  viewBox="0 0 1000 500" width="1000" height="500" preserveAspectRatio="xMidYMid meet" style="width: 100%; height: 100%; transform: translate3d(0px, 0px, 0px); content-visibility: visible;"><defs><clipPath id="__lottie_element_2"><rect width="1000" height="500" x="0" y="0"></rect></clipPath><g id="__lottie_element_3"><g transform="matrix(0.6200000047683716,0,0,0.6200000047683716,500,250)" opacity="1" style="display: block;"><g opacity="1" transform="matrix(1,0,0,1,-142.8419952392578,-209.5659942626953)"><path fill="rgb(255,255,255)" fill-opacity="1" d=" M893.1580200195312,-109.78800201416016 C893.1580200195312,-109.78800201416016 893.1580200195312,535.2080078125 893.1580200195312,535.2080078125 C893.1580200195312,535.2080078125 -663.6099853515625,535.2080078125 -663.6099853515625,535.2080078125 C-663.6099853515625,535.2080078125 -663.6099853515625,-109.78800201416016 -663.6099853515625,-109.78800201416016 C-663.6099853515625,-109.78800201416016 893.1580200195312,-109.78800201416016 893.1580200195312,-109.78800201416016z"></path></g></g></g><mask id="__lottie_element_3_1" mask-type="alpha"><use xlink:href="#__lottie_element_3"></use></mask><g id="__lottie_element_9"><g transform="matrix(0.6200000047683716,0,0,0.6200000047683716,500,252.47999572753906)" opacity="1" style="display: block;"><g opacity="1" transform="matrix(1,0,0,1,651.4290161132812,117.08200073242188)"><path fill="rgb(255,255,255)" fill-opacity="1" d=" M119.42849731445312,-186.91749572753906 C119.42849731445312,-186.91749572753906 119.42849731445312,186.91749572753906 119.42849731445312,186.91749572753906 C119.42849731445312,186.91749572753906 -119.42849731445312,186.91749572753906 -119.42849731445312,186.91749572753906 C-119.42849731445312,186.91749572753906 -119.42849731445312,-186.91749572753906 -119.42849731445312,-186.91749572753906 C-119.42849731445312,-186.91749572753906 119.42849731445312,-186.91749572753906 119.42849731445312,-186.91749572753906z"></path></g></g></g><mask id="__lottie_element_9_1" mask-type="alpha"><use xlink:href="#__lottie_element_9"></use></mask><g id="__lottie_element_15"><g transform="matrix(0.6200000047683716,0,0,0.6200000047683716,500,250)" opacity="1" style="display: block;"><g opacity="1" transform="matrix(1,0,0,1,-142.8419952392578,-209.5659942626953)"><path fill="rgb(255,255,255)" fill-opacity="1" d=" M897.1900024414062,-138.4550018310547 C897.1900024414062,-138.4550018310547 897.1900024414062,138.41200256347656 897.1900024414062,138.41200256347656 C897.1900024414062,138.41200256347656 -663.6099853515625,138.4340057373047 -663.6099853515625,138.4340057373047 C-663.6099853515625,138.4340057373047 -663.6099853515625,-138.4340057373047 -663.6099853515625,-138.4340057373047 C-663.6099853515625,-138.4340057373047 897.1900024414062,-138.4550018310547 897.1900024414062,-138.4550018310547z"></path></g></g></g><mask id="__lottie_element_15_1" mask-type="alpha"><use xlink:href="#__lottie_element_15"></use></mask><g id="__lottie_element_21"><g transform="matrix(0.6200000047683716,0,0,0.6200000047683716,500,486)" opacity="1" style="display: block;"><g opacity="1" transform="matrix(1,0,0,1,-142.8419952392578,-209.5659942626953)"><path fill="rgb(255,255,255)" fill-opacity="1" d=" M893.1580200195312,-138.4340057373047 C893.1580200195312,-138.4340057373047 893.1580200195312,138.4340057373047 893.1580200195312,138.4340057373047 C893.1580200195312,138.4340057373047 -663.6099853515625,138.4340057373047 -663.6099853515625,138.4340057373047 C-663.6099853515625,138.4340057373047 -663.6099853515625,-138.4340057373047 -663.6099853515625,-138.4340057373047 C-663.6099853515625,-138.4340057373047 893.1580200195312,-138.4340057373047 893.1580200195312,-138.4340057373047z"></path></g></g></g><mask id="__lottie_element_21_1" mask-type="alpha"><use xlink:href="#__lottie_element_21"></use></mask><g id="__lottie_element_27"><g style="display: none;"><g><path></path></g></g></g><mask id="__lottie_element_27_1" mask-type="alpha"><use xlink:href="#__lottie_element_27"></use></mask><g id="__lottie_element_33"><g style="display: none;"><g><path></path></g></g></g><mask id="__lottie_element_33_1" mask-type="alpha"><use xlink:href="#__lottie_element_33"></use></mask><g id="__lottie_element_39"><g style="display: none;"><g><path></path></g></g></g><mask id="__lottie_element_39_1" mask-type="alpha"><use xlink:href="#__lottie_element_39"></use></mask></defs><g clip-path="url(#__lottie_element_2)"><g mask="url(#__lottie_element_39_1)" style="display: none;"><g><g><path></path></g><g><path></path></g><g><path></path></g><g><path></path></g></g></g><g mask="url(#__lottie_element_33_1)" style="display: none;"><g><g><path></path></g><g><path></path></g><g><path></path></g><g><path></path></g><g><path></path></g><g><path></path></g><g><path></path></g><g><path></path></g><g><path></path></g><g><path></path></g></g></g><g mask="url(#__lottie_element_27_1)" style="display: none;"><g><g><path></path></g><g><path></path></g><g><path></path></g><g><path></path></g><g><path></path></g><g><path></path></g><g><path></path></g><g><path></path></g><g><path></path></g><g><path></path></g></g></g><g mask="url(#__lottie_element_21_1)" style="display: block;"><g transform="matrix(0.6200000047683716,0,0,0.6200000047683716,24.288259506225586,434.759765625)" opacity="1"><g opacity="1" transform="matrix(1,0,0,1,0,0)"><path fill="rgb(250,0,50)" fill-opacity="1" d=" M663.10302734375,-205.3560028076172 C663.10302734375,-205.3560028076172 626.4940185546875,-205.3560028076172 626.4940185546875,-205.3560028076172 C626.4940185546875,-205.3560028076172 626.4940185546875,0 626.4940185546875,0 C626.4940185546875,0 663.10302734375,0 663.10302734375,0 C663.10302734375,0 663.10302734375,-62.06399917602539 663.10302734375,-62.06399917602539 C663.10302734375,-62.06399917602539 687.9860229492188,-89.52100372314453 687.9860229492188,-89.52100372314453 C687.9860229492188,-89.52100372314453 752.9099731445312,0 752.9099731445312,0 C752.9099731445312,0 796.0980224609375,0 796.0980224609375,0 C796.0980224609375,0 711.7249755859375,-116.40599822998047 711.7249755859375,-116.40599822998047 C711.7249755859375,-116.40599822998047 791.52197265625,-205.3560028076172 791.52197265625,-205.3560028076172 C791.52197265625,-205.3560028076172 748.333984375,-205.3560028076172 748.333984375,-205.3560028076172 C748.333984375,-205.3560028076172 663.10302734375,-108.11199951171875 663.10302734375,-108.11199951171875 C663.10302734375,-108.11199951171875 663.10302734375,-205.3560028076172 663.10302734375,-205.3560028076172z"></path></g><g opacity="1" transform="matrix(1,0,0,1,0,0)"><path fill="rgb(250,0,50)" fill-opacity="1" d=" M580.9669799804688,-205.3560028076172 C580.9669799804688,-205.3560028076172 545.7869873046875,-205.3560028076172 545.7869873046875,-205.3560028076172 C545.7869873046875,-205.3560028076172 545.7869873046875,-61.492000579833984 545.7869873046875,-61.492000579833984 C545.7869873046875,-61.492000579833984 449.68798828125,-205.3560028076172 449.68798828125,-205.3560028076172 C449.68798828125,-205.3560028076172 411.9339904785156,-205.3560028076172 411.9339904785156,-205.3560028076172 C411.9339904785156,-205.3560028076172 411.9339904785156,0 411.9339904785156,0 C411.9339904785156,0 447.114013671875,0 447.114013671875,0 C447.114013671875,0 447.114013671875,-150.72799682617188 447.114013671875,-150.72799682617188 C447.114013671875,-150.72799682617188 548.9340209960938,0 548.9340209960938,0 C548.9340209960938,0 580.9669799804688,0 580.9669799804688,0 C580.9669799804688,0 580.9669799804688,-205.3560028076172 580.9669799804688,-205.3560028076172z"></path></g><g opacity="1" transform="matrix(1,0,0,1,0,0)"><path fill="rgb(250,0,50)" fill-opacity="1" d=" M286.0400085449219,-164.74200439453125 C286.0400085449219,-164.74200439453125 318.64599609375,-78.93900299072266 318.64599609375,-78.93900299072266 C318.64599609375,-78.93900299072266 254.0070037841797,-78.93900299072266 254.0070037841797,-78.93900299072266 C254.0070037841797,-78.93900299072266 286.0400085449219,-164.74200439453125 286.0400085449219,-164.74200439453125z M266.0199890136719,-205.3560028076172 C266.0199890136719,-205.3560028076172 188.22500610351562,0 188.22500610351562,0 C188.22500610351562,0 224.54800415039062,0 224.54800415039062,0 C224.54800415039062,0 241.9949951171875,-46.90599822998047 241.9949951171875,-46.90599822998047 C241.9949951171875,-46.90599822998047 330.6579895019531,-46.90599822998047 330.6579895019531,-46.90599822998047 C330.6579895019531,-46.90599822998047 348.3909912109375,0 348.3909912109375,0 C348.3909912109375,0 385.2860107421875,0 385.2860107421875,0 C385.2860107421875,0 307.4909973144531,-205.3560028076172 307.4909973144531,-205.3560028076172 C307.4909973144531,-205.3560028076172 266.0199890136719,-205.3560028076172 266.0199890136719,-205.3560028076172z"></path></g><g opacity="1" transform="matrix(1,0,0,1,0,0)"><path fill="rgb(250,0,50)" fill-opacity="1" d=" M54.62799835205078,-89.52100372314453 C54.62799835205078,-89.52100372314453 104.10800170898438,-89.52100372314453 104.10800170898438,-89.52100372314453 C127.2750015258789,-89.52100372314453 139.85899353027344,-77.50900268554688 139.85899353027344,-60.347999572753906 C139.85899353027344,-42.9010009765625 127.2750015258789,-30.888999938964844 104.10800170898438,-30.888999938964844 C104.10800170898438,-30.888999938964844 54.62799835205078,-30.888999938964844 54.62799835205078,-30.888999938964844 C54.62799835205078,-30.888999938964844 54.62799835205078,-89.52100372314453 54.62799835205078,-89.52100372314453z M54.62799835205078,-120.41100311279297 C54.62799835205078,-120.41100311279297 54.62799835205078,-174.4669952392578 54.62799835205078,-174.4669952392578 C54.62799835205078,-174.4669952392578 97.52999877929688,-174.4669952392578 97.52999877929688,-174.4669952392578 C120.98300170898438,-174.4669952392578 133.85299682617188,-165.6009979248047 133.85299682617188,-147.58200073242188 C133.85299682617188,-129.56300354003906 120.98300170898438,-120.41100311279297 97.52999877929688,-120.41100311279297 C97.52999877929688,-120.41100311279297 54.62799835205078,-120.41100311279297 54.62799835205078,-120.41100311279297z M19.448999404907227,0 C19.448999404907227,0 106.11000061035156,0 106.11000061035156,0 C148.44000244140625,0 175.03900146484375,-21.165000915527344 175.03900146484375,-57.20199966430664 C175.03900146484375,-82.37100219726562 160.73800659179688,-100.10399627685547 139.28700256347656,-106.96800231933594 C153.58799743652344,-112.68800354003906 168.4600067138672,-125.84500122070312 168.4600067138672,-151.3000030517578 C168.4600067138672,-186.1929931640625 145.00799560546875,-205.3560028076172 100.96199798583984,-205.3560028076172 C100.96199798583984,-205.3560028076172 19.448999404907227,-205.3560028076172 19.448999404907227,-205.3560028076172 C19.448999404907227,-205.3560028076172 19.448999404907227,0 19.448999404907227,0z"></path></g></g></g><g mask="url(#__lottie_element_15_1)" style="display: block;"><g transform="matrix(0.6200000047683716,0,0,0.6200000047683716,28.06911849975586,194.1997528076172)" opacity="1"><g opacity="1" transform="matrix(1,0,0,1,0,0)"><path fill="rgb(250,0,50)" fill-opacity="1" d=" M1887.6669921875,-205.3560028076172 C1887.6669921875,-205.3560028076172 1852.488037109375,-205.3560028076172 1852.488037109375,-205.3560028076172 C1852.488037109375,-205.3560028076172 1852.488037109375,-61.492000579833984 1852.488037109375,-61.492000579833984 C1852.488037109375,-61.492000579833984 1756.387939453125,-205.3560028076172 1756.387939453125,-205.3560028076172 C1756.387939453125,-205.3560028076172 1718.635009765625,-205.3560028076172 1718.635009765625,-205.3560028076172 C1718.635009765625,-205.3560028076172 1718.635009765625,0 1718.635009765625,0 C1718.635009765625,0 1753.81396484375,0 1753.81396484375,0 C1753.81396484375,0 1753.81396484375,-150.72799682617188 1753.81396484375,-150.72799682617188 C1753.81396484375,-150.72799682617188 1855.634033203125,0 1855.634033203125,0 C1855.634033203125,0 1887.6669921875,0 1887.6669921875,0 C1887.6669921875,0 1887.6669921875,-205.3560028076172 1887.6669921875,-205.3560028076172z"></path></g><g opacity="1" transform="matrix(1,0,0,1,0,0)"><path fill="rgb(250,0,50)" fill-opacity="1" d=" M1543.2950439453125,-205.3560028076172 C1543.2950439453125,-205.3560028076172 1543.2950439453125,0 1543.2950439453125,0 C1543.2950439453125,0 1682.2960205078125,0 1682.2960205078125,0 C1682.2960205078125,0 1682.2960205078125,-32.03300094604492 1682.2960205078125,-32.03300094604492 C1682.2960205078125,-32.03300094604492 1579.33203125,-32.03300094604492 1579.33203125,-32.03300094604492 C1579.33203125,-32.03300094604492 1579.33203125,-89.80699920654297 1579.33203125,-89.80699920654297 C1579.33203125,-89.80699920654297 1665.9940185546875,-89.80699920654297 1665.9940185546875,-89.80699920654297 C1665.9940185546875,-89.80699920654297 1665.9940185546875,-121.84100341796875 1665.9940185546875,-121.84100341796875 C1665.9940185546875,-121.84100341796875 1579.33203125,-121.84100341796875 1579.33203125,-121.84100341796875 C1579.33203125,-121.84100341796875 1579.33203125,-173.322998046875 1579.33203125,-173.322998046875 C1579.33203125,-173.322998046875 1682.2960205078125,-173.322998046875 1682.2960205078125,-173.322998046875 C1682.2960205078125,-173.322998046875 1682.2960205078125,-205.3560028076172 1682.2960205078125,-205.3560028076172 C1682.2960205078125,-205.3560028076172 1543.2950439453125,-205.3560028076172 1543.2950439453125,-205.3560028076172z"></path></g><g opacity="1" transform="matrix(1,0,0,1,0,0)"><path fill="rgb(250,0,50)" fill-opacity="1" d=" M1382.552001953125,0 C1382.552001953125,0 1515.8330078125,0 1515.8330078125,0 C1515.8330078125,0 1515.8330078125,-32.03300094604492 1515.8330078125,-32.03300094604492 C1515.8330078125,-32.03300094604492 1419.1610107421875,-32.03300094604492 1419.1610107421875,-32.03300094604492 C1419.1610107421875,-32.03300094604492 1419.1610107421875,-205.3560028076172 1419.1610107421875,-205.3560028076172 C1419.1610107421875,-205.3560028076172 1382.552001953125,-205.3560028076172 1382.552001953125,-205.3560028076172 C1382.552001953125,-205.3560028076172 1382.552001953125,0 1382.552001953125,0z"></path></g><g opacity="1" transform="matrix(1,0,0,1,0,0)"><path fill="rgb(250,0,50)" fill-opacity="1" d=" M1256.657958984375,-164.74200439453125 C1256.657958984375,-164.74200439453125 1289.262939453125,-78.93900299072266 1289.262939453125,-78.93900299072266 C1289.262939453125,-78.93900299072266 1224.625,-78.93900299072266 1224.625,-78.93900299072266 C1224.625,-78.93900299072266 1256.657958984375,-164.74200439453125 1256.657958984375,-164.74200439453125z M1236.636962890625,-205.3560028076172 C1236.636962890625,-205.3560028076172 1158.842041015625,0 1158.842041015625,0 C1158.842041015625,0 1195.166015625,0 1195.166015625,0 C1195.166015625,0 1212.612060546875,-46.90599822998047 1212.612060546875,-46.90599822998047 C1212.612060546875,-46.90599822998047 1301.2760009765625,-46.90599822998047 1301.2760009765625,-46.90599822998047 C1301.2760009765625,-46.90599822998047 1319.008056640625,0 1319.008056640625,0 C1319.008056640625,0 1355.904052734375,0 1355.904052734375,0 C1355.904052734375,0 1278.1090087890625,-205.3560028076172 1278.1090087890625,-205.3560028076172 C1278.1090087890625,-205.3560028076172 1236.636962890625,-205.3560028076172 1236.636962890625,-205.3560028076172z"></path></g><g opacity="1" transform="matrix(1,0,0,1,0,0)"><path fill="rgb(250,0,50)" fill-opacity="1" d=" M1132.2330322265625,-205.3560028076172 C1132.2330322265625,-205.3560028076172 1097.053955078125,-205.3560028076172 1097.053955078125,-205.3560028076172 C1097.053955078125,-205.3560028076172 1097.053955078125,-61.492000579833984 1097.053955078125,-61.492000579833984 C1097.053955078125,-61.492000579833984 1000.9539794921875,-205.3560028076172 1000.9539794921875,-205.3560028076172 C1000.9539794921875,-205.3560028076172 963.2009887695312,-205.3560028076172 963.2009887695312,-205.3560028076172 C963.2009887695312,-205.3560028076172 963.2009887695312,0 963.2009887695312,0 C963.2009887695312,0 998.3800048828125,0 998.3800048828125,0 C998.3800048828125,0 998.3800048828125,-150.72799682617188 998.3800048828125,-150.72799682617188 C998.3800048828125,-150.72799682617188 1100.199951171875,0 1100.199951171875,0 C1100.199951171875,0 1132.2330322265625,0 1132.2330322265625,0 C1132.2330322265625,0 1132.2330322265625,-205.3560028076172 1132.2330322265625,-205.3560028076172z"></path></g><g opacity="1" transform="matrix(1,0,0,1,0,0)"><path fill="rgb(250,0,50)" fill-opacity="1" d=" M917.2249755859375,-205.3560028076172 C917.2249755859375,-205.3560028076172 880.6160278320312,-205.3560028076172 880.6160278320312,-205.3560028076172 C880.6160278320312,-205.3560028076172 880.6160278320312,0 880.6160278320312,0 C880.6160278320312,0 917.2249755859375,0 917.2249755859375,0 C917.2249755859375,0 917.2249755859375,-205.3560028076172 917.2249755859375,-205.3560028076172z"></path></g><g opacity="1" transform="matrix(1,0,0,1,0,0)"><path fill="rgb(250,0,50)" fill-opacity="1" d=" M803.3419799804688,0 C803.3419799804688,0 836.8049926757812,0 836.8049926757812,0 C836.8049926757812,0 836.8049926757812,-110.68599700927734 836.8049926757812,-110.68599700927734 C836.8049926757812,-110.68599700927734 747.5700073242188,-110.68599700927734 747.5700073242188,-110.68599700927734 C747.5700073242188,-110.68599700927734 747.5700073242188,-78.65299987792969 747.5700073242188,-78.65299987792969 C747.5700073242188,-78.65299987792969 801.6259765625,-78.65299987792969 801.6259765625,-78.65299987792969 C800.4819946289062,-49.47999954223633 781.0330200195312,-28.315000534057617 751.2880249023438,-28.315000534057617 C716.1090087890625,-28.315000534057617 692.083984375,-58.060001373291016 692.083984375,-102.39199829101562 C692.083984375,-146.7239990234375 716.1090087890625,-176.18299865722656 750.7160034179688,-176.18299865722656 C775.31298828125,-176.18299865722656 792.4739990234375,-162.16799926757812 798.47998046875,-137.85699462890625 C798.47998046875,-137.85699462890625 833.3729858398438,-149.58399963378906 833.3729858398438,-149.58399963378906 C820.7890014648438,-185.90699768066406 792.4739990234375,-208.5019989013672 750.4299926757812,-208.5019989013672 C695.22998046875,-208.5019989013672 655.4739990234375,-164.1699981689453 655.4739990234375,-101.81999969482422 C655.4739990234375,-39.75600051879883 694.9439697265625,3.1459999084472656 748.1420288085938,3.1459999084472656 C775.0269775390625,3.1459999084472656 795.0479736328125,-7.435999870300293 803.3419799804688,-21.165000915527344 C803.3419799804688,-21.165000915527344 803.3419799804688,0 803.3419799804688,0z"></path></g><g opacity="1" transform="matrix(1,0,0,1,0,0)"><path fill="rgb(250,0,50)" fill-opacity="1" d=" M511.6189880371094,-110.97200012207031 C511.6189880371094,-110.97200012207031 511.6189880371094,-173.89500427246094 511.6189880371094,-173.89500427246094 C511.6189880371094,-173.89500427246094 555.093017578125,-173.89500427246094 555.093017578125,-173.89500427246094 C581.406005859375,-173.89500427246094 595.4199829101562,-162.74000549316406 595.4199829101562,-142.43299865722656 C595.4199829101562,-122.41200256347656 581.406005859375,-110.97200012207031 555.093017578125,-110.97200012207031 C555.093017578125,-110.97200012207031 511.6189880371094,-110.97200012207031 511.6189880371094,-110.97200012207031z M511.6189880371094,-79.51100158691406 C511.6189880371094,-79.51100158691406 544.7960205078125,-79.51100158691406 544.7960205078125,-79.51100158691406 C544.7960205078125,-79.51100158691406 594.8480224609375,0 594.8480224609375,0 C594.8480224609375,0 636.6060180664062,0 636.6060180664062,0 C636.6060180664062,0 583.6939697265625,-82.37100219726562 583.6939697265625,-82.37100219726562 C613.7249755859375,-89.52100372314453 631.4580078125,-110.11399841308594 631.4580078125,-142.43299865722656 C631.4580078125,-183.90499877929688 602.8569946289062,-205.3560028076172 557.094970703125,-205.3560028076172 C557.094970703125,-205.3560028076172 475.010009765625,-205.3560028076172 475.010009765625,-205.3560028076172 C475.010009765625,-205.3560028076172 475.010009765625,0 475.010009765625,0 C475.010009765625,0 511.6189880371094,0 511.6189880371094,0 C511.6189880371094,0 511.6189880371094,-79.51100158691406 511.6189880371094,-79.51100158691406z"></path></g><g opacity="1" transform="matrix(1,0,0,1,0,0)"><path fill="rgb(250,0,50)" fill-opacity="1" d=" M349.1159973144531,-164.74200439453125 C349.1159973144531,-164.74200439453125 381.72100830078125,-78.93900299072266 381.72100830078125,-78.93900299072266 C381.72100830078125,-78.93900299072266 317.0830078125,-78.93900299072266 317.0830078125,-78.93900299072266 C317.0830078125,-78.93900299072266 349.1159973144531,-164.74200439453125 349.1159973144531,-164.74200439453125z M329.0950012207031,-205.3560028076172 C329.0950012207031,-205.3560028076172 251.3000030517578,0 251.3000030517578,0 C251.3000030517578,0 287.62298583984375,0 287.62298583984375,0 C287.62298583984375,0 305.07000732421875,-46.90599822998047 305.07000732421875,-46.90599822998047 C305.07000732421875,-46.90599822998047 393.7330017089844,-46.90599822998047 393.7330017089844,-46.90599822998047 C393.7330017089844,-46.90599822998047 411.46600341796875,0 411.46600341796875,0 C411.46600341796875,0 448.3609924316406,0 448.3609924316406,0 C448.3609924316406,0 370.5669860839844,-205.3560028076172 370.5669860839844,-205.3560028076172 C370.5669860839844,-205.3560028076172 329.0950012207031,-205.3560028076172 329.0950012207031,-205.3560028076172z"></path></g><g opacity="1" transform="matrix(1,0,0,1,0,0)"><path fill="rgb(250,0,50)" fill-opacity="1" d=" M136.99899291992188,0 C136.99899291992188,0 190.7689971923828,-158.73599243164062 190.7689971923828,-158.73599243164062 C190.7689971923828,-158.73599243164062 190.7689971923828,0 190.7689971923828,0 C190.7689971923828,0 224.8040008544922,0 224.8040008544922,0 C224.8040008544922,0 224.8040008544922,-205.3560028076172 224.8040008544922,-205.3560028076172 C224.8040008544922,-205.3560028076172 175.61099243164062,-205.3560028076172 175.61099243164062,-205.3560028076172 C175.61099243164062,-205.3560028076172 122.6989974975586,-48.04999923706055 122.6989974975586,-48.04999923706055 C122.6989974975586,-48.04999923706055 69.78700256347656,-205.3560028076172 69.78700256347656,-205.3560028076172 C69.78700256347656,-205.3560028076172 19.448999404907227,-205.3560028076172 19.448999404907227,-205.3560028076172 C19.448999404907227,-205.3560028076172 19.448999404907227,0 19.448999404907227,0 C19.448999404907227,0 53.48400115966797,0 53.48400115966797,0 C53.48400115966797,0 53.48400115966797,-158.73599243164062 53.48400115966797,-158.73599243164062 C53.48400115966797,-158.73599243164062 107.25399780273438,0 107.25399780273438,0 C107.25399780273438,0 136.99899291992188,0 136.99899291992188,0z"></path></g></g></g><g mask="url(#__lottie_element_9_1)" style="display: block;"><g transform="matrix(0,0.6200000047683716,-0.6200000047683716,0,839.8232421875,-735.2887573242188)" opacity="1"><g opacity="1" transform="matrix(1,0,0,1,0,0)"><path fill="rgb(250,0,50)" fill-opacity="1" d=" M1887.6669921875,-205.3560028076172 C1887.6669921875,-205.3560028076172 1852.488037109375,-205.3560028076172 1852.488037109375,-205.3560028076172 C1852.488037109375,-205.3560028076172 1852.488037109375,-61.492000579833984 1852.488037109375,-61.492000579833984 C1852.488037109375,-61.492000579833984 1756.387939453125,-205.3560028076172 1756.387939453125,-205.3560028076172 C1756.387939453125,-205.3560028076172 1718.635009765625,-205.3560028076172 1718.635009765625,-205.3560028076172 C1718.635009765625,-205.3560028076172 1718.635009765625,0 1718.635009765625,0 C1718.635009765625,0 1753.81396484375,0 1753.81396484375,0 C1753.81396484375,0 1753.81396484375,-150.72799682617188 1753.81396484375,-150.72799682617188 C1753.81396484375,-150.72799682617188 1855.634033203125,0 1855.634033203125,0 C1855.634033203125,0 1887.6669921875,0 1887.6669921875,0 C1887.6669921875,0 1887.6669921875,-205.3560028076172 1887.6669921875,-205.3560028076172z"></path></g><g opacity="1" transform="matrix(1,0,0,1,0,0)"><path fill="rgb(250,0,50)" fill-opacity="1" d=" M1543.2950439453125,-205.3560028076172 C1543.2950439453125,-205.3560028076172 1543.2950439453125,0 1543.2950439453125,0 C1543.2950439453125,0 1682.2960205078125,0 1682.2960205078125,0 C1682.2960205078125,0 1682.2960205078125,-32.03300094604492 1682.2960205078125,-32.03300094604492 C1682.2960205078125,-32.03300094604492 1579.33203125,-32.03300094604492 1579.33203125,-32.03300094604492 C1579.33203125,-32.03300094604492 1579.33203125,-89.80699920654297 1579.33203125,-89.80699920654297 C1579.33203125,-89.80699920654297 1665.9940185546875,-89.80699920654297 1665.9940185546875,-89.80699920654297 C1665.9940185546875,-89.80699920654297 1665.9940185546875,-121.84100341796875 1665.9940185546875,-121.84100341796875 C1665.9940185546875,-121.84100341796875 1579.33203125,-121.84100341796875 1579.33203125,-121.84100341796875 C1579.33203125,-121.84100341796875 1579.33203125,-173.322998046875 1579.33203125,-173.322998046875 C1579.33203125,-173.322998046875 1682.2960205078125,-173.322998046875 1682.2960205078125,-173.322998046875 C1682.2960205078125,-173.322998046875 1682.2960205078125,-205.3560028076172 1682.2960205078125,-205.3560028076172 C1682.2960205078125,-205.3560028076172 1543.2950439453125,-205.3560028076172 1543.2950439453125,-205.3560028076172z"></path></g><g opacity="1" transform="matrix(1,0,0,1,0,0)"><path fill="rgb(250,0,50)" fill-opacity="1" d=" M1382.552001953125,0 C1382.552001953125,0 1515.8330078125,0 1515.8330078125,0 C1515.8330078125,0 1515.8330078125,-32.03300094604492 1515.8330078125,-32.03300094604492 C1515.8330078125,-32.03300094604492 1419.1610107421875,-32.03300094604492 1419.1610107421875,-32.03300094604492 C1419.1610107421875,-32.03300094604492 1419.1610107421875,-205.3560028076172 1419.1610107421875,-205.3560028076172 C1419.1610107421875,-205.3560028076172 1382.552001953125,-205.3560028076172 1382.552001953125,-205.3560028076172 C1382.552001953125,-205.3560028076172 1382.552001953125,0 1382.552001953125,0z"></path></g><g opacity="1" transform="matrix(1,0,0,1,0,0)"><path fill="rgb(250,0,50)" fill-opacity="1" d=" M1256.657958984375,-164.74200439453125 C1256.657958984375,-164.74200439453125 1289.262939453125,-78.93900299072266 1289.262939453125,-78.93900299072266 C1289.262939453125,-78.93900299072266 1224.625,-78.93900299072266 1224.625,-78.93900299072266 C1224.625,-78.93900299072266 1256.657958984375,-164.74200439453125 1256.657958984375,-164.74200439453125z M1236.636962890625,-205.3560028076172 C1236.636962890625,-205.3560028076172 1158.842041015625,0 1158.842041015625,0 C1158.842041015625,0 1195.166015625,0 1195.166015625,0 C1195.166015625,0 1212.612060546875,-46.90599822998047 1212.612060546875,-46.90599822998047 C1212.612060546875,-46.90599822998047 1301.2760009765625,-46.90599822998047 1301.2760009765625,-46.90599822998047 C1301.2760009765625,-46.90599822998047 1319.008056640625,0 1319.008056640625,0 C1319.008056640625,0 1355.904052734375,0 1355.904052734375,0 C1355.904052734375,0 1278.1090087890625,-205.3560028076172 1278.1090087890625,-205.3560028076172 C1278.1090087890625,-205.3560028076172 1236.636962890625,-205.3560028076172 1236.636962890625,-205.3560028076172z"></path></g><g opacity="1" transform="matrix(1,0,0,1,0,0)"><path fill="rgb(250,0,50)" fill-opacity="1" d=" M1132.2330322265625,-205.3560028076172 C1132.2330322265625,-205.3560028076172 1097.053955078125,-205.3560028076172 1097.053955078125,-205.3560028076172 C1097.053955078125,-205.3560028076172 1097.053955078125,-61.492000579833984 1097.053955078125,-61.492000579833984 C1097.053955078125,-61.492000579833984 1000.9539794921875,-205.3560028076172 1000.9539794921875,-205.3560028076172 C1000.9539794921875,-205.3560028076172 963.2009887695312,-205.3560028076172 963.2009887695312,-205.3560028076172 C963.2009887695312,-205.3560028076172 963.2009887695312,0 963.2009887695312,0 C963.2009887695312,0 998.3800048828125,0 998.3800048828125,0 C998.3800048828125,0 998.3800048828125,-150.72799682617188 998.3800048828125,-150.72799682617188 C998.3800048828125,-150.72799682617188 1100.199951171875,0 1100.199951171875,0 C1100.199951171875,0 1132.2330322265625,0 1132.2330322265625,0 C1132.2330322265625,0 1132.2330322265625,-205.3560028076172 1132.2330322265625,-205.3560028076172z"></path></g><g opacity="1" transform="matrix(1,0,0,1,0,0)"><path fill="rgb(250,0,50)" fill-opacity="1" d=" M917.2249755859375,-205.3560028076172 C917.2249755859375,-205.3560028076172 880.6160278320312,-205.3560028076172 880.6160278320312,-205.3560028076172 C880.6160278320312,-205.3560028076172 880.6160278320312,0 880.6160278320312,0 C880.6160278320312,0 917.2249755859375,0 917.2249755859375,0 C917.2249755859375,0 917.2249755859375,-205.3560028076172 917.2249755859375,-205.3560028076172z"></path></g><g opacity="1" transform="matrix(1,0,0,1,0,0)"><path fill="rgb(250,0,50)" fill-opacity="1" d=" M803.3419799804688,0 C803.3419799804688,0 836.8049926757812,0 836.8049926757812,0 C836.8049926757812,0 836.8049926757812,-110.68599700927734 836.8049926757812,-110.68599700927734 C836.8049926757812,-110.68599700927734 747.5700073242188,-110.68599700927734 747.5700073242188,-110.68599700927734 C747.5700073242188,-110.68599700927734 747.5700073242188,-78.65299987792969 747.5700073242188,-78.65299987792969 C747.5700073242188,-78.65299987792969 801.6259765625,-78.65299987792969 801.6259765625,-78.65299987792969 C800.4819946289062,-49.47999954223633 781.0330200195312,-28.315000534057617 751.2880249023438,-28.315000534057617 C716.1090087890625,-28.315000534057617 692.083984375,-58.060001373291016 692.083984375,-102.39199829101562 C692.083984375,-146.7239990234375 716.1090087890625,-176.18299865722656 750.7160034179688,-176.18299865722656 C775.31298828125,-176.18299865722656 792.4739990234375,-162.16799926757812 798.47998046875,-137.85699462890625 C798.47998046875,-137.85699462890625 833.3729858398438,-149.58399963378906 833.3729858398438,-149.58399963378906 C820.7890014648438,-185.90699768066406 792.4739990234375,-208.5019989013672 750.4299926757812,-208.5019989013672 C695.22998046875,-208.5019989013672 655.4739990234375,-164.1699981689453 655.4739990234375,-101.81999969482422 C655.4739990234375,-39.75600051879883 694.9439697265625,3.1459999084472656 748.1420288085938,3.1459999084472656 C775.0269775390625,3.1459999084472656 795.0479736328125,-7.435999870300293 803.3419799804688,-21.165000915527344 C803.3419799804688,-21.165000915527344 803.3419799804688,0 803.3419799804688,0z"></path></g><g opacity="1" transform="matrix(1,0,0,1,0,0)"><path fill="rgb(250,0,50)" fill-opacity="1" d=" M511.6189880371094,-110.97200012207031 C511.6189880371094,-110.97200012207031 511.6189880371094,-173.89500427246094 511.6189880371094,-173.89500427246094 C511.6189880371094,-173.89500427246094 555.093017578125,-173.89500427246094 555.093017578125,-173.89500427246094 C581.406005859375,-173.89500427246094 595.4199829101562,-162.74000549316406 595.4199829101562,-142.43299865722656 C595.4199829101562,-122.41200256347656 581.406005859375,-110.97200012207031 555.093017578125,-110.97200012207031 C555.093017578125,-110.97200012207031 511.6189880371094,-110.97200012207031 511.6189880371094,-110.97200012207031z M511.6189880371094,-79.51100158691406 C511.6189880371094,-79.51100158691406 544.7960205078125,-79.51100158691406 544.7960205078125,-79.51100158691406 C544.7960205078125,-79.51100158691406 594.8480224609375,0 594.8480224609375,0 C594.8480224609375,0 636.6060180664062,0 636.6060180664062,0 C636.6060180664062,0 583.6939697265625,-82.37100219726562 583.6939697265625,-82.37100219726562 C613.7249755859375,-89.52100372314453 631.4580078125,-110.11399841308594 631.4580078125,-142.43299865722656 C631.4580078125,-183.90499877929688 602.8569946289062,-205.3560028076172 557.094970703125,-205.3560028076172 C557.094970703125,-205.3560028076172 475.010009765625,-205.3560028076172 475.010009765625,-205.3560028076172 C475.010009765625,-205.3560028076172 475.010009765625,0 475.010009765625,0 C475.010009765625,0 511.6189880371094,0 511.6189880371094,0 C511.6189880371094,0 511.6189880371094,-79.51100158691406 511.6189880371094,-79.51100158691406z"></path></g><g opacity="1" transform="matrix(1,0,0,1,0,0)"><path fill="rgb(250,0,50)" fill-opacity="1" d=" M349.1159973144531,-164.74200439453125 C349.1159973144531,-164.74200439453125 381.72100830078125,-78.93900299072266 381.72100830078125,-78.93900299072266 C381.72100830078125,-78.93900299072266 317.0830078125,-78.93900299072266 317.0830078125,-78.93900299072266 C317.0830078125,-78.93900299072266 349.1159973144531,-164.74200439453125 349.1159973144531,-164.74200439453125z M329.0950012207031,-205.3560028076172 C329.0950012207031,-205.3560028076172 251.3000030517578,0 251.3000030517578,0 C251.3000030517578,0 287.62298583984375,0 287.62298583984375,0 C287.62298583984375,0 305.07000732421875,-46.90599822998047 305.07000732421875,-46.90599822998047 C305.07000732421875,-46.90599822998047 393.7330017089844,-46.90599822998047 393.7330017089844,-46.90599822998047 C393.7330017089844,-46.90599822998047 411.46600341796875,0 411.46600341796875,0 C411.46600341796875,0 448.3609924316406,0 448.3609924316406,0 C448.3609924316406,0 370.5669860839844,-205.3560028076172 370.5669860839844,-205.3560028076172 C370.5669860839844,-205.3560028076172 329.0950012207031,-205.3560028076172 329.0950012207031,-205.3560028076172z"></path></g><g opacity="1" transform="matrix(1,0,0,1,0,0)"><path fill="rgb(250,0,50)" fill-opacity="1" d=" M136.99899291992188,0 C136.99899291992188,0 190.7689971923828,-158.73599243164062 190.7689971923828,-158.73599243164062 C190.7689971923828,-158.73599243164062 190.7689971923828,0 190.7689971923828,0 C190.7689971923828,0 224.8040008544922,0 224.8040008544922,0 C224.8040008544922,0 224.8040008544922,-205.3560028076172 224.8040008544922,-205.3560028076172 C224.8040008544922,-205.3560028076172 175.61099243164062,-205.3560028076172 175.61099243164062,-205.3560028076172 C175.61099243164062,-205.3560028076172 122.6989974975586,-48.04999923706055 122.6989974975586,-48.04999923706055 C122.6989974975586,-48.04999923706055 69.78700256347656,-205.3560028076172 69.78700256347656,-205.3560028076172 C69.78700256347656,-205.3560028076172 19.448999404907227,-205.3560028076172 19.448999404907227,-205.3560028076172 C19.448999404907227,-205.3560028076172 19.448999404907227,0 19.448999404907227,0 C19.448999404907227,0 53.48400115966797,0 53.48400115966797,0 C53.48400115966797,0 53.48400115966797,-158.73599243164062 53.48400115966797,-158.73599243164062 C53.48400115966797,-158.73599243164062 107.25399780273438,0 107.25399780273438,0 C107.25399780273438,0 136.99899291992188,0 136.99899291992188,0z"></path></g></g></g><g mask="url(#__lottie_element_3_1)" style="display: none;"><g><g><path></path></g></g></g></g></svg>