<?xml version="1.0" encoding="UTF-8" standalone="no"?>
<svg
   version="1.1"
   id="Lager_1"
   x="0px"
   y="0px"
   viewBox="0 0 363.76916 159.6449"
   xml:space="preserve"
   width="363.76917"
   height="159.6449"
   sodipodi:docname="SEB logo.svg"
   inkscape:version="1.4 (86a8ad7, 2024-10-11)"
   xmlns:inkscape="http://www.inkscape.org/namespaces/inkscape"
   xmlns:sodipodi="http://sodipodi.sourceforge.net/DTD/sodipodi-0.dtd"
   xmlns="http://www.w3.org/2000/svg"
   xmlns:svg="http://www.w3.org/2000/svg"><defs
   id="defs1" /><sodipodi:namedview
   id="namedview1"
   pagecolor="#ffffff"
   bordercolor="#000000"
   borderopacity="0.25"
   inkscape:showpageshadow="2"
   inkscape:pageopacity="0.0"
   inkscape:pagecheckerboard="0"
   inkscape:deskcolor="#d1d1d1"
   inkscape:zoom="0.58599945"
   inkscape:cx="51.194587"
   inkscape:cy="354.09589"
   inkscape:window-width="1920"
   inkscape:window-height="1001"
   inkscape:window-x="-9"
   inkscape:window-y="-9"
   inkscape:window-maximized="1"
   inkscape:current-layer="Lager_1" />
<path
   d="M 98.912514,40.728681 79.293499,55.346767 c -9.232471,-7.982244 -21.20584,-9.52099 -27.793596,-9.52099 -6.635841,0 -13.608284,1.923433 -14.666172,6.683928 -1.057888,4.616238 3.269835,8.222673 10.67505,10.242278 8.463102,2.260032 16.108746,4.279637 27.985944,7.64564 17.599401,5.049012 29.668945,12.646574 29.668945,30.294057 0,24.37951 -21.638614,36.97799 -50.586275,36.97799 C 25.629737,137.66967 5.9145547,122.61882 0,115.59829 l 20.724984,-15.48363 c 14.570001,12.69465 24.66802,14.47383 33.131123,14.47383 9.713335,0 18.801555,-2.06769 19.955612,-7.54948 0.961717,-4.42389 -2.692807,-7.93415 -10.963565,-9.857588 C 53.519507,95.017563 45.585348,93.286479 36.785645,90.978351 12.886997,84.727196 6.1549837,70.830399 6.1549837,58.328088 c 0,-17.166634 15.9644893,-34.814126 45.2487483,-34.814126 29.957459,0 47.508782,17.166633 47.508782,17.214719 M 223.88754,25.24505 h -87.42001 v 109.20287 h 89.00684 V 109.25097 H 167.14628 V 91.651556 h 40.15165 V 67.560563 H 167.14628 V 50.1535 h 56.69316 V 25.24505 Z M 113.8672,159.64489 h 6.7801 V 0 h -6.7801 z m 123.09968,0 h 6.78009 V 0 h -6.78009 z m 22.60032,-25.19697 h 70.20529 c 18.75346,0 33.99666,-11.30016 33.99666,-29.42851 0,-14.137227 -9.23247,-23.513963 -22.21564,-27.64934 -0.43278,-0.09617 -0.81746,-0.144256 -1.25023,-0.144256 0.43277,-0.0481 0.86554,-0.09617 1.25023,-0.240429 7.4533,-2.933237 15.62789,-10.771225 15.62789,-24.090994 0,-16.926205 -14.95469,-27.697427 -33.41964,-27.697427 h -64.24264 z m 30.82301,-86.506367 h 24.52376 c 5.62605,0 10.19419,4.47198 10.19419,9.569076 0,5.097097 -4.56814,9.617162 -10.19419,9.617162 h -24.52376 z m 29.95746,62.271127 H 290.34212 V 90.305146 h 30.00555 c 5.28944,0 9.61716,4.279642 9.61716,9.953774 0,5.62603 -4.27964,9.95376 -9.61716,9.95376 z"
   id="path1"
   style="stroke-width:0.480859" />
</svg>
