<svg viewBox="0 0 794 142" width="120" xmlns="http://www.w3.org/2000/svg"><path fill="#008f72" d="M273 109H261c-8 0-14-5-14-11 0-8 7-11 14-11h12V109ZM498 107h-4c-19 0-27-9-27-25 0-17 9-25 27-25h4V107ZM94 101c0-39-57-29-57-42 0-5 3-5 20-5 10 0 20 1 31 2V33c-12-2-24-2-36-2C20 31 0 39 0 60c0 38 57 28 57 41 0 4-3 6-20 6 -13 0-26-1-38-2v26c11 2 29 2 43 2C70 132 94 124 94 101M213 130l-40-52 35-45h-38l-23 31c-1 2-4 2-8 2V0h-34v130h34V89c3 0 7 0 8 2l28 38H213ZM314 130c-4-5-6-9-6-15V65c0-31-27-34-51-34 -12 0-23 1-35 2v23c9-1 19-2 29-2 15 0 22 3 22 9v4h-11c-27 0-50 8-50 31 0 24 14 35 33 35 14 0 22-2 29-10 1 3 2 5 4 8H314ZM421 130V66c0-16-6-35-34-35 -12 0-22 5-27 10 -1-3-3-5-5-8h-35c4 5 6 9 6 15v82h34V56h12c12 0 15 6 15 16v58H421ZM538 130c-4-5-6-9-6-15V0h-34v33h-9c-38 0-56 21-56 48 0 31 15 51 39 51 13 0 21-3 26-10 1 3 3 5 5 8H538ZM587 33h-34v97h34V33ZM587 0h-34v22h34V0ZM701 130c-4-5-6-9-6-15V65c0-31-27-34-51-34 -12 0-23 1-35 2v23c9-1 19-2 29-2 15 0 22 3 22 9v4h-11c-27 0-50 8-50 31 0 24 14 35 33 35 14 0 22-2 29-10 1 3 2 5 4 8H701ZM660 109h-12c-8 0-14-5-14-11 0-8 7-11 14-11h12V109Z"></path><path fill="#008f72" d="M764 142c-17 0-30-12-30-27 0-15 13-27 30-27 17 0 30 12 30 27C794 130 780 142 764 142M764 73c-17 0-30-12-30-27 0-15 13-27 30-27 17 0 30 12 30 27C794 61 780 73 764 73"></path></svg>