<svg width="230" height="40" viewBox="0 0 230 40" fill="none" xmlns="http://www.w3.org/2000/svg">
<g clip-path="url(#clip0_365_7221)">
<path d="M35.7776 11.2946V11.2879H35.77C35.5258 11.1398 35.1543 11.0505 34.9092 11.1616C33.3282 11.0134 31.8137 11.0286 30.2185 11.0505H30.114C29.3054 11.0581 28.4817 11.0647 27.657 11.0505L20.9616 10.9175C19.3015 10.8791 17.6407 10.8886 15.9811 10.946C14.7346 10.9612 13.5175 10.9982 12.2852 11.0277C11.0007 11.0657 7.92043 11.0723 6.08673 11.0799C5.10717 11.0799 4.59506 11.0799 4.5352 11.0875C4.31288 11.1018 4.0535 11.3991 4.0459 11.6442C4.0459 11.7771 4.12001 11.9405 4.35753 11.9557C4.52855 11.9776 5.64208 11.9776 7.66106 11.9776L9.71709 11.9709C10.2662 11.9633 10.5256 11.9709 10.6444 11.9633H10.652C12.1731 11.8075 13.6952 11.8218 15.165 11.8303H15.2762C16.2263 11.837 17.2144 11.837 18.2082 11.7999C18.4087 11.8446 18.631 11.7999 18.8391 11.7553H18.8685C18.9614 11.7338 19.0557 11.7188 19.1507 11.7106C19.3806 11.7705 19.641 11.7705 19.9079 11.7629C20.1683 11.7553 20.4352 11.7553 20.6804 11.8151V11.8218H20.725V11.8142C20.9398 11.7401 21.1336 11.7771 21.3407 11.8218C21.3483 11.8218 21.3854 11.8294 21.3854 11.8294C21.4813 11.8446 21.5706 11.8588 21.6599 11.8588C23.5753 11.8151 25.6903 11.8816 28.3259 12.0821L29.58 12.215H29.5943C30.7002 12.1039 31.8508 12.1932 32.9643 12.2749H32.9871C33.8261 12.3338 34.6118 12.3936 35.3994 12.3708V12.3936L35.4441 12.3642V12.3566L35.8526 12.0222H35.8593L35.8821 12.008L35.8745 12.0004C35.9415 11.8896 35.9685 11.7591 35.9509 11.6308C35.9332 11.5025 35.872 11.3832 35.7776 11.2946Z" fill="white"/>
<path d="M24.6957 25.5147L24.7337 25.4919V25.4102L24.7033 22.8055V22.7903C24.6609 22.3639 24.6387 21.9356 24.6368 21.507C24.6216 20.9941 24.614 20.4602 24.5398 19.9853C24.5322 19.3108 24.3992 18.5832 24.2653 17.886L24.176 17.411L24.1684 17.3654L24.1398 17.3284C24.0353 17.2239 23.9973 17.0909 23.9536 16.9427C23.9242 16.8164 23.8938 16.6834 23.813 16.5571C23.6344 16.2379 23.3598 15.9263 23.1147 15.6585L23.1004 15.6366C23.0406 15.5625 22.9665 15.5179 22.9066 15.4732C22.8696 15.4514 22.8401 15.4286 22.7954 15.3991L22.7432 15.3469L22.7061 15.3545L22.6624 15.3174C22.4392 15.1465 22.2387 15.08 22.0012 14.9983H21.9936C21.9194 14.9023 21.794 14.8871 21.6971 14.8795V14.8206L21.5784 14.7978L20.9988 14.7086L20.918 14.7019L20.8658 14.7684C20.8363 14.7978 20.8363 14.8054 20.71 14.7532C20.6577 14.739 20.5988 14.7162 20.5313 14.7086L20.4572 14.7019L20.4278 14.739C20.4081 14.7207 20.3856 14.7057 20.3613 14.6943L20.1237 14.6278L20.1009 14.739C20.0056 14.7302 19.9098 14.7508 19.8264 14.7978H19.0919L19.129 14.9394H19.1214C18.9656 14.9014 18.8459 14.9983 18.7793 15.0505C18.7651 15.0581 18.7575 15.0724 18.7432 15.08C18.6245 15.0952 18.5494 15.1541 18.4981 15.1911C18.4601 15.2139 18.4459 15.2291 18.4164 15.2291L18.3565 15.2358L18.3195 15.2804C18.2606 15.3469 18.0972 15.421 18.0079 15.458L17.8083 15.5473L17.852 15.5853C17.8226 15.6072 17.7931 15.6214 17.7627 15.6518H17.5775V15.8H17.548L17.4435 15.7553C17.4368 15.7478 17.3694 15.8446 17.3694 15.8446C17.2506 16.0004 17.1024 16.1562 16.9466 16.3272C16.7533 16.5174 16.5793 16.7261 16.4269 16.9503L16.3822 17.0092L16.405 17.0757C16.3746 17.0985 16.2863 17.1584 16.2711 17.2695C16.197 17.3436 16.1818 17.4471 16.1666 17.5146C16.1661 17.5374 16.1613 17.56 16.1523 17.5811C16.0782 17.6704 16.063 17.7663 16.0478 17.8404C16.0335 17.8926 16.0335 17.9221 16.0117 17.9515L15.9148 18.0703L15.9594 18.1007C15.93 18.1672 15.93 18.2489 15.93 18.2859V18.3457L15.8635 18.3894L15.8853 18.4863C15.9072 18.664 15.8853 18.8349 15.8549 19.0135C15.8331 19.1912 15.8179 19.3621 15.8331 19.5626C15.759 19.6737 15.7742 19.8 15.7884 19.8817C15.7884 19.9036 15.796 19.9406 15.796 19.9634L15.7067 20.0375L15.7666 20.1487C15.8179 20.2304 15.7808 20.3633 15.7438 20.4906C15.7067 20.616 15.662 20.7642 15.7067 20.8905C15.6991 20.9057 15.6848 20.9133 15.6772 20.9285C15.665 20.9439 15.6561 20.9616 15.651 20.9806C15.6459 20.9995 15.6448 21.0193 15.6478 21.0387C15.6478 21.1356 15.6402 21.1727 15.6326 21.1803L15.5661 21.3208L15.5585 21.3731L15.6772 21.47C15.662 21.5517 15.6772 21.6258 15.6848 21.6999C15.6991 21.7891 15.7067 21.8262 15.6772 21.8632L15.5955 22.0114L15.6772 22.1007V22.1226C15.6696 22.1824 15.662 22.3011 15.7438 22.3895C15.7438 22.3971 15.7514 22.4199 15.7514 22.4275L15.6107 22.4636L15.7067 22.664C15.7067 22.6792 15.6991 22.6944 15.6924 22.7163C15.6772 22.7685 15.6478 22.8872 15.7143 22.9917C15.6696 23.1019 15.6991 23.2131 15.7143 23.2881C15.7228 23.3093 15.728 23.3318 15.7295 23.3546C15.5965 23.4952 15.663 23.6814 15.6991 23.7849C15.6326 23.8818 15.6478 23.9853 15.662 24.0604L15.4844 24.1193L15.6696 24.3121C15.6613 24.3351 15.6584 24.3598 15.661 24.3841C15.6637 24.4085 15.6718 24.4319 15.6848 24.4527C15.7066 24.4808 15.7346 24.5036 15.7666 24.5192L15.7067 24.5344C15.7067 24.542 15.7143 24.5496 15.7143 24.5572L15.7808 24.7196V24.7424C15.7634 24.8348 15.7821 24.9303 15.8331 25.0093C15.8188 25.0348 15.8089 25.0624 15.8036 25.091L15.7295 25.1651L15.8036 25.2696C15.8559 25.3513 15.8331 25.4472 15.796 25.6106C15.758 25.7512 15.7143 25.9298 15.796 26.0856L15.6991 26.1815L15.8255 26.2784C15.8179 26.286 15.8179 26.2936 15.8179 26.2936C15.7808 26.3525 15.7219 26.4712 15.796 26.59L15.7884 26.5757C15.8179 26.6346 15.8036 26.7315 15.7884 26.8274C15.7742 26.9756 15.7514 27.1542 15.8331 27.3318L15.8112 27.5104L15.8179 27.4876C15.7894 27.5541 15.8112 27.614 15.8331 27.6586L15.7742 27.6814L15.8179 27.8068C15.8559 27.9331 15.8559 28.0889 15.8559 28.2533C15.8559 28.5715 15.8559 28.9277 16.1447 29.1946L16.2046 29.2611L16.2863 29.2326C16.4934 29.1728 16.501 28.9571 16.5086 28.846C16.5162 28.8241 16.5162 28.8014 16.5162 28.7795L16.5238 28.7501L16.5086 28.7197C16.4269 28.4375 16.4639 28.0519 16.4934 27.7251L16.5162 27.4658L16.5238 27.4287L16.501 27.3907C16.4487 27.2806 16.4639 27.1618 16.4715 27.0279C16.4948 26.8976 16.4923 26.7639 16.4639 26.6346C16.5086 26.0267 16.4791 25.299 16.4563 24.6683C16.4487 24.3928 16.4345 24.1411 16.4345 23.9036V23.896L16.4269 23.8884C16.3958 23.5778 16.3907 23.2652 16.4117 22.9537C16.4256 22.6767 16.4209 22.399 16.3974 22.1226C16.4715 21.8186 16.4639 21.5431 16.4639 21.2392C16.4565 21.1031 16.4565 20.9667 16.4639 20.8307V20.787L16.4497 20.7718C16.5162 20.6901 16.5304 20.6084 16.501 20.5267C16.5274 20.425 16.5402 20.3202 16.539 20.2152C16.539 20.1411 16.5456 20.067 16.5532 20.0005L16.5684 19.9625L16.5532 19.934C16.538 19.8675 16.5532 19.7915 16.5684 19.7108C16.6079 19.6084 16.6103 19.4955 16.5751 19.3916C16.6939 19.1693 16.7167 18.8872 16.7385 18.6127L16.7461 18.5158C16.7613 18.4635 16.7385 18.4046 16.6939 18.3524V18.3448C16.6939 18.2261 16.7537 18.1301 16.8354 18.0038C16.9171 17.8708 17.0131 17.7217 17.0349 17.5146L17.0435 17.4699C17.0502 17.4547 17.0654 17.4471 17.072 17.4395C17.1243 17.3949 17.206 17.3208 17.1993 17.2173C17.1993 17.1954 17.1993 17.1793 17.1917 17.165C17.2962 17.0691 17.3551 16.9655 17.414 16.8762C17.4957 16.7347 17.5556 16.6388 17.7181 16.5865L17.7931 16.5647L17.815 16.4896C17.8368 16.4013 17.9195 16.3414 18.0373 16.2673C18.1342 16.2075 18.2378 16.141 18.3128 16.0451C18.4164 16.0517 18.4839 16.0223 18.52 15.9852C18.6332 15.9526 18.7373 15.8941 18.824 15.8142C18.958 15.7107 19.0026 15.6889 19.0919 15.7259L19.1879 15.7705L19.2401 15.7107H19.2553C19.3179 15.6952 19.3731 15.6582 19.4112 15.6062C19.4482 15.6062 19.4853 15.5844 19.5147 15.5777C19.5888 15.5549 19.6116 15.5473 19.6411 15.5625C19.6629 15.5768 19.7076 15.5996 19.7741 15.5768V15.592L19.8862 15.5768L20.0192 15.5625C20.443 15.5103 20.7983 15.458 21.1252 15.6366L21.2439 15.6955L21.3104 15.592C21.3256 15.6072 21.3408 15.63 21.356 15.6442C21.4444 15.7335 21.586 15.8959 21.8007 15.8665C21.8453 15.9045 21.8976 15.933 21.9499 15.9634C21.9641 15.971 21.9869 15.9852 22.0088 16.0004V16.008L22.0382 16.0451C22.0981 16.1334 22.2387 16.1705 22.3498 16.1781C22.595 16.4307 22.8477 16.786 22.8477 16.9427V17.0833H22.9589V17.0909C23.0035 17.2837 23.0558 17.5212 23.204 17.677C23.1593 17.7739 23.1964 17.8926 23.2116 17.9373C23.2189 17.9562 23.2237 17.976 23.2258 17.9962L23.1888 18.1083L23.2857 18.1966L23.3076 18.2194C23.3084 18.3086 23.334 18.3957 23.3817 18.4711C23.3906 18.4879 23.3982 18.5054 23.4045 18.5234L23.3817 18.5756C23.2486 18.8273 23.4263 18.9613 23.508 19.0278L23.5375 19.0582C23.471 19.1019 23.4786 19.1617 23.4634 19.2434L23.4786 19.3545L23.5232 19.4286C23.5232 19.4362 23.5232 19.4362 23.5308 19.4438C23.5375 19.4581 23.5451 19.4951 23.5593 19.5331L23.5156 19.5768L23.4776 19.7032L23.5527 19.8076L23.6049 19.8361C23.6049 19.896 23.6268 19.9482 23.6496 19.9853C23.6496 19.9929 23.6496 20.0005 23.6562 20.0081L23.642 20.067C23.5973 20.3044 23.5308 20.616 23.6866 20.8611C23.679 20.8687 23.6714 20.8687 23.6714 20.8763C23.5973 20.9722 23.6192 21.0758 23.6268 21.1508C23.6344 21.1727 23.642 21.2173 23.6344 21.2325L23.5964 21.3731C23.5964 21.3807 23.6496 21.3949 23.6866 21.4025C23.6866 21.4177 23.679 21.4329 23.679 21.4548L23.641 21.6182H23.7009C23.6942 21.6771 23.6866 21.7293 23.6866 21.7891C23.6866 21.8699 23.6866 21.9297 23.6562 21.9744L23.642 21.9962L23.6344 22.019C23.5897 22.1748 23.6496 22.323 23.7009 22.4417L23.7237 22.5082C23.7078 22.5234 23.6956 22.5419 23.6878 22.5625C23.6801 22.5831 23.6771 22.6051 23.679 22.627C23.679 22.6422 23.6866 22.6574 23.6866 22.665L23.6572 22.6935L23.6857 22.7761C23.6942 22.8274 23.7237 22.8578 23.7608 22.872L23.738 22.8872C23.7313 22.8872 23.7313 22.9984 23.7313 22.9984V23.0354L23.642 23.0573L23.6866 23.1542C23.6558 23.2084 23.6476 23.2725 23.6638 23.3327L23.5973 23.4439C23.6049 23.4439 23.6125 23.5104 23.6714 23.5398C23.6125 23.7327 23.7532 23.8818 23.8349 23.9635C23.8795 24.0005 23.9014 24.03 23.9166 24.0518H23.8501L23.9014 24.238V24.2447C23.8847 24.255 23.8696 24.2678 23.8567 24.2826L23.738 24.3415L23.7826 24.5049L23.7684 24.542C23.738 24.6237 23.7608 24.6826 23.7902 24.7196C23.7902 24.7272 23.7978 24.7272 23.8054 24.7348C23.7463 24.7859 23.709 24.8576 23.7009 24.9352L23.6866 25.0758L23.7978 25.091C23.7915 25.1185 23.7842 25.1457 23.776 25.1727C23.7656 25.2195 23.748 25.2644 23.7237 25.3057C23.7237 25.3133 23.7161 25.3133 23.7161 25.3209L23.909 25.432C23.8874 25.4776 23.8699 25.5249 23.8567 25.5736C23.8501 25.5954 23.8425 25.6182 23.8349 25.6325H23.6572L23.6638 25.8253C23.679 25.8557 23.679 25.8851 23.6866 25.9222C23.6866 25.9592 23.6942 25.9963 23.7009 26.0409V26.2262C23.7009 26.249 23.7009 26.2926 23.7085 26.3373L23.6866 26.3449L23.7009 26.4494C23.7083 26.501 23.7083 26.5535 23.7009 26.6052V26.7011L23.5679 26.7752L23.7237 26.9462V26.9538C23.7085 26.9984 23.6857 27.0583 23.6857 27.1248H23.5679L23.7608 27.3622C23.7826 27.3841 23.7902 27.4363 23.8054 27.481C23.813 27.481 23.813 27.4876 23.813 27.4876C23.7492 27.5598 23.7123 27.6517 23.7085 27.7479C23.7085 27.7698 23.7085 27.8144 23.7009 27.822L23.7456 27.8809C23.7159 27.9042 23.6929 27.935 23.679 27.9702C23.6562 28.0148 23.6562 28.0671 23.6562 28.1117H23.471L23.6268 28.2599L23.4786 28.3188L23.5973 28.4157V28.8013C23.5973 28.8754 23.6344 28.9343 23.6942 28.9571L23.7009 28.9647C23.7344 28.9869 23.7726 29.0011 23.8124 29.0062C23.8523 29.0113 23.8928 29.0072 23.9308 28.9942V29.1576L24.117 29.1063C24.2317 29.0679 24.3538 29.0575 24.4733 29.0759L24.6216 29.1139L24.6444 28.9495C24.7185 28.371 24.7033 27.8144 24.6881 27.273C24.6738 26.7382 24.6596 26.2414 24.7261 25.7436C24.7698 25.6477 24.7261 25.5584 24.6957 25.5137" fill="white"/>
<path d="M13.591 25.5147L13.6195 25.4919V25.4102L13.591 22.8055V22.7903C13.5463 22.3971 13.5387 21.9668 13.5245 21.507C13.5168 20.9941 13.5016 20.4602 13.4275 19.9853C13.4199 19.3108 13.286 18.5823 13.152 17.886L13.0712 17.411L13.0636 17.3654L13.0256 17.3284C12.923 17.2239 12.8926 17.0909 12.848 16.9427C12.8109 16.8164 12.7739 16.6834 12.6998 16.5571C12.5287 16.2379 12.2475 15.9263 12.0024 15.6585L11.9872 15.6366C11.9283 15.5625 11.8542 15.5179 11.7943 15.4732C11.7556 15.4511 11.7184 15.4264 11.6831 15.3991L11.6309 15.3469L11.5938 15.3545L11.5492 15.3174C11.3269 15.1465 11.1264 15.08 10.8889 14.9983H10.8813C10.8147 14.9023 10.6817 14.8871 10.5915 14.8795V14.8206L10.4661 14.7978L9.88649 14.7086L9.80478 14.7019L9.75348 14.7684C9.73067 14.7978 9.72307 14.8054 9.60431 14.7532C9.5454 14.739 9.48555 14.7162 9.41904 14.7086L9.34493 14.7019L9.31548 14.739C9.29575 14.7207 9.27332 14.7057 9.24897 14.6943L9.01144 14.6278L8.98864 14.739C8.89294 14.73 8.7968 14.7506 8.71311 14.7978H7.97868L8.01668 14.9394H8.00908C7.85326 14.9014 7.73355 14.9983 7.67464 15.0505C7.66039 15.0581 7.64519 15.0724 7.63759 15.08C7.54632 15.0907 7.46065 15.1295 7.39246 15.1911C7.34781 15.2139 7.34115 15.2291 7.3041 15.2291L7.24424 15.2358L7.20624 15.2804C7.15493 15.3469 6.98486 15.421 6.89555 15.458L6.70268 15.5473L6.74734 15.5853C6.70933 15.6072 6.68083 15.6214 6.65043 15.6518H6.45755V15.8H6.43475L6.33119 15.7553C6.32359 15.7478 6.25708 15.8446 6.25708 15.8446C6.12735 16.015 5.98609 16.1762 5.83428 16.3272C5.64104 16.5174 5.46696 16.7261 5.31458 16.9503L5.26992 17.0092L5.29937 17.0757C5.26232 17.0985 5.17301 17.1584 5.15876 17.2695C5.08465 17.3436 5.06945 17.4471 5.05425 17.5146C5.05425 17.5364 5.04665 17.5659 5.04665 17.5811C4.98468 17.6546 4.94598 17.7448 4.93548 17.8404C4.92788 17.8926 4.92123 17.9221 4.89843 17.9515L4.81007 18.0703L4.84712 18.1007C4.82432 18.1672 4.82432 18.2489 4.82432 18.2859C4.82432 18.3077 4.81672 18.3381 4.81672 18.3457L4.75021 18.3894L4.77206 18.4863C4.79487 18.664 4.77207 18.8349 4.75021 19.0135C4.71394 19.1942 4.70402 19.3791 4.72076 19.5626C4.6919 19.6099 4.67357 19.6629 4.66701 19.718C4.66045 19.7731 4.66582 19.8289 4.68275 19.8817C4.68275 19.9036 4.69131 19.9406 4.68275 19.9634L4.5944 20.0375L4.6533 20.1487C4.70556 20.2304 4.6685 20.3633 4.63145 20.4906C4.59345 20.616 4.54974 20.7642 4.59345 20.8905C4.58679 20.9057 4.57159 20.9133 4.56494 20.9285C4.5463 20.9624 4.53588 21.0001 4.53454 21.0387C4.53454 21.1356 4.52789 21.1727 4.52789 21.1803L4.45283 21.3208L4.43858 21.3731L4.56494 21.47C4.55734 21.5507 4.56494 21.6258 4.57254 21.6999C4.58679 21.7882 4.59439 21.8262 4.56494 21.8632L4.48323 22.0114L4.56494 22.1007V22.1226C4.56494 22.1824 4.55734 22.3011 4.63145 22.3895C4.63905 22.3971 4.63905 22.4199 4.63905 22.4275L4.49748 22.4636L4.5944 22.664C4.5944 22.6792 4.58679 22.6944 4.58679 22.7163C4.56915 22.7605 4.56136 22.8081 4.56399 22.8557C4.56661 22.9032 4.57958 22.9497 4.602 22.9917C4.55734 23.1019 4.58679 23.2131 4.602 23.2881L4.62385 23.3546C4.48323 23.4952 4.54974 23.6814 4.58679 23.7849C4.52789 23.8818 4.54214 23.9853 4.54974 24.0604L4.37207 24.1193L4.55734 24.3121C4.54771 24.3593 4.55268 24.4084 4.57159 24.4527C4.59336 24.4808 4.62132 24.5036 4.6533 24.5192L4.5944 24.5344C4.5944 24.542 4.602 24.5496 4.6096 24.5572H4.602L4.6685 24.7196V24.7424C4.65105 24.8348 4.66976 24.9303 4.72076 25.0093C4.70306 25.0331 4.69251 25.0615 4.69036 25.091L4.62385 25.1651L4.69036 25.2696C4.75021 25.3503 4.72836 25.4472 4.68371 25.6106C4.6457 25.7512 4.6096 25.9298 4.69036 26.0856L4.58679 26.1815L4.71316 26.2784C4.71316 26.286 4.70556 26.2936 4.69796 26.2936C4.6685 26.3525 4.6096 26.4712 4.69036 26.59L4.68371 26.5757C4.70556 26.6346 4.69036 26.7315 4.68371 26.8274C4.6609 26.9756 4.63905 27.1542 4.72076 27.3318L4.69036 27.5104L4.69796 27.4876C4.68995 27.5162 4.68785 27.5461 4.69177 27.5755C4.69569 27.6049 4.70555 27.6332 4.72076 27.6586L4.6609 27.6814L4.69891 27.8068C4.74261 27.9331 4.75021 28.0889 4.75021 28.2533C4.75021 28.5715 4.75021 28.9277 5.03239 29.1946L5.0913 29.2611L5.17301 29.2326C5.38203 29.1728 5.39629 28.9571 5.40389 28.846V28.7795L5.41054 28.7501L5.40294 28.7197C5.31458 28.4375 5.35163 28.0519 5.38108 27.7251C5.39629 27.6292 5.40389 27.5475 5.40389 27.4658L5.41054 27.4287L5.38868 27.3907C5.33643 27.2806 5.34403 27.1618 5.36588 27.0279C5.39044 26.8974 5.38557 26.763 5.35163 26.6346C5.39629 26.0267 5.36588 25.299 5.34403 24.6683C5.33643 24.3928 5.32218 24.1411 5.32218 23.9036V23.896L5.31458 23.8884C5.29085 23.5775 5.28578 23.2653 5.29937 22.9537C5.31176 22.6767 5.30922 22.3993 5.29177 22.1226C5.35828 21.8186 5.35163 21.5431 5.35163 21.2392C5.34419 21.1031 5.34419 20.9667 5.35163 20.8307V20.787L5.33643 20.7718C5.40294 20.6901 5.41814 20.6084 5.38868 20.5267C5.41814 20.4156 5.41814 20.312 5.42574 20.2152C5.42574 20.1411 5.42574 20.067 5.44759 20.0005L5.45519 19.9625L5.44094 19.934C5.43029 19.8589 5.43779 19.7824 5.46279 19.7108C5.49517 19.6072 5.4978 19.4966 5.47039 19.3916C5.58156 19.1693 5.60341 18.8872 5.62621 18.6127L5.64141 18.5158C5.64806 18.4635 5.62621 18.4046 5.58156 18.3524V18.3448C5.58156 18.2261 5.64141 18.1301 5.72217 18.0038C5.80388 17.8708 5.90079 17.7217 5.92264 17.5146L5.93025 17.4699C5.93785 17.4547 5.95305 17.4471 5.9597 17.4395C6.01195 17.3949 6.09366 17.3208 6.09366 17.2173C6.09366 17.1954 6.08606 17.1793 6.07846 17.165C6.18297 17.0691 6.24188 16.9655 6.30174 16.8762C6.38345 16.7347 6.44235 16.6388 6.60577 16.5865L6.67988 16.5647L6.71028 16.4896C6.72454 16.4013 6.80624 16.3414 6.93261 16.2673C7.02857 16.2075 7.12548 16.141 7.20719 16.0451C7.3117 16.0517 7.37061 16.0223 7.40671 15.9852C7.52031 15.9528 7.62475 15.8942 7.7117 15.8142C7.84471 15.7107 7.89032 15.6889 7.97868 15.7259L8.07559 15.7705L8.12784 15.7107H8.14209C8.18675 15.6955 8.26086 15.6737 8.29791 15.6062C8.34257 15.6062 8.37297 15.5844 8.41002 15.5777C8.47653 15.5549 8.49838 15.5473 8.52879 15.5625C8.55064 15.5768 8.5953 15.5996 8.6542 15.5768L8.6618 15.592L8.77297 15.5768L8.90693 15.5625C9.32973 15.5103 9.68602 15.458 10.0129 15.6366L10.1316 15.6955L10.2057 15.592C10.2133 15.6072 10.2352 15.63 10.2504 15.6442C10.3321 15.7326 10.4803 15.8959 10.6884 15.8665C10.733 15.9045 10.7853 15.933 10.8366 15.9634C10.8518 15.971 10.8746 15.9852 10.8889 16.0004V16.008L10.9259 16.0451C10.9924 16.1334 11.1254 16.1705 11.2375 16.1781C11.4827 16.4307 11.7354 16.786 11.7354 16.9427V17.0833H11.8466V17.0909C11.8836 17.2837 11.9425 17.5212 12.0917 17.677C12.047 17.7739 12.0841 17.8926 12.0983 17.9373C12.106 17.9562 12.1111 17.976 12.1135 17.9962L12.0755 18.1073L12.1724 18.1966L12.1953 18.2194C12.1961 18.3086 12.2217 18.3957 12.2694 18.4711C12.2694 18.4863 12.2846 18.5015 12.2912 18.5234L12.2694 18.5756C12.143 18.8273 12.314 18.9613 12.3957 19.0278C12.41 19.043 12.4176 19.0506 12.4328 19.0582C12.3663 19.1019 12.3663 19.1617 12.3511 19.2434L12.3663 19.3545L12.41 19.4286C12.41 19.4362 12.41 19.4362 12.4176 19.4438C12.4252 19.4581 12.4328 19.4951 12.4556 19.5322L12.4033 19.5768L12.3653 19.7032L12.4404 19.8076L12.4917 19.8361C12.4917 19.896 12.5145 19.9482 12.5363 19.9853C12.5363 19.9929 12.5439 20.0005 12.5439 20.0081L12.5297 20.067C12.4774 20.3044 12.4252 20.616 12.5667 20.8611C12.5667 20.8687 12.5591 20.8687 12.5515 20.8763C12.4917 20.9722 12.5069 21.0758 12.5135 21.1508C12.5221 21.1727 12.5297 21.2173 12.5297 21.2325L12.4917 21.3731C12.485 21.3807 12.5363 21.3949 12.5734 21.4025C12.5734 21.4177 12.5667 21.4329 12.5667 21.4548L12.5287 21.6182H12.5886C12.581 21.6771 12.5734 21.7293 12.5734 21.7891C12.5734 21.8699 12.5734 21.9297 12.5449 21.9744L12.5297 21.9962L12.5221 22.019C12.4774 22.1748 12.5363 22.323 12.581 22.4417C12.5938 22.4624 12.6037 22.4848 12.6104 22.5082C12.5934 22.5224 12.5803 22.5409 12.5727 22.5617C12.565 22.5826 12.5629 22.6051 12.5667 22.627C12.5667 22.6422 12.5667 22.6574 12.5734 22.665L12.5449 22.6935L12.5667 22.7761C12.5717 22.7975 12.5817 22.8173 12.5959 22.834C12.6101 22.8507 12.6281 22.8638 12.6485 22.872L12.6256 22.8872C12.618 22.8872 12.618 22.9984 12.618 22.9984V23.0354L12.5287 23.0573L12.5734 23.1542C12.5515 23.1988 12.5297 23.2653 12.5515 23.3327L12.4917 23.4439C12.4917 23.4439 12.4993 23.5104 12.5515 23.5398C12.4993 23.7327 12.6409 23.8818 12.7292 23.9635C12.7672 24.0005 12.7891 24.03 12.8043 24.0518H12.7292L12.7891 24.238V24.2447C12.7739 24.2523 12.7596 24.2675 12.7444 24.2826L12.6333 24.3415L12.6703 24.5049L12.6551 24.542C12.6332 24.6237 12.6475 24.6826 12.6779 24.7196C12.6779 24.7272 12.6855 24.7272 12.6922 24.7348C12.6361 24.7881 12.5996 24.8587 12.5886 24.9352L12.5734 25.0758L12.6922 25.091C12.6789 25.1163 12.6715 25.1442 12.6703 25.1727C12.6485 25.2316 12.6409 25.2696 12.6104 25.3057H12.618L12.6038 25.3209L12.7967 25.432C12.7751 25.4776 12.7576 25.5249 12.7444 25.5736C12.7444 25.5954 12.7292 25.6182 12.7226 25.6325H12.5439L12.5515 25.8253C12.5667 25.8557 12.5667 25.8851 12.5734 25.9222C12.5734 25.9602 12.581 25.9963 12.5886 26.0409V26.2262C12.5886 26.249 12.5886 26.2926 12.6038 26.3382L12.5734 26.3449L12.5886 26.4494C12.5997 26.5007 12.5997 26.5538 12.5886 26.6052V26.7011L12.4556 26.7752L12.618 26.9462C12.618 26.9538 12.6104 26.9538 12.6104 26.9538C12.5962 26.9984 12.5734 27.0583 12.5734 27.1248H12.4546L12.6475 27.3622C12.6703 27.3841 12.6855 27.4363 12.6922 27.481L12.6998 27.4876C12.618 27.5693 12.6104 27.6814 12.6038 27.7479C12.5965 27.7721 12.5915 27.7969 12.5886 27.822L12.6409 27.8809C12.6094 27.9043 12.5839 27.9349 12.5667 27.9702C12.547 28.0146 12.5417 28.0641 12.5515 28.1117H12.3587L12.5145 28.2599L12.3663 28.3188L12.4917 28.4157V28.8013C12.4917 28.8754 12.5221 28.9343 12.581 28.9571C12.581 28.9647 12.5886 28.9647 12.5886 28.9647C12.6234 28.9872 12.6629 29.0015 12.704 29.0066C12.7451 29.0117 12.7869 29.0074 12.8261 28.9942V29.1576L13.0047 29.1063C13.1194 29.0679 13.2415 29.0575 13.361 29.0759L13.5092 29.1139L13.5311 28.9495C13.6052 28.371 13.591 27.8144 13.5758 27.273C13.5606 26.7382 13.5539 26.2414 13.6204 25.7436C13.634 25.7057 13.6384 25.6651 13.6333 25.6251C13.6281 25.5852 13.6136 25.547 13.591 25.5137" fill="white"/>
<path d="M35.6212 25.7142L35.6507 25.6923V25.6106L35.6222 23.006V22.9908C35.5797 22.5643 35.5571 22.136 35.5547 21.7075C35.5471 21.1879 35.5319 20.6531 35.4578 20.1857C35.4512 19.5027 35.3172 18.7827 35.1832 18.0779L35.1015 17.6029L35.0949 17.5583L35.0645 17.5298C34.9533 17.4253 34.9163 17.2923 34.8792 17.1432C34.8535 17.0079 34.806 16.8776 34.7386 16.7575C34.56 16.4383 34.2778 16.1268 34.0327 15.8522L34.026 15.8446C33.973 15.7732 33.9045 15.7147 33.8255 15.6737C33.7875 15.6518 33.7505 15.629 33.7134 15.592L33.6621 15.5473L33.6241 15.5549L33.588 15.5169C33.3647 15.3393 33.1567 15.2728 32.9191 15.1911C32.845 15.0952 32.712 15.08 32.6227 15.08V15.0135L32.4963 14.9983L31.9168 14.909L31.836 14.8947L31.7837 14.9612C31.7619 14.9907 31.7543 14.9992 31.6279 14.9536C31.5757 14.9394 31.5168 14.9166 31.4503 14.909L31.3838 14.9014L31.3458 14.9318C31.3315 14.9242 31.3087 14.909 31.2792 14.8938L31.0417 14.8206L31.0265 14.9318C30.9293 14.9303 30.8329 14.9504 30.7443 14.9907H30.3662L30.0099 14.9983L30.0546 15.1313C30.047 15.1313 30.047 15.1398 30.047 15.1398C29.8835 15.1018 29.7648 15.1911 29.6983 15.2509C29.6907 15.2585 29.6755 15.2728 29.6688 15.2728C29.5772 15.2873 29.4919 15.3286 29.4237 15.3915C29.3857 15.4143 29.3714 15.4295 29.3344 15.4295H29.2755L29.2375 15.4808C29.1862 15.5473 29.0151 15.6214 28.9258 15.6585L28.733 15.7477L28.7776 15.7857C28.741 15.8009 28.708 15.8235 28.6807 15.8522H28.4954V16.0004C28.4878 16.0004 28.4736 15.9928 28.466 15.9928L28.3615 15.9482C28.3548 15.9406 28.2874 16.0375 28.2874 16.0375C28.1616 16.213 28.0201 16.3768 27.8646 16.5267C27.6869 16.7205 27.494 16.9275 27.3449 17.1508L27.3002 17.2097L27.3306 17.2761C27.2926 17.2989 27.2042 17.3512 27.189 17.4623C27.1149 17.544 27.0997 17.64 27.0845 17.7141C27.0845 17.7369 27.0845 17.7663 27.0779 17.7739C27.0165 17.8471 26.9799 17.9379 26.9734 18.0332C26.9673 18.0754 26.9524 18.1159 26.9297 18.152L26.8403 18.264L26.8774 18.3011C26.8555 18.3676 26.8555 18.4417 26.8555 18.4863C26.8555 18.5082 26.8479 18.531 26.8479 18.5452L26.7881 18.5832L26.7957 18.6792C26.8251 18.8644 26.8033 19.0278 26.7738 19.214C26.7586 19.3849 26.7358 19.5626 26.751 19.763C26.6769 19.8675 26.6997 19.9929 26.7064 20.0746C26.7123 20.1014 26.7148 20.1288 26.714 20.1563L26.6247 20.2304L26.6845 20.3415C26.7434 20.4232 26.6988 20.5571 26.6617 20.6901C26.6247 20.8088 26.581 20.9656 26.6247 21.0986C26.618 21.1062 26.6028 21.1138 26.5962 21.128C26.5764 21.1617 26.5659 21.2001 26.5658 21.2392C26.5658 21.336 26.5582 21.3655 26.5506 21.3731L26.4917 21.5137L26.4765 21.5735L26.5952 21.6552C26.581 21.7445 26.5952 21.8262 26.6104 21.8927C26.618 21.9886 26.6247 22.0257 26.5952 22.0637L26.5211 22.2043L26.5952 22.2935V22.323C26.5876 22.3895 26.581 22.5016 26.6617 22.5823C26.6693 22.5975 26.6693 22.6127 26.6769 22.627L26.5363 22.665L26.6247 22.8644C26.6247 22.872 26.618 22.8948 26.618 22.9091C26.6028 22.9689 26.5734 23.0877 26.6323 23.1846C26.6005 23.2839 26.6032 23.3909 26.6399 23.4885C26.6399 23.5028 26.6475 23.5322 26.6475 23.555C26.5145 23.6956 26.581 23.8818 26.618 23.9777C26.5582 24.0746 26.5734 24.1934 26.58 24.2598L26.4023 24.3197L26.5876 24.5049C26.5773 24.5555 26.5854 24.608 26.6104 24.6531C26.6291 24.6795 26.6548 24.7003 26.6845 24.713L26.6323 24.7348C26.6323 24.7424 26.6323 24.75 26.6399 24.7576H26.6323L26.6988 24.92V24.9352C26.6838 25.0334 26.705 25.1337 26.7586 25.2174C26.7368 25.2316 26.7292 25.262 26.7206 25.2914L26.6541 25.3655L26.7206 25.47C26.7738 25.5441 26.7586 25.6477 26.714 25.8034C26.6769 25.9516 26.6399 26.1226 26.714 26.286L26.618 26.3819L26.7434 26.4788C26.7434 26.4864 26.7434 26.4864 26.7368 26.494C26.6988 26.5529 26.6399 26.6717 26.714 26.7904V26.7761C26.7368 26.8274 26.7216 26.9243 26.714 27.0279C26.6997 27.1761 26.6769 27.3546 26.752 27.5256L26.7292 27.7109L26.7368 27.6814C26.7179 27.7402 26.723 27.804 26.751 27.859L26.6921 27.8818L26.7368 28.0006C26.7738 28.1336 26.7738 28.2893 26.7738 28.4603C26.7738 28.7719 26.7738 29.1281 27.0627 29.395L27.1225 29.4549L27.2042 29.4321C27.4123 29.3732 27.4266 29.1576 27.4342 29.0464V28.9799L27.4418 28.9505L27.4342 28.9125C27.3449 28.6313 27.3819 28.2523 27.4123 27.9189C27.419 27.8296 27.4342 27.7479 27.4342 27.6662L27.4418 27.6282L27.419 27.5921C27.3601 27.4734 27.3743 27.3546 27.3895 27.2283C27.4166 27.0958 27.414 26.9589 27.3819 26.8274C27.4342 26.2195 27.3971 25.5071 27.3743 24.8687C27.3677 24.5933 27.3601 24.3415 27.3525 24.1041V24.0965L27.3449 24.0889C27.3214 23.7779 27.3167 23.4657 27.3306 23.1542C27.3467 22.8747 27.3441 22.5945 27.323 22.3154C27.3895 22.019 27.3819 21.736 27.3743 21.4396V21.0169L27.3819 20.9874L27.3743 20.9722C27.4342 20.8905 27.4494 20.8088 27.419 20.7272C27.4458 20.6229 27.4586 20.5156 27.457 20.408C27.4636 20.3339 27.4636 20.2674 27.4788 20.2009L27.4864 20.1629L27.4788 20.1344C27.4636 20.067 27.4788 19.9919 27.4931 19.9112C27.5159 19.8143 27.5377 19.6956 27.5007 19.592C27.6118 19.3621 27.6337 19.08 27.6565 18.8131L27.6717 18.7238C27.6756 18.6926 27.6722 18.6609 27.6619 18.6313C27.6515 18.6016 27.6344 18.5748 27.6118 18.5528V18.5386C27.6118 18.4198 27.6717 18.3296 27.7534 18.2042C27.8351 18.0636 27.9311 17.9145 27.9615 17.7074V17.6694C27.9681 17.6552 27.9833 17.6476 27.99 17.6409C28.0432 17.5887 28.1239 17.5288 28.1239 17.4177C28.1239 17.3958 28.1239 17.373 28.1097 17.3578C28.2142 17.2695 28.2807 17.165 28.332 17.0691C28.4137 16.9361 28.4736 16.8316 28.636 16.7869L28.7111 16.7641L28.733 16.6834C28.7624 16.5941 28.8375 16.5419 28.9629 16.4678C29.0598 16.4079 29.1558 16.3414 29.2384 16.2455C29.342 16.2521 29.4009 16.2227 29.4379 16.179C29.5524 16.1471 29.6586 16.0911 29.7496 16.0147C29.8759 15.9035 29.9206 15.8817 30.0099 15.9263L30.1059 15.971L30.1581 15.9045H30.1733C30.2057 15.9002 30.2369 15.8894 30.265 15.8728C30.2931 15.8561 30.3175 15.834 30.3367 15.8076C30.3738 15.8 30.4108 15.7848 30.4327 15.7772C30.5144 15.7487 30.5296 15.7487 30.5591 15.7629C30.5809 15.7772 30.6332 15.7924 30.6921 15.7772L30.6997 15.7924L30.8042 15.7772L30.9448 15.7553C31.361 15.7031 31.7239 15.6585 32.0441 15.837L32.1695 15.8959L32.236 15.7924C32.2512 15.8076 32.2588 15.8218 32.274 15.8446C32.3624 15.933 32.5115 16.0964 32.7187 16.0593C32.7633 16.0973 32.8232 16.1334 32.8678 16.1562C32.8821 16.1705 32.9125 16.1781 32.9267 16.1933V16.2009L32.9562 16.2455C33.0227 16.3272 33.1652 16.3709 33.2754 16.3709C33.5129 16.6312 33.7657 16.9798 33.7657 17.1432V17.2837H33.8768V17.2989C33.9215 17.4842 33.9737 17.7217 34.122 17.8784C34.0849 17.9734 34.1144 18.0931 34.1296 18.1444C34.1387 18.1575 34.1436 18.173 34.1438 18.189L34.1153 18.3011L34.2037 18.397L34.2331 18.4046C34.2248 18.4962 34.2483 18.5878 34.2996 18.664C34.3072 18.6792 34.3148 18.7086 34.3224 18.7238L34.3006 18.776C34.1742 19.0202 34.3443 19.1693 34.426 19.2206C34.4412 19.2358 34.4488 19.2434 34.464 19.251C34.3975 19.3023 34.3975 19.3545 34.3823 19.4438L34.3965 19.555L34.4412 19.6215H34.4488V19.6443C34.4564 19.6661 34.4631 19.6956 34.4783 19.726L34.4336 19.7706L34.3965 19.9036L34.4707 20.0081L34.5305 20.0366C34.5229 20.0888 34.5524 20.1487 34.5676 20.1791C34.5676 20.1857 34.5752 20.1933 34.5752 20.2009L34.56 20.2674C34.5077 20.5049 34.4488 20.8088 34.6046 21.0615L34.597 21.0691C34.5229 21.1651 34.5381 21.2686 34.5524 21.3436C34.5524 21.3655 34.56 21.4101 34.56 21.4253L34.5153 21.5735C34.5153 21.5811 34.5676 21.5887 34.6122 21.603C34.6028 21.616 34.5975 21.6315 34.597 21.6476L34.56 21.8262H34.6198C34.6122 21.8775 34.6122 21.9373 34.6122 21.982C34.6046 22.0637 34.6046 22.1226 34.5742 22.1748L34.56 22.1891V22.2119C34.5077 22.3676 34.5676 22.5234 34.6198 22.6346L34.6417 22.7011C34.6125 22.7366 34.5967 22.7814 34.597 22.8274C34.597 22.8426 34.6046 22.8502 34.6046 22.8654L34.5752 22.8939L34.6037 22.9832C34.6122 23.0278 34.6417 23.0573 34.6787 23.0801H34.6569C34.6493 23.0801 34.6493 23.1988 34.6493 23.1988V23.2359L34.56 23.2577L34.6046 23.3546C34.574 23.4085 34.5658 23.4723 34.5818 23.5322L34.5229 23.6443C34.5229 23.6443 34.5381 23.7108 34.5894 23.7403C34.5305 23.9331 34.6711 24.0822 34.7604 24.1706C34.7975 24.201 34.8193 24.2228 34.8345 24.2447H34.7604L34.8193 24.4384L34.7823 24.4755L34.6635 24.542L34.7015 24.6978L34.6863 24.7424C34.6635 24.8241 34.6863 24.883 34.7082 24.9134C34.7158 24.9276 34.7158 24.9276 34.7234 24.9352C34.667 24.9884 34.6301 25.059 34.6189 25.1357L34.6122 25.2686L34.7234 25.2838C34.7082 25.3133 34.7006 25.3503 34.6939 25.3731C34.6787 25.4254 34.6711 25.47 34.6417 25.5061H34.6493C34.6417 25.5061 34.6417 25.5137 34.6417 25.5213L34.8345 25.6325C34.8051 25.6847 34.7899 25.737 34.7756 25.774C34.768 25.7882 34.7604 25.8186 34.7528 25.8329H34.5818L34.5894 26.0191C34.597 26.0476 34.6046 26.078 34.6046 26.1226C34.6046 26.1521 34.6122 26.1967 34.6189 26.2414V26.4266C34.6189 26.4494 34.6189 26.4864 34.6341 26.5311L34.6122 26.5453L34.6189 26.6422C34.6341 26.7011 34.6265 26.7467 34.6189 26.8056V26.9015L34.4859 26.968L34.6493 27.1466L34.6417 27.1542C34.6265 27.1989 34.6037 27.2502 34.6037 27.3252H34.4935L34.6863 27.5627C34.7006 27.5769 34.7158 27.6292 34.731 27.6738C34.731 27.6738 34.731 27.6814 34.7376 27.6814C34.6493 27.7631 34.6417 27.8809 34.6341 27.9407C34.6341 27.9702 34.6265 28.0072 34.6189 28.0224V28.0148L34.6711 28.0813C34.6401 28.1052 34.6148 28.1357 34.597 28.1706C34.5782 28.2123 34.5728 28.2588 34.5818 28.3036H34.3889L34.5448 28.4679L34.3965 28.5126L34.5229 28.6085V29.0018C34.5229 29.0683 34.56 29.1281 34.6122 29.1576L34.6198 29.1652C34.7006 29.2174 34.7823 29.2098 34.8573 29.1946V29.358L35.0426 29.3067C35.1515 29.2646 35.2701 29.2541 35.3847 29.2763L35.5471 29.3067L35.5623 29.1509C35.6364 28.5715 35.6212 28.0072 35.607 27.4658C35.5918 26.9386 35.5842 26.4418 35.6507 25.945C35.6645 25.907 35.6692 25.8663 35.6642 25.8261C35.6593 25.786 35.6439 25.7476 35.6212 25.7142Z" fill="white"/>
<path d="M37.8931 37.892H2.10829V2.1091H37.8931V37.892ZM40.0081 0.000305176H0V40.0008H40.009L40.0081 0.000305176Z" fill="white"/>
<path d="M142.836 27.747C142.836 31.6292 139.993 32.5269 138.315 32.5269C137.447 32.5269 136.593 32.4898 135.583 32.0747C134.388 31.5846 134.285 30.9614 134.285 28.4898V19.6443C134.285 19.4514 134.351 19.3764 134.499 19.3764C135.064 19.3764 135.435 19.3764 136.111 19.4144C137.565 19.4885 138.419 19.7478 139.206 20.312C142.049 22.2859 142.836 25.4254 142.836 27.7479M129.793 23.2577C129.793 26.6945 129.793 29.6553 129.608 31.2132C129.452 32.3046 129.274 33.1206 128.532 33.2764C128.088 33.3717 127.635 33.4216 127.181 33.4255C126.728 33.4255 126.587 33.529 126.587 33.7219C126.587 33.9812 126.847 34.0923 127.33 34.0923C128.822 34.0923 131.182 33.9812 132.028 33.9812C133.163 33.9812 136.556 34.2044 137.447 34.2044C144.327 34.2044 147.43 30.0562 147.43 26.0637C147.43 21.6923 143.689 19.043 140.631 17.9895C142.687 16.3557 144.438 14.5309 144.438 11.4589C144.438 9.48407 143.251 5.85543 136.481 5.85543C135.212 5.85543 133.75 5.96657 131.925 5.96657C131.182 5.96657 128.821 5.85543 126.847 5.85543C126.283 5.85543 126.023 5.92953 126.023 6.1974C126.023 6.45672 126.246 6.53082 126.661 6.53082C127.181 6.53082 127.812 6.56881 128.117 6.64196C129.349 6.90223 129.646 7.49592 129.719 8.765C129.793 9.96663 129.793 11.0058 129.793 16.6901V23.2577ZM134.285 8.09721C134.285 7.68115 134.351 7.53962 134.618 7.45888C134.99 7.38383 135.331 7.38383 135.85 7.38383C139.057 7.38383 140.519 10.6715 140.519 13.1726C140.519 15.0059 139.956 16.3566 138.983 17.128C138.344 17.6922 137.521 17.848 136.296 17.848C135.435 17.848 134.878 17.8109 134.537 17.7369C134.388 17.6922 134.285 17.6257 134.285 17.3141V8.09626" fill="white"/>
<path d="M199.953 6.13661C198.127 6.13661 196.717 6.2411 196.308 6.2411C195.529 6.2411 193.74 6.13661 191.818 6.13661C191.254 6.13661 190.853 6.1746 190.853 6.47097C190.853 6.6942 190.993 6.79774 191.432 6.79774C191.959 6.79774 192.85 6.79774 193.406 7.02762C194.304 7.40663 194.631 8.10386 194.675 10.3675L195.046 27.0355H194.861C194.223 26.4494 189.219 21.0986 186.688 18.5756C181.263 13.1878 175.629 7.14636 175.176 6.64955C174.545 5.98937 174.211 5.50682 173.803 5.50682C173.432 5.50682 173.328 6.01882 173.328 6.76829L172.986 28.7491C172.949 31.9702 172.592 33.3438 171.836 33.3438C170.418 33.3438 170.009 32.4309 168.726 29.3656C166.35 23.726 160.405 8.57881 159.507 6.53082C159.136 5.6778 158.92 5.35103 158.586 5.35103C158.215 5.35103 157.992 5.75949 157.54 6.83479L148.232 30.1521C147.481 31.9997 146.776 33.2621 145.07 33.4844C144.766 33.529 144.743 33.5509 144.401 33.5509C144.104 33.5509 143.964 33.6402 143.964 33.8548C143.964 34.1522 144.186 34.2187 144.669 34.2187C146.591 34.2187 148.15 34.1151 148.558 34.1151C149.717 34.1151 151.297 34.2196 152.5 34.2196C152.908 34.2196 153.123 34.1531 153.123 33.8558C153.123 33.6402 153.012 33.5518 152.574 33.5518H152.009C150.86 33.5518 150.525 33.0769 150.525 32.4157C150.525 31.9626 150.718 31.0726 151.082 30.1521L153.093 24.8383C153.16 24.6085 153.234 24.542 153.427 24.542H161.703C161.882 24.542 162.001 24.6085 162.074 24.7946L165.051 32.6684C165.229 33.113 164.977 33.4473 164.709 33.529C164.339 33.5509 164.19 33.6402 164.19 33.8558C164.19 34.1151 164.636 34.1151 165.303 34.1522C168.272 34.2187 170.982 34.2187 172.318 34.2187C173.149 34.2187 176.593 34.1968 178.998 34.1968C179.518 34.1968 179.852 34.1303 179.852 33.8263C179.852 33.6107 179.63 33.529 179.221 33.529C178.628 33.529 177.929 33.4996 177.298 33.2764C176.557 33.017 176.066 32.0443 175.992 29.1509L175.591 13.5582H175.703C176.371 14.264 180.482 18.909 184.536 22.9167C188.396 26.7315 193.139 31.5922 195.491 33.8254C195.9 34.2415 196.338 34.6423 196.746 34.6423C197.088 34.6423 197.229 34.3155 197.229 33.4996L197.637 10.0711C197.674 7.99272 197.971 7.2138 199.018 6.91743C199.47 6.79774 199.752 6.79774 200.124 6.79774C200.569 6.79774 200.792 6.69325 200.792 6.47097C200.792 6.1746 200.421 6.13661 199.953 6.13661ZM160.998 22.6868H154.17C154.014 22.6868 153.976 22.5681 154.014 22.4265L157.435 13.2913C157.473 13.1431 157.54 12.9493 157.658 12.9493C157.762 12.9493 157.807 13.1431 157.844 13.2913L161.191 22.4569C161.214 22.5681 161.191 22.6868 160.998 22.6868Z" fill="white"/>
<mask id="mask0_365_7221" style="mask-type:luminance" maskUnits="userSpaceOnUse" x="199" y="5" width="32" height="30">
<path d="M199.522 5.69965H230.002V34.1968H199.522V5.69965Z" fill="white"/>
</mask>
<g mask="url(#mask0_365_7221)">
<path fill-rule="evenodd" clip-rule="evenodd" d="M208.393 16.8534C208.393 11.2129 208.393 10.1737 208.474 8.98822C208.541 7.68115 208.837 7.05801 209.841 6.86423C210.285 6.79774 210.508 6.76164 210.88 6.76164C211.176 6.76164 211.406 6.68565 211.406 6.41968C211.406 6.167 211.14 6.08531 210.627 6.08531C209.358 6.08531 207.019 6.1974 206.129 6.1974C205.236 6.1974 202.899 6.08531 200.932 6.08531C200.376 6.08531 200.115 6.167 200.115 6.41968C200.115 6.68565 200.339 6.76164 200.748 6.76164C201.267 6.76164 201.898 6.79964 202.194 6.86423C203.42 7.12451 203.716 7.72485 203.79 8.98632C203.866 10.1737 203.866 11.2129 203.866 16.8534V23.385C203.866 26.797 203.866 29.7361 203.68 31.2882C203.53 32.3635 203.346 33.188 202.603 33.3286C202.268 33.4027 201.824 33.4768 201.267 33.4768C200.822 33.4768 200.672 33.5889 200.672 33.7732C200.672 34.0334 200.932 34.1531 201.415 34.1531C202.899 34.1531 205.238 34.0334 206.091 34.0334C207.019 34.0334 209.358 34.1531 211.442 34.1531C211.843 34.1531 212.142 34.0334 212.142 33.7732C212.142 33.5889 211.955 33.4768 211.659 33.4768C211.176 33.4768 210.359 33.4027 209.841 33.3286C208.911 33.188 208.579 32.3635 208.505 31.3243C208.393 29.7361 208.393 26.797 208.393 23.3831V20.0071H208.579L208.987 20.5638C209.766 21.641 217.077 30.211 218.711 31.6587C220.313 33.0683 221.314 33.8928 223.319 34.0714C224.098 34.1531 224.767 34.1531 225.88 34.1531H229.111C229.814 34.1531 230 34.0334 230 33.7732C230 33.5585 229.778 33.4768 229.51 33.4768C229.073 33.4768 228.332 33.3666 227.216 32.9201C225.213 32.1412 223.543 30.4713 221.901 28.9115C220.463 27.5399 213.179 19.7108 211.843 17.9667C213.105 16.6312 218.711 11.0647 219.862 9.95142C221.457 8.39358 222.726 7.60706 223.876 7.1682C224.582 6.90983 225.51 6.76164 226.028 6.76164C226.401 6.76164 226.585 6.68565 226.585 6.41968C226.585 6.167 226.327 6.08531 225.954 6.08531C224.805 6.08531 222.756 6.1974 221.605 6.1974C220.611 6.1974 218.57 6.08531 217.789 6.08531C217.375 6.08531 217.189 6.167 217.189 6.41968C217.189 6.64195 217.337 6.72365 217.679 6.79964C218.042 6.86423 218.192 7.12451 218.192 7.54057C218.192 8.1713 217.375 9.09081 216.343 10.3238C215.26 11.5853 209.841 17.1137 208.579 18.4854H208.393V16.8534Z" fill="white"/>
</g>
<path fill-rule="evenodd" clip-rule="evenodd" d="M68.8167 34.4941C71.1843 34.4941 73.99 34.2339 75.4741 33.6478C76.0983 33.3875 76.2465 33.2023 76.4318 32.5715C76.8023 31.3176 77.2489 28.0975 77.2489 27.651C77.2489 27.3546 77.1748 27.102 76.9144 27.102C76.618 27.102 76.5439 27.2511 76.4318 27.8372C76.2836 28.505 75.8085 29.5812 75.1776 30.2784C73.6926 31.9788 71.7041 32.3492 68.4005 32.3492C63.4505 32.3492 56.7541 27.9854 56.7541 19.1836C56.7541 15.5996 57.46 12.0821 60.1536 9.60281C61.7878 8.12666 63.8951 7.31734 67.1084 7.31734C70.5164 7.31734 73.4038 8.31189 74.6209 9.60281C75.4928 10.5303 76.0057 11.7379 76.0679 13.0092C76.0679 13.5221 76.1344 13.8261 76.4318 13.8261C76.7662 13.8261 76.8403 13.5221 76.8783 12.9721C76.9515 12.2302 76.9144 10.1965 76.9885 8.97967C77.0627 7.68115 77.1748 7.23565 77.1748 6.94688C77.1748 6.72365 77.0256 6.53842 76.618 6.50042C75.5045 6.39023 74.3244 6.05586 72.9211 5.87063C71.2138 5.6474 69.8485 5.50682 67.5549 5.50682C62.0396 5.50682 58.5289 6.98392 55.8639 9.42518C52.3162 12.6758 51.5361 17.0396 51.5361 19.555C51.5361 23.1466 52.5014 27.2872 56.1232 30.4637C59.4933 33.3875 63.7469 34.4941 68.8167 34.4941ZM98.0401 23.2511C98.0401 26.6574 98.0401 29.5812 97.8538 31.1315C97.7132 32.2001 97.527 33.017 96.785 33.1652C96.4515 33.2393 96.0059 33.3134 95.4567 33.3134C95.0111 33.3134 94.8629 33.4255 94.8629 33.6107C94.8629 33.8624 95.1223 33.9812 95.5973 33.9812C96.3394 33.9812 97.3047 33.9071 98.1512 33.9071C99.0415 33.8624 99.8586 33.8624 100.259 33.8624C100.815 33.8624 101.921 33.9071 103.035 33.9812C104.111 34.0192 105.18 34.0857 105.626 34.0857C112.432 34.0857 115.497 29.9821 115.497 26.0257C115.497 21.6999 111.801 19.0724 108.772 18.0408C110.807 16.4079 112.544 14.5974 112.544 11.5701C112.544 9.60376 111.363 6.01882 104.66 6.01882C103.406 6.01882 101.958 6.12996 100.155 6.12996C99.413 6.12996 97.0824 6.01882 95.1223 6.01882C94.5655 6.01882 94.3052 6.09291 94.3052 6.35318C94.3052 6.61251 94.5285 6.6866 94.937 6.6866C95.4567 6.6866 96.08 6.7246 96.3764 6.79774C97.5945 7.05801 97.8909 7.65171 97.965 8.90558C98.0391 10.0854 98.0391 11.1246 98.0391 16.7423V23.2511M102.486 8.2454C102.486 7.83694 102.56 7.68875 102.812 7.60706C103.183 7.54057 103.517 7.54057 104.037 7.54057C107.214 7.54057 108.661 10.7902 108.661 13.2685C108.661 15.08 108.105 16.4079 107.14 17.1878C106.516 17.7444 105.7 17.8926 104.483 17.8926C103.629 17.8926 103.072 17.8546 102.738 17.7815C102.59 17.7435 102.486 17.6704 102.486 17.373V8.2454ZM110.955 27.6881C110.955 31.5399 108.143 32.4233 106.471 32.4233C105.626 32.4233 104.772 32.3939 103.778 31.9854C102.59 31.5029 102.486 30.8721 102.486 28.4385V19.6661C102.486 19.4809 102.56 19.4144 102.701 19.4144C103.258 19.4144 103.629 19.4144 104.29 19.4514C105.737 19.5179 106.59 19.7772 107.363 20.3263C110.175 22.2926 110.955 25.395 110.955 27.6881ZM83.8692 23.2511C83.8692 26.8417 83.8692 29.7665 83.684 31.3176C83.5728 32.3939 83.3505 33.017 82.6075 33.1576C82.274 33.2393 81.8284 33.3134 81.2792 33.3134C80.8336 33.3134 80.6854 33.4245 80.6854 33.6107C80.6854 33.8624 80.9448 33.9812 81.4275 33.9812C82.9049 33.9812 85.2355 33.8624 86.0887 33.8624C87.0834 33.8624 89.414 33.9812 91.8558 33.9812C92.2644 33.9812 92.5617 33.8624 92.5617 33.6107C92.5617 33.4245 92.3765 33.3134 91.9679 33.3134C91.4112 33.3134 90.6017 33.2393 90.082 33.1576C88.976 33.017 88.7091 32.3492 88.6055 31.3471C88.4497 29.7665 88.4497 26.8426 88.4497 23.2511V16.7423C88.4497 11.1246 88.4497 10.0854 88.5314 8.90558C88.6055 7.60706 88.8943 6.98392 89.8967 6.79774C90.3423 6.72365 90.6387 6.6866 91.0102 6.6866C91.3741 6.6866 91.5964 6.61251 91.5964 6.31614C91.5964 6.09291 91.3 6.01882 90.825 6.01882C89.414 6.01882 87.2317 6.12996 86.3043 6.12996C85.2355 6.12996 82.9049 6.01882 81.5016 6.01882C80.9077 6.01882 80.6113 6.09291 80.6113 6.31519C80.6113 6.61251 80.8336 6.6866 81.2051 6.6866C81.6498 6.6866 82.1324 6.7246 82.5334 6.83479C83.3505 7.02097 83.7134 7.65171 83.7951 8.90558C83.8692 10.0854 83.8692 11.1246 83.8692 16.7423V23.2511Z" fill="white"/>
</g>
<defs>
<clipPath id="clip0_365_7221">
<rect width="230" height="40" fill="white"/>
</clipPath>
</defs>
</svg>
