<svg width="134" height="40" viewBox="0 0 134 40" fill="none" xmlns="http://www.w3.org/2000/svg">
<g clip-path="url(#clip0_354_1304)">
<path d="M0 15.8392C0 14.3658 0.648379 13.5882 2.14645 13.5882H16.8788V16.4555C16.8788 17.9288 16.1101 18.6272 14.5728 18.6272H5.8694V24.0735H15.3807V28.7819H5.8694V34.8023H17.0801V37.6696C17.0801 39.143 16.3114 39.799 14.8134 39.799H2.14645C0.648379 39.799 0 39.0213 0 37.5479V15.8392Z" fill="white"/>
<path d="M19.4675 15.7995C19.4675 14.3658 20.074 13.5882 21.5721 13.5882H30.1134C36.1841 13.5882 39.5855 16.9872 39.5855 22.0235C39.5855 25.6686 37.8051 28.3296 34.4037 29.5596L40.3934 38.6907C40.5947 39.0583 40.7568 39.4286 40.7568 39.7963H35.4939C34.4011 39.7963 33.9958 39.7143 33.3083 38.6087L28.3304 30.5013H25.3342V39.7963H19.4648V15.7995H19.4675ZM25.3369 18.6245V25.5046H29.7082C32.1762 25.5046 33.8782 24.6026 33.8782 22.0235C33.8782 19.4445 32.1788 18.6245 29.7082 18.6245H25.3369Z" fill="white"/>
<path d="M50.1471 13.3818C55.3681 13.3818 58.3643 13.9558 58.3643 16.2889V18.5425H50.7144C48.4477 18.5425 47.5562 19.2382 47.5562 20.5502C47.5562 24.1132 59.7394 23.4995 59.7394 32.2629C59.7394 36.4396 57.1904 40.0026 49.7837 40.0026C45.13 40.0026 41.2842 39.3467 41.2842 37.0956V34.842H50.0687C52.3746 34.842 53.5093 34.104 53.5093 32.5909C53.5093 28.7422 41.3678 29.3136 41.3678 20.3862C41.3678 16.4555 44.1208 13.3845 50.1523 13.3845L50.1471 13.3818Z" fill="white"/>
<path d="M77.5069 13.5881V16.5375C77.5069 17.9712 76.6964 18.6272 75.201 18.6272H71.5173V39.799H65.6479V18.6245H59.6582V15.6752C59.6582 14.2415 60.4268 13.5855 61.9249 13.5855H77.5069V13.5881Z" fill="white"/>
<path d="M79.3688 15.8392C79.3688 14.3658 80.0172 13.5882 81.5153 13.5882H96.2476V16.4555C96.2476 17.9288 95.4789 18.6272 93.9417 18.6272H85.2382V24.0735H94.7495V28.7819H85.2382V34.8023H96.4489V37.6696C96.4489 39.143 95.6803 39.799 94.1822 39.799H81.5127C80.0146 39.799 79.3662 39.0213 79.3662 37.5479V15.8392H79.3688Z" fill="white"/>
<path d="M103.814 32.6385H126.933V29.4987H103.858C103.84 29.1364 103.85 22.0553 103.803 18.7832C103.764 15.9926 105.647 13.276 109.205 13.3369C115.689 13.4453 122.18 13.4453 128.664 13.3316C131.459 13.2813 134.003 15.3578 134 18.7356C134 19.2065 133.997 19.7831 133.997 20.3941H110.857V23.4599L133.997 23.4546C133.997 23.8752 134.005 30.9668 133.997 34.2653C133.987 37.585 131.885 39.672 128.565 39.6747C122.133 39.6747 115.702 39.6747 109.27 39.6747C105.924 39.6747 103.829 37.5638 103.816 34.1807C103.816 33.7098 103.816 33.239 103.816 32.6385" fill="white"/>
<path d="M118.933 10.0595C116.198 10.0595 113.986 7.7794 114.002 4.98082C114.015 2.22987 116.237 -0.00528856 118.951 1.74235e-06C121.662 0.00529205 123.879 2.25103 123.885 4.99934C123.89 7.79262 121.67 10.0622 118.933 10.0595Z" fill="white"/>
</g>
<defs>
<clipPath id="clip0_354_1304">
<rect width="134" height="40" fill="white"/>
</clipPath>
</defs>
</svg>
