<svg width="136" height="40" viewBox="0 0 136 40" fill="none" xmlns="http://www.w3.org/2000/svg">
<g clip-path="url(#clip0_364_7216)">
<path d="M0.160156 15.8392C0.160156 14.3658 0.816666 13.5881 2.33352 13.5881H17.2506V16.4555C17.2506 17.9288 16.4723 18.6272 14.9157 18.6272H6.10316V24.0735H15.7337V28.7819H6.10316V34.8023H17.4544V37.6696C17.4544 39.143 16.6761 39.799 15.1593 39.799H2.33352C0.816666 39.799 0.160156 39.0213 0.160156 37.5479V15.8392ZM19.8713 15.7995C19.8713 14.3658 20.4855 13.5881 22.0023 13.5881H30.6508C36.7976 13.5881 40.2416 16.9872 40.2416 22.0235C40.2416 25.6686 38.4389 28.3296 34.9949 29.5596L41.0596 38.6907C41.2635 39.0583 41.4276 39.4286 41.4276 39.7963H36.0988C34.9922 39.7963 34.5819 39.7143 33.8857 38.6087L28.8454 30.5013H25.8117V39.7963H19.8687V15.7995H19.8713ZM25.8143 18.6245V25.5046H30.2405C32.7394 25.5046 34.4628 24.6026 34.4628 22.0235C34.4628 19.4445 32.7421 18.6245 30.2405 18.6245H25.8143ZM50.9364 13.3818C56.2229 13.3818 59.2566 13.9558 59.2566 16.2889V18.5425H51.5108C49.2157 18.5425 48.313 19.2382 48.313 20.5502C48.313 24.1132 60.649 23.4995 60.649 32.2629C60.649 36.4396 58.068 40.0026 50.5684 40.0026C45.8564 40.0026 41.9623 39.3467 41.9623 37.0956V34.842H50.857C53.1918 34.842 54.3407 34.104 54.3407 32.5909C54.3407 28.7422 42.047 29.3136 42.047 20.3862C42.047 16.4555 44.8346 13.3845 50.9417 13.3845L50.9364 13.3818ZM78.6395 13.5881V16.5375C78.6395 17.9712 77.8189 18.6272 76.3047 18.6272H72.5747V39.799H66.6317V18.6245H60.567V15.6752C60.567 14.2415 61.3452 13.5855 62.8621 13.5855H78.6395V13.5881ZM80.5243 15.8392C80.5243 14.3658 81.1808 13.5881 82.6977 13.5881H97.6147V16.4555C97.6147 17.9288 96.8365 18.6272 95.2799 18.6272H86.4673V24.0735H96.0979V28.7819H86.4673V34.8023H97.8186V37.6696C97.8186 39.143 97.0403 39.799 95.5234 39.799H82.695C81.1782 39.799 80.5217 39.0213 80.5217 37.5479V15.8392H80.5243Z" fill="white"/>
<path d="M105.276 32.6385H128.685V29.4987H105.321C105.302 29.1364 105.313 22.0553 105.265 18.7832C105.226 15.9926 107.132 13.276 110.734 13.3369C117.299 13.4453 123.873 13.4453 130.438 13.3316C133.267 13.2813 135.843 15.3578 135.841 18.7356C135.841 19.2065 135.838 19.7831 135.838 20.3941H112.407V23.4599L135.838 23.4546C135.838 23.8752 135.846 30.9668 135.838 34.2653C135.827 37.585 133.699 39.672 130.337 39.6747H110.801C107.412 39.6747 105.292 37.5638 105.278 34.1807V32.6385M120.585 10.0595C117.816 10.0595 115.576 7.7794 115.592 4.98083C115.605 2.22987 117.855 -0.00528856 120.603 1.74235e-06C123.348 0.00529205 125.593 2.25103 125.599 4.99934C125.604 7.79262 123.356 10.0622 120.585 10.0595Z" fill="white"/>
</g>
<defs>
<clipPath id="clip0_364_7216">
<rect width="136" height="40" fill="white"/>
</clipPath>
</defs>
</svg>
