<svg width="108" height="40" viewBox="0 0 108 40" fill="none" xmlns="http://www.w3.org/2000/svg">
<g clip-path="url(#clip0_365_7308)">
<g clip-path="url(#clip1_365_7308)">
<path fill-rule="evenodd" clip-rule="evenodd" d="M55.1302 2.95C50.6972 2.95 47.3693 6 47.3693 10.275C47.3693 14.6875 50.8605 17.6 55.0926 17.6C57.1772 17.6 59.3623 16.7375 60.6684 15.1625V9.375H54.9544V11.975H57.4786V13.975C56.7047 14.3765 55.8391 14.5704 54.967 14.5375C54.4116 14.5451 53.8606 14.4391 53.3481 14.2261C52.8356 14.0131 52.3725 13.6976 51.9875 13.2992C51.6025 12.9007 51.3038 12.4278 51.11 11.9098C50.9161 11.3917 50.8312 10.8396 50.8605 10.2875C50.8416 9.74438 50.9341 9.20314 51.1324 8.69679C51.3306 8.19044 51.6304 7.72961 52.0135 7.34243C52.3967 6.95525 52.855 6.64983 53.3606 6.44481C53.8663 6.2398 54.4086 6.13949 54.9544 6.15C56.0093 6.15 57.5163 6.575 58.4456 7.4625L59.9149 4.5375C58.5274 3.51296 56.8452 2.96067 55.1177 2.9625M66.42 25.8C67.9521 25.8 68.8814 26.5375 69.1828 27.3125V26.0625H72.3726V35.9875H69.1953V34.7375C68.894 35.5125 67.9647 36.25 66.4326 36.25C63.4814 36.25 61.8112 33.675 61.8112 31.025C61.8112 28.375 63.4814 25.8 66.4326 25.8M67.186 33.3C68.4419 33.3 69.3335 32.3375 69.3335 31.025C69.3335 29.7125 68.4544 28.75 67.1986 28.75C65.9302 28.75 65.0637 29.725 65.0637 31.025C65.0637 32.325 65.9302 33.3 67.1986 33.3M80.9247 25.8C79.5433 25.8 78.413 26.425 78.0991 27.3125V26.0625H74.9219V35.9875H78.0991V30.5875C78.0991 29.3125 78.8274 28.775 79.7065 28.775C80.686 28.775 81.2888 29.4125 81.2888 30.5875V35.9875H84.466V29.4875C84.466 27.1875 82.9214 25.8 80.9247 25.8ZM93.5958 30.7625L96.346 26.0625H92.6414L90.9837 29.3625H89.9665V21.4375H86.7767V35.9875H89.9665V32.1625H90.9712L92.9051 35.9875H96.6474L93.5958 30.7625ZM75.8888 14.6875C77.1447 14.6875 78.0237 13.7375 78.0237 12.4125C78.0237 11.1 77.1447 10.1375 75.8888 10.1375C74.633 10.1375 73.7665 11.125 73.7665 12.4125C73.7665 13.7125 74.6205 14.6875 75.9014 14.6875M75.1479 7.1875C76.68 7.1875 77.6093 7.9375 77.9107 8.7V7.45H81.1005V17.375H77.9107V16.125C77.6093 16.9125 76.68 17.6375 75.1479 17.6375C72.1842 17.6375 70.514 15.0625 70.514 12.4125C70.514 9.7625 72.1842 7.1875 75.1479 7.1875ZM48.6502 21.8125V35.9875H55.0047C58.6088 35.9875 60.5428 34.6125 60.5428 31.9375C60.5428 30.4875 59.3874 29.0375 58.1567 28.75C59.287 28.25 59.9274 27.2375 59.9274 25.8375C59.9274 23.225 58.2572 21.8375 54.653 21.8375H48.6377L48.6502 21.8125ZM54.8414 30.2875C56.1349 30.2875 57.0391 30.675 57.0391 31.7125C57.0391 32.775 56.2354 33.1625 54.9293 33.1625H52.0409V30.2875H54.8414ZM54.5651 24.6625C55.7958 24.6625 56.3986 25.025 56.3986 26.05C56.3986 27.1125 55.7958 27.4625 54.5777 27.4625H52.0284V24.6625H54.5651ZM72.7116 4.275L77.7474 1.775L78.8777 4L73.8293 6.5125L72.7116 4.275ZM98.6567 7.4375H95.4419V17.3625H98.6316L98.6567 7.4375ZM97.0493 2.375C96.7987 2.37332 96.5504 2.4214 96.3187 2.51645C96.0871 2.61149 95.8768 2.75158 95.7002 2.92851C95.5236 3.10545 95.3843 3.31567 95.2903 3.54688C95.1963 3.77808 95.1497 4.02562 95.153 4.275C95.153 5.3375 95.9693 6.15 97.0367 6.15C98.1167 6.15 98.9456 5.3375 98.9456 4.275C98.9489 4.02562 98.9023 3.77808 98.8083 3.54688C98.7144 3.31567 98.575 3.10545 98.3984 2.92851C98.2218 2.75158 98.0115 2.61149 97.7799 2.51645C97.5482 2.4214 97.2999 2.37332 97.0493 2.375ZM107.196 7.45H104.383V4.275H101.193V13.55C101.193 16.05 102.399 17.625 105.087 17.625C106.217 17.625 107.071 17.4125 107.787 17.0375L106.531 14.55C106.33 14.625 106.028 14.675 105.79 14.675C104.986 14.675 104.383 14.3 104.383 13.15V10.25H107.196V7.45ZM89.6023 7.175C88.2209 7.175 87.0907 7.8 86.7767 8.6875V7.4375H83.587V17.3625H86.7767V11.9625C86.7767 10.6875 87.4926 10.15 88.3842 10.15C89.3637 10.15 89.954 10.7875 89.954 11.9625V17.3625H93.1437V10.875C93.1437 8.575 91.5991 7.1875 89.6023 7.1875M68.6679 7.1875C67.2865 7.1875 66.1814 7.8125 65.8549 8.7V7.45H62.6777V17.375H65.8549V11.9625C65.8549 10.6875 66.5833 10.15 67.4623 10.15C68.4167 10.15 68.9693 10.475 69.2581 10.6L70.6898 7.75C70.1037 7.375 69.434 7.18333 68.6805 7.175M12.4702 0H27.4144C30.3065 0.00613381 33.1071 1.00964 35.3395 2.83972C37.5719 4.66981 39.0982 7.21337 39.6586 10.0375L27.2386 16.225C27.4462 15.4868 27.4791 14.7108 27.3348 13.9578C27.1905 13.2048 26.873 12.4953 26.407 11.885C25.941 11.2746 25.3394 10.78 24.6492 10.44C23.9589 10.0999 23.199 9.92367 22.4288 9.925H12.4702V29.775H24.9279C26.887 29.775 28.5698 28.65 29.386 27.025L19.9423 22.325V19.85H39.8847V27.2875C39.8747 30.5765 38.5577 33.7279 36.2212 36.0535C33.8848 38.3792 30.7187 39.6901 27.4144 39.7H12.4702C9.16598 39.6901 5.9999 38.3792 3.66342 36.0535C1.32695 33.7279 0.00993768 30.5765 0 27.2875L0 12.4125C0.00663711 9.12253 1.32259 5.9692 3.65978 3.64283C5.99696 1.31647 9.16496 0.00660639 12.4702 0Z" fill="white"/>
</g>
</g>
<defs>
<clipPath id="clip0_365_7308">
<rect width="108" height="40" fill="white"/>
</clipPath>
<clipPath id="clip1_365_7308">
<rect width="108" height="40" fill="white"/>
</clipPath>
</defs>
</svg>
