<svg width="51" height="40" viewBox="0 0 51 40" fill="none" xmlns="http://www.w3.org/2000/svg">
<path d="M25.6273 17.5006C30.4578 17.5006 34.3776 13.5808 34.3776 8.75031C34.3776 3.91982 30.4578 0 25.6273 0C20.7968 0 16.877 3.91982 16.877 8.75031C16.877 13.5808 20.7968 17.5006 25.6273 17.5006Z" fill="white"/>
<path d="M32.0812 15.8278C30.4182 17.6392 27.4783 19.4407 23.707 19.4407C20.777 19.4407 18.2628 18.3024 16.6592 17.0354C7.09725 18.045 0 19.4605 0 19.4605V23.3309L50.6805 23.321V15.3427C50.6805 15.3526 41.9896 15.2932 32.0812 15.8278Z" fill="white"/>
<path d="M5.46431 32.0614H5.5039L8.8793 27.0725H15.0362L10.2849 33.0314L15.4717 39.7921H9.01788L5.5039 34.3974H5.46431V39.7921H0.0498047V27.0725H5.46431V32.0614ZM33.4772 32.5662C33.0713 34.2094 32.0617 35.4665 30.8541 36.5058C32.3092 37.5848 33.7444 38.634 35.1005 39.7822H28.3299L27.4589 38.9804C26.0632 39.7228 24.1626 40 22.5294 40C19.738 40 16.224 39.2675 16.224 36.2485C16.224 34.6449 17.5603 33.6253 19.0946 33.0611C17.9266 32.4078 16.9961 31.5664 16.9961 30.2598C16.9961 27.5476 20.124 26.8547 23.1332 26.8547C25.7761 26.8547 29.2505 27.1616 29.2505 29.6461C29.2505 31.2893 27.0332 32.4177 25.5089 32.873C26.1721 33.2789 26.8254 33.6946 27.4292 34.1104C27.8944 33.6748 28.2409 33.1601 28.419 32.5761H33.4772V32.5662ZM21.9058 34.8627C21.401 35.2586 21.1139 35.5556 21.1139 36.1891C21.1139 36.9908 22.0642 37.3769 22.955 37.3769C23.5588 37.3769 24.1627 37.1591 24.6279 36.8127L21.9058 34.8627ZM24.6081 30.0223C24.6081 29.3492 24.0241 29.0423 23.1926 29.0423C22.3611 29.0423 21.6385 29.3492 21.6385 30.0223C21.6385 30.7152 22.5096 31.1309 23.1332 31.4774C23.8063 31.0913 24.6081 30.7647 24.6081 30.0223ZM45.1674 27.0725H50.5819V39.7921H45.1674V35.219H41.5544V39.7921H36.1399V27.0725H41.5544V31.4576H45.1674V27.0725Z" fill="white"/>
</svg>
