<svg width="51" height="40" viewBox="0 0 51 40" fill="none" xmlns="http://www.w3.org/2000/svg">
<g clip-path="url(#clip0_365_7311)">
<path d="M12.6052 16.8904C12.6052 13.6046 11.4119 11.9285 9.55154 11.9609C8.16089 11.9847 7.08122 12.5685 6.31712 13.7803C5.8766 13.1663 5.27149 12.8577 4.49973 12.8577C3.53685 12.8577 2.79493 13.209 2.27702 13.9115L2.68324 11.9427C2.68324 11.3636 2.40108 11.0725 1.83421 11.0725C1.47352 11.0725 1.1401 11.1901 1.04767 11.517C0.81804 12.3295 1.74611 12.193 1.59745 12.9965C1.17581 15.262 0 17.6384 0 20.1291C0 21.3186 0.0205275 22.0568 0.0643875 22.3404C0.189975 23.3274 0.520327 23.8208 1.05901 23.8208C1.31618 23.8208 1.52732 23.748 1.69345 23.6034C1.86061 23.4589 1.94221 23.2749 1.94221 23.0544C1.94221 23.1943 1.70366 21.9356 1.70366 21.9356C1.60178 21.0538 1.58636 20.0943 1.58636 19.0667C1.58636 17.4701 1.87604 16.2004 2.14965 15.4115C2.41536 14.651 3.13522 13.5455 4.25531 13.4989C5.71519 13.4392 5.96483 14.8823 5.96483 15.7417C5.96483 15.8117 5.97019 16.2993 5.90236 17.2593C5.83261 18.2209 5.57634 19.2653 5.51399 20.0238C5.33422 22.1132 5.79883 23.1679 6.47891 23.1679C7.0445 23.1679 7.32908 22.8799 7.32908 22.3056C7.32908 22.2241 7.25692 21.9542 7.19597 21.4925C7.13554 21.0265 7.09321 20.6079 7.09321 20.2251C7.09321 17.7401 7.159 16.0963 7.27783 15.2262C7.45735 13.9241 8.12086 12.7296 9.33427 12.5753C10.6587 12.4071 11.6131 13.8755 11.3777 16.8546C11.2667 18.2455 11.1361 19.4353 10.8259 20.79C10.5717 21.8915 10.3284 22.7879 10.3284 22.7942C10.3284 23.3048 10.5394 23.5594 10.9613 23.5594C12.0565 23.5594 12.6052 21.3367 12.6052 16.8904ZM18.6357 20.967C18.6357 21.4811 18.4814 21.882 18.1704 22.1675C17.863 22.4565 17.4331 22.5998 16.8892 22.5998C15.6311 22.5998 15.0014 22.0506 15.0014 20.9532C15.0014 19.8647 15.4934 18.7055 16.9029 18.7239C18.2375 18.7427 18.6357 19.8679 18.6357 20.967ZM19.5273 23.1573C19.9154 21.8653 20.1075 20.6275 20.1075 19.4429C20.1075 16.6 18.9496 15.1782 16.6339 15.1782C16.0109 15.1782 15.4734 15.297 15.0255 15.5348C14.6027 15.756 14.394 15.9952 14.394 16.2538C14.394 16.4095 14.4595 16.5494 14.5894 16.6684C14.7197 16.7898 14.8669 16.8503 15.032 16.8503C15.1325 16.8503 15.1619 16.8555 15.3509 16.7719C15.6918 16.6218 15.8636 16.0532 16.848 15.9068C19.095 15.5757 20.173 19.198 18.2792 18.4699C17.6763 18.2386 17.1076 18.1795 16.6912 18.1732C15.755 18.1587 15.0014 18.4571 14.4366 18.9599C13.8716 19.4641 13.5893 20.1461 13.5893 21.006C13.5893 21.8518 13.8503 22.511 14.3756 22.9822C14.8995 23.4534 15.6279 23.6892 16.5608 23.6892C17.089 23.6892 17.5986 23.5703 18.0926 23.3318C18.0835 23.3761 18.0777 23.4432 18.0777 23.533C18.0777 23.931 18.2736 24.1292 18.6649 24.1292C19.047 24.1292 19.3349 23.8058 19.5273 23.1573ZM26.2264 17.3474C26.1722 17.8134 25.9827 18.1795 25.6953 18.4375C25.4068 18.6944 24.9992 18.8223 24.473 18.8223C23.4294 18.8223 22.6548 18.292 22.6811 17.4832C22.702 16.8324 23.0698 15.5791 24.6125 15.5047C25.8746 15.4442 26.3124 16.6039 26.2264 17.3474ZM27.9498 15.2339C27.9498 14.8948 27.4828 14.7241 26.5472 14.7241C25.7953 14.7241 25.3498 14.8186 25.2139 15.0087C24.9872 14.9708 24.7874 14.9511 24.6125 14.9511C23.7889 14.9511 23.0933 15.2125 22.5243 15.7348C21.9572 16.2566 21.6732 16.8853 21.6732 17.6219C21.6732 18.4153 21.9948 19.022 22.6383 19.4436C21.8562 20.3262 21.4665 20.9509 21.4665 21.3186C21.4665 21.5815 21.6684 21.7133 22.0739 21.7133C22.2408 21.7133 22.5528 21.6585 22.9508 21.5058C23.2135 21.4043 23.758 21.2232 24.0127 21.1844C25.2788 20.9952 25.7429 21.5172 25.673 22.2462C25.6432 22.5457 25.4275 22.7737 25.0307 22.9436C24.6233 23.122 24.0499 23.211 23.3149 23.211C22.7424 23.211 22.3546 23.1152 22.1504 22.9271C22.044 22.8265 21.9406 22.7244 21.8371 22.6187C21.7268 22.5301 21.6186 22.4853 21.5104 22.4853C21.3478 22.4853 21.2067 22.5349 21.0835 22.6304C20.963 22.7265 20.9023 22.8419 20.9023 22.9732C20.9023 23.3409 21.1044 23.6455 21.5104 23.8914C21.9449 24.15 22.5243 24.2787 23.2524 24.2787C24.4078 24.2787 25.3095 24.0906 25.9556 23.7137C26.601 23.3365 26.9228 22.8168 26.9228 22.1552C26.9228 21.0594 26.1473 20.441 24.3543 20.5125C23.4538 20.5467 22.5146 20.9177 22.739 20.6456C22.7137 20.6746 23.2296 20.01 23.5834 19.7628C23.9973 19.8015 24.2984 19.8214 24.4862 19.8214C25.3258 19.8214 26.0073 19.5989 26.5312 19.1556C27.0556 18.7137 27.3173 18.1475 27.3173 17.4584C27.3173 16.7496 27.0658 16.1384 26.5607 15.6239C26.6977 15.631 26.8706 15.6449 27.0805 15.6643C27.2427 15.6796 27.3494 15.6876 27.3994 15.6876C27.7672 15.6877 27.9498 15.536 27.9498 15.2339ZM36.6458 22.7441C37.1326 21.3795 37.375 19.1681 37.375 17.7867C37.375 16.2185 37.0354 15.0158 36.3554 14.177C35.6767 13.3386 34.7251 12.918 33.5048 12.918C32.1767 12.918 31.0483 13.5023 30.122 14.6689V14.4691C30.122 14.2252 30.1592 13.9257 30.2348 13.5719C30.3096 13.2187 30.3465 12.9771 30.3465 12.8486C30.3465 12.6696 30.2629 12.5101 30.0932 12.3741C29.9237 12.2382 29.7208 12.17 29.4814 12.17C28.7487 12.17 27.8429 12.5815 29.0085 13.4813C29.8104 14.1014 28.5114 17.5256 28.7672 19.9289C28.9176 21.646 28.9964 22.6856 29.0023 23.0465C29.0654 23.3543 29.1436 23.5568 29.237 23.6562C29.3571 23.7837 29.5736 23.847 29.8863 23.847C30.4988 23.847 30.8068 23.348 30.8068 22.3487C30.8068 21.9198 30.7218 21.2017 30.5475 20.1948C30.3769 19.1867 30.2904 18.4013 30.2904 17.8384C30.2904 16.828 30.5762 15.4267 31.1475 14.8118C31.6999 14.2132 32.4142 13.7466 33.2848 13.6758C34.8229 13.5499 36.4188 14.6796 35.8832 17.8911C35.6375 19.3675 35.4201 20.7223 35.1201 21.7289C34.8196 22.7366 34.6702 23.2663 34.6702 23.3186C34.6702 23.5091 34.7529 23.6744 34.9231 23.8104C35.0916 23.9476 35.2937 24.0151 35.5317 24.0151C35.9743 24.0152 36.3455 23.5927 36.6458 22.7441ZM43.5973 18.6353C43.2916 19.9099 39.4902 19.0149 39.4902 19.0149C39.4902 19.0149 39.493 17.5724 40.4144 16.7455C41.0151 16.207 41.4568 16.0958 42.0192 16.0828C43.2735 16.0575 43.7971 17.8004 43.5973 18.6353ZM44.517 19.6538C44.7389 19.3322 44.8579 19.0104 44.8579 18.5575C44.8579 17.6646 44.5805 16.9267 44.0221 16.3476C43.4647 15.7687 42.7551 15.4785 41.8946 15.4785C40.7925 15.4785 39.8687 15.9909 39.1197 17.0143C38.4624 17.9163 38.2959 18.8944 38.2959 20.1363C38.2959 22.5455 39.1672 23.8291 41.2334 23.8291C42.2335 23.8291 43.0865 23.6175 43.7913 22.7591C43.9962 22.511 44.0357 22.3241 44.0357 22.1589C44.0357 21.9587 43.9343 21.7566 43.8012 21.6201C43.6709 21.4823 43.5361 21.3971 43.3902 21.3971C43.3384 21.3971 43.0223 21.3391 42.929 21.7551C42.834 22.203 42.5821 22.3487 42.4441 22.4448C42.1677 22.6413 41.6261 22.7058 41.2854 22.7058C40.0448 22.7058 39.4244 21.8217 39.4244 20.1784C39.8701 20.2222 40.2489 20.2434 40.5663 20.2434C41.2582 20.2436 43.7751 20.7236 44.517 19.6538ZM48.6341 14.1701C48.6988 13.9882 48.7397 13.807 48.8036 13.6276C48.8653 13.4471 48.934 13.2911 48.9782 13.1806C49.0578 12.9698 48.9706 12.6089 48.3433 12.6089C47.8853 12.6089 47.3938 13.1551 47.0786 14.2509C45.5369 14.4055 44.866 14.738 44.866 15.2455C44.866 15.6186 45.1743 16.21 45.7294 15.698C46.4448 15.0381 46.8846 15.0724 46.8846 15.0724C46.8846 15.0724 46.4753 18.0527 46.4854 19.5157C46.5094 22.3553 47.5634 23.853 49.3332 23.853C49.8088 23.853 50.1848 23.7665 50.4598 23.5944C50.7363 23.4217 50.9596 23.196 50.9596 22.9186C50.9596 22.492 50.7062 22.2462 50.3727 22.2785C49.828 22.329 50.3982 23.0191 49.3793 23.1844C48.9443 23.2563 48.3627 23.0018 48.0959 22.5277C47.6037 21.6528 47.7604 19.6349 47.8301 18.6301C47.9428 16.9738 48.0132 16.1022 48.2865 15.0339C48.3263 14.8782 49.0314 14.9811 49.7479 15.2886C50.1848 15.4756 50.4729 15.901 50.5354 15.901C50.661 15.901 50.7695 15.8447 50.8614 15.7347C50.9527 15.6222 51 15.4872 51 15.3281C51 14.6146 50.2527 14.2281 48.6341 14.1701Z" fill="white"/>
<path d="M15.8182 9.48392C15.8182 9.48392 17.4966 5.50709 12.8945 4.59304C12.8945 4.59304 10.8377 8.83937 15.8182 9.48392ZM29.2183 7.16354C30.2264 6.11975 30.1649 4.4243 30.1649 4.4243C26.352 4.07785 25.4295 7.13544 25.3134 7.59127C25.3102 7.59468 25.3067 7.59747 25.303 7.60089C24.8465 7.40797 23.888 7.07456 22.7176 7.08025C24.3544 5.88557 25.2194 4.02468 25.2194 4.02468C25.2194 4.02468 26.253 4.78013 27.2232 3.81835C27.8715 3.17582 27.5678 1.71392 26.4494 1.4881C25.473 1.29076 24.8285 1.96911 24.7088 2.55747C24.5834 3.1843 25.0757 3.84278 25.0757 3.84278C24.0728 5.73494 21.6591 7.01266 20.8725 7.39063C20.8089 7.41279 20.7443 7.43608 20.6804 7.46165C19.5529 7.89924 18.6157 8.46177 17.8623 9.00051C18.1846 8.4162 18.5276 7.53722 18.6186 6.35418C24.5122 5.79013 21.666 0 21.666 0C16.4403 1.71392 17.9061 5.51013 18.4766 6.25304L18.4565 6.24076C18.4565 6.24076 18.0037 8.11734 16.7012 9.38165C16.7012 9.38165 14.0111 11.9768 13.7587 14.6101C13.7587 14.6101 15.07 13.5682 16.0584 13.5643C16.5366 12.3156 17.2005 11.5818 17.2005 11.5818C19.0101 9.36291 20.5498 9.90279 21.1942 10.0997C21.946 10.3296 22.3369 11.2814 21.9092 11.8637C21.3969 12.5616 20.6549 12.469 20.4033 11.9919C20.0315 11.2848 20.8227 10.9873 20.8227 10.9873C20.2559 10.9941 19.4676 11.6315 20.0114 12.4918C20.7505 13.6586 22.9295 13.1104 23.1385 11.228C23.1431 11.1846 23.147 11.1405 23.1487 11.0965C23.6305 11.5256 24.4071 11.8342 25.6007 11.4167C25.6007 11.4167 24.7193 8.96051 22.7403 9.89658C22.1815 9.17025 21.1287 8.7081 20.0933 8.78228C20.0553 8.7843 20.0178 8.78886 19.9808 8.79278C21.9651 7.67418 23.3886 7.55089 25.2573 7.70519C26.6279 13.217 31.7659 9.99835 31.7659 9.99835C30.8938 8.49835 30.0244 7.63051 29.2183 7.16354Z" fill="white"/>
<path d="M2.94461 29.1805H3.53481L3.34292 25.8913H2.5565L2.09916 27.2089C1.97115 27.5942 1.85831 27.9994 1.7697 28.3558H1.75491C1.67165 27.9896 1.56825 27.5994 1.45018 27.2139L1.0177 25.8914H0.221085L0 29.1805H0.56559L0.639157 27.8581C0.663765 27.4093 0.6834 26.8867 0.69819 26.4574H0.708007C0.79662 26.8672 0.91443 27.3161 1.04231 27.7363L1.48461 29.1415H1.94693L2.43347 27.7165C2.58073 27.3018 2.71855 26.8576 2.8268 26.4575H2.84159C2.83662 26.9013 2.86097 27.4141 2.88061 27.8386L2.94461 29.1805ZM6.22621 27.7943H5.37578L5.63129 26.9844C5.68548 26.789 5.73954 26.5598 5.7885 26.3696H5.79832C5.84753 26.5598 5.90172 26.7844 5.9656 26.9844L6.22621 27.7943ZM6.62439 29.1805H7.27808L6.20185 25.8913H5.42959L4.36789 29.1805H4.99226L5.27735 28.2482H6.32451L6.62439 29.1805ZM9.72302 29.2147C10.1603 29.2147 10.5737 29.1075 10.7851 29.0294V27.3649H9.61503V27.8385H10.2V28.6634C10.1213 28.6974 9.96412 28.7268 9.74279 28.7268C9.05467 28.7268 8.59273 28.2824 8.59273 27.5357C8.59273 26.7695 9.08884 26.3547 9.79684 26.3547C10.1459 26.3547 10.367 26.4133 10.5488 26.4966L10.6817 26.0133C10.5292 25.94 10.2096 25.857 9.80182 25.857C8.70557 25.857 7.96339 26.5208 7.95829 27.5653C7.95829 28.0632 8.12557 28.4972 8.42023 28.7756C8.73515 29.0733 9.16266 29.2147 9.72302 29.2147ZM13.2546 27.7943L14.3557 25.8913H13.6726L13.2744 26.7356C13.1614 26.9747 13.068 27.1793 12.9896 27.3896H12.9796C12.8859 27.1649 12.8025 26.9793 12.6897 26.7356L12.296 25.8913H11.603L12.6503 27.8091V29.1805H13.2546V27.7943ZM16.4022 27.7943H15.5518L15.8077 26.9844C15.8615 26.789 15.916 26.5598 15.9648 26.3696H15.9743C16.0238 26.5598 16.078 26.7844 16.142 26.9844L16.4022 27.7943ZM16.8004 29.1805H17.4544L16.3779 25.8913H15.6059L14.5442 29.1805H15.1685L15.4536 28.2482H16.5007L16.8004 29.1805ZM20.0273 26.8476C20.0273 27.1747 19.7767 27.3896 19.3685 27.3896H19.0099V26.3499C19.0686 26.3352 19.1917 26.3206 19.3833 26.3206C19.7767 26.3206 20.0273 26.4913 20.0273 26.8476ZM20.0273 27.6287V27.6139C20.342 27.5066 20.6319 27.2187 20.6319 26.7942C20.6319 26.5109 20.5286 26.2815 20.3468 26.1304C20.1208 25.9447 19.8013 25.8666 19.3245 25.8666C18.9754 25.8666 18.6408 25.8958 18.4101 25.9399V29.1806H19.0099V27.8287H19.3147C19.6586 27.8385 19.8111 27.9749 19.9093 28.4047C19.9977 28.8144 20.0814 29.0828 20.1306 29.1806H20.7501C20.6861 29.0537 20.5975 28.673 20.4892 28.263C20.4108 27.946 20.2682 27.7163 20.0273 27.6287ZM25.7521 29.1805L24.5378 27.2919L25.6781 25.8913H24.9359L24.0659 27.0476C23.9872 27.1601 23.9036 27.2772 23.825 27.4041H23.8102V25.8913H23.2106V29.1805H23.8102V28.0241L24.1099 27.6724L25.0442 29.1805H25.7521ZM27.622 25.3936C27.622 25.2224 27.4987 25.0956 27.3368 25.0956C27.1694 25.0956 27.0417 25.2275 27.0417 25.3936C27.0417 25.5495 27.1648 25.6861 27.3315 25.6861C27.5039 25.6861 27.622 25.5496 27.622 25.3936ZM28.5952 25.3936C28.5952 25.2224 28.472 25.0956 28.3097 25.0956C28.1378 25.0956 28.0149 25.2275 28.0149 25.3936C28.0149 25.5495 28.1329 25.6861 28.2998 25.6861C28.477 25.6861 28.5952 25.5496 28.5952 25.3936ZM28.7375 27.5213C28.7375 28.2093 28.4081 28.7512 27.8234 28.7512C27.2431 28.7512 26.9038 28.219 26.9038 27.5458C26.9038 26.8674 27.2237 26.3157 27.8234 26.3157C28.4278 26.3157 28.7375 26.9011 28.7375 27.5213ZM29.3766 27.5017C29.3766 26.5598 28.8063 25.8327 27.8431 25.8327C26.9087 25.8327 26.265 26.5451 26.265 27.5601C26.265 28.5219 26.8549 29.2343 27.7939 29.2343C28.7031 29.2343 29.3766 28.6047 29.3766 27.5017ZM30.1703 29.1805H32.6724V28.6827H30.9761V28.668L32.6474 26.2424V25.8913H30.3177V26.389H31.861V26.4034L30.1703 28.8489V29.1805ZM34.7437 25.3936C34.7437 25.2224 34.621 25.0956 34.4589 25.0956C34.2916 25.0956 34.1638 25.2275 34.1638 25.3936C34.1638 25.5495 34.2865 25.6861 34.4537 25.6861C34.6256 25.6861 34.7437 25.5496 34.7437 25.3936ZM35.7171 25.3936C35.7171 25.2224 35.594 25.0956 35.4321 25.0956C35.2601 25.0956 35.1368 25.2275 35.1368 25.3936C35.1368 25.5495 35.255 25.6861 35.4223 25.6861C35.599 25.6861 35.7171 25.5496 35.7171 25.3936ZM35.8599 27.5213C35.8599 28.2093 35.5304 28.7512 34.9455 28.7512C34.3651 28.7512 34.0258 28.219 34.0258 27.5458C34.0258 26.8674 34.3454 26.3157 34.9455 26.3157C35.5501 26.3157 35.8599 26.9011 35.8599 27.5213ZM36.4987 27.5017C36.4987 26.5598 35.9285 25.8327 34.965 25.8327C34.0312 25.8327 33.3869 26.5451 33.3869 27.5601C33.3869 28.5219 33.9771 29.2343 34.9156 29.2343C35.8251 29.2343 36.4987 28.6047 36.4987 27.5017ZM38.0348 26.7258C38.0348 26.5304 38.1968 26.3304 38.58 26.3304C38.8897 26.3304 39.121 26.4229 39.244 26.4867L39.3864 26.0033C39.2145 25.9156 38.9539 25.8375 38.595 25.8375C37.8722 25.8375 37.4198 26.2424 37.4198 26.7843C37.4198 27.2572 37.7688 27.5457 38.3195 27.7408C38.7374 27.8922 38.9047 28.0385 38.9047 28.2872C38.9047 28.5556 38.6882 28.7363 38.305 28.7363C37.9953 28.7363 37.6955 28.639 37.5039 28.5265L37.3662 29.0242C37.5479 29.1368 37.9114 29.2343 38.2658 29.2343C39.1162 29.2343 39.5191 28.7753 39.5191 28.2437C39.5191 27.7701 39.2441 27.4822 38.6687 27.2675C38.2264 27.0965 38.0348 26.9793 38.0348 26.7258ZM41.0792 26.7258C41.0792 26.5304 41.2413 26.3304 41.6244 26.3304C41.9344 26.3304 42.1654 26.4229 42.2884 26.4867L42.4308 26.0033C42.259 25.9156 41.9984 25.8375 41.6395 25.8375C40.9168 25.8375 40.4643 26.2424 40.4643 26.7843C40.4643 27.2572 40.8134 27.5457 41.3639 27.7408C41.7819 27.8922 41.9493 28.0385 41.9493 28.2872C41.9493 28.5556 41.7328 28.7363 41.3495 28.7363C41.0398 28.7363 40.7401 28.639 40.5484 28.5265L40.4106 29.0242C40.5924 29.1368 40.9558 29.2343 41.3103 29.2343C42.1607 29.2343 42.5636 28.7753 42.5636 28.2437C42.5636 27.7701 42.2886 27.4822 41.7132 27.2675C41.2709 27.0965 41.0792 26.9793 41.0792 26.7258ZM44.7582 25.7155L45.3724 25.1298H44.7038L44.2712 25.7155H44.7582ZM43.6027 29.1805H45.6033V28.6874H44.2073V27.7213H45.4557V27.2333H44.2073V26.3842H45.5297V25.8913H43.6027V29.1805ZM48.2201 29.2147C48.6577 29.2147 49.0711 29.1075 49.2823 29.0294V27.3649H48.1123V27.8385H48.697V28.6634C48.6184 28.6974 48.4613 28.7268 48.2396 28.7268C47.5519 28.7268 47.0894 28.2824 47.0894 27.5357C47.0894 26.7695 47.5862 26.3547 48.2942 26.3547C48.6432 26.3547 48.8644 26.4133 49.0461 26.4966L49.1787 26.0133C49.0266 25.94 48.7068 25.857 48.2988 25.857C47.2028 25.857 46.4607 26.5208 46.4555 27.5653C46.4555 28.0632 46.6228 28.4972 46.9176 28.7756C47.2325 29.0733 47.6598 29.2147 48.2201 29.2147ZM51 25.8913H50.395V29.1805H51V25.8913Z" fill="white"/>
<path d="M6.03253 37.109C6.03253 37.9125 5.13353 38.2335 4.07464 38.2335C3.66907 38.2335 3.38653 38.2335 3.15767 38.2066V36.0519H3.91604C5.11543 36.0519 6.03253 36.3462 6.03253 37.109ZM5.80291 33.4016C5.80291 33.977 5.15049 34.3389 3.79236 34.3389H3.15767V32.5983C3.36881 32.5714 3.66907 32.5447 4.19832 32.5447C5.27417 32.5448 5.80291 32.8796 5.80291 33.4016ZM7.0556 35.021V34.9944C8.44866 34.5926 8.99589 33.8566 8.99589 33.1073C8.99589 32.2239 8.32499 31.5813 7.39105 31.247C6.47318 30.8989 5.45037 30.8051 3.75742 30.8051C2.29321 30.8051 0.723307 30.8989 0 31.0054V39.8397C0.63495 39.9338 1.69294 40 3.1393 40C5.67961 40 7.16116 39.7057 8.04321 39.1971C8.83741 38.7421 9.38425 38.073 9.38425 37.2166C9.38425 36.1454 8.50195 35.3291 7.0556 35.021ZM18.5632 36.0249H16.3583L16.8699 34.4052C17.0468 33.8968 17.2236 33.1607 17.3992 32.6253H17.4345C17.6109 33.1606 17.8398 33.8968 18.0166 34.4052L18.5632 36.0249ZM19.7628 39.8932H23.2024L19.6573 30.8718H15.4237L11.9664 39.8932H15.2651L15.9347 37.8048H19.0041L19.7628 39.8932ZM33.3702 39.8932H36.7218V30.8718H33.8111V33.0134C33.8111 34.3518 33.8825 35.6101 34.0582 36.8013H34.0053C33.4767 35.744 32.7887 34.5391 32.1361 33.6424L30.2484 30.8718H26.4914V39.8932H29.4021V37.6715C29.4021 36.2121 29.3663 34.8602 29.2785 33.6424H29.3487C29.9133 34.7267 30.6898 35.9445 31.3422 36.8951L33.3702 39.8932ZM47.0838 34.7132L50.8592 30.8718H46.9435L44.6499 33.7092C44.4032 34.0308 44.1387 34.3652 43.8917 34.7H43.8569V30.8718H40.6988V39.8932H43.8569V37.1625L44.8086 36.2387L47.3135 39.8932H50.9999L47.0838 34.7132Z" fill="white"/>
</g>
<defs>
<clipPath id="clip0_365_7311">
<rect width="51" height="40" fill="white"/>
</clipPath>
</defs>
</svg>
