<svg width="209" height="40" viewBox="0 0 209 40" fill="none" xmlns="http://www.w3.org/2000/svg">
<path d="M128.562 21.4529C127.692 20.5109 126.532 19.9312 125.155 19.5689C126.315 19.1341 127.257 18.4819 128.054 17.6849C129.069 16.5254 129.577 15.1486 129.577 13.4095C129.577 11.8877 129.214 10.5834 128.562 9.56884C127.837 8.48189 126.895 7.6848 125.59 7.17758C124.285 6.59784 122.69 6.38049 120.805 6.38049H111.527C110.947 6.38049 110.512 6.52543 110.222 6.8153C109.932 7.10517 109.787 7.53987 109.787 8.1196V31.8877C109.787 32.4674 109.932 32.9022 110.222 33.1921C110.512 33.482 110.947 33.6269 111.527 33.6269H121.168C124.067 33.6269 126.242 32.9747 127.837 31.6704C129.432 30.3661 130.229 28.5544 130.229 26.0906C130.229 24.1341 129.649 22.6124 128.562 21.4529ZM112.904 8.84428H120.226C122.255 8.84428 123.778 9.27908 124.792 10.0762C125.807 10.8733 126.387 12.1051 126.387 13.6993C126.387 15.2211 125.88 16.453 124.792 17.2501C123.778 18.0471 122.183 18.4819 120.226 18.4819H112.904V8.84428ZM125.517 29.7863C124.502 30.5834 122.908 31.0182 120.878 31.0182H112.904V21.0181H120.878C122.908 21.0181 124.502 21.4529 125.517 22.25C126.532 23.0471 127.04 24.3515 127.04 26.0182C127.04 27.6848 126.532 28.9892 125.517 29.7863Z" fill="white"/>
<path d="M157.486 31.3805L146.975 7.61241C146.757 7.10508 146.54 6.7428 146.177 6.52545C145.887 6.308 145.525 6.23558 145.162 6.23558C144.8 6.23558 144.438 6.308 144.148 6.52545C143.858 6.7428 143.568 7.10508 143.35 7.61241L132.912 31.3805C132.767 31.8153 132.694 32.1776 132.694 32.4675C132.767 32.7573 132.839 33.0472 133.129 33.1921C133.347 33.4095 133.709 33.4819 134.072 33.4819C134.507 33.4819 134.797 33.3371 135.087 33.1196C135.304 32.9023 135.594 32.5399 135.811 32.0327L138.276 26.308H152.194L154.659 32.0327C154.804 32.4675 155.094 32.8298 155.311 33.0472C155.601 33.2646 155.963 33.4095 156.398 33.4095C156.833 33.4095 157.123 33.3371 157.341 33.1196C157.558 32.9747 157.703 32.6848 157.703 32.3949C157.776 32.1776 157.631 31.8153 157.486 31.3805ZM145.09 10.1486H145.162L150.962 23.8442H139.291L145.09 10.1486Z" fill="white"/>
<path d="M182.494 6.59784C182.276 6.30798 181.914 6.16304 181.479 6.16304C180.972 6.16304 180.609 6.30798 180.392 6.59784C180.174 6.88771 180.029 7.25 180.029 7.6848V27.9747L164.299 7.17758C164.081 6.81519 163.792 6.59784 163.647 6.45291C163.429 6.30797 163.139 6.23556 162.777 6.23556C162.342 6.23556 162.052 6.38049 161.762 6.67026C161.472 6.96013 161.399 7.32252 161.399 7.82973V31.9602C161.399 32.4674 161.544 32.8297 161.762 33.1196C161.979 33.4095 162.414 33.5544 162.849 33.5544C163.284 33.5544 163.647 33.4095 163.937 33.1196C164.154 32.8297 164.299 32.4674 164.299 31.9602V11.6703L179.957 32.5399C180.174 32.9022 180.464 33.1196 180.682 33.2645C180.899 33.4095 181.189 33.4819 181.624 33.4819C182.059 33.4819 182.349 33.337 182.566 33.0472C182.784 32.7573 182.856 32.3949 182.856 31.9602V7.75722C182.856 7.25 182.711 6.88771 182.494 6.59784Z" fill="white"/>
<path d="M207.648 31.163L195.035 19.4964L206.996 8.33695C207.286 8.04709 207.503 7.6848 207.503 7.39493C207.576 7.03265 207.503 6.8152 207.286 6.52543C207.068 6.30798 206.706 6.16304 206.271 6.16304C205.908 6.16304 205.619 6.23556 205.256 6.38049C204.966 6.52543 204.676 6.74278 204.314 7.03265L191.991 18.6269H191.918V7.82973C191.918 7.32252 191.773 6.88771 191.483 6.59784C191.193 6.30798 190.831 6.16304 190.323 6.16304C189.816 6.16304 189.453 6.30798 189.163 6.59784C188.873 6.88771 188.729 7.25 188.729 7.82973V31.8877C188.729 32.3949 188.873 32.7573 189.163 33.1196C189.453 33.4819 189.816 33.5544 190.323 33.5544C190.831 33.5544 191.266 33.4095 191.483 33.1196C191.701 32.8297 191.845 32.3949 191.845 31.8877V20.6559H191.918L204.894 32.5399C205.256 32.9022 205.546 33.1196 205.763 33.2645C206.053 33.4095 206.343 33.4819 206.706 33.4819C207.213 33.4819 207.576 33.3369 207.793 33.1196C208.011 32.9022 208.156 32.5399 208.083 32.1776C208.228 31.8877 208.011 31.5254 207.648 31.163Z" fill="white"/>
<path d="M71.475 1.37681C70.605 0.434783 69.3002 0 67.633 0C66.1832 0 64.9509 0.434782 64.0811 1.23189C64.226 1.30435 64.4434 1.44928 64.5885 1.52174C67.5605 3.62319 69.0103 6.5942 69.0103 10.2174C69.0103 12.5362 68.3579 14.6377 67.0531 16.4492C66.3282 17.3913 65.9657 17.971 65.9657 18.913C65.9657 19.8551 66.9806 20.6522 67.8505 21.8116C69.3002 23.7682 70.0976 26.1594 70.0976 28.9131C70.0976 31.3769 69.5902 33.4783 68.2129 35.3623C67.1256 36.8117 65.8933 37.8986 64.1535 38.8406C65.0234 39.6377 66.1832 40 67.633 40C69.3002 40 70.605 39.5653 71.475 38.6232C72.3448 37.6812 72.7798 36.6667 72.7798 35V5.07247C72.7798 3.4058 72.3448 2.31885 71.475 1.37681Z" fill="white"/>
<path d="M97.2813 1.30435C96.4839 0.434783 95.324 0 93.8017 0C92.352 0 91.1921 0.434783 90.3948 1.30435C89.5974 2.17391 89.1624 3.33334 89.1624 4.85507V15.7247H72.3449L72.2725 23.5507H89.2349V23.6232V35.145C89.2349 36.6667 89.6698 37.8986 90.4672 38.6957C91.2646 39.5653 92.4245 40 93.8743 40C95.3965 40 96.5563 39.5653 97.3537 38.6957C98.1511 37.8261 98.5861 36.6667 98.5861 35.145V4.92754C98.4411 3.4058 98.0786 2.17391 97.2813 1.30435Z" fill="white"/>
<path d="M60.3112 38.4783C62.2684 37.6087 63.7906 36.3768 64.878 34.8551C66.0378 33.1884 66.6177 31.3044 66.6177 29.058C66.6177 26.5942 65.9654 24.4927 64.7331 22.8262C63.4283 21.1595 61.616 19.9276 59.2238 19.2029C61.2535 18.4783 62.7758 17.3189 63.9357 15.7971C65.0955 14.2029 65.6029 12.3913 65.6029 10.3623C65.6029 7.17396 64.2981 4.63768 61.7609 2.75363C61.2535 2.3913 60.6736 2.02899 60.0937 1.73913C57.7741 0.579707 54.8745 0 51.4674 0H36.6072C36.4621 0 36.3896 0 36.2447 0C36.1722 0 36.0272 0 35.9547 0C33.925 0 32.3302 1.08696 31.0979 3.33334L20.587 22.6812L10.0036 3.33334C9.42362 2.24638 8.69874 1.44928 7.82885 0.869565C6.95898 0.289858 6.01661 0 5.00177 0C3.55198 0 2.31966 0.434783 1.3773 1.37681C0.507424 2.31885 0 3.55073 0 5.00001V35.3623C0 36.8117 0.434937 37.8986 1.30481 38.6957C2.17468 39.5653 3.26202 40 4.63932 40C6.01661 40 7.17645 39.5653 7.97383 38.7681C8.84368 37.8986 9.27869 36.8116 9.27869 35.4348V19.3478L15.8027 30.7247C16.455 31.8841 17.18 32.7537 17.9049 33.2609C18.6298 33.7681 19.4997 33.9856 20.5145 33.9856C21.5294 33.9856 22.3992 33.7681 23.1241 33.2609C23.8491 32.7537 24.5739 31.8841 25.2263 30.7247L36.0272 11.1594C37.622 8.33333 38.7818 7.89853 41.8264 7.89853C42.9137 7.89853 49.8727 7.89853 49.8727 7.89853C51.9024 7.89853 53.3522 8.1884 54.2945 8.84055C55.2369 9.49281 55.6719 10.5072 55.6719 11.8841C55.6719 13.1884 55.2369 14.2029 54.2945 14.7827C53.3522 15.3623 51.9024 15.7247 49.8727 15.7247H49.5828C47.408 15.7247 45.6683 17.5362 45.6683 19.6377C45.6683 21.8116 47.408 23.5507 49.5828 23.5507H50.8876C53.0622 23.5507 54.5845 23.9131 55.4544 24.5653C56.3967 25.2174 56.8316 26.3044 56.8316 27.8261C56.8316 29.3479 56.3967 30.4348 55.4544 31.087C54.5121 31.7392 52.9897 32.1014 50.8876 32.1014H40.884V15.6522C38.4194 15.7247 37.4045 16.3768 35.9547 18.913L31.6779 26.3768V35.145C31.6779 36.6667 32.1128 37.8986 32.9827 38.6957C33.8525 39.4928 35.0849 39.9276 36.6796 39.9276H52.2648C55.2369 39.9276 57.8465 39.4928 60.0212 38.5508C60.0212 38.5508 60.1662 38.4783 60.3112 38.4783Z" fill="white"/>
</svg>
