<svg width="190" height="40" viewBox="0 0 190 40" fill="none" xmlns="http://www.w3.org/2000/svg">
<path fill-rule="evenodd" clip-rule="evenodd" d="M59.4323 13.8637C57.6366 13.8637 55.6026 14.7769 54.43 20.3521C53.1261 26.5525 55.7266 26.9489 56.9871 26.9489C58.1333 26.9489 60.5738 26.3236 61.7874 20.3871C62.639 16.2321 61.9618 13.8637 59.4323 13.8637ZM68.3555 20.3871C66.7137 29.7691 60.8825 30.9678 55.9475 30.9678C51.075 30.9678 46.5873 27.6067 47.8563 20.3389C48.8486 14.6601 52.2152 9.4041 60.4027 9.80646C66.1124 10.0859 69.4705 14.0035 68.3555 20.3871Z" fill="white"/>
<path fill-rule="evenodd" clip-rule="evenodd" d="M80.7892 30.1633L80.4825 30.4682C79.2593 30.6995 77.8231 30.8898 77.0438 30.8898C74.1582 30.8898 69.9256 30.4537 71.7153 23.163C72.9278 18.2358 73.7962 14.5496 73.7962 14.5496L71.1223 14.6267L70.8926 14.3219L72.0016 10.4549L72.2687 10.2646H74.7897L75.8987 5.3278L76.1645 5.06157C79.032 4.41103 79.7957 4.21829 82.4322 3.45212L82.6607 3.68342L80.9792 10.3417L84.8776 10.2646L85.0291 10.532C84.4951 12.1402 84.3411 12.5619 83.8456 14.3592L83.5412 14.6267L80.0255 14.5496C80.0255 14.5496 79.311 17.5203 78.3115 21.6548C77.2314 26.1229 77.8003 25.8976 78.8804 26.3229C79.8041 26.6891 81.0166 26.2205 81.7046 25.9916L81.9355 26.1855L80.7892 30.1633Z" fill="white"/>
<path fill-rule="evenodd" clip-rule="evenodd" d="M91.519 26.339C93.3291 26.5546 95.3018 25.9559 96.6381 24.8439C98.1656 23.5441 99.5416 20.8662 99.5416 17.9581C99.5416 14.7416 97.4789 14.3609 96.7151 14.3609C95.6085 14.3609 94.7654 14.9344 93.963 15.4692L91.519 26.339ZM94.6141 11.6817C95.6089 10.9939 97.2506 9.84459 99.7332 9.84459C103.555 9.84459 106.114 12.7129 106.114 17.5738C106.114 20.3301 105.159 23.5826 103.172 25.9933C99.3892 30.6241 94.6141 30.5842 90.5632 30.5842L88.3897 39.7301L88.1214 39.9205C87.2422 39.9205 86.4015 39.8856 85.5235 39.8856C84.2232 39.8856 83.077 39.9602 81.6649 40L81.4736 39.7301C81.4736 39.7301 82.8184 35.6753 84.4939 28.7014C86.2535 21.3842 87.8977 12.8118 88.0421 11.0661L88.3091 10.8011L94.8426 9.73135L95.0713 9.99758L94.6141 11.6817Z" fill="white"/>
<path fill-rule="evenodd" clip-rule="evenodd" d="M111.122 27.5237C113.286 27.625 116.471 27.5611 118.955 25.8783C121.782 23.9243 123.121 20.5198 123.121 18.0695C123.121 14.5892 121.017 13.2484 118.571 13.2484C116.624 13.2484 115.249 14.0916 114.026 14.8566C114.026 14.8566 111.359 26.5841 111.122 27.5237ZM106.461 30.3156C106.715 29.1544 108.363 22.3563 110.044 14.7102C111.486 8.152 112.489 4.05851 112.842 1.00225L113.146 0.734811L117.311 0.00839233L117.503 0.27824L116.433 4.52472L114.674 11.8708C116.281 10.9902 117.808 10.1481 120.253 10.1481C124.035 10.1481 127.207 12.7129 127.207 17.5365C127.207 19.4868 126.596 23.1598 124.035 26.1065C120.597 30.0482 116.356 30.3156 111.427 30.5083H109.326L106.652 30.5457L106.461 30.3156Z" fill="white"/>
<path fill-rule="evenodd" clip-rule="evenodd" d="M144.868 13.4798C144.293 13.4798 143.722 13.4424 143.147 13.4424C141.885 13.4424 139.402 13.5183 137.147 15.0482C133.135 17.8021 133.06 22.7413 133.06 22.9317C133.06 24.7688 134.054 27.7142 137.529 27.7142C138.56 27.7142 140.268 27.4709 142.114 25.8385L144.868 13.4798ZM147.692 18.3378C146.355 24.2312 146.089 25.6851 145.325 30.2401L145.058 30.5063L141.467 30.5846L141.274 30.3183L141.542 28.7872C140.893 29.3221 139.21 30.7376 135.962 30.7376C132.067 30.7376 128.896 27.9825 128.896 23.1999C128.896 20.1786 130.348 16.8862 131.952 14.972C135.504 10.8014 140.433 10.5701 143.949 10.5701L149.22 10.6075L149.41 10.9147L147.692 18.3378Z" fill="white"/>
<path fill-rule="evenodd" clip-rule="evenodd" d="M166.613 30.2787L166.307 30.5063L162.41 30.6232L162.255 30.3546C162.817 27.7777 165.17 19.1474 165.198 16.4622C165.224 14.1674 163.787 13.4 161.989 13.4C159.622 13.4 158.055 14.589 156.909 15.4311C155.493 21.8604 155.035 23.8891 153.812 30.2787L153.547 30.5063L149.648 30.6232L149.458 30.3546C149.458 30.3546 150.617 25.672 151.662 20.8016C152.484 16.9887 153.158 13.8457 153.469 11.2231L153.737 10.9533C155.533 10.7256 155.954 10.6485 157.785 10.2654L157.977 10.5317L157.443 12.4844C158.933 11.4882 160.844 10.1522 164.014 10.1522C165.274 10.1522 169.4 10.4931 169.4 15.1251C169.4 17.8935 166.987 27.5754 166.613 30.2787Z" fill="white"/>
<path fill-rule="evenodd" clip-rule="evenodd" d="M181.211 18.8662L187.133 30.154L186.902 30.4588L182.662 30.5757L182.354 30.3443C181.368 27.6567 177.046 19.2107 177.046 19.2107C175.938 24.0704 175.708 25.2173 174.753 30.2685L174.485 30.4973L170.627 30.5757L170.475 30.3443C170.475 30.3443 172.513 21.8598 174.277 14.0066C175.102 10.3347 176.382 4.51855 176.892 0.993661L177.162 0.763569L181.325 0.0769043L181.553 0.345546C180.785 2.9886 177.162 18.6734 177.162 18.6734C179.9 16.2701 184.457 11.4792 185.068 10.8286L185.489 10.5985H189.884L189.998 10.9431C188.913 11.8032 186.902 13.6235 186.177 14.2727L181.211 18.8662Z" fill="white"/>
<path fill-rule="evenodd" clip-rule="evenodd" d="M18.8489 0V6.8281C12.2035 6.84015 6.81985 12.2407 6.81985 18.8989C6.81985 25.5656 12.2156 30.9698 18.8707 30.9698C25.4873 30.9698 30.9226 25.615 30.9226 18.8543L37.7425 18.8592C37.7425 29.3375 29.2928 37.8003 18.8707 37.8003C8.44842 37.8003 0 29.3375 0 18.8989C0 8.46886 8.43881 0.0108421 18.8489 0Z" fill="white"/>
<path fill-rule="evenodd" clip-rule="evenodd" d="M18.9159 10.5144C23.5406 10.5144 27.2873 14.2694 27.2873 18.899C27.2873 23.5298 23.5406 27.2811 18.9172 27.2811C14.2948 27.2811 10.5469 23.5298 10.5469 18.899C10.5469 14.2694 14.2948 10.5144 18.9159 10.5144Z" fill="white"/>
<path fill-rule="evenodd" clip-rule="evenodd" d="M29.5206 3.47531C32.1692 3.47531 34.3162 5.62928 34.3162 8.28197C34.3162 10.9335 32.1692 13.085 29.5206 13.085C26.8721 13.085 24.7227 10.9335 24.7227 8.28197C24.7227 5.62928 26.8721 3.47531 29.5206 3.47531Z" fill="white"/>
</svg>
