<svg width="186" height="48" viewBox="0 0 186 48" fill="none" xmlns="http://www.w3.org/2000/svg">
<path d="M66.7668 21.8523L62.539 14.172H60.8265V21.8523H56.7158V2.43262H64.5134C65.8468 2.43262 66.9977 2.65658 67.9693 3.10452C68.941 3.55246 69.6818 4.20368 70.1953 5.06166C70.7086 5.91963 70.9671 6.94643 70.9671 8.14553C70.9671 9.5548 70.5915 10.7332 69.8403 11.6876C69.0892 12.6421 68.0176 13.3072 66.629 13.6861L71.3426 21.8523H66.7737H66.7668ZM60.8265 5.97476V10.9159H64.0241C64.882 10.9159 65.5368 10.7022 65.995 10.275C66.4533 9.84768 66.6807 9.22401 66.6807 8.40395C66.6807 7.58388 66.4533 6.9292 65.995 6.54673C65.5368 6.16427 64.8717 5.97476 63.9965 5.97476H60.8265Z" fill="#2B2D33"/>
<path d="M83.1287 6.74313H87.0396V21.8489H83.1287V20.0503C82.6326 20.7359 82.0054 21.2735 81.2439 21.6629C80.4825 22.0522 79.6245 22.2486 78.6735 22.2486C77.4365 22.2486 76.3304 21.9109 75.3622 21.2356C74.3906 20.5602 73.6359 19.6161 73.0915 18.4067C72.5471 17.1973 72.2783 15.8328 72.2783 14.3098C72.2783 12.7868 72.5506 11.3913 73.0915 10.1819C73.6325 8.97247 74.3906 8.0318 75.3622 7.35646C76.3339 6.6811 77.4365 6.34343 78.6735 6.34343C79.6245 6.34343 80.4825 6.54328 81.2439 6.94298C82.0054 7.34267 82.6326 7.88709 83.1287 8.57278V6.74313ZM81.5851 18.193C82.0985 17.8519 82.505 17.3489 82.798 16.6942C83.0943 16.036 83.2389 15.2436 83.2389 14.3098C83.2389 13.376 83.0908 12.5835 82.798 11.9254C82.5016 11.2707 82.0985 10.7677 81.5851 10.4265C81.0716 10.0854 80.4825 9.91314 79.8139 9.91314C79.1455 9.91314 78.5529 10.0854 78.0291 10.4265C77.5054 10.7677 77.1023 11.2707 76.8163 11.9254C76.5302 12.5835 76.389 13.376 76.389 14.3098C76.389 15.2436 76.5302 16.036 76.8163 16.6942C77.1023 17.3489 77.5054 17.8519 78.0291 18.193C78.5529 18.5377 79.149 18.7065 79.8139 18.7065C80.479 18.7065 81.0716 18.5342 81.5851 18.193Z" fill="#2B2D33"/>
<path d="M90.7102 3.98664C90.283 3.55937 90.0693 3.00117 90.0693 2.31549C90.0693 1.6298 90.283 1.0716 90.7102 0.644339C91.1375 0.217077 91.6957 0 92.3813 0C93.0671 0 93.6184 0.213631 94.0387 0.644339C94.4556 1.0716 94.6659 1.6298 94.6659 2.31549C94.6659 3.00117 94.4556 3.55937 94.0387 3.98664C93.6184 4.41389 93.0671 4.63097 92.3813 4.63097C91.6957 4.63097 91.1375 4.41735 90.7102 3.98664ZM94.2937 21.8489H90.3829V6.74317H94.2937V21.8489Z" fill="#2B2D33"/>
<path d="M102.664 6.74318H106.806V10.1716H102.664V21.8525H98.7527V10.1716H96.1826V6.74318H98.7527V5.83008C98.7527 4.17272 99.2283 2.90815 100.18 2.03295C101.131 1.15775 102.436 0.720154 104.09 0.720154C104.7 0.720154 105.279 0.775285 105.834 0.892437C106.385 1.00614 106.892 1.1612 107.346 1.35071L106.347 4.34844C105.834 4.13825 105.272 4.03488 104.662 4.03488C103.956 4.03488 103.45 4.19683 103.136 4.52072C102.823 4.84462 102.664 5.3408 102.664 6.00581V6.74663V6.74318Z" fill="#2B2D33"/>
<path d="M112.659 6.74318H116.8V10.1716H112.659V21.8525H108.748V10.1716H106.178V6.74318H108.748V5.83008C108.748 4.17272 109.224 2.90815 110.174 2.03295C111.125 1.15775 112.432 0.720154 114.085 0.720154C114.695 0.720154 115.274 0.775285 115.829 0.892437C116.379 1.00614 116.886 1.1612 117.342 1.35071L116.342 4.34844C115.829 4.13825 115.267 4.03488 114.657 4.03488C113.95 4.03488 113.444 4.19683 113.13 4.52072C112.817 4.84462 112.659 5.3408 112.659 6.00581V6.74663V6.74318Z" fill="#2B2D33"/>
<path d="M132.02 15.6812H121.824C121.958 16.8251 122.327 17.6522 122.937 18.1655C123.546 18.679 124.44 18.9374 125.621 18.9374C126.438 18.9374 127.196 18.8202 127.892 18.5824C128.588 18.3447 129.19 18.007 129.704 17.5695L131.389 20.2536C130.627 20.9014 129.742 21.3976 128.733 21.7387C127.723 22.0798 126.637 22.2521 125.477 22.2521C123.84 22.2521 122.43 21.9385 121.249 21.3115C120.067 20.6844 119.167 19.7781 118.55 18.5997C117.93 17.4179 117.624 16.0189 117.624 14.4029C117.624 12.7869 117.927 11.3948 118.537 10.175C119.147 8.95529 120.008 8.01463 121.121 7.34616C122.234 6.68115 123.505 6.34692 124.932 6.34692C126.359 6.34692 127.606 6.67082 128.674 7.3186C129.739 7.96639 130.562 8.88982 131.145 10.0889C131.724 11.288 132.016 12.6973 132.016 14.3167V15.6881L132.02 15.6812ZM121.824 12.9971H128.078C127.981 11.8737 127.668 11.0365 127.137 10.4852C126.603 9.93386 125.879 9.65821 124.966 9.65821C123.14 9.65821 122.093 10.7712 121.824 13.0005V12.9971Z" fill="#2B2D33"/>
<path d="M134.745 3.98664C134.318 3.55937 134.104 3.00117 134.104 2.31549C134.104 1.6298 134.318 1.0716 134.745 0.644339C135.173 0.217077 135.731 0 136.416 0C137.102 0 137.653 0.213631 138.073 0.644339C138.491 1.0716 138.7 1.6298 138.7 2.31549C138.7 3.00117 138.491 3.55937 138.073 3.98664C137.653 4.41389 137.102 4.63097 136.416 4.63097C135.731 4.63097 135.173 4.41735 134.745 3.98664ZM138.329 21.8489H134.418V6.74317H138.329V21.8489Z" fill="#2B2D33"/>
<path d="M143.329 21.7525C142.26 21.4183 141.358 20.9014 140.617 20.1951L142.443 17.3972C143.567 18.4619 144.993 18.996 146.726 18.996C147.488 18.996 148.063 18.8788 148.453 18.6376C148.841 18.3998 149.039 18.0415 149.039 17.566C149.039 17.1663 148.862 16.839 148.511 16.5805C148.16 16.3221 147.515 16.0809 146.585 15.8535C145.386 15.5882 144.4 15.2918 143.629 14.968C142.857 14.6441 142.233 14.1858 141.758 13.5966C141.282 13.0074 141.045 12.2356 141.045 11.2846C141.045 10.2749 141.303 9.39978 141.816 8.65897C142.329 7.91815 143.063 7.34616 144.014 6.94646C144.966 6.54677 146.072 6.34692 147.326 6.34692C148.504 6.34692 149.596 6.51921 150.596 6.86033C151.595 7.20144 152.446 7.70796 153.153 8.37297L151.327 11.0571C150.813 10.5816 150.203 10.2199 149.5 9.97176C148.797 9.72368 148.063 9.59963 147.302 9.59963C146.541 9.59963 146.027 9.71334 145.644 9.94419C145.262 10.1716 145.073 10.5161 145.073 10.971C145.073 11.2364 145.152 11.4603 145.313 11.6429C145.475 11.8255 145.755 11.9978 146.158 12.1701C146.561 12.3423 147.129 12.5112 147.87 12.6835C148.897 12.9316 149.783 13.2279 150.527 13.5691C151.268 13.9102 151.877 14.396 152.353 15.0266C152.828 15.6537 153.066 16.4531 153.066 17.4247C153.066 18.3964 152.818 19.2441 152.322 19.9677C151.826 20.6912 151.102 21.2529 150.151 21.6526C149.2 22.0523 148.056 22.2521 146.723 22.2521C145.523 22.2521 144.39 22.0867 143.326 21.7525H143.329Z" fill="#2B2D33"/>
<path d="M169.058 15.6812H158.862C158.997 16.8251 159.365 17.6522 159.975 18.1655C160.586 18.679 161.478 18.9374 162.659 18.9374C163.476 18.9374 164.234 18.8202 164.93 18.5824C165.626 18.3447 166.229 18.007 166.742 17.5695L168.427 20.2536C167.666 20.9014 166.78 21.3976 165.771 21.7387C164.761 22.0798 163.675 22.2521 162.515 22.2521C160.878 22.2521 159.469 21.9385 158.287 21.3115C157.105 20.6844 156.206 19.7781 155.589 18.5997C154.968 17.4179 154.662 16.0189 154.662 14.4029C154.662 12.7869 154.965 11.3948 155.575 10.175C156.185 8.95529 157.046 8.01463 158.159 7.34616C159.272 6.68115 160.543 6.34692 161.97 6.34692C163.397 6.34692 164.644 6.67082 165.712 7.3186C166.777 7.96639 167.6 8.88982 168.183 10.0889C168.762 11.288 169.054 12.6973 169.054 14.3167V15.6881L169.058 15.6812ZM158.862 12.9971H165.116C165.02 11.8737 164.706 11.0365 164.175 10.4852C163.641 9.93386 162.917 9.65821 162.004 9.65821C160.178 9.65821 159.131 10.7712 158.862 13.0005V12.9971Z" fill="#2B2D33"/>
<path d="M182.692 7.04292C183.502 7.50808 184.126 8.19032 184.563 9.08619C185.001 9.98207 185.221 11.0571 185.221 12.3148V21.8524H181.279V12.8006C181.279 11.829 181.056 11.1019 180.608 10.6161C180.16 10.1303 179.481 9.88904 178.564 9.88904C177.879 9.88904 177.275 10.0406 176.752 10.3473C176.228 10.654 175.766 11.1088 175.367 11.7186V21.8558H171.456V6.75003H175.367V8.52111C175.843 7.83542 176.466 7.30134 177.238 6.92232C178.009 6.54329 178.871 6.35034 179.823 6.35034C180.925 6.35034 181.882 6.58464 182.692 7.04981V7.04292Z" fill="#2B2D33"/>
<path d="M70.3353 39.1291C70.887 39.9181 71.1623 40.8863 71.1623 42.0268C71.1623 43.7979 70.5936 45.1659 69.4642 46.1238C68.3298 47.0851 66.7278 47.5675 64.6532 47.5675H56.8564V28.1477H63.9683C66.0249 28.1477 67.6139 28.5888 68.7363 29.4743C69.8597 30.3598 70.4214 31.6106 70.4214 33.2301C70.4214 35.1528 69.5944 36.5345 67.9373 37.3718C68.9846 37.7543 69.7846 38.34 70.3353 39.1291ZM60.9666 31.6313V36.1727H63.6509C64.526 36.1727 65.1708 35.9832 65.5773 35.6007C65.9869 35.2217 66.1901 34.66 66.1901 33.9158C66.1901 33.0992 65.9698 32.5134 65.5323 32.1585C65.0947 31.807 64.4369 31.6313 63.5618 31.6313H60.9636H60.9666ZM64.1646 44.0805C65.0607 44.0805 65.7285 43.891 66.1771 43.5085C66.6247 43.1295 66.8489 42.5196 66.8489 41.6823C66.8489 40.9001 66.6347 40.3213 66.2071 39.9388C65.7806 39.5563 65.0707 39.3668 64.0815 39.3668H60.9706V44.0805H64.1676H64.1646Z" fill="#2B2D33"/>
<path d="M83.5293 32.4582H87.4402V47.564H83.5293V45.7654C83.0337 46.451 82.4059 46.9886 81.6449 47.378C80.883 47.7673 80.0249 47.9637 79.0747 47.9637C77.8372 47.9637 76.7308 47.626 75.7626 46.9507C74.7914 46.2753 74.0364 45.3312 73.4927 44.1218C72.9481 42.9124 72.6787 41.5479 72.6787 40.0249C72.6787 38.5019 72.9511 37.1065 73.4927 35.897C74.0334 34.6876 74.7914 33.7469 75.7626 33.0716C76.7348 32.3962 77.8372 32.0585 79.0747 32.0585C80.0249 32.0585 80.883 32.2584 81.6449 32.6581C82.4059 33.0578 83.0337 33.6022 83.5293 34.2879V32.4582ZM81.9854 43.9082C82.499 43.567 82.9055 43.064 83.1989 42.4093C83.4952 41.7512 83.6394 40.9587 83.6394 40.0249C83.6394 39.0911 83.4912 38.2986 83.1989 37.6405C82.9025 36.9858 82.499 36.4828 81.9854 36.1416C81.4727 35.8005 80.883 35.6283 80.2151 35.6283C79.5463 35.6283 78.9536 35.8005 78.4299 36.1416C77.9063 36.4828 77.5028 36.9858 77.2174 37.6405C76.931 38.2986 76.7899 39.0911 76.7899 40.0249C76.7899 40.9587 76.931 41.7512 77.2174 42.4093C77.5028 43.064 77.9063 43.567 78.4299 43.9082C78.9536 44.2528 79.5493 44.4216 80.2151 44.4216C80.88 44.4216 81.4727 44.2493 81.9854 43.9082Z" fill="#2B2D33"/>
<path d="M102.019 32.758C102.829 33.2232 103.453 33.9054 103.891 34.8013C104.328 35.6972 104.548 36.7722 104.548 38.0299V47.5675H100.606V38.5157C100.606 37.5441 100.383 36.817 99.9347 36.3312C99.4871 35.8454 98.8082 35.6042 97.8921 35.6042C97.2062 35.6042 96.6035 35.7558 96.0798 36.0625C95.5552 36.3691 95.0936 36.8239 94.6941 37.4338V47.571H90.7832V32.4652H94.6941V34.2362C95.1697 33.5505 95.7935 33.0165 96.5654 32.6374C97.3374 32.2584 98.1985 32.0655 99.1497 32.0655C100.252 32.0655 101.21 32.2998 102.019 32.7649V32.758Z" fill="#2B2D33"/>
<path d="M115.281 39.5116L121.335 47.5641H116.653L111.484 40.7107V47.5641H107.573V27.0038H111.484V38.5984L116.397 32.4583H121.053L115.285 39.5116H115.281Z" fill="#2B2D33"/>
<path d="M45.2538 2.45956H0V47.7168H45.2538V2.45956Z" fill="#FEE600"/>
<path fill-rule="evenodd" clip-rule="evenodd" d="M32.7236 21.8688L38.4913 16.1011L40.0331 17.6428L40.0434 17.6325C40.0434 16.6414 39.7509 13.2345 37.015 10.5674C33.9522 7.58033 30.8859 9.32854 29.826 10.3816L24.2717 15.9359L25.6482 17.3125L22.6267 20.334L19.6052 17.3125L20.9817 15.9359L15.4274 10.3816C14.3709 9.32509 11.3046 7.58033 8.23835 10.5674C5.50247 13.2345 5.20996 16.6414 5.20996 17.6325L5.22028 17.6428L6.76201 16.1011L12.5298 21.8688L14.1197 20.2789V16.4797L15.7543 18.1143V22.7085L18.005 24.9592L6.32495 36.6391L10.9467 41.2609L22.6267 29.5809L34.3067 41.2609L38.9284 36.6391L27.2484 24.9592L29.4991 22.7085V18.1143L31.1337 16.4797V20.2789L32.7236 21.8688Z" fill="#2B2D33"/>
</svg>
