<svg width="220" height="40" viewBox="0 0 220 40" fill="none" xmlns="http://www.w3.org/2000/svg">
<path d="M58.2481 18.1875L54.7294 11.7952H53.3041V18.1875H49.8828V2.02464H56.3726C57.4825 2.02464 58.4403 2.21104 59.249 2.58386C60.0577 2.95667 60.6743 3.49868 61.1016 4.21277C61.5289 4.92685 61.744 5.78145 61.744 6.77944C61.744 7.95237 61.4314 8.93317 60.8062 9.7275C60.1811 10.5219 59.2891 11.0754 58.1335 11.3908L62.0566 18.1875H58.2539H58.2481ZM53.3041 4.97273V9.08517H55.9654C56.6795 9.08517 57.2244 8.90733 57.6058 8.55175C57.9872 8.19613 58.1765 7.67706 58.1765 6.99452C58.1765 6.31199 57.9872 5.76711 57.6058 5.44878C57.2244 5.13046 56.6709 4.97273 55.9425 4.97273H53.3041Z" fill="white"/>
<path d="M71.8666 5.61226H75.1216V18.1847H71.8666V16.6877C71.4537 17.2583 70.9317 17.7057 70.2979 18.0298C69.6642 18.3538 68.9501 18.5173 68.1586 18.5173C67.129 18.5173 66.2084 18.2362 65.4026 17.6742C64.5939 17.1121 63.9658 16.3263 63.5128 15.3197C63.0596 14.3132 62.8359 13.1775 62.8359 11.9099C62.8359 10.6423 63.0625 9.48092 63.5128 8.47433C63.963 7.46772 64.5939 6.68481 65.4026 6.12272C66.2113 5.56063 67.129 5.27959 68.1586 5.27959C68.9501 5.27959 69.6642 5.44592 70.2979 5.77859C70.9317 6.11125 71.4537 6.56437 71.8666 7.13506V5.61226ZM70.5819 15.1419C71.0092 14.858 71.3475 14.4393 71.5914 13.8944C71.8379 13.3467 71.9584 12.6871 71.9584 11.9099C71.9584 11.1327 71.8351 10.4732 71.5914 9.92542C71.3447 9.3805 71.0092 8.96183 70.5819 8.67792C70.1545 8.394 69.6642 8.25062 69.1078 8.25062C68.5514 8.25062 68.0582 8.394 67.6223 8.67792C67.1864 8.96183 66.8509 9.3805 66.6129 9.92542C66.3748 10.4732 66.2572 11.1327 66.2572 11.9099C66.2572 12.6871 66.3748 13.3467 66.6129 13.8944C66.8509 14.4393 67.1864 14.858 67.6223 15.1419C68.0582 15.4287 68.5544 15.5692 69.1078 15.5692C69.6613 15.5692 70.1545 15.4258 70.5819 15.1419Z" fill="white"/>
<path d="M78.176 3.31804C77.8204 2.96243 77.6426 2.49785 77.6426 1.92716C77.6426 1.35647 77.8204 0.891883 78.176 0.536277C78.5316 0.180671 78.9962 0 79.5668 0C80.1376 0 80.5964 0.177803 80.9462 0.536277C81.2932 0.891883 81.4682 1.35647 81.4682 1.92716C81.4682 2.49785 81.2932 2.96243 80.9462 3.31804C80.5964 3.67364 80.1376 3.85432 79.5668 3.85432C78.9962 3.85432 78.5316 3.67652 78.176 3.31804ZM81.1585 18.1847H77.9036V5.61227H81.1585V18.1847Z" fill="white"/>
<path d="M88.1246 5.61228H91.5721V8.46575H88.1246V18.1876H84.8696V8.46575H82.7305V5.61228H84.8696V4.85231C84.8696 3.4729 85.2654 2.42042 86.057 1.69199C86.8487 0.963575 87.9354 0.599365 89.3121 0.599365C89.8196 0.599365 90.3012 0.64525 90.7629 0.742755C91.2221 0.837392 91.6437 0.966442 92.0221 1.12418L91.1904 3.61915C90.7629 3.44422 90.2954 3.35818 89.7879 3.35818C89.2004 3.35818 88.7787 3.49297 88.5179 3.76254C88.2571 4.03212 88.1246 4.44508 88.1246 4.99857V5.61514V5.61228Z" fill="white"/>
<path d="M96.444 5.61228H99.8906V8.46575H96.444V18.1876H93.189V8.46575H91.0498V5.61228H93.189V4.85231C93.189 3.4729 93.5848 2.42042 94.3756 1.69199C95.1673 0.963575 96.2548 0.599365 97.6306 0.599365C98.139 0.599365 98.6206 0.64525 99.0823 0.742755C99.5406 0.837392 99.9623 0.966442 100.341 1.12418L99.5098 3.61915C99.0823 3.44422 98.6148 3.35818 98.1073 3.35818C97.519 3.35818 97.0973 3.49297 96.8365 3.76254C96.5756 4.03212 96.444 4.44508 96.444 4.99857V5.61514V5.61228Z" fill="white"/>
<path d="M112.559 13.0513H104.073C104.185 14.0034 104.491 14.6917 104.999 15.119C105.506 15.5463 106.25 15.7614 107.233 15.7614C107.913 15.7614 108.544 15.6639 109.123 15.466C109.702 15.2682 110.204 14.9871 110.631 14.6229L112.034 16.8569C111.4 17.3961 110.663 17.809 109.823 18.0929C108.982 18.3768 108.079 18.5203 107.113 18.5203C105.75 18.5203 104.577 18.2593 103.594 17.7373C102.61 17.2154 101.861 16.4612 101.348 15.4803C100.832 14.4968 100.577 13.3324 100.577 11.9874C100.577 10.6424 100.83 9.48383 101.337 8.46858C101.845 7.45341 102.561 6.67051 103.488 6.11415C104.414 5.56067 105.472 5.28249 106.66 5.28249C107.847 5.28249 108.885 5.55207 109.774 6.09121C110.66 6.63036 111.345 7.39892 111.83 8.39692C112.312 9.39492 112.555 10.5678 112.555 11.9157V13.0571L112.559 13.0513ZM104.073 10.8173H109.278C109.197 9.88242 108.936 9.18558 108.495 8.72675C108.05 8.26787 107.448 8.03844 106.688 8.03844C105.168 8.03844 104.296 8.96475 104.073 10.8202V10.8173Z" fill="white"/>
<path d="M114.826 3.31804C114.47 2.96243 114.293 2.49785 114.293 1.92716C114.293 1.35647 114.47 0.891883 114.826 0.536277C115.182 0.180671 115.646 0 116.217 0C116.788 0 117.246 0.177803 117.596 0.536277C117.944 0.891883 118.118 1.35647 118.118 1.92716C118.118 2.49785 117.944 2.96243 117.596 3.31804C117.246 3.67364 116.788 3.85432 116.217 3.85432C115.646 3.85432 115.182 3.67652 114.826 3.31804ZM117.809 18.1847H114.554V5.61227H117.809V18.1847Z" fill="white"/>
<path d="M121.97 18.1044C121.08 17.8263 120.33 17.3961 119.713 16.8082L121.233 14.4795C122.168 15.3657 123.355 15.8102 124.797 15.8102C125.431 15.8102 125.91 15.7127 126.235 15.5119C126.558 15.314 126.722 15.0158 126.722 14.62C126.722 14.2873 126.575 14.0149 126.283 13.7998C125.99 13.5847 125.454 13.384 124.68 13.1948C123.682 12.9739 122.861 12.7273 122.22 12.4578C121.577 12.1882 121.058 11.8068 120.662 11.3163C120.266 10.8259 120.069 10.1836 120.069 9.39208C120.069 8.55175 120.284 7.82336 120.71 7.20678C121.138 6.59021 121.749 6.11415 122.54 5.78148C123.332 5.44882 124.253 5.28249 125.296 5.28249C126.277 5.28249 127.186 5.42588 128.018 5.70979C128.85 5.9937 129.558 6.41527 130.146 6.96875L128.626 9.20275C128.199 8.807 127.691 8.50592 127.106 8.29941C126.521 8.09293 125.91 7.98969 125.276 7.98969C124.643 7.98969 124.215 8.08432 123.897 8.27647C123.579 8.46575 123.421 8.7525 123.421 9.13108C123.421 9.35192 123.487 9.53833 123.621 9.69025C123.756 9.84225 123.989 9.98567 124.325 10.1291C124.66 10.2724 125.133 10.413 125.75 10.5563C126.604 10.7628 127.341 11.0095 127.96 11.2934C128.577 11.5773 129.085 11.9817 129.48 12.5065C129.876 13.0284 130.074 13.6938 130.074 14.5024C130.074 15.3112 129.868 16.0167 129.455 16.6189C129.042 17.2211 128.44 17.6886 127.648 18.0213C126.856 18.3539 125.905 18.5203 124.795 18.5203C123.796 18.5203 122.853 18.3826 121.967 18.1044H121.97Z" fill="white"/>
<path d="M143.384 13.0513H134.898C135.01 14.0034 135.317 14.6917 135.824 15.119C136.332 15.5463 137.075 15.7614 138.058 15.7614C138.738 15.7614 139.369 15.6639 139.948 15.466C140.527 15.2682 141.029 14.9871 141.457 14.6229L142.859 16.8569C142.226 17.3961 141.488 17.809 140.648 18.0929C139.807 18.3768 138.904 18.5203 137.938 18.5203C136.576 18.5203 135.403 18.2593 134.419 17.7373C133.436 17.2154 132.687 16.4612 132.174 15.4803C131.657 14.4968 131.402 13.3324 131.402 11.9874C131.402 10.6424 131.655 9.48383 132.162 8.46858C132.67 7.45341 133.387 6.67051 134.313 6.11415C135.239 5.56067 136.297 5.28249 137.485 5.28249C138.672 5.28249 139.71 5.55207 140.599 6.09121C141.486 6.63036 142.171 7.39892 142.656 8.39692C143.137 9.39492 143.381 10.5678 143.381 11.9157V13.0571L143.384 13.0513ZM134.898 10.8173H140.103C140.023 9.88242 139.762 9.18558 139.32 8.72675C138.876 8.26787 138.273 8.03844 137.513 8.03844C135.993 8.03844 135.122 8.96475 134.898 10.8202V10.8173Z" fill="white"/>
<path d="M154.732 5.86177C155.406 6.24892 155.925 6.81674 156.289 7.56237C156.653 8.30799 156.837 9.20275 156.837 10.2495V18.1876H153.556V10.6538C153.556 9.84517 153.37 9.24 152.997 8.83567C152.624 8.43133 152.059 8.23057 151.296 8.23057C150.726 8.23057 150.223 8.35675 149.787 8.612C149.352 8.86725 148.967 9.24575 148.635 9.75333V18.1904H145.38V5.618H148.635V7.09205C149.031 6.52136 149.55 6.07685 150.192 5.76139C150.834 5.44593 151.552 5.28534 152.343 5.28534C153.261 5.28534 154.057 5.48035 154.732 5.8675V5.86177Z" fill="white"/>
<path d="M175.954 11.1643C176.413 11.821 176.642 12.6268 176.642 13.5761C176.642 15.0502 176.169 16.1887 175.229 16.9859C174.285 17.786 172.951 18.1875 171.225 18.1875H164.735V2.02464H170.655C172.366 2.02464 173.689 2.39172 174.623 3.12874C175.558 3.86576 176.025 4.90677 176.025 6.25463C176.025 7.85487 175.337 9.00483 173.958 9.70175C174.83 10.0201 175.495 10.5076 175.954 11.1643ZM168.156 4.92397V8.70375H170.39C171.119 8.70375 171.655 8.546 171.994 8.22767C172.335 7.91222 172.504 7.44477 172.504 6.82532C172.504 6.14566 172.32 5.65813 171.956 5.36275C171.592 5.07023 171.045 4.92397 170.316 4.92397H168.154H168.156ZM170.818 15.2853C171.564 15.2853 172.12 15.1276 172.493 14.8092C172.865 14.4938 173.052 13.9862 173.052 13.2893C173.052 12.6383 172.874 12.1566 172.518 11.8382C172.163 11.5199 171.572 11.3622 170.749 11.3622H168.16V15.2853H170.82H170.818Z" fill="white"/>
<path d="M186.934 5.61226H190.189V18.1847H186.934V16.6877C186.522 17.2583 185.999 17.7057 185.366 18.0298C184.732 18.3538 184.017 18.5173 183.227 18.5173C182.197 18.5173 181.276 18.2362 180.47 17.6742C179.662 17.1121 179.033 16.3263 178.581 15.3197C178.127 14.3132 177.903 13.1775 177.903 11.9099C177.903 10.6423 178.13 9.48092 178.581 8.47433C179.031 7.46772 179.662 6.68481 180.47 6.12272C181.279 5.56063 182.197 5.27959 183.227 5.27959C184.017 5.27959 184.732 5.44592 185.366 5.77859C185.999 6.11125 186.522 6.56437 186.934 7.13506V5.61226ZM185.649 15.1419C186.077 14.858 186.415 14.4393 186.659 13.8944C186.906 13.3467 187.026 12.6871 187.026 11.9099C187.026 11.1327 186.902 10.4732 186.659 9.92542C186.412 9.3805 186.077 8.96183 185.649 8.67792C185.222 8.394 184.732 8.25062 184.176 8.25062C183.619 8.25062 183.126 8.394 182.69 8.67792C182.254 8.96183 181.918 9.3805 181.681 9.92542C181.442 10.4732 181.325 11.1327 181.325 11.9099C181.325 12.6871 181.442 13.3467 181.681 13.8944C181.918 14.4393 182.254 14.858 182.69 15.1419C183.126 15.4287 183.622 15.5692 184.176 15.5692C184.729 15.5692 185.222 15.4258 185.649 15.1419Z" fill="white"/>
<path d="M202.322 5.86177C202.997 6.24892 203.516 6.81674 203.88 7.56237C204.244 8.30799 204.427 9.20275 204.427 10.2495V18.1876H201.147V10.6538C201.147 9.84517 200.961 9.24 200.587 8.83567C200.215 8.43133 199.65 8.23057 198.887 8.23057C198.317 8.23057 197.815 8.35675 197.379 8.612C196.942 8.86725 196.558 9.24575 196.226 9.75333V18.1904H192.971V5.618H196.226V7.09205C196.622 6.52136 197.141 6.07685 197.783 5.76139C198.426 5.44593 199.142 5.28534 199.934 5.28534C200.852 5.28534 201.649 5.48035 202.322 5.8675V5.86177Z" fill="white"/>
<path d="M213.361 11.4827L218.4 18.1847H214.503L210.201 12.4807V18.1847H206.946V1.07254H210.201V10.7227L214.29 5.61226H218.165L213.365 11.4827H213.361Z" fill="white"/>
<path d="M51.2851 39.7362H49.8828V23.5733H51.2851V39.7362Z" fill="white"/>
<path d="M62.1223 27.8291C62.7245 28.1618 63.1891 28.6464 63.5132 29.2802C63.8372 29.914 64.0007 30.6739 64.0007 31.563V39.7391H62.6471V31.7293C62.6471 30.7141 62.3861 29.9398 61.8642 29.4007C61.3423 28.8615 60.6052 28.5919 59.6531 28.5919C58.1159 28.5919 56.9028 29.3289 56.0168 30.803V39.7391H54.6631V27.5939H56.0168V29.4952C56.444 28.8156 56.9947 28.2823 57.6686 27.9037C58.3425 27.5223 59.1139 27.333 59.9858 27.333C60.8088 27.333 61.5229 27.4993 62.1251 27.832L62.1223 27.8291Z" fill="white"/>
<path d="M73.8137 39.4752C73.1312 39.8222 72.3396 39.9972 71.4363 39.9972C69.0904 39.9972 67.9175 38.8012 67.9175 36.4067V28.8242H65.6348V27.5882H67.9175V24.4737H69.2739V27.5882H73.5298V28.8242H69.2739V36.2862C69.2739 37.1265 69.4603 37.7431 69.8332 38.1388C70.206 38.5346 70.7882 38.7324 71.5797 38.7324C72.2938 38.7324 72.896 38.5977 73.3864 38.3281L73.8137 39.4695V39.4752Z" fill="white"/>
<path d="M84.9385 34.1038H75.9537C76.0168 35.641 76.4097 36.8024 77.1295 37.5853C77.8493 38.3683 78.8617 38.7612 80.1608 38.7612C81.7123 38.7612 82.9425 38.2306 83.846 37.1695L84.5602 38.1446C84.0377 38.7296 83.3985 39.1856 82.6471 39.5097C81.8957 39.8337 81.0498 39.9972 80.1148 39.9972C78.9735 39.9972 77.9841 39.7477 77.1438 39.2487C76.3036 38.7497 75.6583 38.027 75.2081 37.0863C74.7578 36.1428 74.5312 35.0158 74.5312 33.6995C74.5312 32.3832 74.7492 31.2705 75.1851 30.3126C75.621 29.3547 76.2347 28.6178 77.0262 28.1016C77.8177 27.5883 78.7383 27.3301 79.7822 27.3301C80.8261 27.3301 81.7151 27.5825 82.4922 28.0901C83.2694 28.5977 83.8718 29.329 84.2993 30.2897C84.726 31.2475 84.941 32.3774 84.941 33.6766V34.1038H84.9385ZM77.118 29.7305C76.4527 30.4904 76.0712 31.5831 75.9767 33.0112H83.5593C83.496 31.6002 83.1318 30.5105 82.4664 29.7419C81.8012 28.9733 80.9063 28.5891 79.7793 28.5891C78.6522 28.5891 77.7833 28.9705 77.118 29.7305Z" fill="white"/>
<path d="M93.1143 27.4964V28.8271C92.7643 28.7956 92.5035 28.7783 92.3318 28.7783C91.5226 28.7783 90.826 28.9848 90.241 29.3949C89.6535 29.8078 89.1401 30.4101 88.6951 31.2016V39.7333H87.3418V27.5882H88.6951V29.9168C89.1226 29.1253 89.6385 28.5202 90.241 28.0987C90.8435 27.68 91.5635 27.4678 92.4035 27.4678C92.7218 27.4678 92.9568 27.4763 93.1176 27.4907L93.1143 27.4964Z" fill="white"/>
<path d="M102.647 27.8291C103.249 28.1618 103.714 28.6464 104.038 29.2802C104.362 29.914 104.525 30.6739 104.525 31.563V39.7391H103.172V31.7293C103.172 30.7141 102.911 29.9398 102.389 29.4007C101.867 28.8615 101.13 28.5919 100.177 28.5919C98.6408 28.5919 97.4275 29.3289 96.5417 30.803V39.7391H95.1875V27.5939H96.5417V29.4952C96.9683 28.8156 97.5192 28.2823 98.1933 27.9037C98.8675 27.5223 99.6383 27.333 100.511 27.333C101.333 27.333 102.048 27.4993 102.65 27.832L102.647 27.8291Z" fill="white"/>
<path d="M115.862 27.5911H117.215V39.7362H115.862V37.3129C115.48 38.1532 114.93 38.8098 114.21 39.2859C113.488 39.762 112.662 40 111.727 40C110.743 40 109.869 39.739 109.1 39.2171C108.331 38.6952 107.729 37.9582 107.293 37.006C106.857 36.0539 106.64 34.9469 106.64 33.6794C106.64 32.4118 106.857 31.2991 107.293 30.3413C107.729 29.3834 108.331 28.6407 109.1 28.1188C109.869 27.5968 110.743 27.3358 111.727 27.3358C112.71 27.3358 113.49 27.5738 114.21 28.0499C114.93 28.5259 115.48 29.1912 115.862 30.0459V27.5968V27.5911ZM114.093 38.1331C114.686 37.7287 115.145 37.1437 115.472 36.3751C115.796 35.6065 115.96 34.7089 115.96 33.6765C115.96 32.6441 115.796 31.7236 115.472 30.955C115.148 30.1864 114.69 29.6013 114.093 29.197C113.499 28.7927 112.814 28.5919 112.036 28.5919C111.26 28.5919 110.551 28.7955 109.957 29.197C109.364 29.6013 108.899 30.1864 108.566 30.955C108.234 31.7236 108.067 32.6298 108.067 33.6765C108.067 34.7233 108.234 35.6266 108.566 36.3866C108.899 37.1465 109.364 37.7287 109.957 38.1331C110.551 38.5374 111.245 38.7382 112.036 38.7382C112.828 38.7382 113.499 38.5374 114.093 38.1331Z" fill="white"/>
<path d="M127.316 39.4752C126.633 39.8222 125.842 39.9972 124.938 39.9972C122.593 39.9972 121.419 38.8012 121.419 36.4067V28.8242H119.137V27.5882H121.419V24.4737H122.776V27.5882H127.032V28.8242H122.776V36.2862C122.776 37.1265 122.963 37.7431 123.335 38.1388C123.708 38.5346 124.29 38.7324 125.082 38.7324C125.796 38.7324 126.398 38.5977 126.888 38.3281L127.316 39.4695V39.4752Z" fill="white"/>
<path d="M129.244 24.5971C129.037 24.4078 128.934 24.1526 128.934 23.8371C128.934 23.5217 129.037 23.2636 129.244 23.0657C129.449 22.8678 129.702 22.7674 130.003 22.7674C130.319 22.7674 130.577 22.8678 130.774 23.0657C130.973 23.2636 131.073 23.5217 131.073 23.8371C131.073 24.1526 130.973 24.4078 130.774 24.5971C130.577 24.7863 130.319 24.881 130.003 24.881C129.688 24.881 129.449 24.7863 129.244 24.5971ZM130.669 39.7362H129.315V27.5911H130.669V39.7362Z" fill="white"/>
<path d="M135.73 39.2257C134.89 38.7123 134.235 37.9753 133.768 37.0147C133.3 36.0567 133.065 34.9441 133.065 33.6737C133.065 32.4033 133.303 31.2905 133.78 30.3212C134.255 29.3547 134.912 28.6148 135.752 28.0987C136.593 27.5853 137.542 27.3273 138.603 27.3273C139.664 27.3273 140.639 27.5853 141.48 28.0987C142.32 28.6148 142.974 29.3519 143.441 30.3098C143.909 31.2676 144.144 32.3889 144.144 33.6737C144.144 34.9584 143.909 36.0539 143.441 37.0147C142.974 37.9725 142.32 38.7095 141.48 39.2257C140.639 39.739 139.681 39.9972 138.603 39.9972C137.525 39.9972 136.567 39.739 135.726 39.2257H135.73ZM140.78 38.1331C141.405 37.7288 141.89 37.1466 142.23 36.3866C142.572 35.6266 142.741 34.7233 142.741 33.6765C142.741 32.6298 142.572 31.7236 142.23 30.955C141.89 30.1864 141.408 29.6014 140.78 29.197C140.155 28.7927 139.429 28.5919 138.606 28.5919C137.783 28.5919 137.06 28.7955 136.444 29.197C135.824 29.6014 135.345 30.1864 135.007 30.955C134.665 31.7236 134.496 32.6298 134.496 33.6765C134.496 34.7233 134.665 35.6266 135.007 36.3866C135.348 37.1466 135.827 37.7288 136.444 38.1331C137.06 38.5374 137.783 38.7382 138.606 38.7382C139.429 38.7382 140.155 38.5374 140.78 38.1331Z" fill="white"/>
<path d="M154.009 27.8291C154.611 28.1618 155.076 28.6464 155.4 29.2802C155.724 29.914 155.887 30.6739 155.887 31.563V39.7391H154.534V31.7293C154.534 30.7141 154.273 29.9398 153.751 29.4007C153.229 28.8615 152.492 28.5919 151.54 28.5919C150.003 28.5919 148.79 29.3289 147.903 30.803V39.7391H146.55V27.5939H147.903V29.4952C148.331 28.8156 148.881 28.2823 149.556 27.9037C150.229 27.5223 151.001 27.333 151.872 27.333C152.696 27.333 153.41 27.4993 154.012 27.832L154.009 27.8291Z" fill="white"/>
<path d="M167.224 27.5911H168.578V39.7362H167.224V37.3129C166.843 38.1532 166.292 38.8098 165.573 39.2859C164.849 39.762 164.023 40 163.088 40C162.105 40 161.23 39.739 160.462 39.2171C159.693 38.6952 159.091 37.9582 158.655 37.006C158.219 36.0539 158.001 34.9469 158.001 33.6794C158.001 32.4118 158.219 31.2991 158.655 30.3413C159.091 29.3834 159.693 28.6407 160.462 28.1188C161.23 27.5968 162.105 27.3358 163.088 27.3358C164.073 27.3358 164.853 27.5738 165.573 28.0499C166.292 28.5259 166.843 29.1912 167.224 30.0459V27.5968V27.5911ZM165.454 38.1331C166.048 37.7287 166.507 37.1437 166.834 36.3751C167.158 35.6065 167.322 34.7089 167.322 33.6765C167.322 32.6441 167.158 31.7236 166.834 30.955C166.51 30.1864 166.051 29.6013 165.454 29.197C164.858 28.7927 164.176 28.5919 163.398 28.5919C162.621 28.5919 161.913 28.7955 161.319 29.197C160.726 29.6013 160.261 30.1864 159.928 30.955C159.596 31.7236 159.429 32.6298 159.429 33.6765C159.429 34.7233 159.596 35.6266 159.928 36.3866C160.261 37.1465 160.726 37.7287 161.319 38.1331C161.913 38.5374 162.607 38.7382 163.398 38.7382C164.19 38.7382 164.861 38.5374 165.454 38.1331Z" fill="white"/>
<path d="M173.283 39.7362H171.93V22.6241H173.283V39.7362Z" fill="white"/>
<path d="M37.7115 2.02464H0V39.739H37.7115V2.02464Z" fill="#FEE600"/>
<path fill-rule="evenodd" clip-rule="evenodd" d="M27.2698 18.199L32.0762 13.3926L33.361 14.6773L33.3696 14.6687C33.3696 13.8428 33.1259 11.0037 30.846 8.78117C28.2936 6.29194 25.7384 7.74878 24.8551 8.62633L20.2265 13.2549L21.3736 14.4021L18.8557 16.92L16.3378 14.4021L17.4849 13.2549L12.8563 8.62633C11.9759 7.74591 9.42062 6.29194 6.86546 8.78117C4.58556 11.0037 4.3418 13.8428 4.3418 14.6687L4.3504 14.6773L5.63517 13.3926L10.4416 18.199L11.7665 16.8741V13.7081L13.1287 15.0702V18.8987L15.0043 20.7743L5.27096 30.5076L9.12237 34.3591L18.8557 24.6257L28.589 34.3591L32.4405 30.5076L22.7071 20.7743L24.5827 18.8987V15.0702L25.9449 13.7081V16.8741L27.2698 18.199Z" fill="#2B2D33"/>
</svg>
