<svg width="206" height="40" viewBox="0 0 206 40" fill="none" xmlns="http://www.w3.org/2000/svg">
<path d="M20.3815 10.6812C20.3815 10.6812 20.3815 10.5722 20.7084 10.1362C21.0354 9.70027 20.9264 9.3733 20.7084 9.15531C20.5995 9.04632 17.4387 7.19346 17.4387 7.19346C17.2207 7.08447 17.1117 6.75749 17.1117 6.53951C17.1117 6.10354 17.4387 5.77657 17.9837 5.55858C19.9455 5.01362 27.03 4.68665 29.4278 4.68665H32.6975H32.8065C29.3188 1.74387 24.8501 0 19.9455 0C8.93733 0 0 8.93733 0 19.9455C0 24.7411 1.74387 29.2098 4.57766 32.6976C7.08447 28.9918 13.297 20.2725 14.6049 18.4196C16.2398 16.0218 20.3815 10.6812 20.3815 10.6812Z" fill="#E00A1E"/>
<path d="M38.2555 11.9891C39.2365 11.0082 39.8904 10.1362 39.7814 9.37329C39.6724 7.30245 37.1656 5.66757 37.1656 5.66757C37.1656 5.66757 37.1656 5.66757 37.0566 5.55858C37.1656 5.66757 37.2746 5.77656 37.3836 5.99455C38.0375 7.52043 36.9476 8.50136 36.2937 9.15531C35.9667 9.48228 30.8441 14.2779 24.8495 19.5095C19.6179 24.0872 13.7324 28.7738 10.2446 31.3896C5.44898 34.9864 4.46806 35.5313 4.46806 35.5313C4.35907 35.6403 4.14108 35.6403 3.9231 35.6403C3.59612 35.6403 3.37814 35.4223 3.16016 35.2044C3.16016 35.3134 3.16016 35.6403 3.59612 36.1853L3.81411 36.4033C4.14108 36.7302 4.57705 37.2752 5.231 37.7112C6.21193 38.5831 6.64789 38.1471 8.71874 36.6213C11.8795 38.6921 15.6942 40 19.8359 40C30.8441 40 39.7814 31.0627 39.7814 20.0545C39.9994 17.1117 39.3454 14.3869 38.2555 11.9891Z" fill="#E00A1E"/>
<path fill-rule="evenodd" clip-rule="evenodd" d="M20.7084 10.1362C21.0354 9.70027 20.9264 9.37329 20.7084 9.15531C20.5994 9.04632 17.4387 7.19346 17.4387 7.19346C17.2207 7.08447 17.1117 6.75749 17.1117 6.53951C17.1117 6.10354 17.4387 5.77656 17.9836 5.55858C19.9455 5.01362 27.03 4.68665 29.4278 4.68665C30.5177 4.68665 32.8065 4.68665 34.2234 4.79564C35.8583 4.90463 37.1662 5.2316 37.3842 5.99455C38.0381 7.52043 36.9482 8.50136 36.2943 9.15531C35.9673 9.48229 30.8447 14.2779 24.8501 19.5095C19.6185 24.0872 13.733 28.7738 10.2452 31.3896C5.44958 34.9864 4.46865 35.5313 4.46865 35.5313C4.35966 35.6403 4.14168 35.6403 3.92369 35.6403C3.37873 35.6403 3.05176 35.3134 3.05176 34.7684C3.05176 34.5504 3.16075 34.4414 3.16075 34.2234C3.16075 34.2234 12.643 20.5995 14.2779 18.3106C16.0218 16.0218 20.1635 10.6812 20.1635 10.6812C20.1635 10.6812 20.3815 10.5722 20.7084 10.1362Z" fill="white"/>
<path d="M69.3185 3.59673V28.5559C69.3185 34.0054 64.5229 38.2561 58.0924 38.2561C51.7708 38.2561 46.8662 34.1144 46.8662 28.5559V9.48228C46.8662 6.21253 49.482 3.59673 52.6428 3.59673H53.0787V28.5559C53.0787 31.4986 55.6945 33.3515 58.3104 33.3515C60.8172 33.3515 63.433 31.7166 63.433 28.5559V9.15531C63.433 6.10354 65.9398 3.59673 68.9916 3.59673H69.3185Z" fill="white"/>
<path d="M81.6354 12.4251C90.1368 12.4251 91.4447 17.2207 91.4447 20.0545V37.8202H91.2267C88.066 37.8202 85.4502 35.2044 85.4502 32.0436V20.0545C85.4502 18.4196 84.7962 16.3488 81.4175 16.3488C79.8916 16.3488 78.9106 16.5668 77.9297 16.8937V37.7112H71.8262V14.1689C74.442 13.079 78.6927 12.4251 81.6354 12.4251Z" fill="white"/>
<path d="M97.2206 3.59673C99.0734 3.59673 100.49 5.01362 100.49 6.6485C100.49 8.28337 99.0734 9.59128 97.2206 9.59128C95.3677 9.59128 93.9508 8.28337 93.9508 6.6485C93.8418 4.90463 95.3677 3.59673 97.2206 3.59673ZM100.163 12.4251V32.1526C100.163 35.3133 97.6565 37.9292 94.3868 37.9292H94.1688V12.4251H100.163Z" fill="white"/>
<path d="M117.494 3.05179C120.327 3.05179 123.052 3.70574 125.232 5.01364V11.0082C123.815 9.26432 121.962 7.95642 118.802 7.95642C112.589 7.95642 108.774 14.06 108.774 20.3815C108.774 26.376 112.807 32.8066 118.802 32.8066C121.417 32.8066 123.815 32.0436 125.232 30.0818V35.9673C123.488 37.2752 120.654 38.0382 117.385 38.0382C107.575 38.0382 102.344 28.9918 102.344 20.3815C102.453 11.9891 107.684 3.05179 117.494 3.05179Z" fill="white"/>
<path d="M136.021 12.4251C137.002 12.4251 138.31 12.5341 139.4 12.643V17.5477C137.329 16.0218 134.495 16.5668 133.296 17.2207V32.1526C133.296 35.3134 130.681 37.9292 127.52 37.9292H127.302V14.3869C129.7 13.188 132.097 12.4251 136.021 12.4251Z" fill="white"/>
<path d="M160.545 25.3951L145.395 27.466C145.94 31.6077 148.011 33.7875 151.826 33.7875C156.077 33.7875 158.147 32.3706 159.782 31.2807V36.2943C158.256 37.1662 155.423 38.1472 151.281 38.1472C143.869 38.1472 139.51 33.1335 139.51 25.1771C139.51 17.4387 143.651 12.3161 150.3 12.3161C156.948 12.3161 160.654 16.6758 160.654 24.4142V25.3951H160.545ZM155.314 21.9074C155.096 16.8938 152.044 16.3488 150.3 16.3488H150.082C146.703 16.4578 145.068 18.8556 145.068 23.3243L155.314 21.9074Z" fill="white"/>
<path d="M182.344 3.59673V37.6022C180.927 37.9292 176.131 38.2561 174.169 38.2561H173.733C166.322 38.1471 162.289 33.8965 162.289 26.267C162.289 18.5286 166.54 13.515 173.079 13.515C174.387 13.515 175.477 13.624 176.349 13.842V9.48228C176.349 6.32152 178.856 3.70572 182.126 3.70572H182.344V3.59673ZM176.458 17.3297C175.804 17.1117 175.15 17.1117 174.387 17.1117C169.374 17.1117 168.393 21.9074 168.393 25.9401C168.393 31.4986 170.245 34.3324 174.06 34.3324C174.714 34.3324 176.131 34.2234 176.567 34.1144V17.3297H176.458Z" fill="white"/>
<path d="M188.228 3.59673C190.081 3.59673 191.498 5.01362 191.498 6.6485C191.498 8.28337 190.081 9.59128 188.228 9.59128C186.376 9.59128 184.959 8.28337 184.959 6.6485C184.85 4.90463 186.376 3.59673 188.228 3.59673ZM191.171 12.4251V32.1526C191.171 35.3133 188.664 37.9292 185.395 37.9292H185.177V12.4251H191.171Z" fill="white"/>
<path d="M201.854 3.59673V12.4251H205.777V17.3297H201.854V30.8447C201.854 32.4796 202.398 33.0245 204.142 33.0245C204.578 33.0245 205.232 32.9155 205.777 32.6975V37.7112C205.559 37.8202 204.36 38.2561 202.725 38.2561C198.257 38.2561 195.859 36.0763 195.859 32.1526V17.3297H193.243V12.4251H195.859V9.37329C195.859 6.21253 198.366 3.59673 201.527 3.59673H201.854Z" fill="white"/>
</svg>
