<svg width="262" height="40" viewBox="0 0 262 40" fill="none" xmlns="http://www.w3.org/2000/svg">
<path d="M61.0913 18.4436C64.0443 17.3293 65.3258 15.1006 65.3258 12.1476C65.3258 7.13297 61.2584 4.4028 54.9623 4.4028H46.3818V34.156H57.1911C63.6543 34.156 67.1645 31.4259 67.1645 25.7984C67.1645 22.0096 64.8244 19.558 61.0913 18.4436ZM51.0064 8.69306H55.5195C58.5283 8.69306 60.5898 10.086 60.5898 12.649C60.5898 14.9334 59.4755 16.605 55.5195 16.605H51.0064V8.69306ZM56.8567 29.9215H51.0064V20.8952H56.8567C60.7013 20.8952 62.4285 22.7896 62.4285 25.4083C62.4285 28.0828 60.6455 29.9215 56.8567 29.9215Z" fill="white"/>
<path d="M80.4809 13.1505C74.742 13.1505 69.8945 16.995 69.8945 23.8483V24.0711C69.8945 31.0916 75.0763 34.7689 80.4809 34.7689C85.8855 34.7689 91.0672 31.0916 91.0672 24.0711V23.8483C91.0672 17.0507 86.2198 13.1505 80.4809 13.1505ZM86.6098 24.0711C86.6098 27.247 84.7154 30.813 80.4809 30.813C76.2463 30.813 74.3519 27.247 74.3519 24.0711V23.8483C74.3519 20.6166 76.2463 17.1064 80.4809 17.1064C84.7154 17.1064 86.6098 20.6724 86.6098 23.8483V24.0711Z" fill="white"/>
<path d="M108.005 24.9069C108.005 28.3057 106.724 30.7016 103.269 30.7016C99.8706 30.7016 98.5334 28.3614 98.5334 24.9069V13.7634H94.2988V25.4641C94.2988 30.7016 97.419 34.7689 103.269 34.7689C109.12 34.7689 112.24 30.7016 112.24 25.4641V13.7634H108.005V24.9069Z" fill="white"/>
<path d="M115.75 22.6225V34.156H119.985V22.7896C119.985 19.558 121.266 17.4407 124.665 17.4407H126.894V13.4291H124.665C118.48 13.4848 115.75 17.1064 115.75 22.6225Z" fill="white"/>
<path d="M139.486 22.3439L136.645 21.6753C134.583 21.1738 133.19 20.6724 133.19 19.2794C133.19 17.8308 134.472 16.9393 136.645 16.9393C138.762 16.9393 140.266 17.9422 140.266 19.7252V19.7809H144.334V19.4466C144.334 15.7692 141.046 13.3176 136.645 13.3176C132.243 13.3176 128.956 15.8249 128.956 19.3351C128.956 22.4553 131.017 24.2383 134.082 25.0183L137.09 25.7427C139.43 26.2998 140.768 27.1356 140.768 28.64C140.768 30.3672 139.208 31.1473 136.756 31.1473C134.026 31.1473 132.577 29.5315 132.577 27.6928V27.6371H128.51V27.8042C128.51 32.3173 132.076 34.8246 136.756 34.8246C141.938 34.8246 145.002 32.1502 145.002 28.64C145.002 25.0183 142.662 23.1239 139.486 22.3439Z" fill="white"/>
<path d="M158.095 13.1505C152.356 13.1505 147.509 16.995 147.509 23.8483V24.0711C147.509 31.0916 152.691 34.7689 158.095 34.7689C163.5 34.7689 168.681 31.0916 168.681 24.0711V23.8483C168.681 17.0507 163.834 13.1505 158.095 13.1505ZM164.168 24.0711C164.168 27.247 162.274 30.813 158.039 30.813C153.805 30.813 151.91 27.247 151.91 24.0711V23.8483C151.91 20.6166 153.805 17.1064 158.039 17.1064C162.274 17.1064 164.168 20.6724 164.168 23.8483V24.0711Z" fill="white"/>
<path d="M26.8253 39.8392C26.8811 40.0621 27.2711 40.0621 27.2711 39.7835L30.8927 19.5023L20.585 20.3938L26.8253 39.8392Z" fill="white"/>
<path d="M17.4087 10.5317L20.5846 20.3938L0.247634 22.0653C0.0247635 22.0653 -0.0866719 21.7867 0.080481 21.6195L17.4087 10.5317Z" fill="#6F6F6F"/>
<path d="M193.253 25.7984C193.253 21.9539 190.913 19.5023 187.18 18.4436C190.133 17.3293 191.415 15.1006 191.415 12.1476C191.415 7.13297 187.347 4.4028 181.051 4.4028H172.415V34.156H183.28C189.743 34.156 193.253 31.4259 193.253 25.7984ZM177.095 8.69306H181.608C184.617 8.69306 186.679 10.086 186.679 12.649C186.679 14.9334 185.564 16.605 181.608 16.605H177.095V8.69306ZM177.095 29.9215V20.8952H182.946C186.79 20.8952 188.517 22.7896 188.517 25.4083C188.517 28.0828 186.79 29.8658 182.946 29.8658H177.095V29.9215Z" fill="white"/>
<path d="M205.734 34.7132C208.966 34.7132 211.083 33.4874 212.587 31.6487V34.156H216.822V13.7634H212.754V16.2707C211.306 14.4877 209.133 13.2062 205.957 13.2062C201.221 13.2062 195.928 16.7721 195.928 23.8483V24.1826C195.928 30.5901 200.664 34.7132 205.734 34.7132ZM200.385 23.9597C200.385 20.6724 202.168 17.2179 206.458 17.2179C210.637 17.2179 212.587 20.6724 212.587 23.9597V24.0711C212.587 27.1913 210.637 30.7015 206.458 30.7015C202.168 30.7015 200.385 27.1913 200.385 24.0711V23.9597Z" fill="white"/>
<path d="M225.124 22.9568C225.124 19.558 226.851 17.1622 230.083 17.1622C233.315 17.1622 235.042 19.5023 235.042 22.9568V34.156H239.276V22.4553C239.276 16.8278 235.711 13.1505 230.083 13.1505C224.4 13.1505 220.89 16.8278 220.89 22.4553V34.156H225.124V22.9568Z" fill="white"/>
<path d="M247.299 27.3585L250.196 24.294L256.882 34.156H261.841L253.094 21.2853L260.393 13.7634H254.988L247.299 21.731V4.45853H243.064V34.156H247.299V27.3585Z" fill="white"/>
<path d="M33.7892 0.0568426L17.4082 10.5318C17.4082 10.5318 17.4082 10.5318 17.4082 10.5875L20.5841 20.3381L30.8919 19.5023L34.2906 0.446865C34.3464 0.11256 34.0121 -0.11031 33.7892 0.0568426Z" fill="#A6A6A6"/>
</svg>
