<?xml version="1.0" encoding="UTF-8" standalone="no"?>
<svg
   xmlns:ns3="http://ns.adobe.com/AdobeIllustrator/10.0/"
   xmlns:dc="http://purl.org/dc/elements/1.1/"
   xmlns:cc="http://creativecommons.org/ns#"
   xmlns:rdf="http://www.w3.org/1999/02/22-rdf-syntax-ns#"
   xmlns:svg="http://www.w3.org/2000/svg"
   xmlns="http://www.w3.org/2000/svg"
   xmlns:sodipodi="http://sodipodi.sourceforge.net/DTD/sodipodi-0.dtd"
   xmlns:inkscape="http://www.inkscape.org/namespaces/inkscape"
   sodipodi:docname="Logo CIC 2006.svg"
   inkscape:version="1.0beta1 (76ce730, 2019-10-19)"
   id="svg8"
   version="1.1"
   viewBox="0 0 140.7742 63.73045"
   height="63.73045mm"
   width="140.7742mm">
  <defs
     id="defs2" />
  <sodipodi:namedview
     inkscape:window-maximized="0"
     inkscape:window-y="23"
     inkscape:window-x="0"
     inkscape:window-height="784"
     inkscape:window-width="1440"
     showgrid="false"
     inkscape:document-rotation="0"
     inkscape:current-layer="svg8"
     inkscape:document-units="mm"
     inkscape:cy="556.329"
     inkscape:cx="394.726"
     inkscape:zoom="0.35"
     inkscape:pageshadow="2"
     inkscape:pageopacity="0.0"
     borderopacity="1.0"
     bordercolor="#666666"
     pagecolor="#ffffff"
     id="base" />
  <metadata
     id="metadata5">
    <rdf:RDF>
      <cc:Work
         rdf:about="">
        <dc:format>image/svg+xml</dc:format>
        <dc:type
           rdf:resource="http://purl.org/dc/dcmitype/StillImage" />
        <dc:title />
      </cc:Work>
    </rdf:RDF>
  </metadata>
  <g
     transform="translate(28.407131,9.9667006)"
     id="layer1"
     inkscape:groupmode="layer"
     inkscape:label="Calque 1" />
  <g
     id="g352"
     transform="translate(8.3744018,45.789415)">
    <polyline
       transform="matrix(0.26458333,0,0,0.26458333,-9.7698143,-46.7607)"
       ns3:knockout="Off"
       fill="#0F228B"
       points="296.463,244.542 296.463,244.542 296.463,192.642 246.146,192.642        246.202,3.671 5.274,3.671 5.274,244.542 "
       id="polyline108"
       style="opacity:1;stroke:none;stop-opacity:1" />
    <polyline
       transform="matrix(0.26458333,0,0,0.26458333,-9.7698143,-46.7607)"
       ns3:knockout="Off"
       fill="#018289"
       points="537.334,244.542 537.334,244.542 537.334,3.671 246.202,3.671        246.202,55.629 296.463,55.629 296.463,244.542 "
       id="polyline110"
       style="opacity:1;stroke:none;stop-opacity:1" />
  </g>
  <g
     id="g348"
     transform="translate(8.3744018,45.789415)">
    <path
       inkscape:connector-curvature="0"
       ns3:knockout="Off"
       fill="#FFFFFF"
       d="m 39.656733,-3.408986 v 0 l -1.637242,5.9417479 c -3.3528,1.622425 -7.327106,2.243402 -11.079427,2.243402 v 0 c -11.971866,0 -21.039666,-6.902979 -21.039666,-17.6225729 v 0 c 0,-13.648531 10.073746,-19.866239 22.277387,-19.866239 v 0 c 3.698081,0 8.170333,0.887412 11.424708,2.564077 v 0 c -0.517789,1.77509 -1.050395,4.447646 -1.513681,6.271948 v 0 l -0.572029,-0.89244 c -2.075921,-2.820458 -5.640917,-4.812506 -9.284758,-4.812506 v 0 c -9.294548,0 -13.037079,8.318235 -13.037079,16.000412 v 0 c 0,8.954294 4.709054,15.2262418 13.32812,15.2262418 v 0 c 3.45149,0 7.480036,-1.68142706 9.999663,-3.9150395"
       id="path112"
       style="opacity:1;stroke:none;stroke-width:0.264583;stop-opacity:1" />
    <path
       inkscape:connector-curvature="0"
       ns3:knockout="Off"
       fill="#FFFFFF"
       d="m 116.84336,-3.3547464 v 0 l -1.62718,5.9417479 c -3.3528,1.6123708 -7.32208,2.243402 -11.07943,2.243402 v 0 c -11.971868,0 -21.03464,-6.9177957 -21.03464,-17.6326265 v 0 c 0,-13.638477 10.073481,-19.861213 22.27236,-19.861213 v 0 c 3.68353,0 8.1751,0.88265 11.41016,2.564077 v 0 c -0.50324,1.770063 -1.03558,4.442619 -1.49384,6.271948 v 0 l -0.57732,-0.887412 c -2.07063,-2.820458 -5.65547,-4.812506 -9.29455,-4.812506 v 0 c -9.279467,0 -13.021998,8.318235 -13.021998,16.000412 v 0 c 0,8.9542936 4.68921,15.2164518 13.308278,15.2164518 v 0 c 3.47107,0 7.49935,-1.66661039 10.01898,-3.9150395"
       id="path114"
       style="opacity:1;stroke:none;stroke-width:0.264583;stop-opacity:1" />
    <polygon
       transform="matrix(0.26458333,0,0,0.26458333,-9.7698143,-46.7607)"
       ns3:knockout="Off"
       fill="#FE330F"
       points="296.463,192.66 296.463,55.629 246.183,55.629 246.183,192.66 "
       id="polygon116"
       style="opacity:1;stroke:none;stop-opacity:1" />
  </g>
</svg>
