<svg width="301" height="40" viewBox="0 0 301 40" fill="none" xmlns="http://www.w3.org/2000/svg">
<path d="M171.27 7.08075V38.0792H177.113V15.344L183.792 38.0792H190.053L196.617 15.344V38.0792H202.463V7.08075H193.329L186.866 29.0553L180.375 7.08075H171.27ZM294.01 7.08075V38.0792H299.87V7.08075H294.01ZM232.568 7.87227V15.3019H229.177V19.0798H232.568V30.3773C232.568 34.1999 232.351 38.0792 238.627 38.0792H242.852V33.7679H241.343C238.642 33.7679 238.47 32.5598 238.47 31.0509L238.414 31.0818V19.0799H242.591V15.3019H238.414V7.8723L232.568 7.87227ZM279.574 14.5833C278.018 14.5816 276.478 14.896 275.048 15.5075C273.617 16.119 272.325 17.0149 271.251 18.1408C270.177 19.2667 269.342 20.5993 268.798 22.0576C268.253 23.5159 268.01 25.0696 268.084 26.6246C268.084 32.6891 272.651 38.7556 279.574 38.7556C287.746 38.7556 289.743 33.1776 290.59 31.18H284.343C283.947 32.0462 283.296 32.7706 282.478 33.2562C281.659 33.7419 280.711 33.9654 279.762 33.897C278.285 33.8935 276.869 33.3048 275.825 32.2597C274.78 31.2145 274.192 29.7979 274.188 28.3199H290.966V27.301C290.966 19.3108 285.607 14.5833 279.647 14.5833H279.574ZM207.159 15.3019V29.6728C207.159 33.0068 208.768 38.5535 214.901 38.5535C217.229 38.553 219.468 37.6635 221.162 36.0667H221.235L221.538 38.0932H227.067V15.3019H221.207V27.3291C221.207 30.1026 221.409 33.6107 217.114 33.6107C212.82 33.6107 213.019 30.1026 213.019 27.3291V15.3019H207.159ZM245.292 15.3019V29.6728C245.292 33.0068 246.888 38.5535 253.02 38.5535C255.352 38.5551 257.597 37.6656 259.296 36.0667H259.369L259.655 38.0932H265.184V15.3019H259.338V27.3291C259.338 30.1026 259.554 33.6107 255.245 33.6107C250.936 33.6107 251.152 30.1026 251.152 27.3291V15.3019H245.292ZM279.67 19.2314C280.997 19.2566 282.269 19.7717 283.24 20.6778C284.211 21.5839 284.814 22.8171 284.932 24.1405H274.205C274.326 22.7823 274.957 21.5206 275.971 20.6096C276.985 19.6986 278.307 19.2061 279.67 19.2314Z" fill="white"/>
<path d="M17.0053 5.36298C16.8603 5.36341 16.7154 5.36629 16.5705 5.3716C5.25288 5.32849 1.13086 14.9865 1.13086 21.9851C1.13086 29.3143 5.59758 38.854 16.5705 38.854C26.2795 38.854 29.9988 30.8782 29.9988 28.0759H23.4656C23.3076 29.1681 22.3298 33.5379 16.5705 33.5379C10.9835 33.5379 7.66689 29.6722 7.66689 22.0412C7.66689 15.948 10.4521 10.5445 16.5705 10.5445C18.2019 10.4725 19.8034 10.9997 21.0734 12.0269C22.3433 13.0541 23.1941 14.5104 23.4656 16.1217H29.7267C29.2141 13.1156 27.6565 10.3874 25.3288 8.41884C23.001 6.4503 20.053 5.36785 17.0053 5.36298ZM56.2972 6.43519L54.1569 12.4558H59.0687L63.3214 6.43519H56.2972ZM86.7445 7.06671L86.6883 16.9691C84.9067 15.3184 82.5665 14.4038 80.1383 14.4093C74.0342 14.4093 70.2136 20.1577 70.2136 26.6246C70.2136 33.0914 74.0931 38.6826 80.1972 38.6826C81.4034 38.6736 82.5944 38.4133 83.6946 37.9185C84.7948 37.4237 85.7799 36.7051 86.5873 35.8084L86.9324 38.0371H92.6044V7.06671H86.7445ZM96.5401 7.08109V12.1249H102.4V7.08109H96.5401ZM107.943 7.8726V15.3022H104.54V19.0802H107.915V30.3776C107.915 34.2002 107.701 38.0795 113.977 38.0795H117.997V33.7682H116.706C113.992 33.7682 113.834 32.5602 113.834 31.0512L113.803 31.0821V19.0802H117.969V15.3023H113.803V7.87263L107.943 7.8726ZM56.7713 14.5837C55.2155 14.5819 53.6756 14.8963 52.2448 15.5079C50.8141 16.1194 49.5224 17.0152 48.4481 18.1412C47.3737 19.2671 46.539 20.5996 45.9947 22.0579C45.4503 23.5162 45.2077 25.0699 45.2813 26.6249C45.2813 32.6894 49.8486 38.7559 56.7713 38.7559C64.9435 38.7559 66.9401 33.1779 67.7732 31.1804H61.6551C61.2476 32.0689 60.5733 32.8082 59.726 33.2952C58.8788 33.7822 57.9008 33.9927 56.9284 33.8973C55.4589 33.8821 54.0546 33.2881 53.0197 32.2442C51.9848 31.2002 51.4027 29.7903 51.3994 28.3199H68.1462V27.301C68.1462 19.3108 62.7735 14.5834 56.8274 14.5834L56.7713 14.5837ZM44.6923 14.7689C43.5243 14.7181 42.3617 14.9534 41.3053 15.4543C40.2489 15.9551 39.3306 16.7065 38.6303 17.6431L38.4732 15.3861H32.7282V38.0792H38.5742V25.979C38.7465 22.3432 40.1836 19.8854 45.4833 19.8854L45.5395 14.7686L44.6923 14.7689ZM96.5401 15.3022V38.0795H102.4V15.3022H96.5401ZM56.8639 19.2318C58.1921 19.2563 59.4644 19.7711 60.4363 20.6772C61.4082 21.5834 62.0111 22.8169 62.1292 24.1409H51.3994C51.5205 22.7827 52.1518 21.5209 53.1658 20.6099C54.1798 19.699 55.5013 19.2065 56.8639 19.2318ZM81.5605 19.31C84.074 19.31 86.9465 21.2362 86.9465 26.5965C86.9465 31.9568 84.074 33.9391 81.5605 33.9391C79.0615 33.9391 76.1746 31.9425 76.1746 26.5965C76.1746 21.2505 79.0471 19.31 81.5605 19.31Z" fill="white"/>
<path d="M165.064 29.0398L158.198 17.1263C158.421 18.1634 158.419 19.2359 158.194 20.2723C157.969 21.3087 157.526 22.2852 156.894 23.1365C156.262 23.9879 155.455 24.6947 154.529 25.2096C153.602 25.7245 152.576 26.0357 151.52 26.1225C150.731 24.8621 149.649 23.8117 148.365 23.0609C147.082 22.3101 145.637 21.8814 144.152 21.8112C143.503 20.3746 143.326 18.7692 143.646 17.2256C143.966 15.6819 144.767 14.2795 145.933 13.2195C147.099 12.1595 148.571 11.4965 150.138 11.3258C151.704 11.155 153.284 11.4852 154.651 12.269C155.101 12.5342 155.524 12.8422 155.915 13.1887L148.978 1.14594H138.551L131.671 13.0594C132.457 12.348 133.385 11.8127 134.394 11.4894C135.403 11.1661 136.47 11.0622 137.522 11.1847C138.575 11.3071 139.589 11.6531 140.497 12.1995C141.405 12.7458 142.186 13.48 142.788 14.3528C142.098 15.6722 141.738 17.1391 141.738 18.6281C141.738 20.1171 142.098 21.584 142.788 22.9034C141.873 24.1887 140.574 25.1501 139.078 25.6488C137.582 26.1476 135.967 26.1578 134.465 25.6781C132.963 25.1984 131.652 24.2536 130.721 22.98C129.79 21.7064 129.288 20.1699 129.287 18.5922C129.281 18.0705 129.334 17.5499 129.445 17.0401L122.508 29.0542L127.736 38.0934H141.466C140.46 37.7662 139.534 37.2282 138.752 36.5153C137.969 35.8024 137.347 34.931 136.928 33.9589C136.508 32.9869 136.3 31.9365 136.317 30.8777C136.334 29.819 136.577 28.776 137.028 27.8183C138.516 27.763 139.969 27.3502 141.264 26.6149C142.559 25.8795 143.658 24.8431 144.468 23.5932C146.036 23.7485 147.515 24.397 148.691 25.4456C149.868 26.4942 150.682 27.8889 151.017 29.4295C151.352 30.97 151.191 32.5772 150.556 34.0202C149.921 35.4632 148.846 36.6679 147.484 37.4611C147.026 37.7163 146.545 37.9279 146.048 38.0934H159.908L165.064 29.0398Z" fill="#E30613"/>
</svg>
