<svg width="36" height="40" viewBox="0 0 36 40" fill="none" xmlns="http://www.w3.org/2000/svg">
<path d="M34.1442 0H1.51554C0.68183 0 0 0.69527 0 1.54542V32.9993C0 33.8493 0.68183 34.5447 1.51554 34.5447H3.56598L7.51829 39.8377C7.79562 40.1203 8.02182 40.0243 8.02182 39.6237V34.5447H34.1425C34.9765 34.5447 35.6582 33.8493 35.6582 32.9993V1.54542C35.6598 0.69527 34.9781 0 34.1442 0Z" fill="url(#paint0_linear_355_1902)"/>
<path d="M4.99775 8.01486H3.56641V8.19666H4.99775V8.01486Z" fill="#0080A6"/>
<path d="M8.88497 11.4676H4.99707V11.6494H8.88497V11.4676Z" fill="#0080A6"/>
<path d="M10.3161 8.01486H8.88477V8.19666H10.3161V8.01486Z" fill="#0080A6"/>
<path d="M14.1251 10.1057C16.0451 10.1057 17.0323 11.6158 17.067 13.3784C17.0687 13.3498 17.0687 13.3228 17.0687 13.2942C17.0687 11.4912 16.0798 9.92389 14.1251 9.92389C12.3668 9.92389 11.1221 11.3953 11.1221 13.1882V13.2117C11.1221 13.2387 11.1237 13.2639 11.1237 13.2892C11.16 11.535 12.3933 10.1057 14.1251 10.1057Z" fill="#0080A6"/>
<path d="M15.6718 12.9306C15.6652 12.87 15.6569 12.8094 15.647 12.7488H12.5483C12.5367 12.8077 12.5268 12.8683 12.5186 12.9306H15.6718Z" fill="#0080A6"/>
<path d="M14.2981 15.2891C13.4463 15.2891 12.7677 14.7874 12.563 13.88H12.5283C12.6802 14.9002 13.3901 15.4709 14.2981 15.4709C14.9849 15.4709 15.4736 15.21 15.9623 14.7235L16.7877 15.4709V15.2891L15.9623 14.5416C15.4736 15.0282 14.9849 15.2891 14.2981 15.2891Z" fill="#0080A6"/>
<path d="M19.3155 7.65796H17.9072V7.83976H19.3155V7.65796Z" fill="#0080A6"/>
<path d="M21.959 7.65796H20.5508V7.83976H21.959V7.65796Z" fill="#0080A6"/>
<path d="M26.0281 9.92389C24.1428 9.92389 22.7461 11.4087 22.7461 13.1999V13.2235C22.7461 13.2504 22.7478 13.2757 22.7478 13.3026C22.7874 11.5468 24.1709 10.1057 26.0281 10.1057C27.8871 10.1057 29.2557 11.5232 29.2969 13.2791C29.2969 13.2538 29.2986 13.2269 29.2986 13.2016V13.178C29.3002 11.3852 27.9151 9.92389 26.0281 9.92389Z" fill="#0080A6"/>
<path d="M24.1563 13.3817C24.1563 14.4743 24.9372 15.3985 26.0301 15.3985C27.1708 15.3985 27.8923 14.4844 27.8923 13.4053V13.3817C27.8923 13.3565 27.8923 13.3312 27.8906 13.306C27.856 14.3497 27.1428 15.2184 26.0301 15.2184C24.9619 15.2184 24.1942 14.3363 24.1579 13.2774C24.1562 13.3043 24.1563 13.3312 24.1563 13.3599V13.3817Z" fill="#0080A6"/>
<path d="M32.0459 17.8093H30.6377V17.9911H32.0459V17.8093Z" fill="#0080A6"/>
<path d="M32.0459 25.065H30.6377V25.2468H32.0459V25.065Z" fill="#0080A6"/>
<path d="M18.335 20.0769H16.9268V20.2587H18.335V20.0769Z" fill="#0080A6"/>
<path d="M20.255 19.9473C19.3008 19.9473 18.7312 20.4574 18.335 21.0516V21.2334C18.7312 20.6392 19.3008 20.1291 20.255 20.1291C21.6401 20.1291 22.4441 21.0786 22.4441 22.5398V22.358C22.4441 20.8967 21.6401 19.9473 20.255 19.9473Z" fill="#0080A6"/>
<path d="M24.8643 23.0364L27.4133 20.2587H29.1236V20.0769H27.4133L24.8643 22.8546V23.0364Z" fill="#0080A6"/>
<path d="M26.7514 22.7351L26.6787 22.8108L29.2046 26.5263V26.3444L26.7514 22.7351Z" fill="#0080A6"/>
<path d="M24.8643 17.8093H23.4561V17.9911H24.8643V17.8093Z" fill="#0080A6"/>
<path d="M6.92898 25.4269C8.01859 25.4269 8.87707 24.6559 8.87707 23.4219V23.3967C8.87707 23.3714 8.87542 23.3445 8.87542 23.3192C8.83909 24.5061 7.99547 25.2451 6.92898 25.2451C6.49314 25.2451 5.70897 25.1862 4.97266 24.5414V24.7216C5.70897 25.368 6.49314 25.4269 6.92898 25.4269Z" fill="#0080A6"/>
<path d="M4.97298 17.784H3.56641V17.9658H4.97298V17.784Z" fill="#0080A6"/>
<path d="M7.05805 19.9658C6.16657 19.9658 5.30809 20.3614 4.97461 20.5415V20.7233C5.30809 20.5432 6.16822 20.1476 7.05805 20.1476C8.71887 20.1476 10.0776 21.2923 10.1106 23.3209C10.1123 23.294 10.1123 23.2687 10.1123 23.2435V23.2199C10.1123 21.1392 8.74034 19.9658 7.05805 19.9658Z" fill="#0080A6"/>
<path d="M13.0224 22.528C13.7669 22.528 14.244 22.6341 14.7212 22.7889V22.6711C14.7212 22.6492 14.7195 22.629 14.7179 22.6071C14.2424 22.4523 13.7653 22.3479 13.0224 22.3479C11.5894 22.3479 10.5625 23.1307 10.5625 24.5196V24.5431C10.5625 24.5667 10.5642 24.5919 10.5642 24.6155C10.6071 23.2788 11.6191 22.528 13.0224 22.528Z" fill="#0080A6"/>
<path d="M11.7842 24.6508C11.7842 25.2451 12.3818 25.5768 13.0455 25.5768C13.7752 25.5768 14.7443 25.3057 14.7443 24.2131V24.0313C14.7443 25.1239 13.7752 25.3949 13.0455 25.3949C12.4099 25.3949 11.837 25.0902 11.7891 24.5448C11.7858 24.5717 11.7842 24.5987 11.7842 24.6273V24.6508Z" fill="#0080A6"/>
<path d="M13.4058 19.9826C12.4053 19.9826 11.7417 20.1964 11.0664 20.5045V20.6863C11.7417 20.3782 12.4053 20.1644 13.4058 20.1644C15.2218 20.1644 16.0736 21.3024 16.0736 22.8108C16.0736 22.6947 16.0736 22.629 16.0736 22.629C16.0753 21.1206 15.2218 19.9826 13.4058 19.9826Z" fill="#0080A6"/>
<path d="M8.88497 13.0029H4.99707V13.1847H8.88497V13.0029Z" fill="#0AD2E1"/>
<path d="M4.99775 16.5028H3.56641V16.6846H4.99775V16.5028Z" fill="#0AD2E1"/>
<path d="M10.3161 16.5028H8.88477V16.6846H10.3161V16.5028Z" fill="#0AD2E1"/>
<path d="M14.1133 11.2807C13.2516 11.2807 12.6457 11.9575 12.5186 12.9305H12.5483C12.7249 12.0551 13.306 11.4625 14.1133 11.4625C14.9817 11.4625 15.5067 12.0938 15.647 12.9305H15.6718C15.5793 12.0046 15.0445 11.2807 14.1133 11.2807Z" fill="#0AD2E1"/>
<path d="M14.277 16.6459C12.5204 16.6459 11.16 15.3631 11.1237 13.4726C11.1237 13.4995 11.1221 13.5264 11.1221 13.5534V13.577C11.1221 15.5113 12.4956 16.8294 14.277 16.8294C15.4046 16.8294 16.2085 16.3665 16.7897 15.6543V15.4725C16.2069 16.183 15.4046 16.6459 14.277 16.6459Z" fill="#0AD2E1"/>
<path d="M17.0455 13.88H12.5303C12.5401 13.9423 12.5517 14.0029 12.5649 14.0618H17.0472C17.0587 13.9204 17.0703 13.7891 17.0703 13.6578C17.0703 13.6241 17.0686 13.5921 17.0686 13.5601C17.0637 13.6645 17.0554 13.7689 17.0455 13.88Z" fill="#0AD2E1"/>
<path d="M19.3155 16.5028H17.9072V16.6846H19.3155V16.5028Z" fill="#0AD2E1"/>
<path d="M21.959 16.5028H20.5508V16.6846H21.959V16.5028Z" fill="#0AD2E1"/>
<path d="M27.8923 13.3817C27.8923 12.2773 27.1131 11.3649 26.0069 11.3649C24.8777 11.3649 24.1563 12.2672 24.1563 13.3598V13.3833C24.1563 13.4086 24.1562 13.4338 24.1579 13.4591C24.1926 12.4052 24.9058 11.5467 26.0069 11.5467C27.0867 11.5467 27.856 12.4187 27.8906 13.4877C27.8923 13.4608 27.8923 13.4338 27.8923 13.4069V13.3817Z" fill="#0AD2E1"/>
<path d="M26.0069 16.6459C24.1612 16.6459 22.7893 15.2284 22.7497 13.4843C22.7497 13.5113 22.748 13.5365 22.748 13.5635V13.587C22.748 15.3665 24.1332 16.826 26.0069 16.826C27.9038 16.826 29.3005 15.3429 29.3005 13.5635V13.5399C29.3005 13.513 29.2989 13.486 29.2989 13.4608C29.2576 15.2048 27.8758 16.6459 26.0069 16.6459Z" fill="#0AD2E1"/>
<path d="M32.0459 24.4454H30.6377V24.6272H32.0459V24.4454Z" fill="#0AD2E1"/>
<path d="M32.0459 26.5161H30.6377V26.6979H32.0459V26.5161Z" fill="#0AD2E1"/>
<path d="M21.0359 22.9656C21.0359 21.9926 20.5588 21.4354 19.7201 21.4354C18.9062 21.4354 18.335 22.0162 18.335 22.9892V23.171C18.335 22.198 18.9045 21.6172 19.7201 21.6172C20.5588 21.6172 21.0359 22.1744 21.0359 23.1474V22.9656Z" fill="#0AD2E1"/>
<path d="M18.335 26.5262H16.9268V26.708H18.335V26.5262Z" fill="#0AD2E1"/>
<path d="M22.4444 26.5262H21.0361V26.708H22.4444V26.5262Z" fill="#0AD2E1"/>
<path d="M26.7514 22.9168L29.1237 20.4404V20.2586L26.6787 22.8108L26.7514 22.9168Z" fill="#0AD2E1"/>
<path d="M27.5751 26.5262L25.7244 23.8192L24.8643 24.7333V24.9151L25.7244 24.001L27.5751 26.7063H29.2045V26.5262H27.5751Z" fill="#0AD2E1"/>
<path d="M24.8643 26.5262H23.4561V26.708H24.8643V26.5262Z" fill="#0AD2E1"/>
<path d="M4.97235 24.7233L4.97401 24.4303V24.2484L4.9707 24.7216L4.97235 24.7233Z" fill="#0AD2E1"/>
<path d="M7.05811 26.6743C6.05434 26.6743 4.54706 26.4184 3.56641 25.0026V25.1844C4.54706 26.6002 6.05434 26.8561 7.05811 26.8561C8.72389 26.8561 10.1123 25.6811 10.1123 23.6054V23.5801C10.1123 23.5532 10.1106 23.5279 10.1106 23.501C10.0776 25.5279 8.70242 26.6743 7.05811 26.6743Z" fill="#0AD2E1"/>
<path d="M8.87737 23.3983C8.87737 22.1879 8.01889 21.3933 6.92928 21.3933C5.99817 21.3933 5.27836 21.7939 4.97461 22.0111V22.1929C5.27836 21.9757 5.99982 21.5751 6.92928 21.5751C7.9958 21.5751 8.83939 22.336 8.87572 23.5027C8.87572 23.4757 8.87737 23.4505 8.87737 23.4235V23.3983Z" fill="#0AD2E1"/>
<path d="M11.4507 21.9539C12.0104 21.7165 12.5222 21.5633 13.2089 21.5633C14.1615 21.5633 14.6931 21.9657 14.7195 22.7872C14.7212 22.7872 14.7212 22.7872 14.7228 22.7872V22.6693C14.7228 21.8024 14.1879 21.3815 13.2106 21.3815C12.5238 21.3815 12.012 21.5364 11.4524 21.7737L11.0693 20.6879C11.0693 20.6879 11.0809 20.8647 11.0693 20.8697L11.4507 21.9539Z" fill="#0AD2E1"/>
<path d="M13.336 23.5363C12.4512 23.5363 11.7842 24.0229 11.7842 24.6272V24.6508C11.7842 24.676 11.7875 24.7013 11.7891 24.7249C11.8469 24.1592 12.4924 23.7165 13.336 23.7165C13.8841 23.7165 14.3827 23.8242 14.7443 23.9656V23.7838C14.3827 23.6424 13.8825 23.5363 13.336 23.5363Z" fill="#0AD2E1"/>
<path d="M15.02 26.208C14.4025 26.6188 13.3889 26.6558 12.7186 26.6558C11.6884 26.6558 10.6054 26.0043 10.5642 24.7939C10.5625 24.8225 10.5625 24.8511 10.5625 24.8797V24.9033C10.5625 26.1609 11.6686 26.8376 12.7186 26.8376C13.3889 26.8376 14.4009 26.8006 15.02 26.3898C15.9214 25.7905 16.0749 25.0094 16.0749 24.5161C16.0749 24.4555 16.0749 24.3949 16.0749 24.3343C16.0749 24.8275 15.9214 25.6087 15.02 26.208Z" fill="#0AD2E1"/>
<path d="M3.56641 8.19666H4.99775V11.6495H8.88565V8.19666H10.317V16.5029H8.88565V13.003H4.99775V16.5029H3.56641V8.19666Z" fill="white"/>
<path d="M11.1221 13.3935V13.37C11.1221 11.5788 12.3668 10.1057 14.1251 10.1057C16.0798 10.1057 17.0687 11.673 17.0687 13.476C17.0687 13.6073 17.0571 13.7387 17.0456 13.8801H12.5303C12.6822 14.9002 13.3921 15.4709 14.3001 15.4709C14.9869 15.4709 15.4755 15.21 15.9642 14.7235L16.7897 15.4709C16.2069 16.183 15.4046 16.646 14.277 16.646C12.4956 16.646 11.1221 15.3278 11.1221 13.3935ZM15.672 12.9306C15.5779 12.0047 15.0447 11.2808 14.1135 11.2808C13.2518 11.2808 12.6459 11.9575 12.5187 12.9306H15.672Z" fill="white"/>
<path d="M17.9072 7.83975H19.3155V16.5029H17.9072V7.83975Z" fill="white"/>
<path d="M20.5508 7.83975H21.959V16.5029H20.5508V7.83975Z" fill="white"/>
<path d="M22.7461 13.4053V13.3818C22.7461 11.5889 24.1428 10.1057 26.0281 10.1057C27.9135 10.1057 29.2986 11.5653 29.2986 13.3582V13.3818C29.2986 15.1629 27.9019 16.646 26.005 16.646C24.1329 16.646 22.7461 15.1864 22.7461 13.4053ZM27.892 13.4053V13.3818C27.892 12.2774 27.1128 11.365 26.0067 11.365C24.8775 11.365 24.156 12.2673 24.156 13.3599V13.3834C24.156 14.476 24.9369 15.4002 26.0298 15.4002C27.1706 15.3985 27.892 14.4861 27.892 13.4053Z" fill="white"/>
<path d="M30.6377 17.9911H32.0459V24.4455H30.6377V17.9911Z" fill="white"/>
<path d="M30.6377 25.2451H32.0459V26.5144H30.6377V25.2451Z" fill="white"/>
<path d="M16.9268 20.2587H18.335V21.2318C18.7312 20.6375 19.3008 20.1274 20.255 20.1274C21.6401 20.1274 22.4441 21.0769 22.4441 22.5381V26.5263H21.0359V22.9657C21.0359 21.9927 20.5588 21.4355 19.7201 21.4355C18.9062 21.4355 18.335 22.0162 18.335 22.9893V26.5263H16.9268V20.2587Z" fill="white"/>
<path d="M23.4567 17.9911H24.865V23.0364L27.414 20.2587H29.1243L26.6793 22.8108L29.2052 26.5262H27.5758L25.7251 23.8209L24.8633 24.735V26.5262H23.4551V17.9911H23.4567Z" fill="white"/>
<path d="M7.05811 20.1459C6.1666 20.1459 5.30811 20.5415 4.97463 20.7217V19.9961V17.9658H3.56641V25.0027C4.54706 26.4168 6.05434 26.6744 7.05811 26.6744C8.72389 26.6744 10.1123 25.4993 10.1123 23.4236V23.3984C10.1123 21.321 8.74037 20.1459 7.05811 20.1459ZM8.8774 23.4219C8.8774 24.6559 8.01895 25.4269 6.92933 25.4269C6.49347 25.4269 5.7093 25.368 4.97298 24.7216L4.97463 24.2485V22.0112C5.27842 21.794 5.99987 21.3934 6.92933 21.3934C8.01895 21.3934 8.8774 22.188 8.8774 23.3984V23.4219Z" fill="white"/>
<path d="M15.02 26.2081C14.4025 26.6188 13.3889 26.6559 12.7186 26.6559C11.6686 26.6559 10.5625 25.9791 10.5625 24.7216V24.698C10.5625 23.3108 11.5894 22.528 13.0224 22.528C13.7669 22.528 14.244 22.6341 14.7212 22.7889V22.6711C14.7212 21.8041 14.1863 21.3832 13.2089 21.3832C12.5222 21.3832 12.0104 21.5381 11.4507 21.7755L11.0677 20.6897C11.7429 20.3816 12.4066 20.1678 13.407 20.1678C15.223 20.1678 16.0749 21.3058 16.0749 22.8142C16.0749 22.8142 16.0749 23.459 16.0749 24.3394C16.0749 24.8276 15.9214 25.6087 15.02 26.2081ZM14.7443 23.7839C14.3827 23.6425 13.8825 23.5347 13.3361 23.5347C12.4512 23.5347 11.7842 24.0212 11.7842 24.6256V24.6492C11.7842 25.2434 12.3818 25.5751 13.0455 25.5751C13.7752 25.5751 14.7443 25.304 14.7443 24.2115V23.7839Z" fill="white"/>
<defs>
<linearGradient id="paint0_linear_355_1902" x1="17.8302" y1="0.000218851" x2="17.8302" y2="39.999" gradientUnits="userSpaceOnUse">
<stop stop-color="#0AD2E1"/>
<stop offset="1" stop-color="#0080A6"/>
</linearGradient>
</defs>
</svg>
