<svg width="57" height="40" viewBox="0 0 57 40" fill="none" xmlns="http://www.w3.org/2000/svg">
<g clip-path="url(#clip0_303_3891)">
<mask id="mask0_303_3891" style="mask-type:luminance" maskUnits="userSpaceOnUse" x="-7" y="-14" width="78" height="68">
<path d="M70.4916 -13.8843H-6.38232V53.73H70.4916V-13.8843Z" fill="white"/>
</mask>
<g mask="url(#mask0_303_3891)">
<path d="M12.6891 0.683195L24.8947 6.30303H43.5956L45.1431 3.59229C46.0803 1.96143 44.9469 0 43.2468 0H12.8199C12.4057 0 12.3186 0.506887 12.6891 0.683195ZM13.5391 25.1019L29.4937 24.7934C31.4335 24.7493 33.7003 23.6253 34.7465 21.8182L37.144 17.6088L12.7327 24.2865C13.234 24.5069 13.4519 24.7934 13.5391 25.1019ZM55.3435 8.70523H24.8947L0.13469 24.551C-0.170452 24.7934 0.0910979 25.2562 0.439831 25.168L55.5397 10.0716C55.8012 10.0055 56.041 9.76308 56.041 9.38843C56.041 8.9697 55.6922 8.70523 55.3435 8.70523Z" fill="#39A8E5"/>
</g>
<mask id="mask1_303_3891" style="mask-type:luminance" maskUnits="userSpaceOnUse" x="-7" y="-14" width="78" height="68">
<path d="M70.4916 -13.8843H-6.38232V53.73H70.4916V-13.8843Z" fill="white"/>
</mask>
<g mask="url(#mask1_303_3891)">
<path d="M25.5703 25.8072L29.8858 30.6556H31.2154V23.7576H29.8204V28.4959L25.5921 23.7576H24.1971V30.6556H25.5921V25.8072H25.5703ZM43.0287 21.4435H47.1045L47.911 20.1212H43.9877V14.5675H42.5274V20.9587C42.5274 21.2452 42.7018 21.4435 43.0287 21.4435ZM9.81187 32.9036C8.98363 32.9036 8.06821 32.9256 7.34894 32.9477V39.8457H8.78747V37.7961C9.1362 37.7961 9.61571 37.7961 9.89906 37.7961C12.0786 37.7961 13.6479 37.2452 13.6479 35.3058C13.6697 33.5868 12.3184 32.9036 9.81187 32.9036ZM11.8825 36.0551C11.4684 36.4738 10.6619 36.4738 9.81187 36.4738C9.50673 36.4738 9.1362 36.4738 8.78747 36.4738V34.27C9.1362 34.27 9.50673 34.27 9.81187 34.27C10.9235 34.27 11.5337 34.314 11.9261 34.7107C12.0568 34.843 12.1658 35.1074 12.1658 35.3278C12.1658 35.6364 12.0786 35.8568 11.8825 36.0551ZM45.666 30.7879C47.6494 30.7879 49.0226 29.7521 49.0226 27.6584V23.7576H47.584V27.5482C47.584 28.7824 46.9738 29.4876 45.666 29.4876C44.3801 29.4876 43.748 28.7824 43.748 27.5482V23.7576H42.3094V27.6584C42.3094 29.73 43.6826 30.7879 45.666 30.7879ZM36.7297 30.6556C37.6669 30.6556 38.517 30.3691 39.1055 29.9725L39.367 30.3251C39.5414 30.5895 39.8901 30.6556 40.2606 30.6556H41.4376L40.1081 29.0909C40.6094 28.5399 40.8491 27.8347 40.8491 27.1515C40.8491 25.1901 39.258 23.6474 36.7297 23.6474C34.2232 23.6474 32.6103 25.2121 32.6103 27.1515C32.6103 29.0909 34.2232 30.6556 36.7297 30.6556ZM36.7297 24.9256C38.2336 24.9256 39.367 25.8292 39.367 27.1295C39.367 28.4298 38.2336 29.3333 36.7297 29.3333C35.2476 29.3333 34.1142 28.4298 34.1142 27.1295C34.1142 25.8292 35.2258 24.9256 36.7297 24.9256ZM16.7429 29.3995H20.9277L21.3419 30.2149C21.538 30.6336 21.7342 30.6556 22.2573 30.6556H23.1073L19.5328 23.6915H18.1379L14.5634 30.6556H16.1109L16.7429 29.3995ZM18.8353 25.1901L20.2739 28.0771H17.3968L18.8353 25.1901ZM18.3558 32.8154C15.7839 32.8154 14.2364 34.4242 14.2364 36.4077C14.2364 38.3912 15.7839 40 18.3558 40C20.9277 40 22.4752 38.3912 22.4752 36.4077C22.4752 34.4242 20.9495 32.8154 18.3558 32.8154ZM18.3558 38.6777C16.8083 38.6777 15.7185 37.7741 15.7185 36.4077C15.7185 35.0193 16.8083 34.1377 18.3558 34.1377C19.8815 34.1377 20.9713 35.0413 20.9713 36.4077C20.9713 37.7741 19.8815 38.6777 18.3558 38.6777ZM12.5799 27.1074C13.3864 26.865 13.8659 26.3361 13.8659 25.5207C13.8659 24.2645 12.7979 23.7135 10.7273 23.7135C9.72469 23.7135 8.24257 23.7135 7.32715 23.7576V30.6556C8.41694 30.6997 9.61571 30.6997 10.6183 30.6997C12.6453 30.6997 14.0621 30.2369 14.0621 28.7383C14.0839 27.9229 13.4736 27.3058 12.5799 27.1074ZM8.78747 24.9477H10.9671C11.8389 24.9477 12.3838 25.146 12.3838 25.697C12.3838 26.4022 11.8171 26.5344 10.7491 26.5344H8.76567V24.9477H8.78747ZM10.8581 29.4435H8.78747V27.7906H11.1414C11.9479 27.7906 12.5581 27.9669 12.5581 28.6061C12.5799 29.3113 11.8607 29.4435 10.8581 29.4435ZM45.9494 32.9477H44.5108V39.3388C44.5108 39.6253 44.6852 39.8237 45.0121 39.8237H49.8944V38.5014H45.9711V32.9477H45.9494ZM50.7226 39.3609C50.7226 39.6474 50.897 39.8457 51.2239 39.8457H56.7819V38.5234H52.183V37.0028H56.3024V35.6804H52.183V34.292H56.7819V32.9697H50.7444V39.3609H50.7226ZM50.7226 30.1488C50.7226 30.4353 50.897 30.6336 51.2239 30.6336H56.7819V29.3113H52.183V27.7906H56.3024V26.4683H52.183V25.0799H56.7819V23.7576H50.7444V30.1488H50.7226ZM55.2344 21.0028C55.4305 21.4215 55.6267 21.4435 56.1498 21.4435H56.9998L53.4253 14.4793H52.0304L48.4559 21.4435H50.0034L50.6355 20.1873H54.8203L55.2344 21.0028ZM51.2893 18.9091L52.7279 16.022L54.1664 18.9091H51.2893ZM24.9164 34.7989C24.9164 34.292 25.5703 34.0496 26.4639 34.0496C27.1614 34.0496 28.1204 34.4022 28.3383 34.5565L29.0794 33.4545C28.6435 33.168 27.4447 32.8375 26.5075 32.8375C24.7638 32.8375 23.4343 33.7631 23.4343 35.0413C23.4343 37.4435 28.055 36.6061 28.055 37.9945C28.055 38.5675 27.2267 38.7658 26.5293 38.7658C25.5703 38.7658 24.4805 38.4353 23.8048 37.9063L23.0637 39.0083C23.9792 39.6474 25.3741 40 26.3985 40C28.1204 40 29.5589 39.1846 29.5589 37.8402C29.5371 35.3719 24.9164 36.0771 24.9164 34.7989ZM36.4246 32.9477H29.7768V34.27H32.3706V39.8237H33.8091V34.27H36.4246V32.9477ZM38.8439 32.8815L35.2694 39.8457H36.8169L37.449 38.5895H41.6338L42.0479 39.405C42.2441 39.8237 42.4402 39.8457 42.9633 39.8457H43.8134L40.2388 32.8815H38.8439ZM38.1029 37.2893L39.5414 34.4022L40.9799 37.2893H38.1029Z" fill="white"/>
</g>
</g>
<defs>
<clipPath id="clip0_303_3891">
<rect width="57" height="40" fill="white"/>
</clipPath>
</defs>
</svg>
