<svg width="93" height="40" viewBox="0 0 93 40" fill="none" xmlns="http://www.w3.org/2000/svg">
<path d="M75.5617 29.7713H92.9701V27.2915H74.3978V0.611916H67.041V22.0419C67.041 28.1031 69.8496 29.7713 75.5617 29.7713Z" fill="white"/>
<path d="M23.6581 29.7713H8.52073C2.80861 29.7713 0 28.1031 0 22.0419V0.611916H7.3568V27.2915H21.4948C22.0071 28.0064 23.1141 29.3076 23.6581 29.7713Z" fill="white"/>
<path d="M46.0316 0C31.9379 0 23.7588 6.46699 23.7588 15.8519C23.7588 25.2367 32.2479 30.3897 44.5324 30.3897C48.7517 30.3897 53.0595 29.7198 56.0199 28.6441V25.533C53.6035 26.9694 49.9599 27.9549 46.4744 27.9549C36.9289 27.9549 31.5331 21.5008 31.5331 15.2077C31.5331 7.65862 37.378 2.41546 46.4112 2.41546C49.5424 2.41546 53.1417 3.25282 55.8048 4.72142V1.44928C52.6167 0.457327 48.4923 0.0064426 46.0253 0.0064426" fill="white"/>
<path d="M0.032183 39.897V33.6618H2.28413C2.73326 33.6618 3.1128 33.7456 3.42909 33.9066C3.74537 34.0676 3.99208 34.2995 4.16287 34.5894C4.33366 34.8857 4.4159 35.2271 4.4159 35.6264C4.4159 36.0258 4.32734 36.3607 4.15654 36.657C3.97943 36.9533 3.73272 37.1788 3.41011 37.3462C3.0875 37.5073 2.70796 37.591 2.25883 37.591H0.550891V36.7858H2.22088C2.49288 36.7858 2.72061 36.7408 2.91038 36.6441C3.10015 36.5475 3.24564 36.4123 3.34685 36.2383C3.44807 36.0644 3.49867 35.8583 3.49867 35.6264C3.49867 35.3945 3.44807 35.182 3.34685 35.0145C3.24564 34.8406 3.10015 34.7118 2.91038 34.6151C2.72061 34.5185 2.49288 34.4734 2.21455 34.4734H0.943085V39.9034H0.0195312L0.032183 39.897Z" fill="white"/>
<path d="M6.89608 40C6.47858 40 6.11169 39.9034 5.80173 39.7037C5.48545 39.504 5.24507 39.2335 5.06795 38.8857C4.89083 38.5379 4.80859 38.1321 4.80859 37.6747C4.80859 37.2174 4.89715 36.8052 5.06795 36.4509C5.23874 36.0966 5.48545 35.8261 5.80173 35.6264C6.11802 35.4267 6.48491 35.3301 6.89608 35.3301C7.30725 35.3301 7.68047 35.4267 7.99675 35.6264C8.31304 35.8261 8.55341 36.0966 8.73053 36.4509C8.90765 36.8052 8.98989 37.211 8.98989 37.6747C8.98989 38.1385 8.90133 38.5379 8.73053 38.8857C8.55974 39.2335 8.31304 39.5105 7.99675 39.7037C7.68047 39.9034 7.31357 40 6.89608 40ZM6.89608 39.2335C7.14911 39.2335 7.37051 39.1691 7.54763 39.0338C7.72474 38.905 7.86391 38.7182 7.9588 38.4863C8.05368 38.248 8.09796 37.9775 8.09796 37.6747C8.09796 37.372 8.05368 37.0886 7.9588 36.8503C7.86391 36.6119 7.72474 36.4316 7.54763 36.2963C7.37051 36.161 7.14911 36.0966 6.89608 36.0966C6.64305 36.0966 6.42798 36.161 6.24453 36.2963C6.06108 36.4251 5.92824 36.6119 5.83336 36.8438C5.73847 37.0821 5.69419 37.3527 5.69419 37.6683C5.69419 37.9839 5.73847 38.248 5.83336 38.4863C5.92824 38.7182 6.06741 38.905 6.24453 39.0338C6.42165 39.1627 6.64305 39.2335 6.89608 39.2335Z" fill="white"/>
<path d="M11.3754 39.9742C11.0781 39.9742 10.8061 39.9098 10.5721 39.7746C10.338 39.6457 10.1482 39.4461 10.0091 39.182C9.8699 38.9179 9.80664 38.5958 9.80664 38.2158V35.4138H10.6859V38.1063C10.6859 38.4605 10.7681 38.7246 10.9389 38.905C11.1097 39.0853 11.3438 39.182 11.6411 39.182C11.8372 39.182 12.0143 39.1433 12.1725 39.0596C12.3306 38.9758 12.4571 38.847 12.552 38.6731C12.6469 38.4992 12.6912 38.2802 12.6912 38.0097V35.4138H13.5641V39.8905H12.7101V38.7826H12.8873C12.7481 39.182 12.552 39.4847 12.2926 39.6779C12.0396 39.8712 11.7297 39.9678 11.3691 39.9678L11.3754 39.9742Z" fill="white"/>
<path d="M14.5947 39.8969V35.4203H15.436V36.1417H15.4613C15.5436 35.8969 15.6701 35.7037 15.8535 35.5684C16.037 35.4332 16.2647 35.3623 16.5367 35.3623C16.6 35.3623 16.6632 35.3623 16.7202 35.3623C16.7834 35.3623 16.8277 35.3688 16.8657 35.3752V36.2061C16.834 36.2061 16.7708 36.1932 16.6822 36.1804C16.5936 36.1675 16.4988 36.161 16.3976 36.161C16.2268 36.161 16.0686 36.1997 15.9295 36.2834C15.784 36.3607 15.6764 36.4831 15.5942 36.6377C15.512 36.7923 15.474 36.9919 15.474 37.2238V39.8841H14.5947V39.8969Z" fill="white"/>
<path d="M20.9073 39.9743C20.6163 39.9743 20.357 39.9227 20.1292 39.8197C19.9015 39.7166 19.7181 39.5685 19.5852 39.3623C19.4524 39.1562 19.3828 38.9115 19.3828 38.6152C19.3828 38.3575 19.4334 38.1514 19.5283 37.9839C19.6232 37.8229 19.756 37.6941 19.9205 37.5974C20.085 37.5008 20.2684 37.43 20.4772 37.3784C20.6859 37.3269 20.8947 37.2883 21.1161 37.2625C21.3881 37.2303 21.6031 37.2045 21.7613 37.1788C21.9194 37.1594 22.0396 37.1208 22.1092 37.0757C22.1788 37.0306 22.2167 36.9533 22.2167 36.8438V36.8116C22.2167 36.6635 22.1851 36.5282 22.1155 36.4187C22.0459 36.3028 21.9447 36.219 21.8182 36.1546C21.6854 36.0902 21.5272 36.058 21.3438 36.058C21.1603 36.058 20.9959 36.0902 20.8504 36.1546C20.7112 36.219 20.5973 36.3028 20.5088 36.4058C20.4266 36.5089 20.3696 36.6248 20.3506 36.7536L19.503 36.7086C19.541 36.4251 19.6358 36.1804 19.8003 35.9807C19.9648 35.7746 20.1735 35.6136 20.4392 35.5041C20.7049 35.3881 21.0085 35.3366 21.3501 35.3366C21.5968 35.3366 21.8245 35.3688 22.0396 35.4332C22.2547 35.4976 22.4381 35.5942 22.5963 35.7166C22.7544 35.8454 22.8746 36 22.9632 36.1868C23.0517 36.3736 23.0897 36.5926 23.0897 36.8438V39.8905H22.2294V39.2657H22.2104C22.1471 39.3817 22.0649 39.4976 21.9574 39.6071C21.8498 39.7166 21.7107 39.8068 21.5399 39.8712C21.3691 39.9356 21.1603 39.9743 20.9136 39.9743H20.9073ZM21.0908 39.2593C21.3438 39.2593 21.5525 39.2142 21.7233 39.1176C21.8941 39.021 22.0206 38.8986 22.1029 38.744C22.1851 38.5894 22.2294 38.4219 22.2294 38.2416V37.7069C22.2294 37.7069 22.1471 37.7585 22.0712 37.7778C21.9953 37.7971 21.9131 37.8229 21.8119 37.8422C21.7107 37.8615 21.6095 37.8809 21.4956 37.9002C21.3817 37.9195 21.2742 37.9324 21.1667 37.9453C21.0085 37.9646 20.8567 38.0032 20.7239 38.0548C20.5847 38.1063 20.4772 38.1772 20.3886 38.2738C20.3064 38.3704 20.2621 38.4928 20.2621 38.6474C20.2621 38.7762 20.2937 38.8921 20.3633 38.9823C20.4329 39.0725 20.5278 39.1433 20.6543 39.1949C20.7808 39.2464 20.9263 39.2657 21.0908 39.2657V39.2593Z" fill="white"/>
<path d="M25.0004 33.6618V39.897H24.1211V33.6618H25.0004Z" fill="white"/>
<path d="M26.9037 33.6618V39.897H26.0244V33.6618H26.9037Z" fill="white"/>
<path d="M29.8135 40C29.3834 40 29.0102 39.9034 28.6939 39.7037C28.3776 39.504 28.1372 39.2335 27.9728 38.8792C27.8083 38.5314 27.7197 38.1256 27.7197 37.6747C27.7197 37.2238 27.8083 36.818 27.9791 36.4638C28.1499 36.1095 28.3903 35.8325 28.7002 35.6329C29.0102 35.4332 29.3581 35.3301 29.7629 35.3301C30.0602 35.3301 30.3322 35.3817 30.5853 35.4912C30.832 35.5942 31.047 35.7488 31.2305 35.9549C31.4139 36.1546 31.5531 36.3994 31.6543 36.6892C31.7555 36.9791 31.8061 37.2947 31.8061 37.6554V37.9195H28.1499V37.2432H31.3507L30.9585 37.4493C30.9585 37.1723 30.9142 36.9276 30.8193 36.7214C30.7244 36.5153 30.5916 36.3543 30.4145 36.2448C30.2374 36.1288 30.0286 36.0773 29.7882 36.0773C29.5479 36.0773 29.3391 36.1353 29.162 36.2448C28.9849 36.3607 28.8457 36.5153 28.7508 36.715C28.6559 36.9147 28.6053 37.153 28.6053 37.4171V37.8164C28.6053 38.1063 28.6559 38.3575 28.7508 38.5701C28.852 38.7826 28.9912 38.9501 29.1746 39.0725C29.3581 39.1884 29.5795 39.2528 29.8452 39.2528C30.0286 39.2528 30.1931 39.2271 30.3386 39.1691C30.4841 39.1111 30.5979 39.0338 30.6991 38.9243C30.794 38.8213 30.8699 38.6989 30.9079 38.5572L31.7492 38.6023C31.6923 38.8728 31.5721 39.1176 31.395 39.3237C31.2178 39.5298 30.9964 39.6973 30.7244 39.8132C30.4588 39.9292 30.1614 39.9936 29.8325 39.9936L29.8135 40Z" fill="white"/>
<path d="M32.5977 39.8969V35.4203H33.439V36.1417H33.4643C33.5465 35.8969 33.673 35.7037 33.8565 35.5684C34.0399 35.4332 34.2676 35.3623 34.5396 35.3623C34.6029 35.3623 34.6662 35.3623 34.7231 35.3623C34.7863 35.3623 34.8306 35.3688 34.8686 35.3752V36.2061C34.837 36.2061 34.7737 36.1932 34.6851 36.1804C34.5966 36.1675 34.5017 36.161 34.4005 36.161C34.2297 36.161 34.0715 36.1997 33.9324 36.2834C33.7869 36.3607 33.6793 36.4831 33.5971 36.6377C33.5149 36.7923 33.4769 36.9919 33.4769 37.2238V39.8841H32.5977V39.8969Z" fill="white"/>
<path d="M39.2771 39.9871C38.9039 39.9871 38.5686 39.8905 38.284 39.6973C37.9993 39.5041 37.7779 39.2335 37.6198 38.8857C37.4616 38.5379 37.3857 38.1321 37.3857 37.6619C37.3857 37.1917 37.468 36.7923 37.6261 36.4445C37.7843 36.0966 38.0057 35.8261 38.2903 35.6329C38.575 35.4396 38.9039 35.343 39.2771 35.343C39.4859 35.343 39.6756 35.3752 39.8464 35.4396C40.0172 35.5041 40.1627 35.5878 40.2892 35.7037C40.4158 35.8132 40.5233 35.9421 40.6055 36.0902H40.6245V33.6683H41.4975V39.9034H40.6372V39.2142H40.6119C40.5296 39.3688 40.4221 39.5041 40.2892 39.62C40.1564 39.7359 40.0109 39.8261 39.8401 39.8905C39.6693 39.9549 39.4859 39.9871 39.2771 39.9871ZM39.4542 39.2206C39.7009 39.2206 39.916 39.1562 40.0995 39.0274C40.2829 38.8986 40.4221 38.7182 40.517 38.4799C40.6119 38.2416 40.6625 37.971 40.6625 37.6619C40.6625 37.3527 40.6119 37.0757 40.517 36.8438C40.4221 36.6119 40.2829 36.4316 40.0995 36.3028C39.916 36.1739 39.7009 36.1095 39.4542 36.1095C39.2075 36.1095 39.0051 36.1739 38.828 36.2963C38.6509 36.4187 38.5117 36.5991 38.4168 36.8245C38.3219 37.0564 38.2713 37.3334 38.2713 37.6619C38.2713 37.9904 38.3219 38.2673 38.4168 38.4992C38.5117 38.7311 38.6509 38.9115 38.828 39.0338C39.0051 39.1562 39.2139 39.2206 39.4542 39.2206Z" fill="white"/>
<path d="M44.4004 40C43.9703 40 43.5971 39.9034 43.2808 39.7037C42.9645 39.504 42.7241 39.2335 42.5597 38.8792C42.3952 38.5314 42.3066 38.1256 42.3066 37.6747C42.3066 37.2238 42.3952 36.818 42.566 36.4638C42.7368 36.1095 42.9772 35.8325 43.2871 35.6329C43.5971 35.4332 43.945 35.3301 44.3498 35.3301C44.6471 35.3301 44.9192 35.3817 45.1722 35.4912C45.4189 35.5942 45.634 35.7488 45.8174 35.9549C46.0009 36.1546 46.14 36.3994 46.2412 36.6892C46.3424 36.9726 46.393 37.2947 46.393 37.6554V37.9195H42.7368V37.2432H45.9376L45.5454 37.4493C45.5454 37.1723 45.5011 36.9276 45.4062 36.7214C45.3114 36.5153 45.1785 36.3543 45.0014 36.2448C44.8243 36.1288 44.6155 36.0773 44.3751 36.0773C44.1348 36.0773 43.926 36.1353 43.7489 36.2448C43.5718 36.3607 43.4326 36.5153 43.3377 36.715C43.2428 36.9147 43.1922 37.153 43.1922 37.4171V37.8164C43.1922 38.1063 43.2428 38.3575 43.3377 38.5701C43.4389 38.7826 43.5781 38.9501 43.7616 39.0725C43.945 39.1949 44.1664 39.2528 44.4321 39.2528C44.6155 39.2528 44.78 39.2271 44.9255 39.1691C45.071 39.1111 45.1848 39.0338 45.286 38.9243C45.3809 38.8213 45.4568 38.6989 45.4948 38.5572L46.3361 38.6023C46.2792 38.8728 46.159 39.1176 45.9819 39.3237C45.8048 39.5298 45.5834 39.6973 45.3114 39.8132C45.0457 39.9292 44.7484 39.9936 44.4194 39.9936L44.4004 40Z" fill="white"/>
<path d="M50.1195 33.6618V39.897H49.2402V33.6618H50.1195Z" fill="white"/>
<path d="M51.0303 35.8647L51.3782 33.6618H52.2891L51.6628 35.8647H51.0366H51.0303Z" fill="white"/>
<path d="M53.8331 39.9743C53.5421 39.9743 53.2828 39.9227 53.055 39.8197C52.8273 39.7166 52.6439 39.5685 52.511 39.3623C52.3782 39.1627 52.3086 38.9115 52.3086 38.6152C52.3086 38.3575 52.3592 38.1514 52.4541 37.9839C52.549 37.8229 52.6818 37.6941 52.8463 37.5974C53.0107 37.5008 53.1942 37.43 53.4029 37.3784C53.6117 37.3269 53.8204 37.2883 54.0418 37.2625C54.3138 37.2303 54.5289 37.2045 54.6871 37.1788C54.8452 37.1594 54.9654 37.1208 55.035 37.0757C55.1046 37.0306 55.1425 36.9533 55.1425 36.8438V36.8116C55.1425 36.6635 55.1109 36.5282 55.0413 36.4187C54.9717 36.3028 54.8705 36.219 54.744 36.1546C54.6112 36.0902 54.453 36.058 54.2696 36.058C54.0861 36.058 53.9216 36.0902 53.7762 36.1546C53.637 36.219 53.5231 36.3028 53.4346 36.4058C53.3523 36.5089 53.2954 36.6248 53.2764 36.7536L52.4288 36.7086C52.4667 36.4251 52.5616 36.1804 52.7261 35.9807C52.8906 35.7746 53.0993 35.6136 53.365 35.5041C53.6307 35.3881 53.9343 35.3366 54.2759 35.3366C54.5226 35.3366 54.7503 35.3688 54.9654 35.4332C55.1805 35.4976 55.3639 35.5942 55.5221 35.7166C55.6802 35.8454 55.8004 36 55.8889 36.1868C55.9775 36.3736 56.0155 36.5926 56.0155 36.8438V39.8905H55.1552V39.2657H55.1362C55.0729 39.3817 54.9907 39.4976 54.8832 39.6071C54.7756 39.7166 54.6365 39.8068 54.4657 39.8712C54.2949 39.9356 54.0861 39.9743 53.8394 39.9743H53.8331ZM54.0165 39.2593C54.2696 39.2593 54.4783 39.2142 54.6491 39.1176C54.8199 39.021 54.9464 38.8986 55.0287 38.744C55.1109 38.5894 55.1552 38.4219 55.1552 38.2416V37.7069C55.1552 37.7069 55.0729 37.7585 54.997 37.7778C54.9211 37.7971 54.8389 37.8229 54.7377 37.8422C54.6365 37.8615 54.5352 37.8809 54.4214 37.9002C54.3075 37.9195 54.2 37.9324 54.0924 37.9453C53.9343 37.9646 53.7825 38.0032 53.6496 38.0548C53.5105 38.1063 53.4029 38.1772 53.3144 38.2738C53.2321 38.3704 53.1879 38.4928 53.1879 38.6474C53.1879 38.7762 53.2195 38.8921 53.2891 38.9823C53.3587 39.0725 53.4535 39.1433 53.5801 39.1949C53.7066 39.2464 53.8521 39.2657 54.0165 39.2657V39.2593Z" fill="white"/>
<path d="M58.1339 39.897L56.4639 35.4203H57.4001L58.273 37.9002C58.3553 38.1449 58.4375 38.3833 58.5071 38.628C58.5767 38.8728 58.6526 39.1111 58.7221 39.3495H58.5007C58.5703 39.1111 58.6462 38.8664 58.7158 38.628C58.7854 38.3897 58.8613 38.1449 58.9435 37.9002L59.8038 35.4203H60.7337L59.0637 39.897H58.1339Z" fill="white"/>
<path d="M62.5821 39.9743C62.2911 39.9743 62.0318 39.9227 61.8041 39.8197C61.5763 39.7166 61.3929 39.5685 61.26 39.3623C61.1272 39.1562 61.0576 38.9115 61.0576 38.6152C61.0576 38.3575 61.1082 38.1514 61.2031 37.9839C61.298 37.8229 61.4308 37.6941 61.5953 37.5974C61.7598 37.5008 61.9432 37.43 62.152 37.3784C62.3607 37.3269 62.5695 37.2883 62.7909 37.2625C63.0629 37.2303 63.2779 37.2045 63.4361 37.1788C63.5942 37.1594 63.7144 37.1208 63.784 37.0757C63.8536 37.0306 63.8915 36.9533 63.8915 36.8438V36.8116C63.8915 36.6635 63.8599 36.5282 63.7903 36.4187C63.7207 36.3028 63.6195 36.219 63.493 36.1546C63.3602 36.0902 63.202 36.058 63.0186 36.058C62.8351 36.058 62.6707 36.0902 62.5252 36.1546C62.386 36.219 62.2722 36.3028 62.1836 36.4058C62.1014 36.5089 62.0444 36.6248 62.0254 36.7536L61.1778 36.7086C61.2158 36.4251 61.3106 36.1804 61.4751 35.9807C61.6396 35.7746 61.8483 35.6136 62.114 35.5041C62.3797 35.3881 62.6833 35.3366 63.0249 35.3366C63.2716 35.3366 63.4993 35.3688 63.7144 35.4332C63.9295 35.4976 64.1129 35.5942 64.2711 35.7166C64.4292 35.8454 64.5494 36 64.638 36.1868C64.7265 36.3736 64.7645 36.5926 64.7645 36.8438V39.8905H63.9042V39.2657H63.8852C63.822 39.3817 63.7397 39.4976 63.6322 39.6071C63.5246 39.7166 63.3855 39.8068 63.2147 39.8712C63.0439 39.9356 62.8351 39.9743 62.5884 39.9743H62.5821ZM62.7592 39.2593C63.0123 39.2593 63.221 39.2142 63.3918 39.1176C63.5626 39.021 63.6891 38.8986 63.7713 38.744C63.8536 38.5894 63.8979 38.4219 63.8979 38.2416V37.7069C63.8979 37.7069 63.8156 37.7585 63.7397 37.7778C63.6638 37.7971 63.5816 37.8229 63.4804 37.8422C63.3792 37.8615 63.2779 37.8809 63.1641 37.9002C63.0502 37.9195 62.9427 37.9324 62.8351 37.9453C62.677 37.9646 62.5252 38.0032 62.3923 38.0548C62.2532 38.1063 62.1456 38.1772 62.0571 38.2738C61.9748 38.3704 61.9306 38.4928 61.9306 38.6474C61.9306 38.7762 61.9622 38.8921 62.0318 38.9823C62.1014 39.0725 62.1962 39.1433 62.3228 39.1949C62.4493 39.2464 62.5948 39.2657 62.7592 39.2657V39.2593Z" fill="white"/>
<path d="M66.6674 37.3012V39.897H65.7881V35.4203H66.6421V36.5282H66.4713C66.6104 36.1288 66.8065 35.8261 67.0596 35.6329C67.3126 35.4396 67.6225 35.343 67.9831 35.343C68.2867 35.343 68.5524 35.4074 68.7928 35.5427C69.0268 35.678 69.2166 35.8712 69.3495 36.1288C69.4823 36.3865 69.5519 36.715 69.5519 37.1015V39.9034H68.6789V37.211C68.6789 36.8567 68.5967 36.5926 68.4259 36.4123C68.2614 36.2319 68.0211 36.1353 67.7174 36.1353C67.5213 36.1353 67.3442 36.1739 67.1861 36.2577C67.0279 36.3414 66.9014 36.4702 66.8129 36.6441C66.718 36.8181 66.6737 37.0371 66.6737 37.3076L66.6674 37.3012Z" fill="white"/>
<path d="M72.6451 35.4203V36.1546H70.1338V35.4203H72.6451ZM70.8739 34.2351H71.7468V38.7053C71.7468 38.8728 71.7785 38.9952 71.8481 39.066C71.9176 39.1369 72.0378 39.1691 72.2149 39.1691C72.2782 39.1691 72.3478 39.1691 72.4237 39.1691C72.5059 39.1691 72.5692 39.1691 72.6261 39.1626L72.6641 39.8969C72.5818 39.9034 72.4933 39.9098 72.3921 39.9163C72.2909 39.9163 72.1896 39.9163 72.0948 39.9163C71.6836 39.9163 71.3736 39.8261 71.1712 39.6393C70.9688 39.4525 70.8676 39.182 70.8676 38.8213V34.2416L70.8739 34.2351Z" fill="white"/>
<path d="M73.8915 39.9678C73.7271 39.9678 73.5942 39.9098 73.4804 39.7939C73.3665 39.678 73.3096 39.5363 73.3096 39.3752C73.3096 39.2142 73.3665 39.0725 73.4804 38.9565C73.5942 38.8406 73.7334 38.7826 73.8915 38.7826C74.0497 38.7826 74.1888 38.8406 74.3027 38.9565C74.4166 39.0725 74.4735 39.2077 74.4735 39.3752C74.4735 39.5427 74.4166 39.678 74.3027 39.7939C74.1888 39.9098 74.056 39.9678 73.8915 39.9678Z" fill="white"/>
</svg>
