<svg width="204" height="40" viewBox="0 0 204 40" fill="none" xmlns="http://www.w3.org/2000/svg">
<g clip-path="url(#clip0_303_3928)">
<path d="M0 0H39.8152V20.4225H0V0Z" fill="#E60028"/>
<path d="M0 19.8592H39.8152V39.8592H0V19.8592Z" fill="black"/>
<path d="M6.89355 18.7324H32.7805V21.1268H6.89355V18.7324Z" fill="white"/>
<path d="M66.4051 4.50704C64.2947 3.66197 61.903 2.95774 59.9334 2.95774C56.9789 2.95774 55.4313 3.66195 55.4313 4.78871C55.4313 8.02814 68.7968 5.49293 68.7968 12.5352C68.7968 15.4929 66.1237 17.7465 60.6368 17.7465C57.401 17.7465 54.8685 17.0422 51.9141 15.4929L53.1803 12.8169C55.7127 14.2253 58.1044 14.9296 60.6368 14.9296C63.8727 14.9296 65.561 13.9436 65.561 12.5352C65.561 8.87322 52.1955 11.6901 52.1955 5.07042C52.1955 2.25351 54.8686 0.281693 59.7927 0.281693C62.7472 0.281693 65.1389 0.985901 67.5307 2.11266L66.4051 4.50704Z" fill="white"/>
<path d="M81.318 17.7465C75.9718 17.7465 71.6104 14.2253 71.6104 8.87322C71.6104 3.66195 75.9718 0 81.318 0C86.6642 0 91.0255 3.66195 91.0255 8.87322C90.8848 14.2253 86.6642 17.7465 81.318 17.7465ZM81.318 2.8169C77.3787 2.8169 74.8462 5.49294 74.8462 8.87322C74.8462 12.2535 77.3787 14.9296 81.318 14.9296C85.2573 14.9296 87.7897 12.3943 87.7897 8.87322C87.7897 5.49294 85.2573 2.8169 81.318 2.8169Z" fill="white"/>
<path d="M103.688 17.7465C98.0605 17.7465 93.8398 14.2253 93.8398 8.87322C93.8398 3.66195 98.0605 0 103.688 0C106.924 0 109.316 0.985898 111.426 2.53519L109.738 4.92958C108.19 3.80282 106.221 2.8169 103.688 2.8169C99.6081 2.8169 97.0758 5.35213 97.0758 8.73241C97.0758 12.1127 99.6081 14.6479 103.688 14.6479C106.221 14.6479 108.331 13.8028 109.738 12.6761L111.426 15.0704C109.456 16.7606 106.924 17.7465 103.688 17.7465Z" fill="white"/>
<path d="M114.943 0.563354H118.039V17.3239H114.943V0.563354Z" fill="white"/>
<path d="M122.54 17.1831V0.563354H137.735V3.2394H125.635V7.32394H135.061V10.1408H125.635V14.507H138.297V17.1831H122.54Z" fill="white"/>
<path d="M139.986 3.2394V0.563354H156.728V3.2394H149.835V17.1831H146.739V3.2394H139.986Z" fill="white"/>
<path d="M159.12 17.1831V0.563354H174.315V3.2394H162.215V7.32394H171.642V10.1408H162.215V14.507H174.877V17.1831H159.12Z" fill="white"/>
<path d="M61.4812 37.0422C63.1694 37.0422 64.8577 36.6197 66.2646 36.0564V31.2676H69.2191V37.7465C67.1087 39.1549 64.1543 40 61.3405 40C55.7129 40 51.4922 36.4789 51.4922 31.1268C51.4922 25.9155 55.7129 22.2535 61.3405 22.2535C64.5763 22.2535 66.9681 23.0986 69.0784 24.7887L67.3901 27.1831C65.8425 26.0563 63.8729 25.2113 61.3405 25.2113C57.2605 25.0704 54.728 27.7465 54.728 31.1268C54.728 34.5071 57.2605 37.0422 61.4812 37.0422Z" fill="white"/>
<path d="M73.2988 39.4366V22.8169H88.4933V25.493H76.394V29.5775H85.8202V32.3944H76.394V36.7606H89.0561V39.4366H73.2988Z" fill="white"/>
<path d="M95.1059 39.4366H92.0107V22.6761H95.1059L105.939 35.2113H106.08C105.939 32.1127 105.939 29.4367 105.939 27.0423V22.6761H108.894V39.4366H105.798L94.9653 26.9014C95.106 29.4366 95.1059 33.662 95.1059 35.0704V39.4366Z" fill="white"/>
<path d="M113.255 39.4366V22.8169H128.449V25.493H116.35V29.5775H125.776V32.3944H116.35V36.7606H129.012V39.4366H113.255Z" fill="white"/>
<path d="M140.408 33.3803H135.484V39.5775H132.389V22.8169H143.081C146.598 22.8169 148.849 25.0704 148.849 28.169C148.849 31.1268 146.739 32.9578 144.066 33.3803L148.99 39.5775H145.051L140.408 33.3803ZM142.659 30.5634C144.629 30.5634 145.754 29.5775 145.754 28.169C145.754 26.6197 144.769 25.6338 143.081 25.6338H135.484V30.7042H142.659V30.5634Z" fill="white"/>
<path d="M155.321 35.493L153.351 39.5775H149.975L158.135 22.8169H161.37L169.531 39.5775H166.154L164.184 35.493H155.321ZM156.587 32.6761H163.059L159.823 25.9155L156.587 32.6761Z" fill="white"/>
<path d="M171.923 39.4366V22.8169H175.018V36.7606H186.133V39.4366H171.923Z" fill="white"/>
<path d="M188.242 39.4366V22.8169H203.437V25.493H191.337V29.5775H200.764V32.3944H191.337V36.7606H203.999V39.4366H188.242Z" fill="white"/>
</g>
<defs>
<clipPath id="clip0_303_3928">
<rect width="204" height="40" fill="white"/>
</clipPath>
</defs>
</svg>
