<svg width="193" height="40" viewBox="0 0 193 40" fill="none" xmlns="http://www.w3.org/2000/svg">
<path d="M31.2107 15.8317L15.6775 0L0.136719 15.8317L3.74651 19.5094L15.6775 7.36325L23.9864 15.8317L15.6775 24.2915L12.1339 20.6856L8.51528 24.3609L15.6775 31.6552L31.2107 15.8317Z" fill="white"/>
<path d="M15.5332 40L0 24.1688L15.5332 8.34436L22.689 15.6295L19.0786 19.3107L15.5332 15.7085L7.22486 24.1688L15.5332 32.6314L27.4601 20.4888L31.0758 24.1688L15.5332 40Z" fill="white"/>
<path d="M160.292 19.0916C160.576 18.7166 160.996 18.5712 161.581 18.5712C162.665 18.5712 163.187 18.9993 163.347 20.3517L163.394 20.9894H159.83C159.865 20.0714 160.009 19.4666 160.292 19.0916ZM161.744 25.0295C160.442 25.0295 160.006 24.4461 159.871 23.1484L159.829 22.5476H165.974V21.4823C165.974 18.4286 164.438 17.0099 161.487 17.0099C158.752 17.0099 157.15 18.282 157.15 21.799C157.15 23.1902 157.341 24.3904 158.007 25.2439C158.674 26.0966 159.815 26.6014 161.718 26.6014C162.654 26.6014 163.6 26.5103 164.603 26.3402L165.626 26.1439L165.355 24.5808C164.43 24.7922 162.6 25.0295 161.744 25.0295ZM186.481 19.1021C186.763 18.7282 187.183 18.584 187.767 18.584C188.855 18.584 189.376 19.0133 189.533 20.3615L189.579 20.9961H186.019C186.053 20.0788 186.198 19.4756 186.481 19.1021ZM187.926 25.0411C186.629 25.0411 186.194 24.4529 186.06 23.1564L186.019 22.5569H192.167V21.4975C192.167 18.4355 190.627 17.0166 187.677 17.0166C184.938 17.0166 183.346 18.2929 183.346 21.806C183.346 23.1983 183.535 24.399 184.2 25.2511C184.865 26.1039 186.004 26.6082 187.904 26.6082C188.842 26.6082 189.792 26.5185 190.795 26.3502L191.817 26.1556L191.539 24.5971C190.619 24.7966 188.792 25.0411 187.926 25.0411Z" fill="white"/>
<path d="M76.9811 24.833C76.0201 25.0323 75.0582 25.1295 74.5435 25.1479C73.6728 25.1921 73.1558 25.0299 72.8561 24.5324C72.5565 24.0352 72.4747 23.2035 72.4747 21.9097C72.4747 19.3209 72.8104 18.5754 74.5435 18.6525C75.0582 18.6765 76.1617 18.9154 76.9882 18.9982L77.2269 17.4872C76.4154 17.3411 75.3538 17.1412 74.6251 17.1129C70.7696 16.9409 69.8333 18.5938 69.8333 21.9097C69.8333 25.2294 70.7715 26.8564 74.6311 26.7007C75.4119 26.6721 76.4665 26.5252 77.291 26.3642L76.9811 24.833ZM47.0963 22.6238C47.0963 24.1152 46.5898 24.5913 45.541 24.6871L45.0588 24.7069H42.1485V20.8279H44.9218C45.8442 20.8279 47.0963 20.8381 47.0963 22.6238ZM46.6303 17.0479C46.6303 18.323 46.296 18.8865 45.3601 19.0075L44.9218 19.0331H42.1485V15.4053H44.732C46.1986 15.4053 46.6303 15.7453 46.6303 17.0479ZM39.584 13.5942V26.5173H45.0588C47.648 26.5173 49.6855 25.5842 49.6855 22.6238C49.6855 21.067 48.9035 20.2445 48.0088 19.7919C48.3765 19.5379 48.6774 19.1971 48.8866 18.7469C49.0951 18.2971 49.2119 17.7384 49.2119 17.0479C49.2119 14.914 47.7408 13.7457 45.2449 13.608L44.732 13.5942H39.584Z" fill="white"/>
<path d="M54.1721 25.026C53.2401 24.8393 53.0204 24.2422 53.0204 23.5642C53.0204 23.1091 53.1431 22.7702 53.3747 22.5306C53.6057 22.291 53.9453 22.151 54.3788 22.0953C54.6595 22.0599 54.9394 22.0377 55.1877 22.0233L56.0568 21.9993V25.026C55.3517 25.1057 54.7542 25.1453 54.1721 25.026ZM54.9046 18.7073C55.6256 18.7073 55.967 19.0427 56.0408 19.7668L56.0568 20.1015V20.4574C56.0568 20.4574 54.777 20.4646 53.7214 20.5914C51.3025 20.8806 50.3799 21.9993 50.3799 23.5673C50.3799 25.2998 51.6731 26.3957 53.7723 26.6189C55.0532 26.7502 56.2642 26.6795 57.441 26.5579L58.6071 26.4243V20.2021C58.6071 19.265 58.3177 18.4924 57.7095 17.9545C57.1019 17.4169 56.1766 17.1132 54.9046 17.1132C53.7993 17.1132 52.7496 17.3329 51.233 17.6389L51.5122 19.2051C52.954 18.917 54.0269 18.7073 54.9046 18.7073ZM82.105 25.1297C80.3864 25.1297 80.0343 24.4116 80.0343 21.7196C80.0343 20.462 80.1667 19.7016 80.4916 19.2547C80.817 18.8085 81.3346 18.6761 82.105 18.6761C83.2489 18.6761 84.0016 19.3051 84.0912 21.3297L84.1002 21.7531C84.1002 24.2739 83.797 25.1297 82.105 25.1297ZM85.7846 25.4206C86.4797 24.5888 86.7166 23.3564 86.7166 21.7531C86.7166 18.7378 85.2043 17.2952 82.6331 17.1263L82.105 17.1094C78.9404 17.1094 77.4181 18.46 77.4181 21.7196C77.4181 25.1751 78.4809 26.6837 82.105 26.6837C83.9368 26.6837 85.0895 26.2526 85.7846 25.4206ZM95.9206 25.1104C94.0193 25.0001 93.7551 24.0108 93.7551 21.7296C93.7551 20.6457 93.8326 19.9215 94.0695 19.4461C94.3068 18.9707 94.7022 18.7444 95.3378 18.6544C95.8303 18.591 96.3278 18.6329 96.7314 18.7077L97.1004 18.791V25.081C97.1004 25.081 96.6845 25.1535 95.9206 25.1104ZM95.3378 17.0957C92.0781 17.0957 91.1123 18.8558 91.1123 21.6979C91.1123 24.8952 91.9928 26.6938 96.2915 26.6938C97.0492 26.6938 97.766 26.6602 98.6734 26.574L99.6521 26.4691V13.6017H97.1004V17.2064C96.6104 17.1412 96.0029 17.0957 95.3378 17.0957ZM103.84 19.1944C104.123 18.8206 104.544 18.6763 105.127 18.6763C106.217 18.6763 106.738 19.1056 106.896 20.4538L106.943 21.0885H103.376C103.41 20.1712 103.556 19.568 103.84 19.1944ZM105.287 25.1334C103.991 25.1334 103.552 24.5452 103.417 23.2487L103.376 22.6493H109.524V21.5898C109.524 18.5279 107.982 17.109 105.033 17.109C102.303 17.109 100.696 18.3852 100.696 21.8983C100.696 23.2906 100.888 24.4914 101.554 25.3434C102.22 26.1962 103.361 26.7005 105.261 26.7005C106.2 26.7005 107.149 26.6108 108.152 26.4425L109.174 26.2479L108.896 24.6895C107.98 24.8889 106.147 25.1334 105.287 25.1334Z" fill="white"/>
<path d="M59.9697 26.5101H62.489V18.9308C62.9538 18.8064 63.68 18.6549 64.3474 18.6549C65.5313 18.6549 66.0611 19.2368 66.1752 20.9179L66.1993 21.7065V26.5101H68.7645V21.7065C68.7645 20.2136 68.4842 19.0608 67.792 18.281C67.0994 17.5012 65.9948 17.0952 64.3474 17.0952C62.9943 17.0952 61.7874 17.3546 60.5185 17.8194L59.9697 18.0307V26.5101Z" fill="white"/>
<path d="M141.902 24.833C140.939 25.0323 139.976 25.1295 139.458 25.1479C138.591 25.1922 138.076 25.03 137.778 24.5324C137.479 24.0353 137.397 23.2035 137.397 21.9098C137.397 19.321 137.727 18.5754 139.458 18.6526C139.976 18.6765 141.083 18.9154 141.906 18.9982L142.144 17.4872C141.334 17.3411 140.272 17.1412 139.548 17.113C135.686 16.9409 134.749 18.5938 134.749 21.9098C134.749 25.2295 135.695 26.8564 139.548 26.7007C140.327 26.6721 141.38 26.5253 142.205 26.3642L141.902 24.833ZM134.037 24.833C133.076 25.0323 132.114 25.1295 131.591 25.1479C130.724 25.1922 130.21 25.03 129.913 24.5324C129.615 24.0353 129.533 23.2035 129.533 21.9098C129.533 19.321 129.858 18.5754 131.591 18.6526C132.114 18.6765 133.219 18.9154 134.037 18.9982L134.277 17.4872C133.473 17.3411 132.408 17.1412 131.677 17.113C127.822 16.9409 126.886 18.5938 126.886 21.9098C126.886 25.2295 127.83 26.8564 131.681 26.7007C132.463 26.6721 133.519 26.5253 134.339 26.3642L134.037 24.833Z" fill="white"/>
<path d="M119.941 24.8563C117.087 24.8563 116.523 23.6405 116.523 19.8071C116.523 16.1835 117.471 15.2529 119.941 15.2529C120.962 15.2529 121.791 15.5456 122.366 16.2672C122.94 16.989 123.259 18.1393 123.259 19.8551C123.259 23.1944 122.822 24.6682 120.443 24.8395L119.941 24.8563ZM119.941 13.4586C115.8 13.4586 113.892 15.2588 113.892 19.8071C113.892 22.2279 114.22 23.9425 115.14 25.0528C116.061 26.1624 117.572 26.6672 119.941 26.6672C124.419 26.6672 125.723 24.6216 125.867 20.6708L125.882 19.8551C125.882 15.3594 123.719 13.4586 119.941 13.4586ZM143.385 26.5211H145.91V17.2835H143.385V26.5211ZM143.385 15.8845H145.91V13.9413H143.385V15.8845ZM152.432 25.1215C152.267 25.1215 152.107 25.1146 151.982 25.1104C150.083 25.0143 149.82 24.0108 149.82 21.7296C149.82 20.6452 149.897 19.9211 150.134 19.4461C150.37 18.9707 150.766 18.7437 151.403 18.6544C151.898 18.5903 152.394 18.6329 152.796 18.7077L153.162 18.791V25.081C152.947 25.084 152.655 25.1215 152.432 25.1215ZM151.403 17.0957C148.145 17.0957 147.173 18.8558 147.173 21.6979C147.173 24.8952 148.059 26.6938 152.353 26.6938C152.861 26.6938 153.341 26.6691 153.874 26.6285L155.714 26.4691V13.6017H153.162V17.2064C152.672 17.1412 152.068 17.0957 151.403 17.0957ZM166.987 26.5101H169.501V18.9308C169.965 18.8064 170.69 18.6549 171.36 18.6549C172.544 18.6549 173.074 19.2368 173.189 20.9179L173.213 21.7065V26.5101H175.777V21.7065C175.777 20.2136 175.498 19.0608 174.805 18.281C174.113 17.5012 173.008 17.0952 171.36 17.0952C170.014 17.0952 168.805 17.3547 167.535 17.8194L166.987 18.0308V26.5101ZM177.881 15.1422V17.3262H176.322V18.8923H177.881V23.4724C177.881 25.638 178.265 26.6938 180.505 26.6938C180.812 26.6938 181.384 26.6872 182.17 26.5705L182.792 26.4621L182.492 24.9276C181.797 24.9913 181.402 25.0607 181.009 25.0001C180.675 24.9523 180.546 24.7139 180.502 24.1504L180.482 23.4724V18.8923H182.499V17.3262H180.482V15.1422H177.881Z" fill="white"/>
</svg>
