<svg width="312" height="40" viewBox="0 0 312 40" fill="none" xmlns="http://www.w3.org/2000/svg">
<path d="M283.845 0C281.885 0 280.244 1.64947 280.244 3.62743C280.244 5.65338 281.88 7.25487 283.845 7.25487C285.857 7.25487 287.492 5.55897 287.492 3.62743C287.492 1.60304 285.857 0 283.845 0ZM28.9297 1.70792C28.8297 1.7004 28.7284 1.70294 28.6268 1.71396C21.1919 2.62866 14.0108 3.97763 6.81163 6.06084C5.8749 6.35491 5.29609 7.40386 5.53337 8.33403C6.06067 10.4018 6.32504 11.4382 6.86009 13.5152C7.08652 14.3928 7.97039 14.8447 8.86834 14.546C16.2226 12.2864 23.5975 10.7409 31.2045 9.61573C32.0761 9.49965 32.5524 8.59852 32.2314 7.69621C31.5552 5.79408 31.2161 4.84464 30.526 2.95334C30.2695 2.25049 29.6298 1.76052 28.9297 1.70792ZM180.288 1.93161C178.419 1.93161 174.864 2.96847 173.227 4.19271V34.4274H180.288V1.93161ZM259.903 1.93161C258.08 1.93161 254.479 2.96847 252.84 4.19271V33.061C255.172 34.1444 259.055 34.8959 263.081 34.8959C271.31 34.8959 276.36 29.9519 276.36 21.3807C276.36 15.258 273.508 10.4092 266.543 10.4107C264.347 10.4107 261.915 11.3508 259.903 13.092V1.93161ZM58.9112 3.06216C55.4977 3.06216 52.5992 3.43736 48.7639 4.00227V34.4274H60.2682C66.5353 34.4274 72.0542 30.7538 72.0542 25.2439C72.0542 21.0527 70.2305 18.4621 65.9749 17.2394C68.7339 16.156 70.2792 14.1757 70.2792 11.2088C70.2792 6.0286 65.2248 3.06216 58.9112 3.06216ZM58.9112 8.99604C61.8594 8.99604 63.2155 10.3624 63.2155 12.294C63.2155 14.3184 61.9061 15.4952 59.099 15.4952H55.9185V9.23182C56.9017 9.09099 57.9295 8.99604 58.9112 8.99604ZM137.306 10.3624C129.916 10.3624 124.208 14.6944 124.208 22.9375C124.208 30.563 128.934 34.8959 136.137 34.8959C138.241 34.8959 140.906 34.4275 143.479 33.3905L142.216 27.7378C140.487 28.3507 139.082 28.5872 137.866 28.5872C133.423 28.5872 131.645 26.2799 131.645 22.5113C131.645 18.7906 133.563 16.3446 138.287 16.3446C139.036 16.3446 140.345 16.5326 141.141 16.7678C142.215 15.59 143.198 13.5175 143.479 11.1634C141.233 10.6465 139.364 10.3624 137.306 10.3624ZM157.043 10.3624C149.887 10.3624 144.836 15.0707 144.836 22.608C144.836 30.0463 149.607 34.8959 157.043 34.8959C164.435 34.8959 169.25 30.1886 169.25 22.608C169.25 15.261 164.48 10.3624 157.043 10.3624ZM196.472 10.3624C189.318 10.3624 184.265 15.0707 184.265 22.608C184.265 30.0463 189.036 34.8959 196.472 34.8959C203.864 34.8959 208.679 30.1886 208.679 22.608C208.679 15.261 203.909 10.3624 196.472 10.3624ZM223.125 10.4077C219.435 10.4077 215.041 11.4889 212.229 13.4668L212.19 34.4274H219.251V16.7678C220.142 16.5326 221.167 16.39 222.243 16.39C225.05 16.39 226.642 17.663 226.642 20.1595V34.4274H233.611V20.489C233.611 19.2632 233.423 18.1327 233.048 17.0973C234.078 16.6732 235.339 16.39 236.65 16.39C239.457 16.39 241.045 17.66 241.045 20.1564V34.4274H248.015V17.6596C248.015 13.1387 244.04 10.4108 238.933 10.4077C236.131 10.4077 232.806 11.4429 230.419 12.9983C228.595 11.3964 226.071 10.4077 223.125 10.4077ZM111.253 10.4107C107.37 10.4107 102.599 11.492 99.6518 13.4668L99.6064 34.4274H106.67V16.7648C107.559 16.5295 108.588 16.39 109.663 16.39C112.516 16.39 114.152 17.66 114.152 20.1564V34.4274H121.167V17.6596C121.167 13.0923 116.632 10.4107 111.253 10.4107ZM283.89 10.4107C282.533 10.4107 281.319 10.6472 280.337 11.0697V34.4274H287.401V11.0697C286.418 10.6456 285.246 10.4107 283.89 10.4107ZM84.7489 10.453C81.6612 10.453 78.8073 11.2076 75.9072 12.2909L76.4706 13.9868C77.2181 16.0592 78.1042 16.7648 79.227 16.7648C79.6938 16.7648 83.295 16.1542 84.652 16.1542C87.2234 16.1542 88.3941 16.9064 88.5352 19.8269C80.8181 20.0622 74.3169 21.7095 74.3169 28.4451C74.3169 32.9149 78.3864 34.9443 83.298 34.9443C88.8176 34.9443 92.8864 33.9074 95.4112 31.9758V19.5912C95.4112 12.9979 91.4844 10.4546 84.7489 10.453ZM301.338 10.453C298.25 10.453 295.399 11.2076 292.499 12.2909L293.059 13.9868C293.807 16.0592 294.691 16.7648 295.819 16.7648C296.286 16.7648 299.887 16.1542 301.244 16.1542C303.812 16.1542 304.984 16.9064 305.127 19.8269C297.405 20.0622 290.906 21.7095 290.906 28.4451C290.906 32.9149 294.977 34.9443 299.887 34.9443C305.408 34.9443 309.475 33.9074 312 31.9758V19.5912C312 12.9979 308.073 10.4546 301.338 10.453ZM35.1302 13.228C35.0351 13.2205 34.9382 13.2246 34.8424 13.2371C23.2031 14.7182 11.8706 17.5891 1.12306 22.3359C0.339872 22.7073 -0.131787 23.6909 0.0326031 24.5607C0.45289 26.7817 0.666209 27.8881 1.0958 30.1137C1.28035 31.0625 2.17026 31.5006 3.0465 31.075C13.9631 26.0805 25.5006 22.9063 37.3353 21.0089C38.0875 20.8851 38.4689 20.0291 38.1804 19.1407C37.5864 17.3005 37.2861 16.3829 36.6719 14.555C36.4223 13.8102 35.7957 13.281 35.1302 13.228ZM263.541 16.3899C267.147 16.3899 269.39 17.9434 269.39 22.2755C269.39 26.041 267.615 29.2446 263.493 29.2462C262.375 29.2462 261.152 29.1509 259.891 28.962V17.1426C260.924 16.6721 262.09 16.3899 263.541 16.3899ZM157.043 16.4837C160.317 16.4837 162.186 18.7449 162.186 22.608C162.186 26.6552 160.317 28.7746 157.043 28.7746C153.816 28.7746 151.9 26.6552 151.9 22.608C151.9 18.7434 153.862 16.4837 157.043 16.4837ZM196.472 16.4837C199.746 16.4837 201.616 18.7449 201.616 22.608C201.616 26.6552 199.746 28.7746 196.472 28.7746C193.245 28.7746 191.326 26.6552 191.326 22.608C191.326 18.7434 193.291 16.4837 196.472 16.4837ZM55.9185 21.3807H59.6594C62.7937 21.3807 64.3847 22.4195 64.3847 24.9144C64.3847 27.222 62.6536 28.4451 59.6139 28.4451H55.9185V21.3807ZM87.1782 24.3491H88.5352V28.3998C87.8327 29.0111 86.338 29.5757 84.5157 29.5757C82.2235 29.5757 81.0989 28.9671 81.0989 27.2692C81.0989 25.056 83.999 24.3491 87.1782 24.3491ZM303.77 24.3491H305.127V28.3998C304.425 29.0111 302.928 29.5757 301.105 29.5757C298.812 29.5757 297.691 28.9671 297.691 27.2692C297.691 25.056 300.589 24.3491 303.77 24.3491ZM35.006 25.5825C34.9056 25.5805 34.8033 25.5887 34.7031 25.6096C27.4357 27.1852 20.3347 29.0807 13.2968 31.4951C12.4051 31.8217 11.9025 32.7611 12.1367 33.6262C12.695 35.6878 12.9761 36.7185 13.5422 38.7863C13.8074 39.7567 14.8999 40.2522 15.9048 39.8715C22.9396 37.3565 30.0438 35.1593 37.305 33.3995C38.0014 33.2308 38.3455 32.4141 38.0865 31.5737C37.5158 29.718 37.2264 28.7937 36.6386 26.9457C36.3862 26.1494 35.7085 25.5964 35.006 25.5825Z" fill="white"/>
</svg>
