<svg width="207" height="40" viewBox="0 0 207 40" fill="none" xmlns="http://www.w3.org/2000/svg">
<path d="M186.738 0.0882507C175.883 0.264752 166.97 7.85432 166.529 18.1797C166.176 28.5932 174.207 37.3301 184.62 37.6831C189.915 37.8596 194.769 35.918 198.299 32.4763C201.741 29.211 201.564 23.4747 198.829 26.034C195.828 28.858 191.68 30.623 187.091 30.4465C178.354 30.0935 171.647 23.1217 171.912 14.7379C172.177 6.97181 179.855 0.882507 186.738 0.529504L186.915 0C186.826 0 186.65 0 186.562 0L186.738 0.0882507Z" fill="white"/>
<path d="M188.239 0.617752C196.976 1.14726 204.212 8.56032 178.708 16.0616C185.15 17.2971 190.004 20.3859 190.004 20.3859C211.802 9.35458 199.359 0.0882473 187.092 0.0882473L186.915 0.617752C187.357 0.617752 187.798 0.617752 188.239 0.617752Z" fill="white"/>
<path d="M178.531 15.9734C184.268 16.6794 196.446 23.21 197.505 29.3875C197.505 29.2993 197.152 26.8282 197.152 26.8282C196.27 21.0037 197.505 15.3556 206.418 14.8261C202.094 12.7964 198.299 12.0021 194.946 12.0021C188.062 12.0021 182.767 15.0026 178.531 15.8852V15.9734Z" fill="white"/>
<path d="M197.417 28.858C197.505 29.1228 198.034 31.5055 196.799 33.8883C195.21 36.6241 192.651 38.6538 187.709 39.9776C200.417 40.5954 214.978 28.3285 201.829 16.5912C196.269 18.8857 196.887 25.1515 197.417 28.858Z" fill="white"/>
<path d="M47.2136 24.622C46.0664 24.975 45.1839 25.0632 44.3896 25.0632C42.1833 25.0632 41.7421 23.1217 41.7421 21.5332C41.7421 19.0622 42.6246 17.8267 44.3896 17.8267C45.2721 17.8267 45.8899 18.0032 45.8899 18.0032L47.4784 18.6209V16.5912L47.3019 16.5029C46.7724 16.2382 45.3604 15.7087 43.8601 15.7087C40.6831 15.7087 38.6533 18.0032 38.6533 21.5332C38.6533 24.8867 40.6831 27.1812 43.5954 27.1812C44.9191 27.1812 46.0664 26.9165 47.8314 26.1222L48.0961 26.034L47.6549 24.5337L47.3019 24.622H47.2136Z" fill="white"/>
<path d="M10.2371 18.8857C11.6491 18.2679 12.2669 17.2972 12.2669 15.6204C12.2669 14.0319 11.4726 12.7081 10.1488 12.1786C9.17808 11.8256 8.29557 11.6491 5.64805 11.6491H0V13.2376C0 13.2376 1.41201 13.4141 1.76501 13.5024V26.9165H6.2658C8.47207 26.9165 9.44283 26.74 10.4136 26.2987C11.9139 25.5927 12.7964 24.1807 12.7964 22.5039C12.7964 20.5624 11.9139 19.3269 10.1488 18.7974L10.2371 18.8857ZM4.94204 13.6789H5.5598H5.82455C6.97181 13.6789 7.94257 13.6789 8.47207 14.1201C8.82507 14.4731 9.08983 15.0026 9.08983 15.6204C9.08983 17.1206 8.64857 17.7384 6.79531 17.9149L5.47155 18.0914L4.85379 19.0622V13.5906L4.94204 13.6789ZM8.56032 24.4455C7.85432 24.975 6.79531 25.0632 5.47155 25.0632H4.94204V20.0329H5.03029H6.0893C7.23656 20.0329 8.11907 20.0329 8.73682 20.5624C9.17808 21.0037 9.53108 21.6214 9.53108 22.4157C9.53108 23.2982 9.17808 24.0042 8.64857 24.4455H8.56032Z" fill="white"/>
<path d="M99.8113 18.8857C101.223 18.2679 101.841 17.2972 101.841 15.6204C101.841 14.0319 101.047 12.7081 99.7231 12.1786C98.7523 11.8256 97.8698 11.6491 95.2223 11.6491H89.5742V13.2376C89.5742 13.2376 90.9862 13.4141 91.3392 13.5024V26.9165H95.84C98.0463 26.9165 99.017 26.74 99.9878 26.2987C101.488 25.5927 102.371 24.1807 102.371 22.5039C102.371 20.5624 101.488 19.3269 99.7231 18.7974L99.8113 18.8857ZM94.5163 13.6789H95.134H95.3988C96.546 13.6789 97.5168 13.6789 98.0463 14.1201C98.3993 14.4731 98.664 15.0026 98.664 15.6204C98.664 17.1206 98.2228 17.7384 96.3695 17.9149L95.0458 18.0914L94.428 19.0622V13.5906L94.5163 13.6789ZM98.1345 24.4455C97.4285 24.975 96.3695 25.0632 95.0458 25.0632H94.5163V20.0329H94.6045H95.6635C96.8108 20.0329 97.6933 20.0329 98.311 20.5624C98.8405 21.0037 99.1053 21.6214 99.1053 22.4157C99.1053 23.2982 98.7523 24.0042 98.2228 24.4455H98.1345Z" fill="white"/>
<path d="M33.9765 15.7969C33.0057 15.7969 31.8585 16.1499 30.5347 16.6794C30.5347 16.4147 30.4465 15.7969 30.4465 15.7969L25.8574 16.4147V18.0032H27.5342V27.0047H30.5347C30.5347 27.0047 30.5347 19.0622 30.5347 18.6209C30.976 18.4444 31.9467 18.1797 32.8292 18.1797C33.2705 18.1797 33.6235 18.2679 33.8 18.4444C34.0647 18.7092 34.0647 19.3269 34.0647 19.9447V27.0047H37.1535V19.8564C37.1535 18.1797 37.0653 17.6502 36.5358 16.9442C35.918 16.1499 35.0355 15.7969 33.8882 15.7969H33.9765Z" fill="white"/>
<path d="M53.9217 15.7969C50.5682 15.7969 48.4502 18.0032 48.4502 21.5332C48.4502 25.0632 50.48 27.2695 53.9217 27.2695C57.2753 27.2695 59.3933 25.0632 59.3933 21.5332C59.3933 18.0032 57.3635 15.7969 53.9217 15.7969ZM53.9217 25.2397C52.951 25.2397 51.6272 24.8867 51.6272 21.5332C51.6272 18.2679 52.7745 17.8267 53.9217 17.8267C54.8925 17.8267 56.2163 18.1797 56.2163 21.5332C56.2163 24.7985 55.069 25.328 53.9217 25.328V25.2397Z" fill="white"/>
<path d="M133.259 15.7969C129.905 15.7969 127.787 18.0032 127.787 21.5332C127.787 25.0632 129.817 27.2695 133.259 27.2695C136.612 27.2695 138.73 25.0632 138.73 21.5332C138.73 18.0032 136.7 15.7969 133.259 15.7969ZM133.259 25.2397C132.288 25.2397 130.964 24.8867 130.964 21.5332C130.964 18.2679 132.111 17.8267 133.259 17.8267C134.229 17.8267 135.553 18.1797 135.553 21.5332C135.553 24.7985 134.406 25.328 133.259 25.328V25.2397Z" fill="white"/>
<path d="M145.967 24.8867L143.848 25.2397C143.407 25.2397 143.231 25.1515 143.142 24.975C143.054 24.8867 143.054 24.7985 143.054 23.916C143.054 23.8277 143.054 18.6209 143.054 18.0032H146.055V16.1499H143.054V13.2376H142.701L140.054 13.5024V23.916C140.054 25.0632 140.142 25.7692 140.671 26.387C141.113 26.9165 141.819 27.2695 142.878 27.2695C143.848 27.2695 144.996 27.0047 146.143 26.5635L146.408 26.4752L145.967 24.975V24.8867Z" fill="white"/>
<path d="M109.431 15.7969C106.077 15.7969 103.959 18.0032 103.959 21.5332C103.959 25.0632 105.989 27.2695 109.431 27.2695C112.784 27.2695 114.902 25.0632 114.902 21.5332C114.902 18.0032 112.872 15.7969 109.431 15.7969ZM109.431 25.2397C108.46 25.2397 107.136 24.8867 107.136 21.5332C107.136 18.2679 108.283 17.8267 109.431 17.8267C110.401 17.8267 111.725 18.1797 111.725 21.5332C111.725 24.7985 110.578 25.328 109.431 25.328V25.2397Z" fill="white"/>
<path d="M123.463 16.6794C122.757 16.2381 121.962 16.0616 121.08 16.0616C118.079 16.0616 115.873 18.4444 115.873 21.8862C115.873 25.1515 117.55 27.1812 120.286 27.1812C120.992 27.1812 121.698 27.0047 123.286 26.2987V27.1812C123.286 29.0345 122.58 29.6523 120.197 29.6523C119.138 29.6523 117.638 29.4758 116.579 29.211V31.0643C118.874 31.5938 119.756 31.682 120.903 31.682C122.404 31.682 123.639 31.4173 124.522 30.976C125.845 30.27 126.375 29.2993 126.375 27.3577V16.2381H123.374V16.6794H123.463ZM123.374 24.7985C122.845 24.8867 122.492 24.8867 121.962 24.8867C120.109 24.8867 119.138 23.7395 119.138 21.5332C119.138 19.2387 120.286 17.9149 122.227 17.9149C122.58 17.9149 122.845 17.9149 123.374 18.0032V24.7102V24.7985Z" fill="white"/>
<path d="M24.3569 16.2381H21.3564V16.6794C20.6504 16.3264 19.8562 16.0616 19.0619 16.0616C16.0614 16.0616 13.9434 18.4444 13.9434 21.8862C13.9434 25.1515 15.6201 27.1812 18.2676 27.1812C18.9737 27.1812 19.8562 26.8282 21.2682 26.034V27.0047H21.3564L25.5925 26.5635V24.7985H24.3569V16.2381ZM21.3564 24.8867C20.8269 24.975 20.3857 24.975 19.9444 24.975C18.0911 24.975 17.0321 23.7395 17.0321 21.5332C17.0321 19.2387 18.1794 17.9149 20.2092 17.9149C20.5622 17.9149 20.8269 17.9149 21.3564 18.0032V24.7985V24.8867Z" fill="white"/>
<path d="M157.262 16.2381H154.262V16.6794C153.556 16.3264 152.761 16.0616 151.967 16.0616C148.967 16.0616 146.849 18.4444 146.849 21.8862C146.849 25.1515 148.525 27.1812 151.173 27.1812C151.879 27.1812 152.761 26.8282 154.173 26.034V27.0047L158.498 26.5635V24.7985H157.262V16.2381ZM154.262 24.8867C153.732 24.975 153.291 24.975 152.85 24.975C150.996 24.975 149.937 23.7395 149.937 21.5332C149.937 19.2387 151.085 17.9149 153.114 17.9149C153.467 17.9149 153.732 17.9149 154.262 18.0032V24.7985V24.8867Z" fill="white"/>
<path d="M154.792 11.2961L150.026 13.2376L150.468 14.6496L155.851 13.5024L155.145 11.2078L154.792 11.2961Z" fill="white"/>
<path d="M73.9543 10.9431H73.7778H73.4248L69.4536 11.4726V12.7964H70.9538V16.3264C69.7183 15.8851 68.1298 15.6204 66.5413 16.0616C64.4233 16.7676 63.276 18.6209 63.1878 21.4449C63.0995 23.916 64.4233 25.9457 66.453 26.6517C67.9533 27.1812 69.9831 26.5635 71.0421 26.034C71.0421 26.2105 71.0421 26.9165 71.0421 26.9165L75.1016 26.387V25.0632H73.7778C73.7778 24.7985 73.8661 10.8548 73.8661 10.8548L73.9543 10.9431ZM70.9538 24.7102C69.5418 25.0632 68.0415 25.328 67.0708 24.1807C66.5413 23.4747 66.3648 22.5039 66.3648 21.4449C66.3648 21.3567 66.3648 21.1802 66.3648 21.0919C66.3648 19.9447 66.7178 19.2387 67.2473 18.5327C68.218 17.4737 69.8066 17.6502 70.9538 18.2679C70.9538 18.2679 70.8656 24.5337 70.8656 24.7985L70.9538 24.7102Z" fill="white"/>
<path d="M81.1903 15.7969C80.4843 15.7969 79.8665 15.8851 79.2488 16.0616C77.0425 16.7676 75.7188 18.7092 75.7188 21.5332C75.6305 24.0925 77.0425 26.2105 79.1605 26.9165C81.1021 27.5342 83.9261 26.8282 85.6911 25.8575L85.7793 25.7692L85.2498 24.1807L84.2791 24.5337C82.8671 24.975 81.0138 25.681 79.7783 24.269C79.1605 23.5629 79.0723 22.4157 79.0723 21.5332L84.9851 21.6214H85.8676V21.5332C85.8676 21.2684 85.8676 21.0037 85.8676 20.7389C85.8676 15.6204 81.3668 15.7086 81.1903 15.7086V15.7969ZM79.0723 20.0329C79.0723 19.8564 79.1605 17.6501 81.1903 17.6501C83.2201 17.6501 83.2201 19.8564 83.2201 20.0329H79.0723Z" fill="white"/>
</svg>
