<svg width="314" height="40" viewBox="0 0 314 40" fill="none" xmlns="http://www.w3.org/2000/svg">
<path d="M73.771 22.3248C73.771 19.4367 72.9912 17.2049 71.4416 15.6291C69.8871 14.0583 67.6519 13.2679 64.7216 13.2679C63.7134 13.2679 62.7398 13.3921 61.811 13.6308C60.8773 13.8743 60.1224 14.2272 59.5413 14.6846V7.85462C59.5413 7.26805 59.412 6.84055 59.1638 6.57213C58.9105 6.30371 58.4684 6.16452 57.8377 6.16452H55.1108C54.5049 6.16452 54.0728 6.30371 53.8046 6.58704C53.5415 6.87038 53.4072 7.28793 53.4072 7.85462V30.2335C54.4404 30.999 55.8112 31.6254 57.5148 32.1126C59.2135 32.5996 60.9766 32.8432 62.7944 32.8432C66.4004 32.8432 69.127 31.9235 70.9847 30.0794C72.8372 28.2352 73.766 25.6554 73.766 22.3298V22.3198L73.771 22.3248ZM66.3209 26.9577C65.4914 27.9668 64.2149 28.4738 62.4965 28.4738C61.9451 28.4738 61.4038 28.4142 60.8723 28.2948C60.3409 28.1805 59.9039 28.0265 59.5463 27.8176V20.8733C59.5463 19.8245 59.9335 19.0242 60.7034 18.4724C61.4782 17.9206 62.3872 17.6473 63.445 17.6473C64.9053 17.6473 65.9583 18.025 66.6039 18.8005C67.2447 19.566 67.5725 20.769 67.5725 22.4094C67.5725 24.4275 67.1553 25.9437 66.3209 26.9527V26.9577Z" fill="white"/>
<path d="M92.591 13.8783C91.2152 13.4706 89.6308 13.2619 87.8428 13.2619C85.5184 13.2619 83.477 13.7093 81.7089 14.604C79.9456 15.4988 78.5698 16.7614 77.5864 18.382C76.603 20.0074 76.1113 21.8913 76.1113 24.0437C76.1113 26.8325 76.8364 28.9947 78.2867 30.5258C79.7371 32.0618 81.6741 32.8273 84.0979 32.8273C85.6326 32.8273 86.9488 32.6234 88.0315 32.2159C89.1093 31.8033 90.0381 31.1571 90.793 30.2623L91.2052 31.5994C91.2798 31.8331 91.3891 32.0022 91.5282 32.0966C91.6672 32.196 91.8758 32.2507 92.1539 32.2507H95.1439C95.6206 32.2507 95.9436 32.1761 96.1123 32.022C96.2762 31.8679 96.3559 31.5746 96.3559 31.1373V15.633C95.2184 14.8625 93.9668 14.2759 92.591 13.8684V13.8783ZM90.5348 24.8938C90.5348 25.9924 90.1225 26.8623 89.303 27.5035C88.4835 28.1398 87.52 28.4579 86.4073 28.4579C85.0465 28.4579 84.0233 28.09 83.3429 27.3493C82.6625 26.6038 82.3197 25.4704 82.3197 23.9344C82.3197 21.9411 82.8164 20.3851 83.8148 19.2767C84.813 18.1631 86.1392 17.6065 87.808 17.6065C88.866 17.6065 89.7797 17.7954 90.5348 18.1831V24.8988V24.8938Z" fill="white"/>
<path d="M139.054 27.2786C138.875 26.9705 138.702 26.8164 138.523 26.8164C138.394 26.8164 138.18 26.9058 137.882 27.0847C137.202 27.5222 136.501 27.8602 135.781 28.0989C135.066 28.3424 134.222 28.4618 133.268 28.4618C131.53 28.4618 130.199 28.0144 129.275 27.1195C128.351 26.2248 127.894 24.8827 127.894 23.0882C127.894 21.403 128.356 20.0659 129.275 19.0768C130.194 18.0924 131.45 17.6004 133.04 17.6004C133.998 17.6004 134.818 17.7147 135.498 17.9433C136.179 18.172 136.884 18.52 137.614 18.9773C137.917 19.1562 138.13 19.2456 138.255 19.2456C138.433 19.2456 138.607 19.0916 138.786 18.7834L140.073 16.5166C140.226 16.2881 140.301 16.0693 140.301 15.8656C140.301 15.6369 140.172 15.428 139.923 15.2492C138.965 14.5831 137.907 14.0859 136.745 13.7528C135.582 13.4199 134.182 13.2558 132.543 13.2558C130.323 13.2558 128.396 13.6684 126.757 14.4837C125.118 15.2988 123.861 16.452 122.992 17.9384C122.123 19.4247 121.686 21.1347 121.686 23.0832C121.686 26.2298 122.634 28.6407 124.522 30.3159C126.414 31.9911 129.086 32.8312 132.543 32.8312C134.182 32.8312 135.602 32.6621 136.799 32.334C137.996 32.0009 139.124 31.4889 140.187 30.798C140.49 30.5942 140.639 30.3855 140.639 30.1816C140.639 30.0524 140.574 29.8883 140.45 29.6846L139.049 27.2687L139.054 27.2786Z" fill="white"/>
<path d="M160.342 15.8976C158.485 14.1429 155.867 13.268 152.495 13.268C149.122 13.268 146.534 14.1479 144.677 15.8976C142.824 17.6524 141.896 20.0383 141.896 23.0508C141.896 26.0631 142.824 28.459 144.677 30.2088C146.534 31.9635 149.137 32.8384 152.495 32.8384C155.852 32.8384 158.489 31.9635 160.342 30.2088C162.195 28.454 163.124 26.0681 163.124 23.0508C163.124 20.0333 162.195 17.6474 160.342 15.8976ZM155.932 27.1467C155.137 28.0614 153.99 28.5088 152.49 28.5088C150.99 28.5088 149.877 28.0464 149.087 27.1219C148.293 26.1973 147.895 24.8403 147.895 23.0458C147.895 21.2513 148.293 19.9041 149.087 18.9895C149.877 18.0798 151.01 17.6274 152.49 17.6274C153.97 17.6274 155.142 18.0848 155.932 18.9895C156.726 19.9041 157.119 21.2513 157.119 23.0458C157.119 24.8403 156.726 26.237 155.932 27.1417V27.1467Z" fill="white"/>
<path d="M112.516 20.446V30.6164C112.516 31.1782 112.65 31.5957 112.913 31.864C113.177 32.1325 113.624 32.2668 114.259 32.2668H117.095C117.701 32.2668 118.134 32.1325 118.402 31.864C118.665 31.5957 118.799 31.1782 118.799 30.6164V20.0633C118.799 17.8115 118.173 16.1163 116.927 14.9781C115.68 13.8397 114.021 13.268 111.95 13.268C110.44 13.268 109.089 13.4967 107.902 13.9589C106.715 14.4213 105.731 15.0575 104.947 15.8778L104.833 14.5357C104.808 14.282 104.718 14.0981 104.569 13.9987C104.415 13.8944 104.192 13.8446 103.889 13.8446H100.859C100.407 13.8446 100.099 13.9243 99.9502 14.0733C99.7961 14.2274 99.7217 14.5207 99.7217 14.9581V30.6164C99.7217 31.1782 99.8558 31.5957 100.119 31.864C100.382 32.1325 100.829 32.2668 101.465 32.2668H104.266C104.897 32.2668 105.339 32.1325 105.592 31.864C105.846 31.5957 105.97 31.1782 105.97 30.6164V20.7542C105.97 19.8346 106.337 19.084 107.067 18.5123C107.803 17.9357 108.697 17.6474 109.754 17.6474C110.738 17.6474 111.443 17.8661 111.87 18.2985C112.297 18.736 112.511 19.4469 112.511 20.4509L112.516 20.446Z" fill="white"/>
<path d="M216.422 15.9902C214.569 14.2355 211.951 13.3656 208.573 13.3656C205.197 13.3656 202.614 14.2405 200.756 15.9902C198.903 17.745 197.975 20.1309 197.975 23.1484C197.975 26.1657 198.903 28.5516 200.756 30.3014C202.614 32.056 205.216 32.931 208.573 32.931C211.931 32.931 214.569 32.0511 216.422 30.3014C218.279 28.5467 219.208 26.1607 219.208 23.1484C219.208 20.1359 218.279 17.74 216.422 15.9902ZM211.981 27.0902C211.196 27.9949 210.059 28.4473 208.569 28.4473C207.078 28.4473 205.976 27.9849 205.191 27.0702C204.407 26.1557 204.019 24.8136 204.019 23.0389C204.019 21.2643 204.407 19.9222 205.191 19.0175C205.981 18.1177 207.098 17.6654 208.569 17.6654C210.039 17.6654 211.196 18.1177 211.981 19.0175C212.766 19.9222 213.158 21.2593 213.158 23.0389C213.158 24.8186 212.766 26.1905 211.981 27.0952V27.0902Z" fill="white"/>
<path d="M313.413 13.9926C313.061 13.7391 312.649 13.5502 312.18 13.436C311.714 13.3216 311.119 13.2619 310.384 13.2619C308.114 13.2619 306.221 14.097 304.707 15.7573L304.552 14.5294C304.527 14.2759 304.443 14.092 304.308 13.9926C304.17 13.8882 303.946 13.8385 303.648 13.8385H300.618C300.167 13.8385 299.858 13.9182 299.71 14.0672C299.555 14.2213 299.48 14.5146 299.48 14.952V30.6103C299.48 31.1721 299.615 31.5895 299.879 31.8579C300.142 32.1264 300.589 32.2607 301.224 32.2607H304.026C304.657 32.2607 305.098 32.1264 305.351 31.8579C305.606 31.5895 305.729 31.1721 305.729 30.6103V21.1308C305.729 20.057 306.097 19.2021 306.826 18.5609C307.561 17.9196 308.481 17.6015 309.589 17.6015C310.448 17.6015 311.203 17.7706 311.859 18.1035C312.012 18.1831 312.137 18.2179 312.237 18.2179C312.464 18.2179 312.628 18.0637 312.728 17.7556L313.676 14.8775C313.726 14.7233 313.751 14.609 313.751 14.5344C313.751 14.3555 313.637 14.1765 313.407 13.9976L313.413 13.9926Z" fill="white"/>
<path d="M184.355 13.2466C182.618 13.2466 180.919 13.4903 179.265 13.9923C177.616 14.4895 176.255 15.1057 175.197 15.8514V22.8156C175.197 23.5314 176.98 25.1618 179.504 26.4742C179.663 26.5587 179.563 26.8022 179.394 26.7476C174.298 25.0475 171.507 21.9358 170.403 20.6632C170.225 21.2996 169.663 23.2083 169.311 24.4163C169.112 25.0774 169.336 25.7882 169.877 26.2206C170.911 27.0509 172.802 28.4228 175.202 29.4816V38.3446C175.202 38.9064 175.336 39.324 175.6 39.5923C175.868 39.8608 176.299 40 176.906 40H179.632C180.264 40 180.705 39.8658 180.958 39.5923C181.207 39.324 181.336 38.9064 181.336 38.3446V31.8626C182.224 32.1459 184.177 32.822 186.442 32.822C189.317 32.822 191.557 31.9421 193.157 30.1924C194.76 28.4376 195.561 26.0715 195.561 23.074C195.561 16.5224 191.826 13.2516 184.361 13.2516L184.355 13.2466ZM188.275 27.0259C187.555 27.9952 186.476 28.4824 185.036 28.4824C183.929 28.4824 183.025 28.1743 182.329 27.5629C181.634 26.9514 181.291 26.0915 181.291 24.9929V18.1628C181.996 17.8099 182.955 17.626 184.166 17.626C185.91 17.626 187.207 18.0336 188.061 18.8539C188.921 19.674 189.347 21.0411 189.347 22.9598C189.347 24.6996 188.989 26.0517 188.27 27.0259H188.275Z" fill="white"/>
<path d="M292.372 13.8898V13.8996C290.997 13.492 289.413 13.2833 287.624 13.2833C285.3 13.2833 283.258 13.7307 281.491 14.6254C279.727 15.5202 278.352 16.7828 277.369 18.4032C276.385 20.0238 275.894 21.9127 275.894 24.0651C275.894 26.8537 276.613 29.0161 278.068 30.5521C279.518 32.0832 281.455 32.8537 283.875 32.8537C285.409 32.8537 286.725 32.6448 287.813 32.2373C288.896 31.8295 289.82 31.1785 290.574 30.2837L290.986 31.6258C291.061 31.8545 291.171 32.0234 291.309 32.1178C291.448 32.2223 291.658 32.2721 291.935 32.2721H294.926C295.402 32.2721 295.725 32.1975 295.894 32.0434C296.058 31.8893 296.137 31.596 296.137 31.1585V15.6544C295 14.8839 293.748 14.2973 292.372 13.8898ZM290.312 24.9052C290.312 26.0038 289.905 26.8737 289.085 27.5149C288.259 28.1512 287.301 28.4743 286.19 28.4743C284.828 28.4743 283.804 28.1064 283.124 27.3657C282.443 26.6202 282.101 25.4868 282.101 23.9508C282.101 21.9575 282.593 20.4015 283.597 19.2931C284.594 18.1795 285.921 17.6229 287.59 17.6229C288.648 17.6229 289.557 17.8168 290.312 18.1995V24.9102V24.9052Z" fill="white"/>
<path d="M271.255 6.17368H268.418C267.813 6.17368 267.38 6.31285 267.112 6.59619C266.848 6.87953 266.714 7.29709 266.714 7.86377V30.6205C266.714 31.1821 266.848 31.5996 267.112 31.8681C267.376 32.1366 267.813 32.2708 268.418 32.2708H271.255C271.885 32.2708 272.327 32.1366 272.58 31.8681C272.834 31.5996 272.958 31.1821 272.958 30.6205V7.86377C272.958 7.2772 272.828 6.84971 272.58 6.57631C272.327 6.30789 271.885 6.17368 271.255 6.17368Z" fill="white"/>
<path d="M230.916 13.2284C229.178 13.2284 227.479 13.4721 225.825 13.9741C224.176 14.4761 222.815 15.0925 221.757 15.8381V38.3314C221.757 38.893 221.891 39.3055 222.16 39.579C222.423 39.8475 222.854 39.9816 223.466 39.9816H226.193C226.824 39.9816 227.261 39.8523 227.514 39.579C227.766 39.3105 227.891 38.893 227.891 38.3314V31.1136C228.497 31.6753 229.232 32.0979 230.102 32.3812C230.971 32.6645 231.939 32.8037 232.997 32.8037C235.872 32.8037 238.112 31.9288 239.717 30.1742C241.315 28.4194 242.116 26.0533 242.116 23.0508C242.116 16.5042 238.386 13.2284 230.916 13.2284ZM234.834 27.0026C234.115 27.977 233.036 28.4592 231.597 28.4592C230.484 28.4592 229.59 28.151 228.889 27.5446C228.199 26.9332 227.851 26.0731 227.851 24.9747V18.1446C228.556 17.7867 229.515 17.6078 230.728 17.6078C232.471 17.6078 233.771 18.0153 234.625 18.8306C235.485 19.6507 235.907 21.0178 235.907 22.9365C235.907 24.6764 235.549 26.0335 234.83 27.0026H234.834Z" fill="white"/>
<path d="M261.783 13.8503H258.981C258.351 13.8503 257.904 13.9895 257.636 14.2728C257.372 14.5561 257.238 14.9787 257.238 15.5404V25.328C257.238 26.3024 256.916 27.0679 256.275 27.6297C255.635 28.1913 254.795 28.4746 253.762 28.4746C252.803 28.4746 252.077 28.2459 251.586 27.7837C251.094 27.3214 250.846 26.5957 250.846 25.5965V15.5404C250.846 14.9538 250.718 14.5263 250.468 14.253C250.215 13.9845 249.773 13.8503 249.143 13.8503H246.307C245.701 13.8503 245.268 13.9895 245 14.2728C244.732 14.5561 244.604 14.9787 244.604 15.5404V25.8252C244.604 28.1515 245.229 29.9063 246.475 31.0843C247.722 32.2624 249.382 32.849 251.451 32.849C254.353 32.849 256.632 31.9642 258.301 30.1996L258.455 31.6211C258.48 32.0587 258.783 32.2724 259.364 32.2724H262.394C262.846 32.2724 263.154 32.1929 263.302 32.0437C263.457 31.8896 263.532 31.5963 263.532 31.1589V15.5404C263.532 14.9787 263.397 14.5561 263.134 14.2728C262.871 13.9945 262.419 13.8503 261.788 13.8503H261.793H261.783Z" fill="white"/>
<path d="M11.8965 30.169V38.3908C11.8965 39.1365 12.4974 39.7379 13.2425 39.7379H19.6595C20.4046 39.7379 21.0055 39.1365 21.0055 38.3908V31.4615C20.9459 31.4615 20.8913 31.4615 20.8316 31.4615C17.3947 31.4615 14.4345 30.9743 11.8965 30.164V30.169Z" fill="white"/>
<path d="M20.8298 23.3781C23.0451 23.3781 24.9472 22.8412 26.5168 21.9862C26.5168 21.9862 26.5168 21.9862 26.5118 21.9862C24.8628 21.9862 23.5218 21.5289 22.4887 20.6193C21.4557 19.7096 20.949 18.437 20.949 16.8015V7.2973C21.997 6.77038 23.4175 6.50196 25.2204 6.50196C27.8081 6.50196 29.7353 7.11337 31.0067 8.33124C32.2632 9.52425 32.894 10.8862 32.919 13.6302H42.1223C41.7547 4.54343 36.2118 4.89175e-05 25.4985 4.89175e-05H25.4936C22.9108 -0.00491489 20.3877 0.367901 17.9342 1.11353C15.4856 1.85419 13.4641 2.76882 11.8896 3.87236V5.65194L11.9095 20.1023C14.3929 22.8561 17.5964 23.3781 20.8348 23.3781H20.8298Z" fill="white"/>
<path d="M33.0042 14.86H32.9495C32.9395 15.0489 32.9246 15.2328 32.9097 15.4118C32.8997 15.5063 32.8501 15.8244 32.8353 15.894C32.4032 17.7531 31.2806 19.7613 29.5175 21.3768C27.4761 23.2509 24.5805 24.603 20.9101 24.603C17.8405 24.603 14.6271 24.1406 11.9897 21.8292C10.0726 20.149 8.45839 17.4996 7.42033 13.3291L0 16.7639C0.958584 20.6908 4.41048 26.3278 11.9897 28.8878C14.493 29.7329 17.4433 30.2399 20.9001 30.2399C20.9597 30.2399 21.0144 30.2399 21.074 30.2399C24.1335 30.2251 26.8751 29.8025 29.289 29.0668C37.3898 26.6112 41.8201 20.666 42.1082 14.865H32.9942L33.0042 14.86Z" fill="white"/>
</svg>
