<svg width="189" height="40" viewBox="0 0 189 40" fill="none" xmlns="http://www.w3.org/2000/svg">
<path d="M68.6776 25.615L68.1656 18.0036L64.1726 25.6035L68.6776 25.615ZM53.9873 34.4777L66.7202 11.4271L72.7667 11.4413L74.9427 34.5282L69.2368 34.514L68.9354 29.8016L61.9992 29.7847L59.5448 34.491L53.9873 34.4777Z" fill="white"/>
<path d="M100.851 11.5085L87.9838 34.559L82.204 34.5457L79.8955 11.4579L85.6459 11.4721L86.8691 27.1161L95.249 11.4952L100.851 11.5085Z" fill="white"/>
<path d="M130.225 11.5787L117.358 34.6292L111.578 34.6159L109.27 11.5281L115.02 11.5423L116.243 27.1863L124.623 11.5654L130.225 11.5787Z" fill="white"/>
<path d="M136.577 14.7876L131.094 14.7743L132.062 10.5443L137.545 10.5576L136.577 14.7876ZM131.881 34.6643L126.694 34.651L130.675 17.2529L135.862 17.2653L131.881 34.6643Z" fill="white"/>
<path d="M141.039 34.6856L135.853 34.6732L141.368 10.5664L146.555 10.5789L141.039 34.6856Z" fill="white"/>
<path d="M150.199 34.7072L145.012 34.6948L150.527 10.589L155.714 10.6005L150.199 34.7072Z" fill="white"/>
<path d="M164.382 30.1996L165.213 26.5744C164.311 26.6657 163.582 26.7446 163.024 26.8094C162.465 26.8759 161.9 27.0053 161.332 27.2004C160.841 27.3654 160.43 27.6146 160.1 27.9498C159.771 28.285 159.544 28.731 159.416 29.2888C159.229 30.1056 159.311 30.6652 159.661 30.9702C160.011 31.277 160.596 31.4313 161.416 31.4331C161.871 31.434 162.361 31.3267 162.884 31.1094C163.408 30.8939 163.908 30.5907 164.382 30.1996ZM163.766 32.8946C163.34 33.2041 162.957 33.4825 162.619 33.729C162.281 33.9773 161.845 34.223 161.315 34.4704C160.796 34.7072 160.302 34.8863 159.835 35.0087C159.365 35.132 158.737 35.1923 157.947 35.1905C156.474 35.1869 155.37 34.6682 154.633 33.6333C153.897 32.5975 153.708 31.2948 154.067 29.7251C154.363 28.434 154.848 27.392 155.524 26.5974C156.2 25.8037 157.056 25.1759 158.091 24.713C159.139 24.2403 160.335 23.9122 161.682 23.7295C163.028 23.5468 164.465 23.4049 165.99 23.3056L166.011 23.2125C166.23 22.2521 166.044 21.587 165.452 21.219C164.859 20.851 163.885 20.6656 162.532 20.6621C161.919 20.6612 161.177 20.7747 160.303 21.0053C159.43 21.2367 158.563 21.5311 157.699 21.8912L157.253 21.8903L158.215 17.6913C158.764 17.537 159.635 17.3561 160.831 17.1468C162.026 16.9384 163.205 16.8347 164.371 16.8373C167.237 16.8444 169.209 17.3481 170.29 18.3475C171.371 19.3478 171.678 20.8696 171.21 22.9145L168.502 34.7515L163.344 34.7382L163.766 32.8946Z" fill="white"/>
<path d="M177.298 35.2529C176.073 35.2494 174.946 35.1084 173.919 34.8264C172.891 34.5444 172.064 34.2171 171.438 33.8429L172.487 29.2582L172.916 29.2591C173.119 29.4559 173.351 29.6732 173.613 29.9126C173.874 30.1503 174.257 30.3986 174.761 30.6575C175.191 30.8979 175.69 31.1018 176.259 31.2748C176.828 31.4459 177.467 31.5328 178.178 31.5346C178.91 31.5364 179.582 31.4193 180.194 31.1834C180.807 30.9475 181.172 30.5706 181.29 30.0545C181.384 29.6519 181.324 29.3469 181.114 29.1385C180.905 28.9318 180.45 28.7341 179.753 28.547C179.381 28.4423 178.908 28.3306 178.332 28.2109C177.757 28.0903 177.255 27.9519 176.825 27.7958C175.617 27.3684 174.781 26.7388 174.315 25.9061C173.847 25.0734 173.769 23.98 174.079 22.6276C174.256 21.8534 174.593 21.1227 175.092 20.4363C175.59 19.7508 176.231 19.1398 177.015 18.6042C177.798 18.0792 178.712 17.6624 179.756 17.3556C180.8 17.0479 181.934 16.8953 183.16 16.8989C184.324 16.9015 185.37 17.0257 186.292 17.2704C187.215 17.5152 187.973 17.8087 188.567 18.1519L187.56 22.5513L187.145 22.5504C187 22.4059 186.763 22.2108 186.433 21.9678C186.103 21.7231 185.775 21.5147 185.451 21.3373C185.063 21.1289 184.615 20.9577 184.107 20.8221C183.6 20.6864 183.064 20.6172 182.502 20.6163C181.75 20.6146 181.085 20.7485 180.504 21.0154C179.924 21.2823 179.583 21.6379 179.481 22.0822C179.392 22.4759 179.449 22.7845 179.654 23.0133C179.859 23.2404 180.367 23.4638 181.177 23.6829C181.595 23.7973 182.081 23.9099 182.634 24.019C183.187 24.1298 183.71 24.2779 184.202 24.465C185.304 24.8703 186.074 25.4645 186.514 26.2457C186.953 27.027 187.026 28.0637 186.73 29.3539C186.543 30.1707 186.182 30.9466 185.648 31.6853C185.114 32.4232 184.452 33.0439 183.664 33.5476C182.828 34.093 181.894 34.5151 180.863 34.8122C179.831 35.1084 178.642 35.2565 177.298 35.2529Z" fill="white"/>
<path d="M55.334 0.0191024C51.4128 0.78059 47.6399 3.44012 44.2266 6.92242C45.0558 7.79799 45.7551 8.78536 46.2988 9.88238C50.5216 18.4045 43.8646 30.2846 31.4307 36.4175C18.9962 42.5506 5.49306 40.6146 1.26953 32.0943C-2.95366 23.5731 3.7035 11.6912 16.1377 5.55719C25.0698 1.15211 34.5519 0.912334 40.751 4.28375C36.3229 7.21938 31.4432 12.0808 27.1123 20.1207C19.4966 11.7869 10.5344 14.2043 10.5186 14.2086C10.5186 14.2086 26.2233 18.0512 27.1123 31.3531C27.9705 31.4961 28 31.3624 28.001 31.3531C28.0191 31.3007 37.5125 3.93616 53.7939 0.0298446C54.7673 -0.0297155 55.3232 0.0181007 55.334 0.0191024ZM16.6357 21.48C10.4314 21.0535 5.19728 23.3615 4.94434 26.6343C4.69058 29.9082 9.51525 32.9092 15.7188 33.3375C18.8422 33.5529 21.7179 33.0728 23.8379 32.1275C22.9821 32.1443 22.0967 32.127 21.1885 32.065C14.5909 31.611 9.40555 29.1362 9.60645 26.5396C9.80746 23.94 15.3191 22.203 21.915 22.6588C22.0251 22.6658 22.132 22.6791 22.2412 22.6871C20.6154 22.0575 18.7059 21.6237 16.6357 21.48Z" fill="white"/>
</svg>
