<svg width="133" height="41" viewBox="0 0 133 41" fill="none" xmlns="http://www.w3.org/2000/svg">
<path d="M95.8047 5.42269L84.3667 27.2692C84.1229 27.7364 83.4135 27.7364 83.1697 27.2692L71.7317 5.42269C71.6209 5.20022 71.3992 5.06674 71.1554 5.06674H65.6137C65.2369 5.06674 64.993 5.46719 65.1704 5.80089L83.1919 39.6607C83.4357 40.1279 84.1007 40.1279 84.3667 39.6607L102.388 5.80089C102.566 5.46719 102.322 5.06674 101.945 5.06674H96.4032C96.1372 5.06674 95.9155 5.20022 95.8047 5.42269Z" fill="white"/>
<path d="M102.299 34.5884L113.737 12.7419C113.981 12.2747 114.69 12.2747 114.934 12.7419L126.372 34.5884C126.483 34.8109 126.704 34.9444 126.948 34.9444H132.49C132.867 34.9444 133.11 34.5439 132.933 34.2102L114.912 0.350389C114.668 -0.116796 114.003 -0.116796 113.737 0.350389L95.7153 34.2102C95.5379 34.5439 95.7818 34.9444 96.1586 34.9444H101.7C101.944 34.9221 102.188 34.7887 102.299 34.5884Z" fill="white"/>
<path d="M24.1173 21.1735C26.5113 19.9722 27.9965 17.3693 27.9965 14.188C27.9965 8.73749 23.7627 5.04449 17.7998 5.04449H0.665C0.288167 5.04449 0 5.3337 0 5.7119V39.327C0 39.7052 0.288167 39.9944 0.665 39.9944H17.0683C25.27 39.9944 29.5925 36.4572 29.5925 29.5161C29.5925 22.7531 24.1173 21.1735 24.1173 21.1735ZM6.42833 10.1168H16.6028C20.349 10.1168 22.2553 11.7186 22.2553 14.6997C22.2553 17.6808 20.349 19.2825 16.6028 19.2825H6.42833C6.07367 19.2825 5.76333 18.9933 5.76333 18.6151V10.7842C5.76333 10.406 6.0515 10.1168 6.42833 10.1168ZM16.7358 34.9221H6.42833C6.0515 34.9221 5.76333 34.6329 5.76333 34.2547V24.9778C5.76333 24.6218 6.0515 24.3103 6.42833 24.3103H16.7358C21.6568 24.3103 23.8513 25.7119 23.8513 29.6051C23.8292 33.5428 21.7012 34.9221 16.7358 34.9221Z" fill="white"/>
<path d="M59.2957 21.1735C61.6897 19.9722 63.1749 17.3693 63.1749 14.188C63.1749 8.73749 58.9411 5.04449 52.9782 5.04449H35.8212C35.4444 5.04449 35.1562 5.3337 35.1562 5.7119V39.327C35.1562 39.7052 35.4444 39.9944 35.8212 39.9944H52.2246C60.4262 39.9944 64.7487 36.4572 64.7487 29.5161C64.7709 22.7531 59.2957 21.1735 59.2957 21.1735ZM41.6067 10.1168H51.7812C55.5274 10.1168 57.4337 11.7186 57.4337 14.6997C57.4337 17.6808 55.5274 19.2825 51.7812 19.2825H41.6067C41.2299 19.2825 40.9417 18.9933 40.9417 18.6151V10.7842C40.9417 10.406 41.2299 10.1168 41.6067 10.1168ZM51.8921 34.9221H41.5846C41.2299 34.9221 40.9196 34.6329 40.9196 34.2547V24.9778C40.9196 24.6218 41.2077 24.3103 41.5846 24.3103H51.8921C56.8131 24.3103 59.0076 25.7119 59.0076 29.6051C59.0076 33.5428 56.8574 34.9221 51.8921 34.9221Z" fill="white"/>
</svg>
