<svg width="417" height="44" viewBox="0 0 417 44" fill="none" xmlns="http://www.w3.org/2000/svg">
<path fill-rule="evenodd" clip-rule="evenodd" d="M80.9496 36.3775C87.4455 37.7196 103.485 37.317 103.861 26.9826C103.861 22.8317 98.4279 18.9683 93.2488 17.8562C86.909 16.4949 82.8516 16.4758 76.424 17.8562C72.4738 19.3517 71.2254 15.5363 74.839 14.2421C81.6763 11.7879 108.313 11.2655 109.571 26.9826C108.464 42.4985 85.207 41.3865 79.9694 40.3607C77.8968 39.9533 76.3167 39.0186 76.3167 36.4206V23.4931C76.3167 20.4302 80.9545 20.4542 80.9545 23.5219L80.9496 36.3775Z" fill="white"/>
<path fill-rule="evenodd" clip-rule="evenodd" d="M130.986 18.1438C125.807 18.1438 117.068 33.6932 114.502 39.2678C112.971 42.6087 108.114 40.2265 109.65 36.8856C112.405 30.894 122.803 12.7945 130.942 12.9527C139.076 12.7945 149.474 30.894 152.229 36.8856C153.765 40.2265 148.908 42.6087 147.372 39.2678C144.811 33.6932 136.165 18.1438 130.986 18.1438Z" fill="white"/>
<path fill-rule="evenodd" clip-rule="evenodd" d="M167.254 35.6872C172.438 35.6872 181.177 20.1378 183.732 14.568C185.273 11.2223 190.126 13.5998 188.594 16.9455C185.834 22.9419 175.437 41.0365 167.302 40.8736C159.163 41.0365 148.766 22.9419 146.01 16.9455C144.474 13.5998 149.331 11.2223 150.863 14.568C153.428 20.1378 162.079 35.6872 167.254 35.6872Z" fill="white"/>
<path fill-rule="evenodd" clip-rule="evenodd" d="M197.328 15.6274V38.2852C197.328 41.6693 192.125 41.5398 192.125 38.1558L192.12 15.5602C192.12 12.0611 197.328 12.042 197.328 15.6274Z" fill="white"/>
<path fill-rule="evenodd" clip-rule="evenodd" d="M222.225 35.6872C227.409 35.6872 236.144 20.1378 238.704 14.568C240.245 11.2223 245.097 13.5998 243.561 16.9455C240.806 22.9419 230.408 41.0365 222.274 40.8736C214.135 41.0365 203.737 22.9419 200.982 16.9455C199.446 13.5998 204.303 11.2223 205.834 14.568C208.4 20.1378 217.046 35.6872 222.225 35.6872Z" fill="white"/>
<path fill-rule="evenodd" clip-rule="evenodd" d="M262.244 29.2451C263.771 32.4086 268.121 34.9922 272.334 35.8934C278.669 37.2594 282.736 37.2834 289.159 35.8934C292.997 34.6711 294.353 38.3236 290.719 39.5267C283.585 41.885 257.431 42.7286 255.89 26.9778C256.738 11.9797 277.64 12.3631 285.614 13.3937C289.515 13.8922 288.72 17.9473 284.643 17.1133C279.288 16.4135 264.79 15.5842 261.961 25.0318L276.84 25.0414C279.162 25.0414 279.162 29.2499 276.84 29.2499L262.244 29.2451Z" fill="white"/>
<path fill-rule="evenodd" clip-rule="evenodd" d="M345.129 36.3775C351.625 37.7196 367.664 37.317 368.04 26.9826C368.04 22.8317 362.607 18.9683 357.433 17.8562C351.093 16.4949 347.026 16.4758 340.603 17.8562C336.648 19.3517 335.405 15.5363 339.013 14.2421C345.855 11.7879 372.487 11.2655 373.751 26.9826C372.644 42.4985 349.386 41.3865 344.149 40.3607C342.076 39.9533 340.496 39.0186 340.496 36.4206V23.4931C340.496 20.4302 345.134 20.4542 345.134 23.5219L345.129 36.3775Z" fill="white"/>
<path fill-rule="evenodd" clip-rule="evenodd" d="M395.174 18.1438C389.995 18.1438 381.256 33.6932 378.696 39.2678C377.16 42.6087 372.302 40.2265 373.839 36.8856C376.594 30.894 386.996 12.7945 395.13 12.9527C403.265 12.7945 413.667 30.894 416.422 36.8856C417.959 40.2265 413.101 42.6087 411.565 39.2678C409.005 33.6932 400.353 18.1438 395.174 18.1438Z" fill="white"/>
<path fill-rule="evenodd" clip-rule="evenodd" d="M252.286 15.6274V38.2852C252.286 41.6693 247.082 41.5398 247.082 38.1558L247.077 15.5602C247.077 12.0611 252.286 12.042 252.286 15.6274Z" fill="white"/>
<path fill-rule="evenodd" clip-rule="evenodd" d="M314.897 31.5363C311.679 25.7412 308.129 18.0623 305.685 17.8946C299.692 17.8706 302.403 29.5231 302.291 38.6064C302.252 41.8131 297.088 41.8083 297.088 38.2564C297.083 26.6711 294.561 12.8568 305.812 12.8568C309.114 12.8568 312.23 17.7028 315.039 22.266C318.258 28.0611 322.091 35.7543 324.534 35.9221C330.527 35.9509 327.675 24.5237 327.782 15.4404C327.821 12.2385 332.99 12.2433 332.99 15.7951C332.995 27.3757 335.658 40.9646 324.407 40.9646C321.101 40.9646 317.702 36.1043 314.897 31.5363Z" fill="white"/>
<mask id="path-11-outside-1_358_1964" maskUnits="userSpaceOnUse" x="0" y="4.57764e-05" width="52" height="44" fill="black">
<rect fill="white" y="4.57764e-05" width="52" height="44"/>
<path d="M25.9938 2.00005C28.0324 2.0146 31.8706 3.50066 36.2253 5.93071C36.1863 5.76774 36.1373 5.59963 36.0934 5.44145C35.8155 4.45886 36.0595 3.36626 37.7858 3.36626H41.526C43.7351 3.3663 43.4865 4.86207 43.1159 6.30962C42.8477 7.3449 42.6285 8.65327 42.5358 9.89458C42.5673 9.91736 45.6121 12.1214 47.3005 13.5186C52.6642 17.9617 49.1678 20.8663 44.0573 20.6172C43.5405 20.5885 43.038 20.564 42.5456 20.5401C42.5797 22.026 43.0231 24.7494 45.3786 27.8506C51.318 34.8295 43.4523 43.5913 32.3483 41.1231C30.5197 41.727 27.6032 42 25.9938 42C24.3846 42 21.473 41.727 19.6393 41.1231C8.53514 43.5916 0.668767 34.8296 6.60808 27.8506C8.96355 24.7494 9.40792 22.0212 9.44206 20.5401L7.93034 20.6172C2.8195 20.8665 -0.677257 17.962 4.68718 13.5186C12.6509 6.92305 22.2826 2.02401 25.9938 2.00005Z"/>
</mask>
<path d="M25.9938 2.00005L26.0081 9.66787e-05L25.9945 -2.38419e-07L25.9809 8.74996e-05L25.9938 2.00005ZM36.2253 5.93071L35.2507 7.67719L39.2317 9.89871L38.1703 5.46508L36.2253 5.93071ZM36.0934 5.44145L38.0206 4.9067L38.0179 4.89711L36.0934 5.44145ZM41.526 3.36626L41.5261 1.36626H41.526V3.36626ZM43.1159 6.30962L45.052 6.81114L45.0534 6.80569L43.1159 6.30962ZM42.5358 9.89458L40.5414 9.74571L40.4582 10.8599L41.3633 11.5148L42.5358 9.89458ZM47.3005 13.5186L48.5763 11.9784L48.5756 11.9778L47.3005 13.5186ZM44.0573 20.6172L43.9462 22.6142L43.9599 22.6149L44.0573 20.6172ZM42.5456 20.5401L42.6428 18.5424L40.4968 18.438L40.5461 20.586L42.5456 20.5401ZM45.3786 27.8506L43.7859 29.0603L43.8195 29.1046L43.8555 29.1469L45.3786 27.8506ZM32.3483 41.1231L32.7823 39.1707L32.2444 39.0512L31.7211 39.224L32.3483 41.1231ZM25.9938 42V44H25.9939L25.9938 42ZM19.6393 41.1231L20.2649 39.2235L19.7424 39.0514L19.2053 39.1708L19.6393 41.1231ZM6.60808 27.8506L8.13118 29.1468L8.16718 29.1045L8.20077 29.0603L6.60808 27.8506ZM9.44206 20.5401L11.4415 20.5862L11.4912 18.4329L9.34013 18.5427L9.44206 20.5401ZM7.93034 20.6172L8.02777 22.6149L8.03228 22.6146L7.93034 20.6172ZM4.68718 13.5186L3.41149 11.9783L3.41139 11.9784L4.68718 13.5186ZM25.9938 2.00005L25.9795 3.99999C26.6248 4.0046 27.8166 4.2693 29.5224 4.92602C31.1726 5.56134 33.1341 6.49608 35.2507 7.67719L36.2253 5.93071L37.1999 4.18423C34.9617 2.93529 32.8268 1.91197 30.9596 1.19311C29.148 0.495652 27.4014 0.0100427 26.0081 9.66787e-05L25.9938 2.00005ZM36.2253 5.93071L38.1703 5.46508C38.1203 5.25621 38.055 5.03052 38.0206 4.9067L36.0934 5.44145L34.1662 5.9762C34.2197 6.16875 34.2522 6.27927 34.2802 6.39634L36.2253 5.93071ZM36.0934 5.44145L38.0179 4.89711C37.9933 4.80991 37.9966 4.77456 37.9959 4.79206C37.9949 4.81355 37.9851 4.93015 37.8945 5.07848C37.8493 5.15238 37.7926 5.21936 37.729 5.27451C37.6661 5.32913 37.6102 5.36018 37.5759 5.37564C37.5132 5.40392 37.5555 5.36626 37.7858 5.36626V3.36626V1.36626C36.5143 1.36626 35.2155 1.7916 34.4816 2.99228C33.8243 4.06761 33.9585 5.24177 34.1689 5.9858L36.0934 5.44145ZM37.7858 3.36626V5.36626H41.526V3.36626V1.36626H37.7858V3.36626ZM41.526 3.36626L41.526 5.36626C41.8806 5.36626 41.8901 5.43075 41.7572 5.35387C41.6812 5.30993 41.5907 5.23739 41.5109 5.13348C41.433 5.03191 41.3928 4.93626 41.3738 4.87358C41.3564 4.81572 41.3586 4.79195 41.3597 4.82006C41.3608 4.8481 41.36 4.90636 41.3485 5.00272C41.3242 5.20698 41.2679 5.46404 41.1784 5.81354L43.1159 6.30962L45.0534 6.80569C45.1492 6.43141 45.263 5.95867 45.3205 5.47536C45.3765 5.0045 45.4002 4.36973 45.2029 3.71666C44.9851 2.99596 44.5186 2.33021 43.7599 1.89136C43.0639 1.48877 42.2761 1.36627 41.5261 1.36626L41.526 3.36626ZM43.1159 6.30962L41.1798 5.80809C40.8803 6.96424 40.6425 8.39092 40.5414 9.74571L42.5358 9.89458L44.5303 10.0434C44.6144 8.91562 44.8151 7.72556 45.052 6.81114L43.1159 6.30962ZM42.5358 9.89458L41.3633 11.5148C41.4086 11.5476 44.3969 13.7118 46.0254 15.0594L47.3005 13.5186L48.5756 11.9778C46.8274 10.5311 43.726 8.28712 43.7083 8.27431L42.5358 9.89458ZM47.3005 13.5186L46.0246 15.0588C47.2331 16.0599 47.7368 16.8127 47.9107 17.2608C48.0493 17.618 47.961 17.6907 47.9481 17.71C47.8687 17.8279 47.5846 18.1038 46.8672 18.3324C46.1771 18.5522 45.2463 18.6728 44.1547 18.6196L44.0573 20.6172L43.9599 22.6149C45.4236 22.6862 46.8462 22.5371 48.0815 22.1436C49.2893 21.7588 50.5024 21.0775 51.2654 19.945C52.0949 18.7138 52.1944 17.2429 51.6397 15.8136C51.1203 14.4753 50.0497 13.1989 48.5763 11.9784L47.3005 13.5186ZM44.0573 20.6172L44.1684 18.6203C43.6435 18.5911 43.1342 18.5664 42.6428 18.5424L42.5456 20.5401L42.4484 22.5377C42.9418 22.5617 43.4375 22.5858 43.9462 22.6141L44.0573 20.6172ZM42.5456 20.5401L40.5461 20.586C40.5885 22.4333 41.1418 25.579 43.7859 29.0603L45.3786 27.8506L46.9713 26.6409C44.9044 23.9197 44.5709 21.6187 44.5451 20.4942L42.5456 20.5401ZM45.3786 27.8506L43.8555 29.1469C45.0534 30.5544 45.4632 31.9283 45.4116 33.13C45.3594 34.3482 44.8244 35.5768 43.8035 36.6533C41.7527 38.8159 37.766 40.2785 32.7823 39.1707L32.3483 41.1231L31.9144 43.0754C38.0346 44.4358 43.5328 42.7517 46.7059 39.4057C48.2971 37.7279 49.3089 35.6118 49.408 33.3015C49.5078 30.9747 48.6735 28.6363 46.9017 26.5544L45.3786 27.8506ZM32.3483 41.1231L31.7211 39.224C30.177 39.7339 27.4985 40 25.9938 40L25.9938 42L25.9939 44C27.708 44 30.8624 43.7201 32.9755 43.0222L32.3483 41.1231ZM25.9938 42V40C24.4904 40 21.8156 39.7341 20.2649 39.2235L19.6393 41.1231L19.0137 43.0227C21.1304 43.7198 24.2788 44 25.9938 44V42ZM19.6393 41.1231L19.2053 39.1708C14.2215 40.2787 10.2346 38.816 8.18354 36.6534C7.16257 35.5769 6.62751 34.3483 6.5752 33.13C6.52359 31.9283 6.93336 30.5543 8.13118 29.1468L6.60808 27.8506L5.08497 26.5544C3.31314 28.6364 2.47896 30.9748 2.57888 33.3016C2.67809 35.612 3.69001 37.7282 5.28124 39.4059C8.45455 42.7519 13.953 44.436 20.0733 43.0754L19.6393 41.1231ZM6.60808 27.8506L8.20077 29.0603C10.8449 25.5791 11.3991 22.4286 11.4415 20.5862L9.44206 20.5401L7.44259 20.494C7.41678 21.6138 7.08225 23.9197 5.01539 26.6409L6.60808 27.8506ZM9.44206 20.5401L9.34013 18.5427L7.82841 18.6198L7.93034 20.6172L8.03228 22.6146L9.544 22.5375L9.44206 20.5401ZM7.93034 20.6172L7.83292 18.6196C6.74125 18.6728 5.81027 18.5523 5.12014 18.3324C4.40259 18.1039 4.11857 17.8279 4.03917 17.7101C4.02624 17.6909 3.93794 17.6182 4.07658 17.261C4.2505 16.8129 4.7543 16.06 5.96297 15.0588L4.68718 13.5186L3.41139 11.9784C1.93784 13.1989 0.867076 14.4753 0.347601 15.8137C-0.207151 17.243 -0.107664 18.714 0.721896 19.9452C1.48498 21.0778 2.69816 21.7589 3.90604 22.1437C5.14133 22.5372 6.56402 22.6862 8.02777 22.6149L7.93034 20.6172ZM4.68718 13.5186L5.96287 15.0589C9.8363 11.851 14.1212 9.05239 17.8727 7.06165C19.7483 6.06636 21.4634 5.28745 22.9049 4.76111C24.3927 4.21783 25.4295 4.00373 26.0067 4L25.9938 2.00005L25.9809 8.74996e-05C24.7025 0.0083431 23.1436 0.415617 21.5329 1.00375C19.8758 1.60883 17.9894 2.4714 15.9977 3.52831C12.0146 5.64197 7.50181 8.59068 3.41149 11.9783L4.68718 13.5186Z" fill="white" mask="url(#path-11-outside-1_358_1964)"/>
</svg>
