<svg width="255" height="40" viewBox="0 0 255 40" fill="none" xmlns="http://www.w3.org/2000/svg">
<path fill-rule="evenodd" clip-rule="evenodd" d="M11.1733 33.4716C20.0894 35.0326 42.4151 34.716 42.9251 20.0036C42.9251 14.0939 35.8652 8.9068 28.8132 7.32291C23.7608 6.18824 19.4407 5.75587 15.2454 5.94593C12.2654 6.08067 7.8696 6.5653 5.11265 7.5147C2.75722 8.44508 1.01332 7.87578 0.333065 6.61326C-0.456112 5.14901 0.072017 2.99022 2.83847 1.954C9.44192 -0.520511 29.1676 -1.87248 40.9629 5.6509C45.8225 8.74915 50.1772 13.598 50.1772 20.0951C50.1772 27.1723 45.6638 32.0397 40.8609 35.0442C30.5156 41.5115 14.7112 40.1458 9.83176 39.1467C7.01086 38.5688 4.85895 37.2372 4.85895 33.5355V15.1327C4.85895 10.7684 11.1802 10.806 11.1802 15.1694L11.1698 33.4716H11.1733Z" fill="white"/>
<path fill-rule="evenodd" clip-rule="evenodd" d="M79.357 7.62572C72.2902 7.62572 60.3886 29.7643 56.9008 37.7011C54.8081 42.4575 48.1895 39.0703 50.28 34.3126C54.0362 25.7772 68.2078 0.00772951 79.3 0.236251C90.3917 0.00772951 104.549 25.7772 108.311 34.3152C110.403 39.0725 103.794 42.4635 101.701 37.7037C98.2018 29.7665 86.4125 7.62786 79.357 7.62786V7.62572Z" fill="white"/>
<path fill-rule="evenodd" clip-rule="evenodd" d="M128.791 32.6043C135.857 32.6043 147.761 10.4713 151.249 2.53106C153.342 -2.23096 159.962 1.15754 157.87 5.91959C154.108 14.4528 139.939 40.2222 128.859 39.9938C117.756 40.2222 103.587 14.4528 99.8369 5.91959C97.7442 1.15754 104.354 -2.23096 106.446 2.53106C109.945 10.4678 121.735 32.6043 128.791 32.6043Z" fill="white"/>
<path fill-rule="evenodd" clip-rule="evenodd" d="M169.774 4.21085V36.4727C169.774 41.293 162.685 41.1081 162.685 36.2874V4.1206C162.685 -0.863041 169.774 -0.897593 169.774 4.21085Z" fill="white"/>
<path fill-rule="evenodd" clip-rule="evenodd" d="M180.82 38.6224V14.0917H186.103V24.7129C186.961 22.7109 188.676 21.184 191.695 21.184C195.057 21.184 198.03 23.3886 198.03 29.6672C198.03 37.3011 193.307 39.8793 187.922 39.8793C185.577 39.8793 183.13 39.4396 180.82 38.6245V38.6224ZM188.516 35.3311C190.895 35.3311 192.45 34.2452 192.45 30.3768C192.45 27.457 191.398 26.3396 189.408 26.3396C187.624 26.3396 186.435 27.6626 186.435 29.5302V35.1289C187.155 35.2624 187.853 35.3311 188.516 35.3311Z" fill="white"/>
<path fill-rule="evenodd" clip-rule="evenodd" d="M209.533 36.4864C208.447 38.7593 206.263 39.8793 204.079 39.8793C201.334 39.8793 199.219 38.3869 199.219 35.2645C199.219 29.7678 205.142 30.0386 208.779 28.6832C208.447 26.7507 206.892 26.1737 204.845 26.1737C203.324 26.1737 201.666 26.4104 200.019 26.7849V21.8652C201.963 21.4583 203.953 21.1875 205.771 21.1875C210.528 21.1875 214.164 22.9851 214.164 28.8547V33.0945C214.164 34.7903 214.164 36.7262 214.53 39.5078H211.123C210.528 38.7619 209.968 37.7434 209.533 36.4886V36.4864ZM206.16 35.7746C207.349 35.7746 208.836 34.6534 208.836 32.1438V31.6683C206.629 32.5174 204.639 32.2807 204.639 34.2478C204.639 35.2645 205.268 35.7746 206.16 35.7746Z" fill="white"/>
<path fill-rule="evenodd" clip-rule="evenodd" d="M225.828 26.3396C223.61 26.3396 222.787 27.7977 222.787 29.3588V39.5048H217.172V28.9532C217.172 27.2228 217.138 24.6434 216.932 21.5555H220.476C221.037 22.2673 221.632 23.6262 222.02 25.0183C222.752 22.983 224.502 21.184 227.806 21.184C231.512 21.184 234.084 23.3566 234.084 28.1061V39.5078H228.47V29.2603C228.47 27.3598 227.578 26.3417 225.828 26.3417V26.3396Z" fill="white"/>
<path fill-rule="evenodd" clip-rule="evenodd" d="M237.161 14.0917H242.776V39.5057H237.161V14.0917ZM247.933 21.5568H253.971C252.816 24.4412 251.135 27.1542 249.088 29.7337L255 39.5057H248.848L243.565 30.1734C245.349 27.5598 246.938 24.576 247.921 21.5533L247.933 21.5568Z" fill="white"/>
</svg>
