<svg width="130" height="40" viewBox="0 0 130 40" fill="none" xmlns="http://www.w3.org/2000/svg">
<path d="M6.56778 0.0137939H1.14523C0.512736 0.0137939 0 0.526557 0 1.15904V5.76752C0 6.40001 0.512736 6.91272 1.14523 6.91272H6.56778C7.20026 6.91272 7.713 6.40001 7.713 5.76752V1.15904C7.713 0.526557 7.20026 0.0137939 6.56778 0.0137939Z" fill="white"/>
<path d="M39.7102 0.0137689H35.0327C34.398 0.0137689 33.8875 0.538108 33.8875 1.15901V19.8551C33.8875 20.2414 33.3907 20.3794 33.2114 20.0345L22.3387 0.510512C22.1593 0.193163 21.8418 0.0137689 21.4555 0.0137689H13.6735C13.0388 0.0137689 12.5283 0.538108 12.5283 1.15901V31.0314C12.5283 31.6661 13.0526 32.1766 13.6735 32.1766H18.3509C18.9856 32.1766 19.4963 31.6523 19.4963 31.0314V11.7696C19.4963 11.3832 19.993 11.2452 20.1724 11.5902L31.3485 31.6936C31.5279 32.011 31.8454 32.1904 32.2317 32.1904H39.6688C40.3035 32.1904 40.8138 31.6661 40.8138 31.0452V1.1452C40.8138 0.510498 40.2897 0 39.6688 0H39.7102V0.0137689Z" fill="white"/>
<path d="M51.1476 17.3302C51.8237 14.3084 53.5899 12.9701 56.2528 12.9701C58.6261 12.9701 60.6681 14.3498 60.9579 17.3302H51.1614H51.1476ZM67.843 20.5175C67.843 12.1008 62.3653 7.92004 56.3494 7.92004C48.526 7.92004 44.0693 13.3426 44.0693 20.6555C44.0693 28.9756 49.6713 32.9355 56.17 32.9355C62.6688 32.9355 66.4632 29.5827 67.4843 25.2225C67.6223 24.6568 67.3049 24.1601 66.4632 24.1601H62.7792C62.3653 24.1601 61.9927 24.3809 61.8134 24.7948C60.8889 26.8093 59.4125 27.8717 56.5702 27.8717C53.3553 27.8717 51.189 25.8572 50.8717 21.7593H66.684C67.3601 21.7593 67.8292 21.2626 67.8292 20.5175H67.843Z" fill="white"/>
<path d="M127.974 8.51331H123.283C122.65 8.51331 122.138 9.02606 122.138 9.65855V31.0452C122.138 31.6777 122.65 32.1904 123.283 32.1904H127.974C128.607 32.1904 129.119 31.6777 129.119 31.0452V9.65855C129.119 9.02606 128.607 8.51331 127.974 8.51331Z" fill="white"/>
<path d="M82.428 27.5958C79.3511 27.5958 77.1848 25.3329 77.1848 20.4761C77.1848 15.6192 79.3511 13.0804 82.428 13.0804C85.5049 13.0804 87.6712 15.4261 87.6712 20.4761C87.6712 25.5261 85.5049 27.5958 82.428 27.5958ZM93.08 8.51332H88.4025C87.7678 8.51332 87.2573 9.03766 87.2573 9.65857V10.8176C85.8637 9.17563 83.5594 8.04419 80.5377 8.04419C73.7768 8.04419 70.2031 14.1567 70.2031 20.6416C70.2031 26.2988 73.1421 32.6458 80.3997 32.6458C82.9937 32.6458 85.7533 31.404 87.2573 29.6516V38.8548C87.2573 39.4895 87.7816 40 88.4025 40H93.08C93.7147 40 94.2252 39.4757 94.2252 38.8548V9.69995C94.2252 9.06524 93.7009 8.55471 93.08 8.55471V8.51332Z" fill="white"/>
<path d="M117.999 8.51331H113.321C112.686 8.51331 112.176 9.03765 112.176 9.65855V21.7593C112.176 25.664 110.437 26.7955 108.216 26.7955C105.995 26.7955 104.256 25.6502 104.256 21.7593V9.65855C104.256 9.02385 103.732 8.51331 103.111 8.51331H98.4333C97.7986 8.51331 97.2881 9.03765 97.2881 9.65855V22.256C97.2881 29.7482 101.427 32.7699 108.23 32.7699C115.032 32.7699 119.171 29.7344 119.171 22.256V9.65855C119.171 9.02385 118.647 8.51331 118.026 8.51331H117.985H117.999Z" fill="white"/>
</svg>
