<?xml version="1.0" encoding="UTF-8" standalone="no"?><svg id="svg2" xmlns="http://www.w3.org/2000/svg" xml:space="preserve" height="113.48" width="400" version="1.0"><path id="BCV" d="m477.8 56.624h3.78c2.11 0 5.04 0.36 5.04 3.383 0 2.41-1.56 3.254-4.88 3.254h-3.94v-6.637zm0 10.149h3.75c2.73 0 4.09 1.171 4.09 2.898 0 1.984-1.36 2.957-4.45 2.957h-3.39v-5.855zm-4.09 9.367h8.97c3.48 0 7.06-1.59 7.06-5.789 0-2.602-1.63-4.325-4-5.039v-0.067c2.9-0.324 4.98-2.601 4.98-5.562 0-5.008-4.36-6.571-8.72-6.571h-8.29v23.028zm35.75-5.399c-1.69 1.789-3.25 2.278-4.85 2.278-4.75 0-7.9-3.645-7.9-8.227 0-4.914 3.15-8.555 7.9-8.555 1.86 0 3.64 0.844 5.17 2.797l3.39-2.41c-2.08-2.863-5.21-4.098-8.59-4.098-7.09 0-12.17 4.817-12.17 12.004 0 7.383 5.08 12.196 12.17 12.196 3.12 0 5.79-1.008 8.07-3.641l-3.19-2.344zm4.72 5.403h4.72l6.27-17.403 6.48 17.403h4.42l-9.3-23.032h-3.55l-9.04 23.032z" transform="matrix(3.9992 0 0 -3.9992 -1743.9 315.2)" fill="#646363"/><path id="arrow" d="m436.9 78.815c-0.48 0-0.85-0.39-0.85-0.875v-26.625c0-0.481 0.37-0.875 0.85-0.875h26.68c0.48 0 0.87 0.394 0.87 0.875v26.625c0 0.485-0.39 0.875-0.87 0.875h-26.68zm0.78-1.075h25.1c0.31 0 0.57-0.254 0.57-0.575v-25.075c0-0.324-0.25-0.6-0.57-0.6h-25.1c-0.33 0-0.58 0.276-0.58 0.6v25.075c0 0.321 0.25 0.575 0.58 0.575zm17.41-13.924c-0.48 0.793-0.47 0.828 0.03 1.625 0.5 0.793 6.14 9.921 6.35 10.285 0.25 0.41-0.03 0.597-0.32 0.597h-11.03c-1.38 0-1.39 0.004-1.91-0.867-0.53-0.871-5.81-9.422-6.21-10.07-0.48-0.789-0.48-0.793 0-1.57 0.48-0.786 5.68-9.239 6.21-10.11 0.52-0.867 0.53-0.867 1.91-0.867h11.03c0.29 0 0.57 0.191 0.32 0.602-0.15 0.25-5.9 9.578-6.38 10.375" transform="matrix(3.9992 0 0 -3.9992 -1743.9 315.2)" fill="#009e4d"/></svg>
