<svg width="134" height="20" viewBox="0 0 134 20" fill="none" xmlns="http://www.w3.org/2000/svg"><path d="M133.808 13.6834H129.73L125.373 7.61851V13.6834H121.93V0.907439C121.937 0.833931 121.958 0.762466 121.992 0.697169C122.027 0.631872 122.074 0.574038 122.131 0.527006C122.187 0.479974 122.253 0.444676 122.324 0.423151C122.394 0.401625 122.468 0.394298 122.542 0.401593H125.386V6.0586L129.799 0.409538H133.639L128.652 6.57504L133.808 13.6834ZM115.995 8.62491C115.24 7.25833 110.664 0.414835 110.664 0.414835H107.038V13.6887H110.399V5.3038L115.961 13.6834H119.295V0.409538H115.984L115.995 8.62491ZM101.429 0.414835L105.436 13.6887H101.895L101.238 11.4508H96.6669L96.034 13.6887H92.4771L96.4286 0.862417C96.4667 0.721398 96.5537 0.598489 96.6739 0.515561C96.7942 0.432632 96.94 0.395063 97.0854 0.409538L101.429 0.414835ZM100.65 8.88975L99.0373 2.94672H98.8757L97.2522 8.88975H100.65ZM91.7515 10.01C91.7515 12.7035 89.5162 13.6807 86.4838 13.6807H81.0943V1.00543C81.0946 0.926152 81.1107 0.847732 81.1416 0.774722C81.1725 0.701712 81.2176 0.635567 81.2743 0.580128C81.3309 0.524689 81.398 0.481061 81.4717 0.451776C81.5454 0.422492 81.6241 0.408134 81.7034 0.409538H86.5553C89.0104 0.409538 91.2244 1.17228 91.2244 3.70681C91.2244 5.29585 90.5968 6.41083 89.2487 6.77896C90.6603 7.0544 91.7621 8.09522 91.7621 10.01H91.7515ZM84.2644 5.73814H86.1183C87.4769 5.73814 88.0755 5.30115 88.0755 4.26562C88.0755 3.23009 87.4346 2.82754 86.2004 2.82754H84.2671L84.2644 5.73814ZM88.5019 9.67103C88.5019 8.5534 87.8451 8.08198 86.4467 8.08198H84.2565V11.2362H86.3275C87.7126 11.2362 88.5098 10.8072 88.5098 9.67103H88.5019ZM15.1859 16.2921H0.0582275V19.69H15.1939L15.1859 16.2921ZM47.629 9.85112L49.1465 13.6807H45.5791L44.0059 10.0259C43.6828 9.28171 43.4577 8.91358 42.7771 8.91358H41.3946V13.6807H38.0576V0.941869C38.0715 0.806131 38.1318 0.679337 38.2283 0.582854C38.3248 0.48637 38.4516 0.426096 38.5873 0.412187H43.2988C45.8572 0.412187 48.0501 0.941869 48.0501 4.24973C48.0501 5.72755 47.2317 7.24244 45.6956 7.54965C46.4478 7.80655 47.2185 8.78646 47.6369 9.85377L47.629 9.85112ZM44.8428 4.50133C44.8428 3.22215 44.0483 2.9679 43.0605 2.9679H41.392V6.2943H43.0605C44.0589 6.2943 44.8428 5.76462 44.8428 4.50133ZM20.7079 0.409538H17.7946V13.6834H21.2137V0.941869C21.2096 0.806465 21.1558 0.677323 21.0624 0.579122C20.9691 0.480921 20.8429 0.420547 20.7079 0.409538ZM34.9537 6.04006H30.6421V8.75203H32.2841V11.0932C31.7932 11.1567 31.2985 11.1859 30.8036 11.1806C28.3062 11.1806 26.9528 9.59158 26.9528 7.02791C26.9528 4.62846 28.1208 2.9679 30.6235 2.9679C31.6867 3.00809 32.7326 3.24891 33.7063 3.67768L35.0464 1.39475C33.9632 0.666434 32.2841 0.155291 30.3693 0.155291C26.0179 0.155291 23.4093 2.9679 23.4093 7.04116C23.4093 11.5938 26.0179 13.9535 30.9678 13.9535C32.4861 13.9515 34.0007 13.8052 35.4913 13.5165V6.6439C35.4986 6.56833 35.4902 6.49207 35.4667 6.4199C35.4431 6.34773 35.4049 6.28121 35.3544 6.22451C35.3039 6.16781 35.2423 6.12216 35.1733 6.09042C35.1044 6.05867 35.0296 6.04153 34.9537 6.04006ZM62.9023 7.02791C62.9023 10.8708 60.5982 13.9403 56.5276 13.9403C52.1816 13.9403 49.8828 10.8708 49.8828 7.02791C49.8828 3.18507 52.1816 0.155291 56.5276 0.155291C60.5982 0.155291 62.9023 3.22215 62.9023 7.02791ZM59.3217 7.02791C59.3217 4.24708 58.0637 2.9679 56.5276 2.9679C54.7373 2.9679 53.4634 4.24708 53.4634 7.02791C53.4634 9.85377 54.7373 11.1277 56.5276 11.1277C58.0637 11.1277 59.3217 9.85377 59.3217 7.02791ZM70.3285 5.39385C69.1817 5.04955 68.268 4.69731 68.268 4.00873C68.268 3.32014 68.9804 2.83548 70.2384 2.83548C71.2819 2.83548 72.2142 3.25923 73.1252 3.8048L74.9764 1.70196C74.1395 0.907439 72.4975 0.149994 70.3762 0.149994C67.1663 0.149994 64.7006 1.70196 64.7006 4.4775C64.7006 7.0544 66.9306 7.81714 68.8454 8.36536C70.4344 8.82089 71.6421 9.09367 71.6421 9.98619C71.6421 10.9396 70.5589 11.1038 69.7008 11.1038C68.1886 11.1038 66.5466 10.3093 65.7017 9.80875L64.1895 12.4916C65.1191 13.1299 67.2034 13.935 69.4466 13.935C72.9531 13.935 75.1406 12.0519 75.1406 9.31349C75.1301 6.66243 72.3598 6.01887 70.3285 5.39385ZM7.72537 7.90454L4.6029 0.409538H0.0582275V13.6834H3.45349V6.01887L6.6872 13.6834H8.50136L11.796 6.01887V13.6834H15.1939V0.409538H10.9935L7.72537 7.90454Z" fill="url(#paint0_linear_18_32)"></path><defs><linearGradient id="paint0_linear_18_32" x1="0.423707" y1="-1.66151" x2="132.41" y2="21.6127" gradientUnits="userSpaceOnUse"><stop stop-color="#FF8C28"></stop><stop offset="1" stop-color="#D9007E"></stop></linearGradient></defs></svg>