<?xml version="1.0" encoding="UTF-8"?><svg id="Layer_1" xmlns="http://www.w3.org/2000/svg" viewBox="0 0 482.95 105.74"><defs></defs><path d="M91.45,39.84c.63-2.95.16-10.96-7.52-11.35-7.92-.47-16.15,8.01-10.37,34.36,1.11,4.98.47,12.75-9.5,12.75-13.38,0-14.25-16.25-9.5-22.31-.71.54-3.96,2.1-10.21,1.94.63-.85,1.82-2.72,2.14-3.58-5.7,3.34-10.93.08-11.72-1.01,1.27-.62,2.69-1.4,3.56-3.96-1.27,1.09-5.7,2.1-9.9.86-.87-.31-1.74-.62-2.53-1.17,2.77-1.24,4.12-3.11,4.43-3.89-.87.31-5.62,1.4-11.72,1.24-3.01,0-5.07-1.09-7.76-1.63-1.66-.39-3.09-.08-4.04.7-1.66,0-6.02.47-5.23,4.51.55-2.1,2.85-1.94,3.64-1.79v.08c-.55.39-1.03,1.09-1.27,1.79-1.19.54-5.31,2.56-2.93,5.91.08-1.87,1.74-2.64,2.77-2.88.16.31.32.7.55,1.01-.87,1.09-2.46,3.65.63,5.44-.55-1.56.48-3.03,1.43-3.89.08.39.16.86.4,1.24-.4.93-1.11,5.13,2.77,5.05-1.42-.7-.79-2.49-.48-3.11.24.08.63.16.95.16,4.75,0,2.45-3.03,16.39-5.29.32-.08.71,0,.95,0-3.56,14.3,8.08,17.03,8.08,22.78,0,2.02-1.5,3.58-4.28,3.58H4.83v6.14h85.44v-6.14h-14.17c4.67-5.6,4.51-12.21,3.17-16.33-7.52-23.32.63-29.54,4.67-28.92,4.28.54,4.83,5.05,2.45,8.32-1.66,2.49-1.9,2.33-3.17,4.51-1.43,2.72-3.8,9.1,2.69,17.34,0-9.33,3.96-11.74,5.38-13.68,1.58-2.1.79-4.04.24-5.05-.79-1.4-.32-2.49-.08-3.73Z" fill="#a04044"/><path d="M47.67,8.12c-.32-1.09-1.19-2.57-1.9-3.19,3.25-1.4,7.05-.78,7.84-.08-3.09.62-4.91,2.02-5.94,3.26ZM33.02,33.15c.79.15.32.54,0,.7-2.93,1.63-5.31,1.4-6.97.86.63,3.65,4.59,5.29,7.28,3.34,2.45-1.79,4.12-1.63,4.83-1.4.55.16.79.54,0,.7-1.66.15-3.88,1.17-4.83,3.96-.95,2.95-2.45,4.2-3.25,4.35,1.66.47,5.62.39,7.84-.86,1.5-.78,3.01-3.42,4.99-3.34.32.08.47.08.08.54-.24.23-1.82,1.71-2.3,3.89-.16.62-.79,3.65-2.38,4.51,4.51,1.63,10.21-.93,10.69-7.39.08-.54.48-.78.71,0,1.27,4.66-1.43,9.33-1.74,9.8,8-.85,8.23-6.22,8.16-7.31,0-1.09-1.5-5.83.08-7.23.4-.39.79-.31.63.47-.16,1.24.79,3.19,1.35,4.51,1.35,3.42-.24,6.3-1.5,7.7.87-.39,7.28-3.03,6.1-8.63-.24-1.17-1.82-3.58-1.82-6.14,0-1.24.87-2.72,1.27-3.03.47-.31.79-.08.63.39-.08.62-.32,2.88.79,4.51.32.47,1.5,2.18,1.58,5.36,4.28-5.68,2.3-9.25,1.35-10.57-3.25-4.74-1.82-7.85-1.5-8.55.24-.54.87-.7.95-.15.16.62-.08,4.2,2.85,7.46.87,1.17.71,2.56.79,3.19,5.3-10.42-.48-19.9-2.77-23.01-.32-.47-.71-1.01-1.42-1.94,2.3-1.87,3.56-4.43,2.22-5.68-1.27-1.24-4.04-.08-6.02,1.17-.47-.39-.87-.78-1.27-.93-.16-.15.24.08-.16-.15,0,0,2.22-2.96.16-3.97-2.38-1.17-5.07,1.87-5.07,1.87-3.64-1.01-8.79-1.17-14.17,2.33-1.19.78-2.22,1.09-2.77,1.32-.4.08-1.43.62-1.43,2.18,0,.31.08.47.55.39,1.27-.39,2.3-1.01,3.17-1.32.79-.39,1.58.16.71.7-1.19.7-2.38,1.4-2.93,2.1-.32.39-1.66,2.02.32,4.59.55-.93,2.53-3.26,5.31-2.88,2.06.16,4.43,1.86,5.15,4.59-4.12-.86-6.33-1.09-10.29-.08-3.17.86-5.62.7-8.71-.85.63,1.87,3.33,5.83,9.98,3.03,4.67-2.02,9.34.08,9.34.08,0,.31,0,.54-.08.86-.24,2.18-2.53,4.74-5.62,3.42-1.11-.47-1.82-1.24-2.45-3.26-.63.39-1.58,1.63-.79,3.19.08.31.08.54-.32.78-.32.23-.55.7-.24,1.24,2.38,4.2,10.45,2.33,11.8-3.73.16-.31.55-.39.55.23-.24,7.77-9.42,11.66-15.92,4.98-.71-.78-1.43-.78-2.53-.54-1.11.31-4.75,1.09-7.21.7-.08,1.48.08,5.52,6.26,7Z" fill="#a04044"/><path d="M3.64,23.28v.08c-.16.31-.16.62-.16.93-.95.47-4.2,1.87-1.98,5.13-.48-1.94,1.98-2.56,2.69-2.64-.08.39,0,.86.08,1.32-.95.93-2.85,3.81.4,5.44-1.03-1.71.71-2.64,1.03-2.88,3.72,3.81,5.94-2.02,9.98,1.24.32.23.55.47.79.78,2.93,3.73,6.18,4.74,9.66,6.38-2.14-1.63-2.61-4.98-2.77-6.84,1.11.54,2.93,1.09,5.15,1.01-3.17-1.87-3.72-4.28-4.12-7.62-1.9-.54-3.25-.7-6.73-3.03h-.08c-1.98-1.63-4.75-4.82-7.36-4.98-.4,0-.71,0-1.03.08-1.58-.7-5.07-1.94-6.18,1.94,1.27-1.4,2.85-.62,3.4-.31-.32.47-.55.93-.63,1.4-2.93-.31-5.78.7-5.78,3.58.55-.7,1.66-1.63,3.64-1.01Z" fill="#a04044"/><polygon points="14.6 91.86 14.6 94.64 19.08 92.72 19.08 105.29 22.42 105.29 22.42 89.26 20.46 89.26 14.6 91.86" fill="#a04044"/><path d="M36.1,103.37c-1.61,0-3.22-.45-3.22-2.26,0-1.02.8-2.14,2.07-2.71l1.61.45c1.26.56,2.76,1.13,2.76,2.37,0,1.58-1.38,2.14-3.22,2.14ZM36.21,91.52c1.72,0,2.87.79,2.87,2.14,0,.68-.69,1.69-1.95,2.48l-1.72-.68c-.92-.34-2.07-.9-2.07-2.03,0-1.35,1.26-1.92,2.87-1.92ZM38.97,96.94c1.61-.79,2.76-2.03,2.76-3.72,0-2.6-2.18-3.95-5.52-3.95-3.1,0-5.86,1.47-5.86,4.4,0,2.14,1.38,3.16,2.76,3.95-1.72.79-3.1,1.92-3.1,3.84,0,2.93,2.53,4.29,6.09,4.29s6.21-1.69,6.21-4.63c0-2.48-1.49-3.39-3.33-4.18Z" fill="#a04044"/><path d="M71.62,95.13h-.81v-2.93h7.36v-2.6h-10v8.01h3.22c3.45,0,4.6.9,4.6,2.82s-1.38,2.82-3.33,2.82-3.45-.56-4.6-1.58l-.92,2.48c1.49,1.13,3.56,1.58,5.4,1.58,3.45,0,6.67-1.81,6.67-5.42,0-3.84-2.76-5.19-7.59-5.19Z" fill="#a04044"/><path d="M54.72,103.37c-2.41,0-3.45-2.37-3.45-5.76,0-3.61,1.04-5.87,3.45-5.87s3.45,2.26,3.45,5.87c0,3.39-1.15,5.76-3.45,5.76ZM54.72,89.38c-3.91,0-6.78,2.37-6.78,8.24s2.87,8.13,6.78,8.13,6.78-2.48,6.78-8.13-2.99-8.24-6.78-8.24Z" fill="#a04044"/><path d="M290.41,17.14c-.8,3.85-1.2,14.15-1.2,18.78h2.72c2.72-11.08,4.15-14.38,18.22-14.46h4v49.43c-.24,7.86-2.4,8.17-7.59,9.12l-4.71.86v3.07h35.08v-3.07l-4.64-.86c-5.19-.94-7.43-1.26-7.67-9.12V21.46h4.08c14.06.08,15.42,3.38,18.14,14.46h2.72c0-4.64-.32-14.93-1.12-18.78h-58.01Z" fill="#3e3e3e"/><path d="M194.41,70.89V29.87c.32-7.7,2.08-7.78,7.19-8.8l4-.86v-3.07h-33.08v3.07l4.31.86c5.03,1.02,7.11,1.1,7.11,8.8v41.02c0,7.7-2.08,8.1-7.11,9.12l-4.31.86v3.07h33.32v-3.07l-4.24-.86c-5.11-1.02-6.87-1.41-7.19-9.12Z" fill="#3e3e3e"/><path d="M135.92,52.98h-6.47v-31.44h6.23c13.42.08,18.14,6.37,18.14,15.09,0,9.59-5.99,16.35-17.9,16.35ZM136.4,17.14h-28.85v3.07l4.31.94c4.95.94,7.11,1.81,7.11,9.43v40.79c0,7.54-2.16,7.62-7.11,8.64l-4.31.86v3.07h35.16v-3.07l-4.63-.86c-6.31-1.18-8.63-1.02-8.63-8.64v-14.85c2.48.39,5.75.71,8.79.71,13.1,0,25.97-6.37,25.97-20.98,0-13.6-11.59-19.1-27.81-19.1Z" fill="#3e3e3e"/><path d="M394.61,79.22h-6.15c-6.71,0-7.43-.55-7.75-8.25v-19.1h8.23c9.27,0,9.35,1.1,10.55,6.44l.64,2.67h2.64v-21.61h-2.64l-.64,2.59c-1.04,4.48-1.2,5.42-10.55,5.42h-8.23v-25.94h10.79c14.06,0,16.62,2.91,19.34,14.46h2.64c0-4.64-.4-14.93-1.12-18.78h-53.54v3.07l4.32.86c4.96.94,7.19,1.1,7.19,8.8v41.02c0,7.31-2.24,8.09-7.19,9.12l-4.32.86v3.07h52.42c2.88-4.56,6.55-15.48,7.51-20.12h-2.64c-5.75,10.06-9.03,15.4-21.5,15.4Z" fill="#3e3e3e"/><path d="M481.75,17.14h-58.01c-.8,3.85-1.2,14.15-1.2,18.78h2.72c2.72-11.08,4.16-14.38,18.22-14.46h4.07v49.43c-.32,7.86-2.48,8.17-7.67,9.12l-4.71.86v3.07h35.16v-3.07l-4.71-.86c-5.19-.94-7.35-1.26-7.67-9.12V21.46h4.07c14.07.08,15.5,3.38,18.22,14.46h2.72c0-4.64-.4-14.93-1.2-18.78Z" fill="#3e3e3e"/><path d="M253.54,80.87c-12.39,0-23.65-10.77-23.65-31.2,0-19.26,10.39-29.71,23.65-29.71,11.91,0,15.42,6.92,18.46,15.95h3.04c0-3.62-.4-11.87-.96-16.11-4.47-1.89-12.39-4.17-20.54-4.17-18.46,0-35.56,11.55-35.56,34.5s15.66,35.37,35.16,35.37c8.39,0,15.74-2.2,18.78-3.77,1.76-3.3,4.31-11.71,5.03-17.92h-3.04c-3.6,9.35-9.83,17.05-20.38,17.05Z" fill="#3e3e3e"/></svg>