<?xml version="1.0" encoding="utf-8"?>
<!-- Generator: Adobe Illustrator 19.2.1, SVG Export Plug-In . SVG Version: 6.00 Build 0)  -->
<svg version="1.1" id="layer" xmlns="http://www.w3.org/2000/svg" xmlns:xlink="http://www.w3.org/1999/xlink" x="0px" y="0px"
	 viewBox="0 0 652 652" style="enable-background:new 0 0 652 652;" xml:space="preserve">

<g id="Valiant">
	<path d="M560,262.4h28.8v29.1h28.6v23.9h-28.6V355c0,15.9,6.5,19.6,18,19.6c4.6,0,9.3-0.8,13.7-2.3V396
		c0,0-4.6,3.7-17.8,3.7c-36,0-42.7-18-42.7-38.1L560,262.4z M444.1,397.6h29.1v-57.2c0-14.9,6.7-26.5,22-26.5
		c12.6,0,19.1,8,19.1,24.7v59h28.9v-64.4c0-26.8-11-45-38.7-45c-13.4,0-25,5.1-31.9,16.2v-12.9h-28.3L444.1,397.6z M376.4,288.2
		c-13.1,0-26.1,2.3-38.4,6.7v23.9c10.7-4.7,22.3-7.2,34-7.3c18,0,27.5,6.9,27.5,23.2c-7.8-2.2-15.9-3.2-23.9-3.1
		c-23.2,0-45.1,12.1-45.1,35.8c0,22,16,33.5,37.3,33.5c14.2,0,25-4.6,32.2-13.7l0.8,10.3h25.7v-61.2
		C426.6,304.4,407.8,288.2,376.4,288.2z M376.9,379.1c-11.6,0.8-18.5-4.1-19.1-12.6c-0.5-9.8,9.3-14.2,19.8-14.9
		c13.9-0.8,21.1,4.1,21.4,11C399.4,371.1,392.9,378.3,376.9,379.1z M285.1,259.8c-0.3,8.9,6.6,16.4,15.5,16.8c0.5,0,1,0,1.5,0
		c9.2,0,16.7-7.5,16.7-16.7c0-9.2-7.5-16.7-16.7-16.7c-8.9-0.5-16.5,6.4-17,15.3C285.1,258.8,285.1,259.3,285.1,259.8 M287.7,397.6
		H317V291.5h-29.4V397.6z M240.8,397.6h29.1V245.9h-29.1L240.8,397.6z M173.7,288.2c-8.7,0.1-17.3,1.3-25.7,3.7l-9.2,26.2
		c9.6-4.3,19.9-6.5,30.4-6.4c18,0,27.6,6.9,27.6,23.2c-7.8-2.2-15.9-3.2-24-3.1c-23,0-45,12.1-45,35.8c0,22,16,33.5,37.3,33.5
		c14.2,0,25-4.6,32.2-13.7l0.8,10.3h25.7v-61.3C223.9,304.4,205.1,288.2,173.7,288.2z M174.2,379.1c-11.6,0.8-18.5-4.1-19.1-12.6
		c-0.5-9.8,9.3-14.2,19.8-14.9c13.9-0.8,21.1,4.1,21.4,11C196.9,371.1,190.2,378.3,174.2,379.1z M61.4,397.6h30.1l41.2-106.1h-30.4
		l-25.3,75.7l-24.4-75.7H20.5L61.4,397.6z" fill="#725BA7"/>
</g>
</svg>
