<svg version="1.2" xmlns="http://www.w3.org/2000/svg" viewBox="0 0 1550 476" width="1550" height="476">
	<title>Ahlibank-Annual-report-2021-21-07-22-Eng-103426-1-pdf-svg</title>
	<defs>
		<clipPath clipPathUnits="userSpaceOnUse" id="cp1">
			<path d="m-1849.41-6480.06h5251.23v7431.23h-5251.23z"/>
		</clipPath>
	</defs>
	
	<g id="Clip-Path: Page 1" clip-path="url(#cp1)">
		<g id="Page 1">
			<path id="Path 3" d="m1219.3 475.9c-1.7 0-4.4-0.9-5.7-2.2l-133.6-135c-1.3-1.4-2.2-3.6-2.2-5.3v-190.7c0-1.7 0.9-4.4 2.2-5.7l133.6-134.6c1.3-1.3 4-2.2 5.7-2.2h188.7c1.8 0 4.4 0.9 5.8 2.2l133.6 134.6c1.3 1.3 2.2 4 2.2 5.7v190.7c0 1.7-0.9 3.9-2.2 5.3l-133.6 135c-1.4 1.3-4 2.2-5.8 2.2z" fill="#9dcded"/>
			<path id="Path 4" d="m1217.1 475.9c-1.7 0-4-1.3-5.3-2.6l-120.3-152.3c-0.9-1.3-1.8-4-1.4-5.7l43.2-189.8c0.5-1.7 1.8-3.5 3.6-4.4l174.1-84.7c1.4-0.4 4-0.4 5.3 0l174.2 84.7c1.7 0.9 3.1 2.7 3.5 4.4l43.2 189.8c0.5 1.7-0.4 4.4-1.3 5.7l-120.4 152.3c-1.3 1.3-3.5 2.6-5.3 2.6z" fill="#69afdf"/>
			<path id="Path 5" d="m1214 475.9c-1.7 0-3.9-1.3-4.8-2.6l-99.7-174.3c-0.8-1.8-0.8-4 0-5.8l99.7-173.8c0.9-1.8 3.1-2.7 4.8-2.7h199.3c1.8 0 4 0.9 4.9 2.7l99.6 173.8c0.9 1.8 0.9 4 0 5.8l-99.6 174.3c-0.9 1.3-3.1 2.6-4.9 2.6z" fill="#3e88c6"/>
			<path id="Path 6" d="m1208.7 475.9c-1.7 0-3.5-1.3-3.9-3.1l-64.8-200.8c-0.5-1.7 0.4-3.9 1.7-4.8l169.3-124.5c1.4-0.8 4-0.8 5.3 0l169.3 124.5c1.3 0.9 2.2 3.1 1.8 4.8l-64.8 200.8c-0.5 1.8-2.2 3.1-4 3.1z" fill="#1c5e9d"/>
			<path id="Path 7" d="m1198.2 246.5c0-2.2 1.7-4 4-4h223c2.2 0 4 1.8 4 4v225.4c0 2.2-1.8 4-4 4h-223c-2.3 0-4-1.8-4-4z" fill="#0e4274"/>
			<path id="Path 8" d="m1191.5 475.9c-2.6 0-3.5-1.8-2.2-4l122.2-213.5c1.3-2.2 3.1-2.2 4.4 0l122.1 213.5c1.3 2.2 0.5 4-2.2 4z" fill="#002f5a"/>
			<path id="Path 9" fill-rule="evenodd" d="m547.4 36h6.1v179.1h-24.2v-161.1c0-13.6 7.9-18 18.1-18zm-38.4 0v145.1c0 19-15 34-33.9 34h-66.6v-18.5h21.6v-118.7h24.2v118.7h15.5c8.4 0 15-6.6 15-14.6v-128c0-13.6 7.9-18 18-18zm439.2 0v179.1h-24.3v-161.1c0-13.6 8-18 18.1-18zm-44.5 0v145.1c0 19-15.4 34-34.4 34-1.2 0-212.7 0-213.8 0-33.6 0-57.4-26.5-57.4-57.8 0.5-13.2 5.8-26.9 15-37.1l1.3-1.3c1.8-2.2 4-3.5 4.9-4.8 2.6-2.2 4.8-2.7 7.5-2.7 2.6 0 4.8 0.9 7.5 2.7q4 2.2 6.6 4.4c0 0.4 1.8 1.3 1.8 3.1-0.5 0.8-0.5 2.2-2.2 3v0.5c-2.2 0.9-5.3 4-8.4 7.9l-1.3 1.8c-4.9 6.2-8 14.1-8 22.1 0 20.7 17.2 39.7 41 39.7h36.6c8 0 14.6-6.6 14.6-14.6v-128c0-13.6 8.3-18 18.1-18h6.6v145.1c0 5.8-1.4 11.1-4 15.5h19.4c7.9 0 14.5-6.6 14.5-14.6v-46.3c0-13.7 8.4-18.1 18.1-18.1h6.6v63.5c0 5.8-1.3 11.1-3.9 15.5h19.4c7.9 0 14.5-6.6 14.5-14.6v-46.3c0-13.7 8.4-18.1 18.1-18.1h6.6v63.5c0 5.8-1.3 11.1-4 15.5h19.4c8 0 14.6-6.6 14.6-14.6v-128c0-13.6 8.4-18 18.1-18zm-532.2 76.7c15.4 23.4 22.5 55.6 20.3 93.6 0 0-0.5 6.2-0.9 8.8h-209.9c-19.8-0.4-28.2-4.4-36.6-15.4-4.8 34.8-33.9 49.4-71 49.4-20.7 0-39.6-4.9-52.9-15.5l-0.9-1.3c-10.5-8.8-18.9-26-18.9-46.8 0-15.8 5.3-30.4 12.3-39.7l1.8-3.1c2.6-2.2 4.4-3 7-3.5q3.6 0 8.4 2.2 4.9 2.2 8.4 4.4c0 0 2.2 1.4 0 3.1-4.8 4.9-16.8 18.6-16.8 34 0 0 0-2.6 0 0 0.5 30 23.9 40.6 51.6 40.6q8 0 15-1.3c6.6-1.8 11.9-4.4 16.3-7.5q7.1-5.3 11.1-13.3 3.9-8.4 3.9-19.4 0-7.9-2.2-14.1-2.6-6.2-5.7-10.6-3.5-5.3-7.9-9.3 2.2-2.2 7-5.7 4.9-3.5 8.8-3.5c3.6 0.4 19.4 18.1 25.2 26.9 10.1 14.1 18.9 30 34.8 30.9h9.3c8.3 0 14.9-6.6 14.9-14.6v-128c0-13.6 8-18 18.1-18h6.2v145.1c0 5.8-1.3 11.1-3.5 15.5h39.6c-6.1-8.4-9.7-19-9.7-30.9 0-26.9 18.6-48.6 41.1-48.6 22.9 0 41.4 21.7 41.4 48.6 0 11.9-3.5 22.5-9.7 30.9h40.1c0.9-40.6-11.9-80.3-42.3-92.7-4.4-2.2-18.5-6.6-25.6-5.7-3.1 0-2.2-3.1-2.2-3.1q0.9-4.4 3.5-9.3 2.2-5.3 5.3-7.9c2.2-1.8 4.4-2.2 8-1.8 3.5 0.4 8.8 1.3 13.6 2.7v0.4c17.2 5.3 32.2 16.8 43.7 33.5zm-59.1 53c0-13.2-7.5-23.8-16.7-23.8-9.3 0-16.8 10.6-16.8 23.8 0 13.2 7.5 23.8 16.8 23.8 9.2 0 16.7-10.6 16.7-23.8zm349.2-28.7q-0.4-0.9-0.4-1.8 0-2.2 1.3-3.5 1.3-1.3 4-1.3h1.7q-0.4 0-0.4-0.5-0.9-2.2-1.8-3.9-0.4-2.7-0.4-4.9 0-3.5 0.9-5.7 1.3-2.7 3-4 1.8-1.8 4-2.2c3.1-0.9 6.6-0.9 9.3 0q2.2 0.4 3.5 1.3 1.3 0.9 2.6 1.4 0.9 0.8 1.4 1.3 0.4 0.4 0.9 1.3 0.4 0.9 0.8 1.8c0 1.3-1.3 3.1-2.2 3.9-1.3 0.9-2.6 1.4-3.9 0-0.5-0.4-0.5-0.4-0.9-0.8q-0.9-0.9-1.8-1.4-0.9-0.4-2.2-0.9-2-0.6-4 0-0.8 0-1.7 0.5-0.5 0.4-0.9 1.3-0.4 0.9-0.4 2.2 0 2.7 1.3 4.9 1.3 2.2 3.1 4.4h9.7c0.4 0 0.8 0 0.8 0.4v7.5h-26.8zm-233.3-72.8q0-0.4 0-1.7 0-1.8 1.3-3.1 1.4-1.4 4-1.4h1.3q0-0.4 0-0.4-1.3-2.2-1.7-4.4-0.9-2.2-0.9-4.9 0-3.1 1.3-5.7 0.9-2.2 2.6-4 2.2-1.3 4.5-2.2c3-0.4 6.6-0.4 9.2 0q1.8 0.9 3.5 1.3 1.4 0.9 2.2 1.8 1.4 0.9 1.8 1.3 0.4 0.5 0.9 0.9 0.4 0.9 0.4 2.2c0 0.9-1.3 3.1-2.2 4-0.9 0.9-2.6 0.9-3.5 0-0.9-0.9-0.9-0.9-1.3-1.3q-0.5-0.5-1.3-1.4-0.9-0.4-2.3-0.8c-1.3-0.5-3-0.5-4.4 0q-0.8 0.4-1.3 0.8-0.4 0.5-0.9 1.4-0.4 0.8-0.4 2.2 0 2.6 1.3 4.8 1.3 2.2 3.1 4.4h9.7c0 0 0.4 0 0.4 0.5v7h-26.9zm408.6 193.8c-7.2 0-13.1-5.8-13.1-12.8 0-7.1 5.9-12.8 13.1-12.8 7.1 0 13 5.7 13 12.8 0 7-5.9 12.8-13 12.8zm-746.3 33.9c-7.1 0-12.8-5.7-12.8-12.8 0-7 5.7-12.8 12.8-12.8 7.1 0 12.8 5.8 12.8 12.8 0 7.1-5.7 12.8-12.8 12.8zm-36.8 0c-7.2 0-13-5.7-13-12.8 0-7 5.8-12.8 13-12.8 7.2 0 13 5.8 13 12.8 0 7.1-5.8 12.8-13 12.8zm728.4-191.5c-7.2 0-13-5.7-13-12.8 0-7 5.8-12.8 13-12.8 7.2 0 13 5.8 13 12.8 0 7.1-5.8 12.8-13 12.8zm-449.5 360.6v10.1c-3.1 0.9-9.7 2.2-13.7 2.2-17.6 0.9-24.7-8.4-24.7-23.4v-158h6.6c9.7 0 18.1 4.5 18.1 18.1v135.5c-0.4 14.1 4.9 15 13.7 15.5zm55.5 0v10.1c-3.1 0.9-9.7 2.2-13.6 2.2-17.7 0.9-24.7-8.4-24.7-23.4v-116h6.6c9.7 0 18.1 4.4 18.1 18.1v93.5c-0.5 14.1 4.8 15 13.6 15.5zm-26-143c-7.1 0-12.8-5.8-12.8-13 0-7.2 5.7-13.1 12.8-13.1 7.1 0 12.8 5.9 12.8 13.1 0 7.2-5.7 13-12.8 13zm586 152.7q-6.2 2.2-12.8 2.6h-0.9c-6.6 0-12.8-2.2-16.3-4.8l-4.4-5.8-54.2-61.8v70.2h-24.7v-179.2h6.6c9.7 0 18.1 4.5 18.1 18.1v79.9l48.9-49q7.9-7.5 16.3-7.5 3.1 0 5.7 1.3 2.7 0.9 4.9 2.3 2.2 0.8 4.4 2.6l-55.5 54.7zm-683-86.9v87.4h-24.7v-87.4c0.4-33.5-27.3-29.6-36.2-28.7-16.3 1.8-28.6 9.7-29.5 20.3v95.8h-24.3v-179.2h6.2c10.2 0 18.1 4.4 18.1 18.1v39.3c9.7-10.2 22.9-15.9 36.6-16.8 17.6-0.4 53.3-1.8 53.8 51.2zm540.5 0v87.4h-24.2v-87.4c0.4-33.5-27.8-29.6-36.2-28.7-16.3 1.8-29.1 9.7-29.5 20.3v95.8h-24.7v-137.3h6.6c9.3 0 16.8 4 18.1 15.5 9.7-10.2 22.5-15.9 36.6-16.8 17.6-0.4 53.3-1.8 53.3 51.2zm-131.4 77.2v10.6c-3 0.9-9.7 1.8-14.1 1.8-13.6 0.9-20.7-4.4-23.3-14.2-10.2 10.6-23 16.8-37.5 16.8-41-0.9-58.2-32.2-58.2-71.5 0-39.7 17.2-70.6 58.2-71.9 14.1 0 26.9 6.2 36.6 15.9 1.3-10.6 8.8-14.1 18.1-14.1h6.1v111.6c-0.4 14.1 4.9 14.6 14.1 15zm-38.3-21.6v-67.1c0-9.7-14.6-18.1-29.1-18.5-30-1.8-39.7 22.5-39.7 50.7 0 27.8 11.5 49.9 39.7 50.3 11.5 0 21.6-5.7 29.1-15.4zm-502.2 21.6v10.6c-3.1 0.9-9.7 1.8-13.7 1.8-13.6 0.9-21.1-4.4-23.8-14.2-9.7 10.6-22.9 16.8-37 16.8-41-0.9-58.7-32.2-58.7-71.5 0-39.7 17.7-70.6 58.7-71.9 13.6 0 26.4 6.2 36.6 15.9 1.3-10.6 8.8-14.1 17.6-14.1h6.6v111.6c-0.4 14.1 4.9 14.6 13.7 15zm-38.4-21.6v-67.1c0-9.7-14.1-18.1-29.1-18.5-29.9-1.8-39.6 22.5-39.6 50.7 0 27.8 11.9 49.9 39.6 50.3 11.5 0 22.1-5.7 29.1-15.4zm429-34.9c0 39.3-17.2 70.6-58.2 71.5-13.6 0-26.4-6.2-36.6-15.9v11.5h-24.2v-179.2h6.2c10.1 0 18 4.5 18 17.7v38.4c10.2-9.7 23-15.9 36.6-15.9 41 1.3 58.2 32.2 58.2 71.9zm-25.5 0c0-28.2-9.7-52.5-40.2-50.7-14.5 0.4-29.1 8.8-28.6 18.5v3.5q0 0-0.5 0.5v62.6c7.5 9.8 17.7 15.9 29.1 15.9 28.3-0.4 40.2-22.5 40.2-50.3z" fill="#48555d"/>
		</g>
	</g>
</svg>