<svg height="158.113883" viewBox="0 0 65.576674 16.282193" width="632.455532" xmlns="http://www.w3.org/2000/svg" xmlns:xlink="http://www.w3.org/1999/xlink"><symbol id="a" overflow="visible"/><symbol id="b" overflow="visible"/><symbol id="c" overflow="visible"/><symbol id="d" overflow="visible"/><g transform="translate(-659.71154 -101.7808)"><g fill="#fff"><use height="100%" transform="matrix(.35277779 0 0 .35277779 22.55015 -156.64967)" width="100%" x="246.00549" xlink:href="#a" y="634.86292"/><use height="100%" transform="matrix(.35277779 0 0 .35277779 22.55015 -156.64967)" width="100%" x="266.61771" xlink:href="#a" y="642.86322"/><use height="100%" transform="matrix(.35277779 0 0 .35277779 22.55015 -156.64967)" width="100%" x="256.2402" xlink:href="#a" y="650.86353"/><use height="100%" transform="matrix(.35277779 0 0 .35277779 22.55015 -156.64967)" width="100%" x="256.83801" xlink:href="#a" y="658.86377"/><use height="100%" transform="matrix(.35277779 0 0 .35277779 22.55015 -156.64967)" width="100%" x="276.21469" xlink:href="#a" y="666.86407"/><use height="100%" transform="matrix(.35277779 0 0 .35277779 22.55015 -156.64967)" width="100%" x="246.67751" xlink:href="#a" y="674.86438"/><use height="100%" transform="matrix(.35277779 0 0 .35277779 22.55015 -156.64967)" width="100%" x="264.7627" xlink:href="#a" y="682.86469"/><use height="100%" transform="matrix(.35277779 0 0 .35277779 22.55015 -156.64967)" width="100%" x="245.9481" xlink:href="#a" y="690.86499"/><use height="100%" transform="matrix(.35277779 0 0 .35277779 22.55015 -156.64967)" width="100%" x="265.5817" xlink:href="#a" y="712.53558"/><use height="100%" transform="matrix(.35277779 0 0 .35277779 22.55015 -156.64967)" width="100%" x="275.7674" xlink:href="#a" y="720.53589"/><use height="100%" transform="matrix(.35277779 0 0 .35277779 22.55015 -156.64967)" width="100%" x="275.11359" xlink:href="#a" y="728.53619"/><use height="100%" transform="matrix(.35277779 0 0 .35277779 22.55015 -156.64967)" width="100%" x="265.10571" xlink:href="#a" y="736.5365"/><use height="100%" transform="matrix(.35277779 0 0 .35277779 22.55015 -156.64967)" width="100%" x="267.96591" xlink:href="#a" y="744.5368"/><use height="100%" transform="matrix(.35277779 0 0 .35277779 22.55015 -156.64967)" width="100%" x="265.021" xlink:href="#a" y="752.53711"/><use height="100%" transform="matrix(.35277779 0 0 .35277779 22.55015 -156.64967)" width="100%" x="272.5712" xlink:href="#a" y="774.2063"/><use height="100%" transform="matrix(.35277779 0 0 .35277779 22.55015 -156.64967)" width="100%" x="274.95471" xlink:href="#a" y="782.2066"/><use height="100%" transform="matrix(.35277779 0 0 .35277779 22.55015 -156.64967)" width="100%" x="244.9044" xlink:href="#a" y="790.20691"/><use height="100%" transform="matrix(.35277779 0 0 .35277779 22.55015 -156.64967)" width="100%" x="264.03961" xlink:href="#a" y="798.20721"/><use height="100%" transform="matrix(.35277779 0 0 .35277779 22.55015 -156.64967)" width="100%" x="534.9928" xlink:href="#a" y="634.8678"/><use height="100%" transform="matrix(.35277779 0 0 .35277779 22.55015 -156.64967)" width="100%" x="542.07538" xlink:href="#a" y="656.53839"/><use height="100%" transform="matrix(.35277779 0 0 .35277779 22.55015 -156.64967)" width="100%" x="540.99249" xlink:href="#a" y="664.5387"/><use height="100%" transform="matrix(.35277779 0 0 .35277779 22.55015 -156.64967)" width="100%" x="526.41571" xlink:href="#a" y="672.539"/><use height="100%" transform="matrix(.35277779 0 0 .35277779 22.55015 -156.64967)" width="100%" x="536.32019" xlink:href="#a" y="680.53302"/><use height="100%" transform="matrix(.35277779 0 0 .35277779 22.55015 -156.64967)" width="100%" x="539.22522" xlink:href="#a" y="688.53333"/><use height="100%" transform="matrix(.35277779 0 0 .35277779 22.55015 -156.64967)" width="100%" x="533.63501" xlink:href="#a" y="696.53363"/><use height="100%" transform="matrix(.35277779 0 0 .35277779 22.55015 -156.64967)" width="100%" x="528.04688" xlink:href="#a" y="718.20282"/><use height="100%" transform="matrix(.35277779 0 0 .35277779 22.55015 -156.64967)" width="100%" x="532.01239" xlink:href="#a" y="726.20312"/><use height="100%" transform="matrix(.35277779 0 0 .35277779 22.55015 -156.64967)" width="100%" x="538.09052" xlink:href="#a" y="734.20343"/><use height="100%" transform="matrix(.35277779 0 0 .35277779 22.55015 -156.64967)" width="100%" x="523.0069" xlink:href="#a" y="742.20367"/><use height="100%" transform="matrix(.35277779 0 0 .35277779 22.55015 -156.64967)" width="100%" x="512.80017" xlink:href="#a" y="750.20398"/><use height="100%" transform="matrix(.35277779 0 0 .35277779 22.55015 -156.64967)" width="100%" x="533.22479" xlink:href="#a" y="758.20428"/><use height="100%" transform="matrix(.35277779 0 0 .35277779 22.55015 -156.64967)" width="100%" x="507.22699" xlink:href="#b" y="778.87097"/><use height="100%" transform="matrix(.35277779 0 0 .35277779 22.55015 -156.64967)" width="100%" x="535.33948" xlink:href="#b" y="785.87085"/><use height="100%" transform="matrix(.35277779 0 0 .35277779 22.55015 -156.64967)" width="100%" x="542.73389" xlink:href="#b" y="792.87073"/><use height="100%" transform="matrix(.35277779 0 0 .35277779 22.55015 -156.64967)" width="100%" x="186.6324" xlink:href="#c" y="601.995"/><use height="100%" transform="matrix(.35277778 0 0 .35277778 349.92515 64.414617)" width="100%" x="89.009399" xlink:href="#d" y="235.96809"/></g><use fill="#576166" height="100%" transform="matrix(.35277778 0 0 .35277778 349.92515 64.414617)" width="100%" x="513.9624" xlink:href="#d" y="235.96809"/><use fill="#576166" height="100%" transform="matrix(.35277778 0 0 .35277778 349.92515 64.414617)" width="100%" x="501.61349" xlink:href="#d" y="247.9651"/><use fill="#576166" height="100%" transform="matrix(.35277778 0 0 .35277778 349.92515 64.414617)" width="100%" x="503.95441" xlink:href="#d" y="247.9651"/><use fill="#576166" height="100%" transform="matrix(.35277778 0 0 .35277778 349.92515 64.414617)" width="100%" x="519.40741" xlink:href="#d" y="259.9621"/><path d="m686.52111 116.78184c-.003-.0841-.006-.17088-.007-.26321-.006-.19568-.01-.43546-.01-.70969v-1.5682c0-.2136-.0372-.40101-.11162-.58154-.0772-.17914-.19293-.33073-.34865-.46302-.15158-.13091-.34037-.23289-.56775-.30592-.22738-.0785-.49334-.113-.80064-.113-.25631.003-.50574.0276-.74001.0772-.23426.0524-.45475.11989-.66834.21084-.18604.0827-.2136.15847-.2136.15847l.17914.74414c.0441-.0896.0978-.12677.17088-.15571.18879-.0703.36794-.11852.53606-.15572.20808-.0482.41479-.0703.62149-.0703.16812 0 .3142.0207.42719.062.12127.0427.21498.0978.28801.17088.0744.0648.12678.14745.15986.23702.0344.0923.051.18603.051.28387v.16813c-.11575-.0331-.25218-.0593-.40376-.0841-.15158-.022-.31695-.0345-.49747-.0345-.24805 0-.46991.0345-.67386.0978-.20533.0648-.38034.1571-.52641.27975-.1447.12402-.25907.27698-.34176.45475-.0827.17639-.12264.37482-.12264.6022 0 .20119.0358.38999.10473.55122.0717.16536.1695.30316.28939.4203.12402.11989.27285.21084.4451.27009.17226.0593.35967.091.55397.091.14745 0 .2825-.0152.40515-.051.12953-.0345.24804-.0799.34864-.13643.10335-.0537.19293-.113.27423-.17639.0813-.0648.15021-.12678.20395-.18741h.0193l.0455.44373h1.08727v-.011c-.14056-.0276-.17225-.19017-.17777-.25631m-1.03353-.87368-.15847.15159c-.0648.051-.13091.10059-.20946.1378-.0758.0455-.16123.0785-.25494.10335-.0896.0289-.18879.0413-.29214.0413-.0813 0-.16261-.01-.23565-.0331-.0758-.022-.14056-.0551-.19568-.10335-.0579-.0455-.0992-.10198-.13229-.17364-.0331-.0716-.051-.15296-.051-.24804 0-.20395.0717-.35416.21635-.45475.14608-.0979.34176-.14608.59256-.14608.12678 0 .25632.004.3831.0262.12264.0179.23702.0413.33761.062zm-3.74688-2.61827c-.17088-.17088-.36105-.30179-.58429-.38309-.21773-.0854-.44648-.12954-.67662-.12954-.11713 0-.23013.01-.33624.0317-.10611.0179-.20395.0455-.2949.0813-.0923.0331-.17776.073-.25769.11713-.0758.0413-.14607.0868-.21222.13229h-.0124c.006-.0592.008-.14194.008-.24529.004-.10335.004-.21773.004-.34037v-1.73495h-.004c-.01-.23014-.11851-.29766-.11851-.29766l-1.12862.12678c.1447.0662.22187.20257.23289.30868v5.11528c0 .16398-.004.33762-.007.51814-.004.18466-.01.33486-.0152.45889h.84198l.0992-.44373h.0152c.0386.0482.0896.10473.15434.17087.0661.0606.14194.12127.2384.17915.0937.0551.20533.10335.33349.14469.12402.0372.26734.0565.42719.0565.22049 0 .44097-.0427.66421-.13504.22187-.0896.41755-.22876.59394-.41617.17501-.18742.32108-.42582.42857-.7152.10886-.28801.16536-.62012.16536-.99633 0-.35002-.0524-.66559-.15158-.93568-.10198-.27148-.23427-.49472-.4079-.66835m-.55948 2.22691c-.0441.17088-.10749.31557-.19155.43959-.0854.12127-.19293.21911-.31557.28801-.12265.0648-.26734.0978-.43546.0978-.0978 0-.18879-.0124-.27561-.0413-.0854-.0248-.16674-.0579-.2384-.10335-.0703-.0372-.14056-.0868-.19844-.1378l-.14745-.13919v-2.00091c.1254-.0978.26734-.17776.42168-.24253.15296-.0579.30455-.0854.45613-.0854.10611 0 .21773.0165.32935.0524.11162.0317.21635.0978.31833.19706.10197.10059.1819.24529.24667.42994.062.18604.0937.41341.0937.67524 0 .20946-.022.3955-.0634.57051m34.35586-1.59026c.11714-.10748.24805-.18741.39688-.23978.14745-.0496.30592-.0744.46991-.0744.15158 0 .29628.0124.43133.0455l.0124.001c.0896.0179.19844.0469.27975.0937.0772.0289.13091.0689.17639.15709l.16397-.78961s-.04-.0951-.20671-.1571c-.1378-.0565-.2949-.10473-.46716-.13642-.16812-.0331-.35139-.0496-.53743-.0496-.24943 0-.50299.0441-.75792.12954-.25769.0813-.49196.21359-.69453.39274-.20395.17914-.36932.41203-.50023.70142-.12954.28663-.19293.62976-.19293 1.02801 0 .35967.0538.67249.16537.94396.11438.26458.26734.48783.46302.66284.19293.17363.42168.30592.68213.39136.26183.0868.54157.12953.84198.12953.20808 0 .40514-.0193.59256-.0565.18465-.0414.34313-.0868.46991-.14332v-.82958c-.13092.0565-.27699.1006-.42582.13918-.15571.0386-.32383.0565-.50987.0565-.20808 0-.38999-.0358-.54433-.10611-.15296-.0703-.27698-.16398-.38033-.27836-.0978-.11438-.17226-.2508-.22462-.41479-.051-.16123-.0772-.33624-.0772-.51952 0-.2508.0331-.46853.10197-.64492.0675-.1819.1571-.32522.27147-.43271m9.25077 2.34267c-.11713.0234-.23426.0317-.35415.0317-.2508 0-.42168-.0648-.5085-.19706-.0496-.0799-.073-.19844-.073-.35829v-2.02709h1.20165v-.84198h-1.20165v-1.16307h-.001c-.01-.23978-.12403-.2949-.12403-.2949l-1.12447.12954c.14882.062.2067.19017.23151.30592v1.02251h-.78135v.84198h.78135v2.16076c0 .26045.0317.46716.0965.61874.0923.21222.24942.37621.46991.48783.22186.11437.50987.17087.85714.17087.13918 0 .29076-.008.44924-.0317.15434-.0193.29352-.0482.40928-.0786v-.84611c-.10336.0317-.21498.0565-.32798.0689m-15.39544-3.41065-.94396.1819c.14883.0662.22738.26597.22325.54846v1.75287c0 .2384-.0331.42857-.0978.56224-.0675.14194-.16537.24529-.29628.31419-.12954.0703-.28388.10473-.46991.10473-.17364 0-.32522-.0303-.45062-.091-.12816-.0648-.226-.15847-.29628-.28525-.0372-.0758-.0689-.16261-.091-.26459-.0179-.10197-.0262-.22186-.0262-.3638v-1.85484c.0165-.39963-.29628-.60496-.29628-.60496l-.94671.1819c.12954.0579.20809.21773.22049.45062v1.93615c0 .18879.0179.36242.0579.51538.0358.15572.0882.30042.16261.43133.14056.23702.34726.42581.62425.56775.27698.14469.62287.21497 1.04179.21497.22187 0 .42168-.022.59945-.0648.1819-.0427.34038-.1006.48507-.17364.1378-.0772.26321-.16674.3638-.2756.10887-.10887.19431-.226.26045-.35692.11851-.23288.17501-.51952.17501-.85851v-1.96371h-.001c.0179-.39963-.29766-.60496-.29766-.60496m-4.4924 1.00597c-.0152-.0827-.0303-.15847-.0482-.22048l-.0744-.18053c-.11161-.20946-.26733-.37758-.46577-.50023-.20533-.12264-.45613-.18327-.75379-.18603-.15709 0-.30592.0179-.44648.0551-.13781.0372-.26872.091-.38448.15572-.12402.0675-.23288.14469-.33486.23564-.0965.0923-.18465.19293-.26871.30731h-.0165c-.11575-.25907-.28112-.44924-.49747-.57051-.22324-.12265-.46853-.18328-.74414-.18328-.15572 0-.30455.0179-.44097.0593-.13505.0386-.26734.0896-.38172.15159-.11851.0634-.22186.13642-.31281.21635-.0937.0854-.16812.1695-.226.25769h-.0124c.0207-.40652-.27699-.61047-.27699-.61047l-.87773.18053c.14332.0689.21635.27836.20808.57464v3.44234h1.19614v-.011c-.1502-.0317-.17225-.22462-.17363-.27285v-2.58795c.0661-.0813.14194-.1571.22875-.22462.0841-.0689.17226-.12265.26734-.17088.091-.0482.1888-.0841.28112-.11024.0923-.0248.18742-.0358.27148-.0358.17363 0 .30316.04.39274.11851.0937.0758.15296.17639.1819.30454.0152.0579.0248.12816.0303.20533.005.0758.0124.15986.0124.24529v2.53973h1.01699v-2.87183c.0675-.0813.14194-.1571.22876-.22462.0896-.0689.17363-.12265.27009-.17088.0896-.0482.18604-.0841.27974-.11024.0951-.0248.18879-.0358.27699-.0358.16398 0 .2949.04.38585.11851.091.0758.15296.17639.18741.30454.011.0579.0221.12816.0289.20533.004.0758.008.15986.008.24529v2.53973h1.01837v-2.5852c0-.1254-.003-.2384-.007-.33624-.008-.1006-.0152-.18604-.0276-.26321m-8.60584-.98805h-1.26229l-1.5875 1.69499h-.0207v-3.7524c0-.22049-.12541-.30455-.12541-.30455l-1.1231.13229c.14883.0634.20395.18604.22876.30593v6.09644h1.19751v-.011c-.15434-.0317-.17363-.21635-.17776-.27009v-1.65916h.0152l1.62884 1.94028h1.23748l-1.84244-2.21175zm16.84376 2.01193c-.11438-.0841-.24254-.15158-.38585-.19981-.14332-.0496-.28664-.0937-.42857-.12678-.091-.022-.18742-.0455-.28526-.0703-.0978-.0248-.19154-.0565-.27836-.0923-.0882-.0386-.15985-.0868-.20946-.14607-.051-.0593-.0758-.13918-.0758-.23565l.0345-.15296.113-.13505.0992-.0579c.0827-.0358.30179-.11714.70556-.091.0799.006.16536.011.25769.0262.13091.0124.25218.0413.33349.0923v-.001l.0661.0565.007.011.0317.0565.16536-.75655s-.0482-.11575-.27009-.1695l-.007-.001-.022-.008h-.004c-.0703-.0165-.1447-.0317-.22463-.0455-.22462-.0413-.46164-.0634-.7152-.0634-.21084 0-.40927.0276-.59807.0813-.19017.0551-.35415.13918-.49609.24804-.14332.11438-.2508.25632-.33624.42444-.0813.17363-.12402.37345-.12402.60358 0 .19017.0289.35002.0923.48231.0593.12954.14608.23841.24805.32522.10473.0868.226.15296.3638.20671.13781.0551.27975.10197.42995.14194.11851.0276.23013.0537.33762.0827.10749.0303.20395.0689.28801.10473.0813.0386.15021.0854.19706.14331.0537.0606.0785.12816.0785.21773 0 .0882-.0234.16123-.0717.22049-.0413.0648-.10749.113-.18603.1571-.0785.04-.17226.0689-.28113.0841-.10886.0207-.22737.0289-.35415.0289-.16123 0-.34038-.0124-.52641-.0441-.19017-.0289-.39826-.0882-.62288-.1695v.82131c.14056.0648.3142.11162.52228.15434.21222.0427.452.0648.71383.0648.26733 0 .51263-.0317.73173-.0854.22463-.0537.41479-.13918.57465-.25632.15985-.11713.28387-.26044.37207-.43546.0868-.17776.13367-.38171.13367-.61598 0-.21635-.0372-.39136-.11163-.53192-.0744-.14056-.16398-.25218-.28249-.34313m-21.88325-1.20165c-.0482-.15848-.11989-.29766-.20947-.41204-.091-.11713-.19568-.21084-.31143-.28663-.12127-.073-.25081-.12402-.39137-.15985-.14194-.0345-.28939-.051-.44097-.051-.15985 0-.31006.0179-.45062.0593-.14469.0386-.27561.0896-.39549.15158-.11163.0634-.22049.13643-.31006.21635-.0937.0854-.16812.1695-.22738.25769h-.004c.0151-.40652-.27975-.61047-.27975-.61047l-.87781.18053c.11852.0537.1888.21773.20671.44097v3.57601h1.19338v-.011c-.14056-.0289-.17087-.1943-.17363-.25631v-2.60449c.14056-.17639.30179-.31282.48231-.40377.18328-.0965.37069-.1378.57051-.1378.14883 0 .27285.0276.37896.0827.10611.0579.18603.15296.23565.2825.0234.062.0386.13229.0496.20946.007.0841.01.17914.01.29214v2.54662h1.01975v-2.70509c0-.13918-.004-.25769-.0152-.3638-.01-.10336-.0289-.2012-.0593-.29353m30.37058 3.07303c-.001-.0813-.004-.16812-.005-.26183-.006-.19706-.01-.43408-.01-.70969v-1.5682c0-.21084-.0386-.40101-.11438-.58291-.0744-.17502-.18879-.33073-.34589-.45889-.15572-.13229-.34037-.23289-.57188-.30868-.22462-.0758-.49059-.113-.79651-.113-.25632.003-.50436.0303-.74001.0758-.23289.0524-.46026.12265-.66834.2136-.18604.0813-.21223.15847-.21223.15847l.18191.7469c.0372-.091.0951-.12816.16536-.15848.19017-.0648.36931-.12126.53744-.15709.20808-.0469.41203-.0703.62149-.0703.16674 0 .31006.022.42995.062.11713.0413.21222.1006.28525.16812.073.0689.12541.15296.15985.24253.0317.0896.0482.18191.0482.28112v.16812c-.11438-.0317-.24667-.0606-.39963-.0841-.15434-.0193-.31695-.0331-.50023-.0331-.24529 0-.46853.0331-.67662.0965-.19981.0648-.3762.15848-.5209.28112-.14745.12541-.26183.27423-.34313.452-.0841.17915-.12264.38034-.12264.60496 0 .20119.0372.38447.10611.54984.0703.1695.16536.30454.29076.42305.12127.11714.2701.20395.44097.26872.17226.0593.35692.091.55673.091.1447 0 .28112-.0179.40514-.0537.12816-.0344.24392-.0772.34589-.13367.10336-.0551.19844-.11576.27423-.17639.0827-.0662.15021-.12816.20809-.18879h.0179l.0441.44373h1.08452v-.006c-.14194-.0358-.17088-.19569-.17639-.26321m-1.03491-.86954-.15434.14883c-.0634.051-.13504.0992-.20808.14056-.0799.04-.16536.0772-.25769.10335-.0937.0262-.1888.0413-.29215.0413-.0827 0-.15985-.0124-.23289-.0331-.0799-.0248-.14056-.0593-.20119-.10473-.0537-.0469-.0992-.10611-.13229-.17226-.0317-.0717-.0469-.15709-.0469-.2508 0-.19982.073-.35416.21636-.45062.14194-.10335.34037-.15158.59255-.15158.12816 0 .25632.011.38034.0262.12678.0207.24116.04.33624.0648zm0 0" fill="#211e1e"/><path d="m689.97585 103.26604c.28664 0 .53193-.24116.53193-.52917 0-.28663-.24805-.52365-.53193-.52365-.28663 0-.53054.23702-.53054.52365.001.28801.24391.52917.53054.52917m-1.36288 0c.29629 0 .53882-.24116.53882-.52917 0-.28663-.24253-.52365-.53882-.52365-.28938 0-.53054.23702-.53054.52365 0 .28801.24116.52917.53054.52917m18.23421 2.78915c0-.54295-.12403-.98805-.36105-1.3367v-.003l-.0152-.0207-.005-.007-.0193-.0289c-.31281-.40239-.78961-.59945-1.39595-.59945h-.007c-.62976 0-1.11621.20671-1.42489.62839-.25355.35277-.38309.80753-.38309 1.36977v.28801c-.003.57464-.26596 1.00872-.78548 1.00872h-2.30822v-.29214l.001.003.003-1.757-.004-.0413c-.018-.22875-.12965-.31281-.14757-.32659l-.007-.001-.01-.008-1.2168.13918.21635.0937c.11575.0482.17639.15985.18328.23978v1.7253l-.004.0179-.0675.12264c-.0854.0675-.11438.0799-.17088.0854h-1.43591v-1.69912c-.0124-.2384-.1323-.31833-.15572-.32797l-.006-.003-.007-.007-1.21267.13643.2136.0978c.11437.0482.17638.1571.18327.23702v.8723l.001.001v.44924l-.006.04-.0661.11713c-.0854.0675-.11989.0799-.17502.0854h-1.41524v-1.305c-.0166-.23564-.12954-.31419-.15021-.32384l-.005-.004-.011-.007-1.21819.13918.21774.0923c.11575.0482.17776.16123.18741.24115v.93845l-.007.0262-.0689.11714c-.0799.0675-.113.0799-.17088.0854h-2.87459c.22462-.38447.31557-.8971.34038-1.3174l.004-.15985v-.001c0-.50712-.13919-.83785-.37621-1.16858-.31569-.45062-.80903-.67524-1.44982-.67524h-.007c-.63252 0-1.12448.22462-1.45383.67524-.2384.34451-.36518.68351-.36242 1.19751v.007l.001.10611c.01.40928.0813.93845.32246 1.3367h-2.81119c.003-.1006.006-.19706.006-.28939 0-.8158-.1378-1.40009-.40514-1.83968-.43547-.70418-1.10382-1.19338-1.97474-1.19338h-.007l-.062.001c-1.00184.0262-1.79145.51676-2.37436 1.36563v-2.75608h-.01c-.0289-.19705-.12264-.26596-.14194-.27423l-.006-.003-.01-.011-1.21543.14331.21498.0923c.11575.0496.17639.15848.18466.23703l-.0193 4.50756h-.73863c-.0744-.008-.18465-.0689-.23288-.18328l-.0386-.0909-.0579-.13092-.11575 1.1424.006.0165c.0124.0179.0813.11438.28112.14332v.007h24.2452c.57464 0 1.01975-.15296 1.3243-.452.31832.2949.73449.452 1.24161.452h.011c.62425 0 1.10518-.21498 1.41524-.63941.25494-.35278.37896-.99357.38172-1.54203zm-22.84236.98116c0 .11025-.0207.18879-.04.29904h-3.87918c.14056-.52504.42444-.9288.82683-1.40009.50849-.58015 1.04317-.98116 1.58888-.98116h.062c.46991.0276.83922.28525 1.09278.64216.23427.40515.34865.88057.34865 1.44005m5.25445.32246c-.56913 0-.88883-.59393-.89159-1.38492.0124-.78686.3266-1.0735.89297-1.08176.55535.008.87368.2949.88195 1.08176-.001.79099-.3142 1.38492-.88333 1.38492m15.78681.0234c-.54019 0-.82407-.53192-.82682-1.32429.01-.791.27285-1.13551.82682-1.14102.54708.006.81166.35002.81855 1.14102-.003.79237-.28663 1.32429-.81855 1.32429" fill="#211e1e"/><path d="m724.07128 108.90359c.2949 0 .54432.2384.54432.53468 0 .29766-.24667.54157-.54432.54157-.28802 0-.53606-.24391-.53606-.54157 0-.29628.25218-.53468.53606-.53468m-8.54936-1.22783c-.31419.38861-.79788.5774-1.41248.57878h-3.40651c-1.00459 0-1.70601-.65733-1.70601-1.62884v-1.02113h.001v-.17777c-.007-.0717-.0661-.17914-.17777-.22599l-.26321-.11438 1.27193-.14745.0124.011.007.004c.0221.011.12403.0854.15159.27561h.004v.0331l.006.0413h-.006v.0289l.001.0138v.0744h-.001v1.1355c.011.55673.24943.79238.81718.80202l3.23425.006c.57603-.0152.81167-.25081.82407-.80753v-4.15892c-.004-.0744-.062-.1819-.17501-.23014l-.26183-.11024 1.27055-.14469.01.007.01.004c.0193.01.11988.0827.15158.27561h.003v.0345l.004.0372h-.004v4.01698c.0124.74001.32109 1.06522 1.0294 1.07073l1.95543.006c.57464-.0152.81167-.25494.82683-.84336v-.0455h-.001v-1.04868c-.007-.0717-.0661-.17915-.17639-.226l-.26596-.11438 1.27468-.14745.0124.011.008.004c.0165.011.11299.0758.14745.2508l.007-.003v.0455l.003.0331h-.003v1.26366c.0124.56913.24804.80477.81579.81442l1.81212.006c.56638-.0152.80064-.25494.81442-.84336v-2.00092c-.003-.0758-.0634-.1819-.17501-.22737l-.26458-.113 1.27055-.14607.0138.006.008.01c.0207.007.13092.0854.15434.3073l-.0358.003h.0358v.17088l.001-.001v2.05879c0 .4768-.16123.8847-.48231 1.19614-.31971.31143-.75792.47129-1.28709.47129h-1.92374c-.51539 0-.93293-.15297-1.2485-.44924-.31282.29627-.73588.4451-1.26229.44924h-2.11259c-.57602 0-1.02388-.19017-1.31741-.57878m-4.59575-2.02158v-.01l.006-.0124.004-.01c.011-.022.0717-.0923.22462-.10059h.62288v-.091c0-.6463.41892-1.18098 1.11483-1.18098.27698 0 .55121.12816.78135.36931l.0138.0165.0896.0331h.003l.0317-.006.28526-.0717-.63941.62012h-.0386c-.0358 0-.10197-.0124-.17501-.0827l-.0372-.04-.003-.007-.0248-.0276c-.11436-.12816-.22047-.18053-.34312-.18053-.28801.01-.39412.12954-.40514.48645v.16123h1.34496v.62701h-2.54799l-.10473.0799-.11024.26459zm9.25353-1.40973c-.29766 0-.54433-.24943-.54433-.54571 0-.2949.2508-.53605.54433-.53605.29214.001.54294.24115.54294.53605 0 .29628-.2508.54571-.54294.54846" fill="#211e1e"/><path d="m665.23318 105.39924c.28939.0978.565.2136.8282.34727l.1571.0813c.39825.2136.76481.46302 1.10105.73588.33486.27147.64217.56775.92191.88056.19843.22049.38447.44924.55535.68213.18741.25218.35966.51125.51814.76757.56362.91915.94947 1.84244 1.20165 2.56866.15296.4396.25494.80891.3197 1.05971.0579.22187.0827.35278.0827.35278l.001-.004.01-.0455c.008-.0386.0193-.0992.0358-.17914.0165-.0854.0358-.19293.0565-.32109l.0234-.1695c.0179-.11713.0344-.24529.0482-.38447.011-.0923.0221-.19017.0317-.29214.007-.0854.0138-.17364.0207-.26459.006-.0689.01-.13918.0152-.20946.0151-.27009.0262-.56499.0262-.87643v-.10197c-.003-.38999-.0193-.80891-.0579-1.24851-.0661-.72347-.19155-1.50344-.40515-2.30959-.0606-.22462-.12678-.45337-.20257-.68075-.0703-.2136-.14607-.42444-.22875-.63665-.11576-.30042-.24805-.59945-.39412-.89986-.14883-.30041-.31144-.60221-.49196-.89848l-.073-.11714c-.11989-.19292-.24667-.38309-.38309-.57326l-.13505-.18604-.15296-.20119c-.0854.0606-.1695.12127-.25356.18328-.113.0827-.22462.16399-.34038.24805-.13505.0978-.26872.19706-.40514.2949-.20533.14882-.40928.29903-.61323.44924-.10749.0772-.21497.15434-.32108.23289-.25632.18603-.51263.37344-.77032.5581-.24116.17915-.4837.35554-.72623.53192-.14056.10198-.27974.20258-.4203.30455l-.19568.14332c.11024.0276.21773.0551.32521.0868.0978.0276.19431.0579.29077.091" fill="#ee3f42"/><path d="m666.8758 109.70148c.30455-.35416.57189-.62701.75654-.80753.16261-.15848.26045-.24391.26459-.24667l-.004.001-.0427.0124c-.0386.0124-.0965.0317-.17501.0592-.0813.0276-.18465.0648-.30592.113l-.16123.062c-.10749.0455-.226.0937-.35554.1502-.0854.0372-.17501.0758-.26733.11989-.0772.0358-.15848.073-.24116.11438l-.18879.091c-.26596.13505-.55535.29077-.85852.46715-.33762.19569-.69178.42031-1.05282.67662-.59394.41617-1.20716.91364-1.79834 1.50206-.16537.16675-.32797.33762-.48783.51952-.14883.16399-.2949.33487-.43821.51401-.19982.2508-.39412.51539-.58016.791-.18741.27836-.3638.5705-.53192.87643l-.0648.11851c-.10748.20119-.20946.4079-.30592.61874-.0317.0703-.062.14194-.0937.21084-.0331.0772-.0661.15709-.0992.23426.0965.0427.19293.0841.28663.12678.12816.0565.25632.11438.38448.17088.15434.0661.30592.13505.45888.20395.23151.10197.46302.20533.69453.3073.12127.0538.24116.10611.36381.15985.28939.12954.57877.25908.86954.38723.27423.12265.54984.24392.82131.36656.15985.0703.31695.13918.47542.20946.0744.0331.14745.0648.22187.0992-.0317-.10886-.062-.21773-.0896-.32659-.0234-.0978-.0455-.19706-.0661-.2949-.0579-.30179-.0937-.59945-.11162-.89159l-.008-.17777c-.0138-.452.0179-.89297.0868-1.32154.0661-.42719.17087-.8406.30041-1.23886.0923-.28249.19706-.5581.31281-.82268.12678-.28801.26321-.565.4079-.83096.51401-.94809 1.12035-1.7446 1.62333-2.32475" fill="#ee3f42"/><path d="m675.46787 116.67573c-.0152-.13918-.0289-.27836-.0455-.41755-.0165-.16536-.0344-.3321-.051-.49885-.0276-.25355-.0551-.50436-.0813-.75654-.0138-.13091-.0262-.2632-.0427-.39412-.0331-.31557-.0661-.63114-.0992-.94809-.0317-.29765-.0634-.59669-.0951-.89297-.0179-.17363-.0372-.34588-.0551-.51676-.01-.0799-.0179-.16123-.0262-.24116-.0785.0813-.15709.16261-.23564.2384-.0758.0717-.14883.13918-.226.20671-.22875.19981-.46853.38034-.71382.54295l-.15021.0951c-.38447.2384-.78272.42995-1.18787.58704-.40376.15434-.81304.27148-1.22369.35829-.29077.062-.58154.10749-.86817.14056-.31419.0331-.62149.0551-.92466.062-1.07625.0289-2.06982-.0978-2.8236-.24392-.45889-.0868-.8282-.1819-1.07763-.2508-.20946-.0593-.33211-.1006-.34589-.10473l.003.001.0317.0317.1378.11989c.0661.0579.15021.12953.25081.21084l.13504.10611c.0923.0717.19569.14883.30731.23426.0758.0551.15572.11162.23702.17226.0717.0496.14469.0978.22186.1502l.17364.11714c.2508.16398.52916.33762.83371.51125.33762.19293.70831.38861 1.1107.57326.65732.30593 1.39733.58843 2.2021.80478.22462.0606.45613.11713.69178.16536.21773.0469.43821.0854.66283.12127.31833.0482.64493.0841.97703.10749.25356.0165.50988.0262.77171.0262h.0344c.073 0 .1447-.001.21911-.003l.13643-.003c.22737-.01.45613-.0234.68764-.0469.0772-.007.15296-.0152.23013-.0248.0827-.01.16674-.0193.2508-.0317-.011-.10336-.0221-.20671-.0331-.31006" fill="#ee3f42"/></g></svg>