<svg version="1.2" xmlns="http://www.w3.org/2000/svg" viewBox="0 0 1566 552" width="1566" height="552">
	<title>bn-ar-2022-english-1-pdf-svg</title>
	<defs>
		<clipPath clipPathUnits="userSpaceOnUse" id="cp1">
			<path d="m-3145.52-6259.27h5074.69v7173.07h-5074.69z"/>
		</clipPath>
	</defs>
	
	<g id="Clip-Path: Page 1" clip-path="url(#cp1)">
		<g id="Page 1">
			<path id="Path 14" fill-rule="evenodd" d="m954.7 248v66.9c0 37.9-33.2 40.5-44.3 40.9h-0.4c-7.7-0.4-26-1.7-36.2-14.9-10.7 13.2-29.4 14.5-36.7 14.9h-0.4c-7.7-0.4-26-1.7-36.7-14.9-10.6 13.2-28.9 14.5-36.6 14.9h-91.6c-10.7-0.4-44.3-3.4-44.3-41.3v-37.9l3-3.4h9.8l2.9 3.4v38.3c0 10.2 6 27.3 29 27.3h91.2c22.6 0 29-17.1 29-27.3v-104.3l2.5-3.5h10.3l2.9 3.5v104.3c0 10.2 6 27.3 28.6 27.3 23 0 29-17.1 29-27.3v-66.9l2.9-3.4h9.8l3 3.4v66.9c0 10.2 6 27.3 29 27.3 22.6 0 28.5-17.1 28.5-27.3v-66.9l3-3.4h10.3zm-15.8 124c0-1.7 1.3-3 3-3h9.8c1.6 0 3 1.3 3 3v10.2c0 1.6-1.4 3-3 3h-9.8c-1.7 0-3-1.4-3-3zm-368.6-161.9c0-1.6 1.4-3 3-3h10.2c1.7 0 3 1.4 3 3v10.2c0 1.7-1.3 3-3 3h-10.2c-1.6 0-3-1.3-3-3zm-73.3 0.4c0-1.6 1.4-3 3-3h9.8c1.7 0 3 1.4 3 3v9.8c0 1.7-1.3 3-3 3h-9.8c-1.6 0-3-1.3-3-3zm368.2 0c0-1.7 1.3-3 3-3h10.2c1.6 0 3 1.3 3 3v9.8c0 1.6-1.4 3-3 3h-10.2c-1.7 0-3-1.4-3-3z" fill="#6f298c"/>
			<path id="Path 15" fill-rule="evenodd" d="m463 248.5v91.1c0 37.9-33.7 43.5-44.3 43.5h-1.3l-3-3.4v-7.3l3-3.4h0.9c22.6 0 28.9-17 28.9-27.3v-3.4q-0.8 0.9-1.7 1.7c-5.9 4.3-12.3 7.3-20.4 9.4 0 0-3 0.9-4.3 0.9-1.3 0.4-4.2 0.4-4.2 0.4q-1.7 0-4.3 0c-19.2 0-34.1-12.4-34.5-29.4v-40.5c0-21.7 18.3-36.2 46.4-36.2h35.8zm-15.7 9.8h-22.6c-11.5 0-20 3-25.2 8.1q-6.8 6.8-6.8 17.9v32c0.9 14 8.5 21.7 22.2 21.7 1.7 0 3.8 0 5.9-0.4 13.7-2.6 22.6-9.8 26.5-20.9zm-92.9 28.1v66.4l-3 3.4h-10.2l-2.6-3.4v-64.3c0-10.2-6.4-26.8-28.1-27.2h-33.7v51.5c0 37.9-33.6 43.4-44.7 43.4h-59.2c-11.1 0-44.8-5.5-44.8-43.4v-64.3l3-3.4h10.2l3 3.4v66c0 10.2 5.1 28.1 27.7 28.1h59.2c22.6 0 29.4-17.9 29.4-28.1v-66l3-3.4h46.9c11.1 0.4 43.9 3.8 43.9 41.3zm-252.3 222.3c0 14.5-4.2 25.2-13.2 32.4q-11.5 9-31.9 9h-53.7l-3-3.4v-135.1l3-3h52c13.2 0 23.4 2.2 30.6 7.3 8.1 6.4 12.4 16.2 12.4 29.8q0 20.9-17.9 30.7c0.4 0 3.4 1.2 4.7 1.7 7.7 3.8 17 12.3 17 30.6zm-85.6-87.3l-1.3 1.3v45.6l1.3 1.3h40.5c16.6 0 26-9 26-23.9 0-17-8.1-24.3-27.7-24.3zm70.7 87.3c0-16.6-11.1-25.9-29.8-25.9h-40.9l-1.3 1.2v52l1.3 0.9h40.9c19.1 0 29.8-10.3 29.8-28.2z" fill="#6f298c"/>
			<path id="Path 16" fill-rule="evenodd" d="m160.5 445.7c-12.4 0-22.6 3-29.8 9.3-6 5.6-9.4 13.3-9.4 22.6l3 3h9.3l2.6-3v-0.8c0-6.8 3.4-17.9 24.3-17.9 17.5 0 23.8 5.9 23.8 23.8l0.5 5.6-0.9 0.8c-2.1-0.4-12.8-2.1-23.4-2.1-28.6 0-43.5 11.5-43.5 33.2 0 19.6 13.2 31.5 35.4 31.5 13.6 0 23.9-3.8 30.2-11.5 0.5-0.8 1.7-2.5 2.2-2.9l1.7 9.3 3 3h7.2l3-3v-63.9c0-25.9-11.9-37-39.2-37zm-6 92.8c-15.3 0-22.1-5.9-22.1-18.3 0-13.6 9.3-20 29.8-20 6.8 0 13.6 0.4 20.9 1.7l1.7 1.7v6.8c0 14.1-10.7 28.1-30.3 28.1zm761-92.8c-12.3 0-22.6 3-29.4 9.3-6.4 5.6-9.4 13.3-9.4 22.6l2.6 3h9.8l2.6-3v-0.8c0-6.8 2.9-17.9 23.8-17.9 17.9 0 24.3 5.9 24.3 23.8v5.6l-0.9 0.8c-2.1-0.4-12.3-2.1-23.4-2.1-28.1 0-43 11.5-43 33.2 0 19.6 13.2 31.5 35.3 31.5 13.7 0 23.5-3.8 29.9-11.5 0.8-0.8 2.1-2.5 2.1-2.9l2.1 9.3 3 3h7.3l2.5-3v-63.9c0-25.9-11.5-37-39.2-37zm-5.5 92.8c-15.4 0-22.2-5.9-22.2-18.3 0-13.6 9-20 29.8-20 6.4 0 13.7 0.4 20.5 1.7l1.7 1.7v6.8c0 14.1-10.2 28.1-29.8 28.1zm-611.9-82.2c-6.4-7.2-15.8-10.6-27.3-10.6-11.9 0-22.1 4.2-29.4 11.9-1.2 1.3-2.5 3.8-2.5 3.8l-2.1-11-2.6-3h-7.7l-2.5 3v96.2l3 3h9.3l3-3v-54.1c0-22.1 10.2-33.6 29.8-33.6 15.4 0 23.9 9.8 23.9 27.7v60l3 3h9.4l2.9-3v-60c0-12.8-3.4-23.5-10.2-30.3zm112.9 83.1l-37.5-47.3-0.4-0.4 34.1-34.1v-7.2l-2.6-3h-7.6l-49.5 49.8v-86l-2.5-3h-9.4l-3 3v135.4l3 3h9.4l2.5-3v-27.7l1.7-3.4 13.7-13.6 35.3 45.2 2.6 2.5h7.7l2.5-2.5zm182.4-116.8c0 1.7 1.3 3 3 3h8.9c1.7 0 3-1.3 3-3v-8.9c0-1.6-1.3-3-3-3h-8.9c-1.7 0-3 1.4-3 3zm-0.4 123.5c0 1.7 1.3 3 3 3h9.3c1.7 0 3-1.3 3-3v-96.2c0-1.6-1.3-3-3-3h-9.3c-1.7 0-3 1.4-3 3zm119.7-9.8h-64.8l61.4-72.8 1.7-4.3v-8.9l-2.6-3h-73.3l-2.1 2.6v7.6l2.1 3h58.8l-60.9 72.9-2.1 4.2v9l2.5 2.9h79.3l2.6-2.5v-7.7zm148.7-88.6h-8.1l-2.2 2.6-23.4 78.4-23.4-77.6-3-3.4h-10.7l-3 3.4-23 77.6-23.4-78.4-2.6-2.6h-8.1l-2.5 2.6v7.6l28.1 88.6 3.4 3.4h10.7l3-3.4 22.5-77.5 23.9 77.5 3 3.4h10.6l3-3.4 27.7-88.6v-7.6zm-294.8-39.2h-9.4l-2.6 3-0.4 114.1-77.5-114.1-3-3h-13.2l-3 3v135l3 3.4h9.3l2.6-3.4v-115l78.4 115 2.6 3.4h13.2l2.9-3.4v-135zm163.7-131.2h-13.7c-5.5-0.5-9.3-4.7-9.3-10.2 0-5.6 4.6-9.8 9.8-10.3h9.8l2.5-2.5v-6.8l-2.5-2.6h-11.1c-11.5 0.9-20.5 10.7-20.5 22.2q0 5.1 2.6 10.2h-4.3l-2.1 2.5v7.3l2.1 2.5h36.7l2.1-2.5v-7.3zm-146.2-32.3h-10.2l-3 3.4v66.8c0 10.3-5.9 27.3-28.5 27.3-22.6 0-28.6-16.6-29-26.8v-67.3l-3-3.4h-9.8l-3 3.4v93.7c0 9.8-5.9 26.8-28.5 26.8h-0.9l-2.9 3.4v7.3l2.9 3.4h0.9c9.8 0 39.6-4.7 43.9-35.4 10.2 7.3 23 8.1 29 8.1h0.4c11.1 0 44.7-3.4 44.7-41.3v-66zm752.1-245c-17.9 0-229.3 75.9-229.3 247.5v148.7l153-150v-9.3c0-59.2 62.6-83.5 75-85.2 0.4 0 2.1 0 2.5 0 12.4 1.7 75.5 26 75.5 85.2v163.5l-153.4 151.3h305.9v-304.2c0-171.6-211.3-247.5-229.2-247.5z" fill="#6f298c"/>
			<path id="Path 17" d="m1412.3 400.1l-153.4 151.6h-152.5l152.5-151.6h0.5z" fill="#c0a6c5"/>
			<path id="Path 18" d="m1259.4 245.9h152.9v154.2h-152.9z" fill="#ffc709"/>
		</g>
	</g>
</svg>