<svg version="1.2" xmlns="http://www.w3.org/2000/svg" viewBox="0 0 1532 899" width="1532" height="899">
	<title>First_Abu_Dhabi_Bank_Logo-svg</title>
	
	<g id="#00468cff">
		<path id="Layer" fill-rule="evenodd" d="m777 24c6.8-5.8 3.2-18.8 13.6-21 7.2-2 11.4 4.7 14.9 9.6q-3.6 1.4-7.2 3c-1.3-1.8-3.9-5.5-5.2-7.3-2.3 4-3.8 8.5-4.7 13 5.3 0.1 10.6 0.2 15.9 0.3 0 1.7-0.1 5.1-0.1 6.8-9 0-17.9 0-26.9-0.1-0.1-1.1-0.2-3.2-0.3-4.3zm-617.4 6.6c0.4-6.3 0.6-15.4 8.6-16.8 6.4-2.2 11.8 2.4 14.6 7.7-1.7 1.9-3.6 3.6-5.4 5.4-1.7-2-5-6-6.7-8.1-1.8 4.1-3.4 8.2-4.8 12.4 6.9 1.1 17.6-2.6 18.1 7.7-9.4 0.5-18.8 0.4-28.2 0.5-0.4-1.3-1.2-4-1.6-5.3 1.4-0.9 4.1-2.6 5.4-3.5zm-113.9 5.6q6.6 0 13.2 0c0.1 29.4 0 58.9 0 88.3 1 13.3-9.8 25.2-22.3 28.1-16.3 4.6-35-8.4-35.9-25.4-0.5-12.3-0.1-24.6 0-36.9q6.7 0.1 13.4 0.2c0.3 11.9-0.6 24 0.5 35.9 1.3 10.3 14.7 16.9 23.4 10.6 6.4-3.7 8-11.7 7.7-18.5 0-27.4-0.2-54.8 0-82.3zm147.8-0.1q6.9 0.1 13.8 0.2c0.1 24.4 0.3 48.8 0 73.2 0.5 10.8-8.1 20.7-19 21.4-15.1 0.9-30.3 0.2-45.4 0.2 0-4.6 0-9.3 0-13.9 14.1-0.4 28.2 0.3 42.3-0.3 4.2 0.4 8.5-2.8 8-7.2 0.6-24.6-0.2-49.1 0.3-73.6zm27 0.1c4.4 0 8.9 0 13.4 0 1.5 31.6 0.5 63.3 0 94.9q-6.7 0-13.5 0c0.1-31.6 0-63.2 0.1-94.9zm312.7 0.4c4.3-0.5 8.6-0.6 12.9-0.8 0.5 14.2 0.2 28.3 0.2 42.4 10.6-7 21.9-15.3 35.3-13.9 12.3 0.2 22.6 11.1 24.3 22.9 1.2 9.3 1.3 18.9-0.1 28.2-1.9 9.8-11.9 16-21.4 15.8-15.4 0.3-30.7-0.1-46 0.1-12.5-0.2-25.3 1.3-37.3-3.1-6.5 2.3-13.2 3.5-20.1 3.1-34.5-0.4-69.2 0.5-103.7-0.4-0.9-0.6-2.6-1.8-3.5-2.4-2.7-9.6-0.6-20.1-1.1-30-0.5-6.4 1.9-15.1-4.8-19-5.2-4.5-13.9 0.9-13.8 7.3-0.8 18.2 0.6 36.4-0.5 54.5 0.1 6.9-8.7 5.5-13.3 6.1-14.2-0.1-28.4 0.9-42.5-0.8-17.5-2.4-29.2-23.1-22.3-39.3 2.8-9.7 11.8-15.3 20.1-20 2.4 3.9 4.8 7.8 7.2 11.7-5.3 3.9-12.4 6.9-14.4 13.8-3.7 9.2 4.3 19.7 13.9 20.3 12.5 0.7 25 0 37.4 0.2 0.5-16.4-0.6-32.9 0.5-49.3 1.4-17.4 25.1-26.3 37.8-14.6 13.8 11.8 7.4 31.9 8.7 47.7 35.4-0.3 70.9 0.5 106.3-0.5 0.5-16.4-0.5-32.8 0.4-49.2 4.1-1.5 8.6-1.3 12.8-0.1 2 16.4 0.4 33 0.9 49.5 8.3 0.3 16.8 0.3 25.2 0.3 0.4-26.8-1.4-53.8 0.9-80.5zm13.2 59c0 7.2-0.1 14.3-0.1 21.5 13.8-0.3 27.5 0.6 41.3-0.5 6.8-1.8 4.3-10.3 5-15.4 0.6-8.7-0.3-21.2-11.1-22.8-13.7-0.8-24.9 9.4-35.1 17.2zm237.3-59.5c4.4 0.6 10-1.3 13.6 1.4 0.8 31.2 0.2 62.4 0.2 93.6-4.5 0-9.1 0.1-13.6 0.1-0.7-31.7-0.4-63.4-0.2-95.1zm129.4 0.4c4.6-0.3 9.1-0.5 13.8-0.6 0.7 27-0.2 54 0.5 81 39.9 0.2 79.8 0.5 119.6-0.2 0.4-17-0.5-34 0.7-51 4.4 1 9.8-0.4 13.4 2.9 0.7 16.1 0 32.2 0.2 48.2 11.6 0.4 23.1 0.3 34.7 0.1 0.3-16.7-0.1-33.3 0.2-49.9 4.7 0.1 9.3 0.2 14 0.4-0.3 16.2 0.5 32.3-0.3 48.5-0.4 8.9-8.9 15.7-17.6 15.3-12.4 0.2-25.2 1.2-37-3-5.7 1.8-11.6 3.4-17.6 3.1-32.6-0.1-65.1-0.1-97.7 0-6.4 0.2-12.6-1.3-18.7-3.1-18 5.8-37.3 2.2-55.9 2.9-18.7 0.2-32.8-20.4-27-38 2.7-10.7 12.2-17.1 21.4-21.8q3.2 6.1 6.3 12.2c-5.5 3.9-13.6 7.1-14.4 14.8-2.4 8.7 4.7 18.6 13.8 18.6 15.8 0.5 31.5 0.1 47.3 0 0.6-26.8 0.1-53.6 0.3-80.4zm-345.5 3c4.2 0 8.4 0.2 12.5 0.3q0.1 6.8 0.1 13.6c-4.2 0.1-8.4 0.2-12.5 0.2q-0.2-7.1-0.1-14.1zm480 0.6q6.4 0 12.9 0-0.2 6.8-0.5 13.6c-4.1-0.1-8.1-0.2-12.2-0.3q-0.2-6.6-0.2-13.3zm-885.7 5.9q6.7-0.1 13.5-0.2c0.7 21.9 0.3 43.8 0.2 65.7-4.6 0-9.2 0-13.7-0.1 0-21.8-0.1-43.6 0-65.4zm715.3 30.5c-0.3-7.2 2-17.7 11.2-17.2 7.4-1.3 10.5 6.5 13 11.8-5.2-0.7-10.1-2.5-15.1-3.8-1.1 3.2-1.8 6.5-2.6 9.8 6.7 1.2 17.9-2.7 17.7 7.5-9.5 0.3-19 0.2-28.5 0.3-0.2-1.4-0.6-4-0.9-5.3 1.3-0.8 3.9-2.3 5.2-3.1zm-785.5-11c15.8-5.5 35.1 5 37.6 21.9 1.2 14.2 0.5 28.6 0.5 42.9 0.4 12.6-9.6 24.3-21.9 26.5-7.2 0.9-14.6 0.5-21.8 0.5-0.1-4.6-0.1-9.2 0.5-13.8 7-0.8 14.1-0.1 21.1-1.1 4.5-2.1 6.6-6.9 9.4-10.7-12.4-0.7-27.1 1.5-36.4-8.7-15.2-16.1-11.9-49.8 11-57.5zm2.9 14.1c-10.6 4.9-9.6 18.9-7.3 28.5 4.6 11.5 18.5 8.8 28.4 9.1-0.2-9.7 0.7-19.5-0.7-29.2-2.7-7.8-12.8-12.7-20.4-8.4zm525.9 4.9c5.1-19.9 33.2-27.2 47.4-12.6 13.3 11.1 8 30 8.9 45.1 26.7-0.1 53.4 0.3 80.1-0.2 0.7-16.4-0.4-32.9 0.6-49.3 4.1-1.2 8.5-1 12.7-1.1 0.3 16.4 0.5 32.9 0.1 49.4 0.3 8.8-8.2 15.6-16.5 15.3-25.3 0.4-50.7 0.1-76 0.1-1.9 7.7-4.6 15.6-11.3 20.4-9.4 8.2-22.7 5.3-34.1 5.3 0.5-4.6 1.1-9.2 1.7-13.9 6.7-0.1 13.6 0.6 20.4-0.6 4.8-1.7 7-6.9 9.9-10.8-12.2-0.7-26.8 1.8-36-8.3-11.1-9.6-9.5-25.7-7.9-38.8zm20.6-4.5c-10.1 5.5-8.8 19.3-6.3 28.6 4.9 11.1 18.5 8.2 28.2 8.6-0.1-9.2 0.5-18.5-0.4-27.6-1.7-9.1-13.6-14.8-21.5-9.6zm-147.5 62.3q6.4 0.1 12.9 0.3c-0.1 4.2-0.1 8.5-0.6 12.8-4.1 0.6-8.2 0.6-12.3 0.7q-0.1-6.9 0-13.8zm255.5 0.7c4.2-0.6 8.5-0.7 12.8-0.9 0 4.5 0 8.9-0.5 13.3-3 0.6-6 1.1-9 0.7-6.3-0.6-2.9-8.9-3.3-13.1zm339.2-0.6c4.4 0 8.8 0.1 13.2 0.3q0 6.4 0 12.7-6.6 0.1-13.2 0.1-0.1-6.6 0-13.1zm-785.9 16.9c4.3 0 8.7 0.1 13.1 0.2q0 6.5 0 13-6.6 0-13.1-0.1c0-4.4 0-8.7 0-13.1zm19.7 0.2q6.7-0.1 13.4-0.1c-0.1 4.2-0.1 8.4-0.6 12.7-4.2 0.4-8.5 0.4-12.7 0.5-0.1-4.4-0.1-8.7-0.1-13.1zm-321.6 77.7c99.3 0.1 198.5 0 297.8 0.1-0.1 29.5 0 59.1-0.1 88.6-63.7 0-127.3-0.1-191 0 0.1 37.4 0 74.8 0 112.1 56.6 0.1 113.2 0 169.8 0 0.7 27.1-0.4 54.1 0.7 81.1-56.8 0.2-113.7 0-170.5 0.1 0.1 67.8-0.1 135.6 0.1 203.4-35.6 0.1-71.2 0-106.8 0.1 0.1-161.8 0.1-323.7 0-485.5zm432 0.1c39.9-0.1 79.8 0 119.6 0 59.3 161.8 118.4 323.6 177.7 485.3-38.9 0-77.9 0.1-116.8 0-10.2-32.3-20.8-64.5-31.1-96.8-62.8-0.1-125.5 0-188.3-0.1-11.3 32.3-21.8 64.8-33.1 97-36.8-0.1-73.6 0.1-110.4-0.1 61.1-161.7 121.6-323.5 182.4-485.3zm-11 302.4c44.1 0.2 88.2 0 132.3 0-14-42.5-27.7-85.2-41.6-127.7-8.2-25.4-16.8-50.7-23.1-76.7-21 68.7-44.5 136.5-67.6 204.4zm342.4-302.4q70.9 0 141.7 0c36.3 0.2 73.3-2.3 108.6 7.7 35.9 9 70.7 31.2 86.1 66 18.5 42.4 12.7 97.1-20.4 130.9-12.7 13.3-29.2 22.1-46.6 27.3 25.8 6.3 51.2 18.4 68.1 39.4 24.2 29.1 28.1 70 20.6 105.9-6.8 33.7-28.6 63.6-58 81.1-33.6 20.5-73.7 26.7-112.5 27-62.5 0.1-125.1 0-187.6 0 0-161.8 0.1-323.6 0-485.3zm106.7 83.7c0.1 38 0.1 76 0.1 114 25.3-0.3 50.7 0.8 76-0.7 20.6-1.4 43.1-10.8 51.1-31.3 6.7-18.3 7.2-40.6-3.3-57.7-11.8-17.7-34.3-23.7-54.4-24.2-23.2-0.2-46.3 0-69.5-0.1zm0.1 187.3q-0.1 65.2 0 130.5c27-0.6 54.1 1.2 81-1.1 21.5-1.7 43.9-12.8 52.5-33.7 8.3-21.4 7.7-46.9-3.3-67.2-10.9-19.4-34-27.2-55.1-28.1-25.1-1-50.1-0.1-75.1-0.4zm-804.7 291.4c11.6-3.9 17.2 15.4 4.7 17.8-11.3 3.1-15.7-15.3-4.7-17.8zm274.9 2.3c5-0.1 9.9-0.1 14.9-0.1 0 10 0 20.1-0.2 30.2 12.4-7.3 31.3-6.6 38.9 7.1 8.7 16.8 7.6 41.9-9.3 53.3-13.2 8.9-29.9 5.3-44.2 1.4-0.1-30.7 0.1-61.3-0.1-91.9zm14.9 40.2c0.6 14.3-1.6 29.2 1.1 43.2 8.3 2.2 18.8 1.4 23.5-6.8 5.4-10 5.7-23.7-0.5-33.4-5.6-8.1-16.3-6-24.1-3zm234.8-40.3c4.9 0 9.7 0 14.6 0 0 10.2 0 20.4-0.1 30.5 8.3-3.9 17.8-6.7 27-4 8.3 2.1 13.4 10.7 13.4 18.9 0.5 16.5 0 33 0.2 49.5q-7.2 0-14.4 0c-0.4-16.5 1.1-33-0.7-49.4-2.6-11.4-17.5-9.2-24.9-4.2-1.3 17.8-0.2 35.8-0.5 53.6q-7.3 0-14.6 0c0.1-31.6 0.1-63.3 0-94.9zm129.2 0.1q7.4-0.1 14.9-0.1c0 10.1 0 20.1-0.2 30.2 9.6-5.2 22.3-7 31.8-0.5 10.5 7.3 12.9 21.1 12.3 33.1-0.3 12.1-6.6 24.7-18 29.9-12.9 6.2-27.6 2.7-40.8-0.9 0.1-30.5 0.1-61.1 0-91.7zm14.9 40.1q-0.1 21.8 0.1 43.6c7.3 0.3 16.1 2.3 21.9-3.7 8.5-9.3 8.3-24.3 3.3-35.2-5.1-9.4-16.9-8.1-25.3-4.7zm54.3-39.9c4.4-5.5 15.2-2.8 15.7 4.6 1.8 7.3-7.2 13.8-13.5 9.5-5.2-2.4-6.7-10.3-2.2-14.1zm266.1-0.3c4.8 0 9.6 0.1 14.5 0.1 0 18.5-0.1 36.9 0.1 55.4 7.8-9.8 15.6-19.6 23.6-29.2q8.1 0 16.2 0.2c-8.7 10.1-17 20.6-25.8 30.7 6.8 8.7 13.5 17.3 20.3 25.9 1.6 0.4 4.7 1.1 6.3 1.4 0 2.9-0.2 8.5-0.2 11.3-5.9-0.7-12.8 0-17.3-4.8-8.6-9.1-15.4-19.7-23.1-29.5-0.2 11.1-0.1 22.2 0 33.4q-7.4 0-14.7 0c0.2-31.6 0.1-63.3 0.1-94.9zm-1054.5 7.5c16.8 0 33.5 0 50.4 0q-0.1 6.4 0 12.8-17.9 0-35.7 0c0 7.8 0 15.6 0.1 23.4 10.5 0 21 0 31.6 0q0 5.9 0 11.9-15.9-0.1-31.7-0.1c0.1 13.1 0 26.2 0.1 39.4-5 0-9.9 0-14.9 0 0.1-29.1 0-58.3 0.1-87.4zm285.1-0.2c5.5 0.2 11 0 16.5 0.7 11.5 28.6 20.9 58.1 31.8 86.9q-8.4 0-16.7 0-3.3-9.9-6.5-19.8c-11.8 0.1-23.6 0.1-35.4 0.1-2.3 6.5-4.5 13.1-6.7 19.7-5.2 0-10.4 0-15.6 0 11.1-29.1 21.6-58.4 32.6-87.6zm-6.1 54.8c9.1 0.1 18.1 0.1 27.2 0-4.5-13.3-9.2-26.5-13-40-4.8 13.3-9.2 26.7-14.2 40zm229.4-54.6c20.1 0.8 45.2-4.2 59.9 13.2 14.4 18.7 13.7 49.5-4.4 65.5-15.5 13-37.1 7.7-55.6 8.7 0.1-29.1 0-58.3 0.1-87.4zm15.3 12.5c0 20.7 0.1 41.5 0 62.2 11.4 0 25.7 1.5 33-9.3 7.7-12.2 7.2-28.9 1.2-41.6-6.8-12.2-22.2-11.4-34.2-11.3zm328.1 74.9c0.1-29.1 0-58.3 0-87.4 15.6 0.7 32.3-2.4 47.1 4.1 14.6 7.4 13.4 30.5-1.2 37.5 17.6 5.9 19.1 31.9 3.7 41.1-15.1 8.4-33.2 3.4-49.6 4.7zm14.9-74.8q0 12 0 24.2c6.6-0.3 13.3 0.3 19.8-1.1 9.4-2.5 10.8-17.2 2.1-21.5-7-2.6-14.7-1.3-21.9-1.6zm0 34.8c0 9.4 0 18.8 0.1 28.2 7.5-0.4 15.5 0.7 22.7-2.2 6.8-3.4 7.3-12.4 5-18.8-5.6-9.8-18.5-6.5-27.8-7.2zm-675.8-46q6-0.2 12-0.4c-0.1 6 0 11.9-0.1 17.9q7.9-0.1 15.8-0.1c0 2.8-0.1 8.4-0.1 11.2-5.3-0.1-10.5-0.1-15.7-0.1 0.7 14.3-1.4 28.9 1.3 43 3.4 6 10.7 2.6 16.2 3-0.1 3.9-0.2 7.7-0.3 11.6-6.9 0.5-14.1 1.8-21-0.1-6.3-2-10.4-8.4-10.2-14.8-0.7-14.2-0.1-28.5-0.2-42.7-2.3 0-6.7 0-8.9 0.1q-0.2-5.6-0.3-11.1c2.3 0 7 0 9.3 0q1-8.8 2.2-17.5zm-130.3 17.5c4.9 0 9.8-0.1 14.8-0.1-0.1 22.9-0.1 45.7 0 68.6q-7.4 0-14.7 0c-0.1-22.8 0-45.6-0.1-68.5zm42.7 5.6c6.7-5.1 14.7-7 23-6.6q0.3 6.6 0.5 13.3c-8.2-0.7-16.4 0.3-23.3 5 0.2 17.1 0 34.1 0.1 51.2q-7.3 0-14.6 0c0.1-22.9 0.1-45.7 0-68.5q7.3-0.1 14.6-0.1c-0.1 1.4-0.2 4.3-0.3 5.7zm38.2-4.1c10-4.1 21-1.9 31.3-0.4 0 3 0.2 9 0.2 12-8.6-0.9-20.1-5.8-27.3 1-4.3 11.2 11.1 12.1 17.8 15.8 14.8 3.8 18.4 25.5 6.3 34.4-11.2 8.5-26.4 5.2-38.9 2.2 0-3 0-9 0-12 8.5 2.2 17.7 5.6 26.5 2.7 5.3-1.7 7.6-9.5 2.8-13.1-7-4.2-15.2-5.6-22-10.1-11.1-7.6-9.6-27.7 3.3-32.5zm518.3 0.2c12.7-2.1 28-5.9 38.9 3 9.2 9 5.9 23.1 6.4 34.6 0.6 7.4-3 18.3 7.1 20.2q0.1 4.7 0.2 9.4c-7.4 1.2-15 0.9-20.5-4.9-8.7 5.6-20.3 8-29.8 2.8-11.9-6.4-12.1-26.3-0.2-32.8 8.9-5.4 19.6-4.9 29.6-5.2-1.8-5.4-0.6-13.1-6.3-16.3-8.5-3.6-17.8-0.3-26.2 2 0.2-4.3 0.5-8.6 0.8-12.8zm9.2 42.6c-2.1 4.2-1.3 10.3 3.2 12.7 5.9 3.6 12.8 0.2 18.6-2.2q-0.2-8.4-0.3-16.8c-7.2 1.1-16.6-0.4-21.5 6.3zm118.8-44.4c4.9 0 9.9 0 14.8 0.1 0 22.8 0 45.7 0 68.5-5 0-9.9 0-14.8 0 0.2-22.9 0.1-45.7 0-68.6zm138.5 1.7c13.9-2.4 34.1-6.8 42.6 8.2 4.6 13.1 1.3 27.4 2.5 41-1.3 5.4 3.9 6.9 7.6 9-0.1 2.3-0.2 7.1-0.2 9.5-7.4 0.7-15 0.4-20.6-5.2-8.6 5.4-19.9 7.8-29.2 2.9-12.6-5.9-12.7-26.9-0.5-33.2 8.8-5.2 19.4-4.6 29.3-5-1.8-5.4-0.6-12.9-6.1-16.3-8.4-3.6-17.6-0.4-25.9 1.8q0.2-6.3 0.5-12.7zm9.1 42.4c-2.3 4.5-1.3 10.7 3.5 13.3 5.3 2.3 11.9 1.2 16.7-1.9 2-5.5 1.3-11.6 1.7-17.3-7.4 0.9-16.5-0.3-21.9 5.9zm50.6-44.4c5.5 0.5 11.8-0.6 16.2 3.8 8.5-4 18.6-6 27.7-2.5 6.9 3.2 10.8 10.7 11.2 18.1 0.9 16.5 0 33 0.4 49.5q-7.5 0-14.9 0c-0.4-16.5 0.9-33-0.6-49.4-2.7-12-17.3-8.2-25.3-4.5-0.2 18-0.1 35.9 0 53.9q-7.5 0-14.8 0c0.1-23 0-45.9 0.1-68.9zm-577.9 0.4q7.2 0 14.5 0c0 14-0.2 28-0.1 42.1 0 5.5 1 12.1 6.5 14.8 6.6 2.6 13.2-0.7 19.4-2.6q0-27.2 0-54.3 7.6 0 15.3 0 0 34.4 0 68.8c-5.7-0.3-11.8 0.1-16.8-3.4-8.9 3.9-19.7 6.5-28.8 1.6-7.1-3.4-9.7-11.7-10-19-0.3-16 0.1-32 0-48z" fill="#00468c"/>
	</g>
	<g id="#ef2e24ff">
		<path id="Layer" d="m1099.2 237.6c144.1-79.1 288.3-158 432.4-237-63.2 102.7-118.2 210.9-157.7 325-36.2 104.2-60 213.5-63.6 324-2.8 59.1 2.3 118.4 10.8 176.9-66.6-97.1-103.9-214.2-104.5-332.1-1-88.2 18.2-176.6 55.6-256.6-57.7-0.3-115.4 0.1-173-0.2z" fill="#ef2e24"/>
	</g>
</svg>