<svg version="1.2" xmlns="http://www.w3.org/2000/svg" viewBox="0 0 1566 772" width="1566" height="772">
	<title>oman-arab-bank-seeklogo-ai</title>
	<defs>
		<linearGradient id="g1" x2="1" gradientUnits="userSpaceOnUse" gradientTransform="matrix(0,-555.661,553.814,0,1563.984,661.044)">
			<stop offset=".006" stop-color="#6c6e70"/>
			<stop offset=".567" stop-color="#e1e2e3"/>
			<stop offset="1" stop-color="#6c6e70"/>
		</linearGradient>
		<radialGradient id="g2" cx="0" cy="0" r="1" gradientUnits="userSpaceOnUse" gradientTransform="matrix(-208.868,0,0,-208.868,1314.706,209.171)">
			<stop offset=".011" stop-color="#bee6fa"/>
			<stop offset=".511" stop-color="#01bcf1"/>
			<stop offset="1" stop-color="#005aa9"/>
		</radialGradient>
		<linearGradient id="g3" x2="1" gradientUnits="userSpaceOnUse" gradientTransform="matrix(0,-555.54,553.826,0,1.956,660.069)">
			<stop offset=".006" stop-color="#6c6e70"/>
			<stop offset=".567" stop-color="#e1e2e3"/>
			<stop offset="1" stop-color="#6c6e70"/>
		</linearGradient>
		<radialGradient id="g4" cx="0" cy="0" r="1" gradientUnits="userSpaceOnUse" gradientTransform="matrix(208.823,0,0,208.823,252,208.025)">
			<stop offset=".011" stop-color="#bee6fa"/>
			<stop offset=".511" stop-color="#01bcf1"/>
			<stop offset="1" stop-color="#005aa9"/>
		</radialGradient>
		<linearGradient id="g5" x2="1" gradientUnits="userSpaceOnUse" gradientTransform="matrix(0,-763.482,763.754,0,401.745,767.617)">
			<stop offset=".006" stop-color="#6c6e70"/>
			<stop offset=".567" stop-color="#d1d2d3"/>
			<stop offset="1" stop-color="#6c6e70"/>
		</linearGradient>
		<radialGradient id="g6" cx="0" cy="0" r="1" gradientUnits="userSpaceOnUse" gradientTransform="matrix(298.347,0,0,298.347,741.21,134.737)">
			<stop offset=".011" stop-color="#c6e9fa"/>
			<stop offset=".511" stop-color="#01bcf1"/>
			<stop offset="1" stop-color="#005aa9"/>
		</radialGradient>
		<linearGradient id="g7" x2="1" gradientUnits="userSpaceOnUse" gradientTransform="matrix(0,-335.917,287.903,0,587.046,565.62)">
			<stop offset="0" stop-color="#649ad1"/>
			<stop offset=".584" stop-color="#e5eff5"/>
		</linearGradient>
		<linearGradient id="g8" x2="1" gradientUnits="userSpaceOnUse" gradientTransform="matrix(0,-21.216,12.514,0,871.849,425.307)">
			<stop offset="0" stop-color="#649ad1"/>
			<stop offset=".584" stop-color="#e5eff5"/>
		</linearGradient>
		<linearGradient id="g9" x2="1" gradientUnits="userSpaceOnUse" gradientTransform="matrix(0,-31.769,14.484,0,762.48,206.093)">
			<stop offset="0" stop-color="#649ad1"/>
			<stop offset=".584" stop-color="#e5eff5"/>
		</linearGradient>
		<linearGradient id="g10" x2="1" gradientUnits="userSpaceOnUse" gradientTransform="matrix(0,-3.001,2.367,0,796.324,218.4)">
			<stop offset="0" stop-color="#649ad1"/>
			<stop offset=".584" stop-color="#e5eff5"/>
		</linearGradient>
		<linearGradient id="g11" x2="1" gradientUnits="userSpaceOnUse" gradientTransform="matrix(0,-211.615,220.103,0,1199.24,485.335)">
			<stop offset="0" stop-color="#649ad1"/>
			<stop offset=".584" stop-color="#e5eff5"/>
		</linearGradient>
		<linearGradient id="g12" x2="1" gradientUnits="userSpaceOnUse" gradientTransform="matrix(-408.954,0,0,-527.299,1539.635,648.625)">
			<stop offset=".006" stop-color="#fefefe"/>
			<stop offset=".27" stop-color="#fefefe"/>
			<stop offset=".781" stop-color="#b3b5b7"/>
		</linearGradient>
		<linearGradient id="g13" x2="1" gradientUnits="userSpaceOnUse" gradientTransform="matrix(408.951,0,0,527.404,24.086,645.125)">
			<stop offset=".006" stop-color="#fefefe"/>
			<stop offset=".27" stop-color="#fefefe"/>
			<stop offset=".781" stop-color="#b3b5b7"/>
		</linearGradient>
		<linearGradient id="g14" x2="1" gradientUnits="userSpaceOnUse" gradientTransform="matrix(68.926,0,0,224.835,436.279,272.173)">
			<stop offset=".017" stop-color="#fefefe"/>
			<stop offset="1" stop-color="#d7d8d9"/>
		</linearGradient>
		<linearGradient id="g15" x2="1" gradientUnits="userSpaceOnUse" gradientTransform="matrix(-68.999,0,0,-224.822,1128.373,273.002)">
			<stop offset=".017" stop-color="#fefefe"/>
			<stop offset="1" stop-color="#d7d8d9"/>
		</linearGradient>
		<linearGradient id="g16" x2="1" gradientUnits="userSpaceOnUse" gradientTransform="matrix(0,-197.105,229.642,0,188.372,477.303)">
			<stop offset="0" stop-color="#649ad1"/>
			<stop offset=".584" stop-color="#e5eff5"/>
		</linearGradient>
	</defs>
	
	<g id="_Artboards_">
	</g>
	<g id="Layer 1">
		<g id="&lt;Group&gt;">
			<g id="&lt;Group&gt;">
				<path id="&lt;Path&gt;" d="m1285 661c-153.1 0-276.9-124.1-276.9-277.8 0-153.6 123.8-277.8 276.9-277.8 153.2 0 276.9 124.2 276.9 277.8 0 153.7-123.7 277.8-276.9 277.8z" fill="url(#g1)" stroke="#fefefe" stroke-width="6.4"/>
				<path id="&lt;Path&gt;" d="m1285 560.8c-97.5 0-176.2-79-176.2-176.7 0-97.8 78.7-176.8 176.2-176.8 97.5 0 176.3 79 176.3 176.8 0 97.7-78.8 176.7-176.3 176.7z" fill="url(#g2)" stroke="#ffffff" stroke-width="5.7"/>
				<path id="&lt;Path&gt;" d="m280.8 660.1c-153.2 0-276.9-124.2-276.9-277.8 0-153.6 123.7-277.8 276.9-277.8 153.1 0 276.9 124.2 276.9 277.8 0 153.6-123.8 277.8-276.9 277.8z" fill="url(#g3)" stroke="#fefefe" stroke-width="6.4"/>
				<path id="&lt;Path&gt;" d="m281.7 559.6c-97.5 0-176.3-79-176.3-176.7 0-97.8 78.8-176.7 176.3-176.7 97.5 0 176.2 78.9 176.2 176.7 0 97.7-78.7 176.7-176.2 176.7z" fill="url(#g4)" stroke="#ffffff" stroke-width="5.7"/>
				<path id="&lt;Path&gt;" d="m783.6 767.6c-211.2 0-381.9-170.6-381.9-381.7 0-211.1 170.7-381.8 381.9-381.8 211.2 0 381.9 170.7 381.9 381.8 0 211.1-170.7 381.7-381.9 381.7z" fill="url(#g5)" stroke="#fefefe" stroke-width="8.1"/>
				<path id="&lt;Path&gt;" d="m783.6 637c-139.2 0-251.8-112.8-251.8-252.4 0-139.7 112.6-252.5 251.8-252.5 139.3 0 251.8 112.8 251.8 252.5 0 139.6-112.5 252.4-251.8 252.4z" fill="url(#g6)" stroke="#ffffff" stroke-width="7.1"/>
				<path id="&lt;Path&gt;" d="m567.4 510.3c161.1-65.1 280.6-61.5 434.2-3.7" fill="none" stroke="#ffffff" stroke-width="5"/>
				<path id="&lt;Path&gt;" d="m531.3 384.1h506" fill="none" stroke="#ffffff" stroke-width="5"/>
				<path id="&lt;Path&gt;" d="m571.6 251.9c169.4 62.3 284.4 54.7 424.5 0.4" fill="none" stroke="#ffffff" stroke-width="5"/>
				<path id="&lt;Path&gt;" d="m783.5 637c-136.3-56.8-255.3-302.5-0.1-503.6" fill="none" stroke="#ffffff" stroke-width="5"/>
				<path id="&lt;Path&gt;" d="m645.4 593.8c0 0 135.1-43.1 270.1 3.7" fill="none" stroke="#ffffff" stroke-width="5"/>
				<path id="&lt;Path&gt;" d="m648.7 172.5c0 0 139.2 56 270-2.8" fill="none" stroke="#ffffff" stroke-width="5"/>
				<path id="&lt;Path&gt;" d="m783.4 637.1c138.6-57.3 256.4-301.3 0.1-505" fill="none" stroke="#ffffff" stroke-width="5"/>
				<g id="&lt;Group&gt;">
					<path id="&lt;Path&gt;" d="m800.7 230.2c-2.8-0.6-2.6 1.7-2.6 1.7 0.6 0.5 0.7 1.6 0.7 1.6-0.7 1.6-2.2 1.7-2.2 1.7-0.5 0.7-2.8 0.8-2.8 0.8 0.8 1.5-0.1 3.3-0.1 3.3-0.2 0.6-3.4 1.7-3.4 1.7l-4.2-5.5h3.7l-1.4-1.3c1-1.8-0.5-3.5-0.5-3.5-1.9-2.1-3-0.3-3-0.3-0.6 0.8-1.6 1.2-1.6 1.2-2.3 0.1-3.1 2.6-3.1 2.6-0.2 1.2-0.2 4.3-0.2 4.3 1.1 2.3 0.9 5.1 0.9 5.1l-1.7 1 1 1.2-0.5 0.9c0 0 0 0-1.1 1.2-1.2 1.1 0.8 4 0.8 4 2.9 3.2-1.4 9.5-1.4 9.5l2.4 1.1c1.9-0.6 5.1-0.6 5.1-0.6-0.5 1.4 1.6 4.4 1.6 4.4 1.5 2.6-1 2.1-1 2.1-6.4 2.3-5.6 1.7-5.6 1.7-3.5-3.6-7.9 0.8-7.9 0.8-0.8 0.6-2.9 1.6-2.9 1.6-1.3 0.2-0.7 2.6-0.7 2.6 0.4 0 1.1 2 1.1 2-0.7 1.4-0.1 3.5-0.1 3.5 0.7 0.3 1.6 2.2 1.6 2.2l-0.4 4.2c-0.9 1-4.1 6.1-4.1 6.1-0.4 2.9-3.1 5.6-3.1 5.6-1 1.4-3.2 5.9-3.2 5.9-2.5 3-1.9 11.8-1.9 11.8 0.4 2.2-0.3 7.7-0.3 7.7l17.2 28.9-24.8 80.6-111.8 39.3 26 63.9-1 3.9 3.1 1.3 9.5 23.6 4.7-0.8c2.7 0 6.4-2.5 6.4-2.5 1.4-0.6 6.8-1 6.8-1 4 0.9 6.4-2.3 6.4-2.3 0.9-0.3 6.4-2.7 6.4-2.7 3.8 1.1 5-2.1 5-2.1 0.9-0.8 3.3-1.7 3.3-1.7 2.7 0.2 5-1 5-1 0.8-0.6 4-0.5 4-0.5 1.4 0.1 4.9 0.5 4.9 0.5 1.9-0.4 6.1 0.7 6.1 0.7 1.1 1.1 5 2.3 5 2.3 1.5 0.3 4-0.8 4-0.8 0.5-0.5 2.7-0.9 2.7-0.9 3.6-0.1 7.2-3.7 7.2-3.7 0.4-0.5 2-2.7 2-2.7 2.3-0.6 3.6-3.9 3.6-3.9 0-0.9 0.3-4.4 0.3-4.4 1-2.3-0.6-3-0.6-3-2.1-0.3-1.1-3.6-1.1-3.6 0-0.6 2.9-3.8 2.9-3.8 3-0.3 3.5-4.9 3.5-4.9 1.1-2.2 6-5.1 6-5.1 1.3-0.5 6-0.4 6-0.4 1.1 0.9 2.6 0 2.6 0l3 0.2c1.1 0.5 4-0.8 4-0.8 3.2 0.8 6-0.8 6-0.8 1.7-0.9 6.4 0.2 6.4 0.2 2.6 0.9 2.7-2.2 2.7-2.2 0.4-1.2 4.1-4.4 4.1-4.4 1.6-0.8 2-2.3 2-2.3 0-0.4 0.8-2.3 0.8-2.3 2.1-1.3 1.9-4.9 1.9-4.9-0.8-2.5 0-5.7 0-5.7 0.6-0.5 1-3.4 1-3.4 0.8-2 4.8-6.2 4.8-6.2 0.9-0.7 4.6-3.3 4.6-3.3 1.3-0.6 6.7-2.5 6.7-2.5 0.5-0.5 3.3-1.2 3.3-1.2 1.4-0.2 4.6-1.1 4.6-1.1 1.1-0.2 4.7-1 4.7-1 1.7 1.7 3.1 0.3 3.1 0.3 0.6-0.3 3-0.2 3-0.2 2.9 2.4 5-0.1 5-0.1 0.4-0.6 2-1.5 2-1.5 3.2 0.5 2.4-3.5 2.4-3.5-0.7-1.1-1.5-2.9-1.5-2.9-0.3-2-1.3-4.3-1.3-4.3-1.2-2.1-0.6-4.6-0.6-4.6 1-2.2-0.4-3.8-0.4-3.8-1.1-1.6-1.1-4-1.1-4 0.5-1.9 0.1-4.4 0.1-4.4-1-3.5 2.4-8.6 2.4-8.6 1-0.6 1-3.2 1-3.2 1.4-1.2 0.7-5.7 0.7-5.7-0.7-5.1 3.3-7.2 3.3-7.2 3-0.3 1.5-3.1 1.5-3.1-1.9-1.6 1.1-3.9 1.1-3.9 1.9-0.6 4.3-4.9 4.3-4.9 0.6-1.9 4.7-2.2 4.7-2.2 2.6 1.1 0.7 3.5 0.7 3.5-0.2 0.7-2 3.4-2 3.4-1.7 3.4 4.7 2.3 4.7 2.3 0.7-0.1 4.4 0.2 4.4 0.2 4.3-0.4 4.1-6.5 4.1-6.5 0.3-2.4 1.7-5.6 1.7-5.6 2.1-1.9 3.5-4.4 3.5-4.4 0.6-1.9 1.4-3.1 1.4-3.1 2.8-2.2 1.9-5.3 1.9-5.3-0.2-3.3 2.2-4.5 2.2-4.5 0.4-0.7 2.7-2.9 2.7-2.9 0.7-0.9 2.7-3.2 2.7-3.2 1.8-0.7 4.1-3.6 4.1-3.6 0.6-0.7 1.9-1.9 1.9-1.9 2.4-0.1 2.4-1.5 2.4-1.5 0.7-0.8 3.3-2.7 3.3-2.7 2.7-2.1 3.5-6.5 3.5-6.5 0-2.5 0.5-3.8 0.5-3.8 1.2-1.6 1.9-3.6 1.9-3.6 0.1-0.9 1.4-3.2 1.4-3.2 1.5-1.2 2.6-3.5 2.6-3.5 0.2-0.7 1.3-3.3 1.3-3.3 0.8-1.4 1.9-3.2 1.9-3.2 0.9-1.4 2.1-3.9 2.1-3.9 1.8-1.7 1.8-3.9 1.8-3.9 0.6-3.6-0.6-6.9-0.6-6.9-1.6-3-6.5-2.4-6.5-2.4-1.8 0.2-3.7-0.2-3.7-0.2 0 0 0.2 0-1.8-1.2-2-1.1-5.2-4.7-5.2-4.7-1.3-0.7-2.9-3.3-2.9-3.3-0.4-1.7-3.1-5.4-3.1-5.4-0.8-1.7-4-4.9-4-4.9-1.5-1.1-3-3.8-3-3.8-0.8-0.9-3.8-4.9-3.8-4.9-0.6-2-2.6-3.8-2.6-3.8-1.5-0.9-2.5-2.6-2.5-2.6-0.9-4.5-2.8-4.5-2.8-4.5-1.3-0.4-2.3-1.2-2.3-1.2-1.9-1.7-5-1.3-5-1.3-1.9 0.3-3.7-0.3-3.7-0.3-0.6-0.6-3.1-1-3.1-1-0.4 0-1.6-0.6-1.6-0.6-1.2-1.3-3.2-1.3-3.2-1.3-2 0.2-5.6-0.7-5.6-0.7-2.1-0.9-6.4-1.8-6.4-1.8-5 0.3-5.5-0.5-5.5-0.5-2.2-1.1-4.5-1.5-4.5-1.5-2.4-1.5-5.8-1.9-5.8-1.9-1.2-0.5-3.8-1.5-3.8-1.5-1.4-1.2-3.2-1.6-3.2-1.6-4.3-1.6-6.7-4.8-6.7-4.8-3.4-2.7-7.5-8.9-7.5-8.9-1.6-2.4-7-8.3-7-8.3-1.5-1.8-4.4-6.7-4.4-6.7-0.6-2.5-3.2-8.8-3.2-8.8 0 0-0.8-2.4-1.1-3.5z" fill="url(#g7)" stroke="#005aa9" stroke-width="3.6"/>
					<path id="&lt;Path&gt;" d="m883.6 420c0 0-0.1-2.5 1.1-3.2 0 0 2.2-1.8 2.9-2.1 0 0 2.2-0.5 2-2 0 0-0.5-2.2 1-3.8 0 0 2.1-2.1 2.1-3.5 0 0 1.1-2.8 1.5-0.2 0 0 0 1.9 0.6 2.7 0 0 0.6 0.7 0.6 1.5 0 0 0.3 1.5 0.6 2 0 0 0.5 0.6-0.6 0.5 0 0-2.1 0.4-3.1 1.7 0 0-0.4 0.7-0.8 0.9 0 0-0.5 1-0.4 1.8 0 0-0.4 0.7-0.9 1 0 0-0.6 1.5-0.7 2.7 0 0-0.8 2.1-1.9 2.7 0 0-2.6 1.4-2.9 2 0 0-0.9 1.7-0.9-0.6 0 0-0.1-2.7-0.2-4.1z" fill="url(#g8)" stroke="#005aa9" stroke-width="3.6"/>
					<path id="&lt;Path&gt;" d="m790.9 184.3c0 0-1.8 0.2 0-1.6 0 0 1.8-4.3 3.7-2.9 0 0 0.7 1.8-0.3 3.8 0 0-1.1 2 1.2 1.3 0 0 0.9 0.3 0.5-1.4 0 0-0.3-1.5 2-2.5 0 0 1.3 0.6 0.1-1.3 0 0-1.5-1.9 1.2-0.2 0 0 1.4 0.8 0.6-0.9 0 0-2-0.8 0-1.2 0 0 1.3-0.5 0-1.5 0 0-2-0.3-1.1-1.2 0 0 1-0.4 1.7 0.8 0 0 0.2 0.8 1.4 0.5 0 0 0.9 0.1 0.9 1.1 0 0 0.6 1.1 0.5-1 0 0 0.3-0.8 1.2-1.8 0 0-0.5 0.1-0.1 1.3 0 0 0.7 2.8-0.6 2.2l-1.7-0.2c0 0-1.6 0.2-1 2.2 0 0 1.1 2 1.3 2.9 0 0 0.3 2.4-1.9 0.9 0 0-1.7-1.5-2.7 0 0 0-0.3 0.9 0.7 1 0 0 0 1.2 1.3 0.6 0 0 3.3-0.4 1.3 3.1 0 0-0.4 1.4-0.1 2.8 0 0 0.5 1.1-0.9 2.5 0 0-0.8 2.2-0.8 5 0 0 0 2-1.8 1.7 0 0-1.6-0.6-1.3 1.5 0 0 0.6 1.7 0.4 2.3 0 0 0 0.9 0.8 1.6 0 0-4 1.4-5.1-1.1 0 0-1.5-3.2-0.9-6.4 0 0 0.8-6.8-0.3-9.1 0 0-0.7-1.7-0.3-2.4 0 0 0.6-1.1 0.1-2.4z" fill="url(#g9)" stroke="#005aa9" stroke-width="3.6"/>
					<path id="&lt;Path&gt;" d="m797.6 215.6c0 0-0.2 1.5-0.6 2.1 0 0 0.3 0.6 1 0.7 0 0 1.3-0.1 1.3-0.7 0 0 0.4-1.5-0.5-2.2 0 0-0.6-0.3-1.2 0.1z" fill="url(#g10)" stroke="#005aa9" stroke-width="3.6"/>
				</g>
				<path id="&lt;Path&gt;" d="m1352.6 399.1c4 7.1 6.2 13.5 13.3 16.8 8.2 3.8 11.9 9.7 14.3 18.7 1.1 4.1 1.7 8.6 2.4 12.9 0.7 4.4 3.2 8.9 3.2 13 0.2 4.7-3.5 7-3.9 10.6-0.4 4.3 4.5 3.5 9 2.8 4.6-1 9.5-3 9.3-6.4-0.1-3.3-4.5-6.6-5.8-10.1-0.7-2 0.6-4.6 0.3-5.8-0.3-1.2-5.3-5-5.5-6.4-1.7-8.9-1.2-11.6-0.8-20.2 0.2-4.6 0.9-7.5-0.7-11.7-1.1-3.5-6.6-8.6-8.9-11.1-5.8-6.5-2.1-13.1-2.1-21.2 0-4.3 0.7-9-1-12.7-2.2-4.3-6.4-6.6 0.5-7.5 8.9-1.3 16.8 5.4 17.5 13.9 1.4 15.3-7.1 45.9 17.4 44.4-6.4-3.9-10.9-7.2-10.1-15.5 0.8-7.8 5-14.6 5.3-22.6 0.5-8.7-0.6-14.8-7.4-20.6-6.6-5.5-14-7.9-22.4-5.8-5.2 1.3-6.8 3.6-11.9 1.5-5.3-2.1-7-3.9-12.7-3.7-9.9 0-17.9 1.3-27 3.2-7.8 1.6-15.9 4.8-24.4 3.6-8.2-1.2-13.5-7.5-20.5-11.1 1.3 0.5 2.9 0.3 4.5 0.4 0.1-6.2-9.9-7.3-11.5-13.6 2.6 1.6 5.3 3.2 8.4 2.4-6.2-1.7-11.7-12.6-14.2-18.3 0.4 2.4 3.2 5.3 5.8 5.7 0.7-6.3-8.2-14.3-13.2-17.4 2.9 1.9 7.1 4.8 10.4 5.1-2.5-5.2-9-12.5-14.7-13.7 2.1 0.7 4.2 1.4 6.3 2-2-4.4-7.7-5.7-12.1-7.5-3.8-1.6-8.1-7.2-12.1-3.7-0.3-5.6-0.3-10.5-2.3-15.8-2.5 3.8-6.2 15.4-11.5 13.8-0.7-4.5-5-8.3-6.5-12.6 0.7 3.4-1.6 4.9-2.4 7.9-0.9 3.4 1.2 6 0.8 8.9-0.5 6-6.9 9.9-8.6 15.5-3.5 9.5-8.5 17.8-16.1 25 0.7 2 1.1 8 2.1 9.3 0.9 1.1 7.3 3.4 8.9 3.7 11.6 3.2 6.4-8.1 9.5-13 3.9-5.9 16.5-5.9 22.3-9 9.7-5.2 9.8-23.9 9.2-16.7-1.8 18.5-14.1 19.6-14.1 19.6 5.8 10.4 4.6 27 3.4 38.5-0.6 6-3 8.3-3.4 13.9 0 0-2 6.2 1.2 14.2-5.8 7.6-8.3 16.4-11 24.9-1.5 5.2-3 8.9-2.6 14.3 0.2 5.7-0.7 11.7-1.1 17.2-0.4 4.7-7.6 8.8-3.7 11.2 3 2 10.9 0.8 14.6-1 1.6-0.5 1.8-0.5 1.3-5-0.2-1.5-4.1-2.4-4.4-6.2 0-1.1 1.6-1.8 1.6-3.1 0.1-2.7-1.1-6.4-0.8-10.9 0.3-5.7 2.7-9.4 6.4-13.5 4.2-4.3 15.7-13.4 15.2-12.7 0.5 2.9-0.6 12.1 4.5 21.4 2.9 5.2 4.9 7.1 6 12.9 1.9 9.8 2 16.1 1 26.4-0.5 5-1.9 7.2-3.8 11.7-2.4 6 1.7 5.5 7.5 4.2 12.3-2.6 7.1-7.8 5.6-15.4-0.3-1.4 0.9-4.9 0.7-6.3-1.3-9.2-3.1-16.5-3.1-26.1-0.1-9 0.5-11.4 3.2-20 6.9 1.9 2.5 0.8 8.9 2.1 5.2 1 6.7-0.1 12.2-0.1 11.4 0 21.6-0.2 31.8-4.9 7.1-3.3 15.5-10.4 22.9-5.4 8.2 5.5 9.6 17.2 6.6 25.2-2.7 7.5-8 13.6-10.9 21.2-1.5 4-4.6 7.4-6.8 10.9-2.4 4-3.3 7.9-1.6 9.3 7 0.4 15.9 2.3 16.3-5.8 0.2-3.7-0.7-6.1 0.6-9.5 0.6-1.3 2.1-1.3 2.5-3.3 0.6-1.4-0.9-2.8-1-4.2-0.2-6.3 4.5-12.9 8.8-17.3 2.2-2.2 6.5-6.3 7.4-9.6 0.7-3.4-1.1-7.1-0.7-10.3" fill="url(#g11)" stroke="#005aa9" stroke-width="2.4"/>
				<g id="&lt;Group&gt;">
					<g id="&lt;Group&gt;">
						<path id="&lt;Compound Path&gt;" fill-rule="evenodd" d="m1533.6 410.3c5.6 9.9 7.8 20.6 4.2 29.9-10.2 27.1-52.1 49.7-52.1 49.7-9.4 5.7-0.6 13.8-0.6 13.8 3 3.2 11.1 5.3 21.6-3.8 0.4 12.7-9.4 16.3-13.3 17.1-3.3 0.6-16.5 6.3-5.8 13.5 9.6 9.2-1.5 8.6-15 21.1 0 0-18.3 26.9-28.2 34.8-6.8 5.3-16.9 13.3-28.6 16.1 0 0-11.2 4.5-33-2.8 0 0 0 0.7-6.1 10.7-5.9 10.7-26.8 26.1-43.8 27.2 0 0-20.7 1.4-31.8-4.5l-8.4-3c0 0-20-2.5-5.9 18.5 0 0-18.4 0.4-15.8-17.1 0 0 10.3-21.1-15-24-12.4-1.4-16.9-13.1-16.9-13.1-4.6-10-14.1-17.1-23.1-22.4-7.5-4.4-14.5-8.1-21.2-9.1-6.3-0.9-16.4-0.1-19.5 0.8-3.1 0.9-13.6 5.9-17.6 14.4-4 8.6-1.1 15.5 0.2 18.6 1.5 3.8 9.1 7.9 14 7.8 5.3 0 16.1-2.6 16.6-9.4 0.5-6.6-5.2-9-13.9-9.6 0 0 6.8-5.1 15.2-4 9.8 1.4 11.8 9.2 11.7 11.6-0.1 2.3-1.6 4.4-0.8 5.3 0.4 0.4 5.6 0.1 6.4 0.1 3.2 0 7.4 1.5 10.7 4.1 3.2 2.6 13.8 16.8 11.3 25.2 0 0-19.2-28.6-43.2-17.2 0 0-13.9 4.3-26.5-5.5 0 0-8.1-4.7-9.3-16.6 0 0 0-4.3 0-6.5 0-1.4-5.3 0.9-6.7 1-5.8 1.5-12.7 0.1-12.7 0.1 0 0 18-2.9 29.1-15.8 0 0 7.6-6 12.5-10.1 2.2-3-1.5-6.7-2.5-9.6-1.1-3.1 1.6-8.7 9.1 0.2 0 0 7.7 8.2 28.3 14 20.4 5.9 31.7 15.6 39.7 21.3 8.3 5.9 21.2 19.9 27.2 25.3 6.2 5.8 26 19.9 45.2 22.8 0 0 21.9 3.8 26.5-4.8 0 0-9.8-4.2-7.8-10.4 1.5-4.8 7.5-9.8 12.6-10.6 0 0-2.6 4.4-2.8 8.4 0 1.1 1 4.2 2.5 5.5 2.7 2.4 8.8 3.1 13.6-2.4 0 0 9.4-11.6 9.3-21 0 0-22-19.2-42.7-20.2 0 0-19.7-1.5-25.7 9.3 0 0-6.1 16.7 14.4 11.3 1.3-0.4-4 13.1-15.7 4.9 0 0-3-2.4-3.9-0.7 0 0-0.2 3 1.1 5.8 2.6 5.2 8.7 11.8 19.2 11.6-24.7 4.8-26.8-20.6-26.8-20.6-4.5 1.2-9.5-0.1-9.5-0.1-16.6-6-10.2-21.6-10.2-21.6 0 0 12.4 18.2 21.5 7.1 7.3-8.9 25.1-11.9 31.5-12.2 12.7-0.6 36 7.3 48.7 19.5 0 0-5-13.1-0.7-23.7 0 0 6.4-18.8 30.7-17.4-11.3-17.2 22.1-40.7 22.1-40.7 5.2-4 30.6-22.1 30.6-22.1 0 0 6-3.2 5.7-8.3-6.8-10.1 9.6-21 9.6-21l-2.3 3.7c0 0-4.7 9.2-1.1 13.6 0 0 11.7 19.6 40.2-8 5.7-5.6 16.4-16.9 16.4-16.9-15.6 7.5-20.2-11.2-20.2-11.2 0 0-2.6-10.9 4.4-12.7 0 0-1 2.4-1.4 5.1-0.3 2.2 0.4 5.3 0.6 6.4 1.5 6.3 16.2 11.1 18.9-4 0.9-4.9 0.3-15.9-3.7-23.6-2.6-5.2-11.7-14.8-21.3-16.2 0 0-7-1.4-10.9 0.6 0 0-12.7 5.9-12.8 14.5 0 0 7.8-6.6 13.6-5.6 0 0 5.5-0.5 9 5.8 0 0-12.8-0.9-16 6.6-1.4 4.9 6.5 16 6.5 16-9.6-0.9-12.5-6.9-12.5-6.9 0 0-4.5-10.3-4.7 2.8-0.2 11.4 11.6 18.4 7.4 17.9-20.5-3-15.5-25.9-15.5-25.9 0 0 1.1-8.7 12.3-23.5 0 0 4.1-5.5-2.1-10.3h-0.1q0 0 0 0 0-0.1-0.1-0.1h0.2c6.2-4.7 2.1-10.2 2.1-10.2-11.2-14.8-12.3-23.6-12.3-23.6 0 0-5-22.8 15.6-25.8 4.2-0.4-7.5 6.5-7.5 18.1 0.2 12.9 4.7 2.7 4.7 2.7 0 0 3.1-6 12.6-6.9 0 0-7.9 11-6.4 16 3 7.4 15.8 6.5 15.8 6.5-3.3 6.3-9 5.7-9 5.7-5.8 1.1-13.5-5.7-13.5-5.7 0 8.8 12.7 14.6 12.7 14.6 4 2.2 11 0.7 11 0.7 9.5-1.3 18.6-11.1 21.3-16.2 3.9-7.7 4.5-18.8 3.6-23.7-2.6-15-17.3-10.2-18.8-3.9-0.2 1.2-1 4.1-0.7 6.3 0.4 2.8 1.5 5.4 1.5 5.4-7-1.9-4.5-13-4.5-13 0 0 4.6-18.6 20.3-11.1 0 0-10.8-11.2-16.5-16.9-28.5-27.7-40.1-7.9-40.1-7.9-3.7 4.1 1 13.6 1 13.6l2.3 3.7c0 0-16.4-10.9-9.6-21.3 0.4-5-5.7-8.1-5.7-8.1 0 0-25.3-18-30.6-22 0 0-33.3-23.6-22.1-40.7-24.3 1.3-30.7-17.4-30.7-17.4-4.2-10.7 0.7-23.7 0.7-23.7-12.6 12.1-35.9 19.8-48.6 19.4-6.4-0.2-24.1-3.2-31.6-12.2-9-11.1-21.4 7.1-21.4 7.1 0 0-6.4-15.7 10.2-21.5 0 0 5-1.4 9.5-0.2 0 0 2-25.4 26.7-20.6-10.4-0.3-16.6 6.2-19.1 11.6-1.4 2.7-1.1 5.7-1.1 5.7 0.8 1.8 3.9-0.6 3.9-0.6 11.7-8.3 16.9 5.2 15.7 5-20.4-5.4-14.4 11.2-14.4 11.2 6 10.8 25.6 9.4 25.6 9.4 20.8-1 42.8-20.4 42.8-20.4 0.1-9.4-9.3-21.1-9.3-21.1-4.9-5.2-11-4.6-13.7-2.1-1.5 1.3-2.5 4.2-2.4 5.4 0.1 3.9 2.7 8.4 2.7 8.4-5-0.7-11.1-5.8-12.5-10.5-2-6.3 7.8-10.4 7.8-10.4-4.6-8.7-26.5-4.8-26.5-4.8-19.2 2.6-39.1 16.8-45.1 22.5-6.2 5.7-19.1 19.4-27.4 25.5-8 5.5-19.3 15.4-39.7 21.4-20.6 5.8-28.2 13.9-28.2 13.9-7.6 9-10.2 3.2-9.2 0.1 1-2.8 4.7-6.4 2.5-9.6-4.8-4-12.4-10.1-12.4-10.1-11.2-12.9-29.2-15.7-29.2-15.7 0 0 7-1.3 12.9 0.2 1.4 0.1 6.6 2.4 6.5 0.9 0-2.2 0.1-6.6 0.1-6.6 1.1-11.9 9.3-16.5 9.3-16.5 12.6-9.8 26.4-5.4 26.4-5.4 24 11.4 43.3-17.3 43.3-17.3 2.4 8.5-8.1 22.5-11.4 25.2-3.3 2.7-7.4 4.1-10.6 4.2-0.9 0-6.1-0.4-6.4 0-0.9 0.9 0.7 2.9 0.8 5.3 0 2.4-2 10.2-11.8 11.5-8.3 1.1-15-3.9-15-3.9 8.5-0.7 14.3-2.9 13.7-9.7-0.4-6.7-11.3-9.1-16.5-9.3-4.9-0.2-12.5 4-14.1 7.9-1.2 2.9-4.2 9.9-0.1 18.3 4 8.6 14.5 13.7 17.6 14.6 3 0.8 13.1 1.7 19.5 0.7 6.6-1 13.7-4.5 21.2-8.8 8.9-5.5 18.4-12.6 23-22.5 0 0 4.5-11.7 17-13.3 25.3-2.8 14.9-23.8 14.9-23.8-2.5-17.5 15.9-17.3 15.9-17.3-14.2 21.1 5.9 18.6 5.9 18.6l8.3-2.9c11.1-6.2 31.9-4.7 31.9-4.7 17 1.1 37.8 16.7 43.9 27.2 5.9 10.2 5.9 10.8 5.9 10.8 21.8-7.3 33-2.9 33-2.9 11.7 2.9 21.9 10.8 28.7 16.2 9.9 7.8 28.2 34.9 28.2 34.9 13.5 12.3 24.6 11.8 15 20.9-10.8 7.3 2.4 13.1 5.7 13.7 4 0.8 13.7 4.4 13.4 17.1-10.5-9.4-18.7-7.2-21.7-3.9 0 0-8.8 8.1 0.7 13.9 0 0 41.8 22.6 52.1 49.7 3.5 9.3 1.5 19.7-4.3 29.8-3.4 6.1-10.9 12-14.2 14.7-1 1.1-5.8 4.4-5.8 5.7-0.2 2.3 3.8 3.6 4.8 4.8h0.1q0 0 0 0 0 0.1 0 0.1h-0.1c-1 1.3-5.1 2.6-4.8 4.8 0 1.4 4.7 4.8 5.8 5.8 3.2 2.7 10.7 8.4 14.2 14.7zm-60.5-166.8c-3.3-9-11.5-26.6-19.6-37.6-8.2-10.7-22.6-26.5-33.7-31.2-8.5-3.2-18.3-4.2-23.6-3-8.2 1.6-18.9 11.7-17.4 22.4 0 0 2.2 25.6 27.9 17.7 8-2.4 6.4-11.7 6.4-11.7-2.1-9.4-17.4-12.4-17.4-12.4 0.6-1.1 5.7-1.9 8-1.8 0 0 22.8 1.2 21.1 22.5 0 0 22.3 3.1 25.7 19 3.7 17.5-3.6 20.7-3.6 20.7-0.9-27.7-22.3-30-22.3-30-11-1.1-14.6 11.2-14.6 11.2 0 0-3 12.1 16.1 25.5 14.9 10.6 32.4 20.5 40.7 17.8 0 0 16.3-3.3 6.3-29.1zm-6.4 253.9c-8.3-2.7-25.8 7.4-40.6 17.8-19.2 13.4-16.1 25.4-16.1 25.4 0 0 3.6 12.6 14.5 11.4 0 0 21.5-2.3 22.4-30.2 0 0 7.3 3.4 3.6 20.8-3.5 16-25.7 19.1-25.7 19.1 1.7 21.3-21.1 22.3-21.1 22.3-2.3 0.2-7.5-0.5-8-1.7 0 0 15.2-2.9 17.3-12.5 0 0 1.6-9.3-6.3-11.8-25.9-7.5-27.9 17.7-27.9 17.7-1.6 10.8 9 21.1 17.4 22.5 5.3 1.2 15.1 0.5 23.5-2.9 11.1-4.8 25.6-20.6 33.8-31.3 8.1-10.8 16.1-28.5 19.6-37.4 9.9-25.9-6.4-29.2-6.4-29.2z" fill="url(#g12)"/>
					</g>
				</g>
				<g id="&lt;Group&gt;">
					<g id="&lt;Group&gt;">
						<path id="&lt;Compound Path&gt;" fill-rule="evenodd" d="m433 579.5c0 0-6.9 1.3-12.8 0-1.4-0.3-6.6-2.4-6.5-1.1 0.1 2.2 0 6.6 0 6.6-1.3 11.9-9.4 16.7-9.4 16.7-12.6 9.5-26.5 5.3-26.5 5.3-24-11.3-43.3 17.2-43.3 17.2-2.4-8.4 8.1-22.5 11.4-25 3.4-2.9 7.4-4.2 10.8-4.3 0.8 0 6 0.3 6.3 0 0.8-1-0.6-3.1-0.7-5.3-0.2-2.5 1.9-10.4 11.6-11.6 8.4-1.1 15.2 3.9 15.2 3.9-8.7 0.7-14.3 3.1-13.9 9.7 0.4 6.7 11.2 9.2 16.6 9.2 4.8 0.3 12.5-3.9 13.9-7.8 1.4-3 4.3-9.9 0.3-18.4-4-8.5-14.6-13.6-17.6-14.5-3.1-0.7-13.2-1.7-19.6-0.7-6.4 1-13.7 4.5-21.2 9-8.9 5.3-18.4 12.4-23.1 22.4 0 0-4.4 11.7-16.9 13.2-25.3 2.7-15 23.9-15 23.9 2.7 17.5-15.6 17.2-15.6 17.2 14-21.1-6.1-18.5-6.1-18.5l-8.2 2.8c-11.2 6.1-31.9 4.8-31.9 4.8-17-1.1-37.9-16.8-43.9-27.3-5.9-10.1-5.9-10.8-5.9-10.8-21.9 7.4-33 2.9-33 2.9-11.7-3-21.9-10.9-28.6-16.1-10-7.9-28.4-34.9-28.4-34.9-13.3-12.5-24.5-11.8-14.8-20.9 10.5-7.4-2.6-13.2-5.9-13.6-3.9-0.9-13.6-4.5-13.4-17.1 10.7 8.9 18.7 7 21.8 3.7 0 0 8.6-8.1-0.7-13.9 0 0-41.9-22.5-52.2-49.6-3.5-9.3-1.4-19.9 4.3-29.9 3.5-6.2 11-11.9 14.2-14.7 1.2-1 5.8-4.3 5.9-5.7 0.1-2.2-3.9-3.5-4.9-4.8h-0.1q0 0 0-0.1 0 0 0 0c1.1-1.2 5.1-2.5 5-4.9-0.2-1.3-4.8-4.5-5.9-5.6-3.2-2.7-10.7-8.5-14.2-14.8-5.7-10-7.8-20.6-4.3-29.8 10.2-27.1 52.2-49.7 52.2-49.7 9.3-5.8 0.6-13.8 0.6-13.8-3.1-3.2-11.1-5.5-21.7 3.8-0.3-12.7 9.5-16.3 13.3-17.2 3.3-0.5 16.5-6.2 5.8-13.6-9.6-9.2 1.6-8.4 15-21 0 0 18.3-26.8 28.3-34.7 6.8-5.4 16.9-13.3 28.6-16.2 0 0 11.2-4.4 33.1 2.7 0 0 0-0.5 5.9-10.7 6-10.4 26.9-26.1 43.9-27.2 0 0 20.6-1.3 31.8 4.7l8.3 2.9c0 0 20 2.6 6-18.6 0 0 18.4-0.2 15.7 17.2 0 0-10.3 21.1 15 24.1 12.5 1.4 16.9 13.1 16.9 13.1 4.7 10 14.2 17 23.1 22.4 7.5 4.4 14.7 8 21.2 9 6.4 1 16.5 0 19.6-0.8 3-0.9 13.5-5.8 17.6-14.5 4-8.5 1-15.5-0.3-18.5-1.4-3.7-9.1-7.9-14-7.7-5.3 0-16.1 2.5-16.6 9.4-0.4 6.4 5.2 8.9 13.9 9.4 0 0-6.8 5.1-15.1 4.1-9.8-1.3-11.9-9.2-11.8-11.6 0.3-2.3 1.7-4.5 0.8-5.4-0.3-0.3-5.5 0-6.3 0-3.3 0-7.3-1.3-10.8-4.1-3.2-2.5-13.7-16.6-11.3-25.2 0 0 19.3 28.7 43.3 17.3 0 0 13.8-4.3 26.5 5.4 0 0 8.1 4.7 9.3 16.5 0 0 0.1 4.4 0 6.7 0 1.3 5.1-0.8 6.6-1 5.8-1.4 12.8-0.2 12.8-0.2 0 0-18.1 2.9-29.2 15.8 0 0-7.6 6.1-12.5 10-2.1 3.2 1.5 6.8 2.5 9.8 1 2.9-1.5 8.6-9-0.3 0 0-7.6-8.2-28.3-13.9-20.5-6-31.8-15.8-39.7-21.4-8.3-5.9-21.2-19.8-27.3-25.4-6.1-5.6-25.9-19.9-45.2-22.7 0 0-21.9-3.7-26.5 4.9 0 0 9.8 4.1 7.9 10.5-1.5 4.7-7.6 9.6-12.7 10.4 0 0 2.6-4.5 2.9-8.3 0-1.3-1.1-4.2-2.5-5.5-2.7-2.5-8.9-3.2-13.6 2.2 0 0-9.5 11.8-9.3 21.1 0 0 21.9 19.4 42.6 20.3 0 0 19.8 1.4 25.7-9.4 0 0 6-16.7-14.3-11.3-1.4 0.4 3.9-13.1 15.6-4.9 0 0 3 2.4 4.1 0.5 0 0 0-2.8-1.3-5.6-2.5-5.2-8.7-11.8-19.1-11.5 24.7-4.8 26.8 20.5 26.8 20.5 4.4-1.2 9.3 0.2 9.3 0.2 16.7 5.9 10.3 21.5 10.3 21.5 0 0-12.4-18.1-21.5-7.1-7.3 8.8-25.1 12-31.4 12.3-12.6 0.5-36-7.4-48.8-19.6 0 0 5 13.1 0.7 23.9 0 0-6.4 18.6-30.6 17.3 11.2 17.1-22 40.7-22 40.7-5.4 3.9-30.8 22-30.8 22 0 0-6 3.1-5.6 8.2 6.8 10.3-9.6 21.2-9.6 21.2l2.2-3.8c0 0 4.8-9.2 1.2-13.6 0 0-11.7-19.6-40.3 8.1-5.8 5.5-16.3 16.6-16.3 16.6 15.6-7.2 20.3 11.5 20.3 11.5 0 0 2.4 10.8-4.6 12.8 0 0 1.1-2.6 1.5-5.4 0.3-2-0.5-5.1-0.7-6.3-1.5-6.4-16.1-11-18.8 4-0.9 4.9-0.4 15.9 3.7 23.6 2.6 5.2 11.7 15 21.2 16.3 0 0 7 1.2 10.9-0.8 0 0 12.7-5.7 12.9-14.5 0 0-7.8 6.7-13.8 5.8 0 0-5.4 0.5-8.7-5.9 0 0 12.7 0.9 15.7-6.6 1.5-4.8-6.4-16-6.4-16 9.6 1 12.5 7.1 12.5 7.1 0 0 4.6 10 4.7-2.8 0-11.5-11.6-18.5-7.3-17.9 20.4 2.8 15.4 25.7 15.4 25.7 0 0-1 8.7-12.3 23.6 0 0-4 5.5 2.2 10.2h0.1q0 0.1 0 0.1 0 0 0 0h-0.1c-6.2 4.7-2.2 10.3-2.2 10.3 11.3 14.7 12.3 23.4 12.3 23.4 0 0 5 22.8-15.4 25.9-4.2 0.6 7.4-6.5 7.3-18 0-13-4.6-2.8-4.6-2.8 0 0-3 6-12.6 7 0 0 8-11.2 6.6-15.9-3.2-7.6-15.8-6.7-15.8-6.7 3.2-6.4 8.7-5.7 8.7-5.7 5.9-1.1 13.7 5.5 13.7 5.5-0.2-8.6-12.9-14.4-12.9-14.4-3.8-2.1-10.8-0.8-10.8-0.8-9.6 1.4-18.7 11.2-21.2 16.2-4.2 7.9-4.6 18.9-3.7 23.8 2.7 15 17.3 10.3 18.7 4 0.3-1.2 1-4.3 0.7-6.4-0.3-2.8-1.5-5.3-1.5-5.3 7 1.9 4.6 12.9 4.6 12.9 0 0-4.7 18.7-20.2 11.2 0 0 10.5 11.2 16.2 16.8 28.6 27.7 40.3 8.1 40.3 8.1 3.6-4.3-1-13.8-1-13.8l-2.4-3.6c0 0 16.4 10.8 9.7 21.2-0.5 5 5.5 8.1 5.5 8.1 0 0 25.5 18.2 30.8 22 0 0 33.3 23.6 22.1 40.8 24.2-1.4 30.6 17.3 30.6 17.3 4.2 10.7-0.8 23.8-0.8 23.8 12.9-12.2 36.2-19.9 48.8-19.5 6.5 0.2 24.1 3.4 31.4 12.3 9.2 11 21.6-7.1 21.6-7.1 0 0 6.4 15.5-10.2 21.5 0 0-5 1.3-9.5 0.2 0 0-2.1 25.3-26.7 20.4 10.3 0.5 16.6-6.3 19.1-11.5 1.4-2.7 1.2-5.7 1.2-5.7-1.1-1.7-4 0.8-4 0.8-11.7 8.1-17-5.4-15.7-5 20.4 5.3 14.3-11.5 14.3-11.5-5.9-10.6-25.6-9.2-25.6-9.2-20.8 1-42.7 20.3-42.7 20.3-0.1 9.4 9.4 21 9.4 21 4.8 5.5 10.8 4.7 13.6 2.4 1.4-1.3 2.5-4.5 2.4-5.6-0.1-3.9-2.8-8.4-2.8-8.4 5.1 0.8 11.1 5.9 12.6 10.5 1.9 6.3-7.8 10.5-7.8 10.5 4.6 8.7 26.5 4.7 26.5 4.7 19.2-2.6 39.1-16.9 45.2-22.5 6.1-5.6 18.9-19.3 27.2-25.5 8-5.5 19.2-15.4 39.8-21.3 20.6-5.8 28.2-14 28.2-14 7.5-8.9 10.2-3.2 9-0.2-0.8 2.9-4.5 6.7-2.5 9.7 4.9 4 12.6 10.1 12.6 10.1 11 12.9 29.1 15.7 29.1 15.7zm-336.2-310.6c8.5 2.8 25.9-7.2 40.8-17.6 19-13.4 16.1-25.6 16.1-25.6 0 0-3.6-12.3-14.5-11.3 0 0-21.4 2.5-22.4 30.2 0 0-7.3-3.3-3.5-20.9 3.2-15.7 25.6-18.9 25.6-18.9-1.8-21.3 21.1-22.4 21.1-22.4 2.2-0.1 7.4 0.8 7.9 1.6 0 0-15.2 3.1-17.3 12.6 0 0-1.7 9.3 6.5 11.7 25.7 7.8 27.7-17.7 27.7-17.7 1.7-10.8-9-20.9-17.3-22.4-5.5-1.1-15.1-0.5-23.6 3-11.1 4.7-25.5 20.5-33.8 31.2-8.1 10.8-16.1 28.6-19.5 37.5-9.9 26 6.2 29 6.2 29zm88 303.5c0 0-1.9-25.6-27.7-17.8-8.1 2.3-6.4 11.7-6.4 11.7 2 9.4 17.2 12.4 17.2 12.4-0.5 1.1-5.6 1.9-7.8 1.7 0 0-22.9-0.9-21.2-22.4 0 0-22.2-3.1-25.6-18.9-3.8-17.6 3.6-20.8 3.6-20.8 0.9 27.7 22.3 30.2 22.3 30.2 10.9 0.9 14.6-11.4 14.6-11.4 0 0 2.9-12-16.2-25.6-14.9-10.4-32.3-20.4-40.8-17.6 0 0-16.1 3.2-6.2 29.1 3.4 8.8 11.5 26.5 19.6 37.7 8.3 10.5 22.6 26.4 33.7 31 8.5 3.3 18.1 4.2 23.7 2.9 8.2-1.3 18.9-11.5 17.2-22.2z" fill="url(#g13)"/>
					</g>
				</g>
				<g id="&lt;Group&gt;">
					<g id="&lt;Group&gt;">
						<g id="&lt;Group&gt;">
							<path id="&lt;Compound Path&gt;" fill-rule="evenodd" d="m498.2 367.3c-4.5 5.4-0.1 10.8-0.1 10.8l4.6 6.4h0.1l-0.1 0.1 0.1 0.1h-0.1l-4.6 6.3c0 0-4.4 5.3 0.1 11 4.3 5.6 6.9 16.8 7 24 0.1 12-5.4 14.7-5.9 17.3-0.5 2.7 2.9 7.1 2.5 14.2-0.2 7.8-5.2 11.2-9.7 14.6 0 0-3.3 21.4 13.1 24.9 0 0-22.6-2.6-23.8-21.4-28 1.3-28-20-28-20-0.3-8.1-3.1-8.7-9.2-12.9 0 0 11.6 2 14.4 8.6 4.8 10.7 12.2 15.4 20.1 14.6 3.2-0.4 9.1-1.5 12.2-7.7 2.3-4.8-2.2-15.2-3.3-17.1-2.8-4.8-7.3-16.4-7.3-24.3-0.1-7.8 1.5-13.2 1.5-13.2 0 0 0.9-4.3-1.3-5.9-4.1-2.8-8.1-3.9-16.4-3.4-14 0.9-18.9 7.9-19.6 11.8-3.7 17.9 22.6 18.8 22.6 4.6 0-4.5-8.5-8.7-8.5-8.7 9.4 0 13.3 4.3 13.3 4.3 0 0 8 8.9-2.1 15 0 0 4.6 3.9 5.2 7.8 1.8 11.5-7.9 16.5-7.9 16.5 0 0 4.7-10.7-1-15.5-2.3-2-9.6-2.9-14.8-5.4-4.5-2.2-16-4.7-15-17.6 0.9-13.2 14.8-15.8 24.8-16.1 0 0 10 0.1 13.3 1.3 0 0 17.8 3.6 16.1-7.6q0 0 0-0.1 0 0 0-0.1c1.7-11.2-16.1-7.6-16.1-7.6-3.3 1.2-13.3 1.2-13.3 1.2-10-0.2-23.9-2.9-24.8-16-1-13 10.5-15.4 15-17.6 5.2-2.5 12.5-3.3 14.8-5.3 5.7-4.8 1-15.6 1-15.6 0 0 9.7 5.1 7.9 16.5-0.6 4-5.2 7.8-5.2 7.8 10.1 6.1 2.1 15 2.1 15 0 0-3.9 4.4-13.3 4.4 0 0 8.5-4.4 8.5-8.9 0-14-26.3-13.2-22.6 4.7 0.7 4 5.6 11 19.6 11.8 8.3 0.5 12.3-0.7 16.4-3.5 2.2-1.5 1.3-5.9 1.3-5.9 0 0-1.6-5.3-1.5-13.1 0-7.9 4.5-19.5 7.3-24.2 1.1-2.1 5.6-12.4 3.3-17.1-3.1-6.4-9-7.4-12.2-7.8-7.9-0.9-15.3 3.9-20.1 14.5-2.8 6.7-14.4 8.7-14.4 8.7 6.1-4.2 8.9-4.8 9.2-12.9 0 0 0-21.3 28-19.9 1.2-18.9 23.8-21.5 23.8-21.5-16.4 3.6-13.1 25-13.1 25 4.5 3.3 9.5 6.7 9.7 14.5 0.4 7.1-3 11.6-2.5 14.3 0.5 2.3 6 5.3 5.9 17.3-0.1 7-2.7 18.4-7 24zm-3.7-34.7c-17.7 13.6-3.6 32.4-3.6 32.4 17.4-16.6 3.6-32.4 3.6-32.4z" fill="url(#g14)"/>
						</g>
					</g>
				</g>
				<g id="&lt;Group&gt;">
					<g id="&lt;Group&gt;">
						<g id="&lt;Group&gt;">
							<path id="&lt;Compound Path&gt;" fill-rule="evenodd" d="m1128.3 407.9c1 13-10.5 15.4-14.9 17.7-5.1 2.4-12.6 3.3-14.8 5.3-5.7 4.8-0.9 15.4-0.9 15.4 0 0-9.9-4.9-8-16.3 0.5-4 5.1-7.8 5.1-7.8-9.8-6.2-2-15.1-2-15.1 0 0 3.9-4.4 13.4-4.4 0 0-8.7 4.3-8.7 8.8 0 14.3 26.3 13.2 22.8-4.7-0.7-3.9-5.6-10.8-19.7-11.6-8.3-0.4-12.3 0.6-16.4 3.4-2.3 1.5-1.4 5.9-1.4 5.9 0 0 1.6 5.3 1.6 13 0 8.1-4.5 19.6-7.2 24.4-1.3 2-5.7 12.3-3.4 17 3 6.5 8.9 7.5 12.3 7.8 7.8 1 15.2-3.9 20-14.6 2.9-6.6 14.5-8.5 14.5-8.5-6.1 4-8.9 4.7-9.4 12.8 0 0 0.2 21.2-28 19.9-1.2 19-23.7 21.5-23.7 21.5 16.4-3.5 13.1-24.9 13.1-24.9-4.5-3.3-9.5-6.8-9.8-14.5-0.3-7.1 3.2-11.6 2.6-14.3-0.4-2.4-6.2-5.3-6-17.3 0.2-7 2.7-18.5 7-24 4.6-5.7 0.1-11 0.1-11l-4.5-6.4h-0.1v-0.1h0.1l4.5-6.4c0 0 4.5-5.2-0.1-10.9-4.3-5.4-6.8-16.9-7-23.9-0.2-12.1 5.6-15 6-17.4 0.6-2.6-2.9-7-2.6-14.2 0.3-7.8 5.3-11.2 9.8-14.6 0 0 3.3-21.3-13.1-24.9 0 0 22.5 2.7 23.7 21.5 28.2-1.4 28 19.9 28 19.9 0.5 8.1 3.3 8.8 9.4 13 0 0-11.6-2.1-14.5-8.7-4.8-10.6-12.2-15.4-20-14.6-3.4 0.4-9.3 1.4-12.3 7.9-2.3 4.7 2.1 14.9 3.4 16.9 2.7 4.8 7.2 16.4 7.2 24.4 0 7.7-1.6 12.9-1.6 12.9 0 0-0.9 4.7 1.4 6.1 4.1 2.7 8.1 3.8 16.4 3.5 14.1-1.1 19-7.9 19.7-11.7 3.5-18.1-22.8-19-22.8-4.7 0 4.4 8.7 8.8 8.7 8.8-9.5 0-13.4-4.5-13.4-4.5 0 0-7.8-8.8 2-15.1 0 0-4.6-3.7-5.1-7.6-1.9-11.6 8-16.6 8-16.6 0 0-4.8 10.7 0.9 15.6 2.2 2 9.7 3 14.8 5.4 4.4 2.2 15.9 4.4 14.9 17.5-0.8 13.2-14.7 15.9-24.6 16 0 0-10.1 0-13.4-1.2 0 0-17.8-3.6-16.1 7.6q0 0.1 0 0.1 0 0 0 0.1c-1.7 11.2 16.1 7.7 16.1 7.7 3.3-1.3 13.4-1.4 13.4-1.4 9.9 0.3 23.8 3 24.6 16.1zm-54.5-2.8c-17.4 16.5-3.6 32.5-3.6 32.5 17.8-13.9 3.6-32.5 3.6-32.5z" fill="url(#g15)"/>
						</g>
					</g>
				</g>
				<path id="&lt;Path&gt;" d="m381.9 309.7c-34.5-1.3-29.7 22.7-36.9 40.9-8.3 21-40.5 11.1-43.9 34.1-1.8 12.8-1.1 24.5-0.6 36.5 0.8 17.2 0.2 28.5 8.6 39 2.8 3.2 11.5 9.6 11.9 13.2 0.3 2.5 0.1 3.2-4.2 3.7-1 0.2-2.2-3.5-3-4.5-0.5-0.8 2.6 4.7 1.7 4.7-3.9 0-15.1-0.6-15.9-1.5-1.9-1.9 0.9 0.7 0.1-2.7-0.1-0.3 0.7-6.6 0.6-7-0.1-0.6-2.7-4.7-2.8-5.2-1.8-7.3-3.8-13.9-4.6-20-1.7-11.8-5-30.4-12.6-40.7-4.8-6.6-2.4-5.9-6.4 0.3-3 4.9-6 19-8.5 25.4-3.7 8.6-8.1 19.8-3.8 29.8 0.7 1.7 4.4 8.5 6.4 11 1.5 1.9 2.6 3 3.8 5.2 1.2 2-0.3 2.2-3.9 2.7-0.6 0.3-3.1-4-3.9-3.8-0.9 0.1 2.3 4.8 1.4 4.8-6.2 0.3-16.1 0.2-16.1-1.6 0-1.5 0.6-1.4 0.6-4.4 0-0.8 1.2-3.2 1.9-3.5 2-0.7 0.3-6.5 0.3-7.3 0.2-10.8 0.6-30.9 1.7-36.3 2-9.5 0-21-2.2-31.8-2.3-0.6-6.6 3.7-27.4 2.5-5-0.1-9.1-3.9-11.1 0.5-2 4.2-4.6 9.1-5.1 13.3-0.9 7.1-4.5 13.6-5.6 19.4-1 5.4-0.3 14 1.1 19.6 0.5 1.4 1.8 5.1 2.2 9.9 0.2 2.5 2 5.9 3.7 7.5 2 2.3 7.2 2.1 7.2 5.2-0.1 1.3 0.9 5.1-1.5 5.4-0.4 0.1-1 0.1-1.7 0.4-1 0.1-1.7-4.3-3.2-4.1-0.7 0 2 3.8 1.2 3.8-3.9 0.2-12.3 0.5-14.2-0.5-1.1-2.5-0.2-1.3-0.2-5-0.7-1.2 2.3-3.8 1.9-5.2-0.3-0.9-0.9-5.5-1.3-6.6-2.5-8.7-4.9-31.8-5.4-35.6-1.1-9.2-1.1-14.8-0.2-23.9 0.8-7.2 0.6-1.6 0 0-1 5.2 0.2 5-1.2 9.9-1.9 6.4-4 7-11.8 14-5.2 4.8-6.2 13.4-8.4 20.5-2.1 7.5-1.6 9.6 0.9 14.2 0.3 0.9 3.5 3.9 4.1 5 1.1 2.1 2.2 4.3 2.1 5.8-0.1 1.4-2.4 2.2-3.7 3-0.7 0.4-2.5-4.3-2.5-4.3-1.1 0.1 3.6 4.3 2.5 4.3-3.5 0-11.8 0.7-14.1-0.2-2.4-0.9-1.7-1.7-1.4-8.2 0.2-1.5 2.7-4.5 2.8-5.9 0.2-1.3-0.9-3.9-0.6-5.2 2.3-11.6 7.4-31.8 12.1-41.6 5.6-11.2-0.2-25.4 1.6-37.7 2.1-13.9 9.4-19.7 18.8-29.5 3.3-3.5 8.7-7.5 10.9-12 2.6-5.5-0.2-12.2 3.4-17.7 1-1.6 4.3-2.5 5.5-4.5 1.7-2.9 0.3-5.3 1.5-8.2 2.8-7.3 7.7-7.4 15-7.5 12.7-0.2 25.3-1 37.1-2.2 11.4-1 25.5-1.2 31.4 10 5.2 9.9 0.8 23.2 4.2 33.6 2.6 8.3 11.8 21.3 21.5 12.2 7.2-7 7.6-22.8 8.5-31.6 0.6-6.3 1.6-10.7 4-16.4 1.4-3.1 1.8-4.8 2.8-7.8 0.5-2-5-6.3-3.7-9 4.3-0.1 5.4-0.6 11.2 2.1 3.1 1.3 6.6 4.9 9 5.2 9.7 1.9 23.9 4.7 32.3 10.1 0 0 0.8 7.9-4.5 7.1 0 0 3 5.1-1.4 4.9z" fill="url(#g16)" stroke="#005aa9" stroke-width="3.3"/>
				<g id="&lt;Group&gt;">
					<path id="&lt;Compound Path&gt;" fill-rule="evenodd" d="m509.2 224.6l-7.5 12.3c6.9 5.5 8.5 11.3 4.7 17.4-1.1 1.6-1.8 2.4-2.4 2-0.2-0.3-0.4-0.7-0.2-1.1 0-0.5 0.2-0.9 0.3-1.4 0.5-2.8 0-5.3-1.3-7.4-0.8-1.3-2.4-2.9-4.8-5.1-2.7-2.2-4.5-4-5.6-5.5-1.5-1.9-2-3.7-1.8-5.7 0.3-2.1 0.3-3.6-0.2-4.5-0.1-0.1-0.7-2.4-1.8-7.2-1-5-1.5-7.4-1.4-7.6 0.3-0.4 0.7-0.4 1.5 0.1zm-14.7-3.3c0 1.7 0 2.6 0.2 2.8q0.3 1 0.9 1.8c0.3 0.6 0.4 1.6 0.2 2.5-0.2 1.1 0.3 2.4 1.4 4.4l4.2-6.9z" fill="#ffffff" stroke="#ffffff" stroke-width=".5"/>
					<path id="&lt;Compound Path&gt;" d="m519.9 210.4c-0.5 0.8-1.3 1.2-2.3 1.3-1 0.1-1.8-0.2-2.6-0.8-0.7-0.6-1.2-1.5-1.5-2.5 0-0.9 0.1-1.8 0.8-2.7 0.6-0.6 1.3-1.1 2.3-1.2 1.1-0.2 2 0.1 2.7 0.8 0.8 0.6 1.2 1.4 1.4 2.4 0.1 1-0.2 1.9-0.8 2.7z" fill="#ffffff" stroke="#ffffff" stroke-width=".5"/>
					<path id="&lt;Compound Path&gt;" d="m533.8 202.6c-2.9-3.1-4.1-7.5-3.4-13.5-2.8-0.7-4.9-1.5-6.4-3.2-2.3-2.3-3.5-4.8-3.3-7.7 0.1-2 0.8-4.2 2-6.6 0.8-1.3 1.6-2.8 2.4-4.1 0.8-2.8 0.1-5.3-1.9-7.3l-0.7-0.6c-0.4-0.5-0.4-0.8-0.3-1 0.6-0.5 1.7 0 3.2 1.5 1.1 1.2 1.9 2.3 2.6 3.7 0.2 0.8 0.5 1.8 0.5 2.8 0.1 0.9 0.2 1.5 0.3 1.6 0.1 0.2 0.9 0.3 2.5 0.5 1.4 0.1 2.4 0.4 2.6 0.8 0.6 0.6 0.7 1 0.5 1.4-3.1 0.2-5.4 0.9-6.6 2.2-0.9 1-1.3 2.2-1.3 3.9 0 1.6 0.8 3.2 2.1 4.6 1.1 1.1 2.5 1.7 4.1 1.6 1.7-0.2 3.1-0.9 4.4-2.3 0.8-0.9 1.3-2 1.4-3.1 0.1-0.8 0-1.8-0.4-2.8-0.2-0.9-0.3-1.2-0.2-1.2 0.1-0.4 0.7-0.4 1.3 0 0.7 0.2 1.2 0.5 1.6 0.9 0.1 0.1 0.4 0.5 0.7 0.9 0.3 0.3 0.5 0.6 0.7 0.7 0.5 0.4 0.8 0.4 1.2 0.1 0.8-0.7 1.7-1.1 2.4-1.3 3.4-1.3 5.2-1.8 5.3-1.8 0.4 0.5 0.1 0.9-0.6 1.8l-10.2 10.9c-2.2 2.4-3.5 4.5-3.7 6.3-0.5 2.6 0.5 5 3.1 7.5 1.9 1.9 4.2 2.8 6.6 2.6 2.6-0.4 5-1.8 7.3-4.4 0.9-0.8 1.8-2 2.6-3.4 0.9-1.4 1.3-2.2 1.4-2.2 0.4-0.3 0.8-0.4 1.1-0.1 0.5 0.4 0.2 1.8-0.7 4-1 2-2.2 4-3.5 5.4-3 3.4-6.4 5.2-10 5.4-3.9 0.2-7.4-1.4-10.7-4.5z" fill="#ffffff" stroke="#ffffff" stroke-width=".5"/>
					<path id="&lt;Compound Path&gt;" d="m564.5 162.3c-0.7 0.6-1.6 0.9-2.6 0.9-0.8 0-1.7-0.5-2.4-1.3-0.6-0.7-0.8-1.7-0.8-2.7 0-1 0.5-1.8 1.2-2.4 0.7-0.8 1.6-1.1 2.6-1 0.9 0.1 1.8 0.7 2.4 1.2 0.6 0.9 0.9 1.8 0.8 2.8-0.1 1.1-0.5 1.8-1.2 2.5z" fill="#ffffff" stroke="#ffffff" stroke-width=".5"/>
					<path id="&lt;Compound Path&gt;" fill-rule="evenodd" d="m599.3 135l-11.4 8.6c4.4 7.6 3.8 13.6-2 17.8-1.6 1.2-2.5 1.5-2.9 0.9q-0.4-0.5 0-1c0.4-0.4 0.6-0.9 1-1.3 1.3-2.4 1.9-4.6 1.4-7.2-0.3-1.6-1.1-3.8-2.7-6.6-1.6-3.3-2.6-5.7-3.2-7.3-0.6-2.4-0.4-4.3 0.6-6 1-2 1.3-3.4 1.3-4.3-0.1-0.2 0.2-2.6 0.9-7.5 0.9-4.8 1.3-7.4 1.5-7.5 0.5-0.3 0.8-0.1 1.3 0.6zm-12.5-8.8c-0.5 1.6-0.7 2.3-0.7 2.7q0 0.9 0.2 2c0 0.8-0.2 1.5-0.7 2.4-0.6 0.9-0.7 2.4-0.5 4.7l6.6-4.8z" fill="#ffffff" stroke="#ffffff" stroke-width=".5"/>
					<path id="&lt;Compound Path&gt;" d="m614.3 126c-0.8 0.5-1.7 0.6-2.8 0.3-0.8-0.3-1.5-0.9-2-1.7-0.5-0.9-0.6-1.7-0.4-2.9 0.2-1 0.8-1.8 1.6-2.2 0.8-0.5 1.8-0.6 2.7-0.4 1.1 0.4 1.8 0.9 2.2 1.7 0.5 1 0.6 2.1 0.3 3-0.3 0.9-0.7 1.6-1.6 2.2z" fill="#ffffff" stroke="#ffffff" stroke-width=".5"/>
					<path id="&lt;Compound Path&gt;" d="m643 120c4.9-2.4 6.4-6.2 4.1-11.3l-3.2-6.8c-0.9-2.4-1.9-3.3-2.8-2.8-0.1 0-0.4 0.2-0.8 0.5q-0.3 0.4-0.7 0.6c-0.3 0.2-0.7 0.1-0.8-0.3-0.5-0.8-0.3-1.8 0.3-2.6 0.3-0.3 1-1 2.1-1.7 0.9-0.6 1.1-1 1-1.4 0-0.2-0.1-0.3-0.4-0.6-0.1-0.4-0.2-0.7-0.3-0.8-0.3-0.7-0.3-1.5-0.1-2.3 0.2-1.3 0.3-2.2 0.3-2.3 0-0.2-0.1-0.8-0.3-1.9-0.1-0.6 0-1.1 0.3-1.1 0.4-0.2 0.6 0 0.8 0.4l9.4 20.8q2.5 5.7 1.4 10.6c-1.1 3.5-3.8 6.4-8 8.4-3.7 1.8-7.2 2.1-10.6 0.6-3.2-1.4-5.7-3.9-7.3-7.6-1-2.1-1.6-4.8-1.7-7.6 0-2.8 0.5-4.5 1.3-5 0.5-0.1 0.8 0 1 0.4 0.1 0.3 0.2 1.4 0.4 3.6 0 2 0.3 3.9 1.2 5.4 1.1 2.6 2.9 4.5 5.2 5.3 2.6 1.1 5.3 1 8.2-0.5z" fill="#ffffff" stroke="#ffffff" stroke-width=".5"/>
					<path id="&lt;Compound Path&gt;" d="m646.3 77.1c-0.9 0.4-1.7 0.4-2.5-0.1-0.8-0.3-1.5-0.9-1.7-2-0.4-0.7-0.4-1.7 0.1-2.6 0.4-0.8 0.9-1.4 1.8-1.8 0.9-0.4 1.7-0.2 2.6 0.1 0.8 0.5 1.3 1.2 1.8 2 0.3 0.8 0.3 1.8-0.2 2.5-0.4 1-1 1.6-1.9 1.9zm1.5-8.9c-0.9 0.3-1.8 0.3-2.6-0.1-0.8-0.4-1.4-1.1-1.7-2.1-0.4-0.9-0.4-1.7 0.2-2.6 0.2-0.8 0.9-1.5 1.8-1.8 0.9-0.3 1.7-0.2 2.5 0.1 0.9 0.5 1.5 1.2 1.8 2.1 0.3 0.8 0.3 1.7-0.1 2.6-0.4 0.9-1 1.4-1.9 1.8zm28.4 29.1l-26 9.8-2-5.8 9.4-3.5-1.6-4.6c-0.3-1-0.8-1.4-1.6-1.1-0.2 0.1-0.3 0.3-0.7 0.5-0.2 0.2-0.4 0.3-0.7 0.4-0.4 0.2-0.6 0-0.8-0.3-0.3-1.1 0.2-2.1 1.7-3.3 1.4-1.2 2.1-2.1 1.9-2.6 0-0.1 0-0.1-0.1-0.3 0-0.2-0.2-0.2-0.2-0.4-0.4-1.4-0.6-2.7-0.2-3.4 0.5-0.9 0.7-1.8 0.5-2.9 0-0.2 0-0.5-0.1-0.8-0.2-0.5 0-0.6 0.1-0.7 0.5-0.1 0.6 0.1 0.9 0.7l5.6 17 6.9-2.4-2-5.8q-0.7-1.7-2.2-1.1c-0.1 0-0.4 0-0.6 0.3-0.2 0-0.4 0.2-0.5 0.3-0.2 0.1-0.5-0.1-0.6-0.6-0.4-0.9 0.1-2 1.6-3.1 1.5-1.1 2-1.8 1.9-2.1 0-0.2-0.1-0.4-0.3-0.6-0.1-0.2-0.3-0.5-0.4-0.6-0.1-0.7-0.1-1.5 0.3-2.4 0.4-1.4 0.6-2 0.7-2.3 0-0.4-0.2-1-0.4-2 0-0.5 0-0.9 0.1-1 0.5 0 0.7 0.1 1 0.7zm-21.9-23.1c-0.8 0.2-1.6 0.2-2.6-0.2-0.7-0.5-1.3-0.9-1.6-2-0.3-0.9-0.3-1.8 0.1-2.5 0.3-1 1.1-1.6 1.8-2 1-0.3 1.9-0.3 2.6 0.3 0.9 0.3 1.5 1 1.8 2 0.3 0.8 0.3 1.7-0.1 2.5-0.4 0.9-1 1.4-2 1.9z" fill="#ffffff" stroke="#ffffff" stroke-width=".5"/>
					<path id="&lt;Compound Path&gt;" d="m723.5 61.7l25.6 19.8-56.7 9.5c-0.6 0.1-1-0.1-1.1-0.5 0-0.5 0.3-0.8 1.1-0.9 0.8-0.4 1.4-0.8 1.9-1.1 0.3-0.4 0.8-1 1.3-1.5 0.5-0.4 1.1-0.7 1.7-0.8l1.2-0.3q0.3 0 0.3-0.3l-0.1-0.8c-0.1-1 0-2.1 0.6-3 0.6-0.9 0.9-1.3 1.1-1.3 0.3 0 0.4 0.2 0.7 0.6 0.4 0.7 0.7 1.1 1.2 1.3 0.7 0.3 1.6 0.3 2.9 0.1l29.7-5-14.4-10.8c-1.6-1.3-2.8-2.1-3.1-2.6-1.2-1.1-2-2.5-2-4.2-0.3-1.1 0.2-3.4 1.3-6.8 1.1-3.6 1.6-5.9 1.4-7.3l-0.2-1.1c-0.1-0.5 0-0.6 0.3-0.6 0 0 0.2 0 0.7 0.5l37.7 29.4 0.9-0.3 1 6.2-2.3 0.4c1.5 1.3-9.8-7.2-34-25.7-0.7 2.4-1.1 3.8-1 4.2 0.2 0.9 0.8 1.9 2.3 2.9zm-1.5 35.5q-1.5 0.3-2.5-0.6c-0.8-0.3-1.2-1.3-1.3-2.1-0.2-0.9 0-1.9 0.5-2.7 0.6-0.7 1.2-1.1 2.2-1.3 0.9-0.2 1.7 0.1 2.5 0.6 0.6 0.5 1.1 1.3 1.2 2.1 0.2 1 0 2-0.6 2.7-0.5 0.7-1.1 1.2-2 1.3zm7.8-1.2c-0.9 0-1.6-0.1-2.5-0.8-0.6-0.3-1.1-1.2-1.2-2-0.2-1 0.1-1.9 0.6-2.6 0.5-0.9 1.2-1.2 2.1-1.4 1-0.2 1.7 0 2.5 0.5 0.7 0.6 1.2 1.4 1.3 2.4 0.1 0.8 0 1.7-0.6 2.5-0.6 0.6-1.3 1.2-2.2 1.4z" fill="#ffffff" stroke="#ffffff" stroke-width=".5"/>
					<path id="&lt;Compound Path&gt;" d="m757.5 81.7l-0.2-5.8 17.8-0.3-0.1-5.1c0-1.5-0.4-2.4-1.2-2.4-0.2 0-0.6 0.1-1 0.4-0.6 0.3-0.8 0.4-1.2 0.4-0.4 0-0.6-0.2-0.6-0.8 0-1.1 0.4-1.8 1.2-2.4 0.6-0.3 1.3-0.7 2.4-1.1 0.9-0.3 1.3-0.6 1.3-0.8 0-0.2 0-0.6 0-0.9 0-0.3-0.1-0.7-0.1-0.9 0-0.6 0.3-1.4 1-2.4 0.9-1.2 1.5-2 1.6-2.2 0.1-0.3 0.2-1 0.4-2 0.1-0.7 0.4-0.9 0.6-0.9 0.5 0 0.6 0.2 0.6 0.7l0.5 26zm14.7 11.5c-0.9 0-1.7-0.3-2.5-1-0.6-0.8-1-1.5-1-2.6 0-0.9 0.3-1.8 0.9-2.7 0.7-0.6 1.6-0.9 2.6-0.9 1-0.1 1.7 0.3 2.4 0.9 0.7 0.7 1 1.6 1.1 2.5 0 1.3-0.3 2-1.1 2.8-0.5 0.7-1.3 1-2.4 1z" fill="#ffffff" stroke="#ffffff" stroke-width=".5"/>
					<path id="&lt;Compound Path&gt;" d="m788.2 95.6c-2.7 0-4.2-0.6-4.2-1.4 0.1-0.6 1.2-1 3.1-1q4.2-0.1 6.7-1.2c4.7-2.4 7-5.8 7.3-10.8 0.1-1.9-0.4-3.5-1.8-5.1-1.1-1.6-2.5-2.5-4-2.6-0.3 0-0.7 0-1.3 0.1-0.7 0-1.1 0-1.5 0-0.2 0-0.3-0.1-0.3-0.5 0-1.1 0.8-2.1 2.4-3.1 1.5-1 2.3-1.5 2.3-1.6 0-0.3 0-0.7 0-1.4 0.1-0.6 0.1-0.9 0.1-1.1 0-1.2 0.5-2.6 1.5-4.2 0.8-1.6 1.6-2.4 2.2-2.3 0.1 0 0.1 0.3 0.1 0.6 0 0.3 0 0.7-0.1 1.2-0.1 0.6-0.2 0.8-0.2 1.3-0.1 1.6 0.3 3.5 1.6 5.4 1 1.7 2 3.6 3 5.2 1.1 2.4 1.6 5 1.3 7.8-0.2 5.8-2.5 10.1-6.8 12.4-3 1.9-6.9 2.7-11.4 2.3z" fill="#ffffff" stroke="#ffffff" stroke-width=".5"/>
					<path id="&lt;Compound Path&gt;" fill-rule="evenodd" d="m825.7 85.2l-20.4-3.3 0.9-6 17.8 2.6c0.5-0.3 1.2-0.6 2.1-0.8 0.8-0.2 1.5-0.6 2-0.9-1.3-1.4-2.4-2.3-3.1-2.8-1.3-0.9-3.1-1.4-5.1-1.7q-0.4 0-1.2 0c-0.5 0-0.9 0-1.2 0-0.5-0.2-0.6-0.3-0.6-0.7 0.3-1.4 1.5-2.8 3.5-4.2 1.1-0.7 2.7-1.5 5.6-2.7 2.1-0.9 3.1-1.6 3.2-2 0-0.1 0-0.7 0-1 0-0.5 0-0.9 0-1.1 0.1-1.5 1.1-2.8 2.6-4 1.1-0.7 2-1.3 2.9-2 0.3-0.4 0.7-1.2 1.1-2.7 0.2-0.9 0.5-1.4 1.1-1.4 0.2 0.2 0.5 0.6 0.3 1.7-0.1 1.3-0.1 2.3 0.2 2.8 0.6 1.4 1.3 2.7 2.1 4 1 1.6 1.4 3.2 1.1 4.9-0.1 0.2-0.1 0.5-0.1 0.8-0.2 0.3-0.2 0.6-0.2 0.7-0.2 0.4 0.2 0.9 1.3 1.4 1.5 1 3 2.3 4.3 4.2 2.3 2.6 3.3 4.9 3.1 6.5 0 0.2-0.3 0.4-0.8 0.2-0.2 0-0.7-0.2-1.4-0.3-0.6-0.1-1.1-0.2-1.5-0.2-2.4-0.4-5.2 0.1-8.7 1.5 0.3 0.5 0.8 0.8 1.4 1.1 0.7 0.5 1.2 0.9 1.5 1.3l10.2 1.6-0.8 6.1-13-2.1c-0.6-1.8-1-2.9-1.2-3.3-0.2-0.3-1.1-1.5-2.5-3.6-2.4 1.5-4.5 3.3-6.5 5.4zm6.5-19.5c0 0.3 0 0.5 0 0.8q0 0.7 0 0.9c0 0.4-0.6 0.7-1.8 1q-1.9 0.5-3.7 1.1c2.8 1.5 4.9 3.1 6.4 4.5 1.8-0.5 4.1-1.3 6.8-1.9-0.4-0.1-0.7-0.6-1.2-1.1-0.3-0.3-1-0.8-2.4-1.5-0.5-0.4-0.7-0.7-0.6-1.1 0-0.3 0.1-0.6 0.3-1 0.1-0.4 0.3-0.8 0.3-1 0.2-1.3-0.3-2.6-1.4-4.5-1.6 1.5-2.6 2.7-2.7 3.8z" fill="#ffffff" stroke="#ffffff" stroke-width=".5"/>
					<path id="&lt;Compound Path&gt;" d="m847 89l1.5-5.9 13.1 3.5 7.6-30.9c0.4-1.6 0-2.7-1.2-3.1-0.2 0-0.5 0-0.9 0.2-0.4 0-0.6 0.1-0.9 0-0.3-0.1-0.6-0.3-0.5-0.8 0.4-0.9 1-1.5 1.9-2.1 0.6-0.2 1.5-0.4 2.7-0.5 1-0.1 1.7-0.3 1.8-0.5 3.4-4.4 5.1-6.6 5.2-6.6 0.5 0.3 0.7 0.6 0.4 1.4l-12.5 50.2z" fill="#ffffff" stroke="#ffffff" stroke-width=".5"/>
					<path id="&lt;Compound Path&gt;" d="m879.3 98.3l-5-1.7 10.9-36.1c0.6-1.5 0.5-2.4-0.2-2.7q-0.5 0-1.2 0c-0.5 0.2-0.8 0.2-1.2 0-0.3-0.1-0.5-0.4-0.3-0.8 0.3-1.1 1-1.7 2-2.1q0.7 0 2.7 0c0.9-0.1 1.4-0.3 1.5-0.5 0-0.2 0-0.6 0.1-1 0.1-0.3 0.1-0.5 0.1-0.8 0.3-0.6 0.8-1.3 1.7-1.8 1.3-1.1 1.9-1.7 2.2-1.8 0.1-0.1 0.3-0.7 1-1.6 0.3-0.6 0.6-0.7 1-0.6 0.3 0 0.4 0.4 0.2 0.8z" fill="#ffffff" stroke="#ffffff" stroke-width=".5"/>
					<path id="&lt;Compound Path&gt;" d="m913.9 87.8c0-0.3 0-0.8 0-1.4-1.4 0.4-2.4 0.6-3.1 0.2-1-0.3-1.5-1-2-1.9-0.3-1-0.2-2 0.1-2.7 0.5-1.1 1.1-1.6 1.9-1.9 0.8-0.4 1.7-0.4 2.6 0 1.2 0.6 2.1 1.7 2.4 3.2 0.3 1.6 0 3.1-0.5 4.5-0.9 2.2-2.6 4.2-4.9 5.8-2.2 1.4-4.4 2.7-6.5 4.1-2.4 1.7-4.1 3.6-5 5.9-1.3 2.7-1.3 5.4-0.5 8.2 0.9 3.1 2.8 5.2 5.6 6.3 2.5 1.4 4.9 1.4 7.4 0.6 2.5-1.2 4.2-2.9 5.3-5.2 1-2.6 1.3-5.1 1-7.8-0.5-2.6-1.5-4.4-3.3-5.2-0.3-0.1-0.5-0.2-1-0.2-0.6-0.2-1-0.2-1.3-0.4q-0.5-0.3-0.3-0.8c0.3-0.6 0.9-1 2.1-1.7q1.5-0.5 2.8 0l0.7 0.4c0.6 0.3 0.9 0.3 1.3-0.5 0-0.1 0-0.3 0.2-0.4 0-0.3 0.2-0.4 0.2-0.6 0.7-1.4 2-2.7 3.5-3.9 1.6-1.1 3-1.4 3.9-1.1 0.2 0.2 0.2 0.3 0.1 0.5-0.1 0.2-0.5 0.6-1.2 1.2-0.9 0.6-1.5 1.3-1.9 2.2-0.6 1.6-0.8 3.4-0.6 5.7 0.4 4.2 0.5 6.4 0.5 6.6 0 2.8-0.5 5.6-1.7 8.2-1.8 4.2-4.5 7-7.8 8.5-3.6 1.6-7.2 1.5-10.6-0.1-3.7-1.7-6.3-4.6-7.7-8.7-1.4-4.1-1.2-8 0.5-12 1.1-2.5 2.9-4.9 5.7-6.8 2.3-1.4 4.7-2.7 7.1-4.1 2.6-1.4 4.3-3.1 5-4.7z" fill="#ffffff" stroke="#ffffff" stroke-width=".5"/>
					<path id="&lt;Compound Path&gt;" d="m937.5 125l-8.2-4.6 17.2-33.4c0.8-1.4 0.8-2.3 0.2-2.7-0.2-0.1-0.6-0.1-1.1-0.1-0.7 0-1-0.3-1.3-0.4-0.3-0.1-0.3-0.4 0-0.9 0.3-0.9 1.2-1.3 2.2-1.4 0.5-0.1 1.5 0 2.6 0.3 1 0.1 1.5 0 1.6-0.2 0.1-0.3 0.2-0.7 0.3-0.9 0-0.4 0.2-0.6 0.3-0.8 0.3-0.6 0.9-1.2 2.1-1.6 1.4-0.6 2.1-1.1 2.5-1.3 0-0.2 0.4-0.5 1.2-1.4 0.4-0.4 0.7-0.6 0.9-0.4q0.6 0.3 0.2 0.9l-21.4 41.6 3.5 2z" fill="#ffffff" stroke="#ffffff" stroke-width=".5"/>
					<path id="&lt;Compound Path&gt;" fill-rule="evenodd" d="m936.3 123.9l3.1-5.2 9.5 6.2q2.7-2.3 5.6-3c1.6-0.2 2.5-0.5 2.6-0.6 0-0.2 0.2-0.5 0.3-0.9 0.1-0.3 0.2-0.5 0.3-0.7 0.4-0.7 1.2-1.5 2.2-1.9 0.8-0.3 1.3-0.3 1.7-0.2 0.1 0.1 0.1 0.3-0.1 1.1-0.3 0.4-0.5 1-0.5 1.3 0.1 1.6 0.7 3 1.7 4.7 1.3 2.1 2.2 3.6 2.5 4.8 0.7 2.6 0.7 4.7-0.2 6.6l-2.3 3.7c-0.9 1.2-2.2 2-4.2 2.4-1.1 0.1-2.4 0.2-3.6 0.4-0.4 0-1.4 0.6-3 2-1.2 1.3-2 1.7-2.5 1.3-0.3-0.2-0.3-0.7 0-1.4 0.4-0.9 0.4-2.1 0.2-3.1-0.3-0.5-0.7-1.3-1.4-2.4-0.9-1-1.4-2.2-1.6-2.9-0.5-1.6-0.6-3.5-0.5-5.7zm22.7 10.2c0.7-0.8 0.8-1.9 0.5-2.9-0.2-1-0.8-1.9-1.7-2.6-0.9-0.6-1.9-0.7-2.9-0.6-1.1 0.4-2 1-2.4 1.9-0.5 0.8-0.8 2-0.5 3.1 0.3 1.1 0.8 1.8 1.8 2.4q1.3 1 3 0.7c1-0.4 1.7-1.1 2.2-2z" fill="#ffffff" stroke="#ffffff" stroke-width=".5"/>
					<path id="&lt;Compound Path&gt;" d="m995.3 121.4l0.8-1.9c1.9 1.2 2.8 1.8 3 1.8 0.4 0.3 1.2 0.6 2.6 0.8l1-0.2c-2.2-1.6-2.8-3.2-1.5-5 1-1.3 2.3-1.6 4.3-0.9 1.7 1.7 1.9 3.5 0.6 5.3-2.3 3.1-5.9 3.1-10.8 0.1z" fill="#ffffff" stroke="#ffffff" stroke-width=".5"/>
					<path id="&lt;Compound Path&gt;" d="m961.3 139.7l3.7-5 8.7 7.2c0.8 0.5 1.2 0.7 1.4 0.4 0.1 0 0.4-0.7 0.6-2.1 0.4-1.3 0.9-2.5 1.7-3.6 2.8-3.7 6.2-5 10.4-3.9 2.5 1 5.2 1.9 7.8 3.1 2.7 0.3 4.9-0.8 6.6-3.2l0.9-0.8c0.2-0.4 0.3-0.5 0.6-0.3 0.3 0.3 0.4 0.6 0.1 1.2-0.3 0.7-0.5 1.4-0.9 1.9-1.2 1.5-2.4 2.6-3.5 3.4-0.8 0.4-1.8 0.7-2.7 1-0.9 0.2-1.3 0.3-1.6 0.6 0 0.2 0 0.8 0 2.1 0.1 1.4-0.2 2.4-0.9 3.5-0.3 0.3-0.5 0.7-0.8 0.3-0.6-2.7-1.5-4.4-2.7-5.4-1.3-0.9-2.8-1.5-4.4-1.2-1.6 0.3-2.9 1.2-4 2.5-1 1.5-1.6 3.1-1.1 4.9 0.2 1.5 0.9 2.8 2.3 3.8 1 0.8 1.9 1.2 3.1 1.2 0.7 0 1.5-0.2 2.6-0.4 0.7-0.4 1.3-0.5 1.3-0.3 0.5 0.3 0.2 1.2-0.6 2.3-0.3 0.4-0.7 0.7-1.2 1.2-0.6 0.4-0.8 0.8-0.9 0.8-0.2 0.3-0.2 0.5 0.2 0.8 0.1 0.1 0.3 0.3 0.5 0.5 0.5 0.3 0.6 0.3 0.7 0.4 0.7 0.4 0.9 1.3 1.1 2.4 0.3 1.3 0.7 2.3 1 2.8 0.3 0.4 0.5 0.8 0.8 1.1q0.4 0.4 0.2 1c-0.4 0.3-0.8 0.3-1.6-0.3z" fill="#ffffff" stroke="#ffffff" stroke-width=".5"/>
					<path id="&lt;Compound Path&gt;" d="m1072.3 177.8l-36.5 34.4-30.7-35.2c-0.6-0.9-0.9-1.4-0.6-1.7 0.3-0.3 0.6-0.1 1.1 0.3 1 0.6 1.8 1.1 2.5 1.5q0.8 0 1.7 0.2c0.6 0.2 1.2 0.5 1.9 1.1 0 0.2 0.1 0.2 0.3 0.5 0.1 0.1 0.3 0.4 0.4 0.4q0.3 0.3 1 0c0.8-0.7 1.3-1 1.5-1.1 1.7-0.6 2.8-0.7 3.2-0.2 0.3 0.2 0.2 0.6-0.1 1-0.3 0.5-0.4 1.3-0.6 1.6 0 0.8 0.4 1.5 1.1 2.6l18.2 20.8 21.8-20.4c0.7-0.7 1.1-1.2 1.3-1.6 0.1-0.4-0.2-0.9-0.6-1.5-0.1-0.2-0.4-0.2-0.7-0.4-0.4-0.3-0.5-0.5-0.6-0.6-0.3-0.2-0.2-0.2 0-0.5 0.8-0.9 2.2-0.9 3.7 0 1.7 0.8 2.7 1.2 2.9 1 0.1-0.2 0.3-0.5 0.5-0.6 0.2-0.2 0.4-0.4 0.4-0.5 0.6-0.3 1.9-1.1 4.2-1.7 2.4-0.8 3.6-1.1 3.8-1 0.2 0.4-0.2 0.9-1.1 1.6zm-35.2 13.5c-0.3 0.3-0.5 0.1-0.9-0.3l-13.6-15.7c-0.6-0.6-0.8-1.1-0.4-1.4 0 0 0.7 0.2 2 0.6 1.5 0.5 2.1 0.8 2.2 0.8 0.1 0.1 0.1 0.3 0.2 0.4 0 0 0.1 0.2 0.4 0.2 0 0.2 0.6 0 1.4-0.5 0.9-0.6 1.5-0.7 1.7-0.2 0.1 0.1 0.1 0.5-0.1 1.1-0.3 0.8-0.1 1.5 0.7 2.4l0.5 0.7c0.6-1.6 1-2.4 1.6-3 1.5-1.2 3.3-1.5 5.2-0.6 1.4 0.8 2.8 1.5 4.1 2.2 1.2 0.2 2.2 0 3.3-0.5q1.7-0.8 1.7-0.8c0.4 0.4 0 1-0.8 1.7-1 0.9-2.7 1.6-5 1.9 0 0-0.2 0.4-0.4 1.1-0.3 0.7-0.5 1.2-0.9 1.5-0.3 0.4-0.5 0.4-0.7 0-0.2 0-0.2-0.4-0.1-1.1 0.1-0.7-0.1-1.2-0.7-1.8-0.5-0.6-1-0.8-1.7-0.8-0.7-0.1-1.4 0.1-1.9 0.6q-1.9 1.7 0 3.8c0.5 0.4 0.9 0.8 1.7 0.9 0.7 0.1 1 0.1 1 0.1 0.2 0.2 0.2 1.3-0.1 3.4-0.1 2.2-0.2 3.2-0.4 3.3z" fill="#ffffff" stroke="#ffffff" stroke-width=".5"/>
					<path id="&lt;Compound Path&gt;" d="m1034.5 211.6l4.8-3.5 10.2 14.6 3.3-2.5c1-0.9 1.4-1.6 0.9-2.5-0.1 0-0.3-0.3-0.7-0.6-0.4-0.1-0.7-0.2-0.7-0.6-0.2-0.2-0.1-0.4 0-0.6 1.1-0.9 2.4-0.6 4.1 0.3 1.7 0.9 2.8 1.1 3.6 0.7l1-0.8c0 0 1.3-0.4 3.6-0.8 2.3-0.5 3.5-0.5 3.5-0.5 0.2 0.2 0.2 0.7-0.4 0.9l-19.9 15zm35.1-1.4c-0.5-0.9-0.7-1.7-0.5-2.8 0-0.9 0.5-1.8 1.3-2.3 0.7-0.6 1.7-0.8 2.5-0.7 1.1 0.2 1.7 0.7 2.4 1.3 0.5 1 0.7 1.8 0.5 2.8-0.2 1-0.6 1.7-1.4 2.3-0.8 0.6-1.6 0.8-2.6 0.7-1-0.1-1.6-0.6-2.2-1.3z" fill="#ffffff" stroke="#ffffff" stroke-width=".5"/>
					<path id="&lt;Compound Path&gt;" d="m1044.9 248.5c-0.6-0.8-0.6-1.7-0.4-2.7 0.3-1 0.9-1.8 1.6-2.2 0.8-0.5 1.7-0.7 2.6-0.4 0.9 0.1 1.8 0.6 2.2 1.4 0.5 0.9 0.6 1.7 0.4 2.7-0.1 1-0.6 1.7-1.6 2.2-0.9 0.6-1.7 0.8-2.6 0.6-0.9-0.1-1.7-0.7-2.2-1.6zm2-19.3l4.8-3 9.3 15.6 4.1-2.6c1.4-0.9 1.8-1.6 1.4-2.3-0.2-0.3-0.4-0.5-0.9-0.8-0.4-0.3-0.6-0.6-0.8-0.9-0.2-0.2 0-0.5 0.3-0.7 1-0.6 1.8-0.6 2.7-0.2 0.5 0.2 1.2 0.8 2.1 1.6 0.7 0.6 1.2 0.7 1.5 0.6 0-0.1 0.3-0.2 0.6-0.5 0.3-0.2 0.5-0.5 0.6-0.5 0.5-0.4 1.3-0.4 2.5-0.4 1.6 0.1 2.5 0.3 2.8 0.3 0.1-0.2 0.8-0.3 1.8-0.6 0.5-0.2 1-0.2 1.1 0.2 0.1 0.2 0 0.5-0.3 0.8l-21.3 13.7z" fill="#ffffff" stroke="#ffffff" stroke-width=".5"/>
				</g>
				<path id="&lt;Compound Path&gt;" fill-rule="evenodd" d="m501.6 562c-2.3-4.2-2.3-8.3-0.1-12.9 2.3-4.5 6.6-8.5 12.8-11.9 6.2-3.7 11.9-5.3 17-4.8 4.8 0.4 8.6 2.5 10.8 6.8 2.6 4.2 2.6 8.6 0.3 13-2.2 4.4-6.5 8.5-12.7 12-6.4 3.6-12 5.3-17.1 4.9-4.9-0.4-8.6-2.8-11-7.1zm2.7-1.2c2 3.3 8.9 1.7 20.9-5.1 11.5-6.5 16.3-11.5 14.3-15-1.8-3.4-8.6-1.8-20.5 4.8-11.7 6.7-16.6 11.7-14.7 15.3z" fill="#fefefe"/>
				<path id="&lt;Compound Path&gt;" d="m549.2 554.1l9.4 12.3-15.1 23.6 27.1-7.9 7.8 10.5-2.2 1.8c-1.3-1.8-2.3-2.5-3.1-2.4-0.7 0.2-2.3 1-4.2 2.6l-21.3 16.4c-2 1.4-3.2 2.6-3.6 3.2-0.5 0.8 0.1 2 1.3 3.7l-2.3 1.6-9.9-13.3 2.1-1.6c1.5 1.7 2.8 2.1 4.1 1.2l2.8-2 22-16.7-30.7 8.8-2.5-3.1 17.5-27.4-22.2 17-2.7 2.3q-2.1 1.5 0 4.3l-2.4 1.7-7.2-9.7 2.3-1.6c1.2 1.4 2.2 2.2 3 2.1 0.7-0.2 2.2-1 4.3-2.6l21.2-16.2c2-1.5 3.2-2.6 3.6-3.3 0.4-0.7-0.1-2-1.4-3.6z" fill="#fefefe"/>
				<path id="&lt;Compound Path&gt;" fill-rule="evenodd" d="m544.7 620.7l2-2 0.7 0.7c0.8 0.4 2 0.3 3.8-0.5l2.7-1.3 34.1-17.9 2.1 2-17.5 34.6-1.5 3.3c-0.9 1.6-0.6 2.9 0.3 3.9l-2 2.1-11-11.1 2-2.1c1.5 1.6 2.5 2 3.2 1.3 0.3-0.4 1.1-1.8 2.3-4.1l1.8-3.6-8.2-8.1-3.5 1.8c-2.4 1.2-3.6 2-4 2.5-0.8 0.5-0.3 1.4 0.8 2.7l-2 2zm17.5-4.1l6.9 6.8 7.2-14.3z" fill="#fefefe"/>
				<path id="&lt;Compound Path&gt;" d="m594.6 666.1l1.2-37.8-12.9 16.9-2 2.7c-1.2 1.4-0.6 2.8 1.5 4.7l-1.7 2.1-10.1-7.9 1.8-2.3c1.7 1.3 2.8 1.7 3.4 1.5 0.8-0.4 1.9-1.6 3.6-3.6l16.4-21.1c1.5-2 2.5-3.4 2.6-4.2 0.1-0.8-0.7-1.8-2.1-3.2l1.6-2.2 6.9 5.4-1.2 37.6 13.1-17 2.1-2.8c1.2-1.4 0.6-2.8-1.6-4.5l1.7-2.2 10.1 7.8-1.7 2.4c-2-1.7-3.8-2-4.7-0.7l-2.3 2.9-22.1 28.2z" fill="#fefefe"/>
				<path id="&lt;Compound Path&gt;" fill-rule="evenodd" d="m618.4 681.7l1.2-2.5 1.1 0.5c0.8 0.2 1.9-0.3 3.4-1.6l2.1-2 27.4-27.3 2.4 1.3-6.5 38.3-0.5 3.5c-0.2 1.8 0.5 3 1.6 3.8l-1.3 2.5-13.7-7.4 1.2-2.4c1.9 0.9 3.1 1 3.4 0.2 0.3-0.5 0.6-1.9 1.1-4.6l0.7-3.9-10.3-5.4-2.9 2.7c-1.9 1.8-2.9 3-3.2 3.5-0.3 0.7 0.2 1.6 1.8 2.3l-1.3 2.6zm15.2-9.2l8.8 4.6 2.6-15.6z" fill="#fefefe"/>
				<path id="&lt;Compound Path&gt;" fill-rule="evenodd" d="m650.6 698.8l0.9-2.7c2.7 0.9 4.2 0.7 4.8-0.9l1.3-3.3 9.8-25 1.2-3.3c0.6-1.5-0.4-2.6-2.8-3.7l1-2.8 12.2 5 1.6 0.4 2.2 0.8 2.3 0.9c7.5 2.9 10 7.8 7.4 14.5-2.1 5.5-5.9 8.4-11.3 8.5l0.8 14.8c0.1 3.5 0.8 5.9 2.3 6.9l-1 2.6-9.5-3.7-1-22.2-2.7-1-4.1 10.6-1.1 3.4c-0.4 0.9-0.5 1.5-0.4 1.8 0.4 0.4 1.2 1 2.6 1.6l-1.1 2.7zm27.3-34.1l-6.6 17.2 1.2 0.6c5.3 2 9.1-0.2 11.5-6.4 2-5.3 0.8-8.7-3.8-10.5z" fill="#fefefe"/>
				<path id="&lt;Compound Path&gt;" fill-rule="evenodd" d="m683.9 711.6l0.7-2.7 0.9 0.1c1 0.2 2-0.7 3.1-2.3l1.7-2.5 20.4-32.7 2.8 0.8 2.2 38.7 0.4 3.6c0.1 1.8 0.9 2.8 2.3 3.2l-0.7 2.8-15.1-4 0.6-2.9c2.1 0.7 3.3 0.5 3.5-0.4 0.2-0.4 0.1-2 0-4.7l-0.2-3.9-11.4-3-2.1 3.3c-1.4 2.3-2.1 3.6-2.2 4.2-0.2 0.8 0.5 1.6 2.1 1.9l-0.6 2.8zm12.9-12.4l9.5 2.4-1.1-16z" fill="#fefefe"/>
				<path id="&lt;Compound Path&gt;" fill-rule="evenodd" d="m719.5 721l0.3-2.9c2.7 0.4 4.2-0.2 4.4-1.9l0.7-3.5 3.8-26.5 0.3-3.5c0.3-1.6-0.8-2.7-3.6-3l0.4-2.9 18.7 2.9q11.8 1.5 10.4 11.6c-0.7 5-4.4 8.3-11.1 10.1 7.2 2.7 10.5 7.2 9.5 13.2-1 7.3-6.1 10.3-15 9.2zm16-19.4l-1.7 12.4c-0.5 2.6-0.5 4.3-0.2 5.1 0.2 0.7 1.3 1.2 2.9 1.4 4 0.6 6.4-2 7.3-7.6 0.9-6.7-1.6-10.4-7.4-11.1zm0.3-2.7l1 0.1c5.2 0.7 8.3-1.7 9.2-7.8 0.9-5.5-1.6-8.7-7-9.5l-0.6-0.1z" fill="#fefefe"/>
				<path id="&lt;Compound Path&gt;" fill-rule="evenodd" d="m773.6 727l-0.1-2.9c2.7 0 4.1-0.8 3.9-2.5l0.2-3.6-0.8-26.7-0.2-3.6c-0.1-1.7-1.4-2.5-4-2.3l-0.1-2.9 18.9-0.6c7.9-0.2 11.9 3 12.1 9.8 0.2 5.3-3 9.1-9.4 11.9 7.8 1.5 11.6 5.3 11.8 11.4 0.2 7.5-4.2 11.3-13.1 11.5zm12.4-24.5h1c5.3-0.2 7.9-3.3 7.6-9.3 0-5.6-3-8.3-8.5-8.2h-0.6zm0.1 2.8l0.3 12.6c0.1 2.5 0.3 4.2 0.7 4.8 0.4 0.8 1.5 1.1 3.1 1.1 4.1-0.2 6-3.1 5.9-8.9-0.2-6.6-3.2-9.8-9-9.6z" fill="#fefefe"/>
				<path id="&lt;Compound Path&gt;" fill-rule="evenodd" d="m808.9 726l-0.3-2.7 1-0.4c0.7-0.2 1.4-1.3 1.9-3.2l0.6-2.9 6.4-38.1 2.7-0.5 17 35 1.7 3.2c0.8 1.6 2 2.2 3.4 2l0.3 2.9-15.5 2.1-0.3-2.8c2-0.3 3.1-0.9 3-1.8-0.1-0.5-0.7-2-1.9-4.3l-1.8-3.6-11.4 1.6-0.7 3.9c-0.4 2.6-0.7 4.1-0.6 4.7 0.2 1 1.1 1.1 2.8 1l0.3 2.7zm7.4-16.5l9.5-1.2-6.8-14.5z" fill="#fefefe"/>
				<path id="&lt;Compound Path&gt;" d="m875.5 713.3l-29.1-23.6 5.3 20.5 0.9 3.4c0.6 1.5 2.1 2 4.7 1.3l0.7 2.8-12.3 3.3-0.8-2.9c2-0.4 3.1-1.1 3.3-1.9 0.1-0.8-0.1-2.5-0.7-4.9l-7-25.8c-0.6-2.6-1.2-4.1-1.8-4.8-0.5-0.5-1.8-0.5-3.8-0.1l-0.6-2.6 8.3-2.3 29.2 23.6-5.5-20.7-1.1-3.5c-0.4-1.4-1.8-2-4.5-1.3l-0.8-2.7 12.4-3.4 0.7 2.7c-2.6 0.7-3.6 1.9-3.2 3.6l0.7 3.4 9.3 34.7z" fill="#fefefe"/>
				<path id="&lt;Compound Path&gt;" d="m886.4 709.8l-1.2-2.5c2.6-1.1 3.5-2.3 2.9-3.9l-1.2-3.4-10.3-24.6-1.4-3.3c-0.7-1.6-2.2-1.9-4.7-0.8l-1.1-2.7 15.6-6.4 1 2.7q-2 1-2.5 1.5c-0.4 0.4-0.4 1.2 0.2 2.1l1.2 3.5 4.2 10.1 6-14.7 1.3-3.5c0.6-1.7 0.8-2.4 0.7-2.9-0.1-0.3-0.9-0.3-2.1 0l-0.5 0.5-1.1-2.7 10.3-4.4 1.1 2.7-0.8 0.4c-1.2 0.4-2.3 1.7-3.1 3.5l-2 5-4.9 11.9 19 11.5 4.1 2.3c1.6 0.9 2.9 1 4.2 0.6l1.1 2.6-14.9 6.1-1.1-2.5c0.9-0.6 1.2-1 1-1.5-0.1-0.2-0.7-0.7-1.8-1.3l-2.9-2.1-12.2-8 4.5 11.1 1.5 3.1c0.7 1.6 2 1.9 4.1 1l1.2 2.6z" fill="#fefefe"/>
				<path id="&lt;Compound Path&gt;" d="m940.1 684.5l-4.9-7.8 2.8-1.6c2.7 4.3 6.3 5.2 10.6 2.4 3.8-2.2 4.1-5.5 1.5-9.9-1.6-2.6-4.6-4-8.8-4h-3.2c-7.3-0.1-12.4-2.3-15.2-6.9q-3.1-4.7-1.8-9.5c0.6-3.1 2.7-5.7 5.9-7.8 2.6-1.7 5.9-2.9 9.9-3.8l4.2 6.8-2.7 1.6c-2.5-4.1-5.5-4.9-8.9-2.8-3.4 2.2-3.9 5.3-1.4 9.2 1.3 2.2 4.1 3.3 8.4 3.4l3 0.1c7.8 0.2 13.1 2.5 15.8 7.1 2.2 3.5 2.7 6.8 1.8 10.2-0.8 3.6-3.1 6.3-6.9 8.8-2.7 1.6-6.1 3.1-10.1 4.5z" fill="#fefefe"/>
				<path id="&lt;Compound Path&gt;" d="m967.4 667.3l-5.3-7.2 7.1-5.2 5.3 7.2z" fill="#fefefe"/>
				<path id="&lt;Compound Path&gt;" fill-rule="evenodd" d="m978.5 659.5l-1.9-2 0.7-0.8c0.6-0.8 0.5-2-0.3-3.8l-1.1-2.8-15.4-35.4 2.1-1.9 33.2 20 3.1 1.6q2.4 1.3 4.2-0.1l1.8 2.1-11.9 10.3-1.9-2.2c1.7-1.3 2.1-2.3 1.6-3-0.4-0.4-1.7-1.3-4-2.6l-3.3-2-8.8 7.6 1.7 3.6c1 2.5 1.7 3.8 2 4.2 0.5 0.8 1.5 0.4 2.8-0.6l1.8 2.1zm-3-17.6l7.3-6.4-13.6-8.2z" fill="#fefefe"/>
				<path id="&lt;Compound Path&gt;" d="m1007.7 632.9l-6.4-6.1 6.2-6.5 6.5 6.3z" fill="#fefefe"/>
				<path id="&lt;Compound Path&gt;" fill-rule="evenodd" d="m1029.3 610.4c-2.9 3.8-6.9 5.4-11.9 4.8-5-0.5-10.3-3.1-15.8-7.5-5.5-4.7-9.1-9.4-10.5-14.1-1.5-4.9-0.6-9.1 2.3-12.8 3.2-3.7 7.1-5.4 12.1-5.1 5 0.7 10.2 3.1 15.7 7.8 5.8 4.5 9.3 9.3 10.7 14.2 1.3 4.6 0.6 9-2.6 12.7zm-2.1-2.1c2.6-3-1.5-8.9-12.3-17.6-10.2-8.5-16.6-11.2-19.1-8-2.6 3.1 1.4 8.9 11.8 17.4 10.5 8.6 16.9 11.4 19.6 8.2z" fill="#fefefe"/>
				<path id="&lt;Compound Path&gt;" d="m1042.3 591.9l-7.4-5.2 5.1-7.2 7.2 5.1z" fill="#fefefe"/>
				<path id="&lt;Compound Path&gt;" d="m1034.9 537.4l-1.7-0.9c-3.2-1.9-6-0.7-8.4 3.6-3.8 6.3 0.3 13.1 12 19.8 11.2 6.5 19.1 6.2 23.2-1.1 1.6-2.9 2.5-6.1 2.5-9.7l3.1 1.8c-0.2 3.9-1.4 7.8-3.6 11.6-3.2 5.5-7.5 8.7-12.7 9.7-5.3 1-11.2-0.2-17.5-4-6.4-3.6-10.5-7.9-12.3-13-1.8-4.9-1.1-10.3 1.9-15.7 2-3.2 4.5-6.5 7.7-9.5l7.6 4.3z" fill="#fefefe"/>
				<path id="&lt;Compound Path&gt;" d="m1069.3 546l-8.1-3.7 3.8-8 8 3.6z" fill="#fefefe"/>
			</g>
		</g>
	</g>
</svg>