<svg width="128" height="40" viewBox="0 0 128 40" fill="none" xmlns="http://www.w3.org/2000/svg">
<path d="M60.006 19.1214L69.2873 19.1243C69.2873 19.1243 67.3765 21.6204 65.2847 24.3525H76.1051C78.0326 21.8318 79.7921 19.534 80.0497 19.1938C81.2703 17.6013 81.551 16.1759 81.551 14.9161V13.1124C81.551 12.1989 80.9882 11.6951 80.1352 11.6951L60.006 11.6971C59.1774 11.6971 58.6211 12.1498 58.6211 13.0823V17.7346C58.6211 18.6691 59.1774 19.1214 60.006 19.1214Z" fill="white"/>
<path d="M0.207386 37.1911C-0.0488019 37.6162 -0.0476752 38.0626 0.102255 38.3568C0.2783 38.6997 0.673385 38.8926 1.10832 38.8926L7.69828 38.8953C8.53483 38.8953 9.27142 38.4565 9.69037 37.7909L16.9604 26.244H7.09158C3.69969 31.6383 0.284827 37.0619 0.207386 37.1911Z" fill="white"/>
<path d="M27.3065 26.2442H18.0781C18.3059 27.5222 20.0146 37.0452 20.1141 37.6033C20.2683 38.4685 20.8046 38.8969 21.6019 38.8969H27.9524C28.5352 38.8969 28.8288 38.7168 29.0969 38.3843C29.2831 38.1562 29.3648 37.8055 29.2756 37.2954L27.3065 26.2442Z" fill="white"/>
<path d="M55.7354 13.0825C55.7354 12.1498 55.1787 11.6973 54.3502 11.6973H48.7348C47.9064 11.6973 47.3485 12.1498 47.3485 13.0825L47.3467 23.6274L42.0242 14.1451C40.9744 12.4006 39.1786 11.7412 37.1012 11.6966L32.9586 11.6973C32.1281 11.6973 31.5723 12.1498 31.5723 13.0825V24.3525H38.5382L39.6026 26.2442H31.5725V37.5101C31.5725 38.4437 32.1306 38.8955 32.9588 38.8955H38.5731C39.4033 38.8955 39.958 38.4439 39.958 37.5101V26.8993L45.3199 36.4496C46.3695 38.1925 48.165 38.8487 50.2424 38.8953H54.35C55.1796 38.8953 55.7363 38.4437 55.7363 37.5085V26.2439H48.8185L47.7551 24.3523H55.7365L55.7354 13.0825Z" fill="white"/>
<path d="M24.9503 13.0134C24.7898 12.1257 24.1993 11.6998 23.4161 11.6998H20.6654C17.7953 11.6998 15.2715 13.2063 13.8555 15.4807C13.8555 15.4807 11.229 19.6607 8.28125 24.3525H26.9683L24.9503 13.0134Z" fill="white"/>
<path d="M80.4075 31.4697L70.6616 31.4686C70.6616 31.4686 72.5645 28.9816 74.6591 26.2442H63.8346C61.8614 28.8157 60.0879 31.1295 59.9821 31.268C58.5375 33.2673 58.4004 35.2879 58.4004 36.6866V37.4764C58.4004 38.3906 58.9645 38.8928 59.8191 38.8928H80.4075C81.236 38.8928 81.7925 38.4423 81.7925 37.5076V32.8555C81.7925 31.9231 81.2357 31.4697 80.4075 31.4697Z" fill="white"/>
<path d="M106.096 11.6987C108.001 11.6987 110.152 13.3326 110.154 15.5894C110.154 16.8555 109.744 17.837 109.147 18.7247C108.755 19.3066 108.46 19.9626 108.345 20.4381C108.216 20.9795 107.928 22.2769 109.537 22.3082C110.575 22.3262 113.142 21.4286 115.216 18.9435C116.81 16.951 117.763 14.4213 117.763 11.6685C117.763 5.22375 112.541 0 106.096 0H106.095C99.6508 0 94.4305 5.22375 94.4305 11.6685C94.4305 14.4213 95.3794 16.951 96.9739 18.9435C99.0475 21.4286 101.618 22.326 102.654 22.3082C104.263 22.2769 103.977 20.9797 103.848 20.4381C103.731 19.9626 103.437 19.3066 103.046 18.7247C102.448 17.837 102.039 16.8555 102.039 15.5894C102.042 13.3326 104.189 11.6987 106.095 11.6987H106.096ZM126.721 23.4912C126.245 23.099 125.403 22.5216 123.685 22.2638C121.301 21.9041 119.165 22.4646 117.879 22.9723C116.199 23.6339 114.115 25.1346 112.681 27.1012C111.172 29.1755 110.379 32.3065 111.134 35.5678C111.349 36.4948 111.578 37.0063 111.914 37.6472C112.374 38.5265 113.546 39.7431 114.586 39.9635C115.408 40.1357 116.048 39.6618 116.354 39.3095C118.444 36.9115 126.347 27.6257 127.204 26.4355C128.046 25.2627 127.496 24.1348 126.721 23.4912ZM94.3107 22.9723C93.0241 22.4646 90.8911 21.9041 88.5053 22.2638C86.7903 22.5216 85.9459 23.099 85.4709 23.4912C84.6956 24.1348 84.1442 25.2627 84.988 26.4355C85.8448 27.6257 93.7492 36.9118 95.837 39.3095C96.1414 39.6618 96.7834 40.1357 97.6069 39.9635C98.6447 39.7431 99.8163 38.5263 100.279 37.6472C100.614 37.0063 100.843 36.4948 101.058 35.5678C101.812 32.3065 101.021 29.1755 99.5105 27.1012C98.0749 25.1346 95.9942 23.6339 94.3107 22.9723Z" fill="white"/>
</svg>
