<svg width="110" height="35" viewBox="0 0 110 35" fill="none" xmlns="http://www.w3.org/2000/svg">
<path d="M90.6906 10.1015C92.3104 10.1015 94.1543 11.5112 94.1543 13.458C94.1543 14.5552 93.8054 15.4024 93.2921 16.1762C92.9631 16.6695 92.7123 17.2374 92.6089 17.6484C92.4975 18.1125 92.2533 19.2361 93.6238 19.2548C94.5152 19.2773 96.7094 18.4995 98.4818 16.3571C99.8454 14.6362 100.656 12.454 100.656 10.0736C100.656 4.51092 96.1999 0 90.6906 0C85.1799 0 80.7157 4.51092 80.7157 10.0736C80.7157 12.454 81.5251 14.6362 82.8901 16.3571C84.6652 18.4995 86.8579 19.2773 87.7481 19.2548C89.1186 19.2361 88.8705 18.1125 88.7643 17.6484C88.6635 17.2374 88.4115 16.6695 88.0798 16.1762C87.5678 15.4024 87.2176 14.5552 87.2176 13.458C87.2216 11.5112 89.0629 10.1015 90.6906 10.1015ZM108.319 20.2828C107.91 19.9437 107.193 19.449 105.722 19.2215C103.681 18.9157 101.859 19.3957 100.762 19.8319C99.3202 20.4039 97.5438 21.7043 96.3167 23.3985C95.0219 25.1885 94.3519 27.8909 94.9942 30.7075C95.1758 31.5001 95.3722 31.9469 95.6654 32.5027C96.0488 33.258 97.0596 34.3127 97.9446 34.5028C98.6436 34.6478 99.1902 34.2448 99.4582 33.9402C101.241 31.8698 107.997 23.852 108.73 22.8282C109.449 21.8108 108.979 20.8332 108.319 20.2828ZM80.6149 19.8319C79.5179 19.3957 77.6978 18.9157 75.6561 19.2215C74.1849 19.449 73.4619 19.9437 73.0586 20.2828C72.398 20.8332 71.9244 21.8108 72.6474 22.8282C73.3757 23.852 80.1307 31.8698 81.9137 33.9402C82.1817 34.2448 82.7283 34.6478 83.4288 34.5028C84.319 34.3127 85.3258 33.258 85.7077 32.5027C86.0051 31.9469 86.1973 31.5001 86.3843 30.7075C87.0252 27.8909 86.3446 25.1885 85.0619 23.3985C83.8334 21.7043 82.0544 20.4039 80.6149 19.8319Z" fill="white"/>
<path d="M68.7274 27.1649H60.4001L63.8174 22.6542H54.5657L51.2691 26.9974C50.0366 28.7235 49.9173 30.4656 49.9173 31.6746V32.3581C49.9173 33.148 50.4055 33.5775 51.1298 33.5775H68.7274C69.437 33.5775 69.916 33.1851 69.916 32.382V28.3646C69.916 27.5559 69.437 27.1649 68.7274 27.1649ZM21.3235 11.2295C21.1909 10.4742 20.6801 10.1017 20.0156 10.1017H17.6622C15.2133 10.1017 13.0521 11.4036 11.841 13.3705C11.841 13.3705 9.59511 16.9705 7.07843 21.0223H23.0562L21.3235 11.2295ZM47.6409 11.2974C47.6409 10.494 47.1633 10.1017 46.4483 10.1017H41.6578C40.9482 10.1017 40.4692 10.494 40.4692 11.2974V20.3988L35.9283 12.2162C35.0208 10.7083 33.4926 10.135 31.7097 10.1017H28.1689C27.4657 10.1017 26.9855 10.494 26.9855 11.2974V21.0277H32.9367L33.8521 22.6542H26.9855V32.382C26.9855 33.1851 27.4657 33.5842 28.1689 33.5842H32.9712C33.6848 33.5842 34.1572 33.1851 34.1572 32.382L34.1545 23.2233L38.738 31.4723C39.6361 32.9724 41.1697 33.5456 42.9406 33.5842H46.4483C47.1633 33.5842 47.6409 33.1851 47.6409 32.382V22.6542H41.7322L40.8193 21.0277H47.6409V11.2974ZM23.34 22.6542H15.4493C15.6509 23.7605 17.1063 31.9871 17.1926 32.4658C17.3266 33.2065 17.7869 33.5842 18.4621 33.5842H23.8907C24.388 33.5842 24.6388 33.4273 24.8723 33.1427C25.0315 32.9445 25.0978 32.6439 25.0234 32.2037L23.34 22.6542ZM0.173485 32.112C-0.0414124 32.4803 -0.0414124 32.8674 0.0898895 33.1186C0.241127 33.4125 0.578056 33.5842 0.941597 33.5842H6.57969C7.29061 33.5842 7.92625 33.1998 8.28036 32.6253L14.5022 22.6542H6.06226C3.16495 27.3099 0.246384 32.0043 0.173485 32.112ZM51.2878 16.5064H59.2208L55.7996 21.0223H65.0487L68.4221 16.5741C69.4636 15.199 69.7049 13.9677 69.7049 12.8785V11.3293C69.7049 10.5352 69.2261 10.1017 68.4965 10.1017H51.2878C50.5779 10.1017 50.1031 10.494 50.1031 11.2974V15.3148C50.1031 16.1154 50.5779 16.5064 51.2878 16.5064Z" fill="white"/>
</svg>
