<svg width="166" height="40" viewBox="0 0 166 40" fill="none" xmlns="http://www.w3.org/2000/svg">
<g clip-path="url(#clip0_411_967)">
<path d="M158.658 19.7435V19.5763C161.937 18.6064 164.279 17.1014 164.279 10.5796C164.279 2.58632 159.762 0.312073 150.426 0.312073H116.765V39.6766H154.007C160.699 39.6766 165.651 37.4693 165.651 28.8405C165.651 22.6532 163.744 20.379 158.658 19.7435ZM151.162 11.7836C151.162 13.991 149.891 14.9275 147.749 14.9275H129.948V8.67328H147.716C149.891 8.67328 151.162 9.50939 151.162 11.7836ZM152.2 27.5027C152.2 29.777 150.527 30.8138 147.984 30.8138H129.915V23.991H147.984C150.527 24.0244 152.2 24.8606 152.2 27.5027ZM108.801 29.8438V24.4592C108.801 19.0412 103.614 14.6599 97.2568 14.6599H77.381C75.206 14.6599 73.968 13.8572 73.968 11.6499C73.968 9.37563 75.2395 8.67328 77.381 8.67328H90.4642C92.338 8.67328 93.5426 9.17496 93.8103 10.8138C93.8103 10.8806 93.8438 10.9141 93.8438 10.9475C93.8438 11.0479 93.8773 11.1482 93.8773 11.2485H107.228V10.0111V9.77695C107.228 4.55956 102.243 0.312073 96.0857 0.312073H71.3915C65.2346 0.312073 60.249 4.55956 60.249 9.77695V13.69C60.249 18.9074 63.8293 24.292 73.7337 24.292H91.3677C93.9107 24.292 95.5838 24.9275 95.5838 27.5696C95.5838 29.8439 93.9107 30.8806 91.3677 30.8806H77.381C74.8714 30.8806 73.1984 29.8773 73.1649 27.6365H60.0147V28.7067C60.0147 34.1248 63.7289 39.7101 74.0014 39.7101H97.2234C103.614 39.6766 108.801 35.2619 108.801 29.8438ZM44.3215 39.6766H57.3713L36.3243 0.34553H21.0327L0.320312 39.6766H13.437L16.8835 32.7201H40.6743L44.3215 39.6766ZM43.485 13.69L21.2334 26.2318V13.69H43.485ZM0.320312 23.1883L12.5336 0.312073H0.320312V23.1883Z" fill="white"/>
</g>
<defs>
<clipPath id="clip0_411_967">
<rect width="166" height="40" fill="white"/>
</clipPath>
</defs>
</svg>
