<svg width="81" height="40" viewBox="0 0 81 40" fill="none" xmlns="http://www.w3.org/2000/svg">
<g clip-path="url(#clip0_411_974)">
<path d="M8.74469 23.0967C9.73653 21.9706 11.6871 21.2254 13.3567 21.2917C17.0431 21.4407 19.3573 23.4776 19.3573 27.4685C19.3573 35.1356 14.8114 39.4412 8.05041 39.4412C5.40551 39.4412 2.36388 38.8616 0 37.9673L3.93429 15.7773C4.24837 13.9557 4.95918 13.2436 7.17429 13.2436H10.4639L8.74469 23.0967ZM6.74449 34.556C7.35612 34.7216 7.48837 34.7382 8.28184 34.7382C11.0755 34.7382 13.0261 32.0721 13.0261 28.3461C13.0261 26.6405 12.2327 25.9946 10.8606 25.9946C9.67041 25.9946 8.18265 27.0545 7.96776 27.5016L6.74449 34.556ZM38.9131 38.5635C39.1114 38.9941 39.6239 39.4577 40.7976 39.4412C42.1365 39.4412 43.6573 39.2259 45.2939 39.2259C47.8727 39.2259 48.7818 39.3915 52.1376 39.4412C53.46 39.4577 54.1708 38.9941 54.4684 37.5865C54.6502 36.775 54.832 35.8146 55.0304 34.4567C53.6749 34.5892 52.3525 34.5064 51.2284 34.4401C49.658 34.3408 48.0049 34.2414 46.699 34.3573C47.2941 33.43 48.2694 32.2211 49.9059 30.6645C50.6829 29.9359 52.0714 28.7601 53.5592 27.1538C55.0469 25.531 56.7661 23.6597 56.2371 21.2751C54.6006 21.391 53.4269 21.4407 51.2614 21.4407C48.5835 21.4407 45.2443 21.2751 43.459 21.2751C41.9382 21.2751 41.2273 21.7719 40.9298 23.0139C40.6818 24.0571 40.2686 26.3258 40.2686 26.3258C40.5331 26.243 41.7233 26.1768 42.7316 26.1768C43.74 26.1934 46.4676 26.243 47.0461 26.3258C46.7982 27.0876 44.3847 28.876 42.8804 30.5486C41.9382 31.5918 40.3678 33.3803 39.5578 34.7382C37.4749 35.8477 36.2847 35.5165 36.4831 33.8936L37.3427 29.0582C37.4253 28.1308 37.6898 27.1207 37.6402 26.243C37.4749 23.0967 35.4582 21.1757 32.0033 21.1757C30.1188 21.1757 28.7467 22.1362 27.7218 23.0139C27.7218 23.0139 27.4573 21.5566 25.5067 21.4573L22.151 21.4407L19.44 36.8744C19.0598 38.8947 19.7706 39.1928 21.5724 39.1762H24.9943L27.0606 27.6009C27.3086 27.0545 28.5318 25.8622 30.0361 25.8622C31.0114 25.8622 31.8545 26.3424 31.6561 27.6009L30.5982 33.8274C30.3337 35.8311 31.0114 37.4374 31.6892 38.0501C32.5818 38.9775 33.8382 39.3915 35.111 39.4412C36.5492 39.524 38.1361 39.1762 38.9131 38.5635Z" fill="white"/>
<path d="M69.776 0.12828L70.2058 2.92688C70.2554 3.19184 70.4868 3.39055 70.7513 3.37399H73.6937L71.0323 5.11277C70.7678 5.27837 70.6356 5.593 70.6686 5.8414L71.0984 8.64L69.0156 6.91778C68.8172 6.75219 68.4866 6.75219 68.2386 6.91778L65.5607 8.65656L66.9492 5.85796C67.0815 5.593 67.0319 5.27837 66.8335 5.11277L64.7507 3.37399H67.6931C67.9907 3.35743 68.2552 3.19184 68.3874 2.92688L69.776 0.12828ZM60.6345 5.9242L61.0643 8.7228C61.1139 8.98775 61.3454 9.18647 61.6098 9.16991H64.5523L61.8909 10.9087C61.6429 11.0577 61.4941 11.3558 61.5272 11.6539L61.957 14.4525L59.8576 12.7137C59.6592 12.5481 59.3286 12.5481 59.0807 12.7137L56.4027 14.4525L57.7747 11.6539C57.907 11.3889 57.8574 11.0743 57.659 10.9087L55.5762 9.16991H58.5186C58.8162 9.15335 59.0807 8.98775 59.2129 8.7228L60.6345 5.9242ZM76.8676 5.9242L77.2974 8.7228C77.347 8.98775 77.5784 9.18647 77.8429 9.16991H80.7854L78.1239 10.9087C78.0007 10.9873 77.9015 11.0985 77.8374 11.23C77.7732 11.3615 77.7465 11.5082 77.7603 11.6539L78.1901 14.4525L76.1072 12.7137C75.9088 12.5481 75.5782 12.5481 75.3303 12.7137L72.6523 14.4525L74.0409 11.6539C74.1731 11.3889 74.1235 11.0743 73.9252 10.9087L71.8423 9.16991H74.7847C75.0823 9.15335 75.3468 8.98775 75.479 8.7228L76.8676 5.9242ZM66.4203 17.9631L66.85 20.7617C66.8996 21.0267 67.1311 21.2254 67.3956 21.2089H70.338L67.6766 22.9476C67.5559 23.0288 67.4587 23.1405 67.3949 23.2713C67.331 23.4022 67.3028 23.5475 67.3129 23.6928L67.7427 26.4914L65.6598 24.7692C65.4615 24.6036 65.1309 24.6036 64.8829 24.7692L62.205 26.508L63.5935 23.7094C63.7258 23.4444 63.6762 23.1298 63.4778 22.9808L61.3949 21.242H64.3374C64.6349 21.2254 64.8994 21.0598 65.0317 20.7949L66.4203 17.9631Z" fill="#FAA819"/>
</g>
<defs>
<clipPath id="clip0_411_974">
<rect width="81" height="40" fill="white"/>
</clipPath>
</defs>
</svg>
