<svg width="77" height="40" viewBox="0 0 77 40" fill="none" xmlns="http://www.w3.org/2000/svg">
<g clip-path="url(#clip0_412_1047)">
<path d="M58.4009 39C50.9009 38.8 43.4009 32.4 42.4009 31.6C41.1825 30.4832 40.0463 29.2801 39.0009 28C37.4516 29.3209 35.8848 30.621 34.3009 31.9C32.1507 33.8093 29.8043 35.4853 27.3009 36.9C24.796 38.0721 22.0664 38.6862 19.3009 38.7C18.3009 38.7 14.9009 38.6 11.1009 36.7C8.95362 35.6277 7.02157 34.1702 5.40087 32.4C4.40087 31.3 0.200868 27 0.200868 20.4C0.200868 18.8 0.000868082 15.4 2.00087 11.7C4.60087 7.09999 9.00087 5.19999 11.0009 4.49999C13.2288 3.59528 15.5979 3.08761 18.0009 2.99999C22.9009 2.79999 28.4009 4.39999 31.8009 7.49999L35.6009 11.2C36.4695 12.0981 37.3362 12.9981 38.2009 13.9C39.7544 12.3511 41.3551 10.8504 43.0009 9.39999C46.7009 6.19999 48.6009 4.59999 51.0009 3.49999C53.3566 2.56892 55.8678 2.09383 58.4009 2.09999C60.2009 2.09999 62.7009 1.99999 65.8009 3.09999C66.8009 3.39999 70.1009 4.49999 72.8009 7.49999C75.6009 11 77.0009 16.4 77.0009 21C77.0009 25.6 76.0009 29.6 72.9009 33C71.8894 34.1301 70.7481 35.1371 69.5009 36C68.7009 36.6 67.8009 37.2 66.5009 37.8C65.3009 38.3 64.3009 38.4 63.3009 38.6C63.3009 38.6 60.7009 39.1 58.4009 39.1V39ZM45.9009 21L52.3009 26.3L52.5009 26.5C53.3049 27.2885 54.2592 27.9073 55.3071 28.3196C56.355 28.7319 57.4751 28.9293 58.6009 28.9C59.5558 28.8937 60.5027 28.7246 61.4009 28.4C62.6788 27.9269 63.8147 27.1352 64.7009 26.1C65.981 24.3778 66.5535 22.2309 66.3009 20.1C66.3009 18.6 66.2009 16.5 64.7009 14.9C63.5502 13.6935 62.0432 12.8874 60.4009 12.6C59.7438 12.4589 59.0729 12.3918 58.4009 12.4C57.8009 12.4 55.4009 12.6 52.0009 14.9C49.6444 16.549 47.6107 18.6166 46.0009 21H45.9009ZM19.9009 12.3H19.6009C15.0009 12.5 12.6009 14.7 12.6009 14.7C9.90087 17.2 9.60087 22.7 12.6009 26.1C13.3769 26.9867 14.3287 27.7024 15.3961 28.2016C16.4634 28.7009 17.6229 28.9727 18.8009 29C21.0009 29 22.9009 28 24.1009 27.3L25.8009 26.3C27.2009 25.2 27.9009 24.3 30.8009 21.3L31.8009 20.3L25.6009 14.8V14.7C24.8424 13.9342 23.9387 13.3274 22.9428 12.9153C21.9469 12.5032 20.8787 12.294 19.8009 12.3H19.9009Z" fill="#00B752"/>
<path fill-rule="evenodd" clip-rule="evenodd" d="M44.6016 9.19999C44.6016 9.19999 44.9016 8.59999 45.1016 8.69999C45.0016 8.69999 44.8016 9.29999 44.6016 9.19999Z" fill="white"/>
<path fill-rule="evenodd" clip-rule="evenodd" d="M45.0008 9.2L45.4008 9L44.9008 9.6L42.3008 11.8L41.1008 13.1L39.8008 14.4L40.8008 13.5C40.8008 13.6 41.1008 13.2 41.2008 13.3L41.0008 13.5L40.7008 13.8L40.2008 14.3C40.0008 14.5 40.0008 14.3 39.9008 14.5C39.9008 14.7 40.0008 14.5 40.0008 14.5C40.3008 14.3 40.7008 14.1 40.9008 13.8C40.8008 13.9 40.6008 13.8 40.9008 13.8C40.9008 13.6 41.2008 13.5 41.2008 13.4C41.2008 13.6 41.0008 13.5 41.0008 13.4H41.4008L41.5008 13.1L41.9008 12.8L43.1008 11.6C43.6008 11 44.4008 10.6 45.1008 9.7L46.8008 8.3L48.4008 6.9C48.7008 6.6 50.3008 5.6 50.2008 5.4C52.8008 4 49.2008 5.5 49.2008 5.4C48.8008 5.3 48.2008 5.9 47.9008 6.1C47.103 6.69216 46.3661 7.36212 45.7008 8.1C45.5008 8.4 45.6008 8.3 45.9008 8.1C46.1008 7.9 46.3008 7.6 46.7008 7.4C46.9008 7.4 46.0008 8.1 45.7008 8.3L44.7008 9.3C43.2008 10.9 41.5008 11.7 40.5008 13.5C41.8008 12.2 43.5008 10.5 45.1008 9.2H45.0008ZM41.5008 12.8C41.5008 12.8 41.5008 12.6 41.7008 12.6C41.7008 12.6 41.7008 12.9 41.5008 12.8ZM41.2008 13.2C41.3008 13.2 41.2008 12.8 41.4008 12.9L41.2008 13.2Z" fill="white"/>
<path fill-rule="evenodd" clip-rule="evenodd" d="M40.5016 13.5C40.3016 13.8 40.1016 13.6 40.5016 13.5ZM46.5016 9.49999L46.8016 9.09999C47.8016 8.19999 48.6016 7.39999 49.6016 6.69999C49.6016 6.69999 50.1016 6.39999 50.2016 6.49999C50.2016 6.69999 49.8016 6.79999 49.8016 6.79999L49.3016 6.99999C48.7016 7.39999 48.5016 7.79999 48.0016 8.19999L46.5016 9.49999ZM44.8016 11.1L45.4016 10.4C45.5016 10.4 46.0016 9.69999 46.2016 9.79999L45.9016 10.1L45.1016 10.8L44.8016 11.1Z" fill="white"/>
<path fill-rule="evenodd" clip-rule="evenodd" d="M36.4003 18L36.7003 17.6C37.4003 16.6 37.9003 15.9 38.7003 15.1C38.7003 15.1 39.1003 14.8 39.2003 14.9C39.3003 15.1 39.1003 15.4 39.1003 15.4L38.6003 15.7L37.6003 16.7L36.4003 18ZM31.2003 26L31.4003 26.2C31.2003 26.2 31.1003 25.9 31.2003 25.9V26ZM30.0003 26C30.1003 26 30.3003 26.4 30.1003 26.3C30.0003 26.3 29.8003 26 30.0003 26ZM29.8003 26.4C29.9003 26.4 30.1003 26.8 29.8003 26.7C29.8003 26.7 29.6003 26.3 29.8003 26.4ZM29.3003 26.6V26.9C29.3003 26.9 29.4003 27.1 29.3003 27.1C29.3003 27.1 28.7003 26.4 29.3003 26.6ZM28.7003 27.4C29.3003 27.8 28.5003 27.8 28.4003 27.8L27.7003 28.5C27.4612 28.7344 27.1922 28.9361 26.9003 29.1C26.3003 29.3 26.4003 29.2 26.7003 29.1L27.5003 28.5C27.8003 28.2 28.0003 27.8 28.5003 27.6L28.7003 27.4ZM28.7003 27.1V27.4C28.7003 27.4 28.5003 27.1 28.7003 27.1ZM14.0003 29.8C14.0336 29.8024 14.067 29.8024 14.1003 29.8H14.0003ZM14.1003 29.7L14.2003 29.8H14.1003V29.7ZM13.4003 29.3C13.4336 29.3021 13.467 29.3021 13.5003 29.3H13.4003ZM14.6003 29.9C14.6334 29.9056 14.6672 29.9056 14.7003 29.9H14.6003ZM13.8003 29.5C13.8334 29.5056 13.8672 29.5056 13.9003 29.5H13.8003ZM16.5003 30.5H16.6003H16.4003H16.5003ZM20.6003 29.9H20.7003C20.6671 29.9042 20.6335 29.9042 20.6003 29.9ZM22.4003 29.5H22.6003C22.6003 29.4 22.5003 29.5 22.5003 29.5H22.4003ZM25.5003 28.3C25.5031 28.2667 25.5031 28.2333 25.5003 28.2V28.3ZM26.8003 27.4C26.8334 27.4056 26.8672 27.4056 26.9003 27.4H26.8003ZM29.6003 25.2H29.7003C29.667 25.1986 29.6336 25.1986 29.6003 25.2ZM31.2003 23.7C31.2155 23.7088 31.2327 23.7134 31.2503 23.7134C31.2679 23.7134 31.2851 23.7088 31.3003 23.7H31.2003ZM31.6003 23.4L31.7003 23.2V23.3L31.6003 23.4ZM31.8003 23.1C31.8386 23.0359 31.872 22.969 31.9003 22.9C31.8942 22.9665 31.8942 23.0335 31.9003 23.1H31.8003ZM32.2003 22.8V22.6V22.7V22.8ZM32.6003 22.3C32.6572 22.2242 32.7245 22.1568 32.8003 22.1C32.7613 22.1271 32.7274 22.161 32.7003 22.2L32.5003 22.4C32.5335 22.4042 32.5671 22.4042 32.6003 22.4V22.3ZM32.8003 22.1H32.9003V22L32.8003 22.1ZM12.3003 29.1L12.4003 29.2L12.6003 29.3C12.567 29.2972 12.5336 29.2972 12.5003 29.3V29.2L12.3003 29.1Z" fill="white"/>
<path fill-rule="evenodd" clip-rule="evenodd" d="M13 29.6H13.2L13.4 29.7H13.3H13.5L13.6 29.8H13.8C13.7334 29.7976 13.6666 29.7976 13.6 29.8H13.8V29.9H14.2C14.1667 29.8997 14.1333 29.8997 14.1 29.9H14.2V30H14.5L14.7 30.1H14.8L15 30.2H15.1C15.1331 30.1944 15.1669 30.1944 15.2 30.2H15L15.3 30.3L15.7 30.4H15.9L16.2 30.5H16.6L16.9 30.6H17.4L17.6 30.7H20L21 30.5L22 30.2L23 29.9L24 29.5L25 29L26 28.5L25.7 28.7L25.4 28.8H25.3L24.9 29.1C24.8334 29.0978 24.7666 29.0978 24.7 29.1L24.3 29.4L23.8 29.6H23.6L23.5 29.7H23.3V29.8H23L22.8 29.9L22.5 30L22.2 30.1H22.1C22.029 30.1238 21.9617 30.1574 21.9 30.2L21 30.5H20.3C20.2355 30.5374 20.1687 30.5708 20.1 30.6H19.7C19.6668 30.6042 19.6332 30.6042 19.6 30.6L19.3 30.7H17.8H17.3H17H16.9H16.5L16.3 30.6H16L15.6 30.5H15.3V30.4H15L14.8 30.3H14.7L14.4 30.2H14.2L14.1 30.1H14H14.4V30.2H14.6L14.8 30.3H14.6H15L15.2 30.4H15.5V30.5H16.3H16L16.1 30.6H16.4L16.6 30.7H17.3L17.5 30.8H19.6L20.1 30.7H20.5L20.9 30.6H21.1L21.2 30.5L21.7 30.3C22 30.3 22.2 30.3 22.4 30.1H22.7L22.8 30L23.3 29.8C23.4 29.8 23.6 29.8 23.7 29.6L24.2 29.4L24.7 29.2H24.8C25.4187 28.9015 26.0197 28.5676 26.6 28.2C27.153 27.8269 27.687 27.4264 28.2 27L28.6 26.6C28.6617 26.5574 28.729 26.5238 28.8 26.5L29 26.4L29.7 25.8C29.7366 25.7701 29.7701 25.7366 29.8 25.7V25.6L30.1 25.4L30.2 25.3L30.3 25.2L30.5 25.1L30.6 24.9H30.7L30.8 24.7L31.2 24.4L31.1 24.5L31.3 24.3V24.2H31.4L31.6 24C31.7054 23.9055 31.8055 23.8054 31.9 23.7C31.9377 23.6356 31.9711 23.5688 32 23.5C32.2 23.5 32.3 23.2 32.5 23.1V23L32.7 22.9C32.7903 22.7597 32.8906 22.626 33 22.5L33.1 22.4L33.4 22.1C33.4249 22.0592 33.4592 22.0249 33.5 22L33.8 21.7V21.6L34.1 21.4L34.4 21.1L34.6 20.9C34.6711 20.803 34.7379 20.7029 34.8 20.6H34.7V20.7H34.6L34.5 20.9V20.8L34.1 21.3H34C33.952 21.3582 33.9178 21.4266 33.9 21.5L34 21.3L34.2 21.1L34.1 21.2C34.1332 21.1966 34.1668 21.1966 34.2 21.2L34.3 21L34.7 20.5V20.6C34.6378 20.6415 34.5706 20.6751 34.5 20.7V20.8H34.4L34.2 21H34.3L34.1 21.1L34.4 20.8V20.7H34.5L34.6 20.6L34.8 20.4H34.7L34.9 20.3L35.1 20H35.2C35.2862 19.9145 35.3543 19.8124 35.4 19.7C35.3 19.8 35.4 19.7 35.4 19.7L35.2 19.9H35V20L34.7 20.2L34.6 20.4V20.3L34.4 20.6V20.5L34.3 20.7H34.2V20.8H34.1C34.0575 20.8616 34.0238 20.929 34 21V20.9L33.9 21V21.1H33.8L33.6 21.3L33.4 21.5L33.2 21.7L33.1 21.8H33C33.0056 21.8331 33.0056 21.8669 33 21.9L32.9 22L32.8 22.1L32.7 22.2L32.6 22.3C32.5638 22.3303 32.5303 22.3638 32.5 22.4C32.6 22.4 32.5 22.4 32.5 22.4L32.6 22.3L32.5 22.5L32.3 22.6L32.2 22.7L32.1 22.9H32L31.9 23L31.6 23.3C31.6015 23.3333 31.6015 23.3667 31.6 23.4C31.5339 23.4345 31.4673 23.4679 31.4 23.5L31.1 23.8V23.9H31C31 24 31 24 31 23.9L30.9 24L30.6 24.3C30.5266 24.3178 30.4583 24.352 30.4 24.4V24.5C30.354 24.5845 30.2845 24.654 30.2 24.7H30.1C30.1056 24.7331 30.1056 24.7669 30.1 24.8H30L29.9 25L29.7 25.1L29.6 25.2L29.5 25.3H29.4L29.3 25.5H29.2V25.6H29.1L29 25.7L28.9 25.8L28.8 25.9H28.7V26H28.6L28.4 26.2L28.3 26.3H28.2V26.4H28V26.5C27.9707 26.5371 27.9372 26.5707 27.9 26.6C27.8667 26.5981 27.8333 26.5981 27.8 26.6V26.7H27.7V26.8H27.6L27.5 26.9H27.4L27.3 27.1H27.2L27 27.2L26.9 27.3H26.8V27.4H26.7L26.6 27.5H26.5V27.6L26.2 27.8H26.1L26 27.9C25.9355 27.9688 25.8688 28.0355 25.8 28.1H25.6C25.5912 28.1152 25.5866 28.1324 25.5866 28.15C25.5866 28.1675 25.5912 28.1848 25.6 28.2H25.7L25.8 28.1L25.6 28.2L25.4 28.3L25.2 28.4C25.1667 28.3976 25.1333 28.3976 25.1 28.4V28.5H24.9V28.6H24.7V28.7H24.5L24.4 28.8H24.3V28.9H24C24.0333 28.8979 24.0667 28.8979 24.1 28.9H24L23.8 29C23.8088 29.0152 23.8134 29.0324 23.8134 29.05C23.8134 29.0675 23.8088 29.0848 23.8 29.1C23.7 29.1 23.7 29.1 23.8 29.1H23.7H23.6L23.5 29.2L23.8 29.1C23.7672 29.1084 23.7328 29.1084 23.7 29.1H23.6L23.4 29.2C23.3294 29.2249 23.2623 29.2585 23.2 29.3C23.1848 29.3088 23.1676 29.3134 23.15 29.3134C23.1324 29.3134 23.1152 29.3088 23.1 29.3L23 29.4H23.1L23 29.5H23.1H22.9C22.9333 29.4994 22.9667 29.4994 23 29.5H22.7L22.6 29.6H22.4L22.3 29.8H21.8L21.6 29.9H21.1L21 30H20.8L20.7 30.1H20.6H20.2L20.1 30.2H20C19.9012 30.1783 19.7988 30.1783 19.7 30.2C19.634 30.2135 19.566 30.2135 19.5 30.2H19.7C19.5355 30.2432 19.3685 30.2766 19.2 30.3H19C18.9672 30.3084 18.9328 30.3084 18.9 30.3H17.9H17.5H17C16.9667 30.2994 16.9333 30.2994 16.9 30.3L16.6 30.2H16.1L16 30H15.8H15.9L15.6 29.9H15.5H15.3H15.4C15.4656 29.9169 15.5344 29.9169 15.6 29.9C15.6333 29.9021 15.6667 29.9021 15.7 29.9L16 30H16.4C16.4702 30.0257 16.5373 30.0593 16.6 30.1H17L17.1 30.2H18V30.3H19.3H19.1H18.3H18.6H17.7C17.6 30.3 17.6 30.3 17.7 30.3H17.5C17.4 30.2973 17.3 30.2973 17.2 30.3H17H16.7L16.6 30.2H16.4L16.1 30.1L15.8 30C15.7335 30.0061 15.6665 30.0061 15.6 30H15.5L15.3 29.9H15.2C15.1337 29.8904 15.0663 29.8904 15 29.9L14.9 29.8C14.8009 29.8189 14.6991 29.8189 14.6 29.8H14.7H14.5V29.7C14.4668 29.7042 14.4332 29.7042 14.4 29.7H14.3L14.2 29.6C14.1669 29.5944 14.1331 29.5944 14.1 29.6H13.9C13.8628 29.5707 13.8293 29.5371 13.8 29.5H13.7H13.9L14.1 29.6H14.3L14.4 29.7H14.5C14.434 29.7135 14.366 29.7135 14.3 29.7H14.5L14.7 29.8H14.9L15.1 29.9H14.8H14.7L14.6 29.8H14.4L14.2 29.7H14.1L13.9 29.6H13.8H14.2V29.7H14.4L15.1 30H15.4L15.5 30.1H15.9L16.2 30.2H16.5V30.3H17.2C17.2681 30.3304 17.3348 30.3638 17.4 30.4H20C20.0333 30.3972 20.0667 30.3972 20.1 30.4L20.2 30.3H20H19.8H19.7C19.6349 30.3364 19.5682 30.3698 19.5 30.4C19.4668 30.4033 19.4332 30.4033 19.4 30.4H19C18.9669 30.4056 18.9331 30.4056 18.9 30.4H18.7H18.5C18.4338 30.4112 18.3662 30.4112 18.3 30.4H17.5H17.4H17H16.8H16.6L16.4 30.3H16L15.9 30.2H15.7H15.5H15.6L15.5 30.1H15V30H14.9H15.2V30.1H15L14.8 30H14.7L14.5 29.9H14.4H14.8V30H15.1L15.2 30.1H15.5L15.6 30.2H15C14.9363 30.161 14.8694 30.1275 14.8 30.1H14.7H14.6V30H14.4C14.3335 30.0067 14.2665 30.0067 14.2 30H14V29.9H13.7L13.5 29.8H13.4L13.2 29.7L13 29.6Z" fill="white"/>
<path fill-rule="evenodd" clip-rule="evenodd" d="M18.5016 30.8H18.3016C18.3168 30.8088 18.334 30.8134 18.3516 30.8134C18.3691 30.8134 18.3864 30.8088 18.4016 30.8H18.5016ZM33.9016 21.1V21H34.0016C33.9767 21.0408 33.9424 21.0751 33.9016 21.1ZM15.6016 30.4C15.5685 30.4056 15.5347 30.4056 15.5016 30.4H15.6016ZM14.1016 29.8H14.2016C14.1683 29.8021 14.1349 29.8021 14.1016 29.8ZM16.3016 30.6C16.2688 30.6085 16.2344 30.6085 16.2016 30.6H16.3016ZM15.4016 30.2H15.5016C15.5347 30.1944 15.5685 30.1944 15.6016 30.2H15.5016C15.4351 30.2067 15.3681 30.2067 15.3016 30.2H15.4016ZM15.9016 30.3H15.6016H16.0016C15.9683 30.3033 15.9348 30.3033 15.9016 30.3H16.1016H16.0016H15.9016ZM15.5016 30.1C15.4685 30.1056 15.4347 30.1056 15.4016 30.1H15.5016ZM16.2016 30.5C16.1688 30.4915 16.1344 30.4915 16.1016 30.5H16.2016ZM17.2016 30.8H17.1016C17.1348 30.7967 17.1683 30.7967 17.2016 30.8ZM15.0016 30H15.4016C15.3682 30.0017 15.3349 30.0017 15.3016 30C15.2352 30.0084 15.168 30.0084 15.1016 30H15.0016ZM16.3016 30.5H16.5016C16.4684 30.4958 16.4348 30.4958 16.4016 30.5H16.3016ZM15.8016 30.1H15.6016C15.5016 30.1 15.5016 30.1 15.6016 30.1H15.7016H15.8016ZM15.9016 30.1H16.1016V30.2H15.9016V30.1ZM18.2016 30.8H18.0016H18.1016H18.2016ZM17.0016 30.5C16.9688 30.5085 16.9344 30.5085 16.9016 30.5H17.0016ZM19.2016 30.7C19.1683 30.7033 19.1348 30.7033 19.1016 30.7C19.1348 30.6967 19.1683 30.6967 19.2016 30.7ZM17.1016 30.2C17.0683 30.2033 17.0348 30.2033 17.0016 30.2H17.1016ZM18.0016 30.4H18.2016H18.1016H18.0016ZM18.3016 30.4H18.2016C18.2348 30.3967 18.2683 30.3967 18.3016 30.4ZM17.6016 30.3C17.5683 30.3017 17.5349 30.3017 17.5016 30.3H17.6016ZM17.8016 30.3C17.7683 30.3019 17.7349 30.3019 17.7016 30.3H17.8016ZM20.3016 30.4L20.6016 30.3H20.5016H20.3016V30.4ZM19.1016 30.3C19.1681 30.2933 19.2351 30.2933 19.3016 30.3C19.2354 30.3112 19.1678 30.3112 19.1016 30.3ZM20.3016 30.3H20.0016H20.1016H20.3016ZM21.1016 30.2C21.1347 30.1944 21.1685 30.1944 21.2016 30.2H21.1016ZM20.5016 30.2C20.4352 30.2096 20.3679 30.2096 20.3016 30.2H20.6016H20.5016ZM21.0016 30.1C20.9349 30.1029 20.8682 30.1029 20.8016 30.1H21.0016ZM21.2016 30.1H21.0016H21.1016H21.2016ZM21.1016 30.1H21.2016C21.1683 30.1024 21.1349 30.1024 21.1016 30.1ZM21.6016 30C21.5354 30.0112 21.4678 30.0112 21.4016 30H21.6016ZM21.9016 30C21.8685 30.0056 21.8347 30.0056 21.8016 30H21.9016ZM21.9016 30V29.9H21.8016L21.9016 30ZM21.6016 29.9C21.6344 29.8915 21.6688 29.8915 21.7016 29.9H21.6016ZM22.3016 29.8H22.4016V29.7H22.3016V29.8Z" fill="white"/>
<path fill-rule="evenodd" clip-rule="evenodd" d="M24.2 28.9C24.2328 28.8915 24.2672 28.8915 24.3 28.9H24.2ZM26.7 27.9H26.8V28L26.7 27.9ZM24.4 28.9L24.6 28.8H24.5L24.4 28.9ZM24.7 28.7C24.6667 28.7016 24.6333 28.7016 24.6 28.7H24.7ZM25.4 28.3C25.3707 28.3371 25.3372 28.3707 25.3 28.4L25.4 28.3ZM29.5 25.4C29.5331 25.3944 29.5669 25.3944 29.6 25.4H29.5ZM32.7 22.5C32.6668 22.5033 32.6332 22.5033 32.6 22.5H32.7ZM33.9 21.2C33.9028 21.2333 33.9028 21.2667 33.9 21.3V21.2ZM15.6 30.4H15.8C15.7667 30.4009 15.7333 30.4009 15.7 30.4H15.6ZM14.5 29.9L14.8 30H14.6C14.5669 29.9944 14.5331 29.9944 14.5 30V29.9ZM17.2 30.7C17.1334 30.7051 17.0666 30.7051 17 30.7H17.2ZM15.9 30C15.9662 30.0112 16.0338 30.0112 16.1 30H15.9ZM19.1 30.3H19.3H19H19.1ZM20.3 30.2H20.5C20.5 30.1 20.4 30.2 20.3 30.2ZM22.8 29.5H23V29.4H22.9L22.8 29.5ZM24.8 28.6C24.8332 28.6042 24.8668 28.6042 24.9 28.6H24.8ZM30.5 25.1L30.6 25L30.7 24.9L30.5 25.1Z" fill="white"/>
<g opacity="0.8">
<path d="M66.7007 5.29999C66.5718 5.19419 66.4383 5.09409 66.3007 4.99999L65.7007 4.69999L65.0007 4.39999L64.4007 4.09999L64.0007 3.99999C63.9007 4.00176 63.8006 4.00176 63.7007 3.99999H64.1007L64.4007 4.09999L65.0007 4.39999L64.2007 3.99999L63.7007 3.79999L63.1007 3.69999L62.6007 3.49999H62.0007L61.5007 3.29999L60.3007 3.09999C61.5007 3.19999 62.6007 3.49999 63.7007 3.79999H63.6007L63.1007 3.59999H62.7007L61.8007 3.29999H61.5007H62.2007L62.6007 3.49999L63.2007 3.59999L63.6007 3.79999H63.9007C63.7361 3.75702 63.5691 3.72363 63.4007 3.69999C63.1415 3.58111 62.8741 3.48086 62.6007 3.39999L62.1007 3.29999H61.7007L61.1007 3.09999H60.2007C60.134 3.09607 60.0673 3.09607 60.0007 3.09999H59.3007L58.8007 2.89999H58.5007L58.3007 2.99999H57.7007L56.9007 3.09999L56.3007 3.19999L55.3007 3.39999C55.1038 3.47567 54.9036 3.5424 54.7007 3.59999L54.0007 3.69999L53.1007 3.89999L52.9007 3.99999L52.6007 4.09999H52.2007L52.0007 4.29999L51.6007 4.49999C51.5007 4.59999 51.6007 4.59999 51.6007 4.69999C51.6007 4.69999 51.4007 4.79999 51.5007 4.89999L51.8007 4.79999C51.9007 4.79999 51.9007 4.79999 51.8007 4.79999H51.9007L52.5007 4.59999C52.6007 4.59999 52.8007 4.59999 53.0007 4.39999H53.2007L53.4007 4.29999V4.19999C53.7007 4.19999 54.2007 3.99999 54.2007 3.89999L54.6007 3.79999L55.6007 3.49999H56.4007C57.0623 3.3904 57.7304 3.3236 58.4007 3.29999H60.3007C61.7007 3.29999 63.1007 3.69999 64.3007 4.09999L65.1007 4.49999L65.7007 4.79999L66.5007 5.19999H66.7007V5.29999Z" fill="white"/>
<path d="M66.7007 5.29999C66.5718 5.19419 66.4383 5.09409 66.3007 4.99999L65.7007 4.69999L65.0007 4.39999L64.4007 4.09999L64.0007 3.99999C63.9007 4.00176 63.8006 4.00176 63.7007 3.99999H64.1007L64.4007 4.09999L65.0007 4.39999L64.2007 3.99999L63.7007 3.79999L63.1007 3.69999L62.6007 3.49999H62.0007L61.5007 3.29999L60.3007 3.09999C61.5007 3.19999 62.6007 3.49999 63.7007 3.79999H63.6007L63.1007 3.59999H62.7007L61.8007 3.29999H61.5007H62.2007L62.6007 3.49999L63.2007 3.59999L63.6007 3.79999H63.9007C63.7361 3.75702 63.5691 3.72363 63.4007 3.69999C63.1415 3.58111 62.8741 3.48086 62.6007 3.39999L62.1007 3.29999H61.7007L61.1007 3.09999H60.2007C60.134 3.09607 60.0673 3.09607 60.0007 3.09999H59.3007L58.8007 2.89999H58.5007L58.3007 2.99999H57.7007L56.9007 3.09999L56.3007 3.19999L55.3007 3.39999C55.1038 3.47567 54.9036 3.5424 54.7007 3.59999L54.0007 3.69999L53.1007 3.89999L52.9007 3.99999L52.6007 4.09999H52.2007L52.0007 4.29999L51.6007 4.49999C51.5007 4.59999 51.6007 4.59999 51.6007 4.69999C51.6007 4.69999 51.4007 4.79999 51.5007 4.89999L51.8007 4.79999C51.9007 4.79999 51.9007 4.79999 51.8007 4.79999H51.9007L52.5007 4.59999C52.6007 4.59999 52.8007 4.59999 53.0007 4.39999H53.2007L53.4007 4.29999V4.19999C53.7007 4.19999 54.2007 3.99999 54.2007 3.89999L54.6007 3.79999L55.6007 3.49999H56.4007C57.0623 3.3904 57.7304 3.3236 58.4007 3.29999H60.3007C61.7007 3.29999 63.1007 3.69999 64.3007 4.09999L65.1007 4.49999L65.7007 4.79999L66.5007 5.19999H66.7007V5.29999Z" fill="white"/>
</g>
<path opacity="0.8" d="M10.1016 25.5L10.9016 26.5L11.9016 27.5L11.7016 27.3L11.4016 27L12.0016 27.7L12.5016 28C13.4247 28.6664 14.4339 29.2047 15.5016 29.6C14.988 29.4357 14.4867 29.2352 14.0016 29C13.4787 28.7399 12.9771 28.439 12.5016 28.1V28.2C13.1345 28.597 13.8042 28.9318 14.5016 29.2C14.3683 29.2072 14.2348 29.2072 14.1016 29.2L13.8016 29L13.4016 28.8L12.9016 28.5L12.6016 28.2L12.4016 28H12.3016L13.4016 28.8L14.2016 29.3L14.8016 29.5L15.2016 29.7H15.7016L15.9016 29.9H16.0016L16.6016 30L16.9016 30.1L17.1016 30.2H17.6016L18.2016 30.3H20.7016L21.3016 30.2H21.7016L22.0016 30H22.5016L23.0016 29.9H23.2016L23.5016 29.7H23.6016L24.1016 29.6L24.5016 29.4L24.6016 29.3V29L24.7016 28.8H24.3016L23.2016 29.2C23.1016 29.1979 23.0016 29.1979 22.9016 29.2L22.7016 29.3V29.4L22.2016 29.5L21.9016 29.6L21.4016 29.7C20.8736 29.804 20.3389 29.8708 19.8016 29.9H19.6016L17.6016 29.8L16.6016 29.6L16.2016 29.5L15.7016 29.4C15.0039 29.1742 14.3332 28.8724 13.7016 28.5C13.1005 28.1895 12.5311 27.8211 12.0016 27.4C11.0016 26.6 10.5016 25.8 10.3016 25.5L10.1016 25.4V25.5Z" fill="white"/>
<g opacity="0.8">
<path d="M10.7008 29L10.8008 29.2C10.798 29.1667 10.798 29.1333 10.8008 29.1C10.7677 29.0944 10.7339 29.0944 10.7008 29.1V29ZM11.1008 29.3H11.2008L11.6008 29.6L11.8008 29.8L12.0008 29.9C12.1008 29.9 12.1008 29.9 12.0008 29.9L11.3008 29.4L11.1008 29.3L11.0008 29.2L10.7008 28.9C10.6332 28.8685 10.5665 28.8352 10.5008 28.8L10.7008 29L11.1008 29.3ZM9.80078 28L10.2008 28.4C10.1008 28.3 10.1008 28.3 10.2008 28.4L9.80078 27.9V28Z" fill="white"/>
<path d="M11.8016 30L12.4016 30.3L12.9016 30.6H13.0016L13.3016 30.8H13.4016L13.6016 30.9C13.535 30.9048 13.4681 30.9048 13.4016 30.9L13.3016 30.8L13.7016 31L14.0016 31.1L14.4016 31.3H14.6016C14.6348 31.2972 14.6683 31.2972 14.7016 31.3H14.6016H14.4016H14.7016L15.0016 31.5C14.8969 31.4828 14.7956 31.449 14.7016 31.4H14.6016L14.4016 31.3L14.9016 31.5L16.9016 31.9C17.5629 32.0119 18.2311 32.0787 18.9016 32.1L21.2016 31.9C22.974 31.5362 24.6672 30.8589 26.2016 29.9L26.6016 29.6C26.7387 29.5052 26.8721 29.4051 27.0016 29.3C27.5016 28.8 27.1016 28.9 27.0016 29L25.7016 29.8C25.9016 29.7 25.8016 29.8 25.7016 29.9C25.5444 30.015 25.377 30.1154 25.2016 30.2L24.8016 30.4L24.1016 30.6L23.8016 30.7L23.4016 30.9L22.7016 31.2H22.3016L21.9016 31.4L21.1016 31.6L18.8016 31.8H17.6016L17.0016 31.7L16.4016 31.6L15.2016 31.4C15.0672 31.371 14.9338 31.3376 14.8016 31.3C14.7026 31.2318 14.6026 31.1651 14.5016 31.1H14.2016L13.9016 31C13.7687 30.9323 13.6354 30.8656 13.5016 30.8L13.0016 30.5L12.7016 30.4L12.6016 30.3H12.5016L12.3016 30.2H12.5016C12.2288 30.0792 11.9619 29.9457 11.7016 29.8C11.8383 29.8954 11.9717 29.9954 12.1016 30.1C11.9948 30.0441 11.8942 29.9771 11.8016 29.9H11.7016V29.8C11.6682 29.799 11.6349 29.799 11.6016 29.8L11.8016 29.9V30Z" fill="white"/>
<path d="M13.4008 30.8L13.6008 31C13.5439 30.9242 13.4766 30.8568 13.4008 30.8ZM10.7008 29L10.8008 29.2C10.798 29.1667 10.798 29.1333 10.8008 29.1C10.7677 29.0944 10.7339 29.0944 10.7008 29.1V29ZM11.1008 29.3H11.2008L11.6008 29.6L11.8008 29.8L12.0008 29.9C12.1008 29.9 12.1008 29.9 12.0008 29.9L11.3008 29.4L11.1008 29.3L11.0008 29.2L10.7008 28.9C10.6332 28.8685 10.5665 28.8352 10.5008 28.8L10.7008 29L11.1008 29.3ZM9.80078 28L10.2008 28.4C10.1008 28.3 10.1008 28.3 10.2008 28.4L9.80078 27.9V28Z" fill="white"/>
<path d="M11.8016 30L12.4016 30.3L12.9016 30.6H13.0016L13.3016 30.8H13.4016L13.6016 30.9C13.535 30.9048 13.4681 30.9048 13.4016 30.9L13.3016 30.8L13.7016 31L14.0016 31.1L14.4016 31.3H14.6016C14.6348 31.2972 14.6683 31.2972 14.7016 31.3H14.6016H14.4016H14.7016L15.0016 31.5C14.8969 31.4828 14.7956 31.449 14.7016 31.4H14.6016L14.4016 31.3L14.9016 31.5L16.9016 31.9C17.5629 32.0119 18.2311 32.0787 18.9016 32.1L21.2016 31.9C22.974 31.5362 24.6672 30.8589 26.2016 29.9L26.6016 29.6C26.7387 29.5052 26.8721 29.4051 27.0016 29.3C27.5016 28.8 27.1016 28.9 27.0016 29L25.7016 29.8C25.9016 29.7 25.8016 29.8 25.7016 29.9C25.5444 30.015 25.377 30.1154 25.2016 30.2L24.8016 30.4L24.1016 30.6L23.8016 30.7L23.4016 30.9L22.7016 31.2H22.3016L21.9016 31.4L21.1016 31.6L18.8016 31.8H17.6016L17.0016 31.7L16.4016 31.6L15.2016 31.4C15.0672 31.371 14.9338 31.3376 14.8016 31.3C14.7026 31.2318 14.6026 31.1651 14.5016 31.1H14.2016L13.9016 31C13.7687 30.9323 13.6354 30.8656 13.5016 30.8L13.0016 30.5L12.7016 30.4L12.6016 30.3H12.5016L12.3016 30.2H12.5016C12.2288 30.0792 11.9619 29.9457 11.7016 29.8C11.8383 29.8954 11.9717 29.9954 12.1016 30.1C11.9948 30.0441 11.8942 29.9771 11.8016 29.9H11.7016V29.8C11.6682 29.799 11.6349 29.799 11.6016 29.8L11.8016 29.9V30Z" fill="white"/>
<path d="M13.4008 30.8L13.6008 31C13.5439 30.9242 13.4766 30.8568 13.4008 30.8ZM10.7008 29L10.8008 29.2C10.798 29.1667 10.798 29.1333 10.8008 29.1C10.7677 29.0944 10.7339 29.0944 10.7008 29.1V29ZM11.1008 29.3H11.2008L11.6008 29.6L11.8008 29.8L12.0008 29.9C12.1008 29.9 12.1008 29.9 12.0008 29.9L11.3008 29.4L11.1008 29.3L11.0008 29.2L10.7008 28.9C10.6332 28.8685 10.5665 28.8352 10.5008 28.8L10.7008 29L11.1008 29.3ZM9.80078 28L10.2008 28.4C10.1008 28.3 10.1008 28.3 10.2008 28.4L9.80078 27.9V28Z" fill="white"/>
<path d="M11.8016 30L12.4016 30.3L12.9016 30.6H13.0016L13.3016 30.8H13.4016L13.6016 30.9C13.535 30.9048 13.4681 30.9048 13.4016 30.9L13.3016 30.8L13.7016 31L14.0016 31.1L14.4016 31.3H14.6016C14.6348 31.2972 14.6683 31.2972 14.7016 31.3H14.6016H14.4016H14.7016L15.0016 31.5C14.8969 31.4828 14.7956 31.449 14.7016 31.4H14.6016L14.4016 31.3L14.9016 31.5L16.9016 31.9C17.5629 32.0119 18.2311 32.0787 18.9016 32.1L21.2016 31.9C22.974 31.5362 24.6672 30.8589 26.2016 29.9L26.6016 29.6C26.7387 29.5052 26.8721 29.4051 27.0016 29.3C27.5016 28.8 27.1016 28.9 27.0016 29L25.7016 29.8C25.9016 29.7 25.8016 29.8 25.7016 29.9C25.5444 30.015 25.377 30.1154 25.2016 30.2L24.8016 30.4L24.1016 30.6L23.8016 30.7L23.4016 30.9L22.7016 31.2H22.3016L21.9016 31.4L21.1016 31.6L18.8016 31.8H17.6016L17.0016 31.7L16.4016 31.6L15.2016 31.4C15.0672 31.371 14.9338 31.3376 14.8016 31.3C14.7026 31.2318 14.6026 31.1651 14.5016 31.1H14.2016L13.9016 31C13.7687 30.9323 13.6354 30.8656 13.5016 30.8L13.0016 30.5L12.7016 30.4L12.6016 30.3H12.5016L12.3016 30.2H12.5016C12.2288 30.0792 11.9619 29.9457 11.7016 29.8C11.8383 29.8954 11.9717 29.9954 12.1016 30.1C11.9948 30.0441 11.8942 29.9771 11.8016 29.9H11.7016V29.8C11.6682 29.799 11.6349 29.799 11.6016 29.8L11.8016 29.9V30Z" fill="white"/>
<path d="M13.4004 30.8L13.6004 31C13.5435 30.9242 13.4762 30.8568 13.4004 30.8Z" fill="white"/>
</g>
<path opacity="0.8" d="M10.1016 25.5L10.9016 26.5L11.9016 27.5L11.7016 27.3L11.4016 27L12.0016 27.7L12.5016 28C13.4247 28.6664 14.4339 29.2047 15.5016 29.6C14.988 29.4357 14.4867 29.2352 14.0016 29C13.4787 28.7399 12.9771 28.439 12.5016 28.1V28.2C13.1345 28.597 13.8042 28.9318 14.5016 29.2C14.3683 29.2072 14.2348 29.2072 14.1016 29.2L13.8016 29L13.4016 28.8L12.9016 28.5L12.6016 28.2L12.4016 28H12.3016L13.4016 28.8L14.2016 29.3L14.8016 29.5L15.2016 29.7H15.7016L15.9016 29.9H16.0016L16.6016 30L16.9016 30.1L17.1016 30.2H17.6016L18.2016 30.3H20.7016L21.3016 30.2H21.7016L22.0016 30H22.5016L23.0016 29.9H23.2016L23.5016 29.7H23.6016L24.1016 29.6L24.5016 29.4L24.6016 29.3V29L24.7016 28.8H24.3016L23.2016 29.2C23.1016 29.1979 23.0016 29.1979 22.9016 29.2L22.7016 29.3V29.4L22.2016 29.5L21.9016 29.6L21.4016 29.7C20.8736 29.804 20.3389 29.8708 19.8016 29.9H19.6016L17.6016 29.8L16.6016 29.6L16.2016 29.5L15.7016 29.4C15.0039 29.1742 14.3332 28.8724 13.7016 28.5C13.1005 28.1895 12.5311 27.8211 12.0016 27.4C11.0016 26.6 10.5016 25.8 10.3016 25.5L10.1016 25.4V25.5Z" fill="white"/>
<path opacity="0.8" d="M10.1016 25.5L10.9016 26.5L11.9016 27.5L11.7016 27.3L11.4016 27L12.0016 27.7L12.5016 28C13.4247 28.6664 14.4339 29.2047 15.5016 29.6C14.988 29.4357 14.4867 29.2352 14.0016 29C13.4787 28.7399 12.9771 28.439 12.5016 28.1V28.2C13.1345 28.597 13.8042 28.9318 14.5016 29.2C14.3683 29.2072 14.2348 29.2072 14.1016 29.2L13.8016 29L13.4016 28.8L12.9016 28.5L12.6016 28.2L12.4016 28H12.3016L13.4016 28.8L14.2016 29.3L14.8016 29.5L15.2016 29.7H15.7016L15.9016 29.9H16.0016L16.6016 30L16.9016 30.1L17.1016 30.2H17.6016L18.2016 30.3H20.7016L21.3016 30.2H21.7016L22.0016 30H22.5016L23.0016 29.9H23.2016L23.5016 29.7H23.6016L24.1016 29.6L24.5016 29.4L24.6016 29.3V29L24.7016 28.8H24.3016L23.2016 29.2C23.1016 29.1979 23.0016 29.1979 22.9016 29.2L22.7016 29.3V29.4L22.2016 29.5L21.9016 29.6L21.4016 29.7C20.8736 29.804 20.3389 29.8708 19.8016 29.9H19.6016L17.6016 29.8L16.6016 29.6L16.2016 29.5L15.7016 29.4C15.0039 29.1742 14.3332 28.8724 13.7016 28.5C13.1005 28.1895 12.5311 27.8211 12.0016 27.4C11.0016 26.6 10.5016 25.8 10.3016 25.5L10.1016 25.4V25.5Z" fill="white"/>
<path d="M3.90156 26.1L3.70156 25.8L3.60156 25.6V26C3.60156 25.7 3.70156 26 3.90156 26.1Z" fill="#288641"/>
<path d="M5.30195 15.3C5.30434 15.2667 5.30434 15.2333 5.30195 15.2V15.6C5.26125 15.6627 5.2277 15.7298 5.20195 15.8L5.30195 15.5V15.3ZM5.00195 24.2C5.00195 24.2 5.10195 24.6 5.20195 24.5L5.00195 24.2ZM4.90195 17.4L5.00195 17.2V17C5.06271 16.8751 5.09677 16.7388 5.10195 16.6L5.00195 17.1C4.98687 17.1994 4.98687 17.3006 5.00195 17.4H4.90195ZM5.30195 23.8L5.40195 24.3C5.40195 24 5.40195 23.6 5.30195 23.8ZM5.00195 16V16.6C4.98281 16.4673 4.98281 16.3326 5.00195 16.2V16ZM5.50195 27.8C5.40195 27.9 5.70195 28.2 5.70195 28.1C5.70195 28.1 5.50195 27.7 5.40195 27.8H5.50195ZM9.60195 15.9C9.40195 16.2 9.30195 16.5 9.40195 16.9L9.60195 16.4L9.80195 15.9L10.002 15.4C10.0289 15.268 10.0289 15.132 10.002 15C10.002 15.3 9.80195 15.6 9.60195 16V15.9ZM9.30195 17.6L9.40195 16.8C9.10195 17.3 9.20195 17.6 9.20195 17.6H9.30195ZM9.40195 29.5C9.40529 29.4667 9.40529 29.4332 9.40195 29.4V29.5ZM4.80195 17.8C4.80195 17.6 4.90195 17.4 4.80195 17.4V17.8ZM24.302 9.59999H24.002L23.702 9.49999L24.502 9.79999L24.402 9.59999H24.302ZM23.602 9.39999C23.5353 9.39854 23.4686 9.39854 23.402 9.39999C23.3353 9.39648 23.2686 9.39648 23.202 9.39999C23.1379 9.36173 23.071 9.32831 23.002 9.29999L23.402 9.39999H23.702H23.602ZM22.102 9.09999H21.602C21.5353 9.09743 21.4686 9.09743 21.402 9.09999C21.302 9.09515 21.2019 9.09515 21.102 9.09999H22.102ZM17.702 9.49999C17.402 9.49999 17.102 9.69999 17.002 9.79999L17.402 9.59999L17.702 9.49999ZM20.102 8.89999H19.602H20.402H20.102ZM18.602 9.19999L17.802 9.39999H18.302L18.602 9.19999ZM3.00195 24.2C3.00195 24.6 3.20195 25 3.30195 25.2L3.20195 24.7C3.17467 24.5504 3.10529 24.4116 3.00195 24.3V24.2ZM16.502 10.1C16.302 10.1 16.202 10.2 16.202 10.3L16.602 10.1C16.7451 10.0552 16.8802 9.98766 17.002 9.89999L16.502 10.1ZM3.70195 23.4C3.70195 23.4 3.80195 23 3.50195 22.2C3.50195 23 3.60195 23.4 3.70195 23.4ZM3.50195 25.6C3.50195 25.5 3.50195 25.2 3.30195 25.2C3.30195 25.5 3.40195 25.2 3.50195 25.5V25.6ZM25.502 10.2L25.002 9.89999C24.8732 9.85056 24.7389 9.81698 24.602 9.79999L25.102 9.99999L25.502 10.2Z" fill="#288641"/>
<path d="M21.4016 12.9C21.8016 12.9 22.4016 13.2 23.2016 13.5C24.2469 14.1235 25.2195 14.8613 26.1016 15.7L27.2016 16.9C28.481 18.2862 29.8154 19.6206 31.2016 20.9L31.4016 20.8L38.2016 13.8C38.0744 13.6607 37.9409 13.5272 37.8016 13.4C36.8016 12.6 36.3016 11.7 35.2016 10.6L33.3016 8.60001C27.7016 3.40001 21.6016 2.6 21.6016 2.6C19.0667 2.20632 16.4788 2.32192 13.9891 2.94004C11.4994 3.55817 9.15794 4.66642 7.10156 6.2C5.97371 7.09747 4.93552 8.10217 4.00156 9.2C4.00156 9.2 2.20156 11.3 1.00156 16.4C0.887658 16.7627 0.787586 17.1297 0.701562 17.5V18.4L0.601562 18.7V21.1C0.822927 22.858 1.29436 24.5754 2.00156 26.2C1.73074 25.4791 1.49709 24.7448 1.30156 24C1.11627 23.2095 0.982654 22.4078 0.901562 21.6L0.801562 19.1V18C1.00911 16.7686 1.34425 15.5621 1.80156 14.4C2.01686 13.6806 2.3552 13.0039 2.80156 12.4C2.40156 13.4 1.90156 14.4 1.60156 15.6C1.37108 16.2833 1.20372 16.9862 1.10156 17.7V18.8V18.2L1.30156 17.6C1.47864 16.5456 1.74629 15.5084 2.10156 14.5C2.54307 13.2584 3.14842 12.0813 3.90156 11L2.90156 12.6C2.70156 13.2 2.30156 13.7 2.30156 14.2L1.90156 15.4C2.10156 14.8 2.30156 14 2.70156 13.6C2.20156 14.5 2.00156 15.4 1.70156 16.3C1.60423 16.8626 1.53746 17.4301 1.50156 18V18.4L1.40156 19.1V19V20.1C1.37694 20.4663 1.37694 20.8338 1.40156 21.2L1.60156 21.7V22.2L1.70156 21.9V22.4C1.70156 22.8 2.00156 22.8 1.90156 23.1L1.80156 22.9C1.78463 22.9656 1.78463 23.0344 1.80156 23.1L1.90156 23.2C2.0127 23.3452 2.08187 23.5182 2.10156 23.7L1.90156 23.3V23.7L2.10156 24.1C2.30156 24.1 2.00156 23.8 2.10156 23.7C2.30156 24.5 2.70156 25.4 3.10156 26.2C3.50156 27 4.00156 27.8 4.40156 28.2C3.75441 27.0427 3.2826 25.7958 3.00156 24.5C2.23911 22.105 2.13548 19.5489 2.70156 17.1L3.50156 14.8C3.80156 14 4.10156 13.3 4.50156 12.7C4.80156 12 5.40156 11.1 6.10156 10.3C6.82571 9.51779 7.63014 8.81391 8.50156 8.2C9.63695 7.36619 10.882 6.69316 12.2016 6.2L13.2016 5.9L13.7016 5.7L14.2016 5.6H14.5016L14.8016 5.5H15.3016L16.3016 5.3H16.8016L16.1016 5.5L15.8016 5.6L15.5016 5.8L14.3016 6.3L13.8016 6.5H14.1016C14.3016 6.5 14.4016 6.3 14.6016 6.2L15.2016 6L15.6016 5.8C16.3016 5.5 16.8016 5.4 17.4016 5.3H19.0016C18.8328 5.32211 18.6658 5.35551 18.5016 5.4H20.8016L20.2016 5.5L19.4016 5.6H19.0016L19.3016 5.8L18.1016 6L17.6016 6.1L17.2016 6.3H17.0016C16.8692 6.27763 16.734 6.27763 16.6016 6.3H16.4016C16.5348 6.30545 16.6683 6.30545 16.8016 6.3L17.2016 6.1L17.6016 5.9H18.0016H17.5016C17.0972 5.98162 16.6968 6.08172 16.3016 6.2L15.8016 6.4H15.5016C15.1662 6.45629 14.8327 6.52299 14.5016 6.6L12.8016 7.1C12.5016 7.1 12.2016 7.3 12.0016 7.4L11.6016 7.6L11.2016 7.8C8.45614 9.088 6.23332 11.2755 4.90156 14L4.70156 14.5V14.7L4.60156 14.9L4.40156 15.4C4.39672 15.4999 4.39672 15.6001 4.40156 15.7L4.20156 15.9V16.4L4.00156 17L3.90156 17.5V18C4.00156 16.9 4.30156 15.7 4.90156 14.5C5.34716 13.3536 5.9532 12.2761 6.70156 11.3L7.40156 10.5L7.50156 10.4L7.70156 10.2L8.10156 9.8L8.40156 9.5L8.80156 9.2L9.40156 8.8L8.40156 9.60001L8.20156 9.9L7.90156 10.1L7.70156 10.3L7.40156 10.6L6.60156 11.6L6.20156 12.1C6.13191 12.2655 6.06523 12.4322 6.00156 12.6L6.50156 11.9L6.70156 11.5L7.00156 11.2L7.50156 10.6L8.10156 10L8.30156 9.9L8.40156 9.7L8.70156 9.5L9.00156 9.2L9.40156 9C9.75424 8.71461 10.1214 8.44759 10.5016 8.2L9.40156 9L8.80156 9.4C8.65077 9.55192 8.51668 9.71955 8.40156 9.9L7.70156 10.5L8.20156 10C8.38477 9.81416 8.58573 9.6467 8.80156 9.5L8.40156 9.9L8.00156 10.3L7.60156 10.7L7.20156 11.1L7.10156 11.3L6.90156 11.5L6.70156 11.8L6.40156 12.2L6.20156 12.5L5.70156 13.4L5.90156 13.1C5.90747 12.9929 5.942 12.8893 6.00156 12.8V13L5.80156 13.2L5.70156 13.5L5.50156 13.8V13.9C5.43371 13.9655 5.36703 14.0322 5.30156 14.1C5.34731 13.9875 5.41534 13.8855 5.50156 13.8H5.40156V14L5.20156 14.4L5.10156 14.8L4.90156 15.1L5.10156 14.9L4.90156 15.3C4.80156 15.5 4.90156 15.6 4.70156 15.8C4.70156 15.8 4.80156 15.6 4.70156 15.6V16.3V16L4.50156 16.5L4.60156 16.3V16.8L4.40156 17.3V17.8L4.30156 18.4C4.2179 19.064 4.2179 19.736 4.30156 20.4V19.9V18.7L4.50156 17.9L4.60156 17.4L4.80156 17L4.90156 16.4L5.00156 16.1L5.10156 15.7L5.40156 15.1L5.50156 14.7L5.70156 14.4C6.16574 13.4394 6.73595 12.5338 7.40156 11.7L8.00156 11L8.70156 10.3L9.50156 9.7L9.80156 9.4L10.2016 9.2C10.6434 8.89199 11.1119 8.62425 11.6016 8.4L11.3016 8.7L11.0016 9L10.8016 9.2L10.3016 9.7C10.1727 9.83774 10.0393 9.97115 9.90156 10.1C9.69799 10.2623 9.49794 10.429 9.30156 10.6L8.70156 11.2C8.53637 11.4495 8.40206 11.7181 8.30156 12C8.20156 12.2 8.30156 12 8.50156 12L9.00156 11.3C9.80846 10.3714 10.7138 9.53319 11.7016 8.8L12.3016 8.4L11.8016 8.8C11.2116 9.27295 10.6443 9.7735 10.1016 10.3C9.92629 10.4927 9.75947 10.6929 9.60156 10.9L9.10156 11.5L8.40156 12.6H8.00156C7.93516 12.5916 7.86797 12.5916 7.80156 12.6L7.60156 12.9C7.23422 13.45 6.96365 14.0588 6.80156 14.7C6.80156 14.9 7.10156 14.7 7.10156 15.1C7.10156 15.7 6.80156 16.3 6.50156 17.1C6.20156 17.9 5.80156 18.8 5.70156 19.7C5.60841 20.4638 5.60841 21.2362 5.70156 22C5.80845 23.5952 6.21559 25.1559 6.90156 26.6C7.46939 27.7042 8.10389 28.7729 8.80156 29.8C8.74015 29.6641 8.67344 29.5307 8.60156 29.4L8.30156 28.7C8.22593 28.5713 8.15911 28.4377 8.10156 28.3L8.30156 28.6C8.60156 29.2 8.60156 28.9 8.40156 28.6L8.20156 27.6L8.70156 28.3L9.00156 28.8C9.00156 28.9 9.10156 28.9 9.10156 28.8L9.00156 28.2L8.80156 27.8L8.60156 27.3C8.30362 26.7144 8.03659 26.1136 7.80156 25.5C7.34754 24.1079 7.07857 22.6622 7.00156 21.2C6.95411 20.3321 6.98759 19.4617 7.10156 18.6C7.20156 17.6 7.40156 16.9 7.70156 16.1C8.28033 14.5112 9.16349 13.0506 10.3016 11.8C11.383 10.5854 12.6692 9.57001 14.1016 8.8C14.9016 8.4 15.6016 8 16.4016 7.8C17.1523 7.54325 17.9211 7.3427 18.7016 7.2C19.7016 7.2 20.5016 7.4 21.4016 7.6L21.9016 7.7L23.2016 8L24.6016 8.5L24.7016 8.60001C24.2772 8.43898 23.843 8.30537 23.4016 8.2H22.9016L22.5016 8.10001H21.6016C18.3688 7.98439 15.2047 9.05094 12.7016 11.1C12.2016 11.4 11.7016 11.9 11.4016 12.3C10.5813 13.1886 9.90634 14.2011 9.40156 15.3C10.3808 13.4915 11.7465 11.9209 13.4016 10.7C14.2972 10.047 15.2716 9.50947 16.3016 9.10001C18.3622 8.27419 20.6022 7.9985 22.8016 8.3C23.3409 8.36456 23.8754 8.46478 24.4016 8.60001L25.2016 8.9H25.5016L26.9016 9.8C27.956 10.4929 28.9587 11.2616 29.9016 12.1L30.1016 12.2L30.4016 12.5L30.7016 12.9L31.0016 13.2C31.256 13.4474 31.4901 13.715 31.7016 14L32.6016 16C32.1903 15.4813 31.7566 14.9808 31.3016 14.5C30.3979 13.4384 29.3932 12.4671 28.3016 11.6C27.1743 10.7278 25.9284 10.0207 24.6016 9.5C23.9554 9.23704 23.2857 9.03613 22.6016 8.9H22.2016L22.0016 8.8H20.3016C19.6016 8.8 18.7016 8.80001 17.9016 9.10001C17.1298 9.3413 16.3908 9.67718 15.7016 10.1C16.9683 9.39865 18.3621 8.95672 19.8016 8.8C20.5655 8.70879 21.3376 8.70879 22.1016 8.8L24.3016 9.4C25.029 9.6723 25.7316 10.0069 26.4016 10.4L26.9016 10.7L27.4016 11L28.0016 11.6L26.8016 10.8L26.1016 10.4L25.7016 10.2L25.4016 10C24.471 9.4862 23.4543 9.14727 22.4016 9C23.9016 9.4 25.1016 9.9 26.3016 10.5C27.3016 11.1 28.3016 11.8 29.1016 12.6L27.8016 11.6L26.5016 10.7L26.2016 10.6L25.9016 10.4C25.8362 10.3641 25.7695 10.3308 25.7016 10.3C25.635 10.2944 25.5681 10.2944 25.5016 10.3C26.0016 10.5 26.7016 10.8 27.0016 11.1C25.731 10.2343 24.3047 9.62306 22.8016 9.3L22.2016 9.2C21.9691 9.17072 21.734 9.17072 21.5016 9.2H22.3016C22.2017 9.19166 22.1014 9.19166 22.0016 9.2C21.9349 9.20024 21.8682 9.20024 21.8016 9.2H21.4016C21.2682 9.20267 21.1349 9.20267 21.0016 9.2L20.8016 9.10001H20.6016C20.7013 9.08998 20.8018 9.08998 20.9016 9.10001H21.2016H20.2016C19.9016 9.10001 19.6016 9.1 19.2016 9.3C19.2016 9.3 19.6016 9.2 19.6016 9.3H19.1016C19.0352 9.29164 18.968 9.29164 18.9016 9.3H18.7016C18.615 9.36492 18.5097 9.4 18.4016 9.4H18.6016C18.3016 9.4 18.3016 9.60001 17.8016 9.60001L18.2016 9.5H17.8016L17.5016 9.7H17.8016C17.1016 9.9 16.3016 10.2 15.6016 10.7C14.9705 11.1219 14.3987 11.6263 13.9016 12.2C14.8581 11.3212 15.9799 10.6414 17.2016 10.2C17.6883 10.0212 18.1904 9.8873 18.7016 9.8H18.9016L19.1016 9.7H19.6016L20.0016 9.60001H20.4016C21.0366 9.56686 21.6735 9.60037 22.3016 9.7C23.6889 9.93367 25.0152 10.4438 26.2016 11.2L28.0016 12.5H27.8016C28.5016 13 29.3016 13.6 29.9016 14.4C30.583 15.1257 31.2176 15.8939 31.8016 16.7L31.2016 16C29.6016 14.3 27.9016 13.3 27.2016 12.9C23.5016 10.9 19.8016 10.9 19.8016 11.1C19.8016 11.1 22.1016 11.1 24.9016 12.4C26.842 13.1163 28.5644 14.3219 29.9016 15.9C29.2846 15.3369 28.6149 14.8346 27.9016 14.4L27.2016 14L27.8016 14.4L28.5016 14.9L29.1016 15.4C28.9255 15.3165 28.7581 15.216 28.6016 15.1L28.4016 14.9C28.3082 14.8492 28.2067 14.8154 28.1016 14.8L28.7016 15.3L29.0016 15.5L29.1016 15.6H29.0016C28.9016 15.4 28.9016 15.3 28.7016 15.3C28.7016 15.3 28.7016 15.2 28.6016 15.3L28.8016 15.4L28.1016 14.9H27.9016H28.0016C28.0016 14.9 27.8016 14.9 27.8016 14.7H27.5016L27.4016 14.6H27.2016H27.3016V14.5L26.8016 14.4C26.675 14.3438 26.5397 14.31 26.4016 14.3L26.9016 14.8C27.1016 14.8 27.3016 15 27.4016 15.1L28.0016 15.5C28.1753 15.6242 28.3423 15.7577 28.5016 15.9L28.6016 16C28.7532 16.1137 28.8879 16.2484 29.0016 16.4L29.3016 16.8L29.5016 17.1L29.8016 17.3L30.2016 17.9V18L30.6016 18.5V18.6L30.0016 18.1C28.2016 16.6 26.2016 14.4 25.0016 13.5C24.4058 13.072 23.7694 12.7036 23.1016 12.4C22.6474 12.2002 22.1796 12.0331 21.7016 11.9C20.4734 11.5186 19.1822 11.3827 17.9016 11.5C16.678 11.5858 15.4858 11.9264 14.4016 12.5C13.3743 13.1063 12.488 13.9245 11.8016 14.9C11.137 15.8687 10.6619 16.9545 10.4016 18.1C9.90156 20.5 10.2016 23.7 12.1016 25.7C12.4016 26.1 12.9016 26.5 12.9016 26.4C13.1016 26.4 11.9016 25.1 11.2016 23.2C10.905 22.329 10.7366 21.4195 10.7016 20.5C10.7016 20.3 10.7016 19.3 11.0016 18.1C11.0727 17.7261 11.173 17.3583 11.3016 17C11.3016 17 11.5016 16.3 11.9016 15.7C12.8237 14.4585 14.121 13.5468 15.6016 13.1L17.1016 12.7C19.1016 12.4 20.7016 12.7 21.3016 12.9H21.4016ZM3.40156 11.3L2.90156 12.1C2.80156 12.1 3.10156 11.6 2.90156 12C2.90156 11.9 2.90156 11.7 3.10156 11.5L3.40156 10.9C3.50156 10.8 3.40156 11 3.40156 11.1L3.60156 10.8L3.30156 11.3H3.40156ZM4.50156 9.60001C4.50156 9.60001 4.30156 9.6 4.30156 9.8L4.60156 9.3C4.50156 9.5 5.10156 9.10001 4.60156 9.60001H4.50156ZM5.00156 9.10001C4.80156 9.20001 5.00156 8.9 5.10156 8.8L5.00156 9L5.40156 8.60001C5.40156 8.70001 5.10156 8.90001 5.10156 9.10001H5.00156ZM10.1016 8.3L9.80156 8.5L9.60156 8.7C9.90156 8.4 9.50156 8.7 9.60156 8.7C9.67895 8.5797 9.78126 8.4774 9.90156 8.4L10.3016 8.10001C10.3016 8.20001 10.3016 8.10001 10.4016 8.10001C10.4349 8.10167 10.4682 8.10167 10.5016 8.10001L10.1016 8.3ZM11.5016 7.6L11.8016 7.4C11.5016 7.5 12.1016 7.4 11.5016 7.6ZM6.00156 20.3V20C5.90156 20 5.90156 19.8 6.00156 19.8C6.00156 19.8 6.10156 20.1 6.00156 20.2V20.3ZM6.90156 17.1C6.89597 17.0669 6.89597 17.0331 6.90156 17C6.90077 17.0333 6.90077 17.0667 6.90156 17.1ZM6.90156 17.4C6.93454 17.2666 6.96787 17.1332 7.00156 17V17.4H6.90156ZM7.90156 13.4L7.60156 14.1L7.20156 14.7V14.3L7.70156 13.5C8.00156 13.1 8.30156 12.8 7.90156 13.5V13.4ZM8.00156 13V12.8V12.6C8.20156 12.6 8.00156 13 8.00156 13ZM12.0016 7.4L12.2016 7.3H12.0016H12.1016C12.1991 7.25983 12.2994 7.22642 12.4016 7.2C12.3016 7.2 12.0016 7.2 12.0016 7.4ZM12.4016 8.4V8.2L12.6016 8.10001L12.4016 8.4ZM13.3016 7.9H12.8016L13.2016 7.7V8L13.3016 7.9ZM19.6016 5.7C19.2016 5.7 18.8016 5.7 19.6016 5.7C19.6016 5.6 20.0016 5.5 20.2016 5.6V5.4C20.7016 5.6 20.2016 5.7 19.7016 5.7H19.6016ZM22.2016 5.7H21.7016L21.4016 5.6H22.2016L22.4016 5.7H22.2016ZM32.3016 12.9L31.9016 12.5L31.6016 12.1C31.1313 11.6025 30.6303 11.1349 30.1016 10.7C29.6783 10.3538 29.2448 10.0203 28.8016 9.7L27.7016 9C26.8359 8.46989 25.9336 8.00205 25.0016 7.6C24.6392 7.45516 24.2723 7.32177 23.9016 7.2C25.6992 7.47585 27.4096 8.16003 28.9016 9.2C29.6636 9.72362 30.3676 10.327 31.0016 11L31.3016 11.2L31.4016 11.4L31.5016 11.5L31.9016 12L32.7016 13L34.5016 15.9C34.4017 15.9075 34.3014 15.9075 34.2016 15.9C33.8667 15.133 33.4652 14.3968 33.0016 13.7L32.3016 12.8V12.9ZM28.1016 11.7C28.3016 11.7 28.4016 11.9 28.6016 12L29.0016 12.3C29.1016 12.5 29.0016 12.3 28.9016 12.3L29.2016 12.5C29.0016 12.5 28.5016 12 28.1016 11.7ZM30.1016 13.5C30.1016 13.5 30.1016 13.3 29.9016 13.3L30.4016 13.7C30.1016 13.4 30.5016 14 30.1016 13.5ZM30.5016 13.9L30.7016 14.1L30.6016 13.9L30.9016 14.3L30.5016 13.9Z" fill="#288641"/>
<path d="M29.4016 12C29.1016 11.9 28.9016 11.7 28.8016 11.8L29.4016 12.3C29.7016 12.5 29.6016 12.3 29.4016 12.1V12ZM3.80156 26.2V25.9L3.60156 25.7V26.1C3.60156 25.8 3.70156 26.1 3.80156 26.2ZM27.4016 10.7H27.0016H27.3016H27.4016ZM27.3016 14.5C27.3016 14.5 27.3016 14.4 27.2016 14.5H27.3016ZM16.1016 10.4L15.9016 10.5L15.8016 10.6C15.9016 10.6 16.2016 10.5 16.1016 10.4ZM28.4016 15.2C28.4016 15.2 28.4016 15 28.3016 15.1L28.4016 15.2ZM15.4016 10.9L15.8016 10.6C15.7016 10.7 15.7016 10.6 15.7016 10.6L15.5016 10.8L15.3016 10.9H15.4016ZM28.2016 15.1C28.2016 15 28.1016 15.1 28.2016 15.1Z" fill="#288641"/>
<path fill-rule="evenodd" clip-rule="evenodd" d="M53.3016 37H53.4016C54.1016 37.3 54.8016 37.4 55.4016 37.5C55.7016 37.5 56.4016 37.5 56.4016 37.9C56.4016 38.2 55.8016 38.1 55.6016 38.1C54.3671 38.0811 53.1596 37.7361 52.1016 37.1C51.9016 37 51.7016 36.7 52.1016 36.7L52.7016 36.9L53.2016 37H53.3016ZM53.2016 36.1C54.9016 36.4 56.5016 36.7 58.2016 36.7C59.8571 36.6645 61.5023 36.4294 63.1016 36H64.9016C65.5016 36 66.1016 36 66.6016 35.5C66.8016 35.4 66.7016 34.9 66.9016 34.8C67.6104 34.3862 68.3452 34.0188 69.1016 33.7C70.0227 33.2351 70.8133 32.5477 71.4016 31.7C72.0016 30.9 72.6016 29.8 73.0016 28.9C73.0016 28.6 73.4016 28.4 73.6016 28.2C73.8016 28 74.0016 27.7 73.9016 27.5C73.8016 27.3 73.6016 27.4 73.4016 27.3C73.3016 27.3 73.1016 27.3 73.1016 27C73.1016 26.9 73.1016 27 73.3016 27L73.6016 27.3C74.0016 27.3 73.8016 27.1 73.6016 26.9C73.4016 26.8 73.1016 26.7 73.0016 26.5C72.9016 26.3 73.0016 26.2 73.0016 26.1C73.0016 25.9 73.0016 25.7 72.9016 25.8C72.7016 25.8 72.6016 26.2 72.6016 26.3L72.5016 27C72.4622 27.1157 72.3933 27.2192 72.3016 27.3L71.9016 27.6C71.7016 27.7 71.6016 27.9 71.6016 28.2C71.6016 28.4 72.1016 28.7 72.0016 28.8C71.6016 28.6 71.6016 28.9 71.4016 29.2C71.2431 29.4717 71.0763 29.7385 70.9016 30C70.3016 30.8 69.6016 31.7 68.7016 32.2C68.3016 32.4 67.7016 32.6 67.3016 33L67.1016 33.1H67.0016V32.8C67.1016 32.6 67.5016 32.4 67.7016 32.3C68.0016 32.1 68.4016 31.9 68.6016 31.6L68.9016 31.2L69.3016 30.8L70.3016 29.8L71.3016 28.5L71.9016 27.1L72.2016 26.6L72.4016 26.1L72.6016 25.6C72.6016 25.5 72.6016 25.4 72.4016 25.3C72.2016 25.1 72.1016 25.2 72.0016 25.3V26.3L71.2016 27.3L70.7016 28.3L70.1016 29.6C69.8339 29.9611 69.5325 30.2959 69.2016 30.6C68.9016 31.1 68.4016 31.4 68.0016 31.6L67.5016 32.1C67.4402 32.2193 67.3555 32.3251 67.2524 32.411C67.1493 32.4969 67.03 32.5612 66.9016 32.6L66.4016 32.8C65.4016 33.1 64.4016 33.8 63.4016 33.6C63.2016 33.6 63.1016 33.5 63.1016 33.4L63.2016 33.2C64.2016 32.8 65.2016 32.8 66.0016 32.2L67.0016 31.2V30.9C66.5016 31.4 65.8016 31.6 65.2016 31.9C64.9016 32.2 64.5016 32.5 64.0016 32.6C62.881 32.8441 61.745 33.0112 60.6016 33.1C59.3979 33.1754 58.1895 33.1083 57.0016 32.9L56.2016 32.6C56.4016 32.6 57.6016 32.8 57.6016 32.4L56.6016 32C56.1016 31.9 55.8016 31.7 56.4016 31.6H58.8016L61.1016 31.8L62.7016 31.6C63.3138 31.5973 63.9216 31.496 64.5016 31.3L64.9016 31.1C65.1016 31.1 65.2016 30.9 65.2016 30.7C65.2016 30.3 64.8016 30.5 65.0016 30.2C65.1016 29.9 65.5016 29.9 65.7016 29.7C65.8016 29.7 66.8016 28.9 66.5016 28.7L66.1016 28.8L65.9016 29L65.8016 29.2L65.0016 29.7L64.0016 30.1L61.5016 30.5H58.8016L57.4016 30.4H56.0016C54.5151 30.3237 53.0863 29.8009 51.9016 28.9C51.1025 28.3471 50.3649 27.7101 49.7016 27H49.6016L49.5016 26.8C49.3726 26.6624 49.2392 26.529 49.1016 26.4C48.4993 25.8546 47.9923 25.2124 47.6016 24.5C47.5016 24.2 47.6016 24.3 47.9016 24.5L48.2016 24.7L48.3016 24.8L49.8016 26L49.9016 26.1L50.0016 26.2L50.2016 26.3L50.5016 26.6C51.0016 27 51.8016 27.6 52.6016 28C54.3016 29 56.3016 29.8 58.2016 29.8C59.5081 29.8215 60.8137 29.7211 62.1016 29.5C63.2016 29.3 64.1016 29 65.0016 28.5L65.3016 28.4V28C65.1016 28 65.0016 28 65.0016 28.2L64.2016 28.5L63.4016 28.9C62.6016 29.2 61.7016 29.2 60.9016 29.3H57.8016C56.6726 29.1712 55.5641 28.9025 54.5016 28.5C53.7016 28.1 53.0016 27.7 51.8016 26.8C51.3252 26.5267 50.8879 26.1903 50.5016 25.8V25.7H50.4016L50.3016 25.5L49.9016 25.2C48.8685 24.2682 47.8679 23.3009 46.9016 22.3L45.9016 21.2L45.7016 21.3L45.6016 21.5H45.5016L45.1016 22L44.5016 22.6L43.5016 23.6L42.3016 24.9L40.6016 26.6C40.1183 27.1165 39.6181 27.6168 39.1016 28.1L41.2016 30.1C43.4016 32.2 43.5016 31.9 44.1016 32.6L44.4016 32.8L44.2016 31.8L44.6016 32.3L46.4016 34C47.6016 35 49.0016 36 50.3016 36.5C50.9016 36.7 51.3016 36.7 51.6016 36.6C52.3016 36.4 51.0016 36.1 51.0016 36.1C50.1772 35.7506 49.3757 35.3498 48.6016 34.9C48.012 34.5335 47.4443 34.1328 46.9016 33.7L45.5016 32.6V32.4C45.4016 32.2 45.5016 32.3 45.7016 32.4C46.3016 32.6 46.7016 33.1 47.2016 33.4C48.4915 34.4089 49.9463 35.187 51.5016 35.7L52.8016 36H53.3016L53.2016 36.1ZM44.3016 31.4L44.0016 31C44.2016 31 44.5016 31.4 44.3016 31.4ZM43.8016 30.7C43.4016 30.6 43.1016 30.2 43.3016 30.2C43.9016 30.3 44.1016 30.8 43.8016 30.7ZM64.8016 35.1C64.9016 35.2 64.8016 34.9 64.8016 35.1ZM73.3016 27.6C73.4016 27.6 73.1016 27.6 73.3016 27.6ZM62.5016 34.8C62.4685 34.8056 62.4347 34.8056 62.4016 34.8C62.3016 34.6 62.3016 34.5 62.4016 34.4L62.8016 34.2H63.8016C64.5016 34 65.1016 33.7 65.6016 33.7H65.9016C65.9016 33.8 65.9016 33.9 65.7016 33.9L64.7016 34.3L62.7016 34.8C62.636 34.8169 62.5672 34.8169 62.5016 34.8ZM54.2016 34.5L53.4016 34.4H52.9016C52.7016 34.3 52.0016 34 52.3016 33.7C52.5016 33.5 53.1016 33.7 53.3016 33.7L56.1016 34.2H58.4016L59.4016 34.3C59.8016 34.4 59.7016 34.6 59.4016 34.7C58.6016 35.1 58.1016 34.9 57.3016 34.7C56.7303 34.6283 56.1629 34.5282 55.6016 34.4C55.1016 34.3 54.6016 34.6 54.2016 34.5ZM52.0016 33.6C51.8016 33.6 51.4016 33.5 51.5016 33.4C51.7016 33.4 52.2016 33.5 52.0016 33.6ZM67.8016 33.1C67.9016 33.2 67.7016 33 67.8016 33.1ZM67.6016 33.2C67.7016 33.3 67.6016 33 67.6016 33.2ZM66.6016 33.5C66.6016 33.7 66.3016 33.9 66.2016 33.8V33.5L66.4016 33.3C66.4676 33.2865 66.5356 33.2865 66.6016 33.3H66.8016V33.5C66.7683 33.5018 66.7349 33.5018 66.7016 33.5H66.6016ZM60.8016 34.7C60.8016 35 59.8016 34.9 60.5016 34.7H60.8016ZM72.9016 25.7C73.1016 25.7 72.7016 25.7 72.9016 25.7ZM62.0016 34.4C62.0016 34.5 61.9016 34.8 61.8016 34.7C61.8016 34.5 62.0016 34.2 62.0016 34.4ZM48.0016 31.1C48.0016 31.1 47.5016 30.9 47.7016 30.9C47.9016 30.8 48.3016 30.9 48.1016 31.1H48.0016ZM52.8016 32.8C52.4016 32.5 52.9016 32.5 53.5016 32.7L55.1016 33.1C55.4016 33.4 55.3016 33.4 55.0016 33.4L54.1016 33.2C53.6016 33 53.1016 33 52.8016 32.8ZM58.5016 33.8C58.5016 33.8 57.7016 33.8 57.3016 33.6C56.9016 33.2 57.8016 33.3 58.1016 33.4L59.6016 33.5C60.0658 33.567 60.5373 33.567 61.0016 33.5L61.3016 33.4L61.8016 33.3C61.8679 33.2904 61.9352 33.2904 62.0016 33.3L62.2016 33.4C62.3016 33.6 61.8016 33.7 61.7016 33.8H58.6016H58.5016ZM51.7016 32.2C51.8905 32.3207 52.0916 32.4213 52.3016 32.5C52.5016 32.6 51.0016 32.3 51.7016 32.2ZM48.7016 31.5H48.4016C48.4016 31.4 48.2016 31.3 48.4016 31.3C48.4016 31.3 49.2016 31.3 48.6016 31.5H48.7016ZM55.6016 32.3C55.6016 32.5 55.3016 32.8 55.3016 32.6C55.3016 32.4 55.6016 32.1 55.6016 32.3ZM54.8016 32.6C54.7369 32.6229 54.6663 32.6229 54.6016 32.6C54.5314 32.5742 54.4643 32.5407 54.4016 32.5L54.2016 32.3C53.9016 32.1 53.4016 32.3 53.2016 32C53.0016 31.9 53.2016 31.7 53.2016 31.8L54.1016 31.9C54.3016 31.9 54.6016 32 54.8016 32.2C54.9016 32.3 54.9016 32.6 54.8016 32.6ZM51.0016 31L50.7016 31.2C50.7016 31 51.0016 30.8 51.0016 31ZM50.7016 30.9C50.7016 31 50.4016 31.2 50.4016 31C50.4016 31 50.7016 30.7 50.7016 30.9ZM50.5016 30.8L50.2016 31C50.2016 30.8 50.5016 30.7 50.5016 30.8ZM50.7016 30.2C50.6016 30.6 50.0016 30 50.5016 30.2H50.7016ZM50.1016 29.6H49.6016C49.5016 29.5 49.4016 29.3 49.6016 29.3C49.6016 29.3 50.2016 29.3 50.1016 29.6ZM49.4016 28.8L49.2016 28.9C49.1016 28.9 49.0016 29 49.0016 28.9H49.1016L49.3016 28.7C49.4016 28.6 49.5016 28.5 49.4016 28.8ZM48.8016 28.4C48.7016 28.5 48.5016 28.4 48.4016 28.4C48.2016 28.2 48.2016 28.1 48.4016 28.1L48.6016 28.2L48.8016 28.4ZM63.9016 30.6C64.0016 30.9 63.1016 31 63.5016 30.6H63.6016C63.7016 30.6 63.8016 30.4 63.9016 30.6ZM64.4016 37.1C64.3982 37.202 64.3689 37.3014 64.3164 37.3889C64.2639 37.4764 64.19 37.549 64.1016 37.6C63.9382 37.6472 63.7649 37.6472 63.6016 37.6C63.3016 37.6 63.2016 37.4 64.0016 37.2C64.0016 37.2 64.4016 36.9 64.4016 37.2V37.1ZM62.7016 37.6C62.3016 38.7 62.1016 37 62.7016 37.6ZM61.0016 37.7C61.1016 38 60.6016 38.1 60.2016 38C59.8016 38 59.5016 37.8 60.1016 37.7H61.0016ZM58.5016 37.7C58.5016 37.8 58.3016 38.1 58.3016 37.9C58.3016 37.8 58.5016 37.5 58.5016 37.7ZM64.7016 37C64.7016 37.1 64.6016 36.8 64.7016 37ZM61.9016 37.4C61.9016 37.5 61.8016 37.9 61.7016 37.7C61.7016 37.6 61.9016 37.2 61.9016 37.4ZM61.5016 37.4C61.5016 37.6 61.4016 37.8 61.3016 37.7C61.3016 37.6 61.4016 37.3 61.5016 37.4ZM61.2016 37.4C61.2016 37.6 61.1016 37.2 61.2016 37.4ZM75.5016 21.4C75.6016 21.3 75.3016 21.4 75.5016 21.4ZM69.7016 34.7L69.9016 35.1C69.9016 35.3 69.8016 35.4 69.6016 35.1C69.2016 34.8 69.6016 34.4 69.7016 34.7ZM66.1016 36.3C66.1016 36.4 66.1016 36.2 66.1016 36.3ZM72.5016 14.9C72.8016 14.7 73.0016 15.7 72.6016 15.1C72.6016 15.1 72.5016 15 72.6016 14.9H72.5016ZM74.5016 21.4C74.7016 21.4 74.4016 21.4 74.5016 21.4ZM74.6016 22C74.7016 22 74.4016 22 74.6016 22ZM72.3016 17.5H72.7016C72.6016 17.7 72.2016 17.5 72.3016 17.5ZM72.5016 17.9C72.6016 17.8 73.0016 17.9 72.8016 18C72.8016 18.1 72.3016 18 72.5016 17.9ZM72.4016 18.5H72.6016L72.7016 18.7C72.7016 18.7 71.8016 18.7 72.4016 18.5ZM72.6016 19.5C73.3016 19.2 72.8016 19.9 72.8016 20V22C72.6016 22.7 72.6016 22.5 72.6016 22.2L72.7016 21.2C72.7016 20.7 72.4016 20.2 72.7016 19.7C72.7016 19.7 72.6016 19.5 72.7016 19.5H72.6016ZM72.3016 19.3H72.6016C72.5016 19.5 72.2016 19.3 72.3016 19.3ZM72.6016 22.8C73.2016 22.8 73.0016 23.2 72.7016 23.5C72.5958 23.6323 72.4582 23.7355 72.3016 23.8C72.3016 23.8 72.2016 23.8 72.3016 23.6L72.5016 23.1C72.6016 22.9 72.7016 22.8 72.5016 22.8H72.6016ZM71.4016 23.9C71.1016 23.8 71.3016 23.2 71.4016 22.7C71.4016 22.5 71.4016 22 71.6016 21.8L71.8016 21.9C71.8016 22 71.8016 24.2 71.4016 23.9Z" fill="#288641"/>
<path fill-rule="evenodd" clip-rule="evenodd" d="M68.3007 30.2C68.2061 30.3052 68.1059 30.4054 68.0007 30.5H67.8007L68.0007 30.3L68.9007 29.3L69.5007 28.3C69.9254 27.6117 70.2614 26.8725 70.5007 26.1L70.7007 25.8L70.8007 25.6L70.9007 25.3L71.1007 24.9V24.7H71.2007C71.3007 24.7 71.4007 24.7 71.4007 24.9L71.3007 25.4L71.0007 25.9C70.9251 25.9938 70.8582 26.0942 70.8007 26.2C70.8007 26.7 70.5007 27.1 70.4007 27.5L70.1007 28L69.8007 28.6C69.5005 28.9649 69.1656 29.2998 68.8007 29.6C68.8007 29.9 68.5007 30.1 68.3007 30.2ZM69.3007 16.7C69.5007 16.7 69.2007 16.8 69.3007 16.7ZM71.0007 24.3L71.2007 24.5C71.1007 24.5 70.9007 24.4 71.0007 24.3ZM68.8007 28.3C68.9007 28.3 68.7007 28.3 68.8007 28.3ZM68.2007 29.1C68.3007 29.1 68.2007 29.3 68.2007 29.5C68.0566 29.6593 67.8878 29.7944 67.7007 29.9C67.3007 30.1 67.0007 30.2 67.4007 29.9V29.6L67.7007 29.3C67.6986 29.2667 67.6986 29.2333 67.7007 29.2C67.7565 29.1483 67.8259 29.1136 67.9007 29.1H68.2007ZM65.7007 30.1C65.7007 30.3 65.6007 30.1 65.7007 30.1ZM68.3007 27.5C68.4007 27.6 68.1007 27.5 68.3007 27.5ZM67.0007 29C67.2007 29.2 67.0007 29.3 67.0007 29.4C66.8007 29.4 66.7007 29.4 67.0007 29.2V29ZM69.0007 24.8C69.3007 24.8 69.3007 25 69.3007 25.1L69.1007 25C69.1007 25 69.0007 24.8 69.1007 24.8H69.0007ZM69.0007 25.3C69.2007 25.4 69.4007 26.1 68.8007 25.9C68.7535 25.8857 68.7105 25.8599 68.6756 25.825C68.6408 25.7901 68.615 25.7472 68.6007 25.7C68.5618 25.6038 68.5618 25.4962 68.6007 25.4C68.6007 25.2 68.8007 25.1 69.0007 25.3Z" fill="#288641"/>
<path fill-rule="evenodd" clip-rule="evenodd" d="M68.202 26.5V26.2C68.202 26.2 68.202 26 68.402 26L68.202 27.4V27.6L68.002 28V28.2C67.9462 28.2768 67.8787 28.3443 67.802 28.4C67.602 28.7 67.202 28.8 66.802 28.8H66.502L66.602 28.6L66.702 28.5L66.802 28.4L67.002 28.2L67.302 27.9L67.602 27.5L68.202 26.5ZM68.902 23.6C69.002 23.6 68.702 23.6 68.902 23.6ZM67.102 25.2C67.402 25.2 67.302 25.5 67.202 25.7C67.102 25.9 66.902 26 66.902 25.7V25.4C66.902 25.4 66.902 25.2 67.102 25.2ZM69.202 17.7L68.902 17.1V16.9H69.002C69.7905 17.9021 70.2451 19.1261 70.302 20.4C70.3523 21.6491 70.0766 22.8898 69.502 24C69.402 24.1 69.102 24.5 69.002 24.1L69.302 23.4C69.5058 22.7836 69.6399 22.1463 69.702 21.5C69.8165 20.212 69.6458 18.9145 69.202 17.7ZM75.202 20.7C75.2614 22.2291 74.9164 23.7468 74.202 25.1C74.002 25.5 73.802 25.9 73.802 26.2C74.302 25.9 74.502 25.4 74.702 24.8C75.102 23.7 75.402 22.5 75.402 21.3L75.302 19.5C75.2398 18.2407 74.8982 17.011 74.302 15.9C74.302 15.7 73.902 15.3 73.902 15.7L74.302 16.2L74.802 18.2L75.102 20.6L75.202 20.7Z" fill="#288641"/>
</g>
<defs>
<clipPath id="clip0_412_1047">
<rect width="77" height="40" fill="white"/>
</clipPath>
</defs>
</svg>
