<svg width="186" height="40" viewBox="0 0 186 40" fill="none" xmlns="http://www.w3.org/2000/svg">
<g clip-path="url(#clip0_413_1130)">
<mask id="mask0_413_1130" style="mask-type:luminance" maskUnits="userSpaceOnUse" x="0" y="0" width="186" height="40">
<path d="M186 0H0V39.6269H186V0Z" fill="white"/>
</mask>
<g mask="url(#mask0_413_1130)">
<path d="M78.6504 33.6084C78.9494 33.4333 79.1974 33.2072 79.4016 32.9153C79.7079 32.4704 79.8611 31.9305 79.8611 31.3032C79.8611 30.7852 79.7371 30.2965 79.4891 29.8296C79.2412 29.3627 78.8692 28.9834 78.3806 28.6843C77.8919 28.3925 77.2866 28.2393 76.5645 28.2393H72.0938V39.6269H76.9948C77.7169 39.6269 78.3295 39.4883 78.8401 39.2111C79.3505 38.9339 79.7371 38.5472 79.9997 38.0512C80.2695 37.5551 80.4008 36.9714 80.4008 36.3003C80.4008 35.6291 80.2039 35.0018 79.8173 34.4838C79.5256 34.0899 79.1317 33.798 78.6504 33.6011V33.6084ZM73.7712 29.8004H76.5427C77.0386 29.8004 77.4324 29.9463 77.7314 30.2308C78.0231 30.5153 78.1763 30.8801 78.1763 31.325C78.1763 31.6607 78.1034 31.9379 77.9576 32.1786C77.8117 32.4193 77.6148 32.5944 77.3741 32.7184C77.1261 32.8424 76.8563 32.9081 76.5499 32.9081H73.7785V29.815L73.7712 29.8004ZM78.4535 37.2268C78.2858 37.4967 78.0451 37.6937 77.7534 37.8395C77.4543 37.9855 77.1188 38.0512 76.7468 38.0512H73.7712V34.4473H76.8489C77.2282 34.4473 77.5564 34.5276 77.8409 34.6881C78.1253 34.8486 78.3367 35.0674 78.4899 35.3447C78.6431 35.6219 78.716 35.9283 78.716 36.2712C78.716 36.6432 78.6285 36.9568 78.4608 37.2268H78.4535Z" fill="white"/>
<path d="M85.3168 28.2466L81.6191 39.6342H83.333L84.1645 37.0663H88.8395L89.6855 39.6342H91.3994L87.7017 28.2466H85.3241H85.3168ZM84.6677 35.5125L86.491 29.8953L88.3289 35.5125H84.6677Z" fill="white"/>
<path d="M100.584 36.7016L94.975 28.2466H93.3047V39.627H94.975V31.1646L100.584 39.627H102.261V28.2466H100.584V36.7016Z" fill="white"/>
<path d="M108.488 33.8055L113.528 28.2466H111.471L106.701 33.5574V28.2466H105.053V39.627H106.701V34.1921L111.777 39.627H113.9L108.488 33.8055Z" fill="white"/>
<path d="M66.428 32.8935H0.015625V34.4474H66.428V32.8935Z" fill="white"/>
<path d="M186 32.8935H117.443V34.4474H186V32.8935Z" fill="white"/>
<path d="M22.5951 0.182406C22.2449 0.20429 21.8584 0.226176 21.4427 0.240766C21.0197 0.262651 20.5894 0.277241 20.1518 0.284537C19.7069 0.291832 19.2912 0.306421 18.8901 0.313717C18.4962 0.321012 18.1534 0.328307 17.8763 0.328307C17.3366 0.328307 16.6437 0.313716 15.7759 0.284537C14.9152 0.255356 14.0255 0.218881 13.1211 0.17511C13.0482 0.17511 13.019 0.218881 13.019 0.299127V0.817077C13.019 0.897324 13.0628 0.948392 13.1575 0.970271C13.3472 1.01405 13.6681 1.0797 14.1349 1.18183C14.6016 1.28396 14.9955 1.49552 15.3237 1.8165C15.5133 2.02076 15.6227 2.25421 15.6591 2.50954C15.6956 2.77216 15.7102 3.18798 15.7102 3.7497V8.89274H7.00205V3.7497C7.00205 3.18798 7.01663 2.77216 7.0531 2.50954C7.08957 2.24691 7.19897 2.01347 7.38859 1.8165C7.71678 1.49552 8.11062 1.28396 8.5774 1.18183C9.04416 1.0797 9.37234 1.01405 9.55472 0.970271C9.64948 0.948392 9.69329 0.897324 9.69329 0.817077V0.306421C9.69329 0.226176 9.64948 0.182406 9.55472 0.182406C8.66491 0.240766 7.82619 0.284537 7.01663 0.306421C6.21438 0.328307 5.54339 0.335602 5.0037 0.335602C4.72656 0.335602 4.38377 0.335602 3.98993 0.321012C3.59609 0.313716 3.18038 0.299127 2.75008 0.291832C2.31977 0.284537 1.87489 0.269946 1.4227 0.248061C0.970518 0.226176 0.532927 0.20429 0.109919 0.189701C0.0369856 0.189701 0.0078125 0.233471 0.0078125 0.313717V0.890028C0.0078125 0.970271 0.0515721 1.02134 0.146385 1.04323C0.241196 1.06511 0.387062 1.087 0.583981 1.10158C0.780898 1.12347 0.999692 1.15995 1.23308 1.21102C1.46647 1.26208 1.69255 1.33502 1.91864 1.43716C2.13745 1.53929 2.31977 1.67061 2.45835 1.8311C2.64797 2.04995 2.75737 2.29068 2.79384 2.54601C2.8303 2.80134 2.84489 3.20986 2.84489 3.77158V16.1586C2.84489 16.7276 2.8303 17.1362 2.79384 17.3842C2.75737 17.6395 2.64797 17.8729 2.45835 18.0992C2.31977 18.2596 2.13745 18.3909 1.91864 18.493C1.69985 18.5952 1.46647 18.6681 1.23308 18.7192C0.999692 18.7702 0.780898 18.8067 0.583981 18.8287C0.387062 18.8505 0.241196 18.8724 0.146385 18.887C0.0515721 18.9088 0.0078125 18.9599 0.0078125 19.0402V19.6165C0.0078125 19.6968 0.0442788 19.7406 0.109919 19.7406C0.970518 19.6968 1.8676 19.6675 2.78655 19.6311C3.7055 19.602 4.44941 19.5874 5.01099 19.5874C5.57257 19.5874 6.23625 19.602 7.07498 19.6311C7.9137 19.6603 8.74514 19.6968 9.56197 19.7406C9.63488 19.7406 9.66408 19.6968 9.66408 19.6165V19.0985C9.66408 19.0183 9.62037 18.9673 9.52551 18.9454C9.33589 18.9016 9.01499 18.8359 8.56281 18.7338C8.11062 18.6316 7.71678 18.4201 7.38859 18.0992C7.19897 17.8949 7.08957 17.6688 7.0531 17.4061C7.01663 17.1435 7.00205 16.7276 7.00205 16.166V10.4757H15.7102V16.166C15.7102 16.735 15.6956 17.1435 15.6591 17.4061C15.6227 17.6688 15.5133 17.9022 15.3237 18.0992C14.9955 18.4201 14.6016 18.6316 14.1349 18.7338C13.6681 18.8359 13.3399 18.9088 13.1575 18.9454C13.0628 18.9673 13.019 19.0183 13.019 19.0985V19.6165C13.019 19.6968 13.0554 19.7406 13.1211 19.7406C13.9598 19.6968 14.7985 19.6675 15.6373 19.6311C16.476 19.602 17.1616 19.5874 17.7012 19.5874C18.241 19.5874 19.0068 19.602 19.9403 19.6311C20.8738 19.6603 21.7563 19.6968 22.5951 19.7406C22.668 19.7406 22.6971 19.6968 22.6971 19.6165V19.0402C22.6971 18.9599 22.6534 18.9088 22.5585 18.887C22.4638 18.8651 22.3179 18.8433 22.121 18.8287C21.9241 18.8067 21.7053 18.7702 21.4719 18.7192C21.2385 18.6681 21.0124 18.5952 20.7863 18.493C20.5675 18.3909 20.3852 18.2596 20.2466 18.0992C20.057 17.8803 19.9476 17.6395 19.9111 17.3842C19.8746 17.1288 19.86 16.7204 19.86 16.1586V3.757C19.86 3.19528 19.8746 2.78675 19.9111 2.53142C19.9476 2.27609 20.057 2.04265 20.2466 1.8165C20.3852 1.65601 20.5675 1.5247 20.7863 1.42257C21.0052 1.32044 21.2385 1.24749 21.4719 1.19642C21.7053 1.14536 21.9241 1.10888 22.121 1.087C22.3179 1.06511 22.4638 1.04323 22.5585 1.02863C22.6534 1.00675 22.6971 0.955685 22.6971 0.875438V0.306421C22.6971 0.226176 22.6606 0.182406 22.5951 0.182406Z" fill="white"/>
<path d="M40.2149 14.6412C40.0836 14.6121 39.2522 14.5975 39.2522 14.5975C39.2522 14.5975 38.9313 15.1519 38.6031 15.7793C38.3624 16.2461 38.1144 16.6693 37.8008 17.0195C37.4872 17.3696 37.0934 17.6541 36.6266 17.8511C36.1598 18.0554 35.5618 18.1575 34.8398 18.1575C33.8333 18.1575 33.0383 18.1064 32.4403 18.0043C31.8422 17.9021 31.3973 17.6833 31.0911 17.3405C30.9014 17.1435 30.792 16.8881 30.7555 16.589C30.7191 16.29 30.7045 15.8523 30.7045 15.2905V10.4539H33.7457C34.3949 10.4539 34.8616 10.6946 35.1242 11.1688C35.3941 11.643 35.6056 12.1755 35.7733 13.2698C36.2181 13.2698 36.5099 13.2552 36.6485 13.2261C36.787 13.1968 36.86 13.1166 36.86 12.9998C36.86 12.5768 36.8454 12.0953 36.809 11.5627C36.7725 11.0301 36.7579 10.3371 36.7579 9.49089C36.7579 9.2502 36.7579 8.95839 36.7725 8.61552C36.787 8.27265 36.7944 7.93708 36.809 7.61609C36.8236 7.29511 36.8308 7.01061 36.8454 6.76986C36.86 6.52913 36.86 6.38323 36.86 6.34675C36.86 6.24461 36.809 6.17897 36.6995 6.14979C36.5974 6.12061 36.2838 6.10601 35.7733 6.10601C35.6128 7.19298 35.3941 7.73282 35.1242 8.207C34.8544 8.68118 34.3949 8.92192 33.7457 8.92192H30.7045V3.42142C30.7045 3.18068 30.7045 2.99101 30.7191 2.84511C30.7337 2.7065 30.7555 2.58979 30.792 2.49495C30.8285 2.40741 30.8722 2.32716 30.9305 2.2688C30.9889 2.21044 31.0619 2.1302 31.1567 2.02806C31.2004 1.98429 31.3171 1.94781 31.4922 1.90405C31.6672 1.86027 31.8787 1.8311 32.1194 1.8165C32.3674 1.79461 32.6153 1.78003 32.8706 1.77274C33.1259 1.76544 33.3592 1.75814 33.5707 1.75814C34.4095 1.75814 35.1096 1.84568 35.6712 2.02806C36.2327 2.21044 36.6704 2.46577 36.9986 2.78675C37.3268 3.10773 37.5675 3.49437 37.7352 3.93938C37.8957 4.38437 38.0853 5.04822 38.0853 5.04822C38.0853 5.04822 38.5885 5.03364 38.8219 5.00446C39.0553 4.97528 39.1719 4.89503 39.1719 4.77831C39.1719 4.73454 39.1719 4.62511 39.1574 4.44274C39.1428 4.26035 39.1428 4.0488 39.1428 3.80807C39.1428 3.54544 39.1428 3.28282 39.1282 3.0202C39.1136 2.75757 39.1136 2.53872 39.1136 2.35634V1.83839C39.1136 1.63413 39.1136 1.42986 39.1282 1.21102C39.1428 0.992159 39.1428 0.795193 39.1428 0.60552V0.182406C38.304 0.20429 37.5309 0.226176 36.8162 0.240766C36.1015 0.262651 35.3576 0.277241 34.5773 0.284537C33.7968 0.291832 32.9363 0.306421 31.9881 0.313717C31.0473 0.321012 29.9095 0.328307 28.5748 0.328307C27.9185 0.328307 27.2329 0.313716 26.5109 0.284537C25.7888 0.255356 24.9865 0.218881 24.0968 0.17511C23.9801 0.17511 23.9144 0.196995 23.9072 0.248061C23.8926 0.299127 23.8926 0.342897 23.8926 0.386668V0.992159C23.8926 1.0724 23.9364 1.12347 24.0311 1.14536C24.1479 1.16724 24.3083 1.18913 24.5198 1.20371C24.7313 1.2256 24.9501 1.24749 25.1835 1.27667C25.4168 1.30585 25.6357 1.34962 25.8326 1.40068C26.0295 1.45175 26.1754 1.51741 26.2702 1.59765C26.3139 1.64142 26.3577 1.68519 26.3942 1.73626C26.4306 1.78732 26.4598 1.88216 26.4817 2.02076C26.5036 2.15937 26.5254 2.37093 26.5328 2.64085C26.5474 2.91076 26.5474 3.28282 26.5474 3.7497V15.9543C26.5474 16.4358 26.5328 16.8152 26.5109 17.0924C26.489 17.3623 26.4671 17.5812 26.4379 17.7417C26.416 17.9021 26.3796 18.0115 26.3358 18.0772C26.2921 18.1356 26.2556 18.2012 26.2338 18.2596C26.19 18.3398 26.066 18.4128 25.869 18.4712C25.6721 18.5295 25.4533 18.5879 25.22 18.639C24.9865 18.6901 24.7605 18.7265 24.5344 18.763C24.3156 18.7922 24.1333 18.8213 23.9947 18.8359C23.9218 18.8578 23.8926 18.8943 23.8926 18.9599V19.5071C23.8926 19.5509 23.9072 19.5874 23.929 19.6311C23.9509 19.6749 24.0239 19.704 24.1405 19.7186C25.074 19.6968 25.9274 19.6675 26.715 19.6311C27.4955 19.5874 28.2248 19.5728 28.903 19.5728H30.4419C31.2369 19.5728 32.1486 19.58 33.1842 19.602C34.2199 19.6238 35.2992 19.6457 36.4224 19.6603C37.5383 19.6821 38.5447 19.704 39.4272 19.7186C39.5439 19.3247 39.646 18.9381 39.7408 18.5441C39.8357 18.1575 39.9304 17.7489 40.0179 17.3259C40.0617 17.0851 40.1128 16.8225 40.1565 16.538C40.2003 16.2535 40.2441 15.9909 40.2806 15.7501C40.317 15.5094 40.3461 15.3051 40.3681 15.1447C40.3899 14.9841 40.4045 14.882 40.4045 14.8382C40.4045 14.7361 40.3389 14.6704 40.2149 14.6412Z" fill="white"/>
<path d="M61.4897 18.9016C61.3729 18.8578 61.2125 18.814 61.0155 18.7484C60.8187 18.69 60.6363 18.6098 60.4759 18.5076C60.3373 18.4055 60.1987 18.2815 60.0528 18.1283C59.9142 17.9751 59.7757 17.7635 59.6298 17.4936C59.4913 17.2237 59.3235 16.8808 59.1412 16.4796C58.9516 16.0783 58.7328 15.5677 58.4775 14.9622C58.2003 14.3349 57.8357 13.4813 57.3908 12.4017C56.946 11.322 56.45 10.1183 55.903 8.79787C55.356 7.47746 54.7871 6.0914 54.1891 4.64697C53.591 3.20254 53.0076 1.7946 52.4241 0.423114C52.3512 0.262623 52.2637 0.153197 52.147 0.087541C52.0303 0.0291804 51.8334 0 51.5489 0C51.2717 0.0218852 51.0749 0.0583606 50.9728 0.109426C50.8706 0.160492 50.7831 0.277213 50.7102 0.459591C50.382 1.26935 50.0246 2.15935 49.6235 3.1223C49.2297 4.09254 48.8066 5.09197 48.3618 6.12058C47.9169 7.14918 47.4647 8.19238 46.9979 9.24287C46.5312 10.2934 46.079 11.3073 45.6341 12.2849C45.1892 13.2624 44.7735 14.1743 44.3724 15.0279C43.9785 15.8741 43.6284 16.6109 43.3221 17.2383C43.1835 17.5593 42.9867 17.8729 42.746 18.1647C42.4979 18.4566 42.2135 18.6535 41.8926 18.7556C41.754 18.7994 41.6155 18.8286 41.4915 18.8432C41.3602 18.8651 41.2071 18.887 41.0175 18.9016C40.9226 18.9234 40.8789 18.9891 40.8789 19.1131V19.5946C40.8789 19.6749 40.9008 19.7186 40.9518 19.7186C41.2582 19.6749 41.6884 19.6457 42.2427 19.6092C42.8043 19.58 43.395 19.5654 44.0296 19.5654C44.6641 19.5654 45.233 19.58 45.7435 19.6092C46.254 19.6383 46.7572 19.6749 47.2459 19.7186V19.0839C46.5238 19.0402 45.9914 18.938 45.6559 18.763C45.3205 18.5952 45.1455 18.2815 45.1455 17.8365C45.1455 17.4717 45.2402 17.0194 45.4226 16.4723L46.7062 13.226H53.4816L54.8673 16.7495C54.9403 16.9684 54.9986 17.1653 55.0569 17.3259C55.1153 17.4863 55.1445 17.6468 55.1445 17.8073C55.1445 18.2742 54.9622 18.5879 54.6048 18.7484C54.2401 18.9088 53.7952 19.0183 53.2555 19.0839V19.7186C54.0286 19.6749 54.7506 19.6457 55.4216 19.6092C56.0999 19.58 56.7708 19.5654 57.4492 19.5654C58.2441 19.5654 58.9953 19.5873 59.7028 19.6238C60.4102 19.6675 61.0229 19.704 61.5406 19.7478C61.6136 19.7478 61.6427 19.704 61.6427 19.6238V19.1059C61.6427 18.9818 61.5844 18.9162 61.4677 18.8942L61.4897 18.9016ZM48.8796 7.93705C49.4047 6.6823 49.8787 5.52238 50.2945 4.45729C50.506 5.00443 50.7175 5.58804 50.9436 6.21541C51.1624 6.84279 51.3957 7.47746 51.6291 8.12673C51.8625 8.77599 52.1032 9.41795 52.3439 10.0673C52.5553 10.6289 52.7523 11.1687 52.9419 11.6867H47.3188C47.8658 10.3809 48.3909 9.13344 48.8869 7.95164L48.8796 7.93705Z" fill="white"/>
<path d="M82.6692 18.9745C82.5671 18.9234 82.4285 18.8359 82.2681 18.7192C82.0785 18.617 81.8596 18.4784 81.6043 18.296C81.3491 18.1137 81.0939 17.8948 80.8312 17.6322C80.3864 17.2893 79.9123 16.8152 79.3945 16.2097C78.884 15.6042 78.3662 14.9403 77.841 14.2254C77.3159 13.5104 76.8127 12.7809 76.3167 12.0442C75.8281 11.3074 75.5145 10.8477 75.0988 10.2422C76.5137 9.68056 77.3305 9.04587 78.1692 8.17046C79.008 7.29505 79.4309 6.29562 79.4309 5.18677C79.4309 4.50103 79.3143 3.85177 79.0809 3.24628C78.8475 2.64078 78.4537 2.10824 77.9067 1.65595C77.3596 1.20366 76.6377 0.846194 75.7406 0.583571C74.8435 0.320948 73.7276 0.189636 72.4002 0.189636C72.1231 0.189636 71.6345 0.196932 70.9489 0.218817C70.2634 0.240702 69.5413 0.255292 68.7974 0.262588C68.0535 0.269883 67.3533 0.291767 66.6969 0.306358C66.0405 0.328244 65.6321 0.335539 65.4716 0.335539H62.7439C62.5543 0.335539 62.4668 0.393899 62.4668 0.517915V1.03586C62.4668 1.11611 62.5106 1.16717 62.6054 1.18906C62.7439 1.23283 62.9336 1.25472 63.167 1.26201C63.4003 1.26931 63.6338 1.29119 63.8671 1.32037C64.1005 1.34956 64.312 1.38603 64.4944 1.4298C64.684 1.47357 64.808 1.53194 64.8809 1.61218C64.9027 1.65595 64.932 1.69972 64.9684 1.76538C65.0049 1.82373 65.0341 1.91857 65.0559 2.04988C65.0779 2.18119 65.0997 2.38545 65.107 2.65538C65.1216 2.9253 65.1216 3.29734 65.1216 3.76423V16.0273C65.1216 16.4941 65.1216 16.8589 65.107 17.1361C65.0924 17.406 65.0705 17.6176 65.0341 17.7708C64.9976 17.924 64.9612 18.0261 64.932 18.0918C64.8955 18.1501 64.8663 18.2158 64.8444 18.2741C64.7715 18.3544 64.6621 18.4274 64.509 18.4857C64.3558 18.5441 64.188 18.6024 63.9984 18.6535C63.8088 18.7046 63.6192 18.7484 63.4223 18.7921C63.2253 18.8359 63.043 18.865 62.8826 18.8796C62.7877 18.9015 62.7439 18.938 62.7439 19.0036V19.5508C62.7439 19.6748 62.8023 19.7332 62.9191 19.7332C63.342 19.7113 63.7796 19.6967 64.2463 19.6894C64.7131 19.6821 65.158 19.6602 65.5957 19.6456C66.0259 19.6237 66.4198 19.6091 66.7699 19.6019C67.12 19.5946 67.3679 19.5873 67.5065 19.5873C67.7179 19.5873 68.0389 19.5873 68.4692 19.6019C68.8995 19.6091 69.3589 19.6237 69.8477 19.6456C70.3363 19.6675 70.8176 19.6894 71.2844 19.704C71.7512 19.7259 72.1086 19.7332 72.3711 19.7332C72.444 19.7332 72.4732 19.6821 72.4732 19.58V18.9745C72.4732 18.9161 72.4368 18.887 72.3711 18.887C72.2763 18.887 72.1158 18.8796 71.8824 18.8578C71.6491 18.8359 71.3938 18.7994 71.1166 18.7338C70.8395 18.6754 70.5624 18.5952 70.2925 18.493C70.0227 18.3909 69.8184 18.2523 69.6799 18.0699C69.5194 17.8656 69.4027 17.5884 69.3444 17.2382C69.286 16.8881 69.2423 16.4649 69.2204 15.9835V11.6794C69.2204 11.198 69.2204 11.3146 69.2204 11.2563C69.4757 11.2563 69.833 11.2563 70.2852 11.2417C70.7374 11.2344 71.248 11.1834 71.6199 11.1104C72.0137 11.7596 72.2909 12.1536 72.6993 12.978C73.1077 13.8096 73.5307 14.5901 73.9756 15.3415C74.559 16.3337 75.0623 17.1653 75.4781 17.8437C75.901 18.5221 76.3605 18.9672 76.8784 19.1933C77.3232 19.3757 77.8265 19.5216 78.4026 19.6311C78.9715 19.7405 79.7227 19.7988 80.6562 19.7988C81.2397 19.7988 81.9179 19.7697 82.6838 19.7113C82.7567 19.7113 82.7932 19.6529 82.8078 19.5435C82.8224 19.434 82.8224 19.3247 82.8224 19.2225C82.8224 19.1204 82.7713 19.0474 82.6618 18.9964L82.6692 18.9745ZM73.662 8.78325C73.2682 9.148 72.7941 9.40335 72.2471 9.54921C71.7001 9.70242 71.1312 9.77535 70.5478 9.77535C70.1028 9.77535 69.8038 9.76075 69.6361 9.73163C69.4756 9.70242 69.3298 9.66595 69.2131 9.62214V1.5757C69.4246 1.47357 69.6871 1.39332 70.0153 1.33497C70.3435 1.27661 70.6791 1.24743 71.0291 1.24743C71.5908 1.24743 72.1086 1.31308 72.5826 1.44439C73.0566 1.5757 73.4723 1.79455 73.8225 2.09366C74.1725 2.39276 74.4497 2.80128 74.6611 3.29734C74.8727 3.8007 74.9747 4.42078 74.9747 5.17218C74.9747 6.05489 74.8508 6.79169 74.6101 7.3753C74.3621 7.9589 74.0412 8.43308 73.6474 8.79054L73.662 8.78325Z" fill="white"/>
<path d="M100.27 0.182373C99.175 0.204259 98.2198 0.226143 97.4033 0.240734C96.5858 0.262619 95.8353 0.277209 95.149 0.284504C94.4636 0.291799 93.8005 0.30639 93.1578 0.313685C92.5164 0.32098 91.809 0.328274 91.0432 0.328274C90.3212 0.328274 89.6502 0.328274 89.0302 0.313685C88.4103 0.30639 87.7685 0.291799 87.0903 0.284504C86.412 0.277209 85.6535 0.262619 84.8147 0.240734C83.9761 0.218848 82.9841 0.196963 81.8391 0.182373C81.8172 0.240734 81.7954 0.32098 81.788 0.423111C81.7734 0.525242 81.7734 0.685734 81.7734 0.904586V4.63238C81.7734 4.91688 81.8829 5.09197 82.109 5.16492C82.3277 5.23787 82.6633 5.27434 83.1082 5.27434C83.1811 4.71262 83.2686 4.18737 83.3853 3.7132C83.5019 3.23901 83.6916 2.83049 83.9615 2.48762C84.2313 2.14475 84.5886 1.87483 85.0482 1.68516C85.5003 1.49548 86.1129 1.40065 86.886 1.40065H88.9501V16.1805C88.9501 16.7495 88.9355 17.1507 88.899 17.3914C88.8626 17.6322 88.7531 17.8657 88.5635 18.0845C88.4249 18.245 88.2426 18.3763 88.0238 18.4784C87.805 18.5806 87.5716 18.6535 87.3382 18.7046C87.1049 18.7556 86.886 18.7921 86.6891 18.8141C86.4922 18.8359 86.3463 18.8578 86.2516 18.8724C86.1567 18.8942 86.1129 18.9453 86.1129 19.0256V19.5435C86.1129 19.6675 86.1495 19.7259 86.215 19.7259C87.0319 19.6821 87.8852 19.6529 88.7823 19.6165C89.6794 19.5873 90.4816 19.5728 91.1818 19.5728C91.5537 19.5728 91.9549 19.5727 92.3706 19.5873C92.7936 19.5946 93.209 19.6092 93.6322 19.6165C94.0553 19.6237 94.4561 19.6383 94.8356 19.6603C95.2224 19.6821 95.5507 19.704 95.8353 19.7186C95.9079 19.7186 95.9367 19.6603 95.9367 19.5362V19.0839C95.9367 19.0037 95.893 18.9527 95.7981 18.9307C95.7033 18.9088 95.5647 18.887 95.375 18.8578C95.1862 18.8286 94.9816 18.7848 94.7481 18.7192C94.5147 18.6608 94.2887 18.5806 94.0627 18.4784C93.8442 18.3763 93.647 18.245 93.4861 18.0845C93.2964 17.8803 93.1876 17.6541 93.1513 17.4061C93.1141 17.1507 93.1002 16.7422 93.1002 16.1805V1.39335H95.2001C95.9441 1.39335 96.5496 1.48819 97.0164 1.67787C97.4833 1.86754 97.8478 2.13746 98.1175 2.48032C98.3872 2.8232 98.5844 3.23172 98.7155 3.70589C98.8467 4.18008 98.9415 4.69803 99.015 5.26705C99.547 5.28894 99.919 5.26705 100.116 5.1941C100.313 5.12114 100.415 4.94606 100.415 4.66155V0.941066C100.415 0.722209 100.401 0.554422 100.378 0.459586C100.357 0.357455 100.32 0.269914 100.276 0.189668L100.27 0.182373Z" fill="white"/>
<path d="M118.107 14.6704C117.947 14.6412 117.159 14.6266 117.159 14.6266C117.159 14.6266 116.546 15.9251 115.657 16.9902C115.35 17.3623 114.927 17.6249 114.454 17.8365C113.972 18.048 113.389 18.1575 112.688 18.1575C111.637 18.1575 110.836 18.1137 110.274 18.0189C109.712 17.9314 109.282 17.7125 108.983 17.3696C108.727 17.0851 108.575 16.8006 108.531 16.5088C108.488 16.2169 108.458 15.8668 108.458 15.4656V3.75696C108.458 3.19524 108.473 2.77942 108.494 2.5168C108.516 2.25417 108.626 2.02073 108.808 1.82376C108.968 1.66327 109.166 1.53196 109.384 1.42983C109.603 1.3277 109.836 1.24746 110.069 1.18909C110.303 1.13073 110.515 1.07967 110.697 1.05049C110.887 1.02131 111.026 0.992127 111.12 0.977541C111.215 0.955652 111.259 0.904586 111.259 0.824341V0.36475C111.259 0.240734 111.222 0.182373 111.157 0.182373C110.88 0.204259 110.529 0.226143 110.107 0.240734C109.684 0.262619 109.246 0.277209 108.794 0.284504C108.342 0.291799 107.904 0.30639 107.48 0.313685C107.058 0.32098 106.708 0.328274 106.43 0.328274C106.153 0.328274 105.789 0.328274 105.344 0.313685C104.899 0.30639 104.439 0.291799 103.965 0.284504C103.484 0.277209 103.032 0.262619 102.602 0.240734C102.171 0.218848 101.829 0.196963 101.573 0.182373C101.5 0.182373 101.471 0.240734 101.471 0.36475V0.882701C101.471 0.962945 101.514 1.01401 101.609 1.03589C101.704 1.05778 101.85 1.07967 102.047 1.09426C102.244 1.11615 102.463 1.15262 102.696 1.20368C102.93 1.25475 103.156 1.3277 103.382 1.42983C103.6 1.53196 103.783 1.66327 103.921 1.82376C104.111 2.04262 104.221 2.28335 104.257 2.53868C104.293 2.79402 104.308 3.20254 104.308 3.76426V16.0273C104.308 17.0996 104.192 17.7635 103.958 18.0261C103.652 18.369 103.316 18.5806 102.945 18.6608C102.573 18.741 102.288 18.7994 102.106 18.8432C102.011 18.8651 101.967 18.9016 101.967 18.9672V19.5143C101.967 19.6383 102.04 19.704 102.178 19.7259C102.484 19.7259 102.856 19.7186 103.294 19.6968C103.739 19.6748 104.198 19.6529 104.673 19.6383C105.147 19.6165 105.614 19.6019 106.051 19.5946C106.496 19.5873 106.868 19.58 107.167 19.58C107.444 19.58 108.021 19.58 108.881 19.5946C109.741 19.6019 110.697 19.6165 111.732 19.6383C112.768 19.6603 113.811 19.6748 114.847 19.6821C115.883 19.6894 116.728 19.704 117.385 19.7259C117.48 19.3393 117.575 18.9307 117.662 18.5003C117.757 18.07 117.852 17.6103 117.939 17.1216C118.078 16.5598 118.187 16.0492 118.253 15.6042C118.326 15.1592 118.355 14.9184 118.355 14.8747C118.355 14.7726 118.275 14.7069 118.107 14.6777V14.6704Z" fill="white"/>
<path d="M139.337 18.9016C139.221 18.8578 139.06 18.814 138.863 18.7484C138.666 18.69 138.484 18.6098 138.323 18.5076C138.185 18.4055 138.046 18.2815 137.9 18.1283C137.761 17.9751 137.623 17.7635 137.477 17.4936C137.338 17.2237 137.171 16.8808 136.989 16.4796C136.799 16.0783 136.58 15.5677 136.325 14.9622C136.047 14.3349 135.683 13.4813 135.238 12.4017C134.794 11.322 134.297 10.1183 133.75 8.79787C133.203 7.47746 132.634 6.0914 132.036 4.64697C131.438 3.20254 130.855 1.7946 130.271 0.423114C130.199 0.262623 130.111 0.153197 129.994 0.087541C129.878 0.0291804 129.681 0 129.396 0C129.119 0.0218852 128.923 0.0583606 128.82 0.109426C128.718 0.160492 128.631 0.277213 128.557 0.459591C128.23 1.26935 127.872 2.15935 127.471 3.1223C127.077 4.09254 126.654 5.09197 126.209 6.12058C125.764 7.14918 125.312 8.19238 124.846 9.24287C124.379 10.2934 123.927 11.3073 123.481 12.2849C123.037 13.2624 122.621 14.1743 122.22 15.0279C121.826 15.8741 121.476 16.6109 121.169 17.2383C121.031 17.5593 120.835 17.8729 120.594 18.1647C120.345 18.4566 120.061 18.6535 119.732 18.7556C119.594 18.7994 119.455 18.8286 119.332 18.8432C119.2 18.8651 119.047 18.887 118.857 18.9016C118.762 18.9234 118.719 18.9891 118.719 19.1131V19.5946C118.719 19.6749 118.741 19.7186 118.792 19.7186C119.091 19.6749 119.529 19.6457 120.083 19.6092C120.645 19.58 121.235 19.5654 121.87 19.5654C122.504 19.5654 123.073 19.58 123.584 19.6092C124.094 19.6383 124.597 19.6749 125.086 19.7186V19.0839C124.364 19.0402 123.832 18.938 123.496 18.763C123.16 18.5952 122.986 18.2815 122.986 17.8365C122.986 17.4717 123.08 17.0194 123.263 16.4723L124.546 13.226H131.322L132.708 16.7495C132.78 16.9684 132.839 17.1653 132.898 17.3259C132.955 17.4863 132.985 17.6468 132.985 17.8073C132.985 18.2742 132.803 18.5879 132.445 18.7484C132.08 18.9088 131.636 19.0183 131.096 19.0839V19.7186C131.862 19.6749 132.591 19.6457 133.262 19.6092C133.94 19.58 134.611 19.5654 135.289 19.5654C136.085 19.5654 136.835 19.5873 137.543 19.6238C138.251 19.6675 138.863 19.704 139.381 19.7478C139.454 19.7478 139.483 19.704 139.483 19.6238V19.1059C139.483 18.9818 139.424 18.9162 139.308 18.8942L139.337 18.9016ZM126.727 7.93705C127.252 6.6823 127.726 5.52238 128.142 4.45729C128.354 5.00443 128.565 5.58804 128.791 6.21541C129.01 6.84279 129.244 7.47746 129.477 8.12673C129.709 8.77599 129.95 9.41795 130.191 10.0673C130.403 10.6289 130.6 11.1687 130.789 11.6867H125.166C125.713 10.3809 126.239 9.13344 126.734 7.95164L126.727 7.93705Z" fill="white"/>
<path d="M158.819 0.335569C158.542 0.335569 158.025 0.328274 157.281 0.30639C156.537 0.284504 155.647 0.248029 154.626 0.182373V0.941066C155.326 0.99942 155.888 1.12344 156.303 1.30582C156.726 1.48819 157.055 1.74352 157.302 2.06451C157.55 2.38548 157.725 2.77942 157.828 3.23172C157.93 3.68402 158.017 4.20926 158.09 4.79287C158.134 5.21598 158.192 5.84335 158.251 6.66771C158.309 7.49935 158.359 8.38935 158.411 9.34503C158.454 10.3007 158.498 11.2563 158.535 12.2047C158.572 13.153 158.6 13.9701 158.623 14.6558C157.733 13.7074 156.835 12.7226 155.909 11.7013C154.99 10.68 154.02 9.58577 153.006 8.41853C151.993 7.25131 150.906 5.98926 149.754 4.63238C148.602 3.28279 147.347 1.79458 145.99 0.182373C145.364 0.240734 144.787 0.284504 144.277 0.30639C143.766 0.328274 143.307 0.335569 142.913 0.335569C142.424 0.335569 141.906 0.32098 141.374 0.291799C140.835 0.262619 140.338 0.226143 139.871 0.182373V0.846226C139.871 0.984834 139.966 1.08696 140.148 1.15262C140.477 1.23286 140.797 1.37148 141.126 1.56114C141.454 1.75081 141.767 1.97696 142.074 2.23959C142.373 2.50221 142.665 2.78672 142.927 3.08582C143.197 3.39221 143.424 3.66942 143.612 3.93204V7.80574C143.612 9.07509 143.612 10.235 143.599 11.2709C143.584 12.3141 143.569 13.2041 143.547 13.9482C143.525 14.6923 143.511 15.203 143.511 15.4656C143.438 16.2534 143.35 16.859 143.248 17.2821C143.147 17.7051 143.029 17.9678 142.913 18.07C142.585 18.3544 142.227 18.5514 141.826 18.6608C141.433 18.7702 141.207 18.8359 141.163 18.8578C141.089 18.8796 141.053 18.9162 141.038 18.9818C141.024 19.0402 141.024 19.0913 141.024 19.135V19.7114C141.469 19.6675 142.008 19.6383 142.65 19.6019C143.292 19.5728 143.832 19.5581 144.277 19.5581C144.743 19.5581 145.356 19.5728 146.114 19.6019C146.873 19.6311 147.697 19.6675 148.58 19.7114V19.0474C147.879 19.0037 147.318 18.8796 146.881 18.6681C146.45 18.4566 146.108 18.1647 145.867 17.7927C145.618 17.4207 145.451 16.9684 145.356 16.4286C145.261 15.896 145.195 15.2905 145.144 14.6266C145.123 14.2619 145.093 13.7221 145.057 13.0072C145.021 12.2922 144.984 11.4898 144.954 10.5997C144.918 9.70977 144.882 8.79057 144.853 7.82762C144.816 6.87197 144.787 5.97467 144.766 5.15032C148.033 8.84894 150.789 11.891 153.036 14.2983C155.29 16.6984 157.004 18.566 158.192 19.901H159.629C159.819 19.8791 159.906 19.7769 159.906 19.6019C159.884 18.9162 159.862 18.1355 159.855 17.2674C159.84 16.3994 159.826 15.5021 159.804 14.5683C159.782 13.4959 159.76 12.4308 159.753 11.3584C159.739 10.2861 159.731 9.30123 159.716 8.40393C159.701 7.50664 159.701 6.73335 159.701 6.0841V4.71991C159.701 4.17279 159.745 3.7132 159.826 3.34114C159.906 2.96909 160.022 2.6627 160.176 2.41467C160.329 2.17393 160.512 1.97696 160.715 1.82376C160.927 1.67057 161.146 1.54655 161.379 1.44442C161.613 1.32041 161.831 1.22557 162.028 1.15991C162.226 1.08696 162.444 1.02131 162.677 0.962945C162.721 0.941066 162.757 0.897291 162.78 0.824341C162.801 0.75139 162.816 0.700324 162.816 0.656554V0.182373C162.021 0.226143 161.241 0.255324 160.475 0.291799C159.701 0.32098 159.155 0.335569 158.834 0.335569H158.819Z" fill="white"/>
<path d="M185.351 5.71935C184.921 4.58131 184.257 3.58189 183.361 2.73566C182.463 1.88942 181.311 1.22557 179.918 0.736804C178.517 0.248033 176.854 0 174.914 0C174.375 0 173.777 0.00729509 173.113 0.0291804C172.45 0.0510656 171.786 0.0656557 171.137 0.0729509C170.48 0.080246 169.875 0.102131 169.321 0.116721C168.759 0.138607 168.314 0.145901 167.993 0.145901H164.142C163.953 0.145901 163.865 0.196967 163.865 0.299099V0.817049C163.865 0.897296 163.909 0.948363 164.004 0.970242C164.142 1.01402 164.332 1.0359 164.565 1.0432C164.799 1.05049 165.032 1.07238 165.266 1.10155C165.499 1.13073 165.71 1.17451 165.893 1.22557C166.082 1.27664 166.199 1.3423 166.243 1.42254C166.265 1.46632 166.294 1.51738 166.331 1.57574C166.367 1.6341 166.397 1.73623 166.418 1.86754C166.44 1.99886 166.462 2.20312 166.491 2.48033C166.513 2.75754 166.528 3.12959 166.528 3.59647V16.1294C166.528 16.9684 166.491 17.5009 166.425 17.7343C166.353 17.9678 166.287 18.1355 166.214 18.2377C166.17 18.318 166.046 18.3909 165.849 18.4493C165.653 18.5076 165.433 18.566 165.2 18.617C164.966 18.6681 164.74 18.7119 164.522 18.7411C164.303 18.7702 164.121 18.7994 163.982 18.814C163.887 18.8359 163.844 18.8724 163.844 18.938V19.4852C163.844 19.6311 163.88 19.6967 163.946 19.6967C164.945 19.6529 165.849 19.6238 166.637 19.5873C167.432 19.5581 168.081 19.5435 168.599 19.5435C168.854 19.5435 169.226 19.5435 169.7 19.5581C170.174 19.5654 170.67 19.58 171.188 19.5873C171.699 19.5946 172.173 19.6092 172.602 19.6165C173.033 19.6238 173.318 19.6311 173.456 19.6311C175.134 19.6311 176.731 19.4049 178.248 18.9453C179.764 18.4858 181.099 17.8219 182.252 16.9611C183.404 16.0929 184.323 15.0279 184.994 13.7513C185.673 12.4746 186.008 11.0155 186.008 9.36688C186.008 8.06107 185.789 6.84279 185.358 5.69746L185.351 5.71935ZM180.772 13.7585C180.362 14.8163 179.816 15.6917 179.13 16.3847C178.445 17.0778 177.657 17.5885 176.767 17.9094C175.877 18.2377 174.951 18.3982 173.967 18.3982C173.572 18.3982 173.121 18.369 172.617 18.3107C172.114 18.2523 171.735 18.1355 171.48 17.9751C171.224 17.8146 171.027 17.5957 170.882 17.3331C170.743 17.0705 170.67 16.6693 170.67 16.144V1.72894C171.159 1.60492 171.727 1.52467 172.369 1.4882C173.011 1.44443 173.61 1.42983 174.17 1.42983C175.286 1.42983 176.293 1.60492 177.175 1.96238C178.058 2.31983 178.817 2.85967 179.43 3.59647C180.049 4.32598 180.523 5.26705 180.866 6.41967C181.201 7.5723 181.376 8.72492 181.376 10.1693C181.376 11.6138 181.172 12.7007 180.764 13.7585H180.772Z" fill="white"/>
</g>
</g>
<defs>
<clipPath id="clip0_413_1130">
<rect width="186" height="40" fill="white"/>
</clipPath>
</defs>
</svg>
