<svg width="40" height="40" viewBox="0 0 40 40" fill="none" xmlns="http://www.w3.org/2000/svg">
<path d="M4.20125 4.20833L1.25542 7.15374C0.857339 7.55189 0.541583 8.02454 0.326177 8.54471C0.110772 9.06489 -6.32638e-05 9.6224 2.70907e-08 10.1854V40H35.775V35.7992H4.20083V4.20833H4.20125Z" fill="#258752"/>
<path d="M4.20703 4.20083L7.15245 1.25583C7.95649 0.451765 9.04701 2.84616e-05 10.1841 0L39.9999 0V35.7733H35.7987V4.20083H4.20703Z" fill="#19E480"/>
<path d="M13.2531 23.6454H11.1656L8.33474 19.9483V23.6454H6.69141V15.5408H8.33474V19.0825L11.0881 15.5408H13.0531L9.91141 19.3713L13.2531 23.6454ZM13.7972 23.6454H15.396V17.9279H13.7972V23.6454ZM15.5514 16.34C15.5514 16.8621 15.1293 17.2617 14.5964 17.2617C14.0527 17.2617 13.6418 16.8617 13.6418 16.34C13.6418 15.8183 14.0527 15.4075 14.5964 15.4075C15.1297 15.4075 15.5514 15.8183 15.5514 16.34ZM24.0893 17.9279H25.6547L23.6672 23.6454H22.1464L20.8806 20.0817L19.6147 23.6454H18.0939L16.1064 17.9279H17.7385L18.9268 21.4804L20.1589 17.9279H21.6689L22.9014 21.4804L24.0893 17.9279ZM26.2881 23.6454H27.8868V17.9279H26.2881V23.6454ZM28.0422 16.34C28.0422 16.8621 27.6202 17.2617 27.0872 17.2617C26.5435 17.2617 26.1327 16.8617 26.1327 16.34C26.1327 15.8183 26.5435 15.4075 27.0872 15.4075C27.6206 15.4075 28.0422 15.8183 28.0422 16.34ZM11.0214 30.3854C11.0214 29.4642 10.4547 28.7867 9.63349 28.7867C8.77849 28.7867 8.19016 29.4642 8.19016 30.3854C8.19016 31.3071 8.77849 31.9954 9.63349 31.9954C10.4552 31.9954 11.021 31.3071 11.021 30.3854M12.6089 30.3967C12.6089 32.0954 11.3764 33.3496 9.87766 33.3496C9.28858 33.3524 8.7207 33.13 8.29016 32.7279V33.2388H6.69141V25.1342H8.29016V28.0542C8.71664 27.6444 9.28624 27.4173 9.87766 27.4212C11.3764 27.4212 12.6089 28.6867 12.6089 30.3962M17.5939 30.3854C17.5939 29.4642 17.0056 28.7867 16.1506 28.7867C15.3293 28.7867 14.7631 29.4642 14.7631 30.3854C14.7631 31.3071 15.3293 31.9954 16.1506 31.9954C17.0056 31.9954 17.5939 31.3071 17.5939 30.3854ZM17.4939 27.5213H19.0931V33.2388H17.4939V32.7279C17.0634 33.13 16.4955 33.3524 15.9064 33.3496C14.4077 33.3496 13.1752 32.0954 13.1752 30.3967C13.1752 28.6867 14.4077 27.4217 15.9064 27.4217C16.5281 27.4217 17.0722 27.6542 17.4939 28.0542V27.5213ZM25.266 29.6083V33.2388H23.6672V30.0079C23.6672 29.2087 23.3785 28.7871 22.7347 28.7871C22.0685 28.7871 21.7356 29.2308 21.7356 30.0079V33.2388H20.1368V27.5208H21.7243V28.0425C22.0685 27.6425 22.6235 27.4096 23.1785 27.4096C24.5002 27.4096 25.266 28.2537 25.266 29.6083ZM31.8056 33.2388H29.8847L27.8756 30.6521V33.2388H26.2768V25.1342H27.8756V29.7638L29.8185 27.5213H31.7393L29.3856 30.1633L31.8056 33.2388ZM34.1485 32.3617C34.1485 32.8946 33.7264 33.3054 33.1935 33.3054C32.6493 33.3054 32.2389 32.8946 32.2389 32.3617C32.2389 31.8288 32.6493 31.4179 33.1931 31.4179C33.7264 31.4179 34.1485 31.8288 34.1485 32.3617Z" fill="white"/>
</svg>
