<svg width="56" height="40" viewBox="0 0 56 40" fill="none" xmlns="http://www.w3.org/2000/svg">
<path d="M6.79249 30.5707C6.9059 30.44 6.99664 30.3207 7.10438 30.2242C7.68846 29.6845 8.37462 29.5595 9.12882 29.7754C9.88869 29.9969 10.3764 30.5196 10.6883 31.224C10.9605 31.8432 11.0455 32.4909 10.9888 33.1612C10.9434 33.6953 10.813 34.2066 10.5408 34.6724C10.1609 35.3314 9.61083 35.7745 8.84528 35.8881C7.99468 36.0131 7.28584 35.7802 6.80384 35.0303C6.79817 35.0189 6.79249 35.0132 6.78115 35.0019C6.77548 34.9962 6.76981 35.0019 6.76414 35.0019C6.7528 35.0985 6.74713 35.2007 6.72445 35.2973C6.62804 35.6723 6.33317 35.8711 5.9589 35.8711C5.60165 35.8711 5.29543 35.6268 5.22171 35.2859C5.19903 35.195 5.19336 35.0985 5.19336 35.0019C5.19336 32.4852 5.19336 29.9628 5.19336 27.4461C5.19336 26.9803 5.45421 26.6622 5.89086 26.594C6.36719 26.5145 6.80384 26.878 6.80384 27.3666C6.80384 28.3778 6.80384 29.3834 6.80384 30.3946C6.79249 30.4344 6.79249 30.4912 6.79249 30.5707ZM9.40101 32.9795C9.40101 32.4 9.33296 32.0648 9.18552 31.7637C8.87364 31.1161 8.15346 30.8604 7.55236 31.1786C7.25749 31.3376 7.0817 31.5933 6.96261 31.8944C6.78682 32.3375 6.76981 32.7977 6.83786 33.2635C6.87755 33.5078 6.95128 33.735 7.0817 33.9509C7.22347 34.1895 7.41627 34.3827 7.68846 34.4792C8.25553 34.6837 8.85095 34.4508 9.14583 33.9055C9.33863 33.5646 9.39534 33.1896 9.40101 32.9795Z" fill="white"/>
<path d="M2.31219 35.9449C1.59768 35.9165 0.939886 35.7404 0.372817 35.2973C0.180014 35.1439 0.0495864 34.9564 0.00989157 34.7065C-0.0751687 34.1611 0.40684 33.9395 0.747081 34.0361C0.894519 34.0759 1.03062 34.1554 1.16104 34.2406C1.41622 34.4054 1.6714 34.5758 1.97195 34.6383C2.24981 34.7008 2.52768 34.7122 2.79987 34.6156C3.03804 34.5304 3.15713 34.3656 3.14012 34.1497C3.12877 33.985 3.04371 33.86 2.90194 33.7918C2.67511 33.6839 2.44829 33.5873 2.21012 33.5135C1.79049 33.3771 1.37086 33.2521 0.979578 33.0363C0.713055 32.8886 0.469217 32.7011 0.293426 32.4511C0.0552571 32.1159 -0.0127912 31.7296 0.00989157 31.332C0.0439157 30.5821 0.469217 30.1162 1.14403 29.8833C2.1364 29.5311 3.10042 29.6277 4.02474 30.1276C4.15517 30.1958 4.26858 30.298 4.37065 30.406C4.50675 30.5423 4.58047 30.7127 4.56346 30.9059C4.52376 31.3661 4.19486 31.491 3.8773 31.4456C3.72987 31.4285 3.58242 31.3547 3.44066 31.3036C3.19682 31.2127 2.95865 31.1047 2.70914 31.0252C2.47097 30.9513 2.22713 30.9627 1.98329 31.0025C1.93226 31.0138 1.88122 31.0309 1.83018 31.0479C1.48994 31.1899 1.4389 31.5592 1.73945 31.7637C1.92091 31.883 2.13073 31.9626 2.33487 32.0364C2.67511 32.1614 3.0267 32.258 3.36127 32.3943C3.57675 32.4795 3.7809 32.5875 3.97937 32.7068C4.36498 32.9454 4.60315 33.2919 4.66552 33.7464C4.73357 34.2804 4.64285 34.7803 4.27425 35.2007C3.99639 35.5189 3.31023 35.979 2.31219 35.9449Z" fill="white"/>
<path d="M13.6187 35.9165C12.8192 35.9165 12.1784 35.7518 11.6113 35.3371C11.4015 35.1837 11.254 34.9962 11.203 34.7292C11.1066 34.2122 11.5432 33.9452 11.9175 34.0361C12.082 34.0759 12.2351 34.1668 12.3768 34.2577C12.6207 34.411 12.8588 34.5644 13.1424 34.6326C13.3862 34.6894 13.6244 34.7065 13.8682 34.6496C13.9419 34.6326 14.0157 34.6042 14.0837 34.5701C14.3899 34.4054 14.4296 34.0475 14.1518 33.8373C14.0043 33.7293 13.8229 33.6498 13.6414 33.5873C13.2841 33.4566 12.9156 33.3601 12.564 33.218C12.3371 33.1271 12.1217 33.0078 11.9232 32.8715C11.4355 32.5533 11.2143 32.0818 11.1973 31.508C11.1803 31.0649 11.2881 30.6673 11.6 30.3378C11.8268 30.0992 12.099 29.9401 12.4165 29.8435C13.3749 29.5424 14.2992 29.6276 15.1838 30.0992C15.3256 30.1787 15.456 30.2923 15.5751 30.4059C15.7566 30.5764 15.7849 30.8036 15.7396 31.0365C15.6772 31.3263 15.3766 31.508 15.0421 31.4399C14.8833 31.4058 14.7245 31.3433 14.5771 31.2694C14.2652 31.1217 13.9419 30.9854 13.5904 30.9797C13.4032 30.9797 13.2104 31.0081 13.029 31.0536C12.8702 31.0933 12.7624 31.2126 12.7454 31.3831C12.7284 31.5535 12.8021 31.6898 12.9439 31.7751C13.0913 31.8603 13.2501 31.9398 13.4089 31.9966C13.7945 32.133 14.1915 32.2466 14.5714 32.4C14.7982 32.4852 15.0137 32.6045 15.2179 32.7408C15.7622 33.1044 15.9437 33.6384 15.8757 34.2633C15.7906 35.053 15.3086 35.5245 14.5771 35.7631C14.2198 35.8767 13.8682 35.9222 13.6187 35.9165Z" fill="white"/>
<path d="M8.5329 37.0584C8.5329 37.3368 8.5329 37.6947 8.5329 37.973C8.5329 38.3196 8.53857 38.6718 8.5329 39.024C8.5329 39.1433 8.54424 39.3308 8.40814 39.3478C8.30607 39.3592 8.27205 39.2797 8.27205 39.0411C8.27205 38.348 8.27205 37.6606 8.27205 36.9675C8.27205 36.8993 8.26638 36.8312 8.27205 36.763C8.27772 36.6721 8.23802 36.5471 8.37412 36.5187C8.48753 36.4903 8.52723 36.5926 8.57826 36.6664C8.98088 37.2913 9.38917 37.9162 9.79179 38.5411C9.83716 38.6093 9.88252 38.6718 9.92789 38.7343L9.97326 38.7968C9.97326 38.7229 9.97326 38.5752 9.97326 38.5014C9.97326 37.9219 9.97326 37.3481 9.97326 36.7687C9.97326 36.6664 9.93923 36.5244 10.0923 36.5187C10.2568 36.513 10.2171 36.6607 10.2171 36.7573C10.2171 37.5413 10.2171 38.3196 10.2171 39.1036C10.2171 39.1433 10.2171 39.3251 10.115 39.3365C9.99027 39.3535 9.92222 39.1945 9.89387 39.149C9.49692 38.5411 9.09997 37.9276 8.70302 37.3141C8.66333 37.2516 8.61796 37.1947 8.57826 37.1323L8.5329 37.0584Z" fill="white"/>
<path d="M4.71712 37.8424C4.77383 37.8708 4.80786 37.8821 4.84188 37.8992C5.17078 38.0583 5.29553 38.2798 5.26151 38.6491C5.23882 38.9331 5.03468 39.1774 4.72847 39.257C4.5867 39.2967 4.42792 39.3024 4.28048 39.3081C4.05932 39.3194 3.84384 39.3138 3.62268 39.3081C3.45823 39.3024 3.43555 39.2854 3.43555 39.1263C3.43555 38.3196 3.43555 37.5186 3.43555 36.7119C3.43555 36.5528 3.45823 36.5301 3.62835 36.5301C3.88353 36.5244 4.14438 36.5187 4.39956 36.5357C4.8759 36.5641 5.13675 36.888 5.08005 37.3425C5.04602 37.5697 4.90992 37.706 4.71712 37.8424ZM3.67939 39.0808C3.91756 39.0808 4.13871 39.0808 4.3542 39.0808C4.39956 39.0808 4.44493 39.0865 4.49029 39.0808C4.70011 39.0524 4.88724 38.9729 4.9723 38.757C5.11974 38.4105 4.92694 38.0526 4.53566 38.0014C4.2578 37.9674 3.96859 37.9958 3.67939 37.9958C3.67939 38.365 3.67939 38.7059 3.67939 39.0808ZM3.67939 37.7515C3.93457 37.7515 4.18408 37.7685 4.42792 37.7458C4.65474 37.7231 4.82486 37.4958 4.8362 37.2686C4.84755 37.047 4.70578 36.8312 4.47329 36.7857C4.20676 36.7289 3.94024 36.7687 3.67939 36.763C3.67939 37.1095 3.67939 37.4277 3.67939 37.7515Z" fill="white"/>
<path d="M11.6969 37.8026C11.5041 38.0355 11.3339 38.2344 11.1695 38.4446C11.1355 38.4843 11.1355 38.5582 11.1298 38.615C11.1241 38.7911 11.1298 38.9615 11.1298 39.1377C11.1298 39.2342 11.1128 39.3365 10.9994 39.3422C10.8746 39.3479 10.8633 39.2456 10.8633 39.149C10.8633 38.3366 10.8633 37.5243 10.8633 36.7119C10.8633 36.6721 10.8633 36.6323 10.8746 36.5982C10.8973 36.5358 10.9483 36.513 10.988 36.513C11.0277 36.513 11.0901 36.5528 11.1071 36.5926C11.1298 36.6437 11.1298 36.7119 11.1298 36.7687C11.1298 37.155 11.1298 37.5413 11.1298 37.9333C11.1298 37.9787 11.1355 38.0185 11.1411 38.1037C11.385 37.8026 11.6061 37.5356 11.8273 37.2686C12.0031 37.0584 12.1732 36.8425 12.3433 36.6323C12.3774 36.5926 12.4114 36.5414 12.4567 36.5244C12.5191 36.5017 12.5588 36.5244 12.5985 36.5471C12.6212 36.5642 12.6269 36.6323 12.6099 36.6664C12.5815 36.7289 12.5361 36.78 12.4908 36.8312C12.281 37.0868 12.0655 37.3425 11.8557 37.6038C12.1222 38.098 12.383 38.5752 12.6382 39.0524C12.6836 39.1377 12.7856 39.2513 12.6439 39.3251C12.5078 39.3876 12.4681 39.2513 12.4227 39.1604C12.1846 38.723 11.9521 38.2798 11.6969 37.8026Z" fill="white"/>
<path d="M7.30257 38.5809C6.88294 38.5809 6.48033 38.5809 6.06637 38.5809C5.99832 38.757 5.9246 38.9275 5.85655 39.1036C5.83954 39.149 5.8282 39.1888 5.81119 39.2285C5.78283 39.3024 5.73747 39.3649 5.64107 39.3308C5.54466 39.2967 5.55034 39.2229 5.57869 39.1433C5.68076 38.8706 5.79417 38.5923 5.89625 38.3139C6.10039 37.7799 6.30454 37.2402 6.51435 36.7005C6.53136 36.6551 6.5427 36.6153 6.56538 36.5755C6.63343 36.4619 6.75252 36.4619 6.80923 36.5812C6.8716 36.7119 6.9113 36.8482 6.96801 36.9845C7.23453 37.6663 7.49538 38.3537 7.7619 39.0411C7.82428 39.2001 7.83562 39.2854 7.75056 39.3194C7.67117 39.3478 7.61446 39.3308 7.58611 39.2626C7.53507 39.1433 7.48971 39.024 7.44434 38.9047C7.3933 38.8025 7.34794 38.7002 7.30257 38.5809ZM7.22319 38.3366C7.0474 37.8594 6.87728 37.4049 6.68447 36.8936C6.49734 37.3993 6.32722 37.8594 6.14576 38.3366C6.51435 38.3366 6.85459 38.3366 7.22319 38.3366Z" fill="white"/>
<path d="M30.3935 38.0583C31.1307 37.4958 31.8792 36.9505 32.6108 36.3767C36.5689 33.2578 40.5327 30.156 44.4625 27.003C46.1921 25.6112 47.9159 24.1909 49.5094 22.64C52.2654 19.9529 53.666 16.6579 53.2294 12.7664C52.6056 7.18765 48.0634 3.41545 43.6289 2.79054C40.028 2.27925 36.9091 3.37569 34.2212 5.75035C31.8736 7.82392 29.5656 9.9543 27.2406 12.0563C25.0858 14.0049 22.9025 15.9307 20.7704 17.9077C18.0825 20.4017 14.113 20.2256 11.4761 17.9191C9.3893 16.0955 8.62943 13.7663 9.32125 11.0791C9.99039 8.46588 11.72 6.79566 14.3511 6.18779C16.6988 5.64809 18.7913 6.25028 20.5492 7.9205C21.2354 8.57381 21.8932 9.2669 22.568 9.93726C22.8175 10.1815 22.9479 10.4599 22.8629 10.8065C22.7097 11.3859 21.9612 11.7097 21.4168 11.1587C20.7874 10.5224 20.1523 9.89181 19.5228 9.26122C18.7346 8.47156 17.8103 7.97731 16.7045 7.76711C14.13 7.27855 11.4591 9.06807 10.9147 11.6472C10.1208 15.4138 13.3021 17.9645 16.0637 18.0043C17.4757 18.0213 18.6552 17.5441 19.6873 16.6124C24.1217 12.5903 28.5562 8.56814 33.002 4.55734C34.8734 2.87576 37.0169 1.68844 39.5006 1.21123C43.1469 0.506787 46.4869 1.251 49.4867 3.42683C52.634 5.71059 54.5053 8.79537 54.9306 12.6641C55.3105 16.1352 54.3465 19.2768 52.2767 22.0889C51.1596 23.6058 49.7306 24.8045 48.3129 26.0088C42.801 30.707 37.0566 35.1212 31.3008 39.5183C31.2214 39.5751 31.1477 39.6319 31.0683 39.6887C30.4899 40.1034 30.2574 40.1034 29.696 39.6717C27.8871 38.2798 26.0838 36.8937 24.2749 35.5018C21.7287 33.5419 19.1826 31.5819 16.6421 29.622C16.5514 29.5538 16.455 29.4913 16.3699 29.4118C16.0127 29.0709 15.973 28.588 16.2678 28.2358C16.5684 27.8722 17.0391 27.804 17.4417 28.1051C18.2299 28.696 19.0125 29.3038 19.795 29.906C23.1691 32.5022 26.5431 35.1041 29.9115 37.6947C30.0476 37.814 30.2007 37.9162 30.3935 38.0583Z" fill="white"/>
<path d="M30.3708 34.2633C31.7375 33.218 33.0984 32.2125 34.4197 31.1615C37.8334 28.4346 41.2472 25.6964 44.6383 22.9411C45.6987 22.0776 46.7251 21.1686 47.6834 20.1972C49.4413 18.4133 50.3883 16.2545 50.2749 13.7208C50.1502 10.9542 48.8629 8.79537 46.64 7.19332C45.3641 6.273 43.9238 5.74466 42.353 5.67649C40.3172 5.5856 38.4686 6.19915 36.8978 7.46601C35.4801 8.61358 34.1532 9.86908 32.7979 11.0905C29.3501 14.1923 25.9307 17.3283 22.4659 20.4074C20.4018 22.2366 17.952 23.032 15.2017 22.7593C12.4855 22.4866 10.2399 21.2425 8.47063 19.1859C5.30071 15.4819 5.23266 10.2611 8.3402 6.51729C10.3987 4.03468 13.1036 2.88144 16.3302 3.0121C18.831 3.11436 20.9575 4.10854 22.7437 5.83556C23.3732 6.44343 23.98 7.06834 24.5981 7.69325C24.6774 7.77279 24.7568 7.858 24.8192 7.9489C25.0857 8.34657 25.046 8.79537 24.7228 9.0851C24.3996 9.37483 23.9289 9.39188 23.583 9.07374C23.135 8.65903 22.7154 8.21591 22.2844 7.78415C21.5756 7.06835 20.8724 6.35254 19.9935 5.8242C15.1847 2.92689 8.93562 5.72763 7.90356 11.2382C7.22308 14.8968 9.03202 18.4474 12.4855 20.2199C15.5023 21.7651 18.8423 21.322 21.3431 19.1121C24.1614 16.6181 26.9344 14.073 29.7244 11.5507C31.5447 9.90885 33.3423 8.23863 35.1852 6.61955C37.2664 4.79594 39.6821 3.80176 42.4834 3.94378C44.8935 4.06877 46.9633 5.04022 48.7155 6.67636C50.9951 8.81242 52.1009 11.4598 51.9478 14.5843C51.8287 16.9817 50.9214 19.1121 49.3109 20.8675C48.1995 22.0833 46.9406 23.1683 45.6817 24.242C40.9523 28.2812 36.0245 32.0705 31.0683 35.8199C30.4899 36.2574 30.1667 36.2517 29.5883 35.8086C26.3503 33.3146 23.118 30.8207 19.88 28.321C19.761 28.2244 19.6362 28.1335 19.5398 28.0199C19.2563 27.6847 19.2619 27.253 19.5455 26.9292C19.829 26.6053 20.2657 26.5201 20.6229 26.7644C21.0028 27.0201 21.3544 27.3098 21.7117 27.5882C24.513 29.7469 27.3087 31.9057 30.11 34.0645C30.1894 34.1327 30.2517 34.1781 30.3708 34.2633Z" fill="white"/>
<path d="M30.3134 30.4571C35.2015 26.6622 40.0783 22.9297 44.7056 18.8962C45.5279 18.1747 46.2537 17.3794 46.7301 16.3852C48.2952 13.1073 46.3388 9.77252 43.2483 8.87492C41.6038 8.39203 40.067 8.77834 38.7457 9.82933C37.691 10.6701 36.7156 11.6018 35.7119 12.5051C32.0033 15.8569 28.323 19.2314 24.586 22.5605C22.1079 24.7704 19.1875 25.9123 15.8418 25.8384C12.9554 25.7759 10.3866 24.7704 8.12401 22.9979C5.61757 21.0266 3.93904 18.5042 3.32661 15.3513C2.52137 11.1871 3.5024 7.46603 6.29805 4.2733C8.37919 1.88727 11.0444 0.484062 14.1746 0.109115C18.1895 -0.379452 21.7223 0.773793 24.6881 3.54613C25.3969 4.21081 26.0661 4.90957 26.7465 5.60265C26.8883 5.75036 27.0244 5.9208 27.0925 6.10827C27.2115 6.44345 27.0641 6.82975 26.7919 7.0229C26.5254 7.21606 26.0547 7.21038 25.7712 7.00019C25.6181 6.88657 25.499 6.73886 25.3572 6.6082C24.4386 5.72764 23.5766 4.77891 22.5843 3.98925C20.5031 2.33039 18.0704 1.5805 15.4165 1.68844C9.94431 1.90432 5.85007 5.90943 4.94276 10.6928C4.08648 15.2036 6.07123 19.7938 10.1768 22.373C12.1615 23.6228 14.3164 24.2591 16.6641 24.1398C19.1365 24.0148 21.331 23.1343 23.1967 21.5038C25.1758 19.7825 27.0981 17.9986 29.0432 16.2375C31.7368 13.806 34.4133 11.3575 37.1239 8.94309C38.4338 7.7728 39.9706 7.07404 41.7569 7.00587C43.9628 6.91498 45.7604 7.81257 47.1837 9.43166C49.4803 12.0449 49.5541 15.6353 47.4502 18.4474C46.7017 19.4473 45.7547 20.2483 44.819 21.0436C40.3392 24.8442 35.7006 28.4403 31.0449 32.0194C30.4212 32.4966 30.183 32.5022 29.5819 32.0364C27.4667 30.423 25.3516 28.7982 23.2421 27.1791C23.1116 27.0769 22.9642 26.9746 22.8508 26.8496C22.5899 26.5542 22.5786 26.1111 22.8111 25.7986C23.0436 25.4862 23.4746 25.3669 23.8318 25.5373C23.9849 25.6112 24.121 25.7248 24.2514 25.8271C26.1852 27.3041 28.1132 28.7869 30.0412 30.2639C30.1263 30.3151 30.2057 30.3719 30.3134 30.4571Z" fill="white"/>
</svg>
