<svg width="138" height="40" viewBox="0 0 138 40" fill="none" xmlns="http://www.w3.org/2000/svg">
<g clip-path="url(#clip0_412_1004)">
<path d="M73.015 11.8678H66.0801V6.54926H87.4525V11.8678H80.5177V33.4508H73.015V11.8678Z" fill="white"/>
<path d="M91.2205 26.8189C93.6269 28.0099 96.2784 28.6176 98.9616 28.5932C101.341 28.5932 103.599 28.1322 103.599 25.9839C103.599 20.9741 90.293 24.1357 90.293 14.3466C90.293 7.87127 96.9071 6.08392 102.555 6.08392C105.011 6.05658 107.457 6.39363 109.815 7.08414V12.6332C107.877 11.7852 105.207 11.3981 103.07 11.3981C101.176 11.3981 98.0297 11.5503 98.0297 13.903C98.0297 18.2518 111.336 15.3294 111.336 25.0402C111.336 31.9983 105.207 33.903 98.9572 33.903C96.2728 33.9054 93.6023 33.5157 91.0298 32.7462L91.2205 26.8189Z" fill="white"/>
<path d="M122.675 28.367H124.894C127.637 28.367 130.498 27.98 130.498 25.2446C130.498 22.3135 127.555 22.0439 124.972 22.0439H122.675V28.367ZM122.675 17.1907H124.772C127.23 17.1907 129.774 16.6123 129.774 14.3379C129.774 11.8721 127.356 11.6416 124.855 11.6416H122.688L122.675 17.1907ZM115.172 6.55359H128.118C133.363 6.55359 137.273 8.74972 137.273 13.3725C137.273 16.7645 135.456 18.6519 132.314 19.6521V19.7304C136.063 20.461 138.001 22.3875 138.001 25.6664C138.001 32.1026 132.071 33.4507 127.031 33.4507H115.176L115.172 6.55359Z" fill="white"/>
<path d="M33.0404 19.065V0C29.3401 5.56886 24.46 10.2494 18.7486 13.7074C13.0372 17.1653 6.6353 19.3155 0 20.0043C6.6353 20.6932 13.0372 22.8434 18.7486 26.3013C24.46 29.7593 29.3401 34.4398 33.0404 40.0087V20.9306C24.7532 20.9306 16.6567 20.5262 8.7683 19.9956C16.6524 19.4694 24.7532 19.0607 33.0404 19.0607" fill="#007C4E"/>
<path d="M33.041 19.065V0C36.7413 5.56886 41.6214 10.2494 47.3328 13.7074C53.0442 17.1653 59.4461 19.3155 66.0814 20.0043C59.4461 20.6932 53.0442 22.8434 47.3328 26.3013C41.6214 29.7593 36.7413 34.4398 33.041 40.0087V20.9306C41.3282 20.9306 49.4247 20.5262 57.3131 19.9956C49.429 19.4694 41.3325 19.0607 33.041 19.0607" fill="#00B18F"/>
</g>
<defs>
<clipPath id="clip0_412_1004">
<rect width="138" height="40" fill="white"/>
</clipPath>
</defs>
</svg>
