<svg width="340" height="200" viewBox="0 0 340 200" fill="none" xmlns="http://www.w3.org/2000/svg">
<g clip-path="url(#clip0_270_1362)">
<ellipse cx="188.494" cy="182.912" rx="188.494" ry="182.912" transform="matrix(0.878339 0.478039 -0.52592 0.850534 101.019 -15)" fill="url(#paint0_linear_270_1362)" fill-opacity="0.2"/>
<ellipse cx="146.606" cy="142.265" rx="146.606" ry="142.265" transform="matrix(0.878339 0.478039 -0.52592 0.850534 116.161 38.6318)" fill="url(#paint1_linear_270_1362)" fill-opacity="0.15"/>
<ellipse cx="104.719" cy="101.618" rx="104.719" ry="101.618" transform="matrix(0.878339 0.478039 -0.52592 0.850534 130.313 88.7554)" fill="url(#paint2_linear_270_1362)" fill-opacity="0.05"/>
<ellipse cx="73.3032" cy="71.1323" rx="73.3032" ry="71.1323" transform="matrix(0.878339 0.478039 -0.52592 0.850534 142.498 131.914)" fill="url(#paint3_linear_270_1362)" fill-opacity="0.05"/>
</g>
<defs>
<linearGradient id="paint0_linear_270_1362" x1="75.5965" y1="38.1267" x2="510.193" y2="369.633" gradientUnits="userSpaceOnUse">
<stop stop-color="white"/>
<stop offset="0.342546" stop-color="white" stop-opacity="0"/>
</linearGradient>
<linearGradient id="paint1_linear_270_1362" x1="58.7973" y1="29.6541" x2="396.817" y2="287.493" gradientUnits="userSpaceOnUse">
<stop stop-color="white"/>
<stop offset="0.342546" stop-color="white" stop-opacity="0"/>
</linearGradient>
<linearGradient id="paint2_linear_270_1362" x1="41.998" y1="21.1815" x2="283.441" y2="205.352" gradientUnits="userSpaceOnUse">
<stop stop-color="white"/>
<stop offset="0.342546" stop-color="white" stop-opacity="0"/>
</linearGradient>
<linearGradient id="paint3_linear_270_1362" x1="29.3986" y1="14.8271" x2="198.408" y2="143.746" gradientUnits="userSpaceOnUse">
<stop stop-color="white"/>
<stop offset="0.342546" stop-color="white" stop-opacity="0"/>
</linearGradient>
<clipPath id="clip0_270_1362">
<rect width="340" height="200" rx="12" fill="white"/>
</clipPath>
</defs>
</svg>
