<svg width="340" height="200" viewBox="0 0 340 200" fill="none" xmlns="http://www.w3.org/2000/svg">
<g clip-path="url(#clip0_prism_tiles)">
<path d="M-26 155L58 36L124 67L41 186L-26 155Z" fill="url(#tile0)" fill-opacity="0.24"/>
<path d="M48 212L132 93L198 124L115 243L48 212Z" fill="url(#tile1)" fill-opacity="0.18"/>
<path d="M150 76L224 -29L289 2L215 107L150 76Z" fill="url(#tile2)" fill-opacity="0.22"/>
<path d="M226 148L301 42L365 72L291 178L226 148Z" fill="url(#tile3)" fill-opacity="0.20"/>
<path d="M104 31L144 -25L185 -6L145 50L104 31Z" fill="white" fill-opacity="0.12"/>
<path d="M193 204L234 146L283 169L242 227L193 204Z" fill="white" fill-opacity="0.13"/>
<path d="M12 63L94 102" stroke="white" stroke-opacity="0.20" stroke-width="1.5"/>
<path d="M202 22L313 74" stroke="white" stroke-opacity="0.18" stroke-width="1.5"/>
<path d="M118 165L248 226" stroke="white" stroke-opacity="0.14" stroke-width="1.5"/>
</g>
<defs>
<linearGradient id="tile0" x1="-10" y1="155" x2="104" y2="80" gradientUnits="userSpaceOnUse">
<stop stop-color="white"/>
<stop offset="1" stop-color="white" stop-opacity="0"/>
</linearGradient>
<linearGradient id="tile1" x1="64" y1="212" x2="178" y2="137" gradientUnits="userSpaceOnUse">
<stop stop-color="white"/>
<stop offset="1" stop-color="white" stop-opacity="0"/>
</linearGradient>
<linearGradient id="tile2" x1="163" y1="76" x2="270" y2="5" gradientUnits="userSpaceOnUse">
<stop stop-color="white"/>
<stop offset="1" stop-color="white" stop-opacity="0"/>
</linearGradient>
<linearGradient id="tile3" x1="240" y1="148" x2="346" y2="78" gradientUnits="userSpaceOnUse">
<stop stop-color="white"/>
<stop offset="1" stop-color="white" stop-opacity="0"/>
</linearGradient>
<clipPath id="clip0_prism_tiles">
<rect width="340" height="200" rx="12" fill="white"/>
</clipPath>
</defs>
</svg>
