<svg width="340" height="200" viewBox="0 0 340 200" fill="none" xmlns="http://www.w3.org/2000/svg">
<g clip-path="url(#clip0_348_37)">
<ellipse cx="231.783" cy="327.291" rx="231.783" ry="327.291" transform="matrix(-0.173487 0.984836 -0.996939 -0.0781852 392 28.1787)" fill="url(#paint0_linear_348_37)" fill-opacity="0.2"/>
<ellipse cx="181.396" cy="256.14" rx="181.396" ry="256.14" transform="matrix(-0.173487 0.984836 -0.996939 -0.0781852 312.06 72.1787)" fill="url(#paint1_linear_348_37)" fill-opacity="0.15"/>
<ellipse cx="131.008" cy="184.99" rx="131.008" ry="184.99" transform="matrix(-0.173487 0.984836 -0.996939 -0.0781852 232.119 116.179)" fill="url(#paint2_linear_348_37)" fill-opacity="0.05"/>
<ellipse cx="90.6978" cy="128.07" rx="90.6978" ry="128.07" transform="matrix(-0.173487 0.984836 -0.996939 -0.0781852 169.309 151.179)" fill="url(#paint3_linear_348_37)" fill-opacity="0.05"/>
</g>
<defs>
<linearGradient id="paint0_linear_348_37" x1="92.9579" y1="68.2215" x2="756.088" y2="415.836" gradientUnits="userSpaceOnUse">
<stop stop-color="white"/>
<stop offset="0.342546" stop-color="white" stop-opacity="0"/>
</linearGradient>
<linearGradient id="paint1_linear_348_37" x1="72.7497" y1="53.3908" x2="591.721" y2="325.437" gradientUnits="userSpaceOnUse">
<stop stop-color="white"/>
<stop offset="0.342546" stop-color="white" stop-opacity="0"/>
</linearGradient>
<linearGradient id="paint2_linear_348_37" x1="52.5414" y1="38.56" x2="427.354" y2="235.038" gradientUnits="userSpaceOnUse">
<stop stop-color="white"/>
<stop offset="0.342546" stop-color="white" stop-opacity="0"/>
</linearGradient>
<linearGradient id="paint3_linear_348_37" x1="36.3748" y1="26.6954" x2="295.861" y2="162.718" gradientUnits="userSpaceOnUse">
<stop stop-color="white"/>
<stop offset="0.342546" stop-color="white" stop-opacity="0"/>
</linearGradient>
<clipPath id="clip0_348_37">
<rect width="340" height="200" rx="12" fill="white"/>
</clipPath>
</defs>
</svg>
