<svg width="340" height="200" viewBox="0 0 340 200" fill="none" xmlns="http://www.w3.org/2000/svg">
<g clip-path="url(#clip0_341_1656)">
<path opacity="0.25" d="M191 59H74.0697C65.9904 59 58.2101 62.0561 52.2907 67.5549L-26.779 141.005C-33.2968 147.06 -37 155.554 -37 164.451V178.5C-37 196.173 -22.6731 210.5 -5 210.5H139.62C149.341 210.5 158.535 206.081 164.608 198.49L195.988 159.265C200.527 153.591 203 146.541 203 139.275V71C203 64.3726 197.627 59 191 59Z" fill="white" fill-opacity="0.25"/>
<path opacity="0.25" d="M292 71H175.07C166.99 71 159.21 74.0561 153.291 79.5549L74.221 153.005C67.7032 159.06 64 167.554 64 176.451V190.5C64 208.173 78.3269 222.5 96 222.5H240.62C250.341 222.5 259.535 218.081 265.608 210.49L296.988 171.265C301.527 165.591 304 158.541 304 151.275V83C304 76.3726 298.627 71 292 71Z" fill="white" fill-opacity="0.35"/>
</g>
<defs>
<clipPath id="clip0_341_1656">
<rect width="340" height="200" rx="12" fill="white"/>
</clipPath>
</defs>
</svg>
