<svg width="200" height="40" viewBox="0 0 200 40" fill="none" xmlns="http://www.w3.org/2000/svg">
<path d="M155.674 3.57C155.254 3.56866 154.846 3.57133 154.443 3.5741C146.137 3.5741 139.403 10.9298 139.403 20.0034C139.403 29.0771 146.137 36.4328 154.443 36.4328C155.311 36.4328 156.162 36.4314 156.966 36.4328C160.343 36.4328 163.456 35.2199 165.965 33.1678L163.147 28.7072C161.603 29.9643 159.53 30.7733 156.881 31.0326C156.357 31.0319 155.801 31.0326 155.235 31.0326C149.826 31.0326 145.44 25.7753 145.44 19.9799C145.44 13.1666 150.225 8.98959 155.235 8.98959C155.76 8.98549 156.304 8.98959 156.881 8.98959C158.505 9.16324 161.982 10.0626 162.293 12.1652C162.293 12.1652 162.302 13.9261 162.301 14.6925C162.301 14.6925 167.534 14.6912 167.565 14.6925V10.3019C167.565 9.39829 167.149 8.00676 166.358 7.21553C163.889 4.74656 159.591 3.5742 156.967 3.5742C156.524 3.5742 156.094 3.57153 155.674 3.5701L155.674 3.57ZM14.767 4.18336L3.33398 35.862H7.44132L18.8703 4.18336H14.767ZM23.8357 4.18336L12.4067 35.862H16.51L27.939 4.18336H23.8357ZM32.9357 4.18336L21.5027 35.862H25.746L25.7501 35.8498C26.996 35.8471 28.0487 35.0161 28.3822 33.8776L30.6378 27.6776H41.3138L43.5693 33.8776C43.9032 35.0173 44.9577 35.8498 46.2053 35.8498C46.2672 35.8498 46.3269 35.8471 46.3878 35.8416L46.3959 35.861H50.5033L50.4992 35.8528H51.2911V30.8835H49.1948C48.8252 30.8375 48.5398 30.3619 48.4028 30.041L39.0701 4.1817H32.9361L32.9357 4.18336ZM87.7123 4.18336L76.2793 35.862H80.5227L80.5268 35.8498C81.7727 35.8471 82.8253 35.0161 83.1589 33.8776L85.4145 27.6776H96.0904L98.346 33.8776C98.6799 35.0173 99.7344 35.8498 100.982 35.8498C101.044 35.8498 101.104 35.8471 101.164 35.8416L101.173 35.861H105.28L105.277 35.8528H106.069V30.8835H103.973C103.603 30.8375 103.318 30.3619 103.181 30.041L93.8483 4.1817H87.7143L87.7123 4.18336ZM178.312 4.18336L166.879 35.862H171.123L171.127 35.8498C172.373 35.8471 173.425 35.0161 173.759 33.8776L176.014 27.6776H186.69L188.946 33.8776C189.28 35.0173 190.334 35.8498 191.582 35.8498C191.644 35.8498 191.704 35.8471 191.764 35.8416L191.773 35.861H195.88L195.876 35.8528H196.668V30.8835H194.571C194.202 30.8375 193.916 30.3619 193.78 30.041L184.447 4.1817H178.313L178.312 4.18336ZM114.516 4.18746V4.19973H109.314V35.8667H112.722C114.017 35.8667 115.067 34.8171 115.067 33.5219C115.067 33.3964 115.055 33.2732 115.036 33.1531V16.5404C115.028 15.5155 114.804 14.925 114.826 13.9821C115.377 14.8041 115.737 15.6634 117.222 17.9031C120.421 22.7301 125.876 30.4961 129.388 35.6681L129.466 35.8661H129.52C129.537 35.8907 129.558 35.9191 129.575 35.9437V35.8661H134.769V9.77005C134.769 9.44412 135.019 9.17332 135.336 9.14115C136.097 9.14525 136.863 9.14932 137.626 9.15342V4.19975H131.267C129.972 4.19975 128.923 5.24942 128.923 6.54459C128.923 6.6701 128.935 6.79325 128.954 6.91339V22.3644C128.931 23.655 129.197 24.9281 129.163 26.2154C128.773 25.6068 128.353 24.5548 127.242 22.8727C124.061 18.0577 118.204 9.62805 114.524 4.19939C114.521 4.19529 114.518 4.19122 114.515 4.18712L114.516 4.18746ZM61.6223 4.19563C58.0536 4.20243 54.519 4.2267 50.9307 4.2267V9.14536H53.788C53.6949 17.1734 53.8539 25.1857 53.8539 33.1257C53.8539 33.1257 53.5301 35.8122 56.6957 35.8122H65.485C72.5017 35.8122 75.6253 31.2598 75.6253 26.9452V26.1222C75.6254 26.1167 75.6253 26.1113 75.6253 26.1066C75.6253 23.0466 73.5645 20.4093 70.5473 19.1266C72.8593 17.9852 74.445 15.6073 74.445 12.8453V12.0223C74.445 12.0168 74.445 12.0114 74.445 12.0068C74.445 7.67943 70.324 4.19576 65.2053 4.19576C64.0046 4.1931 62.812 4.19296 61.6223 4.19563ZM61.8591 9.16096C62.5577 9.1583 63.2482 9.15963 63.9943 9.16506C67.2077 9.16504 68.4043 10.2837 68.5597 13.1171V13.5402C68.5597 14.9809 67.1698 17.0809 65.0967 17.0809H59.6733V9.17289C60.4537 9.17023 61.1604 9.16336 61.859 9.16063L61.8591 9.16096ZM36.0038 10.1276L36.0309 10.2829C36.8455 13.7963 38.4452 18.3996 40.0063 22.9466L40.0104 22.9548H31.9974L32 22.9466C33.5611 18.3996 35.1609 13.7963 35.9754 10.2829L36.0026 10.1276H36.0038ZM90.7805 10.1276L90.8076 10.2829C91.6222 13.7963 93.222 18.3996 94.783 22.9466L94.7856 22.9548H86.773L86.7771 22.9466C88.3381 18.3996 89.9379 13.7963 90.7524 10.2829L90.7795 10.1276H90.7805ZM181.38 10.1276L181.408 10.2829C182.222 13.7963 183.822 18.3996 185.383 22.9466L185.387 22.9548H177.374L177.378 22.9466C178.939 18.3996 180.539 13.7963 181.354 10.2829L181.381 10.1276H181.38ZM65.1138 21.8053C67.976 21.7701 69.6815 23.4601 69.6598 26.3553V26.8406C69.6598 28.4889 68.0991 30.8936 65.7698 30.8936H59.6748V21.8442C61.4613 21.8511 63.3685 21.8297 65.1138 21.8053Z" fill="white"/>
</svg>
