<?xml version="1.0" encoding="UTF-8"?>
<svg width="600" height="120" version="1.1" xmlns="http://www.w3.org/2000/svg">
 <path d="m467.02 10.71c-1.2579-4e-3 -2.4828 4e-3 -3.692 0.0123-24.919 0-45.119 22.067-45.119 49.288s20.2 49.288 45.119 49.288c2.605 0 5.1563-4e-3 7.5702 0 10.129 0 19.468-3.6386 26.997-9.7948l-8.4555-13.382c-4.6304 3.7714-10.851 6.1983-18.797 6.9763-1.572-2e-3 -3.242 0-4.9382 0-16.226 0-29.384-15.772-29.384-33.158 0-20.44 14.353-32.971 29.384-32.971 1.5745-0.0123 3.2078 0 4.9382 0 4.8717 0.52095 15.302 3.2189 16.235 9.5269 0 0 0.0286 5.2827 0.0245 7.5819 0 0 15.699-4e-3 15.793 0v-13.172c0-2.7107-1.2484-6.8853-3.6221-9.259-7.4069-7.4069-20.301-10.924-28.173-10.924-1.3287 0-2.6204-8e-3 -3.8783-0.0123zm-422.72 1.8401-34.299 95.036h12.322l34.287-95.036zm27.206 0-34.287 95.036h12.31l34.287-95.036zm27.3 0-34.299 95.036h12.73l0.0123-0.0368c3.7377-8e-3 6.8957-2.5011 7.8963-5.9165l6.7667-18.6h32.028l6.7666 18.6c1.0017 3.419 4.1652 5.9165 7.9081 5.9165 0.18561 0 0.36469-8e-3 0.54732-0.0245l0.0245 0.0581h12.322l-0.0123-0.0245h2.3759v-14.908h-6.2891c-1.1087-0.13778-1.965-1.5647-2.3759-2.5273l-27.998-77.578h-18.402zm164.33 0-34.299 95.036h12.73l0.0123-0.0368c3.7377-8e-3 6.8958-2.5011 7.8964-5.9165l6.7667-18.6h32.028l6.7667 18.6c1.0017 3.419 4.1652 5.9165 7.908 5.9165 0.18562 0 0.36469-8e-3 0.54737-0.0245l0.0245 0.0581h12.322l-8e-3 -0.0245h2.3759v-14.908h-6.2891c-1.1088-0.13778-1.9651-1.5647-2.3759-2.5273l-27.998-77.578h-18.402zm271.8 0-34.299 95.036h12.73l0.0123-0.0368c3.7377-8e-3 6.8957-2.5011 7.8963-5.9165l6.7667-18.6h32.028l6.7667 18.6c1.0017 3.419 4.1652 5.9165 7.908 5.9165 0.18562 0 0.36469-8e-3 0.54741-0.0245l0.0245 0.0581h12.322l-0.0123-0.0245h2.3759v-14.908h-6.2891c-1.1088-0.13778-1.9651-1.5647-2.3759-2.5273l-27.998-77.578h-18.402zm-191.39 0.0123v0.0368h-15.606v95.001h10.226c3.8855 0 7.0345-3.149 7.0345-7.0345 0-0.37655-0.0368-0.74598-0.0932-1.1064v-49.838c-0.0245-3.0748-0.69577-4.8462-0.62892-7.6751 1.6521 2.4662 2.7323 5.044 7.1859 11.763 9.5987 14.481 25.962 37.779 36.5 53.295l0.23304 0.59397h0.16313c0.0503 0.074 0.11284 0.15904 0.16313 0.23304v-0.23304h15.583v-78.288c0-0.97779 0.74839-1.7902 1.7004-1.8867 2.2834 0.0123 4.5824 0.0245 6.8714 0.0368v-14.861h-19.077c-3.8855 0-7.0345 3.149-7.0345 7.0345 0 0.37655 0.0368 0.74598 0.0932 1.1064v46.353c-0.0687 3.8719 0.72966 7.691 0.62893 11.553-1.1713-1.8257-2.4323-4.9819-5.765-10.028-9.5412-14.445-27.112-39.734-38.154-56.02-8e-3 -0.0123-0.0163-0.0245-0.0245-0.0368zm-158.68 0.0245c-10.706 0.0204-21.31 0.0932-32.075 0.0932v14.756h8.5719c-0.27924 24.084 0.19788 48.121 0.19788 71.941 0 0-0.9715 8.0594 8.5253 8.0594h26.368c21.05 0 30.421-13.657 30.421-26.601v-2.469c8e-5 -0.0163 0-0.0327 0-0.0466 0-9.1802-6.1826-17.092-15.234-20.94 6.9358-3.4243 11.693-10.558 11.693-18.844v-2.469c4e-5 -0.0164 0-0.0327 0-0.0466 0-12.982-12.363-23.433-27.719-23.433-3.6021-8e-3 -7.1809-8e-3 -10.75 0zm0.71049 14.896c2.0958-8e-3 4.1672-4e-3 6.4056 0.0123 9.6402-5e-5 13.23 3.356 13.696 11.856v1.2695c0 4.3219-4.1695 10.622-10.389 10.622h-16.27v-23.724c2.341-8e-3 4.4612-0.0286 6.5571-0.0368zm-77.566 2.9 0.0814 0.46587c2.4437 10.54 7.2429 24.35 11.926 37.991l0.0123 0.0245h-24.039l8e-3 -0.0245c4.6832-13.641 9.4824-27.451 11.926-37.991l0.0818-0.46587zm164.33 0 0.0814 0.46587c2.4437 10.54 7.243 24.35 11.926 37.991l8e-3 0.0245h-24.038l0.0123-0.0245c4.6832-13.641 9.4825-27.451 11.926-37.991l0.0814-0.46587zm271.8 0 0.0818 0.46587c2.4437 10.54 7.243 24.35 11.926 37.991l0.0123 0.0245h-24.039l0.0123-0.0245c4.6831-13.641 9.4824-27.451 11.926-37.991l0.0818-0.46587zm-348.8 35.033c8.5866-0.10549 13.703 4.9643 13.638 13.65v1.4558c0 4.945-4.6821 12.159-11.67 12.159h-18.285v-27.148c5.3594 0.0205 11.081-0.0433 16.317-0.11652z" fill="#5a85d7"/>
</svg>
