<svg width="207" height="40" viewBox="0 0 207 40" fill="none" xmlns="http://www.w3.org/2000/svg">
<path d="M54.1825 12.7269C52.0771 6.77119 47.1681 4.67032 41.1556 4.67032C38.0012 4.67032 35.0438 5.37088 32.5376 7.47148C30.0826 9.52296 28.8295 12.3252 28.8295 15.527C28.8295 23.0334 34.842 24.835 40.9549 26.0865C43.056 26.534 46.9663 27.0872 46.9663 29.9406C46.9663 32.791 43.9125 33.6432 41.6071 33.6432C38.0507 33.6432 35.447 32.3905 34.4441 28.7874L27.0244 30.4886C28.5812 37.195 34.4441 39.9993 40.9044 39.9993C44.3634 39.9993 48.119 39.349 50.8721 37.195C53.5323 35.1414 55.1341 31.9408 55.1341 28.5878C55.1341 25.1875 53.4276 22.335 50.624 20.4835C48.2182 18.8816 44.4606 18.18 41.6581 17.5809C39.7014 17.2275 36.6946 16.6283 36.6946 14.1304C36.6946 11.4756 39.3015 10.9235 41.455 10.9235C44.5099 10.9235 46.365 12.0757 47.3682 14.9784L54.1825 12.7269ZM80.7355 39.4977C80.3335 38.2481 80.233 36.9945 80.233 35.6937V23.8344C80.233 20.7833 80.4842 17.9801 77.8805 15.8792C75.8213 14.178 72.4167 13.5757 69.815 13.5757C64.4527 13.5757 58.4412 15.3794 57.6906 21.532L64.6529 22.1844C64.6529 19.6823 66.708 18.4799 69.0594 18.4799C70.1638 18.4799 71.416 18.8312 72.0682 19.6823C72.821 20.6317 72.7184 21.9314 72.7184 23.0335V23.6327C69.6121 23.9348 65.5542 24.1335 62.6513 25.2356C59.2949 26.4862 56.9384 29.0416 56.9384 32.7913C56.9384 37.597 60.4435 39.9996 64.9535 39.9996C68.7632 39.9996 70.9638 38.5462 73.0722 35.5442C73.0209 36.8461 73.1204 38.1949 73.4218 39.4977L80.7355 39.4977ZM72.7183 28.3381C72.7183 30.1449 72.7705 31.6412 71.7184 33.243C70.8652 34.5458 69.5126 35.3447 68.0092 35.3447C65.9572 35.3447 64.7543 33.9927 64.7543 31.9924C64.7543 28.2879 69.9114 27.6396 72.7184 27.3363L72.7183 28.3381ZM91.7609 25.1876C91.7609 22.4858 92.2581 18.6314 95.8166 18.6314C99.8765 18.6314 99.8765 23.9347 99.8765 26.7871C99.8765 29.5382 99.8765 34.8426 95.7171 34.8426C94.3635 34.8426 93.3102 34.1943 92.6109 33.0913C91.809 31.8438 91.7608 30.2388 91.7608 28.8398L91.7609 25.1876ZM84.2934 39.498H88.3C88.7522 38.1471 89.0537 36.6937 89.953 35.5947C91.8092 38.6469 93.5628 39.9999 97.2197 39.9999C104.883 39.9999 107.539 33.442 107.539 26.7877C107.539 20.7837 105.335 13.5765 98.0706 13.5765C95.2136 13.5765 93.1124 14.778 91.8573 17.2812H91.6595V5.17087H84.2935L84.2934 39.498ZM132.841 39.498C132.438 38.2485 132.343 36.9948 132.343 35.6941V23.8347C132.343 20.7836 132.592 17.9804 129.982 15.8795C127.932 14.1783 124.524 13.576 121.919 13.576C116.56 13.576 110.545 15.3797 109.795 21.5323L116.758 22.1847C116.758 19.6826 118.811 18.4802 121.167 18.4802C122.27 18.4802 123.52 18.8315 124.174 19.6826C124.924 20.632 124.828 21.9318 124.828 23.0338V23.633C121.72 23.9352 117.662 24.1338 114.753 25.2359C111.397 26.4865 109.039 29.042 109.039 32.7917C109.039 37.5973 112.549 39.9999 117.058 39.9999C120.865 39.9999 123.07 38.5465 125.177 35.5446C125.126 36.8464 125.223 38.1952 125.527 39.498L132.841 39.498ZM124.828 28.3384C124.828 30.1452 124.877 31.6415 123.824 33.2433C122.971 34.5461 121.617 35.345 120.117 35.345C118.061 35.345 116.859 33.993 116.859 31.9928C116.859 28.2882 122.017 27.6399 124.828 27.3366L124.828 28.3384ZM158.142 39.498V5.17039H150.778V16.7799C149.172 14.4272 147.273 13.5761 144.414 13.5761C136.999 13.5761 135.096 21.0332 135.096 27.0875C135.096 32.9923 137.098 40 144.263 40C147.52 40 149.626 38.2486 151.031 35.5446H151.13V39.4981L158.142 39.498ZM150.778 28.8902C150.778 30.1449 150.727 31.4927 150.127 32.6429C149.524 33.791 148.273 34.6944 146.922 34.6944C143.262 34.6944 142.861 30.0403 142.861 27.2872C142.861 24.234 143.013 18.7298 147.219 18.7298C150.577 18.7298 150.778 22.9331 150.778 25.3874V28.8902ZM185.2 28.0369C185.25 24.5854 184.697 20.9831 182.593 18.0817C180.486 15.1791 176.831 13.5761 173.273 13.5761C165.354 13.5761 160.9 19.631 160.9 27.1379C160.9 34.6947 165.858 40 173.472 40C182.091 40 185.046 32.4925 185.046 31.2399L178.23 30.7412C178.23 33.0917 175.98 34.7438 173.725 34.7438C170.519 34.7438 168.814 32.2929 168.814 29.2889L168.864 28.0373L185.2 28.0369ZM168.814 23.6851C169.067 20.7835 170.317 18.3786 173.574 18.3786C176.781 18.3786 177.683 20.931 177.832 23.6851H168.814ZM188.455 39.4979H195.818V5.17033H188.455V39.4979ZM199.477 39.4979H206.839V5.17033H199.477V39.4979Z" fill="white"/>
<path d="M13.6351 0C6.10486 0 0 6.09617 0 13.617C0 21.139 6.10432 27.2352 13.6351 27.2352C21.1627 27.2352 27.2713 21.139 27.2713 13.617C27.2713 6.09617 21.1627 0 13.6351 0Z" fill="white"/>
<path d="M15.3195 11.8845C15.6964 11.6074 15.8974 11.1139 15.8974 10.656C15.8974 10.1572 15.6597 9.68147 15.219 9.42317C14.7657 9.16387 13.9292 9.22241 13.3911 9.22241H11.4627V12.2014H13.6319C14.1878 12.2014 14.8442 12.2422 15.3195 11.8845ZM15.4176 14.883C14.9611 14.6237 14.3257 14.6237 13.8095 14.6237H11.4634V17.8996H13.6703C14.2471 17.8996 14.9821 17.9363 15.4783 17.6006C15.9379 17.3026 16.1955 16.7474 16.1955 16.1922C16.1955 15.6736 15.8762 15.1392 15.4176 14.883ZM17.8814 19.686C16.89 20.4211 15.5604 20.4211 14.3847 20.4211H8.28418V6.80295H14.3847C15.4599 6.80295 16.5718 6.80295 17.5056 7.39793C18.5976 8.09532 19.1755 9.08661 19.1755 10.3789C19.1755 11.9243 18.1411 12.9574 16.711 13.315V13.3526C18.3997 13.6914 19.5545 14.9816 19.5545 16.7466C19.5545 17.9365 18.8373 18.9927 17.8814 19.686Z" fill="black"/>
</svg>
