<?xml version="1.0" encoding="UTF-8"?>
<svg width="400" height="90" version="1.1" xmlns="http://www.w3.org/2000/svg">
 <path d="m110.66 32.96c-3.9215-11.107-13.065-15.025-24.264-15.025-5.8754 0-11.384 1.3065-16.052 5.224-4.5728 3.8259-6.9069 9.0519-6.9069 15.023 0 13.999 11.199 17.359 22.585 19.693 3.9136 0.83457 11.197 1.8661 11.197 7.1877 0 5.3157-5.6882 6.905-9.9821 6.905-6.6242 0-11.474-2.3361-13.342-9.0558l-13.82 3.1727c2.8997 12.507 13.82 17.737 25.853 17.737 6.4428 0 13.438-1.2129 18.566-5.2299 4.955-3.8298 7.9385-9.7988 7.9385-16.052 0-6.3414-3.1785-11.661-8.4006-15.114-4.4811-2.9874-11.48-4.2959-16.7-5.4132-3.6446-0.65908-9.245-1.7765-9.245-6.435 0-4.9511 4.8555-5.9807 8.8667-5.9807 5.6901 0 9.1455 2.1489 11.014 7.5621zm49.458 49.926c-0.74881-2.3303-0.93601-4.6683-0.93601-7.0941v-22.117c0-5.6901 0.468-10.918-4.3817-14.836-3.8356-3.1726-10.177-4.2959-15.023-4.2959-9.9879 0-21.185 3.3638-22.583 14.838l12.968 1.2168c0-4.6663 3.8279-6.9088 8.2076-6.9088 2.0572 0 4.3895 0.65518 5.6043 2.2425 1.4021 1.7706 1.211 4.1945 1.211 6.2498v1.1174c-5.7857 0.56354-13.344 0.93404-18.751 2.9894-6.2517 2.3322-10.641 7.098-10.641 14.091 0 8.9622 6.5286 13.443 14.929 13.443 7.096 0 11.195-2.7105 15.122-8.309-0.0954 2.4278 0.0898 4.9433 0.65131 7.373zm-14.933-20.812c0 3.3696 0.0974 6.1601-1.8623 9.1474-1.5893 2.4297-4.1087 3.9195-6.9089 3.9195-3.822 0-6.0626-2.5213-6.0626-6.2517 0-6.9088 9.6057-8.1178 14.834-8.6834zm35.469-5.8754c0-5.0388 0.92627-12.227 7.5543-12.227 7.5621 0 7.5621 9.8904 7.5621 15.21 0 5.1305 0 15.023-7.7474 15.023-2.5213 0-4.4831-1.209-5.7857-3.2662-1.4937-2.3264-1.5834-5.3196-1.5834-7.9287zm-13.909 26.688h7.4627c0.84242-2.5194 1.404-5.2299 3.079-7.2794 3.4574 5.6921 6.7236 8.2154 13.535 8.2154 14.274 0 19.221-12.23 19.221-24.64 0-11.197-4.1048-24.638-17.636-24.638-5.3216 0-9.2352 2.2406-11.573 6.9089h-0.36853v-22.585h-13.72zm90.426 0c-0.75075-2.3303-0.92821-4.6683-0.92821-7.0941v-22.117c0-5.6901 0.4641-10.918-4.3973-14.836-3.8181-3.1726-10.167-4.2959-15.019-4.2959-9.9821 0-21.185 3.3638-22.581 14.838l12.969 1.2168c0-4.6663 3.824-6.9088 8.2115-6.9088 2.0553 0 4.3836 0.65518 5.6004 2.2425 1.3982 1.7706 1.2188 4.1945 1.2188 6.2498v1.1174c-5.7896 0.56354-13.348 0.93404-18.765 2.9894-6.2517 2.3322-10.643 7.098-10.643 14.091 0 8.9622 6.5364 13.443 14.935 13.443 7.0922 0 11.199-2.7105 15.124-8.309-0.0954 2.4278 0.0858 4.9433 0.65131 7.373zm-14.925-20.812c0 3.3696 0.0898 6.1601-1.87 9.1474-1.5893 2.4297-4.1106 3.9195-6.905 3.9195-3.8298 0-6.0684-2.5213-6.0684-6.2517 0-6.9088 9.6077-8.1178 14.843-8.6834zm62.051 20.812v-64.019h-13.716v21.651c-2.9913-4.3875-6.5286-5.9748-11.854-5.9748-13.812 0-17.357 13.907-17.357 25.198 0 11.012 3.7304 24.081 17.076 24.081 6.0665 0 9.9879-3.2663 12.605-8.309h0.1852v7.373zm-13.716-19.783c0 2.34-0.0954 4.8536-1.2129 6.9986-1.1232 2.1411-3.4534 3.8259-5.9709 3.8259-6.8172 0-7.564-8.6795-7.564-13.814 0-5.694 0.28464-15.959 8.1178-15.959 6.2556 0 6.63 7.839 6.63 12.416zm64.114-1.5912c0.0938-6.437-0.93602-13.155-4.8555-18.566-3.9254-5.4132-10.733-8.4026-17.359-8.4026-14.75 0-23.047 11.292-23.047 25.292 0 14.093 9.2352 23.987 23.416 23.987 16.054 0 21.559-14.001 21.559-16.337l-12.696-0.93014c0 4.3836-4.1906 7.4646-8.3908 7.4646-5.9709 0-9.1475-4.5708-9.1475-10.173l0.0938-2.3341zm-30.521-8.1159c0.47192-5.4113 2.8002-9.8963 8.8667-9.8963 5.9729 0 7.6538 4.76 7.9307 9.8963zm36.584 29.49h13.714v-64.019h-13.714zm20.53 0h13.712v-64.019h-13.712z"/>
 <path d="m35.137 9.2251c-14.026 0-25.397 11.369-25.397 25.395 0 14.028 11.37 25.397 25.397 25.397 14.021 0 25.399-11.369 25.399-25.397 0-14.026-11.378-25.395-25.399-25.395" fill="#006dff"/>
 <path d="m38.274 31.389c0.702-0.5168 1.0764-1.4372 1.0764-2.2912 0-0.9301-0.44265-1.8174-1.2636-2.2991-0.8443-0.48359-2.4024-0.37441-3.4047-0.37441h-3.5919v5.5556h4.0404c1.0354 0 2.2581 0.0761 3.1434-0.59085m0.18271 5.592c-0.8502-0.4836-2.0338-0.4836-2.9952-0.4836h-4.37v6.1094h4.1106c1.0744 0 2.4434 0.0684 3.3677-0.55771 0.85605-0.5557 1.3358-1.5912 1.3358-2.6266 0-0.9672-0.59475-1.9637-1.4489-2.4414m4.5892 8.9571c-1.8466 1.3709-4.3232 1.3709-6.513 1.3709h-11.363v-25.397h11.363c2.0026 0 4.0736 0 5.813 1.1096 2.0339 1.3006 3.1103 3.1493 3.1103 5.5594 0 2.8821-1.9266 4.8087-4.5903 5.4756v0.0701c3.1454 0.63179 5.2962 3.0381 5.2962 6.3297 0 2.2191-1.3358 4.1886-3.1161 5.4815" fill="#fff"/>
</svg>
