<?xml version="1.0" encoding="UTF-8"?>
<svg width="400" height="70" version="1.1" xmlns="http://www.w3.org/2000/svg">
 <path d="m10 6.77v37.223c0 14.29 6.351 19.23 22.052 19.23 14.466 0 21.876-4.2326 21.876-19.757 0-14.113-5.2945-20.467-19.761-20.467-6.351 0-10.582 0.70635-13.934 3.3526v-19.581zm150.48 0v55.747h10.23v-16.229h1.5884c0.35283-0.17641 0.8807-0.17571 1.2335-0.17571 1.9406 0 3.7068 1.0558 4.7653 2.4671l12.525 13.586h13.231l-19.406-20.464 17.817-18.348h-11.818l-11.822 11.818c-1.4113 1.5877-3.5262 2.6462-5.8196 2.6462h-2.2948v-31.048zm47.632 0v9.8786h10.23v-9.8786zm70.387 4.2347v40.045c0 7.233 4.2354 11.822 15.526 11.822 4.234 0 8.2902-0.70636 11.818-1.5884l0.35489-7.0566c-3.1755 0.70566-6.351 1.0578-9.7029 1.0578h-1.237c-4.234 0-6.8775-1.2363-6.8775-4.941v-19.227h17.111v-7.5872h-17.111v-12.525zm-198.29 11.643c-6.1745 0-12.173 1.2356-17.642 3.3526l-0.3549 7.4081c5.2925-1.9406 10.938-2.822 16.759-2.822h0.88208c7.9387 0 10.94 0.70567 10.94 5.2925v1.9399c-24.345 0.70565-30.874 2.6483-31.403 13.586 0 7.9387 6.8816 11.818 20.818 11.818 9.5264 0 20.815-0.17642 20.815-14.113v-11.998c0-12.878-9.5244-14.465-20.815-14.465zm48.866 0c-11.291 0-19.406 3.7054-19.406 14.82v25.05h9.8786v-24.343c0-5.9981 1.9426-7.5872 10.94-7.5872 8.9972 0 10.936 1.5891 10.936 7.5872v24.343h10.233v-25.05c0-11.291-7.9394-14.82-19.23-14.82zm117.49 0c-11.291 0-19.23 3.7054-19.23 14.82v25.05h10.409v-24.343c0-5.9981 1.9406-7.5872 10.585-7.5872s10.94 1.5891 10.94 7.5872v24.343h10.23v-25.05c0-11.291-8.2922-14.82-19.23-14.82zm86.799 0c-17.289 0-21.876 5.2911-21.876 19.757 0 16.583 5.4689 20.818 22.052 20.818 6.8802-0.17642 13.23-1.4106 18.875-3.704l0.35489-7.0566c-5.8217 2.117-11.996 3.1734-18.524 3.1734h-1.0612c-7.9387 0-10.231-2.6442-10.936-7.5838 24.875-0.35283 31.754-2.6456 31.931-12.525-0.35283-8.2915-6.7017-12.88-20.815-12.88zm43.043 0c-6.8802 0-14.465 2.9977-14.465 13.583v26.462h10.233v-25.756c0-5.2925 1.2322-5.9988 6.8775-5.9988h10.94v-7.5838c-1.7642-0.35284-10.234-0.70636-13.586-0.70636zm-168.3 0.88208v38.987h10.23v-38.987zm125.08 6.7052c7.5859 0 9.882 1.9406 9.882 5.2925s-1.942 4.2319-15.526 4.9376l-5.2925 0.3549c0-8.6444 1.0571-10.585 10.936-10.585zm-301.85 0.17571c8.2915 0 11.822 1.2342 11.822 11.643 0.17641 11.643-1.7648 13.583-11.291 13.583-10.585 0-12.173-1.5864-12.173-13.583 0-10.232 3.3512-11.643 11.643-11.643zm59.454 13.938v6.3503c0 3.8811-2.2962 4.9376-9.882 4.9376-9.1736 0-10.761-1.0557-10.761-5.9954 0-2.9991 2.2934-4.2354 11.467-4.941zm288.97 8.2902v9.8786h10.233v-9.8786z" fill="#f76900"/>
</svg>
