<svg width="270" height="40" viewBox="0 0 270 40" fill="none" xmlns="http://www.w3.org/2000/svg">
<path d="M0 0.000290562V26.3746C0 36.4998 4.51262 40 15.6688 40C25.9474 40 31.2125 37.001 31.2125 26.0012C31.2125 16.0014 27.4506 11.4993 17.1716 11.4993C12.6589 11.4993 9.65265 11.9998 7.27093 13.8748V0.000715593L0 0.000290562ZM106.922 0.000290562V39.4998H114.19V28.0007H115.319C115.57 27.8757 115.945 27.8762 116.196 27.8762C117.574 27.8762 118.829 28.6243 119.581 29.6243L128.481 39.2506H137.882L124.093 24.7509L136.753 11.7504H128.356L119.956 20.1241C118.953 21.249 117.45 21.999 115.821 21.999H114.19V0L106.922 0.000290562ZM140.766 0.000290562V6.99976H148.035V0.000290562H140.766ZM190.779 3.00078V31.3746C190.779 36.4996 193.788 39.7511 201.81 39.7511C204.819 39.7511 207.701 39.2506 210.208 38.6256L210.46 33.6257C208.203 34.1257 205.947 34.3752 203.565 34.3752H202.687C199.678 34.3752 197.8 33.4992 197.8 30.8742V17.251H209.958V11.8751H197.8V3.0005L190.779 3.00078ZM49.8861 11.2504C45.4989 11.2504 41.2368 12.1259 37.3508 13.6259L37.0987 18.8749C40.8592 17.4999 44.8705 16.8754 49.0066 16.8754H49.6333C55.2741 16.8754 57.4066 17.3754 57.4066 20.6254V21.9999C40.1086 22.4999 35.4695 23.8763 35.0936 31.6262C35.0936 37.2512 39.9832 39.9999 49.8856 39.9999C56.6544 39.9999 64.6754 39.8749 64.6754 30.0001V21.4989C64.6754 12.3742 57.9079 11.2498 49.8856 11.2498L49.8861 11.2504ZM84.6073 11.2504C76.5846 11.2504 70.8186 13.8759 70.8186 21.7511V39.5003H77.8377V22.2521C77.8377 18.0021 79.218 16.8762 85.611 16.8762C92.0038 16.8762 93.3814 18.0021 93.3814 22.2521V39.5003H100.652V21.7511C100.652 13.7509 95.0111 11.2504 86.9887 11.2504H84.6073ZM168.088 11.2504C160.066 11.2504 154.425 13.8759 154.425 21.7511V39.5003H161.821V22.2521C161.821 18.0021 163.2 16.8762 169.342 16.8762C175.484 16.8762 177.115 18.0021 177.115 22.2521V39.5003H184.384V21.7511C184.384 13.7509 178.492 11.2504 170.72 11.2504H168.088ZM229.762 11.2504C217.478 11.2504 214.219 14.9994 214.219 25.2492C214.219 36.9991 218.104 39.9998 229.887 39.9998C234.776 39.8748 239.288 39.0003 243.299 37.3753L243.551 32.3754C239.414 33.8754 235.027 34.6239 230.389 34.6239H229.635C223.994 34.6239 222.365 32.7503 221.864 29.2504C239.539 29.0004 244.427 27.3759 244.553 20.3758C244.302 14.5009 239.791 11.2497 229.763 11.2497L229.762 11.2504ZM260.346 11.2504C255.457 11.2504 250.068 13.3744 250.068 20.8746V39.6243H257.339V21.3749C257.339 17.6249 258.214 17.1244 262.226 17.1244H269.999V11.7509C268.745 11.5009 262.728 11.2504 260.346 11.2504ZM140.762 11.8754V39.4996H148.031V11.8754H140.762ZM229.637 16.6264C235.027 16.6264 236.658 18.0014 236.658 20.3764C236.658 22.7514 235.278 23.3749 225.626 23.8749L221.866 24.1264C221.866 18.0014 222.617 16.6264 229.637 16.6264ZM15.1607 16.7509C21.0522 16.7509 23.5607 17.6254 23.5607 25.0005C23.6861 33.2501 22.3068 34.6247 15.538 34.6247C8.017 34.6247 6.88866 33.5007 6.88866 25.0005C6.88866 17.7506 9.2691 16.7509 15.1607 16.7509ZM57.405 26.6266V31.1261C57.405 33.8761 55.7735 34.6247 50.3835 34.6247C43.8653 34.6247 42.7374 33.8766 42.7374 30.3766C42.7374 28.2516 44.367 27.3756 50.8851 26.8757L57.405 26.6266ZM262.729 32.5006V39.5001H270V32.5006H262.729Z" fill="white"/>
</svg>
