<svg width="194" height="40" viewBox="0 0 194 40" fill="none" xmlns="http://www.w3.org/2000/svg">
<g clip-path="url(#clip0_358_2847)">
<path d="M13.5416 20.6326C13.9476 20.9176 13.9302 21.4895 14.296 21.7773L14.481 23.0439L13.563 24.3895C12.3958 24.9988 10.659 25.2665 9.57492 24.2852C8.96116 23.7335 8.80169 22.9369 8.96116 22.1416L9.39267 20.9808C9.63521 20.8149 9.9622 20.7731 10.1284 20.4894C10.6993 20.1224 11.4323 20.2017 12.0876 20.0609C12.578 20.2215 13.3151 19.9577 13.5416 20.6326Z" fill="white"/>
<path d="M10.5175 28.0821C10.8834 28.0821 11.1474 28.35 11.4931 28.287C11.9863 28.4704 11.9233 29.065 12.4352 29.2096C12.8238 29.9808 13.0664 30.8229 13.2714 31.6557C13.1294 32.1458 13.5408 32.4323 13.3947 32.8808L13.5408 32.9651C13.5636 33.4324 13.4979 33.9639 13.3156 34.4138C13.3947 35.2721 12.9645 35.9857 12.5973 36.7207C12.336 36.8839 12.2114 37.354 11.8456 37.2724C11.1862 37.4773 11.1273 38.4533 10.3313 38.3354C9.82203 38.721 9.12385 38.4933 8.51009 38.5161C8.16433 38.3354 7.67388 38.3768 7.43132 38.0676C6.81354 37.8239 6.26545 37.374 5.73611 36.9241C5.5284 36.4729 5.06071 36.2694 5.00041 35.7619C5.18134 35.1474 4.7927 34.5944 4.95483 33.9852L4.83691 32.965L5.22152 31.207C5.87816 30.8575 5.68921 30.0663 6.34719 29.8199C6.75592 28.8827 7.7315 28.6738 8.48998 28.2039C8.78077 28.1477 9.12384 28.3082 9.35032 28.0433C9.76039 27.9803 10.149 28.413 10.5175 28.0821Z" fill="white"/>
<path d="M43.8466 0.888214C43.6818 3.76817 41.3125 5.70694 40.0609 8.13703C39.5356 9.5857 38.2652 10.4426 37.366 11.7521C36.5472 12.5875 35.7498 13.5074 35.0784 14.4459C35.2031 15.1167 35.9133 15.3042 36.3234 15.7929C37.2427 16.3445 37.3432 17.3821 38.1432 18.0168C38.6109 18.0168 38.6109 18.713 39.1255 18.6313C40.2083 19.7962 41.0874 20.9985 41.9812 22.2651C42.1259 22.715 42.3524 23.1608 42.7397 23.4889C43.4566 24.5305 44.049 25.6338 44.7833 26.6955C44.8892 27.8791 45.8876 28.6731 46.1918 29.7803C46.6447 30.3708 46.827 31.0657 47.2384 31.6575C47.8695 33.0459 48.3011 34.4919 49.0542 35.8241C49.1976 36.1281 49.014 36.4347 48.8518 36.6596C48.5651 36.8847 48.3439 36.4736 48.0103 36.5336C46.3419 35.9231 44.7418 35.0461 43.1913 34.1075C41.5939 32.8195 39.8371 31.9037 38.2652 30.5541C37.6514 30.3909 37.4075 29.6771 36.8393 29.3892C35.3237 28.4507 34.1149 27.1051 32.5845 26.2268C31.8917 25.6952 31.1949 25.1878 30.4994 24.6348C29.9674 24.5707 29.7878 23.9586 29.2745 23.7766C28.1288 23.083 27.0902 22.1203 25.9257 21.4669C25.8211 21.6332 25.9257 21.8753 25.8211 22.04C25.0439 22.7965 25.2516 23.9586 24.6928 24.7968C24.6767 26.0005 23.8365 26.8828 23.4934 27.9392C22.5312 29.6557 21.691 31.4137 20.6913 33.106C19.3606 34.864 18.649 36.9862 16.7689 38.3947C16.3601 38.9048 15.8911 39.1686 15.3805 39.4979C15.1541 39.4349 14.8271 39.4714 14.7654 39.1913C14.5403 38.7641 14.8271 38.1068 14.5215 37.7171C14.7829 37.128 14.6207 36.4559 14.7453 35.8011L14.6448 35.5173C14.6649 34.6175 15.1125 33.8624 14.9289 32.9426C15.1742 32.3722 15.276 31.7375 15.3336 31.1056C15.6271 30.329 15.8724 29.4909 15.9528 28.6541C16.2154 28.164 16.3173 27.5334 16.257 26.9604C16.4593 26.4329 16.5022 25.7955 17.057 25.4086C17.1361 25.059 17.057 24.715 17.1146 24.3482C17.6681 22.6719 18.3421 21.0585 18.7696 19.3474C18.7696 19.224 18.649 19.1842 18.5686 19.1599C17.3625 19.0996 16.2382 19.3474 15.1125 19.0407C13.2713 19.0179 11.4139 18.7731 9.66107 18.4061C8.94278 18.263 8.08378 18.3446 7.43116 17.9361C7.00099 17.9551 6.5065 18.0378 6.10448 17.8143C5.2629 17.4032 4.24176 17.4663 3.40287 17.0163C2.77035 17.1021 2.32276 16.6895 1.74653 16.6294C1.19575 16.6722 0.890215 16.1996 0.50293 15.893V15.7123C1.52407 14.3212 3.15897 13.9356 4.63039 13.4041C6.0817 12.9542 7.69784 12.9153 9.20946 12.6061C10.169 12.444 11.2089 12.7119 12.1697 12.543C13.9064 12.5871 15.5829 12.871 17.3009 12.9154C17.8744 12.9958 18.4024 13.2623 18.976 13.238L18.9546 12.9955L17.3384 10.7916C16.7327 9.36166 15.607 8.15798 15.2144 6.64502C14.8485 6.19649 15.1943 5.5257 14.9062 5.03432C14.8887 4.80812 15.0737 4.64741 15.1742 4.46128C15.524 4.31934 15.9099 4.5645 16.257 4.33944C17.3009 4.58462 18.2604 4.95133 19.3016 5.1535C20.3844 5.58461 21.49 6.01444 22.4495 6.7294C23.6542 7.58361 25.1082 8.13657 26.0436 9.46208C26.2929 9.68828 26.6775 9.72851 27.0018 9.64274C27.2899 9.60479 27.3542 9.2585 27.6209 9.15674C28.8846 8.36007 30.3158 7.91424 31.5661 7.03457C32.0686 6.52178 32.8928 6.46153 33.1943 5.76798C33.587 5.58466 33.9367 5.33955 34.3441 5.23643C35.061 4.729 35.774 4.17602 36.5472 3.76765C36.9599 3.72476 37.2842 3.49855 37.6126 3.27896C38.8789 2.58407 40.2083 2.01234 41.4117 1.21704C41.6784 0.502078 42.473 0.664109 43.0466 0.502088C43.332 0.563572 43.722 0.521588 43.8466 0.888214Z" fill="white"/>
<path d="M58.3545 34.675H193.498V34.1475H58.3545V34.675Z" fill="white"/>
<path d="M58.3545 35.1771H193.498V34.6536H58.3545V35.1771Z" fill="white"/>
<path d="M157.776 26.2061C157.249 26.5329 156.599 26.7631 155.582 26.7631C154.211 26.7631 153.033 25.6184 153.033 24.1175C153.033 22.0274 154.601 21.2428 156.106 21.2428C156.693 21.2428 157.313 21.3381 157.674 21.4034L157.776 26.2061ZM152.082 18.2343C152.9 17.0267 153.719 16.5058 155.322 16.5058C157.544 16.5058 157.674 18.4619 157.674 20.2266C157.217 20.2266 156.662 20.1287 156.137 20.1287C153.162 20.1287 149.858 21.4703 149.858 24.9327C149.858 27.3494 152.049 28.7231 154.274 28.7231C155.712 28.7231 156.76 27.9371 157.872 27.1231C158.262 27.9371 159.244 28.5597 160.493 28.7231L162.94 26.763L162.45 26.2742C162.219 26.3372 161.927 26.4056 161.762 26.4056C161.043 26.4056 160.785 25.9771 160.785 24.4762V23.3315C160.818 21.4704 160.91 19.7726 160.91 18.5958C160.91 15.3288 158.427 14.5429 155.518 14.5429C153.981 14.5429 152.674 14.741 151.298 15.1307V18.2343L152.082 18.2343Z" fill="white"/>
<path d="M79.3827 9.97161H77.977C76.9384 6.81984 73.6485 5.58002 70.7633 5.58002C64.9272 5.58002 62.5124 10.2702 62.5124 15.9002C62.5124 25.3502 69.3562 26.9569 72.1382 26.9569C74.8586 26.9569 77.3015 25.7853 78.7823 23.4396L79.8209 23.8761L78.7823 27.5955C76.0982 28.099 74.4204 28.3654 72.2427 28.3654C62.2444 28.3654 57.8516 22.2011 57.8516 16.1681C57.8516 9.26603 63.1851 4.17149 70.7016 4.17149C75.0556 4.17149 76.7334 4.90924 79.1147 5.5144L79.3827 9.97161Z" fill="white"/>
<path d="M83.1871 18.2154V15.1064C84.5593 14.7155 85.8686 14.5173 87.4124 14.5173C90.3257 14.5173 92.8156 15.3046 92.8156 18.5756C92.8156 19.7565 92.7178 21.4568 92.6829 23.3219V24.468C92.6829 25.9743 92.9456 26.4 93.6705 26.4C93.8313 26.4 94.1248 26.3344 94.3553 26.2661L94.8471 26.7588L92.3921 28.723C91.1431 28.5624 90.1622 27.9357 89.7655 27.1163C88.6559 27.9357 87.6053 28.723 86.1674 28.723C83.9402 28.723 81.7451 27.3466 81.7451 24.9218C81.7451 21.4567 85.0538 20.1165 88.0341 20.1165C88.5554 20.1165 89.1142 20.2103 89.5699 20.2103C89.5699 18.4456 89.4399 16.4828 87.214 16.4828C85.6072 16.4828 84.7898 17.0049 83.9697 18.2153L83.1871 18.2154ZM89.5699 21.3899C89.2134 21.3216 88.5889 21.2267 87.9966 21.2267C86.4931 21.2267 84.9198 22.0153 84.9198 24.1067C84.9198 25.613 86.1044 26.759 87.4767 26.759C88.4911 26.759 89.1464 26.5302 89.6744 26.2047L89.5699 21.3899Z" fill="white"/>
<path d="M100.179 14.5537C100.179 15.9341 100.312 18.8114 100.312 21.4946V26.2745C100.312 27.3871 100.839 27.5491 101.589 27.7486V28.4033C100.608 28.4033 99.6272 28.3016 98.6369 28.3016C97.7578 28.3016 96.8747 28.3672 95.9862 28.4033V27.7486C96.7741 27.5489 97.1333 27.3869 97.1333 26.2745V22.2163C97.1333 19.8571 96.9416 18.5463 96.675 17.8608C96.4137 17.2088 96.0853 16.9812 95.3027 16.8459V16.1925C96.809 15.835 98.5471 15.2125 99.5267 14.5537H100.179ZM98.5766 9.02541C99.5267 9.02541 100.378 9.71228 100.378 10.6964C100.378 11.6764 99.5267 12.3619 98.5766 12.3619C97.6265 12.3619 96.7742 11.6764 96.7742 10.6964C96.7742 9.71228 97.6265 9.02541 98.5766 9.02541Z" fill="white"/>
<path d="M103.223 27.7457C104.268 27.5825 104.957 26.7669 105.386 26.2099L108.563 22.1504L104.799 17.0452C104.17 16.2258 103.94 15.9982 102.991 15.5697V14.9163C103.976 14.9467 104.992 15.0169 105.974 15.0169C106.957 15.0169 107.941 14.9486 108.92 14.9163V15.5697C108.528 15.7637 108.234 15.8346 108.234 16.3235C108.234 16.5512 108.331 16.9782 108.625 17.3719L110.43 19.8248L112.031 17.6959C112.358 17.2407 112.526 16.847 112.526 16.6181C112.526 15.9982 112.131 15.7638 111.608 15.5697V14.9163C112.49 14.9467 113.342 15.0169 114.226 15.0169C115.079 15.0169 115.966 14.9486 116.818 14.9163V15.5697C115.537 15.8657 114.851 16.6502 114.133 17.5687L111.345 21.1034L114.884 26.0118C115.374 26.6665 116.125 27.4846 116.946 27.7457V28.4017C115.966 28.3676 115.012 28.3027 114.032 28.3027C113.047 28.3027 112.096 28.3668 111.116 28.4017V27.7457C111.475 27.7115 111.771 27.356 111.771 27.024C111.771 26.8312 111.51 26.3077 111.245 25.9127L109.477 23.3942L107.707 25.7801C107.506 26.0773 107.253 26.7013 107.253 26.9945C107.253 27.514 107.506 27.6814 107.941 27.7457V28.4017C107.088 28.3676 106.199 28.3027 105.348 28.3027C104.633 28.3027 103.94 28.3668 103.223 28.4017V27.7457Z" fill="white"/>
<path d="M119.268 18.2154V15.1064C120.644 14.7155 121.951 14.5173 123.494 14.5173C126.411 14.5173 128.902 15.3046 128.902 18.5756C128.902 19.7565 128.8 21.4568 128.768 23.3219V24.468C128.768 25.9743 129.03 26.4 129.75 26.4C129.915 26.4 130.207 26.3344 130.439 26.2661L130.931 26.7588L128.468 28.723C127.229 28.5624 126.248 27.9357 125.853 27.1163C124.738 27.9357 123.689 28.723 122.254 28.723C120.024 28.723 117.823 27.3466 117.823 24.9218C117.823 21.4567 121.131 20.1165 124.115 20.1165C124.642 20.1165 125.196 20.2103 125.656 20.2103C125.656 18.4456 125.527 16.4828 123.299 16.4828C121.691 16.4828 120.872 17.0049 120.056 18.2153L119.268 18.2154ZM125.656 21.3899C125.298 21.3216 124.676 21.2267 124.084 21.2267C122.575 21.2267 121.006 22.0153 121.006 24.1067C121.006 25.613 122.188 26.759 123.559 26.759C124.573 26.759 125.235 26.5302 125.758 26.2047L125.656 21.3899Z" fill="white"/>
<path d="M137.503 7.42049C137.503 6.80057 137.893 6.76707 138.808 6.76707C142.342 6.76707 143.682 8.66431 143.682 11.5389C143.682 14.3801 141.717 16.1782 138.808 16.1782C138.383 16.1782 137.921 16.1479 137.34 16.1126L137.503 7.42049ZM133.836 25.6188C133.836 27.0247 133.414 27.5134 131.971 27.6767V28.2658H137.598C138.055 28.2658 138.516 28.3 138.942 28.3315C139.4 28.3618 139.857 28.393 140.282 28.393C143.847 28.393 148.065 27.0246 148.065 22.8111C148.065 19.4116 146.001 17.6791 142.926 16.8302V16.7646C145.382 15.98 147.67 14.1831 147.67 11.4063C147.67 7.15796 143.284 5.59007 139.625 5.59007C138.841 5.59007 138.09 5.72139 136.618 5.72139C135.31 5.72139 133.97 5.59007 132.334 5.59007V6.31044C133.217 6.44176 133.744 6.73354 133.744 7.97601C133.744 10.9189 133.836 15.0668 133.836 18.9871L133.836 25.6188ZM137.34 17.5171C138.023 17.5171 138.545 17.483 139.101 17.483C142.238 17.483 144.073 19.7055 144.073 22.6792C144.073 25.1937 142.406 27.2195 139.592 27.2195C137.567 27.2195 137.34 26.8927 137.34 25.1294V17.5171Z" fill="white"/>
<path d="M163.473 16.8054C164.455 16.8054 164.911 17.3597 164.911 18.3076C164.911 19.3519 165.075 21.1193 165.075 23.0125V26.2152C165.075 27.3265 164.683 27.4536 163.865 27.7482V28.4016C164.783 28.4016 165.725 28.3052 166.643 28.3052C167.591 28.3052 168.51 28.3693 169.457 28.4016V27.7482C168.577 27.6503 168.245 27.3895 168.245 26.2152V23.536C168.245 20.9867 168.313 19.1578 168.313 17.9167C168.313 16.7076 170.404 16.3809 171.058 16.3809C173.38 16.3809 173.739 18.7976 173.739 20.5623V26.2152C173.739 27.3265 173.475 27.5554 172.56 27.7482V28.4016C173.612 28.4016 174.622 28.3052 175.666 28.3052C176.489 28.3052 177.272 28.3693 178.09 28.4016V27.7482C177.174 27.4913 176.911 27.2608 176.911 26.2152V19.289C176.911 16.5121 175.635 14.5828 172.399 14.5828C171.024 14.5828 169.554 15.4009 168.41 16.152C168.444 15.5963 168.444 15.0755 168.474 14.5199H167.821C166.582 15.3005 165.404 15.7932 163.473 16.152L163.473 16.8054Z" fill="white"/>
<path d="M193.482 27.7095C192.504 27.4176 191.326 26.3719 190.902 25.8819L185.96 20.0978L188.48 17.4509C189.262 16.6341 190.344 15.883 191.52 15.5549V14.9042C190.705 14.9672 189.887 15.0021 189.068 15.0021C188.187 15.0021 187.267 14.968 186.385 14.9042V15.5549C186.683 15.6901 186.976 16.0812 186.976 16.4065C186.976 16.7678 186.811 17.2567 186.124 17.9422L183.444 20.5879V5.2026H182.724C181.547 6.08224 180.014 6.76775 178.374 7.19355V7.9433C179.191 7.9433 179.943 8.72924 180.014 10.0681C180.109 11.3107 180.276 13.7608 180.276 15.6567V26.2407C180.276 26.9584 180.014 27.5461 179.031 27.7095V28.3642C179.912 28.3001 180.763 28.2663 181.644 28.2663C182.626 28.2663 183.575 28.3642 184.554 28.3642V27.7095C183.771 27.5463 183.444 27.1579 183.444 26.1751V21.6965H183.511L186.877 25.3918C187.434 26.0104 187.826 26.7669 187.826 27.1217C187.826 27.4485 187.594 27.7095 187.303 27.7095V28.3642C188.418 28.3642 189.525 28.2663 190.636 28.2663C191.586 28.2663 192.536 28.3304 193.482 28.3642V27.7095Z" fill="white"/>
<path d="M58.3545 35.1771H193.498V34.6536H58.3545V35.1771Z" fill="white"/>
</g>
<defs>
<clipPath id="clip0_358_2847">
<rect width="194" height="40" fill="white"/>
</clipPath>
</defs>
</svg>
