<svg width="208" height="40" viewBox="0 0 208 40" fill="none" xmlns="http://www.w3.org/2000/svg">
<g clip-path="url(#clip0_358_2865)">
<mask id="mask0_358_2865" style="mask-type:luminance" maskUnits="userSpaceOnUse" x="0" y="0" width="208" height="40">
<path d="M208 0.712891H0V39.2872H208V0.712891Z" fill="white"/>
</mask>
<g mask="url(#mask0_358_2865)">
<path d="M0 6.65539V30.033H6.41683V5.74382L0 6.65539Z" fill="white"/>
<path d="M20.2771 25.1293C19.1595 25.1293 18.042 24.9217 16.9707 24.4485V20.6523C16.9707 18.5868 18.5951 16.9945 20.7839 16.9945C22.9728 16.9945 24.4013 18.4483 24.4013 21.0215C24.4013 23.7332 22.6386 25.1178 20.2771 25.1178M20.9106 30.4487C26.786 30.4487 30.438 26.8255 30.438 21.0445C30.438 14.9521 27.7306 11.7097 22.6964 11.7097C20.4729 11.7097 18.4798 12.5866 16.9592 14.2828V4.62483L11.0146 5.5364V27.9448C14.5629 29.768 17.2702 30.4487 20.9106 30.4487Z" fill="white"/>
<path d="M54.0204 30.0328H59.9303V19.6825C61.0823 18.0555 62.8679 17.0055 65.2989 17.0055C65.7365 17.0055 66.1398 17.04 66.6467 17.1438V11.7668C66.2435 11.6976 65.8979 11.6976 65.5984 11.6976C62.9257 11.6976 60.7022 12.9092 59.5501 15.2862V11.6976L54.0088 12.6092V30.0443L54.0204 30.0328Z" fill="white"/>
<path d="M78.1789 30.4483C80.6442 30.4483 82.7755 30.0445 84.665 29.2252V23.7788C82.8447 24.6558 80.8862 25.129 78.7549 25.129C76.1513 25.129 74.2275 23.7443 74.2275 21.1712C74.2275 18.4248 76.1513 17.0057 78.7895 17.0057C81.013 17.0057 82.9484 17.548 84.5036 18.4248V12.9093C82.741 12.0324 80.5521 11.6862 78.1559 11.6862C72.3841 11.6862 68.1562 15.2748 68.1562 20.9865C68.1562 26.6982 72.3497 30.4252 78.1905 30.4252" fill="white"/>
<path d="M95.8136 26.214C94.3621 26.214 93.5211 25.5332 93.5211 24.3562C93.5211 22.937 94.5348 22.2562 96.6316 22.2562H98.9241V25.0947C98.0831 25.8332 96.9656 26.214 95.8136 26.214ZM93.8782 30.4487C96.2743 30.4487 98.2329 29.6757 99.9263 28.0487C100.537 29.7102 101.781 30.2178 103.981 30.2178C104.926 30.2178 106.447 29.9757 107.092 29.641V25.4408C106.85 25.5793 106.516 25.6485 106.182 25.6485C105.341 25.6485 104.869 25.21 104.869 24.3677V19.533C104.869 14.4213 101.689 11.7212 95.779 11.7212C93.6477 11.7212 91.0557 12.1597 88.8552 12.9097V17.8137C90.8484 16.9713 93.2099 16.4637 95.445 16.4637C97.6799 16.4637 98.9241 17.2713 98.9241 18.8292V19.0598H96.0209C90.3069 19.0598 87.542 20.9522 87.542 24.8755C87.542 28.3602 89.9037 30.4602 93.8896 30.4602" fill="white"/>
<path d="M109.905 36.7715L115.849 35.86V11.6977L109.905 12.6093V36.7715ZM112.911 9.83995C114.835 9.83995 116.494 8.82454 116.494 6.52832C116.494 4.23209 114.835 3.23975 112.911 3.23975C110.988 3.23975 109.294 4.3244 109.294 6.52832C109.294 8.73222 111.045 9.83995 112.911 9.83995Z" fill="white"/>
<path d="M126.758 26.214C125.307 26.214 124.466 25.5332 124.466 24.3562C124.466 22.937 125.479 22.2562 127.576 22.2562H129.869V25.0947C129.028 25.8332 127.91 26.214 126.758 26.214ZM124.834 30.4487C127.23 30.4487 129.189 29.6757 130.882 28.0487C131.493 29.7102 132.737 30.2178 134.938 30.2178C135.882 30.2178 137.403 29.9757 138.048 29.641V25.4408C137.806 25.5793 137.472 25.6485 137.138 25.6485C136.297 25.6485 135.825 25.21 135.825 24.3677V19.533C135.825 14.4213 132.645 11.7212 126.735 11.7212C124.604 11.7212 122 12.1597 119.811 12.9097V17.8137C121.804 16.9713 124.166 16.4637 126.401 16.4637C128.636 16.4637 129.88 17.2713 129.88 18.8292V19.0598H126.977C121.263 19.0598 118.498 20.9522 118.498 24.8755C118.498 28.3602 120.86 30.4602 124.846 30.4602" fill="white"/>
<path d="M32.6045 21.5057C32.6045 27.252 36.2563 30.4368 42.8115 30.4368C45.68 30.4368 48.0418 30.033 49.7006 29.2137V24.4712C47.5693 25.4173 45.6454 25.8212 43.4796 25.8212C40.8415 25.8212 39.3553 25.1058 38.7217 23.4212H43.9288C48.3181 23.4212 50.8872 21.3903 50.8872 17.9057C50.8872 14.144 47.8803 11.6862 43.3529 11.6862C36.9361 11.6862 32.6045 15.644 32.6045 21.4942M42.9381 19.7518H38.4453C38.8829 17.548 40.5419 16.1979 42.9381 16.1979C44.4242 16.1979 45.2998 16.8095 45.2998 17.8595C45.2998 19.1057 44.5281 19.7518 42.9381 19.7518Z" fill="white"/>
<path d="M170.605 24.4602C170.432 24.9448 170.479 25.118 170.432 25.7527C170.409 26.2257 170.456 26.6295 170.524 26.9527C170.582 27.2757 170.605 27.7142 170.835 28.1412C170.996 28.4412 171.078 28.695 171.249 28.9488C171.389 29.1565 171.457 29.5027 171.63 29.6182C171.86 29.8488 172.01 30.1143 172.218 30.3105C172.414 30.5643 172.644 30.772 172.908 30.945C173.346 31.2567 173.612 31.4067 174.038 31.695C174.384 31.9258 174.246 32.1335 174.684 32.272C174.822 32.3297 175.145 32.4797 175.328 32.5373C175.559 32.6297 175.777 32.7567 175.973 32.9182C176.549 33.3567 177.045 33.3567 177.862 33.5182C178.381 33.6682 178.877 33.922 179.371 34.0375C179.752 34.1182 179.949 34.0375 180.305 34.0952C180.524 34.1413 180.742 34.2105 180.95 34.3028C181.376 34.3952 183.531 34.4643 184.187 34.3605C184.486 34.3143 184.786 34.3143 185.085 34.3605C185.467 34.3605 185.846 34.3028 186.215 34.2105C186.941 34.1182 187.17 34.176 187.793 34.0952C188.254 34.0375 188.958 33.7837 189.452 33.6567C191.111 33.2182 191.698 33.3105 193.058 32.8143C193.462 32.6643 194.314 32.3758 194.637 32.2028C195.074 32.0297 195.512 31.8797 195.973 31.7643C196.584 31.5912 196.963 31.1297 197.632 31.1873C197.632 31.1873 197.838 31.6605 197.655 31.8452C197.228 32.2835 197.078 32.3182 196.619 32.5258C196.352 32.6413 196.088 32.9643 195.87 33.0797C195.639 33.1952 195.409 33.299 195.213 33.4375C194.913 33.6105 194.822 34.0028 194.625 34.2105C194.129 34.6722 193.369 34.9028 192.735 35.2837C192.229 35.549 191.745 35.849 191.284 36.1837C191.019 36.3337 190.731 36.299 190.467 36.5068C190.327 36.599 189.637 37.003 189.395 37.0607C189.072 37.2107 187.793 37.6145 187.355 37.6953C186.918 37.776 186.653 38.0183 186.272 38.076C186.042 38.1337 185.097 38.3298 184.879 38.3992C184.591 38.4915 183.45 38.7222 183.047 38.7222C181.734 38.6645 181.849 39.103 180.569 39.1607C177.667 39.6222 173.877 38.9068 173.116 38.6068C172.414 38.5145 172.103 38.3992 170.812 37.8222C166.181 35.8837 163.336 30.5758 162.898 29.9412C162.46 29.3065 161.988 27.1833 161.7 26.5488C161.515 25.6718 161.4 24.7833 161.366 23.8833C161.25 21.8293 161.481 19.8102 162.08 17.837C162.08 17.837 163.531 11.8714 170.547 6.29815C175.075 2.75573 179.659 2.09802 182.022 1.31337C183.37 0.863358 184.741 0.794127 185.408 0.736432C186.204 0.6672 188.934 0.828743 189.983 1.04798C191.434 1.35953 195.04 2.75573 196.813 4.14038C196.986 4.22115 197.136 4.31347 197.274 4.42885C197.412 4.54425 197.539 4.6827 197.655 4.83272C197.758 4.98272 197.85 5.14427 197.908 5.31735C197.976 5.49042 198.011 5.6635 198.035 5.84813C198.093 6.25198 198.437 6.44815 198.299 7.03663C198.219 7.2674 198.011 7.3251 197.976 7.61357C197.92 7.84435 198.093 7.95973 198.035 8.16743C197.873 8.55975 197.655 8.929 197.389 9.26362C197.159 9.55208 196.399 10.129 196.053 10.0713C195.386 9.92133 194.798 9.32132 193.727 9.32132C191.986 9.32132 190.5 9.11362 188.829 9.4367C188.45 9.52902 188.254 9.52902 187.701 9.6444C187.149 9.75978 186.826 9.96748 186.25 10.0829C185.754 10.1752 185.432 10.3136 185.062 10.3944C184.683 10.4752 184.683 10.5444 184.36 10.5098C184.142 10.4867 183.899 10.7406 183.726 10.8214C183.197 11.0867 182.621 11.2252 182.125 11.456C181.515 11.7329 180.927 12.0445 180.351 12.3791C180.178 12.5291 179.994 12.656 179.799 12.7599C179.579 12.8868 179.395 13.0599 179.245 13.256C179.039 13.5561 178.669 13.5445 178.405 13.7753C177.782 14.3176 177.529 14.5484 176.998 15.183C176.872 15.3446 176.273 15.7253 176.077 15.8638C175.789 16.0715 175.789 16.36 175.489 16.5561C175.075 16.8562 174.717 17.2138 174.406 17.6293C174.406 17.6293 171.389 20.964 170.64 24.4372" fill="white"/>
<path d="M147.738 21.0908C147.738 19.2562 161.24 17.7792 177.853 17.7792C194.465 17.7792 207.99 19.2562 207.99 21.0908C207.99 22.9255 194.476 24.4025 177.853 24.4025C161.228 24.4025 147.738 22.9023 147.738 21.0908Z" fill="white"/>
<path d="M201.699 25.1172C200.339 25.1172 199.223 26.2248 199.223 27.598C199.223 28.9712 200.328 30.0788 201.699 30.0788C203.07 30.0788 204.176 28.9712 204.176 27.598C204.176 26.2248 203.07 25.1172 201.699 25.1172Z" fill="white"/>
</g>
</g>
<defs>
<clipPath id="clip0_358_2865">
<rect width="208" height="40" fill="white"/>
</clipPath>
</defs>
</svg>
