<svg width="125" height="24" viewBox="0 0 125 24" fill="none" xmlns="http://www.w3.org/2000/svg">
<g clip-path="url(#clip0_3062_5011)">
<path d="M0 3.99323V18.0198H3.85627V3.44629L0 3.99323Z" fill="#212932"/>
<path d="M12.1855 15.0776C11.5139 15.0776 10.8423 14.953 10.1985 14.6691V12.3914C10.1985 11.1521 11.1747 10.1967 12.4901 10.1967C13.8055 10.1967 14.664 11.069 14.664 12.6129C14.664 14.2399 13.6047 15.0707 12.1855 15.0707M12.5662 18.2692C16.0971 18.2692 18.2918 16.0953 18.2918 12.6267C18.2918 8.97125 16.6648 7.0258 13.6394 7.0258C12.3032 7.0258 11.1054 7.55197 10.1916 8.5697V2.7749L6.61914 3.32184V16.7669C8.75151 17.8608 10.3785 18.2692 12.5662 18.2692Z" fill="#212932"/>
<path d="M32.464 18.0197H36.0156V11.8095C36.7079 10.8333 37.781 10.2033 39.2419 10.2033C39.5049 10.2033 39.7473 10.224 40.0519 10.2863V7.06009C39.8096 7.01855 39.6019 7.01855 39.4219 7.01855C37.8157 7.01855 36.4795 7.7455 35.7871 9.1717V7.01855L32.457 7.56549V18.0266L32.464 18.0197Z" fill="#212932"/>
<path d="M46.9822 18.269C48.4638 18.269 49.7446 18.0267 50.8801 17.5351V14.2673C49.7862 14.7935 48.6092 15.0774 47.3284 15.0774C45.7637 15.0774 44.6076 14.2466 44.6076 12.7027C44.6076 11.0549 45.7637 10.2034 47.3492 10.2034C48.6854 10.2034 49.8485 10.5288 50.7831 11.0549V7.74559C49.7239 7.21942 48.4084 7.01172 46.9684 7.01172C43.4998 7.01172 40.959 9.16486 40.959 12.5919C40.959 16.0189 43.4791 18.2551 46.9892 18.2551" fill="#212932"/>
<path d="M57.5803 15.7284C56.708 15.7284 56.2026 15.3199 56.2026 14.6137C56.2026 13.7622 56.8118 13.3537 58.0719 13.3537H59.4496V15.0568C58.9442 15.4999 58.2726 15.7284 57.5803 15.7284ZM56.4172 18.2692C57.8572 18.2692 59.0342 17.8054 60.0519 16.8292C60.4188 17.8261 61.1666 18.1307 62.4889 18.1307C63.0566 18.1307 63.9705 17.9854 64.3582 17.7846V15.2645C64.2128 15.3476 64.012 15.3891 63.8113 15.3891C63.3059 15.3891 63.022 15.126 63.022 14.6206V11.7198C63.022 8.65276 61.1112 7.03271 57.5595 7.03271C56.2787 7.03271 54.721 7.2958 53.3986 7.74581V10.6882C54.5964 10.1828 56.0156 9.87819 57.3588 9.87819C58.7019 9.87819 59.4496 10.3628 59.4496 11.2975V11.4359H57.7049C54.271 11.4359 52.6094 12.5713 52.6094 14.9253C52.6094 17.0161 54.0287 18.2761 56.4241 18.2761" fill="#212932"/>
<path d="M66.0486 22.0629L69.621 21.516V7.01862L66.0486 7.56556V22.0629ZM67.8556 5.90397C69.0117 5.90397 70.0087 5.29472 70.0087 3.91699C70.0087 2.53925 69.0117 1.94385 67.8556 1.94385C66.6994 1.94385 65.6816 2.59464 65.6816 3.91699C65.6816 5.23933 66.734 5.90397 67.8556 5.90397Z" fill="#212932"/>
<path d="M76.1769 15.7284C75.3046 15.7284 74.7992 15.3199 74.7992 14.6137C74.7992 13.7622 75.4084 13.3537 76.6684 13.3537H78.0462V15.0568C77.5408 15.4999 76.8692 15.7284 76.1769 15.7284ZM75.0207 18.2692C76.4607 18.2692 77.6377 17.8054 78.6554 16.8292C79.0224 17.8261 79.7701 18.1307 81.0924 18.1307C81.6601 18.1307 82.574 17.9854 82.9617 17.7846V15.2645C82.8163 15.3476 82.6156 15.3891 82.4148 15.3891C81.9094 15.3891 81.6255 15.126 81.6255 14.6206V11.7198C81.6255 8.65276 79.7147 7.03271 76.163 7.03271C74.8822 7.03271 73.3176 7.2958 72.0021 7.74581V10.6882C73.1999 10.1828 74.6191 9.87819 75.9623 9.87819C77.3054 9.87819 78.0531 10.3628 78.0531 11.2975V11.4359H76.3084C72.8745 11.4359 71.2129 12.5713 71.2129 14.9253C71.2129 17.0161 72.6322 18.2761 75.0276 18.2761" fill="#212932"/>
<path d="M19.5938 12.9034C19.5938 16.3512 21.7884 18.2621 25.7278 18.2621C27.4517 18.2621 28.871 18.0198 29.8679 17.5282V14.6827C28.5871 15.2504 27.4309 15.4927 26.1293 15.4927C24.5439 15.4927 23.6508 15.0635 23.27 14.0527H26.3993C29.0371 14.0527 30.581 12.8342 30.581 10.7434C30.581 8.48638 28.774 7.01172 26.0532 7.01172C22.1969 7.01172 19.5938 9.38641 19.5938 12.8965M25.8039 11.8511H23.1039C23.3669 10.5288 24.3639 9.71873 25.8039 9.71873C26.697 9.71873 27.2232 10.0857 27.2232 10.7157C27.2232 11.4634 26.7594 11.8511 25.8039 11.8511Z" fill="#212932"/>
<path d="M102.527 14.6761C102.423 14.9669 102.451 15.0708 102.423 15.4516C102.409 15.7354 102.437 15.9777 102.478 16.1716C102.513 16.3654 102.527 16.6285 102.665 16.8847C102.762 17.0647 102.811 17.217 102.914 17.3693C102.998 17.4939 103.039 17.7016 103.143 17.7709C103.281 17.9093 103.371 18.0686 103.496 18.1863C103.614 18.3386 103.752 18.4632 103.911 18.567C104.174 18.754 104.334 18.844 104.59 19.017C104.798 19.1555 104.715 19.2801 104.978 19.3632C105.061 19.3978 105.255 19.4878 105.365 19.5224C105.504 19.5778 105.635 19.654 105.753 19.7509C106.099 20.014 106.397 20.014 106.888 20.1109C107.2 20.2009 107.498 20.3532 107.795 20.4225C108.024 20.4709 108.142 20.4225 108.356 20.4571C108.488 20.4848 108.619 20.5263 108.744 20.5817C109 20.6371 110.295 20.6786 110.689 20.6163C110.869 20.5886 111.049 20.5886 111.229 20.6163C111.458 20.6163 111.686 20.5817 111.908 20.5263C112.344 20.4709 112.482 20.5056 112.856 20.4571C113.133 20.4225 113.556 20.2702 113.853 20.194C114.85 19.9309 115.203 19.9863 116.02 19.6886C116.263 19.5986 116.775 19.4255 116.969 19.3217C117.232 19.2178 117.495 19.1278 117.772 19.0586C118.139 18.9547 118.367 18.6778 118.769 18.7124C118.769 18.7124 118.893 18.9963 118.783 19.1071C118.526 19.3701 118.436 19.3909 118.16 19.5155C118 19.5848 117.841 19.7786 117.71 19.8478C117.571 19.9171 117.433 19.9794 117.315 20.0625C117.135 20.1663 117.08 20.4017 116.962 20.5263C116.664 20.8033 116.207 20.9417 115.826 21.1702C115.522 21.3294 115.231 21.5094 114.954 21.7102C114.795 21.8002 114.622 21.7794 114.463 21.9041C114.379 21.9594 113.964 22.2018 113.819 22.2364C113.625 22.3264 112.856 22.5687 112.593 22.6172C112.33 22.6656 112.171 22.811 111.942 22.8456C111.804 22.8802 111.236 22.9979 111.105 23.0395C110.932 23.0949 110.246 23.2333 110.004 23.2333C109.215 23.1987 109.284 23.4618 108.515 23.4964C106.771 23.7733 104.493 23.3441 104.036 23.1641C103.614 23.1087 103.427 23.0395 102.651 22.6933C99.8682 21.5302 98.1581 18.3455 97.8951 17.9647C97.632 17.5839 97.3481 16.31 97.175 15.9293C97.0643 15.4031 96.995 14.87 96.9743 14.33C96.905 13.0976 97.0435 11.8861 97.4035 10.7022C97.4035 10.7022 98.2758 7.12283 102.492 3.77889C105.213 1.65344 107.968 1.25881 109.388 0.788024C110.198 0.518015 111.022 0.476476 111.423 0.441859C111.901 0.40032 113.542 0.497246 114.172 0.628788C115.044 0.815717 117.211 1.65344 118.277 2.48423C118.381 2.53269 118.471 2.58808 118.554 2.65731C118.637 2.72655 118.713 2.80962 118.783 2.89963C118.845 2.98963 118.9 3.08656 118.935 3.19041C118.976 3.29425 118.997 3.3981 119.011 3.50888C119.046 3.75119 119.253 3.86889 119.17 4.22198C119.122 4.36044 118.997 4.39506 118.976 4.56814C118.942 4.70661 119.046 4.77584 119.011 4.90046C118.914 5.13585 118.783 5.3574 118.623 5.55817C118.485 5.73125 118.028 6.07742 117.82 6.0428C117.419 5.9528 117.066 5.59279 116.422 5.59279C115.376 5.59279 114.483 5.46817 113.479 5.66202C113.251 5.71741 113.133 5.71741 112.801 5.78664C112.469 5.85587 112.275 5.98049 111.929 6.04972C111.631 6.10511 111.437 6.18819 111.215 6.23665C110.987 6.28512 110.987 6.32666 110.793 6.30589C110.662 6.29204 110.516 6.44435 110.412 6.49282C110.094 6.65205 109.748 6.73513 109.45 6.8736C109.083 7.03976 108.73 7.22668 108.384 7.42746C108.28 7.51746 108.169 7.59362 108.052 7.65593C107.92 7.73208 107.809 7.83593 107.719 7.95363C107.595 8.13364 107.373 8.12671 107.214 8.26518C106.84 8.59057 106.688 8.72904 106.369 9.10982C106.293 9.20675 105.933 9.43521 105.815 9.51829C105.642 9.64291 105.642 9.81599 105.462 9.93369C105.213 10.1137 104.998 10.3283 104.811 10.5776C104.811 10.5776 102.998 12.5784 102.548 14.6623" fill="#FF4747"/>
<path d="M88.7852 12.6545C88.7852 11.5537 96.8993 10.6675 106.883 10.6675C116.866 10.6675 124.994 11.5537 124.994 12.6545C124.994 13.7553 116.873 14.6415 106.883 14.6415C96.8923 14.6415 88.7852 13.7414 88.7852 12.6545Z" fill="#0168FF"/>
<path d="M121.213 15.0703C120.396 15.0703 119.725 15.7349 119.725 16.5588C119.725 17.3827 120.389 18.0473 121.213 18.0473C122.037 18.0473 122.702 17.3827 122.702 16.5588C122.702 15.7349 122.037 15.0703 121.213 15.0703Z" fill="#0168FF"/>
</g>
<defs>
<clipPath id="clip0_3062_5011">
<rect width="125" height="23.1446" fill="white" transform="translate(0 0.427734)"/>
</clipPath>
</defs>
</svg>
