<svg width="57" height="40" viewBox="0 0 57 40" fill="none" xmlns="http://www.w3.org/2000/svg">
<g clip-path="url(#clip0_358_2881)">
<path fill-rule="evenodd" clip-rule="evenodd" d="M8.50324 21.0491C8.98516 20.5857 9.47952 20.1299 9.952 19.6523C11.0225 18.57 12.0819 17.4765 13.1467 16.3885C14.5633 14.9411 15.9733 13.4872 17.4014 12.0512C18.1226 11.3256 18.9729 10.8054 19.9973 10.6214C22.0576 10.2513 24.3002 11.6601 24.449 14.0629C24.526 15.3078 24.1313 16.4016 23.2455 17.2867C21.5497 18.9813 19.8405 20.6628 18.1295 22.3421C18.0098 22.4595 18.0267 22.5239 18.0982 22.6473C20.1561 26.1979 22.2111 29.7502 24.264 33.3038C24.7828 34.2016 25.0985 35.156 25.0447 36.21C24.9289 38.4785 22.9743 40.1765 20.7135 39.9853C19.044 39.844 17.8357 38.9883 17.0316 37.5631C15.3635 34.6065 13.7261 31.6324 12.076 28.6655C11.9557 28.4491 11.9571 28.4505 11.784 28.6218C10.7358 29.6585 9.68786 30.6954 8.63649 31.7288C8.54076 31.8229 8.49937 31.9178 8.49995 32.0531C8.50478 33.2047 8.51107 34.3564 8.50083 35.5079C8.48972 36.7475 8.15618 37.8765 7.27205 38.7863C6.42009 39.6629 5.35124 40.0233 4.15222 39.9921C2.93031 39.9602 1.86767 39.5328 1.05594 38.5858C0.355511 37.7688 0.0398132 36.7969 0.0155344 35.736C-0.0100608 34.6195 0.00368784 33.5021 0.00368784 32.3851C0.00324907 23.1101 0.00383378 13.8353 0.00324875 4.5604C0.00324875 3.50989 0.225049 2.52075 0.854836 1.66188C1.73151 0.466089 2.95517 -0.0384413 4.40188 0.00227257C6.58829 0.0637828 8.18389 1.55072 8.44723 3.72057C8.48467 4.029 8.50266 4.33757 8.50266 4.64761C8.5031 10.054 8.50281 15.4603 8.5042 20.8666C8.5042 20.9374 8.4805 21.0137 8.50324 21.0491ZM22.5301 35.7876C22.5254 34.8469 21.7581 34.09 20.812 34.0931C19.885 34.0961 19.1091 34.8753 19.1185 35.794C19.1281 36.7413 19.8926 37.5051 20.8294 37.5035C21.767 37.5019 22.5349 36.7273 22.5301 35.7876ZM4.25131 2.82801C3.46305 2.82632 2.82588 3.45695 2.82844 4.23645C2.831 5.00379 3.47175 5.641 4.23975 5.63983C5.0139 5.63866 5.63849 5.01682 5.64895 4.23718C5.65904 3.47277 5.02128 2.82969 4.25131 2.82801ZM4.23003 34.3699C3.45274 34.3699 2.82047 34.9968 2.82047 35.7674C2.82047 36.5378 3.45289 37.1778 4.2195 37.1829C4.99752 37.1881 5.63995 36.5467 5.6371 35.7677C5.63432 34.9913 5.00878 34.3698 4.23003 34.3699ZM19.2249 14.3825C19.2253 15.1559 19.8545 15.7937 20.6214 15.7981C21.3864 15.8025 22.0321 15.1622 22.0345 14.3968C22.0372 13.6096 21.4066 12.9751 20.6247 12.9783C19.845 12.9814 19.2245 13.604 19.2249 14.3825Z" fill="white"/>
<path fill-rule="evenodd" clip-rule="evenodd" d="M44.0687 37.071C44.0356 37.3336 43.93 37.4461 43.7447 37.4307C43.5686 37.416 43.4801 37.2935 43.4799 37.0571C43.4793 35.7339 43.4793 34.4107 43.4799 33.0874C43.4801 32.8381 43.5725 32.7215 43.7672 32.7186C43.9646 32.7157 44.0574 32.8298 44.058 33.0809C44.059 33.5269 44.0583 33.973 44.0583 34.4465C44.4404 34.0179 44.9008 33.9644 45.3879 34.1093C45.869 34.2523 46.0924 34.6319 46.1752 35.1029C46.2694 35.6377 46.2798 36.1739 46.0994 36.6931C45.8046 37.5423 44.6839 37.7597 44.0687 37.071ZM45.636 35.7512C45.6315 35.5249 45.637 35.2981 45.5547 35.0799C45.4329 34.7566 45.1891 34.5825 44.8483 34.5836C44.5025 34.5848 44.2378 34.7663 44.1403 35.1024C44.0173 35.526 44.017 35.9591 44.1328 36.3836C44.2332 36.7521 44.5236 36.9516 44.8806 36.9321C45.2505 36.9118 45.4972 36.6974 45.589 36.3255C45.6358 36.1357 45.6312 35.9436 45.636 35.7512Z" fill="white"/>
<path fill-rule="evenodd" clip-rule="evenodd" d="M41.9361 37.0973C41.5675 37.4498 41.1274 37.5202 40.6511 37.4465C40.0775 37.3577 39.7536 36.9948 39.7691 36.4635C39.7852 35.9148 40.1224 35.5625 40.6988 35.4932C41.0208 35.4545 41.3445 35.4733 41.6674 35.4752C41.7906 35.476 41.8303 35.4461 41.8311 35.3152C41.8341 34.79 41.5558 34.5332 41.0069 34.5685C40.7916 34.5822 40.5873 34.6329 40.3935 34.7278C40.2433 34.8014 40.0985 34.8208 40.0012 34.6503C39.9212 34.5103 39.9798 34.349 40.1613 34.26C40.7063 33.9927 41.2718 33.9533 41.8348 34.187C42.1589 34.3213 42.3179 34.6046 42.3665 34.9454C42.4348 35.4251 42.3911 35.9082 42.3965 36.3898C42.3986 36.5736 42.4281 36.7394 42.5236 36.9001C42.6622 37.1336 42.6421 37.2967 42.4855 37.388C42.3131 37.4886 42.1586 37.4283 42.0109 37.2034C41.9884 37.1694 41.964 37.1367 41.9361 37.0973ZM41.3035 35.9421C41.088 35.9484 40.8462 35.9195 40.6161 36.0215C40.4486 36.0959 40.3573 36.2207 40.341 36.3997C40.3246 36.5826 40.3742 36.7413 40.5321 36.8513C40.817 37.0497 41.4248 36.9915 41.6696 36.7431C41.7943 36.6168 41.9209 36.0936 41.8186 35.9876C41.7093 35.8744 41.5338 35.9639 41.3891 35.9425C41.369 35.9396 41.3479 35.9421 41.3035 35.9421Z" fill="white"/>
<path fill-rule="evenodd" clip-rule="evenodd" d="M49.5961 35.8201C49.5961 35.9925 49.6034 36.1653 49.5943 36.3373C49.5827 36.5509 49.6307 36.742 49.7419 36.9266C49.8643 37.1298 49.8391 37.2929 49.6973 37.3819C49.5321 37.4857 49.3584 37.4386 49.2336 37.2268C49.158 37.0987 49.1177 37.1123 49.0137 37.1985C48.6067 37.536 47.8257 37.5675 47.3789 37.2805C47.0322 37.0577 46.96 36.7213 46.9893 36.3436C47.0161 35.997 47.1919 35.7521 47.5057 35.6061C47.7222 35.5054 47.9533 35.4757 48.1887 35.4729C48.4159 35.4702 48.6436 35.4645 48.8703 35.4757C49.0137 35.4828 49.0429 35.4233 49.0396 35.295C49.0266 34.7783 48.7477 34.5316 48.2099 34.5683C47.9945 34.583 47.7909 34.6361 47.5963 34.7299C47.4473 34.8016 47.2986 34.8204 47.2036 34.6484C47.1274 34.5103 47.1945 34.3448 47.3683 34.2582C47.8859 34.0004 48.4263 33.9619 48.9682 34.1579C49.4146 34.3194 49.5692 34.6962 49.5932 35.1374C49.6053 35.3644 49.5953 35.5925 49.5953 35.8201C49.5955 35.8201 49.5957 35.8201 49.5961 35.8201ZM48.5159 35.9425C48.3038 35.9434 48.0904 35.9273 47.8837 35.9943C47.6712 36.0631 47.5506 36.2111 47.5397 36.4316C47.5305 36.6209 47.6007 36.7801 47.7767 36.8777C47.9003 36.9464 48.0383 36.9697 48.1732 36.9696C48.5981 36.9691 49.0687 36.8434 49.0399 36.208C49.0278 35.9418 49.0387 35.9412 48.7627 35.9418C48.6803 35.942 48.598 35.9419 48.5159 35.9425Z" fill="white"/>
<path fill-rule="evenodd" clip-rule="evenodd" d="M28.0674 35.6847C28.4834 35.215 28.8658 34.7834 29.2481 34.3517C29.2892 34.3054 29.3291 34.2578 29.3721 34.2133C29.5115 34.0691 29.6767 34.0448 29.7884 34.1503C29.8908 34.2471 29.8786 34.4143 29.752 34.5554C29.5589 34.7704 29.3694 34.9894 29.164 35.192C29.0527 35.3018 29.0363 35.3758 29.1278 35.5153C29.4369 35.986 29.7283 36.4685 30.0232 36.9484C30.1429 37.1432 30.1157 37.309 29.9598 37.3942C29.8046 37.4791 29.6469 37.4227 29.5303 37.2332C29.2604 36.7944 28.9936 36.3536 28.7242 35.9144C28.6964 35.869 28.6815 35.8119 28.6191 35.7847C28.4604 35.9622 28.3029 36.1439 28.1385 36.3191C28.0812 36.3801 28.0645 36.443 28.0661 36.5227C28.0701 36.7225 28.0709 36.9224 28.0664 37.1222C28.0619 37.3133 27.9497 37.4301 27.7803 37.4313C27.6103 37.4325 27.4906 37.3158 27.4902 37.1259C27.4876 35.7617 27.4878 34.3974 27.4899 33.0332C27.4903 32.8267 27.6053 32.7132 27.7888 32.7187C27.9645 32.7239 28.0656 32.8311 28.0664 33.0331C28.0689 33.8668 28.0674 34.7006 28.0674 35.5342C28.0674 35.5673 28.0674 35.6004 28.0674 35.6847Z" fill="white"/>
<path fill-rule="evenodd" clip-rule="evenodd" d="M55.529 35.7735C55.3592 35.963 55.2013 36.1447 55.0367 36.3199C54.9789 36.3814 54.9653 36.4463 54.9666 36.5252C54.9699 36.7251 54.9722 36.9252 54.9663 37.125C54.9606 37.317 54.8455 37.4327 54.6759 37.4311C54.5055 37.4294 54.3907 37.3135 54.3903 37.1216C54.3881 35.7564 54.3881 34.3914 54.3903 33.0262C54.3906 32.8267 54.4964 32.7195 54.6731 32.7186C54.8583 32.7177 54.966 32.8287 54.9667 33.0387C54.9692 33.8384 54.9678 34.6382 54.9678 35.4379C54.9678 35.504 54.9678 35.57 54.9678 35.6829C55.377 35.2209 55.7533 34.7956 56.1302 34.3707C56.1895 34.3037 56.2474 34.235 56.3116 34.173C56.4264 34.0622 56.5639 34.0406 56.6802 34.1503C56.7959 34.2596 56.7847 34.4 56.6791 34.5187C56.4642 34.7603 56.2484 35.0014 56.0243 35.2342C55.9421 35.3195 55.9416 35.3793 56.0041 35.4771C56.3149 35.9638 56.6176 36.4558 56.9227 36.9461C57.0152 37.0944 57.0465 37.2438 56.894 37.3708C56.7506 37.4902 56.5609 37.44 56.4434 37.2508C56.1786 36.8243 55.9195 36.3943 55.6572 35.9663C55.6186 35.9034 55.5755 35.8432 55.529 35.7735Z" fill="white"/>
<path fill-rule="evenodd" clip-rule="evenodd" d="M51.3027 34.4168C51.5168 34.1746 51.7915 34.0548 52.1139 34.0455C52.8092 34.0256 53.2782 34.4331 53.3055 35.1298C53.3317 35.7973 53.3165 36.4664 53.3127 37.1347C53.3116 37.3217 53.1842 37.436 53.0128 37.4312C52.8441 37.4267 52.7379 37.3095 52.7371 37.1134C52.7346 36.5897 52.7366 36.0659 52.7357 35.5422C52.7356 35.4527 52.7363 35.3626 52.7266 35.2738C52.6769 34.8168 52.4101 34.5697 51.9865 34.5842C51.5712 34.5984 51.279 34.8956 51.2718 35.336C51.2626 35.8803 51.2706 36.4247 51.2691 36.9691C51.2689 37.0513 51.2664 37.1353 51.2495 37.2151C51.2202 37.3545 51.12 37.4259 50.9835 37.4288C50.8492 37.4316 50.7413 37.375 50.7043 37.2328C50.6889 37.1737 50.6782 37.1115 50.678 37.0506C50.6764 36.1892 50.6762 35.3279 50.6783 34.4664C50.6785 34.399 50.6896 34.3289 50.7102 34.2647C50.7515 34.1362 50.852 34.0867 50.9812 34.0867C51.1045 34.0867 51.1875 34.1478 51.2411 34.256C51.2648 34.3043 51.2392 34.3688 51.3027 34.4168Z" fill="white"/>
<path fill-rule="evenodd" clip-rule="evenodd" d="M32.8082 37.075C32.5325 37.4014 32.176 37.5129 31.7711 37.4614C31.1859 37.387 30.8293 37.0078 30.8053 36.3883C30.7794 35.7207 30.7935 35.0513 30.7972 34.3828C30.7982 34.1924 30.9203 34.0833 31.0957 34.0868C31.2714 34.0902 31.3716 34.1981 31.3726 34.3993C31.3753 34.9163 31.3721 35.4333 31.3746 35.9502C31.3752 36.0736 31.3781 36.1989 31.3989 36.32C31.4699 36.7333 31.735 36.9545 32.1202 36.933C32.5161 36.9109 32.805 36.6352 32.8161 36.2286C32.8321 35.6363 32.8251 35.0433 32.8256 34.4506C32.8256 34.337 32.8351 34.23 32.9289 34.1505C33.0164 34.0763 33.1179 34.0673 33.22 34.1035C33.3337 34.1437 33.3998 34.2292 33.4022 34.353C33.4055 34.5184 33.4049 34.6838 33.4049 34.8492C33.4052 35.573 33.4053 36.2968 33.4049 37.0205C33.4046 37.2957 33.3247 37.4163 33.1359 37.4307C32.9568 37.4443 32.8605 37.3424 32.8082 37.075Z" fill="white"/>
<path fill-rule="evenodd" clip-rule="evenodd" d="M37.7563 35.2202C37.9844 34.8939 38.2014 34.5844 38.4169 34.2742C38.4772 34.1875 38.5433 34.1089 38.6537 34.0899C38.7558 34.0723 38.8465 34.0971 38.9098 34.1847C38.9937 34.3009 38.9772 34.4169 38.8991 34.5286C38.6667 34.8611 38.4409 35.1988 38.1969 35.5226C38.0989 35.6525 38.113 35.7361 38.205 35.8586C38.457 36.1939 38.694 36.5404 38.9365 36.8827C38.9642 36.922 38.9923 36.9613 39.0152 37.0035C39.0936 37.1484 39.092 37.2904 38.947 37.3856C38.8046 37.479 38.6644 37.4377 38.5665 37.3036C38.3435 36.998 38.1283 36.687 37.9098 36.3782C37.8624 36.3111 37.8147 36.2442 37.7556 36.161C37.5092 36.509 37.272 36.8443 37.0343 37.1793C36.9985 37.2297 36.9639 37.2817 36.9219 37.3265C36.8141 37.4408 36.6851 37.4753 36.5533 37.3784C36.4211 37.2813 36.4124 37.142 36.4938 37.0108C36.6023 36.8358 36.726 36.6701 36.8448 36.5016C37.0034 36.2767 37.1591 36.0496 37.3249 35.8303C37.4013 35.7293 37.4136 35.659 37.3293 35.5471C37.0936 35.2343 36.8747 34.9087 36.6516 34.5865C36.5119 34.3848 36.5147 34.232 36.6543 34.1319C36.7967 34.0297 36.9679 34.0846 37.1047 34.2805C37.3201 34.5887 37.5334 34.8985 37.7563 35.2202Z" fill="white"/>
<path fill-rule="evenodd" clip-rule="evenodd" d="M34.5894 35.7071C34.5894 35.4039 34.5813 35.1003 34.5927 34.7974C34.5988 34.6388 34.5606 34.578 34.3889 34.5857C34.1602 34.596 34.0463 34.4227 34.1385 34.2416C34.1905 34.1396 34.2819 34.1105 34.3808 34.1236C34.5629 34.1477 34.6044 34.0644 34.5922 33.9005C34.5796 33.7291 34.5873 33.556 34.5897 33.3837C34.5928 33.1675 34.6919 33.0535 34.872 33.0532C35.0444 33.0528 35.1608 33.177 35.1668 33.382C35.1727 33.5817 35.1728 33.7819 35.1661 33.9815C35.1626 34.0869 35.1925 34.1322 35.3044 34.1231C35.4139 34.1142 35.5246 34.1194 35.6346 34.1224C35.7906 34.1267 35.8801 34.2031 35.8766 34.3655C35.8733 34.5184 35.7847 34.5862 35.6385 34.5898C35.6316 34.59 35.6247 34.5893 35.6178 34.5902C35.4717 34.6092 35.2757 34.5193 35.1913 34.6351C35.1216 34.7309 35.169 34.914 35.1686 35.0584C35.1674 35.5133 35.1672 35.9683 35.1684 36.4232C35.1693 36.8009 35.227 36.8622 35.6048 36.8936C35.8017 36.9101 35.8878 37.0005 35.8775 37.1777C35.8679 37.3377 35.7668 37.4185 35.6242 37.4263C35.0091 37.4604 34.5777 37.289 34.5887 36.5341C34.5927 36.2587 34.5894 35.9829 34.5894 35.7071Z" fill="white"/>
<path fill-rule="evenodd" clip-rule="evenodd" d="M22.5299 35.7876C22.5345 36.7273 21.7667 37.5019 20.8292 37.5035C19.8923 37.5051 19.1278 36.7413 19.1182 35.7941C19.1088 34.8754 19.8848 34.0961 20.8118 34.0931C21.7579 34.09 22.5252 34.8469 22.5299 35.7876Z" fill="#E1001B"/>
<path fill-rule="evenodd" clip-rule="evenodd" d="M4.25107 2.82801C5.02105 2.82976 5.65881 3.47284 5.64864 4.23718C5.63818 5.01682 5.01359 5.63866 4.23945 5.63983C3.47145 5.641 2.83069 5.00378 2.82813 4.23644C2.82565 3.45695 3.46282 2.82625 4.25107 2.82801Z" fill="black"/>
<path fill-rule="evenodd" clip-rule="evenodd" d="M4.22995 34.3699C5.00862 34.3698 5.63424 34.9913 5.63695 35.7677C5.6398 36.5467 4.99736 37.1881 4.21934 37.1829C3.4528 37.1778 2.82031 36.5378 2.82031 35.7674C2.82039 34.9968 3.45266 34.3699 4.22995 34.3699Z" fill="black"/>
<path fill-rule="evenodd" clip-rule="evenodd" d="M19.2246 14.3825C19.2242 13.604 19.8447 12.9814 20.6244 12.9783C21.4063 12.9751 22.0369 13.6096 22.0342 14.3968C22.0318 15.1623 21.3861 15.8025 20.6211 15.7981C19.8542 15.7937 19.225 15.1559 19.2246 14.3825Z" fill="black"/>
</g>
<defs>
<clipPath id="clip0_358_2881">
<rect width="57" height="40" fill="white"/>
</clipPath>
</defs>
</svg>
