<?xml version="1.0" encoding="UTF-8" standalone="no"?>
<!-- Generator: Adobe Illustrator 16.0.0, SVG Export Plug-In . SVG Version: 6.00 Build 0)  -->

<svg
   xmlns:dc="http://purl.org/dc/elements/1.1/"
   xmlns:cc="http://creativecommons.org/ns#"
   xmlns:rdf="http://www.w3.org/1999/02/22-rdf-syntax-ns#"
   xmlns:svg="http://www.w3.org/2000/svg"
   xmlns="http://www.w3.org/2000/svg"
   xmlns:sodipodi="http://sodipodi.sourceforge.net/DTD/sodipodi-0.dtd"
   xmlns:inkscape="http://www.inkscape.org/namespaces/inkscape"
   version="1.1"
   id="Capa_1"
   x="0px"
   y="0px"
   width="779.44519"
   height="546.25061"
   viewBox="0 0 779.44519 546.25061"
   enable-background="new 0 0 926 646"
   xml:space="preserve"
   sodipodi:docname="Kutxabank.svg"
   inkscape:version="0.92.2 5c3e80d, 2017-08-06"><metadata
     id="metadata44"><rdf:RDF><cc:Work
         rdf:about=""><dc:format>image/svg+xml</dc:format><dc:type
           rdf:resource="http://purl.org/dc/dcmitype/StillImage" /><dc:title></dc:title></cc:Work></rdf:RDF></metadata><defs
     id="defs42" /><sodipodi:namedview
     pagecolor="#ffffff"
     bordercolor="#666666"
     borderopacity="1"
     objecttolerance="10"
     gridtolerance="10"
     guidetolerance="10"
     inkscape:pageopacity="0"
     inkscape:pageshadow="2"
     inkscape:window-width="1440"
     inkscape:window-height="757"
     id="namedview40"
     showgrid="false"
     fit-margin-top="0"
     fit-margin-left="0"
     fit-margin-right="0"
     fit-margin-bottom="0"
     inkscape:zoom="0.73065015"
     inkscape:cx="273.13423"
     inkscape:cy="192.12993"
     inkscape:window-x="0"
     inkscape:window-y="1"
     inkscape:window-maximized="1"
     inkscape:current-layer="Capa_1" /><g
     id="_x37_LjQu9_1_"
     transform="translate(-73.276573,-49.877965)"><g
       id="g36"><path
         d="m 189.554,337.33 c 6.59,-6.328 13.35,-12.553 19.811,-19.075 14.639,-14.78 29.125,-29.714 43.686,-44.572 19.371,-19.765 38.652,-39.62 58.18,-59.231 9.863,-9.908 21.49,-17.012 35.498,-19.525 28.174,-5.055 58.84,14.185 60.875,46.998 1.053,17 -4.344,31.938 -16.457,44.025 -23.189,23.142 -46.562,46.104 -69.959,69.037 -1.637,1.604 -1.406,2.483 -0.428,4.169 28.141,48.488 56.242,96.999 84.314,145.528 7.094,12.26 11.412,25.294 10.676,39.688 -1.584,30.978 -28.312,54.167 -59.227,51.556 -22.83,-1.93 -39.352,-13.615 -50.348,-33.079 -22.811,-40.376 -45.201,-80.991 -67.766,-121.507 -1.645,-2.956 -1.625,-2.936 -3.992,-0.597 -14.334,14.157 -28.664,28.318 -43.041,42.43 -1.309,1.285 -1.875,2.581 -1.867,4.429 0.066,15.726 0.152,31.454 0.012,47.179 -0.152,16.928 -4.713,32.346 -16.803,44.771 -11.65,11.971 -26.266,16.893 -42.662,16.467 -16.709,-0.436 -31.24,-6.273 -42.34,-19.205 -9.578,-11.157 -13.895,-24.43 -14.227,-38.918 -0.35,-15.247 -0.162,-30.507 -0.162,-45.761 -0.006,-126.661 0.002,-253.32 -0.006,-379.981 0,-14.346 3.033,-27.854 11.645,-39.583 11.988,-16.33 28.721,-23.22 48.504,-22.664 29.898,0.84 51.717,21.146 55.318,50.778 0.512,4.212 0.758,8.426 0.758,12.66 0.006,73.831 0.002,147.661 0.021,221.491 0,0.966 -0.324,2.009 -0.013,2.492 z m 191.81,201.273 C 381.3,525.756 370.807,515.42 357.87,515.462 c -12.676,0.041 -23.287,10.683 -23.158,23.229 0.131,12.936 10.586,23.366 23.396,23.345 12.821,-0.022 23.321,-10.6 23.256,-23.433 z M 131.411,88.498 c -10.779,-0.023 -19.492,8.589 -19.457,19.234 0.035,10.479 8.797,19.181 19.299,19.165 10.586,-0.016 19.127,-8.508 19.27,-19.155 0.138,-10.439 -8.583,-19.221 -19.112,-19.244 z m -0.291,430.744 c -10.629,0 -19.275,8.561 -19.275,19.085 0,10.521 8.648,19.261 19.131,19.33 10.639,0.071 19.424,-8.688 19.385,-19.326 -0.038,-10.602 -8.592,-19.09 -19.241,-19.089 z M 336.167,246.289 c 0.006,10.562 8.609,19.272 19.096,19.332 10.461,0.06 19.291,-8.684 19.324,-19.136 0.037,-10.751 -8.586,-19.415 -19.279,-19.372 -10.661,0.043 -19.147,8.545 -19.141,19.176 z"
         id="path2"
         inkscape:connector-curvature="0"
         style="clip-rule:evenodd;fill:#0d0d0d;fill-rule:evenodd" /><path
         d="m 675.899,556.129 c -0.453,3.587 -1.896,5.123 -4.43,4.912 -2.408,-0.2 -3.619,-1.873 -3.621,-5.102 -0.008,-18.07 -0.008,-36.14 0,-54.21 0.002,-3.405 1.266,-4.997 3.928,-5.037 2.699,-0.04 3.969,1.518 3.977,4.947 0.014,6.091 0.004,12.183 0.004,18.649 5.225,-5.852 11.521,-6.583 18.182,-4.605 6.578,1.954 9.633,7.138 10.766,13.57 1.287,7.303 1.43,14.625 -1.037,21.716 -4.032,11.597 -19.356,14.565 -27.769,5.16 z m 21.432,-18.023 c -0.061,-3.091 0.014,-6.188 -1.111,-9.167 -1.666,-4.415 -5,-6.793 -9.66,-6.778 -4.729,0.016 -8.348,2.495 -9.682,7.085 -1.682,5.784 -1.686,11.699 -0.102,17.496 1.373,5.033 5.344,7.757 10.225,7.49 5.059,-0.277 8.432,-3.205 9.688,-8.284 0.64,-2.591 0.576,-5.214 0.642,-7.842 z"
         id="path4"
         inkscape:connector-curvature="0"
         style="clip-rule:evenodd;fill:#0d0d0d;fill-rule:evenodd" /><path
         d="m 646.729,556.488 c -5.041,4.814 -11.059,5.775 -17.572,4.769 -7.844,-1.212 -12.273,-6.168 -12.061,-13.424 0.221,-7.493 4.832,-12.304 12.713,-13.25 4.404,-0.529 8.83,-0.272 13.246,-0.246 1.684,0.01 2.227,-0.398 2.238,-2.185 0.041,-7.173 -3.764,-10.679 -11.271,-10.198 -2.943,0.188 -5.738,0.88 -8.387,2.176 -2.055,1.005 -4.035,1.27 -5.365,-1.058 -1.094,-1.912 -0.293,-4.115 2.189,-5.331 7.453,-3.65 15.186,-4.188 22.885,-0.997 4.432,1.835 6.605,5.703 7.27,10.357 0.934,6.551 0.336,13.149 0.41,19.725 0.029,2.511 0.432,4.775 1.738,6.97 1.896,3.188 1.621,5.416 -0.521,6.663 -2.357,1.373 -4.469,0.549 -6.49,-2.522 -0.307,-0.464 -0.641,-0.91 -1.022,-1.449 z m -8.65,-15.775 c -2.947,0.086 -6.254,-0.309 -9.4,1.084 -2.291,1.016 -3.539,2.721 -3.762,5.165 -0.225,2.497 0.453,4.665 2.613,6.167 3.895,2.71 12.207,1.915 15.555,-1.477 1.705,-1.726 3.436,-8.87 2.037,-10.318 -1.494,-1.546 -3.895,-0.324 -5.873,-0.616 -0.275,-0.04 -0.564,-0.005 -1.17,-0.005 z"
         id="path6"
         inkscape:connector-curvature="0"
         style="clip-rule:evenodd;fill:#0d0d0d;fill-rule:evenodd" /><path
         d="m 751.474,539.047 c 0,2.354 0.1,4.714 -0.025,7.062 -0.158,2.918 0.498,5.527 2.018,8.048 1.674,2.775 1.33,5.002 -0.609,6.218 -2.26,1.417 -4.635,0.774 -6.342,-2.118 -1.033,-1.75 -1.584,-1.564 -3.006,-0.386 -5.566,4.609 -16.246,5.038 -22.355,1.119 -4.742,-3.043 -5.729,-7.637 -5.328,-12.795 0.367,-4.733 2.77,-8.077 7.061,-10.071 2.961,-1.375 6.121,-1.781 9.34,-1.819 3.107,-0.037 6.221,-0.115 9.32,0.038 1.961,0.097 2.361,-0.715 2.316,-2.467 -0.178,-7.057 -3.992,-10.425 -11.346,-9.924 -2.945,0.201 -5.729,0.926 -8.391,2.207 -2.037,0.979 -4.07,1.235 -5.369,-1.114 -1.043,-1.885 -0.125,-4.146 2.252,-5.328 7.078,-3.521 14.467,-4.046 21.877,-1.37 6.104,2.206 8.219,7.351 8.547,13.377 0.166,3.099 0.029,6.214 0.029,9.322 0.003,10e-4 0.005,10e-4 0.011,10e-4 z m -14.772,1.671 c -2.9,0.012 -5.818,-0.208 -8.645,0.707 -2.906,0.94 -4.555,2.961 -4.703,5.973 -0.127,2.585 0.834,4.758 3.24,6.092 1.691,0.938 3.578,1.256 5.422,1.254 5.811,-0.006 12.246,-1.723 11.852,-10.4 -0.166,-3.636 -0.016,-3.643 -3.791,-3.635 -1.127,0.003 -2.252,0.001 -3.375,0.009 z"
         id="path8"
         inkscape:connector-curvature="0"
         style="clip-rule:evenodd;fill:#0d0d0d;fill-rule:evenodd" /><path
         d="m 457.085,537.198 c 5.689,-6.414 10.918,-12.309 16.146,-18.204 0.562,-0.633 1.107,-1.282 1.695,-1.89 1.906,-1.969 4.166,-2.301 5.693,-0.86 1.4,1.322 1.234,3.605 -0.498,5.532 -2.641,2.936 -5.232,5.927 -8.041,8.694 -1.521,1.499 -1.746,2.509 -0.494,4.414 4.227,6.429 8.211,13.017 12.244,19.571 1.637,2.66 1.264,4.924 -0.867,6.088 -2.123,1.159 -4.279,0.39 -5.873,-2.198 -3.691,-5.993 -7.34,-12.012 -11.023,-18.01 -0.381,-0.62 -0.584,-1.4 -1.438,-1.772 -2.17,2.424 -4.324,4.906 -6.572,7.298 -0.783,0.833 -1.012,1.692 -0.99,2.781 0.055,2.728 0.066,5.458 0.004,8.186 -0.061,2.61 -1.596,4.206 -3.912,4.222 -2.324,0.016 -3.961,-1.577 -3.967,-4.171 -0.035,-18.63 -0.033,-37.261 -0.004,-55.891 0.006,-2.82 1.578,-4.37 4.088,-4.295 2.402,0.071 3.785,1.535 3.795,4.294 0.035,11.385 0.014,22.771 0.014,34.156 0,0.452 0,0.904 0,2.055 z"
         id="path10"
         inkscape:connector-curvature="0"
         style="clip-rule:evenodd;fill:#0d0d0d;fill-rule:evenodd" /><path
         d="m 832.604,538.411 c -2.322,2.587 -4.482,5.068 -6.732,7.461 -0.791,0.84 -0.977,1.726 -0.959,2.804 0.045,2.73 0.076,5.463 -0.004,8.191 -0.078,2.622 -1.652,4.202 -3.971,4.18 -2.33,-0.023 -3.9,-1.606 -3.906,-4.227 -0.029,-18.643 -0.029,-37.284 0,-55.927 0.004,-2.725 1.451,-4.189 3.867,-4.201 2.533,-0.012 4.006,1.504 4.016,4.371 0.033,10.921 0.014,21.843 0.014,32.765 0,0.902 0,1.804 0,3.345 5.596,-6.309 10.742,-12.117 15.896,-17.92 0.811,-0.914 1.602,-1.853 2.48,-2.699 1.57,-1.514 3.451,-1.808 5.041,-0.31 1.582,1.492 1.428,3.41 -0.016,5.031 -2.938,3.299 -5.889,6.591 -8.953,9.77 -1.125,1.166 -1.131,1.982 -0.277,3.318 4.25,6.646 8.389,13.365 12.562,20.061 1.264,2.025 1.693,4.065 -0.393,5.799 -1.961,1.631 -4.555,0.946 -6.162,-1.638 -3.621,-5.824 -7.164,-11.697 -10.75,-17.542 -0.528,-0.859 -1.118,-1.681 -1.753,-2.632 z"
         id="path12"
         inkscape:connector-curvature="0"
         style="clip-rule:evenodd;fill:#0d0d0d;fill-rule:evenodd" /><path
         d="m 774.813,519.883 c 2.928,-3.307 6.684,-4.944 11.092,-5.07 9.508,-0.272 15.922,5.293 16.295,14.807 0.359,9.115 0.15,18.253 0.098,27.38 -0.014,2.553 -1.756,4.114 -4.1,4.049 -2.307,-0.062 -3.76,-1.663 -3.771,-4.341 -0.033,-7.152 -0.006,-14.304 -0.018,-21.456 -0.002,-1.222 0.008,-2.453 -0.125,-3.665 -0.68,-6.242 -4.328,-9.616 -10.121,-9.418 -5.678,0.194 -9.674,4.253 -9.773,10.267 -0.125,7.433 -0.016,14.868 -0.037,22.302 -0.002,1.122 -0.037,2.269 -0.268,3.359 -0.4,1.904 -1.77,2.879 -3.637,2.918 -1.836,0.039 -3.312,-0.734 -3.818,-2.676 -0.211,-0.807 -0.357,-1.657 -0.359,-2.488 -0.023,-11.763 -0.025,-23.526 0.004,-35.29 0.002,-0.921 0.154,-1.878 0.436,-2.755 0.564,-1.755 1.939,-2.431 3.705,-2.431 1.686,0 2.822,0.835 3.555,2.312 0.323,0.659 -0.027,1.541 0.842,2.196 z"
         id="path14"
         inkscape:connector-curvature="0"
         style="clip-rule:evenodd;fill:#0d0d0d;fill-rule:evenodd" /><path
         d="m 521.907,556.184 c -3.771,4.458 -8.645,5.98 -14.182,5.277 -8.002,-1.016 -12.879,-6.195 -13.207,-14.655 -0.354,-9.117 -0.162,-18.258 -0.111,-27.387 0.014,-2.601 1.684,-4.09 4.082,-4.043 2.402,0.047 3.773,1.52 3.787,4.268 0.037,7.06 -0.008,14.12 0.027,21.18 0.008,1.685 0.047,3.396 0.332,5.049 0.971,5.645 4.596,8.666 9.863,8.372 5.414,-0.302 9.365,-4.067 9.516,-9.619 0.219,-8.089 0.123,-16.188 0.131,-24.281 0,-1.552 0.129,-3.013 1.412,-4.099 1.197,-1.013 2.584,-1.136 3.98,-0.642 1.555,0.55 2.459,1.717 2.492,3.408 0.045,2.258 0.037,4.517 0.037,6.776 0.004,9.884 0.006,19.769 0,29.652 -0.004,3.758 -1.096,5.405 -3.678,5.601 -2.45,0.186 -3.766,-1.206 -4.481,-4.857 z"
         id="path16"
         inkscape:connector-curvature="0"
         style="clip-rule:evenodd;fill:#0d0d0d;fill-rule:evenodd" /><path
         d="m 589.575,530.854 c 3.119,-4.456 6.086,-8.682 9.033,-12.919 0.824,-1.184 1.729,-2.257 3.238,-2.516 1.396,-0.24 2.637,0.098 3.502,1.294 1.148,1.587 0.922,3.171 -0.146,4.697 -3.178,4.541 -6.266,9.152 -9.602,13.574 -1.34,1.774 -1.148,2.915 0.111,4.589 3.445,4.578 6.686,9.311 10.002,13.985 0.379,0.536 0.764,1.074 1.076,1.649 1.072,1.979 1.051,3.919 -0.932,5.218 -1.947,1.276 -3.865,0.712 -5.203,-1.119 -3.049,-4.173 -5.992,-8.421 -8.98,-12.638 -0.648,-0.916 -1.301,-1.83 -2.109,-2.966 -3.369,4.752 -6.613,9.332 -9.863,13.906 -0.49,0.688 -0.963,1.399 -1.537,2.01 -1.475,1.562 -3.238,2.032 -5.041,0.71 -1.807,-1.327 -1.926,-3.229 -0.814,-5.021 1.484,-2.39 3.176,-4.653 4.801,-6.954 2.168,-3.071 4.297,-6.172 6.564,-9.167 1.045,-1.379 1.213,-2.339 0.061,-3.867 -3.223,-4.272 -6.217,-8.719 -9.268,-13.119 -1.91,-2.754 -1.871,-4.841 0.037,-6.208 1.947,-1.396 4.289,-0.646 6.16,2.029 2.945,4.21 5.861,8.44 8.91,12.833 z"
         id="path18"
         inkscape:connector-curvature="0"
         style="clip-rule:evenodd;fill:#0d0d0d;fill-rule:evenodd" /><path
         d="m 546.267,537.504 c 0,-4.141 -0.111,-8.287 0.045,-12.423 0.084,-2.167 -0.439,-2.996 -2.787,-2.891 -3.127,0.14 -4.684,-2.227 -3.424,-4.7 0.711,-1.393 1.961,-1.79 3.314,-1.611 2.49,0.329 3.057,-0.808 2.891,-3.047 -0.172,-2.34 -0.068,-4.704 -0.035,-7.057 0.043,-2.953 1.398,-4.509 3.861,-4.514 2.357,-0.005 3.949,1.691 4.031,4.49 0.08,2.727 0.082,5.461 -0.01,8.188 -0.047,1.439 0.361,2.057 1.891,1.933 1.498,-0.121 3.012,-0.05 4.516,-0.009 2.133,0.058 3.357,1.101 3.309,3.319 -0.045,2.088 -1.256,3.014 -3.256,3.063 -0.094,0.003 -0.189,-0.006 -0.283,0.006 -1.998,0.259 -4.678,-0.968 -5.832,0.613 -0.953,1.309 -0.305,3.809 -0.311,5.781 -0.016,6.212 -0.018,12.425 -0.002,18.638 0.012,5.158 0.801,5.995 5.967,6.424 2.693,0.225 3.871,1.459 3.729,3.879 -0.131,2.186 -1.514,3.289 -3.463,3.396 -8.412,0.465 -14.311,-1.875 -14.16,-12.184 0.054,-3.762 0.009,-7.528 0.009,-11.294 z"
         id="path20"
         inkscape:connector-curvature="0"
         style="clip-rule:evenodd;fill:#0d0d0d;fill-rule:evenodd" /><path
         d="m 381.364,538.603 c 0.064,12.833 -10.436,23.411 -23.256,23.433 -12.811,0.021 -23.266,-10.409 -23.396,-23.345 -0.129,-12.546 10.482,-23.188 23.158,-23.229 12.938,-0.042 23.43,10.294 23.494,23.141 z"
         id="path22"
         inkscape:connector-curvature="0"
         style="clip-rule:evenodd;fill:#e1001b;fill-rule:evenodd" /><path
         d="m 131.411,88.498 c 10.529,0.024 19.25,8.806 19.111,19.244 -0.143,10.647 -8.684,19.139 -19.27,19.155 -10.502,0.016 -19.264,-8.686 -19.299,-19.165 -0.034,-10.645 8.679,-19.258 19.458,-19.234 z"
         id="path24"
         inkscape:connector-curvature="0"
         style="clip-rule:evenodd;fill:#ffffff;fill-rule:evenodd" /><path
         d="m 131.12,519.242 c 10.648,-10e-4 19.203,8.487 19.24,19.089 0.039,10.639 -8.746,19.397 -19.385,19.326 -10.482,-0.069 -19.131,-8.809 -19.131,-19.33 0.001,-10.524 8.647,-19.085 19.276,-19.085 z"
         id="path26"
         inkscape:connector-curvature="0"
         style="clip-rule:evenodd;fill:#ffffff;fill-rule:evenodd" /><path
         d="m 336.167,246.289 c -0.006,-10.631 8.48,-19.133 19.141,-19.176 10.693,-0.043 19.316,8.621 19.279,19.372 -0.033,10.453 -8.863,19.196 -19.324,19.136 -10.487,-0.06 -19.09,-8.77 -19.096,-19.332 z"
         id="path28"
         inkscape:connector-curvature="0"
         style="clip-rule:evenodd;fill:#ffffff;fill-rule:evenodd" /><path
         d="m 697.329,538.108 c -0.064,2.626 0,5.249 -0.641,7.84 -1.256,5.079 -4.629,8.007 -9.688,8.284 -4.881,0.267 -8.852,-2.458 -10.225,-7.49 -1.584,-5.797 -1.58,-11.712 0.102,-17.496 1.334,-4.59 4.953,-7.069 9.682,-7.085 4.66,-0.015 7.994,2.363 9.66,6.778 1.126,2.979 1.052,6.076 1.11,9.169 z"
         id="path30"
         inkscape:connector-curvature="0"
         style="clip-rule:evenodd;fill:#ffffff;fill-rule:evenodd" /><path
         d="m 638.079,540.713 c 0.605,0 0.895,-0.035 1.17,0.005 1.979,0.292 4.379,-0.931 5.873,0.616 1.398,1.448 -0.332,8.592 -2.037,10.318 -3.348,3.392 -11.66,4.187 -15.555,1.477 -2.16,-1.502 -2.838,-3.67 -2.613,-6.167 0.223,-2.444 1.471,-4.149 3.762,-5.165 3.146,-1.393 6.453,-0.998 9.4,-1.084 z"
         id="path32"
         inkscape:connector-curvature="0"
         style="clip-rule:evenodd;fill:#ffffff;fill-rule:evenodd" /><path
         d="m 736.702,540.714 c 1.123,-0.004 2.248,-0.002 3.375,-0.004 3.775,-0.007 3.625,-0.001 3.791,3.635 0.395,8.677 -6.041,10.394 -11.852,10.4 -1.844,10e-4 -3.73,-0.316 -5.422,-1.254 -2.406,-1.334 -3.367,-3.507 -3.24,-6.092 0.148,-3.012 1.797,-5.033 4.703,-5.973 2.827,-0.916 5.745,-0.696 8.645,-0.712 z"
         id="path34"
         inkscape:connector-curvature="0"
         style="clip-rule:evenodd;fill:#ffffff;fill-rule:evenodd" /></g></g></svg>