<svg width="240" height="40" viewBox="0 0 240 40" fill="none" xmlns="http://www.w3.org/2000/svg">
<path d="M239.734 6.26667H216.934C214.401 6.26667 212.134 8.13333 211.867 10.6667C211.467 14.1333 208.801 16.1333 205.601 16.2667C202.134 16.2667 199.334 13.4667 199.334 10C199.334 6.53333 202.134 3.73333 205.601 3.73333C207.867 3.73333 209.867 4.93333 210.934 6.8C211.067 6.93333 211.201 6.93333 211.334 6.8C212.001 6 212.801 5.33333 213.734 4.93333C213.867 4.93333 213.867 4.66667 213.867 4.53333C212.134 1.86666 209.067 0.133331 205.601 0.133331C200.134 0.133331 195.734 4.53333 195.601 10.1333C195.601 15.6 200.001 20.1333 205.601 20.1333C210.667 20 214.934 16.6667 215.467 11.3333C215.601 10.6667 216.134 10.1333 216.934 10.1333H236.401V12.8C236.401 14.2667 236.001 16.4 234.134 16.4C232.267 16.4 231.867 14.2667 231.867 12.8V12C231.867 11.8667 231.734 11.7333 231.601 11.7333H228.401C228.267 11.7333 228.134 11.8667 228.134 12V12.6667C228.134 14.1333 227.734 16.2667 225.867 16.2667C224.001 16.2667 223.601 14.1333 223.601 12.6667V12C223.601 11.8667 223.467 11.7333 223.334 11.7333H220.134C220.001 11.7333 219.867 11.8667 219.867 12V12.6667C219.867 16.2667 221.867 19.8667 225.734 19.8667C227.334 19.8667 228.801 19.2 229.734 18C230.801 19.2 232.134 19.8667 233.734 19.8667C237.734 19.8667 239.601 16.1333 239.601 12.6667V6.53333C240.134 6.4 240.001 6.26667 239.734 6.26667Z" fill="white"/>
<path d="M67.8667 9.6C61.7333 9.6 57.6 14 57.6 20.5333C57.6 27.0667 62 31.4667 68.2667 31.4667C71.3333 31.4667 74.1333 30.8 76.6667 28.6667C76.8 28.5333 76.8 28.4 76.6667 28.4L74.6667 25.6C74.5333 25.4667 74.4 25.4667 74.2667 25.6C72.5333 26.9333 70.5333 27.6 68.5333 27.6C64.5333 27.6 62.1333 24.6667 62.1333 20.9333C62.1333 17.3333 63.8667 13.8667 67.8667 13.8667C70.8 13.8667 72.6667 15.7333 73.0667 18.9333H64.4C64.2667 18.9333 64.1333 19.0667 64.1333 19.0667C64 20 64 21.0667 64.1333 22.1333C64.1333 22.2667 64.2667 22.2667 64.4 22.2667H77.3333C77.4667 22.2667 77.6 22.1333 77.6 22V20.5333C77.6 14 73.6 9.6 67.8667 9.6ZM45.4667 9.6C42.5333 9.6 40.4 10.8 38.9333 12.6667V10.2667C38.9333 10.1333 38.8 10 38.6667 10H34.6667C34.5333 10 34.4 10.1333 34.4 10.2667V39.7333C34.4 39.8667 34.5333 40 34.6667 40H38.6667C38.8 40 38.9333 39.8667 38.9333 39.7333V19.3333C38.9333 16.1333 41.8667 13.8667 44.9333 13.8667C48.8 13.8667 51.2 16.9333 51.2 20.5333C51.2 24.1333 48.8 27.2 44.9333 27.2C43.6 27.2 42.2667 26.8 41.3333 26.1333C41.2 26 40.9333 26.1333 40.9333 26.2667V30C40.9333 30.1333 41.0667 30.2667 41.2 30.4C42.4 31.0667 43.7333 31.4667 45.4667 31.4667C51.2 31.4667 55.8667 26.9333 55.8667 20.5333C55.8667 14.1333 51.2 9.6 45.4667 9.6ZM91.2 9.6C89.0667 9.6 86.5333 10.2667 84.9333 12.6667V10.2667C84.9333 10.1333 84.8 10 84.6667 10H80.6667C80.5333 10 80.4 10.1333 80.4 10.2667V30.5333C80.4 30.6667 80.5333 30.8 80.6667 30.8H84.6667C84.8 30.8 84.9333 30.6667 84.9333 30.5333V19.3333C84.9333 15.7333 87.3333 13.8667 90.2667 13.8667C93.3333 13.8667 95.0667 15.8667 95.0667 19.3333V30.6667C95.0667 30.8 95.2 30.9333 95.3333 30.9333H99.3333C99.4667 30.9333 99.6 30.8 99.6 30.6667V17.8667C99.6 12.9333 96.1333 9.6 91.2 9.6ZM17.2 0C17.0667 0 16.9333 0.133334 16.9333 0.266667V4.53333C16.9333 4.66667 17.0667 4.8 17.2 4.8C22.6667 5.33333 26.6667 9.73333 26.6667 15.7333C26.6667 22.2667 22.1333 26.8 16 26.8C9.86667 26.8 5.33333 22.2667 5.33333 15.7333C5.33333 9.73333 9.2 5.33333 14.8 4.8C14.9333 4.8 15.0667 4.66667 15.0667 4.53333V0.266667C14.8 0.133334 14.6667 0 14.5333 0C5.86667 0.666667 0 7.06667 0 15.6C0 24.6667 6.53333 31.3333 15.8667 31.3333C25.2 31.3333 31.7333 24.6667 31.7333 15.6C31.7333 7.06667 25.7333 0.666667 17.2 0ZM191.867 30.4L183.467 19.8667L191.733 10.5333C191.867 10.4 191.733 10.1333 191.6 10.1333H186.667C186.533 10.1333 186.4 10.1333 186.267 10.2667L179.6 18H177.733V0.8C177.733 0.666667 177.6 0.533333 177.467 0.533333H173.467C173.333 0.533333 173.2 0.666667 173.2 0.8V30.5333C173.2 30.6667 173.333 30.8 173.467 30.8H177.467C177.6 30.8 177.733 30.6667 177.733 30.5333V22H179.6L186.4 30.5333C186.533 30.6667 186.667 30.6667 186.8 30.6667H191.733C192 30.8 192 30.5333 191.867 30.4ZM161.467 9.6C159.333 9.6 156.8 10.2667 155.2 12.6667V10.2667C155.2 10.1333 155.067 10 154.933 10H150.933C150.8 10 150.667 10.1333 150.667 10.2667V30.5333C150.667 30.6667 150.8 30.8 150.933 30.8H154.933C155.067 30.8 155.2 30.6667 155.2 30.5333V19.3333C155.2 15.7333 157.6 13.8667 160.533 13.8667C163.6 13.8667 165.333 15.8667 165.333 19.3333V30.6667C165.333 30.8 165.467 30.9333 165.6 30.9333H169.6C169.733 30.9333 169.867 30.8 169.867 30.6667V17.8667C169.867 12.9333 166.4 9.6 161.467 9.6ZM147.067 10.1333H143.067C142.933 10.1333 142.8 10.2667 142.8 10.4V12.6667C141.333 10.8 139.333 9.6 136.267 9.6C130.533 9.6 125.867 14.1333 125.867 20.5333C125.867 26.9333 130.4 31.4667 136.267 31.4667C138 31.4667 139.333 31.0667 140.533 30.4C140.667 30.2667 140.8 30.1333 140.8 30V26.2667C140.8 26.1333 140.533 26 140.4 26.1333C139.467 26.8 138.133 27.2 136.8 27.2C132.933 27.2 130.533 24.1333 130.533 20.5333C130.533 16.9333 132.933 13.8667 136.8 13.8667C139.867 13.8667 142.8 16.1333 142.8 19.3333V30.5333C142.8 30.6667 142.933 30.8 143.067 30.8H147.067C147.2 30.8 147.333 30.6667 147.333 30.5333V10.2667C147.333 10.1333 147.2 10.1333 147.067 10.1333ZM114 9.6C112.267 9.6 110.933 10 109.733 10.6667C109.6 10.8 109.467 10.9333 109.467 11.0667V14.6667C109.467 14.8 109.733 14.9333 109.867 14.8C110.8 14.1333 112.133 13.7333 113.467 13.7333C117.333 13.7333 119.733 16.8 119.733 20.4C119.733 24 117.333 27.0667 113.467 27.0667C110.4 27.0667 107.467 24.8 107.467 21.6V0.8C107.467 0.666667 107.333 0.533333 107.2 0.533333H103.2C103.067 0.533333 102.933 0.666667 102.933 0.8V30.5333C102.933 30.6667 103.067 30.8 103.2 30.8H107.2C107.333 30.8 107.467 30.6667 107.467 30.5333V28.2667C108.933 30.1333 110.933 31.3333 114 31.3333C119.733 31.3333 124.4 26.8 124.4 20.4C124.267 14.1333 119.733 9.6 114 9.6Z" fill="white"/>
</svg>
