<svg width="138" height="40" viewBox="0 0 138 40" fill="none" xmlns="http://www.w3.org/2000/svg">
                    <path d="M22.9964 0C30.5286 0.763521 37.5821 3.99939 43.054 9.11377L22.4813 38.5396L22.9964 0Z" fill="#2BD124"></path>
                    <path d="M4.69617 11.9558C6.92007 10.4772 9.39848 9.30163 12.1011 8.51993C14.8037 7.73823 17.6275 7.38677 20.3483 7.47161L19.9363 38.5881L4.69617 11.9558Z" fill="#2BD124"></path>
                    <path d="M5.85972 19.1303L16.3975 37.5397L0 28.4744C1.05439 24.8991 3.07832 21.6512 5.85972 19.1243V19.1303Z" fill="#2BD124"></path>
                    <g>
                        <path d="M80.3393 22.6874C80.1757 22.0633 79.8909 21.4513 79.497 20.8695C79.1092 20.2939 78.5577 19.8091 77.8548 19.4334C77.1519 19.0577 76.2369 18.8638 75.1219 18.8638C73.7282 18.8638 72.5526 19.1728 71.6376 19.7727C71.2134 20.0515 70.8256 20.3848 70.4923 20.7544L70.3832 20.8756V19.2879H67.2746V33.5827H70.8377V26.3293C70.8377 25.4264 70.9407 24.6932 71.1407 24.1418C71.3407 23.5903 71.6073 23.1661 71.9224 22.8813C72.2375 22.5965 72.5829 22.4026 72.9465 22.2996C73.304 22.2027 73.6494 22.1481 73.9645 22.1481C74.7522 22.1481 75.3703 22.3299 75.8006 22.6814C76.2308 23.0328 76.5459 23.4813 76.7338 24.0024C76.9216 24.5235 77.0368 25.0447 77.0731 25.5597C77.1095 26.0748 77.1276 26.499 77.1276 26.8262V33.5706H80.6847V25.5415C80.6847 25.3052 80.6665 24.9174 80.6301 24.3963C80.5938 23.8751 80.4908 23.2934 80.3272 22.6632L80.3393 22.6874Z" fill="#005265"></path>
                        <path d="M87.1927 15.5855C87.1927 14.5113 86.3218 13.6404 85.2475 13.6404C84.1732 13.6404 83.3024 14.5113 83.3024 15.5855V15.6704C83.3024 16.7447 84.1732 17.6155 85.2475 17.6155C86.3218 17.6155 87.1927 16.7447 87.1927 15.6704V15.5855Z" fill="#005265"></path>
                        <path d="M58.4095 30.3833C57.9005 30.5894 57.343 30.6924 56.7491 30.6924C56.1553 30.6924 55.622 30.5894 55.1191 30.3894C54.61 30.1894 54.1616 29.8925 53.7738 29.5168C53.392 29.1411 53.0891 28.6806 52.8709 28.1594C52.6528 27.6383 52.5437 27.0505 52.5437 26.4142V14.4888L48.9806 14.513V26.4445C48.9806 27.9655 49.3078 29.3108 49.9623 30.4318C50.6106 31.5528 51.5317 32.4376 52.6891 33.0556C53.8526 33.6737 55.216 33.9888 56.7431 33.9888C58.2701 33.9888 59.6396 33.6737 60.797 33.0556C61.9544 32.4376 62.8755 31.5528 63.5238 30.4318C64.1722 29.3047 64.5055 27.9655 64.5055 26.4445V14.4888H60.9485V26.4142C60.9485 27.0444 60.8394 27.6262 60.6273 28.1473C60.4152 28.6684 60.1183 29.1229 59.7365 29.5047C59.3608 29.8804 58.9064 30.1773 58.4034 30.3894L58.4095 30.3833Z" fill="#005265"></path>
                        <path d="M83.4966 33.5889H86.9991V19.2941L83.4966 20.3485V33.5889Z" fill="#005265"></path>
                        <path d="M117 36.7338V40H118.788C119.988 40 120.945 39.6607 121.648 38.982C122.351 38.3094 122.702 37.3944 122.702 36.2673V19.2941L119.194 20.3485V34.5039C119.194 35.2068 119.036 35.7643 118.721 36.1461C118.406 36.5339 117.843 36.7278 116.994 36.7278L117 36.7338Z" fill="#005265"></path>
                        <path d="M122.896 15.5855C122.896 14.5113 122.025 13.6404 120.951 13.6404C119.877 13.6404 119.006 14.5113 119.006 15.5855V15.6704C119.006 16.7447 119.877 17.6155 120.951 17.6155C122.025 17.6155 122.896 16.7447 122.896 15.6704V15.5855Z" fill="#005265"></path>
                        <path d="M116.921 23.057C116.867 22.5359 116.703 22.0026 116.418 21.4755C116.14 20.9543 115.788 20.512 115.364 20.1605C115.091 19.9302 114.74 19.7 114.207 19.4758C110.953 18.1184 108.129 19.3182 108.129 19.3182C107.832 19.4455 107.402 19.6394 106.899 20.0029C105.129 21.2876 104.687 23.257 104.578 23.8448L108.129 23.7902C108.208 23.5236 108.414 22.9601 108.953 22.5056C109.032 22.4389 109.329 22.1905 109.777 22.0329C110.577 21.7421 111.952 21.6875 112.831 22.6086C113.461 23.2691 113.528 24.0993 113.534 24.3902V24.4508L113.479 24.4568C112.867 24.5477 112.28 24.6325 111.734 24.7174C110.801 24.8568 109.959 25.0022 109.226 25.1537C108.492 25.3052 107.856 25.4809 107.323 25.6748C106.559 25.9536 105.947 26.3111 105.493 26.7231C105.044 27.1352 104.717 27.62 104.511 28.1593C104.311 28.6986 104.208 29.0137 104.208 29.6742C104.208 30.462 104.39 31.1891 104.754 31.8375C105.117 32.4859 105.656 33.0131 106.359 33.4009C107.062 33.7887 107.935 33.9887 108.953 33.9887C110.183 33.9887 111.213 33.7706 112.013 33.3464C112.643 33.0131 113.249 32.5041 113.819 31.8375L113.928 31.7042V33.5888H116.982V24.8386C116.982 24.1841 116.958 23.5842 116.903 23.057H116.921ZM113.516 27.3473C113.51 27.6139 113.498 27.6079 113.479 27.9108C113.449 28.438 113.334 28.9046 113.146 29.3046C113.043 29.5167 112.855 29.7772 112.583 30.0802C112.31 30.3893 111.934 30.6619 111.468 30.9043C111.001 31.1467 110.425 31.2679 109.753 31.2679C109.329 31.2679 108.953 31.2012 108.65 31.074C108.335 30.9467 108.092 30.7589 107.923 30.5104C107.753 30.2681 107.662 30.262 107.662 29.9166C107.662 29.6681 107.717 29.4379 107.826 29.2318C107.929 29.0319 108.098 28.838 108.323 28.6683C108.541 28.4986 108.838 28.3411 109.195 28.2017C109.51 28.0866 109.874 27.9775 110.286 27.8805C110.692 27.7836 111.237 27.6745 111.904 27.5533C112.334 27.4745 112.849 27.3897 113.443 27.2867L113.516 27.2746V27.3533V27.3473Z" fill="#005265"></path>
                        <path d="M99.2819 28.1473C99.2637 28.3655 99.1607 29.432 98.2699 30.147C97.5548 30.7166 96.7671 30.7227 96.3611 30.7227C95.2522 30.7227 94.3978 30.3228 93.8342 29.5289C93.2707 28.7412 92.9859 27.705 92.9859 26.4385C92.9859 25.6326 93.101 24.8994 93.3373 24.2631C93.5736 23.6208 93.9433 23.0996 94.4402 22.7239C94.9371 22.3482 95.5855 22.1543 96.3611 22.1543C96.6762 22.1543 96.9852 22.2028 97.2761 22.2937C97.3306 22.3119 97.7791 22.4573 98.1972 22.7906C99.0395 23.4511 99.2879 24.457 99.3546 24.7539H102.93C102.93 24.2752 102.899 23.954 102.827 23.5844C102.609 22.4755 102.088 21.6695 101.742 21.2272C101.615 21.0636 101.245 20.603 100.651 20.1607C99.5121 19.3123 98.0881 18.8821 96.4096 18.8821C94.9613 18.8821 93.6827 19.2093 92.6223 19.8638C91.5618 20.5121 90.7256 21.415 90.1439 22.5482C89.5621 23.6814 89.2652 24.9902 89.2652 26.4324C89.2652 27.8747 89.55 29.1593 90.1136 30.2925C90.6771 31.4256 91.4952 32.3346 92.5496 32.989C93.6039 33.6495 94.8825 33.9828 96.3611 33.9828C97.1792 33.9828 98.9122 33.9707 100.542 32.7527C101.009 32.4073 102.427 31.2438 102.827 29.3108C102.906 28.9351 102.924 28.6139 102.93 28.1413H99.2879L99.2819 28.1473Z" fill="#005265"></path>
                        <path d="M137.336 23.057C137.282 22.5359 137.118 22.0026 136.833 21.4755C136.555 20.9543 136.203 20.512 135.779 20.1605C135.506 19.9302 135.155 19.7 134.622 19.4758C131.368 18.1184 128.544 19.3182 128.544 19.3182C128.247 19.4455 127.817 19.6394 127.314 20.0029C125.544 21.2876 125.102 23.257 124.993 23.8448L128.544 23.7902C128.623 23.5236 128.829 22.9601 129.368 22.5056C129.447 22.4389 129.744 22.1905 130.192 22.0329C130.992 21.7421 132.367 21.6875 133.246 22.6086C133.876 23.2691 133.943 24.0993 133.949 24.3902V24.4508L133.894 24.4568C133.282 24.5477 132.695 24.6325 132.149 24.7174C131.216 24.8568 130.374 25.0022 129.641 25.1537C128.907 25.3052 128.271 25.4809 127.738 25.6748C126.974 25.9536 126.362 26.3111 125.908 26.7231C125.459 27.1352 125.132 27.62 124.926 28.1593C124.726 28.6986 124.623 29.0137 124.623 29.6742C124.623 30.462 124.805 31.1891 125.169 31.8375C125.532 32.4859 126.071 33.0131 126.774 33.4009C127.477 33.7887 128.35 33.9887 129.368 33.9887C130.598 33.9887 131.628 33.7706 132.428 33.3464C133.058 33.0131 133.664 32.5041 134.234 31.8375L134.343 31.7042V33.5888H137.397V24.8386C137.397 24.1841 137.373 23.5842 137.318 23.057H137.336ZM133.931 27.3473C133.925 27.6139 133.913 27.6079 133.894 27.9108C133.864 28.438 133.749 28.9046 133.561 29.3046C133.458 29.5167 133.27 29.7772 132.998 30.0802C132.725 30.3893 132.349 30.6619 131.883 30.9043C131.416 31.1467 130.84 31.2679 130.168 31.2679C129.744 31.2679 129.368 31.2012 129.065 31.074C128.75 30.9467 128.507 30.7589 128.338 30.5104C128.168 30.2681 128.077 30.262 128.077 29.9166C128.077 29.6681 128.132 29.4379 128.241 29.2318C128.344 29.0319 128.513 28.838 128.738 28.6683C128.956 28.4986 129.253 28.3411 129.61 28.2017C129.925 28.0866 130.289 27.9775 130.701 27.8805C131.107 27.7836 131.652 27.6745 132.319 27.5533C132.749 27.4745 133.264 27.3897 133.858 27.2867L133.931 27.2746V27.3533V27.3473Z" fill="#005265"></path>
                    </g>
                </svg>