<svg width="138" height="40" viewBox="0 0 138 40" fill="none" xmlns="http://www.w3.org/2000/svg">
<g clip-path="url(#clip0_358_2905)">
<path d="M22.9965 0C30.5287 0.763521 37.5822 3.99939 43.0541 9.11377L22.4814 38.5396L22.9965 0Z" fill="white"/>
<path d="M4.69629 11.9558C6.92019 10.4772 9.3986 9.30163 12.1012 8.51993C14.8038 7.73823 17.6276 7.38677 20.3484 7.47161L19.9364 38.5881L4.69629 11.9558Z" fill="white"/>
<path d="M5.85972 19.1303L16.3975 37.5397L0 28.4744C1.05439 24.8991 3.07832 21.6512 5.85972 19.1243V19.1303Z" fill="white"/>
<path d="M80.3391 22.6874C80.1755 22.0633 79.8907 21.4513 79.4968 20.8695C79.109 20.2939 78.5575 19.8091 77.8546 19.4334C77.1517 19.0577 76.2367 18.8638 75.1217 18.8638C73.728 18.8638 72.5524 19.1728 71.6374 19.7727C71.2132 20.0515 70.8254 20.3848 70.4921 20.7544L70.383 20.8756V19.2879H67.2744V33.5827H70.8375V26.3293C70.8375 25.4264 70.9405 24.6932 71.1405 24.1418C71.3405 23.5903 71.6071 23.1661 71.9222 22.8813C72.2373 22.5965 72.5827 22.4026 72.9463 22.2996C73.3038 22.2027 73.6492 22.1481 73.9643 22.1481C74.752 22.1481 75.3701 22.3299 75.8004 22.6814C76.2306 23.0328 76.5457 23.4813 76.7336 24.0024C76.9214 24.5235 77.0366 25.0447 77.0729 25.5597C77.1093 26.0748 77.1274 26.499 77.1274 26.8262V33.5706H80.6845V25.5415C80.6845 25.3052 80.6663 24.9174 80.6299 24.3963C80.5936 23.8751 80.4906 23.2934 80.327 22.6632L80.3391 22.6874Z" fill="white"/>
<path d="M87.193 15.5855C87.193 14.5113 86.3221 13.6404 85.2478 13.6404C84.1735 13.6404 83.3027 14.5113 83.3027 15.5855V15.6704C83.3027 16.7447 84.1735 17.6155 85.2478 17.6155C86.3221 17.6155 87.193 16.7447 87.193 15.6704V15.5855Z" fill="white"/>
<path d="M58.4094 30.3833C57.9004 30.5894 57.3429 30.6924 56.749 30.6924C56.1552 30.6924 55.6219 30.5894 55.119 30.3894C54.6099 30.1894 54.1615 29.8925 53.7737 29.5168C53.3919 29.1411 53.089 28.6806 52.8708 28.1594C52.6527 27.6383 52.5436 27.0505 52.5436 26.4142V14.4888L48.9805 14.513V26.4445C48.9805 27.9655 49.3077 29.3108 49.9622 30.4318C50.6105 31.5528 51.5316 32.4376 52.689 33.0556C53.8525 33.6737 55.2159 33.9888 56.743 33.9888C58.27 33.9888 59.6395 33.6737 60.7969 33.0556C61.9543 32.4376 62.8754 31.5528 63.5237 30.4318C64.1721 29.3047 64.5054 27.9655 64.5054 26.4445V14.4888H60.9484V26.4142C60.9484 27.0444 60.8393 27.6262 60.6272 28.1473C60.4151 28.6684 60.1182 29.1229 59.7364 29.5047C59.3607 29.8804 58.9063 30.1773 58.4033 30.3894L58.4094 30.3833Z" fill="white"/>
<path d="M83.4961 33.5889H86.9986V19.2941L83.4961 20.3485V33.5889Z" fill="white"/>
<path d="M117 36.7338V40H118.788C119.988 40 120.945 39.6607 121.648 38.982C122.351 38.3094 122.702 37.3944 122.702 36.2673V19.2941L119.194 20.3485V34.5039C119.194 35.2068 119.036 35.7643 118.721 36.1461C118.406 36.5339 117.843 36.7278 116.994 36.7278L117 36.7338Z" fill="white"/>
<path d="M122.896 15.5855C122.896 14.5113 122.025 13.6404 120.951 13.6404C119.877 13.6404 119.006 14.5113 119.006 15.5855V15.6704C119.006 16.7447 119.877 17.6155 120.951 17.6155C122.025 17.6155 122.896 16.7447 122.896 15.6704V15.5855Z" fill="white"/>
<path d="M116.921 23.057C116.867 22.5359 116.703 22.0026 116.418 21.4755C116.14 20.9543 115.788 20.512 115.364 20.1605C115.091 19.9302 114.74 19.7 114.207 19.4758C110.953 18.1184 108.129 19.3182 108.129 19.3182C107.832 19.4455 107.402 19.6394 106.899 20.0029C105.129 21.2876 104.687 23.257 104.578 23.8448L108.129 23.7902C108.208 23.5236 108.414 22.9601 108.953 22.5056C109.032 22.4389 109.329 22.1905 109.777 22.0329C110.577 21.7421 111.952 21.6875 112.831 22.6086C113.461 23.2691 113.528 24.0993 113.534 24.3902V24.4508L113.479 24.4568C112.867 24.5477 112.28 24.6325 111.734 24.7174C110.801 24.8568 109.959 25.0022 109.226 25.1537C108.492 25.3052 107.856 25.4809 107.323 25.6748C106.559 25.9536 105.947 26.3111 105.493 26.7231C105.044 27.1352 104.717 27.62 104.511 28.1593C104.311 28.6986 104.208 29.0137 104.208 29.6742C104.208 30.462 104.39 31.1891 104.754 31.8375C105.117 32.4859 105.656 33.0131 106.359 33.4009C107.062 33.7887 107.935 33.9887 108.953 33.9887C110.183 33.9887 111.213 33.7706 112.013 33.3464C112.643 33.0131 113.249 32.5041 113.819 31.8375L113.928 31.7042V33.5888H116.982V24.8386C116.982 24.1841 116.958 23.5842 116.903 23.057H116.921ZM113.516 27.3473C113.51 27.6139 113.498 27.6079 113.479 27.9108C113.449 28.438 113.334 28.9046 113.146 29.3046C113.043 29.5167 112.855 29.7772 112.583 30.0802C112.31 30.3893 111.934 30.6619 111.468 30.9043C111.001 31.1467 110.425 31.2679 109.753 31.2679C109.329 31.2679 108.953 31.2012 108.65 31.074C108.335 30.9467 108.092 30.7589 107.923 30.5104C107.753 30.2681 107.662 30.262 107.662 29.9166C107.662 29.6681 107.717 29.4379 107.826 29.2318C107.929 29.0319 108.098 28.838 108.323 28.6683C108.541 28.4986 108.838 28.3411 109.195 28.2017C109.51 28.0866 109.874 27.9775 110.286 27.8805C110.692 27.7836 111.237 27.6745 111.904 27.5533C112.334 27.4745 112.849 27.3897 113.443 27.2867L113.516 27.2746V27.3533V27.3473Z" fill="white"/>
<path d="M99.2813 28.1473C99.2631 28.3655 99.1601 29.432 98.2693 30.147C97.5542 30.7166 96.7665 30.7227 96.3605 30.7227C95.2516 30.7227 94.3972 30.3228 93.8336 29.5289C93.2701 28.7412 92.9854 27.705 92.9854 26.4385C92.9854 25.6326 93.1005 24.8994 93.3368 24.2631C93.5731 23.6208 93.9428 23.0996 94.4397 22.7239C94.9366 22.3482 95.5849 22.1543 96.3605 22.1543C96.6756 22.1543 96.9847 22.2028 97.2756 22.2937C97.3301 22.3119 97.7785 22.4573 98.1966 22.7906C99.0389 23.4511 99.2873 24.457 99.354 24.7539H102.929C102.929 24.2752 102.898 23.954 102.826 23.5844C102.608 22.4755 102.087 21.6695 101.741 21.2272C101.614 21.0636 101.244 20.603 100.65 20.1607C99.5116 19.3123 98.0876 18.8821 96.409 18.8821C94.9607 18.8821 93.6821 19.2093 92.6217 19.8638C91.5612 20.5121 90.725 21.415 90.1433 22.5482C89.5615 23.6814 89.2646 24.9902 89.2646 26.4324C89.2646 27.8747 89.5495 29.1593 90.1131 30.2925C90.6766 31.4256 91.4946 32.3346 92.549 32.989C93.6033 33.6495 94.8819 33.9828 96.3605 33.9828C97.1786 33.9828 98.9117 33.9707 100.541 32.7527C101.008 32.4073 102.426 31.2438 102.826 29.3108C102.905 28.9351 102.923 28.6139 102.929 28.1413H99.2874L99.2813 28.1473Z" fill="white"/>
<path d="M137.336 23.057C137.282 22.5359 137.118 22.0026 136.833 21.4755C136.555 20.9543 136.203 20.512 135.779 20.1605C135.506 19.9302 135.155 19.7 134.622 19.4758C131.368 18.1184 128.544 19.3182 128.544 19.3182C128.247 19.4455 127.817 19.6394 127.314 20.0029C125.544 21.2876 125.102 23.257 124.993 23.8448L128.544 23.7902C128.623 23.5236 128.829 22.9601 129.368 22.5056C129.447 22.4389 129.744 22.1905 130.192 22.0329C130.992 21.7421 132.367 21.6875 133.246 22.6086C133.876 23.2691 133.943 24.0993 133.949 24.3902V24.4508L133.894 24.4568C133.282 24.5477 132.695 24.6325 132.149 24.7174C131.216 24.8568 130.374 25.0022 129.641 25.1537C128.907 25.3052 128.271 25.4809 127.738 25.6748C126.974 25.9536 126.362 26.3111 125.908 26.7231C125.459 27.1352 125.132 27.62 124.926 28.1593C124.726 28.6986 124.623 29.0137 124.623 29.6742C124.623 30.462 124.805 31.1891 125.169 31.8375C125.532 32.4859 126.071 33.0131 126.774 33.4009C127.477 33.7887 128.35 33.9887 129.368 33.9887C130.598 33.9887 131.628 33.7706 132.428 33.3464C133.058 33.0131 133.664 32.5041 134.234 31.8375L134.343 31.7042V33.5888H137.397V24.8386C137.397 24.1841 137.373 23.5842 137.318 23.057H137.336ZM133.931 27.3473C133.925 27.6139 133.913 27.6079 133.894 27.9108C133.864 28.438 133.749 28.9046 133.561 29.3046C133.458 29.5167 133.27 29.7772 132.998 30.0802C132.725 30.3893 132.349 30.6619 131.883 30.9043C131.416 31.1467 130.84 31.2679 130.168 31.2679C129.744 31.2679 129.368 31.2012 129.065 31.074C128.75 30.9467 128.507 30.7589 128.338 30.5104C128.168 30.2681 128.077 30.262 128.077 29.9166C128.077 29.6681 128.132 29.4379 128.241 29.2318C128.344 29.0319 128.513 28.838 128.738 28.6683C128.956 28.4986 129.253 28.3411 129.61 28.2017C129.925 28.0866 130.289 27.9775 130.701 27.8805C131.107 27.7836 131.652 27.6745 132.319 27.5533C132.749 27.4745 133.264 27.3897 133.858 27.2867L133.931 27.2746V27.3533V27.3473Z" fill="white"/>
</g>
<defs>
<clipPath id="clip0_358_2905">
<rect width="138" height="40" fill="white"/>
</clipPath>
</defs>
</svg>
